<svg width="61" height="61" viewBox="0 0 61 61" fill="none" xmlns="http://www.w3.org/2000/svg">
<g clip-path="url(#clip0_4599_3774)">
<g clip-path="url(#clip1_4599_3774)">
<g clip-path="url(#clip2_4599_3774)">
<path d="M5.30859 1H55.3086C57.7939 1 59.8086 3.01472 59.8086 5.5V55.5C59.8086 57.9853 57.7939 60 55.3086 60H5.30859C2.82331 60 0.808594 57.9853 0.808594 55.5V5.5C0.808594 3.01472 2.82331 1 5.30859 1Z" stroke="#FD1716"/>
<path fill-rule="evenodd" clip-rule="evenodd" d="M17.4514 15.5C16.2767 15.5 15.3086 16.4681 15.3086 17.6428V43.3569C15.3086 44.5317 16.2767 45.4998 17.4514 45.4998H37.4513C38.6261 45.4998 39.5941 44.5317 39.5941 43.3569V33.6528L45.0998 28.1471C45.2335 28.0132 45.3086 27.8317 45.3086 27.6424C45.3086 27.4532 45.2335 27.2717 45.0998 27.1378L42.242 24.2799C42.1743 24.2124 42.0937 24.1591 42.0051 24.1233C41.9164 24.0875 41.8214 24.0698 41.7258 24.0714C41.5406 24.0743 41.3638 24.1491 41.2327 24.2799L39.5941 25.9185V17.6428C39.5941 16.4681 38.6261 15.5 37.4513 15.5H17.4514ZM17.4514 16.9286H37.4513C37.8594 16.9286 38.1656 17.2348 38.1656 17.6428V27.347L29.8042 35.7084C29.7251 35.7866 29.6654 35.8821 29.6298 35.9874L28.2033 40.2745C28.162 40.4001 28.1563 40.5347 28.1869 40.6633C28.2175 40.7919 28.2832 40.9095 28.3767 41.003C28.4702 41.0965 28.5878 41.1622 28.7164 41.1929C28.8451 41.2235 28.9797 41.2178 29.1052 41.1764L33.3923 39.75C33.4976 39.7143 33.5932 39.6546 33.6713 39.5756L38.1656 35.0813V43.3569C38.1656 43.765 37.8594 44.0712 37.4513 44.0712H17.4514C17.0434 44.0712 16.7372 43.765 16.7372 43.3569V17.6428C16.7372 17.2348 17.0434 16.9286 17.4514 16.9286ZM31.7259 19.7843C31.5403 19.788 31.3634 19.8638 31.2327 19.9956L28.3749 22.8507C28.2407 22.9846 28.1652 23.1664 28.165 23.356C28.1648 23.5456 28.2399 23.7275 28.3739 23.8618C28.5078 23.996 28.6896 24.0715 28.8792 24.0717C29.0688 24.0719 29.2507 23.9967 29.385 23.8628L31.0221 22.2257V25.5006C31.0221 27.0958 29.7622 28.3584 28.167 28.3584H25.3092C22.9473 28.3584 21.0221 30.2801 21.0221 32.642V37.0554C20.1938 37.3528 19.5929 38.1479 19.5929 39.0727C19.5929 40.2477 20.5614 41.2127 21.7364 41.2127C22.9114 41.2127 23.88 40.2477 23.88 39.0727C23.88 38.1479 23.279 37.3528 22.4507 37.0554V32.642C22.4507 31.0468 23.714 29.7842 25.3092 29.7842H28.167C30.529 29.7842 32.4506 27.8625 32.4506 25.5006V22.2257L34.0878 23.8628C34.222 23.9971 34.4041 24.0726 34.5939 24.0727C34.7838 24.0727 34.9659 23.9974 35.1002 23.8632C35.2346 23.7289 35.31 23.5469 35.3101 23.357C35.3102 23.1671 35.2348 22.985 35.1006 22.8507L32.2428 19.9956C32.1752 19.9275 32.0946 19.8737 32.0058 19.8374C31.917 19.8011 31.8218 19.783 31.7259 19.7843ZM21.7288 21.208C21.5868 21.2084 21.4483 21.2511 21.3307 21.3307C21.2132 21.4102 21.122 21.5229 21.0688 21.6545C21.0156 21.786 21.0028 21.9305 21.032 22.0694C21.0612 22.2082 21.1311 22.3353 21.2328 22.4342L22.1556 23.3571L21.2328 24.2799C21.0986 24.4139 21.0231 24.5956 21.0229 24.7853C21.0227 24.9749 21.0978 25.1568 21.2318 25.291C21.3657 25.4252 21.5475 25.5007 21.7371 25.5009C21.9267 25.5011 22.1086 25.426 22.2428 25.2921L23.1657 24.3692L24.0885 25.2921C24.1545 25.3609 24.2335 25.4159 24.3209 25.4538C24.4084 25.4917 24.5025 25.5117 24.5978 25.5127C24.6931 25.5138 24.7876 25.4958 24.8759 25.4598C24.9641 25.4238 25.0443 25.3705 25.1117 25.3031C25.1791 25.2357 25.2324 25.1555 25.2684 25.0673C25.3044 24.979 25.3224 24.8845 25.3213 24.7892C25.3203 24.6939 25.3003 24.5998 25.2624 24.5123C25.2245 24.4249 25.1695 24.3459 25.1007 24.2799L24.1778 23.3571L25.1007 22.4342C25.2039 22.3339 25.2744 22.2046 25.303 22.0635C25.3315 21.9223 25.3167 21.7758 25.2605 21.6433C25.2043 21.5107 25.1094 21.3982 24.9881 21.3205C24.8668 21.2428 24.7249 21.2036 24.581 21.208C24.3949 21.2131 24.2182 21.2907 24.0885 21.4242L23.1657 22.347L22.2428 21.4242C22.176 21.3555 22.0961 21.301 22.0078 21.2638C21.9195 21.2267 21.8246 21.2077 21.7288 21.208ZM41.7363 25.7957L43.5841 27.6435L42.452 28.7756L40.6042 26.9278L41.7363 25.7957ZM39.5941 27.9378L41.4419 29.7856L33.1663 38.0612L31.3185 36.2134L39.5941 27.9378ZM30.621 37.5346L31.8452 38.7588L30.0092 39.3705L30.621 37.5346ZM21.7364 38.3577C22.1394 38.3577 22.4507 38.6697 22.4507 39.0727C22.4507 39.4756 22.1394 39.7869 21.7364 39.7869C21.3335 39.7869 21.0221 39.4756 21.0221 39.0727C21.0221 38.6697 21.3335 38.3577 21.7364 38.3577Z" fill="url(#paint0_linear_4599_3774)"/>
</g>
</g>
</g>
<defs>
<linearGradient id="paint0_linear_4599_3774" x1="26.964" y1="58.3629" x2="58.3654" y2="29.9098" gradientUnits="userSpaceOnUse">
<stop stop-color="#FF1717"/>
<stop offset="1" stop-color="#FF6461"/>
</linearGradient>
<clipPath id="clip0_4599_3774">
<rect width="60" height="60" fill="white" transform="translate(0.308594 0.5)"/>
</clipPath>
<clipPath id="clip1_4599_3774">
<rect width="60" height="60" fill="white" transform="translate(0.308594 0.5)"/>
</clipPath>
<clipPath id="clip2_4599_3774">
<rect width="60" height="60" fill="white" transform="translate(0.308594 0.5)"/>
</clipPath>
</defs>
</svg>
