<svg width="60" height="61" viewBox="0 0 60 61" fill="none" xmlns="http://www.w3.org/2000/svg">
<g clip-path="url(#clip0_4599_3757)">
<g clip-path="url(#clip1_4599_3757)">
<g clip-path="url(#clip2_4599_3757)">
<path d="M5 1H55C57.4853 1 59.5 3.01472 59.5 5.5V55.5C59.5 57.9853 57.4853 60 55 60H5C2.51472 60 0.5 57.9853 0.5 55.5V5.5C0.5 3.01472 2.51472 1 5 1Z" stroke="#FD1716"/>
<path d="M42.6579 15.5H17.3421C16.7212 15.5007 16.1258 15.7477 15.6867 16.1867C15.2477 16.6258 15.0007 17.2212 15 17.8421V38.4436C15.0007 39.0645 15.2477 39.6599 15.6867 40.099C16.1258 40.5381 16.7212 40.785 17.3421 40.7857H25.9907C25.8579 42.1649 24.9501 43.2436 23.2839 44.7539C23.2197 44.812 23.1747 44.8881 23.1547 44.9723C23.1347 45.0565 23.1406 45.1448 23.1717 45.2256C23.2029 45.3063 23.2577 45.3757 23.329 45.4247C23.4004 45.4737 23.4849 45.5 23.5714 45.5H36.4286C36.5185 45.5 36.6062 45.4717 36.6792 45.4191C36.7521 45.3665 36.8067 45.2923 36.8352 45.207C36.8636 45.1216 36.8645 45.0295 36.8376 44.9436C36.8108 44.8578 36.7577 44.7825 36.6857 44.7286C34.965 43.4381 34.0663 42.1134 33.99 40.7857H42.6579C43.2788 40.785 43.8742 40.5381 44.3132 40.099C44.7523 39.6599 44.9993 39.0645 45 38.4436V17.8421C44.9993 17.2212 44.7523 16.6258 44.3132 16.1867C43.8742 15.7477 43.2788 15.5007 42.6579 15.5ZM17.3421 16.3571H42.6579C43.0516 16.3576 43.429 16.5142 43.7074 16.7926C43.9858 17.071 44.1424 17.4484 44.1429 17.8421V35.6429H15.8571V17.8421C15.8576 17.4484 16.0142 17.071 16.2926 16.7926C16.571 16.5142 16.9484 16.3576 17.3421 16.3571ZM35.2371 44.6429H24.6579C25.8373 43.493 26.7386 42.3213 26.8599 40.7857H33.1221C33.18 42.1143 33.8889 43.4064 35.2371 44.6429ZM42.6574 39.9286H17.3421C16.9484 39.9281 16.571 39.7715 16.2926 39.4931C16.0142 39.2147 15.8576 38.8373 15.8571 38.4436V36.5H44.1429V38.4436C44.1424 38.8373 43.9858 39.2147 43.7074 39.4931C43.429 39.7715 43.0511 39.9281 42.6574 39.9286Z" fill="url(#paint0_linear_4599_3757)"/>
<path d="M20.5725 37.7858H18.8583C18.7446 37.7858 18.6356 37.831 18.5552 37.9113C18.4748 37.9917 18.4297 38.1007 18.4297 38.2144C18.4297 38.3281 18.4748 38.4371 18.5552 38.5174C18.6356 38.5978 18.7446 38.643 18.8583 38.643H20.5725C20.6862 38.643 20.7952 38.5978 20.8756 38.5174C20.956 38.4371 21.0011 38.3281 21.0011 38.2144C21.0011 38.1007 20.956 37.9917 20.8756 37.9113C20.7952 37.831 20.6862 37.7858 20.5725 37.7858ZM26.1997 24.6154H28.0181V26.0593C28.0181 26.1729 28.0633 26.2819 28.1436 26.3623C28.224 26.4427 28.333 26.4878 28.4467 26.4878C28.5604 26.4878 28.6694 26.4427 28.7497 26.3623C28.8301 26.2819 28.8753 26.1729 28.8753 26.0593V24.615H29.5704C29.6841 24.615 29.7931 24.5698 29.8734 24.4894C29.9538 24.4091 29.999 24.3001 29.999 24.1864C29.999 24.0727 29.9538 23.9637 29.8734 23.8833C29.7931 23.803 29.6841 23.7578 29.5704 23.7578H28.8753V21.1907C28.8753 21.1804 28.8701 21.1718 28.8693 21.1615C28.8666 21.1323 28.8608 21.1034 28.8521 21.0754C28.8444 21.0497 28.838 21.0248 28.8264 21.0013C28.8144 20.9777 28.7981 20.9571 28.7818 20.9357C28.7648 20.9118 28.7452 20.8899 28.7235 20.8701C28.7158 20.8637 28.712 20.8543 28.7038 20.8483C28.6901 20.8375 28.6738 20.8354 28.6593 20.8268C28.6344 20.8115 28.608 20.7989 28.5804 20.7891C28.5528 20.7804 28.5244 20.7747 28.4955 20.772C28.4784 20.7703 28.4638 20.7621 28.4467 20.7621C28.4364 20.7621 28.4274 20.7673 28.4175 20.7681C28.3885 20.7708 28.3597 20.7766 28.3318 20.7853C28.3057 20.793 28.2804 20.7994 28.2568 20.8114C28.2333 20.8234 28.2131 20.8393 28.1917 20.8555C28.1678 20.8726 28.1459 20.8921 28.1261 20.9138C28.1193 20.9215 28.1103 20.9254 28.1038 20.9335L25.8573 23.9293C25.8095 23.9929 25.7804 24.0686 25.7733 24.1479C25.7661 24.2272 25.7812 24.3069 25.8168 24.3781C25.8524 24.4492 25.9071 24.5091 25.9748 24.551C26.0425 24.5928 26.1201 24.6154 26.1997 24.6154ZM28.0181 22.4768V23.7583H27.0568L28.0181 22.4768ZM21.3264 25.3654C21.2618 25.4233 21.2162 25.4994 21.1958 25.5838C21.1753 25.6681 21.181 25.7566 21.212 25.8377C21.2429 25.9188 21.2978 25.9885 21.3693 26.0377C21.4408 26.0869 21.5255 26.1132 21.6123 26.1133H24.608C24.7216 26.1133 24.8306 26.0681 24.911 25.9877C24.9914 25.9074 25.0365 25.7983 25.0365 25.6847C25.0365 25.571 24.9914 25.462 24.911 25.3816C24.8306 25.3013 24.7216 25.2561 24.608 25.2561H22.7334L24.2523 23.8954C24.6225 23.514 24.8103 23.0768 24.8103 22.5951C24.8103 21.5845 23.9643 20.7621 22.9245 20.7621C22.1977 20.7621 21.548 21.1564 21.2291 21.7915C21.2024 21.842 21.186 21.8972 21.1809 21.9541C21.1758 22.011 21.1821 22.0683 21.1994 22.1227C21.2168 22.1771 21.2449 22.2274 21.2819 22.2708C21.319 22.3142 21.3644 22.3498 21.4155 22.3754C21.4665 22.401 21.5221 22.4162 21.5791 22.42C21.636 22.4238 21.6932 22.4162 21.7472 22.3976C21.8012 22.379 21.8509 22.3499 21.8934 22.3118C21.936 22.2737 21.9705 22.2276 21.995 22.176C22.1651 21.8378 22.5298 21.6193 22.9241 21.6193C23.4915 21.6193 23.9527 22.0573 23.9527 22.5951C23.9527 22.8565 23.8558 23.0734 23.6591 23.2778L21.3264 25.3654ZM33.4781 27.0994C33.4781 27.2131 33.5233 27.3221 33.6036 27.4024C33.684 27.4828 33.793 27.528 33.9067 27.528H35.6287L34.4415 30.6943C34.4016 30.8007 34.4057 30.9186 34.4527 31.0221C34.4998 31.1256 34.586 31.2061 34.6925 31.246C34.7989 31.2859 34.9169 31.2819 35.0203 31.2349C35.1238 31.1878 35.2044 31.1016 35.2443 30.9951L36.6487 27.2503C36.673 27.1854 36.6812 27.1156 36.6726 27.0468C36.6641 26.9781 36.639 26.9124 36.5995 26.8555C36.5601 26.7985 36.5074 26.752 36.446 26.7198C36.3846 26.6877 36.3164 26.6709 36.2471 26.6708H33.9067C33.793 26.6708 33.684 26.716 33.6036 26.7963C33.5233 26.8767 33.4781 26.9857 33.4781 27.0994ZM29.1885 32.4865C29.2412 32.5065 29.2973 32.5159 29.3535 32.5142C29.4098 32.5125 29.4652 32.4997 29.5166 32.4766C29.5679 32.4535 29.6142 32.4205 29.6528 32.3794C29.6914 32.3384 29.7215 32.2902 29.7414 32.2375L34.3485 20.0661C34.3703 20.0131 34.3813 19.9563 34.3807 19.899C34.3801 19.8417 34.3681 19.785 34.3453 19.7325C34.3224 19.6799 34.2893 19.6325 34.2478 19.5929C34.2063 19.5534 34.1573 19.5226 34.1037 19.5023C34.0501 19.482 33.993 19.4727 33.9357 19.4749C33.8784 19.4771 33.8222 19.4908 33.7703 19.5151C33.7184 19.5394 33.6719 19.5739 33.6336 19.6165C33.5952 19.6591 33.5658 19.7089 33.5471 19.7631L28.9391 31.9337C28.9191 31.9863 28.9097 32.0424 28.9114 32.0987C28.9131 32.155 28.9259 32.2104 28.949 32.2617C28.9722 32.3131 29.0052 32.3593 29.0462 32.3979C29.0872 32.4365 29.1359 32.4666 29.1885 32.4865Z" fill="url(#paint1_linear_4599_3757)"/>
</g>
</g>
</g>
<defs>
<linearGradient id="paint0_linear_4599_3757" x1="26.6554" y1="58.3632" x2="58.057" y2="29.9101" gradientUnits="userSpaceOnUse">
<stop stop-color="#FF1717"/>
<stop offset="1" stop-color="#FF6461"/>
</linearGradient>
<linearGradient id="paint1_linear_4599_3757" x1="25.5186" y1="46.8619" x2="45.4616" y2="29.6608" gradientUnits="userSpaceOnUse">
<stop stop-color="#FF1717"/>
<stop offset="1" stop-color="#FF6461"/>
</linearGradient>
<clipPath id="clip0_4599_3757">
<rect width="60" height="60" fill="white" transform="translate(0 0.5)"/>
</clipPath>
<clipPath id="clip1_4599_3757">
<rect width="60" height="60" fill="white" transform="translate(0 0.5)"/>
</clipPath>
<clipPath id="clip2_4599_3757">
<rect width="60" height="60" fill="white" transform="translate(0 0.5)"/>
</clipPath>
</defs>
</svg>
