<svg width="61" height="61" viewBox="0 0 61 61" fill="none" xmlns="http://www.w3.org/2000/svg">
<g clip-path="url(#clip0_4599_3765)">
<g clip-path="url(#clip1_4599_3765)">
<g clip-path="url(#clip2_4599_3765)">
<path d="M5.66016 1H55.6602C58.1454 1 60.1602 3.01472 60.1602 5.5V55.5C60.1602 57.9853 58.1454 60 55.6602 60H5.66016C3.17487 60 1.16016 57.9853 1.16016 55.5V5.5C1.16016 3.01472 3.17487 1 5.66016 1Z" stroke="#FD1716"/>
<path d="M19.0223 45.4822C19.6872 45.4822 20.3372 45.2851 20.8901 44.9156C21.443 44.5462 21.8739 44.0211 22.1284 43.4068C22.3829 42.7924 22.4495 42.1164 22.3197 41.4643C22.19 40.8121 21.8698 40.213 21.3996 39.7428C20.9294 39.2726 20.3304 38.9524 19.6782 38.8227C19.026 38.693 18.35 38.7596 17.7357 39.014C17.1213 39.2685 16.5962 39.6994 16.2268 40.2523C15.8574 40.8052 15.6602 41.4552 15.6602 42.1202C15.6616 43.0114 16.0162 43.8658 16.6464 44.496C17.2767 45.1262 18.131 45.4809 19.0223 45.4822ZM19.0223 39.7926C19.4826 39.7926 19.9326 39.9291 20.3154 40.1849C20.6982 40.4406 20.9965 40.8041 21.1727 41.2294C21.3488 41.6548 21.3949 42.1228 21.3051 42.5743C21.2153 43.0258 20.9936 43.4405 20.6681 43.766C20.3426 44.0915 19.9279 44.3132 19.4764 44.403C19.0249 44.4928 18.5569 44.4468 18.1315 44.2706C17.7062 44.0944 17.3427 43.7961 17.087 43.4133C16.8312 43.0305 16.6947 42.5805 16.6947 42.1202C16.696 41.5033 16.9417 40.912 17.3779 40.4758C17.8141 40.0396 18.4054 39.794 19.0223 39.7926ZM42.2981 45.4822C42.9631 45.4822 43.6131 45.2851 44.166 44.9156C44.7189 44.5462 45.1498 44.0211 45.4043 43.4068C45.6587 42.7924 45.7253 42.1164 45.5956 41.4643C45.4659 40.8121 45.1457 40.213 44.6755 39.7428C44.2053 39.2726 43.6062 38.9524 42.954 38.8227C42.3019 38.693 41.6259 38.7596 41.0115 39.014C40.3972 39.2685 39.8721 39.6994 39.5027 40.2523C39.1332 40.8052 38.9361 41.4552 38.9361 42.1202C38.9374 43.0114 39.2921 43.8658 39.9223 44.496C40.5525 45.1262 41.4069 45.4809 42.2981 45.4822ZM42.2981 39.7926C42.7585 39.7926 43.2085 39.9291 43.5913 40.1849C43.974 40.4406 44.2724 40.8041 44.4485 41.2294C44.6247 41.6548 44.6708 42.1228 44.581 42.5743C44.4912 43.0258 44.2695 43.4405 43.944 43.766C43.6185 44.0915 43.2037 44.3132 42.7522 44.403C42.3007 44.4928 41.8327 44.4468 41.4074 44.2706C40.9821 44.0944 40.6186 43.7961 40.3628 43.4133C40.1071 43.0305 39.9705 42.5805 39.9705 42.1202C39.9719 41.5033 40.2176 40.912 40.6538 40.4758C41.09 40.0396 41.6812 39.794 42.2981 39.7926ZM27.2981 42.1202C27.2981 42.7851 27.4953 43.4352 27.8647 43.988C28.2342 44.5409 28.7593 44.9719 29.3736 45.2263C29.9879 45.4808 30.6639 45.5474 31.3161 45.4176C31.9683 45.2879 32.5673 44.9677 33.0375 44.4975C33.5077 44.0273 33.8279 43.4283 33.9577 42.7761C34.0874 42.1239 34.0208 41.4479 33.7663 40.8336C33.5119 40.2192 33.081 39.6941 32.5281 39.3247C31.9752 38.9553 31.3252 38.7581 30.6602 38.7581C29.7689 38.7595 28.9146 39.1141 28.2844 39.7443C27.6542 40.3746 27.2995 41.2289 27.2981 42.1202ZM32.9878 42.1202C32.9878 42.5805 32.8513 43.0305 32.5955 43.4133C32.3398 43.7961 31.9762 44.0944 31.5509 44.2706C31.1256 44.4468 30.6576 44.4928 30.2061 44.403C29.7546 44.3132 29.3399 44.0915 29.0143 43.766C28.6888 43.4405 28.4671 43.0258 28.3773 42.5743C28.2875 42.1228 28.3336 41.6548 28.5098 41.2294C28.686 40.8041 28.9843 40.4406 29.3671 40.1849C29.7498 39.9291 30.1998 39.7926 30.6602 39.7926C31.2771 39.794 31.8683 40.0396 32.3045 40.4758C32.7408 40.912 32.9864 41.5033 32.9878 42.1202ZM31.1774 28.1185V26.8616H31.3274C31.8762 26.8616 32.4024 26.6436 32.7904 26.2556C33.1784 25.8676 33.3964 25.3413 33.3964 24.7926C33.3964 24.2439 33.1784 23.7176 32.7904 23.3296C32.4024 22.9416 31.8762 22.7236 31.3274 22.7236H31.1774V20.6547H31.3274C31.6018 20.6547 31.8649 20.7637 32.0589 20.9577C32.2529 21.1517 32.3619 21.4148 32.3619 21.6891H33.3964C33.3964 21.1404 33.1784 20.6142 32.7904 20.2262C32.4024 19.8382 31.8762 19.6202 31.3274 19.6202H31.1774V18.3633H30.143V19.6202H29.993C29.4442 19.6202 28.918 19.8382 28.53 20.2262C28.142 20.6142 27.924 21.1404 27.924 21.6891C27.924 22.2379 28.142 22.7641 28.53 23.1521C28.918 23.5401 29.4442 23.7581 29.993 23.7581H30.143V25.8271H29.993C29.7186 25.8271 29.4555 25.7181 29.2615 25.5241C29.0675 25.3301 28.9585 25.067 28.9585 24.7926H27.924C27.924 25.3413 28.142 25.8676 28.53 26.2556C28.918 26.6436 29.4442 26.8616 29.993 26.8616H30.143V28.1185H31.1774ZM29.993 22.7236C29.7186 22.7236 29.4555 22.6146 29.2615 22.4206C29.0675 22.2266 28.9585 21.9635 28.9585 21.6891C28.9585 21.4148 29.0675 21.1517 29.2615 20.9577C29.4555 20.7637 29.7186 20.6547 29.993 20.6547H30.143V22.7236H29.993ZM31.1774 23.7581H31.3274C31.6018 23.7581 31.8649 23.8671 32.0589 24.0611C32.2529 24.2551 32.3619 24.5182 32.3619 24.7926C32.3619 25.067 32.2529 25.3301 32.0589 25.5241C31.8649 25.7181 31.6018 25.8271 31.3274 25.8271H31.1774V23.7581Z" fill="url(#paint0_linear_4599_3765)"/>
<path d="M41.5204 35.6552H40.4859C40.3838 35.6557 40.2841 35.6864 40.1994 35.7435C40.1147 35.8005 40.0488 35.8814 40.01 35.9758C39.9704 36.07 39.9596 36.1739 39.9789 36.2742C39.9982 36.3745 40.0469 36.4669 40.1186 36.5396L41.6704 38.0914C41.7184 38.1398 41.7757 38.1783 41.8387 38.2046C41.9017 38.2308 41.9693 38.2444 42.0376 38.2444C42.1059 38.2444 42.1735 38.2308 42.2365 38.2046C42.2995 38.1783 42.3568 38.1398 42.4048 38.0914L43.9566 36.5396C44.0295 36.4673 44.0793 36.3749 44.0995 36.2741C44.1197 36.1734 44.1094 36.0689 44.07 35.974C44.0306 35.8792 43.9639 35.7982 43.8783 35.7414C43.7926 35.6846 43.6921 35.6546 43.5893 35.6552H42.5548V33.0689C42.5548 32.9318 42.5003 32.8002 42.4033 32.7032C42.3063 32.6062 42.1748 32.5517 42.0376 32.5517H31.1755V31C33.184 30.8658 35.0616 29.9563 36.412 28.4635C37.7624 26.9708 38.4797 25.0116 38.4126 22.9999C38.3455 20.9881 37.4991 19.0811 36.0522 17.6817C34.6053 16.2823 32.6712 15.5 30.6583 15.5C28.6454 15.5 26.7113 16.2823 25.2644 17.6817C23.8175 19.0811 22.9711 20.9881 22.904 22.9999C22.8369 25.0116 23.5542 26.9708 24.9046 28.4635C26.255 29.9563 28.1326 30.8658 30.141 31V32.5517H19.279C19.1418 32.5517 19.0102 32.6062 18.9132 32.7032C18.8162 32.8002 18.7617 32.9318 18.7617 33.0689V35.6552H17.7273C17.6245 35.6546 17.5239 35.6846 17.4383 35.7414C17.3527 35.7982 17.2859 35.8792 17.2465 35.974C17.2071 36.0689 17.1969 36.1734 17.2171 36.2741C17.2373 36.3749 17.2871 36.4673 17.36 36.5396L18.9117 38.0914C18.9598 38.1398 19.017 38.1783 19.0801 38.2046C19.1431 38.2308 19.2107 38.2444 19.279 38.2444C19.3473 38.2444 19.4149 38.2308 19.4779 38.2046C19.5409 38.1783 19.5981 38.1398 19.6462 38.0914L21.1979 36.5396C21.2709 36.4673 21.3206 36.3749 21.3408 36.2741C21.3611 36.1734 21.3508 36.0689 21.3114 35.974C21.272 35.8792 21.2053 35.7982 21.1196 35.7414C21.034 35.6846 20.9334 35.6546 20.8307 35.6552H19.7962V33.5862H30.141V35.6552H29.1066C29.0038 35.6546 28.9032 35.6846 28.8176 35.7414C28.732 35.7982 28.6653 35.8792 28.6259 35.974C28.5865 36.0689 28.5762 36.1734 28.5964 36.2741C28.6166 36.3749 28.6664 36.4673 28.7393 36.5396L30.291 38.0914C30.3391 38.1398 30.3963 38.1783 30.4594 38.2046C30.5224 38.2308 30.59 38.2444 30.6583 38.2444C30.7266 38.2444 30.7942 38.2308 30.8572 38.2046C30.9202 38.1783 30.9774 38.1398 31.0255 38.0914L32.5773 36.5396C32.6502 36.4673 32.6999 36.3749 32.7202 36.2741C32.7404 36.1734 32.7301 36.0689 32.6907 35.974C32.6513 35.8792 32.5846 35.7982 32.499 35.7414C32.4133 35.6846 32.3128 35.6546 32.21 35.6552H31.1755V33.5862H41.5204V35.6552ZM23.9342 23.2414C23.9342 21.9115 24.3285 20.6114 25.0674 19.5056C25.8062 18.3999 26.8564 17.538 28.0851 17.0291C29.3137 16.5201 30.6657 16.387 31.9701 16.6464C33.2745 16.9059 34.4726 17.5463 35.413 18.4867C36.3534 19.4271 36.9938 20.6252 37.2532 21.9295C37.5127 23.2339 37.3795 24.5859 36.8706 25.8146C36.3616 27.0433 35.4998 28.0934 34.394 28.8323C33.2882 29.5711 31.9882 29.9655 30.6583 29.9655C28.8749 29.9655 27.1646 29.2571 25.9036 27.996C24.6426 26.735 23.9342 25.0247 23.9342 23.2414Z" fill="url(#paint1_linear_4599_3765)"/>
</g>
</g>
</g>
<defs>
<linearGradient id="paint0_linear_4599_3765" x1="27.3156" y1="57.1101" x2="55.8395" y2="28.5187" gradientUnits="userSpaceOnUse">
<stop stop-color="#FF1717"/>
<stop offset="1" stop-color="#FF6461"/>
</linearGradient>
<linearGradient id="paint1_linear_4599_3765" x1="27.6591" y1="47.9966" x2="51.5246" y2="22.4185" gradientUnits="userSpaceOnUse">
<stop stop-color="#FF1717"/>
<stop offset="1" stop-color="#FF6461"/>
</linearGradient>
<clipPath id="clip0_4599_3765">
<rect width="60" height="60" fill="white" transform="translate(0.660156 0.5)"/>
</clipPath>
<clipPath id="clip1_4599_3765">
<rect width="60" height="60" fill="white" transform="translate(0.660156 0.5)"/>
</clipPath>
<clipPath id="clip2_4599_3765">
<rect width="60" height="60" fill="white" transform="translate(0.660156 0.5)"/>
</clipPath>
</defs>
</svg>
