<svg width="61" height="60" viewBox="0 0 61 60" fill="none" xmlns="http://www.w3.org/2000/svg">
<g clip-path="url(#clip0_4599_3733)">
<g clip-path="url(#clip1_4599_3733)">
<g clip-path="url(#clip2_4599_3733)">
<path d="M5.66016 0.5H55.6602C58.1454 0.5 60.1602 2.51472 60.1602 5V55C60.1602 57.4853 58.1454 59.5 55.6602 59.5H5.66016C3.17487 59.5 1.16016 57.4853 1.16016 55V5C1.16016 2.51472 3.17487 0.5 5.66016 0.5Z" stroke="#FD1716"/>
<path d="M28.043 33.0781H31.1465C31.1465 33.9367 30.4534 34.6298 29.5948 34.6298C28.7362 34.6298 28.043 33.9367 28.043 33.0781Z" fill="url(#paint0_linear_4599_3733)"/>
<path d="M37.3502 21.2069C36.2092 21.2069 35.2812 20.279 35.2812 19.1379V17.069C35.2812 15.9279 36.2092 15 37.3502 15C38.4913 15 39.4192 15.9279 39.4192 17.069V18.6207C39.4192 18.9062 39.1875 19.1379 38.902 19.1379C38.6164 19.1379 38.3847 18.9062 38.3847 18.6207V17.069C38.3847 16.4979 37.9213 16.0345 37.3502 16.0345C36.7792 16.0345 36.3158 16.4979 36.3158 17.069V19.1379C36.3158 19.709 36.7792 20.1724 37.3502 20.1724C37.6358 20.1724 37.8675 20.4041 37.8675 20.6897C37.8675 20.9752 37.6358 21.2069 37.3502 21.2069Z" fill="url(#paint1_linear_4599_3733)"/>
<path d="M22.8659 21.2069C21.7249 21.2069 20.7969 20.279 20.7969 19.1379V17.069C20.7969 15.9279 21.7249 15 22.8659 15C24.0069 15 24.9349 15.9279 24.9349 17.069V18.6207C24.9349 18.9062 24.7031 19.1379 24.4176 19.1379C24.1321 19.1379 23.9004 18.9062 23.9004 18.6207V17.069C23.9004 16.4979 23.4369 16.0345 22.8659 16.0345C22.2949 16.0345 21.8314 16.4979 21.8314 17.069V19.1379C21.8314 19.709 22.2949 20.1724 22.8659 20.1724C23.1514 20.1724 23.3831 20.4041 23.3831 20.6897C23.3831 20.9752 23.1514 21.2069 22.8659 21.2069Z" fill="url(#paint2_linear_4599_3733)"/>
<path d="M45.1092 43.9397C44.8237 43.9397 44.592 43.708 44.592 43.4225V19.6552C44.592 19.3708 44.3592 19.138 44.0747 19.138H39.4196C39.1341 19.138 38.9023 18.9063 38.9023 18.6208C38.9023 18.3352 39.1341 18.1035 39.4196 18.1035H44.0747C44.9303 18.1035 45.6265 18.7997 45.6265 19.6552V43.4225C45.6265 43.708 45.3947 43.9397 45.1092 43.9397Z" fill="url(#paint3_linear_4599_3733)"/>
<path d="M35.7982 19.138H23.3845C23.0989 19.138 22.8672 18.9063 22.8672 18.6208C22.8672 18.3352 23.0989 18.1035 23.3845 18.1035H35.7982C36.0838 18.1035 36.3155 18.3352 36.3155 18.6208C36.3155 18.9063 36.0838 19.138 35.7982 19.138Z" fill="url(#paint4_linear_4599_3733)"/>
<path d="M42.005 45.0001H18.2119C17.3564 45.0001 16.6602 44.3039 16.6602 43.4483V23.7932C16.6602 23.5077 16.8919 23.2759 17.1774 23.2759C17.463 23.2759 17.6947 23.5077 17.6947 23.7932V43.4483C17.6947 43.7328 17.9274 43.9656 18.2119 43.9656H42.005C42.2895 43.9656 42.5223 43.7328 42.5223 43.4483V19.6552C42.5223 19.3708 42.2895 19.138 42.005 19.138H37.8671C37.5816 19.138 37.3499 18.9063 37.3499 18.6208C37.3499 18.3352 37.5816 18.1035 37.8671 18.1035H42.005C42.8605 18.1035 43.5568 18.7997 43.5568 19.6552V43.4483C43.5568 44.3039 42.8605 45.0001 42.005 45.0001Z" fill="url(#paint5_linear_4599_3733)"/>
<path d="M40.9716 24.3104H17.1774C16.8919 24.3104 16.6602 24.0787 16.6602 23.7932V19.6552C16.6602 18.7997 17.3564 18.1035 18.2119 18.1035H21.3154C21.6009 18.1035 21.8326 18.3352 21.8326 18.6208C21.8326 18.9063 21.6009 19.138 21.3154 19.138H18.2119C17.9274 19.138 17.6947 19.3708 17.6947 19.6552V23.2759H40.9716C41.2571 23.2759 41.4888 23.5077 41.4888 23.7932C41.4888 24.0787 41.2571 24.3104 40.9716 24.3104Z" fill="url(#paint6_linear_4599_3733)"/>
<path d="M29.5924 35.1487C28.4513 35.1487 27.5234 34.2208 27.5234 33.0797C27.5234 32.7942 27.7551 32.5625 28.0407 32.5625H31.1441C31.4296 32.5625 31.6613 32.7942 31.6613 33.0797C31.6613 34.2197 30.7334 35.1487 29.5924 35.1487ZM28.6965 33.597C28.8765 33.9063 29.2107 34.1142 29.5924 34.1142C29.9741 34.1142 30.3082 33.9063 30.4882 33.597H28.6965Z" fill="url(#paint7_linear_4599_3733)"/>
<path d="M36.3167 32.0436C36.0312 32.0436 35.7994 31.8119 35.7994 31.5263C35.7994 31.2419 35.5667 31.0091 35.2822 31.0091C34.9977 31.0091 34.765 31.2419 34.765 31.5263C34.765 31.8119 34.5332 32.0436 34.2477 32.0436C33.9622 32.0436 33.7305 31.8119 33.7305 31.5263C33.7305 30.6708 34.4267 29.9746 35.2822 29.9746C36.1377 29.9746 36.8339 30.6708 36.8339 31.5263C36.8339 31.8119 36.6022 32.0436 36.3167 32.0436Z" fill="url(#paint8_linear_4599_3733)"/>
<path d="M24.9378 32.0436C24.6523 32.0436 24.4206 31.8119 24.4206 31.5263C24.4206 31.2419 24.1878 31.0091 23.9033 31.0091C23.6188 31.0091 23.3861 31.2419 23.3861 31.5263C23.3861 31.8119 23.1544 32.0436 22.8688 32.0436C22.5833 32.0436 22.3516 31.8119 22.3516 31.5263C22.3516 30.6708 23.0478 29.9746 23.9033 29.9746C24.7588 29.9746 25.455 30.6708 25.455 31.5263C25.455 31.8119 25.2233 32.0436 24.9378 32.0436Z" fill="url(#paint9_linear_4599_3733)"/>
</g>
</g>
</g>
<defs>
<linearGradient id="paint0_linear_4599_3733" x1="29.2487" y1="35.2952" x2="30.6295" y2="32.7929" gradientUnits="userSpaceOnUse">
<stop stop-color="#FF1717"/>
<stop offset="1" stop-color="#FF6461"/>
</linearGradient>
<linearGradient id="paint1_linear_4599_3733" x1="36.8889" y1="23.8683" x2="42.6676" y2="20.3776" gradientUnits="userSpaceOnUse">
<stop stop-color="#FF1717"/>
<stop offset="1" stop-color="#FF6461"/>
</linearGradient>
<linearGradient id="paint2_linear_4599_3733" x1="22.4045" y1="23.8683" x2="28.1833" y2="20.3774" gradientUnits="userSpaceOnUse">
<stop stop-color="#FF1717"/>
<stop offset="1" stop-color="#FF6461"/>
</linearGradient>
<linearGradient id="paint3_linear_4599_3733" x1="41.5148" y1="55.0176" x2="53.6566" y2="52.1543" gradientUnits="userSpaceOnUse">
<stop stop-color="#FF1717"/>
<stop offset="1" stop-color="#FF6461"/>
</linearGradient>
<linearGradient id="paint4_linear_4599_3733" x1="28.092" y1="19.5816" x2="28.2755" y2="17.421" gradientUnits="userSpaceOnUse">
<stop stop-color="#FF1717"/>
<stop offset="1" stop-color="#FF6461"/>
</linearGradient>
<linearGradient id="paint5_linear_4599_3733" x1="27.1099" y1="56.5327" x2="55.2631" y2="31.0229" gradientUnits="userSpaceOnUse">
<stop stop-color="#FF1717"/>
<stop offset="1" stop-color="#FF6461"/>
</linearGradient>
<linearGradient id="paint6_linear_4599_3733" x1="26.3064" y1="26.9718" x2="29.654" y2="14.8384" gradientUnits="userSpaceOnUse">
<stop stop-color="#FF1717"/>
<stop offset="1" stop-color="#FF6461"/>
</linearGradient>
<linearGradient id="paint7_linear_4599_3733" x1="29.1311" y1="36.2576" x2="31.6739" y2="32.5711" gradientUnits="userSpaceOnUse">
<stop stop-color="#FF1717"/>
<stop offset="1" stop-color="#FF6461"/>
</linearGradient>
<linearGradient id="paint8_linear_4599_3733" x1="34.9362" y1="32.9307" x2="37.0138" y2="30.107" gradientUnits="userSpaceOnUse">
<stop stop-color="#FF1717"/>
<stop offset="1" stop-color="#FF6461"/>
</linearGradient>
<linearGradient id="paint9_linear_4599_3733" x1="23.5573" y1="32.9307" x2="25.6349" y2="30.107" gradientUnits="userSpaceOnUse">
<stop stop-color="#FF1717"/>
<stop offset="1" stop-color="#FF6461"/>
</linearGradient>
<clipPath id="clip0_4599_3733">
<rect width="60" height="60" fill="white" transform="translate(0.660156)"/>
</clipPath>
<clipPath id="clip1_4599_3733">
<rect width="60" height="60" fill="white" transform="translate(0.660156)"/>
</clipPath>
<clipPath id="clip2_4599_3733">
<rect width="60" height="60" fill="white" transform="translate(0.660156)"/>
</clipPath>
</defs>
</svg>
