<svg width="50" height="50" viewBox="0 0 50 50" fill="none" xmlns="http://www.w3.org/2000/svg">
<g clip-path="url(#clip0_4603_15713)">
<path d="M38.2812 0H11.7188C5.24666 0 0 5.24666 0 11.7188V38.2812C0 44.7533 5.24666 50 11.7188 50H38.2812C44.7533 50 50 44.7533 50 38.2812V11.7188C50 5.24666 44.7533 0 38.2812 0Z" fill="#65AFFF"/>
<path opacity="0.45" d="M32.3312 4.88281L25.0012 16.3652H10.3516L17.6764 4.88281H32.3312Z" fill="black"/>
<path opacity="0.6" d="M25.0006 16.3652H39.6555L32.3307 4.88281H17.6758L25.0006 16.3652Z" fill="black"/>
<path opacity="0.8" d="M17.6764 27.8432L25.0012 16.3652L17.6764 4.88281L10.3516 16.3652L17.6764 27.8432Z" fill="black"/>
<path opacity="0.45" d="M17.7461 45.0664L25.076 33.584H39.7309L32.4008 45.0664H17.7461Z" fill="black"/>
<path opacity="0.6" d="M25.0768 33.584H10.4219L17.7467 45.0664H32.4018L25.0768 33.584Z" fill="black"/>
<path opacity="0.8" d="M32.4029 22.1055L25.0781 33.5834L32.4029 45.0658L39.7328 33.5834L32.4029 22.1055Z" fill="black"/>
</g>
<defs>
<clipPath id="clip0_4603_15713">
<rect width="50" height="50" fill="white"/>
</clipPath>
</defs>
</svg>
