<svg width="50" height="50" viewBox="0 0 50 50" fill="none" xmlns="http://www.w3.org/2000/svg">
<g clip-path="url(#clip0_4603_15758)">
<path d="M38.2812 0H11.7188C5.24666 0 0 5.24666 0 11.7188V38.2812C0 44.7533 5.24666 50 11.7188 50H38.2812C44.7533 50 50 44.7533 50 38.2812V11.7188C50 5.24666 44.7533 0 38.2812 0Z" fill="#242938"/>
<path d="M20.6155 26.8137C20.7668 24.1027 22.0879 21.7143 24.0811 20.0211C26.0358 18.3582 28.6668 17.3418 31.5375 17.3418C34.4053 17.3418 37.0364 18.3582 38.9924 20.0211C40.9842 21.7143 42.3053 24.1027 42.458 26.8107C42.6092 29.5963 41.495 32.184 39.5403 34.1021C37.5471 36.0533 34.7121 37.2777 31.5375 37.2777C28.3629 37.2777 25.5223 36.0533 23.5305 34.1021C21.5743 32.184 20.4629 29.5963 20.6155 26.8137Z" fill="white"/>
<path d="M25.9329 27.0555C26.0105 25.6645 26.6884 24.4389 27.711 23.5701C28.714 22.7168 30.064 22.1953 31.537 22.1953C33.0085 22.1953 34.3585 22.7168 35.362 23.5701C36.3841 24.4389 37.062 25.6645 37.1403 27.0539C37.2179 28.4832 36.6462 29.8109 35.6433 30.7953C34.6204 31.7965 33.1659 32.4246 31.537 32.4246C29.9081 32.4246 28.4505 31.7965 27.4284 30.7953C26.4249 29.8109 25.8546 28.4832 25.9329 27.0555Z" fill="#265787"/>
<path d="M17.0098 29.8672C17.0193 30.4116 17.192 31.4694 17.4512 32.2955C17.9961 34.044 18.9199 35.6616 20.2053 37.0871C21.5246 38.5526 23.149 39.7295 25.0254 40.5651C26.9977 41.4426 29.1346 41.8899 31.3543 41.8862C33.5703 41.8832 35.7072 41.4272 37.6795 40.543C39.5559 39.6992 41.1789 38.5172 42.4959 37.0512C43.7807 35.6196 44.7031 33.9991 45.2492 32.2506C45.5215 31.3795 45.6952 30.4806 45.7668 29.5707C45.8349 28.6831 45.8063 27.7908 45.6813 26.9094C45.4367 25.1807 44.8414 23.5586 43.9248 22.0801C43.0867 20.7215 42.0061 19.5321 40.7213 18.5309L40.7242 18.5285L27.7582 8.52522C27.7465 8.51624 27.7371 8.50667 27.7246 8.49866C26.8738 7.84241 25.4434 7.84475 24.5078 8.50237C23.5619 9.16741 23.4537 10.267 24.2955 10.9608L24.2918 10.9645L29.6998 15.3832L13.2168 15.4008H13.1949C11.8324 15.4024 10.5229 16.3004 10.2637 17.4356C9.99727 18.5918 10.9225 19.551 12.3391 19.5563L12.3369 19.5614L20.6914 19.5451L5.78321 31.0434C5.76427 31.0574 5.74376 31.0721 5.72618 31.0862C4.31993 32.1682 3.86524 33.9674 4.75098 35.1061C5.65001 36.2641 7.56153 36.2662 8.98243 35.1127L17.119 28.4217C17.119 28.4217 17.0002 29.325 17.0098 29.8672ZM37.9174 32.892C36.241 34.6082 33.894 35.5815 31.3543 35.5866C28.8109 35.591 26.4639 34.6266 24.7875 32.9133C23.9684 32.0783 23.3664 31.1178 22.9953 30.0946C22.63 29.0871 22.4896 28.012 22.584 26.9446C22.6725 25.892 22.9844 24.8879 23.4822 23.9795C23.9713 23.0864 24.6447 22.2795 25.4764 21.5969C27.1061 20.2625 29.1807 19.5401 31.3506 19.5371C33.5227 19.5342 35.5959 20.2498 37.2272 21.5799C38.0572 22.2596 38.7301 23.0637 39.2191 23.9551C39.7238 24.8691 40.031 25.8788 40.1209 26.919C40.2138 27.9857 40.0729 29.0599 39.708 30.0666C39.3361 31.0928 38.7365 32.0533 37.9174 32.892Z" fill="#EA7600"/>
</g>
<defs>
<clipPath id="clip0_4603_15758">
<rect width="50" height="50" fill="white"/>
</clipPath>
</defs>
</svg>
