<svg width="50" height="50" viewBox="0 0 50 50" fill="none" xmlns="http://www.w3.org/2000/svg">
<g clip-path="url(#clip0_4603_15765)">
<path d="M38.2812 0H11.7188C5.24666 0 0 5.24666 0 11.7188V38.2812C0 44.7533 5.24666 50 11.7188 50H38.2812C44.7533 50 50 44.7533 50 38.2812V11.7188C50 5.24666 44.7533 0 38.2812 0Z" fill="#0E1128"/>
<path fill-rule="evenodd" clip-rule="evenodd" d="M37.3346 27.9543C36.9793 29.6584 35.4 34.0328 30.3627 36.4012L28.3402 34.1367L24.9269 37.5525C22.9855 37.527 21.0761 37.0544 19.3469 36.1715C17.6201 35.2904 16.1203 34.0221 14.9646 32.4656C15.3271 32.5781 15.7015 32.6482 16.0803 32.6748C16.6394 32.685 17.2443 32.4809 17.2443 31.5463V22.3287C17.2522 22.0917 17.2044 21.8562 17.1047 21.641C17.0047 21.4256 16.8558 21.2365 16.6697 21.0889C16.4832 20.941 16.2648 20.8385 16.0319 20.7896C15.7989 20.7407 15.5578 20.7468 15.3275 20.8072C13.7471 21.1697 12.4849 25.0953 12.4849 25.0953C12.4675 23.2824 12.8466 21.4876 13.5955 19.8365C14.3456 18.1833 15.4474 16.7137 16.824 15.5301C18.6395 13.9678 20.8585 12.9488 23.2266 12.5898C21.501 13.5688 20.5316 15.165 20.5316 16.5039C20.5316 18.6594 21.8359 18.3982 22.2217 18.0812V30.5219C22.2875 30.6779 22.373 30.825 22.4766 30.9594C22.6492 31.197 22.8762 31.3899 23.1385 31.5221C23.4012 31.6543 23.6916 31.7222 23.9857 31.7201C25.2912 31.7201 26.9851 30.2365 26.9851 30.2365V20.1668C26.9851 19.1424 26.2096 17.9051 25.4326 17.4803C25.4326 17.4803 26.8705 17.2266 27.9799 18.0723C28.1884 17.8189 28.4099 17.5764 28.6433 17.3457C31.2326 14.8164 33.6717 14.0961 35.7031 13.7361C35.7031 13.7361 32.0096 16.6256 32.0096 20.5029C32.0096 23.3861 32.0848 30.418 32.0848 30.418C33.4551 31.7353 35.493 29.8322 37.3346 27.9543Z" fill="white"/>
<path fill-rule="evenodd" clip-rule="evenodd" d="M25.0915 4.49219C21.0173 4.49219 17.0346 5.69492 13.6469 7.94824C10.2629 10.1975 7.6225 13.4005 6.06023 17.1516C4.50125 20.897 4.09314 25.0219 4.88796 29.0002C5.68467 32.9817 7.64702 36.6365 10.5257 39.5002C13.4107 42.3706 17.0805 44.3233 21.0729 45.1125C25.0686 45.9039 29.209 45.498 32.9749 43.9455C36.735 42.3965 39.952 39.7683 42.2196 36.3926C44.4821 33.0237 45.6906 29.0575 45.6913 24.9994C45.6913 19.5605 43.521 14.3445 39.6579 10.4986C35.7944 6.65293 30.555 4.49219 25.0915 4.49219ZM25.0915 44.685C21.1823 44.6853 17.3601 43.531 14.1046 41.367C10.8558 39.2076 8.321 36.1327 6.82116 32.5316C5.3249 28.9359 4.93326 24.976 5.69617 21.1568C6.46111 17.3346 8.345 13.8261 11.1085 11.077C13.8784 8.32165 17.4015 6.44719 21.2343 5.68945C25.0704 4.92988 29.0468 5.31992 32.6602 6.81016C36.2699 8.29737 39.3582 10.8207 41.535 14.0615C43.7065 17.296 44.8664 21.1036 44.8671 24.9994C44.8671 30.2207 42.7837 35.2281 39.0751 38.9201C35.3663 42.6121 30.3364 44.6861 25.0915 44.6861V44.685Z" fill="white"/>
</g>
<defs>
<clipPath id="clip0_4603_15765">
<rect width="50" height="50" fill="white"/>
</clipPath>
</defs>
</svg>
