<svg width="50" height="50" viewBox="0 0 50 50" fill="none" xmlns="http://www.w3.org/2000/svg">
<g clip-path="url(#clip0_4603_15697)">
<path d="M38.2812 0H11.7188C5.24666 0 0 5.24666 0 11.7188V38.2812C0 44.7533 5.24666 50 11.7188 50H38.2812C44.7533 50 50 44.7533 50 38.2812V11.7188C50 5.24666 44.7533 0 38.2812 0Z" fill="#242938"/>
<path d="M24.9992 28.7016C27.0117 28.7016 28.643 27.0701 28.643 25.0578C28.643 23.0455 27.0117 21.4141 24.9992 21.4141C22.9867 21.4141 21.3555 23.0455 21.3555 25.0578C21.3555 27.0701 22.9869 28.7016 24.9992 28.7016Z" fill="#00D8FF"/>
<path d="M25.0004 17.6484C29.8926 17.6484 34.4373 18.3504 37.8641 19.5303C41.9928 20.9516 44.5312 23.1061 44.5312 25.057C44.5312 27.09 41.841 29.3789 37.4072 30.8479C34.0553 31.9584 29.6443 32.5381 25.0004 32.5381C20.2391 32.5381 15.7303 31.9939 12.3404 30.8355C8.05176 29.3697 5.46875 27.0514 5.46875 25.057C5.46875 23.1219 7.89258 20.984 11.9633 19.5648C15.4027 18.3656 20.0596 17.6484 24.9996 17.6484H25.0004Z" stroke="#00D8FF" stroke-width="0.556938"/>
<path d="M18.5492 21.3746C20.9933 17.1367 23.8716 13.5504 26.6056 11.1715C29.8994 8.30488 33.0341 7.18222 34.724 8.15664C36.4851 9.17226 37.124 12.6465 36.1816 17.2211C35.4697 20.6795 33.7677 24.79 31.4476 28.8131C29.0689 32.9377 26.3453 36.5717 23.6486 38.9287C20.2363 41.9115 16.9373 42.991 15.2097 41.9947C13.5334 41.0287 12.8924 37.8605 13.6966 33.6252C14.3761 30.0465 16.0814 25.6541 18.5484 21.3746H18.5492Z" stroke="#00D8FF" stroke-width="0.556938"/>
<path d="M18.5568 28.8233C16.1058 24.5901 14.4371 20.3046 13.7406 16.7479C12.9021 12.4626 13.4949 9.18622 15.1834 8.20888C16.9429 7.19013 20.2716 8.37177 23.7642 11.4729C26.4048 13.8175 29.1164 17.3442 31.4431 21.3634C33.8287 25.4841 35.6166 29.6589 36.3121 33.1722C37.1922 37.6182 36.4798 41.0153 34.7539 42.0143C33.0793 42.9839 30.0146 41.9575 26.7468 39.1454C23.9859 36.7696 21.032 33.0987 18.5568 28.8233Z" stroke="#00D8FF" stroke-width="0.556938"/>
</g>
<defs>
<clipPath id="clip0_4603_15697">
<rect width="50" height="50" fill="white"/>
</clipPath>
</defs>
</svg>
