<svg width="50" height="50" viewBox="0 0 50 50" fill="none" xmlns="http://www.w3.org/2000/svg">
<g clip-path="url(#clip0_4603_15692)">
<path d="M38.2812 0H11.7188C5.24666 0 0 5.24666 0 11.7188V38.2812C0 44.7533 5.24666 50 11.7188 50H38.2812C44.7533 50 50 44.7533 50 38.2812V11.7188C50 5.24666 44.7533 0 38.2812 0Z" fill="#242938"/>
<path d="M14.7194 25L10.4894 29.23L6.25 25L10.48 20.77L14.7194 25ZM25 14.7194L32.2563 21.9756L36.4844 17.7456L25 6.25L13.5063 17.7438L17.7344 21.9737L25 14.7194ZM39.5106 20.77L35.2806 25L39.5106 29.23L43.7388 25L39.5106 20.77ZM25 35.2806L17.7438 28.0244L13.5156 32.2544L25 43.75L36.4844 32.2563L32.2544 28.0263L25 35.2806ZM25 29.23L29.23 25L25 20.77L20.7606 25L25 29.23Z" fill="#F0B90B"/>
</g>
<defs>
<clipPath id="clip0_4603_15692">
<rect width="50" height="50" fill="white"/>
</clipPath>
</defs>
</svg>
