<svg width="60" height="60" viewBox="0 0 60 60" fill="none" xmlns="http://www.w3.org/2000/svg">
<rect width="60" height="60" rx="8" fill="url(#paint0_linear_111_190)"/>
<path d="M42.75 32.0142H42V30.5142C42 29.3207 41.5259 28.1761 40.682 27.3322C39.8381 26.4883 38.6935 26.0142 37.5 26.0142H31.5V22.5981C32.0719 22.2679 32.5189 21.7582 32.7716 21.1481C33.0244 20.5379 33.0687 19.8614 32.8978 19.2235C32.7269 18.5856 32.3502 18.022 31.8263 17.6199C31.3024 17.2179 30.6604 17 30 17C29.3396 17 28.6976 17.2179 28.1737 17.6199C27.6498 18.022 27.2731 18.5856 27.1022 19.2235C26.9313 19.8614 26.9756 20.5379 27.2284 21.1481C27.4811 21.7582 27.9281 22.2679 28.5 22.5981V26.0142H22.5C21.3065 26.0142 20.1619 26.4883 19.318 27.3322C18.4741 28.1761 18 29.3207 18 30.5142V32.0142H17.25C16.6533 32.0142 16.081 32.2512 15.659 32.6732C15.2371 33.0951 15 33.6674 15 34.2642C15 34.8609 15.2371 35.4332 15.659 35.8552C16.081 36.2771 16.6533 36.5142 17.25 36.5142H18V38.0142C18 39.2077 18.4741 40.3522 19.318 41.1962C20.1619 42.0401 21.3065 42.5142 22.5 42.5142H37.5C38.6935 42.5142 39.8381 42.0401 40.682 41.1962C41.5259 40.3522 42 39.2077 42 38.0142V36.5142H42.75C43.3467 36.5142 43.919 36.2771 44.341 35.8552C44.7629 35.4332 45 34.8609 45 34.2642C45 33.6674 44.7629 33.0951 44.341 32.6732C43.919 32.2512 43.3467 32.0142 42.75 32.0142ZM40.5 38.0142C40.4991 38.8096 40.1827 39.5721 39.6203 40.1345C39.0579 40.6969 38.2954 41.0133 37.5 41.0142H22.5C21.7046 41.0133 20.9421 40.6969 20.3797 40.1345C19.8173 39.5721 19.5009 38.8095 19.5 38.0142V30.5142C19.5009 29.7188 19.8173 28.9563 20.3797 28.3938C20.9421 27.8314 21.7046 27.5151 22.5 27.5142H37.5C38.2954 27.5151 39.0579 27.8314 39.6203 28.3938C40.1828 28.9562 40.4991 29.7188 40.5 30.5142V38.0142ZM27 34.2642C27 34.7092 26.868 35.1442 26.6208 35.5142C26.3736 35.8842 26.0222 36.1726 25.611 36.3429C25.1999 36.5132 24.7475 36.5578 24.311 36.4709C23.8746 36.3841 23.4737 36.1698 23.159 35.8552C22.8443 35.5405 22.63 35.1396 22.5432 34.7031C22.4564 34.2667 22.501 33.8143 22.6713 33.4031C22.8416 32.992 23.13 32.6406 23.5 32.3934C23.87 32.1461 24.305 32.0142 24.75 32.0142C25.3467 32.0142 25.919 32.2512 26.341 32.6732C26.7629 33.0951 27 33.6674 27 34.2642ZM37.5 34.2642C37.5 34.7092 37.368 35.1442 37.1208 35.5142C36.8736 35.8842 36.5222 36.1726 36.111 36.3429C35.6999 36.5132 35.2475 36.5578 34.811 36.4709C34.3746 36.3841 33.9737 36.1698 33.659 35.8552C33.3443 35.5405 33.13 35.1396 33.0432 34.7031C32.9564 34.2667 33.001 33.8143 33.1713 33.4031C33.3416 32.992 33.63 32.6406 34 32.3934C34.37 32.1461 34.805 32.0142 35.25 32.0142C35.8467 32.0142 36.419 32.2512 36.841 32.6732C37.2629 33.0951 37.5 33.6674 37.5 34.2642Z" fill="white"/>
<defs>
<linearGradient id="paint0_linear_111_190" x1="23.3108" y1="85.7264" x2="86.1141" y2="28.8202" gradientUnits="userSpaceOnUse">
<stop stop-color="#FF1717"/>
<stop offset="1" stop-color="#FF6461"/>
</linearGradient>
</defs>
</svg>
