<svg width="60" height="60" viewBox="0 0 60 60" fill="none" xmlns="http://www.w3.org/2000/svg">
<rect width="60" height="60" rx="8" fill="url(#paint0_linear_111_188)"/>
<path d="M27.7018 20.625C27.7018 20.3579 27.9184 20.1413 28.1856 20.1413H39.375C39.6421 20.1413 39.8587 20.3579 39.8587 20.625V30.4088L40.1439 30.0434C40.3083 29.8326 40.6123 29.7955 40.8231 29.9599C41.0338 30.1243 41.071 30.4283 40.9066 30.6391L39.756 32.1123C39.6643 32.2297 39.5237 32.2982 39.3746 32.2982C39.2255 32.2982 39.0849 32.2297 38.9933 32.1123L37.8427 30.6391C37.6783 30.4283 37.7155 30.1243 37.9262 29.9599C38.1366 29.7955 38.441 29.8326 38.6054 30.0434L38.8905 30.4088V21.1088H28.1856C27.9184 21.1088 27.7018 20.8922 27.7018 20.625ZM39.7811 37.6903C40.151 37.6903 40.5073 37.8417 40.7842 38.1167C40.9738 38.305 41.2801 38.304 41.4686 38.1144C41.6569 37.9249 41.6559 37.6186 41.4664 37.43C41.007 36.9736 40.4088 36.7225 39.7814 36.7225C38.7467 36.7225 37.8584 37.4056 37.4884 38.3722H37.1916C36.9244 38.3722 36.7078 38.5888 36.7078 38.8559C36.7078 39.1231 36.9244 39.3397 37.1916 39.3397H37.3048C37.3048 39.3515 37.3038 39.3629 37.3038 39.3746C37.3038 39.3864 37.3044 39.3978 37.3048 39.4095H37.1916C36.9244 39.4095 36.7078 39.6262 36.7078 39.8933C36.7078 40.1605 36.9244 40.3771 37.1916 40.3771H37.4884C37.8587 41.344 38.7467 42.0268 39.7814 42.0268C40.4088 42.0268 41.007 41.7756 41.4664 41.3192C41.6559 41.131 41.6569 40.8247 41.4686 40.6348C41.2804 40.4453 40.9738 40.4443 40.7842 40.6325C40.5076 40.9075 40.1514 41.0589 39.7811 41.0589C39.2849 41.0589 38.8442 40.7904 38.5685 40.3768H40.0072C40.2744 40.3768 40.491 40.1602 40.491 39.893C40.491 39.6258 40.2744 39.4092 40.0072 39.4092H38.272C38.2717 39.3975 38.2714 39.386 38.2714 39.3743C38.2714 39.3626 38.272 39.3511 38.272 39.3394H40.0072C40.2744 39.3394 40.491 39.1228 40.491 38.8556C40.491 38.5884 40.2744 38.3718 40.0072 38.3718H38.5685C38.8439 37.9588 39.2849 37.6903 39.7811 37.6903ZM43.7845 39.375C43.7845 41.8063 41.8063 43.7845 39.375 43.7845C36.9436 43.7845 34.9654 41.8063 34.9654 39.375C34.9654 36.9436 36.9436 34.9654 39.375 34.9654C41.8063 34.9654 43.7845 36.9436 43.7845 39.375ZM42.8169 39.375C42.8169 37.477 41.2729 35.933 39.375 35.933C37.477 35.933 35.933 37.477 35.933 39.375C35.933 41.2729 37.477 42.8169 39.375 42.8169C41.2729 42.8169 42.8169 41.2729 42.8169 39.375ZM45 39.375C45 42.4767 42.4767 45 39.375 45C36.2732 45 33.7499 42.4767 33.7499 39.375C33.7499 36.2732 36.2732 33.7499 39.375 33.7499C42.4767 33.7499 45 36.2732 45 39.375ZM44.0321 39.375C44.0321 36.8069 41.943 34.7178 39.375 34.7178C36.8069 34.7178 34.7178 36.8069 34.7178 39.375C34.7178 41.943 36.8069 44.0321 39.375 44.0321C41.943 44.0321 44.0321 41.943 44.0321 39.375ZM21.1088 23.1092V22.9892C21.5029 22.906 21.8458 22.7213 22.0686 22.464C22.3028 22.1932 22.4026 21.8549 22.3579 21.4856C22.2692 20.7536 21.7136 20.2985 20.7072 20.1334C19.9964 20.0166 19.9847 19.7707 19.9801 19.6783C19.9635 19.3361 20.3239 19.2272 20.4349 19.2021C20.6808 19.1463 21.147 19.1717 21.3349 19.6196C21.4383 19.8659 21.7218 19.9817 21.9684 19.8783C22.2147 19.7749 22.3305 19.4914 22.2271 19.2448C21.9975 18.6977 21.5678 18.3934 21.1092 18.2733V18.1405C21.1092 17.8734 20.8925 17.6567 20.6254 17.6567C20.3582 17.6567 20.1416 17.8734 20.1416 18.1405V18.2779C19.4307 18.4717 18.9806 19.0442 19.0138 19.725C19.0341 20.1432 19.2608 20.8766 20.5507 21.0883C21.3512 21.2197 21.3838 21.4879 21.3975 21.6021C21.4125 21.7244 21.3753 21.7864 21.3369 21.8308C21.2188 21.9671 20.949 22.0634 20.6652 22.0702C20.3425 22.0777 19.9318 21.9498 19.8356 21.5639C19.771 21.3046 19.5084 21.1473 19.249 21.2116C18.9897 21.2762 18.8321 21.5388 18.8967 21.7981C19.0455 22.3954 19.5195 22.8303 20.1416 22.981V23.1095C20.1416 23.3767 20.3582 23.5933 20.6254 23.5933C20.8922 23.593 21.1088 23.3764 21.1088 23.1092ZM20.625 25.0346C18.1937 25.0346 16.2155 23.0564 16.2155 20.625C16.2155 18.1937 18.1937 16.2155 20.625 16.2155C23.0564 16.2155 25.0346 18.1937 25.0346 20.625C25.0346 23.0564 23.0564 25.0346 20.625 25.0346ZM20.625 24.067C22.523 24.067 24.067 22.523 24.067 20.625C24.067 18.7271 22.523 17.1831 20.625 17.1831C18.7271 17.1831 17.1831 18.7271 17.1831 20.625C17.1831 22.523 18.7271 24.067 20.625 24.067ZM20.625 26.2501C17.5233 26.2501 15 23.7268 15 20.625C15 17.5233 17.5233 15 20.625 15C23.7268 15 26.2501 17.5233 26.2501 20.625C26.2501 23.7268 23.7268 26.2501 20.625 26.2501ZM20.625 25.2822C23.1931 25.2822 25.2822 23.1931 25.2822 20.625C25.2822 18.057 23.1931 15.9679 20.625 15.9679C18.057 15.9679 15.9679 18.057 15.9679 20.625C15.9679 23.1931 18.057 25.2822 20.625 25.2822ZM35.383 26.6128C35.5327 26.6993 35.625 26.8588 35.625 27.0317V32.9683C35.625 33.1412 35.5327 33.301 35.383 33.3872L30.2417 36.3555C30.167 36.3988 30.0832 36.4204 29.9997 36.4204C29.9162 36.4204 29.8326 36.3988 29.7576 36.3555L24.6164 33.3872C24.4666 33.3007 24.3743 33.1412 24.3743 32.9683V27.0317C24.3743 26.8588 24.4666 26.699 24.6164 26.6128L29.7576 23.6445C29.9074 23.5581 30.0917 23.5581 30.2414 23.6445L35.383 26.6128ZM34.1734 27.0317L33.316 26.5365L29.1427 28.9463L30 29.4412L34.1734 27.0317ZM28.1748 28.3875L32.3481 25.978L31.8249 25.6759L27.6515 28.0854L28.1748 28.3875ZM27.1677 30.1439L27.691 30.4459V29.2259L27.1677 28.9235V30.1439ZM25.8266 27.0317L26.684 27.5266L30.8573 25.1171L30 24.6222L25.8266 27.0317ZM25.3429 32.6887L29.5162 35.0982V30.2792L28.6589 29.7844V31.284C28.6589 31.4569 28.5666 31.6168 28.4168 31.7029C28.3421 31.7463 28.2583 31.7678 28.1748 31.7678C28.0913 31.7678 28.0078 31.7463 27.9327 31.7029L26.4419 30.842C26.2922 30.7555 26.1998 30.596 26.1998 30.4231V28.3646L25.3425 27.8698L25.3429 32.6887ZM34.6571 32.6887V27.8698L30.4838 30.2792V35.0982L34.6571 32.6887ZM31.8144 38.8912H21.1088V29.5912L21.3939 29.9566C21.4895 30.0789 21.6318 30.1426 21.7756 30.1426C21.8797 30.1426 21.9847 30.1093 22.0731 30.0401C22.2839 29.8757 22.3211 29.5717 22.1567 29.3609L21.0061 27.8877C20.9144 27.7703 20.7738 27.7018 20.6247 27.7018C20.4756 27.7018 20.335 27.7703 20.2434 27.8877L19.0928 29.3609C18.9284 29.5717 18.9656 29.8757 19.1763 30.0401C19.387 30.2045 19.6911 30.167 19.8555 29.9566L20.1406 29.5912V39.375C20.1406 39.6421 20.3572 39.8587 20.6244 39.8587H31.8138C32.081 39.8587 32.2976 39.6421 32.2976 39.375C32.2982 39.1078 32.0816 38.8912 31.8144 38.8912Z" fill="white"/>
<defs>
<linearGradient id="paint0_linear_111_188" x1="23.3108" y1="85.7264" x2="86.1141" y2="28.8202" gradientUnits="userSpaceOnUse">
<stop stop-color="#FF1717"/>
<stop offset="1" stop-color="#FF6461"/>
</linearGradient>
</defs>
</svg>
