<svg width="60" height="60" viewBox="0 0 60 60" fill="none" xmlns="http://www.w3.org/2000/svg">
<rect width="60" height="60" rx="8" fill="url(#paint0_linear_111_189)"/>
<path d="M30 15C27.0333 15 24.1332 15.8797 21.6665 17.528C19.1997 19.1762 17.2771 21.5189 16.1418 24.2597C15.0065 27.0006 14.7094 30.0166 15.2882 32.9264C15.867 35.8361 17.2956 38.5088 19.3934 40.6066C21.4912 42.7044 24.1639 44.133 27.0737 44.7118C29.9834 45.2906 32.9994 44.9935 35.7403 43.8582C38.4811 42.7229 40.8238 40.8003 42.472 38.3335C44.1203 35.8668 45 32.9667 45 30C44.9957 26.0231 43.414 22.2103 40.6019 19.3981C37.7897 16.586 33.9769 15.0043 30 15ZM31.25 42.4362V40C31.25 39.6685 31.1183 39.3505 30.8839 39.1161C30.6495 38.8817 30.3315 38.75 30 38.75C29.6685 38.75 29.3505 38.8817 29.1161 39.1161C28.8817 39.3505 28.75 39.6685 28.75 40V42.4362C25.8827 42.1443 23.204 40.8719 21.166 38.834C19.1281 36.796 17.8557 34.1173 17.5638 31.25H20C20.3315 31.25 20.6495 31.1183 20.8839 30.8839C21.1183 30.6495 21.25 30.3315 21.25 30C21.25 29.6685 21.1183 29.3505 20.8839 29.1161C20.6495 28.8817 20.3315 28.75 20 28.75H17.5638C17.8557 25.8827 19.1281 23.204 21.166 21.166C23.204 19.1281 25.8827 17.8557 28.75 17.5637V20C28.75 20.3315 28.8817 20.6495 29.1161 20.8839C29.3505 21.1183 29.6685 21.25 30 21.25C30.3315 21.25 30.6495 21.1183 30.8839 20.8839C31.1183 20.6495 31.25 20.3315 31.25 20V17.5637C34.1173 17.8557 36.796 19.1281 38.834 21.166C40.872 23.204 42.1443 25.8827 42.4363 28.75H40C39.6685 28.75 39.3505 28.8817 39.1161 29.1161C38.8817 29.3505 38.75 29.6685 38.75 30C38.75 30.3315 38.8817 30.6495 39.1161 30.8839C39.3505 31.1183 39.6685 31.25 40 31.25H42.4363C42.1443 34.1173 40.872 36.796 38.834 38.834C36.796 40.8719 34.1173 42.1443 31.25 42.4362ZM35 30C35 30.3315 34.8683 30.6495 34.6339 30.8839C34.3995 31.1183 34.0815 31.25 33.75 31.25H31.25V33.75C31.25 34.0815 31.1183 34.3995 30.8839 34.6339C30.6495 34.8683 30.3315 35 30 35C29.6685 35 29.3505 34.8683 29.1161 34.6339C28.8817 34.3995 28.75 34.0815 28.75 33.75V31.25H26.25C25.9185 31.25 25.6005 31.1183 25.3661 30.8839C25.1317 30.6495 25 30.3315 25 30C25 29.6685 25.1317 29.3505 25.3661 29.1161C25.6005 28.8817 25.9185 28.75 26.25 28.75H28.75V26.25C28.75 25.9185 28.8817 25.6005 29.1161 25.3661C29.3505 25.1317 29.6685 25 30 25C30.3315 25 30.6495 25.1317 30.8839 25.3661C31.1183 25.6005 31.25 25.9185 31.25 26.25V28.75H33.75C34.0815 28.75 34.3995 28.8817 34.6339 29.1161C34.8683 29.3505 35 29.6685 35 30Z" fill="white"/>
<path d="M30 15C27.0333 15 24.1332 15.8797 21.6665 17.528C19.1997 19.1762 17.2771 21.5189 16.1418 24.2597C15.0065 27.0006 14.7094 30.0166 15.2882 32.9264C15.867 35.8361 17.2956 38.5088 19.3934 40.6066C21.4912 42.7044 24.1639 44.133 27.0737 44.7118C29.9834 45.2906 32.9994 44.9935 35.7403 43.8582C38.4811 42.7229 40.8238 40.8003 42.472 38.3335C44.1203 35.8668 45 32.9667 45 30C44.9957 26.0231 43.414 22.2103 40.6019 19.3981C37.7897 16.586 33.9769 15.0043 30 15ZM31.25 42.4362V40C31.25 39.6685 31.1183 39.3505 30.8839 39.1161C30.6495 38.8817 30.3315 38.75 30 38.75C29.6685 38.75 29.3505 38.8817 29.1161 39.1161C28.8817 39.3505 28.75 39.6685 28.75 40V42.4362C25.8827 42.1443 23.204 40.8719 21.166 38.834C19.1281 36.796 17.8557 34.1173 17.5638 31.25H20C20.3315 31.25 20.6495 31.1183 20.8839 30.8839C21.1183 30.6495 21.25 30.3315 21.25 30C21.25 29.6685 21.1183 29.3505 20.8839 29.1161C20.6495 28.8817 20.3315 28.75 20 28.75H17.5638C17.8557 25.8827 19.1281 23.204 21.166 21.166C23.204 19.1281 25.8827 17.8557 28.75 17.5637V20C28.75 20.3315 28.8817 20.6495 29.1161 20.8839C29.3505 21.1183 29.6685 21.25 30 21.25C30.3315 21.25 30.6495 21.1183 30.8839 20.8839C31.1183 20.6495 31.25 20.3315 31.25 20V17.5637C34.1173 17.8557 36.796 19.1281 38.834 21.166C40.872 23.204 42.1443 25.8827 42.4363 28.75H40C39.6685 28.75 39.3505 28.8817 39.1161 29.1161C38.8817 29.3505 38.75 29.6685 38.75 30C38.75 30.3315 38.8817 30.6495 39.1161 30.8839C39.3505 31.1183 39.6685 31.25 40 31.25H42.4363C42.1443 34.1173 40.872 36.796 38.834 38.834C36.796 40.8719 34.1173 42.1443 31.25 42.4362ZM35 30C35 30.3315 34.8683 30.6495 34.6339 30.8839C34.3995 31.1183 34.0815 31.25 33.75 31.25H31.25V33.75C31.25 34.0815 31.1183 34.3995 30.8839 34.6339C30.6495 34.8683 30.3315 35 30 35C29.6685 35 29.3505 34.8683 29.1161 34.6339C28.8817 34.3995 28.75 34.0815 28.75 33.75V31.25H26.25C25.9185 31.25 25.6005 31.1183 25.3661 30.8839C25.1317 30.6495 25 30.3315 25 30C25 29.6685 25.1317 29.3505 25.3661 29.1161C25.6005 28.8817 25.9185 28.75 26.25 28.75H28.75V26.25C28.75 25.9185 28.8817 25.6005 29.1161 25.3661C29.3505 25.1317 29.6685 25 30 25C30.3315 25 30.6495 25.1317 30.8839 25.3661C31.1183 25.6005 31.25 25.9185 31.25 26.25V28.75H33.75C34.0815 28.75 34.3995 28.8817 34.6339 29.1161C34.8683 29.3505 35 29.6685 35 30Z" stroke="white"/>
<defs>
<linearGradient id="paint0_linear_111_189" x1="23.3108" y1="85.7264" x2="86.1141" y2="28.8202" gradientUnits="userSpaceOnUse">
<stop stop-color="#FF1717"/>
<stop offset="1" stop-color="#FF6461"/>
</linearGradient>
</defs>
</svg>
