<svg width="60" height="60" viewBox="0 0 60 60" fill="none" xmlns="http://www.w3.org/2000/svg">
<rect width="60" height="60" rx="8" fill="url(#paint0_linear_112_193)"/>
<path d="M39.6575 28.75H40.1262C41.16 28.75 42.0012 27.9088 42.0012 26.875V24.375C42.0012 23.3412 41.16 22.5 40.1262 22.5H39.6575C38.3187 18.1625 34.2725 15 29.5013 15C24.73 15 20.6838 18.1625 19.345 22.5H18.8763C17.8425 22.5 17.0013 23.3412 17.0013 24.375V26.875C17.0013 27.9088 17.8425 28.75 18.8763 28.75H19.345C20.0163 30.9275 21.3712 32.8088 23.1562 34.1425C19.5938 35.2513 17 38.5788 17 42.5V43.75C17 44.4413 17.5588 45 18.25 45C18.9413 45 19.5 44.4413 19.5 43.75V42.5C19.5 39.0538 22.3037 36.25 25.75 36.25H33.25C36.6963 36.25 39.5 39.0538 39.5 42.5V43.75C39.5 44.4413 40.0588 45 40.75 45C41.4412 45 42 44.4413 42 43.75V42.5C42 38.5788 39.4062 35.2513 35.8438 34.1425C37.63 32.8088 38.9837 30.9275 39.655 28.75H39.6575ZM21.3763 25.625C21.3763 21.145 25.0212 17.5 29.5013 17.5C33.9813 17.5 37.6262 21.145 37.6262 25.625C37.6262 30.105 33.9813 33.75 29.5013 33.75C25.0212 33.75 21.3763 30.105 21.3763 25.625ZM37.0013 43.75C37.0013 44.4413 36.4425 45 35.7513 45C35.06 45 34.5013 44.4413 34.5013 43.75C34.5013 43.0588 33.9412 42.5 33.2513 42.5H25.7513C25.0613 42.5 24.5012 43.06 24.5012 43.75C24.5012 44.44 23.9425 45 23.2513 45C22.56 45 22.0013 44.4413 22.0013 43.75C22.0013 41.6825 23.6838 40 25.7513 40H33.2513C35.3188 40 37.0013 41.6825 37.0013 43.75ZM23.2513 25C23.2513 24.5712 23.6975 23.75 24.6275 23.75H34.5013C35.3963 23.75 35.7513 24.5712 35.7513 25C35.7513 28.4513 32.9525 31.25 29.5013 31.25C26.05 31.25 23.2513 28.4513 23.2513 25Z" fill="white"/>
<path d="M39.6575 28.75H40.1262C41.16 28.75 42.0012 27.9088 42.0012 26.875V24.375C42.0012 23.3412 41.16 22.5 40.1262 22.5H39.6575C38.3187 18.1625 34.2725 15 29.5013 15C24.73 15 20.6838 18.1625 19.345 22.5H18.8763C17.8425 22.5 17.0013 23.3412 17.0013 24.375V26.875C17.0013 27.9088 17.8425 28.75 18.8763 28.75H19.345C20.0163 30.9275 21.3712 32.8088 23.1562 34.1425C19.5938 35.2513 17 38.5788 17 42.5V43.75C17 44.4413 17.5588 45 18.25 45C18.9413 45 19.5 44.4413 19.5 43.75V42.5C19.5 39.0538 22.3037 36.25 25.75 36.25H33.25C36.6963 36.25 39.5 39.0538 39.5 42.5V43.75C39.5 44.4413 40.0588 45 40.75 45C41.4412 45 42 44.4413 42 43.75V42.5C42 38.5788 39.4062 35.2513 35.8438 34.1425C37.63 32.8088 38.9837 30.9275 39.655 28.75H39.6575ZM21.3763 25.625C21.3763 21.145 25.0212 17.5 29.5013 17.5C33.9813 17.5 37.6262 21.145 37.6262 25.625C37.6262 30.105 33.9813 33.75 29.5013 33.75C25.0212 33.75 21.3763 30.105 21.3763 25.625ZM37.0013 43.75C37.0013 44.4413 36.4425 45 35.7513 45C35.06 45 34.5013 44.4413 34.5013 43.75C34.5013 43.0588 33.9412 42.5 33.2513 42.5H25.7513C25.0613 42.5 24.5012 43.06 24.5012 43.75C24.5012 44.44 23.9425 45 23.2513 45C22.56 45 22.0013 44.4413 22.0013 43.75C22.0013 41.6825 23.6838 40 25.7513 40H33.2513C35.3188 40 37.0013 41.6825 37.0013 43.75ZM23.2513 25C23.2513 24.5712 23.6975 23.75 24.6275 23.75H34.5013C35.3963 23.75 35.7513 24.5712 35.7513 25C35.7513 28.4513 32.9525 31.25 29.5013 31.25C26.05 31.25 23.2513 28.4513 23.2513 25Z" stroke="white"/>
<defs>
<linearGradient id="paint0_linear_112_193" x1="23.3108" y1="85.7264" x2="86.1141" y2="28.8202" gradientUnits="userSpaceOnUse">
<stop stop-color="#FF1717"/>
<stop offset="1" stop-color="#FF6461"/>
</linearGradient>
</defs>
</svg>
