<svg width="50" height="50" viewBox="0 0 50 50" fill="none" xmlns="http://www.w3.org/2000/svg">
<rect width="50" height="50" rx="8" fill="url(#paint0_linear_113_199)"/>
<path d="M38 22.7144C37.9991 17.3581 33.6404 13.0003 28.2838 13C24.2552 13.0003 20.6645 15.4869 19.2255 19.2197C15.5884 20.6248 13.0003 24.1564 13 28.2835C13 33.641 17.3581 37.9994 22.715 37.9994C26.7445 37.9994 30.3358 35.5122 31.7751 31.7788C35.4119 30.3728 37.9997 26.8412 38 22.7144ZM28.2838 30.9246C25.7554 30.9243 23.4212 29.7539 21.8906 27.8562L24.4148 26.505L19.1646 24.4645L17.9505 29.9647L20.5395 28.579C22.3448 30.9565 25.1934 32.4302 28.2835 32.4305C28.8254 32.4305 29.356 32.3838 29.8738 32.298C28.4408 34.8538 25.722 36.4935 22.7147 36.4935C18.1882 36.4935 14.5056 32.8103 14.5056 28.2835C14.5062 23.7571 18.1885 20.0748 22.7144 20.0748C25.2503 20.0748 27.5658 21.2298 29.0913 23.1128L26.5273 24.485L31.7776 26.5255L32.9916 21.0253L30.4403 22.3909C28.6404 20.0278 25.8156 18.5689 22.7144 18.5689C22.1734 18.5689 21.6431 18.6156 21.1259 18.7008C22.5583 16.1456 25.2765 14.5059 28.2835 14.5059C32.8103 14.5062 36.4932 18.1885 36.4941 22.7144C36.4935 27.2411 32.8103 30.924 28.2838 30.9246Z" fill="white"/>
<defs>
<linearGradient id="paint0_linear_113_199" x1="19.4257" y1="71.4387" x2="71.7617" y2="24.0168" gradientUnits="userSpaceOnUse">
<stop stop-color="#FF1717"/>
<stop offset="1" stop-color="#FF6461"/>
</linearGradient>
</defs>
</svg>
