<svg width="50" height="50" viewBox="0 0 50 50" fill="none" xmlns="http://www.w3.org/2000/svg">
<rect width="50" height="50" rx="8" fill="url(#paint0_linear_113_198)"/>
<path d="M17.2656 13H26.0816C26.5695 13 27.0136 13.1999 27.3353 13.5215L27.3376 13.5238C27.6592 13.8455 27.8591 14.2896 27.8591 14.7775V19.8609C27.8591 20.3488 27.6592 20.7922 27.3376 21.1146L27.3353 21.1169C27.0136 21.4385 26.5695 21.6384 26.0816 21.6384H25.8818L26.1797 23.1355C26.2425 23.4526 26.0365 23.7612 25.7194 23.8248C25.6459 23.8393 25.5716 23.8393 25.5019 23.8271C24.478 23.7038 23.7191 23.2964 23.1631 22.807C22.7404 22.4356 22.4371 22.0159 22.2242 21.6391H17.2656C16.7762 21.6391 16.3321 21.4393 16.0104 21.1176C15.9974 21.1046 15.9859 21.0924 15.9744 21.0786C15.6735 20.76 15.4881 20.3311 15.4881 19.8617V14.7782C15.4881 14.2904 15.688 13.8462 16.0096 13.5246L16.0104 13.5231L16.0096 13.5215C16.3313 13.1999 16.7755 13 17.2648 13H17.2656ZM21.1483 36.8283C21.0303 36.2478 20.7416 35.7278 20.3365 35.3227C19.7997 34.7859 19.0591 34.452 18.2451 34.452H17.1331C16.319 34.452 15.5785 34.7851 15.0417 35.3227C14.6365 35.7278 14.3478 36.2478 14.2299 36.8283H21.1475H21.1483ZM21.1651 34.4941C21.9141 35.2431 22.3789 36.2769 22.3789 37.4142C22.3789 37.7381 22.1163 38 21.7931 38H13.5858C13.2619 38 13 37.7373 13 37.4142C13 36.2769 13.4648 35.2431 14.2138 34.4941C14.9628 33.7451 15.9966 33.2803 17.1339 33.2803H18.2458C19.3831 33.2803 20.4169 33.7451 21.1659 34.4941H21.1651ZM17.6891 27.8331C17.1201 27.8331 16.6039 28.0643 16.231 28.4373C15.858 28.8102 15.6267 29.3256 15.6267 29.8954C15.6267 30.4652 15.858 30.9805 16.231 31.3535C16.6039 31.7264 17.1193 31.9577 17.6891 31.9577C18.2581 31.9577 18.7742 31.7264 19.1472 31.3535C19.5201 30.9805 19.7514 30.4652 19.7514 29.8954C19.7514 29.3264 19.5201 28.8102 19.1472 28.4373C18.7742 28.0643 18.2588 27.8331 17.6891 27.8331ZM15.4031 27.6087C15.9882 27.0236 16.7969 26.6614 17.6891 26.6614C18.582 26.6614 19.39 27.0228 19.975 27.6087C20.5601 28.1938 20.9223 29.0025 20.9223 29.8946C20.9223 30.7876 20.5601 31.5963 19.975 32.1806C19.39 32.7657 18.5813 33.1279 17.6891 33.1279C16.7961 33.1279 15.9882 32.7657 15.4031 32.1806C14.818 31.5955 14.4558 30.7868 14.4558 29.8946C14.4558 29.0017 14.8173 28.1938 15.4031 27.6087ZM24.9306 31.5932C24.6074 31.5932 24.3448 31.3305 24.3448 31.0074C24.3448 30.6842 24.6074 30.4215 24.9306 30.4215H28.5445C28.8684 30.4215 29.1303 30.6842 29.1303 31.0074C29.1303 31.3313 28.8677 31.5932 28.5445 31.5932H24.9306ZM31.3244 28.3033C31.6476 28.3033 31.9102 28.5659 31.9102 28.8891C31.9102 29.2123 31.6476 29.475 31.3244 29.475H24.9306C24.6074 29.475 24.3448 29.2123 24.3448 28.8891C24.3448 28.5659 24.6074 28.3033 24.9306 28.3033H31.3244ZM32.7412 27.1055H23.9251C23.7574 27.1055 23.6065 27.1729 23.4978 27.2817L23.4955 27.284C23.3867 27.3927 23.3193 27.5436 23.3193 27.7113V32.794C23.3193 32.9602 23.3875 33.111 23.4978 33.2213L23.5185 33.2435C23.6264 33.3408 23.7689 33.3998 23.9251 33.3998H24.8395C25.1627 33.3998 25.4253 33.6624 25.4253 33.9856C25.4253 34.0316 25.42 34.076 25.41 34.1189L25.1527 35.41C25.4207 35.3097 25.6528 35.1803 25.8534 35.034C26.3949 34.6411 26.718 34.1265 26.9003 33.7382C26.9998 33.5261 27.2097 33.4021 27.4295 33.4021V33.3998H32.7419C32.9089 33.3998 33.0605 33.3316 33.17 33.2229L33.1685 33.2213C33.2788 33.111 33.3469 32.9602 33.3469 32.794V27.7113C33.3469 27.5436 33.2795 27.3927 33.1708 27.284L33.1685 27.2817C33.0597 27.1729 32.9089 27.1055 32.7419 27.1055H32.7412ZM23.9251 25.9338H32.7412C33.2267 25.9338 33.6701 26.1329 33.9933 26.4546L33.9971 26.4584C34.3187 26.7816 34.5186 27.225 34.5186 27.7121V32.7948C34.5186 33.2841 34.3187 33.7291 33.9971 34.0507L33.9956 34.0492L33.9948 34.0507C33.6731 34.3723 33.229 34.5722 32.7412 34.5722H27.7825C27.5221 35.0317 27.1262 35.5571 26.5404 35.9821C26.0196 36.3604 25.3526 36.6583 24.5041 36.7609C24.4344 36.7732 24.3609 36.7732 24.2873 36.7586C23.9695 36.6951 23.7643 36.3872 23.8271 36.0694L24.125 34.5722H23.9251C23.4557 34.5722 23.0268 34.3869 22.7082 34.0859C22.6952 34.0744 22.6814 34.063 22.6692 34.0507C22.3475 33.7291 22.1476 33.2841 22.1476 32.7948V27.7121C22.1476 27.2258 22.3468 26.7831 22.6676 26.4599L22.6715 26.4561C22.9946 26.1345 23.438 25.9346 23.9251 25.9346V25.9338ZM27.6278 24.4811C27.6278 22.2074 29.488 20.3472 31.7617 20.3472H32.8736C34.0109 20.3472 35.0447 20.8121 35.7937 21.561C36.5427 22.31 37.0075 23.3439 37.0075 24.4811C37.0075 24.8043 36.7448 25.0669 36.4217 25.0669H28.2144C27.8913 25.0669 27.6286 24.8043 27.6286 24.4811H27.6278ZM31.7617 21.5197C30.3334 21.5197 29.1326 22.5443 28.8585 23.8952H35.7761C35.6581 23.3155 35.3694 22.7948 34.9643 22.3896C34.4275 21.8528 33.6869 21.5197 32.8729 21.5197H31.7609H31.7617ZM32.3177 13.7291C33.2106 13.7291 34.0185 14.0905 34.6036 14.6764C35.1887 15.2614 35.5509 16.0701 35.5509 16.9631C35.5509 17.856 35.1887 18.664 34.6036 19.249C34.0185 19.8341 33.2098 20.1964 32.3177 20.1964C31.4247 20.1964 30.616 19.8341 30.0317 19.249C29.4466 18.664 29.0844 17.8553 29.0844 16.9631C29.0844 16.0701 29.4466 15.2614 30.0317 14.6764C30.6168 14.0913 31.4255 13.7291 32.3177 13.7291ZM33.7758 15.505C33.4028 15.132 32.8874 14.9015 32.3177 14.9015C31.7479 14.9015 31.2325 15.132 30.8595 15.505C30.4866 15.8779 30.2553 16.3933 30.2553 16.9631C30.2553 17.5321 30.4858 18.0482 30.8595 18.4212C31.2325 18.7941 31.7479 19.0247 32.3177 19.0247C32.8867 19.0247 33.4028 18.7941 33.7758 18.4212C34.1487 18.0482 34.3792 17.5329 34.3792 16.9631C34.3792 16.3933 34.1487 15.8779 33.7758 15.505ZM25.0769 17.4892C25.4008 17.4892 25.6627 17.7519 25.6627 18.075C25.6627 18.3982 25.4001 18.6609 25.0769 18.6609H21.463C21.1398 18.6609 20.8772 18.3982 20.8772 18.075C20.8772 17.7511 21.1398 17.4892 21.463 17.4892H25.0769ZM18.6831 16.5434C18.3599 16.5434 18.0973 16.2807 18.0973 15.9576C18.0973 15.6336 18.3599 15.3717 18.6831 15.3717H25.0769C25.4008 15.3717 25.6627 15.6344 25.6627 15.9576C25.6627 16.2807 25.4001 16.5434 25.0769 16.5434H18.6831ZM26.0832 14.174H17.2671C17.1009 14.174 16.9501 14.2422 16.8398 14.3524L16.839 14.3509C16.7295 14.4612 16.6621 14.6128 16.6621 14.779V19.8625C16.6621 20.0187 16.7219 20.1611 16.8183 20.2683L16.8398 20.2898C16.9501 20.3993 17.1009 20.4682 17.2671 20.4682H22.5796V20.4705C22.7994 20.4705 23.0092 20.5953 23.108 20.8075C23.2642 21.1398 23.5238 21.5649 23.9389 21.9294C24.1847 22.1454 24.4864 22.3391 24.8563 22.4785L24.599 21.1881C24.5891 21.1452 24.5837 21.1008 24.5837 21.0548C24.5837 20.7317 24.8464 20.469 25.1696 20.469H26.0839C26.2509 20.469 26.4025 20.4008 26.512 20.2921C26.6215 20.1818 26.6889 20.0302 26.6889 19.864V14.7805C26.6889 14.6136 26.6208 14.4619 26.512 14.3524C26.4017 14.2429 26.2509 14.1755 26.0839 14.1755L26.0832 14.174Z" fill="white"/>
<defs>
<linearGradient id="paint0_linear_113_198" x1="19.4257" y1="71.4387" x2="71.7617" y2="24.0168" gradientUnits="userSpaceOnUse">
<stop stop-color="#FF1717"/>
<stop offset="1" stop-color="#FF6461"/>
</linearGradient>
</defs>
</svg>
