<svg width="60" height="60" viewBox="0 0 60 60" fill="none" xmlns="http://www.w3.org/2000/svg">
<path d="M30.5491 27.5566C28.8877 27.5566 27.5586 28.8858 27.5586 30.5471C27.5586 32.2085 28.8877 33.5377 30.5491 33.5377C32.2105 33.5377 33.5396 32.2085 33.5396 30.5471C33.5396 28.8858 32.2105 27.5566 30.5491 27.5566Z" fill="#FD1716"/>
<path d="M51.8608 29.3133H48.3006C47.6835 20.4842 40.6108 13.4589 31.8291 12.8418V9.23418C31.8291 8.52215 31.2595 8 30.5949 8C29.9304 8 29.3608 8.56962 29.3608 9.23418V12.7943C20.5316 13.4114 13.5063 20.4842 12.8892 29.2658H9.23418C8.52215 29.2658 8 29.8354 8 30.5C8 31.1646 8.56962 31.7342 9.23418 31.7342H12.7943C13.4114 40.5633 20.4842 47.5886 29.2658 48.2057V51.7658C29.2658 52.4778 29.8354 53 30.5 53C31.1646 53 31.7342 52.4304 31.7342 51.7658V48.2057C40.5633 47.5886 47.5886 40.5158 48.2057 31.7342H51.7658C52.4778 31.7342 53 31.1646 53 30.5C53 29.8354 52.5253 29.3133 51.8608 29.3133ZM31.7816 45.7848V42.3671C31.7816 41.6551 31.212 41.1329 30.5475 41.1329C29.8829 41.1329 29.3133 41.7025 29.3133 42.3671V45.7848C21.8608 45.1677 15.9272 39.2342 15.3101 31.7816H18.7278C19.4399 31.7816 19.962 31.212 19.962 30.5475C19.962 29.8829 19.3924 29.3133 18.7278 29.3133H15.3101C15.9272 21.8608 21.8608 15.9272 29.3133 15.3101V18.7278C29.3133 19.4399 29.8829 19.962 30.5475 19.962C31.212 19.962 31.7816 19.3924 31.7816 18.7278V15.3101C39.2342 15.9272 45.1677 21.8608 45.7848 29.3133H42.3671C41.6551 29.3133 41.1329 29.8829 41.1329 30.5475C41.1329 31.212 41.7025 31.7816 42.3671 31.7816H45.7848C45.1677 39.2342 39.2342 45.1677 31.7816 45.7848Z" fill="#FD1716"/>
</svg>
