<svg width="60" height="60" viewBox="0 0 60 60" fill="none" xmlns="http://www.w3.org/2000/svg">
<g clip-path="url(#clip0_4649_3539)">
<path d="M44.6498 10.6035C44.6498 10.2702 44.92 10 45.2533 10H49.3965C49.5565 10 49.7098 10.0635 49.823 10.177C49.9365 10.2902 50 10.4435 50 10.6035V14.7467C50 15.08 49.7298 15.3502 49.3965 15.3502C49.063 15.3502 48.793 15.08 48.793 14.7467V11.207H45.2533C44.92 11.207 44.6498 10.937 44.6498 10.6035ZM14.7467 10H10.6035C10.4435 10 10.2902 10.0635 10.177 10.177C10.0635 10.2902 10 10.4435 10 10.6035V14.7467C10 15.08 10.2702 15.3502 10.6035 15.3502C10.937 15.3502 11.207 15.08 11.207 14.7467V11.207H14.7467C15.08 11.207 15.3502 10.937 15.3502 10.6035C15.3502 10.2702 15.08 10 14.7467 10ZM14.7467 48.793H11.207V45.2533C11.207 44.92 10.937 44.6498 10.6035 44.6498C10.2702 44.6498 10 44.92 10 45.2533V49.3965C10 49.7298 10.2702 50 10.6035 50H14.7467C15.08 50 15.3502 49.7298 15.3502 49.3965C15.3502 49.063 15.08 48.793 14.7467 48.793ZM49.3965 44.6498C49.063 44.6498 48.793 44.92 48.793 45.2533V48.793H45.2533C44.92 48.793 44.6498 49.063 44.6498 49.3965C44.6498 49.7298 44.92 50 45.2533 50H49.3965C49.5565 50 49.7098 49.9365 49.823 49.823C49.9365 49.7098 50 49.5565 50 49.3965V45.2533C50 44.92 49.7298 44.6498 49.3965 44.6498ZM24.412 43.1093V47.661C24.412 47.9942 24.1418 48.2645 23.8085 48.2645H19.8427C19.5093 48.2645 19.239 47.9942 19.239 47.661V43.1093C19.239 42.776 19.5093 42.5058 19.8427 42.5058H23.8085C24.1418 42.5062 24.412 42.7765 24.412 43.1093ZM23.2053 43.713H20.4462V47.0573H23.2053V43.713ZM32.5862 40.24V47.661C32.5862 47.9942 32.316 48.2645 31.9827 48.2645H28.017C27.6835 48.2645 27.4133 47.9942 27.4133 47.661V40.24C27.4133 39.9067 27.6835 39.6365 28.017 39.6365H31.9827C32.316 39.6365 32.5862 39.9067 32.5862 40.24ZM31.3795 40.8435H28.6205V47.0578H31.3795V40.8435ZM40.761 37.1302V47.661C40.761 47.9942 40.4907 48.2645 40.1573 48.2645H36.191C35.8578 48.2645 35.5875 47.9942 35.5875 47.661V37.1302C35.5875 36.797 35.8578 36.5267 36.191 36.5267H40.157C40.4907 36.5267 40.761 36.797 40.761 37.1302ZM39.5538 37.7333H36.7947V47.0573H39.5538V37.7333ZM30.6102 19.167V12.381C30.6102 12.2053 30.6867 12.0387 30.8195 11.924C30.9525 11.8093 31.1285 11.7582 31.3022 11.784C32.433 11.951 33.5045 12.3347 34.4867 12.9245C35.8898 13.7667 37.024 14.9818 37.7658 16.4382C38.1885 17.2685 38.473 18.1565 38.611 19.0782C38.6373 19.252 38.5862 19.4285 38.4715 19.5613C38.357 19.6942 38.1898 19.771 38.0142 19.771H31.2142C30.88 19.7707 30.6102 19.5005 30.6102 19.167ZM31.817 18.5635H37.279C37.1435 18.0178 36.9462 17.4893 36.6898 16.9858C36.0507 15.7315 35.0738 14.685 33.865 13.959C33.2227 13.5738 32.5365 13.2907 31.817 13.1138V18.5635ZM21.3387 20.3738C21.3387 15.92 24.6742 12.208 29.097 11.739C29.267 11.7213 29.437 11.776 29.564 11.8907C29.691 12.0053 29.764 12.168 29.764 12.339V21.0742L33.5235 27.5858C33.611 27.7378 33.6285 27.92 33.5707 28.0858C33.513 28.2515 33.3862 28.3835 33.223 28.4485C32.204 28.853 31.127 29.0578 30.0222 29.0578C25.2347 29.0578 21.3387 25.1622 21.3387 20.3738ZM22.5458 20.3738C22.5458 24.497 25.9 27.851 30.023 27.851C30.7373 27.851 31.4373 27.752 32.113 27.5555L28.6387 21.5378C28.5858 21.4462 28.5578 21.3418 28.5578 21.236V13.04C25.0867 13.7245 22.5458 16.7667 22.5458 20.3738ZM38.5062 20.8325C38.6205 20.9595 38.6755 21.1293 38.6578 21.2995C38.4013 23.7182 37.1245 25.9342 35.1542 27.3795C35.0498 27.456 34.9245 27.4965 34.7973 27.4965C34.756 27.4965 34.7142 27.492 34.6733 27.4835C34.5053 27.4485 34.3605 27.343 34.2747 27.1947L31.0085 21.5378C30.901 21.351 30.901 21.121 31.0085 20.9342C31.1165 20.7475 31.3155 20.6325 31.531 20.6325H38.0578C38.229 20.6325 38.392 20.705 38.5062 20.8325ZM37.3555 21.839H32.576L34.9675 25.9813C36.195 24.8978 37.0365 23.4382 37.3555 21.839ZM36.7373 32.1067C36.6325 31.8862 36.405 31.7502 36.1605 31.763L33.4493 31.9067C33.1165 31.9245 32.861 32.2085 32.8787 32.5413C32.891 32.7787 33.039 32.9765 33.244 33.0645L23.553 37.568C23.2507 37.7085 23.1195 38.067 23.26 38.3693C23.3622 38.5893 23.58 38.7187 23.8075 38.7187C23.893 38.7187 23.979 38.7005 24.0613 38.6622L33.8222 34.1262C33.715 34.359 33.7653 34.6445 33.9658 34.8258C34.213 35.0493 34.5942 35.0307 34.8182 34.7835L36.64 32.771C36.804 32.5898 36.8422 32.3275 36.7373 32.1067Z" fill="#FD1716"/>
</g>
<rect x="0.5" y="0.5" width="59" height="59" rx="14.5" stroke="url(#paint0_linear_4649_3539)"/>
<defs>
<linearGradient id="paint0_linear_4649_3539" x1="23.3108" y1="85.7264" x2="86.1141" y2="28.8202" gradientUnits="userSpaceOnUse">
<stop stop-color="#FF1717"/>
<stop offset="1" stop-color="#FF6461"/>
</linearGradient>
<clipPath id="clip0_4649_3539">
<rect width="60" height="60" rx="15" fill="white"/>
</clipPath>
</defs>
</svg>
