<svg width="60" height="60" viewBox="0 0 60 60" fill="none" xmlns="http://www.w3.org/2000/svg">
<g clip-path="url(#clip0_4649_3545)">
<path d="M18.8299 22.1442C18.8316 22.8408 19.0536 23.5189 19.4641 24.0816C19.8746 24.6444 20.4526 25.0629 21.1153 25.2773C21.2567 25.3254 21.3766 25.422 21.4536 25.55C21.5306 25.678 21.5598 25.8291 21.5361 25.9766C21.5123 26.124 21.4372 26.2584 21.3239 26.3557C21.2106 26.4531 21.0665 26.5072 20.9171 26.5085C20.8497 26.5081 20.7828 26.4967 20.719 26.4748C19.9756 26.232 19.3069 25.8025 18.777 25.2274C18.247 24.6523 17.8735 23.9508 17.6921 23.1901C17.5107 22.4294 17.5275 21.6349 17.7409 20.8825C17.9543 20.1301 18.3571 19.4451 18.9109 18.8929C19.4647 18.3408 20.1509 17.9399 20.9039 17.7287C21.6569 17.5175 22.4515 17.503 23.2116 17.6867C23.9718 17.8703 24.6722 18.2459 25.2457 18.7775C25.8192 19.3092 26.2468 19.9791 26.4875 20.7232C26.5279 20.8793 26.5072 21.0451 26.4295 21.1864C26.3518 21.3278 26.223 21.4341 26.0695 21.4837C25.9159 21.5332 25.7493 21.5223 25.6036 21.453C25.4579 21.3838 25.3442 21.2615 25.2857 21.1111C25.0459 20.3585 24.5446 19.7166 23.8725 19.3017C23.2004 18.8867 22.402 18.7261 21.6217 18.8489C20.8414 18.9718 20.1309 19.3699 19.6188 19.9713C19.1067 20.5726 18.8268 21.3375 18.8299 22.1273V22.1442ZM19.8798 30.8433C19.9062 30.7644 19.9168 30.6811 19.911 30.5981C19.9052 30.5151 19.883 30.4341 19.8458 30.3596C19.8086 30.2852 19.757 30.2189 19.6941 30.1644C19.6312 30.1099 19.5582 30.0684 19.4792 30.0422C18.9509 29.8712 18.441 29.648 17.957 29.3759C17.8528 29.3157 17.7335 29.2865 17.6132 29.2918C17.493 29.297 17.3767 29.3364 17.2781 29.4054L15.8571 30.4217C15.7237 30.5162 15.5612 30.5605 15.3983 30.5466C15.2354 30.5327 15.0827 30.4615 14.9673 30.3458L13.9342 29.3211C13.8185 29.2057 13.7473 29.053 13.7334 28.8901C13.7195 28.7273 13.7638 28.5647 13.8583 28.4314L14.8661 26.9977C14.9351 26.8991 14.9746 26.7828 14.9798 26.6625C14.985 26.5423 14.9558 26.423 14.8956 26.3188C14.5287 25.6936 14.2452 25.023 14.0523 24.3243C14.0222 24.2076 13.9593 24.1019 13.8712 24.0198C13.783 23.9376 13.6732 23.8823 13.5547 23.8604L11.8301 23.5568C11.6692 23.529 11.5234 23.4451 11.4185 23.3201C11.3135 23.1951 11.2562 23.0369 11.2566 22.8737V21.4147C11.2545 21.2488 11.3121 21.0877 11.4189 20.9607C11.5258 20.8338 11.6747 20.7495 11.8385 20.7232L13.5547 20.428C13.6735 20.4072 13.7838 20.3529 13.8727 20.2714C13.9616 20.19 14.0254 20.0848 14.0565 19.9684C14.2494 19.2683 14.5329 18.5963 14.8999 17.9696C14.96 17.8654 14.9892 17.7462 14.984 17.6259C14.9788 17.5056 14.9393 17.3894 14.8703 17.2907L13.8625 15.8571C13.768 15.7237 13.7237 15.5612 13.7376 15.3983C13.7515 15.2354 13.8227 15.0827 13.9384 14.9673L14.9715 13.9342C15.087 13.8185 15.2396 13.7473 15.4025 13.7334C15.5654 13.7195 15.7279 13.7638 15.8613 13.8583L17.295 14.8661C17.3936 14.9351 17.5099 14.9746 17.6301 14.9798C17.7504 14.985 17.8696 14.9558 17.9739 14.8956C18.5991 14.5287 19.2696 14.2452 19.9684 14.0523C20.0843 14.0215 20.189 13.9583 20.2704 13.8702C20.3518 13.7821 20.4064 13.6727 20.428 13.5547L20.7232 11.8385C20.751 11.6777 20.8349 11.5319 20.9599 11.4269C21.0849 11.322 21.2431 11.2646 21.4063 11.265H22.8695C23.0327 11.2646 23.1908 11.322 23.3159 11.4269C23.4409 11.5319 23.5247 11.6777 23.5526 11.8385L23.8604 13.5547C23.8813 13.6735 23.9356 13.7838 24.017 13.8727C24.0984 13.9616 24.2036 14.0254 24.3201 14.0565C25.0188 14.2494 25.6894 14.533 26.3146 14.8999C26.4188 14.96 26.5381 14.9892 26.6583 14.984C26.7786 14.9788 26.8948 14.9393 26.9935 14.8703L28.4272 13.8625C28.5605 13.768 28.723 13.7237 28.8859 13.7376C29.0488 13.7515 29.2015 13.8227 29.3169 13.9384L30.35 14.9715C30.464 15.0872 30.5337 15.2393 30.5468 15.4013C30.5599 15.5632 30.5156 15.7245 30.4217 15.8571L29.4139 17.2907C29.3449 17.3894 29.3054 17.5056 29.3002 17.6259C29.295 17.7462 29.3242 17.8654 29.3844 17.9696C29.6566 18.4536 29.8798 18.9635 30.0506 19.4919C30.1065 19.6507 30.2232 19.7808 30.3751 19.8535C30.5269 19.9263 30.7014 19.9357 30.8602 19.8798C31.019 19.8239 31.1491 19.7072 31.2219 19.5554C31.2946 19.4035 31.3041 19.229 31.2482 19.0702C31.0916 18.5915 30.8999 18.125 30.6747 17.6745L31.4548 16.5613C31.7251 16.1824 31.8516 15.7195 31.8114 15.2558C31.7712 14.7921 31.567 14.3579 31.2355 14.0312L30.2151 13.0403C29.8883 12.7088 29.4541 12.5046 28.9904 12.4644C28.5267 12.4242 28.0639 12.5506 27.685 12.821L26.5718 13.6011C26.0744 13.3411 25.5551 13.1252 25.02 12.9559L24.7839 11.6192C24.7044 11.165 24.467 10.7535 24.1137 10.4573C23.7603 10.161 23.3137 9.99906 22.8526 10H21.4147C20.9536 9.99906 20.507 10.161 20.1537 10.4573C19.8003 10.7535 19.563 11.165 19.4835 11.6192L19.2473 12.9559C18.7122 13.1252 18.1929 13.3411 17.6956 13.6011L16.5866 12.821C16.2077 12.5506 15.7448 12.4242 15.2811 12.4644C14.8174 12.5046 14.3832 12.7088 14.0565 13.0403L13.0403 14.0734C12.7088 14.4001 12.5046 14.8343 12.4644 15.298C12.4242 15.7617 12.5506 16.2245 12.821 16.6034L13.6011 17.7166C13.3422 18.2072 13.1263 18.7194 12.9559 19.2473L11.6192 19.4835C11.165 19.563 10.7535 19.8003 10.4573 20.1537C10.161 20.507 9.99906 20.9536 10 21.4147V22.8779C9.99906 23.339 10.161 23.7857 10.4573 24.139C10.7535 24.4923 11.165 24.7297 11.6192 24.8092L12.9559 25.0453C13.1251 25.5805 13.341 26.0997 13.6011 26.5971L12.821 27.7061C12.5506 28.085 12.4242 28.5478 12.4644 29.0115C12.5046 29.4752 12.7088 29.9094 13.0403 30.2361L14.0734 31.265C14.4001 31.5965 14.8343 31.8007 15.298 31.8409C15.7617 31.8811 16.2245 31.7547 16.6034 31.4843L17.7166 30.7042C18.1606 30.9243 18.6201 31.1117 19.0913 31.265C19.2518 31.3136 19.425 31.2965 19.5728 31.2174C19.7207 31.1383 19.8311 31.0038 19.8798 30.8433ZM49.9874 33.7951V35.6504C49.9876 36.1951 49.7958 36.7225 49.4457 37.1398C49.0955 37.557 48.6094 37.8374 48.073 37.9317L46.2724 38.2479C46.0466 38.986 45.7501 39.7006 45.3869 40.3816L46.4453 41.9081C46.7543 42.3525 46.8977 42.8912 46.8507 43.4305C46.8038 43.9697 46.5693 44.4755 46.1881 44.8598L44.8767 46.1923C44.4923 46.5735 43.9866 46.808 43.4473 46.855C42.9081 46.902 42.3694 46.7585 41.9249 46.4495L40.4153 45.3995C39.7342 45.7626 39.0197 46.0591 38.2817 46.2851L37.9654 48.0856C37.8712 48.6221 37.5907 49.1082 37.1735 49.4583C36.7562 49.8085 36.2289 50.0003 35.6842 50H33.8288C33.2841 50.0003 32.7567 49.8085 32.3395 49.4583C31.9222 49.1082 31.6418 48.6221 31.5475 48.0856L31.2313 46.2851C30.4932 46.0594 29.7786 45.7629 29.0976 45.3995L27.6007 46.4453C27.1562 46.7543 26.6175 46.8977 26.0783 46.8507C25.539 46.8038 25.0333 46.5693 24.649 46.1881L23.3376 44.8724C22.9563 44.4881 22.7219 43.9824 22.6749 43.4431C22.6279 42.9039 22.7713 42.3652 23.0803 41.9207L24.0966 40.4111C23.7334 39.7301 23.4368 39.0155 23.2111 38.2775L21.4105 37.9612C20.874 37.8669 20.3879 37.5865 20.0378 37.1693C19.6876 36.752 19.4958 36.2247 19.4961 35.68V33.8246C19.495 33.2797 19.6865 32.7519 20.0368 32.3344C20.3871 31.917 20.8736 31.6368 21.4105 31.5433L23.2111 31.2271C23.4371 30.4904 23.7336 29.7773 24.0966 29.0976L23.0466 27.6007C22.7368 27.1565 22.5929 26.6177 22.6399 26.0782C22.6869 25.5387 22.9219 25.0328 23.3038 24.649L24.6152 23.3376C24.9995 22.9563 25.5053 22.7219 26.0445 22.6749C26.5838 22.6279 27.1225 22.7713 27.5669 23.0803L29.0976 24.0966C29.7786 23.7333 30.4932 23.4367 31.2313 23.2111L31.5475 21.4105C31.6418 20.874 31.9222 20.3879 32.3395 20.0378C32.7567 19.6876 33.2841 19.4958 33.8288 19.4961H35.6842C36.2289 19.4958 36.7562 19.6876 37.1735 20.0378C37.5907 20.3879 37.8712 20.874 37.9654 21.4105L38.2817 23.2111C39.0183 23.4371 39.7314 23.7337 40.4111 24.0966L41.9081 23.0466C42.3522 22.7368 42.8911 22.5929 43.4306 22.6399C43.9701 22.6869 44.4759 22.9219 44.8598 23.3038L46.1712 24.6152C46.5531 24.9991 46.7881 25.5049 46.8351 26.0444C46.8822 26.5839 46.7382 27.1228 46.4284 27.5669L45.3785 29.0639C45.7417 29.7449 46.0382 30.4595 46.264 31.1976L48.0645 31.5138C48.6103 31.6036 49.1057 31.8862 49.4609 32.3102C49.8161 32.7342 50.0073 33.2715 50 33.8246L49.9874 33.7951ZM48.7223 33.7951C48.7231 33.5475 48.6363 33.3076 48.4774 33.1178C48.3184 32.928 48.0975 32.8005 47.8537 32.7578L45.6652 32.374C45.5536 32.3531 45.4496 32.3025 45.3643 32.2276C45.279 32.1526 45.2154 32.0561 45.1803 31.9481C44.9385 31.0465 44.5798 30.1803 44.1134 29.3717C44.0532 29.2675 44.024 29.1482 44.0293 29.028C44.0345 28.9077 44.0739 28.7914 44.1429 28.6928L45.408 26.8712C45.5496 26.6689 45.6154 26.4231 45.5938 26.1771C45.5723 25.9311 45.4646 25.7006 45.2899 25.526L43.9785 24.2146C43.805 24.0442 43.5778 23.9392 43.3355 23.9177C43.0933 23.8961 42.851 23.9594 42.6502 24.0966L40.8286 25.3616C40.7283 25.4387 40.6071 25.4839 40.4809 25.4914C40.3546 25.4989 40.2289 25.4684 40.1202 25.4038C39.3116 24.9362 38.4455 24.5762 37.5437 24.3327C37.4273 24.3016 37.3221 24.2378 37.2407 24.1489C37.1593 24.06 37.105 23.9497 37.0841 23.8309L36.7004 21.6424C36.6577 21.3986 36.5301 21.1777 36.3403 21.0187C36.1505 20.8598 35.9106 20.773 35.6631 20.7738H33.8077C33.5602 20.773 33.3203 20.8598 33.1305 21.0187C32.9407 21.1777 32.8132 21.3986 32.7704 21.6424L32.3867 23.8309C32.3659 23.9497 32.3115 24.06 32.2301 24.1489C32.1487 24.2378 32.0435 24.3016 31.9271 24.3327C31.0255 24.5749 30.1594 24.9335 29.3506 25.3995C29.2482 25.4547 29.1325 25.4804 29.0163 25.4737C28.9002 25.467 28.7882 25.4282 28.6928 25.3616L26.8712 24.0966C26.6689 23.9549 26.4231 23.8891 26.1771 23.9107C25.9311 23.9323 25.7006 24.0399 25.526 24.2146L24.2146 25.526C24.0399 25.7006 23.9323 25.9311 23.9107 26.1771C23.8891 26.4231 23.9549 26.6689 24.0966 26.8712L25.3616 28.6928C25.4306 28.7914 25.47 28.9077 25.4753 29.028C25.4805 29.1482 25.4513 29.2675 25.3911 29.3717C24.925 30.1805 24.5663 31.0466 24.3243 31.9481C24.2931 32.0646 24.2294 32.1697 24.1404 32.2512C24.0515 32.3326 23.9412 32.3869 23.8225 32.4078L21.634 32.7915C21.3901 32.8342 21.1693 32.9618 21.0103 33.1516C20.8514 33.3414 20.7646 33.5812 20.7653 33.8288V35.6842C20.7646 35.9317 20.8514 36.1716 21.0103 36.3614C21.1693 36.5512 21.3901 36.6787 21.634 36.7215L23.8225 37.1052C23.9412 37.126 24.0515 37.1804 24.1404 37.2618C24.2294 37.3432 24.2931 37.4484 24.3243 37.5648C24.572 38.4597 24.9349 39.3187 25.4038 40.1202C25.4657 40.2275 25.4947 40.3507 25.4872 40.4744C25.4797 40.5981 25.436 40.7169 25.3616 40.8159L24.0966 42.6502C23.9549 42.8525 23.8891 43.0983 23.9107 43.3443C23.9323 43.5903 24.0399 43.8208 24.2146 43.9954L25.526 45.311C25.7006 45.4857 25.9311 45.5933 26.1771 45.6149C26.4231 45.6365 26.6689 45.5707 26.8712 45.4291L28.6928 44.164C28.7914 44.095 28.9077 44.0556 29.028 44.0504C29.1482 44.0451 29.2675 44.0743 29.3717 44.1345C30.1815 44.5934 31.0476 44.9449 31.9481 45.1803C32.0646 45.2114 32.1697 45.2752 32.2512 45.3641C32.3326 45.453 32.3869 45.5633 32.4078 45.6821L32.7915 47.8705C32.8342 48.1144 32.9618 48.3353 33.1516 48.4942C33.3414 48.6532 33.5812 48.7399 33.8288 48.7392H35.6842C35.9317 48.7399 36.1716 48.6532 36.3614 48.4942C36.5512 48.3353 36.6787 48.1144 36.7215 47.8705L37.1052 45.6821C37.1257 45.5638 37.1794 45.4539 37.26 45.365C37.3407 45.2762 37.4449 45.2121 37.5606 45.1803C38.4567 44.934 39.3171 44.5726 40.1202 44.105C40.2244 44.0448 40.3437 44.0156 40.4639 44.0208C40.5842 44.0261 40.7004 44.0655 40.7991 44.1345L42.6207 45.3995C42.823 45.5412 43.0688 45.607 43.3148 45.5854C43.5608 45.5638 43.7913 45.4562 43.9658 45.2815L45.2773 43.9658C45.4472 43.7953 45.5533 43.5715 45.5779 43.3319C45.6025 43.0924 45.544 42.8517 45.4122 42.6502L44.1472 40.8286C44.0701 40.7283 44.0249 40.6071 44.0174 40.4809C44.0099 40.3546 44.0404 40.2289 44.105 40.1202C44.5729 39.3173 44.9344 38.4568 45.1803 37.5606C45.2114 37.4441 45.2752 37.339 45.3641 37.2576C45.453 37.1761 45.5633 37.1218 45.6821 37.101L47.8705 36.7173C48.1144 36.6745 48.3353 36.547 48.4942 36.3572C48.6532 36.1674 48.7399 35.9275 48.7392 35.68L48.7223 33.7951ZM40.39 34.7228C40.3967 35.8414 40.071 36.9369 39.4541 37.8701C38.8372 38.8033 37.9569 39.5322 36.9251 39.9644C35.8933 40.3965 34.7563 40.5124 33.6585 40.2974C32.5607 40.0823 31.5515 39.546 30.759 38.7564C29.9664 37.9669 29.4263 36.9597 29.2071 35.8627C28.988 34.7657 29.0996 33.6283 29.5279 32.5948C29.9562 31.5614 30.6818 30.6785 31.6127 30.0581C32.5436 29.4377 33.6378 29.1078 34.7565 29.1103C36.2529 29.1125 37.6873 29.7082 38.745 30.7667C39.8027 31.8252 40.3974 33.2601 40.3985 34.7565L40.39 34.7228ZM39.125 34.7228C39.1192 33.857 38.857 33.0123 38.3715 32.2955C37.886 31.5786 37.1989 31.0217 36.3972 30.695C35.5954 30.3683 34.7147 30.2865 33.8665 30.4599C33.0182 30.6333 32.2404 31.0541 31.6311 31.6692C31.0219 32.2844 30.6085 33.0662 30.4433 33.9161C30.278 34.766 30.3683 35.6458 30.7027 36.4444C31.0371 37.243 31.6006 37.9247 32.3221 38.4032C33.0436 38.8818 33.8907 39.1359 34.7565 39.1335C35.9166 39.1312 37.0287 38.6694 37.849 37.849C38.6694 37.0287 39.1312 35.9166 39.1335 34.7565L39.125 34.7228Z" fill="#FD1716"/>
</g>
<rect x="0.5" y="0.5" width="59" height="59" rx="14.5" stroke="url(#paint0_linear_4649_3545)"/>
<defs>
<linearGradient id="paint0_linear_4649_3545" x1="23.3108" y1="85.7264" x2="86.1141" y2="28.8202" gradientUnits="userSpaceOnUse">
<stop stop-color="#FF1717"/>
<stop offset="1" stop-color="#FF6461"/>
</linearGradient>
<clipPath id="clip0_4649_3545">
<rect width="60" height="60" rx="15" fill="white"/>
</clipPath>
</defs>
</svg>
