<svg width="60" height="60" viewBox="0 0 60 60" fill="none" xmlns="http://www.w3.org/2000/svg">
<path d="M17.543 51.7457H9.1459C7.37648 51.7457 6.50148 51.7457 5.97371 51.4179C5.69077 51.2401 5.45474 50.9969 5.28553 50.7088C5.11633 50.4206 5.01891 50.096 5.0015 49.7623C4.97095 49.1401 5.40705 48.3874 6.28204 46.8735L27.0318 10.8128C27.9207 9.28224 28.3762 8.51559 28.9401 8.23503C29.2394 8.08059 29.5714 8 29.9082 8C30.245 8 30.5769 8.08059 30.8762 8.23503C31.4373 8.51559 31.8762 9.28224 32.7512 10.8128L37.0345 18.1544L37.0484 18.1877C37.7511 19.2266 38.3095 20.3571 38.7039 21.546C38.94 22.4821 38.94 23.4988 38.7039 24.4515C38.3087 25.6512 37.7517 26.7913 37.0484 27.8404L26.1429 46.8402L26.1124 46.904C25.5541 48.0374 24.8346 49.0929 23.9846 50.029C23.2512 50.714 22.3702 51.2215 21.4097 51.5123C20.5208 51.7457 19.5347 51.7457 17.5486 51.7457M38.7845 51.7457H50.8121C52.6121 51.7457 53.501 51.7457 54.0343 51.404C54.3157 51.2253 54.5501 50.9817 54.7178 50.6936C54.8855 50.4055 54.9817 50.0814 54.9982 49.7485C55.0315 49.1374 54.6093 48.4207 53.7676 46.9957L53.6732 46.8429L47.6427 36.6847L47.5788 36.5625C46.7344 35.1542 46.2983 34.4375 45.751 34.157C45.4542 34.0026 45.1245 33.922 44.7899 33.922C44.4554 33.922 44.1257 34.0026 43.8288 34.157C43.2677 34.4347 42.8289 35.1875 41.9539 36.6847L35.9206 46.8568V46.8902C35.0317 48.3846 34.5956 49.1401 34.6262 49.7485C34.6431 50.0835 34.7396 50.4097 34.9077 50.7C35.0758 50.9904 35.3106 51.2364 35.5928 51.4179C36.1123 51.7457 37.0011 51.7457 38.7845 51.7457Z" fill="#E84142"/>
</svg>
