<svg width="60" height="60" viewBox="0 0 60 60" fill="none" xmlns="http://www.w3.org/2000/svg">
<path d="M29.5244 5L6 13.2788L9.71701 44.0999L29.5494 55L49.4838 43.9526L53.1996 13.1323L29.5244 5Z" fill="#B3B3B3"/>
<path d="M50.8561 14.9095L29.4727 7.61719V52.3916L47.3931 42.4736L50.8561 14.9095Z" fill="#A6120D"/>
<path d="M8.62891 15.0417L11.8151 42.6062L29.4589 52.3924V7.61719L8.62891 15.0417Z" fill="#DD1B16"/>
<path d="M35.349 31.4521L29.4629 34.2049H23.2587L20.342 41.4991L14.918 41.6L29.4629 9.24219L35.349 31.4521ZM34.7797 30.0663L29.5018 19.6171L25.1722 29.8864H29.4625L34.7797 30.0663Z" fill="#F2F2F2"/>
<path d="M29.4609 9.24219L29.4998 19.6171L34.4126 29.8944H29.4717L29.4609 34.1981L36.2927 34.2049L39.4853 41.6008L44.6755 41.6968L29.4609 9.24219Z" fill="#B3B3B3"/>
</svg>
