<svg width="60" height="60" viewBox="0 0 60 60" fill="none" xmlns="http://www.w3.org/2000/svg">
<path d="M29.9994 34.661C32.465 34.661 34.4637 32.6623 34.4637 30.1967C34.4637 27.7312 32.465 25.7324 29.9994 25.7324C27.5339 25.7324 25.5352 27.7312 25.5352 30.1967C25.5352 32.6623 27.5339 34.661 29.9994 34.661Z" fill="#00D8FF"/>
<path d="M30 40.4328C24.6342 40.5621 19.2819 39.8389 14.1429 38.29C11.769 37.5374 9.55488 36.352 7.6125 34.7935C6.87105 34.2614 6.25362 33.575 5.80264 32.7816C5.35167 31.9881 5.07785 31.1064 5 30.1971C5 27.2453 8.24286 24.3525 13.675 22.4596C18.9516 20.7837 24.4642 19.9709 30 20.0525C35.4619 19.9769 40.9008 20.7751 46.1107 22.4167C48.3966 23.1464 50.5355 24.2745 52.4286 25.7489C53.1563 26.2573 53.7637 26.919 54.208 27.6876C54.6523 28.4561 54.9226 29.3128 55 30.1971C55 33.265 51.375 36.3739 45.5357 38.306C40.4963 39.8049 35.2568 40.5222 30 40.4328ZM30 22.1882C24.7039 22.119 19.4304 22.8917 14.3768 24.4775C9.37679 26.2221 7.13571 28.6078 7.13571 30.1917C7.13571 31.8489 9.54464 34.4542 14.8339 36.2632C19.7501 37.7382 24.8689 38.4247 30 38.2971C35.0293 38.387 40.0427 37.7065 44.8661 36.2792C50.3571 34.4596 52.8571 31.8507 52.8571 30.1971C52.7667 29.6297 52.5598 29.0873 52.2494 28.6038C51.939 28.1204 51.5318 27.7065 51.0536 27.3882C49.3601 26.0797 47.4494 25.0799 45.4089 24.4346C40.4248 22.871 35.2231 22.1127 30 22.1882Z" fill="#00D8FF"/>
<path d="M19.8548 52.4652C19.0217 52.4843 18.1986 52.2822 17.4691 51.8795C14.9119 50.4045 14.0262 46.151 15.0994 40.4992C16.2841 35.0908 18.3343 29.9092 21.1708 25.1545C23.8335 20.3855 27.2414 16.0727 31.2655 12.3795C33.0395 10.7636 35.0853 9.47416 37.3083 8.57059C38.1129 8.19477 38.99 8 39.878 8C40.766 8 41.6431 8.19477 42.4476 8.57059C45.1066 10.1027 45.9869 14.7956 44.7458 20.8188C43.5262 25.9342 41.5291 30.8322 38.8244 35.342C36.2557 40.0549 32.9551 44.3301 29.0458 48.0081C27.208 49.6881 25.075 51.0134 22.7548 51.917C21.8261 52.2626 20.8455 52.448 19.8548 52.4652ZM23.0208 26.2152C20.3153 30.7683 18.3503 35.7223 17.1994 40.892C16.2119 46.0974 17.1601 49.2277 18.5387 50.0242C19.9673 50.851 23.4351 50.067 27.6458 46.3885C31.3782 42.8653 34.5286 38.7729 36.9798 34.2635C39.5707 29.9519 41.4864 25.2691 42.6601 20.3777C43.828 14.7081 42.8191 11.2367 41.3869 10.4117C40.8501 10.2063 40.2765 10.1144 39.7024 10.1418C39.1283 10.1691 38.5661 10.3151 38.0512 10.5706C36.0722 11.3875 34.2526 12.5469 32.6762 13.9956C28.8318 17.5335 25.5766 21.6622 23.0333 26.226L23.0208 26.2152Z" fill="#00D8FF"/>
<path d="M40.1369 52.4907C37.7172 52.4907 34.644 51.0264 31.444 48.2747C27.3498 44.5474 23.8844 40.1835 21.1815 35.3514C18.3799 30.6625 16.3459 25.5558 15.1565 20.2247C14.6419 17.879 14.5464 15.4608 14.8744 13.0818C14.9515 12.1996 15.2207 11.3449 15.663 10.5777C16.1054 9.81056 16.7102 9.14943 17.4351 8.64073C20.0904 7.10323 24.5958 8.68358 29.194 12.7657C33.0165 16.3768 36.2626 20.5527 38.819 25.1479C41.6191 29.7273 43.6744 34.7222 44.9083 39.9461C45.446 42.3777 45.5289 44.8878 45.1529 47.3497C45.0638 48.2576 44.7792 49.1355 44.3187 49.9231C43.8582 50.7107 43.2327 51.3892 42.4851 51.9122C41.7672 52.3091 40.957 52.5087 40.1369 52.4907ZM23.0297 34.2764C25.6229 38.8942 28.9332 43.0707 32.8369 46.6497C36.8529 50.105 40.0387 50.8479 41.4083 50.0425C42.8369 49.2122 43.8904 45.8229 42.8047 40.3389C41.6156 35.3512 39.6441 30.5833 36.9637 26.2122C34.5241 21.8142 31.4257 17.8155 27.7762 14.355C23.4476 10.5122 19.9369 9.65323 18.5065 10.4818C18.0609 10.8443 17.6953 11.2951 17.4325 11.8059C17.1697 12.3167 17.0156 12.8764 16.9797 13.4497C16.696 15.5712 16.7885 17.7262 17.2529 19.8157C18.3974 24.9139 20.3481 29.7967 23.0315 34.28L23.0297 34.2764Z" fill="#00D8FF"/>
</svg>
