<svg width="60" height="60" viewBox="0 0 60 60" fill="none" xmlns="http://www.w3.org/2000/svg">
<mask id="path-1-outside-1_5016_5570" maskUnits="userSpaceOnUse" x="4" y="4" width="52" height="52" fill="black">
<rect fill="white" x="4" y="4" width="52" height="52"/>
<path d="M25.7957 8.60334C16.3143 8.60334 8.59945 16.3177 8.59945 25.7995C8.59945 35.2814 16.3138 42.9958 25.7957 42.9958C35.2775 42.9958 42.9919 35.2814 42.9919 25.7995C42.9919 16.3177 35.2775 8.60334 25.7957 8.60334ZM25.7957 40.996C17.4167 40.996 10.5992 34.1801 10.5992 25.7995C10.5992 17.419 17.4151 10.603 25.7957 10.603C34.1762 10.603 40.9922 17.419 40.9922 25.7995C40.9922 34.1801 34.1762 40.996 25.7957 40.996ZM35.9945 20.6011H35.2395L32.9725 18.0873L32.4389 16.4866C32.3187 16.1239 32.0003 15.8624 31.6228 15.8118L27.4641 15.2572L25.9035 13.6966C25.6293 13.4225 25.2181 13.3297 24.8554 13.4646L21.557 14.6625C21.3461 14.7384 21.169 14.8818 21.0509 15.0716L19.8446 17.0013H17.9993C17.5691 17.0013 17.1874 17.2754 17.0503 17.6845L16.0781 20.599H15.5994C15.0468 20.599 14.5997 21.0461 14.5997 21.5987V25.1986C14.5997 25.7511 15.0468 26.1982 15.5994 26.1982H33.4067L31.6732 31.3966H19.9184L18.9462 28.4801C18.7712 27.957 18.206 27.6723 17.6809 27.8474C17.1578 28.0203 16.8731 28.5876 17.0482 29.1127L18.1089 32.2972C17.4299 32.9193 16.9954 33.8029 16.9954 34.7941C16.9954 36.6689 18.5201 38.1937 20.395 38.1937C22.2698 38.1937 23.7945 36.6689 23.7945 34.7941C23.7945 34.2943 23.6786 33.824 23.4845 33.3959H28.103C27.909 33.824 27.793 34.2943 27.793 34.7941C27.793 36.6689 29.3177 38.1937 31.1926 38.1937C33.0674 38.1937 34.5921 36.6689 34.5921 34.7941C34.5921 33.8029 34.1577 32.9193 33.4786 32.2972L35.5116 26.1981H35.9903C36.5428 26.1981 36.99 25.7511 36.99 25.1985V21.5986C36.99 21.0461 36.5429 20.599 35.9903 20.599L35.9945 20.6011ZM21.7973 34.7982C21.7973 35.5701 21.1688 36.1986 20.397 36.1986C19.6251 36.1986 18.9966 35.5701 18.9966 34.7982C18.9966 34.0264 19.6251 33.4001 20.397 33.4001C21.1688 33.4001 21.7973 34.0285 21.7973 34.7982ZM31.1944 36.1986C30.4226 36.1986 29.7941 35.5701 29.7941 34.7982C29.7941 34.0264 30.4226 33.4001 31.1944 33.4001C31.9663 33.4001 32.5948 34.0285 32.5948 34.7982C32.5948 35.5701 31.9663 36.1986 31.1944 36.1986ZM31.1417 18.9181C31.186 19.0489 31.2556 19.1691 31.3484 19.2724L32.5463 20.6031H28.3327L27.5271 19.1754L28.4149 17.4018L30.7389 17.7118L31.1417 18.9202V18.9181ZM18.718 19.0025H20.3967C20.7426 19.0025 21.0632 18.8254 21.2445 18.5322L22.5605 16.4255L24.9372 15.5608L26.2869 16.9105C26.3164 16.94 26.3543 16.9569 26.386 16.9822L25.4981 18.7558C25.3505 19.0531 25.359 19.4053 25.5213 19.6943L26.0338 20.6011H18.1824L18.7159 19.0005L18.718 19.0025ZM16.5965 22.6024H34.9923V24.203L16.5965 24.2009V22.6003V22.6024ZM53.7871 9.60322C53.7871 10.1557 53.34 10.6029 52.7874 10.6029H46.7899C46.2374 10.6029 45.7903 10.1558 45.7903 9.60322C45.7903 9.05071 46.2374 8.60358 46.7899 8.60358H52.7874C53.34 8.60358 53.7871 9.05066 53.7871 9.60322ZM8.19921 50.3937V52.994H9.79984V46.7962C9.79984 46.2437 10.2469 45.7966 10.7995 45.7966C11.352 45.7966 11.7991 46.2436 11.7991 46.7962V52.994H13.3997V49.1959C13.3997 48.6433 13.8468 48.1962 14.3994 48.1962C14.9519 48.1962 15.399 48.6433 15.399 49.1959V52.994H16.9997V51.5937C16.9997 51.0412 17.4467 50.594 17.9993 50.594C18.5519 50.594 18.9989 51.0411 18.9989 51.5937V52.994H20.5996V50.3768C20.5996 49.8243 21.0467 49.3772 21.5992 49.3772C22.1517 49.3772 22.5988 49.8243 22.5988 50.3768V52.994H22.7992C23.3517 52.994 23.7988 53.4411 23.7988 53.9937C23.7988 54.5462 23.3517 54.9933 22.7992 54.9933H5.99979C5.44728 54.9933 5.00015 54.5462 5.00015 53.9937C5.00015 53.4411 5.44724 52.994 5.99979 52.994H6.20013V50.3937C6.20013 49.8412 6.64722 49.3941 7.19977 49.3941C7.75228 49.3941 8.19921 49.8412 8.19921 50.3937ZM50.7567 44.2591C50.5037 44.006 50.2232 43.7804 49.9279 43.5927L46.3702 41.3277C46.6528 40.8743 46.811 40.3555 46.811 39.8072C46.811 39.0353 46.5115 38.312 45.9674 37.7679L45.2398 37.0382C44.8244 36.6228 44.2908 36.3697 43.7299 36.2706C45.5372 33.1895 46.5895 29.6193 46.5895 25.7958C46.5895 19.8761 44.0905 14.5405 40.1088 10.7489L43.6244 6.99928H52.7899C53.3424 6.99928 53.7895 6.55219 53.7895 5.99964C53.7895 5.44709 53.3424 5 52.7899 5H43.1925C42.9162 5 42.6526 5.11388 42.4628 5.31634L38.595 9.44133C35.0626 6.67024 30.6232 5.00207 25.7961 5.00207C14.3302 5.00418 5 14.3339 5 25.7998C5 37.2658 14.3296 46.5959 25.7961 46.5959C29.609 46.5959 33.173 45.5478 36.2476 43.7489C36.3552 44.312 36.6251 44.8287 37.0406 45.2462L37.7682 45.9738C38.3144 46.5179 39.0378 46.8195 39.8075 46.8195C40.5772 46.8195 41.3027 46.52 41.8489 45.9738L44.9953 42.8274L48.8588 45.2863C49.0317 45.396 49.1983 45.5289 49.346 45.6786L50.6724 47.0051L46.9966 50.6809L45.6701 49.3544C45.5204 49.2047 45.3897 49.0402 45.2758 48.863L44.3858 47.4627C44.0906 46.9966 43.4727 46.8596 43.0045 47.1548C42.5384 47.4522 42.4014 48.0701 42.6966 48.5361L43.5887 49.9365C43.7785 50.2359 44.002 50.5143 44.2551 50.7674L47.1401 53.6524C48.009 54.5192 49.1625 55 50.3899 55C51.6172 55 52.773 54.5213 53.5996 53.6904C53.6207 53.6714 53.6397 53.6524 53.6587 53.6313C54.5149 52.7645 54.9894 51.6194 54.9894 50.3984C54.9894 49.1689 54.5106 48.0153 53.6418 47.1486L50.7568 44.2636L50.7567 44.2591ZM6.99906 25.8001C6.99906 15.4371 15.4325 7.00371 25.7955 7.00371C36.1584 7.00371 44.5897 15.435 44.5897 25.8001C44.5897 36.1631 36.1584 44.5965 25.7955 44.5965C15.4325 44.5944 6.99906 36.1631 6.99906 25.8001ZM40.4316 44.5566C40.0963 44.8919 39.5121 44.8898 39.1789 44.5587L38.4513 43.8311C38.2826 43.6624 38.1919 43.4409 38.1919 43.2047C38.1919 42.9727 38.2868 42.7429 38.4513 42.5784L42.5721 38.4576C42.7387 38.291 42.9601 38.1982 43.1963 38.1982C43.4325 38.1982 43.656 38.291 43.8227 38.4576L44.5481 39.1831C44.7147 39.3497 44.8075 39.5732 44.8075 39.8094C44.8075 40.0456 44.7147 40.2692 44.5481 40.4358L40.4295 44.5545L40.4316 44.5566ZM52.229 52.2309C52.2227 52.2373 52.2163 52.2436 52.2121 52.2499C51.2294 53.2179 49.5296 53.2137 48.5532 52.2373L48.4098 52.0939L52.0856 48.4181L52.229 48.5615C52.7183 49.0507 52.9882 49.7024 52.9882 50.3962C52.9882 51.09 52.7182 51.7417 52.229 52.2309Z"/>
</mask>
<path d="M25.7957 8.60334C16.3143 8.60334 8.59945 16.3177 8.59945 25.7995C8.59945 35.2814 16.3138 42.9958 25.7957 42.9958C35.2775 42.9958 42.9919 35.2814 42.9919 25.7995C42.9919 16.3177 35.2775 8.60334 25.7957 8.60334ZM25.7957 40.996C17.4167 40.996 10.5992 34.1801 10.5992 25.7995C10.5992 17.419 17.4151 10.603 25.7957 10.603C34.1762 10.603 40.9922 17.419 40.9922 25.7995C40.9922 34.1801 34.1762 40.996 25.7957 40.996ZM35.9945 20.6011H35.2395L32.9725 18.0873L32.4389 16.4866C32.3187 16.1239 32.0003 15.8624 31.6228 15.8118L27.4641 15.2572L25.9035 13.6966C25.6293 13.4225 25.2181 13.3297 24.8554 13.4646L21.557 14.6625C21.3461 14.7384 21.169 14.8818 21.0509 15.0716L19.8446 17.0013H17.9993C17.5691 17.0013 17.1874 17.2754 17.0503 17.6845L16.0781 20.599H15.5994C15.0468 20.599 14.5997 21.0461 14.5997 21.5987V25.1986C14.5997 25.7511 15.0468 26.1982 15.5994 26.1982H33.4067L31.6732 31.3966H19.9184L18.9462 28.4801C18.7712 27.957 18.206 27.6723 17.6809 27.8474C17.1578 28.0203 16.8731 28.5876 17.0482 29.1127L18.1089 32.2972C17.4299 32.9193 16.9954 33.8029 16.9954 34.7941C16.9954 36.6689 18.5201 38.1937 20.395 38.1937C22.2698 38.1937 23.7945 36.6689 23.7945 34.7941C23.7945 34.2943 23.6786 33.824 23.4845 33.3959H28.103C27.909 33.824 27.793 34.2943 27.793 34.7941C27.793 36.6689 29.3177 38.1937 31.1926 38.1937C33.0674 38.1937 34.5921 36.6689 34.5921 34.7941C34.5921 33.8029 34.1577 32.9193 33.4786 32.2972L35.5116 26.1981H35.9903C36.5428 26.1981 36.99 25.7511 36.99 25.1985V21.5986C36.99 21.0461 36.5429 20.599 35.9903 20.599L35.9945 20.6011ZM21.7973 34.7982C21.7973 35.5701 21.1688 36.1986 20.397 36.1986C19.6251 36.1986 18.9966 35.5701 18.9966 34.7982C18.9966 34.0264 19.6251 33.4001 20.397 33.4001C21.1688 33.4001 21.7973 34.0285 21.7973 34.7982ZM31.1944 36.1986C30.4226 36.1986 29.7941 35.5701 29.7941 34.7982C29.7941 34.0264 30.4226 33.4001 31.1944 33.4001C31.9663 33.4001 32.5948 34.0285 32.5948 34.7982C32.5948 35.5701 31.9663 36.1986 31.1944 36.1986ZM31.1417 18.9181C31.186 19.0489 31.2556 19.1691 31.3484 19.2724L32.5463 20.6031H28.3327L27.5271 19.1754L28.4149 17.4018L30.7389 17.7118L31.1417 18.9202V18.9181ZM18.718 19.0025H20.3967C20.7426 19.0025 21.0632 18.8254 21.2445 18.5322L22.5605 16.4255L24.9372 15.5608L26.2869 16.9105C26.3164 16.94 26.3543 16.9569 26.386 16.9822L25.4981 18.7558C25.3505 19.0531 25.359 19.4053 25.5213 19.6943L26.0338 20.6011H18.1824L18.7159 19.0005L18.718 19.0025ZM16.5965 22.6024H34.9923V24.203L16.5965 24.2009V22.6003V22.6024ZM53.7871 9.60322C53.7871 10.1557 53.34 10.6029 52.7874 10.6029H46.7899C46.2374 10.6029 45.7903 10.1558 45.7903 9.60322C45.7903 9.05071 46.2374 8.60358 46.7899 8.60358H52.7874C53.34 8.60358 53.7871 9.05066 53.7871 9.60322ZM8.19921 50.3937V52.994H9.79984V46.7962C9.79984 46.2437 10.2469 45.7966 10.7995 45.7966C11.352 45.7966 11.7991 46.2436 11.7991 46.7962V52.994H13.3997V49.1959C13.3997 48.6433 13.8468 48.1962 14.3994 48.1962C14.9519 48.1962 15.399 48.6433 15.399 49.1959V52.994H16.9997V51.5937C16.9997 51.0412 17.4467 50.594 17.9993 50.594C18.5519 50.594 18.9989 51.0411 18.9989 51.5937V52.994H20.5996V50.3768C20.5996 49.8243 21.0467 49.3772 21.5992 49.3772C22.1517 49.3772 22.5988 49.8243 22.5988 50.3768V52.994H22.7992C23.3517 52.994 23.7988 53.4411 23.7988 53.9937C23.7988 54.5462 23.3517 54.9933 22.7992 54.9933H5.99979C5.44728 54.9933 5.00015 54.5462 5.00015 53.9937C5.00015 53.4411 5.44724 52.994 5.99979 52.994H6.20013V50.3937C6.20013 49.8412 6.64722 49.3941 7.19977 49.3941C7.75228 49.3941 8.19921 49.8412 8.19921 50.3937ZM50.7567 44.2591C50.5037 44.006 50.2232 43.7804 49.9279 43.5927L46.3702 41.3277C46.6528 40.8743 46.811 40.3555 46.811 39.8072C46.811 39.0353 46.5115 38.312 45.9674 37.7679L45.2398 37.0382C44.8244 36.6228 44.2908 36.3697 43.7299 36.2706C45.5372 33.1895 46.5895 29.6193 46.5895 25.7958C46.5895 19.8761 44.0905 14.5405 40.1088 10.7489L43.6244 6.99928H52.7899C53.3424 6.99928 53.7895 6.55219 53.7895 5.99964C53.7895 5.44709 53.3424 5 52.7899 5H43.1925C42.9162 5 42.6526 5.11388 42.4628 5.31634L38.595 9.44133C35.0626 6.67024 30.6232 5.00207 25.7961 5.00207C14.3302 5.00418 5 14.3339 5 25.7998C5 37.2658 14.3296 46.5959 25.7961 46.5959C29.609 46.5959 33.173 45.5478 36.2476 43.7489C36.3552 44.312 36.6251 44.8287 37.0406 45.2462L37.7682 45.9738C38.3144 46.5179 39.0378 46.8195 39.8075 46.8195C40.5772 46.8195 41.3027 46.52 41.8489 45.9738L44.9953 42.8274L48.8588 45.2863C49.0317 45.396 49.1983 45.5289 49.346 45.6786L50.6724 47.0051L46.9966 50.6809L45.6701 49.3544C45.5204 49.2047 45.3897 49.0402 45.2758 48.863L44.3858 47.4627C44.0906 46.9966 43.4727 46.8596 43.0045 47.1548C42.5384 47.4522 42.4014 48.0701 42.6966 48.5361L43.5887 49.9365C43.7785 50.2359 44.002 50.5143 44.2551 50.7674L47.1401 53.6524C48.009 54.5192 49.1625 55 50.3899 55C51.6172 55 52.773 54.5213 53.5996 53.6904C53.6207 53.6714 53.6397 53.6524 53.6587 53.6313C54.5149 52.7645 54.9894 51.6194 54.9894 50.3984C54.9894 49.1689 54.5106 48.0153 53.6418 47.1486L50.7568 44.2636L50.7567 44.2591ZM6.99906 25.8001C6.99906 15.4371 15.4325 7.00371 25.7955 7.00371C36.1584 7.00371 44.5897 15.435 44.5897 25.8001C44.5897 36.1631 36.1584 44.5965 25.7955 44.5965C15.4325 44.5944 6.99906 36.1631 6.99906 25.8001ZM40.4316 44.5566C40.0963 44.8919 39.5121 44.8898 39.1789 44.5587L38.4513 43.8311C38.2826 43.6624 38.1919 43.4409 38.1919 43.2047C38.1919 42.9727 38.2868 42.7429 38.4513 42.5784L42.5721 38.4576C42.7387 38.291 42.9601 38.1982 43.1963 38.1982C43.4325 38.1982 43.656 38.291 43.8227 38.4576L44.5481 39.1831C44.7147 39.3497 44.8075 39.5732 44.8075 39.8094C44.8075 40.0456 44.7147 40.2692 44.5481 40.4358L40.4295 44.5545L40.4316 44.5566ZM52.229 52.2309C52.2227 52.2373 52.2163 52.2436 52.2121 52.2499C51.2294 53.2179 49.5296 53.2137 48.5532 52.2373L48.4098 52.0939L52.0856 48.4181L52.229 48.5615C52.7183 49.0507 52.9882 49.7024 52.9882 50.3962C52.9882 51.09 52.7182 51.7417 52.229 52.2309Z" fill="#FD1716"/>
<path d="M25.7957 8.60334C16.3143 8.60334 8.59945 16.3177 8.59945 25.7995C8.59945 35.2814 16.3138 42.9958 25.7957 42.9958C35.2775 42.9958 42.9919 35.2814 42.9919 25.7995C42.9919 16.3177 35.2775 8.60334 25.7957 8.60334ZM25.7957 40.996C17.4167 40.996 10.5992 34.1801 10.5992 25.7995C10.5992 17.419 17.4151 10.603 25.7957 10.603C34.1762 10.603 40.9922 17.419 40.9922 25.7995C40.9922 34.1801 34.1762 40.996 25.7957 40.996ZM35.9945 20.6011H35.2395L32.9725 18.0873L32.4389 16.4866C32.3187 16.1239 32.0003 15.8624 31.6228 15.8118L27.4641 15.2572L25.9035 13.6966C25.6293 13.4225 25.2181 13.3297 24.8554 13.4646L21.557 14.6625C21.3461 14.7384 21.169 14.8818 21.0509 15.0716L19.8446 17.0013H17.9993C17.5691 17.0013 17.1874 17.2754 17.0503 17.6845L16.0781 20.599H15.5994C15.0468 20.599 14.5997 21.0461 14.5997 21.5987V25.1986C14.5997 25.7511 15.0468 26.1982 15.5994 26.1982H33.4067L31.6732 31.3966H19.9184L18.9462 28.4801C18.7712 27.957 18.206 27.6723 17.6809 27.8474C17.1578 28.0203 16.8731 28.5876 17.0482 29.1127L18.1089 32.2972C17.4299 32.9193 16.9954 33.8029 16.9954 34.7941C16.9954 36.6689 18.5201 38.1937 20.395 38.1937C22.2698 38.1937 23.7945 36.6689 23.7945 34.7941C23.7945 34.2943 23.6786 33.824 23.4845 33.3959H28.103C27.909 33.824 27.793 34.2943 27.793 34.7941C27.793 36.6689 29.3177 38.1937 31.1926 38.1937C33.0674 38.1937 34.5921 36.6689 34.5921 34.7941C34.5921 33.8029 34.1577 32.9193 33.4786 32.2972L35.5116 26.1981H35.9903C36.5428 26.1981 36.99 25.7511 36.99 25.1985V21.5986C36.99 21.0461 36.5429 20.599 35.9903 20.599L35.9945 20.6011ZM21.7973 34.7982C21.7973 35.5701 21.1688 36.1986 20.397 36.1986C19.6251 36.1986 18.9966 35.5701 18.9966 34.7982C18.9966 34.0264 19.6251 33.4001 20.397 33.4001C21.1688 33.4001 21.7973 34.0285 21.7973 34.7982ZM31.1944 36.1986C30.4226 36.1986 29.7941 35.5701 29.7941 34.7982C29.7941 34.0264 30.4226 33.4001 31.1944 33.4001C31.9663 33.4001 32.5948 34.0285 32.5948 34.7982C32.5948 35.5701 31.9663 36.1986 31.1944 36.1986ZM31.1417 18.9181C31.186 19.0489 31.2556 19.1691 31.3484 19.2724L32.5463 20.6031H28.3327L27.5271 19.1754L28.4149 17.4018L30.7389 17.7118L31.1417 18.9202V18.9181ZM18.718 19.0025H20.3967C20.7426 19.0025 21.0632 18.8254 21.2445 18.5322L22.5605 16.4255L24.9372 15.5608L26.2869 16.9105C26.3164 16.94 26.3543 16.9569 26.386 16.9822L25.4981 18.7558C25.3505 19.0531 25.359 19.4053 25.5213 19.6943L26.0338 20.6011H18.1824L18.7159 19.0005L18.718 19.0025ZM16.5965 22.6024H34.9923V24.203L16.5965 24.2009V22.6003V22.6024ZM53.7871 9.60322C53.7871 10.1557 53.34 10.6029 52.7874 10.6029H46.7899C46.2374 10.6029 45.7903 10.1558 45.7903 9.60322C45.7903 9.05071 46.2374 8.60358 46.7899 8.60358H52.7874C53.34 8.60358 53.7871 9.05066 53.7871 9.60322ZM8.19921 50.3937V52.994H9.79984V46.7962C9.79984 46.2437 10.2469 45.7966 10.7995 45.7966C11.352 45.7966 11.7991 46.2436 11.7991 46.7962V52.994H13.3997V49.1959C13.3997 48.6433 13.8468 48.1962 14.3994 48.1962C14.9519 48.1962 15.399 48.6433 15.399 49.1959V52.994H16.9997V51.5937C16.9997 51.0412 17.4467 50.594 17.9993 50.594C18.5519 50.594 18.9989 51.0411 18.9989 51.5937V52.994H20.5996V50.3768C20.5996 49.8243 21.0467 49.3772 21.5992 49.3772C22.1517 49.3772 22.5988 49.8243 22.5988 50.3768V52.994H22.7992C23.3517 52.994 23.7988 53.4411 23.7988 53.9937C23.7988 54.5462 23.3517 54.9933 22.7992 54.9933H5.99979C5.44728 54.9933 5.00015 54.5462 5.00015 53.9937C5.00015 53.4411 5.44724 52.994 5.99979 52.994H6.20013V50.3937C6.20013 49.8412 6.64722 49.3941 7.19977 49.3941C7.75228 49.3941 8.19921 49.8412 8.19921 50.3937ZM50.7567 44.2591C50.5037 44.006 50.2232 43.7804 49.9279 43.5927L46.3702 41.3277C46.6528 40.8743 46.811 40.3555 46.811 39.8072C46.811 39.0353 46.5115 38.312 45.9674 37.7679L45.2398 37.0382C44.8244 36.6228 44.2908 36.3697 43.7299 36.2706C45.5372 33.1895 46.5895 29.6193 46.5895 25.7958C46.5895 19.8761 44.0905 14.5405 40.1088 10.7489L43.6244 6.99928H52.7899C53.3424 6.99928 53.7895 6.55219 53.7895 5.99964C53.7895 5.44709 53.3424 5 52.7899 5H43.1925C42.9162 5 42.6526 5.11388 42.4628 5.31634L38.595 9.44133C35.0626 6.67024 30.6232 5.00207 25.7961 5.00207C14.3302 5.00418 5 14.3339 5 25.7998C5 37.2658 14.3296 46.5959 25.7961 46.5959C29.609 46.5959 33.173 45.5478 36.2476 43.7489C36.3552 44.312 36.6251 44.8287 37.0406 45.2462L37.7682 45.9738C38.3144 46.5179 39.0378 46.8195 39.8075 46.8195C40.5772 46.8195 41.3027 46.52 41.8489 45.9738L44.9953 42.8274L48.8588 45.2863C49.0317 45.396 49.1983 45.5289 49.346 45.6786L50.6724 47.0051L46.9966 50.6809L45.6701 49.3544C45.5204 49.2047 45.3897 49.0402 45.2758 48.863L44.3858 47.4627C44.0906 46.9966 43.4727 46.8596 43.0045 47.1548C42.5384 47.4522 42.4014 48.0701 42.6966 48.5361L43.5887 49.9365C43.7785 50.2359 44.002 50.5143 44.2551 50.7674L47.1401 53.6524C48.009 54.5192 49.1625 55 50.3899 55C51.6172 55 52.773 54.5213 53.5996 53.6904C53.6207 53.6714 53.6397 53.6524 53.6587 53.6313C54.5149 52.7645 54.9894 51.6194 54.9894 50.3984C54.9894 49.1689 54.5106 48.0153 53.6418 47.1486L50.7568 44.2636L50.7567 44.2591ZM6.99906 25.8001C6.99906 15.4371 15.4325 7.00371 25.7955 7.00371C36.1584 7.00371 44.5897 15.435 44.5897 25.8001C44.5897 36.1631 36.1584 44.5965 25.7955 44.5965C15.4325 44.5944 6.99906 36.1631 6.99906 25.8001ZM40.4316 44.5566C40.0963 44.8919 39.5121 44.8898 39.1789 44.5587L38.4513 43.8311C38.2826 43.6624 38.1919 43.4409 38.1919 43.2047C38.1919 42.9727 38.2868 42.7429 38.4513 42.5784L42.5721 38.4576C42.7387 38.291 42.9601 38.1982 43.1963 38.1982C43.4325 38.1982 43.656 38.291 43.8227 38.4576L44.5481 39.1831C44.7147 39.3497 44.8075 39.5732 44.8075 39.8094C44.8075 40.0456 44.7147 40.2692 44.5481 40.4358L40.4295 44.5545L40.4316 44.5566ZM52.229 52.2309C52.2227 52.2373 52.2163 52.2436 52.2121 52.2499C51.2294 53.2179 49.5296 53.2137 48.5532 52.2373L48.4098 52.0939L52.0856 48.4181L52.229 48.5615C52.7183 49.0507 52.9882 49.7024 52.9882 50.3962C52.9882 51.09 52.7182 51.7417 52.229 52.2309Z" stroke="#FD1716" stroke-width="0.6" mask="url(#path-1-outside-1_5016_5570)"/>
</svg>
