<svg width="50" height="50" viewBox="0 0 50 50" fill="none" xmlns="http://www.w3.org/2000/svg">
<rect width="50" height="50" rx="6" fill="white"/>
<path d="M10.4451 32.7808H39.5549C39.9389 32.7808 40.25 32.4697 40.25 32.0858V11.4451C40.25 11.0611 39.9389 10.75 39.5549 10.75H10.4451C10.0611 10.75 9.75 11.0611 9.75 11.4451V32.0858C9.75 32.4698 10.0611 32.7808 10.4451 32.7808ZM38.8598 31.392L11.1389 31.3907L11.1399 12.1389H38.8598V31.392Z" fill="#FD1716" stroke="#FD1716" stroke-width="0.5"/>
<path d="M10.4451 30.1324H39.5549C39.9389 30.1324 40.25 29.8213 40.25 29.4373C40.25 29.0533 39.9389 28.7422 39.5549 28.7422H10.4451C10.0611 28.7422 9.75 29.0533 9.75 29.4373C9.75 29.8213 10.0611 30.1324 10.4451 30.1324Z" fill="#FD1716" stroke="#FD1716" stroke-width="0.5"/>
<path d="M23.5388 38.3037H26.4685C26.8525 38.3037 27.1636 37.9926 27.1636 37.6086V32.0844C27.1636 31.7012 26.852 31.3906 26.4685 31.3906H23.5388C23.1553 31.3906 22.8438 31.7012 22.8438 32.0844V37.6086C22.8438 37.9926 23.1548 38.3037 23.5388 38.3037ZM25.7735 32.7796V36.9135H24.2326L24.2338 32.7796H25.7735Z" fill="#FD1716" stroke="#FD1716" stroke-width="0.5"/>
<path d="M18.078 39.9015L18.078 39.9015L18.0791 39.9031C18.208 40.0944 18.4231 40.2099 18.6539 40.2099H31.3458H31.3468C31.5776 40.2099 31.7932 40.0956 31.9216 39.9031C32.0509 39.7113 32.0761 39.469 31.9904 39.2558L31.9901 39.2552L30.5694 35.7467L30.5692 35.7461C30.4627 35.4852 30.2102 35.3146 29.9279 35.3125V35.3125H29.926H26.4644C26.0804 35.3125 25.7694 35.6236 25.7694 36.0076C25.7694 36.3916 26.0804 36.7027 26.4644 36.7027H29.4556L30.3142 38.821H19.6848L20.5412 36.7027H23.5349C23.9189 36.7027 24.23 36.3916 24.23 36.0076C24.23 35.6236 23.9189 35.3125 23.5349 35.3125H20.0733V35.3125L20.0715 35.3125C19.7892 35.3146 19.5366 35.4852 19.4302 35.7461L19.4299 35.7468L18.0121 39.2547C17.9237 39.4703 17.9524 39.7121 18.078 39.9015Z" fill="#FD1716" stroke="#FD1716" stroke-width="0.5"/>
<path d="M20.9067 22.6674H15.2814C14.4139 22.6647 13.7123 21.9617 13.7109 21.0956V16.2437C13.7123 15.3763 14.4153 14.6732 15.2827 14.6719H20.9071C21.7745 14.6732 22.4775 15.3763 22.4789 16.2437V21.0956C22.4775 21.963 21.7745 22.666 20.9071 22.6674H20.9067ZM15.2814 15.562C14.9058 15.5634 14.6011 15.8681 14.6011 16.2437V21.0956C14.6024 21.4712 14.9058 21.7759 15.2827 21.7772H20.907C21.284 21.7759 21.5887 21.4712 21.59 21.0956V16.2437C21.5887 15.8681 21.2839 15.5634 20.907 15.562H18.0942H15.2814Z" fill="#FD1716"/>
<path d="M20.9067 22.6674H15.2814C14.4139 22.6647 13.7123 21.9617 13.7109 21.0956V16.2437C13.7123 15.3763 14.4153 14.6732 15.2827 14.6719H20.9071C21.7745 14.6732 22.4775 15.3763 22.4789 16.2437V21.0956C22.4775 21.963 21.7745 22.666 20.9071 22.6674H20.9067ZM15.2814 15.562C14.9058 15.5634 14.6011 15.8681 14.6011 16.2437V21.0956C14.6024 21.4712 14.9058 21.7759 15.2827 21.7772H20.907C21.284 21.7759 21.5887 21.4712 21.59 21.0956V16.2437C21.5887 15.8681 21.2839 15.5634 20.907 15.562H18.0942H15.2814Z" stroke="#FD1716"/>
<path d="M19.9694 21.2653H16.4571C15.9155 21.2635 15.4774 20.8123 15.4766 20.2563V17.1418C15.4774 16.585 15.9163 16.1337 16.458 16.1328H19.9697C20.5113 16.1337 20.9502 16.585 20.951 17.1418V20.2563C20.9502 20.8131 20.511 21.2644 19.9694 21.2653Z" fill="#FD1716"/>
<path d="M19.9694 21.2653H16.4571C15.9155 21.2635 15.4774 20.8123 15.4766 20.2563V17.1418C15.4774 16.585 15.9163 16.1337 16.458 16.1328H19.9697C20.5113 16.1337 20.9502 16.585 20.951 17.1418V20.2563C20.9502 20.8131 20.511 21.2644 19.9694 21.2653Z" stroke="#FD1716"/>
<path d="M14.156 26.4683H35.8493H35.8521C36.2361 26.4683 36.5471 26.1572 36.5471 25.7732C36.5471 25.3892 36.236 25.0781 35.8521 25.0781H14.156C13.772 25.0781 13.4609 25.3892 13.4609 25.7732C13.4609 26.1572 13.772 26.4683 14.156 26.4683Z" fill="#FD1716" stroke="#FD1716" stroke-width="0.5"/>
<path d="M25.6482 15.812H35.8526C36.2366 15.812 36.5477 15.501 36.5477 15.117C36.5477 14.733 36.2366 14.4219 35.8526 14.4219H25.6482C25.2642 14.4219 24.9531 14.733 24.9531 15.117C24.9531 15.501 25.2642 15.812 25.6482 15.812Z" fill="#FD1716" stroke="#FD1716" stroke-width="0.5"/>
<path d="M25.6482 19.3589H35.8526C36.2366 19.3589 36.5477 19.0478 36.5477 18.6638C36.5477 18.2798 36.2366 17.9688 35.8526 17.9688H25.6482C25.2642 17.9688 24.9531 18.2798 24.9531 18.6638C24.9531 19.0478 25.2642 19.3589 25.6482 19.3589Z" fill="#FD1716" stroke="#FD1716" stroke-width="0.5"/>
<path d="M25.6482 22.9136H35.8526C36.2366 22.9136 36.5477 22.6025 36.5477 22.2185C36.5477 21.8345 36.2366 21.5234 35.8526 21.5234H25.6482C25.2642 21.5234 24.9531 21.8345 24.9531 22.2185C24.9531 22.6025 25.2642 22.9136 25.6482 22.9136Z" fill="#FD1716" stroke="#FD1716" stroke-width="0.5"/>
</svg>
