<svg width="50" height="50" viewBox="0 0 50 50" fill="none" xmlns="http://www.w3.org/2000/svg">
<rect width="50" height="50" rx="6" fill="white"/>
<path d="M31 26.2499H36C36.1989 26.2499 36.3896 26.1709 36.5303 26.0302C36.6709 25.8896 36.75 25.6988 36.75 25.4999V15.5C36.75 15.3011 36.6709 15.1103 36.5303 14.9697C36.3896 14.829 36.1989 14.75 36 14.75H31C30.8011 14.75 30.6103 14.829 30.4697 14.9697C30.329 15.1103 30.25 15.3011 30.25 15.5V25.4999C30.25 25.6988 30.329 25.8896 30.4697 26.0302C30.6103 26.1709 30.8011 26.2499 31 26.2499ZM31.75 24.7499V24.2499H35.25V24.7499H31.75ZM35.25 16.25V22.7499H31.75V16.25H35.25Z" fill="#FD1716" stroke="#FD1716" stroke-width="0.5"/>
<path d="M31 37.7499H28.6352L27.8851 33.25H37.9986C38.2948 33.253 38.5887 33.1969 38.8631 33.0851C39.1378 32.973 39.3875 32.8072 39.5973 32.5974C39.8071 32.3875 39.9729 32.1379 40.085 31.8631C40.1969 31.5888 40.2529 31.2949 40.2499 30.9987V14.0014C40.2529 13.7052 40.1969 13.4113 40.085 13.1369C39.9729 12.8622 39.8071 12.6125 39.5973 12.4027C39.3875 12.1929 39.1378 12.0271 38.8631 11.915C38.5887 11.8031 38.2948 11.7471 37.9986 11.7501H12.0014C11.7052 11.7471 11.4113 11.8031 11.1369 11.915C10.8622 12.0271 10.6125 12.1929 10.4027 12.4027C10.1929 12.6125 10.0271 12.8622 9.915 13.1369C9.80312 13.4113 9.74707 13.7052 9.75012 14.0014V30.9986C9.74707 31.2949 9.80312 31.5888 9.915 31.8631C10.0271 32.1379 10.1929 32.3875 10.4027 32.5974C10.6125 32.8072 10.8622 32.973 11.1369 33.0851C11.4113 33.1969 11.7052 33.253 12.0014 33.25H22.1149L21.3648 37.7499H19H18.75V37.9999V38.9999V39.2499H19H31H31.25V38.9999V37.9999V37.7499H31ZM11.9944 13.25L11.9944 13.2501H12.0001H37.9999V13.2502L38.0056 13.25C38.104 13.2478 38.2017 13.2655 38.2931 13.3021C38.3844 13.3388 38.4673 13.3935 38.5369 13.4631C38.6065 13.5327 38.6612 13.6156 38.6979 13.7069C38.7345 13.7983 38.7522 13.896 38.75 13.9944L38.7499 13.9944V14.0001V27.75H11.2501V14.0001H11.2502L11.25 13.9944C11.2478 13.896 11.2655 13.7983 11.3021 13.7069C11.3388 13.6156 11.3935 13.5327 11.4631 13.4631C11.5327 13.3935 11.6156 13.3388 11.7069 13.3021C11.7983 13.2655 11.896 13.2478 11.9944 13.25ZM38.0056 31.75L38.0056 31.75H37.9999H12.0001V31.7499L11.9944 31.75C11.896 31.7523 11.7983 31.7345 11.7069 31.6979C11.6156 31.6613 11.5327 31.6066 11.4631 31.537C11.3935 31.4674 11.3388 31.3845 11.3021 31.2931C11.2655 31.2018 11.2478 31.104 11.25 31.0057L11.2501 31.0057V31V29.25H38.7499V31H38.7498L38.75 31.0057C38.7522 31.104 38.7345 31.2018 38.6979 31.2931C38.6612 31.3845 38.6065 31.4674 38.5369 31.537C38.4673 31.6066 38.3844 31.6613 38.2931 31.6979C38.2017 31.7345 38.104 31.7523 38.0056 31.75ZM26.3647 33.25L27.1144 37.7499H22.8856L23.6353 33.25H26.3647Z" fill="#FD1716" stroke="#FD1716" stroke-width="0.5"/>
<path d="M24.5 29.75H24.25V30V31V31.25H24.5H25.5H25.75V31V30V29.75H25.5H24.5Z" fill="#FD1716" stroke="#FD1716" stroke-width="0.5"/>
<path d="M14 26.2499H27.9999C28.1988 26.2499 28.3896 26.1709 28.5302 26.0302C28.6709 25.8896 28.7499 25.6988 28.7499 25.4999V15.5C28.7499 15.3011 28.6709 15.1103 28.5302 14.9697C28.3896 14.829 28.1988 14.75 27.9999 14.75H14C13.8011 14.75 13.6103 14.829 13.4697 14.9697C13.329 15.1103 13.25 15.3011 13.25 15.5V25.4999C13.25 25.6988 13.329 25.8896 13.4697 26.0302C13.6103 26.1709 13.8011 26.2499 14 26.2499ZM14.75 24.7499V24.2499H27.2499V24.7499H14.75ZM27.2499 16.25V22.7499H14.75V16.25H27.2499Z" fill="#FD1716" stroke="#FD1716" stroke-width="0.5"/>
</svg>
