<svg width="76" height="75" viewBox="0 0 76 75" fill="none" xmlns="http://www.w3.org/2000/svg">
<path d="M70.4904 45.9117C65.9811 64.0017 47.653 74.9984 29.5888 70.4888C11.4983 65.9795 0.501562 47.6522 5.01115 29.5883C9.52047 11.4983 27.822 0.501564 45.9125 5.01115C63.9767 9.4941 75 27.8214 70.4904 45.9117Z" fill="url(#paint0_linear_5010_4108)"/>
<path d="M53.8223 33.542C54.4815 29.0596 51.0801 26.6338 46.3867 25.0254L47.916 18.9346L44.2246 18.0117L42.7481 23.9443C41.7725 23.707 40.7705 23.4697 39.7686 23.2588L41.2451 17.2998L37.5537 16.377L36.0508 22.4414C35.2334 22.2568 34.4424 22.0723 33.6777 21.8877V21.8613L28.5625 20.5957L27.5869 24.5508C27.5869 24.5508 30.3291 25.1836 30.2764 25.21C31.7793 25.5791 32.043 26.5811 31.9902 27.3721L30.25 34.3067C30.3555 34.333 30.4873 34.3594 30.6455 34.4385C30.5137 34.4121 30.3818 34.3858 30.25 34.333L27.8242 44.0362C27.6397 44.4844 27.165 45.17 26.1367 44.9063C26.1631 44.959 23.4473 44.2471 23.4473 44.2471L21.6016 48.4922L26.4268 49.7051C27.3232 49.9424 28.1934 50.1534 29.0635 50.3907L27.5342 56.5342L31.2256 57.4571L32.7549 51.3662C33.7568 51.6299 34.7588 51.8936 35.708 52.1309L34.2051 58.1954L37.8965 59.1182L39.4258 52.9746C45.7539 54.1612 50.5 53.6866 52.4776 47.9649C54.086 43.377 52.3985 40.7139 49.0762 38.9737C51.5284 38.4199 53.3477 36.8115 53.8223 33.542ZM45.3584 45.4073C44.2246 49.9952 36.4727 47.5166 33.9678 46.8838L35.9981 38.7364C38.5029 39.3692 46.5713 40.6084 45.3584 45.4073ZM46.5186 33.4629C45.4639 37.6553 39.0303 35.5196 36.9473 34.9922L38.793 27.6094C40.876 28.1367 47.5996 29.1123 46.5186 33.4629Z" fill="white"/>
<defs>
<linearGradient id="paint0_linear_5010_4108" x1="3377.18" y1="2.38" x2="3377.18" y2="6753.33" gradientUnits="userSpaceOnUse">
<stop stop-color="#F9AA4B"/>
<stop offset="1" stop-color="#F7931A"/>
</linearGradient>
</defs>
</svg>
