<svg width="76" height="75" viewBox="0 0 76 75" fill="none" xmlns="http://www.w3.org/2000/svg">
<path d="M59.3801 23.7277C59.0056 24.071 58.5179 24.2645 58.0099 24.2711H9.93207C8.22524 24.2711 7.36516 22.3209 8.54527 21.1774L16.4427 13.5634C16.8096 13.2079 17.2986 13.0064 17.8095 13H66.0707C67.7942 13 68.6376 14.9669 67.4375 16.117L59.3801 23.7277Z" fill="url(#paint0_linear_5010_4187)"/>
<path d="M59.3801 61.2511C59.0032 61.5884 58.5157 61.7758 58.0099 61.7778H9.93207C8.22524 61.7778 7.36516 59.8443 8.54527 58.7009L16.4427 51.0668C16.8127 50.7187 17.3014 50.5244 17.8095 50.5234H66.0707C67.7942 50.5234 68.6376 52.477 67.4375 53.6171L59.3801 61.2511Z" fill="url(#paint1_linear_5010_4187)"/>
<path d="M59.3801 32.2982C59.0032 31.9609 58.5157 31.7735 58.0099 31.7715H9.93207C8.22524 31.7715 7.36516 33.705 8.54527 34.8484L16.4427 42.4825C16.8127 42.8259 17.2994 43.0159 17.8095 43.0259H66.0707C67.7942 43.0259 68.6376 41.0724 67.4375 39.9323L59.3801 32.2982Z" fill="url(#paint2_linear_5010_4187)"/>
<defs>
<linearGradient id="paint0_linear_5010_4187" x1="8.00189" y1="180.872" x2="69.5343" y2="180.306" gradientUnits="userSpaceOnUse">
<stop stop-color="#599DB0"/>
<stop offset="1" stop-color="#47F8C3"/>
</linearGradient>
<linearGradient id="paint1_linear_5010_4187" x1="8.00189" y1="27.948" x2="69.141" y2="27.4779" gradientUnits="userSpaceOnUse">
<stop stop-color="#C44FE2"/>
<stop offset="1" stop-color="#73B0D0"/>
</linearGradient>
<linearGradient id="paint2_linear_5010_4187" x1="11.4522" y1="37.3987" x2="65.6807" y2="37.3987" gradientUnits="userSpaceOnUse">
<stop stop-color="#778CBF"/>
<stop offset="1" stop-color="#5DCDC9"/>
</linearGradient>
</defs>
</svg>
