<svg width="76" height="75" viewBox="0 0 76 75" fill="none" xmlns="http://www.w3.org/2000/svg">
<path d="M38 72C56.7777 72 72 56.7777 72 38C72 19.2223 56.7777 4 38 4C19.2223 4 4 19.2223 4 38C4 56.7777 19.2223 72 38 72Z" stroke="#384A53" stroke-width="3.11035" stroke-linejoin="bevel"/>
<path d="M19.5365 60.9641C19.5365 60.9641 24.3797 56.1208 21.8914 54.6101C21.2694 53.3215 20.6473 54.3879 20.0253 56.6985C19.6698 58.2092 19.3587 53.8547 20.2918 53.5437C21.1805 53.1882 17.1815 49.6336 16.3817 49.3225C15.5375 48.9671 17.2704 48.1673 19.492 50.2556C21.6693 52.344 21.6248 52.9216 21.8914 52.6106C22.158 52.2996 21.9803 51.1887 21.5804 50.7C21.1805 50.2112 19.3587 46.3011 19.6253 46.3899C19.8919 46.4788 22.4247 49.2781 23.1356 51.1443C23.891 52.9661 23.8465 47.6785 23.8465 47.6785C23.8465 47.6785 24.4242 45.5457 24.6908 44.9236C24.9574 44.3016 25.4905 46.3455 25.4905 46.3455C25.4905 46.3455 25.8904 48.8338 27.0901 49.7224C28.2898 50.6111 27.9788 48.5228 27.9788 48.5228L27.5345 38.5253L29.6228 36.659C29.6228 36.659 29.4007 44.5238 30.6448 44.0794C31.8889 43.6351 32.1111 40.1693 32.1111 40.1693C32.1111 40.1693 32.9553 34.5262 32.9109 34.2152C32.8665 33.9042 33.9773 33.2821 33.9773 33.2821L36.7766 30.7494C36.7766 30.7494 36.6877 33.5487 37.843 34.1264C38.9983 34.7484 39.0427 31.2382 39.0427 31.2382L39.4426 27.8168C39.4426 27.8168 54.6388 15.5977 57.7047 14.8867C60.3707 17.5972 60.3263 22.0849 59.2154 23.4179C58.149 24.7509 48.2848 38.0365 48.2848 38.0365C48.2848 38.0365 43.9304 37.7255 43.3972 38.9696C42.864 40.2137 47.0407 39.9027 47.0407 39.9027L40.1535 49.0559C35.3547 47.1453 28.7342 50.4778 27.9788 51.6775C27.9788 51.6775 27.4456 52.4329 29.0452 52.5218C30.6448 52.6106 42.0197 52.6995 42.0197 52.6995L37.3542 53.9436C37.3542 53.9436 28.2898 53.8548 27.49 53.4104C26.6902 52.9661 27.179 54.1658 27.179 54.1658C27.179 54.1658 28.7786 56.9651 31.9778 57.676C35.177 58.387 28.7786 57.3205 28.7786 57.3205C28.7786 57.3205 26.2459 56.6985 25.535 54.7434C24.824 52.8328 24.6908 55.2766 24.6908 55.2766C24.6908 55.2766 25.9793 58.2536 28.201 58.8757C30.3782 59.4978 26.9124 58.9201 26.9124 58.9201C26.9124 58.9201 23.9354 57.7649 23.6688 57.0095C23.4022 56.2542 22.9134 57.8537 22.9134 57.8537C22.9134 57.8537 20.2919 61.0529 19.5809 61.1418C18.87 61.2307 19.5365 60.9641 19.5365 60.9641Z" fill="#384A53"/>
<path d="M34.5095 42.835C34.5095 42.835 49.3058 24.884 54.5045 21.2404C54.7267 21.1071 54.6822 21.3737 54.6822 21.3737C54.6822 21.3737 44.8625 34.1261 35.0427 42.9683C33.9319 43.9903 34.5095 42.835 34.5095 42.835Z" fill="white"/>
</svg>
