<svg width="76" height="75" viewBox="0 0 76 75" fill="none" xmlns="http://www.w3.org/2000/svg">
<mask id="mask0_5010_4136" style="mask-type:luminance" maskUnits="userSpaceOnUse" x="7" y="4" width="63" height="68">
<path d="M48.2725 5.81427C43.8367 8.42277 41.215 13.1234 41.215 18.0888C41.215 20.6973 42.261 23.319 43.5719 25.6627C44.6179 27.7548 45.1343 31.4093 41.4798 33.2366C38.8713 34.799 35.4683 33.753 33.9059 31.1445C32.3434 29.0524 30.5162 26.9603 28.1593 25.3978C23.7235 22.7893 18.4933 22.7893 14.0575 25.3978C9.62174 28.0063 7 32.7202 7 37.6856C7 42.651 9.60849 47.3516 14.0575 49.9601C18.4933 52.5686 23.7235 52.5686 28.1593 49.9601C30.5162 48.6492 32.3434 46.5703 33.6411 44.2134C34.6871 42.3862 37.5604 40.0292 41.215 42.1213C43.8235 43.6838 44.6047 47.0868 43.3071 49.6952C41.9962 52.0522 41.215 54.6607 41.215 57.2691C41.215 62.2346 43.8235 66.9351 48.2725 69.5436C52.7082 72.1521 57.9385 72.1521 62.3742 69.5436C66.81 66.9351 69.4317 62.2346 69.4317 57.2691C69.4317 52.3037 66.8232 47.6032 62.3742 44.9947C60.0173 43.6838 57.4088 43.1674 54.5355 43.1674C52.1786 43.1674 49.0537 41.6049 49.0537 37.6856C49.0537 34.5474 51.4106 32.2038 54.5355 32.2038C57.144 32.2038 60.0173 31.6874 62.3742 30.3765C66.81 27.768 69.4317 23.0674 69.4317 18.102C69.4317 13.1366 66.8232 8.43601 62.3742 5.82751C60.2821 4.51664 57.6736 4.00024 55.3167 4.00024C52.9731 3.987 50.3513 4.51664 48.2725 5.81427Z" fill="white"/>
</mask>
<g mask="url(#mask0_5010_4136)">
<path d="M38.3418 -27.3555L103.634 38.2012L38.3418 103.493L-27.2148 38.2012L38.3418 -27.3555Z" fill="url(#paint0_linear_5010_4136)"/>
</g>
<defs>
<linearGradient id="paint0_linear_5010_4136" x1="19.5144" y1="19.372" x2="66.4446" y2="66.3022" gradientUnits="userSpaceOnUse">
<stop stop-color="#11AAE2"/>
<stop offset="0.594" stop-color="#0880B7"/>
<stop offset="1" stop-color="#016197"/>
</linearGradient>
</defs>
</svg>
