<svg width="76" height="75" viewBox="0 0 76 75" fill="none" xmlns="http://www.w3.org/2000/svg">
<path d="M37.75 71.5C56.3896 71.5 71.5 56.3896 71.5 37.75C71.5 19.1104 56.3896 4 37.75 4C19.1104 4 4 19.1104 4 37.75C4 56.3896 19.1104 71.5 37.75 71.5Z" fill="#008FBB"/>
<path fill-rule="evenodd" clip-rule="evenodd" d="M59.0167 39.5071C57.9473 39.5071 57.0803 38.7203 57.0803 37.75V35.9908H47.3519C46.2824 35.9908 45.4155 35.204 45.4155 34.2337C45.4155 33.2634 46.2824 32.4766 47.3519 32.4766H59.0167C60.0862 32.4766 60.9531 33.2634 60.9531 34.2337V37.75C60.9531 38.7203 60.0883 39.5071 59.0167 39.5071ZM49.4212 39.5071H53.2919C54.3613 39.5071 55.2283 40.2939 55.2283 41.2642C55.2283 42.2345 54.3634 43.0235 53.2919 43.0235H47.3519C47.0434 43.0243 46.7387 42.9565 46.4596 42.8252L35.1702 35.9908H31.9176C30.8481 35.9908 29.9812 35.204 29.9812 34.2337C29.9812 33.2634 30.846 32.4766 31.9176 32.4766H35.7883C36.2059 32.4766 36.592 32.5968 36.9084 32.8014L47.9446 39.5092L49.4212 39.5071ZM35.7883 39.5071C36.8577 39.5071 37.7247 40.2939 37.7247 41.2642C37.7247 42.2345 36.8577 43.0235 35.7883 43.0235H31.9176C31.6091 43.0242 31.3044 42.9565 31.0253 42.8252L19.7359 35.9908H16.4833C15.4138 35.9908 14.5469 35.204 14.5469 34.2337C14.5469 33.2634 15.4117 32.4766 16.4833 32.4766H20.354C20.7508 32.4751 21.1396 32.5879 21.4741 32.8014L32.5103 39.5092L35.7883 39.5071ZM16.4833 39.5071H20.354C21.4234 39.5071 22.2904 40.2939 22.2904 41.2663C22.2904 42.2367 21.4234 43.0235 20.354 43.0235H16.4833C15.4138 43.0235 14.5469 42.2367 14.5469 41.2663C14.5469 40.296 15.4117 39.5071 16.4833 39.5071Z" fill="white"/>
</svg>
