<svg width="58" height="58" viewBox="0 0 58 58" fill="none" xmlns="http://www.w3.org/2000/svg">
<path d="M7.52412 0.363281C6.51709 0.363214 5.73435 1.14777 5.73435 2.1548V21.9052C6.26955 21.8011 6.83591 21.8851 7.35982 22.0975C7.4437 22.1316 7.52549 22.1702 7.60802 22.2111C7.73113 16.8078 7.58782 6.41175 7.5381 3.15106C7.52796 2.59979 7.97057 2.15299 8.52388 2.15305L54.8447 2.15655C55.3978 2.15672 55.8461 2.60499 55.8462 3.15805V30.0466C56.1036 29.9536 56.3935 29.8966 56.7376 29.8945C57.0518 29.8927 57.3544 29.949 57.636 30.0501V2.1583C57.636 1.15127 56.8532 0.366845 55.8462 0.366777L7.52412 0.363281ZM10.2018 3.94283C9.69053 3.94276 9.3103 4.32296 9.3104 4.83422L9.3139 23.7964C9.82878 24.612 10.1672 25.6656 10.2053 26.925L10.2071 26.9268V26.9286V26.9303V26.9321V26.9339V26.9357V26.9375V26.9393V26.9411V26.9429V26.9447V26.9465V26.9482V26.95V26.9518L10.2053 26.9536V30.7918C10.2053 30.9417 10.2844 31.126 10.5636 31.4648C10.8091 31.7627 11.1824 32.1295 11.5948 32.5816L36.4524 32.5886C36.4456 31.5 36.9676 30.4328 37.9835 29.8463C39.4728 28.9863 41.3988 29.5072 42.2586 30.9963L43.3143 32.8263V24.5364H35.2621C34.7672 24.5344 34.3678 24.1312 34.3707 23.6362C34.3726 23.1447 34.7706 22.7468 35.2621 22.7448H43.3143C43.3143 21.273 44.5324 20.0567 46.0042 20.0567C47.4761 20.0567 48.6854 21.273 48.6854 22.7448H51.3613C51.8528 22.7467 52.2508 23.1447 52.2527 23.6362C52.2556 24.1312 51.8562 24.5345 51.3613 24.5364H48.6854V28.2785C49.0273 28.1513 49.1275 28.1366 49.5838 28.1089C50.8408 28.1157 51.6398 28.9521 51.8385 29.3621C51.9504 29.2698 52.4775 29.0032 53.1651 29.0073C53.4992 29.0093 53.7944 29.067 54.0565 29.1576L54.053 4.83946C54.0529 4.3282 53.6728 3.9481 53.1616 3.94807L10.2018 3.94283ZM46.0042 7.52762C47.4761 7.52762 48.6854 8.73693 48.6854 10.2088H51.3736C51.8685 10.2107 52.2679 10.614 52.2649 11.1089C52.2631 11.6004 51.8651 11.9984 51.3736 12.0003H48.6854C48.6854 13.4721 47.4761 14.6815 46.0042 14.6815C44.5324 14.6815 43.3143 13.4721 43.3143 12.0003H35.2621C34.7706 11.9984 34.3726 11.6004 34.3707 11.1089C34.3678 10.614 34.7672 10.2107 35.2621 10.2088H43.3143C43.3143 8.73693 44.5324 7.52762 46.0042 7.52762ZM46.0042 9.31739C45.493 9.31739 45.1041 9.69752 45.1041 10.2088V12.0003C45.1041 12.5115 45.493 12.8987 46.0042 12.8987C46.5155 12.8987 46.8922 12.5115 46.8956 12.0003V10.2088C46.8956 9.69752 46.5155 9.31739 46.0042 9.31739ZM20.9474 10.2053C26.3734 10.2053 30.7912 14.6231 30.7912 20.049V23.6286C30.794 24.1269 30.3893 24.5316 29.891 24.5287H11.9968C11.5019 24.5267 11.1025 24.1235 11.1054 23.6286V20.049C11.1054 14.6231 15.5214 10.2053 20.9474 10.2053ZM20.049 12.0457C18.4929 12.2172 17.073 12.8294 15.9154 13.7551L16.5149 14.3546C16.8667 14.7045 16.8667 15.2737 16.5149 15.6235C16.1659 15.9706 15.602 15.9706 15.253 15.6235L14.65 15.0205C13.7246 16.1792 13.1145 17.6006 12.9441 19.1576H13.7866C14.2781 19.1595 14.6761 19.5575 14.678 20.049C14.6799 20.5432 14.2808 20.9455 13.7866 20.9474H12.8952V22.7372H17.3679C17.3679 20.7709 18.9811 19.1576 20.9474 19.1576C21.3685 19.1576 21.7736 19.2318 22.1499 19.3674L23.8942 17.6318C24.062 17.463 24.2905 17.3679 24.5287 17.3679C24.7645 17.3697 24.99 17.4647 25.1562 17.6318C25.5033 17.9809 25.5033 18.5446 25.1562 18.8937L23.6496 20.3986C24.1955 21.0277 24.5287 21.8458 24.5287 22.7372H28.9996V20.9474H28.1083C27.6113 20.9494 27.2079 20.546 27.2099 20.049C27.2118 19.5548 27.614 19.1557 28.1083 19.1576H28.9507C28.7802 17.6006 28.1702 16.1792 27.2448 15.0205L26.6418 15.6235C26.292 15.9753 25.7228 15.9753 25.3729 15.6235C25.0212 15.2737 25.0212 14.7045 25.3729 14.3546L25.9759 13.7516C24.8173 12.8262 23.3959 12.2161 21.8388 12.0457V12.8952C21.8368 13.3867 21.4389 13.7847 20.9474 13.7866C20.4532 13.7885 20.051 13.3894 20.049 12.8952V12.0457ZM38.8416 13.7901C40.3135 13.7901 41.5316 14.9994 41.5316 16.4712H51.3736C51.8685 16.4732 52.2679 16.8764 52.2649 17.3714C52.2631 17.8628 51.8651 18.2608 51.3736 18.2628H41.5316C41.5316 19.7346 40.3135 20.9509 38.8416 20.9509C37.3698 20.9509 36.1605 19.7346 36.1605 18.2628H35.2621C34.7706 18.2609 34.3726 17.8628 34.3707 17.3714C34.3679 16.8764 34.7672 16.4732 35.2621 16.4712H36.1605C36.1605 14.9994 37.3698 13.7901 38.8416 13.7901ZM38.8416 15.5798C38.3304 15.5798 37.9503 15.96 37.9503 16.4712V18.2628C37.9503 18.774 38.3304 19.1611 38.8416 19.1611C39.3529 19.1611 39.7418 18.774 39.7418 18.2628V16.4712C39.7418 15.96 39.3529 15.5798 38.8416 15.5798ZM3.94982 18.8465C2.69111 19.2663 1.78423 20.0797 1.22845 20.9929C0.577879 22.0618 0.363281 23.2361 0.363281 24.2176V31.8346C0.363281 33.419 1.08201 35.366 1.7563 37.2581C2.09351 38.2042 2.42619 39.1213 2.66866 39.8868C2.91117 40.6525 3.04444 41.3009 3.04444 41.5246V44.9066C3.5207 44.4769 4.15005 44.2145 4.83597 44.2145H17.3679C17.7791 44.2145 18.1683 44.3085 18.5179 44.4766C18.6698 43.8639 18.9789 43.0293 19.3289 42.0472C19.74 40.8937 20.167 39.521 20.2955 37.952H13.7866C13.7847 38.4435 13.3867 38.8415 12.8952 38.8434C12.401 38.8454 11.9987 38.4462 11.9968 37.952C11.9934 35.9577 11.2594 34.8964 10.4308 33.9617C10.0164 33.4944 9.57322 33.0809 9.18281 32.6072C8.79236 32.1334 8.41551 31.5361 8.41551 30.7912V26.9792C8.38101 25.8384 8.03988 25.0292 7.57306 24.4396C7.25208 24.0687 6.95322 23.8633 6.68516 23.7544C6.32558 23.6083 6.06012 23.6464 5.94583 23.709C5.83151 23.7715 5.73435 23.8331 5.73435 24.263V30.7964C5.73336 31.2913 5.33089 31.6915 4.83597 31.6895C4.34378 31.6877 3.94556 31.2886 3.94457 30.7964C3.94109 26.8112 3.94507 22.8315 3.94982 18.8465ZM20.9474 20.9474C19.9483 20.9474 19.1576 21.7381 19.1576 22.7372H22.7372C22.7372 21.7381 21.9465 20.9474 20.9474 20.9474ZM46.0042 21.8423C45.493 21.8423 45.1007 22.2294 45.1041 22.7407V36.164C45.0906 37.0667 43.9006 37.3828 43.4402 36.6062L40.7118 31.8836C40.3323 31.2263 39.5322 31.0146 38.8749 31.3942C38.2184 31.7731 38.0449 32.54 38.4134 33.2783L44.7668 46.0077H55.9459C56.12 45.1961 56.4944 44.4688 56.818 43.7408C57.2555 42.7565 57.636 41.7801 57.636 40.6367V34.3742V32.5844C57.636 32.0732 57.223 31.6896 56.7376 31.6861C56.2596 31.6826 55.8462 32.0732 55.8462 32.5844V34.3742C55.8462 35.5677 54.0565 35.5677 54.0565 34.3742V32.5844V31.6861C54.0565 31.1748 53.6764 30.7947 53.1651 30.7947C52.6538 30.7947 52.2649 31.1748 52.2649 31.6861V34.3742C52.2649 35.5677 50.4752 35.5677 50.4752 34.3742V31.6861V30.7947C50.4752 30.2834 50.095 29.8945 49.5838 29.8945C49.0726 29.8945 48.6854 30.2834 48.6854 30.7947V34.3742C48.6854 35.5677 46.8956 35.5677 46.8956 34.3742V30.7947V22.7407C46.8956 22.2294 46.5155 21.8423 46.0042 21.8423ZM12.9022 34.3707C13.1836 34.8904 13.4229 35.4835 13.5821 36.1605L37.8489 36.164L36.9557 34.3742L12.9022 34.3707ZM3.94283 46.0025C2.95129 46.0025 2.15305 46.8008 2.15305 47.7923V55.8462C2.15305 56.8377 2.95129 57.636 3.94283 57.636H18.261C19.2525 57.636 20.0508 56.8377 20.0508 55.8462V47.7923C20.0508 46.8008 19.2525 46.0025 18.261 46.0025H3.94283ZM45.1076 47.7206C44.1162 47.7071 43.3178 48.5188 43.3178 49.5104V55.8462C43.3178 56.8378 44.1161 57.636 45.1076 57.636H55.8462C56.8378 57.636 57.636 56.8378 57.636 55.8462V49.6537C57.636 48.6622 56.8377 47.8771 55.8462 47.8639L45.1076 47.7206Z" fill="url(#paint0_linear_5016_5531)"/>
<defs>
<linearGradient id="paint0_linear_5016_5531" x1="22.6145" y1="82.1931" x2="82.5631" y2="27.8734" gradientUnits="userSpaceOnUse">
<stop stop-color="#FF1717"/>
<stop offset="1" stop-color="#FF6461"/>
</linearGradient>
</defs>
</svg>
