<svg width="58" height="44" viewBox="0 0 58 44" fill="none" xmlns="http://www.w3.org/2000/svg">
<path d="M37.2066 30.1614C37.7646 31.5542 38.568 32.7642 39.576 33.7721C41.4908 35.6869 44.1344 36.8703 47.0569 36.8703C49.9772 36.8703 52.6232 35.6844 54.5377 33.7721C56.4525 31.8573 57.636 29.2113 57.636 26.2912C57.636 23.3685 56.4525 20.7224 54.5401 18.8079C53.1305 17.4006 51.3264 16.3879 49.2673 15.9429C48.548 15.789 47.8119 15.712 47.0566 15.712C44.1363 15.712 41.4903 16.8979 39.5758 18.8103C37.774 20.612 36.617 23.0632 36.4871 25.82C36.4823 25.9812 36.4775 26.1352 36.4775 26.2915C36.4775 27.6579 36.7373 28.964 37.2088 30.162L37.2066 30.1614ZM4.88389 12.6779C4.54471 12.6779 4.26808 12.4013 4.26808 12.0621C4.26808 11.7229 4.54471 11.4463 4.88389 11.4463H9.59866C9.93783 11.4463 10.2145 11.7229 10.2145 12.0621C10.2145 12.4013 9.93783 12.6779 9.59866 12.6779H4.88389ZM4.88389 8.80741C4.54471 8.80741 4.26808 8.53078 4.26808 8.1916C4.26808 7.85243 4.54471 7.57579 4.88389 7.57579H9.59866C9.93783 7.57579 10.2145 7.85243 10.2145 8.1916C10.2145 8.53078 9.93783 8.80741 9.59866 8.80741H4.88389ZM4.88389 4.93692C4.54471 4.93692 4.26808 4.66029 4.26808 4.32111C4.26808 3.98193 4.54471 3.7053 4.88389 3.7053H9.59866C9.93783 3.7053 10.2145 3.98193 10.2145 4.32111C10.2145 4.66029 9.93783 4.93692 9.59866 4.93692H4.88389ZM46.4388 18.1935C46.4388 17.8543 46.7154 17.5777 47.0546 17.5777C47.3938 17.5777 47.6704 17.8543 47.6704 18.1935V19.8004H50.3093C50.6485 19.8004 50.9251 20.077 50.9251 20.4162C50.9251 20.7554 50.6485 21.032 50.3093 21.032H47.6704V25.6747H47.7618C48.6302 25.6747 49.4216 26.0307 49.9941 26.6032C50.569 27.1781 50.9251 27.9695 50.9251 28.8379V29.6173C50.9251 30.4857 50.569 31.2771 49.9965 31.8496C49.424 32.4245 48.6326 32.7805 47.7618 32.7805H47.6704V34.3874C47.6704 34.7266 47.3938 35.0032 47.0546 35.0032C46.7154 35.0032 46.4388 34.7266 46.4388 34.3874V32.7805H43.7999C43.4607 32.7805 43.1841 32.5039 43.1841 32.1647C43.1841 31.8255 43.4607 31.5489 43.7999 31.5489H46.4388V26.9062H46.3474C45.4982 26.9062 44.7237 26.5646 44.1319 25.9969C43.5401 25.4051 43.1817 24.6137 43.1817 23.7429V22.9635C43.1817 22.0927 43.5377 21.2989 44.1102 20.7288C44.6827 20.1563 45.4741 19.8003 46.3449 19.8003H46.4363V18.1934L46.4388 18.1935ZM47.6704 26.9084V31.5511H47.7618C48.291 31.5511 48.7745 31.3322 49.1257 30.9834C49.4769 30.6346 49.6934 30.1511 49.6934 29.6195V28.8401C49.6934 28.3085 49.4769 27.825 49.1281 27.4738C48.7793 27.125 48.2934 26.9085 47.7618 26.9085L47.6704 26.9084ZM46.4388 25.6768V21.0342H46.3474C45.8158 21.0342 45.3323 21.2531 44.9835 21.6019C44.6347 21.9507 44.4158 22.4342 44.4158 22.9658V23.7451C44.4158 24.2767 44.6347 24.7602 44.9979 25.1259C45.3587 25.4747 45.8302 25.6768 46.3474 25.6768L46.4388 25.6768ZM48.7962 14.6088V3.59876C48.7962 2.80979 48.4714 2.09292 47.9518 1.5709C47.4322 1.05131 46.713 0.726562 45.924 0.726562H3.23351C2.44454 0.726562 1.72767 1.0513 1.20565 1.5709C0.686058 2.09049 0.363712 2.80973 0.363712 3.59876V25.1663H35.2943C35.5613 22.3543 36.8122 19.8285 38.7005 17.9404C40.8366 15.8043 43.7906 14.4812 47.0521 14.4812C47.6439 14.4812 48.226 14.5245 48.7937 14.6087L48.7962 14.6088ZM35.2434 26.3985H0.363281V26.9277C0.363281 27.7167 0.688023 28.436 1.20522 28.9556C1.72481 29.4752 2.44404 29.7999 3.23308 29.7999H35.7701C35.4357 28.7247 35.2505 27.582 35.2408 26.3986L35.2434 26.3985ZM37.0259 9.62755C36.6891 9.67566 36.3764 9.44474 36.3283 9.10796C36.2802 8.77119 36.5111 8.45847 36.8479 8.41037L40.1459 7.92205C40.4826 7.87394 40.7953 8.10487 40.8434 8.44164L41.3318 11.7396C41.3799 12.0764 41.1489 12.3891 40.8122 12.4372C40.4754 12.4853 40.1627 12.2544 40.1146 11.9176L39.8452 10.1063L33.5233 18.7806C33.4775 18.8551 33.4174 18.9225 33.3404 18.973C33.059 19.1631 32.6765 19.0885 32.4865 18.807L27.6851 11.6846L25.6885 13.6812C25.6404 13.7245 25.5875 13.7629 25.5273 13.7942C25.2242 13.9458 24.8562 13.8231 24.7047 13.52L22.0971 8.30481L17.4015 19.2139L17.3245 19.3438C17.1177 19.6132 16.7328 19.6637 16.4634 19.4593L13.2761 17.0321L10.1032 19.1465C9.88674 19.2885 9.59567 19.2837 9.38156 19.1129L7.2936 17.4411L3.47126 21.415C3.23552 21.6579 2.84824 21.6675 2.60284 21.4318C2.35989 21.1961 2.35026 20.8088 2.586 20.5634L6.79562 16.1853C7.02655 15.9472 7.40182 15.9352 7.64717 16.1541L9.7953 17.8716L12.9609 15.762C13.1846 15.6128 13.4709 15.6321 13.6729 15.786L16.5812 18.0015L21.4885 6.60411C21.6232 6.29139 21.984 6.14706 22.2967 6.28177C22.4507 6.34913 22.5662 6.4718 22.6239 6.61614L25.4215 12.2065L27.3435 10.2845C27.5841 10.044 27.9738 10.044 28.2143 10.2845L28.3082 10.4072L33.0181 17.3954L38.8779 9.35601L37.0281 9.63024L37.0259 9.62755ZM32.9966 40.7956H16.1604C15.8356 40.7956 15.5373 40.9231 15.3016 41.1444C15.0635 41.3825 14.924 41.6928 14.924 42.032C14.924 42.3712 15.0635 42.6815 15.2872 42.9052C15.5085 43.1289 15.8188 43.2685 16.158 43.2685H32.9943C33.3214 43.2685 33.6197 43.141 33.8506 42.9197C34.0888 42.6815 34.2283 42.3712 34.2283 42.032C34.2283 41.6928 34.0888 41.3825 33.865 41.1588C33.6413 40.9351 33.3334 40.7956 32.9918 40.7956H32.9966ZM26.2227 31.0319H22.9368L21.4935 39.564H27.6682L26.2249 31.0319H26.2227Z" fill="url(#paint0_linear_5016_5536)"/>
<defs>
<linearGradient id="paint0_linear_5016_5536" x1="22.6145" y1="61.5093" x2="66.4913" y2="7.98586" gradientUnits="userSpaceOnUse">
<stop stop-color="#FF1717"/>
<stop offset="1" stop-color="#FF6461"/>
</linearGradient>
</defs>
</svg>
