<svg width="60" height="60" viewBox="0 0 60 60" fill="none" xmlns="http://www.w3.org/2000/svg">
<path d="M8.01616 46.5117H26.3818C26.8271 46.5117 27.1883 46.1504 27.1883 45.7052C27.1883 45.26 26.8271 44.8988 26.3818 44.8988H8.94627V31.1406H15.4839C16.702 33.8645 19.407 35.6181 22.3893 35.6181C25.3737 35.6181 28.0786 33.8645 29.2969 31.1406H35.8115V34.9041C35.8115 35.3493 36.1727 35.7105 36.6179 35.7105C37.0631 35.7105 37.4244 35.3493 37.4244 34.9041V31.0755C38.7895 30.7563 39.7555 29.5403 39.7576 28.1395V27.9841C39.7555 26.5833 38.7894 25.3673 37.4244 25.0481V11.1072C38.7895 10.788 39.7555 9.57409 39.7576 8.17123V8.01582C39.7555 6.35248 38.4072 5.0021 36.7418 5H8.01584C6.35249 5.0021 5.00211 6.35248 5.00001 8.01582V8.17123C5.00211 9.57414 5.96819 10.788 7.33325 11.1072V25.0331C5.96814 25.3523 5.00211 26.5662 5.00001 27.967V28.1245C4.99581 29.5316 5.964 30.7539 7.33325 31.0752V44.978C5.96814 45.2972 5.00211 46.5132 5.00001 47.9139V48.0694C5.00211 49.7348 6.35249 51.0831 8.01584 51.0852H25.1025C25.5477 51.0852 25.9089 50.7239 25.9089 50.2787C25.9089 49.8335 25.5477 49.4723 25.1025 49.4723H8.01584C7.24089 49.4723 6.61292 48.8443 6.61292 48.0694V47.9139C6.61292 47.139 7.24089 46.511 8.01584 46.511L8.01616 46.5117ZM22.377 34.0052C19.966 34.0052 17.7903 32.5519 16.8684 30.3257C15.9464 28.0974 16.4546 25.5331 18.1599 23.8278C19.8652 22.1225 22.4295 21.6121 24.6578 22.5341C26.886 23.4582 28.3394 25.6318 28.3394 28.0428C28.3394 31.3358 25.6701 34.0052 22.377 34.0052ZM22.377 20.4675C19.3969 20.4759 16.7001 22.2315 15.4845 24.9512H8.94681V11.1829H35.8287V24.9475H29.2867C28.0665 22.2236 25.3615 20.4696 22.377 20.4675ZM38.1448 27.967V28.1245C38.1448 28.4962 37.9978 28.8532 37.7353 29.1158C37.4707 29.3783 37.1137 29.5274 36.7419 29.5274H29.8074C30.0007 28.5487 30.0007 27.5428 29.8074 26.5641H36.7419C37.1136 26.5641 37.4706 26.7132 37.7353 26.9757C37.9978 27.2382 38.1448 27.5952 38.1448 27.967ZM6.61346 8.17116V8.01575C6.61346 7.2408 7.24142 6.61284 8.01637 6.61284H36.7423C37.114 6.61284 37.4711 6.75985 37.7357 7.02446C37.9982 7.28698 38.1452 7.64398 38.1452 8.01576V8.17117C38.1431 8.94402 37.5152 9.56988 36.7423 9.56988H8.01638C7.24353 9.56988 6.61556 8.94401 6.61346 8.17116ZM6.61346 28.1223V27.9669C6.61346 27.192 7.24142 26.564 8.01637 26.564H14.9471C14.7538 27.5427 14.7538 28.5486 14.9471 29.5273H8.01637C7.24142 29.5273 6.61346 28.8993 6.61346 28.1244V28.1223Z" fill="url(#paint0_linear_5011_4247)"/>
<path d="M52.7307 45.9469C52.632 45.5983 52.3128 45.3588 51.9495 45.361H48.0957L47.703 43.9476C47.5707 43.5276 47.1317 43.2902 46.7075 43.41C46.2875 43.5381 46.048 43.9812 46.1698 44.4034L46.4387 45.3862H35.1483L36.9376 38.9663H38.2061L38.2082 38.9684C38.6534 38.9684 39.0147 38.6072 39.0147 38.1619C39.0147 37.7167 38.6534 37.3555 38.2082 37.3555H36.3265C35.9652 37.3576 35.6481 37.5991 35.5515 37.9477L33.4556 45.3612H29.6018C29.2406 45.3591 28.9235 45.6006 28.8269 45.9471L26.5839 53.98C26.5167 54.2215 26.5671 54.4819 26.7183 54.6814C26.8716 54.8809 27.1068 55.0006 27.3588 55.0006H54.1923C54.4443 55.0006 54.6795 54.883 54.8329 54.6835C54.9862 54.484 55.0366 54.2215 54.9673 53.98L52.7307 45.9469ZM28.4236 53.3878L30.2129 46.9738H37.9226L39.714 53.3878H28.4236ZM39.6006 46.9738H41.9548L40.7766 51.1951L39.6006 46.9738ZM41.8267 53.3878L43.616 46.9738H51.3381L53.1169 53.3878H41.8267Z" fill="url(#paint1_linear_5011_4247)"/>
<path d="M40.9636 37.8435C43.1141 38.6437 44.1894 39.7147 44.5653 41.5145V41.5166C44.643 41.8779 44.9581 42.1425 45.3298 42.1551C45.6973 42.1656 46.025 41.9283 46.13 41.5755C46.7054 39.5866 47.6505 38.5765 49.6246 37.8435C49.9459 37.7301 50.1622 37.4256 50.1622 37.0853C50.1622 36.7451 49.9459 36.4427 49.6246 36.3335C47.6505 35.5963 46.7054 34.5862 46.13 32.6015C46.0292 32.2571 45.7141 32.0177 45.355 32.0156C44.9854 32.0261 44.6704 32.2886 44.5926 32.6499C44.2062 34.456 43.1561 35.5208 40.9909 36.3272C40.6696 36.4385 40.4533 36.7409 40.4533 37.0811C40.447 37.4172 40.6507 37.7196 40.9636 37.8435ZM45.3823 34.9621C45.8906 35.8441 46.613 36.5855 47.4846 37.1126C46.6172 37.6335 45.8948 38.3643 45.3823 39.2359C44.8384 38.3496 44.076 37.6188 43.1667 37.1126C44.0781 36.5981 44.8426 35.8568 45.3823 34.9621Z" fill="url(#paint2_linear_5011_4247)"/>
<path d="M54.4731 26.8017C51.9509 25.8609 50.7097 24.5063 49.9515 21.963C49.8486 21.6102 49.5168 21.3749 49.1513 21.398C48.7796 21.4127 48.4667 21.6753 48.3869 22.0386C47.8807 24.3887 46.5325 25.7705 43.7245 26.808L43.7266 26.8059C43.4074 26.9214 43.1953 27.226 43.1953 27.5641C43.1953 27.9043 43.4074 28.2067 43.7266 28.3223C46.5325 29.3598 47.8829 30.7416 48.389 33.0959L48.3869 33.098C48.4667 33.4592 48.7817 33.7196 49.1513 33.7322C49.5084 33.7301 49.8234 33.4928 49.9242 33.1505C50.6614 30.6135 51.9236 29.2589 54.4458 28.3118C54.7672 28.1984 54.9835 27.896 54.9835 27.5536C54.9877 27.2218 54.784 26.9214 54.4731 26.8017ZM49.2102 30.645C48.473 29.3114 47.3474 28.234 45.9843 27.5536C47.3474 26.8752 48.4709 25.8 49.2102 24.4684C49.8927 25.7789 50.9533 26.8521 52.2533 27.5536C50.9512 28.255 49.8907 29.3324 49.2102 30.645Z" fill="url(#paint3_linear_5011_4247)"/>
<path d="M21.7038 23.676C21.2523 24.3585 19.0156 27.8637 19.0156 29.4491V29.4512C19.087 31.2657 20.5803 32.6981 22.3948 32.6981C24.2093 32.6981 25.7004 31.2657 25.7739 29.4512C25.7739 27.8656 23.5205 24.3604 23.0858 23.6781V23.676C22.9303 23.4471 22.672 23.3105 22.3948 23.3105C22.1175 23.3105 21.8592 23.4471 21.7038 23.676ZM22.3821 31.2029H22.38C21.414 31.2071 20.6243 30.43 20.6117 29.4619C20.6117 28.8696 21.4392 27.2042 22.38 25.6438C23.3146 27.2021 24.1441 28.8696 24.1441 29.4619C24.1378 30.4321 23.3503 31.2155 22.38 31.2155L22.3821 31.2029Z" fill="url(#paint4_linear_5011_4247)"/>
<defs>
<linearGradient id="paint0_linear_5011_4247" x1="39.7576" y1="22.89" x2="4.85287" y2="23.5271" gradientUnits="userSpaceOnUse">
<stop stop-color="#012442"/>
<stop offset="1"/>
</linearGradient>
<linearGradient id="paint1_linear_5011_4247" x1="54.9978" y1="44.2052" x2="26.4682" y2="45.3182" gradientUnits="userSpaceOnUse">
<stop stop-color="#012442"/>
<stop offset="1"/>
</linearGradient>
<linearGradient id="paint2_linear_5011_4247" x1="50.1622" y1="35.9518" x2="40.414" y2="36.1777" gradientUnits="userSpaceOnUse">
<stop stop-color="#012442"/>
<stop offset="1"/>
</linearGradient>
<linearGradient id="paint3_linear_5011_4247" x1="54.9835" y1="26.1851" x2="43.1478" y2="26.4589" gradientUnits="userSpaceOnUse">
<stop stop-color="#012442"/>
<stop offset="1"/>
</linearGradient>
<linearGradient id="paint4_linear_5011_4247" x1="25.7739" y1="26.9547" x2="18.9868" y2="27.073" gradientUnits="userSpaceOnUse">
<stop stop-color="#012442"/>
<stop offset="1"/>
</linearGradient>
</defs>
</svg>
