<svg width="60" height="60" viewBox="0 0 60 60" fill="none" xmlns="http://www.w3.org/2000/svg">
<path d="M17.5013 40.4167C16.4712 40.4167 15.4642 40.1112 14.6077 39.5389C13.7512 38.9666 13.0836 38.1532 12.6894 37.2015C12.2952 36.2498 12.1921 35.2026 12.393 34.1922C12.594 33.1819 13.0901 32.2539 13.8185 31.5255C14.5469 30.7971 15.4749 30.301 16.4852 30.1001C17.4955 29.8991 18.5427 30.0023 19.4944 30.3965C20.4461 30.7907 21.2596 31.4582 21.8319 32.3147C22.4042 33.1712 22.7096 34.1782 22.7096 35.2083C22.7096 36.5897 22.1609 37.9144 21.1842 38.8912C20.2074 39.8679 18.8826 40.4167 17.5013 40.4167ZM17.5013 32.0833C16.8832 32.0833 16.2791 32.2666 15.7651 32.61C15.2512 32.9534 14.8507 33.4414 14.6142 34.0125C14.3777 34.5835 14.3158 35.2118 14.4364 35.818C14.5569 36.4242 14.8546 36.981 15.2916 37.418C15.7286 37.8551 16.2855 38.1527 16.8916 38.2733C17.4978 38.3939 18.1262 38.332 18.6972 38.0955C19.2682 37.8589 19.7563 37.4584 20.0996 36.9445C20.443 36.4306 20.6263 35.8264 20.6263 35.2083C20.6263 34.3795 20.2971 33.5847 19.711 32.9986C19.125 32.4126 18.3301 32.0833 17.5013 32.0833Z" fill="url(#paint0_linear_5016_5575)"/>
<path d="M27.9154 54.9996H25.832V46.6663C25.8029 46.2471 25.6644 45.8429 25.4305 45.4938C25.1966 45.1447 24.8753 44.863 24.4987 44.6767C19.961 43.1035 15.0259 43.1035 10.4883 44.6767C10.1143 44.8652 9.79567 45.1478 9.56375 45.4966C9.33183 45.8453 9.19455 46.2484 9.16536 46.6663V54.9996H7.08203V46.6663C7.11777 45.8259 7.38726 45.0121 7.8602 44.3165C8.33314 43.6209 8.99076 43.0711 9.75911 42.7288C14.7722 40.9888 20.2252 40.9888 25.2383 42.7288C26.0066 43.0711 26.6643 43.6209 27.1372 44.3165C27.6101 45.0121 27.8796 45.8259 27.9154 46.6663V54.9996Z" fill="url(#paint1_linear_5016_5575)"/>
<path d="M13.3333 47.709H11.25V55.0007H13.3333V47.709Z" fill="url(#paint2_linear_5016_5575)"/>
<path d="M23.7513 47.709H21.668V55.0007H23.7513V47.709Z" fill="url(#paint3_linear_5016_5575)"/>
<path d="M42.5013 40.4167C41.4712 40.4167 40.4642 40.1112 39.6077 39.5389C38.7512 38.9666 38.0836 38.1532 37.6894 37.2015C37.2952 36.2498 37.1921 35.2026 37.393 34.1922C37.594 33.1819 38.0901 32.2539 38.8185 31.5255C39.5469 30.7971 40.4749 30.301 41.4852 30.1001C42.4955 29.8991 43.5427 30.0023 44.4944 30.3965C45.4461 30.7907 46.2596 31.4582 46.8319 32.3147C47.4042 33.1712 47.7096 34.1782 47.7096 35.2083C47.7096 35.8923 47.5749 36.5696 47.3132 37.2015C47.0514 37.8334 46.6678 38.4075 46.1842 38.8912C45.7005 39.3748 45.1264 39.7585 44.4944 40.0202C43.8625 40.2819 43.1853 40.4167 42.5013 40.4167ZM42.5013 32.0833C41.8832 32.0833 41.2791 32.2666 40.7651 32.61C40.2512 32.9534 39.8507 33.4414 39.6142 34.0125C39.3777 34.5835 39.3158 35.2118 39.4364 35.818C39.5569 36.4242 39.8546 36.981 40.2916 37.418C40.7286 37.8551 41.2855 38.1527 41.8916 38.2733C42.4978 38.3939 43.1262 38.332 43.6972 38.0955C44.2682 37.8589 44.7563 37.4584 45.0996 36.9445C45.443 36.4306 45.6263 35.8264 45.6263 35.2083C45.6263 34.3795 45.2971 33.5847 44.711 32.9986C44.125 32.4126 43.3301 32.0833 42.5013 32.0833Z" fill="url(#paint4_linear_5016_5575)"/>
<path d="M52.9154 54.9996H50.832V46.6663C50.8029 46.2471 50.6644 45.8429 50.4305 45.4938C50.1966 45.1447 49.8753 44.863 49.4987 44.6767C44.961 43.1035 40.0259 43.1035 35.4883 44.6767C35.1143 44.8652 34.7957 45.1478 34.5638 45.4966C34.3318 45.8453 34.1945 46.2484 34.1654 46.6663V54.9996H32.082V46.6663C32.1178 45.8259 32.3873 45.0121 32.8602 44.3165C33.3331 43.6209 33.9908 43.0711 34.7591 42.7288C39.7722 40.9888 45.2252 40.9888 50.2383 42.7288C51.0066 43.0711 51.6643 43.6209 52.1372 44.3165C52.6101 45.0121 52.8796 45.8259 52.9154 46.6663V54.9996Z" fill="url(#paint5_linear_5016_5575)"/>
<path d="M38.3333 47.709H36.25V55.0007H38.3333V47.709Z" fill="url(#paint6_linear_5016_5575)"/>
<path d="M48.7513 47.709H46.668V55.0007H48.7513V47.709Z" fill="url(#paint7_linear_5016_5575)"/>
<path d="M49.7917 34.1667H48.75V32.0833H49.7917C50.6205 32.0833 51.4153 31.7541 52.0014 31.168C52.5874 30.582 52.9167 29.7871 52.9167 28.9583V10.2083C52.9167 9.37953 52.5874 8.58468 52.0014 7.99862C51.4153 7.41257 50.6205 7.08333 49.7917 7.08333H10.2083C9.37953 7.08333 8.58468 7.41257 7.99862 7.99862C7.41257 8.58468 7.08333 9.37953 7.08333 10.2083V28.9583C7.08333 29.7871 7.41257 30.582 7.99862 31.168C8.58468 31.7541 9.37953 32.0833 10.2083 32.0833H11.25V34.1667H10.2083C8.827 34.1667 7.50224 33.6179 6.52549 32.6412C5.54873 31.6644 5 30.3397 5 28.9583V10.2083C5 8.827 5.54873 7.50224 6.52549 6.52549C7.50224 5.54873 8.827 5 10.2083 5L49.7917 5C50.4756 5 51.1529 5.13472 51.7848 5.39646C52.4167 5.6582 52.9909 6.04185 53.4745 6.52549C53.9582 7.00912 54.3418 7.58329 54.6035 8.21519C54.8653 8.84709 55 9.52436 55 10.2083V28.9583C55 29.6423 54.8653 30.3196 54.6035 30.9515C54.3418 31.5834 53.9582 32.1575 53.4745 32.6412C52.9909 33.1248 52.4167 33.5085 51.7848 33.7702C51.1529 34.0319 50.4756 34.1667 49.7917 34.1667Z" fill="url(#paint8_linear_5016_5575)"/>
<path d="M27.9167 39.8027V34.1673H23.75V32.084H30V34.7819L32.6979 32.084H36.25V34.1673H33.5521L27.9167 39.8027Z" fill="url(#paint9_linear_5016_5575)"/>
<path d="M46.668 25.7402H24.793V23.6569H44.5846V15.4173H38.3346V13.334H46.668V25.7402Z" fill="url(#paint10_linear_5016_5575)"/>
<path d="M28.3125 29.6966L23.375 24.7487L28.3125 19.8008L29.7917 21.2695L26.3125 24.7487L29.7917 28.2174L28.3125 29.6966Z" fill="url(#paint11_linear_5016_5575)"/>
<path d="M21.6654 25.834H13.332V13.334H35.207V15.4173H15.4154V23.7507H21.6654V25.834Z" fill="url(#paint12_linear_5016_5575)"/>
<path d="M31.6901 19.2806L30.2109 17.8014L33.6901 14.3327L30.2109 10.8535L31.6901 9.38477L36.6276 14.3327L31.6901 19.2806Z" fill="url(#paint13_linear_5016_5575)"/>
<defs>
<linearGradient id="paint0_linear_5016_5575" x1="22.7096" y1="34.0437" x2="12.2515" y2="34.2968" gradientUnits="userSpaceOnUse">
<stop stop-color="#012442"/>
<stop offset="1"/>
</linearGradient>
<linearGradient id="paint1_linear_5016_5575" x1="27.9154" y1="46.6939" x2="7.0157" y2="47.4701" gradientUnits="userSpaceOnUse">
<stop stop-color="#012442"/>
<stop offset="1"/>
</linearGradient>
<linearGradient id="paint2_linear_5016_5575" x1="13.3333" y1="50.5396" x2="11.2406" y2="50.554" gradientUnits="userSpaceOnUse">
<stop stop-color="#012442"/>
<stop offset="1"/>
</linearGradient>
<linearGradient id="paint3_linear_5016_5575" x1="23.7513" y1="50.5396" x2="21.6586" y2="50.554" gradientUnits="userSpaceOnUse">
<stop stop-color="#012442"/>
<stop offset="1"/>
</linearGradient>
<linearGradient id="paint4_linear_5016_5575" x1="47.7096" y1="34.0437" x2="37.2515" y2="34.2968" gradientUnits="userSpaceOnUse">
<stop stop-color="#012442"/>
<stop offset="1"/>
</linearGradient>
<linearGradient id="paint5_linear_5016_5575" x1="52.9154" y1="46.6939" x2="32.0157" y2="47.4701" gradientUnits="userSpaceOnUse">
<stop stop-color="#012442"/>
<stop offset="1"/>
</linearGradient>
<linearGradient id="paint6_linear_5016_5575" x1="38.3333" y1="50.5396" x2="36.2406" y2="50.554" gradientUnits="userSpaceOnUse">
<stop stop-color="#012442"/>
<stop offset="1"/>
</linearGradient>
<linearGradient id="paint7_linear_5016_5575" x1="48.7513" y1="50.5396" x2="46.6586" y2="50.554" gradientUnits="userSpaceOnUse">
<stop stop-color="#012442"/>
<stop offset="1"/>
</linearGradient>
<linearGradient id="paint8_linear_5016_5575" x1="55" y1="16.3223" x2="4.85793" y2="18.4027" gradientUnits="userSpaceOnUse">
<stop stop-color="#012442"/>
<stop offset="1"/>
</linearGradient>
<linearGradient id="paint9_linear_5016_5575" x1="36.25" y1="35.0804" x2="23.7122" y2="35.5718" gradientUnits="userSpaceOnUse">
<stop stop-color="#012442"/>
<stop offset="1"/>
</linearGradient>
<linearGradient id="paint10_linear_5016_5575" x1="46.668" y1="18.15" x2="24.733" y2="19.0861" gradientUnits="userSpaceOnUse">
<stop stop-color="#012442"/>
<stop offset="1"/>
</linearGradient>
<linearGradient id="paint11_linear_5016_5575" x1="29.7917" y1="23.6423" x2="23.3473" y2="23.7434" gradientUnits="userSpaceOnUse">
<stop stop-color="#012442"/>
<stop offset="1"/>
</linearGradient>
<linearGradient id="paint12_linear_5016_5575" x1="35.207" y1="18.1864" x2="13.2715" y2="19.1155" gradientUnits="userSpaceOnUse">
<stop stop-color="#012442"/>
<stop offset="1"/>
</linearGradient>
<linearGradient id="paint13_linear_5016_5575" x1="36.6276" y1="13.2263" x2="30.1832" y2="13.3274" gradientUnits="userSpaceOnUse">
<stop stop-color="#012442"/>
<stop offset="1"/>
</linearGradient>
</defs>
</svg>
