<svg width="60" height="60" viewBox="0 0 60 60" fill="none" xmlns="http://www.w3.org/2000/svg">
<path d="M33.4725 47.165C37.0074 47.165 40.005 45.6843 42.146 42.876C44.5211 39.7638 44.9544 36.1504 43.4228 32.1331C42.1354 28.749 39.667 25.7072 37.5298 23.521C38.1247 23.1046 38.5113 22.4227 38.5113 21.6452C38.5113 20.651 37.8782 19.8077 36.9902 19.4912C37.1729 19.198 37.4172 18.8262 37.7996 18.2824C38.6154 17.1161 39.2867 15.918 38.643 15.0852C38.0376 14.3035 36.8055 14.3863 34.0927 15.3848C34.0141 15.4124 33.9716 15.4188 33.9482 15.423C33.8654 15.3572 33.7039 15.1065 33.5977 14.9344C33.1091 14.1527 32.2997 12.8419 29.9969 12.8419C27.6941 12.8419 26.8784 14.1505 26.3962 14.9344C26.2899 15.1065 26.1349 15.3614 26.0456 15.423C26.0244 15.423 25.9798 15.4124 25.9012 15.3848C23.1884 14.3799 21.9563 14.3035 21.3508 15.0852C20.7072 15.918 21.3785 17.1161 22.1942 18.2824C22.5766 18.8262 22.8209 19.1916 23.0036 19.4912C22.122 19.8077 21.4826 20.651 21.4826 21.6452C21.4826 22.4227 21.8713 23.1046 22.464 23.521C20.3269 25.7069 17.8584 28.749 16.5711 32.1331C15.0458 36.1502 15.4728 39.7636 17.8478 42.876C19.9891 45.6844 22.9929 47.1714 26.5279 47.1714L33.4726 47.1692L33.4725 47.165ZM23.777 22.3592C23.384 22.3592 23.0611 22.0363 23.0611 21.6433C23.0611 21.2503 23.384 20.9274 23.777 20.9274H36.2297C36.6227 20.9274 36.9456 21.2503 36.9456 21.6433C36.9456 22.0363 36.6227 22.3592 36.2297 22.3592H23.777ZM25.3639 16.8551C26.7341 17.3607 27.3608 16.3622 27.7326 15.7568C28.166 15.0622 28.5696 14.4036 30.0014 14.4036C31.4332 14.4036 31.839 15.0579 32.2702 15.7568C32.642 16.3559 33.2644 17.3607 34.6389 16.8551C36.1642 16.29 36.9141 16.1498 37.2582 16.1286C37.169 16.3495 36.965 16.7383 36.5147 17.3777C35.8434 18.3379 35.5205 18.8371 35.2762 19.3533L24.7269 19.3512C24.4763 18.8286 24.1619 18.3358 23.4885 17.3756C23.0381 16.7319 22.8384 16.3495 22.745 16.1265C23.0891 16.1498 23.8387 16.2879 25.3639 16.8551ZM19.1055 41.9203C17.081 39.267 16.7241 36.1589 18.0455 32.686C19.3774 29.1851 22.1242 26.0219 24.2827 23.9233H35.7309C37.8893 26.02 40.636 29.1789 41.9681 32.686C43.2894 36.1593 42.9346 39.2675 40.9081 41.9203C39.0705 44.3229 36.5022 45.5933 33.4771 45.5933H26.5411C23.5118 45.5996 20.941 44.3293 19.1055 41.9203ZM11.407 17.5925C13.3211 14.7183 15.8193 12.3815 18.8276 10.644C23.6669 7.85261 29.2774 6.97525 34.7157 8.15216L33.3943 6.23178C33.15 5.87701 33.2392 5.3884 33.594 5.13775C33.9488 4.89345 34.4374 4.98267 34.688 5.33744L37.1969 8.97219C37.3307 9.16126 37.369 9.39919 37.3074 9.62223C37.2458 9.84317 37.097 10.028 36.8846 10.1278L32.8951 12.0206C32.7847 12.0716 32.6742 12.0992 32.5574 12.0992C32.2642 12.0992 31.9795 11.9335 31.8478 11.6489C31.6651 11.2601 31.8266 10.7885 32.2196 10.6058L34.2334 9.65198C29.2285 8.60891 24.0665 9.43105 19.6114 11.9994C16.8137 13.6139 14.4961 15.7892 12.7135 18.4596C12.5627 18.6869 12.3141 18.8101 12.0592 18.8101C11.9084 18.8101 11.7597 18.7655 11.6258 18.6762C11.2626 18.4362 11.1691 17.9537 11.407 17.5925ZM18.683 48.3805C18.5321 48.6078 18.2836 48.731 18.0287 48.731C17.8779 48.731 17.7292 48.6864 17.5953 48.5971C14.7211 46.6831 12.3843 44.1849 10.6468 41.1766C7.8554 36.3373 6.97804 30.7268 8.15495 25.2885L6.23457 26.6099C5.87981 26.8542 5.3912 26.765 5.14054 26.4102C4.88987 26.0554 4.98546 25.5668 5.34023 25.3162L8.97499 22.8073C9.16405 22.6735 9.40198 22.6352 9.62503 22.6968C9.84596 22.7584 10.0308 22.9071 10.1306 23.1196L12.0234 27.1091C12.2061 27.4978 12.0447 27.9694 11.6517 28.1521C11.5412 28.2031 11.4307 28.2307 11.3139 28.2307C11.0207 28.2307 10.7361 28.065 10.6044 27.7804L9.65054 25.7665C8.60747 30.7715 9.42961 35.9378 11.9979 40.3885C13.6125 43.1863 15.7878 45.5039 18.4581 47.2865C18.8214 47.5308 18.9209 48.0194 18.683 48.3805ZM48.6002 42.4092C46.6862 45.2835 44.188 47.6202 41.1796 49.3577C37.7446 51.344 33.9103 52.3594 30.0311 52.3594C28.4506 52.3594 26.8616 52.1937 25.2917 51.8496L26.6131 53.7636C26.8574 54.1183 26.7681 54.607 26.4134 54.8576C26.2795 54.9511 26.1245 54.9957 25.9694 54.9957C25.7187 54.9957 25.4765 54.8788 25.3257 54.6579L22.8169 51.0232C22.683 50.8341 22.6448 50.5962 22.7064 50.3731C22.768 50.1522 22.9167 49.9674 23.1291 49.8675L27.1186 47.9747C27.5116 47.792 27.979 47.9577 28.1617 48.3465C28.3444 48.7352 28.1829 49.2068 27.7899 49.3896L25.7761 50.3434C30.781 51.3864 35.9474 50.5643 40.3981 47.996C43.1958 46.3815 45.5135 44.2061 47.296 41.5358C47.534 41.1747 48.0225 41.0748 48.3837 41.3191C48.7448 41.5655 48.8382 42.048 48.6002 42.4092ZM54.6591 34.6786L51.0243 37.1875C50.8905 37.2767 50.7354 37.3256 50.5803 37.3256C50.5145 37.3256 50.4422 37.3149 50.3742 37.298C50.1533 37.2363 49.9685 37.0876 49.8687 36.8752L47.9759 32.8857C47.7932 32.497 47.9546 32.0254 48.3476 31.8426C48.7406 31.66 49.208 31.8257 49.3907 32.2144L50.3445 34.2283C51.3876 29.2233 50.5654 24.057 47.9971 19.6063C46.3826 16.8085 44.2073 14.4909 41.5369 12.7083C41.1758 12.4704 41.076 11.9818 41.3203 11.6206C41.5582 11.2595 42.0468 11.1597 42.4079 11.404C45.2822 13.318 47.6189 15.8162 49.3564 18.8245C52.1478 23.6638 53.0252 29.2743 51.8483 34.7126L53.7687 33.3912C54.1234 33.1469 54.612 33.2362 54.8627 33.5909C55.1091 33.9457 55.0138 34.4343 54.6591 34.6786ZM27.7285 43.4969C27.7285 43.9302 28.079 44.2786 28.5103 44.2786H31.4844C31.9178 44.2786 32.2661 43.9281 32.2661 43.4969V42.6195C32.8992 42.441 33.5046 42.1925 34.0761 41.8696L34.6985 42.492C35.0044 42.7979 35.5036 42.7979 35.8074 42.492L37.9105 40.3889C38.2164 40.083 38.2164 39.5838 37.9105 39.28L37.2881 38.6576C37.611 38.0861 37.8596 37.4807 38.038 36.8476H38.9154C39.3487 36.8476 39.6971 36.4971 39.6971 36.0659V33.0918C39.6971 32.6584 39.3466 32.31 38.9154 32.31H38.0508C37.8723 31.6769 37.6238 31.0716 37.3009 30.5001L37.9233 29.8777C38.0741 29.7332 38.1506 29.5335 38.1506 29.3232C38.1506 29.1172 38.0678 28.9175 37.9233 28.7688L35.8202 26.6657C35.6694 26.5149 35.476 26.4384 35.2658 26.4384C35.0555 26.4384 34.86 26.5212 34.7113 26.6657L34.0889 27.2881C33.5174 26.9652 32.912 26.7167 32.279 26.5382V25.6609C32.279 25.2275 31.9285 24.8791 31.4972 24.8791H28.5231C28.0897 24.8791 27.7414 25.2296 27.7414 25.6609V26.5382C27.1083 26.7167 26.5029 26.9652 25.9314 27.2881L25.309 26.6657C25.0031 26.3598 24.5039 26.3598 24.2001 26.6657L22.097 28.7688C21.7911 29.0747 21.7911 29.574 22.097 29.8777L22.7194 30.5002C22.3965 31.0716 22.1479 31.6771 21.9695 32.3101H21.0921C20.6588 32.3101 20.3104 32.6606 20.3104 33.0918V36.0659C20.3104 36.4993 20.6609 36.8477 21.0921 36.8477H21.9695C22.148 37.4808 22.3965 38.0862 22.7194 38.6576L22.097 39.28C21.7911 39.5859 21.7911 40.0852 22.097 40.389L24.2001 42.4921C24.506 42.798 25.0052 42.798 25.309 42.4921L25.9314 41.8697C26.5029 42.1926 27.1083 42.4411 27.7414 42.6195L27.7392 43.4969L27.7285 43.4969ZM26.2415 40.2275C25.9313 40.0214 25.515 40.0618 25.2537 40.3273L24.7544 40.8329L23.7603 39.8388L24.2658 39.3332C24.5314 39.0676 24.5718 38.6555 24.3657 38.3454C23.8728 37.6082 23.533 36.7861 23.3609 35.9194C23.2886 35.554 22.9678 35.2863 22.5897 35.2863H21.8802V33.8757H22.5897C22.9615 33.8757 23.2843 33.6102 23.3609 33.2426C23.5329 32.3716 23.8707 31.5559 24.3657 30.8167C24.5718 30.5065 24.5314 30.0902 24.2658 29.8288L23.7666 29.3296L24.7608 28.3354L25.26 28.8347C25.5256 29.1002 25.9377 29.1406 26.2478 28.9345C26.985 28.4417 27.8071 28.1018 28.6738 27.9297C29.0392 27.8574 29.3069 27.5367 29.3069 27.1585V26.449H30.7175V27.1585C30.7175 27.5303 30.983 27.8531 31.3506 27.9297C32.2216 28.1017 33.0373 28.4395 33.7765 28.9345C34.0867 29.1406 34.503 29.1002 34.7644 28.8347L35.2636 28.3354L36.2578 29.3296L35.7585 29.8288C35.493 30.0944 35.4526 30.5065 35.6587 30.8167C36.1515 31.5538 36.4914 32.3759 36.6635 33.2426C36.7358 33.608 37.0565 33.8757 37.4347 33.8757H38.1442V35.2863H37.4347C37.0629 35.2863 36.74 35.5518 36.6635 35.9194C36.4915 36.7904 36.1537 37.6061 35.6587 38.3454C35.4526 38.6555 35.493 39.0719 35.7585 39.3332L36.2578 39.8324L35.2636 40.8266L34.7644 40.3273C34.4988 40.0618 34.0867 40.0214 33.7765 40.2275C33.0394 40.7203 32.2173 41.0602 31.3506 41.2323C30.9852 41.3046 30.7175 41.6253 30.7175 42.0035V42.713H29.3069V42.0035C29.3069 41.6317 29.0414 41.3089 28.6738 41.2323C27.8007 41.0603 26.9786 40.7225 26.2415 40.2275ZM35.4311 34.5787C35.4311 31.5877 32.9945 29.151 30.0034 29.151C27.0123 29.151 24.5757 31.5877 24.5757 34.5787C24.5757 37.5698 27.0123 40.0064 30.0034 40.0064C32.9945 40.0064 35.4311 37.5698 35.4311 34.5787ZM26.1414 34.5787C26.1414 32.448 27.8727 30.7167 30.0035 30.7167C32.1342 30.7167 33.8655 32.448 33.8655 34.5787C33.8655 36.7095 32.1342 38.4408 30.0035 38.4408C27.8727 38.4408 26.1414 36.7052 26.1414 34.5787ZM30.0035 38.1242C29.5701 38.1242 29.2217 37.7737 29.2217 37.3425V37.198C28.8946 37.0812 28.5993 36.8645 28.389 36.5714C28.1341 36.2208 28.2106 35.728 28.5674 35.4773C28.918 35.2224 29.4108 35.2989 29.6615 35.6558C29.6785 35.677 29.7273 35.7344 29.8123 35.7344H30.1182C30.218 35.7344 30.3009 35.6515 30.3009 35.5517C30.3009 35.4519 30.2181 35.369 30.1182 35.369H29.9015C28.935 35.369 28.1489 34.5809 28.1489 33.6164C28.1489 32.8899 28.5929 32.2674 29.226 32.0019V31.8234C29.226 31.3901 29.5765 31.0417 30.0077 31.0417C30.4411 31.0417 30.7895 31.3922 30.7895 31.8234V31.9679C31.1166 32.0847 31.4119 32.3014 31.6222 32.5945C31.8771 32.945 31.8006 33.4379 31.4438 33.6886C31.0932 33.9435 30.6004 33.867 30.3497 33.5101C30.3327 33.4889 30.2839 33.4315 30.1989 33.4315H29.893C29.7932 33.4315 29.7103 33.5144 29.7103 33.6142C29.7103 33.7141 29.7932 33.7969 29.893 33.7969H30.1097C31.0762 33.7969 31.8623 34.585 31.8623 35.5495C31.8623 36.276 31.4183 36.8985 30.7852 37.164V37.3425C30.7852 37.7695 30.4368 38.1242 30.0035 38.1242Z" fill="url(#paint0_linear_5016_5577)"/>
<defs>
<linearGradient id="paint0_linear_5016_5577" x1="55" y1="24.408" x2="4.80102" y2="25.623" gradientUnits="userSpaceOnUse">
<stop stop-color="#012442"/>
<stop offset="1"/>
</linearGradient>
</defs>
</svg>
