<svg width="60" height="60" viewBox="0 0 60 60" fill="none" xmlns="http://www.w3.org/2000/svg">
<path d="M23.8754 43.6676C23.8754 43.6676 21.9657 44.7789 25.2363 45.1538C29.199 45.6065 31.2241 45.5416 35.5898 44.7164C35.5898 44.7164 36.74 45.4355 38.3432 46.0588C28.5529 50.2531 16.1867 45.8156 23.8754 43.6676ZM22.6784 38.1934C22.6784 38.1934 20.536 39.7793 23.8093 40.1183C28.0425 40.5553 31.3847 40.591 37.171 39.4773C37.171 39.4773 37.9694 40.2885 39.2269 40.7316C27.3923 44.1928 14.2109 41.004 22.6784 38.1934Z" fill="#0074BD"/>
<path d="M32.7665 28.9044C35.1802 31.6826 32.1336 34.1803 32.1336 34.1803C32.1336 34.1803 38.2584 31.0192 35.4462 27.0588C32.8186 23.3673 30.8044 21.5337 41.7096 15.209C41.7096 15.2094 24.5914 19.4834 32.7665 28.9044Z" fill="#EA2D2E"/>
<path d="M45.7122 47.7195C45.7122 47.7195 47.1259 48.8852 44.1547 49.7862C38.5054 51.4976 20.6369 52.0135 15.6742 49.8547C13.8911 49.0783 17.2362 48.0019 18.2885 47.7748C19.3858 47.5372 20.0123 47.5805 20.0123 47.5805C18.0281 46.1836 7.18783 50.3246 14.5068 51.5124C34.4653 54.7477 50.8884 50.0554 45.7122 47.7195ZM24.7963 32.5226C24.7963 32.5226 15.7083 34.6815 21.5783 35.4662C24.0572 35.7979 28.9966 35.7218 33.6008 35.3356C37.3624 35.0196 41.1373 34.3446 41.1373 34.3446C41.1373 34.3446 39.8121 34.913 38.8523 35.5676C29.6216 37.9956 11.794 36.8647 16.9269 34.3826C21.2662 32.2839 24.7963 32.5226 24.7963 32.5226ZM41.0997 41.6351C50.4822 36.761 46.1436 32.0767 43.1155 32.7077C42.3752 32.8619 42.0431 32.9961 42.0431 32.9961C42.0431 32.9961 42.3187 32.5639 42.8443 32.378C48.8345 30.2728 53.4406 38.5885 40.9122 41.8823C40.9122 41.8815 41.056 41.7513 41.0997 41.6351Z" fill="#0074BD"/>
<path d="M35.4385 5C35.4385 5 40.6335 10.1982 30.5099 18.189C22.3912 24.6011 28.6587 28.2562 30.507 32.4341C25.7675 28.1584 22.2911 24.394 24.623 20.8907C28.0473 15.7494 37.534 13.2556 35.4385 5Z" fill="#EA2D2E"/>
<path d="M25.7179 54.843C34.7218 55.4187 48.5522 54.5225 48.8795 50.2617C48.8795 50.2617 48.2502 51.877 41.4375 53.1585C33.7516 54.6055 24.2701 54.4368 18.6484 53.5086C18.6484 53.509 19.8002 54.4624 25.7179 54.843Z" fill="#0074BD"/>
</svg>
