<svg width="35" height="27" viewBox="0 0 35 27" fill="none" xmlns="http://www.w3.org/2000/svg">
<path d="M34.36 10C34.36 16.56 30.84 22.24 25.24 26.24L20.12 22.08C22.68 20.8 26.04 17.36 26.84 14.48C26.52 14.56 25.8 14.72 25 14.72C21.64 14.72 18.84 12.08 18.84 8.16C18.84 4.08 22.2 0.720002 26.2 0.720002C30.52 0.720002 34.36 4.16 34.36 10ZM16.36 10C16.36 16.56 12.84 22.24 7.24 26.24L2.12 22.08C4.68 20.8 7.96 17.36 8.84 14.48C8.52 14.56 7.8 14.72 7 14.72C3.56 14.72 0.839998 12.08 0.839998 8.16C0.839998 4.08 4.2 0.720002 8.12 0.720002C12.44 0.720002 16.36 4.16 16.36 10Z" fill="#FD1716"/>
</svg>
