<svg width="60" height="60" viewBox="0 0 60 60" fill="none" xmlns="http://www.w3.org/2000/svg">
<path d="M34.0161 10.5728C31.9177 8.08307 30.1107 5.55427 29.7415 5.02916C29.7327 5.01995 29.7222 5.01261 29.7105 5.0076C29.6988 5.00259 29.6862 5 29.6735 5C29.6607 5 29.6481 5.00259 29.6364 5.0076C29.6248 5.01261 29.6142 5.01995 29.6054 5.02916C29.2363 5.55437 27.4292 8.08307 25.3307 10.5728C7.3187 33.5449 28.1676 49.0478 28.1676 49.0478L28.3424 49.1645C28.4978 51.557 28.8865 55 28.8865 55H30.441C30.441 55 30.8295 51.5765 30.985 49.1646L31.1599 49.0284C31.1793 49.0479 52.0282 33.545 34.0161 10.5728ZM29.6637 48.6976C29.6637 48.6976 28.731 47.9002 28.4784 47.4918V47.4527L29.6054 22.4382C29.6054 22.3604 29.7221 22.3604 29.7221 22.4382L30.849 47.4527V47.4918C30.5964 47.9002 29.6637 48.6977 29.6637 48.6977" fill="#01EC64"/>
</svg>
