<svg width="55" height="55" viewBox="0 0 55 55" fill="none" xmlns="http://www.w3.org/2000/svg">
<path fill-rule="evenodd" clip-rule="evenodd" d="M24.1372 16.9362C23.9372 16.669 23.9913 16.2903 24.2585 16.0904C24.5257 15.8904 24.9027 15.9445 25.1043 16.2117L27.1221 18.9016L30.9004 14.438C31.1168 14.1823 31.4987 14.1512 31.7528 14.3675C32.0085 14.5839 32.0396 14.9658 31.8233 15.2199L27.5548 20.2621H27.5532C27.3056 20.5539 26.8418 20.5457 26.609 20.2343L24.1372 16.9362ZM40.8795 21.4569C40.2566 20.6209 39.0617 20.4471 38.2257 21.0716L33.7605 24.4024C33.1605 24.8499 32.8933 25.6023 33.0392 26.3121C31.7016 26.2842 30.4608 26.4137 29.3183 26.7055C29.2822 26.7153 29.2478 26.7268 29.215 26.7416C28.5118 27.03 27.8201 27.3792 27.1414 27.7906C26.5481 27.5857 25.0236 27.071 22.9238 26.4563C23.1418 25.7089 22.8795 24.8811 22.2386 24.4041L17.7733 21.0733C16.9373 20.4504 15.7424 20.6225 15.1195 21.4585L8.37441 30.4986C7.74661 31.3509 7.93019 32.5377 8.76126 33.1524L13.2068 36.4684C13.633 36.7995 14.1772 36.9143 14.6771 36.829L15.7852 38.442L15.7573 38.4698C14.346 39.8812 15.5065 41.9285 17.1293 42.0465C17.108 43.1382 18.0063 44.1184 19.0963 44.2201C19.0439 45.4544 20.1749 46.5461 21.4059 46.4362C21.5469 47.3246 22.3091 47.9754 23.2107 47.9754V47.9721C23.6795 47.9721 24.1483 47.7951 24.504 47.441L25.7038 46.2411L26.7988 47.3361C28.0413 48.5786 29.8182 47.8312 30.2755 46.4625C31.4393 47.0264 32.7998 46.2772 33.1588 45.0839C34.4046 45.5708 35.7897 44.6216 35.9684 43.3365C37.7124 43.5119 39.191 41.2876 37.6666 39.7631L37.4748 39.5714C38.4878 38.6747 39.7188 37.5109 40.54 36.5028C41.2072 36.9765 42.1366 36.9782 42.7939 36.4651L47.2394 33.1491C48.0705 32.5327 48.2525 31.3476 47.6263 30.4953L40.8795 21.4569ZM39.7337 35.5782C38.9518 36.5863 37.5897 37.8648 36.58 38.7533C35.6735 37.9943 33.2016 35.8913 29.2986 32.3279C29.1265 32.1624 28.8626 32.1083 28.6315 32.2132C28.6298 32.2148 28.0577 32.4689 26.0219 33.4655C25.4219 33.6638 24.9302 33.6179 24.5696 33.436C23.9729 33.1344 23.6025 32.3361 24.127 31.7903C25.1498 30.7281 26.3612 29.7003 27.5398 28.9692C28.2315 28.5332 28.9363 28.1677 29.6543 27.8726C30.8853 27.5644 32.2491 27.4595 33.7457 27.5579L39.7337 35.5782ZM46.6412 31.2031C46.7593 31.3736 46.8134 31.5211 46.7838 31.7326C46.7543 31.9326 46.6593 32.0703 46.4986 32.1948L42.0514 35.5125C41.7596 35.7338 41.3252 35.6797 41.0925 35.3732L34.3457 26.3314C34.1228 26.0315 34.1818 25.5987 34.485 25.3725L38.9503 22.0417C39.2519 21.8171 39.683 21.8794 39.9092 22.181L46.6412 31.2031ZM35.4884 10.912H35.4867C35.4867 10.6596 35.3277 10.4235 35.0736 10.3399L28.1825 8.03198C28.0628 7.991 27.9268 7.98772 27.7973 8.03198L20.9523 10.3235C20.6868 10.3891 20.4917 10.6268 20.4917 10.912V17.9785C20.4917 20.1455 21.2834 22.1387 22.5931 23.6796C23.9175 25.2401 25.7747 26.3383 27.8762 26.6891C27.9434 26.7022 28.0156 26.7039 28.0893 26.6924C32.3104 26.0023 35.492 22.3077 35.492 17.9784L35.4884 10.912ZM34.277 17.9786V11.3463L27.9893 9.24L21.7033 11.3447V17.9769C21.7033 19.8488 22.3868 21.5667 23.5162 22.8962C24.6439 24.2223 26.2143 25.1632 27.9911 25.4795C29.768 25.1632 31.3383 24.2239 32.466 22.8962C33.5938 21.5685 34.277 19.849 34.277 17.9786ZM16.092 22.1815C16.3166 21.8799 16.7493 21.8177 17.0509 22.0422L21.5162 25.373C21.667 25.4861 21.7588 25.6484 21.7834 25.8221C21.826 26.1106 21.7063 26.2696 21.5506 26.4745L14.9087 35.3736C14.676 35.6818 14.2416 35.7359 13.9498 35.5129L9.50427 32.1969C9.49444 32.1887 9.48296 32.1805 9.47149 32.1723C9.18791 31.9609 9.12726 31.5183 9.33708 31.238L16.092 22.1815ZM22.2748 27.5268C23.8074 27.971 25.0467 28.366 25.8744 28.6398C24.9794 29.2971 24.1074 30.0675 23.2583 30.9477C21.6749 32.5541 23.4435 35.6194 26.4366 34.5998C26.476 34.5867 26.512 34.5703 26.5465 34.5506C27.7021 33.9851 28.3954 33.6556 28.7692 33.4802C33.362 37.6683 35.8978 39.765 36.1782 39.9941L36.8092 40.6252C37.1043 40.9202 37.1371 41.2595 37.019 41.5333C36.8027 42.0398 36.1208 42.4037 35.5749 41.8579L31.7819 38.0648C31.5458 37.8288 31.1606 37.8288 30.9246 38.0648C30.6885 38.3008 30.6885 38.6861 30.9246 38.9221L34.5373 42.5348C35.2684 43.3069 34.08 44.5461 33.2604 43.7249L30.3246 40.7891C30.0886 40.5531 29.705 40.5531 29.4673 40.7891C29.2313 41.0251 29.2313 41.4104 29.4673 41.6464L31.7523 43.9314C32.0474 44.2265 32.0802 44.5658 31.9621 44.8395C31.7458 45.346 31.0639 45.7099 30.518 45.1641L29.11 43.756C28.8739 43.52 28.4904 43.52 28.2527 43.756C28.0166 43.9921 28.0166 44.3773 28.2527 44.6133L28.9313 45.2903C29.6624 46.0623 28.4723 47.2999 27.6544 46.4803L26.5578 45.3854L27.2937 44.6494C28.3625 43.5806 27.7576 42.0496 26.5807 41.6185C27.0249 40.358 26.0316 38.9811 24.7202 38.8598C24.7678 37.7386 23.8367 36.7223 22.7156 36.6403C22.7483 34.9504 20.606 33.621 19.1339 35.093L16.6539 37.573L15.7474 36.2535L15.8933 36.0765L22.2748 27.5268ZM21.8568 44.9216C21.8437 44.9331 21.8322 44.9446 21.8191 44.956C21.5241 45.2511 21.1848 45.2839 20.911 45.1659C20.4029 44.9495 20.0406 44.2676 20.5864 43.7218L23.9632 40.3434C24.2582 40.0484 24.5975 40.0156 24.8713 40.1336C25.3778 40.35 25.7417 41.0319 25.1958 41.5777C25.1368 41.6367 25.0926 41.7056 25.063 41.7793C24.9418 41.8564 24.8237 41.9514 24.709 42.0662L21.9159 44.8593C21.8962 44.879 21.8748 44.9003 21.8568 44.9216ZM23.6451 46.587C23.5239 46.7083 23.3665 46.769 23.2091 46.769V46.7657C22.6518 46.7657 22.3944 46.0936 22.7731 45.715L25.5662 42.9219C25.7744 42.7137 26.0121 42.6891 26.2022 42.7711C26.5546 42.9219 26.8333 43.3989 26.4382 43.7939L23.6451 46.587ZM19.8537 42.7399C19.5587 43.0349 19.2194 43.0677 18.9456 42.9497C18.4391 42.7333 18.0752 42.0515 18.621 41.5056L21.9978 38.1289C22.2928 37.8338 22.6321 37.8011 22.9059 37.9191C23.4124 38.1354 23.7763 38.8173 23.2304 39.3632L19.8537 42.7399ZM17.8474 40.5647C17.5523 40.8581 17.2147 40.8909 16.9409 40.7729C16.4344 40.5565 16.0705 39.8746 16.6164 39.3288L19.9947 35.9504C20.2897 35.6554 20.6291 35.6226 20.9028 35.7406C21.4093 35.957 21.7732 36.6389 21.2274 37.1847L17.8474 40.5647Z" fill="#FD1716"/>
</svg>
