<svg width="55" height="55" viewBox="0 0 55 55" fill="none" xmlns="http://www.w3.org/2000/svg">
<path d="M20.463 22.2564C20.7698 22.4328 21.1558 22.3872 21.4126 22.1436C22.3438 21.2604 23.481 20.6052 24.7018 20.2488C25.043 20.1492 25.2774 19.8364 25.2774 19.4808V17.5844H28.7218V19.4808C28.7218 19.9224 29.0802 20.2808 29.5218 20.2808C29.9634 20.2808 30.3218 19.9224 30.3218 19.4808V16.7844C30.3218 16.3428 29.9634 15.9844 29.5218 15.9844H24.4774C24.0358 15.9844 23.6774 16.3428 23.6774 16.7844V18.9012C22.6202 19.2848 21.6282 19.8564 20.7606 20.582L18.9166 19.5216C18.5346 19.3016 18.0466 19.4324 17.8254 19.814L15.303 24.1704C15.1966 24.354 15.1678 24.5732 15.2226 24.7784C15.2774 24.9836 15.4122 25.1588 15.5966 25.2644L17.4374 26.3232C17.3402 26.8732 17.291 27.4352 17.291 28.0012C17.291 28.5672 17.3402 29.1292 17.4374 29.6792L15.5966 30.738C15.4122 30.844 15.2778 31.0188 15.2226 31.224C15.1674 31.4292 15.1966 31.6484 15.303 31.832L17.8254 36.1884C17.9738 36.4448 18.2422 36.588 18.5186 36.588C18.6538 36.588 18.791 36.5536 18.9166 36.4812L21.2602 35.1328C21.6434 34.9124 21.775 34.4236 21.5546 34.0408C21.3346 33.6576 20.845 33.5256 20.4626 33.7464L18.8102 34.6968L17.0898 31.7252L18.7382 30.7768C19.0466 30.5996 19.201 30.2392 19.1166 29.8936C18.967 29.2816 18.891 28.6448 18.891 28.0016C18.891 27.3584 18.967 26.7216 19.1166 26.1096C19.201 25.7636 19.047 25.4036 18.7382 25.2264L17.0898 24.278L18.8102 21.3064L20.463 22.2564Z" fill="#FD1716"/>
<path d="M38.7761 24.7775C38.8313 24.5723 38.8021 24.3535 38.6957 24.1695L36.1733 19.8131C35.9525 19.4315 35.4645 19.3011 35.0817 19.5207L32.7409 20.8691C32.3581 21.0895 32.2265 21.5787 32.4469 21.9615C32.6673 22.3443 33.1565 22.4759 33.5393 22.2555L35.1893 21.3055L36.9097 24.2771L35.2629 25.2251C34.9545 25.4027 34.8005 25.7627 34.8849 26.1083C35.0345 26.7203 35.1105 27.3571 35.1105 28.0003C35.1105 28.6435 35.0345 29.2803 34.8849 29.8923C34.8005 30.2379 34.9545 30.5979 35.2629 30.7755L36.9097 31.7235L35.1893 34.6951L33.5393 33.7451C33.2325 33.5687 32.8461 33.6143 32.5897 33.8579C31.6589 34.7403 30.5209 35.3967 29.2989 35.7555C28.9581 35.8555 28.7241 36.1679 28.7241 36.5231V38.4175H25.2797V36.5231C25.2797 36.0815 24.9213 35.7231 24.4797 35.7231C24.0381 35.7231 23.6797 36.0815 23.6797 36.5231V39.2175C23.6797 39.6591 24.0381 40.0175 24.4797 40.0175H29.5241C29.9657 40.0175 30.3241 39.6591 30.3241 39.2175V37.1019C31.3817 36.7171 32.3737 36.1447 33.2405 35.4195L35.0821 36.4799C35.4649 36.7003 35.9529 36.5695 36.1737 36.1875L38.6961 31.8311C38.8025 31.6475 38.8313 31.4287 38.7765 31.2231C38.7217 31.0179 38.5873 30.8427 38.4029 30.7367L36.5641 29.6783C36.6613 29.1283 36.7105 28.5659 36.7105 27.9999C36.7105 27.4339 36.6613 26.8715 36.5641 26.3215L38.4029 25.2631C38.5869 25.1579 38.7213 24.9831 38.7761 24.7775Z" fill="#FD1716"/>
<path d="M38.52 12.942C38.9616 12.942 39.32 12.5836 39.32 12.142V8.8C39.32 8.3584 38.9616 8 38.52 8C38.0784 8 37.72 8.3584 37.72 8.8V11.342H35.48V8.8C35.48 8.3584 35.1216 8 34.68 8C34.2384 8 33.88 8.3584 33.88 8.8V11.342H31.64V8.8C31.64 8.3584 31.2816 8 30.84 8C30.3984 8 30.04 8.3584 30.04 8.8V11.342H27.8V8.8C27.8 8.3584 27.4416 8 27 8C26.5584 8 26.2 8.3584 26.2 8.8V11.342H23.96V8.8C23.96 8.3584 23.6016 8 23.16 8C22.7184 8 22.36 8.3584 22.36 8.8V11.342H20.1196V8.8C20.1196 8.3584 19.7612 8 19.3196 8C18.878 8 18.5196 8.3584 18.5196 8.8V11.342H16.2796V8.8C16.2796 8.3584 15.9212 8 15.4796 8C15.038 8 14.6796 8.3584 14.6796 8.8V11.342H11.142C10.7004 11.342 10.342 11.7004 10.342 12.142V15.68H7.8C7.3584 15.68 7 16.0384 7 16.48C7 16.9216 7.3584 17.28 7.8 17.28H10.342V19.52H7.8C7.3584 19.52 7 19.8784 7 20.32C7 20.7616 7.3584 21.12 7.8 21.12H10.342V23.36H7.8C7.3584 23.36 7 23.7184 7 24.16C7 24.6016 7.3584 24.96 7.8 24.96H10.342V27.2H7.8C7.3584 27.2 7 27.5584 7 28C7 28.4416 7.3584 28.8 7.8 28.8H10.342V31.04H7.8C7.3584 31.04 7 31.3984 7 31.84C7 32.2816 7.3584 32.64 7.8 32.64H10.342V34.88H7.8C7.3584 34.88 7 35.2384 7 35.68C7 36.1216 7.3584 36.48 7.8 36.48H10.342V38.72H7.8C7.3584 38.72 7 39.0784 7 39.52C7 39.9616 7.3584 40.32 7.8 40.32H10.342V43.8576C10.342 44.2992 10.7004 44.6576 11.142 44.6576C11.5836 44.6576 11.942 44.2992 11.942 43.8576V12.942H38.52Z" fill="#FD1716"/>
<path d="M46.2001 21.1213C46.6417 21.1213 47.0001 20.7629 47.0001 20.3213C47.0001 19.8797 46.6417 19.5213 46.2001 19.5213H43.6577V17.2814H46.2001C46.6417 17.2814 47.0001 16.9229 47.0001 16.4813C47.0001 16.0398 46.6417 15.6814 46.2001 15.6814H43.6577V12.1438C43.6577 11.7022 43.2993 11.3438 42.8577 11.3438C42.4161 11.3438 42.0577 11.7022 42.0577 12.1438V43.0593H15.4797C15.0381 43.0593 14.6797 43.4177 14.6797 43.8593V47.2014C14.6797 47.6429 15.0381 48.0014 15.4797 48.0014C15.9213 48.0014 16.2797 47.6429 16.2797 47.2014V44.6593H18.5197V47.2014C18.5197 47.6429 18.8781 48.0014 19.3197 48.0014C19.7613 48.0014 20.1197 47.6429 20.1197 47.2014V44.6593H22.3601V47.2014C22.3601 47.6429 22.7185 48.0014 23.1601 48.0014C23.6017 48.0014 23.9601 47.6429 23.9601 47.2014V44.6593H26.2001V47.2014C26.2001 47.6429 26.5585 48.0014 27.0001 48.0014C27.4417 48.0014 27.8001 47.6429 27.8001 47.2014V44.6593H30.0401V47.2014C30.0401 47.6429 30.3985 48.0014 30.8401 48.0014C31.2817 48.0014 31.6401 47.6429 31.6401 47.2014V44.6593H33.8801V47.2014C33.8801 47.6429 34.2385 48.0014 34.6801 48.0014C35.1217 48.0014 35.4801 47.6429 35.4801 47.2014V44.6593H37.7201V47.2014C37.7201 47.6429 38.0785 48.0014 38.5201 48.0014C38.9617 48.0014 39.3201 47.6429 39.3201 47.2014V44.6593H42.8577C43.2993 44.6593 43.6577 44.3009 43.6577 43.8593V40.3214H46.2001C46.6417 40.3214 47.0001 39.9629 47.0001 39.5214C47.0001 39.0798 46.6417 38.7213 46.2001 38.7213H43.6577V36.4813H46.2001C46.6417 36.4813 47.0001 36.1229 47.0001 35.6813C47.0001 35.2397 46.6417 34.8813 46.2001 34.8813H43.6577V32.6413H46.2001C46.6417 32.6413 47.0001 32.2829 47.0001 31.8413C47.0001 31.3997 46.6417 31.0413 46.2001 31.0413H43.6577V28.8013H46.2001C46.6417 28.8013 47.0001 28.4429 47.0001 28.0013C47.0001 27.5597 46.6417 27.2013 46.2001 27.2013H43.6577V24.9613H46.2001C46.6417 24.9613 47.0001 24.603 47.0001 24.1613C47.0001 23.7197 46.6417 23.3614 46.2001 23.3614H43.6577V21.1213H46.2001Z" fill="#FD1716"/>
<path d="M26.9995 33.0064C29.7627 33.0064 32.0103 30.7584 32.0103 27.9952C32.0103 25.232 29.7627 22.9844 26.9995 22.9844C24.2363 22.9844 21.9883 25.232 21.9883 27.9952C21.9883 30.7584 24.2363 33.0064 26.9995 33.0064ZM26.9995 24.5844C28.8803 24.5844 30.4103 26.1144 30.4103 27.9952C30.4103 29.876 28.8803 31.4064 26.9995 31.4064C25.1187 31.4064 23.5883 29.876 23.5883 27.9952C23.5883 26.1144 25.1187 24.5844 26.9995 24.5844Z" fill="#FD1716"/>
</svg>
