<svg width="55" height="55" viewBox="0 0 55 55" fill="none" xmlns="http://www.w3.org/2000/svg">
<path d="M46.1057 12H19.0191C18.6755 12 18.3977 12.2794 18.3977 12.625V25.4169H8.84066C7.8051 25.4169 6.96094 26.266 6.96094 27.3092V31.3892C6.96094 32.4325 7.8051 33.28 8.84066 33.28H9.80878V35.9394L8.84066 35.941C7.80353 35.941 6.96094 36.7901 6.96094 37.8318V41.9117C6.96094 42.955 7.8051 43.8025 8.84066 43.8025H29.1976C30.2347 43.8025 31.0773 42.9534 31.0773 41.9117V40.496H46.1057C46.4493 40.496 46.727 40.2167 46.727 39.871V12.6251C46.727 12.281 46.4494 12 46.1057 12ZM8.20236 31.389V27.309C8.20236 26.9602 8.4942 26.6651 8.84094 26.6651H29.1979C29.5494 26.6651 29.8365 26.9539 29.8365 27.309V31.389C29.8365 31.7426 29.5494 32.0314 29.1979 32.0314H8.84094C8.49575 32.0314 8.20236 31.7362 8.20236 31.389ZM11.0518 33.2798H26.9903V35.9392L11.0518 35.9408V33.2798ZM29.8366 41.9113C29.8366 42.2648 29.5494 42.5536 29.198 42.5536L8.84102 42.5521C8.48956 42.5521 8.20244 42.2632 8.20244 41.9097L8.20401 37.8314C8.20401 37.4778 8.49114 37.189 8.84259 37.189H29.1995C29.551 37.189 29.8381 37.4778 29.8381 37.8314L29.8366 41.9113ZM45.4863 39.2456H31.0777V37.8299C31.0777 36.7866 30.2336 35.9391 29.198 35.9391H28.2315V33.2797H29.198C30.2351 33.2797 31.0777 32.4306 31.0777 31.3889V27.3089C31.0777 26.2641 30.2336 25.415 29.198 25.415L19.6409 25.4166V13.2497H45.4864L45.4863 39.2456ZM10.5232 29.3498C10.5232 29.0042 10.8009 28.7248 11.1445 28.7248H21.7668C22.1105 28.7248 22.3882 29.0042 22.3882 29.3498C22.3882 29.6955 22.1105 29.9749 21.7668 29.9749H11.1445C10.8009 29.9733 10.5232 29.6939 10.5232 29.3498ZM25.1309 29.3498C25.1309 29.0042 25.4087 28.7248 25.7523 28.7248H26.8946C27.2382 28.7248 27.5159 29.0042 27.5159 29.3498C27.5159 29.6955 27.2382 29.9749 26.8946 29.9749H25.7523C25.4102 29.9733 25.1309 29.6939 25.1309 29.3498ZM22.3882 39.8706C22.3882 40.2163 22.1105 40.4956 21.7669 40.4956H11.1446C10.8009 40.4956 10.5232 40.2163 10.5232 39.8706C10.5232 39.525 10.8009 39.2456 11.1446 39.2456H21.7669C22.1105 39.2456 22.3882 39.5265 22.3882 39.8706ZM27.516 39.8706C27.516 40.2163 27.2383 40.4956 26.8947 40.4956H25.7524C25.4088 40.4956 25.131 40.2163 25.131 39.8706C25.131 39.525 25.4088 39.2456 25.7524 39.2456H26.8947C27.2383 39.2456 27.516 39.5265 27.516 39.8706ZM33.2178 25.5903C32.9746 25.3456 32.9746 24.9511 33.2178 24.7064L40.4086 17.4717H34.2064C33.8627 17.4717 33.585 17.1923 33.585 16.8467C33.585 16.501 33.8627 16.2217 34.2064 16.2217H41.9073C42.2509 16.2217 42.5287 16.501 42.5287 16.8467V24.5929C42.5287 24.9386 42.2509 25.2179 41.9073 25.2179C41.5637 25.2179 41.2859 24.9386 41.2859 24.5929L41.2875 18.3554L34.0951 25.5901C33.9743 25.7116 33.8158 25.7732 33.6558 25.7732C33.4973 25.7732 33.3386 25.7118 33.2178 25.5903Z" fill="#FD1716"/>
</svg>
