<svg width="55" height="55" viewBox="0 0 55 55" fill="none" xmlns="http://www.w3.org/2000/svg">
<path d="M47 27.2146C47 26.6383 46.5308 26.1692 45.9545 26.1692H43.7055C43.3604 22.9715 42.1245 19.9899 40.105 17.4806L41.6961 15.8895C41.8933 15.6923 42.0021 15.4288 42.0021 15.15C42.0021 14.8695 41.8933 14.6077 41.6961 14.4105L40.5878 13.3022C40.1798 12.8942 39.5168 12.8942 39.1088 13.3022L37.5177 14.8933C35.0086 12.8738 32.0252 11.6379 28.8291 11.2945V9.04545C28.8291 8.46918 28.36 8 27.7837 8H26.2146C25.6383 8 25.1692 8.46918 25.1692 9.04545V11.2945C21.9715 11.6396 18.9899 12.8755 16.4806 14.8933L14.8895 13.3022C14.6923 13.105 14.4288 12.9962 14.15 12.9962C13.8695 12.9962 13.6077 13.105 13.4105 13.3022L12.3022 14.4105C11.8942 14.8185 11.8942 15.4815 12.3022 15.8895L13.8933 17.4806C11.8738 19.9897 10.6379 22.9731 10.2945 26.1692H8.04545C7.46918 26.1692 7 26.6383 7 27.2146V28.7837C7 29.36 7.46918 29.8291 8.04545 29.8291H10.2945C10.6396 33.0268 11.8755 36.0084 13.8933 38.5177L12.3022 40.1088C11.8942 40.5168 11.8942 41.1798 12.3022 41.5878L13.4105 42.6961C13.6145 42.9001 13.8831 43.0021 14.15 43.0021C14.4186 43.0021 14.6855 42.9001 14.8895 42.6961L16.4806 41.105C18.9897 43.1245 21.9731 44.3604 25.1692 44.7038V46.9529C25.1692 47.5291 25.6383 47.9983 26.2146 47.9983H27.7837C28.36 47.9983 28.8291 47.5291 28.8291 46.9529V44.7038C32.0268 44.3587 35.0084 43.1228 37.5177 41.105L39.1088 42.6961C39.3128 42.9001 39.5797 43.0021 39.8483 43.0021C40.1169 43.0021 40.3838 42.9001 40.5878 42.6961L41.6961 41.5861C42.1041 41.1781 42.1041 40.5151 41.6961 40.1071L40.105 38.516C42.1245 36.0069 43.3604 33.0235 43.7038 29.8274H45.9529C46.5291 29.8274 46.9983 29.3583 46.9983 28.782L47 27.2146ZM39.8481 14.3356L40.6624 15.1499L37.2727 18.5397C37.1554 18.657 37.0891 18.8167 37.0891 18.9833C37.0891 19.1499 37.1554 19.3097 37.2727 19.427L37.6603 19.8146L34.8197 20.1784L35.1834 17.3378L35.571 17.7254C35.8158 17.9702 36.2136 17.9702 36.4584 17.7254L39.8481 14.3356ZM26.4234 14.0467V9.25088H27.5743V14.0467C27.5743 14.2133 27.6406 14.373 27.7579 14.4903C27.8752 14.6076 28.035 14.6739 28.2015 14.6739H28.7489L26.998 16.9383L25.2471 14.6722H25.7944C26.1412 14.6739 26.4234 14.3917 26.4234 14.0467ZM14.1481 14.3356L17.5378 17.7254C17.7826 17.9702 18.1804 17.9702 18.4252 17.7254L18.8128 17.3378L19.1766 20.1784L16.3359 19.8146L16.7235 19.427C16.8408 19.3097 16.9071 19.1499 16.9071 18.9833C16.9071 18.8167 16.8408 18.6569 16.7235 18.5397L13.3338 15.1499L14.1481 14.3356ZM8.25082 27.4235H13.0466C13.2132 27.4235 13.373 27.3572 13.4903 27.2399C13.6076 27.1226 13.6739 26.9628 13.6739 26.7962V26.2489L15.9382 27.9981L13.6722 29.749V29.2017C13.6722 28.8549 13.3917 28.5744 13.0449 28.5744H8.24911L8.25082 27.4235ZM14.1481 41.6607L13.3338 40.8464L16.7235 37.4567C16.8408 37.3394 16.9071 37.1796 16.9071 37.013C16.9071 36.8464 16.8408 36.6866 16.7235 36.5693L16.3359 36.1818L19.1765 35.818L18.8127 38.6586L18.4251 38.271C18.1803 38.0262 17.7825 38.0262 17.5377 38.271L14.1481 41.6607ZM27.5728 41.9497V46.7455H26.4219V41.9497C26.4219 41.7831 26.3556 41.6233 26.2383 41.506C26.121 41.3887 25.9612 41.3224 25.7946 41.3224H25.2472L26.9982 39.0581L28.7491 41.3241H28.2017C27.8549 41.3224 27.5728 41.6046 27.5728 41.9497ZM39.8481 41.6607L36.4584 38.271C36.3411 38.1537 36.1813 38.0874 36.0147 38.0874C35.8481 38.0874 35.6883 38.1537 35.571 38.271L35.1835 38.6586L34.8197 35.818L37.6603 36.1817L37.2727 36.5693C37.0279 36.8141 37.0279 37.2119 37.2727 37.4567L40.6624 40.8465L39.8481 41.6607ZM39.2123 37.625L38.6021 37.0148L38.9897 36.6272C39.2481 36.3688 39.3348 35.9948 39.2158 35.6497C39.0985 35.3063 38.801 35.0649 38.4406 35.019L34.5817 34.5243C34.2893 34.4869 34.0003 34.5855 33.7912 34.7946C33.5821 35.0037 33.4835 35.291 33.5209 35.5851L34.0156 39.4423C34.0615 39.8044 34.3046 40.1002 34.6463 40.2175C34.9914 40.3348 35.3671 40.2481 35.6238 39.9914L36.0114 39.6038L36.6216 40.2141C34.3573 42.0041 31.6866 43.1108 28.8257 43.444V42.5787H29.373C29.7368 42.5787 30.0632 42.3747 30.2247 42.0483C30.3845 41.7236 30.3454 41.3411 30.1227 41.0538L27.7445 37.9752C27.5643 37.7406 27.2906 37.6063 26.9948 37.6063C26.699 37.6063 26.427 37.7406 26.2451 37.9752L23.8669 41.0521C23.6442 41.3411 23.6051 41.7219 23.7649 42.0466C23.9264 42.3747 24.2528 42.577 24.6165 42.577H25.1639V43.4423C22.3029 43.1091 19.6322 42.0024 17.368 40.2124L17.9782 39.6021L18.3658 39.9897C18.6242 40.2481 18.9982 40.3348 19.3433 40.2158C19.6867 40.0985 19.9281 39.801 19.974 39.4406L20.4686 35.5834C20.506 35.291 20.4074 35.002 20.1983 34.7929C19.9892 34.5838 19.702 34.4852 19.4079 34.5226L15.549 35.0173C15.1869 35.0632 14.8911 35.3063 14.7738 35.648C14.6565 35.9931 14.7432 36.3671 14.9999 36.6255L15.3875 37.0131L14.7772 37.6233C12.9872 35.359 11.8805 32.6883 11.5473 29.8274H12.4126V30.3747C12.4126 30.7385 12.6166 31.0649 12.943 31.2264C13.0756 31.291 13.2184 31.3233 13.3595 31.3233C13.5635 31.3233 13.7675 31.2553 13.9375 31.1244L17.0144 28.7462C17.249 28.566 17.3833 28.2923 17.3833 27.9965C17.3833 27.7007 17.249 27.4287 17.0144 27.2468L13.9375 24.8686C13.6485 24.6459 13.2677 24.6068 12.943 24.7666C12.6149 24.9281 12.4126 25.2545 12.4126 25.6182V26.1656H11.5473C11.8805 23.3046 12.9871 20.6339 14.7772 18.3697L15.3875 18.9799L14.9999 19.3675C14.7415 19.6259 14.6548 19.9999 14.7738 20.345C14.8911 20.6884 15.1886 20.9298 15.5489 20.9757L19.4078 21.4703C19.4486 21.4754 19.4894 21.4788 19.5302 21.4788C19.7801 21.4788 20.0181 21.3819 20.1983 21.2017C20.4074 20.9926 20.506 20.7054 20.4686 20.4113L19.9739 16.5541C19.928 16.192 19.685 15.8962 19.3433 15.7789C18.9982 15.6616 18.6225 15.7483 18.3658 16.005L17.9782 16.3926L17.3679 15.7823C19.6323 13.9923 22.303 12.8856 25.1639 12.5524V13.4177H24.6165C24.2527 13.4177 23.9264 13.6217 23.7649 13.9481C23.6051 14.2728 23.6442 14.6553 23.8669 14.9426L26.2451 18.0212C26.4253 18.2558 26.699 18.3901 26.9948 18.3901C27.2906 18.3901 27.5626 18.2558 27.7445 18.0212L30.1227 14.9443C30.3454 14.6553 30.3845 14.2745 30.2247 13.9498C30.0632 13.6217 29.7368 13.4194 29.373 13.4194H28.8257L28.8291 12.5541C31.6901 12.8873 34.3607 13.994 36.625 15.784L36.0148 16.3943L35.6272 16.0067C35.3688 15.7483 34.9948 15.6616 34.6497 15.7806C34.3063 15.8979 34.0649 16.1954 34.019 16.5558L33.5243 20.4147C33.4869 20.7071 33.5855 20.996 33.7946 21.2051C33.9748 21.3853 34.2128 21.4822 34.4627 21.4822C34.5035 21.4822 34.5443 21.4788 34.5851 21.4737L38.4423 20.979C38.8044 20.9331 39.1002 20.6901 39.2175 20.3484C39.3348 20.0033 39.2481 19.6293 38.9914 19.3709L38.6038 18.9833L39.2141 18.373C41.0041 20.6374 42.1108 23.3081 42.444 26.169H41.5787V25.6216C41.5787 25.2578 41.3764 24.9315 41.0483 24.77C40.7236 24.6102 40.3411 24.6493 40.0538 24.872L36.9769 27.2502C36.7423 27.4304 36.608 27.7041 36.608 27.9999C36.608 28.2957 36.7423 28.5677 36.9769 28.7496L40.0538 31.1278C40.2238 31.2604 40.4278 31.3267 40.6318 31.3267C40.7729 31.3267 40.9157 31.2944 41.0483 31.2298C41.3764 31.0683 41.5787 30.7419 41.5787 30.3781V29.8307H42.444C42.1091 32.6901 41.0024 35.3607 39.2123 37.625ZM40.9514 28.5727C40.6046 28.5727 40.3241 28.8532 40.3241 29.1999V29.7473L38.0581 27.9981L40.3241 26.2471V26.7945C40.3241 27.1413 40.6046 27.4218 40.9514 27.4218H45.7472V28.5727H40.9514ZM26.9984 19.4302C22.2744 19.4302 18.4304 23.2738 18.4304 27.9982C18.4304 32.7226 22.274 36.5662 26.9984 36.5662C31.7228 36.5662 35.5664 32.7226 35.5664 27.9982C35.5664 23.2738 31.7228 19.4302 26.9984 19.4302ZM22.6601 33.8815C23.6427 32.4604 25.261 31.5951 26.9984 31.5951C28.7357 31.5951 30.3541 32.4587 31.3367 33.8815C30.1229 34.7791 28.6202 35.3112 26.9984 35.3112C25.3749 35.3112 23.8739 34.7791 22.6601 33.8815ZM26.9984 30.0311C25.5857 30.0311 24.4366 28.882 24.4366 27.4693C24.4366 26.0566 25.5857 24.9075 26.9984 24.9075C28.4111 24.9075 29.5602 26.0566 29.5602 27.4693C29.5602 28.882 28.4111 30.0311 26.9984 30.0311ZM32.2838 33.0468C31.4746 31.9317 30.3441 31.1072 29.0624 30.6771C30.1163 29.9971 30.815 28.814 30.815 27.4693C30.815 25.3648 29.1031 23.6529 26.9986 23.6529C24.8941 23.6529 23.1822 25.3648 23.1822 27.4693C23.1822 28.8139 23.8809 29.9971 24.9349 30.6771C23.6531 31.1072 22.5226 31.93 21.7135 33.0468C20.4589 31.7328 19.6854 29.9546 19.6854 27.9978C19.6854 23.9655 22.9663 20.6844 26.9987 20.6844C31.0312 20.6844 34.3121 23.9654 34.3121 27.9978C34.3121 29.9544 33.5401 31.7326 32.2838 33.0468Z" fill="#FD1716"/>
</svg>
