<svg width="55" height="55" viewBox="0 0 55 55" fill="none" xmlns="http://www.w3.org/2000/svg">
<path d="M40.5541 24.4908C40.4608 24.1309 40.1008 23.9176 39.741 24.0109C39.3811 24.1043 39.1678 24.4641 39.2611 24.824C39.4677 25.6438 39.5943 26.4836 39.641 27.3234H32.3229C32.2963 25.6638 32.1496 23.9976 31.903 22.4312C33.5826 21.8047 35.1222 20.8516 36.4685 19.6053C37.195 20.4184 37.8148 21.3181 38.308 22.2913C38.4747 22.6178 38.8745 22.7511 39.2012 22.5845C39.5278 22.4179 39.661 22.018 39.4944 21.6914C38.8479 20.3984 38.0015 19.2254 36.9817 18.1923C36.9817 18.1923 36.9751 18.1923 36.9684 18.1856C34.3291 15.4863 30.7901 14 26.9976 14C23.2051 14 19.6659 15.4863 17.0268 18.1856L17.0201 18.1923C14.4341 20.825 13.0078 24.304 13.0078 27.9899C13.0078 29.6628 13.3077 31.3157 13.8876 32.8885C13.9876 33.1551 14.2408 33.3217 14.5141 33.3217C14.5941 33.3217 14.6674 33.3084 14.7474 33.2817C15.094 33.1551 15.2673 32.7685 15.1406 32.422C14.6874 31.2089 14.4408 29.9426 14.3741 28.6563H21.679C21.7056 30.3158 21.8523 31.9821 22.0989 33.5485C20.4259 34.175 18.8797 35.1281 17.5398 36.3678C17.1399 35.9212 16.76 35.448 16.4334 34.9481C16.2334 34.6415 15.8202 34.5549 15.5137 34.7548C15.2071 34.9548 15.1204 35.368 15.3204 35.6746C15.8136 36.4277 16.3868 37.1342 17.0199 37.7741C17.0199 37.7741 17.0266 37.7741 17.0333 37.7807C19.6726 40.4801 23.2116 41.9664 27.0041 41.9664C30.7966 41.9664 34.3358 40.4801 36.9749 37.7807L36.9816 37.7741C39.5676 35.1414 40.9939 31.6623 40.9939 27.9764C40.9939 26.7968 40.8472 25.6171 40.554 24.4773L40.5541 24.4908ZM35.5288 18.6589C34.3824 19.712 33.0827 20.5384 31.6631 21.0983C31.1965 18.8389 30.4967 16.8727 29.5703 15.5863C31.7964 16.0395 33.8358 17.0993 35.5288 18.6589ZM23.0118 27.3232C23.0385 25.7036 23.1585 24.1906 23.3651 22.8375C24.5381 23.1507 25.7512 23.324 26.9975 23.324C28.2438 23.324 29.4635 23.1507 30.6299 22.8375C30.8298 24.1971 30.9565 25.7034 30.9831 27.3232H23.0118ZM30.9834 28.6562C30.9567 30.2758 30.8367 31.7887 30.6301 33.1418C29.4571 32.8286 28.244 32.6553 26.9977 32.6553C25.7514 32.6553 24.5317 32.8286 23.3653 33.1418C23.1654 31.7822 23.0387 30.2759 23.0121 28.6562H30.9834ZM26.9977 15.3262C28.2707 15.3262 29.6437 17.6923 30.4035 21.5181C29.3104 21.818 28.1707 21.9913 26.9977 21.9913C25.8246 21.9913 24.6849 21.8247 23.5919 21.5181C24.3517 17.6924 25.7247 15.3262 26.9977 15.3262ZM24.425 15.5861C23.4986 16.8725 22.7921 18.832 22.3322 21.0981C20.9193 20.5383 19.6129 19.7118 18.4665 18.6587C20.1595 17.0991 22.1988 16.046 24.425 15.5861ZM21.6724 27.3233H14.3676C14.5142 24.4507 15.6206 21.758 17.5334 19.612C18.8731 20.8583 20.4127 21.8048 22.0925 22.4313C21.8459 23.9976 21.7057 25.6703 21.6724 27.3233ZM18.4665 37.321C19.6129 36.2679 20.9126 35.4415 22.3322 34.8816C22.7988 37.141 23.4986 39.1072 24.425 40.3936C22.1989 39.9404 20.1596 38.8806 18.4665 37.321ZM26.9977 40.6535C25.7247 40.6535 24.3517 38.2874 23.5919 34.4616C24.685 34.1616 25.8247 33.9883 26.9977 33.9883C28.1708 33.9883 29.3105 34.155 30.4035 34.4616C29.6438 38.2873 28.2707 40.6535 26.9977 40.6535ZM29.5704 40.3936C30.4968 39.1072 31.2033 37.1477 31.6632 34.8816C33.0761 35.4414 34.3825 36.2679 35.5289 37.321C33.8359 38.8806 31.7966 39.9337 29.5704 40.3936ZM36.4619 36.3679C35.1222 35.1215 33.5826 34.1751 31.9028 33.5486C32.1494 31.9823 32.2894 30.3094 32.3227 28.6564H39.6275C39.4809 31.529 38.3747 34.2219 36.4619 36.3679Z" fill="#FD1716"/>
<path d="M25.4706 11.1342L26.3304 10.2744V12.0007C26.3304 12.3672 26.6303 12.6672 26.9969 12.6672C27.3635 12.6672 27.6634 12.3672 27.6634 12.0007V10.2744L28.5232 11.1342C28.6565 11.2675 28.8231 11.3275 28.9964 11.3275C29.1697 11.3275 29.3363 11.2608 29.4696 11.1342C29.7296 10.8743 29.7296 10.4544 29.4696 10.1944L27.4701 8.19495C27.2102 7.93502 26.7903 7.93502 26.5304 8.19495L24.5309 10.1944C24.271 10.4544 24.271 10.8743 24.5309 11.1342C24.7908 11.3941 25.2107 11.3941 25.4706 11.1342Z" fill="#FD1716"/>
<path d="M28.5232 44.8455L27.6634 45.7052V43.979C27.6634 43.6124 27.3635 43.3125 26.9969 43.3125C26.6303 43.3125 26.3304 43.6124 26.3304 43.979V45.7052L25.4706 44.8455C25.2107 44.5855 24.7908 44.5855 24.5309 44.8455C24.271 45.1054 24.2709 45.5253 24.5309 45.7852L26.5304 47.7847C26.6637 47.918 26.8303 47.978 27.0036 47.978C27.1769 47.978 27.3435 47.9113 27.4768 47.7847L29.4763 45.7852C29.7363 45.5253 29.7363 45.1054 29.4763 44.8455C29.2164 44.5856 28.7965 44.5855 28.5366 44.8455H28.5232Z" fill="#FD1716"/>
<path d="M46.8003 27.5148L44.8008 25.5153C44.5409 25.2553 44.121 25.2553 43.8611 25.5153C43.6012 25.7752 43.6012 26.1951 43.8611 26.455L44.7209 27.3148H42.9946C42.628 27.3148 42.3281 27.6147 42.3281 27.9813C42.3281 28.3479 42.628 28.6478 42.9946 28.6478H44.7209L43.8611 29.5076C43.6012 29.7675 43.6012 30.1874 43.8611 30.4473C43.9944 30.5806 44.161 30.6406 44.3343 30.6406C44.5076 30.6406 44.6742 30.5739 44.8075 30.4473L46.807 28.4478C47.067 28.1879 47.067 27.768 46.807 27.5081L46.8003 27.5148Z" fill="#FD1716"/>
<path d="M11.0007 27.3226H9.27443L10.1342 26.4628C10.3941 26.2029 10.3941 25.783 10.1342 25.5231C9.87426 25.2632 9.45435 25.2631 9.19445 25.5231L7.19495 27.5226C6.93502 27.7825 6.93502 28.2024 7.19495 28.4623L9.19445 30.4618C9.32775 30.5951 9.49437 30.6551 9.66767 30.6551C9.84097 30.6551 10.0076 30.5884 10.1409 30.4618C10.4008 30.2019 10.4008 29.782 10.1409 29.5221L9.28112 28.6623H11.0074C11.3739 28.6623 11.6739 28.3624 11.6739 27.9958C11.6739 27.6292 11.3739 27.3293 11.0074 27.3293L11.0007 27.3226Z" fill="#FD1716"/>
<path d="M40.6682 13.6562H37.8423C37.4757 13.6562 37.1758 13.9562 37.1758 14.3227C37.1758 14.6893 37.4757 14.9892 37.8423 14.9892H39.062L37.8423 16.2089C37.5823 16.4689 37.5823 16.8888 37.8423 17.1487C37.9756 17.282 38.1422 17.342 38.3155 17.342C38.4888 17.342 38.6554 17.2753 38.7887 17.1487L40.0084 15.929V17.1487C40.0084 17.5153 40.3084 17.8152 40.6749 17.8152C41.0415 17.8152 41.3414 17.5153 41.3414 17.1487V14.3227C41.3414 13.9562 41.0415 13.6562 40.6749 13.6562H40.6682Z" fill="#FD1716"/>
<path d="M16.1604 40.9978H14.9407L16.1604 39.7781C16.4204 39.5182 16.4204 39.0983 16.1604 38.8384C15.9005 38.5785 15.4806 38.5784 15.2207 38.8384L14.001 40.0581V38.8384C14.001 38.4718 13.701 38.1719 13.3345 38.1719C12.9679 38.1719 12.668 38.4718 12.668 38.8384V41.6643C12.668 42.0309 12.9679 42.3308 13.3345 42.3308H16.1604C16.527 42.3308 16.8269 42.0309 16.8269 41.6643C16.8269 41.2978 16.527 40.9978 16.1604 40.9978Z" fill="#FD1716"/>
<path d="M40.6682 38.1641C40.3017 38.1641 40.0017 38.464 40.0017 38.8306V40.0503L38.782 38.8306C38.5221 38.5706 38.1022 38.5706 37.8423 38.8306C37.5824 39.0905 37.5823 39.5104 37.8423 39.7703L39.062 40.99H37.8423C37.4757 40.99 37.1758 41.2899 37.1758 41.6565C37.1758 42.0231 37.4757 42.323 37.8423 42.323H40.6682C41.0348 42.323 41.3347 42.0231 41.3347 41.6565V38.8306C41.3347 38.464 41.0348 38.1641 40.6682 38.1641Z" fill="#FD1716"/>
<path d="M13.3278 17.8152C13.6943 17.8152 13.9943 17.5153 13.9943 17.1487V15.929L15.214 17.1487C15.3473 17.282 15.5139 17.342 15.6872 17.342C15.8605 17.342 16.0271 17.2753 16.1604 17.1487C16.4204 16.8888 16.4204 16.4689 16.1604 16.2089L14.9407 14.9892H16.1604C16.527 14.9892 16.8269 14.6893 16.8269 14.3227C16.8269 13.9562 16.527 13.6562 16.1604 13.6562H13.3345C12.9679 13.6562 12.668 13.9562 12.668 14.3227V17.1487C12.668 17.5153 12.9679 17.8152 13.3345 17.8152H13.3278Z" fill="#FD1716"/>
</svg>
