<svg width="53" height="54" viewBox="0 0 53 54" fill="none" xmlns="http://www.w3.org/2000/svg">
<path fill-rule="evenodd" clip-rule="evenodd" d="M8.17963 46.6897H5.92903C5.70627 46.6898 5.49188 46.6049 5.3296 46.4523C5.24615 46.3747 5.17951 46.2808 5.13383 46.1763C5.08815 46.0719 5.06439 45.9593 5.06403 45.8453V38.4303V38.4132C5.0616 38.3459 5.06716 38.2785 5.0806 38.2124C5.28744 37.1624 5.66153 36.1523 6.18858 35.2208C6.69814 34.3328 7.33645 33.5251 8.08274 32.8241C8.16361 32.7466 8.25897 32.6857 8.36337 32.6449C8.46581 32.6044 8.57502 32.5838 8.68518 32.5842H15.0725C15.2951 32.5842 15.5093 32.6691 15.6714 32.8216C15.7549 32.8992 15.8216 32.9931 15.8673 33.0975C15.913 33.2019 15.9367 33.3146 15.937 33.4286V40.8019H45.5633C45.692 40.8032 45.8186 40.8347 45.9328 40.8939C46.0471 40.9531 46.1458 41.0384 46.221 41.1428C46.3566 41.3268 46.4291 41.5498 46.4278 41.7784V45.6631C46.4291 45.8918 46.3566 46.1149 46.221 46.2991C46.1458 46.4036 46.0471 46.4888 45.9328 46.548C45.8186 46.6073 45.692 46.6388 45.5633 46.64H43.7058C43.5946 47.3808 43.2353 48.0618 42.6867 48.5718C42.006 49.2012 41.1129 49.5508 40.1858 49.5508C39.2587 49.5508 38.3657 49.2012 37.685 48.5718C37.1364 48.0618 36.7771 47.3808 36.6659 46.64H36.0333C35.9221 47.3808 35.5628 48.0618 35.0142 48.5718C34.3334 49.2012 33.4404 49.5508 32.5133 49.5508C31.5862 49.5508 30.6932 49.2012 30.0124 48.5718C29.4635 48.062 29.1038 47.3809 28.9923 46.64H26.0118V47.1822C26.0114 47.4327 25.9117 47.6728 25.7346 47.8499C25.5575 48.027 25.3174 48.1266 25.0669 48.127H18.2057C17.9552 48.1266 17.7151 48.027 17.538 47.8499C17.3609 47.6728 17.2613 47.4327 17.2609 47.1822V46.64H15.3622C15.3111 46.6578 15.2585 46.6709 15.205 46.6792C15.0867 47.405 14.7303 48.0709 14.1919 48.5718C13.5112 49.2012 12.6182 49.5508 11.6911 49.5508C10.764 49.5508 9.87096 49.2012 9.19022 48.5718C8.65443 48.0734 8.29873 47.4116 8.17863 46.6897H8.17963ZM26.0118 45.6094H29.0084C29.1369 44.9062 29.489 44.2633 30.0124 43.7764C30.6932 43.1471 31.5862 42.7975 32.5133 42.7975C33.4404 42.7975 34.3334 43.1471 35.0142 43.7764C35.5376 44.2633 35.8898 44.9062 36.0182 45.6094H36.6824C36.8109 44.9062 37.1631 44.2633 37.6865 43.7764C38.3672 43.1471 39.2602 42.7975 40.1873 42.7975C41.1145 42.7975 42.0075 43.1471 42.6882 43.7764C43.2119 44.2631 43.5641 44.9061 43.6923 45.6094H45.3992V41.8326H15.937V45.6094H17.2609V44.4768C17.2611 44.2263 17.3608 43.9862 17.5379 43.8092C17.7151 43.6321 17.9552 43.5326 18.2057 43.5325H25.0669C25.3174 43.5326 25.5576 43.6321 25.7347 43.8092C25.9118 43.9862 26.0115 44.2263 26.0118 44.4768V45.6094ZM24.9811 44.5626H18.2915V47.0954H24.9811V44.5626ZM30.7484 4.55078H35.5744C35.8209 4.55105 36.0573 4.64909 36.2316 4.8234C36.4059 4.9977 36.5039 5.23404 36.5042 5.48054V8.12072C36.5039 8.36723 36.4059 8.60356 36.2316 8.77787C36.0573 8.95217 35.8209 9.05022 35.5744 9.05048H33.5588L33.5703 9.07207C33.6546 9.22693 33.7801 9.3555 33.9328 9.44357H33.9368C34.372 9.69479 34.6964 10.1009 34.8453 10.5808C34.9942 11.0607 34.9566 11.5791 34.7401 12.0325L45.6065 17.3255C45.7691 17.1994 45.9691 17.131 46.1748 17.1312H47.2497C47.4962 17.1317 47.7324 17.2299 47.9067 17.4043C48.081 17.5786 48.179 17.8149 48.1794 18.0614V19.1077C48.3697 19.14 48.5451 19.2307 48.6815 19.3672C48.7678 19.4532 48.8363 19.5554 48.883 19.6679C48.9298 19.7804 48.9539 19.901 48.9541 20.0229V31.1137C48.9539 31.3604 48.8559 31.5969 48.6814 31.7714C48.507 31.9458 48.2705 32.0439 48.0238 32.044H17.7513C17.6289 32.0443 17.5077 32.0205 17.3945 31.9739C17.2813 31.9273 17.1784 31.8588 17.0918 31.7724C17.0051 31.686 16.9363 31.5834 16.8893 31.4703C16.8423 31.3573 16.8181 31.2361 16.8181 31.1137V20.0249C16.8182 19.8051 16.8961 19.5924 17.0379 19.4245C17.1798 19.2567 17.3765 19.1444 17.5932 19.1077V18.0614C17.5936 17.8146 17.692 17.578 17.8666 17.4035C18.0413 17.2291 18.2781 17.1312 18.525 17.1312H19.5998C19.8054 17.131 20.0052 17.1994 20.1676 17.3255L31.1154 11.9939C31.0717 11.8965 31.0358 11.7958 31.008 11.6927C30.8741 11.1954 30.9381 10.6657 31.1867 10.2147C31.2366 10.1088 31.3211 10.023 31.4263 9.97148C31.5314 9.91996 31.651 9.90578 31.7653 9.93125C31.8795 9.95673 31.9818 10.0203 32.0551 10.1116C32.1284 10.2029 32.1685 10.3165 32.1687 10.4336L32.0979 10.6911C32.0344 10.8014 31.9932 10.9231 31.9767 11.0493C31.9603 11.1755 31.9689 11.3037 32.002 11.4266C32.0126 11.4666 32.0259 11.5058 32.0416 11.5441L32.4809 11.3302C32.6073 11.2671 32.7466 11.2343 32.8878 11.2343C33.0291 11.2343 33.1684 11.2671 33.2947 11.3302L33.8173 11.5847C33.9169 11.3694 33.9344 11.1252 33.8664 10.8979C33.7985 10.6706 33.6498 10.476 33.4483 10.3507C33.4227 10.3382 33.3983 10.3232 33.3755 10.3061C33.1494 10.1673 32.9533 9.98487 32.7986 9.76935C32.644 9.55383 32.5339 9.3096 32.4749 9.05098H30.7484C30.5022 9.05019 30.2663 8.95184 30.0924 8.77748C29.9185 8.60313 29.8208 8.36697 29.8207 8.12072V5.48054C29.8209 5.23395 29.919 4.99754 30.0935 4.82322C30.2679 4.6489 30.5043 4.55091 30.7509 4.55078H30.7484ZM35.474 5.58095H30.8488V8.01981H35.474V5.58095ZM34.0427 12.8393C33.7327 13.0451 33.3714 13.1603 32.9995 13.1718C32.6276 13.1833 32.2599 13.0908 31.9377 12.9046C31.8875 12.875 31.8373 12.8433 31.7901 12.8102L20.5291 18.2944V19.0946H45.2446V18.2944L34.0427 12.8393ZM47.1488 19.0946V18.1618H46.2752V19.0946H47.1488ZM19.4984 19.0946V18.1618H18.6254V19.0946H19.4984ZM43.63 20.7598C43.3834 20.76 43.147 20.858 42.9726 21.0323C42.7981 21.2066 42.7 21.443 42.6998 21.6896V29.1046C42.6999 29.3513 42.7979 29.5878 42.9724 29.7622C43.1468 29.9367 43.3833 30.0347 43.63 30.0349H44.8555C45.1021 30.0346 45.3385 29.9365 45.5128 29.7621C45.6871 29.5877 45.7851 29.3512 45.7852 29.1046V21.6896C45.785 21.443 45.6869 21.2066 45.5124 21.0323C45.338 20.858 45.1016 20.76 44.855 20.7598H43.63ZM44.7551 21.79H43.7304V29.0042H44.7551V21.79ZM39.8447 20.7598C39.5981 20.76 39.3617 20.858 39.1872 21.0323C39.0128 21.2066 38.9147 21.443 38.9144 21.6896V29.1046C38.9146 29.3513 39.0126 29.5878 39.1871 29.7622C39.3615 29.9367 39.598 30.0347 39.8447 30.0349H41.0702C41.3168 30.0347 41.5534 29.9367 41.7278 29.7622C41.9022 29.5878 42.0003 29.3513 42.0004 29.1046V21.6896C42.0002 21.443 41.9021 21.2066 41.7276 21.0323C41.5532 20.858 41.3168 20.76 41.0702 20.7598H39.8447ZM40.9698 21.79H39.9451V29.0042H40.9698V21.79ZM36.0594 20.7598C35.8128 20.76 35.5763 20.858 35.4019 21.0323C35.2275 21.2066 35.1294 21.443 35.1291 21.6896V29.1046C35.1293 29.3513 35.2273 29.5878 35.4018 29.7622C35.5762 29.9367 35.8127 30.0347 36.0594 30.0349H37.2849C37.5315 30.0347 37.7681 29.9367 37.9425 29.7622C38.1169 29.5878 38.215 29.3513 38.2151 29.1046V21.6896C38.2149 21.443 38.1167 21.2066 37.9423 21.0323C37.7679 20.858 37.5315 20.76 37.2849 20.7598H36.0594ZM37.1844 21.79H36.1598V29.0042H37.1844V21.79ZM32.2741 20.7598C32.0275 20.76 31.791 20.858 31.6166 21.0323C31.4422 21.2066 31.3441 21.443 31.3438 21.6896V29.1046C31.344 29.3513 31.442 29.5878 31.6164 29.7622C31.7909 29.9367 32.0274 30.0347 32.2741 30.0349H33.4995C33.7462 30.0347 33.9828 29.9367 34.1572 29.7622C34.3316 29.5878 34.4297 29.3513 34.4298 29.1046V21.6896C34.4295 21.443 34.3314 21.2066 34.157 21.0323C33.9826 20.858 33.7461 20.76 33.4995 20.7598H32.2741ZM33.3991 21.79H32.3745V29.0042H33.3991V21.79ZM28.4888 20.7598C28.2422 20.76 28.0057 20.858 27.8313 21.0323C27.6569 21.2066 27.5588 21.443 27.5585 21.6896V29.1046C27.5587 29.3513 27.6567 29.5878 27.8311 29.7622C28.0056 29.9367 28.2421 30.0347 28.4888 30.0349H29.7142C29.9609 30.0347 30.1975 29.9367 30.3719 29.7622C30.5463 29.5878 30.6444 29.3513 30.6445 29.1046V21.6896C30.6442 21.443 30.5461 21.2066 30.3717 21.0323C30.1973 20.858 29.9608 20.76 29.7142 20.7598H28.4888ZM29.6138 21.79H28.5892V29.0042H29.6138V21.79ZM24.703 20.7598C24.4565 20.7601 24.2201 20.8582 24.0458 21.0325C23.8715 21.2068 23.7735 21.4431 23.7732 21.6896V29.1046C23.7733 29.3512 23.8713 29.5877 24.0456 29.7621C24.22 29.9365 24.4564 30.0346 24.703 30.0349H25.9289C26.1755 30.0346 26.4119 29.9365 26.5862 29.7621C26.7606 29.5877 26.8586 29.3512 26.8587 29.1046V21.6896C26.8584 21.443 26.7603 21.2066 26.5859 21.0323C26.4115 20.858 26.175 20.76 25.9284 20.7598H24.703ZM25.8285 21.79H24.8039V29.0042H25.8285V21.79ZM20.9177 20.7598C20.6711 20.7601 20.4348 20.8582 20.2605 21.0325C20.0862 21.2068 19.9882 21.4431 19.9879 21.6896V29.1046C19.988 29.3512 20.086 29.5877 20.2603 29.7621C20.4347 29.9365 20.6711 30.0346 20.9177 30.0349H22.1436C22.3902 30.0345 22.6266 29.9363 22.801 29.762C22.9753 29.5876 23.0735 29.3512 23.0739 29.1046V21.6896C23.0733 21.4431 22.9751 21.2068 22.8008 21.0326C22.6264 20.8583 22.3901 20.7602 22.1436 20.7598H20.9177ZM22.0432 21.79H21.0186V29.0042H22.0432V21.79ZM47.9239 20.1253H17.8523V31.0133H47.9239V20.1253ZM41.9819 44.524C41.4913 44.0749 40.8504 43.8259 40.1853 43.8259C39.5203 43.8259 38.8794 44.0749 38.3888 44.524C38.1598 44.7332 37.9768 44.988 37.8517 45.2719C37.7265 45.5558 37.6619 45.8626 37.6619 46.1729C37.6619 46.4832 37.7265 46.79 37.8517 47.0739C37.9768 47.3578 38.1598 47.6125 38.3888 47.8218C38.8794 48.2708 39.5203 48.5199 40.1853 48.5199C40.8504 48.5199 41.4913 48.2708 41.9819 47.8218C42.2109 47.6125 42.3939 47.3578 42.519 47.0739C42.6442 46.79 42.7088 46.4832 42.7088 46.1729C42.7088 45.8626 42.6442 45.5558 42.519 45.2719C42.3939 44.988 42.2109 44.7332 41.9819 44.524ZM34.3093 44.524C33.8188 44.0749 33.1778 43.8259 32.5128 43.8259C31.8478 43.8259 31.2068 44.0749 30.7163 44.524C30.4872 44.7332 30.3043 44.988 30.1791 45.2719C30.054 45.5558 29.9893 45.8626 29.9893 46.1729C29.9893 46.4832 30.054 46.79 30.1791 47.0739C30.3043 47.3578 30.4872 47.6125 30.7163 47.8218C31.2068 48.2708 31.8478 48.5199 32.5128 48.5199C33.1778 48.5199 33.8188 48.2708 34.3093 47.8218C34.5382 47.6124 34.7211 47.3577 34.8461 47.0738C34.9712 46.7899 35.0358 46.4831 35.0358 46.1729C35.0358 45.8627 34.9712 45.5558 34.8461 45.2719C34.7211 44.9881 34.5382 44.7333 34.3093 44.524ZM14.9063 44.7318V33.6158H13.2813V38.5679C13.281 38.6818 13.2573 38.7944 13.2116 38.8988C13.1659 39.0031 13.0992 39.0969 13.0157 39.1743C12.8537 39.327 12.6394 39.412 12.4168 39.4118H6.0947V45.6591H8.17963C8.29963 44.937 8.65534 44.275 9.19122 43.7764C9.87196 43.1471 10.765 42.7975 11.6921 42.7975C12.6192 42.7975 13.5122 43.1471 14.193 43.7764C14.4852 44.051 14.7267 44.3749 14.9063 44.7333V44.7318ZM13.4886 44.524C12.998 44.0749 12.3571 43.8259 11.6921 43.8259C11.0271 43.8259 10.3861 44.0749 9.89557 44.524C9.66652 44.7332 9.48358 44.988 9.35841 45.2719C9.23325 45.5558 9.1686 45.8626 9.1686 46.1729C9.1686 46.4832 9.23325 46.79 9.35841 47.0739C9.48358 47.3578 9.66652 47.6125 9.89557 47.8218C10.3861 48.2708 11.0271 48.5199 11.6921 48.5199C12.3571 48.5199 12.998 48.2708 13.4886 47.8218C13.7177 47.6125 13.9006 47.3578 14.0258 47.0739C14.1509 46.79 14.2156 46.4832 14.2156 46.1729C14.2156 45.8626 14.1509 45.5558 14.0258 45.2719C13.9006 44.988 13.7177 44.7332 13.4886 44.524ZM11.1883 40.8019H13.0413C13.1752 40.7977 13.3022 40.7416 13.3954 40.6454C13.4887 40.5492 13.5408 40.4205 13.5408 40.2866C13.5408 40.1526 13.4887 40.0239 13.3954 39.9277C13.3022 39.8315 13.1752 39.7754 13.0413 39.7712H11.1883C11.1193 39.7691 11.0505 39.7808 10.9861 39.8058C10.9217 39.8307 10.863 39.8683 10.8134 39.9164C10.7638 39.9644 10.7244 40.022 10.6974 40.0856C10.6705 40.1492 10.6566 40.2175 10.6566 40.2866C10.6566 40.3556 10.6705 40.424 10.6974 40.4876C10.7244 40.5512 10.7638 40.6087 10.8134 40.6568C10.863 40.7049 10.9217 40.7425 10.9861 40.7674C11.0505 40.7923 11.1193 40.8041 11.1883 40.8019ZM12.2496 33.6158H8.74341C8.09254 34.2353 7.53454 34.9454 7.08671 35.7244C6.61865 36.5514 6.28483 37.4474 6.09771 38.3791H12.2496V33.6158Z" fill="url(#paint0_linear_3873_5170)"/>
<defs>
<linearGradient id="paint0_linear_3873_5170" x1="22.1156" y1="68.8456" x2="69.0881" y2="27.3329" gradientUnits="userSpaceOnUse">
<stop stop-color="#FF1717"/>
<stop offset="1" stop-color="#FF6461"/>
</linearGradient>
</defs>
</svg>
