<svg width="52" height="54" viewBox="0 0 52 54" fill="none" xmlns="http://www.w3.org/2000/svg">
<path d="M29.0071 20.7109H22.1209C20.5246 20.7109 19.2259 22.0097 19.2259 23.606V30.4922C19.2259 32.0885 20.5256 33.3872 22.1209 33.3872H29.0071C30.6034 33.3872 31.9022 32.0885 31.9022 30.4922V23.606C31.9022 22.0097 30.6034 20.7109 29.0071 20.7109ZM30.4227 30.4922C30.4227 31.2729 29.7878 31.9078 29.0071 31.9078H22.1209C21.3402 31.9078 20.7053 31.2729 20.7053 30.4922V23.606C20.7053 22.8253 21.3402 22.1904 22.1209 22.1904H29.0071C29.7878 22.1904 30.4227 22.8253 30.4227 23.606V30.4922Z" fill="url(#paint0_linear_3873_5132)"/>
<path d="M45.7735 33.4543C44.7732 33.4543 43.9296 34.1042 43.6201 35.0007H41.92L40.0772 32.2364C39.9394 32.0308 39.7088 31.907 39.4613 31.907H37.3049V27.789H41.7264C42.0359 28.6865 42.8794 29.3364 43.8797 29.3364C45.1405 29.3364 46.1668 28.3101 46.1668 27.0493C46.1668 25.7884 45.1405 24.7622 43.8797 24.7622C42.8794 24.7622 42.0359 25.4121 41.7264 26.3086H37.3049V22.1906H39.4613C39.7088 22.1906 39.9394 22.0668 40.0772 21.8612L41.92 19.0969H43.6201C43.9296 19.9934 44.7732 20.6432 45.7735 20.6432C47.0343 20.6432 48.0605 19.618 48.0605 18.3562C48.0605 17.0953 47.0343 16.0691 45.7735 16.0691C44.7732 16.0691 43.9296 16.72 43.6201 17.6164H41.5237C41.2762 17.6164 41.0455 17.7402 40.9078 17.9459L39.0649 20.7101H37.3039V19.035C37.3039 16.9795 35.6318 15.3074 33.5763 15.3074H31.9022V13.5464L34.6665 11.7035C34.8721 11.5658 34.9959 11.3352 34.9959 11.0876V8.99118C35.8924 8.68171 36.5423 7.83816 36.5423 6.83787C36.5423 5.57703 35.516 4.55078 34.2552 4.55078C32.9943 4.55078 31.9681 5.57603 31.9681 6.83787C31.9681 7.83816 32.618 8.68171 33.5144 8.99118V10.6913L30.7502 12.5341C30.5445 12.6719 30.4207 12.9025 30.4207 13.1501V15.3064H26.3028V10.8879C27.1992 10.5785 27.8491 9.73491 27.8491 8.73462C27.8491 7.47378 26.8229 6.44754 25.562 6.44754C24.3012 6.44754 23.275 7.47278 23.275 8.73462C23.275 9.73491 23.9248 10.5785 24.8213 10.8879V15.3094H20.7034V13.1531C20.7034 12.9055 20.5786 12.6749 20.3739 12.5371L17.6096 10.6943V8.99318C18.5061 8.68371 19.156 7.84015 19.156 6.83986C19.156 5.57902 18.1298 4.55278 16.8689 4.55278C15.6081 4.55278 14.5818 5.57802 14.5818 6.83986C14.5818 7.84015 15.2317 8.68371 16.1282 8.99318V11.0896C16.1282 11.3372 16.253 11.5678 16.4576 11.7055L19.2219 13.5484V15.3094H17.5478C15.4923 15.3094 13.8201 16.9815 13.8201 19.037V20.7121H12.0591L10.2163 17.9479C10.0785 17.7422 9.84793 17.6184 9.60035 17.6184H7.50394C7.19447 16.721 6.35091 16.0711 5.35062 16.0711C4.08978 16.0711 3.06354 17.0973 3.06354 18.3582C3.06354 19.619 4.08978 20.6452 5.35062 20.6452C6.35091 20.6452 7.19447 19.9954 7.50394 19.0989H9.20403L11.0469 21.8632C11.1846 22.0688 11.4152 22.1926 11.6628 22.1926H13.8191V26.3105H9.40269C9.09322 25.4141 8.24966 24.7642 7.24938 24.7642C5.98853 24.7642 4.96229 25.7894 4.96229 27.0513C4.96229 28.3131 5.98853 29.3384 7.24938 29.3384C8.24966 29.3384 9.09322 28.6875 9.40269 27.791H13.8241V31.909H11.6678C11.4202 31.909 11.1896 32.0328 11.0519 32.2384L9.20902 35.0027H7.50693C7.19746 34.1062 6.35391 33.4563 5.35362 33.4563C4.09278 33.4563 3.06653 34.4816 3.06653 35.7434C3.06653 37.0042 4.09278 38.0305 5.35362 38.0305C6.35391 38.0305 7.19746 37.3806 7.50693 36.4841H9.60335C9.85092 36.4841 10.0815 36.3603 10.2193 36.1547L12.0621 33.3904H13.8231V35.0656C13.8231 37.121 15.4953 38.7932 17.5507 38.7932H19.2249V40.5542L16.4606 42.397C16.255 42.5348 16.1312 42.7654 16.1312 43.013V45.1094C15.2347 45.4188 14.5848 46.2624 14.5848 47.2637C14.5848 48.5245 15.6111 49.5508 16.8719 49.5508C18.1328 49.5508 19.159 48.5255 19.159 47.2637C19.159 46.2634 18.5091 45.4198 17.6126 45.1094V43.4093L20.3769 41.5664C20.5826 41.4287 20.7063 41.1981 20.7063 40.9505V38.7942H24.8243V43.2146C23.9278 43.5241 23.2779 44.3677 23.2779 45.3689C23.2779 46.6298 24.3042 47.656 25.565 47.656C26.8259 47.656 27.8521 46.6308 27.8521 45.3689C27.8521 44.3686 27.2022 43.5251 26.3058 43.2146V38.7892H30.4237V40.9455C30.4237 41.1931 30.5485 41.4237 30.7532 41.5615L33.5174 43.4043V45.1044C32.621 45.4139 31.9711 46.2574 31.9711 47.2587C31.9711 48.5195 32.9973 49.5458 34.2582 49.5458C35.519 49.5458 36.5452 48.5205 36.5452 47.2587C36.5452 46.2584 35.8954 45.4149 34.9989 45.1044V43.008C34.9989 42.7604 34.8741 42.5298 34.6695 42.392L31.9052 40.5492V38.7892H33.5793C35.6348 38.7892 37.3069 37.1171 37.3069 35.0616V33.3864H39.0679L40.9108 36.1507C41.0485 36.3564 41.2791 36.4801 41.5267 36.4801H43.6231C43.9326 37.3766 44.7762 38.0265 45.7765 38.0265C47.0373 38.0265 48.0635 37.0013 48.0635 35.7394C48.0605 34.4796 47.0343 33.4543 45.7735 33.4543ZM43.8787 26.2427C44.3239 26.2427 44.6853 26.605 44.6853 27.0493C44.6853 27.4945 44.3239 27.8569 43.8787 27.8569C43.4335 27.8569 43.0721 27.4945 43.0721 27.0493C43.0721 26.604 43.4335 26.2427 43.8787 26.2427ZM45.7735 17.5505C46.2187 17.5505 46.5801 17.9129 46.5801 18.3582C46.5801 18.8024 46.2187 19.1648 45.7735 19.1648C45.3282 19.1648 44.9668 18.8024 44.9668 18.3582C44.9668 17.9129 45.3282 17.5505 45.7735 17.5505ZM34.2562 6.03324C34.7014 6.03324 35.0628 6.39562 35.0628 6.83986C35.0628 7.2841 34.7014 7.64648 34.2562 7.64648C33.8109 7.64648 33.4495 7.2841 33.4495 6.83986C33.4495 6.39562 33.8109 6.03324 34.2562 6.03324ZM25.564 7.928C26.0093 7.928 26.3707 8.29038 26.3707 8.73462C26.3707 9.17886 26.0093 9.54124 25.564 9.54124C25.1188 9.54124 24.7574 9.17886 24.7574 8.73462C24.7574 8.29038 25.1188 7.928 25.564 7.928ZM16.8719 6.03324C17.3171 6.03324 17.6785 6.39562 17.6785 6.83986C17.6785 7.2841 17.3171 7.64648 16.8719 7.64648C16.4267 7.64648 16.0653 7.2841 16.0653 6.83986C16.0653 6.39562 16.4267 6.03324 16.8719 6.03324ZM5.35462 19.1648C4.90938 19.1648 4.548 18.8024 4.548 18.3582C4.548 17.9129 4.90938 17.5505 5.35462 17.5505C5.79986 17.5505 6.16124 17.9129 6.16124 18.3582C6.16124 18.8024 5.79986 19.1648 5.35462 19.1648ZM7.24938 27.8559C6.80414 27.8559 6.44276 27.4935 6.44276 27.0483C6.44276 26.604 6.80414 26.2417 7.24938 26.2417C7.69461 26.2417 8.05599 26.604 8.05599 27.0483C8.05599 27.4945 7.69461 27.8559 7.24938 27.8559ZM5.35462 36.547C4.90938 36.547 4.548 36.1847 4.548 35.7404C4.548 35.2962 4.90938 34.9338 5.35462 34.9338C5.79986 34.9338 6.16124 35.2962 6.16124 35.7404C6.16124 36.1856 5.79986 36.547 5.35462 36.547ZM16.8719 48.0653C16.4267 48.0653 16.0653 47.7029 16.0653 47.2587C16.0653 46.8135 16.4267 46.4511 16.8719 46.4511C17.3171 46.4511 17.6785 46.8135 17.6785 47.2587C17.6785 47.7029 17.3171 48.0653 16.8719 48.0653ZM25.564 46.1706C25.1188 46.1706 24.7574 45.8082 24.7574 45.3639C24.7574 44.9187 25.1188 44.5563 25.564 44.5563C26.0093 44.5563 26.3707 44.9187 26.3707 45.3639C26.3707 45.8082 26.0093 46.1706 25.564 46.1706ZM34.2562 48.0653C33.8109 48.0653 33.4495 47.7029 33.4495 47.2587C33.4495 46.8135 33.8109 46.4511 34.2562 46.4511C34.7014 46.4511 35.0628 46.8135 35.0628 47.2587C35.0628 47.7029 34.7014 48.0653 34.2562 48.0653ZM35.8245 35.0626C35.8245 36.3015 34.8152 37.3097 33.5763 37.3097H17.5517C16.3129 37.3097 15.3036 36.3015 15.3036 35.0626V19.036C15.3036 17.7971 16.3129 16.7888 17.5517 16.7888H33.5773C34.8162 16.7888 35.8255 17.7971 35.8255 19.036V35.0626H35.8245ZM45.7735 36.547C45.3282 36.547 44.9668 36.1847 44.9668 35.7404C44.9668 35.2962 45.3282 34.9338 45.7735 34.9338C46.2187 34.9338 46.5801 35.2962 46.5801 35.7404C46.5801 36.1856 46.2187 36.547 45.7735 36.547Z" fill="url(#paint1_linear_3873_5132)"/>
<defs>
<linearGradient id="paint0_linear_3873_5132" x1="24.1508" y1="38.8225" x2="37.4193" y2="26.7998" gradientUnits="userSpaceOnUse">
<stop stop-color="#FF1717"/>
<stop offset="1" stop-color="#FF6461"/>
</linearGradient>
<linearGradient id="paint1_linear_3873_5132" x1="20.5467" y1="68.8456" x2="67.6491" y2="26.1659" gradientUnits="userSpaceOnUse">
<stop stop-color="#FF1717"/>
<stop offset="1" stop-color="#FF6461"/>
</linearGradient>
</defs>
</svg>
