<svg width="53" height="53" viewBox="0 0 53 53" fill="none" xmlns="http://www.w3.org/2000/svg">
<path d="M43.2268 12.9603C43.7417 13.2923 44.3561 13.4858 45.013 13.4858C46.8348 13.4858 48.3174 12.0032 48.3174 10.1797C48.3174 8.35795 46.8348 6.87534 45.013 6.87534C43.1895 6.87534 41.7069 8.35795 41.7069 10.1797C41.7069 10.8367 41.9004 11.451 42.2325 11.9659L39.9739 14.2245C39.8425 14.3559 39.7679 14.5352 39.7679 14.7217V25.8263H34.8711V18.4081C36.3572 18.0849 37.4741 16.7603 37.4741 15.1783C37.4741 13.3565 35.9915 11.8739 34.168 11.8739C32.3462 11.8739 30.8636 13.3565 30.8636 15.1783C30.8636 16.7603 31.9787 18.0849 33.4649 18.4081V25.8263L26.5207 25.8246V12.0867C28.0069 11.7636 29.1237 10.439 29.1237 8.8569C29.1237 7.03339 27.6411 5.55078 25.8176 5.55078C23.9959 5.55078 22.5133 7.03339 22.5133 8.8569C22.5133 10.439 23.6283 11.7635 25.1145 12.0867V25.8264L18.1685 25.8246V18.4064C19.6547 18.0832 20.7716 16.7586 20.7716 15.1766C20.7716 13.3548 19.289 11.8722 17.4654 11.8722C15.6437 11.8722 14.1611 13.3548 14.1611 15.1766C14.1611 16.7586 15.2761 18.0832 16.7623 18.4064V25.8246H11.8668L11.8686 14.7218C11.8686 14.5353 11.794 14.356 11.6626 14.2246L9.40408 11.966C9.73611 11.4511 9.92963 10.8367 9.92963 10.1798C9.92963 8.35803 8.44702 6.87543 6.62351 6.87543C4.80176 6.87543 3.31738 8.35803 3.31738 10.1798C3.31738 12.0033 4.79999 13.4859 6.62351 13.4859C7.28047 13.4859 7.89484 13.2924 8.40975 12.9604L10.4623 15.0129V25.8262H7.05496C6.41578 25.8262 5.8955 26.3464 5.8955 26.9857V28.186C5.8955 28.914 6.36069 29.5567 7.05674 29.7857L9.51772 30.5848C9.61893 30.6185 9.67575 30.6771 9.70238 30.7783C10.0824 32.2254 10.6594 33.6192 11.4193 34.9207C11.4708 35.0095 11.4726 35.0894 11.4247 35.1835L10.2493 37.4918C9.91722 38.1399 10.0397 38.9229 10.5582 39.4449L12.9002 41.7851C13.4151 42.3036 14.1999 42.4297 14.8551 42.0976L17.1634 40.9204C17.2539 40.8743 17.3391 40.8761 17.4261 40.9275C18.7241 41.6875 20.1179 42.2646 21.5686 42.6445C21.668 42.6712 21.7302 42.7297 21.7621 42.8256L22.5611 45.2866C22.7849 45.9826 23.4276 46.4496 24.1592 46.4496H27.476C28.2164 46.4496 28.8432 45.9951 29.074 45.2884L29.873 42.8274C29.9049 42.728 29.9671 42.6694 30.0665 42.6445C31.5136 42.2645 32.9075 41.6875 34.2072 40.9293C34.2978 40.876 34.3812 40.8743 34.4718 40.9204L36.7836 42.0995C37.4441 42.4333 38.2093 42.3125 38.7332 41.7869L41.0751 39.445C41.5989 38.9212 41.7215 38.1559 41.3859 37.4918L40.2087 35.1853C40.1607 35.093 40.1643 35.0078 40.2158 34.919C40.9722 33.6246 41.5492 32.2325 41.9328 30.7766C41.9594 30.6753 42.0162 30.6167 42.1121 30.5848L44.5784 29.784C45.2726 29.5567 45.7396 28.914 45.7396 28.1842V26.9839C45.7396 26.3447 45.2194 25.8245 44.5802 25.8245H41.1728L41.1746 15.013L43.2268 12.9603ZM45.013 8.28158C46.0606 8.28158 46.9111 9.13209 46.9111 10.1797C46.9111 11.2273 46.0589 12.0813 45.013 12.0813C43.9654 12.0813 43.1114 11.2291 43.1114 10.1797C43.1132 9.13209 43.9654 8.28158 45.013 8.28158ZM32.2697 15.178C32.2697 14.1304 33.122 13.2799 34.1678 13.2799C35.2154 13.2799 36.0695 14.1322 36.0695 15.178C36.0695 16.2256 35.2172 17.0797 34.1678 17.0797C33.122 17.0779 32.2697 16.2256 32.2697 15.178ZM23.9192 8.85704C23.9192 7.80944 24.7715 6.95539 25.8173 6.95539C26.8649 6.95539 27.719 7.80767 27.719 8.85704C27.719 9.90464 26.8649 10.7569 25.8173 10.7569C24.7697 10.7569 23.9192 9.90464 23.9192 8.85704ZM15.5668 15.178C15.5668 14.1304 16.4191 13.2799 17.4649 13.2799C18.5125 13.2799 19.3666 14.1322 19.3666 15.178C19.3666 16.2256 18.5143 17.0797 17.4649 17.0797C16.4191 17.0779 15.5668 16.2256 15.5668 15.178ZM4.72173 10.1798C4.72173 9.13218 5.57401 8.28168 6.62339 8.28168C7.67099 8.28168 8.52504 9.13218 8.52504 10.1798C8.52504 11.2274 7.67276 12.0814 6.62339 12.0814C5.57578 12.0814 4.72173 11.2274 4.72173 10.1798ZM18.5269 27.2309C18.882 30.9419 22.0159 33.8537 25.8174 33.8537C29.6189 33.8537 32.7529 30.9417 33.1079 27.2309H35.7092C35.3469 32.3727 31.0482 36.4446 25.8173 36.4446C20.5863 36.4446 16.2913 32.3714 15.929 27.2309H18.5269ZM31.6947 27.2309C31.3449 30.1641 28.8431 32.4477 25.8174 32.4477C22.7916 32.4477 20.2901 30.1643 19.9401 27.2309H31.6947ZM44.3367 28.1861C44.3367 28.314 44.2656 28.4099 44.1449 28.4489L41.6768 29.2497C41.1228 29.4326 40.7215 29.8605 40.576 30.4198C40.2244 31.7515 39.6953 33.0264 39.0046 34.2107C38.7116 34.7114 38.6938 35.2973 38.9584 35.8211L40.1356 38.1294C40.1942 38.243 40.1747 38.3602 40.0841 38.4508L37.7421 40.7927C37.6516 40.8833 37.5344 40.9028 37.4225 40.846L35.109 39.6652C34.5905 39.4042 34.0063 39.422 33.502 39.7132C32.3106 40.4092 31.0357 40.9383 29.7112 41.2845C29.1501 41.4319 28.7222 41.835 28.5393 42.3907L27.7403 44.8535C27.6995 44.9742 27.6054 45.0453 27.4793 45.0453H24.1625C24.0346 45.0453 23.9405 44.9778 23.9015 44.8553L23.1007 42.3872C22.9178 41.835 22.4917 41.4337 21.9288 41.2846C20.6007 40.9365 19.3258 40.4074 18.1361 39.7114C17.8698 39.5569 17.5804 39.4788 17.291 39.4788C17.0317 39.4788 16.7725 39.5409 16.5274 39.6652L14.2192 40.8424C14.1073 40.8993 13.9866 40.8815 13.896 40.7909L11.5541 38.4507C11.4635 38.3584 11.444 38.2412 11.5026 38.1276L12.678 35.8193C12.9443 35.2991 12.9283 34.7114 12.6336 34.2071C11.9376 33.0157 11.4085 31.7408 11.0622 30.418C10.9148 29.8551 10.5118 29.4272 9.95426 29.2444L7.49328 28.4453C7.37254 28.4063 7.30151 28.3068 7.30151 28.1808V27.2273H14.5211C14.8851 33.1469 19.8125 37.8487 25.8176 37.8487C31.8245 37.8487 36.7518 33.1469 37.1154 27.2309H44.3351L44.3367 28.1861Z" fill="url(#paint0_linear_3873_5125)"/>
<defs>
<linearGradient id="paint0_linear_3873_5125" x1="20.8005" y1="63.986" x2="63.8182" y2="21.0988" gradientUnits="userSpaceOnUse">
<stop stop-color="#FF1717"/>
<stop offset="1" stop-color="#FF6461"/>
</linearGradient>
</defs>
</svg>
