<svg width="52" height="53" viewBox="0 0 52 53" fill="none" xmlns="http://www.w3.org/2000/svg">
<path d="M32.4891 45.3698C32.8116 45.3698 33.0736 45.1083 33.0736 44.7853C33.0736 44.4628 32.8121 44.2008 32.4891 44.2008H26.1347V27.3995H34.9751V32.5415C34.9751 32.864 35.2366 33.126 35.5596 33.126C35.8821 33.126 36.1441 32.8645 36.1441 32.5415V26.815C36.1441 26.4925 35.8826 26.2305 35.5596 26.2305H15.5408C15.2183 26.2305 14.9563 26.492 14.9563 26.815V44.2008H6.9789V41.8949H12.4663C12.7888 41.8949 13.0508 41.6334 13.0508 41.3104V26.815C13.0508 26.4925 12.7893 26.2305 12.4663 26.2305H6.9789V24.925C7.1529 24.947 7.3299 24.96 7.5099 24.96C9.04338 24.96 10.3869 24.1326 11.1179 22.9011C11.8488 24.1331 13.1928 24.96 14.7258 24.96C16.2588 24.96 17.6028 24.1326 18.3338 22.9011C19.0648 24.1331 20.4088 24.96 21.9417 24.96C23.4752 24.96 24.8187 24.1326 25.5497 22.9011C26.2807 24.1331 27.6247 24.96 29.1577 24.96C30.6911 24.96 32.0346 24.1326 32.7656 22.9011C33.4966 24.1331 34.8406 24.96 36.3736 24.96C37.9071 24.96 39.2505 24.1326 39.9815 22.9011C40.7125 24.1331 42.0565 24.96 43.5895 24.96C43.7695 24.96 43.9465 24.9475 44.1205 24.925V26.2305H38.6336C38.3111 26.2305 38.0491 26.492 38.0491 26.815V33.123C38.0491 33.4454 38.3106 33.7074 38.6336 33.7074C38.9566 33.7074 39.218 33.4459 39.218 33.123V27.3995H44.1215V34.2724C44.1215 34.5949 44.383 34.8569 44.706 34.8569C45.029 34.8569 45.2905 34.5954 45.2905 34.2724V24.5985C46.7575 23.9451 47.7835 22.4741 47.7835 20.7676C47.7835 20.7421 47.7815 20.7176 47.778 20.6931C47.777 20.6871 47.776 20.6811 47.7755 20.6751C47.7719 20.6536 47.7675 20.6326 47.762 20.6121C47.761 20.6086 47.7605 20.6056 47.7595 20.6021C47.7525 20.5776 47.7435 20.5541 47.7335 20.5311C47.732 20.5276 47.73 20.5241 47.7285 20.5206C47.719 20.5006 47.709 20.4816 47.6975 20.4631C47.696 20.4606 47.6945 20.4576 47.693 20.4551L40.1805 8.60523C40.0735 8.43623 39.887 8.33373 39.687 8.33373H37.8081V5.59176C37.8071 4.46627 36.8916 3.55078 35.7666 3.55078H15.3343C14.2088 3.55078 13.2933 4.46627 13.2933 5.59176V8.33323H11.4144C11.2144 8.33323 11.0279 8.43573 10.9209 8.60472L3.40844 20.4546C3.40694 20.4571 3.40544 20.4601 3.40394 20.4626C3.39244 20.4811 3.38244 20.5001 3.37294 20.5201C3.37144 20.5236 3.36944 20.5271 3.36794 20.5306C3.35794 20.5536 3.34894 20.5771 3.34194 20.6016C3.34094 20.6051 3.34044 20.6081 3.33944 20.6116C3.33394 20.6321 3.32944 20.6531 3.32594 20.6746C3.32494 20.6806 3.32394 20.6866 3.32344 20.6926C3.32044 20.7171 3.31794 20.7421 3.31794 20.7671C3.31794 22.4741 4.34393 23.9446 5.81092 24.598V44.2003H3.90194C3.57944 44.2003 3.31744 44.4618 3.31744 44.7848V47.9528C3.31744 48.2753 3.57894 48.5373 3.90194 48.5373H32.4891C32.8116 48.5373 33.0736 48.2758 33.0736 47.9528C33.0736 47.6303 32.8121 47.3683 32.4891 47.3683H4.48593V45.3693L32.4891 45.3698ZM20.6013 11.9187L17.9098 20.1831H12.0393L15.9313 11.9187H20.6013ZM35.1691 11.9187L39.0611 20.1831H33.1906L30.4991 11.9187H35.1691ZM29.2702 11.9187L31.9616 20.1831H26.1347V11.9187H29.2702ZM24.9657 20.1831H19.1388L21.8302 11.9187H24.9657V20.1831ZM14.7258 23.7911C13.2583 23.7911 12.0323 22.7401 11.7593 21.3516H17.6923C17.4193 22.7406 16.1933 23.7911 14.7258 23.7911ZM21.9422 23.7911C20.4748 23.7911 19.2488 22.7401 18.9758 21.3516H24.9087C24.6357 22.7406 23.4092 23.7911 21.9422 23.7911ZM29.1582 23.7911C27.6907 23.7911 26.4647 22.7401 26.1917 21.3516H32.1246C31.8516 22.7406 30.6256 23.7911 29.1582 23.7911ZM36.3746 23.7911C34.9071 23.7911 33.6811 22.7401 33.4081 21.3516H39.341C39.0681 22.7406 37.8416 23.7911 36.3746 23.7911ZM43.5905 23.7911C42.123 23.7911 40.897 22.7401 40.624 21.3516H46.557C46.284 22.7406 45.058 23.7911 43.5905 23.7911ZM37.2226 11.9187C37.5451 11.9187 37.8071 11.6572 37.8071 11.3342V9.50222H39.365L46.1365 20.1831H40.353L36.4611 11.9187H37.2226ZM14.4623 5.59176C14.4623 5.11076 14.8533 4.71977 15.3343 4.71977H35.7666C36.2476 4.71977 36.6386 5.11076 36.6386 5.59176V10.7502H14.4623V5.59176ZM11.7354 9.50222H13.2928V11.3342C13.2928 11.6567 13.5543 11.9187 13.8773 11.9187H14.6388L10.7469 20.1831H4.96393L11.7354 9.50222ZM4.54343 21.3521H10.4764C10.2034 22.7406 8.97738 23.7916 7.5099 23.7916C6.04241 23.7911 4.81643 22.7406 4.54343 21.3521ZM11.8823 27.3995V40.7264H6.9794V27.3995H11.8823ZM16.1253 27.3995H24.9657V44.2008H16.1253V27.3995ZM46.733 35.9854L34.1986 33.6134L33.9321 32.6115C33.7121 31.7845 32.9891 31.2285 32.1331 31.2285H29.7931C29.4707 31.2285 29.2087 31.49 29.2087 31.813C29.2087 32.1355 29.4702 32.3975 29.7931 32.3975H32.1331C32.4566 32.3975 32.7196 32.5995 32.8026 32.9125L33.1601 34.2569C33.1621 34.2654 33.1646 34.2739 33.1671 34.2824L35.1266 41.6454C34.4896 41.9239 34.0436 42.5603 34.0436 43.2988C34.0436 44.2933 34.8526 45.1023 35.8471 45.1023H37.3886C36.4526 45.1203 35.6961 45.8858 35.6961 46.8258C35.6961 47.7773 36.4701 48.5508 37.4211 48.5508C38.3726 48.5508 39.146 47.7768 39.146 46.8258C39.146 45.8858 38.3896 45.1198 37.4536 45.1023H43.191C42.255 45.1203 41.4985 45.8858 41.4985 46.8258C41.4985 47.7773 42.2725 48.5508 43.2235 48.5508C44.175 48.5508 44.9485 47.7768 44.9485 46.8258C44.9485 45.8858 44.192 45.1198 43.256 45.1023H45.0215C45.344 45.1023 45.606 44.8408 45.606 44.5178C45.606 44.1953 45.3445 43.9333 45.0215 43.9333H35.8461C35.4961 43.9333 35.2116 43.6488 35.2116 43.2988C35.2116 42.9518 35.4911 42.6693 35.8366 42.6643C35.8441 42.6643 35.8511 42.6643 35.8586 42.6643H45.0665C45.328 42.6643 45.558 42.4903 45.629 42.2389L47.1865 36.7199C47.231 36.5619 47.207 36.3929 47.121 36.2534C47.0345 36.1129 46.894 36.0159 46.733 35.9854ZM37.9771 46.8253C37.9771 47.1323 37.7276 47.3818 37.4206 47.3818C37.1136 47.3818 36.8641 47.1323 36.8641 46.8253C36.8641 46.5183 37.1136 46.2688 37.4206 46.2688C37.7276 46.2688 37.9771 46.5183 37.9771 46.8253ZM43.78 46.8253C43.78 47.1323 43.5305 47.3818 43.2235 47.3818C42.9165 47.3818 42.667 47.1323 42.667 46.8253C42.667 46.5183 42.9165 46.2688 43.2235 46.2688C43.5305 46.2688 43.78 46.5183 43.78 46.8253ZM44.6245 41.4944H36.2956L34.5316 34.8659L45.8885 37.0154L44.6245 41.4944ZM24.1867 34.6944V36.9059C24.1867 37.2284 23.9252 37.4904 23.6022 37.4904C23.2797 37.4904 23.0177 37.2289 23.0177 36.9059V34.6944C23.0177 34.3719 23.2792 34.1099 23.6022 34.1099C23.9247 34.1099 24.1867 34.3719 24.1867 34.6944ZM27.4982 34.1099C27.8207 34.1099 28.0827 34.3714 28.0827 34.6944V36.9059C28.0827 37.2284 27.8212 37.4904 27.4982 37.4904C27.1757 37.4904 26.9137 37.2289 26.9137 36.9059V34.6944C26.9137 34.3719 27.1757 34.1099 27.4982 34.1099Z" fill="url(#paint0_linear_3873_5113)"/>
<defs>
<linearGradient id="paint0_linear_3873_5113" x1="20.5931" y1="67.8456" x2="67.637" y2="25.7248" gradientUnits="userSpaceOnUse">
<stop stop-color="#FF1717"/>
<stop offset="1" stop-color="#FF6461"/>
</linearGradient>
</defs>
</svg>
