<svg width="53" height="53" viewBox="0 0 53 53" fill="none" xmlns="http://www.w3.org/2000/svg">
<path d="M48.5908 43.4702H46.8972V40.5669C46.8972 40.1662 46.5721 39.8411 46.1714 39.8411H44.4779V31.6154H46.1714C46.5721 31.6154 46.8972 31.2903 46.8972 30.8896V28.3058H48.5908C48.9215 28.3058 49.2107 28.0828 49.292 27.7633C49.3752 27.442 49.2334 27.1075 48.9442 26.9468L35.7685 19.6244L35.226 18.7928C35.4245 18.4015 35.5927 17.997 35.7345 17.5831L37.3014 17.258H37.3033C37.6397 17.1899 37.8835 16.8932 37.8835 16.5473V12.6763C37.8835 12.3323 37.6397 12.0337 37.3033 11.9656L35.759 11.6462C35.6267 11.2209 35.4642 10.8051 35.2752 10.4025L36.137 9.09079C36.3336 8.78837 36.2788 8.38768 36.0104 8.14763L33.2527 5.39374C33.0089 5.15181 32.629 5.11401 32.3436 5.30301L31.0564 6.17437C30.6462 5.96645 30.2228 5.79067 29.7881 5.64511L29.4782 4.13113C29.4063 3.78902 29.102 3.54522 28.7524 3.55088H24.8814C24.5317 3.54521 24.2274 3.78903 24.1556 4.13113L23.8456 5.64511C23.4109 5.79065 22.9875 5.96643 22.5774 6.17437L21.2807 5.32193C20.9953 5.13293 20.6154 5.17262 20.3716 5.41455L17.6234 8.14764C17.3814 8.39335 17.3417 8.77328 17.5308 9.06244L18.3926 10.3742C18.1942 10.7749 18.024 11.1907 17.8842 11.6178L16.34 11.9373L16.3418 11.9354C16.0035 12.0053 15.7597 12.3021 15.7597 12.648V16.5435C15.7597 16.8875 16.0035 17.1842 16.3418 17.2542L17.9088 17.5793V17.5774C18.0411 17.9914 18.2036 18.3958 18.3926 18.7871L17.8653 19.6244L4.68956 26.9468C4.40037 27.1075 4.25862 27.442 4.34178 27.7633C4.42306 28.0828 4.71224 28.3058 5.043 28.3058H6.73654V30.8896C6.73654 31.2903 7.06164 31.6154 7.46235 31.6154H9.15589V39.8411H7.46235C7.06164 39.8411 6.73654 40.1662 6.73654 40.5669V43.4702H5.043C4.6423 43.4702 4.3172 43.7953 4.3172 44.196V47.825C4.3172 48.2257 4.6423 48.5508 5.043 48.5508H48.5912C48.9919 48.5508 49.317 48.2257 49.317 47.825V44.1903C49.3151 43.7915 48.9896 43.4702 48.5908 43.4702ZM47.865 47.0992H5.7684V44.9218H47.865V47.0992ZM8.18774 41.2928H45.4456V43.4702H8.18774V41.2928ZM19.8838 18.4885C19.5757 17.9479 19.3338 17.3714 19.1618 16.7742C19.0862 16.5077 18.8631 16.3092 18.591 16.2619L17.1828 15.9709V13.2566L18.591 12.9864C18.8575 12.9297 19.0692 12.7312 19.1429 12.4685C19.3111 11.8599 19.5511 11.2739 19.8592 10.722C20.001 10.4895 20.001 10.1985 19.8592 9.96784L19.0748 8.77709L21.0103 6.84162L22.1708 7.61087C22.3863 7.75641 22.6622 7.7772 22.8966 7.6638C23.4542 7.35004 24.0477 7.10241 24.6639 6.92856C24.9247 6.85484 25.125 6.64315 25.1817 6.37666L25.4615 5.00257H28.1719L28.4516 6.36156C28.5084 6.62806 28.7087 6.83976 28.9695 6.91346C29.5857 7.09302 30.1792 7.3444 30.7368 7.66384C30.973 7.79615 31.2641 7.7867 31.4909 7.63927L32.6514 6.87002L34.5869 8.80549L33.8119 9.98115H33.8138C33.6645 10.208 33.6551 10.5009 33.7893 10.7372C34.0955 11.2891 34.3374 11.8751 34.5056 12.4837C34.5812 12.7351 34.7854 12.9278 35.0424 12.9865L36.4317 13.2719V15.9861L35.0235 16.2772C34.757 16.3301 34.5434 16.5285 34.4716 16.7894C34.2996 17.3867 34.0577 17.9613 33.7496 18.5018C33.6192 18.74 33.6305 19.0311 33.7798 19.2579L34.5586 20.4525L32.6231 22.3879L31.404 21.5846C31.1904 21.4447 30.9163 21.4277 30.6876 21.5411C30.1508 21.8398 29.58 22.0742 28.9884 22.2386C28.7276 22.3142 28.531 22.5278 28.4762 22.7943L28.1813 24.2459H25.4577L25.1628 22.7943H25.1609C25.1042 22.5296 24.9077 22.3179 24.6487 22.2424C24.0552 22.076 23.4844 21.8417 22.9457 21.5411C22.7095 21.4107 22.4203 21.4202 22.1954 21.5695L20.9819 22.3728L19.0464 20.4373L19.8403 19.2277H19.8384C19.9877 19.0084 20.0048 18.7247 19.8838 18.4885ZM17.852 21.2953L20.3733 23.8167L20.3715 23.8148C20.6153 24.0568 20.9952 24.0946 21.2806 23.9074L22.6396 23.0172H22.6415C23.0252 23.2043 23.4202 23.3669 23.8266 23.5011L24.1555 25.0831C24.2216 25.4309 24.5278 25.6823 24.8813 25.6785H28.7522C29.1057 25.6823 29.4119 25.4309 29.478 25.0831L29.8069 23.4916C30.2133 23.3574 30.6083 23.1949 30.992 23.0077L32.351 23.898H32.3529C32.6383 24.0851 33.0182 24.0473 33.262 23.8053L35.7834 21.284L45.7898 26.8542H7.84385L17.852 21.2953ZM8.17458 28.3056H45.4325L45.4306 30.1636H8.17269L8.17458 28.3056ZM38.1744 39.856H34.7874V31.6303H38.1744V39.856ZM20.2713 31.6303H23.6584V39.856H20.2713V31.6303ZM25.11 31.6303H28.4971V39.856H25.11V31.6303ZM29.9487 31.6303H33.3358V39.856H29.9487V31.6303ZM15.4326 31.6303H18.8197V39.856H15.4326V31.6303ZM43.0131 39.856H39.626V31.6303H43.0131V39.856ZM10.5939 31.6303H13.981V39.856H10.5939V31.6303Z" fill="url(#paint0_linear_3873_5099)"/>
<path d="M26.8165 19.5916C28.8446 19.5935 30.6742 18.3744 31.451 16.5013C32.2279 14.6282 31.8007 12.4716 30.368 11.0369C28.9353 9.60236 26.7787 9.17138 24.9037 9.94823C23.0306 10.7232 21.8077 12.5509 21.8077 14.579C21.8115 17.3442 24.051 19.5882 26.8165 19.5916ZM23.2593 14.5792C23.2612 13.1408 24.1306 11.8461 25.4594 11.298C26.7881 10.748 28.3172 11.0542 29.3322 12.0711C30.3491 13.0898 30.6534 14.6189 30.1015 15.9458C29.5515 17.2745 28.2548 18.1402 26.8164 18.1402C24.8507 18.1383 23.2593 16.5449 23.2593 14.5792Z" fill="url(#paint1_linear_3873_5099)"/>
<defs>
<linearGradient id="paint0_linear_3873_5099" x1="21.8003" y1="67.8456" x2="68.9026" y2="25.1661" gradientUnits="userSpaceOnUse">
<stop stop-color="#FF1717"/>
<stop offset="1" stop-color="#FF6461"/>
</linearGradient>
<linearGradient id="paint1_linear_3873_5099" x1="25.703" y1="23.8901" x2="36.1967" y2="14.3808" gradientUnits="userSpaceOnUse">
<stop stop-color="#FF1717"/>
<stop offset="1" stop-color="#FF6461"/>
</linearGradient>
</defs>
</svg>
