<svg width="53" height="53" viewBox="0 0 53 53" fill="none" xmlns="http://www.w3.org/2000/svg">
<path fill-rule="evenodd" clip-rule="evenodd" d="M35.8927 32.1789C35.6477 32.3311 35.3249 32.2569 35.1709 32.0138C35.0169 31.7707 35.0855 31.4479 35.3286 31.2902L39.1175 28.8855C39.65 28.468 39.9395 27.8112 39.8857 27.1358C39.8541 26.8445 39.7521 26.5661 39.5907 26.3231C39.0804 25.5364 38.0413 25.2914 37.2342 25.7664L32.384 28.5738L32.3599 28.5868C27.8102 30.9377 28.2815 34.0365 28.7472 37.1017C29.0255 38.4599 29.1016 39.8534 28.9736 41.2338L37.65 41.6198C38.2437 38.9998 40.1419 36.9737 41.9565 35.04C43.8807 32.9897 45.7028 31.0452 45.4986 28.7405L44.2239 14.29V14.2882C44.2072 14.0247 44.0903 13.7761 43.8974 13.5942C43.7025 13.3382 43.35 13.2658 43.0698 13.4235C42.4649 13.8874 41.9862 14.4978 41.68 15.1974C41.5576 15.4219 41.4611 15.6575 41.3906 15.9043C41.3238 16.1511 41.2867 16.4053 41.2756 16.6595L40.8339 26.54H40.8358C40.8803 26.6977 40.9119 26.8591 40.9304 27.0224C41.0269 28.0466 40.6002 29.0504 39.7949 29.6906C39.7689 29.7166 39.7392 29.7407 39.7077 29.7593L35.8909 32.1825L35.8927 32.1789ZM24.3458 11.5662H27.5428C27.7488 11.5662 27.9455 11.6497 28.092 11.7963L28.0957 11.8V11.7981C28.2405 11.9447 28.324 12.1414 28.324 12.3492V14.0934L30.0681 14.0916C30.2741 14.0934 30.4726 14.175 30.6173 14.3216C30.7658 14.4682 30.8474 14.6686 30.8474 14.8764V18.0716C30.8474 18.5039 30.4986 18.8546 30.0681 18.8564H28.3258V20.6006C28.3258 20.8066 28.2423 21.0051 28.0957 21.1498C27.9491 21.2982 27.7506 21.3799 27.5428 21.3799H24.3458C24.138 21.3799 23.9394 21.2982 23.7928 21.1498C23.7761 21.135 23.7613 21.1183 23.7483 21.0997C23.6277 20.9587 23.5627 20.7806 23.5627 20.595V18.8564H21.8186C21.6108 18.8564 21.4141 18.7729 21.2675 18.6263C21.1209 18.4797 21.0374 18.2812 21.0374 18.0734V14.8764C21.0374 14.6686 21.1209 14.47 21.2675 14.3234C21.2842 14.3067 21.3009 14.2919 21.3176 14.2789C21.4567 14.1601 21.6349 14.0933 21.8186 14.0933H23.5627L23.5609 12.3492C23.5627 12.1432 23.6444 11.9465 23.7909 11.8L23.7947 11.7963C23.9412 11.6515 24.1379 11.5699 24.3439 11.568L24.3458 11.5662ZM27.27 12.6201V14.6203H27.2719C27.27 14.7614 27.3257 14.8949 27.424 14.9951C27.5242 15.0935 27.6578 15.1491 27.7988 15.1491H29.799V17.8006H27.7988C27.5075 17.8006 27.2719 18.0363 27.2719 18.3276V20.3278H24.6186V18.3276C24.6186 18.1866 24.5629 18.053 24.4627 17.9546C24.3644 17.8544 24.2308 17.8006 24.0897 17.8006H22.0896V15.1492H24.0897C24.2308 15.151 24.3644 15.0935 24.4646 14.9951C24.5629 14.895 24.6186 14.7614 24.6186 14.6203V12.6202L27.27 12.6201ZM25.9452 8.53622C28.413 8.53622 30.7399 9.68477 32.2428 11.6423C33.7439 13.6017 34.2504 16.1456 33.6121 18.5298C32.972 20.9141 31.2612 22.8642 28.9809 23.8085C26.7023 24.753 24.1121 24.5841 21.9746 23.3502C19.8371 22.1164 18.3953 19.9584 18.0744 17.511C17.7515 15.0637 18.5865 12.6071 20.3306 10.861C21.8187 9.37106 23.8394 8.53436 25.9452 8.53622ZM30.8121 11.607C32.3243 13.1211 33.0479 15.2512 32.7696 17.374C32.4894 19.4948 31.2388 21.367 29.3852 22.4356C27.5335 23.5063 25.2865 23.6528 23.3104 22.8346C21.3325 22.0163 19.8499 20.3241 19.2952 18.2571C18.7422 16.1901 19.1801 13.9821 20.4827 12.2844C21.7852 10.5867 23.804 9.59212 25.9452 9.59212C27.771 9.59026 29.5225 10.3156 30.8121 11.607ZM25.6465 29.3066C15.2781 22.6119 11.3555 16.3737 11.0178 11.741C10.849 9.96897 11.3091 8.19326 12.3185 6.72731C13.2741 5.39322 14.6453 4.41353 16.2187 3.94038C19.1708 3.01821 22.8835 3.68246 25.9453 6.47679C29.005 3.6843 32.7179 3.01821 35.6682 3.94038C37.2398 4.41352 38.611 5.39322 39.5684 6.72731C40.5759 8.19312 41.036 9.96882 40.8691 11.741C40.5314 16.3759 36.6052 22.6176 26.2276 29.3142V29.316C26.0495 29.4292 25.8194 29.4255 25.645 29.3067L25.6465 29.3066ZM12.068 11.6664C11.9178 10.1374 12.3111 8.603 13.1776 7.33199C14.0015 6.18904 15.1796 5.35033 16.5305 4.94586C19.2636 4.09233 22.7482 4.78629 25.574 7.5751C25.78 7.77734 26.1066 7.77734 26.3125 7.5751C29.1384 4.78631 32.6229 4.09238 35.3561 4.94586C36.7069 5.35035 37.8851 6.18904 38.7089 7.33199C39.5754 8.603 39.9688 10.1374 39.8185 11.6664C39.5049 15.9748 35.7791 21.8305 25.9432 28.243C16.1073 21.8305 12.3816 15.9747 12.068 11.6664ZM24.2751 44.3005L24.1824 42.2316L13.1571 42.7214L13.248 44.7922L24.2751 44.3005ZM25.2288 42.0647C25.2047 41.5507 24.7705 41.1536 24.2584 41.174L23.9727 41.187C23.8428 39.8752 23.9133 38.5504 24.1823 37.259C24.7056 33.8282 25.2325 30.3586 20.0224 27.6587L15.1683 24.8495L15.1461 24.8365V24.8384C14.1589 24.2761 12.9287 24.3689 12.0381 25.0721L11.6596 16.6147C11.6355 15.943 11.4536 15.288 11.1326 14.698C10.7393 13.8203 10.1177 13.0652 9.33279 12.5085C8.65183 12.0799 7.75935 12.2228 7.2491 12.8425C6.878 13.2006 6.65349 13.683 6.61269 14.1952L5.33797 28.6495C5.09305 31.4197 7.07282 33.5311 9.16583 35.7617C10.8357 37.543 12.5836 39.4059 13.1663 41.6679L12.99 41.6753V41.6772C12.476 41.6994 12.0789 42.1336 12.0994 42.6476L12.2014 44.9577H12.2033C12.2255 45.4661 12.6523 45.8613 13.1607 45.8483L13.2405 47.6611C13.2646 48.1751 13.6988 48.5722 14.2127 48.5499L23.6235 48.1324H23.6253C23.6532 48.1324 23.6829 48.1305 23.7107 48.125C24.1876 48.0693 24.5457 47.663 24.5364 47.1824C24.5364 47.1601 24.5364 47.1397 24.5327 47.1174L24.4548 45.3436V45.3454C24.9613 45.3139 25.3491 44.8816 25.3287 44.375L25.2288 42.0647ZM23.4049 45.3915L23.4792 47.0837L14.2855 47.4919L14.2131 45.7997L23.4068 45.3915H23.4049ZM14.2369 41.6193L22.9152 41.2334C22.7872 39.8529 22.8633 38.4595 23.1397 37.1013C23.6054 34.0379 24.0786 30.9371 19.5271 28.5864L19.503 28.5734L14.6527 25.766C13.8456 25.291 12.8065 25.5359 12.2981 26.3227C12.1348 26.5657 12.0347 26.8441 12.0013 27.1335C11.9493 27.8089 12.2369 28.4657 12.7694 28.8851L16.5583 31.2898C16.6771 31.3621 16.7624 31.4827 16.794 31.62C16.8255 31.7555 16.8014 31.9002 16.7253 32.019C16.6511 32.1377 16.5305 32.2231 16.3932 32.2528C16.2559 32.2824 16.1112 32.2565 15.9943 32.1785L12.1775 29.7553V29.7571C12.146 29.7367 12.1163 29.7144 12.0903 29.6885C11.285 29.0465 10.8583 28.0427 10.9548 27.0184C10.9733 26.8552 11.0049 26.6937 11.0513 26.536L10.6097 16.6555V16.6573C10.593 16.1452 10.4557 15.6424 10.207 15.1952C9.90272 14.4957 9.42402 13.8853 8.81725 13.4214C8.53893 13.2637 8.18455 13.336 7.9897 13.5921C7.79673 13.7739 7.67984 14.0207 7.665 14.286L6.39028 28.7366C6.18618 31.0429 8.00823 32.9875 9.93238 35.036C11.747 36.9694 13.6452 38.9956 14.2371 41.6158L14.2369 41.6193ZM27.9175 41.187C28.0473 39.8733 27.9768 38.5485 27.7078 37.2571C27.1845 33.8263 26.6576 30.3568 31.8678 27.6568L36.718 24.8495L36.7403 24.8365V24.8384C37.5901 24.3615 38.6236 24.3578 39.4771 24.8254C39.607 24.8977 39.7313 24.9794 39.8482 25.0721L40.2267 16.6147C40.2508 15.943 40.4308 15.288 40.7537 14.698C41.147 13.8203 41.7686 13.0652 42.5535 12.5085C43.2345 12.0818 44.1251 12.2246 44.6372 12.8425C45.0083 13.2025 45.2365 13.683 45.2774 14.197L46.5521 28.6475C46.797 31.4178 44.8172 33.5291 42.7242 35.7598C41.0543 37.541 39.3064 39.4039 38.7238 41.6659L38.9001 41.6734V41.6752C39.4122 41.6975 39.8111 42.1317 39.7889 42.6456L39.6887 44.9557C39.6664 45.4641 39.2396 45.8593 38.7312 45.8445L38.6515 47.6573V47.6592C38.6403 47.9059 38.5308 48.1397 38.3472 48.3067C38.1653 48.4737 37.9223 48.5609 37.6755 48.5498L28.2628 48.1305C28.235 48.1305 28.2053 48.1286 28.1775 48.123C27.7006 48.0674 27.3425 47.6592 27.3499 47.1804C27.3499 47.1582 27.3518 47.1378 27.3536 47.1155L27.4334 45.3417V45.3435C26.9269 45.312 26.5372 44.8796 26.5576 44.3731L26.6578 42.063C26.6819 41.549 27.1161 41.1519 27.6282 41.1724L27.914 41.1854L27.9175 41.187ZM37.6754 45.7997L28.4818 45.3915L28.4075 47.0837L37.6012 47.4919L37.6754 45.7997ZM27.7042 42.2298L27.6133 44.3005L38.6385 44.7903L38.7313 42.7196L27.7042 42.2298Z" fill="url(#paint0_linear_3873_5119)"/>
<defs>
<linearGradient id="paint0_linear_3873_5119" x1="21.3456" y1="67.8456" x2="67.8745" y2="29.194" gradientUnits="userSpaceOnUse">
<stop stop-color="#FF1717"/>
<stop offset="1" stop-color="#FF6461"/>
</linearGradient>
</defs>
</svg>
