<svg width="69" height="68" viewBox="0 0 69 68" fill="none" xmlns="http://www.w3.org/2000/svg">
<path d="M26.1505 28.0261H29.757C30.3972 28.0261 30.7955 27.7273 30.952 27.1298L32.7872 19.7248H30.9307L33.6196 32.7636C33.6907 33.1619 33.8757 33.4322 34.1744 33.5745C34.4873 33.7025 34.8003 33.7025 35.1133 33.5745C35.4263 33.4464 35.6469 33.1904 35.7749 32.8063L38.8052 22.3283L37.0766 22.2856L38.2077 27.0658C38.3499 27.706 38.7483 28.0261 39.4026 28.0261H42.7531C43.066 28.0261 43.3292 27.9194 43.5426 27.706C43.756 27.4926 43.8628 27.2365 43.8628 26.9378C43.8628 26.6248 43.756 26.3616 43.5426 26.1482C43.3292 25.9348 43.066 25.828 42.7531 25.828H39.616L40.1709 26.2549L38.9545 21.5387C38.8549 21.1688 38.6558 20.927 38.357 20.8132C38.0582 20.6851 37.7595 20.6923 37.4608 20.8345C37.162 20.9626 36.9486 21.2115 36.8206 21.5814L33.7262 31.6966H35.5188L32.8726 18.6578C32.7873 18.2737 32.5952 18.0177 32.2964 17.8896C31.9977 17.7474 31.6918 17.7402 31.3789 17.8682C31.0659 17.9963 30.8667 18.2524 30.7813 18.6365L28.8608 26.4896L29.5009 25.828H26.1505C25.8376 25.828 25.5744 25.9419 25.361 26.1695C25.1476 26.3829 25.0408 26.639 25.0408 26.9378C25.0408 27.2365 25.1476 27.4926 25.361 27.706C25.5744 27.9194 25.8376 28.0261 26.1505 28.0261ZM26.364 39.379H42.561C42.9308 39.379 43.2368 39.251 43.4786 38.9949C43.7347 38.7388 43.8628 38.4258 43.8628 38.0559C43.8628 37.686 43.7347 37.3801 43.4786 37.1383C43.2368 36.8822 42.9308 36.7541 42.561 36.7541H26.364C25.9798 36.7541 25.6598 36.8822 25.4037 37.1383C25.1618 37.3801 25.0408 37.686 25.0408 38.0559C25.0408 38.4258 25.1618 38.7388 25.4037 38.9949C25.6598 39.251 25.9798 39.379 26.364 39.379ZM26.364 46.8266H34.025C34.4091 46.8266 34.7221 46.7057 34.964 46.4639C35.2201 46.2078 35.3481 45.8948 35.3481 45.5249C35.3481 45.155 35.2201 44.842 34.964 44.5859C34.7221 44.3298 34.4091 44.2018 34.025 44.2018H26.364C25.9798 44.2018 25.6598 44.3298 25.4037 44.5859C25.1618 44.842 25.0408 45.155 25.0408 45.5249C25.0408 45.8948 25.1618 46.2078 25.4037 46.4639C25.6598 46.7057 25.9798 46.8266 26.364 46.8266ZM16.5049 49.8783C16.5049 52.1118 17.0526 53.7835 18.1481 54.8931C19.2577 56.0028 20.9151 56.5577 23.1203 56.5577H45.7833C47.9884 56.5577 49.6388 56.0028 50.7342 54.8931C51.8439 53.7835 52.3987 52.1118 52.3987 49.8783V17.5055C52.3987 15.2861 51.8439 13.6145 50.7342 12.4906C49.6388 11.3667 47.9884 10.8047 45.7833 10.8047H23.1203C20.9151 10.8047 19.2577 11.3667 18.1481 12.4906C17.0526 13.6145 16.5049 15.2861 16.5049 17.5055V49.8783ZM19.9406 49.8142V17.5695C19.9406 16.5025 20.2181 15.6844 20.7729 15.1154C21.3419 14.5321 22.1813 14.2404 23.291 14.2404H45.6126C46.7223 14.2404 47.5545 14.5321 48.1094 15.1154C48.6785 15.6844 48.963 16.5025 48.963 17.5695V49.8142C48.963 50.8812 48.6785 51.6993 48.1094 52.2683C47.5545 52.8374 46.7223 53.1219 45.6126 53.1219H23.291C22.1813 53.1219 21.3419 52.8374 20.7729 52.2683C20.2181 51.6993 19.9406 50.8812 19.9406 49.8142Z" fill="black"/>
</svg>
