<svg width="69" height="68" viewBox="0 0 69 68" fill="none" xmlns="http://www.w3.org/2000/svg">
<g clip-path="url(#clip0_3873_5238)">
<path d="M11.6599 21.3557V24.3646H57.4129V21.3557H11.6599ZM16.0774 53.451H52.9955C55.2434 53.451 56.9221 52.8961 58.0318 51.7865C59.1415 50.691 59.6962 49.0478 59.6962 46.857V20.7795C59.6962 18.5886 59.1415 16.9383 58.0318 15.8286C56.9221 14.7189 55.2434 14.1641 52.9955 14.1641H16.0774C13.8438 14.1641 12.1651 14.7189 11.0411 15.8286C9.93144 16.9241 9.37665 18.5743 9.37665 20.7795V46.857C9.37665 49.0478 9.93144 50.691 11.0411 51.7865C12.1651 52.8961 13.8438 53.451 16.0774 53.451ZM16.1201 50.0153C15.0531 50.0153 14.2351 49.7378 13.666 49.183C13.0969 48.614 12.8123 47.7746 12.8123 46.6649V20.9715C12.8123 19.8618 13.0969 19.0225 13.666 18.4534C14.2351 17.8844 15.0531 17.5998 16.1201 17.5998H52.9528C54.0056 17.5998 54.8166 17.8844 55.3856 18.4534C55.9689 19.0225 56.2606 19.8618 56.2606 20.9715V46.6649C56.2606 47.7746 55.9689 48.614 55.3856 49.183C54.8166 49.7378 54.0056 50.0153 52.9528 50.0153H16.1201ZM34.5578 45.4485C35.0131 45.4485 35.4114 45.2849 35.7529 44.9577C36.0943 44.6305 36.2649 44.2392 36.2649 43.784V36.7418L36.1156 33.1567L37.9508 35.0772L40.7251 37.8514C40.8958 38.0221 41.0807 38.1502 41.2798 38.2356C41.479 38.3209 41.6782 38.3636 41.8774 38.3636C42.3326 38.3636 42.7097 38.2213 43.0084 37.9368C43.3071 37.6523 43.4566 37.2895 43.4566 36.8485C43.4566 36.6066 43.4067 36.3932 43.3071 36.2083C43.2218 36.0091 43.0867 35.8313 42.9017 35.6748L35.7955 29.0594C35.3687 28.6753 34.9561 28.4832 34.5578 28.4832C34.1594 28.4832 33.7468 28.6753 33.32 29.0594L26.2139 35.6748C26.0431 35.8313 25.908 36.0091 25.8084 36.2083C25.7088 36.3932 25.659 36.6066 25.659 36.8485C25.659 37.2895 25.8013 37.6523 26.0858 37.9368C26.3846 38.2213 26.7615 38.3636 27.2168 38.3636C27.6579 38.3636 28.049 38.1929 28.3905 37.8514L31.1647 35.0772L33 33.1567L32.8719 36.7418V43.784C32.8719 44.2392 33.0355 44.6305 33.3627 44.9577C33.7042 45.2849 34.1025 45.4485 34.5578 45.4485Z" fill="black"/>
</g>
<defs>
<clipPath id="clip0_3873_5238">
<rect width="67.2374" height="67.2374" fill="white" transform="translate(0.918396 0.1875)"/>
</clipPath>
</defs>
</svg>
