<svg width="69" height="68" viewBox="0 0 69 68" fill="none" xmlns="http://www.w3.org/2000/svg">
<g clip-path="url(#clip0_3873_5214)">
<path d="M3.67953 48.5764C3.67953 49.2451 3.91428 49.8142 4.38375 50.2837C4.85323 50.7674 5.4223 51.0093 6.09095 51.0093H62.8126C63.4813 51.0093 64.0503 50.7674 64.5198 50.2837C64.9893 49.8142 65.2241 49.2451 65.2241 48.5764C65.2241 47.9078 64.9893 47.3388 64.5198 46.8693C64.0503 46.3856 63.4813 46.1437 62.8126 46.1437H58.1392V20.8131C58.1392 19.3194 57.7479 18.1955 56.9655 17.4414C56.1972 16.6732 55.0662 16.2891 53.5724 16.2891H15.3312C13.9227 16.2891 12.8059 16.6732 11.9808 17.4414C11.1698 18.1955 10.7644 19.3194 10.7644 20.8131V46.1437H6.09095C5.4223 46.1437 4.85323 46.3856 4.38375 46.8693C3.91428 47.3388 3.67953 47.9078 3.67953 48.5764ZM14.2001 46.1437V21.7734C14.2001 21.0906 14.3708 20.5784 14.7123 20.237C15.0537 19.8955 15.5659 19.7248 16.2488 19.7248H52.6548C53.3377 19.7248 53.8498 19.8955 54.1912 20.237C54.5327 20.5784 54.7034 21.0906 54.7034 21.7734V46.1437H14.2001Z" fill="black"/>
</g>
<defs>
<clipPath id="clip0_3873_5214">
<rect width="67.2374" height="67.2374" fill="white" transform="translate(0.83255 0.03125)"/>
</clipPath>
</defs>
</svg>
