<svg width="69" height="68" viewBox="0 0 69 68" fill="none" xmlns="http://www.w3.org/2000/svg">
<g clip-path="url(#clip0_3873_5221)">
<path d="M34.5365 54.5076C37.3818 54.5076 40.0564 53.9598 42.5604 52.8644C45.0785 51.7831 47.2907 50.2893 49.1971 48.383C51.1177 46.4624 52.6257 44.2501 53.7212 41.7462C54.8166 39.2281 55.3643 36.5464 55.3643 33.701C55.3643 30.8557 54.8166 28.1811 53.7212 25.6772C52.6257 23.1591 51.1177 20.9469 49.1971 19.0404C47.2907 17.1199 45.0785 15.619 42.5604 14.5377C40.0422 13.4423 37.3605 12.8945 34.5152 12.8945C31.6698 12.8945 28.9952 13.4352 26.4913 14.5164C23.9875 15.5976 21.7752 17.0985 19.8546 19.0191C17.9482 20.9397 16.4473 23.1591 15.3518 25.6772C14.2707 28.1811 13.73 30.8557 13.73 33.701C13.73 36.5464 14.2707 39.2281 15.3518 41.7462C16.4473 44.2501 17.9482 46.4624 19.8546 48.383C21.7752 50.2893 23.9875 51.7831 26.4913 52.8644C29.0094 53.9598 31.6912 54.5076 34.5365 54.5076ZM34.5365 50.8798C32.1607 50.8798 29.9342 50.4387 27.8571 49.5566C25.78 48.6746 23.9518 47.4511 22.3727 45.8861C20.8078 44.307 19.5843 42.4789 18.7023 40.4018C17.8202 38.3247 17.3791 36.0912 17.3791 33.701C17.3791 31.3109 17.8202 29.0774 18.7023 27.0003C19.5843 24.9232 20.8078 23.1022 22.3727 21.5372C23.9376 19.9581 25.7587 18.7275 27.8357 17.8455C29.9128 16.9492 32.1393 16.5011 34.5152 16.5011C36.9053 16.5011 39.1388 16.9492 41.2159 17.8455C43.293 18.7275 45.114 19.9581 46.679 21.5372C48.2581 23.1022 49.4887 24.9232 50.3707 27.0003C51.267 29.0774 51.7223 31.3109 51.7365 33.701C51.7365 36.0769 51.2955 38.3034 50.4134 40.3805C49.5314 42.4575 48.3008 44.2857 46.7216 45.8649C45.1424 47.444 43.3143 48.6746 41.2373 49.5566C39.1602 50.4387 36.9266 50.8798 34.5365 50.8798ZM4.08435 33.701C4.08435 37.0727 4.60362 40.288 5.64216 43.3468C6.68071 46.4055 8.13183 49.201 9.99554 51.7333C10.3227 52.1885 10.7353 52.4376 11.2332 52.4803C11.7454 52.5372 12.2149 52.3949 12.6417 52.0534C13.0258 51.7262 13.2392 51.3279 13.2818 50.8584C13.3387 50.3889 13.2107 49.9408 12.8978 49.514C11.2759 47.3089 10.0097 44.8619 9.09925 42.173C8.18874 39.4842 7.73349 36.6602 7.73349 33.701C7.73349 30.7276 8.18874 27.9037 9.09925 25.2291C10.0097 22.5402 11.2759 20.079 12.8978 17.8455C13.2107 17.4329 13.3459 16.9918 13.3032 16.5223C13.2605 16.0529 13.04 15.6545 12.6417 15.3273C12.2149 14.9859 11.7454 14.8437 11.2332 14.9006C10.7353 14.9575 10.3227 15.2064 9.99554 15.6474C8.13183 18.1798 6.68071 20.9753 5.64216 24.034C4.60362 27.0928 4.08435 30.3151 4.08435 33.701ZM64.9886 33.701C64.9886 30.3151 64.4694 27.0928 63.4308 24.034C62.3923 20.9753 60.9412 18.1798 59.0775 15.6474C58.7503 15.2064 58.3305 14.9575 57.8184 14.9006C57.3205 14.8437 56.8581 14.9859 56.4313 15.3273C56.033 15.6545 55.8125 16.0529 55.7698 16.5223C55.7413 16.9918 55.8765 17.4329 56.1752 17.8455C57.8113 20.079 59.0775 22.5402 59.9737 25.2291C60.8843 27.9037 61.3395 30.7276 61.3395 33.701C61.3395 36.6602 60.8843 39.4842 59.9737 42.173C59.0775 44.8619 57.8113 47.3089 56.1752 49.514C55.8765 49.9408 55.7485 50.3889 55.7912 50.8584C55.8338 51.3279 56.0472 51.7262 56.4313 52.0534C56.8581 52.3949 57.3205 52.5372 57.8184 52.4803C58.3305 52.4376 58.7503 52.1885 59.0775 51.7333C60.9412 49.201 62.3923 46.4055 63.4308 43.3468C64.4694 40.288 64.9886 37.0727 64.9886 33.701ZM25.6164 35.0668C25.6164 35.3229 25.7088 35.5363 25.8938 35.707C26.0787 35.8635 26.2993 35.9417 26.5553 35.9417H33.4268L29.7563 45.8222C29.5998 46.249 29.607 46.5975 29.7777 46.8678C29.9626 47.1381 30.2258 47.2804 30.5672 47.2946C30.9087 47.3089 31.2217 47.1452 31.5062 46.8038L42.6457 32.8261C42.8733 32.5558 42.9871 32.2926 42.9871 32.0365C42.9871 31.7662 42.8947 31.5528 42.7097 31.3963C42.5248 31.2256 42.3043 31.1402 42.0482 31.1402H35.1553L38.8472 21.2599C39.0037 20.8188 38.9895 20.4631 38.8045 20.1928C38.6196 19.9225 38.3563 19.7874 38.0149 19.7874C37.6877 19.7732 37.3818 19.9439 37.0973 20.2996L25.9579 34.2772C25.7302 34.5333 25.6164 34.7965 25.6164 35.0668Z" fill="black"/>
</g>
<defs>
<clipPath id="clip0_3873_5221">
<rect width="67.2374" height="67.2374" fill="white" transform="translate(0.918457 0.0820312)"/>
</clipPath>
</defs>
</svg>
