<svg width="51" height="50" viewBox="0 0 51 50" fill="none" xmlns="http://www.w3.org/2000/svg">
<rect x="0.5" width="50" height="50" rx="15" fill="#336699"/>
<path d="M33.155 7.00167L15.0417 8.76667C15.0061 8.4906 14.869 8.2377 14.6569 8.05739C14.4449 7.87709 14.1732 7.78234 13.895 7.79167C13.5825 7.79598 13.284 7.92203 13.063 8.14302C12.842 8.36401 12.716 8.6625 12.7117 8.975C12.7117 9.40167 12.945 9.73333 13.255 9.94167L5.67667 26.3817L5.59834 26.455C5.49834 26.555 5.5 26.555 5.5 26.655C5.5 26.655 5.5 26.7517 5.59834 26.7517L16.1617 41.7083C15.9809 41.9166 15.8778 42.181 15.87 42.4567C15.87 43.1483 16.4617 43.64 17.0533 43.64C17.2037 43.6456 17.3536 43.6211 17.4945 43.5681C17.6353 43.5151 17.7641 43.4346 17.8735 43.3313C17.9829 43.228 18.0706 43.1039 18.1315 42.9663C18.1924 42.8288 18.2253 42.6804 18.2283 42.53L35.995 40.7967L36.215 40.8767C36.2503 40.8462 36.2797 40.8095 36.3017 40.7683C36.3633 40.7617 36.415 40.745 36.415 40.6783L43.9983 24.2183C44.1017 24.2483 44.2067 24.2833 44.315 24.2833C44.9083 24.2833 45.5 23.6917 45.5 23.1C45.497 22.7866 45.3715 22.4869 45.1504 22.2648C44.9292 22.0428 44.63 21.916 44.3167 21.9117C44.1661 21.9128 44.0172 21.9434 43.8783 22.0017L33.35 7.1C33.25 7 33.25 7 33.1533 7L33.155 7.00167ZM32.285 7.46833L24.0317 11.9867L14.975 9.32333C15.0068 9.24218 15.0318 9.15857 15.05 9.07333L32.285 7.46833ZM32.9583 7.495L35.225 17.34L30.0333 14.1183C30.1599 13.9385 30.2473 13.7341 30.29 13.5183C30.2857 13.2058 30.1596 12.9073 29.9386 12.6864C29.7177 12.4654 29.4192 12.3393 29.1067 12.335C28.8592 12.3378 28.6189 12.4181 28.4195 12.5646C28.2201 12.7111 28.0717 12.9164 27.995 13.1517L24.545 12.1383L32.9583 7.495ZM33.4117 7.90167L43.515 22.2467C43.465 22.2933 43.4283 22.3467 43.3883 22.4017L35.595 17.5683L33.4117 7.90167ZM14.9217 9.475L23.82 12.1033L17.7467 15.4283L14.62 9.86333C14.7431 9.75351 14.8465 9.62185 14.9217 9.475ZM14.2883 10.08L17.3633 15.555L17.3833 15.6533L13.895 18.8483V10.16C14.0301 10.1591 14.1636 10.1319 14.2883 10.08ZM13.5717 10.0967C13.645 10.12 13.7217 10.135 13.7967 10.1417V18.9417L6.435 25.6883L13.5717 10.0967ZM24.3317 12.255L27.9583 13.3267C27.945 13.3917 27.9183 13.4533 27.9183 13.5183C27.9183 13.795 28.03 14.025 28.1817 14.2183L23.965 17.865L18.025 15.735L24.3317 12.255ZM28.23 14.2883C28.3389 14.4148 28.4729 14.5172 28.6236 14.5889C28.7742 14.6607 28.9382 14.7002 29.105 14.705C29.1417 14.705 29.1767 14.6967 29.2133 14.6917L30.255 20.12L24.05 17.8967L28.23 14.2883ZM29.895 14.3183L35.3033 17.68L36.37 22.3117L30.3733 20.1617L29.34 14.67C29.5545 14.6075 29.7469 14.4856 29.895 14.3183ZM17.845 15.9883L23.7233 18.0733L19.0517 22.1133L17.845 15.9883ZM17.4783 16.135L18.725 22.395L14.7583 25.8217C14.646 25.7073 14.5115 25.617 14.363 25.5566C14.2146 25.4961 14.0553 25.4666 13.895 25.47V19.4167L17.4783 16.135ZM35.6717 17.91L43.2467 22.62C43.2217 22.675 43.21 22.73 43.1933 22.7867L36.665 22.3117L35.6717 17.91ZM23.8083 18.105L30.3117 20.4117L31.49 26.5617L26.3617 30.9617L20.3883 28.8983L19.0667 22.1933L23.8083 18.105ZM13.7967 19.505V25.48C13.5027 25.5078 13.2293 25.6431 13.0288 25.8599C12.8284 26.0767 12.7148 26.3598 12.71 26.655C12.7139 26.9681 12.84 27.2672 13.0614 27.4886C13.2828 27.71 13.5819 27.8361 13.895 27.84C13.945 27.84 13.9883 27.8183 14.0367 27.8117L14.715 31.39L6.09167 26.5567L13.7967 19.505ZM30.43 20.4517L36.215 22.5067L31.565 26.4967L30.43 20.4517ZM18.74 22.475L19.9933 28.7617L14.9683 27.0267C15.0206 26.9078 15.0581 26.783 15.08 26.655C15.0823 26.3704 14.9817 26.0946 14.7967 25.8783L18.74 22.475ZM36.7067 22.7083L43.1367 23.18C43.1543 23.3722 43.2215 23.5565 43.3317 23.715L36.5517 29.7883L36.7067 22.7083ZM36.405 22.9383L36.2467 30.06L33.6367 32.3983C33.4225 32.2045 33.1455 32.0944 32.8567 32.0883C32.7733 32.0883 32.7017 32.1167 32.6233 32.13L31.6633 27.0167L36.405 22.9383ZM43.5267 23.9683C43.57 24.0083 43.625 24.03 43.6733 24.0633L36.3283 40.0233L36.545 30.1233L43.5267 23.9683ZM31.59 27.0783L32.56 32.1417C32.3786 32.1783 32.2094 32.2606 32.0686 32.3808C31.9278 32.5009 31.8198 32.6549 31.755 32.8283L26.8683 31.1383L31.59 27.0783ZM14.91 27.17L20.0267 28.94L21.2433 35.0467L14.8467 31.4633L14.135 27.79C14.3012 27.7486 14.4566 27.6718 14.5903 27.5648C14.7241 27.4578 14.8331 27.3231 14.91 27.17ZM6.37167 27.19L14.8217 31.94L16.6133 41.3617C16.5633 41.3833 16.5233 41.4183 16.4783 41.445L6.37167 27.19ZM20.4217 29.0767L26.225 31.08L21.6 35.05L20.4217 29.0767ZM36.24 30.39L36.0183 40.385L26.57 37.0183L31.9 33.9267C32.0057 34.0851 32.1476 34.2161 32.3139 34.3088C32.4803 34.4016 32.6663 34.4534 32.8567 34.46C33.1703 34.4557 33.4699 34.329 33.6916 34.1071C33.9132 33.8851 34.0395 33.5853 34.0433 33.2717C34.0382 33.0109 33.9428 32.7599 33.7733 32.5617L36.24 30.39ZM26.7333 31.255L31.7267 32.98C31.705 33.0767 31.6733 33.1667 31.6733 33.2717C31.6733 33.455 31.72 33.6217 31.7917 33.7733L26.3333 36.9333L21.945 35.3717L26.7333 31.255ZM14.9517 32.015L21.2617 35.565L17.5733 41.3867C17.3183 41.262 17.0261 41.2364 16.7533 41.315L14.9517 32.015ZM21.5917 35.71L25.8467 37.215L18.0033 41.7533C17.9617 41.695 17.925 41.6317 17.87 41.5817L21.5917 35.71ZM26.0867 37.3L35.3083 40.5583L18.185 42.1533C18.1667 42.075 18.1483 41.9967 18.115 41.925L26.0867 37.3Z" fill="white"/>
</svg>
