<svg width="51" height="50" viewBox="0 0 51 50" fill="none" xmlns="http://www.w3.org/2000/svg">
<g clip-path="url(#clip0_418_1953)">
<path d="M38.7812 0H12.2188C5.74666 0 0.5 5.24666 0.5 11.7188V38.2812C0.5 44.7533 5.74666 50 12.2188 50H38.7812C45.2533 50 50.5 44.7533 50.5 38.2812V11.7188C50.5 5.24666 45.2533 0 38.7812 0Z" fill="#242938"/>
<path d="M24.2207 5.47905C24.1367 5.48667 23.8693 5.51343 23.6287 5.53237C18.0807 6.03257 12.8838 9.02632 9.59219 13.6275C7.75957 16.1859 6.58711 19.0878 6.14434 22.1619C5.98789 23.2349 5.96875 23.5519 5.96875 25.0066C5.96875 26.4615 5.98789 26.7785 6.14453 27.8513C7.20586 35.1865 12.4258 41.3496 19.5051 43.633C20.7729 44.0415 22.1092 44.3203 23.6289 44.4882C24.2209 44.5531 26.7791 44.5531 27.3711 44.4882C29.9943 44.198 32.2166 43.549 34.4084 42.43C34.7443 42.2584 34.8094 42.2125 34.7635 42.1744C34.733 42.1513 33.301 40.2306 31.5828 37.9091L28.4594 33.6898L24.5453 27.8972C22.3918 24.7126 20.6201 22.1083 20.6047 22.1083C20.5895 22.1046 20.5742 24.6783 20.5666 27.8209C20.5551 33.3232 20.5514 33.5447 20.4826 33.6744C20.3834 33.8615 20.307 33.9378 20.1465 34.022C20.0244 34.083 19.9174 34.0945 19.3408 34.0945H18.6803L18.5045 33.9837C18.3957 33.9156 18.3073 33.8193 18.2486 33.705L18.1686 33.5332L18.1764 25.8773L18.1877 18.2175L18.3061 18.0685C18.3672 17.9884 18.4971 17.8853 18.5887 17.8357C18.7451 17.7593 18.8063 17.7517 19.4668 17.7517C20.2459 17.7517 20.3756 17.7822 20.5781 18.0037C20.6354 18.0648 22.7545 21.257 25.29 25.1021C27.857 28.9941 30.4255 32.885 32.9955 36.775L36.0885 41.4603L36.2451 41.3572C37.6311 40.456 39.0975 39.173 40.2582 37.8365C42.7287 34.9994 44.3211 31.54 44.8557 27.8513C45.0121 26.7785 45.0312 26.4615 45.0312 25.0066C45.0312 23.5517 45.0121 23.2349 44.8557 22.1619C43.7941 14.8267 38.5742 8.66382 31.4949 6.38042C30.2463 5.97554 28.9176 5.69683 27.4283 5.52886C27.0617 5.49058 24.5377 5.44878 24.2209 5.47925M32.2166 17.2935C32.3998 17.3851 32.5488 17.5607 32.6023 17.7439C32.6328 17.8433 32.6404 19.9664 32.6328 24.7507L32.6213 31.6164L31.4109 29.7605L30.1967 27.9048V22.9142C30.1967 19.6876 30.2119 17.8738 30.2348 17.7859C30.2959 17.5722 30.4295 17.4042 30.6129 17.3048C30.7693 17.2248 30.8268 17.2169 31.4262 17.2169C31.9914 17.2169 32.0906 17.2248 32.2166 17.2935Z" fill="white"/>
</g>
<defs>
<clipPath id="clip0_418_1953">
<rect width="50" height="50" fill="white" transform="translate(0.5)"/>
</clipPath>
</defs>
</svg>
