<svg width="51" height="50" viewBox="0 0 51 50" fill="none" xmlns="http://www.w3.org/2000/svg">
<g clip-path="url(#clip0_418_1945)">
<path d="M38.7812 0H12.2188C5.74666 0 0.5 5.24666 0.5 11.7188V38.2812C0.5 44.7533 5.74666 50 12.2188 50H38.7812C45.2533 50 50.5 44.7533 50.5 38.2812V11.7188C50.5 5.24666 45.2533 0 38.7812 0Z" fill="#023430"/>
<path d="M33.9322 21.0139C31.8742 11.9355 27.5851 9.51875 26.491 7.81035C26.0396 7.05787 25.6399 6.27552 25.2947 5.46875C25.2369 6.27539 25.1306 6.7832 24.4451 7.39492C23.0687 8.62207 17.223 13.3857 16.731 23.7008C16.2726 33.3184 23.8013 39.2486 24.7959 39.8617C25.5607 40.2381 26.4922 39.8697 26.9467 39.5242C30.5758 37.0336 35.5343 30.3934 33.9361 21.0139" fill="#10AA50"/>
<path d="M25.6072 34.7422C25.4178 37.1227 25.282 38.5059 24.8008 39.8662C24.8008 39.8662 25.1166 42.1324 25.3385 44.533H26.1234C26.3109 42.8425 26.5968 41.1644 26.9797 39.5072C25.9635 39.0072 25.6463 36.8311 25.6072 34.7422Z" fill="#B8C4C2"/>
<path d="M26.977 39.5057C25.95 39.0312 25.6529 36.8092 25.6072 34.7393C25.8611 31.3246 25.9351 27.899 25.8291 24.4766C25.7752 22.6809 25.8545 7.84414 25.3867 5.67188C25.7065 6.4077 26.0753 7.12127 26.4904 7.80781C27.5846 9.51758 31.875 11.9344 33.9316 21.0127C35.5338 30.3762 30.6021 36.9988 26.977 39.5057Z" fill="#12924F"/>
</g>
<defs>
<clipPath id="clip0_418_1945">
<rect width="50" height="50" fill="white" transform="translate(0.5)"/>
</clipPath>
</defs>
</svg>
