<svg width="50" height="50" viewBox="0 0 50 50" fill="none" xmlns="http://www.w3.org/2000/svg">
<g clip-path="url(#clip0_3873_4774)">
<path d="M38.2812 0H11.7188C5.24666 0 0 5.24666 0 11.7188V38.2812C0 44.7533 5.24666 50 11.7188 50H38.2812C44.7533 50 50 44.7533 50 38.2812V11.7188C50 5.24666 44.7533 0 38.2812 0Z" fill="#242938"/>
<path fill-rule="evenodd" clip-rule="evenodd" d="M42.1574 15.2954C42.1701 15.3431 42.1764 15.3917 42.1766 15.4413V23.0974C42.1766 23.1956 42.151 23.2921 42.1025 23.3771C42.0542 23.4619 41.9843 23.5324 41.9 23.5816L35.5629 27.2812V34.6142C35.5632 34.7119 35.538 34.808 35.4897 34.893C35.4415 34.9779 35.3718 35.0488 35.2877 35.0986L22.0596 42.8202C22.0293 42.8376 21.9963 42.8488 21.9633 42.8607C21.9508 42.865 21.9393 42.8726 21.9262 42.8761C21.8337 42.9008 21.7364 42.9008 21.6439 42.8761C21.6289 42.8718 21.615 42.8634 21.6006 42.8579C21.5703 42.8468 21.5387 42.837 21.5098 42.8202L8.28438 35.0986C8.20017 35.0493 8.1304 34.9788 8.08203 34.8941C8.03346 34.8088 8.00788 34.7123 8.00781 34.6142V11.646C8.00807 11.5956 8.01452 11.5468 8.02715 11.4995C8.03105 11.4833 8.04082 11.4687 8.04629 11.4527C8.05664 11.4234 8.06621 11.3935 8.08145 11.3661C8.0918 11.348 8.10684 11.3333 8.11934 11.3167C8.13496 11.2943 8.14961 11.2712 8.16816 11.2517C8.18379 11.2357 8.20469 11.2238 8.22246 11.2099C8.24238 11.1931 8.26035 11.1749 8.28301 11.1616H8.28379L14.8965 7.30091C14.9801 7.25222 15.0751 7.22656 15.1718 7.22656C15.2685 7.22656 15.3635 7.25222 15.4471 7.30091L22.0602 11.1616H22.0615C22.0834 11.1757 22.1021 11.1931 22.1221 11.2091C22.1398 11.2232 22.1598 11.2357 22.1756 11.2511C22.1949 11.2712 22.2088 11.2943 22.2252 11.3167C22.2369 11.3333 22.2527 11.348 22.2623 11.3661C22.2781 11.3941 22.2871 11.4234 22.2982 11.4527C22.3037 11.4687 22.3133 11.4833 22.3174 11.5001C22.33 11.5479 22.3365 11.5965 22.3367 11.646V25.9917L27.8473 22.7743V15.4404C27.8473 15.3915 27.8541 15.3421 27.8666 15.2954C27.8715 15.2786 27.8803 15.264 27.8859 15.248C27.8969 15.2187 27.9064 15.1886 27.9217 15.1615C27.932 15.1433 27.9471 15.1286 27.9588 15.1118C27.9754 15.0896 27.9891 15.0665 28.0084 15.047C28.0242 15.031 28.0441 15.0191 28.0621 15.005C28.0826 14.9884 28.1006 14.9702 28.1227 14.957H28.1234L34.7371 11.096C34.8206 11.0472 34.9156 11.0214 35.0123 11.0214C35.109 11.0214 35.204 11.0472 35.2875 11.096L41.9006 14.957C41.924 14.971 41.9418 14.9882 41.9625 15.0044C41.9797 15.0183 41.9996 15.031 42.0154 15.0462C42.0348 15.0665 42.0484 15.0896 42.065 15.1118C42.0773 15.1286 42.0926 15.1431 42.1021 15.1615C42.118 15.1888 42.127 15.2187 42.1379 15.248C42.1441 15.264 42.1533 15.2786 42.1574 15.2954ZM41.074 22.7743V16.4077L38.7598 17.7585L35.5627 19.6251V25.9917L41.0746 22.7743H41.074ZM34.4609 34.2911V27.9204L31.3162 29.7417L22.3359 34.9388V41.3695L34.4609 34.2911ZM9.11016 12.6124V34.2911L21.2338 41.3689V34.9394L14.9002 31.3046L14.8982 31.3033L14.8953 31.3019C14.874 31.2894 14.8562 31.2712 14.8361 31.2558C14.8189 31.2419 14.799 31.2308 14.784 31.2154L14.7826 31.2134C14.7646 31.1958 14.7521 31.1743 14.7371 31.1546C14.7234 31.1359 14.7068 31.1199 14.6959 31.1003L14.6951 31.0982C14.6826 31.0773 14.675 31.0521 14.6662 31.0284C14.6572 31.0075 14.6455 30.988 14.64 30.9656V30.9648C14.6332 30.9384 14.6318 30.9105 14.6289 30.8831C14.6262 30.8622 14.6207 30.8413 14.6207 30.8204V15.83L11.4244 13.9626L9.11016 12.613V12.6124ZM15.1727 8.42981L9.66289 11.6462L15.1713 14.8622L20.6805 11.6454L15.1713 8.43001L15.1727 8.42981ZM18.0381 28.5009L21.2346 26.6351V12.6124L18.9201 13.9634L15.7232 15.8298V29.8527L18.0381 28.5009ZM35.0125 12.2251L29.5031 15.4413L35.0125 18.6574L40.5209 15.4406L35.0125 12.2251ZM34.4611 19.6251L31.2641 17.7585L28.95 16.4077V22.7743L32.1463 24.6402L34.4611 25.9917V19.6251ZM21.7844 33.9724L29.865 29.2943L33.9045 26.9568L28.3994 23.7427L22.0609 27.4431L16.284 30.8156L21.7844 33.9724Z" fill="#FF2D20"/>
</g>
<defs>
<clipPath id="clip0_3873_4774">
<rect width="50" height="50" fill="white"/>
</clipPath>
</defs>
</svg>
