<svg width="235" height="104" viewBox="0 0 235 104" fill="none" xmlns="http://www.w3.org/2000/svg">
<path d="M229.131 0.9057C228.803 0.577477 228.271 0.577477 227.943 0.9057L222.594 6.2544C222.266 6.58262 222.266 7.11478 222.594 7.443C222.922 7.77122 223.454 7.77122 223.783 7.443L228.537 2.6886L233.291 7.443C233.62 7.77122 234.152 7.77122 234.48 7.443C234.808 7.11478 234.808 6.58262 234.48 6.2544L229.131 0.9057ZM48.2567 103.891H178.537V102.21H48.2567V103.891ZM229.377 53.0501V1.5H227.696V53.0501H229.377ZM178.537 103.891C206.615 103.891 229.377 81.1285 229.377 53.0501H227.696C227.696 80.2002 205.687 102.21 178.537 102.21V103.891ZM0.770373 56.4042C0.770373 82.6302 22.0307 103.891 48.2567 103.891V102.21C22.9591 102.21 2.45131 81.7019 2.45131 56.4042H0.770373Z" fill="url(#paint0_linear_3873_5254)"/>
<defs>
<linearGradient id="paint0_linear_3873_5254" x1="89.7748" y1="146.592" x2="174.591" y2="-25.1428" gradientUnits="userSpaceOnUse">
<stop stop-color="#FF1717"/>
<stop offset="1" stop-color="#FF6461"/>
</linearGradient>
</defs>
</svg>
