<svg width="266" height="129" viewBox="0 0 266 129" fill="none" xmlns="http://www.w3.org/2000/svg">
<path d="M259.594 128.594C259.266 128.923 258.734 128.923 258.406 128.594L253.057 123.246C252.729 122.917 252.729 122.385 253.057 122.057C253.385 121.729 253.917 121.729 254.246 122.057L259 126.811L263.754 122.057C264.083 121.729 264.615 121.729 264.943 122.057C265.271 122.385 265.271 122.917 264.943 123.246L259.594 128.594ZM47.9661 0.159538H209V1.84048H47.9661V0.159538ZM259.84 51V128H258.16V51H259.84ZM209 0.159538C237.078 0.159538 259.84 22.9216 259.84 51H258.16C258.16 23.8499 236.15 1.84048 209 1.84048V0.159538ZM0.159533 47.9661C0.159533 21.5633 21.5633 0.159538 47.9661 0.159538V1.84048C22.4916 1.84048 1.84047 22.4916 1.84047 47.9661H0.159533Z" fill="url(#paint0_linear_3873_5255)"/>
<defs>
<linearGradient id="paint0_linear_3873_5255" x1="101.237" y1="-53.4543" x2="213.3" y2="152.827" gradientUnits="userSpaceOnUse">
<stop stop-color="#FF1717"/>
<stop offset="1" stop-color="#FF6461"/>
</linearGradient>
</defs>
</svg>
