<svg width="42" height="50" viewBox="0 0 42 50" fill="none" xmlns="http://www.w3.org/2000/svg">
<path d="M27.4949 2.33088C26.6624 0.616613 30.9904 -0.0217779 32.1399 0.00056464C41.2204 0.0452069 44.4546 12.1033 36.6042 16.6501V23.2145C36.6042 23.7078 36.2046 24.1074 35.7113 24.1074C35.218 24.1074 34.8185 23.7078 34.8185 23.2145V16.1163C34.8185 15.7771 35.0104 15.4668 35.314 15.3173C37.7627 14.1008 39.2827 11.6543 39.2827 8.92879C39.3809 3.60966 33.3096 0.0134788 28.7114 2.6723C28.2828 2.9156 27.7382 2.76168 27.4949 2.33088ZM27.6757 16.6501V19.6434C27.6757 19.88 27.7695 20.1077 27.9369 20.2751L29.0909 21.4291L27.9369 22.5831C27.5887 22.9313 27.5887 23.496 27.9369 23.8464L29.0909 25.0004C28.6377 25.5249 27.611 26.2392 27.6757 26.7861V29.4646C27.6757 29.8039 27.8676 30.1119 28.169 30.2637C28.3163 30.3173 32.0997 32.315 32.1399 32.1432C32.1778 32.3507 35.9613 30.286 36.1108 30.2637C36.4144 30.1119 36.6041 29.8039 36.6041 29.4646V27.6789C36.5818 26.5026 34.8385 26.5071 34.8184 27.6789V28.9133L32.1399 30.2526L29.4613 28.9133V27.1567L30.9859 25.6321C31.3341 25.2839 31.3341 24.7191 30.9859 24.3687L29.8319 23.2148L30.9859 22.0608C31.3341 21.7126 31.3341 21.1478 30.9859 20.7974L29.4613 19.2729V16.1167C29.4613 15.7774 29.2694 15.4672 28.9658 15.3176C25.3587 13.619 23.9146 8.92284 25.8877 5.47603C26.1266 5.04523 25.9681 4.50062 25.5351 4.26399C25.102 4.02516 24.5596 4.18363 24.323 4.61667C21.9637 8.73935 23.5195 14.3731 27.6757 16.6519L27.6757 16.6501ZM35.7133 8.92679C35.7133 8.43349 35.3138 8.03394 34.8205 8.03394H29.4634C28.9701 8.03394 28.5706 8.43349 28.5706 8.92679C28.5706 9.42008 28.9701 9.81963 29.4634 9.81963H34.8205C35.3138 9.81963 35.7133 9.42008 35.7133 8.92679ZM36.9254 35.4687L28.6243 37.8771C28.6467 37.7187 28.6734 37.5602 28.6734 37.395C28.6734 35.3749 27.0284 33.7298 25.0083 33.7298H19.2227C18.7606 33.7298 18.3075 33.5982 17.9168 33.3504C15.9481 32.1183 13.4705 30.1875 11.0084 30.3571H0.890216C-0.27274 30.3772 -0.292796 32.1182 0.890216 32.1428H11.0084C13.0374 31.9776 15.3253 33.8816 16.9591 34.8571C17.6377 35.2879 18.4189 35.5155 19.2225 35.5155H25.0081C26.0438 35.5155 26.8876 36.3593 26.8876 37.395C26.8876 38.4307 26.0438 39.2744 25.0081 39.2744H16.7294C16.2361 39.2744 15.8365 39.674 15.8365 40.1673C15.8365 40.6606 16.2361 41.0601 16.7294 41.0601H25.0081C25.9768 41.0601 26.8519 40.6762 27.5081 40.0601L37.4251 37.1829C39.1081 36.703 40.0523 39.1204 38.4519 39.8905L22.8921 47.2589C19.9278 48.6629 16.4705 48.5134 13.6379 46.8616L7.45973 43.259C6.94188 42.9577 6.35037 42.797 5.75215 42.797H0.892845C0.399549 42.797 0 43.1965 0 43.6898C0 44.1831 0.399549 44.5826 0.892845 44.5826H5.75215C6.03563 44.5826 6.31687 44.6585 6.5602 44.8014L12.7384 48.404C14.5576 49.4665 16.5977 50 18.6423 50C20.3521 50 22.0642 49.625 23.6556 48.8728L39.2154 41.5043C42.7555 39.7655 40.7444 34.4284 36.9275 35.4689L36.9254 35.4687Z" fill="#FD1716"/>
</svg>
