<svg width="39" height="50" viewBox="0 0 39 50" fill="none" xmlns="http://www.w3.org/2000/svg">
<path d="M38.9401 45.085C38.8714 43.4554 38.0996 41.9052 36.8238 40.8267L35.177 39.4373V3.05971C35.177 1.37227 33.8112 0.00214416 32.1323 0.00214416L12.1423 0C12.1187 0 12.0951 0.00214403 12.0715 0.00428806C12.0523 0.00643263 12.033 0.00857665 12.0137 0.0128647C12.0094 0.0128647 12.0051 0.0150089 12.0008 0.0150089C11.9794 0.0192974 11.9558 0.0257301 11.9343 0.0321621C11.9129 0.0385947 11.8914 0.0471712 11.87 0.0557479C11.8507 0.0643245 11.8293 0.0729013 11.81 0.083622C11.8078 0.083622 11.8078 0.0857664 11.8057 0.0857664C11.7864 0.096487 11.7692 0.107208 11.7521 0.117928C11.7499 0.120073 11.7478 0.120073 11.7478 0.122217C11.7285 0.135082 11.7113 0.147947 11.6942 0.162956C11.6942 0.162956 11.692 0.162956 11.692 0.1651C11.6749 0.18011 11.6577 0.195119 11.6406 0.212272L0.207983 11.7052C0.203694 11.7095 0.199407 11.716 0.195118 11.7202C0.184397 11.731 0.173677 11.7438 0.162956 11.7546C0.158668 11.761 0.154379 11.7674 0.147946 11.7739C0.13937 11.7867 0.128649 11.7974 0.120073 11.8103C0.115784 11.8167 0.11364 11.821 0.109352 11.8275C0.100775 11.8403 0.0921983 11.8553 0.0836217 11.8703C0.0814777 11.8746 0.0793338 11.8789 0.0771892 11.8832C0.0686131 11.8982 0.0621801 11.9154 0.0536035 11.9325C0.0514594 11.9368 0.0514597 11.939 0.0493151 11.9432C0.0428825 11.9604 0.0364503 11.9797 0.0300177 11.9968C0.0278737 12.0011 0.0278735 12.0033 0.0278735 12.0076C0.0214409 12.0247 0.0171532 12.044 0.0150086 12.0633C0.0128646 12.0697 0.0128643 12.0783 0.0107203 12.0848C0.0085757 12.0998 0.0042878 12.1169 0.0042878 12.1319C0.00214377 12.1555 0 12.1791 0 12.2027V44.6825C0 46.3699 1.36584 47.74 3.04686 47.74H29.6517L29.7675 47.8773C30.8439 49.1552 32.3941 49.9271 34.0237 49.9957C34.103 50 34.1802 50 34.2595 50C35.5696 50 36.7875 49.5283 37.6301 48.6856C38.52 47.7937 38.9981 46.4793 38.9381 45.0813L38.9401 45.085ZM11.4328 2.42682V10.8574C11.4328 11.2091 11.1519 11.4943 10.8046 11.4943H2.41456L11.4328 2.42682ZM3.04937 46.3244C2.15098 46.3244 1.41978 45.589 1.41978 44.6841V12.9118H10.805C11.9328 12.9118 12.8505 11.9898 12.8505 10.8577V1.41711H32.133C33.0292 1.41711 33.7604 2.15253 33.7604 3.0574V38.2449L29.144 34.3555C30.1088 32.5158 30.6192 30.4574 30.6192 28.3197C30.6192 24.8398 29.264 21.5676 26.8026 19.1063C24.3411 16.6448 21.0693 15.2897 17.5892 15.2897C14.1091 15.2897 10.8371 16.6449 8.37583 19.1063C5.91433 21.5678 4.55924 24.8396 4.55924 28.3197C4.55924 31.7996 5.91438 35.0718 8.37583 37.5331C10.8373 39.9944 14.1091 41.3497 17.5892 41.3497C19.5619 41.3497 21.468 40.9123 23.1985 40.0867L28.4602 46.3239L3.04976 46.3261L3.04937 46.3244ZM17.5888 39.9307C14.4862 39.9307 11.57 38.7236 9.3766 36.5301C7.18312 34.3366 5.97597 31.4206 5.97597 28.3179C5.97597 25.2154 7.18312 22.2992 9.3766 20.1058C11.5701 17.9123 14.4861 16.7052 17.5888 16.7052C20.6914 16.7052 23.6075 17.9123 25.8009 20.1058C27.9943 22.2993 29.2016 25.2153 29.2016 28.3179C29.2016 31.4205 27.9944 34.3367 25.8009 36.5301C23.6074 38.7235 20.6914 39.9307 17.5888 39.9307ZM36.6292 47.6884C36.0181 48.2995 35.0918 48.6254 34.0883 48.5825C32.8554 48.5289 31.6762 47.9393 30.855 46.9658L24.4652 39.3904C25.3035 38.8672 26.0861 38.2476 26.8023 37.5314C27.4048 36.9289 27.9408 36.2771 28.4061 35.5867L35.9086 41.91C36.882 42.7313 37.4695 43.9105 37.5231 45.1434C37.566 46.1469 37.2401 47.0731 36.6269 47.6864L36.6292 47.6884ZM27.2166 27.9492C26.211 26.3047 24.7893 24.9367 23.1083 23.9954C21.4273 23.0542 19.519 22.5546 17.5913 22.5546C15.6637 22.5546 13.7532 23.052 12.0721 23.9933C10.391 24.9367 8.96947 26.3025 7.96169 27.9471C7.82231 28.1744 7.82231 28.4596 7.96169 28.6869C8.96728 30.3314 10.3889 31.6994 12.0721 32.6407C13.7531 33.5819 15.6614 34.0794 17.5913 34.0794C19.521 34.0794 21.4272 33.582 23.1083 32.6385C24.7895 31.6951 26.2109 30.3293 27.2166 28.6847C27.3559 28.4574 27.3559 28.1723 27.2166 27.945V27.9492ZM17.5915 32.6664C14.326 32.6664 11.2297 31.0111 9.40953 28.3202C11.2299 25.6293 14.3239 23.974 17.5915 23.974C20.8571 23.974 23.9489 25.6292 25.7691 28.3202C23.9487 31.0111 20.8547 32.6664 17.5915 32.6664ZM17.5915 24.7907C15.6446 24.7907 14.0622 26.3731 14.0622 28.32C14.0622 30.2669 15.6446 31.8493 17.5915 31.8493C19.5384 31.8493 21.1187 30.2669 21.1187 28.32C21.1187 26.3731 19.5363 24.7907 17.5915 24.7907ZM17.5915 30.4318C16.4272 30.4318 15.4795 29.4841 15.4795 28.3198C15.4795 27.1555 16.4272 26.2078 17.5915 26.2078C18.7558 26.2078 19.7014 27.1555 19.7014 28.3198C19.7014 29.4841 18.7558 30.4318 17.5915 30.4318ZM16.7831 5.47807C16.7831 5.08569 17.1005 4.77048 17.4907 4.77048H28.5226C28.915 4.77048 29.2302 5.08781 29.2302 5.47807C29.2302 5.87045 28.9129 6.18567 28.5226 6.18567H17.4907C17.0983 6.18567 16.7831 5.86833 16.7831 5.47807ZM16.7831 10.1244C16.7831 9.73206 17.1005 9.41685 17.4907 9.41685H28.5226C28.915 9.41685 29.2302 9.73418 29.2302 10.1244C29.2302 10.5168 28.9129 10.832 28.5226 10.832H17.4907C17.0983 10.832 16.7831 10.5147 16.7831 10.1244Z" fill="#FD1716"/>
</svg>
