<svg width="50" height="50" viewBox="0 0 50 50" fill="none" xmlns="http://www.w3.org/2000/svg">
<path d="M36.0786 23.9771C35.422 18.3687 30.6601 14.1367 24.9963 14.1367C18.8421 14.1367 13.835 19.136 13.835 25.2902C13.835 31.4443 18.8421 36.4515 24.9963 36.4515C30.2487 36.4515 34.8367 32.7337 35.9125 27.6079C36.1735 26.2789 36.2289 25.0924 36.0786 23.9771ZM34.4253 27.3073C33.4998 31.7291 29.5368 34.9407 24.9963 34.9407C19.6806 34.9407 15.3537 30.6138 15.3537 25.2981C15.3537 19.9824 19.6806 15.6634 24.9963 15.6634C29.8928 15.6634 34.0061 19.3179 34.5756 24.1669C34.5756 24.1748 34.5756 24.1748 34.5756 24.1827C34.7022 25.1241 34.6547 26.1524 34.4253 27.3073Z" fill="#FD1716"/>
<path d="M24.9952 21.4059C25.7784 21.4059 26.4112 22.0387 26.4112 22.8218C26.4112 23.2411 26.7513 23.5812 27.1706 23.5812C27.5898 23.5812 27.9299 23.2411 27.9299 22.8218C27.9299 21.4692 27.0045 20.338 25.7546 19.9979V19.3492C25.7546 18.93 25.4145 18.5898 24.9952 18.5898C24.576 18.5898 24.2359 18.93 24.2359 19.3492V19.9979C22.986 20.338 22.0605 21.4692 22.0605 22.8218C22.0605 24.4355 23.3736 25.7565 24.9952 25.7565C25.7784 25.7565 26.4112 26.3893 26.4112 27.1725C26.4112 27.9556 25.7784 28.5884 24.9952 28.5884C24.2121 28.5884 23.5793 27.9477 23.5793 27.1725C23.5793 26.7532 23.2392 26.4131 22.8199 26.4131C22.4007 26.4131 22.0605 26.7532 22.0605 27.1725C22.0605 28.5251 22.986 29.6563 24.2359 29.9964V30.6451C24.2359 31.0643 24.576 31.4044 24.9952 31.4044C25.4145 31.4044 25.7546 31.0643 25.7546 30.6451V29.9964C27.0045 29.6563 27.9299 28.5251 27.9299 27.1725C27.9299 25.5588 26.6168 24.2378 24.9952 24.2378C24.2121 24.2378 23.5793 23.597 23.5793 22.8218C23.5793 22.0466 24.2121 21.4059 24.9952 21.4059Z" fill="#FD1716"/>
<path d="M21.5387 4.98346C21.7364 4.98346 21.9263 4.91226 22.0766 4.76197L24.2361 2.59456V6.56551C22.9862 6.90565 22.0607 8.03681 22.0607 9.38947C22.0607 11.0032 23.3738 12.3242 24.9954 12.3242C26.617 12.3242 27.9301 11.0111 27.9301 9.38947C27.9301 8.03681 27.0046 6.90565 25.7548 6.56551V2.59456L27.9143 4.75406C28.207 5.04674 28.6895 5.04674 28.9822 4.75406C29.2749 4.46138 29.2749 3.97885 28.9822 3.68618L25.5254 0.221487C25.383 0.0791025 25.1932 0 24.9875 0C24.7898 0 24.592 0.0791025 24.4496 0.221487L21.0008 3.68618C20.7081 3.97885 20.7081 4.46138 21.0008 4.75406C21.1511 4.90435 21.3488 4.98346 21.5387 4.98346ZM26.4114 9.38947C26.4114 10.1726 25.7785 10.8054 24.9954 10.8054C24.2123 10.8054 23.5795 10.1726 23.5795 9.38947C23.5795 8.60635 24.2123 7.97353 24.9954 7.97353C25.7785 7.97353 26.4114 8.60635 26.4114 9.38947Z" fill="#FD1716"/>
<path d="M7.86202 13.5089C8.28126 13.5089 8.6214 13.1687 8.6214 12.7495L8.61349 9.68821L11.4295 12.5043C11.1764 12.9472 11.0261 13.4377 11.0261 13.9597C11.0261 14.7429 11.3346 15.4785 11.8883 16.0322C12.4579 16.6018 13.2093 16.8865 13.9608 16.8865C14.7123 16.8865 15.4638 16.6018 16.0333 16.0322C17.1724 14.8852 17.1724 13.0263 16.0333 11.8873C15.0762 10.9301 13.6207 10.7877 12.4974 11.4285L9.68929 8.62033H12.7506C13.1698 8.62033 13.5099 8.28019 13.5099 7.86095C13.5099 7.4417 13.1698 7.10156 12.7506 7.10156H7.85411C7.65635 7.10156 7.4586 7.18066 7.31621 7.32305C7.17383 7.46543 7.09473 7.65528 7.09473 7.86095L7.10264 12.7495C7.10264 13.1687 7.44278 13.5089 7.86202 13.5089ZM14.9654 12.9551C15.5191 13.5089 15.5191 14.4106 14.9654 14.9564C14.4117 15.5102 13.5099 15.5102 12.9641 14.9564C12.6952 14.6875 12.5449 14.3315 12.5449 13.9518C12.5449 13.5721 12.6952 13.2162 12.9641 12.9472C13.241 12.6704 13.6049 12.5359 13.9687 12.5359C14.3326 12.5359 14.6886 12.6783 14.9654 12.9551Z" fill="#FD1716"/>
<path d="M2.58665 25.7547H6.56551C6.90565 27.0045 8.03681 27.93 9.38947 27.93C11.0032 27.93 12.3242 26.6169 12.3242 24.9953C12.3242 23.3737 11.0111 22.0606 9.38947 22.0606C8.03681 22.0606 6.90565 22.9861 6.56551 24.236H2.59456L4.75406 22.0765C5.04674 21.7838 5.04674 21.3013 4.75406 21.0086C4.46138 20.7159 3.97885 20.7159 3.68618 21.0086L0.221487 24.4733C0.0791025 24.6156 0 24.8055 0 25.0112C0 25.2168 0.0791025 25.4067 0.221487 25.5491L3.68618 28.9979C3.83647 29.1482 4.02632 29.2194 4.22407 29.2194C4.42183 29.2194 4.61167 29.1482 4.76197 28.9979C5.05465 28.7052 5.05465 28.2227 4.76197 27.93L2.58665 25.7547ZM9.38947 23.5794C10.1726 23.5794 10.8054 24.2122 10.8054 24.9953C10.8054 25.7785 10.1726 26.4113 9.38947 26.4113C8.60635 26.4113 7.97353 25.7785 7.97353 24.9953C7.97353 24.2122 8.60635 23.5794 9.38947 23.5794Z" fill="#FD1716"/>
<path d="M27.9142 45.2381L25.7547 47.4055V43.4266C27.0045 43.0865 27.93 41.9632 27.93 40.6027C27.93 38.989 26.6169 37.668 24.9953 37.668C23.3737 37.668 22.0606 38.9811 22.0606 40.6027C22.0606 41.9553 22.9861 43.0865 24.236 43.4266V47.3976L22.0765 45.2381C21.7838 44.9454 21.3013 44.9454 21.0086 45.2381C20.7159 45.5308 20.7159 46.0133 21.0086 46.306L24.4733 49.7706C24.6156 49.913 24.8055 49.9921 25.0112 49.9921C25.2089 49.9921 25.4067 49.913 25.5491 49.7706L28.9979 46.306C29.2906 46.0133 29.2906 45.5308 28.9979 45.2381C28.6894 44.9375 28.2069 44.9375 27.9142 45.2381ZM23.5794 40.6027C23.5794 39.8196 24.2122 39.1867 24.9953 39.1867C25.7785 39.1867 26.4113 39.8196 26.4113 40.6027C26.4113 41.3858 25.7785 42.0186 24.9953 42.0186C24.2122 42.0186 23.5794 41.3858 23.5794 40.6027Z" fill="#FD1716"/>
<path d="M42.1301 36.4814C41.7108 36.4814 41.3707 36.8215 41.3707 37.2407L41.3786 40.302L38.5626 37.486C39.2112 36.3627 39.0609 34.9072 38.1038 33.9501C36.9568 32.8031 35.0979 32.8031 33.9588 33.9501C32.8197 35.0892 32.8197 36.956 33.9588 38.0951C34.5283 38.6646 35.2798 38.9494 36.0313 38.9494C36.5375 38.9494 37.0359 38.807 37.4868 38.5459L40.2949 41.3541H37.2336C36.8144 41.3541 36.4743 41.6942 36.4743 42.1135C36.4743 42.5327 36.8144 42.8728 37.2336 42.8728H42.1301C42.3278 42.8728 42.5256 42.7937 42.668 42.6514C42.8104 42.509 42.8895 42.3191 42.8895 42.1135L42.8816 37.2249C42.8816 36.8215 42.5493 36.4814 42.1301 36.4814ZM35.0267 37.0351C34.473 36.4814 34.473 35.5796 35.0267 35.0338C35.5804 34.4801 36.4822 34.4801 37.028 35.0338C37.5817 35.5875 37.5817 36.4893 37.028 37.0351C36.4822 37.5888 35.5804 37.5888 35.0267 37.0351Z" fill="#FD1716"/>
<path d="M49.7627 24.4496L46.298 21.0008C46.0054 20.7081 45.5228 20.7081 45.2302 21.0008C44.9375 21.2934 44.9375 21.776 45.2302 22.0686L47.3976 24.2281H43.4266C43.0865 22.9783 41.9632 22.0528 40.6027 22.0528C38.989 22.0528 37.668 23.3659 37.668 24.9875C37.668 26.6091 38.9811 27.9222 40.6027 27.9222C41.9553 27.9222 43.0865 26.9967 43.4266 25.7469H47.3976L45.2381 27.9064C44.9454 28.1991 44.9454 28.6816 45.2381 28.9743C45.3884 29.1246 45.5782 29.1958 45.776 29.1958C45.9658 29.1958 46.1636 29.1246 46.3139 28.9743L49.7786 25.5096C49.9209 25.3672 50 25.1774 50 24.9717C50 24.766 49.9051 24.592 49.7627 24.4496ZM40.6027 26.4114C39.8196 26.4114 39.1867 25.7785 39.1867 24.9954C39.1867 24.2123 39.8196 23.5795 40.6027 23.5795C41.3858 23.5795 42.0186 24.2123 42.0186 24.9954C42.0186 25.7785 41.3858 26.4114 40.6027 26.4114Z" fill="#FD1716"/>
<path d="M11.8892 33.9588C11.3355 34.5125 11.027 35.2482 11.027 36.0313C11.027 36.5534 11.1773 37.0517 11.4304 37.4947L8.62228 40.3028V37.2415C8.62228 36.8223 8.28214 36.4822 7.8629 36.4822C7.44366 36.4822 7.10352 36.8223 7.10352 37.2415V42.138C7.10352 42.3357 7.18262 42.5335 7.325 42.6759C7.46739 42.8183 7.65723 42.8974 7.8629 42.8974L12.7514 42.8895C13.1707 42.8895 13.5108 42.5493 13.5108 42.1301C13.5108 41.7108 13.1707 41.3707 12.7514 41.3707L9.69017 41.3786L12.5062 38.5626C12.9571 38.8236 13.4554 38.966 13.9617 38.966C14.7132 38.966 15.4646 38.6812 16.0342 38.1117C17.1733 36.9647 17.1733 35.1058 16.0342 33.9667C14.8872 32.8197 13.0283 32.8197 11.8892 33.9588ZM14.9663 37.0359C14.4126 37.5896 13.5108 37.5896 12.965 37.0359C12.6961 36.7669 12.5458 36.411 12.5458 36.0313C12.5458 35.6516 12.6961 35.2956 12.965 35.0267C13.2419 34.7498 13.6057 34.6153 13.9696 34.6153C14.3335 34.6153 14.6974 34.7498 14.9742 35.0267C15.5121 35.5804 15.5121 36.4822 14.9663 37.0359Z" fill="#FD1716"/>
<path d="M36.0314 16.8866C36.7829 16.8866 37.5343 16.6019 38.1039 16.0323C39.061 15.0752 39.2034 13.6197 38.5627 12.4965L41.3708 9.68831V12.7496C41.3708 13.1688 41.7109 13.509 42.1302 13.509C42.5494 13.509 42.8896 13.1688 42.8896 12.7496V7.85313C42.8896 7.65538 42.8105 7.45762 42.6681 7.31524C42.5257 7.17285 42.3358 7.09375 42.1302 7.09375L37.2416 7.10166C36.8224 7.10166 36.4823 7.4418 36.4823 7.86104C36.4823 8.28029 36.8224 8.62043 37.2416 8.62043L40.3029 8.61252L37.4869 11.4286C36.3636 10.7799 34.9081 10.9302 33.951 11.8874C32.8119 13.0264 32.8119 14.8933 33.951 16.0323C34.5284 16.6019 35.2799 16.8866 36.0314 16.8866ZM35.0268 12.9552C35.3036 12.6784 35.6675 12.5439 36.0314 12.5439C36.3953 12.5439 36.7591 12.6784 37.036 12.9552C37.5897 13.509 37.5897 14.4107 37.036 14.9565C36.4823 15.5103 35.5805 15.5103 35.0347 14.9565C34.481 14.4107 34.481 13.509 35.0268 12.9552Z" fill="#FD1716"/>
</svg>
