<svg width="50" height="50" viewBox="0 0 50 50" fill="none" xmlns="http://www.w3.org/2000/svg">
<path d="M35.2767 14.7232C35.632 15.0785 35.632 15.6504 35.2767 16.001L31.6622 19.6154C31.4881 19.7896 31.2528 19.8813 31.0245 19.8813C30.7962 19.8813 30.5609 19.7919 30.3868 19.6154C30.0315 19.2601 30.0315 18.6883 30.3868 18.3377L34.0012 14.7232C34.3566 14.3679 34.9213 14.3679 35.2767 14.7232ZM19.614 31.6611C19.9694 31.3058 19.9694 30.734 19.614 30.3834C19.2587 30.028 18.6869 30.028 18.3363 30.3834L14.7218 33.9978C14.3665 34.3531 14.3665 34.925 14.7218 35.2756C14.896 35.4497 15.1313 35.5415 15.3595 35.5415C15.5878 35.5415 15.8231 35.4521 15.9973 35.2756L19.614 31.6611ZM18.3386 19.613C18.5128 19.7871 18.7481 19.8789 18.9763 19.8789C19.2046 19.8789 19.4399 19.7895 19.614 19.613C19.9694 19.2576 19.9694 18.6858 19.614 18.3352L15.9996 14.7207C15.6443 14.3654 15.0724 14.3654 14.7218 14.7207C14.3665 15.0761 14.3665 15.6479 14.7218 15.9985L18.3386 19.613ZM31.6621 30.3858C31.3068 30.0305 30.7349 30.0305 30.3843 30.3858C30.029 30.7412 30.029 31.313 30.3843 31.6636L33.9988 35.278C34.1729 35.4522 34.4082 35.544 34.6365 35.544C34.8647 35.544 35.1001 35.4545 35.2742 35.278C35.6295 34.9227 35.6295 34.3509 35.2742 34.0003L31.6621 30.3858ZM16.5663 7.83107H33.4338C33.9326 7.83107 34.3374 7.42632 34.3374 6.92745C34.3374 6.42859 33.9326 6.02384 33.4338 6.02384H16.5663C16.0675 6.02384 15.6627 6.42859 15.6627 6.92745C15.6627 7.42632 16.0675 7.83107 16.5663 7.83107ZM33.4338 42.1683H16.5663C16.0675 42.1683 15.6627 42.5731 15.6627 43.0719C15.6627 43.5708 16.0675 43.9756 16.5663 43.9756H33.4338C33.9326 43.9756 34.3374 43.5708 34.3374 43.0719C34.3374 42.5731 33.9326 42.1683 33.4338 42.1683ZM43.9759 33.4334V16.566C43.9759 16.0671 43.5712 15.6624 43.0723 15.6624C42.5734 15.6624 42.1687 16.0671 42.1687 16.566V33.4334C42.1687 33.9323 42.5734 34.337 43.0723 34.337C43.5712 34.337 43.9759 33.9323 43.9759 33.4334ZM7.83143 33.4334V16.566C7.83143 16.0671 7.42668 15.6624 6.92781 15.6624C6.42895 15.6624 6.0242 16.0671 6.0242 16.566V33.4334C6.0242 33.9323 6.42895 34.337 6.92781 34.337C7.42668 34.337 7.83143 33.9323 7.83143 33.4334ZM13.8555 2.14373V11.7045C13.8555 12.8858 12.8907 13.8483 11.7118 13.8483H2.14373C0.962467 13.8483 0 12.8835 0 11.7045V2.14373C0 0.962468 0.964817 0 2.14373 0H11.7045C12.8906 0 13.8555 0.964817 13.8555 2.14373ZM12.0483 2.14373C12.0483 1.95783 11.8977 1.80723 11.7118 1.80723H2.14374C1.95784 1.80723 1.80724 1.95783 1.80724 2.14373V11.7045C1.80724 11.8904 1.95784 12.041 2.14374 12.041H11.7046C11.8905 12.041 12.0411 11.8904 12.0411 11.7045V2.14373H12.0483ZM50 2.14373V11.7045C50 12.8858 49.0352 13.8483 47.8563 13.8483H38.2882C37.107 13.8483 36.1445 12.8835 36.1445 11.7045V2.14373C36.1445 0.962468 37.1093 0 38.2882 0H47.849C49.0351 0 50 0.964817 50 2.14373ZM48.1928 2.14373C48.1928 1.95783 48.0422 1.80723 47.8563 1.80723H38.2882C38.1023 1.80723 37.9517 1.95783 37.9517 2.14373V11.7045C37.9517 11.8904 38.1023 12.041 38.2882 12.041H47.849C48.0349 12.041 48.1855 11.8904 48.1855 11.7045V2.14373H48.1928ZM13.8555 38.2882V47.849C13.8555 49.0303 12.8907 49.9928 11.7118 49.9928H2.14373C0.962467 49.9928 0 49.028 0 47.849V38.2882C0 37.107 0.964817 36.1445 2.14373 36.1445H11.7045C12.8906 36.1445 13.8555 37.1093 13.8555 38.2882ZM12.0483 38.2882C12.0483 38.1023 11.8977 37.9517 11.7118 37.9517H2.14374C1.95784 37.9517 1.80724 38.1023 1.80724 38.2882V47.849C1.80724 48.0349 1.95784 48.1855 2.14374 48.1855H11.7046C11.8905 48.1855 12.0411 48.0349 12.0411 47.849V38.2882H12.0483ZM50 38.2882V47.849C50 49.0303 49.0352 49.9928 47.8563 49.9928H38.2882C37.107 49.9928 36.1445 49.028 36.1445 47.849V38.2882C36.1445 37.107 37.1093 36.1445 38.2882 36.1445H47.849C49.0351 36.1445 50 37.1093 50 38.2882ZM48.1928 38.2882C48.1928 38.1023 48.0422 37.9517 47.8563 37.9517H38.2882C38.1023 37.9517 37.9517 38.1023 37.9517 38.2882V47.849C37.9517 48.0349 38.1023 48.1855 38.2882 48.1855H47.849C48.0349 48.1855 48.1855 48.0349 48.1855 47.849V38.2882H48.1928ZM20.9525 20.9527C22.042 19.8679 23.4821 19.2773 24.9999 19.2773C26.5178 19.2773 27.9579 19.8727 29.0474 20.9527C30.1322 22.0375 30.7228 23.4706 30.7228 25.0002C30.7228 26.5298 30.1275 27.9699 29.0474 29.0476C27.9696 30.1254 26.5295 30.7231 24.9999 30.7231C23.4704 30.7231 22.0302 30.1277 20.9525 29.0476C19.8747 27.9581 19.2771 26.5227 19.2771 25.0002C19.2771 23.4754 19.8724 22.0422 20.9525 20.9527ZM21.0843 25.0002C21.0843 26.0426 21.4937 27.031 22.2279 27.7722C22.9621 28.5064 23.9504 28.9158 24.9999 28.9158C26.0471 28.9158 27.0307 28.5111 27.772 27.7722C28.5132 27.031 28.9156 26.0497 28.9156 25.0002C28.9156 23.953 28.5108 22.9694 27.772 22.2281C27.0307 21.4939 26.0424 21.0845 24.9999 21.0845C23.9574 21.0845 22.9691 21.494 22.2279 22.2281C21.4937 22.9694 21.0843 23.9577 21.0843 25.0002Z" fill="#FD1716"/>
</svg>
