<svg width="60" height="60" viewBox="0 0 60 60" fill="none" xmlns="http://www.w3.org/2000/svg">
<rect width="60" height="60" rx="8" fill="url(#paint0_linear_1664_1168)"/>
<path d="M33.8914 28.6166C34.0117 28.6166 34.1289 28.5775 34.2251 28.5053C34.3213 28.433 34.3915 28.3314 34.425 28.2158C34.4585 28.1002 34.4536 27.9768 34.411 27.8643C34.3683 27.7517 34.2903 27.6561 34.1886 27.5917L28.0783 23.7034C27.9894 23.6471 27.8863 23.6172 27.7811 23.6172C27.6759 23.6172 27.5728 23.6471 27.4839 23.7034L21.3737 27.5917C21.272 27.6561 21.1939 27.7517 21.1513 27.8643C21.1086 27.9768 21.1037 28.1002 21.1372 28.2158C21.1707 28.3314 21.2409 28.433 21.3371 28.5053C21.4334 28.5775 21.5505 28.6166 21.6708 28.6166H22.7818V34.1714H21.9486C21.8013 34.1714 21.66 34.2299 21.5558 34.3341C21.4516 34.4382 21.3931 34.5795 21.3931 34.7269C21.3931 34.8742 21.4516 35.0155 21.5558 35.1196C21.66 35.2238 21.8013 35.2823 21.9486 35.2823H33.6136C33.761 35.2823 33.9023 35.2238 34.0064 35.1196C34.1106 35.0155 34.1691 34.8742 34.1691 34.7269C34.1691 34.5795 34.1106 34.4382 34.0064 34.3341C33.9023 34.2299 33.761 34.1714 33.6136 34.1714H32.7804V28.6166H33.8914ZM27.2256 34.1714H23.8928V28.6166H27.2256V34.1714ZM31.6695 34.1714H28.3366V28.6166H31.6695V34.1714ZM23.5789 27.5056L27.7811 24.831L31.9833 27.5056H23.5789Z" fill="white"/>
<path d="M19.6901 25.6312L20.8371 26.3145C20.9206 26.3661 21.0167 26.394 21.1149 26.395C21.2352 26.3928 21.3516 26.3516 21.4465 26.2775C21.5414 26.2034 21.6097 26.1005 21.641 25.9842C21.6723 25.868 21.6651 25.7447 21.6203 25.6329C21.5755 25.5212 21.4956 25.427 21.3926 25.3646L20.3289 24.7286C20.4818 24.3782 20.5603 23.9999 20.5594 23.6176C20.5595 23.4091 20.5353 23.2012 20.4872 22.9983L30.1553 19.2627C30.5132 19.8282 31.0633 20.2455 31.7044 20.4378C32.3455 20.63 33.0344 20.5843 33.6445 20.309C34.2546 20.0337 34.7447 19.5474 35.0247 18.9395C35.3048 18.3316 35.3559 17.6431 35.1687 17.0005C34.9815 16.3579 34.5685 15.8046 34.0058 15.4422C33.4431 15.0799 32.7684 14.9329 32.106 15.0284C31.4435 15.1239 30.8378 15.4554 30.4003 15.9619C29.9628 16.4684 29.7229 17.1158 29.7248 17.7851C29.7251 17.9322 29.7381 18.079 29.7637 18.2239L20.0261 21.9873C19.6945 21.5299 19.2313 21.1844 18.6983 20.9971C18.1653 20.8098 17.5878 20.7894 17.0429 20.9389C16.498 21.0883 16.0117 21.4003 15.6488 21.8333C15.2859 22.2663 15.0636 22.7997 15.0117 23.3623C14.9599 23.9249 15.0808 24.49 15.3584 24.982C15.636 25.4741 16.0571 25.8698 16.5654 26.1164C17.0738 26.3629 17.6452 26.4486 18.2035 26.3619C18.7618 26.2752 19.2804 26.0203 19.6901 25.6312ZM32.5022 16.1187C32.8318 16.1187 33.154 16.2164 33.428 16.3995C33.702 16.5826 33.9156 16.8429 34.0418 17.1474C34.1679 17.4519 34.2009 17.7869 34.1366 18.1102C34.0723 18.4335 33.9136 18.7304 33.6805 18.9635C33.4475 19.1965 33.1505 19.3552 32.8273 19.4195C32.504 19.4838 32.169 19.4508 31.8645 19.3247C31.56 19.1986 31.2997 18.985 31.1166 18.7109C30.9335 18.4369 30.8357 18.1147 30.8357 17.7851C30.8357 17.3431 31.0113 16.9193 31.3238 16.6068C31.6364 16.2942 32.0602 16.1187 32.5022 16.1187ZM16.1156 23.6176C16.1156 23.288 16.2133 22.9659 16.3964 22.6918C16.5795 22.4178 16.8398 22.2042 17.1443 22.078C17.4488 21.9519 17.7838 21.9189 18.1071 21.9832C18.4304 22.0475 18.7273 22.2062 18.9603 22.4393C19.1934 22.6723 19.3521 22.9693 19.4164 23.2925C19.4807 23.6158 19.4477 23.9508 19.3216 24.2553C19.1954 24.5598 18.9819 24.8201 18.7078 25.0032C18.4338 25.1863 18.1116 25.2841 17.782 25.2841C17.34 25.2841 16.9162 25.1085 16.6036 24.796C16.2911 24.4835 16.1156 24.0596 16.1156 23.6176Z" fill="white"/>
<path d="M42.2228 23.0625C41.4862 23.0625 40.7797 23.3551 40.2589 23.876C39.738 24.3968 39.4454 25.1033 39.4454 25.8399C39.4454 25.8816 39.4454 25.9232 39.4454 25.9677L35.6904 26.9703C35.5606 27.0056 35.448 27.0867 35.3735 27.1987C35.299 27.3107 35.2677 27.4459 35.2854 27.5792C35.303 27.7125 35.3684 27.8349 35.4694 27.9237C35.5705 28.0124 35.7003 28.0615 35.8348 28.0618C35.8836 28.062 35.9322 28.0555 35.9792 28.0424L39.7231 27.0453C40.0092 27.6341 40.4928 28.1039 41.0896 28.3729L39.2732 36.4273C39.1463 36.4077 39.0183 36.3966 38.8899 36.394C38.3281 36.3947 37.7756 36.5374 37.2837 36.8088C36.7918 37.0802 36.3765 37.4716 36.0764 37.9466L33.6129 36.4745C33.4889 36.4235 33.3507 36.4189 33.2236 36.4618C33.0966 36.5046 32.9894 36.592 32.9217 36.7077C32.854 36.8234 32.8305 36.9597 32.8554 37.0914C32.8803 37.2232 32.9521 37.3414 33.0574 37.4244L35.6515 38.9825C35.5917 39.2262 35.56 39.476 35.557 39.7269C35.556 40.3224 35.7146 40.9074 36.0163 41.4208C36.318 41.9343 36.7517 42.3576 37.2725 42.6466C37.7932 42.9356 38.3818 43.0798 38.9772 43.0642C39.5725 43.0487 40.1528 42.8738 40.6577 42.558C41.1625 42.2421 41.5735 41.7967 41.8479 41.2681C42.1223 40.7396 42.2501 40.1471 42.2179 39.5525C42.1858 38.9578 41.9948 38.3826 41.665 37.8867C41.3352 37.3908 40.8785 36.9924 40.3425 36.7328L42.1756 28.6173H42.2228C42.9594 28.6173 43.6658 28.3247 44.1867 27.8038C44.7076 27.2829 45.0002 26.5765 45.0002 25.8399C45.0002 25.1033 44.7076 24.3968 44.1867 23.876C43.6658 23.3551 42.9594 23.0625 42.2228 23.0625ZM41.1118 39.7269C41.1118 40.1663 40.9815 40.5959 40.7374 40.9613C40.4932 41.3267 40.1462 41.6115 39.7402 41.7797C39.3342 41.9478 38.8875 41.9918 38.4564 41.9061C38.0254 41.8204 37.6295 41.6087 37.3188 41.298C37.0081 40.9873 36.7964 40.5914 36.7107 40.1603C36.625 39.7293 36.669 39.2826 36.8371 38.8766C37.0053 38.4706 37.2901 38.1236 37.6555 37.8794C38.0209 37.6353 38.4505 37.505 38.8899 37.505C39.4792 37.505 40.0444 37.739 40.4611 38.1557C40.8777 38.5724 41.1118 39.1376 41.1118 39.7269ZM42.2228 27.5063C41.8932 27.5063 41.571 27.4086 41.297 27.2255C41.0229 27.0424 40.8093 26.7821 40.6832 26.4776C40.5571 26.1731 40.5241 25.838 40.5884 25.5148C40.6527 25.1915 40.8114 24.8946 41.0444 24.6615C41.2775 24.4285 41.5744 24.2698 41.8977 24.2055C42.2209 24.1412 42.556 24.1742 42.8605 24.3003C43.165 24.4264 43.4253 24.64 43.6084 24.9141C43.7915 25.1881 43.8892 25.5103 43.8892 25.8399C43.8892 26.2819 43.7137 26.7057 43.4011 27.0182C43.0886 27.3308 42.6648 27.5063 42.2228 27.5063Z" fill="white"/>
<path d="M23.5001 36.5572L22.1475 37.907C21.412 37.4951 20.5486 37.3744 19.7282 37.5688C18.9079 37.7633 18.1905 38.2587 17.7182 38.957C17.2458 39.6553 17.0529 40.5055 17.1777 41.3393C17.3024 42.1731 17.7358 42.9296 18.3919 43.459C19.0479 43.9885 19.8789 44.2522 20.7202 44.198C21.5615 44.1438 22.3518 43.7757 22.9346 43.1665C23.5173 42.5572 23.85 41.7514 23.8668 40.9085C23.8836 40.0656 23.5832 39.2472 23.0252 38.6152L24.2834 37.3543C24.3744 37.248 24.4219 37.1113 24.4165 36.9715C24.4111 36.8317 24.3532 36.6991 24.2542 36.6002C24.1553 36.5013 24.0227 36.4433 23.8829 36.4379C23.7431 36.4325 23.6064 36.4801 23.5001 36.5711V36.5572ZM20.5589 43.0591C20.1194 43.0591 19.6898 42.9288 19.3244 42.6846C18.9591 42.4405 18.6743 42.0934 18.5061 41.6874C18.3379 41.2814 18.2939 40.8347 18.3797 40.4037C18.4654 39.9727 18.677 39.5768 18.9877 39.266C19.2985 38.9553 19.6944 38.7437 20.1254 38.6579C20.5564 38.5722 21.0032 38.6162 21.4092 38.7844C21.8152 38.9525 22.1622 39.2373 22.4063 39.6027C22.6505 39.9681 22.7808 40.3977 22.7808 40.8371C22.7808 41.4264 22.5467 41.9916 22.13 42.4083C21.7133 42.825 21.1482 43.0591 20.5589 43.0591Z" fill="white"/>
<defs>
<linearGradient id="paint0_linear_1664_1168" x1="23.3108" y1="85.7264" x2="86.1141" y2="28.8202" gradientUnits="userSpaceOnUse">
<stop stop-color="#FF1717"/>
<stop offset="1" stop-color="#FF6461"/>
</linearGradient>
</defs>
</svg>
