<svg width="60" height="60" viewBox="0 0 60 60" fill="none" xmlns="http://www.w3.org/2000/svg">
<rect width="60" height="60" rx="8" fill="url(#paint0_linear_1664_1113)"/>
<path fill-rule="evenodd" clip-rule="evenodd" d="M26.2812 38.4981C26.2656 38.7663 26.4023 39.0203 26.6328 39.1557C26.819 39.3211 27.0638 39.4057 27.3112 39.3888L27.4375 39.3549C27.5104 39.2755 27.3268 38.946 27.2187 38.8653C26.8867 38.8028 26.569 38.6778 26.2812 38.4994L26.2812 38.4981ZM31.0416 42.2272C31.1992 42.3327 31.3841 42.3861 31.5729 42.3796C31.6693 42.3392 31.7526 42.2741 31.8151 42.192C31.8008 42.1165 31.7578 42.0501 31.6966 42.0045C31.6081 41.9525 31.5117 41.916 31.4114 41.8965C31.3034 42.0228 31.1784 42.1348 31.0416 42.2272ZM30.2265 41.7676C30.3723 41.7194 30.5078 41.6452 30.6249 41.5475C30.7916 41.4212 30.9075 41.3027 30.875 41.0814C30.8502 40.9121 30.7239 40.8483 30.5234 40.7624V40.7611C30.2382 41.0267 29.9153 41.2493 29.5663 41.4225C29.6874 41.5384 29.9244 41.7702 30.1002 41.7806L30.2252 41.7676L30.2265 41.7676ZM41.2267 29.6137L39.8295 30.1541V30.1528C39.5548 30.2621 39.4181 30.572 39.5222 30.8494L41.7671 36.6568C41.8765 36.9315 42.1851 37.0696 42.4624 36.9641L43.8596 36.425C44.1343 36.3157 44.2723 36.0058 44.1682 35.7284L41.9233 29.921C41.8139 29.6462 41.504 29.5095 41.2267 29.6137ZM28.1745 40.6282C28.0273 40.4785 27.901 40.3105 27.7995 40.1282C27.9674 40.0722 28.1406 40.0279 28.3151 39.9941L28.845 39.8613C29.1497 39.7506 29.4805 39.7298 29.7982 39.7988C29.9453 39.8483 30.0625 39.9928 30.0078 40.1243C29.9167 40.3431 28.8477 40.9915 28.5351 40.9381C28.4531 40.9251 28.2578 40.705 28.1758 40.6256L28.1745 40.6282ZM34.7136 32.5721C35.181 32.4718 35.6537 32.3963 36.129 32.3468C37.1082 32.2531 38.0704 32.0304 38.991 31.684L40.6629 36.0098C40.3361 36.0514 39.9454 36.1074 39.6694 36.1712C38.8087 36.3692 38.8282 36.6504 38.4103 37.0137C38.1837 37.1856 37.9324 37.3236 37.6667 37.4252C36.9441 36.5736 36.1524 35.7832 35.2995 35.0605C34.8229 34.6295 34.3932 34.1959 33.9154 34.1699C33.5547 34.1842 33.2174 34.36 33 34.649C32.7461 34.9003 32.1862 35.416 31.8242 35.4381C31.6094 35.4342 31.3997 35.3795 31.2109 35.278C31.0794 35.2116 31.1562 35.2545 31.1588 35.235C31.2539 34.9016 31.388 34.5787 31.5586 34.2766C31.7292 33.9576 31.9544 33.6725 32.2253 33.4342C32.4141 33.2493 32.6484 33.1165 32.905 33.0501C33.3477 32.9225 33.6902 32.817 34.2045 32.6881L34.711 32.5709L34.7136 32.5721ZM20.0807 20.3452L18.7577 21.7306H20.0807V20.3452ZM21.4479 25.2449H21.4466C21.2265 25.2449 21.0468 25.0652 21.0468 24.8452C21.0468 24.6238 21.2265 24.4455 21.4466 24.4455H30.9884C31.2085 24.4455 31.3882 24.6238 31.3882 24.8452C31.3882 25.0653 31.2085 25.2449 30.9884 25.2449H21.4479ZM26.47 37.6255C26.3215 37.4979 26.164 37.3807 25.9986 37.2752C25.6145 37.0161 25.2004 36.8065 24.7655 36.6502L26.6562 32.1671L27.0989 32.3234C27.7018 32.5356 27.9882 32.6307 28.5859 32.4705C29.2734 32.2869 30.431 31.77 31.2044 31.4952L31.2057 31.4965C31.5273 31.3416 31.888 31.2856 32.2422 31.3351C32.6576 31.5395 33.0495 31.7895 33.4128 32.0773C33.2657 32.119 33.1211 32.1606 32.9857 32.1997H32.9844C32.5013 32.2882 32.0547 32.5122 31.694 32.8455C31.1758 33.3221 30.7787 33.9185 30.5377 34.5812C30.2903 35.1867 30.2161 35.6685 30.8516 35.9901H30.8529C31.3281 36.274 31.9128 36.3104 32.4193 36.0878C32.8021 35.8807 33.1524 35.6203 33.461 35.3143C33.5612 35.2193 33.8008 34.9628 33.8776 34.9667C34.0313 34.9745 34.4779 35.3898 34.7696 35.6516C35.2357 36.0747 37.1954 37.7753 37.336 38.4485H37.3347C37.3725 38.7284 37.2306 39.0032 36.9793 39.1347C36.7006 39.1959 35.9324 38.5292 35.6798 38.3235V38.3222C35.5977 38.2532 35.4923 38.2206 35.3855 38.231C35.28 38.2402 35.1824 38.2922 35.1147 38.3756C35.047 38.4589 35.0157 38.5644 35.0274 38.6711C35.0391 38.7766 35.0938 38.8743 35.1772 38.9394C35.5222 39.2389 35.8907 39.5084 36.2801 39.7467C36.3009 39.8391 36.3074 39.9342 36.3009 40.028C36.2605 40.149 36.1824 40.2532 36.0795 40.3287C35.8907 40.4589 35.6394 40.4589 35.4506 40.3287C35.0404 40.0657 34.6641 39.7545 34.3295 39.4017C34.2527 39.3261 34.1485 39.2858 34.0417 39.2884C33.9337 39.2897 33.8321 39.3352 33.7592 39.4134C33.6849 39.4928 33.6472 39.597 33.6524 39.705C33.6563 39.8118 33.7045 39.9121 33.7852 39.9837C34.1016 40.2975 34.4389 40.5892 34.7943 40.8587L34.7995 40.8626C34.78 41.0293 34.6771 41.1738 34.5248 41.2467C34.3659 41.2936 34.1941 41.2832 34.0404 41.2168C33.6641 40.9954 33.3164 40.7285 33.0039 40.4225C32.8373 40.2793 32.586 40.2975 32.4414 40.4629C32.2982 40.6295 32.3164 40.8808 32.4831 41.0254C32.7995 41.3183 33.138 41.5892 33.4948 41.834C33.5066 41.9277 33.4935 42.0241 33.4558 42.1113C33.392 42.209 33.28 42.2624 33.1628 42.252C32.9388 42.179 32.7331 42.0593 32.5599 41.9004C32.5391 41.8379 32.5131 41.7767 32.4805 41.7194C32.3073 41.4212 32.0144 41.2129 31.6771 41.1439C31.6771 40.5618 31.3333 40.2363 30.8164 40.0214V40.0227C30.8099 39.8899 30.7786 39.7584 30.7227 39.6386C30.5078 39.2129 30.0651 38.9511 29.5898 38.9655C29.1315 38.9681 28.677 39.0462 28.2434 39.1959C28.2109 38.9602 28.1223 38.7363 27.9856 38.541C27.5937 37.9628 27.2525 38.1074 26.9192 37.9498C26.7538 37.8652 26.6028 37.7558 26.4713 37.6256L26.47 37.6255ZM21.4465 27.689C21.2252 27.689 21.0468 27.5093 21.0468 27.2892C21.0468 27.0679 21.2252 26.8895 21.4465 26.8895H30.9884C31.2084 26.8895 31.3881 27.0679 31.3881 27.2892C31.3881 27.5093 31.2084 27.689 30.9884 27.689H21.4465ZM23.9609 30.0002C23.9062 30.051 23.8633 30.1122 23.8346 30.1812L21.414 35.9183L21.4153 35.917C21.302 36.1918 21.4296 36.5056 21.7018 36.6228L23.082 37.2048C23.3554 37.3181 23.6692 37.1905 23.7878 36.9183L26.0573 31.5392C26.1615 31.2593 26.3269 31.0588 26.2084 30.7697H26.2071C26.155 30.6382 26.0521 30.5314 25.9206 30.4767L24.5404 29.8947C24.3438 29.8126 24.1172 29.8544 23.9609 30.0002ZM21.4465 30.133H22.9908L20.6822 35.6085C20.5442 35.934 20.5416 36.3012 20.6757 36.6293C20.8085 36.9575 21.0663 37.2192 21.3931 37.3559L22.7734 37.9379C23.3906 38.1997 24.1067 37.9601 24.444 37.3793C24.8242 37.5108 25.1849 37.6892 25.5208 37.9119C25.4245 38.3807 25.4844 38.869 25.6888 39.3026C25.9948 39.7492 26.4609 40.0604 26.9896 40.175C27.0091 40.2961 27.0495 40.412 27.1068 40.5201H18.2239V22.5287H20.4792C20.6992 22.5287 20.8789 22.3503 20.8789 22.129V19.7487H34.2125V31.6696L33.2333 30.9782C32.663 30.5902 32.2711 30.4014 31.5523 30.5589C30.7671 30.7321 29.2293 31.473 28.3804 31.6996C28.2436 31.7452 28.0991 31.7608 27.9546 31.7465C27.6186 31.6644 27.2879 31.5577 26.965 31.4301C27.1251 30.99 27.0444 30.499 26.7488 30.1345H30.9886C31.2086 30.1345 31.3883 29.9548 31.3883 29.7347C31.3883 29.5134 31.2086 29.335 30.9886 29.335H25.2631L24.849 29.1605C24.405 28.9743 23.8959 29.0407 23.5144 29.335H21.4479C21.2266 29.335 21.0482 29.5134 21.0482 29.7347C21.0482 29.9548 21.2266 30.1345 21.4479 30.1345L21.4465 30.133ZM31.7854 18.9492L20.4792 18.9505C20.3633 18.9505 20.2526 19 20.1771 19.0885L17.5573 21.8333H17.556C17.4726 21.9089 17.4258 22.0169 17.4258 22.1289V38.5692H15.7994V17.7992H31.7867V18.9502L31.7854 18.9492ZM17.4258 39.3689H15.3997C15.1797 39.3689 15 39.1892 15 38.9691V17.3997C15 17.1784 15.1797 17 15.3997 17H32.185C32.4064 17 32.5848 17.1784 32.5848 17.3997V18.9505H34.6096C34.8309 18.9505 35.0106 19.1302 35.0106 19.3503V31.7008C36.2919 31.4717 36.7489 31.5719 38.2203 31.1032C38.3739 31.055 38.5419 30.9977 38.7203 30.9365V30.9352C38.5836 30.2945 38.9325 29.6474 39.5445 29.4104L40.9417 28.87L40.9404 28.8713C41.6279 28.6057 42.4014 28.9469 42.667 29.6344L44.9105 35.4418C45.1749 36.1293 44.8337 36.9002 44.1475 37.1671L42.7503 37.7075H42.749C42.4196 37.8351 42.0524 37.826 41.7282 37.6828C41.4053 37.5395 41.1513 37.2739 41.0237 36.9432L40.9586 36.7765H40.9599C40.4534 36.809 39.9534 36.9106 39.4742 37.0773C39.2451 37.2101 39.137 37.5929 38.3622 37.9822C38.2581 38.0343 38.1617 38.0799 38.0693 38.1202H38.068C38.2359 38.6671 38.0706 39.2622 37.6448 39.6437C37.4938 39.7869 37.305 39.882 37.1005 39.9184C37.1057 40.3247 36.9117 40.7075 36.581 40.9432C36.2906 41.1854 35.9039 41.2778 35.5341 41.1945C35.4325 41.5356 35.189 41.8156 34.8648 41.9641C34.6838 42.0487 34.4846 42.0865 34.2854 42.0734C34.2541 42.3651 34.1057 42.632 33.8739 42.8143C33.6434 42.9953 33.3479 43.0761 33.0562 43.0383C32.814 42.9953 32.5835 42.8977 32.3843 42.7531C31.8934 43.3013 31.2762 43.2779 30.6785 42.9367C30.5106 42.8365 30.3556 42.7128 30.2215 42.5695C29.5887 42.6281 29.1642 42.1333 28.7397 41.7271H28.7384C28.4129 41.7792 28.0821 41.6659 27.8556 41.4276C27.8191 41.3951 27.7801 41.3586 27.7371 41.3169H17.8242C17.6042 41.3169 17.4245 41.1372 17.4245 40.9159V39.369L17.4258 39.3689ZM30.5887 21.8086H25.2553V22.6471H30.5887V21.8086ZM24.8556 21.0091V21.0078C24.6343 21.0078 24.4559 21.1875 24.4559 21.4075V23.0456C24.4559 23.2656 24.6343 23.4453 24.8556 23.4453H30.9884C31.2097 23.4453 31.3881 23.2656 31.3881 23.0456V21.4088C31.3881 21.1875 31.2097 21.0091 30.9884 21.0091L24.8556 21.0091Z" fill="white"/>
<defs>
<linearGradient id="paint0_linear_1664_1113" x1="23.3108" y1="85.7264" x2="86.1141" y2="28.8202" gradientUnits="userSpaceOnUse">
<stop stop-color="#FF1717"/>
<stop offset="1" stop-color="#FF6461"/>
</linearGradient>
</defs>
</svg>
