<svg width="60" height="60" viewBox="0 0 60 60" fill="none" xmlns="http://www.w3.org/2000/svg">
<rect width="60" height="60" rx="8" fill="url(#paint0_linear_1664_1124)"/>
<path d="M42.3097 17H17.6903C16.2066 17 15 18.2066 15 19.6903V41.2293C15 42.713 16.2066 43.9197 17.6903 43.9197H42.3097C43.7934 43.9197 45 42.713 45 41.2293V19.6903C45 18.2066 43.7934 17 42.3097 17ZM42.3097 42.8435H17.6903C16.7999 42.8435 16.0761 42.1198 16.0761 41.2293V19.6903C16.0761 18.7999 16.7999 18.0761 17.6903 18.0761H42.3097C43.2001 18.0761 43.9239 18.7999 43.9239 19.6903V20.8418L20.4668 20.8432C20.1695 20.8432 19.9287 21.084 19.9287 21.3812C19.9287 21.6785 20.1695 21.9193 20.4668 21.9193H43.9239V24.8599H34.8588C31.7703 24.8599 29.2574 27.3727 29.2574 30.4599C29.2574 33.5485 31.7702 36.06 34.8588 36.06H43.9239V41.2282C43.9239 42.12 43.2001 42.8435 42.3097 42.8435ZM43.9239 34.9837H34.8588C32.3635 34.9837 30.3335 32.9539 30.3335 30.4598C30.3335 27.9645 32.3634 25.9359 34.8588 25.9359H43.9239V34.9837Z" fill="white"/>
<path d="M32.709 30.4604C32.709 31.7948 33.7945 32.8817 35.1289 32.8817C36.4634 32.8817 37.5502 31.7961 37.5502 30.4604C37.5502 29.1259 36.4634 28.0391 35.1289 28.0391C33.7945 28.0391 32.709 29.1259 32.709 30.4604ZM35.1289 29.1152C35.8701 29.1152 36.4741 29.7178 36.4741 30.4604C36.4741 31.2015 35.8701 31.8055 35.1289 31.8055C34.3878 31.8055 33.7851 31.2029 33.7851 30.4604C33.7851 29.7192 34.3878 29.1152 35.1289 29.1152Z" fill="white"/>
<defs>
<linearGradient id="paint0_linear_1664_1124" x1="23.3108" y1="85.7264" x2="86.1141" y2="28.8202" gradientUnits="userSpaceOnUse">
<stop stop-color="#FF1717"/>
<stop offset="1" stop-color="#FF6461"/>
</linearGradient>
</defs>
</svg>
