<svg width="60" height="60" viewBox="0 0 60 60" fill="none" xmlns="http://www.w3.org/2000/svg">
<rect width="60" height="60" rx="8" fill="url(#paint0_linear_1664_1100)"/>
<path d="M22.8075 32.6827C22.5769 32.8163 22.2808 32.7382 22.1485 32.5076C22.0149 32.277 22.093 31.9808 22.3236 31.8485L24.0702 30.8391C24.3008 30.7055 24.597 30.7837 24.7293 31.0143C24.7734 31.0899 24.7948 31.1743 24.7936 31.2562L24.7948 32.9486H42.1486C42.4158 32.9486 42.6325 33.1654 42.6325 33.4325V39.2784C42.6325 39.5456 42.4158 39.7623 42.1486 39.7623H24.7948V41.4535C24.7948 41.7206 24.5781 41.9374 24.3109 41.9374C24.2101 41.9374 24.1169 41.9071 24.04 41.8542L15.2404 36.7719C15.0098 36.6383 14.9316 36.3435 15.0652 36.1128C15.1093 36.036 15.1711 35.9767 15.2429 35.9352L20.46 32.9234C20.6906 32.7898 20.9868 32.8679 21.1191 33.0985C21.2527 33.3291 21.1745 33.6253 20.9439 33.7576L16.4475 36.3536L23.8283 40.6155V39.2759C23.8283 39.0088 24.0451 38.792 24.3122 38.792H41.666V33.9139H24.3122C24.0451 33.9139 23.8283 33.6972 23.8283 33.43V32.0905L22.8076 32.6802L22.8075 32.6827ZM29.9967 21.1749C30.2639 21.1749 30.4806 21.3916 30.4806 21.6588C30.4806 21.9259 30.2639 22.1427 29.9967 22.1427H18.334V27.0194H35.6878C35.9549 27.0194 36.1717 27.2362 36.1717 27.5034V28.8429L43.5525 24.581L36.1717 20.3191V21.6586C36.1717 21.9258 35.9549 22.1425 35.6878 22.1425H34.3016C34.0344 22.1425 33.8177 21.9258 33.8177 21.6586C33.8177 21.3915 34.0344 21.1747 34.3016 21.1747H35.2039V19.4823C35.2051 19.4004 35.2266 19.316 35.2707 19.2404C35.4042 19.0098 35.6991 18.9316 35.9297 19.0652L44.7571 24.1626C44.8289 24.203 44.8907 24.2635 44.9348 24.3403C45.0684 24.5709 44.9902 24.8671 44.7596 24.9994L35.96 30.0817C35.8831 30.1334 35.7899 30.1649 35.6891 30.1649C35.4219 30.1649 35.2052 29.9481 35.2052 29.681V27.9898H17.8514C17.5842 27.9898 17.3675 27.7731 17.3675 27.5059V21.6613C17.3675 21.3942 17.5842 21.1774 17.8514 21.1774H29.998L29.9967 21.1749ZM32.1844 21.1749C32.4515 21.1749 32.6683 21.3916 32.6683 21.6588C32.6683 21.9259 32.4515 22.1427 32.1844 22.1427H32.1163C31.8492 22.1427 31.6324 21.9259 31.6324 21.6588C31.6324 21.3916 31.8492 21.1749 32.1163 21.1749H32.1844Z" fill="white"/>
<defs>
<linearGradient id="paint0_linear_1664_1100" x1="23.3108" y1="85.7264" x2="86.1141" y2="28.8202" gradientUnits="userSpaceOnUse">
<stop stop-color="#FF1717"/>
<stop offset="1" stop-color="#FF6461"/>
</linearGradient>
</defs>
</svg>
