<svg width="60" height="60" viewBox="0 0 60 60" fill="none" xmlns="http://www.w3.org/2000/svg">
<rect width="60" height="60" rx="8" fill="url(#paint0_linear_1630_1246)"/>
<path d="M40.988 25.5112C40.991 23.6813 40.5154 21.8824 39.6085 20.293C38.7015 18.7037 37.3948 17.3791 35.8179 16.4507C34.2409 15.5224 32.4486 15.0225 30.6189 15.0007C28.7891 14.979 26.9854 15.436 25.3868 16.3266C23.7883 17.2172 22.4504 18.5103 21.5059 20.0776C20.5614 21.6449 20.0431 23.432 20.0026 25.2614C19.962 27.0909 20.4006 28.8991 21.2747 30.5068C22.1488 32.1144 23.4281 33.4655 24.9856 34.4261L21.0424 43.298C21.0023 43.388 20.9897 43.4878 21.0062 43.585C21.0227 43.6821 21.0676 43.7722 21.1351 43.8439C21.2027 43.9156 21.2899 43.9658 21.3859 43.988C21.4819 44.0103 21.5823 44.0037 21.6745 43.9691L25.3329 42.5969L27.1054 44.8126C27.1523 44.8711 27.2117 44.9183 27.2792 44.9508C27.3468 44.9832 27.4208 45 27.4957 45C27.5201 44.9999 27.5445 44.9981 27.5687 44.9945C27.6552 44.9818 27.7369 44.9466 27.8055 44.8924C27.8742 44.8382 27.9274 44.7669 27.9599 44.6857L30.494 38.3503L33.028 44.6857C33.0605 44.7669 33.1137 44.8382 33.1824 44.8924C33.2511 44.9466 33.3328 44.9818 33.4193 44.9945C33.4435 44.9981 33.4678 44.9999 33.4923 45C33.5672 45 33.6412 44.9832 33.7087 44.9508C33.7763 44.9183 33.8357 44.8711 33.8825 44.8126L35.655 42.5969L39.3134 43.9691C39.4057 44.0037 39.5061 44.0103 39.6021 43.988C39.698 43.9658 39.7853 43.9156 39.8528 43.8439C39.9204 43.7722 39.9652 43.6821 39.9817 43.585C39.9982 43.4878 39.9856 43.388 39.9456 43.298L36.0023 34.4261C37.5244 33.4883 38.7815 32.177 39.6541 30.6167C40.5267 29.0564 40.9858 27.2989 40.988 25.5112ZM27.3503 43.5183L25.8871 41.6894C25.8213 41.6071 25.7312 41.5477 25.6296 41.5197C25.528 41.4917 25.4201 41.4965 25.3214 41.5335L22.4401 42.6144L25.8626 34.9133C27.2613 35.6079 28.7985 35.9787 30.3601 35.9982L30.0362 36.8077L27.3503 43.5183ZM38.5479 42.6144L35.6665 41.5335C35.5678 41.4965 35.46 41.4917 35.3584 41.5197C35.2568 41.5477 35.1666 41.6071 35.1008 41.6894L33.6377 43.5183L31.0322 37.0046L31.4514 35.9552C32.73 35.8372 33.9756 35.4834 35.1253 34.9118L38.5479 42.6144ZM30.494 35.0057C28.6161 35.0057 26.7805 34.4489 25.2191 33.4056C23.6577 32.3623 22.4408 30.8795 21.7221 29.1446C21.0035 27.4097 20.8155 25.5006 21.1818 23.6589C21.5482 21.8171 22.4525 20.1253 23.7803 18.7975C25.1081 17.4697 26.7999 16.5654 28.6417 16.199C30.4834 15.8327 32.3925 16.0207 34.1274 16.7393C35.8623 17.458 37.3451 18.6749 38.3884 20.2363C39.4317 21.7976 39.9885 23.6333 39.9885 25.5112C39.9858 28.0284 38.9846 30.4418 37.2046 32.2218C35.4246 34.0017 33.0112 35.0029 30.494 35.0057Z" fill="white"/>
<path d="M30.4932 17.0156C28.813 17.0156 27.1706 17.5139 25.7735 18.4473C24.3765 19.3808 23.2877 20.7075 22.6447 22.2598C22.0017 23.8121 21.8335 25.5202 22.1613 27.1681C22.4891 28.816 23.2982 30.3297 24.4862 31.5177C25.6743 32.7058 27.188 33.5149 28.8359 33.8427C30.4838 34.1704 32.1918 34.0022 33.7441 33.3592C35.2964 32.7163 36.6232 31.6274 37.5566 30.2304C38.4901 28.8334 38.9883 27.1909 38.9883 25.5108C38.9858 23.2585 38.09 21.0992 36.4974 19.5066C34.9048 17.914 32.7455 17.0181 30.4932 17.0156ZM30.4932 33.0065C29.0107 33.0065 27.5615 32.5669 26.3288 31.7432C25.0961 30.9196 24.1354 29.7489 23.5681 28.3792C23.0007 27.0096 22.8523 25.5024 23.1415 24.0484C23.4307 22.5944 24.1446 21.2588 25.1929 20.2105C26.2412 19.1622 27.5768 18.4483 29.0308 18.1591C30.4849 17.8699 31.992 18.0183 33.3617 18.5856C34.7313 19.153 35.902 20.1137 36.7256 21.3464C37.5493 22.579 37.9889 24.0282 37.9889 25.5108C37.9866 27.4981 37.1962 29.4033 35.791 30.8085C34.3857 32.2138 32.4805 33.0042 30.4932 33.0065Z" fill="white"/>
<path d="M34.5668 23.5732L32.0683 23.1909L30.9459 20.8008C30.9056 20.715 30.8416 20.6424 30.7615 20.5915C30.6814 20.5407 30.5885 20.5137 30.4937 20.5137C30.3988 20.5137 30.3059 20.5407 30.2258 20.5915C30.1457 20.6424 30.0818 20.715 30.0414 20.8008L28.9191 23.1909L26.4205 23.5732C26.3297 23.5871 26.2444 23.6257 26.1741 23.6848C26.1038 23.744 26.0511 23.8214 26.022 23.9085C25.9928 23.9957 25.9882 24.0891 26.0087 24.1787C26.0292 24.2683 26.074 24.3505 26.1382 24.4162L27.9611 26.2842L27.5299 28.9281C27.5148 29.0207 27.526 29.1157 27.5624 29.2021C27.5987 29.2886 27.6586 29.3631 27.7353 29.4171C27.812 29.4711 27.9024 29.5025 27.996 29.5076C28.0897 29.5126 28.1829 29.4913 28.265 29.4458L30.4937 28.2136L32.7224 29.4458C32.8045 29.4913 32.8977 29.5126 32.9913 29.5076C33.085 29.5025 33.1753 29.4711 33.252 29.4171C33.3287 29.3631 33.3886 29.2886 33.425 29.2021C33.4613 29.1157 33.4726 29.0207 33.4575 28.9281L33.0262 26.2842L34.8492 24.4162C34.9134 24.3505 34.9582 24.2683 34.9787 24.1787C34.9992 24.0891 34.9946 23.9957 34.9654 23.9085C34.9362 23.8214 34.8836 23.744 34.8133 23.6848C34.7429 23.6257 34.6577 23.5871 34.5668 23.5732ZM32.1347 25.767C32.0802 25.8229 32.0395 25.8909 32.016 25.9655C31.9924 26.04 31.9867 26.1191 31.9993 26.1962L32.3056 28.0736L30.7355 27.2056C30.6615 27.1647 30.5783 27.1432 30.4937 27.1432C30.4091 27.1432 30.3258 27.1647 30.2518 27.2056L28.6817 28.0736L28.988 26.1962C29.0006 26.1191 28.9949 26.04 28.9714 25.9655C28.9479 25.8909 28.9072 25.8229 28.8526 25.767L27.5329 24.4142L29.3318 24.1389C29.413 24.1265 29.4898 24.0942 29.5555 24.0451C29.6212 23.9959 29.6738 23.9314 29.7086 23.8571L30.4937 22.1895L31.2767 23.8571C31.3116 23.9314 31.3642 23.9959 31.4299 24.0451C31.4956 24.0942 31.5724 24.1265 31.6535 24.1389L33.4525 24.4142L32.1347 25.767Z" fill="white"/>
<defs>
<linearGradient id="paint0_linear_1630_1246" x1="23.3108" y1="85.7264" x2="86.1141" y2="28.8202" gradientUnits="userSpaceOnUse">
<stop stop-color="#FF1717"/>
<stop offset="1" stop-color="#FF6461"/>
</linearGradient>
</defs>
</svg>
