<svg width="60" height="60" viewBox="0 0 60 60" fill="none" xmlns="http://www.w3.org/2000/svg">
<rect width="60" height="60" rx="8" fill="url(#paint0_linear_1664_1154)"/>
<path d="M39.2428 32.9397V26.319C39.2415 25.1907 38.6346 24.1507 37.6539 23.5934L31.5339 20.1507C30.5794 19.6251 29.4207 19.6251 28.4663 20.1507L22.3462 23.5976C21.3669 24.1534 20.76 25.1921 20.7573 26.319V32.9397C20.7587 34.068 21.3656 35.1079 22.3462 35.6652L28.4663 39.1121C29.4194 39.6459 30.5808 39.6459 31.5339 39.1121L37.6539 35.6611C38.6332 35.1052 39.2401 34.0666 39.2428 32.9397ZM38.1394 32.9397C38.1394 33.6694 37.7463 34.3425 37.1104 34.7011L30.9932 38.148C30.3739 38.4859 29.6263 38.4859 29.007 38.148L22.8898 34.6983C22.2553 34.3397 21.8622 33.668 21.8608 32.9397V26.319C21.8608 25.5893 22.2539 24.9162 22.8898 24.5576L29.007 21.1107C29.6249 20.7672 30.3753 20.7672 30.9932 21.1107L37.1104 24.5604C37.7449 24.919 38.138 25.5907 38.1394 26.319V32.9397ZM36.3891 25.8405L30.2719 22.395C30.1036 22.2985 29.8967 22.2985 29.7284 22.395L23.6112 25.8405C23.4402 25.9398 23.3326 26.1219 23.3312 26.3192V32.9399C23.3312 33.1385 23.4388 33.3233 23.6112 33.4213L29.7284 36.8682C29.8981 36.9606 30.1022 36.9606 30.2719 36.8682L36.3891 33.4185C36.5601 33.3192 36.6677 33.1371 36.6691 32.9399V26.3192C36.6677 26.1219 36.5601 25.9399 36.3891 25.8405ZM35.5656 32.6131L30 35.7496L24.4343 32.6131V26.6463L30 23.5098L35.5656 26.6477V32.6131ZM44.3449 16.3593L42.2193 15.1634C41.8249 14.9455 41.3476 14.9455 40.9531 15.1634L38.8276 16.3593C38.4235 16.591 38.1752 17.0241 38.1807 17.4917V17.591H21.8193V17.4917C21.8248 17.0241 21.5765 16.591 21.1724 16.3593L19.0469 15.1634C18.6524 14.9455 18.1751 14.9455 17.7807 15.1634L15.6552 16.3593C15.251 16.591 15.0027 17.0241 15.0083 17.4917V19.6986C15.0152 20.1566 15.2634 20.5759 15.6621 20.8021L17.7807 21.9979C17.8359 22.0228 17.8924 22.0448 17.9504 22.0641V37.1442C17.8924 37.1635 17.8359 37.1856 17.7807 37.2104L15.6552 38.4283C15.2566 38.6532 15.0069 39.0739 15 39.5318V41.7677C15.0069 42.2256 15.2566 42.6449 15.6552 42.8711L17.7738 44.067C18.1683 44.2821 18.6456 44.2821 19.0386 44.067L21.1725 42.9001C21.5711 42.6752 21.8207 42.2546 21.8276 41.7966V41.6973H38.1806V41.7676C38.1875 42.2256 38.4358 42.6449 38.8344 42.8711L40.9531 44.067C41.3476 44.2821 41.8248 44.2821 42.2193 44.067L44.3448 42.9001C44.7434 42.6752 44.9931 42.2545 45 41.7966V39.5607C44.9931 39.1028 44.7434 38.6835 44.3448 38.4573L42.2262 37.2614C42.171 37.2366 42.1144 37.2145 42.0565 37.1952V22.1152C42.1144 22.0958 42.171 22.0738 42.2262 22.049L44.3448 20.831C44.7434 20.6062 44.9931 20.1855 45 19.7276V17.4917C45.0027 17.0227 44.7532 16.5896 44.3449 16.3593ZM41.5048 16.1276C41.531 16.1097 41.5628 16.1014 41.5931 16.1014C41.6262 16.1014 41.6579 16.1097 41.6855 16.1276L43.4469 17.1234L41.5862 18.1717L39.7256 17.1234L41.5048 16.1276ZM18.3323 16.1276C18.3585 16.1097 18.3903 16.1014 18.4206 16.1014C18.4537 16.1014 18.4854 16.1097 18.513 16.1276L20.2744 17.1234L18.4137 18.1717L16.553 17.1234L18.3323 16.1276ZM16.2027 19.8684C16.1447 19.8367 16.1089 19.776 16.1116 19.7098V18.1387L18.142 19.2863C18.3117 19.3801 18.5158 19.3801 18.6855 19.2863L20.7158 18.1387V19.6987C20.7186 19.7649 20.6827 19.8256 20.6248 19.8574L18.502 21.0532V21.0518C18.4468 21.0849 18.3779 21.0849 18.3213 21.0518L16.2027 19.8684ZM18.3254 38.1966C18.3516 38.1787 18.382 38.1704 18.4137 38.1704C18.4468 38.1704 18.4785 38.1787 18.5061 38.1966L20.2744 39.1925L18.4137 40.2408L16.553 39.1925L18.3254 38.1966ZM20.6248 41.9374L18.502 43.1333V43.1319C18.4468 43.165 18.3779 43.165 18.3213 43.1319L16.2027 41.9361V41.9374C16.1447 41.9057 16.1089 41.845 16.1116 41.7788V40.2078L18.142 41.3554C18.3116 41.4492 18.5158 41.4492 18.6855 41.3554L20.7158 40.2078V41.7678C20.7227 41.8382 20.6868 41.9043 20.6248 41.9374ZM21.8206 40.576L21.8192 39.5609C21.8123 39.1029 21.5641 38.6836 21.1654 38.4574L19.0537 37.2698V22.0199L21.1723 20.8309C21.5709 20.6061 21.8206 20.1854 21.8275 19.7275V18.6834H38.1805V19.6985C38.1874 20.1565 38.4357 20.5758 38.8343 20.802L40.946 21.9896V37.2395L38.8274 38.4285C38.4288 38.6533 38.1792 39.074 38.1722 39.5319V40.5581L21.8206 40.576ZM43.7972 41.9374L41.6744 43.1333V43.1319C41.6192 43.165 41.5503 43.165 41.4937 43.1319L39.3751 41.9361V41.9374C39.3172 41.9057 39.2813 41.845 39.284 41.7788V40.2078L41.3144 41.3554C41.4841 41.4492 41.6882 41.4492 41.8579 41.3554L43.8882 40.2078V41.7678C43.8951 41.8382 43.8592 41.9043 43.7972 41.9374ZM43.4289 39.194L41.5861 40.2409L39.7254 39.1926L41.4978 38.1953V38.1967C41.524 38.1788 41.5544 38.1705 41.5861 38.1705C41.6192 38.1705 41.6509 38.1788 41.6785 38.1967L43.4289 39.194ZM43.7972 19.8686L41.6744 21.0644V21.063C41.6192 21.0961 41.5503 21.0961 41.4937 21.063L39.3751 19.8672V19.8686C39.3172 19.8368 39.2813 19.7761 39.284 19.7099V18.1389L41.3144 19.2865C41.4841 19.3803 41.6882 19.3803 41.8579 19.2865L43.8882 18.1389V19.6989C43.8951 19.7693 43.8592 19.8355 43.7972 19.8686ZM29.6316 27.4232H30.7061C31.011 27.4232 31.2579 27.6701 31.2579 27.975C31.2579 28.2798 31.011 28.5267 30.7061 28.5267H30.1834V28.895H30.7061C31.011 28.895 31.2579 29.1419 31.2579 29.4467C31.2579 29.7515 31.011 29.9984 30.7061 29.9984H30.1834V31.3074C30.1834 31.6122 29.9365 31.8591 29.6316 31.8591C29.3268 31.8591 29.0799 31.6122 29.0799 31.3074V27.9598C29.0896 27.6618 29.3337 27.4246 29.6316 27.4232ZM28.5723 27.975V31.3143C28.5682 31.5612 28.3999 31.775 28.1613 31.837C28.1144 31.8426 28.0675 31.8426 28.0206 31.837C27.8206 31.8357 27.6372 31.7281 27.5392 31.5543L26.7116 30.0825V31.3005C26.7116 31.6053 26.4647 31.8522 26.1599 31.8522C25.855 31.8522 25.6081 31.6053 25.6081 31.3005V27.9598C25.6081 27.7088 25.7778 27.4895 26.0206 27.426C26.2647 27.3639 26.5199 27.4729 26.6413 27.6922L27.4689 29.1639V27.9598C27.4689 27.655 27.7158 27.4081 28.0206 27.4081C28.3254 27.4081 28.5723 27.655 28.5723 27.9598L28.5723 27.975ZM31.5144 27.975H31.5158C31.5158 27.6701 31.7627 27.4232 32.0675 27.4232H33.833C34.1379 27.4232 34.3848 27.6701 34.3848 27.975C34.3848 28.2798 34.1379 28.5267 33.833 28.5267H33.502V31.3143C33.502 31.6191 33.2551 31.866 32.9503 31.866C32.6454 31.866 32.3985 31.6191 32.3985 31.3143V28.5267H32.0675C31.9199 28.5253 31.7792 28.4632 31.6758 28.357C31.5737 28.2508 31.5185 28.1074 31.5227 27.9598L31.5144 27.975Z" fill="white"/>
<defs>
<linearGradient id="paint0_linear_1664_1154" x1="23.3108" y1="85.7264" x2="86.1141" y2="28.8202" gradientUnits="userSpaceOnUse">
<stop stop-color="#FF1717"/>
<stop offset="1" stop-color="#FF6461"/>
</linearGradient>
</defs>
</svg>
