<svg width="60" height="60" viewBox="0 0 60 60" fill="none" xmlns="http://www.w3.org/2000/svg">
<rect width="60" height="60" rx="8" fill="url(#paint0_linear_1664_1139)"/>
<path d="M27.2525 32.8327V32.8253L27.2537 32.7554C27.2537 32.2717 27.0642 31.8328 26.7562 31.5111L26.7288 31.4849C26.4046 31.1608 25.9557 30.96 25.4595 30.96C24.9633 30.96 24.5144 31.1608 24.1902 31.4849C23.866 31.8078 23.6653 32.258 23.6653 32.7555C23.6653 33.238 23.8548 33.6769 24.1628 33.9998L24.1902 34.026C24.5144 34.3501 24.9633 34.5509 25.4595 34.5509C25.9558 34.5509 26.4058 34.3501 26.73 34.026C27.0368 33.718 27.2325 33.2978 27.2525 32.8327ZM28.0766 28.9763C27.7237 28.9763 27.4382 28.6908 27.4382 28.3379C27.4382 27.985 27.7238 27.6995 28.0766 27.6995H28.725C29.0778 27.6995 29.3633 27.9851 29.3633 28.3379C29.3633 28.6908 29.0778 28.9763 28.725 28.9763H28.0766ZM31.2749 28.9763C30.922 28.9763 30.6365 28.6908 30.6365 28.3379C30.6365 27.985 30.922 27.6995 31.2749 27.6995H31.922C32.2749 27.6995 32.5604 27.9851 32.5604 28.3379C32.5604 28.6908 32.2748 28.9763 31.922 28.9763H31.2749ZM20.6842 25.0662C20.6842 24.7133 20.9697 24.4278 21.3226 24.4278C21.6754 24.4278 21.9609 24.7134 21.9609 25.0662V25.7794C21.9609 26.1323 21.6754 26.4178 21.3226 26.4178C20.9697 26.4178 20.6842 26.1323 20.6842 25.7794V25.0662ZM36.554 25.7732C36.3046 25.5238 36.3046 25.1198 36.554 24.8705C36.8033 24.6211 37.2073 24.6211 37.4567 24.8705L38.0863 25.5001C38.3357 25.7495 38.3357 26.1535 38.0863 26.4028C37.837 26.6522 37.433 26.6522 37.1836 26.4028L36.554 25.7732ZM37.4567 29.6271C37.2073 29.8764 36.8033 29.8764 36.554 29.6271C36.3046 29.3777 36.3046 28.9737 36.554 28.7244L37.1836 28.0947C37.433 27.8453 37.837 27.8453 38.0863 28.0947C38.3357 28.3441 38.3357 28.748 38.0863 28.9974L37.4567 29.6271ZM40.6799 26.4026C40.4305 26.6507 40.0278 26.6495 39.7796 26.4001C39.5315 26.1507 39.5328 25.748 39.7821 25.4999L40.4118 24.8715C40.6612 24.6234 41.0639 24.6246 41.312 24.874C41.5601 25.1233 41.5589 25.5261 41.3095 25.7742L40.6799 26.4026ZM39.7821 28.9985C39.5328 28.7504 39.5328 28.3476 39.7796 28.0983C40.0278 27.8489 40.4305 27.8489 40.6799 28.0958L41.3095 28.7242C41.5589 28.9723 41.5589 29.3751 41.312 29.6244C41.0639 29.8738 40.6612 29.8738 40.4118 29.6269L39.7821 28.9985ZM19.1408 27.8888C18.7879 27.8888 18.5024 27.6033 18.5024 27.2504C18.5024 26.8976 18.7879 26.6121 19.1408 26.6121H19.854C20.2068 26.6121 20.4923 26.8976 20.4923 27.2504C20.4923 27.6033 20.2068 27.8888 19.854 27.8888H19.1408ZM22.7926 27.8888C22.4398 27.8888 22.1542 27.6033 22.1542 27.2504C22.1542 26.8976 22.4398 26.6121 22.7926 26.6121H23.5058C23.8587 26.6121 24.1442 26.8976 24.1442 27.2504C24.1442 27.6033 23.8587 27.8888 23.5058 27.8888H22.7926ZM20.6855 28.7192C20.6855 28.3664 20.971 28.0808 21.3238 28.0808C21.6767 28.0808 21.9622 28.3664 21.9622 28.7192V29.4324C21.9622 29.7853 21.6767 30.0708 21.3238 30.0708C20.971 30.0708 20.6855 29.7853 20.6855 29.4324V28.7192ZM34.5415 29.683C35.3893 29.683 36.1586 30.0271 36.7135 30.5832L36.7484 30.6206C37.2833 31.1742 37.6137 31.9273 37.6137 32.7552C37.6137 33.4709 37.3681 34.1292 36.9554 34.6529L37.1212 35.7339C37.1399 35.8474 37.1586 35.9471 37.1798 36.0319C37.4017 36.9508 37.9379 37.5904 38.6112 37.967C39.3032 38.3547 40.1435 38.4769 40.9427 38.3535L41.2682 38.2899C41.6098 38.2088 41.9527 38.4196 42.0337 38.7612C42.1147 39.1028 41.904 39.4457 41.5624 39.5267C41.4065 39.5642 41.2619 39.5941 41.1347 39.6128C40.0624 39.7749 38.9303 39.6065 37.9877 39.0791C37.0239 38.5392 36.2571 37.6328 35.9429 36.3311C35.9093 36.1914 35.8818 36.0568 35.8606 35.9296L35.8033 35.5568C35.418 35.7314 34.9903 35.8274 34.5415 35.8274C33.6949 35.8274 32.9281 35.4832 32.372 34.9272C31.9842 34.5394 31.6999 34.0494 31.5615 33.5033H28.4407C28.3036 34.0494 28.0193 34.5382 27.6328 34.9247C27.0742 35.4832 26.3062 35.8274 25.4608 35.8274C25.0107 35.8274 24.583 35.7301 24.1978 35.5556L24.1441 35.9034C23.8324 37.9295 22.4946 39.1017 20.9312 39.5093C20.3053 39.6726 19.6419 39.71 18.9973 39.6265C18.349 39.543 17.7168 39.3385 17.1558 39.0206C15.7755 38.2375 14.8117 36.785 15.0312 34.7527L15.8404 27.283C15.8778 26.9339 16.192 26.6808 16.5411 26.7169C16.8902 26.7543 17.1433 27.0685 17.1072 27.4176L16.2979 34.8873C16.1421 36.3349 16.8166 37.3635 17.7842 37.9122C18.2018 38.1491 18.6732 38.3012 19.1569 38.3635C19.6432 38.4259 20.1432 38.3984 20.612 38.2763C21.7154 37.9882 22.6593 37.1554 22.8825 35.7128L23.0483 34.6517C22.6356 34.1281 22.3887 33.4685 22.3887 32.7516C22.3887 31.905 22.7329 31.1381 23.2889 30.5808C23.845 30.0235 24.6131 29.6781 25.4609 29.6781C26.3088 29.6781 27.0781 30.0222 27.6329 30.5783L27.6678 30.6157C28.0868 31.0484 28.3798 31.6032 28.487 32.2216H31.5143C31.6253 31.587 31.9308 31.0184 32.3684 30.5796C32.9245 30.0222 33.6925 29.6769 34.5404 29.6769L34.5415 29.683ZM35.8108 31.4859C35.4866 31.1618 35.0377 30.961 34.5415 30.961C34.0452 30.961 33.5964 31.1618 33.2722 31.4859C32.948 31.8088 32.7473 32.259 32.7473 32.7565L32.7485 32.8263V32.8338C32.7685 33.3001 32.9655 33.7202 33.271 34.027C33.5951 34.3499 34.0452 34.5519 34.5415 34.5519C35.0377 34.5519 35.4866 34.3512 35.8108 34.027L35.8133 34.0245L35.8232 34.0133L35.8257 34.012L35.8345 34.0021L35.8407 33.9958C36.1474 33.6741 36.3357 33.2377 36.3357 32.7565C36.3357 32.2727 36.1462 31.8338 35.8382 31.5121L35.8108 31.4859ZM43.9887 38.0979C43.7593 38.3635 43.3566 38.3922 43.091 38.1628C42.8255 37.9334 42.7968 37.5306 43.0262 37.2651L43.1047 37.1715C43.3267 36.8985 43.7281 36.8573 44 37.0793C44.273 37.3012 44.3142 37.7027 44.0922 37.9745L43.9887 38.0979ZM44.9999 35.2178C45.0049 35.5694 44.7244 35.8586 44.374 35.8636C44.0224 35.8686 43.7332 35.5881 43.7282 35.2377L43.7045 34.8911L42.6434 25.0958C42.5562 24.2904 42.1759 23.5846 41.6148 23.0822C41.055 22.5797 40.3131 22.278 39.5014 22.278H34.5252L33.2821 23.2867C33.1637 23.3827 33.0216 23.4288 32.8807 23.4288L27.119 23.4313C26.9482 23.4313 26.7923 23.364 26.6788 23.2542L25.4757 22.278H20.4995C19.6841 22.278 18.9397 22.5797 18.3811 23.0872C17.8225 23.5946 17.4423 24.3091 17.3525 25.1345C17.3151 25.4836 17.0008 25.7367 16.6517 25.7006C16.3026 25.6631 16.0495 25.3489 16.0857 24.9998C16.2104 23.854 16.7428 22.8565 17.5283 22.1446C18.3188 21.4277 19.3624 21 20.4995 21H25.6988C25.8397 21.0025 25.9818 21.0486 26.1002 21.1446L27.3433 22.1533H32.6585L33.8617 21.1771C33.9764 21.0673 34.131 21 34.3018 21H39.5011C40.6357 21 41.6781 21.4252 42.4673 22.1334C43.2541 22.8391 43.7877 23.8291 43.9099 24.96L44.9709 34.7553L44.9909 34.9847L44.9996 35.2166L44.9999 35.2178Z" fill="white"/>
<defs>
<linearGradient id="paint0_linear_1664_1139" x1="23.3108" y1="85.7264" x2="86.1141" y2="28.8202" gradientUnits="userSpaceOnUse">
<stop stop-color="#FF1717"/>
<stop offset="1" stop-color="#FF6461"/>
</linearGradient>
</defs>
</svg>
