<svg width="47" height="50" viewBox="0 0 47 50" fill="none" xmlns="http://www.w3.org/2000/svg">
<path d="M27.7678 4.16741C27.6531 3.0253 27.1183 1.9665 26.2671 1.19645C25.4159 0.426394 24.3089 0 23.1611 0C22.0133 0 20.9063 0.426394 20.0551 1.19645C19.2039 1.9665 18.6691 3.0253 18.5544 4.16741C14.6361 4.96091 10.9901 6.75565 7.97142 9.37685C4.95277 11.998 2.66441 15.3563 1.32921 19.1246C-0.00599029 22.8929 -0.342515 26.9428 0.352411 30.8798C1.04734 34.8168 2.75002 38.5067 5.29464 41.5902C4.85324 42.3106 4.61932 43.1389 4.61869 43.9838C4.61997 44.8857 4.88465 45.7676 5.38023 46.5212C5.8758 47.2748 6.58068 47.8672 7.40829 48.2256C8.2359 48.5841 9.1502 48.6931 10.0389 48.5391C10.9275 48.3851 11.7519 47.975 12.4107 47.359C15.3469 48.8963 18.579 49.7853 21.8884 49.9657C25.1978 50.1461 28.5073 49.6138 31.5933 48.4047C34.6792 47.1956 37.4695 45.338 39.7755 42.9575C42.0816 40.5769 43.8495 37.7289 44.9598 34.6061C46.0702 31.4833 46.497 28.1585 46.2115 24.8565C45.9259 21.5545 44.9347 18.3523 43.3047 15.4665C41.6748 12.5807 39.4441 10.0785 36.7637 8.12913C34.0832 6.1798 31.0154 4.82877 27.7678 4.16741ZM23.138 1.8525C23.6874 1.8525 24.2244 2.01543 24.6813 2.32066C25.1381 2.6259 25.4941 3.05975 25.7044 3.56734C25.9146 4.07493 25.9696 4.63348 25.8625 5.17233C25.7553 5.71119 25.4907 6.20616 25.1022 6.59466C24.7137 6.98315 24.2187 7.24772 23.6799 7.35491C23.141 7.46209 22.5825 7.40708 22.0749 7.19683C21.5673 6.98658 21.1335 6.63053 20.8282 6.17371C20.523 5.71689 20.3601 5.17981 20.3601 4.63039C20.3601 3.89365 20.6527 3.18708 21.1737 2.66613C21.6946 2.14517 22.4012 1.8525 23.138 1.8525ZM9.24851 46.7617C8.69909 46.7617 8.16202 46.5988 7.70519 46.2935C7.24837 45.9883 6.89232 45.5545 6.68207 45.0469C6.47182 44.5393 6.41681 43.9807 6.52399 43.4419C6.63118 42.903 6.89575 42.4081 7.28424 42.0196C7.67274 41.6311 8.16771 41.3665 8.70657 41.2593C9.24542 41.1521 9.80397 41.2071 10.3116 41.4174C10.8192 41.6276 11.253 41.9837 11.5582 42.4405C11.8635 42.8973 12.0264 43.4344 12.0264 43.9838C12.0264 44.7206 11.7337 45.4271 11.2128 45.9481C10.6918 46.469 9.98525 46.7617 9.24851 46.7617ZM23.138 48.1507C19.7846 48.1473 16.4792 47.3543 13.4894 45.8357C13.7462 45.2521 13.8786 44.6214 13.8783 43.9838C13.8783 42.7559 13.3905 41.5783 12.5223 40.71C11.654 39.8418 10.4764 39.354 9.24851 39.354C8.28469 39.3534 7.34516 39.6563 6.56321 40.2198C4.27814 37.3856 2.75776 34.013 2.14724 30.4239C1.53671 26.8348 1.85644 23.1492 3.07588 19.7188C4.29532 16.2885 6.37377 13.2281 9.11275 10.8297C11.8517 8.43137 15.1598 6.7752 18.7211 6.01934C19.0165 6.95938 19.6042 7.78065 20.3985 8.36369C21.1929 8.94672 22.1526 9.2611 23.138 9.2611C24.1233 9.2611 25.083 8.94672 25.8774 8.36369C26.6717 7.78065 27.2594 6.95938 27.5548 6.01934C32.7043 7.11097 37.2671 10.071 40.3629 14.3284C43.4587 18.5857 44.8681 23.8388 44.3193 29.074C43.7705 34.3093 41.3022 39.1558 37.3908 42.6786C33.4794 46.2013 28.4019 48.1507 23.138 48.1507Z" fill="#FD1716"/>
<path d="M23.1376 21.7598C22.2219 21.7598 21.3268 22.0313 20.5654 22.54C19.8041 23.0488 19.2107 23.7718 18.8602 24.6178C18.5098 25.4638 18.4181 26.3947 18.5968 27.2928C18.7754 28.1909 19.2164 29.0159 19.8639 29.6634C20.5113 30.3108 21.3363 30.7518 22.2344 30.9304C23.1325 31.1091 24.0634 31.0174 24.9094 30.667C25.7554 30.3166 26.4784 29.7231 26.9872 28.9618C27.4959 28.2004 27.7674 27.3053 27.7674 26.3896C27.7674 25.1617 27.2797 23.9841 26.4114 23.1158C25.5431 22.2475 24.3655 21.7598 23.1376 21.7598ZM23.1376 29.1675C22.5882 29.1675 22.0511 29.0045 21.5943 28.6993C21.1375 28.3941 20.7814 27.9602 20.5712 27.4526C20.3609 26.945 20.3059 26.3865 20.4131 25.8476C20.5203 25.3088 20.7849 24.8138 21.1734 24.4253C21.5619 24.0368 22.0568 23.7723 22.5957 23.6651C23.1345 23.5579 23.6931 23.6129 24.2007 23.8231C24.7083 24.0334 25.1421 24.3894 25.4474 24.8463C25.7526 25.3031 25.9155 25.8402 25.9155 26.3896C25.9155 27.1263 25.6228 27.8329 25.1019 28.3538C24.5809 28.8748 23.8744 29.1675 23.1376 29.1675Z" fill="#FD1716"/>
<path d="M36.3046 28.9923C36.477 28.1357 36.5638 27.2641 36.5639 26.3903C36.5639 23.3492 35.5315 20.3982 33.6356 18.0203C31.7398 15.6424 29.0929 13.9786 26.1281 13.3012C23.1634 12.6238 20.0566 12.9729 17.3161 14.2915C14.5757 15.61 12.3641 17.8198 11.0433 20.5592C9.72254 23.2985 9.37086 26.4051 10.0458 29.3704C10.7208 32.3356 12.3825 34.9839 14.7588 36.8817C17.1351 38.7795 20.0853 39.8143 23.1264 39.8168C26.1676 39.8193 29.1194 38.7893 31.4989 36.8954C32.5438 37.4658 33.7683 37.6118 34.9181 37.303C36.0679 36.9942 37.0545 36.2543 37.673 35.2371C38.2916 34.2199 38.4945 33.0035 38.2397 31.8406C37.9849 30.6777 37.2918 29.6576 36.3046 28.9923ZM11.5629 26.3903C11.5617 24.7884 11.8931 23.2036 12.536 21.7363C13.179 20.269 14.1195 18.9512 15.2981 17.8662C16.4767 16.7812 17.8677 15.9526 19.383 15.433C20.8984 14.9134 22.5051 14.714 24.1015 14.8474C25.6979 14.9809 27.2492 15.4442 28.6573 16.2082C30.0654 16.9722 31.2995 18.0201 32.2816 19.2857C33.2638 20.5514 33.9725 22.0071 34.3629 23.5607C34.7534 25.1144 34.817 26.7322 34.5499 28.3117C33.6385 28.1603 32.7026 28.285 31.8626 28.6699C31.0227 29.0547 30.317 29.6821 29.8366 30.4713C29.3561 31.2604 29.1227 32.1753 29.1665 33.0982C29.2103 34.0211 29.5291 34.9098 30.0821 35.65C28.3625 36.9397 26.3177 37.7251 24.1769 37.9181C22.036 38.1112 19.8837 37.7042 17.9611 36.7429C16.0385 35.7816 14.4216 34.3039 13.2915 32.4754C12.1615 30.6469 11.5629 28.5399 11.5629 26.3903ZM33.786 35.65C33.2366 35.65 32.6995 35.4871 32.2427 35.1818C31.7859 34.8766 31.4298 34.4427 31.2196 33.9351C31.0093 33.4275 30.9543 32.869 31.0615 32.3301C31.1687 31.7913 31.4332 31.2963 31.8217 30.9078C32.2102 30.5193 32.7052 30.2548 33.2441 30.1476C33.7829 30.0404 34.3414 30.0954 34.849 30.3057C35.3566 30.5159 35.7905 30.872 36.0957 31.3288C36.401 31.7856 36.5639 32.3227 36.5639 32.8721C36.5639 33.6088 36.2712 34.3154 35.7503 34.8363C35.2293 35.3573 34.5227 35.65 33.786 35.65Z" fill="#FD1716"/>
</svg>
