<svg width="49" height="50" viewBox="0 0 49 50" fill="none" xmlns="http://www.w3.org/2000/svg">
<path d="M36.229 30.5286C35.6246 29.9242 36.5371 29.0116 37.1534 29.6042L38.1251 30.576L40.6139 28.3598H35.269V33.3491H40.7917V29.936L38.5636 31.927C38.3148 32.1759 37.9 32.1759 37.6393 31.927L36.229 30.5286ZM41.8701 27.2339L42.4034 26.7599C43.0434 26.191 43.8967 27.151 43.2685 27.7317L42.0834 28.7864V34.0009C42.0834 34.3565 41.799 34.6528 41.4316 34.6528H34.6172C34.2617 34.6528 33.9654 34.3683 33.9654 34.0009V31.5122H20.4906C20.2892 31.5122 20.1233 31.4292 19.9929 31.287L18.6656 29.9597C17.0064 30.9315 15.0984 31.5241 13.0718 31.6307V48.7082H39.3577V41.7279C39.3577 41.3724 39.6421 41.0761 40.0095 41.0761H46.9898V1.30363H13.0718V6.79071C15.8331 6.93292 18.3574 7.97582 20.3484 9.63498C20.621 9.44537 20.8936 9.19649 21.178 9.19649H33.9535V6.70775C33.9535 6.35222 34.238 6.05594 34.6054 6.05594H41.4198C41.5975 6.05594 41.7516 6.12705 41.8701 6.24556L42.3797 5.78336C43.0197 5.21451 43.873 6.17445 43.2449 6.7433L42.0597 7.79806V12.9889C42.0597 13.3444 41.7753 13.6407 41.4079 13.6407H34.5935C34.238 13.6407 33.9417 13.3562 33.9417 12.9889V10.5001H21.3795L21.3202 10.5357C23.6193 12.9059 24.9704 16.1531 24.84 19.6848H33.9654V17.1842C33.9654 16.8286 34.2498 16.5324 34.6172 16.5324H41.4316C41.6094 16.5324 41.7635 16.6035 41.882 16.722L42.4034 16.2598C43.0434 15.6909 43.8967 16.6509 43.2685 17.2197L42.0834 18.2745V23.4653C42.0834 23.8208 41.799 24.1171 41.4316 24.1171H34.6172C34.2617 24.1171 33.9654 23.8327 33.9654 23.4653V20.9765H24.7215C24.2356 24.3186 22.4224 27.2695 19.7796 29.2012L20.7632 30.1849H33.9654V27.6843C33.9654 27.3288 34.2498 27.0325 34.6172 27.0325H41.4316C41.5975 27.0562 41.7516 27.1154 41.8701 27.2339ZM36.229 20.0403C35.6246 19.4359 36.5371 18.5233 37.1534 19.1278L38.1251 20.0996L40.6376 17.8597H35.269V22.849H40.7917V19.4596L38.5518 21.4387C38.3029 21.6876 37.8881 21.6876 37.6274 21.4387L36.229 20.0403ZM36.229 9.55203C35.6246 8.94762 36.5371 8.03508 37.1534 8.62764L38.1251 9.59943L40.6376 7.34771H35.2572V12.337H40.7798V8.94762L38.5518 10.9386C38.3029 11.1875 37.8881 11.1875 37.6274 10.9386L36.229 9.55203ZM17.7175 28.9998L16.3546 27.6487C15.7502 27.0562 16.6627 26.1318 17.2671 26.7362L18.8433 28.3005C21.2491 26.594 22.932 23.9867 23.406 21.0002H22.5883C21.735 21.0002 21.735 19.7085 22.5883 19.7085H23.5364C23.6786 16.4494 22.4105 13.4392 20.2418 11.306L19.1159 12.0882C18.8196 12.2896 18.4167 12.2185 18.2152 11.9223C18.0137 11.626 18.0849 11.223 18.3811 11.0216L19.2344 10.429C14.8139 6.99218 8.50913 7.39512 4.55084 11.3534C0.213321 15.7028 0.213321 22.7424 4.55084 27.0917C8.02323 30.5523 13.3799 31.3344 17.7175 28.9998ZM8.41432 17.6345L5.7004 16.0702V23.086L11.78 26.594V19.5781L8.41432 17.6345ZM8.7343 16.3309L14.8139 12.8229L12.42 11.4482L9.06613 13.3799L6.35222 14.9443L8.7343 16.3309ZM16.1057 13.5696L10.0379 17.0775L12.4319 18.4522L18.5115 14.9443L16.1057 13.5696ZM13.0718 19.5781V26.594L19.1396 23.086V16.0702L13.0718 19.5781ZM12.7992 28.2413C12.5741 28.4072 12.2896 28.3954 12.0645 28.2531L8.41432 26.1436L4.72861 24.0223C4.52714 23.9038 4.40863 23.6786 4.40863 23.4653V14.9562C4.40863 14.6954 4.56269 14.4703 4.78786 14.3636L8.41432 12.2659L12.1 10.1327C12.3133 10.0142 12.5622 10.0261 12.7637 10.1327L16.4731 12.2778L20.0877 14.3636C20.3129 14.4821 20.4432 14.6954 20.4432 14.9443V23.4534C20.4432 23.7141 20.2892 23.9393 20.064 24.046L12.7992 28.2413ZM11.78 31.6189C5.20265 31.2752 0 25.8355 0 19.2107C0 12.5859 5.20265 7.13439 11.78 6.80256V0.651813C11.78 0.296279 12.0645 0 12.4319 0H47.6416C47.9972 0 48.2934 0.296279 48.2934 0.651813V41.716C48.2934 41.8938 48.2223 42.0479 48.1038 42.1782L40.4361 49.8459C40.3769 49.917 40.1635 50 40.0213 50H12.42C12.0645 50 11.7682 49.7156 11.7682 49.3482V31.6189H11.78ZM18.0137 43.79C17.1605 43.79 17.1605 42.4982 18.0137 42.4982H35.2216C36.0749 42.4982 36.0749 43.79 35.2216 43.79H18.0137ZM18.0137 39.5828C17.1605 39.5828 17.1605 38.2911 18.0137 38.2911H27.7554C28.6087 38.2911 28.6087 39.5828 27.7554 39.5828H18.0137ZM46.0654 42.356H40.6613V47.7601L46.0654 42.356Z" fill="#FD1716"/>
</svg>
