<svg width="50" height="50" viewBox="0 0 50 50" fill="none" xmlns="http://www.w3.org/2000/svg">
<path d="M24.7089 9.06055C23.6171 9.06185 22.5704 9.49615 21.7984 10.2682C21.0264 11.0402 20.5921 12.0869 20.5908 13.1787C20.5944 14.0816 20.8974 14.9578 21.4523 15.6702C20.0996 15.7722 18.8353 16.3811 17.9121 17.375C16.9889 18.3689 16.4748 19.6746 16.4727 21.0312V28.004C16.4727 28.2224 16.5594 28.4319 16.7139 28.5864C16.8684 28.7409 17.0778 28.8276 17.2963 28.8276H19.7672V39.5348C19.7672 39.7532 19.8539 39.9627 20.0084 40.1172C20.1629 40.2716 20.3724 40.3584 20.5908 40.3584H28.8271C29.0455 40.3584 29.255 40.2716 29.4095 40.1172C29.5639 39.9627 29.6507 39.7532 29.6507 39.5348V28.8276H32.1216C32.34 28.8276 32.5495 28.7409 32.704 28.5864C32.8584 28.4319 32.9452 28.2224 32.9452 28.004V21.0312C32.9431 19.6746 32.429 18.3689 31.5058 17.375C30.5826 16.3811 29.3182 15.7722 27.9656 15.6702C28.5204 14.9578 28.8234 14.0816 28.8271 13.1787C28.8258 12.0869 28.3915 11.0402 27.6195 10.2682C26.8474 9.49615 25.8007 9.06185 24.7089 9.06055ZM24.7089 10.7078C25.1976 10.7078 25.6754 10.8527 26.0817 11.1242C26.488 11.3957 26.8047 11.7816 26.9917 12.2331C27.1788 12.6846 27.2277 13.1814 27.1323 13.6607C27.037 14.14 26.8017 14.5803 26.4561 14.9259C26.1106 15.2714 25.6703 15.5068 25.191 15.6021C24.7117 15.6974 24.2149 15.6485 23.7634 15.4615C23.3119 15.2745 22.926 14.9578 22.6545 14.5514C22.383 14.1451 22.2381 13.6674 22.2381 13.1787C22.2381 12.5234 22.4984 11.8949 22.9618 11.4315C23.4251 10.9681 24.0536 10.7078 24.7089 10.7078ZM31.298 21.0312V27.1804H29.6507V19.7677H28.0035V38.7112H25.5326V28.004H23.8853V38.7112H21.4144V19.7677H19.7672V27.1804H18.1199V21.0312C18.121 20.0411 18.5148 19.0919 19.2149 18.3918C19.915 17.6917 20.8642 17.2979 21.8542 17.2968H27.5636C28.5537 17.2979 29.5029 17.6917 30.203 18.3918C30.9031 19.0919 31.2969 20.0411 31.298 21.0312Z" fill="#FD1716"/>
<path d="M42.8301 3.29451C42.8301 3.94611 43.0233 4.58307 43.3853 5.12485C43.7473 5.66663 44.2618 6.08889 44.8638 6.33825C45.4658 6.5876 46.1282 6.65284 46.7673 6.52572C47.4064 6.3986 47.9934 6.08483 48.4542 5.62409C48.9149 5.16334 49.2287 4.57631 49.3558 3.93724C49.4829 3.29817 49.4177 2.63575 49.1683 2.03376C48.919 1.43176 48.4967 0.917231 47.9549 0.555226C47.4131 0.19322 46.7762 0 46.1246 0C45.2508 0 44.4129 0.3471 43.795 0.964941C43.1772 1.58278 42.8301 2.42075 42.8301 3.29451ZM47.7718 3.29451C47.7718 3.62031 47.6752 3.93879 47.4942 4.20968C47.3132 4.48057 47.056 4.6917 46.755 4.81638C46.454 4.94106 46.1228 4.97368 45.8032 4.91012C45.4837 4.84656 45.1902 4.68967 44.9598 4.4593C44.7294 4.22893 44.5725 3.93541 44.509 3.61588C44.4454 3.29634 44.478 2.96513 44.6027 2.66413C44.7274 2.36314 44.9385 2.10587 45.2094 1.92487C45.4803 1.74387 45.7988 1.64726 46.1246 1.64726C46.5615 1.64726 46.9805 1.82081 47.2894 2.12973C47.5983 2.43865 47.7718 2.85763 47.7718 3.29451Z" fill="#FD1716"/>
<path d="M17.2969 3.29451C17.2969 3.94611 17.4901 4.58307 17.8521 5.12485C18.2141 5.66663 18.7286 6.08889 19.3306 6.33825C19.9326 6.5876 20.595 6.65284 21.2341 6.52572C21.8732 6.3986 22.4602 6.08483 22.921 5.62409C23.3817 5.16334 23.6955 4.57631 23.8226 3.93724C23.9497 3.29817 23.8845 2.63575 23.6351 2.03376C23.3858 1.43176 22.9635 0.917231 22.4217 0.555226C21.8799 0.19322 21.243 0 20.5914 0C19.7176 0 18.8797 0.3471 18.2618 0.964941C17.644 1.58278 17.2969 2.42075 17.2969 3.29451ZM20.5914 1.64726C20.9172 1.64726 21.2357 1.74387 21.5066 1.92487C21.7774 2.10587 21.9886 2.36314 22.1133 2.66413C22.2379 2.96513 22.2706 3.29634 22.207 3.61588C22.1434 3.93541 21.9865 4.22893 21.7562 4.4593C21.5258 4.68967 21.2323 4.84656 20.9128 4.91012C20.5932 4.97368 20.262 4.94106 19.961 4.81638C19.66 4.6917 19.4027 4.48057 19.2217 4.20968C19.0407 3.93879 18.9441 3.62031 18.9441 3.29451C18.9441 2.85763 19.1177 2.43865 19.4266 2.12973C19.7355 1.82081 20.1545 1.64726 20.5914 1.64726Z" fill="#FD1716"/>
<path d="M36.2402 39.5347C36.2402 40.1863 36.4335 40.8233 36.7955 41.3651C37.1575 41.9069 37.672 42.3291 38.274 42.5785C38.876 42.8278 39.5384 42.8931 40.1775 42.766C40.8165 42.6388 41.4036 42.3251 41.8643 41.8643C42.3251 41.4036 42.6388 40.8165 42.766 40.1775C42.8931 39.5384 42.8278 38.876 42.5785 38.274C42.3291 37.672 41.9069 37.1575 41.3651 36.7955C40.8233 36.4335 40.1863 36.2402 39.5347 36.2402C38.661 36.2402 37.823 36.5873 37.2052 37.2052C36.5873 37.823 36.2402 38.661 36.2402 39.5347ZM41.182 39.5347C41.182 39.8605 41.0854 40.179 40.9044 40.4499C40.7234 40.7208 40.4661 40.9319 40.1651 41.0566C39.8641 41.1813 39.5329 41.2139 39.2134 41.1504C38.8938 41.0868 38.6003 40.9299 38.37 40.6995C38.1396 40.4692 37.9827 40.1756 37.9191 39.8561C37.8556 39.5366 37.8882 39.2054 38.0129 38.9044C38.1376 38.6034 38.3487 38.3461 38.6196 38.1651C38.8905 37.9841 39.209 37.8875 39.5347 37.8875C39.9716 37.8875 40.3906 38.061 40.6995 38.37C41.0085 38.6789 41.182 39.0979 41.182 39.5347Z" fill="#FD1716"/>
<path d="M3.29451 48.5949C3.94611 48.5949 4.58307 48.4017 5.12485 48.0397C5.66663 47.6777 6.08889 47.1631 6.33825 46.5611C6.5876 45.9591 6.65284 45.2967 6.52572 44.6576C6.3986 44.0186 6.08483 43.4315 5.62409 42.9708C5.16334 42.5101 4.57631 42.1963 3.93724 42.0692C3.29817 41.942 2.63575 42.0073 2.03376 42.2566C1.43176 42.506 0.917231 42.9283 0.555226 43.47C0.19322 44.0118 0 44.6488 0 45.3004C0 46.1741 0.3471 47.0121 0.964941 47.6299C1.58278 48.2478 2.42075 48.5949 3.29451 48.5949ZM3.29451 43.6531C3.62031 43.6531 3.93879 43.7497 4.20968 43.9307C4.48057 44.1117 4.6917 44.369 4.81638 44.67C4.94106 44.971 4.97368 45.3022 4.91012 45.6217C4.84656 45.9413 4.68967 46.2348 4.4593 46.4652C4.22893 46.6955 3.93541 46.8524 3.61588 46.916C3.29634 46.9795 2.96513 46.9469 2.66413 46.8222C2.36314 46.6976 2.10587 46.4864 1.92487 46.2155C1.74387 45.9447 1.64726 45.6262 1.64726 45.3004C1.64726 44.8635 1.82081 44.4445 2.12973 44.1356C2.43865 43.8267 2.85763 43.6531 3.29451 43.6531Z" fill="#FD1716"/>
<path d="M9.06014 25.5324C9.71173 25.5324 10.3487 25.3392 10.8905 24.9772C11.4323 24.6152 11.8545 24.1006 12.1039 23.4986C12.3532 22.8966 12.4185 22.2342 12.2913 21.5951C12.1642 20.9561 11.8505 20.369 11.3897 19.9083C10.929 19.4476 10.3419 19.1338 9.70287 19.0067C9.06379 18.8795 8.40138 18.9448 7.79938 19.1941C7.19739 19.4435 6.68286 19.8658 6.32085 20.4075C5.95885 20.9493 5.76562 21.5863 5.76562 22.2379C5.76563 23.1116 6.11272 23.9496 6.73057 24.5674C7.34841 25.1853 8.18638 25.5324 9.06014 25.5324ZM9.06014 20.5906C9.38593 20.5906 9.70441 20.6872 9.9753 20.8682C10.2462 21.0492 10.4573 21.3065 10.582 21.6075C10.7067 21.9085 10.7393 22.2397 10.6757 22.5592C10.6122 22.8788 10.4553 23.1723 10.2249 23.4027C9.99455 23.633 9.70104 23.7899 9.3815 23.8535C9.06197 23.917 8.73076 23.8844 8.42976 23.7597C8.12876 23.6351 7.8715 23.4239 7.69049 23.153C7.50949 22.8822 7.41288 22.5637 7.41288 22.2379C7.41288 21.801 7.58643 21.382 7.89535 21.0731C8.20427 20.7642 8.62326 20.5906 9.06014 20.5906Z" fill="#FD1716"/>
<path d="M45.5403 8.47748L42.2458 11.772L43.4104 12.9366L45.299 11.048V11.5307C45.2957 14.3694 44.1666 17.0909 42.1593 19.0982C40.152 21.1054 37.4305 22.2346 34.5918 22.2378V23.8851C37.8673 23.8814 41.0075 22.5786 43.3236 20.2625C45.6397 17.9464 46.9425 14.8061 46.9462 11.5307V11.048L48.8348 12.9366L49.9994 11.772L46.7049 8.47748C46.5504 8.32307 46.341 8.23633 46.1226 8.23633C45.9042 8.23633 45.6947 8.32307 45.5403 8.47748Z" fill="#FD1716"/>
<path d="M9.51396 14.2549L8.11873 11.9298L6.70703 12.7781L9.17792 16.8963C9.29044 17.0835 9.47269 17.2183 9.6846 17.2711C9.89651 17.3239 10.1207 17.2904 10.3079 17.178L14.4261 14.7071L13.5777 13.2954L11.0854 14.7903C11.5261 13.2546 12.2806 11.8271 13.3014 10.5981C14.3221 9.36904 15.5869 8.36526 17.0156 7.65023L16.2784 6.17676C14.6565 6.98646 13.2189 8.12163 12.055 9.51147C10.8912 10.9013 10.0262 12.516 9.51396 14.2549Z" fill="#FD1716"/>
<path d="M12.9807 45.2827L11.0106 44.8709L12.8506 43.488L11.8622 42.1702L8.56774 44.6411C8.39298 44.7722 8.27745 44.9673 8.24656 45.1835C8.21567 45.3998 8.27195 45.6194 8.40301 45.7942L10.8739 49.0887L12.1917 48.1004L11.0337 46.5569L12.6414 46.8954C20.5163 48.5504 28.7227 47.3671 35.8092 43.5547L35.0268 42.1035C28.2834 45.7311 20.4744 46.8572 12.9807 45.2827Z" fill="#FD1716"/>
<path d="M1.4068 6.34857L3.29538 4.45999L5.18396 6.34857L6.34857 5.18396L4.45999 3.29538L6.34857 1.4068L5.18396 0.242188L3.29538 2.13077L1.4068 0.242188L0.242188 1.4068L2.13077 3.29538L0.242188 5.18396L1.4068 6.34857Z" fill="#FD1716"/>
<path d="M38.9535 8.47754L37.0649 10.3661L35.1763 8.47754L34.0117 9.64215L35.9003 11.5307L34.0117 13.4193L35.1763 14.5839L37.0649 12.6953L38.9535 14.5839L40.1181 13.4193L38.2295 11.5307L40.1181 9.64215L38.9535 8.47754Z" fill="#FD1716"/>
<path d="M42.5884 31.0566L44.477 29.168L46.3656 31.0566L47.5302 29.892L45.6416 28.0034L47.5302 26.1148L46.3656 24.9502L44.477 26.8388L42.5884 24.9502L41.4238 26.1148L43.3124 28.0034L41.4238 29.892L42.5884 31.0566Z" fill="#FD1716"/>
<path d="M15.889 33.1855L14.0005 35.0741L12.1119 33.1855L10.9473 34.3502L12.8358 36.2387L10.9473 38.1273L12.1119 39.2919L14.0005 37.4033L15.889 39.2919L17.0536 38.1273L15.1651 36.2387L17.0536 34.3502L15.889 33.1855Z" fill="#FD1716"/>
<path d="M48.0101 43.0703L46.1215 44.9589L44.233 43.0703L43.0684 44.2349L44.9569 46.1235L43.0684 48.0121L44.233 49.1767L46.1215 47.2881L48.0101 49.1767L49.1747 48.0121L47.2862 46.1235L49.1747 44.2349L48.0101 43.0703Z" fill="#FD1716"/>
<path d="M5.18396 26.5977L3.29538 28.4862L1.4068 26.5977L0.242188 27.7623L2.13077 29.6508L0.242188 31.5394L1.4068 32.704L3.29538 30.8155L5.18396 32.704L6.34857 31.5394L4.45999 29.6508L6.34857 27.7623L5.18396 26.5977Z" fill="#FD1716"/>
</svg>
