<svg width="60" height="60" viewBox="0 0 60 60" fill="none" xmlns="http://www.w3.org/2000/svg">
<rect width="60" height="60" rx="30" fill="url(#paint0_linear_2054_1913)"/>
<path d="M43.9655 41.8958H42.931V40.3441C42.931 39.4881 42.2353 38.7924 41.3793 38.7924H40.8621V28.4476H41.8966C42.4668 28.4476 42.931 27.9833 42.931 27.4131V26.3786C43.5013 26.3786 43.9655 25.9144 43.9655 25.3441V24.3096C43.9655 23.7394 43.5013 23.2751 42.931 23.2751V21.2928C42.931 20.6644 42.556 20.1018 41.9767 19.8601L30.5974 15.1183C30.2185 14.9606 29.7828 14.9606 29.4039 15.1183L18.0246 19.8601C17.444 20.1019 17.069 20.6644 17.069 21.2928V23.2751C16.4987 23.2751 16.0345 23.7394 16.0345 24.3096V25.3441C16.0345 25.9144 16.4987 26.3786 17.069 26.3786V27.4131C17.069 27.9833 17.5332 28.4476 18.1034 28.4476H19.1379V38.7924H18.6207C17.7647 38.7924 17.069 39.4881 17.069 40.3441V41.8958H16.0345C15.4642 41.8958 15 42.36 15 42.9303V44.482C15 44.7678 15.2315 44.9993 15.5172 44.9993H44.4828C44.7685 44.9993 45 44.7678 45 44.482V42.9303C45 42.36 44.5358 41.8958 43.9655 41.8958ZM27.4138 28.4476V38.7924H24.3103V28.4476H27.4138ZM31.5517 38.7924H28.4483V28.4476H31.5517V38.7924ZM32.5862 28.4476H35.6897V38.7924H32.5862V28.4476ZM39.8276 38.7924H36.7241V28.4476H39.8276V38.7924ZM18.1034 21.2929C18.1034 21.0834 18.2289 20.8959 18.4216 20.8158L29.8009 16.074C29.9276 16.021 30.0724 16.021 30.1978 16.074L41.5771 20.8158C41.7698 20.8959 41.8953 21.0834 41.8953 21.2929V23.2752H18.1035L18.1034 21.2929ZM17.069 24.3097H42.931V25.3442H17.069V24.3097ZM18.1034 26.3787H41.8966V27.4132H18.1034V26.3787ZM20.1724 28.4477H23.2759V38.7925H20.1724V28.4477ZM18.1034 40.3444C18.1034 40.0586 18.3349 39.8271 18.6207 39.8271H41.3793C41.6651 39.8271 41.8966 40.0586 41.8966 40.3444V41.8961H18.1034V40.3444ZM43.9655 43.9652H16.0345V42.9307H43.9655V43.9652ZM29.9998 18.1032C28.8593 18.1032 27.9309 19.0316 27.9309 20.1721C27.9309 21.3126 28.8593 22.2411 29.9998 22.2411C31.1403 22.2411 32.0688 21.3126 32.0688 20.1721C32.0688 19.0316 31.1403 18.1032 29.9998 18.1032ZM29.9998 21.2066C29.4296 21.2066 28.9654 20.7424 28.9654 20.1721C28.9654 19.6018 29.4296 19.1376 29.9998 19.1376C30.5701 19.1376 31.0343 19.6018 31.0343 20.1721C31.0343 20.7424 30.5701 21.2066 29.9998 21.2066Z" fill="white"/>
<defs>
<linearGradient id="paint0_linear_2054_1913" x1="23.3108" y1="85.7264" x2="86.1141" y2="28.8202" gradientUnits="userSpaceOnUse">
<stop stop-color="#FF1717"/>
<stop offset="1" stop-color="#FF6461"/>
</linearGradient>
</defs>
</svg>
