<svg width="60" height="60" viewBox="0 0 60 60" fill="none" xmlns="http://www.w3.org/2000/svg">
<rect width="60" height="60" rx="30" fill="#FD1716"/>
<path fill-rule="evenodd" clip-rule="evenodd" d="M18.3698 19.1979L17.9932 20.2139L16.9772 20.5893C16.5332 20.7539 16.2383 21.1779 16.2383 21.6515C16.2383 22.1252 16.5331 22.5491 16.9772 22.7137L17.9932 23.0891L18.3698 24.1052C18.5344 24.5492 18.9583 24.8441 19.432 24.8441C19.9057 24.8441 20.3296 24.5492 20.4942 24.1052L20.8708 23.0891L21.8868 22.7137C22.3309 22.5491 22.6258 22.1252 22.6258 21.6515C22.6258 21.1779 22.3309 20.7539 21.8868 20.5893L20.8708 20.2139L20.4942 19.1979C20.3296 18.7539 19.9057 18.459 19.432 18.459C18.9583 18.459 18.5344 18.7538 18.3698 19.1979ZM19.2579 19.5271C19.2852 19.4549 19.3539 19.4063 19.4308 19.4063C19.5078 19.4063 19.5777 19.4549 19.6037 19.5271L20.0549 20.7468C20.1023 20.8759 20.2053 20.9789 20.3344 21.0263L21.5541 21.4774C21.6263 21.5047 21.6748 21.5734 21.6748 21.6503C21.6748 21.7273 21.6263 21.7972 21.5541 21.8232L20.3344 22.2744C20.2041 22.3229 20.1023 22.4248 20.0549 22.5539L19.6037 23.7735C19.5765 23.8458 19.5078 23.8943 19.4308 23.8943C19.3539 23.8943 19.284 23.8458 19.2579 23.7735L18.8068 22.5539C18.7594 22.4236 18.6564 22.3218 18.5273 22.2744L17.3076 21.8232C17.2354 21.796 17.1868 21.7273 17.1868 21.6503C17.1868 21.5733 17.2354 21.5035 17.3076 21.4774L18.5273 21.0263C18.6576 20.9777 18.7594 20.8759 18.8068 20.7468L19.2579 19.5271Z" fill="white"/>
<path fill-rule="evenodd" clip-rule="evenodd" d="M34.7433 40.0283H30.6981C30.4364 40.0283 30.2244 40.2403 30.2244 40.502C30.2244 40.7637 30.4364 40.9756 30.6981 40.9756H34.7433C35.005 40.9756 35.217 40.7637 35.217 40.502C35.217 40.2403 35.005 40.0283 34.7433 40.0283ZM26.1993 28.1664V17.7905C26.1993 17.5667 26.2882 17.3523 26.4468 17.1936C26.6043 17.0362 26.8199 16.9462 27.0425 16.9462H42.7577C42.9815 16.9462 43.1959 17.035 43.3533 17.1936C43.512 17.3523 43.6008 17.5667 43.6008 17.7905V37.932C43.6008 38.1937 43.8128 38.4057 44.0745 38.4057C44.3362 38.4057 44.5482 38.1937 44.5482 37.932V17.7905C44.5482 17.3156 44.3599 16.8597 44.0236 16.5246C43.6884 16.1895 43.2325 16 42.7577 16H27.0424C26.5676 16 26.1117 16.1883 25.7766 16.5246C25.4414 16.8609 25.252 17.3156 25.252 17.7905V28.1664C25.252 28.4281 25.4639 28.64 25.7256 28.64C25.9873 28.64 26.1993 28.4281 26.1993 28.1664Z" fill="white"/>
<path fill-rule="evenodd" clip-rule="evenodd" d="M28.7199 16.4737V25.0067C28.7199 25.4816 28.9082 25.9375 29.2445 26.2726C29.5808 26.6089 30.0355 26.7972 30.5104 26.7972H39.2923C39.7672 26.7972 40.2231 26.6089 40.5582 26.2726C40.8945 25.9375 41.0828 25.4816 41.0828 25.0067V16.4737C41.0828 16.212 40.8708 16 40.6091 16C40.3474 16 40.1355 16.212 40.1355 16.4737V25.0067C40.1355 25.2305 40.0467 25.4448 39.888 25.6023C39.7293 25.761 39.5149 25.8498 39.2911 25.8498H30.5092C30.2854 25.8498 30.0711 25.761 29.9136 25.6023C29.7549 25.4437 29.6661 25.2293 29.6661 25.0067V16.4737C29.6661 16.212 29.4541 16 29.1924 16C28.9307 16 28.7188 16.212 28.7188 16.4737H28.7199Z" fill="white"/>
<path fill-rule="evenodd" clip-rule="evenodd" d="M30.5089 31.1258H39.2908C39.5146 31.1258 39.7289 31.2147 39.8864 31.3733C40.0451 31.532 40.1339 31.7464 40.1339 31.9702V34.6594C40.1339 34.9211 40.3459 35.1331 40.6076 35.1331C40.8693 35.1331 41.0812 34.9211 41.0812 34.6594V31.9702C41.0812 31.4953 40.893 31.0394 40.5566 30.7043C40.2215 30.368 39.7656 30.1797 39.2907 30.1797H30.5088C30.2471 30.1797 30.0352 30.3917 30.0352 30.6534C30.0352 30.9151 30.2471 31.127 30.5088 31.127L30.5089 31.1258Z" fill="white"/>
<path fill-rule="evenodd" clip-rule="evenodd" d="M41.9297 18.1856V20.3964C41.9297 20.6582 42.1417 20.8701 42.4034 20.8701C42.6651 20.8701 42.877 20.6582 42.877 20.3964V18.1856C42.877 17.9239 42.6651 17.7119 42.4034 17.7119C42.1417 17.7119 41.9297 17.9239 41.9297 18.1856Z" fill="white"/>
<path fill-rule="evenodd" clip-rule="evenodd" d="M26.9219 18.1856V20.3964C26.9219 20.6582 27.1338 20.8701 27.3955 20.8701C27.6572 20.8701 27.8692 20.6582 27.8692 20.3964V18.1856C27.8692 17.9239 27.6572 17.7119 27.3955 17.7119C27.1338 17.7119 26.9219 17.9239 26.9219 18.1856Z" fill="white"/>
<path fill-rule="evenodd" clip-rule="evenodd" d="M41.9297 30.6524V32.8632C41.9297 33.1249 42.1417 33.3369 42.4034 33.3369C42.6651 33.3369 42.877 33.1249 42.877 32.8632V30.6524C42.877 30.3907 42.6651 30.1787 42.4034 30.1787C42.1417 30.1787 41.9297 30.3907 41.9297 30.6524Z" fill="white"/>
<path fill-rule="evenodd" clip-rule="evenodd" d="M41.9297 24.1133V26.3242C41.9297 26.5859 42.1417 26.7979 42.4034 26.7979C42.6651 26.7979 42.877 26.5859 42.877 26.3242V24.1133C42.877 23.8516 42.6651 23.6396 42.4034 23.6396C42.1417 23.6396 41.9297 23.8516 41.9297 24.1133Z" fill="white"/>
<path fill-rule="evenodd" clip-rule="evenodd" d="M26.9219 24.1133V26.3242C26.9219 26.5859 27.1338 26.7979 27.3955 26.7979C27.6572 26.7979 27.8692 26.5859 27.8692 26.3242V24.1133C27.8692 23.8516 27.6572 23.6396 27.3955 23.6396C27.1338 23.6396 26.9219 23.8516 26.9219 24.1133Z" fill="white"/>
<path fill-rule="evenodd" clip-rule="evenodd" d="M18.4756 30.4225C19.8552 29.1613 21.6929 28.3916 23.7074 28.3916C27.9906 28.3916 31.4674 31.8684 31.4674 36.1516C31.4674 40.4348 27.9906 43.9116 23.7074 43.9116C19.4242 43.9116 15.9474 40.4348 15.9474 36.1516C15.9474 34.4476 16.498 32.8716 17.4311 31.5902C17.5851 31.3794 17.5389 31.0821 17.3269 30.9282C17.1161 30.7743 16.8189 30.8204 16.665 31.0324C15.6182 32.47 15 34.2391 15 36.1517C15 40.9572 18.9018 44.859 23.7073 44.859C28.5129 44.859 32.4147 40.9572 32.4147 36.1517C32.4147 31.3462 28.5129 27.4443 23.7073 27.4443C21.4456 27.4443 19.3851 28.3076 17.8363 29.7239C17.6432 29.9003 17.6302 30.1999 17.8067 30.3929C17.9831 30.5859 18.2826 30.5989 18.4756 30.4225Z" fill="white"/>
<path fill-rule="evenodd" clip-rule="evenodd" d="M23.7079 34.5645C22.8316 34.5645 22.1211 35.2762 22.1211 36.1513C22.1211 37.0275 22.8328 37.7381 23.7079 37.7381C24.583 37.7381 25.2947 37.0264 25.2947 36.1513C25.2947 35.2762 24.583 34.5645 23.7079 34.5645ZM23.7079 35.5118C24.0608 35.5118 24.3474 35.7984 24.3474 36.1513C24.3474 36.5042 24.0608 36.7907 23.7079 36.7907C23.355 36.7907 23.0684 36.5041 23.0684 36.1513C23.0684 35.7984 23.355 35.5118 23.7079 35.5118Z" fill="white"/>
<path fill-rule="evenodd" clip-rule="evenodd" d="M23.7079 29.9863C22.8316 29.9863 22.1211 30.698 22.1211 31.5731C22.1211 32.4494 22.8328 33.1599 23.7079 33.1599C24.583 33.1599 25.2947 32.4482 25.2947 31.5731C25.2947 30.698 24.583 29.9863 23.7079 29.9863ZM23.7079 30.9337C24.0608 30.9337 24.3474 31.2202 24.3474 31.5731C24.3474 31.926 24.0608 32.2126 23.7079 32.2126C23.355 32.2126 23.0684 31.926 23.0684 31.5731C23.0684 31.2202 23.355 30.9337 23.7079 30.9337Z" fill="white"/>
<path fill-rule="evenodd" clip-rule="evenodd" d="M23.7079 39.2578C22.8316 39.2578 22.1211 39.9695 22.1211 40.8446C22.1211 41.7197 22.8328 42.4314 23.7079 42.4314C24.583 42.4314 25.2947 41.7197 25.2947 40.8446C25.2947 39.9683 24.583 39.2578 23.7079 39.2578ZM23.7079 40.2052C24.0608 40.2052 24.3474 40.4917 24.3474 40.8446C24.3474 41.1975 24.0608 41.4841 23.7079 41.4841C23.355 41.4841 23.0684 41.1975 23.0684 40.8446C23.0684 40.4917 23.355 40.2052 23.7079 40.2052Z" fill="white"/>
<path fill-rule="evenodd" clip-rule="evenodd" d="M17.4863 36.2099C17.4863 37.085 18.198 37.7967 19.0731 37.7967C19.9494 37.7967 20.6599 37.085 20.6599 36.2099C20.6599 35.3336 19.9482 34.623 19.0731 34.623C18.198 34.623 17.4863 35.3348 17.4863 36.2099ZM18.4337 36.2099C18.4337 35.857 18.7202 35.5704 19.0731 35.5704C19.426 35.5704 19.7126 35.857 19.7126 36.2099C19.7126 36.5627 19.426 36.8493 19.0731 36.8493C18.7202 36.8493 18.4337 36.5627 18.4337 36.2099Z" fill="white"/>
<path fill-rule="evenodd" clip-rule="evenodd" d="M26.7559 36.2099C26.7559 37.085 27.4676 37.7967 28.3427 37.7967C29.2178 37.7967 29.9295 37.085 29.9295 36.2099C29.9295 35.3336 29.2178 34.623 28.3427 34.623C27.4664 34.623 26.7559 35.3348 26.7559 36.2099ZM27.7032 36.2099C27.7032 35.857 27.9898 35.5704 28.3427 35.5704C28.6956 35.5704 28.9821 35.857 28.9821 36.2099C28.9821 36.5627 28.6956 36.8493 28.3427 36.8493C27.9898 36.8493 27.7032 36.5627 27.7032 36.2099Z" fill="white"/>
<path fill-rule="evenodd" clip-rule="evenodd" d="M39.5448 36.8493L38.8449 38.7404L36.9538 39.4403C36.5097 39.6049 36.2148 40.0288 36.2148 40.5025C36.2148 40.9761 36.5097 41.4001 36.9538 41.5647L38.8449 42.2645L39.5448 44.1557C39.7094 44.5997 40.1333 44.8946 40.607 44.8946C41.0806 44.8946 41.5045 44.5997 41.6692 44.1557L42.369 42.2645L44.2601 41.5647C44.7042 41.4001 44.9991 40.9761 44.9991 40.5025C44.9991 40.0288 44.7042 39.6049 44.2601 39.4403L42.369 38.7404L41.6692 36.8493C41.5046 36.4052 41.0806 36.1104 40.607 36.1104C40.1333 36.1104 39.7094 36.4052 39.5448 36.8493ZM40.4329 37.1785C40.4601 37.1062 40.5288 37.0577 40.6058 37.0577C40.6827 37.0577 40.7526 37.1062 40.7787 37.1785L41.5543 39.2745C41.6029 39.4035 41.7047 39.5066 41.835 39.5539C41.835 39.5539 42.9232 39.9565 43.9298 40.3296C44.002 40.3568 44.0506 40.4255 44.0506 40.5025C44.0506 40.5794 44.002 40.6493 43.9298 40.6753L41.835 41.451C41.7047 41.4995 41.6029 41.6014 41.5543 41.7305C41.5543 41.7305 41.1517 42.8187 40.7787 43.8265C40.7514 43.8987 40.6827 43.9472 40.6058 43.9472C40.5288 43.9472 40.4589 43.8987 40.4329 43.8265L39.6573 41.7305C39.6087 41.6014 39.5069 41.4984 39.3778 41.451C39.3778 41.451 38.2895 41.0484 37.2818 40.6753C37.2095 40.6481 37.161 40.5794 37.161 40.5025C37.161 40.4255 37.2095 40.3556 37.2818 40.3296L39.3778 39.5539C39.5069 39.5054 39.6099 39.4035 39.6573 39.2745L40.4329 37.1785Z" fill="white"/>
</svg>
