<svg width="60" height="60" viewBox="0 0 60 60" fill="none" xmlns="http://www.w3.org/2000/svg">
<rect width="60" height="60" rx="30" fill="#FD1716"/>
<path d="M25.1618 22.6675C27.9663 22.6675 30.5051 23.8054 32.3436 25.6425L32.3709 25.6725C32.6886 25.9928 32.9855 26.3352 33.2589 26.6945C33.4724 26.0006 33.5635 25.2389 33.5349 24.4799C33.4945 23.4513 33.2315 22.4358 32.7498 21.6168C32.63 21.4124 32.535 21.182 32.4712 20.9164C32.41 20.6638 32.3761 20.3825 32.3761 20.061C32.3761 19.3292 32.7472 18.5233 33.3396 17.9309L33.3695 17.9036C33.9072 17.3776 34.6272 17.0156 35.4228 17.0156C36.2326 17.0156 36.963 17.3919 37.5046 17.9335C38.0983 18.5246 38.4681 19.3305 38.4681 20.0622C38.4681 20.3773 38.4355 20.6599 38.373 20.9176C38.3092 21.1819 38.2155 21.4137 38.0957 21.6181C37.614 22.4371 37.351 23.4526 37.3106 24.4825C37.2702 25.5215 37.4564 26.5656 37.8718 27.4341C38.1139 27.9405 38.3353 28.4353 38.5358 28.9222H37.4551C37.3054 28.5746 37.1453 28.2217 36.9734 27.8637C36.8133 27.5278 36.6818 27.1711 36.5789 26.8013H34.264C34.1768 27.1177 34.0674 27.4249 33.9372 27.7166C34.8134 29.2178 35.316 30.965 35.316 32.8268C35.316 35.5219 34.2653 37.9724 32.5519 39.7913C32.6508 40.1519 32.7628 40.5217 32.8917 40.911C33.0102 41.2703 33.1351 41.6245 33.2705 41.9838H37.5709L37.6047 41.8927C37.524 41.8224 37.4459 41.7495 37.3691 41.674L37.3664 41.6714C36.5579 40.8615 36.058 39.7444 36.058 38.5127C36.058 37.281 36.5592 36.1627 37.3677 35.3528L37.3704 35.3502C37.8 34.9206 38.3182 34.5782 38.8924 34.3516C38.8168 33.3595 38.632 32.3739 38.3403 31.3636C38.2036 30.8897 38.0435 30.4105 37.8586 29.9223H38.9197C39.0603 30.3142 39.1853 30.7022 39.2973 31.0863C39.5902 32.1005 39.7829 33.0926 39.8715 34.0899C40.0863 34.0587 40.3063 34.0418 40.529 34.0418C41.7633 34.0418 42.8817 34.543 43.6902 35.3516C44.4987 36.1601 45 37.2785 45 38.5128C45 39.7457 44.4987 40.8628 43.6902 41.6727C42.8791 42.4838 41.762 42.9838 40.529 42.9838C39.7804 42.9838 39.0734 42.7989 38.451 42.4721L38.3807 42.6596C38.3052 42.8601 38.1164 42.9824 37.9133 42.9824L32.9254 42.9838C32.6989 42.9838 32.5062 42.8327 32.445 42.6244C32.251 42.118 32.083 41.6544 31.9398 41.2235C31.8682 41.0061 31.8005 40.7886 31.7341 40.566C29.9621 42.0737 27.6654 42.9838 25.1566 42.9838C22.4537 42.9838 19.9957 41.9265 18.1755 40.2027L18.9802 39.5869C19.2432 39.8277 19.5205 40.053 19.8121 40.2626L19.8434 40.2483C22.9681 38.9111 25.4666 36.6275 27.0851 33.8348L27.0994 33.8087C27.421 33.2515 27.7075 32.6747 27.9574 32.0823C27.4601 31.6487 26.9328 31.2503 26.382 30.8897C25.4251 30.2635 24.3939 29.7492 23.3094 29.3625L23.2325 29.4784C22.2339 30.908 19.8238 31.9118 16.0065 32.4846C16.0026 32.5979 16 32.7112 16 32.8244C16 34.3959 16.3958 35.8762 17.0936 37.1691L16.2903 37.7836C15.4674 36.3176 15 34.625 15 32.8257C15 30.0212 16.1379 27.4811 17.975 25.6439L18.005 25.6166C19.8408 23.7952 22.3693 22.6689 25.1581 22.6689L25.1618 22.6675ZM17.4854 39.4735C17.2524 39.204 17.0337 38.924 16.8292 38.6324L17.6234 38.0257C17.8252 38.3186 18.0453 38.5986 18.2796 38.8667L17.4841 39.4748L17.4854 39.4735ZM34.3667 23.1141H36.4798C36.6309 22.3954 36.8847 21.7119 37.2376 21.1117C37.3092 20.9893 37.3665 20.8487 37.4055 20.6847C37.4459 20.5128 37.468 20.3071 37.468 20.0597C37.468 19.5871 37.2102 19.0481 36.7975 18.6367C36.4316 18.2682 35.9473 18.013 35.4226 18.013C34.9083 18.013 34.4331 18.2578 34.0699 18.6119L34.0464 18.6367C33.6337 19.0494 33.3759 19.5884 33.3759 20.0597C33.3759 20.3019 33.3994 20.5076 33.441 20.6847C33.4775 20.8474 33.5361 20.988 33.6077 21.1117C33.9605 21.7119 34.2144 22.3968 34.3654 23.1141L34.3667 23.1141ZM36.3353 24.114H34.5112C34.5203 24.2234 34.5256 24.3328 34.5308 24.4434C34.5477 24.8965 34.5269 25.3522 34.4683 25.7975H36.3783C36.3197 25.3509 36.2989 24.8965 36.3158 24.4434C36.3197 24.3328 36.3262 24.2234 36.3353 24.114ZM39.6501 35.1508C39.835 35.5596 39.9418 35.9958 39.9691 36.4385C40.0043 37.01 39.9053 37.5933 39.6697 38.1336C39.434 38.674 39.0747 39.144 38.6307 39.5085C38.2883 39.7898 37.8951 40.0085 37.4719 40.1517C37.6334 40.4525 37.8378 40.7259 38.076 40.9654C38.7049 41.5943 39.5733 41.9823 40.5329 41.9823C40.8375 41.9823 41.1331 41.9432 41.4143 41.8703C41.232 41.4667 41.1253 41.0345 41.0966 40.5983L41.0953 40.5853C41.0589 40.0124 41.1591 39.4291 41.3948 38.8875C41.6304 38.3472 41.9898 37.8772 42.4351 37.5139C42.7762 37.234 43.1694 37.0139 43.5925 36.872C43.4311 36.5712 43.2267 36.2978 42.9884 36.0583C42.3609 35.4307 41.4924 35.0414 40.5342 35.0414C40.2295 35.0414 39.934 35.0805 39.6527 35.1534L39.6501 35.1508ZM37.1308 39.2118C37.4498 39.1077 37.7427 38.9462 37.9966 38.7392C38.3208 38.4736 38.5825 38.1312 38.7544 37.7354C38.9262 37.3422 38.9979 36.9151 38.9731 36.4972C38.9536 36.1691 38.8716 35.8449 38.7309 35.5402C38.4927 35.6848 38.2727 35.8579 38.0774 36.0532C37.4485 36.6821 37.0605 37.5505 37.0605 38.5101C37.0605 38.7509 37.0852 38.9853 37.1308 39.2118ZM43.9309 37.807C43.6119 37.9112 43.319 38.0726 43.0651 38.2796C42.7409 38.5439 42.4792 38.8876 42.3061 39.2821C42.1342 39.6766 42.0626 40.1011 42.0886 40.519V40.5268C42.1095 40.8523 42.1902 41.1752 42.3308 41.4773C42.5704 41.3328 42.7891 41.1596 42.9857 40.963C43.6132 40.3354 44.0012 39.467 44.0012 38.5075C44.0012 38.2666 43.9765 38.0309 43.9296 37.8044L43.9309 37.807ZM30.531 40.2417C30.4269 38.7536 30.5349 37.6156 30.8526 36.832C30.9542 36.5807 31.0792 36.3619 31.2263 36.1771C30.5571 34.922 29.7147 33.7893 28.7356 32.805C28.5051 33.3193 28.25 33.8206 27.9674 34.3088L27.9492 34.3362C26.3282 37.1302 23.8805 39.4464 20.8324 40.897C22.1214 41.5896 23.5952 41.9828 25.1601 41.9828C27.1651 41.9828 29.0204 41.337 30.528 40.2433L30.531 40.2417ZM32.0309 35.5664C32.2145 35.4935 32.4124 35.4492 32.6246 35.4323C33.0022 35.4024 33.4227 35.4636 33.8849 35.6172C34.1661 34.7358 34.3197 33.797 34.3197 32.8232C34.3197 30.3051 33.3042 28.0252 31.6624 26.372L31.6377 26.3486C31.1807 25.8916 30.6742 25.4827 30.13 25.1299C30.2732 27.4436 29.9204 29.7116 29.1444 31.8037C30.281 32.8883 31.2601 34.1525 32.0322 35.5651L32.0309 35.5664ZM33.5282 36.552C33.2131 36.4517 32.9371 36.4101 32.7027 36.4283C32.6259 36.4348 32.553 36.4465 32.4853 36.4661C32.6597 36.841 32.8199 37.2251 32.9644 37.617C33.174 37.2759 33.3628 36.9205 33.5269 36.5507L33.5282 36.552ZM31.7536 37.272C31.5609 37.7876 31.475 38.5102 31.4932 39.4398L31.6364 39.2992C31.8538 39.0818 32.0595 38.8552 32.2536 38.6169C32.1077 38.1573 31.9398 37.7081 31.7523 37.272L31.7536 37.272ZM22.154 24.1727C23.4873 25.7911 24.0068 27.2155 23.7125 28.4421C24.8491 28.8522 25.9311 29.3938 26.9349 30.0513C27.4218 30.3703 27.8906 30.7166 28.3397 31.089C29.0415 29.0318 29.3136 26.8067 29.0793 24.5438C27.8919 23.9814 26.5638 23.6663 25.1643 23.6663C24.1096 23.6663 23.0967 23.8447 22.154 24.1727ZM16.1075 31.4585C19.3651 30.9468 21.4351 30.1422 22.318 29.0446C20.6398 28.5798 18.856 28.4119 17.0411 28.5915C16.5815 29.4729 16.2599 30.439 16.1076 31.4598L16.1075 31.4585ZM22.7517 28.1293C22.93 27.1672 22.4092 25.9811 21.1893 24.5723C20.2675 25.0162 19.4303 25.6113 18.7129 26.3247L18.6895 26.3495C18.321 26.7179 17.9838 27.1176 17.6831 27.5447C19.4277 27.4561 21.1371 27.6645 22.753 28.1306L22.7517 28.1293Z" fill="white"/>
</svg>
