<svg width="41" height="41" viewBox="0 0 41 41" fill="none" xmlns="http://www.w3.org/2000/svg">
<g clip-path="url(#clip0_8046_2183)">
<path d="M16.6826 11.4558C16.4946 11.4558 16.3379 11.2991 16.3379 11.1111V9.54438C16.3379 9.35638 16.4946 9.19971 16.6826 9.19971C16.8706 9.19971 17.0272 9.35638 17.0272 9.54438V11.1111C17.0272 11.2991 16.8706 11.4558 16.6826 11.4558Z" fill="url(#paint0_linear_8046_2183)"/>
<path d="M16.6826 11.4558C16.4946 11.4558 16.3379 11.2991 16.3379 11.1111V9.54438C16.3379 9.35638 16.4946 9.19971 16.6826 9.19971C16.8706 9.19971 17.0272 9.35638 17.0272 9.54438V11.1111C17.0272 11.2991 16.8706 11.4558 16.6826 11.4558Z" fill="black" fill-opacity="0.2"/>
<path d="M17.8106 17.5034C17.7166 17.5034 17.5913 17.4408 17.5286 17.3781L16.4006 15.7801C16.3692 15.7174 16.3379 15.6547 16.3379 15.5921V14.0253C16.3379 13.8373 16.4946 13.6807 16.6826 13.6807C16.8706 13.6807 17.0272 13.8373 17.0272 14.0253V15.4667L18.0926 16.9708C18.1866 17.1274 18.1553 17.3154 17.9986 17.4408C17.9359 17.5034 17.8733 17.5034 17.8106 17.5034Z" fill="url(#paint1_linear_8046_2183)"/>
<path d="M17.8106 17.5034C17.7166 17.5034 17.5913 17.4408 17.5286 17.3781L16.4006 15.7801C16.3692 15.7174 16.3379 15.6547 16.3379 15.5921V14.0253C16.3379 13.8373 16.4946 13.6807 16.6826 13.6807C16.8706 13.6807 17.0272 13.8373 17.0272 14.0253V15.4667L18.0926 16.9708C18.1866 17.1274 18.1553 17.3154 17.9986 17.4408C17.9359 17.5034 17.8733 17.5034 17.8106 17.5034Z" fill="black" fill-opacity="0.2"/>
<path d="M15.5556 17.5037C15.4929 17.5037 15.4303 17.4724 15.3676 17.441C15.2109 17.347 15.1796 17.1277 15.2736 16.971L16.4016 15.373C16.4956 15.2163 16.715 15.1849 16.8716 15.279C17.0283 15.373 17.0596 15.5923 16.9656 15.749L15.8376 17.347C15.7749 17.4724 15.6809 17.5037 15.5556 17.5037Z" fill="url(#paint2_linear_8046_2183)"/>
<path d="M15.5556 17.5037C15.4929 17.5037 15.4303 17.4724 15.3676 17.441C15.2109 17.347 15.1796 17.1277 15.2736 16.971L16.4016 15.373C16.4956 15.2163 16.715 15.1849 16.8716 15.279C17.0283 15.373 17.0596 15.5923 16.9656 15.749L15.8376 17.347C15.7749 17.4724 15.6809 17.5037 15.5556 17.5037Z" fill="black" fill-opacity="0.2"/>
<path d="M16.6825 9.92068C16.6199 9.92068 16.5572 9.88934 16.4945 9.85801C16.3379 9.76401 16.3065 9.54467 16.4005 9.388L17.5286 7.78995C17.6226 7.63327 17.8419 7.60194 17.9986 7.69594C18.1553 7.78995 18.1866 8.00929 18.0926 8.16596L16.9646 9.76401C16.9019 9.85801 16.7765 9.92068 16.6825 9.92068Z" fill="url(#paint3_linear_8046_2183)"/>
<path d="M16.6825 9.92068C16.6199 9.92068 16.5572 9.88934 16.4945 9.85801C16.3379 9.76401 16.3065 9.54467 16.4005 9.388L17.5286 7.78995C17.6226 7.63327 17.8419 7.60194 17.9986 7.69594C18.1553 7.78995 18.1866 8.00929 18.0926 8.16596L16.9646 9.76401C16.9019 9.85801 16.7765 9.92068 16.6825 9.92068Z" fill="black" fill-opacity="0.2"/>
<path d="M16.6836 9.92059C16.5896 9.92059 16.4643 9.85793 16.4016 9.79526L15.2736 8.19721C15.1796 8.04054 15.2109 7.85253 15.3676 7.72719C15.5243 7.63319 15.7123 7.66452 15.8376 7.8212L16.9656 9.41925C17.0596 9.57592 17.0283 9.76392 16.8716 9.88926C16.809 9.88926 16.7463 9.92059 16.6836 9.92059Z" fill="url(#paint4_linear_8046_2183)"/>
<path d="M16.6836 9.92059C16.5896 9.92059 16.4643 9.85793 16.4016 9.79526L15.2736 8.19721C15.1796 8.04054 15.2109 7.85253 15.3676 7.72719C15.5243 7.63319 15.7123 7.66452 15.8376 7.8212L16.9656 9.41925C17.0596 9.57592 17.0283 9.76392 16.8716 9.88926C16.809 9.88926 16.7463 9.92059 16.6836 9.92059Z" fill="black" fill-opacity="0.2"/>
<path d="M19.6907 12.8974H18.124C17.936 12.8974 17.7793 12.7407 17.7793 12.5527C17.7793 12.3647 17.936 12.208 18.124 12.208H19.6907C19.8787 12.208 20.0354 12.3647 20.0354 12.5527C20.0354 12.7407 19.8787 12.8974 19.6907 12.8974Z" fill="url(#paint5_linear_8046_2183)"/>
<path d="M19.6907 12.8974H18.124C17.936 12.8974 17.7793 12.7407 17.7793 12.5527C17.7793 12.3647 17.936 12.208 18.124 12.208H19.6907C19.8787 12.208 20.0354 12.3647 20.0354 12.5527C20.0354 12.7407 19.8787 12.8974 19.6907 12.8974Z" fill="black" fill-opacity="0.2"/>
<path d="M12.0771 14.0253C11.9831 14.0253 11.8577 13.9626 11.7951 13.9C11.7011 13.7433 11.7324 13.5553 11.8891 13.43L13.4871 12.3019C13.5498 12.2706 13.6125 12.2393 13.6751 12.2393H15.2418C15.4298 12.2393 15.5865 12.3959 15.5865 12.5839C15.5865 12.7719 15.4298 12.9286 15.2418 12.9286H13.8005L12.2964 13.994C12.2024 14.0253 12.1397 14.0253 12.0771 14.0253Z" fill="url(#paint6_linear_8046_2183)"/>
<path d="M12.0771 14.0253C11.9831 14.0253 11.8577 13.9626 11.7951 13.9C11.7011 13.7433 11.7324 13.5553 11.8891 13.43L13.4871 12.3019C13.5498 12.2706 13.6125 12.2393 13.6751 12.2393H15.2418C15.4298 12.2393 15.5865 12.3959 15.5865 12.5839C15.5865 12.7719 15.4298 12.9286 15.2418 12.9286H13.8005L12.2964 13.994C12.2024 14.0253 12.1397 14.0253 12.0771 14.0253Z" fill="black" fill-opacity="0.2"/>
<path d="M13.6751 12.8974C13.6125 12.8974 13.5498 12.8661 13.4871 12.8348L11.8891 11.7067C11.7324 11.6127 11.7011 11.3934 11.7951 11.2367C11.8891 11.0801 12.1084 11.0487 12.2651 11.1427L13.8631 12.2708C14.0198 12.3648 14.0511 12.5841 13.9571 12.7408C13.8945 12.8661 13.7691 12.8974 13.6751 12.8974Z" fill="url(#paint7_linear_8046_2183)"/>
<path d="M13.6751 12.8974C13.6125 12.8974 13.5498 12.8661 13.4871 12.8348L11.8891 11.7067C11.7324 11.6127 11.7011 11.3934 11.7951 11.2367C11.8891 11.0801 12.1084 11.0487 12.2651 11.1427L13.8631 12.2708C14.0198 12.3648 14.0511 12.5841 13.9571 12.7408C13.8945 12.8661 13.7691 12.8974 13.6751 12.8974Z" fill="black" fill-opacity="0.2"/>
<path d="M21.2904 14.0254C21.2277 14.0254 21.165 13.994 21.1024 13.9627L19.5043 12.8347C19.3476 12.7407 19.3163 12.5213 19.4103 12.3647C19.5043 12.208 19.7236 12.1766 19.8803 12.2707L21.4784 13.3987C21.635 13.4927 21.6664 13.712 21.5724 13.8687C21.5097 13.994 21.3844 14.0254 21.2904 14.0254Z" fill="url(#paint8_linear_8046_2183)"/>
<path d="M21.2904 14.0254C21.2277 14.0254 21.165 13.994 21.1024 13.9627L19.5043 12.8347C19.3476 12.7407 19.3163 12.5213 19.4103 12.3647C19.5043 12.208 19.7236 12.1766 19.8803 12.2707L21.4784 13.3987C21.635 13.4927 21.6664 13.712 21.5724 13.8687C21.5097 13.994 21.3844 14.0254 21.2904 14.0254Z" fill="black" fill-opacity="0.2"/>
<path d="M19.6923 12.8978C19.5983 12.8978 19.473 12.8352 19.4103 12.7725C19.3163 12.6158 19.3476 12.4278 19.5043 12.3025L21.1024 11.1745C21.259 11.0805 21.447 11.1118 21.5724 11.2685C21.6664 11.4251 21.635 11.6131 21.4784 11.7385L19.8803 12.8665C19.8176 12.8978 19.755 12.8978 19.6923 12.8978Z" fill="url(#paint9_linear_8046_2183)"/>
<path d="M19.6923 12.8978C19.5983 12.8978 19.473 12.8352 19.4103 12.7725C19.3163 12.6158 19.3476 12.4278 19.5043 12.3025L21.1024 11.1745C21.259 11.0805 21.447 11.1118 21.5724 11.2685C21.6664 11.4251 21.635 11.6131 21.4784 11.7385L19.8803 12.8665C19.8176 12.8978 19.755 12.8978 19.6923 12.8978Z" fill="black" fill-opacity="0.2"/>
<path d="M18.8143 15.0286C18.7203 15.0286 18.6577 14.9973 18.595 14.9346L17.4983 13.8379C17.373 13.7126 17.373 13.4933 17.4983 13.3679C17.6236 13.2426 17.843 13.2426 17.9683 13.3679L19.065 14.4646C19.1904 14.59 19.1904 14.8093 19.065 14.9346C18.971 14.9973 18.9083 15.0286 18.8143 15.0286Z" fill="url(#paint10_linear_8046_2183)"/>
<path d="M18.8143 15.0286C18.7203 15.0286 18.6577 14.9973 18.595 14.9346L17.4983 13.8379C17.373 13.7126 17.373 13.4933 17.4983 13.3679C17.6236 13.2426 17.843 13.2426 17.9683 13.3679L19.065 14.4646C19.1904 14.59 19.1904 14.8093 19.065 14.9346C18.971 14.9973 18.9083 15.0286 18.8143 15.0286Z" fill="black" fill-opacity="0.2"/>
<path d="M15.5546 11.8012C15.4606 11.8012 15.3979 11.7699 15.3352 11.7072L14.3952 10.7672L12.5778 10.4538C12.3898 10.4225 12.2645 10.2658 12.2958 10.0778C12.3271 9.88982 12.4838 9.76448 12.6718 9.79581L14.5832 10.1405C14.6459 10.1405 14.7086 10.1718 14.7712 10.2345L15.7739 11.2372C15.8993 11.3625 15.8993 11.5819 15.7739 11.7072C15.7426 11.7699 15.6486 11.8012 15.5546 11.8012Z" fill="url(#paint11_linear_8046_2183)"/>
<path d="M15.5546 11.8012C15.4606 11.8012 15.3979 11.7699 15.3352 11.7072L14.3952 10.7672L12.5778 10.4538C12.3898 10.4225 12.2645 10.2658 12.2958 10.0778C12.3271 9.88982 12.4838 9.76448 12.6718 9.79581L14.5832 10.1405C14.6459 10.1405 14.7086 10.1718 14.7712 10.2345L15.7739 11.2372C15.8993 11.3625 15.8993 11.5819 15.7739 11.7072C15.7426 11.7699 15.6486 11.8012 15.5546 11.8012Z" fill="black" fill-opacity="0.2"/>
<path d="M14.5515 10.7983C14.3948 10.7983 14.2695 10.673 14.2381 10.5163L13.8935 8.60493C13.8621 8.41693 13.9875 8.26025 14.1755 8.22892C14.3635 8.19759 14.5202 8.32292 14.5515 8.51093L14.8962 10.4223C14.9275 10.6103 14.8022 10.767 14.6142 10.7983C14.5828 10.7983 14.5828 10.7983 14.5515 10.7983Z" fill="url(#paint12_linear_8046_2183)"/>
<path d="M14.5515 10.7983C14.3948 10.7983 14.2695 10.673 14.2381 10.5163L13.8935 8.60493C13.8621 8.41693 13.9875 8.26025 14.1755 8.22892C14.3635 8.19759 14.5202 8.32292 14.5515 8.51093L14.8962 10.4223C14.9275 10.6103 14.8022 10.767 14.6142 10.7983C14.5828 10.7983 14.5828 10.7983 14.5515 10.7983Z" fill="black" fill-opacity="0.2"/>
<path d="M19.1589 16.9707C19.0022 16.9707 18.8769 16.8454 18.8456 16.6887L18.5009 14.7773C18.4696 14.5893 18.5949 14.4326 18.7829 14.4013C18.9709 14.3699 19.1276 14.4953 19.1589 14.6833L19.5036 16.5947C19.5349 16.7827 19.4096 16.9394 19.2216 16.9707C19.1902 16.9707 19.1589 16.9707 19.1589 16.9707Z" fill="url(#paint13_linear_8046_2183)"/>
<path d="M19.1589 16.9707C19.0022 16.9707 18.8769 16.8454 18.8456 16.6887L18.5009 14.7773C18.4696 14.5893 18.5949 14.4326 18.7829 14.4013C18.9709 14.3699 19.1276 14.4953 19.1589 14.6833L19.5036 16.5947C19.5349 16.7827 19.4096 16.9394 19.2216 16.9707C19.1902 16.9707 19.1589 16.9707 19.1589 16.9707Z" fill="black" fill-opacity="0.2"/>
<path d="M20.7257 15.3732C20.6944 15.3732 20.6944 15.3732 20.663 15.3732L18.7517 15.0285C18.5636 14.9972 18.4383 14.8405 18.4696 14.6525C18.501 14.4645 18.6576 14.3392 18.8457 14.3705L20.757 14.7152C20.9451 14.7465 21.0704 14.9032 21.0391 15.0912C21.0391 15.2479 20.8824 15.3732 20.7257 15.3732Z" fill="url(#paint14_linear_8046_2183)"/>
<path d="M20.7257 15.3732C20.6944 15.3732 20.6944 15.3732 20.663 15.3732L18.7517 15.0285C18.5636 14.9972 18.4383 14.8405 18.4696 14.6525C18.501 14.4645 18.6576 14.3392 18.8457 14.3705L20.757 14.7152C20.9451 14.7465 21.0704 14.9032 21.0391 15.0912C21.0391 15.2479 20.8824 15.3732 20.7257 15.3732Z" fill="black" fill-opacity="0.2"/>
<path d="M17.7157 11.8944C17.6217 11.8944 17.559 11.863 17.4963 11.8004C17.371 11.675 17.371 11.4557 17.4963 11.3304L18.593 10.2337C18.7184 10.1083 18.9377 10.1083 19.0631 10.2337C19.1884 10.359 19.1884 10.5783 19.0631 10.7037L17.935 11.8004C17.8724 11.863 17.8097 11.8944 17.7157 11.8944Z" fill="url(#paint15_linear_8046_2183)"/>
<path d="M17.7157 11.8944C17.6217 11.8944 17.559 11.863 17.4963 11.8004C17.371 11.675 17.371 11.4557 17.4963 11.3304L18.593 10.2337C18.7184 10.1083 18.9377 10.1083 19.0631 10.2337C19.1884 10.359 19.1884 10.5783 19.0631 10.7037L17.935 11.8004C17.8724 11.863 17.8097 11.8944 17.7157 11.8944Z" fill="black" fill-opacity="0.2"/>
<path d="M14.2381 16.9708C14.2068 16.9708 14.2068 16.9708 14.1755 16.9708C13.9875 16.9395 13.8621 16.7828 13.8935 16.5948L14.2381 14.6834C14.2381 14.6207 14.2695 14.5581 14.3322 14.4954L15.4289 13.3987C15.5542 13.2734 15.7735 13.2734 15.8989 13.3987C16.0242 13.524 16.0242 13.7434 15.8989 13.8687L14.8648 14.8714L14.5515 16.6888C14.5202 16.8455 14.3948 16.9708 14.2381 16.9708Z" fill="url(#paint16_linear_8046_2183)"/>
<path d="M14.2381 16.9708C14.2068 16.9708 14.2068 16.9708 14.1755 16.9708C13.9875 16.9395 13.8621 16.7828 13.8935 16.5948L14.2381 14.6834C14.2381 14.6207 14.2695 14.5581 14.3322 14.4954L15.4289 13.3987C15.5542 13.2734 15.7735 13.2734 15.8989 13.3987C16.0242 13.524 16.0242 13.7434 15.8989 13.8687L14.8648 14.8714L14.5515 16.6888C14.5202 16.8455 14.3948 16.9708 14.2381 16.9708Z" fill="black" fill-opacity="0.2"/>
<path d="M12.6404 15.3732C12.4837 15.3732 12.3584 15.2479 12.3271 15.0912C12.2957 14.9032 12.4211 14.7465 12.6091 14.7152L14.5205 14.3705C14.7085 14.3392 14.8651 14.4645 14.8965 14.6525C14.9278 14.8405 14.8025 14.9972 14.6145 15.0285L12.7031 15.3732C12.6717 15.3732 12.6404 15.3732 12.6404 15.3732Z" fill="url(#paint17_linear_8046_2183)"/>
<path d="M12.6404 15.3732C12.4837 15.3732 12.3584 15.2479 12.3271 15.0912C12.2957 14.9032 12.4211 14.7465 12.6091 14.7152L14.5205 14.3705C14.7085 14.3392 14.8651 14.4645 14.8965 14.6525C14.9278 14.8405 14.8025 14.9972 14.6145 15.0285L12.7031 15.3732C12.6717 15.3732 12.6404 15.3732 12.6404 15.3732Z" fill="black" fill-opacity="0.2"/>
<path d="M18.8123 10.7985C18.6556 10.7985 18.5303 10.6732 18.4989 10.5165C18.4676 10.3285 18.5929 10.1718 18.7809 10.1405L20.6923 9.79581C20.8803 9.76448 21.037 9.88982 21.0684 10.0778C21.0997 10.2658 20.9743 10.4225 20.7863 10.4538L18.875 10.7985C18.8436 10.7985 18.8123 10.7985 18.8123 10.7985Z" fill="url(#paint18_linear_8046_2183)"/>
<path d="M18.8123 10.7985C18.6556 10.7985 18.5303 10.6732 18.4989 10.5165C18.4676 10.3285 18.5929 10.1718 18.7809 10.1405L20.6923 9.79581C20.8803 9.76448 21.037 9.88982 21.0684 10.0778C21.0997 10.2658 20.9743 10.4225 20.7863 10.4538L18.875 10.7985C18.8436 10.7985 18.8123 10.7985 18.8123 10.7985Z" fill="black" fill-opacity="0.2"/>
<path d="M18.8124 10.7983C18.781 10.7983 18.781 10.7983 18.7497 10.7983C18.5617 10.767 18.4364 10.6103 18.4677 10.4223L18.8124 8.51093C18.8437 8.32292 19.0004 8.19759 19.1884 8.22892C19.3764 8.26025 19.5017 8.41693 19.4704 8.60493L19.1257 10.5163C19.0944 10.673 18.969 10.7983 18.8124 10.7983Z" fill="url(#paint19_linear_8046_2183)"/>
<path d="M18.8124 10.7983C18.781 10.7983 18.781 10.7983 18.7497 10.7983C18.5617 10.767 18.4364 10.6103 18.4677 10.4223L18.8124 8.51093C18.8437 8.32292 19.0004 8.19759 19.1884 8.22892C19.3764 8.26025 19.5017 8.41693 19.4704 8.60493L19.1257 10.5163C19.0944 10.673 18.969 10.7983 18.8124 10.7983Z" fill="black" fill-opacity="0.2"/>
<path d="M16.6825 14.3705C15.7112 14.3705 14.8965 13.5558 14.8965 12.5844C14.8965 11.613 15.7112 10.7983 16.6825 10.7983C17.6539 10.7983 18.4686 11.5817 18.4686 12.5844C18.4686 13.5871 17.6539 14.3705 16.6825 14.3705ZM16.6825 11.4564C16.0559 11.4564 15.5545 11.9577 15.5545 12.5844C15.5545 13.2111 16.0559 13.7124 16.6825 13.7124C17.3092 13.7124 17.8106 13.2111 17.8106 12.5844C17.8106 11.9577 17.3092 11.4564 16.6825 11.4564Z" fill="url(#paint20_linear_8046_2183)"/>
<path d="M16.6825 14.3705C15.7112 14.3705 14.8965 13.5558 14.8965 12.5844C14.8965 11.613 15.7112 10.7983 16.6825 10.7983C17.6539 10.7983 18.4686 11.5817 18.4686 12.5844C18.4686 13.5871 17.6539 14.3705 16.6825 14.3705ZM16.6825 11.4564C16.0559 11.4564 15.5545 11.9577 15.5545 12.5844C15.5545 13.2111 16.0559 13.7124 16.6825 13.7124C17.3092 13.7124 17.8106 13.2111 17.8106 12.5844C17.8106 11.9577 17.3092 11.4564 16.6825 11.4564Z" fill="black" fill-opacity="0.2"/>
<path d="M31.5349 27.5933H9.47554C9.28753 27.5933 9.13086 27.4367 9.13086 27.2487V7.7274C9.13086 6.16068 10.4156 4.87598 11.9823 4.87598H29.0281C30.5949 4.87598 31.8796 6.16068 31.8796 7.7274V27.28C31.8796 27.468 31.7229 27.5933 31.5349 27.5933ZM9.78888 26.9353H31.1902V7.7274C31.1902 6.53669 30.2188 5.534 28.9968 5.534H11.9823C10.7916 5.534 9.78888 6.50536 9.78888 7.7274V26.9353Z" fill="url(#paint21_linear_8046_2183)"/>
<path d="M31.5349 27.5933H9.47554C9.28753 27.5933 9.13086 27.4367 9.13086 27.2487V7.7274C9.13086 6.16068 10.4156 4.87598 11.9823 4.87598H29.0281C30.5949 4.87598 31.8796 6.16068 31.8796 7.7274V27.28C31.8796 27.468 31.7229 27.5933 31.5349 27.5933ZM9.78888 26.9353H31.1902V7.7274C31.1902 6.53669 30.2188 5.534 28.9968 5.534H11.9823C10.7916 5.534 9.78888 6.50536 9.78888 7.7274V26.9353Z" fill="black" fill-opacity="0.2"/>
<path d="M19.2197 20.6371H14.1435C13.9555 20.6371 13.7988 20.4804 13.7988 20.2924C13.7988 20.1044 13.9555 19.9478 14.1435 19.9478H19.2197C19.4077 19.9478 19.5643 20.1044 19.5643 20.2924C19.5643 20.4804 19.4077 20.6371 19.2197 20.6371Z" fill="url(#paint22_linear_8046_2183)"/>
<path d="M19.2197 20.6371H14.1435C13.9555 20.6371 13.7988 20.4804 13.7988 20.2924C13.7988 20.1044 13.9555 19.9478 14.1435 19.9478H19.2197C19.4077 19.9478 19.5643 20.1044 19.5643 20.2924C19.5643 20.4804 19.4077 20.6371 19.2197 20.6371Z" fill="black" fill-opacity="0.2"/>
<path d="M19.2197 22.5487H14.1435C13.9555 22.5487 13.7988 22.3921 13.7988 22.2041C13.7988 22.016 13.9555 21.8594 14.1435 21.8594H19.2197C19.4077 21.8594 19.5643 22.016 19.5643 22.2041C19.5643 22.3921 19.4077 22.5487 19.2197 22.5487Z" fill="url(#paint23_linear_8046_2183)"/>
<path d="M19.2197 22.5487H14.1435C13.9555 22.5487 13.7988 22.3921 13.7988 22.2041C13.7988 22.016 13.9555 21.8594 14.1435 21.8594H19.2197C19.4077 21.8594 19.5643 22.016 19.5643 22.2041C19.5643 22.3921 19.4077 22.5487 19.2197 22.5487Z" fill="black" fill-opacity="0.2"/>
<path d="M19.2197 24.4599H14.1435C13.9555 24.4599 13.7988 24.3032 13.7988 24.1152C13.7988 23.9272 13.9555 23.7705 14.1435 23.7705H19.2197C19.4077 23.7705 19.5643 23.9272 19.5643 24.1152C19.5643 24.3032 19.4077 24.4599 19.2197 24.4599Z" fill="url(#paint24_linear_8046_2183)"/>
<path d="M19.2197 24.4599H14.1435C13.9555 24.4599 13.7988 24.3032 13.7988 24.1152C13.7988 23.9272 13.9555 23.7705 14.1435 23.7705H19.2197C19.4077 23.7705 19.5643 23.9272 19.5643 24.1152C19.5643 24.3032 19.4077 24.4599 19.2197 24.4599Z" fill="black" fill-opacity="0.2"/>
<path d="M25.8943 24.4596C25.1423 24.4596 24.5156 23.8329 24.5156 23.0809C24.5156 22.3288 25.1423 21.7021 25.8943 21.7021C26.6464 21.7021 27.273 22.3288 27.273 23.0809C27.273 23.8329 26.6777 24.4596 25.8943 24.4596ZM25.8943 22.3288C25.487 22.3288 25.1736 22.6422 25.1736 23.0495C25.1736 23.4569 25.487 23.7702 25.8943 23.7702C26.3017 23.7702 26.615 23.4569 26.615 23.0495C26.615 22.6735 26.3017 22.3288 25.8943 22.3288Z" fill="url(#paint25_linear_8046_2183)"/>
<path d="M25.8943 24.4596C25.1423 24.4596 24.5156 23.8329 24.5156 23.0809C24.5156 22.3288 25.1423 21.7021 25.8943 21.7021C26.6464 21.7021 27.273 22.3288 27.273 23.0809C27.273 23.8329 26.6777 24.4596 25.8943 24.4596ZM25.8943 22.3288C25.487 22.3288 25.1736 22.6422 25.1736 23.0495C25.1736 23.4569 25.487 23.7702 25.8943 23.7702C26.3017 23.7702 26.615 23.4569 26.615 23.0495C26.615 22.6735 26.3017 22.3288 25.8943 22.3288Z" fill="black" fill-opacity="0.2"/>
<path d="M25.8935 22.3288C25.7055 22.3288 25.5488 22.1722 25.5488 21.9842V7.16304C25.5488 6.97503 25.7055 6.81836 25.8935 6.81836C26.0815 6.81836 26.2382 6.97503 26.2382 7.16304V22.0155C26.2382 22.2035 26.0815 22.3288 25.8935 22.3288Z" fill="url(#paint26_linear_8046_2183)"/>
<path d="M25.8935 22.3288C25.7055 22.3288 25.5488 22.1722 25.5488 21.9842V7.16304C25.5488 6.97503 25.7055 6.81836 25.8935 6.81836C26.0815 6.81836 26.2382 6.97503 26.2382 7.16304V22.0155C26.2382 22.2035 26.0815 22.3288 25.8935 22.3288Z" fill="black" fill-opacity="0.2"/>
<path d="M28.4951 20.1986H27.0224C26.8344 20.1986 26.6777 20.042 26.6777 19.854C26.6777 19.6659 26.8344 19.5093 27.0224 19.5093H28.4951C28.6831 19.5093 28.8398 19.6659 28.8398 19.854C28.8398 20.042 28.6831 20.1986 28.4951 20.1986Z" fill="url(#paint27_linear_8046_2183)"/>
<path d="M28.4951 20.1986H27.0224C26.8344 20.1986 26.6777 20.042 26.6777 19.854C26.6777 19.6659 26.8344 19.5093 27.0224 19.5093H28.4951C28.6831 19.5093 28.8398 19.6659 28.8398 19.854C28.8398 20.042 28.6831 20.1986 28.4951 20.1986Z" fill="black" fill-opacity="0.2"/>
<path d="M27.8371 18.8515H27.0224C26.8344 18.8515 26.6777 18.6948 26.6777 18.5068C26.6777 18.3188 26.8344 18.1621 27.0224 18.1621H27.8371C28.0251 18.1621 28.1818 18.3188 28.1818 18.5068C28.1504 18.6948 28.0251 18.8515 27.8371 18.8515Z" fill="url(#paint28_linear_8046_2183)"/>
<path d="M27.8371 18.8515H27.0224C26.8344 18.8515 26.6777 18.6948 26.6777 18.5068C26.6777 18.3188 26.8344 18.1621 27.0224 18.1621H27.8371C28.0251 18.1621 28.1818 18.3188 28.1818 18.5068C28.1504 18.6948 28.0251 18.8515 27.8371 18.8515Z" fill="black" fill-opacity="0.2"/>
<path d="M28.4951 17.5033H27.0224C26.8344 17.5033 26.6777 17.3466 26.6777 17.1586C26.6777 16.9706 26.8344 16.814 27.0224 16.814H28.4951C28.6831 16.814 28.8398 16.9706 28.8398 17.1586C28.8398 17.3466 28.6831 17.5033 28.4951 17.5033Z" fill="url(#paint29_linear_8046_2183)"/>
<path d="M28.4951 17.5033H27.0224C26.8344 17.5033 26.6777 17.3466 26.6777 17.1586C26.6777 16.9706 26.8344 16.814 27.0224 16.814H28.4951C28.6831 16.814 28.8398 16.9706 28.8398 17.1586C28.8398 17.3466 28.6831 17.5033 28.4951 17.5033Z" fill="black" fill-opacity="0.2"/>
<path d="M27.8371 16.1562H27.0224C26.8344 16.1562 26.6777 15.9995 26.6777 15.8115C26.6777 15.6235 26.8344 15.4668 27.0224 15.4668H27.8371C28.0251 15.4668 28.1818 15.6235 28.1818 15.8115C28.1504 15.9995 28.0251 16.1562 27.8371 16.1562Z" fill="url(#paint30_linear_8046_2183)"/>
<path d="M27.8371 16.1562H27.0224C26.8344 16.1562 26.6777 15.9995 26.6777 15.8115C26.6777 15.6235 26.8344 15.4668 27.0224 15.4668H27.8371C28.0251 15.4668 28.1818 15.6235 28.1818 15.8115C28.1504 15.9995 28.0251 16.1562 27.8371 16.1562Z" fill="black" fill-opacity="0.2"/>
<path d="M28.4951 14.809H27.0224C26.8344 14.809 26.6777 14.6523 26.6777 14.4643C26.6777 14.2763 26.8344 14.1196 27.0224 14.1196H28.4951C28.6831 14.1196 28.8398 14.2763 28.8398 14.4643C28.8398 14.6523 28.6831 14.809 28.4951 14.809Z" fill="url(#paint31_linear_8046_2183)"/>
<path d="M28.4951 14.809H27.0224C26.8344 14.809 26.6777 14.6523 26.6777 14.4643C26.6777 14.2763 26.8344 14.1196 27.0224 14.1196H28.4951C28.6831 14.1196 28.8398 14.2763 28.8398 14.4643C28.8398 14.6523 28.6831 14.809 28.4951 14.809Z" fill="black" fill-opacity="0.2"/>
<path d="M27.8371 13.4618H27.0224C26.8344 13.4618 26.6777 13.3051 26.6777 13.1171C26.6777 12.9291 26.8344 12.7725 27.0224 12.7725H27.8371C28.0251 12.7725 28.1818 12.9291 28.1818 13.1171C28.1818 13.3051 28.0251 13.4618 27.8371 13.4618Z" fill="url(#paint32_linear_8046_2183)"/>
<path d="M27.8371 13.4618H27.0224C26.8344 13.4618 26.6777 13.3051 26.6777 13.1171C26.6777 12.9291 26.8344 12.7725 27.0224 12.7725H27.8371C28.0251 12.7725 28.1818 12.9291 28.1818 13.1171C28.1818 13.3051 28.0251 13.4618 27.8371 13.4618Z" fill="black" fill-opacity="0.2"/>
<path d="M28.4951 12.1142H27.0224C26.8344 12.1142 26.6777 11.9575 26.6777 11.7695C26.6777 11.5815 26.8344 11.4248 27.0224 11.4248H28.4951C28.6831 11.4248 28.8398 11.5815 28.8398 11.7695C28.8398 11.9575 28.6831 12.1142 28.4951 12.1142Z" fill="url(#paint33_linear_8046_2183)"/>
<path d="M28.4951 12.1142H27.0224C26.8344 12.1142 26.6777 11.9575 26.6777 11.7695C26.6777 11.5815 26.8344 11.4248 27.0224 11.4248H28.4951C28.6831 11.4248 28.8398 11.5815 28.8398 11.7695C28.8398 11.9575 28.6831 12.1142 28.4951 12.1142Z" fill="black" fill-opacity="0.2"/>
<path d="M27.8371 10.7665H27.0224C26.8344 10.7665 26.6777 10.6098 26.6777 10.4218C26.6777 10.2338 26.8344 10.0771 27.0224 10.0771H27.8371C28.0251 10.0771 28.1818 10.2338 28.1818 10.4218C28.1504 10.6098 28.0251 10.7665 27.8371 10.7665Z" fill="url(#paint34_linear_8046_2183)"/>
<path d="M27.8371 10.7665H27.0224C26.8344 10.7665 26.6777 10.6098 26.6777 10.4218C26.6777 10.2338 26.8344 10.0771 27.0224 10.0771H27.8371C28.0251 10.0771 28.1818 10.2338 28.1818 10.4218C28.1504 10.6098 28.0251 10.7665 27.8371 10.7665Z" fill="black" fill-opacity="0.2"/>
<path d="M28.4951 9.41933H27.0224C26.8344 9.41933 26.6777 9.26266 26.6777 9.07466C26.6777 8.88665 26.8344 8.72998 27.0224 8.72998H28.4951C28.6831 8.72998 28.8398 8.88665 28.8398 9.07466C28.8398 9.26266 28.6831 9.41933 28.4951 9.41933Z" fill="url(#paint35_linear_8046_2183)"/>
<path d="M28.4951 9.41933H27.0224C26.8344 9.41933 26.6777 9.26266 26.6777 9.07466C26.6777 8.88665 26.8344 8.72998 27.0224 8.72998H28.4951C28.6831 8.72998 28.8398 8.88665 28.8398 9.07466C28.8398 9.26266 28.6831 9.41933 28.4951 9.41933Z" fill="black" fill-opacity="0.2"/>
<path d="M35.8275 33.1397H5.18257C4.99456 33.1397 4.83789 32.9831 4.83789 32.7951V30.2883C4.83789 28.4396 6.34194 26.9355 8.19066 26.9355H32.8508C34.6995 26.9355 36.2035 28.4396 36.2035 30.2883V32.7951C36.1722 32.9831 36.0155 33.1397 35.8275 33.1397ZM5.49591 32.4817H35.5142V30.2883C35.5142 28.8156 34.3235 27.5936 32.8194 27.5936H8.19066C6.71795 27.5936 5.49591 28.7843 5.49591 30.2883V32.4817Z" fill="url(#paint36_linear_8046_2183)"/>
<path d="M35.8275 33.1397H5.18257C4.99456 33.1397 4.83789 32.9831 4.83789 32.7951V30.2883C4.83789 28.4396 6.34194 26.9355 8.19066 26.9355H32.8508C34.6995 26.9355 36.2035 28.4396 36.2035 30.2883V32.7951C36.1722 32.9831 36.0155 33.1397 35.8275 33.1397ZM5.49591 32.4817H35.5142V30.2883C35.5142 28.8156 34.3235 27.5936 32.8194 27.5936H8.19066C6.71795 27.5936 5.49591 28.7843 5.49591 30.2883V32.4817Z" fill="black" fill-opacity="0.2"/>
</g>
<defs>
<linearGradient id="paint0_linear_8046_2183" x1="16.6826" y1="9.19971" x2="16.6826" y2="11.4558" gradientUnits="userSpaceOnUse">
<stop stop-color="#FF0F0F"/>
<stop offset="1" stop-color="#FF4849"/>
</linearGradient>
<linearGradient id="paint1_linear_8046_2183" x1="17.2417" y1="13.6807" x2="17.2417" y2="17.5034" gradientUnits="userSpaceOnUse">
<stop stop-color="#FF0F0F"/>
<stop offset="1" stop-color="#FF4849"/>
</linearGradient>
<linearGradient id="paint2_linear_8046_2183" x1="16.1196" y1="15.2261" x2="16.1196" y2="17.5037" gradientUnits="userSpaceOnUse">
<stop stop-color="#FF0F0F"/>
<stop offset="1" stop-color="#FF4849"/>
</linearGradient>
<linearGradient id="paint3_linear_8046_2183" x1="17.2466" y1="7.64307" x2="17.2466" y2="9.92068" gradientUnits="userSpaceOnUse">
<stop stop-color="#FF0F0F"/>
<stop offset="1" stop-color="#FF4849"/>
</linearGradient>
<linearGradient id="paint4_linear_8046_2183" x1="16.1196" y1="7.67432" x2="16.1196" y2="9.92059" gradientUnits="userSpaceOnUse">
<stop stop-color="#FF0F0F"/>
<stop offset="1" stop-color="#FF4849"/>
</linearGradient>
<linearGradient id="paint5_linear_8046_2183" x1="18.9073" y1="12.208" x2="18.9073" y2="12.8974" gradientUnits="userSpaceOnUse">
<stop stop-color="#FF0F0F"/>
<stop offset="1" stop-color="#FF4849"/>
</linearGradient>
<linearGradient id="paint6_linear_8046_2183" x1="13.6644" y1="12.2393" x2="13.6644" y2="14.0253" gradientUnits="userSpaceOnUse">
<stop stop-color="#FF0F0F"/>
<stop offset="1" stop-color="#FF4849"/>
</linearGradient>
<linearGradient id="paint7_linear_8046_2183" x1="12.8761" y1="11.0898" x2="12.8761" y2="12.8974" gradientUnits="userSpaceOnUse">
<stop stop-color="#FF0F0F"/>
<stop offset="1" stop-color="#FF4849"/>
</linearGradient>
<linearGradient id="paint8_linear_8046_2183" x1="20.4913" y1="12.2178" x2="20.4913" y2="14.0254" gradientUnits="userSpaceOnUse">
<stop stop-color="#FF0F0F"/>
<stop offset="1" stop-color="#FF4849"/>
</linearGradient>
<linearGradient id="paint9_linear_8046_2183" x1="20.4913" y1="11.1216" x2="20.4913" y2="12.8978" gradientUnits="userSpaceOnUse">
<stop stop-color="#FF0F0F"/>
<stop offset="1" stop-color="#FF4849"/>
</linearGradient>
<linearGradient id="paint10_linear_8046_2183" x1="18.2817" y1="13.2739" x2="18.2817" y2="15.0286" gradientUnits="userSpaceOnUse">
<stop stop-color="#FF0F0F"/>
<stop offset="1" stop-color="#FF4849"/>
</linearGradient>
<linearGradient id="paint11_linear_8046_2183" x1="14.0795" y1="9.79102" x2="14.0795" y2="11.8012" gradientUnits="userSpaceOnUse">
<stop stop-color="#FF0F0F"/>
<stop offset="1" stop-color="#FF4849"/>
</linearGradient>
<linearGradient id="paint12_linear_8046_2183" x1="14.3948" y1="8.22412" x2="14.3948" y2="10.7983" gradientUnits="userSpaceOnUse">
<stop stop-color="#FF0F0F"/>
<stop offset="1" stop-color="#FF4849"/>
</linearGradient>
<linearGradient id="paint13_linear_8046_2183" x1="19.0022" y1="14.3965" x2="19.0022" y2="16.9707" gradientUnits="userSpaceOnUse">
<stop stop-color="#FF0F0F"/>
<stop offset="1" stop-color="#FF4849"/>
</linearGradient>
<linearGradient id="paint14_linear_8046_2183" x1="19.7543" y1="14.3657" x2="19.7543" y2="15.3732" gradientUnits="userSpaceOnUse">
<stop stop-color="#FF0F0F"/>
<stop offset="1" stop-color="#FF4849"/>
</linearGradient>
<linearGradient id="paint15_linear_8046_2183" x1="18.2797" y1="10.1396" x2="18.2797" y2="11.8944" gradientUnits="userSpaceOnUse">
<stop stop-color="#FF0F0F"/>
<stop offset="1" stop-color="#FF4849"/>
</linearGradient>
<linearGradient id="paint16_linear_8046_2183" x1="14.9408" y1="13.3047" x2="14.9408" y2="16.9708" gradientUnits="userSpaceOnUse">
<stop stop-color="#FF0F0F"/>
<stop offset="1" stop-color="#FF4849"/>
</linearGradient>
<linearGradient id="paint17_linear_8046_2183" x1="13.6118" y1="14.3657" x2="13.6118" y2="15.3732" gradientUnits="userSpaceOnUse">
<stop stop-color="#FF0F0F"/>
<stop offset="1" stop-color="#FF4849"/>
</linearGradient>
<linearGradient id="paint18_linear_8046_2183" x1="19.7836" y1="9.79102" x2="19.7836" y2="10.7985" gradientUnits="userSpaceOnUse">
<stop stop-color="#FF0F0F"/>
<stop offset="1" stop-color="#FF4849"/>
</linearGradient>
<linearGradient id="paint19_linear_8046_2183" x1="18.969" y1="8.22412" x2="18.969" y2="10.7983" gradientUnits="userSpaceOnUse">
<stop stop-color="#FF0F0F"/>
<stop offset="1" stop-color="#FF4849"/>
</linearGradient>
<linearGradient id="paint20_linear_8046_2183" x1="16.6825" y1="10.7983" x2="16.6825" y2="14.3705" gradientUnits="userSpaceOnUse">
<stop stop-color="#FF0F0F"/>
<stop offset="1" stop-color="#FF4849"/>
</linearGradient>
<linearGradient id="paint21_linear_8046_2183" x1="20.5052" y1="4.87598" x2="20.5052" y2="27.5933" gradientUnits="userSpaceOnUse">
<stop stop-color="#FF0F0F"/>
<stop offset="1" stop-color="#FF4849"/>
</linearGradient>
<linearGradient id="paint22_linear_8046_2183" x1="16.6816" y1="19.9478" x2="16.6816" y2="20.6371" gradientUnits="userSpaceOnUse">
<stop stop-color="#FF0F0F"/>
<stop offset="1" stop-color="#FF4849"/>
</linearGradient>
<linearGradient id="paint23_linear_8046_2183" x1="16.6816" y1="21.8594" x2="16.6816" y2="22.5487" gradientUnits="userSpaceOnUse">
<stop stop-color="#FF0F0F"/>
<stop offset="1" stop-color="#FF4849"/>
</linearGradient>
<linearGradient id="paint24_linear_8046_2183" x1="16.6816" y1="23.7705" x2="16.6816" y2="24.4599" gradientUnits="userSpaceOnUse">
<stop stop-color="#FF0F0F"/>
<stop offset="1" stop-color="#FF4849"/>
</linearGradient>
<linearGradient id="paint25_linear_8046_2183" x1="25.8943" y1="21.7021" x2="25.8943" y2="24.4596" gradientUnits="userSpaceOnUse">
<stop stop-color="#FF0F0F"/>
<stop offset="1" stop-color="#FF4849"/>
</linearGradient>
<linearGradient id="paint26_linear_8046_2183" x1="25.8935" y1="6.81836" x2="25.8935" y2="22.3288" gradientUnits="userSpaceOnUse">
<stop stop-color="#FF0F0F"/>
<stop offset="1" stop-color="#FF4849"/>
</linearGradient>
<linearGradient id="paint27_linear_8046_2183" x1="27.7588" y1="19.5093" x2="27.7588" y2="20.1986" gradientUnits="userSpaceOnUse">
<stop stop-color="#FF0F0F"/>
<stop offset="1" stop-color="#FF4849"/>
</linearGradient>
<linearGradient id="paint28_linear_8046_2183" x1="27.4298" y1="18.1621" x2="27.4298" y2="18.8515" gradientUnits="userSpaceOnUse">
<stop stop-color="#FF0F0F"/>
<stop offset="1" stop-color="#FF4849"/>
</linearGradient>
<linearGradient id="paint29_linear_8046_2183" x1="27.7588" y1="16.814" x2="27.7588" y2="17.5033" gradientUnits="userSpaceOnUse">
<stop stop-color="#FF0F0F"/>
<stop offset="1" stop-color="#FF4849"/>
</linearGradient>
<linearGradient id="paint30_linear_8046_2183" x1="27.4298" y1="15.4668" x2="27.4298" y2="16.1562" gradientUnits="userSpaceOnUse">
<stop stop-color="#FF0F0F"/>
<stop offset="1" stop-color="#FF4849"/>
</linearGradient>
<linearGradient id="paint31_linear_8046_2183" x1="27.7588" y1="14.1196" x2="27.7588" y2="14.809" gradientUnits="userSpaceOnUse">
<stop stop-color="#FF0F0F"/>
<stop offset="1" stop-color="#FF4849"/>
</linearGradient>
<linearGradient id="paint32_linear_8046_2183" x1="27.4298" y1="12.7725" x2="27.4298" y2="13.4618" gradientUnits="userSpaceOnUse">
<stop stop-color="#FF0F0F"/>
<stop offset="1" stop-color="#FF4849"/>
</linearGradient>
<linearGradient id="paint33_linear_8046_2183" x1="27.7588" y1="11.4248" x2="27.7588" y2="12.1142" gradientUnits="userSpaceOnUse">
<stop stop-color="#FF0F0F"/>
<stop offset="1" stop-color="#FF4849"/>
</linearGradient>
<linearGradient id="paint34_linear_8046_2183" x1="27.4298" y1="10.0771" x2="27.4298" y2="10.7665" gradientUnits="userSpaceOnUse">
<stop stop-color="#FF0F0F"/>
<stop offset="1" stop-color="#FF4849"/>
</linearGradient>
<linearGradient id="paint35_linear_8046_2183" x1="27.7588" y1="8.72998" x2="27.7588" y2="9.41933" gradientUnits="userSpaceOnUse">
<stop stop-color="#FF0F0F"/>
<stop offset="1" stop-color="#FF4849"/>
</linearGradient>
<linearGradient id="paint36_linear_8046_2183" x1="20.5207" y1="26.9355" x2="20.5207" y2="33.1397" gradientUnits="userSpaceOnUse">
<stop stop-color="#FF0F0F"/>
<stop offset="1" stop-color="#FF4849"/>
</linearGradient>
<clipPath id="clip0_8046_2183">
<rect width="39.7513" height="40.3589" fill="white" transform="translate(0.945312 -0.0078125)"/>
</clipPath>
</defs>
</svg>
