<svg width="60" height="60" viewBox="0 0 60 60" fill="none" xmlns="http://www.w3.org/2000/svg">
<path d="M11.9452 6.28873C8.18601 6.28873 5.19065 9.33897 5.19065 13.0984C5.19065 16.8578 8.18601 19.9767 11.9452 19.9767C15.637 19.9767 18.6323 16.8578 18.6323 13.0984C18.6248 9.33897 15.6295 6.28873 11.9452 6.28873ZM9.2269 14.8675C9.2269 14.0135 10.4775 14.0135 10.4775 14.8675C10.4775 16.2859 13.3305 16.2859 13.3305 14.8675C13.3305 14.0135 12.5667 13.8762 11.7954 13.7313C10.5449 13.4492 9.21941 13.2356 9.21941 11.3903C9.21941 10.1854 10.1929 9.33134 11.3087 9.11782V8.1265C11.3087 7.27243 12.4918 7.27243 12.4918 8.1265V9.11782C13.6076 9.33134 14.5811 10.1854 14.5811 11.3903C14.5811 12.2443 13.3305 12.2443 13.3305 11.3903C13.3305 10.0405 10.4775 9.97189 10.4775 11.3903C10.4775 12.1681 11.2413 12.3816 12.0126 12.5265C13.338 12.74 14.5886 13.0221 14.5886 14.8675C14.5886 16.0037 13.6151 16.9264 12.4993 17.14V18.1313C12.4993 18.9091 11.3162 18.9091 11.3162 18.1313V17.14C10.2004 16.9264 9.2269 16.0037 9.2269 14.8675ZM37.4282 21.3264C37.7727 21.3264 37.9823 21.6086 37.9823 21.8907C37.9823 22.2491 37.7727 22.455 37.4282 22.455C37.1511 22.455 36.874 22.2415 36.874 21.8907C36.874 21.6086 37.1511 21.3264 37.4282 21.3264ZM38.0572 20.1902V15.7216C38.0572 14.8675 36.8066 14.8675 36.8066 15.7216V20.1902C36.1776 20.4723 35.6909 21.1129 35.6909 21.8907C35.6909 22.882 36.4547 23.7361 37.4282 23.7361C38.192 23.7361 38.8884 23.2404 39.0981 22.5313H43.0669C43.9056 22.5313 43.9056 21.2578 43.0669 21.2578H39.0981C38.9633 20.7545 38.544 20.4037 38.0572 20.1902ZM52.8243 24.0182V19.8318L49.0652 19.2675C48.7881 19.2675 48.5784 19.1226 48.511 18.8405C48.3013 18.0627 47.882 16.7815 47.3952 16.0724C47.3278 15.8589 47.3278 15.6453 47.4626 15.4318L49.7616 12.3129L46.8336 9.33134L43.8383 11.6724C43.6286 11.8173 43.3515 11.8859 43.1418 11.741C42.3031 11.2454 41.4045 10.887 40.4984 10.6048C40.2214 10.5362 40.0791 10.3227 40.0117 10.1092L39.5249 6.2811H35.4138L34.8597 10.1092C34.8597 10.3227 34.65 10.5362 34.4403 10.6048C33.4668 10.887 32.6281 11.2454 31.722 11.741C31.5124 11.8859 31.2353 11.8097 31.0256 11.6724L28.0303 9.33134L25.1023 12.3129L27.4012 15.4318C27.6109 15.6453 27.6109 15.8589 27.4686 16.0724C27.0493 16.7815 26.5625 18.055 26.3529 18.8405C26.2855 19.1226 26.0758 19.2675 25.7987 19.2675L22.1069 19.8318V24.0182L25.7987 24.5139C26.0758 24.5139 26.2855 24.7274 26.3529 25.0096C26.5625 25.7874 27.0493 26.9922 27.4686 27.7014C27.6109 27.9149 27.6109 28.1971 27.4012 28.4106L25.1023 31.4608L28.0303 34.4424L31.0256 32.1014C31.2353 31.9565 31.5124 31.8879 31.722 32.0327C32.6281 32.5284 33.4593 32.8868 34.4403 33.169C34.65 33.2376 34.8597 33.4511 34.8597 33.7333L35.4138 37.5613H39.5249L40.0117 33.7333C40.0791 33.4511 40.2214 33.2376 40.4984 33.169C41.4045 32.8868 42.3106 32.5284 43.1418 32.0327C43.3515 31.8879 43.6286 31.9641 43.8383 32.1014L46.8336 34.4424L49.7616 31.4608L47.4626 28.4106C47.3204 28.1971 47.3204 27.9149 47.3952 27.7014C47.882 26.9922 48.3013 25.7874 48.511 25.0096C48.5784 24.7274 48.7881 24.5139 49.0652 24.5139L52.8243 24.0182ZM46.5565 21.8907C46.5565 16.7816 42.5203 12.6027 37.4357 12.6027C32.4185 12.6027 28.3148 16.7892 28.3148 21.8907C28.3148 26.9999 32.4259 31.1787 37.4357 31.1787C42.5128 31.1787 46.5565 26.9999 46.5565 21.8907ZM45.3659 21.8907C45.3659 26.3593 41.8164 29.9738 37.4282 29.9738C33.1074 29.9738 29.5579 26.3593 29.5579 21.8907C29.5579 17.4907 33.1074 13.8762 37.4282 13.8762C41.8164 13.8762 45.3659 17.4907 45.3659 21.8907ZM45.9949 41.0386C42.3031 41.0386 39.3078 44.0888 39.3078 47.8482C39.3078 51.6077 42.3031 54.6579 45.9949 54.6579C49.6867 54.6579 52.682 51.6077 52.682 47.8482C52.682 44.0888 49.6867 41.0386 45.9949 41.0386ZM28.165 35.8608H32.2013C32.9651 35.8608 33.5941 36.2116 34.0135 36.7149L33.7364 34.3052C32.9726 34.023 32.2013 33.7409 31.5049 33.3138L28.3747 35.7922C28.3073 35.7922 28.2399 35.8608 28.165 35.8608ZM31.722 41.1072H12.9187C12.08 41.1072 12.08 42.3807 12.9187 42.3807H31.722C32.5532 42.3883 32.5532 41.1072 31.722 41.1072ZM31.722 38.5603H12.9187C12.08 38.5603 12.08 39.7651 12.9187 39.7651H31.722C32.5532 39.7651 32.5532 38.5603 31.722 38.5603ZM9.01722 39.6202C9.43657 39.6202 9.85592 39.971 9.85592 40.4743C9.85592 40.9013 9.43657 41.3284 9.01722 41.3284C8.53048 41.3284 8.17852 40.9013 8.17852 40.4743C8.17852 39.9786 8.53048 39.6202 9.01722 39.6202ZM9.01722 38.3467C7.83406 38.3467 6.92796 39.2694 6.92796 40.4743C6.92796 41.6105 7.83406 42.5332 9.01722 42.5332C10.133 42.5332 11.0391 41.6105 11.0391 40.4743C11.0391 39.2694 10.133 38.3467 9.01722 38.3467ZM32.2088 43.8067C32.8378 43.8067 33.3919 43.2424 33.3919 42.6018V38.3467C33.3919 37.6376 32.8378 37.1419 32.2088 37.1419H6.37382C5.7448 37.1419 5.25805 37.6376 5.25805 38.3467V42.6018C5.25805 43.2424 5.7448 43.8067 6.37382 43.8067H32.2088ZM12.4993 25.4366H11.3162V24.2318H12.4993V25.4366ZM12.4993 27.9912H11.3162V26.7177H12.4993V27.9912ZM12.4993 30.4695H11.3162V29.196H12.4993V30.4695ZM12.4993 32.9554H11.3162V31.682H12.4993V32.9554ZM12.4993 35.4338H11.3162V34.2289H12.4993V35.4338ZM12.4993 22.9583H11.3162V21.6848H12.4993V22.9583ZM31.722 52.1033H12.9187C12.08 52.1033 12.08 53.3768 12.9187 53.3768H31.722C32.5532 53.3768 32.5532 52.1033 31.722 52.1033ZM31.722 49.4801H12.9187C12.08 49.4801 12.08 50.7536 12.9187 50.7536H31.722C32.5532 50.7536 32.5532 49.4801 31.722 49.4801ZM9.01722 50.5401C9.43657 50.5401 9.85592 50.9671 9.85592 51.3941C9.85592 51.8898 9.43657 52.3168 9.01722 52.3168C8.53048 52.3168 8.17852 51.8898 8.17852 51.3941C8.17852 50.9671 8.53048 50.5401 9.01722 50.5401ZM9.01722 49.3352C7.83406 49.3352 6.92796 50.2579 6.92796 51.3941C6.92796 52.599 7.83406 53.5217 9.01722 53.5217C10.133 53.5217 11.0391 52.599 11.0391 51.3941C11.0391 50.2579 10.133 49.3352 9.01722 49.3352ZM32.2088 54.7265C32.8378 54.7265 33.3919 54.2309 33.3919 53.5903V49.2666C33.3919 48.626 32.8378 48.1304 32.2088 48.1304H6.37382C5.7448 48.1304 5.25805 48.626 5.25805 49.2666V53.5903C5.25805 54.2309 5.7448 54.7265 6.37382 54.7265H32.2088ZM34.5751 50.8222H38.6114C38.2669 49.8995 38.0572 48.9082 38.0572 47.8406C38.0572 43.372 41.6067 39.7575 45.9949 39.7575C50.3831 39.7575 53.9326 43.372 53.9326 47.8406C53.9326 52.3092 50.3831 55.9237 45.9949 55.9237C43.1418 55.9237 40.6332 54.3605 39.2404 52.0271H34.5751V53.5903C34.5751 54.94 33.5342 56 32.2088 56H6.37382C5.12326 56 4.00749 54.94 4.00749 53.5903V49.2666C4.00749 47.9169 5.12326 46.8569 6.37382 46.8569H11.3162V45.0115H6.37382C5.12326 45.0115 4.00749 43.9516 4.00749 42.6018V38.3467C4.00749 36.997 5.12326 35.8684 6.37382 35.8684H27.8206C27.7532 35.8684 27.6109 35.7998 27.5435 35.7235L23.8517 31.9641C23.6421 31.7506 23.6421 31.3998 23.8517 31.1101L26.2181 27.9912C25.8736 27.2134 25.5216 26.5042 25.312 25.7188L21.4105 25.1545C21.066 25.1545 20.8564 24.8723 20.8564 24.5139V19.2675C20.8564 18.9853 21.066 18.7032 21.4105 18.6269L25.312 18.1313C25.5216 17.3535 25.8661 16.568 26.2181 15.8589L24.6155 13.7313H19.808C19.5309 17.9178 16.0488 21.1739 11.9377 21.1739C7.5495 21.1739 4 17.5594 4 13.0908C4 8.69079 7.5495 5.07626 11.9377 5.07626C16.0488 5.07626 19.5309 8.34001 19.808 12.5188H23.7094C23.6421 12.2367 23.7095 12.0232 23.8517 11.8097L27.5435 8.05024C27.7532 7.83672 28.0976 7.83672 28.3822 8.05024L31.5124 10.4599C32.2088 10.1015 32.9726 9.75075 33.7439 9.53723L34.2306 5.56429C34.2306 5.28215 34.5077 5 34.8597 5H40.0791C40.3561 5 40.6332 5.28215 40.6332 5.56429L41.1874 9.53723C41.9512 9.75075 42.7225 10.1015 43.4189 10.4599L46.549 8.05024C46.7587 7.83672 47.1032 7.83672 47.3129 8.05024L51.0046 11.8097C51.2143 12.0232 51.2817 12.4502 51.0046 12.6637L48.6383 15.8512C49.0577 16.5604 49.3347 17.3382 49.6118 18.1237L53.5133 18.6193C53.7903 18.6879 54 18.9701 54 19.2599V24.5063C54 24.8571 53.7903 25.1468 53.5133 25.1468L49.6118 25.7111C49.3347 26.4889 49.0577 27.1981 48.6383 27.9836L51.0046 31.1024C51.2817 31.3846 51.2143 31.743 51.0046 31.9565L47.3129 35.7159C47.1706 35.9294 46.8261 35.9294 46.6164 35.8608V36.8521H45.3659V35.5787H46.3394L43.4114 33.3062C42.715 33.7333 41.9512 34.0154 41.1799 34.2976L40.6257 38.1942C40.6257 38.545 40.3487 38.7585 40.0716 38.7585H34.8522C34.7848 38.7585 34.6425 38.7585 34.5751 38.7585V42.5866C34.5751 43.9363 33.5342 44.9963 32.2088 44.9963H12.4993V46.8417H32.2088C33.5342 46.8417 34.5751 47.9016 34.5751 49.2514V50.8222ZM49.1325 45.4385L45.4408 49.4115C45.2311 49.625 44.8866 49.6936 44.6021 49.4115L42.6551 47.5661C41.9587 46.9255 41.12 47.9169 41.749 48.4888L44.677 51.2569C44.8866 51.539 45.306 51.539 45.583 51.2569L50.106 46.3612C50.1734 46.2164 50.2483 46.0791 50.2483 45.8656C50.2483 45.5148 49.9712 45.225 49.6193 45.225C49.4096 45.225 49.2673 45.2937 49.1325 45.4385ZM45.0214 48.1304L48.2938 44.6531C48.6383 44.2261 49.0577 44.0126 49.5444 44.0126C50.5853 44.0126 51.424 44.7904 51.424 45.858C51.424 46.3536 51.2817 46.7807 50.9372 47.2077L46.4143 52.1033C45.7178 52.8125 44.5347 52.8811 43.8383 52.172L40.9103 49.4039C40.0042 48.4812 40.2813 47.2763 40.9103 46.712C41.6067 46.0028 42.7899 45.9342 43.4863 46.712L45.0214 48.1304ZM45.3659 38.1332V39.3381H46.6164V38.1332H45.3659Z" fill="#CC1212"/>
</svg>
