<svg width="60" height="60" viewBox="0 0 60 60" fill="none" xmlns="http://www.w3.org/2000/svg">
<path d="M29.5193 45.6758C25.5169 45.6785 21.6564 44.194 18.687 41.5104C15.7176 38.8268 13.8513 35.1357 13.4504 31.1535C13.0494 27.1713 14.1424 23.1821 16.5172 19.9605C18.892 16.7388 22.3792 14.5145 26.3017 13.7193C30.2243 12.9241 34.3024 13.6147 37.7443 15.6572C41.1863 17.6996 43.7466 20.9481 44.9282 24.7721C46.1097 28.596 45.8283 32.7226 44.1385 36.3507C42.4486 39.9788 39.471 42.8496 35.7836 44.4059C33.8019 45.2452 31.6715 45.6771 29.5193 45.6758ZM29.5193 15.0718C26.6602 15.0707 23.865 15.9175 21.4872 17.5053C19.1095 19.093 17.2561 21.3503 16.1614 23.9915C15.0668 26.6328 14.78 29.5394 15.3376 32.3436C15.8951 35.1478 17.2717 37.7237 19.2934 39.7454C21.3151 41.7671 23.891 43.1438 26.6953 43.7013C29.4995 44.2588 32.4061 43.9721 35.0473 42.8774C37.6886 41.7828 39.9459 39.9294 41.5336 37.5516C43.1213 35.1739 43.9682 32.3787 43.9671 29.5196C43.9626 25.6892 42.4389 22.0169 39.7304 19.3084C37.0219 16.5999 33.3497 15.0763 29.5193 15.0718Z" fill="#CC1212"/>
<path d="M34.4042 55.9839H24.6319C24.4054 55.9839 24.1881 55.8939 24.0279 55.7337C23.8677 55.5735 23.7777 55.3562 23.7777 55.1297V51.2116C21.8364 50.7057 19.9725 49.9394 18.2366 48.9337L15.4689 51.7014C15.3895 51.7815 15.295 51.845 15.1909 51.8884C15.0868 51.9317 14.9752 51.9541 14.8624 51.9541C14.7497 51.9541 14.638 51.9317 14.5339 51.8884C14.4298 51.845 14.3353 51.7815 14.2559 51.7014L7.35379 44.7822C7.27373 44.7028 7.21018 44.6083 7.16681 44.5042C7.12344 44.4001 7.10111 44.2884 7.10111 44.1757C7.10111 44.0629 7.12344 43.9513 7.16681 43.8472C7.21018 43.7431 7.27373 43.6486 7.35379 43.5692L10.1215 40.8015C9.11711 39.063 8.35094 37.1973 7.84355 35.2547H3.89133C3.66478 35.2547 3.4475 35.1647 3.28731 35.0045C3.12711 34.8443 3.03711 34.6271 3.03711 34.4005V24.6396C3.03711 24.413 3.12711 24.1957 3.28731 24.0355C3.4475 23.8753 3.66478 23.7853 3.89133 23.7853H7.80938C8.31677 21.8427 9.08294 19.9771 10.0873 18.2386L7.31962 15.4709C7.23956 15.3915 7.17601 15.297 7.13264 15.1929C7.08927 15.0888 7.06694 14.9771 7.06694 14.8644C7.06694 14.7516 7.08927 14.64 7.13264 14.5359C7.17601 14.4318 7.23956 14.3373 7.31962 14.2579L14.2559 7.35574C14.3353 7.27568 14.4298 7.21213 14.5339 7.16876C14.638 7.12539 14.7497 7.10307 14.8624 7.10307C14.9752 7.10307 15.0868 7.12539 15.1909 7.16876C15.295 7.21213 15.3895 7.27568 15.4689 7.35574L18.2366 10.1234C19.9725 9.11773 21.8364 8.35147 23.7777 7.8455V3.89329C23.7777 3.66673 23.8677 3.44946 24.0279 3.28926C24.1881 3.12906 24.4054 3.03906 24.6319 3.03906H34.4042C34.6308 3.03906 34.8481 3.12906 35.0083 3.28926C35.1685 3.44946 35.2585 3.66673 35.2585 3.89329V7.81133C37.1998 8.3173 39.0637 9.08356 40.7995 10.0893L43.5672 7.32158C43.6466 7.24151 43.7411 7.17796 43.8452 7.13459C43.9493 7.09123 44.061 7.0689 44.1737 7.0689C44.2865 7.0689 44.3981 7.09123 44.5022 7.13459C44.6063 7.17796 44.7008 7.24151 44.7802 7.32158L51.6824 14.2579C51.7624 14.3373 51.826 14.4318 51.8693 14.5359C51.9127 14.64 51.935 14.7516 51.935 14.8644C51.935 14.9771 51.9127 15.0888 51.8693 15.1929C51.826 15.297 51.7624 15.3915 51.6824 15.4709L48.9147 18.2386C49.919 19.9771 50.6852 21.8427 51.1926 23.7853H55.1448C55.3714 23.7853 55.5886 23.8753 55.7488 24.0355C55.909 24.1957 55.999 24.413 55.999 24.6396V34.4005C55.999 34.6271 55.909 34.8443 55.7488 35.0045C55.5886 35.1647 55.3714 35.2547 55.1448 35.2547H51.2097C50.7023 37.1973 49.9361 39.063 48.9317 40.8015L51.6994 43.5692C51.7795 43.6486 51.843 43.7431 51.8864 43.8472C51.9298 43.9513 51.9521 44.0629 51.9521 44.1757C51.9521 44.2884 51.9298 44.4001 51.8864 44.5042C51.843 44.6083 51.7795 44.7028 51.6994 44.7822L44.7802 51.6843C44.7008 51.7644 44.6063 51.8279 44.5022 51.8713C44.3981 51.9147 44.2865 51.937 44.1737 51.937C44.061 51.937 43.9493 51.9147 43.8452 51.8713C43.7411 51.8279 43.6466 51.7644 43.5672 51.6843L40.7995 48.9166C39.0637 49.9223 37.1998 50.6886 35.2585 51.1946V55.1468C35.254 55.3703 35.162 55.5833 35.0023 55.7398C34.8426 55.8963 34.6279 55.984 34.4042 55.9839ZM25.4861 54.2755H33.55V50.5396C33.5511 50.3471 33.6169 50.1605 33.7366 50.0098C33.8564 49.859 34.0233 49.7528 34.2106 49.7082C36.4287 49.1973 38.5459 48.3197 40.4749 47.1114C40.6386 47.0094 40.8322 46.9663 41.0237 46.989C41.2152 47.0118 41.3932 47.0991 41.5285 47.2366L44.1709 49.8734L49.8657 44.1785L47.2347 41.5361C47.0972 41.4009 47.0099 41.2229 46.9871 41.0313C46.9643 40.8398 47.0075 40.6463 47.1094 40.4826C48.3153 38.5524 49.1929 36.4356 49.7062 34.2183C49.7509 34.0294 49.8577 33.8611 50.0095 33.7403C50.1614 33.6195 50.3494 33.5531 50.5434 33.552H54.2735V25.4938H50.5434C50.3494 25.4926 50.1614 25.4263 50.0095 25.3055C49.8577 25.1846 49.7509 25.0163 49.7062 24.8275C49.1929 22.6102 48.3153 20.4934 47.1094 18.5632C47.0075 18.3995 46.9643 18.2059 46.9871 18.0144C47.0099 17.8229 47.0972 17.6449 47.2347 17.5096L49.8714 14.8729L44.1766 9.17809L41.5342 11.8034C41.3989 11.9409 41.2209 12.0282 41.0294 12.051C40.8379 12.0738 40.6443 12.0306 40.4806 11.9287C38.5516 10.7204 36.4344 9.84271 34.2163 9.33185C34.029 9.28723 33.8621 9.18103 33.7423 9.03028C33.6226 8.87953 33.5568 8.69294 33.5557 8.50041V4.7646H25.4861V8.50041C25.485 8.69294 25.4193 8.87953 25.2995 9.03028C25.1797 9.18103 25.0128 9.28723 24.8255 9.33185C22.6074 9.84271 20.4902 10.7204 18.5612 11.9287C18.3975 12.0306 18.204 12.0738 18.0124 12.051C17.8209 12.0282 17.6429 11.9409 17.5077 11.8034L14.8653 9.1667L9.17044 14.8615L11.8071 17.4982C11.9446 17.6335 12.032 17.8115 12.0548 18.003C12.0775 18.1945 12.0344 18.3881 11.9324 18.5518C10.7265 20.482 9.84898 22.5988 9.33559 24.8161C9.29092 25.0049 9.1841 25.1732 9.03229 25.2941C8.88048 25.4149 8.69248 25.4812 8.49845 25.4824H4.76264V33.5463H8.49276C8.68678 33.5474 8.87479 33.6138 9.0266 33.7346C9.17841 33.8554 9.28522 34.0238 9.3299 34.2126C9.84329 36.4299 10.7208 38.5467 11.9267 40.4769C12.0287 40.6406 12.0718 40.8341 12.0491 41.0256C12.0263 41.2172 11.939 41.3952 11.8015 41.5304L9.16475 44.1671L14.8596 49.862L17.502 47.2253C17.6372 47.0878 17.8152 47.0004 18.0068 46.9776C18.1983 46.9549 18.3918 46.998 18.5555 47.1C20.4845 48.3083 22.6017 49.186 24.8198 49.6968C25.0071 49.7414 25.174 49.8476 25.2938 49.9984C25.4136 50.1491 25.4793 50.3357 25.4804 50.5283L25.4861 54.2755Z" fill="#CC1212"/>
<path d="M23.2813 34.9987C22.8139 34.9987 22.357 34.8601 21.9683 34.6004C21.5797 34.3407 21.2767 33.9716 21.0979 33.5397C20.919 33.1079 20.8722 32.6327 20.9634 32.1743C21.0546 31.7158 21.2797 31.2947 21.6102 30.9642C21.9407 30.6337 22.3618 30.4086 22.8203 30.3174C23.2787 30.2262 23.7539 30.273 24.1857 30.4519C24.6176 30.6307 24.9867 30.9337 25.2464 31.3223C25.5061 31.711 25.6447 32.1679 25.6447 32.6353C25.6447 33.2621 25.3957 33.8633 24.9525 34.3065C24.5093 34.7497 23.9081 34.9987 23.2813 34.9987ZM23.2813 31.9861C23.1516 31.9861 23.0247 32.0247 22.9169 32.0969C22.8091 32.1691 22.7251 32.2717 22.6757 32.3917C22.6263 32.5117 22.6137 32.6437 22.6395 32.7709C22.6652 32.8981 22.7281 33.0148 22.8203 33.1061C22.9124 33.1975 23.0297 33.2594 23.1571 33.284C23.2845 33.3087 23.4164 33.2949 23.5359 33.2444C23.6555 33.194 23.7574 33.1092 23.8286 33.0007C23.8999 32.8923 23.9374 32.7651 23.9362 32.6353C23.9362 32.5496 23.9193 32.4647 23.8863 32.3856C23.8533 32.3064 23.805 32.2346 23.7441 32.1742C23.6832 32.1139 23.6109 32.0662 23.5315 32.0339C23.4521 32.0016 23.3671 31.9854 23.2813 31.9861Z" fill="#CC1212"/>
<path d="M35.7851 28.7623C35.3171 28.7635 34.8594 28.6257 34.4699 28.3664C34.0804 28.1072 33.7766 27.7381 33.597 27.306C33.4174 26.874 33.3701 26.3983 33.4612 25.9393C33.5522 25.4804 33.7774 25.0587 34.1082 24.7279C34.4391 24.397 34.8607 24.1718 35.3197 24.0808C35.7787 23.9898 36.2543 24.0371 36.6864 24.2166C37.1185 24.3962 37.4875 24.7 37.7468 25.0895C38.0061 25.4791 38.1438 25.9368 38.1427 26.4047C38.1412 27.0295 37.8923 27.6283 37.4505 28.0701C37.0087 28.512 36.4099 28.7608 35.7851 28.7623ZM35.7851 25.7498C35.6553 25.7487 35.5281 25.7861 35.4197 25.8574C35.3112 25.9286 35.2264 26.0305 35.176 26.1501C35.1255 26.2697 35.1117 26.4015 35.1364 26.5289C35.161 26.6563 35.2229 26.7736 35.3143 26.8657C35.4056 26.9579 35.5223 27.0208 35.6495 27.0466C35.7767 27.0723 35.9087 27.0597 36.0287 27.0103C36.1487 26.9609 36.2513 26.8769 36.3235 26.7691C36.3957 26.6613 36.4343 26.5345 36.4343 26.4047C36.4343 26.232 36.3661 26.0663 36.2445 25.9436C36.1229 25.8209 35.9578 25.7513 35.7851 25.7498Z" fill="#CC1212"/>
<path d="M29.5198 31.8774C29.0535 31.8774 28.5976 31.7392 28.2099 31.4801C27.8222 31.221 27.52 30.8528 27.3416 30.422C27.1631 29.9912 27.1164 29.5172 27.2074 29.0598C27.2984 28.6025 27.5229 28.1824 27.8527 27.8527C28.1824 27.5229 28.6025 27.2984 29.0598 27.2074C29.5172 27.1164 29.9912 27.1631 30.422 27.3416C30.8528 27.52 31.221 27.8222 31.4801 28.2099C31.7392 28.5976 31.8774 29.0535 31.8774 29.5198C31.8774 30.1451 31.629 30.7447 31.1869 31.1869C30.7447 31.629 30.1451 31.8774 29.5198 31.8774ZM29.5198 28.8706C29.3914 28.8706 29.2659 28.9086 29.1591 28.98C29.0523 29.0513 28.9691 29.1527 28.92 29.2713C28.8708 29.39 28.858 29.5205 28.883 29.6464C28.9081 29.7724 28.9699 29.888 29.0607 29.9788C29.1515 30.0696 29.2672 30.1315 29.3931 30.1565C29.519 30.1816 29.6496 30.1687 29.7682 30.1196C29.8868 30.0704 29.9882 29.9872 30.0596 29.8805C30.1309 29.7737 30.169 29.6482 30.169 29.5198C30.169 29.3476 30.1006 29.1825 29.9788 29.0607C29.8571 28.939 29.692 28.8706 29.5198 28.8706Z" fill="#CC1212"/>
<path d="M29.5183 28.8711C29.2917 28.8711 29.0745 28.7811 28.9143 28.6209C28.7541 28.4607 28.6641 28.2434 28.6641 28.0169V20.8528C28.6641 20.6262 28.7541 20.4089 28.9143 20.2487C29.0745 20.0885 29.2917 19.9985 29.5183 19.9985C29.7448 19.9985 29.9621 20.0885 30.1223 20.2487C30.2825 20.4089 30.3725 20.6262 30.3725 20.8528V28.0169C30.3725 28.2434 30.2825 28.4607 30.1223 28.6209C29.9621 28.7811 29.7448 28.8711 29.5183 28.8711Z" fill="#CC1212"/>
<path d="M35.78 25.7503C35.5535 25.7503 35.3362 25.6603 35.176 25.5001C35.0158 25.3399 34.9258 25.1226 34.9258 24.8961V20.8528C34.9258 20.6262 35.0158 20.4089 35.176 20.2487C35.3362 20.0885 35.5535 19.9985 35.78 19.9985C36.0066 19.9985 36.2238 20.0885 36.384 20.2487C36.5442 20.4089 36.6342 20.6262 36.6342 20.8528V24.8961C36.6342 25.1226 36.5442 25.3399 36.384 25.5001C36.2238 25.6603 36.0066 25.7503 35.78 25.7503Z" fill="#CC1212"/>
<path d="M23.2839 39.0418C23.0574 39.0418 22.8401 38.9518 22.6799 38.7916C22.5197 38.6314 22.4297 38.4141 22.4297 38.1876V34.1443C22.4297 33.9177 22.5197 33.7004 22.6799 33.5402C22.8401 33.38 23.0574 33.29 23.2839 33.29C23.5105 33.29 23.7277 33.38 23.8879 33.5402C24.0481 33.7004 24.1381 33.9177 24.1381 34.1443V38.1876C24.1381 38.4141 24.0481 38.6314 23.8879 38.7916C23.7277 38.9518 23.5105 39.0418 23.2839 39.0418Z" fill="#CC1212"/>
<path d="M29.5183 39.0425C29.2917 39.0425 29.0745 38.9525 28.9143 38.7923C28.7541 38.6321 28.6641 38.4148 28.6641 38.1882V31.0241C28.6641 30.7976 28.7541 30.5803 28.9143 30.4201C29.0745 30.2599 29.2917 30.1699 29.5183 30.1699C29.7448 30.1699 29.9621 30.2599 30.1223 30.4201C30.2825 30.5803 30.3725 30.7976 30.3725 31.0241V38.1882C30.3725 38.4148 30.2825 38.6321 30.1223 38.7923C29.9621 38.9525 29.7448 39.0425 29.5183 39.0425Z" fill="#CC1212"/>
<path d="M35.78 39.0417C35.5535 39.0417 35.3362 38.9517 35.176 38.7915C35.0158 38.6313 34.9258 38.414 34.9258 38.1874V27.9367C34.9258 27.7102 35.0158 27.4929 35.176 27.3327C35.3362 27.1725 35.5535 27.0825 35.78 27.0825C36.0066 27.0825 36.2238 27.1725 36.384 27.3327C36.5442 27.4929 36.6342 27.7102 36.6342 27.9367V38.1874C36.6342 38.414 36.5442 38.6313 36.384 38.7915C36.2238 38.9517 36.0066 39.0417 35.78 39.0417Z" fill="#CC1212"/>
<path d="M23.2839 31.986C23.0574 31.986 22.8401 31.896 22.6799 31.7358C22.5197 31.5756 22.4297 31.3583 22.4297 31.1318V20.8811C22.4297 20.6545 22.5197 20.4372 22.6799 20.2771C22.8401 20.1169 23.0574 20.0269 23.2839 20.0269C23.5105 20.0269 23.7277 20.1169 23.8879 20.2771C24.0481 20.4372 24.1381 20.6545 24.1381 20.8811V31.1318C24.1381 31.3583 24.0481 31.5756 23.8879 31.7358C23.7277 31.896 23.5105 31.986 23.2839 31.986Z" fill="#CC1212"/>
</svg>
