<svg width="50" height="50" viewBox="0 0 50 50" fill="none" xmlns="http://www.w3.org/2000/svg">
<path d="M44.5697 8H5.43027C4.78592 8.00068 4.16815 8.27022 3.71252 8.74946C3.2569 9.2287 3.00065 9.8785 3 10.5562V39.4438C3.00065 40.1215 3.2569 40.7713 3.71252 41.2505C4.16815 41.7298 4.78592 41.9993 5.43027 42H44.5697C45.2141 41.9993 45.8319 41.7298 46.2875 41.2505C46.7431 40.7713 46.9994 40.1215 47 39.4438V10.5562C46.9994 9.8785 46.7431 9.2287 46.2875 8.74946C45.8319 8.27022 45.2141 8.00068 44.5697 8ZM5.43027 8.92562H44.5697C44.9808 8.92603 45.3749 9.09796 45.6655 9.40367C45.9562 9.70938 46.1196 10.1239 46.12 10.5562V12.8847H3.88V10.5562C3.88039 10.1239 4.04384 9.70938 4.33449 9.40367C4.62514 9.09796 5.01923 8.92603 5.43027 8.92562ZM44.5697 41.0744H5.43027C5.01923 41.074 4.62514 40.902 4.33449 40.5963C4.04384 40.2906 3.88039 39.8761 3.88 39.4438V13.8098H46.12V39.4438C46.1196 39.8761 45.9562 40.2906 45.6655 40.5963C45.3749 40.902 44.9808 41.074 44.5697 41.0744ZM8.73418 11.9611C8.91306 11.9611 9.08793 11.9053 9.23666 11.8008C9.3854 11.6963 9.50132 11.5477 9.56978 11.3739C9.63823 11.2 9.65614 11.0087 9.62124 10.8242C9.58635 10.6397 9.50021 10.4702 9.37372 10.3371C9.24723 10.2041 9.08607 10.1135 8.91063 10.0768C8.73518 10.04 8.55333 10.0589 8.38806 10.1309C8.2228 10.2029 8.08154 10.3248 7.98216 10.4813C7.88278 10.6377 7.82973 10.8216 7.82973 11.0098C7.82986 11.1349 7.85341 11.2587 7.89903 11.3742C7.94465 11.4897 8.01145 11.5946 8.09562 11.6829C8.17978 11.7713 8.27967 11.8413 8.38957 11.889C8.49947 11.9368 8.61723 11.9613 8.73613 11.9611H8.73418ZM8.73418 10.9841C8.73901 10.9841 8.74374 10.9856 8.74776 10.9884C8.75178 10.9912 8.75491 10.9953 8.75676 11C8.75861 11.0047 8.7591 11.0098 8.75815 11.0148C8.75721 11.0198 8.75488 11.0244 8.75146 11.028C8.74804 11.0316 8.74369 11.034 8.73895 11.035C8.7342 11.036 8.72929 11.0355 8.72482 11.0336C8.72036 11.0316 8.71654 11.0283 8.71385 11.0241C8.71117 11.0199 8.70973 11.0149 8.70973 11.0098C8.70986 11.0063 8.71064 11.0028 8.71204 10.9996C8.71343 10.9964 8.71541 10.9936 8.71786 10.9912C8.72032 10.9888 8.72319 10.9869 8.72633 10.9857C8.72946 10.9845 8.73279 10.984 8.73613 10.9841H8.73418ZM11.8518 11.9611C12.0307 11.9611 12.2056 11.9053 12.3543 11.8008C12.503 11.6963 12.619 11.5477 12.6874 11.3739C12.7559 11.2 12.7738 11.0087 12.7389 10.8242C12.704 10.6397 12.6179 10.4702 12.4914 10.3371C12.3649 10.2041 12.2037 10.1135 12.0283 10.0768C11.8528 10.04 11.671 10.0589 11.5057 10.1309C11.3404 10.2029 11.1992 10.3248 11.0998 10.4813C11.0004 10.6377 10.9474 10.8216 10.9474 11.0098C10.9475 11.1349 10.9711 11.2587 11.0167 11.3742C11.0623 11.4897 11.1291 11.5946 11.2133 11.6829C11.2974 11.7713 11.3973 11.8413 11.5072 11.889C11.6171 11.9368 11.7349 11.9613 11.8538 11.9611H11.8518ZM11.8518 10.9841C11.8567 10.9841 11.8614 10.9856 11.8654 10.9884C11.8694 10.9912 11.8726 10.9953 11.8744 11C11.8763 11.0047 11.8767 11.0098 11.8758 11.0148C11.8749 11.0198 11.8725 11.0244 11.8691 11.028C11.8657 11.0316 11.8613 11.034 11.8566 11.035C11.8518 11.036 11.8469 11.0355 11.8425 11.0336C11.838 11.0316 11.8342 11.0283 11.8315 11.0241C11.8288 11.0199 11.8274 11.0149 11.8274 11.0098C11.8275 11.0063 11.8283 11.0028 11.8297 10.9996C11.8311 10.9964 11.8331 10.9936 11.8355 10.9912C11.838 10.9888 11.8408 10.9869 11.844 10.9857C11.8471 10.9845 11.8504 10.984 11.8538 10.9841H11.8518ZM14.97 11.9611C15.1488 11.9611 15.3237 11.9053 15.4724 11.8008C15.6212 11.6963 15.7371 11.5477 15.8056 11.3739C15.874 11.2 15.8919 11.0087 15.857 10.8242C15.8221 10.6397 15.736 10.4702 15.6095 10.3371C15.483 10.2041 15.3218 10.1135 15.1464 10.0768C14.971 10.04 14.7891 10.0589 14.6238 10.1309C14.4586 10.2029 14.3173 10.3248 14.2179 10.4813C14.1186 10.6377 14.0655 10.8216 14.0655 11.0098C14.0656 11.1349 14.0892 11.2587 14.1348 11.3742C14.1804 11.4897 14.2472 11.5946 14.3314 11.6829C14.4156 11.7713 14.5154 11.8413 14.6253 11.889C14.7352 11.9368 14.853 11.9613 14.9719 11.9611H14.97ZM14.97 10.9841C14.9748 10.9841 14.9795 10.9856 14.9835 10.9884C14.9876 10.9912 14.9907 10.9953 14.9925 11C14.9944 11.0047 14.9949 11.0098 14.9939 11.0148C14.993 11.0198 14.9907 11.0244 14.9872 11.028C14.9838 11.0316 14.9795 11.034 14.9747 11.035C14.97 11.036 14.9651 11.0355 14.9606 11.0336C14.9561 11.0316 14.9523 11.0283 14.9496 11.0241C14.9469 11.0199 14.9455 11.0149 14.9455 11.0098C14.9456 11.0063 14.9464 11.0028 14.9478 10.9996C14.9492 10.9964 14.9512 10.9936 14.9536 10.9912C14.9561 10.9888 14.959 10.9869 14.9621 10.9857C14.9652 10.9845 14.9686 10.984 14.9719 10.9841H14.97ZM12.8267 30.15C13.7476 30.1758 14.6633 29.9971 15.5141 29.6256C16.3649 29.2541 17.1317 28.6981 17.7644 27.9939L17.7723 27.9856C17.782 27.9748 17.7889 27.963 17.7977 27.9512C17.8065 27.9394 17.8158 27.9286 17.8236 27.9162C17.8313 27.9027 17.8383 27.8888 17.8446 27.8746C17.851 27.8617 17.8578 27.8488 17.8632 27.835C17.868 27.8204 17.8721 27.8057 17.8754 27.7907C17.8793 27.7769 17.8837 27.763 17.8862 27.7486C17.8886 27.7342 17.8891 27.7187 17.8901 27.7038C17.8911 27.6889 17.893 27.675 17.893 27.6601C17.893 27.6452 17.8906 27.6303 17.8891 27.6159C17.8876 27.6015 17.8891 27.5866 17.8842 27.5722C17.8793 27.5578 17.8764 27.5434 17.872 27.5285C17.8676 27.5136 17.8647 27.5002 17.8593 27.4868C17.853 27.4724 17.846 27.4583 17.8383 27.4447C17.8319 27.4323 17.826 27.4195 17.8182 27.4071C17.8088 27.3935 17.7987 27.3805 17.7879 27.368C17.7801 27.3583 17.7737 27.348 17.7654 27.3392L13.2676 22.6083V15.9166C13.2676 15.7939 13.2213 15.6761 13.1388 15.5893C13.0563 15.5026 12.9443 15.4538 12.8276 15.4538C11.9053 15.4457 10.9906 15.6298 10.1362 15.9954C9.28189 16.361 8.50483 16.901 7.8499 17.5841C7.19497 18.2673 6.67513 19.0801 6.32038 19.9756C5.96563 20.8712 5.78298 21.8317 5.78298 22.8019C5.78298 23.7721 5.96563 24.7327 6.32038 25.6282C6.67513 26.5238 7.19497 27.3365 7.8499 28.0197C8.50483 28.7028 9.28189 29.2428 10.1362 29.6084C10.9906 29.9741 11.9053 30.1581 12.8276 30.15H12.8267ZM12.3867 16.3979V22.8022C12.3868 22.9249 12.4332 23.0425 12.5157 23.1292L16.8253 27.6622C15.7335 28.7052 14.3011 29.2648 12.8267 29.2244C11.2462 29.2235 9.72764 28.5779 8.59042 27.4234C7.4532 26.2689 6.78592 24.6956 6.72893 23.0342C6.67194 21.3729 7.22968 19.7531 8.28484 18.5154C9.34 17.2777 10.8104 16.5187 12.3867 16.3979ZM14.9186 15.5993C14.8531 15.5796 14.7842 15.5761 14.7172 15.5892C14.6502 15.6022 14.587 15.6315 14.5326 15.6746C14.4782 15.7177 14.434 15.7735 14.4036 15.8377C14.3732 15.9018 14.3574 15.9725 14.3574 16.0441V21.9578C14.3575 22.0805 14.4039 22.1981 14.4864 22.2849L18.4587 26.463C18.5411 26.5498 18.6529 26.5986 18.7696 26.5987C18.79 26.5987 18.8105 26.5972 18.8307 26.5941C18.8982 26.5842 18.9625 26.558 19.0187 26.5174C19.0748 26.4769 19.1213 26.4233 19.1544 26.3607C19.6711 25.3817 19.9711 24.2927 20.032 23.1748C20.0928 22.057 19.9129 20.9391 19.5057 19.9045C19.0985 18.8699 18.4745 17.9454 17.6803 17.1999C16.886 16.4544 15.942 15.9076 14.9186 15.5993ZM18.6479 25.3538L15.2374 21.7665V16.6885C16.0118 17.0089 16.717 17.4903 17.3106 18.1038C17.9043 18.7173 18.3743 19.4503 18.6926 20.2591C19.011 21.0679 19.1711 21.9359 19.1634 22.8112C19.1557 23.6866 18.9804 24.5513 18.6479 25.3538ZM9.54475 32.9706C9.54475 33.0933 9.4984 33.2111 9.41588 33.2979C9.33337 33.3846 9.22145 33.4334 9.10476 33.4334H7.57942C7.46273 33.4334 7.35081 33.3846 7.2683 33.2979C7.18578 33.2111 7.13942 33.0933 7.13942 32.9706C7.13942 32.8479 7.18578 32.7301 7.2683 32.6433C7.35081 32.5565 7.46273 32.5078 7.57942 32.5078H9.10525C9.22186 32.5079 9.33365 32.5567 9.41606 32.6435C9.49847 32.7303 9.54475 32.8479 9.54475 32.9706ZM19.5122 32.9706C19.5122 33.0933 19.4659 33.2111 19.3833 33.2979C19.3008 33.3846 19.1889 33.4334 19.0722 33.4334H11.0882C10.9715 33.4334 10.8596 33.3846 10.7771 33.2979C10.6945 33.2111 10.6482 33.0933 10.6482 32.9706C10.6482 32.8479 10.6945 32.7301 10.7771 32.6433C10.8596 32.5565 10.9715 32.5078 11.0882 32.5078H19.0722C19.1889 32.5078 19.3008 32.5565 19.3833 32.6433C19.4659 32.7301 19.5122 32.8479 19.5122 32.9706ZM9.54475 35.9665C9.54475 36.0893 9.4984 36.207 9.41588 36.2938C9.33337 36.3806 9.22145 36.4293 9.10476 36.4293H7.57942C7.46273 36.4293 7.35081 36.3806 7.2683 36.2938C7.18578 36.207 7.13942 36.0893 7.13942 35.9665C7.13942 35.8438 7.18578 35.7261 7.2683 35.6393C7.35081 35.5525 7.46273 35.5037 7.57942 35.5037H9.10525C9.22186 35.5038 9.33365 35.5527 9.41606 35.6394C9.49847 35.7262 9.54475 35.8439 9.54475 35.9665ZM19.5122 35.9665C19.5122 36.0893 19.4659 36.207 19.3833 36.2938C19.3008 36.3806 19.1889 36.4293 19.0722 36.4293H11.0882C10.9715 36.4293 10.8596 36.3806 10.7771 36.2938C10.6945 36.207 10.6482 36.0893 10.6482 35.9665C10.6482 35.8438 10.6945 35.7261 10.7771 35.6393C10.8596 35.5525 10.9715 35.5037 11.0882 35.5037H19.0722C19.1889 35.5037 19.3008 35.5525 19.3833 35.6393C19.4659 35.7261 19.5122 35.8438 19.5122 35.9665ZM9.54475 38.9629C9.54475 39.0857 9.4984 39.2034 9.41588 39.2902C9.33337 39.377 9.22145 39.4258 9.10476 39.4258H7.57942C7.46273 39.4258 7.35081 39.377 7.2683 39.2902C7.18578 39.2034 7.13942 39.0857 7.13942 38.9629C7.13942 38.8402 7.18578 38.7225 7.2683 38.6357C7.35081 38.5489 7.46273 38.5001 7.57942 38.5001H9.10525C9.22186 38.5003 9.33365 38.5491 9.41606 38.6359C9.49847 38.7227 9.54475 38.8403 9.54475 38.9629ZM19.5122 38.9629C19.5122 39.0857 19.4659 39.2034 19.3833 39.2902C19.3008 39.377 19.1889 39.4258 19.0722 39.4258H11.0882C10.9715 39.4258 10.8596 39.377 10.7771 39.2902C10.6945 39.2034 10.6482 39.0857 10.6482 38.9629C10.6482 38.8402 10.6945 38.7225 10.7771 38.6357C10.8596 38.5489 10.9715 38.5001 11.0882 38.5001H19.0722C19.1889 38.5001 19.3008 38.5489 19.3833 38.6357C19.4659 38.7225 19.5122 38.8402 19.5122 38.9629ZM22.1087 26.4054C22.0622 26.2928 22.0602 26.1654 22.103 26.0512C22.1458 25.9371 22.23 25.8454 22.337 25.7965L41.2873 17.1415L39.7586 16.7635C39.7016 16.7504 39.6476 16.7255 39.5999 16.6902C39.5522 16.6549 39.5115 16.61 39.4804 16.5581C39.4494 16.5062 39.4284 16.4483 39.4188 16.3877C39.4092 16.3272 39.4111 16.2653 39.4244 16.2055C39.4378 16.1458 39.4623 16.0894 39.4966 16.0397C39.5308 15.9901 39.5741 15.948 39.624 15.9161C39.6738 15.8842 39.7292 15.8631 39.7869 15.8539C39.8446 15.8447 39.9034 15.8477 39.96 15.8626L42.7794 16.5604C42.7982 16.5651 42.8167 16.5712 42.8347 16.5784L42.8488 16.5846C42.8714 16.5943 42.8932 16.606 42.9139 16.6196L42.9202 16.6242C42.9398 16.6377 42.9582 16.6528 42.9755 16.6694L42.9852 16.6787C43.0031 16.6968 43.0194 16.7164 43.0341 16.7373L43.0429 16.7502C43.0546 16.7677 43.065 16.7861 43.0742 16.8052L43.0806 16.8201L43.0835 16.8258V16.8325C43.0935 16.8576 43.1013 16.8835 43.107 16.9101V16.9235C43.1119 16.9497 43.1147 16.9764 43.1153 17.0032C43.1153 17.0057 43.1153 17.0088 43.1153 17.0114C43.1151 17.0367 43.113 17.062 43.1089 17.087V17.0973C43.1041 17.1225 43.0972 17.1473 43.0884 17.1713L43.083 17.1857L43.0781 17.1991L41.917 19.9204C41.8682 20.0306 41.7801 20.1162 41.6717 20.1586C41.5634 20.201 41.4435 20.1969 41.3381 20.1471C41.2326 20.0973 41.15 20.0059 41.1081 19.8925C41.0662 19.7792 41.0684 19.6531 41.1143 19.5414L41.8104 17.9098L22.6871 26.6455C22.58 26.6944 22.4589 26.6966 22.3504 26.6516C22.2418 26.6065 22.1552 26.518 22.1087 26.4054ZM44.8186 35.5268H43.5167V22.1717C43.5167 22.049 43.4703 21.9313 43.3878 21.8445C43.3053 21.7577 43.1934 21.7089 43.0767 21.7089H39.3611C39.2444 21.7089 39.1325 21.7577 39.05 21.8445C38.9675 21.9313 38.9211 22.049 38.9211 22.1717V35.5268H37.9433V24.965C37.9433 24.8423 37.897 24.7246 37.8145 24.6378C37.7319 24.551 37.62 24.5022 37.5033 24.5022H33.7878C33.6711 24.5022 33.5592 24.551 33.4766 24.6378C33.3941 24.7246 33.3478 24.8423 33.3478 24.965V35.5268H32.37V26.3607C32.37 26.2379 32.3236 26.1202 32.2411 26.0334C32.1586 25.9466 32.0467 25.8979 31.93 25.8979H28.2144C28.0977 25.8979 27.9858 25.9466 27.9033 26.0334C27.8208 26.1202 27.7744 26.2379 27.7744 26.3607V35.5268H26.7967V28.8727C26.7967 28.7499 26.7503 28.6322 26.6678 28.5454C26.5853 28.4586 26.4734 28.4099 26.3567 28.4099H22.6411C22.5244 28.4099 22.4125 28.4586 22.33 28.5454C22.2475 28.6322 22.2011 28.7499 22.2011 28.8727V35.5268H20.9031C20.7864 35.5268 20.6745 35.5756 20.592 35.6624C20.5095 35.7492 20.4631 35.8669 20.4631 35.9897C20.4631 36.1124 20.5095 36.2301 20.592 36.3169C20.6745 36.4037 20.7864 36.4525 20.9031 36.4525H44.8186C44.9353 36.4525 45.0472 36.4037 45.1297 36.3169C45.2122 36.2301 45.2586 36.1124 45.2586 35.9897C45.2586 35.8669 45.2122 35.7492 45.1297 35.6624C45.0472 35.5756 44.9353 35.5268 44.8186 35.5268ZM23.085 35.5268V29.3355H25.9206V35.5268H23.085ZM28.6584 35.5268V26.8235H31.4939V35.5268H28.6584ZM34.2317 35.5268V25.4278H37.0672V35.5268H34.2317ZM39.805 35.5268V22.6345H42.6406V35.5268H39.805ZM45.2615 38.5366C45.2615 38.5974 45.2501 38.6576 45.228 38.7138C45.2059 38.7699 45.1735 38.8209 45.1326 38.8639C45.0918 38.9069 45.0433 38.941 44.9899 38.9642C44.9365 38.9875 44.8793 38.9995 44.8215 38.9995H20.9031C20.7864 38.9995 20.6745 38.9507 20.592 38.8639C20.5095 38.7771 20.4631 38.6594 20.4631 38.5366C20.4631 38.4139 20.5095 38.2962 20.592 38.2094C20.6745 38.1226 20.7864 38.0738 20.9031 38.0738H44.8186C44.9353 38.0738 45.0472 38.1226 45.1297 38.2094C45.2122 38.2962 45.2586 38.4139 45.2586 38.5366H45.2615Z" fill="black"/>
</svg>
