<svg width="50" height="50" viewBox="0 0 50 50" fill="none" xmlns="http://www.w3.org/2000/svg">
<path d="M43 13.8C43 9.49883 39.4111 6 35 6C33.8669 6 32.79 6.23399 31.8123 6.65H9C7.89714 6.65 7 7.52471 7 8.6V39.8C7 40.1593 7.2985 40.45 7.66667 40.45H10.3333V44.35C10.3333 44.6128 10.4958 44.8502 10.7448 44.9505C10.8275 44.9841 10.9141 45 11 45C11.1735 45 11.3438 44.934 11.4714 44.8096L13 43.3191L14.5286 44.8096C14.7891 45.0635 15.2109 45.0635 15.4714 44.8096L17 43.3191L18.5286 44.8096C18.7891 45.0635 19.2109 45.0635 19.4714 44.8096L21 43.3191L22.5286 44.8096C22.7891 45.0635 23.2109 45.0635 23.4714 44.8096L25 43.3191L26.5286 44.8096C26.7891 45.0635 27.2109 45.0635 27.4714 44.8096L29 43.3191L30.5286 44.8096C30.7891 45.0635 31.2109 45.0635 31.4714 44.8096L33 43.3191L34.5286 44.8096C34.7891 45.0635 35.2109 45.0635 35.4714 44.8096C35.6016 44.6826 35.6667 44.5163 35.6667 44.35V21.5671C39.7663 21.235 43 17.8817 43 13.8ZM10.3333 11.85V39.15H8.33333V8.6C8.33333 8.24136 8.63249 7.95 9 7.95H29.7261C29.0758 8.50796 28.5199 9.1653 28.0824 9.9H12.3333C11.2305 9.9 10.3333 10.7747 10.3333 11.85ZM32.5286 41.9404L31 43.4309L29.4714 41.9404C29.2109 41.6865 28.7891 41.6865 28.5286 41.9404L27 43.4309L25.4714 41.9404C25.2109 41.6865 24.7891 41.6865 24.5286 41.9404L23 43.4309L21.4714 41.9404C21.2109 41.6865 20.7891 41.6865 20.5286 41.9404L19 43.4309L17.4714 41.9404C17.2109 41.6865 16.7891 41.6865 16.5286 41.9404L15 43.4309L13.4714 41.9404C13.2109 41.6865 12.7891 41.6865 12.5286 41.9404L11.6667 42.7809V11.85C11.6667 11.4914 11.9658 11.2 12.3333 11.2H27.4667C27.17 12.0147 27 12.8873 27 13.8C27 17.8817 30.2337 21.235 34.3333 21.5671V42.7809L33.4714 41.9404C33.2109 41.6865 32.7891 41.6865 32.5286 41.9404ZM35 20.3C31.3239 20.3 28.3333 17.3839 28.3333 13.8C28.3333 10.2161 31.3239 7.3 35 7.3C38.6761 7.3 41.6667 10.2161 41.6667 13.8C41.6667 17.3839 38.6761 20.3 35 20.3ZM36.3333 11.85H37.6667C37.6667 10.6418 36.8135 9.63296 35.6667 9.34232V8.6H34.3333V9.34232C33.1865 9.63296 32.3333 10.6418 32.3333 11.85C32.3333 13.0582 33.1865 14.067 34.3333 14.3577V16.8692C33.9367 16.6436 33.6667 16.2289 33.6667 15.75H32.3333C32.3333 16.9582 33.1865 17.967 34.3333 18.2577V19H35.6667V18.2577C36.8135 17.967 37.6667 16.9582 37.6667 15.75C37.6667 14.5418 36.8135 13.533 35.6667 13.2423V10.7308C36.0633 10.9564 36.3333 11.3711 36.3333 11.85ZM33.6667 11.85C33.6667 11.3711 33.9367 10.9564 34.3333 10.7308V12.9692C33.9367 12.7436 33.6667 12.3289 33.6667 11.85ZM36.3333 15.75C36.3333 16.2289 36.0633 16.6436 35.6667 16.8692V14.6308C36.0633 14.8564 36.3333 15.2711 36.3333 15.75ZM31.6667 22.9C31.6667 23.2593 31.3682 23.55 31 23.55H15C14.6318 23.55 14.3333 23.2593 14.3333 22.9C14.3333 22.5407 14.6318 22.25 15 22.25H31C31.3682 22.25 31.6667 22.5407 31.6667 22.9ZM31.6667 30.05C31.6667 30.4093 31.3682 30.7 31 30.7H15C14.6318 30.7 14.3333 30.4093 14.3333 30.05C14.3333 29.6907 14.6318 29.4 15 29.4H31C31.3682 29.4 31.6667 29.6907 31.6667 30.05ZM31.6667 36.55C31.6667 36.9093 31.3682 37.2 31 37.2H15C14.6318 37.2 14.3333 36.9093 14.3333 36.55C14.3333 36.1907 14.6318 35.9 15 35.9H31C31.3682 35.9 31.6667 36.1907 31.6667 36.55ZM14.3333 17.05C13.9652 17.05 13.6667 16.7593 13.6667 16.4C13.6667 16.0407 13.9652 15.75 14.3333 15.75H24.3333C24.7015 15.75 25 16.0407 25 16.4C25 16.7593 24.7015 17.05 24.3333 17.05H14.3333Z" fill="black"/>
</svg>
