<svg width="40" height="41" viewBox="0 0 40 41" fill="none" xmlns="http://www.w3.org/2000/svg">
<g clip-path="url(#clip0_8046_2545)">
<path d="M19.9997 30.8389C23.13 30.8389 25.6771 28.2918 25.6771 25.1614V21.0324C25.6771 20.4631 25.2141 20.0001 24.6448 20.0001C24.267 20.0001 23.9176 20.1096 23.6126 20.2871V18.9679C23.6126 18.1142 22.9179 17.4195 22.0642 17.4195C21.8825 17.4195 21.7101 17.4567 21.5481 17.5145V16.9034C21.5481 16.0497 20.8534 15.355 19.9997 15.355C19.146 15.355 18.4513 16.0497 18.4513 16.9034V17.5145C18.2892 17.4567 18.1168 17.4195 17.9352 17.4195C17.2214 17.4195 16.6252 17.9072 16.4467 18.5653C16.2681 18.4936 16.0745 18.4518 15.8707 18.4518C15.017 18.4518 14.3223 19.1465 14.3223 20.0001V25.1614C14.3223 28.2918 16.8694 30.8389 19.9997 30.8389ZM22.0642 18.4518C22.3491 18.4518 22.5803 18.6835 22.5803 18.9679V22.0647V23.3994L22.3119 23.6678C22.0854 23.469 21.8278 23.3209 21.5481 23.2259V18.9679C21.5481 18.6835 21.7793 18.4518 22.0642 18.4518ZM19.4836 16.9034C19.4836 16.619 19.7148 16.3872 19.9997 16.3872C20.2846 16.3872 20.5158 16.619 20.5158 16.9034V18.9679V23.0969H19.4836V18.9679V16.9034ZM17.419 18.9679C17.419 18.6835 17.6503 18.4518 17.9352 18.4518C18.2201 18.4518 18.4513 18.6835 18.4513 18.9679V23.0969H17.419V20.0001V18.9679ZM15.3545 20.0001C15.3545 19.7158 15.5857 19.484 15.8707 19.484C16.1556 19.484 16.3868 19.7158 16.3868 20.0001V23.2259C16.0601 23.3364 15.7571 23.5129 15.5057 23.7638L16.2356 24.4941C16.4709 24.2587 16.7842 24.1292 17.1166 24.1292H20.8183C21.1233 24.1292 21.4087 24.2427 21.6363 24.4425C21.243 25.0303 21.0319 25.7209 21.0319 26.444V27.2259H22.0642V26.444C22.0642 25.7545 22.3331 25.1062 22.8203 24.619L23.6126 23.8267V23.613V22.0647C23.6126 21.4954 24.0756 21.0324 24.6448 21.0324V25.1614C24.6448 27.7225 22.5612 29.8066 19.9997 29.8066C17.4381 29.8066 15.3545 27.7225 15.3545 25.1614V20.0001Z" fill="url(#paint0_linear_8046_2545)"/>
<path d="M30.8384 12.2578C31.1234 12.2578 31.3545 12.0268 31.3545 11.7417C31.3545 11.4567 31.1234 11.2256 30.8384 11.2256C30.5533 11.2256 30.3223 11.4567 30.3223 11.7417C30.3223 12.0268 30.5533 12.2578 30.8384 12.2578Z" fill="url(#paint1_linear_8046_2545)"/>
<path d="M31.3545 6.06494H30.3223V10.194H31.3545V6.06494Z" fill="url(#paint2_linear_8046_2545)"/>
<path d="M9.16261 33.9351C9.44766 33.9351 9.67874 33.704 9.67874 33.419C9.67874 33.1339 9.44766 32.9028 9.16261 32.9028C8.87756 32.9028 8.64648 33.1339 8.64648 33.419C8.64648 33.704 8.87756 33.9351 9.16261 33.9351Z" fill="url(#paint3_linear_8046_2545)"/>
<path d="M9.67874 27.7422H8.64648V31.8712H9.67874V27.7422Z" fill="url(#paint4_linear_8046_2545)"/>
<path d="M10.1944 7.09717H7.09766V10.1939H10.1944V7.09717ZM9.16217 9.16168H8.12991V8.12943H9.16217V9.16168Z" fill="url(#paint5_linear_8046_2545)"/>
<path d="M14.3253 7.09717H11.2285V10.1939H14.3253V7.09717ZM13.293 9.16168H12.2608V8.12943H13.293V9.16168Z" fill="url(#paint6_linear_8046_2545)"/>
<path d="M18.4503 7.09717H15.3535V10.1939H18.4503V7.09717ZM17.418 9.16168H16.3858V8.12943H17.418V9.16168Z" fill="url(#paint7_linear_8046_2545)"/>
<path d="M36 9.16129C36 6.31535 33.6846 4 30.8387 4C29.6821 4 28.6168 4.3871 27.7554 5.03226H6.58065C5.72697 5.03226 5.03226 5.72697 5.03226 6.58065V27.7554C4.3871 28.6168 4 29.6821 4 30.8387C4 33.6846 6.31535 36 9.16129 36C10.3179 36 11.3832 35.6129 12.2446 34.9677H33.4194C34.273 34.9677 34.9677 34.273 34.9677 33.4194V12.2446C35.6129 11.3832 36 10.3179 36 9.16129ZM34.9677 9.16129C34.9677 11.4379 33.1154 13.2903 30.8387 13.2903C28.5621 13.2903 26.7097 11.4379 26.7097 9.16129C26.7097 6.88465 28.5621 5.03226 30.8387 5.03226C33.1154 5.03226 34.9677 6.88465 34.9677 9.16129ZM6.58065 6.06452H26.7195C26.0686 6.92852 25.6774 7.99845 25.6774 9.16129C25.6774 9.89523 25.8338 10.593 26.1115 11.2258H6.06452V6.58065C6.06452 6.29626 6.29574 6.06452 6.58065 6.06452ZM5.03226 30.8387C5.03226 28.5621 6.88465 26.7097 9.16129 26.7097C11.4379 26.7097 13.2903 28.5621 13.2903 30.8387C13.2903 33.1154 11.4379 34.9677 9.16129 34.9677C6.88465 34.9677 5.03226 33.1154 5.03226 30.8387ZM11.2258 23.0968C11.2258 18.2586 15.1618 14.3226 20 14.3226C24.8382 14.3226 28.7742 18.2586 28.7742 23.0968C28.7742 27.935 24.8382 31.871 20 31.871C17.8493 31.871 15.7889 31.0761 14.176 29.6377C13.8591 28.3143 13.0333 27.1897 11.9148 26.4805C11.4617 25.4008 11.2258 24.2643 11.2258 23.0968ZM33.4194 33.9355H13.2805C13.8895 33.1277 14.2648 32.1383 14.3112 31.0622C15.969 32.2514 17.9468 32.9032 20 32.9032C25.4075 32.9032 29.8064 28.5043 29.8064 23.0968C29.8064 17.6893 25.4075 13.2903 20 13.2903C14.5925 13.2903 10.1935 17.6893 10.1935 23.0968C10.1935 24.0495 10.3386 24.9827 10.609 25.888C10.1492 25.7533 9.664 25.6774 9.16129 25.6774C7.99897 25.6774 6.92852 26.0686 6.06452 26.7195V12.2581H26.7195C27.6625 13.5086 29.1556 14.3226 30.8387 14.3226C32.001 14.3226 33.0715 13.9314 33.9355 13.2805V33.4194C33.9355 33.7037 33.7043 33.9355 33.4194 33.9355Z" fill="url(#paint8_linear_8046_2545)"/>
<path d="M7.09766 16.3868H12.2589V13.29H7.09766V16.3868ZM8.12991 14.3223H11.2267V15.3546H8.12991V14.3223Z" fill="url(#paint9_linear_8046_2545)"/>
<path d="M9.16217 17.4194H7.09766V18.4517H9.16217V17.4194Z" fill="url(#paint10_linear_8046_2545)"/>
<path d="M9.16217 19.4844H7.09766V20.5166H9.16217V19.4844Z" fill="url(#paint11_linear_8046_2545)"/>
<path d="M9.16217 21.5479H7.09766V22.5801H9.16217V21.5479Z" fill="url(#paint12_linear_8046_2545)"/>
<path d="M9.16217 23.6128H7.09766V24.6451H9.16217V23.6128Z" fill="url(#paint13_linear_8046_2545)"/>
<path d="M27.7402 32.9039H32.9015V29.8071H27.7402V32.9039ZM28.7725 30.8394H31.8693V31.8716H28.7725V30.8394Z" fill="url(#paint14_linear_8046_2545)"/>
<path d="M32.9044 27.7422H30.8398V28.7744H32.9044V27.7422Z" fill="url(#paint15_linear_8046_2545)"/>
<path d="M32.9044 25.6772H30.8398V26.7095H32.9044V25.6772Z" fill="url(#paint16_linear_8046_2545)"/>
<path d="M32.9044 23.6128H30.8398V24.6451H32.9044V23.6128Z" fill="url(#paint17_linear_8046_2545)"/>
<path d="M32.9044 21.5479H30.8398V22.5801H32.9044V21.5479Z" fill="url(#paint18_linear_8046_2545)"/>
<path d="M32.9044 19.4844H30.8398V20.5166H32.9044V19.4844Z" fill="url(#paint19_linear_8046_2545)"/>
<path d="M32.9044 17.4194H30.8398V18.4517H32.9044V17.4194Z" fill="url(#paint20_linear_8046_2545)"/>
<path d="M32.9044 15.355H30.8398V16.3872H32.9044V15.355Z" fill="url(#paint21_linear_8046_2545)"/>
</g>
<defs>
<linearGradient id="paint0_linear_8046_2545" x1="23.1689" y1="15.355" x2="23.0722" y2="34.1567" gradientUnits="userSpaceOnUse">
<stop stop-color="#005CAA"/>
<stop offset="1" stop-color="#64B0F1"/>
</linearGradient>
<linearGradient id="paint1_linear_8046_2545" x1="31.1265" y1="11.2256" x2="31.1218" y2="12.4791" gradientUnits="userSpaceOnUse">
<stop stop-color="#005CAA"/>
<stop offset="1" stop-color="#64B0F1"/>
</linearGradient>
<linearGradient id="paint2_linear_8046_2545" x1="31.1265" y1="6.06494" x2="31.0508" y2="11.0777" gradientUnits="userSpaceOnUse">
<stop stop-color="#005CAA"/>
<stop offset="1" stop-color="#64B0F1"/>
</linearGradient>
<linearGradient id="paint3_linear_8046_2545" x1="9.45073" y1="32.9028" x2="9.446" y2="34.1563" gradientUnits="userSpaceOnUse">
<stop stop-color="#005CAA"/>
<stop offset="1" stop-color="#64B0F1"/>
</linearGradient>
<linearGradient id="paint4_linear_8046_2545" x1="9.45073" y1="27.7422" x2="9.37506" y2="32.755" gradientUnits="userSpaceOnUse">
<stop stop-color="#005CAA"/>
<stop offset="1" stop-color="#64B0F1"/>
</linearGradient>
<linearGradient id="paint5_linear_8046_2545" x1="9.51038" y1="7.09717" x2="9.49619" y2="10.8576" gradientUnits="userSpaceOnUse">
<stop stop-color="#005CAA"/>
<stop offset="1" stop-color="#64B0F1"/>
</linearGradient>
<linearGradient id="paint6_linear_8046_2545" x1="13.6412" y1="7.09717" x2="13.6271" y2="10.8576" gradientUnits="userSpaceOnUse">
<stop stop-color="#005CAA"/>
<stop offset="1" stop-color="#64B0F1"/>
</linearGradient>
<linearGradient id="paint7_linear_8046_2545" x1="17.7662" y1="7.09717" x2="17.7521" y2="10.8576" gradientUnits="userSpaceOnUse">
<stop stop-color="#005CAA"/>
<stop offset="1" stop-color="#64B0F1"/>
</linearGradient>
<linearGradient id="paint8_linear_8046_2545" x1="28.9315" y1="4" x2="28.7849" y2="42.8574" gradientUnits="userSpaceOnUse">
<stop stop-color="#005CAA"/>
<stop offset="1" stop-color="#64B0F1"/>
</linearGradient>
<linearGradient id="paint9_linear_8046_2545" x1="11.1189" y1="13.29" x2="11.1104" y2="17.0505" gradientUnits="userSpaceOnUse">
<stop stop-color="#005CAA"/>
<stop offset="1" stop-color="#64B0F1"/>
</linearGradient>
<linearGradient id="paint10_linear_8046_2545" x1="8.70614" y1="17.4194" x2="8.70378" y2="18.6729" gradientUnits="userSpaceOnUse">
<stop stop-color="#005CAA"/>
<stop offset="1" stop-color="#64B0F1"/>
</linearGradient>
<linearGradient id="paint11_linear_8046_2545" x1="8.70614" y1="19.4844" x2="8.70378" y2="20.7379" gradientUnits="userSpaceOnUse">
<stop stop-color="#005CAA"/>
<stop offset="1" stop-color="#64B0F1"/>
</linearGradient>
<linearGradient id="paint12_linear_8046_2545" x1="8.70614" y1="21.5479" x2="8.70378" y2="22.8013" gradientUnits="userSpaceOnUse">
<stop stop-color="#005CAA"/>
<stop offset="1" stop-color="#64B0F1"/>
</linearGradient>
<linearGradient id="paint13_linear_8046_2545" x1="8.70614" y1="23.6128" x2="8.70378" y2="24.8663" gradientUnits="userSpaceOnUse">
<stop stop-color="#005CAA"/>
<stop offset="1" stop-color="#64B0F1"/>
</linearGradient>
<linearGradient id="paint14_linear_8046_2545" x1="31.7614" y1="29.8071" x2="31.7529" y2="33.5676" gradientUnits="userSpaceOnUse">
<stop stop-color="#005CAA"/>
<stop offset="1" stop-color="#64B0F1"/>
</linearGradient>
<linearGradient id="paint15_linear_8046_2545" x1="32.4483" y1="27.7422" x2="32.446" y2="28.9957" gradientUnits="userSpaceOnUse">
<stop stop-color="#005CAA"/>
<stop offset="1" stop-color="#64B0F1"/>
</linearGradient>
<linearGradient id="paint16_linear_8046_2545" x1="32.4483" y1="25.6772" x2="32.446" y2="26.9307" gradientUnits="userSpaceOnUse">
<stop stop-color="#005CAA"/>
<stop offset="1" stop-color="#64B0F1"/>
</linearGradient>
<linearGradient id="paint17_linear_8046_2545" x1="32.4483" y1="23.6128" x2="32.446" y2="24.8663" gradientUnits="userSpaceOnUse">
<stop stop-color="#005CAA"/>
<stop offset="1" stop-color="#64B0F1"/>
</linearGradient>
<linearGradient id="paint18_linear_8046_2545" x1="32.4483" y1="21.5479" x2="32.446" y2="22.8013" gradientUnits="userSpaceOnUse">
<stop stop-color="#005CAA"/>
<stop offset="1" stop-color="#64B0F1"/>
</linearGradient>
<linearGradient id="paint19_linear_8046_2545" x1="32.4483" y1="19.4844" x2="32.446" y2="20.7379" gradientUnits="userSpaceOnUse">
<stop stop-color="#005CAA"/>
<stop offset="1" stop-color="#64B0F1"/>
</linearGradient>
<linearGradient id="paint20_linear_8046_2545" x1="32.4483" y1="17.4194" x2="32.446" y2="18.6729" gradientUnits="userSpaceOnUse">
<stop stop-color="#005CAA"/>
<stop offset="1" stop-color="#64B0F1"/>
</linearGradient>
<linearGradient id="paint21_linear_8046_2545" x1="32.4483" y1="15.355" x2="32.446" y2="16.6085" gradientUnits="userSpaceOnUse">
<stop stop-color="#005CAA"/>
<stop offset="1" stop-color="#64B0F1"/>
</linearGradient>
<clipPath id="clip0_8046_2545">
<rect width="39.7513" height="40.3589" fill="white" transform="translate(0.09375 -0.0078125)"/>
</clipPath>
</defs>
</svg>
