<svg width="50" height="50" viewBox="0 0 50 50" fill="none" xmlns="http://www.w3.org/2000/svg">
<path d="M8.72432 35.1315V35.5252C8.72432 36.256 9.01463 36.9569 9.53139 37.4736C10.0481 37.9904 10.749 38.2807 11.4798 38.2807H21.7146C22.4454 38.2807 23.1463 37.9904 23.6631 37.4736C24.1798 36.9569 24.4701 36.256 24.4701 35.5252V35.1315C24.5018 33.773 24.0813 32.4424 23.2747 31.3488C22.4682 30.2551 21.3213 29.4603 20.0141 29.0891C20.7852 28.3975 21.3282 27.4882 21.5715 26.4813C21.8147 25.4745 21.7468 24.4176 21.3765 23.4502C21.0062 22.4829 20.3511 21.6506 19.4978 21.0635C18.6444 20.4764 17.633 20.1621 16.5972 20.1621C15.5614 20.1621 14.55 20.4764 13.6967 21.0635C12.8433 21.6506 12.1882 22.4829 11.818 23.4502C11.4477 24.4176 11.3797 25.4745 11.623 26.4813C11.8662 27.4882 12.4093 28.3975 13.1804 29.0891C11.8732 29.4603 10.7262 30.2551 9.9197 31.3488C9.11317 32.4424 8.6927 33.773 8.72432 35.1315ZM16.5972 21.7476C17.2979 21.7476 17.9829 21.9554 18.5655 22.3447C19.1481 22.7339 19.6022 23.2873 19.8704 23.9346C20.1385 24.582 20.2087 25.2943 20.072 25.9816C19.9353 26.6688 19.5978 27.3001 19.1024 27.7955C18.6069 28.291 17.9756 28.6284 17.2884 28.7651C16.6012 28.9018 15.8888 28.8317 15.2415 28.5635C14.5941 28.2954 14.0408 27.8413 13.6515 27.2587C13.2622 26.6761 13.0544 25.9911 13.0544 25.2904C13.0544 24.3508 13.4277 23.4497 14.0921 22.7853C14.7565 22.1208 15.6576 21.7476 16.5972 21.7476ZM15.0226 30.4078H18.1718C18.796 30.3938 19.4165 30.5064 19.9959 30.7389C20.5753 30.9713 21.1017 31.3187 21.5431 31.7602C21.9846 32.2017 22.332 32.728 22.5645 33.3074C22.7969 33.8869 22.9095 34.5074 22.8956 35.1315V35.5252C22.8956 35.8384 22.7711 36.1388 22.5497 36.3602C22.3282 36.5817 22.0278 36.7061 21.7146 36.7061H11.4798C11.1666 36.7061 10.8663 36.5817 10.6448 36.3602C10.4233 36.1388 10.2989 35.8384 10.2989 35.5252V35.1315C10.2849 34.5074 10.3975 33.8869 10.63 33.3074C10.8624 32.728 11.2099 32.2017 11.6513 31.7602C12.0928 31.3187 12.6191 30.9713 13.1985 30.7389C13.778 30.5064 14.3985 30.3938 15.0226 30.4078Z" fill="black"/>
<path d="M41.0027 29.6206C40.7939 29.6206 40.5936 29.7036 40.446 29.8512C40.2983 29.9989 40.2154 30.1991 40.2154 30.4079V40.2491C40.2154 40.5623 40.091 40.8626 39.8695 41.0841C39.648 41.3056 39.3476 41.43 39.0344 41.43H6.75552C6.44231 41.43 6.14194 41.3056 5.92047 41.0841C5.699 40.8626 5.57458 40.5623 5.57458 40.2491V17.4176C5.57458 17.1044 5.699 16.804 5.92047 16.5826C6.14194 16.3611 6.44231 16.2367 6.75552 16.2367H24.0759C24.2847 16.2367 24.485 16.1537 24.6326 16.0061C24.7803 15.8585 24.8632 15.6582 24.8632 15.4494C24.8632 15.2406 24.7803 15.0403 24.6326 14.8927C24.485 14.7451 24.2847 14.6621 24.0759 14.6621H6.75552C6.02471 14.6621 5.32383 14.9524 4.80707 15.4692C4.29031 15.9859 4 16.6868 4 17.4176V40.2491C4 40.9799 4.29031 41.6807 4.80707 42.1975C5.32383 42.7143 6.02471 43.0046 6.75552 43.0046H39.0344C39.7652 43.0046 40.4661 42.7143 40.9829 42.1975C41.4996 41.6807 41.79 40.9799 41.79 40.2491V30.4079C41.79 30.1991 41.707 29.9989 41.5594 29.8512C41.4117 29.7036 41.2115 29.6206 41.0027 29.6206Z" fill="black"/>
<path d="M40.3129 14.8943L35.3608 19.8463L32.2432 16.7287C32.0954 16.5809 31.8951 16.4979 31.6862 16.4979C31.4772 16.4979 31.2769 16.5809 31.1292 16.7287C30.9814 16.8764 30.8984 17.0768 30.8984 17.2857C30.8984 17.4946 30.9814 17.695 31.1292 17.8427L34.8019 21.5154C34.8751 21.5891 34.9622 21.6475 35.0581 21.6874C35.1541 21.7272 35.257 21.7477 35.3608 21.7476C35.5693 21.7468 35.7689 21.6632 35.9159 21.5154L41.4269 16.0044C41.5624 15.8544 41.6349 15.658 41.6296 15.456C41.6243 15.254 41.5415 15.0617 41.3983 14.9191C41.2551 14.7764 41.0626 14.6943 40.8606 14.6897C40.6585 14.685 40.4624 14.7583 40.3129 14.8943Z" fill="black"/>
<path d="M45.8376 10.5168C45.8181 10.335 45.736 10.1656 45.6053 10.0378C45.4745 9.90992 45.3034 9.83156 45.1212 9.81614C43.6195 9.6219 42.1534 9.21361 40.7674 8.60371C39.3359 8.00761 38.0023 7.19946 36.8113 6.20641C36.6662 6.07364 36.4766 6 36.2799 6C36.0832 6 35.8936 6.07364 35.7485 6.20641C34.5578 7.1999 33.2241 8.0081 31.7923 8.60371C30.4137 9.21105 28.9558 9.61928 27.4622 9.81614C27.2793 9.83069 27.1072 9.90866 26.9757 10.0366C26.8442 10.1645 26.7615 10.3344 26.7419 10.5168C26.7064 10.8514 25.9191 18.7125 27.8637 22.5939C30.1902 27.231 35.7367 29.833 35.9689 29.9432C36.0725 29.9912 36.1854 30.016 36.2996 30.016C36.4138 30.016 36.5266 29.9912 36.6302 29.9432C36.8625 29.833 42.4089 27.231 44.7354 22.5939C46.6603 18.7125 45.873 10.8514 45.8376 10.5168ZM43.3065 21.8892C41.539 25.4202 37.4608 27.7309 36.2799 28.349C35.0989 27.7309 31.0208 25.4202 29.2533 21.8892C27.8047 18.992 28.096 13.1936 28.2377 11.2962C29.6725 11.0463 31.0729 10.6288 32.4103 10.0523C33.789 9.4693 35.089 8.71547 36.2799 7.80855C37.4707 8.71547 38.7708 9.4693 40.1494 10.0523C41.4868 10.6288 42.8873 11.0463 44.3221 11.2962C44.4677 13.1936 44.759 18.992 43.3065 21.8892Z" fill="black"/>
<path d="M28.4064 38.2806H36.2793C36.4881 38.2806 36.6884 38.1977 36.836 38.05C36.9837 37.9024 37.0666 37.7021 37.0666 37.4933C37.0666 37.2845 36.9837 37.0843 36.836 36.9366C36.6884 36.789 36.4881 36.7061 36.2793 36.7061H28.4064C28.1976 36.7061 27.9974 36.789 27.8497 36.9366C27.7021 37.0843 27.6191 37.2845 27.6191 37.4933C27.6191 37.7021 27.7021 37.9024 27.8497 38.05C27.9974 38.1977 28.1976 38.2806 28.4064 38.2806Z" fill="black"/>
<path d="M28.4064 33.557H33.1302C33.339 33.557 33.5392 33.4741 33.6869 33.3264C33.8345 33.1788 33.9175 32.9785 33.9175 32.7697C33.9175 32.5609 33.8345 32.3607 33.6869 32.213C33.5392 32.0654 33.339 31.9824 33.1302 31.9824H28.4064C28.1976 31.9824 27.9974 32.0654 27.8497 32.213C27.7021 32.3607 27.6191 32.5609 27.6191 32.7697C27.6191 32.9785 27.7021 33.1788 27.8497 33.3264C27.9974 33.4741 28.1976 33.557 28.4064 33.557Z" fill="black"/>
</svg>
