<svg width="50" height="50" viewBox="0 0 50 50" fill="none" xmlns="http://www.w3.org/2000/svg">
<path fill-rule="evenodd" clip-rule="evenodd" d="M41.5421 45.2987C41.1763 45.2987 40.8792 45.0016 40.8792 44.6359V25.3668H37.2105V44.6473C37.2105 45.013 36.9134 45.3102 36.5476 45.3102C36.1819 45.3102 35.8848 45.013 35.8848 44.6473V24.7039C35.8848 24.3382 36.1819 24.041 36.5476 24.041H41.5421C41.9078 24.041 42.2049 24.3382 42.2049 24.7039V44.6359C42.1935 45.0016 41.8964 45.2987 41.5421 45.2987Z" fill="black"/>
<path fill-rule="evenodd" clip-rule="evenodd" d="M32.2142 45.3011C31.8485 45.3011 31.5514 45.0039 31.5514 44.6382V31.815H27.8941V44.6382C27.8941 45.0039 27.597 45.3011 27.2312 45.3011C26.8655 45.3011 26.5684 45.0039 26.5684 44.6382V31.1521C26.5684 30.7864 26.8655 30.4893 27.2312 30.4893H32.2257C32.5914 30.4893 32.8885 30.7864 32.8885 31.1521V44.6382C32.8771 45.0039 32.58 45.3011 32.2142 45.3011Z" fill="black"/>
<path fill-rule="evenodd" clip-rule="evenodd" d="M22.9014 45.3C22.5357 45.3 22.2386 45.0029 22.2386 44.6371V27.871H18.5699V44.6371C18.5699 45.0029 18.2727 45.3 17.907 45.3C17.5413 45.3 17.2441 45.0029 17.2441 44.6371V27.2195C17.2441 26.8538 17.5413 26.5566 17.907 26.5566H22.9014C23.2672 26.5566 23.5643 26.8538 23.5643 27.2195V44.6486C23.5643 45.0029 23.2672 45.3 22.9014 45.3Z" fill="black"/>
<path fill-rule="evenodd" clip-rule="evenodd" d="M13.585 45.2989C13.2193 45.2989 12.9222 45.0017 12.9222 44.636V33.87H9.25349V44.636C9.25349 45.0017 8.95633 45.2989 8.59061 45.2989C8.22488 45.2989 7.92773 45.0017 7.92773 44.636V33.2185C7.92773 32.8528 8.22488 32.5557 8.59061 32.5557H13.585C13.9508 32.5557 14.2479 32.8528 14.2479 33.2185V44.636C14.2479 45.0017 13.9508 45.2989 13.585 45.2989Z" fill="black"/>
<path fill-rule="evenodd" clip-rule="evenodd" d="M28.4674 25.4725C28.3646 25.4725 28.2617 25.4496 28.1588 25.3925L21.0386 21.5981C20.7186 21.4266 20.5929 21.0266 20.7644 20.7066C20.9358 20.3866 21.3358 20.2609 21.6558 20.4323L28.776 24.2267C29.096 24.3981 29.2217 24.7982 29.0503 25.1182C28.9246 25.3467 28.696 25.4725 28.4674 25.4725Z" fill="black"/>
<path fill-rule="evenodd" clip-rule="evenodd" d="M31.4038 25.61C31.2324 25.61 31.0496 25.5414 30.9238 25.4043C30.6724 25.1414 30.6838 24.7185 30.9467 24.4785L38.2498 17.5869C38.5126 17.3355 38.9355 17.3469 39.1755 17.6098C39.4155 17.8726 39.4155 18.2955 39.1526 18.5355L31.8496 25.4271C31.7239 25.5529 31.5639 25.61 31.4038 25.61Z" fill="black"/>
<path fill-rule="evenodd" clip-rule="evenodd" d="M11.6545 25.4372C11.4259 25.4372 11.1974 25.3115 11.0716 25.0944C10.9002 24.7744 11.0145 24.3743 11.3345 24.2029L18.1576 20.5228C18.4776 20.3514 18.8776 20.4657 19.049 20.7857C19.2204 21.1057 19.1062 21.5057 18.7861 21.6771L11.9631 25.3572C11.8717 25.4144 11.7688 25.4372 11.6545 25.4372Z" fill="black"/>
<path fill-rule="evenodd" clip-rule="evenodd" d="M39.8829 19.2315C38.66 19.2315 37.6543 18.2486 37.6543 17.0371C37.6543 15.8257 38.6486 14.8428 39.8829 14.8428C41.1173 14.8428 42.1116 15.8257 42.1116 17.0371C42.1116 18.2486 41.1173 19.2315 39.8829 19.2315ZM39.8829 16.1571C39.3801 16.1571 38.9686 16.5571 38.9686 17.0371C38.9686 17.5171 39.3801 17.9171 39.8829 17.9171C40.3858 17.9171 40.7972 17.5171 40.7972 17.0371C40.7972 16.5571 40.3858 16.1571 39.8829 16.1571Z" fill="black"/>
<path fill-rule="evenodd" clip-rule="evenodd" d="M29.9064 27.6084C28.6835 27.6084 27.6777 26.6255 27.6777 25.4141C27.6777 24.2026 28.672 23.2197 29.9064 23.2197C31.1407 23.2197 32.135 24.2026 32.135 25.4141C32.135 26.6255 31.1407 27.6084 29.9064 27.6084ZM29.9064 24.534C29.4035 24.534 28.9921 24.9341 28.9921 25.4141C28.9921 25.8941 29.4035 26.2941 29.9064 26.2941C30.4092 26.2941 30.8207 25.8941 30.8207 25.4141C30.8207 24.9226 30.4092 24.534 29.9064 24.534Z" fill="black"/>
<path fill-rule="evenodd" clip-rule="evenodd" d="M10.2482 27.6553C9.02527 27.6553 8.01953 26.6724 8.01953 25.4609C8.01953 24.2495 9.01384 23.2666 10.2482 23.2666C11.4825 23.2666 12.4768 24.2495 12.4768 25.4609C12.4768 26.6724 11.4825 27.6553 10.2482 27.6553ZM10.2482 24.5809C9.74529 24.5809 9.33385 24.9809 9.33385 25.4609C9.33385 25.941 9.74529 26.341 10.2482 26.341C10.751 26.341 11.1625 25.941 11.1625 25.4609C11.1625 24.9695 10.751 24.5809 10.2482 24.5809Z" fill="black"/>
<path fill-rule="evenodd" clip-rule="evenodd" d="M19.8946 22.6133C18.6718 22.6133 17.666 21.6304 17.666 20.419C17.666 19.2075 18.6603 18.2246 19.8946 18.2246C21.129 18.2246 22.1233 19.2075 22.1233 20.419C22.1233 21.6304 21.1175 22.6133 19.8946 22.6133ZM19.8946 19.5389C19.3918 19.5389 18.9803 19.9389 18.9803 20.419C18.9803 20.899 19.3918 21.299 19.8946 21.299C20.3975 21.299 20.809 20.899 20.809 20.419C20.809 19.9389 20.3975 19.5389 19.8946 19.5389Z" fill="black"/>
<path fill-rule="evenodd" clip-rule="evenodd" d="M45.4754 45.2983H4.66288C4.29715 45.2983 4 45.0011 4 44.6354V5.66288C4 5.29715 4.29715 5 4.66288 5C5.0286 5 5.32575 5.29715 5.32575 5.66288V43.9725H45.4869C45.8526 43.9725 46.1497 44.2697 46.1497 44.6354C46.1497 45.0011 45.8412 45.2983 45.4754 45.2983Z" fill="black"/>
<path fill-rule="evenodd" clip-rule="evenodd" d="M13.8391 17.6997C12.1477 17.6997 10.5476 17.0369 9.359 15.8368C8.15897 14.6368 7.49609 13.0482 7.49609 11.3567C7.49609 9.66523 8.15897 8.06519 9.359 6.87658C10.559 5.67655 12.1477 5.01367 13.8391 5.01367C15.5306 5.01367 17.1306 5.67655 18.3193 6.87658C19.5193 8.07661 20.1822 9.66523 20.1822 11.3567C20.1822 13.0482 19.5193 14.6482 18.3193 15.8368C17.1306 17.0369 15.5306 17.6997 13.8391 17.6997ZM13.8391 6.32799C11.0733 6.32799 8.81042 8.57949 8.81042 11.3567C8.81042 14.1339 11.0619 16.3854 13.8391 16.3854C16.6163 16.3854 18.8678 14.1339 18.8678 11.3567C18.8678 8.57949 16.6163 6.32799 13.8391 6.32799Z" fill="black"/>
<path fill-rule="evenodd" clip-rule="evenodd" d="M13.8411 14.6128C13.0297 14.6128 12.2868 14.2128 11.9096 13.5728C11.7268 13.2642 11.8296 12.8528 12.1382 12.6699C12.4468 12.487 12.8582 12.5899 13.0411 12.8985C13.1782 13.1385 13.4983 13.2985 13.8411 13.2985C14.3097 13.2985 14.7097 13.0013 14.7097 12.6585C14.7097 12.3156 14.3097 12.0185 13.8411 12.0185C12.6411 12.0185 11.6582 11.1384 11.6582 10.0527C11.6582 8.96694 12.6411 8.08691 13.8411 8.08691C14.6869 8.08691 15.464 8.53264 15.8183 9.21837C15.9898 9.53838 15.864 9.93839 15.544 10.1098C15.224 10.2813 14.824 10.1555 14.6526 9.83553C14.5269 9.5841 14.1954 9.41267 13.8411 9.41267C13.3725 9.41267 12.9725 9.70982 12.9725 10.0527C12.9725 10.3955 13.3725 10.6927 13.8411 10.6927C15.0412 10.6927 16.024 11.5727 16.024 12.6585C16.024 13.7442 15.0526 14.6128 13.8411 14.6128Z" fill="black"/>
<path fill-rule="evenodd" clip-rule="evenodd" d="M13.8426 15.2996C13.4768 15.2996 13.1797 15.0024 13.1797 14.6367V13.951C13.1797 13.5852 13.4768 13.2881 13.8426 13.2881C14.2083 13.2881 14.5054 13.5852 14.5054 13.951V14.6367C14.5054 15.0138 14.2083 15.2996 13.8426 15.2996Z" fill="black"/>
<path fill-rule="evenodd" clip-rule="evenodd" d="M13.8426 9.40211C13.4768 9.40211 13.1797 9.10496 13.1797 8.73923V8.0535C13.1797 7.68778 13.4768 7.39062 13.8426 7.39062C14.2083 7.39062 14.5054 7.68778 14.5054 8.0535V8.73923C14.5054 9.11639 14.2083 9.40211 13.8426 9.40211Z" fill="black"/>
<path fill-rule="evenodd" clip-rule="evenodd" d="M41.544 31.2076H36.5496C36.1839 31.2076 35.8867 30.9104 35.8867 30.5447C35.8867 30.179 36.1839 29.8818 36.5496 29.8818H41.544C41.9097 29.8818 42.2069 30.179 42.2069 30.5447C42.2069 30.9104 41.8983 31.2076 41.544 31.2076Z" fill="black"/>
<path fill-rule="evenodd" clip-rule="evenodd" d="M22.9053 32.8873H17.9109C17.5452 32.8873 17.248 32.5901 17.248 32.2244C17.248 31.8587 17.5452 31.5615 17.9109 31.5615H22.9053C23.2711 31.5615 23.5682 31.8587 23.5682 32.2244C23.5682 32.5901 23.2711 32.8873 22.9053 32.8873Z" fill="black"/>
<path fill-rule="evenodd" clip-rule="evenodd" d="M32.2178 36.2466H27.2234C26.8577 36.2466 26.5605 35.9495 26.5605 35.5838C26.5605 35.218 26.8577 34.9209 27.2234 34.9209H32.2178C32.5836 34.9209 32.8807 35.218 32.8807 35.5838C32.8807 35.9495 32.5836 36.2466 32.2178 36.2466Z" fill="black"/>
<path fill-rule="evenodd" clip-rule="evenodd" d="M13.5889 37.3687H8.59452C8.22879 37.3687 7.93164 37.0716 7.93164 36.7058C7.93164 36.3401 8.22879 36.043 8.59452 36.043H13.5889C13.9547 36.043 14.2518 36.3401 14.2518 36.7058C14.2518 37.0716 13.9547 37.3687 13.5889 37.3687Z" fill="black"/>
</svg>
