<svg width="60" height="60" viewBox="0 0 60 60" fill="none" xmlns="http://www.w3.org/2000/svg">
<path d="M41.499 18.0038C40.7674 18.0038 40.7674 16.8951 41.499 16.8951H43.4387C43.3833 16.7067 43.4277 16.496 43.5828 16.3519L45.2012 14.7332C41.7096 11.0192 36.91 8.55796 31.5673 8.04798V16.8508C36.9876 17.7266 41.2662 22.0061 42.1419 27.4275H50.9429C50.5106 22.9263 48.7039 18.8242 45.9327 15.5647L44.4807 17.0282C44.8908 17.3497 44.6691 18.0149 44.1371 18.0149H41.499V18.0038ZM33.1302 48.3147C32.3986 48.3147 32.3986 47.2061 33.1302 47.2061H35.7794C36.5109 47.2061 36.5109 48.3147 35.7794 48.3147H33.1302ZM33.1302 45.5542C32.3986 45.5542 32.3986 44.4455 33.1302 44.4455H39.4151C40.1466 44.4455 40.1466 45.5542 39.4151 45.5542H33.1302ZM13.6658 19.1901C12.9342 19.1901 12.9342 18.0814 13.6658 18.0814H16.315C17.0466 18.0814 17.0466 19.1901 16.315 19.1901H13.6658ZM13.6658 16.4295C12.9342 16.4295 12.9342 15.3208 13.6658 15.3208H19.9618C20.6934 15.3208 20.6934 16.4295 19.9618 16.4295H13.6658ZM51.3641 53.7029H48.4378C48.2827 53.7029 48.1386 53.6363 48.0388 53.5366L45.3674 50.8647C44.8576 50.3547 45.6335 49.5675 46.1544 50.0775L48.6706 52.5831H51.3752C51.7854 51.2638 53.4702 50.8425 54.4567 51.8292C55.6206 52.9933 54.7892 54.9889 53.1487 54.9889C52.3174 55 51.608 54.4568 51.3641 53.7029ZM43.7934 49.2904L42.0753 47.5719C41.5655 47.0509 42.3414 46.2748 42.8623 46.7848L44.6913 48.6141C49.8456 44.5231 53.2707 38.4143 53.8471 31.5406H42.1419C40.8782 39.3456 32.842 44.1683 25.3489 41.5962C24.1517 41.186 23.0433 40.5984 22.0346 39.8778L13.7656 48.1484C22.3117 55.3548 34.7042 55.8426 43.7934 49.2904ZM52.6056 53.6696C53.0712 54.1352 53.8803 53.8026 53.8803 53.1485C53.8803 52.4833 53.0712 52.1507 52.6056 52.6164C52.3174 52.9046 52.3174 53.3813 52.6056 53.6696ZM27.1889 28.3809H31.8C32.1104 28.3809 32.3543 28.6248 32.3543 28.9353V33.4919H34.0945V26.7844H24.8944V33.4919H26.6347V28.9353C26.6347 28.6248 26.8896 28.3809 27.1889 28.3809ZM31.2458 29.4896H27.7431V33.4919H31.2458V29.4896ZM23.0433 35.7314H35.9345V34.6005H23.0433V35.7314ZM36.4999 36.84H22.4891C22.1898 36.84 21.9348 36.5961 21.9348 36.2857V34.0462C21.9348 33.7358 22.1787 33.4919 22.4891 33.4919H23.7859V26.7844H22.8881C22.5777 26.7844 22.3339 26.5405 22.3339 26.2301V22.7156C22.3339 22.4052 22.5777 22.1613 22.8881 22.1613H36.1008C36.4112 22.1613 36.655 22.4052 36.655 22.7156V26.2301C36.655 26.5294 36.4112 26.7844 36.1008 26.7844H35.203V33.4919H36.4999C36.8102 33.4919 37.0541 33.7358 37.0541 34.0462V36.2857C37.0541 36.5961 36.7991 36.84 36.4999 36.84ZM23.4423 25.6758C27.4771 25.6758 31.5118 25.6758 35.5466 25.6758V23.27H23.4423V25.6758ZM7.62477 7.9482H10.5511C10.7063 7.9482 10.8504 8.01472 10.9501 8.1145L12.114 9.2786C12.6239 9.79967 11.848 10.5757 11.327 10.0657L10.3183 9.05686H7.62477C7.21465 10.3762 5.5298 10.7975 4.54329 9.81076C3.37941 8.64666 4.21075 6.65106 5.85125 6.65106C6.67151 6.65106 7.38091 7.18322 7.62477 7.9482ZM13.7102 10.8751L15.4061 12.5713C15.927 13.0813 15.1401 13.8685 14.6191 13.3585L12.8788 11.6179C3.33508 20.5094 2.48157 35.3101 10.8614 45.2326L19.1305 36.962C15.6389 32.1171 15.9603 25.4984 19.9285 21.0083C21.8462 18.8353 24.4843 17.3275 27.466 16.8397V5.15436C22.2341 5.58674 17.4789 7.67103 13.7102 10.8751ZM6.38331 7.97037C5.91776 7.50473 5.10859 7.83733 5.10859 8.50253C5.10859 9.16773 5.91776 9.50033 6.38331 9.0236C6.67151 8.73535 6.67151 8.25862 6.38331 7.97037ZM51.5526 28.5361H41.6652C41.377 28.5361 41.1442 28.3144 41.111 28.0372C40.7895 25.3875 39.5703 23.015 37.7746 21.2189C35.9789 19.4229 33.5957 18.2034 30.9465 17.8818C30.6583 17.8486 30.4588 17.6047 30.4588 17.3275V7.4493C30.4588 7.1167 30.7359 6.8617 31.0795 6.89496C36.6994 7.283 41.765 9.72206 45.5115 13.4694C49.2692 17.2277 51.7078 22.3054 52.0846 27.9375C52.1179 28.259 51.8629 28.5361 51.5526 28.5361ZM10.3959 46.3746C1.68349 36.5074 1.88301 21.607 10.939 11.9837C15.262 7.39386 21.2809 4.40046 27.987 4.00134C28.3084 3.97917 28.5744 4.23416 28.5744 4.55568V17.3275C28.5744 17.6158 28.3528 17.8486 28.0756 17.8818C25.1715 18.2366 22.5999 19.6557 20.7599 21.74C17.0355 25.964 16.8471 32.2502 20.3054 36.6737C20.4828 36.8955 20.4606 37.2059 20.2611 37.4055L11.2383 46.43C10.9945 46.6739 10.5954 46.6407 10.3959 46.3746ZM54.9888 31.0528C54.1685 44.4677 43.0286 55 29.5277 55C23.2096 55 17.2461 52.694 12.6017 48.5808C12.3689 48.3702 12.3578 48.0043 12.5795 47.7715L21.6023 38.7469C21.8129 38.5363 22.1565 38.5252 22.3671 38.7359C23.3647 39.5119 24.4954 40.1328 25.7146 40.5541C32.72 42.9599 40.2132 38.3035 41.1221 30.9309C41.1553 30.6537 41.3992 30.443 41.6763 30.443H54.4345C54.7671 30.4209 55.0331 30.7202 54.9888 31.0528ZM51.3641 12.8374H48.6595L47.6508 13.8463C47.141 14.3563 46.354 13.5802 46.8638 13.0591L48.0277 11.895C48.1275 11.7953 48.2716 11.7287 48.4268 11.7287H51.3531C51.7632 10.4094 53.448 9.98814 54.4345 10.9749C55.5984 12.139 54.7671 14.1346 53.1266 14.1346C52.3174 14.1346 51.608 13.6024 51.3641 12.8374ZM53.1377 11.5292C52.4726 11.5292 52.1401 12.3385 52.6056 12.8042C53.0712 13.2698 53.8803 12.9372 53.8803 12.272C53.8803 11.8618 53.5478 11.5292 53.1377 11.5292Z" fill="#CC1212"/>
</svg>
