<svg width="40" height="41" viewBox="0 0 40 41" fill="none" xmlns="http://www.w3.org/2000/svg">
<g clip-path="url(#clip0_8046_2215)">
<path d="M8.79212 31.5171C8.63694 31.5171 8.48812 31.4554 8.3784 31.3457C8.26867 31.236 8.20703 31.0872 8.20703 30.932V29.4952C8.20703 29.3401 8.26867 29.1913 8.3784 29.0815C8.48812 28.9718 8.63694 28.9102 8.79212 28.9102C8.94729 28.9102 9.09611 28.9718 9.20584 29.0815C9.31556 29.1913 9.3772 29.3401 9.3772 29.4952V30.932C9.3772 31.0872 9.31556 31.236 9.20584 31.3457C9.09611 31.4554 8.94729 31.5171 8.79212 31.5171Z" fill="url(#paint0_linear_8046_2215)"/>
<path d="M14.2921 31.5171C14.1369 31.5171 13.9881 31.4554 13.8784 31.3457C13.7687 31.236 13.707 31.0872 13.707 30.932V29.4952C13.707 29.3401 13.7687 29.1913 13.8784 29.0815C13.9881 28.9718 14.1369 28.9102 14.2921 28.9102C14.4473 28.9102 14.5961 28.9718 14.7058 29.0815C14.8156 29.1913 14.8772 29.3401 14.8772 29.4952V30.932C14.8772 31.0872 14.8156 31.236 14.7058 31.3457C14.5961 31.4554 14.4473 31.5171 14.2921 31.5171Z" fill="url(#paint1_linear_8046_2215)"/>
<path d="M19.7902 31.5171C19.635 31.5171 19.4862 31.4554 19.3764 31.3457C19.2667 31.236 19.2051 31.0872 19.2051 30.932V29.4952C19.2051 29.3401 19.2667 29.1913 19.3764 29.0815C19.4862 28.9718 19.635 28.9102 19.7902 28.9102C19.9453 28.9102 20.0942 28.9718 20.2039 29.0815C20.3136 29.1913 20.3753 29.3401 20.3753 29.4952V30.932C20.3753 31.0872 20.3136 31.236 20.2039 31.3457C20.0942 31.4554 19.9453 31.5171 19.7902 31.5171Z" fill="url(#paint2_linear_8046_2215)"/>
<path d="M25.2863 31.5171C25.1311 31.5171 24.9823 31.4554 24.8725 31.3457C24.7628 31.236 24.7012 31.0872 24.7012 30.932V29.4952C24.7012 29.3401 24.7628 29.1913 24.8725 29.0815C24.9823 28.9718 25.1311 28.9102 25.2863 28.9102C25.4414 28.9102 25.5903 28.9718 25.7 29.0815C25.8097 29.1913 25.8713 29.3401 25.8713 29.4952V30.932C25.8713 31.0872 25.8097 31.236 25.7 31.3457C25.5903 31.4554 25.4414 31.5171 25.2863 31.5171Z" fill="url(#paint3_linear_8046_2215)"/>
<path d="M30.7843 31.5171C30.6291 31.5171 30.4803 31.4554 30.3706 31.3457C30.2609 31.236 30.1992 31.0872 30.1992 30.932V29.4952C30.1992 29.3401 30.2609 29.1913 30.3706 29.0815C30.4803 28.9718 30.6291 28.9102 30.7843 28.9102C30.9395 28.9102 31.0883 28.9718 31.198 29.0815C31.3077 29.1913 31.3694 29.3401 31.3694 29.4952V30.932C31.3694 31.0872 31.3077 31.236 31.198 31.3457C31.0883 31.4554 30.9395 31.5171 30.7843 31.5171Z" fill="url(#paint4_linear_8046_2215)"/>
<path d="M32.6713 35.2264H6.90555C6.28797 35.2257 5.69587 34.9801 5.25918 34.5434C4.82248 34.1067 4.57685 33.5146 4.57617 32.897V27.5299C4.57714 26.9125 4.8229 26.3207 5.25957 25.8843C5.69623 25.4478 6.28816 25.2023 6.90555 25.2017H32.6713C33.2889 25.2023 33.8809 25.448 34.3176 25.8847C34.7543 26.3214 35 26.9135 35.0006 27.531V32.897C35 33.5146 34.7543 34.1067 34.3176 34.5434C33.8809 34.9801 33.2889 35.2257 32.6713 35.2264ZM6.90555 26.3718C6.59823 26.3722 6.3036 26.4945 6.08629 26.7118C5.86899 26.9291 5.74673 27.2237 5.74634 27.531V32.897C5.74673 33.2043 5.86899 33.4989 6.08629 33.7163C6.3036 33.9336 6.59823 34.0558 6.90555 34.0562H32.6713C32.9786 34.0558 33.2732 33.9336 33.4905 33.7163C33.7078 33.4989 33.8301 33.2043 33.8305 32.897V27.5299C33.8298 27.2228 33.7074 26.9285 33.4901 26.7114C33.2729 26.4943 32.9784 26.3722 32.6713 26.3718H6.90555Z" fill="url(#paint5_linear_8046_2215)"/>
<path d="M22.057 13.6689C21.9018 13.6689 21.753 13.6072 21.6433 13.4975C21.5336 13.3878 21.4719 13.239 21.4719 13.0838V11.5479C21.4716 11.2496 21.353 10.9636 21.142 10.7526C20.9311 10.5417 20.6451 10.423 20.3467 10.4227H19.2329C18.9348 10.4231 18.6489 10.5416 18.438 10.7523C18.2271 10.963 18.1083 11.2487 18.1077 11.5468V13.0827C18.1077 13.2379 18.046 13.3867 17.9363 13.4964C17.8266 13.6061 17.6778 13.6678 17.5226 13.6678C17.3674 13.6678 17.2186 13.6061 17.1089 13.4964C16.9991 13.3867 16.9375 13.2379 16.9375 13.0827V11.5468C16.9383 10.9382 17.1804 10.3548 17.6108 9.92449C18.0412 9.49418 18.6246 9.25214 19.2332 9.25146H20.3471C20.9556 9.25224 21.5389 9.49433 21.9692 9.92464C22.3994 10.3549 22.6414 10.9383 22.6421 11.5468V13.0827C22.6422 13.1596 22.6272 13.2358 22.5979 13.3069C22.5685 13.378 22.5255 13.4427 22.4711 13.4971C22.4168 13.5516 22.3522 13.5948 22.2812 13.6242C22.2101 13.6537 22.1339 13.6689 22.057 13.6689Z" fill="url(#paint6_linear_8046_2215)"/>
<path d="M22.4429 19.4235H17.1325C16.7183 19.423 16.3213 19.2583 16.0284 18.9654C15.7355 18.6726 15.5708 18.2755 15.5703 17.8613V14.0597C15.5708 13.6456 15.7355 13.2485 16.0284 12.9556C16.3213 12.6628 16.7183 12.498 17.1325 12.4976H22.4429C22.857 12.498 23.2541 12.6628 23.547 12.9556C23.8398 13.2485 24.0046 13.6456 24.0051 14.0597V17.8599C24.005 18.2743 23.8404 18.6717 23.5475 18.9649C23.2546 19.2581 22.8573 19.423 22.4429 19.4235ZM17.1325 13.6677C17.0286 13.6678 16.9289 13.7092 16.8554 13.7827C16.7819 13.8561 16.7406 13.9558 16.7405 14.0597V17.8599C16.7403 17.9115 16.7504 17.9626 16.77 18.0103C16.7896 18.058 16.8185 18.1014 16.8549 18.1379C16.8913 18.1744 16.9346 18.2035 16.9822 18.2233C17.0298 18.2431 17.0809 18.2533 17.1325 18.2533H22.4429C22.5468 18.2532 22.6465 18.2119 22.72 18.1384C22.7935 18.0649 22.8348 17.9653 22.8349 17.8613V14.0597C22.8348 13.9558 22.7935 13.8561 22.72 13.7827C22.6465 13.7092 22.5468 13.6678 22.4429 13.6677H17.1325Z" fill="url(#paint7_linear_8046_2215)"/>
<path d="M19.7865 22.9306C17.7983 22.9305 15.8718 22.241 14.335 20.9797C12.7982 19.7184 11.7462 17.9633 11.3584 16.0133C10.9706 14.0634 11.2709 12.0393 12.2082 10.286C13.1454 8.53264 14.6616 7.15851 16.4984 6.39772C18.3352 5.63694 20.379 5.53657 22.2815 6.11372C24.184 6.69088 25.8275 7.90984 26.9321 9.56291C28.0366 11.216 28.5338 13.2009 28.3389 15.1795C28.144 17.158 27.2691 19.0078 25.8633 20.4136C25.0671 21.2141 24.1201 21.8487 23.077 22.2808C22.0339 22.7128 20.9155 22.9337 19.7865 22.9306ZM19.7865 6.91383C15.6931 6.91383 12.3632 10.2444 12.3632 14.3371C12.3632 18.4298 15.6938 21.7604 19.7865 21.7604C23.8791 21.7604 27.2097 18.4302 27.2097 14.3371C27.2097 10.2441 23.8799 6.91273 19.7865 6.91273V6.91383Z" fill="url(#paint8_linear_8046_2215)"/>
</g>
<defs>
<linearGradient id="paint0_linear_8046_2215" x1="9.11872" y1="28.9102" x2="9.09211" y2="32.0756" gradientUnits="userSpaceOnUse">
<stop stop-color="#005CAA"/>
<stop offset="1" stop-color="#64B0F1"/>
</linearGradient>
<linearGradient id="paint1_linear_8046_2215" x1="14.6187" y1="28.9102" x2="14.5921" y2="32.0756" gradientUnits="userSpaceOnUse">
<stop stop-color="#005CAA"/>
<stop offset="1" stop-color="#64B0F1"/>
</linearGradient>
<linearGradient id="paint2_linear_8046_2215" x1="20.1168" y1="28.9102" x2="20.0902" y2="32.0756" gradientUnits="userSpaceOnUse">
<stop stop-color="#005CAA"/>
<stop offset="1" stop-color="#64B0F1"/>
</linearGradient>
<linearGradient id="paint3_linear_8046_2215" x1="25.6129" y1="28.9102" x2="25.5863" y2="32.0756" gradientUnits="userSpaceOnUse">
<stop stop-color="#005CAA"/>
<stop offset="1" stop-color="#64B0F1"/>
</linearGradient>
<linearGradient id="paint4_linear_8046_2215" x1="31.1109" y1="28.9102" x2="31.0843" y2="32.0756" gradientUnits="userSpaceOnUse">
<stop stop-color="#005CAA"/>
<stop offset="1" stop-color="#64B0F1"/>
</linearGradient>
<linearGradient id="paint5_linear_8046_2215" x1="28.2802" y1="25.2017" x2="28.265" y2="37.3748" gradientUnits="userSpaceOnUse">
<stop stop-color="#005CAA"/>
<stop offset="1" stop-color="#64B0F1"/>
</linearGradient>
<linearGradient id="paint6_linear_8046_2215" x1="21.382" y1="9.25146" x2="21.3663" y2="14.6155" gradientUnits="userSpaceOnUse">
<stop stop-color="#005CAA"/>
<stop offset="1" stop-color="#64B0F1"/>
</linearGradient>
<linearGradient id="paint7_linear_8046_2215" x1="22.1419" y1="12.4976" x2="22.1158" y2="20.9077" gradientUnits="userSpaceOnUse">
<stop stop-color="#005CAA"/>
<stop offset="1" stop-color="#64B0F1"/>
</linearGradient>
<linearGradient id="paint8_linear_8046_2215" x1="24.5839" y1="5.74365" x2="24.5051" y2="26.6137" gradientUnits="userSpaceOnUse">
<stop stop-color="#005CAA"/>
<stop offset="1" stop-color="#64B0F1"/>
</linearGradient>
<clipPath id="clip0_8046_2215">
<rect width="39.7513" height="40.3589" fill="white" transform="translate(0.09375 -0.0078125)"/>
</clipPath>
</defs>
</svg>
