<svg width="60" height="60" viewBox="0 0 60 60" fill="none" xmlns="http://www.w3.org/2000/svg">
<path d="M13.9227 3.74414H45.3985C46.3896 3.74414 47.2898 4.14897 47.9419 4.80115C48.5941 5.45333 48.9991 6.35383 48.9991 7.34459V51.6573C48.9991 52.648 48.5941 53.5483 47.9419 54.2007C47.2898 54.8527 46.3896 55.2575 45.3985 55.2575H13.9227C12.9318 55.2575 12.0315 54.8527 11.3795 54.2007C10.7271 53.5483 10.3223 52.648 10.3223 51.6573V7.34459C10.3223 6.35383 10.7271 5.45333 11.3795 4.80115C12.0315 4.14897 12.9318 3.74414 13.9227 3.74414ZM29.2974 26.5641C29.2974 26.5147 29.3093 26.4683 29.3308 26.4274C29.0288 26.3769 28.7545 26.2686 28.515 26.1282C28.0528 25.8574 27.7187 25.4611 27.5671 25.1333C27.53 25.0529 27.5024 24.9748 27.4853 24.9019C27.4484 24.7434 27.5469 24.5851 27.7053 24.5482C27.8636 24.5112 28.0221 24.6097 28.0591 24.7682C28.0671 24.8036 28.0817 24.8435 28.1015 24.8867C28.2112 25.1241 28.4608 25.4154 28.8123 25.6215C29.1611 25.8258 29.6094 25.94 30.118 25.8207C30.2509 25.7896 30.3884 25.7426 30.529 25.6775C30.9 25.5061 31.1355 25.2432 31.2568 24.9481C31.3599 24.6972 31.3831 24.4196 31.3384 24.1526C31.2936 23.8832 31.1804 23.6264 31.0113 23.4194C30.8121 23.1752 30.5333 23.0006 30.1977 22.9599V22.9589L29.0651 22.7816L29.0541 22.7804C28.5559 22.7198 28.145 22.4642 27.8534 22.1066C27.6194 21.8201 27.4631 21.4674 27.4018 21.0993C27.34 20.7289 27.3739 20.3402 27.5203 19.9835C27.6953 19.558 28.0276 19.1823 28.5453 18.943C28.7242 18.8602 28.8994 18.8005 29.0693 18.7605C29.1483 18.7421 29.2264 18.7277 29.3033 18.7175V17.7932C29.3033 17.6302 29.4354 17.4983 29.5982 17.4983C29.761 17.4983 29.8931 17.6302 29.8931 17.7932V18.7136C30.2334 18.7554 30.541 18.8716 30.8058 19.0268C31.268 19.2977 31.6021 19.6939 31.7539 20.0218C31.791 20.1023 31.8186 20.1803 31.8357 20.2533C31.8724 20.4115 31.7739 20.57 31.6157 20.607C31.4572 20.6437 31.2987 20.5452 31.2619 20.387C31.2537 20.3516 31.2393 20.3115 31.2193 20.2684C31.1096 20.0309 30.8601 19.7395 30.5085 19.5336C30.2555 19.3854 29.9501 19.2845 29.6076 19.2859L29.5982 19.2861H29.5927C29.4676 19.2877 29.3373 19.3028 29.203 19.3343C29.0699 19.3655 28.9324 19.4125 28.7919 19.4776C28.421 19.6489 28.1853 19.9119 28.0642 20.2071C27.9609 20.4579 27.9379 20.7354 27.9824 21.0026C28.0272 21.2719 28.1405 21.5287 28.3095 21.7358C28.5089 21.9799 28.7875 22.1545 29.1232 22.1952C29.1346 22.1966 29.1458 22.1986 29.1566 22.2011L30.2667 22.3753V22.3746C30.7649 22.4351 31.1758 22.6909 31.4676 23.0484C31.7014 23.3348 31.8577 23.6876 31.919 24.0556C31.9808 24.4261 31.9472 24.815 31.8005 25.1714C31.6257 25.5971 31.2934 25.9726 30.7755 26.2119C30.5966 26.2947 30.4216 26.3547 30.2515 26.3944C30.1198 26.4253 29.991 26.4443 29.8654 26.453C29.8793 26.4872 29.8872 26.5247 29.8872 26.5641V27.8775C29.8872 28.0403 29.7551 28.1724 29.5923 28.1724C29.4293 28.1724 29.2974 28.0403 29.2974 27.8775V26.5641ZM32.9251 19.4039C32.7733 19.2495 32.7755 19.0012 32.9298 18.8494C33.0842 18.6976 33.3325 18.6996 33.4843 18.8541C33.5504 18.921 33.6178 18.9931 33.6864 19.0706C33.7499 19.1424 33.8136 19.2183 33.8771 19.2985C34.0112 19.4682 33.9823 19.7143 33.8127 19.8484C33.643 19.9823 33.3968 19.9536 33.2627 19.7839C33.2122 19.72 33.1577 19.6554 33.0997 19.5897C33.0464 19.5297 32.988 19.4676 32.9251 19.4039ZM33.8191 20.6821C33.7265 20.4863 33.8105 20.2525 34.0065 20.1599C34.2024 20.0675 34.4361 20.1514 34.5287 20.3472C34.6937 20.698 34.8225 21.0716 34.9094 21.4627C34.9945 21.8445 35.0394 22.2369 35.0394 22.6351C35.0394 23.3559 34.896 24.046 34.6361 24.6781C34.3671 25.3327 33.9725 25.9225 33.4827 26.4176C33.3302 26.5711 33.0818 26.5717 32.9283 26.4192C32.7747 26.2664 32.7741 26.0181 32.9267 25.8645C33.3449 25.442 33.6815 24.9386 33.9112 24.3802C34.1314 23.8445 34.2529 23.2552 34.2529 22.6351C34.2529 22.2859 34.2153 21.9501 34.1444 21.6315C34.071 21.302 33.9611 20.9839 33.8191 20.6821ZM26.3945 25.8645C26.5473 26.0181 26.5465 26.2664 26.3931 26.4192C26.2396 26.5717 25.9912 26.5711 25.8387 26.4176C25.7671 26.3452 25.703 26.2776 25.647 26.2145L25.6277 26.1911C25.5683 26.1242 25.5148 26.0609 25.4669 26.0014C25.3312 25.8327 25.3581 25.5857 25.5268 25.4498C25.6957 25.3142 25.9427 25.3409 26.0783 25.5098C26.1263 25.5694 26.1715 25.6235 26.2138 25.6716L26.2337 25.6923C26.2917 25.7575 26.3455 25.815 26.3945 25.8645ZM25.5473 24.6795C25.644 24.8738 25.565 25.1097 25.3707 25.2064C25.1765 25.3032 24.9405 25.2239 24.8438 25.0299C24.6619 24.6642 24.5198 24.2741 24.424 23.8657C24.3312 23.4691 24.2819 23.057 24.2819 22.6351C24.2819 21.9143 24.4252 21.2242 24.6851 20.592C24.9543 19.9373 25.3487 19.3475 25.8387 18.8526C25.9912 18.699 26.2396 18.6984 26.3931 18.851C26.5465 19.0038 26.5473 19.2521 26.3945 19.4055C25.9765 19.8282 25.6397 20.3315 25.4102 20.8899C25.1898 21.4257 25.0685 22.0149 25.0685 22.6351C25.0685 22.9986 25.1102 23.351 25.189 23.6874C25.2704 24.0344 25.3916 24.3669 25.5473 24.6795ZM29.6607 14.1253C32.0105 14.1253 34.1379 15.0779 35.6778 16.6178C37.2179 18.1579 38.1705 20.2853 38.1705 22.6351C38.1705 24.9848 37.2179 27.1122 35.6778 28.6521C34.1379 30.1922 32.0105 31.1447 29.6607 31.1447C27.3109 31.1447 25.1833 30.1922 23.6434 28.6521C22.1035 27.1122 21.1509 24.9848 21.1509 22.6351C21.1509 20.2853 22.1035 18.1579 23.6434 16.6178C25.1833 15.0779 27.3109 14.1253 29.6607 14.1253ZM35.1219 17.1739C33.7244 15.7763 31.7934 14.912 29.6607 14.912C27.5278 14.912 25.597 15.7763 24.1995 17.1739C22.8019 18.5714 21.9374 20.5024 21.9374 22.6351C21.9374 24.7678 22.8019 26.6988 24.1995 28.0963C25.597 29.4937 27.5278 30.3582 29.6607 30.3582C31.7934 30.3582 33.7244 29.4937 35.1219 28.0963C36.5193 26.6988 37.3838 24.7678 37.3838 22.6351C37.3838 20.5024 36.5195 18.5714 35.1219 17.1739ZM23.1456 30.6085C23.6959 31.0589 24.2777 31.4423 24.8809 31.7579C25.4975 32.0804 26.1476 32.3383 26.8196 32.5306C27.1122 32.614 27.2901 32.9044 27.239 33.1977L27.0095 35.7528L29.9318 36.0154L30.1652 33.4148C30.19 33.1283 30.4165 32.9077 30.6927 32.8808V32.8802C31.3797 32.8118 32.0655 32.6728 32.7385 32.4626C33.397 32.2569 34.0384 31.984 34.651 31.6437C34.9017 31.5043 35.2104 31.5678 35.3878 31.7801L35.3883 31.7795L37.0617 33.7832L39.3114 31.9044L37.6388 29.9016C37.4542 29.681 37.4587 29.3653 37.6345 29.1508C38.0847 28.6002 38.4683 28.0181 38.7837 27.4148C39.1062 26.7984 39.3641 26.1482 39.556 25.4762C39.6394 25.1834 39.93 25.0057 40.2231 25.0568L42.7784 25.2863L43.0409 22.3637L40.44 22.1302C40.1535 22.1054 39.9329 21.8787 39.906 21.6024H39.9054C39.8368 20.9159 39.698 20.2308 39.488 19.5584C39.2821 18.8996 39.0092 18.258 38.6687 17.6449C38.5293 17.3943 38.593 17.0856 38.8053 16.9082L38.8048 16.9076L40.8087 15.234L38.93 12.9841L36.9271 14.6568C36.7067 14.8412 36.3909 14.8369 36.1764 14.6609C35.6257 14.2108 35.0437 13.8272 34.4405 13.5119C33.8239 13.1894 33.1738 12.9316 32.5018 12.7394C32.2091 12.6562 32.0313 12.3658 32.0822 12.0724L32.3119 9.5172L29.3894 9.25472L29.1558 11.8558C29.1308 12.1422 28.9043 12.3628 28.6281 12.3896V12.3902C27.9417 12.4586 27.2565 12.5976 26.5842 12.8076C25.9252 13.0136 25.2836 13.2863 24.6706 13.6269C24.4199 13.7663 24.1112 13.7028 23.9338 13.4904L23.9333 13.4908L22.2597 11.4869L20.01 13.3656L21.6826 15.3685C21.867 15.5889 21.8625 15.9049 21.6867 16.1192C21.2365 16.6699 20.8531 17.2519 20.5375 17.8553C20.215 18.4717 19.9573 19.1217 19.7652 19.794C19.682 20.0865 19.3914 20.2643 19.0981 20.2134L16.543 19.9839L16.2805 22.9062L18.8814 23.14C19.1679 23.1648 19.3885 23.3915 19.4152 23.6677L19.4158 23.6675C19.4844 24.3541 19.6232 25.0391 19.8334 25.7115C20.0393 26.3706 20.3122 27.0122 20.6525 27.6252C20.7919 27.8759 20.7284 28.1846 20.5161 28.3619L20.5166 28.3625L18.5125 30.0361L20.3914 32.2858L22.3945 30.613C22.6149 30.4284 22.9309 30.4329 23.1456 30.6085ZM24.3373 32.7994C23.7954 32.5159 23.2758 32.1899 22.784 31.822L20.6946 33.567C20.4453 33.7756 20.0739 33.7425 19.8653 33.4932L17.2314 30.3395C17.0228 30.0902 17.0558 29.7186 17.3053 29.51L19.3963 27.7636C19.1187 27.209 18.8896 26.6398 18.709 26.0617C18.5255 25.4744 18.3906 24.8743 18.3041 24.2676L15.5922 24.024C15.2691 23.9961 15.0297 23.7112 15.0576 23.3881L15.4255 19.2955C15.4534 18.9723 15.7381 18.733 16.0613 18.7609L18.7758 19.0049C18.9679 18.4285 19.2082 17.862 19.496 17.3117C19.7795 16.7696 20.1055 16.2498 20.4734 15.758L18.7288 13.669C18.5202 13.4197 18.5532 13.0482 18.8025 12.8394L21.9563 10.2058C22.2056 9.99714 22.577 10.0302 22.7858 10.2795L24.5322 12.3707C25.0868 12.0929 25.656 11.8638 26.2339 11.6833C26.8214 11.4997 27.4214 11.365 28.028 11.2785L28.2716 8.56636C28.2997 8.24332 28.5844 8.00384 28.9077 8.03196L33 8.39963C33.3233 8.42755 33.5626 8.71225 33.5346 9.03549L33.2908 11.7502C33.8671 11.9423 34.4336 12.1825 34.9841 12.4704C35.526 12.7537 36.0458 13.0797 36.5376 13.4478L38.6266 11.7032C38.8759 11.4946 39.2473 11.5276 39.4562 11.7769L42.0898 14.9307C42.2984 15.18 42.2654 15.5514 42.0161 15.76L39.9249 17.5065C40.2027 18.061 40.4318 18.6304 40.6123 19.2082C40.7959 19.7955 40.9306 20.3958 41.0171 21.0024L43.729 21.2462C44.0523 21.2741 44.2915 21.5588 44.2636 21.882L43.896 25.9746C43.868 26.2977 43.5833 26.5371 43.2601 26.509L40.5454 26.2652C40.3533 26.8415 40.1132 27.4081 39.8252 27.9585C39.5419 28.5004 39.2159 29.0202 38.8478 29.5121L40.5924 31.6012C40.801 31.8505 40.7682 32.2219 40.5187 32.4305L37.3649 35.0642C37.1156 35.273 36.7442 35.24 36.5356 34.9905L34.7896 32.8998C34.2354 33.1777 33.6664 33.4065 33.0887 33.587C32.5008 33.7707 31.9 33.9053 31.2928 33.9919L31.0496 36.7036C31.0217 37.0268 30.7368 37.2661 30.4137 37.2382L26.3212 36.8705C25.9981 36.8426 25.7586 36.5577 25.7866 36.2347L26.0306 33.5198C25.4541 33.3277 24.8876 33.0872 24.3373 32.7994ZM14.128 39.1515C13.965 39.1515 13.8331 39.0195 13.8331 38.8565C13.8331 38.6937 13.965 38.5616 14.128 38.5616H24.4089C24.5717 38.5616 24.7038 38.6937 24.7038 38.8565C24.7038 39.0195 24.5717 39.1515 24.4089 39.1515H14.128ZM14.128 50.0926C13.965 50.0926 13.8331 49.9605 13.8331 49.7977C13.8331 49.6349 13.965 49.5028 14.128 49.5028H40.1653C40.3281 49.5028 40.4603 49.6349 40.4603 49.7977C40.4603 49.9605 40.3281 50.0926 40.1653 50.0926H14.128ZM42.3016 50.0926C42.1388 50.0926 42.0067 49.9605 42.0067 49.7977C42.0067 49.6349 42.1388 49.5028 42.3016 49.5028H44.2512C44.4142 49.5028 44.5462 49.6349 44.5462 49.7977C44.5462 49.9605 44.4142 50.0926 44.2512 50.0926H42.3016ZM14.128 47.3254C13.965 47.3254 13.8331 47.1933 13.8331 47.0305C13.8331 46.8675 13.965 46.7356 14.128 46.7356H16.4284C16.5912 46.7356 16.7233 46.8675 16.7233 47.0305C16.7233 47.1933 16.5912 47.3254 16.4284 47.3254H14.128ZM18.5638 47.3254C18.401 47.3254 18.2689 47.1933 18.2689 47.0305C18.2689 46.8675 18.401 46.7356 18.5638 46.7356H44.2512C44.4142 46.7356 44.5462 46.8675 44.5462 47.0305C44.5462 47.1933 44.4142 47.3254 44.2512 47.3254H18.5638ZM14.128 44.5576C13.965 44.5576 13.8331 44.4255 13.8331 44.2627C13.8331 44.0999 13.965 43.9678 14.128 43.9678H21.7563C21.9191 43.9678 22.0512 44.0999 22.0512 44.2627C22.0512 44.4255 21.9191 44.5576 21.7563 44.5576H14.128ZM23.8918 44.5576C23.729 44.5576 23.5968 44.4255 23.5968 44.2627C23.5968 44.0999 23.729 43.9678 23.8918 43.9678H44.2512C44.4142 43.9678 44.5462 44.0999 44.5462 44.2627C44.5462 44.4255 44.4142 44.5576 44.2512 44.5576H23.8918ZM14.128 41.7895C13.965 41.7895 13.8331 41.6574 13.8331 41.4946C13.8331 41.3318 13.965 41.1996 14.128 41.1996H40.1653C40.3281 41.1996 40.4603 41.3318 40.4603 41.4946C40.4603 41.6574 40.3281 41.7895 40.1653 41.7895H14.128ZM42.3016 41.7895C42.1388 41.7895 42.0067 41.6574 42.0067 41.4946C42.0067 41.3318 42.1388 41.1996 42.3016 41.1996H44.2512C44.4142 41.1996 44.5462 41.3318 44.5462 41.4946C44.5462 41.6574 44.4142 41.7895 44.2512 41.7895H42.3016ZM45.3985 4.92384H13.9227C13.2576 4.92384 12.6526 5.19635 12.2135 5.6352C11.7745 6.07425 11.502 6.67943 11.502 7.34459V51.6573C11.502 52.3224 11.7745 52.9276 12.2135 53.3665C12.6526 53.8055 13.2576 54.078 13.9227 54.078H45.3985C46.0638 54.078 46.6688 53.8055 47.1079 53.3665C47.5469 52.9276 47.8194 52.3224 47.8194 51.6573V7.34459C47.8194 6.67943 47.5469 6.07425 47.1079 5.6354C46.6688 5.19635 46.0638 4.92384 45.3985 4.92384Z" fill="#CC1212"/>
</svg>
