<svg width="50" height="50" viewBox="0 0 50 50" fill="none" xmlns="http://www.w3.org/2000/svg">
<path d="M22.3744 45.3615L24.4639 46.257C24.5236 46.3167 24.643 46.3167 24.7027 46.3167C24.7624 46.3167 24.8818 46.3167 24.9415 46.257L27.3294 45.2421C35.6275 41.7796 41.0004 33.7203 41.0004 24.7058V13.1243C41.0004 12.8855 40.881 12.7064 40.7019 12.587L25.0609 4.2292C24.8818 4.1098 24.643 4.1098 24.4639 4.2292L9.30045 12.587C9.12135 12.7064 9.00195 12.8855 9.00195 13.1243V24.9446C9.00195 33.78 14.2554 41.8393 22.3744 45.3615ZM10.1959 13.4825L24.8221 5.42317L39.8064 13.4825V24.7058C39.8064 33.2427 34.732 40.8244 26.8518 44.1078L24.7027 45.0033L22.852 44.1675C15.1509 40.8244 10.1959 33.2427 10.1959 24.8849V13.4825Z" fill="black"/>
<path d="M22.4918 30.5554H22.5515L22.9694 30.1972L32.9391 22.0782L32.2227 21.123L22.6709 28.8839L18.5517 24.0483L17.6562 24.8244L22.1336 30.0778L22.4918 30.5554Z" fill="black"/>
</svg>
