<svg width="50" height="50" viewBox="0 0 50 50" fill="none" xmlns="http://www.w3.org/2000/svg">
<path d="M25.0659 44.7822L13.7055 33.4236C10.6703 30.3893 9 26.353 9 22.0632C9 17.7725 10.6712 13.7389 13.7055 10.7046C16.7389 7.67124 20.7743 6 25.065 6C29.3571 6 33.3902 7.67124 36.4245 10.7046C42.6873 16.9674 42.6873 27.159 36.4245 33.4236L25.0659 44.7822ZM25.065 7.69357C21.2266 7.69357 17.6179 9.18839 14.9031 11.9022C12.1884 14.616 10.6936 18.2247 10.6936 22.0632C10.6936 25.9017 12.1884 29.5122 14.9031 32.226L25.0659 42.387L35.2274 32.226C40.8296 26.621 40.8296 17.5045 35.2274 11.9022C32.5136 9.18839 28.9049 7.69357 25.065 7.69357ZM25.0641 30.7266C20.2309 30.7266 16.299 26.7938 16.299 21.9615C16.299 17.1284 20.2309 13.1955 25.0641 13.1955C29.8973 13.1955 33.8292 17.1284 33.8292 21.9615C33.8292 26.7938 29.8973 30.7266 25.0641 30.7266ZM25.0641 14.8896C21.165 14.8896 17.9926 18.062 17.9926 21.962C17.9926 25.8611 21.165 29.0335 25.0641 29.0335C28.9641 29.0335 32.1356 25.8611 32.1356 21.962C32.1361 18.062 28.9641 14.8896 25.0641 14.8896Z" fill="black"/>
</svg>
