<svg width="41" height="41" viewBox="0 0 41 41" fill="none" xmlns="http://www.w3.org/2000/svg">
<g clip-path="url(#clip0_8046_2202)">
<path d="M35.8223 7.1001H6.17963C5.1823 7.1001 4.37891 7.9035 4.37891 8.90082V32.1994C4.37891 33.1967 5.1823 34.0001 6.17963 34.0001H35.8223C36.8196 34.0001 37.623 33.1967 37.623 32.1994V8.90082C37.623 7.9312 36.8196 7.1001 35.8223 7.1001ZM6.17963 8.48527H35.8223C36.0439 8.48527 36.2378 8.67919 36.2378 8.90082V13.3611H5.76408V8.90082C5.76408 8.67919 5.958 8.48527 6.17963 8.48527ZM35.8223 32.6426H6.17963C5.958 32.6426 5.76408 32.4487 5.76408 32.2271V14.1922H36.2378V32.2271C36.2378 32.4487 36.0439 32.6426 35.8223 32.6426Z" fill="url(#paint0_linear_8046_2202)"/>
<path d="M8.28459 11.8651C8.75889 11.8651 9.14339 11.4806 9.14339 11.0063C9.14339 10.532 8.75889 10.1475 8.28459 10.1475C7.81028 10.1475 7.42578 10.532 7.42578 11.0063C7.42578 11.4806 7.81028 11.8651 8.28459 11.8651Z" fill="url(#paint1_linear_8046_2202)"/>
<path d="M11.0561 11.8651C11.5304 11.8651 11.9149 11.4806 11.9149 11.0063C11.9149 10.532 11.5304 10.1475 11.0561 10.1475C10.5818 10.1475 10.1973 10.532 10.1973 11.0063C10.1973 11.4806 10.5818 11.8651 11.0561 11.8651Z" fill="url(#paint2_linear_8046_2202)"/>
<path d="M13.8256 11.8651C14.2999 11.8651 14.6844 11.4806 14.6844 11.0063C14.6844 10.532 14.2999 10.1475 13.8256 10.1475C13.3513 10.1475 12.9668 10.532 12.9668 11.0063C12.9668 11.4806 13.3513 11.8651 13.8256 11.8651Z" fill="url(#paint3_linear_8046_2202)"/>
<path d="M16.8723 20.8966V19.7608C16.8723 18.6526 15.9858 17.7661 14.9054 17.7661C13.8249 17.7661 12.9384 18.6526 12.9384 19.7608V20.8966C12.2735 21.0628 11.7472 21.6446 11.6641 22.3372V22.5034V25.9386V27.4346H18.1744V25.9386H30.4193V22.3372H18.119C18.0635 21.6446 17.5372 21.0628 16.8723 20.8966ZM29.5328 25.1352H18.1467V23.196H29.5605V25.1352H29.5328ZM12.4675 26.6035V25.1075V23.1683V22.5034C12.4675 22.0324 12.8553 21.6723 13.2986 21.6723H13.7418H16.0412H16.4845C16.9554 21.6723 17.3156 22.0601 17.3156 22.5034V26.5758H12.4675V26.6035ZM14.8777 18.5972C15.5148 18.5972 16.0135 19.1236 16.0135 19.7608V20.8412H13.7141V19.7608C13.7418 19.1236 14.2405 18.5972 14.8777 18.5972Z" fill="url(#paint4_linear_8046_2202)"/>
<path d="M15.294 22.8081H14.4629V25.4676H15.294V22.8081Z" fill="url(#paint5_linear_8046_2202)"/>
</g>
<defs>
<linearGradient id="paint0_linear_8046_2202" x1="30.2797" y1="7.1001" x2="30.1799" y2="39.7648" gradientUnits="userSpaceOnUse">
<stop stop-color="#005CAA"/>
<stop offset="1" stop-color="#64B0F1"/>
</linearGradient>
<linearGradient id="paint1_linear_8046_2202" x1="8.76399" y1="10.1475" x2="8.75612" y2="12.2331" gradientUnits="userSpaceOnUse">
<stop stop-color="#005CAA"/>
<stop offset="1" stop-color="#64B0F1"/>
</linearGradient>
<linearGradient id="paint2_linear_8046_2202" x1="11.5355" y1="10.1475" x2="11.5276" y2="12.2331" gradientUnits="userSpaceOnUse">
<stop stop-color="#005CAA"/>
<stop offset="1" stop-color="#64B0F1"/>
</linearGradient>
<linearGradient id="paint3_linear_8046_2202" x1="14.305" y1="10.1475" x2="14.2971" y2="12.2331" gradientUnits="userSpaceOnUse">
<stop stop-color="#005CAA"/>
<stop offset="1" stop-color="#64B0F1"/>
</linearGradient>
<linearGradient id="paint4_linear_8046_2202" x1="26.2764" y1="17.7661" x2="26.2536" y2="29.5066" gradientUnits="userSpaceOnUse">
<stop stop-color="#005CAA"/>
<stop offset="1" stop-color="#64B0F1"/>
</linearGradient>
<linearGradient id="paint5_linear_8046_2202" x1="15.1104" y1="22.8081" x2="15.0714" y2="26.0371" gradientUnits="userSpaceOnUse">
<stop stop-color="#005CAA"/>
<stop offset="1" stop-color="#64B0F1"/>
</linearGradient>
<clipPath id="clip0_8046_2202">
<rect width="39.7513" height="40.3589" fill="white" transform="translate(0.796875 -0.0078125)"/>
</clipPath>
</defs>
</svg>
