<svg width="50" height="50" viewBox="0 0 50 50" fill="none" xmlns="http://www.w3.org/2000/svg">
<path d="M33.3636 12C30.2775 12 27.3347 13.1167 25.0243 15.1495L23.7111 13.8363C23.5328 13.6581 23.2439 13.6581 23.0657 13.8363L21.4085 15.493C20.8733 15.2121 20.31 14.9797 19.7267 14.7995V12.4564C19.7267 12.2039 19.5223 12 19.2703 12H14.0025C13.7505 12 13.5461 12.2044 13.5461 12.4564V14.7991C12.9628 14.9797 12.3991 15.2121 11.8638 15.4925L10.2071 13.8359C10.0289 13.6576 9.74 13.6576 9.56173 13.8359L5.83587 17.5617C5.75047 17.6471 5.70193 17.7633 5.70193 17.8847C5.70193 18.006 5.75 18.1217 5.83587 18.2076L7.493 19.8643C7.2116 20.4005 6.9792 20.9642 6.79907 21.5466H4.4564C4.2044 21.5466 4 21.7505 4 22.003V27.2698C4 27.5223 4.2044 27.7262 4.4564 27.7262H6.79907C6.9792 28.3095 7.2116 28.8728 7.49253 29.4085L5.83587 31.0652C5.75047 31.1506 5.70193 31.2668 5.70193 31.3881C5.70193 31.5095 5.75 31.6252 5.83587 31.7111L9.56127 35.4365C9.73953 35.6147 10.0284 35.6147 10.2067 35.4365L11.8633 33.7798C12.3986 34.0607 12.9623 34.2931 13.5457 34.4737V36.8164C13.5457 37.0689 13.7501 37.2728 14.0021 37.2728H19.2693C19.5213 37.2728 19.7257 37.0684 19.7257 36.8164V34.4737C20.3091 34.2931 20.8723 34.0607 21.4076 33.7798L23.0647 35.4365C23.243 35.6147 23.5319 35.6147 23.7101 35.4365L25.0233 34.1233C27.3338 36.1561 30.2766 37.2728 33.3627 37.2728C40.3314 37.2728 46 31.6042 46 24.6364C46 17.6686 40.3314 12 33.3636 12ZM27.4365 31.7111C27.5219 31.6257 27.5704 31.5095 27.5704 31.3881C27.5704 31.2668 27.5223 31.1511 27.4365 31.0652L25.7793 29.4085C26.0607 28.8733 26.2931 28.3095 26.4733 27.7262H28.8155C29.0679 27.7262 29.2719 27.5218 29.2719 27.2698V22.003C29.2719 21.7505 29.0675 21.5466 28.8155 21.5466H26.4733C26.2927 20.9633 26.0603 20.4 25.7793 19.8643L27.4365 18.2076C27.5219 18.1222 27.5704 18.006 27.5704 17.8847C27.5704 17.7633 27.5223 17.6476 27.4365 17.5617L27.1835 17.3088C28.9121 15.8458 31.0891 15.045 33.3636 15.045C38.6523 15.045 42.9555 19.3477 42.9555 24.6364C42.9555 29.9251 38.6523 34.2278 33.3636 34.2278C31.0891 34.2278 28.9121 33.427 27.1835 31.964L27.4365 31.7111ZM23.3881 34.4681L21.8117 32.8922C21.6666 32.7475 21.4412 32.7163 21.2625 32.8185C20.6035 33.1946 19.8928 33.4881 19.1499 33.6902C18.9511 33.7443 18.8129 33.9249 18.8129 34.1307V36.36H14.4589V34.1307C14.4589 33.9249 14.3208 33.7443 14.122 33.6902C13.3786 33.4881 12.6679 33.1951 12.0089 32.8185C11.8297 32.7158 11.6053 32.7471 11.4597 32.8922L9.88373 34.4681L6.80373 31.3886L8.38013 29.8127C8.52573 29.6675 8.5556 29.4421 8.45387 29.2634C8.07727 28.604 7.78373 27.8933 7.5826 27.1508C7.52847 26.952 7.34787 26.8139 7.14207 26.8139H4.91327V22.4599H7.14207C7.34833 22.4599 7.52893 22.3217 7.5826 22.1229C7.78373 21.3809 8.0768 20.6702 8.45387 20.0103C8.55607 19.8316 8.52573 19.6062 8.38013 19.4611L6.80373 17.8851L9.88373 14.8056L11.4597 16.3815C11.6053 16.5271 11.8302 16.5579 12.0089 16.4553C12.6679 16.0791 13.3786 15.7856 14.122 15.5835C14.3208 15.5294 14.4589 15.3488 14.4589 15.143V12.9137H18.8129V15.143C18.8129 15.3488 18.9511 15.5294 19.1499 15.5835C19.8928 15.7856 20.6035 16.0787 21.2625 16.4553C21.4417 16.5584 21.6666 16.5276 21.8117 16.3815L23.3881 14.8056L26.1956 17.6131L26.4681 17.8856L24.8917 19.4615C24.7461 19.6067 24.7163 19.8321 24.818 20.0108C25.1946 20.6697 25.4877 21.3809 25.6897 22.1234C25.7439 22.3222 25.9245 22.4603 26.1303 22.4603H28.3591V26.8143H26.1303C25.9245 26.8143 25.7439 26.9525 25.6897 27.1513C25.4877 27.8947 25.1946 28.6054 24.818 29.2639C24.7158 29.4426 24.7461 29.6675 24.8917 29.8131L26.4681 31.3891L26.1956 31.6616L23.3881 34.4681ZM33.3636 36.3595C30.5207 36.3595 27.8065 35.3394 25.6697 33.4783L26.5442 32.6038C28.4463 34.2371 30.8469 35.1411 33.3636 35.1411C39.1563 35.1411 43.8687 30.4287 43.8687 24.6364C43.8687 18.8441 39.1563 14.1317 33.3636 14.1317C30.8469 14.1317 28.4463 15.0357 26.5442 16.669L25.6697 15.7945C27.8065 13.9329 30.5207 12.9133 33.3636 12.9133C39.8279 12.9133 45.0867 18.1721 45.0867 24.6364C45.0867 31.1007 39.8279 36.3595 33.3636 36.3595Z" fill="black"/>
<path d="M33.8188 32.5536V31.0388C35.5034 30.8143 36.8082 29.3714 36.8082 27.6265C36.8082 25.7263 35.2621 24.1802 33.3619 24.1802C31.9651 24.1802 30.8288 23.0439 30.8288 21.6471C30.8288 20.2504 31.9651 19.1141 33.3619 19.1141H36.3513C36.6038 19.1141 36.8077 18.9097 36.8077 18.6577C36.8077 18.4057 36.6033 18.2013 36.3513 18.2013H33.8183V16.7201C33.8183 16.4676 33.6139 16.2637 33.3619 16.2637C33.1099 16.2637 32.9055 16.4681 32.9055 16.7201V18.2349C31.2208 18.4593 29.916 19.9023 29.916 21.6471C29.916 23.5474 31.4621 25.0935 33.3623 25.0935C34.7591 25.0935 35.8954 26.2298 35.8954 27.6265C35.8954 29.0233 34.7591 30.1596 33.3623 30.1596H30.3729C30.1204 30.1596 29.9165 30.364 29.9165 30.616C29.9165 30.868 30.1209 31.0724 30.3729 31.0724H32.9059V32.5536C32.9059 32.8061 33.1103 33.01 33.3623 33.01C33.6143 33.01 33.8188 32.8061 33.8188 32.5536Z" fill="black"/>
<path d="M16.6362 18.1426C13.0555 18.1426 10.1426 21.0555 10.1426 24.6362C10.1426 28.217 13.0555 31.1299 16.6362 31.1299C20.217 31.1299 23.1304 28.217 23.1304 24.6362C23.1304 21.0555 20.217 18.1426 16.6362 18.1426ZM16.6362 30.2171C13.559 30.2171 11.0558 27.7134 11.0558 24.6362C11.0558 21.559 13.5595 19.0554 16.6362 19.0554C19.7134 19.0554 22.2171 21.559 22.2171 24.6362C22.2171 27.7134 19.7139 30.2171 16.6362 30.2171Z" fill="black"/>
</svg>
