<svg width="41" height="41" viewBox="0 0 41 41" fill="none" xmlns="http://www.w3.org/2000/svg">
<g clip-path="url(#clip0_8046_2349)">
<path d="M32.2133 18.5815L29.7218 21.0827L28.5738 19.9251C28.5219 19.8732 28.4516 19.8441 28.3782 19.8441C28.3048 19.8441 28.2345 19.8732 28.1826 19.9251C28.1307 19.977 28.1016 20.0473 28.1016 20.1207C28.1016 20.1941 28.1307 20.2644 28.1826 20.3163L29.5262 21.6599C29.5516 21.686 29.582 21.7069 29.6156 21.7211C29.6492 21.7353 29.6853 21.7426 29.7218 21.7426C29.7582 21.7426 29.7944 21.7353 29.828 21.7211C29.8616 21.7069 29.892 21.686 29.9174 21.6599L32.6045 18.9727C32.6302 18.947 32.6506 18.9165 32.6645 18.883C32.6784 18.8494 32.6855 18.8134 32.6855 18.7771C32.6855 18.7408 32.6784 18.7048 32.6645 18.6713C32.6506 18.6377 32.6302 18.6072 32.6045 18.5815C32.5788 18.5558 32.5483 18.5354 32.5148 18.5215C32.4812 18.5076 32.4452 18.5005 32.4089 18.5005C32.3726 18.5005 32.3366 18.5076 32.3031 18.5215C32.2695 18.5354 32.239 18.5558 32.2133 18.5815Z" fill="url(#paint0_linear_8046_2349)"/>
<path d="M32.2133 18.5815L29.7218 21.0827L28.5738 19.9251C28.5219 19.8732 28.4516 19.8441 28.3782 19.8441C28.3048 19.8441 28.2345 19.8732 28.1826 19.9251C28.1307 19.977 28.1016 20.0473 28.1016 20.1207C28.1016 20.1941 28.1307 20.2644 28.1826 20.3163L29.5262 21.6599C29.5516 21.686 29.582 21.7069 29.6156 21.7211C29.6492 21.7353 29.6853 21.7426 29.7218 21.7426C29.7582 21.7426 29.7944 21.7353 29.828 21.7211C29.8616 21.7069 29.892 21.686 29.9174 21.6599L32.6045 18.9727C32.6302 18.947 32.6506 18.9165 32.6645 18.883C32.6784 18.8494 32.6855 18.8134 32.6855 18.7771C32.6855 18.7408 32.6784 18.7048 32.6645 18.6713C32.6506 18.6377 32.6302 18.6072 32.6045 18.5815C32.5788 18.5558 32.5483 18.5354 32.5148 18.5215C32.4812 18.5076 32.4452 18.5005 32.4089 18.5005C32.3726 18.5005 32.3366 18.5076 32.3031 18.5215C32.2695 18.5354 32.239 18.5558 32.2133 18.5815Z" fill="black" fill-opacity="0.2"/>
<path d="M30.5499 16C29.5054 16.0025 28.5006 16.401 27.7383 17.1151C26.976 17.8292 26.5128 18.8058 26.4422 19.8479H21.9369V19.4792C21.9358 19.132 21.8098 18.7968 21.582 18.5348C21.3541 18.2728 21.0396 18.1015 20.696 18.0522V17.7957C20.696 17.3705 20.527 16.9627 20.2264 16.662C19.9257 16.3613 19.5179 16.1924 19.0926 16.1924C18.6674 16.1924 18.2596 16.3613 17.9589 16.662C17.6582 16.9627 17.4893 17.3705 17.4893 17.7957V18.0522C17.1509 18.1077 16.8432 18.2817 16.6212 18.5431C16.3992 18.8045 16.2773 19.1362 16.2772 19.4792V19.8383H11.6757V19.4792C11.6754 19.1323 11.5501 18.7971 11.3228 18.535C11.0955 18.273 10.7814 18.1016 10.438 18.0522V17.7957C10.438 17.3705 10.269 16.9627 9.96837 16.662C9.66769 16.3613 9.25988 16.1924 8.83465 16.1924C8.40943 16.1924 8.00162 16.3613 7.70094 16.662C7.40026 16.9627 7.23134 17.3705 7.23134 17.7957V18.0522C6.88913 18.103 6.57653 18.275 6.35051 18.5369C6.1245 18.7988 6.0001 19.1332 6 19.4792V21.339C6 21.7229 6.15226 22.091 6.42338 22.3628C6.6945 22.6345 7.06234 22.7876 7.44619 22.7884H10.2231C10.4137 22.7888 10.6025 22.7517 10.7788 22.679C10.955 22.6064 11.1151 22.4997 11.2501 22.365C11.385 22.2304 11.492 22.0705 11.5651 21.8944C11.6381 21.7184 11.6757 21.5296 11.6757 21.339V20.4027H16.2772V21.339C16.2781 21.7232 16.431 22.0913 16.7027 22.363C16.9743 22.6346 17.3425 22.7876 17.7266 22.7884H20.5003C20.8823 22.7842 21.2471 22.6297 21.516 22.3585C21.7849 22.0872 21.9361 21.721 21.9369 21.339V20.4027H26.4262C26.4817 21.2022 26.7695 21.9682 27.254 22.6066C27.7386 23.245 28.3989 23.7281 29.1541 23.9966C29.9092 24.2651 30.7263 24.3074 31.5052 24.1183C32.284 23.9292 32.9907 23.5168 33.5386 22.9319C34.0865 22.3469 34.4517 21.6148 34.5896 20.8252C34.7274 20.0357 34.6318 19.2231 34.3144 18.4871C33.9971 17.7512 33.4719 17.1238 32.8032 16.682C32.1345 16.2402 31.3514 16.0032 30.5499 16ZM8.83465 16.7856C8.97025 16.7844 9.10477 16.8098 9.23053 16.8605C9.35629 16.9112 9.47082 16.9862 9.5676 17.0812C9.66437 17.1762 9.74149 17.2893 9.79454 17.4141C9.84759 17.5389 9.87555 17.6729 9.87681 17.8085V18.0426H7.7925V17.8085C7.79376 17.6729 7.82171 17.5389 7.87477 17.4141C7.92782 17.2893 8.00494 17.1762 8.10171 17.0812C8.19849 16.9862 8.31302 16.9112 8.43878 16.8605C8.56454 16.8098 8.69906 16.7844 8.83465 16.7856ZM11.1178 21.339C11.1178 21.5763 11.0235 21.8039 10.8557 21.9716C10.688 22.1394 10.4604 22.2337 10.2231 22.2337H7.44619C7.32816 22.2345 7.21114 22.212 7.10185 22.1674C6.99257 22.1228 6.89318 22.0571 6.80943 21.9739C6.72567 21.8908 6.6592 21.7918 6.61383 21.6829C6.56847 21.5739 6.54512 21.4571 6.54513 21.339V19.4792C6.54513 19.2419 6.63938 19.0144 6.80716 18.8466C6.97494 18.6788 7.2025 18.5845 7.43977 18.5845H10.2167C10.3347 18.5837 10.4518 18.6062 10.561 18.6508C10.6703 18.6954 10.7697 18.7611 10.8535 18.8443C10.9372 18.9275 11.0037 19.0264 11.0491 19.1353C11.0944 19.2443 11.1178 19.3612 11.1178 19.4792V21.339ZM19.1151 16.7856C19.2507 16.7844 19.3852 16.8098 19.511 16.8605C19.6367 16.9112 19.7513 16.9862 19.848 17.0812C19.9448 17.1762 20.0219 17.2893 20.075 17.4141C20.128 17.5389 20.156 17.6729 20.1572 17.8085V18.0426H18.0697V17.8085C18.0731 17.5344 18.185 17.2728 18.381 17.081C18.577 16.8893 18.8409 16.7831 19.1151 16.7856ZM21.395 21.339C21.395 21.5763 21.3007 21.8039 21.133 21.9716C20.9652 22.1394 20.7376 22.2337 20.5003 22.2337H17.7266C17.4893 22.2337 17.2618 22.1394 17.094 21.9716C16.9262 21.8039 16.832 21.5763 16.832 21.339V19.4792C16.832 19.2419 16.9262 19.0144 17.094 18.8466C17.2618 18.6788 17.4893 18.5845 17.7266 18.5845H20.5003C20.6178 18.5845 20.7342 18.6077 20.8427 18.6526C20.9513 18.6976 21.0499 18.7635 21.133 18.8466C21.216 18.9296 21.2819 19.0283 21.3269 19.1368C21.3719 19.2454 21.395 19.3617 21.395 19.4792V21.339ZM30.5499 23.6863C29.8449 23.685 29.1562 23.4748 28.5706 23.0822C27.9851 22.6896 27.529 22.1323 27.2601 21.4806C26.9912 20.829 26.9215 20.1122 27.0598 19.4209C27.1982 18.7297 27.5383 18.0949 28.0372 17.5969C28.5361 17.0988 29.1715 16.7599 29.863 16.6228C30.5545 16.4857 31.2712 16.5567 31.9223 16.8268C32.5735 17.0969 33.1301 17.5539 33.5216 18.1401C33.9131 18.7264 34.1221 19.4155 34.1221 20.1205C34.1204 21.0668 33.7433 21.9737 33.0735 22.6423C32.4038 23.3108 31.4962 23.6863 30.5499 23.6863Z" fill="url(#paint1_linear_8046_2349)"/>
<path d="M30.5499 16C29.5054 16.0025 28.5006 16.401 27.7383 17.1151C26.976 17.8292 26.5128 18.8058 26.4422 19.8479H21.9369V19.4792C21.9358 19.132 21.8098 18.7968 21.582 18.5348C21.3541 18.2728 21.0396 18.1015 20.696 18.0522V17.7957C20.696 17.3705 20.527 16.9627 20.2264 16.662C19.9257 16.3613 19.5179 16.1924 19.0926 16.1924C18.6674 16.1924 18.2596 16.3613 17.9589 16.662C17.6582 16.9627 17.4893 17.3705 17.4893 17.7957V18.0522C17.1509 18.1077 16.8432 18.2817 16.6212 18.5431C16.3992 18.8045 16.2773 19.1362 16.2772 19.4792V19.8383H11.6757V19.4792C11.6754 19.1323 11.5501 18.7971 11.3228 18.535C11.0955 18.273 10.7814 18.1016 10.438 18.0522V17.7957C10.438 17.3705 10.269 16.9627 9.96837 16.662C9.66769 16.3613 9.25988 16.1924 8.83465 16.1924C8.40943 16.1924 8.00162 16.3613 7.70094 16.662C7.40026 16.9627 7.23134 17.3705 7.23134 17.7957V18.0522C6.88913 18.103 6.57653 18.275 6.35051 18.5369C6.1245 18.7988 6.0001 19.1332 6 19.4792V21.339C6 21.7229 6.15226 22.091 6.42338 22.3628C6.6945 22.6345 7.06234 22.7876 7.44619 22.7884H10.2231C10.4137 22.7888 10.6025 22.7517 10.7788 22.679C10.955 22.6064 11.1151 22.4997 11.2501 22.365C11.385 22.2304 11.492 22.0705 11.5651 21.8944C11.6381 21.7184 11.6757 21.5296 11.6757 21.339V20.4027H16.2772V21.339C16.2781 21.7232 16.431 22.0913 16.7027 22.363C16.9743 22.6346 17.3425 22.7876 17.7266 22.7884H20.5003C20.8823 22.7842 21.2471 22.6297 21.516 22.3585C21.7849 22.0872 21.9361 21.721 21.9369 21.339V20.4027H26.4262C26.4817 21.2022 26.7695 21.9682 27.254 22.6066C27.7386 23.245 28.3989 23.7281 29.1541 23.9966C29.9092 24.2651 30.7263 24.3074 31.5052 24.1183C32.284 23.9292 32.9907 23.5168 33.5386 22.9319C34.0865 22.3469 34.4517 21.6148 34.5896 20.8252C34.7274 20.0357 34.6318 19.2231 34.3144 18.4871C33.9971 17.7512 33.4719 17.1238 32.8032 16.682C32.1345 16.2402 31.3514 16.0032 30.5499 16ZM8.83465 16.7856C8.97025 16.7844 9.10477 16.8098 9.23053 16.8605C9.35629 16.9112 9.47082 16.9862 9.5676 17.0812C9.66437 17.1762 9.74149 17.2893 9.79454 17.4141C9.84759 17.5389 9.87555 17.6729 9.87681 17.8085V18.0426H7.7925V17.8085C7.79376 17.6729 7.82171 17.5389 7.87477 17.4141C7.92782 17.2893 8.00494 17.1762 8.10171 17.0812C8.19849 16.9862 8.31302 16.9112 8.43878 16.8605C8.56454 16.8098 8.69906 16.7844 8.83465 16.7856ZM11.1178 21.339C11.1178 21.5763 11.0235 21.8039 10.8557 21.9716C10.688 22.1394 10.4604 22.2337 10.2231 22.2337H7.44619C7.32816 22.2345 7.21114 22.212 7.10185 22.1674C6.99257 22.1228 6.89318 22.0571 6.80943 21.9739C6.72567 21.8908 6.6592 21.7918 6.61383 21.6829C6.56847 21.5739 6.54512 21.4571 6.54513 21.339V19.4792C6.54513 19.2419 6.63938 19.0144 6.80716 18.8466C6.97494 18.6788 7.2025 18.5845 7.43977 18.5845H10.2167C10.3347 18.5837 10.4518 18.6062 10.561 18.6508C10.6703 18.6954 10.7697 18.7611 10.8535 18.8443C10.9372 18.9275 11.0037 19.0264 11.0491 19.1353C11.0944 19.2443 11.1178 19.3612 11.1178 19.4792V21.339ZM19.1151 16.7856C19.2507 16.7844 19.3852 16.8098 19.511 16.8605C19.6367 16.9112 19.7513 16.9862 19.848 17.0812C19.9448 17.1762 20.0219 17.2893 20.075 17.4141C20.128 17.5389 20.156 17.6729 20.1572 17.8085V18.0426H18.0697V17.8085C18.0731 17.5344 18.185 17.2728 18.381 17.081C18.577 16.8893 18.8409 16.7831 19.1151 16.7856ZM21.395 21.339C21.395 21.5763 21.3007 21.8039 21.133 21.9716C20.9652 22.1394 20.7376 22.2337 20.5003 22.2337H17.7266C17.4893 22.2337 17.2618 22.1394 17.094 21.9716C16.9262 21.8039 16.832 21.5763 16.832 21.339V19.4792C16.832 19.2419 16.9262 19.0144 17.094 18.8466C17.2618 18.6788 17.4893 18.5845 17.7266 18.5845H20.5003C20.6178 18.5845 20.7342 18.6077 20.8427 18.6526C20.9513 18.6976 21.0499 18.7635 21.133 18.8466C21.216 18.9296 21.2819 19.0283 21.3269 19.1368C21.3719 19.2454 21.395 19.3617 21.395 19.4792V21.339ZM30.5499 23.6863C29.8449 23.685 29.1562 23.4748 28.5706 23.0822C27.9851 22.6896 27.529 22.1323 27.2601 21.4806C26.9912 20.829 26.9215 20.1122 27.0598 19.4209C27.1982 18.7297 27.5383 18.0949 28.0372 17.5969C28.5361 17.0988 29.1715 16.7599 29.863 16.6228C30.5545 16.4857 31.2712 16.5567 31.9223 16.8268C32.5735 17.0969 33.1301 17.5539 33.5216 18.1401C33.9131 18.7264 34.1221 19.4155 34.1221 20.1205C34.1204 21.0668 33.7433 21.9737 33.0735 22.6423C32.4038 23.3108 31.4962 23.6863 30.5499 23.6863Z" fill="black" fill-opacity="0.2"/>
<path d="M8.83399 19.2481C8.6338 19.247 8.43978 19.3173 8.28661 19.4462C8.13345 19.5751 8.03114 19.7543 7.99798 19.9517C7.96482 20.1491 8.00297 20.3519 8.10561 20.5238C8.20825 20.6957 8.36868 20.8254 8.55822 20.8898V21.3067C8.55822 21.3798 8.58727 21.45 8.63899 21.5017C8.69071 21.5534 8.76085 21.5825 8.83399 21.5825C8.90713 21.5825 8.97727 21.5534 9.02899 21.5017C9.0807 21.45 9.10976 21.3798 9.10976 21.3067V20.8898C9.29929 20.8254 9.45973 20.6957 9.56237 20.5238C9.66501 20.3519 9.70316 20.1491 9.67 19.9517C9.63683 19.7543 9.53452 19.5751 9.38136 19.4462C9.2282 19.3173 9.03418 19.247 8.83399 19.2481ZM8.83399 20.3864C8.77627 20.3864 8.71986 20.3693 8.67187 20.3372C8.62388 20.3052 8.58648 20.2596 8.5644 20.2063C8.54231 20.153 8.53653 20.0943 8.54779 20.0377C8.55905 19.9811 8.58684 19.9291 8.62765 19.8883C8.66846 19.8475 8.72046 19.8197 8.77706 19.8084C8.83366 19.7972 8.89234 19.8029 8.94566 19.825C8.99898 19.8471 9.04455 19.8845 9.07661 19.9325C9.10868 19.9805 9.12579 20.0369 9.12579 20.0946C9.12579 20.172 9.09505 20.2462 9.04032 20.3009C8.9856 20.3557 8.91138 20.3864 8.83399 20.3864Z" fill="url(#paint2_linear_8046_2349)"/>
<path d="M8.83399 19.2481C8.6338 19.247 8.43978 19.3173 8.28661 19.4462C8.13345 19.5751 8.03114 19.7543 7.99798 19.9517C7.96482 20.1491 8.00297 20.3519 8.10561 20.5238C8.20825 20.6957 8.36868 20.8254 8.55822 20.8898V21.3067C8.55822 21.3798 8.58727 21.45 8.63899 21.5017C8.69071 21.5534 8.76085 21.5825 8.83399 21.5825C8.90713 21.5825 8.97727 21.5534 9.02899 21.5017C9.0807 21.45 9.10976 21.3798 9.10976 21.3067V20.8898C9.29929 20.8254 9.45973 20.6957 9.56237 20.5238C9.66501 20.3519 9.70316 20.1491 9.67 19.9517C9.63683 19.7543 9.53452 19.5751 9.38136 19.4462C9.2282 19.3173 9.03418 19.247 8.83399 19.2481ZM8.83399 20.3864C8.77627 20.3864 8.71986 20.3693 8.67187 20.3372C8.62388 20.3052 8.58648 20.2596 8.5644 20.2063C8.54231 20.153 8.53653 20.0943 8.54779 20.0377C8.55905 19.9811 8.58684 19.9291 8.62765 19.8883C8.66846 19.8475 8.72046 19.8197 8.77706 19.8084C8.83366 19.7972 8.89234 19.8029 8.94566 19.825C8.99898 19.8471 9.04455 19.8845 9.07661 19.9325C9.10868 19.9805 9.12579 20.0369 9.12579 20.0946C9.12579 20.172 9.09505 20.2462 9.04032 20.3009C8.9856 20.3557 8.91138 20.3864 8.83399 20.3864Z" fill="black" fill-opacity="0.2"/>
<path d="M19.1146 19.2481C18.9141 19.2463 18.7196 19.3159 18.5658 19.4446C18.4121 19.5732 18.3092 19.7525 18.2756 19.9501C18.242 20.1478 18.2799 20.3509 18.3826 20.5231C18.4852 20.6953 18.6458 20.8254 18.8356 20.8899V21.3067C18.843 21.3752 18.8754 21.4384 18.9266 21.4844C18.9778 21.5304 19.0442 21.5558 19.113 21.5558C19.1818 21.5558 19.2482 21.5304 19.2994 21.4844C19.3506 21.4384 19.383 21.3752 19.3904 21.3067V20.8899C19.5799 20.8254 19.7403 20.6957 19.843 20.5238C19.9456 20.3519 19.9838 20.1491 19.9506 19.9517C19.9175 19.7543 19.8151 19.5751 19.662 19.4462C19.5088 19.3173 19.3148 19.2471 19.1146 19.2481ZM19.1146 20.3864C19.0569 20.3864 19.0005 20.3693 18.9525 20.3373C18.9045 20.3052 18.8671 20.2596 18.845 20.2063C18.8229 20.153 18.8172 20.0943 18.8284 20.0377C18.8397 19.9811 18.8675 19.9291 18.9083 19.8883C18.9491 19.8475 19.0011 19.8197 19.0577 19.8084C19.1143 19.7972 19.173 19.803 19.2263 19.825C19.2796 19.8471 19.3252 19.8845 19.3572 19.9325C19.3893 19.9805 19.4064 20.0369 19.4064 20.0946C19.4056 20.1718 19.3746 20.2455 19.32 20.3C19.2655 20.3546 19.1917 20.3856 19.1146 20.3864Z" fill="url(#paint3_linear_8046_2349)"/>
<path d="M19.1146 19.2481C18.9141 19.2463 18.7196 19.3159 18.5658 19.4446C18.4121 19.5732 18.3092 19.7525 18.2756 19.9501C18.242 20.1478 18.2799 20.3509 18.3826 20.5231C18.4852 20.6953 18.6458 20.8254 18.8356 20.8899V21.3067C18.843 21.3752 18.8754 21.4384 18.9266 21.4844C18.9778 21.5304 19.0442 21.5558 19.113 21.5558C19.1818 21.5558 19.2482 21.5304 19.2994 21.4844C19.3506 21.4384 19.383 21.3752 19.3904 21.3067V20.8899C19.5799 20.8254 19.7403 20.6957 19.843 20.5238C19.9456 20.3519 19.9838 20.1491 19.9506 19.9517C19.9175 19.7543 19.8151 19.5751 19.662 19.4462C19.5088 19.3173 19.3148 19.2471 19.1146 19.2481ZM19.1146 20.3864C19.0569 20.3864 19.0005 20.3693 18.9525 20.3373C18.9045 20.3052 18.8671 20.2596 18.845 20.2063C18.8229 20.153 18.8172 20.0943 18.8284 20.0377C18.8397 19.9811 18.8675 19.9291 18.9083 19.8883C18.9491 19.8475 19.0011 19.8197 19.0577 19.8084C19.1143 19.7972 19.173 19.803 19.2263 19.825C19.2796 19.8471 19.3252 19.8845 19.3572 19.9325C19.3893 19.9805 19.4064 20.0369 19.4064 20.0946C19.4056 20.1718 19.3746 20.2455 19.32 20.3C19.2655 20.3546 19.1917 20.3856 19.1146 20.3864Z" fill="black" fill-opacity="0.2"/>
</g>
<defs>
<linearGradient id="paint0_linear_8046_2349" x1="30.3935" y1="18.5005" x2="30.3935" y2="21.7426" gradientUnits="userSpaceOnUse">
<stop stop-color="#FF0F0F"/>
<stop offset="1" stop-color="#FF4849"/>
</linearGradient>
<linearGradient id="paint1_linear_8046_2349" x1="20.3254" y1="16" x2="20.3254" y2="24.2346" gradientUnits="userSpaceOnUse">
<stop stop-color="#FF0F0F"/>
<stop offset="1" stop-color="#FF4849"/>
</linearGradient>
<linearGradient id="paint2_linear_8046_2349" x1="8.83399" y1="19.248" x2="8.83399" y2="21.5825" gradientUnits="userSpaceOnUse">
<stop stop-color="#FF0F0F"/>
<stop offset="1" stop-color="#FF4849"/>
</linearGradient>
<linearGradient id="paint3_linear_8046_2349" x1="19.113" y1="19.248" x2="19.113" y2="21.5558" gradientUnits="userSpaceOnUse">
<stop stop-color="#FF0F0F"/>
<stop offset="1" stop-color="#FF4849"/>
</linearGradient>
<clipPath id="clip0_8046_2349">
<rect width="39.7513" height="40.3589" fill="white" transform="translate(0.796875 -0.0078125)"/>
</clipPath>
</defs>
</svg>
