<svg width="50" height="50" viewBox="0 0 50 50" fill="none" xmlns="http://www.w3.org/2000/svg">
<mask id="path-1-inside-1_8047_3324" fill="white">
<path d="M42.5275 9.05538H7.33093C6.70666 9.05538 6.13878 9.3118 5.72663 9.72395C5.31448 10.1361 5.05806 10.7053 5.05806 11.3296V12.9648H15.6075H34.2522H44.8017V11.3296C44.8017 10.7053 44.5452 10.1361 44.1331 9.72395C43.7209 9.3118 43.1531 9.05538 42.5288 9.05538H42.5275ZM20.5681 37.9086C20.0002 37.9086 19.5397 37.4481 19.5397 36.8815C19.5397 36.3137 20.0002 35.8532 20.5681 35.8532H29.2917C29.8596 35.8532 30.32 36.3137 30.32 36.8815C30.32 37.4494 29.8596 37.9086 29.2917 37.9086H20.5681ZM20.5681 31.5585C20.0002 31.5585 19.5397 31.098 19.5397 30.5301C19.5397 29.9623 20.0002 29.5031 20.5681 29.5031H29.2917C29.8596 29.5031 30.32 29.9636 30.32 30.5301C30.32 31.098 29.8596 31.5585 29.2917 31.5585H20.5681ZM20.5681 25.2084C20.0002 25.2084 19.5397 24.748 19.5397 24.1801C19.5397 23.6122 20.0002 23.1517 20.5681 23.1517H29.2917C29.8596 23.1517 30.32 23.6122 30.32 24.1801C30.32 24.748 29.8596 25.2084 29.2917 25.2084H20.5681ZM10.953 20.1015C11.5209 20.1015 11.9814 20.562 11.9814 21.1299C11.9814 21.6978 11.5209 22.1583 10.953 22.1583H8.68418C8.1163 22.1583 7.65582 21.6978 7.65582 21.1299C7.65582 20.562 8.1163 20.1015 8.68418 20.1015H10.953ZM38.9067 22.1569C38.3388 22.1569 37.8784 21.6964 37.8784 21.1286C37.8784 20.5607 38.3388 20.1002 38.9067 20.1002H41.1756C41.7434 20.1002 42.2039 20.5607 42.2039 21.1286C42.2039 21.6964 41.7434 22.1569 41.1756 22.1569H38.9067ZM10.953 27.2907C11.5209 27.2907 11.9814 27.7511 11.9814 28.319C11.9814 28.8869 11.5209 29.3474 10.953 29.3474H8.68418C8.1163 29.3474 7.65582 28.8869 7.65582 28.319C7.65582 27.7511 8.1163 27.2907 8.68418 27.2907H10.953ZM38.9067 29.346C38.3388 29.346 37.8784 28.8856 37.8784 28.3177C37.8784 27.7498 38.3388 27.2893 38.9067 27.2893H41.1756C41.7434 27.2893 42.2039 27.7498 42.2039 28.3177C42.2039 28.8856 41.7434 29.346 41.1756 29.346H38.9067ZM10.953 34.4798C11.5209 34.4798 11.9814 34.9403 11.9814 35.5068C11.9814 36.0747 11.5209 36.5352 10.953 36.5352H8.68418C8.1163 36.5352 7.65582 36.0747 7.65582 35.5068C7.65582 34.9403 8.1163 34.4798 8.68418 34.4798H10.953ZM38.9067 36.5352C38.3388 36.5352 37.8784 36.0747 37.8784 35.5068C37.8784 34.9403 38.3388 34.4798 38.9067 34.4798H41.1756C41.7434 34.4798 42.2039 34.9403 42.2039 35.5068C42.2039 36.0747 41.7434 36.5352 41.1756 36.5352H38.9067ZM5.05806 15.0201V39.3424C5.05806 39.9666 5.31448 40.5358 5.72663 40.948C6.13878 41.3601 6.70666 41.6166 7.33093 41.6166H14.5791V15.0215H5.05806V15.0201ZM16.6359 15.0201V41.6152H33.2252V15.0201H16.6359ZM35.2806 15.0201V41.6152H42.5288C43.1531 41.6152 43.7209 41.3588 44.1331 40.9467C44.5452 40.5345 44.8017 39.9653 44.8017 39.341V15.0188H35.2806V15.0201ZM7.33093 7H42.5275C43.7183 7 44.8017 7.48733 45.5857 8.27136C46.3697 9.05538 46.857 10.1388 46.857 11.3296V13.9918V39.341C46.857 40.5318 46.3697 41.6152 45.5857 42.3992C44.8017 43.1833 43.7183 43.6706 42.5275 43.6706H34.2509H15.6061H7.32959C6.13878 43.6706 5.05538 43.1833 4.27136 42.3992C3.48733 41.6152 3 40.5318 3 39.341V13.9918V11.3296C3 10.1374 3.48733 9.05538 4.27136 8.27136C5.05538 7.48733 6.13878 7 7.32959 7H7.33093Z"/>
</mask>
<path d="M42.5275 9.05538H7.33093C6.70666 9.05538 6.13878 9.3118 5.72663 9.72395C5.31448 10.1361 5.05806 10.7053 5.05806 11.3296V12.9648H15.6075H34.2522H44.8017V11.3296C44.8017 10.7053 44.5452 10.1361 44.1331 9.72395C43.7209 9.3118 43.1531 9.05538 42.5288 9.05538H42.5275ZM20.5681 37.9086C20.0002 37.9086 19.5397 37.4481 19.5397 36.8815C19.5397 36.3137 20.0002 35.8532 20.5681 35.8532H29.2917C29.8596 35.8532 30.32 36.3137 30.32 36.8815C30.32 37.4494 29.8596 37.9086 29.2917 37.9086H20.5681ZM20.5681 31.5585C20.0002 31.5585 19.5397 31.098 19.5397 30.5301C19.5397 29.9623 20.0002 29.5031 20.5681 29.5031H29.2917C29.8596 29.5031 30.32 29.9636 30.32 30.5301C30.32 31.098 29.8596 31.5585 29.2917 31.5585H20.5681ZM20.5681 25.2084C20.0002 25.2084 19.5397 24.748 19.5397 24.1801C19.5397 23.6122 20.0002 23.1517 20.5681 23.1517H29.2917C29.8596 23.1517 30.32 23.6122 30.32 24.1801C30.32 24.748 29.8596 25.2084 29.2917 25.2084H20.5681ZM10.953 20.1015C11.5209 20.1015 11.9814 20.562 11.9814 21.1299C11.9814 21.6978 11.5209 22.1583 10.953 22.1583H8.68418C8.1163 22.1583 7.65582 21.6978 7.65582 21.1299C7.65582 20.562 8.1163 20.1015 8.68418 20.1015H10.953ZM38.9067 22.1569C38.3388 22.1569 37.8784 21.6964 37.8784 21.1286C37.8784 20.5607 38.3388 20.1002 38.9067 20.1002H41.1756C41.7434 20.1002 42.2039 20.5607 42.2039 21.1286C42.2039 21.6964 41.7434 22.1569 41.1756 22.1569H38.9067ZM10.953 27.2907C11.5209 27.2907 11.9814 27.7511 11.9814 28.319C11.9814 28.8869 11.5209 29.3474 10.953 29.3474H8.68418C8.1163 29.3474 7.65582 28.8869 7.65582 28.319C7.65582 27.7511 8.1163 27.2907 8.68418 27.2907H10.953ZM38.9067 29.346C38.3388 29.346 37.8784 28.8856 37.8784 28.3177C37.8784 27.7498 38.3388 27.2893 38.9067 27.2893H41.1756C41.7434 27.2893 42.2039 27.7498 42.2039 28.3177C42.2039 28.8856 41.7434 29.346 41.1756 29.346H38.9067ZM10.953 34.4798C11.5209 34.4798 11.9814 34.9403 11.9814 35.5068C11.9814 36.0747 11.5209 36.5352 10.953 36.5352H8.68418C8.1163 36.5352 7.65582 36.0747 7.65582 35.5068C7.65582 34.9403 8.1163 34.4798 8.68418 34.4798H10.953ZM38.9067 36.5352C38.3388 36.5352 37.8784 36.0747 37.8784 35.5068C37.8784 34.9403 38.3388 34.4798 38.9067 34.4798H41.1756C41.7434 34.4798 42.2039 34.9403 42.2039 35.5068C42.2039 36.0747 41.7434 36.5352 41.1756 36.5352H38.9067ZM5.05806 15.0201V39.3424C5.05806 39.9666 5.31448 40.5358 5.72663 40.948C6.13878 41.3601 6.70666 41.6166 7.33093 41.6166H14.5791V15.0215H5.05806V15.0201ZM16.6359 15.0201V41.6152H33.2252V15.0201H16.6359ZM35.2806 15.0201V41.6152H42.5288C43.1531 41.6152 43.7209 41.3588 44.1331 40.9467C44.5452 40.5345 44.8017 39.9653 44.8017 39.341V15.0188H35.2806V15.0201ZM7.33093 7H42.5275C43.7183 7 44.8017 7.48733 45.5857 8.27136C46.3697 9.05538 46.857 10.1388 46.857 11.3296V13.9918V39.341C46.857 40.5318 46.3697 41.6152 45.5857 42.3992C44.8017 43.1833 43.7183 43.6706 42.5275 43.6706H34.2509H15.6061H7.32959C6.13878 43.6706 5.05538 43.1833 4.27136 42.3992C3.48733 41.6152 3 40.5318 3 39.341V13.9918V11.3296C3 10.1374 3.48733 9.05538 4.27136 8.27136C5.05538 7.48733 6.13878 7 7.32959 7H7.33093Z" fill="black" stroke="white" mask="url(#path-1-inside-1_8047_3324)"/>
</svg>
