<svg width="50" height="50" viewBox="0 0 50 50" fill="none" xmlns="http://www.w3.org/2000/svg">
<path d="M34.1407 11.9023C31.9864 11.9023 30.2136 13.6548 30.1878 15.8092C30.1614 17.9944 31.9105 19.7818 34.0946 19.8082H34.1424C36.2962 19.8082 38.0695 18.0563 38.0953 15.903C38.1212 13.7234 36.3687 11.9288 34.1407 11.9023ZM34.1424 18.9651V19.3867L34.1042 18.9651C32.3849 18.9449 31.0101 17.5369 31.0309 15.8193C31.0511 14.1247 32.4461 12.746 34.1784 12.746C35.8932 12.7668 37.2725 14.1787 37.2522 15.894C37.232 17.587 35.837 18.9651 34.1424 18.9651Z" fill="black"/>
<path d="M7.36758 32.6984L9.01215 32.9137C9.09758 33.3464 9.21168 33.7719 9.35332 34.185L8.03586 35.1928C7.86781 35.3215 7.82116 35.5548 7.92683 35.738L9.30779 38.1323C9.41346 38.3156 9.63828 38.3914 9.83444 38.3111L11.3722 37.6748C11.6549 37.9974 11.9652 38.3071 12.2985 38.6L11.6605 40.1389C11.5796 40.3345 11.6561 40.5598 11.8393 40.6655L14.2336 42.0459C14.4163 42.151 14.6496 42.1049 14.7783 41.9374L15.7894 40.62C16.1986 40.7605 16.6229 40.8746 17.058 40.9606L17.2732 42.6052C17.3013 42.8148 17.4806 42.9716 17.6919 42.9716H20.4573C20.6686 42.9716 20.8473 42.8154 20.8754 42.6057L21.0946 40.96C21.5229 40.8752 21.9461 40.7616 22.3587 40.6222L23.3709 41.9374C23.4996 42.1049 23.7323 42.1505 23.9156 42.0453L26.3099 40.6649C26.4937 40.5587 26.5696 40.3339 26.4886 40.1377L25.8518 38.6033C26.1806 38.3139 26.4915 38.0025 26.7809 37.6743L28.3159 38.3105C28.5115 38.3909 28.7369 38.315 28.8425 38.1318L30.2229 35.7374C30.3286 35.5542 30.2819 35.3209 30.1145 35.1922L28.8009 34.1845C28.942 33.7719 29.0561 33.3459 29.1415 32.9125L30.7861 32.6973C30.9958 32.6697 31.1526 32.491 31.1526 32.2791V29.5138C31.1526 29.3025 30.9958 29.1232 30.7861 29.0956L29.141 28.8798C29.0567 28.456 28.942 28.0305 28.7993 27.609L30.1139 26.6007C30.2814 26.472 30.328 26.2387 30.2224 26.0555L28.842 23.6611C28.7363 23.4779 28.5109 23.4009 28.3153 23.4824L26.7804 24.1186C26.4915 23.7904 26.1801 23.479 25.8513 23.1896L26.4881 21.6552C26.569 21.4596 26.4926 21.2342 26.3094 21.128L23.915 19.7476C23.7323 19.643 23.4985 19.6885 23.3698 19.856L22.3615 21.1707C21.9495 21.0318 21.5252 20.9183 21.0941 20.8329L20.8749 19.1872C20.8468 18.9775 20.668 18.8213 20.4567 18.8213H17.6914C17.4795 18.8213 17.3008 18.9781 17.2732 19.1877L17.058 20.8323C16.6235 20.9183 16.1986 21.0324 15.7894 21.1724L14.7783 19.8549C14.6496 19.6869 14.4163 19.6413 14.2336 19.7464L11.8393 21.1268C11.6561 21.2331 11.5796 21.4579 11.6605 21.6535L12.2974 23.1918C11.9697 23.4802 11.6594 23.7898 11.3717 24.117L9.83331 23.4802C9.63772 23.3987 9.41233 23.4757 9.30667 23.6589L7.9257 26.0532C7.82004 26.2365 7.86669 26.4692 8.03418 26.5979L9.35163 27.6096C9.21168 28.0187 9.09758 28.4431 9.01103 28.8776L7.36646 29.0928C7.15681 29.1204 7 29.2991 7 29.511V32.2763C7.00056 32.4921 7.15794 32.6709 7.36758 32.6984ZM7.84364 29.8848L9.42639 29.6774C9.61018 29.6532 9.75687 29.5121 9.78722 29.3289C9.88671 28.7342 10.0413 28.1581 10.2475 27.6169C10.3139 27.4426 10.2582 27.2459 10.1104 27.1324L8.84185 26.1578L9.85355 24.4042L11.3334 25.0162C11.5037 25.0871 11.7016 25.0387 11.8196 24.8954C12.1956 24.4407 12.6177 24.0186 13.0736 23.6409C13.2163 23.5229 13.2652 23.3256 13.1944 23.1547L12.5818 21.6748L14.3359 20.6637L15.31 21.9328C15.4241 22.0806 15.6213 22.1368 15.7945 22.07C16.3363 21.8637 16.9124 21.7086 17.5065 21.6096C17.6897 21.5793 17.8313 21.4326 17.8555 21.2488L18.0629 19.6661H20.0891L20.2999 21.2494C20.3246 21.4332 20.4657 21.5787 20.6489 21.6096C21.2374 21.7074 21.814 21.8614 22.3632 22.0666C22.5363 22.1312 22.7324 22.075 22.8454 21.9283L23.8155 20.6631L25.5691 21.6743L24.9571 23.1497C24.8862 23.3205 24.9351 23.5178 25.0779 23.6358C25.5354 24.0147 25.9586 24.4385 26.3363 24.8943C26.4549 25.0376 26.6533 25.0859 26.8225 25.0151L28.2985 24.403L29.3096 26.1567L28.045 27.1268C27.8983 27.2397 27.8421 27.4348 27.9062 27.6079C28.1175 28.1772 28.2726 28.7556 28.3676 29.3266C28.3979 29.5099 28.5446 29.6515 28.7284 29.6757L30.3112 29.8831V31.9087L28.7284 32.1161C28.5446 32.1403 28.3979 32.2819 28.3676 32.4651C28.2698 33.0559 28.1147 33.6331 27.9073 34.1817C27.8415 34.3559 27.8972 34.552 28.045 34.6656L29.3096 35.6357L28.2985 37.3893L26.8225 36.7772C26.6522 36.707 26.4544 36.7553 26.3363 36.8981C25.9581 37.355 25.5348 37.7782 25.0779 38.1565C24.9351 38.2745 24.8862 38.4718 24.9571 38.6427L25.5691 40.1181L23.815 41.1292L22.8409 39.864C22.7279 39.7179 22.5335 39.6622 22.3592 39.7263C21.8079 39.9326 21.2329 40.0866 20.6495 40.1833C20.4668 40.2136 20.3252 40.3597 20.3004 40.5435L20.088 42.1285H18.0618L17.8544 40.5458C17.8302 40.362 17.6886 40.2153 17.5053 40.1849C16.9113 40.086 16.3351 39.9309 15.7933 39.7246C15.6197 39.6577 15.4224 39.7134 15.3088 39.8618L14.3348 41.1303L12.5806 40.1192L13.1933 38.6399C13.2641 38.469 13.2152 38.2717 13.0724 38.1537C12.6048 37.7664 12.1833 37.3449 11.819 36.9009C11.701 36.7564 11.502 36.707 11.3317 36.7783L9.85186 37.3904L8.84073 35.6374L10.1087 34.6667C10.2565 34.5537 10.3127 34.357 10.247 34.1828C10.039 33.6331 9.88446 33.0553 9.7861 32.4663C9.75575 32.283 9.60905 32.1414 9.42526 32.1172L7.84364 31.9104V29.8848Z" fill="black"/>
<path d="M19.0771 38.912C23.4977 38.912 27.0937 35.3171 27.0937 30.8994C27.0937 26.4788 23.4971 22.8828 19.0771 22.8828C14.6566 22.8828 11.0605 26.4788 11.0605 30.8994C11.06 35.3171 14.6566 38.912 19.0771 38.912ZM19.0771 23.7253C23.0329 23.7253 26.2506 26.9436 26.2506 30.8988C26.2506 34.8523 23.0323 38.0684 19.0771 38.0684C15.1219 38.0684 11.9031 34.8523 11.9031 30.8994C11.9031 26.9436 15.1214 23.7253 19.0771 23.7253Z" fill="black"/>
<path d="M42.6026 17.3733C42.8123 17.3485 42.9719 17.1715 42.9741 16.9596L42.9983 14.9609C43.0006 14.7496 42.846 14.5686 42.6363 14.5388L41.5319 14.3803C41.4802 14.1223 41.4139 13.8638 41.3335 13.6069L42.2255 12.9392C42.3947 12.8122 42.4441 12.5801 42.3407 12.3957L41.3633 10.6533C41.2599 10.4684 41.0362 10.3892 40.8383 10.4679L39.8013 10.8838C39.626 10.6843 39.4399 10.4937 39.2443 10.3133L39.685 9.28643C39.7682 9.09196 39.6946 8.86546 39.5124 8.75754L37.7937 7.7391C37.6121 7.63119 37.3783 7.67503 37.2474 7.84083L36.5583 8.71707C36.3087 8.63277 36.0524 8.56082 35.7917 8.50293L35.6579 7.39456C35.6326 7.18492 35.4555 7.02585 35.2442 7.02361L33.2461 7C33.0539 7.0045 32.8544 7.15232 32.824 7.3614L32.6655 8.46584C32.4019 8.51811 32.1439 8.58387 31.8932 8.66312L31.2238 7.76889C31.0974 7.59971 30.8641 7.55081 30.6803 7.65367L28.938 8.63052C28.7531 8.73394 28.6738 8.9582 28.7525 9.15491L29.169 10.1953C28.97 10.3701 28.7806 10.5556 28.6013 10.75L27.5711 10.3088C27.3766 10.2256 27.1506 10.2998 27.0427 10.4814L26.0243 12.2001C25.9164 12.3822 25.9602 12.6155 26.126 12.7464L27.0039 13.4372C26.9191 13.6856 26.8466 13.9425 26.7887 14.2044L25.6809 14.3359C25.4707 14.3607 25.3116 14.5377 25.3088 14.7496L25.2852 16.7483C25.2829 16.9602 25.4375 17.1406 25.6471 17.1704L26.7516 17.3289C26.8033 17.5913 26.8696 17.8504 26.9494 18.1034L26.0558 18.7705C25.886 18.897 25.8366 19.1302 25.94 19.3146L26.9174 21.057C27.0214 21.2419 27.2445 21.3211 27.4418 21.2424L28.481 20.8265C28.653 21.0227 28.8385 21.2127 29.0363 21.3942L28.5951 22.4239C28.5119 22.6183 28.5856 22.8443 28.7677 22.9522L30.4864 23.9706C30.6685 24.0791 30.9023 24.0347 31.0327 23.8689L31.7235 22.991C31.9719 23.0764 32.2282 23.1484 32.4907 23.2068L32.6222 24.3146C32.647 24.5248 32.824 24.6839 33.0359 24.6867L35.0346 24.7103C35.0363 24.7103 35.0379 24.7103 35.0396 24.7103C35.2487 24.7103 35.4263 24.5569 35.4567 24.3495L35.6174 23.2445C35.8771 23.1928 36.1345 23.1276 36.3869 23.0483L37.0574 23.9409C37.1844 24.11 37.4165 24.1589 37.6003 24.0555L39.3427 23.0787C39.5276 22.9747 39.6069 22.7504 39.5282 22.5537L39.1123 21.5162C39.3118 21.3408 39.5023 21.1548 39.6827 20.9592L40.7102 21.3998C40.9058 21.483 41.1312 21.4094 41.2391 21.2273L42.2575 19.5085C42.3654 19.3264 42.3216 19.0931 42.1552 18.9622L41.2801 18.2737C41.3655 18.0224 41.438 17.765 41.4959 17.5042L42.6026 17.3733ZM40.5174 18.7486L41.3425 19.3972L40.7012 20.4797L39.7339 20.0649C39.5647 19.9919 39.3657 20.0385 39.2466 20.1796C38.9734 20.5017 38.6694 20.799 38.3417 21.0631C38.1978 21.1795 38.1461 21.3762 38.2152 21.5482L38.607 22.5245L37.5093 23.1399L36.8775 22.2985C36.7663 22.1502 36.5718 22.0917 36.3975 22.1552C36.0041 22.2969 35.5938 22.4014 35.179 22.4655C34.9958 22.4936 34.8525 22.638 34.826 22.8212L34.6743 23.8622L33.4147 23.847L33.2905 22.8033C33.2686 22.6189 33.1286 22.4705 32.9465 22.4379C32.5244 22.3621 32.1164 22.2474 31.7359 22.0968C31.5628 22.0276 31.3649 22.081 31.2497 22.2277L30.5977 23.0562L29.5152 22.4149L29.9306 21.4448C30.0031 21.2745 29.957 21.0766 29.8153 20.9569C29.486 20.6776 29.1903 20.3746 28.9368 20.0571C28.8205 19.9115 28.6221 19.8598 28.4507 19.9284L27.471 20.3201L26.8556 19.223L27.6986 18.594C27.8476 18.4828 27.9066 18.2866 27.8425 18.1118C27.6998 17.7212 27.5947 17.3098 27.53 16.8899C27.5019 16.7061 27.3569 16.5628 27.1731 16.5369L26.1328 16.388L26.1479 15.129L27.1917 15.0048C27.376 14.9828 27.5244 14.8429 27.557 14.6608C27.6323 14.2393 27.747 13.8318 27.8982 13.4496C27.9667 13.2765 27.9128 13.0786 27.7666 12.9634L26.9382 12.3114L27.5795 11.2289L28.5502 11.6442C28.7188 11.7162 28.9172 11.6701 29.0375 11.529C29.3084 11.2092 29.6119 10.913 29.939 10.6489C30.0829 10.5325 30.134 10.3358 30.0654 10.1644L29.6737 9.1847L30.7714 8.56925L31.4037 9.4129C31.5155 9.56184 31.7117 9.61973 31.8865 9.55566C32.2715 9.41402 32.6812 9.30892 33.105 9.24372C33.2883 9.21562 33.431 9.07061 33.4574 8.88681L33.6069 7.84645L34.8665 7.86163L34.993 8.90592C35.0155 9.08972 35.1548 9.23754 35.337 9.27013C35.7557 9.34489 36.1637 9.45898 36.5504 9.60905C36.7224 9.67594 36.9197 9.62254 37.0344 9.47697L37.6835 8.65188L38.766 9.29318L38.3512 10.2599C38.2787 10.4302 38.3248 10.6281 38.4659 10.7478C38.788 11.0209 39.0853 11.3256 39.3489 11.6527C39.4658 11.7971 39.6631 11.8483 39.8339 11.7797L40.8102 11.388L41.4257 12.4851L40.5854 13.114C40.437 13.2247 40.3786 13.4192 40.441 13.5935C40.5865 14.0004 40.6916 14.4124 40.754 14.8182C40.7821 15.002 40.9271 15.1453 41.1109 15.1711L42.1519 15.3201L42.1367 16.5791L41.0929 16.7033C40.9086 16.7252 40.7602 16.8652 40.7282 17.0478C40.654 17.4654 40.5393 17.8741 40.387 18.2624C40.3173 18.4367 40.3707 18.6339 40.5174 18.7486Z" fill="black"/>
<path d="M23.8537 35.2253C24.0864 35.2253 24.2752 35.0364 24.2752 34.8038C24.2752 32.4937 22.7599 30.5333 20.6724 29.8582C21.2233 29.3985 21.5813 28.7156 21.5813 27.9445C21.5813 26.5635 20.4583 25.4399 19.0773 25.4399C17.6964 25.4399 16.5728 26.5635 16.5728 27.9445C16.5728 28.7162 16.9309 29.399 17.4817 29.8582C15.3936 30.5333 13.8789 32.4937 13.8789 34.8038C13.8789 35.0364 14.0678 35.2253 14.3004 35.2253H23.8537ZM17.4153 27.9439C17.4153 27.0277 18.1606 26.2825 19.0768 26.2825C19.9929 26.2825 20.7376 27.0277 20.7376 27.9439C20.7376 28.86 19.9924 29.6048 19.0768 29.6048C18.1612 29.6048 17.4153 28.86 17.4153 27.9439ZM19.0768 30.4484C21.3362 30.4484 23.1989 32.1778 23.4119 34.3822H14.7417C14.9541 32.1773 16.8173 30.4484 19.0768 30.4484Z" fill="black"/>
</svg>
