<svg width="50" height="50" viewBox="0 0 50 50" fill="none" xmlns="http://www.w3.org/2000/svg">
<path d="M39.4201 11.5828H38.5699V7.61272C38.5699 7.27438 38.3064 7 37.9814 7H10.3747C8.83697 7 7.58599 8.30263 7.58599 9.90391V18.3368C7.31275 18.3854 7.06153 18.5186 6.86243 18.7264L4.78028 20.8945C4.25371 21.4428 4.25371 22.3356 4.78028 22.8839L5.76226 23.9065C6.19013 24.352 6.30705 24.9652 6.07575 25.547C5.84402 26.1288 5.34498 26.4764 4.74004 26.4764H3.35096C2.60621 26.4764 2 27.1072 2 27.8832V30.949C2 31.7245 2.60579 32.3557 3.35096 32.3557H4.74004C5.34498 32.3557 5.84402 32.7029 6.07532 33.2847C6.30662 33.8666 6.1897 34.4797 5.76226 34.9253L4.77986 35.9482C4.25329 36.4965 4.25329 37.3889 4.77986 37.9377L6.862 40.1054C7.1166 40.3705 7.45593 40.5165 7.81729 40.5165C8.17865 40.5165 8.51797 40.3705 8.77257 40.1054L9.75455 39.0828C10.182 38.6373 10.7708 38.5151 11.33 38.7564C11.8888 38.9973 12.2226 39.5173 12.2226 40.1468V41.5933C12.2226 42.3688 12.8284 43 13.5736 43H16.5178C17.2625 43 17.8688 42.3692 17.8688 41.5933V40.1468C17.8688 39.5169 18.2022 38.9973 18.7609 38.756C19.3197 38.5151 19.9085 38.6369 20.3364 39.0824L21.3184 40.1049C21.573 40.37 21.9123 40.516 22.2737 40.516C22.635 40.516 22.9743 40.37 23.229 40.1049L25.3111 37.9368C25.8283 37.3977 25.8364 36.5279 25.3369 35.9773H39.4201C40.8426 35.9773 42 34.7722 42 33.2913V14.2693C42 12.788 40.8426 11.5828 39.4201 11.5828ZM40.8232 26.836H34.3382C32.72 26.836 31.4033 25.4649 31.4033 23.7799C31.4033 22.0948 32.72 20.7242 34.3382 20.7242H40.8236L40.8232 26.836ZM10.3747 8.22544H37.3934V11.5833H10.3747C9.48554 11.5833 8.76241 10.8303 8.76241 9.90435C8.76241 8.97843 9.48554 8.22544 10.3747 8.22544ZM24.4791 37.0709L22.3969 39.239C22.3533 39.2844 22.3008 39.291 22.2737 39.291C22.2466 39.291 22.194 39.2844 22.1504 39.2385L21.1684 38.216C20.4042 37.4202 19.3091 37.1935 18.311 37.624C17.3125 38.0546 16.6923 39.0211 16.6923 40.1464V41.5928C16.6923 41.6912 16.6123 41.7746 16.5178 41.7746H13.5736C13.4791 41.7746 13.399 41.6912 13.399 41.5928V40.1464C13.399 39.0211 12.7788 38.0546 11.7803 37.624C11.4457 37.4798 11.1004 37.4092 10.7602 37.4092C10.0854 37.4092 9.4309 37.6867 8.92296 38.216L7.94099 39.2385C7.89735 39.284 7.84482 39.291 7.81771 39.291C7.79018 39.291 7.73807 39.2844 7.69444 39.2385L5.61229 37.0709C5.54536 37.0012 5.54536 36.8834 5.61229 36.8141L6.59469 35.7912C7.35892 34.9954 7.57667 33.8555 7.1632 32.8158C6.74974 31.7761 5.82157 31.1303 4.74089 31.1303H3.35096C3.25649 31.1303 3.17642 31.0469 3.17642 30.9485V27.8827C3.17642 27.7844 3.25649 27.701 3.35096 27.701H4.74004C5.82072 27.701 6.74889 27.0552 7.16236 26.0155C7.57582 24.9757 7.35807 23.8359 6.59384 23.0401L5.61187 22.0176C5.54494 21.9479 5.54494 21.8301 5.61187 21.7608L7.69401 19.5927C7.73765 19.5473 7.79018 19.5407 7.81729 19.5407C7.8444 19.5407 7.89693 19.5473 7.94057 19.5932L8.92254 20.6157C9.68677 21.4115 10.7819 21.6382 11.7799 21.2077C12.7784 20.7771 13.3986 19.8106 13.3986 18.6853V17.2389C13.3986 17.1405 13.4787 17.0571 13.5732 17.0571H16.5174C16.6118 17.0571 16.6919 17.1405 16.6919 17.2389V18.6853C16.6919 19.8106 17.3121 20.7771 18.3106 21.2081C19.3091 21.6386 20.4038 21.4119 21.168 20.6161L22.15 19.5936C22.1936 19.5482 22.2461 19.5411 22.2732 19.5411C22.3008 19.5411 22.3529 19.5477 22.3965 19.5936L24.4787 21.7613C24.5456 21.831 24.5456 21.9488 24.4787 22.018L23.4963 23.041C22.732 23.8368 22.5143 24.9766 22.9277 26.0163C23.3412 27.0561 24.2694 27.7019 25.3501 27.7019H26.7391C26.8336 27.7019 26.9137 27.7852 26.9137 27.8836V30.9494C26.9137 31.0478 26.8336 31.1312 26.7391 31.1312H25.3509C24.2702 31.1312 23.3421 31.777 22.9286 32.8167C22.5151 33.8564 22.7329 34.9963 23.4971 35.7921L24.4791 36.8146C24.546 36.8838 24.546 37.0012 24.4791 37.0709ZM39.4201 34.7528H24.1847C23.8775 34.3289 23.8127 33.7947 24.0156 33.2847C24.2469 32.7029 24.7464 32.3557 25.3509 32.3557H26.74C27.4847 32.3557 28.091 31.7249 28.091 30.949V27.8832C28.091 27.1077 27.4852 26.4764 26.74 26.4764H25.3509C24.746 26.4764 24.2469 26.1288 24.0152 25.547C23.7839 24.9652 23.9008 24.352 24.3287 23.9065L25.3111 22.8839C25.8377 22.3356 25.8377 21.4432 25.3111 20.8945L23.229 18.7268C22.9743 18.4617 22.635 18.3157 22.2737 18.3157C21.9123 18.3157 21.573 18.4617 21.3184 18.7268L20.3364 19.7493C19.909 20.1949 19.3201 20.3166 18.7609 20.0758C18.2022 19.8345 17.8688 19.3148 17.8688 18.6849V17.2385C17.8688 16.463 17.263 15.8317 16.5178 15.8317H13.5736C12.8288 15.8317 12.2226 16.4625 12.2226 17.2385V18.6849C12.2226 19.3148 11.8888 19.8345 11.33 20.0758C10.7713 20.3166 10.1824 20.1949 9.75455 19.7493L8.77257 18.7268C8.76919 18.7233 8.7658 18.7206 8.76241 18.7171V12.2714C9.21781 12.6089 9.77404 12.8083 10.3747 12.8083H39.4201C40.1936 12.8083 40.8232 13.4638 40.8232 14.2693V19.4992H34.3382C32.0714 19.4992 30.2269 21.4194 30.2269 23.7799C30.2269 26.1403 32.071 28.0609 34.3382 28.0609H40.8236V33.2913C40.8232 34.0973 40.1936 34.7528 39.4201 34.7528ZM32.6577 23.7803C32.6577 24.8831 33.5189 25.7799 34.578 25.7799C35.6371 25.7799 36.4983 24.8831 36.4983 23.7803C36.4983 22.6779 35.6371 21.7807 34.578 21.7807C33.5189 21.7807 32.6577 22.6775 32.6577 23.7803ZM34.5776 23.0057C34.9877 23.0057 35.3215 23.3533 35.3215 23.7803C35.3215 24.2073 34.9877 24.5549 34.5776 24.5549C34.1675 24.5549 33.8337 24.2073 33.8337 23.7803C33.8337 23.3533 34.1675 23.0057 34.5776 23.0057ZM15.0457 22.7737C11.5283 22.7737 8.66709 25.7534 8.66709 29.4156C8.66709 33.0778 11.5287 36.0576 15.0457 36.0576C18.5627 36.0576 21.4243 33.0778 21.4243 29.4156C21.4243 25.7534 18.5627 22.7737 15.0457 22.7737ZM15.0457 34.8326C12.1773 34.8326 9.84351 32.4025 9.84351 29.4156C9.84351 26.4288 12.1773 23.9987 15.0457 23.9987C17.9141 23.9987 20.2479 26.4288 20.2479 29.4156C20.2479 32.4029 17.9141 34.8326 15.0457 34.8326ZM17.1681 30.8771C17.1681 31.8771 16.55 32.6486 15.6341 32.8798V33.3279C15.6341 33.6663 15.3706 33.9407 15.0457 33.9407C14.7208 33.9407 14.4573 33.6663 14.4573 33.3279V32.8586C13.6456 32.5966 13.0538 31.8074 13.0538 30.8771C13.0538 30.5387 13.3173 30.2644 13.6422 30.2644C13.9671 30.2644 14.2306 30.5387 14.2306 30.8771C14.2306 31.3451 14.5962 31.7258 15.0457 31.7258C15.482 31.7258 15.9917 31.5035 15.9917 30.8771C15.9917 30.2507 15.482 30.0284 15.0457 30.0284C13.8159 30.0284 12.9233 29.1563 12.9233 27.9546C12.9233 26.9546 13.5414 26.1831 14.4573 25.9519V25.5033C14.4573 25.165 14.7208 24.8906 15.0457 24.8906C15.3706 24.8906 15.6341 25.165 15.6341 25.5033V25.9731C16.4458 26.2351 17.0372 27.0243 17.0372 27.9546C17.0372 28.293 16.7737 28.5674 16.4488 28.5674C16.1238 28.5674 15.8603 28.293 15.8603 27.9546C15.8603 27.4866 15.4947 27.1059 15.0453 27.1059C14.6089 27.1059 14.0993 27.3282 14.0993 27.9546C14.0993 28.581 14.6089 28.8034 15.0453 28.8034C16.2751 28.8034 17.1681 29.6755 17.1681 30.8771Z" fill="black"/>
</svg>
