<svg width="50" height="50" viewBox="0 0 50 50" fill="none" xmlns="http://www.w3.org/2000/svg">
<path d="M33.849 29.9919C31.7222 29.9919 29.9919 31.7222 29.9919 33.849C29.9919 35.9759 31.7222 37.7062 33.849 37.7062C35.9759 37.7062 37.7062 35.9759 37.7062 33.849C37.7062 31.7222 35.9759 29.9919 33.849 29.9919ZM33.849 37.0713C32.0723 37.0713 30.6268 35.6258 30.6268 33.849C30.6268 32.0723 32.0723 30.6268 33.849 30.6268C35.6258 30.6268 37.0713 32.0723 37.0713 33.849C37.0713 35.6258 35.6258 37.0713 33.849 37.0713ZM33.849 28.4925C30.8955 28.4925 28.4925 30.8955 28.4925 33.849C28.4925 36.8026 30.8955 39.2056 33.849 39.2056C36.8026 39.2056 39.2056 36.8026 39.2056 33.849C39.2056 30.8955 36.8026 28.4925 33.849 28.4925ZM33.849 38.5706C31.2456 38.5706 29.1275 36.4525 29.1275 33.849C29.1275 31.2456 31.2456 29.1275 33.849 29.1275C36.4525 29.1275 38.5706 31.2456 38.5706 33.849C38.5706 36.4525 36.4525 38.5706 33.849 38.5706ZM44.6825 31.4684H42.6782C42.473 30.7056 42.1702 29.9748 41.7752 29.2897L43.1928 27.872C43.3168 27.748 43.3168 27.547 43.1928 27.4231L40.275 24.5053C40.1511 24.3813 39.9499 24.3813 39.8261 24.5053L38.4084 25.9229C37.7233 25.5279 36.9925 25.2251 36.2297 25.0199V23.0156C36.2297 22.8402 36.0875 22.6981 35.9122 22.6981H31.7859C31.6106 22.6981 31.4684 22.8402 31.4684 23.0156V25.0199C30.7056 25.2251 29.9748 25.5279 29.2897 25.9229L27.872 24.5053C27.7481 24.3813 27.5469 24.3813 27.4231 24.5053L25.5713 26.3571C24.3187 25.8102 23.1827 25.5394 22.6833 25.4368V23.6506C23.0909 23.1915 23.4798 22.6669 23.8448 22.0785C25.2297 19.8458 26.0565 16.9934 26.0565 14.4483C26.0565 9.23841 22.5997 5 18.3508 5C14.1019 5 10.6451 9.23841 10.6451 14.4483C10.6451 16.9933 11.4719 19.8457 12.8568 22.0784C13.2218 22.6668 13.6107 23.1915 14.0183 23.6506V25.4363C12.991 25.6452 9.31723 26.5482 7.47319 29.073C5.38319 31.9348 5.01517 38.1764 5.00049 38.4408C4.99565 38.5279 5.02692 38.6132 5.08692 38.6766C5.14684 38.74 5.23025 38.7759 5.31747 38.7759H25.5556L24.5052 39.8262C24.3812 39.9502 24.3812 40.1512 24.5052 40.2751L27.423 43.1929C27.5469 43.3169 27.7481 43.3169 27.8719 43.1929L29.2896 41.7752C29.9748 42.1703 30.7057 42.4732 31.4683 42.6783V44.6825C31.4683 44.8579 31.6105 45 31.7858 45H35.9121C36.0875 45 36.2296 44.8579 36.2296 44.6825V42.6782C36.9925 42.473 37.7233 42.1702 38.4083 41.7752L39.826 43.1928C39.9499 43.3168 40.1511 43.3168 40.2749 43.1928L43.1927 40.275C43.3167 40.151 43.3167 39.95 43.1927 39.8261L41.7751 38.4084C42.1701 37.7233 42.4729 36.9925 42.6781 36.2297H44.6825C44.8579 36.2297 45 36.0875 45 35.9122V31.7859C45 31.6106 44.8579 31.4684 44.6825 31.4684ZM11.28 14.4483C11.28 9.58849 14.452 5.63492 18.3508 5.63492C22.2496 5.63492 25.4216 9.58849 25.4216 14.4483C25.4216 16.8801 24.6304 19.6073 23.3053 21.7437C21.8931 24.0205 20.1336 25.2743 18.3508 25.2743C16.568 25.2743 14.8085 24.0204 13.3963 21.7437C12.0712 19.6073 11.28 16.88 11.28 14.4483ZM7.98596 29.4475C9.942 26.769 14.3428 26.0202 14.387 26.0129C14.5405 25.9879 14.6532 25.8552 14.6532 25.6997V24.298C15.7983 25.3496 17.0622 25.9092 18.3507 25.9092C19.6393 25.9092 20.9032 25.3496 22.0483 24.298V25.6997C22.0483 25.8552 22.161 25.9879 22.3145 26.0129C22.3284 26.0152 23.6091 26.2301 25.0872 26.8411L24.5052 27.4231C24.3811 27.5471 24.3811 27.7481 24.5052 27.872L25.9228 29.2897C25.5278 29.9748 25.2249 30.7056 25.0198 31.4684H23.0154C22.8401 31.4684 22.6979 31.6106 22.6979 31.7859V35.9122C22.6979 36.0875 22.8401 36.2297 23.0154 36.2297H25.0198C25.1984 36.8941 25.4514 37.5341 25.7746 38.1409H5.6585C5.76565 36.8012 6.272 31.7944 7.98596 29.4475ZM44.3651 35.5948H42.4314C42.2844 35.5948 42.1568 35.6955 42.1226 35.8383C41.9148 36.7056 41.5726 37.5312 41.1056 38.2923C41.0287 38.4174 41.0478 38.5789 41.1517 38.6828L42.5194 40.0506L40.0506 42.5193L38.6829 41.1516C38.579 41.0477 38.4174 41.0286 38.2924 41.1055C37.5313 41.5726 36.7056 41.9148 35.8383 42.1225C35.6955 42.1567 35.5948 42.2844 35.5948 42.4313V44.3651H32.1034V42.4314C32.1034 42.2844 32.0027 42.1568 31.8599 42.1226C30.9929 41.915 30.1673 41.5727 29.4059 41.1056C29.281 41.0288 29.1193 41.0478 29.0154 41.1517L27.6476 42.5194L25.1789 40.0506L26.5466 38.6829C26.6505 38.579 26.6695 38.4175 26.5927 38.2924C26.1256 37.5313 25.7834 36.7056 25.5756 35.8383C25.5414 35.6955 25.4138 35.5948 25.2669 35.5948H23.3332V32.1034H25.2669C25.4138 32.1034 25.5414 32.0027 25.5756 31.8599C25.7834 30.9926 26.1256 30.167 26.5927 29.4059C26.6695 29.2808 26.6505 29.1193 26.5466 29.0154L25.1789 27.6476L27.6476 25.1789L29.0154 26.5466C29.1192 26.6505 29.2809 26.6695 29.4059 26.5927C30.1671 26.1256 30.9928 25.7834 31.8599 25.5756C32.0028 25.5414 32.1034 25.4138 32.1034 25.2669V23.3332H35.5948V25.2669C35.5948 25.4138 35.6956 25.5414 35.8383 25.5756C36.7056 25.7834 37.5313 26.1256 38.2924 26.5927C38.4174 26.6696 38.579 26.6506 38.6829 26.5466L40.0506 25.1789L42.5194 27.6476L41.1517 29.0154C41.0478 29.1193 41.0287 29.2808 41.1056 29.4059C41.5727 30.167 41.9148 30.9926 42.1226 31.8599C42.1568 32.0028 42.2844 32.1034 42.4314 32.1034H44.3651V35.5948Z" fill="black"/>
</svg>
