<svg width="50" height="50" viewBox="0 0 50 50" fill="none" xmlns="http://www.w3.org/2000/svg">
<path d="M29.6522 10.4983H29.6731C30.1016 10.482 30.5455 10.4792 30.9857 10.491H31.0002C31.1444 10.4929 31.2834 10.4375 31.3867 10.3369C31.49 10.2364 31.5491 10.0989 31.551 9.95471C31.553 9.81055 31.4975 9.67153 31.397 9.56823C31.2964 9.46494 31.1589 9.40583 31.0147 9.40391C30.5509 9.39213 30.0825 9.39485 29.6314 9.41206C29.4872 9.41482 29.3501 9.47474 29.2501 9.57863C29.1501 9.68252 29.0955 9.82187 29.0982 9.96603C29.101 10.1102 29.1609 10.2474 29.2648 10.3473C29.3687 10.4473 29.5081 10.5019 29.6522 10.4992V10.4983Z" fill="black"/>
<path d="M32.7278 10.615C33.1726 10.6675 33.6047 10.7373 34.0142 10.8206C34.0503 10.8278 34.087 10.8314 34.1238 10.8315C34.2585 10.8314 34.3884 10.7813 34.4883 10.6909C34.5881 10.6005 34.6509 10.4762 34.6643 10.3421C34.6777 10.2081 34.6409 10.0738 34.5609 9.9654C34.481 9.85696 34.3636 9.78208 34.2316 9.75527C33.7931 9.66468 33.3311 9.5913 32.8564 9.53513C32.7132 9.51807 32.5691 9.5586 32.4558 9.64779C32.3424 9.73699 32.2692 9.86754 32.2521 10.0107C32.2351 10.1539 32.2756 10.2981 32.3648 10.4114C32.454 10.5247 32.5846 10.5979 32.7278 10.615Z" fill="black"/>
<path d="M35.6621 11.2799C36.0488 11.418 36.4196 11.5969 36.7683 11.8135C36.8283 11.8522 36.8954 11.8786 36.9656 11.8914C37.0359 11.9041 37.1079 11.9029 37.1777 11.8878C37.2475 11.8727 37.3136 11.844 37.3723 11.8034C37.431 11.7627 37.4811 11.7109 37.5198 11.6509C37.5584 11.5909 37.5849 11.5238 37.5976 11.4536C37.6104 11.3833 37.6092 11.3113 37.5941 11.2415C37.579 11.1717 37.5503 11.1056 37.5096 11.0469C37.469 10.9882 37.4172 10.9381 37.3571 10.8994C36.9422 10.6423 36.5013 10.4297 36.0417 10.2653C35.9105 10.2283 35.7702 10.242 35.6487 10.3037C35.5271 10.3653 35.4331 10.4704 35.3853 10.598C35.3376 10.7257 35.3395 10.8666 35.3908 10.9929C35.4421 11.1192 35.5389 11.2217 35.6621 11.2799Z" fill="black"/>
<path d="M26.534 10.882C26.5736 10.8823 26.6132 10.878 26.6518 10.8693C27.0577 10.7788 27.4889 10.7036 27.9337 10.6447C28.0766 10.6256 28.2062 10.5505 28.2937 10.4359C28.3813 10.3213 28.4198 10.1766 28.4007 10.0336C28.3816 9.89067 28.3065 9.76115 28.1919 9.67357C28.0773 9.58599 27.9326 9.54752 27.7896 9.56662C27.314 9.63004 26.852 9.71157 26.4172 9.8085C26.2872 9.83811 26.1726 9.91445 26.0952 10.023C26.0179 10.1316 25.9831 10.2648 25.9975 10.3973C26.0119 10.5298 26.0746 10.6524 26.1735 10.7418C26.2724 10.8312 26.4007 10.8811 26.534 10.882Z" fill="black"/>
<path d="M23.6321 12.0395C23.7479 12.0396 23.8607 12.0025 23.9537 11.9335C24.2844 11.7005 24.6425 11.5092 25.02 11.3636C25.0861 11.3367 25.1463 11.297 25.1971 11.2468C25.2479 11.1966 25.2883 11.1368 25.316 11.071C25.3437 11.0052 25.3582 10.9345 25.3586 10.8631C25.3591 10.7917 25.3454 10.7209 25.3185 10.6547C25.2915 10.5886 25.2518 10.5284 25.2016 10.4776C25.1514 10.4268 25.0917 10.3864 25.0258 10.3587C24.96 10.3309 24.8894 10.3165 24.8179 10.316C24.7465 10.3156 24.6757 10.3293 24.6096 10.3562C24.1485 10.536 23.7112 10.7718 23.3077 11.0583C23.2156 11.1262 23.1472 11.2215 23.1124 11.3306C23.0776 11.4396 23.0781 11.5569 23.1139 11.6656C23.1496 11.7744 23.2188 11.8691 23.3115 11.9362C23.4042 12.0033 23.5158 12.0395 23.6303 12.0395H23.6321Z" fill="black"/>
<path d="M15.8035 39.1445C15.6593 39.1468 15.5202 39.0917 15.4166 38.9914C15.3131 38.8911 15.2536 38.7537 15.2513 38.6096C15.249 38.4654 15.3041 38.3262 15.4044 38.2227C15.5048 38.1191 15.6421 38.0597 15.7863 38.0574C16.2071 38.0436 16.6257 37.99 17.0365 37.8971C17.1065 37.88 17.1792 37.877 17.2504 37.8883C17.3216 37.8996 17.3899 37.925 17.4512 37.9629C17.5125 38.0009 17.5656 38.0506 17.6075 38.1093C17.6494 38.168 17.6792 38.2344 17.6952 38.3047C17.7112 38.375 17.713 38.4477 17.7006 38.5187C17.6882 38.5897 17.6618 38.6576 17.6229 38.7183C17.584 38.779 17.5334 38.8314 17.4741 38.8723C17.4148 38.9133 17.348 38.9421 17.2774 38.957C16.7996 39.0661 16.3124 39.1289 15.8225 39.1445H15.8035ZM13.9962 38.976C13.9553 38.9759 13.9146 38.9714 13.8748 38.9624C13.3962 38.8537 12.9293 38.6989 12.4805 38.5004C12.3484 38.4421 12.2448 38.3338 12.1926 38.1991C12.1403 38.0645 12.1437 37.9146 12.202 37.7825C12.2602 37.6503 12.3686 37.5467 12.5032 37.4945C12.6379 37.4422 12.7878 37.4456 12.9199 37.5039C13.305 37.6736 13.7054 37.8062 14.1157 37.8998C14.2489 37.9266 14.3672 38.0024 14.4473 38.1121C14.5274 38.2219 14.5635 38.3576 14.5485 38.4926C14.5335 38.6276 14.4684 38.7521 14.3662 38.8416C14.264 38.9311 14.132 38.979 13.9962 38.976ZM18.8619 38.3419C18.7404 38.3418 18.6225 38.301 18.5269 38.2261C18.4313 38.1512 18.3636 38.0464 18.3345 37.9285C18.3054 37.8106 18.3166 37.6863 18.3664 37.5755C18.4162 37.4647 18.5017 37.3738 18.6092 37.3173C18.9821 37.122 19.3355 36.8914 19.6646 36.6288C19.72 36.5819 19.7843 36.5467 19.8537 36.5251C19.923 36.5035 19.9959 36.4961 20.0682 36.5031C20.1405 36.5102 20.2106 36.5317 20.2744 36.5663C20.3382 36.6009 20.3944 36.648 20.4398 36.7047C20.4851 36.7614 20.5186 36.8266 20.5383 36.8965C20.558 36.9664 20.5636 37.0395 20.5545 37.1116C20.5455 37.1836 20.5222 37.2531 20.4859 37.316C20.4495 37.3789 20.401 37.4338 20.3431 37.4776C19.9601 37.7841 19.5484 38.0529 19.1138 38.2803C19.036 38.3208 18.9496 38.3419 18.8619 38.3419ZM11.1461 37.6008C11.023 37.6008 10.9035 37.5589 10.8073 37.4821C10.4241 37.1768 10.071 36.8355 9.75278 36.463C9.65919 36.3533 9.61301 36.2109 9.6244 36.0672C9.63578 35.9235 9.70379 35.7901 9.81348 35.6966C9.92316 35.603 10.0655 35.5568 10.2093 35.5682C10.353 35.5796 10.4863 35.6476 10.5799 35.7572C10.8533 36.0774 11.1567 36.3707 11.4858 36.6333C11.5739 36.7036 11.638 36.7995 11.6691 36.9077C11.7003 37.016 11.6971 37.1313 11.6599 37.2377C11.6227 37.344 11.5533 37.4362 11.4614 37.5014C11.3696 37.5666 11.2597 37.6017 11.147 37.6017L11.1461 37.6008ZM21.2671 36.2927C21.1501 36.2929 21.0361 36.2547 20.9428 36.1839C20.8275 36.0977 20.7511 35.9693 20.7303 35.8268C20.7096 35.6843 20.7463 35.5394 20.8323 35.4239C21.0842 35.0862 21.3032 34.7252 21.4864 34.3458C21.5491 34.2159 21.6608 34.1163 21.797 34.0688C21.9332 34.0213 22.0826 34.0299 22.2125 34.0926C22.3424 34.1553 22.442 34.267 22.4895 34.4032C22.537 34.5394 22.5284 34.6888 22.4657 34.8187C22.2524 35.2614 21.9973 35.6828 21.7038 36.077C21.6528 36.1445 21.5868 36.1991 21.511 36.2365C21.4352 36.2739 21.3517 36.2931 21.2671 36.2927ZM9.17208 35.1331C9.06991 35.133 8.96983 35.1042 8.88331 35.0499C8.79678 34.9955 8.72732 34.9179 8.68288 34.826C8.46897 34.3848 8.29846 33.924 8.17374 33.4498C8.1556 33.3808 8.15124 33.3088 8.1609 33.2381C8.17057 33.1673 8.19408 33.0992 8.23008 33.0375C8.26609 32.9759 8.31389 32.9219 8.37075 32.8787C8.42761 32.8355 8.49242 32.8039 8.56148 32.7858C8.63054 32.7677 8.7025 32.7633 8.77325 32.773C8.84399 32.7826 8.91215 32.8061 8.97381 32.8421C9.03547 32.8781 9.08944 32.9259 9.13263 32.9828C9.17582 33.0397 9.20739 33.1045 9.22553 33.1735C9.33222 33.5809 9.47847 33.9769 9.66219 34.3558C9.70242 34.4387 9.72092 34.5304 9.71596 34.6224C9.711 34.7144 9.68273 34.8036 9.63382 34.8817C9.58491 34.9598 9.51696 35.0241 9.43635 35.0687C9.35574 35.1133 9.26511 35.1367 9.17298 35.1367L9.17208 35.1331ZM22.549 33.4009C22.5141 33.4012 22.4792 33.3978 22.4449 33.391C22.3039 33.3635 22.1796 33.2814 22.0989 33.1626C22.0183 33.0438 21.988 32.8979 22.0145 32.7568C22.0944 32.3433 22.1344 31.9232 22.1341 31.5021V31.4867C22.1341 31.3425 22.1914 31.2043 22.2933 31.1023C22.3953 31.0004 22.5335 30.9431 22.6777 30.9431C22.8218 30.9431 22.9601 31.0004 23.062 31.1023C23.164 31.2043 23.2212 31.3425 23.2212 31.4867V31.5021C23.2212 31.9925 23.1745 32.4818 23.0817 32.9634C23.0572 33.0866 22.9907 33.1976 22.8936 33.2774C22.7965 33.3572 22.6747 33.4008 22.549 33.4009ZM8.46726 32.0475C8.3231 32.0475 8.18485 31.9902 8.08291 31.8883C7.98097 31.7863 7.92371 31.6481 7.92371 31.5039V31.4958C7.92372 31.0093 7.96983 30.524 8.06141 30.0463C8.07301 29.9745 8.0989 29.9057 8.13754 29.8441C8.17619 29.7825 8.2268 29.7293 8.28638 29.6876C8.34597 29.6459 8.41332 29.6166 8.48444 29.6014C8.55555 29.5862 8.629 29.5854 8.70042 29.5991C8.77184 29.6129 8.83979 29.6407 8.90023 29.6812C8.96068 29.7216 9.0124 29.7738 9.05232 29.8346C9.09225 29.8953 9.11957 29.9635 9.13267 30.035C9.14577 30.1066 9.14439 30.18 9.12859 30.251C9.0503 30.6622 9.01087 31.0799 9.01082 31.4985C9.01154 31.5703 8.99801 31.6416 8.97102 31.7082C8.94402 31.7747 8.9041 31.8353 8.85355 31.8863C8.80301 31.9374 8.74284 31.9779 8.67654 32.0056C8.61023 32.0332 8.5391 32.0475 8.46726 32.0475ZM22.443 30.2265C22.323 30.2265 22.2064 30.1868 22.1114 30.1135C22.0163 30.0403 21.9482 29.9376 21.9176 29.8216C21.8103 29.4158 21.6638 29.0213 21.48 28.6439C21.4184 28.5143 21.4105 28.3656 21.4581 28.2302C21.5057 28.0948 21.6048 27.9837 21.734 27.9212C21.8632 27.8587 22.0118 27.8497 22.1475 27.8964C22.2832 27.943 22.395 28.0414 22.4584 28.1701C22.6729 28.6117 22.8438 29.0732 22.9685 29.548C23.0052 29.6874 22.9851 29.8356 22.9125 29.9601C22.84 30.0846 22.721 30.1753 22.5817 30.2121C22.5362 30.2226 22.4897 30.2275 22.443 30.2265ZM9.16483 28.9673C9.07295 28.9672 8.98259 28.9438 8.9022 28.8993C8.82182 28.8548 8.75403 28.7906 8.70517 28.7128C8.65631 28.635 8.62797 28.546 8.6228 28.4543C8.61764 28.3626 8.63581 28.271 8.67563 28.1882C8.88857 27.746 9.1434 27.3253 9.43661 26.9317C9.52379 26.819 9.65172 26.7451 9.79287 26.7258C9.93403 26.7065 10.0771 26.7433 10.1913 26.8285C10.3056 26.9136 10.3818 27.0402 10.4036 27.181C10.4255 27.3218 10.3912 27.4655 10.3081 27.5812C10.0569 27.9192 9.83816 28.2801 9.65494 28.6593C9.61056 28.7516 9.54101 28.8295 9.4543 28.884C9.36759 28.9385 9.26724 28.9673 9.16483 28.9673ZM20.9745 27.4272C20.896 27.4272 20.8184 27.4102 20.7471 27.3774C20.6758 27.3445 20.6125 27.2966 20.5614 27.237C20.2882 26.9169 19.9848 26.6239 19.6555 26.3618C19.5985 26.3178 19.5509 26.2629 19.5154 26.2002C19.4798 26.1376 19.457 26.0686 19.4484 25.9971C19.4398 25.9256 19.4454 25.8531 19.465 25.7838C19.4847 25.7145 19.5178 25.6498 19.5627 25.5935C19.6075 25.5371 19.6631 25.4903 19.7262 25.4556C19.7893 25.4209 19.8586 25.3991 19.9302 25.3914C20.0018 25.3837 20.0742 25.3904 20.1433 25.411C20.2123 25.4315 20.2765 25.4656 20.3322 25.5112C20.716 25.8165 21.0697 26.1577 21.3885 26.5304C21.4561 26.6093 21.4996 26.706 21.5139 26.8089C21.5282 26.9118 21.5127 27.0167 21.4692 27.1111C21.4257 27.2054 21.3561 27.2854 21.2686 27.3414C21.1811 27.3975 21.0793 27.4272 20.9754 27.4272H20.9745ZM11.1352 26.4932C11.0227 26.4931 10.913 26.4581 10.8212 26.393C10.7294 26.3279 10.6601 26.2359 10.6228 26.1297C10.5855 26.0236 10.5821 25.9084 10.613 25.8002C10.644 25.692 10.7077 25.5961 10.7955 25.5257C11.1782 25.2189 11.5896 24.9498 12.0239 24.7221C12.1511 24.6591 12.2979 24.6482 12.433 24.692C12.568 24.7358 12.6806 24.8306 12.7466 24.9563C12.8126 25.0819 12.8269 25.2284 12.7863 25.3645C12.7457 25.5005 12.6535 25.6153 12.5295 25.6842C12.1564 25.88 11.8029 26.1112 11.474 26.3745C11.3778 26.4513 11.2583 26.4932 11.1352 26.4932ZM18.4379 25.5393C18.3624 25.5393 18.2878 25.5235 18.2187 25.4931C17.8337 25.3232 17.4333 25.1909 17.0229 25.0981C16.9514 25.0843 16.8834 25.0563 16.8229 25.0157C16.7625 24.9751 16.7108 24.9228 16.671 24.8618C16.6311 24.8009 16.6039 24.7326 16.591 24.6609C16.578 24.5893 16.5796 24.5158 16.5957 24.4447C16.6117 24.3737 16.6418 24.3066 16.6843 24.2475C16.7267 24.1883 16.7806 24.1383 16.8428 24.1004C16.9049 24.0624 16.9741 24.0374 17.0461 24.0267C17.1181 24.016 17.1915 24.0199 17.262 24.0381C17.7408 24.1464 18.208 24.3005 18.6572 24.4984C18.7713 24.5487 18.8646 24.6367 18.9215 24.7476C18.9784 24.8586 18.9955 24.9857 18.9698 25.1077C18.9441 25.2297 18.8772 25.3392 18.7804 25.4178C18.6835 25.4964 18.5626 25.5392 18.4379 25.5393ZM13.9798 25.1153C13.8462 25.1152 13.7173 25.0659 13.6177 24.9769C13.5182 24.8878 13.4549 24.7651 13.44 24.6324C13.4251 24.4996 13.4596 24.366 13.537 24.257C13.6143 24.1481 13.7291 24.0715 13.8594 24.0418C14.3375 23.9327 14.825 23.8696 15.3152 23.8533C15.3866 23.8509 15.4577 23.8627 15.5246 23.8878C15.5914 23.9129 15.6527 23.9509 15.7048 23.9997C15.757 24.0485 15.799 24.1071 15.8286 24.1721C15.8581 24.2372 15.8745 24.3074 15.8769 24.3788C15.8792 24.4501 15.8675 24.5213 15.8424 24.5882C15.8173 24.655 15.7793 24.7163 15.7305 24.7684C15.6817 24.8206 15.6231 24.8626 15.5581 24.8921C15.493 24.9216 15.4228 24.9381 15.3514 24.9404C14.9305 24.955 14.5119 25.0096 14.1012 25.1035C14.0613 25.1118 14.0206 25.1158 13.9798 25.1153Z" fill="black"/>
<path d="M37.0867 13.481C37.0318 13.5269 36.9865 13.5832 36.9533 13.6467C36.9202 13.7102 36.9 13.7796 36.8938 13.8509C36.8876 13.9222 36.8955 13.9941 36.9172 14.0624C36.9388 14.1306 36.9737 14.1939 37.0199 14.2486C37.0661 14.3034 37.1226 14.3484 37.1863 14.3812C37.2499 14.414 37.3194 14.4339 37.3908 14.4398C37.4622 14.4456 37.534 14.4373 37.6022 14.4154C37.6703 14.3934 37.7334 14.3581 37.7879 14.3117C38.4755 13.731 38.6196 13.1494 38.6196 12.7635V12.739C38.6165 12.5969 38.5579 12.4616 38.4563 12.3622C38.3547 12.2628 38.2182 12.2072 38.076 12.2072H38.0651C37.9936 12.2085 37.923 12.2239 37.8574 12.2525C37.7919 12.2812 37.7326 12.3225 37.683 12.3741C37.6335 12.4257 37.5945 12.4865 37.5686 12.5532C37.5426 12.6199 37.53 12.691 37.5315 12.7625C37.5325 13.0452 37.2933 13.3097 37.0867 13.481Z" fill="black"/>
<path d="M29.6834 15.0302C29.2413 15.0138 28.8019 14.9821 28.3771 14.9396C28.2336 14.9242 28.09 14.9664 27.9777 15.057C27.8654 15.1475 27.7936 15.279 27.7782 15.4224C27.7629 15.5659 27.8051 15.7095 27.8957 15.8218C27.9862 15.9341 28.1177 16.0059 28.2611 16.0212C28.7141 16.0693 29.1752 16.1028 29.6427 16.12H29.6635C29.8076 16.1226 29.947 16.0679 30.0508 15.9678C30.1546 15.8678 30.2144 15.7306 30.217 15.5864C30.2197 15.4422 30.1649 15.3029 30.0649 15.1991C29.9648 15.0953 29.8276 15.0355 29.6834 15.0329V15.0302Z" fill="black"/>
<path d="M35.676 14.2438C35.275 14.3912 34.8653 14.514 34.4494 14.6116C34.3204 14.6429 34.2073 14.7204 34.1315 14.8294C34.0558 14.9384 34.0225 15.0713 34.038 15.2032C34.0534 15.335 34.1166 15.4566 34.2156 15.5451C34.3146 15.6335 34.4425 15.6827 34.5753 15.6833C34.618 15.683 34.6606 15.6779 34.7021 15.6679C35.1628 15.5597 35.6166 15.4239 36.061 15.2611C36.1943 15.2094 36.3019 15.1073 36.3604 14.9768C36.4189 14.8463 36.4236 14.6981 36.3736 14.5641C36.3235 14.4302 36.2227 14.3213 36.093 14.2612C35.9633 14.2011 35.8151 14.1945 35.6805 14.2429L35.676 14.2438Z" fill="black"/>
<path d="M32.7417 14.9109C32.3186 14.9616 31.8801 15.0015 31.4362 15.0205C31.2921 15.024 31.1552 15.0846 31.0557 15.189C30.9562 15.2934 30.9023 15.433 30.9058 15.5772C30.9093 15.7213 30.9699 15.8582 31.0743 15.9577C31.1787 16.0572 31.3183 16.1111 31.4625 16.1076H31.4951C31.9635 16.084 32.4282 16.0451 32.8757 15.9916C32.9466 15.9831 33.0152 15.9607 33.0774 15.9257C33.1397 15.8908 33.1944 15.8438 33.2386 15.7877C33.2827 15.7315 33.3153 15.6672 33.3346 15.5985C33.3539 15.5297 33.3594 15.4578 33.3509 15.3869C33.3424 15.316 33.32 15.2475 33.285 15.1852C33.25 15.123 33.2031 15.0682 33.147 15.0241C33.0908 14.98 33.0265 14.9474 32.9578 14.9281C32.889 14.9088 32.8171 14.9033 32.7462 14.9118L32.7417 14.9109Z" fill="black"/>
<path d="M23.3229 14.4785C23.3805 14.5206 23.4459 14.551 23.5152 14.5678C23.5846 14.5847 23.6566 14.5877 23.7271 14.5767C23.7977 14.5657 23.8654 14.541 23.9263 14.5038C23.9873 14.4667 24.0404 14.4179 24.0825 14.3603C24.1246 14.3026 24.1549 14.2373 24.1718 14.1679C24.1886 14.0985 24.1917 14.0265 24.1807 13.956C24.1697 13.8854 24.1449 13.8178 24.1078 13.7568C24.0707 13.6958 24.0219 13.6428 23.9643 13.6006C23.6309 13.357 23.4279 13.1069 23.3781 12.8759C23.3652 12.804 23.338 12.7354 23.2981 12.6743C23.2581 12.6131 23.2062 12.5607 23.1455 12.52C23.0848 12.4794 23.0166 12.4514 22.9448 12.4377C22.8731 12.424 22.7993 12.425 22.7279 12.4404C22.6565 12.4559 22.589 12.4856 22.5294 12.5278C22.4697 12.5699 22.4192 12.6237 22.3807 12.6858C22.3423 12.7479 22.3168 12.8171 22.3058 12.8893C22.2947 12.9615 22.2983 13.0352 22.3164 13.106C22.4251 13.6097 22.7639 14.0699 23.3229 14.4785Z" fill="black"/>
<path d="M24.7367 14.6527C24.6896 14.7889 24.6986 14.9383 24.7616 15.0679C24.8246 15.1975 24.9366 15.2968 25.0728 15.3439C25.5182 15.4957 25.9719 15.6221 26.4317 15.7226C26.4704 15.7307 26.5099 15.735 26.5495 15.7353C26.6835 15.7353 26.8128 15.6858 26.9125 15.5963C27.0123 15.5069 27.0755 15.3837 27.09 15.2505C27.1044 15.1173 27.0692 14.9834 26.991 14.8745C26.9128 14.7657 26.7972 14.6896 26.6663 14.6608C26.2463 14.5701 25.8319 14.4552 25.4252 14.3166C25.2893 14.2703 25.1406 14.2797 25.0117 14.3427C24.8827 14.4057 24.7838 14.5171 24.7367 14.6527Z" fill="black"/>
<path d="M46.1529 23.7564C46.1439 23.7419 46.133 23.7283 46.1231 23.7148V20.024C46.1231 18.3743 45.2235 16.8188 43.5212 15.5252L43.4959 15.5079V13.0103C43.4959 10.9565 42.0971 9.05138 39.5569 7.64537C37.119 6.29554 33.8885 5.55267 30.4622 5.55267C27.036 5.55267 23.8055 6.29554 21.3676 7.64537C18.8817 9.02148 17.4902 10.8759 17.4313 12.8789C17.4304 12.8973 17.4304 12.9158 17.4313 12.9342V16.788C17.4313 17.5771 17.7031 18.3281 18.2077 19.0202C17.3421 18.838 16.4597 18.7469 15.5751 18.7485C8.59218 18.7485 2.91019 24.4295 2.91019 31.4124C2.91019 38.3954 8.59218 44.0774 15.5751 44.0774C17.9875 44.0802 20.3499 43.3899 22.3813 42.0888C24.6371 43.021 27.5605 43.5764 30.7956 43.5764C38.1047 43.5764 43.8292 40.7435 43.8292 37.1271V34.4709C45.8132 33.3421 47 31.8582 47 30.213V26.4353C46.9991 25.5085 46.7146 24.6089 46.1529 23.7564ZM43.4922 16.9194C44.2931 17.674 45.0323 18.7231 45.0323 20.0213C45.0323 21.6619 43.832 23.2292 41.6541 24.435C39.3739 25.6969 36.3318 26.3918 33.0858 26.3918C30.8029 26.3918 28.6078 26.0421 26.7117 25.3953C26.4577 24.927 26.1745 24.4753 25.8637 24.0427C27.7888 24.9251 30.3363 25.4396 33.0858 25.4396C39.1066 25.4396 43.8229 23.0272 43.8229 19.9479C43.8159 19.2889 43.609 18.6476 43.2295 18.1089C43.385 17.7314 43.4739 17.3299 43.4922 16.9221V16.9194ZM26.2261 38.2513C27.7241 38.5941 29.2562 38.7652 30.7929 38.7614C34.8225 38.7614 38.4435 37.6579 40.2843 35.8778C40.927 35.707 41.5592 35.4989 42.1777 35.2545C41.5508 36.2981 40.4139 37.2548 38.8647 38.0185C36.6488 39.1129 33.7825 39.7162 30.7929 39.7162C29.0551 39.7225 27.3235 39.5094 25.6391 39.0821C25.8447 38.8148 26.0413 38.5367 26.2261 38.2513ZM30.7929 37.6742C29.4509 37.6772 28.1123 37.5403 26.7987 37.2657C27.0439 36.7984 27.2593 36.3161 27.4437 35.8216C29.3516 36.3561 31.5729 36.6614 33.9664 36.6614C35.1187 36.6621 36.2698 36.5879 37.4125 36.4395C35.6414 37.2167 33.2824 37.6733 30.7929 37.6733V37.6742ZM28.1322 29.7827C29.7654 30.1001 31.4257 30.2576 33.0894 30.2529C36.9224 30.2529 40.3188 29.4729 42.6832 28.21C41.1178 29.7021 37.7559 30.762 33.9655 30.762C31.7976 30.762 29.771 30.415 28.1394 29.8388C28.1367 29.8198 28.1349 29.8008 28.1322 29.7818V29.7827ZM33.0894 29.1657C31.3534 29.1705 29.622 28.9867 27.9256 28.6177C27.7804 27.9726 27.5841 27.3401 27.3386 26.7261C29.2127 27.2361 31.1472 27.4906 33.0894 27.4825C36.5157 27.4825 39.7462 26.7397 42.1841 25.3898C43.4107 24.7104 44.3701 23.915 45.0359 23.0426V23.8026C45.0359 26.7089 39.565 29.1648 33.0894 29.1648V29.1657ZM42.7394 19.9515C42.7394 22.3387 38.3203 24.3562 33.0894 24.3562C30.2992 24.3562 27.6946 23.7854 25.8873 22.8469C27.3976 23.1134 28.9286 23.2453 30.4622 23.241C36.041 23.241 40.6992 21.5904 42.5881 19.2005C42.6863 19.4388 42.7377 19.6938 42.7394 19.9515ZM21.8921 8.5966C24.1715 7.33464 27.2145 6.63979 30.4604 6.63979C33.7064 6.63979 36.7485 7.33464 39.0287 8.5966C41.2029 9.80239 42.4069 11.3697 42.4069 13.0103C42.4069 14.6509 41.2066 16.2182 39.0287 17.424C36.7494 18.6832 33.7082 19.3808 30.4622 19.3808C27.2163 19.3808 24.1733 18.6832 21.8921 17.424C19.7134 16.2182 18.5139 14.6509 18.5139 13.0103C18.5139 11.3697 19.7179 9.80511 21.8921 8.5966ZM18.5139 16.788V16.0279C19.1798 16.9004 20.1392 17.6958 21.3658 18.3752C23.8037 19.725 27.0333 20.4679 30.4604 20.4679C33.8876 20.4679 37.1172 19.725 39.5551 18.3752C40.7817 17.6958 41.7411 16.9004 42.4069 16.0279V16.788C42.4021 17.1718 42.3091 17.5493 42.1351 17.8914C42.12 17.9166 42.107 17.943 42.0962 17.9703C40.8596 20.3311 36.0265 22.1502 30.4559 22.1502C27.2851 22.1502 24.3517 21.5605 22.1875 20.6174C21.7022 20.3189 21.1973 20.0535 20.6764 19.8229C19.3229 18.955 18.5157 17.9041 18.5157 16.788H18.5139ZM3.99459 31.4088C3.99459 29.119 4.67361 26.8805 5.94579 24.9765C7.21798 23.0726 9.02618 21.5886 11.1417 20.7123C13.2573 19.836 15.5852 19.6068 17.8311 20.0535C20.077 20.5002 22.1399 21.6029 23.7591 23.2221C25.3783 24.8413 26.481 26.9042 26.9277 29.1501C27.3744 31.396 27.1451 33.7239 26.2689 35.8395C25.3926 37.955 23.9086 39.7632 22.0046 41.0354C20.1007 42.3076 17.8622 42.9866 15.5724 42.9866C12.5028 42.9833 9.55988 41.7624 7.38935 39.5919C5.21882 37.4213 3.99794 34.4784 3.99459 31.4088ZM42.7394 37.1234C42.7394 40.0297 37.2685 42.4856 30.7929 42.4856C28.0525 42.4856 25.4923 42.0453 23.4503 41.3179C23.9562 40.9148 24.4308 40.4738 24.8699 39.9989C26.797 40.5423 28.7907 40.813 30.7929 40.8033C33.9464 40.8033 36.984 40.1601 39.3467 38.9915C40.8206 38.2667 41.9739 37.3608 42.7394 36.3534V37.1234ZM45.9102 30.2103C45.9102 31.5193 44.8004 32.7369 42.9894 33.68C42.958 33.6931 42.9277 33.7089 42.8988 33.7271C40.6911 34.8514 37.4769 35.5734 33.9664 35.5734C31.8778 35.5839 29.7973 35.3136 27.7807 34.7698C27.9309 34.2246 28.0441 33.6698 28.1195 33.1093C30.0221 33.637 31.9884 33.8998 33.9627 33.8902C37.389 33.8902 40.6195 33.1473 43.0574 31.7975C44.284 31.118 45.2434 30.3226 45.9092 29.4502L45.9102 30.2103ZM42.5319 30.8444C40.2517 32.1064 37.2087 32.8012 33.9637 32.8012C32.0212 32.8123 30.0873 32.5445 28.221 32.0058C28.23 31.8074 28.2355 31.6081 28.2355 31.407C28.2355 31.2775 28.2355 31.1488 28.2282 31.0202C29.8779 31.5447 31.8383 31.8464 33.9637 31.8464C39.6855 31.8464 44.2269 29.6676 44.6645 26.8085C45.105 26.3986 45.4699 25.9144 45.7426 25.378C45.853 25.7181 45.9095 26.0732 45.9102 26.4307C45.912 28.0732 44.7116 29.645 42.5338 30.8462L42.5319 30.8444Z" fill="black"/>
<path d="M30.4622 18.4249C36.483 18.4249 41.1993 16.0133 41.1993 12.934C41.1993 9.85476 36.483 7.44318 30.4622 7.44318C24.4414 7.44318 19.7251 9.85476 19.7251 12.934C19.7251 16.0133 24.4414 18.4249 30.4622 18.4249ZM30.4622 8.53029C35.6931 8.53029 40.1122 10.5469 40.1122 12.934C40.1122 15.3211 35.6931 17.3377 30.4622 17.3377C25.2314 17.3377 20.8122 15.3211 20.8122 12.934C20.8122 10.5469 25.2314 8.53029 30.4622 8.53029Z" fill="black"/>
<path d="M15.5722 41.1421C13.6471 41.1421 11.7653 40.5713 10.1646 39.5017C8.56398 38.4322 7.31644 36.9121 6.57975 35.1336C5.84305 33.355 5.6503 31.398 6.02586 29.5099C6.40143 27.6218 7.32843 25.8875 8.68966 24.5263C10.0509 23.1651 11.7852 22.2381 13.6733 21.8625C15.5614 21.4869 17.5184 21.6797 19.2969 22.4164C21.0755 23.1531 22.5956 24.4006 23.6651 26.0013C24.7346 27.6019 25.3055 29.4837 25.3055 31.4088C25.3026 33.9893 24.2762 36.4634 22.4515 38.2881C20.6267 40.1128 18.1527 41.1392 15.5722 41.1421ZM15.5722 22.7626C13.8621 22.7626 12.1904 23.2697 10.7686 24.2197C9.34672 25.1698 8.23852 26.5201 7.58411 28.1C6.9297 29.6799 6.75848 31.4184 7.09209 33.0956C7.42571 34.7728 8.24918 36.3134 9.45837 37.5226C10.6676 38.7318 12.2082 39.5552 13.8854 39.8889C15.5626 40.2225 17.301 40.0512 18.8809 39.3968C20.4608 38.7424 21.8111 37.6342 22.7612 36.2124C23.7113 34.7905 24.2183 33.1188 24.2183 31.4088C24.2164 29.116 23.305 26.9177 21.684 25.2962C20.063 23.6747 17.8649 22.7625 15.5722 22.7599V22.7626Z" fill="black"/>
</svg>
