<svg width="50" height="50" viewBox="0 0 50 50" fill="none" xmlns="http://www.w3.org/2000/svg">
<path d="M44.4221 33.3301C45.7198 29.662 45.3841 24.9963 43.5145 21.0553C42.1532 18.2148 40.2383 16.251 38.0693 15.5174C37.9728 15.4853 37.8693 15.4792 37.7696 15.4997C37.6699 15.5202 37.5775 15.5666 37.5021 15.6341C37.4267 15.7016 37.3709 15.7878 37.3406 15.8837C37.3103 15.9795 37.3065 16.0816 37.3296 16.1794C38.2372 19.8341 37.8243 20.8048 36.9076 21.5474C36.59 17.1412 34.9065 15.1729 33.7585 13.8354C33.4612 13.5198 33.1995 13.1733 32.978 12.8021C31.3989 9.61262 32.5242 5.75663 32.5242 5.71637C32.551 5.62569 32.5542 5.52983 32.5336 5.43759C32.513 5.34536 32.4692 5.25971 32.4062 5.18852C32.3428 5.11626 32.2612 5.06169 32.1696 5.03029C32.078 4.99889 31.9797 4.99175 31.8844 5.00959C31.6575 5.04537 26.3076 5.99371 23.5986 10.1181C22.0285 12.5024 21.6882 15.4413 22.5776 18.8545C22.9257 20.1325 23.0136 21.4659 22.8362 22.7776C22.142 19.8789 19.7461 17.9866 19.6099 17.8569C19.525 17.7924 19.4234 17.7528 19.3166 17.7425C19.2099 17.7322 19.1024 17.7517 19.0064 17.7988C18.9084 17.8526 18.8291 17.9344 18.7789 18.0333C18.7287 18.1323 18.71 18.2438 18.7251 18.3535C18.8242 20.7333 18.309 23.099 17.2276 25.2289C16.7726 26.1637 16.4079 27.1387 16.1386 28.1411C15.6894 28.2315 15.2605 28.4013 14.8726 28.6421L14.0649 29.2012C11.7506 30.8206 8.57426 33.0348 4.56747 33.0348C4.41704 33.0348 4.27276 33.0938 4.16639 33.1986C4.06002 33.3035 4.00026 33.4457 4.00026 33.594V44.8444C3.99759 44.9302 4.01552 45.0155 4.05258 45.0932C4.08964 45.1709 4.14478 45.2389 4.21353 45.2917C4.27926 45.3445 4.35626 45.382 4.43877 45.4014C4.52128 45.4208 4.60716 45.4215 4.68999 45.4035C7.53059 44.746 15.0223 43.0953 15.6667 43.0148C16.1931 43.0148 19.0836 44.0526 20.9985 44.737C22.3326 45.2157 23.594 45.663 24.3428 45.8867C24.67 45.9706 25.0076 46.0083 25.3456 45.9985C28.4584 45.9985 35.442 44.0929 36.3495 43.8513L36.4584 43.8066C38.2735 42.9119 47.1764 38.1747 45.8696 35.097C45.5894 34.3716 45.0825 33.7528 44.4221 33.3301ZM18.2668 25.6763C19.2203 23.7964 19.7555 21.7375 19.8368 19.6373C20.9304 20.8406 22.5594 23.2159 21.6519 26.0431C21.6126 26.1692 21.6199 26.305 21.6724 26.4263C21.7248 26.5477 21.8192 26.6469 21.9386 26.7063C22.0581 26.7658 22.1951 26.7816 22.3253 26.7511C22.4555 26.7206 22.5706 26.6457 22.6502 26.5396C22.7455 26.4144 24.9553 23.4083 23.6984 18.595C22.8998 15.4995 23.1902 12.8602 24.5787 10.7488C26.3938 7.96644 29.6972 6.76312 31.2537 6.32921C30.9769 7.77856 30.6728 10.6907 31.9752 13.312C32.2275 13.7669 32.532 14.1917 32.8827 14.578C34.0353 15.8931 35.7415 17.9061 35.8367 22.6523C35.8372 22.755 35.8667 22.8554 35.9221 22.9424C35.9774 23.0293 36.0563 23.0993 36.1498 23.1444C36.2431 23.189 36.3469 23.2076 36.4501 23.1981C36.5533 23.1887 36.6519 23.1515 36.7352 23.0907L37.012 22.8983C38.5367 21.8158 39.4714 20.9122 38.6955 17.0249C40.1612 17.8748 41.5043 19.4628 42.489 21.5295C44.2043 25.1484 44.5355 29.5815 43.3602 32.9409C42.7094 32.843 42.0438 32.9235 41.4363 33.1735C41.4096 33.1852 41.3839 33.1986 41.3591 33.2138L34.3166 37.7989C32.7556 38.2776 28.5855 39.2125 26.8158 38.1389C25.404 37.181 24.1388 36.0286 23.0586 34.7168C27.8322 35.3833 29.5475 34.2695 30.1238 33.1467C30.344 32.7312 30.4283 32.2586 30.3649 31.794C30.3015 31.3294 30.0936 30.8955 29.7698 30.5522C28.8078 29.6575 26.6661 29.3086 24.1794 28.9731C23.6666 28.906 23.0132 28.7673 22.3189 28.6242C20.7444 28.2976 18.9338 27.9174 17.3547 27.9755C17.6017 27.1883 17.9065 26.4198 18.2668 25.6763ZM35.9638 42.7867C32.2973 43.7976 26.0399 45.2291 24.6649 44.8175C23.948 44.6028 22.7001 44.1555 21.3842 43.6858C18.0444 42.4914 16.3156 41.8965 15.6349 41.8965H15.526C14.8091 41.9859 7.54874 43.5963 5.12107 44.1331V34.1576C9.205 33.9698 12.3814 31.7644 14.7092 30.1317L15.5033 29.5815C16.8964 28.6376 19.8867 29.2639 22.0694 29.7201C22.7863 29.8677 23.4624 30.0109 24.0115 30.0825C25.5815 30.2927 28.2043 30.6461 28.9803 31.3663C29.1195 31.5454 29.2048 31.7595 29.2264 31.9842C29.2481 32.2088 29.2053 32.4349 29.1028 32.6367C28.7988 33.2183 27.4828 34.4618 21.779 33.3703C21.6647 33.3463 21.5457 33.3576 21.4381 33.4027C21.3306 33.4478 21.2399 33.5246 21.1783 33.6225C21.1167 33.7204 21.0873 33.8347 21.0941 33.9497C21.1009 34.0647 21.1436 34.1748 21.2163 34.265C21.3161 34.3992 23.7256 37.6021 26.2077 39.1051C28.8169 40.6842 34.48 38.9307 34.7205 38.8546C34.7709 38.8404 34.8185 38.8177 34.8611 38.7875L41.9399 34.1755C42.4565 33.9787 43.0268 33.9676 43.5508 34.1442C43.8445 34.2797 44.1072 34.4724 44.3233 34.7108C44.5393 34.9491 44.7041 35.2281 44.8078 35.531C45.4657 37.0787 39.9479 40.7647 35.9774 42.7867H35.9638Z" fill="black"/>
</svg>
