<svg width="41" height="42" viewBox="0 0 41 42" fill="none" xmlns="http://www.w3.org/2000/svg">
<g clip-path="url(#clip0_0_593)">
<g clip-path="url(#clip1_0_593)">
<path d="M25.7808 26.87C25.5393 26.7547 25.2773 26.69 25.0104 26.6797C24.7435 26.6694 24.4773 26.7139 24.2278 26.8103L19.1606 28.7885C18.6671 28.0052 17.5723 27.4474 16.4233 26.8626C15.5172 26.4011 14.5796 25.9236 14.1433 25.398C12.356 23.2445 9.90084 22.9481 6.84629 24.5125C6.6277 24.1882 6.31478 23.9405 5.95077 23.8035C5.58675 23.6666 5.18961 23.6472 4.8142 23.748L4.38607 23.8635C3.90712 23.9946 3.49905 24.3118 3.25107 24.7459C3.00309 25.1799 2.93538 25.6955 3.06274 26.1798L4.61959 32.0501C4.74828 32.5345 5.06222 32.9474 5.49236 33.198C5.9225 33.4486 6.4336 33.5164 6.91323 33.3865L7.34137 33.2686C7.70728 33.1682 8.03462 32.9585 8.28049 32.667C8.52635 32.3755 8.67927 32.0158 8.71919 31.635L8.87215 31.5859C9.24385 31.4649 9.8662 31.2628 10.1208 31.3729C10.5213 31.5458 11.0031 31.7797 11.5134 32.0273C13.3641 32.9294 15.5709 33.9993 17.3391 33.9993C17.8007 34.0092 18.2589 33.9174 18.6819 33.7304L25.6438 30.4865C26.1065 30.2829 26.4773 29.912 26.6832 29.4467C26.8891 28.9813 26.9154 28.4549 26.7569 27.971C26.6775 27.7298 26.5499 27.5076 26.382 27.3182C26.2141 27.1288 26.0095 26.9763 25.7808 26.87ZM7.75121 31.9676C7.68372 32.0868 7.59348 32.1914 7.48572 32.2752C7.37796 32.3589 7.25482 32.4203 7.12341 32.4557L6.69527 32.5713C6.42989 32.6428 6.14728 32.605 5.90941 32.4664C5.67155 32.3277 5.49786 32.0994 5.42643 31.8316L3.86958 25.9609C3.79969 25.6929 3.8375 25.4079 3.97478 25.168C4.11206 24.928 4.33767 24.7526 4.60247 24.6799L5.0306 24.562C5.16201 24.5263 5.2991 24.5172 5.43401 24.5351C5.56893 24.553 5.69902 24.5975 5.81687 24.6662C5.93471 24.735 6.03799 24.8264 6.12079 24.9355C6.2036 25.0445 6.26431 25.169 6.29944 25.3017L7.8563 31.1724C7.89176 31.3054 7.90073 31.4441 7.8827 31.5806C7.86466 31.7171 7.81996 31.8486 7.75121 31.9676ZM25.2931 29.7209L18.3316 32.9648C16.8191 33.6695 13.9611 32.282 11.8746 31.2691C11.3557 31.0172 10.8657 30.7794 10.4485 30.6009C9.90707 30.367 9.19325 30.5986 8.61916 30.7853L7.1635 25.2986C9.8915 23.8804 11.9676 24.0919 13.503 25.942C14.0499 26.6008 15.0653 27.118 16.0473 27.6184C17.1305 28.1687 18.3581 28.7956 18.5636 29.476C18.5955 29.5933 18.6015 29.7162 18.5814 29.8361C18.5612 29.956 18.5153 30.07 18.4468 30.1701C18.3949 30.283 18.3202 30.3837 18.2275 30.4657C18.1348 30.5477 18.0262 30.6093 17.9085 30.6465C17.306 30.8037 16.3762 30.2279 15.6974 29.8066C15.5157 29.6937 15.3436 29.5868 15.1837 29.4964C15.1357 29.4673 15.0824 29.4483 15.027 29.4403C14.9715 29.4324 14.9151 29.4358 14.861 29.4503C14.8069 29.4648 14.7562 29.4901 14.712 29.5247C14.6678 29.5593 14.6309 29.6026 14.6035 29.6519C14.5761 29.7012 14.5587 29.7555 14.5525 29.8117C14.5463 29.8678 14.5513 29.9247 14.5672 29.9789C14.5831 30.0331 14.6096 30.0835 14.6452 30.1271C14.6807 30.1708 14.7246 30.2068 14.7742 30.233C14.9198 30.3156 15.0856 30.4181 15.2595 30.5262C16.1111 31.0549 17.171 31.7129 18.1191 31.4645C18.3465 31.3997 18.5579 31.2878 18.74 31.1358C18.922 30.9837 19.0706 30.795 19.1762 30.5817C19.3536 30.2827 19.4411 29.9382 19.428 29.59L24.5295 27.5984C24.6733 27.5428 24.8268 27.5173 24.9807 27.5234C25.1345 27.5294 25.2856 27.567 25.4247 27.6337C25.5505 27.6916 25.6633 27.775 25.756 27.8786C25.8487 27.9823 25.9194 28.104 25.9637 28.2363C26.0554 28.5236 26.0375 28.8352 25.9134 29.1099C25.7894 29.3846 25.5681 29.6025 25.2931 29.7209ZM15.9932 19.5855C15.6361 19.5854 15.2869 19.6923 14.99 19.8927C14.693 20.093 14.4615 20.3778 14.3248 20.7109C14.1881 21.0441 14.1523 21.4108 14.2219 21.7645C14.2916 22.1183 14.4636 22.4432 14.7161 22.6982C14.9686 22.9533 15.2904 23.1269 15.6407 23.1973C15.991 23.2676 16.354 23.2315 16.684 23.0934C17.0139 22.9554 17.2959 22.7216 17.4943 22.4217C17.6926 22.1218 17.7985 21.7692 17.7984 21.4085C17.7979 20.9252 17.6075 20.4618 17.2691 20.12C16.9307 19.7783 16.4718 19.586 15.9932 19.5855ZM15.9932 22.3868C15.8016 22.3868 15.6143 22.3295 15.455 22.222C15.2957 22.1145 15.1715 21.9617 15.0982 21.7829C15.0249 21.6041 15.0057 21.4074 15.0431 21.2177C15.0805 21.0279 15.1727 20.8536 15.3082 20.7167C15.4437 20.5799 15.6163 20.4867 15.8042 20.449C15.9921 20.4113 16.1869 20.4306 16.3639 20.5047C16.541 20.5787 16.6923 20.7041 16.7987 20.865C16.9052 21.0259 16.962 21.215 16.962 21.4085C16.9617 21.6679 16.8595 21.9165 16.6779 22.0999C16.4963 22.2833 16.2501 22.3865 15.9932 22.3868ZM26.8827 19.9161C26.8489 19.8435 26.7953 19.7821 26.7283 19.739C26.6612 19.696 26.5834 19.6732 26.504 19.6732H19.0595C18.6878 19.0858 18.1375 18.6359 17.4912 18.391C16.8449 18.1462 16.1374 18.1195 15.4749 18.315C14.8123 18.5106 14.2304 18.9178 13.8164 19.4755C13.4023 20.0333 13.1786 20.7116 13.1786 21.4087C13.1786 22.1058 13.4023 22.7841 13.8164 23.3419C14.2304 23.8997 14.8123 24.3068 15.4749 24.5024C16.1374 24.6979 16.8449 24.6712 17.4912 24.4264C18.1375 24.1815 18.6878 23.7316 19.0595 23.1443H21.5843C21.6392 23.1443 21.6936 23.1333 21.7444 23.1121C21.7951 23.0908 21.8413 23.0597 21.8801 23.0204L22.6359 22.2571L23.3918 23.0204C23.4306 23.0597 23.4767 23.0909 23.5275 23.1121C23.5782 23.1334 23.6327 23.1443 23.6876 23.1443H24.4038C24.4587 23.1443 24.5131 23.1334 24.5639 23.1121C24.6146 23.0909 24.6608 23.0597 24.6996 23.0204L25.4554 22.2571L26.2113 23.0204C26.2587 23.0684 26.3168 23.1042 26.3808 23.1247C26.4448 23.1452 26.5127 23.1499 26.5788 23.1384C26.645 23.1268 26.7074 23.0993 26.7608 23.0583C26.8142 23.0172 26.8571 22.9638 26.8858 22.9025L27.4965 21.5893C27.5226 21.5331 27.5361 21.4718 27.5361 21.4097C27.5361 21.3476 27.5226 21.2863 27.4965 21.2301L26.8827 19.9161ZM26.3767 21.9993L25.7462 21.3625C25.7073 21.3233 25.6612 21.2921 25.6105 21.2709C25.5597 21.2496 25.5053 21.2387 25.4504 21.2387C25.3954 21.2387 25.341 21.2496 25.2902 21.2709C25.2395 21.2921 25.1934 21.3233 25.1545 21.3625L24.2255 22.3008H23.8557L22.9267 21.3625C22.8879 21.3233 22.8418 21.2921 22.791 21.2709C22.7402 21.2496 22.6858 21.2387 22.6309 21.2387C22.5759 21.2387 22.5215 21.2496 22.4708 21.2709C22.42 21.2921 22.3739 21.3233 22.3351 21.3625L21.4056 22.3008H18.8181C18.7422 22.3007 18.6677 22.3216 18.6026 22.3612C18.5375 22.4007 18.4843 22.4574 18.4488 22.5252C18.2024 22.9943 17.8076 23.3667 17.3274 23.5831C16.8471 23.7994 16.309 23.8473 15.7987 23.7191C15.2884 23.5908 14.8353 23.2939 14.5114 22.8755C14.1876 22.4571 14.0116 21.9413 14.0116 21.4103C14.0116 20.8792 14.1876 20.3635 14.5114 19.9451C14.8353 19.5267 15.2884 19.2297 15.7987 19.1015C16.309 18.9733 16.8471 19.0212 17.3274 19.2375C17.8076 19.4539 18.2024 19.8263 18.4488 20.2954C18.4843 20.3631 18.5375 20.4198 18.6026 20.4594C18.6677 20.4989 18.7422 20.5198 18.8181 20.5198H26.2397L26.6538 21.4101L26.3767 21.9993ZM37.9364 16.8204L36.3795 10.9501C36.2499 10.4663 35.9358 10.0541 35.5059 9.80361C35.0761 9.55315 34.5655 9.48486 34.0859 9.6137L33.6577 9.72925C33.2917 9.82938 32.9642 10.039 32.7183 10.3305C32.4724 10.6221 32.3196 10.9819 32.2799 11.3628L32.1265 11.4119C31.7307 11.5408 31.1329 11.735 30.8779 11.625C30.4778 11.452 29.996 11.2182 29.4857 10.9705C27.1244 9.82437 24.1858 8.39758 22.3156 9.26899L15.3553 12.5121C14.8925 12.7157 14.5218 13.0866 14.3159 13.552C14.1099 14.0174 14.0836 14.5437 14.2421 15.0276C14.3218 15.2688 14.4495 15.4908 14.6175 15.6801C14.7854 15.8694 14.99 16.0219 15.2187 16.1282C15.4601 16.2435 15.7221 16.3083 15.9889 16.3185C16.2558 16.3288 16.5219 16.2844 16.7713 16.1879L21.8384 14.2117C22.332 14.995 23.4268 15.5528 24.5758 16.1376C25.4823 16.5995 26.4195 17.077 26.8558 17.6026C27.2999 18.185 27.8705 18.6567 28.5235 18.9814C29.1766 19.3062 29.8947 19.4752 30.6226 19.4755C31.8596 19.4295 33.0687 19.0913 34.1528 18.4881C34.3707 18.8131 34.6836 19.0614 35.0478 19.1984C35.4121 19.3353 35.8096 19.3541 36.1849 19.2522L36.613 19.1367C37.0924 19.0062 37.5009 18.6891 37.749 18.2549C37.9971 17.8206 38.0645 17.3047 37.9364 16.8204ZM27.4957 17.0601C26.9488 16.4014 25.9334 15.8841 24.9514 15.3838C23.8682 14.8335 22.6406 14.2046 22.4351 13.5262C22.4032 13.4089 22.3972 13.286 22.4174 13.166C22.4375 13.0461 22.4834 12.9321 22.5519 12.832C22.6037 12.7192 22.6784 12.6185 22.771 12.5365C22.8636 12.4545 22.9722 12.3929 23.0898 12.3557C23.693 12.1984 24.6221 12.7743 25.3009 13.1956C25.483 13.3084 25.6547 13.4153 25.8147 13.5057C25.8626 13.5348 25.9159 13.5539 25.9713 13.5618C26.0268 13.5698 26.0832 13.5664 26.1373 13.5519C26.1914 13.5374 26.2421 13.5121 26.2863 13.4774C26.3305 13.4428 26.3675 13.3996 26.3949 13.3503C26.4223 13.301 26.4396 13.2467 26.4458 13.1905C26.452 13.1343 26.4471 13.0775 26.4311 13.0233C26.4152 12.9691 26.3887 12.9187 26.3531 12.875C26.3176 12.8314 26.2737 12.7954 26.2241 12.7691C26.0789 12.6866 25.9127 12.584 25.7391 12.4755C24.8872 11.9469 23.8273 11.2893 22.8796 11.5377C22.6524 11.6026 22.441 11.7146 22.2591 11.8666C22.0771 12.0186 21.9285 12.2072 21.8229 12.4205C21.6458 12.7195 21.5585 13.064 21.5714 13.4122L16.4696 15.4018C16.3258 15.4575 16.1723 15.483 16.0184 15.4769C15.8645 15.4708 15.7135 15.4333 15.5744 15.3665C15.4485 15.3086 15.3357 15.2253 15.2429 15.1216C15.1501 15.018 15.0793 14.8962 15.035 14.7639C14.9432 14.4768 14.9609 14.1653 15.0846 13.8907C15.2084 13.6161 15.4293 13.398 15.704 13.2793L22.6659 10.0354C24.1803 9.33109 27.0383 10.7182 29.1245 11.7311C29.6434 11.983 30.1334 12.2208 30.5506 12.3993C31.092 12.6328 31.8058 12.4016 32.3799 12.2149L33.836 17.7016C31.1084 19.1217 29.0327 18.9103 27.4968 17.0586L27.4957 17.0601ZM36.397 18.3203L35.9689 18.4382C35.7035 18.5088 35.4213 18.4707 35.1837 18.3321C34.946 18.1936 34.7722 17.9658 34.7 17.6985L33.1432 11.8278C33.0734 11.5598 33.1112 11.2749 33.2483 11.0349C33.3855 10.7949 33.611 10.6194 33.8757 10.5464L34.3038 10.4309C34.5692 10.3604 34.8513 10.3985 35.089 10.5371C35.3266 10.6756 35.5004 10.9033 35.5727 11.1706L37.1295 17.0413C37.1997 17.3089 37.162 17.5938 37.0247 17.8335C36.8875 18.0732 36.6618 18.2482 36.397 18.3203Z" fill="url(#paint0_linear_0_593)"/>
</g>
</g>
<defs>
<linearGradient id="paint0_linear_0_593" x1="30.2687" y1="9" x2="30.1869" y2="39.3576" gradientUnits="userSpaceOnUse">
<stop stop-color="#005CAA"/>
<stop offset="1" stop-color="#64B0F1"/>
</linearGradient>
<clipPath id="clip0_0_593">
<rect width="39.7513" height="40.3589" fill="white" transform="translate(0.945648 0.992188)"/>
</clipPath>
<clipPath id="clip1_0_593">
<rect width="38" height="38" fill="white" transform="translate(2.14877 2)"/>
</clipPath>
</defs>
</svg>
