<svg width="40" height="42" viewBox="0 0 40 42" fill="none" xmlns="http://www.w3.org/2000/svg">
<g clip-path="url(#clip0_0_511)">
<path d="M4.87336 4.87988H30.8329H31.179V5.22601V12.6894V13.0356H30.8329H4.87336H4.52721V12.6894V5.22601V4.87988H4.87336ZM30.4868 5.57217H5.2195V12.3433H30.4868V5.57217Z" fill="url(#paint0_linear_0_511)"/>
<path d="M4.87336 4.87988H30.8329H31.179V5.22601V12.6894V13.0356H30.8329H4.87336H4.52721V12.6894V5.22601V4.87988H4.87336ZM30.4868 5.57217H5.2195V12.3433H30.4868V5.57217Z" fill="black" fill-opacity="0.2"/>
<path d="M7.34796 7.76047C7.6787 7.76047 7.9782 7.89456 8.19498 8.11137C8.41179 8.32817 8.54587 8.62764 8.54587 8.95839C8.54587 9.28916 8.41179 9.58864 8.19498 9.80544C7.9782 10.0222 7.6787 10.1563 7.34796 10.1563C7.01721 10.1563 6.71774 10.0222 6.50093 9.80544C6.28413 9.58864 6.15004 9.28916 6.15004 8.95839C6.15004 8.62764 6.28413 8.32817 6.50093 8.11137C6.71774 7.89456 7.01721 7.76047 7.34796 7.76047ZM7.70555 8.60082C7.61407 8.50934 7.48762 8.45275 7.34796 8.45275C7.20829 8.45275 7.08185 8.50934 6.99037 8.60082C6.89891 8.69228 6.8423 8.81872 6.8423 8.95839C6.8423 9.09805 6.89891 9.2245 6.99037 9.31598C7.08185 9.40746 7.20829 9.46405 7.34796 9.46405C7.48762 9.46405 7.61407 9.40746 7.70555 9.31598C7.797 9.2245 7.85361 9.09805 7.85361 8.95839C7.85361 8.81872 7.797 8.69228 7.70555 8.60082Z" fill="url(#paint1_linear_0_511)"/>
<path d="M7.34796 7.76047C7.6787 7.76047 7.9782 7.89456 8.19498 8.11137C8.41179 8.32817 8.54587 8.62764 8.54587 8.95839C8.54587 9.28916 8.41179 9.58864 8.19498 9.80544C7.9782 10.0222 7.6787 10.1563 7.34796 10.1563C7.01721 10.1563 6.71774 10.0222 6.50093 9.80544C6.28413 9.58864 6.15004 9.28916 6.15004 8.95839C6.15004 8.62764 6.28413 8.32817 6.50093 8.11137C6.71774 7.89456 7.01721 7.76047 7.34796 7.76047ZM7.70555 8.60082C7.61407 8.50934 7.48762 8.45275 7.34796 8.45275C7.20829 8.45275 7.08185 8.50934 6.99037 8.60082C6.89891 8.69228 6.8423 8.81872 6.8423 8.95839C6.8423 9.09805 6.89891 9.2245 6.99037 9.31598C7.08185 9.40746 7.20829 9.46405 7.34796 9.46405C7.48762 9.46405 7.61407 9.40746 7.70555 9.31598C7.797 9.2245 7.85361 9.09805 7.85361 8.95839C7.85361 8.81872 7.797 8.69228 7.70555 8.60082Z" fill="black" fill-opacity="0.2"/>
<path d="M10.5492 7.76047C10.8799 7.76047 11.1794 7.89456 11.3962 8.11137C11.613 8.32817 11.7471 8.62764 11.7471 8.95839C11.7471 9.28916 11.613 9.58864 11.3962 9.80544C11.1794 10.0222 10.8799 10.1563 10.5492 10.1563C10.2184 10.1563 9.91894 10.0222 9.70213 9.80544C9.48533 9.58864 9.35124 9.28916 9.35124 8.95839C9.35124 8.62764 9.48533 8.32817 9.70213 8.11137C9.91894 7.89456 10.2184 7.76047 10.5492 7.76047ZM10.9067 8.60082C10.8153 8.50934 10.6888 8.45275 10.5492 8.45275C10.4095 8.45275 10.283 8.50934 10.1916 8.60082C10.1001 8.69228 10.0435 8.81872 10.0435 8.95839C10.0435 9.09805 10.1001 9.2245 10.1916 9.31598C10.283 9.40746 10.4095 9.46405 10.5492 9.46405C10.6888 9.46405 10.8153 9.40746 10.9067 9.31598C10.9982 9.2245 11.0548 9.09805 11.0548 8.95839C11.0548 8.81872 10.9982 8.69228 10.9067 8.60082Z" fill="url(#paint2_linear_0_511)"/>
<path d="M10.5492 7.76047C10.8799 7.76047 11.1794 7.89456 11.3962 8.11137C11.613 8.32817 11.7471 8.62764 11.7471 8.95839C11.7471 9.28916 11.613 9.58864 11.3962 9.80544C11.1794 10.0222 10.8799 10.1563 10.5492 10.1563C10.2184 10.1563 9.91894 10.0222 9.70213 9.80544C9.48533 9.58864 9.35124 9.28916 9.35124 8.95839C9.35124 8.62764 9.48533 8.32817 9.70213 8.11137C9.91894 7.89456 10.2184 7.76047 10.5492 7.76047ZM10.9067 8.60082C10.8153 8.50934 10.6888 8.45275 10.5492 8.45275C10.4095 8.45275 10.283 8.50934 10.1916 8.60082C10.1001 8.69228 10.0435 8.81872 10.0435 8.95839C10.0435 9.09805 10.1001 9.2245 10.1916 9.31598C10.283 9.40746 10.4095 9.46405 10.5492 9.46405C10.6888 9.46405 10.8153 9.40746 10.9067 9.31598C10.9982 9.2245 11.0548 9.09805 11.0548 8.95839C11.0548 8.81872 10.9982 8.69228 10.9067 8.60082Z" fill="black" fill-opacity="0.2"/>
<path d="M13.1209 8.60995H27.8854V9.30223H13.1209V8.60995Z" fill="url(#paint3_linear_0_511)"/>
<path d="M13.1209 8.60995H27.8854V9.30223H13.1209V8.60995Z" fill="black" fill-opacity="0.2"/>
<path d="M4.87341 14.6335H30.833H31.1791V14.9797V22.443V22.7892H30.833H4.87341H4.52725V22.443V14.9797V14.6335H4.87341ZM30.4868 15.3258H5.21955V22.0969H30.4868V15.3258Z" fill="url(#paint4_linear_0_511)"/>
<path d="M4.87341 14.6335H30.833H31.1791V14.9797V22.443V22.7892H30.833H4.87341H4.52725V22.443V14.9797V14.6335H4.87341ZM30.4868 15.3258H5.21955V22.0969H30.4868V15.3258Z" fill="black" fill-opacity="0.2"/>
<path d="M7.34796 17.514C7.6787 17.514 7.9782 17.6481 8.19498 17.8649C8.41179 18.0817 8.54587 18.3812 8.54587 18.7119C8.54587 19.0427 8.41179 19.3422 8.19498 19.559C7.9782 19.7757 7.6787 19.9098 7.34796 19.9098C7.01721 19.9098 6.71774 19.7757 6.50093 19.559C6.28413 19.3422 6.15004 19.0427 6.15004 18.7119C6.15004 18.3812 6.28413 18.0817 6.50093 17.8649C6.71774 17.6481 7.01721 17.514 7.34796 17.514ZM7.70555 18.3543C7.61407 18.2629 7.48762 18.2063 7.34796 18.2063C7.20829 18.2063 7.08185 18.2629 6.99037 18.3543C6.89891 18.4458 6.8423 18.5722 6.8423 18.7119C6.8423 18.8516 6.89891 18.978 6.99037 19.0695C7.08185 19.161 7.20829 19.2176 7.34796 19.2176C7.48762 19.2176 7.61407 19.161 7.70555 19.0695C7.797 18.978 7.85361 18.8516 7.85361 18.7119C7.85361 18.5722 7.797 18.4458 7.70555 18.3543Z" fill="url(#paint5_linear_0_511)"/>
<path d="M7.34796 17.514C7.6787 17.514 7.9782 17.6481 8.19498 17.8649C8.41179 18.0817 8.54587 18.3812 8.54587 18.7119C8.54587 19.0427 8.41179 19.3422 8.19498 19.559C7.9782 19.7757 7.6787 19.9098 7.34796 19.9098C7.01721 19.9098 6.71774 19.7757 6.50093 19.559C6.28413 19.3422 6.15004 19.0427 6.15004 18.7119C6.15004 18.3812 6.28413 18.0817 6.50093 17.8649C6.71774 17.6481 7.01721 17.514 7.34796 17.514ZM7.70555 18.3543C7.61407 18.2629 7.48762 18.2063 7.34796 18.2063C7.20829 18.2063 7.08185 18.2629 6.99037 18.3543C6.89891 18.4458 6.8423 18.5722 6.8423 18.7119C6.8423 18.8516 6.89891 18.978 6.99037 19.0695C7.08185 19.161 7.20829 19.2176 7.34796 19.2176C7.48762 19.2176 7.61407 19.161 7.70555 19.0695C7.797 18.978 7.85361 18.8516 7.85361 18.7119C7.85361 18.5722 7.797 18.4458 7.70555 18.3543Z" fill="black" fill-opacity="0.2"/>
<path d="M10.5492 17.514C10.8799 17.514 11.1794 17.6481 11.3962 17.8649C11.613 18.0817 11.7471 18.3812 11.7471 18.7119C11.7471 19.0427 11.613 19.3422 11.3962 19.559C11.1794 19.7757 10.8799 19.9098 10.5492 19.9098C10.2184 19.9098 9.91894 19.7757 9.70213 19.559C9.48533 19.3422 9.35124 19.0427 9.35124 18.7119C9.35124 18.3812 9.48533 18.0817 9.70213 17.8649C9.91894 17.6481 10.2184 17.514 10.5492 17.514ZM10.9067 18.3543C10.8153 18.2629 10.6888 18.2063 10.5492 18.2063C10.4095 18.2063 10.283 18.2629 10.1916 18.3543C10.1001 18.4458 10.0435 18.5722 10.0435 18.7119C10.0435 18.8516 10.1001 18.978 10.1916 19.0695C10.283 19.161 10.4095 19.2176 10.5492 19.2176C10.6888 19.2176 10.8153 19.161 10.9067 19.0695C10.9982 18.978 11.0548 18.8516 11.0548 18.7119C11.0548 18.5722 10.9982 18.4458 10.9067 18.3543Z" fill="url(#paint6_linear_0_511)"/>
<path d="M10.5492 17.514C10.8799 17.514 11.1794 17.6481 11.3962 17.8649C11.613 18.0817 11.7471 18.3812 11.7471 18.7119C11.7471 19.0427 11.613 19.3422 11.3962 19.559C11.1794 19.7757 10.8799 19.9098 10.5492 19.9098C10.2184 19.9098 9.91894 19.7757 9.70213 19.559C9.48533 19.3422 9.35124 19.0427 9.35124 18.7119C9.35124 18.3812 9.48533 18.0817 9.70213 17.8649C9.91894 17.6481 10.2184 17.514 10.5492 17.514ZM10.9067 18.3543C10.8153 18.2629 10.6888 18.2063 10.5492 18.2063C10.4095 18.2063 10.283 18.2629 10.1916 18.3543C10.1001 18.4458 10.0435 18.5722 10.0435 18.7119C10.0435 18.8516 10.1001 18.978 10.1916 19.0695C10.283 19.161 10.4095 19.2176 10.5492 19.2176C10.6888 19.2176 10.8153 19.161 10.9067 19.0695C10.9982 18.978 11.0548 18.8516 11.0548 18.7119C11.0548 18.5722 10.9982 18.4458 10.9067 18.3543Z" fill="black" fill-opacity="0.2"/>
<path d="M13.1209 18.3668H27.8854V19.0591H13.1209V18.3668Z" fill="url(#paint7_linear_0_511)"/>
<path d="M13.1209 18.3668H27.8854V19.0591H13.1209V18.3668Z" fill="black" fill-opacity="0.2"/>
<path d="M4.8734 24.2168H30.8329H31.1791V24.5629V29.4213L30.4868 28.9781V24.909H5.21954V31.6801H16.7121V32.3724H4.8734H4.52725V32.0263V24.5629V24.2168H4.8734Z" fill="url(#paint8_linear_0_511)"/>
<path d="M4.8734 24.2168H30.8329H31.1791V24.5629V29.4213L30.4868 28.9781V24.909H5.21954V31.6801H16.7121V32.3724H4.8734H4.52725V32.0263V24.5629V24.2168H4.8734Z" fill="black" fill-opacity="0.2"/>
<path d="M7.348 27.0973C7.67875 27.0973 7.97825 27.2314 8.19503 27.4482C8.41183 27.665 8.54592 27.9645 8.54592 28.2952C8.54592 28.626 8.41183 28.9255 8.19503 29.1422C7.97825 29.3591 7.67875 29.4931 7.348 29.4931C7.01726 29.4931 6.71778 29.3591 6.50098 29.1422C6.28417 28.9255 6.15009 28.626 6.15009 28.2952C6.15009 27.9645 6.28417 27.665 6.50098 27.4482C6.71778 27.2314 7.01725 27.0973 7.348 27.0973ZM7.70559 27.9376C7.61411 27.8462 7.48767 27.7896 7.348 27.7896C7.20834 27.7896 7.08189 27.8462 6.99041 27.9376C6.89896 28.0291 6.84234 28.1556 6.84234 28.2952C6.84234 28.4349 6.89896 28.5613 6.99041 28.6528C7.08189 28.7443 7.20834 28.8009 7.348 28.8009C7.48767 28.8009 7.61411 28.7443 7.70559 28.6528C7.79704 28.5613 7.85366 28.4349 7.85366 28.2952C7.85366 28.1556 7.79704 28.0291 7.70559 27.9376Z" fill="url(#paint9_linear_0_511)"/>
<path d="M7.348 27.0973C7.67875 27.0973 7.97825 27.2314 8.19503 27.4482C8.41183 27.665 8.54592 27.9645 8.54592 28.2952C8.54592 28.626 8.41183 28.9255 8.19503 29.1422C7.97825 29.3591 7.67875 29.4931 7.348 29.4931C7.01726 29.4931 6.71778 29.3591 6.50098 29.1422C6.28417 28.9255 6.15009 28.626 6.15009 28.2952C6.15009 27.9645 6.28417 27.665 6.50098 27.4482C6.71778 27.2314 7.01725 27.0973 7.348 27.0973ZM7.70559 27.9376C7.61411 27.8462 7.48767 27.7896 7.348 27.7896C7.20834 27.7896 7.08189 27.8462 6.99041 27.9376C6.89896 28.0291 6.84234 28.1556 6.84234 28.2952C6.84234 28.4349 6.89896 28.5613 6.99041 28.6528C7.08189 28.7443 7.20834 28.8009 7.348 28.8009C7.48767 28.8009 7.61411 28.7443 7.70559 28.6528C7.79704 28.5613 7.85366 28.4349 7.85366 28.2952C7.85366 28.1556 7.79704 28.0291 7.70559 27.9376Z" fill="black" fill-opacity="0.2"/>
<path d="M10.5484 27.0973C10.8791 27.0973 11.1786 27.2314 11.3954 27.4482C11.6122 27.665 11.7463 27.9645 11.7463 28.2952C11.7463 28.626 11.6122 28.9255 11.3954 29.1422C11.1786 29.3591 10.8791 29.4931 10.5484 29.4931C10.2176 29.4931 9.91815 29.3591 9.70134 29.1422C9.48454 28.9255 9.35045 28.626 9.35045 28.2952C9.35045 27.9645 9.48453 27.665 9.70134 27.4482C9.91814 27.2314 10.2176 27.0973 10.5484 27.0973ZM10.906 27.9376C10.8145 27.8462 10.688 27.7896 10.5484 27.7896C10.4087 27.7896 10.2823 27.8462 10.1908 27.9376C10.0993 28.0291 10.0427 28.1556 10.0427 28.2952C10.0427 28.4349 10.0993 28.5613 10.1908 28.6528C10.2823 28.7443 10.4087 28.8009 10.5484 28.8009C10.688 28.8009 10.8145 28.7443 10.906 28.6528C10.9974 28.5613 11.054 28.4349 11.054 28.2952C11.054 28.1556 10.9974 28.0291 10.906 27.9376Z" fill="url(#paint10_linear_0_511)"/>
<path d="M10.5484 27.0973C10.8791 27.0973 11.1786 27.2314 11.3954 27.4482C11.6122 27.665 11.7463 27.9645 11.7463 28.2952C11.7463 28.626 11.6122 28.9255 11.3954 29.1422C11.1786 29.3591 10.8791 29.4931 10.5484 29.4931C10.2176 29.4931 9.91815 29.3591 9.70134 29.1422C9.48454 28.9255 9.35045 28.626 9.35045 28.2952C9.35045 27.9645 9.48453 27.665 9.70134 27.4482C9.91814 27.2314 10.2176 27.0973 10.5484 27.0973ZM10.906 27.9376C10.8145 27.8462 10.688 27.7896 10.5484 27.7896C10.4087 27.7896 10.2823 27.8462 10.1908 27.9376C10.0993 28.0291 10.0427 28.1556 10.0427 28.2952C10.0427 28.4349 10.0993 28.5613 10.1908 28.6528C10.2823 28.7443 10.4087 28.8009 10.5484 28.8009C10.688 28.8009 10.8145 28.7443 10.906 28.6528C10.9974 28.5613 11.054 28.4349 11.054 28.2952C11.054 28.1556 10.9974 28.0291 10.906 27.9376Z" fill="black" fill-opacity="0.2"/>
<path d="M13.121 27.9468H23.5064V28.6391H13.121V27.9468Z" fill="url(#paint11_linear_0_511)"/>
<path d="M13.121 27.9468H23.5064V28.6391H13.121V27.9468Z" fill="black" fill-opacity="0.2"/>
<path d="M18.0971 34.5259H25.7551H26.1013V34.8357V36.7965L33.1661 32.2734L26.1013 27.7503V29.7111V30.0209H25.7551H18.0971V34.5259ZM25.409 35.1455H17.751H17.4049V34.8357V29.7111V29.4013H17.751H25.409V27.1488V26.5474L25.9553 26.8971L33.9595 32.0217L34.3526 32.2734L33.9595 32.5251L25.9553 37.6497L25.409 37.9994V37.398V35.1455Z" fill="url(#paint12_linear_0_511)"/>
<path d="M18.0971 34.5259H25.7551H26.1013V34.8357V36.7965L33.1661 32.2734L26.1013 27.7503V29.7111V30.0209H25.7551H18.0971V34.5259ZM25.409 35.1455H17.751H17.4049V34.8357V29.7111V29.4013H17.751H25.409V27.1488V26.5474L25.9553 26.8971L33.9595 32.0217L34.3526 32.2734L33.9595 32.5251L25.9553 37.6497L25.409 37.9994V37.398V35.1455Z" fill="black" fill-opacity="0.2"/>
<path d="M11.9268 12.6876V14.9789H11.2345V12.6876H11.9268Z" fill="url(#paint13_linear_0_511)"/>
<path d="M11.9268 12.6876V14.9789H11.2345V12.6876H11.9268Z" fill="black" fill-opacity="0.2"/>
<path d="M24.471 12.6878V14.979H23.7787V12.6878H24.471Z" fill="url(#paint14_linear_0_511)"/>
<path d="M24.471 12.6878V14.979H23.7787V12.6878H24.471Z" fill="black" fill-opacity="0.2"/>
<path d="M11.9268 22.3784V24.6696H11.2345V22.3784H11.9268Z" fill="url(#paint15_linear_0_511)"/>
<path d="M11.9268 22.3784V24.6696H11.2345V22.3784H11.9268Z" fill="black" fill-opacity="0.2"/>
<path d="M24.471 22.3785V24.6696H23.7787V22.3785H24.471Z" fill="url(#paint16_linear_0_511)"/>
<path d="M24.471 22.3785V24.6696H23.7787V22.3785H24.471Z" fill="black" fill-opacity="0.2"/>
</g>
<defs>
<linearGradient id="paint0_linear_0_511" x1="17.8531" y1="4.87988" x2="17.8531" y2="13.0356" gradientUnits="userSpaceOnUse">
<stop stop-color="#FF0F0F"/>
<stop offset="1" stop-color="#FF4849"/>
</linearGradient>
<linearGradient id="paint1_linear_0_511" x1="7.34796" y1="7.76047" x2="7.34796" y2="10.1563" gradientUnits="userSpaceOnUse">
<stop stop-color="#FF0F0F"/>
<stop offset="1" stop-color="#FF4849"/>
</linearGradient>
<linearGradient id="paint2_linear_0_511" x1="10.5492" y1="7.76047" x2="10.5492" y2="10.1563" gradientUnits="userSpaceOnUse">
<stop stop-color="#FF0F0F"/>
<stop offset="1" stop-color="#FF4849"/>
</linearGradient>
<linearGradient id="paint3_linear_0_511" x1="20.5032" y1="8.60995" x2="20.5032" y2="9.30223" gradientUnits="userSpaceOnUse">
<stop stop-color="#FF0F0F"/>
<stop offset="1" stop-color="#FF4849"/>
</linearGradient>
<linearGradient id="paint4_linear_0_511" x1="17.8532" y1="14.6335" x2="17.8532" y2="22.7892" gradientUnits="userSpaceOnUse">
<stop stop-color="#FF0F0F"/>
<stop offset="1" stop-color="#FF4849"/>
</linearGradient>
<linearGradient id="paint5_linear_0_511" x1="7.34796" y1="17.514" x2="7.34796" y2="19.9098" gradientUnits="userSpaceOnUse">
<stop stop-color="#FF0F0F"/>
<stop offset="1" stop-color="#FF4849"/>
</linearGradient>
<linearGradient id="paint6_linear_0_511" x1="10.5492" y1="17.514" x2="10.5492" y2="19.9098" gradientUnits="userSpaceOnUse">
<stop stop-color="#FF0F0F"/>
<stop offset="1" stop-color="#FF4849"/>
</linearGradient>
<linearGradient id="paint7_linear_0_511" x1="20.5032" y1="18.3668" x2="20.5032" y2="19.0591" gradientUnits="userSpaceOnUse">
<stop stop-color="#FF0F0F"/>
<stop offset="1" stop-color="#FF4849"/>
</linearGradient>
<linearGradient id="paint8_linear_0_511" x1="17.8532" y1="24.2168" x2="17.8532" y2="32.3724" gradientUnits="userSpaceOnUse">
<stop stop-color="#FF0F0F"/>
<stop offset="1" stop-color="#FF4849"/>
</linearGradient>
<linearGradient id="paint9_linear_0_511" x1="7.348" y1="27.0973" x2="7.348" y2="29.4931" gradientUnits="userSpaceOnUse">
<stop stop-color="#FF0F0F"/>
<stop offset="1" stop-color="#FF4849"/>
</linearGradient>
<linearGradient id="paint10_linear_0_511" x1="10.5484" y1="27.0973" x2="10.5484" y2="29.4931" gradientUnits="userSpaceOnUse">
<stop stop-color="#FF0F0F"/>
<stop offset="1" stop-color="#FF4849"/>
</linearGradient>
<linearGradient id="paint11_linear_0_511" x1="18.3137" y1="27.9468" x2="18.3137" y2="28.6391" gradientUnits="userSpaceOnUse">
<stop stop-color="#FF0F0F"/>
<stop offset="1" stop-color="#FF4849"/>
</linearGradient>
<linearGradient id="paint12_linear_0_511" x1="25.8787" y1="26.5474" x2="25.8787" y2="37.9994" gradientUnits="userSpaceOnUse">
<stop stop-color="#FF0F0F"/>
<stop offset="1" stop-color="#FF4849"/>
</linearGradient>
<linearGradient id="paint13_linear_0_511" x1="11.5807" y1="12.6876" x2="11.5807" y2="14.9789" gradientUnits="userSpaceOnUse">
<stop stop-color="#FF0F0F"/>
<stop offset="1" stop-color="#FF4849"/>
</linearGradient>
<linearGradient id="paint14_linear_0_511" x1="24.1249" y1="12.6878" x2="24.1249" y2="14.979" gradientUnits="userSpaceOnUse">
<stop stop-color="#FF0F0F"/>
<stop offset="1" stop-color="#FF4849"/>
</linearGradient>
<linearGradient id="paint15_linear_0_511" x1="11.5807" y1="22.3784" x2="11.5807" y2="24.6696" gradientUnits="userSpaceOnUse">
<stop stop-color="#FF0F0F"/>
<stop offset="1" stop-color="#FF4849"/>
</linearGradient>
<linearGradient id="paint16_linear_0_511" x1="24.1249" y1="22.3785" x2="24.1249" y2="24.6696" gradientUnits="userSpaceOnUse">
<stop stop-color="#FF0F0F"/>
<stop offset="1" stop-color="#FF4849"/>
</linearGradient>
<clipPath id="clip0_0_511">
<rect width="39.7513" height="40.3589" fill="white" transform="translate(0.0944214 0.992188)"/>
</clipPath>
</defs>
</svg>
