<svg width="41" height="42" viewBox="0 0 41 42" fill="none" xmlns="http://www.w3.org/2000/svg">
<g clip-path="url(#clip0_0_450)">
<path d="M21.2982 14.9833C21.2264 14.9362 21.1423 14.9112 21.0564 14.9112C20.9705 14.9112 20.8864 14.9362 20.8145 14.9833C15.0962 18.7023 15.0693 25.6953 21.0412 25.8986C21.0464 25.899 21.0512 25.899 21.0564 25.899C21.0637 25.899 21.0711 25.899 21.078 25.8986C27.0406 25.6047 26.99 18.6847 21.2982 14.9833ZM21.0529 25.0109C15.8418 24.8188 16.6272 18.9408 21.0564 15.8892C25.4972 18.9492 26.2229 24.7421 21.0529 25.0109Z" fill="url(#paint0_linear_0_450)"/>
<path d="M20.4884 19.6C20.6974 19.5282 20.9185 19.4987 21.139 19.513C21.3595 19.5272 21.575 19.5851 21.773 19.6832C21.8513 19.7711 21.9612 19.8244 22.0787 19.8313C22.1962 19.8381 22.3116 19.798 22.3995 19.7198C22.4875 19.6416 22.5407 19.5316 22.5476 19.4141C22.5545 19.2967 22.5144 19.1812 22.4362 19.0933C22.1764 18.8533 21.8464 18.7032 21.4948 18.6652V18.3309C21.4948 18.2132 21.448 18.1003 21.3648 18.0171C21.2815 17.9339 21.1687 17.8871 21.0509 17.8871C20.9332 17.8871 20.8204 17.9339 20.7371 18.0171C20.6539 18.1003 20.6071 18.2132 20.6071 18.3309V18.6593C19.7488 18.7943 19.3493 19.3201 19.3493 19.9294C19.3493 21.1945 20.5915 21.1945 20.9998 21.1945C21.8315 21.1945 21.8666 21.3103 21.8666 21.5716C21.8666 22.1228 20.5262 22.0714 20.3159 21.8013C20.2803 21.7552 20.236 21.7165 20.1854 21.6874C20.1349 21.6584 20.0792 21.6396 20.0214 21.6321C19.9636 21.6246 19.9049 21.6286 19.8486 21.6438C19.7923 21.659 19.7396 21.6851 19.6935 21.7207C19.6473 21.7563 19.6086 21.8006 19.5796 21.8511C19.5505 21.9017 19.5317 21.9574 19.5243 22.0152C19.5168 22.073 19.5207 22.1317 19.5359 22.188C19.5511 22.2442 19.5773 22.2969 19.6128 22.3431C19.8725 22.6252 20.2259 22.8032 20.6071 22.8439V23.1748C20.6071 23.2925 20.6539 23.4054 20.7371 23.4887C20.8203 23.5719 20.9332 23.6186 21.0509 23.6186C21.1686 23.6186 21.2815 23.5719 21.3648 23.4887C21.448 23.4054 21.4948 23.2925 21.4948 23.1748V22.8462C22.3564 22.7044 22.7543 22.1707 22.7543 21.5716C22.7543 20.3069 21.5247 20.3069 20.9998 20.3069C20.237 20.3069 20.237 20.1405 20.237 19.9294C20.237 19.8132 20.2673 19.6927 20.4884 19.6Z" fill="url(#paint1_linear_0_450)"/>
<path d="M18.4349 10.9784H19.6186V13.3851C19.6186 13.5028 19.6653 13.6157 19.7485 13.699C19.8318 13.7822 19.9447 13.829 20.0624 13.829C20.1801 13.829 20.293 13.7822 20.3762 13.699C20.4594 13.6157 20.5062 13.5028 20.5062 13.3851V10.5345C20.5062 10.4762 20.4948 10.4185 20.4725 10.3646C20.4502 10.3108 20.4175 10.2618 20.3763 10.2206C20.3351 10.1794 20.2861 10.1467 20.2323 10.1244C20.1784 10.1021 20.1207 10.0907 20.0624 10.0907H19.3906L21.051 8.12384L22.7119 10.0907H22.0383C21.98 10.0907 21.9223 10.1021 21.8684 10.1244C21.8146 10.1467 21.7656 10.1794 21.7244 10.2206C21.6832 10.2618 21.6505 10.3108 21.6282 10.3646C21.6059 10.4185 21.5945 10.4762 21.5945 10.5345V13.3648C21.5945 13.4825 21.6413 13.5954 21.7245 13.6786C21.8077 13.7618 21.9206 13.8086 22.0383 13.8086C22.156 13.8086 22.2689 13.7618 22.3522 13.6786C22.4354 13.5954 22.4822 13.4825 22.4822 13.3648V10.9783H23.6676C23.7522 10.9784 23.835 10.9542 23.9064 10.9087C23.9777 10.8631 24.0345 10.7982 24.0702 10.7214C24.1058 10.6446 24.1187 10.5593 24.1074 10.4754C24.0962 10.3915 24.0611 10.3126 24.0065 10.248L21.3899 7.14952C21.3469 7.10241 21.2946 7.06479 21.2362 7.03904C21.1779 7.0133 21.1148 7 21.051 7C20.9872 7 20.9241 7.0133 20.8658 7.03904C20.8074 7.06479 20.7551 7.10241 20.7121 7.14952L18.0959 10.248C18.0413 10.3127 18.0063 10.3916 17.995 10.4754C17.9837 10.5593 17.9966 10.6446 18.0322 10.7214C18.0679 10.7982 18.1247 10.8631 18.196 10.9087C18.2674 10.9542 18.3503 10.9784 18.4349 10.9784Z" fill="url(#paint2_linear_0_450)"/>
<path d="M15.3443 15.7738L13.2781 14.581L13.8702 13.5547C13.9125 13.4814 13.933 13.3976 13.9293 13.313C13.9255 13.2285 13.8977 13.1468 13.849 13.0775C13.8004 13.0083 13.7329 12.9544 13.6547 12.9222C13.5764 12.89 13.4906 12.8809 13.4073 12.8959L9.41681 13.6119C9.35324 13.6233 9.29293 13.6484 9.24009 13.6855C9.18725 13.7226 9.14314 13.7708 9.11087 13.8268C9.07859 13.8827 9.05891 13.945 9.05321 14.0093C9.04752 14.0737 9.05593 14.1385 9.07787 14.1992L10.4522 18.0146C10.4809 18.0942 10.5317 18.1639 10.5987 18.2156C10.6657 18.2673 10.7461 18.2988 10.8303 18.3063C10.9146 18.3138 10.9993 18.2971 11.0744 18.2581C11.1494 18.219 11.2118 18.1594 11.2541 18.0861L11.8466 17.0611L13.9309 18.2642C14.0328 18.323 14.154 18.3389 14.2676 18.3084C14.3813 18.2779 14.4782 18.2035 14.5371 18.1016C14.5959 17.9997 14.6118 17.8785 14.5814 17.7649C14.551 17.6512 14.4766 17.5542 14.3747 17.4953L11.906 16.0703C11.8555 16.041 11.7998 16.0221 11.7419 16.0144C11.6841 16.0068 11.6254 16.0106 11.5691 16.0257C11.5127 16.0408 11.4599 16.0669 11.4137 16.1024C11.3675 16.1379 11.3287 16.1823 11.2996 16.2328L10.9633 16.8149L10.0908 14.3929L12.6241 13.9383L12.2873 14.5216C12.2582 14.5721 12.2393 14.6279 12.2316 14.6857C12.224 14.7434 12.2279 14.8022 12.243 14.8585C12.2581 14.9148 12.2841 14.9676 12.3196 15.0138C12.3551 15.0601 12.3994 15.0989 12.4499 15.128L14.9004 16.5427C15.0024 16.6015 15.1236 16.6175 15.2373 16.587C15.351 16.5565 15.4479 16.4821 15.5068 16.3801C15.5656 16.2782 15.5816 16.157 15.5511 16.0433C15.5206 15.9296 15.4462 15.8327 15.3443 15.7738Z" fill="url(#paint3_linear_0_450)"/>
<path d="M14.8679 24.8608L12.3991 26.2858C12.2972 26.3448 12.2229 26.4417 12.1924 26.5554C12.1619 26.6691 12.1778 26.7902 12.2366 26.8922L12.5729 27.4743L10.0396 27.0196L10.9121 24.5985L11.2484 25.1815C11.2775 25.232 11.3163 25.2762 11.3626 25.3117C11.4088 25.3472 11.4616 25.3732 11.518 25.3882C11.6317 25.4178 11.7525 25.4019 11.8547 25.344L14.3062 23.9289C14.4081 23.87 14.4824 23.7731 14.5129 23.6594C14.5433 23.5457 14.5273 23.4246 14.4685 23.3226C14.4097 23.2207 14.3128 23.1463 14.1991 23.1158C14.0854 23.0853 13.9643 23.1012 13.8623 23.16L11.7954 24.3532L11.2033 23.3269C11.1618 23.2529 11.0995 23.1926 11.0242 23.1535C10.9489 23.1144 10.8638 23.0981 10.7794 23.1067C10.6951 23.1142 10.6148 23.1456 10.5478 23.1973C10.4808 23.249 10.4301 23.3188 10.4015 23.3984L9.02624 27.2129C9.00429 27.2736 8.99588 27.3384 9.00158 27.4028C9.00728 27.4671 9.02695 27.5294 9.05923 27.5853C9.09151 27.6412 9.13561 27.6894 9.18846 27.7266C9.2413 27.7637 9.30161 27.7888 9.36517 27.8002L13.3565 28.5171C13.4398 28.5321 13.5257 28.5229 13.6039 28.4907C13.6822 28.4585 13.7496 28.4047 13.7983 28.3354C13.8469 28.2662 13.8748 28.1845 13.8785 28.0999C13.8823 28.0154 13.8618 27.9315 13.8194 27.8583L13.2274 26.8328L15.3117 25.6296C15.4137 25.5708 15.4881 25.4738 15.5185 25.3601C15.549 25.2464 15.5331 25.1252 15.4742 25.0233C15.4154 24.9213 15.3184 24.8469 15.2047 24.8164C15.091 24.7859 14.9698 24.8019 14.8679 24.8608Z" fill="url(#paint4_linear_0_450)"/>
<path d="M23.565 30.5232H22.3813V28.1164C22.3813 27.9987 22.3345 27.8858 22.2513 27.8026C22.1681 27.7194 22.0552 27.6726 21.9375 27.6726C21.8198 27.6726 21.7069 27.7194 21.6237 27.8026C21.5404 27.8858 21.4937 27.9987 21.4937 28.1164V30.967C21.4936 31.0253 21.5051 31.083 21.5274 31.1369C21.5497 31.1908 21.5824 31.2397 21.6236 31.2809C21.6648 31.3221 21.7137 31.3548 21.7676 31.3771C21.8215 31.3994 21.8792 31.4109 21.9375 31.4108H22.6093L20.9484 33.3777L19.288 31.4108H19.9615C20.0198 31.4109 20.0776 31.3994 20.1314 31.3771C20.1853 31.3548 20.2342 31.3221 20.2754 31.2809C20.3167 31.2397 20.3494 31.1908 20.3716 31.1369C20.3939 31.083 20.4054 31.0253 20.4054 30.967V28.1368C20.4054 28.0191 20.3586 27.9062 20.2754 27.8229C20.1921 27.7397 20.0792 27.693 19.9615 27.693C19.8438 27.693 19.7309 27.7397 19.6477 27.8229C19.5645 27.9062 19.5177 28.0191 19.5177 28.1368V30.5232H18.3323C18.2477 30.5232 18.1648 30.5474 18.0935 30.5929C18.0221 30.6384 17.9653 30.7034 17.9297 30.7802C17.8941 30.8569 17.8811 30.9423 17.8924 31.0261C17.9037 31.11 17.9387 31.1889 17.9934 31.2535L20.6095 34.352C20.6512 34.4013 20.7031 34.4409 20.7616 34.4681C20.8201 34.4953 20.8839 34.5094 20.9484 34.5094C21.013 34.5094 21.0767 34.4953 21.1353 34.4681C21.1938 34.4409 21.2457 34.4013 21.2874 34.352L23.9039 31.2535C23.9586 31.1889 23.9936 31.11 24.0049 31.0261C24.0162 30.9423 24.0032 30.8569 23.9676 30.7802C23.932 30.7034 23.8752 30.6384 23.8038 30.5929C23.7325 30.5474 23.6496 30.5232 23.565 30.5232Z" fill="url(#paint5_linear_0_450)"/>
<path d="M31.5478 23.4872C31.5192 23.4076 31.4684 23.3378 31.4014 23.2862C31.3344 23.2345 31.254 23.203 31.1697 23.1955C31.0855 23.188 31.0008 23.2047 30.9257 23.2437C30.8506 23.2828 30.7883 23.3424 30.746 23.4157L30.1539 24.4407L28.0692 23.2371C28.0187 23.208 27.963 23.189 27.9051 23.1814C27.8473 23.1738 27.7886 23.1776 27.7323 23.1927C27.6759 23.2078 27.6231 23.2338 27.5769 23.2693C27.5306 23.3048 27.4918 23.349 27.4626 23.3996C27.4335 23.4501 27.4146 23.5058 27.407 23.5636C27.3994 23.6214 27.4032 23.6802 27.4183 23.7365C27.4335 23.7928 27.4595 23.8456 27.495 23.8919C27.5306 23.9381 27.5748 23.9769 27.6254 24.006L30.0941 25.4315C30.1961 25.4902 30.3172 25.5061 30.4309 25.4756C30.5446 25.4451 30.6415 25.3708 30.7005 25.269L31.0368 24.6869L31.9093 27.1084L29.3759 27.5631L29.7123 26.9801C29.7414 26.9297 29.7604 26.8739 29.768 26.8161C29.7756 26.7583 29.7717 26.6996 29.7566 26.6433C29.7416 26.587 29.7155 26.5342 29.68 26.488C29.6445 26.4417 29.6002 26.4029 29.5498 26.3738L27.0992 24.9587C27.0487 24.9295 26.993 24.9106 26.9352 24.9029C26.8773 24.8953 26.8186 24.8991 26.7623 24.9142C26.7059 24.9293 26.6531 24.9553 26.6069 24.9908C26.5606 25.0263 26.5218 25.0706 26.4926 25.1211C26.4635 25.1716 26.4446 25.2273 26.437 25.2852C26.4294 25.343 26.4332 25.4017 26.4484 25.458C26.4635 25.5144 26.4895 25.5672 26.5251 25.6134C26.5606 25.6596 26.6049 25.6984 26.6554 25.7276L28.7215 26.9208L28.1294 27.9467C28.0871 28.0199 28.0666 28.1038 28.0704 28.1883C28.0741 28.2729 28.102 28.3546 28.1506 28.4238C28.1993 28.4931 28.2667 28.5469 28.345 28.5791C28.4232 28.6113 28.509 28.6205 28.5923 28.6055L32.5833 27.8895C32.6468 27.8781 32.7071 27.8529 32.76 27.8158C32.8128 27.7787 32.8569 27.7305 32.8892 27.6746C32.9215 27.6187 32.9412 27.5563 32.9469 27.492C32.9526 27.4277 32.9441 27.3629 32.9222 27.3022L31.5478 23.4872Z" fill="url(#paint6_linear_0_450)"/>
<path d="M32.9406 13.9164C32.9083 13.8604 32.8641 13.8122 32.8113 13.7751C32.7584 13.738 32.6981 13.7128 32.6346 13.7014L28.6428 12.9845C28.5595 12.9695 28.4736 12.9787 28.3954 13.0109C28.3171 13.043 28.2497 13.0969 28.201 13.1662C28.1524 13.2354 28.1245 13.3171 28.1208 13.4016C28.117 13.4862 28.1375 13.57 28.1799 13.6433L28.7724 14.6688L26.6876 15.872C26.6371 15.9011 26.5928 15.9399 26.5573 15.9861C26.5218 16.0324 26.4957 16.0852 26.4806 16.1415C26.4655 16.1978 26.4616 16.2565 26.4692 16.3144C26.4768 16.3722 26.4957 16.4279 26.5249 16.4784C26.554 16.5289 26.5928 16.5732 26.6391 16.6087C26.6854 16.6442 26.7382 16.6702 26.7945 16.6853C26.8508 16.7004 26.9096 16.7042 26.9674 16.6966C27.0252 16.689 27.0809 16.67 27.1314 16.6408L29.6006 15.2158C29.7025 15.1569 29.7769 15.0599 29.8073 14.9462C29.8378 14.8325 29.8219 14.7114 29.7632 14.6094L29.4268 14.0273L31.9601 14.4824L31.0877 16.9031L30.7509 16.3201C30.692 16.2182 30.5951 16.1439 30.4814 16.1134C30.3677 16.0829 30.2465 16.0988 30.1446 16.1576L27.6936 17.5727C27.643 17.6018 27.5988 17.6406 27.5632 17.6869C27.5277 17.7331 27.5017 17.7859 27.4865 17.8422C27.4714 17.8985 27.4676 17.9573 27.4752 18.0151C27.4828 18.0729 27.5017 18.1287 27.5308 18.1792C27.56 18.2297 27.5988 18.2739 27.6451 18.3094C27.6913 18.3449 27.7441 18.371 27.8005 18.386C27.8568 18.4011 27.9155 18.405 27.9733 18.3973C28.0311 18.3897 28.0869 18.3708 28.1374 18.3416L30.2039 17.1484L30.7964 18.1747C30.838 18.2487 30.9002 18.309 30.9755 18.3481C31.0508 18.3872 31.1359 18.4035 31.2203 18.3949C31.3046 18.3874 31.3849 18.356 31.4519 18.3043C31.5189 18.2526 31.5697 18.1828 31.5983 18.1032L32.9735 14.2887C32.9955 14.228 33.004 14.1632 32.9983 14.0989C32.9926 14.0345 32.9729 13.9723 32.9406 13.9164Z" fill="url(#paint7_linear_0_450)"/>
</g>
<defs>
<linearGradient id="paint0_linear_0_450" x1="23.5674" y1="14.9112" x2="23.5061" y2="28.2536" gradientUnits="userSpaceOnUse">
<stop stop-color="#005CAA"/>
<stop offset="1" stop-color="#64B0F1"/>
</linearGradient>
<linearGradient id="paint1_linear_0_450" x1="22.0022" y1="17.8871" x2="21.9579" y2="24.8467" gradientUnits="userSpaceOnUse">
<stop stop-color="#005CAA"/>
<stop offset="1" stop-color="#64B0F1"/>
</linearGradient>
<linearGradient id="paint2_linear_0_450" x1="22.7595" y1="7" x2="22.7246" y2="15.2923" gradientUnits="userSpaceOnUse">
<stop stop-color="#005CAA"/>
<stop offset="1" stop-color="#64B0F1"/>
</linearGradient>
<linearGradient id="paint3_linear_0_450" x1="14.1272" y1="12.8889" x2="14.1064" y2="19.4882" gradientUnits="userSpaceOnUse">
<stop stop-color="#005CAA"/>
<stop offset="1" stop-color="#64B0F1"/>
</linearGradient>
<linearGradient id="paint4_linear_0_450" x1="14.0904" y1="23.1007" x2="14.0698" y2="29.6863" gradientUnits="userSpaceOnUse">
<stop stop-color="#005CAA"/>
<stop offset="1" stop-color="#64B0F1"/>
</linearGradient>
<linearGradient id="paint5_linear_0_450" x1="22.6569" y1="27.6726" x2="22.6219" y2="35.9744" gradientUnits="userSpaceOnUse">
<stop stop-color="#005CAA"/>
<stop offset="1" stop-color="#64B0F1"/>
</linearGradient>
<linearGradient id="paint6_linear_0_450" x1="31.5094" y1="23.1776" x2="31.4886" y2="29.7772" gradientUnits="userSpaceOnUse">
<stop stop-color="#005CAA"/>
<stop offset="1" stop-color="#64B0F1"/>
</linearGradient>
<linearGradient id="paint7_linear_0_450" x1="31.5566" y1="12.9775" x2="31.536" y2="19.5634" gradientUnits="userSpaceOnUse">
<stop stop-color="#005CAA"/>
<stop offset="1" stop-color="#64B0F1"/>
</linearGradient>
<clipPath id="clip0_0_450">
<rect width="39.7513" height="40.3589" fill="white" transform="translate(0.945648 0.992188)"/>
</clipPath>
</defs>
</svg>
