<svg width="41" height="42" viewBox="0 0 41 42" fill="none" xmlns="http://www.w3.org/2000/svg">
<g clip-path="url(#clip0_0_614)">
<path d="M20.6454 27.0677C21.7465 27.0677 22.8229 26.7411 23.7385 26.1294C24.654 25.5176 25.3676 24.6481 25.789 23.6308C26.2104 22.6134 26.3207 21.494 26.1058 20.414C25.891 19.334 25.3608 18.342 24.5821 17.5634C23.8035 16.7848 22.8115 16.2545 21.7315 16.0397C20.6515 15.8249 19.5321 15.9351 18.5148 16.3565C17.4975 16.7779 16.6279 17.4915 16.0162 18.4071C15.4044 19.3226 15.0779 20.399 15.0779 21.5002C15.0779 22.9768 15.6645 24.3929 16.7086 25.437C17.7527 26.4811 19.1688 27.0677 20.6454 27.0677ZM20.6454 17.3246C21.4712 17.3246 22.2785 17.5695 22.9652 18.0283C23.6519 18.4871 24.1871 19.1393 24.5031 19.9022C24.8191 20.6652 24.9018 21.5048 24.7407 22.3148C24.5796 23.1248 24.1819 23.8688 23.5979 24.4528C23.014 25.0367 22.27 25.4344 21.46 25.5956C20.65 25.7567 19.8104 25.674 19.0474 25.3579C18.2844 25.0419 17.6323 24.5067 17.1735 23.82C16.7146 23.1333 16.4697 22.326 16.4697 21.5002C16.4697 20.3927 16.9097 19.3307 17.6928 18.5476C18.4758 17.7645 19.5379 17.3246 20.6454 17.3246Z" fill="url(#paint0_linear_0_614)"/>
<path d="M20.6454 27.0677C21.7465 27.0677 22.8229 26.7411 23.7385 26.1294C24.654 25.5176 25.3676 24.6481 25.789 23.6308C26.2104 22.6134 26.3207 21.494 26.1058 20.414C25.891 19.334 25.3608 18.342 24.5821 17.5634C23.8035 16.7848 22.8115 16.2545 21.7315 16.0397C20.6515 15.8249 19.5321 15.9351 18.5148 16.3565C17.4975 16.7779 16.6279 17.4915 16.0162 18.4071C15.4044 19.3226 15.0779 20.399 15.0779 21.5002C15.0779 22.9768 15.6645 24.3929 16.7086 25.437C17.7527 26.4811 19.1688 27.0677 20.6454 27.0677ZM20.6454 17.3246C21.4712 17.3246 22.2785 17.5695 22.9652 18.0283C23.6519 18.4871 24.1871 19.1393 24.5031 19.9022C24.8191 20.6652 24.9018 21.5048 24.7407 22.3148C24.5796 23.1248 24.1819 23.8688 23.5979 24.4528C23.014 25.0367 22.27 25.4344 21.46 25.5956C20.65 25.7567 19.8104 25.674 19.0474 25.3579C18.2844 25.0419 17.6323 24.5067 17.1735 23.82C16.7146 23.1333 16.4697 22.326 16.4697 21.5002C16.4697 20.3927 16.9097 19.3307 17.6928 18.5476C18.4758 17.7645 19.5379 17.3246 20.6454 17.3246Z" fill="black" fill-opacity="0.2"/>
<path d="M37.4905 24.2108C37.4631 24.1236 37.4187 24.0425 37.36 23.9724C37.3013 23.9023 37.2293 23.8444 37.1482 23.802C37.0671 23.7597 36.9784 23.7338 36.8873 23.7257C36.7962 23.7176 36.7044 23.7276 36.6171 23.755C36.5298 23.7824 36.4488 23.8268 36.3786 23.8855C36.3085 23.9442 36.2506 24.0162 36.2083 24.0973C36.1659 24.1784 36.14 24.267 36.1319 24.3582C36.1239 24.4493 36.1338 24.5411 36.1612 24.6284C36.8572 26.7893 36.7354 28.7414 35.8481 30.2794C34.6511 32.3672 32.2014 33.4772 29.1219 33.6616C30.0748 31.7358 30.7664 29.6914 31.1784 27.5826C36.8224 22.5893 39.3591 16.3294 36.9198 12.1051C35.4375 9.54055 32.4171 8.10345 28.3911 8.02342C26.3869 4.73861 23.6553 2.70996 20.6454 2.70996C18.4706 2.70996 16.3689 3.75386 14.5699 5.7164C14.5082 5.78494 14.4606 5.86496 14.4299 5.9519C14.3991 6.03883 14.3858 6.13097 14.3906 6.22306C14.3954 6.31515 14.4184 6.40538 14.4581 6.4886C14.4978 6.57183 14.5535 6.64641 14.6221 6.7081C14.6906 6.76979 14.7707 6.81738 14.8576 6.84814C14.9445 6.8789 15.0367 6.89224 15.1287 6.88739C15.2208 6.88255 15.3111 6.85961 15.3943 6.81989C15.4775 6.78017 15.5521 6.72445 15.6138 6.65591C17.124 4.98566 18.8708 4.10183 20.6454 4.10183C22.9872 4.10183 25.1411 5.58765 26.8253 8.05821C24.7029 8.21147 22.6099 8.64317 20.6002 9.34221C18.2793 8.54688 15.8469 8.12522 13.3938 8.09301C9.19032 8.09301 6.03774 9.54751 4.51712 12.1851C3.03131 14.7531 3.39319 18.0797 5.1713 21.4132C3.26444 24.8302 2.85036 28.2577 4.37098 30.8953C5.46012 32.7813 7.41221 34.0792 10.0115 34.6533C10.0624 34.6584 10.1137 34.6584 10.1646 34.6533C10.3353 34.6521 10.4996 34.5882 10.6262 34.4738C10.7529 34.3594 10.8331 34.2024 10.8515 34.0327C10.87 33.863 10.8255 33.6925 10.7264 33.5535C10.6274 33.4145 10.4807 33.3168 10.3143 33.2789C8.11858 32.8056 6.46574 31.7374 5.57842 30.1994C4.39186 28.1463 4.63891 25.4983 5.96467 22.7703C7.12953 24.5312 8.52052 26.1316 10.102 27.5304C11.5983 34.9421 15.7739 40.2904 20.6454 40.2904C23.6379 40.2904 26.3555 38.2826 28.3598 35.0326C32.3092 34.9839 35.521 33.6407 37.059 30.9753C38.1447 29.0893 38.2943 26.751 37.4905 24.2108ZM35.7124 12.801C37.6471 16.1484 35.8168 21.0722 31.5368 25.3557C31.6965 24.0767 31.7778 22.7891 31.7803 21.5002C31.7803 16.9175 30.8025 12.714 29.181 9.45008C32.2849 9.6693 34.585 10.8454 35.7124 12.801ZM5.71413 12.881C6.97725 10.6923 9.70183 9.48488 13.3868 9.48488C15.0968 9.50562 16.7975 9.7394 18.4497 10.1808C17.2938 10.673 16.1679 11.2331 15.0779 11.858C11.1389 14.1302 8.00375 17.0532 5.98555 20.0666C4.75026 17.422 4.56236 14.8888 5.71413 12.881ZM6.72671 21.4306C8.5953 18.4102 11.7479 15.3934 15.7739 13.0794C17.3124 12.1876 18.9276 11.4353 20.6002 10.8315C22.353 11.4444 24.0446 12.2203 25.6526 13.149C25.8614 13.2673 26.0632 13.3891 26.2651 13.4969C26.4229 13.5929 26.6123 13.6223 26.7918 13.5786C26.9713 13.5348 27.126 13.4216 27.222 13.2638C27.3179 13.106 27.3473 12.9165 27.3036 12.7371C27.2599 12.5576 27.1466 12.4029 26.9888 12.3069C26.7801 12.1781 26.5643 12.0529 26.3486 11.9276C25.1818 11.2588 23.9743 10.6638 22.7332 10.146C24.3339 9.70898 25.9809 9.46368 27.6395 9.41528C29.3446 12.547 30.3885 16.8096 30.3885 21.5002C30.391 23.2946 30.2326 25.0857 29.9152 26.8519C28.545 28.011 27.0729 29.044 25.5169 29.9384C25.3116 30.0567 25.1029 30.175 24.8976 30.2863C24.8174 30.3302 24.7466 30.3894 24.6893 30.4607C24.632 30.5319 24.5893 30.6137 24.5636 30.7014C24.5379 30.7891 24.5297 30.8811 24.5396 30.9719C24.5494 31.0628 24.577 31.1509 24.6209 31.2311C24.6648 31.3113 24.724 31.382 24.7952 31.4393C24.8665 31.4966 24.9483 31.5394 25.036 31.5651C25.1237 31.5907 25.2156 31.5989 25.3065 31.5891C25.3974 31.5792 25.4855 31.5516 25.5656 31.5077C25.7814 31.3894 25.9971 31.2676 26.2129 31.1423C27.3286 30.4995 28.4036 29.7883 29.4316 29.0128C29.0103 30.6353 28.3971 32.2018 27.6047 33.679C24.0763 33.5503 19.9251 32.3289 15.92 30.0184C14.3164 29.0895 12.8021 28.0144 11.3964 26.8067C11.074 25.0561 10.9086 23.2802 10.9023 21.5002C10.9023 21.2636 10.9023 21.0235 10.9023 20.8042C10.9046 20.7129 10.8889 20.6219 10.856 20.5366C10.8231 20.4513 10.7738 20.3733 10.7108 20.307C10.6478 20.2408 10.5723 20.1876 10.4888 20.1505C10.4052 20.1135 10.3152 20.0932 10.2238 20.0909C10.1324 20.0886 10.0414 20.1044 9.95614 20.1372C9.87083 20.1701 9.79283 20.2194 9.72659 20.2824C9.66035 20.3455 9.60717 20.4209 9.57008 20.5044C9.533 20.588 9.51274 20.6781 9.51045 20.7694C9.51045 21.0165 9.51045 21.2636 9.51045 21.5141C9.50904 22.7783 9.58457 24.0415 9.73663 25.2965C8.58424 24.1312 7.5739 22.8335 6.72671 21.4306ZM20.6454 38.8985C16.7725 38.8985 13.4181 34.8377 11.8488 28.978C12.921 29.7976 14.045 30.5473 15.2136 31.2224C19.1248 33.4807 23.1925 34.7229 26.794 34.9839C25.1168 37.4301 22.9733 38.8985 20.6454 38.8985Z" fill="url(#paint1_linear_0_614)"/>
<path d="M37.4905 24.2108C37.4631 24.1236 37.4187 24.0425 37.36 23.9724C37.3013 23.9023 37.2293 23.8444 37.1482 23.802C37.0671 23.7597 36.9784 23.7338 36.8873 23.7257C36.7962 23.7176 36.7044 23.7276 36.6171 23.755C36.5298 23.7824 36.4488 23.8268 36.3786 23.8855C36.3085 23.9442 36.2506 24.0162 36.2083 24.0973C36.1659 24.1784 36.14 24.267 36.1319 24.3582C36.1239 24.4493 36.1338 24.5411 36.1612 24.6284C36.8572 26.7893 36.7354 28.7414 35.8481 30.2794C34.6511 32.3672 32.2014 33.4772 29.1219 33.6616C30.0748 31.7358 30.7664 29.6914 31.1784 27.5826C36.8224 22.5893 39.3591 16.3294 36.9198 12.1051C35.4375 9.54055 32.4171 8.10345 28.3911 8.02342C26.3869 4.73861 23.6553 2.70996 20.6454 2.70996C18.4706 2.70996 16.3689 3.75386 14.5699 5.7164C14.5082 5.78494 14.4606 5.86496 14.4299 5.9519C14.3991 6.03883 14.3858 6.13097 14.3906 6.22306C14.3954 6.31515 14.4184 6.40538 14.4581 6.4886C14.4978 6.57183 14.5535 6.64641 14.6221 6.7081C14.6906 6.76979 14.7707 6.81738 14.8576 6.84814C14.9445 6.8789 15.0367 6.89224 15.1287 6.88739C15.2208 6.88255 15.3111 6.85961 15.3943 6.81989C15.4775 6.78017 15.5521 6.72445 15.6138 6.65591C17.124 4.98566 18.8708 4.10183 20.6454 4.10183C22.9872 4.10183 25.1411 5.58765 26.8253 8.05821C24.7029 8.21147 22.6099 8.64317 20.6002 9.34221C18.2793 8.54688 15.8469 8.12522 13.3938 8.09301C9.19032 8.09301 6.03774 9.54751 4.51712 12.1851C3.03131 14.7531 3.39319 18.0797 5.1713 21.4132C3.26444 24.8302 2.85036 28.2577 4.37098 30.8953C5.46012 32.7813 7.41221 34.0792 10.0115 34.6533C10.0624 34.6584 10.1137 34.6584 10.1646 34.6533C10.3353 34.6521 10.4996 34.5882 10.6262 34.4738C10.7529 34.3594 10.8331 34.2024 10.8515 34.0327C10.87 33.863 10.8255 33.6925 10.7264 33.5535C10.6274 33.4145 10.4807 33.3168 10.3143 33.2789C8.11858 32.8056 6.46574 31.7374 5.57842 30.1994C4.39186 28.1463 4.63891 25.4983 5.96467 22.7703C7.12953 24.5312 8.52052 26.1316 10.102 27.5304C11.5983 34.9421 15.7739 40.2904 20.6454 40.2904C23.6379 40.2904 26.3555 38.2826 28.3598 35.0326C32.3092 34.9839 35.521 33.6407 37.059 30.9753C38.1447 29.0893 38.2943 26.751 37.4905 24.2108ZM35.7124 12.801C37.6471 16.1484 35.8168 21.0722 31.5368 25.3557C31.6965 24.0767 31.7778 22.7891 31.7803 21.5002C31.7803 16.9175 30.8025 12.714 29.181 9.45008C32.2849 9.6693 34.585 10.8454 35.7124 12.801ZM5.71413 12.881C6.97725 10.6923 9.70183 9.48488 13.3868 9.48488C15.0968 9.50562 16.7975 9.7394 18.4497 10.1808C17.2938 10.673 16.1679 11.2331 15.0779 11.858C11.1389 14.1302 8.00375 17.0532 5.98555 20.0666C4.75026 17.422 4.56236 14.8888 5.71413 12.881ZM6.72671 21.4306C8.5953 18.4102 11.7479 15.3934 15.7739 13.0794C17.3124 12.1876 18.9276 11.4353 20.6002 10.8315C22.353 11.4444 24.0446 12.2203 25.6526 13.149C25.8614 13.2673 26.0632 13.3891 26.2651 13.4969C26.4229 13.5929 26.6123 13.6223 26.7918 13.5786C26.9713 13.5348 27.126 13.4216 27.222 13.2638C27.3179 13.106 27.3473 12.9165 27.3036 12.7371C27.2599 12.5576 27.1466 12.4029 26.9888 12.3069C26.7801 12.1781 26.5643 12.0529 26.3486 11.9276C25.1818 11.2588 23.9743 10.6638 22.7332 10.146C24.3339 9.70898 25.9809 9.46368 27.6395 9.41528C29.3446 12.547 30.3885 16.8096 30.3885 21.5002C30.391 23.2946 30.2326 25.0857 29.9152 26.8519C28.545 28.011 27.0729 29.044 25.5169 29.9384C25.3116 30.0567 25.1029 30.175 24.8976 30.2863C24.8174 30.3302 24.7466 30.3894 24.6893 30.4607C24.632 30.5319 24.5893 30.6137 24.5636 30.7014C24.5379 30.7891 24.5297 30.8811 24.5396 30.9719C24.5494 31.0628 24.577 31.1509 24.6209 31.2311C24.6648 31.3113 24.724 31.382 24.7952 31.4393C24.8665 31.4966 24.9483 31.5394 25.036 31.5651C25.1237 31.5907 25.2156 31.5989 25.3065 31.5891C25.3974 31.5792 25.4855 31.5516 25.5656 31.5077C25.7814 31.3894 25.9971 31.2676 26.2129 31.1423C27.3286 30.4995 28.4036 29.7883 29.4316 29.0128C29.0103 30.6353 28.3971 32.2018 27.6047 33.679C24.0763 33.5503 19.9251 32.3289 15.92 30.0184C14.3164 29.0895 12.8021 28.0144 11.3964 26.8067C11.074 25.0561 10.9086 23.2802 10.9023 21.5002C10.9023 21.2636 10.9023 21.0235 10.9023 20.8042C10.9046 20.7129 10.8889 20.6219 10.856 20.5366C10.8231 20.4513 10.7738 20.3733 10.7108 20.307C10.6478 20.2408 10.5723 20.1876 10.4888 20.1505C10.4052 20.1135 10.3152 20.0932 10.2238 20.0909C10.1324 20.0886 10.0414 20.1044 9.95614 20.1372C9.87083 20.1701 9.79283 20.2194 9.72659 20.2824C9.66035 20.3455 9.60717 20.4209 9.57008 20.5044C9.533 20.588 9.51274 20.6781 9.51045 20.7694C9.51045 21.0165 9.51045 21.2636 9.51045 21.5141C9.50904 22.7783 9.58457 24.0415 9.73663 25.2965C8.58424 24.1312 7.5739 22.8335 6.72671 21.4306ZM20.6454 38.8985C16.7725 38.8985 13.4181 34.8377 11.8488 28.978C12.921 29.7976 14.045 30.5473 15.2136 31.2224C19.1248 33.4807 23.1925 34.7229 26.794 34.9839C25.1168 37.4301 22.9733 38.8985 20.6454 38.8985Z" fill="black" fill-opacity="0.2"/>
</g>
<defs>
<linearGradient id="paint0_linear_0_614" x1="20.6454" y1="15.9327" x2="20.6454" y2="27.0677" gradientUnits="userSpaceOnUse">
<stop stop-color="#FF0F0F"/>
<stop offset="1" stop-color="#FF4849"/>
</linearGradient>
<linearGradient id="paint1_linear_0_614" x1="20.7229" y1="2.70996" x2="20.7229" y2="40.2904" gradientUnits="userSpaceOnUse">
<stop stop-color="#FF0F0F"/>
<stop offset="1" stop-color="#FF4849"/>
</linearGradient>
<clipPath id="clip0_0_614">
<rect width="39.7513" height="40.3589" fill="white" transform="translate(0.796875 0.992188)"/>
</clipPath>
</defs>
</svg>
