<svg width="60" height="60" viewBox="0 0 60 60" fill="none" xmlns="http://www.w3.org/2000/svg">
<path d="M20.6172 26.0855L29.8999 16.8028L39.1884 26.0893L44.5897 20.6879L29.8999 6L15.2158 20.6841L20.6172 26.0855ZM6 29.8999L11.4014 24.4985L16.8028 29.8999L11.4014 35.3013L6 29.8999ZM20.6172 33.7143L29.8999 42.9971L39.1865 33.7105L44.5917 39.1081L44.5897 39.1119L29.8999 53.7998L15.2158 39.1157L15.2082 39.1081L20.6172 33.7143ZM42.9971 29.9018L48.3984 24.5004L53.7998 29.9018L48.3984 35.3032L42.9971 29.9018Z" fill="url(#paint0_linear_7118_5748)"/>
<path d="M20.6172 26.0855L29.8999 16.8028L39.1884 26.0893L44.5897 20.6879L29.8999 6L15.2158 20.6841L20.6172 26.0855ZM6 29.8999L11.4014 24.4985L16.8028 29.8999L11.4014 35.3013L6 29.8999ZM20.6172 33.7143L29.8999 42.9971L39.1865 33.7105L44.5917 39.1081L44.5897 39.1119L29.8999 53.7998L15.2158 39.1157L15.2082 39.1081L20.6172 33.7143ZM42.9971 29.9018L48.3984 24.5004L53.7998 29.9018L48.3984 35.3032L42.9971 29.9018Z" fill="black" fill-opacity="0.2"/>
<path d="M35.3784 29.8977H35.3804L29.9006 24.416L25.8491 28.4656L25.3845 28.9302L24.4246 29.89L24.417 29.8977L24.4246 29.9053L29.9006 35.3832L35.3823 29.9015L35.3842 29.8977H35.3784Z" fill="url(#paint1_linear_7118_5748)"/>
<path d="M35.3784 29.8977H35.3804L29.9006 24.416L25.8491 28.4656L25.3845 28.9302L24.4246 29.89L24.417 29.8977L24.4246 29.9053L29.9006 35.3832L35.3823 29.9015L35.3842 29.8977H35.3784Z" fill="black" fill-opacity="0.2"/>
<defs>
<linearGradient id="paint0_linear_7118_5748" x1="29.8999" y1="6" x2="29.8999" y2="53.7998" gradientUnits="userSpaceOnUse">
<stop stop-color="#FF0F0F"/>
<stop offset="1" stop-color="#FF4849"/>
</linearGradient>
<linearGradient id="paint1_linear_7118_5748" x1="29.9006" y1="24.416" x2="29.9006" y2="35.3832" gradientUnits="userSpaceOnUse">
<stop stop-color="#FF0F0F"/>
<stop offset="1" stop-color="#FF4849"/>
</linearGradient>
</defs>
</svg>
