<svg width="60" height="60" viewBox="0 0 60 60" fill="none" xmlns="http://www.w3.org/2000/svg">
<path d="M54.2816 20.3696C51.821 18.1567 48.4034 14.7856 45.6351 12.3999L45.4643 12.2961C45.1909 12.0887 44.8833 11.9158 44.5586 11.7948C37.8601 10.5846 6.69171 4.93148 6.09363 5.00063C5.92275 5.01792 5.75187 5.08707 5.61516 5.17351L5.46137 5.29452C5.2734 5.48469 5.11961 5.70943 5.03417 5.96875L5 6.07248V6.64298V6.72942C8.50303 16.2032 22.3614 47.2177 25.0954 54.5132C25.2663 55.0146 25.5739 55.9481 26.1549 56H26.2916C26.5992 56 27.932 54.2885 27.932 54.2885C27.932 54.2885 51.7355 26.3166 54.1449 23.3431C54.4525 22.9801 54.7259 22.5824 54.9652 22.1675C55.0335 21.8391 54.9993 21.5106 54.8797 21.1994C54.7601 20.8882 54.538 20.5943 54.2816 20.3696ZM34.0153 23.637L44.1656 15.4771L50.1293 20.8018L34.0153 23.637ZM30.068 23.1011L12.587 9.20159L40.8847 14.267L30.068 23.1011ZM31.6401 26.7315L49.5312 23.9309L29.0769 47.8401L31.6401 26.7315ZM10.2118 10.6019L28.6155 25.7289L25.9498 47.8574L10.2118 10.6019Z" fill="url(#paint0_linear_7118_5715)"/>
<path d="M54.2816 20.3696C51.821 18.1567 48.4034 14.7856 45.6351 12.3999L45.4643 12.2961C45.1909 12.0887 44.8833 11.9158 44.5586 11.7948C37.8601 10.5846 6.69171 4.93148 6.09363 5.00063C5.92275 5.01792 5.75187 5.08707 5.61516 5.17351L5.46137 5.29452C5.2734 5.48469 5.11961 5.70943 5.03417 5.96875L5 6.07248V6.64298V6.72942C8.50303 16.2032 22.3614 47.2177 25.0954 54.5132C25.2663 55.0146 25.5739 55.9481 26.1549 56H26.2916C26.5992 56 27.932 54.2885 27.932 54.2885C27.932 54.2885 51.7355 26.3166 54.1449 23.3431C54.4525 22.9801 54.7259 22.5824 54.9652 22.1675C55.0335 21.8391 54.9993 21.5106 54.8797 21.1994C54.7601 20.8882 54.538 20.5943 54.2816 20.3696ZM34.0153 23.637L44.1656 15.4771L50.1293 20.8018L34.0153 23.637ZM30.068 23.1011L12.587 9.20159L40.8847 14.267L30.068 23.1011ZM31.6401 26.7315L49.5312 23.9309L29.0769 47.8401L31.6401 26.7315ZM10.2118 10.6019L28.6155 25.7289L25.9498 47.8574L10.2118 10.6019Z" fill="black" fill-opacity="0.2"/>
<defs>
<linearGradient id="paint0_linear_7118_5715" x1="30" y1="5" x2="30" y2="56" gradientUnits="userSpaceOnUse">
<stop stop-color="#FF0F0F"/>
<stop offset="1" stop-color="#FF4849"/>
</linearGradient>
</defs>
</svg>
