<svg width="60" height="60" viewBox="0 0 60 60" fill="none" xmlns="http://www.w3.org/2000/svg">
<path d="M17.9052 30.0939C17.7956 31.9981 19.2614 33.6282 21.1655 33.7378C21.234 33.7378 21.3025 33.7378 21.371 33.7378C23.2888 33.7378 24.8368 32.1899 24.8231 30.272C24.8231 28.3542 23.2751 26.8062 21.3573 26.8199C19.5216 26.8199 18.0011 28.2583 17.9052 30.0939Z" fill="url(#paint0_linear_7118_5765)"/>
<path d="M17.9052 30.0939C17.7956 31.9981 19.2614 33.6282 21.1655 33.7378C21.234 33.7378 21.3025 33.7378 21.371 33.7378C23.2888 33.7378 24.8368 32.1899 24.8231 30.272C24.8231 28.3542 23.2751 26.8062 21.3573 26.8199C19.5216 26.8199 18.0011 28.2583 17.9052 30.0939Z" fill="black" fill-opacity="0.2"/>
<path d="M5.00102 29.2031C4.38458 29.162 3.85032 29.6415 3.82293 30.2579C3.79553 30.8744 4.26129 31.4087 4.87774 31.436C5.49418 31.4771 6.01474 30.9977 6.05584 30.3812C6.09693 29.7648 5.61747 29.2442 5.00102 29.2031Z" fill="url(#paint1_linear_7118_5765)"/>
<path d="M5.00102 29.2031C4.38458 29.162 3.85032 29.6415 3.82293 30.2579C3.79553 30.8744 4.26129 31.4087 4.87774 31.436C5.49418 31.4771 6.01474 30.9977 6.05584 30.3812C6.09693 29.7648 5.61747 29.2442 5.00102 29.2031Z" fill="black" fill-opacity="0.2"/>
<path d="M17.6863 10.011C18.2343 9.73707 18.4535 9.05213 18.1795 8.50417C17.9055 7.95622 17.2206 7.73704 16.6726 8.01102C16.1247 8.28499 15.9055 8.95623 16.1795 9.50419C16.4535 10.0658 17.1247 10.2987 17.6863 10.011Z" fill="url(#paint2_linear_7118_5765)"/>
<path d="M17.6863 10.011C18.2343 9.73707 18.4535 9.05213 18.1795 8.50417C17.9055 7.95622 17.2206 7.73704 16.6726 8.01102C16.1247 8.28499 15.9055 8.95623 16.1795 9.50419C16.4535 10.0658 17.1247 10.2987 17.6863 10.011Z" fill="black" fill-opacity="0.2"/>
<path d="M21.1932 16.1346C22.0425 15.71 22.385 14.6688 21.9603 13.8195C21.5356 12.9702 20.4945 12.6277 19.6452 13.0524C18.7959 13.477 18.4534 14.5182 18.8781 15.3675C19.3027 16.2168 20.3438 16.5593 21.1932 16.1346Z" fill="url(#paint3_linear_7118_5765)"/>
<path d="M21.1932 16.1346C22.0425 15.71 22.385 14.6688 21.9603 13.8195C21.5356 12.9702 20.4945 12.6277 19.6452 13.0524C18.7959 13.477 18.4534 14.5182 18.8781 15.3675C19.3027 16.2168 20.3438 16.5593 21.1932 16.1346Z" fill="black" fill-opacity="0.2"/>
<path d="M9.3849 20.3403C10.0424 20.7649 10.9192 20.5868 11.3575 19.9293C11.7822 19.2718 11.6041 18.395 10.9466 17.9567C10.289 17.532 9.4123 17.7101 8.97394 18.3676C8.53558 19.0252 8.72736 19.9156 9.3849 20.3403Z" fill="url(#paint4_linear_7118_5765)"/>
<path d="M9.3849 20.3403C10.0424 20.7649 10.9192 20.5868 11.3575 19.9293C11.7822 19.2718 11.6041 18.395 10.9466 17.9567C10.289 17.532 9.4123 17.7101 8.97394 18.3676C8.53558 19.0252 8.72736 19.9156 9.3849 20.3403Z" fill="black" fill-opacity="0.2"/>
<path d="M11.4806 28.5864C10.5217 28.5316 9.71347 29.2576 9.65867 30.2166C9.60387 31.1755 10.3299 31.9837 11.2888 32.0385C12.2477 32.0933 13.056 31.3673 13.1108 30.4083C13.1656 29.4631 12.4395 28.6412 11.4806 28.5864Z" fill="url(#paint5_linear_7118_5765)"/>
<path d="M11.4806 28.5864C10.5217 28.5316 9.71347 29.2576 9.65867 30.2166C9.60387 31.1755 10.3299 31.9837 11.2888 32.0385C12.2477 32.0933 13.056 31.3673 13.1108 30.4083C13.1656 29.4631 12.4395 28.6412 11.4806 28.5864Z" fill="black" fill-opacity="0.2"/>
<path d="M9.57672 40.1892C8.87808 40.5454 8.5904 41.3947 8.94657 42.1071C9.30274 42.8057 10.1521 43.0934 10.8644 42.7372C11.563 42.3811 11.8507 41.5317 11.4946 40.8194C11.1384 40.1207 10.2754 39.8331 9.57672 40.1892Z" fill="url(#paint6_linear_7118_5765)"/>
<path d="M9.57672 40.1892C8.87808 40.5454 8.5904 41.3947 8.94657 42.1071C9.30274 42.8057 10.1521 43.0934 10.8644 42.7372C11.563 42.3811 11.8507 41.5317 11.4946 40.8194C11.1384 40.1207 10.2754 39.8331 9.57672 40.1892Z" fill="black" fill-opacity="0.2"/>
<path d="M16.2892 25.011C17.2344 25.6275 18.4947 25.3672 19.0975 24.422C19.7139 23.4768 19.4536 22.2165 18.5084 21.6137C17.5632 20.9973 16.3029 21.2575 15.7001 22.2028C15.0837 23.1343 15.344 24.3946 16.2892 25.011Z" fill="url(#paint7_linear_7118_5765)"/>
<path d="M16.2892 25.011C17.2344 25.6275 18.4947 25.3672 19.0975 24.422C19.7139 23.4768 19.4536 22.2165 18.5084 21.6137C17.5632 20.9973 16.3029 21.2575 15.7001 22.2028C15.0837 23.1343 15.344 24.3946 16.2892 25.011Z" fill="black" fill-opacity="0.2"/>
<path d="M37.5907 15.9975C38.3853 16.5181 39.4675 16.2989 39.988 15.5044C40.5086 14.7098 40.2894 13.6276 39.4949 13.1071C38.7003 12.5865 37.6181 12.8057 37.0976 13.6002C36.5633 14.4084 36.7825 15.477 37.5907 15.9975Z" fill="url(#paint8_linear_7118_5765)"/>
<path d="M37.5907 15.9975C38.3853 16.5181 39.4675 16.2989 39.988 15.5044C40.5086 14.7098 40.2894 13.6276 39.4949 13.1071C38.7003 12.5865 37.6181 12.8057 37.0976 13.6002C36.5633 14.4084 36.7825 15.477 37.5907 15.9975Z" fill="black" fill-opacity="0.2"/>
<path d="M41.1248 9.90164C41.6453 10.2441 42.3303 10.0934 42.6727 9.57286C43.0152 9.05231 42.8645 8.36737 42.344 8.0249C41.8234 7.68243 41.1385 7.83311 40.796 8.33997C40.4672 8.86052 40.6179 9.55916 41.1248 9.90164Z" fill="url(#paint9_linear_7118_5765)"/>
<path d="M41.1248 9.90164C41.6453 10.2441 42.3303 10.0934 42.6727 9.57286C43.0152 9.05231 42.8645 8.36737 42.344 8.0249C41.8234 7.68243 41.1385 7.83311 40.796 8.33997C40.4672 8.86052 40.6179 9.55916 41.1248 9.90164Z" fill="black" fill-opacity="0.2"/>
<path d="M37.8508 26.7924C35.9467 26.6828 34.3028 28.1486 34.2069 30.0527C34.0973 31.9568 35.5631 33.6007 37.4673 33.6966C37.5358 33.6966 37.6042 33.6966 37.659 33.6966C39.5632 33.6966 41.1111 32.1486 41.1111 30.2308C41.1248 28.4088 39.6865 26.8883 37.8508 26.7924Z" fill="url(#paint10_linear_7118_5765)"/>
<path d="M37.8508 26.7924C35.9467 26.6828 34.3028 28.1486 34.2069 30.0527C34.0973 31.9568 35.5631 33.6007 37.4673 33.6966C37.5358 33.6966 37.6042 33.6966 37.659 33.6966C39.5632 33.6966 41.1111 32.1486 41.1111 30.2308C41.1248 28.4088 39.6865 26.8883 37.8508 26.7924Z" fill="black" fill-opacity="0.2"/>
<path d="M22.3301 24.765C22.9191 25.9294 24.1109 26.6691 25.426 26.6691C27.3301 26.6691 28.8781 25.1212 28.8781 23.2033C28.8781 22.6691 28.7548 22.1348 28.5082 21.6417C27.6452 19.9293 25.563 19.2444 23.8643 20.1074C22.152 20.9841 21.467 23.0663 22.3301 24.765Z" fill="url(#paint11_linear_7118_5765)"/>
<path d="M22.3301 24.765C22.9191 25.9294 24.1109 26.6691 25.426 26.6691C27.3301 26.6691 28.8781 25.1212 28.8781 23.2033C28.8781 22.6691 28.7548 22.1348 28.5082 21.6417C27.6452 19.9293 25.563 19.2444 23.8643 20.1074C22.152 20.9841 21.467 23.0663 22.3301 24.765Z" fill="black" fill-opacity="0.2"/>
<path d="M49.44 20.3402C50.1386 19.984 50.4126 19.121 50.0564 18.4223C49.7002 17.7237 48.8372 17.4497 48.1386 17.8059C47.4399 18.162 47.166 19.0114 47.5084 19.71C47.8783 20.4087 48.7276 20.6963 49.44 20.3402Z" fill="url(#paint12_linear_7118_5765)"/>
<path d="M49.44 20.3402C50.1386 19.984 50.4126 19.121 50.0564 18.4223C49.7002 17.7237 48.8372 17.4497 48.1386 17.8059C47.4399 18.162 47.166 19.0114 47.5084 19.71C47.8783 20.4087 48.7276 20.6963 49.44 20.3402Z" fill="black" fill-opacity="0.2"/>
<path d="M40.6728 21.436C39.6728 21.9429 39.2618 23.1621 39.7687 24.1621C40.2755 25.1621 41.4947 25.5731 42.4948 25.0662C43.4948 24.5594 43.9057 23.3402 43.3989 22.3401C42.892 21.3401 41.6728 20.9429 40.6728 21.436Z" fill="url(#paint13_linear_7118_5765)"/>
<path d="M40.6728 21.436C39.6728 21.9429 39.2618 23.1621 39.7687 24.1621C40.2755 25.1621 41.4947 25.5731 42.4948 25.0662C43.4948 24.5594 43.9057 23.3402 43.3989 22.3401C42.892 21.3401 41.6728 20.9429 40.6728 21.436Z" fill="black" fill-opacity="0.2"/>
<path d="M29.3713 9.38068C30.1522 9.42177 30.8234 8.81903 30.8782 8.03819C30.933 7.25736 30.3165 6.58612 29.5357 6.53132C28.7549 6.49023 28.0836 7.07928 28.0288 7.86011C27.9877 8.65464 28.5905 9.32588 29.3713 9.38068Z" fill="url(#paint14_linear_7118_5765)"/>
<path d="M29.3713 9.38068C30.1522 9.42177 30.8234 8.81903 30.8782 8.03819C30.933 7.25736 30.3165 6.58612 29.5357 6.53132C28.7549 6.49023 28.0836 7.07928 28.0288 7.86011C27.9877 8.65464 28.5905 9.32588 29.3713 9.38068Z" fill="black" fill-opacity="0.2"/>
<path d="M29.3574 18.3262C30.4807 18.3947 31.4396 17.5317 31.4944 16.4084C31.5629 15.2851 30.6998 14.3262 29.5765 14.2714C28.4532 14.2029 27.4943 15.0659 27.4395 16.1892C27.3847 17.3125 28.2341 18.2714 29.3574 18.3262Z" fill="url(#paint15_linear_7118_5765)"/>
<path d="M29.3574 18.3262C30.4807 18.3947 31.4396 17.5317 31.4944 16.4084C31.5629 15.2851 30.6998 14.3262 29.5765 14.2714C28.4532 14.2029 27.4943 15.0659 27.4395 16.1892C27.3847 17.3125 28.2341 18.2714 29.3574 18.3262Z" fill="black" fill-opacity="0.2"/>
<path d="M18.3439 39.0937C19.3439 38.5868 19.7549 37.3676 19.248 36.3676C18.7411 35.3676 17.5219 34.9567 16.5219 35.4635C15.5219 35.9704 15.111 37.1896 15.6178 38.1896C16.1247 39.1896 17.3439 39.6006 18.3439 39.0937Z" fill="url(#paint16_linear_7118_5765)"/>
<path d="M18.3439 39.0937C19.3439 38.5868 19.7549 37.3676 19.248 36.3676C18.7411 35.3676 17.5219 34.9567 16.5219 35.4635C15.5219 35.9704 15.111 37.1896 15.6178 38.1896C16.1247 39.1896 17.3439 39.6006 18.3439 39.0937Z" fill="black" fill-opacity="0.2"/>
<path d="M30.6729 21.2985C29.6318 22.9012 30.0702 25.0383 31.6729 26.0794C33.2757 27.1205 35.4127 26.6821 36.4538 25.0794C37.4949 23.4766 37.0566 21.3396 35.4538 20.2985C34.8922 19.9286 34.2346 19.7368 33.5634 19.7368C32.399 19.7368 31.3168 20.3259 30.6729 21.2985Z" fill="url(#paint17_linear_7118_5765)"/>
<path d="M30.6729 21.2985C29.6318 22.9012 30.0702 25.0383 31.6729 26.0794C33.2757 27.1205 35.4127 26.6821 36.4538 25.0794C37.4949 23.4766 37.0566 21.3396 35.4538 20.2985C34.8922 19.9286 34.2346 19.7368 33.5634 19.7368C32.399 19.7368 31.3168 20.3259 30.6729 21.2985Z" fill="black" fill-opacity="0.2"/>
<path d="M36.6864 35.7647C35.8234 34.0524 33.7412 33.3674 32.0425 34.2304C30.3302 35.0935 29.6452 37.1757 30.5083 38.8743C31.3713 40.5867 33.4535 41.2716 35.1522 40.4086C36.8508 39.5593 37.5495 37.5045 36.7001 35.7921C36.7001 35.7784 36.7001 35.7784 36.6864 35.7647Z" fill="url(#paint18_linear_7118_5765)"/>
<path d="M36.6864 35.7647C35.8234 34.0524 33.7412 33.3674 32.0425 34.2304C30.3302 35.0935 29.6452 37.1757 30.5083 38.8743C31.3713 40.5867 33.4535 41.2716 35.1522 40.4086C36.8508 39.5593 37.5495 37.5045 36.7001 35.7921C36.7001 35.7784 36.7001 35.7784 36.6864 35.7647Z" fill="black" fill-opacity="0.2"/>
<path d="M42.7276 35.5185C41.7824 34.9021 40.5221 35.1623 39.9194 36.1076C39.3029 37.0528 39.5632 38.3131 40.5084 38.9158C41.4537 39.5323 42.7139 39.272 43.3167 38.3268C43.9331 37.3952 43.6729 36.135 42.7276 35.5185Z" fill="url(#paint19_linear_7118_5765)"/>
<path d="M42.7276 35.5185C41.7824 34.9021 40.5221 35.1623 39.9194 36.1076C39.3029 37.0528 39.5632 38.3131 40.5084 38.9158C41.4537 39.5323 42.7139 39.272 43.3167 38.3268C43.9331 37.3952 43.6729 36.135 42.7276 35.5185Z" fill="black" fill-opacity="0.2"/>
<path d="M49.3578 30.3268C49.4126 29.3679 48.6866 28.5597 47.7277 28.5049C46.7688 28.4501 45.9605 29.1761 45.9057 30.135C45.8509 31.0939 46.577 31.9022 47.5359 31.957C48.4811 32.0118 49.3031 31.272 49.3578 30.3268Z" fill="url(#paint20_linear_7118_5765)"/>
<path d="M49.3578 30.3268C49.4126 29.3679 48.6866 28.5597 47.7277 28.5049C46.7688 28.4501 45.9605 29.1761 45.9057 30.135C45.8509 31.0939 46.577 31.9022 47.5359 31.957C48.4811 32.0118 49.3031 31.272 49.3578 30.3268Z" fill="black" fill-opacity="0.2"/>
<path d="M54.1387 29.0938C53.5223 29.0527 52.988 29.5321 52.9606 30.1486C52.9332 30.765 53.399 31.2993 54.0154 31.3267C54.6319 31.3678 55.1524 30.8883 55.1935 30.2719C55.2209 29.6554 54.7552 29.1349 54.1387 29.0938Z" fill="url(#paint21_linear_7118_5765)"/>
<path d="M54.1387 29.0938C53.5223 29.0527 52.988 29.5321 52.9606 30.1486C52.9332 30.765 53.399 31.2993 54.0154 31.3267C54.6319 31.3678 55.1524 30.8883 55.1935 30.2719C55.2209 29.6554 54.7552 29.1349 54.1387 29.0938Z" fill="black" fill-opacity="0.2"/>
<path d="M49.6319 40.1901C48.9744 39.7654 48.0977 39.9435 47.6593 40.601C47.2346 41.2586 47.4127 42.1353 48.0703 42.5737C48.7278 42.9983 49.6045 42.8202 50.0429 42.1627C50.4813 41.5051 50.2895 40.6147 49.6319 40.1901Z" fill="url(#paint22_linear_7118_5765)"/>
<path d="M49.6319 40.1901C48.9744 39.7654 48.0977 39.9435 47.6593 40.601C47.2346 41.2586 47.4127 42.1353 48.0703 42.5737C48.7278 42.9983 49.6045 42.8202 50.0429 42.1627C50.4813 41.5051 50.2895 40.6147 49.6319 40.1901Z" fill="black" fill-opacity="0.2"/>
<path d="M17.8776 50.6279C17.357 50.2855 16.6721 50.4361 16.3296 50.943C15.9871 51.4636 16.1378 52.1485 16.6447 52.491C17.1652 52.8334 17.8502 52.6827 18.1926 52.1759C18.5488 51.669 18.3981 50.9704 17.8776 50.6279Z" fill="url(#paint23_linear_7118_5765)"/>
<path d="M17.8776 50.6279C17.357 50.2855 16.6721 50.4361 16.3296 50.943C15.9871 51.4636 16.1378 52.1485 16.6447 52.491C17.1652 52.8334 17.8502 52.6827 18.1926 52.1759C18.5488 51.669 18.3981 50.9704 17.8776 50.6279Z" fill="black" fill-opacity="0.2"/>
<path d="M41.3303 50.5182C40.7824 50.7921 40.5632 51.4771 40.8372 52.025C41.1112 52.573 41.7961 52.7922 42.3441 52.5182C42.892 52.2442 43.1112 51.573 42.8372 51.025C42.5632 50.4634 41.892 50.2305 41.3303 50.5182Z" fill="url(#paint24_linear_7118_5765)"/>
<path d="M41.3303 50.5182C40.7824 50.7921 40.5632 51.4771 40.8372 52.025C41.1112 52.573 41.7961 52.7922 42.3441 52.5182C42.892 52.2442 43.1112 51.573 42.8372 51.025C42.5632 50.4634 41.892 50.2305 41.3303 50.5182Z" fill="black" fill-opacity="0.2"/>
<path d="M28.3442 39.2307C29.3853 37.6279 28.9469 35.4909 27.3442 34.4361C25.7414 33.395 23.6044 33.8334 22.5496 35.4361C21.4948 37.0389 21.9468 39.1759 23.5496 40.2307C24.1112 40.6006 24.7688 40.7924 25.44 40.7924C26.6181 40.8061 27.7003 40.217 28.3442 39.2307Z" fill="url(#paint25_linear_7118_5765)"/>
<path d="M28.3442 39.2307C29.3853 37.6279 28.9469 35.4909 27.3442 34.4361C25.7414 33.395 23.6044 33.8334 22.5496 35.4361C21.4948 37.0389 21.9468 39.1759 23.5496 40.2307C24.1112 40.6006 24.7688 40.7924 25.44 40.7924C26.6181 40.8061 27.7003 40.217 28.3442 39.2307Z" fill="black" fill-opacity="0.2"/>
<path d="M21.4257 44.5324C20.6312 44.0118 19.549 44.231 19.0284 45.0255C18.5079 45.82 18.7271 46.9023 19.5216 47.4228C20.3161 47.9434 21.3983 47.7242 21.9189 46.9296C22.4532 46.1351 22.234 45.0529 21.4257 44.5324Z" fill="url(#paint26_linear_7118_5765)"/>
<path d="M21.4257 44.5324C20.6312 44.0118 19.549 44.231 19.0284 45.0255C18.5079 45.82 18.7271 46.9023 19.5216 47.4228C20.3161 47.9434 21.3983 47.7242 21.9189 46.9296C22.4532 46.1351 22.234 45.0529 21.4257 44.5324Z" fill="black" fill-opacity="0.2"/>
<path d="M29.4946 51.1485C28.7138 51.1074 28.0426 51.7101 27.9878 52.4909C27.933 53.2718 28.5494 53.943 29.3302 53.9978C30.1111 54.0389 30.7823 53.4499 30.8371 52.669C30.8782 51.8745 30.2755 51.2033 29.4946 51.1485Z" fill="url(#paint27_linear_7118_5765)"/>
<path d="M29.4946 51.1485C28.7138 51.1074 28.0426 51.7101 27.9878 52.4909C27.933 53.2718 28.5494 53.943 29.3302 53.9978C30.1111 54.0389 30.7823 53.4499 30.8371 52.669C30.8782 51.8745 30.2755 51.2033 29.4946 51.1485Z" fill="black" fill-opacity="0.2"/>
<path d="M29.508 42.203C28.3847 42.1345 27.4258 42.9976 27.371 44.1209C27.3025 45.2442 28.1655 46.2031 29.2888 46.2579C30.4121 46.3127 31.3711 45.4634 31.4258 44.34C31.4943 43.2304 30.6313 42.2578 29.508 42.203Z" fill="url(#paint28_linear_7118_5765)"/>
<path d="M29.508 42.203C28.3847 42.1345 27.4258 42.9976 27.371 44.1209C27.3025 45.2442 28.1655 46.2031 29.2888 46.2579C30.4121 46.3127 31.3711 45.4634 31.4258 44.34C31.4943 43.2304 30.6313 42.2578 29.508 42.203Z" fill="black" fill-opacity="0.2"/>
<path d="M37.8235 44.3953C36.9741 44.8337 36.6317 45.8748 37.07 46.7241C37.5084 47.5734 38.5495 47.9159 39.3988 47.4775C40.2482 47.0529 40.5906 46.0118 40.166 45.1624C39.7276 44.3131 38.6865 43.9569 37.8235 44.3953Z" fill="url(#paint29_linear_7118_5765)"/>
<path d="M37.8235 44.3953C36.9741 44.8337 36.6317 45.8748 37.07 46.7241C37.5084 47.5734 38.5495 47.9159 39.3988 47.4775C40.2482 47.0529 40.5906 46.0118 40.166 45.1624C39.7276 44.3131 38.6865 43.9569 37.8235 44.3953Z" fill="black" fill-opacity="0.2"/>
<defs>
<linearGradient id="paint0_linear_7118_5765" x1="21.3613" y1="26.8198" x2="21.3613" y2="33.7378" gradientUnits="userSpaceOnUse">
<stop stop-color="#FF0F0F"/>
<stop offset="1" stop-color="#FF4849"/>
</linearGradient>
<linearGradient id="paint1_linear_7118_5765" x1="4.94003" y1="29.2007" x2="4.94003" y2="31.4385" gradientUnits="userSpaceOnUse">
<stop stop-color="#FF0F0F"/>
<stop offset="1" stop-color="#FF4849"/>
</linearGradient>
<linearGradient id="paint2_linear_7118_5765" x1="17.1795" y1="7.89307" x2="17.1795" y2="10.1347" gradientUnits="userSpaceOnUse">
<stop stop-color="#FF0F0F"/>
<stop offset="1" stop-color="#FF4849"/>
</linearGradient>
<linearGradient id="paint3_linear_7118_5765" x1="20.4192" y1="12.8701" x2="20.4192" y2="16.3169" gradientUnits="userSpaceOnUse">
<stop stop-color="#FF0F0F"/>
<stop offset="1" stop-color="#FF4849"/>
</linearGradient>
<linearGradient id="paint4_linear_7118_5765" x1="10.1627" y1="17.7266" x2="10.1627" y2="20.5704" gradientUnits="userSpaceOnUse">
<stop stop-color="#FF0F0F"/>
<stop offset="1" stop-color="#FF4849"/>
</linearGradient>
<linearGradient id="paint5_linear_7118_5765" x1="11.3847" y1="28.5835" x2="11.3847" y2="32.0414" gradientUnits="userSpaceOnUse">
<stop stop-color="#FF0F0F"/>
<stop offset="1" stop-color="#FF4849"/>
</linearGradient>
<linearGradient id="paint6_linear_7118_5765" x1="10.2206" y1="40.0361" x2="10.2206" y2="42.8903" gradientUnits="userSpaceOnUse">
<stop stop-color="#FF0F0F"/>
<stop offset="1" stop-color="#FF4849"/>
</linearGradient>
<linearGradient id="paint7_linear_7118_5765" x1="17.3988" y1="21.2798" x2="17.3988" y2="25.345" gradientUnits="userSpaceOnUse">
<stop stop-color="#FF0F0F"/>
<stop offset="1" stop-color="#FF4849"/>
</linearGradient>
<linearGradient id="paint8_linear_7118_5765" x1="38.538" y1="12.8247" x2="38.538" y2="16.2799" gradientUnits="userSpaceOnUse">
<stop stop-color="#FF0F0F"/>
<stop offset="1" stop-color="#FF4849"/>
</linearGradient>
<linearGradient id="paint9_linear_7118_5765" x1="41.7391" y1="7.84033" x2="41.7391" y2="10.0855" gradientUnits="userSpaceOnUse">
<stop stop-color="#FF0F0F"/>
<stop offset="1" stop-color="#FF4849"/>
</linearGradient>
<linearGradient id="paint10_linear_7118_5765" x1="37.6562" y1="26.7866" x2="37.6562" y2="33.6966" gradientUnits="userSpaceOnUse">
<stop stop-color="#FF0F0F"/>
<stop offset="1" stop-color="#FF4849"/>
</linearGradient>
<linearGradient id="paint11_linear_7118_5765" x1="25.4176" y1="19.7344" x2="25.4176" y2="26.6691" gradientUnits="userSpaceOnUse">
<stop stop-color="#FF0F0F"/>
<stop offset="1" stop-color="#FF4849"/>
</linearGradient>
<linearGradient id="paint12_linear_7118_5765" x1="48.7869" y1="17.6499" x2="48.7869" y2="20.4933" gradientUnits="userSpaceOnUse">
<stop stop-color="#FF0F0F"/>
<stop offset="1" stop-color="#FF4849"/>
</linearGradient>
<linearGradient id="paint13_linear_7118_5765" x1="41.5838" y1="21.2246" x2="41.5838" y2="25.2836" gradientUnits="userSpaceOnUse">
<stop stop-color="#FF0F0F"/>
<stop offset="1" stop-color="#FF4849"/>
</linearGradient>
<linearGradient id="paint14_linear_7118_5765" x1="29.4542" y1="6.5293" x2="29.4542" y2="9.38266" gradientUnits="userSpaceOnUse">
<stop stop-color="#FF0F0F"/>
<stop offset="1" stop-color="#FF4849"/>
</linearGradient>
<linearGradient id="paint15_linear_7118_5765" x1="29.4676" y1="14.2676" x2="29.4676" y2="18.3301" gradientUnits="userSpaceOnUse">
<stop stop-color="#FF0F0F"/>
<stop offset="1" stop-color="#FF4849"/>
</linearGradient>
<linearGradient id="paint16_linear_7118_5765" x1="17.4329" y1="35.2461" x2="17.4329" y2="39.3111" gradientUnits="userSpaceOnUse">
<stop stop-color="#FF0F0F"/>
<stop offset="1" stop-color="#FF4849"/>
</linearGradient>
<linearGradient id="paint17_linear_7118_5765" x1="33.5634" y1="19.7368" x2="33.5634" y2="26.6434" gradientUnits="userSpaceOnUse">
<stop stop-color="#FF0F0F"/>
<stop offset="1" stop-color="#FF4849"/>
</linearGradient>
<linearGradient id="paint18_linear_7118_5765" x1="33.5986" y1="33.8574" x2="33.5986" y2="40.7816" gradientUnits="userSpaceOnUse">
<stop stop-color="#FF0F0F"/>
<stop offset="1" stop-color="#FF4849"/>
</linearGradient>
<linearGradient id="paint19_linear_7118_5765" x1="41.618" y1="35.1846" x2="41.618" y2="39.2497" gradientUnits="userSpaceOnUse">
<stop stop-color="#FF0F0F"/>
<stop offset="1" stop-color="#FF4849"/>
</linearGradient>
<linearGradient id="paint20_linear_7118_5765" x1="47.6318" y1="28.502" x2="47.6318" y2="31.9598" gradientUnits="userSpaceOnUse">
<stop stop-color="#FF0F0F"/>
<stop offset="1" stop-color="#FF4849"/>
</linearGradient>
<linearGradient id="paint21_linear_7118_5765" x1="54.0771" y1="29.0913" x2="54.0771" y2="31.3291" gradientUnits="userSpaceOnUse">
<stop stop-color="#FF0F0F"/>
<stop offset="1" stop-color="#FF4849"/>
</linearGradient>
<linearGradient id="paint22_linear_7118_5765" x1="48.8541" y1="39.96" x2="48.8541" y2="42.8038" gradientUnits="userSpaceOnUse">
<stop stop-color="#FF0F0F"/>
<stop offset="1" stop-color="#FF4849"/>
</linearGradient>
<linearGradient id="paint23_linear_7118_5765" x1="17.2659" y1="50.4434" x2="17.2659" y2="52.6755" gradientUnits="userSpaceOnUse">
<stop stop-color="#FF0F0F"/>
<stop offset="1" stop-color="#FF4849"/>
</linearGradient>
<linearGradient id="paint24_linear_7118_5765" x1="41.8372" y1="50.3945" x2="41.8372" y2="52.6361" gradientUnits="userSpaceOnUse">
<stop stop-color="#FF0F0F"/>
<stop offset="1" stop-color="#FF4849"/>
</linearGradient>
<linearGradient id="paint25_linear_7118_5765" x1="25.4438" y1="33.8721" x2="25.4438" y2="40.7926" gradientUnits="userSpaceOnUse">
<stop stop-color="#FF0F0F"/>
<stop offset="1" stop-color="#FF4849"/>
</linearGradient>
<linearGradient id="paint26_linear_7118_5765" x1="20.4785" y1="44.25" x2="20.4785" y2="47.7052" gradientUnits="userSpaceOnUse">
<stop stop-color="#FF0F0F"/>
<stop offset="1" stop-color="#FF4849"/>
</linearGradient>
<linearGradient id="paint27_linear_7118_5765" x1="29.4117" y1="51.1465" x2="29.4117" y2="53.9998" gradientUnits="userSpaceOnUse">
<stop stop-color="#FF0F0F"/>
<stop offset="1" stop-color="#FF4849"/>
</linearGradient>
<linearGradient id="paint28_linear_7118_5765" x1="29.3984" y1="42.1992" x2="29.3984" y2="46.2604" gradientUnits="userSpaceOnUse">
<stop stop-color="#FF0F0F"/>
<stop offset="1" stop-color="#FF4849"/>
</linearGradient>
<linearGradient id="paint29_linear_7118_5765" x1="38.6136" y1="44.207" x2="38.6136" y2="47.6687" gradientUnits="userSpaceOnUse">
<stop stop-color="#FF0F0F"/>
<stop offset="1" stop-color="#FF4849"/>
</linearGradient>
</defs>
</svg>
