<svg width="46" height="54" viewBox="0 0 46 54" fill="none" xmlns="http://www.w3.org/2000/svg">
<path d="M20.4657 21.2857H26.7557C26.9582 21.2857 27.1523 21.3678 27.2955 21.514C27.4387 21.6602 27.5191 21.8585 27.5191 22.0653C27.5191 22.272 27.4387 22.4703 27.2955 22.6165C27.1523 22.7627 26.9582 22.8448 26.7557 22.8448H21.229V26.2204H26.7557C26.9582 26.2204 27.1523 26.3026 27.2955 26.4488C27.4387 26.595 27.5191 26.7932 27.5191 27C27.5191 27.2068 27.4387 27.4051 27.2955 27.5513C27.1523 27.6975 26.9582 27.7796 26.7557 27.7796H21.229V31.9348C21.229 32.1415 21.1486 32.3398 21.0054 32.486C20.8623 32.6322 20.6681 32.7143 20.4657 32.7143C20.2632 32.7143 20.069 32.6322 19.9259 32.486C19.7827 32.3398 19.7023 32.1415 19.7023 31.9348V22.0653C19.7023 21.8585 19.7827 21.6602 19.9259 21.514C20.069 21.3678 20.2632 21.2857 20.4657 21.2857ZM17.5802 21.2857C17.3777 21.2857 17.1835 21.3678 17.0404 21.514C16.8972 21.6602 16.8168 21.8585 16.8168 22.0653V29.3387L11.9313 21.6677C11.8416 21.5259 11.7093 21.4176 11.5543 21.3592C11.3992 21.3008 11.2298 21.2954 11.0714 21.3437C10.9131 21.392 10.7744 21.4916 10.6761 21.6273C10.5779 21.763 10.5255 21.9277 10.5267 22.0964V31.9348C10.5267 32.1415 10.6071 32.3398 10.7503 32.486C10.8935 32.6322 11.0876 32.7143 11.2901 32.7143C11.4925 32.7143 11.6867 32.6322 11.8299 32.486C11.973 32.3398 12.0534 32.1415 12.0534 31.9348V24.6613L16.9466 32.3323C17.0366 32.4723 17.1683 32.579 17.3223 32.6366C17.4763 32.6941 17.6443 32.6995 17.8015 32.652C17.9638 32.6019 18.1051 32.4981 18.2033 32.357C18.3014 32.2158 18.3507 32.0453 18.3435 31.8724V22.0653C18.3435 21.8585 18.2631 21.6602 18.1199 21.514C17.9768 21.3678 17.7826 21.2857 17.5802 21.2857ZM28.4198 22.8448H30.8015V31.9348C30.8015 32.1415 30.882 32.3398 31.0251 32.486C31.1683 32.6322 31.3624 32.7143 31.5649 32.7143C31.7673 32.7143 31.9615 32.6322 32.1047 32.486C32.2478 32.3398 32.3282 32.1415 32.3282 31.9348V22.8448H34.7099C34.9124 22.8448 35.1065 22.7627 35.2497 22.6165C35.3929 22.4703 35.4733 22.272 35.4733 22.0653C35.4733 21.8585 35.3929 21.6602 35.2497 21.514C35.1065 21.3678 34.9124 21.2857 34.7099 21.2857H28.4198C28.2174 21.2857 28.0232 21.3678 27.8801 21.514C27.7369 21.6602 27.6565 21.8585 27.6565 22.0653C27.6565 22.272 27.7369 22.4703 27.8801 22.6165C28.0232 22.7627 28.2174 22.8448 28.4198 22.8448ZM45.9771 13.8874V40.1126C45.9763 40.2486 45.9406 40.3821 45.8737 40.4997C45.8067 40.6173 45.7108 40.715 45.5954 40.783L23.3817 53.8956C23.2656 53.964 23.134 54 23 54C22.866 54 22.7344 53.964 22.6183 53.8956L0.381679 40.783C0.266307 40.715 0.170373 40.6173 0.103415 40.4997C0.0364561 40.3821 0.000804099 40.2486 0 40.1126V13.8874C0.000804099 13.7514 0.0364561 13.6179 0.103415 13.5003C0.170373 13.3827 0.266307 13.285 0.381679 13.217L22.6183 0.104444C22.7344 0.0360219 22.866 0 23 0C23.134 0 23.2656 0.0360219 23.3817 0.104444L45.6183 13.217C45.7337 13.285 45.8296 13.3827 45.8966 13.5003C45.9635 13.6179 45.9992 13.7514 46 13.8874H45.9771ZM44.4504 14.3396L23 1.6792L1.52672 14.3396V39.6604L23 52.3208L44.4733 39.6604L44.4504 14.3396ZM23.3817 5.50694L41.0382 15.9144C41.1547 15.983 41.2513 16.0819 41.3183 16.201C41.3854 16.3201 41.4204 16.4552 41.4198 16.5926V37.4074C41.4204 37.5448 41.3854 37.6799 41.3183 37.799C41.2513 37.9181 41.1547 38.017 41.0382 38.0857L23.3817 48.4931C23.2656 48.5615 23.134 48.5975 23 48.5975C22.866 48.5975 22.7344 48.5615 22.6183 48.4931L4.96183 38.0857C4.84534 38.017 4.74869 37.9181 4.68166 37.799C4.61464 37.6799 4.57962 37.5448 4.58015 37.4074V16.5926C4.57962 16.4552 4.61464 16.3201 4.68166 16.201C4.74869 16.0819 4.84534 15.983 4.96183 15.9144L22.6183 5.50694C22.7344 5.43852 22.866 5.4025 23 5.4025C23.134 5.4025 23.2656 5.43852 23.3817 5.50694ZM23 7.06611L6.10687 17.037V36.9631L23 46.9183L39.8931 36.9631V17.037L23 7.06611Z" fill="url(#paint0_linear_7123_6481)"/>
<path d="M20.4657 21.2857H26.7557C26.9582 21.2857 27.1523 21.3678 27.2955 21.514C27.4387 21.6602 27.5191 21.8585 27.5191 22.0653C27.5191 22.272 27.4387 22.4703 27.2955 22.6165C27.1523 22.7627 26.9582 22.8448 26.7557 22.8448H21.229V26.2204H26.7557C26.9582 26.2204 27.1523 26.3026 27.2955 26.4488C27.4387 26.595 27.5191 26.7932 27.5191 27C27.5191 27.2068 27.4387 27.4051 27.2955 27.5513C27.1523 27.6975 26.9582 27.7796 26.7557 27.7796H21.229V31.9348C21.229 32.1415 21.1486 32.3398 21.0054 32.486C20.8623 32.6322 20.6681 32.7143 20.4657 32.7143C20.2632 32.7143 20.069 32.6322 19.9259 32.486C19.7827 32.3398 19.7023 32.1415 19.7023 31.9348V22.0653C19.7023 21.8585 19.7827 21.6602 19.9259 21.514C20.069 21.3678 20.2632 21.2857 20.4657 21.2857ZM17.5802 21.2857C17.3777 21.2857 17.1835 21.3678 17.0404 21.514C16.8972 21.6602 16.8168 21.8585 16.8168 22.0653V29.3387L11.9313 21.6677C11.8416 21.5259 11.7093 21.4176 11.5543 21.3592C11.3992 21.3008 11.2298 21.2954 11.0714 21.3437C10.9131 21.392 10.7744 21.4916 10.6761 21.6273C10.5779 21.763 10.5255 21.9277 10.5267 22.0964V31.9348C10.5267 32.1415 10.6071 32.3398 10.7503 32.486C10.8935 32.6322 11.0876 32.7143 11.2901 32.7143C11.4925 32.7143 11.6867 32.6322 11.8299 32.486C11.973 32.3398 12.0534 32.1415 12.0534 31.9348V24.6613L16.9466 32.3323C17.0366 32.4723 17.1683 32.579 17.3223 32.6366C17.4763 32.6941 17.6443 32.6995 17.8015 32.652C17.9638 32.6019 18.1051 32.4981 18.2033 32.357C18.3014 32.2158 18.3507 32.0453 18.3435 31.8724V22.0653C18.3435 21.8585 18.2631 21.6602 18.1199 21.514C17.9768 21.3678 17.7826 21.2857 17.5802 21.2857ZM28.4198 22.8448H30.8015V31.9348C30.8015 32.1415 30.882 32.3398 31.0251 32.486C31.1683 32.6322 31.3624 32.7143 31.5649 32.7143C31.7673 32.7143 31.9615 32.6322 32.1047 32.486C32.2478 32.3398 32.3282 32.1415 32.3282 31.9348V22.8448H34.7099C34.9124 22.8448 35.1065 22.7627 35.2497 22.6165C35.3929 22.4703 35.4733 22.272 35.4733 22.0653C35.4733 21.8585 35.3929 21.6602 35.2497 21.514C35.1065 21.3678 34.9124 21.2857 34.7099 21.2857H28.4198C28.2174 21.2857 28.0232 21.3678 27.8801 21.514C27.7369 21.6602 27.6565 21.8585 27.6565 22.0653C27.6565 22.272 27.7369 22.4703 27.8801 22.6165C28.0232 22.7627 28.2174 22.8448 28.4198 22.8448ZM45.9771 13.8874V40.1126C45.9763 40.2486 45.9406 40.3821 45.8737 40.4997C45.8067 40.6173 45.7108 40.715 45.5954 40.783L23.3817 53.8956C23.2656 53.964 23.134 54 23 54C22.866 54 22.7344 53.964 22.6183 53.8956L0.381679 40.783C0.266307 40.715 0.170373 40.6173 0.103415 40.4997C0.0364561 40.3821 0.000804099 40.2486 0 40.1126V13.8874C0.000804099 13.7514 0.0364561 13.6179 0.103415 13.5003C0.170373 13.3827 0.266307 13.285 0.381679 13.217L22.6183 0.104444C22.7344 0.0360219 22.866 0 23 0C23.134 0 23.2656 0.0360219 23.3817 0.104444L45.6183 13.217C45.7337 13.285 45.8296 13.3827 45.8966 13.5003C45.9635 13.6179 45.9992 13.7514 46 13.8874H45.9771ZM44.4504 14.3396L23 1.6792L1.52672 14.3396V39.6604L23 52.3208L44.4733 39.6604L44.4504 14.3396ZM23.3817 5.50694L41.0382 15.9144C41.1547 15.983 41.2513 16.0819 41.3183 16.201C41.3854 16.3201 41.4204 16.4552 41.4198 16.5926V37.4074C41.4204 37.5448 41.3854 37.6799 41.3183 37.799C41.2513 37.9181 41.1547 38.017 41.0382 38.0857L23.3817 48.4931C23.2656 48.5615 23.134 48.5975 23 48.5975C22.866 48.5975 22.7344 48.5615 22.6183 48.4931L4.96183 38.0857C4.84534 38.017 4.74869 37.9181 4.68166 37.799C4.61464 37.6799 4.57962 37.5448 4.58015 37.4074V16.5926C4.57962 16.4552 4.61464 16.3201 4.68166 16.201C4.74869 16.0819 4.84534 15.983 4.96183 15.9144L22.6183 5.50694C22.7344 5.43852 22.866 5.4025 23 5.4025C23.134 5.4025 23.2656 5.43852 23.3817 5.50694ZM23 7.06611L6.10687 17.037V36.9631L23 46.9183L39.8931 36.9631V17.037L23 7.06611Z" fill="black" fill-opacity="0.2"/>
<defs>
<linearGradient id="paint0_linear_7123_6481" x1="23" y1="0" x2="23" y2="54" gradientUnits="userSpaceOnUse">
<stop stop-color="#FF0F0F"/>
<stop offset="1" stop-color="#FF4849"/>
</linearGradient>
</defs>
</svg>
