<svg width="60" height="60" viewBox="0 0 60 60" fill="none" xmlns="http://www.w3.org/2000/svg">
<path d="M44.7991 21.2844C44.6775 21.4185 44.5254 21.5228 44.3581 21.5824C44.1908 21.6569 44.0084 21.6867 43.8259 21.6867H9.38175C8.16518 21.6867 7.54169 20.1967 8.39329 19.3027L14.0503 13.4172C14.172 13.2831 14.3241 13.1788 14.5066 13.1043C14.6738 13.0298 14.8563 13 15.0388 13H49.6198C50.8516 13 51.4599 14.5049 50.593 15.3989L44.7991 21.2844ZM44.7991 47.5977C44.5406 47.851 44.1908 48 43.8259 48H9.38175C8.16518 48 7.54169 46.5398 8.39329 45.6756L14.0503 39.9242C14.172 39.7901 14.3393 39.6858 14.5066 39.6262C14.6738 39.5517 14.8563 39.5219 15.0388 39.5219H49.6198C50.8516 39.5219 51.4599 40.997 50.593 41.8612L44.7991 47.5977ZM44.7991 26.6633C44.5406 26.41 44.1908 26.261 43.8259 26.261H9.38175C8.16518 26.261 7.54169 27.7212 8.39329 28.5854L14.0503 34.3367C14.172 34.4708 14.3393 34.5751 14.5066 34.6347C14.6738 34.7092 14.8563 34.739 15.0388 34.739H49.6198C50.8516 34.739 51.4599 33.2639 50.593 32.3997L44.7991 26.6633Z" fill="url(#paint0_linear_7118_5731)"/>
<path d="M44.7991 21.2844C44.6775 21.4185 44.5254 21.5228 44.3581 21.5824C44.1908 21.6569 44.0084 21.6867 43.8259 21.6867H9.38175C8.16518 21.6867 7.54169 20.1967 8.39329 19.3027L14.0503 13.4172C14.172 13.2831 14.3241 13.1788 14.5066 13.1043C14.6738 13.0298 14.8563 13 15.0388 13H49.6198C50.8516 13 51.4599 14.5049 50.593 15.3989L44.7991 21.2844ZM44.7991 47.5977C44.5406 47.851 44.1908 48 43.8259 48H9.38175C8.16518 48 7.54169 46.5398 8.39329 45.6756L14.0503 39.9242C14.172 39.7901 14.3393 39.6858 14.5066 39.6262C14.6738 39.5517 14.8563 39.5219 15.0388 39.5219H49.6198C50.8516 39.5219 51.4599 40.997 50.593 41.8612L44.7991 47.5977ZM44.7991 26.6633C44.5406 26.41 44.1908 26.261 43.8259 26.261H9.38175C8.16518 26.261 7.54169 27.7212 8.39329 28.5854L14.0503 34.3367C14.172 34.4708 14.3393 34.5751 14.5066 34.6347C14.6738 34.7092 14.8563 34.739 15.0388 34.739H49.6198C50.8516 34.739 51.4599 33.2639 50.593 32.3997L44.7991 26.6633Z" fill="black" fill-opacity="0.2"/>
<defs>
<linearGradient id="paint0_linear_7118_5731" x1="29.5" y1="13" x2="29.5" y2="48" gradientUnits="userSpaceOnUse">
<stop stop-color="#FF0F0F"/>
<stop offset="1" stop-color="#FF4849"/>
</linearGradient>
</defs>
</svg>
