<svg width="57" height="58" viewBox="0 0 57 58" fill="none" xmlns="http://www.w3.org/2000/svg">
<path d="M31.4033 19.2018H14.9447C14.4493 19.2018 14.064 19.5871 14.064 20.0825C14.064 20.5779 14.4493 20.9632 14.9447 20.9632H31.4033C31.8988 20.9632 32.2841 20.5779 32.2841 20.0825C32.2841 19.5871 31.8988 19.2018 31.4033 19.2018Z" fill="black"/>
<path d="M31.4033 23.3302H14.9447C14.4493 23.3302 14.064 23.7155 14.064 24.2109C14.064 24.7063 14.4493 25.0917 14.9447 25.0917H31.4033C31.8988 25.0917 32.2841 24.7063 32.2841 24.2109C32.2841 23.7155 31.8988 23.3302 31.4033 23.3302Z" fill="black"/>
<path d="M31.4033 27.4586H14.9447C14.4493 27.4586 14.064 27.8439 14.064 28.3393C14.064 28.8348 14.4493 29.2201 14.9447 29.2201H31.4033C31.8988 29.2201 32.2841 28.8348 32.2841 28.3393C32.2841 27.8439 31.8988 27.4586 31.4033 27.4586Z" fill="black"/>
<path d="M31.4033 31.587H14.9447C14.4493 31.587 14.064 31.9724 14.064 32.4678C14.064 32.9632 14.4493 33.3485 14.9447 33.3485H31.4033C31.8988 33.3485 32.2841 32.9632 32.2841 32.4678C32.2841 31.9724 31.8988 31.587 31.4033 31.587Z" fill="black"/>
<path d="M31.4033 35.7155H14.9447C14.4493 35.7155 14.064 36.1008 14.064 36.5962C14.064 37.0916 14.4493 37.4769 14.9447 37.4769H31.4033C31.8988 37.4769 32.2841 37.0916 32.2841 36.5962C32.2841 36.1008 31.8988 35.7155 31.4033 35.7155Z" fill="black"/>
<path d="M31.4033 39.7889H14.9447C14.4493 39.7889 14.064 40.1743 14.064 40.6697C14.064 41.1651 14.4493 41.5504 14.9447 41.5504H31.4033C31.8988 41.5504 32.2841 41.1651 32.2841 40.6697C32.2841 40.1743 31.8988 39.7889 31.4033 39.7889Z" fill="black"/>
<path d="M51.6604 51.2383H45.9907V15.5137C45.9907 15.1284 45.7705 14.7981 45.3851 14.688L40.9815 13.3669V8.63301C40.9815 8.24769 40.7613 7.91742 40.376 7.80733L32.1191 5.05505C32.0641 5.05505 32.0641 5.05505 32.0091 5.05505C31.954 5.05505 31.899 5 31.8439 5H15.4403C14.9449 5.05505 14.5596 5.44037 14.5596 5.88073V11.9358H10.3761C9.88071 11.9358 9.49539 12.3211 9.49539 12.8165V51.2934H3.88073C3.38532 51.2383 3 51.6237 3 52.1191C3 52.6145 3.38532 52.9998 3.88073 52.9998H10.4312H36.0274H45.165H51.7154C52.2108 52.9998 52.5961 52.6145 52.5961 52.1191C52.5961 51.6237 52.1558 51.2383 51.6604 51.2383ZM39.2751 12.8715L36.2476 11.9358C36.1925 11.9358 36.1925 11.9358 36.1375 11.9358C36.0824 11.9358 36.0824 11.9358 36.0274 11.9358H32.7246V7.09173L39.2751 9.23851V12.8715ZM16.266 6.76146H31.0182V11.9358H16.266V6.76146ZM11.2568 13.6422H15.4403H31.899H35.1467V14.1376V51.2383H11.2568V13.6422ZM36.8531 51.2383V14.1376V13.9174L44.2842 16.1192V51.1833H36.8531V51.2383Z" fill="black"/>
</svg>
