<svg width="58" height="58" viewBox="0 0 58 58" fill="none" xmlns="http://www.w3.org/2000/svg">
<path d="M14.9922 34.8408C15.1746 34.8408 15.3495 34.7683 15.4784 34.6394C15.6073 34.5104 15.6798 34.3356 15.6798 34.1532V34.0527C15.6798 33.8703 15.6073 33.6954 15.4784 33.5665C15.3495 33.4375 15.1746 33.3651 14.9922 33.3651C14.8099 33.3651 14.635 33.4375 14.5061 33.5665C14.3771 33.6954 14.3047 33.8703 14.3047 34.0527V34.1532C14.3047 34.3356 14.3771 34.5104 14.5061 34.6394C14.635 34.7683 14.8099 34.8408 14.9922 34.8408Z" fill="black"/>
<path d="M19.1178 18.8837H18.3443C18.1619 18.8837 17.9871 18.9561 17.8581 19.085C17.7292 19.214 17.6567 19.3889 17.6567 19.5712C17.6567 19.7536 17.7292 19.9284 17.8581 20.0574C17.9871 20.1863 18.1619 20.2588 18.3443 20.2588H19.1178C19.3001 20.2588 19.475 20.1863 19.6039 20.0574C19.7329 19.9284 19.8053 19.7536 19.8053 19.5712C19.8053 19.3889 19.7329 19.214 19.6039 19.085C19.475 18.9561 19.3001 18.8837 19.1178 18.8837Z" fill="black"/>
<path d="M22.5558 18.8837H21.7823C21.5999 18.8837 21.425 18.9561 21.2961 19.085C21.1672 19.214 21.0947 19.3889 21.0947 19.5712C21.0947 19.7536 21.1672 19.9284 21.2961 20.0574C21.425 20.1863 21.5999 20.2588 21.7823 20.2588H22.5558C22.7381 20.2588 22.913 20.1863 23.0419 20.0574C23.1709 19.9284 23.2433 19.7536 23.2433 19.5712C23.2433 19.3889 23.1709 19.214 23.0419 19.085C22.913 18.9561 22.7381 18.8837 22.5558 18.8837Z" fill="black"/>
<path d="M25.9933 18.8837H25.2198C25.0374 18.8837 24.8625 18.9561 24.7336 19.085C24.6047 19.214 24.5322 19.3889 24.5322 19.5712C24.5322 19.7536 24.6047 19.9284 24.7336 20.0574C24.8625 20.1863 25.0374 20.2588 25.2198 20.2588H25.9933C26.1756 20.2588 26.3505 20.1863 26.4794 20.0574C26.6084 19.9284 26.6808 19.7536 26.6808 19.5712C26.6808 19.3889 26.6084 19.214 26.4794 19.085C26.3505 18.9561 26.1756 18.8837 25.9933 18.8837Z" fill="black"/>
<path d="M51.0027 28.5952C51.0027 28.1612 50.8534 27.7404 50.5798 27.4035C50.3063 27.0666 49.9251 26.834 49.5004 26.7449L47.5014 14.748C47.6357 14.6683 47.7598 14.5725 47.8709 14.4627C48.0465 14.2871 48.1858 14.0786 48.2809 13.8492C48.3759 13.6197 48.4248 13.3738 48.4248 13.1254C48.4248 12.8771 48.3759 12.6311 48.2809 12.4017C48.1858 12.1722 48.0465 11.9638 47.8709 11.7881C47.6953 11.6125 47.4868 11.4732 47.2574 11.3782C47.0279 11.2831 46.782 11.2342 46.5336 11.2342C46.2853 11.2342 46.0394 11.2831 45.8099 11.3782C45.5805 11.4732 45.372 11.6125 45.1964 11.7881C45.0689 11.9154 44.9601 12.0601 44.8732 12.2179L30.8352 10.4311C30.7328 10.0223 30.4966 9.65939 30.1644 9.40011C29.8321 9.14083 29.4227 9 29.0012 9C28.5797 9 28.1703 9.14083 27.8381 9.40011C27.5058 9.65939 27.2696 10.0223 27.1672 10.4311L13.1292 12.2204C13.0423 12.0627 12.9335 11.918 12.8061 11.7907C12.4491 11.449 11.9725 11.2606 11.4784 11.2658C10.9842 11.2711 10.5118 11.4696 10.1622 11.8189C9.81257 12.1681 9.61361 12.6404 9.60787 13.1345C9.60214 13.6287 9.79009 14.1054 10.1315 14.4627C10.2426 14.5725 10.3667 14.6683 10.5011 14.748L8.50202 26.7449C8.07733 26.8341 7.69626 27.0667 7.42277 27.4036C7.14927 27.7405 7 28.1613 7 28.5952C7 29.0292 7.14927 29.4499 7.42277 29.7868C7.69626 30.1238 8.07733 30.3563 8.50202 30.4456L10.5011 42.4424C10.3667 42.5221 10.2426 42.618 10.1315 42.7277C9.77683 43.0824 9.57758 43.5634 9.57758 44.065C9.57758 44.5666 9.77683 45.0476 10.1315 45.4023C10.4862 45.7569 10.9672 45.9562 11.4688 45.9562C11.9704 45.9562 12.4514 45.7569 12.8061 45.4023C12.9335 45.275 13.0423 45.1303 13.1292 44.9726L27.1672 46.7619C27.2696 47.1707 27.5058 47.5336 27.8381 47.7929C28.1703 48.0522 28.5797 48.193 29.0012 48.193C29.4227 48.193 29.8321 48.0522 30.1644 47.7929C30.4966 47.5336 30.7328 47.1707 30.8352 46.7619L44.8732 44.9726C44.9601 45.1303 45.0689 45.275 45.1964 45.4023C45.551 45.7569 46.0321 45.9562 46.5336 45.9562C47.0352 45.9562 47.5162 45.7569 47.8709 45.4023C48.2256 45.0476 48.4248 44.5666 48.4248 44.065C48.4248 43.5634 48.2256 43.0824 47.8709 42.7277C47.7598 42.618 47.6357 42.5221 47.5014 42.4424L49.5004 30.4456C49.9251 30.3564 50.3063 30.1238 50.5798 29.7869C50.8534 29.45 51.0027 29.0292 51.0027 28.5952ZM27.3416 45.3945L13.3011 43.6052C13.276 43.5028 13.242 43.4027 13.1997 43.3061L15.8837 40.6221C16.2498 40.7956 16.6499 40.8854 17.0551 40.8851H28.3137V44.5385C27.8997 44.7017 27.5558 45.0045 27.3416 45.3945ZM30.6608 11.7959L44.7013 13.5852C44.7264 13.6877 44.7604 13.7877 44.8027 13.8843L42.1187 16.5683C41.7526 16.3948 41.3525 16.305 40.9473 16.3053H29.6888V12.6519C30.1027 12.4887 30.4466 12.1859 30.6608 11.7959ZM47.351 27.9077H43.6975V19.0555C43.6987 18.48 43.5183 17.9188 43.1819 17.4518L45.7773 14.8563C45.8963 14.9091 46.0204 14.9491 46.1478 14.9758L48.1468 26.9717C47.7853 27.1871 47.5055 27.5163 47.351 27.9077ZM28.3137 12.6519V16.3053H17.0551C16.6499 16.305 16.2498 16.3948 15.8837 16.5683L13.1997 13.8843C13.242 13.7877 13.276 13.6877 13.3011 13.5852L27.3416 11.7959C27.5558 12.1859 27.8997 12.4887 28.3137 12.6519ZM12.2277 14.8563L14.8206 17.4518C14.4842 17.9188 14.3037 18.48 14.3049 19.0555V27.9077H10.6515C10.4976 27.5167 10.2187 27.1876 9.8582 26.9717L11.8572 14.9758C11.9846 14.9491 12.1087 14.9091 12.2277 14.8563ZM10.6515 29.2828H14.3049V31.7321C14.3049 31.9145 14.3773 32.0894 14.5063 32.2183C14.6352 32.3472 14.8101 32.4197 14.9925 32.4197C15.1748 32.4197 15.3497 32.3472 15.4786 32.2183C15.6076 32.0894 15.68 31.9145 15.68 31.7321V22.6651H39.3144C39.4967 22.6651 39.6716 22.5927 39.8006 22.4637C39.9295 22.3348 40.0019 22.1599 40.0019 21.9776C40.0019 21.7952 39.9295 21.6204 39.8006 21.4914C39.6716 21.3625 39.4967 21.29 39.3144 21.29H15.68V19.0555C15.6804 18.8589 15.7229 18.6646 15.8047 18.4858C15.8866 18.307 16.0058 18.1478 16.1544 18.019C16.1909 17.9953 16.2252 17.9683 16.2567 17.9382C16.4892 17.7707 16.7685 17.6805 17.0551 17.6804H40.9473C41.2339 17.6805 41.5132 17.7707 41.7457 17.9382C41.7773 17.9683 41.8115 17.9953 41.848 18.019C41.9966 18.1478 42.1158 18.307 42.1977 18.4858C42.2795 18.6646 42.322 18.8589 42.3224 19.0555V38.1349C42.322 38.3316 42.2795 38.5258 42.1977 38.7046C42.1158 38.8834 41.9966 39.0426 41.848 39.1714C41.8115 39.1951 41.7773 39.2221 41.7457 39.2522C41.5132 39.4197 41.2339 39.5099 40.9473 39.51H17.0551C16.7685 39.5099 16.4892 39.4197 16.2567 39.2522C16.2252 39.2221 16.1909 39.1951 16.1544 39.1714C16.0058 39.0426 15.8866 38.8834 15.8047 38.7046C15.7229 38.5258 15.6804 38.3316 15.68 38.1349V36.9317C15.68 36.7494 15.6076 36.5745 15.4786 36.4455C15.3497 36.3166 15.1748 36.2442 14.9925 36.2442C14.8101 36.2442 14.6352 36.3166 14.5063 36.4455C14.3773 36.5745 14.3049 36.7494 14.3049 36.9317V38.1349C14.3037 38.7104 14.4842 39.2717 14.8206 39.7386L12.2251 42.3341C12.1062 42.2813 11.982 42.2413 11.8547 42.2146L9.8582 30.2187C10.2187 30.0028 10.4976 29.6738 10.6515 29.2828ZM29.6888 44.5385V40.8851H40.9473C41.3525 40.8854 41.7526 40.7956 42.1187 40.6221L44.8027 43.3061C44.7604 43.4027 44.7264 43.5028 44.7013 43.6052L30.6608 45.3945C30.4466 45.0045 30.1027 44.7017 29.6888 44.5385ZM45.7748 42.3341L43.1819 39.7386C43.5183 39.2717 43.6987 38.7104 43.6975 38.1349V29.2828H47.351C47.5048 29.6738 47.7837 30.0028 48.1442 30.2187L46.1452 42.2146C46.0178 42.2413 45.8937 42.2813 45.7748 42.3341ZM49.1119 29.1109C49.0099 29.1109 48.9102 29.0806 48.8254 29.024C48.7407 28.9673 48.6746 28.8868 48.6355 28.7925C48.5965 28.6983 48.5863 28.5946 48.6062 28.4946C48.6261 28.3946 48.6752 28.3027 48.7473 28.2306C48.8194 28.1585 48.9113 28.1094 49.0113 28.0895C49.1114 28.0696 49.215 28.0798 49.3093 28.1188C49.4035 28.1578 49.484 28.2239 49.5407 28.3087C49.5974 28.3935 49.6276 28.4932 49.6276 28.5952C49.6276 28.732 49.5733 28.8631 49.4766 28.9598C49.3799 29.0565 49.2487 29.1109 49.1119 29.1109ZM46.1692 12.761C46.2413 12.6888 46.3332 12.6397 46.4333 12.6197C46.5333 12.5998 46.637 12.6099 46.7313 12.649C46.8255 12.688 46.9061 12.7541 46.9628 12.8389C47.0195 12.9237 47.0498 13.0234 47.0498 13.1254C47.0498 13.2274 47.0195 13.3272 46.9628 13.412C46.9061 13.4968 46.8255 13.5629 46.7313 13.6019C46.637 13.6409 46.5333 13.6511 46.4333 13.6311C46.3332 13.6112 46.2413 13.562 46.1692 13.4898C46.0727 13.3931 46.0184 13.2621 46.0184 13.1254C46.0184 12.9888 46.0727 12.8577 46.1692 12.761ZM29.0012 10.3752C29.1032 10.3752 29.2029 10.4055 29.2877 10.4621C29.3725 10.5188 29.4386 10.5993 29.4776 10.6936C29.5166 10.7878 29.5269 10.8915 29.507 10.9915C29.4871 11.0915 29.438 11.1834 29.3658 11.2555C29.2937 11.3276 29.2018 11.3768 29.1018 11.3966C29.0018 11.4165 28.8981 11.4063 28.8039 11.3673C28.7096 11.3283 28.6291 11.2622 28.5725 11.1774C28.5158 11.0926 28.4855 10.9929 28.4855 10.8909C28.4855 10.7541 28.5399 10.623 28.6366 10.5263C28.7333 10.4296 28.8644 10.3752 29.0012 10.3752ZM11.1044 12.761C11.2013 12.6656 11.332 12.6123 11.468 12.6127C11.6041 12.6132 11.7344 12.6674 11.8307 12.7635C11.9269 12.8597 11.9813 12.99 11.9819 13.126C11.9825 13.262 11.9294 13.3928 11.834 13.4898C11.7868 13.5405 11.7299 13.5811 11.6666 13.6093C11.6034 13.6375 11.5351 13.6526 11.4659 13.6539C11.3966 13.6551 11.3279 13.6424 11.2637 13.6164C11.1994 13.5905 11.1411 13.5519 11.0921 13.5029C11.0432 13.4539 11.0046 13.3956 10.9786 13.3314C10.9527 13.2672 10.94 13.1984 10.9412 13.1292C10.9424 13.06 10.9576 12.9917 10.9858 12.9284C11.0139 12.8652 11.0546 12.8082 11.1052 12.761H11.1044ZM8.89048 28.0796C8.99247 28.0796 9.09216 28.1098 9.17696 28.1665C9.26176 28.2231 9.32786 28.3037 9.36689 28.3979C9.40592 28.4921 9.41613 28.5958 9.39623 28.6958C9.37633 28.7958 9.32722 28.8877 9.25511 28.9598C9.18299 29.032 9.09111 29.0811 8.99108 29.101C8.89105 29.1209 8.78737 29.1106 8.69315 29.0716C8.59892 29.0326 8.51839 28.9665 8.46172 28.8817C8.40506 28.7969 8.37482 28.6972 8.37482 28.5952C8.37482 28.4585 8.42915 28.3273 8.52585 28.2306C8.62256 28.1339 8.75372 28.0796 8.89048 28.0796ZM11.8332 44.4294C11.7611 44.5016 11.6692 44.5508 11.5692 44.5707C11.4691 44.5907 11.3654 44.5805 11.2711 44.5415C11.1769 44.5025 11.0963 44.4364 11.0396 44.3516C10.9829 44.2667 10.9527 44.167 10.9527 44.065C10.9527 43.963 10.9829 43.8633 11.0396 43.7785C11.0963 43.6936 11.1769 43.6275 11.2711 43.5885C11.3654 43.5495 11.4691 43.5393 11.5692 43.5593C11.6692 43.5792 11.7611 43.6284 11.8332 43.7006C11.9297 43.7973 11.984 43.9283 11.984 44.065C11.984 44.2016 11.9297 44.3327 11.8332 44.4294ZM29.0012 46.8152C28.8992 46.8152 28.7995 46.7849 28.7147 46.7283C28.6299 46.6716 28.5638 46.5911 28.5248 46.4969C28.4858 46.4026 28.4756 46.299 28.4955 46.1989C28.5154 46.0989 28.5645 46.007 28.6366 45.9349C28.7087 45.8628 28.8006 45.8137 28.9006 45.7938C29.0006 45.7739 29.1043 45.7841 29.1985 45.8231C29.2928 45.8621 29.3733 45.9282 29.43 46.013C29.4866 46.0978 29.5169 46.1975 29.5169 46.2995C29.5169 46.4363 29.4625 46.5674 29.3658 46.6642C29.2691 46.7609 29.138 46.8152 29.0012 46.8152ZM46.898 44.4294C46.8011 44.5249 46.6704 44.5782 46.5344 44.5777C46.3983 44.5772 46.268 44.523 46.1718 44.4269C46.0755 44.3307 46.0211 44.2005 46.0205 44.0644C46.0199 43.9284 46.073 43.7976 46.1684 43.7006C46.2156 43.6499 46.2725 43.6093 46.3358 43.5811C46.399 43.5529 46.4673 43.5378 46.5365 43.5366C46.6058 43.5353 46.6746 43.5481 46.7388 43.574C46.803 43.5999 46.8613 43.6385 46.9103 43.6875C46.9592 43.7365 46.9978 43.7948 47.0238 43.859C47.0497 43.9232 47.0624 43.992 47.0612 44.0612C47.06 44.1305 47.0448 44.1988 47.0167 44.262C46.9885 44.3253 46.9478 44.3822 46.8972 44.4294H46.898Z" fill="black"/>
</svg>
