<svg width="58" height="58" viewBox="0 0 58 58" fill="none" xmlns="http://www.w3.org/2000/svg">
<path d="M28.0999 9.40005C27.2999 8.00005 26.1999 7.30005 24.9999 7.30005C23.7999 7.30005 22.6999 8.00005 21.8999 9.40005L6.69987 35.4001C5.89987 36.7001 5.79987 38.1 6.39987 39.1C6.99987 40.1 8.19987 40.7001 9.79987 40.7001H40.2999C41.8999 40.7001 43.0999 40.1 43.6999 39.1C44.2999 38.1 44.1999 36.7001 43.3999 35.4001L28.0999 9.40005ZM41.8999 38.1C41.6999 38.5 41.0999 38.7001 40.2999 38.7001H9.79987C8.99987 38.7001 8.39987 38.5 8.19987 38.1C7.99987 37.7 8.09987 37.1001 8.49987 36.4001L23.6999 10.4C23.9999 9.70005 24.4999 9.30005 24.9999 9.30005C25.4999 9.30005 25.9999 9.70005 26.3999 10.4L41.5999 36.4001C41.9999 37.1001 42.0999 37.7 41.8999 38.1Z" fill="black"/>
<path d="M28.4998 26.0999H23.0998L25.8998 20.4999C26.0998 19.9999 25.8998 19.3999 25.3998 19.1999C24.8998 18.9999 24.2998 19.1999 24.0998 19.6999L20.5998 26.7999C20.3998 27.0999 20.4998 27.4999 20.5998 27.7999C20.7998 28.0999 21.0998 28.2999 21.4998 28.2999H26.7998L24.0998 33.0999C23.7998 33.5999 23.9998 34.1999 24.4998 34.4999C24.6998 34.5999 24.7998 34.5999 24.9998 34.5999C25.3998 34.5999 25.6998 34.3999 25.8998 34.0999L29.3998 27.7999C29.5998 27.4999 29.5998 27.0999 29.3998 26.7999C29.1998 26.2999 28.8998 26.0999 28.4998 26.0999Z" fill="black"/>
</svg>
