<svg width="58" height="58" viewBox="0 0 58 58" fill="none" xmlns="http://www.w3.org/2000/svg">
<path d="M38.905 42.2737C40.7722 42.2737 42.2915 40.7544 42.2915 38.8872C42.2915 37.02 40.7722 35.5007 38.905 35.5007C37.0379 35.5007 35.5186 37.02 35.5186 38.8872C35.5186 40.7544 37.0379 42.2737 38.905 42.2737ZM38.905 36.6424C40.1426 36.6424 41.1498 37.6496 41.1498 38.8872C41.1498 40.1248 40.1426 41.132 38.905 41.132C37.6674 41.132 36.6603 40.1248 36.6603 38.8872C36.6603 37.6496 37.6674 36.6424 38.905 36.6424Z" fill="black"/>
<path d="M30.8755 30.7391C30.8755 28.872 29.3562 27.353 27.489 27.353C25.6218 27.353 24.1025 28.872 24.1025 30.7391C24.1025 32.6063 25.6218 34.1256 27.489 34.1256C29.3562 34.1256 30.8755 32.6063 30.8755 30.7391ZM25.2442 30.7391C25.2442 29.5015 26.2514 28.4947 27.489 28.4947C28.7266 28.4947 29.7338 29.5015 29.7338 30.7391C29.7338 31.9767 28.7266 32.9839 27.489 32.9839C26.2514 32.9839 25.2442 31.9767 25.2442 30.7391Z" fill="black"/>
<path d="M29.766 43.142C31.6332 43.142 33.1525 41.6234 33.1525 39.7562C33.1525 37.8891 31.6332 36.3698 29.766 36.3698C27.8988 36.3698 26.3799 37.8891 26.3799 39.7562C26.3799 41.6234 27.8988 43.142 29.766 43.142ZM29.766 37.5115C31.0036 37.5115 32.0108 38.5186 32.0108 39.7562C32.0108 40.9938 31.0036 42.0003 29.766 42.0003C28.5284 42.0003 27.5216 40.9938 27.5216 39.7562C27.5216 38.5186 28.5284 37.5115 29.766 37.5115Z" fill="black"/>
<path d="M19.2699 13.9331C18.6853 10.3693 13.8925 8.04244 13.6888 7.94507C13.5037 7.85699 13.2844 7.87445 13.1165 7.99189C12.9481 8.10896 12.8556 8.3078 12.8741 8.51258C12.9414 9.24361 12.9161 11.3583 12.0048 12.3506C11.0441 13.3964 10.6335 14.4902 10.7851 15.6007C10.9901 17.1066 12.1786 18.162 12.7385 18.5839L12.1104 25.9029C12.0833 26.2169 12.3159 26.4934 12.6303 26.5202C12.9369 26.5492 13.2209 26.3143 13.2476 26.0002L13.859 18.8787H16.2246L17.0299 28.2119L16.2383 47.8195C16.2123 48.4639 15.6868 48.9686 15.0416 48.9686C14.3964 48.9686 13.8709 48.4639 13.8449 47.8195L13.0771 28.8058H15.317C15.6322 28.8058 15.8879 28.5501 15.8879 28.235C15.8879 27.9198 15.6322 27.6641 15.317 27.6641H12.4828C12.3274 27.6641 12.1788 27.7273 12.071 27.8395C11.9636 27.9518 11.906 28.1027 11.9123 28.258L12.7039 47.8656C12.7548 49.124 13.7817 50.1103 15.0416 50.1103C16.3015 50.1103 17.3284 49.124 17.3793 47.8656L18.169 28.1863L17.3521 18.6697C18.89 17.1559 19.5377 15.5628 19.2699 13.9331ZM16.6732 17.7369H13.5119C13.141 17.4686 12.071 16.6027 11.9157 15.4413C11.8142 14.685 12.1271 13.9049 12.8455 13.1229C13.7754 12.1109 13.9947 10.4883 14.0307 9.43427C15.3452 10.2185 17.7866 11.9444 18.1434 14.1178C18.3408 15.3205 17.8465 16.5369 16.6732 17.7369Z" fill="black"/>
<path d="M46.2186 33.8856C45.2909 32.1522 43.7612 30.9674 42.282 29.8212C41.1106 28.9133 40.0046 28.0559 39.1787 26.9521C38.4191 25.9356 37.9753 24.7017 37.8951 23.3842C37.8757 23.0691 37.6007 22.8331 37.29 22.8494C36.9756 22.8688 36.7363 23.1393 36.7548 23.4541C36.8492 24.9942 37.371 26.4403 38.2645 27.6356C39.1825 28.8639 40.403 29.8093 41.5833 30.7236C43.0313 31.846 44.399 32.9059 45.2121 34.4237C45.8885 35.6874 46.0364 37.1829 45.641 38.7483C44.4859 43.327 39.9012 46.3143 35.8703 47.2435C33.4501 47.8009 30.9913 47.5505 28.9502 46.5396C28.6454 46.3879 28.3288 46.2021 27.9545 45.9546C27.6925 45.7814 27.3372 45.8528 27.1637 46.1159C26.9897 46.379 27.0618 46.7328 27.325 46.9075C27.7393 47.181 28.0946 47.3892 28.4432 47.5623C29.9313 48.2997 31.6112 48.6751 33.3446 48.6751C34.264 48.6751 35.1984 48.5695 36.126 48.3554C40.4959 47.349 45.4753 44.074 46.7485 39.0278C47.2146 37.1821 47.031 35.4042 46.2186 33.8856Z" fill="black"/>
<path d="M24.2278 41.795C20.9673 35.8367 21.1063 27.1553 24.5824 19.6777C25.8159 17.0241 28.025 13.6083 31.5449 12.4045C33.2203 11.8307 35.0295 11.9329 36.3838 12.6792C37.3478 13.2099 38.0436 14.039 38.2926 14.9544C38.6553 16.2827 38.1565 17.5946 37.6288 18.9838C37.382 19.635 37.1256 20.3084 36.965 20.987C36.8922 21.294 37.0817 21.6017 37.3887 21.6742C37.6905 21.7489 38.0027 21.5579 38.0755 21.2509C38.2197 20.6444 38.4509 20.0345 38.6962 19.3889C39.2655 17.8904 39.8542 16.3407 39.3941 14.6545C39.0641 13.4425 38.1677 12.3577 36.9338 11.6787C35.2785 10.7678 33.1809 10.6388 31.1747 11.3245C27.2746 12.6583 24.8741 16.3418 23.5469 19.1964C19.9233 26.9918 19.7974 36.0775 23.2262 42.3436C23.8484 43.4801 24.6028 44.5021 25.4691 45.3814C25.5806 45.4952 25.7282 45.5517 25.8757 45.5517C26.0203 45.5517 26.1652 45.4967 26.2763 45.3874C26.5008 45.1659 26.5038 44.8046 26.2823 44.5802C25.4903 43.7759 24.799 42.8394 24.2278 41.795Z" fill="black"/>
</svg>
