<svg width="58" height="58" viewBox="0 0 58 58" fill="none" xmlns="http://www.w3.org/2000/svg">
<path d="M28.4364 52C31.6774 52 35.9719 50.9579 39.2123 47.6667C43.1144 43.7035 47.0338 39.7449 50.926 35.7687C51.5207 35.1608 51.9741 34.2563 52.0001 33.1734C52.0002 33.169 52.0002 33.1647 52.0001 33.1602C52.0002 33.1508 52.0002 33.1393 52.0001 33.1289C52.0001 31.0591 50.2988 29.3505 48.2282 29.3505C46.3377 29.3505 47.4699 29.3637 46.3525 29.3505C45.2217 29.3363 44.3588 29.9739 43.7728 30.5873C41.9735 32.4704 39.0797 35.28 39.0797 35.28C38.9851 35.3648 38.9085 35.4679 38.8547 35.583C38.8008 35.698 38.7707 35.8226 38.7662 35.9496C38.7617 36.0765 38.7829 36.2033 38.8285 36.3219C38.874 36.4405 38.9431 36.5486 39.0314 36.6399C39.1198 36.7311 39.2257 36.8034 39.3427 36.8528C39.4598 36.9021 39.5855 36.9274 39.7125 36.927C39.8395 36.9265 39.9651 36.9004 40.0818 36.8502C40.1985 36.8001 40.3038 36.7269 40.3915 36.635C40.3915 36.635 43.2869 33.8261 45.1363 31.8905C45.5478 31.4598 45.9112 31.2329 46.3304 31.238C47.4478 31.2512 46.3464 31.238 48.2282 31.238C49.2563 31.238 50.1133 32.0982 50.1133 33.1289C50.1001 33.6918 49.8377 34.1806 49.577 34.4468C45.6902 38.4178 41.7718 42.3754 37.8671 46.3412C35.0769 49.1751 31.2669 50.1125 28.4364 50.1125H7.65881C7.53365 50.1105 7.40936 50.1335 7.29315 50.18C7.17694 50.2266 7.07114 50.2956 6.98193 50.3835C6.89271 50.4713 6.82183 50.576 6.77347 50.6915C6.7251 50.807 6.7002 50.9311 6.7002 51.0563C6.7002 51.1815 6.7251 51.3055 6.77347 51.421C6.82183 51.5365 6.89271 51.6412 6.98193 51.7291C7.07114 51.8169 7.17694 51.886 7.29315 51.9325C7.40936 51.979 7.53365 52.002 7.65881 52H28.4364Z" fill="black"/>
<path d="M33.1286 44.4498C35.2012 44.4498 36.8998 42.7482 36.8998 40.675C36.8998 38.6019 35.2012 36.9 33.1286 36.9C33.0034 36.898 32.8791 36.921 32.7628 36.9675C32.6466 37.0141 32.5407 37.0832 32.4515 37.171C32.3623 37.2588 32.2914 37.3635 32.243 37.479C32.1947 37.5945 32.1697 37.7186 32.1697 37.8438C32.1697 37.969 32.1947 38.093 32.243 38.2085C32.2914 38.324 32.3623 38.4285 32.4515 38.5163C32.5407 38.6042 32.6466 38.6735 32.7628 38.72C32.8791 38.7665 33.0034 38.7895 33.1286 38.7875C34.1801 38.7875 35.0123 39.6209 35.0123 40.675C35.0123 41.7293 34.1801 42.5623 33.1286 42.5623H22.7574C22.6325 42.5607 22.5084 42.584 22.3926 42.6307C22.2767 42.6775 22.1713 42.7469 22.0824 42.8346C21.9935 42.9224 21.9229 43.027 21.8747 43.1422C21.8266 43.2575 21.8018 43.3811 21.8018 43.5061C21.8018 43.631 21.8266 43.7548 21.8747 43.8701C21.9229 43.9854 21.9935 44.0899 22.0824 44.1777C22.1713 44.2655 22.2767 44.3346 22.3926 44.3814C22.5084 44.4281 22.6325 44.4514 22.7574 44.4498H33.1286Z" fill="black"/>
<path d="M7.65556 40.6751C10.1715 40.6845 11.7466 39.3926 13.1849 38.5074C14.6826 37.5857 15.874 36.9003 17.7338 36.9003C19.4674 36.9003 20.7208 37.183 22.0669 37.595C24.8335 38.4421 27.9773 38.7894 33.1125 38.7894C33.2377 38.7914 33.3621 38.7687 33.4783 38.7222C33.5945 38.6756 33.7004 38.6063 33.7896 38.5185C33.8789 38.4306 33.9497 38.3259 33.9981 38.2104C34.0465 38.0949 34.0714 37.9711 34.0714 37.8459C34.0714 37.7207 34.0465 37.5967 33.9981 37.4812C33.9497 37.3657 33.8789 37.261 33.7896 37.1731C33.7004 37.0853 33.5945 37.0162 33.4783 36.9697C33.3621 36.9231 33.2377 36.9002 33.1125 36.9022C28.0623 36.9022 25.1438 36.5616 22.6197 35.7888C21.1839 35.3491 19.6787 35.0128 17.7338 35.0128C15.387 35.0128 13.7271 35.9568 12.197 36.8985C10.6077 37.8764 9.54281 38.795 7.66293 38.7876C7.5381 38.7855 7.41412 38.8084 7.29814 38.8546C7.18215 38.9008 7.07648 38.9696 6.98726 39.0569C6.89804 39.1443 6.82702 39.2484 6.77833 39.3634C6.72965 39.4784 6.70425 39.6017 6.70363 39.7265C6.703 39.8514 6.72718 39.9751 6.77471 40.0905C6.82224 40.206 6.89217 40.3111 6.98052 40.3993C7.06886 40.4875 7.17387 40.5572 7.28938 40.6046C7.40489 40.652 7.52864 40.6759 7.65348 40.6751H7.65556Z" fill="black"/>
<path d="M28.3915 21.7994C28.1415 21.8033 27.9033 21.9064 27.7291 22.0858C27.555 22.2652 27.459 22.5063 27.4625 22.7563V30.2796C27.4607 30.4047 27.4838 30.5287 27.5305 30.6448C27.5771 30.7609 27.6463 30.8665 27.7341 30.9556C27.822 31.0447 27.9266 31.1154 28.042 31.1637C28.1574 31.2119 28.2812 31.2369 28.4062 31.2369C28.5313 31.2369 28.6551 31.2119 28.7705 31.1637C28.8859 31.1154 28.9905 31.0447 29.0783 30.9556C29.1662 30.8665 29.2354 30.7609 29.282 30.6448C29.3287 30.5287 29.3518 30.4047 29.35 30.2796V22.7563C29.3517 22.63 29.3281 22.5047 29.2805 22.3877C29.233 22.2707 29.1624 22.1645 29.073 22.0752C28.9837 21.986 28.8773 21.9157 28.7602 21.8683C28.6431 21.821 28.5178 21.7975 28.3915 21.7994Z" fill="black"/>
<path d="M37.8378 12.3621C37.6896 12.3632 37.5437 12.3992 37.412 12.4671C36.2442 13.0508 33.9303 14.6971 31.7284 17.0205C29.5265 19.344 27.4625 22.3144 27.4625 25.5612C27.4607 25.6863 27.4838 25.8104 27.5305 25.9264C27.5771 26.0425 27.6463 26.1482 27.7341 26.2372C27.822 26.3263 27.9266 26.397 28.042 26.4453C28.1574 26.4936 28.2813 26.5183 28.4064 26.5183C28.5314 26.5183 28.6552 26.4936 28.7706 26.4453C28.886 26.397 28.9907 26.3263 29.0785 26.2372C29.1663 26.1482 29.2356 26.0425 29.2823 25.9264C29.3289 25.8104 29.352 25.6863 29.3502 25.5612C29.3502 23.1537 31.058 20.471 33.0981 18.3184C35.1382 16.1656 37.5369 14.5145 38.2545 14.1558C38.4472 14.0625 38.6026 13.9064 38.6949 13.7132C38.7873 13.52 38.8112 13.3011 38.7627 13.0925C38.7143 12.8839 38.5963 12.698 38.4282 12.5653C38.2602 12.4326 38.052 12.3608 37.8378 12.3621Z" fill="black"/>
<path d="M13.3154 6.69987C13.1899 6.69865 13.0654 6.72246 12.9493 6.76992C12.8331 6.81738 12.7275 6.88739 12.6388 6.97613C12.55 7.06487 12.4799 7.17055 12.4325 7.28672C12.385 7.4029 12.3611 7.52735 12.3623 7.65284C12.3623 7.65284 12.383 9.93462 12.7181 12.5396C13.0532 15.1445 13.5425 18.0699 15.1679 19.6953C17.9738 22.5013 22.552 22.5012 25.3579 19.6953C28.1638 16.8894 28.1638 12.3114 25.3579 9.50532C23.7325 7.88018 20.807 7.39075 18.202 7.05562C15.5971 6.7205 13.3154 6.69987 13.3154 6.69987ZM14.3255 8.66295C15.0058 8.68088 16.0305 8.67805 17.9606 8.92654C20.4368 9.24505 23.2035 10.0203 24.0233 10.8401C26.1079 12.9246 26.1079 16.2762 24.0233 18.3608C21.9387 20.4453 18.5889 20.4454 16.5043 18.3608C15.6845 17.541 14.9095 14.7743 14.591 12.2981C14.3427 10.368 14.3435 9.34311 14.3255 8.66295Z" fill="black"/>
<path d="M43.4975 6.69987C43.4975 6.69987 41.2158 6.72046 38.6109 7.05539C36.0059 7.39061 33.0805 7.88018 31.455 9.50532C28.6491 12.3114 28.6491 16.8894 31.455 19.6953C34.2609 22.5012 38.8391 22.5013 41.645 19.6953C43.2704 18.0699 43.7597 15.1445 44.0948 12.5396C44.4299 9.93462 44.4506 7.65284 44.4506 7.65284C44.4518 7.52735 44.428 7.4029 44.3805 7.28672C44.3331 7.17055 44.2629 7.06487 44.1741 6.97613C44.0854 6.88739 43.9799 6.81738 43.8637 6.76992C43.7475 6.72246 43.623 6.69865 43.4975 6.69987ZM42.4874 8.66295C42.4695 9.34311 42.4703 10.368 42.222 12.2981C41.9034 14.7743 41.1284 17.541 40.3086 18.3608C38.224 20.4454 34.8742 20.4453 32.7896 18.3608C30.705 16.2762 30.705 12.9244 32.7896 10.8398C33.6094 10.0201 36.3761 9.24505 38.8523 8.92654C40.7824 8.67824 41.8072 8.68088 42.4874 8.66295Z" fill="black"/>
<path d="M18.9469 12.3623C18.735 12.3671 18.5309 12.4431 18.3675 12.5779C18.2041 12.7128 18.0908 12.8987 18.0459 13.1058C18.0009 13.3129 18.027 13.5291 18.1199 13.7196C18.2128 13.9101 18.367 14.0639 18.5579 14.156C19.2754 14.5146 21.674 16.1656 23.714 18.3183C25.754 20.471 27.4617 23.1538 27.4617 25.5612C27.46 25.6863 27.4831 25.8104 27.5297 25.9264C27.5764 26.0424 27.6457 26.1482 27.7335 26.2372C27.8213 26.3263 27.9259 26.3968 28.0413 26.445C28.1567 26.4933 28.2805 26.5183 28.4056 26.5183C28.5306 26.5183 28.6545 26.4933 28.7698 26.445C28.8852 26.3968 28.9899 26.3263 29.0777 26.2372C29.1655 26.1482 29.2348 26.0424 29.2814 25.9264C29.3281 25.8104 29.3512 25.6863 29.3494 25.5612C29.3494 22.3145 27.2855 19.3439 25.0837 17.0204C22.8819 14.6971 20.5681 13.0511 19.4004 12.4673C19.2603 12.395 19.1044 12.3589 18.9469 12.3623Z" fill="black"/>
</svg>
