<svg width="58" height="58" viewBox="0 0 58 58" fill="none" xmlns="http://www.w3.org/2000/svg">
<path d="M49.9021 7.94995H7.91517C7.00725 7.95134 6.13691 8.31263 5.49491 8.95463C4.85291 9.59662 4.49162 10.467 4.49023 11.3749V46.575C4.49162 47.4829 4.85291 48.3533 5.49491 48.9953C6.13691 49.6373 7.00725 49.9986 7.91517 50H49.9021C50.8096 49.9986 51.6794 49.6371 52.3205 48.995C52.9617 48.3528 53.3218 47.4825 53.3218 46.575V11.3486C53.3149 10.4457 52.9517 9.58212 52.3113 8.94564C51.6709 8.30915 50.805 7.95131 49.9021 7.94995ZM51.7407 46.575C51.7407 47.0636 51.5473 47.5323 51.2028 47.8788C50.8583 48.2253 50.3907 48.4213 49.9021 48.4241H7.91517C7.4252 48.4227 6.95569 48.2274 6.60923 47.881C6.26277 47.5345 6.06751 47.065 6.06612 46.575V19.9635H51.7669L51.7407 46.575ZM51.7407 18.3876H6.06612V11.3486C6.07437 10.8632 6.27265 10.4004 6.61838 10.0596C6.96411 9.71879 7.4297 9.52715 7.91517 9.52584H49.9021C50.3916 9.52723 50.8606 9.72266 51.2062 10.0693C51.5518 10.4159 51.7459 10.8854 51.7459 11.3749L51.7407 18.3876ZM34.4059 44.3583C34.4059 44.5672 34.3229 44.7677 34.1751 44.9154C34.0273 45.0632 33.8269 45.1462 33.6179 45.1462H24.1626C23.9536 45.1462 23.7532 45.0632 23.6054 44.9154C23.4577 44.7677 23.3747 44.5672 23.3747 44.3583C23.3747 44.1493 23.4577 43.9489 23.6054 43.8011C23.7532 43.6533 23.9536 43.5703 24.1626 43.5703H33.6179C33.7223 43.5689 33.8259 43.5883 33.9227 43.6273C34.0195 43.6662 34.1076 43.724 34.1819 43.7974C34.2562 43.8707 34.3152 43.958 34.3554 44.0543C34.3957 44.1506 34.4164 44.2539 34.4164 44.3583H34.4059ZM11.235 11.1017C10.6717 11.1007 10.1207 11.2668 9.65185 11.579C9.18295 11.8912 8.81721 12.3355 8.60092 12.8557C8.38462 13.3758 8.32749 13.9484 8.43675 14.5011C8.54601 15.0537 8.81676 15.5615 9.21472 15.9602C9.61269 16.3589 10.12 16.6306 10.6724 16.7409C11.2248 16.8511 11.7976 16.7951 12.3181 16.5797C12.8387 16.3644 13.2836 15.9995 13.5967 15.5312C13.9098 15.0628 14.0769 14.5122 14.0769 13.9488C14.0769 13.1946 13.7777 12.4713 13.2449 11.9375C12.7121 11.4037 11.9892 11.1031 11.235 11.1017ZM11.235 15.2148C10.9832 15.2158 10.7367 15.142 10.5268 15.0028C10.317 14.8635 10.1532 14.665 10.0564 14.4325C9.95949 14.2 9.93387 13.944 9.98275 13.6969C10.0316 13.4498 10.1528 13.2228 10.3309 13.0447C10.509 12.8666 10.736 12.7454 10.9831 12.6966C11.2302 12.6477 11.4862 12.6733 11.7187 12.7702C11.9512 12.867 12.1497 13.0308 12.289 13.2406C12.4282 13.4505 12.502 13.697 12.501 13.9488C12.4942 14.281 12.3581 14.5974 12.1217 14.8309C11.8854 15.0643 11.5673 15.1964 11.235 15.199V15.2148ZM18.3843 11.1017C17.821 11.1007 17.27 11.2668 16.8011 11.579C16.3322 11.8912 15.9665 12.3355 15.7502 12.8557C15.5339 13.3758 15.4768 13.9484 15.586 14.5011C15.6953 15.0537 15.966 15.5615 16.364 15.9602C16.762 16.3589 17.2693 16.6306 17.8217 16.7409C18.3741 16.8511 18.9469 16.7951 19.4674 16.5797C19.988 16.3644 20.4329 15.9995 20.746 15.5312C21.0591 15.0628 21.2262 14.5122 21.2262 13.9488C21.2262 13.1946 20.9269 12.4713 20.3941 11.9375C19.8613 11.4037 19.1385 11.1031 18.3843 11.1017ZM18.3843 15.2148C18.1325 15.2158 17.886 15.142 17.6761 15.0028C17.4663 14.8635 17.3025 14.665 17.2056 14.4325C17.1088 14.2 17.0832 13.944 17.132 13.6969C17.1809 13.4498 17.3021 13.2228 17.4802 13.0447C17.6583 12.8666 17.8853 12.7454 18.1324 12.6966C18.3795 12.6477 18.6355 12.6733 18.868 12.7702C19.1005 12.867 19.299 13.0308 19.4382 13.2406C19.5775 13.4505 19.6513 13.697 19.6503 13.9488C19.6448 14.2814 19.5092 14.5986 19.2725 14.8323C19.0358 15.0661 18.717 15.1977 18.3843 15.199V15.2148ZM25.5336 11.1017C24.9692 11.0986 24.4166 11.2633 23.9459 11.575C23.4753 11.8866 23.108 12.3311 22.8905 12.852C22.6731 13.3729 22.6154 13.9466 22.7247 14.5004C22.8341 15.0541 23.1056 15.5629 23.5047 15.962C23.9038 16.3611 24.4126 16.6326 24.9663 16.742C25.5201 16.8513 26.0938 16.7936 26.6147 16.5762C27.1356 16.3587 27.5801 15.9914 27.8917 15.5208C28.2034 15.0501 28.3681 14.4975 28.365 13.9331C28.3608 13.1834 28.0612 12.4657 27.5311 11.9356C27.001 11.4055 26.2833 11.1059 25.5336 11.1017ZM25.5336 15.2148C25.282 15.2179 25.0351 15.1463 24.8242 15.009C24.6134 14.8717 24.448 14.6748 24.3491 14.4435C24.2501 14.2121 24.2221 13.9566 24.2685 13.7092C24.3149 13.4619 24.4337 13.2339 24.6098 13.0541C24.7858 12.8744 25.0113 12.7509 25.2576 12.6994C25.5039 12.6479 25.76 12.6706 25.9934 12.7647C26.2268 12.8589 26.4269 13.0201 26.5686 13.2281C26.7102 13.4361 26.787 13.6814 26.7891 13.9331C26.7877 14.2666 26.6553 14.5862 26.4205 14.8231C26.1856 15.0599 25.8671 15.1949 25.5336 15.199V15.2148ZM28.8903 40.9911C30.8903 40.9906 32.8411 40.3703 34.4742 39.2156L36.0133 45.5192C36.0501 45.6672 36.1294 45.8013 36.2414 45.9049C36.3534 46.0085 36.4932 46.0771 36.6436 46.1022C36.793 46.1308 36.9474 46.1146 37.0876 46.0557C37.2277 45.9969 37.3474 45.8979 37.4316 45.7713L39.1335 43.2446L42.3694 46.4805C42.5171 46.628 42.7174 46.7109 42.9262 46.7109C43.135 46.7109 43.3353 46.628 43.483 46.4805L46.2251 43.7227C46.3682 43.5747 46.4482 43.3769 46.4482 43.1711C46.4482 42.9653 46.3682 42.7675 46.2251 42.6195L42.9892 39.3837L45.5107 37.6817C45.6393 37.5971 45.74 37.4764 45.8004 37.3348C45.8607 37.1931 45.878 37.0368 45.8499 36.8854C45.8219 36.7341 45.7498 36.5943 45.6428 36.4837C45.5357 36.373 45.3984 36.2964 45.248 36.2634L38.0199 34.5825C38.4087 33.5279 38.6079 32.4129 38.6083 31.2889C38.6093 29.3691 38.0411 27.4922 36.9755 25.8954C35.91 24.2985 34.3948 23.0535 32.6217 22.3176C30.8486 21.5818 28.8971 21.3882 27.014 21.7613C25.1309 22.1344 23.4007 23.0575 22.0421 24.4138C20.6836 25.7702 19.7577 27.4989 19.3815 29.3814C19.0053 31.2639 19.1957 33.2157 19.9287 34.99C20.6617 36.7643 21.9043 38.2815 23.4994 39.3496C25.0945 40.4178 26.9705 40.989 28.8903 40.9911ZM43.1468 37.3666L41.3345 38.5853C41.2381 38.6505 41.1571 38.736 41.0973 38.8358C41.0374 38.9356 41 39.0473 40.9878 39.1631C40.9772 39.2787 40.9924 39.3953 41.0324 39.5043C41.0724 39.6133 41.1361 39.7121 41.219 39.7934L44.5704 43.1448L42.942 44.7732L39.5853 41.4219C39.5129 41.3477 39.4263 41.289 39.3306 41.2493C39.2349 41.2096 39.1321 41.1896 39.0285 41.1907H38.955C38.8392 41.2029 38.7275 41.2402 38.6277 41.3001C38.5279 41.36 38.4423 41.441 38.3771 41.5374L37.1374 43.4022L35.1938 35.5543L43.1468 37.3666ZM28.8903 23.1836C30.2085 23.1817 31.5074 23.5011 32.6745 24.1139C33.8417 24.7268 34.8419 25.6147 35.5889 26.701C36.3358 27.7872 36.8069 29.0391 36.9613 30.3482C37.1158 31.6574 36.9491 32.9845 36.4756 34.2148L34.3218 33.6895C34.1905 33.6586 34.0533 33.6619 33.9236 33.6992C33.7939 33.7364 33.6759 33.8064 33.581 33.9024C33.4861 33.9983 33.4174 34.1171 33.3816 34.2472C33.3457 34.3773 33.3439 34.5145 33.3763 34.6455L34.0802 37.5084C33.0803 38.356 31.8901 38.9492 30.6113 39.2373C29.3325 39.5254 28.0029 39.4998 26.7361 39.1628C25.4693 38.8258 24.3029 38.1873 23.3363 37.3018C22.3696 36.4164 21.6316 35.3102 21.1851 34.0778C20.7385 32.8453 20.5968 31.5231 20.7719 30.224C20.9471 28.9248 21.4339 27.6874 22.1908 26.6171C22.9478 25.5469 23.9524 24.6757 25.119 24.0778C26.2855 23.4799 27.5794 23.1731 28.8903 23.1836ZM30.4136 33.7368C30.4136 33.5372 30.3742 33.3396 30.2975 33.1554C30.2208 32.9711 30.1084 32.8039 29.9668 32.6633C29.8252 32.5227 29.6572 32.4114 29.4724 32.336C29.2877 32.2606 29.0898 32.2225 28.8903 32.2239C28.653 32.2254 28.4166 32.1972 28.1864 32.1399C27.5155 31.9849 26.9159 31.6095 26.4835 31.0736C26.0511 30.5377 25.8109 29.8724 25.8012 29.1839C25.7915 28.4954 26.013 27.8235 26.4301 27.2757C26.8473 26.7279 27.436 26.3358 28.1023 26.162V25.5421C28.1023 25.3332 28.1853 25.1327 28.3331 24.985C28.4809 24.8372 28.6813 24.7542 28.8903 24.7542C29.0992 24.7542 29.2997 24.8372 29.4474 24.985C29.5952 25.1327 29.6782 25.3332 29.6782 25.5421V26.162C30.3353 26.3366 30.9164 26.7231 31.3315 27.2616C31.7465 27.8001 31.9723 28.4605 31.9738 29.1404C31.9738 29.3494 31.8907 29.5498 31.743 29.6976C31.5952 29.8454 31.3948 29.9284 31.1858 29.9284C30.9768 29.9284 30.7764 29.8454 30.6287 29.6976C30.4809 29.5498 30.3979 29.3494 30.3979 29.1404C30.3989 28.8408 30.3109 28.5475 30.1451 28.298C29.9793 28.0484 29.743 27.8536 29.4664 27.7385C29.1897 27.6233 28.8851 27.5929 28.5912 27.6511C28.2972 27.7093 28.0272 27.8535 27.8153 28.0654C27.6034 28.2773 27.4592 28.5474 27.401 28.8413C27.3428 29.1353 27.3732 29.4399 27.4883 29.7165C27.6035 29.9932 27.7982 30.2294 28.0478 30.3952C28.2974 30.5611 28.5906 30.6491 28.8903 30.648H28.9586C29.1781 30.6517 29.3966 30.6799 29.6099 30.7321C30.2808 30.887 30.8804 31.2625 31.3128 31.7983C31.7452 32.3342 31.9854 32.9996 31.9951 33.6881C32.0048 34.3766 31.7833 35.0484 31.3662 35.5962C30.949 36.144 30.3602 36.5362 29.694 36.7099V37.0251C29.694 37.2341 29.611 37.4345 29.4632 37.5823C29.3154 37.7301 29.115 37.8131 28.906 37.8131C28.697 37.8131 28.4966 37.7301 28.3489 37.5823C28.2011 37.4345 28.1181 37.2341 28.1181 37.0251V36.7099C27.46 36.5363 26.8777 36.1502 26.4617 35.6116C26.0456 35.073 25.8191 34.4121 25.8173 33.7315C25.8153 33.5749 25.8601 33.4212 25.9459 33.2901C26.0317 33.1591 26.1546 33.0565 26.2989 32.9957C26.4432 32.9348 26.6024 32.9183 26.7562 32.9483C26.9099 32.9783 27.0512 33.0535 27.162 33.1642C27.2364 33.2364 27.2953 33.323 27.335 33.4188C27.3748 33.5145 27.3946 33.6174 27.3932 33.721C27.389 33.921 27.4245 34.1198 27.4977 34.306C27.5709 34.4922 27.6802 34.662 27.8194 34.8056C27.9587 34.9492 28.125 35.0638 28.3088 35.1427C28.4926 35.2217 28.6902 35.2633 28.8903 35.2654C29.0914 35.2675 29.2908 35.2294 29.477 35.1532C29.6631 35.0771 29.8321 34.9645 29.974 34.8221C30.116 34.6796 30.228 34.5102 30.3035 34.3238C30.379 34.1374 30.4164 33.9378 30.4136 33.7368Z" fill="black"/>
</svg>
