<svg width="58" height="58" viewBox="0 0 58 58" fill="none" xmlns="http://www.w3.org/2000/svg">
<path d="M48.2394 31.3714C46.3526 29.4168 43.9196 28.1241 41.2839 27.6759V8.28609C41.2839 8.20761 41.269 8.12988 41.24 8.05736C41.211 7.98483 41.1685 7.91892 41.1148 7.8634C41.0612 7.80788 40.9975 7.76383 40.9273 7.73378C40.8572 7.70373 40.782 7.68827 40.7061 7.68827H37.7135V4.59616C37.7131 4.43789 37.6519 4.28626 37.5435 4.17451C37.4351 4.06276 37.2883 4 37.1352 4H11.5432C11.4673 3.99996 11.3922 4.01538 11.3221 4.04536C11.2519 4.07535 11.1882 4.11933 11.1345 4.17478L6.16961 9.30585C6.11583 9.36138 6.07317 9.42733 6.04407 9.49991C6.01497 9.5725 5.99999 9.65031 6 9.72889V43.9447C6 44.1033 6.06093 44.2553 6.16938 44.3674C6.27782 44.4795 6.42491 44.5425 6.57828 44.5425H9.57038V47.6357C9.57038 47.7145 9.58543 47.7925 9.61466 47.8652C9.64389 47.9379 9.68673 48.0039 9.74071 48.0595C9.79469 48.115 9.85876 48.159 9.92923 48.1889C9.99971 48.2188 10.0752 48.2339 10.1514 48.2336H28.6036C29.6111 49.7551 30.9147 51.0426 32.431 52.0136C33.9472 52.9847 35.6428 53.6179 37.4094 53.8728C39.1759 54.1277 40.9744 53.9987 42.6899 53.494C44.4054 52.9893 46.0002 52.12 47.3722 50.9418C48.7442 49.7636 49.8633 48.3024 50.6578 46.6515C51.4524 45.0007 51.9049 43.1966 51.9866 41.3546C52.0682 39.5127 51.7771 37.6733 51.1319 35.9543C50.4866 34.2353 49.5015 32.6744 48.2394 31.3714ZM40.1278 8.88336V27.5306C39.3233 27.4694 38.515 27.4862 37.7135 27.5807V8.88503L40.1278 8.88336ZM10.9649 6.03895V9.13106H7.97445L10.9649 6.03895ZM7.15657 10.325H11.5432C11.6192 10.325 11.6944 10.3096 11.7645 10.2795C11.8347 10.2495 11.8984 10.2055 11.9521 10.1499C12.0058 10.0944 12.0484 10.0285 12.0775 9.956C12.1065 9.88347 12.1215 9.80573 12.1215 9.72722V5.19343H36.5569V27.7745C33.2456 28.4857 30.3411 30.5225 28.4776 33.4403C26.6142 36.358 25.9433 39.9195 26.6114 43.3469H7.15657V10.325ZM10.727 47.0363V44.5425H26.8968C27.1459 45.4075 27.4804 46.2437 27.8951 47.0379L10.727 47.0363ZM47.4215 49.2628C45.5136 51.2356 43.003 52.4635 40.3175 52.7372C37.632 53.0109 34.9378 52.3135 32.6939 50.7638C30.4501 49.214 28.7954 46.9079 28.012 44.2384C27.2285 41.5688 27.3646 38.701 28.3972 36.1236C29.4298 33.5462 31.2949 31.4187 33.6748 30.1036C36.0546 28.7885 38.8019 28.3672 41.4486 28.9114C44.0953 29.4556 46.4775 30.9318 48.1894 33.0883C49.9013 35.2448 50.8369 37.9482 50.8368 40.7379C50.8396 42.3222 50.5393 43.8914 49.9532 45.3552C49.3671 46.819 48.5067 48.1486 47.4215 49.2673V49.2628ZM46.0835 33.6002C44.4852 31.9481 42.3822 30.92 40.1329 30.6911C37.8836 30.4622 35.6271 31.0466 33.7479 32.3449C31.8686 33.6431 30.483 35.5748 29.827 37.8108C29.171 40.0468 29.2852 42.4488 30.1503 44.6074C31.0153 46.7661 32.5776 48.5479 34.5709 49.6493C36.5643 50.7507 38.8654 51.1035 41.0821 50.6476C43.2989 50.1916 45.2941 48.9552 46.7279 47.149C48.1617 45.3427 48.9454 43.0784 48.9453 40.7418C48.9488 39.4149 48.6977 38.1005 48.2064 36.8746C47.7152 35.6488 46.9936 34.5358 46.0835 33.6002ZM45.2656 47.0385C43.8564 48.4957 42.002 49.4026 40.0184 49.6048C38.0349 49.807 36.0449 49.2918 34.3875 48.1472C32.7302 47.0025 31.508 45.2992 30.9293 43.3274C30.3506 41.3557 30.4511 39.2374 31.2138 37.3337C31.9765 35.43 33.3541 33.8585 35.1119 32.8872C36.8697 31.9158 38.8989 31.6046 40.8538 32.0065C42.8087 32.4085 44.5683 33.4988 45.8327 35.0916C47.0972 36.6845 47.7882 38.6813 47.7882 40.7418C47.7914 41.9117 47.57 43.0706 47.137 44.1514C46.704 45.2322 46.0679 46.2135 45.2656 47.0385ZM37.7609 38.6823C37.7613 39.0696 37.9102 39.4409 38.1749 39.715C38.4396 39.9891 38.7985 40.1435 39.1732 40.1446C39.8047 40.1443 40.4142 40.3844 40.8854 40.8191C41.3566 41.2537 41.6566 41.8524 41.728 42.5011C41.7995 43.1497 41.6376 43.8029 41.273 44.336C40.9084 44.8691 40.3668 45.2448 39.7515 45.3914V46.5047C39.7515 46.6632 39.6905 46.8153 39.5821 46.9274C39.4736 47.0395 39.3266 47.1025 39.1732 47.1025C39.0198 47.1025 38.8727 47.0395 38.7643 46.9274C38.6558 46.8153 38.5949 46.6632 38.5949 46.5047V45.3914C38.029 45.2554 37.5241 44.9255 37.1625 44.4554C36.8008 43.9853 36.6035 43.4026 36.6027 42.8019C36.6027 42.6434 36.6636 42.4913 36.7721 42.3792C36.8805 42.2671 37.0276 42.2041 37.181 42.2041C37.3343 42.2041 37.4814 42.2671 37.5899 42.3792C37.6983 42.4913 37.7592 42.6434 37.7592 42.8019C37.7591 43.0912 37.842 43.374 37.9974 43.6145C38.1528 43.8551 38.3737 44.0426 38.6322 44.1534C38.8907 44.2641 39.1751 44.2931 39.4495 44.2367C39.724 44.1803 39.9761 44.041 40.1739 43.8365C40.3718 43.6319 40.5065 43.3713 40.561 43.0876C40.6156 42.8039 40.5876 42.5099 40.4804 42.2426C40.3733 41.9754 40.1919 41.7471 39.9592 41.5864C39.7265 41.4258 39.453 41.3401 39.1732 41.3402C38.542 41.3398 37.9329 41.0994 37.4621 40.6647C36.9913 40.23 36.6916 39.6315 36.6202 38.9831C36.5487 38.3348 36.7105 37.6819 37.0747 37.1489C37.4388 36.6159 37.9799 36.24 38.5949 36.0928V34.9795C38.5949 34.821 38.6558 34.6689 38.7643 34.5568C38.8727 34.4447 39.0198 34.3817 39.1732 34.3817C39.3266 34.3817 39.4736 34.4447 39.5821 34.5568C39.6905 34.6689 39.7515 34.821 39.7515 34.9795V36.0928C40.3174 36.2288 40.8222 36.5587 41.1839 37.0288C41.5456 37.4989 41.7429 38.0816 41.7437 38.6823C41.7437 38.8408 41.6828 38.9929 41.5743 39.105C41.4659 39.2171 41.3188 39.2801 41.1654 39.2801C41.012 39.2801 40.8649 39.2171 40.7565 39.105C40.648 38.9929 40.5871 38.8408 40.5871 38.6823C40.5871 38.2945 40.4381 37.9225 40.1728 37.6483C39.9076 37.3741 39.5478 37.22 39.1726 37.22C38.7975 37.22 38.4377 37.3741 38.1725 37.6483C37.9072 37.9225 37.7582 38.2945 37.7582 38.6823H37.7609ZM9.93868 28.6161C9.93868 28.4575 9.9996 28.3055 10.1081 28.1934C10.2165 28.0812 10.3636 28.0183 10.517 28.0183H29.3704C29.5237 28.0183 29.6708 28.0812 29.7793 28.1934C29.8877 28.3055 29.9487 28.4575 29.9487 28.6161C29.9487 28.7746 29.8877 28.9267 29.7793 29.0388C29.6708 29.1509 29.5237 29.2139 29.3704 29.2139H10.517C10.3636 29.2139 10.2165 29.1509 10.1081 29.0388C9.9996 28.9267 9.93868 28.7746 9.93868 28.6161ZM9.93868 32.9612C9.93868 32.8827 9.95364 32.805 9.98271 32.7325C10.0118 32.66 10.0544 32.5941 10.1081 32.5386C10.1618 32.4832 10.2255 32.4392 10.2957 32.4092C10.3659 32.3792 10.441 32.3638 10.517 32.3639H27.012C27.0894 32.3615 27.1665 32.3751 27.2387 32.404C27.3109 32.433 27.3767 32.4766 27.4323 32.5323C27.4879 32.5881 27.532 32.6548 27.5622 32.7285C27.5924 32.8022 27.6079 32.8814 27.6079 32.9615C27.6079 33.0415 27.5924 33.1207 27.5622 33.1944C27.532 33.2682 27.4879 33.3349 27.4323 33.3906C27.3767 33.4463 27.3109 33.4899 27.2387 33.5189C27.1665 33.5478 27.0894 33.5614 27.012 33.559H10.517C10.3636 33.559 10.2165 33.496 10.1081 33.3839C9.9996 33.2718 9.93868 33.1197 9.93868 32.9612ZM22.4353 37.3068C22.4353 37.3853 22.4203 37.4631 22.3913 37.5356C22.3622 37.6081 22.3196 37.674 22.2659 37.7296C22.2122 37.7851 22.1485 37.8291 22.0783 37.8591C22.0081 37.8892 21.933 37.9047 21.857 37.9047H10.517C10.3636 37.9047 10.2165 37.8417 10.1081 37.7296C9.9996 37.6174 9.93868 37.4654 9.93868 37.3068C9.93868 37.1483 9.9996 36.9962 10.1081 36.8841C10.2165 36.772 10.3636 36.709 10.517 36.709H21.857C21.933 36.709 22.0081 36.7245 22.0783 36.7545C22.1485 36.7846 22.2122 36.8286 22.2659 36.8841C22.3196 36.9396 22.3622 37.0055 22.3913 37.0781C22.4203 37.1506 22.4353 37.2283 22.4353 37.3068ZM29.519 26.0316H33.133C33.2864 26.0316 33.4334 25.9686 33.5419 25.8565C33.6503 25.7444 33.7113 25.5924 33.7113 25.4338V7.69884C33.7113 7.54029 33.6503 7.38823 33.5419 7.27611C33.4334 7.164 33.2864 7.10101 33.133 7.10101H29.519C29.366 7.1016 29.2195 7.16485 29.1115 7.2769C29.0035 7.38895 28.9429 7.54067 28.9429 7.69884V25.4338C28.9429 25.592 29.0035 25.7437 29.1115 25.8557C29.2195 25.9678 29.366 26.031 29.519 26.0316ZM30.0973 8.29667H32.5547V24.836H30.0973V8.29667ZM23.2063 26.0316H26.8203C26.9737 26.0316 27.1208 25.9686 27.2292 25.8565C27.3377 25.7444 27.3986 25.5924 27.3986 25.4338V10.9869C27.3986 10.8283 27.3377 10.6763 27.2292 10.5642C27.1208 10.452 26.9737 10.3891 26.8203 10.3891H23.2063C23.053 10.3891 22.9059 10.452 22.7974 10.5642C22.689 10.6763 22.6281 10.8283 22.6281 10.9869V25.4338C22.6281 25.5924 22.689 25.7444 22.7974 25.8565C22.9059 25.9686 23.053 26.0316 23.2063 26.0316ZM23.7846 11.5847H26.242V24.836H23.7846V11.5847ZM16.8937 26.0316H20.5077C20.6611 26.0316 20.8081 25.9686 20.9166 25.8565C21.025 25.7444 21.086 25.5924 21.086 25.4338V14.5905C21.086 14.432 21.025 14.2799 20.9166 14.1678C20.8081 14.0557 20.6611 13.9927 20.5077 13.9927H16.8937C16.7403 13.9927 16.5932 14.0557 16.4848 14.1678C16.3763 14.2799 16.3154 14.432 16.3154 14.5905V25.4338C16.3154 25.5924 16.3763 25.7444 16.4848 25.8565C16.5932 25.9686 16.7403 26.0316 16.8937 26.0316ZM17.4741 15.1884H19.9294V24.836H17.4741V15.1884ZM10.5821 26.0316H14.195C14.3484 26.0316 14.4955 25.9686 14.6039 25.8565C14.7124 25.7444 14.7733 25.5924 14.7733 25.4338V18.6089C14.7733 18.4503 14.7124 18.2983 14.6039 18.1862C14.4955 18.0741 14.3484 18.0111 14.195 18.0111H10.5821C10.4287 18.0111 10.2817 18.0741 10.1732 18.1862C10.0648 18.2983 10.0038 18.4503 10.0038 18.6089V25.4338C10.0038 25.5924 10.0648 25.7444 10.1732 25.8565C10.2817 25.9686 10.4287 26.0316 10.5821 26.0316ZM11.1604 19.2067H13.6184V24.836H11.1588L11.1604 19.2067Z" fill="black"/>
</svg>
