<svg width="58" height="58" viewBox="0 0 58 58" fill="none" xmlns="http://www.w3.org/2000/svg">
<path fill-rule="evenodd" clip-rule="evenodd" d="M38.956 50C34.4152 50 29.9066 46.3588 29.9066 39.4773V31.1215C27.8991 32.4044 25.516 33.1498 22.964 33.1498C15.7928 33.1498 9.97705 27.3118 9.97705 20.1133C9.97705 12.9336 15.7918 7.0769 22.964 7.0769C26.4405 7.0769 29.6041 8.45385 31.9271 10.6999C34.2352 7.53094 38.1174 6.43278 41.4946 7.45818C45.0555 8.53957 48.0226 12.011 48.0226 17.5997V39.4773C48.0226 46.3588 43.4966 50 38.956 50ZM38.956 48.8906C42.9234 48.8906 46.9173 45.8834 46.9173 39.4773V29.1106H31.0118V39.4773C31.0118 45.8834 34.9884 48.8906 38.956 48.8906ZM22.964 32.0403C25.5601 32.0403 27.9607 31.2055 29.9066 29.7866V29.0411V26.8915L11.6868 16.3342C11.2899 17.5248 11.0823 18.7892 11.0823 20.1133C11.0823 26.7135 16.389 32.0403 22.964 32.0403ZM31.0118 28.0011H46.9173V17.5997C46.9173 12.397 44.2731 9.45903 41.1665 8.51572C38.0608 7.57276 34.4815 8.64914 32.497 11.8095C31.3906 13.7181 31.0281 15.8397 31.0118 17.5997V28.0011ZM29.9066 25.626V22.6789L13.3619 13.1097C12.8658 13.7927 12.4283 14.512 12.084 15.2939L29.9066 25.626ZM29.9066 21.3962V17.5997C29.9066 15.2241 30.4301 13.2388 31.3054 11.6534C29.1706 9.51519 26.224 8.18631 22.964 8.18631C19.4191 8.18631 16.2449 9.76097 14.07 12.2255L29.9066 21.3962Z" fill="black"/>
</svg>
