<svg width="58" height="58" viewBox="0 0 58 58" fill="none" xmlns="http://www.w3.org/2000/svg">
<path d="M52 28.9685C52 27.4597 50.8589 26.219 49.3971 26.0455C48.9028 22.6178 47.5514 19.3742 45.4639 16.6037C46.3683 15.4523 46.3052 13.7753 45.243 12.7134C44.1756 11.6514 42.4982 11.5831 41.3466 12.4978C38.5702 10.416 35.3205 9.07543 31.8868 8.59177C31.7133 7.13554 30.4723 6 28.9684 6C27.4593 6 26.2183 7.1408 26.0448 8.60229C22.6164 9.09646 19.372 10.4475 16.6008 12.5346C16.0855 12.1298 15.4598 11.8933 14.792 11.8933C14.0032 11.8933 13.267 12.1982 12.7096 12.7554C12.1523 13.3127 11.8473 14.0487 11.8473 14.8373C11.8473 15.5102 12.0839 16.1358 12.4941 16.6562C10.4118 19.432 9.07087 22.6809 8.59236 26.1086C7.1358 26.2821 6 27.5227 6 29.0263C6 30.5351 7.14106 31.7758 8.60288 31.9493C9.09717 35.3769 10.4486 38.6206 12.5361 41.3911C12.1312 41.9063 11.8946 42.5319 11.8946 43.1995C11.8946 43.9829 12.1996 44.7241 12.757 45.2814C13.3301 45.8544 14.0821 46.1435 14.8393 46.1435C15.4861 46.1435 16.1223 45.9227 16.6534 45.5022C19.4298 47.584 22.6795 48.9246 26.1132 49.4082C26.2867 50.8645 27.5277 52 29.0315 52C30.5407 52 31.7817 50.8592 31.9552 49.3977C35.3836 48.9035 38.628 47.5525 41.3992 45.4654C41.9145 45.8702 42.5402 46.1067 43.208 46.1067C43.9968 46.1067 44.733 45.8018 45.2904 45.2446C45.8477 44.6873 46.1527 43.9513 46.1527 43.1627C46.1527 42.4898 45.9161 41.8642 45.5059 41.3438C47.5882 38.568 48.9291 35.3191 49.4076 31.8914C50.8642 31.7179 52 30.472 52 28.9685ZM50.8747 28.9685C50.8747 29.9726 50.0597 30.7874 49.0553 30.7874C48.051 30.7874 47.2359 29.9726 47.2359 28.9685C47.2359 27.9643 48.051 27.1495 49.0553 27.1495C50.0597 27.1495 50.8747 27.9643 50.8747 28.9685ZM43.1555 12.9762C43.6235 12.9762 44.0862 13.155 44.4438 13.5072C45.1536 14.2169 45.1536 15.3735 44.4438 16.0832C43.7339 16.7929 42.577 16.7929 41.8672 16.0832C41.1573 15.3735 41.1573 14.2169 41.8672 13.5072C42.2247 13.155 42.6927 12.9762 43.1555 12.9762ZM28.9632 7.12503C29.9675 7.12503 30.7826 7.93989 30.7826 8.944C30.7826 9.94811 29.9675 10.763 28.9632 10.763C27.9588 10.763 27.1438 9.94811 27.1438 8.944C27.1438 7.93989 27.9588 7.12503 28.9632 7.12503ZM13.4984 13.5545C13.8402 13.2128 14.2977 13.0235 14.7867 13.0235C15.2705 13.0235 15.7279 13.2128 16.075 13.5545C16.4168 13.8962 16.6061 14.3536 16.6061 14.8425C16.6061 15.3314 16.4168 15.7835 16.075 16.1305C15.7332 16.4722 15.2757 16.6615 14.7867 16.6615C14.2977 16.6615 13.8454 16.4722 13.4984 16.1305C13.1566 15.7888 12.9673 15.3314 12.9673 14.8425C12.9673 14.3536 13.1566 13.8962 13.4984 13.5545ZM7.11477 29.0315C7.11477 28.0274 7.92981 27.2126 8.93416 27.2126C9.9385 27.2126 10.7535 28.0274 10.7535 29.0315C10.7535 30.0357 9.9385 30.8505 8.93416 30.8505C7.92981 30.8505 7.11477 30.0357 7.11477 29.0315ZM13.5457 44.4928C13.2039 44.1511 13.0146 43.6937 13.0146 43.2048C13.0146 42.7159 13.2039 42.2638 13.5457 41.9168C14.2556 41.2071 15.4124 41.2071 16.1223 41.9168C16.4641 42.2585 16.6534 42.7159 16.6534 43.2048C16.6534 43.6885 16.4641 44.1458 16.1223 44.4928C15.4072 45.2025 14.2556 45.2025 13.5457 44.4928ZM29.0263 50.875C28.0219 50.875 27.2069 50.0601 27.2069 49.056C27.2069 48.0519 28.0219 47.237 29.0263 47.237C30.0306 47.237 30.8457 48.0519 30.8457 49.056C30.8457 50.0601 30.0306 50.875 29.0263 50.875ZM29.0263 46.112C27.6696 46.112 26.5286 47.032 26.1868 48.2832C22.995 47.8206 19.9714 46.5746 17.3791 44.6505C17.6262 44.2142 17.7734 43.72 17.7734 43.2048C17.7734 42.4162 17.4684 41.6802 16.9111 41.123C15.954 40.1662 14.5027 40.019 13.3775 40.6603C11.4424 38.0738 10.1856 35.0562 9.71239 31.8651C10.9586 31.5234 11.8736 30.3826 11.8736 29.0315C11.8736 27.6752 10.9534 26.5344 9.70187 26.1927C10.1646 23.0016 11.4108 19.9787 13.3354 17.387C13.7718 17.6341 14.2661 17.7813 14.7814 17.7813C15.5702 17.7813 16.3064 17.4763 16.8637 16.9191C17.4211 16.3618 17.7261 15.6258 17.7261 14.8373C17.7261 14.3168 17.5789 13.8226 17.3265 13.3863C19.9136 11.4517 22.9319 10.1952 26.1237 9.72206C26.4655 10.968 27.6065 11.8827 28.9579 11.8827C30.3146 11.8827 31.4556 10.9627 31.7974 9.71154C34.9893 10.1742 38.0128 11.4201 40.6052 13.3442C39.9689 14.464 40.1161 15.915 41.0732 16.8718C41.6463 17.4448 42.3983 17.7339 43.1555 17.7339C43.6603 17.7339 44.1598 17.592 44.6068 17.3397C46.5418 19.9262 47.7986 22.9438 48.2718 26.1349C47.0256 26.4766 46.1107 27.6174 46.1107 28.9685C46.1107 30.3248 47.0309 31.4656 48.2823 31.8073C47.8196 34.9984 46.5734 38.0213 44.6488 40.613C44.2124 40.3659 43.7181 40.2187 43.2028 40.2187C42.4193 40.2187 41.6779 40.5237 41.1205 41.0809C40.5631 41.6382 40.2581 42.3742 40.2581 43.1627C40.2581 43.6832 40.4053 44.1774 40.6577 44.6137C38.0706 46.5483 35.0524 47.8048 31.8605 48.2779C31.5187 47.032 30.3777 46.112 29.0263 46.112ZM44.4911 44.4455C44.1493 44.7872 43.6918 44.9765 43.2028 44.9765C42.719 44.9765 42.2615 44.7872 41.9145 44.4455C41.5727 44.1038 41.3834 43.6464 41.3834 43.1575C41.3834 42.6738 41.5727 42.2165 41.9145 41.8695C42.2563 41.5278 42.7138 41.3385 43.2028 41.3385C43.6918 41.3385 44.144 41.5278 44.4911 41.8695C44.8329 42.2112 45.0222 42.6686 45.0222 43.1575C45.0222 43.6464 44.8329 44.1038 44.4911 44.4455ZM41.4623 35.8711V22.1289C41.4623 21.9291 41.3571 21.7451 41.1836 21.6453L29.2734 14.7689C29.0999 14.669 28.8843 14.669 28.7108 14.7689L16.8112 21.6453C16.6376 21.7451 16.5325 21.9291 16.5325 22.1289V35.8711C16.5325 36.0709 16.6376 36.2549 16.8112 36.3547L28.716 43.2258C28.8002 43.2784 28.9001 43.2994 28.9947 43.2994C29.0894 43.2994 29.1893 43.2731 29.2734 43.2258L41.1783 36.3547C41.3518 36.2549 41.4623 36.0709 41.4623 35.8711ZM28.9947 15.9045L39.7796 22.1289L28.9947 28.3534L18.2099 22.1289L28.9947 15.9045ZM17.6525 23.1015L28.4374 29.3259V41.7749L17.6525 35.5451V23.1015ZM29.5574 41.7696V29.3259L40.3423 23.1015V35.5504L29.5574 41.7696Z" fill="black"/>
</svg>
