<svg width="50" height="50" viewBox="0 0 50 50" fill="none" xmlns="http://www.w3.org/2000/svg">
<path fill-rule="evenodd" clip-rule="evenodd" d="M38.3648 30.4305L40.5572 29.2246L43.1918 30.6736C45.3814 31.878 45.3814 35.0242 43.1918 36.2286L26.4446 45.4394C25.4934 45.9627 24.3406 45.9627 23.3894 45.4394L6.64223 36.2286C4.45259 35.0242 4.45259 31.878 6.64222 30.6736L9.27674 29.2246L11.4693 30.4305L7.66063 32.5252C6.93075 32.9267 6.93075 33.9754 7.66063 34.3769L24.4078 43.5878C24.7249 43.7622 25.1092 43.7622 25.4262 43.5878L42.1734 34.3769C42.9032 33.9754 42.9032 32.9267 42.1734 32.5252L38.3648 30.4305Z" fill="#FD1716"/>
<path fill-rule="evenodd" clip-rule="evenodd" d="M9.2769 20.7734L6.64222 22.2225C4.45259 23.4268 4.45259 26.5732 6.64223 27.7774L23.3894 36.9884C24.3406 37.5115 25.4934 37.5115 26.4446 36.9884L43.1918 27.7774C45.3814 26.5731 45.3814 23.4268 43.1918 22.2225L40.5574 20.7735L38.3649 21.9795L42.1734 24.0742C42.9032 24.4756 42.9032 25.5244 42.1734 25.9258L25.4262 35.1368C25.1092 35.3111 24.7249 35.3111 24.4078 35.1368L7.66063 25.9258C6.93075 25.5244 6.93075 24.4756 7.66063 24.0742L11.4694 21.9793L9.2769 20.7734Z" fill="#FD1716"/>
<path fill-rule="evenodd" clip-rule="evenodd" d="M25.4262 6.41003C25.1091 6.23564 24.7248 6.23564 24.4079 6.41003L7.66063 15.6209C6.93075 16.0225 6.93075 17.0711 7.66063 17.4727L24.4079 26.6835C24.7248 26.858 25.1091 26.858 25.4262 26.6835L42.1734 17.4727C42.9033 17.0711 42.9033 16.0225 42.1734 15.6209L25.4262 6.41003ZM23.3894 4.55839C24.3407 4.03522 25.4934 4.03522 26.4446 4.55838L43.1917 13.7693C45.3815 14.9737 45.3815 18.1199 43.1917 19.3243L26.4446 28.5352C25.4934 29.0584 24.3407 29.0584 23.3894 28.5352L6.64223 19.3243C4.4526 18.1199 4.45259 14.9737 6.64223 13.7693L23.3894 4.55839Z" fill="#FD1716"/>
</svg>
