<svg width="50" height="50" viewBox="0 0 50 50" fill="none" xmlns="http://www.w3.org/2000/svg">
<g clip-path="url(#clip0_4255_3544)">
<path d="M25 0.5C26.1039 0.5 27 1.39614 27 2.5C27 3.60386 26.1039 4.5 25 4.5C23.8961 4.5 23 3.60386 23 2.5C23 1.39614 23.8961 0.5 25 0.5ZM25 1.16667C24.2639 1.16667 23.6667 1.76386 23.6667 2.5C23.6667 3.23614 24.2639 3.83333 25 3.83333C25.735 3.83333 26.3333 3.23647 26.3333 2.5C26.3333 1.76353 25.735 1.16667 25 1.16667Z" stroke="#FD1716"/>
<path d="M42.5 5.5C43.6039 5.5 44.5 6.39614 44.5 7.5C44.5 8.60386 43.6039 9.5 42.5 9.5C41.3961 9.5 40.5 8.60386 40.5 7.5C40.5 6.39614 41.3961 5.5 42.5 5.5ZM42.5 6.16667C41.7639 6.16667 41.1667 6.76386 41.1667 7.5C41.1667 8.23614 41.7639 8.83333 42.5 8.83333C43.2361 8.83333 43.8333 8.23614 43.8333 7.5C43.8333 6.76386 43.2361 6.16667 42.5 6.16667Z" stroke="#FD1716"/>
<path d="M49.5 25C49.5 26.1039 48.6039 27 47.5 27C46.3961 27 45.5 26.1039 45.5 25C45.5 23.8961 46.3961 23 47.5 23C48.6039 23 49.5 23.8961 49.5 25ZM48.8333 25C48.8333 24.265 48.2365 23.6667 47.5 23.6667C46.7635 23.6667 46.1667 24.265 46.1667 25C46.1667 25.7361 46.7639 26.3333 47.5 26.3333C48.2361 26.3333 48.8333 25.7361 48.8333 25Z" stroke="#FD1716"/>
<path d="M42.5 40.5C43.6039 40.5 44.5 41.3961 44.5 42.5C44.5 43.6039 43.6039 44.5 42.5 44.5C41.3961 44.5 40.5 43.6039 40.5 42.5C40.5 41.3961 41.3961 40.5 42.5 40.5ZM42.5 41.1667C41.7639 41.1667 41.1667 41.7639 41.1667 42.5C41.1667 43.2361 41.7639 43.8333 42.5 43.8333C43.2361 43.8333 43.8333 43.2361 43.8333 42.5C43.8333 41.7639 43.2361 41.1667 42.5 41.1667Z" stroke="#FD1716"/>
<path d="M25 49.5C23.8961 49.5 23 48.6039 23 47.5C23 46.3961 23.8961 45.5 25 45.5C26.1039 45.5 27 46.3961 27 47.5C27 48.6039 26.1039 49.5 25 49.5ZM25 48.8333C25.735 48.8333 26.3333 48.2365 26.3333 47.5C26.3333 46.7635 25.735 46.1667 25 46.1667C24.2639 46.1667 23.6667 46.7639 23.6667 47.5C23.6667 48.2361 24.2639 48.8333 25 48.8333Z" stroke="#FD1716"/>
<path d="M7.5 44.5C6.39614 44.5 5.5 43.6039 5.5 42.5C5.5 41.3961 6.39614 40.5 7.5 40.5C8.60386 40.5 9.5 41.3961 9.5 42.5C9.5 43.6039 8.60386 44.5 7.5 44.5ZM7.5 43.8333C8.23614 43.8333 8.83333 43.2361 8.83333 42.5C8.83333 41.7639 8.23614 41.1667 7.5 41.1667C6.76386 41.1667 6.16667 41.7639 6.16667 42.5C6.16667 43.2361 6.76386 43.8333 7.5 43.8333Z" stroke="#FD1716"/>
<path d="M0.5 25C0.5 23.8961 1.39614 23 2.5 23C3.60386 23 4.5 23.8961 4.5 25C4.5 26.1039 3.60386 27 2.5 27C1.39614 27 0.5 26.1039 0.5 25ZM1.16667 25C1.16667 25.7361 1.76386 26.3333 2.5 26.3333C3.23614 26.3333 3.83333 25.7361 3.83333 25C3.83333 24.265 3.23647 23.6667 2.5 23.6667C1.76353 23.6667 1.16667 24.265 1.16667 25Z" stroke="#FD1716"/>
<path d="M7.5 5.5C8.60386 5.5 9.5 6.39614 9.5 7.5C9.5 8.60386 8.60386 9.5 7.5 9.5C6.39614 9.5 5.5 8.60386 5.5 7.5C5.5 6.39614 6.39614 5.5 7.5 5.5ZM7.5 6.16667C6.76386 6.16667 6.16667 6.76386 6.16667 7.5C6.16667 8.23614 6.76386 8.83333 7.5 8.83333C8.23614 8.83333 8.83333 8.23614 8.83333 7.5C8.83333 6.76386 8.23614 6.16667 7.5 6.16667Z" stroke="#FD1716"/>
<path d="M43.7823 11.989L43.7832 11.9888C43.96 11.9381 44.1445 12.0409 44.1946 12.2173L44.1948 12.2179L46.4471 20.0998C46.4472 20.1 46.4472 20.1002 46.4473 20.1003C46.4976 20.2784 46.3942 20.4622 46.2188 20.5121L46.218 20.5124C46.0411 20.563 45.8567 20.4602 45.8065 20.2838L45.8063 20.2832L43.554 12.4013C43.554 12.4011 43.5539 12.401 43.5539 12.4008C43.5035 12.2228 43.6069 12.0389 43.7823 11.989ZM45.8063 29.7179L45.8065 29.7173C45.8567 29.5409 46.0411 29.4381 46.218 29.4888L46.2188 29.489C46.3942 29.5389 46.4976 29.7228 46.4473 29.9008C46.4472 29.901 46.4472 29.9011 46.4471 29.9013L44.1948 37.7832L44.1946 37.7838C44.1445 37.9602 43.96 38.063 43.7832 38.0124L43.7823 38.0121C43.6069 37.9622 43.5035 37.7784 43.5539 37.6003C43.5539 37.6002 43.554 37.6 43.554 37.5998L45.8063 29.7179ZM38.0121 43.7823L38.0124 43.7832C38.063 43.96 37.9602 44.1445 37.7838 44.1946L37.7832 44.1948L29.9013 46.4471C29.9011 46.4472 29.901 46.4472 29.9008 46.4473C29.7228 46.4976 29.5389 46.3942 29.489 46.2188L29.4887 46.2177C29.4382 46.0418 29.541 45.8566 29.7173 45.8065L29.7179 45.8063L37.5998 43.554C37.6 43.554 37.6002 43.5539 37.6003 43.5539C37.7784 43.5035 37.9622 43.6069 38.0121 43.7823ZM20.2832 45.8063L20.2838 45.8065C20.4602 45.8566 20.5629 46.0418 20.5124 46.2177L20.5121 46.2188C20.4622 46.3942 20.2784 46.4976 20.1003 46.4473C20.1002 46.4472 20.1 46.4472 20.0998 46.4471L12.2179 44.1948L12.2173 44.1946C12.0409 44.1445 11.9381 43.96 11.9888 43.7832L11.989 43.7823C12.0389 43.6069 12.2228 43.5035 12.4008 43.5539C12.401 43.5539 12.4011 43.554 12.4013 43.554L20.2832 45.8063ZM6.2188 38.0121L6.21797 38.0124C6.04115 38.063 5.85667 37.9602 5.8065 37.7838L5.80632 37.7832L3.554 29.9013C3.55398 29.9012 3.55396 29.9012 3.55394 29.9011C3.5034 29.723 3.6068 29.5389 3.78233 29.489L3.7834 29.4887C3.95932 29.4382 4.14448 29.541 4.19463 29.7173L4.19481 29.7179L6.44713 37.5998C6.44715 37.5999 6.44718 37.6 6.4472 37.6001C6.49772 37.7782 6.39432 37.9622 6.2188 38.0121ZM4.19481 20.2832L4.19463 20.2838C4.14448 20.4602 3.95932 20.5629 3.7834 20.5124L3.78233 20.5121C3.6068 20.4622 3.5034 20.2782 3.55394 20.1C3.55396 20.1 3.55398 20.0999 3.554 20.0998L5.80632 12.2179L5.8065 12.2173C5.85667 12.0409 6.04115 11.9381 6.21797 11.9888L6.2188 11.989C6.39432 12.0389 6.49772 12.223 6.4472 12.4011C6.44718 12.4012 6.44715 12.4012 6.44713 12.4013L4.19481 20.2832ZM11.989 6.2188L11.9888 6.21797C11.9381 6.04115 12.0409 5.85667 12.2173 5.8065L12.2179 5.80632L20.0998 3.554C20.0999 3.55398 20.1 3.55396 20.1 3.55394C20.2782 3.5034 20.4622 3.6068 20.5121 3.78233L20.5124 3.78316C20.563 3.95998 20.4602 4.14446 20.2838 4.19463L20.2832 4.19481L12.4013 6.44713C12.4012 6.44715 12.4012 6.44718 12.4011 6.4472C12.223 6.49772 12.0389 6.39432 11.989 6.2188ZM29.7179 4.19481L29.7173 4.19463C29.5409 4.14446 29.4381 3.95998 29.4888 3.78316L29.489 3.78233C29.5389 3.6068 29.723 3.5034 29.9011 3.55394C29.9012 3.55396 29.9012 3.55398 29.9013 3.554L37.7832 5.80632L37.7838 5.8065C37.9602 5.85667 38.063 6.04115 38.0124 6.21797L38.0121 6.2188C37.9622 6.39432 37.7782 6.49772 37.6001 6.4472C37.6 6.44718 37.5999 6.44715 37.5998 6.44713L29.7179 4.19481Z" stroke="#FD1716"/>
<path d="M28.0755 21.166L28.8553 19.9968L28.8554 19.9966C29.4684 19.0767 29.5264 17.8929 29.0044 16.9169L29.0041 16.9163C28.4813 15.9417 27.4655 15.3327 26.3585 15.3327H24.751C23.7482 15.3327 22.811 15.8336 22.2548 16.6689L18.366 22.5018C17.7517 23.4221 17.6949 24.6061 18.2168 25.5818L18.2169 25.582C18.7389 26.5571 19.7558 27.166 20.8618 27.166H21.8978L20.177 30.1777C20.177 30.1777 20.177 30.1778 20.177 30.1778C20.1769 30.1779 20.1769 30.1779 20.1769 30.178C19.6459 31.1062 19.65 32.2472 20.1869 33.1721C20.7239 34.097 21.712 34.666 22.7818 34.666H23.5118C24.4561 34.666 25.3449 34.2209 25.9117 33.4663L25.9118 33.466L31.5368 25.9661C31.5368 25.9661 31.5368 25.966 31.5368 25.966C32.219 25.0567 32.3277 23.8408 31.82 22.8243L31.8199 22.8241C31.3118 21.808 30.2729 21.166 29.1368 21.166H28.0755ZM24.9993 14.666C30.7024 14.666 35.3327 19.2963 35.3327 24.9993C35.3327 30.7024 30.7024 35.3327 24.9993 35.3327C19.2963 35.3327 14.666 30.7024 14.666 24.9993C14.666 19.2963 19.2963 14.666 24.9993 14.666Z" stroke="#FD1716"/>
<path d="M24.4743 18.1482L24.4746 18.1478C24.5356 18.0561 24.6399 18 24.7516 18H26.3591C26.4824 18 26.5954 18.0678 26.6533 18.176C26.7113 18.2842 26.7051 18.4162 26.637 18.5189C26.637 18.5189 26.6369 18.519 26.6369 18.5191L25.339 20.465C25.339 20.465 25.339 20.465 25.339 20.4651C24.8956 21.1296 24.8548 21.9844 25.2315 22.689L25.2317 22.6893C25.6087 23.3935 26.3431 23.8333 27.1416 23.8333H29.1375C29.2639 23.8333 29.3788 23.9046 29.435 24.0172L29.4355 24.0183C29.4919 24.1307 29.48 24.2654 29.4041 24.3668C29.404 24.3668 29.404 24.3668 29.404 24.3669L23.7791 31.8667C23.7161 31.9508 23.6176 32 23.5125 32H22.7825C22.6635 32 22.5538 31.9368 22.4939 31.8338C22.4345 31.7316 22.434 31.604 22.4928 31.5008L24.6407 27.7416C24.6407 27.7415 24.6407 27.7414 24.6408 27.7414C25.0241 27.071 25.022 26.2475 24.6341 25.5791L24.6339 25.5788C24.2462 24.9117 23.5326 24.5 22.76 24.5H20.8625C20.7398 24.5 20.6273 24.4327 20.5691 24.324L20.5685 24.3229C20.5111 24.2162 20.5168 24.0847 20.5854 23.9812C20.5854 23.9811 20.5855 23.981 20.5856 23.9809L24.4743 18.1482Z" stroke="#FD1716"/>
<path d="M25.0007 11.334C32.5437 11.334 38.6673 17.4576 38.6673 25.0007C38.6673 32.5437 32.5437 38.6673 25.0007 38.6673C17.4576 38.6673 11.334 32.5437 11.334 25.0007C11.334 17.4576 17.4576 11.334 25.0007 11.334ZM25.0007 12.0007C17.8253 12.0007 12.0007 17.8253 12.0007 25.0007C12.0007 32.176 17.8253 38.0007 25.0007 38.0007C32.176 38.0007 38.0007 32.176 38.0007 25.0007C38.0007 17.8253 32.176 12.0007 25.0007 12.0007Z" stroke="#FD1716"/>
</g>
<defs>
<clipPath id="clip0_4255_3544">
<rect width="50" height="50" fill="white"/>
</clipPath>
</defs>
</svg>
