<svg width="50" height="50" viewBox="0 0 50 50" fill="none" xmlns="http://www.w3.org/2000/svg">
<path d="M20.4767 15.3245H31.9377C32.3415 15.3245 32.6683 14.9976 32.6683 14.5939C32.6683 14.1901 32.3415 13.8633 31.9377 13.8633H20.4767C20.0729 13.8633 19.7461 14.1901 19.7461 14.5939C19.7461 14.9976 20.0734 15.3245 20.4767 15.3245Z" fill="#FD1716"/>
<path d="M20.4767 18.4104H31.9377C32.3415 18.4104 32.6683 18.0836 32.6683 17.6798C32.6683 17.276 32.3415 16.9492 31.9377 16.9492H20.4767C20.0729 16.9492 19.7461 17.276 19.7461 17.6798C19.7461 18.0836 20.0734 18.4104 20.4767 18.4104Z" fill="#FD1716"/>
<path d="M20.4767 23.26H31.9377C32.3415 23.26 32.6683 22.9332 32.6683 22.5294C32.6683 22.1256 32.3415 21.7988 31.9377 21.7988H20.4767C20.0729 21.7988 19.7461 22.1256 19.7461 22.5294C19.7461 22.9332 20.0734 23.26 20.4767 23.26Z" fill="#FD1716"/>
<path d="M20.4767 26.346H31.9377C32.3415 26.346 32.6683 26.0191 32.6683 25.6154C32.6683 25.2116 32.3415 24.8848 31.9377 24.8848H20.4767C20.0729 24.8848 19.7461 25.2116 19.7461 25.6154C19.7461 26.0191 20.0734 26.346 20.4767 26.346Z" fill="#FD1716"/>
<path d="M20.4767 31.635H31.9377C32.3415 31.635 32.6683 31.3082 32.6683 30.9044C32.6683 30.5006 32.3415 30.1738 31.9377 30.1738H20.4767C20.0729 30.1738 19.7461 30.5006 19.7461 30.9044C19.7461 31.3082 20.0734 31.635 20.4767 31.635Z" fill="#FD1716"/>
<path d="M27.3788 33.9904C27.3788 33.5866 27.052 33.2598 26.6482 33.2598H20.4767C20.0729 33.2598 19.7461 33.5866 19.7461 33.9904C19.7461 34.3941 20.0729 34.721 20.4767 34.721H26.6482C27.052 34.721 27.3788 34.3941 27.3788 33.9904Z" fill="#FD1716"/>
<path d="M18.0159 21.7988H14.1954C13.7917 21.7988 13.4648 22.1256 13.4648 22.5294V25.9462C13.4648 26.3499 13.7917 26.6768 14.1954 26.6768H18.0159C18.4197 26.6768 18.7465 26.3499 18.7465 25.9462V22.5294C18.7465 22.1261 18.4197 21.7988 18.0159 21.7988ZM17.2854 25.2156H14.926V23.26H17.2854V25.2156Z" fill="#FD1716"/>
<path d="M18.0159 13.8633H14.1954C13.7917 13.8633 13.4648 14.1901 13.4648 14.5939V18.0106C13.4648 18.4144 13.7917 18.7412 14.1954 18.7412H18.0159C18.4197 18.7412 18.7465 18.4144 18.7465 18.0106V14.5939C18.7465 14.1906 18.4197 13.8633 18.0159 13.8633ZM17.2854 17.28H14.926V15.3245H17.2854V17.28Z" fill="#FD1716"/>
<path d="M18.0159 30.1738H14.1954C13.7917 30.1738 13.4648 30.5006 13.4648 30.9044V34.3207C13.4648 34.7244 13.7917 35.0513 14.1954 35.0513H18.0159C18.4197 35.0513 18.7465 34.7244 18.7465 34.3207V30.9044C18.7465 30.5006 18.4197 30.1738 18.0159 30.1738ZM17.2854 33.5901H14.926V31.635H17.2854V33.5901Z" fill="#FD1716"/>
<path d="M34.4486 37.9811C33.3844 37.591 33.2948 37.4283 33.399 36.9554C33.4701 36.6344 33.6065 36.5268 33.7034 36.4742C34.1004 36.2579 34.8173 36.4415 35.0384 36.5234C35.4154 36.6666 35.8358 36.4761 35.979 36.0996C36.1226 35.7226 35.9332 35.3004 35.5562 35.1567C35.4924 35.1328 35.2089 35.0305 34.8236 34.9657V34.6915C34.8236 34.2878 34.4968 33.9609 34.093 33.9609C33.6893 33.9609 33.3625 34.2878 33.3625 34.6915V35.0388C33.2431 35.0778 33.1253 35.125 33.0113 35.1864C32.6392 35.3875 32.1565 35.803 31.9719 36.6403C31.5671 38.4799 33.1141 39.0473 33.9455 39.3517C34.1739 39.4355 34.5187 39.5621 34.5957 39.6386C34.6746 39.7428 34.7423 40.1656 34.5523 40.4169C34.303 40.7467 33.5734 40.7175 32.6012 40.3385C32.2257 40.1929 31.8014 40.3785 31.6553 40.7545C31.5092 41.1305 31.6952 41.5542 32.0713 41.7003C32.5603 41.8908 32.985 41.9984 33.3629 42.0544V42.3243C33.3629 42.728 33.6898 43.0549 34.0935 43.0549C34.4973 43.0549 34.8241 42.728 34.8241 42.3243V41.9507C35.2927 41.7778 35.5869 41.487 35.7588 41.242C36.3394 40.4145 36.1962 39.2485 35.6984 38.6796C35.3872 38.3255 34.9099 38.1506 34.4486 37.9811Z" fill="#FD1716"/>
<path d="M36.966 32.6168V7.54135C36.966 5.68029 35.4518 4.16602 33.5907 4.16602H16.3984C16.3921 4.16602 16.3867 4.16748 16.3804 4.16796C16.2854 4.1704 16.1948 4.18939 16.112 4.22495C16.1018 4.22933 16.092 4.23615 16.0818 4.24151C16.0492 4.25758 16.0165 4.27366 15.9863 4.29411C15.9712 4.30434 15.9586 4.31749 15.9445 4.32869C15.9211 4.34769 15.8972 4.36571 15.8763 4.38714C15.8743 4.38958 15.8714 4.39104 15.869 4.39347L9.36766 11.2255C9.36474 11.2289 9.36328 11.2338 9.36035 11.2367C9.30239 11.3 9.25417 11.3726 9.22105 11.4539C9.2191 11.4588 9.21862 11.4641 9.21618 11.469C9.1855 11.5494 9.16699 11.6356 9.1665 11.7262C9.1665 11.7272 9.16602 11.7276 9.16602 11.7286V40.6026C9.16602 42.4637 10.6803 43.9779 12.5414 43.9779H29.1502C30.3941 45.125 32.0491 45.8327 33.8703 45.8327C37.7161 45.8327 40.8455 42.7038 40.8455 38.8575C40.8455 36.1241 39.2611 33.7594 36.966 32.6168ZM15.6683 6.72406V9.08485C15.6683 10.1403 14.8096 10.999 13.7536 10.999H11.6003L15.6683 6.72406ZM10.6272 40.6031V12.4597H13.7536C15.6152 12.4597 17.1295 10.9454 17.1295 9.08436V5.6272H33.5907C34.6462 5.6272 35.5048 6.48589 35.5048 7.54135V32.0839C34.9793 31.9573 34.4343 31.8828 33.8708 31.8828C30.0244 31.8828 26.8955 35.0116 26.8955 38.858C26.8955 40.2008 27.2837 41.4521 27.9437 42.5177H12.5414C11.4859 42.5173 10.6272 41.6586 10.6272 40.6031ZM33.8703 44.372C30.8295 44.372 28.3562 41.8982 28.3562 38.858C28.3562 35.8177 30.83 33.3439 33.8703 33.3439C34.5546 33.3439 35.2077 33.4754 35.8132 33.7039C35.9023 33.7672 36.006 33.8101 36.119 33.8281C38.0405 34.6907 39.3843 36.6185 39.3843 38.8575C39.3843 41.8982 36.9105 44.372 33.8703 44.372Z" fill="#FD1716"/>
</svg>
