<svg width="50" height="50" viewBox="0 0 50 50" fill="none" xmlns="http://www.w3.org/2000/svg">
<path d="M35.3004 17.2891C35.3722 17.2891 35.444 17.2724 35.5108 17.2356C35.6561 17.1588 35.7463 17.0068 35.7463 16.8432V14.8392H44.9829C45.2284 14.8392 45.4288 14.6404 45.4288 14.3933C45.4288 14.1478 45.2301 13.9473 44.9829 13.9473L35.3004 13.949C35.0549 13.949 34.8545 14.1477 34.8545 14.3949V16.0132L29.8529 12.6782L34.8545 9.34315V10.9614C34.8545 11.2069 35.0532 11.4073 35.3004 11.4073H44.9829C45.2284 11.4073 45.4288 11.2086 45.4288 10.9614C45.4288 10.7159 45.2301 10.5155 44.9829 10.5155H39.1797V5.68406C39.1797 4.8474 38.4984 4.16602 37.6617 4.16602H7.64148C5.72596 4.16602 4.16619 5.72412 4.16619 7.64131V27.1321C4.16619 27.3776 4.36492 27.578 4.61209 27.578C4.85758 27.578 5.058 27.3792 5.058 27.1321V7.64131C5.058 6.2168 6.21697 5.05779 7.64152 5.05779C9.05936 5.05779 10.2133 6.21676 10.2133 7.64131V37.5427H5.05783V29.4048C5.05783 29.1593 4.8591 28.9589 4.61192 28.9589C4.36643 28.9589 4.16602 29.1576 4.16602 29.4048V37.9886C4.16602 38.2341 4.36475 38.4345 4.61192 38.4345H10.2133V44.3146C10.2133 45.1513 10.8997 45.8327 11.7447 45.8327H37.6616C38.4982 45.8327 39.1796 45.1513 39.1796 44.3146V41.7378L45.2299 37.7047C45.3535 37.6229 45.4286 37.4826 45.4286 37.334C45.4286 37.1854 45.3552 37.0468 45.2316 36.9633L39.1813 32.9168V31.3554C42.4912 31.1249 45.1149 28.3661 45.1149 24.9994C45.1149 21.6328 42.4913 18.8739 39.1813 18.6434L39.1796 16.3004C39.1796 16.0549 38.9809 15.8545 38.7337 15.8545C38.4882 15.8545 38.2878 16.0532 38.2878 16.3004V18.6418C34.9778 18.8722 32.3542 21.6311 32.3542 24.9978C32.3542 28.3644 34.9778 31.1233 38.2878 31.3537V35.168L29.0512 35.1697C28.8057 35.1697 28.6053 35.3684 28.6053 35.6156C28.6053 35.8611 28.804 36.0615 29.0512 36.0615H38.7337C38.9792 36.0615 39.1796 35.8628 39.1796 35.6156V33.9874L44.1795 37.3324L39.1796 40.6657V39.0375C39.1796 38.792 38.9809 38.5916 38.7337 38.5916H29.0512C28.8057 38.5916 28.6053 38.7903 28.6053 39.0375C28.6053 39.283 28.804 39.4834 29.0512 39.4834H38.2878V44.3148C38.2878 44.6555 38.0006 44.9428 37.6598 44.9428L11.7447 44.9411C11.3923 44.9411 11.1051 44.6589 11.1051 44.3131L11.1034 37.9888V7.64153C11.1034 6.61449 10.6542 5.69429 9.94778 5.05801H37.6615C38.0022 5.05801 38.2895 5.34525 38.2895 5.68595L38.2878 10.5157H35.7444V8.51166C35.7444 8.348 35.6542 8.19603 35.5089 8.11921C35.3653 8.04239 35.1883 8.05074 35.0513 8.14092L28.8039 12.3076C28.6804 12.3911 28.6069 12.5297 28.6069 12.6783C28.6069 12.827 28.682 12.9656 28.8039 13.0491L35.053 17.2158C35.1282 17.2642 35.2136 17.2891 35.3004 17.2891ZM38.7339 30.4854C35.7079 30.4854 33.2462 28.0238 33.2462 24.9977C33.2462 21.9716 35.7078 19.51 38.7339 19.51C41.76 19.51 44.2216 21.9716 44.2216 24.9977C44.2216 28.0238 41.76 30.4854 38.7339 30.4854ZM37.5632 23.6733C37.5632 24.1592 38.0876 24.5534 38.7339 24.5534C39.8712 24.5534 40.7947 25.3533 40.7947 26.3369C40.7947 27.182 40.1017 27.8901 39.1798 28.0654V28.5447C39.1798 28.7902 38.9811 28.9906 38.7339 28.9906C38.4884 28.9906 38.288 28.7919 38.288 28.5447V28.0654C37.3645 27.8901 36.6731 27.182 36.6731 26.3369C36.6731 26.0915 36.8719 25.891 37.1191 25.891C37.3645 25.891 37.565 26.0898 37.565 26.3369C37.565 26.8229 38.0894 27.217 38.7356 27.217C39.3803 27.217 39.9063 26.8229 39.9063 26.3369C39.9063 25.8526 39.3703 25.4435 38.7356 25.4435C37.5983 25.4435 36.6749 24.6486 36.6749 23.6733C36.6749 22.8216 37.3679 22.1085 38.2897 21.9315V21.4505C38.2897 21.205 38.4885 21.0046 38.7356 21.0046C38.9811 21.0046 39.1815 21.2034 39.1815 21.4505V21.9315C40.1051 22.1085 40.7964 22.8216 40.7964 23.6733C40.7964 23.9188 40.5977 24.1192 40.3505 24.1192C40.105 24.1192 39.9046 23.9205 39.9046 23.6733C39.9046 23.189 39.3685 22.7799 38.7339 22.7799C38.0993 22.7799 37.5632 23.189 37.5632 23.6733ZM14.5052 12.8163C14.5052 12.5708 14.704 12.3704 14.9511 12.3704H24.5319C24.7774 12.3704 24.9778 12.5691 24.9778 12.8163C24.9778 13.0618 24.7791 13.2622 24.5319 13.2622H14.9511C14.7057 13.2622 14.5052 13.0618 14.5052 12.8163ZM14.5052 15.1644C14.5052 14.9189 14.704 14.7185 14.9511 14.7185H24.5319C24.7774 14.7185 24.9778 14.9172 24.9778 15.1644C24.9778 15.4099 24.7791 15.6103 24.5319 15.6103H14.9511C14.7057 15.6103 14.5052 15.4099 14.5052 15.1644ZM14.5052 10.4817C14.5052 10.2362 14.704 10.0358 14.9511 10.0358H20.19C20.4355 10.0358 20.6359 10.2345 20.6359 10.4817C20.6359 10.7272 20.4372 10.9276 20.19 10.9276L14.9511 10.9259C14.7057 10.9259 14.5052 10.7272 14.5052 10.4817ZM14.5052 39.0355C14.5052 38.79 14.704 38.5896 14.9511 38.5896H25.7696C26.0151 38.5896 26.2155 38.7883 26.2155 39.0355C26.2155 39.281 26.0168 39.4814 25.7696 39.4814H14.9511C14.7057 39.4814 14.5052 39.281 14.5052 39.0355ZM14.5052 27.3453C14.5052 27.0999 14.704 26.8994 14.9511 26.8994H29.9978C30.2433 26.8994 30.4437 27.0982 30.4437 27.3453C30.4437 27.5908 30.245 27.7912 29.9978 27.7912H14.9511C14.7057 27.7912 14.5052 27.5925 14.5052 27.3453ZM14.5052 25.0107C14.5052 24.7652 14.704 24.5648 14.9511 24.5648H29.507C29.7525 24.5648 29.9529 24.7635 29.9529 25.0107C29.9529 25.2562 29.7542 25.4566 29.507 25.4566H14.9511C14.7057 25.4566 14.5052 25.2562 14.5052 25.0107ZM14.5052 36.7009C14.5052 36.4554 14.704 36.255 14.9511 36.255H25.7696C26.0151 36.255 26.2155 36.4537 26.2155 36.7009C26.2155 36.9464 26.0168 37.1468 25.7696 37.1468L14.9511 37.1451C14.7057 37.1451 14.5052 36.9464 14.5052 36.7009ZM14.5052 20.328C14.5052 20.0825 14.704 19.8821 14.9511 19.8821H31.778C32.0235 19.8821 32.2239 20.0809 32.2239 20.328C32.2239 20.5735 32.0252 20.7739 31.778 20.7739L14.9511 20.7723C14.7057 20.7723 14.5052 20.5735 14.5052 20.328ZM32.2491 29.6818C32.2491 29.9273 32.0504 30.1277 31.8032 30.1277H14.9511C14.7057 30.1277 14.5052 29.929 14.5052 29.6818C14.5052 29.4363 14.704 29.2359 14.9511 29.2359H31.8032C32.0487 29.2359 32.2491 29.4363 32.2491 29.6818ZM14.5052 41.372C14.5052 41.1265 14.704 40.9261 14.9511 40.9261H32.8019C33.0474 40.9261 33.2478 41.1248 33.2478 41.372C33.2478 41.6175 33.0491 41.8179 32.8019 41.8179L14.9511 41.8162C14.7057 41.8162 14.5052 41.6175 14.5052 41.372ZM32.8002 32.4624H14.9511C14.7057 32.4624 14.5052 32.2637 14.5052 32.0165C14.5052 31.771 14.704 31.5706 14.9511 31.5706H32.8019C33.0474 31.5706 33.2478 31.7693 33.2478 32.0165C33.2462 32.262 33.0474 32.4624 32.8002 32.4624ZM27.124 34.3645C27.124 34.61 26.9253 34.8104 26.6781 34.8104H14.9511C14.7057 34.8104 14.5052 34.6117 14.5052 34.3645C14.5052 34.119 14.704 33.9186 14.9511 33.9186H26.6781C26.9236 33.9203 27.124 34.119 27.124 34.3645ZM14.5052 22.6761C14.5052 22.4306 14.704 22.2302 14.9511 22.2302H29.9863C30.2318 22.2302 30.4322 22.4289 30.4322 22.6761C30.4322 22.9216 30.2334 23.122 29.9863 23.122L14.9511 23.1203C14.7057 23.1203 14.5052 22.9216 14.5052 22.6761Z" fill="#FD1716"/>
</svg>
