<svg width="50" height="50" viewBox="0 0 50 50" fill="none" xmlns="http://www.w3.org/2000/svg">
<path fill-rule="evenodd" clip-rule="evenodd" d="M25.5364 12.9438H17.1353C16.4999 12.9438 16.4999 11.9669 17.1353 11.9669H25.5364C26.1966 11.9669 26.1966 12.9438 25.5364 12.9438ZM45.3442 43.7895H4.65448C4.38544 43.7895 4.16602 43.57 4.16602 43.301V38.05C4.16602 37.7809 4.38544 37.5615 4.65448 37.5615H6.29163V13.6765C6.29163 13.4074 6.51105 13.188 6.78009 13.188H9.05068V7.15448C9.05068 6.88544 9.27011 6.66602 9.53914 6.66602H40.4596C40.7286 6.66602 40.948 6.88544 40.948 7.15448V13.188H43.2186C43.4876 13.188 43.7071 13.4074 43.7071 13.6765V37.5615H45.3442C45.6133 37.5615 45.8327 37.7809 45.8327 38.05V43.301C45.8327 43.57 45.6133 43.7895 45.3442 43.7895ZM5.14295 42.8125H44.8557V38.5384H31.4229V40.6641C31.4229 40.9331 31.2035 41.1525 30.9345 41.1525H19.0642C18.7952 41.1525 18.5758 40.9331 18.5758 40.6641V38.5384H5.14295V42.8125ZM30.446 38.5384H19.5527V40.1756H30.446V38.5384ZM39.9711 31.0395V7.64295H10.0276V31.0395H39.9711ZM7.26875 37.5615H42.7324V14.165H40.9503V31.5304C40.9503 31.7995 40.7308 32.0189 40.4618 32.0189H9.54139C9.27235 32.0189 9.05293 31.7995 9.05293 31.5304V14.165H7.27081V37.5615H7.26875ZM37.3817 26.4738H12.617C11.9816 26.4738 11.9816 25.4969 12.617 25.4969H37.3817C38.0171 25.4969 38.0171 26.4738 37.3817 26.4738ZM37.3817 28.9658H12.617C11.9816 28.9658 11.9816 27.9888 12.617 27.9888H37.3817C38.0171 27.9888 38.0171 28.9658 37.3817 28.9658ZM24.1208 23.4705H21.6537C21.3847 23.4705 21.1652 23.2759 21.1652 22.9821V18.6355C21.1652 18.3665 21.3847 18.147 21.6537 18.147H24.1208C24.3899 18.147 24.6093 18.3665 24.6093 18.6355V22.9821C24.6093 23.2511 24.3899 23.4705 24.1208 23.4705ZM22.1422 22.4936H23.6324V19.124H22.1422V22.4936ZM19.6025 23.4705H17.1354C16.8663 23.4705 16.6469 23.2759 16.6469 22.9821V15.7274C16.6469 15.4583 16.8663 15.2389 17.1354 15.2389H19.6025C19.8716 15.2389 20.091 15.4583 20.091 15.7274V22.9821C20.091 23.2511 19.8716 23.4705 19.6025 23.4705ZM17.6238 22.4936H19.1141V16.2158H17.6238V22.4936ZM15.0842 23.4705H12.6171C12.348 23.4705 12.1286 23.2759 12.1286 22.9821V13.7984C12.1286 13.5046 12.348 13.3099 12.6171 13.3099H15.0842C15.3533 13.3099 15.5727 13.5046 15.5727 13.7984V22.9821C15.5727 23.2511 15.3533 23.4705 15.0842 23.4705ZM13.1055 22.4936H14.5957V14.2869H13.1055V22.4936ZM31.6174 18.7576C31.4228 18.7576 31.2511 18.6603 31.1786 18.4886L29.5911 15.3135C29.2743 15.9489 29.0778 16.6072 28.6389 16.6072H25.6833C25.0231 16.6072 25.0231 15.6303 25.6833 15.6303H28.3451L29.1751 13.9931C29.3697 13.6516 29.883 13.6516 30.0547 14.0179L31.6422 17.2426L33.8651 13.457C34.0369 13.1631 34.5254 13.1402 34.72 13.4818L35.8438 15.5081H37.3817C38.0171 15.5081 38.0171 16.4851 37.3817 16.4851H35.55C35.3782 16.4851 35.2084 16.3877 35.1111 16.2408L34.2811 14.7029L32.0334 18.5134C31.9361 18.6851 31.7892 18.7576 31.6174 18.7576ZM21.5067 10.6979H17.1353C16.4999 10.6979 16.4999 9.72098 17.1353 9.72098H21.5067C22.1421 9.72098 22.1421 10.6979 21.5067 10.6979Z" fill="#FD1716"/>
</svg>
