<svg width="50" height="50" viewBox="0 0 50 50" fill="none" xmlns="http://www.w3.org/2000/svg">
<path d="M33.4867 37.3457C33.0289 37.3457 32.5813 37.4815 32.2006 37.7358C31.82 37.9902 31.5233 38.3517 31.3481 38.7747C31.1729 39.1977 31.127 39.6631 31.2164 40.1121C31.3057 40.5611 31.5261 40.9736 31.8499 41.2973C32.1736 41.6211 32.5861 41.8415 33.0351 41.9309C33.4841 42.0202 33.9496 41.9743 34.3725 41.7991C34.7955 41.6239 35.157 41.3272 35.4114 40.9466C35.6657 40.5659 35.8015 40.1183 35.8015 39.6605C35.8015 39.0466 35.5576 38.4578 35.1235 38.0237C34.6894 37.5896 34.1006 37.3457 33.4867 37.3457ZM33.4867 40.4321C33.3341 40.4321 33.1849 40.3869 33.058 40.3021C32.9311 40.2173 32.8322 40.0968 32.7738 39.9558C32.7154 39.8148 32.7001 39.6597 32.7299 39.51C32.7597 39.3603 32.8332 39.2228 32.9411 39.1149C33.049 39.007 33.1865 38.9335 33.3362 38.9037C33.4858 38.874 33.641 38.8892 33.782 38.9476C33.923 39.0061 34.0435 39.1049 34.1283 39.2318C34.213 39.3587 34.2583 39.5079 34.2583 39.6605C34.2583 39.8652 34.177 40.0614 34.0323 40.2061C33.8876 40.3508 33.6913 40.4321 33.4867 40.4321Z" fill="#FD1716"/>
<path d="M33.4872 33.487C26.8429 33.487 21.5767 38.8952 21.356 39.1259C21.2183 39.2695 21.1414 39.4608 21.1414 39.6598C21.1414 39.8588 21.2183 40.0501 21.356 40.1938C23.0579 41.8674 25.0225 43.2509 27.1716 44.2895H12.6539C12.4492 44.2895 12.253 44.2082 12.1083 44.0635C11.9636 43.9188 11.8823 43.7225 11.8823 43.5179V8.02404C11.8806 7.77649 11.8548 7.52969 11.8051 7.28716C11.792 7.2208 11.7727 7.15753 11.7565 7.09271C11.7131 6.91772 11.6574 6.746 11.5898 6.57882C11.562 6.50938 11.5335 6.44148 11.5011 6.37435C11.4203 6.20481 11.3269 6.04154 11.2218 5.88592C11.1901 5.83808 11.1639 5.78793 11.1307 5.74163C11.1222 5.7316 11.1168 5.71926 11.1107 5.70923H34.2588C34.8727 5.70923 35.4615 5.95311 35.8956 6.38722C36.3297 6.82133 36.5736 7.41011 36.5736 8.02404V31.646C36.5736 31.8506 36.6549 32.0469 36.7996 32.1916C36.9443 32.3363 37.1406 32.4176 37.3452 32.4176C37.5499 32.4176 37.7461 32.3363 37.8908 32.1916C38.0355 32.0469 38.1168 31.8506 38.1168 31.646V8.02404C38.1156 7.0012 37.7087 6.02061 36.9855 5.29736C36.2622 4.5741 35.2816 4.16724 34.2588 4.16602H8.02423C7.99038 4.1704 7.95686 4.1771 7.92392 4.18608C7.83133 4.18608 7.74028 4.1745 7.64769 4.18608C6.68062 4.30389 5.7909 4.774 5.14863 5.50652C4.50635 6.23904 4.15659 7.18259 4.16621 8.15676V31.1722C4.16621 31.7861 4.41009 32.3749 4.8442 32.809C5.27831 33.2431 5.8671 33.487 6.48102 33.487H8.02423C8.22888 33.487 8.42514 33.4057 8.56984 33.261C8.71454 33.1163 8.79584 32.92 8.79584 32.7154C8.79584 32.5108 8.71454 32.3145 8.56984 32.1698C8.42514 32.0251 8.22888 31.9438 8.02423 31.9438H6.48102C6.27638 31.9438 6.08012 31.8625 5.93542 31.7178C5.79071 31.5731 5.70942 31.3768 5.70942 31.1722V8.15676C5.69668 7.56559 5.90203 6.99043 6.28628 6.541C6.67053 6.09157 7.20679 5.79933 7.79275 5.72003C7.91347 5.71114 8.03468 5.71114 8.15541 5.72003C8.23292 5.72409 8.31018 5.73207 8.38689 5.74395C8.54207 5.77091 8.69464 5.81118 8.84291 5.86432C8.91182 5.89144 8.9793 5.92209 9.04507 5.95614C9.11833 5.99088 9.18967 6.02951 9.2588 6.07188C9.32614 6.1162 9.39105 6.16411 9.45325 6.2154C9.51198 6.25895 9.56839 6.30557 9.62223 6.35506C9.68377 6.41673 9.74198 6.48163 9.79661 6.5495C9.83905 6.6012 9.88534 6.64904 9.92315 6.70382C9.98025 6.78862 10.0318 6.87703 10.0775 6.96848C10.1006 7.01401 10.1299 7.05645 10.1508 7.10352C10.2003 7.22192 10.2398 7.34426 10.2688 7.46926C10.2758 7.49626 10.2874 7.52095 10.2935 7.54642C10.3251 7.70364 10.3403 7.86369 10.339 8.02404V43.5179C10.339 44.1318 10.5829 44.7206 11.017 45.1547C11.4512 45.5888 12.0399 45.8327 12.6539 45.8327H33.4872C40.1315 45.8327 45.3977 40.4245 45.6184 40.1938C45.7561 40.0501 45.833 39.8588 45.833 39.6598C45.833 39.4608 45.7561 39.2695 45.6184 39.1259C45.3977 38.8952 40.1315 33.487 33.4872 33.487ZM28.3985 43.1467C26.4413 42.2684 24.632 41.0922 23.035 39.6598C24.6318 38.2241 26.4426 37.0461 28.4023 36.1683C27.695 37.1946 27.3162 38.4115 27.3162 39.6579C27.3162 40.9043 27.695 42.1213 28.4023 43.1475L28.3985 43.1467ZM33.4872 44.2895C32.5715 44.2895 31.6765 44.018 30.9151 43.5092C30.1538 43.0005 29.5604 42.2775 29.21 41.4315C28.8596 40.5856 28.7679 39.6547 28.9465 38.7566C29.1252 37.8586 29.5661 37.0337 30.2136 36.3862C30.861 35.7387 31.6859 35.2978 32.584 35.1192C33.4821 34.9405 34.4129 35.0322 35.2589 35.3826C36.1048 35.733 36.8279 36.3264 37.3366 37.0878C37.8453 37.8491 38.1168 38.7442 38.1168 39.6598C38.1156 40.8873 37.6274 42.0642 36.7595 42.9321C35.8915 43.8001 34.7147 44.2882 33.4872 44.2895ZM38.5721 43.1521C39.2794 42.1259 39.6582 40.9089 39.6582 39.6625C39.6582 38.4162 39.2794 37.1992 38.5721 36.173C40.5306 37.0509 42.3412 38.2272 43.9394 39.6598C42.3427 41.0958 40.5318 42.2741 38.5721 43.1521Z" fill="#FD1716"/>
<path d="M15.7404 13.426C16.1665 13.426 16.512 13.0806 16.512 12.6544C16.512 12.2283 16.1665 11.8828 15.7404 11.8828C15.3142 11.8828 14.9688 12.2283 14.9688 12.6544C14.9688 13.0806 15.3142 13.426 15.7404 13.426Z" fill="#FD1716"/>
<path d="M19.5978 13.426H31.9435C32.1481 13.426 32.3444 13.3447 32.4891 13.2C32.6338 13.0553 32.7151 12.8591 32.7151 12.6544C32.7151 12.4498 32.6338 12.2535 32.4891 12.1088C32.3444 11.9641 32.1481 11.8828 31.9435 11.8828H19.5978C19.3931 11.8828 19.1969 11.9641 19.0522 12.1088C18.9075 12.2535 18.8262 12.4498 18.8262 12.6544C18.8262 12.8591 18.9075 13.0553 19.0522 13.2C19.1969 13.3447 19.3931 13.426 19.5978 13.426Z" fill="#FD1716"/>
<path d="M15.7404 18.0549C16.1665 18.0549 16.512 17.7095 16.512 17.2833C16.512 16.8572 16.1665 16.5117 15.7404 16.5117C15.3142 16.5117 14.9688 16.8572 14.9688 17.2833C14.9688 17.7095 15.3142 18.0549 15.7404 18.0549Z" fill="#FD1716"/>
<path d="M19.5978 18.0549H25.7706C25.9753 18.0549 26.1715 17.9736 26.3162 17.8289C26.4609 17.6842 26.5422 17.488 26.5422 17.2833C26.5422 17.0787 26.4609 16.8824 26.3162 16.7377C26.1715 16.593 25.9753 16.5117 25.7706 16.5117H19.5978C19.3931 16.5117 19.1969 16.593 19.0522 16.7377C18.9075 16.8824 18.8262 17.0787 18.8262 17.2833C18.8262 17.488 18.9075 17.6842 19.0522 17.8289C19.1969 17.9736 19.3931 18.0549 19.5978 18.0549Z" fill="#FD1716"/>
<path d="M15.7404 22.6838C16.1665 22.6838 16.512 22.3384 16.512 21.9122C16.512 21.4861 16.1665 21.1406 15.7404 21.1406C15.3142 21.1406 14.9688 21.4861 14.9688 21.9122C14.9688 22.3384 15.3142 22.6838 15.7404 22.6838Z" fill="#FD1716"/>
<path d="M19.5978 22.6838H28.857C29.0617 22.6838 29.2579 22.6025 29.4026 22.4578C29.5473 22.3131 29.6286 22.1169 29.6286 21.9122C29.6286 21.7076 29.5473 21.5113 29.4026 21.3666C29.2579 21.2219 29.0617 21.1406 28.857 21.1406H19.5978C19.3931 21.1406 19.1969 21.2219 19.0522 21.3666C18.9075 21.5113 18.8262 21.7076 18.8262 21.9122C18.8262 22.1169 18.9075 22.3131 19.0522 22.4578C19.1969 22.6025 19.3931 22.6838 19.5978 22.6838Z" fill="#FD1716"/>
<path d="M15.7404 27.3147C16.1665 27.3147 16.512 26.9692 16.512 26.5431C16.512 26.1169 16.1665 25.7715 15.7404 25.7715C15.3142 25.7715 14.9688 26.1169 14.9688 26.5431C14.9688 26.9692 15.3142 27.3147 15.7404 27.3147Z" fill="#FD1716"/>
<path d="M33.4867 26.5431C33.4867 26.3384 33.4054 26.1422 33.2607 25.9975C33.116 25.8528 32.9197 25.7715 32.7151 25.7715H19.5978C19.3931 25.7715 19.1969 25.8528 19.0522 25.9975C18.9075 26.1422 18.8262 26.3384 18.8262 26.5431C18.8262 26.7477 18.9075 26.944 19.0522 27.0887C19.1969 27.2334 19.3931 27.3147 19.5978 27.3147H32.7151C32.9197 27.3147 33.116 27.2334 33.2607 27.0887C33.4054 26.944 33.4867 26.7477 33.4867 26.5431Z" fill="#FD1716"/>
<path d="M15.7404 31.9436C16.1665 31.9436 16.512 31.5981 16.512 31.172C16.512 30.7458 16.1665 30.4004 15.7404 30.4004C15.3142 30.4004 14.9688 30.7458 14.9688 31.172C14.9688 31.5981 15.3142 31.9436 15.7404 31.9436Z" fill="#FD1716"/>
<path d="M19.5978 30.4004C19.3931 30.4004 19.1969 30.4817 19.0522 30.6264C18.9075 30.7711 18.8262 30.9674 18.8262 31.172C18.8262 31.3766 18.9075 31.5729 19.0522 31.7176C19.1969 31.8623 19.3931 31.9436 19.5978 31.9436H21.9126C22.1172 31.9436 22.3135 31.8623 22.4582 31.7176C22.6029 31.5729 22.6842 31.3766 22.6842 31.172C22.6842 30.9674 22.6029 30.7711 22.4582 30.6264C22.3135 30.4817 22.1172 30.4004 21.9126 30.4004H19.5978Z" fill="#FD1716"/>
</svg>
