<svg width="50" height="50" viewBox="0 0 50 50" fill="none" xmlns="http://www.w3.org/2000/svg">
<path d="M12.6905 15.7599C16.3238 13.9898 20.749 15.5736 22.4725 19.2069C23.637 21.5825 23.4041 24.3774 21.9136 26.5201L29.4131 42.1247C29.5062 42.311 29.5062 42.5905 29.4131 42.7768C29.1802 43.2427 28.9939 43.7085 28.8541 44.2209C28.8075 44.4072 28.6678 44.5935 28.4815 44.6867L27.2704 45.2922C27.084 45.3854 26.8511 45.3854 26.6648 45.2922L25.5003 44.7798C25.3605 44.6867 25.2208 44.5935 25.1276 44.4072L24.5687 43.2892L23.7768 42.9166C23.4507 42.7768 23.311 42.4508 23.3576 42.0781L23.5439 41.1465L22.7986 39.6093L21.6341 39.3299C21.4012 39.2833 21.2148 39.1435 21.1217 38.9106L20.0969 36.7679C19.9572 36.535 20.0037 36.2089 20.1901 35.976L20.749 35.3239L20.2366 34.2991L19.0721 34.1594C18.8392 34.1128 18.6063 33.973 18.5131 33.7401L17.8144 32.2961L16.6499 31.8303C16.4636 31.7837 16.3238 31.644 16.2773 31.4577L15.3922 29.641C12.7837 29.4547 10.3615 27.8709 9.24353 25.4953C7.52004 21.9086 9.05721 17.4834 12.6905 15.7599ZM27.9691 42.4508L20.423 26.753C20.2832 26.5201 20.3298 26.194 20.5161 26.0077C21.9136 24.2376 22.1465 21.862 21.1683 19.859C19.7708 16.9244 16.2307 15.6667 13.2961 17.1107C10.3615 18.5082 9.10379 22.0483 10.5478 24.9829C11.526 27.0325 13.5756 28.3367 15.858 28.3367C16.1375 28.3367 16.417 28.4765 16.5102 28.756L17.4418 30.7124L18.6063 31.1782C18.7926 31.2248 18.9324 31.3645 18.979 31.5508L19.6311 32.9017L20.7956 33.0414C21.0285 33.088 21.2614 33.2277 21.3546 33.4607L22.2396 35.2773C22.3794 35.5102 22.3328 35.8363 22.1465 36.0692L21.5875 36.7213L22.2862 38.1187L23.4507 38.3982C23.6836 38.4448 23.87 38.5846 23.9631 38.8175L24.9413 40.867C24.9879 41.0068 25.0345 41.1931 24.9879 41.3328L24.8482 41.9384L25.3605 42.1713C25.5003 42.2645 25.64 42.3576 25.7332 42.5439L26.2922 43.6619L26.8977 43.9414L27.5498 43.6153C27.643 43.1495 27.7828 42.7768 27.9691 42.4508ZM13.8085 17.9958C14.9264 17.4368 16.3238 17.9492 16.8362 19.0671C17.3952 20.1851 16.8828 21.5825 15.7649 22.0949C14.6469 22.6539 13.2495 22.1415 12.7371 21.0235C12.1781 19.9056 12.6439 18.5547 13.8085 17.9958ZM15.1127 20.7906C15.532 20.6043 15.6717 20.0919 15.4854 19.7193C15.2991 19.3 14.7867 19.1603 14.414 19.3466C13.9948 19.5329 13.855 20.0453 14.0414 20.418C14.2277 20.8372 14.7401 20.977 15.1127 20.7906Z" fill="#FD1716"/>
<path d="M45.7629 26.7994C45.53 26.3336 45.3902 25.8678 45.2971 25.3554C45.2505 25.1225 45.1108 24.9362 44.8779 24.843L29.0403 17.8093C28.7608 15.2007 27.1305 12.9649 24.7083 11.8469C21.8669 10.5892 18.6528 11.2879 16.5566 13.3375C17.2088 13.3841 17.8609 13.5238 18.4665 13.6636C20.0968 12.5922 22.2395 12.3127 24.1493 13.1512C26.1989 14.0828 27.5497 16.0392 27.6429 18.2751C27.6429 18.5546 27.8292 18.7875 28.0621 18.9272L43.9462 26.0075C44.0394 26.3802 44.1791 26.7062 44.3189 27.0789L44.0394 27.731L43.3873 27.9173L42.2227 27.405C42.083 27.3118 41.8967 27.3118 41.7104 27.3584L41.198 27.4981L40.9185 26.9857C40.8253 26.846 40.7322 26.7528 40.5924 26.6597L38.4963 25.728C38.3099 25.6349 38.077 25.6349 37.8441 25.728L36.8194 26.287L35.3753 25.6349L35.3288 24.7964C35.3288 24.5169 35.1424 24.284 34.9095 24.1443L33.0929 23.3524C32.86 23.2592 32.5805 23.2592 32.3942 23.399L31.416 24.0511L30.0185 23.4456C29.8322 23.3524 29.6459 23.3524 29.5061 23.399L28.295 23.8182L26.2921 22.9332C26.0126 22.84 25.7331 22.84 25.5002 23.0263C25.3139 23.1661 25.1275 23.3058 24.9412 23.4456C24.8481 24.0977 24.7549 24.7033 24.522 25.3088C25.081 25.0759 25.5933 24.7964 26.0592 24.4238L27.9224 25.2622C28.1087 25.3554 28.295 25.3554 28.4348 25.3088L29.6459 24.8896L31.1365 25.5417C31.3694 25.6349 31.6489 25.6349 31.8352 25.4951L32.8134 24.843L33.8382 25.3088L33.8848 26.1473C33.8848 26.4268 34.0711 26.6597 34.304 26.7994L36.4933 27.7776C36.6796 27.8708 36.9125 27.8708 37.1454 27.7776L38.1702 27.2186L39.7074 27.9173L40.1732 28.7558C40.3595 29.0353 40.6856 29.2216 41.0116 29.1284L41.8501 28.8955L43.0146 29.4079C43.1544 29.5011 43.3407 29.5011 43.527 29.4545L44.7381 29.0819C44.9244 29.0353 45.1108 28.8955 45.2039 28.6626L45.7629 27.405C45.8561 27.2186 45.8561 26.9857 45.7629 26.7994Z" fill="#FD1716"/>
<path d="M8.03224 18.0892C6.63481 16.8781 5.74977 15.1081 5.74977 13.1051C5.74977 9.47177 8.68437 6.53717 12.3177 6.53717C14.9262 6.53717 17.2087 8.07434 18.2335 10.3568C18.6993 10.1239 19.2117 9.98416 19.7241 9.84442C18.4664 7.00298 15.6249 5 12.2711 5C7.79933 5 4.16602 8.63332 4.16602 13.1051C4.16602 15.7602 5.4237 18.0892 7.3801 19.5798C7.56643 19.0674 7.79933 18.5551 8.03224 18.0892Z" fill="#FD1716"/>
</svg>
