<svg width="51" height="50" viewBox="0 0 51 50" fill="none" xmlns="http://www.w3.org/2000/svg">
<path d="M44.548 36.462H6.08832C5.66391 36.462 5.31836 36.1183 5.31836 35.692V9.06298C5.31836 8.63857 5.6639 8.29301 6.08832 8.29301H11.1232C11.5495 8.29301 11.8931 8.63855 11.8931 9.06298C11.8931 9.48739 11.5495 9.83107 11.1232 9.83107H6.85843V34.9255L43.7783 34.9274V9.83102H39.5136C39.0873 9.83102 38.7436 9.48736 38.7436 9.06293C38.7436 8.63852 39.0873 8.29297 39.5136 8.29297H44.5484C44.7531 8.29297 44.9484 8.37372 45.093 8.51832C45.2357 8.66292 45.3184 8.85822 45.3184 9.06291V35.6953C45.3165 36.1197 44.9728 36.4615 44.5484 36.4615L44.548 36.462Z" fill="#FD1716"/>
<path d="M32.4071 43.8535H18.2289C17.919 43.8535 17.6373 43.6657 17.519 43.3784C17.4007 43.0911 17.4664 42.7606 17.6862 42.5409C19.581 40.6573 20.8241 38.216 21.2317 35.5739C21.2993 35.157 21.6917 34.8734 22.1086 34.9391C22.5255 35.003 22.8128 35.3936 22.7509 35.8105C22.3866 38.1842 21.4176 40.4246 19.9377 42.3155H30.7021C29.2223 40.4244 28.2533 38.184 27.889 35.8105C27.8571 35.4086 28.1387 35.0518 28.5369 34.9899C28.935 34.9279 29.3125 35.1833 29.4045 35.5739C29.812 38.2161 31.0533 40.6573 32.9481 42.5409C33.1678 42.7606 33.2336 43.0911 33.1153 43.3784C32.997 43.6657 32.7153 43.8535 32.4054 43.8535H32.4071Z" fill="#FD1716"/>
<path d="M44.548 30.8935H6.08832C5.66391 30.8935 5.31836 30.548 5.31836 30.1236C5.31836 29.6991 5.6639 29.3555 6.08832 29.3555H44.548C44.9724 29.3555 45.318 29.6991 45.318 30.1236C45.318 30.548 44.9725 30.8935 44.548 30.8935Z" fill="#FD1716"/>
<path d="M27.2464 33.6767H23.3892C22.9648 33.6767 22.6211 33.3331 22.6211 32.9068C22.6211 32.4824 22.9648 32.1387 23.3892 32.1387H27.2464C27.6708 32.1387 28.0145 32.4823 28.0145 32.9068C28.0145 33.333 27.6708 33.6767 27.2464 33.6767Z" fill="#FD1716"/>
<path d="M14.2088 27.9848C13.5591 27.9792 12.9168 27.8383 12.3234 27.5717C11.3713 27.1472 10.5525 26.4712 9.95722 25.6167C8.69901 23.8008 8.52623 20.6006 8.50935 19.3089C8.47743 16.7136 8.9394 11.9419 10.0699 9.45357C10.2896 8.96908 10.5431 8.49958 10.8304 8.04888C11.9459 6.31367 13.3788 5.25454 15.0952 4.89961C17.5872 4.38506 20.0565 5.21885 21.542 7.07609C21.5852 7.13055 21.6284 7.18501 21.6716 7.24135C21.8237 7.43853 21.9683 7.62632 22.1091 7.70519C22.2913 7.8066 22.6143 7.80847 22.8997 7.80847H27.737C28.0224 7.80847 28.3454 7.80847 28.5276 7.70706C28.6684 7.62819 28.813 7.4404 28.967 7.24322C29.0102 7.18876 29.0515 7.13242 29.0947 7.07796C30.5801 5.2207 33.0496 4.38502 35.5415 4.90148C37.2561 5.25453 38.6908 6.31555 39.8063 8.05076V8.04888C40.0936 8.49958 40.3471 8.96907 40.5668 9.45357C41.6973 11.9418 42.1593 16.7152 42.1274 19.3089C42.1105 20.6009 41.9358 23.8009 40.6795 25.6167H40.6776C40.0842 26.4712 39.2654 27.1472 38.3133 27.5717C37.2729 28.028 36.2044 28.1069 35.2223 27.8045C33.7049 27.335 32.7378 26.09 32.1932 25.1285C31.8026 24.4374 31.5284 23.4665 31.2636 22.5295L31.226 22.3961C30.4842 23.1003 29.4815 23.5248 28.4486 23.5248C28.3622 23.5248 28.2777 23.521 28.1913 23.5154C27.0571 23.4365 26.0092 22.8431 25.3181 21.9624C24.627 22.8412 23.5792 23.4365 22.4449 23.5154C21.3219 23.5924 20.2121 23.1567 19.4083 22.3943L19.3707 22.5276C19.106 23.4666 18.8336 24.4356 18.4412 25.1266C17.8966 26.0881 16.9313 27.3332 15.4121 27.8027H15.414C15.0234 27.9247 14.6177 27.9848 14.2083 27.9848L14.2088 27.9848ZM16.5431 6.28732C16.1619 6.28919 15.7807 6.32863 15.407 6.40562C14.1131 6.67229 13.0089 7.50423 12.1263 8.87882H12.1244C11.8784 9.26568 11.6605 9.66941 11.4727 10.0882C10.4511 12.3379 10.0192 16.909 10.0493 19.2902C10.0793 21.6845 10.5188 23.7239 11.223 24.7418C12.0023 25.8667 13.5366 26.7756 14.96 26.3343C15.7675 26.0845 16.5299 25.3878 17.1046 24.37C17.4032 23.8404 17.6529 22.9597 17.8914 22.1109C18.0717 21.4705 18.2426 20.8659 18.4416 20.3776H18.4435C18.5618 20.0865 18.8435 19.8987 19.1571 19.8987H19.1646C19.482 19.9024 19.7637 20.1015 19.8745 20.3964C20.2407 21.371 21.3017 22.0527 22.3402 21.9813C23.3787 21.91 24.3345 21.0893 24.5637 20.0733C24.6425 19.7222 24.9543 19.4724 25.3129 19.4724H25.3223C25.6829 19.4724 25.9946 19.7222 26.0735 20.0715C26.3026 21.0874 27.2584 21.9081 28.297 21.9795C28.3458 21.9832 28.3984 21.9851 28.4472 21.9851C29.4368 21.9851 30.4133 21.3241 30.7608 20.3964L30.7627 20.3945C30.8735 20.0997 31.1551 19.9025 31.4725 19.8968H31.4838C31.7955 19.8987 32.0754 20.0865 32.1937 20.3757C32.3927 20.8639 32.5636 21.4686 32.7439 22.109C32.9843 22.9597 33.2321 23.8405 33.5307 24.3681C34.1072 25.3841 34.8659 26.0808 35.6753 26.3305C37.1006 26.7719 38.633 25.8629 39.4123 24.7381C40.1184 23.7259 40.5578 21.6846 40.5898 19.2903C40.6198 16.9091 40.1879 12.3363 39.1663 10.0883C38.9785 9.66952 38.7588 9.26578 38.5128 8.87893C37.6302 7.50428 36.526 6.6724 35.2321 6.40573C33.3091 6.00949 31.4199 6.63295 30.2967 8.03762C30.2592 8.08644 30.2216 8.13339 30.1841 8.18222C29.9662 8.46578 29.6939 8.81695 29.2789 9.04795C28.7493 9.34466 28.1653 9.34653 27.7409 9.34653H22.9017C22.4754 9.34653 21.8914 9.34653 21.36 9.04795C20.9468 8.81696 20.6745 8.46581 20.4567 8.18222C20.4191 8.13339 20.3816 8.08644 20.344 8.03762C19.4426 6.91277 18.0511 6.28732 16.5431 6.28732Z" fill="#FD1716"/>
<path d="M26.9935 13.0951H23.6433C22.3081 13.0951 21.2227 11.8783 21.2227 10.3816V8.48676C21.2227 8.06047 21.5682 7.7168 21.9926 7.7168C22.417 7.7168 22.7607 8.06045 22.7607 8.48676V10.3816C22.7607 11.0182 23.1645 11.5571 23.6433 11.5571H26.9935C27.4705 11.5571 27.8761 11.0201 27.8761 10.3816V8.48676C27.8761 8.06047 28.2198 7.7168 28.6442 7.7168C29.0686 7.7168 29.4142 8.06045 29.4142 8.48676V10.3816C29.4142 11.8783 28.3288 13.0951 26.9935 13.0951Z" fill="#FD1716"/>
<path d="M25.7726 11.1728H24.8637C24.4393 11.1728 24.0938 10.8292 24.0938 10.4047C24.0938 9.9803 24.4393 9.63477 24.8637 9.63477H25.7726C26.197 9.63477 26.5426 9.9803 26.5426 10.4047C26.5426 10.8292 26.197 11.1728 25.7726 11.1728Z" fill="#FD1716"/>
<path d="M13.2751 16.1095C12.3925 16.1076 11.6337 15.4841 11.461 14.6165C11.2901 13.7508 11.754 12.885 12.5709 12.547C13.3859 12.209 14.3267 12.4963 14.8169 13.2306C15.307 13.9649 15.2093 14.9433 14.5859 15.5667C14.2385 15.9142 13.7671 16.1095 13.2751 16.1095ZM13.2751 13.9461C13.1924 13.9442 13.1136 13.978 13.0535 14.0362C12.9483 14.1433 12.9314 14.3085 13.0159 14.4344C13.0985 14.5583 13.2582 14.6071 13.3971 14.5489C13.5342 14.4926 13.6131 14.3442 13.5849 14.1977C13.5549 14.0513 13.4253 13.9442 13.2751 13.9461Z" fill="#FD1716"/>
<path d="M16.2926 13.0923C15.4081 13.0923 14.6494 12.4688 14.4766 11.6012C14.3057 10.7355 14.7696 9.86791 15.5846 9.53177C16.4015 9.19375 17.3423 9.47918 17.8325 10.2135C18.3226 10.9477 18.2268 11.9261 17.6015 12.5515C17.2541 12.8989 16.7827 13.0942 16.2926 13.0923ZM16.2926 10.929C16.1423 10.929 16.0128 11.036 15.9846 11.1825C15.9545 11.329 16.0334 11.4773 16.1724 11.5336C16.3113 11.59 16.471 11.543 16.5536 11.4172C16.6362 11.2933 16.6193 11.128 16.5142 11.021C16.4559 10.9628 16.3752 10.929 16.2926 10.929Z" fill="#FD1716"/>
<path d="M16.5941 19.4263C15.7115 19.4263 14.9509 18.8028 14.78 17.9352C14.6073 17.0695 15.0711 16.2019 15.888 15.8658C16.703 15.5277 17.6439 15.8132 18.1359 16.5475C18.626 17.2817 18.5284 18.2601 17.903 18.8855C17.5575 19.2329 17.0861 19.4282 16.5941 19.4263ZM16.5941 17.2629C16.4439 17.2629 16.3162 17.37 16.2861 17.5165C16.2561 17.6629 16.3349 17.8094 16.4739 17.8676C16.6129 17.9258 16.7725 17.877 16.8551 17.7512C16.9378 17.6273 16.9227 17.462 16.8157 17.355C16.7575 17.2967 16.6786 17.2629 16.5941 17.2629Z" fill="#FD1716"/>
<path d="M19.6117 16.4107C18.7272 16.4107 17.9685 15.7853 17.7976 14.9196C17.6249 14.0539 18.0887 13.1863 18.9056 12.8501C19.7206 12.5121 20.6614 12.7975 21.1516 13.5318C21.6417 14.2679 21.546 15.2445 20.9206 15.8698C20.5732 16.2173 20.1018 16.4126 19.6117 16.4107ZM19.6117 14.2473C19.4614 14.2473 19.3319 14.3525 19.3037 14.5008C19.2755 14.6473 19.3544 14.7938 19.4915 14.8501C19.6305 14.9083 19.7901 14.8595 19.8727 14.7337C19.9553 14.6098 19.9384 14.4445 19.8333 14.3393C19.7732 14.2792 19.6943 14.2473 19.6117 14.2473Z" fill="#FD1716"/>
<path d="M35.247 19.4281H33.14C32.7156 19.4281 32.3701 19.0844 32.3701 18.6581V16.2319H29.9438C29.5194 16.2319 29.1738 15.8863 29.1738 15.4619V13.3549C29.1738 12.9305 29.5194 12.5849 29.9438 12.5849H32.3701V10.1586C32.3701 9.73423 32.7156 9.38867 33.14 9.38867H35.2489H35.247C35.4517 9.38867 35.647 9.4713 35.7916 9.61402C35.9362 9.75862 36.017 9.95392 36.017 10.1586V12.5849H38.4433C38.6461 12.5849 38.8433 12.6656 38.986 12.8102C39.1306 12.9548 39.2113 13.1501 39.2113 13.3548V15.4618C39.2113 15.6665 39.1306 15.8618 38.986 16.0064C38.8433 16.151 38.6461 16.2318 38.4433 16.2318H36.017V18.6599V18.6581C36.017 18.8628 35.9362 19.0581 35.7916 19.2026C35.647 19.3472 35.4517 19.4281 35.247 19.4281ZM33.9081 17.8901H34.4771L34.479 15.4619C34.479 15.0375 34.8226 14.6939 35.2471 14.6939H37.6733V14.123H35.2471C34.8226 14.123 34.479 13.7793 34.479 13.3549V10.9286H33.9081V13.3549C33.9081 13.5596 33.8273 13.7549 33.6827 13.8995C33.54 14.0422 33.3428 14.1229 33.14 14.1229H30.7137V14.6919H33.14V14.6938C33.3428 14.6938 33.54 14.7746 33.6827 14.9192C33.8273 15.0619 33.9081 15.2591 33.9081 15.4619L33.9081 17.8901Z" fill="#FD1716"/>
<path d="M26.2942 18.2487H24.3411C23.2538 18.2487 22.373 17.368 22.373 16.2825C22.373 15.1952 23.2538 14.3145 24.3411 14.3145H26.2942C27.3815 14.3145 28.2622 15.1952 28.2622 16.2825C28.2622 17.368 27.3815 18.2487 26.2942 18.2487ZM24.3411 15.8525V15.8543C24.1045 15.8543 23.9111 16.0459 23.9111 16.2825C23.9111 16.5191 24.1045 16.7107 24.3411 16.7107H26.2942C26.5308 16.7107 26.7242 16.5191 26.7242 16.2825C26.7242 16.0459 26.5308 15.8543 26.2942 15.8543L24.3411 15.8525Z" fill="#FD1716"/>
<path d="M26.4458 9.3458C26.0214 9.3458 25.6777 9.00027 25.6777 8.57584C25.6777 8.26598 25.8655 7.98428 26.1528 7.86597C26.4402 7.74578 26.7707 7.81151 26.9904 8.03311C27.2101 8.25282 27.2758 8.58332 27.1575 8.87066C27.0374 9.15799 26.7576 9.3458 26.4458 9.3458Z" fill="#FD1716"/>
<path d="M24.1918 9.3458C23.7655 9.3458 23.4219 9.00027 23.4219 8.57584C23.4219 8.26598 23.6097 7.98428 23.897 7.86597C24.1843 7.74578 24.5148 7.81151 24.7345 8.03311C24.9543 8.25282 25.02 8.58332 24.9017 8.87066C24.7834 9.15799 24.5017 9.3458 24.1918 9.3458Z" fill="#FD1716"/>
</svg>
