<svg width="51" height="50" viewBox="0 0 51 50" fill="none" xmlns="http://www.w3.org/2000/svg">
<path d="M37.2019 9.68256C36.7263 9.635 36.3798 9.20693 36.4274 8.73133C36.4749 8.2557 36.903 7.90921 37.3786 7.95678C37.8542 8.00774 38.3774 8.0553 38.9448 8.09777C39.5138 8.14193 40.0624 8.1776 40.589 8.20478C41.0527 8.22856 41.4128 8.61245 41.4128 9.07108L41.4162 20.3684C41.4162 27.1986 40.2798 31.9189 37.6657 35.6373C35.06 39.3436 31.0325 41.9817 25.2299 44.6703C24.9904 44.7808 24.7254 44.7723 24.5029 44.6703C23.5007 44.2066 22.5307 43.731 21.5914 43.2418C20.6606 42.756 19.7926 42.2702 18.9908 41.781C18.5814 41.5313 18.4523 40.9979 18.702 40.5885C18.9518 40.1792 19.4851 40.05 19.8945 40.2997C20.686 40.7822 21.5201 41.2493 22.3949 41.7062C23.1575 42.1037 23.9831 42.5097 24.8681 42.9258C30.2002 40.4221 33.8999 37.9794 36.2472 34.6398C38.6388 31.2375 39.6784 26.826 39.6784 20.3681V9.88914L38.8188 9.82969C38.3025 9.78892 37.7657 9.73966 37.2052 9.68021L37.2019 9.68256ZM23.0576 20.8834H26.674C27.1547 20.8834 27.5437 21.2724 27.5437 21.7531V22.3595C28.2231 22.1013 28.9383 21.9705 29.65 21.9705C30.4637 21.9705 31.279 22.1386 32.0417 22.4767C32.8061 22.1387 33.6214 21.9705 34.435 21.9705C34.8954 21.9705 35.3574 22.0248 35.8092 22.1336C35.3914 19.7317 34.204 17.5998 32.5173 15.9983C30.5231 14.1026 27.824 12.9442 24.8631 12.9442C21.9041 12.9442 19.2049 14.1026 17.2089 15.9983C15.5222 17.6018 14.3365 19.7318 13.917 22.1336C14.3689 22.0248 14.8309 21.9705 15.2912 21.9705C16.1032 21.9705 16.9202 22.1386 17.6846 22.4767C18.4472 22.1387 19.2643 21.9705 20.0762 21.9705C20.7879 21.9705 21.5031 22.0996 22.1825 22.3595V21.7531C22.1825 21.2723 22.5715 20.8834 23.0522 20.8834H23.0576ZM27.5435 24.2619V26.1083H31.8972C32.3779 26.1083 32.7669 26.4973 32.7669 26.978V30.5944C32.7669 31.0751 32.3779 31.4641 31.8972 31.4641H27.5435V35.8178C27.5435 36.2985 27.1545 36.6875 26.6738 36.6875H23.0575C22.5767 36.6875 22.1878 36.2985 22.1878 35.8178V31.4641H17.8341C17.3533 31.4641 16.9644 31.0751 16.9644 30.5944V26.978C16.9644 26.4973 17.3534 26.1083 17.8341 26.1083H22.1878V24.2602C22.1453 24.2449 22.1028 24.228 22.0638 24.2059C21.4471 23.8763 20.766 23.7116 20.0815 23.7116C19.3969 23.7116 18.7141 23.8764 18.0992 24.2076C17.8325 24.3503 17.525 24.3401 17.277 24.2076C16.6621 23.878 15.9793 23.7116 15.2947 23.7116C14.6102 23.7116 13.9291 23.8764 13.3124 24.2076C12.8912 24.4335 12.3646 24.2755 12.137 23.8543C12.0589 23.7099 12.0266 23.5519 12.0351 23.399C12.2084 19.9848 13.7066 16.9341 16.015 14.7412C18.3251 12.5466 21.4453 11.2047 24.8632 11.2047C28.2809 11.2047 31.4029 12.5466 33.7115 14.7412C36.02 16.9341 37.5181 19.985 37.6914 23.399C37.7152 23.878 37.3466 24.2857 36.8693 24.3095C36.7045 24.318 36.5499 24.2789 36.414 24.2076C35.7991 23.878 35.1163 23.7116 34.4317 23.7116C33.7472 23.7116 33.0643 23.8764 32.4494 24.2076C32.1827 24.3503 31.8753 24.3401 31.6273 24.2076C31.0124 23.878 30.3295 23.7116 29.645 23.7116C28.9605 23.7116 28.2776 23.8764 27.6627 24.2076C27.6219 24.2297 27.5795 24.2483 27.5387 24.2619L27.5435 24.2619ZM25.8041 22.6245H23.9272V26.9782C23.9272 27.4589 23.5382 27.8479 23.0575 27.8479H18.7038V29.7248H23.0575C23.5382 29.7248 23.9272 30.1138 23.9272 30.5945V34.9482H25.8041V30.5945C25.8041 30.1138 26.1931 29.7248 26.6738 29.7248H31.0275V27.8479H26.6738C26.1931 27.8479 25.8041 27.4589 25.8041 26.9782V22.6245ZM16.9015 38.2212C17.2752 38.5235 17.3329 39.0705 17.0306 39.4442C16.7282 39.8179 16.1813 39.8756 15.8076 39.5733L15.6938 39.4815C15.3201 39.1792 15.2623 38.6322 15.5647 38.2585C15.867 37.8848 16.414 37.8271 16.7877 38.1294L16.9015 38.2212ZM14.2177 35.6002C14.5217 35.9688 14.469 36.5158 14.0987 36.8198C13.7301 37.1239 13.1832 37.0712 12.8791 36.7009C11.2756 34.7543 10.1291 32.5274 9.38848 29.8368C8.65637 27.1802 8.31836 24.0851 8.31836 20.3702V9.07285C8.31836 8.59212 8.70734 8.20315 9.18806 8.20315H9.20844C12.3288 8.04178 15.0211 7.67998 17.4927 7.11942C19.9727 6.55716 22.2474 5.7894 24.5268 4.81947C24.7527 4.72264 24.9973 4.73114 25.2063 4.81947C26.5686 5.39869 27.9258 5.90489 29.3186 6.33635C30.7166 6.7695 32.1621 7.13129 33.6958 7.42008C34.1663 7.5084 34.4772 7.96194 34.3889 8.43244C34.3005 8.90295 33.847 9.21382 33.3765 9.12551C31.7764 8.82485 30.2697 8.44606 28.8089 7.99421C27.4618 7.57634 26.159 7.09903 24.8664 6.55886C22.614 7.49822 20.3461 8.24898 17.8714 8.81124C15.5052 9.34802 12.9554 9.70811 10.0559 9.89158V20.3705C10.0559 23.9445 10.3718 26.8898 11.0581 29.3749C11.7341 31.826 12.7704 33.8456 14.2177 35.6002Z" fill="#FD1716"/>
</svg>
