<svg width="50" height="50" viewBox="0 0 50 50" fill="none" xmlns="http://www.w3.org/2000/svg">
<path d="M36.2159 40.9462C36.3617 41.1736 36.2958 41.4757 36.0701 41.6215C32.8565 43.6649 29.1412 44.75 25.3185 44.75C21.4959 44.75 17.7803 43.6649 14.5719 41.6215C14.3445 41.4757 14.2785 41.1771 14.4261 40.9462C14.5719 40.7188 14.8705 40.6528 15.1014 40.8004C18.15 42.7465 21.688 43.7778 25.3236 43.7778C28.959 43.7778 32.492 42.7465 35.5458 40.8004C35.768 40.6528 36.0701 40.7188 36.2159 40.9462ZM15.0959 8.70134C18.1446 6.75517 21.6826 5.72393 25.3181 5.72393C28.9537 5.72393 32.4919 6.75517 35.5404 8.70134C35.6202 8.75516 35.714 8.77774 35.8025 8.77774C35.9622 8.77774 36.122 8.69787 36.2157 8.55031C36.3615 8.32287 36.2956 8.02079 36.0699 7.87497C32.8563 5.83506 29.141 4.75 25.3183 4.75C21.4957 4.75 17.7801 5.83506 14.5717 7.87848C14.3443 8.02432 14.2783 8.32293 14.4259 8.55382C14.5665 8.78125 14.8685 8.84718 15.0959 8.70134ZM42.1897 14.0036C42.0438 13.7761 41.74 13.7102 41.5143 13.8577C41.2869 14.0036 41.2209 14.3022 41.3685 14.5331C43.3147 17.5817 44.3459 21.1197 44.3459 24.7553C44.3459 28.3907 43.3147 31.929 41.3685 34.9775C41.2227 35.2049 41.2887 35.507 41.5143 35.6528C41.5942 35.7066 41.688 35.7292 41.7765 35.7292C41.9362 35.7292 42.0959 35.6493 42.1897 35.5018C44.2331 32.2882 45.3182 28.5729 45.3182 24.7502C45.3182 20.9276 44.2331 17.212 42.1897 14.0036ZM9.12218 35.6475C9.34961 35.5017 9.41558 35.2031 9.26801 34.9722C7.32183 31.9236 6.29059 28.3855 6.29059 24.75C6.29059 21.1144 7.32183 17.5762 9.26801 14.5278C9.41384 14.3003 9.34787 13.9983 9.12218 13.8524C8.89474 13.7066 8.59267 13.7726 8.44684 13.9983C6.40342 17.2118 5.31836 20.9272 5.31836 24.7498C5.31836 28.5725 6.40342 32.288 8.44684 35.4965C8.54059 35.6423 8.6951 35.7239 8.86004 35.7239C8.95031 35.7239 9.04232 35.6961 9.12218 35.6475ZM36.327 10.9547C36.327 9.4165 37.5753 8.16823 39.1135 8.16823C40.6516 8.16823 41.8999 9.4165 41.8999 10.9547C41.8999 12.4928 40.6516 13.7411 39.1135 13.7411C37.5805 13.7411 36.327 12.4876 36.327 10.9547ZM37.3044 10.9547C37.3044 11.9547 38.1169 12.7637 39.1135 12.7637C40.1135 12.7637 40.9225 11.9512 40.9225 10.9547C40.9225 9.95988 40.11 9.14566 39.1135 9.14566C38.1187 9.14045 37.3044 9.95468 37.3044 10.9547ZM8.73693 10.9547C8.73693 9.4165 9.9852 8.16823 11.5234 8.16823C13.0615 8.16823 14.3098 9.4165 14.3098 10.9547C14.3098 12.4928 13.0615 13.7411 11.5234 13.7411C9.9852 13.7411 8.73693 12.4876 8.73693 10.9547ZM9.70915 10.9547C9.70915 11.9547 10.5216 12.7637 11.5182 12.7637C12.513 12.7637 13.3272 11.9512 13.3272 10.9547C13.3272 9.95988 12.5147 9.14566 11.5182 9.14566C10.5234 9.14566 9.70915 9.95468 9.70915 10.9547ZM14.31 38.5449C14.31 40.083 13.0618 41.3313 11.5236 41.3313C9.98542 41.3313 8.73715 40.083 8.73715 38.5449C8.73715 37.0067 9.98542 35.7584 11.5236 35.7584C13.0618 35.7584 14.31 37.0119 14.31 38.5449ZM13.3326 38.5449C13.3326 37.5449 12.5201 36.7358 11.5236 36.7358C10.5288 36.7358 9.71457 37.5483 9.71457 38.5449C9.71457 39.5449 10.5271 40.3539 11.5236 40.3539C12.5184 40.3539 13.3326 39.5449 13.3326 38.5449ZM41.9001 38.5449C41.9001 40.083 40.6519 41.3313 39.1137 41.3313C37.5755 41.3313 36.3272 40.083 36.3272 38.5449C36.3272 37.0067 37.5755 35.7584 39.1137 35.7584C40.6519 35.7584 41.9001 37.0119 41.9001 38.5449ZM40.9279 38.5449C40.9279 37.5449 40.1154 36.7358 39.1189 36.7358C38.1189 36.7358 37.3099 37.5483 37.3099 38.5449C37.3099 39.5449 38.1224 40.3539 39.1189 40.3539C40.1137 40.3591 40.9279 39.5449 40.9279 38.5449ZM12.5097 31.8662V21.5502L11.1052 20.7377C10.9889 20.6718 10.909 20.5641 10.8743 20.4356C10.8396 20.3072 10.8604 20.1735 10.9316 20.0624L12.5809 17.3819C12.626 17.3107 12.6833 17.2569 12.7545 17.2169L25.074 10.1005C25.2251 10.0119 25.4126 10.0119 25.5636 10.1005L37.8832 17.2169C37.9491 17.2569 38.0116 17.3107 38.0568 17.3819L39.706 20.0624C39.7772 20.1735 39.7946 20.3106 39.7633 20.4356C39.7321 20.5606 39.647 20.6718 39.5324 20.7377L38.1279 21.5502V31.8662C38.1279 32.0398 38.0342 32.1995 37.8831 32.2881L25.5636 39.3992C25.4872 39.4443 25.4039 39.4651 25.3188 39.4651C25.2337 39.4651 25.1504 39.4426 25.074 39.3992L12.7545 32.2881C12.6034 32.1995 12.5097 32.0381 12.5097 31.8662ZM13.4837 31.5815L17.1017 33.67V31.3766C17.1017 31.203 17.1955 31.0433 17.3465 30.9547C17.4975 30.8662 17.685 30.8662 17.8361 30.9547L20.9733 32.7672C21.1243 32.8557 21.218 33.0155 21.218 33.1891V36.0432L24.8361 38.1318L24.8344 32.5536H23.8604C23.5896 32.5536 23.3708 32.3366 23.3708 32.064V31.0241C22.4368 30.7359 21.5792 30.2411 20.8604 29.5744L19.9576 30.0953C19.7215 30.2289 19.4247 30.1491 19.291 29.9182L17.8292 27.3852C17.7632 27.2741 17.7493 27.1404 17.7806 27.0171C17.8153 26.8921 17.8969 26.7862 18.008 26.7185L18.9055 26.1977C18.8291 25.8557 18.7805 25.5084 18.7597 25.1578L13.4837 22.1126L13.4837 31.5815ZM18.9192 22.1806L19.7196 22.6424C19.9158 22.7535 20.0078 22.9844 19.947 23.198C19.8012 23.6997 19.73 24.224 19.73 24.7483C19.73 25.2778 19.8064 25.797 19.947 26.2987C20.0095 26.5122 19.9158 26.7431 19.7196 26.8542L18.9244 27.3161L19.8984 29.0053L20.6987 28.5435C20.8949 28.4324 21.138 28.4671 21.2942 28.6286C22.0268 29.3925 22.9557 29.9272 23.9782 30.1789C24.1953 30.2327 24.3463 30.4272 24.3463 30.6546V31.5747H26.2977V30.6546C26.2977 30.4324 26.4487 30.2362 26.6657 30.1789C27.6883 29.9254 28.6171 29.3873 29.3498 28.6286C29.506 28.4688 29.7491 28.4324 29.9452 28.5435L30.7456 29.0053L31.7195 27.3161L30.9244 26.8542C30.7282 26.7431 30.6362 26.5122 30.697 26.2987C30.8428 25.797 30.914 25.2726 30.914 24.7483C30.914 24.2188 30.8376 23.6997 30.697 23.198C30.6345 22.9844 30.7282 22.7535 30.9244 22.6424L31.7247 22.1806L30.7508 20.4914L29.9504 20.9532C29.7542 21.0643 29.5112 21.0296 29.355 20.8681C28.6223 20.1042 27.6935 19.5695 26.6709 19.3178C26.4539 19.2639 26.3029 19.0695 26.3029 18.8421V17.9219H24.3515V18.8421C24.3515 19.0695 24.2005 19.2605 23.9834 19.3178C22.9609 19.5712 22.0321 20.1094 21.2994 20.8681C21.1432 21.0278 20.9001 21.0643 20.7039 20.9532L19.9036 20.4914L18.9192 22.1806ZM20.2387 33.4704L18.079 32.2221V34.2308L20.2387 35.479V33.4704ZM37.1538 22.1144L31.8778 25.1595C31.8552 25.5102 31.8066 25.8574 31.732 26.1994L32.6295 26.7203C32.7406 26.7863 32.8257 26.8939 32.8569 27.0189C32.8917 27.1439 32.8743 27.2758 32.8083 27.387L31.3465 29.9199C31.2128 30.156 30.9159 30.2307 30.6798 30.097L29.7771 29.5762C29.0566 30.2428 28.199 30.7359 27.2667 31.0258V32.0657C27.2667 32.3365 27.0497 32.5553 26.7771 32.5553L25.8083 32.5536V38.1318L37.1554 31.5816L37.1538 22.1144ZM37.475 18.2967L32.3239 21.2706L32.8135 22.1144C32.9471 22.3505 32.8673 22.6474 32.6364 22.781L31.7388 23.3019C31.7926 23.5467 31.836 23.795 31.8638 24.0484L38.6242 20.1457L37.475 18.2967ZM13.9714 17.6335L18.803 20.4199L19.2926 19.5762C19.3586 19.4651 19.4662 19.38 19.5912 19.3488C19.7162 19.3141 19.8481 19.3314 19.9593 19.3974L20.862 19.9182C21.5825 19.2516 22.4401 18.7585 23.3724 18.4686V17.4287C23.3724 17.1578 23.5894 16.9391 23.862 16.9391H26.7856C27.0564 16.9391 27.2752 17.1561 27.2752 17.4287V18.4686C28.2092 18.7568 29.0668 19.2516 29.7856 19.9182L30.6883 19.3974C30.7995 19.3314 30.9331 19.3175 31.0564 19.3488C31.1814 19.3835 31.2873 19.4651 31.355 19.5762L31.8446 20.4199L36.6762 17.6283L25.3184 11.0883L13.9714 17.6335ZM12.0253 20.1456L18.7857 24.0484C18.8117 23.8001 18.8517 23.5466 18.9107 23.3018L18.0079 22.781C17.777 22.6473 17.6972 22.3504 17.8309 22.1143L18.3205 21.2706L13.1694 18.2967L12.0253 20.1456ZM21.7977 24.7496C21.7977 22.8069 23.3758 21.2288 25.3185 21.2288C27.2612 21.2288 28.8394 22.8069 28.8394 24.7496C28.8394 26.6923 27.2612 28.2705 25.3185 28.2705C23.3758 28.2705 21.7977 26.6923 21.7977 24.7496ZM22.7768 24.7496C22.7768 26.1542 23.9192 27.2913 25.3185 27.2913C26.7179 27.2913 27.8602 26.149 27.8602 24.7496C27.8602 23.3451 26.7179 22.2079 25.3185 22.2079C23.9192 22.2079 22.7768 23.3451 22.7768 24.7496Z" fill="#FD1716"/>
</svg>
