<svg width="51" height="50" viewBox="0 0 51 50" fill="none" xmlns="http://www.w3.org/2000/svg">
<path d="M43.8688 31.0737V22.8092C43.8688 22.6987 43.8375 22.5866 43.7847 22.4893L39.6475 15.2325C39.5321 15.033 39.3194 14.9077 39.0869 14.9077L30.3607 14.9093V12.3947C30.3607 12.0385 30.0721 11.75 29.7159 11.75H8.94765C8.59148 11.75 8.30293 12.0386 8.30293 12.3947V22.1349H7.40262C7.04645 22.1349 6.7579 22.4235 6.7579 22.7796V31.0736C5.92682 31.344 5.31836 32.1223 5.31836 33.0425C5.31836 34.1884 6.25164 35.1267 7.40262 35.1267H9.6732C10.4334 36.5976 11.9619 37.6067 13.7263 37.6067C15.4907 37.6067 17.0193 36.5976 17.7794 35.1267H31.586C32.3461 36.5976 33.8747 37.6067 35.6391 37.6067C37.4035 37.6067 38.932 36.5976 39.6922 35.1267H43.2341C44.3801 35.1267 45.3184 34.1934 45.3184 33.0425C45.3085 32.1223 44.7048 31.3491 43.8688 31.0737ZM38.7142 16.197L42.5793 22.9772V30.9614H39.6821C38.9219 29.4905 37.3934 28.4814 35.629 28.4814C33.8646 28.4814 32.3328 29.4905 31.5759 30.9614H30.354L30.3573 22.7776V16.1966L38.7142 16.197ZM29.0728 15.5539V22.1349H19.9721V13.0376H21.842V16.4592C21.842 16.8154 22.1306 17.1039 22.4868 17.1039H26.553C26.9092 17.1039 27.1977 16.8153 27.1977 16.4592V13.0376H29.0676V15.5539L29.0728 15.5539ZM25.9134 13.0377V15.8145L23.1366 15.8161V13.0393L25.9134 13.0377ZM15.5282 13.0377V15.8145H12.7514V13.0377H15.5282ZM9.58718 13.0377H11.4571V16.4592C11.4571 16.8154 11.7456 17.104 12.1018 17.104H16.1681C16.5243 17.104 16.8128 16.8154 16.8128 16.4592V13.0377H18.6827V22.1333L9.5871 22.1349L9.58718 13.0377ZM8.04544 23.4229H29.0776V30.9634H17.7772C17.017 29.4925 15.4885 28.4834 13.7241 28.4834C11.9597 28.4834 10.4279 29.4925 9.66768 30.9634H8.04511L8.04544 23.4229ZM7.40237 33.8343C6.96707 33.8343 6.61088 33.4781 6.61088 33.0428C6.61088 32.6074 6.96705 32.2513 7.40237 32.2513H9.23766C9.19314 32.5085 9.16181 32.7707 9.16181 33.0428C9.16181 33.3132 9.18819 33.5754 9.23766 33.8343H7.40237ZM13.7246 36.3143C11.9207 36.3143 10.4498 34.8483 10.4498 33.0444C10.4498 31.2405 11.9157 29.7746 13.7246 29.7746C15.5285 29.7746 16.9944 31.2405 16.9944 33.0444C16.9944 34.8467 15.5285 36.3143 13.7246 36.3143ZM18.208 33.8343C18.2525 33.577 18.2839 33.3099 18.2839 33.0428C18.2839 32.7723 18.2575 32.5102 18.208 32.2513H31.1471C31.1026 32.5085 31.0712 32.7707 31.0712 33.0428C31.0712 33.3132 31.0976 33.5754 31.1471 33.8343H18.208ZM35.6356 36.3143C33.8317 36.3143 32.3657 34.8483 32.3657 33.0444C32.3657 31.2405 33.8317 29.7746 35.6356 29.7746C37.4395 29.7746 38.9054 31.2405 38.9054 33.0444C38.9054 34.8467 37.4395 36.3143 35.6356 36.3143ZM43.2242 33.8343H40.1176C40.1621 33.577 40.1934 33.3099 40.1934 33.0428C40.1934 32.7723 40.167 32.5102 40.1176 32.2513H43.2242C43.6595 32.2513 44.0157 32.6074 44.0157 33.0428C44.0206 33.4781 43.6645 33.8343 43.2242 33.8343Z" fill="#FD1716"/>
<path d="M32.5415 23.4545H39.4062C39.637 23.4545 39.8465 23.3341 39.9619 23.1346C40.0773 22.9351 40.0773 22.691 39.9668 22.4899L37.4423 18.0592C37.3268 17.8597 37.1141 17.7344 36.8816 17.7344H32.5451C32.1889 17.7344 31.9004 18.0229 31.9004 18.3791V22.8098C31.8987 23.1659 32.187 23.4545 32.5415 23.4545ZM33.1862 19.0238H36.5056L38.2963 22.1651H33.1864L33.1862 19.0238Z" fill="#FD1716"/>
</svg>
