<svg width="51" height="50" viewBox="0 0 51 50" fill="none" xmlns="http://www.w3.org/2000/svg">
<path fill-rule="evenodd" clip-rule="evenodd" d="M11.3328 21.4526V22.2822H39.7077V21.4526H11.3328ZM20.2532 23.5037L19.9749 38.7105H22.8749L22.5966 23.5037H20.2532ZM28.4437 23.5037L28.1654 38.7105H31.0601L30.7819 23.5037H28.4437ZM12.0765 23.5177L11.7982 38.7245H14.6965L14.4182 23.5177H12.0765ZM36.6378 23.5177L36.3595 38.7245H39.2578L38.9585 23.5177H36.6378ZM32.2782 38.7245H35.1327L35.4109 23.5177H31.9999L32.2782 38.7245ZM24.0926 38.7245H26.9471L27.2253 23.5177H23.8143L24.0926 38.7245ZM15.907 38.7245H18.7615L19.0397 23.5177H15.6287L15.907 38.7245ZM9.94275 41.1257H41.0951V39.9426H9.94275V41.1257ZM7.82856 43.5269H43.2233V42.349H7.82856V43.5269ZM23.3839 13.1376C23.4119 12.819 23.6779 12.5758 23.9964 12.5758C24.315 12.5758 24.581 12.819 24.6072 13.1376C24.6072 13.4998 24.826 13.8254 25.1603 13.9654C25.4963 14.1037 25.8814 14.0266 26.1369 13.7711C26.3942 13.5139 26.4712 13.1288 26.3311 12.7945C26.1929 12.4585 25.8656 12.2415 25.5033 12.2415C24.4497 12.2327 23.5589 11.4557 23.4066 10.4126C23.2544 9.3678 23.8862 8.3702 24.8943 8.06043V7.77341C24.9223 7.45664 25.1883 7.21337 25.5068 7.21337C25.8253 7.21337 26.0896 7.45664 26.1176 7.77341V8.06043C27.0207 8.33345 27.6402 9.16475 27.6402 10.1081C27.614 10.4266 27.3479 10.6699 27.0294 10.6699C26.7109 10.6699 26.4449 10.4266 26.4186 10.1081C26.4186 9.74581 26.1998 9.41851 25.8638 9.28025C25.5295 9.14199 25.1445 9.219 24.889 9.47451C24.6317 9.73003 24.5547 10.1168 24.6947 10.4511C24.833 10.7854 25.1585 11.0041 25.5225 11.0041C26.5709 11.0199 27.4529 11.7952 27.6052 12.833C27.7557 13.8709 27.1326 14.865 26.1316 15.18V15.467C26.1036 15.7838 25.8375 16.0288 25.519 16.0288C25.2005 16.0288 24.9344 15.7838 24.9082 15.467V15.18C24.0034 14.9087 23.3838 14.0757 23.3838 13.1323L23.3839 13.1376ZM21.1437 17.3169L19.6018 18.983H19.6036C19.4881 19.109 19.3253 19.1808 19.1556 19.1808C18.9858 19.1808 18.823 19.109 18.7075 18.983L17.0939 17.2399L9.9531 20.2431H41.0812L31.1631 16.076C29.994 17.5654 28.2858 18.5315 26.4081 18.766C24.5319 19.0005 22.6365 18.4825 21.1401 17.3257L21.1437 17.3169ZM19.9799 9.39069H20.9302C21.0912 9.39069 21.2452 9.45544 21.3607 9.5692C21.4745 9.68471 21.5392 9.83872 21.5392 10.0015V14.1196H22.7083V14.1178C22.9499 14.1178 23.1686 14.2613 23.2649 14.4836C23.3629 14.7041 23.3191 14.9614 23.1564 15.1399L21.9733 16.4175C24.0262 17.9296 26.8125 17.9698 28.9089 16.519C31.0038 15.0664 31.9453 12.4412 31.2488 9.98933C30.5523 7.53562 28.3733 5.79774 25.8267 5.66122C23.2803 5.52646 20.9315 7.02634 19.9794 9.39075L19.9799 9.39069ZM17.3722 9.39069H18.6813H18.6795C19.3708 7.56006 20.7797 6.08992 22.5788 5.32338C24.3797 4.55684 26.4151 4.55859 28.2142 5.33038C30.0116 6.10221 31.4169 7.5758 32.103 9.40822C32.789 11.2406 32.6945 13.2743 31.844 15.0364L44.3348 20.2973C44.5833 20.418 44.7198 20.6928 44.6655 20.9641C44.6095 21.2353 44.3785 21.4366 44.102 21.4523H40.929V22.8945C40.9343 23.0625 40.8677 23.2235 40.7505 23.3408C40.6315 23.458 40.4687 23.5228 40.3025 23.5175H40.1729L40.4512 38.7243H41.692C41.8531 38.7225 42.0106 38.7855 42.1243 38.901C42.2398 39.0148 42.3046 39.1706 42.3046 39.3333V41.1255H43.8062C43.969 41.1237 44.1248 41.1885 44.2403 41.3022C44.3558 41.416 44.4205 41.5717 44.4205 41.7345V44.1409C44.4205 44.4735 44.1528 44.7448 43.8202 44.75H7.21445C6.87842 44.75 6.60539 44.477 6.60539 44.1409V41.7345C6.60539 41.3985 6.87841 41.1254 7.21445 41.1254H8.71958V39.3333H8.72133C8.72133 38.9973 8.9926 38.7242 9.33039 38.7242H10.5712L10.8495 23.5175H10.7322C10.5695 23.5192 10.4137 23.4545 10.2982 23.3407C10.1827 23.227 10.1179 23.0712 10.1179 22.9084V21.4523H6.93267C6.6299 21.4541 6.37263 21.2353 6.32536 20.9361C6.27986 20.6368 6.46012 20.3498 6.74889 20.2605L16.2118 16.2772L15.2125 15.1799C15.0217 15.0119 14.9552 14.7441 15.0462 14.5078C15.1355 14.2698 15.363 14.1141 15.615 14.1141H16.7841L16.7859 10.0012C16.7859 9.66345 17.0571 9.39042 17.3949 9.39042L17.3722 9.39069ZM20.3194 10.614V14.7321C20.3194 15.0681 20.5924 15.3412 20.9302 15.3412H21.3152L19.1521 17.6794L17.0046 15.3377H17.3897C17.7169 15.3272 17.9795 15.0594 17.9812 14.7321V10.614H20.3194Z" fill="#FD1716"/>
</svg>
