<svg width="51" height="50" viewBox="0 0 51 50" fill="none" xmlns="http://www.w3.org/2000/svg">
<path fill-rule="evenodd" clip-rule="evenodd" d="M16.5455 4.75003C15.8955 4.74824 15.2455 4.8286 14.6206 5.00181C13.3455 5.35181 12.1795 6.08397 11.317 7.08575C10.4598 8.07862 9.90264 9.32681 9.70086 10.6215C9.5955 11.3019 9.58479 11.9947 9.65443 12.6804C9.69729 13.0733 10.0491 13.359 10.4402 13.3161C10.8312 13.275 11.1188 12.925 11.0777 12.534C11.0187 11.9697 11.0259 11.4 11.1134 10.8411C11.2741 9.809 11.7152 8.81078 12.3973 8.01791C13.0777 7.23217 13.9955 6.65361 14.9973 6.37864C16.0205 6.0965 17.1134 6.12686 18.1455 6.37864C19.2419 6.64293 20.2616 7.14472 21.2723 7.64648C21.2723 7.64827 24.9991 9.51076 24.9991 9.51076C25.2009 9.61076 25.4366 9.61076 25.6401 9.51076L29.3651 7.64648C30.374 7.14468 31.3919 6.64292 32.4883 6.37864C33.5187 6.12686 34.6169 6.0965 35.6365 6.37864C36.6437 6.65364 37.5615 7.23222 38.2419 8.01791C38.9223 8.81078 39.3615 9.809 39.524 10.8429C39.6098 11.4019 39.6205 11.9697 39.5615 12.534C39.5205 12.9251 39.8044 13.2751 40.199 13.3179C40.5901 13.359 40.9401 13.0733 40.9812 12.6804C41.0544 11.9929 41.0401 11.3019 40.9347 10.6197C40.7294 9.32685 40.1776 8.07862 39.324 7.08575C38.4598 6.08397 37.2919 5.3518 36.0151 5.00181C34.7615 4.65539 33.4186 4.68217 32.1526 4.98753C30.9526 5.2786 29.8329 5.81967 28.7276 6.36966L25.3187 8.07325L21.9097 6.36966C20.8044 5.81967 19.6812 5.27859 18.4829 4.98753C17.849 4.83396 17.1973 4.75182 16.5455 4.75003ZM23.89 11.1784C23.4954 11.1784 23.1757 11.498 23.1757 11.8927V15.4659H19.6025C19.2079 15.4659 18.89 15.782 18.89 16.1766V19.0338C18.89 19.4302 19.2079 19.7498 19.6025 19.7498H23.1757V23.3213C23.1757 23.7159 23.4954 24.0373 23.89 24.0373H26.7472C27.1418 24.0373 27.4615 23.7159 27.4615 23.3213V19.7498H31.0347C31.4293 19.7498 31.7472 19.4302 31.7472 19.0338V16.1766C31.7472 15.782 31.4293 15.4659 31.0347 15.4659H27.4615V11.8927C27.4615 11.498 27.1418 11.1784 26.7472 11.1784H23.89ZM24.6025 12.6052H26.0311V16.1766C26.0311 16.5713 26.3525 16.8927 26.7472 16.8927H30.3186V18.3213H26.7472C26.3525 18.3213 26.0311 18.6391 26.0311 19.0338V22.6052H24.6025V19.0338C24.6025 18.6391 24.2847 18.3213 23.89 18.3213H20.3186V16.8927H23.89C24.2847 16.8927 24.6025 16.5713 24.6025 16.1766V12.6052ZM8.17551 14.0355C6.5916 14.0355 5.31836 15.3088 5.31836 16.8927V29.0353C5.31836 31.1407 6.22908 33.0354 7.82195 34.4173L10.313 36.5816C11.222 37.3709 11.7452 38.5173 11.7452 39.7227L11.7469 44.0352C11.7469 44.4298 12.0666 44.7495 12.4612 44.7495H21.0327C21.4273 44.7495 21.747 44.4298 21.747 44.0352V34.7497C21.747 33.2747 21.1541 31.6908 20.1095 30.6461L14.4811 25.0209C13.5418 24.0816 12.124 23.9299 11.0311 24.5674L11.0329 16.8924C11.0329 15.3085 9.75586 14.0355 8.17551 14.0355ZM42.4613 14.0355C40.881 14.0355 39.6042 15.3088 39.6042 16.8927V24.5695C38.5095 23.9338 37.0899 24.0856 36.1506 25.0231L30.5272 30.6464C29.4826 31.6911 28.8898 33.275 28.8898 34.75V44.0355C28.8898 44.4302 29.2094 44.7498 29.604 44.7498H38.1755C38.5701 44.7498 38.8898 44.4302 38.8898 44.0355V39.723C38.8898 38.5176 39.4148 37.3712 40.3237 36.5819L42.8148 34.4176C44.4076 33.0355 45.3184 31.1408 45.3184 29.0357V16.893C45.3184 15.3091 44.0452 14.0355 42.4613 14.0355ZM8.17551 15.4641C8.96481 15.4641 9.60408 16.0998 9.60408 16.8927L9.6023 27.0033V27.0301C9.59873 27.7641 9.87908 28.4998 10.4434 29.064L14.6755 33.2962C14.9541 33.5748 15.4077 33.5748 15.6862 33.2962C15.9648 33.0176 15.9648 32.5658 15.6862 32.2855L11.4523 28.0533C10.8933 27.4926 10.8933 26.5926 11.4523 26.0319C12.013 25.4712 12.9112 25.4712 13.4719 26.0319L19.0989 31.6571C19.8847 32.4428 20.3186 33.6392 20.3186 34.7499V43.3214H13.1757L13.1739 39.7231C13.1739 38.1053 12.4721 36.5624 11.2507 35.5017L8.75786 33.3392C7.48284 32.2338 6.74716 30.7213 6.74716 29.0356V16.8929C6.74716 16.1 7.38264 15.4641 8.17551 15.4641ZM42.4613 15.4641C43.2524 15.4641 43.8899 16.0998 43.8899 16.8927V29.0353C43.8899 30.7211 43.1524 32.2336 41.8774 33.3389L39.3863 35.5015C38.1649 36.5622 37.4613 38.105 37.4613 39.7229V43.3211H30.3185V34.7497C30.3185 33.639 30.7506 32.4425 31.5381 31.6568L37.1614 26.0335C37.7222 25.4746 38.6222 25.4746 39.1829 26.0335C39.7436 26.5925 39.7436 27.4942 39.1829 28.055C39.1829 28.0532 34.9472 32.2871 34.9472 32.2871C34.6686 32.5657 34.6686 33.0193 34.9472 33.2978C35.2258 33.5763 35.6793 33.5764 35.9579 33.2978L40.1936 29.0639C40.7561 28.5014 41.0365 27.7657 41.0329 27.0299V16.8923C41.0329 16.0994 41.672 15.4641 42.4613 15.4641ZM12.7328 17.2784C12.5971 17.2909 12.4613 17.3445 12.3471 17.4374C12.0417 17.6874 11.9953 18.1373 12.2435 18.4427C13.9399 20.5141 16.1256 22.107 18.2078 23.789C20.5293 25.6676 22.7311 27.689 24.8044 29.8462C24.9402 29.9872 25.1277 30.0658 25.3223 30.0658C25.5151 30.0658 25.7026 29.9872 25.8348 29.8462C27.9026 27.689 30.108 25.6676 32.4296 23.789C34.5117 22.1069 36.701 20.514 38.3902 18.4427C38.642 18.1356 38.5956 17.6874 38.2902 17.4356C37.9831 17.1874 37.5349 17.2338 37.2831 17.5391C35.6545 19.5338 33.5367 21.0588 31.5313 22.6747C29.3545 24.4372 27.2795 26.3229 25.3187 28.3245C23.358 26.3228 21.283 24.4388 19.1043 22.6779C17.1008 21.0582 14.9829 19.5333 13.3507 17.5387C13.1971 17.3476 12.9614 17.2588 12.7328 17.2784Z" fill="#FD1716"/>
</svg>
