<svg width="50" height="50" viewBox="0 0 50 50" fill="none" xmlns="http://www.w3.org/2000/svg">
<path fill-rule="evenodd" clip-rule="evenodd" d="M35.7949 41.17C32.4478 41.17 27.9279 39.1894 23.3613 35.774C23.141 35.6039 23.0676 35.2834 23.1643 35.0183C23.261 34.7748 23.5314 34.6011 23.8251 34.6279C24.1922 34.6781 24.5593 34.7014 24.9479 34.7014C27.1202 34.7014 29.3211 33.9457 30.9811 32.6473C31.0778 32.5739 31.2014 32.5237 31.3249 32.5004C34.2816 32.0832 37.0143 31.3543 39.2153 30.4016C39.3621 30.3515 39.5323 30.3515 39.706 30.4016C39.8528 30.475 39.9764 30.5986 40.0498 30.7687C41.6365 34.7748 41.5165 37.948 39.7328 39.7319C38.807 40.6846 37.4872 41.1717 35.8002 41.1717L35.7949 41.17ZM25.7823 35.9446C29.518 38.4607 33.1083 39.9005 35.7949 39.9005C37.1147 39.9005 38.1372 39.5334 38.8482 38.8511C40.1412 37.5581 40.2415 35.0187 39.0918 31.8185C36.941 32.6709 34.3785 33.3317 31.6186 33.7489C29.9818 34.9954 27.883 35.7762 25.7825 35.9499L25.7823 35.9446ZM10.5389 19.6499C10.4655 19.6499 10.3688 19.6267 10.2953 19.5998C10.1485 19.5264 10.0249 19.4028 9.9515 19.2327C8.53499 15.6439 8.43826 12.7589 9.70795 10.9017C10.6105 9.55862 12.1739 8.84766 14.228 8.84766C17.6252 8.84766 22.0216 10.7549 26.6382 14.2202C26.8585 14.3903 26.9319 14.7109 26.8352 14.9759C26.7385 15.2195 26.4448 15.3932 26.1744 15.3663C25.8073 15.3162 25.4401 15.2929 25.0516 15.2929C22.8793 15.2929 20.6784 16.0486 19.0184 17.347C18.9217 17.4204 18.7981 17.4705 18.6745 17.4938C15.7179 17.9111 12.9852 18.64 10.7842 19.5927C10.7107 19.6159 10.6373 19.6428 10.5406 19.6428L10.5389 19.6499ZM14.228 10.1247C13.1052 10.1247 11.5919 10.3952 10.7574 11.638C9.80469 13.0044 9.8763 15.3002 10.9042 18.1851C13.055 17.3327 15.6176 16.6719 18.3774 16.2546C20.0142 15.0082 22.113 14.2274 24.2135 14.0537C20.4778 11.5376 16.9104 10.1211 14.2243 10.1211L14.228 10.1247Z" fill="#FD1716"/>
<path fill-rule="evenodd" clip-rule="evenodd" d="M14.2011 41.1705C12.5141 41.1705 11.1979 40.6798 10.2685 39.7307C7.41209 36.8976 8.99879 30.3004 14.2244 23.3645C14.3945 23.1442 14.7151 23.0708 14.9801 23.1675C15.2236 23.2642 15.3973 23.5346 15.3705 23.8283C15.3203 24.2187 15.2971 24.6073 15.2971 25.0013C15.2971 30.3523 19.6434 34.6966 24.9923 34.6966C25.3827 34.6966 25.7713 34.6733 26.1653 34.6231C26.4357 34.5999 26.7294 34.77 26.8261 35.0135C26.9228 35.284 26.8494 35.6009 26.6291 35.7693C22.0626 39.1897 17.5427 41.1652 14.1955 41.1652L14.2011 41.1705ZM14.0542 25.7803C10.2219 31.4697 9.02047 36.7006 11.1478 38.8461C11.8587 39.5284 12.8812 39.8956 14.2011 39.8956C16.8874 39.8956 20.4548 38.479 24.2137 35.9397C18.7911 35.5493 14.4444 31.1992 14.0542 25.7803ZM35.2575 26.8799C35.1841 26.8799 35.1107 26.8566 35.014 26.8297C34.7704 26.733 34.5967 26.4626 34.6236 26.1689C34.6737 25.7785 34.697 25.3899 34.697 24.9959C34.697 19.6449 30.3507 15.3007 25.0017 15.3007C24.6113 15.3007 24.2227 15.3239 23.8287 15.3741C23.535 15.3974 23.2646 15.2272 23.1679 14.9837C23.0712 14.7133 23.1446 14.3963 23.3649 14.228C27.9315 10.8075 32.4514 8.83203 35.7985 8.83203C37.4586 8.83203 38.8017 9.32271 39.7311 10.2718C42.5875 13.1049 41.0008 19.7021 35.7752 26.638C35.6516 26.7849 35.4582 26.8816 35.2612 26.8816L35.2575 26.8799ZM25.7823 14.0575C31.2048 14.4479 35.5514 18.7979 35.9415 24.2167C39.7739 18.5274 40.9753 13.2965 38.848 11.1509C38.137 10.4686 37.1145 10.1015 35.7946 10.1015C33.1084 10.1015 29.5411 11.5181 25.7823 14.0575Z" fill="#FD1716"/>
<path fill-rule="evenodd" clip-rule="evenodd" d="M24.9981 35.4297C19.2583 35.4297 14.5684 30.7398 14.5684 25C14.5684 19.2602 19.2583 14.5703 24.9981 14.5703C30.7379 14.5703 35.4278 19.2602 35.4278 25C35.4278 30.7398 30.7379 35.4297 24.9981 35.4297ZM24.9981 14.7619C19.355 14.7619 14.7655 19.3556 14.7655 24.9945C14.7655 30.6339 19.3592 35.2271 24.9981 35.2271C30.637 35.2271 35.2307 30.6335 35.2307 24.9945C35.2307 19.3551 30.637 14.7619 24.9981 14.7619Z" fill="#FD1716"/>
<path fill-rule="evenodd" clip-rule="evenodd" d="M24.8289 31.1078C24.4618 31.1078 24.1914 30.8141 24.1914 30.4703V28.8836C24.1914 28.5398 24.4618 28.2461 24.8289 28.2461C25.1728 28.2461 25.4664 28.5398 25.4664 28.8836V30.4703C25.4664 30.8141 25.1728 31.1078 24.8289 31.1078Z" fill="#FD1716"/>
<path fill-rule="evenodd" clip-rule="evenodd" d="M25.783 33.0589H23.8758C23.5087 33.0589 23.2383 32.7652 23.2383 32.4214V30.4676C23.2383 30.1238 23.5087 29.8301 23.8758 29.8301H25.783C26.1269 29.8301 26.4206 30.1238 26.4206 30.4676V32.4214C26.4206 32.7652 26.1269 33.0589 25.783 33.0589ZM24.4847 31.7892H25.1455V31.1069H24.4847V31.7892Z" fill="#FD1716"/>
<path fill-rule="evenodd" clip-rule="evenodd" d="M29.7612 32.0836H25.782C25.4382 32.0836 25.1445 31.7899 25.1445 31.4461C25.1445 31.1023 25.4382 30.8086 25.782 30.8086H29.7612C30.1051 30.8086 30.3988 31.1023 30.3988 31.4461C30.3988 31.7899 30.1051 32.0836 29.7612 32.0836Z" fill="#FD1716"/>
<path fill-rule="evenodd" clip-rule="evenodd" d="M23.8759 32.0836H20.2352C19.8913 32.0836 19.5977 31.7899 19.5977 31.4461C19.5977 31.1023 19.8913 30.8086 20.2352 30.8086H23.8759C24.2197 30.8086 24.4848 31.1023 24.4848 31.4461C24.4848 31.7899 24.2144 32.0836 23.8759 32.0836Z" fill="#FD1716"/>
<path fill-rule="evenodd" clip-rule="evenodd" d="M20.5281 27.2465C20.1843 27.2465 19.8906 26.9761 19.8906 26.609V19.8198C19.8906 19.476 20.1843 19.2109 20.5281 19.2109C20.872 19.2109 21.1657 19.4814 21.1657 19.8198V26.609C21.1657 26.9761 20.872 27.2465 20.5281 27.2465Z" fill="#FD1716"/>
<path fill-rule="evenodd" clip-rule="evenodd" d="M24.8284 22.7253C22.0186 22.7253 19.8945 21.4788 19.8945 19.8188C19.8945 18.1587 22.022 16.9355 24.8284 16.9355C27.6346 16.9355 29.7388 18.182 29.7388 19.8188C29.7388 21.4556 27.64 22.7253 24.8284 22.7253ZM24.8284 18.2088C22.7295 18.2088 21.1661 19.0612 21.1661 19.8223C21.1661 20.5834 22.7295 21.4591 24.8284 21.4591C26.9272 21.4591 28.4906 20.6067 28.4906 19.8223C28.4906 19.0379 26.9272 18.2088 24.8284 18.2088Z" fill="#FD1716"/>
<path fill-rule="evenodd" clip-rule="evenodd" d="M29.1011 27.2465C28.7572 27.2465 28.4922 26.9761 28.4922 26.609V19.8198C28.4922 19.476 28.7626 19.2109 29.1011 19.2109C29.4682 19.2109 29.7386 19.4814 29.7386 19.8198V26.609C29.7386 26.9761 29.4682 27.2465 29.1011 27.2465Z" fill="#FD1716"/>
<path fill-rule="evenodd" clip-rule="evenodd" d="M24.8284 25.001C22.0186 25.001 19.8945 23.7546 19.8945 22.0946C19.8945 21.7507 20.1882 21.457 20.5321 21.457C20.8759 21.457 21.1696 21.7507 21.1696 22.0946C21.1696 22.8735 22.733 23.7314 24.8318 23.7314C26.9306 23.7314 28.494 22.8789 28.494 22.0946C28.494 21.7507 28.7644 21.457 29.1029 21.457C29.47 21.457 29.7404 21.7507 29.7404 22.0946C29.7404 23.7546 27.6416 25.001 24.83 25.001H24.8284Z" fill="#FD1716"/>
<path fill-rule="evenodd" clip-rule="evenodd" d="M24.8284 27.2454C22.0687 27.2454 19.8945 25.9757 19.8945 24.3621C19.8945 23.995 20.1882 23.7246 20.5321 23.7246C20.8759 23.7246 21.1696 23.995 21.1696 24.3621C21.1696 25.1178 22.733 25.9756 24.8318 25.9756C26.9306 25.9756 28.494 25.1232 28.494 24.3621C28.494 23.995 28.7644 23.7246 29.1029 23.7246C29.47 23.7246 29.7404 23.995 29.7404 24.3621C29.7404 25.9989 27.6416 27.2454 24.83 27.2454H24.8284Z" fill="#FD1716"/>
<path fill-rule="evenodd" clip-rule="evenodd" d="M24.8284 29.5147C22.0186 29.5147 19.8945 28.2683 19.8945 26.6082C19.8945 26.2644 20.1882 25.9707 20.5321 25.9707C20.8759 25.9707 21.1696 26.2644 21.1696 26.6082C21.1696 27.3872 22.733 28.245 24.8318 28.245C26.9306 28.245 28.494 27.3926 28.494 26.6082C28.494 26.2644 28.7644 25.9707 29.1029 25.9707C29.47 25.9707 29.7404 26.2644 29.7404 26.6082C29.7404 28.2683 27.6416 29.5147 24.83 29.5147H24.8284Z" fill="#FD1716"/>
<path fill-rule="evenodd" clip-rule="evenodd" d="M31.3754 33.769C31.1319 33.769 30.8848 33.6221 30.7881 33.3786C30.6914 33.135 30.7648 32.8144 30.9851 32.6443C33.3561 30.7872 34.6992 28.0043 34.6992 24.9974C34.6992 21.9906 33.3561 19.2076 30.9851 17.3504C30.7648 17.1803 30.6914 16.8598 30.7881 16.6162C30.9116 16.3458 31.1785 16.1989 31.4704 16.2258C40.0663 17.4454 45.8327 20.9662 45.8327 24.9955C45.8327 29.0248 40.07 32.542 31.4704 33.7651H31.3737L31.3754 33.769ZM33.3059 17.8145C35.0162 19.7951 35.9689 22.3076 35.9689 24.9938C35.9689 27.6799 35.0162 30.1981 33.3059 32.1731C40.0447 30.8533 44.5879 28.0202 44.5879 24.9938C44.5879 21.9673 40.0446 19.1307 33.3059 17.8145ZM18.625 33.769H18.5283C9.93239 32.5494 4.16602 29.0286 4.16602 24.9993C4.16602 20.97 9.92872 17.4528 18.5283 16.2296C18.822 16.2063 19.0924 16.3532 19.2106 16.62C19.3073 16.8636 19.2339 17.1841 19.0136 17.3543C16.6426 19.2113 15.2995 21.9942 15.2995 25.0012C15.2995 28.008 16.6193 30.741 18.9617 32.5977C19.1318 32.7213 19.2554 32.9147 19.2554 33.1349C19.2554 33.4788 18.985 33.7725 18.6179 33.7725L18.625 33.769ZM16.6963 17.8145C9.95758 19.1343 5.41434 21.9674 5.41434 24.9938C5.41434 28.0203 9.95767 30.8569 16.6963 32.1731C14.9861 30.1925 14.0334 27.6799 14.0334 24.9938C14.0334 22.3076 14.9861 19.7895 16.6963 17.8145Z" fill="#FD1716"/>
<path fill-rule="evenodd" clip-rule="evenodd" d="M24.9986 45.8366C20.8959 45.8366 17.4755 40.1935 16.229 31.4743C16.2057 31.1806 16.3525 30.9102 16.6194 30.792C16.8629 30.6953 17.1835 30.7687 17.3536 30.989C19.2107 33.36 21.9936 34.7032 25.0005 34.7032C28.0073 34.7032 30.7903 33.36 32.6475 30.989C32.8176 30.7687 33.1113 30.6953 33.3817 30.792C33.6521 30.9156 33.799 31.1824 33.7721 31.4743C32.5526 40.0702 29.0318 45.8366 25.0025 45.8366H24.9986ZM17.8193 33.3026C19.1392 40.0413 21.9722 44.5846 24.9986 44.5846C28.025 44.5846 30.8617 40.0412 32.178 33.3026C30.1973 35.0128 27.6848 35.9655 24.9986 35.9655C22.3125 35.9655 19.7943 35.0128 17.8193 33.3026ZM16.8648 19.2608C16.7681 19.2608 16.6947 19.2375 16.6213 19.2106C16.3509 19.0871 16.204 18.8202 16.2309 18.5283C17.4773 9.80861 20.8979 4.16602 25.0006 4.16602C29.1032 4.16602 32.5471 9.92872 33.7702 18.5283C33.7935 18.822 33.6467 19.0924 33.3798 19.2106C33.1363 19.3073 32.8157 19.2339 32.6456 19.0136C30.7885 16.6426 28.0056 15.2995 24.9987 15.2995C21.9917 15.2995 19.2089 16.6426 17.3517 19.0136C17.2282 19.1605 17.058 19.2572 16.861 19.2572L16.8648 19.2608ZM24.9986 5.41056C21.9686 5.41056 19.1355 9.95388 17.8193 16.6925C19.8 14.9823 22.3125 14.0296 24.9986 14.0296C27.6848 14.0296 30.203 14.9823 32.178 16.6925C30.8581 9.95379 28.025 5.41056 24.9986 5.41056Z" fill="#FD1716"/>
</svg>
