<svg width="50" height="50" viewBox="0 0 50 50" fill="none" xmlns="http://www.w3.org/2000/svg">
<path d="M42.7629 35.8322H8.1761C7.98576 35.8322 7.80466 35.7564 7.66976 35.6234C7.53671 35.4885 7.46094 35.3074 7.46094 35.117V9.051C7.46094 8.86066 7.53671 8.6777 7.66976 8.54465C7.80467 8.40975 7.98577 8.33398 8.1761 8.33398H42.7629C43.1583 8.33398 43.478 8.65554 43.478 9.05099V35.117C43.478 35.3074 43.4023 35.4885 43.2692 35.6234C43.1343 35.7564 42.9532 35.8322 42.7629 35.8322ZM8.89094 34.4056H42.0457V9.76446H8.89094V34.4056Z" fill="#FD1716"/>
<path d="M43.2659 41.2434H6.73472C5.22308 41.2434 4.16602 39.8242 4.16602 37.7914C4.16602 35.7937 5.1972 34.3984 6.6719 34.3984H7.71046C8.10593 34.3984 8.42747 34.7181 8.42747 35.1136C8.42747 35.5091 8.10592 35.8288 7.71046 35.8288H6.6719C5.97334 35.8288 5.59823 36.8396 5.59823 37.7913C5.59823 38.6026 5.9013 39.813 6.73657 39.813H43.2658C44.0974 39.813 44.4023 38.6229 44.4023 37.8209C44.4023 37.0189 44.0992 35.8288 43.2658 35.8288H42.2309C41.8373 35.8288 41.5176 35.5091 41.5176 35.1136C41.5176 34.7181 41.8373 34.3984 42.2309 34.3984H43.2658C44.7775 34.3984 45.8327 35.8066 45.8327 37.8172C45.8327 39.8278 44.7775 41.2434 43.2659 41.2434ZM29.6259 38.4308H20.3785C19.1699 38.4308 18.3309 36.9006 18.3309 35.5294L18.3291 35.1173C18.3291 34.7219 18.6506 34.4022 19.0461 34.4022C19.4397 34.4022 19.7594 34.7219 19.7594 35.1173V35.5294C19.7594 36.2945 20.2011 36.9653 20.3822 37.0005H29.622C29.7976 36.9672 30.2374 36.2945 30.2374 35.5294L30.2392 35.1173C30.2522 34.733 30.5682 34.4262 30.9544 34.4262C31.3388 34.4262 31.6566 34.733 31.6696 35.1173V35.5294C31.6714 36.9006 30.8326 38.4308 29.6259 38.4308Z" fill="#FD1716"/>
<path d="M25.4683 32.7091C21.9072 32.7091 19.0078 29.2053 19.0078 24.8975C19.0078 20.5898 21.9055 17.0859 25.4683 17.0859C29.0311 17.0859 31.9287 20.5897 31.9287 24.8975C31.9287 29.2052 29.0292 32.7091 25.4683 32.7091ZM25.4683 18.5165C22.6963 18.5165 20.4398 21.3809 20.4398 24.8975C20.4398 28.4141 22.6944 31.2785 25.4683 31.2785C28.2421 31.2785 30.4986 28.4141 30.4986 24.8975C30.4967 21.3808 28.2422 18.5128 25.4683 18.5128V18.5165Z" fill="#FD1716"/>
<path d="M29.2053 20.2239H29.1536H29.1554C28.7618 20.1981 28.4643 19.8562 28.492 19.4626C28.4976 19.3776 28.4994 19.2852 28.4994 19.1706C28.4994 17.0121 27.1393 15.2584 25.465 15.2584C23.7926 15.2584 22.4343 17.014 22.4343 19.1706C22.4343 19.2815 22.4343 19.3757 22.4436 19.4626H22.4454C22.4731 19.8562 22.1756 20.1981 21.7802 20.2239C21.3866 20.2517 21.0447 19.9541 21.0169 19.5605C21.0096 19.4423 21.0059 19.3129 21.0059 19.1706C21.0059 16.2249 23.0072 13.8262 25.4669 13.8262C27.9266 13.8262 29.9316 16.223 29.9316 19.1706C29.9316 19.3148 29.9279 19.4478 29.9187 19.5624C29.8928 19.9357 29.5805 20.2239 29.2053 20.2239Z" fill="#FD1716"/>
<path d="M23.8883 15.6869C23.8495 15.6869 23.8125 15.6832 23.7737 15.6776C23.5871 15.6481 23.4189 15.5446 23.308 15.3912C23.1971 15.2378 23.1509 15.0456 23.1805 14.859C23.284 14.2122 23.199 13.7021 22.9292 13.3399C22.5374 12.8114 21.8426 12.7116 21.8352 12.7098H21.837C21.4434 12.6636 21.1644 12.3051 21.2124 11.9133C21.2605 11.5215 21.6171 11.2425 22.0107 11.2905C22.142 11.3053 23.3099 11.4753 24.0657 12.4696C24.5832 13.1552 24.7624 14.0348 24.5961 15.0844L24.5943 15.0826C24.5388 15.43 24.2394 15.6869 23.8883 15.6869Z" fill="#FD1716"/>
<path d="M27.0515 15.6869C26.7004 15.6869 26.401 15.43 26.3455 15.0826C26.1792 14.0329 26.3566 13.1533 26.8759 12.4677C27.6299 11.4698 28.7978 11.3053 28.9309 11.2887L28.9291 11.2905C29.3227 11.2425 29.6793 11.5215 29.7274 11.9133C29.7736 12.3069 29.4945 12.6636 29.1028 12.7098C29.0787 12.7098 28.3968 12.817 28.0088 13.3399C27.739 13.7021 27.6539 14.2122 27.7574 14.859C27.7889 15.0456 27.7427 15.2378 27.6318 15.3912C27.519 15.5446 27.3509 15.6481 27.1642 15.6776C27.1273 15.6832 27.0884 15.6869 27.0515 15.6869Z" fill="#FD1716"/>
<path d="M20.3613 22.366C20.2615 22.366 20.1636 22.3457 20.073 22.305L20.0619 22.2994C19.5186 22.0592 18.5318 21.588 18.0181 21.1149C17.2789 20.4311 17.4082 18.7199 17.4969 18.0158V18.014C17.5172 17.8218 17.6115 17.6444 17.763 17.5242C17.9146 17.4041 18.1086 17.3487 18.3008 17.3727C18.493 17.3986 18.6667 17.4983 18.7831 17.6536C18.8995 17.8088 18.9476 18.0047 18.918 18.195C18.8256 18.9564 18.8626 19.8582 19.0012 20.0763C19.2636 20.311 19.8882 20.6603 20.6385 20.9911L20.6532 20.9984L20.6514 20.9966C20.96 21.1333 21.1319 21.4678 21.0616 21.7986C20.9914 22.1294 20.6995 22.366 20.3613 22.366Z" fill="#FD1716"/>
<path d="M18.4217 32.8807C18.0632 32.8788 17.7601 32.6127 17.7121 32.2561C17.6197 31.5501 17.4922 29.8352 18.2295 29.1551C18.7987 28.6303 19.9519 28.1092 20.2919 27.9632H20.2938C20.656 27.8061 21.0773 27.9743 21.2344 28.3365C21.3915 28.6987 21.2233 29.12 20.8611 29.2771C20.2587 29.5358 19.5213 29.9202 19.2145 30.1956C19.0778 30.4099 19.0371 31.3155 19.1332 32.075C19.1831 32.4668 18.9059 32.8253 18.5141 32.8752H18.5123C18.4827 32.8789 18.4531 32.8807 18.4217 32.8807Z" fill="#FD1716"/>
<path d="M18.1574 26.6217C17.7731 26.6217 17.409 26.5293 17.1281 26.2669C16.5404 25.7236 15.5388 24.3191 15.4261 24.1602V24.1621C15.1969 23.8387 15.2708 23.3915 15.5924 23.1623C15.9158 22.9331 16.363 23.0071 16.5922 23.3305C16.8694 23.7185 17.6548 24.7848 18.0706 25.184C18.2627 25.2265 18.8504 25.0861 19.4344 24.8033C19.7855 24.6499 20.1939 24.8033 20.3602 25.1489C20.5265 25.4926 20.3916 25.9084 20.0553 26.0895C19.5693 26.3279 18.8301 26.6217 18.1574 26.6217Z" fill="#FD1716"/>
<path d="M30.5772 22.3657C30.2372 22.3657 29.9452 22.1273 29.8768 21.7965C29.8066 21.4639 29.9803 21.1294 30.2926 20.9945C30.8969 20.7321 31.6361 20.3477 31.9392 20.0705C32.0778 19.8561 32.1166 18.9506 32.0205 18.1892V18.1911C31.9688 17.7975 32.246 17.439 32.6377 17.3891C33.0295 17.3373 33.388 17.6127 33.4398 18.0063C33.5322 18.7104 33.6615 20.4235 32.9242 21.1054C32.3753 21.6117 31.298 22.107 30.8618 22.2992V22.2973C30.7713 22.3398 30.6752 22.3638 30.5772 22.3657Z" fill="#FD1716"/>
<path d="M32.5133 32.8807C32.4838 32.8807 32.4524 32.8789 32.4209 32.8752C32.2343 32.8512 32.0624 32.7532 31.946 32.6035C31.8296 32.4538 31.7778 32.2635 31.8037 32.075C31.8961 31.3136 31.861 30.4118 31.7224 30.1956C31.4138 29.9184 30.6765 29.5358 30.0758 29.2771H30.074C29.7118 29.12 29.5455 28.6987 29.7007 28.3365C29.8578 27.9743 30.2791 27.8061 30.6432 27.9632C30.9832 28.1092 32.1363 28.6284 32.7055 29.1551C33.4447 29.8352 33.3135 31.5501 33.223 32.2561C33.1768 32.6127 32.8737 32.8807 32.5133 32.8807Z" fill="#FD1716"/>
<path d="M32.7795 26.6176C32.0588 26.6176 31.2789 26.2868 30.8816 26.0909H30.8798C30.5268 25.9172 30.3789 25.4885 30.5545 25.1337C30.7282 24.7789 31.1569 24.6329 31.5117 24.8066C32.0662 25.0783 32.676 25.2279 32.8719 25.1854C33.2821 24.79 34.0731 23.72 34.3503 23.3319H34.3484C34.5794 23.0103 35.0266 22.9346 35.3482 23.1637C35.6716 23.3947 35.7455 23.8419 35.5163 24.1635C35.4036 24.3224 34.4002 25.7251 33.8162 26.2665C33.5297 26.5234 33.1639 26.6176 32.7795 26.6176Z" fill="#FD1716"/>
<path d="M25.4495 32.71C25.0541 32.71 24.7344 32.3903 24.7344 31.9948V22.0525C24.7473 21.6681 25.0652 21.3613 25.4495 21.3613C25.8358 21.3613 26.1518 21.6681 26.1647 22.0525V31.9948C26.1665 32.1852 26.0908 32.3663 25.9559 32.5012C25.821 32.6342 25.6399 32.71 25.4495 32.71Z" fill="#FD1716"/>
</svg>
