<svg width="50" height="50" viewBox="0 0 50 50" fill="none" xmlns="http://www.w3.org/2000/svg">
<path d="M27.2379 28.7164V25.7374C27.2379 25.1456 27.0028 24.578 26.5843 24.1595C26.1658 23.741 25.5982 23.5059 25.0064 23.5059C24.4145 23.5059 23.8469 23.741 23.4284 24.1595C23.0099 24.578 22.7748 25.1456 22.7748 25.7374V28.7164C22.3111 29.0603 21.9348 29.5085 21.6764 30.0248C21.418 30.5411 21.2846 31.1109 21.2871 31.6882C21.2871 32.6746 21.679 33.6206 22.3765 34.3181C23.074 35.0156 24.02 35.4074 25.0064 35.4074C25.9928 35.4074 26.9388 35.0156 27.6363 34.3181C28.3338 33.6206 28.7256 32.6746 28.7256 31.6882C28.7282 31.1109 28.5948 30.5411 28.3364 30.0248C28.0779 29.5085 27.7016 29.0603 27.2379 28.7164ZM25.0064 33.9197C24.515 33.9201 24.0373 33.7582 23.6474 33.4591C23.2576 33.16 22.9774 32.7404 22.8505 32.2657C22.7236 31.791 22.7571 31.2877 22.9457 30.834C23.1343 30.3802 23.4676 30.0015 23.8936 29.7567C24.0059 29.6913 24.0991 29.5976 24.1639 29.4849C24.2286 29.3722 24.2626 29.2444 24.2625 29.1145V25.7374C24.2625 25.5401 24.3409 25.3509 24.4804 25.2114C24.6199 25.0719 24.8091 24.9936 25.0064 24.9936C25.2037 24.9936 25.3929 25.0719 25.5324 25.2114C25.6719 25.3509 25.7502 25.5401 25.7502 25.7374V29.1145C25.7501 29.2444 25.7842 29.3722 25.8489 29.4848C25.9137 29.5975 26.0069 29.6913 26.1192 29.7566C26.5452 30.0015 26.8785 30.3802 27.0671 30.8339C27.2557 31.2877 27.2892 31.791 27.1623 32.2657C27.0354 32.7405 26.7553 33.16 26.3654 33.4591C25.9755 33.7582 25.4978 33.9201 25.0064 33.9197Z" fill="#FD1716"/>
<path d="M39.9875 28.713C40.1686 29.4142 40.5991 30.0253 41.1985 30.4318C41.7979 30.8382 42.5249 31.0121 43.2433 30.9209C43.9618 30.8296 44.6222 30.4795 45.101 29.9361C45.5797 29.3927 45.8438 28.6934 45.8438 27.9692C45.8438 27.245 45.5797 26.5456 45.101 26.0023C44.6222 25.4589 43.9618 25.1087 43.2433 25.0175C42.5249 24.9262 41.7979 25.1001 41.1985 25.5066C40.5991 25.913 40.1686 26.5241 39.9875 27.2253H36.9065V22.7622H39.8819C39.9796 22.7622 40.0763 22.743 40.1665 22.7056C40.2568 22.6682 40.3388 22.6134 40.4078 22.5443L43.3832 19.5689C43.4523 19.4999 43.5071 19.4179 43.5445 19.3276C43.5819 19.2374 43.6012 19.1407 43.6011 19.043V15.962C44.3023 15.7809 44.9134 15.3504 45.3199 14.751C45.7263 14.1516 45.9002 13.4246 45.809 12.7061C45.7177 11.9877 45.3676 11.3272 44.8242 10.8485C44.2808 10.3698 43.5815 10.1057 42.8573 10.1057C42.1331 10.1057 41.4338 10.3698 40.8904 10.8485C40.347 11.3272 39.9969 11.9877 39.9056 12.7061C39.8144 13.4246 39.9883 14.1516 40.3947 14.751C40.8011 15.3504 41.4122 15.7809 42.1134 15.962V18.735L39.5739 21.2745H36.9065V19.7868C36.9066 19.6891 36.8874 19.5924 36.85 19.5021C36.8126 19.4118 36.7578 19.3298 36.6888 19.2607C36.6197 19.1916 36.5376 19.1369 36.4474 19.0995C36.3571 19.0621 36.2603 19.0429 36.1626 19.043H33.9311V13.0922C33.9311 10.7248 32.9907 8.45442 31.3167 6.78043C29.6427 5.10645 27.3723 4.16602 25.0049 4.16602C22.6376 4.16602 20.3671 5.10645 18.6932 6.78043C17.0192 8.45442 16.0787 10.7248 16.0787 13.0922V19.043H13.8472C13.7495 19.0429 13.6527 19.0621 13.5625 19.0995C13.4722 19.1369 13.3902 19.1916 13.3211 19.2607C13.252 19.3298 13.1972 19.4118 13.1599 19.5021C13.1225 19.5924 13.1033 19.6891 13.1033 19.7868V21.2745H10.4359L7.8964 18.735V15.962C8.5976 15.7809 9.20869 15.3504 9.61514 14.751C10.0216 14.1516 10.1955 13.4246 10.1042 12.7061C10.013 11.9877 9.66285 11.3272 9.11946 10.8485C8.57608 10.3698 7.87675 10.1057 7.15256 10.1057C6.42836 10.1057 5.72903 10.3698 5.18565 10.8485C4.64226 11.3272 4.29213 11.9877 4.20088 12.7061C4.10962 13.4246 4.28352 14.1516 4.68997 14.751C5.09642 15.3504 5.70751 15.7809 6.40871 15.962V19.043C6.40869 19.1407 6.42793 19.2374 6.46532 19.3276C6.50271 19.4179 6.55753 19.4999 6.62662 19.5689L9.60202 22.5443C9.67106 22.6134 9.75305 22.6682 9.84329 22.7056C9.93354 22.743 10.0303 22.7622 10.1279 22.7622H13.1033V27.2253H10.0223C9.84127 26.5241 9.41071 25.913 8.81133 25.5066C8.21195 25.1001 7.48492 24.9262 6.7665 25.0175C6.04808 25.1087 5.3876 25.4589 4.90887 26.0023C4.43014 26.5456 4.16602 27.245 4.16602 27.9692C4.16602 28.6934 4.43014 29.3927 4.90887 29.9361C5.3876 30.4795 6.04808 30.8296 6.7665 30.9209C7.48492 31.0121 8.21195 30.8382 8.81133 30.4318C9.41071 30.0253 9.84127 29.4142 10.0223 28.713H13.1033V33.1761H10.1279C10.0303 33.1761 9.93354 33.1953 9.84329 33.2327C9.75305 33.2701 9.67106 33.3249 9.60202 33.394L6.62662 36.3694C6.55753 36.4385 6.50271 36.5205 6.46532 36.6107C6.42793 36.7009 6.40869 36.7977 6.40871 36.8954V39.9764C5.70751 40.1574 5.09642 40.588 4.68997 41.1874C4.28352 41.7867 4.10962 42.5138 4.20088 43.2322C4.29213 43.9506 4.64226 44.6111 5.18565 45.0898C5.72903 45.5686 6.42836 45.8327 7.15256 45.8327C7.87675 45.8327 8.57608 45.5686 9.11946 45.0898C9.66285 44.6111 10.013 43.9506 10.1042 43.2322C10.1955 42.5138 10.0216 41.7867 9.61514 41.1874C9.20869 40.588 8.5976 40.1574 7.8964 39.9764V37.2033L10.4359 34.6638H13.1033V37.6392C13.1033 37.7369 13.1225 37.8337 13.1599 37.9239C13.1972 38.0142 13.252 38.0962 13.3211 38.1653C13.3902 38.2344 13.4722 38.2892 13.5625 38.3265C13.6527 38.3639 13.7495 38.3831 13.8472 38.3831H36.1626C36.2603 38.3831 36.3571 38.3639 36.4474 38.3265C36.5376 38.2892 36.6197 38.2344 36.6888 38.1653C36.7578 38.0962 36.8126 38.0142 36.85 37.9239C36.8874 37.8337 36.9066 37.7369 36.9065 37.6392V34.6638H39.5739L42.1134 37.2033V39.9764C41.4122 40.1574 40.8011 40.588 40.3947 41.1874C39.9883 41.7867 39.8144 42.5138 39.9056 43.2322C39.9969 43.9506 40.347 44.6111 40.8904 45.0898C41.4338 45.5686 42.1331 45.8327 42.8573 45.8327C43.5815 45.8327 44.2808 45.5686 44.8242 45.0898C45.3676 44.6111 45.7177 43.9506 45.809 43.2322C45.9002 42.5138 45.7263 41.7867 45.3199 41.1874C44.9134 40.588 44.3023 40.1574 43.6011 39.9764V36.8954C43.6012 36.7977 43.5819 36.7009 43.5445 36.6107C43.5071 36.5205 43.4523 36.4385 43.3832 36.3694L40.4078 33.394C40.3388 33.3249 40.2568 33.2701 40.1665 33.2327C40.0763 33.1953 39.9796 33.1761 39.8819 33.1761H36.9065V28.713H39.9875ZM42.8573 26.4815C43.1515 26.4815 43.4392 26.5687 43.6838 26.7322C43.9285 26.8957 44.1191 27.128 44.2317 27.3999C44.3443 27.6717 44.3738 27.9708 44.3164 28.2594C44.259 28.548 44.1173 28.8131 43.9092 29.0211C43.7012 29.2292 43.4361 29.3709 43.1475 29.4283C42.8589 29.4857 42.5598 29.4562 42.288 29.3436C42.0161 29.231 41.7838 29.0403 41.6203 28.7957C41.4568 28.551 41.3696 28.2634 41.3696 27.9692C41.3701 27.5748 41.527 27.1967 41.8059 26.9178C42.0848 26.6389 42.4629 26.482 42.8573 26.4815ZM41.3696 13.0922C41.3696 12.798 41.4568 12.5103 41.6203 12.2657C41.7838 12.021 42.0161 11.8303 42.288 11.7177C42.5598 11.6051 42.8589 11.5757 43.1475 11.6331C43.4361 11.6905 43.7012 11.8322 43.9092 12.0402C44.1173 12.2483 44.259 12.5134 44.3164 12.802C44.3738 13.0905 44.3443 13.3897 44.2317 13.6615C44.1191 13.9334 43.9285 14.1657 43.6838 14.3292C43.4392 14.4926 43.1515 14.5799 42.8573 14.5799C42.4629 14.5794 42.0848 14.4225 41.8059 14.1436C41.527 13.8647 41.3701 13.4866 41.3696 13.0922ZM5.66486 13.0922C5.66486 12.798 5.75211 12.5103 5.91558 12.2657C6.07905 12.021 6.3114 11.8303 6.58324 11.7177C6.85508 11.6051 7.15421 11.5757 7.44279 11.6331C7.73138 11.6905 7.99646 11.8322 8.20452 12.0402C8.41257 12.2483 8.55426 12.5134 8.61167 12.802C8.66907 13.0905 8.63961 13.3897 8.52701 13.6615C8.41441 13.9334 8.22373 14.1657 7.97908 14.3292C7.73442 14.4926 7.44679 14.5799 7.15256 14.5799C6.75815 14.5794 6.38005 14.4225 6.10116 14.1436C5.82227 13.8647 5.66537 13.4866 5.66486 13.0922ZM7.15256 29.4569C6.85832 29.4569 6.57069 29.3696 6.32604 29.2061C6.08138 29.0427 5.8907 28.8103 5.7781 28.5385C5.6655 28.2666 5.63604 27.9675 5.69344 27.6789C5.75085 27.3903 5.89254 27.1253 6.10059 26.9172C6.30865 26.7092 6.57374 26.5675 6.86232 26.5101C7.1509 26.4527 7.45003 26.4821 7.72187 26.5947C7.99371 26.7073 8.22606 26.898 8.38953 27.1427C8.553 27.3873 8.64025 27.6749 8.64025 27.9692C8.63974 28.3636 8.48284 28.7417 8.20395 29.0206C7.92506 29.2995 7.54696 29.4564 7.15256 29.4569ZM8.64025 42.8461C8.64025 43.1404 8.553 43.428 8.38953 43.6727C8.22606 43.9173 7.99371 44.108 7.72187 44.2206C7.45003 44.3332 7.1509 44.3627 6.86232 44.3053C6.57374 44.2479 6.30865 44.1062 6.10059 43.8981C5.89254 43.69 5.75085 43.425 5.69344 43.1364C5.63604 42.8478 5.6655 42.5487 5.7781 42.2768C5.8907 42.005 6.08138 41.7726 6.32604 41.6092C6.57069 41.4457 6.85832 41.3584 7.15256 41.3584C7.54696 41.359 7.92506 41.5159 8.20395 41.7947C8.48284 42.0736 8.63974 42.4517 8.64025 42.8461ZM44.345 42.8461C44.345 43.1404 44.2577 43.428 44.0943 43.6727C43.9308 43.9173 43.6984 44.108 43.4266 44.2206C43.1548 44.3332 42.8556 44.3627 42.5671 44.3053C42.2785 44.2479 42.0134 44.1062 41.8053 43.8981C41.5973 43.69 41.4556 43.425 41.3982 43.1364C41.3408 42.8478 41.3702 42.5487 41.4828 42.2768C41.5954 42.005 41.7861 41.7726 42.0308 41.6092C42.2754 41.4457 42.563 41.3584 42.8573 41.3584C43.2517 41.359 43.6298 41.5159 43.9087 41.7947C44.1876 42.0736 44.3445 42.4517 44.345 42.8461ZM17.5664 13.0922C17.5664 11.1194 18.3501 9.22738 19.7451 7.8324C21.1401 6.43741 23.0321 5.65371 25.0049 5.65371C26.9777 5.65371 28.8697 6.43741 30.2647 7.8324C31.6597 9.22738 32.4434 11.1194 32.4434 13.0922V19.043H30.9557V13.0922C30.9557 11.514 30.3288 10.0003 29.2128 8.88436C28.0968 7.76837 26.5832 7.14141 25.0049 7.14141C23.4267 7.14141 21.9131 7.76837 20.7971 8.88436C19.6811 10.0003 19.0541 11.514 19.0541 13.0922V19.043H17.5664V13.0922ZM20.5418 19.043V13.0922C20.5418 11.9085 21.012 10.7733 21.849 9.93632C22.686 9.09932 23.8212 8.62911 25.0049 8.62911C26.1886 8.62911 27.3238 9.09932 28.1608 9.93632C28.9978 10.7733 29.468 11.9085 29.468 13.0922V19.043H20.5418ZM35.4188 36.8954H14.591V20.5307H35.4188V36.8954Z" fill="#FD1716"/>
</svg>
