<svg width="50" height="50" viewBox="0 0 50 50" fill="none" xmlns="http://www.w3.org/2000/svg">
<path d="M42.241 12.7869H28.5914V4.8844C28.5914 4.48749 28.2699 4.16602 27.873 4.16602C27.4761 4.16602 27.1546 4.48749 27.1546 4.8844V12.7869H22.8443V9.49307L23.0544 9.70319C23.3346 9.98337 23.789 9.98337 24.0709 9.70319C24.3511 9.42302 24.3511 8.96862 24.0709 8.68669L22.6342 7.24992C22.4294 7.04518 22.1205 6.98412 21.8511 7.09367C21.5817 7.20502 21.4075 7.46723 21.4075 7.75817V12.7871H7.75795C5.777 12.7871 4.16602 14.3981 4.16602 16.379V30.7468C4.16602 31.1437 4.48749 31.4652 4.8844 31.4652C5.28131 31.4652 5.60279 31.1437 5.60279 30.7468V25.7178H44.3957V36.4939C44.3957 37.6828 43.4294 38.649 42.2405 38.649H35.0566C34.6597 38.649 34.3383 38.9705 34.3383 39.3674C34.3383 39.7643 34.6597 40.0858 35.0566 40.0858H42.2405C44.2215 40.0858 45.8324 38.4748 45.8324 36.4939V16.379C45.8324 14.3981 44.2215 12.7871 42.2405 12.7871L42.241 12.7869ZM42.241 14.2237C43.4299 14.2237 44.3961 15.1899 44.3961 16.3788V17.0972H22.8445V14.2237H42.241ZM7.75841 14.2237H21.408V17.0972H5.60348V16.3788C5.60348 15.1899 6.5695 14.2237 7.75841 14.2237ZM5.60325 24.2811V18.534H21.4078V19.2524C21.4078 21.2333 23.0187 22.8443 24.9997 22.8443C25.3966 22.8443 25.7181 22.5228 25.7181 22.1259C25.7181 21.729 25.3966 21.4075 24.9997 21.4075C23.8108 21.4075 22.8445 20.4413 22.8445 19.2524V18.534H44.3961V24.2811H5.60325Z" fill="#FD1716"/>
<path d="M7.75795 40.0857H14.9418C15.3387 40.0857 15.6602 39.7642 15.6602 39.3673C15.6602 38.9704 15.3387 38.6489 14.9418 38.6489H7.75795C6.56904 38.6489 5.60279 37.6827 5.60279 36.4938C5.60279 36.0969 5.28131 35.7754 4.8844 35.7754C4.48749 35.7754 4.16602 36.0969 4.16602 36.4938C4.16602 38.4747 5.777 40.0857 7.75795 40.0857Z" fill="#FD1716"/>
<path d="M13.506 34.3391C13.9029 34.3391 14.2244 34.0176 14.2244 33.6207C14.2244 33.2238 13.9029 32.9023 13.506 32.9023H10.6324C10.2355 32.9023 9.91406 33.2238 9.91406 33.6207C9.91406 34.0176 10.2355 34.3391 10.6324 34.3391H13.506Z" fill="#FD1716"/>
<path d="M32.9026 37.9298C32.9026 33.5728 29.3574 30.0273 25.0001 30.0273C20.6429 30.0273 17.0977 33.5726 17.0977 37.9298C17.0977 42.2871 20.6429 45.8323 25.0001 45.8323C29.3574 45.8323 32.9026 42.2871 32.9026 37.9298ZM18.5349 37.9298C18.5349 34.3648 21.4354 31.4646 25.0001 31.4646C28.5649 31.4646 31.4654 34.3651 31.4654 37.9298C31.4654 41.4946 28.5649 44.3951 25.0001 44.3951C21.4354 44.3951 18.5349 41.4946 18.5349 37.9298Z" fill="#FD1716"/>
<path d="M25.9293 39.8755C26.0694 40.0156 26.2526 40.0856 26.4376 40.0856C26.6208 40.0856 26.8057 40.0156 26.9458 39.8755C27.226 39.5953 27.226 39.1409 26.9458 38.859L26.0173 37.9305L26.9458 37.002C27.226 36.7218 27.226 36.2674 26.9458 35.9855C26.6657 35.7053 26.2113 35.7053 25.9293 35.9855L25.0008 36.914L24.0723 35.9855C23.7922 35.7053 23.3378 35.7053 23.0558 35.9855C22.7757 36.2657 22.7757 36.7201 23.0558 37.002L23.9843 37.9305L23.0558 38.859C22.7757 39.1392 22.7757 39.5936 23.0558 39.8755C23.1959 40.0156 23.3791 40.0856 23.5641 40.0856C23.7473 40.0856 23.9323 40.0156 24.0724 39.8755L25.0009 38.947L25.9293 39.8755Z" fill="#FD1716"/>
<path d="M5.60279 33.6203C5.60279 34.5775 4.16602 34.5775 4.16602 33.6203C4.16602 32.663 5.60279 32.663 5.60279 33.6203Z" fill="#FD1716"/>
</svg>
