<svg width="50" height="50" viewBox="0 0 50 50" fill="none" xmlns="http://www.w3.org/2000/svg">
<path d="M42.7025 6.85514H39.9421V3.65952C39.9421 3.29236 39.6497 3 39.2825 3H15.7777C15.7642 3 15.7506 3.0068 15.737 3.0068C15.6758 3.0136 15.6146 3.0204 15.5602 3.0408C15.5398 3.04759 15.5194 3.05439 15.499 3.06119C15.431 3.09519 15.3698 3.12918 15.3154 3.18358C15.3154 3.18358 15.3086 3.18358 15.3086 3.19038L7.19038 11.3086C7.19038 11.3086 7.19038 11.3154 7.18358 11.3154C7.12918 11.3698 7.08839 11.431 7.06119 11.499C7.05439 11.5194 7.04759 11.5398 7.0408 11.5602C7.0204 11.6146 7.0068 11.6758 7.0068 11.737C7.0068 11.7506 7 11.7642 7 11.7777V42.3469C7 42.714 7.29236 43.0064 7.65952 43.0064H11.3991V45.0054C11.3991 45.3725 11.6914 45.6649 12.0586 45.6649H42.7093C43.0765 45.6649 43.3688 45.3725 43.3688 45.0054V7.51466C43.362 7.1475 43.0697 6.85514 42.7025 6.85514ZM15.1182 5.25053V11.1182H9.25053L15.1182 5.25053ZM8.31904 12.4373H15.7777C16.1449 12.4373 16.4373 12.1449 16.4373 11.7777V4.31904H38.6298V41.6874H8.31904V12.4373ZM42.043 44.3391H12.7113V42.9996H39.2825C39.6497 42.9996 39.9421 42.7072 39.9421 42.3401V8.16738H42.0362V44.3391H42.043Z" fill="black"/>
<path d="M11.3275 34.7253H35.621C35.9881 34.7253 36.2805 34.4329 36.2805 34.0658C36.2805 33.6986 35.9881 33.4062 35.621 33.4062H11.3275C10.9603 33.4062 10.668 33.6986 10.668 34.0658C10.668 34.4329 10.9671 34.7253 11.3275 34.7253Z" fill="black"/>
<path d="M22.2198 38.1751C22.2198 37.808 21.9274 37.5156 21.5603 37.5156H11.3275C10.9603 37.5156 10.668 37.808 10.668 38.1751C10.668 38.5423 10.9603 38.8347 11.3275 38.8347H21.5535C21.9206 38.8347 22.2198 38.5423 22.2198 38.1751Z" fill="black"/>
<path d="M11.3275 26.5612H35.621C35.9881 26.5612 36.2805 26.2689 36.2805 25.9017C36.2805 25.5346 35.9881 25.2422 35.621 25.2422H11.3275C10.9603 25.2422 10.668 25.5346 10.668 25.9017C10.668 26.2689 10.9671 26.5612 11.3275 26.5612Z" fill="black"/>
<path d="M11.3275 30.6628H35.621C35.9881 30.6628 36.2805 30.3704 36.2805 30.0033C36.2805 29.6361 35.9881 29.3438 35.621 29.3438H11.3275C10.9603 29.3438 10.668 29.6361 10.668 30.0033C10.668 30.3704 10.9671 30.6628 11.3275 30.6628Z" fill="black"/>
<path d="M11.3275 22.5065H35.621C35.9881 22.5065 36.2805 22.2142 36.2805 21.847C36.2805 21.4799 35.9881 21.1875 35.621 21.1875H11.3275C10.9603 21.1875 10.668 21.4799 10.668 21.847C10.668 22.2074 10.9671 22.5065 11.3275 22.5065Z" fill="black"/>
<path d="M23.474 12.1337C22.7669 12.1337 22.1958 11.5625 22.1958 10.8554C22.1958 10.1483 22.7669 9.57719 23.474 9.57719C24.1811 9.57719 24.7523 10.1483 24.7523 10.8554C24.7523 11.2294 25.0582 11.5354 25.4322 11.5354C25.8061 11.5354 26.1121 11.2294 26.1121 10.8554C26.1121 9.63838 25.2758 8.6185 24.1539 8.31934V7.73461C24.1539 7.36065 23.848 7.05469 23.474 7.05469C23.1001 7.05469 22.7941 7.36065 22.7941 7.73461V8.31934C21.6722 8.6185 20.8359 9.63838 20.8359 10.8554C20.8359 12.3105 22.019 13.4935 23.474 13.4935C24.1811 13.4935 24.7523 14.0646 24.7523 14.7718C24.7523 15.4789 24.1811 16.05 23.474 16.05C22.7669 16.05 22.1958 15.4789 22.1958 14.7718C22.1958 14.3978 21.8898 14.0918 21.5159 14.0918C21.1419 14.0918 20.8359 14.3978 20.8359 14.7718C20.8359 15.9888 21.6722 17.0087 22.7941 17.3079V17.8926C22.7941 18.2665 23.1001 18.5725 23.474 18.5725C23.848 18.5725 24.1539 18.2665 24.1539 17.8926V17.3079C25.2758 17.0087 26.1121 15.9888 26.1121 14.7718C26.1121 13.3167 24.929 12.1337 23.474 12.1337Z" fill="black"/>
</svg>
