<svg width="41" height="41" viewBox="0 0 41 41" fill="none" xmlns="http://www.w3.org/2000/svg">
<g clip-path="url(#clip0_7215_14136)">
<path d="M27.2189 11.1778C27.0893 10.9552 27.1613 10.6609 27.3916 10.5316C27.622 10.4024 27.91 10.4742 28.0396 10.7039L28.594 11.666L30.869 9.39721C31.0562 9.21054 31.3585 9.21054 31.5457 9.39721C31.7329 9.58389 31.7329 9.88544 31.5457 10.0721L28.8315 12.7789C28.6083 13.0015 28.2412 12.9512 28.0828 12.6784L27.2189 11.1778ZM32.5464 32.9901L32.928 32.6095L32.3664 32.0495C30.7034 33.3706 28.2916 33.2557 26.7653 31.7336C25.1238 30.0966 25.1238 27.4329 26.7653 25.7887C28.4068 24.1517 31.0778 24.1517 32.7264 25.7887C34.2455 27.3108 34.3679 29.7161 33.0432 31.3746L33.6048 31.9346L33.9719 31.5685C34.1591 31.3818 34.4615 31.3818 34.6487 31.5685L37.8596 34.7707C38.0468 34.9573 38.0468 35.2589 37.8596 35.4456L36.4413 36.86C36.2541 37.0467 35.9518 37.0467 35.7646 36.86L32.5536 33.6578C32.3593 33.4783 32.3592 33.1768 32.5464 32.9901ZM34.3031 32.5808L33.5616 33.3275L36.0958 35.8548L36.8373 35.1081L34.3031 32.5808ZM29.7387 25.5087C27.9388 25.5087 26.4773 26.9662 26.4773 28.7612C26.4773 30.5561 27.9388 32.0136 29.7387 32.0136C31.5385 32.0136 33 30.5561 33 28.7612C33 26.9662 31.5385 25.5087 29.7387 25.5087ZM29.8467 21.3085C29.8467 21.0429 30.0554 20.8347 30.3218 20.8347C30.5882 20.8347 30.797 21.05 30.797 21.3085V23.6491C30.797 23.9148 30.581 24.123 30.3218 24.123C30.0626 24.123 29.8467 23.9076 29.8467 23.6491V21.3085ZM24.4903 28.9622C24.7567 28.9622 24.9654 29.1776 24.9654 29.4361C24.9654 29.6945 24.7567 29.9099 24.4903 29.9099H21.5025C21.2361 29.9099 21.0274 29.7017 21.0274 29.4361C21.0274 29.1704 21.2361 28.9622 21.5025 28.9622H24.4903ZM28.0036 3H30.3722C30.6386 3 30.8474 3.20821 30.8474 3.47387V4.637C31.4881 4.79495 32.1073 5.05343 32.6688 5.39088L33.4896 4.57238C33.6767 4.3857 33.9791 4.3857 34.1663 4.57238L35.8438 6.24528C36.031 6.43195 36.031 6.7335 35.8438 6.92018L35.023 7.73868C35.3614 8.30588 35.6134 8.91617 35.779 9.55517H36.9381C37.2045 9.55517 37.4132 9.77056 37.4132 10.029V12.3912C37.4132 12.6568 37.1973 12.8651 36.9381 12.8651H35.779C35.6206 13.5041 35.3614 14.1215 35.023 14.6816L35.8438 15.5001C36.031 15.6867 36.031 15.9883 35.8438 16.175L34.1663 17.8479C33.9791 18.0345 33.6767 18.0345 33.4896 17.8479L32.6688 17.0294C32.1001 17.3668 31.4881 17.6181 30.8474 17.7832V18.9392C30.8474 19.212 30.6314 19.4274 30.329 19.4131H28.0036C27.7372 19.4131 27.5284 19.1977 27.5284 18.9392V17.7761C26.8877 17.6181 26.2685 17.3596 25.707 17.0222L24.8862 17.8407C24.6991 18.0273 24.3967 18.0273 24.2095 17.8407L22.532 16.1678C22.3449 15.9811 22.3449 15.6795 22.532 15.4929L23.3528 14.6744C23.0144 14.1144 22.7624 13.4969 22.5968 12.8579H21.4377C21.1641 12.8579 20.9482 12.6425 20.9626 12.3409V10.0219C20.9626 9.7562 21.1713 9.54799 21.4377 9.54799H22.5968C22.7552 8.90899 23.0144 8.29152 23.3528 7.7315L22.532 6.913C22.3449 6.72632 22.3449 6.42477 22.532 6.2381L24.2095 4.5652C24.3967 4.37852 24.6991 4.37852 24.8862 4.5652L25.707 5.3837C26.2757 5.04625 26.8877 4.79495 27.5284 4.62982V3.47387C27.5284 3.21539 27.7372 3.00718 28.0036 3ZM29.897 3.95492H28.4788V4.99599C28.4932 5.23292 28.3276 5.44114 28.09 5.48422C27.694 5.55601 27.3125 5.67807 26.9525 5.82167C26.5925 5.97244 26.2541 6.15194 25.9302 6.36733C25.743 6.51093 25.4766 6.49657 25.3038 6.33143L24.5479 5.57755L23.5472 6.57555L24.3031 7.32943C24.4615 7.48738 24.4903 7.73868 24.3607 7.93253C24.1375 8.2628 23.9431 8.60743 23.7919 8.9736C23.6479 9.32542 23.5328 9.69877 23.4608 10.0793C23.432 10.3162 23.2304 10.4957 22.9856 10.4957H21.9129V11.9101H22.9856C23.2088 11.9101 23.4104 12.0681 23.4536 12.2979C23.5256 12.6927 23.6407 13.0733 23.7919 13.4323C23.9431 13.7913 24.1231 14.1359 24.3463 14.4518C24.4903 14.6385 24.4759 14.9041 24.3031 15.0764L23.5472 15.8375L24.5479 16.8355L25.3038 16.0816C25.4622 15.9237 25.7142 15.8949 25.9086 16.0242C26.2325 16.2468 26.5853 16.4406 26.9525 16.5914C27.3053 16.735 27.6796 16.8499 28.0612 16.9217C28.2988 16.9504 28.4788 17.1514 28.4788 17.3955V18.4581H29.897V17.3955C29.897 17.1729 30.0554 16.9719 30.2858 16.9288C30.6818 16.857 31.0634 16.7422 31.4233 16.5914C31.7833 16.4406 32.1217 16.2611 32.4456 16.0457C32.6328 15.9021 32.8992 15.9165 33.0792 16.0816L33.8351 16.8355L34.8359 15.8375L34.0799 15.0836C33.9215 14.9257 33.8927 14.6744 34.0223 14.4805C34.2455 14.1502 34.4399 13.8056 34.5911 13.4394C34.7351 13.0876 34.8503 12.7215 34.9222 12.3338C34.951 12.0968 35.1526 11.9173 35.3974 11.9173H36.4629V10.5029H35.3974C35.1742 10.5029 34.9726 10.3449 34.9294 10.1152C34.8575 9.7203 34.7423 9.33977 34.5911 8.98078C34.4471 8.62179 34.2599 8.28434 34.0439 7.96125C33.8999 7.77458 33.9143 7.50892 34.0799 7.33661L34.8287 6.57555L33.8279 5.57755L33.072 6.33143C32.9136 6.48939 32.6616 6.51811 32.4672 6.38887C32.1361 6.1663 31.7905 5.97962 31.4233 5.82167C31.0706 5.67807 30.7034 5.56319 30.3146 5.49139C30.077 5.46268 29.897 5.26164 29.897 5.02471V3.95492ZM29.1843 6.79094C31.6321 6.79094 33.6119 8.76539 33.6119 11.2065C33.6119 13.6477 31.6321 15.6221 29.1843 15.6221C26.7437 15.6221 24.7567 13.6477 24.7567 11.2065C24.7639 8.77257 26.7437 6.79094 29.1843 6.79094ZM31.6465 8.75821C30.2858 7.40123 28.09 7.40123 26.7365 8.75821C25.383 10.108 25.383 12.305 26.7365 13.6548C28.0972 15.0118 30.293 15.0118 31.6465 13.6548C33 12.305 33 10.108 31.6465 8.75821ZM13.1368 19.8367C13.6983 19.8367 14.2095 20.0736 14.5695 20.4469L16.6069 19.2695C16.8301 19.1402 17.1253 19.2192 17.2549 19.4418C17.3844 19.6715 17.3125 19.9587 17.0821 20.088L15.0374 21.2654C15.4046 22.5291 14.4543 23.7999 13.1296 23.7999C11.3441 23.7999 10.4658 21.6244 11.7545 20.3895L11.3081 19.6213C11.1785 19.3987 11.2505 19.1043 11.4809 18.9751C11.7041 18.8458 11.9993 18.9176 12.1289 19.1474L12.5752 19.9156C12.7624 19.8654 12.9496 19.8367 13.1368 19.8367ZM13.8711 21.0859C13.2232 20.4398 12.1001 20.8993 12.1001 21.8183C12.1001 22.7373 13.216 23.1968 13.8711 22.5506C14.2743 22.1486 14.2743 21.4952 13.8711 21.0859ZM12.6616 14.3297C12.6616 14.0641 12.8776 13.8559 13.1368 13.8559C13.4032 13.8559 13.6119 14.0713 13.6119 14.3297V15.3708C13.6119 15.6365 13.4032 15.8447 13.1368 15.8447C12.8704 15.8447 12.6616 15.6365 12.6616 15.3708V14.3297ZM19.8826 25.1569C20.113 25.2861 20.1922 25.5805 20.0554 25.8031C19.9258 26.0257 19.6307 26.1046 19.4075 25.9754L18.5076 25.4585C18.2772 25.3292 18.198 25.0348 18.3348 24.8123C18.4644 24.5825 18.7595 24.5035 18.9827 24.64L19.8826 25.1569ZM20.653 21.3444C20.9122 21.3444 21.1281 21.5526 21.1281 21.8183C21.1281 22.0768 20.9122 22.2922 20.653 22.2922H19.6091C19.3499 22.2922 19.1339 22.0839 19.1339 21.8183C19.1339 21.5526 19.3499 21.3444 19.6091 21.3444H20.653ZM19.4075 17.6612C19.6307 17.5319 19.9258 17.6109 20.0554 17.8335C20.185 18.0561 20.113 18.3504 19.8826 18.4797L18.9827 19.0038C18.7595 19.133 18.4644 19.0541 18.3348 18.8315C18.2052 18.6017 18.2772 18.3145 18.5076 18.1853L19.4075 17.6612ZM8.96832 15.5647C8.83873 15.3349 8.91793 15.0477 9.14111 14.9185C9.36429 14.7893 9.65947 14.8682 9.78906 15.0908L10.3146 15.9883C10.4442 16.218 10.365 16.5052 10.1418 16.6345C9.91865 16.7637 9.62347 16.6847 9.49388 16.4621L8.96832 15.5647ZM6.39093 18.4797C6.16775 18.3504 6.08855 18.0561 6.21814 17.8335C6.34773 17.6109 6.64291 17.5319 6.86609 17.6612L7.76602 18.1781C7.9892 18.3074 8.06839 18.6017 7.9388 18.8243C7.80922 19.0469 7.51404 19.1259 7.29086 18.9966L6.39093 18.4797ZM5.62059 22.2922C5.35421 22.2922 5.14543 22.0839 5.14543 21.8183C5.14543 21.5526 5.35421 21.3444 5.62059 21.3444H6.66451C6.92369 21.3444 7.13967 21.5526 7.13967 21.8183C7.13967 22.0768 6.93089 22.2922 6.66451 22.2922H5.62059ZM6.86609 25.9754C6.64291 26.1046 6.34773 26.0257 6.21814 25.8031C6.08855 25.5733 6.16775 25.2861 6.39093 25.1569L7.29806 24.64C7.52124 24.5107 7.81641 24.5897 7.946 24.8123C8.07559 25.0348 7.9964 25.3292 7.77322 25.4585L6.86609 25.9754ZM9.78906 28.5458C9.65947 28.7755 9.36429 28.8545 9.14111 28.7181C8.91793 28.5889 8.83873 28.2945 8.96832 28.0719L9.49388 27.1744C9.62347 26.9447 9.91865 26.8657 10.1418 27.0021C10.365 27.1313 10.4442 27.4257 10.3146 27.6483L9.78906 28.5458ZM13.6119 29.314C13.6119 29.5725 13.396 29.7879 13.1368 29.7879C12.8776 29.7879 12.6616 29.5797 12.6616 29.314V28.2729C12.6616 28.0073 12.8776 27.7991 13.1368 27.7991C13.396 27.7991 13.6119 28.0073 13.6119 28.2729V29.314ZM17.3053 28.0719C17.4348 28.2945 17.3557 28.5889 17.1325 28.7181C16.9093 28.8473 16.6141 28.7683 16.4845 28.5458L15.9662 27.6483C15.8366 27.4257 15.9158 27.1313 16.1389 27.0021C16.3621 26.8729 16.6573 26.9519 16.7869 27.1744L17.3053 28.0719ZM16.4845 15.0908C16.6141 14.8682 16.9093 14.7893 17.1325 14.9185C17.3557 15.0477 17.4348 15.3421 17.3053 15.5647L16.7797 16.4621C16.6501 16.6847 16.3549 16.7637 16.1317 16.6345C15.9086 16.5052 15.8294 16.2109 15.959 15.9883L16.4845 15.0908ZM13.1368 11.7091C18.7379 11.7091 23.2736 16.2324 23.2736 21.8183C23.2736 27.4042 18.7379 31.9275 13.1368 31.9275C7.53564 31.9275 3 27.4042 3 21.8183C3 16.2324 7.53564 11.7091 13.1368 11.7091ZM19.6307 15.3421C16.0454 11.7666 10.2282 11.7666 6.63571 15.3421C3.0504 18.9176 3.0504 24.7189 6.63571 28.2945C10.221 31.87 16.0382 31.87 19.6307 28.2945C23.2232 24.7189 23.2232 18.9176 19.6307 15.3421Z" fill="url(#paint0_linear_7215_14136)"/>
</g>
<defs>
<linearGradient id="paint0_linear_7215_14136" x1="30.2688" y1="3" x2="30.1175" y2="44.286" gradientUnits="userSpaceOnUse">
<stop stop-color="#005CAA"/>
<stop offset="1" stop-color="#64B0F1"/>
</linearGradient>
<clipPath id="clip0_7215_14136">
<rect width="39.7513" height="40.3589" fill="white" transform="translate(0.796875 -0.0078125)"/>
</clipPath>
</defs>
</svg>
