<svg width="41" height="41" viewBox="0 0 41 41" fill="none" xmlns="http://www.w3.org/2000/svg">
<g clip-path="url(#clip0_7215_14234)">
<path d="M28.875 21.75V16.5C28.875 16.2585 28.679 16.0625 28.4375 16.0625H27.5625V15.625C27.5625 10.3177 23.2448 6 17.9375 6C12.6302 6 8.3125 10.3177 8.3125 15.625V16.0625H7.4375C7.196 16.0625 7 16.2585 7 16.5V29.625C7 29.8665 7.196 30.0625 7.4375 30.0625H23.1608C24.0441 32.3611 26.2688 34 28.875 34C32.2525 34 35 31.2525 35 27.875C35 24.4975 32.2525 21.75 28.875 21.75ZM9.1875 15.625C9.1875 10.8003 13.1128 6.875 17.9375 6.875C22.7622 6.875 26.6875 10.8003 26.6875 15.625V16.0625H24.5V15.625C24.5 12.0064 21.5561 9.0625 17.9375 9.0625C14.3189 9.0625 11.375 12.0064 11.375 15.625V16.0625H9.1875V15.625ZM23.625 16.0625H12.25V15.625C12.25 12.489 14.8015 9.9375 17.9375 9.9375C21.0735 9.9375 23.625 12.489 23.625 15.625V16.0625ZM7.875 29.1875V16.9375H28V21.82C25.0368 22.2466 22.75 24.7954 22.75 27.875C22.75 28.3256 22.8025 28.764 22.8953 29.1875H7.875ZM28.875 33.125C25.9801 33.125 23.625 30.7699 23.625 27.875C23.625 24.9801 25.9801 22.625 28.875 22.625C31.7699 22.625 34.125 24.9801 34.125 27.875C34.125 30.7699 31.7699 33.125 28.875 33.125Z" fill="url(#paint0_linear_7215_14234)"/>
<path d="M31.6956 26.1713L29.0706 24.8588C28.9476 24.7971 28.8024 24.7971 28.679 24.8588L26.054 26.1713C25.9061 26.2456 25.8125 26.397 25.8125 26.5628V29.1878C25.8125 29.3536 25.9061 29.505 26.0544 29.5794L28.6794 30.8919C28.7407 30.9225 28.8081 30.9378 28.875 30.9378C28.9419 30.9378 29.0093 30.9225 29.0706 30.8919L31.6956 29.5794C31.8439 29.505 31.9375 29.3536 31.9375 29.1878V26.5628C31.9375 26.397 31.8439 26.2456 31.6956 26.1713ZM31.0625 28.9175L28.875 30.0112L26.6875 28.9175V26.8332L28.875 25.7395L31.0625 26.8332V28.9175Z" fill="url(#paint1_linear_7215_14234)"/>
<path d="M19.2959 19.598C18.7691 19.1802 18.0849 19.0297 17.4177 19.1845C16.635 19.3661 16.0059 19.9878 15.8151 20.7687C15.6016 21.6415 15.924 22.5284 16.6236 23.0534V25.6867C16.6236 26.4103 17.2125 26.9992 17.9361 26.9992C18.6597 26.9992 19.2486 26.4103 19.2486 25.6867V23.0525C19.7937 22.6417 20.1236 21.9955 20.1236 21.3117C20.1236 20.6405 19.8217 20.0158 19.2959 19.598ZM18.591 22.4409C18.4563 22.5192 18.3736 22.6631 18.3736 22.8189V25.6867C18.3736 25.9277 18.1772 26.1242 17.9361 26.1242C17.695 26.1242 17.4986 25.9277 17.4986 25.6867V22.8189C17.4986 22.6631 17.4159 22.5192 17.2812 22.4409C16.7632 22.1394 16.5212 21.5645 16.6647 20.9765C16.7763 20.5207 17.1582 20.1427 17.6154 20.0368C17.7244 20.0114 17.8324 19.9992 17.9387 19.9992C18.2349 19.9992 18.5154 20.0959 18.7512 20.2835C19.0675 20.5342 19.2486 20.9092 19.2486 21.3117C19.2486 21.7789 19.0027 22.2011 18.591 22.4409Z" fill="url(#paint2_linear_7215_14234)"/>
<path d="M9.625 27.4375H8.75V28.3125H9.625V27.4375Z" fill="url(#paint3_linear_7215_14234)"/>
<path d="M11.375 27.4375H10.5V28.3125H11.375V27.4375Z" fill="url(#paint4_linear_7215_14234)"/>
<path d="M13.125 27.4375H12.25V28.3125H13.125V27.4375Z" fill="url(#paint5_linear_7215_14234)"/>
</g>
<defs>
<linearGradient id="paint0_linear_7215_14234" x1="28.8151" y1="6" x2="28.6868" y2="40.0002" gradientUnits="userSpaceOnUse">
<stop stop-color="#005CAA"/>
<stop offset="1" stop-color="#64B0F1"/>
</linearGradient>
<linearGradient id="paint1_linear_7215_14234" x1="30.5845" y1="24.8125" x2="30.5565" y2="32.2505" gradientUnits="userSpaceOnUse">
<stop stop-color="#005CAA"/>
<stop offset="1" stop-color="#64B0F1"/>
</linearGradient>
<linearGradient id="paint2_linear_7215_14234" x1="19.1575" y1="19.125" x2="19.0926" y2="28.6863" gradientUnits="userSpaceOnUse">
<stop stop-color="#005CAA"/>
<stop offset="1" stop-color="#64B0F1"/>
</linearGradient>
<linearGradient id="paint3_linear_7215_14234" x1="9.43172" y1="27.4375" x2="9.42771" y2="28.5" gradientUnits="userSpaceOnUse">
<stop stop-color="#005CAA"/>
<stop offset="1" stop-color="#64B0F1"/>
</linearGradient>
<linearGradient id="paint4_linear_7215_14234" x1="11.1817" y1="27.4375" x2="11.1777" y2="28.5" gradientUnits="userSpaceOnUse">
<stop stop-color="#005CAA"/>
<stop offset="1" stop-color="#64B0F1"/>
</linearGradient>
<linearGradient id="paint5_linear_7215_14234" x1="12.9317" y1="27.4375" x2="12.9277" y2="28.5" gradientUnits="userSpaceOnUse">
<stop stop-color="#005CAA"/>
<stop offset="1" stop-color="#64B0F1"/>
</linearGradient>
<clipPath id="clip0_7215_14234">
<rect width="39.7513" height="40.3589" fill="white" transform="translate(0.945312 -0.0078125)"/>
</clipPath>
</defs>
</svg>
