<svg width="41" height="41" viewBox="0 0 41 41" fill="none" xmlns="http://www.w3.org/2000/svg">
<g clip-path="url(#clip0_7215_14123)">
<path d="M12.2529 16.9667C12.2529 16.9112 12.2645 16.8563 12.2868 16.805C12.3092 16.7538 12.342 16.7072 12.3833 16.668C12.4246 16.6288 12.4737 16.5977 12.5277 16.5765C12.5817 16.5553 12.6396 16.5443 12.698 16.5443H27.2273C27.2868 16.5427 27.346 16.5525 27.4014 16.573C27.4569 16.5935 27.5074 16.6243 27.5501 16.6637C27.5928 16.7031 27.6267 16.7501 27.6498 16.8021C27.673 16.8542 27.6849 16.91 27.6849 16.9665C27.6849 17.023 27.673 17.0788 27.6498 17.1309C27.6267 17.1829 27.5928 17.2299 27.5501 17.2693C27.5074 17.3087 27.4569 17.3395 27.4014 17.36C27.346 17.3805 27.2868 17.3903 27.2273 17.3887H12.6973C12.5794 17.3886 12.4664 17.3441 12.3831 17.2649C12.2997 17.1858 12.2529 17.0785 12.2529 16.9667ZM31.3314 33.186V35.5773C31.3315 35.6329 31.3201 35.6879 31.2977 35.7392C31.2754 35.7905 31.2425 35.8371 31.2012 35.8764C31.1598 35.9157 31.1106 35.9468 31.0566 35.968C31.0025 35.9892 30.9445 36.0001 30.886 36H9.03865C8.98021 36 8.92235 35.9891 8.86837 35.9678C8.81439 35.9466 8.76535 35.9155 8.72405 35.8763C8.68275 35.8371 8.65 35.7905 8.62767 35.7393C8.60534 35.688 8.59387 35.6331 8.59392 35.5777V33.6907H6.44508C6.38665 33.6907 6.32878 33.6798 6.27478 33.6586C6.22079 33.6375 6.17172 33.6064 6.13038 33.5672C6.08905 33.528 6.05626 33.4815 6.03389 33.4302C6.01151 33.379 6 33.3241 6 33.2687V5.42233C6 5.31032 6.04689 5.2029 6.13036 5.1237C6.21383 5.0445 6.32704 5 6.44508 5H28.2921C28.4101 5 28.5233 5.0445 28.6068 5.1237C28.6903 5.2029 28.7372 5.31032 28.7372 5.42233V10.1513L31.2004 12.489C31.2418 12.5281 31.2746 12.5746 31.2969 12.6258C31.3193 12.677 31.3308 12.7319 31.3307 12.7873V20.0033H32.2135C32.3013 20.0033 32.3871 20.0279 32.4602 20.0741C32.5332 20.1202 32.5903 20.1858 32.6242 20.2627C33.0141 21.1507 34.0328 22.1067 35.3389 22.1067C35.4492 22.1066 35.5556 22.1455 35.6374 22.2157C35.7192 22.286 35.7706 22.3825 35.7816 22.4867C36.1616 26.1 36.6703 30.9467 31.3307 33.1863L31.3314 33.186ZM26.0024 12.3667H29.8118L26.0024 8.75067V12.3667ZM9.03865 7.30933H25.5576C25.6163 7.30913 25.6745 7.31995 25.7288 7.34118C25.783 7.3624 25.8323 7.39361 25.8738 7.433L27.8488 9.307V5.84433H6.88981V32.8463H8.59392V7.73133C8.59392 7.61941 8.64077 7.51207 8.72417 7.43293C8.80758 7.35379 8.9207 7.30933 9.03865 7.30933ZM30.4409 33.5167C30.2797 33.5697 30.1149 33.621 29.9445 33.6697C29.8609 33.6937 29.7717 33.6937 29.6881 33.6697C26.8486 32.859 25.2917 31.4573 24.4701 29.816H22.0701C22.0106 29.8176 21.9514 29.8078 21.8959 29.7873C21.8405 29.7668 21.7899 29.736 21.7473 29.6966C21.7046 29.6573 21.6707 29.6102 21.6476 29.5582C21.6244 29.5062 21.6125 29.4503 21.6125 29.3938C21.6125 29.3374 21.6244 29.2815 21.6476 29.2295C21.6707 29.1775 21.7046 29.1304 21.7473 29.091C21.7899 29.0517 21.8405 29.0208 21.8959 29.0003C21.9514 28.9798 22.0106 28.9701 22.0701 28.9717H24.1163C23.8485 28.161 23.6934 27.3205 23.6551 26.4717H12.6973C12.6378 26.4733 12.5786 26.4635 12.5232 26.443C12.4678 26.4225 12.4172 26.3917 12.3745 26.3523C12.3319 26.3129 12.298 26.2659 12.2748 26.2139C12.2517 26.1618 12.2397 26.106 12.2397 26.0495C12.2397 25.993 12.2517 25.9372 12.2748 25.8851C12.298 25.8331 12.3319 25.7861 12.3745 25.7467C12.4172 25.7073 12.4678 25.6765 12.5232 25.656C12.5786 25.6355 12.6378 25.6257 12.6973 25.6273H23.6347C23.6347 24.885 23.6895 24.1493 23.7559 23.4447H12.6973C12.6378 23.4463 12.5786 23.4365 12.5232 23.416C12.4678 23.3955 12.4172 23.3647 12.3745 23.3253C12.3319 23.2859 12.298 23.2389 12.2748 23.1869C12.2517 23.1348 12.2397 23.079 12.2397 23.0225C12.2397 22.966 12.2517 22.9102 12.2748 22.8581C12.298 22.8061 12.3319 22.7591 12.3745 22.7197C12.4172 22.6803 12.4678 22.6495 12.5232 22.629C12.5786 22.6085 12.6378 22.5987 12.6973 22.6003H23.8395L23.8511 22.4877C23.8621 22.3835 23.9135 22.287 23.9953 22.2168C24.0771 22.1466 24.1834 22.1077 24.2937 22.1077C25.5257 22.1077 26.4991 21.2587 26.9347 20.4173H12.6973C12.6378 20.4189 12.5786 20.4092 12.5232 20.3887C12.4678 20.3682 12.4172 20.3373 12.3745 20.298C12.3319 20.2586 12.298 20.2115 12.2748 20.1595C12.2517 20.1075 12.2397 20.0516 12.2397 19.9952C12.2397 19.9387 12.2517 19.8828 12.2748 19.8308C12.298 19.7788 12.3319 19.7317 12.3745 19.6924C12.4172 19.653 12.4678 19.6222 12.5232 19.6017C12.5786 19.5812 12.6378 19.5714 12.6973 19.573H27.2273C27.3454 19.573 27.4586 19.6175 27.542 19.6967C27.6255 19.7759 27.6724 19.8833 27.6724 19.9953V20.0043H30.4416V13.2097H25.5587C25.5003 13.2097 25.4424 13.1987 25.3884 13.1775C25.3344 13.1563 25.2853 13.1252 25.244 13.086C25.2027 13.0468 25.1699 13.0002 25.1475 12.949C25.1251 12.8977 25.1136 12.8428 25.1136 12.7873V8.154H9.48373V35.1557H30.4409V33.5167ZM34.6915 28.636C35.2508 26.944 35.1482 25.0453 34.9325 22.9287C34.2916 22.8387 33.6835 22.6023 33.1603 22.2398C32.6371 21.8773 32.2147 21.3995 31.9293 20.8477H27.7026C27.4173 21.3995 26.9948 21.8773 26.4716 22.2398C25.9485 22.6023 25.3403 22.8387 24.6994 22.9287C24.4852 25.0453 24.3812 26.944 24.9408 28.636C25.6167 30.6803 27.2122 32.0513 29.8163 32.824C32.4204 32.0513 34.016 30.6803 34.6922 28.636H34.6915ZM34.0978 23.9147C34.2461 25.5197 34.3086 27.198 33.7595 28.597C33.1655 30.1167 31.9212 31.1567 29.9579 31.7763C29.8666 31.8048 29.7681 31.8048 29.6769 31.7763C27.7121 31.1567 26.4678 30.1167 25.8731 28.597C25.3251 27.197 25.3869 25.5197 25.5352 23.9147C25.5431 23.8277 25.5793 23.7452 25.6388 23.6785C25.6982 23.6119 25.778 23.5644 25.8671 23.5427C26.7427 23.3146 27.4935 22.7781 27.9664 22.0427C28.0063 21.9816 28.0619 21.9311 28.1281 21.8961C28.1942 21.8611 28.2687 21.8427 28.3444 21.8427H31.2896C31.3654 21.8427 31.4398 21.8611 31.506 21.8961C31.5721 21.9311 31.6277 21.9816 31.6676 22.0427C32.1406 22.778 32.8914 23.3145 33.7669 23.5427C33.8559 23.5646 33.9356 23.6121 33.995 23.6787C34.0543 23.7453 34.0905 23.8278 34.0985 23.9147H34.0978ZM33.2365 24.2727C32.35 23.9746 31.5848 23.4197 31.049 22.6863H28.5829C28.0471 23.4197 27.2819 23.9746 26.3955 24.2727C26.1436 27.2327 26.3105 29.7597 29.8163 30.9293C33.3225 29.7597 33.4894 27.2333 33.2372 24.2727H33.2365ZM31.3142 25.6753L29.3607 27.5307L28.3184 26.5417C28.235 26.4625 28.1218 26.418 28.0038 26.418C27.8859 26.418 27.7727 26.4625 27.6893 26.5417C27.6058 26.6208 27.559 26.7282 27.559 26.8402C27.559 26.9521 27.6058 27.0595 27.6893 27.1387L29.0445 28.4263C29.0858 28.4655 29.1349 28.4967 29.1889 28.5179C29.2428 28.5391 29.3007 28.55 29.3591 28.55C29.4175 28.55 29.4754 28.5391 29.5294 28.5179C29.5834 28.4967 29.6324 28.4655 29.6737 28.4263L31.9437 26.2723C31.9863 26.2334 32.0203 26.1868 32.0436 26.1352C32.067 26.0837 32.0793 26.0282 32.0799 25.9721C32.0804 25.916 32.0691 25.8603 32.0467 25.8084C32.0244 25.7564 31.9913 25.7092 31.9494 25.6696C31.9076 25.6299 31.8579 25.5985 31.8031 25.5773C31.7484 25.5561 31.6897 25.5454 31.6306 25.546C31.5714 25.5465 31.513 25.5582 31.4587 25.5804C31.4043 25.6026 31.3552 25.6349 31.3142 25.6753Z" fill="url(#paint0_linear_7215_14123)"/>
<path d="M12.2529 16.9667C12.2529 16.9112 12.2645 16.8563 12.2868 16.805C12.3092 16.7538 12.342 16.7072 12.3833 16.668C12.4246 16.6288 12.4737 16.5977 12.5277 16.5765C12.5817 16.5553 12.6396 16.5443 12.698 16.5443H27.2273C27.2868 16.5427 27.346 16.5525 27.4014 16.573C27.4569 16.5935 27.5074 16.6243 27.5501 16.6637C27.5928 16.7031 27.6267 16.7501 27.6498 16.8021C27.673 16.8542 27.6849 16.91 27.6849 16.9665C27.6849 17.023 27.673 17.0788 27.6498 17.1309C27.6267 17.1829 27.5928 17.2299 27.5501 17.2693C27.5074 17.3087 27.4569 17.3395 27.4014 17.36C27.346 17.3805 27.2868 17.3903 27.2273 17.3887H12.6973C12.5794 17.3886 12.4664 17.3441 12.3831 17.2649C12.2997 17.1858 12.2529 17.0785 12.2529 16.9667ZM31.3314 33.186V35.5773C31.3315 35.6329 31.3201 35.6879 31.2977 35.7392C31.2754 35.7905 31.2425 35.8371 31.2012 35.8764C31.1598 35.9157 31.1106 35.9468 31.0566 35.968C31.0025 35.9892 30.9445 36.0001 30.886 36H9.03865C8.98021 36 8.92235 35.9891 8.86837 35.9678C8.81439 35.9466 8.76535 35.9155 8.72405 35.8763C8.68275 35.8371 8.65 35.7905 8.62767 35.7393C8.60534 35.688 8.59387 35.6331 8.59392 35.5777V33.6907H6.44508C6.38665 33.6907 6.32878 33.6798 6.27478 33.6586C6.22079 33.6375 6.17172 33.6064 6.13038 33.5672C6.08905 33.528 6.05626 33.4815 6.03389 33.4302C6.01151 33.379 6 33.3241 6 33.2687V5.42233C6 5.31032 6.04689 5.2029 6.13036 5.1237C6.21383 5.0445 6.32704 5 6.44508 5H28.2921C28.4101 5 28.5233 5.0445 28.6068 5.1237C28.6903 5.2029 28.7372 5.31032 28.7372 5.42233V10.1513L31.2004 12.489C31.2418 12.5281 31.2746 12.5746 31.2969 12.6258C31.3193 12.677 31.3308 12.7319 31.3307 12.7873V20.0033H32.2135C32.3013 20.0033 32.3871 20.0279 32.4602 20.0741C32.5332 20.1202 32.5903 20.1858 32.6242 20.2627C33.0141 21.1507 34.0328 22.1067 35.3389 22.1067C35.4492 22.1066 35.5556 22.1455 35.6374 22.2157C35.7192 22.286 35.7706 22.3825 35.7816 22.4867C36.1616 26.1 36.6703 30.9467 31.3307 33.1863L31.3314 33.186ZM26.0024 12.3667H29.8118L26.0024 8.75067V12.3667ZM9.03865 7.30933H25.5576C25.6163 7.30913 25.6745 7.31995 25.7288 7.34118C25.783 7.3624 25.8323 7.39361 25.8738 7.433L27.8488 9.307V5.84433H6.88981V32.8463H8.59392V7.73133C8.59392 7.61941 8.64077 7.51207 8.72417 7.43293C8.80758 7.35379 8.9207 7.30933 9.03865 7.30933ZM30.4409 33.5167C30.2797 33.5697 30.1149 33.621 29.9445 33.6697C29.8609 33.6937 29.7717 33.6937 29.6881 33.6697C26.8486 32.859 25.2917 31.4573 24.4701 29.816H22.0701C22.0106 29.8176 21.9514 29.8078 21.8959 29.7873C21.8405 29.7668 21.7899 29.736 21.7473 29.6966C21.7046 29.6573 21.6707 29.6102 21.6476 29.5582C21.6244 29.5062 21.6125 29.4503 21.6125 29.3938C21.6125 29.3374 21.6244 29.2815 21.6476 29.2295C21.6707 29.1775 21.7046 29.1304 21.7473 29.091C21.7899 29.0517 21.8405 29.0208 21.8959 29.0003C21.9514 28.9798 22.0106 28.9701 22.0701 28.9717H24.1163C23.8485 28.161 23.6934 27.3205 23.6551 26.4717H12.6973C12.6378 26.4733 12.5786 26.4635 12.5232 26.443C12.4678 26.4225 12.4172 26.3917 12.3745 26.3523C12.3319 26.3129 12.298 26.2659 12.2748 26.2139C12.2517 26.1618 12.2397 26.106 12.2397 26.0495C12.2397 25.993 12.2517 25.9372 12.2748 25.8851C12.298 25.8331 12.3319 25.7861 12.3745 25.7467C12.4172 25.7073 12.4678 25.6765 12.5232 25.656C12.5786 25.6355 12.6378 25.6257 12.6973 25.6273H23.6347C23.6347 24.885 23.6895 24.1493 23.7559 23.4447H12.6973C12.6378 23.4463 12.5786 23.4365 12.5232 23.416C12.4678 23.3955 12.4172 23.3647 12.3745 23.3253C12.3319 23.2859 12.298 23.2389 12.2748 23.1869C12.2517 23.1348 12.2397 23.079 12.2397 23.0225C12.2397 22.966 12.2517 22.9102 12.2748 22.8581C12.298 22.8061 12.3319 22.7591 12.3745 22.7197C12.4172 22.6803 12.4678 22.6495 12.5232 22.629C12.5786 22.6085 12.6378 22.5987 12.6973 22.6003H23.8395L23.8511 22.4877C23.8621 22.3835 23.9135 22.287 23.9953 22.2168C24.0771 22.1466 24.1834 22.1077 24.2937 22.1077C25.5257 22.1077 26.4991 21.2587 26.9347 20.4173H12.6973C12.6378 20.4189 12.5786 20.4092 12.5232 20.3887C12.4678 20.3682 12.4172 20.3373 12.3745 20.298C12.3319 20.2586 12.298 20.2115 12.2748 20.1595C12.2517 20.1075 12.2397 20.0516 12.2397 19.9952C12.2397 19.9387 12.2517 19.8828 12.2748 19.8308C12.298 19.7788 12.3319 19.7317 12.3745 19.6924C12.4172 19.653 12.4678 19.6222 12.5232 19.6017C12.5786 19.5812 12.6378 19.5714 12.6973 19.573H27.2273C27.3454 19.573 27.4586 19.6175 27.542 19.6967C27.6255 19.7759 27.6724 19.8833 27.6724 19.9953V20.0043H30.4416V13.2097H25.5587C25.5003 13.2097 25.4424 13.1987 25.3884 13.1775C25.3344 13.1563 25.2853 13.1252 25.244 13.086C25.2027 13.0468 25.1699 13.0002 25.1475 12.949C25.1251 12.8977 25.1136 12.8428 25.1136 12.7873V8.154H9.48373V35.1557H30.4409V33.5167ZM34.6915 28.636C35.2508 26.944 35.1482 25.0453 34.9325 22.9287C34.2916 22.8387 33.6835 22.6023 33.1603 22.2398C32.6371 21.8773 32.2147 21.3995 31.9293 20.8477H27.7026C27.4173 21.3995 26.9948 21.8773 26.4716 22.2398C25.9485 22.6023 25.3403 22.8387 24.6994 22.9287C24.4852 25.0453 24.3812 26.944 24.9408 28.636C25.6167 30.6803 27.2122 32.0513 29.8163 32.824C32.4204 32.0513 34.016 30.6803 34.6922 28.636H34.6915ZM34.0978 23.9147C34.2461 25.5197 34.3086 27.198 33.7595 28.597C33.1655 30.1167 31.9212 31.1567 29.9579 31.7763C29.8666 31.8048 29.7681 31.8048 29.6769 31.7763C27.7121 31.1567 26.4678 30.1167 25.8731 28.597C25.3251 27.197 25.3869 25.5197 25.5352 23.9147C25.5431 23.8277 25.5793 23.7452 25.6388 23.6785C25.6982 23.6119 25.778 23.5644 25.8671 23.5427C26.7427 23.3146 27.4935 22.7781 27.9664 22.0427C28.0063 21.9816 28.0619 21.9311 28.1281 21.8961C28.1942 21.8611 28.2687 21.8427 28.3444 21.8427H31.2896C31.3654 21.8427 31.4398 21.8611 31.506 21.8961C31.5721 21.9311 31.6277 21.9816 31.6676 22.0427C32.1406 22.778 32.8914 23.3145 33.7669 23.5427C33.8559 23.5646 33.9356 23.6121 33.995 23.6787C34.0543 23.7453 34.0905 23.8278 34.0985 23.9147H34.0978ZM33.2365 24.2727C32.35 23.9746 31.5848 23.4197 31.049 22.6863H28.5829C28.0471 23.4197 27.2819 23.9746 26.3955 24.2727C26.1436 27.2327 26.3105 29.7597 29.8163 30.9293C33.3225 29.7597 33.4894 27.2333 33.2372 24.2727H33.2365ZM31.3142 25.6753L29.3607 27.5307L28.3184 26.5417C28.235 26.4625 28.1218 26.418 28.0038 26.418C27.8859 26.418 27.7727 26.4625 27.6893 26.5417C27.6058 26.6208 27.559 26.7282 27.559 26.8402C27.559 26.9521 27.6058 27.0595 27.6893 27.1387L29.0445 28.4263C29.0858 28.4655 29.1349 28.4967 29.1889 28.5179C29.2428 28.5391 29.3007 28.55 29.3591 28.55C29.4175 28.55 29.4754 28.5391 29.5294 28.5179C29.5834 28.4967 29.6324 28.4655 29.6737 28.4263L31.9437 26.2723C31.9863 26.2334 32.0203 26.1868 32.0436 26.1352C32.067 26.0837 32.0793 26.0282 32.0799 25.9721C32.0804 25.916 32.0691 25.8603 32.0467 25.8084C32.0244 25.7564 31.9913 25.7092 31.9494 25.6696C31.9076 25.6299 31.8579 25.5985 31.8031 25.5773C31.7484 25.5561 31.6897 25.5454 31.6306 25.546C31.5714 25.5465 31.513 25.5582 31.4587 25.5804C31.4043 25.6026 31.3552 25.6349 31.3142 25.6753Z" fill="black" fill-opacity="0.2"/>
</g>
<defs>
<linearGradient id="paint0_linear_7215_14123" x1="21" y1="5" x2="21" y2="36" gradientUnits="userSpaceOnUse">
<stop stop-color="#FF0F0F"/>
<stop offset="1" stop-color="#FF4849"/>
</linearGradient>
<clipPath id="clip0_7215_14123">
<rect width="39.7513" height="40.3589" fill="white" transform="translate(0.945312 -0.0078125)"/>
</clipPath>
</defs>
</svg>
