<svg width="41" height="41" viewBox="0 0 41 41" fill="none" xmlns="http://www.w3.org/2000/svg">
<g clip-path="url(#clip0_7215_14083)">
<path d="M21.3979 11.6431C21.3021 11.5803 21.19 11.5469 21.0754 11.5469C20.9609 11.5469 20.8488 11.5803 20.753 11.6431C13.1286 16.6016 13.0927 25.9255 21.0552 26.1966C21.0621 26.1972 21.0685 26.1972 21.0754 26.1972C21.0853 26.1972 21.0951 26.1972 21.1043 26.1966C29.0544 25.8048 28.9869 16.5782 21.3979 11.6431ZM21.0708 25.0131C14.1228 24.7569 15.1699 16.9197 21.0754 12.8509C26.9965 16.9308 27.9641 24.6546 21.0708 25.0131Z" fill="url(#paint0_linear_7215_14083)"/>
<path d="M21.3979 11.6431C21.3021 11.5803 21.19 11.5469 21.0754 11.5469C20.9609 11.5469 20.8488 11.5803 20.753 11.6431C13.1286 16.6016 13.0927 25.9255 21.0552 26.1966C21.0621 26.1972 21.0685 26.1972 21.0754 26.1972C21.0853 26.1972 21.0951 26.1972 21.1043 26.1966C29.0544 25.8048 28.9869 16.5782 21.3979 11.6431ZM21.0708 25.0131C14.1228 24.7569 15.1699 16.9197 21.0754 12.8509C26.9965 16.9308 27.9641 24.6546 21.0708 25.0131Z" fill="black" fill-opacity="0.2"/>
<path d="M20.3195 17.7994C20.5981 17.7038 20.893 17.6644 21.187 17.6834C21.481 17.7025 21.7683 17.7796 22.0323 17.9104C22.1366 18.0276 22.2832 18.0986 22.4399 18.1078C22.5965 18.117 22.7504 18.0635 22.8677 17.9592C22.9849 17.8549 23.0559 17.7083 23.0651 17.5517C23.0742 17.395 23.0208 17.2411 22.9165 17.1239C22.5702 16.8038 22.1301 16.6037 21.6613 16.5531V16.1074C21.6613 15.9504 21.599 15.7999 21.488 15.6889C21.377 15.578 21.2265 15.5156 21.0696 15.5156C20.9126 15.5156 20.7621 15.578 20.6511 15.6889C20.5402 15.7999 20.4778 15.9504 20.4778 16.1074V16.5452C19.3334 16.7252 18.8008 17.4263 18.8008 18.2386C18.8008 19.9255 20.457 19.9255 21.0014 19.9255C22.1103 19.9255 22.1571 20.0798 22.1571 20.4282C22.1571 21.1632 20.3699 21.0946 20.0895 20.7345C20.042 20.673 19.9829 20.6214 19.9156 20.5827C19.8482 20.5439 19.7739 20.5189 19.6968 20.5089C19.6197 20.4989 19.5415 20.5042 19.4665 20.5245C19.3914 20.5447 19.3212 20.5796 19.2596 20.627C19.1981 20.6745 19.1465 20.7335 19.1078 20.8009C19.069 20.8683 19.044 20.9426 19.034 21.0197C19.024 21.0967 19.0293 21.175 19.0496 21.25C19.0698 21.325 19.1047 21.3953 19.1521 21.4569C19.4983 21.833 19.9695 22.0703 20.4778 22.1246V22.5658C20.4778 22.7228 20.5401 22.8733 20.6511 22.9843C20.7621 23.0952 20.9126 23.1576 21.0695 23.1576C21.2265 23.1576 21.377 23.0952 21.488 22.9843C21.599 22.8733 21.6613 22.7228 21.6613 22.5658V22.1277C22.8101 21.9386 23.3406 21.227 23.3406 20.4282C23.3406 18.742 21.7012 18.742 21.0014 18.742C19.9843 18.742 19.9843 18.5201 19.9843 18.2386C19.9843 18.0838 20.0248 17.9231 20.3195 17.7994Z" fill="url(#paint1_linear_7215_14083)"/>
<path d="M20.3195 17.7994C20.5981 17.7038 20.893 17.6644 21.187 17.6834C21.481 17.7025 21.7683 17.7796 22.0323 17.9104C22.1366 18.0276 22.2832 18.0986 22.4399 18.1078C22.5965 18.117 22.7504 18.0635 22.8677 17.9592C22.9849 17.8549 23.0559 17.7083 23.0651 17.5517C23.0742 17.395 23.0208 17.2411 22.9165 17.1239C22.5702 16.8038 22.1301 16.6037 21.6613 16.5531V16.1074C21.6613 15.9504 21.599 15.7999 21.488 15.6889C21.377 15.578 21.2265 15.5156 21.0696 15.5156C20.9126 15.5156 20.7621 15.578 20.6511 15.6889C20.5402 15.7999 20.4778 15.9504 20.4778 16.1074V16.5452C19.3334 16.7252 18.8008 17.4263 18.8008 18.2386C18.8008 19.9255 20.457 19.9255 21.0014 19.9255C22.1103 19.9255 22.1571 20.0798 22.1571 20.4282C22.1571 21.1632 20.3699 21.0946 20.0895 20.7345C20.042 20.673 19.9829 20.6214 19.9156 20.5827C19.8482 20.5439 19.7739 20.5189 19.6968 20.5089C19.6197 20.4989 19.5415 20.5042 19.4665 20.5245C19.3914 20.5447 19.3212 20.5796 19.2596 20.627C19.1981 20.6745 19.1465 20.7335 19.1078 20.8009C19.069 20.8683 19.044 20.9426 19.034 21.0197C19.024 21.0967 19.0293 21.175 19.0496 21.25C19.0698 21.325 19.1047 21.3953 19.1521 21.4569C19.4983 21.833 19.9695 22.0703 20.4778 22.1246V22.5658C20.4778 22.7228 20.5401 22.8733 20.6511 22.9843C20.7621 23.0952 20.9126 23.1576 21.0695 23.1576C21.2265 23.1576 21.377 23.0952 21.488 22.9843C21.599 22.8733 21.6613 22.7228 21.6613 22.5658V22.1277C22.8101 21.9386 23.3406 21.227 23.3406 20.4282C23.3406 18.742 21.7012 18.742 21.0014 18.742C19.9843 18.742 19.9843 18.5201 19.9843 18.2386C19.9843 18.0838 20.0248 17.9231 20.3195 17.7994Z" fill="black" fill-opacity="0.2"/>
<path d="M17.5801 6.3044H19.1583V9.5134C19.1583 9.67034 19.2207 9.82086 19.3316 9.93183C19.4426 10.0428 19.5931 10.1052 19.7501 10.1052C19.907 10.1052 20.0575 10.0428 20.1685 9.93183C20.2795 9.82086 20.3418 9.67034 20.3418 9.5134V5.71265C20.3419 5.63493 20.3266 5.55796 20.2969 5.48614C20.2671 5.41433 20.2236 5.34907 20.1686 5.29411C20.1136 5.23916 20.0484 5.19557 19.9766 5.16585C19.9048 5.13612 19.8278 5.12085 19.7501 5.12089H18.8543L21.0682 2.49844L23.2827 5.12088H22.3846C22.3069 5.12084 22.2299 5.13611 22.1581 5.16583C22.0863 5.19556 22.0211 5.23914 21.9661 5.2941C21.9111 5.34906 21.8676 5.41431 21.8378 5.48613C21.8081 5.55794 21.7928 5.63491 21.7929 5.71264V9.48626C21.7929 9.6432 21.8552 9.79371 21.9662 9.90469C22.0772 10.0157 22.2277 10.078 22.3846 10.078C22.5416 10.078 22.6921 10.0157 22.8031 9.90469C22.914 9.79371 22.9764 9.6432 22.9764 9.48626V6.30439H24.5569C24.6697 6.30441 24.7802 6.27217 24.8753 6.21147C24.9704 6.15077 25.0462 6.06414 25.0937 5.96179C25.1412 5.85944 25.1585 5.74565 25.1434 5.63382C25.1284 5.522 25.0817 5.41681 25.0088 5.33065L21.5201 1.19936C21.4628 1.13655 21.393 1.08638 21.3152 1.05205C21.2374 1.01773 21.1533 1 21.0682 1C20.9832 1 20.8991 1.01773 20.8212 1.05205C20.7434 1.08638 20.6736 1.13655 20.6163 1.19936L17.1282 5.33067C17.0553 5.41682 17.0086 5.52201 16.9936 5.63384C16.9785 5.74566 16.9958 5.85946 17.0433 5.9618C17.0908 6.06415 17.1665 6.15078 17.2616 6.21148C17.3568 6.27218 17.4673 6.30443 17.5801 6.3044Z" fill="url(#paint2_linear_7215_14083)"/>
<path d="M17.5801 6.3044H19.1583V9.5134C19.1583 9.67034 19.2207 9.82086 19.3316 9.93183C19.4426 10.0428 19.5931 10.1052 19.7501 10.1052C19.907 10.1052 20.0575 10.0428 20.1685 9.93183C20.2795 9.82086 20.3418 9.67034 20.3418 9.5134V5.71265C20.3419 5.63493 20.3266 5.55796 20.2969 5.48614C20.2671 5.41433 20.2236 5.34907 20.1686 5.29411C20.1136 5.23916 20.0484 5.19557 19.9766 5.16585C19.9048 5.13612 19.8278 5.12085 19.7501 5.12089H18.8543L21.0682 2.49844L23.2827 5.12088H22.3846C22.3069 5.12084 22.2299 5.13611 22.1581 5.16583C22.0863 5.19556 22.0211 5.23914 21.9661 5.2941C21.9111 5.34906 21.8676 5.41431 21.8378 5.48613C21.8081 5.55794 21.7928 5.63491 21.7929 5.71264V9.48626C21.7929 9.6432 21.8552 9.79371 21.9662 9.90469C22.0772 10.0157 22.2277 10.078 22.3846 10.078C22.5416 10.078 22.6921 10.0157 22.8031 9.90469C22.914 9.79371 22.9764 9.6432 22.9764 9.48626V6.30439H24.5569C24.6697 6.30441 24.7802 6.27217 24.8753 6.21147C24.9704 6.15077 25.0462 6.06414 25.0937 5.96179C25.1412 5.85944 25.1585 5.74565 25.1434 5.63382C25.1284 5.522 25.0817 5.41681 25.0088 5.33065L21.5201 1.19936C21.4628 1.13655 21.393 1.08638 21.3152 1.05205C21.2374 1.01773 21.1533 1 21.0682 1C20.9832 1 20.8991 1.01773 20.8212 1.05205C20.7434 1.08638 20.6736 1.13655 20.6163 1.19936L17.1282 5.33067C17.0553 5.41682 17.0086 5.52201 16.9936 5.63384C16.9785 5.74566 16.9958 5.85946 17.0433 5.9618C17.0908 6.06415 17.1665 6.15078 17.2616 6.21148C17.3568 6.27218 17.4673 6.30443 17.5801 6.3044Z" fill="black" fill-opacity="0.2"/>
<path d="M13.4606 12.6981L10.7058 11.1077L11.4952 9.7393C11.5516 9.6416 11.5789 9.5298 11.5739 9.41708C11.5689 9.30436 11.5318 9.19542 11.4669 9.10311C11.4021 9.01079 11.3122 8.93894 11.2078 8.89603C11.1035 8.85312 10.989 8.84093 10.878 8.86091L5.55741 9.81558C5.47266 9.83076 5.39224 9.86426 5.32178 9.91375C5.25133 9.96324 5.19252 10.0275 5.14949 10.1021C5.10645 10.1767 5.08022 10.2597 5.07262 10.3455C5.06502 10.4312 5.07624 10.5176 5.1055 10.5986L6.93797 15.6857C6.97617 15.7919 7.04393 15.8849 7.13324 15.9538C7.22256 16.0227 7.32972 16.0647 7.44208 16.0747C7.55444 16.0847 7.66733 16.0624 7.76743 16.0104C7.86754 15.9583 7.95068 15.8788 8.00706 15.7811L8.79706 14.4144L11.5761 16.0186C11.712 16.097 11.8735 16.1182 12.0251 16.0775C12.1767 16.0368 12.3059 15.9376 12.3843 15.8017C12.4628 15.6658 12.484 15.5044 12.4434 15.3528C12.4028 15.2012 12.3037 15.0719 12.1679 14.9934L8.87623 13.0933C8.80894 13.0544 8.73462 13.0291 8.65755 13.0189C8.58047 13.0087 8.50214 13.0139 8.42704 13.034C8.35194 13.0541 8.28155 13.0889 8.2199 13.1362C8.15825 13.1836 8.10655 13.2427 8.06776 13.3101L7.61932 14.0862L6.45601 10.8569L9.83375 10.2507L9.38473 11.0285C9.34586 11.0959 9.32062 11.1702 9.31047 11.2472C9.30033 11.3243 9.30546 11.4026 9.32558 11.4777C9.34571 11.5528 9.38043 11.6231 9.42776 11.6848C9.47509 11.7464 9.53411 11.7982 9.60144 11.837L12.8688 13.7232C13.0048 13.8017 13.1663 13.823 13.3179 13.7823C13.4695 13.7417 13.5988 13.6425 13.6773 13.5065C13.7557 13.3706 13.777 13.209 13.7364 13.0574C13.6957 12.9058 13.5965 12.7765 13.4606 12.6981Z" fill="url(#paint3_linear_7215_14083)"/>
<path d="M13.4606 12.6981L10.7058 11.1077L11.4952 9.7393C11.5516 9.6416 11.5789 9.5298 11.5739 9.41708C11.5689 9.30436 11.5318 9.19542 11.4669 9.10311C11.4021 9.01079 11.3122 8.93894 11.2078 8.89603C11.1035 8.85312 10.989 8.84093 10.878 8.86091L5.55741 9.81558C5.47266 9.83076 5.39224 9.86426 5.32178 9.91375C5.25133 9.96324 5.19252 10.0275 5.14949 10.1021C5.10645 10.1767 5.08022 10.2597 5.07262 10.3455C5.06502 10.4312 5.07624 10.5176 5.1055 10.5986L6.93797 15.6857C6.97617 15.7919 7.04393 15.8849 7.13324 15.9538C7.22256 16.0227 7.32972 16.0647 7.44208 16.0747C7.55444 16.0847 7.66733 16.0624 7.76743 16.0104C7.86754 15.9583 7.95068 15.8788 8.00706 15.7811L8.79706 14.4144L11.5761 16.0186C11.712 16.097 11.8735 16.1182 12.0251 16.0775C12.1767 16.0368 12.3059 15.9376 12.3843 15.8017C12.4628 15.6658 12.484 15.5044 12.4434 15.3528C12.4028 15.2012 12.3037 15.0719 12.1679 14.9934L8.87623 13.0933C8.80894 13.0544 8.73462 13.0291 8.65755 13.0189C8.58047 13.0087 8.50214 13.0139 8.42704 13.034C8.35194 13.0541 8.28155 13.0889 8.2199 13.1362C8.15825 13.1836 8.10655 13.2427 8.06776 13.3101L7.61932 14.0862L6.45601 10.8569L9.83375 10.2507L9.38473 11.0285C9.34586 11.0959 9.32062 11.1702 9.31047 11.2472C9.30033 11.3243 9.30546 11.4026 9.32558 11.4777C9.34571 11.5528 9.38043 11.6231 9.42776 11.6848C9.47509 11.7464 9.53411 11.7982 9.60144 11.837L12.8688 13.7232C13.0048 13.8017 13.1663 13.823 13.3179 13.7823C13.4695 13.7417 13.5988 13.6425 13.6773 13.5065C13.7557 13.3706 13.777 13.209 13.7364 13.0574C13.6957 12.9058 13.5965 12.7765 13.4606 12.6981Z" fill="black" fill-opacity="0.2"/>
<path d="M12.8239 24.8155L9.53229 26.7156C9.39642 26.7941 9.29728 26.9234 9.25665 27.075C9.21602 27.2266 9.23721 27.3881 9.31558 27.5241L9.76403 28.3002L6.38629 27.694L7.54957 24.4659L7.99801 25.2432C8.03685 25.3105 8.0886 25.3695 8.15027 25.4168C8.21195 25.4641 8.28236 25.4988 8.35745 25.5188C8.5091 25.5582 8.67012 25.537 8.80647 25.4599L12.075 23.573C12.2109 23.4945 12.31 23.3653 12.3506 23.2137C12.3912 23.0621 12.3699 22.9006 12.2915 22.7647C12.213 22.6288 12.0838 22.5296 11.9322 22.489C11.7807 22.4483 11.6192 22.4695 11.4833 22.5479L8.7273 24.1388L7.93789 22.7704C7.88253 22.6717 7.79955 22.5913 7.69915 22.5392C7.59874 22.487 7.48528 22.4653 7.37272 22.4768C7.26037 22.4868 7.15322 22.5287 7.06393 22.5976C6.97464 22.6665 6.90693 22.7595 6.86881 22.8657L5.03518 27.9517C5.00593 28.0327 4.99471 28.119 5.00231 28.2048C5.00991 28.2906 5.03614 28.3736 5.07918 28.4482C5.12222 28.5228 5.18102 28.5871 5.25147 28.6365C5.32193 28.686 5.40234 28.7195 5.48709 28.7347L10.8088 29.6905C10.9199 29.7105 11.0343 29.6983 11.1387 29.6554C11.243 29.6125 11.3329 29.5407 11.3978 29.4483C11.4627 29.356 11.4998 29.2471 11.5048 29.1344C11.5098 29.0216 11.4825 28.9098 11.426 28.8121L10.6366 27.4449L13.4157 25.8407C13.5516 25.7622 13.6508 25.6329 13.6915 25.4813C13.7321 25.3297 13.7109 25.1681 13.6324 25.0322C13.5539 24.8962 13.4247 24.797 13.2731 24.7564C13.1214 24.7158 12.9599 24.737 12.8239 24.8155Z" fill="url(#paint4_linear_7215_14083)"/>
<path d="M12.8239 24.8155L9.53229 26.7156C9.39642 26.7941 9.29728 26.9234 9.25665 27.075C9.21602 27.2266 9.23721 27.3881 9.31558 27.5241L9.76403 28.3002L6.38629 27.694L7.54957 24.4659L7.99801 25.2432C8.03685 25.3105 8.0886 25.3695 8.15027 25.4168C8.21195 25.4641 8.28236 25.4988 8.35745 25.5188C8.5091 25.5582 8.67012 25.537 8.80647 25.4599L12.075 23.573C12.2109 23.4945 12.31 23.3653 12.3506 23.2137C12.3912 23.0621 12.3699 22.9006 12.2915 22.7647C12.213 22.6288 12.0838 22.5296 11.9322 22.489C11.7807 22.4483 11.6192 22.4695 11.4833 22.5479L8.7273 24.1388L7.93789 22.7704C7.88253 22.6717 7.79955 22.5913 7.69915 22.5392C7.59874 22.487 7.48528 22.4653 7.37272 22.4768C7.26037 22.4868 7.15322 22.5287 7.06393 22.5976C6.97464 22.6665 6.90693 22.7595 6.86881 22.8657L5.03518 27.9517C5.00593 28.0327 4.99471 28.119 5.00231 28.2048C5.00991 28.2906 5.03614 28.3736 5.07918 28.4482C5.12222 28.5228 5.18102 28.5871 5.25147 28.6365C5.32193 28.686 5.40234 28.7195 5.48709 28.7347L10.8088 29.6905C10.9199 29.7105 11.0343 29.6983 11.1387 29.6554C11.243 29.6125 11.3329 29.5407 11.3978 29.4483C11.4627 29.356 11.4998 29.2471 11.5048 29.1344C11.5098 29.0216 11.4825 28.9098 11.426 28.8121L10.6366 27.4449L13.4157 25.8407C13.5516 25.7622 13.6508 25.6329 13.6915 25.4813C13.7321 25.3297 13.7109 25.1681 13.6324 25.0322C13.5539 24.8962 13.4247 24.797 13.2731 24.7564C13.1214 24.7158 12.9599 24.737 12.8239 24.8155Z" fill="black" fill-opacity="0.2"/>
<path d="M24.4202 32.3633H22.8419V29.1543C22.8419 28.9973 22.7796 28.8468 22.6686 28.7358C22.5577 28.6248 22.4071 28.5625 22.2502 28.5625C22.0933 28.5625 21.9427 28.6248 21.8318 28.7358C21.7208 28.8468 21.6584 28.9973 21.6584 29.1543V32.955C21.6584 33.0327 21.6737 33.1097 21.7034 33.1815C21.7331 33.2533 21.7767 33.3186 21.8317 33.3735C21.8866 33.4285 21.9519 33.4721 22.0237 33.5018C22.0955 33.5315 22.1725 33.5468 22.2502 33.5468H23.1459L20.9315 36.1692L18.7176 33.5468H19.6156C19.6934 33.5468 19.7703 33.5315 19.8421 33.5018C19.914 33.4721 19.9792 33.4285 20.0342 33.3735C20.0891 33.3186 20.1327 33.2533 20.1624 33.1815C20.1922 33.1097 20.2074 33.0327 20.2074 32.955V29.1814C20.2074 29.0244 20.145 28.8739 20.0341 28.763C19.9231 28.652 19.7726 28.5896 19.6156 28.5896C19.4587 28.5896 19.3082 28.652 19.1972 28.763C19.0862 28.8739 19.0239 29.0244 19.0239 29.1814V32.3633H17.4434C17.3305 32.3632 17.22 32.3955 17.1249 32.4562C17.0298 32.5169 16.954 32.6035 16.9065 32.7059C16.859 32.8082 16.8418 32.922 16.8568 33.0338C16.8719 33.1456 16.9186 33.2508 16.9915 33.337L20.4796 37.4683C20.5351 37.534 20.6043 37.5868 20.6824 37.6231C20.7604 37.6593 20.8454 37.6781 20.9315 37.6781C21.0175 37.6781 21.1025 37.6593 21.1806 37.6231C21.2586 37.5868 21.3278 37.534 21.3834 37.4683L24.8721 33.337C24.9449 33.2508 24.9916 33.1456 25.0067 33.0338C25.0217 32.922 25.0045 32.8082 24.957 32.7059C24.9095 32.6035 24.8337 32.5169 24.7386 32.4562C24.6435 32.3955 24.533 32.3632 24.4202 32.3633Z" fill="url(#paint5_linear_7215_14083)"/>
<path d="M24.4202 32.3633H22.8419V29.1543C22.8419 28.9973 22.7796 28.8468 22.6686 28.7358C22.5577 28.6248 22.4071 28.5625 22.2502 28.5625C22.0933 28.5625 21.9427 28.6248 21.8318 28.7358C21.7208 28.8468 21.6584 28.9973 21.6584 29.1543V32.955C21.6584 33.0327 21.6737 33.1097 21.7034 33.1815C21.7331 33.2533 21.7767 33.3186 21.8317 33.3735C21.8866 33.4285 21.9519 33.4721 22.0237 33.5018C22.0955 33.5315 22.1725 33.5468 22.2502 33.5468H23.1459L20.9315 36.1692L18.7176 33.5468H19.6156C19.6934 33.5468 19.7703 33.5315 19.8421 33.5018C19.914 33.4721 19.9792 33.4285 20.0342 33.3735C20.0891 33.3186 20.1327 33.2533 20.1624 33.1815C20.1922 33.1097 20.2074 33.0327 20.2074 32.955V29.1814C20.2074 29.0244 20.145 28.8739 20.0341 28.763C19.9231 28.652 19.7726 28.5896 19.6156 28.5896C19.4587 28.5896 19.3082 28.652 19.1972 28.763C19.0862 28.8739 19.0239 29.0244 19.0239 29.1814V32.3633H17.4434C17.3305 32.3632 17.22 32.3955 17.1249 32.4562C17.0298 32.5169 16.954 32.6035 16.9065 32.7059C16.859 32.8082 16.8418 32.922 16.8568 33.0338C16.8719 33.1456 16.9186 33.2508 16.9915 33.337L20.4796 37.4683C20.5351 37.534 20.6043 37.5868 20.6824 37.6231C20.7604 37.6593 20.8454 37.6781 20.9315 37.6781C21.0175 37.6781 21.1025 37.6593 21.1806 37.6231C21.2586 37.5868 21.3278 37.534 21.3834 37.4683L24.8721 33.337C24.9449 33.2508 24.9916 33.1456 25.0067 33.0338C25.0217 32.922 25.0045 32.8082 24.957 32.7059C24.9095 32.6035 24.8337 32.5169 24.7386 32.4562C24.6435 32.3955 24.533 32.3632 24.4202 32.3633Z" fill="black" fill-opacity="0.2"/>
<path d="M35.0655 22.9832C35.0273 22.877 34.9595 22.784 34.8702 22.7151C34.7809 22.6462 34.6738 22.6043 34.5614 22.5942C34.449 22.5842 34.3361 22.6065 34.236 22.6585C34.1359 22.7106 34.0528 22.7901 33.9964 22.8878L33.207 24.2545L30.4274 22.6497C30.3601 22.6108 30.2857 22.5856 30.2087 22.5754C30.1316 22.5652 30.0533 22.5703 29.9782 22.5905C29.903 22.6106 29.8326 22.6453 29.771 22.6926C29.7093 22.7399 29.6575 22.7989 29.6187 22.8663C29.5798 22.9336 29.5546 23.008 29.5444 23.085C29.5343 23.1621 29.5395 23.2405 29.5596 23.3155C29.5798 23.3906 29.6145 23.461 29.6619 23.5227C29.7092 23.5843 29.7683 23.6361 29.8356 23.6749L33.1273 25.5756C33.2633 25.6538 33.4247 25.6749 33.5763 25.6343C33.7278 25.5937 33.8571 25.4946 33.9357 25.3589L34.3842 24.5828L35.5474 27.8114L32.1697 28.4176L32.6182 27.6403C32.657 27.573 32.6823 27.4987 32.6924 27.4217C32.7026 27.3446 32.6974 27.2663 32.6773 27.1912C32.6572 27.1161 32.6225 27.0458 32.5751 26.9841C32.5278 26.9225 32.4688 26.8707 32.4014 26.8319L29.1341 24.9451C29.0668 24.9062 28.9924 24.8809 28.9154 24.8708C28.8383 24.8606 28.76 24.8657 28.6849 24.8858C28.6098 24.9059 28.5393 24.9406 28.4777 24.988C28.416 25.0353 28.3642 25.0943 28.3254 25.1616C28.2865 25.229 28.2613 25.3033 28.2511 25.3804C28.241 25.4575 28.2462 25.5358 28.2663 25.6109C28.2865 25.686 28.3212 25.7564 28.3686 25.818C28.4159 25.8797 28.475 25.9314 28.5423 25.9703L31.2971 27.5612L30.5077 28.929C30.4513 29.0267 30.4239 29.1385 30.4289 29.2513C30.4339 29.364 30.4711 29.4729 30.5359 29.5652C30.6008 29.6575 30.6907 29.7294 30.7951 29.7723C30.8994 29.8152 31.0139 29.8274 31.1249 29.8074L36.4461 28.8528C36.5308 28.8376 36.6112 28.8041 36.6817 28.7546C36.7521 28.7051 36.811 28.6408 36.854 28.5662C36.897 28.4917 36.9233 28.4086 36.9309 28.3228C36.9385 28.2371 36.9272 28.1507 36.898 28.0697L35.0655 22.9832Z" fill="url(#paint6_linear_7215_14083)"/>
<path d="M35.0655 22.9832C35.0273 22.877 34.9595 22.784 34.8702 22.7151C34.7809 22.6462 34.6738 22.6043 34.5614 22.5942C34.449 22.5842 34.3361 22.6065 34.236 22.6585C34.1359 22.7106 34.0528 22.7901 33.9964 22.8878L33.207 24.2545L30.4274 22.6497C30.3601 22.6108 30.2857 22.5856 30.2087 22.5754C30.1316 22.5652 30.0533 22.5703 29.9782 22.5905C29.903 22.6106 29.8326 22.6453 29.771 22.6926C29.7093 22.7399 29.6575 22.7989 29.6187 22.8663C29.5798 22.9336 29.5546 23.008 29.5444 23.085C29.5343 23.1621 29.5395 23.2405 29.5596 23.3155C29.5798 23.3906 29.6145 23.461 29.6619 23.5227C29.7092 23.5843 29.7683 23.6361 29.8356 23.6749L33.1273 25.5756C33.2633 25.6538 33.4247 25.6749 33.5763 25.6343C33.7278 25.5937 33.8571 25.4946 33.9357 25.3589L34.3842 24.5828L35.5474 27.8114L32.1697 28.4176L32.6182 27.6403C32.657 27.573 32.6823 27.4987 32.6924 27.4217C32.7026 27.3446 32.6974 27.2663 32.6773 27.1912C32.6572 27.1161 32.6225 27.0458 32.5751 26.9841C32.5278 26.9225 32.4688 26.8707 32.4014 26.8319L29.1341 24.9451C29.0668 24.9062 28.9924 24.8809 28.9154 24.8708C28.8383 24.8606 28.76 24.8657 28.6849 24.8858C28.6098 24.9059 28.5393 24.9406 28.4777 24.988C28.416 25.0353 28.3642 25.0943 28.3254 25.1616C28.2865 25.229 28.2613 25.3033 28.2511 25.3804C28.241 25.4575 28.2462 25.5358 28.2663 25.6109C28.2865 25.686 28.3212 25.7564 28.3686 25.818C28.4159 25.8797 28.475 25.9314 28.5423 25.9703L31.2971 27.5612L30.5077 28.929C30.4513 29.0267 30.4239 29.1385 30.4289 29.2513C30.4339 29.364 30.4711 29.4729 30.5359 29.5652C30.6008 29.6575 30.6907 29.7294 30.7951 29.7723C30.8994 29.8152 31.0139 29.8274 31.1249 29.8074L36.4461 28.8528C36.5308 28.8376 36.6112 28.8041 36.6817 28.7546C36.7521 28.7051 36.811 28.6408 36.854 28.5662C36.897 28.4917 36.9233 28.4086 36.9309 28.3228C36.9385 28.2371 36.9272 28.1507 36.898 28.0697L35.0655 22.9832Z" fill="black" fill-opacity="0.2"/>
<path d="M36.9225 10.2206C36.8794 10.146 36.8206 10.0817 36.7501 10.0322C36.6796 9.98267 36.5992 9.94914 36.5145 9.93392L31.1921 8.9781C31.0811 8.95812 30.9666 8.97031 30.8623 9.01322C30.7579 9.05613 30.668 9.12798 30.6032 9.22029C30.5383 9.31261 30.5012 9.42155 30.4962 9.53427C30.4912 9.64698 30.5185 9.75878 30.5749 9.85648L31.3649 11.2238L28.5853 12.828C28.5179 12.8668 28.4589 12.9185 28.4115 12.9802C28.3642 13.0419 28.3294 13.1122 28.3093 13.1873C28.2891 13.2624 28.284 13.3407 28.2941 13.4178C28.3042 13.4949 28.3295 13.5693 28.3683 13.6366C28.4072 13.7039 28.459 13.7629 28.5206 13.8103C28.5823 13.8576 28.6527 13.8923 28.7278 13.9124C28.8029 13.9325 28.8813 13.9376 28.9583 13.9275C29.0354 13.9173 29.1097 13.892 29.1771 13.8531L32.4693 11.9531C32.6051 11.8745 32.7043 11.7452 32.7449 11.5937C32.7855 11.4421 32.7643 11.2806 32.686 11.1446L32.2375 10.3685L35.6153 10.9753L34.452 14.2028L34.003 13.4255C33.9244 13.2896 33.7952 13.1905 33.6436 13.1499C33.492 13.1092 33.3305 13.1304 33.1945 13.2088L29.9266 15.0956C29.8592 15.1344 29.8002 15.1862 29.7528 15.2478C29.7054 15.3095 29.6707 15.3799 29.6505 15.455C29.6304 15.53 29.6252 15.6084 29.6354 15.6855C29.6455 15.7625 29.6707 15.8369 29.7096 15.9042C29.7484 15.9715 29.8002 16.0306 29.8619 16.0779C29.9236 16.1252 29.994 16.1599 30.0691 16.18C30.1442 16.2002 30.2225 16.2053 30.2996 16.1951C30.3767 16.1849 30.451 16.1597 30.5183 16.1208L33.2737 14.5298L34.0637 15.8983C34.119 15.9969 34.202 16.0773 34.3024 16.1295C34.4028 16.1816 34.5163 16.2033 34.6288 16.1918C34.7412 16.1819 34.8483 16.1399 34.9376 16.071C35.0269 16.0021 35.0946 15.9091 35.1328 15.8029L36.9664 10.7169C36.9958 10.636 37.007 10.5496 36.9995 10.4639C36.9919 10.3781 36.9656 10.2951 36.9225 10.2206Z" fill="url(#paint7_linear_7215_14083)"/>
<path d="M36.9225 10.2206C36.8794 10.146 36.8206 10.0817 36.7501 10.0322C36.6796 9.98267 36.5992 9.94914 36.5145 9.93392L31.1921 8.9781C31.0811 8.95812 30.9666 8.97031 30.8623 9.01322C30.7579 9.05613 30.668 9.12798 30.6032 9.22029C30.5383 9.31261 30.5012 9.42155 30.4962 9.53427C30.4912 9.64698 30.5185 9.75878 30.5749 9.85648L31.3649 11.2238L28.5853 12.828C28.5179 12.8668 28.4589 12.9185 28.4115 12.9802C28.3642 13.0419 28.3294 13.1122 28.3093 13.1873C28.2891 13.2624 28.284 13.3407 28.2941 13.4178C28.3042 13.4949 28.3295 13.5693 28.3683 13.6366C28.4072 13.7039 28.459 13.7629 28.5206 13.8103C28.5823 13.8576 28.6527 13.8923 28.7278 13.9124C28.8029 13.9325 28.8813 13.9376 28.9583 13.9275C29.0354 13.9173 29.1097 13.892 29.1771 13.8531L32.4693 11.9531C32.6051 11.8745 32.7043 11.7452 32.7449 11.5937C32.7855 11.4421 32.7643 11.2806 32.686 11.1446L32.2375 10.3685L35.6153 10.9753L34.452 14.2028L34.003 13.4255C33.9244 13.2896 33.7952 13.1905 33.6436 13.1499C33.492 13.1092 33.3305 13.1304 33.1945 13.2088L29.9266 15.0956C29.8592 15.1344 29.8002 15.1862 29.7528 15.2478C29.7054 15.3095 29.6707 15.3799 29.6505 15.455C29.6304 15.53 29.6252 15.6084 29.6354 15.6855C29.6455 15.7625 29.6707 15.8369 29.7096 15.9042C29.7484 15.9715 29.8002 16.0306 29.8619 16.0779C29.9236 16.1252 29.994 16.1599 30.0691 16.18C30.1442 16.2002 30.2225 16.2053 30.2996 16.1951C30.3767 16.1849 30.451 16.1597 30.5183 16.1208L33.2737 14.5298L34.0637 15.8983C34.119 15.9969 34.202 16.0773 34.3024 16.1295C34.4028 16.1816 34.5163 16.2033 34.6288 16.1918C34.7412 16.1819 34.8483 16.1399 34.9376 16.071C35.0269 16.0021 35.0946 15.9091 35.1328 15.8029L36.9664 10.7169C36.9958 10.636 37.007 10.5496 36.9995 10.4639C36.9919 10.3781 36.9656 10.2951 36.9225 10.2206Z" fill="black" fill-opacity="0.2"/>
</g>
<defs>
<linearGradient id="paint0_linear_7215_14083" x1="21.0686" y1="11.5469" x2="21.0686" y2="26.1972" gradientUnits="userSpaceOnUse">
<stop stop-color="#FF0F0F"/>
<stop offset="1" stop-color="#FF4849"/>
</linearGradient>
<linearGradient id="paint1_linear_7215_14083" x1="21.0707" y1="15.5156" x2="21.0707" y2="23.1576" gradientUnits="userSpaceOnUse">
<stop stop-color="#FF0F0F"/>
<stop offset="1" stop-color="#FF4849"/>
</linearGradient>
<linearGradient id="paint2_linear_7215_14083" x1="21.0685" y1="1" x2="21.0685" y2="10.1052" gradientUnits="userSpaceOnUse">
<stop stop-color="#FF0F0F"/>
<stop offset="1" stop-color="#FF4849"/>
</linearGradient>
<linearGradient id="paint3_linear_7215_14083" x1="9.41343" y1="8.85156" x2="9.41343" y2="16.0977" gradientUnits="userSpaceOnUse">
<stop stop-color="#FF0F0F"/>
<stop offset="1" stop-color="#FF4849"/>
</linearGradient>
<linearGradient id="paint4_linear_7215_14083" x1="9.35583" y1="22.4688" x2="9.35583" y2="29.6999" gradientUnits="userSpaceOnUse">
<stop stop-color="#FF0F0F"/>
<stop offset="1" stop-color="#FF4849"/>
</linearGradient>
<linearGradient id="paint5_linear_7215_14083" x1="20.9318" y1="28.5625" x2="20.9318" y2="37.6781" gradientUnits="userSpaceOnUse">
<stop stop-color="#FF0F0F"/>
<stop offset="1" stop-color="#FF4849"/>
</linearGradient>
<linearGradient id="paint6_linear_7215_14083" x1="32.5896" y1="22.5703" x2="32.5896" y2="29.8168" gradientUnits="userSpaceOnUse">
<stop stop-color="#FF0F0F"/>
<stop offset="1" stop-color="#FF4849"/>
</linearGradient>
<linearGradient id="paint7_linear_7215_14083" x1="32.6454" y1="8.96875" x2="32.6454" y2="16.2002" gradientUnits="userSpaceOnUse">
<stop stop-color="#FF0F0F"/>
<stop offset="1" stop-color="#FF4849"/>
</linearGradient>
<clipPath id="clip0_7215_14083">
<rect width="39.7513" height="40.3589" fill="white" transform="translate(0.796875 -0.0078125)"/>
</clipPath>
</defs>
</svg>
