<svg width="60" height="60" viewBox="0 0 60 60" fill="none" xmlns="http://www.w3.org/2000/svg">
<path d="M56.2299 36.9766C55.4501 35.8515 54.037 35.3479 52.7383 35.7016L42.3226 38.3582C42.1141 36.5537 40.5927 35.1423 38.7164 35.1423L31.3019 35.3058L22.5974 32.1612C22.5031 32.1275 22.4037 32.1107 22.3043 32.1107H16.4294V30.4483C16.4294 29.9716 16.0437 29.5859 15.5671 29.5859H8.96966C8.5789 29.5859 8.23703 29.8487 8.13587 30.2243L3.02908 49.2822C2.96 49.5416 3.01557 49.8178 3.17899 50.0318C3.34241 50.244 3.595 50.3686 3.86286 50.3686H15.5672C16.0438 50.3686 16.4295 49.9829 16.4295 49.5063V47.2442L19.3047 47.1752L34.5494 51.9603C34.6337 51.9855 34.7195 51.9991 34.8072 51.9991C34.9436 51.9991 35.0783 51.9671 35.2013 51.9031L55.056 41.686C55.883 41.2615 56.486 40.5002 56.7117 39.5974C56.9356 38.6947 56.7605 37.7397 56.2299 36.9766ZM14.7048 48.6439H4.98625L9.63156 31.3106H14.7048V48.6439ZM55.0373 39.1798C54.9329 39.6009 54.6516 39.9546 54.2676 40.1534L34.7278 50.2087L19.6835 45.4859C19.596 45.459 19.5049 45.459 19.4055 45.4471L16.4293 45.5185V33.8353H22.1526L30.8673 36.9833C30.9683 37.0187 31.098 37.0338 31.1788 37.0338L38.7347 36.8671C39.7857 36.8671 40.6397 37.7211 40.6397 38.7721C40.6397 39.8215 39.7857 40.6754 38.7347 40.6754H29.5316C27.2527 40.6754 25.3999 42.5281 25.3999 44.807C25.3999 45.2837 25.7856 45.6694 26.2622 45.6694C26.7389 45.6694 27.1246 45.2837 27.1246 44.807C27.1246 43.4798 28.2042 42.4001 29.5315 42.4001H38.7346C40.2272 42.4001 41.5108 41.4938 42.0676 40.2033L53.1809 37.3691C53.7906 37.199 54.4509 37.4364 54.8129 37.9603C55.0644 38.3208 55.1434 38.7536 55.0373 39.1798Z" fill="url(#paint0_linear_7231_33596)"/>
<path d="M56.2299 36.9766C55.4501 35.8515 54.037 35.3479 52.7383 35.7016L42.3226 38.3582C42.1141 36.5537 40.5927 35.1423 38.7164 35.1423L31.3019 35.3058L22.5974 32.1612C22.5031 32.1275 22.4037 32.1107 22.3043 32.1107H16.4294V30.4483C16.4294 29.9716 16.0437 29.5859 15.5671 29.5859H8.96966C8.5789 29.5859 8.23703 29.8487 8.13587 30.2243L3.02908 49.2822C2.96 49.5416 3.01557 49.8178 3.17899 50.0318C3.34241 50.244 3.595 50.3686 3.86286 50.3686H15.5672C16.0438 50.3686 16.4295 49.9829 16.4295 49.5063V47.2442L19.3047 47.1752L34.5494 51.9603C34.6337 51.9855 34.7195 51.9991 34.8072 51.9991C34.9436 51.9991 35.0783 51.9671 35.2013 51.9031L55.056 41.686C55.883 41.2615 56.486 40.5002 56.7117 39.5974C56.9356 38.6947 56.7605 37.7397 56.2299 36.9766ZM14.7048 48.6439H4.98625L9.63156 31.3106H14.7048V48.6439ZM55.0373 39.1798C54.9329 39.6009 54.6516 39.9546 54.2676 40.1534L34.7278 50.2087L19.6835 45.4859C19.596 45.459 19.5049 45.459 19.4055 45.4471L16.4293 45.5185V33.8353H22.1526L30.8673 36.9833C30.9683 37.0187 31.098 37.0338 31.1788 37.0338L38.7347 36.8671C39.7857 36.8671 40.6397 37.7211 40.6397 38.7721C40.6397 39.8215 39.7857 40.6754 38.7347 40.6754H29.5316C27.2527 40.6754 25.3999 42.5281 25.3999 44.807C25.3999 45.2837 25.7856 45.6694 26.2622 45.6694C26.7389 45.6694 27.1246 45.2837 27.1246 44.807C27.1246 43.4798 28.2042 42.4001 29.5315 42.4001H38.7346C40.2272 42.4001 41.5108 41.4938 42.0676 40.2033L53.1809 37.3691C53.7906 37.199 54.4509 37.4364 54.8129 37.9603C55.0644 38.3208 55.1434 38.7536 55.0373 39.1798Z" fill="black" fill-opacity="0.2"/>
<path d="M35.7533 31.9442C42.3558 31.9442 47.7272 26.5729 47.7272 19.9721C47.7272 13.3712 42.3559 8 35.7533 8C29.1525 8 23.7812 13.3712 23.7812 19.9721C23.7812 26.5729 29.1525 31.9442 35.7533 31.9442ZM35.7533 9.72466C41.4042 9.72466 46.0024 14.3212 46.0024 19.9721C46.0024 25.6229 41.4042 30.2195 35.7533 30.2195C30.1025 30.2195 25.5059 25.6229 25.5059 19.9721C25.5059 14.3212 30.1025 9.72466 35.7533 9.72466Z" fill="url(#paint1_linear_7231_33596)"/>
<path d="M35.7533 31.9442C42.3558 31.9442 47.7272 26.5729 47.7272 19.9721C47.7272 13.3712 42.3559 8 35.7533 8C29.1525 8 23.7812 13.3712 23.7812 19.9721C23.7812 26.5729 29.1525 31.9442 35.7533 31.9442ZM35.7533 9.72466C41.4042 9.72466 46.0024 14.3212 46.0024 19.9721C46.0024 25.6229 41.4042 30.2195 35.7533 30.2195C30.1025 30.2195 25.5059 25.6229 25.5059 19.9721C25.5059 14.3212 30.1025 9.72466 35.7533 9.72466Z" fill="black" fill-opacity="0.2"/>
<path d="M35.9595 24.5657C35.4643 24.6381 34.9574 24.5152 34.5497 24.2137C34.1422 23.9139 33.876 23.471 33.8002 22.969C33.7295 22.4974 33.2848 22.1774 32.8199 22.2447C32.35 22.3138 32.0249 22.7534 32.0956 23.225C32.2388 24.1817 32.7458 25.0272 33.5239 25.6016C33.9366 25.9062 34.4079 26.078 34.8949 26.1864V26.7199C34.8949 27.1965 35.2806 27.5822 35.7572 27.5822C36.2339 27.5822 36.6196 27.1965 36.6196 26.7199V26.167C38.3677 25.6929 39.5342 23.9838 39.2588 22.1504C39.0988 21.0757 38.442 20.1073 37.5055 19.5598C36.9784 19.2516 36.4175 19.1978 35.966 19.1539C35.7723 19.1354 35.5786 19.1202 35.3916 19.0748C34.3895 18.8323 33.7528 17.8738 33.9448 16.8901C34.0391 16.4016 34.3254 15.9739 34.7516 15.6876C35.176 15.3995 35.6763 15.2884 36.1697 15.3894C36.6666 15.4854 37.0977 15.7701 37.3807 16.1895C37.6638 16.6105 37.7681 17.1158 37.6704 17.6144C37.5812 18.081 37.886 18.5341 38.3543 18.625C38.8108 18.7042 39.2722 18.4111 39.3649 17.9412C39.7356 16.0218 38.5078 14.1689 36.6194 13.7321V13.2217C36.6194 12.7451 36.2337 12.3594 35.7571 12.3594C35.2805 12.3594 34.8948 12.7451 34.8948 13.2217V13.7662C34.5074 13.8703 34.131 14.0258 33.7865 14.2576C32.978 14.8033 32.4341 15.6219 32.2504 16.5617C31.885 18.4515 33.0859 20.2925 34.9875 20.7522C35.2502 20.8162 35.5247 20.8449 35.801 20.8718C36.1413 20.9037 36.4344 20.9324 36.6348 21.0486C37.125 21.3367 37.4703 21.8436 37.5545 22.4061C37.7095 23.4406 36.9936 24.4091 35.9595 24.5657Z" fill="url(#paint2_linear_7231_33596)"/>
<path d="M35.9595 24.5657C35.4643 24.6381 34.9574 24.5152 34.5497 24.2137C34.1422 23.9139 33.876 23.471 33.8002 22.969C33.7295 22.4974 33.2848 22.1774 32.8199 22.2447C32.35 22.3138 32.0249 22.7534 32.0956 23.225C32.2388 24.1817 32.7458 25.0272 33.5239 25.6016C33.9366 25.9062 34.4079 26.078 34.8949 26.1864V26.7199C34.8949 27.1965 35.2806 27.5822 35.7572 27.5822C36.2339 27.5822 36.6196 27.1965 36.6196 26.7199V26.167C38.3677 25.6929 39.5342 23.9838 39.2588 22.1504C39.0988 21.0757 38.442 20.1073 37.5055 19.5598C36.9784 19.2516 36.4175 19.1978 35.966 19.1539C35.7723 19.1354 35.5786 19.1202 35.3916 19.0748C34.3895 18.8323 33.7528 17.8738 33.9448 16.8901C34.0391 16.4016 34.3254 15.9739 34.7516 15.6876C35.176 15.3995 35.6763 15.2884 36.1697 15.3894C36.6666 15.4854 37.0977 15.7701 37.3807 16.1895C37.6638 16.6105 37.7681 17.1158 37.6704 17.6144C37.5812 18.081 37.886 18.5341 38.3543 18.625C38.8108 18.7042 39.2722 18.4111 39.3649 17.9412C39.7356 16.0218 38.5078 14.1689 36.6194 13.7321V13.2217C36.6194 12.7451 36.2337 12.3594 35.7571 12.3594C35.2805 12.3594 34.8948 12.7451 34.8948 13.2217V13.7662C34.5074 13.8703 34.131 14.0258 33.7865 14.2576C32.978 14.8033 32.4341 15.6219 32.2504 16.5617C31.885 18.4515 33.0859 20.2925 34.9875 20.7522C35.2502 20.8162 35.5247 20.8449 35.801 20.8718C36.1413 20.9037 36.4344 20.9324 36.6348 21.0486C37.125 21.3367 37.4703 21.8436 37.5545 22.4061C37.7095 23.4406 36.9936 24.4091 35.9595 24.5657Z" fill="black" fill-opacity="0.2"/>
<defs>
<linearGradient id="paint0_linear_7231_33596" x1="29.9035" y1="29.5859" x2="29.9035" y2="51.9991" gradientUnits="userSpaceOnUse">
<stop stop-color="#FF0F0F"/>
<stop offset="1" stop-color="#FF4849"/>
</linearGradient>
<linearGradient id="paint1_linear_7231_33596" x1="35.7542" y1="8" x2="35.7542" y2="31.9442" gradientUnits="userSpaceOnUse">
<stop stop-color="#FF0F0F"/>
<stop offset="1" stop-color="#FF4849"/>
</linearGradient>
<linearGradient id="paint2_linear_7231_33596" x1="35.7584" y1="12.3594" x2="35.7584" y2="27.5822" gradientUnits="userSpaceOnUse">
<stop stop-color="#FF0F0F"/>
<stop offset="1" stop-color="#FF4849"/>
</linearGradient>
</defs>
</svg>
