<svg width="60" height="60" viewBox="0 0 60 60" fill="none" xmlns="http://www.w3.org/2000/svg">
<path d="M42.122 54.9996C35.0204 54.9996 29.2422 49.2219 29.2422 42.1209C29.2422 35.0199 35.0199 29.2422 42.122 29.2422C49.223 29.2422 54.9996 35.0199 54.9996 42.1209C54.9996 49.2219 49.2236 54.9996 42.122 54.9996ZM42.122 30.7572C35.8554 30.7572 30.7572 35.8549 30.7572 42.1209C30.7572 48.3869 35.8554 53.4841 42.122 53.4841C48.3869 53.4841 53.4841 48.3869 53.4841 42.1209C53.4841 35.8549 48.3875 30.7572 42.122 30.7572Z" fill="url(#paint0_linear_7231_33629)"/>
<path d="M42.122 54.9996C35.0204 54.9996 29.2422 49.2219 29.2422 42.1209C29.2422 35.0199 35.0199 29.2422 42.122 29.2422C49.223 29.2422 54.9996 35.0199 54.9996 42.1209C54.9996 49.2219 49.2236 54.9996 42.122 54.9996ZM42.122 30.7572C35.8554 30.7572 30.7572 35.8549 30.7572 42.1209C30.7572 48.3869 35.8554 53.4841 42.122 53.4841C48.3869 53.4841 53.4841 48.3869 53.4841 42.1209C53.4841 35.8549 48.3875 30.7572 42.122 30.7572Z" fill="black" fill-opacity="0.2"/>
<path d="M42.1228 51.2154C37.1095 51.2154 33.0312 47.1361 33.0312 42.1233C33.0312 37.1106 37.1095 33.0312 42.1228 33.0312C47.1349 33.0312 51.2121 37.1106 51.2121 42.1233C51.2121 47.1361 47.1355 51.2154 42.1228 51.2154ZM42.1228 34.5457C37.9451 34.5457 34.5457 37.9445 34.5457 42.1233C34.5457 46.3016 37.9451 49.7005 42.1228 49.7005C46.2994 49.7005 49.6971 46.3016 49.6971 42.1233C49.6971 37.9445 46.2994 34.5457 42.1228 34.5457Z" fill="url(#paint1_linear_7231_33629)"/>
<path d="M42.1228 51.2154C37.1095 51.2154 33.0312 47.1361 33.0312 42.1233C33.0312 37.1106 37.1095 33.0312 42.1228 33.0312C47.1349 33.0312 51.2121 37.1106 51.2121 42.1233C51.2121 47.1361 47.1355 51.2154 42.1228 51.2154ZM42.1228 34.5457C37.9451 34.5457 34.5457 37.9445 34.5457 42.1233C34.5457 46.3016 37.9451 49.7005 42.1228 49.7005C46.2994 49.7005 49.6971 46.3016 49.6971 42.1233C49.6971 37.9445 46.2994 34.5457 42.1228 34.5457Z" fill="black" fill-opacity="0.2"/>
<path d="M44.2822 42.74C43.8783 42.3667 43.2522 42.0383 42.4222 41.7572C41.6678 41.5117 41.1528 41.2495 40.8939 40.9845C40.6394 40.7239 40.515 40.3867 40.515 39.9534C40.515 39.5078 40.66 39.1367 40.945 38.8484C41.2339 38.5612 41.6644 38.4167 42.225 38.4167C42.7638 38.4167 43.1883 38.5923 43.4861 38.94C43.7877 39.2906 43.9416 39.7522 43.9416 40.3134C43.9416 40.365 43.9844 40.4067 44.0377 40.4067H44.7127C44.751 40.4067 44.7866 40.3845 44.7999 40.3478L44.8116 40.3178C44.816 40.3072 44.8188 40.2956 44.8188 40.2834C44.8305 39.5039 44.6338 38.8706 44.2361 38.4028C43.8538 37.9545 43.3155 37.6867 42.6366 37.6084V36.4856C42.6366 36.4334 42.5933 36.3906 42.5416 36.3906H41.9316C41.88 36.3906 41.8372 36.4334 41.8372 36.4856V37.6084C41.1716 37.6778 40.6328 37.9178 40.2389 38.3212C39.8233 38.7445 39.6117 39.2978 39.6117 39.9667C39.6117 40.6633 39.8233 41.2139 40.2405 41.6011C40.6472 41.9789 41.2794 42.3061 42.1155 42.5717C42.8238 42.825 43.3227 43.09 43.5994 43.3578C43.8699 43.6194 44.0005 43.9494 44.0005 44.365C44.0005 44.815 43.8422 45.1772 43.5155 45.4699C43.1911 45.7611 42.7411 45.9077 42.1761 45.9077C41.6305 45.9077 41.1583 45.7599 40.7755 45.4627C40.3994 45.17 40.21 44.6844 40.21 44.0111C40.21 43.9605 40.1672 43.9177 40.115 43.9177H39.445C39.4094 43.9177 39.3756 43.9383 39.3606 43.9711L39.3433 44.0055C39.3356 44.0189 39.3328 44.0322 39.3328 44.0472C39.3167 44.9144 39.5589 45.5722 40.055 46.0044C40.5255 46.4172 41.12 46.6538 41.82 46.7127V47.756C41.82 47.8077 41.8627 47.8505 41.915 47.8505H42.5261C42.5766 47.8505 42.6194 47.8077 42.6194 47.756V46.7049C43.3 46.6327 43.8533 46.3972 44.2599 46.0038C44.6905 45.5955 44.9083 45.0394 44.9083 44.3505C44.9083 43.6644 44.6983 43.12 44.2822 42.74Z" fill="url(#paint2_linear_7231_33629)"/>
<path d="M44.2822 42.74C43.8783 42.3667 43.2522 42.0383 42.4222 41.7572C41.6678 41.5117 41.1528 41.2495 40.8939 40.9845C40.6394 40.7239 40.515 40.3867 40.515 39.9534C40.515 39.5078 40.66 39.1367 40.945 38.8484C41.2339 38.5612 41.6644 38.4167 42.225 38.4167C42.7638 38.4167 43.1883 38.5923 43.4861 38.94C43.7877 39.2906 43.9416 39.7522 43.9416 40.3134C43.9416 40.365 43.9844 40.4067 44.0377 40.4067H44.7127C44.751 40.4067 44.7866 40.3845 44.7999 40.3478L44.8116 40.3178C44.816 40.3072 44.8188 40.2956 44.8188 40.2834C44.8305 39.5039 44.6338 38.8706 44.2361 38.4028C43.8538 37.9545 43.3155 37.6867 42.6366 37.6084V36.4856C42.6366 36.4334 42.5933 36.3906 42.5416 36.3906H41.9316C41.88 36.3906 41.8372 36.4334 41.8372 36.4856V37.6084C41.1716 37.6778 40.6328 37.9178 40.2389 38.3212C39.8233 38.7445 39.6117 39.2978 39.6117 39.9667C39.6117 40.6633 39.8233 41.2139 40.2405 41.6011C40.6472 41.9789 41.2794 42.3061 42.1155 42.5717C42.8238 42.825 43.3227 43.09 43.5994 43.3578C43.8699 43.6194 44.0005 43.9494 44.0005 44.365C44.0005 44.815 43.8422 45.1772 43.5155 45.4699C43.1911 45.7611 42.7411 45.9077 42.1761 45.9077C41.6305 45.9077 41.1583 45.7599 40.7755 45.4627C40.3994 45.17 40.21 44.6844 40.21 44.0111C40.21 43.9605 40.1672 43.9177 40.115 43.9177H39.445C39.4094 43.9177 39.3756 43.9383 39.3606 43.9711L39.3433 44.0055C39.3356 44.0189 39.3328 44.0322 39.3328 44.0472C39.3167 44.9144 39.5589 45.5722 40.055 46.0044C40.5255 46.4172 41.12 46.6538 41.82 46.7127V47.756C41.82 47.8077 41.8627 47.8505 41.915 47.8505H42.5261C42.5766 47.8505 42.6194 47.8077 42.6194 47.756V46.7049C43.3 46.6327 43.8533 46.3972 44.2599 46.0038C44.6905 45.5955 44.9083 45.0394 44.9083 44.3505C44.9083 43.6644 44.6983 43.12 44.2822 42.74Z" fill="black" fill-opacity="0.2"/>
<path d="M15.6484 42.9781C11.8601 42.9781 8.77734 39.8976 8.77734 36.1115C8.77734 32.3238 11.8601 29.2422 15.6484 29.2422C19.4355 29.2422 22.5166 32.3238 22.5166 36.1115C22.5166 39.8976 19.4355 42.9781 15.6484 42.9781ZM15.6484 30.7566C12.6951 30.7566 10.2923 33.1582 10.2923 36.1115C10.2923 39.0621 12.6951 41.4637 15.6484 41.4637C18.6 41.4637 21.0016 39.0621 21.0016 36.1115C21.0016 33.1588 18.6 30.7566 15.6484 30.7566Z" fill="url(#paint3_linear_7231_33629)"/>
<path d="M15.6484 42.9781C11.8601 42.9781 8.77734 39.8976 8.77734 36.1115C8.77734 32.3238 11.8601 29.2422 15.6484 29.2422C19.4355 29.2422 22.5166 32.3238 22.5166 36.1115C22.5166 39.8976 19.4355 42.9781 15.6484 42.9781ZM15.6484 30.7566C12.6951 30.7566 10.2923 33.1582 10.2923 36.1115C10.2923 39.0621 12.6951 41.4637 15.6484 41.4637C18.6 41.4637 21.0016 39.0621 21.0016 36.1115C21.0016 33.1588 18.6 30.7566 15.6484 30.7566Z" fill="black" fill-opacity="0.2"/>
<path d="M15.6507 54.9975C11.8852 54.9975 8.30523 53.7797 5.29694 51.4742C5.07972 51.3087 4.96916 51.0381 5.00749 50.7659C5.98248 43.9693 9.29744 41.3866 11.9068 40.4144C12.1385 40.3299 12.3979 40.361 12.6018 40.5016C14.4196 41.761 16.8957 41.7566 18.6951 40.5033C18.8984 40.3594 19.1595 40.3294 19.3917 40.4144C22.0017 41.3849 25.3183 43.9682 26.2966 50.7659C26.335 51.0364 26.2244 51.3092 26.0072 51.4742C22.9989 53.7797 19.4184 54.9975 15.6507 54.9975ZM6.57525 50.5381C9.24077 52.4659 12.3685 53.4825 15.6501 53.4825C18.9345 53.4825 22.0628 52.4659 24.7278 50.5381C24 46.1021 22.1473 43.2243 19.2123 41.9738C17.0657 43.286 14.2513 43.291 12.0863 41.9738C9.15299 43.2243 7.3008 46.1015 6.57525 50.5381Z" fill="url(#paint4_linear_7231_33629)"/>
<path d="M15.6507 54.9975C11.8852 54.9975 8.30523 53.7797 5.29694 51.4742C5.07972 51.3087 4.96916 51.0381 5.00749 50.7659C5.98248 43.9693 9.29744 41.3866 11.9068 40.4144C12.1385 40.3299 12.3979 40.361 12.6018 40.5016C14.4196 41.761 16.8957 41.7566 18.6951 40.5033C18.8984 40.3594 19.1595 40.3294 19.3917 40.4144C22.0017 41.3849 25.3183 43.9682 26.2966 50.7659C26.335 51.0364 26.2244 51.3092 26.0072 51.4742C22.9989 53.7797 19.4184 54.9975 15.6507 54.9975ZM6.57525 50.5381C9.24077 52.4659 12.3685 53.4825 15.6501 53.4825C18.9345 53.4825 22.0628 52.4659 24.7278 50.5381C24 46.1021 22.1473 43.2243 19.2123 41.9738C17.0657 43.286 14.2513 43.291 12.0863 41.9738C9.15299 43.2243 7.3008 46.1015 6.57525 50.5381Z" fill="black" fill-opacity="0.2"/>
<path d="M40.7303 17.6254C40.5364 17.6254 40.3425 17.5515 40.1947 17.4037C39.8986 17.1076 39.8986 16.6282 40.1947 16.3321L45.2147 11.3132L40.1947 6.29332C39.8986 5.99721 39.8986 5.51777 40.1947 5.22166C40.4903 4.92611 40.9703 4.92611 41.2658 5.22166L46.8219 10.7771C46.9641 10.9194 47.0435 11.1121 47.0435 11.3127C47.0435 11.5138 46.9635 11.7066 46.8219 11.8488L41.2658 17.4032C41.1181 17.5515 40.9242 17.6254 40.7303 17.6254Z" fill="url(#paint5_linear_7231_33629)"/>
<path d="M40.7303 17.6254C40.5364 17.6254 40.3425 17.5515 40.1947 17.4037C39.8986 17.1076 39.8986 16.6282 40.1947 16.3321L45.2147 11.3132L40.1947 6.29332C39.8986 5.99721 39.8986 5.51777 40.1947 5.22166C40.4903 4.92611 40.9703 4.92611 41.2658 5.22166L46.8219 10.7771C46.9641 10.9194 47.0435 11.1121 47.0435 11.3127C47.0435 11.5138 46.9635 11.7066 46.8219 11.8488L41.2658 17.4032C41.1181 17.5515 40.9242 17.6254 40.7303 17.6254Z" fill="black" fill-opacity="0.2"/>
<path d="M46.2899 12.0697H13.7148C13.2959 12.0697 12.957 11.7308 12.957 11.3119C12.957 10.8936 13.2959 10.5547 13.7148 10.5547H46.2899C46.7088 10.5547 47.0471 10.8936 47.0471 11.3119C47.0477 11.7302 46.7088 12.0697 46.2899 12.0697Z" fill="url(#paint6_linear_7231_33629)"/>
<path d="M46.2899 12.0697H13.7148C13.2959 12.0697 12.957 11.7308 12.957 11.3119C12.957 10.8936 13.2959 10.5547 13.7148 10.5547H46.2899C46.7088 10.5547 47.0471 10.8936 47.0471 11.3119C47.0477 11.7302 46.7088 12.0697 46.2899 12.0697Z" fill="black" fill-opacity="0.2"/>
<path d="M19.2664 28.7353C19.0725 28.7353 18.8786 28.6609 18.7308 28.5137L13.1748 22.9582C13.0331 22.8165 12.9531 22.6237 12.9531 22.4226C12.9531 22.2215 13.0331 22.0293 13.1748 21.8871L18.7308 16.331C19.0269 16.0355 19.5064 16.0355 19.8019 16.331C20.0975 16.6266 20.098 17.1066 19.8019 17.4027L14.7814 22.4226L19.8019 27.4414C20.098 27.737 20.098 28.217 19.8019 28.5131C19.6541 28.6609 19.4603 28.7353 19.2664 28.7353Z" fill="url(#paint7_linear_7231_33629)"/>
<path d="M19.2664 28.7353C19.0725 28.7353 18.8786 28.6609 18.7308 28.5137L13.1748 22.9582C13.0331 22.8165 12.9531 22.6237 12.9531 22.4226C12.9531 22.2215 13.0331 22.0293 13.1748 21.8871L18.7308 16.331C19.0269 16.0355 19.5064 16.0355 19.8019 16.331C20.0975 16.6266 20.098 17.1066 19.8019 17.4027L14.7814 22.4226L19.8019 27.4414C20.098 27.737 20.098 28.217 19.8019 28.5131C19.6541 28.6609 19.4603 28.7353 19.2664 28.7353Z" fill="black" fill-opacity="0.2"/>
<path d="M46.2899 23.1869H13.7148C13.2959 23.1869 12.957 22.848 12.957 22.4291C12.957 22.0102 13.2959 21.6719 13.7148 21.6719H46.2899C46.7088 21.6719 47.0471 22.0102 47.0471 22.4291C47.0471 22.848 46.7088 23.1869 46.2899 23.1869Z" fill="url(#paint8_linear_7231_33629)"/>
<path d="M46.2899 23.1869H13.7148C13.2959 23.1869 12.957 22.848 12.957 22.4291C12.957 22.0102 13.2959 21.6719 13.7148 21.6719H46.2899C46.7088 21.6719 47.0471 22.0102 47.0471 22.4291C47.0471 22.848 46.7088 23.1869 46.2899 23.1869Z" fill="black" fill-opacity="0.2"/>
<defs>
<linearGradient id="paint0_linear_7231_33629" x1="42.1209" y1="29.2422" x2="42.1209" y2="54.9996" gradientUnits="userSpaceOnUse">
<stop stop-color="#FF0F0F"/>
<stop offset="1" stop-color="#FF4849"/>
</linearGradient>
<linearGradient id="paint1_linear_7231_33629" x1="42.1217" y1="33.0312" x2="42.1217" y2="51.2154" gradientUnits="userSpaceOnUse">
<stop stop-color="#FF0F0F"/>
<stop offset="1" stop-color="#FF4849"/>
</linearGradient>
<linearGradient id="paint2_linear_7231_33629" x1="42.1201" y1="36.3906" x2="42.1201" y2="47.8505" gradientUnits="userSpaceOnUse">
<stop stop-color="#FF0F0F"/>
<stop offset="1" stop-color="#FF4849"/>
</linearGradient>
<linearGradient id="paint3_linear_7231_33629" x1="15.647" y1="29.2422" x2="15.647" y2="42.9781" gradientUnits="userSpaceOnUse">
<stop stop-color="#FF0F0F"/>
<stop offset="1" stop-color="#FF4849"/>
</linearGradient>
<linearGradient id="paint4_linear_7231_33629" x1="15.6521" y1="40.3672" x2="15.6521" y2="54.9975" gradientUnits="userSpaceOnUse">
<stop stop-color="#FF0F0F"/>
<stop offset="1" stop-color="#FF4849"/>
</linearGradient>
<linearGradient id="paint5_linear_7231_33629" x1="43.5081" y1="5" x2="43.5081" y2="17.6254" gradientUnits="userSpaceOnUse">
<stop stop-color="#FF0F0F"/>
<stop offset="1" stop-color="#FF4849"/>
</linearGradient>
<linearGradient id="paint6_linear_7231_33629" x1="30.0021" y1="10.5547" x2="30.0021" y2="12.0697" gradientUnits="userSpaceOnUse">
<stop stop-color="#FF0F0F"/>
<stop offset="1" stop-color="#FF4849"/>
</linearGradient>
<linearGradient id="paint7_linear_7231_33629" x1="16.4886" y1="16.1094" x2="16.4886" y2="28.7353" gradientUnits="userSpaceOnUse">
<stop stop-color="#FF0F0F"/>
<stop offset="1" stop-color="#FF4849"/>
</linearGradient>
<linearGradient id="paint8_linear_7231_33629" x1="30.0021" y1="21.6719" x2="30.0021" y2="23.1869" gradientUnits="userSpaceOnUse">
<stop stop-color="#FF0F0F"/>
<stop offset="1" stop-color="#FF4849"/>
</linearGradient>
</defs>
</svg>
