<svg width="60" height="60" viewBox="0 0 60 60" fill="none" xmlns="http://www.w3.org/2000/svg">
<path d="M51.2767 20.8112H8.72328C8.53146 20.8112 8.34749 20.8885 8.21185 21.0261C8.0762 21.1637 8 21.3504 8 21.545V26.011C8 26.2056 8.0762 26.3923 8.21185 26.5299C8.34749 26.6675 8.53146 26.7448 8.72328 26.7448H10.6455L25.9542 41.8707V54.2662C25.9542 54.4012 25.9909 54.5336 26.0603 54.6489C26.1297 54.7641 26.2291 54.8577 26.3476 54.9193C26.4661 54.9808 26.599 55.0081 26.7317 54.9979C26.8644 54.9878 26.9919 54.9407 27.0999 54.8618L33.7437 50.0219C33.8372 49.954 33.9133 49.8645 33.9658 49.7608C34.0184 49.6571 34.0458 49.5422 34.0458 49.4256V41.8707L49.3545 26.7422H51.2767C51.4685 26.7422 51.6525 26.6649 51.7882 26.5273C51.9238 26.3897 52 26.203 52 26.0084V21.5424C51.9993 21.3483 51.9228 21.1623 51.7873 21.0252C51.6517 20.8881 51.4681 20.8112 51.2767 20.8112ZM32.8171 41.0347C32.7481 41.1031 32.6931 41.1849 32.6556 41.2751C32.6181 41.3654 32.5987 41.4623 32.5986 41.5603V49.0496L27.4033 52.8358V41.5603C27.4032 41.4623 27.3838 41.3654 27.3463 41.2751C27.3088 41.1849 27.2538 41.1031 27.1848 41.0347L12.7191 26.7422H47.2809L32.8171 41.0347ZM50.5509 25.2746H9.44657V22.2763H50.5509V25.2746ZM10.7202 20.3363H21.1572C21.5828 20.3374 21.9958 20.1892 22.3261 19.9168C22.6564 19.6444 22.8838 19.2646 22.9698 18.8417C23.0557 19.2646 23.283 19.6443 23.6132 19.9167C23.9434 20.1891 24.3563 20.3373 24.7818 20.3363H35.2182C35.6437 20.3372 36.0565 20.1888 36.3866 19.9163C36.7167 19.6438 36.9438 19.2639 37.0295 18.841C37.1152 19.2641 37.3424 19.6441 37.6726 19.9166C38.0029 20.1892 38.4159 20.3374 38.8415 20.3363H49.2785C49.5521 20.3363 49.8222 20.2748 50.0697 20.1564C50.3171 20.0381 50.5357 19.8656 50.7097 19.6515C50.8838 19.4374 51.0091 19.1869 51.0765 18.9179C51.144 18.6489 51.152 18.3681 51.1 18.0956C50.7945 16.512 49.9795 15.0762 48.7828 14.0134C47.586 12.9507 46.0754 12.3212 44.4879 12.2237C45.3916 12.1131 46.2197 11.6567 46.8029 10.9476C47.3862 10.2385 47.6806 9.33017 47.626 8.40825C47.5714 7.48633 47.172 6.62033 46.5093 5.98713C45.8466 5.35394 44.9706 5.00133 44.0603 5.00133C43.15 5.00133 42.2741 5.35394 41.6114 5.98713C40.9487 6.62033 40.5493 7.48633 40.4947 8.40825C40.4401 9.33017 40.7345 10.2385 41.3177 10.9476C41.901 11.6567 42.7291 12.1131 43.6328 12.2237C42.0525 12.3209 40.5482 12.9454 39.354 14.0001C38.1598 15.0548 37.3428 16.4804 37.0302 18.0551C36.7178 16.4803 35.9009 15.0544 34.7067 13.9997C33.5124 12.945 32.0079 12.3205 30.4275 12.2237C31.3315 12.1132 32.1598 11.6567 32.7432 10.9475C33.3266 10.2383 33.6212 9.32985 33.5666 8.40773C33.5121 7.4856 33.1126 6.6194 32.4498 5.98605C31.787 5.3527 30.9108 5 30.0003 5C29.0898 5 28.2137 5.3527 27.5508 5.98605C26.888 6.6194 26.4885 7.4856 26.434 8.40773C26.3795 9.32985 26.674 10.2383 27.2574 10.9475C27.8409 11.6567 28.6692 12.1132 29.5731 12.2237C27.9928 12.3207 26.4883 12.9451 25.2941 13.9996C24.0998 15.0542 23.2826 16.4798 22.9698 18.0545C22.6569 16.4799 21.8399 15.0545 20.6457 14C19.4516 12.9454 17.9474 12.3209 16.3672 12.2237C17.2711 12.1131 18.0993 11.6566 18.6827 10.9474C19.2661 10.2381 19.5605 9.3297 19.506 8.40761C19.4514 7.48551 19.0519 6.61935 18.3891 5.98603C17.7263 5.35272 16.8501 5.00004 15.9397 5.00004C15.0292 5.00004 14.1531 5.35272 13.4902 5.98603C12.8274 6.61935 12.4279 7.48551 12.3734 8.40761C12.3188 9.3297 12.6133 10.2381 13.1966 10.9474C13.78 11.6566 14.6082 12.1131 15.5121 12.2237C13.9243 12.3209 12.4132 12.9504 11.2163 14.0135C10.0194 15.0766 9.2044 16.5129 8.89936 18.0969C8.84756 18.3693 8.85574 18.6499 8.92331 18.9188C8.99087 19.1876 9.11616 19.4379 9.2902 19.6519C9.46424 19.8659 9.68274 20.0382 9.93007 20.1565C10.1774 20.2748 10.4468 20.3362 10.7202 20.3363ZM41.9355 8.62517C41.9355 8.19862 42.0601 7.78166 42.2937 7.42701C42.5273 7.07235 42.8593 6.79595 43.2477 6.63274C43.6361 6.46954 44.0635 6.42687 44.4759 6.51013C44.8882 6.5934 45.2669 6.79885 45.5642 7.10051C45.8614 7.40217 46.0638 7.78648 46.1457 8.20485C46.2277 8.62321 46.1855 9.05684 46.0245 9.45088C45.8635 9.84492 45.591 10.1817 45.2414 10.4186C44.8918 10.6554 44.4808 10.7818 44.0603 10.7817C43.4969 10.7808 42.9569 10.5533 42.5585 10.1491C42.1602 9.74482 41.9361 9.19679 41.9355 8.62517ZM44.0603 13.6785C45.3884 13.6793 46.6749 14.1481 47.7 15.0048C48.725 15.8615 49.4249 17.0528 49.68 18.3751C49.6914 18.4352 49.6896 18.497 49.6747 18.5563C49.6598 18.6155 49.6321 18.6706 49.5938 18.7178C49.5554 18.7649 49.5073 18.8029 49.4528 18.829C49.3983 18.8551 49.3388 18.8686 49.2785 18.8686H38.8415C38.7813 18.8685 38.7219 18.8549 38.6674 18.8288C38.613 18.8027 38.5649 18.7647 38.5265 18.7176C38.4882 18.6704 38.4606 18.6153 38.4456 18.5561C38.4307 18.497 38.4287 18.4352 38.44 18.3751C38.6952 17.0527 39.3952 15.8613 40.4203 15.0046C41.4455 14.1479 42.7322 13.6791 44.0603 13.6785ZM27.8751 8.62517C27.8752 8.19881 28 7.78205 28.2335 7.4276C28.4671 7.07316 28.799 6.79693 29.1873 6.63386C29.5756 6.47078 30.0028 6.42818 30.4149 6.51144C30.8271 6.5947 31.2056 6.80007 31.5027 7.1016C31.7999 7.40313 32.0022 7.78728 32.0841 8.20546C32.166 8.62364 32.1239 9.05708 31.9631 9.45098C31.8022 9.84488 31.5299 10.1815 31.1805 10.4184C30.831 10.6553 30.4202 10.7817 30 10.7817C29.4365 10.781 28.8964 10.5536 28.498 10.1493C28.0996 9.74497 27.8756 9.19685 27.8751 8.62517ZM30 13.6785C31.328 13.6792 32.6145 14.148 33.6395 15.0047C34.6644 15.8614 35.3642 17.0528 35.6191 18.3751C35.6327 18.4355 35.6319 18.4983 35.6166 18.5583C35.6012 18.6182 35.5719 18.6735 35.531 18.7196C35.4946 18.7681 35.4471 18.8071 35.3926 18.833C35.3381 18.859 35.2783 18.8712 35.2182 18.8686H24.7812C24.721 18.8685 24.6615 18.8549 24.6071 18.8288C24.5526 18.8027 24.5045 18.7647 24.4662 18.7176C24.4279 18.6704 24.4002 18.6153 24.3853 18.5561C24.3703 18.497 24.3684 18.4352 24.3797 18.3751C24.6348 17.0527 25.3348 15.8613 26.36 15.0046C27.3852 14.1479 28.6719 13.6791 30 13.6785ZM13.8135 8.62517C13.8135 8.19868 13.9382 7.78176 14.1717 7.42714C14.4052 7.07252 14.7371 6.79611 15.1255 6.63287C15.5138 6.46963 15.9412 6.42688 16.3535 6.51004C16.7658 6.5932 17.1445 6.79852 17.4418 7.10005C17.7391 7.40158 17.9415 7.78578 18.0236 8.20406C18.1057 8.62234 18.0637 9.05593 17.9029 9.44999C17.7422 9.84405 17.4698 10.1809 17.1204 10.4179C16.7709 10.655 16.36 10.7816 15.9397 10.7817C15.376 10.7812 14.8356 10.5538 14.437 10.1495C14.0384 9.74524 13.8142 9.19702 13.8135 8.62517ZM15.9397 13.6785C17.2677 13.6793 18.5542 14.1481 19.5793 15.0048C20.6043 15.8615 21.3042 17.0528 21.5594 18.3751C21.5706 18.4352 21.5687 18.497 21.5538 18.5561C21.5388 18.6153 21.5112 18.6704 21.4728 18.7176C21.4345 18.7647 21.3864 18.8027 21.3319 18.8288C21.2775 18.8549 21.218 18.8685 21.1578 18.8686H10.7202C10.66 18.8685 10.6006 18.8549 10.5461 18.8288C10.4917 18.8027 10.4436 18.7647 10.4052 18.7176C10.3669 18.6704 10.3393 18.6153 10.3243 18.5561C10.3093 18.497 10.3074 18.4352 10.3187 18.3751C10.5739 17.0526 11.274 15.8611 12.2993 15.0044C13.3246 14.1477 14.6114 13.679 15.9397 13.6785Z" fill="url(#paint0_linear_7231_33622)"/>
<path d="M51.2767 20.8112H8.72328C8.53146 20.8112 8.34749 20.8885 8.21185 21.0261C8.0762 21.1637 8 21.3504 8 21.545V26.011C8 26.2056 8.0762 26.3923 8.21185 26.5299C8.34749 26.6675 8.53146 26.7448 8.72328 26.7448H10.6455L25.9542 41.8707V54.2662C25.9542 54.4012 25.9909 54.5336 26.0603 54.6489C26.1297 54.7641 26.2291 54.8577 26.3476 54.9193C26.4661 54.9808 26.599 55.0081 26.7317 54.9979C26.8644 54.9878 26.9919 54.9407 27.0999 54.8618L33.7437 50.0219C33.8372 49.954 33.9133 49.8645 33.9658 49.7608C34.0184 49.6571 34.0458 49.5422 34.0458 49.4256V41.8707L49.3545 26.7422H51.2767C51.4685 26.7422 51.6525 26.6649 51.7882 26.5273C51.9238 26.3897 52 26.203 52 26.0084V21.5424C51.9993 21.3483 51.9228 21.1623 51.7873 21.0252C51.6517 20.8881 51.4681 20.8112 51.2767 20.8112ZM32.8171 41.0347C32.7481 41.1031 32.6931 41.1849 32.6556 41.2751C32.6181 41.3654 32.5987 41.4623 32.5986 41.5603V49.0496L27.4033 52.8358V41.5603C27.4032 41.4623 27.3838 41.3654 27.3463 41.2751C27.3088 41.1849 27.2538 41.1031 27.1848 41.0347L12.7191 26.7422H47.2809L32.8171 41.0347ZM50.5509 25.2746H9.44657V22.2763H50.5509V25.2746ZM10.7202 20.3363H21.1572C21.5828 20.3374 21.9958 20.1892 22.3261 19.9168C22.6564 19.6444 22.8838 19.2646 22.9698 18.8417C23.0557 19.2646 23.283 19.6443 23.6132 19.9167C23.9434 20.1891 24.3563 20.3373 24.7818 20.3363H35.2182C35.6437 20.3372 36.0565 20.1888 36.3866 19.9163C36.7167 19.6438 36.9438 19.2639 37.0295 18.841C37.1152 19.2641 37.3424 19.6441 37.6726 19.9166C38.0029 20.1892 38.4159 20.3374 38.8415 20.3363H49.2785C49.5521 20.3363 49.8222 20.2748 50.0697 20.1564C50.3171 20.0381 50.5357 19.8656 50.7097 19.6515C50.8838 19.4374 51.0091 19.1869 51.0765 18.9179C51.144 18.6489 51.152 18.3681 51.1 18.0956C50.7945 16.512 49.9795 15.0762 48.7828 14.0134C47.586 12.9507 46.0754 12.3212 44.4879 12.2237C45.3916 12.1131 46.2197 11.6567 46.8029 10.9476C47.3862 10.2385 47.6806 9.33017 47.626 8.40825C47.5714 7.48633 47.172 6.62033 46.5093 5.98713C45.8466 5.35394 44.9706 5.00133 44.0603 5.00133C43.15 5.00133 42.2741 5.35394 41.6114 5.98713C40.9487 6.62033 40.5493 7.48633 40.4947 8.40825C40.4401 9.33017 40.7345 10.2385 41.3177 10.9476C41.901 11.6567 42.7291 12.1131 43.6328 12.2237C42.0525 12.3209 40.5482 12.9454 39.354 14.0001C38.1598 15.0548 37.3428 16.4804 37.0302 18.0551C36.7178 16.4803 35.9009 15.0544 34.7067 13.9997C33.5124 12.945 32.0079 12.3205 30.4275 12.2237C31.3315 12.1132 32.1598 11.6567 32.7432 10.9475C33.3266 10.2383 33.6212 9.32985 33.5666 8.40773C33.5121 7.4856 33.1126 6.6194 32.4498 5.98605C31.787 5.3527 30.9108 5 30.0003 5C29.0898 5 28.2137 5.3527 27.5508 5.98605C26.888 6.6194 26.4885 7.4856 26.434 8.40773C26.3795 9.32985 26.674 10.2383 27.2574 10.9475C27.8409 11.6567 28.6692 12.1132 29.5731 12.2237C27.9928 12.3207 26.4883 12.9451 25.2941 13.9996C24.0998 15.0542 23.2826 16.4798 22.9698 18.0545C22.6569 16.4799 21.8399 15.0545 20.6457 14C19.4516 12.9454 17.9474 12.3209 16.3672 12.2237C17.2711 12.1131 18.0993 11.6566 18.6827 10.9474C19.2661 10.2381 19.5605 9.3297 19.506 8.40761C19.4514 7.48551 19.0519 6.61935 18.3891 5.98603C17.7263 5.35272 16.8501 5.00004 15.9397 5.00004C15.0292 5.00004 14.1531 5.35272 13.4902 5.98603C12.8274 6.61935 12.4279 7.48551 12.3734 8.40761C12.3188 9.3297 12.6133 10.2381 13.1966 10.9474C13.78 11.6566 14.6082 12.1131 15.5121 12.2237C13.9243 12.3209 12.4132 12.9504 11.2163 14.0135C10.0194 15.0766 9.2044 16.5129 8.89936 18.0969C8.84756 18.3693 8.85574 18.6499 8.92331 18.9188C8.99087 19.1876 9.11616 19.4379 9.2902 19.6519C9.46424 19.8659 9.68274 20.0382 9.93007 20.1565C10.1774 20.2748 10.4468 20.3362 10.7202 20.3363ZM41.9355 8.62517C41.9355 8.19862 42.0601 7.78166 42.2937 7.42701C42.5273 7.07235 42.8593 6.79595 43.2477 6.63274C43.6361 6.46954 44.0635 6.42687 44.4759 6.51013C44.8882 6.5934 45.2669 6.79885 45.5642 7.10051C45.8614 7.40217 46.0638 7.78648 46.1457 8.20485C46.2277 8.62321 46.1855 9.05684 46.0245 9.45088C45.8635 9.84492 45.591 10.1817 45.2414 10.4186C44.8918 10.6554 44.4808 10.7818 44.0603 10.7817C43.4969 10.7808 42.9569 10.5533 42.5585 10.1491C42.1602 9.74482 41.9361 9.19679 41.9355 8.62517ZM44.0603 13.6785C45.3884 13.6793 46.6749 14.1481 47.7 15.0048C48.725 15.8615 49.4249 17.0528 49.68 18.3751C49.6914 18.4352 49.6896 18.497 49.6747 18.5563C49.6598 18.6155 49.6321 18.6706 49.5938 18.7178C49.5554 18.7649 49.5073 18.8029 49.4528 18.829C49.3983 18.8551 49.3388 18.8686 49.2785 18.8686H38.8415C38.7813 18.8685 38.7219 18.8549 38.6674 18.8288C38.613 18.8027 38.5649 18.7647 38.5265 18.7176C38.4882 18.6704 38.4606 18.6153 38.4456 18.5561C38.4307 18.497 38.4287 18.4352 38.44 18.3751C38.6952 17.0527 39.3952 15.8613 40.4203 15.0046C41.4455 14.1479 42.7322 13.6791 44.0603 13.6785ZM27.8751 8.62517C27.8752 8.19881 28 7.78205 28.2335 7.4276C28.4671 7.07316 28.799 6.79693 29.1873 6.63386C29.5756 6.47078 30.0028 6.42818 30.4149 6.51144C30.8271 6.5947 31.2056 6.80007 31.5027 7.1016C31.7999 7.40313 32.0022 7.78728 32.0841 8.20546C32.166 8.62364 32.1239 9.05708 31.9631 9.45098C31.8022 9.84488 31.5299 10.1815 31.1805 10.4184C30.831 10.6553 30.4202 10.7817 30 10.7817C29.4365 10.781 28.8964 10.5536 28.498 10.1493C28.0996 9.74497 27.8756 9.19685 27.8751 8.62517ZM30 13.6785C31.328 13.6792 32.6145 14.148 33.6395 15.0047C34.6644 15.8614 35.3642 17.0528 35.6191 18.3751C35.6327 18.4355 35.6319 18.4983 35.6166 18.5583C35.6012 18.6182 35.5719 18.6735 35.531 18.7196C35.4946 18.7681 35.4471 18.8071 35.3926 18.833C35.3381 18.859 35.2783 18.8712 35.2182 18.8686H24.7812C24.721 18.8685 24.6615 18.8549 24.6071 18.8288C24.5526 18.8027 24.5045 18.7647 24.4662 18.7176C24.4279 18.6704 24.4002 18.6153 24.3853 18.5561C24.3703 18.497 24.3684 18.4352 24.3797 18.3751C24.6348 17.0527 25.3348 15.8613 26.36 15.0046C27.3852 14.1479 28.6719 13.6791 30 13.6785ZM13.8135 8.62517C13.8135 8.19868 13.9382 7.78176 14.1717 7.42714C14.4052 7.07252 14.7371 6.79611 15.1255 6.63287C15.5138 6.46963 15.9412 6.42688 16.3535 6.51004C16.7658 6.5932 17.1445 6.79852 17.4418 7.10005C17.7391 7.40158 17.9415 7.78578 18.0236 8.20406C18.1057 8.62234 18.0637 9.05593 17.9029 9.44999C17.7422 9.84405 17.4698 10.1809 17.1204 10.4179C16.7709 10.655 16.36 10.7816 15.9397 10.7817C15.376 10.7812 14.8356 10.5538 14.437 10.1495C14.0384 9.74524 13.8142 9.19702 13.8135 8.62517ZM15.9397 13.6785C17.2677 13.6793 18.5542 14.1481 19.5793 15.0048C20.6043 15.8615 21.3042 17.0528 21.5594 18.3751C21.5706 18.4352 21.5687 18.497 21.5538 18.5561C21.5388 18.6153 21.5112 18.6704 21.4728 18.7176C21.4345 18.7647 21.3864 18.8027 21.3319 18.8288C21.2775 18.8549 21.218 18.8685 21.1578 18.8686H10.7202C10.66 18.8685 10.6006 18.8549 10.5461 18.8288C10.4917 18.8027 10.4436 18.7647 10.4052 18.7176C10.3669 18.6704 10.3393 18.6153 10.3243 18.5561C10.3093 18.497 10.3074 18.4352 10.3187 18.3751C10.5739 17.0526 11.274 15.8611 12.2993 15.0044C13.3246 14.1477 14.6114 13.679 15.9397 13.6785Z" fill="black" fill-opacity="0.2"/>
<defs>
<linearGradient id="paint0_linear_7231_33622" x1="30" y1="5" x2="30" y2="55" gradientUnits="userSpaceOnUse">
<stop stop-color="#FF0F0F"/>
<stop offset="1" stop-color="#FF4849"/>
</linearGradient>
</defs>
</svg>
