<svg width="50" height="50" viewBox="0 0 50 50" fill="none" xmlns="http://www.w3.org/2000/svg">
<path d="M37.7992 33.8125H28.9343C28.1996 33.8125 27.495 34.1044 26.9755 34.6239C26.4559 35.1434 26.1641 35.848 26.1641 36.5828V38.799C26.1641 39.5337 26.4559 40.2383 26.9755 40.7579C27.495 41.2774 28.1996 41.5693 28.9343 41.5693H37.7992C38.5339 41.5693 39.2386 41.2774 39.7581 40.7579C40.2776 40.2383 40.5695 39.5337 40.5695 38.799V36.5828C40.5695 35.848 40.2776 35.1434 39.7581 34.6239C39.2386 34.1044 38.5339 33.8125 37.7992 33.8125ZM39.4614 38.799C39.4614 39.2398 39.2862 39.6626 38.9745 39.9743C38.6628 40.286 38.24 40.4611 37.7992 40.4611H28.9343C28.4935 40.4611 28.0707 40.286 27.759 39.9743C27.4473 39.6626 27.2722 39.2398 27.2722 38.799V36.5828C27.2722 36.1419 27.4473 35.7192 27.759 35.4074C28.0707 35.0957 28.4935 34.9206 28.9343 34.9206H37.7992C38.24 34.9206 38.6628 35.0957 38.9745 35.4074C39.2862 35.7192 39.4614 36.1419 39.4614 36.5828V38.799Z" fill="black"/>
<path d="M20.0687 20.5156H11.2039C10.4691 20.5156 9.76451 20.8075 9.24499 21.327C8.72546 21.8465 8.43359 22.5512 8.43359 23.2859V32.1508C8.43359 32.8855 8.72546 33.5901 9.24499 34.1096C9.76451 34.6292 10.4691 34.921 11.2039 34.921H20.0687C20.8035 34.921 21.5081 34.6292 22.0276 34.1096C22.5471 33.5901 22.839 32.8855 22.839 32.1508V23.2859C22.839 22.5512 22.5471 21.8465 22.0276 21.327C21.5081 20.8075 20.8035 20.5156 20.0687 20.5156ZM21.7309 32.1508C21.7309 32.5916 21.5558 33.0144 21.2441 33.3261C20.9323 33.6378 20.5096 33.8129 20.0687 33.8129H11.2039C10.763 33.8129 10.3403 33.6378 10.0285 33.3261C9.71682 33.0144 9.5417 32.5916 9.5417 32.1508V23.2859C9.5417 22.8451 9.71682 22.4223 10.0285 22.1106C10.3403 21.7989 10.763 21.6237 11.2039 21.6237H20.0687C20.5096 21.6237 20.9323 21.7989 21.2441 22.1106C21.5558 22.4223 21.7309 22.8451 21.7309 23.2859V32.1508Z" fill="black"/>
<path d="M13.4201 38.2422H8.98765C8.8407 38.2422 8.69978 38.3006 8.59587 38.4045C8.49197 38.5084 8.43359 38.6493 8.43359 38.7962C8.43359 38.9432 8.49197 39.0841 8.59587 39.188C8.69978 39.2919 8.8407 39.3503 8.98765 39.3503H13.4201C13.567 39.3503 13.708 39.2919 13.8119 39.188C13.9158 39.0841 13.9741 38.9432 13.9741 38.7962C13.9741 38.6493 13.9158 38.5084 13.8119 38.4045C13.708 38.3006 13.567 38.2422 13.4201 38.2422Z" fill="black"/>
<path d="M22.2834 38.2422H17.8509C17.704 38.2422 17.5631 38.3006 17.4592 38.4045C17.3552 38.5084 17.2969 38.6493 17.2969 38.7962C17.2969 38.9432 17.3552 39.0841 17.4592 39.188C17.5631 39.2919 17.704 39.3503 17.8509 39.3503H22.2834C22.4303 39.3503 22.5712 39.2919 22.6751 39.188C22.779 39.0841 22.8374 38.9432 22.8374 38.7962C22.8374 38.6493 22.779 38.5084 22.6751 38.4045C22.5712 38.3006 22.4303 38.2422 22.2834 38.2422Z" fill="black"/>
<path d="M40.0154 20.5156H26.7181C26.5712 20.5156 26.4302 20.574 26.3263 20.6779C26.2224 20.7818 26.1641 20.9227 26.1641 21.0697C26.1641 21.2166 26.2224 21.3575 26.3263 21.4615C26.4302 21.5654 26.5712 21.6237 26.7181 21.6237H40.0154C40.1624 21.6237 40.3033 21.5654 40.4072 21.4615C40.5111 21.3575 40.5695 21.2166 40.5695 21.0697C40.5695 20.9227 40.5111 20.7818 40.4072 20.6779C40.3033 20.574 40.1624 20.5156 40.0154 20.5156Z" fill="black"/>
<path d="M26.7181 26.0534H31.1505C31.2975 26.0534 31.4384 25.995 31.5423 25.8911C31.6462 25.7872 31.7046 25.6463 31.7046 25.4994C31.7046 25.3524 31.6462 25.2115 31.5423 25.1076C31.4384 25.0037 31.2975 24.9453 31.1505 24.9453H26.7181C26.5712 24.9453 26.4302 25.0037 26.3263 25.1076C26.2224 25.2115 26.1641 25.3524 26.1641 25.4994C26.1641 25.6463 26.2224 25.7872 26.3263 25.8911C26.4302 25.995 26.5712 26.0534 26.7181 26.0534Z" fill="black"/>
<path d="M26.7181 30.4831H35.583C35.7299 30.4831 35.8709 30.4247 35.9748 30.3208C36.0787 30.2169 36.137 30.076 36.137 29.9291C36.137 29.7821 36.0787 29.6412 35.9748 29.5373C35.8709 29.4334 35.7299 29.375 35.583 29.375H26.7181C26.5712 29.375 26.4302 29.4334 26.3263 29.5373C26.2224 29.6412 26.1641 29.7821 26.1641 29.9291C26.1641 30.076 26.2224 30.2169 26.3263 30.3208C26.4302 30.4247 26.5712 30.4831 26.7181 30.4831Z" fill="black"/>
<path d="M42.2297 5H6.77027C6.03555 5 5.33092 5.29187 4.81139 5.81139C4.29187 6.33092 4 7.03555 4 7.77027V43.2297C4 43.9645 4.29187 44.6691 4.81139 45.1886C5.33092 45.7081 6.03555 46 6.77027 46H42.2297C42.9645 46 43.6691 45.7081 44.1886 45.1886C44.7081 44.6691 45 43.9645 45 43.2297V7.77027C45 7.03555 44.7081 6.33092 44.1886 5.81139C43.6691 5.29187 42.9645 5 42.2297 5ZM43.8919 43.2297C43.8919 43.6706 43.7168 44.0933 43.4051 44.4051C43.0933 44.7168 42.6706 44.8919 42.2297 44.8919H6.77027C6.32944 44.8919 5.90666 44.7168 5.59494 44.4051C5.28323 44.0933 5.10811 43.6706 5.10811 43.2297V14.358C5.57623 14.7458 6.16245 14.9627 6.77027 14.973H42.2297C42.8376 14.9627 43.4238 14.7458 43.8919 14.358V43.2297ZM43.8919 12.2027C43.8919 12.6435 43.7168 13.0663 43.4051 13.378C43.0933 13.6897 42.6706 13.8649 42.2297 13.8649H6.77027C6.32944 13.8649 5.90666 13.6897 5.59494 13.378C5.28323 13.0663 5.10811 12.6435 5.10811 12.2027V7.77027C5.10811 7.32944 5.28323 6.90666 5.59494 6.59494C5.90666 6.28323 6.32944 6.10811 6.77027 6.10811H42.2297C42.6706 6.10811 43.0933 6.28323 43.4051 6.59494C43.7168 6.90666 43.8919 7.32944 43.8919 7.77027V12.2027Z" fill="black"/>
<path d="M8.98512 7.21875C8.43721 7.21875 7.9016 7.38122 7.44604 7.68562C6.99047 7.99003 6.63539 8.42268 6.42572 8.92888C6.21604 9.43508 6.16118 9.99209 6.26807 10.5295C6.37497 11.0669 6.63881 11.5605 7.02624 11.9479C7.41367 12.3353 7.90728 12.5992 8.44466 12.7061C8.98204 12.813 9.53905 12.7581 10.0453 12.5484C10.5515 12.3387 10.9841 11.9837 11.2885 11.5281C11.5929 11.0725 11.7554 10.5369 11.7554 9.98902C11.7554 9.2543 11.4635 8.54967 10.944 8.03014C10.4245 7.51062 9.71984 7.21875 8.98512 7.21875ZM8.98512 11.6512C8.65637 11.6512 8.33501 11.5537 8.06167 11.3711C7.78833 11.1884 7.57528 10.9288 7.44948 10.6251C7.32367 10.3214 7.29076 9.98718 7.35489 9.66475C7.41903 9.34232 7.57733 9.04615 7.80979 8.81369C8.04225 8.58124 8.33842 8.42293 8.66084 8.3588C8.98327 8.29466 9.31748 8.32758 9.6212 8.45338C9.92492 8.57919 10.1845 8.79223 10.3672 9.06557C10.5498 9.33891 10.6473 9.66028 10.6473 9.98902C10.6473 10.4299 10.4722 10.8526 10.1604 11.1643C9.84873 11.4761 9.42595 11.6512 8.98512 11.6512Z" fill="black"/>
<path d="M15.6336 7.21875C15.0856 7.21875 14.55 7.38122 14.0945 7.68562C13.6389 7.99003 13.2838 8.42268 13.0742 8.92888C12.8645 9.43508 12.8096 9.99209 12.9165 10.5295C13.0234 11.0669 13.2872 11.5605 13.6747 11.9479C14.0621 12.3353 14.5557 12.5992 15.0931 12.7061C15.6305 12.813 16.1875 12.7581 16.6937 12.5484C17.1999 12.3387 17.6325 11.9837 17.9369 11.5281C18.2414 11.0725 18.4038 10.5369 18.4038 9.98902C18.4038 9.2543 18.112 8.54967 17.5924 8.03014C17.0729 7.51062 16.3683 7.21875 15.6336 7.21875ZM15.6336 11.6512C15.3048 11.6512 14.9834 11.5537 14.7101 11.3711C14.4368 11.1884 14.2237 10.9288 14.0979 10.6251C13.9721 10.3214 13.9392 9.98718 14.0033 9.66475C14.0675 9.34232 14.2258 9.04615 14.4582 8.81369C14.6907 8.58124 14.9869 8.42293 15.3093 8.3588C15.6317 8.29466 15.9659 8.32758 16.2696 8.45338C16.5734 8.57919 16.8329 8.79223 17.0156 9.06557C17.1982 9.33891 17.2957 9.66028 17.2957 9.98902C17.2957 10.4299 17.1206 10.8526 16.8089 11.1643C16.4972 11.4761 16.0744 11.6512 15.6336 11.6512Z" fill="black"/>
<path d="M22.2859 7.21875C21.738 7.21875 21.2024 7.38122 20.7468 7.68562C20.2912 7.99003 19.9362 8.42268 19.7265 8.92888C19.5168 9.43508 19.462 9.99209 19.5689 10.5295C19.6757 11.0669 19.9396 11.5605 20.327 11.9479C20.7144 12.3353 21.2081 12.5992 21.7454 12.7061C22.2828 12.813 22.8398 12.7581 23.346 12.5484C23.8522 12.3387 24.2849 11.9837 24.5893 11.5281C24.8937 11.0725 25.0562 10.5369 25.0562 9.98902C25.0562 9.2543 24.7643 8.54967 24.2448 8.03014C23.7252 7.51062 23.0206 7.21875 22.2859 7.21875ZM22.2859 11.6512C21.9572 11.6512 21.6358 11.5537 21.3624 11.3711C21.0891 11.1884 20.8761 10.9288 20.7503 10.6251C20.6245 10.3214 20.5915 9.98718 20.6557 9.66475C20.7198 9.34232 20.8781 9.04615 21.1106 8.81369C21.343 8.58124 21.6392 8.42293 21.9616 8.3588C22.2841 8.29466 22.6183 8.32758 22.922 8.45338C23.2257 8.57919 23.4853 8.79223 23.6679 9.06557C23.8506 9.33891 23.9481 9.66028 23.9481 9.98902C23.9481 10.4299 23.7729 10.8526 23.4612 11.1643C23.1495 11.4761 22.7267 11.6512 22.2859 11.6512Z" fill="black"/>
</svg>
