<svg width="50" height="50" viewBox="0 0 50 50" fill="none" xmlns="http://www.w3.org/2000/svg">
<path fill-rule="evenodd" clip-rule="evenodd" d="M14.9037 30.935L9.32559 25.5851C9.25041 25.5135 9.19922 25.4216 9.17872 25.3214L6.25278 14.2918C6.17799 14.1244 6.06745 13.9743 5.92846 13.8514C5.78948 13.7285 5.62521 13.6355 5.44649 13.5788C5.29056 13.5472 5.12825 13.5666 4.9849 13.634C4.79359 13.7271 4.63042 13.8667 4.51131 14.0393C4.2814 14.4235 4.13369 14.8488 4.07704 15.2898C4.02039 15.7307 4.05596 16.1782 4.1816 16.6054L6.32522 26.6146C6.36245 26.7928 6.41646 26.9672 6.48658 27.1357C6.55857 27.3031 6.64672 27.4634 6.74985 27.6146L10.8797 33.7746C11.0998 34.1103 11.3916 34.3961 11.7355 34.6127L15.1445 36.8143C15.6439 37.1994 16.0215 37.7131 16.234 38.2967C16.4971 38.8779 16.6022 39.515 16.5392 40.1469L16.0287 42.9767H23.9013L24.9054 36.1348C24.9489 35.8508 24.9719 35.5643 24.9743 35.2773V35.27C24.9793 34.8774 24.9188 34.4867 24.795 34.1129C24.5232 33.3936 24.0492 32.7626 23.4267 32.2913L13.0253 23.7014C12.4674 23.2761 11.8136 22.9849 11.1175 22.8517C10.8909 22.8106 10.6567 22.8448 10.4526 22.9486C10.2816 23.0627 10.1625 23.2363 10.1199 23.4333C10.0125 23.941 10.0296 24.466 10.1698 24.9661L15.6405 30.2079L14.9037 30.935ZM21.1672 20.9457V20.6122C21.1709 19.4984 21.6286 18.4312 22.4403 17.6436C23.2521 16.856 24.352 16.4121 25.4999 16.4086C26.6478 16.4121 27.7477 16.856 28.5595 17.6436C29.3712 18.4312 29.8289 19.4984 29.8326 20.6122V20.9457H21.1672ZM30.3591 21.968H20.6401C20.571 21.968 20.5024 21.9548 20.4385 21.9291C20.3746 21.9034 20.3166 21.8657 20.2677 21.8182C20.2188 21.7707 20.18 21.7143 20.1535 21.6523C20.1271 21.5902 20.1135 21.5237 20.1136 21.4566V20.6122C20.1136 20.4736 20.1191 20.3362 20.1301 20.2002H14.3352C14.266 20.2003 14.1975 20.1871 14.1335 20.1614C14.0696 20.1358 14.0115 20.0982 13.9625 20.0507C13.9136 20.0033 13.8748 19.9469 13.8483 19.8849C13.8218 19.8229 13.8081 19.7564 13.8081 19.6893V18.8449C13.8117 17.7807 14.1484 16.7428 14.7736 15.8685C15.3988 14.9942 16.283 14.3248 17.3091 13.9491C17.2611 13.9084 17.2147 13.8662 17.1697 13.8226C16.9031 13.565 16.6915 13.2588 16.5472 12.9217C16.4028 12.5845 16.3285 12.2231 16.3284 11.858V10.7814C16.3384 10.0501 16.6447 9.35212 17.1812 8.83843C17.7176 8.32474 18.441 8.03672 19.1947 8.03672C19.9484 8.03672 20.6717 8.32474 21.2082 8.83843C21.7446 9.35212 22.051 10.0501 22.0609 10.7814V11.8594C22.0609 12.2245 21.9865 12.586 21.8422 12.9231C21.6978 13.2603 21.4862 13.5664 21.2196 13.824C21.1742 13.8682 21.1277 13.9103 21.0798 13.951C21.335 14.0443 21.5825 14.1563 21.8201 14.286C22.4895 14.6522 23.0715 15.1516 23.5281 15.7513C23.5571 15.7397 23.5866 15.729 23.6155 15.7184C23.5681 15.6777 23.5216 15.6355 23.4767 15.5919C23.2099 15.3343 22.9983 15.0282 22.8538 14.691C22.7093 14.3539 22.635 13.9924 22.6349 13.6272V12.5492C22.6349 11.8115 22.9369 11.1041 23.4745 10.5825C24.012 10.0609 24.7411 9.76781 25.5014 9.76781C26.2616 9.76781 26.9907 10.0609 27.5283 10.5825C28.0659 11.1041 28.3679 11.8115 28.3679 12.5492V13.6272C28.3678 13.9924 28.2934 14.3539 28.149 14.691C28.0045 15.0282 27.7928 15.3343 27.5261 15.5919C27.4811 15.6355 27.4352 15.6777 27.3872 15.7184C27.4162 15.729 27.4457 15.7397 27.4746 15.7513C27.9312 15.1516 28.5133 14.6522 29.1826 14.286C29.4203 14.1563 29.6678 14.0443 29.923 13.951C29.873 13.9103 29.8286 13.8682 29.7836 13.824C29.5169 13.5665 29.3052 13.2604 29.1607 12.9232C29.0163 12.5861 28.9419 12.2246 28.9419 11.8594V10.7814C28.9419 10.0437 29.2439 9.33626 29.7814 8.81465C30.319 8.29304 31.0481 8 31.8083 8C32.5686 8 33.2977 8.29304 33.8352 8.81465C34.3728 9.33626 34.6748 10.0437 34.6748 10.7814V11.8594C34.6747 12.2245 34.6003 12.586 34.4558 12.9232C34.3114 13.2603 34.0997 13.5664 33.8331 13.824C33.7881 13.8677 33.7416 13.9098 33.6937 13.9506C34.7199 14.3261 35.6043 14.9953 36.2295 15.8697C36.8547 16.744 37.1913 17.7821 37.1946 18.8463V19.6907C37.1946 19.7579 37.181 19.8244 37.1545 19.8864C37.128 19.9484 37.0892 20.0047 37.0402 20.0522C36.9913 20.0996 36.9332 20.1372 36.8692 20.1629C36.8053 20.1885 36.7368 20.2017 36.6676 20.2016H30.8727C30.8837 20.3379 30.8896 20.475 30.8896 20.6137V21.4581C30.8896 21.5937 30.8341 21.7238 30.7353 21.8197C30.6364 21.9156 30.5024 21.9695 30.3626 21.9695L30.3591 21.968ZM20.3209 19.1779H14.8592V18.8449C14.8583 18.1118 15.0551 17.3912 15.4302 16.7549C15.8053 16.1185 16.3456 15.5885 16.9973 15.2176C17.6489 14.8466 18.3893 14.6477 19.1448 14.6406C19.9003 14.6335 20.6446 14.8184 21.3036 15.1769C21.7938 15.4444 22.2263 15.801 22.5774 16.2273C21.4844 16.916 20.6837 17.9633 20.3209 19.1779ZM28.4218 16.2273C29.5149 16.916 30.316 17.9633 30.6788 19.1779H36.1405V18.8449C36.1415 18.1118 35.9446 17.3912 35.5695 16.7549C35.1944 16.1185 34.6542 15.5885 34.0025 15.2176C33.3508 14.8466 32.6104 14.6477 31.8549 14.6406C31.0994 14.6335 30.3552 14.8184 29.6962 15.1769C29.206 15.4444 28.7729 15.801 28.4218 16.2273ZM25.4999 10.7901C25.9801 10.7918 26.4402 10.9777 26.7797 11.3072C27.1193 11.6367 27.3107 12.0832 27.3123 12.5492V13.6272C27.3123 14.0937 27.1213 14.541 26.7814 14.8708C26.4416 15.2006 25.9806 15.3858 25.4999 15.3858C25.0192 15.3858 24.5582 15.2006 24.2183 14.8708C23.8784 14.541 23.6875 14.0937 23.6875 13.6272V12.5492C23.6891 12.0832 23.8805 11.6367 24.22 11.3072C24.5596 10.9777 25.0196 10.7918 25.4999 10.7901ZM31.8068 9.02278C31.3269 9.02483 30.8673 9.21081 30.5281 9.54021C30.1889 9.86961 29.9976 10.3157 29.9959 10.7814V11.8594C30.0038 12.3208 30.1983 12.7608 30.5374 13.0844C30.8764 13.408 31.333 13.5893 31.8086 13.5893C32.2842 13.5893 32.7407 13.408 33.0798 13.0844C33.4189 12.7608 33.6134 12.3208 33.6212 11.8594V10.7814C33.6195 10.3155 33.428 9.86914 33.0885 9.5397C32.749 9.21026 32.289 9.02444 31.8088 9.02278H31.8068ZM19.1929 9.02278C19.6728 9.02483 20.1324 9.21081 20.4716 9.54021C20.8108 9.86961 21.0021 10.3157 21.0038 10.7814V11.8594C20.9959 12.3208 20.8015 12.7608 20.4624 13.0844C20.1233 13.408 19.6668 13.5893 19.1912 13.5893C18.7156 13.5893 18.259 13.408 17.9199 13.0844C17.5809 12.7608 17.3864 12.3208 17.3785 11.8594V10.7814C17.3801 10.3154 17.5716 9.86903 17.9111 9.53956C18.2507 9.21009 18.7107 9.02432 19.1909 9.02278H19.1929ZM35.3592 30.2079L40.8289 24.9622C40.9691 24.4621 40.9862 23.9371 40.8789 23.4295C40.8362 23.2324 40.7171 23.0589 40.5462 22.9447C40.342 22.8409 40.1078 22.8067 39.8812 22.8478C39.1852 22.9811 38.5314 23.2723 37.9734 23.6975L27.5731 32.2913C26.9507 32.7627 26.4767 33.3937 26.2048 34.1129C26.0809 34.4872 26.0205 34.8784 26.0259 35.2714V35.2763C26.0278 35.5637 26.0509 35.8506 26.0949 36.1348L27.0985 42.9767H34.9711L34.4605 40.1469C34.3976 39.515 34.5027 38.8779 34.7657 38.2967C34.9783 37.7131 35.3559 37.1994 35.8553 36.8143L39.2643 34.6127C39.4348 34.5046 39.5933 34.3796 39.7374 34.2399C39.8802 34.0986 40.0077 33.9435 40.118 33.777L44.2479 27.6171C44.4563 27.3143 44.6007 26.9744 44.6725 26.6171L46.8162 16.6103C46.9418 16.183 46.9775 15.7356 46.9209 15.2947C46.8644 14.8537 46.7168 14.4284 46.4869 14.0441C46.3675 13.8717 46.2042 13.7321 46.0129 13.6389C45.8695 13.5715 45.7072 13.552 45.5513 13.5836C45.3726 13.6404 45.2083 13.7333 45.0693 13.8562C44.9303 13.9791 44.8198 14.1292 44.745 14.2967L41.821 25.3209C41.801 25.4213 41.7497 25.5133 41.6742 25.5846L36.0961 30.935L35.3592 30.2079ZM41.5073 22.4207L43.7464 13.9782C43.757 13.9392 43.7721 13.9015 43.7913 13.8657C43.9337 13.5539 44.1459 13.2768 44.4125 13.0545C44.6791 12.8322 44.9933 12.6704 45.3325 12.5807C45.7114 12.5012 46.1068 12.5457 46.457 12.7072C46.8147 12.876 47.121 13.1323 47.3457 13.4508C47.6607 13.9491 47.8678 14.5045 47.9542 15.0831C48.0406 15.6616 48.0045 16.2512 47.8483 16.8158L45.7036 26.8236C45.6038 27.3043 45.4094 27.7618 45.1311 28.1711L41.0008 34.3296C40.7027 34.7828 40.3086 35.1693 39.8448 35.4634L36.4358 37.665C36.1152 37.9358 35.8753 38.285 35.7409 38.6762C35.5505 39.0815 35.4669 39.5264 35.4976 39.9709L36.1166 43.4014C36.1404 43.5348 36.1087 43.672 36.0284 43.7829C35.9482 43.8937 35.8259 43.9692 35.6884 43.9927C35.6585 43.9975 35.6283 43.9999 35.598 44H26.6439C26.5115 44.0001 26.384 43.9518 26.2867 43.8647C26.1895 43.7777 26.1295 43.6583 26.1188 43.5303L25.4999 39.318L24.8809 43.5293C24.8703 43.6573 24.8103 43.7767 24.713 43.8637C24.6157 43.9508 24.4882 43.9991 24.3559 43.999H15.4022C15.3718 43.999 15.3414 43.9966 15.3113 43.9918C15.1738 43.9682 15.0516 43.8928 14.9713 43.7819C14.8911 43.6711 14.8594 43.5339 14.8832 43.4004L15.5022 39.9714C15.5329 39.5268 15.4493 39.0817 15.2589 38.6762C15.1246 38.285 14.8849 37.9359 14.5645 37.665L11.1555 35.4634C10.6916 35.1693 10.2976 34.7828 9.99949 34.3296L5.86712 28.1701C5.58926 27.7611 5.39538 27.3039 5.29613 26.8236L3.15251 16.8153C2.9959 16.2509 2.95942 15.6615 3.04531 15.0829C3.1312 14.5044 3.33765 13.9489 3.65207 13.4503C3.877 13.132 4.18322 12.8758 4.54079 12.7067C4.89157 12.5449 5.28777 12.5006 5.6673 12.5807C6.00633 12.6707 6.32043 12.8328 6.58677 13.0553C6.8531 13.2779 7.06496 13.5552 7.20695 13.8672C7.22642 13.9028 7.24151 13.9406 7.25191 13.9796L9.49094 22.4207C9.60809 22.2844 9.74749 22.1677 9.90358 22.0751C10.3087 21.8488 10.7819 21.7647 11.2434 21.8371C12.117 21.9912 12.9395 22.3472 13.6413 22.8749C13.6533 22.8837 13.6653 22.8924 13.6768 22.9021L24.1061 31.5162C24.6723 31.9647 25.1453 32.5137 25.4999 33.1338C25.8545 32.5136 26.3277 31.9646 26.8942 31.5162L37.324 22.9031C37.3355 22.8934 37.3475 22.8846 37.36 22.8759C38.0618 22.3482 38.8843 21.9922 39.7579 21.8381C40.2194 21.7657 40.6925 21.8497 41.0977 22.0761C41.2526 22.1686 41.391 22.285 41.5073 22.4207Z" fill="black"/>
</svg>
