<svg width="60" height="44" viewBox="0 0 60 44" fill="none" xmlns="http://www.w3.org/2000/svg">
<path d="M35.4545 24.5455C33.1818 24.5455 31.25 23.75 29.6591 22.1591C28.0682 20.5682 27.2727 18.6364 27.2727 16.3636C27.2727 14.0909 28.0682 12.1591 29.6591 10.5682C31.25 8.97727 33.1818 8.18182 35.4545 8.18182C37.7273 8.18182 39.6591 8.97727 41.25 10.5682C42.8409 12.1591 43.6364 14.0909 43.6364 16.3636C43.6364 18.6364 42.8409 20.5682 41.25 22.1591C39.6591 23.75 37.7273 24.5455 35.4545 24.5455ZM16.3636 32.7273C14.8636 32.7273 13.58 32.1936 12.5127 31.1264C11.4455 30.0591 10.9109 28.7745 10.9091 27.2727V5.45455C10.9091 3.95455 11.4436 2.67091 12.5127 1.60364C13.5818 0.536363 14.8655 0.00181818 16.3636 0H54.5455C56.0455 0 57.33 0.534545 58.3991 1.60364C59.4682 2.67273 60.0018 3.95636 60 5.45455V27.2727C60 28.7727 59.4664 30.0573 58.3991 31.1264C57.3318 32.1955 56.0473 32.7291 54.5455 32.7273H16.3636ZM21.8182 27.2727H49.0909C49.0909 25.7727 49.6254 24.4891 50.6945 23.4218C51.7636 22.3545 53.0473 21.82 54.5455 21.8182V10.9091C53.0455 10.9091 51.7618 10.3755 50.6945 9.30818C49.6273 8.24091 49.0927 6.95636 49.0909 5.45455H21.8182C21.8182 6.95454 21.2845 8.23909 20.2173 9.30818C19.15 10.3773 17.8655 10.9109 16.3636 10.9091V21.8182C17.8636 21.8182 19.1482 22.3527 20.2173 23.4218C21.2864 24.4909 21.82 25.7745 21.8182 27.2727ZM51.8182 43.6364H5.45455C3.95455 43.6364 2.67091 43.1027 1.60364 42.0355C0.536364 40.9682 0.00181818 39.6836 0 38.1818V8.18182H5.45455V38.1818H51.8182V43.6364Z" fill="url(#paint0_linear_1451_1065)"/>
<defs>
<linearGradient id="paint0_linear_1451_1065" x1="23.3108" y1="62.3465" x2="68.1208" y2="6.51805" gradientUnits="userSpaceOnUse">
<stop stop-color="#FF1717"/>
<stop offset="1" stop-color="#FF6461"/>
</linearGradient>
</defs>
</svg>
