<svg width="54" height="60" viewBox="0 0 54 60" fill="none" xmlns="http://www.w3.org/2000/svg">
<path d="M42.002 42.002H48.0023V6.00029H18.0009V12.0006H42.002V42.002ZM42.002 48.0023V56.9998C42.002 58.6589 40.652 59.9999 38.9809 59.9999H3.02115C2.6254 60.0027 2.23301 59.9271 1.86659 59.7776C1.50017 59.6281 1.16695 59.4075 0.886134 59.1287C0.605317 58.8498 0.382447 58.5181 0.230364 58.1528C0.0782813 57.7874 -9.69529e-06 57.3955 9.0053e-10 56.9998L0.00599986 15.0037C0.00599986 13.3447 1.35607 12.0006 3.02715 12.0006H11.9976V3.00015C11.9976 2.20446 12.3137 1.44136 12.8763 0.878722C13.4389 0.316086 14.202 0 14.9977 0H50.9995C51.7952 0 52.5583 0.316086 53.1209 0.878722C53.6835 1.44136 53.9996 2.20446 53.9996 3.00015V45.0022C53.9996 45.7979 53.6835 46.561 53.1209 47.1236C52.5583 47.6862 51.7952 48.0023 50.9995 48.0023H42.002ZM12.0006 42.002V48.0023H18.0009V51.0025H24.0012V48.0023H25.5012C27.4905 48.0023 29.3982 47.2121 30.8048 45.8055C32.2114 44.3989 33.0016 42.4912 33.0016 40.502C33.0016 38.5128 32.2114 36.605 30.8048 35.1984C29.3982 33.7918 27.4905 33.0016 25.5012 33.0016H16.5008C16.103 33.0016 15.7214 32.8436 15.4401 32.5622C15.1588 32.2809 15.0007 31.8994 15.0007 31.5015C15.0007 31.1037 15.1588 30.7221 15.4401 30.4408C15.7214 30.1595 16.103 30.0015 16.5008 30.0015H30.0015V24.0012H24.0012V21.001H18.0009V24.0012H16.5008C14.5116 24.0012 12.6038 24.7914 11.1972 26.198C9.79065 27.6046 9.00044 29.5123 9.00044 31.5015C9.00044 33.4908 9.79065 35.3985 11.1972 36.8051C12.6038 38.2117 14.5116 39.0019 16.5008 39.0019H25.5012C25.8991 39.0019 26.2806 39.1599 26.562 39.4413C26.8433 39.7226 27.0013 40.1041 27.0013 40.502C27.0013 40.8998 26.8433 41.2814 26.562 41.5627C26.2806 41.844 25.8991 42.002 25.5012 42.002H12.0006Z" fill="url(#paint0_linear_1451_1055)"/>
<defs>
<linearGradient id="paint0_linear_1451_1055" x1="20.9796" y1="85.7264" x2="82.798" y2="35.3143" gradientUnits="userSpaceOnUse">
<stop stop-color="#FF1717"/>
<stop offset="1" stop-color="#FF6461"/>
</linearGradient>
</defs>
</svg>
