<svg width="50" height="60" viewBox="0 0 50 60" fill="none" xmlns="http://www.w3.org/2000/svg">
<path d="M22.5284 0.474499L3.27335 9.02923C1.29284 9.90946 0 11.89 0 14.063V26.9914C0 42.1727 10.4452 56.3747 24.5191 59.941C24.6746 59.9804 24.8383 59.9804 24.9938 59.941C39.0677 56.3747 49.5129 42.1727 49.5129 26.9914V14.063C49.5129 11.89 48.2201 9.90946 46.2395 9.02923L26.9845 0.474499C25.5817 -0.158166 23.9312 -0.158166 22.5284 0.474499ZM24.7565 28.7146C24.7565 29.2669 25.2042 29.7146 25.7565 29.7146H42.8746C43.4775 29.7146 43.9445 30.2446 43.8461 30.8395C42.1268 41.2351 35.2857 50.4111 26.0397 53.8681C25.409 54.1039 24.7565 53.6235 24.7565 52.9502V30.7421C24.7565 30.1898 24.3087 29.7421 23.7565 29.7421H6.50143C5.94915 29.7421 5.50143 29.2944 5.50143 28.7421V14.713C5.50143 14.3178 5.73422 13.9596 6.09542 13.7991L23.3504 6.13298C24.0117 5.83919 24.7565 6.32325 24.7565 7.04685V28.7146Z" fill="url(#paint0_linear_1451_1062)"/>
<defs>
<linearGradient id="paint0_linear_1451_1062" x1="19.2365" y1="85.7264" x2="79.7692" y2="40.4642" gradientUnits="userSpaceOnUse">
<stop stop-color="#FF1717"/>
<stop offset="1" stop-color="#FF6461"/>
</linearGradient>
</defs>
</svg>
