<svg width="55" height="56" viewBox="0 0 55 56" fill="none" xmlns="http://www.w3.org/2000/svg">
<path d="M5.29943e-06 22.3624C-0.00347594 17.3055 1.70828 12.3969 4.85556 8.4388C8.00283 4.48068 12.3995 1.70703 17.3272 0.571112C22.2548 -0.56481 27.4221 0.00415476 31.9845 2.18503C36.5469 4.36591 40.2348 8.02975 42.4455 12.5778C45.6454 14.1378 48.4263 16.4396 50.5567 19.2917C52.6871 22.1438 54.1053 25.4636 54.6932 28.9746C55.2811 32.4856 55.0216 36.0863 53.9365 39.4768C52.8514 42.8673 50.972 45.9495 48.4547 48.4667C45.9375 50.9839 42.8553 52.8634 39.4648 53.9485C36.0743 55.0336 32.4737 55.293 28.9626 54.7051C25.4516 54.1172 22.1318 52.6991 19.2797 50.5687C16.4277 48.4383 14.1258 45.6573 12.5659 42.4574C8.7978 40.6231 5.62146 37.7662 3.39951 34.213C1.17756 30.6597 -0.000438699 26.5532 5.29943e-06 22.3624ZM17.685 44.2211C19.3263 46.3497 21.4025 48.1038 23.7752 49.3667C26.1479 50.6296 28.7626 51.3721 31.4449 51.5447C34.1272 51.7173 36.8155 51.3161 39.3305 50.3679C41.8455 49.4196 44.1294 47.946 46.03 46.0454C47.9306 44.1448 49.4042 41.8609 50.3525 39.3459C51.3007 36.8309 51.7019 34.1426 51.5293 31.4603C51.3567 28.778 50.6142 26.1633 49.3513 23.7906C48.0885 21.4179 46.3343 19.3417 44.2057 17.7004C44.9842 21.3462 44.8382 25.1288 43.781 28.7038C42.7239 32.2787 40.7891 35.5324 38.1531 38.1685C35.517 40.8045 32.2633 42.7393 28.6884 43.7964C25.1134 44.8536 21.3308 44.9996 17.685 44.2211ZM15.165 39.8583C16.4164 40.3763 17.7274 40.7545 19.0981 40.9928L14.0305 35.9252C14.2688 37.2936 14.647 38.6046 15.165 39.8583ZM24.1519 41.1854C25.5224 41.0557 26.8747 40.7767 28.1847 40.3534L15.0378 27.2099C14.5756 28.4554 14.2348 29.7426 14.0201 31.0536L24.1519 41.1854ZM31.5677 38.875C32.5899 38.302 33.5502 37.6419 34.4487 36.8947L18.627 21.0765C17.8755 21.9645 17.2004 22.9145 16.6089 23.9163L31.5677 38.875ZM36.8794 34.4606C37.6242 33.5668 38.2843 32.6076 38.8596 31.5831L23.9044 16.6209C22.9014 17.2122 21.9502 17.8873 21.0611 18.639L36.8759 34.4606H36.8794ZM40.338 28.1966C40.7574 26.9085 41.0347 25.5654 41.17 24.1673L31.0382 14.0355C29.7088 14.2556 28.4276 14.5948 27.1945 15.0532L40.338 28.2001V28.1966ZM40.9774 19.1135C40.7427 17.7652 40.3623 16.4465 39.8429 15.1804C38.5768 14.661 37.258 14.2806 35.9098 14.0459L40.9774 19.1135Z" fill="url(#paint0_linear_1451_1066)"/>
<defs>
<linearGradient id="paint0_linear_1451_1066" x1="21.3683" y1="78.5997" x2="78.9492" y2="26.4367" gradientUnits="userSpaceOnUse">
<stop stop-color="#FF1717"/>
<stop offset="1" stop-color="#FF6461"/>
</linearGradient>
</defs>
</svg>
