<svg width="50" height="50" viewBox="0 0 50 50" fill="none" xmlns="http://www.w3.org/2000/svg">
<rect width="50" height="50" rx="8" fill="url(#paint0_linear_1407_1376)"/>
<path d="M39.5517 21.6842C39.2359 21.3684 38.8254 21.2105 38.4149 21.2421H36.678C36.4886 20.6105 36.2043 19.9789 35.8885 19.3789L37.1201 18.1474C37.7517 17.5158 37.7517 16.5053 37.1201 15.8737L34.1201 12.8737C33.4886 12.2421 32.478 12.2421 31.8464 12.8737L30.6149 14.1053C30.0149 13.7895 29.3833 13.5368 28.7517 13.3474V11.6105C28.7201 10.7263 28.0254 10.0316 27.1412 10H22.878C21.9938 10.0316 21.2991 10.7263 21.2675 11.6421V13.3789C20.6359 13.5684 20.0359 13.8526 19.4043 14.1684L18.1728 12.9368C17.857 12.6211 17.4464 12.4947 17.0359 12.4632C16.5938 12.4632 16.2149 12.6211 15.8991 12.9368L12.8991 15.9368C12.2675 16.5684 12.2675 17.5789 12.8991 18.2105L14.1307 19.4421C13.8149 20.0421 13.5622 20.6737 13.3412 21.3053H11.6359C11.2254 21.2421 10.8149 21.4316 10.4991 21.7158C10.1833 22.0316 10.0254 22.4421 10.0254 22.8842V27.1474C10.057 28.0316 10.7517 28.7263 11.6359 28.7579H13.3728C13.5622 29.3895 13.8464 30.0211 14.1622 30.6211L12.9307 31.8526C12.2991 32.4842 12.2991 33.4947 12.9307 34.1263L15.9307 37.1263C16.5307 37.7263 17.6043 37.7263 18.2043 37.1263L19.4359 35.8947C20.0675 36.2105 20.6991 36.4632 21.2991 36.6842V38.3895C21.2991 39.2737 22.0254 40 22.9096 40H27.1412C28.0254 40 28.7517 39.2737 28.7517 38.3895V36.6526C29.0043 36.5895 29.2254 36.4947 29.478 36.4C29.7938 36.2421 29.9517 35.8947 29.7938 35.5474C29.6675 35.2316 29.257 35.0737 28.9412 35.2316C28.5938 35.3895 28.278 35.4842 27.9307 35.5789C27.6464 35.6421 27.457 35.8947 27.457 36.2105V38.4211C27.457 38.6105 27.2991 38.7684 27.1096 38.7684H22.9412C22.7517 38.7684 22.5938 38.6105 22.5938 38.4211V36.2105C22.5938 35.9263 22.4043 35.6737 22.1201 35.5789C21.2991 35.3579 20.478 35.0105 19.6254 34.5368C19.3728 34.4105 19.057 34.4421 18.8675 34.6316L17.2885 36.1789C17.1622 36.3053 16.9412 36.3053 16.8149 36.1789L13.8464 33.1789C13.7201 33.0526 13.7201 32.8316 13.8464 32.7053L15.3938 31.1579C15.5833 30.9684 15.6464 30.6526 15.4885 30.4C15.0149 29.5789 14.6675 28.7579 14.4464 27.9368C14.3833 27.6526 14.1307 27.4632 13.8149 27.4632H11.6043C11.4149 27.4632 11.257 27.3053 11.257 27.1158V22.8842C11.257 22.7579 11.3201 22.6632 11.3517 22.6316C11.3833 22.6 11.5096 22.5368 11.5728 22.5368H13.7833C14.0675 22.5368 14.3201 22.3474 14.3833 22.0632C14.6043 21.2421 14.9517 20.4211 15.4254 19.6C15.5833 19.3474 15.5201 19.0316 15.3307 18.8421L13.7517 17.2632C13.6254 17.1368 13.6254 16.9158 13.7517 16.7895L16.7517 13.7895C16.878 13.6632 17.0991 13.6632 17.2254 13.7895L18.7728 15.3368C18.9622 15.5263 19.278 15.5895 19.5307 15.4316C20.3517 14.9579 21.1728 14.6105 21.9938 14.3895C22.278 14.3263 22.4675 14.0737 22.4675 13.7579V11.5789C22.4675 11.3895 22.6254 11.2316 22.8149 11.2316H27.0464C27.2359 11.2316 27.3938 11.3895 27.3938 11.5789V13.7895C27.3938 14.0737 27.5833 14.3263 27.8675 14.4211C28.7201 14.6737 29.5728 14.9895 30.3622 15.4316C30.6149 15.5895 30.9307 15.5263 31.1201 15.3368L32.6991 13.7579C32.8254 13.6316 33.0149 13.6316 33.1412 13.7579L36.1412 16.7579C36.2675 16.8842 36.2675 17.1053 36.1412 17.2316L34.5938 18.7789C34.4043 18.9684 34.3412 19.2842 34.4991 19.5368C34.9412 20.3263 35.2885 21.1474 35.5096 22.0316C35.5728 22.3158 35.8254 22.5053 36.1412 22.5053H38.3833C38.478 22.5053 38.5728 22.5684 38.6043 22.6C38.6359 22.6316 38.6991 22.7263 38.6991 22.8526V27.0842C38.6991 27.2737 38.5412 27.4316 38.3833 27.4316H36.1728C35.8886 27.4316 35.6359 27.6211 35.5412 27.9053C35.4464 28.2526 35.3201 28.6316 35.1622 28.9474C35.0359 29.2632 35.1622 29.6421 35.478 29.8C35.7938 29.9263 36.1728 29.8 36.3307 29.4842C36.4254 29.2316 36.5201 28.9789 36.6149 28.7263H38.3517C39.2359 28.6947 39.9307 28 39.9622 27.1158V22.8526C40.0254 22.4105 39.8675 22 39.5517 21.6842Z" fill="white"/>
<path d="M32.3521 28.7267C33.9311 25.632 33.4574 21.7162 30.8679 19.1267C27.6469 15.9057 22.3732 15.9057 19.1521 19.1267C15.9311 22.3478 15.9311 27.5899 19.1521 30.8425C20.7626 32.453 22.8784 33.2741 24.9942 33.2741C26.289 33.2741 27.5521 32.9583 28.7521 32.3583L32.8574 36.7478C33.0469 36.9373 33.2995 37.032 33.5837 37.032C34.1837 37.032 34.9416 36.5899 35.7942 35.7688C37.0258 34.5373 37.3732 33.4636 36.7416 32.832L32.3521 28.7267ZM20.0995 29.9267C17.3521 27.2109 17.3521 22.7583 20.0995 20.0425C21.4574 18.653 23.2574 17.9899 25.0258 17.9899C26.8258 17.9899 28.6258 18.653 29.9837 20.0425C32.0679 22.1267 32.5416 25.253 31.4047 27.8109L29.5732 26.1057C29.9521 24.4951 29.4784 22.853 28.31 21.653C27.2047 20.5478 25.6258 20.0425 24.11 20.3267C23.7311 20.3899 23.4153 20.6741 23.289 21.053C23.1626 21.432 23.2574 21.8425 23.5416 22.1267L24.9626 23.5478C25.1521 23.7373 25.2469 23.9583 25.2469 24.2425C25.2469 24.4951 25.1521 24.7478 24.9626 24.9373C24.5837 25.3162 23.9837 25.3162 23.6047 24.9373L22.1837 23.4846C21.8995 23.2004 21.489 23.1057 21.11 23.232C20.7311 23.3583 20.4469 23.6741 20.3837 24.053C20.1311 25.6004 20.6047 27.1478 21.71 28.253C22.8784 29.4215 24.5521 29.8952 26.1626 29.5162L27.8679 31.3478C25.2784 32.4846 22.1837 32.0109 20.0995 29.9267ZM33.6784 35.7057L26.7942 28.3478C26.6679 28.2215 26.51 28.1583 26.3205 28.1583C26.2574 28.1583 26.1942 28.1583 26.1311 28.1899C24.8679 28.6004 23.5416 28.2846 22.5942 27.3688C21.8995 26.6741 21.5205 25.7267 21.5837 24.7478L22.689 25.853C23.5732 26.7373 24.9942 26.7373 25.8469 25.853C26.7311 24.9688 26.7311 23.5478 25.8469 22.6951L24.7416 21.5899C25.7205 21.5267 26.6679 21.9057 27.3942 22.6004C28.31 23.5162 28.6574 24.8741 28.2153 26.1373C28.1205 26.3899 28.2153 26.6425 28.3732 26.8004L35.7626 33.6215C35.6047 34.2215 34.2784 35.5478 33.6784 35.7057Z" fill="white"/>
<defs>
<linearGradient id="paint0_linear_1407_1376" x1="19.4257" y1="71.4387" x2="71.7617" y2="24.0168" gradientUnits="userSpaceOnUse">
<stop stop-color="#FF1717"/>
<stop offset="1" stop-color="#FF6461"/>
</linearGradient>
</defs>
</svg>
