<svg width="50" height="50" viewBox="0 0 50 50" fill="none" xmlns="http://www.w3.org/2000/svg">
<rect width="50" height="50" rx="8" fill="url(#paint0_linear_1407_1333)"/>
<path d="M29.8296 24.3949L31.4913 22.6457C33.8402 23.6578 36.264 23.208 38.0632 21.4213C39.9498 19.5347 40.2871 16.2863 39.7998 14.0873C39.7624 13.9124 39.6374 13.775 39.4625 13.725C39.2876 13.675 39.1127 13.725 38.9877 13.8499L34.8147 18.0354C34.7273 18.1229 34.6273 18.1604 34.5024 18.1604C34.3899 18.1604 34.2775 18.1104 34.19 18.0354L32.066 15.899C31.8911 15.7241 31.8911 15.4492 32.066 15.2743L36.264 11.0513C36.389 10.9263 36.4389 10.7514 36.389 10.5765C36.339 10.4016 36.2015 10.2767 36.0391 10.2392C33.7902 9.71442 30.5043 10.0268 28.6052 11.9259C26.806 13.7 26.3687 16.1488 27.3683 18.4977L25.5816 20.122L17.4105 11.9134C17.3356 11.8384 17.2481 11.8009 17.1606 11.7759L10.5763 10.5515C10.4139 10.514 10.2514 10.5765 10.1265 10.689C10.0141 10.8139 9.97657 10.9763 10.0141 11.1387L11.6258 17.3608C11.6508 17.4482 11.6883 17.5232 11.7507 17.5857L19.7219 25.5943L14.9992 29.48C14.7868 29.6549 14.7618 29.9548 14.9367 30.1547C15.0367 30.2671 15.1741 30.3296 15.3115 30.3296C15.424 30.3296 15.5239 30.2921 15.6239 30.2171L20.4091 26.269L24.0823 29.9673L16.1486 38.5756C15.9612 38.7256 14.3995 39.8125 12.263 37.6761C10.189 35.5771 11.3384 34.0653 11.4884 33.9029L13.0626 32.491C13.2625 32.3161 13.275 32.0038 13.1001 31.8039C12.9252 31.604 12.6128 31.5915 12.4129 31.7664L10.8012 33.1907C10.7887 33.2032 10.7762 33.2157 10.7637 33.2282C10.0515 34.0028 9.2894 36.0768 11.5508 38.3507C12.7877 39.5877 13.9122 39.95 14.7993 39.95C15.9987 39.95 16.7608 39.3003 16.7733 39.2878C16.7858 39.2753 16.7983 39.2628 16.8108 39.2503L24.7445 30.6544L32.8531 38.813C33.6028 39.5752 34.6148 39.9875 35.6768 39.9875C36.7388 39.9875 37.7508 39.5752 38.5005 38.813C40.0622 37.2513 40.0622 34.7025 38.5005 33.1407L29.8296 24.3949ZM28.2803 18.9725C28.4428 18.8226 28.4802 18.5977 28.3928 18.3978C27.3808 16.3238 27.7181 14.1498 29.2799 12.5881C30.3044 11.5635 32.4408 10.7015 34.9147 11.0138L31.3664 14.5746C30.8166 15.1243 30.8166 16.0114 31.3664 16.5612L33.4903 18.6976C33.7527 18.96 34.1026 19.1099 34.4899 19.1099C34.8647 19.1099 35.2145 18.96 35.4894 18.6976L38.9877 15.1868C39.2376 17.6107 38.3755 19.7097 37.3635 20.7217C35.8017 22.2959 33.6403 22.6333 31.5788 21.6087C31.3913 21.5213 31.1665 21.5588 31.0165 21.7087L29.1299 23.6828L26.2563 20.7966L28.2803 18.9725ZM37.8383 38.1259C37.2635 38.7006 36.5014 39.0129 35.7018 39.0129C34.8897 39.0129 34.14 38.7006 33.5653 38.1259L12.5379 16.9859L11.1385 11.6385L16.8233 12.7005L37.8383 33.8279C39.0252 35.0023 39.0252 36.9389 37.8383 38.1259Z" fill="white"/>
<path d="M16.4234 15.8486C16.236 15.6612 15.9237 15.6612 15.7363 15.8486C15.5489 16.036 15.5489 16.3483 15.7363 16.5357L34.4898 35.3642C34.5898 35.4642 34.7147 35.5017 34.8271 35.5017C34.9521 35.5017 35.077 35.4517 35.1645 35.3642C35.3519 35.1768 35.3519 34.8645 35.1645 34.6771L16.4234 15.8486Z" fill="white"/>
<defs>
<linearGradient id="paint0_linear_1407_1333" x1="19.4257" y1="71.4387" x2="71.7617" y2="24.0168" gradientUnits="userSpaceOnUse">
<stop stop-color="#FF1717"/>
<stop offset="1" stop-color="#FF6461"/>
</linearGradient>
</defs>
</svg>
