<svg width="50" height="50" viewBox="0 0 50 50" fill="none" xmlns="http://www.w3.org/2000/svg">
<rect width="50" height="50" rx="8" fill="url(#paint0_linear_1407_1366)"/>
<path d="M14.3311 10.0003C14.013 10.0003 13.7539 10.2585 13.7539 10.5767V39.4105C13.7539 39.7286 14.013 39.9869 14.3311 39.9869C31.5414 39.9246 30.8379 40.1384 31.1596 39.8186L36.0761 34.917C36.1845 34.8086 36.2465 34.6623 36.2465 34.5086V10.5765C36.2465 10.2583 35.9874 10 35.6693 10H14.3311V10.0003ZM35.0921 34.2696L30.5149 38.834H14.9083V11.1534H35.0918V34.2697L35.0921 34.2696ZM16.6219 26.6036H33.3786C33.6967 26.6036 33.9558 26.3454 33.9558 26.0271V13.5143C33.9558 13.1962 33.6967 12.9378 33.3786 12.9378H16.6219C16.3037 12.9378 16.0447 13.1961 16.0447 13.5143V26.0269C16.0447 26.3453 16.3037 26.6036 16.6219 26.6036ZM17.1991 14.091H32.8013V25.4504H17.1991V14.091ZM16.5682 34.5679H17.8677V35.8682C17.8677 36.1863 18.1268 36.4446 18.4449 36.4446H21.0552C21.3733 36.4446 21.6324 36.1864 21.6324 35.8682V34.5679H22.9332C23.2513 34.5679 23.5104 34.3097 23.5104 33.9915V31.3799C23.5104 31.0618 23.2513 30.8035 22.9332 30.8035H21.6324V29.5032C21.6324 29.1851 21.3733 28.9268 21.0552 28.9268H18.4449C18.1268 28.9268 17.8677 29.185 17.8677 29.5032V30.8035H16.5682C16.2501 30.8035 15.991 31.0617 15.991 31.3799V33.9915C15.991 34.3097 16.2501 34.5679 16.5682 34.5679ZM17.1455 31.9564H18.4449C18.7631 31.9564 19.0221 31.6981 19.0221 31.3799V30.0797H20.4779V31.3799C20.4779 31.6981 20.737 31.9564 21.0552 31.9564H22.356V33.4149H21.0552C20.737 33.4149 20.4779 33.6731 20.4779 33.9913V35.2915H19.0221V33.9913C19.0221 33.6732 18.7631 33.4149 18.4449 33.4149H17.1455V31.9564ZM27.9385 32.5715C26.8699 32.5715 26.0011 33.4401 26.0011 34.5081C26.0011 35.5762 26.8697 36.4447 27.9385 36.4447C29.007 36.4447 29.8758 35.5762 29.8758 34.5081C29.8756 33.4403 29.0071 32.5715 27.9385 32.5715ZM27.9385 35.2918C27.5062 35.2918 27.1556 34.9406 27.1556 34.5084C27.1556 34.0761 27.5062 33.725 27.9385 33.725C28.3707 33.725 28.7214 34.0762 28.7214 34.5084C28.7211 34.9403 28.3707 35.2918 27.9385 35.2918ZM30.332 28.9266C29.2634 28.9266 28.3946 29.7952 28.3946 30.8632C28.3946 31.9312 29.2632 32.7998 30.332 32.7998C31.4007 32.7998 32.2693 31.9312 32.2693 30.8632C32.2693 29.7952 31.4005 28.9266 30.332 28.9266ZM30.332 31.6466C29.8997 31.6466 29.549 31.2954 29.549 30.8632C29.549 30.4309 29.8997 30.0798 30.332 30.0798C30.7642 30.0798 31.1149 30.431 31.1149 30.8632C31.1146 31.2954 30.7642 31.6466 30.332 31.6466Z" fill="white"/>
<defs>
<linearGradient id="paint0_linear_1407_1366" x1="19.4257" y1="71.4387" x2="71.7617" y2="24.0168" gradientUnits="userSpaceOnUse">
<stop stop-color="#FF1717"/>
<stop offset="1" stop-color="#FF6461"/>
</linearGradient>
</defs>
</svg>
