<svg width="50" height="50" viewBox="0 0 50 50" fill="none" xmlns="http://www.w3.org/2000/svg">
<rect width="50" height="50" rx="8" fill="url(#paint0_linear_1407_1355)"/>
<path d="M25.0005 40C16.7496 40 10.0195 33.27 10.0195 25.019C10.0195 16.7681 16.7496 10 25.0005 10C33.2515 10 39.9815 16.73 39.9815 24.981C39.9815 33.2319 33.2895 40 25.0005 40ZM25.0005 11.1787C17.396 11.1787 11.1982 17.3764 11.1982 24.981C11.1982 32.5856 17.396 38.7833 25.0005 38.7833C32.6051 38.7833 38.8028 32.5856 38.8028 24.981C38.8028 17.3764 32.6431 11.1787 25.0005 11.1787Z" fill="white"/>
<path d="M15.494 36.3871C15.2659 36.3871 15.0377 36.235 14.9617 36.0069C14.8476 35.7027 14.9997 35.3605 15.3039 35.2464L20.5511 33.1172C21.1214 32.889 21.5016 32.3187 21.5016 31.6723C21.5016 31.5963 21.5016 31.5582 21.5396 31.4822C20.2088 30.4936 19.3343 28.9727 19.1822 27.2616C18.6879 26.8814 18.4218 26.3491 18.4218 25.7027C18.4218 25.0943 18.6879 24.562 19.1442 24.1818V22.3947C19.1442 20.5696 19.9807 18.8966 21.3876 17.7559C22.7944 16.6153 24.6575 16.235 26.4446 16.6533C29.0301 17.2997 30.9313 19.7712 30.9313 22.5848V24.2198C31.3876 24.6001 31.6917 25.1324 31.6917 25.7407C31.6917 26.3491 31.3876 26.9194 30.9313 27.2997C30.7792 28.9727 29.9047 30.4936 28.5739 31.4822C28.6119 31.5582 28.6119 31.5963 28.6119 31.6723C28.6119 32.3187 28.9921 32.851 29.5625 33.0791L34.8476 35.1704C35.1518 35.2845 35.3039 35.6267 35.1898 35.9309C35.0758 36.235 34.7336 36.3871 34.4294 36.2731L29.1442 34.1818C28.3077 33.8396 27.6993 33.1172 27.5092 32.2426H27.053C26.7868 32.2426 26.5206 32.0525 26.4826 31.7864C26.3685 31.5202 26.5206 31.254 26.7868 31.14C28.4978 30.4556 29.6765 28.7826 29.7526 26.9194C29.7526 26.6913 29.9047 26.5012 30.0948 26.4251C30.3609 26.3111 30.513 26.0449 30.513 25.7407C30.513 25.4366 30.3609 25.2084 30.0948 25.0563C29.9047 24.9423 29.7906 24.7521 29.7906 24.524V22.5468C29.7906 20.3035 28.2697 18.2883 26.1784 17.794C24.7336 17.4518 23.2507 17.794 22.11 18.6685C20.9693 19.581 20.3229 20.9118 20.3229 22.3947V24.524C20.3229 24.7521 20.2088 24.9423 20.0187 25.0563C19.7526 25.1704 19.6005 25.4366 19.6005 25.7407C19.6005 26.0449 19.7526 26.2731 20.0187 26.4251C20.2088 26.5392 20.3229 26.7293 20.3609 26.9194C20.437 28.7826 21.5777 30.4175 23.3267 31.14C23.5929 31.254 23.745 31.5202 23.6689 31.7864C23.6309 32.0525 23.3647 32.2426 23.0986 32.2426H22.5663C22.3761 33.1172 21.7678 33.8396 20.9313 34.1818L15.6841 36.3111C15.6461 36.3871 15.5701 36.3871 15.494 36.3871Z" fill="white"/>
<defs>
<linearGradient id="paint0_linear_1407_1355" x1="19.4257" y1="71.4387" x2="71.7617" y2="24.0168" gradientUnits="userSpaceOnUse">
<stop stop-color="#FF1717"/>
<stop offset="1" stop-color="#FF6461"/>
</linearGradient>
</defs>
</svg>
