<svg width="60" height="60" viewBox="0 0 60 60" fill="none" xmlns="http://www.w3.org/2000/svg">
<rect width="60" height="60" rx="8" fill="url(#paint0_linear_1407_1302)"/>
<path d="M41.9311 19C41.3046 18.9973 40.6924 19.1872 40.1774 19.544C39.6625 19.9008 39.2696 20.4073 39.0522 20.9949C38.8347 21.5824 38.8031 22.2226 38.9617 22.8288C39.1202 23.4349 39.4613 23.9776 39.9386 24.3834L35.5774 31.8838C35.0767 31.6955 34.5343 31.6463 34.0079 31.7415C33.4814 31.8367 32.9906 32.0727 32.5875 32.4244L28.5793 29.1294C28.8343 28.6797 28.9699 28.1722 28.9734 27.6552C28.9753 27.1532 28.8541 26.6584 28.6203 26.2142C28.3865 25.7699 28.0473 25.3898 27.6325 25.1071C27.2176 24.8245 26.7397 24.6479 26.2407 24.5929C25.7417 24.5379 25.2369 24.6061 24.7704 24.7917C24.3039 24.9772 23.8901 25.2743 23.5652 25.6569C23.2402 26.0396 23.0141 26.4961 22.9067 26.9865C22.7992 27.4769 22.8137 27.9861 22.9489 28.4696C23.0841 28.9531 23.3358 29.396 23.6819 29.7596L19.3266 35.7461C18.6135 35.4418 17.8124 35.4151 17.0805 35.6712C16.3487 35.9274 15.7391 36.4479 15.3715 37.1306C15.0038 37.8132 14.9047 38.6087 15.0936 39.3607C15.2825 40.1127 15.7457 40.7669 16.3923 41.1948C17.0389 41.6227 17.8221 41.7934 18.5881 41.6734C19.3541 41.5533 20.0475 41.1512 20.5322 40.546C21.0169 39.9408 21.2578 39.1763 21.2075 38.4025C21.1573 37.6288 20.8196 36.9018 20.2608 36.3644L24.5882 30.4162C25.1156 30.6765 25.7082 30.7753 26.2917 30.7003C26.8751 30.6253 27.4234 30.3797 27.8678 29.9944L31.876 33.2892C31.6212 33.7387 31.4856 34.246 31.482 34.7627C31.4787 35.2784 31.6054 35.7867 31.8505 36.2406C32.0955 36.6944 32.451 37.0792 32.884 37.3593C33.3171 37.6395 33.8138 37.806 34.3282 37.8434C34.8426 37.8808 35.3582 37.788 35.8272 37.5735C36.2963 37.359 36.7037 37.0298 37.0119 36.6162C37.3201 36.2026 37.519 35.718 37.5904 35.2072C37.6618 34.6964 37.6033 34.1758 37.4202 33.6936C37.2372 33.2114 36.9357 32.7831 36.5434 32.4482L40.9043 24.948C41.233 25.0702 41.5804 25.1344 41.9311 25.1378C42.745 25.1378 43.5256 24.8145 44.1011 24.239C44.6767 23.6635 45 22.8829 45 22.0689C45 21.255 44.6767 20.4744 44.1011 19.8989C43.5256 19.3234 42.7451 19 41.9311 19ZM18.1451 40.5266C17.7594 40.5266 17.3825 40.4123 17.0619 40.198C16.7413 39.9838 16.4914 39.6793 16.3438 39.323C16.1963 38.9667 16.1577 38.5747 16.233 38.1965C16.3083 37.8183 16.494 37.471 16.7667 37.1983C17.0394 36.9257 17.3868 36.7401 17.765 36.6649C18.1433 36.5897 18.5353 36.6284 18.8915 36.7761C19.2477 36.9237 19.5522 37.1737 19.7663 37.4944C19.9805 37.815 20.0947 38.192 20.0946 38.5776C20.0939 39.0944 19.8883 39.5899 19.5228 39.9552C19.1573 40.3206 18.6619 40.5261 18.1451 40.5266ZM23.9549 27.6553C23.955 27.2697 24.0695 26.8929 24.2838 26.5723C24.498 26.2518 24.8026 26.002 25.1588 25.8545C25.5151 25.7071 25.907 25.6685 26.2852 25.7438C26.6633 25.8191 27.0106 26.0048 27.2832 26.2775C27.5558 26.5502 27.7415 26.8975 27.8166 27.2757C27.8918 27.6539 27.8532 28.0458 27.7056 28.402C27.558 28.7582 27.3081 29.0627 26.9876 29.2769C26.667 29.4911 26.2901 29.6054 25.9045 29.6054C25.3875 29.6048 24.8919 29.3992 24.5264 29.0335C24.1609 28.6679 23.9554 28.1723 23.9549 27.6553ZM34.551 36.7128C34.1654 36.7128 33.7885 36.5985 33.4679 36.3843C33.1473 36.1701 32.8975 35.8656 32.7499 35.5094C32.6023 35.1532 32.5637 34.7613 32.6389 34.3831C32.714 34.0049 32.8997 33.6576 33.1723 33.3849C33.4448 33.1122 33.7922 32.9265 34.1703 32.8512C34.5485 32.7759 34.9404 32.8145 35.2967 32.9619C35.6529 33.1094 35.9574 33.3592 36.1717 33.6797C36.386 34.0003 36.5004 34.3771 36.5006 34.7627C36.5001 35.2797 36.2946 35.7753 35.9291 36.1409C35.5636 36.5065 35.068 36.7122 34.551 36.7128ZM41.9311 24.0185C41.5456 24.0185 41.1687 23.9042 40.8481 23.69C40.5275 23.4758 40.2776 23.1713 40.13 22.8151C39.9824 22.4589 39.9438 22.067 40.019 21.6888C40.0942 21.3106 40.2798 20.9633 40.5524 20.6906C40.825 20.4179 41.1723 20.2322 41.5504 20.1569C41.9286 20.0816 42.3206 20.1201 42.6768 20.2676C43.0331 20.4151 43.3376 20.6649 43.5519 20.9854C43.7661 21.306 43.8806 21.6828 43.8807 22.0684C43.8802 22.5854 43.6747 23.081 43.3092 23.4466C42.9437 23.8122 42.4481 24.0179 41.9311 24.0185Z" fill="white"/>
<defs>
<linearGradient id="paint0_linear_1407_1302" x1="23.3108" y1="85.7264" x2="86.1141" y2="28.8202" gradientUnits="userSpaceOnUse">
<stop stop-color="#FF1717"/>
<stop offset="1" stop-color="#FF6461"/>
</linearGradient>
</defs>
</svg>
