<svg width="60" height="60" viewBox="0 0 60 60" fill="none" xmlns="http://www.w3.org/2000/svg">
<rect width="60" height="60" rx="8" fill="url(#paint0_linear_1407_1299)"/>
<path d="M34.8388 41.6475H32.4194C32.2911 41.6475 32.168 41.6984 32.0773 41.7892C31.9865 41.8799 31.9355 42.003 31.9355 42.1313V44.5507H32.9033V43.2975L34.4952 44.8942L35.1823 44.2071L33.5855 42.6152H34.8388V41.6475Z" fill="white"/>
<path d="M44.7532 27.1938L40.3984 24.7745C40.3248 24.732 40.2414 24.7097 40.1564 24.7097C40.0715 24.7097 39.9881 24.732 39.9145 24.7745L37.1758 26.2938L34.0016 24.489L34.5823 24.1648C34.6588 24.1241 34.723 24.0635 34.7681 23.9894C34.8132 23.9154 34.8376 23.8306 34.8387 23.7438V18.9051C34.8386 18.8194 34.8156 18.7352 34.7723 18.6613C34.7289 18.5873 34.6667 18.5262 34.5919 18.4842L30.2371 16.0648C30.1635 16.0224 30.0801 16 29.9952 16C29.9102 16 29.8268 16.0224 29.7532 16.0648L25.3984 18.4842C25.3255 18.5274 25.2652 18.5891 25.2235 18.663C25.1819 18.7368 25.1605 18.8204 25.1613 18.9051V23.7438C25.1614 23.8296 25.1844 23.9137 25.2277 23.9877C25.2711 24.0617 25.3333 24.1228 25.4081 24.1648L25.9887 24.489L22.8145 26.2938L20.0758 24.7745C20.0023 24.732 19.9188 24.7097 19.8339 24.7097C19.7489 24.7097 19.6655 24.732 19.592 24.7745L15.2371 27.1938C15.1642 27.2371 15.1039 27.2987 15.0623 27.3726C15.0207 27.4465 14.9992 27.53 15 27.6148V32.4535C15.0002 32.5393 15.0231 32.6234 15.0665 32.6974C15.1098 32.7713 15.1721 32.8325 15.2468 32.8745L19.6016 35.2938C19.6752 35.3363 19.7586 35.3587 19.8436 35.3587C19.9285 35.3587 20.0119 35.3363 20.0855 35.2938L21.1016 34.7325L25.1613 37.0406V44.0664C25.1613 44.1947 25.2123 44.3178 25.303 44.4085C25.3938 44.4993 25.5168 44.5503 25.6452 44.5503H30.9677V43.5825H26.129V35.8406H33.871V40.6793H34.8387V37.0406L38.9081 34.7325L39.9242 35.2938C39.9977 35.3363 40.0812 35.3587 40.1661 35.3587C40.2511 35.3587 40.3345 35.3363 40.408 35.2938L44.7629 32.8745C44.8358 32.8312 44.8961 32.7696 44.9377 32.6957C44.9793 32.6218 45.0008 32.5383 45 32.4535V27.6148C44.9998 27.5291 44.9769 27.4449 44.9335 27.3709C44.8902 27.297 44.8279 27.2359 44.7532 27.1938ZM30 17.0374L33.3581 18.9051L30 20.7729L26.6419 18.9051L30 17.0374ZM33.871 19.7277V23.4584L30.4839 25.3406V21.61L33.871 19.7277ZM26.129 19.7277L29.5161 21.61V25.3406L26.129 23.4584V19.7277ZM19.3549 34.0503L15.9678 32.168V28.4374L19.3549 30.3196V34.0503ZM19.8387 29.4825L16.4807 27.6148L19.8387 25.7471L23.1968 27.6148L19.8387 29.4825ZM20.3226 34.0503V30.3196L23.7097 28.4374V32.168L20.3226 34.0503ZM34.8387 35.9277V35.3567C34.8387 35.2284 34.7877 35.1053 34.697 35.0146C34.6062 34.9238 34.4832 34.8729 34.3548 34.8729H25.6452C25.5168 34.8729 25.3938 34.9238 25.303 35.0146C25.2123 35.1053 25.1613 35.2284 25.1613 35.3567V35.9277L22.079 34.1809L24.4307 32.8745C24.5054 32.8325 24.5676 32.7713 24.611 32.6974C24.6544 32.6234 24.6773 32.5393 24.6774 32.4535V27.6148C24.6773 27.5291 24.6544 27.4449 24.611 27.3709C24.5676 27.297 24.5054 27.2359 24.4307 27.1938L23.8016 26.8455L26.9806 25.0406L29.7629 26.5842C29.8365 26.6266 29.9199 26.649 30.0048 26.649C30.0898 26.649 30.1732 26.6266 30.2468 26.5842L33.029 25.0406L36.2081 26.8455L35.579 27.1938C35.5025 27.2346 35.4383 27.2952 35.3932 27.3692C35.3481 27.4433 35.3237 27.5281 35.3226 27.6148V32.4535C35.3227 32.5393 35.3456 32.6234 35.389 32.6974C35.4324 32.7713 35.4946 32.8325 35.5693 32.8745L37.921 34.1809L34.8387 35.9277ZM39.6774 34.0503L36.2903 32.168V28.4374L39.6774 30.3196V34.0503ZM40.1613 29.4825L36.8032 27.6148L40.1613 25.7471L43.5193 27.6148L40.1613 29.4825ZM44.0322 32.168L40.6451 34.0503V30.3196L44.0322 28.4374V32.168Z" fill="white"/>
<defs>
<linearGradient id="paint0_linear_1407_1299" x1="23.3108" y1="85.7264" x2="86.1141" y2="28.8202" gradientUnits="userSpaceOnUse">
<stop stop-color="#FF1717"/>
<stop offset="1" stop-color="#FF6461"/>
</linearGradient>
</defs>
</svg>
