<svg width="31" height="31" viewBox="0 0 31 31" fill="none" xmlns="http://www.w3.org/2000/svg">
<path d="M27.995 9.48284C27.995 5.90964 25.0881 3.00267 21.5148 3.00267C17.9414 3.00267 15.0346 5.90949 15.0346 9.48284C15.0346 13.0562 17.9414 15.963 21.5148 15.963C25.0881 15.963 27.995 13.0562 27.995 9.48284ZM15.9604 9.48284C15.9604 6.41975 18.4518 3.92841 21.5148 3.92841C24.5778 3.92841 27.0692 6.41981 27.0692 9.48284C27.0692 12.5459 24.5778 15.0373 21.5148 15.0373C18.4518 15.0373 15.9604 12.5459 15.9604 9.48284ZM9.48018 15.0373C5.90697 15.0373 3 17.9441 3 21.5175C3 25.0908 5.90682 27.9976 9.48018 27.9976C13.0535 27.9976 15.9604 25.0908 15.9604 21.5175C15.9604 17.9441 13.0535 15.0373 9.48018 15.0373ZM9.48018 27.0719C6.41709 27.0719 3.92574 24.5805 3.92574 21.5175C3.92574 18.4544 6.41715 15.963 9.48018 15.963C12.5432 15.963 15.0346 18.4544 15.0346 21.5175C15.0346 24.5805 12.5432 27.0719 9.48018 27.0719ZM26.7754 20.8462C26.9559 21.0267 26.9559 21.3195 26.7754 21.5011C26.6851 21.5914 26.5671 21.6365 26.4479 21.6365C26.3298 21.6365 26.2106 21.5914 26.1204 21.5011L24.4286 19.8094V23.9706C24.4286 26.1924 22.6211 28 20.4004 28H17.7262C17.4704 28 17.2633 27.7929 17.2633 27.5371C17.2633 27.2814 17.4704 27.0743 17.7262 27.0743H20.4004C22.1118 27.0743 23.5029 25.6822 23.5029 23.9706V19.8094L21.8111 21.5011C21.6306 21.6817 21.3378 21.6817 21.1561 21.5011C20.9756 21.3206 20.9756 21.0278 21.1561 20.8462L23.6383 18.364C23.8188 18.1835 24.1116 18.1835 24.2932 18.364L26.7754 20.8462ZM4.21961 10.1538C4.03909 9.9733 4.03909 9.68052 4.21961 9.49887C4.40012 9.31835 4.6929 9.31835 4.87456 9.49887L6.56633 11.1906V7.02941C6.56633 4.80764 8.37385 3 10.5946 3H13.2688C13.5245 3 13.7316 3.20713 13.7316 3.46287C13.7316 3.7186 13.5245 3.92574 13.2688 3.92574H10.5946C8.88311 3.92574 7.49207 5.31781 7.49207 7.02941V11.1906L9.18385 9.49887C9.36437 9.31835 9.65715 9.31835 9.8388 9.49887C10.0193 9.67939 10.0193 9.97217 9.8388 10.1538L7.35666 12.636C7.2664 12.7262 7.14837 12.7713 7.02917 12.7713C6.91114 12.7713 6.79195 12.7262 6.70168 12.636L4.21961 10.1538ZM24.5548 12.754C24.7526 12.6973 24.8892 12.5156 24.8892 12.3096C24.8892 11.0228 24.1394 9.91659 23.0585 9.3762C23.5272 8.96656 23.8292 8.37293 23.8292 7.70293C23.8292 6.47287 22.8283 5.47192 21.5982 5.47192C20.3681 5.47192 19.3672 6.47287 19.3672 7.70293C19.3672 8.37293 19.6704 8.96656 20.139 9.3762C19.0594 9.91659 18.3084 11.0217 18.3084 12.3096C18.3084 12.5121 18.4403 12.6915 18.6336 12.7517C19.5801 13.0467 20.5522 13.1937 21.5427 13.1937C22.5298 13.1937 23.5365 13.0467 24.5536 12.754H24.5548ZM21.5993 6.39763C22.3191 6.39763 22.9046 6.98317 22.9046 7.7029C22.9046 8.42267 22.3191 9.00818 21.5993 9.00818C20.8796 9.00818 20.2941 8.42264 20.2941 7.7029C20.2941 6.98314 20.8796 6.39763 21.5993 6.39763ZM21.5993 9.94565C22.7854 9.94565 23.769 10.8228 23.938 11.9626C22.3283 12.3676 20.7582 12.3699 19.2595 11.9696C19.425 10.8263 20.412 9.94682 21.5993 9.94682L21.5993 9.94565ZM10.9718 21.5602C11.4405 21.1506 11.7425 20.5569 11.7425 19.8869C11.7425 18.6569 10.7416 17.6559 9.51152 17.6559C8.28145 17.6559 7.2805 18.6569 7.2805 19.8869C7.2805 20.5569 7.58367 21.1506 8.05234 21.5602C6.97271 22.1006 6.22169 23.2057 6.22169 24.4936C6.22169 24.6961 6.35361 24.8755 6.54687 24.9357C7.49344 25.2307 8.46548 25.3777 9.456 25.3777C10.4431 25.3777 11.4498 25.2308 12.467 24.938C12.6648 24.8813 12.8014 24.6996 12.8014 24.4936C12.8014 23.2068 12.0515 22.1006 10.9707 21.5602H10.9718ZM9.51264 18.5815C10.2324 18.5815 10.8179 19.1671 10.8179 19.8868C10.8179 20.6066 10.2324 21.1921 9.51264 21.1921C8.79291 21.1921 8.20737 20.6066 8.20737 19.8868C8.20737 19.1671 8.79291 18.5815 9.51264 18.5815ZM7.17285 24.1523C7.33832 23.009 8.32539 22.1295 9.51264 22.1295C10.6987 22.1295 11.6823 23.0067 11.8513 24.1465C10.2417 24.5515 8.67148 24.5538 7.17282 24.1534L7.17285 24.1523Z" fill="white"/>
</svg>
