<svg width="31" height="31" viewBox="0 0 31 31" fill="none" xmlns="http://www.w3.org/2000/svg">
<path d="M22.699 20.3417C22.5481 20.5401 22.2644 20.5788 22.0659 20.428C21.8674 20.2772 21.8287 19.9934 21.9796 19.795C24.4592 16.5314 25.7858 12.491 25.7144 8.41679L25.6826 6.5821L23.8499 6.63469C21.3832 6.70217 18.2626 5.53429 16.1649 4.417L15.3116 3.96254L14.4582 4.417C12.4202 5.50251 9.41473 6.63667 6.98252 6.63766C6.91207 6.63766 6.84261 6.63667 6.77315 6.63469L4.93946 6.5821L4.90671 8.41678C4.83626 12.5138 6.17481 16.5702 8.67734 19.8397C8.82915 20.0381 8.79145 20.3219 8.593 20.4727C8.51064 20.5352 8.41439 20.566 8.31914 20.566C8.1832 20.566 8.04925 20.5055 7.95994 20.3884C6.66008 18.6896 5.6589 16.8034 4.98311 14.7792C4.29549 12.7183 3.96606 10.5722 4.00276 8.40108L4.04344 6.10997C4.04543 5.98892 4.09603 5.87481 4.18335 5.79146C4.27067 5.70812 4.38676 5.66346 4.50781 5.66644L6.79792 5.73193C9.08803 5.79543 12.037 4.68312 14.0323 3.62041L15.098 3.05284C15.231 2.98239 15.3897 2.98239 15.5227 3.05284L16.5884 3.62041C18.5838 4.68312 21.5328 5.79444 23.8228 5.73193L26.1119 5.66644C26.2329 5.66247 26.35 5.70811 26.4363 5.79146C26.5237 5.87481 26.5743 5.98991 26.5762 6.11097L26.6159 8.40207C26.6914 12.6777 25.2992 16.9185 22.6975 20.3429L22.699 20.3417ZM22.3576 16.6933C23.712 14.158 24.4017 11.3043 24.352 8.44076C24.3501 8.3197 24.2995 8.2056 24.2121 8.12225C24.1248 8.0389 24.0077 7.99226 23.8877 7.99722C21.6015 8.06172 18.3966 7.15183 15.5229 5.62077C15.3899 5.55032 15.2312 5.55032 15.0982 5.62077C12.2248 7.1518 9.0196 8.06271 6.73345 7.99722C6.61338 7.99325 6.49531 8.0389 6.40899 8.12225C6.32167 8.2056 6.27206 8.3207 6.26908 8.44175C6.22046 11.2509 6.88429 14.055 8.18909 16.5515C8.30419 16.7728 8.57804 16.8581 8.79833 16.743C9.0196 16.6279 9.10493 16.354 8.98983 16.1338C7.82395 13.9032 7.19881 11.4126 7.17102 8.90317C9.52167 8.85654 12.5094 7.98831 15.3105 6.53071C18.1125 7.98833 21.0993 8.85555 23.4499 8.90317C23.4222 11.4632 22.7732 14.0003 21.5607 16.2686C21.4426 16.4889 21.526 16.7628 21.7462 16.8799C21.8137 16.9166 21.8871 16.9334 21.9586 16.9334C22.1203 16.9334 22.2761 16.8471 22.3575 16.6943L22.3576 16.6933ZM21.1054 18.52V25.8875C21.1054 27.0524 20.1578 28 18.9929 28H11.6274C10.4625 28 9.5149 27.0524 9.5149 25.8875V18.52C9.5149 17.3551 10.4625 16.4075 11.6274 16.4075H11.8259V14.552C11.8259 12.631 13.3886 11.0671 15.3107 11.0671C17.2317 11.0671 18.7956 12.6299 18.7956 14.552V16.4075H18.994C20.1589 16.4075 21.1065 17.3551 21.1065 18.52H21.1054ZM12.7287 16.4075H13.7378V14.552C13.7378 13.6857 14.4433 12.9802 15.3095 12.9802C16.1758 12.9802 16.8813 13.6857 16.8813 14.552V16.4075H17.8904V14.552C17.8904 13.1291 16.7324 11.9712 15.3096 11.9712C13.8867 11.9712 12.7288 13.1291 12.7288 14.552L12.7287 16.4075ZM15.9773 16.4075V14.552C15.9773 14.1838 15.6776 13.8842 15.3095 13.8842C14.9414 13.8842 14.6417 14.1838 14.6417 14.552V16.4075H15.9783H15.9773ZM20.2013 18.52C20.2013 17.8532 19.6586 17.3114 18.9928 17.3114H11.6273C10.9605 17.3114 10.4187 17.8542 10.4187 18.52V25.8875C10.4187 26.5543 10.9615 27.0961 11.6273 27.0961H18.9928C19.6596 27.0961 20.2013 26.5533 20.2013 25.8875V18.52ZM18.325 20.0868C18.8301 20.5918 18.8301 21.4134 18.326 21.9175L15.7599 24.4835C15.4334 24.809 15.0048 24.9717 14.5761 24.9717C14.1475 24.9717 13.7188 24.809 13.3924 24.4835L12.293 23.3841C12.0489 23.14 11.9149 22.8156 11.9149 22.4693C11.9149 22.123 12.0489 21.7975 12.293 21.5544C12.798 21.0493 13.6196 21.0493 14.1246 21.5544L14.5761 22.0059L16.4941 20.0868C16.9982 19.5828 17.8198 19.5828 18.3248 20.0859L18.325 20.0868ZM17.687 20.7268C17.5342 20.5749 17.2861 20.574 17.1333 20.7268L14.8958 22.9653C14.8104 23.0506 14.6963 23.0973 14.5763 23.0973C14.4562 23.0973 14.3411 23.0496 14.2568 22.9653L13.4858 22.1943C13.4094 22.1179 13.3091 22.0802 13.2089 22.0802C13.1087 22.0802 13.0085 22.1179 12.9321 22.1943C12.8597 22.2667 12.819 22.365 12.819 22.4701C12.819 22.5753 12.8587 22.6735 12.9321 22.746L14.0305 23.8444C14.3312 24.1441 14.8204 24.1441 15.121 23.8434L17.6861 21.2783C17.8359 21.1285 17.8359 20.8755 17.6861 20.7256L17.687 20.7268Z" fill="white"/>
</svg>
