<svg width="31" height="31" viewBox="0 0 31 31" fill="none" xmlns="http://www.w3.org/2000/svg">
<path d="M27.973 13.1543C27.9582 13.0143 27.8606 12.8989 27.7254 12.8604L26.7913 12.6V12.601C26.6947 12.2311 26.5477 11.877 26.3544 11.5475L26.8308 10.7052H26.8318C26.9008 10.5819 26.887 10.429 26.7972 10.3195C26.5792 10.0542 26.3356 9.81053 26.0703 9.59056C25.9618 9.5008 25.8079 9.48699 25.6846 9.55703L24.8422 10.0334C24.5128 9.84011 24.1587 9.69412 23.7888 9.59745L23.5294 8.66434C23.4909 8.52822 23.3735 8.4286 23.2325 8.41479C22.8902 8.38224 22.5459 8.38224 22.2037 8.41479C22.0626 8.4286 21.9453 8.52822 21.9078 8.66434L21.6474 9.59844C21.2775 9.6951 20.9234 9.84109 20.5939 10.0344L19.7516 9.55801C19.6283 9.48896 19.4754 9.50179 19.3659 9.59155C19.1006 9.81052 18.8559 10.0551 18.637 10.3215C18.5472 10.43 18.5344 10.5829 18.6034 10.7061L19.0789 11.5485C18.8855 11.878 18.7386 12.2321 18.6429 12.602L17.7088 12.8623L17.7078 12.8614C17.5717 12.8998 17.473 13.0172 17.4592 13.1583C17.4533 13.2155 17.4494 13.2737 17.4454 13.3309H10.2912V7.4342C10.2912 6.64214 9.65006 6.00098 8.858 6H4.43321C3.64116 6.00099 3 6.64214 3 7.4342V17.3918C3.00099 18.1829 3.64214 18.823 4.43223 18.824H7.66743L7.95938 22.8041L7.48297 22.8051C7.37446 22.8051 7.27188 22.8564 7.20677 22.9452C7.14265 23.033 7.12391 23.1464 7.15745 23.25L7.7404 25.0906H7.73941C7.78479 25.2326 7.91696 25.3293 8.06591 25.3293H22.2847C22.4346 25.3293 22.5658 25.2326 22.6112 25.0906L23.1941 23.25C23.2267 23.1464 23.2079 23.033 23.1438 22.9452C23.0797 22.8564 22.9771 22.8051 22.8676 22.8051H22.3912L22.6733 18.9533H22.7167V18.9523C22.8903 18.9533 23.0629 18.9454 23.2346 18.9276C23.3736 18.9128 23.49 18.8142 23.5285 18.6791L23.7879 17.746C24.1578 17.6503 24.5129 17.5033 24.8424 17.31L25.6857 17.7854C25.809 17.8554 25.9619 17.8416 26.0714 17.7519C26.3357 17.5329 26.5784 17.2893 26.7973 17.0249C26.8881 16.9164 26.9019 16.7625 26.8319 16.6392L26.3555 15.7949C26.5488 15.4654 26.6958 15.1113 26.7914 14.7414L27.7255 14.482H27.7265C27.8607 14.4445 27.9593 14.3282 27.9741 14.1881C28.0086 13.8438 28.0086 13.4976 27.9741 13.1534L27.973 13.1543ZM3.68428 7.4344C3.68428 7.02013 4.01865 6.68474 4.43293 6.68376H8.85771C9.27199 6.68474 9.60636 7.0201 9.60636 7.4344V16.3443H3.68418L3.68428 7.4344ZM3.68428 17.392V17.028H9.60748V17.392C9.60649 17.8053 9.27113 18.1407 8.85782 18.1407H4.43303C4.01876 18.1407 3.68428 17.8053 3.68428 17.392ZM8.85776 18.8242C9.64884 18.8232 10.29 18.1831 10.29 17.392V14.0136H17.4472C17.4512 14.0708 17.4551 14.129 17.461 14.1862H17.46C17.4739 14.3273 17.5725 14.4447 17.7096 14.4832L18.6437 14.7426C18.7394 15.1124 18.8863 15.4666 19.0797 15.796L18.6033 16.6404C18.5332 16.7637 18.547 16.9166 18.6368 17.026C18.8558 17.2914 19.1004 17.535 19.3657 17.753C19.4752 17.8428 19.6281 17.8566 19.7514 17.7865L20.5938 17.3101C20.9232 17.5034 21.2773 17.6494 21.6472 17.7461L21.9076 18.6802H21.9066C21.9234 18.7384 21.955 18.7907 21.9984 18.8321L21.7054 22.8051H18.3912C18.2156 22.8051 18.0676 22.9393 18.0508 23.1149C18.038 23.323 17.9986 23.5282 17.9325 23.7254H12.4186C12.3525 23.5282 12.3131 23.323 12.2992 23.1149C12.2835 22.9393 12.1355 22.8051 11.9589 22.8051H8.6447L8.35275 18.824L8.85776 18.8242ZM22.3998 23.4889L22.0338 24.6459H8.31633L7.9494 23.4889H11.6573C11.7569 24.1074 11.9631 24.4092 12.2827 24.4092H18.0677C18.3883 24.4092 18.5945 24.1064 18.6931 23.4889H22.401H22.3998ZM27.3099 13.8884L26.4133 14.1379C26.29 14.1724 26.1963 14.273 26.1706 14.3983C26.0809 14.8264 25.9122 15.2348 25.6715 15.6007C25.6025 15.7082 25.5975 15.8443 25.6607 15.9558L26.1183 16.7656C26.0207 16.8721 25.9191 16.9747 25.8116 17.0723L25.0018 16.6156H25.0008C24.8893 16.5525 24.7522 16.5574 24.6457 16.6275C24.2798 16.8672 23.8714 17.0358 23.4433 17.1246C23.3181 17.1513 23.2174 17.245 23.1829 17.3683L22.9334 18.2659C22.7943 18.2718 22.6384 18.2718 22.4994 18.2659L22.2498 17.3693C22.2163 17.246 22.1157 17.1522 21.9904 17.1256C21.5623 17.0368 21.1539 16.8682 20.788 16.6275C20.6805 16.5575 20.5434 16.5535 20.4319 16.6166L19.6241 17.0743C19.5175 16.9757 19.414 16.8731 19.3153 16.7656L19.773 15.9558C19.8361 15.8443 19.8312 15.7082 19.7612 15.6007C19.5215 15.2347 19.3528 14.8264 19.263 14.3973C19.2374 14.273 19.1437 14.1724 19.0204 14.1379L18.1247 13.8883C18.1208 13.8153 18.1198 13.7433 18.1198 13.6713C18.1198 13.5993 18.1218 13.5273 18.1247 13.4543L19.0214 13.2048V13.2058C19.1447 13.1712 19.2384 13.0706 19.264 12.9454C19.3538 12.5173 19.5224 12.1089 19.7622 11.743C19.8322 11.6355 19.8371 11.4984 19.774 11.3879L19.3173 10.5801C19.4149 10.4725 19.5175 10.37 19.6251 10.2723L20.4329 10.729H20.4319C20.5434 10.7921 20.6805 10.7872 20.788 10.7171C21.1539 10.4775 21.5623 10.3088 21.9904 10.219C22.1157 10.1934 22.2163 10.0997 22.2498 9.97637L22.4994 9.07974C22.6453 9.07284 22.7874 9.07284 22.9334 9.07974L23.1829 9.97637C23.2175 10.0997 23.3181 10.1934 23.4433 10.219C23.8714 10.3078 24.2798 10.4765 24.6457 10.7152C24.7522 10.7852 24.8893 10.7901 25.0008 10.727L25.8106 10.2693C25.9181 10.367 26.0197 10.4695 26.1174 10.5771L25.6597 11.3849L25.6607 11.3859C25.5975 11.4964 25.6025 11.6335 25.6715 11.741C25.9122 12.1069 26.0809 12.5153 26.1706 12.9434C26.1963 13.0686 26.29 13.1693 26.4133 13.2038L27.3099 13.4533C27.3129 13.5224 27.3148 13.5944 27.3148 13.6703C27.3138 13.7453 27.3129 13.8193 27.3099 13.8884ZM22.7164 11.1887C21.7123 11.1887 20.8068 11.7944 20.4221 12.7226C20.0384 13.6507 20.2515 14.719 20.9617 15.4292C21.6719 16.1395 22.7411 16.3515 23.6684 15.9668C24.5965 15.5821 25.2012 14.6766 25.2012 13.6715C25.1992 12.3005 24.0875 11.1897 22.7164 11.1887ZM22.7164 15.4726C21.9885 15.4726 21.3325 15.0337 21.0544 14.361C20.7762 13.6883 20.9301 12.9149 21.445 12.4001C21.9589 11.8852 22.7332 11.7313 23.4059 12.0095C24.0786 12.2876 24.5166 12.9436 24.5176 13.6715C24.5166 14.6658 23.7107 15.4716 22.7164 15.4726ZM9.02644 8.59745C8.95838 8.53728 8.86961 8.50769 8.77886 8.51262C8.68811 8.51854 8.60427 8.55997 8.5441 8.62803L8.06867 9.16757C7.15528 8.42188 5.82171 8.5067 5.00897 9.35992C4.19618 10.2141 4.17843 11.5507 4.96754 12.4257C5.75665 13.3016 7.08726 13.4219 8.02043 12.7019C8.95452 11.9818 9.17646 10.665 8.52939 9.67854L9.05709 9.07981C9.11726 9.01175 9.14784 8.92297 9.14192 8.83222C9.136 8.74246 9.0945 8.65762 9.02644 8.59745ZM6.64532 12.4798C6.13734 12.4808 5.66092 12.2352 5.36599 11.8219C5.07105 11.4086 4.99411 10.8779 5.16082 10.3976C5.32753 9.91724 5.71615 9.54832 6.20342 9.40529C6.6907 9.26325 7.21741 9.36584 7.61593 9.68048L6.64335 10.7833L6.32082 10.4153C6.19653 10.2733 5.9805 10.2595 5.83847 10.3848C5.69643 10.5091 5.68262 10.7251 5.8069 10.8671L6.38493 11.527H6.38592C6.45003 11.601 6.54374 11.6434 6.64237 11.6434C6.74002 11.6434 6.83372 11.602 6.89882 11.528L8.0519 10.2201C8.2906 10.7063 8.26199 11.2814 7.97594 11.741C7.6899 12.2017 7.18684 12.4808 6.64533 12.4808L6.64532 12.4798Z" fill="white"/>
</svg>
