<svg width="31" height="31" viewBox="0 0 31 31" fill="none" xmlns="http://www.w3.org/2000/svg">
<path fill-rule="evenodd" clip-rule="evenodd" d="M16.6686 17.9974C16.6838 18.5061 17.0303 18.9469 17.5252 19.0772C17.5266 19.0772 17.5266 19.0772 17.5266 19.0786C18.3291 19.2879 19.133 19.4459 19.9397 19.5512H19.9411C20.1283 19.5748 20.2682 19.7342 20.2682 19.9213V21.7565C20.2682 21.9464 20.2253 22.1349 20.1421 22.3082C19.7596 23.101 18.8225 25.0415 18.2959 26.1298C17.9826 26.7785 18.2543 27.5574 18.9029 27.8693V27.8707C19.2134 28.0204 19.571 28.0412 19.8982 27.9275C20.2239 27.8139 20.4928 27.5741 20.6425 27.2636C21.3314 25.8359 22.7327 22.9363 22.7327 22.9363L21.9343 22.5496C21.9343 22.5496 20.533 25.4507 19.8441 26.8783C19.7956 26.9767 19.7097 27.0529 19.6057 27.089C19.5018 27.1264 19.3881 27.1195 19.2883 27.071C19.0818 26.9712 18.9944 26.7231 19.0942 26.5151L20.9405 22.6935C21.0819 22.4011 21.1553 22.0809 21.1553 21.7566V19.9214C21.1553 19.2865 20.6813 18.7501 20.052 18.6711C19.2841 18.5713 18.5176 18.4203 17.7525 18.2207C17.6361 18.1888 17.5543 18.0834 17.5543 17.9629V17.9518C17.5584 17.7979 17.6264 17.6579 17.7414 17.5636C17.8606 17.4652 18.0172 17.425 18.1683 17.4541H18.1711C20.9613 17.967 23.7363 17.9753 26.4945 17.4625H26.4973C26.6484 17.4334 26.8036 17.4722 26.9214 17.5706C27.0406 17.6676 27.1085 17.8131 27.1085 17.967C27.1085 17.9767 27.1099 17.9864 27.1099 17.9961C27.0988 18.1028 27.0226 18.1915 26.9186 18.2207C26.148 18.423 25.3801 18.5741 24.6136 18.6739C23.9857 18.7529 23.5116 19.2879 23.5116 19.9241V21.7565C23.5116 22.0809 23.5837 22.4011 23.7251 22.6935L25.5713 26.5151C25.6711 26.723 25.5852 26.9712 25.3773 27.0709C25.1708 27.1707 24.9227 27.0848 24.8229 26.8783L23.4922 24.1228L22.6924 24.5081C22.6924 24.5081 23.5227 26.2254 24.0231 27.2636C24.3363 27.9109 25.1153 28.1826 25.764 27.8707V27.8693C26.4113 27.5574 26.6829 26.7785 26.3697 26.1298L24.5234 22.3082C24.4417 22.1349 24.3987 21.9464 24.3987 21.7565V19.9241C24.3987 19.7356 24.5387 19.5776 24.7258 19.554H24.7272C25.5311 19.4487 26.3378 19.2906 27.1459 19.0772H27.1473C27.6505 18.9427 27.9997 18.4881 27.9997 17.9669C27.9997 17.9434 27.9983 17.9198 27.9942 17.8962C27.9748 17.504 27.7904 17.1367 27.4869 16.8858C27.1639 16.6196 26.7411 16.5115 26.3309 16.5905C23.6807 17.0826 21.014 17.0743 18.3304 16.5808C17.9229 16.5046 17.4987 16.6127 17.1757 16.8802C16.8528 17.1463 16.6671 17.5428 16.6671 17.9614L16.6686 17.9974ZM15.5001 27.1125C14.3635 27.1125 13.3378 26.3002 12.4867 24.9876C11.9836 24.2142 11.547 23.2675 11.1949 22.1905C12.5644 22.0477 14.0087 21.9715 15.5002 21.9715C16.5605 21.9715 17.5959 22.0103 18.5995 22.0838L18.6632 21.1995C17.6403 21.1246 16.5827 21.0844 15.5002 21.0844C13.9159 21.0844 12.3856 21.169 10.9373 21.3256C10.5048 19.7288 10.247 17.8964 10.2137 15.9434H18.1976V15.0563H10.2137C10.247 13.1047 10.5062 11.2723 10.9373 9.67414C12.3857 9.83215 13.9174 9.91532 15.5002 9.91532C17.083 9.91532 18.6133 9.83215 20.0616 9.67414C20.2168 10.2507 20.3499 10.8578 20.458 11.4899L21.3326 11.3402C21.2273 10.7248 21.0984 10.1329 20.9501 9.56741C22.3944 9.37751 23.7472 9.11279 24.9739 8.78705C26.3198 10.6832 27.1126 12.9993 27.1126 15.4999H27.9997C27.9997 8.60147 22.3986 3 15.4999 3C8.60005 3 3 8.60111 3 15.4999C3 22.3983 8.59969 27.9997 15.4999 27.9997C15.9116 27.9997 16.3204 27.9803 16.7224 27.9415L16.6365 27.0572C16.2622 27.0946 15.8826 27.1125 15.5001 27.1125ZM15.5001 3.8873C9.09101 3.8873 3.88731 9.09064 3.88731 15.5001C3.88731 20.9905 7.70466 25.5963 12.8289 26.8034C12.4435 26.4361 12.079 25.9898 11.7422 25.47C11.1781 24.5996 10.6873 23.524 10.2993 22.2945C9.45791 22.4026 8.64845 22.5357 7.8764 22.6923L7.70037 21.8232C8.45024 21.6708 9.23475 21.5405 10.0498 21.4324C9.61872 19.794 9.35952 17.9283 9.32623 15.9434H5.18031V15.0563H9.32623C9.3595 13.0728 9.6187 11.207 10.0498 9.56872C9.23475 9.4606 8.45024 9.33031 7.70037 9.17783L7.8764 8.30876C8.64707 8.464 9.45652 8.59845 10.2979 8.70657C10.6167 7.69748 11.0034 6.7924 11.4442 6.01896L12.2149 6.45835C11.8254 7.1417 11.483 7.93174 11.1947 8.81054C12.5642 8.95192 14.0085 9.02815 15.4999 9.02815C16.99 9.02815 18.4343 8.95192 19.8038 8.81054C19.3159 7.31773 18.6686 6.07718 17.9076 5.20254C17.1882 4.37783 16.3761 3.8873 15.5001 3.8873ZM22.3335 12.9137C21.269 12.9137 20.4055 13.7786 20.4055 14.8417C20.4055 15.9062 21.269 16.7698 22.3335 16.7698C23.3967 16.7698 24.2616 15.9062 24.2616 14.8417C24.2616 13.7786 23.3967 12.9137 22.3335 12.9137ZM22.3335 13.8008C22.9074 13.8008 23.3745 14.2679 23.3745 14.8417C23.3745 15.4169 22.9074 15.8827 22.3335 15.8827C21.7583 15.8827 21.2926 15.4169 21.2926 14.8417C21.2926 14.2679 21.7583 13.8008 22.3335 13.8008ZM18.1738 4.19814C18.311 4.32843 18.4455 4.46981 18.5757 4.62089C19.431 5.60223 20.1628 7.00913 20.7006 8.70721C22.0132 8.53811 23.2496 8.30801 24.3835 8.02524C22.802 6.14847 20.6396 4.78025 18.1738 4.19814Z" fill="white"/>
</svg>
