<svg width="31" height="31" viewBox="0 0 31 31" fill="none" xmlns="http://www.w3.org/2000/svg">
<path d="M15.5 22.375C11.7102 22.375 8.625 19.2898 8.625 15.5C8.625 11.7102 11.7102 8.625 15.5 8.625C19.2898 8.625 22.375 11.7102 22.375 15.5C22.375 19.2898 19.2898 22.375 15.5 22.375ZM15.5 9.19318C12.0227 9.19318 9.19318 12.0227 9.19318 15.5C9.19318 18.9773 12.0227 21.8068 15.5 21.8068C18.9773 21.8068 21.8068 18.9773 21.8068 15.5C21.8068 12.0227 18.9773 9.19318 15.5 9.19318Z" fill="white"/>
<path d="M15.4995 22.3752C14.5051 22.3752 13.5904 21.6365 12.9142 20.2899C12.2722 19.0059 11.9199 17.3013 11.9199 15.5002C11.9199 13.699 12.2722 11.9945 12.9142 10.7161C13.5847 9.3695 14.5051 8.63086 15.4995 8.63086C16.4938 8.63086 17.4086 9.3695 18.0847 10.7161C18.7267 12.0002 19.079 13.699 19.079 15.5002C19.079 17.3013 18.7267 19.0059 18.0847 20.2843C17.4086 21.6309 16.4938 22.3752 15.4995 22.3752ZM15.4995 9.19336C13.8688 9.19336 12.4881 12.0797 12.4881 15.5002C12.4881 18.9206 13.8688 21.807 15.4995 21.807C17.1301 21.807 18.5108 18.9206 18.5108 15.5002C18.5108 12.0797 17.1301 9.19336 15.4995 9.19336Z" fill="white"/>
<path d="M15.5002 19.079C13.699 19.079 11.9945 18.7267 10.7161 18.0847C9.3695 17.4142 8.63086 16.4938 8.63086 15.4995C8.63086 14.5051 9.3695 13.5904 10.7161 12.9142C12.0002 12.2722 13.699 11.9199 15.5002 11.9199C17.3013 11.9199 19.0059 12.2722 20.2843 12.9142C21.6309 13.5847 22.3695 14.5051 22.3695 15.4995C22.3695 16.4938 21.6309 17.4086 20.2843 18.0847C19.0059 18.7267 17.3013 19.079 15.5002 19.079ZM15.5002 12.4881C12.0797 12.4881 9.19336 13.8688 9.19336 15.4995C9.19336 17.1301 12.0797 18.5108 15.5002 18.5108C18.9206 18.5108 21.807 17.1301 21.807 15.4995C21.807 13.8688 18.9206 12.4881 15.5002 12.4881Z" fill="white"/>
<path d="M22.0909 15.785H8.90909C8.75 15.785 8.625 15.66 8.625 15.5009C8.625 15.3418 8.75 15.2168 8.90909 15.2168H22.0909C22.25 15.2168 22.375 15.3418 22.375 15.5009C22.375 15.66 22.2443 15.785 22.0909 15.785Z" fill="white"/>
<path d="M15.5009 22.375C15.3418 22.375 15.2168 22.25 15.2168 22.0909V8.90909C15.2168 8.75 15.3418 8.625 15.5009 8.625C15.66 8.625 15.785 8.75 15.785 8.90909V22.0909C15.785 22.2443 15.66 22.375 15.5009 22.375Z" fill="white"/>
<path d="M5.96099 12.0448C5.9269 12.0448 5.89281 12.0391 5.85872 12.0278C5.71099 11.9709 5.64281 11.8062 5.69963 11.6584C6.76213 8.95389 8.92122 6.78912 11.6201 5.71525C11.7678 5.65843 11.9326 5.72662 11.9894 5.87434C12.0462 6.02207 11.978 6.18684 11.8303 6.24366C9.27349 7.26071 7.23372 9.30616 6.22804 11.8687C6.18258 11.9766 6.07463 12.0448 5.96099 12.0448Z" fill="white"/>
<path d="M19.2891 25.3003C19.1755 25.3003 19.0675 25.2321 19.0278 25.1242C18.9709 24.9764 19.0391 24.8117 19.1868 24.7548C21.7209 23.7435 23.7493 21.7151 24.7607 19.181C24.8175 19.0333 24.9823 18.9651 25.13 19.0219C25.2778 19.0787 25.3459 19.2435 25.2891 19.3912C24.2209 22.0673 22.0789 24.2151 19.3971 25.2833C19.363 25.2946 19.3232 25.3003 19.2891 25.3003Z" fill="white"/>
<path d="M11.7044 25.3019C11.6703 25.3019 11.6362 25.2962 11.5965 25.2792C8.90328 24.2053 6.74987 22.0405 5.69305 19.3417C5.63624 19.1939 5.7101 19.0292 5.85214 18.9724C5.99987 18.9155 6.16464 18.9894 6.22146 19.1314C7.22146 21.6826 9.26124 23.7337 11.8067 24.7508C11.9544 24.8076 12.0226 24.9723 11.9658 25.1201C11.926 25.2337 11.8181 25.3019 11.7044 25.3019Z" fill="white"/>
<path d="M25.0237 11.9992C24.91 11.9992 24.8021 11.931 24.7623 11.8173C23.7509 9.27757 21.7169 7.24348 19.1771 6.2378C19.0294 6.18098 18.9612 6.01621 19.018 5.86848C19.0748 5.72076 19.2396 5.65257 19.3873 5.70939C22.0691 6.77757 24.2225 8.9253 25.2907 11.6071C25.3475 11.7548 25.2794 11.9196 25.1316 11.9764C25.0919 11.9935 25.0578 11.9992 25.0237 11.9992Z" fill="white"/>
<path d="M25.744 17.7555C24.4996 17.7555 23.4883 16.7441 23.4883 15.4998C23.4883 14.2555 24.4996 13.2441 25.744 13.2441C26.9883 13.2441 27.9996 14.2555 27.9996 15.4998C27.9996 16.7441 26.9883 17.7555 25.744 17.7555ZM25.744 13.8123C24.8121 13.8123 24.0565 14.568 24.0565 15.4998C24.0565 16.4316 24.8121 17.1873 25.744 17.1873C26.6758 17.1873 27.4315 16.4316 27.4315 15.4998C27.4315 14.568 26.6758 13.8123 25.744 13.8123Z" fill="white"/>
<path d="M27.0734 17.2452C26.9427 17.2452 26.8234 17.1543 26.795 17.0236C26.7041 16.5975 26.3177 16.2907 25.8859 16.2907H25.6075C25.17 16.2907 24.7893 16.5975 24.6984 17.0236C24.6643 17.177 24.5109 17.2736 24.3575 17.2395C24.2041 17.2054 24.1075 17.052 24.1416 16.8986C24.2893 16.2168 24.9087 15.7168 25.6075 15.7168H25.8859C26.5848 15.7168 27.2041 16.2111 27.3518 16.8986C27.3859 17.052 27.2893 17.2054 27.1359 17.2395C27.1132 17.2395 27.0905 17.2452 27.0734 17.2452Z" fill="white"/>
<path d="M25.7447 16.2843C25.1708 16.2843 24.6992 15.8184 24.6992 15.2388C24.6992 14.6593 25.1651 14.1934 25.7447 14.1934C26.3242 14.1934 26.7901 14.6593 26.7901 15.2388C26.7901 15.8184 26.3185 16.2843 25.7447 16.2843ZM25.7447 14.7672C25.4833 14.7672 25.2674 14.9831 25.2674 15.2445C25.2674 15.5059 25.4833 15.7218 25.7447 15.7218C26.006 15.7218 26.2219 15.5059 26.2219 15.2445C26.2219 14.9831 26.006 14.7672 25.7447 14.7672Z" fill="white"/>
<path d="M5.25568 17.7555C4.01136 17.7555 3 16.7441 3 15.4998C3 14.2555 4.01136 13.2441 5.25568 13.2441C6.5 13.2441 7.51136 14.2555 7.51136 15.4998C7.51136 16.7441 6.5 17.7555 5.25568 17.7555ZM5.25568 13.8123C4.32386 13.8123 3.56818 14.568 3.56818 15.4998C3.56818 16.4316 4.32386 17.1873 5.25568 17.1873C6.1875 17.1873 6.94318 16.4316 6.94318 15.4998C6.94318 14.568 6.1875 13.8123 5.25568 13.8123Z" fill="white"/>
<path d="M6.58515 17.2452C6.45446 17.2452 6.33515 17.1543 6.30674 17.0236C6.21583 16.5975 5.82946 16.2907 5.39765 16.2907H5.11924C4.68174 16.2907 4.30106 16.5975 4.21015 17.0236C4.17606 17.177 4.02833 17.2736 3.86924 17.2395C3.71583 17.2054 3.61924 17.052 3.65333 16.8986C3.80106 16.2168 4.42037 15.7168 5.11924 15.7168H5.39765C6.09651 15.7168 6.71583 16.2111 6.86356 16.8986C6.89765 17.052 6.80105 17.2054 6.64765 17.2395C6.62492 17.2395 6.60219 17.2452 6.58515 17.2452Z" fill="white"/>
<path d="M5.25639 16.2843C4.68253 16.2843 4.21094 15.8184 4.21094 15.2388C4.21094 14.6593 4.67685 14.1934 5.25639 14.1934C5.83594 14.1934 6.30185 14.6593 6.30185 15.2388C6.30185 15.8184 5.83026 16.2843 5.25639 16.2843ZM5.25639 14.7672C4.99503 14.7672 4.77912 14.9831 4.77912 15.2445C4.77912 15.5059 4.99503 15.7218 5.25639 15.7218C5.51776 15.7218 5.73366 15.5059 5.73366 15.2445C5.73366 14.9831 5.51776 14.7672 5.25639 14.7672Z" fill="white"/>
<path d="M15.4998 7.51136C14.2555 7.51136 13.2441 6.5 13.2441 5.25568C13.2441 4.01136 14.2555 3 15.4998 3C16.7441 3 17.7555 4.01136 17.7555 5.25568C17.7555 6.5 16.7441 7.51136 15.4998 7.51136ZM15.4998 3.56818C14.568 3.56818 13.8123 4.32386 13.8123 5.25568C13.8123 6.1875 14.568 6.94318 15.4998 6.94318C16.4316 6.94318 17.1873 6.1875 17.1873 5.25568C17.1873 4.32386 16.4316 3.56818 15.4998 3.56818Z" fill="white"/>
<path d="M16.8295 7.00124C16.6988 7.00124 16.5795 6.91033 16.5511 6.77965C16.4601 6.35352 16.0738 6.0467 15.642 6.0467H15.3636C14.9261 6.0467 14.5454 6.35352 14.4545 6.77965C14.4204 6.93306 14.267 7.02965 14.1192 6.99556C13.9658 6.96147 13.8692 6.80806 13.9033 6.66033C14.0511 5.97852 14.6704 5.47852 15.3692 5.47852H15.6476C16.3465 5.47852 16.9658 5.97283 17.1136 6.66033C17.1476 6.81374 17.0511 6.96715 16.8976 6.99556C16.8692 6.99556 16.8465 7.00124 16.8295 7.00124Z" fill="white"/>
<path d="M15.5005 6.04013C14.9267 6.04013 14.4551 5.57422 14.4551 4.99467C14.4551 4.41513 14.921 3.94922 15.5005 3.94922C16.0801 3.94922 16.546 4.41513 16.546 4.99467C16.546 5.57422 16.0744 6.04013 15.5005 6.04013ZM15.5005 4.52308C15.2392 4.52308 15.0233 4.73331 15.0233 5.00036C15.0233 5.2674 15.2392 5.47763 15.5005 5.47763C15.7619 5.47763 15.9778 5.26172 15.9778 5.00036C15.9778 4.73899 15.7619 4.52308 15.5005 4.52308Z" fill="white"/>
<path d="M15.4998 27.9996C14.2555 27.9996 13.2441 26.9883 13.2441 25.744C13.2441 24.4996 14.2555 23.4883 15.4998 23.4883C16.7441 23.4883 17.7555 24.4996 17.7555 25.744C17.7555 26.9883 16.7441 27.9996 15.4998 27.9996ZM15.4998 24.0565C14.568 24.0565 13.8123 24.8121 13.8123 25.744C13.8123 26.6758 14.568 27.4315 15.4998 27.4315C16.4316 27.4315 17.1873 26.6758 17.1873 25.744C17.1873 24.8121 16.4316 24.0565 15.4998 24.0565Z" fill="white"/>
<path d="M16.8295 27.4835C16.6988 27.4835 16.5795 27.3926 16.5511 27.2619C16.4601 26.8358 16.0738 26.5289 15.642 26.5289H15.3636C14.9261 26.5289 14.5454 26.8358 14.4545 27.2619C14.4204 27.4153 14.267 27.5119 14.1192 27.4778C13.9658 27.4437 13.8692 27.2903 13.9033 27.1369C14.0511 26.4551 14.6704 25.9551 15.3692 25.9551H15.6476C16.3465 25.9551 16.9658 26.4494 17.1136 27.1369C17.1476 27.2903 17.0511 27.4437 16.8976 27.4778C16.8692 27.4835 16.8465 27.4835 16.8295 27.4835Z" fill="white"/>
<path d="M15.5005 26.5284C14.9267 26.5284 14.4551 26.0625 14.4551 25.483C14.4551 24.9034 14.921 24.4375 15.5005 24.4375C16.0744 24.4375 16.546 24.9034 16.546 25.483C16.546 26.0625 16.0744 26.5284 15.5005 26.5284ZM15.5005 25.0114C15.2392 25.0114 15.0233 25.2273 15.0233 25.4886C15.0233 25.75 15.2392 25.9659 15.5005 25.9659C15.7619 25.9659 15.9778 25.75 15.9778 25.4886C15.9778 25.2273 15.7619 25.0114 15.5005 25.0114Z" fill="white"/>
</svg>
