<svg width="70" height="70" viewBox="0 0 70 70" fill="none" xmlns="http://www.w3.org/2000/svg">
<path d="M16.0866 26.4763C16.0866 26.1332 16.3649 25.8548 16.7081 25.8548H37.9048C38.248 25.8548 38.5263 26.1331 38.5263 26.4763C38.5263 26.8195 38.248 27.0978 37.9048 27.0978H16.7081C16.3649 27.0978 16.0866 26.8195 16.0866 26.4763ZM16.7081 30.9647H37.9048C38.248 30.9647 38.5263 30.6864 38.5263 30.3432C38.5263 30 38.248 29.7217 37.9048 29.7217H16.7081C16.3649 29.7217 16.0866 30 16.0866 30.3432C16.0866 30.6864 16.3649 30.9647 16.7081 30.9647ZM57.5326 41.2449V45.4508C57.5326 45.9007 57.1789 46.2648 56.7291 46.2815L54.7307 46.3464C54.5047 47.1332 54.1888 47.8948 53.7933 48.6126L55.1597 50.069C55.4694 50.3954 55.4589 50.9039 55.143 51.2198L52.1695 54.1933C51.8535 54.5092 51.3451 54.5197 51.0187 54.21L49.5623 52.8436C48.8446 53.2391 48.0829 53.555 47.2961 53.7811L47.2312 55.7794C47.2145 56.2293 46.8504 56.5829 46.4005 56.5829H42.6131V59.3785C42.6131 59.7217 42.3348 60 41.9916 60H18.3109C18.1456 60 17.9887 59.9351 17.8715 59.818L12.182 54.1285C12.0649 54.0093 12 53.8544 12 53.6891V22.4693C12 22.1261 12.2783 21.8478 12.6215 21.8478H16.365V11.6865C16.365 10.7554 17.1204 10 18.0515 10H55.2977C56.2289 10 56.9842 10.7554 56.9842 11.6865V40.4685C57.3065 40.5815 57.5326 40.885 57.5326 41.2449ZM17.608 11.6862V17.3173H55.7375V11.6862C55.7375 11.4393 55.5387 11.2426 55.2939 11.2426L18.0536 11.2405C17.8067 11.2405 17.608 11.4393 17.608 11.6862ZM17.608 21.8432H41.9979C42.3411 21.8432 42.6194 22.1215 42.6194 22.4647V30.119H46.4068C46.8567 30.119 47.2208 30.4726 47.2376 30.9225L47.2962 32.9146C48.0892 33.1406 48.8488 33.4565 49.5665 33.852L51.0229 32.4856C51.3493 32.1759 51.8578 32.1864 52.1738 32.5023L55.1472 35.4758C55.4632 35.7917 55.4736 36.3002 55.1639 36.6266L53.7975 38.083C54.193 38.8007 54.509 39.5624 54.735 40.3492L55.7373 40.3806V18.5582H17.6078L17.608 21.8432ZM17.6833 54.3101H14.1219L17.6833 57.8715V54.3101ZM41.3705 58.7566V55.7727L41.3056 53.7849C40.5125 53.5589 39.753 53.2429 39.0352 52.8475L37.5831 54.2139C37.2566 54.5235 36.7481 54.5131 36.4322 54.1971L33.4588 51.2237C33.2119 50.9768 33.1533 50.6127 33.283 50.3072H16.7086C16.3654 50.3072 16.0871 50.0289 16.0871 49.6857C16.0871 49.3425 16.3654 49.0642 16.7086 49.0642L34.3924 49.0663L34.8151 48.6164C34.4342 47.9259 34.1288 47.1977 33.9049 46.4423L16.7085 46.4402C16.3654 46.4402 16.087 46.1619 16.087 45.8187C16.087 45.4755 16.3653 45.1972 16.7085 45.1972H31.0754V42.5733H16.7085C16.3654 42.5733 16.087 42.295 16.087 41.9518C16.087 41.6086 16.3653 41.3303 16.7085 41.3303H31.0754V41.255C31.0754 40.8051 31.429 40.441 31.8789 40.4242L33.871 40.3656C34.0321 39.7986 34.2456 39.2399 34.4988 38.7042L16.7084 38.7063C16.3652 38.7063 16.0869 38.428 16.0869 38.0848C16.0869 37.7416 16.3652 37.4633 16.7084 37.4633H34.2143L33.4422 36.6431C33.1325 36.3166 33.143 35.8082 33.4589 35.4922L34.1076 34.8436H16.7088C16.3656 34.8436 16.0873 34.5653 16.0873 34.2221C16.0873 33.8789 16.3656 33.6006 16.7088 33.6006H35.3568L36.4344 32.5229C36.7566 32.2007 37.2589 32.1965 37.5852 32.5062L39.0374 33.8726C39.7551 33.4771 40.5168 33.1612 41.3078 32.9289L41.3664 30.9473V23.09H13.2433V53.0671H18.3113C18.6545 53.0671 18.9328 53.3454 18.9328 53.6886V58.7503H41.3707L41.3705 58.7566ZM56.2901 41.6524L54.3881 41.5938C54.0135 41.5834 53.7017 41.3323 53.6118 40.9724C53.3858 40.0893 53.0342 39.2418 52.5718 38.4551C52.3793 38.1329 52.4274 37.7374 52.6785 37.4632L53.98 36.0759L51.5758 33.6717L50.1885 34.9732C49.9143 35.2306 49.5189 35.2724 49.1966 35.0799C48.414 34.6133 47.5624 34.2659 46.6793 34.0358C46.3153 33.9437 46.0684 33.6277 46.0579 33.2595L45.9993 31.3574H42.6032L42.5446 33.2595C42.5341 33.634 42.283 33.9458 41.9231 34.0358C41.0401 34.2618 40.1884 34.6133 39.3996 35.0799C39.0773 35.2724 38.6819 35.2243 38.4077 34.9732L37.0267 33.6717L34.6266 36.0718L35.9281 37.4528C36.1855 37.7269 36.2273 38.1224 36.0348 38.4447C35.5682 39.2315 35.2146 40.0789 34.9907 40.9682C34.8986 41.3323 34.5826 41.5792 34.2144 41.5897L32.3123 41.6483V45.0443L34.2144 45.1029C34.5889 45.1134 34.9007 45.3645 34.9907 45.7244C35.2167 46.6138 35.5682 47.4591 36.0348 48.248C36.2273 48.5702 36.1792 48.9657 35.9281 49.2398L34.6266 50.6208L37.0267 53.0209L38.4077 51.7194C38.6818 51.462 39.0773 51.4202 39.3996 51.6127C40.1864 52.0793 41.0338 52.4329 41.9168 52.6568C42.2767 52.7489 42.5278 53.0649 42.5383 53.4331L42.5969 55.3352H45.993L46.0516 53.4331C46.0621 53.0586 46.3131 52.7468 46.6731 52.6568C47.5561 52.4308 48.4036 52.0793 49.1903 51.6169C49.5126 51.4244 49.908 51.4725 50.1822 51.7236L51.5695 53.0251L53.9738 50.6208L52.6722 49.2335C52.4149 48.9594 52.373 48.5639 52.5655 48.2417C53.0321 47.4591 53.3795 46.6137 53.6055 45.7244C53.6976 45.3645 54.0135 45.1134 54.3818 45.1029L56.2839 45.0443L56.286 41.6524L56.2901 41.6524ZM48.6674 38.9845C51.0717 41.3888 51.0717 45.306 48.6674 47.7166C47.4622 48.9219 45.8824 49.5224 44.3025 49.5224C42.7227 49.5224 41.1429 48.9219 39.9376 47.7166C37.5333 45.3123 37.5333 41.395 39.9376 38.9845C41.1052 37.8169 42.6537 37.1745 44.3025 37.1745C45.9514 37.1787 47.5062 37.8169 48.6674 38.9845ZM47.7886 39.8612C45.8656 37.9383 42.7415 37.9383 40.8184 39.8612C38.8952 41.7842 38.8954 44.9083 40.8184 46.8315C42.7414 48.7546 45.8655 48.7544 47.7886 46.8315C49.7116 44.9148 49.7116 41.7865 47.7886 39.8612ZM46.5206 14.8997H46.5687C46.9119 14.8997 47.1902 14.6214 47.1902 14.2782C47.1902 13.9351 46.9119 13.6568 46.5687 13.6568H46.5206C46.1774 13.6568 45.8991 13.9351 45.8991 14.2782C45.8991 14.6214 46.1774 14.8997 46.5206 14.8997ZM42.2017 14.8997H42.2498C42.593 14.8997 42.8713 14.6214 42.8713 14.2782C42.8713 13.9351 42.593 13.6568 42.2498 13.6568H42.2017C41.8585 13.6568 41.5802 13.9351 41.5802 14.2782C41.5802 14.6214 41.8543 14.8997 42.2017 14.8997ZM50.8791 14.8997H50.9272C51.2704 14.8997 51.5487 14.6214 51.5487 14.2782C51.5487 13.9351 51.2704 13.6568 50.9272 13.6568H50.8791C50.5359 13.6568 50.2576 13.9351 50.2576 14.2782C50.2597 14.6214 50.538 14.8997 50.8791 14.8997Z" fill="#FD1716"/>
</svg>
