<svg width="70" height="70" viewBox="0 0 70 70" fill="none" xmlns="http://www.w3.org/2000/svg">
<path d="M64.3639 44.4596L57.9346 36.8406C62.2504 31.5647 62.3417 23.781 57.7911 18.3904C55.3044 15.4419 51.8185 13.6389 47.9752 13.3127C44.1317 12.9866 40.3903 14.1764 37.4412 16.6656C34.464 19.1784 32.7601 22.6435 32.3948 26.2444L21.5976 22.521C21.3054 22.4192 20.9792 22.4923 20.7574 22.7089L11.2802 31.9196C10.9566 32.2353 10.9488 32.7546 11.2645 33.0808C11.4263 33.2451 11.6403 33.3286 11.8542 33.3286C12.0603 33.3286 12.2665 33.2504 12.4256 33.0964L21.5402 24.2377L32.322 27.9559C32.369 30.8627 33.2901 33.772 35.1166 36.2562H31.7923C31.3383 36.2562 30.973 36.6241 30.973 37.0755V56.0842H28.4602L28.455 32.3997C28.455 31.9457 28.0871 31.5804 27.6357 31.5804H21.0942C20.6402 31.5804 20.2748 31.9483 20.2748 32.3997V56.0815H17.7621V38.0067C17.7621 37.5527 17.3942 37.1874 16.9428 37.1874H10.4013C9.94725 37.1874 9.58192 37.5553 9.58192 38.0067V56.0815L6.63868 56.0789V12.8193C6.63868 12.3653 6.27077 12 5.81934 12C5.36532 12 5 12.3679 5 12.8193V56.9005C5 57.3545 5.36791 57.7199 5.81934 57.7199H54.2557C54.7097 57.7199 55.0751 57.3519 55.0751 56.9005C55.0751 56.4465 54.7072 56.0812 54.2557 56.0812H49.8486V41.8032C50.8845 41.5788 51.9021 41.2369 52.8806 40.7777L59.4691 48.585C59.9335 49.1382 60.5911 49.4773 61.3138 49.5374C61.3921 49.5452 61.4704 49.5478 61.5487 49.5478C62.188 49.5478 62.8011 49.326 63.2917 48.9112L64.0406 48.2823C64.5911 47.8179 64.9303 47.1603 64.9904 46.4376C65.0504 45.7122 64.8284 45.0101 64.3639 44.4596ZM38.4978 17.9182C41.1097 15.7133 44.4287 14.6592 47.8341 14.9488C51.2419 15.2384 54.3313 16.8353 56.5359 19.4498C61.0865 24.8406 60.4003 32.9323 55.0042 37.4852C49.8039 41.874 42.0909 41.3888 37.4645 36.5094C37.4566 36.5016 37.4488 36.4937 37.441 36.4859C37.2792 36.3137 37.12 36.1389 36.9661 35.9562C32.4181 30.5602 33.1044 22.4691 38.4978 17.9182ZM41.6629 41.2112V56.0817H39.1502V39.9801C39.9512 40.4733 40.794 40.885 41.6629 41.2112ZM32.6085 37.8922H36.5198C36.8381 38.2105 37.1695 38.5132 37.5087 38.7976V56.0789H32.6085L32.6085 37.8922ZM21.9155 33.2189H26.8157V56.0791H21.9155V33.2189ZM11.2225 38.8263H16.1227V56.0788H11.2225V38.8263ZM48.2037 56.0815H43.3009V41.7173C44.4333 41.9939 45.5971 42.1348 46.7634 42.1348C47.2435 42.1348 47.7237 42.1113 48.2037 42.0617V56.0815ZM63.3535 46.2989C63.33 46.586 63.1969 46.8469 62.9803 47.0269L62.2315 47.6557C62.0123 47.8384 61.7357 47.9271 61.4487 47.9036C61.1616 47.8801 60.9033 47.7471 60.7207 47.5279L54.3514 39.9791C54.9437 39.6111 55.5151 39.1989 56.0631 38.737C56.324 38.5178 56.5719 38.2908 56.8146 38.056L63.1108 45.516C63.2908 45.7326 63.3769 46.0119 63.3535 46.2989ZM36.1855 31.1131C36.616 32.4491 37.3049 33.725 38.2625 34.8627C39.3375 36.136 40.6395 37.1041 42.059 37.7642C42.1138 37.7982 42.1712 37.8243 42.2338 37.8425C43.6637 38.4766 45.2084 38.8001 46.7583 38.8001C47.5541 38.8001 48.3526 38.714 49.138 38.5444C49.1902 38.5366 49.2423 38.5236 49.2919 38.5079C50.941 38.1217 52.5275 37.3546 53.9078 36.1908C56.1752 34.2782 57.5634 31.5959 57.8139 28.642C58.0644 25.6857 57.1485 22.8102 55.2359 20.5454C53.3233 18.278 50.6436 16.8898 47.6871 16.6393C44.7308 16.3888 41.8553 17.3047 39.5879 19.2173C36.0706 22.1841 34.8625 26.8884 36.1567 31.0325C36.1645 31.056 36.175 31.0844 36.1855 31.1131ZM43.3008 36.5091V31.5802H48.2036V37.0466C46.5572 37.3023 44.8611 37.1171 43.3008 36.5091ZM40.6497 20.4696C42.3718 19.0163 44.5088 18.2387 46.7346 18.2387C47.0059 18.2387 47.2773 18.2492 47.5513 18.2726C50.0693 18.4866 52.355 19.6686 53.9832 21.6021C55.614 23.533 56.3942 25.9831 56.1802 28.501C55.9663 31.0189 54.7843 33.3047 52.8508 34.9355C51.9349 35.7078 50.9147 36.274 49.8449 36.642V30.7632C49.8449 30.3092 49.477 29.9439 49.0255 29.9439H42.4814C42.0274 29.9439 41.6621 30.3118 41.6621 30.7632V35.6791C40.8767 35.1782 40.1513 34.5519 39.5199 33.8031C38.818 32.9707 38.2857 32.047 37.9178 31.0816L47.5567 23.0739V26.6616C47.5567 27.1157 47.9246 27.481 48.3761 27.481C48.8301 27.481 49.1954 27.1131 49.1954 26.6616V21.1586C49.1954 20.7046 48.8275 20.3393 48.3761 20.3393L42.8731 20.3367C42.419 20.3367 42.0537 20.7046 42.0537 21.156C42.0537 21.6101 42.4216 21.9754 42.8731 21.9754H46.3043L37.4355 29.3438C36.8771 26.1344 37.983 22.7161 40.6497 20.4696Z" fill="#FD1716"/>
</svg>
