<svg width="30" height="30" viewBox="0 0 30 30" fill="none" xmlns="http://www.w3.org/2000/svg">
<path fill-rule="evenodd" clip-rule="evenodd" d="M5.60347 17.3412C5.60347 17.5097 5.46841 17.6462 5.30174 17.6462C5.13506 17.6462 5 17.5097 5 17.3412V4.62741C5 3.73173 5.72411 3 6.61046 3H23.5873C24.4736 3 25.1977 3.73201 25.1977 4.62741V17.3412C25.1977 17.5097 25.0627 17.6462 24.896 17.6462C24.7293 17.6462 24.5943 17.5097 24.5943 17.3412V4.62741C24.5943 4.06859 24.1406 3.60982 23.5873 3.60982H6.61018C6.05691 3.60982 5.60319 4.06831 5.60319 4.62741V17.3412H5.60347ZM14.5563 15.081V13.2328C14.5563 13.0643 14.4212 12.9279 14.2545 12.9279H13.9198L15.0987 10.7587L16.2777 12.9276H15.9429C15.7762 12.9276 15.6412 13.0641 15.6412 13.2325V15.0807C15.6412 15.2492 15.7762 15.3857 15.9429 15.3857C16.1096 15.3857 16.2447 15.2492 16.2447 15.0807V13.5374H16.7871V13.5368C17.0134 13.5371 17.1621 13.2902 17.0511 13.0859L15.3639 9.98243C15.2496 9.76972 14.9492 9.76944 14.8347 9.98019L13.1552 13.0697C13.0246 13.2933 13.1876 13.5374 13.4103 13.5374H13.9528V15.0807C13.9528 15.2492 14.0879 15.3857 14.2545 15.3857C14.4212 15.3859 14.5563 15.2495 14.5563 15.081ZM14.3197 26.5654C14.3197 26.7338 14.1846 26.8703 14.018 26.8703C13.8513 26.8703 13.7162 26.7338 13.7162 26.5654V25.7824C13.2431 25.6809 12.8443 25.3371 12.831 24.7634C12.8271 24.5958 12.9583 24.4565 13.1244 24.4526C13.2903 24.4487 13.4281 24.5815 13.432 24.7491C13.4464 25.3685 14.6026 25.3483 14.6026 24.7564C14.6026 24.4714 14.3094 24.2979 14.0166 24.2965C12.9192 24.2912 12.4402 23.1088 13.1954 22.4583C13.3391 22.3347 13.5177 22.2428 13.7162 22.1957V21.4197C13.7162 21.2513 13.8513 21.1148 14.018 21.1148C14.1846 21.1148 14.3197 21.2513 14.3197 21.4197V22.1957C14.8037 22.3106 15.1927 22.7066 15.2049 23.222C15.2088 23.3896 15.0774 23.5289 14.9115 23.5328C14.7457 23.5367 14.6079 23.4039 14.604 23.2363C14.594 22.8081 13.945 22.6119 13.587 22.9202C13.2525 23.2083 13.4933 23.6864 14.0194 23.6889C14.6503 23.692 15.2063 24.1292 15.2063 24.7561C15.2063 25.3287 14.7998 25.679 14.32 25.7818L14.3197 26.5654ZM9.97143 19.3243H8.76726V18.9947H9.97116C10.1378 18.9947 10.2729 18.8582 10.2729 18.6898C10.2729 18.5214 10.1378 18.3849 9.97116 18.3849H8.9234C9.12363 17.8933 9.56376 17.3068 10.0965 17.3068C10.5988 17.3068 11.0414 17.5893 11.2732 18.0287C11.3514 18.1767 11.5334 18.2327 11.6798 18.1537C11.8262 18.0749 11.8817 17.8908 11.8035 17.7428C11.469 17.1086 10.8176 16.6969 10.0965 16.6969C9.21266 16.6969 8.54235 17.5696 8.28388 18.3849H7.87259C7.70592 18.3849 7.57086 18.5214 7.57086 18.6898C7.57086 18.8582 7.70592 18.9947 7.87259 18.9947H8.16185V19.3243H7.87259C7.70592 19.3243 7.57086 19.4608 7.57086 19.6292C7.57086 19.7976 7.70592 19.9341 7.87259 19.9341H8.28388C8.54263 20.7494 9.21266 21.6221 10.0965 21.6221C10.7965 21.6221 11.4266 21.2392 11.7713 20.6345C11.854 20.489 11.8043 20.3035 11.6607 20.22C11.5167 20.1365 11.3331 20.1866 11.2505 20.3318C11.015 20.7452 10.5785 21.012 10.0965 21.012C9.56348 21.012 9.12336 20.4254 8.9234 19.9338H9.97116C10.1378 19.9338 10.2729 19.7974 10.2729 19.6289C10.2729 19.4608 10.1378 19.3243 9.97143 19.3243ZM21.6706 22.5875C21.8373 22.5875 21.9724 22.724 21.9724 22.8924C21.9724 23.0609 21.8373 23.1974 21.6706 23.1974H20.5014V24.3598C20.5014 24.5283 20.3664 24.6647 20.1997 24.6647C20.033 24.6647 19.8979 24.5283 19.8979 24.3598V23.1974H18.7287C18.562 23.1974 18.427 23.0609 18.427 22.8924C18.427 22.724 18.562 22.5875 18.7287 22.5875H19.8979V22.2821H18.7287C18.562 22.2821 18.427 22.1456 18.427 21.9771C18.427 21.8087 18.562 21.6722 18.7287 21.6722H19.4714L18.123 20.3097C18.0052 20.1905 18.0052 19.9975 18.123 19.8786C18.2409 19.7595 18.4317 19.7595 18.5496 19.8786L20.1997 21.5461L21.8498 19.8786C21.9677 19.7595 22.1587 19.7595 22.2763 19.8786C22.3942 19.9977 22.3942 20.1908 22.2763 20.3097L20.9279 21.6722H21.6706C21.8373 21.6722 21.9724 21.8087 21.9724 21.9771C21.9724 22.1456 21.8373 22.2821 21.6706 22.2821H20.5014V22.5875H21.6706ZM9.99778 15.1522C7.80798 15.1522 6.03223 16.9464 6.03223 19.1595C6.03223 21.4371 7.90837 23.2584 10.1664 23.1632C9.6464 25.6565 11.5267 28 14.0457 28C15.7946 28 17.3177 26.8448 17.8302 25.1913C18.491 25.6896 19.3111 25.9847 20.1991 25.9847C22.3889 25.9847 24.1647 24.1906 24.1647 21.9774C24.1647 19.7643 22.3892 17.9704 20.1991 17.9704C18.4425 17.9704 16.9241 19.132 16.4141 20.7796C15.6906 20.2343 14.797 19.949 13.8779 19.9893C14.3965 17.5029 12.5223 15.1522 9.99778 15.1522ZM13.6943 20.6129C13.2107 21.8684 12.1232 22.8084 10.8045 23.0836C10.216 25.2297 11.8101 27.3899 14.046 27.3899C15.6293 27.3899 16.986 26.277 17.3268 24.7393C16.5156 23.8781 16.106 22.6789 16.2691 21.4427C15.5619 20.8127 14.6434 20.5173 13.6943 20.6129ZM12.3753 16.7569C11.0625 15.4302 8.93366 15.4302 7.62078 16.7569C6.30789 18.0836 6.30789 20.2351 7.62078 21.5618C8.93366 22.8885 11.0625 22.8885 12.3753 21.5618C13.6882 20.2351 13.6882 18.0839 12.3753 16.7569ZM22.577 19.5748C21.2641 18.2481 19.1353 18.2481 17.8221 19.5748C16.5092 20.9015 16.5092 23.0527 17.8221 24.3797C19.135 25.7064 21.2638 25.7064 22.577 24.3797C23.8898 23.053 23.8898 20.9018 22.577 19.5748ZM19.8871 8.68207H22.7944C22.9611 8.68207 23.0961 8.54559 23.0961 8.37716C23.0961 8.20873 22.9611 8.07225 22.7944 8.07225H19.8871C19.7205 8.07225 19.5854 8.20873 19.5854 8.37716C19.5854 8.54531 19.7205 8.68207 19.8871 8.68207ZM13.645 8.68207H16.5522C16.7189 8.68207 16.854 8.54559 16.854 8.37716C16.854 8.20873 16.7189 8.07225 16.5522 8.07225H13.645C13.4783 8.07225 13.3432 8.20873 13.3432 8.37716C13.3432 8.54531 13.4783 8.68207 13.645 8.68207ZM7.24971 4.28383C6.92079 4.28383 6.65262 4.55483 6.65262 4.8872V6.20018C6.65262 6.53115 6.92079 6.80356 7.24971 6.80356H10.464C10.6284 6.80356 10.7776 6.73574 10.8858 6.62672L10.8852 6.62616C10.9937 6.5163 11.0611 6.36553 11.0611 6.20046V4.88692C11.0611 4.55455 10.7929 4.28355 10.464 4.28355H7.24971V4.28383ZM10.4576 4.89337H7.25609V6.19345H10.4576V4.89337ZM7.40307 8.68207H10.3106C10.4773 8.68207 10.6123 8.54559 10.6123 8.37716C10.6123 8.20873 10.4773 8.07225 10.3106 8.07225H7.40307C7.2364 8.07225 7.10134 8.20873 7.10134 8.37716C7.10134 8.54531 7.2364 8.68207 7.40307 8.68207Z" fill="black"/>
</svg>
