<svg width="30" height="30" viewBox="0 0 30 30" fill="none" xmlns="http://www.w3.org/2000/svg">
<path d="M26.7327 18.1457L25.8704 17.6478C26.0152 16.9275 26.0885 16.2063 26.0885 15.5C26.0885 14.7835 26.0164 14.0615 25.874 13.35L26.7327 12.8542C26.9987 12.7007 27.1889 12.4527 27.2684 12.1561C27.3478 11.8595 27.3071 11.5497 27.1535 11.2837L24.8052 7.21624C24.6516 6.95029 24.4037 6.76003 24.1071 6.68058C23.8104 6.60113 23.5006 6.64188 23.2346 6.79545L22.3752 7.29163C21.2897 6.33659 20.0121 5.59746 18.6521 5.13757V4.14971C18.6521 3.51575 18.1363 3 17.5024 3H12.8057C12.1718 3 11.656 3.51575 11.656 4.14971V5.13762C10.3033 5.59565 9.02743 6.33576 7.93785 7.29457L7.07341 6.79545C6.80742 6.64188 6.49758 6.60108 6.20096 6.68058C5.90433 6.76008 5.65644 6.95029 5.50287 7.21624L3.15453 11.2837C3.00096 11.5497 2.96021 11.8595 3.03966 12.1561C3.11911 12.4527 3.30937 12.7007 3.57532 12.8542L4.43765 13.3521C4.29294 14.0724 4.2196 14.7937 4.2196 15.5C4.2196 16.2164 4.29171 16.9384 4.43408 17.65L3.57537 18.1457C3.02635 18.4627 2.8376 19.1672 3.15453 19.7163L5.50287 23.7838C5.81984 24.3327 6.52434 24.5215 7.07341 24.2045L7.93276 23.7084C9.01838 24.6634 10.2959 25.4025 11.656 25.8625V26.8503C11.656 27.4842 12.1718 28 12.8057 28H17.5024C18.1363 28 18.6521 27.4842 18.6521 26.8503V25.8624C20.0049 25.4044 21.2807 24.6642 22.3703 23.7055L23.2347 24.2045C23.7836 24.5215 24.4882 24.3327 24.8052 23.7838L27.1536 19.7163C27.4705 19.1672 27.2817 18.4627 26.7327 18.1457ZM26.518 19.3494L24.1696 23.4168C24.055 23.6154 23.8002 23.6837 23.6016 23.569L22.5061 22.9365C22.3669 22.8561 22.1915 22.8757 22.0735 22.9849C20.9535 24.0207 19.6059 24.8023 18.1766 25.2451C18.023 25.2927 17.9182 25.4348 17.9182 25.5956V26.8503C17.9182 27.0796 17.7317 27.2661 17.5024 27.2661H12.8057C12.5764 27.2661 12.3899 27.0796 12.3899 26.8503V25.5956C12.3899 25.4348 12.2851 25.2928 12.1315 25.2452C10.6934 24.7996 9.34416 24.019 8.22963 22.9879C8.16011 22.9235 8.07063 22.8903 7.98036 22.8903C7.91745 22.8903 7.85419 22.9064 7.797 22.9394L6.70649 23.569C6.50786 23.6836 6.25306 23.6154 6.13843 23.4168L3.7901 19.3494C3.67547 19.1508 3.74377 18.8959 3.9423 18.7813L5.03193 18.1522C5.17107 18.0718 5.24176 17.9104 5.20639 17.7536C5.03853 17.0096 4.95345 16.2514 4.95345 15.5C4.95345 14.7613 5.0398 14.0037 5.21016 13.2484C5.24548 13.0917 5.17478 12.9302 5.03569 12.85L3.9423 12.2187C3.84612 12.1632 3.77733 12.0735 3.74856 11.9662C3.71984 11.8589 3.73457 11.7468 3.7901 11.6506L6.13843 7.58317C6.19396 7.48699 6.28364 7.41815 6.39098 7.38943C6.49822 7.36067 6.61035 7.37544 6.70654 7.43097L7.80203 8.06345C7.94127 8.14388 8.11661 8.12422 8.23462 8.01507C9.35468 6.97921 10.7022 6.19765 12.1315 5.75484C12.2852 5.70724 12.3899 5.56517 12.3899 5.40435V4.14971C12.3899 3.9204 12.5764 3.73386 12.8058 3.73386H17.5024C17.7317 3.73386 17.9183 3.9204 17.9183 4.14971V5.40435C17.9183 5.56517 18.023 5.70724 18.1766 5.75484C19.6147 6.20034 20.9639 6.98092 22.0785 8.01213C22.1965 8.12133 22.3719 8.14095 22.5111 8.06057L23.6016 7.43097C23.6979 7.37544 23.81 7.36067 23.9172 7.38943C24.0245 7.4182 24.1142 7.48699 24.1697 7.58317L26.5181 11.6506C26.5736 11.7468 26.5884 11.8589 26.5596 11.9662C26.5309 12.0735 26.4621 12.1632 26.3659 12.2187L25.2763 12.8478C25.1371 12.9281 25.0664 13.0896 25.1018 13.2463C25.2696 13.9903 25.3547 14.7485 25.3547 15.5C25.3547 16.2387 25.2684 16.9963 25.098 17.7515C25.0627 17.9082 25.1334 18.0697 25.2725 18.15L26.3659 18.7813C26.5644 18.8959 26.6327 19.1508 26.518 19.3494Z" fill="black"/>
<path d="M15.1541 8.08789C11.0671 8.08789 7.74219 11.4129 7.74219 15.4998C7.74219 19.5868 11.0671 22.9118 15.1541 22.9118C19.2411 22.9118 22.5661 19.5868 22.5661 15.4998C22.5661 11.4129 19.2411 8.08789 15.1541 8.08789ZM15.1541 22.1779C11.4718 22.1779 8.47604 19.1821 8.47604 15.4998C8.47604 11.8175 11.4718 8.82175 15.1541 8.82175C18.8364 8.82175 21.8322 11.8175 21.8322 15.4998C21.8322 19.1821 18.8364 22.1779 15.1541 22.1779Z" fill="black"/>
<path d="M16.5239 13.5684H15.154C14.9514 13.5684 14.7871 13.7326 14.7871 13.9353V17.0664C14.7871 17.269 14.9514 17.4333 15.154 17.4333C15.3567 17.4333 15.521 17.269 15.521 17.0664V16.2592H16.5239C17.2658 16.2592 17.8693 15.6556 17.8693 14.9138C17.8693 14.1719 17.2658 13.5684 16.5239 13.5684ZM16.5239 15.5253H15.521V14.3022H16.5239C16.8611 14.3022 17.1354 14.5765 17.1354 14.9138C17.1354 15.251 16.8611 15.5253 16.5239 15.5253Z" fill="black"/>
<path d="M13.1492 13.8065C13.0954 13.6633 12.9586 13.5684 12.8056 13.5684H12.4142C12.2613 13.5684 12.1244 13.6632 12.0707 13.8065L10.8965 16.9376C10.8253 17.1273 10.9215 17.3388 11.1112 17.41C11.301 17.4812 11.5125 17.385 11.5837 17.1953L11.7879 16.6506H13.4319L13.6362 17.1952C13.6914 17.3425 13.8313 17.4334 13.9798 17.4334C14.0226 17.4334 14.0661 17.4259 14.1086 17.41C14.2983 17.3389 14.3945 17.1273 14.3233 16.9376L13.1492 13.8065ZM12.0631 15.9167L12.6099 14.4584L13.1568 15.9167H12.0631Z" fill="black"/>
<path d="M18.6775 13.5684C18.4748 13.5684 18.3105 13.7326 18.3105 13.9353V17.0664C18.3105 17.269 18.4748 17.4333 18.6775 17.4333C18.8801 17.4333 19.0444 17.269 19.0444 17.0664V13.9353C19.0444 13.7326 18.8801 13.5684 18.6775 13.5684Z" fill="black"/>
<path d="M17.7791 7.27128C18.0337 7.35245 18.2876 7.44672 18.5335 7.55142C18.5804 7.57138 18.6291 7.58082 18.677 7.58082C18.8197 7.58082 18.9554 7.49707 19.0148 7.35754C19.0942 7.17109 19.0074 6.95558 18.8209 6.87622C18.5539 6.76258 18.2784 6.66023 18.0019 6.57212C17.8088 6.51057 17.6024 6.61722 17.5408 6.81028C17.4793 7.00333 17.586 7.20974 17.7791 7.27128Z" fill="black"/>
<path d="M7.56802 19.6288C7.47096 19.4509 7.24801 19.3853 7.07018 19.4824C6.89229 19.5795 6.82673 19.8024 6.9238 19.9802C7.07605 20.2593 7.24459 20.5338 7.42473 20.7961C7.49586 20.8997 7.61068 20.9554 7.72751 20.9554C7.79909 20.9554 7.8714 20.9345 7.9349 20.8909C8.10198 20.7762 8.14439 20.5478 8.02967 20.3807C7.86367 20.1389 7.70834 19.886 7.56802 19.6288Z" fill="black"/>
<path d="M14.4028 24.1022C12.4366 23.9328 10.5702 23.0807 9.14757 21.703C9.00197 21.562 8.76968 21.5657 8.62873 21.7113C8.48778 21.8569 8.49145 22.0892 8.63705 22.2301C10.1806 23.725 12.2059 24.6495 14.3397 24.8333C14.3505 24.8343 14.3611 24.8347 14.3716 24.8347C14.56 24.8347 14.7203 24.6904 14.7368 24.4993C14.7542 24.2974 14.6046 24.1196 14.4028 24.1022Z" fill="black"/>
<path d="M20.4334 7.75933C20.266 7.64499 20.0377 7.68795 19.9234 7.85522C19.8091 8.02254 19.852 8.25086 20.0193 8.3652C21.724 9.53022 22.9571 11.2638 23.4915 13.2466C23.5356 13.4103 23.6838 13.5181 23.8456 13.5181C23.8772 13.5181 23.9093 13.514 23.9412 13.5054C24.1369 13.4527 24.2528 13.2513 24.2001 13.0557C23.6202 10.904 22.2825 9.02307 20.4334 7.75933Z" fill="black"/>
</svg>
