<svg width="30" height="30" viewBox="0 0 30 30" fill="none" xmlns="http://www.w3.org/2000/svg">
<path fill-rule="evenodd" clip-rule="evenodd" d="M9.38735 16.1387V16.4113C9.43846 16.4523 9.4773 16.5087 9.49672 16.5764L10.0068 18.3252H11.9315L12.4344 16.601C12.4579 16.4882 12.5397 16.3909 12.6572 16.354C12.7809 16.315 12.9005 16.273 13.016 16.2268C13.0242 16.2227 13.0324 16.2197 13.0405 16.2166C13.0651 16.2074 13.0896 16.1971 13.1141 16.1869C13.2623 16.1254 13.4095 16.0567 13.5557 15.9798L13.5567 15.9808C13.6497 15.9327 13.7652 15.9296 13.8644 15.9839L15.46 16.8603L16.8215 15.4949L15.9608 13.9184C15.8985 13.822 15.8872 13.6949 15.9445 13.5863C16.0211 13.4397 16.0896 13.2911 16.151 13.1435C16.1612 13.1189 16.1704 13.0953 16.1806 13.0707C16.1837 13.0625 16.1867 13.0532 16.1908 13.045C16.2358 12.9292 16.2787 12.8093 16.3176 12.6852H16.3186C16.3503 12.5838 16.431 12.5007 16.5394 12.469L18.2832 11.9575V10.0273L16.5639 9.52291C16.4515 9.49934 16.3544 9.41733 16.3176 9.29945C16.2675 9.14056 16.2123 8.98783 16.151 8.84124C16.0896 8.69261 16.0212 8.545 15.9445 8.39841L15.9455 8.39739C15.8975 8.30411 15.8944 8.18827 15.9486 8.08884L16.8225 6.4887L15.461 5.12434L13.8889 5.98746C13.7929 6.04999 13.6661 6.06126 13.5578 6.00386C13.4116 5.92698 13.2634 5.8583 13.1162 5.7968C12.967 5.73529 12.8157 5.67891 12.6613 5.63074V5.62971C12.5601 5.59794 12.4763 5.51695 12.4446 5.40727L11.9346 3.6585H10.0099L9.50696 5.38266C9.48345 5.49541 9.40168 5.59279 9.28413 5.6297C9.1257 5.67993 8.9734 5.73528 8.82723 5.79576C8.67901 5.85726 8.53183 5.92697 8.38566 6.00282L8.38463 6.0018C8.29162 6.04997 8.17612 6.05305 8.07696 5.99872L6.48137 5.1223L5.11987 6.48666L5.98053 8.06321C6.04288 8.15956 6.05412 8.28667 5.99688 8.39532C5.92022 8.5419 5.85174 8.69054 5.79041 8.83917C5.72908 8.98883 5.67286 9.14053 5.62482 9.29635H5.6238C5.59211 9.39784 5.51136 9.48189 5.40199 9.51367L3.65819 10.0241V11.9544L5.37745 12.4587C5.48988 12.4823 5.58699 12.5643 5.62379 12.6822C5.67387 12.841 5.72907 12.9938 5.7904 13.1404C5.85173 13.289 5.92021 13.4366 5.99687 13.5832L5.99585 13.5842C6.04389 13.6775 6.04696 13.7933 5.99278 13.8928L5.11885 15.4929L5.43265 15.8076H9.0602C9.24112 15.8086 9.38735 15.9562 9.38735 16.1387ZM18.9394 12.0793C19.2747 12.0363 19.615 12.0137 19.9595 12.0137C20.2937 12.0137 20.629 12.0363 20.9653 12.0783C21.1595 12.1029 21.3517 12.1347 21.5408 12.1726V8.14321H19.9595V8.14219C19.8839 8.14219 19.8082 8.11656 19.7469 8.06326C19.6089 7.94537 19.5936 7.73728 19.7111 7.59993L23.5268 3.11943C23.5391 3.10508 23.5524 3.09175 23.5667 3.07945C23.7047 2.96157 23.9111 2.97797 24.0287 3.11533L27.8342 7.58166C27.8924 7.64112 27.9292 7.72312 27.9292 7.81333C27.9292 7.99579 27.782 8.1434 27.6001 8.1434H26.0188V14.8167C26.5994 15.4983 27.0686 16.2794 27.3967 17.1313C27.7411 18.0261 27.9292 18.9959 27.9292 20.0076C27.9292 22.2146 27.0369 24.2123 25.5946 25.6587C24.1524 27.1051 22.1602 28 19.9595 28C17.7588 28 15.7668 27.1051 14.3244 25.6587C12.8822 24.2124 11.9898 22.2145 11.9898 20.0076C11.9898 19.6622 12.0123 19.3208 12.0552 18.9846H9.76256C9.60311 18.9846 9.47022 18.8708 9.44058 18.7201L9.38845 18.5428V22.8564H10.9697C11.1517 22.8564 11.2989 23.004 11.2989 23.1865C11.2989 23.2767 11.2631 23.3587 11.2038 23.4181L7.39831 27.8845C7.28076 28.0229 7.07326 28.0382 6.9363 27.9203C6.92199 27.908 6.90871 27.8947 6.89644 27.8804L3.0797 23.3999C2.96216 23.2615 2.97851 23.0544 3.11548 22.9365C3.17681 22.8832 3.25347 22.8576 3.32911 22.8576V22.8566H4.91039V16.2182L4.48007 15.7867C4.36763 15.6739 4.35332 15.4997 4.43919 15.3715L5.3346 13.7325C5.28145 13.6228 5.23136 13.511 5.18434 13.3952C5.13732 13.2804 5.09337 13.1656 5.05248 13.0498L3.23714 12.5188C3.09404 12.4768 3.00102 12.3455 3.00102 12.2031H3V9.78083C3 9.62092 3.11346 9.48766 3.26371 9.45793L5.05145 8.93412C5.09131 8.81726 5.13527 8.70245 5.18229 8.58969C5.23033 8.47386 5.28041 8.36213 5.33356 8.25244L4.42486 6.58772C4.35331 6.45651 4.3809 6.29864 4.48107 6.19819L4.48005 6.19716L6.18806 4.48429C6.3005 4.37153 6.4753 4.35718 6.60304 4.44328L8.23747 5.34125C8.34684 5.28795 8.45928 5.23772 8.57377 5.18954C8.68825 5.14239 8.80273 5.09831 8.91721 5.05833L9.4477 3.23884C9.48961 3.09533 9.62044 3.00205 9.76252 3.00205V3H12.1779C12.3373 3 12.4702 3.11378 12.4999 3.26549L13.0222 5.05934C13.1387 5.09932 13.2532 5.1434 13.3656 5.19055C13.4811 5.23873 13.5925 5.28896 13.7019 5.34226L15.3619 4.43096C15.4927 4.35921 15.6502 4.38689 15.7503 4.48734L15.7514 4.48632L17.4594 6.19919C17.5718 6.31195 17.5861 6.48724 17.5003 6.61536L16.6048 8.25444C16.658 8.36412 16.7081 8.47585 16.7551 8.5917C16.8021 8.7065 16.8461 8.82234 16.887 8.93714L18.7013 9.46914C18.8444 9.51117 18.9374 9.64238 18.9374 9.78485H18.9384L18.9394 12.0793ZM21.5408 12.844V14.8593C21.5408 15.0418 21.688 15.1894 21.8699 15.1894H25.4739C26.0289 15.828 26.4766 16.564 26.7853 17.3677C27.0991 18.1847 27.2719 19.0744 27.2719 20.0063C27.2719 22.0318 26.4531 23.8646 25.1305 25.1921C23.8068 26.5196 21.9792 27.3397 19.9593 27.3397C17.9395 27.3397 16.112 26.5186 14.7882 25.1921C13.4645 23.8647 12.6468 22.0319 12.6468 20.0063C12.6468 19.4117 12.7163 18.8377 12.8461 18.2903C12.9708 17.7675 13.1537 17.2632 13.3868 16.7855C13.4941 16.7404 13.5994 16.6932 13.7016 16.643L15.336 17.541C15.4638 17.6261 15.6376 17.6127 15.751 17.5L17.459 15.7871L17.458 15.7861C17.5582 15.6856 17.5848 15.5278 17.5142 15.3965L16.6055 13.7318C16.6546 13.6293 16.7026 13.5248 16.7476 13.4161C17.2239 13.1824 17.7268 12.9989 18.2481 12.8728C18.7929 12.7416 19.3663 12.6729 19.9592 12.6729C20.2792 12.6729 20.5868 12.6924 20.8832 12.7293C21.105 12.758 21.3248 12.7959 21.5405 12.8441L21.5408 12.844ZM22.6723 18.2564C22.6723 18.4389 22.5251 18.5865 22.3432 18.5865C22.1612 18.5865 22.014 18.4389 22.014 18.2564C22.014 17.8382 21.7943 17.4548 21.4406 17.1729C21.0655 16.8746 20.5411 16.6891 19.9585 16.6891C19.3758 16.6891 18.8525 16.8736 18.4763 17.1729C18.1216 17.4548 17.9029 17.8382 17.9029 18.2564C17.9029 18.6746 18.1227 19.058 18.4763 19.3399C18.8515 19.6382 19.3758 19.8237 19.9585 19.8237C20.6924 19.8237 21.3609 20.0636 21.8485 20.4511C22.3565 20.8549 22.6713 21.4208 22.6713 22.0502C22.6713 22.6796 22.3565 23.2444 21.8485 23.6493C21.4345 23.9783 20.8907 24.2008 20.2866 24.2602V24.8794C20.2866 25.0618 20.1394 25.2094 19.9575 25.2094C19.7755 25.2094 19.6283 25.0618 19.6283 24.8794V24.2602C19.0242 24.2008 18.4805 23.9783 18.0665 23.6493C17.5585 23.2454 17.2436 22.6806 17.2436 22.0502C17.2436 21.8677 17.3908 21.7201 17.5728 21.7201C17.7547 21.7201 17.9019 21.8677 17.9019 22.0502C17.9019 22.4684 18.1217 22.8518 18.4753 23.1337C18.8505 23.432 19.3748 23.6175 19.9575 23.6175C20.5401 23.6175 21.0634 23.433 21.4396 23.1337C21.7943 22.8518 22.013 22.4684 22.013 22.0502C22.013 21.632 21.7933 21.2486 21.4396 20.9667C21.0645 20.6684 20.5401 20.4828 19.9575 20.4828C19.2235 20.4828 18.5551 20.243 18.0675 19.8555C17.5595 19.4516 17.2447 18.8858 17.2447 18.2564C17.2447 17.627 17.5595 17.0622 18.0675 16.6573C18.4814 16.3282 19.0253 16.1058 19.6293 16.0463V15.134C19.6293 14.9516 19.7765 14.804 19.9585 14.804C20.1404 14.804 20.2876 14.9516 20.2876 15.134V16.0463C20.8917 16.1058 21.4355 16.3282 21.8495 16.6573C22.3575 17.0622 22.6723 17.627 22.6723 18.2564ZM10.9696 7.02364C12.0623 7.02364 13.0507 7.4675 13.7671 8.18607C14.4826 8.90362 14.9262 9.89587 14.9262 10.9916C14.9262 12.0873 14.4836 13.0796 13.7671 13.7971C13.0506 14.5145 12.0622 14.9595 10.9696 14.9595C9.87699 14.9595 8.88746 14.5156 8.17205 13.7971C7.45653 13.0785 7.01292 12.0873 7.01292 10.9916C7.01292 9.89587 7.45551 8.90352 8.17205 8.18607C8.88756 7.4675 9.87699 7.02364 10.9696 7.02364ZM13.3021 8.65144C13.8991 9.25007 14.2681 10.0773 14.2681 10.9907C14.2681 11.904 13.8991 12.7312 13.3021 13.3299C12.7052 13.9285 11.8803 14.2985 10.9696 14.2985C10.0588 14.2985 9.23396 13.9285 8.63701 13.3299C8.04006 12.7312 7.67108 11.904 7.67108 10.9907C7.67108 10.0773 8.04009 9.25009 8.63701 8.65144C9.23393 8.05279 10.0588 7.68276 10.9696 7.68276C11.8803 7.68276 12.7052 8.05282 13.3021 8.65144ZM25.3605 14.5301V7.81276C25.3605 7.6303 25.5077 7.48269 25.6896 7.48269H26.8876L23.7792 3.83457L20.6708 7.48269H21.8687C22.0507 7.48269 22.1979 7.6303 22.1979 7.81276V14.5301H25.3605ZM8.72996 23.1846C8.72996 23.3671 8.87715 23.5147 9.05909 23.5147H10.257L7.14865 27.1628L4.04026 23.5147H5.23821C5.42016 23.5147 5.56734 23.3671 5.56734 23.1846V16.4673H8.73095L8.72996 23.1846Z" fill="black"/>
</svg>
