<svg width="50" height="50" viewBox="0 0 50 50" fill="none" xmlns="http://www.w3.org/2000/svg">
<path d="M21.6997 38.745H18.7564C17.7934 38.745 17.0103 39.5285 17.0103 40.4915C17.0103 41.4545 17.7938 42.2375 18.7564 42.2375H21.6997C22.6626 42.2375 23.4457 41.4541 23.4457 40.4911C23.4457 39.5285 22.6626 38.745 21.6997 38.745ZM21.6997 40.9476H18.7564C18.5051 40.9476 18.3007 40.7432 18.3007 40.4915C18.3007 40.2403 18.5051 40.0354 18.7564 40.0354H21.6997C21.9509 40.0354 22.1553 40.2399 22.1553 40.4915C22.1553 40.7427 21.9509 40.9476 21.6997 40.9476ZM20.228 23.5145C23.6688 23.5145 26.4683 20.7151 26.4683 17.2743C26.4683 13.8335 23.6688 11.034 20.228 11.034C16.7872 11.034 13.9878 13.8335 13.9878 17.2743C13.9878 20.7151 16.7872 23.5145 20.228 23.5145ZM20.228 12.3244C22.9575 12.3244 25.1779 14.5448 25.1779 17.2743C25.1779 20.0038 22.9575 22.2242 20.228 22.2242C17.4985 22.2242 15.2781 20.0038 15.2781 17.2743C15.2781 14.5448 17.4985 12.3244 20.228 12.3244ZM21.2756 19.0221C21.3607 18.9237 21.391 18.8123 21.3727 18.6618C21.3518 18.4885 21.3023 18.0836 20.1287 17.8907C18.3212 17.5941 18.0036 16.5723 17.9755 15.9897C17.9288 15.0307 18.572 14.2254 19.583 13.9635V13.7337C19.583 13.3774 19.8717 13.0887 20.228 13.0887C20.5843 13.0887 20.873 13.3774 20.873 13.7337V13.9577C21.5273 14.1199 22.1433 14.5466 22.4698 15.3247C22.6079 15.6534 22.4533 16.0316 22.1246 16.1692C21.7959 16.3073 21.4177 16.1527 21.2801 15.824C21.0351 15.2414 20.4338 15.0918 19.9461 15.2027C19.8276 15.2294 19.2374 15.3906 19.2637 15.9269C19.2704 16.0685 19.2886 16.4454 20.3371 16.6173C21.75 16.8494 22.529 17.4845 22.6528 18.5059C22.7152 19.0194 22.5762 19.4898 22.2511 19.8657C21.9335 20.2332 21.4395 20.4942 20.8725 20.6069V20.8144C20.8725 21.1708 20.5839 21.4594 20.2276 21.4594C19.8712 21.4594 19.5826 21.1708 19.5826 20.8144V20.5962C18.6953 20.3935 18.0174 19.7806 17.8067 18.9352C17.7203 18.5896 17.931 18.2395 18.2766 18.1531C18.6223 18.0667 18.9724 18.2774 19.0588 18.623C19.2022 19.1985 19.808 19.3905 20.2855 19.3784C20.7019 19.3686 21.0997 19.2252 21.2756 19.0221ZM40.1429 40.0492L39.3728 38.6987C39.3363 38.6346 39.3176 38.5691 39.3171 38.505C39.3131 37.852 39.1608 37.2836 38.8374 36.7162L36.2251 32.1342C35.9899 31.7217 35.6073 31.4251 35.1472 31.2995C34.6871 31.1734 34.2064 31.234 33.794 31.4692C33.6528 31.5498 33.525 31.6487 33.4123 31.7627C33.2626 31.6683 33.0978 31.5957 32.9219 31.5476C32.4551 31.4198 31.9674 31.4808 31.5487 31.7195C31.517 31.7378 31.4859 31.7569 31.4556 31.7765V7.3215C31.4556 6.04138 30.4142 5 29.1341 5H26.2001C26.197 5 26.1943 5 26.1912 5H14.2621C14.2603 5 14.2581 5 14.2563 5H11.3215C10.0414 5 9 6.04138 9 7.3215V42.6785C9 43.9586 10.0414 45 11.3215 45H29.1345C30.1483 45 31.0115 44.3466 31.3273 43.4393L32.0315 44.6744C32.1161 44.8232 32.2564 44.9319 32.4217 44.9773C32.4778 44.9924 32.5348 45 32.5918 45C32.7027 45 32.8132 44.9715 32.9112 44.9154L39.902 40.9294C40.2115 40.753 40.3193 40.3588 40.1429 40.0492ZM31.9277 33.3266C31.9157 33.1284 32.0177 32.9373 32.1878 32.8402C32.3072 32.772 32.4471 32.7551 32.5816 32.7916C32.7161 32.8286 32.8274 32.9146 32.8956 33.0339L32.9891 33.1979C33.1268 33.4393 33.4034 33.5653 33.6755 33.511C33.9481 33.4566 34.1548 33.2339 34.1895 32.9587C34.2091 32.8014 34.2982 32.6669 34.4332 32.5899C34.5463 32.5253 34.679 32.5088 34.8064 32.544C34.9338 32.5787 35.0398 32.6602 35.104 32.7734L37.7163 37.3554C37.9283 37.7277 38.0241 38.0845 38.0268 38.513C38.0272 38.5807 38.0321 38.6484 38.041 38.7156L31.9527 42.1868C31.6671 41.9636 31.313 41.8376 30.9331 41.834L29.4543 41.8202C28.9661 41.8157 28.2985 41.6875 27.8927 41.1026L26.6469 39.3076C26.2371 38.5655 26.4647 37.8377 27.2593 37.3571L27.6312 37.1318C27.9306 36.9505 28.0308 36.5643 27.8575 36.2601L24.8964 31.0661C24.7289 30.7721 24.8318 30.3962 25.1258 30.2283C25.4198 30.0608 25.7957 30.1632 25.9636 30.4577L28.3991 34.7292C28.5626 35.0156 28.9154 35.1327 29.2178 35.0009C29.5202 34.869 29.6739 34.5301 29.5746 34.2156C29.4846 33.9306 29.6075 33.6165 29.8663 33.4687C30.1656 33.2981 30.5527 33.4001 30.7291 33.6958C30.8814 33.9515 31.1892 34.07 31.4734 33.9822C31.7585 33.8949 31.946 33.6237 31.9277 33.3266ZM27.3907 30.3561L27.0843 29.8189C26.564 28.9067 25.3988 28.5878 24.4866 29.1076C23.5744 29.6279 23.2555 30.7931 23.7753 31.7053L23.8096 31.7654H13.2265C13.1392 31.7654 13.0653 31.6915 13.0653 31.6042V26.9523C13.0653 26.865 13.1392 26.791 13.2265 26.791H27.2295C27.3168 26.791 27.3907 26.865 27.3907 26.9523V30.3561ZM25.3013 6.29037L24.9111 7.49076H15.5445L15.1543 6.29037H25.3013ZM29.1345 43.7096H11.3215C10.7532 43.7096 10.2904 43.2473 10.2904 42.6785V7.3215C10.2904 6.75315 10.7527 6.29037 11.3215 6.29037H13.798L14.4626 8.33526C14.549 8.60118 14.7966 8.78112 15.0763 8.78112H25.3801C25.6598 8.78112 25.9075 8.60118 25.9939 8.33526L26.6585 6.29037H29.135C29.7033 6.29037 30.1661 6.75271 30.1661 7.3215V32.0986C29.8463 32.0999 29.5229 32.1801 29.2281 32.348C29.0445 32.4527 28.8837 32.5845 28.7483 32.7369L28.502 32.3044C28.6187 32.0932 28.6815 31.854 28.6815 31.6046V26.9523C28.6815 26.1518 28.0303 25.5006 27.2299 25.5006H13.2265C12.4261 25.5006 11.7749 26.1518 11.7749 26.9523V31.6042C11.7749 32.4046 12.4261 33.0558 13.2265 33.0558H24.5459L26.4282 36.3576C25.1494 37.2248 24.7895 38.6546 25.5391 39.9699C25.5485 39.9864 25.5587 40.0024 25.5694 40.018L26.8326 41.8384C27.3947 42.6482 28.3216 43.1003 29.4423 43.1106L30.0663 43.1163C29.9015 43.466 29.5461 43.7096 29.1345 43.7096ZM32.8323 43.4745L32.7014 43.2451L38.5715 39.8982L38.7025 40.1281L32.8323 43.4745Z" fill="black"/>
</svg>
