<svg width="50" height="50" viewBox="0 0 50 50" fill="none" xmlns="http://www.w3.org/2000/svg">
<path d="M27.5284 28.9602C28.5634 27.7219 28.7801 25.9851 28.0501 24.5151C27.3184 23.0434 25.8017 22.17 24.19 22.2484L22.5566 18.965C22.0749 17.9966 20.8949 17.5999 19.9265 18.0816C19.2981 18.395 18.9115 19.0016 18.8482 19.6533C16.8198 22.7434 14.2895 25.4434 11.3279 27.6817L6.95791 29.8551C6.6629 30.0018 6.44457 30.2535 6.33957 30.5668C6.23457 30.8785 6.2579 31.2135 6.4029 31.5068L6.67458 32.0535L5.31121 32.7318C5.17788 32.7985 5.07621 32.9152 5.02954 33.0552C4.9812 33.1968 4.99287 33.3502 5.05954 33.4835L7.02461 37.4336C7.12294 37.6303 7.32128 37.7453 7.52796 37.7453C7.61129 37.7453 7.69796 37.727 7.77797 37.687L9.14133 37.0086L9.41301 37.5553C9.62801 37.987 10.0647 38.2387 10.518 38.2387C10.7014 38.2387 10.8897 38.197 11.0647 38.1103L13.2698 37.0136L16.3048 43.1156C16.7365 43.9839 17.6132 44.4856 18.5216 44.4856C18.8916 44.4856 19.2666 44.4022 19.6183 44.2272C20.8383 43.6205 21.3383 42.1339 20.73 40.9122L17.9532 35.3303C20.7266 34.7787 23.5483 34.5936 26.3767 34.782C26.5017 34.8587 26.6367 34.9237 26.7801 34.972C26.9867 35.042 27.1984 35.0753 27.4084 35.0753C27.7068 35.0753 28.0034 35.007 28.2768 34.8703C28.7452 34.637 29.0952 34.2353 29.2618 33.737C29.4285 33.2387 29.3935 32.7069 29.1602 32.2386L27.5284 28.9602ZM27.0434 25.0151C27.495 25.9235 27.4467 26.9718 26.96 27.8169L24.7566 23.3884C25.7266 23.5101 26.5917 24.1068 27.0434 25.0151ZM7.77799 36.4356L6.31294 33.4905L7.17296 33.0622L8.638 36.0073L7.77799 36.4356ZM10.563 37.109C10.5097 37.1356 10.443 37.1123 10.4164 37.0606L7.40795 31.0103C7.39128 30.9787 7.39628 30.947 7.40295 30.927C7.40962 30.907 7.42462 30.8803 7.45795 30.8636L11.3747 28.9153L14.4815 35.1606L10.563 37.109ZM19.7251 41.4175C20.0568 42.0826 19.7834 42.8942 19.1184 43.2259C18.4534 43.5576 17.6417 43.2843 17.31 42.6192L14.2749 36.5173L15.4333 35.9406C15.8949 35.8106 16.3567 35.6906 16.8216 35.5806L19.7251 41.4175ZM15.53 34.7507L12.3349 28.3271C14.9967 26.2637 17.31 23.8354 19.23 21.0919L25.4604 33.617C22.1136 33.4903 18.7803 33.872 15.5303 34.7504L15.53 34.7507ZM28.1985 33.384C28.1268 33.5973 27.9768 33.769 27.7785 33.869C27.5802 33.9673 27.3518 33.984 27.1385 33.9123C26.9251 33.8407 26.7535 33.6907 26.6535 33.4923L20.0485 20.2154C19.8418 19.8004 20.0118 19.297 20.4252 19.0904C20.8402 18.8837 21.3435 19.0537 21.5502 19.467L28.1552 32.744C28.2552 32.944 28.2702 33.1707 28.1985 33.384ZM27.4585 18.9418L26.7251 21.1285C26.6468 21.3635 26.4268 21.5119 26.1934 21.5119C26.1351 21.5119 26.0734 21.5019 26.0151 21.4819C25.7201 21.3835 25.5634 21.0652 25.6617 20.7702L26.3951 18.5834C26.4935 18.2884 26.8118 18.1318 27.1068 18.2301C27.3985 18.3301 27.5568 18.6484 27.4585 18.9418ZM28.9702 24.0568C28.8319 23.7785 28.9452 23.4418 29.2235 23.3035L31.2886 22.2751C31.5669 22.1368 31.9036 22.2501 32.0419 22.5284C32.1803 22.8068 32.0669 23.1434 31.7886 23.2818L29.7235 24.3102C29.6435 24.3502 29.5585 24.3685 29.4735 24.3685C29.2669 24.3685 29.0685 24.2552 28.9702 24.0568ZM31.9586 29.4419C31.9003 29.4419 31.8386 29.4319 31.7803 29.4119L29.5935 28.6786C29.3002 28.5802 29.1419 28.2619 29.2402 27.9669C29.3385 27.6718 29.6569 27.5152 29.9519 27.6135L32.1386 28.3469C32.4336 28.4452 32.5903 28.7636 32.492 29.0586C32.412 29.2953 32.1936 29.4419 31.9586 29.4419ZM21.4734 14.035C21.9584 14.1983 22.4568 14.2783 22.9535 14.2783C23.6601 14.2783 24.3635 14.115 25.0152 13.79C26.1236 13.2383 26.9519 12.2883 27.3469 11.1133C27.7419 9.93825 27.6536 8.68155 27.1019 7.57151C25.9635 5.28144 23.1735 4.34642 20.8852 5.4848C18.5951 6.62317 17.6601 9.41322 18.7985 11.7015C19.3485 12.8132 20.2984 13.6416 21.4734 14.035ZM21.3834 6.49133C23.1185 5.62798 25.2318 6.33799 26.0952 8.07302C26.5136 8.91307 26.5786 9.86639 26.2802 10.7564C25.9819 11.6465 25.3552 12.3665 24.5135 12.7848C23.6735 13.2032 22.7202 13.2682 21.8301 12.9698C20.9401 12.6715 20.2201 12.0448 19.8017 11.2031C18.9384 9.46809 19.6484 7.35471 21.3834 6.49133ZM20.8217 9.64973C20.6284 9.26138 20.6534 8.79138 20.8901 8.35971C21.0117 8.1397 21.1817 7.93803 21.3901 7.7647L21.2551 7.49137C21.1168 7.21303 21.2301 6.87635 21.5084 6.73802C21.7868 6.59969 22.1234 6.71302 22.2618 6.99136L22.3968 7.26304C22.8385 7.1597 23.2785 7.19137 23.6385 7.36304C23.9185 7.49805 24.0368 7.83307 23.9018 8.11139C23.7668 8.3914 23.4318 8.50974 23.1518 8.37473C22.9952 8.29973 22.6902 8.2964 22.3635 8.45974C22.1451 8.56808 21.9668 8.72808 21.8735 8.89806C21.8185 8.99973 21.8001 9.09474 21.8251 9.1464C21.8835 9.26474 22.2601 9.34974 22.6968 9.13307C23.6552 8.65639 24.7002 8.8714 25.0752 9.62473C25.3802 10.2397 25.1319 10.9948 24.5069 11.5098L24.6419 11.7815C24.7802 12.0598 24.6669 12.3965 24.3902 12.5348C24.3102 12.5748 24.2252 12.5932 24.1402 12.5932C23.9335 12.5932 23.7352 12.4781 23.6369 12.2815L23.5019 12.0098C23.3335 12.0498 23.1668 12.0698 23.0035 12.0698C22.7368 12.0698 22.4818 12.0165 22.2585 11.9098C21.9785 11.7748 21.8601 11.4398 21.9951 11.1614C22.1301 10.8814 22.4652 10.7631 22.7435 10.8981C22.9001 10.9731 23.2051 10.9764 23.5318 10.8131C23.9685 10.5964 24.1285 10.2448 24.0685 10.1264C24.0102 10.0081 23.6335 9.92307 23.1968 10.1414C22.2401 10.6181 21.1951 10.4014 20.8217 9.64973ZM38.3121 33.1618C37.1371 32.7668 35.8804 32.8535 34.7704 33.4068C33.662 33.9585 32.8336 34.9085 32.4387 36.0836C32.0436 37.2586 32.132 38.5153 32.6837 39.6253C33.4937 41.2537 35.1371 42.1971 36.8438 42.1971C37.5371 42.1971 38.2405 42.0404 38.9022 41.7121C41.1922 40.5737 42.1273 37.7836 40.9889 35.4953C40.4372 34.3836 39.4872 33.5569 38.3121 33.1618ZM38.4021 40.7055C36.6671 41.5688 34.5537 40.8588 33.6903 39.1238C33.272 38.2838 33.207 37.3304 33.5053 36.4404C33.8037 35.5504 34.4304 34.8304 35.272 34.412C35.7654 34.167 36.2987 34.042 36.8338 34.042C37.2104 34.042 37.5888 34.1037 37.9555 34.227C38.8455 34.5253 39.5655 35.152 39.9838 35.9937C40.8472 37.7287 40.1372 39.8421 38.4021 40.7055ZM38.9638 37.5471C39.1572 37.9355 39.1322 38.4055 38.8955 38.8371C38.7738 39.0571 38.6038 39.2588 38.3955 39.4321L38.5305 39.7055C38.6688 39.9838 38.5555 40.3205 38.2771 40.4588C38.1971 40.4988 38.1121 40.5171 38.0271 40.5171C37.8204 40.5171 37.6221 40.4021 37.5238 40.2055L37.3888 39.9338C37.2204 39.9738 37.0537 39.9938 36.8904 39.9938C36.6237 39.9938 36.3687 39.9405 36.1454 39.8338C35.8654 39.6988 35.747 39.3638 35.882 39.0854C36.017 38.8054 36.3521 38.6871 36.6304 38.8221C36.7871 38.8971 37.092 38.9004 37.4188 38.7371C37.6371 38.6288 37.8154 38.4688 37.9071 38.2988C37.9621 38.1971 37.9821 38.1021 37.9554 38.0488C37.8971 37.9304 37.5204 37.8454 37.0837 38.0638C36.1254 38.5404 35.0803 38.3254 34.707 37.5721C34.402 36.9571 34.6503 36.2021 35.2753 35.687L35.1403 35.4154C35.002 35.137 35.1153 34.8003 35.3937 34.662C35.672 34.5237 36.0087 34.637 36.147 34.9137L36.282 35.1854C36.7237 35.082 37.1637 35.1137 37.5237 35.2854C37.8037 35.4204 37.9221 35.7554 37.7871 36.0337C37.6521 36.3137 37.317 36.4321 37.0371 36.2971C36.8804 36.2221 36.5754 36.2187 36.2487 36.3821C35.812 36.5987 35.652 36.9504 35.712 37.0688C35.7703 37.1871 36.147 37.2721 36.5837 37.0538C37.5454 36.5787 38.5905 36.7954 38.9638 37.5471ZM32.8619 18.2314C33.3469 18.3947 33.8453 18.4747 34.342 18.4747C35.0486 18.4747 35.752 18.3114 36.4037 17.9864C38.6937 16.848 39.6288 14.058 38.4904 11.7697C37.9387 10.6613 36.9887 9.83295 35.8137 9.43797C34.6386 9.04299 33.3819 9.12963 32.2719 9.68298C31.1635 10.2347 30.3351 11.1847 29.9402 12.3597C29.5452 13.5347 29.6318 14.7914 30.1852 15.9015C30.7369 17.0082 31.6869 17.8364 32.8619 18.2314ZM31.0052 12.7161C31.3035 11.8261 31.9319 11.1061 32.7719 10.6877C33.2652 10.4427 33.7985 10.3177 34.3336 10.3177C34.7103 10.3177 35.0886 10.3794 35.4553 10.5027C36.3453 10.8011 37.0653 11.4294 37.4837 12.2694C38.347 14.0045 37.637 16.1179 35.902 16.9813C35.0619 17.3996 34.1086 17.4646 33.2186 17.1663C32.3285 16.8679 31.6085 16.2412 31.1902 15.3996C30.7718 14.5595 30.7068 13.6062 31.0052 12.7161ZM32.2085 13.8462C32.0152 13.4578 32.0402 12.9878 32.2769 12.5561C32.3985 12.3361 32.5685 12.1345 32.7769 11.9611L32.6419 11.6878C32.5035 11.4095 32.6169 11.0728 32.8952 10.9344C33.1736 10.7961 33.5102 10.9094 33.6486 11.1878L33.7836 11.4595C34.2253 11.3561 34.6653 11.3878 35.0253 11.5595C35.3053 11.6945 35.4236 12.0295 35.2886 12.3078C35.1536 12.5878 34.8186 12.7062 34.5403 12.5712C34.3836 12.4962 34.0786 12.4928 33.7519 12.6562C33.5336 12.7645 33.3552 12.9245 33.2619 13.0945C33.2069 13.1962 33.1886 13.2912 33.2136 13.3445C33.2402 13.3962 33.3269 13.4395 33.4419 13.4562C33.6336 13.4845 33.8686 13.4378 34.0869 13.3295C34.5103 13.1178 34.9753 13.0362 35.3953 13.0978C35.882 13.1695 36.272 13.4328 36.4653 13.8212C36.6586 14.2095 36.6336 14.6795 36.397 15.1112C36.2753 15.3312 36.1053 15.5329 35.897 15.7062L36.032 15.9795C36.1703 16.2579 36.057 16.5945 35.7786 16.7329C35.6986 16.7729 35.6136 16.7912 35.5286 16.7912C35.3219 16.7912 35.1236 16.6762 35.0253 16.4795L34.8903 16.2079C34.7219 16.2479 34.5552 16.2679 34.3919 16.2679C34.1252 16.2679 33.8702 16.2145 33.6469 16.1079C33.3669 15.9728 33.2485 15.6378 33.3835 15.3595C33.5185 15.0795 33.8536 14.9612 34.1319 15.0962C34.2885 15.1712 34.5935 15.1745 34.9202 15.0112C35.1386 14.9028 35.3169 14.7428 35.4102 14.5728C35.4653 14.4712 35.4836 14.3762 35.4586 14.3245C35.4319 14.2728 35.3452 14.2295 35.2302 14.2128C35.0386 14.1845 34.8036 14.2312 34.5869 14.3395C34.1635 14.5512 33.6985 14.6328 33.2785 14.5712C32.7919 14.4962 32.4018 14.2345 32.2085 13.8462ZM44.5122 23.8799C43.9605 22.7699 43.0105 21.9432 41.8355 21.5482C40.6605 21.1532 39.4038 21.2415 38.2937 21.7932C36.0037 22.9316 35.0686 25.7216 36.207 28.0099C37.017 29.6383 38.6604 30.5816 40.3671 30.5816C41.0605 30.5816 41.7638 30.425 42.4255 30.0966C43.5339 29.5449 44.3622 28.5949 44.7572 27.4199C45.1506 26.2449 45.0639 24.9883 44.5122 23.8799ZM43.6922 27.0633C43.3938 27.9533 42.7671 28.6733 41.9255 29.0917C40.1904 29.955 38.0771 29.245 37.2137 27.51C36.3503 25.775 37.0603 23.6616 38.7954 22.7982C39.2887 22.5532 39.822 22.4282 40.3571 22.4282C40.7338 22.4282 41.1121 22.4899 41.4788 22.6132C42.3688 22.9115 43.0888 23.5399 43.5072 24.3799C43.9255 25.2199 43.9905 26.1733 43.6922 27.0633ZM42.4888 25.9333C42.6822 26.3217 42.6572 26.7917 42.4205 27.2233C42.2988 27.4433 42.1288 27.645 41.9205 27.8183L42.0555 28.0917C42.1938 28.37 42.0805 28.7067 41.8021 28.845C41.7221 28.885 41.6371 28.9033 41.5521 28.9033C41.3454 28.9033 41.1471 28.7883 41.0488 28.5917L40.9138 28.32C40.7454 28.36 40.5788 28.38 40.4154 28.38C40.1487 28.38 39.8937 28.3267 39.6704 28.22C39.3904 28.085 39.272 27.75 39.407 27.4716C39.542 27.1916 39.8771 27.0733 40.1554 27.2083C40.3121 27.2833 40.6171 27.2866 40.9438 27.1233C41.1621 27.015 41.3404 26.855 41.4321 26.685C41.4871 26.5833 41.5071 26.4883 41.4804 26.435C41.4221 26.3166 41.0454 26.2316 40.6087 26.45C39.6504 26.9266 38.6053 26.7116 38.232 25.9583C37.927 25.3433 38.1753 24.5883 38.8003 24.0732L38.6653 23.8016C38.527 23.5232 38.6403 23.1865 38.917 23.0482C39.1953 22.9099 39.532 23.0232 39.6703 23.2999L39.8053 23.5716C40.247 23.4682 40.687 23.4999 41.0471 23.6716C41.3271 23.8066 41.4454 24.1416 41.3104 24.4199C41.1754 24.6999 40.8404 24.8183 40.5604 24.6833C40.4037 24.6083 40.0987 24.6049 39.772 24.7683C39.3354 24.9849 39.1754 25.3366 39.2353 25.455C39.2937 25.5733 39.6703 25.6583 40.1071 25.44C41.0704 24.9649 42.1138 25.18 42.4888 25.9333Z" fill="black"/>
</svg>
