<svg width="50" height="50" viewBox="0 0 50 50" fill="none" xmlns="http://www.w3.org/2000/svg">
<path d="M21.5047 17.6638C21.873 17.6638 22.1716 17.3652 22.1716 16.997V11.7724C22.4386 11.859 22.7049 11.9078 22.9667 11.9078C23.8159 11.9078 24.6224 11.5213 25.2876 11.2025C26.5099 10.6167 27.2409 10.3221 28.0324 11.0824C28.2252 11.267 28.5091 11.3187 28.7556 11.2146C29.0014 11.1097 29.161 10.8684 29.161 10.6011V6.3064C29.161 6.12471 29.0871 5.95116 28.9559 5.82548C27.4594 4.38859 25.8711 5.14985 24.7113 5.70501C23.489 6.29109 22.7586 6.58577 21.9664 5.82516C21.7734 5.63989 21.4884 5.58812 21.2433 5.69296C20.9974 5.7978 20.8379 6.03908 20.8379 6.3064V10.6011V16.997C20.8379 17.3652 21.1365 17.6638 21.5047 17.6638ZM22.1716 7.48964C23.3047 7.85758 24.4173 7.32456 25.2876 6.90779C26.4047 6.37217 27.11 6.08075 27.8273 6.61312V9.41787C26.6936 9.05059 25.5813 9.58263 24.7113 9.99973C23.5941 10.5353 22.8889 10.8271 22.1716 10.2944V7.48964Z" fill="black"/>
<path d="M28.4941 32.3359C28.1259 32.3359 27.8273 32.6345 27.8273 33.0028V38.2152C26.6939 37.8472 25.5819 38.3799 24.7113 38.7969C23.489 39.383 22.7586 39.6783 21.9664 38.917C21.7734 38.7318 21.4884 38.6803 21.2433 38.7849C20.9974 38.8897 20.8379 39.131 20.8379 39.3983V43.693C20.8379 43.8747 20.9118 44.0482 21.043 44.1739C21.6812 44.7867 22.3357 44.9997 22.9667 44.9997C23.8159 44.9997 24.6224 44.6132 25.2876 44.2944C26.5099 43.7086 27.2409 43.414 28.0324 44.1743C28.2252 44.3589 28.5091 44.4097 28.7556 44.3064C29.0014 44.2016 29.161 43.9603 29.161 43.693V39.3983V33.0028C29.161 32.6345 28.8624 32.3359 28.4941 32.3359ZM27.8273 42.5098C26.6936 42.1418 25.5813 42.6748 24.7113 43.0916C23.5941 43.6269 22.8889 43.9183 22.1716 43.3863V40.5815C23.3047 40.9488 24.4173 40.4168 25.2876 39.9997C26.4047 39.4644 27.11 39.173 27.8273 39.705V42.5098Z" fill="black"/>
<path d="M44.2946 24.7113C43.7089 23.4886 43.4142 22.7583 44.1745 21.9664C44.3594 21.7737 44.4115 21.4891 44.3067 21.2433C44.2018 20.9974 43.9606 20.8379 43.6933 20.8379H39.3985C39.2168 20.8379 39.0433 20.9118 38.9176 21.043C37.4804 22.5401 38.2413 24.1281 38.7971 25.2876C39.3829 26.5102 39.6776 27.2406 38.9173 28.0324C38.7323 28.2252 38.6803 28.5098 38.7851 28.7556C38.8899 29.0014 39.1312 29.161 39.3985 29.161H43.6933C43.8749 29.161 44.0485 29.0871 44.1742 28.9559C45.6114 27.4587 44.8505 25.8708 44.2946 24.7113ZM43.3865 27.8273H40.5818C40.95 26.6936 40.417 25.5816 39.9999 24.7113C39.4646 23.5948 39.1726 22.8889 39.7053 22.1716H42.51C42.1418 23.3053 42.6748 24.4173 43.0919 25.2876C43.6272 26.4041 43.9192 27.11 43.3865 27.8273Z" fill="black"/>
<path d="M36.338 18.9297H13.6629C13.2947 18.9297 12.9961 19.2283 12.9961 19.5965V30.4004C12.9961 30.7687 13.2947 31.0672 13.6629 31.0672H36.338C36.7063 31.0672 37.0048 30.7687 37.0048 30.4004V19.5965C37.0048 19.2283 36.7063 18.9297 36.338 18.9297ZM35.6712 29.7336H14.3298V20.2634H35.6712V29.7336Z" fill="black"/>
<path d="M30.3993 27.0014C30.031 27.0014 29.7324 27.2999 29.7324 27.6682C29.7324 28.0365 30.031 28.335 30.3993 28.335H33.0985C33.4668 28.335 33.7654 28.0365 33.7654 27.6682V22.3329C33.7654 21.9646 33.4668 21.666 33.0985 21.666H30.3993C30.031 21.666 29.7324 21.9646 29.7324 22.3329C29.7324 22.7011 30.031 22.9997 30.3993 22.9997H32.4317V27.0014H30.3993Z" fill="black"/>
<path d="M17.4422 28.335H20.1415C20.5097 28.335 20.8083 28.0365 20.8083 27.6682C20.8083 27.2999 20.5097 27.0014 20.1415 27.0014H18.1091V22.9997H20.1415C20.5097 22.9997 20.8083 22.7011 20.8083 22.3329C20.8083 21.9646 20.5097 21.666 20.1415 21.666H17.4422C17.074 21.666 16.7754 21.9646 16.7754 22.3329V27.6682C16.7754 28.0365 17.074 28.335 17.4422 28.335Z" fill="black"/>
<path d="M11.0824 21.043C10.9567 20.9118 10.7831 20.8379 10.6015 20.8379H6.30674C6.03942 20.8379 5.79815 20.9974 5.6933 21.2433C5.58846 21.4891 5.64055 21.7737 5.8255 21.9664C6.58578 22.7583 6.29111 23.4886 5.70535 24.7113C5.14954 25.8708 4.3886 27.4587 5.82582 28.9559C5.9515 29.0871 6.12505 29.161 6.30674 29.161H10.6015C10.8688 29.161 11.1101 29.0014 11.2149 28.7556C11.3197 28.5098 11.2676 28.2252 11.0827 28.0324C10.3224 27.2406 10.6171 26.5102 11.2028 25.2876C11.7587 24.1281 12.5196 22.5401 11.0824 21.043ZM10.0001 24.7113C9.58297 25.5816 9.04995 26.6936 9.41821 27.8273H6.61346C6.08077 27.11 6.37284 26.4041 6.90813 25.2876C7.32523 24.4173 7.85824 23.3053 7.48998 22.1716H10.2947C10.8274 22.8889 10.5354 23.5948 10.0001 24.7113Z" fill="black"/>
<path d="M25.0005 28.3683C26.8575 28.3683 28.3683 26.8575 28.3683 25.0005C28.3683 23.1436 26.8575 21.6328 25.0005 21.6328C23.1436 21.6328 21.6328 23.1436 21.6328 25.0005C21.6328 26.8575 23.1436 28.3683 25.0005 28.3683ZM25.0005 22.9665C26.1222 22.9665 27.0346 23.8788 27.0346 25.0005C27.0346 26.1222 26.1222 27.0346 25.0005 27.0346C23.8788 27.0346 22.9665 26.1222 22.9665 25.0005C22.9665 23.8788 23.8788 22.9665 25.0005 22.9665Z" fill="black"/>
</svg>
