<svg width="40" height="40" viewBox="0 0 40 40" fill="none" xmlns="http://www.w3.org/2000/svg">
<path d="M12.2344 12.1942C11.4778 12.1942 10.7666 12.4888 10.2317 13.0236C9.69692 13.5585 9.40233 14.2697 9.40201 15.0263C9.40201 16.5879 10.6725 17.8587 12.2344 17.8587C13.7963 17.8587 15.0668 16.5882 15.0668 15.0263C15.0668 13.4647 13.7963 12.1942 12.2344 12.1942ZM12.2344 17.2066C11.0322 17.2066 10.0544 16.2285 10.0544 15.0266C10.0544 14.4445 10.2813 13.8969 10.6929 13.4851C11.1047 13.0732 11.6522 12.8466 12.2344 12.8466C13.4366 12.8466 14.4144 13.8248 14.4144 15.0266C14.4144 16.2285 13.4366 17.2066 12.2344 17.2066ZM16.6758 20.094C17.2141 20.4058 17.8853 20.2777 18.2707 19.7896C18.7312 19.2068 19.104 18.5626 19.3785 17.8753C19.6096 17.2963 19.3852 16.6505 18.8446 16.3397C18.3756 16.0702 18.0845 15.5669 18.0845 15.0266C18.0845 14.4864 18.3759 13.9834 18.8446 13.7136C19.3852 13.4028 19.6099 12.757 19.3785 12.178C19.1043 11.4907 18.7315 10.8468 18.2707 10.2637C17.8849 9.77558 17.2144 9.64751 16.6758 9.95926C16.208 10.23 15.6268 10.2306 15.1593 9.96053C14.6915 9.69041 14.4017 9.18672 14.4023 8.64617C14.4033 8.02236 13.9559 7.50533 13.3384 7.41635C12.6119 7.3118 11.8572 7.3118 11.1301 7.41635C10.513 7.50533 10.0655 8.02236 10.0662 8.64617C10.0671 9.18704 9.777 9.69073 9.30922 9.96053C8.84176 10.2303 8.26085 10.23 7.79276 9.95894C7.25411 9.64719 6.58359 9.77526 6.1978 10.2634C5.73701 10.8462 5.36457 11.4903 5.09032 12.1777C4.85929 12.7567 5.08365 13.4024 5.6242 13.7132C6.09325 13.9827 6.38465 14.4861 6.38465 15.0263C6.38465 15.5666 6.09325 16.0696 5.6242 16.3394C5.08365 16.6502 4.85929 17.2959 5.09032 17.8749C5.36457 18.562 5.73733 19.2061 6.1978 19.7893C6.58359 20.2774 7.25443 20.4058 7.79276 20.094C8.26053 19.8233 8.84144 19.8226 9.30922 20.0928C9.777 20.3629 10.0668 20.8666 10.0662 21.4071C10.0652 22.0309 10.5127 22.548 11.1301 22.6369C11.4934 22.6894 11.8648 22.7157 12.2341 22.7157C12.6034 22.7157 12.9749 22.689 13.3384 22.6369C13.9555 22.548 14.403 22.0309 14.402 21.4071C14.4011 20.8662 14.6912 20.3626 15.159 20.0928C15.6271 19.8226 16.208 19.823 16.6758 20.094ZM14.8333 19.5277C14.164 19.9142 13.749 20.6346 13.7503 21.4077C13.7506 21.7036 13.5386 21.9489 13.2456 21.9912C12.5799 22.0872 11.8884 22.0872 11.2232 21.9912C10.9302 21.9489 10.7183 21.7036 10.7186 21.4077C10.7195 20.6343 10.3045 19.9138 9.63558 19.5274C9.30159 19.3345 8.92724 19.2382 8.5529 19.2382C8.17727 19.2382 7.80165 19.3352 7.46639 19.529C7.21089 19.6768 6.89279 19.6161 6.70975 19.3844C6.28805 18.8509 5.94707 18.2614 5.69602 17.6328C5.58638 17.3582 5.69284 17.0519 5.94929 16.9044C6.62013 16.5186 7.03675 15.7989 7.03675 15.026C7.03675 14.2532 6.62013 13.5334 5.94929 13.1476C5.69284 13.0001 5.58638 12.6938 5.69602 12.4192C5.94707 11.7903 6.28805 11.2012 6.70975 10.6676C6.89279 10.4359 7.21089 10.3752 7.46639 10.523C8.13533 10.9104 8.96665 10.911 9.63558 10.5249C10.3048 10.1385 10.7199 9.41807 10.7186 8.6449C10.7183 8.34905 10.9306 8.10372 11.2232 8.06145C11.889 7.96548 12.5802 7.9658 13.2456 8.06145C13.5386 8.10372 13.7506 8.34905 13.7503 8.6449C13.749 9.41839 14.164 10.1388 14.8333 10.5252C15.5022 10.9113 16.3332 10.9107 17.0025 10.5233C17.258 10.3756 17.5761 10.4363 17.7591 10.6679C18.1808 11.2015 18.5218 11.791 18.7728 12.4195C18.8825 12.6941 18.776 13.0005 18.5196 13.1479C17.8487 13.5337 17.4321 14.2535 17.4321 15.0263C17.4321 15.7992 17.8487 16.519 18.5196 16.9047C18.776 17.0522 18.8825 17.3585 18.7728 17.6331C18.5218 18.262 18.1808 18.8515 17.7591 19.3847C17.5761 19.6164 17.258 19.6771 17.0025 19.5293C16.3335 19.1419 15.5022 19.1413 14.8333 19.5277ZM22.837 24.4785C21.2754 24.4785 20.0046 25.749 20.0046 27.3109C20.0046 28.8725 21.2751 30.1433 22.837 30.1433C24.3989 30.1433 25.6694 28.8728 25.6694 27.3109C25.6694 25.749 24.3986 24.4785 22.837 24.4785ZM22.837 29.4909C21.6348 29.4909 20.657 28.5128 20.657 27.3109C20.657 26.1087 21.6351 25.1309 22.837 25.1309C24.0391 25.1309 25.017 26.109 25.017 27.3109C25.017 28.5128 24.0391 29.4909 22.837 29.4909ZM29.4472 25.9978C29.9877 25.687 30.2121 25.0413 29.9811 24.4623C29.7068 23.7752 29.3341 23.1311 28.8733 22.548C28.4878 22.0598 27.817 21.9318 27.2783 22.2432C26.8105 22.5139 26.2293 22.5146 25.7619 22.2445C25.2941 21.9744 25.0043 21.4707 25.0049 20.9301C25.0058 20.3063 24.5584 19.7893 23.9413 19.7003C23.2154 19.5957 22.4604 19.5954 21.733 19.7003C21.1155 19.7893 20.6684 20.3063 20.6694 20.9301C20.67 21.471 20.3802 21.9747 19.9124 22.2445C19.4449 22.5143 18.864 22.5139 18.3959 22.2432C17.8573 21.9315 17.1868 22.0595 16.801 22.5476C16.3402 23.1304 15.9677 23.7746 15.6932 24.462C15.4622 25.041 15.6865 25.6867 16.2271 25.9975C16.6961 26.2673 16.9875 26.7703 16.9875 27.3106C16.9875 27.8508 16.6961 28.3539 16.2271 28.6237C15.6865 28.9345 15.4622 29.5802 15.6932 30.1592C15.9677 30.8466 16.3402 31.4904 16.801 32.0735C17.1868 32.5616 17.8576 32.6897 18.3959 32.3783C18.8637 32.1075 19.4449 32.1069 19.9124 32.377C20.3802 32.6471 20.67 33.1508 20.6694 33.6914C20.6684 34.3152 21.1158 34.8322 21.7333 34.9212C22.0965 34.9736 22.468 35 22.8373 35C23.2065 35 23.5777 34.9733 23.9416 34.9212C24.5587 34.8322 25.0062 34.3149 25.0052 33.6914C25.0043 33.1505 25.2944 32.6471 25.7622 32.377C26.2296 32.1072 26.8109 32.1075 27.2786 32.3783C27.8173 32.69 28.4881 32.562 28.8736 32.0738C29.3344 31.491 29.7068 30.8469 29.9814 30.1595C30.2124 29.5805 29.9881 28.9348 29.4475 28.624C28.9785 28.3545 28.6874 27.8511 28.6874 27.3109C28.6867 26.7707 28.9781 26.2673 29.4472 25.9978ZM28.0346 27.3109C28.0346 28.0837 28.4513 28.8035 29.1221 29.1893C29.3786 29.3368 29.485 29.6431 29.3754 29.9177C29.1243 30.5466 28.7833 31.1357 28.3616 31.6693C28.1786 31.901 27.8605 31.9617 27.605 31.8139C26.9361 31.4265 26.1047 31.4259 25.4358 31.812C24.7666 32.1984 24.3515 32.9188 24.3528 33.692C24.3531 33.9879 24.1412 34.2332 23.8482 34.2755C23.1824 34.3714 22.4909 34.3714 21.8258 34.2755C21.5328 34.2332 21.3208 33.9879 21.3211 33.692C21.3224 32.9185 20.9074 32.1981 20.2381 31.8117C19.9041 31.6188 19.5298 31.5225 19.1554 31.5225C18.7798 31.5225 18.4042 31.6194 18.0689 31.8133C17.8134 31.961 17.4953 31.9003 17.3123 31.6687C16.8909 31.1351 16.5496 30.5459 16.2986 29.917C16.1889 29.6425 16.2954 29.3361 16.5518 29.1887C17.2227 28.8029 17.6393 28.0831 17.6393 27.3103C17.6393 26.5374 17.2227 25.8176 16.5518 25.4318C16.2954 25.2844 16.1889 24.978 16.2986 24.7035C16.5496 24.0746 16.8906 23.4854 17.3123 22.9519C17.4953 22.7202 17.8134 22.6595 18.0689 22.8073C18.7382 23.1943 19.5692 23.1953 20.2381 22.8092C20.9074 22.4227 21.3224 21.7023 21.3211 20.9288C21.3208 20.633 21.5328 20.3877 21.8258 20.3454C22.4919 20.2494 23.1837 20.2497 23.8482 20.3454C24.1412 20.3877 24.3531 20.633 24.3528 20.9288C24.3515 21.7023 24.7666 22.4227 25.4358 22.8092C26.1047 23.1953 26.9357 23.1946 27.605 22.8073C27.8605 22.6595 28.1786 22.7202 28.3616 22.9519C28.7833 23.4854 29.1243 24.0749 29.3754 24.7035C29.485 24.978 29.3786 25.2844 29.1221 25.4318C28.4513 25.818 28.0346 26.5377 28.0346 27.3109ZM34.1386 14.0018C33.6696 13.7323 33.3785 13.2289 33.3785 12.6887C33.3785 12.1485 33.6699 11.6454 34.139 11.3756C34.6795 11.0648 34.9039 10.4191 34.6728 9.84009C34.3986 9.15304 34.0258 8.50889 33.565 7.92576C33.1792 7.43764 32.5087 7.30957 31.9701 7.62132C31.5023 7.89207 30.9211 7.89271 30.4536 7.62259C29.9858 7.35248 29.696 6.84879 29.6967 6.30824C29.6976 5.68443 29.2502 5.16739 28.6327 5.07841C27.9066 4.97386 27.1515 4.97386 26.4244 5.07841C25.8073 5.16739 25.3599 5.68474 25.3608 6.30824C25.3618 6.84911 25.0716 7.35279 24.6038 7.62259C24.1364 7.89239 23.5555 7.89207 23.0874 7.621C22.5487 7.30957 21.8782 7.43764 21.4924 7.92576C21.0316 8.50857 20.6592 9.15272 20.3846 9.84009C20.1536 10.4191 20.378 11.0648 20.9185 11.3756C21.3876 11.6451 21.6786 12.1485 21.6786 12.6887C21.6786 13.2289 21.3872 13.732 20.9185 14.0018C20.378 14.3126 20.1536 14.9583 20.3846 15.5373C20.6589 16.2247 21.0316 16.8685 21.4924 17.4517C21.8782 17.9398 22.5491 18.0678 23.0874 17.7564C23.5552 17.4857 24.1364 17.485 24.6038 17.7551C25.0716 18.0253 25.3614 18.5289 25.3608 19.0695C25.3599 19.6933 25.8073 20.2103 26.4247 20.2993C26.788 20.3517 27.1595 20.3781 27.5287 20.3781C27.898 20.3781 28.2695 20.3514 28.633 20.2993C29.2502 20.2103 29.6976 19.6933 29.697 19.0695C29.696 18.5286 29.9862 18.0249 30.4539 17.7551C30.9214 17.4853 31.5026 17.486 31.9704 17.7564C32.509 18.0682 33.1799 17.9401 33.5654 17.452C34.0261 16.8692 34.3986 16.225 34.6731 15.5376C34.9035 14.9583 34.6792 14.3126 34.1386 14.0018ZM33.0531 17.0474C32.87 17.2791 32.5519 17.3398 32.2964 17.192C31.6272 16.8046 30.7962 16.804 30.1272 17.1901C29.458 17.5765 29.043 18.297 29.0442 19.0701C29.0446 19.366 28.8326 19.6113 28.5396 19.6536C27.8742 19.7495 27.1827 19.7495 26.5172 19.6536C26.2242 19.6113 26.0123 19.366 26.0126 19.0701C26.0139 18.2966 25.5988 17.5762 24.9296 17.1898C24.5956 16.9969 24.2212 16.9006 23.8469 16.9006C23.4713 16.9006 23.0956 16.9975 22.7604 17.1914C22.5049 17.3392 22.1868 17.2785 22.0037 17.0468C21.582 16.5132 21.2411 15.9237 20.99 15.2952C20.8804 15.0206 20.9868 14.7143 21.2433 14.5668C21.9141 14.181 22.3307 13.4616 22.3307 12.6884C22.3307 11.9155 21.9141 11.1958 21.2433 10.81C20.9868 10.6625 20.8804 10.3562 20.99 10.0816C21.2411 9.45271 21.582 8.86354 22.0037 8.32998C22.1868 8.09831 22.5049 8.03762 22.7604 8.18539C23.4293 8.57277 24.2606 8.5734 24.9296 8.18729C25.5988 7.80087 26.0139 7.08045 26.0126 6.30728C26.0123 6.01143 26.2245 5.7661 26.5172 5.72383C27.1827 5.62818 27.8748 5.62818 28.5396 5.72383C28.8326 5.7661 29.0446 6.01143 29.0442 6.30728C29.043 7.08077 29.458 7.80119 30.1272 8.18761C30.7962 8.57372 31.6272 8.57308 32.2964 8.1857C32.5519 8.03794 32.87 8.09863 33.0531 8.3303C33.4748 8.86417 33.8158 9.45335 34.0668 10.0819C34.1765 10.3565 34.07 10.6628 33.8135 10.8103C33.1427 11.1961 32.7261 11.9155 32.7261 12.6887C32.7261 13.4616 33.1427 14.1813 33.8135 14.5671C34.07 14.7146 34.1765 15.0209 34.0668 15.2955C33.8158 15.9244 33.4748 16.5139 33.0531 17.0474ZM27.5284 9.85661C25.9668 9.85661 24.696 11.1271 24.696 12.689C24.696 14.2506 25.9665 15.5214 27.5284 15.5214C29.09 15.5214 30.3608 14.2509 30.3608 12.689C30.3608 11.1271 29.0903 9.85661 27.5284 9.85661ZM27.5284 14.8687C26.3262 14.8687 25.3484 13.8906 25.3484 12.6887C25.3484 11.4868 26.3266 10.5087 27.5284 10.5087C28.7303 10.5087 29.7084 11.4865 29.7084 12.6887C29.7084 13.8909 28.7306 14.8687 27.5284 14.8687Z" fill="#FD1716"/>
</svg>
