<svg width="40" height="40" viewBox="0 0 40 40" fill="none" xmlns="http://www.w3.org/2000/svg">
<path d="M19.4185 26.0882L18.5118 24.2127C18.503 22.7455 17.913 21.3416 16.8711 20.3086C16.3849 19.8492 15.8101 19.4938 15.1819 19.2641C14.5537 19.0344 13.8852 18.9352 13.2173 18.9725C11.8788 19.0419 10.614 19.6071 9.6695 20.558C8.72495 21.509 8.1683 22.7775 8.10802 24.1165C8.06591 24.8492 8.18231 25.5824 8.44929 26.2661C8.71628 26.9497 9.12756 27.5678 9.65509 28.078V31.0573C9.65536 31.2802 9.744 31.4938 9.90157 31.6514C10.0591 31.8089 10.2728 31.8976 10.4956 31.8979H15.0215C15.2443 31.8976 15.4579 31.8089 15.6155 31.6514C15.7731 31.4938 15.8617 31.2802 15.862 31.0573V29.8289H16.8965C17.205 29.8285 17.5008 29.7057 17.7189 29.4876C17.9371 29.2694 18.0599 28.9736 18.0603 28.6651V27.2427H18.6422C18.7723 27.2426 18.9006 27.2124 19.0171 27.1544C19.1335 27.0963 19.2349 27.012 19.3133 26.9081C19.3916 26.8043 19.4448 26.6836 19.4686 26.5557C19.4925 26.4278 19.4863 26.2961 19.4506 26.171C19.4419 26.1427 19.4311 26.115 19.4185 26.0882ZM17.8668 26.2082C17.644 26.2085 17.4303 26.2971 17.2728 26.4547C17.1152 26.6123 17.0266 26.8259 17.0263 27.0487V28.6651C17.0263 28.6821 17.0229 28.699 17.0164 28.7147C17.0099 28.7304 17.0003 28.7447 16.9882 28.7567C16.9762 28.7687 16.9619 28.7783 16.9461 28.7847C16.9304 28.7912 16.9135 28.7945 16.8965 28.7944H15.668C15.4452 28.7947 15.2316 28.8833 15.074 29.0409C14.9164 29.1985 14.8278 29.4121 14.8275 29.6349V30.8634H10.6896V27.9922C10.6889 27.8784 10.6652 27.7659 10.62 27.6614C10.5747 27.557 10.5089 27.4628 10.4263 27.3844C9.98885 26.9733 9.64703 26.4712 9.42502 25.9135C9.203 25.3558 9.1062 24.7561 9.14147 24.1568C9.19027 23.0763 9.63958 22.0527 10.4018 21.2853C11.1641 20.518 12.1848 20.0619 13.2649 20.006C13.7933 19.9718 14.323 20.0475 14.8207 20.2283C15.3183 20.4091 15.7731 20.6911 16.1563 21.0565C16.5853 21.486 16.9235 21.9974 17.1506 22.5604C17.3778 23.1233 17.4892 23.7263 17.4784 24.3332C17.4784 24.4113 17.496 24.4884 17.5301 24.5587L18.3277 26.2082H17.8668Z" fill="url(#paint0_linear_3062_2652)"/>
<path d="M13.2759 13.2772C13.3926 13.2774 13.5059 13.2382 13.5975 13.1659C13.689 13.0936 13.7535 12.9925 13.7803 12.879C13.8071 12.7654 13.7948 12.6462 13.7453 12.5405C13.6958 12.4349 13.6121 12.3491 13.5077 12.297C12.9848 12.0341 12.4911 11.7171 12.0346 11.351C12.5505 10.6935 12.9344 9.9425 13.1652 9.13928H13.7932C13.9304 9.13928 14.0619 9.08478 14.1589 8.98778C14.2559 8.89078 14.3104 8.75922 14.3104 8.62204C14.3104 8.48486 14.2559 8.35329 14.1589 8.25629C14.0619 8.15929 13.9304 8.1048 13.7932 8.1048H11.7242V7.58755C11.7242 7.45037 11.6697 7.31881 11.5727 7.22181C11.4757 7.12481 11.3441 7.07031 11.207 7.07031C11.0698 7.07031 10.9382 7.12481 10.8412 7.22181C10.7442 7.31881 10.6897 7.45037 10.6897 7.58755V8.1048H8.62076C8.48358 8.1048 8.35201 8.15929 8.25501 8.25629C8.15801 8.35329 8.10352 8.48486 8.10352 8.62204C8.10352 8.75922 8.15801 8.89078 8.25501 8.98778C8.35201 9.08478 8.48358 9.13928 8.62076 9.13928H12.0806C11.8903 9.68584 11.6127 10.198 11.2587 10.6558C11.0194 10.4171 10.7994 10.1597 10.6008 9.88617C10.5242 9.7729 10.4059 9.69453 10.2718 9.6682C10.1376 9.64187 9.99852 9.66972 9.88485 9.74567C9.77117 9.82161 9.69218 9.93947 9.66515 10.0735C9.63812 10.2075 9.66524 10.3468 9.74058 10.4608C9.97867 10.7965 10.2454 11.111 10.5377 11.4007C10.0755 11.7863 9.54464 12.0811 8.973 12.2696C8.90847 12.2911 8.8488 12.3251 8.7974 12.3696C8.74599 12.4141 8.70386 12.4683 8.67341 12.5291C8.64296 12.5899 8.62479 12.6561 8.61992 12.724C8.61506 12.7918 8.6236 12.8599 8.64507 12.9245C8.66653 12.989 8.7005 13.0486 8.74502 13.1001C8.78954 13.1515 8.84376 13.1936 8.90456 13.224C8.96537 13.2545 9.03158 13.2727 9.09941 13.2775C9.16724 13.2824 9.23537 13.2738 9.29989 13.2524C10.0412 13.0099 10.7259 12.6202 11.313 12.1067C11.8478 12.5416 12.4285 12.9167 13.0447 13.2255C13.1168 13.2604 13.1959 13.2781 13.2759 13.2772Z" fill="url(#paint1_linear_3062_2652)"/>
<path d="M11.7241 17.4138C11.8613 17.4138 11.9929 17.3593 12.0899 17.2623C12.1869 17.1653 12.2414 17.0337 12.2414 16.8966V15.3448H15.8621C16.2736 15.3448 16.6683 15.1813 16.9593 14.8903C17.2503 14.5993 17.4138 14.2046 17.4138 13.7931V6.55172C17.4138 6.14018 17.2503 5.74549 16.9593 5.45449C16.6683 5.16348 16.2736 5 15.8621 5H6.55172C6.14018 5 5.74549 5.16348 5.45449 5.45449C5.16348 5.74549 5 6.14018 5 6.55172V13.7931C5 14.2046 5.16348 14.5993 5.45449 14.8903C5.74549 15.1813 6.14018 15.3448 6.55172 15.3448H7.46414L11.4929 17.3621C11.565 17.397 11.6441 17.4147 11.7241 17.4138ZM11.2069 14.8276V16.0597L7.81741 14.3647C7.7456 14.3289 7.66645 14.3103 7.58621 14.3103H6.55172C6.41454 14.3103 6.28298 14.2559 6.18598 14.1588C6.08898 14.0618 6.03448 13.9303 6.03448 13.7931V6.55172C6.03448 6.41454 6.08898 6.28298 6.18598 6.18598C6.28298 6.08898 6.41454 6.03448 6.55172 6.03448H15.8621C15.9993 6.03448 16.1308 6.08898 16.2278 6.18598C16.3248 6.28298 16.3793 6.41454 16.3793 6.55172V13.7931C16.3793 13.9303 16.3248 14.0618 16.2278 14.1588C16.1308 14.2559 15.9993 14.3103 15.8621 14.3103H11.7241C11.587 14.3103 11.4554 14.3648 11.3584 14.4618C11.2614 14.5588 11.2069 14.6904 11.2069 14.8276Z" fill="url(#paint2_linear_3062_2652)"/>
<path d="M33.448 7.07031H24.1377C23.7261 7.07031 23.3314 7.2338 23.0404 7.5248C22.7494 7.81581 22.5859 8.21049 22.5859 8.62204V15.8634C22.5859 16.275 22.7494 16.6696 23.0404 16.9607C23.3314 17.2517 23.7261 17.4151 24.1377 17.4151H24.4082L23.6571 19.2922C23.6173 19.3897 23.6082 19.4971 23.6311 19.6C23.6539 19.7028 23.7076 19.7962 23.785 19.8677C23.8624 19.9392 23.9598 19.9854 24.0641 20C24.1685 20.0146 24.2748 19.9971 24.3689 19.9496L29.4321 17.4151H33.448C33.8596 17.4151 34.2542 17.2517 34.5452 16.9607C34.8362 16.6696 34.9997 16.275 34.9997 15.8634V8.62204C34.9997 8.21049 34.8362 7.81581 34.5452 7.5248C34.2542 7.2338 33.8596 7.07031 33.448 7.07031ZM33.9652 15.8634C33.9652 16.0006 33.9108 16.1322 33.8138 16.2292C33.7168 16.3262 33.5852 16.3807 33.448 16.3807H29.3101C29.2298 16.3806 29.1507 16.3992 29.0789 16.435L25.123 18.4134L25.6527 17.0898C25.684 17.0113 25.6957 16.9263 25.6866 16.8423C25.6775 16.7583 25.6479 16.6777 25.6005 16.6077C25.5531 16.5378 25.4893 16.4805 25.4146 16.4409C25.3399 16.4013 25.2567 16.3806 25.1721 16.3807H24.1377C24.0005 16.3807 23.8689 16.3262 23.7719 16.2292C23.6749 16.1322 23.6204 16.0006 23.6204 15.8634V8.62204C23.6204 8.48486 23.6749 8.35329 23.7719 8.25629C23.8689 8.15929 24.0005 8.1048 24.1377 8.1048H33.448C33.5852 8.1048 33.7168 8.15929 33.8138 8.25629C33.9108 8.35329 33.9652 8.48486 33.9652 8.62204V15.8634Z" fill="url(#paint3_linear_3062_2652)"/>
<path d="M33.4477 24.6562H24.1373C23.7258 24.6562 23.3311 24.8197 23.0401 25.1107C22.7491 25.4017 22.5856 25.7964 22.5856 26.208V27.7597H21.0339C20.943 27.7595 20.8537 27.7833 20.7749 27.8286C20.6961 27.8739 20.6307 27.9392 20.5852 28.0179C20.5397 28.0965 20.5157 28.1858 20.5156 28.2767C20.5156 28.3676 20.5395 28.4569 20.5849 28.5356L22.5856 32.0352V33.4494C22.5856 33.8609 22.7491 34.2556 23.0401 34.5466C23.3311 34.8376 23.7258 35.0011 24.1373 35.0011H33.4477C33.8592 35.0011 34.2539 34.8376 34.5449 34.5466C34.8359 34.2556 34.9994 33.8609 34.9994 33.4494V26.208C34.9994 25.7964 34.8359 25.4017 34.5449 25.1107C34.2539 24.8197 33.8592 24.6562 33.4477 24.6562ZM33.9649 33.4494C33.9649 33.5865 33.9104 33.7181 33.8134 33.8151C33.7164 33.9121 33.5849 33.9666 33.4477 33.9666H24.1373C24.0002 33.9666 23.8686 33.9121 23.7716 33.8151C23.6746 33.7181 23.6201 33.5865 23.6201 33.4494V31.8976C23.6204 31.8069 23.5969 31.7177 23.5518 31.639L21.9256 28.7942H23.1029C23.24 28.7942 23.3716 28.7397 23.4686 28.6427C23.5656 28.5457 23.6201 28.4141 23.6201 28.2769V26.208C23.6201 26.0708 23.6746 25.9392 23.7716 25.8422C23.8686 25.7452 24.0002 25.6907 24.1373 25.6907H33.4477C33.5849 25.6907 33.7164 25.7452 33.8134 25.8422C33.9104 25.9392 33.9649 26.0708 33.9649 26.208V33.4494Z" fill="url(#paint4_linear_3062_2652)"/>
<path d="M29.258 9.42312C29.2102 9.34296 29.1424 9.27658 29.0613 9.23049C28.9801 9.18439 28.8884 9.16016 28.7951 9.16016C28.7017 9.16016 28.61 9.18439 28.5289 9.23049C28.4477 9.27658 28.3799 9.34296 28.3321 9.42312L25.7459 14.5955C25.7156 14.6563 25.6975 14.7225 25.6927 14.7903C25.6879 14.8581 25.6965 14.9261 25.718 14.9906C25.7396 15.055 25.7736 15.1146 25.8181 15.166C25.8626 15.2173 25.9169 15.2593 25.9777 15.2897C26.0384 15.32 26.1046 15.3381 26.1724 15.3429C26.2402 15.3477 26.3083 15.3391 26.3727 15.3176C26.4372 15.2961 26.4968 15.262 26.5481 15.2175C26.5994 15.173 26.6414 15.1187 26.6718 15.0579L28.7925 10.8109L29.7659 12.7578H28.7925C28.6553 12.7578 28.5237 12.8123 28.4267 12.9093C28.3297 13.0063 28.2752 13.1378 28.2752 13.275C28.2752 13.4122 28.3297 13.5438 28.4267 13.6408C28.5237 13.7378 28.6553 13.7923 28.7925 13.7923H30.2832L30.9158 15.0579C30.9461 15.1187 30.9882 15.173 31.0395 15.2175C31.0908 15.262 31.1504 15.2961 31.2148 15.3176C31.2793 15.3391 31.3474 15.3477 31.4151 15.3429C31.4829 15.3381 31.5491 15.32 31.6099 15.2897C31.6707 15.2593 31.7249 15.2173 31.7695 15.166C31.814 15.1146 31.848 15.055 31.8695 14.9906C31.891 14.9261 31.8996 14.8581 31.8949 14.7903C31.8901 14.7225 31.872 14.6563 31.8416 14.5955L29.258 9.42312Z" fill="url(#paint5_linear_3062_2652)"/>
<path d="M30.861 31.8961H28.2748C28.0004 31.8961 27.7373 31.7871 27.5433 31.5931C27.3493 31.3991 27.2403 31.136 27.2403 30.8616C27.2403 30.5872 27.3493 30.3241 27.5433 30.1301C27.7373 29.9361 28.0004 29.8271 28.2748 29.8271H30.3437C30.4809 29.8271 30.6125 29.7726 30.7095 29.6756C30.8065 29.5786 30.861 29.447 30.861 29.3099C30.861 29.1727 30.8065 29.0411 30.7095 28.9441C30.6125 28.8471 30.4809 28.7926 30.3437 28.7926H29.3093C29.2173 28.7921 29.1271 28.7671 29.048 28.7201C28.9689 28.6731 28.9037 28.6059 28.8593 28.5254C28.8148 28.4449 28.7926 28.3539 28.795 28.262C28.7974 28.17 28.8243 28.0803 28.8729 28.0022C28.9215 27.9241 28.99 27.8603 29.0714 27.8175C29.1529 27.7747 29.2442 27.7544 29.3361 27.7587C29.428 27.763 29.5171 27.7917 29.5942 27.8419C29.6713 27.8921 29.7336 27.9619 29.7748 28.0442C29.8362 28.1669 29.9438 28.2602 30.074 28.3035C30.2041 28.3469 30.3462 28.3368 30.4689 28.2754C30.5916 28.214 30.6849 28.1064 30.7283 27.9762C30.7716 27.846 30.7615 27.704 30.7001 27.5812C30.5173 27.2325 30.2088 26.9663 29.837 26.8366C29.4653 26.7069 29.0581 26.7234 28.698 26.8827C28.338 27.0419 28.0519 27.3321 27.8978 27.6945C27.7437 28.0568 27.7332 28.4642 27.8682 28.834C27.366 28.936 26.9195 29.2207 26.6152 29.633C26.3109 30.0454 26.1704 30.556 26.2211 31.0659C26.2717 31.5759 26.5097 32.0489 26.8891 32.3934C27.2686 32.7379 27.7623 32.9293 28.2748 32.9306H30.861C30.9982 32.9306 31.1297 32.8761 31.2267 32.7791C31.3237 32.6821 31.3782 32.5505 31.3782 32.4133C31.3782 32.2761 31.3237 32.1446 31.2267 32.0476C31.1297 31.9506 30.9982 31.8961 30.861 31.8961Z" fill="url(#paint6_linear_3062_2652)"/>
<defs>
<linearGradient id="paint0_linear_3062_2652" x1="19.52" y1="26.854" x2="8.34472" y2="26.7989" gradientUnits="userSpaceOnUse">
<stop stop-color="#DF2771"/>
<stop offset="1" stop-color="#FD4E32"/>
</linearGradient>
<linearGradient id="paint1_linear_3062_2652" x1="14.3307" y1="10.8575" x2="8.23721" y2="10.8234" gradientUnits="userSpaceOnUse">
<stop stop-color="#DF2771"/>
<stop offset="1" stop-color="#FD4E32"/>
</linearGradient>
<linearGradient id="paint2_linear_3062_2652" x1="17.4543" y1="12.5724" x2="5.26739" y2="12.5042" gradientUnits="userSpaceOnUse">
<stop stop-color="#DF2771"/>
<stop offset="1" stop-color="#FD4E32"/>
</linearGradient>
<linearGradient id="paint3_linear_3062_2652" x1="35.0402" y1="14.9605" x2="22.8533" y2="14.895" gradientUnits="userSpaceOnUse">
<stop stop-color="#DF2771"/>
<stop offset="1" stop-color="#FD4E32"/>
</linearGradient>
<linearGradient id="paint4_linear_3062_2652" x1="35.0467" y1="30.9666" x2="20.828" y2="30.8551" gradientUnits="userSpaceOnUse">
<stop stop-color="#DF2771"/>
<stop offset="1" stop-color="#FD4E32"/>
</linearGradient>
<linearGradient id="paint5_linear_3062_2652" x1="31.9164" y1="12.9324" x2="25.8251" y2="12.8982" gradientUnits="userSpaceOnUse">
<stop stop-color="#DF2771"/>
<stop offset="1" stop-color="#FD4E32"/>
</linearGradient>
<linearGradient id="paint6_linear_3062_2652" x1="31.3951" y1="30.5201" x2="26.3222" y2="30.4964" gradientUnits="userSpaceOnUse">
<stop stop-color="#DF2771"/>
<stop offset="1" stop-color="#FD4E32"/>
</linearGradient>
</defs>
</svg>
