<svg width="40" height="40" viewBox="0 0 40 40" fill="none" xmlns="http://www.w3.org/2000/svg">
<path d="M34.5 29H32.9872C33.3045 28.5809 33.5 28.065 33.5 27.5V10.5C33.5 9.12158 32.3784 8 31 8H9C7.62158 8 6.5 9.12158 6.5 10.5V27.5C6.5 28.065 6.69549 28.5809 7.01278 29H5.5C5.22363 29 5 29.2239 5 29.5V29.9253C5 31.345 6.15478 32.5 7.5747 32.5H8.5C8.51108 33.1574 9.48911 33.157 9.5 32.5H30.5C30.5111 33.1574 31.4891 33.157 31.5 32.5H32.4253C33.8452 32.5 35 31.345 35 29.9253V29.5C35 29.2239 34.7764 29 34.5 29ZM7.5 10.5C7.5 9.67285 8.17285 9 9 9H31C31.8272 9 32.5 9.67285 32.5 10.5V27.5C32.5 28.3272 31.8272 29 31 29H9C8.17285 29 7.5 28.3272 7.5 27.5V10.5ZM32.4253 31.5H7.5747C6.73144 31.5 6.04102 30.8337 6.00195 30H33.998C33.959 30.8337 33.2686 31.5 32.4253 31.5Z" fill="#FD1716"/>
<path d="M14.376 18.0508L14.7407 18.0964C14.8447 18.4399 14.9824 18.7722 15.1528 19.0896L14.9268 19.3806C14.6177 19.7778 14.6528 20.3457 15.0088 20.7014L15.7988 21.4915C16.1553 21.8474 16.7231 21.8823 17.1201 21.5737L17.4106 21.3474C17.728 21.5176 18.0601 21.6553 18.4033 21.7593L18.4492 22.124C18.5117 22.6233 18.938 23 19.4414 23H20.5586C21.062 23 21.4883 22.6233 21.5508 22.124L21.5967 21.7593C21.9399 21.655 22.2725 21.5171 22.5894 21.3472L22.8809 21.5735C23.2764 21.8816 23.8452 21.8464 24.2017 21.4912L24.9907 20.7017C25.3472 20.3462 25.3833 19.7781 25.0737 19.3799L24.8472 19.0891C25.0176 18.7717 25.1553 18.4397 25.2593 18.0964L25.624 18.0508C26.1235 17.9885 26.5 17.5618 26.5 17.0586V15.9414C26.5 15.4382 26.1235 15.0117 25.624 14.9492L25.2593 14.9036C25.1553 14.5601 25.0176 14.2278 24.8472 13.9106L25.0732 13.6196C25.3823 13.2224 25.3472 12.6545 24.9912 12.2988L24.2012 11.5088C23.8457 11.1526 23.2769 11.1177 22.8799 11.4265L22.5894 11.6526C22.272 11.4827 21.9399 11.3447 21.5967 11.2407L21.5508 10.876C21.4883 10.3767 21.062 10 20.5586 10H19.4414C18.938 10 18.5117 10.3767 18.4492 10.876L18.4033 11.2407C18.0601 11.3447 17.728 11.4827 17.4106 11.6528L17.1196 11.4265C16.7222 11.1177 16.1543 11.1533 15.7988 11.5088L15.0088 12.2988C14.6528 12.6545 14.6177 13.2224 14.9268 13.6196L15.1528 13.9106C14.9824 14.2278 14.8447 14.5601 14.7407 14.9036L14.376 14.9492C13.8765 15.0115 13.5 15.4382 13.5 15.9414V17.0586C13.5 17.5618 13.8765 17.9885 14.376 18.0508ZM14.5 15.9414C14.8635 15.8649 15.5233 15.9583 15.623 15.4717C15.7339 14.9988 15.9204 14.5483 16.1787 14.1331C16.4542 13.7274 15.9145 13.308 15.7158 13.0059L16.5059 12.2161C16.8104 12.4163 17.2254 12.9538 17.6328 12.6787C18.0483 12.4207 18.499 12.2336 18.9717 12.123C19.4589 12.0224 19.3648 11.3628 19.4414 11H20.5586C20.6352 11.3638 20.5416 12.0229 21.0283 12.123C21.501 12.2336 21.9517 12.4207 22.3672 12.6787C22.7729 12.9539 23.192 12.4147 23.4941 12.2158L24.2842 13.0059C24.0853 13.3076 23.5456 13.7292 23.8213 14.1331C24.0796 14.5483 24.2661 14.9988 24.377 15.4717C24.4754 15.9577 25.1393 15.8655 25.5 15.9414V17.0586C25.1365 17.1351 24.4767 17.0417 24.377 17.5283C24.2661 18.0012 24.0796 18.4514 23.8213 18.8667C23.5467 19.2756 24.0843 19.6895 24.2842 19.9941L23.4941 20.7839C23.1898 20.5841 22.7742 20.0466 22.3672 20.3213C21.9521 20.5791 21.5015 20.7661 21.0278 20.877C20.5412 20.9774 20.6352 21.6375 20.5586 22H19.4414C19.3648 21.636 19.4584 20.9772 18.9717 20.877C18.499 20.7664 18.0488 20.5796 17.6328 20.3215C17.2273 20.0462 16.8078 20.5854 16.5058 20.7844L15.7158 19.9944C15.9159 19.6899 16.4533 19.2745 16.1787 18.8672C15.9204 18.4517 15.7334 18.0012 15.623 17.5283C15.5246 17.0423 14.8606 17.1345 14.5 17.0586L14.5 15.9414Z" fill="#FD1716"/>
<path d="M20 19.501C21.6543 19.501 23 18.1553 23 16.501C22.8593 12.5304 17.1401 12.5314 17 16.501C17 18.1553 18.3457 19.501 20 19.501ZM20 14.501C22.6431 14.5848 22.6425 18.4175 20 18.501C17.3569 18.4171 17.3575 14.5844 20 14.501Z" fill="#FD1716"/>
<path d="M12.5015 28H27.5014C30.1403 27.918 30.1477 24.0845 27.5014 24H12.5014C9.86262 24.082 9.85515 27.9155 12.5015 28ZM12.0014 25.5H11.6405C11.8141 25.2025 12.1331 25 12.5014 25H27.5014C28.8167 25.0331 28.8226 26.9651 27.5014 27H12.5014C12.1331 27 11.8141 26.7975 11.6405 26.5H12.0014C12.6588 26.489 12.6585 25.5109 12.0014 25.5Z" fill="#FD1716"/>
<path d="M13.5007 26.5H14.0007C14.6578 26.489 14.658 25.511 14.0007 25.5H13.5007C12.8436 25.511 12.8434 26.489 13.5007 26.5Z" fill="#FD1716"/>
<path d="M15.5007 26.5H16.0007C16.6578 26.489 16.658 25.511 16.0007 25.5H15.5007C14.8436 25.511 14.8434 26.489 15.5007 26.5Z" fill="#FD1716"/>
<path d="M21.5007 26.5H22.0007C22.6578 26.489 22.658 25.511 22.0007 25.5H21.5007C20.8436 25.511 20.8434 26.489 21.5007 26.5Z" fill="#FD1716"/>
<path d="M19.5007 26.5H20.0007C20.6578 26.489 20.658 25.511 20.0007 25.5H19.5007C18.8436 25.511 18.8434 26.489 19.5007 26.5Z" fill="#FD1716"/>
<path d="M17.5007 26.5H18.0007C18.6578 26.489 18.658 25.511 18.0007 25.5H17.5007C16.8436 25.511 16.8434 26.489 17.5007 26.5Z" fill="#FD1716"/>
</svg>
