<svg width="75" height="75" viewBox="0 0 75 75" fill="none" xmlns="http://www.w3.org/2000/svg">
<path d="M70.2404 45.6617C65.7311 63.7517 47.403 74.7484 29.3388 70.2388C11.2483 65.7295 0.251562 47.4022 4.76115 29.3383C9.27047 11.2483 27.572 0.251564 45.6625 4.76115C63.7267 9.2441 74.75 27.5714 70.2404 45.6617Z" fill="url(#paint0_linear_3040_5306)"/>
<path d="M53.5703 33.292C54.2295 28.8096 50.8282 26.3838 46.1348 24.7754L47.6641 18.6846L43.9727 17.7617L42.4961 23.6943C41.5205 23.457 40.5186 23.2197 39.5166 23.0088L40.9932 17.0498L37.3018 16.127L35.7988 22.1914C34.9815 22.0068 34.1904 21.8223 33.4258 21.6377V21.6113L28.3106 20.3457L27.335 24.3008C27.335 24.3008 30.0772 24.9336 30.0244 24.96C31.5274 25.3291 31.791 26.3311 31.7383 27.1221L29.9981 34.0567C30.1035 34.083 30.2354 34.1094 30.3936 34.1885C30.2617 34.1621 30.1299 34.1358 29.9981 34.083L27.5723 43.7862C27.3877 44.2344 26.9131 44.92 25.8848 44.6563C25.9111 44.709 23.1953 43.9971 23.1953 43.9971L21.3496 48.2422L26.1748 49.4551C27.0713 49.6924 27.9414 49.9034 28.8115 50.1407L27.2822 56.2842L30.9736 57.2071L32.5029 51.1162C33.5049 51.3799 34.5068 51.6436 35.4561 51.8809L33.9531 57.9454L37.6445 58.8682L39.1738 52.7246C45.502 53.9112 50.2481 53.4366 52.2256 47.7149C53.834 43.127 52.1465 40.4639 48.8242 38.7237C51.2764 38.1699 53.0957 36.5615 53.5703 33.292ZM45.1065 45.1573C43.9727 49.7452 36.2207 47.2666 33.7158 46.6338L35.7461 38.4864C38.251 39.1192 46.3194 40.3584 45.1065 45.1573ZM46.2666 33.2129C45.2119 37.4053 38.7783 35.2696 36.6953 34.7422L38.541 27.3594C40.624 27.8867 47.3477 28.8623 46.2666 33.2129Z" fill="white"/>
<defs>
<linearGradient id="paint0_linear_3040_5306" x1="3376.93" y1="2.13" x2="3376.93" y2="6753.08" gradientUnits="userSpaceOnUse">
<stop stop-color="#F9AA4B"/>
<stop offset="1" stop-color="#F7931A"/>
</linearGradient>
</defs>
</svg>
