<svg width="75" height="75" viewBox="0 0 75 75" fill="none" xmlns="http://www.w3.org/2000/svg">
<path d="M37.5 71.25C56.2032 71.25 71.25 56.2032 71.25 37.5C71.25 18.7968 56.2032 3.75 37.5 3.75C18.7968 3.75 3.75 18.7968 3.75 37.5C3.75 56.2032 18.7968 71.25 37.5 71.25Z" fill="#2775CA"/>
<path d="M46.7811 42.8438C46.7811 37.922 43.828 36.2345 37.9218 35.5315C33.703 34.9689 32.8593 33.844 32.8593 31.875C32.8593 29.906 34.2656 28.6407 37.078 28.6407C39.6093 28.6407 41.0156 29.4845 41.7186 31.5939C41.8594 32.0157 42.2813 32.2969 42.7031 32.2969H44.9529C45.5155 32.2969 45.9374 31.875 45.9374 31.3127V31.172C45.3748 28.0781 42.8435 25.6876 39.6093 25.4065V22.0315C39.6093 21.4689 39.1874 21.047 38.4844 20.9062H36.375C35.8124 20.9062 35.3905 21.3281 35.2498 22.0315V25.2657C31.031 25.8284 28.3594 28.6407 28.3594 32.1565C28.3594 36.7971 31.1718 38.625 37.078 39.3284C41.0156 40.0314 42.2813 40.8751 42.2813 43.1252C42.2813 45.3753 40.3123 46.9221 37.6406 46.9221C33.9842 46.9221 32.7185 45.375 32.2967 43.2656C32.1563 42.7034 31.7344 42.4219 31.3125 42.4219H28.9217C28.3594 42.4219 27.9375 42.8438 27.9375 43.4064V43.5471C28.4998 47.0625 30.7499 49.5938 35.3905 50.2971V53.6721C35.3905 54.2344 35.8124 54.6563 36.5154 54.797H38.6248C39.1874 54.797 39.6093 54.3751 39.75 53.6721V50.2971C43.9688 49.5938 46.7811 46.6406 46.7811 42.8438Z" fill="white"/>
<path d="M30.3284 57.6091C19.3597 53.6719 13.7346 41.4375 17.8129 30.6091C19.9223 24.7029 24.5629 20.203 30.3284 18.0936C30.891 17.8125 31.1722 17.3906 31.1722 16.6873V14.7186C31.1722 14.156 30.891 13.7341 30.3284 13.5938C30.1877 13.5938 29.9065 13.5937 29.7658 13.7341C16.4066 17.9529 9.09394 32.1562 13.3127 45.5155C15.8439 53.3904 21.8909 59.4374 29.7658 61.9686C30.3284 62.2498 30.891 61.9686 31.0314 61.406C31.1722 61.2656 31.1722 61.1249 31.1722 60.8437V58.8748C31.1722 58.4529 30.7503 57.8906 30.3284 57.6091ZM45.2348 13.7341C44.6722 13.453 44.1096 13.7341 43.9692 14.2968C43.8284 14.4375 43.8284 14.5779 43.8284 14.8594V16.828C43.8284 17.3906 44.2503 17.9529 44.6722 18.2344C55.6409 22.1716 61.266 34.406 57.1877 45.2344C55.0783 51.1406 50.4377 55.6405 44.6722 57.7499C44.1096 58.031 43.8284 58.4529 43.8284 59.1562V61.1249C43.8284 61.6875 44.1096 62.1094 44.6722 62.2498C44.8129 62.2498 45.0941 62.2498 45.2348 62.1094C58.594 57.8906 65.9067 43.6873 61.6879 30.328C59.1567 22.3124 52.9689 16.2654 45.2348 13.7341Z" fill="white"/>
</svg>
