<svg width="75" height="75" viewBox="0 0 75 75" fill="none" xmlns="http://www.w3.org/2000/svg">
<path d="M37.5 71.25C56.1396 71.25 71.25 56.1396 71.25 37.5C71.25 18.8604 56.1396 3.75 37.5 3.75C18.8604 3.75 3.75 18.8604 3.75 37.5C3.75 56.1396 18.8604 71.25 37.5 71.25Z" fill="#F3BA2F"/>
<path d="M30.4407 34.6013L37.5005 27.5415L44.5603 34.6079L48.667 30.5012L37.5005 19.3281L26.334 30.4946L30.4407 34.6013Z" fill="white"/>
<path d="M19.3281 37.4961L23.4345 33.3896L27.541 37.496L23.4346 41.6025L19.3281 37.4961Z" fill="white"/>
<path d="M30.4395 40.4011L37.4993 47.4609L44.5591 40.3945L48.6724 44.5012H48.6658L37.4993 55.6743L26.3328 44.5078L26.3262 44.5012L30.4395 40.4011Z" fill="white"/>
<path d="M47.457 37.5039L51.5634 33.3974L55.6699 37.5038L51.5635 41.6103L47.457 37.5039Z" fill="white"/>
<path d="M41.6667 37.5007L37.5007 33.3281L34.4224 36.4131L34.0664 36.7624L33.3347 37.4941L33.3281 37.5007L33.3347 37.5073L37.5007 41.6733L41.6667 37.5007Z" fill="white"/>
</svg>
