<svg width="75" height="75" viewBox="0 0 75 75" fill="none" xmlns="http://www.w3.org/2000/svg">
<mask id="mask0_3040_5334" style="mask-type:luminance" maskUnits="userSpaceOnUse" x="6" y="3" width="63" height="69">
<path d="M47.2725 5.56427C42.8367 8.17277 40.215 12.8734 40.215 17.8388C40.215 20.4473 41.261 23.069 42.5719 25.4127C43.6179 27.5048 44.1343 31.1593 40.4798 32.9866C37.8713 34.549 34.4683 33.503 32.9059 30.8945C31.3434 28.8024 29.5162 26.7103 27.1593 25.1478C22.7235 22.5393 17.4933 22.5393 13.0575 25.1478C8.62174 27.7563 6 32.4702 6 37.4356C6 42.401 8.60849 47.1016 13.0575 49.7101C17.4933 52.3186 22.7235 52.3186 27.1593 49.7101C29.5162 48.3992 31.3434 46.3203 32.6411 43.9634C33.6871 42.1362 36.5604 39.7792 40.215 41.8713C42.8235 43.4338 43.6047 46.8368 42.3071 49.4452C40.9962 51.8022 40.215 54.4107 40.215 57.0191C40.215 61.9846 42.8235 66.6851 47.2725 69.2936C51.7082 71.9021 56.9385 71.9021 61.3742 69.2936C65.81 66.6851 68.4317 61.9846 68.4317 57.0191C68.4317 52.0537 65.8232 47.3532 61.3742 44.7447C59.0173 43.4338 56.4088 42.9174 53.5355 42.9174C51.1786 42.9174 48.0537 41.3549 48.0537 37.4356C48.0537 34.2974 50.4106 31.9538 53.5355 31.9538C56.144 31.9538 59.0173 31.4374 61.3742 30.1265C65.81 27.518 68.4317 22.8174 68.4317 17.852C68.4317 12.8866 65.8232 8.18601 61.3742 5.57751C59.2821 4.26664 56.6736 3.75024 54.3167 3.75024C51.9731 3.737 49.3513 4.26664 47.2725 5.56427Z" fill="white"/>
</mask>
<g mask="url(#mask0_3040_5334)">
<path d="M37.3418 -27.6055L102.634 37.9512L37.3418 103.243L-28.2148 37.9512L37.3418 -27.6055Z" fill="url(#paint0_linear_3040_5334)"/>
</g>
<defs>
<linearGradient id="paint0_linear_3040_5334" x1="18.5144" y1="19.122" x2="65.4446" y2="66.0522" gradientUnits="userSpaceOnUse">
<stop stop-color="#11AAE2"/>
<stop offset="0.594" stop-color="#0880B7"/>
<stop offset="1" stop-color="#016197"/>
</linearGradient>
</defs>
</svg>
