<svg width="75" height="75" viewBox="0 0 75 75" fill="none" xmlns="http://www.w3.org/2000/svg">
<path fill-rule="evenodd" clip-rule="evenodd" d="M22.5712 13.4981C23.8619 12.0461 24.9913 10.7553 26.1207 9.7873C7.08254 9.14194 12.7294 23.0172 6.43718 37.0538C-0.661798 53.1878 7.24388 59.4801 19.1831 61.2548C17.5697 59.3188 16.1176 57.06 15.1496 54.6399C7.56656 44.9595 10.632 27.212 22.5712 13.4981Z" fill="#B3D234"/>
<path fill-rule="evenodd" clip-rule="evenodd" d="M68.233 30.7578C66.4583 35.7594 63.2314 41.4063 58.7139 46.8918C55.1644 51.248 51.1309 54.6362 47.0974 57.0563C42.4185 60.1217 36.449 61.8965 29.834 61.8965C26.1232 61.8965 22.5737 61.7352 19.1855 61.0898C21.1216 63.3486 23.5417 65.2846 26.2845 66.7367C43.3866 75.1264 44.516 59.6377 62.7474 51.7321C72.9119 47.3759 72.9119 38.8248 68.233 30.7578Z" fill="#0095D9"/>
<path fill-rule="evenodd" clip-rule="evenodd" d="M46.932 14.6261C49.5135 15.1101 51.9336 15.9168 54.031 17.2076C59.8393 20.4344 65.0022 25.5973 68.229 30.9215C71.2944 22.2091 69.8424 15.2715 63.0661 13.9808C55.6444 12.69 49.8362 12.206 44.1893 8.1725C37.2516 3.33229 31.282 4.94569 26.1191 9.7859C26.4418 9.7859 26.9258 9.7859 27.2485 9.7859C34.5088 10.2699 41.4465 11.722 46.932 14.6261Z" fill="#EEE809"/>
<path fill-rule="evenodd" clip-rule="evenodd" d="M22.5731 13.496C10.634 27.0486 7.5685 44.9573 15.1515 54.6378C11.7633 46.4094 11.9247 36.245 16.7649 28.178C23.2185 17.3682 36.2871 12.6893 46.9355 14.6254C41.45 11.7212 34.5123 10.2692 27.252 9.78516C26.9293 9.78516 26.4453 9.78516 26.1226 9.78516C24.9933 10.7532 23.8639 12.0439 22.5731 13.496Z" fill="#51B849"/>
<path fill-rule="evenodd" clip-rule="evenodd" d="M54.0326 17.0463C51.9351 15.7556 49.515 14.9489 46.9336 14.4648C54.1939 18.337 59.0341 24.7906 59.0341 35.2777C59.0341 44.3128 54.3552 52.2185 46.9336 57.0587C50.9671 54.6386 55.0006 51.2504 58.5501 46.8942C63.0676 41.4087 66.4558 35.7618 68.0692 30.7602C65.165 25.436 59.8408 20.4344 54.0326 17.0463Z" fill="#00845D"/>
<path fill-rule="evenodd" clip-rule="evenodd" d="M45.8056 52.218C37.5773 57.5423 26.6061 55.1222 21.2819 46.8938C15.9577 38.6654 18.5391 28.017 26.6061 22.3701C35.4799 15.9165 46.935 18.4979 51.1299 27.6943C55.1634 36.568 54.034 46.8938 45.8056 52.218ZM46.935 14.6257C36.2866 12.6897 23.218 17.3685 16.7644 28.1783C11.9242 36.2453 11.6015 46.5711 15.151 54.6381C16.119 57.0582 17.5711 59.317 19.1845 61.2531C22.5726 61.7371 26.1221 62.0598 29.8329 62.0598C36.4479 62.0598 42.2561 60.2851 47.0964 57.2196C54.518 52.3794 59.0355 44.4737 59.1969 35.4386C59.1969 24.9515 54.3567 18.4979 46.935 14.6257Z" fill="#005121"/>
</svg>
