<svg width="75" height="75" viewBox="0 0 75 75" fill="none" xmlns="http://www.w3.org/2000/svg">
<path d="M37.5 71.25C56.1396 71.25 71.25 56.1396 71.25 37.5C71.25 18.8604 56.1396 3.75 37.5 3.75C18.8604 3.75 3.75 18.8604 3.75 37.5C3.75 56.1396 18.8604 71.25 37.5 71.25Z" fill="#008CE7"/>
<path d="M44.0104 20.6328H28.6626L27.3927 27.7351L41.2345 27.7562C48.0498 27.7562 50.0727 30.2305 50.0073 34.3374C49.9778 36.4426 49.0602 40.0032 48.6721 41.1507C47.6237 44.2304 45.4638 47.7362 37.368 47.7256L23.9144 47.7172L22.6445 54.8279H37.9523C43.3502 54.8279 45.6494 54.1972 48.0773 53.0771C53.4646 50.5923 56.673 45.2703 57.9618 38.3241C59.8729 27.9882 57.4893 20.6328 44.0083 20.6328H44.0104Z" fill="white"/>
<path d="M37.0923 37.073C37.5922 34.9953 37.7504 34.1621 37.7504 34.1621H22.044C18.0277 34.1621 17.454 36.7777 17.0722 38.3598C16.5723 40.4291 16.4141 41.2728 16.4141 41.2728H32.1226C36.1367 41.2728 36.7105 38.6572 37.0923 37.073Z" fill="white"/>
</svg>
