<svg width="40" height="40" viewBox="0 0 40 40" fill="none" xmlns="http://www.w3.org/2000/svg">
<rect width="40" height="40" rx="10" fill="url(#paint0_linear_4342_6213)"/>
<path d="M30.6652 25.75L29.1154 22.752C28.9757 22.4824 28.6447 22.377 28.3752 22.5166L27.509 22.9649H27.508C27.2922 23.0762 27.176 23.3174 27.2219 23.5567C27.1564 23.5772 27.0891 23.5869 27.0217 23.584L26.967 23.582V14.7823C26.967 14.7091 26.9377 14.6378 26.885 14.586L23.38 11.0811C23.3272 11.0293 23.2569 11 23.1837 11H13.1475C12.9941 11 12.8701 11.124 12.8701 11.2773V12.8691H11.2773C11.124 12.8701 11 12.9941 11 13.1475V30.7227C11 30.876 11.124 31 11.2773 31H24.8193C24.8925 31 24.9638 30.9707 25.0156 30.9189C25.0673 30.8662 25.0966 30.7959 25.0966 30.7227V29.8594C25.1533 29.8106 25.2021 29.7539 25.2422 29.6914L25.2441 29.6875L25.583 29.9053H25.584C25.706 29.9854 25.8496 30.0274 25.9951 30.0274C26.0507 30.0274 26.1064 30.0215 26.1611 30.0088C26.496 29.9365 26.7421 29.6514 26.7636 29.3096C27.0009 29.2891 27.2158 29.1602 27.3437 28.959C27.4013 28.8692 27.4394 28.7676 27.455 28.6621C27.8505 28.6856 28.1992 28.4033 28.2587 28.0117C28.3281 28.0156 28.3984 28.0098 28.4667 27.9951C28.7011 27.9443 28.8974 27.7871 28.999 27.5694C29.0996 27.3526 29.0927 27.1006 28.9814 26.8887C29.0771 26.9609 29.1933 27 29.3134 27C29.4003 27 29.4863 26.9785 29.5634 26.9385L30.4296 26.4902C30.6991 26.3506 30.8039 26.0195 30.6652 25.75ZM27.4102 24.08L27.458 24.0644L28.6455 26.3603L28.5127 26.4697L27.0362 25.5234L27.0352 25.5224C26.9424 25.4628 26.8418 25.416 26.7354 25.3847C26.5049 25.2997 26.3477 25.0859 26.335 24.8408C26.3233 24.7519 26.2696 24.6738 26.1895 24.6318C26.1104 24.5898 26.0157 24.5888 25.9356 24.6298C25.5948 24.8544 25.2774 25.1122 24.9883 25.4003C24.9004 25.4667 24.7872 25.4902 24.6797 25.4638C24.5723 25.4365 24.4825 25.3622 24.4366 25.2616L25.0655 24.7021L25.0733 24.6952L25.5518 24.2704L25.5528 24.2695C25.67 24.1601 25.8262 24.1034 25.9864 24.1113L27.0069 24.1396C27.1436 24.1435 27.2803 24.124 27.4102 24.08ZM21.167 26.1601C21.1416 26.1855 21.122 26.2167 21.1084 26.2509L21.0508 26.3417L20.2402 25.8222L22.0547 22.9912L22.8652 23.5107L22.7802 23.6436V23.6455L21.167 26.1601ZM21.6435 22.6151C21.624 22.6366 21.6054 22.661 21.5898 22.6854L20.7451 24.0038V21.6512H21.6455L21.6435 22.6151ZM23.4101 23.3905C23.3916 23.3055 23.3525 23.2255 23.2978 23.1591V20.2958H24.1982L24.1972 23.9373L23.4062 23.6414H23.4072C23.4267 23.5594 23.4277 23.4735 23.4101 23.3905ZM23.4589 11.9481L26.0174 14.5048H23.4607L23.4589 11.9481ZM13.4247 11.5555H22.9052V14.783C22.9052 14.9363 23.0302 15.0603 23.1835 15.0603H26.411V23.567L26.0009 23.5553C25.6991 23.5436 25.4052 23.65 25.1825 23.8541L24.8251 24.1725L24.7528 24.1451L24.7518 20.0182C24.7518 19.8648 24.6278 19.7408 24.4745 19.7408H23.0194C22.9462 19.7398 22.8749 19.7691 22.8231 19.8219C22.7714 19.8736 22.7421 19.9439 22.7421 20.0182V22.7711L22.3485 22.5192C22.3017 22.4899 22.2519 22.4674 22.1981 22.4528V21.3747C22.1981 21.3014 22.1688 21.2301 22.1171 21.1784C22.0653 21.1256 21.994 21.0973 21.9208 21.0973H20.4667C20.3935 21.0963 20.3222 21.1256 20.2694 21.1784C20.2177 21.2301 20.1884 21.3004 20.1884 21.3747V24.6784C20.1884 24.7263 20.2011 24.7731 20.2245 24.8151L19.7685 25.527C19.6054 25.7829 19.6796 26.1218 19.9345 26.2858L20.7558 26.8122C20.8446 26.8689 20.9472 26.8991 21.0517 26.8991C21.165 26.8991 21.2763 26.864 21.3691 26.7985L21.6083 27.0983L21.4667 27.32H21.4657C21.3212 27.5476 21.3066 27.8337 21.4267 28.0749C21.5468 28.3151 21.7851 28.4753 22.0536 28.4948C22.0556 28.5212 22.0595 28.5476 22.0644 28.5739H13.4246L13.4247 11.5555ZM24.2284 27.6549L24.3144 27.5211H24.3153C24.3778 27.4235 24.5077 27.3952 24.6054 27.4577C24.7031 27.5202 24.7314 27.65 24.6689 27.7477L24.3779 28.2028L23.9531 28.8649L23.748 29.1852L23.747 29.1861C23.6845 29.2838 23.5546 29.3121 23.457 29.2496C23.3593 29.1871 23.331 29.0572 23.3935 28.9596L23.5136 28.775L24.2284 27.6549ZM25.1982 28.7301L24.7734 29.3922H24.7743C24.7099 29.486 24.5829 29.5114 24.4872 29.4508C24.3915 29.3893 24.3622 29.2633 24.4199 29.1657L24.8447 28.5026V28.5036C24.8749 28.4567 24.9228 28.4235 24.9765 28.4118C24.9921 28.4088 25.0077 28.4069 25.0234 28.4069C25.0624 28.4069 25.1015 28.4186 25.1357 28.4401C25.2323 28.5026 25.2607 28.6315 25.1991 28.7291L25.1982 28.7301ZM23.7607 27.3551L23.0439 28.4743L22.9941 28.5534V28.5543C22.9316 28.652 22.8017 28.6803 22.704 28.6178C22.6063 28.5553 22.578 28.4254 22.6405 28.3278L23.4091 27.1276C23.4726 27.0338 23.5995 27.0084 23.6952 27.07C23.7909 27.1305 23.8202 27.2565 23.7626 27.3541L23.7607 27.3551ZM22.7548 27.1159L22.288 27.8463C22.2587 27.8942 22.2109 27.9293 22.1562 27.942C22.1005 27.9547 22.0429 27.944 21.995 27.9137C21.9472 27.8834 21.914 27.8346 21.9033 27.7799C21.8915 27.7243 21.9023 27.6666 21.9345 27.6198L22.4033 26.8893L22.4023 26.8883C22.4658 26.7916 22.5956 26.7633 22.6933 26.8248C22.791 26.8883 22.8193 27.0182 22.7558 27.1159L22.7548 27.1159ZM11.5546 30.4449L11.5566 13.4244H12.871V28.8521H12.87C12.87 29.0054 12.995 29.1295 13.1484 29.1295H22.4843C22.5869 29.1793 22.7001 29.2047 22.8144 29.2047H22.8183C22.8818 29.5699 23.1982 29.8355 23.5683 29.8365C23.624 29.8365 23.6796 29.8306 23.7343 29.8189C23.8193 29.7994 23.9003 29.7671 23.9736 29.7212C24.1064 29.9068 24.3134 30.024 24.5409 30.0406V30.4429L11.5546 30.4449ZM28.4793 27.3609H28.4812C28.4178 27.4585 28.2869 27.4868 28.1883 27.4243L27.9129 27.2495L27.0193 26.6743C26.9568 26.6343 26.8816 26.6216 26.8094 26.6372C26.7381 26.6529 26.6746 26.6968 26.6355 26.7583C26.5525 26.8872 26.5896 27.0591 26.7195 27.1421L27.614 27.7154C27.7127 27.7788 27.742 27.9107 27.6795 28.0093C27.616 28.1089 27.4842 28.1372 27.3855 28.0747L27.1131 27.8999L26.5076 27.5035C26.4461 27.4605 26.3699 27.4439 26.2957 27.4585C26.2225 27.4732 26.158 27.5162 26.116 27.5787C26.075 27.6421 26.0613 27.7183 26.0779 27.7916C26.0945 27.8648 26.1394 27.9283 26.2029 27.9673L26.8094 28.3648C26.908 28.4283 26.9383 28.5601 26.8758 28.6597C26.8133 28.7583 26.6814 28.7867 26.5838 28.7232L26.4129 28.6138L26.3308 28.5611H26.3299C26.2684 28.522 26.1932 28.5083 26.1209 28.524C26.0486 28.5396 25.9861 28.5835 25.9461 28.6451C25.8631 28.7749 25.9012 28.9468 26.0301 29.0289L26.1131 29.0816C26.1853 29.1285 26.2225 29.2134 26.2078 29.2984C26.1922 29.3824 26.1277 29.4498 26.0437 29.4673C25.9891 29.48 25.9314 29.4693 25.8846 29.439L25.5447 29.2212L25.6668 29.0298C25.7996 28.8238 25.825 28.5669 25.7361 28.3384C25.6473 28.1109 25.4539 27.939 25.2166 27.8775C25.3045 27.6158 25.2449 27.3277 25.0603 27.1236C24.8768 26.9185 24.5965 26.8287 24.3279 26.8873C24.3084 26.8912 24.2889 26.897 24.2693 26.9029L24.2683 26.9039C24.2078 26.7789 24.1141 26.6734 23.9969 26.5982C23.7596 26.4468 23.4588 26.4371 23.2117 26.5738C23.0672 26.3609 22.826 26.2349 22.5682 26.2378C22.3114 26.2408 22.0731 26.3736 21.9334 26.5894L21.9236 26.605L21.7108 26.3384L23.1258 24.1294L24.3543 24.5894L23.9412 24.9566L23.9422 24.9585C23.8768 25.0162 23.8426 25.1021 23.8494 25.189C23.8787 25.5279 24.0916 25.8228 24.4041 25.9566C24.7167 26.0904 25.078 26.0406 25.3426 25.8277C25.3485 25.8228 25.3543 25.8179 25.3602 25.813C25.577 25.606 25.7635 25.4478 25.9041 25.3345V25.3335C26.0331 25.6158 26.2782 25.8287 26.575 25.9175C26.6317 25.9341 26.6854 25.9585 26.7342 25.9907L28.3885 27.0493L28.4168 27.0679H28.4159C28.5145 27.1304 28.5438 27.2613 28.4813 27.3599L28.4793 27.3609ZM29.3133 26.4419L29.241 26.3013L27.867 23.6461C27.867 23.6431 27.865 23.6392 27.8641 23.6363H27.865C27.8543 23.605 27.8387 23.5767 27.8182 23.5503L27.7684 23.4546L28.6238 23.0123L30.1687 25.9995L29.3133 26.4419ZM16.5633 14.484C16.5731 14.151 16.7957 13.8619 17.1151 13.7681V13.6773V13.6783C17.1151 13.524 17.2391 13.4 17.3924 13.4C17.5457 13.4 17.6707 13.524 17.6707 13.6783V13.7681C17.8826 13.8336 18.0575 13.984 18.1551 14.1832C18.2196 14.3219 18.16 14.4879 18.0213 14.5523C17.8826 14.6178 17.7166 14.5582 17.6522 14.4195C17.5985 14.3277 17.4989 14.273 17.3924 14.2789C17.244 14.2789 17.117 14.3726 17.117 14.483C17.117 14.5934 17.242 14.6871 17.3924 14.6871V14.6881C17.8318 14.6695 18.2029 15.0104 18.2234 15.4498C18.2137 15.7828 17.991 16.0709 17.6717 16.1646V16.2555C17.6717 16.4088 17.5467 16.5338 17.3934 16.5338C17.2401 16.5338 17.116 16.4088 17.116 16.2555V16.1656C16.9041 16.1002 16.7283 15.9498 16.6316 15.7496C16.5662 15.6109 16.6258 15.4449 16.7654 15.3805C16.9041 15.315 17.0691 15.3746 17.1346 15.5142C17.1873 15.606 17.2879 15.6597 17.3934 15.6539C17.5418 15.6539 17.6668 15.5601 17.6668 15.4498C17.6668 15.3385 17.5418 15.2457 17.3934 15.2457V15.2447C16.9549 15.2633 16.5828 14.9224 16.5633 14.484ZM17.3924 17.5454C18.4364 17.5454 19.3768 16.9175 19.7762 15.9537C20.1747 14.9888 19.9539 13.8794 19.2166 13.1422C18.4793 12.4049 17.369 12.1842 16.4051 12.5826C15.4413 12.982 14.8133 13.9224 14.8133 14.9664C14.8143 16.3902 15.9696 17.5444 17.3933 17.5454L17.3924 17.5454ZM17.3924 12.942C18.2117 12.942 18.951 13.4351 19.2645 14.192C19.578 14.9488 19.4051 15.8199 18.826 16.399C18.2469 16.9781 17.3748 17.1519 16.618 16.8375C15.8612 16.524 15.368 15.7857 15.369 14.9664C15.37 13.8482 16.2762 12.9429 17.3934 12.9419L17.3924 12.942ZM16.8153 22.9077H15.3612C15.2879 22.9077 15.2176 22.937 15.1649 22.9887C15.1131 23.0415 15.0838 23.1118 15.0838 23.185V24.6782C15.0838 24.7524 15.1131 24.8227 15.1649 24.8745C15.2176 24.9272 15.2879 24.9565 15.3612 24.9555H16.8162C16.8895 24.9565 16.9608 24.9272 17.0125 24.8745C17.0643 24.8227 17.0936 24.7514 17.0936 24.6782V23.185C17.0936 23.1118 17.0643 23.0415 17.0125 22.9887C16.9608 22.937 16.8895 22.9077 16.8162 22.9077H16.8153ZM16.5379 24.3999H15.6375L15.6385 23.4634H16.5389L16.5379 24.3999ZM19.3679 22.2397H17.9128C17.7595 22.2397 17.6355 22.3638 17.6355 22.5171V24.6772C17.6355 24.7514 17.6638 24.8218 17.7165 24.8745C17.7683 24.9262 17.8396 24.9555 17.9128 24.9555H19.3679C19.4411 24.9565 19.5124 24.9272 19.5642 24.8745C19.6159 24.8227 19.6452 24.7514 19.6452 24.6782V22.5181C19.6452 22.3647 19.5222 22.2407 19.3689 22.2407L19.3679 22.2397ZM19.0906 24.3999H18.1902L18.1911 22.7954H19.0915L19.0906 24.3999ZM20.6081 17.3442C20.4997 17.2358 20.4997 17.06 20.6081 16.9516L21.7985 15.7612C21.8513 15.7084 21.9216 15.6801 21.9948 15.6801H25.1853C25.3396 15.6801 25.4636 15.8041 25.4636 15.9574C25.4636 16.1108 25.3396 16.2348 25.1853 16.2348H22.1101L21.0007 17.3442H21.0017C20.9499 17.3959 20.8786 17.4262 20.8054 17.4262C20.7312 17.4262 20.6609 17.3959 20.6091 17.3442L20.6081 17.3442ZM25.4391 17.267C25.4391 17.3402 25.4098 17.4115 25.3581 17.4633C25.3063 17.515 25.235 17.5443 25.1618 17.5443H22.1873C22.033 17.5443 21.9089 17.4203 21.9089 17.267C21.9089 17.1137 22.033 16.9896 22.1873 16.9896H25.1618C25.236 16.9887 25.3063 17.0189 25.3581 17.0707C25.4108 17.1234 25.4401 17.1938 25.4391 17.268V17.267ZM19.2271 25.9457C19.3355 26.0551 19.3355 26.2309 19.2271 26.3393L18.0377 27.5297C17.9859 27.5814 17.9156 27.6107 17.8414 27.6107H14.6499C14.4995 27.6068 14.3804 27.4838 14.3804 27.3334C14.3804 27.183 14.4995 27.0599 14.6499 27.0551H17.7251L18.8345 25.9457H18.8335C18.8863 25.8939 18.9566 25.8646 19.0308 25.8646C19.104 25.8646 19.1754 25.894 19.2271 25.9457ZM14.6734 25.7455L17.6499 25.7465C17.8032 25.7465 17.9272 25.8705 17.9272 26.0239C17.9272 26.1772 17.8032 26.3022 17.6499 26.3022H14.6734C14.5201 26.3022 14.396 26.1772 14.396 26.0239C14.396 25.8705 14.5201 25.7465 14.6734 25.7465V25.7455ZM21.5434 17.8511L19.3432 18.4409H19.3442C19.2475 18.4663 19.1733 18.5415 19.1469 18.6372C19.1215 18.7329 19.1488 18.8354 19.2192 18.9057L19.5815 19.268C18.3686 20.5542 16.8187 21.4731 15.1077 21.9203C14.972 21.9554 14.8841 22.0853 14.9017 22.224C14.9192 22.3627 15.0374 22.4671 15.1771 22.4671H15.1927C17.2015 22.4662 19.1244 21.6527 20.5237 20.2103L20.8293 20.516C20.8997 20.5863 21.0022 20.6137 21.0979 20.5883C21.1936 20.5619 21.2688 20.4867 21.2942 20.391L21.884 18.1908C21.9094 18.0951 21.8821 17.9935 21.8118 17.9232C21.7415 17.8529 21.6391 17.8257 21.5434 17.8511ZM20.8822 19.7827L20.7123 19.6147C20.6586 19.56 20.5844 19.5307 20.5082 19.5337C20.4321 19.5356 20.3598 19.5688 20.308 19.6255C19.6137 20.4009 18.7514 21.0093 17.7875 21.4028C18.684 20.8813 19.4907 20.2182 20.1743 19.4389C20.27 19.3286 20.2641 19.1636 20.1606 19.061L19.9526 18.853L21.2231 18.5122L20.8822 19.7827ZM14.3715 18.9644C14.3715 18.811 14.4965 18.686 14.6498 18.686H17.5923C17.7427 18.6909 17.8619 18.814 17.8619 18.9644C17.8619 19.1147 17.7427 19.2378 17.5923 19.2427H14.6498C14.5756 19.2427 14.5053 19.2134 14.4536 19.1606C14.4008 19.1089 14.3715 19.0376 14.3715 18.9644ZM14.3715 20.0122C14.3715 19.938 14.4008 19.8677 14.4536 19.8159C14.5053 19.7632 14.5756 19.7339 14.6498 19.7339H16.9594C17.1127 19.7339 17.2368 19.8589 17.2368 20.0122C17.2368 20.1655 17.1127 20.2896 16.9594 20.2896H14.6498C14.5756 20.2896 14.5053 20.2603 14.4536 20.2085C14.4008 20.1567 14.3715 20.0854 14.3715 20.0122Z" fill="white"/>
<defs>
<linearGradient id="paint0_linear_4342_6213" x1="15.5406" y1="57.151" x2="57.4094" y2="19.2134" gradientUnits="userSpaceOnUse">
<stop stop-color="#FF1717"/>
<stop offset="1" stop-color="#FF6461"/>
</linearGradient>
</defs>
</svg>
