<svg width="40" height="40" viewBox="0 0 40 40" fill="none" xmlns="http://www.w3.org/2000/svg">
<rect width="40" height="40" rx="10" fill="url(#paint0_linear_4342_6217)"/>
<path d="M28.5831 21.0007C28.9327 20.5398 29.2374 20.0476 29.4933 19.5291C30.1593 18.158 30.2247 16.9383 29.6837 15.9998C29.0236 14.8583 27.5519 14.2909 25.5255 14.3915C25.3585 13.9813 24.9347 13.7362 24.4952 13.7977C23.5695 11.9911 22.3419 11 21.0235 11C19.6554 11 18.3858 12.0674 17.4483 14.005C17.378 14.1515 17.3096 14.3009 17.2442 14.4552C17.0782 14.4356 16.9141 14.419 16.753 14.4073C14.6066 14.2501 13.0491 14.8155 12.3633 16.0001C11.8223 16.9385 11.8887 18.1583 12.5537 19.5293C12.8096 20.0478 13.1143 20.54 13.4639 21.0009C13.3643 21.1347 13.2686 21.2675 13.1778 21.4013C11.9678 23.1816 11.6787 24.8153 12.3633 26C12.9727 27.0557 14.2754 27.6202 16.0693 27.6202C16.29 27.6202 16.5175 27.6114 16.7529 27.5948C16.914 27.583 17.0781 27.5664 17.2431 27.5469C17.4667 28.0801 17.7411 28.5909 18.0614 29.0723C18.9159 30.333 19.9403 31 21.0234 31C22.1065 31 23.1308 30.333 23.9854 29.0703C24.3057 28.5889 24.5801 28.0791 24.8037 27.5459C24.9688 27.5654 25.1328 27.582 25.2939 27.5938C25.5293 27.6104 25.7568 27.6192 25.9775 27.6192C27.7715 27.6192 29.0742 27.0547 29.6835 25.999C30.3681 24.8145 30.078 23.1808 28.869 21.4003C28.7782 21.2666 28.6825 21.1337 28.5829 21.0009L28.5831 21.0007ZM29.2023 16.277C29.7648 17.2516 29.3995 18.4518 28.9933 19.2857H28.9943C28.7755 19.7291 28.5187 20.1519 28.2267 20.5494C27.508 19.693 26.6984 18.9176 25.8127 18.234C25.6877 17.319 25.4836 16.4157 25.2043 15.5348C25.3977 15.3912 25.5305 15.1813 25.5783 14.9459C27.3732 14.86 28.6555 15.3288 29.2023 16.277ZM16.1164 22.7242C16.0578 22.7496 16.0022 22.7799 15.9504 22.815C15.303 22.2643 14.7063 21.6568 14.1682 20.9996C14.759 20.278 15.4192 19.6158 16.1389 19.0221C16.0754 19.6656 16.0432 20.3278 16.0432 20.9986C16.0432 21.5787 16.0676 22.1568 16.1164 22.7242ZM16.4934 23.2027V23.2037C16.6604 23.2037 16.8107 23.3043 16.8752 23.4586C16.9387 23.6129 16.9035 23.7906 16.7853 23.9078C16.6672 24.026 16.4894 24.0611 16.3351 23.9976C16.1809 23.9342 16.0803 23.7838 16.0803 23.6168C16.0803 23.5064 16.1242 23.4019 16.2014 23.3238C16.2785 23.2467 16.384 23.2027 16.4934 23.2027ZM17.0764 24.3873C17.5432 24.7125 18.0324 25.023 18.5334 25.3121C19.1144 25.648 19.7043 25.9507 20.2931 26.2173V26.2193C19.4191 26.5455 18.5158 26.7857 17.5949 26.9371C17.2961 26.1421 17.0685 25.3228 16.9152 24.4869C16.9728 24.4595 17.0266 24.4264 17.0764 24.3873ZM18.8107 24.8316C18.3273 24.5523 17.8557 24.2535 17.4055 23.94V23.941C17.5002 23.6734 17.4728 23.3785 17.3312 23.1334C17.1896 22.8873 16.9474 22.7174 16.6682 22.6656C16.6232 22.1168 16.5988 21.5582 16.5988 20.9996C16.5979 20.1754 16.6496 19.3522 16.7522 18.5338C18.0676 17.5377 19.5021 16.7086 21.0236 16.069C21.7834 16.3883 22.5216 16.7555 23.2345 17.1686C23.9484 17.5797 24.6359 18.0358 25.2921 18.5347C25.3966 19.3521 25.4484 20.1754 25.4484 20.9996C25.4484 21.5582 25.425 22.1168 25.3791 22.6626C25.1007 22.7144 24.8586 22.8853 24.716 23.1304C24.5744 23.3755 24.547 23.6714 24.6418 23.938C24.1916 24.2515 23.7199 24.5513 23.2365 24.8296C22.5226 25.2437 21.7834 25.6109 21.0236 25.9311C20.2639 25.6118 19.5246 25.2446 18.8117 24.8316L18.8107 24.8316ZM16.8693 17.7574C17.0236 16.8385 17.2668 15.9361 17.5959 15.0632C18.5168 15.2146 19.4201 15.4548 20.2941 15.782C19.7033 16.0495 19.1144 16.3522 18.5334 16.6872C17.9533 17.0222 17.3957 17.3815 16.8693 17.7574ZM23.7648 15.193C23.9298 15.5191 24.2638 15.7242 24.628 15.7242C24.6456 15.7242 24.6632 15.7242 24.6817 15.7222V15.7232C24.8937 16.3892 25.0587 17.0689 25.1769 17.7574C24.6515 17.3804 24.0948 17.022 23.5138 16.6871C22.9328 16.3511 22.3439 16.0494 21.755 15.7818C22.4103 15.5396 23.0821 15.3434 23.7648 15.193ZM23.5138 25.3129C24.0148 25.0238 24.504 24.7133 24.9708 24.3881V24.3871C25.0206 24.4262 25.0753 24.4594 25.1319 24.4877C24.9786 25.3226 24.7511 26.1429 24.4522 26.9378C23.5314 26.7865 22.628 26.5453 21.754 26.2191C22.3429 25.9506 22.9327 25.6498 23.5138 25.3129ZM25.5538 24.0277C25.3868 24.0277 25.2365 23.9271 25.172 23.7728C25.1085 23.6185 25.1437 23.4408 25.2618 23.3226C25.38 23.2055 25.5577 23.1693 25.712 23.2338C25.8663 23.2973 25.9669 23.4476 25.9669 23.6146C25.9659 23.8431 25.7813 24.0277 25.5538 24.0277ZM26.0968 22.8139C26.045 22.7787 25.9894 22.7484 25.9308 22.723C25.9786 22.1566 26.003 21.5785 26.003 20.9985C26.003 20.3276 25.9698 19.6664 25.9064 19.0209H25.9073C26.6271 19.6147 27.2882 20.2777 27.879 20.9994C27.3409 21.6566 26.7442 22.2631 26.0968 22.8139ZM25.0411 14.7564C25.0411 14.9234 24.9405 15.0738 24.7863 15.1373C24.632 15.2017 24.4542 15.1656 24.3361 15.0484C24.2189 14.9303 24.1827 14.7525 24.2472 14.5982C24.3107 14.4439 24.4611 14.3433 24.628 14.3433C24.8566 14.3433 25.0411 14.5279 25.0411 14.7564ZM17.9485 14.2457C18.7873 12.5104 19.8801 11.5552 21.0237 11.5552C22.1184 11.5552 23.1662 12.4322 23.9894 14.0298C23.8087 14.188 23.6935 14.4087 23.6661 14.647C22.7638 14.8452 21.88 15.1206 21.0247 15.4693C19.9915 15.0445 18.9153 14.732 17.8147 14.5366C17.8586 14.438 17.9026 14.3404 17.9485 14.2457ZM13.053 19.2856C12.6477 18.4507 12.2815 17.2515 12.844 16.2769C13.4153 15.2867 14.7893 14.818 16.7122 14.9596C16.8177 14.9674 16.9232 14.9771 17.0306 14.9889C16.6497 16.0386 16.3821 17.1265 16.2337 18.2338C15.348 18.9164 14.5394 19.6928 13.8207 20.5492C13.5287 20.1518 13.2718 19.729 13.053 19.2856ZM16.7122 27.0396C14.7894 27.1802 13.4162 26.7124 12.844 25.7222C12.2727 24.732 12.554 23.3082 13.637 21.7135C13.6956 21.6266 13.7571 21.5387 13.8206 21.4527C14.3616 22.0992 14.9563 22.6988 15.5989 23.2447C15.4836 23.523 15.5041 23.8385 15.6545 24.0992C15.8049 24.36 16.0686 24.5357 16.3665 24.5748C16.5188 25.4039 16.7405 26.2193 17.0295 27.0113C16.9241 27.022 16.8177 27.0317 16.7122 27.0396ZM23.5246 28.7593C23.0051 29.5278 22.1487 30.4438 21.0237 30.4438C19.8987 30.4438 19.0422 29.5278 18.5227 28.7583C18.2483 28.3491 18.011 27.9155 17.8128 27.4634C18.9133 27.269 19.9895 26.9566 21.0237 26.5308C22.0579 26.9565 23.134 27.269 24.2347 27.4634C24.0364 27.9155 23.7991 28.3481 23.5247 28.7583L23.5246 28.7593ZM29.2023 25.7223C28.631 26.7125 27.2571 27.1813 25.3341 27.0397C25.2296 27.0318 25.1232 27.0221 25.0168 27.0113H25.0177C25.3068 26.2193 25.5285 25.4039 25.6808 24.5748C25.9786 24.5358 26.2423 24.36 26.3927 24.0993C26.5431 23.8385 26.5636 23.5231 26.4484 23.2448C27.09 22.6989 27.6847 22.0993 28.2267 21.4528C28.2902 21.5397 28.3517 21.6266 28.4103 21.7135C29.4933 23.3083 29.7736 24.7311 29.2023 25.7223ZM21.0832 18.2224C19.9211 18.2224 18.8732 18.9216 18.4289 19.9958C17.9846 21.069 18.2297 22.3044 19.052 23.1265C19.8733 23.9478 21.1086 24.1939 22.1827 23.7496C23.2559 23.3043 23.9561 22.2564 23.9561 21.0953C23.9552 19.5084 22.6691 18.2234 21.0832 18.2224ZM21.0832 23.4128C20.1457 23.4128 19.301 22.8474 18.9416 21.9822C18.5832 21.116 18.7814 20.1189 19.4445 19.4559C20.1076 18.7938 21.1037 18.5956 21.97 18.954C22.8363 19.3124 23.4006 20.1581 23.4006 21.0956C23.3987 22.3749 22.3625 23.4109 21.0832 23.4128ZM22.7658 21.0955C22.7658 21.2488 22.6408 21.3728 22.4875 21.3728C22.3341 21.3728 22.2101 21.2488 22.2101 21.0955C22.2091 20.4724 21.7052 19.9685 21.0832 19.9676C20.9299 19.9676 20.8058 19.8435 20.8058 19.6902C20.8058 19.5369 20.9298 19.4129 21.0832 19.4129C22.0119 19.4138 22.7648 20.1658 22.7658 21.0955Z" fill="white"/>
<defs>
<linearGradient id="paint0_linear_4342_6217" x1="15.5406" y1="57.151" x2="57.4094" y2="19.2134" gradientUnits="userSpaceOnUse">
<stop stop-color="#FF1717"/>
<stop offset="1" stop-color="#FF6461"/>
</linearGradient>
</defs>
</svg>
