<svg width="40" height="40" viewBox="0 0 40 40" fill="none" xmlns="http://www.w3.org/2000/svg">
<rect width="40" height="40" rx="10" fill="url(#paint0_linear_4342_6220)"/>
<path fill-rule="evenodd" clip-rule="evenodd" d="M30.2935 26.0058C30.2935 26.0839 30.2273 26.1501 30.1492 26.1501H29.2386C29.1604 26.1501 29.0943 26.0839 29.0943 26.0058V21.2551C29.0943 21.177 29.1604 21.1108 29.2386 21.1108H30.1492C30.2273 21.1108 30.2935 21.177 30.2935 21.2551V26.0058ZM25.0934 27.0782C24.8904 27.3033 24.5421 27.3208 24.317 27.1177C24.2094 27.0203 24.0468 27.0129 23.931 27.1002L23.8814 27.137C23.7656 27.2243 23.7279 27.3814 23.7913 27.5119C23.8888 27.7132 23.8548 27.9585 23.7059 28.1239C23.6085 28.2324 23.4734 28.2958 23.3255 28.3031C23.1775 28.3105 23.0369 28.2609 22.9285 28.1625C22.8145 28.0596 22.6409 28.0587 22.5251 28.1598L22.5076 28.1745C22.3918 28.2765 22.3707 28.4483 22.458 28.5742C22.6023 28.7828 22.5839 29.0695 22.4148 29.2569C22.2117 29.4821 21.8625 29.4995 21.6374 29.2965C21.5915 29.2551 21.5345 29.2294 21.4748 29.2211L21.4399 29.2165C21.3213 29.2009 21.2046 29.256 21.1412 29.358C21.0787 29.46 21.0815 29.5896 21.1504 29.6879C21.2671 29.857 21.2524 30.0913 21.1146 30.2429C21.0355 30.3311 20.9253 30.3826 20.8049 30.389C20.6845 30.3955 20.5706 30.355 20.4824 30.2751L20.4281 30.2264L20.8159 29.7247C21.1688 29.268 21.0842 28.6091 20.6284 28.2562L20.6174 28.248C20.4401 28.112 20.2333 28.0403 20.0247 28.0311C20.0358 27.9392 20.0348 27.8455 20.0229 27.7508C19.9843 27.4494 19.8308 27.182 19.5919 26.9973L19.5579 26.9707C19.3907 26.8411 19.194 26.763 18.9891 26.741C19.1444 26.2861 19.0038 25.7623 18.6023 25.4517C18.1998 25.1402 17.654 25.1375 17.2524 25.4058C17.1807 25.2183 17.0576 25.0474 16.8876 24.9151L16.8526 24.8884C16.6137 24.7028 16.316 24.6229 16.0146 24.6615C15.7141 24.7001 15.4467 24.8526 15.2611 25.0924L14.4828 26.0995C14.4286 26.1694 14.3844 26.2429 14.3495 26.3201C14.0288 26.1905 13.7146 26.0416 13.4104 25.8735V21.5225L14.492 21.4719C14.9174 21.4526 15.2868 21.3414 15.6526 21.1237L16.2526 20.7662C17.2322 20.1818 18.4111 20.2985 19.2573 21.063L20.497 22.1832L19.3152 23.2509C19.2509 23.3088 19.2142 23.3915 19.2151 23.4788C19.216 23.5652 19.2537 23.647 19.3189 23.704L19.5597 23.9144C20.3665 24.6201 21.5528 24.6394 22.3816 23.9603L22.4257 23.9245L25.0529 26.2972C25.279 26.5048 25.2975 26.8531 25.0934 27.0782ZM19.0506 30.3017C19.2426 30.4497 19.5201 30.4147 19.669 30.2227L20.338 29.358C20.4868 29.1659 20.451 28.8884 20.2589 28.7396L20.2488 28.7313C20.0568 28.5824 19.7793 28.6183 19.6304 28.8103L19.0147 29.6061C18.9973 29.6291 18.978 29.6511 18.9587 29.6732L18.9614 29.6759C18.8898 29.7687 18.8585 29.8845 18.8732 30.0012C18.8879 30.1179 18.9476 30.2218 19.0405 30.2944L19.0506 30.3017ZM18.1831 29.4352C18.3237 29.4168 18.4487 29.346 18.5341 29.2348L19.317 28.2213C19.4953 27.9906 19.453 27.658 19.2224 27.4797L19.1875 27.4531C19.0763 27.3667 18.9375 27.33 18.7969 27.3474C18.6563 27.3649 18.5323 27.4365 18.4459 27.5477L17.6759 28.5438C17.6713 28.5503 17.6667 28.5549 17.6621 28.5604C17.4838 28.791 17.527 29.1237 17.7567 29.3019L17.7907 29.3286C17.9037 29.4159 18.0425 29.4526 18.1831 29.4352ZM16.4252 28.2727C16.665 28.4584 17.0115 28.4133 17.1971 28.1735L18.331 26.7069C18.5166 26.4671 18.4725 26.1206 18.2327 25.935C18.1325 25.8579 18.014 25.8202 17.8964 25.8202C17.7319 25.8202 17.5683 25.8937 17.4608 26.0343L16.3269 27.5009C16.2377 27.6167 16.1991 27.7609 16.2175 27.907C16.2359 28.0531 16.3103 28.1836 16.4252 28.2727ZM15.4824 27.3474C15.623 27.3299 15.748 27.2583 15.8334 27.1471H15.8344C15.8389 27.1416 15.8426 27.1351 15.8472 27.1296L16.6127 26.139C16.7909 25.9084 16.7487 25.5758 16.518 25.3975L16.484 25.3708C16.3728 25.2845 16.2341 25.2468 16.0935 25.2652C15.9529 25.2835 15.8279 25.3543 15.7424 25.4655L14.9632 26.4726C14.7849 26.7033 14.8281 27.0359 15.0579 27.2142L15.0919 27.2408C15.204 27.3281 15.3418 27.3658 15.4824 27.3474ZM12.8056 26.0058C12.8056 26.0839 12.7394 26.1501 12.6613 26.1501H11.7507C11.6726 26.1501 11.6064 26.0839 11.6064 26.0058V21.2551C11.6064 21.177 11.6726 21.1108 11.7507 21.1108H12.6613C12.7394 21.1108 12.8056 21.177 12.8056 21.2551V26.0058ZM22.6415 21.0657L21.1529 22.4101L19.9739 23.4742C20.5565 23.9704 21.4037 23.9796 21.9983 23.4944L22.2437 23.2931L23.4548 22.3016C23.5843 22.1951 23.7755 22.2144 23.8812 22.3439C23.9868 22.4735 23.9675 22.6646 23.8389 22.7703L22.9007 23.5394L25.4599 25.8514C25.6859 26.0563 25.8127 26.3311 25.8366 26.615C26.8189 26.4496 27.691 26.1841 28.4885 25.8082V21.5261L27.4069 21.4756C26.9815 21.4563 26.613 21.3451 26.2463 21.1273L25.6463 20.7698C24.6667 20.1854 23.4868 20.3021 22.6415 21.0657ZM15.4546 17.7401C14.589 17.7401 13.8686 17.1116 13.7243 16.2873H17.185C17.0407 17.1116 16.3194 17.7401 15.4546 17.7401ZM15.4546 12.0557L17.0499 15.6817H13.8602L15.4546 12.0557ZM26.4449 17.7401C25.5802 17.7401 24.8589 17.1116 24.7146 16.2873H28.1752C28.031 17.1116 27.3105 17.7401 26.4449 17.7401ZM28.0401 15.6808H24.8498L26.445 12.0548L28.0401 15.6808ZM30.149 20.5052H29.2384C28.9443 20.5052 28.6898 20.6752 28.5667 20.9223L27.4345 20.87C27.1083 20.8553 26.8372 20.7735 26.557 20.6062L25.9569 20.2479C25.3661 19.8959 24.7017 19.7443 24.0346 19.8105C23.3674 19.8766 22.7453 20.155 22.2353 20.6154L21.253 21.5031V11.6065H25.9818L24.1091 15.862C24.0926 15.8987 24.0834 15.9401 24.0834 15.9842C24.0834 17.2863 25.1429 18.3458 26.445 18.3458C27.748 18.3458 28.8075 17.2863 28.8075 15.9842C28.8075 15.9401 28.7983 15.8997 28.7818 15.862L26.7243 11.1856C26.7234 11.1856 26.7234 11.1847 26.7234 11.1847L26.7225 11.1819C26.7216 11.181 26.7206 11.1801 26.7206 11.1792C26.716 11.1682 26.7105 11.1571 26.7032 11.147C26.7013 11.1443 26.7004 11.1424 26.6986 11.1397C26.6912 11.1286 26.6839 11.1185 26.6756 11.1084C26.6738 11.1066 26.6719 11.1048 26.6701 11.1029C26.6637 11.0946 26.6554 11.0873 26.6471 11.0799C26.6453 11.0781 26.6425 11.0754 26.6407 11.0735C26.6315 11.0652 26.6214 11.0579 26.6104 11.0505C26.6085 11.0496 26.6076 11.0487 26.6058 11.0478C26.5957 11.0414 26.5856 11.0358 26.5754 11.0312C26.5727 11.0303 26.5709 11.0285 26.5681 11.0276C26.5562 11.0221 26.5442 11.0175 26.5313 11.0138C26.5304 11.0138 26.5295 11.0129 26.5286 11.0129C26.5166 11.0092 26.5056 11.0064 26.4927 11.0046C26.49 11.0037 26.4863 11.0037 26.4826 11.0028C26.4698 11.0009 26.456 11 26.4422 11L20.9507 11.0009H20.9498H20.9489H15.4548C15.441 11.0009 15.4282 11.0018 15.4153 11.0037C15.4125 11.0046 15.4089 11.0046 15.4052 11.0055C15.3932 11.0074 15.3813 11.0101 15.3694 11.0138C15.3684 11.0138 15.3675 11.0147 15.3666 11.0147C15.3537 11.0184 15.3418 11.0239 15.3298 11.0285C15.3271 11.0294 15.3252 11.0312 15.3225 11.0322C15.3124 11.0368 15.3023 11.0423 15.2922 11.0487C15.2903 11.0496 15.2894 11.0505 15.2876 11.0515C15.2775 11.0588 15.2674 11.0662 15.2572 11.0744C15.2545 11.0763 15.2527 11.079 15.2499 11.0809C15.2416 11.0882 15.2343 11.0956 15.2269 11.1038C15.2251 11.1057 15.2242 11.1075 15.2223 11.1094C15.2141 11.1195 15.2067 11.1296 15.1994 11.1406C15.1975 11.1433 15.1966 11.1452 15.1948 11.1479C15.1883 11.1581 15.1828 11.1691 15.1773 11.1801C15.1764 11.181 15.1764 11.1819 15.1764 11.1829L15.1755 11.1856C15.1755 11.1856 15.1745 11.1865 15.1745 11.1875L13.1171 15.8638C13.1006 15.9006 13.0914 15.9419 13.0914 15.986C13.0914 17.2882 14.1518 18.3476 15.4539 18.3476C16.7569 18.3476 17.8164 17.2881 17.8164 15.986C17.8164 15.9419 17.8072 15.9015 17.7907 15.8638L15.918 11.6083H20.6459V21.5059L19.6635 20.6182C19.1535 20.1578 18.5314 19.8785 17.8643 19.8132C17.1972 19.748 16.5328 19.8987 15.9419 20.2506L15.3419 20.609C15.0607 20.7763 14.7905 20.858 14.4643 20.8727L13.3322 20.9251C13.2091 20.6779 12.9554 20.5079 12.6605 20.5079L11.7508 20.5052C11.3372 20.5052 11 20.8415 11 21.255V26.0057C11 26.4192 11.3363 26.7556 11.7508 26.7556H12.6614C12.8966 26.7556 13.108 26.6462 13.2449 26.4762C13.573 26.6508 13.9111 26.8061 14.2557 26.9384C14.2925 27.2279 14.4386 27.5026 14.6876 27.6956L14.7216 27.7223C14.9219 27.8766 15.1627 27.9584 15.4126 27.9584C15.4613 27.9584 15.51 27.9557 15.5597 27.9492C15.5771 27.9474 15.5937 27.9446 15.6111 27.9419C15.6387 28.2506 15.7903 28.5483 16.0549 28.7533C16.2654 28.915 16.5135 28.994 16.7607 28.994C16.825 28.994 16.8884 28.9885 16.9509 28.9784C16.9757 29.2853 17.1255 29.5803 17.3874 29.7834L17.4214 29.81C17.6217 29.9644 17.8624 30.0462 18.1124 30.0462C18.1611 30.0462 18.2098 30.0434 18.2594 30.037C18.2622 30.0361 18.264 30.0361 18.2659 30.0361C18.2668 30.0499 18.2686 30.0646 18.2704 30.0783C18.3063 30.3568 18.4478 30.603 18.6674 30.7739L18.6784 30.7822C18.8687 30.9292 19.0938 31 19.318 31C19.5845 31 19.8491 30.8989 20.0486 30.7041L20.0761 30.7289C20.2709 30.9054 20.519 31 20.7809 31C20.7993 31 20.8177 31 20.8361 30.9991C21.1182 30.9844 21.3764 30.8622 21.5648 30.6535C21.7247 30.4762 21.8147 30.2584 21.8331 30.0342C22.2043 30.0893 22.5949 29.9644 22.8641 29.6666C23.0598 29.4507 23.16 29.1787 23.1637 28.9049C23.2262 28.9122 23.2905 28.914 23.3548 28.9104C23.6636 28.8948 23.9475 28.7597 24.1543 28.5318C24.3316 28.336 24.4318 28.0934 24.4501 27.8417C24.8379 27.9216 25.2579 27.8003 25.5418 27.4851C25.608 27.4116 25.6622 27.3326 25.7063 27.249C26.7814 27.0863 27.7371 26.8134 28.6101 26.4183C28.7452 26.6214 28.9749 26.7555 29.2368 26.7555H30.1475C30.561 26.7555 30.8973 26.4192 30.8973 26.0057L30.8991 21.255C30.9001 20.8415 30.5628 20.5052 30.1493 20.5052L30.149 20.5052Z" fill="white"/>
<defs>
<linearGradient id="paint0_linear_4342_6220" x1="15.5406" y1="57.151" x2="57.4094" y2="19.2134" gradientUnits="userSpaceOnUse">
<stop stop-color="#FF1717"/>
<stop offset="1" stop-color="#FF6461"/>
</linearGradient>
</defs>
</svg>
