<svg width="40" height="40" viewBox="0 0 40 40" fill="none" xmlns="http://www.w3.org/2000/svg">
<rect width="40" height="40" rx="10" fill="url(#paint0_linear_4342_6232)"/>
<path fill-rule="evenodd" clip-rule="evenodd" d="M12.4879 22.473C12.4879 22.6077 12.3787 22.7169 12.2439 22.7169C12.1092 22.7169 12 22.6077 12 22.473V12.3019C12 11.5854 12.5854 11 13.3019 11H27.0263C27.7429 11 28.3283 11.5856 28.3283 12.3019V22.473C28.3283 22.6077 28.2191 22.7169 28.0843 22.7169C27.9496 22.7169 27.8404 22.6077 27.8404 22.473V12.3019C27.8404 11.8549 27.4736 11.4879 27.0263 11.4879H13.3017C12.8544 11.4879 12.4876 11.8547 12.4876 12.3019V22.473H12.4879ZM19.7255 20.6648V19.1862C19.7255 19.0515 19.6163 18.9423 19.4816 18.9423H19.211L20.164 17.207L21.1171 18.9421H20.8465C20.7117 18.9421 20.6026 19.0513 20.6026 19.186V20.6646C20.6026 20.7993 20.7117 20.9085 20.8465 20.9085C20.9812 20.9085 21.0904 20.7993 21.0904 20.6646V19.4299H21.529V19.4295C21.7119 19.4297 21.8321 19.2322 21.7424 19.0687L20.3784 16.5859C20.286 16.4158 20.0432 16.4156 19.9506 16.5842L18.5928 19.0557C18.4872 19.2346 18.6191 19.4299 18.7991 19.4299H19.2376V20.6646C19.2376 20.7993 19.3468 20.9085 19.4816 20.9085C19.6163 20.9088 19.7255 20.7996 19.7255 20.6648ZM19.5342 29.8523C19.5342 29.9871 19.4251 30.0963 19.2903 30.0963C19.1556 30.0963 19.0464 29.9871 19.0464 29.8523V29.2259C18.6639 29.1447 18.3415 28.8697 18.3307 28.4107C18.3276 28.2766 18.4336 28.1652 18.5679 28.1621C18.702 28.1589 18.8134 28.2652 18.8166 28.3993C18.8282 28.8948 19.7629 28.8786 19.7629 28.4051C19.7629 28.1771 19.526 28.0383 19.2892 28.0372C18.402 28.0329 18.0148 27.087 18.6253 26.5667C18.7415 26.4678 18.8859 26.3943 19.0464 26.3566V25.7358C19.0464 25.601 19.1556 25.4919 19.2903 25.4919C19.4251 25.4919 19.5342 25.601 19.5342 25.7358V26.3566C19.9255 26.4485 20.24 26.7653 20.2499 27.1776C20.253 27.3117 20.1468 27.4231 20.0127 27.4263C19.8786 27.4294 19.7672 27.3231 19.7641 27.189C19.756 26.8465 19.2314 26.6895 18.9419 26.9361C18.6715 27.1666 18.8661 27.5491 19.2914 27.5511C19.8015 27.5536 20.251 27.9033 20.251 28.4049C20.251 28.8629 19.9223 29.1432 19.5345 29.2255L19.5342 29.8523ZM16.019 24.0594H15.0455V23.7958H16.0188C16.1535 23.7958 16.2627 23.6866 16.2627 23.5518C16.2627 23.4171 16.1535 23.3079 16.0188 23.3079H15.1718C15.3336 22.9147 15.6894 22.4454 16.1201 22.4454C16.5262 22.4454 16.884 22.6714 17.0714 23.023C17.1346 23.1413 17.2817 23.1862 17.4001 23.123C17.5185 23.06 17.5633 22.9127 17.5001 22.7943C17.2297 22.2869 16.703 21.9576 16.1201 21.9576C15.4056 21.9576 14.8637 22.6557 14.6548 23.3079H14.3223C14.1875 23.3079 14.0783 23.4171 14.0783 23.5518C14.0783 23.6866 14.1875 23.7958 14.3223 23.7958H14.5561V24.0594H14.3223C14.1875 24.0594 14.0783 24.1686 14.0783 24.3034C14.0783 24.4381 14.1875 24.5473 14.3223 24.5473H14.6548C14.8639 25.1995 15.4056 25.8977 16.1201 25.8977C16.686 25.8977 17.1954 25.5914 17.4741 25.1076C17.5409 24.9912 17.5008 24.8428 17.3846 24.776C17.2683 24.7092 17.1198 24.7493 17.053 24.8654C16.8627 25.1961 16.5098 25.4096 16.1201 25.4096C15.6892 25.4096 15.3334 24.9403 15.1718 24.5471H16.0188C16.1535 24.5471 16.2627 24.4379 16.2627 24.3031C16.2627 24.1686 16.1535 24.0594 16.019 24.0594ZM25.4769 26.67C25.6116 26.67 25.7208 26.7792 25.7208 26.914C25.7208 27.0487 25.6116 27.1579 25.4769 27.1579H24.5317V28.0879C24.5317 28.2226 24.4225 28.3318 24.2877 28.3318C24.153 28.3318 24.0438 28.2226 24.0438 28.0879V27.1579H23.0986C22.9638 27.1579 22.8547 27.0487 22.8547 26.914C22.8547 26.7792 22.9638 26.67 23.0986 26.67H24.0438V26.4256H23.0986C22.9638 26.4256 22.8547 26.3165 22.8547 26.1817C22.8547 26.047 22.9638 25.9378 23.0986 25.9378H23.699L22.6089 24.8477C22.5136 24.7524 22.5136 24.598 22.6089 24.5029C22.7042 24.4076 22.8585 24.4076 22.9537 24.5029L24.2877 25.8369L25.6217 24.5029C25.717 24.4076 25.8715 24.4076 25.9666 24.5029C26.0618 24.5982 26.0618 24.7527 25.9666 24.8477L24.8765 25.9378H25.4769C25.6116 25.9378 25.7208 26.047 25.7208 26.1817C25.7208 26.3165 25.6116 26.4256 25.4769 26.4256H24.5317V26.67H25.4769ZM16.0403 20.7218C14.27 20.7218 12.8345 22.1571 12.8345 23.9276C12.8345 25.7497 14.3512 27.2068 16.1766 27.1305C15.7562 29.1252 17.2763 31 19.3127 31C20.7265 31 21.9579 30.0758 22.3722 28.7531C22.9064 29.1517 23.5694 29.3878 24.2873 29.3878C26.0576 29.3878 27.4931 27.9524 27.4931 26.1819C27.4931 24.4114 26.0578 22.9763 24.2873 22.9763C22.8672 22.9763 21.6397 23.9056 21.2274 25.2237C20.6425 24.7874 19.9201 24.5592 19.1771 24.5915C19.5964 22.6024 18.0812 20.7218 16.0403 20.7218ZM19.0287 25.0903C18.6377 26.0947 17.7586 26.8467 16.6925 27.0669C16.2168 28.7838 17.5055 30.5119 19.313 30.5119C20.5929 30.5119 21.6897 29.6216 21.9653 28.3914C21.3095 27.7025 20.9783 26.7431 21.1102 25.7542C20.5384 25.2502 19.7959 25.0139 19.0287 25.0903ZM17.9624 22.0055C16.901 20.9442 15.1801 20.9442 14.1187 22.0055C13.0573 23.0669 13.0573 24.7881 14.1187 25.8495C15.1801 26.9108 16.901 26.9108 17.9624 25.8495C19.0237 24.7881 19.0237 23.0671 17.9624 22.0055ZM26.2096 24.2599C25.1482 23.1985 23.4273 23.1985 22.3657 24.2599C21.3043 25.3212 21.3043 27.0422 22.3657 28.1038C23.427 29.1651 25.148 29.1651 26.2096 28.1038C27.2709 27.0424 27.2709 25.3215 26.2096 24.2599ZM24.0351 15.5457H26.3854C26.5201 15.5457 26.6293 15.4365 26.6293 15.3017C26.6293 15.167 26.5201 15.0578 26.3854 15.0578H24.0351C23.9003 15.0578 23.7911 15.167 23.7911 15.3017C23.7911 15.4362 23.9003 15.5457 24.0351 15.5457ZM18.9888 15.5457H21.3391C21.4738 15.5457 21.583 15.4365 21.583 15.3017C21.583 15.167 21.4738 15.0578 21.3391 15.0578H18.9888C18.854 15.0578 18.7448 15.167 18.7448 15.3017C18.7448 15.4362 18.854 15.5457 18.9888 15.5457ZM13.8187 12.0271C13.5528 12.0271 13.336 12.2439 13.336 12.5098V13.5601C13.336 13.8249 13.5528 14.0428 13.8187 14.0428H16.4172C16.5501 14.0428 16.6708 13.9886 16.7582 13.9014L16.7578 13.9009C16.8454 13.813 16.8999 13.6924 16.8999 13.5604V12.5095C16.8999 12.2436 16.6831 12.0268 16.4172 12.0268H13.8187V12.0271ZM16.412 12.5147H13.8239V13.5548H16.412V12.5147ZM13.9427 15.5457H16.2932C16.428 15.5457 16.5371 15.4365 16.5371 15.3017C16.5371 15.167 16.428 15.0578 16.2932 15.0578H13.9427C13.808 15.0578 13.6988 15.167 13.6988 15.3017C13.6988 15.4362 13.808 15.5457 13.9427 15.5457Z" fill="white"/>
<defs>
<linearGradient id="paint0_linear_4342_6232" x1="15.5406" y1="57.151" x2="57.4094" y2="19.2134" gradientUnits="userSpaceOnUse">
<stop stop-color="#FF1717"/>
<stop offset="1" stop-color="#FF6461"/>
</linearGradient>
</defs>
</svg>
