<svg width="70" height="70" viewBox="0 0 70 70" fill="none" xmlns="http://www.w3.org/2000/svg">
<path fill-rule="evenodd" clip-rule="evenodd" d="M48.1757 61.867V64.029C48.1757 64.5627 47.7433 64.9975 47.2071 64.9975H5.96855C5.43484 64.9975 5 64.5651 5 64.029V5.96855C5 5.43484 5.4324 5 5.96855 5H35.8144H35.8391H35.8614H35.8638C35.8713 5 35.8787 5 35.8861 5.00247H35.8886C35.896 5.00247 35.9034 5.00494 35.9108 5.00494H35.9133L35.9355 5.00741H35.9404L35.9602 5.00988H35.9652L35.9849 5.01235H35.9899L36.0072 5.0173H36.0146L36.0343 5.02224H36.0393L36.059 5.02718H36.0615L36.0788 5.03212H36.0838L36.1011 5.03706H36.106L36.1282 5.04448L36.1455 5.04942L36.1505 5.05436L36.1653 5.0593L36.1851 5.06918L36.1925 5.07166L36.2024 5.0766L36.2048 5.07907L36.2122 5.08154L36.2221 5.08648L36.2246 5.08895L36.232 5.09389L36.2419 5.09883H36.2444L36.2641 5.10872H36.2666L36.316 5.13343L36.3852 5.18532L36.3926 5.19273L36.4618 5.24462L36.4692 5.25203L36.4791 5.25944L36.5013 5.28168L47.8871 16.675C47.9069 16.6948 47.9242 16.7146 47.9439 16.7343L47.9513 16.7442L47.9588 16.7516L47.9662 16.764V16.7665L47.9711 16.7739L47.9736 16.7763L47.981 16.7862L47.9859 16.7912L47.9983 16.8085L48.0008 16.8109L48.0131 16.8258V16.8282L48.0156 16.8307L48.0279 16.848L48.0403 16.8678L48.0502 16.8851V16.8875L48.0601 16.9048L48.0699 16.9246L48.0724 16.932L48.0774 16.9419L48.0798 16.9444L48.0848 16.9518L48.0897 16.9617C48.1465 17.0852 48.1787 17.2236 48.1787 17.3693V30.6452H64.0314C64.5652 30.6452 65 31.0776 65 31.6137V53.4491C65 53.7876 64.8246 54.0865 64.5602 54.2595L54.998 61.6178C54.8275 61.7735 54.6002 61.8674 54.3507 61.8674L48.1757 61.867ZM46.241 18.3303H35.8116C35.2779 18.3303 34.8431 17.8979 34.8431 17.3618L34.8456 6.93748H6.93717V63.063H46.2415V61.8671H32.5159C31.9822 61.8671 31.5474 61.4347 31.5474 60.8985V39.0366C31.5474 39.0218 31.5498 39.007 31.5498 38.9946V38.9897L31.5523 38.9674V38.965L31.5548 38.9452V38.9402L31.5573 38.9205V38.9155L31.5597 38.8958V38.8933L31.5622 38.8785L31.5696 38.8488V38.8463L31.5745 38.8241V38.8216L31.5795 38.7994V38.7969C31.582 38.7895 31.5844 38.7821 31.5869 38.7747V38.7722L31.5943 38.7525L31.5968 38.7475L31.6042 38.7277C31.6067 38.7203 31.6091 38.7154 31.6116 38.708L31.6141 38.703L31.6215 38.6857L31.624 38.6833L31.6264 38.6783L31.6314 38.666L31.6338 38.6586L31.6413 38.6437L31.6437 38.6363L31.6511 38.624L31.6536 38.6215L31.661 38.6067L31.666 38.5993L31.6684 38.5968L31.6759 38.5844L31.6833 38.5696L31.6907 38.5597L31.6981 38.5474L31.7055 38.5375L31.7104 38.5326L31.7179 38.5227L31.7253 38.5103L31.7327 38.5004L31.7426 38.4856L31.7524 38.4733L31.7673 38.4584L31.7796 38.4436L31.7846 38.4387L31.792 38.4288L31.8439 38.3769C31.8488 38.3719 31.8562 38.367 31.8612 38.3596L31.8834 38.3373C31.8908 38.3299 31.8982 38.325 31.9056 38.3176L31.918 38.3077L31.9279 38.3003L31.9304 38.2978C31.9402 38.2904 31.9526 38.2805 31.9625 38.2731L31.9649 38.2706C31.9724 38.2657 31.9798 38.2608 31.9872 38.2558L41.6037 30.843C41.7792 30.7072 41.9867 30.6429 42.1943 30.6429V30.6404H46.2415L46.241 18.3303ZM36.7801 8.30326V16.3954H44.8722L36.7801 8.30326ZM20.2005 14.9203H32.9747C33.5084 14.9203 33.9432 14.4879 33.9432 13.9517C33.9432 13.418 33.5108 12.9832 32.9747 12.9832H20.2005C19.6668 12.9832 19.232 13.4156 19.232 13.9517C19.2344 14.4854 19.6668 14.9203 20.2005 14.9203ZM14.6855 21.0653H38.49C39.0237 21.0653 39.4585 20.6329 39.4585 20.0968C39.4585 19.5631 39.0261 19.1282 38.49 19.1282H14.6855C14.1518 19.1282 13.7169 19.5606 13.7169 20.0968C13.7169 20.6305 14.1518 21.0653 14.6855 21.0653ZM23.2248 28.4313H42.3839C42.9176 28.4313 43.3524 27.9989 43.3524 27.4627C43.3524 26.929 42.92 26.4942 42.3839 26.4942H23.2248C22.6911 26.4942 22.2587 26.9266 22.2587 27.4627C22.2587 27.9989 22.6911 28.4313 23.2248 28.4313ZM23.2248 32.4217H32.5156C33.0493 32.4217 33.4841 31.9893 33.4841 31.4532C33.4841 30.9195 33.0517 30.4846 32.5156 30.4846L23.2248 30.4871C22.6911 30.4871 22.2587 30.9195 22.2587 31.4557C22.2587 31.9894 22.6911 32.4217 23.2248 32.4217ZM23.2248 53.2514H29.3155C29.8492 53.2514 30.284 52.819 30.284 52.2828C30.284 51.7491 29.8516 51.3143 29.3155 51.3143H23.2248C22.6911 51.3143 22.2587 51.7467 22.2587 52.2828C22.2587 52.819 22.6911 53.2514 23.2248 53.2514ZM23.2248 57.2443H29.3155C29.8492 57.2443 30.284 56.8119 30.284 56.2757C30.284 55.742 29.8516 55.3072 29.3155 55.3072H23.2248C22.6911 55.3072 22.2587 55.7396 22.2587 56.2757C22.2587 56.8094 22.6911 57.2443 23.2248 57.2443ZM18.3374 30.1069V32.7014H11.8538V26.2178H16.1038C16.6375 26.2178 17.0723 25.7854 17.0723 25.2493C17.0723 24.7156 16.6399 24.2807 16.1038 24.2807H10.8853C10.3516 24.2807 9.91675 24.7131 9.91675 25.2493V33.6678C9.91675 34.2015 10.3492 34.6363 10.8853 34.6363H19.3038C19.8375 34.6363 20.2724 34.2039 20.2724 33.6678V30.1073C20.2724 29.5735 19.84 29.1387 19.3038 29.1387C18.7726 29.1412 18.3374 29.5733 18.3374 30.1069ZM12.1874 28.5899L14.678 31.6216C15.0165 32.0318 15.6244 32.0911 16.0345 31.7551C16.1185 31.6859 16.1852 31.6093 16.2396 31.5228L21.5273 24.0556C21.8337 23.6208 21.7299 23.0203 21.2975 22.7139C20.8626 22.4075 20.2622 22.5113 19.9558 22.9437L15.3649 29.4222L13.6748 27.364C13.3363 26.9538 12.7285 26.8945 12.3184 27.2306C11.9082 27.5691 11.8489 28.1772 12.1874 28.5899ZM63.0602 33.5711L55.3167 39.5383V58.9371L63.0602 52.9699V33.5711ZM35.7648 53.0762C35.2311 53.0762 34.7962 53.5086 34.7962 54.0448V57.6522C34.7962 58.1859 35.2286 58.6208 35.7648 58.6208H43.7582C44.2919 58.6208 44.7268 58.1884 44.7268 57.6522V54.0448C44.7268 53.511 44.2944 53.0762 43.7582 53.0762H35.7648ZM42.7892 55.0109H36.7306V56.6812H42.7892V55.0109ZM18.3376 55.0751V57.6671H11.854V51.1835H16.104C16.6377 51.1835 17.0725 50.7511 17.0725 50.215C17.0725 49.6813 16.6401 49.2465 16.104 49.2465H10.8855C10.3518 49.2465 9.91694 49.6788 9.91694 50.215V58.6335C9.91694 59.1672 10.3493 59.6021 10.8855 59.6021H19.304C19.8377 59.6021 20.2725 59.1697 20.2725 58.6335V55.073C20.2725 54.5393 19.8401 54.1044 19.304 54.1044C18.7728 54.1069 18.3376 54.5389 18.3376 55.0751ZM12.1876 53.5556L14.6782 56.5874C15.0167 56.9975 15.6246 57.0568 16.0347 56.7208C16.1187 56.6516 16.1854 56.575 16.2398 56.4885L21.5275 49.0214C21.8339 48.5865 21.7301 47.9861 21.2977 47.6797C20.8628 47.3733 20.2624 47.4771 19.956 47.9095L15.3651 54.388L13.675 52.3297C13.3365 51.9196 12.7287 51.8603 12.3185 52.1963C11.9084 52.5373 11.8491 53.143 12.1876 53.5556ZM23.2248 44.8335H29.3155C29.8492 44.8335 30.284 44.4011 30.284 43.8649C30.284 43.3312 29.8516 42.8964 29.3155 42.8964H23.2248C22.6911 42.8964 22.2587 43.3288 22.2587 43.8649C22.2587 44.4011 22.6911 44.8335 23.2248 44.8335ZM18.3374 42.5924V45.1843H11.8538V38.7008H16.1038C16.6375 38.7008 17.0723 38.2684 17.0723 37.7322C17.0723 37.1985 16.6399 36.7637 16.1038 36.7637H10.8853C10.3516 36.7637 9.91675 37.1961 9.91675 37.7322V46.1507C9.91675 46.6844 10.3492 47.1193 10.8853 47.1193H19.3038C19.8375 47.1193 20.2724 46.6869 20.2724 46.1507V42.5902C20.2724 42.0565 19.84 41.6217 19.3038 41.6217C18.7726 41.6241 18.3374 42.0561 18.3374 42.5924ZM12.1874 41.0728L14.678 44.1046C15.0165 44.5147 15.6244 44.574 16.0345 44.238C16.1185 44.1688 16.1852 44.0922 16.2396 44.0057L21.5273 36.5386C21.8337 36.1037 21.7299 35.5033 21.2975 35.1969C20.8626 34.8905 20.2622 34.9943 19.9558 35.4267L15.3649 41.9052L13.6748 39.847C13.3363 39.4368 12.7285 39.3775 12.3184 39.7135C11.9082 40.052 11.8489 40.6602 12.1874 41.0728ZM23.2246 40.843H29.3153C29.849 40.843 30.2839 40.4106 30.2839 39.8745C30.2839 39.3408 29.8515 38.9059 29.3153 38.9059H23.2246C22.6909 38.9059 22.2585 39.3383 22.2585 39.8745C22.2585 40.4082 22.6909 40.843 23.2246 40.843ZM53.3817 40.0326H47.4072V46.1109C47.4072 46.6447 46.9748 47.0795 46.4386 47.0795C46.1693 47.0795 45.9247 46.9683 45.7493 46.7929L43.2438 44.6235L40.6815 46.8423C40.2788 47.1907 39.6684 47.1462 39.3201 46.7434C39.162 46.5606 39.0854 46.3358 39.0854 46.1134H39.0829V40.035H33.479V59.9354H53.3794L53.3817 40.0326ZM45.4724 40.0326H41.0223V43.9959L42.6086 42.622C42.9644 42.3058 43.508 42.2959 43.8787 42.6146L45.4723 43.9958L45.4724 40.0326ZM56.4432 32.5756L49.2778 38.098H54.0268L61.1922 32.5756H56.4432ZM46.1151 38.098L53.2805 32.5756H50.0585L47.8544 34.273C47.8174 34.3076 47.7778 34.3373 47.7358 34.3645L42.893 38.0955H46.115L46.1151 38.098ZM39.7302 38.098L46.2384 33.0821V32.5756H42.5173L35.3519 38.098L39.7302 38.098Z" fill="#FD1716"/>
</svg>
