<svg width="70" height="70" viewBox="0 0 70 70" fill="none" xmlns="http://www.w3.org/2000/svg">
<path d="M64.2041 53.2449H61.0204C61.449 52.6327 61.6939 51.898 61.6939 51.102V24.7143C61.6939 22.6327 59.9796 20.9184 57.898 20.9184H48.4082V13.8163C48.4082 12.2245 47.1225 11 45.5918 11H27.5918C27.5306 11 27.4694 11 27.4082 11.0612C27.3469 11.0612 27.3469 11.0612 27.2857 11.1224C27.2245 11.1224 27.2245 11.1837 27.2245 11.1837L27.1633 11.2449L21.9592 16.449L21.898 16.5102L21.8367 16.5714C21.8367 16.5714 21.8367 16.6327 21.7755 16.6939C21.7755 16.7551 21.7755 16.7551 21.7755 16.8163C21.7755 16.8776 21.7755 16.8776 21.7755 16.9388V20.8571H12.102C10.0204 20.8571 8.30612 22.5714 8.30612 24.6531V51.0408C8.30612 51.8367 8.55102 52.5714 8.97959 53.1837H5.79592C5.36735 53.1837 5 53.4898 5 53.9184C5 53.9796 5 54.0408 5 54.102C5 56.6735 7.08163 58.7551 9.65306 58.7551H11.3061C11.7347 58.7551 12.102 58.3878 12.102 57.9592C12.102 57.5306 11.7347 57.1633 11.3061 57.1633H9.65306C8.2449 57.1633 7.02041 56.1837 6.71429 54.8367H28.3878V55.9388C28.3878 56.3673 28.7551 56.7347 29.1837 56.7347H40.7551C41.1837 56.7347 41.551 56.3673 41.551 55.9388V54.8367H63.2245C62.9184 56.1837 61.6939 57.1633 60.2857 57.1633H15.4082C14.9796 57.1633 14.6122 57.5306 14.6122 57.9592C14.6122 58.3878 14.9796 58.7551 15.4082 58.7551H60.3469C62.9184 58.7551 65 56.6735 65 54.102V53.9796C65 53.6122 64.6327 53.2449 64.2041 53.2449ZM26.7959 13.8163V15.3469C26.7959 15.8367 26.4286 16.2041 25.9388 16.2041H24.4082L26.7959 13.8163ZM9.95918 51.102V24.7143C9.95918 23.4898 10.9388 22.5714 12.102 22.5714H21.5918V23.0612H12.102C11.1837 23.0612 10.449 23.7959 10.449 24.7143V39.4694C10.449 39.898 10.8163 40.2653 11.2449 40.2653C11.6735 40.2653 12.0408 39.898 12.0408 39.4694V24.7143H21.5306V30.4694C21.5306 30.898 21.898 31.2653 22.3265 31.2653C22.7551 31.2653 23.1224 30.898 23.1224 30.4694V17.8571H25.8163C27.2245 17.8571 28.3265 16.7551 28.3265 15.3469V12.6531H45.4082C46.0816 12.6531 46.6327 13.2041 46.6327 13.8776V37.3878H23.2449V33.3469C23.2449 32.9184 22.8776 32.551 22.449 32.551C22.0204 32.551 21.6531 32.9184 21.6531 33.3469V37.3878H18.4694C18.0408 37.3878 17.6735 37.7551 17.6735 38.1837C17.6735 38.6122 18.0408 38.9796 18.4694 38.9796H22.3878H47.551H51.5306C51.9592 38.9796 52.3265 38.6122 52.3265 38.1837C52.3265 37.7551 51.9592 37.3878 51.5306 37.3878H48.4082V24.7143H57.898V51.102H12.102V43.5714C12.102 43.1429 11.7347 42.7755 11.3061 42.7755C10.8776 42.7755 10.5102 43.1429 10.5102 43.5714V51.1633C10.5102 52.0816 11.2449 52.8163 12.1633 52.8163H57.9592C58.8776 52.8163 59.6122 52.0816 59.6122 51.1633V24.7143C59.6122 23.7959 58.8776 23.0612 57.9592 23.0612H48.4082V22.5714H57.898C59.1225 22.5714 60.0408 23.551 60.0408 24.7143V51.102C60.0408 52.2653 59.0612 53.2449 57.898 53.2449H12.102C10.9388 53.2449 9.95918 52.2653 9.95918 51.102ZM39.9592 55.2041H30.0408V54.898H39.9592V55.2041ZM26 20.1224C26 19.6939 26.3673 19.3265 26.7959 19.3265H38.3061C38.7347 19.3265 39.102 19.6939 39.102 20.1224C39.102 20.551 38.7347 20.9184 38.3061 20.9184H26.8571C26.3673 20.9184 26 20.551 26 20.1224ZM40.0816 20.1224C40.0816 19.6939 40.449 19.3265 40.8776 19.3265H43.1429C43.5714 19.3265 43.9388 19.6939 43.9388 20.1224C43.9388 20.551 43.5714 20.9184 43.1429 20.9184H40.8776C40.449 20.9184 40.0816 20.551 40.0816 20.1224ZM40.0816 22.6327C40.0816 22.2041 40.449 21.8367 40.8776 21.8367H43.1429C43.5714 21.8367 43.9388 22.2041 43.9388 22.6327C43.9388 23.0612 43.5714 23.4286 43.1429 23.4286H40.8776C40.449 23.4898 40.0816 23.1224 40.0816 22.6327ZM26 22.6327C26 22.2041 26.3673 21.8367 26.7959 21.8367H38.3061C38.7347 21.8367 39.102 22.2041 39.102 22.6327C39.102 23.0612 38.7347 23.4286 38.3061 23.4286H26.8571C26.3673 23.4898 26 23.1224 26 22.6327ZM26 25.2041C26 24.7755 26.3673 24.4082 26.7959 24.4082H38.3061C38.7347 24.4082 39.102 24.7755 39.102 25.2041C39.102 25.6327 38.7347 26 38.3061 26H26.8571C26.3673 26 26 25.6327 26 25.2041ZM40.0816 25.2041C40.0816 24.7755 40.449 24.4082 40.8776 24.4082H43.1429C43.5714 24.4082 43.9388 24.7755 43.9388 25.2041C43.9388 25.6327 43.5714 26 43.1429 26H40.8776C40.449 26 40.0816 25.6327 40.0816 25.2041Z" fill="#FD1716"/>
</svg>
