<svg width="70" height="70" viewBox="0 0 70 70" fill="none" xmlns="http://www.w3.org/2000/svg">
<path d="M59.5159 15.8871C59.4936 15.6711 59.407 15.4667 59.2672 15.3005C59.1275 15.1343 58.941 15.0139 58.732 14.9548C53.5031 13.4808 49.01 10.1134 46.1275 5.50839C46.0297 5.35229 45.8937 5.22369 45.7324 5.13474C45.5711 5.04579 45.3898 4.99942 45.2056 5.00001H23.9527C23.769 4.99997 23.5884 5.0466 23.4277 5.13552C23.267 5.22445 23.1315 5.35276 23.034 5.50839C20.1508 10.114 15.6564 13.4815 10.4262 14.9548C10.2173 15.0139 10.0308 15.1343 9.89107 15.3005C9.75131 15.4667 9.66467 15.6711 9.64237 15.8871C8.91229 22.0159 8.80421 28.2029 9.31979 34.3535C9.69923 39.1314 10.964 43.7969 13.0495 48.1123C15.015 51.9924 17.8297 55.3798 21.2843 58.0226C25.215 60.9638 29.5684 63.2928 34.1966 64.9303C34.4432 65.0232 34.7151 65.0232 34.9617 64.9303C39.5899 63.2928 43.9433 60.9638 47.874 58.0226C51.3291 55.3799 54.1442 51.9926 56.1101 48.1123C58.1955 43.7973 59.4602 39.1322 59.8398 34.3548C60.355 28.2038 60.2465 22.0163 59.5159 15.8871ZM54.1753 47.1329C50.6572 54.0826 44.6043 58.9123 34.5791 62.7555C24.554 58.9123 18.5011 54.0826 14.983 47.1329C11.4269 40.1071 10.3888 30.4645 11.7269 16.8297C16.9804 15.1739 21.5054 11.763 24.5437 7.16839H44.6146C47.6529 11.763 52.1778 15.1739 57.4314 16.8297C58.7727 30.4645 57.7314 40.1071 54.1753 47.1329ZM54.345 18.5174C50.0966 16.7324 46.3808 13.8811 43.5572 10.2394C43.4558 10.1085 43.3259 10.0027 43.1772 9.92986C43.0286 9.85706 42.8653 9.81926 42.6998 9.81936H26.4585C26.293 9.81926 26.1297 9.85706 25.9811 9.92986C25.8324 10.0027 25.7024 10.1085 25.6011 10.2394C22.7775 13.8811 19.0617 16.7324 14.8133 18.5174C14.6302 18.5941 14.4717 18.7196 14.3551 18.8803C14.2384 19.0409 14.1682 19.2305 14.152 19.4284C13.7302 23.931 13.6871 28.4611 14.023 32.971C14.4656 38.0929 15.583 42.4548 17.3456 45.9387C21.323 53.7968 28.8514 57.5832 34.1675 59.7452C34.4298 59.8518 34.7233 59.8518 34.9856 59.7452C40.3017 57.5806 47.8301 53.7942 51.8075 45.9387C53.5701 42.4548 54.6875 38.0961 55.1301 32.971C55.4661 28.4611 55.4229 23.931 55.0011 19.4284C54.9854 19.2311 54.9159 19.0419 54.8002 18.8813C54.6846 18.7207 54.5271 18.5948 54.345 18.5174ZM49.8753 44.9561C47.1456 50.349 42.2791 54.3639 34.5791 57.5677C26.8791 54.3639 22.0127 50.349 19.283 44.9561C16.414 39.2884 15.4243 31.2026 16.2624 20.2529C20.4391 18.3838 24.1133 15.5513 26.9837 11.9877H42.1746C45.045 15.5513 48.7192 18.3838 52.8959 20.2529C53.734 31.2026 52.7443 39.2884 49.8753 44.9561ZM43.1062 25.3748L32.4359 36.0458L28.2462 31.8561C27.4846 31.1134 26.4609 30.7007 25.3971 30.7074C24.3333 30.7141 23.315 31.1397 22.5627 31.892C21.8105 32.6442 21.3849 33.6626 21.3782 34.7264C21.3715 35.7902 21.7842 36.8138 22.5269 37.5755L29.5759 44.6252C30.3347 45.3832 31.3634 45.8091 32.4359 45.8091C33.5085 45.8091 34.5372 45.3832 35.2959 44.6252L48.8262 31.0948C49.2018 30.7193 49.4997 30.2734 49.703 29.7827C49.9063 29.2919 50.0109 28.766 50.0109 28.2348C50.0109 27.7037 49.9063 27.1777 49.703 26.687C49.4997 26.1963 49.2018 25.7504 48.8262 25.3748C48.4507 24.9993 48.0048 24.7013 47.5141 24.4981C47.0233 24.2948 46.4974 24.1902 45.9662 24.1902C45.4351 24.1902 44.9091 24.2948 44.4184 24.4981C43.9277 24.7013 43.4818 24.9993 43.1062 25.3748ZM47.2927 29.5613L33.7624 43.0916C33.4105 43.4432 32.9334 43.6407 32.4359 43.6407C31.9385 43.6407 31.4614 43.4432 31.1095 43.0916L24.063 36.0426C23.8887 35.8686 23.7503 35.662 23.6558 35.4345C23.5612 35.2071 23.5125 34.9632 23.5122 34.7169C23.5119 34.4706 23.5602 34.2266 23.6542 33.999C23.7482 33.7713 23.8861 33.5644 24.0601 33.39C24.4115 33.0379 24.8883 32.8397 25.3858 32.8392C25.6321 32.8389 25.8761 32.8872 26.1037 32.9812C26.3314 33.0752 26.5383 33.2131 26.7127 33.3871L31.6688 38.3432C31.8723 38.5464 32.1481 38.6605 32.4356 38.6605C32.7231 38.6605 32.9989 38.5464 33.2024 38.3432L44.6398 26.9084C44.8129 26.7296 45.02 26.587 45.2488 26.489C45.4776 26.3909 45.7236 26.3394 45.9725 26.3374C46.2214 26.3354 46.4682 26.383 46.6986 26.4773C46.9289 26.5716 47.1382 26.7108 47.3142 26.8869C47.4902 27.0629 47.6295 27.2722 47.7238 27.5025C47.8181 27.7329 47.8657 27.9797 47.8637 28.2286C47.8617 28.4775 47.8101 28.7235 47.7121 28.9523C47.6141 29.1811 47.4715 29.3881 47.2927 29.5613Z" fill="#FD1716"/>
</svg>
