<svg width="80" height="80" viewBox="0 0 80 80" fill="none" xmlns="http://www.w3.org/2000/svg">
<rect x="0.5" y="0.5" width="79" height="79" rx="39.5" fill="#F9EBEB"/>
<rect x="0.5" y="0.5" width="79" height="79" rx="39.5" stroke="#F9EBEB"/>
<path d="M30.7379 24.0072C30.7379 23.8304 30.8081 23.6609 30.9331 23.5358C31.0581 23.4108 31.2277 23.3406 31.4045 23.3406H49.528C49.697 23.3515 49.8555 23.4263 49.9713 23.5499C50.0871 23.6735 50.1516 23.8365 50.1516 24.0059C50.1516 24.1752 50.0871 24.3382 49.9713 24.4618C49.8555 24.5854 49.697 24.6602 49.528 24.6711H31.4029C31.2268 24.6707 31.0581 24.6006 30.9335 24.4763C30.8089 24.3519 30.7386 24.1833 30.7379 24.0072ZM28.1795 24.6739H28.3262C28.4952 24.663 28.6537 24.5881 28.7695 24.4646C28.8854 24.341 28.9498 24.178 28.9498 24.0086C28.9498 23.8393 28.8854 23.6762 28.7695 23.5527C28.6537 23.4291 28.4952 23.3543 28.3262 23.3434H28.1795C28.0885 23.3375 27.9973 23.3503 27.9115 23.3811C27.8257 23.4119 27.7471 23.4599 27.6806 23.5223C27.614 23.5846 27.561 23.6599 27.5248 23.7436C27.4885 23.8273 27.4698 23.9175 27.4698 24.0086C27.4698 24.0998 27.4885 24.19 27.5248 24.2737C27.561 24.3573 27.614 24.4327 27.6806 24.495C27.7471 24.5574 27.8257 24.6054 27.9115 24.6362C27.9973 24.667 28.0885 24.6798 28.1795 24.6739ZM24.4112 24.6739H24.5556C24.6466 24.6798 24.7378 24.667 24.8236 24.6362C24.9094 24.6054 24.988 24.5574 25.0546 24.495C25.1211 24.4327 25.1741 24.3573 25.2103 24.2737C25.2466 24.19 25.2653 24.0998 25.2653 24.0086C25.2653 23.9175 25.2466 23.8273 25.2103 23.7436C25.1741 23.6599 25.1211 23.5846 25.0546 23.5223C24.988 23.4599 24.9094 23.4119 24.8236 23.3811C24.7378 23.3503 24.6466 23.3375 24.5556 23.3434H24.4112C24.2421 23.3543 24.0836 23.4291 23.9678 23.5527C23.852 23.6762 23.7875 23.8393 23.7875 24.0086C23.7875 24.178 23.852 24.341 23.9678 24.4646C24.0836 24.5881 24.2421 24.663 24.4112 24.6739ZM20.6434 24.6739H20.7895C20.8805 24.6798 20.9717 24.667 21.0575 24.6362C21.1433 24.6054 21.2219 24.5574 21.2884 24.495C21.3549 24.4327 21.408 24.3573 21.4442 24.2737C21.4805 24.19 21.4992 24.0998 21.4992 24.0086C21.4992 23.9175 21.4805 23.8273 21.4442 23.7436C21.408 23.6599 21.3549 23.5846 21.2884 23.5223C21.2219 23.4599 21.1433 23.4119 21.0575 23.3811C20.9717 23.3503 20.8805 23.3375 20.7895 23.3434H20.6434C20.5524 23.3375 20.4612 23.3503 20.3753 23.3811C20.2895 23.4119 20.2109 23.4599 20.1444 23.5223C20.0779 23.5846 20.0249 23.6599 19.9886 23.7436C19.9524 23.8273 19.9337 23.9175 19.9337 24.0086C19.9337 24.0998 19.9524 24.19 19.9886 24.2737C20.0249 24.3573 20.0779 24.4327 20.1444 24.495C20.2109 24.5574 20.2895 24.6054 20.3753 24.6362C20.4612 24.667 20.5524 24.6798 20.6434 24.6739ZM25.4339 34.7173V39.6712C25.4339 39.848 25.3637 40.0176 25.2387 40.1426C25.1137 40.2676 24.9441 40.3379 24.7673 40.3379H19.9122C19.7354 40.3379 19.5659 40.2676 19.4408 40.1426C19.3158 40.0176 19.2456 39.848 19.2456 39.6712V34.7156C19.2456 34.6281 19.2628 34.5414 19.2963 34.4605C19.3298 34.3796 19.3789 34.3061 19.4408 34.2442C19.5027 34.1823 19.5762 34.1332 19.6571 34.0997C19.738 34.0662 19.8247 34.049 19.9122 34.049H24.7684C24.945 34.0493 25.1143 34.1196 25.2391 34.2446C25.3639 34.3696 25.4339 34.539 25.4339 34.7156V34.7173ZM24.1006 35.384H20.5778V39.0073H24.1028L24.1006 35.384ZM25.4339 45.0012V49.9551C25.4339 50.132 25.3637 50.3015 25.2387 50.4266C25.1137 50.5516 24.9441 50.6218 24.7673 50.6218H19.9122C19.7354 50.6218 19.5659 50.5516 19.4408 50.4266C19.3158 50.3015 19.2456 50.132 19.2456 49.9551V44.9979C19.2456 44.8211 19.3158 44.6515 19.4408 44.5265C19.5659 44.4015 19.7354 44.3312 19.9122 44.3312H24.7684C24.945 44.3315 25.1143 44.4019 25.2391 44.5269C25.3639 44.6519 25.4339 44.8213 25.4339 44.9979V45.0012ZM24.1006 45.6679H20.5778V49.2913H24.1028L24.1006 45.6679ZM64.9464 53.3902C64.9025 53.5357 64.8301 53.671 64.7335 53.7883C64.6369 53.9056 64.518 54.0025 64.3836 54.0735L54.0441 59.558C53.878 59.6469 53.6925 59.6935 53.5041 59.6935C53.3884 59.6934 53.2735 59.6759 53.163 59.6419C53.0176 59.5978 52.8824 59.5254 52.7652 59.4288C52.648 59.3322 52.5511 59.2134 52.4802 59.0791L50.8335 55.9763H18.8195C17.8068 55.9751 16.836 55.5723 16.12 54.8563C15.404 54.1403 15.0012 53.1694 15 52.1568V23.8195C15.0012 22.8068 15.404 21.836 16.12 21.12C16.836 20.404 17.8068 20.0012 18.8195 20H51.3518C52.3644 20.0012 53.3352 20.404 54.0511 21.12C54.7671 21.8361 55.1697 22.8069 55.1708 23.8195V29.7695L56.9485 28.8217C57.1043 28.7389 57.2866 28.7212 57.4554 28.7726C57.6242 28.8239 57.7658 28.9401 57.8491 29.0956L60.0591 33.2417C60.1417 33.3975 60.1592 33.5797 60.1078 33.7484C60.0563 33.9171 59.9401 34.0585 59.7847 34.1417L55.448 36.4534C56.7108 37.7876 57.6556 39.3899 58.2119 41.1407L59.6336 46.9157L60.4908 48.5301L61.2358 48.1346C61.5068 47.9912 61.8237 47.9612 62.1168 48.0511C62.41 48.141 62.6555 48.3434 62.7997 48.614L64.8647 52.5029C64.9362 52.6369 64.9804 52.7837 64.9948 52.9348C65.0092 53.086 64.9935 53.2385 64.9486 53.3835L64.9464 53.3902ZM56.9202 41.4579C56.3722 39.8173 55.4497 38.3268 54.2258 37.1045L49.1207 39.8268L50.6141 42.6396C50.6619 42.7171 50.6933 42.8037 50.7063 42.8939C50.7194 42.9841 50.7138 43.076 50.6899 43.1639C50.666 43.2519 50.6244 43.334 50.5675 43.4052C50.5107 43.4764 50.4398 43.5352 50.3594 43.578C50.2789 43.6208 50.1905 43.6466 50.0997 43.6538C50.0088 43.6611 49.9175 43.6497 49.8312 43.6203C49.745 43.5908 49.6657 43.544 49.5982 43.4828C49.5308 43.4215 49.4766 43.347 49.4391 43.264L47.1057 38.8712C47.0549 38.7522 46.9796 38.6452 46.8848 38.5571C46.7899 38.469 46.6776 38.4018 46.5552 38.3599C46.4327 38.318 46.3028 38.3023 46.1739 38.3138C46.045 38.3254 45.9199 38.3638 45.8068 38.4268C45.6787 38.4855 45.5641 38.5699 45.47 38.6748C45.376 38.7797 45.3045 38.9029 45.2601 39.0366C45.2157 39.1703 45.1993 39.3118 45.2119 39.4521C45.2246 39.5924 45.2659 39.7287 45.3335 39.8523L47.3713 44.2157C47.3846 44.2439 47.3957 44.273 47.4046 44.3029C47.4868 44.5723 47.5629 44.8257 47.6346 45.0646C47.7202 45.3507 47.8013 45.6135 47.8752 45.859C48.5735 48.1201 48.9829 48.8035 51.6374 50.7374C51.7192 50.7968 51.7863 50.8741 51.8335 50.9635L52.728 52.6524L59.3163 49.1524L58.4202 47.4646C58.3942 47.4162 58.3746 47.3647 58.3619 47.3112L56.9202 41.4579ZM54.8241 31.4628H54.8208L40.3457 39.1801C40.3279 39.1907 40.3096 39.2007 40.2901 39.2095L38.879 39.9618L40.4629 42.9329L44.3368 40.8684L44.1246 40.4151C43.9827 40.136 43.8982 39.8312 43.8763 39.5188C43.8543 39.2064 43.8953 38.8928 43.9968 38.5965C44.0983 38.3003 44.2582 38.0274 44.4671 37.7941C44.676 37.5609 44.9296 37.3719 45.2129 37.2384C45.4797 37.0985 45.7718 37.0136 46.072 36.9887C46.3721 36.9638 46.6743 36.9994 46.9604 37.0935C47.2466 37.1875 47.5109 37.338 47.7378 37.5361C47.9647 37.7343 48.1495 37.9759 48.2813 38.2468L48.4957 38.6512L54.1863 35.6173H54.1902L58.5719 33.284L56.9874 30.3123L54.8241 31.4628ZM37.9446 41.0357L36.7596 43.0007L39.0512 43.1118L37.9446 41.0357ZM43.2924 36.1023L46.4818 34.4023L43.3118 33.5356C43.1142 33.4663 42.9013 33.4535 42.6968 33.4987C42.4924 33.5438 42.3046 33.6451 42.1546 33.7912C41.9877 33.9648 41.8669 34.1775 41.8035 34.4099C41.74 34.6422 41.7358 34.8868 41.7912 35.1212C41.8035 35.1669 41.8185 35.2118 41.8362 35.2556C41.9467 35.3438 42.0263 35.4648 42.0635 35.6012C42.2288 35.7617 42.434 35.875 42.6579 35.9295L43.2924 36.1023ZM16.3333 23.8195V26.5334H53.8402V23.8195C53.8395 23.1597 53.5771 22.5272 53.1106 22.0607C52.6441 21.5943 52.0116 21.3319 51.3518 21.3311H18.8195C18.1602 21.3326 17.5283 21.5953 17.0623 22.0617C16.5964 22.5281 16.3342 23.1602 16.3333 23.8195ZM18.8222 54.6457H50.2835C50.2837 54.4364 50.3407 54.2311 50.4483 54.0516C50.5559 53.8721 50.7101 53.7251 50.8946 53.6263L51.5535 53.2768L50.7291 51.7213C49.8183 51.0936 48.9798 50.3669 48.2291 49.5546H27.6112C27.4422 49.5437 27.2836 49.4688 27.1678 49.3453C27.052 49.2217 26.9875 49.0587 26.9875 48.8893C26.9875 48.7199 27.052 48.5569 27.1678 48.4334C27.2836 48.3098 27.4422 48.235 27.6112 48.224H47.3402C47.107 47.7392 46.9098 47.2378 46.7502 46.724H27.6112C27.4344 46.724 27.2648 46.6538 27.1398 46.5288C27.0147 46.4037 26.9445 46.2342 26.9445 46.0574C26.9445 45.8805 27.0147 45.711 27.1398 45.5859C27.2648 45.4609 27.4344 45.3907 27.6112 45.3907H46.3413C46.2785 45.1829 46.2135 44.9651 46.1429 44.734L44.9013 42.0746L40.5124 44.414C40.414 44.4688 40.3033 44.4975 40.1907 44.4973H40.1579L35.5818 44.2751C35.467 44.2691 35.3558 44.2335 35.2588 44.1718C35.1619 44.1101 35.0825 44.0244 35.0285 43.923C34.9744 43.8216 34.9475 43.7079 34.9503 43.593C34.9531 43.4782 34.9856 43.366 35.0445 43.2673L37.4096 39.3451L37.4162 39.3345C37.4293 39.3139 37.4436 39.2941 37.459 39.2751H27.6112C27.4422 39.2642 27.2836 39.1893 27.1678 39.0658C27.052 38.9422 26.9875 38.7792 26.9875 38.6098C26.9875 38.4404 27.052 38.2774 27.1678 38.1539C27.2836 38.0303 27.4422 37.9555 27.6112 37.9445H39.8368L41.6818 36.9612C41.436 36.8264 41.2148 36.6507 41.0279 36.4417H27.6112C27.4344 36.4417 27.2648 36.3715 27.1398 36.2465C27.0147 36.1215 26.9445 35.9519 26.9445 35.7751C26.9445 35.5983 27.0147 35.4287 27.1398 35.3037C27.2648 35.1786 27.4344 35.1084 27.6112 35.1084H40.4379C40.39 34.697 40.4352 34.2801 40.5704 33.8886C40.7055 33.4971 40.927 33.141 41.2185 32.8467C41.5348 32.537 41.9289 32.3184 42.3591 32.214C42.7893 32.1096 43.2398 32.1232 43.6629 32.2534L47.6424 33.3406L48.1929 33.4912L53.8402 30.4806V27.8645H16.3333V52.1568C16.3341 52.8162 16.5962 53.4484 17.0622 53.915C17.5282 54.3815 18.1601 54.6443 18.8195 54.6457H18.8222ZM63.6108 52.9729L61.7091 49.3918L60.528 50.0174L52.7646 54.1396L51.6724 54.7202L51.8168 54.9918V54.9963L53.5719 58.3013L63.6108 52.9729Z" fill="#FD1716"/>
</svg>
