<svg width="80" height="80" viewBox="0 0 80 80" fill="none" xmlns="http://www.w3.org/2000/svg">
<rect x="0.5" y="0.5" width="79" height="79" rx="39.5" fill="#F9EBEB"/>
<rect x="0.5" y="0.5" width="79" height="79" rx="39.5" stroke="#F9EBEB"/>
<path d="M34.0771 17.0026C33.9425 17.0282 33.8212 17.1007 33.7348 17.207C33.6484 17.3134 33.6023 17.4469 33.6047 17.5839V28.6298H31.2791C31.1659 28.6307 31.0553 28.6646 30.9611 28.7274C30.8668 28.7902 30.793 28.8792 30.7486 28.9833C30.7042 29.0875 30.6913 29.2024 30.7113 29.3139C30.7313 29.4254 30.7834 29.5286 30.8613 29.6108L33.7682 32.5176L36.0938 34.8431C36.148 34.8991 36.213 34.9437 36.2847 34.9741C36.3565 35.0045 36.4337 35.0202 36.5117 35.0202C36.5897 35.0202 36.6668 35.0045 36.7386 34.9741C36.8104 34.9437 36.8753 34.8991 36.9296 34.8431L39.2551 32.5176L42.1621 29.6108C42.24 29.5286 42.2921 29.4254 42.3121 29.3139C42.3321 29.2024 42.3191 29.0875 42.2747 28.9833C42.2304 28.8792 42.1565 28.7902 42.0623 28.7274C41.968 28.6646 41.8575 28.6307 41.7442 28.6298H39.4187V17.5839C39.4186 17.4297 39.3574 17.2819 39.2484 17.1729C39.1393 17.0638 38.9914 17.0026 38.8373 17.0026H36.5117H34.1861C34.1498 16.9991 34.1133 16.9991 34.0771 17.0026ZM34.7675 18.1653H36.5117H38.2559V29.2112C38.2559 29.3653 38.3171 29.5132 38.4262 29.6222C38.5352 29.7313 38.6831 29.7925 38.8373 29.7925H40.3271L38.4194 31.7001L36.5117 33.6077L34.604 31.7001L32.6963 29.7925H34.1861C34.3403 29.7925 34.4882 29.7313 34.5972 29.6222C34.7062 29.5132 34.7675 29.3653 34.7675 29.2112V18.1653ZM49.1752 19.328C49.0644 19.3529 48.9633 19.4098 48.8845 19.4915L46.5589 21.817L43.6519 24.7238C43.5678 24.8051 43.5102 24.9099 43.4866 25.0245C43.463 25.1391 43.4746 25.2581 43.5197 25.366C43.5648 25.474 43.6415 25.5658 43.7396 25.6295C43.8378 25.6932 43.9528 25.7257 44.0698 25.723H46.3954V36.7689C46.3954 36.923 46.4567 37.0709 46.5657 37.1799C46.6747 37.289 46.8226 37.3502 46.9768 37.3502H49.3024H51.6279C51.7821 37.3502 51.93 37.289 52.039 37.1799C52.1481 37.0709 52.2093 36.923 52.2093 36.7689V25.723H54.5349C54.6519 25.7257 54.7669 25.6932 54.8651 25.6295C54.9632 25.5658 55.0399 25.474 55.085 25.366C55.1302 25.2581 55.1417 25.1391 55.1181 25.0245C55.0945 24.9099 55.0369 24.8051 54.9528 24.7238L52.0458 21.817L49.7202 19.4915C49.651 19.4198 49.5645 19.3672 49.4691 19.3385C49.3736 19.3099 49.2724 19.3063 49.1752 19.328ZM49.3024 20.7269L51.2101 22.6345L53.1359 24.5603H51.6279C51.4737 24.5603 51.3259 24.6215 51.2168 24.7306C51.1078 24.8396 51.0466 24.9874 51.0465 25.1416V36.1875H49.3024H47.5582V25.1416C47.5582 24.9874 47.4969 24.8396 47.3879 24.7306C47.2788 24.6215 47.131 24.5603 46.9768 24.5603H45.4688L47.3947 22.6345L49.3024 20.7269ZM15.4725 39.0943C15.3378 39.12 15.2166 39.1924 15.1302 39.2988C15.0437 39.4051 14.9977 39.5386 15.0001 39.6757V60.6046C15.0001 60.7588 15.0614 60.9067 15.1704 61.0157C15.2794 61.1247 15.4273 61.186 15.5815 61.186H23.721C23.8752 61.186 24.0231 61.1247 24.1321 61.0157C24.2411 60.9067 24.3024 60.7588 24.3024 60.6046V55.8993C26.4371 57.4098 28.1505 58.8903 30.2617 60.0778C32.6625 61.4281 35.5621 62.3487 40 62.3488C44.5802 62.3488 50.139 59.825 54.6076 57.3345C59.0554 54.8555 62.389 52.3795 62.4201 52.3566C62.4202 52.3565 62.4382 52.3386 62.4382 52.3386C63.3091 51.7574 63.9441 51.2987 64.3823 50.6854C64.8248 50.0659 65 49.3329 65 48.3962C65 47.6695 64.7044 47.0535 64.2733 46.634C63.8421 46.2145 63.2937 45.9609 62.7653 45.7983C61.7084 45.473 60.6395 45.4894 60.3488 45.4894C59.0893 45.4894 57.6289 46.1107 56.4063 46.7066C55.288 47.2518 54.5522 47.6894 54.4077 47.7786C54.1065 46.1598 52.7509 44.9081 51.0465 44.9081H40.2181C37.0945 41.9862 31.3117 41.4471 24.3024 41.4199V39.6758C24.3024 39.5217 24.2411 39.3738 24.1321 39.2648C24.0231 39.1557 23.8752 39.0945 23.721 39.0944H15.5815C15.5452 39.091 15.5087 39.0909 15.4725 39.0943ZM16.1629 40.257H23.1396V41.9466C23.1388 41.9648 23.1388 41.983 23.1396 42.0012V54.7912C23.1381 54.8154 23.1381 54.8397 23.1396 54.8639V60.0234H16.1629V40.257ZM24.3024 42.6006C31.3698 42.6378 37.004 43.3109 39.5822 45.889C39.636 45.9458 39.7008 45.9912 39.7726 46.0225C39.8444 46.0537 39.9217 46.0701 40 46.0706H51.0465C52.345 46.0706 53.3721 47.0978 53.3721 48.3961C53.3721 49.6945 52.345 50.7215 51.0465 50.7215H34.1861C34.1091 50.7205 34.0326 50.7347 33.9612 50.7635C33.8897 50.7922 33.8247 50.8349 33.7698 50.889C33.715 50.9431 33.6714 51.0075 33.6417 51.0786C33.612 51.1496 33.5967 51.2258 33.5967 51.3029C33.5967 51.3799 33.612 51.4562 33.6417 51.5272C33.6714 51.5983 33.715 51.6627 33.7698 51.7168C33.8247 51.7709 33.8897 51.8135 33.9612 51.8423C34.0326 51.871 34.1091 51.8853 34.1861 51.8843H51.0465C52.7681 51.8843 54.1446 50.6021 54.4259 48.9593C54.5694 48.9885 54.7186 48.9626 54.8438 48.8866C54.8438 48.8866 55.7524 48.3087 56.915 47.742C58.0775 47.1754 59.5211 46.652 60.3488 46.652C60.6395 46.652 61.6056 46.652 62.4382 46.9064C62.8545 47.0344 63.2146 47.235 63.4557 47.4696C63.6967 47.7041 63.8372 47.9601 63.8372 48.3961C63.8372 49.2036 63.7217 49.6151 63.4375 50.013C63.1533 50.4109 62.6257 50.8206 61.766 51.3937C61.7598 51.3996 61.7537 51.4056 61.7478 51.4117C61.7478 51.4117 58.4239 53.8659 54.0262 56.317C49.6285 58.7681 44.1409 61.1859 40 61.1859C35.7171 61.1859 33.0935 60.3442 30.8431 59.0785C28.6729 57.8579 26.8136 56.1875 24.3024 54.4821V42.6006Z" fill="#FD1716"/>
</svg>
