<svg width="25" height="25" viewBox="0 0 25 25" fill="none" xmlns="http://www.w3.org/2000/svg">
<path d="M10.0354 8.69336C9.30481 8.69336 8.70703 9.29114 8.70703 10.0218C8.70703 10.7524 9.30481 11.3502 10.0354 11.3502C10.7661 11.3502 11.3638 10.7524 11.3638 10.0218C11.3638 9.29114 10.7661 8.69336 10.0354 8.69336ZM10.0354 10.686C9.67013 10.686 9.37123 10.3871 9.37123 10.0218C9.37123 9.65645 9.67013 9.35756 10.0354 9.35756C10.4007 9.35756 10.6996 9.65645 10.6996 10.0218C10.6996 10.3871 10.4007 10.686 10.0354 10.686Z" fill="url(#paint0_linear_4328_5429)"/>
<path d="M13.8573 9.12532C11.6986 7.13271 8.37762 7.13271 6.18575 9.12532L5.22266 10.022L6.18575 10.9187C8.34441 12.9113 11.6654 12.9113 13.8573 10.9187L14.8204 10.022L13.8573 9.12532ZM13.4256 10.4205C11.4994 12.1807 8.57688 12.1807 6.6839 10.4205L6.21896 10.022L6.6839 9.62347C8.61009 7.86333 11.5326 7.86333 13.4256 9.62347L13.8905 10.022L13.4256 10.4205Z" fill="url(#paint1_linear_4328_5429)"/>
<path d="M22.6221 20.8148L17.9063 16.0989C17.6738 15.8664 17.3417 15.8 17.0428 15.8997L15.4819 14.3388C17.8731 11.3166 17.3749 6.89969 14.3528 4.50856C11.3307 2.11743 6.94693 2.61558 4.52258 5.67092C2.09824 8.72625 2.6296 13.0768 5.68494 15.4679C8.24212 17.4937 11.8288 17.4937 14.386 15.4679L15.9469 17.0288C15.8473 17.3277 15.9137 17.6598 16.1461 17.8923L20.862 22.6081C21.3601 23.1063 22.1572 23.1063 22.6553 22.6081C23.1203 22.11 23.1203 21.3129 22.6221 20.8148ZM3.72554 10.0215C3.72554 6.53438 6.5484 3.71152 10.0355 3.71152C13.5225 3.71152 16.3454 6.53438 16.3454 10.0215C16.3454 13.5085 13.5225 16.3314 10.0355 16.3314C6.5484 16.3314 3.72554 13.5085 3.72554 10.0215ZM14.8509 15.0362C14.9174 14.9698 14.9838 14.9033 15.0502 14.8369L16.5447 16.3314L16.3454 16.5306L14.8509 15.0362ZM21.7255 22.3092C21.5594 22.3092 21.3934 22.2428 21.2937 22.1432L16.5779 17.4273C16.5115 17.3609 16.5115 17.2945 16.5779 17.2281L16.8103 16.9956L17.0096 16.7963L17.2421 16.5639C17.3085 16.4974 17.3749 16.4974 17.4413 16.5639L22.1572 21.2797C22.3897 21.5122 22.3897 21.9107 22.1572 22.1432C22.0243 22.2428 21.8915 22.3092 21.7255 22.3092Z" fill="url(#paint2_linear_4328_5429)"/>
<path d="M10.0364 4.04297C6.74862 4.04297 4.05859 6.73299 4.05859 10.0208C4.05859 13.3086 6.74862 15.9986 10.0364 15.9986C13.3242 15.9986 16.0143 13.3086 16.0143 10.0208C16.0143 6.73299 13.3242 4.04297 10.0364 4.04297ZM10.0364 15.3344C7.11393 15.3344 4.7228 12.9433 4.7228 10.0208C4.7228 7.0983 7.11393 4.70717 10.0364 4.70717C12.9589 4.70717 15.3501 7.0983 15.3501 10.0208C15.3501 12.9433 12.9589 15.3344 10.0364 15.3344Z" fill="url(#paint3_linear_4328_5429)"/>
<path d="M20.665 6.36754V17.9911H21.3293V6.36754C21.3293 5.43766 20.5986 4.70703 19.6687 4.70703H16.0156V5.37123H19.6687C20.2333 5.37123 20.665 5.80297 20.665 6.36754Z" fill="url(#paint4_linear_4328_5429)"/>
<path d="M5.38686 19.653V16.332H4.72266V19.653C4.72266 20.5829 5.45328 21.3136 6.38316 21.3136H18.0067V20.6494H6.38316C5.81859 20.6494 5.38686 20.2176 5.38686 19.653Z" fill="url(#paint5_linear_4328_5429)"/>
<path d="M20.0006 6.36914H17.3438V7.03334H20.0006V6.36914Z" fill="url(#paint6_linear_4328_5429)"/>
<path d="M20.0006 8.0293H17.3438V8.6935H20.0006V8.0293Z" fill="url(#paint7_linear_4328_5429)"/>
<path d="M20.0006 9.68945H17.3438V10.3537H20.0006V9.68945Z" fill="url(#paint8_linear_4328_5429)"/>
<path d="M20.0006 11.3496H17.3438V12.0138H20.0006V11.3496Z" fill="url(#paint9_linear_4328_5429)"/>
<path d="M20.0007 13.0098H16.6797V13.674H20.0007V13.0098Z" fill="url(#paint10_linear_4328_5429)"/>
<path d="M20.0007 14.6719H16.6797V15.3361H20.0007V14.6719Z" fill="url(#paint11_linear_4328_5429)"/>
<path d="M20.0002 16.332H19.0039V16.9962H20.0002V16.332Z" fill="url(#paint12_linear_4328_5429)"/>
<path d="M15.0175 17.3281H6.05078V17.9923H15.0175V17.3281Z" fill="url(#paint13_linear_4328_5429)"/>
<path d="M16.3459 18.9883H6.05078V19.6525H16.3459V18.9883Z" fill="url(#paint14_linear_4328_5429)"/>
<path d="M13.0247 13.0098H7.04688V13.674H13.0247V13.0098Z" fill="url(#paint15_linear_4328_5429)"/>
<path d="M13.0247 6.36914H7.04688V7.03334H13.0247V6.36914Z" fill="url(#paint16_linear_4328_5429)"/>
<defs>
<linearGradient id="paint0_linear_4328_5429" x1="9.73924" y1="12.4893" x2="12.5202" y2="9.96952" gradientUnits="userSpaceOnUse">
<stop stop-color="#FF1717"/>
<stop offset="1" stop-color="#FF6461"/>
</linearGradient>
<linearGradient id="paint1_linear_4328_5429" x1="8.95151" y1="14.4636" x2="13.1991" y2="6.73932" gradientUnits="userSpaceOnUse">
<stop stop-color="#FF1717"/>
<stop offset="1" stop-color="#FF6461"/>
</linearGradient>
<linearGradient id="paint2_linear_4328_5429" x1="10.7703" y1="31.5494" x2="31.6874" y2="12.5789" gradientUnits="userSpaceOnUse">
<stop stop-color="#FF1717"/>
<stop offset="1" stop-color="#FF6461"/>
</linearGradient>
<linearGradient id="paint3_linear_4328_5429" x1="8.70354" y1="21.1249" x2="21.2178" y2="9.7857" gradientUnits="userSpaceOnUse">
<stop stop-color="#FF1717"/>
<stop offset="1" stop-color="#FF6461"/>
</linearGradient>
<linearGradient id="paint4_linear_4328_5429" x1="18.08" y1="23.687" x2="27.0324" y2="20.4423" gradientUnits="userSpaceOnUse">
<stop stop-color="#FF1717"/>
<stop offset="1" stop-color="#FF6461"/>
</linearGradient>
<linearGradient id="paint5_linear_4328_5429" x1="9.8837" y1="23.4495" x2="13.5864" y2="14.5027" gradientUnits="userSpaceOnUse">
<stop stop-color="#FF1717"/>
<stop offset="1" stop-color="#FF6461"/>
</linearGradient>
<linearGradient id="paint6_linear_4328_5429" x1="18.376" y1="7.31814" x2="18.7342" y2="6.01974" gradientUnits="userSpaceOnUse">
<stop stop-color="#FF1717"/>
<stop offset="1" stop-color="#FF6461"/>
</linearGradient>
<linearGradient id="paint7_linear_4328_5429" x1="18.376" y1="8.97829" x2="18.7342" y2="7.6799" gradientUnits="userSpaceOnUse">
<stop stop-color="#FF1717"/>
<stop offset="1" stop-color="#FF6461"/>
</linearGradient>
<linearGradient id="paint8_linear_4328_5429" x1="18.376" y1="10.6384" x2="18.7342" y2="9.34005" gradientUnits="userSpaceOnUse">
<stop stop-color="#FF1717"/>
<stop offset="1" stop-color="#FF6461"/>
</linearGradient>
<linearGradient id="paint9_linear_4328_5429" x1="18.376" y1="12.2986" x2="18.7342" y2="11.0002" gradientUnits="userSpaceOnUse">
<stop stop-color="#FF1717"/>
<stop offset="1" stop-color="#FF6461"/>
</linearGradient>
<linearGradient id="paint10_linear_4328_5429" x1="17.9699" y1="13.9588" x2="18.264" y2="12.6264" gradientUnits="userSpaceOnUse">
<stop stop-color="#FF1717"/>
<stop offset="1" stop-color="#FF6461"/>
</linearGradient>
<linearGradient id="paint11_linear_4328_5429" x1="17.9699" y1="15.6209" x2="18.264" y2="14.2885" gradientUnits="userSpaceOnUse">
<stop stop-color="#FF1717"/>
<stop offset="1" stop-color="#FF6461"/>
</linearGradient>
<linearGradient id="paint12_linear_4328_5429" x1="19.391" y1="17.281" x2="20.058" y2="16.3745" gradientUnits="userSpaceOnUse">
<stop stop-color="#FF1717"/>
<stop offset="1" stop-color="#FF6461"/>
</linearGradient>
<linearGradient id="paint13_linear_4328_5429" x1="9.53449" y1="18.2771" x2="9.64795" y2="16.8892" gradientUnits="userSpaceOnUse">
<stop stop-color="#FF1717"/>
<stop offset="1" stop-color="#FF6461"/>
</linearGradient>
<linearGradient id="paint14_linear_4328_5429" x1="10.0506" y1="19.9373" x2="10.1496" y2="18.5471" gradientUnits="userSpaceOnUse">
<stop stop-color="#FF1717"/>
<stop offset="1" stop-color="#FF6461"/>
</linearGradient>
<linearGradient id="paint15_linear_4328_5429" x1="9.36935" y1="13.9588" x2="9.53814" y2="12.5822" gradientUnits="userSpaceOnUse">
<stop stop-color="#FF1717"/>
<stop offset="1" stop-color="#FF6461"/>
</linearGradient>
<linearGradient id="paint16_linear_4328_5429" x1="9.36935" y1="7.31814" x2="9.53814" y2="5.9416" gradientUnits="userSpaceOnUse">
<stop stop-color="#FF1717"/>
<stop offset="1" stop-color="#FF6461"/>
</linearGradient>
</defs>
</svg>
