<svg width="80" height="80" viewBox="0 0 80 80" fill="none" xmlns="http://www.w3.org/2000/svg">
<rect x="0.5" y="0.5" width="79" height="79" rx="39.5" fill="#F9EBEB"/>
<rect x="0.5" y="0.5" width="79" height="79" rx="39.5" stroke="#F9EBEB"/>
<path d="M65 19.125V39.4373C65 41.1608 63.5985 42.5623 61.875 42.5623H55.1078L42.0372 52.5575C41.9716 52.6086 41.8976 52.6476 41.819 52.675L26.1691 58.1176L26.6709 59.4796C26.8182 59.8802 26.6168 60.3257 26.2185 60.4791L16.0623 64.3853C15.97 64.4204 15.8747 64.4372 15.7816 64.4372C15.468 64.4372 15.172 64.2472 15.0522 63.9367C14.8973 63.5339 15.0988 63.0814 15.5008 62.9266L24.9383 59.2973L19.9976 45.8864L16.0288 47.2094C15.616 47.3467 15.1773 47.1247 15.0408 46.7157C14.9042 46.306 15.1255 45.8635 15.5344 45.7277L20.2219 44.1652C20.6216 44.0294 21.0565 44.24 21.2022 44.636L21.5392 45.5506L22.9761 45.0701L23.2194 44.3384C24.4821 40.5543 27.9611 37.9855 31.9291 37.8787L36.377 34.6484C37.5878 33.7634 39.0732 33.4201 40.5525 33.6848C42.0342 33.9488 43.309 34.7834 44.1429 36.0362C44.3237 36.3215 44.4145 36.6336 44.4145 36.9532C44.4145 37.4194 44.22 37.8649 43.8805 38.177L35.8384 45.4844C35.5187 45.7743 35.0251 45.7514 34.7344 45.4317C34.4445 45.112 34.4681 44.6177 34.787 44.3278L42.8261 37.0234C42.8429 37.0082 42.852 36.9761 42.852 36.9532C42.247 36.008 41.3368 35.4113 40.2786 35.2229C39.2243 35.0367 38.163 35.2786 37.2971 35.9118L32.647 39.2886C32.5135 39.3855 32.3525 39.4373 32.1877 39.4373C28.7866 39.4373 25.7783 41.6056 24.7018 44.8328L24.3356 45.9345C24.2578 46.1672 24.0747 46.3503 23.842 46.4281L22.0796 47.0173L25.6291 56.6516L41.1873 51.2407L52.5365 42.5623H42.2348C41.803 42.5623 41.4536 42.2129 41.4536 41.7811C41.4536 41.3493 41.803 40.9998 42.2348 40.9998H61.875C62.7364 40.9998 63.4375 40.2987 63.4375 39.4373V19.125C63.4375 18.2636 62.7364 17.5625 61.875 17.5625H24.3753C23.5139 17.5625 22.8128 18.2636 22.8128 19.125V39.4373C22.8128 39.9386 23.0401 40.3918 23.4376 40.6817C23.7855 40.9357 23.8626 41.4248 23.6078 41.7734C23.3545 42.1206 22.867 42.1984 22.516 41.9436C21.7119 41.3569 21.2503 40.4429 21.2503 39.4373V19.125C21.2503 17.4015 22.6518 16 24.3753 16H61.875C63.5985 16 65 17.4015 65 19.125ZM45.4925 39.4373H57.9688C58.4006 39.4373 58.75 39.0879 58.75 38.6561C58.75 37.3637 59.8014 36.3124 61.0938 36.3124C61.5256 36.3124 61.875 35.9629 61.875 35.5311V23.0312C61.875 22.5994 61.5256 22.25 61.0938 22.25C59.8014 22.25 58.75 21.1986 58.75 19.9062C58.75 19.4744 58.4006 19.125 57.9688 19.125H28.2815C27.8497 19.125 27.5003 19.4744 27.5003 19.9062C27.5003 21.1986 26.4489 22.25 25.1565 22.25C24.7247 22.25 24.3753 22.5994 24.3753 23.0312V35.5311C24.3753 35.9629 24.7247 36.3124 25.1565 36.3124C26.0209 36.3124 26.8144 36.7869 27.2271 37.5506C27.4324 37.9305 27.9069 38.074 28.2853 37.8672C28.6653 37.662 28.8072 37.1882 28.6019 36.809C28.0427 35.773 27.0616 35.0573 25.9378 34.8285V23.7339C27.4659 23.4226 28.6729 22.2156 28.9842 20.6875H57.2661C57.5774 22.2156 58.7844 23.4226 60.3125 23.7339V34.8285C58.7844 35.1397 57.5774 36.3467 57.2661 37.8749H45.4925C45.0607 37.8749 44.7113 38.2243 44.7113 38.6561C44.7113 39.0879 45.0607 39.4373 45.4925 39.4373ZM44.7861 34.2242C44.4267 34.463 44.3291 34.9482 44.5679 35.3076C44.7189 35.5342 44.9669 35.6562 45.2194 35.6562C45.3682 35.6562 45.5185 35.6143 45.6512 35.5258C47.4662 34.3188 48.5939 31.9255 48.5939 29.2812C48.5939 25.4039 46.1403 22.25 43.1252 22.25C40.11 22.25 37.6564 25.4039 37.6564 29.2812C37.6564 30.3355 37.8434 31.3945 38.1981 32.3436C38.3484 32.7479 38.7993 32.9532 39.2029 32.8021C39.6073 32.6518 39.8125 32.2017 39.6614 31.7973C39.3723 31.0214 39.2189 30.1509 39.2189 29.2812C39.2189 26.266 40.9714 23.8124 43.1252 23.8124C45.2789 23.8124 47.0314 26.266 47.0314 29.2812C47.0314 31.3769 46.1502 33.3171 44.7861 34.2242ZM31.4065 28.4999C30.9747 28.4999 30.6252 28.8493 30.6252 29.2812C30.6252 29.713 30.9747 30.0624 31.4065 30.0624H34.5315C34.9633 30.0624 35.3127 29.713 35.3127 29.2812C35.3127 28.8493 34.9633 28.4999 34.5315 28.4999H31.4065ZM54.8438 30.0624C55.2756 30.0624 55.6251 29.713 55.6251 29.2812C55.6251 28.8493 55.2756 28.4999 54.8438 28.4999H51.7188C51.287 28.4999 50.9376 28.8493 50.9376 29.2812C50.9376 29.713 51.287 30.0624 51.7188 30.0624H54.8438Z" fill="#FD1716"/>
</svg>
