<svg width="80" height="80" viewBox="0 0 80 80" fill="none" xmlns="http://www.w3.org/2000/svg">
<rect x="0.5" y="0.5" width="79" height="79" rx="39.5" fill="#F9EBEB"/>
<rect x="0.5" y="0.5" width="79" height="79" rx="39.5" stroke="#F9EBEB"/>
<path fill-rule="evenodd" clip-rule="evenodd" d="M55.9013 24.0519L48.8775 16.9631V24.0519H55.9013ZM52.3102 47.0964C52.6207 47.1051 52.866 47.3591 52.866 47.6696C52.866 47.9779 52.6207 48.2319 52.3102 48.2406H31.2739C30.9634 48.2319 30.7181 47.9778 30.7181 47.6696C30.7181 47.3591 30.9634 47.1051 31.2739 47.0964H52.3102ZM49.8221 58.41C49.618 58.169 49.6441 57.8086 49.8851 57.6045C50.1239 57.3982 50.4843 57.4264 50.6905 57.6653L51.3202 58.3991L54.5986 55.4181V55.4203C54.833 55.2184 55.1848 55.2401 55.3932 55.4702C55.6016 55.6982 55.5908 56.0499 55.3693 56.2649L51.6393 59.6541C51.4005 59.8581 51.0401 59.8299 50.8338 59.5911L49.8221 58.41ZM58.9646 57.5307C58.9668 55.8481 58.2981 54.2327 57.1061 53.0429C57.0345 52.9713 56.9606 52.9018 56.8847 52.8323V52.8345C55.0261 51.1432 52.3448 50.709 50.0454 51.725C47.7483 52.7433 46.2676 55.0187 46.2676 57.5305C46.2676 59.1111 46.856 60.633 47.922 61.799C47.9893 61.8728 48.0588 61.9466 48.1305 62.0182C49.9455 63.8333 52.6747 64.3761 55.0453 63.3948C57.4183 62.4113 58.9646 60.0992 58.9646 57.5307ZM57.916 52.2353V52.2331C60.821 55.1641 60.8101 59.8883 57.8943 62.8063C54.9763 65.7222 50.2519 65.733 47.3227 62.828L47.2511 62.7564H21.5732V62.7585C21.2562 62.7564 21 62.5002 21 62.1854V20.3106C21 19.9936 21.2562 19.7374 21.5732 19.7374H25.7374V15.5732C25.7374 15.2562 25.9936 15 26.3106 15H48.304C48.4712 15 48.6319 15.0738 48.7404 15.1997L57.6484 24.1928C57.7722 24.3013 57.8438 24.4598 57.8438 24.6248V52.1636L57.916 52.2353ZM46.3351 61.6124C45.6512 60.5616 45.243 59.3544 45.1497 58.1038H26.3104C25.9934 58.1038 25.7373 57.8476 25.7373 57.5328V20.8837H22.1462V61.6119L46.3351 61.6124ZM45.1497 56.9596H26.8818V16.1464H47.7314V24.6247C47.7314 24.9417 47.9876 25.1979 48.3046 25.1979H56.6984V51.2471C54.4795 49.8077 51.6679 49.6448 49.2972 50.8151C46.9285 51.9875 45.3501 54.3214 45.1482 56.9595L45.1497 56.9596ZM41.7909 36.1773H31.2738C30.9634 36.186 30.718 36.44 30.718 36.7483C30.718 37.0587 30.9634 37.3127 31.2738 37.3214H41.7909C41.945 37.3258 42.097 37.2693 42.2078 37.1608C42.3185 37.0522 42.3814 36.9046 42.3814 36.7482C42.3814 36.5941 42.3185 36.4464 42.2078 36.3379C42.097 36.2293 41.945 36.1708 41.7909 36.1773ZM52.3102 43.4573H31.2738C30.9634 43.4682 30.718 43.72 30.718 44.0305C30.718 44.3409 30.9634 44.5928 31.2738 44.6036H52.3102C52.6207 44.5928 52.866 44.3409 52.866 44.0305C52.866 43.72 52.6207 43.4681 52.3102 43.4573ZM52.3102 39.8163L31.2738 39.8185C30.9634 39.8271 30.718 40.0812 30.718 40.3894C30.718 40.6999 30.9634 40.9539 31.2738 40.9626H52.3102C52.6207 40.9539 52.866 40.6999 52.866 40.3894C52.866 40.0811 52.6207 39.8271 52.3102 39.8185V39.8163ZM36.7347 23.2898V24.028C36.422 24.1148 36.1311 24.2733 35.8901 24.4926C35.4993 24.8378 35.2757 25.335 35.2757 25.856C35.2757 26.3793 35.4993 26.8765 35.8901 27.2217C36.2788 27.5712 36.7846 27.7645 37.3079 27.7623C37.5467 27.758 37.7768 27.8448 37.9549 28.0033C38.1069 28.1314 38.1959 28.3224 38.1959 28.5222C38.1959 28.7219 38.1069 28.9108 37.9549 29.0411C37.7769 29.1996 37.5467 29.2843 37.3079 29.2799C37.1016 29.2821 36.8997 29.2191 36.7325 29.0997C36.587 28.9977 36.4828 28.8479 36.4372 28.6742C36.3634 28.368 36.0529 28.1791 35.7468 28.253C35.4407 28.3268 35.2518 28.6373 35.3256 28.9434C35.4342 29.3776 35.6925 29.7598 36.0551 30.0224C36.2592 30.1701 36.4893 30.283 36.7325 30.3481V31.0885C36.7434 31.3989 36.9974 31.6443 37.3057 31.6443C37.6162 31.6443 37.8702 31.3989 37.8788 31.0885V30.3503C38.1937 30.2634 38.4824 30.1049 38.7234 29.8857C39.1142 29.5405 39.34 29.0433 39.34 28.5222C39.34 27.999 39.1142 27.5018 38.7234 27.1566C38.3348 26.807 37.8289 26.6138 37.3056 26.616C37.0668 26.6203 36.8367 26.5334 36.6586 26.3771C36.5066 26.2469 36.4198 26.0558 36.4198 25.8561C36.4198 25.6563 36.5066 25.4674 36.6586 25.3372C36.8366 25.1808 37.0668 25.094 37.3056 25.0983C37.5119 25.0962 37.7138 25.1591 37.881 25.2785C38.0265 25.3806 38.1329 25.5304 38.1763 25.7041C38.2523 26.0102 38.5606 26.1991 38.8667 26.1253C39.175 26.0515 39.3639 25.741 39.2879 25.4348C39.1815 25.0006 38.9232 24.6185 38.5584 24.3558C38.3543 24.2082 38.1242 24.0974 37.881 24.0301V23.2898C37.8853 23.1356 37.8267 22.9836 37.7203 22.8729C37.6118 22.7622 37.462 22.6992 37.3078 22.6992C37.1536 22.6992 37.0038 22.7622 36.8975 22.8729C36.7889 22.9836 36.7303 23.1356 36.7347 23.2898ZM42.4968 27.1891C42.4989 24.7141 40.749 22.582 38.3217 22.0978C35.8922 21.6136 33.4605 22.9142 32.514 25.2003C31.5652 27.4887 32.3642 30.1267 34.4246 31.5032C36.4828 32.8798 39.2272 32.6084 40.9771 30.8584C41.9519 29.8857 42.4989 28.5657 42.4968 27.1891ZM41.7868 22.7101C39.6504 20.5715 36.3004 20.2415 33.7859 21.9219C31.2739 23.6002 30.2969 26.8222 31.452 29.6144C32.6092 32.4086 35.5793 33.9936 38.543 33.4052C41.5088 32.8146 43.643 30.2114 43.643 27.189C43.6452 25.5085 42.9766 23.8955 41.7868 22.7101Z" fill="#FD1716"/>
</svg>
