<svg width="25" height="25" viewBox="0 0 25 25" fill="none" xmlns="http://www.w3.org/2000/svg">
<path d="M4.9519 21.1806C4.93022 21.3263 4.80448 21.4321 4.66138 21.4321C4.64664 21.4321 4.63276 21.4312 4.61802 21.4286C4.14019 21.3584 3.71178 21.263 3.34493 21.1459C3.19057 21.0965 3.10472 20.9308 3.15414 20.7765C3.20357 20.6221 3.36921 20.5362 3.52359 20.5857C3.86093 20.6932 4.25813 20.7808 4.70474 20.8467C4.86518 20.8701 4.97619 21.0202 4.95277 21.1806L4.9519 21.1806ZM9.67049 20.5848C9.33315 20.6923 8.93595 20.7799 8.48933 20.8458C8.3289 20.8693 8.21788 21.0193 8.2413 21.1797C8.26299 21.3254 8.38873 21.4312 8.53183 21.4312C8.54657 21.4312 8.56045 21.4303 8.57519 21.4277C9.05302 21.3575 9.48143 21.2621 9.84828 21.145C10.0026 21.0956 10.0885 20.93 10.0391 20.7756C9.98963 20.6212 9.82399 20.5354 9.66962 20.5848H9.67049ZM11.1925 15.7093V18.5763V18.5772V21.4442C11.1925 21.7833 10.9375 22.262 9.7208 22.6184C8.8822 22.8647 7.77215 23 6.59624 23C5.42032 23 4.31021 22.8647 3.47168 22.6184C2.25582 22.262 2 21.7833 2 21.4442V12.8404C2 12.5014 2.25496 12.0226 3.47168 11.6662C4.31027 11.4199 5.42032 11.2846 6.59624 11.2846C7.77215 11.2846 8.88227 11.4199 9.7208 11.6662C10.9367 12.0226 11.1925 12.5013 11.1925 12.8404V15.7083V15.7093ZM2.58872 12.8405C2.58872 12.9619 2.86797 13.2246 3.63721 13.4501C4.42379 13.6808 5.47485 13.8074 6.59615 13.8074C7.71745 13.8074 8.76855 13.6808 9.55509 13.4501C10.3243 13.2246 10.6036 12.9619 10.6036 12.8405C10.6036 12.719 10.3243 12.4563 9.55509 12.2308C8.76851 12.0001 7.71832 11.8735 6.59615 11.8735C5.47398 11.8735 4.42374 12.0001 3.63721 12.2308C2.86799 12.4563 2.58872 12.719 2.58872 12.8405ZM2.58872 15.7084C2.58872 15.8298 2.86797 16.0926 3.63721 16.318C4.42379 16.5487 5.47398 16.6753 6.59615 16.6753C7.71832 16.6753 8.76855 16.5487 9.55509 16.318C10.3243 16.0926 10.6036 15.8298 10.6036 15.7084V13.6505C10.3894 13.7779 10.1023 13.9028 9.72073 14.0147C8.88213 14.261 7.77209 14.3963 6.59617 14.3963C5.42025 14.3963 4.31014 14.261 3.47161 14.0147C3.09002 13.9028 2.80299 13.7788 2.58877 13.6505L2.58872 15.7084ZM2.58872 18.5763C2.58872 18.6977 2.86797 18.9605 3.63721 19.1859C4.42379 19.4166 5.47398 19.5432 6.59615 19.5432C7.71832 19.5432 8.76855 19.4166 9.55509 19.1859C10.3243 18.9605 10.6036 18.6977 10.6036 18.5763V16.5184C10.3894 16.6459 10.1023 16.7707 9.72073 16.8826C8.88213 17.1289 7.77209 17.2642 6.59617 17.2642C5.42025 17.2642 4.31014 17.1289 3.47161 16.8826C3.09002 16.7707 2.80299 16.6467 2.58877 16.5184L2.58872 18.5763ZM10.6044 21.4442V19.3863C10.3902 19.5138 10.1031 19.6386 9.72153 19.7505C8.88293 19.9968 7.77289 20.1321 6.59697 20.1321C5.42105 20.1321 4.31094 19.9968 3.47241 19.7505C3.09082 19.6386 2.80378 19.5146 2.58957 19.3863V21.4442C2.58957 21.5656 2.86881 21.8284 3.63805 22.0539C4.42463 22.2846 5.47482 22.4112 6.59699 22.4112C7.71918 22.4112 8.7694 22.2845 9.55593 22.0539C10.3252 21.8284 10.6044 21.5656 10.6044 21.4442ZM8.53171 18.5641C8.54646 18.5641 8.56033 18.5632 8.57507 18.5606C9.05291 18.4904 9.48132 18.395 9.84817 18.2779C10.0025 18.2285 10.0884 18.0628 10.039 17.9085C9.98952 17.7541 9.82388 17.6682 9.66951 17.7177C9.33216 17.8252 8.93497 17.9128 8.48835 17.9787C8.32791 18.0021 8.2169 18.1521 8.24032 18.3126C8.262 18.4583 8.38775 18.5641 8.53084 18.5641L8.53171 18.5641ZM3.34491 18.2779C3.71174 18.395 4.14015 18.4895 4.618 18.5606C4.63274 18.5632 4.64749 18.5641 4.66136 18.5641C4.80445 18.5641 4.93019 18.4591 4.95188 18.3126C4.9753 18.1521 4.86429 18.0021 4.70385 17.9787C4.25724 17.9128 3.86004 17.8243 3.5227 17.7176C3.36833 17.6682 3.20269 17.7541 3.15325 17.9084C3.10382 18.0628 3.18967 18.2284 3.34404 18.2779L3.34491 18.2779ZM8.53171 15.6961C8.54646 15.6961 8.56033 15.6953 8.57507 15.6927C9.05291 15.6224 9.48132 15.527 9.84817 15.41C10.0025 15.3605 10.0884 15.1949 10.039 15.0405C9.98952 14.8861 9.82388 14.8003 9.66951 14.8497C9.33216 14.9573 8.93497 15.0448 8.48835 15.1108C8.32791 15.1342 8.2169 15.2842 8.24032 15.4446C8.262 15.5903 8.38775 15.6961 8.53084 15.6961L8.53171 15.6961ZM3.34491 15.4099C3.71174 15.527 4.14015 15.6215 4.618 15.6926C4.63274 15.6953 4.64749 15.6961 4.66136 15.6961C4.80445 15.6961 4.93019 15.5912 4.95188 15.4446C4.9753 15.2842 4.86429 15.1342 4.70385 15.1107C4.25724 15.0448 3.86004 14.9564 3.5227 14.8497C3.36833 14.8003 3.20269 14.8861 3.15325 15.0405C3.10382 15.1949 3.18967 15.3605 3.34404 15.4099L3.34491 15.4099ZM5.71775 15.5366C5.71775 15.0518 6.11146 14.6581 6.59624 14.6581C7.08102 14.6581 7.47473 15.0518 7.47473 15.5366C7.47473 16.0213 7.08102 16.415 6.59624 16.415C6.11146 16.415 5.71775 16.0213 5.71775 15.5366ZM6.30658 15.5366C6.30658 15.697 6.43667 15.8271 6.5971 15.8271C6.75754 15.8271 6.88762 15.697 6.88762 15.5366C6.88762 15.3761 6.75754 15.246 6.5971 15.246C6.43667 15.246 6.30658 15.3761 6.30658 15.5366ZM5.71775 18.4045C5.71775 17.9197 6.11146 17.526 6.59624 17.526C7.08102 17.526 7.47473 17.9197 7.47473 18.4045C7.47473 18.8893 7.08102 19.283 6.59624 19.283C6.11146 19.283 5.71775 18.8893 5.71775 18.4045ZM6.30658 18.4045C6.30658 18.5649 6.43667 18.695 6.5971 18.695C6.75754 18.695 6.88762 18.5649 6.88762 18.4045C6.88762 18.244 6.75754 18.114 6.5971 18.114C6.43667 18.114 6.30658 18.244 6.30658 18.4045ZM7.47473 21.2724C7.47473 21.7572 7.08102 22.1509 6.59624 22.1509C6.11146 22.1509 5.71775 21.7572 5.71775 21.2724C5.71775 20.7876 6.11146 20.3939 6.59624 20.3939C7.08102 20.3939 7.47473 20.7876 7.47473 21.2724ZM6.88676 21.2724C6.88676 21.112 6.75667 20.9819 6.59624 20.9819C6.4358 20.9819 6.30572 21.112 6.30572 21.2724C6.30572 21.4328 6.4358 21.5629 6.59624 21.5629C6.75667 21.5629 6.88676 21.4328 6.88676 21.2724ZM12.3719 18.1529C12.091 18.1529 11.862 17.924 11.862 17.643V16.6422C11.862 16.3613 12.0909 16.1323 12.3719 16.1323H17.3498V15.9077C17.3498 15.7247 17.4522 15.5617 17.6161 15.481C17.78 15.4012 17.9716 15.4212 18.1156 15.5348L19.5092 16.6284C19.6679 16.7532 19.759 16.9405 19.759 17.1426C19.759 17.3447 19.6679 17.532 19.5083 17.6569L18.1147 18.7505C18.0289 18.8181 17.9265 18.8519 17.8225 18.8519C17.7522 18.8519 17.6811 18.8363 17.6143 18.8034C17.4504 18.7236 17.3481 18.5597 17.3481 18.3775V18.1529H12.3702L12.3719 18.1529ZM12.45 17.565H17.6439C17.722 17.565 17.7965 17.5962 17.852 17.6508C17.9067 17.7055 17.9379 17.7809 17.9379 17.859V18.1417L19.1468 17.1938C19.1676 17.1773 19.1719 17.1574 19.1719 17.1426C19.1719 17.1279 19.1676 17.1079 19.1468 17.0915L17.9379 16.1436V16.4263C17.9379 16.5885 17.8061 16.7203 17.6439 16.7203H12.45L12.45 17.565ZM4.93542 5.14377C4.85564 4.97986 4.87558 4.7882 4.98919 4.64425L6.08276 3.24976C6.20764 3.09106 6.39495 3 6.59703 3C6.7991 3 6.98641 3.09106 7.11129 3.25063L8.20486 4.64425C8.3176 4.78821 8.33841 4.97986 8.25776 5.14377C8.17798 5.30767 8.01406 5.41 7.83195 5.41H7.60734V10.3879C7.60734 10.6689 7.37841 10.8978 7.09741 10.8978H6.09663C5.81566 10.8978 5.5867 10.6689 5.5867 10.3879L5.58583 5.41H5.36123C5.17824 5.41 5.0152 5.30767 4.93455 5.14377H4.93542ZM5.59712 4.82203H5.87983C6.042 4.82203 6.17381 4.95385 6.17381 5.11602V10.3099H7.01849V5.11602C7.01849 4.95384 7.15031 4.82203 7.31247 4.82203H7.59518L6.64731 3.61312C6.63084 3.59231 6.61089 3.58797 6.59615 3.58797C6.5814 3.58797 6.56146 3.59231 6.54498 3.61312L5.59712 4.82203ZM12.495 12.0373L11.7873 11.3297C11.5887 11.1311 11.5887 10.8076 11.7873 10.6081L15.3073 7.08819L15.1486 6.92949C15.0193 6.80027 14.976 6.61208 15.0358 6.43952C15.0957 6.26694 15.2457 6.14553 15.4269 6.12384L17.1857 5.91137C17.386 5.88709 17.5829 5.9556 17.7259 6.09782C17.869 6.24091 17.9367 6.43776 17.9124 6.6381L17.6999 8.39684C17.6782 8.57809 17.5568 8.72812 17.3843 8.78795C17.2117 8.84779 17.0244 8.80443 16.8943 8.67522L16.7356 8.51652L13.2156 12.0365C13.1159 12.1362 12.9858 12.1856 12.8549 12.1856C12.7239 12.1856 12.5938 12.1362 12.4941 12.0365L12.495 12.0373ZM12.2582 10.9689L12.8548 11.5656L16.5276 7.89286C16.5822 7.83823 16.6576 7.80701 16.7357 7.80701C16.8137 7.80701 16.8883 7.83823 16.9438 7.89286L17.1441 8.09319L17.328 6.56774C17.3315 6.54173 17.3193 6.52438 17.3089 6.51397C17.2985 6.50357 17.2812 6.49143 17.2551 6.4949L15.7297 6.67961L15.93 6.87994C15.9847 6.93544 16.0159 7.01003 16.0159 7.08808C16.0159 7.16613 15.9847 7.24071 15.93 7.29621L12.2573 10.9689L12.2582 10.9689ZM21.7067 3.72231H9.74594C9.58377 3.72231 9.45196 3.85413 9.45196 4.01629C9.45196 4.17846 9.58377 4.31028 9.74594 4.31028H21.4128V20.8187H12.4915C12.3294 20.8187 12.1975 20.9505 12.1975 21.1127C12.1975 21.2748 12.3294 21.4066 12.4915 21.4066H21.7067C21.8689 21.4066 22.0007 21.2748 22.0007 21.1127V4.01616C22.0007 3.85399 21.8689 3.72231 21.7067 3.72231Z" fill="url(#paint0_linear_4328_5343)"/>
<defs>
<linearGradient id="paint0_linear_4328_5343" x1="9.77055" y1="31.5755" x2="30.705" y2="12.606" gradientUnits="userSpaceOnUse">
<stop stop-color="#FF1717"/>
<stop offset="1" stop-color="#FF6461"/>
</linearGradient>
</defs>
</svg>
