<svg width="40" height="40" viewBox="0 0 40 40" fill="none" xmlns="http://www.w3.org/2000/svg">
<g opacity="0.84">
<g clip-path="url(#clip0_4342_6121)">
<rect width="40" height="40" rx="20" fill="white"/>
<path d="M10.771 7.00213H24.5662C28.2125 7.00213 33.1909 9.85955 33.0714 15.0016C32.9817 18.9066 30.422 20.3971 28.0268 22.2517L34 33H27.5806C25.6187 33 24.2033 30.7813 23.2085 28.6862C21.934 25.9991 21.1505 24.7258 20.557 24.1403C19.5579 23.1502 18.5866 22.6796 17.7028 22.6796H8L8.93719 17.3842H21.4921V19.1536L25.655 14.9995L21.4899 10.8454V12.355H9.82527L10.7731 7L10.771 7.00213Z" fill="#8754A1"/>
<path d="M6.86981 28H11.6976C12.8465 28 14.2439 28.5075 15.0302 30.4799C15.7146 32.1996 16.4133 33.1509 17 32.9804H6L6.86981 28Z" fill="#40225D"/>
</g>
<rect x="0.5" y="0.5" width="39" height="39" rx="19.5" stroke="black"/>
</g>
<defs>
<clipPath id="clip0_4342_6121">
<rect width="40" height="40" rx="20" fill="white"/>
</clipPath>
</defs>
</svg>
