<svg width="40" height="40" viewBox="0 0 40 40" fill="none" xmlns="http://www.w3.org/2000/svg">
<path fill-rule="evenodd" clip-rule="evenodd" d="M6.9096 24.5947H21.4486V14.9635C21.4486 14.188 20.8167 13.5561 20.0412 13.5561H8.31574C7.54023 13.5561 6.90833 14.1867 6.90833 14.9635V24.5947H6.9096ZM21.7919 25.2814H6.56601C6.3767 25.2814 6.22266 25.1274 6.22266 24.9381V14.9633C6.22266 13.8092 7.16268 12.8691 8.31681 12.8691H20.0423C21.1964 12.8691 22.1365 13.8092 22.1365 14.9633V24.9381C22.1365 25.1274 21.9824 25.2814 21.7931 25.2814H21.7919Z" fill="#FD1716"/>
<path fill-rule="evenodd" clip-rule="evenodd" d="M8.42099 23.0831H19.9322V15.0732H8.42099V23.0831ZM20.2758 23.7698H8.07773C7.88842 23.7698 7.73438 23.6158 7.73438 23.4265V14.9664C7.73438 14.6518 8.00071 14.3867 8.31406 14.3867H20.0396C20.3542 14.3867 20.6192 14.6531 20.6192 14.9677V23.4278C20.6192 23.6171 20.4652 23.7711 20.2759 23.7711L20.2758 23.7698Z" fill="#FD1716"/>
<path fill-rule="evenodd" clip-rule="evenodd" d="M5.68671 25.2824V26.242C5.68671 26.7042 6.06272 27.0789 6.52359 27.0789H21.8317C22.2939 27.0789 22.6686 26.7029 22.6686 26.242V25.2824H16.484V25.9757C16.484 26.165 16.3299 26.319 16.1406 26.319H12.2147C12.0254 26.319 11.8714 26.165 11.8714 25.9757V25.2824H5.68671ZM21.8317 27.7656H6.52362C5.68283 27.7656 5 27.0815 5 26.242V24.9391C5 24.7497 5.15406 24.5957 5.34336 24.5957H12.2148C12.4041 24.5957 12.5582 24.7498 12.5582 24.9391V25.6323H15.7973V24.9391C15.7973 24.7497 15.9514 24.5957 16.1407 24.5957H23.0121C23.2014 24.5957 23.3555 24.7498 23.3555 24.9391V26.242C23.3555 27.0828 22.6712 27.7656 21.8317 27.7656Z" fill="#FD1716"/>
<path fill-rule="evenodd" clip-rule="evenodd" d="M26.0558 12.147C25.6759 12.147 25.3677 12.4564 25.3677 12.8363V27.8022C25.3677 28.1821 25.6772 28.4915 26.0558 28.4915H33.6244C34.0044 28.4915 34.3125 28.1821 34.3125 27.8035V12.8376C34.3125 12.4577 34.0031 12.1496 33.6244 12.1496H26.0558V12.147ZM33.6244 29.177H26.0558C25.2972 29.177 24.6797 28.5595 24.6797 27.8009V12.8351C24.6797 12.0765 25.2972 11.459 26.0558 11.459H33.6244C34.383 11.459 35.0005 12.0765 35.0005 12.8351V27.8009C35.0005 28.5595 34.383 29.177 33.6244 29.177Z" fill="#FD1716"/>
<path fill-rule="evenodd" clip-rule="evenodd" d="M34.6556 14.6926H25.023C24.8337 14.6926 24.6797 14.5385 24.6797 14.3492C24.6797 14.1599 24.8337 14.0059 25.023 14.0059H34.6556C34.8449 14.0059 34.9989 14.1599 34.9989 14.3492C34.9989 14.5385 34.8449 14.6926 34.6556 14.6926Z" fill="#FD1716"/>
<path fill-rule="evenodd" clip-rule="evenodd" d="M34.6556 26.6301H25.023C24.8337 26.6301 24.6797 26.476 24.6797 26.2867C24.6797 26.0974 24.8337 25.9434 25.023 25.9434H34.6556C34.8449 25.9434 34.9989 26.0974 34.9989 26.2867C34.9989 26.476 34.8449 26.6301 34.6556 26.6301Z" fill="#FD1716"/>
<path fill-rule="evenodd" clip-rule="evenodd" d="M12.6442 19.0124C12.5528 19.0124 12.4771 19.0894 12.4771 19.1808V21.5531C12.4771 21.6445 12.5541 21.7215 12.6442 21.7215H15.7111C15.8025 21.7215 15.8782 21.6445 15.8782 21.5544V19.1821C15.8782 19.0907 15.8011 19.015 15.7111 19.015H12.6442V19.0124ZM15.7111 22.4068H12.6442C12.1729 22.4068 11.7891 22.023 11.7891 21.5517V19.1794C11.7891 18.708 12.1729 18.3242 12.6442 18.3242H15.7111C16.1824 18.3242 16.5662 18.708 16.5662 19.1794V21.5517C16.5662 22.023 16.1824 22.4068 15.7111 22.4068Z" fill="#FD1716"/>
<path fill-rule="evenodd" clip-rule="evenodd" d="M15.436 19.0107C15.2467 19.0107 15.0926 18.8566 15.0926 18.6673V16.6123C15.0926 16.5157 15.0117 16.4348 14.9151 16.4348H13.4424C13.3458 16.4348 13.2648 16.5157 13.2648 16.6123V18.6673C13.2648 18.8566 13.1108 19.0107 12.9215 19.0107C12.7322 19.0107 12.5781 18.8566 12.5781 18.6673V16.6123C12.5781 16.1358 12.9659 15.748 13.4424 15.748H14.9151C15.3916 15.748 15.7794 16.1358 15.7794 16.6136V18.6686C15.7794 18.8579 15.6253 19.012 15.436 19.012L15.436 19.0107Z" fill="#FD1716"/>
<path fill-rule="evenodd" clip-rule="evenodd" d="M14.1773 21.0453C13.988 21.0453 13.834 20.8912 13.834 20.7019V20.0269C13.834 19.8376 13.988 19.6836 14.1773 19.6836C14.3667 19.6836 14.5207 19.8377 14.5207 20.0269V20.7019C14.5207 20.8912 14.3666 21.0453 14.1773 21.0453Z" fill="#FD1716"/>
<path fill-rule="evenodd" clip-rule="evenodd" d="M26.7018 19.0141C26.6548 19.3053 26.5999 19.9332 26.8101 20.7022C27.1888 22.0862 28.2084 23.2742 29.8404 24.2351C31.4724 23.2741 32.4921 22.0861 32.8707 20.7022C33.0809 19.9332 33.0261 19.3053 32.9791 19.0141C31.3575 18.4945 30.6029 17.4252 30.1446 16.7763C30.0428 16.6314 29.92 16.4578 29.8404 16.3781C29.7608 16.4578 29.6393 16.6314 29.5362 16.7763C29.0779 17.4252 28.3233 18.4945 26.7018 19.0141ZM29.8404 24.9754C29.7817 24.9754 29.7242 24.9611 29.672 24.9311C27.288 23.5837 26.4328 21.9622 26.1365 20.8394C25.8088 19.6017 26.066 18.6852 26.0777 18.6473C26.1104 18.5324 26.2005 18.4436 26.3154 18.4123C27.8429 17.9854 28.5244 17.0192 28.9761 16.3795C29.2595 15.9774 29.484 15.6602 29.8417 15.6602C30.1995 15.6602 30.4227 15.9774 30.7073 16.3795C31.1591 17.0193 31.8406 17.9867 33.3681 18.4123C33.483 18.445 33.5731 18.5337 33.6057 18.6473C33.6162 18.6852 33.8734 19.6017 33.547 20.8394C33.2506 21.9622 32.3967 23.5824 30.0115 24.9311C29.9593 24.9611 29.9005 24.9754 29.8431 24.9754H29.8404Z" fill="#FD1716"/>
<path fill-rule="evenodd" clip-rule="evenodd" d="M29.1595 21.7037C29.0681 21.7037 28.9806 21.6672 28.9166 21.6032L28.1907 20.8773C28.0562 20.7428 28.0562 20.5261 28.1907 20.3916C28.3252 20.2571 28.5419 20.2571 28.6764 20.3916L29.1594 20.8747L31.0016 19.0325C31.1361 18.898 31.3528 18.898 31.4873 19.0325C31.6217 19.167 31.6218 19.3837 31.4873 19.5182L29.4023 21.6032C29.3383 21.6672 29.2508 21.7037 29.1595 21.7037Z" fill="#FD1716"/>
<path fill-rule="evenodd" clip-rule="evenodd" d="M14.1773 13.5577C13.988 13.5577 13.834 13.4037 13.834 13.2144V9.48836C13.834 8.66716 14.5011 8 15.3223 8H28.6943C29.0912 8 29.4646 8.15536 29.7465 8.43607C30.0286 8.71808 30.1826 9.09146 30.1826 9.48836V11.8045C30.1826 11.9938 30.0286 12.1478 29.8393 12.1478C29.65 12.1478 29.4959 11.9938 29.4959 11.8045V9.48836C29.4959 9.27555 29.4124 9.07449 29.2609 8.92174C29.1095 8.7703 28.9084 8.68674 28.6943 8.68674H15.3224C14.8798 8.68674 14.5208 9.04707 14.5208 9.48836V13.2144C14.5208 13.4037 14.3666 13.5577 14.1773 13.5577Z" fill="#FD1716"/>
<path fill-rule="evenodd" clip-rule="evenodd" d="M28.6943 32.6378H15.3223C14.5011 32.6378 13.834 31.9706 13.834 31.1494V27.4234C13.834 27.2341 13.988 27.0801 14.1773 27.0801C14.3666 27.0801 14.5207 27.2341 14.5207 27.4234V31.1494C14.5207 31.592 14.8797 31.9511 15.3223 31.9511H28.6942C29.1368 31.9511 29.4958 31.592 29.4958 31.1494V28.8333C29.4958 28.644 29.6499 28.49 29.8392 28.49C30.0285 28.49 30.1826 28.644 30.1826 28.8333V31.1494C30.1826 31.9706 29.5155 32.6378 28.6943 32.6378Z" fill="#FD1716"/>
</svg>
