<svg width="40" height="40" viewBox="0 0 40 40" fill="none" xmlns="http://www.w3.org/2000/svg">
<path d="M30.8889 14.4445H30.3333V6.66669C30.3333 6.51946 30.275 6.3778 30.1708 6.27362C30.0667 6.16944 29.925 6.11112 29.7778 6.11112C29.4708 6.11112 29.2222 5.86251 29.2222 5.55557C29.2222 5.40834 29.1639 5.26668 29.0597 5.1625C28.9555 5.05832 28.8139 5 28.6666 5H10.8889C10.582 5 10.3333 5.24861 10.3333 5.55555C10.3333 5.70278 10.275 5.84444 10.1708 5.94862C10.0667 6.0528 9.92501 6.11112 9.77777 6.11112C9.47083 6.11112 9.22222 6.35973 9.22222 6.66668V14.4444H8.66666C7.74585 14.4444 7 15.1903 7 16.1111V23.8889C7 24.8097 7.74585 25.5555 8.66666 25.5555H9.22222V33.3333C9.22222 33.4805 9.28055 33.6222 9.38472 33.7264C9.48888 33.8305 9.63055 33.8889 9.77778 33.8889C9.92502 33.8889 10.0667 33.9472 10.1709 34.0514C10.275 34.1555 10.3333 34.2972 10.3333 34.4444C10.3333 34.5917 10.3917 34.7333 10.4958 34.8375C10.6 34.9417 10.7417 35 10.8889 35H28.6667C28.8139 35 28.9556 34.9417 29.0597 34.8375C29.1639 34.7333 29.2222 34.5917 29.2222 34.4444C29.2222 34.1375 29.4708 33.8889 29.7778 33.8889C29.925 33.8889 30.0667 33.8305 30.1709 33.7264C30.275 33.6222 30.3334 33.4805 30.3334 33.3333V25.5555H30.8889C31.8097 25.5555 32.5556 24.8097 32.5556 23.8889V16.1111C32.5556 15.1903 31.8097 14.4445 30.8889 14.4445ZM10.3335 7.12215C10.8085 6.95826 11.1808 6.58605 11.3447 6.11102H28.2115C28.3754 6.58601 28.7476 6.95824 29.2226 7.12215V14.4445H10.3338L10.3335 7.12215ZM29.2224 32.8778C28.7474 33.0417 28.3752 33.414 28.2113 33.889H11.3445C11.1806 33.414 10.8083 33.0418 10.3333 32.8778V25.5555H29.2222L29.2224 32.8778ZM31.4446 23.8891C31.4446 24.0363 31.3863 24.1779 31.2821 24.2821C31.178 24.3863 31.0363 24.4446 30.8891 24.4446H8.66686C8.35992 24.4446 8.11131 24.196 8.11131 23.8891V16.1113C8.11131 15.8044 8.35992 15.5557 8.66686 15.5557H30.8891C31.0363 15.5557 31.1779 15.6141 31.2821 15.7183C31.3863 15.8224 31.4446 15.9641 31.4446 16.1113V23.8891ZM28.1113 8.8889C28.1113 9.03613 28.053 9.17779 27.9488 9.28197C27.8446 9.38615 27.703 9.44447 27.5557 9.44447H12.0002C11.6932 9.44447 11.4446 9.19586 11.4446 8.88892C11.4446 8.58197 11.6932 8.33336 12.0002 8.33336H27.5557C27.7029 8.33336 27.8446 8.39169 27.9488 8.49586C28.053 8.60003 28.1113 8.74167 28.1113 8.8889ZM27.0002 11.1111C27.0002 11.2583 26.9418 11.4 26.8377 11.5042C26.7335 11.6084 26.5918 11.6667 26.4446 11.6667H13.1113C12.8044 11.6667 12.5557 11.4181 12.5557 11.1111C12.5557 10.8042 12.8044 10.5556 13.1113 10.5556H26.4446C26.5918 10.5556 26.7335 10.6139 26.8377 10.7181C26.9419 10.8222 27.0002 10.9639 27.0002 11.1111ZM11.4446 28.8889C11.4446 28.5819 11.6933 28.3333 12.0002 28.3333H27.5557C27.8627 28.3333 28.1113 28.5819 28.1113 28.8889C28.1113 29.1958 27.8627 29.4444 27.5557 29.4444H12.0002C11.6933 29.4444 11.4446 29.1958 11.4446 28.8889ZM25.8891 31.1111C25.8891 31.2583 25.8307 31.4 25.7266 31.5042C25.6224 31.6083 25.4807 31.6667 25.3335 31.6667H14.2224C13.9155 31.6667 13.6669 31.418 13.6669 31.1111C13.6669 30.8042 13.9155 30.5555 14.2224 30.5555H25.3335C25.4807 30.5555 25.6224 30.6139 25.7266 30.7181C25.8307 30.8222 25.8891 30.9639 25.8891 31.1111ZM14.2226 16.6667H13.1115C12.1907 16.6667 11.4448 17.4125 11.4448 18.3333V21.6667C11.4448 22.5875 12.1907 23.3333 13.1115 23.3333H14.2226C15.1434 23.3333 15.8893 22.5875 15.8893 21.6667V18.3333C15.8893 17.4125 15.1434 16.6667 14.2226 16.6667ZM14.7782 21.6665C14.7782 21.8137 14.7198 21.9554 14.6157 22.0596C14.5115 22.1637 14.3698 22.2221 14.2226 22.2221H13.1115C12.8045 22.2221 12.5559 21.9734 12.5559 21.6665V18.3332C12.5559 18.0262 12.8045 17.7776 13.1115 17.7776H14.2226C14.3698 17.7776 14.5115 17.8359 14.6157 17.9401C14.7198 18.0443 14.7782 18.1859 14.7782 18.3332V21.6665ZM22.5559 17.222C22.5559 17.3693 22.4976 17.5109 22.3934 17.6151C22.2893 17.7193 22.1476 17.7776 22.0004 17.7776H20.3337V22.7774C20.3337 23.0844 20.0851 23.333 19.7781 23.333C19.4712 23.333 19.2226 23.0844 19.2226 22.7774V17.7776H17.5559C17.249 17.7776 17.0004 17.529 17.0004 17.2221C17.0004 16.9151 17.249 16.6665 17.5559 16.6665H22.0004C22.1476 16.6665 22.2892 16.7248 22.3934 16.829C22.4976 16.9332 22.5559 17.0748 22.5559 17.222ZM25.8892 16.6665H24.2226C23.9156 16.6665 23.667 16.9151 23.667 17.222V22.7776C23.667 23.0845 23.9156 23.3332 24.2226 23.3332C24.5295 23.3332 24.7781 23.0845 24.7781 22.7776V21.1109H25.8892C27.117 21.1109 28.1115 20.1165 28.1115 18.8887C28.1115 17.6609 27.117 16.6665 25.8892 16.6665ZM25.8892 19.9998H24.7781V17.7776H25.8892C26.5032 17.7776 27.0004 18.2748 27.0004 18.8887C27.0004 19.5026 26.5032 19.9998 25.8892 19.9998Z" fill="#FD1716"/>
</svg>
