<svg width="40" height="40" viewBox="0 0 40 40" fill="none" xmlns="http://www.w3.org/2000/svg">
<path d="M19.5003 8.00003C19.5003 7.72378 19.7241 7.50003 20.0003 7.50003H27.5005C27.7767 7.50003 28.0005 7.72378 28.0005 8.00003C28.0005 8.27628 27.7767 8.50003 27.5005 8.50003H20.0003C19.7241 8.50003 19.5003 8.27628 19.5003 8.00003ZM8.50031 8.50003C8.70281 8.50003 8.8853 8.37878 8.9628 8.19128C9.03905 8.00503 8.99655 7.79003 8.85405 7.64629C8.7103 7.50379 8.4953 7.46129 8.30906 7.53754C8.12156 7.61504 8.00031 7.79754 8.00031 8.00003C8.00031 8.13253 8.05281 8.26003 8.14656 8.35379C8.24031 8.44755 8.3678 8.50003 8.50031 8.50003ZM11.0003 8.50003C11.2028 8.50003 11.3853 8.37878 11.4628 8.19128C11.5391 8.00503 11.4966 7.79003 11.3541 7.64629C11.2103 7.50379 10.9953 7.46129 10.8091 7.53754C10.6216 7.61504 10.5003 7.79754 10.5003 8.00003C10.5003 8.13253 10.5528 8.26003 10.6466 8.35379C10.7403 8.44755 10.8678 8.50003 11.0003 8.50003ZM13.5003 8.50003C13.7028 8.50003 13.8853 8.37878 13.9628 8.19128C14.0391 8.00503 13.9966 7.79003 13.8541 7.64629C13.7103 7.50379 13.4953 7.46129 13.3091 7.53754C13.1216 7.61504 13.0003 7.79754 13.0003 8.00003C13.0003 8.13253 13.0528 8.26003 13.1466 8.35379C13.2403 8.44755 13.3678 8.50003 13.5003 8.50003ZM8.03151 17.325L9.53151 13.325C9.60526 13.1287 9.79151 13 10.0002 13C10.209 13 10.3953 13.1288 10.469 13.325L11.969 17.325C12.0652 17.5825 11.934 17.8712 11.6752 17.9687C11.4177 18.065 11.129 17.9337 11.0315 17.675L10.779 17H9.22148L8.96773 17.675H8.96898C8.87148 17.9337 8.58274 18.065 8.32524 17.9687C8.06649 17.8712 7.93524 17.5825 8.03151 17.325ZM9.5965 16H10.404L10.0002 14.9238L9.5965 16ZM13.5002 18C13.2239 18 13.0002 17.7763 13.0002 17.5V13.5C13.0002 13.2238 13.2239 13 13.5002 13H14.7502C15.7164 13 16.5002 13.7837 16.5002 14.75C16.5002 15.7163 15.7164 16.5 14.7502 16.5H14.0002V17.5C14.0002 17.6325 13.9477 17.76 13.8539 17.8538C13.7602 17.9476 13.6327 18 13.5002 18ZM14.0002 15.5H14.7502C15.164 15.5 15.5002 15.1638 15.5002 14.75C15.5002 14.3362 15.164 14 14.7502 14H14.0002V15.5ZM18.5 17.5V13.5C18.5 13.2238 18.2763 13 18 13C17.7238 13 17.5 13.2238 17.5 13.5V17.5C17.5 17.7763 17.7238 18 18 18C18.2763 18 18.5 17.7763 18.5 17.5ZM19 29.5C19 29.6325 18.9463 29.76 18.8525 29.8538C18.7588 29.9475 18.6325 30 18.5 30H7.5C6.12 29.9988 5.00125 28.88 5 27.5V7.5C5.00125 6.12 6.12 5.00125 7.5 5H28.5C29.88 5.00125 30.9988 6.12 31 7.5V19.5C31 19.7763 30.7763 20 30.5 20C30.2238 20 30 19.7763 30 19.5V11.0002H6V27.5C6.00125 28.3275 6.67251 28.9988 7.5 29H18.5C18.6325 29 18.7588 29.0525 18.8525 29.1463C18.9463 29.24 19 29.3675 19 29.5ZM6.00001 7.49999V10H30.0001V7.49999C29.9988 6.67251 29.3275 6.00124 28.5001 5.99999H7.50002C6.67253 6.00124 6.00126 6.67251 6.00001 7.49999ZM35.0001 26.3387V27.6612C35.0013 28.0712 34.7513 28.4387 34.3713 28.59L33.1576 29.075C33.0651 29.3537 32.9526 29.6262 32.8238 29.89L33.3376 31.0887H33.3363C33.4988 31.4637 33.4151 31.9 33.1251 32.1887L32.1888 33.125C31.9001 33.4137 31.4638 33.4988 31.0888 33.3362L29.89 32.8225C29.6263 32.9525 29.3538 33.065 29.075 33.1575L28.59 34.3713C28.4388 34.7525 28.0713 35.0013 27.6613 35H26.3388C25.9288 35.0012 25.5601 34.7525 25.4101 34.3713L24.9251 33.1575C24.6463 33.065 24.3738 32.9525 24.1101 32.8225L22.9113 33.3362C22.5363 33.4987 22.1 33.4137 21.8113 33.125L20.8751 32.1887C20.5851 31.9 20.5013 31.4637 20.6638 31.0875L21.1776 29.8887L21.1763 29.89C21.0476 29.6262 20.9351 29.3537 20.8426 29.075L19.6288 28.59C19.2488 28.4387 18.9988 28.0712 19.0001 27.6612V26.3387C18.9988 25.9288 19.2488 25.5612 19.6288 25.41L20.8426 24.925C20.9351 24.6463 21.0476 24.3738 21.1776 24.11L20.6638 22.9113V22.9125C20.5013 22.5362 20.5851 22.1 20.8751 21.8113L21.8113 20.8762V20.875C22.0988 20.585 22.5363 20.5012 22.9113 20.6637L24.1101 21.1775C24.3738 21.0475 24.6463 20.935 24.9251 20.8425L25.4101 19.6287C25.5613 19.2475 25.9288 18.9987 26.3388 19H27.6626H27.6613C28.0713 18.9987 28.4401 19.2475 28.59 19.6287L29.075 20.8425C29.3538 20.935 29.6263 21.0475 29.89 21.1775L31.0888 20.6637C31.4638 20.5012 31.9013 20.585 32.1888 20.875L33.1251 21.8113C33.4151 22.1 33.4988 22.5362 33.3363 22.9125L32.8225 24.1113V24.11C32.9525 24.3738 33.0651 24.6463 33.1576 24.925L34.3713 25.41C34.7513 25.5613 35.0013 25.9288 35.0001 26.3387ZM34.0001 26.3387L32.5663 25.765C32.4238 25.7087 32.3163 25.5887 32.2725 25.4425C32.1638 25.07 32.0163 24.7112 31.8313 24.3712C31.7575 24.2362 31.75 24.075 31.81 23.9337L32.4175 22.5175L31.4825 21.5824L30.0663 22.1887C29.925 22.2499 29.765 22.2424 29.63 22.1687C29.2888 21.9837 28.93 21.8362 28.5575 21.7274C28.4112 21.6837 28.2913 21.5762 28.235 21.4337L27.6612 19.9999H26.3387L25.765 21.4337C25.7075 21.5762 25.5887 21.6837 25.4425 21.7274C25.07 21.8362 24.7112 21.9837 24.37 22.1687C24.235 22.2424 24.075 22.2499 23.9337 22.1887L22.5175 21.5824L21.5824 22.5175L22.1899 23.9337C22.2499 24.075 22.2424 24.2362 22.1687 24.3712C21.9837 24.7112 21.8362 25.07 21.7274 25.4425C21.6837 25.5887 21.5762 25.7087 21.4337 25.765L19.9999 26.3387V27.6612L21.4337 28.235C21.5762 28.2913 21.6837 28.4113 21.7274 28.5575C21.8362 28.93 21.9837 29.2888 22.1687 29.63C22.2412 29.765 22.2487 29.925 22.1887 30.0663L21.5824 31.4825L22.5175 32.4175L23.9337 31.8113C24.075 31.75 24.2362 31.7575 24.37 31.8313C24.7112 32.0163 25.07 32.1638 25.4425 32.2725C25.5887 32.3163 25.7087 32.4238 25.765 32.5663L26.3387 34.0001H27.6612L28.235 32.5663C28.2925 32.4238 28.4113 32.3163 28.5575 32.2725C28.93 32.1638 29.2888 32.0163 29.63 31.8313C29.765 31.7575 29.925 31.75 30.0663 31.8113L31.4825 32.4175L32.4175 31.4825L31.8113 30.0663C31.7513 29.925 31.7588 29.7638 31.8313 29.63C32.0163 29.2888 32.1638 28.93 32.2725 28.5575C32.3163 28.4112 32.4238 28.2913 32.5663 28.235L34.0001 27.6612L34.0001 26.3387ZM31.0001 27C31.0001 28.6175 30.025 30.0763 28.5313 30.695C27.0363 31.315 25.315 30.9725 24.1713 29.8288C23.0276 28.6851 22.6851 26.9638 23.3051 25.4688C23.9238 23.975 25.3826 23.0001 27.0001 23.0001C29.2076 23.0026 30.9975 24.7925 31.0001 27ZM30.0001 27C30.0001 25.7862 29.2688 24.6925 28.1475 24.2287C27.0275 23.7637 25.7363 24.0212 24.8787 24.8787C24.0212 25.7362 23.7637 27.0275 24.2287 28.1475C24.6925 29.2688 25.7863 30 27 30C28.6563 29.9988 29.9988 28.6563 30.0001 27ZM8.49986 21H14.4999C14.7761 21 14.9999 20.7762 14.9999 20.5C14.9999 20.2237 14.7761 20 14.4999 20H8.49986C8.22361 20 7.99986 20.2237 7.99986 20.5C7.99986 20.7762 8.22361 21 8.49986 21ZM18.4999 23.5C18.4999 23.3675 18.4474 23.24 18.3536 23.1462C18.2599 23.0525 18.1324 23 17.9999 23H8.49969C8.22344 23 7.99969 23.2237 7.99969 23.5C7.99969 23.7762 8.22344 24 8.49969 24H17.9999C18.1324 24 18.2599 23.9475 18.3536 23.8537C18.4474 23.76 18.4999 23.6325 18.4999 23.5ZM8.49986 26C8.22361 26 7.99986 26.2237 7.99986 26.5C7.99986 26.7762 8.22361 27 8.49986 27H14.4999C14.7761 27 14.9999 26.7762 14.9999 26.5C14.9999 26.2237 14.7761 26 14.4999 26H8.49986ZM20 20.4998C20 20.3673 19.9475 20.2398 19.8538 20.1461C19.76 20.0523 19.6325 19.9998 19.5 19.9998H16.5C16.2238 19.9998 16 20.2236 16 20.4998C16 20.7761 16.2238 20.9998 16.5 20.9998H19.5C19.6325 20.9998 19.76 20.9473 19.8538 20.8536C19.9475 20.7598 20 20.6323 20 20.4998Z" fill="#FD1716"/>
</svg>
