<svg width="40" height="40" viewBox="0 0 40 40" fill="none" xmlns="http://www.w3.org/2000/svg">
<path d="M34.8074 29.6138L33.4201 22.6508C33.3772 22.435 33.2522 22.2484 33.0686 22.1257C32.885 22.0029 32.6648 21.959 32.4489 22.0023L30.6639 22.3578C30.2348 22.4433 29.9504 22.8487 30.0076 23.2765C29.0032 23.5815 27.7919 23.6187 26.2978 22.3861C26.0118 22.1499 25.6941 21.9966 25.3695 21.9254V6.42553C25.3695 5.63926 24.7299 5 23.944 5H10.8185C10.432 5 10.0835 5.14435 9.81042 5.41742L5.41775 9.81008C5.14468 10.0832 5 10.4317 5 10.8182V31.2815C5 32.0678 5.63959 32.707 6.42553 32.707H20.0356L21.8928 34.5643C22.1835 34.855 22.565 35 22.9468 35C23.3287 35 23.7102 34.8547 24.0009 34.5643C24.1379 34.4273 24.2427 34.2696 24.3152 34.1016L24.7239 34.5104C25.3053 35.0915 26.2506 35.0915 26.832 34.5104C26.973 34.3694 27.0824 34.2044 27.1563 34.0248C27.4037 34.1971 27.6981 34.2902 28.0074 34.2902C28.4062 34.2902 28.7807 34.1356 29.0614 33.8549C29.3311 33.5851 29.4845 33.2289 29.4961 32.8474C29.8623 32.8361 30.2252 32.6911 30.5039 32.4124C30.8741 32.0425 31.0154 31.5004 30.8957 31.0031L31.4501 30.4487C31.512 30.5977 31.6164 30.7257 31.7541 30.8175C31.8918 30.9093 32.0498 30.9572 32.2115 30.9572C32.2654 30.9572 32.3199 30.9519 32.3741 30.9409L34.1592 30.5854C34.6055 30.4962 34.8962 30.0605 34.8074 29.6138ZM30.8485 23.2808C30.8481 23.2808 30.8478 23.2808 30.8478 23.2811L30.8485 23.2808ZM30.1896 24.2047L31.215 29.3524L30.3536 30.2139L26.2712 26.072C26.2652 26.066 26.2592 26.06 26.2529 26.0543C25.3585 25.2395 24.5317 24.8892 23.9842 25.0935C23.6999 25.1996 23.5153 25.44 23.4783 25.7537C23.478 25.7573 23.4774 25.761 23.477 25.765C23.4687 25.8548 23.4607 25.9446 23.4527 26.0334C23.346 27.2477 23.2362 27.9685 22.3272 28.3523L21.7116 25.5312C21.6653 25.32 21.7977 25.1573 21.9168 25.0579L24.3102 23.0593C24.71 22.7257 25.2544 22.7463 25.6978 23.1122C27.4902 24.5902 29.0049 24.547 30.1896 24.2047ZM9.95244 6.60647V9.55997C9.95244 9.77616 9.77682 9.95177 9.56063 9.95177H6.60713L9.95244 6.60647ZM6.42586 31.7661C6.15878 31.7661 5.94126 31.5489 5.94126 31.2815V10.893H9.5603C10.2954 10.893 10.8934 10.295 10.8934 9.55997V5.94093H23.9433C24.2104 5.94093 24.4279 6.15812 24.4279 6.42553V21.952C24.1718 22.0252 23.9274 22.1529 23.7075 22.3365L23.0287 22.9033H19.2736C19.1818 22.6332 18.953 22.4173 18.6536 22.3578L16.8686 22.0023C16.4222 21.9135 15.9862 22.2042 15.8974 22.6508L15.7018 23.6327H8.00206C7.7423 23.6327 7.53143 23.8435 7.53143 24.1033C7.53143 24.3631 7.74197 24.5739 8.00206 24.5739H15.5145L14.6661 28.8339C14.4569 28.9686 14.2736 29.0335 14.0996 29.0335C13.7657 29.0335 13.6616 28.8672 13.482 28.0456C13.3297 27.3498 13.0995 26.2981 11.9178 26.2981C11.053 26.2981 10.5993 26.7521 10.1989 27.1529C9.72394 27.6282 9.27559 28.0769 8.00239 28.0769C7.74263 28.0769 7.53176 28.2878 7.53176 28.5475C7.53176 28.8073 7.7423 29.0182 8.00239 29.0182C9.6654 29.0182 10.3585 28.3247 10.8644 27.8181C11.2552 27.4273 11.4631 27.2391 11.9178 27.2391C12.271 27.2391 12.3794 27.4084 12.5627 28.2465C12.7134 28.9347 12.9409 29.9744 14.1 29.9744C14.238 29.9744 14.3737 29.9578 14.5091 29.9248C14.5689 30.2475 14.8184 30.5175 15.1593 30.5854L16.9444 30.9409C16.9986 30.9516 17.0528 30.9569 17.107 30.9569C17.2687 30.9569 17.4267 30.9093 17.5644 30.8172C17.6828 30.738 17.7762 30.6323 17.8398 30.5095L19.096 31.7658L6.42586 31.7661ZM17.0142 29.9953L15.4553 29.6847L16.5479 24.1998C16.5483 24.1981 16.5486 24.1968 16.5489 24.1951L16.7974 22.9475L18.3563 23.2582L17.0142 29.9953ZM29.838 31.7468C29.6238 31.961 29.2753 31.961 29.0611 31.7468L26.0241 28.7098C25.8402 28.5262 25.5425 28.5262 25.3585 28.7098C25.1746 28.8938 25.1746 29.1914 25.3585 29.3754L28.3955 32.4124C28.3959 32.4127 28.3962 32.413 28.3965 32.4134C28.499 32.5161 28.5552 32.6538 28.5552 32.8008C28.5552 32.9485 28.4986 33.0862 28.3955 33.1893C28.2924 33.2924 28.1547 33.349 28.007 33.349C27.8597 33.349 27.7217 33.2924 27.6186 33.1893L24.4096 29.9804C24.226 29.7964 23.928 29.7964 23.7441 29.9804C23.5602 30.1643 23.5602 30.462 23.7441 30.6459L26.1658 33.0676C26.1661 33.0679 26.1661 33.0679 26.1664 33.0682L26.1678 33.0696C26.2699 33.1724 26.3261 33.3097 26.3261 33.4567C26.3261 33.6044 26.2692 33.7421 26.1664 33.8452C25.9522 34.0594 25.6037 34.0594 25.3895 33.8452L22.7952 31.2509C22.6113 31.0673 22.3136 31.0673 22.1296 31.2509C21.9457 31.4348 21.9457 31.7325 22.1296 31.9165L23.3353 33.1221C23.5495 33.3363 23.5492 33.6849 23.335 33.8988C23.1208 34.113 22.7722 34.113 22.558 33.8988L18.0872 29.4273L19.1994 23.8445H21.9018L21.3141 24.3351C20.8698 24.706 20.6798 25.2152 20.7926 25.7317L21.5187 29.0591C21.5456 29.1831 21.6218 29.2909 21.7295 29.3581C21.8373 29.4253 21.9677 29.4459 22.0911 29.4156C24.1449 28.9094 24.2756 27.4253 24.3907 26.1159C24.3943 26.0726 24.3983 26.0294 24.4023 25.9858C24.5882 26.0237 25.003 26.1907 25.6103 26.7418L29.9591 31.1538C30.0386 31.3554 29.9927 31.5922 29.838 31.7468ZM32.3029 29.9953L30.9609 23.2582L32.5198 22.9475L33.8618 29.6847L32.3029 29.9953ZM7.5311 20.9988C7.5311 20.739 7.74163 20.5282 8.00173 20.5282H20.435C20.6948 20.5282 20.9057 20.7387 20.9057 20.9988C20.9057 21.2589 20.6951 21.4694 20.435 21.4694H8.00173C7.74163 21.4694 7.5311 21.2586 7.5311 20.9988ZM7.5311 14.7901C7.5311 14.5304 7.74163 14.3195 8.00173 14.3195H9.91319C10.173 14.3195 10.3838 14.53 10.3838 14.7901C10.3838 15.0499 10.1733 15.2608 9.91319 15.2608H8.00173C7.74163 15.2608 7.5311 15.0499 7.5311 14.7901ZM7.5311 17.8943C7.5311 17.6345 7.74163 17.4237 8.00173 17.4237H9.91319C10.173 17.4237 10.3838 17.6342 10.3838 17.8943C10.3838 18.1544 10.1733 18.3649 9.91319 18.3649H8.00173C7.74163 18.3649 7.5311 18.1544 7.5311 17.8943ZM17.2148 19.2706C20.5894 19.2706 23.3347 16.5253 23.3347 13.1504C23.3347 9.77583 20.5894 7.03053 17.2148 7.03053C13.8402 7.03053 11.0949 9.77583 11.0949 13.1504C11.0946 16.5253 13.8399 19.2706 17.2148 19.2706ZM17.2148 7.9718C20.0705 7.9718 22.3937 10.295 22.3937 13.1507C22.3937 16.0065 20.0705 18.3297 17.2148 18.3297C14.3591 18.3297 12.0359 16.0065 12.0359 13.1507C12.0359 10.295 14.3591 7.9718 17.2148 7.9718ZM17.2148 17.5644C19.6484 17.5644 21.6284 15.5844 21.6284 13.1504C21.6284 10.7168 19.6484 8.73678 17.2148 8.73678C14.7811 8.73678 12.8012 10.7168 12.8012 13.1504C12.8008 15.5844 14.7808 17.5644 17.2148 17.5644ZM17.2148 9.67804C19.1296 9.67804 20.6875 11.2359 20.6875 13.1507C20.6875 15.0655 19.1296 16.6234 17.2148 16.6234C15.3 16.6234 13.7421 15.0655 13.7421 13.1507C13.7421 11.2359 15.3 9.67804 17.2148 9.67804ZM15.8312 12.3295C15.8312 11.7492 16.216 11.2569 16.7442 11.0946V10.8069C16.7442 10.5471 16.9547 10.3363 17.2148 10.3363C17.4749 10.3363 17.6854 10.5468 17.6854 10.8069V11.0746C17.9808 11.1468 18.2465 11.3228 18.4285 11.5745C18.5808 11.7851 18.5336 12.0794 18.323 12.2318C18.1125 12.3841 17.8181 12.3369 17.6658 12.1263C17.5993 12.0342 17.4928 11.9793 17.3814 11.9793H17.123C16.9298 11.9793 16.7724 12.1366 16.7724 12.3299C16.7724 12.5231 16.9298 12.6804 17.123 12.6804H17.3066C18.0187 12.6804 18.5981 13.2598 18.5981 13.9723C18.5981 14.5527 18.2133 15.0449 17.6851 15.2072V15.4949C17.6851 15.7547 17.4746 15.9655 17.2145 15.9655C16.9544 15.9655 16.7438 15.755 16.7438 15.4949V15.2272C16.4485 15.155 16.1827 14.979 16.0008 14.7273C15.8485 14.5167 15.8957 14.2224 16.1062 14.07C16.3168 13.9177 16.6111 13.9649 16.7635 14.1755C16.83 14.2676 16.9364 14.3225 17.0478 14.3225H17.3063C17.4995 14.3225 17.6568 14.1652 17.6568 13.9719C17.6568 13.7787 17.4995 13.6214 17.3063 13.6214H17.1227C16.4106 13.6214 15.8312 13.0416 15.8312 12.3295Z" fill="#FD1716"/>
</svg>
