<svg width="50" height="50" viewBox="0 0 50 50" fill="none" xmlns="http://www.w3.org/2000/svg">
<path d="M24.5 5C20.4455 5 16.482 6.2023 13.1108 8.45487C9.73961 10.7074 7.11207 13.9091 5.56048 17.655C4.00888 21.4009 3.60291 25.5227 4.39391 29.4993C5.18491 33.476 7.13734 37.1287 10.0043 39.9957C12.8713 42.8627 16.524 44.8151 20.5007 45.6061C24.4773 46.3971 28.5991 45.9911 32.345 44.4395C36.0909 42.8879 39.2926 40.2604 41.5451 36.8892C43.7977 33.518 45 29.5545 45 25.5C44.9938 20.065 42.832 14.8543 38.9889 11.0111C35.1457 7.16798 29.935 5.00618 24.5 5ZM24.5 44.8612C20.6707 44.8612 16.9274 43.7257 13.7435 41.5983C10.5595 39.4708 8.07795 36.447 6.61254 32.9092C5.14713 29.3714 4.76371 25.4785 5.51077 21.7228C6.25783 17.9671 8.10181 14.5172 10.8095 11.8095C13.5173 9.1018 16.9671 7.25782 20.7228 6.51076C24.4785 5.7637 28.3714 6.14712 31.9092 7.61253C35.447 9.07794 38.4709 11.5595 40.5983 14.7435C42.7257 17.9274 43.8613 21.6707 43.8613 25.5C43.8554 30.6331 41.8137 35.5543 38.184 39.184C34.5544 42.8137 29.6331 44.8554 24.5 44.8612ZM24.5 7.4406C20.9282 7.4406 17.4366 8.49977 14.4667 10.4842C11.4969 12.4685 9.18217 15.289 7.8153 18.589C6.44843 21.8889 6.09079 25.52 6.78762 29.0232C7.48444 32.5264 9.20443 35.7443 11.7301 38.2699C14.2557 40.7956 17.4736 42.5156 20.9768 43.2124C24.48 43.9092 28.1111 43.5516 31.411 42.1847C34.711 40.8178 37.5314 38.5031 39.5158 35.5333C41.5002 32.5634 42.5594 29.0718 42.5594 25.5C42.554 20.712 40.6496 16.1216 37.264 12.736C33.8784 9.35037 29.288 7.44597 24.5 7.4406ZM24.5 42.4206C21.1534 42.4206 17.882 41.4283 15.0994 39.569C12.3168 37.7097 10.148 35.0671 8.86736 31.9752C7.58668 28.8834 7.25159 25.4812 7.90448 22.1989C8.55737 18.9167 10.1689 15.9017 12.5353 13.5353C14.9017 11.1689 17.9167 9.55736 21.1989 8.90447C24.4812 8.25158 27.8834 8.58667 30.9753 9.86735C34.0671 11.148 36.7097 13.3168 38.569 16.0994C40.4283 18.882 41.4207 22.1534 41.4207 25.5C41.4155 29.9861 39.6312 34.2869 36.459 37.459C33.2869 40.6312 28.9861 42.4155 24.5 42.4206ZM24.5 11.7244C23.9701 11.725 23.4461 11.8355 22.961 12.0488C22.476 12.2622 22.0405 12.5739 21.682 12.9641C21.3668 13.2977 21.1252 13.6937 20.9728 14.1266C20.8205 14.5595 20.7608 15.0196 20.7977 15.477L22.2895 32.6344C22.3205 33.0151 22.4942 33.3701 22.7757 33.6283C23.0572 33.8864 23.4259 34.0287 23.8079 34.0267H25.1922C25.5741 34.0287 25.9428 33.8864 26.2243 33.6283C26.5058 33.3701 26.6795 33.0151 26.7105 32.6344L28.2032 15.4779C28.2401 15.0205 28.1804 14.5604 28.028 14.1275C27.8757 13.6946 27.6341 13.2986 27.3189 12.965C26.9604 12.5745 26.5248 12.2626 26.0396 12.0491C25.5543 11.8355 25.0301 11.725 24.5 11.7244ZM27.0676 15.3792L25.5761 32.537C25.5685 32.6334 25.5246 32.7233 25.4534 32.7887C25.3822 32.8542 25.2889 32.8902 25.1922 32.8897H23.8079C23.7112 32.8902 23.6178 32.8542 23.5466 32.7887C23.4754 32.7233 23.4315 32.6334 23.4239 32.537L21.9324 15.3792C21.9098 15.079 21.9505 14.7773 22.052 14.4939C22.1535 14.2105 22.3134 13.9515 22.5214 13.7339C22.7728 13.4595 23.0785 13.2404 23.4192 13.0905C23.7598 12.9406 24.1279 12.8632 24.5 12.8632C24.8721 12.8632 25.2402 12.9406 25.5808 13.0905C25.9215 13.2404 26.2272 13.4595 26.4786 13.7339C26.6866 13.9515 26.8465 14.2105 26.948 14.4939C27.0495 14.7773 27.0902 15.079 27.0676 15.3792ZM25.1657 34.7025H23.8343C23.4046 34.703 22.9926 34.8739 22.6887 35.1777C22.3848 35.4815 22.2138 35.8934 22.2133 36.3231V37.6549C22.2138 38.0847 22.3848 38.4966 22.6887 38.8004C22.9926 39.1042 23.4046 39.2751 23.8343 39.2756H25.1657C25.5954 39.2751 26.0074 39.1042 26.3113 38.8004C26.6152 38.4966 26.7862 38.0847 26.7867 37.6549V36.3231C26.7862 35.8934 26.6152 35.4815 26.3113 35.1777C26.0074 34.8739 25.5954 34.703 25.1657 34.7025ZM25.648 37.6563C25.6472 37.7839 25.5961 37.9061 25.5058 37.9963C25.4155 38.0865 25.2933 38.1374 25.1657 38.1381H23.8343C23.7068 38.137 23.5848 38.0856 23.4949 37.9952C23.4049 37.9047 23.3542 37.7825 23.3538 37.6549V36.3231C23.3546 36.1955 23.4057 36.0733 23.496 35.9831C23.5862 35.8929 23.7084 35.8419 23.8361 35.8412H25.1675C25.2945 35.8429 25.4158 35.8942 25.5053 35.9844C25.5948 36.0745 25.6454 36.1961 25.6462 36.3231L25.648 37.6563Z" fill="black"/>
</svg>
