<svg width="40" height="41" viewBox="0 0 40 41" fill="none" xmlns="http://www.w3.org/2000/svg">
<g clip-path="url(#clip0_7296_17890)">
<g clip-path="url(#clip1_7296_17890)">
<path d="M9.28786 3.55471H26.819C28.2641 3.55471 29.5774 4.14546 30.5292 5.09726C31.481 6.049 32.0717 7.36234 32.0717 8.80739V24.8806V25.4341H31.5183H9.28783H8.73438V24.8806V4.10814V3.55469L9.28786 3.55471ZM26.819 4.66163H9.84131V24.3272H30.9648V8.80742C30.9648 7.66791 30.4983 6.63157 29.7466 5.87991C28.9949 5.12822 27.9586 4.66163 26.819 4.66163Z" fill="url(#paint0_linear_7296_17890)"/>
<path d="M35.06 35.0104H5.74486H5.19141V34.4569V24.8816V24.3281H5.74486H35.06H35.6135V24.8816V34.4569V35.0104H35.06ZM6.29832 33.9035H34.5066V25.435H6.29832V33.9035Z" fill="url(#paint1_linear_7296_17890)"/>
<path d="M12.6445 10.2812H28.1625V11.3882H12.6445V10.2812Z" fill="url(#paint2_linear_7296_17890)"/>
<path d="M12.6445 14.1719H28.1625V15.2788H12.6445V14.1719Z" fill="url(#paint3_linear_7296_17890)"/>
<path d="M12.6445 18.0625H28.1625V19.1694H12.6445V18.0625Z" fill="url(#paint4_linear_7296_17890)"/>
<path d="M16.4414 26.7969H18.2201V32.5409H16.4414V26.7969ZM19.4866 26.7969H22.4369C23.0788 26.7969 23.5603 26.9494 23.8799 27.2556C24.1995 27.5605 24.36 27.9965 24.36 28.5595C24.36 29.14 24.1862 29.5933 23.8371 29.9197C23.4881 30.246 22.9558 30.4092 22.2403 30.4092H21.2694V32.5409H19.4866V26.7969ZM21.2694 29.2456H21.704C22.0464 29.2456 22.2858 29.1868 22.4248 29.0678C22.5626 28.9487 22.6321 28.7963 22.6321 28.6117C22.6321 28.4312 22.572 28.2774 22.4516 28.153C22.3325 28.0273 22.1065 27.9644 21.7749 27.9644H21.2694V29.2456Z" fill="url(#paint5_linear_7296_17890)"/>
</g>
</g>
<defs>
<linearGradient id="paint0_linear_7296_17890" x1="26.9167" y1="3.55469" x2="26.8227" y2="30.1228" gradientUnits="userSpaceOnUse">
<stop stop-color="#005CAA"/>
<stop offset="1" stop-color="#64B0F1"/>
</linearGradient>
<linearGradient id="paint1_linear_7296_17890" x1="28.8935" y1="24.3281" x2="28.8763" y2="37.2997" gradientUnits="userSpaceOnUse">
<stop stop-color="#005CAA"/>
<stop offset="1" stop-color="#64B0F1"/>
</linearGradient>
<linearGradient id="paint2_linear_7296_17890" x1="24.7347" y1="10.2812" x2="24.7343" y2="11.6254" gradientUnits="userSpaceOnUse">
<stop stop-color="#005CAA"/>
<stop offset="1" stop-color="#64B0F1"/>
</linearGradient>
<linearGradient id="paint3_linear_7296_17890" x1="24.7347" y1="14.1719" x2="24.7343" y2="15.516" gradientUnits="userSpaceOnUse">
<stop stop-color="#005CAA"/>
<stop offset="1" stop-color="#64B0F1"/>
</linearGradient>
<linearGradient id="paint4_linear_7296_17890" x1="24.7347" y1="18.0625" x2="24.7343" y2="19.4066" gradientUnits="userSpaceOnUse">
<stop stop-color="#005CAA"/>
<stop offset="1" stop-color="#64B0F1"/>
</linearGradient>
<linearGradient id="paint5_linear_7296_17890" x1="22.6109" y1="26.7969" x2="22.5918" y2="33.7719" gradientUnits="userSpaceOnUse">
<stop stop-color="#005CAA"/>
<stop offset="1" stop-color="#64B0F1"/>
</linearGradient>
<clipPath id="clip0_7296_17890">
<rect width="39.7513" height="40.3589" fill="white" transform="translate(0.09375 -0.0078125)"/>
</clipPath>
<clipPath id="clip1_7296_17890">
<rect width="39.7513" height="40.3589" fill="white"/>
</clipPath>
</defs>
</svg>
