<svg width="41" height="41" viewBox="0 0 41 41" fill="none" xmlns="http://www.w3.org/2000/svg">
<g clip-path="url(#clip0_7296_17873)">
<path d="M26.0125 24.1018H7.71643C7.23596 24.1007 6.77555 23.909 6.43619 23.5689C6.09683 23.2288 5.90625 22.7679 5.90625 22.2874V8.81026C5.90625 8.33017 6.09697 7.86974 6.43644 7.53027C6.77592 7.19079 7.23634 7.00008 7.71643 7.00008H30.3024C30.5415 6.99789 30.7787 7.0431 31.0002 7.13309C31.2217 7.22309 31.4232 7.35608 31.5931 7.52439C31.7629 7.69269 31.8978 7.89299 31.9898 8.11369C32.0818 8.3344 32.1291 8.57115 32.1291 8.81026V15.8857C32.1291 15.9843 32.0899 16.0789 32.0202 16.1487C31.9504 16.2184 31.8558 16.2576 31.7572 16.2576C31.6585 16.2576 31.5639 16.2184 31.4941 16.1487C31.4244 16.0789 31.3852 15.9843 31.3852 15.8857V8.81026C31.3841 8.5278 31.2714 8.25722 31.0717 8.05749C30.872 7.85776 30.6014 7.74508 30.3189 7.74399H7.71643C7.43398 7.74508 7.1634 7.85776 6.96367 8.05749C6.76394 8.25722 6.65125 8.5278 6.65016 8.81026V22.2874C6.65016 22.5706 6.76237 22.8423 6.96221 23.0429C7.16206 23.2435 7.43326 23.3568 7.71643 23.3579H26.0125C26.1112 23.3579 26.2058 23.397 26.2755 23.4668C26.3453 23.5366 26.3845 23.6312 26.3845 23.7298C26.3845 23.8285 26.3453 23.9231 26.2755 23.9928C26.2058 24.0626 26.1112 24.1018 26.0125 24.1018Z" fill="url(#paint0_linear_7296_17873)"/>
<path d="M26.043 30.2949H1.37819C1.308 30.2959 1.23905 30.2764 1.17965 30.239C1.12024 30.2016 1.07294 30.1478 1.04343 30.0842C1.00897 30.0188 0.994517 29.9448 1.00187 29.8713C1.00922 29.7978 1.03805 29.7281 1.08476 29.6709L5.50276 24.1205C5.56414 24.0421 5.65414 23.9913 5.75296 23.9793C5.85178 23.9673 5.95133 23.995 6.0297 24.0564C6.10807 24.1178 6.15885 24.2078 6.17086 24.3066C6.18287 24.4054 6.15514 24.505 6.09376 24.5833L2.15516 29.5428H26.043C26.1416 29.5428 26.2362 29.5819 26.306 29.6517C26.3757 29.7215 26.4149 29.8161 26.4149 29.9147C26.4149 30.0134 26.3757 30.108 26.306 30.1777C26.2362 30.2475 26.1416 30.2867 26.043 30.2867V30.2949Z" fill="url(#paint1_linear_7296_17873)"/>
<path d="M32.1614 31.8149C32.6065 31.8149 32.9673 31.4541 32.9673 31.009C32.9673 30.5639 32.6065 30.2031 32.1614 30.2031C31.7163 30.2031 31.3555 30.5639 31.3555 31.009C31.3555 31.4541 31.7163 31.8149 32.1614 31.8149Z" fill="url(#paint2_linear_7296_17873)"/>
<path d="M36.2202 27.7597C38.1626 27.7597 39.7372 26.1888 39.7372 24.251C39.7372 22.3131 38.1626 20.7422 36.2202 20.7422C34.2778 20.7422 32.7031 22.3131 32.7031 24.251C32.7031 26.1888 34.2778 27.7597 36.2202 27.7597Z" fill="url(#paint3_linear_7296_17873)"/>
<path d="M35.4636 25.8399C35.4144 25.8398 35.3656 25.8298 35.3202 25.8107C35.2748 25.7915 35.2336 25.7635 35.1991 25.7283L33.9593 24.4885C33.8971 24.4175 33.8643 24.3255 33.8674 24.2311C33.8705 24.1368 33.9094 24.0472 33.9761 23.9804C34.0429 23.9137 34.1325 23.8748 34.2268 23.8717C34.3212 23.8686 34.4132 23.9014 34.4842 23.9636L35.4636 24.9555L37.6623 22.7568C37.732 22.6874 37.8264 22.6484 37.9248 22.6484C38.0231 22.6484 38.1175 22.6874 38.1872 22.7568C38.2568 22.8272 38.2959 22.9223 38.2959 23.0213C38.2959 23.1204 38.2568 23.2154 38.1872 23.2858L35.7075 25.7448C35.6413 25.8064 35.5541 25.8404 35.4636 25.8399Z" fill="white"/>
<path d="M19.0086 21.1184C17.9213 21.1192 16.8582 20.7975 15.9537 20.194C15.0492 19.5905 14.3441 18.7323 13.9274 17.728C13.5107 16.7237 13.4013 15.6184 13.6129 14.5519C13.8246 13.4853 14.3477 12.5055 15.1163 11.7364C15.8849 10.9673 16.8643 10.4433 17.9306 10.2309C18.997 10.0185 20.1024 10.1271 21.107 10.543C22.1116 10.9589 22.9704 11.6634 23.5745 12.5675C24.1787 13.4715 24.5012 14.5344 24.5012 15.6217C24.5001 17.0784 23.9212 18.4753 22.8915 19.5057C21.8618 20.5362 20.4654 21.1162 19.0086 21.1184ZM19.0086 10.873C18.0683 10.8722 17.1488 11.1504 16.3666 11.6723C15.5844 12.1942 14.9745 12.9365 14.6143 13.8051C14.2541 14.6737 14.1596 15.6297 14.3428 16.552C14.5261 17.4743 14.9788 18.3216 15.6438 18.9865C16.3087 19.6515 17.156 20.1042 18.0783 20.2874C19.0006 20.4707 19.9566 20.3762 20.8252 20.016C21.6938 19.6558 22.4361 19.0459 22.958 18.2637C23.4799 17.4815 23.7581 16.562 23.7573 15.6217C23.7551 14.3629 23.2541 13.1564 22.364 12.2663C21.4739 11.3762 20.2674 10.8752 19.0086 10.873Z" fill="url(#paint4_linear_7296_17873)"/>
<path d="M17.912 17.78C17.8133 17.7795 17.7186 17.741 17.6475 17.6726L15.858 15.8707C15.8226 15.8367 15.7945 15.796 15.7752 15.7509C15.756 15.7058 15.7461 15.6573 15.7461 15.6082C15.7461 15.5592 15.756 15.5107 15.7752 15.4656C15.7945 15.4205 15.8226 15.3797 15.858 15.3458C15.9277 15.2764 16.0221 15.2374 16.1204 15.2374C16.2188 15.2374 16.3132 15.2764 16.3829 15.3458L17.912 16.8749L21.2183 13.5687C21.2893 13.5065 21.3813 13.4736 21.4756 13.4768C21.57 13.4799 21.6596 13.5188 21.7263 13.5855C21.7931 13.6522 21.8319 13.7419 21.8351 13.8362C21.8382 13.9305 21.8053 14.0225 21.7432 14.0935L18.16 17.6808C18.0918 17.7425 18.0039 17.7777 17.912 17.78Z" fill="url(#paint5_linear_7296_17873)"/>
<path d="M37.157 20.4578V18.8997C37.157 18.3834 36.952 17.8883 36.5869 17.5233C36.2219 17.1582 35.7267 16.9531 35.2105 16.9531H29.1063C28.5918 16.9564 28.0994 17.1628 27.7364 17.5274C27.3733 17.892 27.169 18.3852 27.168 18.8997V31.042C27.1691 31.5586 27.3751 32.0537 27.7408 32.4187C28.1065 32.7836 28.602 32.9885 29.1187 32.9885H35.2105C35.7267 32.9885 36.2219 32.7835 36.5869 32.4184C36.952 32.0533 37.157 31.5582 37.157 31.042V28.0002C37.9997 27.7918 38.7483 27.3071 39.2833 26.6236C39.8184 25.9401 40.1091 25.097 40.1091 24.229C40.1091 23.3609 39.8184 22.5179 39.2833 21.8344C38.7483 21.1508 37.9997 20.6662 37.157 20.4578ZM36.4131 31.042C36.4131 31.3609 36.2864 31.6668 36.0609 31.8924C35.8353 32.1179 35.5294 32.2446 35.2105 32.2446H29.1063C28.948 32.2452 28.7912 32.2145 28.6448 32.1543C28.4984 32.0941 28.3653 32.0056 28.2532 31.8938C28.1411 31.7821 28.0521 31.6493 27.9914 31.5032C27.9307 31.357 27.8995 31.2003 27.8995 31.042V18.8997C27.8995 18.7414 27.9307 18.5847 27.9914 18.4385C28.0521 18.2923 28.1411 18.1596 28.2532 18.0478C28.3653 17.9361 28.4984 17.8476 28.6448 17.7874C28.7912 17.7272 28.948 17.6965 29.1063 17.697H35.2105C35.5294 17.697 35.8353 17.8237 36.0609 18.0493C36.2864 18.2748 36.4131 18.5807 36.4131 18.8997V20.3503C36.347 20.3503 36.285 20.3503 36.2189 20.3503C35.9957 20.3521 35.7731 20.3729 35.5535 20.4123V19.5031C35.5524 19.2283 35.4428 18.9651 35.2485 18.7708C35.0542 18.5765 34.7909 18.4668 34.5162 18.4657H29.8006C29.5251 18.4657 29.2608 18.5749 29.0656 18.7693C28.8704 18.9637 28.7602 19.2276 28.7591 19.5031V28.7358C28.7602 29.0113 28.8704 29.2752 29.0656 29.4696C29.2608 29.664 29.5251 29.7732 29.8006 29.7732H34.5162C34.7909 29.7721 35.0542 29.6625 35.2485 29.4682C35.4428 29.2739 35.5524 29.0106 35.5535 28.7358V28.0622C35.7733 28.1003 35.9959 28.1196 36.2189 28.1201H36.4131V31.042ZM34.8096 19.5031V20.6066C34.0776 20.8889 33.4483 21.3864 33.0044 22.0333C32.5606 22.6803 32.323 23.4465 32.323 24.2311C32.323 25.0156 32.5606 25.7818 33.0044 26.4288C33.4483 27.0757 34.0776 27.5732 34.8096 27.8556V28.7358C34.8096 28.8137 34.7787 28.8883 34.7236 28.9433C34.6686 28.9984 34.594 29.0293 34.5162 29.0293H29.8006C29.7617 29.0298 29.7231 29.0226 29.687 29.0081C29.6509 28.9936 29.6181 28.9721 29.5904 28.9448C29.5627 28.9175 29.5408 28.885 29.5257 28.8491C29.5107 28.8132 29.503 28.7747 29.503 28.7358V19.5031C29.503 19.4642 29.5107 19.4257 29.5257 19.3898C29.5408 19.354 29.5627 19.3214 29.5904 19.2941C29.6181 19.2668 29.6509 19.2453 29.687 19.2308C29.7231 19.2163 29.7617 19.2091 29.8006 19.2097H34.5162C34.594 19.2097 34.6686 19.2406 34.7236 19.2956C34.7787 19.3506 34.8096 19.4253 34.8096 19.5031ZM36.2189 27.3761C35.5957 27.377 34.9862 27.1929 34.4677 26.8471C33.9492 26.5014 33.5449 26.0096 33.306 25.434C33.0672 24.8584 33.0045 24.2248 33.1258 23.6136C33.2472 23.0023 33.5472 22.4408 33.9879 22.0001C34.4286 21.5594 34.9901 21.2594 35.6014 21.138C36.2127 21.0166 36.8462 21.0793 37.4218 21.3182C37.9974 21.5571 38.4892 21.9614 38.835 22.4799C39.1807 22.9984 39.3648 23.6078 39.364 24.2311C39.3629 25.0648 39.0312 25.8642 38.4416 26.4538C37.852 27.0433 37.0527 27.375 36.2189 27.3761Z" fill="url(#paint6_linear_7296_17873)"/>
</g>
<defs>
<linearGradient id="paint0_linear_7296_17873" x1="26.3367" y1="7" x2="26.2856" y2="27.7667" gradientUnits="userSpaceOnUse">
<stop stop-color="#005CAA"/>
<stop offset="1" stop-color="#64B0F1"/>
</linearGradient>
<linearGradient id="paint1_linear_7296_17873" x1="20.801" y1="23.9766" x2="20.7938" y2="31.6491" gradientUnits="userSpaceOnUse">
<stop stop-color="#005CAA"/>
<stop offset="1" stop-color="#64B0F1"/>
</linearGradient>
<linearGradient id="paint2_linear_7296_17873" x1="32.6112" y1="30.2031" x2="32.6039" y2="32.1603" gradientUnits="userSpaceOnUse">
<stop stop-color="#005CAA"/>
<stop offset="1" stop-color="#64B0F1"/>
</linearGradient>
<linearGradient id="paint3_linear_7296_17873" x1="38.1835" y1="20.7422" x2="38.1514" y2="29.2636" gradientUnits="userSpaceOnUse">
<stop stop-color="#005CAA"/>
<stop offset="1" stop-color="#64B0F1"/>
</linearGradient>
<linearGradient id="paint4_linear_7296_17873" x1="22.0728" y1="10.125" x2="22.0225" y2="23.4742" gradientUnits="userSpaceOnUse">
<stop stop-color="#005CAA"/>
<stop offset="1" stop-color="#64B0F1"/>
</linearGradient>
<linearGradient id="paint5_linear_7296_17873" x1="20.4902" y1="13.4766" x2="20.4763" y2="18.7023" gradientUnits="userSpaceOnUse">
<stop stop-color="#005CAA"/>
<stop offset="1" stop-color="#64B0F1"/>
</linearGradient>
<linearGradient id="paint6_linear_7296_17873" x1="37.2505" y1="16.9531" x2="37.1595" y2="36.4247" gradientUnits="userSpaceOnUse">
<stop stop-color="#005CAA"/>
<stop offset="1" stop-color="#64B0F1"/>
</linearGradient>
<clipPath id="clip0_7296_17873">
<rect width="39.7513" height="40.3589" fill="white" transform="translate(0.796875 -0.0078125)"/>
</clipPath>
</defs>
</svg>
