<svg width="41" height="41" viewBox="0 0 41 41" fill="none" xmlns="http://www.w3.org/2000/svg">
<g clip-path="url(#clip0_7296_17945)">
<path fill-rule="evenodd" clip-rule="evenodd" d="M15.1216 19.2759H12.2192V28.9628H15.1216V19.2759ZM26.289 23.0479C26.1654 22.8372 26.2384 22.5677 26.4515 22.446C26.6653 22.3242 26.9386 22.3961 27.0621 22.6062L28.2166 24.5774L31.4282 22.7495C31.6419 22.6277 31.9152 22.6996 32.0387 22.9097C32.1622 23.1205 32.0893 23.3899 31.8762 23.5117L28.2774 25.5605C28.0637 25.6823 27.7904 25.6104 27.6669 25.4003L26.289 23.0479ZM28.5014 19.038V19.5674C28.5014 19.8116 28.3011 20.0091 28.0534 20.0091C27.8058 20.0091 27.6054 19.8116 27.6054 19.5674V19.038C26.792 19.0948 26.0221 19.3049 25.3245 19.64L25.5939 20.1C25.7168 20.3107 25.6432 20.5795 25.4294 20.7007C25.2157 20.8218 24.943 20.7492 24.8202 20.5385L24.552 20.081C24.223 20.3006 23.9171 20.5505 23.6374 20.8262C23.3578 21.102 23.1043 21.4036 22.8816 21.7273L23.3469 21.9923C23.5606 22.1141 23.6336 22.3841 23.5094 22.5942C23.3859 22.805 23.112 22.8769 22.8989 22.7545L22.4342 22.4901C22.095 23.1779 21.8819 23.9376 21.8243 24.7396H22.3613C22.6077 24.7396 22.8074 24.9365 22.8074 25.1794C22.8074 25.4223 22.6077 25.6192 22.3613 25.6192H21.8243C21.8819 26.4218 22.095 27.1815 22.4349 27.8699L22.9014 27.6043C23.1152 27.4831 23.3878 27.5557 23.5107 27.7665C23.6336 27.9772 23.56 28.246 23.3462 28.3672L22.8822 28.6315C23.105 28.9559 23.3584 29.2575 23.6381 29.5332C23.9178 29.809 24.2237 30.0588 24.552 30.2784L24.8208 29.8197C24.9443 29.6089 25.2182 29.537 25.4314 29.6594C25.6451 29.7812 25.7181 30.0513 25.5939 30.2614L25.3258 30.7195C26.0234 31.0539 26.7939 31.264 27.6074 31.3208V30.7914C27.6074 30.5485 27.807 30.3516 28.0534 30.3516C28.2998 30.3516 28.4995 30.5485 28.4995 30.7914V31.3208C29.3136 31.264 30.0842 31.0539 30.7824 30.7189L30.513 30.2589C30.3901 30.0481 30.4637 29.7793 30.6774 29.6582C30.8912 29.537 31.1638 29.6096 31.2867 29.8203L31.5549 30.2778C31.8838 30.0582 32.1898 29.8083 32.4694 29.5326C32.7491 29.2569 33.0026 28.9552 33.2253 28.6315L32.76 28.3665C32.5462 28.2448 32.4733 27.9747 32.5974 27.7646C32.721 27.5538 32.9949 27.4819 33.208 27.6043L33.6726 27.8687C34.0118 27.1809 34.225 26.4212 34.2826 25.6192H33.7456C33.4992 25.6192 33.2995 25.4223 33.2995 25.1794C33.2995 24.9365 33.4992 24.7396 33.7456 24.7396H34.2826C34.225 23.9376 34.0118 23.1779 33.6726 22.4901L33.208 22.7545C32.9942 22.8763 32.721 22.8044 32.5974 22.5942C32.4739 22.3835 32.5469 22.1141 32.76 21.9923L33.2253 21.7273C33.0026 21.4036 32.7491 21.102 32.4694 20.8262C32.1898 20.5505 31.8838 20.3006 31.5555 20.081L31.2867 20.5398C31.1632 20.7505 30.8893 20.8224 30.6762 20.7C30.4624 20.5782 30.3894 20.3082 30.5136 20.0981L30.7818 19.64C30.0842 19.3049 29.3142 19.0948 28.5014 19.038ZM28.0534 18.1388C26.0816 18.1388 24.296 18.9269 23.0038 20.2009C21.7117 21.4749 20.9123 23.2353 20.9123 25.1794C20.9123 27.1235 21.7117 28.8839 23.0038 30.1579C24.296 31.4319 26.0816 32.22 28.0534 32.22C30.0253 32.22 31.8109 31.4319 33.103 30.1579C34.3952 28.8839 35.1946 27.1235 35.1946 25.1794C35.1946 23.2353 34.3952 21.4749 33.103 20.2009C31.8109 18.9269 30.0253 18.1388 28.0534 18.1388ZM28.0534 16.3588C30.5238 16.3588 32.7606 17.3463 34.3798 18.9421C35.999 20.5385 37 22.7438 37 25.1794C37 27.615 35.9984 29.8203 34.3798 31.4167C32.7606 33.0131 30.5245 34 28.0534 34H5.448C5.20032 34 5 33.8025 5 33.5583V31.7732C5 31.529 5.20032 31.3315 5.448 31.3315H21.6419C21.1965 30.8804 20.7997 30.3825 20.4598 29.8462H18.0944C17.8467 29.8462 17.6464 29.6487 17.6464 29.4045V13.549C17.6464 13.3048 17.8467 13.1073 18.0944 13.1073H21.8928C22.1405 13.1073 22.3408 13.3048 22.3408 13.549C22.3408 13.5623 22.3402 13.5755 22.3389 13.5888L22.3286 18.4007C23.88 17.1261 25.8755 16.3588 28.0534 16.3588ZM24.1469 33.1166H5.896V32.2149H22.6563C23.1203 32.5607 23.6189 32.8636 24.1469 33.1166ZM19.9696 28.9622H18.5424V13.9907H21.4454L21.4346 19.2128C21.4346 19.2235 21.4352 19.2336 21.4358 19.2437C19.9894 20.8104 19.1069 22.8933 19.1069 25.1794C19.1069 26.5335 19.4166 27.8163 19.9696 28.9622ZM33.7462 19.5668C32.2896 18.1306 30.2768 17.2422 28.0534 17.2422C25.8301 17.2422 23.8179 18.1306 22.3606 19.5668C20.904 21.0029 20.0029 22.9874 20.0029 25.1794C20.0029 26.6326 20.399 27.9942 21.0902 29.166C21.0973 29.1767 21.1037 29.1874 21.1094 29.1988C21.457 29.7818 21.8787 30.3169 22.3606 30.7921C22.5878 31.0161 22.8285 31.2262 23.0813 31.4224L23.0883 31.4281C24.456 32.4863 26.1802 33.1172 28.0534 33.1172C30.2768 33.1172 32.289 32.2288 33.7462 30.7927C35.2029 29.3566 36.104 27.3721 36.104 25.18C36.104 22.988 35.2029 21.0029 33.7462 19.5668ZM25.0794 11.8712V13.0184H25.08C25.08 13.1017 25.1037 13.1856 25.153 13.26C25.288 13.4638 25.5658 13.5213 25.7725 13.3875L30.0874 10.6036C30.1405 10.5708 30.1872 10.5266 30.2237 10.4717C30.3587 10.2679 30.3011 9.99404 30.0944 9.8609L25.7898 7.08392C25.7162 7.03155 25.6253 7 25.5274 7C25.2797 7 25.0794 7.1975 25.0794 7.44169V8.58883H5.448C5.20032 8.58883 5 8.78633 5 9.03052V11.4295C5 11.6737 5.20032 11.8712 5.448 11.8712H25.0794ZM5.896 10.9878V9.47221H25.5274C25.775 9.47221 25.9754 9.27471 25.9754 9.03052V8.25819L29.032 10.23L25.9754 12.2019V11.4295C25.9754 11.1853 25.775 10.9878 25.5274 10.9878H5.896ZM5.448 23.6777C5.20032 23.6777 5 23.8752 5 24.1193V29.4045C5 29.6487 5.20032 29.8462 5.448 29.8462H9.2464C9.49408 29.8462 9.6944 29.6487 9.6944 29.4045V24.1193C9.6944 23.8752 9.49408 23.6777 9.2464 23.6777H5.448ZM8.7984 24.561H5.896V28.9628H8.7984V24.561ZM11.7712 18.3925H15.5696C15.8173 18.3925 16.0176 18.59 16.0176 18.8342V29.4045C16.0176 29.6487 15.8173 29.8462 15.5696 29.8462H11.7712C11.5235 29.8462 11.3232 29.6487 11.3232 29.4045V18.8342C11.3232 18.59 11.5235 18.3925 11.7712 18.3925Z" fill="url(#paint0_linear_7296_17945)"/>
<path fill-rule="evenodd" clip-rule="evenodd" d="M15.1216 19.2759H12.2192V28.9628H15.1216V19.2759ZM26.289 23.0479C26.1654 22.8372 26.2384 22.5677 26.4515 22.446C26.6653 22.3242 26.9386 22.3961 27.0621 22.6062L28.2166 24.5774L31.4282 22.7495C31.6419 22.6277 31.9152 22.6996 32.0387 22.9097C32.1622 23.1205 32.0893 23.3899 31.8762 23.5117L28.2774 25.5605C28.0637 25.6823 27.7904 25.6104 27.6669 25.4003L26.289 23.0479ZM28.5014 19.038V19.5674C28.5014 19.8116 28.3011 20.0091 28.0534 20.0091C27.8058 20.0091 27.6054 19.8116 27.6054 19.5674V19.038C26.792 19.0948 26.0221 19.3049 25.3245 19.64L25.5939 20.1C25.7168 20.3107 25.6432 20.5795 25.4294 20.7007C25.2157 20.8218 24.943 20.7492 24.8202 20.5385L24.552 20.081C24.223 20.3006 23.9171 20.5505 23.6374 20.8262C23.3578 21.102 23.1043 21.4036 22.8816 21.7273L23.3469 21.9923C23.5606 22.1141 23.6336 22.3841 23.5094 22.5942C23.3859 22.805 23.112 22.8769 22.8989 22.7545L22.4342 22.4901C22.095 23.1779 21.8819 23.9376 21.8243 24.7396H22.3613C22.6077 24.7396 22.8074 24.9365 22.8074 25.1794C22.8074 25.4223 22.6077 25.6192 22.3613 25.6192H21.8243C21.8819 26.4218 22.095 27.1815 22.4349 27.8699L22.9014 27.6043C23.1152 27.4831 23.3878 27.5557 23.5107 27.7665C23.6336 27.9772 23.56 28.246 23.3462 28.3672L22.8822 28.6315C23.105 28.9559 23.3584 29.2575 23.6381 29.5332C23.9178 29.809 24.2237 30.0588 24.552 30.2784L24.8208 29.8197C24.9443 29.6089 25.2182 29.537 25.4314 29.6594C25.6451 29.7812 25.7181 30.0513 25.5939 30.2614L25.3258 30.7195C26.0234 31.0539 26.7939 31.264 27.6074 31.3208V30.7914C27.6074 30.5485 27.807 30.3516 28.0534 30.3516C28.2998 30.3516 28.4995 30.5485 28.4995 30.7914V31.3208C29.3136 31.264 30.0842 31.0539 30.7824 30.7189L30.513 30.2589C30.3901 30.0481 30.4637 29.7793 30.6774 29.6582C30.8912 29.537 31.1638 29.6096 31.2867 29.8203L31.5549 30.2778C31.8838 30.0582 32.1898 29.8083 32.4694 29.5326C32.7491 29.2569 33.0026 28.9552 33.2253 28.6315L32.76 28.3665C32.5462 28.2448 32.4733 27.9747 32.5974 27.7646C32.721 27.5538 32.9949 27.4819 33.208 27.6043L33.6726 27.8687C34.0118 27.1809 34.225 26.4212 34.2826 25.6192H33.7456C33.4992 25.6192 33.2995 25.4223 33.2995 25.1794C33.2995 24.9365 33.4992 24.7396 33.7456 24.7396H34.2826C34.225 23.9376 34.0118 23.1779 33.6726 22.4901L33.208 22.7545C32.9942 22.8763 32.721 22.8044 32.5974 22.5942C32.4739 22.3835 32.5469 22.1141 32.76 21.9923L33.2253 21.7273C33.0026 21.4036 32.7491 21.102 32.4694 20.8262C32.1898 20.5505 31.8838 20.3006 31.5555 20.081L31.2867 20.5398C31.1632 20.7505 30.8893 20.8224 30.6762 20.7C30.4624 20.5782 30.3894 20.3082 30.5136 20.0981L30.7818 19.64C30.0842 19.3049 29.3142 19.0948 28.5014 19.038ZM28.0534 18.1388C26.0816 18.1388 24.296 18.9269 23.0038 20.2009C21.7117 21.4749 20.9123 23.2353 20.9123 25.1794C20.9123 27.1235 21.7117 28.8839 23.0038 30.1579C24.296 31.4319 26.0816 32.22 28.0534 32.22C30.0253 32.22 31.8109 31.4319 33.103 30.1579C34.3952 28.8839 35.1946 27.1235 35.1946 25.1794C35.1946 23.2353 34.3952 21.4749 33.103 20.2009C31.8109 18.9269 30.0253 18.1388 28.0534 18.1388ZM28.0534 16.3588C30.5238 16.3588 32.7606 17.3463 34.3798 18.9421C35.999 20.5385 37 22.7438 37 25.1794C37 27.615 35.9984 29.8203 34.3798 31.4167C32.7606 33.0131 30.5245 34 28.0534 34H5.448C5.20032 34 5 33.8025 5 33.5583V31.7732C5 31.529 5.20032 31.3315 5.448 31.3315H21.6419C21.1965 30.8804 20.7997 30.3825 20.4598 29.8462H18.0944C17.8467 29.8462 17.6464 29.6487 17.6464 29.4045V13.549C17.6464 13.3048 17.8467 13.1073 18.0944 13.1073H21.8928C22.1405 13.1073 22.3408 13.3048 22.3408 13.549C22.3408 13.5623 22.3402 13.5755 22.3389 13.5888L22.3286 18.4007C23.88 17.1261 25.8755 16.3588 28.0534 16.3588ZM24.1469 33.1166H5.896V32.2149H22.6563C23.1203 32.5607 23.6189 32.8636 24.1469 33.1166ZM19.9696 28.9622H18.5424V13.9907H21.4454L21.4346 19.2128C21.4346 19.2235 21.4352 19.2336 21.4358 19.2437C19.9894 20.8104 19.1069 22.8933 19.1069 25.1794C19.1069 26.5335 19.4166 27.8163 19.9696 28.9622ZM33.7462 19.5668C32.2896 18.1306 30.2768 17.2422 28.0534 17.2422C25.8301 17.2422 23.8179 18.1306 22.3606 19.5668C20.904 21.0029 20.0029 22.9874 20.0029 25.1794C20.0029 26.6326 20.399 27.9942 21.0902 29.166C21.0973 29.1767 21.1037 29.1874 21.1094 29.1988C21.457 29.7818 21.8787 30.3169 22.3606 30.7921C22.5878 31.0161 22.8285 31.2262 23.0813 31.4224L23.0883 31.4281C24.456 32.4863 26.1802 33.1172 28.0534 33.1172C30.2768 33.1172 32.289 32.2288 33.7462 30.7927C35.2029 29.3566 36.104 27.3721 36.104 25.18C36.104 22.988 35.2029 21.0029 33.7462 19.5668ZM25.0794 11.8712V13.0184H25.08C25.08 13.1017 25.1037 13.1856 25.153 13.26C25.288 13.4638 25.5658 13.5213 25.7725 13.3875L30.0874 10.6036C30.1405 10.5708 30.1872 10.5266 30.2237 10.4717C30.3587 10.2679 30.3011 9.99404 30.0944 9.8609L25.7898 7.08392C25.7162 7.03155 25.6253 7 25.5274 7C25.2797 7 25.0794 7.1975 25.0794 7.44169V8.58883H5.448C5.20032 8.58883 5 8.78633 5 9.03052V11.4295C5 11.6737 5.20032 11.8712 5.448 11.8712H25.0794ZM5.896 10.9878V9.47221H25.5274C25.775 9.47221 25.9754 9.27471 25.9754 9.03052V8.25819L29.032 10.23L25.9754 12.2019V11.4295C25.9754 11.1853 25.775 10.9878 25.5274 10.9878H5.896ZM5.448 23.6777C5.20032 23.6777 5 23.8752 5 24.1193V29.4045C5 29.6487 5.20032 29.8462 5.448 29.8462H9.2464C9.49408 29.8462 9.6944 29.6487 9.6944 29.4045V24.1193C9.6944 23.8752 9.49408 23.6777 9.2464 23.6777H5.448ZM8.7984 24.561H5.896V28.9628H8.7984V24.561ZM11.7712 18.3925H15.5696C15.8173 18.3925 16.0176 18.59 16.0176 18.8342V29.4045C16.0176 29.6487 15.8173 29.8462 15.5696 29.8462H11.7712C11.5235 29.8462 11.3232 29.6487 11.3232 29.4045V18.8342C11.3232 18.59 11.5235 18.3925 11.7712 18.3925Z" fill="black" fill-opacity="0.2"/>
</g>
<defs>
<linearGradient id="paint0_linear_7296_17945" x1="21" y1="7" x2="21" y2="34" gradientUnits="userSpaceOnUse">
<stop stop-color="#FF0F0F"/>
<stop offset="1" stop-color="#FF4849"/>
</linearGradient>
<clipPath id="clip0_7296_17945">
<rect width="39.7513" height="40.3589" fill="white" transform="translate(0.796875 -0.0078125)"/>
</clipPath>
</defs>
</svg>
