<svg width="41" height="41" viewBox="0 0 41 41" fill="none" xmlns="http://www.w3.org/2000/svg">
<g clip-path="url(#clip0_7296_17735)">
<path d="M36 21.616V17.461H32.0193C31.7237 16.02 31.1227 14.6323 30.267 13.4187L33.0623 10.697L30.05 7.76467L27.2367 10.5033C25.961 9.67167 24.555 9.11433 23.0507 8.84467V5H18.7993V8.87467C17.3157 9.16233 15.8863 9.75 14.637 10.5873L11.8437 7.86733L8.83167 10.8003L11.6477 13.5413C10.7973 14.7807 10.2277 16.1457 9.95067 17.6063H6V21.7613H9.98067C10.2763 23.2027 10.8773 24.5903 11.7327 25.804L8.937 28.5257L11.949 31.458L14.7627 28.719C16.039 29.551 17.4447 30.108 18.9487 30.3777V34.2227H23.2V30.348C24.6837 30.0603 26.113 29.4723 27.362 28.6353L30.156 31.355L33.168 28.4223L30.352 25.6807C31.2023 24.4413 31.7723 23.0763 32.0493 21.6157L36 21.616ZM31.4997 21.2657C31.244 22.814 30.6433 24.2523 29.7143 25.5417L29.5623 25.7527L32.305 28.4227L30.157 30.5143L27.4277 27.857L27.223 28.0007C25.9293 28.9103 24.4173 29.5327 22.849 29.7997L22.5983 29.8423V33.62H19.5517V29.8653L19.2973 29.8253C17.7043 29.576 16.224 28.9903 14.8977 28.084L14.6943 27.9453L11.9497 30.6173L9.80167 28.526L12.5287 25.8707L12.3717 25.659C11.4253 24.3837 10.805 22.953 10.5263 21.4073L10.4817 21.159H6.60233V18.209H10.4583L10.5 17.957C10.756 16.4087 11.3567 14.9703 12.2857 13.681L12.438 13.47L9.69533 10.8003L11.8437 8.70833L14.573 11.3657L14.7777 11.222C16.0713 10.3123 17.5837 9.69033 19.1517 9.423L19.402 9.38067V5.60267H22.4487V9.35767L22.7033 9.39733C24.296 9.647 25.7763 10.2323 27.103 11.1387L27.3063 11.2777L30.0503 8.60567L32.199 10.697L29.4717 13.352L29.6287 13.5637C30.575 14.839 31.1957 16.2697 31.474 17.8157L31.5183 18.0633H35.3977V21.0133H31.5417L31.4997 21.2657Z" fill="url(#paint0_linear_7296_17735)"/>
<path d="M21.0001 12.9219C17.2154 12.9219 14.1367 15.9232 14.1367 19.6119C14.1367 23.3009 17.2157 26.3019 21.0001 26.3019C24.7847 26.3019 27.8637 23.3009 27.8637 19.6119C27.8637 15.9232 24.7847 12.9219 21.0001 12.9219ZM21.0001 25.6995C17.5481 25.6995 14.7391 22.9689 14.7391 19.6119C14.7391 16.2549 17.5481 13.5245 21.0001 13.5245C24.4521 13.5245 27.2611 16.2552 27.2611 19.6119C27.2611 22.9685 24.4521 25.6995 21.0001 25.6995Z" fill="url(#paint1_linear_7296_17735)"/>
<path d="M15.8555 22.4743H26.1488L21.0018 13.75L15.8555 22.4743ZM16.9105 21.8717L21.0018 14.936L25.0935 21.872L16.9105 21.8717Z" fill="url(#paint2_linear_7296_17735)"/>
<path d="M20.6966 17.0335L20.9979 20.3025L21.2989 17.0335C21.3006 17.0158 21.3006 16.9961 21.2989 16.9778C21.2836 16.8115 21.1366 16.6888 20.9702 16.7045C20.8036 16.7198 20.6816 16.8671 20.6966 17.0335Z" fill="url(#paint3_linear_7296_17735)"/>
<path d="M21.0008 21.314C21.1565 21.314 21.2828 21.1877 21.2828 21.032C21.2828 20.8763 21.1565 20.75 21.0008 20.75C20.845 20.75 20.7188 20.8763 20.7188 21.032C20.7188 21.1877 20.845 21.314 21.0008 21.314Z" fill="url(#paint4_linear_7296_17735)"/>
</g>
<defs>
<linearGradient id="paint0_linear_7296_17735" x1="29.3733" y1="5" x2="29.2428" y2="40.4849" gradientUnits="userSpaceOnUse">
<stop stop-color="#005CAA"/>
<stop offset="1" stop-color="#64B0F1"/>
</linearGradient>
<linearGradient id="paint1_linear_7296_17735" x1="24.8316" y1="12.9219" x2="24.7718" y2="29.1691" gradientUnits="userSpaceOnUse">
<stop stop-color="#005CAA"/>
<stop offset="1" stop-color="#64B0F1"/>
</linearGradient>
<linearGradient id="paint2_linear_7296_17735" x1="23.8751" y1="13.75" x2="23.8412" y2="24.344" gradientUnits="userSpaceOnUse">
<stop stop-color="#005CAA"/>
<stop offset="1" stop-color="#64B0F1"/>
</linearGradient>
<linearGradient id="paint3_linear_7296_17735" x1="21.1665" y1="16.7031" x2="21.0684" y2="21.0717" gradientUnits="userSpaceOnUse">
<stop stop-color="#005CAA"/>
<stop offset="1" stop-color="#64B0F1"/>
</linearGradient>
<linearGradient id="paint4_linear_7296_17735" x1="21.1582" y1="20.75" x2="21.1556" y2="21.4349" gradientUnits="userSpaceOnUse">
<stop stop-color="#005CAA"/>
<stop offset="1" stop-color="#64B0F1"/>
</linearGradient>
<clipPath id="clip0_7296_17735">
<rect width="39.7513" height="40.3589" fill="white" transform="translate(0.796875 -0.0078125)"/>
</clipPath>
</defs>
</svg>
