<svg width="41" height="41" viewBox="0 0 41 41" fill="none" xmlns="http://www.w3.org/2000/svg">
<g clip-path="url(#clip0_7296_17722)">
<path d="M24.0866 25.7149C24.0866 25.241 24.7928 25.241 24.7928 25.7149V26.9117H27.803V25.7149C27.803 25.241 28.5092 25.241 28.5092 25.7149V26.9117H29.5256V25.6407C29.5256 24.3928 28.5239 23.3685 27.3011 23.3685H25.2926C24.0697 23.3685 23.068 24.3928 23.068 25.6407V26.9117H24.0866V25.7149ZM26.2965 17.8651C27.4738 17.8651 28.4277 18.8384 28.4277 20.0397C28.4277 21.2411 27.4738 22.2167 26.2965 22.2167C25.1191 22.2167 24.1652 21.2411 24.1652 20.0397C24.1652 18.8384 25.1199 17.8651 26.2965 17.8651ZM27.3047 19.0101C26.4089 18.096 24.8715 18.7462 24.8715 20.039C24.8715 21.331 26.4089 21.982 27.3047 21.0678C27.8611 20.5009 27.8611 19.5801 27.3047 19.0101ZM22.361 26.9117V25.6407C22.361 23.9932 23.6795 22.6501 25.2918 22.6501H27.3003C28.9127 22.6501 30.2311 23.9932 30.2311 25.6407V26.9117H32.2896V11.692H25.8754C25.2382 13.8577 23.2753 15.3882 21.0007 15.3882C18.724 15.3882 16.7611 13.8577 16.1239 11.692H9.71188V26.9117H11.7681V25.0752C11.7681 23.1045 13.3474 21.4938 15.278 21.4938H17.7385C19.6698 21.4938 21.2484 23.1053 21.2484 25.0752V26.9117H22.361ZM13.881 25.1682C13.881 24.6943 14.5872 24.6943 14.5872 25.1682V26.911H18.4308V25.1682C18.4308 24.6943 19.137 24.6943 19.137 25.1682V26.911H20.5429V25.0745C20.5429 23.5012 19.2803 22.2137 17.7392 22.2137H15.2788C13.7369 22.2137 12.4751 23.502 12.4751 25.0745V26.911H13.881V25.1682ZM16.5075 15.6349C17.9075 15.6349 19.0407 16.7912 19.0407 18.2175C19.0407 19.6438 17.9075 20.8001 16.5075 20.8001C15.1097 20.8001 13.9765 19.6438 13.9765 18.2175C13.9765 16.7912 15.1097 15.6349 16.5075 15.6349ZM17.7995 16.9C16.6538 15.7309 14.6828 16.564 14.6828 18.2175C14.6828 19.871 16.6538 20.7049 17.7995 19.5351C18.5116 18.8062 18.5116 17.6289 17.7995 16.9ZM23.6089 10.5057L19.8447 12.7231C19.6074 12.8633 19.3156 12.6848 19.3156 12.4104V7.97855C19.3156 7.71459 19.6007 7.50462 19.8741 7.6831L23.6074 9.88327C23.8448 10.0235 23.8389 10.3677 23.6074 10.5064H23.6089V10.5057ZM20.0218 11.7872L22.7278 10.193L20.0218 8.59871V11.7872ZM21.0007 5C23.5545 5 25.6938 6.92571 26.0422 9.46783H34.1166C34.3106 9.46783 34.4686 9.62906 34.4686 9.82928V28.2653H35.7914C35.9869 28.2653 36.1456 28.4265 36.1456 28.6267V30.8186C36.1456 31.3885 35.9501 31.9135 35.6312 32.3064H38.6517C39.1161 32.3064 39.1161 33.027 38.6517 33.027H7.81435H3.34834C2.88389 33.027 2.88389 32.3064 3.34834 32.3064H6.371C6.05206 31.9135 5.85437 31.3878 5.85437 30.8186V28.6267C5.85437 28.4272 6.01237 28.2653 6.20859 28.2653H7.53142V9.83003C7.53142 9.63056 7.68942 9.46858 7.88564 9.46858H15.9578C16.3054 6.92646 18.4447 5 21.0007 5ZM26.0921 10.1892C26.0944 10.4419 26.0716 10.7291 26.0341 10.9736H32.6423C32.8378 10.9736 32.9966 11.1333 32.9966 11.3328V27.2709C32.9966 27.4704 32.8386 27.6324 32.6423 27.6324C24.8803 27.6324 17.1204 27.6324 9.35839 27.6324C9.16437 27.6324 9.00637 27.4711 9.00637 27.2709V11.3328C9.00637 11.1333 9.16437 10.9736 9.35839 10.9736H15.9666C15.9314 10.7291 15.9086 10.4419 15.9101 10.1892H8.23766V28.266H14.5181V28.2683C14.5747 28.2683 14.6306 28.281 14.6828 28.311L16.8118 29.4696H25.1882L27.29 28.326C27.3444 28.2878 27.4106 28.2668 27.4819 28.2668H33.7623V10.1892H26.0921ZM24.1006 7.02995C22.3882 5.28271 19.611 5.28271 17.8987 7.02995C16.1864 8.77718 16.1864 11.611 17.8987 13.3582C19.611 15.1055 22.3882 15.1055 24.1006 13.3582C25.8092 11.6155 25.8195 8.78168 24.1006 7.02995ZM8.37876 35C7.9143 35 7.9143 34.2794 8.37876 34.2794H33.6205C34.085 34.2794 34.085 35 33.6205 35H8.37876ZM7.80848 32.3064H34.1915C34.9183 32.3042 35.4394 31.5835 35.4394 30.8186V28.9867H27.5671L25.4381 30.1475C25.3859 30.1752 25.3301 30.1902 25.2735 30.1902H16.7265C16.656 30.1902 16.5891 30.1692 16.5347 30.1325L14.4329 28.9867H6.56061V30.8186C6.56061 31.582 7.07872 32.3027 7.80848 32.3064Z" fill="url(#paint0_linear_7296_17722)"/>
<path d="M24.0866 25.7149C24.0866 25.241 24.7928 25.241 24.7928 25.7149V26.9117H27.803V25.7149C27.803 25.241 28.5092 25.241 28.5092 25.7149V26.9117H29.5256V25.6407C29.5256 24.3928 28.5239 23.3685 27.3011 23.3685H25.2926C24.0697 23.3685 23.068 24.3928 23.068 25.6407V26.9117H24.0866V25.7149ZM26.2965 17.8651C27.4738 17.8651 28.4277 18.8384 28.4277 20.0397C28.4277 21.2411 27.4738 22.2167 26.2965 22.2167C25.1191 22.2167 24.1652 21.2411 24.1652 20.0397C24.1652 18.8384 25.1199 17.8651 26.2965 17.8651ZM27.3047 19.0101C26.4089 18.096 24.8715 18.7462 24.8715 20.039C24.8715 21.331 26.4089 21.982 27.3047 21.0678C27.8611 20.5009 27.8611 19.5801 27.3047 19.0101ZM22.361 26.9117V25.6407C22.361 23.9932 23.6795 22.6501 25.2918 22.6501H27.3003C28.9127 22.6501 30.2311 23.9932 30.2311 25.6407V26.9117H32.2896V11.692H25.8754C25.2382 13.8577 23.2753 15.3882 21.0007 15.3882C18.724 15.3882 16.7611 13.8577 16.1239 11.692H9.71188V26.9117H11.7681V25.0752C11.7681 23.1045 13.3474 21.4938 15.278 21.4938H17.7385C19.6698 21.4938 21.2484 23.1053 21.2484 25.0752V26.9117H22.361ZM13.881 25.1682C13.881 24.6943 14.5872 24.6943 14.5872 25.1682V26.911H18.4308V25.1682C18.4308 24.6943 19.137 24.6943 19.137 25.1682V26.911H20.5429V25.0745C20.5429 23.5012 19.2803 22.2137 17.7392 22.2137H15.2788C13.7369 22.2137 12.4751 23.502 12.4751 25.0745V26.911H13.881V25.1682ZM16.5075 15.6349C17.9075 15.6349 19.0407 16.7912 19.0407 18.2175C19.0407 19.6438 17.9075 20.8001 16.5075 20.8001C15.1097 20.8001 13.9765 19.6438 13.9765 18.2175C13.9765 16.7912 15.1097 15.6349 16.5075 15.6349ZM17.7995 16.9C16.6538 15.7309 14.6828 16.564 14.6828 18.2175C14.6828 19.871 16.6538 20.7049 17.7995 19.5351C18.5116 18.8062 18.5116 17.6289 17.7995 16.9ZM23.6089 10.5057L19.8447 12.7231C19.6074 12.8633 19.3156 12.6848 19.3156 12.4104V7.97855C19.3156 7.71459 19.6007 7.50462 19.8741 7.6831L23.6074 9.88327C23.8448 10.0235 23.8389 10.3677 23.6074 10.5064H23.6089V10.5057ZM20.0218 11.7872L22.7278 10.193L20.0218 8.59871V11.7872ZM21.0007 5C23.5545 5 25.6938 6.92571 26.0422 9.46783H34.1166C34.3106 9.46783 34.4686 9.62906 34.4686 9.82928V28.2653H35.7914C35.9869 28.2653 36.1456 28.4265 36.1456 28.6267V30.8186C36.1456 31.3885 35.9501 31.9135 35.6312 32.3064H38.6517C39.1161 32.3064 39.1161 33.027 38.6517 33.027H7.81435H3.34834C2.88389 33.027 2.88389 32.3064 3.34834 32.3064H6.371C6.05206 31.9135 5.85437 31.3878 5.85437 30.8186V28.6267C5.85437 28.4272 6.01237 28.2653 6.20859 28.2653H7.53142V9.83003C7.53142 9.63056 7.68942 9.46858 7.88564 9.46858H15.9578C16.3054 6.92646 18.4447 5 21.0007 5ZM26.0921 10.1892C26.0944 10.4419 26.0716 10.7291 26.0341 10.9736H32.6423C32.8378 10.9736 32.9966 11.1333 32.9966 11.3328V27.2709C32.9966 27.4704 32.8386 27.6324 32.6423 27.6324C24.8803 27.6324 17.1204 27.6324 9.35839 27.6324C9.16437 27.6324 9.00637 27.4711 9.00637 27.2709V11.3328C9.00637 11.1333 9.16437 10.9736 9.35839 10.9736H15.9666C15.9314 10.7291 15.9086 10.4419 15.9101 10.1892H8.23766V28.266H14.5181V28.2683C14.5747 28.2683 14.6306 28.281 14.6828 28.311L16.8118 29.4696H25.1882L27.29 28.326C27.3444 28.2878 27.4106 28.2668 27.4819 28.2668H33.7623V10.1892H26.0921ZM24.1006 7.02995C22.3882 5.28271 19.611 5.28271 17.8987 7.02995C16.1864 8.77718 16.1864 11.611 17.8987 13.3582C19.611 15.1055 22.3882 15.1055 24.1006 13.3582C25.8092 11.6155 25.8195 8.78168 24.1006 7.02995ZM8.37876 35C7.9143 35 7.9143 34.2794 8.37876 34.2794H33.6205C34.085 34.2794 34.085 35 33.6205 35H8.37876ZM7.80848 32.3064H34.1915C34.9183 32.3042 35.4394 31.5835 35.4394 30.8186V28.9867H27.5671L25.4381 30.1475C25.3859 30.1752 25.3301 30.1902 25.2735 30.1902H16.7265C16.656 30.1902 16.5891 30.1692 16.5347 30.1325L14.4329 28.9867H6.56061V30.8186C6.56061 31.582 7.07872 32.3027 7.80848 32.3064Z" fill="black" fill-opacity="0.2"/>
</g>
<defs>
<linearGradient id="paint0_linear_7296_17722" x1="21" y1="5" x2="21" y2="35" gradientUnits="userSpaceOnUse">
<stop stop-color="#FF0F0F"/>
<stop offset="1" stop-color="#FF4849"/>
</linearGradient>
<clipPath id="clip0_7296_17722">
<rect width="39.7513" height="40.3589" fill="white" transform="translate(0.945312 -0.0078125)"/>
</clipPath>
</defs>
</svg>
