<svg width="40" height="41" viewBox="0 0 40 41" fill="none" xmlns="http://www.w3.org/2000/svg">
<g clip-path="url(#clip0_7296_17641)">
<path d="M20 6.875C22.5959 6.875 25.1335 7.64477 27.2919 9.08696C29.4503 10.5292 31.1325 12.579 32.1259 14.9773C33.1193 17.3756 33.3792 20.0146 32.8728 22.5606C32.3664 25.1066 31.1163 27.4452 29.2808 29.2808C27.4452 31.1163 25.1066 32.3664 22.5606 32.8728C20.0146 33.3792 17.3756 33.1193 14.9773 32.1259C12.579 31.1325 10.5292 29.4502 9.08697 27.2919C7.64477 25.1335 6.87501 22.5959 6.87501 20C6.87894 16.5202 8.26301 13.1841 10.7236 10.7236C13.1841 8.26301 16.5202 6.87893 20 6.875ZM20 5C17.0333 5 14.1332 5.87973 11.6665 7.52796C9.19971 9.17618 7.27713 11.5189 6.14181 14.2597C5.0065 17.0006 4.70945 20.0166 5.28823 22.9263C5.86701 25.8361 7.29562 28.5088 9.3934 30.6066C11.4912 32.7044 14.1639 34.133 17.0736 34.7118C19.9834 35.2906 22.9994 34.9935 25.7403 33.8582C28.4811 32.7229 30.8238 30.8003 32.472 28.3335C34.1203 25.8668 35 22.9667 35 20C35 16.0217 33.4196 12.2064 30.6066 9.3934C27.7936 6.58035 23.9783 5 20 5ZM20 14.375C20.3708 14.375 20.7334 14.265 21.0417 14.059C21.35 13.853 21.5904 13.5601 21.7323 13.2175C21.8742 12.8749 21.9113 12.4979 21.839 12.1342C21.7666 11.7705 21.5881 11.4364 21.3258 11.1742C21.0636 10.912 20.7295 10.7334 20.3658 10.661C20.0021 10.5887 19.6251 10.6258 19.2825 10.7677C18.9399 10.9096 18.647 11.15 18.441 11.4583C18.235 11.7666 18.125 12.1292 18.125 12.5C18.125 12.9973 18.3225 13.4742 18.6742 13.8258C19.0258 14.1775 19.5027 14.375 20 14.375ZM29.3036 14.9536C29.2079 14.7243 29.0253 14.5423 28.7957 14.4473C28.5662 14.3522 28.3084 14.3519 28.0786 14.4464C25.5308 15.5596 22.7804 16.1342 20 16.1342C17.2196 16.1342 14.4692 15.5596 11.9214 14.4464C11.6918 14.3519 11.4341 14.3523 11.2049 14.4476C10.9756 14.5428 10.7935 14.7251 10.6984 14.9544C10.6034 15.1838 10.6032 15.4415 10.6979 15.671C10.7926 15.9004 10.9745 16.083 11.2036 16.1786C13.4091 17.1021 15.7435 17.681 18.125 17.895V21.4439L14.4922 27.9825C14.3718 28.2 14.3427 28.4564 14.4113 28.6954C14.4799 28.9344 14.6405 29.1364 14.8579 29.257C15.0753 29.3776 15.3317 29.4069 15.5708 29.3386C15.8098 29.2703 16.012 29.1098 16.1328 28.8925L20 21.9309L23.8672 28.8925C23.9486 29.0387 24.0676 29.1604 24.2118 29.2453C24.356 29.3301 24.5202 29.3749 24.6875 29.375C24.8508 29.3751 25.0112 29.3325 25.153 29.2515C25.2947 29.1705 25.4129 29.0539 25.4958 28.9133C25.5786 28.7726 25.6233 28.6127 25.6254 28.4495C25.6276 28.2862 25.587 28.1252 25.5078 27.9825L21.875 21.4439V17.895C24.2565 17.681 26.5909 17.1021 28.7964 16.1786C29.026 16.0833 29.2084 15.9008 29.3035 15.6711C29.3986 15.4414 29.3987 15.1833 29.3036 14.9536Z" fill="url(#paint0_linear_7296_17641)"/>
<path d="M20 6.875C22.5959 6.875 25.1335 7.64477 27.2919 9.08696C29.4503 10.5292 31.1325 12.579 32.1259 14.9773C33.1193 17.3756 33.3792 20.0146 32.8728 22.5606C32.3664 25.1066 31.1163 27.4452 29.2808 29.2808C27.4452 31.1163 25.1066 32.3664 22.5606 32.8728C20.0146 33.3792 17.3756 33.1193 14.9773 32.1259C12.579 31.1325 10.5292 29.4502 9.08697 27.2919C7.64477 25.1335 6.87501 22.5959 6.87501 20C6.87894 16.5202 8.26301 13.1841 10.7236 10.7236C13.1841 8.26301 16.5202 6.87893 20 6.875ZM20 5C17.0333 5 14.1332 5.87973 11.6665 7.52796C9.19971 9.17618 7.27713 11.5189 6.14181 14.2597C5.0065 17.0006 4.70945 20.0166 5.28823 22.9263C5.86701 25.8361 7.29562 28.5088 9.3934 30.6066C11.4912 32.7044 14.1639 34.133 17.0736 34.7118C19.9834 35.2906 22.9994 34.9935 25.7403 33.8582C28.4811 32.7229 30.8238 30.8003 32.472 28.3335C34.1203 25.8668 35 22.9667 35 20C35 16.0217 33.4196 12.2064 30.6066 9.3934C27.7936 6.58035 23.9783 5 20 5ZM20 14.375C20.3708 14.375 20.7334 14.265 21.0417 14.059C21.35 13.853 21.5904 13.5601 21.7323 13.2175C21.8742 12.8749 21.9113 12.4979 21.839 12.1342C21.7666 11.7705 21.5881 11.4364 21.3258 11.1742C21.0636 10.912 20.7295 10.7334 20.3658 10.661C20.0021 10.5887 19.6251 10.6258 19.2825 10.7677C18.9399 10.9096 18.647 11.15 18.441 11.4583C18.235 11.7666 18.125 12.1292 18.125 12.5C18.125 12.9973 18.3225 13.4742 18.6742 13.8258C19.0258 14.1775 19.5027 14.375 20 14.375ZM29.3036 14.9536C29.2079 14.7243 29.0253 14.5423 28.7957 14.4473C28.5662 14.3522 28.3084 14.3519 28.0786 14.4464C25.5308 15.5596 22.7804 16.1342 20 16.1342C17.2196 16.1342 14.4692 15.5596 11.9214 14.4464C11.6918 14.3519 11.4341 14.3523 11.2049 14.4476C10.9756 14.5428 10.7935 14.7251 10.6984 14.9544C10.6034 15.1838 10.6032 15.4415 10.6979 15.671C10.7926 15.9004 10.9745 16.083 11.2036 16.1786C13.4091 17.1021 15.7435 17.681 18.125 17.895V21.4439L14.4922 27.9825C14.3718 28.2 14.3427 28.4564 14.4113 28.6954C14.4799 28.9344 14.6405 29.1364 14.8579 29.257C15.0753 29.3776 15.3317 29.4069 15.5708 29.3386C15.8098 29.2703 16.012 29.1098 16.1328 28.8925L20 21.9309L23.8672 28.8925C23.9486 29.0387 24.0676 29.1604 24.2118 29.2453C24.356 29.3301 24.5202 29.3749 24.6875 29.375C24.8508 29.3751 25.0112 29.3325 25.153 29.2515C25.2947 29.1705 25.4129 29.0539 25.4958 28.9133C25.5786 28.7726 25.6233 28.6127 25.6254 28.4495C25.6276 28.2862 25.587 28.1252 25.5078 27.9825L21.875 21.4439V17.895C24.2565 17.681 26.5909 17.1021 28.7964 16.1786C29.026 16.0833 29.2084 15.9008 29.3035 15.6711C29.3986 15.4414 29.3987 15.1833 29.3036 14.9536Z" fill="black" fill-opacity="0.2"/>
</g>
<defs>
<linearGradient id="paint0_linear_7296_17641" x1="20" y1="5" x2="20" y2="35" gradientUnits="userSpaceOnUse">
<stop stop-color="#FF0F0F"/>
<stop offset="1" stop-color="#FF4849"/>
</linearGradient>
<clipPath id="clip0_7296_17641">
<rect width="39.7513" height="40.3589" fill="white" transform="translate(0.09375 -0.0078125)"/>
</clipPath>
</defs>
</svg>
