<svg width="41" height="41" viewBox="0 0 41 41" fill="none" xmlns="http://www.w3.org/2000/svg">
<g clip-path="url(#clip0_7296_17602)">
<path d="M33.7023 8.37463C33.6808 8.35296 33.6575 8.3331 33.6328 8.31525C32.0402 6.64937 30.1285 5.32126 28.0116 4.41011C25.8946 3.49896 23.6159 3.02343 21.3113 3.01187C21.2841 3.0062 21.2565 3.00224 21.2288 3C21.2104 3 21.1955 3.00891 21.1777 3.01009C18.8642 3.0147 16.5755 3.48693 14.4491 4.39839C12.3228 5.30986 10.4026 6.64175 8.80395 8.31406C8.77882 8.33189 8.75519 8.35175 8.73329 8.37344C8.72617 8.38294 8.72439 8.39422 8.71786 8.40372C5.68876 11.5946 4 15.8265 4 20.2262C4 24.6259 5.68876 28.8577 8.71786 32.0486C8.72261 32.0557 8.72379 32.0641 8.72854 32.0706C8.73329 32.0771 8.75764 32.0908 8.7707 32.1044C10.3743 33.7912 12.3039 35.1345 14.4425 36.0528C16.5811 36.9711 18.884 37.4452 21.2114 37.4463C23.5388 37.4474 25.8421 36.9755 27.9816 36.0593C30.121 35.143 32.0519 33.8016 33.6571 32.1163C33.6757 32.1024 33.6933 32.0873 33.71 32.0712C33.7153 32.0647 33.7159 32.0563 33.7207 32.0492C36.7501 28.8583 38.4391 24.6261 38.4391 20.2262C38.4391 15.8262 36.7501 11.5941 33.7207 8.40313C33.7106 8.39481 33.7094 8.38353 33.7023 8.37463ZM33.156 30.911C31.683 29.8245 30.0639 28.9516 28.3466 28.3181C29.3303 25.9344 29.8851 23.3957 29.9854 20.819H37.2345C37.0993 24.5569 35.6558 28.1287 33.156 30.911ZM9.28132 30.911C6.78091 28.1283 5.33722 24.5559 5.20226 20.8172H12.4609C12.5584 23.395 13.111 25.9351 14.0931 28.3205C12.3763 28.9556 10.7574 29.8288 9.2837 30.9146L9.28132 30.911ZM9.28726 9.536C10.7833 10.6431 12.4321 11.5271 14.1821 12.1604C13.163 14.5282 12.5797 17.0606 12.4603 19.6357H5.20167C5.33705 15.8942 6.78319 12.3193 9.28726 9.536ZM21.8231 35.8771V28.2575C23.485 28.304 25.134 28.5635 26.7299 29.0294C25.5622 31.6134 23.8945 33.9407 21.8231 35.8771ZM20.6243 4.64112V12.1912C18.9863 12.1442 17.3608 11.8905 15.7864 11.436C16.9664 8.89217 18.6066 6.58848 20.6243 4.64112ZM15.2924 12.5291C17.0245 13.0467 18.8173 13.3336 20.6243 13.3823V19.6345H13.6584C13.7677 17.1865 14.3214 14.7789 15.2924 12.5291ZM20.6243 20.822V27.07C18.7959 27.1193 16.982 27.4106 15.2301 27.9363C14.2854 25.6776 13.7529 23.2679 13.6579 20.8214L20.6243 20.822ZM27.2149 27.9369C25.4646 27.4104 23.652 27.1189 21.8249 27.07V20.822H28.789C28.6927 23.2685 28.1596 25.6781 27.2149 27.9369ZM21.8231 19.6345V13.3823C23.6306 13.3322 25.4236 13.0437 27.1556 12.5243C28.1266 14.7757 28.6795 17.1851 28.7872 19.6345H21.8231ZM21.8231 12.1907V4.62984C23.8424 6.57881 25.4836 8.88455 26.6639 11.4307C25.0887 11.8863 23.4622 12.1416 21.8231 12.1907ZM14.6672 11.0738C13.0456 10.4945 11.515 9.68632 10.1221 8.67387C12.6204 6.26698 15.834 4.73832 19.2777 4.31872C17.3768 6.29908 15.8187 8.58196 14.6672 11.0738ZM20.6243 28.2575V35.8718C18.5509 33.9393 16.8819 31.6143 15.714 29.0318C17.3112 28.5658 18.9613 28.3057 20.6243 28.2575ZM27.8746 29.41C29.4589 29.9895 30.9553 30.7855 32.3212 31.7755C29.8516 34.1574 26.6811 35.6815 23.2784 36.1223C25.1979 34.1764 26.7544 31.9033 27.8746 29.41ZM29.986 19.6345C29.8684 17.0576 29.286 14.5231 28.2671 12.1532C30.0118 11.5204 31.6561 10.6388 33.1489 9.536C35.653 12.3193 37.0991 15.8942 37.2345 19.6357L29.986 19.6345ZM32.3135 8.67387C30.9243 9.68282 29.3988 10.4891 27.7826 11.0685C26.6333 8.58076 25.0793 6.3009 23.184 4.32169C26.618 4.74596 29.8216 6.27318 32.3135 8.67387ZM10.1149 31.7761C11.4834 30.7864 12.9819 29.9901 14.5681 29.41C15.6869 31.9024 17.2411 34.1755 19.1578 36.1223C15.7552 35.6817 12.5846 34.1578 10.1149 31.7761Z" fill="url(#paint0_linear_7296_17602)"/>
</g>
<defs>
<linearGradient id="paint0_linear_7296_17602" x1="30.8318" y1="3" x2="30.6739" y2="44.8279" gradientUnits="userSpaceOnUse">
<stop stop-color="#005CAA"/>
<stop offset="1" stop-color="#64B0F1"/>
</linearGradient>
<clipPath id="clip0_7296_17602">
<rect width="39.7513" height="40.3589" fill="white" transform="translate(0.945312 -0.0078125)"/>
</clipPath>
</defs>
</svg>
