<svg width="50" height="50" viewBox="0 0 50 50" fill="none" xmlns="http://www.w3.org/2000/svg">
<path d="M26.7693 38.8067H23.2344C22.9325 38.8067 22.6889 39.0504 22.6889 39.3522V40.2323C22.6889 41.5015 23.7253 42.5343 25.0018 42.5343C26.2783 42.5343 27.3148 41.5015 27.3148 40.2323V39.3522C27.3148 39.0504 27.0711 38.8067 26.7693 38.8067ZM26.2237 40.2323C26.2237 40.8978 25.6746 41.4433 25.0018 41.4433C24.329 41.4433 23.7799 40.9014 23.7799 40.2323V39.8977H26.2237V40.2323ZM41.807 8.51668H39.6977V7.3093C39.6977 6.03646 38.6612 5 37.3884 5H12.6152C11.3424 5 10.3059 6.03646 10.3059 7.3093V8.51668H8.20029C6.43649 8.51668 5 9.94227 5 11.6952V34.5227C5 36.2756 6.43649 37.7048 8.20029 37.7048H19.1504C19.1504 40.0505 18.2994 42.0834 16.8011 43.6362H10.8514C10.1314 43.6362 10.1314 44.7272 10.8514 44.7272H39.1522C39.8723 44.7272 39.8723 43.6362 39.1522 43.6362H33.1917C31.7006 42.0797 30.8496 40.0723 30.8496 37.7048H41.8033C43.5671 37.7048 45 36.2792 45 34.5227V11.6915C45 9.93863 43.5671 8.51305 41.8033 8.51305L41.807 8.51668ZM43.9126 34.5227C43.9126 35.6755 42.9671 36.6138 41.807 36.6138H8.20029C7.03655 36.6138 6.09101 35.6755 6.09101 34.5227V32.4352H43.9126V34.5227ZM18.2412 43.6362C19.5322 41.9743 20.2414 40.0068 20.2414 37.7048H29.7622C29.7622 39.9705 30.4496 41.9597 31.7552 43.6362H18.2412ZM6.09101 11.6915C6.09101 10.5423 7.03655 9.60406 8.20029 9.60406H10.3059V31.3406H6.09101V11.6915ZM11.3969 7.3093C11.3969 6.63651 11.9424 6.09101 12.6152 6.09101H37.3884C38.0612 6.09101 38.6067 6.63651 38.6067 7.3093V31.3442H11.3969V7.3093ZM43.9126 31.3442H39.6977V9.60769H41.807C42.9671 9.60769 43.9126 10.5423 43.9126 11.6952V31.3479V31.3442ZM34.8391 24.5H26.6456C25.9255 24.5 25.9255 23.4089 26.6456 23.4089H34.8391C35.5591 23.4089 35.5591 24.5 34.8391 24.5ZM34.8391 26.9547H26.6456C25.9255 26.9547 25.9255 25.8637 26.6456 25.8637H34.8391C35.5591 25.8637 35.5591 26.9547 34.8391 26.9547ZM34.8391 29.4095H26.6456C25.9255 29.4095 25.9255 28.3185 26.6456 28.3185H34.8391C35.5591 28.3185 35.5591 29.4095 34.8391 29.4095ZM15.07 21.3833H34.93C35.5301 21.3833 35.5301 20.4741 34.93 20.4741H33.8644V13.0989C33.8644 12.848 33.6608 12.6443 33.4099 12.6443H31.8315C31.5806 12.6443 31.3769 12.848 31.3769 13.0989V20.4741H30.1041V15.6592C30.1041 15.4082 29.9004 15.2046 29.6495 15.2046H28.0712C27.8203 15.2046 27.6166 15.4082 27.6166 15.6592V20.4741H26.3401V14.0445C26.3401 13.7935 26.1365 13.5899 25.8855 13.5899H24.3072C24.0563 13.5899 23.8526 13.7935 23.8526 14.0445V20.4741H22.5761V15.1791C22.5761 14.9282 22.3725 14.7245 22.1216 14.7245H20.5432C20.2923 14.7245 20.0886 14.9282 20.0886 15.1791V20.4741H18.8158V17.0738C18.8158 16.8229 18.6121 16.6192 18.3612 16.6192H16.7829C16.532 16.6192 16.3283 16.8229 16.3283 17.0738V20.4741H15.0664C14.4663 20.4741 14.4663 21.3833 15.0664 21.3833H15.07ZM32.2898 13.5535H32.9589V20.4741H32.2898V13.5535ZM28.5294 16.1137H29.1986V20.4741H28.5294V16.1137ZM24.7654 14.5027H25.4346V20.4778H24.7654V14.5027ZM21.0051 15.6373H21.6742V20.4778H21.0051V15.6373ZM17.2447 17.532H17.9139V20.4778H17.2447V17.532ZM17.1029 14.2227C21.947 11.8152 20.2087 12.6443 24.7363 10.5569C25.0164 10.4259 24.8745 10.4332 28.9476 12.528L31.7406 9.15674L30.7951 9.30948C30.1987 9.40404 30.0568 8.50941 30.6496 8.41122C33.4462 7.95663 32.9444 7.57842 33.4026 10.3969C33.4971 10.9896 32.6025 11.1351 32.5043 10.5423L32.3843 9.80771L29.4168 13.3899C29.2822 13.5535 29.0495 13.6008 28.8567 13.5026L24.9145 11.4733C18.1757 14.5791 17.6084 15.0809 17.3066 15.0809C16.8265 15.0809 16.6738 14.4336 17.1029 14.219V14.2227ZM18.1321 22.9107C16.0992 23.0125 14.5245 24.7472 14.6227 26.7802C14.7863 30.0568 18.8485 31.5079 21.0524 29.0786C23.238 26.6674 21.4379 22.7543 18.1321 22.9107ZM18.4412 29.1986C17.012 29.2713 15.7828 28.1621 15.7137 26.7292C15.6446 25.2964 16.7538 24.0708 18.1867 24.0017C19.6195 23.9326 20.8451 25.0382 20.9142 26.471C20.9833 27.9075 19.8814 29.1258 18.4412 29.1986ZM20.005 26.2165C18.1103 28.664 18.5285 28.584 16.9575 27.3111C16.3974 26.8565 17.0847 26.0092 17.6448 26.4638L18.1285 26.8565L19.1395 25.5473C19.5795 24.9764 20.445 25.6455 20.0014 26.2165H20.005Z" fill="black"/>
</svg>
