<svg width="50" height="50" viewBox="0 0 50 50" fill="none" xmlns="http://www.w3.org/2000/svg">
<path d="M31.668 33H27.668V34.3333H31.668V33Z" fill="black"/>
<path d="M44.332 5H8.9987C8.82189 5.00001 8.65233 5.07025 8.5273 5.19527C8.40228 5.32029 8.33204 5.48986 8.33203 5.66667V26.3333H9.66536V11.6667H20.9987V16.3333C20.9987 16.5101 21.0689 16.6797 21.194 16.8047C21.319 16.9298 21.4886 17 21.6654 17H39.6654V15.6667H22.332V11.6667H42.332V10.3333H9.66536V6.33333H43.6654V15.6667H42.332V13H40.9987V31.6667H42.332V21H43.6654V33H39.6654V34.3333H44.332C44.5088 34.3333 44.6784 34.2631 44.8034 34.1381C44.9284 34.013 44.9987 33.8435 44.9987 33.6667V5.66667C44.9987 5.48986 44.9284 5.32029 44.8034 5.19527C44.6784 5.07025 44.5088 5.00001 44.332 5ZM42.332 19.6667V17H43.6654V19.6667H42.332Z" fill="black"/>
<path d="M11.6667 8.9974C12.0349 8.9974 12.3333 8.69892 12.3333 8.33073C12.3333 7.96254 12.0349 7.66406 11.6667 7.66406C11.2985 7.66406 11 7.96254 11 8.33073C11 8.69892 11.2985 8.9974 11.6667 8.9974Z" fill="black"/>
<path d="M14.3346 8.9974C14.7028 8.9974 15.0013 8.69892 15.0013 8.33073C15.0013 7.96254 14.7028 7.66406 14.3346 7.66406C13.9664 7.66406 13.668 7.96254 13.668 8.33073C13.668 8.69892 13.9664 8.9974 14.3346 8.9974Z" fill="black"/>
<path d="M16.9987 8.9974C17.3669 8.9974 17.6654 8.69892 17.6654 8.33073C17.6654 7.96254 17.3669 7.66406 16.9987 7.66406C16.6305 7.66406 16.332 7.96254 16.332 8.33073C16.332 8.69892 16.6305 8.9974 16.9987 8.9974Z" fill="black"/>
<path d="M19.668 13H13.668V14.3333H19.668V13Z" fill="black"/>
<path d="M11.6667 14.3333C12.0349 14.3333 12.3333 14.0349 12.3333 13.6667C12.3333 13.2985 12.0349 13 11.6667 13C11.2985 13 11 13.2985 11 13.6667C11 14.0349 11.2985 14.3333 11.6667 14.3333Z" fill="black"/>
<path d="M32.3333 7.66406H21V8.9974H32.3333V7.66406Z" fill="black"/>
<path d="M5 28.3307V44.3307C5.00001 44.5075 5.07025 44.6771 5.19527 44.8021C5.32029 44.9271 5.48986 44.9974 5.66667 44.9974H25.6667C25.8435 44.9974 26.013 44.9271 26.1381 44.8021C26.2631 44.6771 26.3333 44.5075 26.3333 44.3307V28.3307C26.3333 28.1539 26.2631 27.9844 26.1381 27.8593C26.013 27.7343 25.8435 27.6641 25.6667 27.6641H5.66667C5.48986 27.6641 5.32029 27.7343 5.19527 27.8593C5.07025 27.9844 5.00001 28.1539 5 28.3307ZM25 38.3307H21V34.3307H25V38.3307ZM19.6667 38.3307H6.33333V34.3307H19.6667V38.3307ZM6.33333 39.6641H19.6667V43.6641H6.33333V39.6641ZM25 43.6641H21V39.6641H25V43.6641ZM25 32.9974H21V28.9974H25V32.9974ZM6.33333 28.9974H19.6667V32.9974H6.33333V28.9974Z" fill="black"/>
<path d="M9.66536 41H8.33203V42.3333H9.66536V41Z" fill="black"/>
<path d="M12.3333 41H11V42.3333H12.3333V41Z" fill="black"/>
<path d="M17.668 41H13.668V42.3333H17.668V41Z" fill="black"/>
<path d="M9.66536 35.6641H8.33203V36.9974H9.66536V35.6641Z" fill="black"/>
<path d="M12.3333 35.6641H11V36.9974H12.3333V35.6641Z" fill="black"/>
<path d="M17.668 35.6641H13.668V36.9974H17.668V35.6641Z" fill="black"/>
<path d="M9.66536 30.3359H8.33203V31.6693H9.66536V30.3359Z" fill="black"/>
<path d="M12.3333 30.3359H11V31.6693H12.3333V30.3359Z" fill="black"/>
<path d="M17.668 30.3359H13.668V31.6693H17.668V30.3359Z" fill="black"/>
<path d="M38.3333 27.6641H37V28.9974H38.3333V27.6641Z" fill="black"/>
<path d="M38.3333 25H37V26.3333H38.3333V25Z" fill="black"/>
<path d="M30.332 37V38.3333H33.6654C33.8422 38.3333 34.0117 38.263 34.1368 38.138C34.2618 38.013 34.332 37.8434 34.332 37.6666V27.2761L35.1939 28.1381L36.1368 27.1952L34.1368 25.1952C34.0117 25.0702 33.8422 25 33.6654 25C33.4886 25 33.319 25.0702 33.1939 25.1952L31.1939 27.1952L32.1368 28.1381L32.9987 27.2761V37H30.332Z" fill="black"/>
<path d="M29.0013 37H27.668V38.3333H29.0013V37Z" fill="black"/>
<path d="M27.8632 42.1407L29.8632 44.1407L30.8061 43.1978L29.9442 42.3359H37.668C37.8448 42.3359 38.0144 42.2657 38.1394 42.1407C38.2644 42.0156 38.3346 41.8461 38.3347 41.6693V30.3359H37.0013V41.0026H29.9442L30.8061 40.1407L29.8632 39.1978L27.8632 41.1978C27.7382 41.3229 27.668 41.4925 27.668 41.6693C27.668 41.8461 27.7382 42.0157 27.8632 42.1407Z" fill="black"/>
</svg>
