<svg width="41" height="41" viewBox="0 0 41 41" fill="none" xmlns="http://www.w3.org/2000/svg">
<g clip-path="url(#clip0_7231_36663)">
<path d="M22.8293 3.20485C22.345 3.13034 22.4661 2.39458 22.941 2.46908C27.3091 3.14897 31.2207 5.4494 33.9775 8.8395C34.1079 8.99783 34.08 9.23067 33.9216 9.36106C33.7633 9.49145 33.5305 9.46351 33.4001 9.30518C30.7551 6.05477 27.011 3.85679 22.8293 3.20485ZM36.0544 13.8967C35.8775 13.4404 36.576 13.1796 36.7436 13.6359C38.3176 17.7432 38.3176 22.2695 36.7436 26.3768C36.5667 26.8331 35.8775 26.5631 36.0544 26.116C37.5539 22.195 37.5632 17.8177 36.0544 13.8967ZM33.4001 30.6982C33.5305 30.5399 33.7633 30.512 33.9216 30.6424C34.08 30.7727 34.1079 31.0056 33.9775 31.1639C31.2207 34.5633 27.3091 36.8545 22.941 37.5343C22.4567 37.6088 22.345 36.8731 22.8293 36.7986C27.0017 36.1559 30.7644 33.9486 33.4001 30.6982ZM17.5206 36.8079C18.0049 36.8824 17.8931 37.6182 17.4088 37.5436C13.0408 36.8638 9.12916 34.5726 6.38168 31.1732C6.25129 31.0149 6.27923 30.7821 6.43756 30.6517C6.59589 30.5213 6.82873 30.5492 6.95912 30.7076C9.59483 33.958 13.3389 36.1559 17.5206 36.8079ZM4.29546 26.116C4.47242 26.5724 3.77391 26.8331 3.60626 26.3768C2.03229 22.2695 2.03229 17.7432 3.60626 13.6359C3.78322 13.1796 4.47242 13.4497 4.30478 13.8967C2.79599 17.8177 2.78668 22.195 4.29546 26.116ZM6.9498 9.31449C6.81942 9.47282 6.58658 9.50076 6.42825 9.37037C6.26992 9.23998 6.24198 9.00715 6.37237 8.84882C9.12916 5.45871 13.0315 3.15828 17.3995 2.4784C17.8838 2.40389 17.9956 3.13965 17.5113 3.21416C13.3482 3.85679 9.58552 6.06409 6.9498 9.31449ZM6.75422 11.885L10.0978 13.7943C10.5262 14.0364 10.1536 14.6884 9.72522 14.4369L6.36305 12.5183C5.45965 13.431 3.89498 13.0213 3.5597 11.7732C3.17784 10.3483 4.71457 9.14685 6.00914 9.89193C6.70765 10.3017 7.015 11.1399 6.75422 11.885ZM33.5677 28.2302L30.2242 26.2836C29.7958 26.0322 30.1776 25.3896 30.5967 25.641L33.9216 27.5782C34.7971 26.5631 36.4549 26.9542 36.7995 28.2395C37.0417 29.1336 36.5108 30.0463 35.6167 30.2884C34.3594 30.6144 33.2231 29.4689 33.5677 28.2302ZM4.72388 12.1644C5.43171 12.5556 6.27923 11.9036 6.07434 11.112C6.00914 10.8698 5.86944 10.6836 5.64592 10.5439C4.93809 10.1341 4.06263 10.786 4.28615 11.587C4.34203 11.8384 4.49105 12.0154 4.72388 12.1644ZM34.2849 28.9101C34.4804 29.6551 35.5142 29.9066 35.9985 29.1056C36.2407 28.7145 36.0731 28.0905 35.6726 27.8763C34.8437 27.4292 34.08 28.165 34.2849 28.9101ZM6.42825 27.5689L9.75316 25.6317C10.1723 25.3896 10.5541 26.0322 10.1257 26.2743L6.78216 28.2209C7.12676 29.4595 5.9812 30.6144 4.7332 30.2791C3.30823 29.8973 3.02883 27.9601 4.33272 27.215C5.03123 26.8145 5.91601 26.9728 6.42825 27.5689ZM33.9868 12.5183L30.6247 14.4462C30.1962 14.6884 29.8237 14.0457 30.2521 13.8036L33.5957 11.8943C33.1579 10.637 34.3221 9.389 35.6074 9.7336C37.0603 10.1248 37.2745 12.0899 36.0079 12.7977C35.3373 13.1703 34.5177 13.0585 33.9868 12.5183ZM5.65523 29.4595C6.34443 29.0404 6.20473 27.9787 5.41308 27.7645C4.668 27.5689 3.93224 28.3326 4.37928 29.1522C4.59349 29.5527 5.2175 29.7203 5.60866 29.4782C5.62729 29.4782 5.6366 29.4689 5.65523 29.4595ZM34.9368 12.2389C35.6912 12.4438 36.4083 11.6522 35.9706 10.8512C35.7378 10.4321 35.1231 10.2831 34.7412 10.5159C33.931 11.0095 34.201 12.0433 34.9368 12.2389ZM19.8583 35.6903L19.8397 31.8438C19.8397 31.3595 20.5847 31.3502 20.5847 31.8438L20.6034 35.7182C21.8421 36.0442 22.2798 37.5995 21.3671 38.5216C20.3053 39.5647 18.4985 38.8196 18.4985 37.3294C18.4985 36.5192 19.076 35.8393 19.8583 35.6903ZM20.6034 4.30384L20.5847 8.17825C20.5847 8.67186 19.8397 8.66255 19.8397 8.17825L19.8583 4.33178C18.5544 4.08032 18.0422 2.45977 18.9921 1.50048C20.0446 0.448058 21.8514 1.19314 21.8514 2.68329C21.8514 3.447 21.3205 4.10826 20.6034 4.30384ZM21.1063 37.3294C21.1063 36.5005 20.1097 36.0907 19.523 36.6682C18.9363 37.2549 19.3554 38.2515 20.1749 38.2515C20.6872 38.2608 21.1063 37.8417 21.1063 37.3294ZM20.8269 3.33524C21.4136 2.74849 20.9945 1.75195 20.1656 1.75195C19.346 1.75195 18.9269 2.74849 19.5137 3.33524C19.8769 3.69846 20.473 3.69846 20.8269 3.33524ZM27.2532 13.6453C26.6385 13.9153 26.0052 14.1575 25.3439 14.3624C25.94 15.8898 26.3125 17.6966 26.3498 19.6431H29.684C29.6002 17.3334 28.6968 15.2379 27.2532 13.6453ZM24.6268 14.558C23.3136 14.9026 21.9445 15.0982 20.5475 15.1261V19.6338H25.614C25.5674 17.7525 25.2135 16.0109 24.6268 14.558ZM19.8024 15.1261C18.4054 15.0982 17.0363 14.9026 15.7231 14.558C15.1364 16.0109 14.7824 17.7525 14.7452 19.6338H19.8024V15.1261ZM15.006 14.3531C14.354 14.1482 13.7114 13.9154 13.0967 13.6359C11.6531 15.2379 10.7497 17.3241 10.6659 19.6245H14.0001C14.0374 17.6873 14.4006 15.8805 15.006 14.3531ZM13.6555 13.0771C14.1864 13.3007 14.7452 13.5056 15.304 13.6732C15.7976 12.6301 16.4402 11.6708 17.2505 10.9443C15.9001 11.3821 14.6707 12.1178 13.6555 13.0771ZM16.0304 13.8688C17.2505 14.1761 18.5078 14.3531 19.8024 14.3717V10.5066C18.1819 10.7115 16.8687 12.1365 16.0304 13.8688ZM20.5475 14.381C21.8421 14.3531 23.1087 14.1854 24.3194 13.8781C23.4812 12.1458 22.168 10.7115 20.5475 10.5159V14.381ZM25.0459 13.6732C25.614 13.5056 26.1635 13.3007 26.6944 13.0771C25.6792 12.1178 24.4498 11.3821 23.0901 10.9443C23.9096 11.6615 24.5523 12.6208 25.0459 13.6732ZM13.0967 26.3675C13.7114 26.0974 14.3447 25.8552 15.006 25.6503C14.4006 24.1322 14.0374 22.3161 14.0001 20.3696H10.6659C10.7497 22.6793 11.6531 24.7749 13.0967 26.3675ZM15.7231 25.4548C17.0363 25.1102 18.4054 24.9146 19.8024 24.8866V20.3789H14.7452C14.7824 22.2602 15.1364 24.0018 15.7231 25.4548ZM20.5475 24.8866C21.9445 24.9146 23.3136 25.1102 24.6268 25.4548C25.2135 24.0018 25.5674 22.2602 25.6047 20.3789H20.5475V24.8866ZM25.3439 25.6596C25.9959 25.8645 26.6385 26.0974 27.2532 26.3768C28.6968 24.7749 29.6002 22.6886 29.684 20.3882H26.3498C26.3125 22.3254 25.9493 24.1322 25.3439 25.6596ZM26.6944 26.9449C26.1635 26.7214 25.614 26.5165 25.0459 26.3488C24.5523 27.392 23.9096 28.3512 23.0901 29.0777C24.4498 28.6306 25.6792 27.8949 26.6944 26.9449ZM24.3194 26.1439C23.0994 25.8366 21.8421 25.6596 20.5475 25.641V29.5061C22.168 29.3105 23.4812 27.8763 24.3194 26.1439ZM19.8024 25.6317C18.5078 25.6596 17.2505 25.8273 16.0304 26.1346C16.8687 27.8669 18.1819 29.3012 19.8024 29.4968V25.6317ZM15.304 26.3488C14.7359 26.5165 14.1864 26.7214 13.6555 26.9449C14.6707 27.9042 15.9001 28.6306 17.2598 29.0684C16.4402 28.3512 15.7976 27.392 15.304 26.3488ZM20.1749 9.74291C25.8469 9.74291 30.4384 14.3438 30.4384 20.0064C30.4384 25.669 25.8375 30.2698 20.1749 30.2698C14.5123 30.2698 9.91149 25.6783 9.91149 20.0064C9.91149 14.3345 14.503 9.74291 20.1749 9.74291Z" fill="url(#paint0_linear_7231_36663)"/>
<path d="M22.8293 3.20485C22.345 3.13034 22.4661 2.39458 22.941 2.46908C27.3091 3.14897 31.2207 5.4494 33.9775 8.8395C34.1079 8.99783 34.08 9.23067 33.9216 9.36106C33.7633 9.49145 33.5305 9.46351 33.4001 9.30518C30.7551 6.05477 27.011 3.85679 22.8293 3.20485ZM36.0544 13.8967C35.8775 13.4404 36.576 13.1796 36.7436 13.6359C38.3176 17.7432 38.3176 22.2695 36.7436 26.3768C36.5667 26.8331 35.8775 26.5631 36.0544 26.116C37.5539 22.195 37.5632 17.8177 36.0544 13.8967ZM33.4001 30.6982C33.5305 30.5399 33.7633 30.512 33.9216 30.6424C34.08 30.7727 34.1079 31.0056 33.9775 31.1639C31.2207 34.5633 27.3091 36.8545 22.941 37.5343C22.4567 37.6088 22.345 36.8731 22.8293 36.7986C27.0017 36.1559 30.7644 33.9486 33.4001 30.6982ZM17.5206 36.8079C18.0049 36.8824 17.8931 37.6182 17.4088 37.5436C13.0408 36.8638 9.12916 34.5726 6.38168 31.1732C6.25129 31.0149 6.27923 30.7821 6.43756 30.6517C6.59589 30.5213 6.82873 30.5492 6.95912 30.7076C9.59483 33.958 13.3389 36.1559 17.5206 36.8079ZM4.29546 26.116C4.47242 26.5724 3.77391 26.8331 3.60626 26.3768C2.03229 22.2695 2.03229 17.7432 3.60626 13.6359C3.78322 13.1796 4.47242 13.4497 4.30478 13.8967C2.79599 17.8177 2.78668 22.195 4.29546 26.116ZM6.9498 9.31449C6.81942 9.47282 6.58658 9.50076 6.42825 9.37037C6.26992 9.23998 6.24198 9.00715 6.37237 8.84882C9.12916 5.45871 13.0315 3.15828 17.3995 2.4784C17.8838 2.40389 17.9956 3.13965 17.5113 3.21416C13.3482 3.85679 9.58552 6.06409 6.9498 9.31449ZM6.75422 11.885L10.0978 13.7943C10.5262 14.0364 10.1536 14.6884 9.72522 14.4369L6.36305 12.5183C5.45965 13.431 3.89498 13.0213 3.5597 11.7732C3.17784 10.3483 4.71457 9.14685 6.00914 9.89193C6.70765 10.3017 7.015 11.1399 6.75422 11.885ZM33.5677 28.2302L30.2242 26.2836C29.7958 26.0322 30.1776 25.3896 30.5967 25.641L33.9216 27.5782C34.7971 26.5631 36.4549 26.9542 36.7995 28.2395C37.0417 29.1336 36.5108 30.0463 35.6167 30.2884C34.3594 30.6144 33.2231 29.4689 33.5677 28.2302ZM4.72388 12.1644C5.43171 12.5556 6.27923 11.9036 6.07434 11.112C6.00914 10.8698 5.86944 10.6836 5.64592 10.5439C4.93809 10.1341 4.06263 10.786 4.28615 11.587C4.34203 11.8384 4.49105 12.0154 4.72388 12.1644ZM34.2849 28.9101C34.4804 29.6551 35.5142 29.9066 35.9985 29.1056C36.2407 28.7145 36.0731 28.0905 35.6726 27.8763C34.8437 27.4292 34.08 28.165 34.2849 28.9101ZM6.42825 27.5689L9.75316 25.6317C10.1723 25.3896 10.5541 26.0322 10.1257 26.2743L6.78216 28.2209C7.12676 29.4595 5.9812 30.6144 4.7332 30.2791C3.30823 29.8973 3.02883 27.9601 4.33272 27.215C5.03123 26.8145 5.91601 26.9728 6.42825 27.5689ZM33.9868 12.5183L30.6247 14.4462C30.1962 14.6884 29.8237 14.0457 30.2521 13.8036L33.5957 11.8943C33.1579 10.637 34.3221 9.389 35.6074 9.7336C37.0603 10.1248 37.2745 12.0899 36.0079 12.7977C35.3373 13.1703 34.5177 13.0585 33.9868 12.5183ZM5.65523 29.4595C6.34443 29.0404 6.20473 27.9787 5.41308 27.7645C4.668 27.5689 3.93224 28.3326 4.37928 29.1522C4.59349 29.5527 5.2175 29.7203 5.60866 29.4782C5.62729 29.4782 5.6366 29.4689 5.65523 29.4595ZM34.9368 12.2389C35.6912 12.4438 36.4083 11.6522 35.9706 10.8512C35.7378 10.4321 35.1231 10.2831 34.7412 10.5159C33.931 11.0095 34.201 12.0433 34.9368 12.2389ZM19.8583 35.6903L19.8397 31.8438C19.8397 31.3595 20.5847 31.3502 20.5847 31.8438L20.6034 35.7182C21.8421 36.0442 22.2798 37.5995 21.3671 38.5216C20.3053 39.5647 18.4985 38.8196 18.4985 37.3294C18.4985 36.5192 19.076 35.8393 19.8583 35.6903ZM20.6034 4.30384L20.5847 8.17825C20.5847 8.67186 19.8397 8.66255 19.8397 8.17825L19.8583 4.33178C18.5544 4.08032 18.0422 2.45977 18.9921 1.50048C20.0446 0.448058 21.8514 1.19314 21.8514 2.68329C21.8514 3.447 21.3205 4.10826 20.6034 4.30384ZM21.1063 37.3294C21.1063 36.5005 20.1097 36.0907 19.523 36.6682C18.9363 37.2549 19.3554 38.2515 20.1749 38.2515C20.6872 38.2608 21.1063 37.8417 21.1063 37.3294ZM20.8269 3.33524C21.4136 2.74849 20.9945 1.75195 20.1656 1.75195C19.346 1.75195 18.9269 2.74849 19.5137 3.33524C19.8769 3.69846 20.473 3.69846 20.8269 3.33524ZM27.2532 13.6453C26.6385 13.9153 26.0052 14.1575 25.3439 14.3624C25.94 15.8898 26.3125 17.6966 26.3498 19.6431H29.684C29.6002 17.3334 28.6968 15.2379 27.2532 13.6453ZM24.6268 14.558C23.3136 14.9026 21.9445 15.0982 20.5475 15.1261V19.6338H25.614C25.5674 17.7525 25.2135 16.0109 24.6268 14.558ZM19.8024 15.1261C18.4054 15.0982 17.0363 14.9026 15.7231 14.558C15.1364 16.0109 14.7824 17.7525 14.7452 19.6338H19.8024V15.1261ZM15.006 14.3531C14.354 14.1482 13.7114 13.9154 13.0967 13.6359C11.6531 15.2379 10.7497 17.3241 10.6659 19.6245H14.0001C14.0374 17.6873 14.4006 15.8805 15.006 14.3531ZM13.6555 13.0771C14.1864 13.3007 14.7452 13.5056 15.304 13.6732C15.7976 12.6301 16.4402 11.6708 17.2505 10.9443C15.9001 11.3821 14.6707 12.1178 13.6555 13.0771ZM16.0304 13.8688C17.2505 14.1761 18.5078 14.3531 19.8024 14.3717V10.5066C18.1819 10.7115 16.8687 12.1365 16.0304 13.8688ZM20.5475 14.381C21.8421 14.3531 23.1087 14.1854 24.3194 13.8781C23.4812 12.1458 22.168 10.7115 20.5475 10.5159V14.381ZM25.0459 13.6732C25.614 13.5056 26.1635 13.3007 26.6944 13.0771C25.6792 12.1178 24.4498 11.3821 23.0901 10.9443C23.9096 11.6615 24.5523 12.6208 25.0459 13.6732ZM13.0967 26.3675C13.7114 26.0974 14.3447 25.8552 15.006 25.6503C14.4006 24.1322 14.0374 22.3161 14.0001 20.3696H10.6659C10.7497 22.6793 11.6531 24.7749 13.0967 26.3675ZM15.7231 25.4548C17.0363 25.1102 18.4054 24.9146 19.8024 24.8866V20.3789H14.7452C14.7824 22.2602 15.1364 24.0018 15.7231 25.4548ZM20.5475 24.8866C21.9445 24.9146 23.3136 25.1102 24.6268 25.4548C25.2135 24.0018 25.5674 22.2602 25.6047 20.3789H20.5475V24.8866ZM25.3439 25.6596C25.9959 25.8645 26.6385 26.0974 27.2532 26.3768C28.6968 24.7749 29.6002 22.6886 29.684 20.3882H26.3498C26.3125 22.3254 25.9493 24.1322 25.3439 25.6596ZM26.6944 26.9449C26.1635 26.7214 25.614 26.5165 25.0459 26.3488C24.5523 27.392 23.9096 28.3512 23.0901 29.0777C24.4498 28.6306 25.6792 27.8949 26.6944 26.9449ZM24.3194 26.1439C23.0994 25.8366 21.8421 25.6596 20.5475 25.641V29.5061C22.168 29.3105 23.4812 27.8763 24.3194 26.1439ZM19.8024 25.6317C18.5078 25.6596 17.2505 25.8273 16.0304 26.1346C16.8687 27.8669 18.1819 29.3012 19.8024 29.4968V25.6317ZM15.304 26.3488C14.7359 26.5165 14.1864 26.7214 13.6555 26.9449C14.6707 27.9042 15.9001 28.6306 17.2598 29.0684C16.4402 28.3512 15.7976 27.392 15.304 26.3488ZM20.1749 9.74291C25.8469 9.74291 30.4384 14.3438 30.4384 20.0064C30.4384 25.669 25.8375 30.2698 20.1749 30.2698C14.5123 30.2698 9.91149 25.6783 9.91149 20.0064C9.91149 14.3345 14.503 9.74291 20.1749 9.74291Z" fill="black" fill-opacity="0.2"/>
</g>
<defs>
<linearGradient id="paint0_linear_7231_36663" x1="20.1749" y1="1.00781" x2="20.1749" y2="39.0078" gradientUnits="userSpaceOnUse">
<stop stop-color="#FF0F0F"/>
<stop offset="1" stop-color="#FF4849"/>
</linearGradient>
<clipPath id="clip0_7231_36663">
<rect width="39.7513" height="40.3589" fill="white" transform="translate(0.796875 -0.0078125)"/>
</clipPath>
</defs>
</svg>
