<svg width="40" height="41" viewBox="0 0 40 41" fill="none" xmlns="http://www.w3.org/2000/svg">
<g clip-path="url(#clip0_7231_36728)">
<path d="M28.0367 15.3962C27.6959 15.3962 27.4171 15.675 27.4171 16.0158C27.4171 23.2031 21.5619 29.0892 14.3436 29.0892C7.12534 29.0892 1.27017 23.234 1.27017 16.0467C1.27017 9.13826 6.62966 3.49995 13.4142 3.03525L12.8566 3.46897C12.5778 3.68582 12.5158 4.08856 12.7327 4.36738C12.8566 4.52228 13.0425 4.61522 13.2283 4.61522C13.3523 4.61522 13.5072 4.58424 13.6001 4.4913L15.7067 2.88035C15.8616 2.75643 15.9546 2.57055 15.9546 2.3537C15.9546 2.13684 15.8306 1.95096 15.6757 1.85802L13.5691 0.463932C13.2903 0.278053 12.8876 0.340013 12.7017 0.64981C12.5158 0.928628 12.5778 1.33136 12.8876 1.51724L13.3213 1.79606C5.88615 2.29174 0 8.48768 0 16.0467C0 23.9466 6.4128 30.3594 14.3126 30.3594C22.2125 30.3594 28.6563 23.9466 28.6563 16.0467C28.6563 15.706 28.3774 15.3962 28.0367 15.3962Z" fill="url(#paint0_linear_7231_36728)"/>
<path d="M27.5401 13.5099C27.9679 13.5099 28.3146 13.1632 28.3146 12.7354C28.3146 12.3077 27.9679 11.9609 27.5401 11.9609C27.1124 11.9609 26.7656 12.3077 26.7656 12.7354C26.7656 13.1632 27.1124 13.5099 27.5401 13.5099Z" fill="url(#paint1_linear_7231_36728)"/>
<path d="M26.5479 10.6271C26.9757 10.6271 27.3224 10.2804 27.3224 9.85262C27.3224 9.42488 26.9757 9.07812 26.5479 9.07812C26.1202 9.07812 25.7734 9.42488 25.7734 9.85262C25.7734 10.2804 26.1202 10.6271 26.5479 10.6271Z" fill="url(#paint2_linear_7231_36728)"/>
<path d="M24.6925 7.9318C25.1202 7.9318 25.467 7.58505 25.467 7.15731C25.467 6.72956 25.1202 6.38281 24.6925 6.38281C24.2647 6.38281 23.918 6.72956 23.918 7.15731C23.918 7.58505 24.2647 7.9318 24.6925 7.9318Z" fill="url(#paint3_linear_7231_36728)"/>
<path d="M22.1182 5.60367C22.546 5.60367 22.8927 5.25692 22.8927 4.82918C22.8927 4.40144 22.546 4.05469 22.1182 4.05469C21.6905 4.05469 21.3438 4.40144 21.3438 4.82918C21.3438 5.25692 21.6905 5.60367 22.1182 5.60367Z" fill="url(#paint4_linear_7231_36728)"/>
<path d="M19.0518 3.9943C19.4796 3.9943 19.8263 3.64755 19.8263 3.21981C19.8263 2.79206 19.4796 2.44531 19.0518 2.44531C18.6241 2.44531 18.2773 2.79206 18.2773 3.21981C18.2773 3.64755 18.6241 3.9943 19.0518 3.9943Z" fill="url(#paint5_linear_7231_36728)"/>
<path d="M19.8277 12.949C19.8277 12.6082 19.5489 12.2984 19.1771 12.2984H10.7816L12.2067 10.8734C12.4545 10.6255 12.4545 10.2228 12.2067 9.97494C12.0827 9.85102 11.9278 9.78906 11.742 9.78906C11.5871 9.78906 11.4012 9.85102 11.2773 9.97494L8.76791 12.4843C8.52007 12.7321 8.52007 13.1349 8.76791 13.3827L11.2773 15.9231C11.4012 16.047 11.5561 16.1089 11.742 16.1089C11.9278 16.1089 12.0827 16.047 12.2067 15.9231C12.3306 15.7991 12.3925 15.6442 12.3925 15.4584C12.3925 15.2725 12.3306 15.1176 12.2067 14.9937L10.7816 13.5376H19.1771C19.5179 13.5996 19.8277 13.2898 19.8277 12.949Z" fill="url(#paint6_linear_7231_36728)"/>
<path d="M16.8513 22.648C17.0372 22.648 17.1921 22.586 17.316 22.4621L19.8254 19.9218C20.0732 19.6739 20.0732 19.2712 19.8254 19.0234L17.316 16.514C17.0682 16.2662 16.6655 16.2662 16.4176 16.514C16.1698 16.7618 16.1698 17.1646 16.4176 17.4124L17.8427 18.8375H9.4162C9.07542 18.8375 8.76562 19.1163 8.76562 19.4881C8.76562 19.8288 9.04444 20.1386 9.4162 20.1386H17.8117L16.3866 21.5947C16.2627 21.7186 16.2008 21.8735 16.2008 22.0594C16.2008 22.2453 16.2627 22.4002 16.3866 22.5241C16.5106 22.586 16.6655 22.648 16.8513 22.648Z" fill="url(#paint7_linear_7231_36728)"/>
</g>
<defs>
<linearGradient id="paint0_linear_7231_36728" x1="22.3264" y1="0.359375" x2="22.1824" y2="36.7882" gradientUnits="userSpaceOnUse">
<stop stop-color="#005CAA"/>
<stop offset="1" stop-color="#64B0F1"/>
</linearGradient>
<linearGradient id="paint1_linear_7231_36728" x1="27.9725" y1="11.9609" x2="27.9654" y2="13.8419" gradientUnits="userSpaceOnUse">
<stop stop-color="#005CAA"/>
<stop offset="1" stop-color="#64B0F1"/>
</linearGradient>
<linearGradient id="paint2_linear_7231_36728" x1="26.9803" y1="9.07812" x2="26.9732" y2="10.9591" gradientUnits="userSpaceOnUse">
<stop stop-color="#005CAA"/>
<stop offset="1" stop-color="#64B0F1"/>
</linearGradient>
<linearGradient id="paint3_linear_7231_36728" x1="25.1248" y1="6.38281" x2="25.1177" y2="8.26374" gradientUnits="userSpaceOnUse">
<stop stop-color="#005CAA"/>
<stop offset="1" stop-color="#64B0F1"/>
</linearGradient>
<linearGradient id="paint4_linear_7231_36728" x1="22.5506" y1="4.05469" x2="22.5435" y2="5.93561" gradientUnits="userSpaceOnUse">
<stop stop-color="#005CAA"/>
<stop offset="1" stop-color="#64B0F1"/>
</linearGradient>
<linearGradient id="paint5_linear_7231_36728" x1="19.4842" y1="2.44531" x2="19.4771" y2="4.32624" gradientUnits="userSpaceOnUse">
<stop stop-color="#005CAA"/>
<stop offset="1" stop-color="#64B0F1"/>
</linearGradient>
<linearGradient id="paint6_linear_7231_36728" x1="17.3436" y1="9.78906" x2="17.3273" y2="17.4633" gradientUnits="userSpaceOnUse">
<stop stop-color="#005CAA"/>
<stop offset="1" stop-color="#64B0F1"/>
</linearGradient>
<linearGradient id="paint7_linear_7231_36728" x1="17.5272" y1="16.3281" x2="17.5109" y2="24.0024" gradientUnits="userSpaceOnUse">
<stop stop-color="#005CAA"/>
<stop offset="1" stop-color="#64B0F1"/>
</linearGradient>
<clipPath id="clip0_7231_36728">
<rect width="39.7513" height="40.3589" fill="white" transform="translate(0.09375 -0.0078125)"/>
</clipPath>
</defs>
</svg>
