<svg width="40" height="41" viewBox="0 0 40 41" fill="none" xmlns="http://www.w3.org/2000/svg">
<g clip-path="url(#clip0_7231_36677)">
<path d="M19.8535 31.0472C19.9012 31.0602 19.95 31.0668 19.9994 31.0668C20.0488 31.0668 20.0976 31.0602 20.1454 31.0472C31.9471 27.8286 29.681 13.6063 29.6571 13.4631C29.618 13.2325 29.4384 13.0511 29.2084 13.0093C22.7821 11.8407 20.4481 9.1543 20.4269 9.12934C20.3217 9.00293 20.1654 8.93023 20.001 8.92969H19.9989C19.835 8.92969 19.6793 9.00239 19.5735 9.12744C19.5507 9.1543 17.2167 11.8407 10.7904 13.0093C10.5604 13.0511 10.3808 13.2325 10.3417 13.4631C10.3179 13.6063 8.0517 27.8286 19.8535 31.0472ZM11.3829 14.0282C16.487 13.0294 19.0592 11.1261 19.9994 10.2706C20.9396 11.1261 23.5118 13.0294 28.616 14.0282C28.9002 16.2539 29.7683 27.1605 19.9994 29.9345C10.2305 27.1605 11.0986 16.2539 11.3829 14.0282Z" fill="url(#paint0_linear_7231_36677)"/>
<path d="M19.8535 31.0472C19.9012 31.0602 19.95 31.0668 19.9994 31.0668C20.0488 31.0668 20.0976 31.0602 20.1454 31.0472C31.9471 27.8286 29.681 13.6063 29.6571 13.4631C29.618 13.2325 29.4384 13.0511 29.2084 13.0093C22.7821 11.8407 20.4481 9.1543 20.4269 9.12934C20.3217 9.00293 20.1654 8.93023 20.001 8.92969H19.9989C19.835 8.92969 19.6793 9.00239 19.5735 9.12744C19.5507 9.1543 17.2167 11.8407 10.7904 13.0093C10.5604 13.0511 10.3808 13.2325 10.3417 13.4631C10.3179 13.6063 8.0517 27.8286 19.8535 31.0472ZM11.3829 14.0282C16.487 13.0294 19.0592 11.1261 19.9994 10.2706C20.9396 11.1261 23.5118 13.0294 28.616 14.0282C28.9002 16.2539 29.7683 27.1605 19.9994 29.9345C10.2305 27.1605 11.0986 16.2539 11.3829 14.0282Z" fill="black" fill-opacity="0.2"/>
<path d="M17.411 23.8187H22.5901C22.8971 23.8187 23.1456 23.57 23.1456 23.2632V19.4437C23.1456 19.1369 22.8971 18.8882 22.5901 18.8882H22.4197V18.8101C22.4197 17.476 21.3346 16.3906 20.0005 16.3906C18.6665 16.3906 17.5814 17.476 17.5814 18.8101V18.8882H17.411C17.1039 18.8882 16.8555 19.1369 16.8555 19.4437V23.2632C16.8555 23.57 17.1039 23.8187 17.411 23.8187ZM22.0345 22.7076H17.9666V19.9993H22.0345V22.7076ZM18.6925 18.8101C18.6925 18.0888 19.2795 17.5017 20.0005 17.5017C20.7216 17.5017 21.3086 18.0888 21.3086 18.8101V18.8882H18.6925V18.8101Z" fill="url(#paint1_linear_7231_36677)"/>
<path d="M17.411 23.8187H22.5901C22.8971 23.8187 23.1456 23.57 23.1456 23.2632V19.4437C23.1456 19.1369 22.8971 18.8882 22.5901 18.8882H22.4197V18.8101C22.4197 17.476 21.3346 16.3906 20.0005 16.3906C18.6665 16.3906 17.5814 17.476 17.5814 18.8101V18.8882H17.411C17.1039 18.8882 16.8555 19.1369 16.8555 19.4437V23.2632C16.8555 23.57 17.1039 23.8187 17.411 23.8187ZM22.0345 22.7076H17.9666V19.9993H22.0345V22.7076ZM18.6925 18.8101C18.6925 18.0888 19.2795 17.5017 20.0005 17.5017C20.7216 17.5017 21.3086 18.0888 21.3086 18.8101V18.8882H18.6925V18.8101Z" fill="black" fill-opacity="0.2"/>
<path d="M20.0009 22.1901C20.3079 22.1901 20.5564 21.9414 20.5564 21.6345V21.079C20.5564 20.7722 20.3079 20.5234 20.0009 20.5234C19.6938 20.5234 19.4453 20.7722 19.4453 21.079V21.6345C19.4453 21.9414 19.6938 22.1901 20.0009 22.1901Z" fill="url(#paint2_linear_7231_36677)"/>
<path d="M20.0009 22.1901C20.3079 22.1901 20.5564 21.9414 20.5564 21.6345V21.079C20.5564 20.7722 20.3079 20.5234 20.0009 20.5234C19.6938 20.5234 19.4453 20.7722 19.4453 21.079V21.6345C19.4453 21.9414 19.6938 22.1901 20.0009 22.1901Z" fill="black" fill-opacity="0.2"/>
<path d="M28.839 28.8372C28.4717 29.2045 28.2693 29.6928 28.2693 30.2123C28.2693 30.4927 28.3328 30.7619 28.4449 31.01C26.0308 32.8621 23.0559 33.8874 20 33.8874C12.3416 33.8874 6.11111 27.6569 6.11111 19.9985C6.11111 17.5751 6.7391 15.2085 7.93173 13.12C8.0814 12.858 8.00575 12.5263 7.74974 12.3665C7.48512 12.2013 7.1302 12.2828 6.9752 12.5536C5.68125 14.8137 5 17.3755 5 19.9985C5 28.2695 11.7291 34.9985 20 34.9985C23.3222 34.9985 26.5564 33.877 29.173 31.8512C29.4897 32.0524 29.851 32.1556 30.2138 32.1556C30.7118 32.1556 31.2093 31.966 31.5886 31.5873C31.9559 31.22 32.1582 30.7318 32.1582 30.2123C32.1582 29.6928 31.9559 29.2045 31.5886 28.8372C30.8301 28.0793 29.5975 28.0798 28.839 28.8372ZM30.803 30.8015C30.4785 31.1265 29.949 31.1262 29.6246 30.8012C29.4673 30.6441 29.3804 30.4347 29.3804 30.2123C29.3804 29.9898 29.4673 29.7804 29.6246 29.6231C29.7868 29.4606 30.0006 29.3795 30.2138 29.3795C30.427 29.3795 30.6408 29.4606 30.803 29.6231C30.9603 29.7802 31.0471 29.9898 31.0471 30.2123C31.0471 30.4347 30.9603 30.6441 30.803 30.8015Z" fill="url(#paint3_linear_7231_36677)"/>
<path d="M28.839 28.8372C28.4717 29.2045 28.2693 29.6928 28.2693 30.2123C28.2693 30.4927 28.3328 30.7619 28.4449 31.01C26.0308 32.8621 23.0559 33.8874 20 33.8874C12.3416 33.8874 6.11111 27.6569 6.11111 19.9985C6.11111 17.5751 6.7391 15.2085 7.93173 13.12C8.0814 12.858 8.00575 12.5263 7.74974 12.3665C7.48512 12.2013 7.1302 12.2828 6.9752 12.5536C5.68125 14.8137 5 17.3755 5 19.9985C5 28.2695 11.7291 34.9985 20 34.9985C23.3222 34.9985 26.5564 33.877 29.173 31.8512C29.4897 32.0524 29.851 32.1556 30.2138 32.1556C30.7118 32.1556 31.2093 31.966 31.5886 31.5873C31.9559 31.22 32.1582 30.7318 32.1582 30.2123C32.1582 29.6928 31.9559 29.2045 31.5886 28.8372C30.8301 28.0793 29.5975 28.0798 28.839 28.8372ZM30.803 30.8015C30.4785 31.1265 29.949 31.1262 29.6246 30.8012C29.4673 30.6441 29.3804 30.4347 29.3804 30.2123C29.3804 29.9898 29.4673 29.7804 29.6246 29.6231C29.7868 29.4606 30.0006 29.3795 30.2138 29.3795C30.427 29.3795 30.6408 29.4606 30.803 29.6231C30.9603 29.7802 31.0471 29.9898 31.0471 30.2123C31.0471 30.4347 30.9603 30.6441 30.803 30.8015Z" fill="black" fill-opacity="0.2"/>
<path d="M20.002 5C16.6804 5 13.4463 6.12139 10.8293 8.14735C10.0776 7.67009 9.06896 7.75655 8.41341 8.41119C8.04612 8.77849 7.84375 9.26677 7.84375 9.78625C7.84375 10.3057 8.04612 10.794 8.41341 11.161C8.79264 11.5403 9.29015 11.7296 9.7882 11.7296C10.2862 11.7296 10.7837 11.54 11.163 11.1613C11.5303 10.794 11.7326 10.3057 11.7326 9.78625C11.7326 9.50586 11.6692 9.23669 11.5572 8.98862C13.9712 7.13633 16.9462 6.11111 20.002 6.11111C27.6604 6.11111 33.8909 12.3416 33.8909 20C33.8909 22.4234 33.2629 24.79 32.0703 26.8785C31.9206 27.1406 31.9962 27.4722 32.2522 27.632C32.5169 27.7972 32.8718 27.7157 33.0268 27.445C34.3207 25.1849 35.002 22.6231 35.002 20C35.002 11.7291 28.2729 5 20.002 5ZM10.3774 10.3754C10.053 10.7004 9.52344 10.7001 9.199 10.3752C9.04167 10.2181 8.95486 10.0087 8.95486 9.78625C8.95486 9.56381 9.04167 9.35439 9.199 9.19705C9.36122 9.03456 9.57498 8.95345 9.7882 8.95345C10.0014 8.95345 10.2152 9.03456 10.3774 9.19705C10.5347 9.35412 10.6215 9.56381 10.6215 9.78625C10.6215 10.0087 10.5347 10.2181 10.3774 10.3754Z" fill="url(#paint4_linear_7231_36677)"/>
<path d="M20.002 5C16.6804 5 13.4463 6.12139 10.8293 8.14735C10.0776 7.67009 9.06896 7.75655 8.41341 8.41119C8.04612 8.77849 7.84375 9.26677 7.84375 9.78625C7.84375 10.3057 8.04612 10.794 8.41341 11.161C8.79264 11.5403 9.29015 11.7296 9.7882 11.7296C10.2862 11.7296 10.7837 11.54 11.163 11.1613C11.5303 10.794 11.7326 10.3057 11.7326 9.78625C11.7326 9.50586 11.6692 9.23669 11.5572 8.98862C13.9712 7.13633 16.9462 6.11111 20.002 6.11111C27.6604 6.11111 33.8909 12.3416 33.8909 20C33.8909 22.4234 33.2629 24.79 32.0703 26.8785C31.9206 27.1406 31.9962 27.4722 32.2522 27.632C32.5169 27.7972 32.8718 27.7157 33.0268 27.445C34.3207 25.1849 35.002 22.6231 35.002 20C35.002 11.7291 28.2729 5 20.002 5ZM10.3774 10.3754C10.053 10.7004 9.52344 10.7001 9.199 10.3752C9.04167 10.2181 8.95486 10.0087 8.95486 9.78625C8.95486 9.56381 9.04167 9.35439 9.199 9.19705C9.36122 9.03456 9.57498 8.95345 9.7882 8.95345C10.0014 8.95345 10.2152 9.03456 10.3774 9.19705C10.5347 9.35412 10.6215 9.56381 10.6215 9.78625C10.6215 10.0087 10.5347 10.2181 10.3774 10.3754Z" fill="black" fill-opacity="0.2"/>
</g>
<defs>
<linearGradient id="paint0_linear_7231_36677" x1="19.9994" y1="8.92969" x2="19.9994" y2="31.0668" gradientUnits="userSpaceOnUse">
<stop stop-color="#FF0F0F"/>
<stop offset="1" stop-color="#FF4849"/>
</linearGradient>
<linearGradient id="paint1_linear_7231_36677" x1="20.0005" y1="16.3906" x2="20.0005" y2="23.8187" gradientUnits="userSpaceOnUse">
<stop stop-color="#FF0F0F"/>
<stop offset="1" stop-color="#FF4849"/>
</linearGradient>
<linearGradient id="paint2_linear_7231_36677" x1="20.0009" y1="20.5234" x2="20.0009" y2="22.1901" gradientUnits="userSpaceOnUse">
<stop stop-color="#FF0F0F"/>
<stop offset="1" stop-color="#FF4849"/>
</linearGradient>
<linearGradient id="paint3_linear_7231_36677" x1="18.5791" y1="12.2812" x2="18.5791" y2="34.9985" gradientUnits="userSpaceOnUse">
<stop stop-color="#FF0F0F"/>
<stop offset="1" stop-color="#FF4849"/>
</linearGradient>
<linearGradient id="paint4_linear_7231_36677" x1="21.4229" y1="5" x2="21.4229" y2="27.7173" gradientUnits="userSpaceOnUse">
<stop stop-color="#FF0F0F"/>
<stop offset="1" stop-color="#FF4849"/>
</linearGradient>
<clipPath id="clip0_7231_36677">
<rect width="39.7513" height="40.3589" fill="white" transform="translate(0.09375 -0.0078125)"/>
</clipPath>
</defs>
</svg>
