<svg width="41" height="41" viewBox="0 0 41 41" fill="none" xmlns="http://www.w3.org/2000/svg">
<g clip-path="url(#clip0_7231_36698)">
<path d="M10.0425 29.7231L18.0465 34.2514C18.9496 34.7626 19.9696 35.0312 21.0073 35.0312C22.0449 35.0312 23.065 34.7626 23.968 34.2514L31.972 29.7231C32.8939 29.2003 33.661 28.4428 34.1953 27.5275C34.7296 26.6123 35.0121 25.5718 35.014 24.512V15.536C35.0126 14.476 34.7302 13.4354 34.1958 12.52C33.6613 11.6046 32.8939 10.8472 31.9715 10.3249L23.9675 5.79664C23.0612 5.29463 22.0423 5.03125 21.0063 5.03125C19.9703 5.03125 18.9513 5.29463 18.045 5.79664L10.041 10.3254C9.11901 10.8479 8.35187 11.6053 7.8177 12.5205C7.28353 13.4358 7.00139 14.4763 7 15.536V24.512C7.00155 25.572 7.28392 26.6126 7.81836 27.5279C8.35279 28.4433 9.12022 29.2007 10.0425 29.7231ZM8.0005 15.536C8.00178 14.6532 8.23697 13.7864 8.68214 13.0241C9.1273 12.2617 9.76654 11.6309 10.5348 11.1958L18.5388 6.66658C19.2917 6.24044 20.1421 6.01647 21.0073 6.01647C21.8724 6.01647 22.7228 6.24044 23.4757 6.66658L31.4797 11.1953C32.2479 11.6305 32.8871 12.2614 33.3322 13.0239C33.7773 13.7863 34.0124 14.6531 34.0135 15.536V24.512C34.0121 25.3948 33.7769 26.2614 33.3319 27.0238C32.8868 27.7861 32.2478 28.417 31.4797 28.8522L23.4757 33.3809C22.7203 33.799 21.8711 34.0184 21.0078 34.0184C20.1444 34.0184 19.2952 33.799 18.5398 33.3809L10.5358 28.8522C9.76739 28.4172 9.12798 27.7865 8.68264 27.0241C8.2373 26.2617 8.00193 25.3949 8.0005 24.512V15.536Z" fill="url(#paint0_linear_7231_36698)"/>
<path d="M10.0425 29.7231L18.0465 34.2514C18.9496 34.7626 19.9696 35.0312 21.0073 35.0312C22.0449 35.0312 23.065 34.7626 23.968 34.2514L31.972 29.7231C32.8939 29.2003 33.661 28.4428 34.1953 27.5275C34.7296 26.6123 35.0121 25.5718 35.014 24.512V15.536C35.0126 14.476 34.7302 13.4354 34.1958 12.52C33.6613 11.6046 32.8939 10.8472 31.9715 10.3249L23.9675 5.79664C23.0612 5.29463 22.0423 5.03125 21.0063 5.03125C19.9703 5.03125 18.9513 5.29463 18.045 5.79664L10.041 10.3254C9.11901 10.8479 8.35187 11.6053 7.8177 12.5205C7.28353 13.4358 7.00139 14.4763 7 15.536V24.512C7.00155 25.572 7.28392 26.6126 7.81836 27.5279C8.35279 28.4433 9.12022 29.2007 10.0425 29.7231ZM8.0005 15.536C8.00178 14.6532 8.23697 13.7864 8.68214 13.0241C9.1273 12.2617 9.76654 11.6309 10.5348 11.1958L18.5388 6.66658C19.2917 6.24044 20.1421 6.01647 21.0073 6.01647C21.8724 6.01647 22.7228 6.24044 23.4757 6.66658L31.4797 11.1953C32.2479 11.6305 32.8871 12.2614 33.3322 13.0239C33.7773 13.7863 34.0124 14.6531 34.0135 15.536V24.512C34.0121 25.3948 33.7769 26.2614 33.3319 27.0238C32.8868 27.7861 32.2478 28.417 31.4797 28.8522L23.4757 33.3809C22.7203 33.799 21.8711 34.0184 21.0078 34.0184C20.1444 34.0184 19.2952 33.799 18.5398 33.3809L10.5358 28.8522C9.76739 28.4172 9.12798 27.7865 8.68264 27.0241C8.2373 26.2617 8.00193 25.3949 8.0005 24.512V15.536Z" fill="black" fill-opacity="0.2"/>
<path d="M11.2729 27.5496L19.2769 32.0783C19.8048 32.3751 20.4002 32.5311 21.0058 32.5311C21.6114 32.5311 22.2068 32.3751 22.7346 32.0783L30.7386 27.5496C31.2759 27.2456 31.723 26.8047 32.0344 26.2717C32.3458 25.7388 32.5105 25.1328 32.5115 24.5155V15.5395C32.5105 14.9223 32.3459 14.3163 32.0345 13.7833C31.723 13.2503 31.2759 12.8094 30.7386 12.5055L22.7346 7.97626C22.2068 7.67939 21.6114 7.52344 21.0058 7.52344C20.4001 7.52344 19.8047 7.67939 19.2769 7.97626L11.2729 12.5055C10.7356 12.8094 10.2885 13.2503 9.97703 13.7833C9.6656 14.3163 9.501 14.9223 9.5 15.5395V24.5155C9.50105 25.1328 9.66567 25.7388 9.9771 26.2717C10.2885 26.8047 10.7356 27.2456 11.2729 27.5496ZM17.7646 21.0013L15.0263 18.2629C14.9714 18.2077 14.9044 18.1661 14.8307 18.1413L14.0523 17.8822C13.9718 17.8539 13.9019 17.8015 13.8522 17.7321L12.5015 15.8387L13.3164 15.0248L15.2079 16.3755C15.277 16.4244 15.3281 16.4947 15.3534 16.5756L15.6136 17.356C15.6384 17.4296 15.6798 17.4965 15.7346 17.5516L18.5045 20.3274L17.7646 21.0013ZM20.6826 19.6911C20.7572 19.6232 20.8094 19.5342 20.8326 19.436C20.8557 19.3378 20.8486 19.2349 20.8122 19.1408C20.5366 18.4281 20.4473 17.6569 20.5525 16.9001C20.6578 16.1433 20.9541 15.4257 21.4137 14.8152C21.8732 14.2047 22.4807 13.7214 23.1789 13.4108C23.877 13.1003 24.6428 12.9727 25.404 13.0403C25.4473 13.0434 25.4887 13.0594 25.523 13.0861C25.5573 13.1128 25.5829 13.1491 25.5965 13.1904C25.6133 13.2348 25.6167 13.2831 25.6065 13.3295C25.5963 13.3758 25.5729 13.4182 25.539 13.4515L23.5935 15.3975C23.1243 15.8667 22.8606 16.5032 22.8606 17.1669C22.8606 17.4955 22.9254 17.8209 23.0511 18.1244C23.1769 18.428 23.3612 18.7039 23.5935 18.9362C23.8259 19.1686 24.1018 19.3529 24.4053 19.4787C24.7089 19.6044 25.0343 19.6691 25.3629 19.6691C26.0266 19.6691 26.663 19.4055 27.1323 18.9362L29.0783 16.9908C29.1129 16.9562 29.1567 16.9323 29.2045 16.9218C29.2523 16.9114 29.302 16.9148 29.3479 16.9317C29.3868 16.9441 29.4213 16.9676 29.4469 16.9993C29.4725 17.0311 29.4882 17.0697 29.492 17.1103C29.562 17.8725 29.4364 18.6399 29.127 19.34C28.8176 20.0401 28.3347 20.6497 27.724 21.111C27.1133 21.5724 26.395 21.8703 25.637 21.9765C24.879 22.0827 24.1065 21.9938 23.3924 21.7181C23.2984 21.6817 23.1955 21.6745 23.0973 21.6975C22.9991 21.7205 22.9102 21.7727 22.8422 21.8472L16.1678 29.1699L12.547 27.1188L20.6826 19.6911ZM22.6536 23.543L27.7876 27.8027C27.8479 27.8559 27.9043 27.9134 27.9562 27.9748L24.8157 29.7517L21.0883 25.2599L22.6536 23.543ZM22.2424 31.2079C21.8646 31.4197 21.4388 31.5309 21.0058 31.5309C20.5727 31.5309 20.1469 31.4197 19.7691 31.2079L17.0613 29.6756L20.4055 26.0063L23.9292 30.2519L22.2424 31.2079ZM10.5005 15.5395C10.501 15.099 10.6184 14.6665 10.8405 14.2861C11.0627 13.9056 11.3817 13.5909 11.7651 13.374L19.7691 8.8447C20.1469 8.63283 20.5727 8.52156 21.0058 8.52156C21.4388 8.52156 21.8647 8.63283 22.2424 8.8447L30.2464 13.374C30.6298 13.5909 30.9488 13.9056 31.171 14.2861C31.3931 14.6665 31.5105 15.099 31.511 15.5395V24.5155C31.5103 24.956 31.3929 25.3884 31.1708 25.7687C30.9486 26.149 30.6297 26.4637 30.2464 26.6806L28.8457 27.4735C28.7231 27.3107 28.5821 27.1627 28.4255 27.0323L23.3289 22.8032L23.3589 22.7697C24.223 23.0422 25.1411 23.0971 26.0314 22.9292C26.9218 22.7614 27.7569 22.3762 28.4625 21.8077C29.1681 21.2393 29.7222 20.5053 30.0757 19.671C30.4291 18.8368 30.5709 17.9281 30.4885 17.0258C30.4682 16.7953 30.3819 16.5755 30.24 16.3927C30.098 16.21 29.9064 16.072 29.6881 15.9953C29.4637 15.9121 29.22 15.8954 28.9863 15.9471C28.7526 15.9988 28.5388 16.1168 28.3704 16.2869L26.4245 18.2329C26.1428 18.5146 25.7608 18.6728 25.3624 18.6728C24.9641 18.6728 24.5821 18.5146 24.3004 18.2329C24.0187 17.9512 23.8605 17.5692 23.8605 17.1709C23.8605 16.7725 24.0187 16.3905 24.3004 16.1088L26.2444 14.1654C26.4143 13.9985 26.5324 13.786 26.5843 13.5535C26.6363 13.3211 26.6198 13.0785 26.537 12.8552C26.4596 12.634 26.3199 12.4399 26.1348 12.2962C25.9497 12.1525 25.727 12.0654 25.4935 12.0453C24.592 11.9648 23.6846 12.1081 22.8518 12.4626C22.019 12.8171 21.2867 13.3718 20.7199 14.0774C20.1531 14.783 19.7693 15.6177 19.6027 16.5073C19.436 17.3969 19.4916 18.3139 19.7646 19.1769L19.2444 19.6516L16.5255 16.9307L16.3034 16.2659C16.2119 15.9821 16.0309 15.7355 15.7876 15.5631L13.9022 14.2149C13.7095 14.0767 13.4741 14.0109 13.2376 14.0292C13.0012 14.0475 12.7787 14.1487 12.6096 14.3149L11.7941 15.1303C11.6269 15.298 11.5244 15.5194 11.5045 15.7554C11.4846 15.9913 11.5488 16.2267 11.6856 16.42L13.0363 18.3099C13.2089 18.5529 13.4541 18.7351 13.7366 18.8302L14.405 19.0528L17.0253 21.6781L11.6386 26.5956C11.2908 26.371 11.0045 26.0631 10.8058 25.6999C10.6071 25.3366 10.5021 24.9296 10.5005 24.5155V15.5395Z" fill="url(#paint1_linear_7231_36698)"/>
<path d="M11.2729 27.5496L19.2769 32.0783C19.8048 32.3751 20.4002 32.5311 21.0058 32.5311C21.6114 32.5311 22.2068 32.3751 22.7346 32.0783L30.7386 27.5496C31.2759 27.2456 31.723 26.8047 32.0344 26.2717C32.3458 25.7388 32.5105 25.1328 32.5115 24.5155V15.5395C32.5105 14.9223 32.3459 14.3163 32.0345 13.7833C31.723 13.2503 31.2759 12.8094 30.7386 12.5055L22.7346 7.97626C22.2068 7.67939 21.6114 7.52344 21.0058 7.52344C20.4001 7.52344 19.8047 7.67939 19.2769 7.97626L11.2729 12.5055C10.7356 12.8094 10.2885 13.2503 9.97703 13.7833C9.6656 14.3163 9.501 14.9223 9.5 15.5395V24.5155C9.50105 25.1328 9.66567 25.7388 9.9771 26.2717C10.2885 26.8047 10.7356 27.2456 11.2729 27.5496ZM17.7646 21.0013L15.0263 18.2629C14.9714 18.2077 14.9044 18.1661 14.8307 18.1413L14.0523 17.8822C13.9718 17.8539 13.9019 17.8015 13.8522 17.7321L12.5015 15.8387L13.3164 15.0248L15.2079 16.3755C15.277 16.4244 15.3281 16.4947 15.3534 16.5756L15.6136 17.356C15.6384 17.4296 15.6798 17.4965 15.7346 17.5516L18.5045 20.3274L17.7646 21.0013ZM20.6826 19.6911C20.7572 19.6232 20.8094 19.5342 20.8326 19.436C20.8557 19.3378 20.8486 19.2349 20.8122 19.1408C20.5366 18.4281 20.4473 17.6569 20.5525 16.9001C20.6578 16.1433 20.9541 15.4257 21.4137 14.8152C21.8732 14.2047 22.4807 13.7214 23.1789 13.4108C23.877 13.1003 24.6428 12.9727 25.404 13.0403C25.4473 13.0434 25.4887 13.0594 25.523 13.0861C25.5573 13.1128 25.5829 13.1491 25.5965 13.1904C25.6133 13.2348 25.6167 13.2831 25.6065 13.3295C25.5963 13.3758 25.5729 13.4182 25.539 13.4515L23.5935 15.3975C23.1243 15.8667 22.8606 16.5032 22.8606 17.1669C22.8606 17.4955 22.9254 17.8209 23.0511 18.1244C23.1769 18.428 23.3612 18.7039 23.5935 18.9362C23.8259 19.1686 24.1018 19.3529 24.4053 19.4787C24.7089 19.6044 25.0343 19.6691 25.3629 19.6691C26.0266 19.6691 26.663 19.4055 27.1323 18.9362L29.0783 16.9908C29.1129 16.9562 29.1567 16.9323 29.2045 16.9218C29.2523 16.9114 29.302 16.9148 29.3479 16.9317C29.3868 16.9441 29.4213 16.9676 29.4469 16.9993C29.4725 17.0311 29.4882 17.0697 29.492 17.1103C29.562 17.8725 29.4364 18.6399 29.127 19.34C28.8176 20.0401 28.3347 20.6497 27.724 21.111C27.1133 21.5724 26.395 21.8703 25.637 21.9765C24.879 22.0827 24.1065 21.9938 23.3924 21.7181C23.2984 21.6817 23.1955 21.6745 23.0973 21.6975C22.9991 21.7205 22.9102 21.7727 22.8422 21.8472L16.1678 29.1699L12.547 27.1188L20.6826 19.6911ZM22.6536 23.543L27.7876 27.8027C27.8479 27.8559 27.9043 27.9134 27.9562 27.9748L24.8157 29.7517L21.0883 25.2599L22.6536 23.543ZM22.2424 31.2079C21.8646 31.4197 21.4388 31.5309 21.0058 31.5309C20.5727 31.5309 20.1469 31.4197 19.7691 31.2079L17.0613 29.6756L20.4055 26.0063L23.9292 30.2519L22.2424 31.2079ZM10.5005 15.5395C10.501 15.099 10.6184 14.6665 10.8405 14.2861C11.0627 13.9056 11.3817 13.5909 11.7651 13.374L19.7691 8.8447C20.1469 8.63283 20.5727 8.52156 21.0058 8.52156C21.4388 8.52156 21.8647 8.63283 22.2424 8.8447L30.2464 13.374C30.6298 13.5909 30.9488 13.9056 31.171 14.2861C31.3931 14.6665 31.5105 15.099 31.511 15.5395V24.5155C31.5103 24.956 31.3929 25.3884 31.1708 25.7687C30.9486 26.149 30.6297 26.4637 30.2464 26.6806L28.8457 27.4735C28.7231 27.3107 28.5821 27.1627 28.4255 27.0323L23.3289 22.8032L23.3589 22.7697C24.223 23.0422 25.1411 23.0971 26.0314 22.9292C26.9218 22.7614 27.7569 22.3762 28.4625 21.8077C29.1681 21.2393 29.7222 20.5053 30.0757 19.671C30.4291 18.8368 30.5709 17.9281 30.4885 17.0258C30.4682 16.7953 30.3819 16.5755 30.24 16.3927C30.098 16.21 29.9064 16.072 29.6881 15.9953C29.4637 15.9121 29.22 15.8954 28.9863 15.9471C28.7526 15.9988 28.5388 16.1168 28.3704 16.2869L26.4245 18.2329C26.1428 18.5146 25.7608 18.6728 25.3624 18.6728C24.9641 18.6728 24.5821 18.5146 24.3004 18.2329C24.0187 17.9512 23.8605 17.5692 23.8605 17.1709C23.8605 16.7725 24.0187 16.3905 24.3004 16.1088L26.2444 14.1654C26.4143 13.9985 26.5324 13.786 26.5843 13.5535C26.6363 13.3211 26.6198 13.0785 26.537 12.8552C26.4596 12.634 26.3199 12.4399 26.1348 12.2962C25.9497 12.1525 25.727 12.0654 25.4935 12.0453C24.592 11.9648 23.6846 12.1081 22.8518 12.4626C22.019 12.8171 21.2867 13.3718 20.7199 14.0774C20.1531 14.783 19.7693 15.6177 19.6027 16.5073C19.436 17.3969 19.4916 18.3139 19.7646 19.1769L19.2444 19.6516L16.5255 16.9307L16.3034 16.2659C16.2119 15.9821 16.0309 15.7355 15.7876 15.5631L13.9022 14.2149C13.7095 14.0767 13.4741 14.0109 13.2376 14.0292C13.0012 14.0475 12.7787 14.1487 12.6096 14.3149L11.7941 15.1303C11.6269 15.298 11.5244 15.5194 11.5045 15.7554C11.4846 15.9913 11.5488 16.2267 11.6856 16.42L13.0363 18.3099C13.2089 18.5529 13.4541 18.7351 13.7366 18.8302L14.405 19.0528L17.0253 21.6781L11.6386 26.5956C11.2908 26.371 11.0045 26.0631 10.8058 25.6999C10.6071 25.3366 10.5021 24.9296 10.5005 24.5155V15.5395Z" fill="black" fill-opacity="0.2"/>
</g>
<defs>
<linearGradient id="paint0_linear_7231_36698" x1="21.007" y1="5.03125" x2="21.007" y2="35.0312" gradientUnits="userSpaceOnUse">
<stop stop-color="#FF0F0F"/>
<stop offset="1" stop-color="#FF4849"/>
</linearGradient>
<linearGradient id="paint1_linear_7231_36698" x1="21.0058" y1="7.52344" x2="21.0058" y2="32.5311" gradientUnits="userSpaceOnUse">
<stop stop-color="#FF0F0F"/>
<stop offset="1" stop-color="#FF4849"/>
</linearGradient>
<clipPath id="clip0_7231_36698">
<rect width="39.7513" height="40.3589" fill="white" transform="translate(0.945312 -0.0078125)"/>
</clipPath>
</defs>
</svg>
