<svg width="41" height="41" viewBox="0 0 41 41" fill="none" xmlns="http://www.w3.org/2000/svg">
<g clip-path="url(#clip0_7231_36714)">
<path d="M32.2569 8.3261C30.8933 6.96427 29.2061 5.97125 27.3535 5.44025C25.5009 4.90926 23.5438 4.8577 21.6659 5.29042C19.7879 5.72314 18.0507 6.62594 16.6173 7.91409C15.1839 9.20224 14.1013 10.8335 13.4712 12.6547C11.5742 13.1534 9.83867 14.1348 8.43357 15.5034C7.02847 16.8719 6.00169 18.581 5.45319 20.4642C4.90468 22.3474 4.85316 24.3405 5.30363 26.2495C5.7541 28.1585 6.69121 29.9184 8.02373 31.3577C9.35624 32.797 11.0387 33.8668 12.9074 34.4628C14.7761 35.0589 16.7673 35.1609 18.6871 34.7589C20.6069 34.357 22.39 33.4647 23.8626 32.1691C25.3352 30.8735 26.4473 29.2187 27.0905 27.3657C29.0271 26.8596 30.7959 25.8512 32.2179 24.4424C33.6399 23.0336 34.6649 21.2744 35.1891 19.3425C35.7133 17.4107 35.7182 15.3747 35.2034 13.4403C34.6885 11.5059 33.6721 9.74175 32.2569 8.3261ZM26.4435 23.6503C26.4445 24.5395 26.3267 25.4249 26.0931 26.2829C25.4757 26.4016 24.8483 26.4603 24.2197 26.4582C23.6164 26.4586 23.0142 26.4052 22.4204 26.2987L26.3604 22.3587C26.4164 22.7869 26.4441 23.2184 26.4435 23.6503ZM20.9918 25.9303C19.5882 25.4605 18.3073 24.683 17.2427 23.6548L23.9209 16.9766C24.9179 18.0949 25.6476 19.4253 26.0549 20.8671L20.9918 25.9303ZM16.3779 22.7226C15.4163 21.5456 14.737 20.164 14.3922 18.6837L19.1318 13.9441C20.5737 14.3514 21.904 15.0811 23.0224 16.078L16.3779 22.7226ZM14.154 17.1248C14.1338 16.8755 14.1248 16.6194 14.1248 16.3633C14.1223 15.4743 14.2386 14.5889 14.4708 13.7307C15.5159 13.5337 16.5855 13.5026 17.6403 13.6386L14.154 17.1248ZM16.3487 33.7451C13.9596 33.7434 11.6486 32.8946 9.82635 31.3495C8.00415 29.8044 6.78887 27.6633 6.39655 25.3067C6.00422 22.95 6.46028 20.5306 7.68365 18.4785C8.90701 16.4265 10.8184 14.8747 13.0781 14.0991C12.8023 15.4724 12.7802 16.8846 13.0129 18.2659C13.0935 18.7583 13.2076 19.2447 13.3544 19.7215C13.7944 21.151 14.5153 22.4783 15.4749 23.6256C15.6973 23.8929 15.9331 24.1512 16.1824 24.4006C16.2341 24.4522 16.288 24.5061 16.3419 24.5556C17.396 25.5742 18.638 26.3783 19.9989 26.9231C20.4402 27.1002 20.8927 27.248 21.3534 27.3657C22.2895 27.6082 23.2527 27.7305 24.2197 27.7296C24.6884 27.7302 25.1566 27.7002 25.6214 27.6397C24.8403 29.4513 23.5462 30.9948 21.8984 32.0797C20.2507 33.1646 18.3215 33.7435 16.3487 33.7451ZM31.3584 23.502C30.272 24.5944 28.9483 25.4214 27.4903 25.9191C27.6394 25.172 27.7146 24.4121 27.7149 23.6503C27.7158 22.8461 27.6308 22.0441 27.4611 21.258C27.3636 20.7813 27.2323 20.3121 27.068 19.8541C26.4994 18.2591 25.5833 16.8104 24.3859 15.6131C23.1885 14.4157 21.7399 13.4996 20.1449 12.931C19.6869 12.7667 19.2177 12.6354 18.741 12.5379C17.9549 12.3682 17.1529 12.2831 16.3487 12.2841C15.8786 12.284 15.4091 12.3125 14.9425 12.3694C15.5307 11.0036 16.4132 9.78456 17.5271 8.79939C18.6411 7.81422 19.9588 7.08724 21.3863 6.6704C22.8137 6.25355 24.3156 6.15714 25.7847 6.38803C27.2537 6.61892 28.6536 7.17143 29.8843 8.00608C31.1151 8.84072 32.1463 9.9369 32.9043 11.2163C33.6623 12.4957 34.1283 13.9267 34.2691 15.4071C34.41 16.8875 34.2221 18.3807 33.7189 19.78C33.2157 21.1794 32.4097 22.4503 31.3584 23.502Z" fill="url(#paint0_linear_7231_36714)"/>
</g>
<defs>
<linearGradient id="paint0_linear_7231_36714" x1="28.8298" y1="5" x2="28.6949" y2="41.4288" gradientUnits="userSpaceOnUse">
<stop stop-color="#005CAA"/>
<stop offset="1" stop-color="#64B0F1"/>
</linearGradient>
<clipPath id="clip0_7231_36714">
<rect width="39.7513" height="40.3589" fill="white" transform="translate(0.796875 -0.0078125)"/>
</clipPath>
</defs>
</svg>
