<svg width="41" height="41" viewBox="0 0 41 41" fill="none" xmlns="http://www.w3.org/2000/svg">
<g clip-path="url(#clip0_7231_36751)">
<path d="M29.7826 21.9896V18.0435H30.4348C30.6077 18.0435 30.7736 17.9748 30.8959 17.8525C31.0182 17.7302 31.087 17.5643 31.087 17.3913V10.8696C31.087 10.6966 31.0182 10.5307 30.8959 10.4084C30.7736 10.2861 30.6077 10.2174 30.4348 10.2174H23.913V5.65217C23.913 5.47921 23.8443 5.31332 23.722 5.19102C23.5997 5.06871 23.4338 5 23.2609 5H12.8261C12.6531 5 12.4872 5.06871 12.3649 5.19102C12.2426 5.31332 12.1739 5.47921 12.1739 5.65217V10.2174H5.65217C5.47921 10.2174 5.31332 10.2861 5.19102 10.4084C5.06871 10.5307 5 10.6966 5 10.8696V17.3913C5 17.5643 5.06871 17.7302 5.19102 17.8525C5.31332 17.9748 5.47921 18.0435 5.65217 18.0435H6.30435V34.3478C6.30435 34.5208 6.37306 34.6867 6.49537 34.809C6.61767 34.9313 6.78355 35 6.95652 35H29.1304C30.8029 34.9991 32.4112 34.3556 33.6227 33.2026C34.8343 32.0496 35.5566 30.4752 35.6403 28.8048C35.724 27.1344 35.1628 25.4956 34.0726 24.2272C32.9824 22.9589 31.4466 22.1578 29.7826 21.9896ZM22.6087 6.30435V13.4783H21.4348V9.49348C21.4348 9.47854 21.4273 9.46602 21.4262 9.45128C21.4221 9.40652 21.4132 9.36233 21.3996 9.31948C21.3905 9.28085 21.3777 9.24316 21.3615 9.20691C21.3095 9.09415 21.2218 9.00161 21.112 8.94357C21.0747 8.91953 21.0349 8.89953 20.9933 8.88389C20.9792 8.87894 20.9689 8.8683 20.9542 8.86433C20.7677 8.8133 20.5952 8.72092 20.4493 8.59405C20.3035 8.46718 20.1881 8.30907 20.1117 8.13148C20.0783 8.05282 20.0297 7.9815 19.9688 7.92154C19.9002 7.87453 19.8309 7.82839 19.7611 7.78315C19.6809 7.74946 19.5947 7.73225 19.5077 7.73254H16.5788C16.4918 7.73225 16.4057 7.74946 16.3255 7.78315C16.2556 7.82839 16.1864 7.87453 16.1177 7.92154C16.0568 7.9815 16.0083 8.05282 15.9748 8.13148C15.8985 8.30907 15.7831 8.46718 15.6372 8.59405C15.4914 8.72092 15.3188 8.8133 15.1324 8.86433C15.1178 8.86837 15.1075 8.879 15.0932 8.88389C15.0517 8.89953 15.0119 8.91953 14.9745 8.94357C14.9023 8.98174 14.8392 9.03511 14.7895 9.1C14.7399 9.1649 14.7049 9.23977 14.6869 9.31948C14.6733 9.36233 14.6644 9.40652 14.6603 9.45128C14.6593 9.46602 14.6518 9.47854 14.6518 9.49348V13.4783H13.4783V6.30435H22.6087ZM15.9565 13.4783V9.93043C16.3605 9.72461 16.7035 9.41656 16.9514 9.03696H19.1358C19.3836 9.41653 19.7266 9.72457 20.1304 9.93043V13.4783H15.9565ZM6.30435 11.5217H12.1739V13.4783H10.8696C10.6966 13.4783 10.5307 13.547 10.4084 13.6693C10.2861 13.7916 10.2174 13.9575 10.2174 14.1304C10.2174 14.3034 10.2861 14.4693 10.4084 14.5916C10.5307 14.7139 10.6966 14.7826 10.8696 14.7826H25.2174C25.3904 14.7826 25.5562 14.7139 25.6785 14.5916C25.8009 14.4693 25.8696 14.3034 25.8696 14.1304C25.8696 13.9575 25.8009 13.7916 25.6785 13.6693C25.5562 13.547 25.3904 13.4783 25.2174 13.4783H23.913V11.5217H29.7826V16.7391H6.30435V11.5217ZM7.6087 33.6957V18.0435H28.4783V21.9896C27.5579 22.0828 26.6684 22.3725 25.8696 22.839V21.3043C25.8696 21.1314 25.8009 20.9655 25.6785 20.8432C25.5562 20.7209 25.3904 20.6522 25.2174 20.6522H10.8696C10.6966 20.6522 10.5307 20.7209 10.4084 20.8432C10.2861 20.9655 10.2174 21.1314 10.2174 21.3043V30.4348C10.2174 30.6077 10.2861 30.7736 10.4084 30.8959C10.5307 31.0182 10.6966 31.087 10.8696 31.087H23.157C23.6128 32.1211 24.3283 33.0198 25.2341 33.6957H7.6087ZM22.7401 29.7826H11.5217V21.9565H24.5652V23.8287C23.7878 24.5896 23.2134 25.5332 22.8946 26.5733C22.5757 27.6133 22.5226 28.7167 22.7401 29.7826ZM29.1304 33.6957C28.0985 33.6957 27.0898 33.3897 26.2318 32.8164C25.3738 32.2431 24.7051 31.4282 24.3102 30.4749C23.9153 29.5215 23.812 28.4725 24.0133 27.4604C24.2146 26.4483 24.7115 25.5187 25.4412 24.789C26.1708 24.0593 27.1005 23.5624 28.1126 23.3611C29.1246 23.1598 30.1737 23.2631 31.127 23.658C32.0804 24.0529 32.8952 24.7216 33.4685 25.5796C34.0418 26.4376 34.3478 27.4464 34.3478 28.4783C34.3462 29.8615 33.796 31.1877 32.8179 32.1658C31.8398 33.1439 30.5137 33.6941 29.1304 33.6957Z" fill="url(#paint0_linear_7231_36751)"/>
<path d="M29.5935 26.0577C29.4709 25.9357 29.3049 25.8672 29.1319 25.8672C28.9589 25.8672 28.793 25.9357 28.6704 26.0577L26.7143 28.0138C26.5955 28.1368 26.5298 28.3016 26.5313 28.4726C26.5328 28.6436 26.6013 28.8071 26.7223 28.9281C26.8432 29.049 27.0068 29.1176 27.1778 29.1191C27.3488 29.1205 27.5135 29.0548 27.6365 28.936L28.4798 28.0928V30.4314C28.4798 30.6044 28.5485 30.7703 28.6708 30.8926C28.7931 31.0149 28.959 31.0836 29.1319 31.0836C29.3049 31.0836 29.4708 31.0149 29.5931 30.8926C29.7154 30.7703 29.7841 30.6044 29.7841 30.4314V28.0928L30.6274 28.936C30.7504 29.0548 30.9151 29.1205 31.0861 29.1191C31.2571 29.1176 31.4207 29.049 31.5416 28.9281C31.6625 28.8071 31.7311 28.6436 31.7326 28.4726C31.7341 28.3016 31.6683 28.1368 31.5495 28.0138L29.5935 26.0577Z" fill="url(#paint1_linear_7231_36751)"/>
</g>
<defs>
<linearGradient id="paint0_linear_7231_36751" x1="28.8785" y1="5" x2="28.744" y2="41.4288" gradientUnits="userSpaceOnUse">
<stop stop-color="#005CAA"/>
<stop offset="1" stop-color="#64B0F1"/>
</linearGradient>
<linearGradient id="paint1_linear_7231_36751" x1="30.5837" y1="25.8672" x2="30.5597" y2="32.2015" gradientUnits="userSpaceOnUse">
<stop stop-color="#005CAA"/>
<stop offset="1" stop-color="#64B0F1"/>
</linearGradient>
<clipPath id="clip0_7231_36751">
<rect width="39.7513" height="40.3589" fill="white" transform="translate(0.945312 -0.0078125)"/>
</clipPath>
</defs>
</svg>
