<svg width="60" height="60" viewBox="0 0 60 60" fill="none" xmlns="http://www.w3.org/2000/svg">
<path d="M27.8203 11.9619C27.8203 15.249 30.4943 17.9231 33.7815 17.9231C37.0687 17.9231 39.7434 15.2491 39.7434 11.9619C39.7434 8.67478 37.0686 6 33.7815 6C30.4944 6 27.8203 8.67478 27.8203 11.9619ZM38.2434 11.9619C38.2434 14.4221 36.2417 16.4231 33.7815 16.4231C31.3213 16.4231 29.3203 14.4221 29.3203 11.9619C29.3203 9.50175 31.3213 7.5 33.7815 7.5C36.2417 7.5 38.2434 9.50175 38.2434 11.9619Z" fill="black"/>
<path d="M45.2391 12.1911C44.8165 12.1515 44.4561 12.4431 44.4107 12.8539C44.3316 13.5717 44.1639 14.0265 43.8306 14.4242C43.5655 14.7421 43.6072 15.2153 43.9251 15.4811C44.0657 15.5982 44.2364 15.6553 44.4056 15.6553C44.6202 15.6553 44.8333 15.5637 44.982 15.3866C45.6543 14.5816 45.8265 13.6983 45.9018 13.0194C45.9472 12.6071 45.6506 12.2364 45.239 12.191L45.2391 12.1911Z" fill="black"/>
<path d="M46.0004 17.4364C46.0736 17.4364 46.149 17.4254 46.223 17.4027C48.0973 16.8197 48.347 12.8463 48.2467 11.8311C48.2064 11.4188 47.8365 11.1259 47.4264 11.1588C47.0141 11.1998 46.713 11.5668 46.754 11.9791C46.8902 13.3494 46.2874 15.8119 45.7777 15.97C45.3822 16.093 45.161 16.5135 45.284 16.909C45.3843 17.2306 45.6803 17.4364 46.0004 17.4364Z" fill="black"/>
<path d="M15.984 17.1625C15.94 16.7509 15.5753 16.4514 15.1585 16.4967C14.7462 16.5407 14.4481 16.9105 14.4927 17.3222C14.5659 18.0063 14.741 18.8954 15.4485 19.7099C15.5964 19.8813 15.8052 19.9685 16.0146 19.9685C16.1889 19.9685 16.3647 19.9077 16.5061 19.7846C16.8188 19.513 16.8525 19.0398 16.5808 18.727C16.2336 18.3265 16.0601 17.8731 15.984 17.1625Z" fill="black"/>
<path d="M12.8524 15.4438C12.4452 15.3896 12.0688 15.6914 12.0226 16.1037C11.9105 17.0815 12.158 21.1142 14.0946 21.7016C14.1671 21.7235 14.2404 21.7339 14.3121 21.7339C14.6344 21.7339 14.9317 21.5251 15.0299 21.2014C15.15 20.8051 14.9259 20.3862 14.5296 20.266C13.9291 20.0837 13.3658 17.5626 13.5123 16.2736C13.5599 15.8619 13.264 15.4906 12.8523 15.4437L12.8524 15.4438Z" fill="black"/>
<path d="M32.9723 9.02344V9.19753C32.8246 9.24394 32.6837 9.30497 32.5519 9.38156C31.8349 9.79762 31.4877 10.6296 31.7264 11.3613C32.0421 12.3207 33.1371 12.6006 33.5488 12.7053C34.049 12.8334 34.3273 12.9579 34.3756 13.0751C34.3925 13.1162 34.3368 13.2692 34.2079 13.3462C34.0153 13.4612 33.7136 13.4766 33.3986 13.3879C33.0389 13.2861 32.6852 13.0707 32.3022 12.8378C31.9484 12.6233 31.4907 12.7383 31.2761 13.092C31.0607 13.4457 31.1779 13.9102 31.5317 14.1247C31.95 14.3796 32.4241 14.6662 32.9724 14.8249V14.9912C32.9724 15.4058 33.3078 15.7412 33.7224 15.7412C34.1369 15.7412 34.4724 15.4058 34.4724 14.9912V14.8422C34.6502 14.7911 34.822 14.7263 34.9763 14.6346C35.7373 14.1804 36.0749 13.265 35.7629 12.5039C35.4026 11.6316 34.4387 11.3847 33.9202 11.2522C33.2442 11.0793 33.1614 10.9225 33.1526 10.894C33.1453 10.861 33.1965 10.7409 33.3049 10.6779C33.4755 10.5798 33.7466 10.5637 34.0351 10.6384C34.3684 10.7233 34.7009 10.9116 35.0532 11.1108C35.4143 11.3115 35.8706 11.1869 36.0756 10.8266C36.2792 10.4655 36.1517 10.0085 35.7914 9.80419C35.4053 9.58659 34.9678 9.3435 34.4724 9.20606V9.02344C34.4724 8.60888 34.1369 8.27344 33.7224 8.27344C33.3078 8.27344 32.9724 8.60888 32.9724 9.02344H32.9723Z" fill="black"/>
<path d="M18.0625 30.75C16.8218 30.75 15.8125 31.7593 15.8125 33V51.75C15.8125 52.9907 16.8218 54 18.0625 54H39.0625C40.3032 54 41.3125 52.9907 41.3125 51.75V33C41.3125 31.7593 40.3032 30.75 39.0625 30.75H38.3125V29.1118C39.1836 28.8012 39.8125 27.9765 39.8125 27V26.25C39.8125 25.0093 38.8032 24 37.5625 24H19.5625C18.3218 24 17.3125 25.0093 17.3125 26.25V27C17.3125 27.9765 17.9414 28.8011 18.8125 29.1117V30.75H18.0625ZM36.8315 51.3677L35.7703 52.4289L35.7695 52.4282L35.2397 51.8983L36.3011 50.8373L36.8315 51.3677ZM34.1792 50.8378L33.6489 50.3074L34.7099 49.2464L35.2405 49.7769L34.1792 50.8378ZM32.5885 49.2468L32.0583 48.7164L33.1189 47.6557L33.6493 48.186L32.5885 49.2468ZM21.8125 48.0001H22.5625V49.5001H21.8125V48.0001ZM21.8125 45.0001H22.5625V46.5001H21.8125V45.0001ZM29.3125 46.1807C29.2307 46.2806 29.1618 46.3867 29.1097 46.5001H28.5625V45.0001H29.3125V46.1807ZM24.8125 48.0001V49.5001H24.0625V48.0001H24.8125ZM26.3125 48.0001H27.0625V49.5001H26.3125V48.0001ZM27.0625 46.5001H26.3125V45.0001H27.0625V46.5001ZM24.8125 46.5001H24.0625V45.0001H24.8125V46.5001ZM24.8125 51.0001V52.5001H24.0625V51.0001H24.8125ZM26.3125 51.0001H27.0625V52.5001H26.3125V51.0001ZM28.5625 48.0001H29.2549C29.2726 48.0245 29.2933 48.047 29.3125 48.0705V49.5001H28.5625V48.0001ZM30.9977 47.6559L30.4675 47.1256L31.528 46.0651L32.0583 46.5953L30.9977 47.6559ZM29.3125 43.5001H28.5625V42.0001H29.3125L29.314 43.5001H29.3125ZM27.0625 43.5001H26.3125V42.0001H27.0625V43.5001ZM24.8125 43.5001H24.0625V42.0001H24.8125V43.5001ZM22.5625 43.5001H21.8125V42.0001H22.5625V43.5001ZM21.8125 51.0001H22.5625V52.5001H21.8125V51.0001ZM28.5625 52.5001V51.0001H29.3125L29.314 52.5001H28.5625ZM30.6037 50.2501C30.7195 50.0515 30.7905 49.826 30.8041 49.5834L33.7203 52.5001H30.8125V51.0001C30.8125 50.7257 30.733 50.4716 30.6037 50.2501ZM39.8125 33.0001V51.7501C39.8125 52.1639 39.4763 52.5001 39.0625 52.5001H37.8203L37.8913 52.429C38.1747 52.1463 38.3314 51.7699 38.3314 51.3692C38.3314 50.9685 38.1754 50.5906 37.8919 50.3072L32.5885 45.0045C32.1013 44.5173 31.361 44.4423 30.7889 44.7673C30.7594 44.5807 30.6954 44.4073 30.6036 44.2501C30.7329 44.0286 30.8124 43.7745 30.8124 43.5001V42.0001C30.8124 41.1732 30.1393 40.5001 29.3124 40.5001H21.8124C20.9855 40.5001 20.3124 41.1732 20.3124 42.0001V43.5001C20.3124 43.7745 20.3919 44.0286 20.5212 44.2501C20.3919 44.4716 20.3124 44.7257 20.3124 45.0001V46.5001C20.3124 46.7745 20.3919 47.0286 20.5212 47.2501C20.3919 47.4716 20.3124 47.7257 20.3124 48.0001V49.5001C20.3124 49.7745 20.3919 50.0286 20.5212 50.2501C20.3919 50.4716 20.3124 50.7257 20.3124 51.0001V52.5001H18.0624C17.6486 52.5001 17.3124 52.1639 17.3124 51.7501V33.0001C17.3124 32.5863 17.6486 32.2501 18.0624 32.2501H39.0624C39.4762 32.2501 39.8125 32.5863 39.8125 33.0001ZM20.3125 29.2501H21.7532C22.1677 29.2501 22.5032 28.9147 22.5032 28.5001C22.5032 28.0855 22.1677 27.7501 21.7532 27.7501H19.5625C19.1487 27.7501 18.8125 27.4139 18.8125 27.0001V26.2501C18.8125 25.8363 19.1487 25.5001 19.5625 25.5001H37.5625C37.9763 25.5001 38.3125 25.8363 38.3125 26.2501V27.0001C38.3125 27.4139 37.9763 27.7501 37.5625 27.7501H24.8125C24.3979 27.7501 24.0625 28.0855 24.0625 28.5001C24.0625 28.9147 24.3979 29.2501 24.8125 29.2501H36.8125V30.7501H20.3125V29.2501Z" fill="black"/>
<path d="M19.3978 20.4189C19.0264 21.1572 19.3259 22.061 20.0642 22.4323L21.4046 23.1062C21.617 23.2132 21.8462 23.2666 22.0769 23.2666C22.2352 23.2666 22.3948 23.2417 22.5493 23.1905C22.9302 23.0645 23.2386 22.7979 23.4187 22.4397L26.7871 15.7388C26.9673 15.3807 26.9966 14.9742 26.8707 14.594C26.7447 14.2132 26.4788 13.9047 26.1207 13.7247L24.7803 13.0515C24.4229 12.8713 24.0157 12.8413 23.6355 12.9673C23.2547 13.0933 22.9463 13.36 22.7662 13.7181L19.3978 20.4183V20.4191V20.4189ZM20.7381 21.0927V21.0912L21.0745 20.4222L22.4151 21.096L22.0784 21.7659L20.7381 21.0927ZM23.4256 19.0859L23.089 19.7557L21.7484 19.0819L22.0853 18.4119L23.4256 19.0858V19.0859ZM22.7592 17.0716L23.096 16.4017L24.4363 17.0755L24.0994 17.7456L22.7593 17.0716H22.7592ZM25.4469 15.0649L25.11 15.735L23.77 15.0613L24.1066 14.3918L25.4469 15.0649Z" fill="black"/>
<path d="M20.3125 13.1253C20.3125 13.5398 20.6479 13.8753 21.0625 13.8753C21.4771 13.8753 21.8125 13.5398 21.8125 13.1253V11.0547C21.8125 10.6401 21.4771 10.3047 21.0625 10.3047C20.6479 10.3047 20.3125 10.6401 20.3125 11.0547V13.1253Z" fill="black"/>
<path d="M21.0625 9.28566C21.4771 9.28566 21.8125 8.95022 21.8125 8.53566V7.5C21.8125 7.08544 21.4771 6.75 21.0625 6.75C20.6479 6.75 20.3125 7.08544 20.3125 7.5V8.53566C20.3125 8.95022 20.6479 9.28566 21.0625 9.28566Z" fill="black"/>
<path d="M24.8125 11.25C25.2271 11.25 25.5625 10.9146 25.5625 10.5V6.75C25.5625 6.33544 25.2271 6 24.8125 6C24.3979 6 24.0625 6.33544 24.0625 6.75V10.5C24.0625 10.9146 24.3979 11.25 24.8125 11.25Z" fill="black"/>
</svg>
