<svg width="49" height="48" viewBox="0 0 49 48" fill="none" xmlns="http://www.w3.org/2000/svg">
<path d="M24.0048 19.3163C24.2296 19.3163 24.4543 19.3359 24.679 19.3652L24.9037 17.8215C21.4842 17.333 18.3089 19.7071 17.8204 23.1266C17.7814 23.4197 17.7618 23.7128 17.7618 24.0059C17.7521 25.6864 18.436 27.2984 19.6377 28.4708L20.7319 27.357C18.8854 25.5398 18.8561 22.5795 20.6635 20.7232C21.533 19.8244 22.7445 19.3163 24.0048 19.3163Z" fill="black"/>
<path d="M26.6821 18.3594L26.008 19.776C28.3528 20.8898 29.3493 23.684 28.2355 26.0288C27.4637 27.6702 25.8126 28.7058 23.9953 28.7058C23.3017 28.7058 22.6178 28.5495 21.9827 28.2564L21.3086 29.673C24.435 31.1483 28.1574 29.8196 29.6424 26.6932C30.043 25.853 30.2481 24.9444 30.2481 24.0162C30.2481 21.5932 28.8608 19.395 26.6821 18.3594Z" fill="black"/>
<path d="M24.003 27.1308C24.3547 27.1308 24.7064 27.0722 25.0484 26.9549L24.5306 25.4796C23.7196 25.763 22.8208 25.3429 22.5375 24.5222C22.4202 24.19 22.4202 23.8187 22.5375 23.4866L21.0622 22.9688C20.4858 24.6003 21.3455 26.3883 22.9674 26.9549C23.2995 27.0722 23.6513 27.1308 24.003 27.1308Z" fill="black"/>
<path d="M26.9549 25.0526C27.5313 23.4211 26.6716 21.6331 25.0498 21.0665C24.3756 20.832 23.6429 20.832 22.9688 21.0665L23.4866 22.5418C24.2975 22.2584 25.1963 22.6785 25.4796 23.4992C25.5969 23.8314 25.5969 24.2027 25.4796 24.5348L26.9549 25.0526Z" fill="black"/>
<path d="M39.0507 31.4887C38.8553 30.9123 38.5329 30.3945 38.103 29.9646L33.3059 25.1675C33.4622 23.9463 33.3743 22.7152 33.0519 21.5331L34.9473 19.6377V20.8785C34.9473 23.0377 36.6961 24.7865 38.8553 24.7865C39.2852 24.7865 39.6369 24.4348 39.6369 24.0049V14.9481L48.0098 6.57521L46.9058 5.4712L41.9817 10.3953L37.253 5.6666L41.0242 1.05516L39.8127 0.06839L32.9249 8.49013L31.4985 8.96886C30.922 9.16426 30.4042 9.48667 29.9744 9.91655L25.1773 14.7136C23.956 14.5573 22.725 14.6452 21.5428 14.9676L19.6377 13.0625H20.8785C23.0377 13.0625 24.7865 11.3137 24.7865 9.15449C24.7865 8.72461 24.4348 8.37289 24.0049 8.37289H14.9481L6.58498 0L5.4712 1.11378L10.3953 6.02809L5.6666 10.7568L1.05516 6.98555L0.0586199 8.19703L8.48036 15.0849L8.95909 16.5113C9.15449 17.0877 9.4769 17.6055 9.90678 18.0354L14.7038 22.8325C14.5475 24.0537 14.6355 25.2848 14.9579 26.4669L13.0625 28.3721V27.1313C13.0625 24.9721 11.3137 23.2233 9.15449 23.2233C8.72461 23.2233 8.37289 23.575 8.37289 24.0049V33.0617L0 41.4346L1.10401 42.5386L6.02809 37.6145L10.7568 42.3432L6.98555 46.9546L8.19703 47.9414L15.0849 39.5196L16.5113 39.0409C17.0877 38.8455 17.6055 38.5231 18.0354 38.0932L22.8325 33.2962C24.0537 33.4525 25.2848 33.3645 26.4669 33.0421L28.3623 34.9375H27.1313C24.9721 34.9375 23.2233 36.6863 23.2233 38.8455C23.2233 39.2754 23.575 39.6271 24.0049 39.6271H33.0617L41.4346 48L42.5386 46.896L37.6145 41.9817L42.3432 37.253L46.9546 41.0242L47.9414 39.8127L39.5196 32.9249L39.0507 31.4887ZM40.8777 11.4993L38.8553 13.5217L34.4392 9.10564L36.2565 6.87808L40.8777 11.4993ZM31.0686 11.0108C31.3226 10.7568 31.6353 10.5614 31.987 10.4441L33.1691 10.0533L38.0737 14.9579V23.0963C37.1358 22.7641 36.5105 21.875 36.5105 20.8883V17.7619C36.5105 17.332 36.1588 16.9803 35.7289 16.9803C35.5237 16.9803 35.3185 17.0584 35.172 17.205L32.4462 19.9308C31.3422 17.6544 29.3686 15.9153 26.9652 15.1142L31.0686 11.0108ZM6.87808 11.7533L11.4993 7.1321L13.5217 9.15449L9.10564 13.5705L6.87808 11.7533ZM11.0108 16.9412C10.7568 16.6872 10.5614 16.3745 10.4441 16.0228L10.0533 14.8406L14.9579 9.93609H23.0963C22.7641 10.874 21.875 11.4993 20.8883 11.4993H17.7619C17.332 11.4993 16.9803 11.851 16.9803 12.2809C16.9803 12.4861 17.0584 12.6912 17.205 12.8378L19.9308 15.5636C17.6544 16.6676 15.9153 18.6412 15.1142 21.0446L11.0108 16.9412ZM7.1321 36.5105L9.15449 34.4881L13.5705 38.9041L11.7533 41.1317L7.1321 36.5105ZM16.9412 36.999C16.6872 37.253 16.3745 37.4484 16.0228 37.5656L14.8406 37.9564L9.93609 33.0617V24.9233C10.874 25.2554 11.4993 26.1445 11.4993 27.1313V30.2577C11.4993 30.6876 11.851 31.0393 12.2809 31.0393C12.4861 31.0393 12.6912 30.9611 12.8378 30.8146L15.5636 28.0887C16.6676 30.3652 18.6412 32.1042 21.0446 32.9054L16.9412 36.999ZM16.1889 24.0049C16.1889 19.6865 19.6865 16.1889 24.0049 16.1889C28.3232 16.1889 31.8209 19.6865 31.8209 24.0049C31.8209 28.3232 28.3232 31.8209 24.0049 31.8209C19.6865 31.8209 16.1889 28.3232 16.1889 24.0049ZM27.1313 36.5105H30.2577C30.6876 36.5105 31.0393 36.1588 31.0393 35.7289C31.0393 35.5237 30.9611 35.3185 30.8146 35.172L28.0887 32.4462C30.3652 31.3422 32.1042 29.3686 32.9054 26.9652L36.999 31.0588C37.253 31.3128 37.4484 31.6255 37.5656 31.9772L37.9564 33.1594L33.0617 38.0737H24.9233C25.2554 37.1358 26.1347 36.5105 27.1313 36.5105ZM36.5105 40.8777L34.4881 38.8553L38.9041 34.4392L41.1317 36.2565L36.5105 40.8777Z" fill="black"/>
<path d="M24.0049 4.46331C27.141 4.46331 30.2381 5.2156 33.0226 6.66156L33.7456 5.27422C28.7335 2.6754 22.8911 2.1869 17.5078 3.91619L17.9865 5.40123C19.9308 4.77595 21.9629 4.46331 24.0049 4.46331Z" fill="black"/>
<path d="M16.4932 5.96158L15.8874 4.51562C15.3403 4.74033 14.7932 5.00413 14.2656 5.27769L14.9886 6.66502C15.4771 6.411 15.9851 6.17652 16.4932 5.96158Z" fill="black"/>
<path d="M2.90245 24.0079C2.90245 26.2159 3.2444 28.4044 3.91853 30.505L5.40357 30.0262C3.88922 25.3269 4.21163 20.2269 6.29264 15.7425L4.87599 15.0781C3.56681 17.8723 2.89268 20.9206 2.90245 24.0079Z" fill="black"/>
<path d="M5.27573 33.7471L6.66307 33.0241C6.40905 32.5356 6.17457 32.0373 5.9694 31.5391L4.52344 32.1448C4.74815 32.6822 5.00217 33.2195 5.27573 33.7471Z" fill="black"/>
<path d="M24.0063 43.542C20.8701 43.542 17.7731 42.7897 14.9886 41.3438L14.2656 42.7311C19.2776 45.3299 25.1201 45.8184 30.5034 44.0891L30.0246 42.6041C28.0804 43.2294 26.0482 43.542 24.0063 43.542Z" fill="black"/>
<path d="M31.5391 42.0374L32.1448 43.4834C32.6919 43.2587 33.2293 43.0047 33.7569 42.7311L33.0339 41.3438C32.5356 41.5978 32.0373 41.8323 31.5391 42.0374Z" fill="black"/>
<path d="M43.1354 32.9343C44.4446 30.1401 45.1187 27.0918 45.1089 24.0045C45.1089 22.0798 44.8452 20.1747 44.3371 18.3281L42.8325 18.7482C43.3113 20.458 43.5457 22.2361 43.5457 24.0143C43.5555 26.8671 42.9302 29.6906 41.7188 32.2797L43.1354 32.9343Z" fill="black"/>
<path d="M43.1354 15.0781L41.7188 15.7425C41.9435 16.231 42.1584 16.739 42.344 17.2471L43.8095 16.7097C43.6044 16.1528 43.3796 15.6057 43.1354 15.0781Z" fill="black"/>
</svg>
