<svg width="37" height="48" viewBox="0 0 37 48" fill="none" xmlns="http://www.w3.org/2000/svg">
<path d="M21.0337 17.0327C21.4536 17.0327 21.794 16.6861 21.794 16.2586C21.794 15.831 21.4536 15.4844 21.0337 15.4844C20.6138 15.4844 20.2734 15.831 20.2734 16.2586C20.2734 16.6861 20.6138 17.0327 21.0337 17.0327Z" fill="black"/>
<path d="M13.4321 17.0327C13.852 17.0327 14.1924 16.6861 14.1924 16.2586C14.1924 15.831 13.852 15.4844 13.4321 15.4844C13.0123 15.4844 12.6719 15.831 12.6719 16.2586C12.6719 16.6861 13.0123 17.0327 13.4321 17.0327Z" fill="black"/>
<path d="M23.5689 17.0327C23.9888 17.0327 24.3291 16.6861 24.3291 16.2586C24.3291 15.831 23.9888 15.4844 23.5689 15.4844C23.149 15.4844 22.8086 15.831 22.8086 16.2586C22.8086 16.6861 23.149 17.0327 23.5689 17.0327Z" fill="black"/>
<path d="M10.897 17.0327C11.3169 17.0327 11.6573 16.6861 11.6573 16.2586C11.6573 15.831 11.3169 15.4844 10.897 15.4844C10.4771 15.4844 10.1367 15.831 10.1367 16.2586C10.1367 16.6861 10.4771 17.0327 10.897 17.0327Z" fill="black"/>
<path d="M18.4986 17.0327C18.9184 17.0327 19.2588 16.6861 19.2588 16.2586C19.2588 15.831 18.9184 15.4844 18.4986 15.4844C18.0787 15.4844 17.7383 15.831 17.7383 16.2586C17.7383 16.6861 18.0787 17.0327 18.4986 17.0327Z" fill="black"/>
<path d="M15.9673 17.0327C16.3872 17.0327 16.7276 16.6861 16.7276 16.2586C16.7276 15.831 16.3872 15.4844 15.9673 15.4844C15.5474 15.4844 15.207 15.831 15.207 16.2586C15.207 16.6861 15.5474 17.0327 15.9673 17.0327Z" fill="black"/>
<path d="M28.6353 17.0327C29.0552 17.0327 29.3955 16.6861 29.3955 16.2586C29.3955 15.831 29.0552 15.4844 28.6353 15.4844C28.2154 15.4844 27.875 15.831 27.875 16.2586C27.875 16.6861 28.2154 17.0327 28.6353 17.0327Z" fill="black"/>
<path d="M26.104 17.0327C26.5239 17.0327 26.8643 16.6861 26.8643 16.2586C26.8643 15.831 26.5239 15.4844 26.104 15.4844C25.6841 15.4844 25.3438 15.831 25.3438 16.2586C25.3438 16.6861 25.6841 17.0327 26.104 17.0327Z" fill="black"/>
<path d="M5.83059 17.0327C6.25047 17.0327 6.59086 16.6861 6.59086 16.2586C6.59086 15.831 6.25047 15.4844 5.83059 15.4844C5.4107 15.4844 5.07031 15.831 5.07031 16.2586C5.07031 16.6861 5.4107 17.0327 5.83059 17.0327Z" fill="black"/>
<path d="M8.36184 17.0327C8.78172 17.0327 9.12211 16.6861 9.12211 16.2586C9.12211 15.831 8.78172 15.4844 8.36184 15.4844C7.94195 15.4844 7.60156 15.831 7.60156 16.2586C7.60156 16.6861 7.94195 17.0327 8.36184 17.0327Z" fill="black"/>
<path d="M3.29543 17.0327C3.71532 17.0327 4.0557 16.6861 4.0557 16.2586C4.0557 15.831 3.71532 15.4844 3.29543 15.4844C2.87554 15.4844 2.53516 15.831 2.53516 16.2586C2.53516 16.6861 2.87554 17.0327 3.29543 17.0327Z" fill="black"/>
<path d="M4.56106 9.29056H14.698C15.1182 9.29056 15.4583 8.94372 15.4583 8.51637C15.4583 8.08902 15.1182 7.74219 14.698 7.74219H4.56106C4.14088 7.74219 3.80078 8.08902 3.80078 8.51637C3.80078 8.94372 4.14088 9.29056 4.56106 9.29056Z" fill="black"/>
<path d="M4.56106 11.8687H19.7665C20.1867 11.8687 20.5268 11.5218 20.5268 11.0945C20.5268 10.6671 20.1867 10.3203 19.7665 10.3203H4.56106C4.14088 10.3203 3.80078 10.6671 3.80078 11.0945C3.80078 11.5218 4.14088 11.8687 4.56106 11.8687Z" fill="black"/>
<path d="M3.80078 24.0007C3.80078 24.4281 4.14088 24.7749 4.56106 24.7749H27.3693C27.7895 24.7749 28.1296 24.4281 28.1296 24.0007C28.1296 23.5734 27.7895 23.2266 27.3693 23.2266H4.56106C4.14088 23.2266 3.80078 23.5734 3.80078 24.0007Z" fill="black"/>
<path d="M3.80078 21.4226C3.80078 21.85 4.14088 22.1968 4.56106 22.1968H24.835C25.2552 22.1968 25.5953 21.85 25.5953 21.4226C25.5953 20.9953 25.2552 20.6484 24.835 20.6484H4.56106C4.14088 20.6484 3.80078 20.9953 3.80078 21.4226Z" fill="black"/>
<path d="M24.835 25.8047H4.56106C4.14088 25.8047 3.80078 26.1515 3.80078 26.5789C3.80078 27.0062 4.14088 27.3531 4.56106 27.3531H24.835C25.2552 27.3531 25.5953 27.0062 25.5953 26.5789C25.5953 26.1515 25.2552 25.8047 24.835 25.8047Z" fill="black"/>
<path d="M22.3008 28.3906H4.56106C4.14088 28.3906 3.80078 28.7375 3.80078 29.1648C3.80078 29.5922 4.14088 29.939 4.56106 29.939H22.3008C22.721 29.939 23.0611 29.5922 23.0611 29.1648C23.0611 28.7375 22.721 28.3906 22.3008 28.3906Z" fill="black"/>
<path d="M4.56106 35.0952H14.698C15.1182 35.0952 15.4583 34.7484 15.4583 34.3211C15.4583 33.8937 15.1182 33.5469 14.698 33.5469H4.56106C4.14088 33.5469 3.80078 33.8937 3.80078 34.3211C3.80078 34.7484 4.14088 35.0952 4.56106 35.0952Z" fill="black"/>
<path d="M14.698 38.7109H4.56106C4.14088 38.7109 3.80078 39.0578 3.80078 39.4851C3.80078 39.9125 4.14088 40.2593 4.56106 40.2593H14.698C15.1182 40.2593 15.4583 39.9125 15.4583 39.4851C15.4583 39.0578 15.1182 38.7109 14.698 38.7109Z" fill="black"/>
<path d="M17.2323 30.9688H4.56106C4.14088 30.9688 3.80078 31.3156 3.80078 31.7429C3.80078 32.1703 4.14088 32.5171 4.56106 32.5171H17.2323C17.6525 32.5171 17.9926 32.1703 17.9926 31.7429C17.9926 31.3156 17.6525 30.9688 17.2323 30.9688Z" fill="black"/>
<path d="M17.2323 36.125H4.56106C4.14088 36.125 3.80078 36.4718 3.80078 36.8992C3.80078 37.3265 4.14088 37.6734 4.56106 37.6734H17.2323C17.6525 37.6734 17.9926 37.3265 17.9926 36.8992C17.9926 36.4718 17.6525 36.125 17.2323 36.125Z" fill="black"/>
<path d="M31.9315 31.6585V8.51604C31.9315 8.46597 31.9264 8.41643 31.9168 8.36739C31.9168 8.36636 31.9168 8.36533 31.9163 8.3643C31.9036 8.29875 31.8798 8.23681 31.8509 8.17746C31.8433 8.16198 31.8357 8.14701 31.8271 8.13204C31.7941 8.0732 31.7561 8.01746 31.7085 7.96843L24.1058 0.226578C24.0581 0.178063 24.0029 0.139353 23.9456 0.105805C23.9309 0.0970312 23.9162 0.0892894 23.9005 0.0815475C23.8427 0.0526446 23.7824 0.028903 23.719 0.0154838C23.7165 0.0149677 23.714 0.0149675 23.7114 0.0144514C23.6653 0.00516117 23.6171 0 23.5685 0H3.46938C1.55653 0 0 1.58501 0 3.53338V41.886C0 43.8339 1.55653 45.4194 3.46938 45.4194H22.6516C24.1716 47.0085 26.2913 48 28.637 48C33.2483 48 37 44.1797 37 39.484C37 35.979 34.9092 32.9638 31.9315 31.6585ZM29.3359 7.74185H24.3288V2.64307L29.3359 7.74185ZM3.46938 43.8705C2.39486 43.8705 1.52055 42.9797 1.52055 41.8855V3.53338C1.52055 2.4392 2.39486 1.54837 3.46938 1.54837H22.8082V8.51604C22.8082 8.94339 23.1483 9.29022 23.5685 9.29022H30.411V31.1646C29.8387 31.0381 29.2462 30.9674 28.637 30.9674C24.0257 30.9674 20.274 34.7878 20.274 39.4834C20.274 41.0891 20.721 42.5874 21.4828 43.8705H3.46938ZM28.637 46.4511C24.864 46.4511 21.7945 43.3255 21.7945 39.4834C21.7945 35.6414 24.864 32.5158 28.637 32.5158C32.41 32.5158 35.4795 35.6414 35.4795 39.4834C35.4795 43.3255 32.41 46.4511 28.637 46.4511Z" fill="black"/>
<path d="M33.7944 37.7136C33.7047 37.4334 33.467 37.2295 33.1806 37.1867L30.5116 36.7923L29.3179 34.3299C29.1897 34.0657 28.9256 33.8984 28.6362 33.8984C28.3468 33.8984 28.0827 34.0657 27.9545 34.3299L26.7609 36.7923L24.0923 37.1872C23.8059 37.2295 23.5677 37.4339 23.4785 37.7141C23.3893 37.9944 23.4638 38.3025 23.6711 38.5079L25.6022 40.4248L25.1466 43.1314C25.0979 43.4219 25.215 43.7156 25.4491 43.889C25.6833 44.0619 25.9935 44.0852 26.25 43.9479L28.6362 42.6694L31.0235 43.9479C31.1345 44.0072 31.2561 44.0367 31.3773 44.0367C31.5349 44.0367 31.692 43.9866 31.8243 43.889C32.0585 43.7156 32.1755 43.4225 32.1269 43.1314L31.6712 40.4248L33.6023 38.5079C33.8091 38.302 33.8836 37.9939 33.7944 37.7136ZM30.323 39.6001C30.1436 39.7781 30.062 40.0341 30.1041 40.2855L30.3671 41.8467L28.9895 41.1092C28.879 41.0504 28.7573 41.0204 28.6357 41.0204C28.5141 41.0204 28.3929 41.0504 28.2819 41.1092L26.9043 41.8467L27.1674 40.2855C27.2094 40.0341 27.1278 39.7781 26.9484 39.6001L25.8343 38.494L27.3742 38.2664C27.622 38.2297 27.8359 38.0713 27.9469 37.8432L28.6362 36.4212L29.325 37.8427C29.436 38.0708 29.6499 38.2292 29.8978 38.2659L31.4376 38.4935L30.323 39.6001Z" fill="black"/>
</svg>
