<svg width="44" height="48" viewBox="0 0 44 48" fill="none" xmlns="http://www.w3.org/2000/svg">
<path d="M0.858186 43.9488L11.4646 47.9174C11.5533 47.9496 11.8293 48 11.924 48C11.9783 48 12.0368 47.994 12.0912 47.9819L28.0623 44.5753C29.5973 46.7208 32.1699 48 35.0567 48C39.8714 48 43.4996 44.5693 43.4996 40.0205C43.4996 39.7566 43.4452 39.5088 43.421 39.2509C43.427 39.2086 43.4452 39.1724 43.4452 39.128V32.3633C43.4452 27.2605 42.6232 23.3503 41.751 19.2125C40.8686 15.0162 39.958 10.681 39.7747 4.6052H40.2199H40.8122C41.2574 4.6052 41.618 4.2446 41.618 3.79939V2.93314C41.618 1.31548 40.3005 0 38.6828 0H30.5522C28.9346 0 27.6191 1.31548 27.6191 2.93314V3.79939C27.6191 4.2446 27.9817 4.6052 28.4249 4.6052H29.1985H29.6296C29.4765 9.54279 28.8278 13.3684 28.0703 17.0388L25.2802 13.6927V9.05729C25.2802 8.68057 25.1171 8.31997 24.829 8.06413C24.5469 7.81634 24.1722 7.70152 23.7935 7.74583L9.54883 9.47832C8.88807 9.56293 8.39048 10.127 8.39048 10.7918V15.7777L0.584211 20.8725C0.580182 20.8745 0.574139 20.8745 0.57011 20.8785C0.566081 20.8805 0.566081 20.8845 0.562052 20.8886L0.549964 20.8966C0.433122 20.9732 0.352541 21.08 0.292106 21.1948C0.122886 21.4204 0 21.6783 0 21.9684V42.7139C0 43.2598 0.346498 43.7574 0.858186 43.9488ZM27.2303 43.1047L12.5505 46.2353L12.619 26.078L30.1695 22.3229V33.1348C27.9515 34.7062 26.6098 37.2525 26.6098 40.0205C26.6098 41.1003 26.8274 42.1458 27.2303 43.1047ZM35.0527 46.3884C32.5567 46.3884 30.3508 45.2522 29.1542 43.3465C28.5337 42.3634 28.2214 41.2433 28.2214 40.0205C28.2214 37.4761 29.6195 35.1574 31.8738 33.9729C32.8448 33.4612 33.9427 33.1892 35.0507 33.1892C38.8178 33.1892 41.8819 36.2533 41.8819 40.0205C41.8839 43.6506 38.9488 46.3884 35.0527 46.3884ZM35.786 28.8298C35.5362 29.1662 35.379 29.5248 35.2662 29.8814C35.0688 29.6759 34.825 29.5107 34.5148 29.4181C34.0917 29.2932 33.6405 29.5329 33.5136 29.96C33.3867 30.387 33.6284 30.8363 34.0555 30.9632C34.1663 30.9954 34.2428 31.2815 34.269 31.624C33.4108 31.7045 32.5728 31.9161 31.7831 32.2485V21.9663C31.7831 21.9341 31.765 21.9059 31.763 21.8737C31.9825 21.3277 32.2082 20.7939 32.462 20.3164H36.8315C37.3089 21.2713 38.4492 23.866 38.8641 27.2988C37.456 27.4539 36.4407 27.9535 35.786 28.8298ZM39.809 28.8379C39.9198 28.8379 40.0346 28.8399 40.1534 28.8439C40.0467 30.0164 38.8803 30.8705 36.6703 31.3903C36.6482 30.9088 36.7106 30.2803 37.0833 29.7867C37.5587 29.1582 38.4753 28.8379 39.809 28.8379ZM41.8315 32.3633V35.0325C41.0096 33.9185 39.9238 33.018 38.6627 32.4177C40.7779 31.5494 41.5334 30.3226 41.7087 29.2367C41.7792 30.24 41.8315 31.2674 41.8315 32.3633ZM29.2327 2.99358V2.93314C29.2327 2.20389 29.825 1.61162 30.5522 1.61162H38.6808C39.4101 1.61162 40.0023 2.20389 40.0023 2.93314L29.2327 2.99358ZM31.2432 4.6052H38.1611C38.3464 10.8482 39.2771 15.266 40.1756 19.5449C40.7296 22.1859 41.2413 24.7605 41.5475 27.5788C41.4165 27.4237 41.2312 27.3169 41.0136 27.2927C40.8162 27.2726 40.6631 27.2887 40.4758 27.2766C39.9359 22.4962 38.0946 19.2467 38.012 19.1057C37.867 18.8579 37.6031 18.7068 37.315 18.7068H31.9866C31.6985 18.7068 31.4346 18.8599 31.2895 19.1077C31.0881 19.4542 30.8967 19.8269 30.7134 20.2097L29.3858 18.6182C30.2702 14.4683 31.074 10.2579 31.2432 4.6052ZM24.142 14.847L29.1803 20.8886L12.3812 24.4825L10.2237 16.8797L24.142 14.847ZM10.0041 11.0476L23.6666 9.38364V13.2878L10.0041 15.2822V11.0476ZM8.72086 17.4881L10.5984 24.0997L3.02783 21.2028L8.72086 17.4881ZM1.61363 22.3874L11.0053 25.9793L10.9872 31.6542L1.61363 28.5317V22.3874ZM1.61363 30.2299L10.9812 33.3504L10.963 38.8823L1.61363 35.6167V30.2299ZM1.61363 37.323L10.957 40.5866L10.9389 45.9996L1.61363 42.5104V37.323Z" fill="black"/>
<path d="M25.1393 27.9099L17.0732 29.6364C17.047 29.6424 17.0289 29.6585 17.0027 29.6666C16.9503 29.6827 16.9019 29.7049 16.8556 29.7311C16.8113 29.7552 16.769 29.7814 16.7307 29.8157C16.6904 29.8499 16.6562 29.8862 16.6239 29.9265C16.5917 29.9668 16.5635 30.005 16.5393 30.0514C16.5152 30.0957 16.497 30.142 16.4829 30.1924C16.4668 30.2448 16.4567 30.2951 16.4507 30.3495C16.4487 30.3757 16.4366 30.3979 16.4346 30.4241L16.4023 39.8822C16.4023 39.8923 16.4084 39.9024 16.4084 39.9124C16.4104 39.9689 16.4285 40.0212 16.4406 40.0756C16.4527 40.124 16.4588 40.1723 16.4769 40.2166C16.497 40.263 16.5313 40.3012 16.5615 40.3436C16.5917 40.3859 16.6159 40.4302 16.6542 40.4664C16.6864 40.4987 16.7287 40.5168 16.767 40.543C16.8173 40.5752 16.8637 40.6115 16.9201 40.6336C16.9281 40.6377 16.9342 40.6437 16.9443 40.6477C17.0289 40.678 17.1961 40.7062 17.2867 40.7062C17.3411 40.7062 17.3995 40.7001 17.4539 40.688L25.5704 38.9576C26.0479 38.8528 26.3823 38.4398 26.3823 37.9503V28.9232C26.3823 28.607 26.2413 28.3128 25.9955 28.1174C25.8122 27.9623 25.375 27.8636 25.1393 27.9099ZM24.7727 37.4769L18.02 38.9173L18.0462 31.0768L24.7727 29.6364V37.4769Z" fill="black"/>
</svg>
