<svg width="58" height="58" viewBox="0 0 58 58" fill="none" xmlns="http://www.w3.org/2000/svg">
<path d="M45.2533 12.7467C40.96 8.45333 35.1333 6 29 6H28.6933C22.56 6 16.8867 8.45333 12.7467 12.7467C8.45333 17.04 6 22.7133 6 28.6933C6 34.98 8.3 40.8067 12.7467 45.2533C17.04 49.5467 22.8667 52 29 52H29.3067C35.44 52 41.1133 49.5467 45.2533 45.2533C49.5467 40.96 51.8467 35.2867 52 29.1533C52 23.02 49.7 17.1933 45.2533 12.7467ZM27.7733 48.9333C27.62 48.9333 27.4667 48.9333 27.4667 48.9333C22.8667 48.6267 19.34 46.94 16.12 44.18L44.18 16.12C46.94 19.34 48.4733 22.8667 48.78 27.4667C48.78 27.62 48.78 27.62 48.78 27.7733C43.26 28.2333 38.2 30.5333 34.3667 34.3667C30.5333 38.3533 28.2333 43.4133 27.7733 48.9333ZM9.22 30.6867C9.22 30.5333 9.22 30.5333 9.22 30.6867C9.22 30.5333 9.22 30.38 9.22 30.2267C14.74 29.7667 19.8 27.4667 23.6333 23.6333C27.4667 19.6467 29.7667 14.5867 30.2267 9.06667C30.2267 9.06667 30.38 9.06667 30.5333 9.06667C30.6867 9.06667 30.84 9.06667 30.84 9.06667C34.98 9.37333 38.8133 11.06 41.88 13.82L13.82 42.0333C11.06 38.8133 9.52667 34.8267 9.22 30.6867ZM14.8933 14.8933C18.2667 11.52 22.56 9.52667 27.16 9.22C26.7 13.82 24.7067 18.1133 21.4867 21.4867C18.1133 24.86 13.82 26.7 9.22 27.16C9.68 22.56 11.6733 18.2667 14.8933 14.8933ZM43.1067 43.1067C39.7333 46.48 35.44 48.4733 30.84 48.78C31.3 44.18 33.2933 39.8867 36.5133 36.5133C39.8867 33.14 44.18 31.3 48.78 30.84C48.32 35.44 46.3267 39.7333 43.1067 43.1067Z" fill="black"/>
</svg>
