<svg width="48" height="47" viewBox="0 0 48 47" fill="none" xmlns="http://www.w3.org/2000/svg">
<path fill-rule="evenodd" clip-rule="evenodd" d="M43.3728 9.8975C43.3728 9.90661 43.3728 9.91572 43.3728 9.92483V9.8975ZM34.1648 10.4912C34.3368 11.1252 34.717 11.6821 35.2437 12.0715C36.1031 12.6861 37.1316 13.0163 38.1864 13.0163C39.2412 13.0163 40.2697 12.6861 41.1291 12.0715C41.6558 11.682 42.0361 11.1251 42.2085 10.4912H34.1648ZM24.8885 10.4912C25.0608 11.1252 25.4412 11.6821 25.968 12.0715C26.8272 12.686 27.8557 13.0162 28.9104 13.0162C29.9651 13.0162 30.9936 12.686 31.8528 12.0715C32.3795 11.682 32.7599 11.1251 32.9323 10.4912H24.8885ZM17.3408 1.10228L15.6661 9.38682H23.7227V1.10228H17.3408ZM14.5493 9.38682H6.53547L9.8848 1.10228H16.224L14.5493 9.38682ZM32.32 1.10228L33.9947 9.38682H42.0091L38.6592 1.10228H32.32ZM32.8779 9.38682H24.8219V1.10228H31.2037L32.8779 9.38682ZM8.91893 12.8201C8.94211 12.8245 8.96493 12.8306 8.9872 12.8384C9.43441 12.9575 9.89521 13.0173 10.3579 13.0163C11.4155 13.0357 12.4499 12.7036 13.3003 12.0715C13.8271 11.6821 14.2075 11.1252 14.3797 10.4912H6.336C6.50766 11.1249 6.88728 11.6818 7.41333 12.0715C7.86179 12.4164 8.37228 12.6712 8.9168 12.8217L8.91893 12.8201ZM12.8373 30.0365H15.5813C15.9268 30.037 16.2579 30.175 16.5022 30.4204C16.7464 30.6659 16.8838 30.9986 16.8843 31.3457V34.2345H21.0667V20.2119H12.8373V30.0365ZM2.26293 44.9819C2.18932 44.9842 2.11599 44.9716 2.04731 44.9449C1.97862 44.9182 1.91598 44.8779 1.8631 44.8264C1.81021 44.7749 1.76817 44.7132 1.73945 44.6451C1.71074 44.5769 1.69594 44.5037 1.69594 44.4297C1.69594 44.3557 1.71074 44.2825 1.73945 44.2143C1.76817 44.1462 1.81021 44.0845 1.8631 44.033C1.91598 43.9815 1.97862 43.9412 2.04731 43.9145C2.11599 43.8878 2.18932 43.8752 2.26293 43.8775H5.25333C5.39613 43.882 5.53159 43.9421 5.63103 44.0452C5.73047 44.1482 5.78608 44.2862 5.78608 44.4297C5.78608 44.5732 5.73047 44.7112 5.63103 44.8142C5.53159 44.9173 5.39613 44.9774 5.25333 44.9819H2.26293ZM2.26293 43.0581C2.18932 43.0604 2.11599 43.0479 2.04731 43.0212C1.97862 42.9944 1.91598 42.9541 1.8631 42.9026C1.81021 42.8511 1.76817 42.7895 1.73945 42.7213C1.71074 42.6532 1.69594 42.5799 1.69594 42.5059C1.69594 42.4319 1.71074 42.3587 1.73945 42.2905C1.76817 42.2224 1.81021 42.1607 1.8631 42.1092C1.91598 42.0577 1.97862 42.0174 2.04731 41.9907C2.11599 41.964 2.18932 41.9514 2.26293 41.9537H5.25333C5.39613 41.9582 5.53159 42.0183 5.63103 42.1214C5.73047 42.2245 5.78608 42.3624 5.78608 42.5059C5.78608 42.6495 5.73047 42.7874 5.63103 42.8905C5.53159 42.9935 5.39613 43.0537 5.25333 43.0581H2.26293ZM7.13333 31.1394V34.2903L8.0128 33.2185C8.03654 33.1889 8.06316 33.1618 8.09227 33.1376C8.14777 33.0914 8.21181 33.0566 8.28072 33.0352C8.34962 33.0139 8.42204 33.0064 8.49382 33.0132C8.56561 33.0201 8.63535 33.041 8.69905 33.075C8.76275 33.1089 8.81917 33.1551 8.86507 33.211L9.75147 34.2876V31.1367H7.13333V31.1394ZM10.8507 31.1394H15.5813C15.6352 31.1399 15.6867 31.1616 15.7248 31.1999C15.7629 31.2382 15.7845 31.2899 15.7851 31.344V45.6909C15.7845 45.745 15.7629 45.7967 15.7248 45.835C15.6867 45.8733 15.6352 45.895 15.5813 45.8956H1.30293C1.24904 45.8951 1.1975 45.8734 1.15947 45.835C1.14046 45.8162 1.12536 45.7937 1.11502 45.769C1.10467 45.7442 1.0993 45.7177 1.0992 45.6909V31.344C1.0993 31.3172 1.10467 31.2907 1.11502 31.2659C1.12536 31.2412 1.14046 31.2188 1.15947 31.1999C1.1975 31.1615 1.24904 31.1398 1.30293 31.1394H6.03413V35.8239C6.0341 35.9374 6.06894 36.0482 6.13389 36.1411C6.19884 36.2339 6.29073 36.3044 6.39702 36.3429C6.50332 36.3813 6.61883 36.3859 6.7278 36.3559C6.83677 36.3259 6.93387 36.2629 7.00587 36.1754L8.44213 34.4307L9.86027 36.1529C9.92931 36.2458 10.0257 36.3145 10.1357 36.3493C10.2457 36.3841 10.3639 36.3833 10.4734 36.3469C10.583 36.3105 10.6783 36.2404 10.746 36.1465C10.8137 36.0527 10.8503 35.9398 10.8507 35.8239V31.1394ZM42.1269 25.7271H27.68V45.4294H42.1269V25.7249V25.7271ZM26.5781 37.5162V35.3373H16.8843V37.5119L26.5781 37.5162ZM40.2848 20.8265V13.7638C40.8309 13.5719 41.343 13.2935 41.8016 12.9391C42.276 12.5944 42.6647 12.1442 42.9372 11.6237C43.2098 11.1031 43.3589 10.5263 43.3728 9.93823V9.92429C43.3728 9.91518 43.3728 9.90661 43.3728 9.8975V9.88571V9.88196V9.87071V9.86321V9.85678V9.85302V9.84552V9.83427V9.82837V9.82355V9.8198V9.8123V9.80908V9.80533V9.79837V9.79515V9.7914V9.78765V9.78443V9.78122V9.77747V9.77372V9.7705V9.76675V9.76032V9.7571V9.75335V9.74639V9.74317V9.73942V9.73353V9.73031V9.72709L43.3696 9.72013V9.71691V9.71316V9.70995V9.70673L39.5829 0.344564C39.5419 0.242746 39.4716 0.155553 39.3809 0.0941635C39.2903 0.0327739 39.1835 -1.51566e-05 39.0741 5.25582e-09H9.51573C9.4015 8.14581e-05 9.29012 0.0358744 9.19704 0.102415C9.10396 0.168956 9.03379 0.262948 8.99627 0.371357L5.22187 9.70512C5.18717 9.7781 5.16896 9.85789 5.16853 9.93876C5.18248 10.5268 5.33156 11.1036 5.60412 11.6242C5.87668 12.1448 6.26534 12.595 6.73973 12.9396C7.19814 13.2943 7.71026 13.5728 8.25653 13.7643V30.0365H1.30293C0.957867 30.0372 0.627111 30.1752 0.382962 30.4202C0.138813 30.6652 0.00112695 30.9973 0 31.344V45.6909C0.00070464 46.0379 0.138204 46.3704 0.382399 46.6158C0.626594 46.8611 0.95759 46.9993 1.30293 47H15.5813C15.9268 46.9996 16.2579 46.8615 16.5022 46.6161C16.7464 46.3707 16.8838 46.0379 16.8843 45.6909V38.6174H26.5781V45.9818C26.5783 46.1283 26.6363 46.2687 26.7394 46.3722C26.8425 46.4757 26.9823 46.5338 27.128 46.5338H42.6763C42.822 46.5338 42.9618 46.4757 43.0649 46.3722C43.168 46.2687 43.226 46.1283 43.2261 45.9818V42.7366H47.4501C47.5224 42.7366 47.5939 42.7223 47.6607 42.6945C47.7274 42.6667 47.7881 42.626 47.8391 42.5746C47.8902 42.5233 47.9307 42.4623 47.9583 42.3952C47.9859 42.3281 48.0001 42.2562 48 42.1836V21.3747C48.0001 21.3022 47.9859 21.2303 47.9583 21.1632C47.9307 21.0962 47.8902 21.0352 47.8391 20.9839C47.788 20.9326 47.7274 20.8919 47.6606 20.8642C47.5939 20.8364 47.5224 20.8222 47.4501 20.8223L40.2848 20.8265ZM31.3525 24.6205H27.128C26.9823 24.6205 26.8425 24.6786 26.7394 24.7821C26.6363 24.8856 26.5783 25.026 26.5781 25.1724V34.2329H22.1632V19.6573C22.1632 19.5109 22.1053 19.3705 22.0023 19.267C21.8993 19.1635 21.7596 19.1053 21.6139 19.1053H12.288C12.1423 19.1053 12.0025 19.1635 11.8994 19.267C11.7963 19.3705 11.7383 19.5108 11.7381 19.6573V30.0365H9.35733V14.043C9.68834 14.0948 10.0229 14.1208 10.3579 14.1207C11.6597 14.1378 12.9306 13.7224 13.9733 12.9391C14.3768 12.628 14.7228 12.2482 14.9957 11.817C15.2688 12.2476 15.6146 12.627 16.0176 12.938C17.0686 13.706 18.3346 14.1196 19.6341 14.1196C20.9336 14.1196 22.1997 13.706 23.2507 12.938C23.6537 12.6271 23.9993 12.2477 24.272 11.817C24.5449 12.2477 24.8907 12.6271 25.2939 12.938C26.3448 13.706 27.6109 14.1196 28.9104 14.1196C30.2099 14.1196 31.476 13.706 32.5269 12.938C32.9293 12.627 33.2745 12.2476 33.5467 11.817C33.8195 12.2476 34.1652 12.627 34.568 12.938C35.6115 13.7224 36.8836 14.1384 38.1867 14.1212C38.5217 14.1213 38.8562 14.0954 39.1872 14.0435V20.8223H31.9019C31.8297 20.8223 31.7582 20.8366 31.6915 20.8643C31.6248 20.8921 31.5643 20.9328 31.5132 20.9841C31.4622 21.0354 31.4218 21.0963 31.3942 21.1634C31.3666 21.2304 31.3525 21.3022 31.3525 21.3747V24.6205ZM39.4549 24.6205H32.4517V22.1518L39.4549 24.6205ZM35.1237 21.9267H46.9008V41.6311H43.2261V25.1724C43.2264 25.05 43.1863 24.931 43.1119 24.834C43.0376 24.737 42.9333 24.6676 42.8155 24.6366L35.1237 21.9251V21.9267ZM33.4981 28.5393V30.5756H30.7904V28.5393H33.4981ZM30.24 27.4349H34.048C34.1937 27.435 34.3335 27.4933 34.4365 27.5969C34.5395 27.7005 34.5973 27.8409 34.5973 27.9874V31.1254C34.5973 31.2719 34.5395 31.4123 34.4365 31.5159C34.3335 31.6195 34.1937 31.6778 34.048 31.6779H30.24C30.0942 31.6778 29.9544 31.6195 29.8513 31.5159C29.7483 31.4123 29.6903 31.2719 29.6901 31.1254V27.9874C29.6903 27.8409 29.7483 27.7004 29.8513 27.5969C29.9544 27.4933 30.0942 27.435 30.24 27.4349ZM30.1067 43.6063C29.9639 43.6019 29.8284 43.5417 29.729 43.4387C29.6295 43.3356 29.5739 43.1977 29.5739 43.0541C29.5739 42.9106 29.6295 42.7727 29.729 42.6696C29.8284 42.5665 29.9639 42.5064 30.1067 42.5019H39.6965C39.7701 42.4996 39.8435 42.5122 39.9122 42.5389C39.9808 42.5656 40.0435 42.6059 40.0964 42.6574C40.1493 42.7089 40.1913 42.7706 40.22 42.8387C40.2487 42.9069 40.2635 42.9801 40.2635 43.0541C40.2635 43.1281 40.2487 43.2014 40.22 43.2695C40.1913 43.3377 40.1493 43.3993 40.0964 43.4508C40.0435 43.5023 39.9808 43.5426 39.9122 43.5693C39.8435 43.5961 39.7701 43.6086 39.6965 43.6063H30.1067ZM30.1067 40.5685C29.9639 40.564 29.8284 40.5039 29.729 40.4008C29.6295 40.2977 29.5739 40.1598 29.5739 40.0163C29.5739 39.8727 29.6295 39.7348 29.729 39.6318C29.8284 39.5287 29.9639 39.4685 30.1067 39.4641H39.6965C39.7701 39.4618 39.8435 39.4743 39.9122 39.5011C39.9808 39.5278 40.0435 39.5681 40.0964 39.6196C40.1493 39.6711 40.1913 39.7327 40.22 39.8009C40.2487 39.869 40.2635 39.9423 40.2635 40.0163C40.2635 40.0903 40.2487 40.1635 40.22 40.2317C40.1913 40.2998 40.1493 40.3615 40.0964 40.413C40.0435 40.4645 39.9808 40.5048 39.9122 40.5315C39.8435 40.5582 39.7701 40.5708 39.6965 40.5685H30.1067ZM30.1067 37.5307C29.9639 37.5262 29.8284 37.466 29.729 37.363C29.6295 37.2599 29.5739 37.122 29.5739 36.9784C29.5739 36.8349 29.6295 36.697 29.729 36.5939C29.8284 36.4908 29.9639 36.4307 30.1067 36.4262H39.6965C39.7701 36.4239 39.8435 36.4365 39.9122 36.4632C39.9808 36.4899 40.0435 36.5302 40.0964 36.5817C40.1493 36.6332 40.1913 36.6949 40.22 36.7631C40.2487 36.8312 40.2635 36.9044 40.2635 36.9784C40.2635 37.0524 40.2487 37.1257 40.22 37.1938C40.1913 37.262 40.1493 37.3236 40.0964 37.3751C40.0435 37.4266 39.9808 37.467 39.9122 37.4937C39.8435 37.5204 39.7701 37.533 39.6965 37.5307H30.1067ZM30.1067 34.4923C29.9639 34.4878 29.8284 34.4277 29.729 34.3246C29.6295 34.2215 29.5739 34.0836 29.5739 33.9401C29.5739 33.7965 29.6295 33.6586 29.729 33.5555C29.8284 33.4525 29.9639 33.3923 30.1067 33.3879H39.6965C39.7701 33.3856 39.8435 33.3981 39.9122 33.4248C39.9808 33.4516 40.0435 33.4919 40.0964 33.5434C40.1493 33.5949 40.1913 33.6565 40.22 33.7247C40.2487 33.7928 40.2635 33.8661 40.2635 33.9401C40.2635 34.0141 40.2487 34.0873 40.22 34.1555C40.1913 34.2236 40.1493 34.2853 40.0964 34.3368C40.0435 34.3883 39.9808 34.4286 39.9122 34.4553C39.8435 34.482 39.7701 34.4946 39.6965 34.4923H30.1067ZM36.9915 31.4544C36.9179 31.4567 36.8445 31.4442 36.7758 31.4175C36.7072 31.3907 36.6445 31.3504 36.5916 31.2989C36.5387 31.2474 36.4967 31.1858 36.468 31.1176C36.4393 31.0495 36.4245 30.9762 36.4245 30.9022C36.4245 30.8282 36.4393 30.755 36.468 30.6868C36.4967 30.6187 36.5387 30.557 36.5916 30.5055C36.6445 30.454 36.7072 30.4137 36.7758 30.387C36.8445 30.3603 36.9179 30.3477 36.9915 30.35H39.6955C39.7691 30.3477 39.8424 30.3603 39.9111 30.387C39.9798 30.4137 40.0424 30.454 40.0953 30.5055C40.1482 30.557 40.1902 30.6187 40.2189 30.6868C40.2477 30.755 40.2625 30.8282 40.2625 30.9022C40.2625 30.9762 40.2477 31.0495 40.2189 31.1176C40.1902 31.1858 40.1482 31.2474 40.0953 31.2989C40.0424 31.3504 39.9798 31.3907 39.9111 31.4175C39.8424 31.4442 39.7691 31.4567 39.6955 31.4544H36.9915ZM15.6123 10.4912H23.656C23.4836 11.1251 23.1032 11.682 22.5765 12.0715C21.7173 12.686 20.6888 13.0162 19.6341 13.0162C18.5795 13.0162 17.551 12.686 16.6917 12.0715C16.1649 11.6821 15.7845 11.1252 15.6123 10.4912Z" fill="black"/>
</svg>
