<svg width="35" height="48" viewBox="0 0 35 48" fill="none" xmlns="http://www.w3.org/2000/svg">
<path d="M17.2575 5.19531C15.6863 5.19531 14.1417 5.61186 12.7913 6.40014C12.41 6.62254 12.2809 7.11269 12.5038 7.49456C12.7262 7.87591 13.2158 8.00498 13.5983 7.78204C14.7039 7.13669 15.9695 6.79535 17.2575 6.79535C21.2651 6.79535 24.5249 10.0557 24.5249 14.0627C24.5249 15.331 24.1937 16.5796 23.5665 17.6729C23.3467 18.0564 23.479 18.5449 23.8625 18.7647C23.9878 18.8367 24.1249 18.8708 24.2598 18.8708C24.5372 18.8708 24.8065 18.7263 24.9548 18.4687C25.7207 17.1337 26.1249 15.6099 26.1249 14.0627C26.1249 9.17353 22.1472 5.19531 17.2575 5.19531Z" fill="black"/>
<path d="M20.5802 20.5327C19.5466 21.0644 18.4292 21.3343 17.258 21.3343C13.2505 21.3343 9.99066 18.074 9.99066 14.0669C9.99066 12.6797 10.3827 11.3314 11.124 10.1671C11.3614 9.79431 11.252 9.2999 10.8792 9.06256C10.5069 8.82575 10.0125 8.93509 9.77466 9.30736C8.86904 10.7287 8.39062 12.3741 8.39062 14.0669C8.39062 18.9566 12.3683 22.9343 17.258 22.9343C18.6661 22.9343 20.0682 22.5957 21.3125 21.9551C21.7051 21.753 21.8597 21.2708 21.6576 20.8778C21.4549 20.4852 20.9733 20.33 20.5802 20.5327Z" fill="black"/>
<path d="M22.4929 11.4895H19.8294V8.83127C19.8294 8.38912 19.4715 8.03125 19.0294 8.03125H15.4848C15.0426 8.03125 14.6848 8.38912 14.6848 8.83127V11.4895H12.0266C11.5844 11.4895 11.2266 11.8473 11.2266 12.2895V15.8341C11.2266 16.2762 11.5844 16.6341 12.0266 16.6341H14.6848V19.2976C14.6848 19.7398 15.0426 20.0977 15.4848 20.0977H19.0294C19.4715 20.0977 19.8294 19.7398 19.8294 19.2976V16.6341H22.4929C22.9351 16.6341 23.293 16.2762 23.293 15.8341V12.2895C23.293 11.8479 22.9351 11.4895 22.4929 11.4895ZM21.6929 15.0341H19.0294C18.5873 15.0341 18.2294 15.3919 18.2294 15.8341V18.4976H16.2848V15.8341C16.2848 15.3919 15.9269 15.0341 15.4848 15.0341H12.8266V13.0895H15.4848C15.9269 13.0895 16.2848 12.7316 16.2848 12.2895V9.63129H18.2294V12.2895C18.2294 12.7316 18.5873 13.0895 19.0294 13.0895H21.6929V15.0341Z" fill="black"/>
<path d="M17.258 2.49872C15.3631 0.882153 12.9806 0 10.4701 0C7.67435 0 5.0455 1.08909 3.06785 3.06673C-0.978638 7.11322 -1.01011 13.7171 2.99318 17.7999C3.01612 17.8255 3.04012 17.8505 3.06785 17.8777L16.6927 31.5026C16.849 31.6588 17.0538 31.7367 17.2586 31.7367C17.4634 31.7367 17.6682 31.6588 17.8244 31.5026L31.4525 17.8777L31.5085 17.8223C33.4499 15.8537 34.5192 13.2435 34.5192 10.4722C34.5192 7.6711 33.4301 5.04065 31.4525 3.06673C27.5788 -0.807485 21.3637 -1.00162 17.258 2.49872ZM30.3762 16.6905L17.258 29.8055L4.19801 16.747C4.18308 16.7289 4.16761 16.7118 4.15108 16.6953C0.744067 13.2376 0.7654 7.6311 4.19854 4.19743C5.87431 2.52219 8.10103 1.5995 10.4696 1.5995C12.8121 1.5995 15.0238 2.50619 16.6964 4.15316C17.0079 4.46037 17.5076 4.45983 17.8191 4.15263C21.2763 0.742417 26.8844 0.762684 30.3197 4.19743L30.3202 4.19796C31.9949 5.87 32.9176 8.09831 32.9176 10.4717C32.9181 12.82 32.0125 15.0313 30.3762 16.6905Z" fill="black"/>
<path d="M34.3514 22.1764C34.3354 21.7316 34.153 21.3134 33.8378 20.9972C33.5007 20.6606 33.0271 20.4766 32.545 20.4846C30.9322 20.538 29.6601 21.8943 29.7092 23.5092L29.7887 25.9605L29.4169 27.4666C28.8948 27.5077 28.4078 27.72 28.035 28.0933L25.3262 30.8043L24.4429 30.9569C23.7683 31.0715 23.1554 31.3883 22.6712 31.8726L20.7693 33.7745C20.1666 34.3772 19.8242 35.1772 19.8039 36.0279L19.7367 39.0242C18.8359 39.3912 18.2001 40.2627 18.1889 41.2926L18.1447 45.4201C18.1377 46.0809 18.3895 46.7065 18.854 47.1807C19.3186 47.6548 19.9383 47.9204 20.5991 47.9274L27.4473 48.0004C27.4563 48.0004 27.4654 48.0004 27.4745 48.0004C28.1252 48.0004 28.7401 47.7492 29.2079 47.2911C29.6825 46.8265 29.9476 46.2068 29.9545 45.546L29.9988 41.4184C30.0095 40.4115 29.4137 39.5405 28.5545 39.1426C28.6633 38.5229 28.9497 37.9602 29.3951 37.5143L32.6074 34.302C33.4655 33.4438 34.0074 32.31 34.1333 31.1094L34.4741 27.8757C34.496 27.7595 34.5088 27.6395 34.512 27.5152L34.5136 27.5018C34.5141 27.4944 34.513 27.4874 34.5136 27.4805C34.5141 27.4506 34.5178 27.4229 34.5173 27.3925L34.3514 22.1764ZM28.3545 45.5289C28.3492 46.0148 27.9508 46.3871 27.4643 46.4004L20.6167 46.3268C20.3831 46.3247 20.1634 46.2297 19.998 46.0607C19.8322 45.8916 19.7426 45.6697 19.7452 45.4366L19.7895 41.3091C19.7916 41.0755 19.8866 40.8557 20.0556 40.6904C20.2226 40.5272 20.4407 40.4376 20.6706 40.4376C20.6738 40.4376 20.677 40.4376 20.6802 40.4376L27.5278 40.5112C27.7614 40.5133 27.9812 40.6083 28.1465 40.7773C28.3124 40.9464 28.402 41.1683 28.3993 41.4014L28.3545 45.5289ZM32.5423 30.9425C32.4543 31.7798 32.0762 32.5713 31.4762 33.1708L28.2638 36.3831C27.5849 37.0621 27.1321 37.9549 26.9726 38.9048L21.341 38.8445L21.4034 36.0642C21.4135 35.6274 21.5901 35.2162 21.9005 34.9057L23.8024 33.0038C24.0472 32.759 24.3699 32.5926 24.7133 32.534L25.8488 32.3377C25.9054 32.3281 25.9592 32.3121 26.0104 32.2913C26.0142 32.2897 26.0174 32.2876 26.0206 32.286C26.1166 32.246 26.2024 32.1884 26.2745 32.1174C26.2755 32.1164 26.2771 32.1158 26.2787 32.1147L29.1673 29.2246C29.3919 28.9995 29.7919 28.9995 30.0169 29.2246C30.2511 29.4587 30.2511 29.84 30.0169 30.0747L26.6985 33.3932C26.3859 33.7052 26.3859 34.2124 26.6985 34.5244C26.8547 34.6807 27.0595 34.7585 27.2643 34.7585C27.4691 34.7585 27.6739 34.6807 27.8302 34.5244L31.1492 31.2059C32.0068 30.3478 32.0068 28.9509 31.1492 28.0933C31.0879 28.032 31.018 27.9835 30.9514 27.9307L31.3695 26.2373C31.3716 26.2282 31.3716 26.2192 31.3732 26.2101C31.3786 26.1834 31.3818 26.1562 31.385 26.129C31.3882 26.1013 31.3908 26.0735 31.3908 26.0458C31.3908 26.0367 31.393 26.0282 31.3924 26.0191L31.3098 23.4591C31.2874 22.7252 31.8655 22.1081 32.5898 22.0841C32.6575 22.0788 32.6906 22.1124 32.7077 22.1289C32.7471 22.1684 32.7525 22.2079 32.7535 22.2308L32.9183 27.3877L32.8799 27.7493C32.8789 27.7627 32.8762 27.776 32.8757 27.7893L32.5423 30.9425Z" fill="black"/>
<path d="M27.272 42.8956C27.8084 42.8956 28.2432 42.4607 28.2432 41.9243C28.2432 41.388 27.8084 40.9531 27.272 40.9531C26.7356 40.9531 26.3008 41.388 26.3008 41.9243C26.3008 42.4607 26.7356 42.8956 27.272 42.8956Z" fill="black"/>
<path d="M14.7822 39.0229L14.715 36.0276C14.6953 35.1774 14.3524 34.3774 13.7497 33.7747L11.8478 31.8728C11.3635 31.3886 10.7507 31.0717 10.0781 30.9576L9.19278 30.8045L6.48392 28.0936C6.11112 27.7207 5.62417 27.5085 5.10203 27.4674L4.72975 25.9612L4.80922 23.5084C4.85829 21.8945 3.58626 20.5382 1.96436 20.4848C1.48541 20.4736 1.01767 20.6614 0.679528 20.9985C0.364854 21.3137 0.182983 21.7318 0.166983 22.1804L4.60322e-05 27.4023C-0.000487313 27.4333 0.00377914 27.4631 0.00431248 27.4935C0.00484583 27.4967 0.00377914 27.4994 0.00431248 27.5026L0.00484554 27.5085C0.00804561 27.6343 0.0213792 27.7575 0.0437797 27.8781L0.384587 31.1102C0.509923 32.3112 1.0518 33.4451 1.91049 34.3028L5.12283 37.5151C5.56924 37.9615 5.85564 38.5247 5.96391 39.1434C5.10469 39.5413 4.50841 40.4122 4.51908 41.4192L4.56335 45.5467C4.57028 46.2076 4.83589 46.8273 5.31003 47.2918C5.77831 47.75 6.39272 48.0012 7.0434 48.0012C7.05247 48.0012 7.06154 48.0012 7.0706 48.0012L13.9182 47.9276C14.579 47.9207 15.1988 47.6551 15.6633 47.1809C16.1279 46.7068 16.3796 46.0812 16.3727 45.4203L16.3284 41.2928C16.3188 40.2645 15.6793 39.3893 14.7822 39.0229ZM3.04225 33.171C2.44223 32.5715 2.06409 31.7806 1.97609 30.9427L1.64382 27.7906C1.64328 27.7773 1.64062 27.7639 1.63955 27.7506L1.60115 27.389L1.76595 22.2348C1.76702 22.2081 1.77289 22.1686 1.81129 22.1302C1.82889 22.1126 1.86249 22.0844 1.92116 22.0844C2.6545 22.1084 3.23265 22.7254 3.21025 23.4582L3.12705 26.0199C3.12652 26.029 3.12865 26.0375 3.12865 26.0466C3.12865 26.0743 3.13132 26.102 3.13452 26.1298C3.13718 26.157 3.14038 26.1842 3.14625 26.2108C3.14838 26.2199 3.14785 26.229 3.14998 26.238L3.56812 27.9314C3.50146 27.9842 3.43159 28.0327 3.37079 28.0941C2.51264 28.9517 2.51264 30.3485 3.37079 31.2067L6.68926 34.5252C6.84553 34.6814 7.05034 34.7593 7.25514 34.7593C7.45995 34.7593 7.66475 34.6814 7.82102 34.5252C8.13356 34.2132 8.13356 33.7059 7.82102 33.3939L4.50255 30.0755C4.26841 29.8413 4.26841 29.46 4.50255 29.2253C4.72708 29.0002 5.12763 29.0008 5.35217 29.2253L8.24076 32.116C8.24183 32.1171 8.24343 32.1176 8.24503 32.1187C8.3165 32.1896 8.40237 32.2472 8.49837 32.2872C8.5021 32.2888 8.5053 32.291 8.5085 32.2926C8.5597 32.3134 8.61357 32.3288 8.6701 32.339L9.80773 32.5358C10.1485 32.5934 10.4712 32.7603 10.716 33.0051L12.6179 34.907C12.9283 35.2174 13.1049 35.6292 13.115 36.0649L13.1774 38.8458L7.54635 38.9055C7.38741 37.9572 6.9346 37.0634 6.25459 36.3839L3.04225 33.171ZM14.5214 46.0614C14.3556 46.2305 14.1364 46.3254 13.9028 46.3276L7.0546 46.4012C7.0514 46.4012 7.0482 46.4012 7.045 46.4012C6.56393 46.4012 6.16925 46.0123 6.16445 45.5297L6.12018 41.4021C6.11752 41.1685 6.20765 40.9466 6.37299 40.7781C6.53886 40.609 6.75806 40.5141 6.99167 40.512L13.8393 40.4384C14.0793 40.4346 14.2942 40.5258 14.4633 40.6912C14.6324 40.857 14.7273 41.0762 14.7294 41.3098L14.7737 45.4374C14.7769 45.6705 14.6868 45.8923 14.5214 46.0614Z" fill="black"/>
<path d="M7.24466 42.8956C7.78105 42.8956 8.21588 42.4607 8.21588 41.9243C8.21588 41.388 7.78105 40.9531 7.24466 40.9531C6.70827 40.9531 6.27344 41.388 6.27344 41.9243C6.27344 42.4607 6.70827 42.8956 7.24466 42.8956Z" fill="black"/>
</svg>
