<svg width="58" height="58" viewBox="0 0 58 58" fill="none" xmlns="http://www.w3.org/2000/svg">
<path d="M45.7285 26.4026H33.1695C35.8204 20.0145 32.7784 12.6703 26.3903 9.97598C20.0022 7.28167 12.6145 10.3671 9.9637 16.7552C7.31285 23.1433 10.3114 30.4875 16.7429 33.1818C18.2639 33.8336 19.9153 34.1378 21.5666 34.1378H22.0446V45.7408C22.0446 47.5659 23.5222 49 25.3039 49H45.7285C47.5102 49 48.9877 47.5225 48.9877 45.7408V29.6618C48.9877 27.8366 47.5102 26.4026 45.7285 26.4026ZM21.5666 33.2687C15.0916 33.2687 9.87678 28.0105 9.87678 21.5789C9.87678 15.1473 15.0916 9.88906 21.5666 9.88906C28.0416 9.88906 33.2564 15.1039 33.2564 21.5789C33.2564 28.0105 27.9982 33.2687 21.5666 33.2687ZM48.1186 45.7408C48.1186 47.0445 47.0322 48.1309 45.7285 48.1309H25.3039C24.0002 48.1309 22.9138 47.0445 22.9138 45.7408V34.0509C23.3483 34.0075 23.7829 33.9206 24.174 33.8336V34.9201C24.174 35.1808 24.3478 35.3546 24.6086 35.3546C24.8693 35.3546 25.0431 35.1808 25.0431 34.9201V33.6164C27.5636 32.8776 29.8234 31.3566 31.4313 29.2707H33.691C33.9517 29.2707 34.1256 29.0969 34.1256 28.8361C34.1256 28.5754 33.9517 28.4016 33.691 28.4016H32.0831C32.3438 28.0105 32.5611 27.6194 32.735 27.2282H45.7285C47.0322 27.2282 48.1186 28.3147 48.1186 29.6184V45.7408Z" fill="black"/>
<path d="M37.6885 29.3144H39.8613C40.122 29.3144 40.2959 29.1406 40.2959 28.8799C40.2959 28.6191 40.122 28.4453 39.8613 28.4453H37.6885C37.4277 28.4453 37.2539 28.6191 37.2539 28.8799C37.2539 29.1406 37.4277 29.3144 37.6885 29.3144Z" fill="black"/>
<path d="M45.0337 28.4453H42.8608C42.6001 28.4453 42.4263 28.6191 42.4263 28.8799C42.4263 29.1406 42.6001 29.3144 42.8608 29.3144H45.0337C45.5551 29.3144 45.9897 29.749 45.9897 30.2705V45.1326C45.9897 45.6541 45.5551 46.0887 45.0337 46.0887H42.8174C42.5566 46.0887 42.3828 46.2625 42.3828 46.5233C42.3828 46.784 42.5566 46.9578 42.8174 46.9578H45.0337C46.0332 46.9578 46.8588 46.1321 46.8588 45.1326V30.2705C46.8588 29.271 46.0332 28.4453 45.0337 28.4453Z" fill="black"/>
<path d="M39.8613 46.0859H37.6885C37.4277 46.0859 37.2539 46.2598 37.2539 46.5205C37.2539 46.7812 37.4277 46.9551 37.6885 46.9551H39.8613C40.122 46.9551 40.2959 46.7812 40.2959 46.5205C40.2959 46.2598 40.122 46.0859 39.8613 46.0859Z" fill="black"/>
<path d="M34.4315 46.0868H26.001C25.4795 46.0868 25.0449 45.6523 25.0449 45.1308V39.4814C25.0449 39.2207 24.8711 39.0469 24.6103 39.0469C24.3496 39.0469 24.1758 39.2207 24.1758 39.4814V45.1308C24.1758 46.1303 25.0015 46.956 26.001 46.956H34.3881C34.6488 46.956 34.8226 46.7822 34.8226 46.5214C34.8226 46.2607 34.6488 46.0868 34.4315 46.0868Z" fill="black"/>
<path d="M40.9916 35.1403L34.6904 31.4899C33.2563 30.6643 31.4746 31.1423 30.6489 32.5764C30.3882 33.0109 30.2578 33.5324 30.2578 34.0539V41.3111C30.2578 42.9625 31.5615 44.2662 33.2129 44.2662C33.7343 44.2662 34.2558 44.1358 34.7338 43.8751L41.035 40.2247C42.4691 39.399 42.9471 37.5739 42.1215 36.1832C41.7738 35.7487 41.4262 35.401 40.9916 35.1403Z" fill="black"/>
<path d="M19.0014 30.794C18.2192 30.5768 17.437 30.2291 16.6982 29.838C16.481 29.7511 16.2202 29.838 16.1333 30.0553C16.0464 30.2291 16.0898 30.4464 16.2637 30.5768C17.0459 31.0548 17.8716 31.4024 18.7842 31.6632C18.8276 31.6632 18.8711 31.6632 18.9145 31.6632C19.1753 31.7066 19.3925 31.5328 19.3925 31.2721C19.436 31.0113 19.2622 30.794 19.0014 30.794Z" fill="black"/>
<path d="M21.5663 11.1484C15.7866 11.1484 11.1367 15.8418 11.1367 21.578C11.1367 22.6644 11.3105 23.7509 11.6582 24.7504C11.7451 24.9676 12.0059 25.098 12.2231 25.0111C12.4404 24.9242 12.5708 24.7069 12.4839 24.4896C10.8325 19.4921 13.5703 14.06 18.6113 12.4521C23.6522 10.8442 28.9974 13.582 30.6487 18.5795C32.3001 23.577 29.5623 29.0091 24.5214 30.617C23.9999 30.7908 23.4784 30.9212 22.9569 31.0081C22.6962 31.0081 22.5223 31.2254 22.5658 31.4861C22.6093 31.7469 22.7831 31.9207 23.0438 31.8772H23.1307C28.7801 30.9212 32.6043 25.576 31.6482 19.8832C30.8226 14.9292 26.6073 11.2788 21.5663 11.1484Z" fill="black"/>
<path d="M24.5636 27.0087C25.7804 26.8348 26.693 25.9223 26.7365 24.9228V24.8793V15.5361C26.7365 15.4058 26.693 15.2754 26.6061 15.1885C26.5192 15.145 26.3888 15.1016 26.2584 15.1016L19.0881 16.1011C18.8708 16.1445 18.697 16.3183 18.697 16.5356V24.2709C18.6535 24.2274 18.6101 24.2274 18.5666 24.184C17.4367 23.5756 16.0027 23.7929 15.0901 24.7055C14.6555 25.14 14.4817 25.7484 14.5686 26.3134C14.7424 27.3129 15.7419 28.0516 16.9153 28.0516C17.0891 28.0516 17.2195 28.0516 17.3933 28.0082C18.6101 27.8343 19.5227 26.9218 19.6096 25.9223V25.8788V19.4472L25.9108 18.5346V23.2279L25.7369 23.141C24.6071 22.5326 23.173 22.7499 22.2604 23.6625C21.8259 24.0971 21.652 24.7055 21.7389 25.2704C21.9128 26.2699 22.9123 27.0087 24.0856 27.0087C24.216 27.0521 24.3898 27.0521 24.5636 27.0087Z" fill="black"/>
</svg>
