<svg width="58" height="58" viewBox="0 0 58 58" fill="none" xmlns="http://www.w3.org/2000/svg">
<path d="M28.4354 51.9935C31.6764 51.9935 35.9709 50.9514 39.2113 47.6603C43.1134 43.6971 47.0329 39.7384 50.925 35.7622C51.5197 35.1544 51.9731 34.2499 51.9992 33.1669C51.9992 33.1625 51.9992 33.1582 51.9992 33.1538C51.9993 33.1443 51.9993 33.1328 51.9992 33.1224C51.9992 31.0526 50.2979 29.344 48.2273 29.344C46.3367 29.344 47.4689 29.3572 46.3516 29.344C45.2208 29.3298 44.3578 29.9675 43.7719 30.5808C41.9725 32.464 39.0787 35.2735 39.0787 35.2735C38.9841 35.3583 38.9075 35.4615 38.8537 35.5765C38.7998 35.6916 38.7698 35.8161 38.7653 35.9431C38.7608 36.0701 38.7819 36.1969 38.8275 36.3154C38.8731 36.434 38.9421 36.5421 39.0305 36.6334C39.1188 36.7247 39.2247 36.797 39.3418 36.8463C39.4588 36.8956 39.5846 36.9209 39.7116 36.9205C39.8386 36.92 39.9642 36.8939 40.0808 36.8438C40.1975 36.7936 40.3029 36.7204 40.3906 36.6286C40.3906 36.6286 43.2859 33.8196 45.1354 31.884C45.5468 31.4534 45.9103 31.2264 46.3294 31.2315C47.4468 31.2447 46.3454 31.2315 48.2273 31.2315C49.2553 31.2315 50.1123 32.0918 50.1123 33.1224C50.0991 33.6853 49.8367 34.1741 49.5761 34.4404C45.6892 38.4113 41.7708 42.3689 37.8661 46.3347C35.0759 49.1686 31.2659 50.106 28.4354 50.106H7.65783C7.53267 50.104 7.40839 50.127 7.29217 50.1736C7.17596 50.2201 7.07017 50.2892 6.98095 50.377C6.89173 50.4648 6.82085 50.5696 6.77249 50.6851C6.72412 50.8006 6.69922 50.9246 6.69922 51.0498C6.69922 51.175 6.72412 51.299 6.77249 51.4145C6.82085 51.53 6.89173 51.6348 6.98095 51.7226C7.07017 51.8104 7.17596 51.8795 7.29217 51.926C7.40839 51.9726 7.53267 51.9956 7.65783 51.9935H28.4354Z" fill="black"/>
<path d="M33.1276 44.4483C35.2002 44.4483 36.8988 42.7467 36.8988 40.6736C36.8988 38.6004 35.2002 36.8986 33.1276 36.8986C33.0024 36.8966 32.8781 36.9195 32.7619 36.9661C32.6456 37.0126 32.5398 37.0817 32.4505 37.1695C32.3613 37.2573 32.2904 37.3621 32.2421 37.4776C32.1937 37.5931 32.1687 37.7171 32.1687 37.8423C32.1687 37.9675 32.1937 38.0916 32.2421 38.207C32.2904 38.3225 32.3613 38.427 32.4505 38.5149C32.5398 38.6027 32.6456 38.672 32.7619 38.7186C32.8781 38.7651 33.0024 38.7881 33.1276 38.7861C34.1792 38.7861 35.0113 39.6194 35.0113 40.6736C35.0113 41.7278 34.1792 42.5608 33.1276 42.5608H22.7564C22.6315 42.5593 22.5075 42.5825 22.3916 42.6293C22.2757 42.676 22.1703 42.7454 22.0814 42.8332C21.9925 42.921 21.9219 43.0255 21.8738 43.1408C21.8256 43.256 21.8008 43.3796 21.8008 43.5046C21.8008 43.6295 21.8256 43.7534 21.8738 43.8686C21.9219 43.9839 21.9925 44.0884 22.0814 44.1762C22.1703 44.264 22.2757 44.3332 22.3916 44.3799C22.5075 44.4266 22.6315 44.4499 22.7564 44.4483H33.1276Z" fill="black"/>
<path d="M7.65507 40.6701C10.171 40.6795 11.7461 39.3876 13.1844 38.5024C14.6821 37.5807 15.8735 36.8953 17.7333 36.8953C19.4669 36.8953 20.7203 37.178 22.0664 37.59C24.833 38.4371 27.9768 38.7844 33.112 38.7844C33.2372 38.7864 33.3616 38.7637 33.4778 38.7172C33.5941 38.6706 33.6999 38.6013 33.7892 38.5135C33.8784 38.4256 33.9492 38.3209 33.9976 38.2054C34.046 38.0899 34.0709 37.9661 34.0709 37.8409C34.0709 37.7157 34.046 37.5917 33.9976 37.4762C33.9492 37.3607 33.8784 37.2559 33.7892 37.1681C33.6999 37.0803 33.5941 37.0112 33.4778 36.9647C33.3616 36.9181 33.2372 36.8952 33.112 36.8972C28.0618 36.8972 25.1434 36.5566 22.6192 35.7838C21.1834 35.3441 19.6782 35.0078 17.7333 35.0078C15.3866 35.0078 13.7266 35.9518 12.1965 36.8935C10.6072 37.8714 9.54232 38.7899 7.66244 38.7826C7.53761 38.7805 7.41363 38.8034 7.29765 38.8496C7.18167 38.8958 7.07599 38.9646 6.98677 39.0519C6.89755 39.1393 6.82653 39.2434 6.77785 39.3584C6.72916 39.4733 6.70376 39.5966 6.70314 39.7215C6.70251 39.8464 6.72669 39.9701 6.77422 40.0855C6.82175 40.201 6.89169 40.3061 6.98003 40.3943C7.06837 40.4825 7.17338 40.5522 7.28889 40.5996C7.4044 40.6469 7.52815 40.6709 7.65299 40.6701H7.65507Z" fill="black"/>
<path d="M28.39 21.797C28.14 21.8009 27.9018 21.904 27.7277 22.0834C27.5535 22.2628 27.4576 22.5038 27.461 22.7539V30.2772C27.4593 30.4022 27.4824 30.5263 27.529 30.6424C27.5756 30.7584 27.6449 30.8641 27.7327 30.9532C27.8205 31.0422 27.9251 31.113 28.0405 31.1612C28.1559 31.2095 28.2797 31.2345 28.4048 31.2345C28.5299 31.2345 28.6537 31.2095 28.7691 31.1612C28.8844 31.113 28.9891 31.0422 29.0769 30.9532C29.1647 30.8641 29.2339 30.7584 29.2806 30.6424C29.3272 30.5263 29.3503 30.4022 29.3485 30.2772V22.7539C29.3503 22.6276 29.3266 22.5022 29.2791 22.3852C29.2315 22.2682 29.161 22.162 29.0716 22.0728C28.9822 21.9836 28.8758 21.9132 28.7587 21.8659C28.6417 21.8185 28.5163 21.795 28.39 21.797Z" fill="black"/>
<path d="M37.8364 12.3594C37.6881 12.3605 37.5422 12.3965 37.4105 12.4645C36.2427 13.0481 33.9288 14.6945 31.7269 17.0178C29.525 19.3413 27.461 22.3118 27.461 25.5585C27.4593 25.6836 27.4824 25.8077 27.529 25.9237C27.5756 26.0398 27.6449 26.1455 27.7327 26.2346C27.8205 26.3236 27.9252 26.3943 28.0406 26.4426C28.156 26.4909 28.2798 26.5157 28.4049 26.5157C28.53 26.5157 28.6538 26.4909 28.7692 26.4426C28.8846 26.3943 28.9892 26.3236 29.0771 26.2346C29.1649 26.1455 29.2342 26.0398 29.2808 25.9237C29.3274 25.8077 29.3505 25.6836 29.3488 25.5585C29.3488 23.151 31.0565 20.4684 33.0966 18.3157C35.1368 16.1629 37.5354 14.5118 38.253 14.1531C38.4458 14.0598 38.6011 13.9037 38.6935 13.7105C38.7859 13.5173 38.8097 13.2984 38.7613 13.0898C38.7128 12.8812 38.5949 12.6953 38.4268 12.5626C38.2587 12.4299 38.0505 12.3582 37.8364 12.3594Z" fill="black"/>
<path d="M13.3124 6.69536C13.187 6.69414 13.0625 6.71794 12.9463 6.7654C12.8302 6.81286 12.7246 6.88288 12.6359 6.97162C12.5471 7.06035 12.477 7.16603 12.4295 7.28221C12.3821 7.39838 12.3582 7.52284 12.3594 7.64832C12.3594 7.64832 12.3801 9.93011 12.7152 12.535C13.0503 15.14 13.5396 18.0654 15.165 19.6908C17.9709 22.4968 22.549 22.4967 25.3549 19.6908C28.1609 16.8849 28.1609 12.3069 25.3549 9.5008C23.7295 7.87567 20.8041 7.38623 18.1991 7.05111C15.5942 6.71598 13.3124 6.69536 13.3124 6.69536ZM14.3226 8.65843C15.0028 8.67636 16.0276 8.67353 17.9576 8.92202C20.4339 9.24054 23.2006 10.0158 24.0204 10.8356C26.105 12.9201 26.105 16.2717 24.0204 18.3563C21.9358 20.4408 18.586 20.4409 16.5014 18.3563C15.6816 17.5365 14.9066 14.7698 14.588 12.2936C14.3397 10.3635 14.3405 9.33859 14.3226 8.65843Z" fill="black"/>
<path d="M43.4946 6.69536C43.4946 6.69536 41.2129 6.71594 38.6079 7.05088C36.003 7.3861 33.0775 7.87567 31.4521 9.5008C28.6462 12.3069 28.6462 16.8849 31.4521 19.6908C34.258 22.4967 38.8362 22.4968 41.6421 19.6908C43.2675 18.0654 43.7568 15.14 44.0919 12.535C44.427 9.93011 44.4476 7.64832 44.4476 7.64832C44.4489 7.52284 44.4251 7.39838 44.3776 7.28221C44.3301 7.16603 44.2599 7.06035 44.1712 6.97162C44.0825 6.88288 43.977 6.81286 43.8608 6.7654C43.7446 6.71794 43.6201 6.69414 43.4946 6.69536ZM42.4845 8.65843C42.4666 9.33859 42.4673 10.3635 42.2191 12.2936C41.9005 14.7698 41.1255 17.5365 40.3057 18.3563C38.2211 20.4409 34.8713 20.4408 32.7867 18.3563C30.7021 16.2717 30.7021 12.9199 32.7867 10.8353C33.6065 10.0156 36.3732 9.24054 38.8494 8.92202C40.7795 8.67372 41.8043 8.67636 42.4845 8.65843Z" fill="black"/>
<path d="M18.9459 12.3596C18.734 12.3644 18.53 12.4404 18.3665 12.5753C18.2031 12.7101 18.0898 12.896 18.0449 13.1031C18 13.3102 18.0261 13.5265 18.119 13.7169C18.2118 13.9074 18.3661 14.0612 18.5569 14.1533C19.2744 14.5119 21.673 16.1629 23.713 18.3156C25.7531 20.4683 27.4607 23.1511 27.4607 25.5585C27.459 25.6836 27.4821 25.8077 27.5288 25.9237C27.5754 26.0398 27.6447 26.1455 27.7325 26.2345C27.8203 26.3236 27.9249 26.3941 28.0403 26.4424C28.1557 26.4906 28.2795 26.5156 28.4046 26.5156C28.5297 26.5156 28.6535 26.4906 28.7689 26.4424C28.8842 26.3941 28.9889 26.3236 29.0767 26.2345C29.1645 26.1455 29.2338 26.0398 29.2804 25.9237C29.3271 25.8077 29.3502 25.6836 29.3485 25.5585C29.3485 22.3118 27.2845 19.3412 25.0827 17.0178C22.8809 14.6944 20.5671 13.0484 19.3994 12.4647C19.2594 12.3923 19.1034 12.3562 18.9459 12.3596Z" fill="black"/>
</svg>
