<svg width="58" height="58" viewBox="0 0 58 58" fill="none" xmlns="http://www.w3.org/2000/svg">
<path d="M45.1433 22.7386L48.0433 21.5852V47.2898C48.0433 57.3409 33.4467 58 29 58C24.2633 58 19.9133 57.1761 16.53 55.858C12.18 54.0455 9.95667 51.0795 9.95667 47.2898V21.75L12.8567 22.9034V47.4545C12.8567 49.4318 18.3667 53.2216 29 53.2216C39.6333 53.2216 45.1433 49.4318 45.1433 47.4545V22.7386ZM50.9433 45.3125C50.9433 46.6307 51.62 47.7841 52.3933 47.7841C53.1667 47.7841 53.8433 46.6307 53.8433 45.3125V19.4432L50.9433 20.5966V45.3125ZM58 12.6875C58 13.8409 57.5167 14.8295 56.84 15.1591L29.29 25.375C29.1933 25.375 29.0967 25.375 29 25.375C28.9033 25.375 28.8067 25.375 28.71 25.375L1.16 15.1591C0.483334 14.8295 0 13.8409 0 12.6875C0 11.5341 0.483334 10.5455 1.16 10.2159L28.71 0C28.9033 0 29.0967 0 29.29 0L56.84 10.2159C57.5167 10.3807 58 11.3693 58 12.6875ZM49.6867 12.6875L29 4.94318L8.31333 12.6875L29 20.267L49.6867 12.6875Z" fill="black"/>
</svg>
