<svg width="58" height="58" viewBox="0 0 58 58" fill="none" xmlns="http://www.w3.org/2000/svg">
<path d="M19.4004 22.7869C19.4227 22.9277 19.4943 23.0559 19.6025 23.1486C19.7107 23.2414 19.8484 23.2926 19.9909 23.293H20.0424L23.0602 23.0494L19.5457 26.1656C19.4537 26.2453 19.3884 26.3512 19.3584 26.4692C19.3285 26.5871 19.3355 26.7114 19.3784 26.8253C19.4213 26.9391 19.498 27.0371 19.5983 27.106C19.6986 27.1749 19.8176 27.2114 19.9393 27.2106H19.9909L24.9815 26.8029C25.0693 26.7957 25.1543 26.7684 25.2299 26.7232L28.0415 25.1206C28.8618 25.3693 29.7149 25.4926 30.572 25.4861C31.5691 25.4842 32.5621 25.3599 33.5289 25.1159C34.4661 24.9472 35.1503 23.8366 35.0425 22.4964C35.0325 22.3558 35.0105 22.2163 34.9769 22.0794L41.8326 21.517C42.484 21.4655 43.8336 21.3624 44.6443 20.5095C44.9753 20.1736 45.2221 19.7641 45.3647 19.3146C45.5072 18.865 45.5413 18.3881 45.4643 17.9228V17.876C45.4284 17.3224 45.2764 16.7826 45.018 16.2917C44.7596 15.8008 44.4008 15.3698 43.9648 15.0268C43.38 14.5983 42.7137 14.2941 42.0069 14.1329C41.3001 13.9717 40.5678 13.957 39.8551 14.0896L32.5027 15.636L29.2224 14.6988C29.1286 14.6754 29.0304 14.6754 28.9366 14.6988L25.6563 15.3783C25.5023 15.41 25.3668 15.5009 25.2792 15.6315C25.1915 15.7621 25.1587 15.9219 25.1877 16.0765L25.3892 17.1637L22.8681 17.7026L22.2636 15.6876C22.2307 15.5821 22.1697 15.4875 22.0871 15.4141C22.0046 15.3406 21.9036 15.291 21.795 15.2705L18.9834 14.7597C18.8895 14.7418 18.7927 14.747 18.7013 14.7747C18.6099 14.8025 18.5266 14.852 18.4585 14.919C18.3798 14.9791 18.3169 15.0574 18.2753 15.1472C18.2336 15.237 18.2145 15.3356 18.2195 15.4345L19.4004 22.7869ZM24.7519 25.5986L21.6825 25.8516L26.4436 21.6342L32.8541 20.9828L24.7519 25.5986ZM33.6836 21.8966C33.7828 22.1124 33.8431 22.344 33.8616 22.5808C33.9272 23.3727 33.5805 23.9163 33.318 23.935C33.0556 23.9538 32.6245 23.4664 32.5542 22.6839C32.5542 22.6417 32.5542 22.5901 32.5542 22.5433L33.6836 21.8966ZM29.602 24.2396L31.4249 23.1993C31.4932 23.555 31.6232 23.896 31.8091 24.2068C31.0764 24.295 30.3361 24.3013 29.602 24.2256V24.2396ZM26.4483 16.428L28.9975 15.8937L29.9816 16.1749L26.5373 16.9106L26.4483 16.428ZM21.1999 16.3811L21.8606 18.5695C21.9043 18.7134 22 18.8359 22.1291 18.913C22.2582 18.9901 22.4114 19.0163 22.5588 18.9865L40.0707 15.2377C40.6158 15.1355 41.176 15.1452 41.7173 15.266C42.2586 15.3868 42.7698 15.6163 43.2197 15.9406C43.5261 16.1845 43.7781 16.4898 43.9597 16.8368C44.1413 17.1837 44.2483 17.5648 44.2741 17.9556V18.0025C44.3393 18.2984 44.3279 18.6061 44.2409 18.8964C44.154 19.1866 43.9944 19.4499 43.7773 19.6613C43.3087 20.1815 42.2544 20.2612 41.753 20.2986L35.5861 20.8141L35.9048 20.6314C36.0244 20.5636 36.1172 20.4569 36.1675 20.3289C36.2179 20.2009 36.2227 20.0596 36.1812 19.9285C36.1379 19.8003 36.0531 19.6901 35.9403 19.6155C35.8274 19.5408 35.6929 19.5058 35.558 19.5161L26.139 20.4533C26.0136 20.4666 25.8955 20.519 25.8016 20.6032L24.5645 21.6998L20.5063 22.0325L19.5551 16.0671L21.1999 16.3811Z" fill="black"/>
<path d="M35.1205 18.1678C35.1673 18.1724 35.2144 18.1724 35.2611 18.1678L35.8469 18.046C35.9346 18.0272 36.0177 17.9913 36.0916 17.9404C36.1654 17.8895 36.2285 17.8246 36.2772 17.7493C36.3259 17.674 36.3594 17.5899 36.3756 17.5017C36.3918 17.4135 36.3905 17.323 36.3717 17.2353C36.353 17.1476 36.3171 17.0644 36.2662 16.9906C36.2153 16.9168 36.1504 16.8537 36.0751 16.805C35.9998 16.7562 35.9157 16.7228 35.8275 16.7066C35.7393 16.6904 35.6487 16.6917 35.561 16.7104L34.9753 16.8323C34.8118 16.8662 34.6667 16.9595 34.568 17.0941C34.4693 17.2288 34.4241 17.3952 34.441 17.5613C34.4579 17.7274 34.5357 17.8813 34.6595 17.9934C34.7833 18.1054 34.9442 18.1675 35.1112 18.1678H35.1205Z" fill="black"/>
<path d="M32.7767 18.6549C32.8219 18.6597 32.8675 18.6597 32.9126 18.6549L33.4984 18.533C33.5858 18.5146 33.6687 18.4791 33.7423 18.4286C33.816 18.3781 33.879 18.3136 33.9277 18.2387C33.9765 18.1639 34.01 18.0802 34.0264 17.9924C34.0428 17.9046 34.0417 17.8144 34.0232 17.727C34.0048 17.6396 33.9693 17.5568 33.9188 17.4831C33.8683 17.4094 33.8038 17.3464 33.7289 17.2977C33.6541 17.2489 33.5704 17.2154 33.4826 17.199C33.3948 17.1827 33.3046 17.1837 33.2172 17.2022L32.6315 17.324C32.4724 17.362 32.3325 17.4564 32.2379 17.5897C32.1432 17.7231 32.1002 17.8863 32.1168 18.0489C32.1334 18.2116 32.2085 18.3627 32.3282 18.4742C32.4478 18.5856 32.6039 18.6498 32.7674 18.6549H32.7767Z" fill="black"/>
<path d="M37.4696 17.6866H37.6055L38.1913 17.5648C38.2787 17.546 38.3615 17.5102 38.435 17.4594C38.5086 17.4086 38.5714 17.3439 38.6199 17.2688C38.6685 17.1937 38.7017 17.1099 38.7178 17.0219C38.7339 16.934 38.7325 16.8438 38.7138 16.7564C38.695 16.669 38.6592 16.5862 38.6084 16.5127C38.5576 16.4391 38.4929 16.3763 38.4178 16.3278C38.3427 16.2792 38.2589 16.246 38.171 16.2299C38.083 16.2138 37.9928 16.2152 37.9054 16.2339L37.3197 16.3558C37.1512 16.3833 36.9996 16.4742 36.8958 16.6097C36.7921 16.7453 36.7439 16.9153 36.7613 17.0851C36.7786 17.255 36.8601 17.4118 36.9891 17.5236C37.1182 17.6353 37.285 17.6936 37.4556 17.6866H37.4696Z" fill="black"/>
<path d="M39.8127 17.1991C39.8579 17.2037 39.9034 17.2037 39.9486 17.1991L40.5344 17.0772C40.6221 17.0584 40.7052 17.0226 40.779 16.9717C40.8529 16.9208 40.916 16.8558 40.9647 16.7806C41.0134 16.7053 41.0469 16.6211 41.0631 16.5329C41.0793 16.4447 41.078 16.3542 41.0592 16.2665C41.0405 16.1788 41.0046 16.0957 40.9537 16.0219C40.9028 15.948 40.8379 15.8849 40.7626 15.8362C40.6873 15.7875 40.6032 15.754 40.515 15.7378C40.4268 15.7216 40.3362 15.7229 40.2485 15.7417L39.6628 15.8635C39.4993 15.8974 39.3542 15.9907 39.2555 16.1254C39.1568 16.26 39.1116 16.4265 39.1285 16.5926C39.1454 16.7587 39.2232 16.9126 39.347 17.0246C39.4708 17.1366 39.6317 17.1988 39.7987 17.1991H39.8127Z" fill="black"/>
<path d="M25.745 20.1075C25.79 20.1147 25.8359 20.1147 25.8809 20.1075L26.4667 19.9903C26.6438 19.9537 26.7991 19.8481 26.8984 19.697C26.9977 19.5458 27.0329 19.3614 26.9962 19.1843C26.9596 19.0072 26.854 18.8519 26.7029 18.7526C26.5517 18.6533 26.3673 18.6181 26.1902 18.6548L25.6045 18.7766C25.4301 18.8138 25.2776 18.9184 25.1801 19.0677C25.0826 19.2169 25.0482 19.3987 25.0843 19.5733C25.1149 19.7254 25.1977 19.862 25.3183 19.9596C25.439 20.0571 25.5899 20.1094 25.745 20.1075Z" fill="black"/>
<path d="M23.3978 20.5919H23.5336L24.1194 20.4701C24.2959 20.4334 24.4506 20.3281 24.5494 20.1774C24.6483 20.0267 24.6833 19.8429 24.6466 19.6664C24.6099 19.4899 24.5047 19.3352 24.3539 19.2364C24.2032 19.1375 24.0194 19.1025 23.8429 19.1392L23.2572 19.261C23.0887 19.2886 22.9371 19.3795 22.8333 19.515C22.7296 19.6506 22.6814 19.8206 22.6988 19.9904C22.7161 20.1603 22.7976 20.3171 22.9267 20.4288C23.0557 20.5406 23.2225 20.5989 23.3931 20.5919H23.3978Z" fill="black"/>
<path d="M30.433 19.1439H30.5689L31.1547 19.022C31.3318 18.9848 31.4868 18.8786 31.5857 18.7271C31.6846 18.5755 31.7192 18.3908 31.6819 18.2137C31.6446 18.0366 31.5385 17.8816 31.3869 17.7827C31.2353 17.6838 31.0506 17.6492 30.8735 17.6865L30.2878 17.8084C30.1243 17.8423 29.9792 17.9355 29.8805 18.0702C29.7818 18.2049 29.7366 18.3713 29.7535 18.5374C29.7704 18.7035 29.8482 18.8574 29.972 18.9694C30.0958 19.0814 30.2567 19.1436 30.4237 19.1439H30.433Z" fill="black"/>
<path d="M28.0853 19.6236H28.2259L28.8117 19.5018C28.9881 19.4645 29.1426 19.3586 29.241 19.2075C29.3394 19.0563 29.3738 18.8723 29.3365 18.6958C29.2992 18.5193 29.1934 18.3649 29.0422 18.2664C28.891 18.168 28.707 18.1337 28.5305 18.1709L27.9401 18.2928C27.781 18.3307 27.6411 18.4252 27.5465 18.5585C27.4518 18.6918 27.4088 18.855 27.4254 19.0177C27.442 19.1804 27.5171 19.3315 27.6368 19.4429C27.7564 19.5544 27.9125 19.6186 28.076 19.6236H28.0853Z" fill="black"/>
<path d="M46.0483 31.9953C45.7679 31.1563 45.2514 30.416 44.5606 29.8632C43.8699 29.3105 43.0343 28.9688 42.1542 28.8791V27.5998C42.1542 27.4407 42.091 27.2882 41.9785 27.1757C41.8661 27.0632 41.7135 27 41.5544 27H38.0867C38.0082 27 37.9304 27.0155 37.8579 27.0457C37.7854 27.0759 37.7196 27.1202 37.6642 27.176C37.6089 27.2317 37.5652 27.2979 37.5355 27.3706C37.5059 27.4434 37.491 27.5213 37.4916 27.5998V29.1134C36.8153 29.338 36.2006 29.7171 35.6963 30.2206C35.192 30.7241 34.8119 31.3382 34.5862 32.0141H34.3238C33.97 32.0153 33.631 32.1564 33.3808 32.4066C33.1306 32.6568 32.9895 32.9958 32.9883 33.3496V35.5661C32.9883 36.0098 33.1645 36.4353 33.4783 36.7491C33.792 37.0628 34.2175 37.2391 34.6612 37.2391H35.186C35.3094 37.6309 35.5544 37.9732 35.8856 38.2162C36.2168 38.4592 36.6169 38.5902 37.0277 38.5902C37.4384 38.5902 37.8385 38.4592 38.1697 38.2162C38.5009 37.9732 38.746 37.6309 38.8693 37.2391H43.1196C43.2429 37.6309 43.4879 37.9732 43.8191 38.2162C44.1503 38.4592 44.5504 38.5902 44.9612 38.5902C45.372 38.5902 45.772 38.4592 46.1032 38.2162C46.4344 37.9732 46.6795 37.6309 46.8028 37.2391H48.4008C48.4793 37.2397 48.5572 37.2247 48.6299 37.1951C48.7027 37.1655 48.7688 37.1217 48.8246 37.0664C48.8804 37.0111 48.9246 36.9453 48.9548 36.8728C48.985 36.8002 49.0006 36.7225 49.0006 36.6439V34.9851C48.9994 34.199 48.6892 33.4448 48.1369 32.8855C47.5845 32.3261 46.8344 32.0064 46.0483 31.9953ZM44.7597 31.9953H39.5722V30.0506H41.6528C42.1048 30.0488 42.5526 30.137 42.9701 30.31C43.3876 30.4829 43.7666 30.7373 44.0849 31.0581C44.3601 31.3311 44.5881 31.6478 44.7597 31.9953ZM38.6678 28.851V28.1762H40.9358V28.851H38.6865H38.6678ZM38.3726 30.1022V31.9766H35.889C36.1292 31.493 36.4787 31.0718 36.9097 30.7465C37.3408 30.4212 37.8416 30.2006 38.3726 30.1022ZM37.0277 37.3796C36.8397 37.3647 36.6642 37.2795 36.5362 37.141C36.4082 37.0025 36.3371 36.8208 36.3371 36.6322C36.3371 36.4436 36.4082 36.2619 36.5362 36.1234C36.6642 35.9849 36.8397 35.8997 37.0277 35.8848C37.1308 35.8766 37.2345 35.8899 37.3323 35.9237C37.43 35.9576 37.5197 36.0113 37.5957 36.0815C37.6717 36.1517 37.7323 36.2369 37.7738 36.3316C37.8153 36.4264 37.8367 36.5288 37.8367 36.6322C37.8367 36.7357 37.8153 36.838 37.7738 36.9328C37.7323 37.0275 37.6717 37.1127 37.5957 37.1829C37.5197 37.2531 37.43 37.3068 37.3323 37.3407C37.2345 37.3746 37.1308 37.3878 37.0277 37.3796ZM44.9612 37.3796C44.8125 37.3806 44.6669 37.3373 44.5429 37.2552C44.4189 37.1732 44.322 37.0562 44.2647 36.919C44.2074 36.7818 44.1921 36.6306 44.2209 36.4848C44.2497 36.3389 44.3212 36.2048 44.4263 36.0997C44.5315 35.9946 44.6655 35.9231 44.8114 35.8943C44.9573 35.8655 45.1084 35.8808 45.2456 35.9381C45.3828 35.9954 45.4998 36.0922 45.5819 36.2162C45.6639 36.3403 45.7072 36.4859 45.7063 36.6346C45.7063 36.8322 45.6278 37.0217 45.488 37.1614C45.3483 37.3011 45.1588 37.3796 44.9612 37.3796ZM47.8009 36.0347H46.8075C46.6817 35.6453 46.4356 35.3058 46.1047 35.0649C45.7739 34.8241 45.3751 34.6944 44.9659 34.6944C44.5566 34.6944 44.1579 34.8241 43.827 35.0649C43.4961 35.3058 43.2501 35.6453 43.1242 36.0347H38.8693C38.7435 35.6453 38.4974 35.3058 38.1666 35.0649C37.8357 34.8241 37.4369 34.6944 37.0277 34.6944C36.6184 34.6944 36.2197 34.8241 35.8888 35.0649C35.5579 35.3058 35.3119 35.6453 35.186 36.0347H34.6612C34.5369 36.0347 34.4177 35.9854 34.3299 35.8975C34.242 35.8096 34.1926 35.6904 34.1926 35.5661V33.3309C34.1926 33.2944 34.2067 33.2593 34.2321 33.2331C34.2575 33.2069 34.292 33.1915 34.3285 33.1903H46.0062C46.4818 33.1915 46.9376 33.381 47.2739 33.7173C47.6102 34.0536 47.7997 34.5094 47.8009 34.9851V36.0347Z" fill="black"/>
<path d="M28.1519 31H12.5989C11.6485 31 10.7366 31.3759 10.0623 32.0458C9.38809 32.7157 9.00619 33.625 9 34.5755V42.3731C9 42.4516 9.01554 42.5294 9.04575 42.6019C9.07595 42.6744 9.1202 42.7402 9.17596 42.7956C9.23172 42.8509 9.29788 42.8946 9.37063 42.9243C9.44338 42.9539 9.52127 42.9688 9.59982 42.9682H11.7976C11.9209 43.36 12.166 43.7023 12.4972 43.9453C12.8284 44.1883 13.2284 44.3193 13.6392 44.3193C14.05 44.3193 14.4501 44.1883 14.7813 43.9453C15.1125 43.7023 15.3575 43.36 15.4808 42.9682H25.2513C25.3746 43.36 25.6196 43.7023 25.9508 43.9453C26.2821 44.1883 26.6821 44.3193 27.0929 44.3193C27.5037 44.3193 27.9037 44.1883 28.2349 43.9453C28.5661 43.7023 28.8112 43.36 28.9345 42.9682H31.1323C31.2108 42.9688 31.2887 42.9539 31.3615 42.9243C31.4342 42.8946 31.5004 42.8509 31.5561 42.7956C31.6119 42.7402 31.6562 42.6744 31.6864 42.6019C31.7166 42.5294 31.7321 42.4516 31.7321 42.3731V34.5755C31.726 33.6283 31.3466 32.7217 30.6764 32.0524C30.0062 31.383 29.0991 31.0049 28.1519 31ZM12.5989 32.1949H28.1566C28.7885 32.1962 29.3942 32.4471 29.8419 32.893C30.2895 33.3389 30.5428 33.9436 30.5465 34.5755V38.3243H10.1996V34.5755C10.2034 33.942 10.4579 33.3358 10.9076 32.8897C11.3573 32.4435 11.9654 32.1937 12.5989 32.1949ZM13.6439 43.1182C13.4559 43.1033 13.2804 43.0181 13.1524 42.8795C13.0244 42.741 12.9533 42.5593 12.9533 42.3707C12.9533 42.1821 13.0244 42.0005 13.1524 41.8619C13.2804 41.7234 13.4559 41.6382 13.6439 41.6233C13.747 41.6151 13.8507 41.6284 13.9485 41.6623C14.0462 41.6961 14.1359 41.7498 14.2119 41.82C14.2879 41.8902 14.3485 41.9754 14.39 42.0702C14.4315 42.165 14.4529 42.2673 14.4529 42.3707C14.4529 42.4742 14.4315 42.5765 14.39 42.6713C14.3485 42.7661 14.2879 42.8512 14.2119 42.9215C14.1359 42.9917 14.0462 43.0454 13.9485 43.0792C13.8507 43.1131 13.747 43.1263 13.6439 43.1182ZM27.1116 43.1182C26.9632 43.1182 26.818 43.0741 26.6946 42.9915C26.5712 42.9089 26.4751 42.7915 26.4185 42.6542C26.3619 42.517 26.3473 42.366 26.3766 42.2204C26.406 42.0748 26.4778 41.9412 26.5832 41.8366C26.6885 41.7319 26.8225 41.6609 26.9683 41.6325C27.114 41.6041 27.2649 41.6196 27.4018 41.6771C27.5387 41.7345 27.6555 41.8314 27.7373 41.9553C27.8192 42.0792 27.8623 42.2246 27.8614 42.3731C27.8602 42.5687 27.7826 42.7561 27.6452 42.8953C27.5077 43.0345 27.3213 43.1145 27.1257 43.1182H27.1116ZM28.9533 41.7733C28.83 41.3814 28.5849 41.0391 28.2537 40.7962C27.9225 40.5532 27.5224 40.4221 27.1116 40.4221C26.7009 40.4221 26.3008 40.5532 25.9696 40.7962C25.6384 41.0391 25.3933 41.3814 25.27 41.7733H15.4808C15.3575 41.3814 15.1125 41.0391 14.7813 40.7962C14.4501 40.5532 14.05 40.4221 13.6392 40.4221C13.2284 40.4221 12.8284 40.5532 12.4972 40.7962C12.166 41.0391 11.9209 41.3814 11.7976 41.7733H10.1996V39.5286H30.5465V41.7733H28.9533Z" fill="black"/>
<path d="M13.9885 33.1875H13.0654C12.5762 33.1875 12.1797 33.584 12.1797 34.0732V34.9963C12.1797 35.4855 12.5762 35.882 13.0654 35.882H13.9885C14.4776 35.882 14.8742 35.4855 14.8742 34.9963V34.0732C14.8742 33.584 14.4776 33.1875 13.9885 33.1875Z" fill="black"/>
<path d="M17.383 33.1875H16.4599C15.9707 33.1875 15.5742 33.584 15.5742 34.0732V34.9963C15.5742 35.4855 15.9707 35.882 16.4599 35.882H17.383C17.8722 35.882 18.2687 35.4855 18.2687 34.9963V34.0732C18.2687 33.584 17.8722 33.1875 17.383 33.1875Z" fill="black"/>
<path d="M20.7698 33.1875H19.8466C19.3575 33.1875 18.9609 33.584 18.9609 34.0732V34.9963C18.9609 35.4855 19.3575 35.882 19.8466 35.882H20.7698C21.2589 35.882 21.6554 35.4855 21.6554 34.9963V34.0732C21.6554 33.584 21.2589 33.1875 20.7698 33.1875Z" fill="black"/>
<path d="M24.1643 33.1875H23.2411C22.752 33.1875 22.3555 33.584 22.3555 34.0732V34.9963C22.3555 35.4855 22.752 35.882 23.2411 35.882H24.1643C24.6534 35.882 25.05 35.4855 25.05 34.9963V34.0732C25.05 33.584 24.6534 33.1875 24.1643 33.1875Z" fill="black"/>
<path d="M27.6838 33.1875H26.7607C26.2715 33.1875 25.875 33.584 25.875 34.0732V34.9963C25.875 35.4855 26.2715 35.882 26.7607 35.882H27.6838C28.173 35.882 28.5695 35.4855 28.5695 34.9963V34.0732C28.5695 33.584 28.173 33.1875 27.6838 33.1875Z" fill="black"/>
</svg>
