<svg width="58" height="56" viewBox="0 0 58 56" fill="none" xmlns="http://www.w3.org/2000/svg">
<path d="M56.8625 46.2204H55.3012V23.0684V20.7933H56.8625C57.3532 20.7933 57.7769 20.4811 57.9331 19.9904C58.0669 19.522 57.8885 19.009 57.487 18.7413L29.6064 0.184012C29.2272 -0.0613373 28.7365 -0.0613373 28.3797 0.184012L0.499084 18.7413C0.0976038 19.009 -0.103136 19.522 0.0529948 19.9904C0.186822 20.4588 0.632911 20.7933 1.12361 20.7933H2.68492V23.0684V46.2204H1.12361C0.499084 46.2204 0.00838616 46.6665 0.00838616 47.291V54.2277C0.00838616 54.8523 0.499084 55.3653 1.12361 55.3653H56.8848C57.5093 55.3653 58 54.83 58 54.2277V47.291C57.9777 46.6665 57.487 46.2204 56.8625 46.2204ZM4.89306 24.139H7.12351V45.5513H4.89306V24.139ZM9.35396 24.139H11.5844V45.5513H9.35396V24.139ZM13.8149 24.139H23.4058V46.2204H13.8149V24.139ZM32.3276 45.5513H30.0971V24.139H32.3276V45.5513ZM27.8667 45.5513H25.6362V24.139H27.8667V45.5513ZM34.558 24.139H44.1489V46.2204H34.558V24.139ZM53.0707 24.139V45.5513H50.8403V24.139H53.0707ZM48.6098 45.5513H46.3794V24.139H48.6098V45.5513ZM28.9819 2.41446L52.2008 17.8938H5.76294L28.9819 2.41446ZM53.0707 20.7933V21.9086H45.1749H33.4205H24.521H12.7888H4.89306V20.7933H53.0707ZM55.7472 53.1348H2.21653V48.4509H7.94878C8.03799 48.4509 8.14952 48.4955 8.23873 48.4955C8.32795 48.4955 8.43947 48.4509 8.52869 48.4509H28.6696C28.7588 48.4509 28.8704 48.4955 28.9596 48.4955C29.0488 48.4955 29.1603 48.4509 29.2495 48.4509H55.7472V53.1348Z" fill="black"/>
</svg>
