<svg width="33" height="33" viewBox="0 0 33 33" fill="none" xmlns="http://www.w3.org/2000/svg">
<g clip-path="url(#clip0_200_9439)">
<g clip-path="url(#clip1_200_9439)">
<g clip-path="url(#clip2_200_9439)">
<mask id="mask0_200_9439" style="mask-type:luminance" maskUnits="userSpaceOnUse" x="7" y="8" width="19" height="19">
<path d="M25.3968 8.04883H7.40137V26.0442H25.3968V8.04883Z" fill="white"/>
</mask>
<g mask="url(#mask0_200_9439)">
<path d="M24.0696 8.04883H8.72853C8.00121 8.04883 7.40137 8.62618 7.40137 9.3385V24.7545C7.40137 25.4669 8.00121 26.0442 8.72853 26.0442H24.0696C24.8044 26.0442 25.3968 25.4669 25.3968 24.7545V9.3385C25.3968 8.62618 24.7969 8.04883 24.0696 8.04883ZM12.8525 23.12H10.1382V14.9771H12.8525V23.12ZM11.5028 13.8673H11.4803C10.5656 13.8673 9.98071 13.245 9.98071 12.4652C9.98071 11.6704 10.5806 11.0631 11.5178 11.0631C12.4476 11.0631 13.0174 11.6629 13.0324 12.4652C13.0324 13.245 12.4476 13.8673 11.4953 13.8673H11.5028ZM22.6525 23.12H19.9307V18.7711C19.9307 17.6839 19.5408 16.9341 18.5585 16.9341C17.8087 16.9341 17.3588 17.4364 17.1564 17.9238C17.0814 18.0963 17.0739 18.3362 17.0739 18.5836V23.12H14.3596C14.3596 23.12 14.3971 15.7569 14.3596 14.992H17.0814V16.1468C17.3271 15.7203 17.6847 15.3692 18.1155 15.1313C18.5464 14.8934 19.034 14.7779 19.5258 14.7971C21.3178 14.7971 22.66 15.9668 22.66 18.4637V23.12H22.6525Z" fill="black"/>
</g>
</g>
</g>
</g>
<defs>
<clipPath id="clip0_200_9439">
<rect width="17.9954" height="17.9954" fill="white" transform="translate(7.40137 8.04297)"/>
</clipPath>
<clipPath id="clip1_200_9439">
<rect width="17.9954" height="17.9954" fill="white" transform="translate(7.40137 8.04297)"/>
</clipPath>
<clipPath id="clip2_200_9439">
<rect width="17.9954" height="17.9954" fill="white" transform="translate(7.40137 8.04297)"/>
</clipPath>
</defs>
</svg>
