<svg width="60" height="60" viewBox="0 0 60 60" fill="none" xmlns="http://www.w3.org/2000/svg">
<rect width="60" height="60" rx="30" fill="url(#paint0_linear_952_1601)"/>
<path d="M41.3415 21.4021H32.9268V18.8411C32.9268 18.647 32.8497 18.4609 32.7125 18.3237C32.5753 18.1865 32.3892 18.1094 32.1951 18.1094H27.8049C27.6108 18.1094 27.4247 18.1865 27.2875 18.3237C27.1503 18.4609 27.0732 18.647 27.0732 18.8411V21.4021H18.6585C17.6882 21.4021 16.7577 21.7875 16.0716 22.4736C15.3855 23.1597 15 24.0903 15 25.0606V38.2313C15 39.2016 15.3855 40.1322 16.0716 40.8183C16.7577 41.5044 17.6882 41.8899 18.6585 41.8899H41.3415C42.3118 41.8899 43.2423 41.5044 43.9284 40.8183C44.6145 40.1322 45 39.2016 45 38.2313V25.0606C45 24.0903 44.6145 23.1597 43.9284 22.4736C43.2423 21.7875 42.3118 21.4021 41.3415 21.4021ZM28.5366 19.5728H31.4634V23.5972C31.4634 23.9853 31.3092 24.3575 31.0348 24.632C30.7603 24.9064 30.3881 25.0606 30 25.0606C29.6119 25.0606 29.2397 24.9064 28.9652 24.632C28.6908 24.3575 28.5366 23.9853 28.5366 23.5972V19.5728ZM43.5366 38.2313C43.5366 38.8135 43.3053 39.3718 42.8936 39.7835C42.482 40.1952 41.9236 40.4264 41.3415 40.4264H18.6585C18.0764 40.4264 17.518 40.1952 17.1064 39.7835C16.6947 39.3718 16.4634 38.8135 16.4634 38.2313V25.0606C16.4634 24.4784 16.6947 23.9201 17.1064 23.5084C17.518 23.0967 18.0764 22.8655 18.6585 22.8655H27.0732V23.5972C27.0732 24.3734 27.3815 25.1179 27.9304 25.6668C28.4793 26.2156 29.2238 26.524 30 26.524C30.7762 26.524 31.5207 26.2156 32.0696 25.6668C32.6185 25.1179 32.9268 24.3734 32.9268 23.5972V22.8655H41.3415C41.9236 22.8655 42.482 23.0967 42.8936 23.5084C43.3053 23.9201 43.5366 24.4784 43.5366 25.0606V38.2313Z" fill="white"/>
<path d="M25.2231 28.7412H19.4133C19.2193 28.7412 19.0332 28.8183 18.896 28.9555C18.7587 29.0927 18.6816 29.2789 18.6816 29.4729V35.2827C18.6816 35.4767 18.7587 35.6628 18.896 35.8001C19.0332 35.9373 19.2193 36.0144 19.4133 36.0144H25.2231C25.4172 36.0144 25.6033 35.9373 25.7405 35.8001C25.8777 35.6628 25.9548 35.4767 25.9548 35.2827V29.4729C25.9548 29.2789 25.8777 29.0927 25.7405 28.9555C25.6033 28.8183 25.4172 28.7412 25.2231 28.7412ZM24.4914 34.551H20.1451V30.2046H24.4914V34.551Z" fill="white"/>
<path d="M40.2214 33.4531H29.6555C29.4615 33.4531 29.2754 33.5302 29.1381 33.6674C29.0009 33.8047 28.9238 33.9908 28.9238 34.1848C28.9238 34.3789 29.0009 34.565 29.1381 34.7022C29.2754 34.8394 29.4615 34.9165 29.6555 34.9165H40.2214C40.4155 34.9165 40.6016 34.8394 40.7388 34.7022C40.876 34.565 40.9531 34.3789 40.9531 34.1848C40.9531 33.9908 40.876 33.8047 40.7388 33.6674C40.6016 33.5302 40.4155 33.4531 40.2214 33.4531Z" fill="white"/>
<path d="M29.6555 31.3023H35.4653C35.6594 31.3023 35.8455 31.2252 35.9827 31.088C36.1199 30.9507 36.197 30.7646 36.197 30.5706C36.197 30.3765 36.1199 30.1904 35.9827 30.0532C35.8455 29.916 35.6594 29.8389 35.4653 29.8389H29.6555C29.4615 29.8389 29.2754 29.916 29.1381 30.0532C29.0009 30.1904 28.9238 30.3765 28.9238 30.5706C28.9238 30.7646 29.0009 30.9507 29.1381 31.088C29.2754 31.2252 29.4615 31.3023 29.6555 31.3023Z" fill="white"/>
<defs>
<linearGradient id="paint0_linear_952_1601" x1="23.3108" y1="85.7264" x2="86.1141" y2="28.8202" gradientUnits="userSpaceOnUse">
<stop stop-color="#FF1717"/>
<stop offset="1" stop-color="#FF6461"/>
</linearGradient>
</defs>
</svg>
