<svg width="26" height="40" viewBox="0 0 26 40" fill="none" xmlns="http://www.w3.org/2000/svg">
<path d="M5.70146 19.2607L12.3681 22.5941C12.4615 22.6407 12.5615 22.6674 12.6681 22.6674C12.7748 22.6674 12.8748 22.6407 12.9681 22.5941L19.6348 19.2607C19.8615 19.1474 20.0015 18.9141 20.0015 18.6674V10.6674C20.0015 10.5874 19.9815 10.5074 19.9548 10.4341C19.9481 10.4141 19.9415 10.3941 19.9281 10.3741C19.9015 10.3207 19.8681 10.2674 19.8215 10.2207C19.8081 10.2074 19.8015 10.1941 19.7948 10.1874C19.7481 10.1407 19.6948 10.1007 19.6281 10.0674L12.9615 6.73406C12.7748 6.64073 12.5548 6.64073 12.3681 6.73406L5.70146 10.0674C5.64146 10.1007 5.58812 10.1407 5.53479 10.1874C5.52146 10.2007 5.51479 10.2141 5.50813 10.2207C5.46813 10.2674 5.43479 10.3207 5.40146 10.3741C5.39479 10.3941 5.38146 10.4141 5.37479 10.4341C5.34812 10.5074 5.32812 10.5807 5.32812 10.6674V18.6674C5.32812 18.9207 5.46813 19.1474 5.69479 19.2607H5.70146ZM6.66813 11.7407L12.0015 14.4074V20.9141L6.66813 18.2474V11.7407ZM13.3348 20.9141V14.4074L18.6681 11.7407V18.2474L13.3348 20.9141ZM12.6681 8.07406L17.8415 10.6607L12.6681 13.2474L7.49479 10.6607L12.6681 8.07406Z" fill="black"/>
<path d="M22 0H3.33333C1.49333 0 0 1.49333 0 3.33333V36.6667C0 38.5067 1.49333 40 3.33333 40H22C23.84 40 25.3333 38.5067 25.3333 36.6667V3.33333C25.3333 1.49333 23.84 0 22 0ZM3.33333 1.33333H22C23.1 1.33333 24 2.23333 24 3.33333V33.3333H1.33333V3.33333C1.33333 2.23333 2.23333 1.33333 3.33333 1.33333ZM24 36.6667C24 37.7667 23.1 38.6667 22 38.6667H3.33333C2.23333 38.6667 1.33333 37.7667 1.33333 36.6667V34.6667H24V36.6667Z" fill="black"/>
<path d="M11.3327 37.3333H13.9993C14.366 37.3333 14.666 37.0333 14.666 36.6667C14.666 36.3 14.366 36 13.9993 36H11.3327C10.966 36 10.666 36.3 10.666 36.6667C10.666 37.0333 10.966 37.3333 11.3327 37.3333Z" fill="black"/>
<path d="M11.3327 4.00033H13.9993C14.366 4.00033 14.666 3.70033 14.666 3.33366C14.666 2.96699 14.366 2.66699 13.9993 2.66699H11.3327C10.966 2.66699 10.666 2.96699 10.666 3.33366C10.666 3.70033 10.966 4.00033 11.3327 4.00033Z" fill="black"/>
<path d="M6.00065 25.3333H19.334C19.7007 25.3333 20.0007 25.0333 20.0007 24.6667C20.0007 24.3 19.7007 24 19.334 24H6.00065C5.63398 24 5.33398 24.3 5.33398 24.6667C5.33398 25.0333 5.63398 25.3333 6.00065 25.3333Z" fill="black"/>
<path d="M6.00065 28.0003H19.334C19.7007 28.0003 20.0007 27.7003 20.0007 27.3337C20.0007 26.967 19.7007 26.667 19.334 26.667H6.00065C5.63398 26.667 5.33398 26.967 5.33398 27.3337C5.33398 27.7003 5.63398 28.0003 6.00065 28.0003Z" fill="black"/>
</svg>
