<svg width="100" height="100" viewBox="0 0 100 100" fill="none" xmlns="http://www.w3.org/2000/svg">
<rect width="100" height="100" rx="10" fill="url(#paint0_linear_122_940)"/>
<path d="M51.0937 70.3125C50.8865 70.3125 50.6878 70.3948 50.5413 70.5413C50.3948 70.6878 50.3125 70.8865 50.3125 71.0937C50.3125 71.3009 50.3948 71.4997 50.5413 71.6462C50.6878 71.7927 50.8865 71.875 51.0937 71.875H56.5625C56.7697 71.875 56.9684 71.7927 57.1149 71.6462C57.2614 71.4997 57.3437 71.3009 57.3437 71.0937C57.3437 70.8865 57.2614 70.6878 57.1149 70.5413C56.9684 70.3948 56.7697 70.3125 56.5625 70.3125H51.0937Z" fill="white"/>
<path d="M46.4348 36.5237C45.7923 36.5382 45.1818 36.8069 44.737 37.2708C44.2922 37.7347 44.0495 38.356 44.062 38.9985V39.9087C44.0494 40.5513 44.2922 41.1726 44.7369 41.6366C45.1817 42.1005 45.7923 42.3692 46.4348 42.3838H46.4453C46.4743 42.4569 46.5045 42.5296 46.5358 42.6019L46.5285 42.6093C46.2965 42.8437 46.1168 43.1245 46.001 43.4333C45.8853 43.742 45.8362 44.0718 45.8569 44.4009C45.8958 45.02 46.1613 45.6031 46.6027 46.039L47.2435 46.6807C47.7158 47.1543 48.3556 47.4231 49.0245 47.4288C49.3297 47.4307 49.6322 47.3722 49.9147 47.2567C50.1971 47.1412 50.4539 46.971 50.6703 46.7558L50.6802 46.7459C50.7521 46.777 50.8245 46.8071 50.8974 46.836V46.847C50.9121 47.4895 51.1809 48.1 51.6449 48.5446C52.1089 48.9893 52.7303 49.2319 53.3728 49.2192H54.283C54.9254 49.2317 55.5466 48.9891 56.0105 48.5444C56.4743 48.0998 56.7429 47.4894 56.7575 46.847V46.8364C56.8307 46.8072 56.9035 46.7771 56.9758 46.7458L56.9825 46.7526C57.1991 46.9686 57.4563 47.1396 57.7393 47.2557C58.0224 47.3718 58.3256 47.4306 58.6315 47.4288C59.2997 47.4235 59.9388 47.1552 60.4105 46.6819L61.0555 46.0369C61.5179 45.5913 61.785 44.9807 61.7985 44.3387C61.8121 43.6967 61.571 43.0755 61.1278 42.6107L61.1196 42.6025C61.1509 42.5299 61.1812 42.4571 61.2103 42.3838H61.2201C61.8627 42.3693 62.4733 42.1006 62.9181 41.6366C63.363 41.1727 63.6057 40.5513 63.5932 39.9087V38.9985C63.6057 38.3559 63.3629 37.7346 62.9181 37.2707C62.4732 36.8068 61.8626 36.5382 61.2201 36.5237H61.2104C61.1812 36.4504 61.151 36.3776 61.1197 36.3052L61.1275 36.2974C61.5708 35.8328 61.8121 35.2117 61.7987 34.5697C61.7854 33.9278 61.5185 33.3172 61.0564 32.8715L60.4104 32.2261C59.9392 31.7522 59.3001 31.4835 58.6318 31.4783C58.3256 31.4764 58.0221 31.5353 57.7389 31.6517C57.4557 31.7681 57.1984 31.9397 56.9821 32.1564L56.9764 32.162C56.9039 32.1306 56.8309 32.1004 56.7575 32.0712V32.0608C56.743 31.4183 56.4744 30.8078 56.0106 30.363C55.5468 29.9183 54.9255 29.6755 54.283 29.688H53.3729C52.7302 29.6754 52.1088 29.9181 51.6448 30.3628C51.1808 30.8076 50.912 31.4182 50.8974 32.0608V32.0716C50.8244 32.1006 50.7518 32.1306 50.6796 32.1618L50.6725 32.1548C50.4562 31.9386 50.1992 31.7674 49.9163 31.6513C49.6333 31.5352 49.3302 31.4764 49.0243 31.4783C48.3558 31.4838 47.7163 31.7525 47.2446 32.2263L46.6004 32.8708C46.1601 33.3064 45.8955 33.8887 45.8569 34.5068C45.8361 34.8356 45.8851 35.1651 46.0006 35.4736C46.1161 35.7822 46.2956 36.0628 46.5272 36.2972L46.5357 36.3057C46.5044 36.3779 46.4743 36.4506 46.4452 36.5237L46.4348 36.5237ZM47.5961 38.0862C47.7574 37.3504 48.0482 36.6491 48.4548 36.0151L47.633 35.1933C47.4817 35.022 47.4043 34.7977 47.4179 34.5694C47.4315 34.3412 47.5349 34.1276 47.7055 33.9754L48.3491 33.3315C48.5269 33.1492 48.7697 33.0447 49.0243 33.0408C49.1248 33.0394 49.2247 33.058 49.318 33.0956C49.4113 33.1332 49.4961 33.189 49.5677 33.2597L50.3888 34.0808C51.0228 33.6743 51.7241 33.3838 52.4599 33.223V32.0608C52.474 31.8325 52.578 31.619 52.7491 31.4672C52.9202 31.3153 53.1445 31.2374 53.3728 31.2505H54.283C54.5112 31.2376 54.7353 31.3156 54.9062 31.4674C55.0771 31.6193 55.1809 31.8326 55.195 32.0608V33.223C55.9311 33.3835 56.6326 33.674 57.2667 34.0808L58.0884 33.2597C58.1599 33.189 58.2448 33.1332 58.3381 33.0956C58.4314 33.058 58.5312 33.0394 58.6318 33.0408C58.8862 33.0446 59.1287 33.1491 59.3061 33.3315L59.9507 33.9754C60.1207 34.128 60.2236 34.3416 60.2369 34.5697C60.2503 34.7978 60.173 35.022 60.0218 35.1933L59.2013 36.0151C59.6076 36.6493 59.898 37.3505 60.0591 38.0862H61.2201C61.4483 38.1004 61.6616 38.2043 61.8135 38.3752C61.9654 38.5461 62.0435 38.7702 62.0307 38.9985V39.9087C62.0434 40.137 61.9653 40.3611 61.8135 40.532C61.6616 40.703 61.4483 40.807 61.2201 40.8213H60.0591C59.8979 41.5571 59.6075 42.2586 59.2013 42.893L60.0218 43.7144C60.1729 43.8857 60.2503 44.1098 60.2369 44.3379C60.2236 44.5659 60.1207 44.7795 59.9507 44.9321L59.3061 45.5766C59.1283 45.7585 58.8858 45.8626 58.6315 45.8663C58.5311 45.8677 58.4314 45.8492 58.3382 45.8119C58.245 45.7745 58.1601 45.7191 58.0884 45.6488L57.2667 44.8255C56.6328 45.2332 55.9313 45.5244 55.195 45.6854V46.847C55.1805 47.0749 55.0766 47.288 54.9057 47.4396C54.7349 47.5913 54.5111 47.6693 54.283 47.6567H53.3729C53.1446 47.6695 52.9206 47.5916 52.7496 47.4399C52.5786 47.2882 52.4744 47.0751 52.4599 46.847V45.6854C51.7239 45.5241 51.0226 45.2329 50.3888 44.8255L49.5677 45.6488C49.496 45.7191 49.4111 45.7746 49.3179 45.8119C49.2246 45.8492 49.1249 45.8677 49.0245 45.8663C48.77 45.8625 48.5273 45.7584 48.3491 45.5766L47.7055 44.9321C47.5349 44.7799 47.4315 44.5664 47.4179 44.3382C47.4043 44.11 47.4817 43.8857 47.633 43.7144L48.4548 42.893C48.0483 42.2587 47.7575 41.5572 47.5961 40.8213H46.4348C46.2066 40.807 45.9933 40.703 45.8415 40.5321C45.6897 40.3611 45.6116 40.137 45.6245 39.9087V38.9985C45.6116 38.7702 45.6896 38.5461 45.8414 38.3752C45.9933 38.2042 46.2066 38.1003 46.4348 38.0862L47.5961 38.0862Z" fill="white"/>
<path d="M53.8281 43.75C54.678 43.75 55.5087 43.498 56.2153 43.0258C56.922 42.5537 57.4727 41.8826 57.7979 41.0975C58.1231 40.3123 58.2082 39.4484 58.0424 38.6148C57.8766 37.7813 57.4674 37.0157 56.8665 36.4148C56.2655 35.8138 55.4999 35.4046 54.6664 35.2388C53.8329 35.073 52.9689 35.1581 52.1838 35.4833C51.3986 35.8086 50.7276 36.3593 50.2554 37.0659C49.7833 37.7725 49.5312 38.6033 49.5312 39.4531C49.5315 40.5927 49.9842 41.6855 50.79 42.4912C51.5958 43.297 52.6886 43.7498 53.8281 43.75ZM53.8281 36.7188C54.3689 36.7188 54.8976 36.8791 55.3473 37.1796C55.7969 37.48 56.1474 37.9071 56.3544 38.4067C56.5613 38.9064 56.6155 39.4562 56.51 39.9866C56.4044 40.517 56.144 41.0042 55.7616 41.3866C55.3792 41.769 54.892 42.0295 54.3616 42.135C53.8312 42.2405 53.2814 42.1863 52.7817 41.9794C52.2821 41.7724 51.855 41.4219 51.5546 40.9723C51.2541 40.5226 51.0937 39.9939 51.0937 39.4531C51.0946 38.7282 51.3829 38.0332 51.8955 37.5205C52.4082 37.0079 53.1032 36.7196 53.8281 36.7188Z" fill="white"/>
<path d="M53.828 25C52.5576 25.001 51.2916 25.1488 50.0552 25.4405C45.9147 26.1525 42.0387 27.9549 38.826 30.6622C34.2522 34.5663 29.8436 44.066 33.3455 50.0651C33.3631 50.0946 33.3738 50.1277 33.3768 50.1619C33.3797 50.1961 33.3748 50.2306 33.3625 50.2626L30.1608 57.2677C30.1484 57.2948 30.1376 57.3226 30.1284 57.351C30.0046 57.7467 29.9698 58.1649 30.0263 58.5757C30.0829 58.9864 30.2295 59.3796 30.4557 59.7271C30.9746 60.4482 31.8648 60.8353 33.1021 60.8781L32.7435 63.3489C32.7362 63.3993 32.7339 63.4503 32.7366 63.5011C32.7524 63.7585 32.8527 64.0035 33.022 64.198C33.1928 64.3897 33.429 64.5109 33.6844 64.5377L34.6058 64.7069L34.0115 65.4912C33.9779 65.5355 33.9492 65.5833 33.9259 65.6339C33.8508 65.7964 33.8161 65.9747 33.825 66.1535C33.8339 66.3324 33.886 66.5064 33.9768 66.6607L34.5517 67.6391C34.8894 68.3428 35.0622 69.1143 35.0569 69.8949L35.0354 70.86C35.0272 71.5081 35.2167 72.1433 35.5785 72.681C35.9404 73.2187 36.4575 73.6334 37.061 73.8698C38.3956 74.4065 40.2449 74.4405 42.5583 73.9735C42.5789 73.9693 42.5992 73.9644 42.6192 73.9584C42.652 73.9497 45.9452 73.0295 48.3183 74.5072C48.82 74.8248 49.4006 74.9955 49.9943 75H56.5636C56.6659 75.0008 56.7674 74.9814 56.8622 74.9428C56.957 74.9042 57.0432 74.8472 57.1158 74.7752C57.1885 74.7031 57.2461 74.6174 57.2855 74.5229C57.3248 74.4285 57.3451 74.3272 57.3451 74.2248C57.3451 74.1225 57.3248 74.0212 57.2855 73.9267C57.2461 73.8323 57.1885 73.7466 57.1158 73.6745C57.0432 73.6024 56.957 73.5455 56.8622 73.5069C56.7674 73.4683 56.6659 73.4489 56.5636 73.4497H49.9943C49.6941 73.4449 49.4012 73.3563 49.1486 73.1938C46.3019 71.4217 42.6356 72.3464 42.2191 72.46C39.737 72.9576 38.3635 72.7207 37.6477 72.4331C37.3366 72.3121 37.0696 72.0995 36.8821 71.8234C36.6946 71.5473 36.5954 71.2207 36.5977 70.8869L36.6193 69.9214C36.6301 68.8576 36.384 67.8069 35.9017 66.8587L35.4775 66.1365L36.3446 64.9927C36.3782 64.9484 36.4069 64.9005 36.4302 64.85C36.5395 64.6117 36.5613 64.3425 36.4918 64.0897C36.4223 63.8369 36.2659 63.6167 36.0501 63.4678C35.9582 63.4036 35.8535 63.3598 35.7432 63.3395L34.3604 63.0851L34.6806 60.8789C34.6869 60.8283 34.6892 60.7773 34.6877 60.7264C34.6905 60.5369 34.6543 60.349 34.5812 60.1742C34.5081 59.9994 34.3998 59.8416 34.2629 59.7106C34.1261 59.5796 33.9637 59.4783 33.786 59.4128C33.6082 59.3474 33.4188 59.3194 33.2297 59.3305C32.7056 59.3203 32.0203 59.2253 31.7317 58.832C31.5625 58.5347 31.5184 58.1823 31.609 57.8525L34.7914 50.8894C34.8068 50.854 34.818 50.8174 34.8309 50.7812H35.4686C35.6758 50.7812 35.8745 50.6989 36.0211 50.5524C36.1676 50.4059 36.2499 50.2072 36.2499 50C36.2499 49.7928 36.1676 49.5941 36.0211 49.4475C35.8745 49.301 35.6758 49.2187 35.4686 49.2187H34.6874C34.6787 49.2187 34.6706 49.221 34.662 49.2213C31.6765 43.9756 35.7877 35.3008 39.845 31.8374C40.3096 31.4408 40.8064 31.0691 41.3157 30.7097C38.9591 33.4041 37.4949 36.7622 37.1243 40.3224C36.7536 43.8827 37.4947 47.4704 39.2456 50.5924C39.432 50.1769 39.6929 49.7991 40.0154 49.4777L40.2806 49.2123C39.1713 47.0083 38.5936 44.5752 38.5936 42.1078C38.5936 33.5361 45.4276 26.5625 53.828 26.5625C62.2283 26.5625 69.0624 33.5361 69.0624 42.1078C69.0758 46.1033 67.5597 49.9525 64.825 52.8656C62.8333 55.0337 61.2547 57.5477 60.1672 60.2836C59.5287 61.8378 59.0095 64.3741 58.7367 66.2288C58.7066 66.4854 58.5861 66.7227 58.3968 66.8984C58.2075 67.0741 57.9618 67.1766 57.7037 67.1875H49.9523C49.6943 67.1766 49.4486 67.0742 49.2594 66.8986C49.0701 66.723 48.9496 66.4857 48.9194 66.2292C48.7654 65.1823 48.5319 63.9189 48.241 62.731C47.7895 63.0082 47.2838 63.1851 46.7581 63.25C47.0227 64.3573 47.2368 65.5269 47.3737 66.4566C47.4534 67.0861 47.7586 67.6653 48.2327 68.087C48.7069 68.5087 49.3178 68.7442 49.9523 68.75H57.7037C58.3382 68.7441 58.949 68.5085 59.4232 68.0869C59.8973 67.6652 60.2026 67.086 60.2825 66.4566C60.53 64.7735 61.0271 62.3024 61.6123 60.8772C62.6278 58.3176 64.1025 55.9651 65.9637 53.9356C68.9712 50.7331 70.639 46.501 70.6249 42.1078C70.6249 32.6744 63.0897 25 53.828 25Z" fill="white"/>
<path d="M40.4872 58.1759C40.5198 58.705 40.7461 59.2036 41.123 59.5765L41.5186 59.9727C41.923 60.3772 42.4703 60.6063 43.0423 60.6104C43.2949 60.6109 43.5455 60.5649 43.7815 60.4746C43.9527 60.8479 44.228 61.1639 44.5744 61.3846C44.9207 61.6053 45.3234 61.7213 45.7341 61.7188H46.2976C46.7082 61.7213 47.1109 61.6052 47.4572 61.3845C47.8035 61.1637 48.0788 60.8477 48.2498 60.4743C48.4859 60.5648 48.7367 60.611 48.9895 60.6104C49.5609 60.6067 50.1077 60.378 50.5116 59.9738L50.911 59.5745C51.203 59.2855 51.4054 58.9185 51.4939 58.5173C51.5825 58.1162 51.5534 57.6981 51.4102 57.313C51.784 57.1421 52.1004 56.8669 52.3215 56.5204C52.5426 56.1739 52.6588 55.7709 52.6563 55.3599V54.7964C52.6588 54.3855 52.5426 53.9825 52.3215 53.6361C52.1005 53.2896 51.784 53.0144 51.4103 52.8435C51.5535 52.4587 51.5827 52.0407 51.4943 51.6398C51.4059 51.2388 51.2036 50.8718 50.9118 50.5829L50.5115 50.1829C50.108 49.7784 49.5611 49.5495 48.9898 49.5459C48.7368 49.5453 48.4859 49.5915 48.2497 49.6821C48.0787 49.3087 47.8035 48.9926 47.4572 48.7719C47.1109 48.5511 46.7082 48.435 46.2976 48.4375H45.7341C45.3234 48.435 44.9208 48.5511 44.5744 48.7718C44.2281 48.9925 43.9528 49.3084 43.7816 49.6818C43.5456 49.5914 43.2949 49.5453 43.0422 49.5458C42.4707 49.5497 41.9236 49.7786 41.5197 50.1831L41.1207 50.5823C40.745 50.9549 40.5196 51.4526 40.4872 51.9807C40.4697 52.2746 40.5152 52.5688 40.6208 52.8436C40.2471 53.0145 39.9307 53.2897 39.7097 53.6362C39.4887 53.9826 39.3725 54.3855 39.375 54.7964V55.3599C39.3725 55.7708 39.4887 56.1738 39.7097 56.5203C39.9307 56.8668 40.2472 57.1421 40.6209 57.313C40.5152 57.5878 40.4697 57.882 40.4872 58.1759ZM40.9375 54.7964C40.9296 54.6551 40.9779 54.5164 41.0718 54.4106C41.1658 54.3048 41.2979 54.2404 41.4392 54.2317H42.158C42.2579 53.7762 42.4379 53.3421 42.6896 52.9496L42.1809 52.4408C42.0872 52.3348 42.0394 52.1959 42.0478 52.0546C42.0562 51.9133 42.1202 51.7811 42.2258 51.6869L42.6242 51.2883C42.7343 51.1754 42.8845 51.1107 43.0422 51.1083C43.1044 51.1075 43.1662 51.119 43.224 51.1423C43.2817 51.1655 43.3343 51.2001 43.3786 51.2438L43.8869 51.7522C44.2794 51.5005 44.7135 51.3207 45.169 51.2211V50.5017C45.1777 50.3603 45.2421 50.2282 45.348 50.1342C45.4539 50.0402 45.5927 49.992 45.7341 50H46.2976C46.4389 49.9921 46.5776 50.0404 46.6834 50.1344C46.7892 50.2284 46.8534 50.3604 46.8621 50.5017V51.2211C47.3178 51.3205 47.7521 51.5003 48.1446 51.7522L48.6533 51.2438C48.6976 51.2001 48.7501 51.1655 48.8079 51.1423C48.8656 51.119 48.9274 51.1075 48.9896 51.1083C49.1471 51.1107 49.2973 51.1754 49.4071 51.2883L49.8061 51.6869C49.9114 51.7814 49.9751 51.9136 49.9833 52.0548C49.9916 52.196 49.9437 52.3348 49.8502 52.4409L49.3423 52.9496C49.5937 53.3421 49.7735 53.7763 49.8733 54.2317H50.592C50.7332 54.2405 50.8653 54.3048 50.9593 54.4106C51.0533 54.5164 51.1017 54.6551 51.0938 54.7964V55.3599C51.1017 55.5012 51.0533 55.6399 50.9593 55.7458C50.8653 55.8516 50.7332 55.916 50.592 55.9248H49.8733C49.7735 56.3804 49.5937 56.8146 49.3423 57.2073L49.8502 57.7158C49.9437 57.8219 49.9916 57.9606 49.9833 58.1018C49.9751 58.243 49.9114 58.3752 49.8061 58.4696L49.4071 58.8686C49.2971 58.9812 49.1469 59.0457 48.9895 59.0479C48.9274 59.0488 48.8657 59.0374 48.8079 59.0142C48.7502 58.9911 48.6977 58.9568 48.6533 58.9132L48.1446 58.4036C47.7523 58.656 47.3179 58.8363 46.8621 58.936V59.655C46.8532 59.7962 46.7888 59.928 46.6831 60.0219C46.5773 60.1158 46.4388 60.1641 46.2976 60.1563H45.7341C45.5929 60.1642 45.4542 60.116 45.3483 60.0221C45.2424 59.9282 45.178 59.7962 45.169 59.655V58.936C44.7134 58.8361 44.2792 58.6558 43.8869 58.4036L43.3786 58.9133C43.3342 58.9568 43.2816 58.9911 43.2239 59.0142C43.1662 59.0374 43.1045 59.0488 43.0423 59.0479C42.8848 59.0456 42.7345 58.9812 42.6242 58.8687L42.2258 58.4696C42.1202 58.3754 42.0562 58.2433 42.0478 58.102C42.0394 57.9607 42.0872 57.8219 42.1809 57.7158L42.6897 57.2074C42.438 56.8147 42.258 56.3804 42.1581 55.9249H41.4392C41.2979 55.916 41.1658 55.8516 41.0719 55.7458C40.9779 55.6399 40.9296 55.5012 40.9375 55.3599V54.7964Z" fill="white"/>
<path d="M46.0156 57.8125C46.5564 57.8125 47.0851 57.6521 47.5348 57.3517C47.9844 57.0512 48.3349 56.6242 48.5419 56.1245C48.7488 55.6249 48.803 55.0751 48.6975 54.5447C48.592 54.0143 48.3315 53.527 47.9491 53.1446C47.5667 52.7622 47.0795 52.5018 46.5491 52.3963C46.0187 52.2908 45.4689 52.3449 44.9692 52.5519C44.4696 52.7589 44.0425 53.1093 43.7421 53.559C43.4416 54.0087 43.2812 54.5373 43.2812 55.0781C43.2814 55.8033 43.5695 56.4987 44.0823 57.0115C44.595 57.5242 45.2905 57.8124 46.0156 57.8125ZM46.0156 53.9062C46.2474 53.9062 46.474 53.975 46.6667 54.1037C46.8594 54.2325 47.0096 54.4155 47.0983 54.6297C47.187 54.8438 47.2102 55.0794 47.165 55.3067C47.1198 55.5341 47.0082 55.7429 46.8443 55.9068C46.6804 56.0707 46.4716 56.1823 46.2442 56.2275C46.0169 56.2727 45.7813 56.2495 45.5672 56.1608C45.353 56.0721 45.17 55.9219 45.0412 55.7292C44.9125 55.5365 44.8437 55.3099 44.8437 55.0781C44.8441 54.7674 44.9677 54.4696 45.1874 54.2499C45.4071 54.0302 45.7049 53.9066 46.0156 53.9062Z" fill="white"/>
<defs>
<linearGradient id="paint0_linear_122_940" x1="38.8514" y1="142.877" x2="143.523" y2="48.0336" gradientUnits="userSpaceOnUse">
<stop stop-color="#FF1717"/>
<stop offset="1" stop-color="#FF6461"/>
</linearGradient>
</defs>
</svg>
