<svg width="100" height="100" viewBox="0 0 100 100" fill="none" xmlns="http://www.w3.org/2000/svg">
<rect width="100" height="100" rx="10" fill="url(#paint0_linear_122_945)"/>
<path d="M73.0893 62.1779L66.524 56.6344C66.7369 56.2376 66.8715 55.7989 66.9103 55.336C66.9853 54.4441 66.7095 53.5771 66.1345 52.8981C65.7135 52.3973 65.1659 52.0392 64.5514 51.8546C65.4635 50.6352 65.453 48.9021 64.432 47.6892C63.9885 47.1626 63.4046 46.7941 62.7498 46.6191C63.4796 45.4239 63.4054 43.8441 62.453 42.7126C61.9256 42.0884 61.1998 41.686 60.3933 41.5667C60.7627 40.4892 60.5756 39.2489 59.7901 38.3175C59.2167 37.636 58.4078 37.2199 57.5151 37.1441C56.6175 37.0658 55.7546 37.3433 55.0732 37.9175L54.949 38.0223L51.1861 36.2667C49.2167 35.2441 47.4925 36.0481 46.6586 37.2957C46.3812 37.7102 46.2111 38.1578 46.1224 38.6094L45.3022 37.9167C43.8901 36.7279 41.7748 36.9094 40.5853 38.3175C39.7998 39.2489 39.6127 40.4892 39.9828 41.5667C39.1764 41.686 38.4522 42.0876 37.9232 42.7134C37.349 43.3949 37.074 44.261 37.149 45.1529C37.1941 45.682 37.3578 46.1804 37.6256 46.6191C36.9909 46.79 36.399 47.1489 35.9433 47.6884C34.9215 48.9013 34.9119 50.6344 35.8248 51.8538C35.2272 52.0352 34.6732 52.3836 34.2417 52.8957C33.3328 53.9715 33.228 55.4586 33.8554 56.6336L27.2869 62.1771C26.9457 62.4642 26.903 62.9731 27.1901 63.3134C27.3498 63.5021 27.5772 63.5997 27.8078 63.5997C27.9917 63.5997 28.1756 63.5376 28.3272 63.4102L34.9183 57.8481L37.5619 60.0771C38.1691 60.5892 38.9232 60.8634 39.7111 60.8634C39.807 60.8634 39.9038 60.8586 40.0006 60.8505C40.8917 60.7747 41.6998 60.3586 42.2715 59.6788C42.8474 58.9989 43.1232 58.1336 43.0482 57.2409C43.0086 56.7683 42.8683 56.3239 42.6498 55.9207C43.3159 55.7594 43.9409 55.4005 44.4151 54.8384C45.0683 54.0634 45.2933 53.0779 45.1425 52.1481C45.1433 52.1481 45.1441 52.1481 45.1449 52.1481C46.0853 52.1481 47.0119 51.7578 47.6465 51.0086C48.2393 50.4126 48.5457 49.6013 48.5078 48.7255C48.5062 48.6965 48.4965 48.6691 48.4949 48.6408C48.6272 48.657 48.7578 48.6788 48.8925 48.6788C48.9885 48.6788 49.0861 48.6747 49.1828 48.6658C50.0756 48.59 50.8828 48.1731 51.4086 47.5441C52.0046 46.9513 52.3127 46.1425 52.2764 45.2658C52.2433 44.4691 51.9207 43.7199 51.3965 43.1312L56.1119 39.1497C56.4643 38.8538 56.9111 38.7078 57.3772 38.7513C57.8409 38.79 58.2595 39.0054 58.5554 39.357C59.1707 40.0868 59.0772 41.1844 58.3474 41.8005L57.7377 42.3167C57.7369 42.3175 57.7369 42.3175 57.7369 42.3175C57.3974 42.6046 57.3546 43.1134 57.6433 43.4538C57.9296 43.7933 58.4385 43.8352 58.7788 43.5481L58.7828 43.5441C59.1328 43.2513 59.582 43.1126 60.0385 43.1481C60.503 43.1868 60.9232 43.4013 61.2191 43.7529C61.8353 44.4844 61.7417 45.5804 61.0111 46.1965L59.7175 47.2908C59.7175 47.2908 59.7167 47.2917 59.7159 47.2917C59.3764 47.5796 59.3336 48.0884 59.6215 48.4279C59.9086 48.7683 60.4175 48.811 60.7578 48.5231C61.1095 48.2247 61.5707 48.0868 62.0207 48.1223C62.4836 48.1618 62.9014 48.3763 63.1974 48.7279C63.8127 49.4586 63.7191 50.5554 62.9901 51.1715L61.4207 52.4957L61.4199 52.4965C61.0796 52.7836 61.0361 53.2925 61.3232 53.6328C61.6103 53.9731 62.1183 54.0175 62.4595 53.7296L62.4619 53.7279C62.8135 53.432 63.257 53.2941 63.7232 53.3296C64.1861 53.3691 64.6038 53.5836 64.9006 53.9368C65.1982 54.2892 65.3401 54.7376 65.3014 55.1997C65.2619 55.6626 65.0474 56.082 64.6957 56.3788L57.3659 62.5659C54.3748 65.0909 51.9078 64.8239 48.2022 64.0868C47.9603 64.036 47.7127 64.1029 47.524 64.2618L36.4877 73.5779C36.1474 73.8642 36.1046 74.3731 36.3925 74.7142C36.5514 74.9029 36.7788 75.0005 37.0086 75.0005C37.1925 75.0005 37.3764 74.9384 37.5288 74.8102L48.2691 65.7433C49.7998 66.0384 51.2006 66.2441 52.5538 66.1941L62.8538 74.8126C63.0062 74.9392 63.1893 75.0005 63.3715 75.0005C63.6022 75.0005 63.8312 74.9021 63.9909 74.7118C64.2764 74.3699 64.232 73.8618 63.8901 73.5763L54.6836 65.8723C55.9054 65.5263 57.1248 64.8812 58.4062 63.7997L65.4611 57.8465L72.049 63.4094C72.2006 63.5376 72.3853 63.5997 72.5691 63.5997C72.799 63.5997 73.0264 63.5029 73.1861 63.3142C73.4724 62.9739 73.4296 62.465 73.0893 62.1779ZM48.0845 40.2642C47.474 39.7489 47.5853 38.8118 48.0006 38.1917C48.2054 37.8852 48.9877 36.9441 50.4748 37.7126L53.5925 39.1675L50.1885 42.0417L48.0917 40.2723L48.0861 40.2675C48.0853 40.2667 48.0861 40.265 48.0845 40.2642ZM41.0409 58.6368C40.7449 58.9892 40.3272 59.2038 39.8651 59.2425C39.3982 59.2844 38.953 59.1392 38.6022 58.8433L35.6804 56.3804C34.9506 55.761 34.8578 54.665 35.4748 53.936C36.0861 53.2102 37.1691 53.1142 37.9006 53.7191L40.8377 56.1957C41.1893 56.4917 41.4038 56.9102 41.4425 57.3739C41.4812 57.8376 41.3385 58.2852 41.0409 58.6368ZM43.1836 53.7973C42.5675 54.5271 41.4724 54.6207 40.7417 54.0062L38.9603 52.5038C38.9578 52.5021 38.957 52.4989 38.9546 52.4965L38.9538 52.4957L37.3853 51.1723C36.6554 50.5546 36.5619 49.4586 37.1764 48.7288C37.474 48.3763 37.8933 48.1618 38.3562 48.1223C38.8199 48.0844 39.2683 48.2255 39.6199 48.5231L39.6207 48.5239C39.6224 48.5255 39.6256 48.5255 39.6272 48.5271L42.9748 51.3554C43.7054 51.9715 43.7982 53.0683 43.1836 53.7973ZM46.4611 49.9167C45.8433 50.6465 44.7482 50.74 44.0167 50.1231L40.6506 47.2804C40.6498 47.2796 40.6482 47.2796 40.6474 47.2788L39.3627 46.1949C39.0111 45.8989 38.7965 45.4804 38.757 45.0167C38.7175 44.5538 38.8603 44.1038 39.1562 43.7529C39.453 43.4013 39.8715 43.1868 40.3345 43.1481C40.7893 43.1054 41.2417 43.2489 41.5925 43.5417L41.5998 43.5481L46.2522 47.4739C46.6361 47.7981 46.8772 48.2917 46.899 48.7933C46.9159 49.2142 46.7772 49.5965 46.4611 49.9167ZM50.2256 46.4521C49.9296 46.8038 49.5119 47.0183 49.049 47.0578C48.5836 47.1005 48.1377 46.9554 47.7877 46.6602C47.7482 46.6271 47.7127 46.6263 47.6796 46.6449C47.5586 46.5038 47.4353 46.3626 47.2925 46.2417L42.6393 42.315C42.6361 42.3118 42.6328 42.3102 42.6296 42.307L42.0272 41.7997C41.2974 41.1828 41.2038 40.086 41.8183 39.357C42.4353 38.6279 43.532 38.5336 44.2619 39.1481L45.3643 40.0796C45.3651 40.0796 45.3651 40.0804 45.3659 40.0812L47.1175 41.5602L47.6595 42.0175L50.0215 44.0118C50.4054 44.3352 50.6457 44.8288 50.6675 45.332C50.6845 45.7505 50.5441 46.1296 50.2256 46.4521Z" fill="white"/>
<path d="M53.4178 30.8548C53.8637 30.8548 54.2242 30.4944 54.2242 30.0484V25.8065C54.2242 25.3605 53.8637 25 53.4178 25C52.9718 25 52.6113 25.3605 52.6113 25.8065V30.0484C52.6113 30.4944 52.9718 30.8548 53.4178 30.8548Z" fill="white"/>
<path d="M64.1015 33.1728C64.3499 33.1728 64.5942 33.0583 64.7531 32.8438L67.262 29.4244C67.5249 29.0655 67.4474 28.5607 67.0886 28.297C66.7273 28.0325 66.2241 28.1123 65.9612 28.4704L63.4523 31.8897C63.1894 32.2486 63.2668 32.7534 63.6257 33.0171C63.7692 33.122 63.9362 33.1728 64.1015 33.1728Z" fill="white"/>
<path d="M42.0827 32.8448C42.24 33.0602 42.4851 33.1739 42.7335 33.1739C42.8988 33.1739 43.0658 33.1231 43.2101 33.0174C43.569 32.7545 43.6464 32.2497 43.3827 31.8908L40.8722 28.4715C40.6093 28.1134 40.1053 28.0352 39.7456 28.2989C39.3867 28.5618 39.3093 29.0666 39.573 29.4255L42.0827 32.8448Z" fill="white"/>
<defs>
<linearGradient id="paint0_linear_122_945" x1="38.8514" y1="142.877" x2="143.523" y2="48.0336" gradientUnits="userSpaceOnUse">
<stop stop-color="#FF1717"/>
<stop offset="1" stop-color="#FF6461"/>
</linearGradient>
</defs>
</svg>
