<svg width="100" height="100" viewBox="0 0 100 100" fill="none" xmlns="http://www.w3.org/2000/svg">
<rect width="100" height="100" rx="10" fill="url(#paint0_linear_122_943)"/>
<path d="M73.5628 25H26.3616C25.6051 25 25 25.6051 25 26.3616V73.6384C25 74.3949 25.6051 75 26.3616 75H73.6384C74.3949 75 75 74.3949 75 73.6384V26.3616C74.9244 25.6051 74.3192 25 73.5628 25ZM73.4115 26.5129V35.1362H26.5129V26.5129H73.4115ZM26.5129 73.4115V36.649H73.4115V73.4115H26.5129Z" fill="white"/>
<path d="M31.0522 33.624C32.5651 33.624 33.7754 32.4137 33.7754 30.9009C33.7754 29.388 32.5651 28.1777 31.0522 28.1777C29.5394 28.1777 28.3291 29.388 28.3291 30.9009C28.3291 32.4137 29.5394 33.624 31.0522 33.624ZM31.0522 29.6906C31.733 29.6906 32.2625 30.2201 32.2625 30.9009C32.2625 31.5817 31.733 32.1112 31.0522 32.1112C30.3715 32.1112 29.842 31.5817 29.842 30.9009C29.7663 30.2201 30.3715 29.6906 31.0522 29.6906Z" fill="white"/>
<path d="M37.8594 33.624C39.3722 33.624 40.5825 32.4137 40.5825 30.9009C40.5825 29.388 39.3722 28.1777 37.8594 28.1777C36.3465 28.1777 35.1362 29.388 35.1362 30.9009C35.1362 32.4137 36.3465 33.624 37.8594 33.624ZM37.8594 29.6906C38.5402 29.6906 39.0697 30.2201 39.0697 30.9009C39.0697 31.5817 38.5402 32.1112 37.8594 32.1112C37.1786 32.1112 36.6491 31.5817 36.6491 30.9009C36.5734 30.2201 37.1786 29.6906 37.8594 29.6906Z" fill="white"/>
<path d="M44.6685 33.624C46.1813 33.624 47.3916 32.4137 47.3916 30.9009C47.3916 29.388 46.1813 28.1777 44.6685 28.1777C43.1556 28.1777 41.9453 29.388 41.9453 30.9009C41.9453 32.4137 43.1556 33.624 44.6685 33.624ZM44.6685 29.6906C45.3492 29.6906 45.8787 30.2201 45.8787 30.9009C45.8787 31.5817 45.3492 32.1112 44.6685 32.1112C43.9877 32.1112 43.4582 31.5817 43.4582 30.9009C43.3825 30.2201 43.9877 29.6906 44.6685 29.6906Z" fill="white"/>
<path d="M49.963 33.3197H71.143C71.5969 33.3197 71.8994 33.0171 71.8994 32.5632V29.2349C71.8994 28.7811 71.5969 28.4785 71.143 28.4785H49.963C49.5091 28.4785 49.2065 28.7811 49.2065 29.2349V32.5632C49.2065 33.0171 49.5091 33.3197 49.963 33.3197ZM50.7194 29.9914H70.3866V31.8068H50.7194V29.9914Z" fill="white"/>
<path d="M41.4134 42.0961L38.2364 41.6422L36.7992 38.6921C36.6479 38.4652 36.421 38.2383 36.1184 38.2383C35.8158 38.2383 35.5889 38.3896 35.4376 38.6921L34.0004 41.6422L30.7478 42.0961C30.4452 42.1717 30.2183 42.323 30.1426 42.6256C30.067 42.9281 30.1426 43.2307 30.3696 43.382L32.7145 45.6513L32.185 48.8283C32.1093 49.1309 32.2606 49.4334 32.4876 49.5847C32.7145 49.736 33.0171 49.8117 33.3196 49.6604L36.1941 48.1475L39.0685 49.6604C39.2954 49.8117 39.598 49.736 39.9006 49.5847C40.1275 49.4334 40.2788 49.1309 40.2031 48.8283L39.6736 45.6513L42.0186 43.382C42.2455 43.1551 42.3211 42.8525 42.2455 42.6256C41.9429 42.323 41.716 42.1717 41.4134 42.0961ZM38.1608 44.8192C38.0095 44.9705 37.9338 45.2731 37.9338 45.5L38.3121 47.618L36.421 46.6347C36.1941 46.4834 35.9671 46.4834 35.7402 46.6347L33.8491 47.618L34.2273 45.5C34.303 45.2731 34.1517 44.9705 34.0004 44.8192L32.4876 43.3064L34.6056 43.0038C34.8325 43.0038 35.0594 42.7769 35.2107 42.6256L36.1184 40.7345L37.0261 42.6256C37.1018 42.8525 37.3287 43.0038 37.6313 43.0038L39.7493 43.3064L38.1608 44.8192Z" fill="white"/>
<path d="M41.4134 53.3656L38.1608 52.9117L36.7992 49.9617C36.6479 49.7347 36.421 49.5078 36.1184 49.5078C35.8158 49.5078 35.5889 49.6591 35.4376 49.9617L34.0004 52.9117L30.7478 53.3656C30.4452 53.4412 30.2183 53.5925 30.1426 53.8951C30.067 54.1977 30.1426 54.5002 30.3696 54.6515L32.7145 56.9208L32.185 60.0978C32.1093 60.4004 32.2606 60.703 32.4876 60.8543C32.7145 61.0055 33.0171 61.0812 33.3196 60.9299L36.1941 59.417L39.0685 60.9299C39.2954 61.0812 39.598 61.0055 39.9006 60.8543C40.1275 60.703 40.2788 60.4004 40.2031 60.0978L39.6736 56.9208L42.0186 54.6515C42.2455 54.4246 42.3211 54.122 42.2455 53.8951C41.9429 53.5925 41.716 53.3656 41.4134 53.3656ZM38.1608 56.0887C38.0095 56.24 37.9338 56.5426 37.9338 56.7695L38.3121 58.8875L36.421 57.9042C36.1941 57.7529 35.9671 57.7529 35.7402 57.9042L33.8491 58.8875L34.2273 56.7695C34.303 56.5426 34.1517 56.24 34.0004 56.0887L32.4876 54.5759L34.6056 54.2733C34.8325 54.2733 35.0594 54.0464 35.2107 53.8951L36.1184 52.004L37.0261 53.8951C37.1018 54.122 37.3287 54.2733 37.6313 54.2733L39.7493 54.5759L38.1608 56.0887Z" fill="white"/>
<path d="M41.4144 64.5609L38.1617 64.1071L36.7245 61.157C36.5732 60.9301 36.3463 60.7031 36.0437 60.7031C35.7411 60.7031 35.5142 60.8544 35.3629 61.157L33.9257 64.1071L30.6731 64.5609C30.3705 64.6366 30.1436 64.7878 30.0679 65.0904C29.9923 65.393 30.0679 65.6956 30.2948 65.8468L32.6398 68.1161L32.1103 71.2931C32.0346 71.5957 32.1859 71.8983 32.4128 72.0496C32.6398 72.2009 32.9423 72.2765 33.2449 72.1252L36.1194 70.6124L38.9938 72.1252C39.2207 72.2765 39.5233 72.2009 39.8259 72.0496C40.0528 71.8983 40.2041 71.5957 40.1284 71.2931L39.5233 68.1161L41.8682 65.8468C42.0951 65.6199 42.1708 65.3173 42.0951 65.0904C41.9439 64.8635 41.7169 64.6366 41.4144 64.5609ZM38.1617 67.3597C38.0104 67.511 37.9348 67.8136 37.9348 68.0405L38.313 70.1585L36.4219 69.1751C36.195 69.0239 35.9681 69.0239 35.7411 69.1751L33.8501 70.1585L34.2283 68.0405C34.3039 67.8136 34.1526 67.511 34.0014 67.3597L32.4885 65.8468L34.6065 65.5443C34.8334 65.5443 35.0604 65.3173 35.2116 65.1661L36.1194 63.275L37.0271 65.1661C37.1027 65.393 37.3296 65.5443 37.6322 65.5443L39.7502 65.8468L38.1617 67.3597Z" fill="white"/>
<path d="M70.3862 64.9395H44.6676C44.2137 64.9395 43.9111 65.242 43.9111 65.6959V70.764C43.9111 71.2178 44.2137 71.5204 44.6676 71.5204H70.3862C70.84 71.5204 71.1426 71.2178 71.1426 70.764V65.6959C71.1426 65.242 70.84 64.9395 70.3862 64.9395ZM69.6297 69.9319H45.424V66.3767H69.6297V69.9319Z" fill="white"/>
<path d="M44.6676 60.2509H63.2757C63.7296 60.2509 64.0322 59.9483 64.0322 59.4944V54.4264C64.0322 53.9725 63.7296 53.6699 63.2757 53.6699H44.6676C44.2137 53.6699 43.9111 53.9725 43.9111 54.4264V59.4944C43.9111 59.8726 44.2137 60.2509 44.6676 60.2509ZM45.424 55.1828H62.5193V58.738H45.424V55.1828Z" fill="white"/>
<path d="M44.6676 48.9794H57.2243C57.6782 48.9794 57.9807 48.6768 57.9807 48.2229V43.1549C57.9807 42.701 57.6782 42.3984 57.2243 42.3984H44.6676C44.2137 42.3984 43.9111 42.701 43.9111 43.1549V48.2229C43.9111 48.6768 44.2137 48.9794 44.6676 48.9794ZM45.424 43.9113H56.4679V47.4665H45.424V43.9113Z" fill="white"/>
<defs>
<linearGradient id="paint0_linear_122_943" x1="38.8514" y1="142.877" x2="143.523" y2="48.0336" gradientUnits="userSpaceOnUse">
<stop stop-color="#FF1717"/>
<stop offset="1" stop-color="#FF6461"/>
</linearGradient>
</defs>
</svg>
