<svg width="40" height="40" viewBox="0 0 40 40" fill="none" xmlns="http://www.w3.org/2000/svg">
<path d="M12.6674 30.6637C8.26233 30.5283 8.26167 24.1334 12.6674 23.9974C17.0725 24.1327 17.0732 30.5277 12.6674 30.6637ZM39.9992 8.66491C40.0439 10.1962 38.2113 11.2021 36.948 10.3595L35.0828 11.8521C34.7942 12.0827 34.3755 12.0354 34.1455 11.7481L31.9443 8.99689L17.3505 23.5907C17.5905 23.8907 17.8025 24.214 17.9818 24.5573L33.7022 22.1388L32.1516 18.6503C29.4171 18.7963 29.2565 14.7546 31.9997 14.6659C33.7782 14.6252 34.6802 16.9418 33.3729 18.1137L35.2755 22.3948C35.3595 22.5848 35.3508 22.8028 35.2515 22.9848C35.1521 23.1668 34.9728 23.2921 34.7675 23.3241L18.4691 25.8313C18.5991 26.3452 18.6851 26.8945 18.6611 27.4465L33.6149 30.3223C34.5995 28.5858 37.3474 29.3084 37.332 31.3316C37.2894 33.7888 33.7616 34.0421 33.3622 31.6316L18.4844 28.7704C18.3338 29.3804 18.0898 29.9524 17.7678 30.4737L26.2966 34.7354C26.8033 34.9468 26.642 35.6967 26.6653 36.1207C28.7512 36.8646 28.2392 39.9791 25.9987 39.9978C23.7588 39.9791 23.2462 36.8646 25.332 36.1207V35.7434L16.9305 31.5456C15.7132 32.7995 13.8407 33.5168 11.9995 33.2922V36.6647H16.7885C17.5325 34.5788 20.647 35.0907 20.6656 37.3313C20.647 39.5712 17.5325 40.0838 16.7885 37.9979H11.3328C10.9642 37.9979 10.6662 37.6993 10.6662 37.3313V32.9815C10.2389 32.8295 9.83358 32.6322 9.45627 32.3922L7.55971 35.4274C8.61298 36.6527 7.63237 38.7185 5.9998 38.6652C3.0693 38.5312 3.54394 34.2055 6.43244 34.7154L8.40833 31.5543C8.17167 31.3156 7.95769 31.0556 7.7637 30.7803L3.99591 32.0363C3.88592 34.6481 0.0634669 34.6128 0.00013712 31.9989C-0.021195 30.1144 2.452 29.2831 3.56927 30.773L7.11173 29.5924C6.90708 29.0911 6.76775 28.5571 6.70576 27.9991H2.66799C2.29934 27.9991 2.00136 27.7005 2.00136 27.3325V25.21C-0.0845248 24.466 0.427446 21.3515 2.66799 21.3329C4.90786 21.3515 5.4205 24.466 3.33461 25.21V26.6659H6.70709C6.84308 25.4406 7.35105 24.3274 8.11368 23.4367L3.21595 16.5805C0.279455 17.2784 -0.350509 12.8247 2.66799 12.6667C4.2479 12.6174 5.24051 14.5606 4.30456 15.8112L9.09762 22.5215C9.72825 22.0522 10.4529 21.7048 11.2388 21.5115L8.67698 6.78102C8.62031 6.45637 8.8103 6.13905 9.12295 6.03439L12.5648 4.88713L12.3814 3.97118C9.95957 3.58787 10.2016 0.0447341 12.6668 6.99422e-05C14.682 -0.0159291 15.4113 2.71725 13.6887 3.71053L13.9873 5.20244C14.0533 5.53242 13.8633 5.85907 13.5447 5.96573L10.0889 7.11767L12.5621 21.3375C12.6081 21.3362 12.6534 21.3295 12.6994 21.3335L13.3347 8.63291C13.3527 8.27827 13.6454 7.99962 14.0007 7.99962H17.5885L19.229 4.71847C18.0064 3.5172 18.9324 1.294 20.667 1.33333C23.4688 1.43332 23.2122 5.57442 20.425 5.30844L18.5971 8.96423C18.4838 9.19022 18.2531 9.33287 18.0004 9.33287H14.6346L14.0267 21.4935C14.1833 21.5302 14.3393 21.5695 14.4913 21.6175L19.1657 13.308C18.0284 12.0827 18.9811 9.9615 20.667 9.9995C23.5341 10.1175 23.1688 14.3499 20.3263 13.9646L15.7106 22.1695C15.9546 22.3135 16.1879 22.4721 16.4085 22.6481L31.5283 7.52698C31.6623 7.39298 31.849 7.32699 32.037 7.33232C32.2256 7.34299 32.4023 7.43365 32.521 7.58164L34.7708 10.3941L36.1181 9.31687C35.6401 8.05895 36.6547 6.63903 38 6.66503C39.1046 6.66503 39.9992 7.56031 39.9992 8.66491ZM17.3338 27.3305C17.0998 21.1502 8.23567 21.1482 8.00102 27.3305C8.00102 29.9037 10.0949 31.9969 12.6674 31.9969C15.2399 31.9969 17.3338 29.9037 17.3338 27.3305Z" fill="black"/>
</svg>
