<svg width="40" height="39" viewBox="0 0 40 39" fill="none" xmlns="http://www.w3.org/2000/svg">
<path fill-rule="evenodd" clip-rule="evenodd" d="M21.9954 2.84281C21.7696 2.84281 21.5872 2.66045 21.5872 2.4346C21.5872 1.98455 21.4099 1.57969 21.1221 1.28691C20.8344 0.995803 20.4378 0.815103 20.0012 0.815103C19.5629 0.815103 19.168 0.994116 18.8819 1.28691C18.5942 1.57968 18.4169 1.98455 18.4169 2.4346C18.4169 2.66045 18.2345 2.84281 18.0087 2.84281H15.6246V5.13151H24.3793V2.84281H21.9954ZM15.3316 10.3327C15.1058 10.3327 14.9234 10.1504 14.9234 9.92453C14.9234 9.69868 15.1058 9.51632 15.3316 9.51632H24.5733C24.7991 9.51632 24.9815 9.69868 24.9815 9.92453C24.9815 10.1504 24.7991 10.3327 24.5733 10.3327H15.3316ZM15.3316 13.4011C15.1058 13.4011 14.9234 13.2187 14.9234 12.9928C14.9234 12.767 15.1058 12.5846 15.3316 12.5846H24.5733C24.7991 12.5846 24.9815 12.767 24.9815 12.9928C24.9815 13.2187 24.7991 13.4011 24.5733 13.4011H15.3316ZM15.3316 16.4694C15.1058 16.4694 14.9234 16.287 14.9234 16.0612C14.9234 15.8353 15.1058 15.653 15.3316 15.653H24.5733C24.7991 15.653 24.9815 15.8353 24.9815 16.0612C24.9815 16.287 24.7991 16.4694 24.5733 16.4694H15.3316ZM35.4193 32.0853H31.7487V32.9736H33.4853C33.5857 32.9736 33.6777 33.0104 33.748 33.0707L34.5611 33.6378C34.7886 33.4621 35.073 33.3584 35.3825 33.3584C35.7405 33.3584 36.0651 33.4989 36.3077 33.7281C36.3177 33.7365 36.3261 33.7449 36.3361 33.7532C36.5804 33.9975 36.731 34.3338 36.731 34.7069C36.731 35.0783 36.5804 35.4162 36.3361 35.6605C36.0919 35.9048 35.7556 36.0553 35.3825 36.0553C35.0111 36.0553 34.6732 35.9048 34.4289 35.6605C34.1846 35.4162 34.034 35.08 34.034 34.7069C34.034 34.568 34.0558 34.4308 34.096 34.3053L33.5255 33.9072L33.3615 33.7917H31.7504V35.2523C31.7504 35.4781 31.5681 35.6605 31.3422 35.6605H27.8573C27.6315 35.6605 27.4491 35.4781 27.4491 35.2523V34.7153C27.2551 34.8457 27.0409 34.9445 26.8301 34.9997C26.81 35.2004 26.7665 35.3811 26.703 35.5417C26.6996 35.5534 26.6946 35.5668 26.6896 35.5785C26.5725 35.8495 26.3951 36.0553 26.1676 36.1992C25.9501 36.3381 25.6908 36.41 25.4047 36.4217C25.1805 36.4301 24.938 36.3983 24.6836 36.3297C24.6435 36.507 24.5866 36.6609 24.5147 36.7948C24.3457 37.1143 24.0998 37.3218 23.8087 37.4272C23.531 37.5259 23.2198 37.5242 22.9002 37.4305C22.7614 37.3904 22.6208 37.3318 22.482 37.2582C22.4569 37.3402 22.4284 37.4171 22.3967 37.4874C22.2461 37.8086 22.0169 38.006 21.7325 38.0981C21.4698 38.1817 21.1787 38.1683 20.8725 38.0713C20.6467 37.9994 20.4075 37.8806 20.1649 37.7233C20.0394 37.9642 19.8621 38.1633 19.6412 38.3005C19.397 38.4511 19.1109 38.518 18.7963 38.4712C18.6474 38.4494 18.4952 38.4026 18.3396 38.3273C17.5482 37.9408 16.7553 37.4674 15.9271 36.8935C15.1057 36.3247 14.2524 35.6605 13.334 34.8859C13.2637 34.8273 13.2068 34.7838 13.1533 34.7554C13.1081 34.732 13.0529 34.7152 12.9776 34.7035C12.8287 34.6818 12.6865 34.6433 12.5543 34.5881V35.254C12.5543 35.4798 12.372 35.6622 12.1461 35.6622H8.66125C8.43539 35.6622 8.25303 35.4798 8.25303 35.254V33.7934H6.64193L6.46961 33.9139L5.90581 34.307C5.94596 34.4342 5.96771 34.5697 5.96771 34.7085C5.96771 35.08 5.81714 35.4179 5.57288 35.6622C5.32862 35.9065 4.99233 36.057 4.62092 36.057C4.24784 36.057 3.91159 35.9064 3.66729 35.6622C3.42303 35.4179 3.27246 35.0816 3.27246 34.7085C3.27246 34.3371 3.42303 33.9992 3.66729 33.7549C3.91155 33.5107 4.24784 33.3601 4.62092 33.3601C4.93043 33.3601 5.21483 33.4638 5.44238 33.6395L6.25545 33.0723C6.32571 33.0121 6.41773 32.9753 6.51811 32.9753H8.2547V32.0869H4.58412C4.51888 32.2944 4.40343 32.4801 4.25286 32.6323C4.00861 32.8766 3.67232 33.0271 3.29923 33.0271C2.92783 33.0271 2.5899 32.8766 2.3456 32.6323C2.33724 32.624 2.32887 32.6156 2.32218 32.6055C2.09298 32.363 1.95245 32.0384 1.95245 31.6787C1.95245 31.3073 2.10302 30.9694 2.34728 30.7251C2.59154 30.4808 2.92783 30.3302 3.30091 30.3302C3.67232 30.3302 4.00857 30.4808 4.25287 30.7251H4.25622C4.40679 30.8756 4.52222 31.0613 4.58747 31.2704H8.25805V30.0308H6.61179C6.5114 30.0308 6.41939 29.9956 6.34912 29.9354L4.69785 28.7827L4.55732 28.684H2.63503C2.56978 28.8914 2.45434 29.0788 2.30377 29.2294C2.05951 29.4736 1.72322 29.6242 1.35014 29.6242C0.97873 29.6242 0.642475 29.4736 0.398178 29.2294L0.396505 29.2277L0.394832 29.2294C0.150574 28.9851 0 28.6488 0 28.2757C0 27.9043 0.15057 27.5664 0.394832 27.3221C0.63909 27.0778 0.975379 26.9273 1.34846 26.9273C1.71987 26.9273 2.0578 27.0778 2.30209 27.3221C2.45266 27.4727 2.5681 27.6584 2.63335 27.8675H4.67775V27.8692C4.75806 27.8692 4.84003 27.8926 4.9103 27.9428L6.72552 29.2092L6.73054 29.2126H8.24964V27.6266H7.25588C7.1555 27.6266 7.06348 27.5898 6.99322 27.5295L6.14833 26.939C5.9208 27.1146 5.6364 27.2184 5.32854 27.2184C4.95713 27.2184 4.61921 27.0678 4.37491 26.8235C4.13065 26.5793 3.98008 26.243 3.98008 25.8699C3.98008 25.4985 4.13065 25.1606 4.37491 24.9163C4.61917 24.672 4.95546 24.5214 5.32854 24.5214C5.69995 24.5214 6.03621 24.672 6.2805 24.9163L6.28218 24.9179L6.28385 24.9163C6.52811 25.1605 6.67868 25.4968 6.67868 25.8699C6.67868 26.0104 6.65693 26.1459 6.61678 26.2731L7.3847 26.8085H8.25465V25.3262C8.25465 25.1003 8.437 24.918 8.66286 24.918H10.0214V21.4214L10.0197 4.56729C10.0197 4.1641 10.1786 3.79603 10.4379 3.52835C10.7006 3.25565 11.0619 3.08837 11.4601 3.08837H14.8061V2.43591C14.8061 2.21005 14.9885 2.0277 15.2144 2.0277H17.6318C17.7155 1.52077 17.9564 1.06738 18.2994 0.717729C18.736 0.272692 19.3367 0 20.0008 0C20.665 0 21.2656 0.272701 21.7006 0.716058C22.0453 1.06572 22.2845 1.5191 22.3682 2.02603H24.7857C25.0115 2.02603 25.1939 2.20838 25.1939 2.43424V3.0867H28.5399C28.9397 3.0867 29.3011 3.25567 29.5621 3.52668C29.8197 3.79436 29.9803 4.16243 29.9803 4.56562V24.918H31.3388C31.5647 24.918 31.747 25.1003 31.747 25.3262V26.8085H32.6153L33.3832 26.2731C33.3431 26.1459 33.3213 26.0104 33.3213 25.8699C33.3213 25.4985 33.4719 25.1606 33.7162 24.9163C33.9604 24.672 34.2967 24.5214 34.6698 24.5214C35.0412 24.5214 35.3791 24.672 35.6234 24.9163C35.8677 25.1605 36.0183 25.4968 36.0183 25.8699C36.0183 26.2413 35.8677 26.5792 35.6234 26.8235C35.3792 27.0678 35.0429 27.2184 34.6698 27.2184C34.3603 27.2184 34.0759 27.1146 33.8483 26.939L33.0035 27.5279C32.9332 27.5881 32.8412 27.6249 32.7408 27.6249H31.747V29.2109H33.2678L35.0897 27.9394C35.16 27.8892 35.242 27.8658 35.3223 27.8658V27.8641H37.3667C37.4319 27.655 37.5473 27.4693 37.6979 27.3187C37.9422 27.0745 38.2785 26.9239 38.6515 26.9239C39.023 26.9239 39.3609 27.0745 39.6052 27.3187C39.8494 27.563 40 27.8993 40 28.2724C40 28.6438 39.8494 28.9817 39.6052 29.226C39.3609 29.4702 39.0246 29.6208 38.6515 29.6208C38.2801 29.6208 37.9422 29.4702 37.6979 29.226C37.5473 29.0754 37.4319 28.8897 37.3667 28.6806H35.446L35.2988 28.7843L33.6559 29.9303C33.5857 29.9906 33.4936 30.0257 33.3933 30.0257H31.7487V31.2654H35.4193C35.4845 31.0579 35.6 30.8706 35.7505 30.72C35.9948 30.4758 36.3311 30.3252 36.7042 30.3252C37.0756 30.3252 37.4135 30.4757 37.6578 30.72C37.9021 30.9643 38.0526 31.3006 38.0526 31.6736C38.0526 32.0451 37.9021 32.383 37.6578 32.6273C37.4136 32.8715 37.0773 33.0221 36.7042 33.0221C36.3328 33.0221 35.9948 32.8715 35.7505 32.6273C35.6 32.4784 35.4846 32.2927 35.4193 32.0853ZM14.8061 3.90334V5.53954C14.8061 5.76539 14.9885 5.94775 15.2143 5.94775H24.7858C25.0116 5.94775 25.194 5.76539 25.194 5.53954V3.90334H28.54C28.709 3.90334 28.8646 3.97528 28.9766 4.09239C29.0938 4.21285 29.1657 4.38182 29.1657 4.56754V24.9199H27.8557C27.6299 24.9199 27.4475 25.1022 27.4475 25.3281V25.84C27.3973 25.825 27.3455 25.8149 27.2919 25.8082C25.987 25.656 24.7874 25.2545 23.6498 24.8747C21.2055 24.0566 19.0405 23.3322 16.613 25.1257C16.2265 25.4117 15.9589 25.6142 15.6928 25.8149C15.5874 25.8936 15.482 25.9739 15.3783 26.0525H13.1265C12.9223 26.0525 12.7283 26.0977 12.5526 26.1763V25.3264C12.5526 25.1006 12.3703 24.9182 12.1444 24.9182H10.8344V21.4216L10.8361 4.56752C10.8361 4.38182 10.9081 4.21284 11.0252 4.09238C11.1373 3.97526 11.2912 3.90332 11.4618 3.90332L14.8061 3.90334ZM20.0009 1.25163C20.3238 1.25163 20.6182 1.38547 20.829 1.60129C21.0398 1.81543 21.1703 2.11155 21.1703 2.43444C21.1703 2.759 21.0398 3.05345 20.829 3.26759C20.6165 3.48341 20.3238 3.61725 20.0009 3.61725C19.678 3.61725 19.3835 3.48341 19.1727 3.26759C18.9619 3.05345 18.8314 2.759 18.8314 2.43444C18.8314 2.10988 18.9619 1.81543 19.1727 1.60129C19.3835 1.38547 19.678 1.25163 20.0009 1.25163ZM20.2501 2.17176C20.3154 2.23701 20.3555 2.3307 20.3555 2.43443C20.3555 2.53815 20.3154 2.63017 20.2501 2.69709C20.1866 2.76233 20.0996 2.80082 20.0009 2.80082C19.9038 2.80082 19.8152 2.76066 19.7516 2.69709C19.6863 2.63184 19.6462 2.53815 19.6462 2.43443C19.6462 2.3307 19.6863 2.23868 19.7516 2.17176C19.8152 2.10652 19.9038 2.06804 20.0009 2.06804C20.0979 2.06804 20.1866 2.10652 20.2501 2.17176ZM23.2599 22.5023C22.2945 22.4939 21.9582 22.1509 21.9616 21.7109C21.9667 21.1923 22.3146 20.5381 22.7396 20.0178C23.1327 19.5343 23.5476 19.1814 23.7484 19.2031C23.7668 19.2048 23.7066 19.2901 23.6832 19.5093C23.5995 20.2738 23.5493 20.8828 23.6062 21.3931C23.6715 21.9703 23.8689 22.4136 24.2888 22.7666C24.4093 22.8686 24.5348 22.9372 24.6602 22.9774C24.9045 23.056 25.1337 23.0276 25.3445 22.9255C25.5202 22.8402 25.6758 22.7064 25.8096 22.5474C26.084 22.2212 26.2814 21.7678 26.3684 21.5001C26.437 21.286 26.3199 21.0568 26.1057 20.9882C25.8916 20.9196 25.6623 21.0367 25.5938 21.2509C25.5285 21.4516 25.383 21.7879 25.1856 22.0238C25.1203 22.1007 25.0551 22.161 24.9932 22.1928C24.9647 22.2061 24.938 22.2112 24.9112 22.2028C24.8844 22.1944 24.8526 22.1744 24.8142 22.1409C24.5732 21.9385 24.4578 21.6674 24.4177 21.3027C24.3691 20.8694 24.4177 20.3056 24.4946 19.5946C24.5799 18.8016 24.3022 18.4419 23.8354 18.3917C23.3586 18.3398 22.6626 18.8233 22.1089 19.5026C21.5869 20.145 21.1553 20.9832 21.1503 21.7026C21.1419 22.5993 21.689 23.2987 23.2549 23.312C23.4791 23.3137 23.6631 23.133 23.6648 22.9088C23.6648 22.688 23.484 22.5039 23.2599 22.5023ZM27.4474 33.377V27.1218C27.4474 27.0181 27.429 26.9127 27.3922 26.8223C27.3637 26.7521 27.3269 26.6918 27.2834 26.655C27.2717 26.645 27.2567 26.635 27.2416 26.6283C27.2299 26.6233 27.2165 26.6199 27.1998 26.6182C25.8162 26.4576 24.5715 26.041 23.392 25.6462C21.1602 24.9001 19.1844 24.2392 17.0983 25.7801C16.8089 25.9942 16.496 26.2301 16.1848 26.466C15.8302 26.7354 15.4772 26.9997 14.9368 27.3946C14.5436 27.6806 14.3328 27.9115 14.2508 28.0939C14.2207 28.1625 14.2157 28.211 14.2291 28.2428C14.2458 28.2863 14.296 28.3314 14.3629 28.3716C14.5469 28.4837 14.813 28.5422 15.0589 28.5489H15.0656C16.2818 28.5991 17.2003 27.9449 17.9498 27.4113C18.9403 26.7053 19.6981 26.1649 20.5965 27.0901C21.7091 28.2378 22.8484 29.6548 23.9844 31.0702C24.8627 32.1627 25.7394 33.2551 26.5977 34.2137C26.7683 34.1753 26.9523 34.0816 27.1096 33.9477C27.2936 33.7921 27.4323 33.5894 27.4474 33.377ZM14.2843 26.8691H13.1266C12.9693 26.8691 12.8255 26.9344 12.7217 27.0381C12.618 27.1418 12.5528 27.2857 12.5528 27.443V33.3354C12.5528 33.506 12.5979 33.6248 12.6715 33.7051C12.7652 33.8072 12.9192 33.8657 13.0982 33.8942C13.2638 33.9193 13.3976 33.9628 13.5248 34.028C13.6436 34.0899 13.7456 34.1652 13.8577 34.2605C14.7595 35.0217 15.591 35.6709 16.3856 36.2213C17.1736 36.7667 17.9315 37.2184 18.6927 37.5915C18.7713 37.63 18.8432 37.6534 18.9102 37.6618C19.0256 37.6785 19.126 37.6567 19.2096 37.6049C19.305 37.5463 19.387 37.4476 19.4472 37.3221C19.4623 37.2937 19.4756 37.2619 19.4857 37.2301L18.691 36.6697C18.507 36.5408 18.4618 36.2865 18.5923 36.1025C18.7211 35.9185 18.9754 35.8733 19.1594 36.0038L20.1699 36.7149C20.1917 36.7299 20.2134 36.7466 20.2318 36.765C20.543 37.021 20.8475 37.205 21.1135 37.2904C21.2624 37.3372 21.3879 37.3506 21.4782 37.3205C21.5468 37.2988 21.607 37.2402 21.6539 37.1398C21.7007 37.0394 21.7342 36.9089 21.7509 36.7416L20.1264 35.5923C19.9441 35.4635 19.9006 35.2092 20.0294 35.0268C20.1582 34.8428 20.4125 34.8009 20.5949 34.9298L22.385 36.1979C22.4051 36.2096 22.4235 36.2247 22.4402 36.2397L22.4419 36.238C22.6727 36.4455 22.9069 36.5844 23.1211 36.6479C23.2767 36.6931 23.4172 36.6981 23.5327 36.658C23.633 36.6212 23.7217 36.5425 23.7903 36.4154C23.8522 36.2983 23.8974 36.146 23.9191 35.9553L22.3783 34.6236C22.2076 34.4764 22.1892 34.2204 22.3364 34.0498C22.4837 33.8791 22.7396 33.8607 22.9103 34.0079L24.5565 35.4317C24.8627 35.5571 25.1387 35.6157 25.3696 35.609C25.5118 35.604 25.6322 35.5705 25.7276 35.5103C25.8129 35.4551 25.8849 35.3714 25.9334 35.2577C25.9367 35.2493 25.9418 35.2409 25.9451 35.2326C25.9903 35.1171 26.0154 34.9766 26.0204 34.806C25.1404 33.8272 24.242 32.708 23.3419 31.5871C22.216 30.1851 21.0884 28.7815 20.0042 27.6639C19.5927 27.2406 19.0824 27.6037 18.4149 28.0805C17.5633 28.6861 16.5194 29.4306 15.027 29.367C14.654 29.357 14.2391 29.2583 13.9329 29.0709C13.7221 28.9421 13.5548 28.7697 13.4661 28.5506C13.3724 28.3197 13.3708 28.0571 13.5013 27.766C13.6284 27.4949 13.8728 27.1954 14.2843 26.8691ZM30.9324 31.6788V25.7363H28.2656V34.8426H30.9324V31.6788ZM11.7381 25.7363H9.07134V34.8409H11.7381V25.7363ZM5.70695 25.4954C5.61159 25.4 5.47775 25.3398 5.33052 25.3398C5.1833 25.3398 5.05113 25.3983 4.95409 25.4954C4.85873 25.5924 4.7985 25.7246 4.7985 25.8718C4.7985 26.019 4.85873 26.1512 4.95409 26.2482C5.05113 26.3436 5.1833 26.4038 5.33052 26.4038C5.46938 26.4038 5.59653 26.3503 5.69189 26.265C5.69691 26.2599 5.70193 26.2549 5.70695 26.2499C5.80398 26.1529 5.86254 26.0207 5.86254 25.8735C5.86254 25.7263 5.80231 25.5941 5.70695 25.497L5.70695 25.4954ZM1.72685 27.8995C1.63149 27.8025 1.49765 27.7439 1.35042 27.7439C1.2032 27.7439 1.07103 27.8025 0.973993 27.8995C0.87863 27.9949 0.818404 28.1287 0.818404 28.2759C0.818404 28.4231 0.87863 28.5553 0.973993 28.6524L0.97232 28.654C1.06935 28.7494 1.20152 28.8096 1.34875 28.8096C1.4943 28.8096 1.62814 28.7494 1.72518 28.654C1.82221 28.557 1.88077 28.4248 1.88077 28.2776C1.88244 28.1287 1.82221 27.9949 1.72685 27.8995ZM4.9959 34.329C4.89887 34.2336 4.7667 34.1734 4.61947 34.1734C4.47225 34.1734 4.34008 34.2336 4.24305 34.329C4.14601 34.426 4.08746 34.5582 4.08746 34.7054C4.08746 34.8526 4.14601 34.9848 4.24305 35.0818C4.34008 35.1772 4.47225 35.2374 4.61947 35.2374C4.76502 35.2374 4.89887 35.1772 4.9959 35.0818C5.09294 34.9848 5.15149 34.8526 5.15149 34.7054C5.15317 34.5582 5.09294 34.426 4.9959 34.329ZM3.67591 31.2992C3.58055 31.2038 3.44671 31.1436 3.29948 31.1436C3.15226 31.1436 3.02009 31.2038 2.92306 31.2992C2.82769 31.3962 2.76747 31.5284 2.76747 31.6756C2.76747 31.8145 2.81933 31.9416 2.90633 32.0353C2.91135 32.0403 2.91636 32.0453 2.92306 32.0504C3.02009 32.1474 3.15226 32.2059 3.29949 32.2059C3.44671 32.2059 3.57888 32.1457 3.67591 32.0504C3.77295 31.955 3.8315 31.8212 3.8315 31.6739C3.8315 31.5267 3.77128 31.3945 3.67591 31.2975L3.67591 31.2992ZM34.6717 25.3417C34.5245 25.3417 34.3923 25.4002 34.2953 25.4972C34.1982 25.5943 34.1397 25.7265 34.1397 25.8737C34.1397 26.0209 34.1982 26.1531 34.2953 26.2501C34.3906 26.3471 34.5245 26.4057 34.6717 26.4057C34.8189 26.4057 34.9511 26.3471 35.0481 26.2501C35.1435 26.1531 35.2037 26.0209 35.2037 25.8737C35.2037 25.7265 35.1435 25.5943 35.0481 25.4972C34.9511 25.4002 34.8189 25.3417 34.6717 25.3417ZM38.1198 28.2711V28.2811C38.1215 28.4267 38.18 28.5572 38.2754 28.6525C38.3707 28.7479 38.5046 28.8081 38.6518 28.8081C38.7973 28.8081 38.9312 28.7479 39.0282 28.6525C39.1253 28.5555 39.1838 28.4233 39.1838 28.2761C39.1838 28.1289 39.1253 27.9967 39.0282 27.8997C38.9312 27.8026 38.799 27.7441 38.6518 27.7441C38.5046 27.7441 38.3724 27.8026 38.2754 27.8997C38.1817 27.995 38.1214 28.1255 38.1198 28.2711ZM35.3811 34.1733C35.2339 34.1733 35.1017 34.2336 35.0047 34.3289C34.9076 34.426 34.8491 34.5581 34.8491 34.7054C34.8491 34.8526 34.9093 34.9848 35.0047 35.0818C35.1017 35.1788 35.2339 35.2374 35.3811 35.2374C35.5266 35.2374 35.6605 35.1788 35.7575 35.0818C35.8545 34.9848 35.9131 34.8526 35.9131 34.7054C35.9131 34.5581 35.8545 34.426 35.7575 34.3289C35.7525 34.3239 35.7475 34.3189 35.7425 34.3122C35.6471 34.2269 35.5216 34.1733 35.3811 34.1733ZM36.7027 31.1452C36.5572 31.1452 36.4233 31.2054 36.3263 31.3008C36.2293 31.3978 36.1707 31.53 36.1707 31.6772C36.1707 31.8244 36.2293 31.9566 36.3263 32.0537C36.4233 32.1507 36.5555 32.2092 36.7027 32.2092C36.85 32.2092 36.9821 32.149 37.0792 32.0537C37.1745 31.9583 37.2348 31.8244 37.2348 31.6772C37.2348 31.53 37.1745 31.3978 37.0792 31.3008C36.9821 31.2038 36.85 31.1452 36.7027 31.1452Z" fill="black"/>
</svg>
