<svg width="100" height="100" viewBox="0 0 100 100" fill="none" xmlns="http://www.w3.org/2000/svg">
<rect width="100" height="100" rx="10" fill="url(#paint0_linear_122_944)"/>
<path fill-rule="evenodd" clip-rule="evenodd" d="M42.0471 32.5969H44.992H44.9899C45.3588 32.5969 45.6583 32.8964 45.6583 33.2632V34.1117C46.2507 34.2896 46.8193 34.537 47.3532 34.8495L47.9738 34.2679V34.2701C48.1019 34.1485 48.2733 34.0856 48.4469 34.0921C48.6227 34.0965 48.7898 34.1724 48.9092 34.3005L50.9231 36.4511C51.1726 36.718 51.1574 37.1369 50.8905 37.3864L50.272 37.9659C50.4782 38.3695 50.6453 38.7905 50.7733 39.2245H51.6218H51.6196C51.9886 39.2245 52.2859 39.524 52.2859 39.8929V42.8378V42.8357C52.2859 43.2046 51.9886 43.504 51.6196 43.504H50.7711C50.6062 44.0531 50.3805 44.5848 50.1006 45.0839L50.6909 45.6959C50.9448 45.9585 50.9383 46.3774 50.6778 46.6335L48.5619 48.6842C48.2993 48.9381 47.8805 48.9316 47.6244 48.6712L47.032 48.0592C46.5936 48.2914 46.1335 48.4802 45.6583 48.6191V49.4676C45.6583 49.8344 45.3588 50.1338 44.9899 50.1338H42.045H42.0471C41.6782 50.1338 41.3787 49.8344 41.3787 49.4676V48.6147C40.7863 48.4368 40.2177 48.1894 39.6838 47.8769L39.0632 48.4585V48.4563C38.9351 48.5757 38.7637 48.6408 38.5879 48.6343C38.4121 48.6299 38.2472 48.554 38.1278 48.4259L36.1161 46.2753H36.1139C35.9946 46.1473 35.9295 45.9758 35.936 45.8001C35.9425 45.6264 36.0185 45.4593 36.1465 45.34L36.765 44.7605C36.5588 44.3569 36.3917 43.9359 36.2637 43.4997H35.4195C35.0506 43.4997 34.7533 43.2024 34.7533 42.8335V39.8886C34.7533 39.5218 35.0506 39.2223 35.4195 39.2223H36.268C36.4308 38.6733 36.6565 38.1416 36.9386 37.6425L36.3483 37.0304C36.2246 36.9046 36.1573 36.7353 36.1595 36.5595C36.1638 36.3816 36.2355 36.2145 36.3613 36.0929L38.4772 34.0422C38.6031 33.9185 38.7724 33.8512 38.9482 33.8534C39.1239 33.8577 39.291 33.9293 39.4147 34.0552L40.0072 34.6672C40.4456 34.435 40.9056 34.2505 41.3809 34.1116V33.2631C41.3809 32.8942 41.6804 32.5969 42.0471 32.5969ZM44.3258 33.9272H42.7113V34.626C42.7113 34.9494 42.479 35.2271 42.16 35.2814C41.4808 35.4355 40.8298 35.7002 40.2373 36.0649C39.9725 36.2276 39.6296 36.1842 39.4126 35.9629L38.9243 35.4594L37.7633 36.5857L38.2495 37.0848V37.087C38.4665 37.3105 38.4968 37.6555 38.3276 37.916C37.8979 38.5561 37.5941 39.2723 37.4335 40.0254C37.3662 40.3314 37.0949 40.5505 36.7824 40.5505H36.0836V42.1651H36.7824C37.1058 42.1651 37.3835 42.3995 37.4378 42.7163C37.5832 43.3631 37.8306 43.9815 38.167 44.5501C38.3341 44.8322 38.2711 45.1947 38.0194 45.403L37.5376 45.8544L38.6466 47.0393L39.1587 46.5597V46.5575C39.3866 46.3448 39.7316 46.3188 39.9877 46.4968C40.6518 46.9547 41.4005 47.2802 42.1904 47.4494C42.4964 47.5167 42.7134 47.7858 42.7134 48.0983V48.7971H44.328V48.0983C44.3302 47.775 44.5624 47.4994 44.8814 47.4429C45.5606 47.291 46.2117 47.0263 46.8041 46.6595C47.0689 46.4989 47.4095 46.5401 47.6266 46.7615L48.1149 47.2649L49.2781 46.1408L48.792 45.6417C48.5728 45.4182 48.5381 45.071 48.7117 44.8084C49.1392 44.1682 49.443 43.452 49.6058 42.6968C49.6731 42.3908 49.9422 42.1738 50.2569 42.1738H50.9557L50.9535 40.5548H50.2569C49.9314 40.5548 49.6558 40.3226 49.5993 40.0036C49.4539 39.3591 49.2109 38.7428 48.8745 38.1742C48.7052 37.892 48.7681 37.5296 49.0221 37.3213L49.5038 36.8699L48.3949 35.6872L47.8827 36.1668C47.6548 36.3794 47.3098 36.4055 47.0537 36.2297C46.3897 35.7696 45.6409 35.4462 44.851 35.2748C44.545 35.2097 44.328 34.9384 44.3259 34.6259L44.3258 33.9272ZM39.5428 37.3865C37.9347 38.9945 37.453 41.4121 38.3232 43.5126C39.1934 45.6133 41.2442 46.9827 43.5164 46.9827C45.7907 46.9827 47.8415 45.6133 48.7117 43.5126C49.5819 41.4119 49.1002 38.9944 47.4921 37.3865C46.4374 36.334 45.0073 35.7415 43.5164 35.7415C42.0256 35.7415 40.5953 36.334 39.5428 37.3865ZM43.5185 37.0718H43.5163C41.7824 37.0718 40.2177 38.1178 39.5536 39.7215C38.8896 41.3253 39.2585 43.1699 40.4846 44.3982C41.7129 45.6243 43.5575 45.9911 45.1613 45.3271C46.765 44.663 47.8089 43.0983 47.8111 41.3644C47.8111 40.225 47.3575 39.1335 46.5524 38.3305C45.7494 37.5254 44.6578 37.074 43.5185 37.074L43.5185 37.0718ZM40.3045 41.1929L41.7129 43.6322H41.7107C41.8149 43.8101 41.995 43.9295 42.199 43.9555C42.403 43.9816 42.607 43.9143 42.7546 43.7689L46.6283 39.8951C46.8584 39.6325 46.8432 39.2354 46.5958 38.988C46.3484 38.7385 45.9512 38.7254 45.6865 38.9555L42.4248 42.2172L41.4525 40.531C41.2681 40.2141 40.8623 40.1056 40.5454 40.2901C40.2286 40.4746 40.1201 40.8804 40.3045 41.1972L40.3045 41.1929ZM65.5368 34.4285L60.9556 29.3872V34.4306L65.5368 34.4285ZM60.7082 59.9191L58.8137 58.7234L58.2451 61.7225L60.7082 59.9191ZM71.2877 43.7274L61.6782 58.9641L59.2563 57.4363C62.4595 52.356 65.6625 47.278 68.8636 42.1996L71.2855 43.7274H71.2877ZM69.5733 41.0776L71.9952 42.6054L73.6228 40.0251C73.7075 39.8776 73.6966 39.8255 73.5577 39.73L71.4505 38.4041C71.3745 38.3585 71.2769 38.3802 71.2291 38.454L69.5755 41.0777L69.5733 41.0776ZM38.5726 59.0422C36.5218 56.9914 33.4359 56.3794 30.7559 57.4884C28.078 58.5995 26.3288 61.2123 26.3288 64.114C26.3288 67.0156 28.0779 69.6283 30.7559 70.7396C33.436 71.8485 36.5221 71.2365 38.5726 69.1857C39.916 67.8402 40.6711 66.0151 40.6711 64.1141C40.6711 62.213 39.9159 60.3877 38.5726 59.0422ZM25.0003 64.1139C24.9982 66.2645 25.8141 68.337 27.279 69.9106C28.746 71.4861 30.7534 72.4453 32.8996 72.5972C35.0437 72.7491 37.1683 72.0829 38.8413 70.7308H67.0381C67.407 70.7308 67.7043 70.4335 67.7043 70.0646V51.8984L74.7705 40.6895C75.2088 39.9929 75.0005 39.0727 74.306 38.6344L72.1576 37.2802C71.461 36.8418 70.5408 37.0523 70.1025 37.7468L67.7023 41.5532V35.0949C67.7023 34.9169 67.6307 34.7455 67.5026 34.6196L60.8076 27.2496C60.6817 27.0911 60.4908 27 60.2911 27H32.6238C32.2548 27 31.9575 27.2995 31.9575 27.6684V55.7524C30.0022 56.1148 28.2379 57.1478 26.9662 58.6756C25.6966 60.2034 25.0003 62.126 25.0003 64.1139ZM42.0015 63.9229H57.2794C57.4356 63.9251 57.5875 63.8686 57.7069 63.7666L62.2794 60.4137L62.4465 60.2314L66.3723 54.0098L66.3701 69.4004H40.1611C41.3981 67.8465 42.0492 65.9086 42.0015 63.9229ZM28.7354 63.9533C28.6464 63.8014 28.6225 63.6212 28.6681 63.4498C28.7137 63.2805 28.8243 63.1351 28.9762 63.0461C29.2931 62.8617 29.6989 62.9702 29.8834 63.287L31.55 66.1712L37.2228 60.5006C37.3465 60.3747 37.518 60.3031 37.6959 60.3009C37.8717 60.3009 38.0432 60.3704 38.169 60.4962C38.2949 60.6221 38.3665 60.7914 38.3665 60.9693C38.3643 61.1473 38.2927 61.3165 38.1668 61.4424L31.8802 67.7252C31.7326 67.8706 31.5286 67.9401 31.3224 67.914C31.1184 67.8858 30.9383 67.7643 30.8341 67.5863L28.7356 63.9513L28.7354 63.9533ZM54.2499 39.4198C53.8984 39.396 53.6249 39.1052 53.6249 38.7536C53.6249 38.402 53.8984 38.1113 54.2499 38.0895H64.0938C64.4432 38.1112 64.7167 38.402 64.7167 38.7536C64.7167 39.1052 64.4432 39.3959 64.0938 39.4198H54.2499ZM54.2499 43.2458L64.0938 43.2436C64.4606 43.2436 64.7601 42.9463 64.7601 42.5774C64.7601 42.2085 64.4606 41.9112 64.0938 41.9112H54.2499C53.881 41.9112 53.5815 42.2085 53.5815 42.5774C53.5815 42.9463 53.881 43.2436 54.2499 43.2436V43.2458ZM39.0565 57.6731H55.836C56.205 57.6731 56.5023 57.9726 56.5023 58.3415C56.5023 58.7082 56.2049 59.0077 55.836 59.0077H40.2999C41.0963 60.0645 41.6345 61.2929 41.8689 62.5949H56.7278L57.6892 57.5233V57.5255C57.7066 57.4343 57.7413 57.3497 57.7934 57.2737L59.8008 54.0858H37.394C37.0424 54.0641 36.769 53.7733 36.769 53.4217C36.769 53.0702 37.0424 52.7794 37.394 52.7555H60.6408L66.3719 43.6627V35.761H60.2913C59.9224 35.761 59.6229 35.4615 59.6229 35.0947V28.3325H33.2906V55.6132C35.4022 55.5567 37.4571 56.2929 39.0565 57.6731Z" fill="white"/>
<defs>
<linearGradient id="paint0_linear_122_944" x1="38.8514" y1="142.877" x2="143.523" y2="48.0336" gradientUnits="userSpaceOnUse">
<stop stop-color="#FF1717"/>
<stop offset="1" stop-color="#FF6461"/>
</linearGradient>
</defs>
</svg>
