<svg width="40" height="34" viewBox="0 0 40 34" fill="none" xmlns="http://www.w3.org/2000/svg">
<path d="M37.1282 6.72571H35.7029C35.7181 6.66764 35.7157 2.87179 35.7157 2.87179C35.7148 2.11042 35.4119 1.38048 34.8736 0.842112C34.3352 0.303741 33.6053 0.00089227 32.8439 0H6.79269C4.99177 0.00198705 3.26517 0.718282 1.99173 1.99173C0.718282 3.26517 0.00198705 4.99177 0 6.79269V30.4025C0.000907531 31.1639 0.30381 31.8939 0.842254 32.4323C1.3807 32.9706 2.11071 33.2735 2.87214 33.2743H37.1282C37.8896 33.2734 38.6195 32.9705 39.1579 32.4322C39.6963 31.8938 39.9991 31.1639 40 30.4025V9.59752C39.9991 8.83614 39.6963 8.1062 39.1579 7.56783C38.6195 7.02945 37.8896 6.7266 37.1282 6.72571ZM38.5714 15.2637H33.418C32.7391 15.2645 32.0882 15.5345 31.6082 16.0146C31.1281 16.4946 30.8581 17.1455 30.8573 17.8244V22.0104C30.8579 22.6894 31.1279 23.3404 31.608 23.8206C32.088 24.3007 32.739 24.5709 33.418 24.5717H38.5714V30.4025C38.571 30.7852 38.4188 31.152 38.1483 31.4226C37.8777 31.6931 37.5108 31.8453 37.1282 31.8457H2.87214C2.48946 31.8453 2.12255 31.6932 1.85192 31.4226C1.58129 31.152 1.42904 30.7852 1.42857 30.4025V6.79269C1.43019 5.37053 1.99585 4.00709 3.00147 3.00147C4.00709 1.99585 5.37054 1.43019 6.79269 1.42857H32.8439C33.2265 1.42897 33.5934 1.58115 33.864 1.85172C34.1345 2.12229 34.2867 2.48915 34.2871 2.87179V6.54857C34.7852 7.00118 8.37139 6.59413 8.42854 6.72596C8.33433 6.72529 8.24091 6.74326 8.15368 6.77885C8.06645 6.81443 7.98712 6.86693 7.92026 6.9333C7.8534 6.99968 7.80034 7.07863 7.76412 7.1656C7.72791 7.25258 7.70926 7.34586 7.70925 7.44007C7.70925 7.53428 7.72788 7.62757 7.76408 7.71454C7.80028 7.80152 7.85333 7.88048 7.92018 7.94687C7.98703 8.01326 8.06635 8.06576 8.15358 8.10136C8.24081 8.13696 8.33422 8.15494 8.42843 8.15429H37.1282C37.5109 8.15468 37.8777 8.30687 38.1483 8.57744C38.4189 8.84801 38.571 9.21487 38.5714 9.59752V15.2637ZM38.5707 16.6922V23.1431H33.418C33.1177 23.1427 32.8299 23.0231 32.6177 22.8108C32.4055 22.5984 32.2861 22.3106 32.2858 22.0103V17.8244C32.2861 17.5242 32.4055 17.2364 32.6178 17.0242C32.83 16.8119 33.1178 16.6925 33.418 16.6922L38.5707 16.6922Z" fill="black"/>
</svg>
