<svg width="40" height="40" viewBox="0 0 40 40" fill="none" xmlns="http://www.w3.org/2000/svg">
<path d="M31.6685 23.3343C27.0733 23.3343 23.3353 27.0725 23.3353 31.6675C23.3353 36.261 27.0735 39.999 31.6685 39.999C36.262 39.999 40 36.2608 40 31.6675C40 27.0723 36.2618 23.3343 31.6685 23.3343ZM31.6685 38.7087C27.7858 38.7087 24.6256 35.5501 24.6256 31.6675C24.6256 27.7849 27.7842 24.6246 31.6685 24.6246C35.5512 24.6246 38.7097 27.7832 38.7097 31.6675C38.7097 35.5502 35.5511 38.7087 31.6685 38.7087ZM29.8456 29.8159V30.4174C29.8456 30.7501 30.1161 31.0222 30.4487 31.0222L33.0579 30.997C34.108 30.997 34.9581 31.8471 34.9581 32.8904V33.4919C34.9581 34.5369 34.108 35.3853 33.0647 35.3853H32.3137V35.8188C32.3137 36.175 32.0247 36.4639 31.6685 36.4639C31.3123 36.4639 31.0233 36.175 31.0233 35.8188V35.3853H30.4488C29.4038 35.3853 28.5553 34.5352 28.5553 33.4919C28.5553 33.1357 28.8443 32.8467 29.2005 32.8467C29.5567 32.8467 29.8456 33.1357 29.8456 33.4919C29.8456 33.8246 30.1161 34.095 30.4488 34.095H33.0647C33.3973 34.095 33.6678 33.8245 33.6678 33.4919V32.8904C33.6678 32.5578 33.3973 32.2873 33.0647 32.2873L30.4555 32.3125C29.4054 32.3125 28.5553 31.4624 28.5553 30.4174V29.8159C28.5553 28.7709 29.4054 27.9225 30.4487 27.9225H31.0233V27.4874C31.0233 27.1312 31.3123 26.8422 31.6685 26.8422C32.0246 26.8422 32.3136 27.1312 32.3136 27.4874V27.9225H33.0646C34.1096 27.9225 34.958 28.7726 34.958 29.8159C34.958 30.1721 34.6691 30.4611 34.3129 30.4611C33.9567 30.4611 33.6677 30.1721 33.6677 29.8159C33.6677 29.4833 33.3972 29.2128 33.0646 29.2128H30.4487C30.1161 29.2128 29.8456 29.4833 29.8456 29.8159ZM15.5916 36.3802C14.6575 36.2642 13.7368 35.8559 12.9522 35.3469C12.0803 34.7807 11.3276 34.0197 10.8286 33.104C10.4304 32.3749 10.2053 31.5533 10.2053 30.72V28.01H11.7241C12.4246 28.01 13.0312 27.6084 13.3033 26.9633C13.5755 26.3181 13.4428 25.6041 12.9539 25.1018L8.97041 20.9956C8.64784 20.663 8.21606 20.4782 7.7389 20.4748C7.28192 20.4748 6.85182 20.6529 6.52924 20.9755L2.41136 25.0816C1.91744 25.5739 1.77124 26.3064 2.03671 26.9499C2.30217 27.5934 2.92379 28.01 3.62103 28.01H5.40358V30.72C5.40358 34.6665 9.15016 37.8773 13.757 37.8773C15.0322 37.8773 16.2603 37.6505 17.4633 37.2305C19.256 36.6055 20.9007 35.4328 22.003 33.9191C21.1042 34.7692 20.0608 35.4311 18.9335 35.8344C18.0817 36.1401 17.1762 36.3485 16.2655 36.4022C16.0387 36.4157 15.8136 36.4056 15.5918 36.3787L15.5916 36.3802ZM6.69367 30.72V27.3649C6.69367 27.0087 6.40469 26.7197 6.04852 26.7197H3.62081C3.36544 26.7197 3.26127 26.5366 3.22935 26.4576C3.19575 26.3787 3.1403 26.1754 3.32175 25.9956L7.43963 21.8895C7.52027 21.8088 7.62612 21.7652 7.73868 21.7652C7.83613 21.7349 7.96382 21.8105 8.04278 21.8928L12.0262 25.999C12.2027 26.1804 12.1455 26.382 12.1119 26.4593C12.0783 26.5366 11.9742 26.7181 11.7222 26.7181H9.55823C9.20205 26.7181 8.91308 27.007 8.91308 27.3632V30.7183C8.91308 33.0453 10.195 35.1368 12.2531 36.4507C9.07772 35.8762 6.69358 33.524 6.69358 30.7183L6.69367 30.72ZM24.407 4.34963C26.1156 4.54788 27.7789 5.59456 28.782 6.97729C29.4154 7.84756 29.7967 8.89761 29.7967 9.97962V12.6896H28.278C27.5774 12.6896 26.9708 13.0911 26.6987 13.7363C26.4265 14.3814 26.5592 15.0955 27.0481 15.5978L31.0316 19.704C31.3542 20.0366 31.786 20.2214 32.2631 20.2248C32.7201 20.2248 33.1502 20.0467 33.4728 19.7241L37.5907 15.6179C38.0846 15.1257 38.2308 14.3915 37.9636 13.7497C37.6982 13.1062 37.0765 12.6912 36.3793 12.6912H34.5968V9.98125C34.5968 6.03472 30.8502 2.82393 26.2433 2.82393C24.9698 2.82393 23.7383 3.05074 22.5371 3.46908C20.7444 4.09406 19.0996 5.26678 17.9973 6.78052C18.8962 5.93038 19.9395 5.26846 21.0668 4.86524C21.6482 4.6485 22.2513 4.49058 22.8629 4.39311C23.3988 4.30743 23.9079 4.29399 24.4052 4.35279L24.407 4.34963ZM33.3062 9.97794V13.3331C33.3062 13.6893 33.5952 13.9782 33.9514 13.9782H36.3791C36.6344 13.9782 36.7386 14.1614 36.7705 14.2403C36.8041 14.3193 36.8596 14.5226 36.6781 14.7023L32.5602 18.8085C32.4796 18.8891 32.3738 18.9328 32.2612 18.9328C32.1419 18.8992 32.0361 18.8858 31.9554 18.8051L27.9719 14.699C27.7955 14.5175 27.8527 14.3159 27.8863 14.2386C27.9199 14.1614 28.024 13.9799 28.276 13.9799H30.44C30.7961 13.9799 31.0851 13.6909 31.0851 13.3348V9.97962C31.0851 7.65268 29.8032 5.56118 27.7451 4.24722C30.9205 4.8218 33.3046 7.17393 33.3046 9.97962L33.3062 9.97794ZM0 8.33147C0 6.93028 0.354498 5.54587 1.02485 4.32615C1.19622 4.01365 1.58768 3.8994 1.90019 4.07077C2.21268 4.24214 2.32693 4.63528 2.15556 4.94612C1.58938 5.97767 1.29033 7.14703 1.29033 8.33149C1.29033 12.2141 4.44891 15.3744 8.33152 15.3744C12.2141 15.3744 15.3744 12.2158 15.3744 8.33149C15.3744 4.44883 12.2159 1.2903 8.33152 1.2903C7.22771 1.2903 6.17095 1.53895 5.19311 2.02616C4.87558 2.18576 4.48749 2.0564 4.32787 1.73718C4.16827 1.41796 4.29763 1.03156 4.61685 0.871945C5.7761 0.293974 7.02611 0 8.33151 0C12.9267 0 16.6647 3.73818 16.6647 8.3315C16.6647 12.9267 12.9265 16.6647 8.33151 16.6647C3.73803 16.6647 0 12.9265 0 8.33147ZM8.97665 4.1514V4.60838H9.14466C10.4131 4.60838 11.4464 5.63993 11.4464 6.91011C11.4464 7.26629 11.1574 7.55526 10.8012 7.55526C10.4451 7.55526 10.1561 7.26629 10.1561 6.91011C10.1561 6.35231 9.70245 5.89868 9.14466 5.89868H7.52003C6.96223 5.89868 6.50861 6.35231 6.50861 6.91011V9.70242C6.50861 10.2602 6.96223 10.7138 7.52003 10.7138H9.14466C9.70245 10.7138 10.1561 10.2602 10.1561 9.70242C10.1561 9.34624 10.4451 9.05726 10.8012 9.05726C11.1574 9.05726 11.4464 9.34624 11.4464 9.70242C11.4464 10.9725 10.4148 12.0041 9.14466 12.0041H8.97665V12.4477C8.97665 12.8038 8.68767 13.0928 8.3315 13.0928C7.97532 13.0928 7.68634 12.8038 7.68634 12.4477V12.0041H7.52002C6.24988 12.0041 5.21828 10.9726 5.21828 9.70242V6.91011C5.21828 5.64166 6.24984 4.60838 7.52002 4.60838H7.68634V4.1514C7.68634 3.79522 7.97532 3.50624 8.3315 3.50624C8.68767 3.50624 8.97665 3.79522 8.97665 4.1514ZM2.33846 2.82075C2.33846 2.45953 2.6308 2.1756 2.98361 2.1756C3.34483 2.1756 3.62877 2.45953 3.62877 2.82075C3.62877 3.17356 3.34483 3.4659 2.98361 3.4659C2.6308 3.4659 2.33846 3.17356 2.33846 2.82075Z" fill="black"/>
</svg>
