<svg width="40" height="40" viewBox="0 0 40 40" fill="none" xmlns="http://www.w3.org/2000/svg">
<path d="M36.116 20.6664C36.2732 21.111 36.5825 21.4858 36.9893 21.7244C37.3961 21.963 37.8741 22.0501 38.3389 21.9704C38.8037 21.8906 39.2253 21.6491 39.5293 21.2886C39.8333 20.928 40 20.4716 40 20C40 19.5284 39.8333 19.072 39.5293 18.7114C39.2253 18.3509 38.8037 18.1094 38.3389 18.0296C37.8741 17.9499 37.3961 18.037 36.9893 18.2756C36.5825 18.5142 36.2732 18.889 36.116 19.3336H31.995V13.612L33.6037 12.0033H34.7832C34.9404 12.4479 35.2497 12.8227 35.6565 13.0613C36.0633 13.2999 36.5413 13.387 37.0061 13.3073C37.4709 13.2276 37.8926 12.9861 38.1965 12.6255C38.5005 12.2649 38.6672 11.8085 38.6672 11.3369C38.6672 10.8653 38.5005 10.4089 38.1965 10.0483C37.8926 9.68779 37.4709 9.44629 37.0061 9.36654C36.5413 9.28679 36.0633 9.37393 35.6565 9.61255C35.2497 9.85117 34.9404 10.2259 34.7832 10.6705H33.3278C33.1511 10.6706 32.9816 10.7408 32.8567 10.8658L31.2054 12.5171L27.3303 10.4653V6.67219H29.4521C29.6093 7.11681 29.9186 7.49155 30.3254 7.73017C30.7321 7.96879 31.2102 8.05593 31.675 7.97618C32.1398 7.89643 32.5614 7.65493 32.8654 7.29437C33.1694 6.93381 33.3361 6.47739 33.3361 6.0058C33.3361 5.5342 33.1694 5.07779 32.8654 4.71722C32.5614 4.35666 32.1398 4.11516 31.675 4.03542C31.2102 3.95567 30.7321 4.0428 30.3254 4.28142C29.9186 4.52004 29.6093 4.89478 29.4521 5.33941H26.6639C26.4872 5.33941 26.3177 5.40962 26.1927 5.53459C26.0677 5.65956 25.9975 5.82906 25.9975 6.0058V9.75957L20.6664 6.93874V3.88401C21.111 3.72681 21.4858 3.41749 21.7244 3.01072C21.963 2.60395 22.0501 2.12591 21.9704 1.66111C21.8906 1.1963 21.6491 0.774655 21.2886 0.470686C20.928 0.166717 20.4716 0 20 0C19.5284 0 19.072 0.166717 18.7114 0.470686C18.3509 0.774655 18.1094 1.1963 18.0296 1.66111C17.9499 2.12591 18.037 2.60395 18.2756 3.01072C18.5142 3.41749 18.889 3.72681 19.3336 3.88401V6.93874L14.0025 9.76091V6.0058C14.0025 5.82906 13.9323 5.65956 13.8073 5.53459C13.6823 5.40962 13.5128 5.33941 13.3361 5.33941H10.5479C10.3907 4.89478 10.0814 4.52004 9.67462 4.28142C9.26785 4.0428 8.78982 3.95567 8.32501 4.03542C7.86021 4.11516 7.43856 4.35666 7.13459 4.71722C6.83062 5.07779 6.66391 5.5342 6.66391 6.0058C6.66391 6.47739 6.83062 6.93381 7.13459 7.29437C7.43856 7.65493 7.86021 7.89643 8.32501 7.97618C8.78982 8.05593 9.26785 7.96879 9.67462 7.73017C10.0814 7.49155 10.3907 7.11681 10.5479 6.67219H12.6697V10.4653L8.79464 12.5171L7.14333 10.8658C7.01838 10.7408 6.84891 10.6706 6.67219 10.6705H5.21679C5.05959 10.2259 4.75027 9.85117 4.3435 9.61255C3.93673 9.37393 3.45869 9.28679 2.99389 9.36654C2.52908 9.44629 2.10744 9.68779 1.80347 10.0483C1.4995 10.4089 1.33278 10.8653 1.33278 11.3369C1.33278 11.8085 1.4995 12.2649 1.80347 12.6255C2.10744 12.9861 2.52908 13.2276 2.99389 13.3073C3.45869 13.387 3.93673 13.2999 4.3435 13.0613C4.75027 12.8227 5.05959 12.4479 5.21679 12.0033H6.3963L8.00497 13.612V19.3336H3.88401C3.72681 18.889 3.41749 18.5142 3.01072 18.2756C2.60395 18.037 2.12591 17.9499 1.66111 18.0296C1.1963 18.1094 0.774655 18.3509 0.470686 18.7114C0.166717 19.072 0 19.5284 0 20C0 20.4716 0.166717 20.928 0.470686 21.2886C0.774655 21.6491 1.1963 21.8906 1.66111 21.9704C2.12591 22.0501 2.60395 21.963 3.01072 21.7244C3.41749 21.4858 3.72681 21.111 3.88401 20.6664H8.00497V26.388L6.3963 27.9967H5.21679C5.05959 27.5521 4.75027 27.1773 4.3435 26.9387C3.93673 26.7001 3.45869 26.6129 2.99389 26.6927C2.52908 26.7724 2.10744 27.0139 1.80347 27.3745C1.4995 27.7351 1.33278 28.1915 1.33278 28.6631C1.33278 29.1347 1.4995 29.5911 1.80347 29.9517C2.10744 30.3122 2.52908 30.5537 2.99389 30.6335C3.45869 30.7132 3.93673 30.6261 4.3435 30.3875C4.75027 30.1488 5.05959 29.7741 5.21679 29.3295H6.67219C6.84891 29.3294 7.01838 29.2592 7.14333 29.1342L8.79464 27.4829L12.6697 29.5347V33.3278H10.5479C10.3907 32.8832 10.0814 32.5084 9.67462 32.2698C9.26785 32.0312 8.78982 31.9441 8.32501 32.0238C7.86021 32.1036 7.43856 32.3451 7.13459 32.7056C6.83062 33.0662 6.66391 33.5226 6.66391 33.9942C6.66391 34.4658 6.83062 34.9222 7.13459 35.2828C7.43856 35.6433 7.86021 35.8848 8.32501 35.9646C8.78982 36.0443 9.26785 35.9572 9.67462 35.7186C10.0814 35.48 10.3907 35.1052 10.5479 34.6606H13.3361C13.5128 34.6606 13.6823 34.5904 13.8073 34.4654C13.9323 34.3404 14.0025 34.1709 14.0025 33.9942V30.2404L19.3336 33.0613V36.1147C18.889 36.2719 18.5142 36.5812 18.2756 36.9879C18.037 37.3947 17.9499 37.8728 18.0296 38.3376C18.1094 38.8024 18.3509 39.224 18.7114 39.528C19.072 39.8319 19.5284 39.9987 20 39.9987C20.4716 39.9987 20.928 39.8319 21.2886 39.528C21.6491 39.224 21.8906 38.8024 21.9704 38.3376C22.0501 37.8728 21.963 37.3947 21.7244 36.9879C21.4858 36.5812 21.111 36.2719 20.6664 36.1147V33.0613L25.9975 30.2391V33.9942C25.9975 34.1709 26.0677 34.3404 26.1927 34.4654C26.3177 34.5904 26.4872 34.6606 26.6639 34.6606H29.4521C29.6093 35.1052 29.9186 35.48 30.3254 35.7186C30.7321 35.9572 31.2102 36.0443 31.675 35.9646C32.1398 35.8848 32.5614 35.6433 32.8654 35.2828C33.1694 34.9222 33.3361 34.4658 33.3361 33.9942C33.3361 33.5226 33.1694 33.0662 32.8654 32.7056C32.5614 32.3451 32.1398 32.1036 31.675 32.0238C31.2102 31.9441 30.7321 32.0312 30.3254 32.2698C29.9186 32.5084 29.6093 32.8832 29.4521 33.3278H27.3303V29.5347L31.2054 27.4829L32.8567 29.1342C32.9816 29.2592 33.1511 29.3294 33.3278 29.3295H34.7832C34.9404 29.7741 35.2497 30.1488 35.6565 30.3875C36.0633 30.6261 36.5413 30.7132 37.0061 30.6335C37.4709 30.5537 37.8926 30.3122 38.1965 29.9517C38.5005 29.5911 38.6672 29.1347 38.6672 28.6631C38.6672 28.1915 38.5005 27.7351 38.1965 27.3745C37.8926 27.0139 37.4709 26.7724 37.0061 26.6927C36.5413 26.6129 36.0633 26.7001 35.6565 26.9387C35.2497 27.1773 34.9404 27.5521 34.7832 27.9967H33.6037L31.995 26.388V20.6664H36.116ZM37.9925 19.3336C38.1243 19.3336 38.2532 19.3727 38.3628 19.4459C38.4724 19.5191 38.5578 19.6232 38.6082 19.745C38.6586 19.8667 38.6718 20.0007 38.6461 20.13C38.6204 20.2593 38.557 20.378 38.4638 20.4712C38.3706 20.5644 38.2518 20.6279 38.1226 20.6536C37.9933 20.6793 37.8593 20.6661 37.7375 20.6157C37.6158 20.5652 37.5117 20.4798 37.4385 20.3702C37.3652 20.2606 37.3262 20.1318 37.3262 20C37.3262 19.8233 37.3964 19.6538 37.5213 19.5288C37.6463 19.4038 37.8158 19.3336 37.9925 19.3336ZM36.6598 10.6705C36.7916 10.6705 36.9204 10.7096 37.03 10.7828C37.1396 10.8561 37.225 10.9601 37.2754 11.0819C37.3259 11.2037 37.3391 11.3377 37.3134 11.4669C37.2876 11.5962 37.2242 11.7149 37.131 11.8081C37.0378 11.9013 36.919 11.9648 36.7898 11.9905C36.6605 12.0162 36.5265 12.003 36.4047 11.9526C36.283 11.9021 36.1789 11.8167 36.1057 11.7071C36.0325 11.5976 35.9934 11.4687 35.9934 11.3369C35.9934 11.1602 36.0636 10.9907 36.1886 10.8657C36.3135 10.7407 36.483 10.6705 36.6598 10.6705ZM31.3286 5.33941C31.4604 5.33941 31.5893 5.37849 31.6989 5.45171C31.8085 5.52494 31.8939 5.62901 31.9443 5.75078C31.9947 5.87255 32.0079 6.00654 31.9822 6.1358C31.9565 6.26507 31.893 6.38381 31.7999 6.47701C31.7067 6.5702 31.5879 6.63367 31.4586 6.65938C31.3294 6.6851 31.1954 6.6719 31.0736 6.62146C30.9519 6.57102 30.8478 6.48561 30.7746 6.37602C30.7013 6.26644 30.6623 6.1376 30.6623 6.0058C30.6623 5.82906 30.7325 5.65956 30.8574 5.53459C30.9824 5.40962 31.1519 5.33941 31.3286 5.33941ZM8.67136 6.67219C8.53956 6.67219 8.41072 6.6331 8.30113 6.55988C8.19154 6.48666 8.10613 6.38258 8.05569 6.26081C8.00526 6.13905 7.99206 6.00506 8.01777 5.87579C8.04349 5.74652 8.10695 5.62778 8.20015 5.53459C8.29335 5.44139 8.41209 5.37792 8.54135 5.35221C8.67062 5.3265 8.80461 5.33969 8.92638 5.39013C9.04814 5.44057 9.15222 5.52598 9.22544 5.63557C9.29867 5.74516 9.33775 5.874 9.33775 6.0058C9.33775 6.18253 9.26754 6.35203 9.14257 6.47701C9.0176 6.60198 8.8481 6.67219 8.67136 6.67219ZM3.34023 12.0033C3.20843 12.0033 3.07959 11.9642 2.97001 11.891C2.86042 11.8178 2.77501 11.7137 2.72457 11.5919C2.67413 11.4702 2.66094 11.3362 2.68665 11.2069C2.71236 11.0776 2.77583 10.9589 2.86903 10.8657C2.96222 10.7725 3.08096 10.709 3.21023 10.6833C3.3395 10.6576 3.47348 10.6708 3.59525 10.7213C3.71702 10.7717 3.82109 10.8571 3.89432 10.9667C3.96754 11.0763 4.00663 11.2051 4.00663 11.3369C4.00663 11.5137 3.93642 11.6832 3.81144 11.8081C3.68647 11.9331 3.51697 12.0033 3.34023 12.0033ZM2.00745 20.6664C1.87565 20.6664 1.74681 20.6273 1.63723 20.5541C1.52764 20.4809 1.44223 20.3768 1.39179 20.255C1.34135 20.1332 1.32815 19.9993 1.35387 19.87C1.37958 19.7407 1.44305 19.622 1.53624 19.5288C1.62944 19.4356 1.74818 19.3721 1.87745 19.3464C2.00671 19.3207 2.1407 19.3339 2.26247 19.3843C2.38424 19.4348 2.48831 19.5202 2.56154 19.6298C2.63476 19.7394 2.67384 19.8682 2.67384 20C2.67384 20.1767 2.60363 20.3462 2.47866 20.4712C2.35369 20.5962 2.18419 20.6664 2.00745 20.6664ZM3.34023 29.3295C3.20843 29.3295 3.07959 29.2904 2.97001 29.2172C2.86042 29.1439 2.77501 29.0399 2.72457 28.9181C2.67413 28.7963 2.66094 28.6623 2.68665 28.5331C2.71236 28.4038 2.77583 28.2851 2.86903 28.1919C2.96222 28.0987 3.08096 28.0352 3.21023 28.0095C3.3395 27.9838 3.47348 27.997 3.59525 28.0474C3.71702 28.0979 3.82109 28.1833 3.89432 28.2929C3.96754 28.4024 4.00663 28.5313 4.00663 28.6631C4.00663 28.8398 3.93642 29.0093 3.81144 29.1343C3.68647 29.2593 3.51697 29.3295 3.34023 29.3295ZM8.67136 34.6606C8.53956 34.6606 8.41072 34.6215 8.30113 34.5483C8.19154 34.4751 8.10613 34.371 8.05569 34.2492C8.00526 34.1275 7.99206 33.9935 8.01777 33.8642C8.04349 33.7349 8.10695 33.6162 8.20015 33.523C8.29335 33.4298 8.41209 33.3663 8.54135 33.3406C8.67062 33.3149 8.80461 33.3281 8.92638 33.3785C9.04814 33.429 9.15222 33.5144 9.22544 33.624C9.29867 33.7336 9.33775 33.8624 9.33775 33.9942C9.33775 34.1709 9.26754 34.3404 9.14257 34.4654C9.0176 34.5904 8.8481 34.6606 8.67136 34.6606ZM31.3286 33.3278C31.4604 33.3278 31.5893 33.3669 31.6989 33.4401C31.8085 33.5133 31.8939 33.6174 31.9443 33.7392C31.9947 33.861 32.0079 33.9949 31.9822 34.1242C31.9565 34.2535 31.893 34.3722 31.7999 34.4654C31.7067 34.5586 31.5879 34.6221 31.4586 34.6478C31.3294 34.6735 31.1954 34.6603 31.0736 34.6099C30.9519 34.5594 30.8478 34.474 30.7746 34.3644C30.7013 34.2548 30.6623 34.126 30.6623 33.9942C30.6623 33.8175 30.7325 33.648 30.8574 33.523C30.9824 33.398 31.1519 33.3278 31.3286 33.3278ZM36.6598 27.9967C36.7916 27.9967 36.9204 28.0358 37.03 28.109C37.1396 28.1822 37.225 28.2863 37.2754 28.4081C37.3259 28.5298 37.3391 28.6638 37.3134 28.7931C37.2876 28.9224 37.2242 29.0411 37.131 29.1343C37.0378 29.2275 36.919 29.291 36.7898 29.3167C36.6605 29.3424 36.5265 29.3292 36.4047 29.2787C36.283 29.2283 36.1789 29.1429 36.1057 29.0333C36.0325 28.9237 35.9934 28.7949 35.9934 28.6631C35.9934 28.4863 36.0636 28.3168 36.1886 28.1919C36.3135 28.0669 36.483 27.9967 36.6598 27.9967ZM20 1.34106C20.1318 1.34106 20.2606 1.38015 20.3702 1.45337C20.4798 1.52659 20.5652 1.63067 20.6157 1.75244C20.6661 1.8742 20.6793 2.00819 20.6536 2.13746C20.6279 2.26673 20.5644 2.38547 20.4712 2.47866C20.378 2.57186 20.2593 2.63533 20.13 2.66104C20.0007 2.68675 19.8667 2.67356 19.745 2.62312C19.6232 2.57268 19.5191 2.48727 19.4459 2.37768C19.3727 2.26809 19.3336 2.13925 19.3336 2.00745C19.3336 1.83072 19.4038 1.66122 19.5288 1.53624C19.6538 1.41127 19.8233 1.34106 20 1.34106ZM20 38.6589C19.8682 38.6589 19.7394 38.6199 19.6298 38.5466C19.5202 38.4734 19.4348 38.3693 19.3843 38.2476C19.3339 38.1258 19.3207 37.9918 19.3464 37.8625C19.3721 37.7333 19.4356 37.6145 19.5288 37.5213C19.622 37.4281 19.7407 37.3647 19.87 37.339C19.9993 37.3132 20.1332 37.3264 20.255 37.3769C20.3768 37.4273 20.4809 37.5127 20.5541 37.6223C20.6273 37.7319 20.6664 37.8607 20.6664 37.9925C20.6664 38.1693 20.5962 38.3388 20.4712 38.4638C20.3462 38.5887 20.1767 38.6589 20 38.6589ZM30.6623 26.2641L20 31.9077L9.33775 26.2641V13.7359L20 8.09093L30.6623 13.7359V26.2641Z" fill="black"/>
<path d="M19.6999 9.4072L10.3705 14.0719C10.2597 14.1273 10.1665 14.2124 10.1014 14.3178C10.0364 14.4231 10.0019 14.5445 10.002 14.6683V25.3306C10.0013 25.455 10.0354 25.5771 10.1006 25.6831C10.1657 25.7891 10.2592 25.8747 10.3705 25.9304L19.6999 30.5951C19.7924 30.6413 19.8944 30.6654 19.9978 30.6654C20.1012 30.6654 20.2032 30.6413 20.2957 30.5951L29.6252 25.9304C29.7365 25.8747 29.83 25.7891 29.8951 25.6831C29.9602 25.5771 29.9944 25.455 29.9937 25.3306V14.6683C29.9937 14.5445 29.9593 14.4231 29.8942 14.3178C29.8291 14.2124 29.7359 14.1273 29.6252 14.0719L20.2957 9.4072C20.2032 9.36098 20.1012 9.33691 19.9978 9.33691C19.8944 9.33691 19.7924 9.36098 19.6999 9.4072ZM28.6609 15.0802V24.9188L19.9978 29.2503L11.3347 24.9188V15.0802L19.9978 10.7486L28.6609 15.0802Z" fill="black"/>
<path d="M15.3355 19.8423L13.9361 17.0362C13.8701 16.8998 13.7596 16.79 13.6228 16.7249C13.486 16.6598 13.3312 16.6432 13.1837 16.6779C13.0362 16.7126 12.905 16.7965 12.8116 16.9157C12.7182 17.035 12.6683 17.1826 12.67 17.334V23.3316H14.0027V20.1569L15.4055 22.963C15.4725 23.0975 15.583 23.2054 15.719 23.2692C15.8551 23.3329 16.0087 23.3489 16.1549 23.3144C16.3011 23.2799 16.4314 23.197 16.5246 23.0791C16.6178 22.9613 16.6684 22.8154 16.6683 22.6652V16.6676H15.3355V19.8423Z" fill="black"/>
<path d="M18 17.3344V23.3319H19.3328V20.6663H21.332V19.3335H19.3328V18.0007H21.9983V16.668H18.6664C18.4897 16.668 18.3202 16.7382 18.1952 16.8631C18.0702 16.9881 18 17.1576 18 17.3344Z" fill="black"/>
</svg>
