<svg width="83" height="82" viewBox="0 0 83 82" fill="none" xmlns="http://www.w3.org/2000/svg">
<g clip-path="url(#clip0_3411_3845)">
<path d="M63.3242 0H19.7644C9.15087 0 0.546875 8.60399 0.546875 19.2176V62.7773C0.546875 73.3909 9.15087 81.9949 19.7644 81.9949H63.3242C73.9378 81.9949 82.5418 73.3909 82.5418 62.7773V19.2176C82.5418 8.60399 73.9378 0 63.3242 0Z" fill="#242938"/>
<path d="M38.9396 9.96684C40.5152 9.06522 42.5669 9.06106 44.1409 9.96684C52.0591 14.4413 59.98 18.9084 67.897 23.3855C69.3863 24.2243 70.3821 25.8815 70.3671 27.5973V54.5163C70.3783 56.3032 69.2838 58.0001 67.7128 58.8198C59.8205 63.2696 51.932 67.7245 44.0409 72.1744C42.4334 73.0936 40.3403 73.0228 38.7824 72.028C36.4164 70.6565 34.0462 69.2914 31.6799 67.9212C31.1962 67.6329 30.6511 67.4036 30.3097 66.9347C30.6117 66.5279 31.1514 66.4773 31.5899 66.2996C32.5773 65.9854 33.4847 65.4812 34.3918 64.9921C34.6214 64.8352 34.9014 64.8954 35.1214 65.0357C37.1447 66.1958 39.1504 67.3898 41.1804 68.5387C41.6134 68.7889 42.0519 68.4567 42.4222 68.2505C50.1668 63.873 57.9211 59.5126 65.6648 55.1339C65.9518 54.9958 66.1104 54.6912 66.087 54.377C66.0924 45.4969 66.0883 36.6155 66.0899 27.7351C66.1225 27.3789 65.9163 27.0509 65.5937 26.9049C57.7289 22.4755 49.8677 18.0398 42.0042 13.6095C41.8679 13.5159 41.7066 13.4657 41.5413 13.4654C41.376 13.4651 41.2145 13.5148 41.0779 13.6079C33.2141 18.0398 25.3547 22.48 17.4909 26.9087C17.1697 27.0551 16.9541 27.3776 16.9922 27.7351C16.9938 36.6155 16.9922 45.4969 16.9922 54.3783C16.9785 54.5317 17.0122 54.6856 17.0887 54.8193C17.1652 54.953 17.2809 55.06 17.4201 55.1258C19.5184 56.3157 21.6195 57.4973 23.7193 58.6833C24.9025 59.3198 26.3547 59.6983 27.6583 59.2105C28.8081 58.798 29.6143 57.6241 29.5925 56.4032C29.6034 47.5749 29.5871 38.7454 29.6005 29.9182C29.5717 29.5265 29.9436 29.2027 30.3247 29.2398C31.333 29.2328 32.3426 29.226 33.3508 29.2424C33.7717 29.2328 34.0613 29.6549 34.0094 30.0495C34.0052 38.9338 34.0203 47.818 34.0026 56.702C34.0052 59.0699 33.0325 61.6464 30.8423 62.8049C28.1445 64.2023 24.8096 63.906 22.1441 62.5659C19.8367 61.4141 17.6344 60.0548 15.368 58.8211C13.7928 58.0059 12.7038 56.3023 12.715 54.5166V27.5973C12.6984 25.846 13.7342 24.1587 15.2694 23.332C23.1604 18.879 31.0502 14.4221 38.9396 9.96684Z" fill="#81CD39"/>
<path d="M45.8303 28.6132C49.2719 28.3916 52.9562 28.4819 56.0531 30.1775C58.4511 31.4766 59.7803 34.2036 59.8226 36.8675C59.7557 37.2265 59.38 37.4248 59.0369 37.4001C58.0386 37.3988 57.0396 37.4139 56.0412 37.3934C55.6175 37.4097 55.3715 37.0193 55.3183 36.6448C55.0314 35.3701 54.336 34.1078 53.1365 33.4929C51.2948 32.571 49.1598 32.6175 47.1515 32.6367C45.6855 32.7142 44.1091 32.8414 42.867 33.7033C41.9135 34.3564 41.6239 35.6747 41.9641 36.7365C42.285 37.4987 43.1648 37.7447 43.8852 37.9715C48.0326 39.0563 52.4277 38.9481 56.4961 40.3756C58.1805 40.9576 59.8281 42.0892 60.4046 43.8527C61.1589 46.2165 60.8283 49.0415 59.1465 50.9389C57.7827 52.5003 55.7965 53.3503 53.8155 53.8119C51.1802 54.3996 48.4452 54.4147 45.7688 54.1536C43.2523 53.8667 40.6332 53.2056 38.6907 51.491C37.0293 50.0484 36.218 47.8006 36.2984 45.6316C36.3176 45.2652 36.6824 45.0096 37.0335 45.0397C38.0389 45.0317 39.0446 45.0288 40.05 45.0413C40.452 45.0125 40.7495 45.3597 40.7703 45.7383C40.9555 46.9525 41.4119 48.2273 42.4711 48.947C44.5146 50.2656 47.0791 50.1753 49.4192 50.2121C51.3579 50.1263 53.5343 50.1003 55.1162 48.8188C55.9509 48.0879 56.1982 46.8651 55.9727 45.8132C55.7283 44.925 54.7991 44.5112 54.0013 44.2406C49.907 42.9456 45.4626 43.4155 41.408 41.9508C39.7617 41.3692 38.1699 40.2693 37.5376 38.5781C36.6552 36.1846 37.0594 33.2238 38.9174 31.3908C40.729 29.5667 43.3439 28.8643 45.8303 28.6132Z" fill="#81CD39"/>
</g>
<defs>
<clipPath id="clip0_3411_3845">
<rect width="81.9949" height="81.9949" fill="white" transform="translate(0.542969)"/>
</clipPath>
</defs>
</svg>
