<svg width="83" height="82" viewBox="0 0 83 82" fill="none" xmlns="http://www.w3.org/2000/svg">
<g clip-path="url(#clip0_3411_3834)">
<path d="M63.3359 0H19.7761C9.16258 0 0.558594 8.60399 0.558594 19.2176V62.7773C0.558594 73.3909 9.16258 81.9949 19.7761 81.9949H63.3359C73.9495 81.9949 82.5535 73.3909 82.5535 62.7773V19.2176C82.5535 8.60399 73.9495 0 63.3359 0Z" fill="#242938"/>
<path d="M41.5574 47.067C44.8577 47.067 47.5328 44.3916 47.5328 41.0916C47.5328 37.7916 44.8577 35.1162 41.5574 35.1162C38.2571 35.1162 35.582 37.7916 35.582 41.0916C35.582 44.3916 38.2574 47.067 41.5574 47.067Z" fill="#00D8FF"/>
<path d="M41.5533 28.9434C49.576 28.9434 57.0289 30.0945 62.6484 32.0294C69.4191 34.3601 73.5819 37.8933 73.5819 41.0927C73.5819 44.4266 69.1702 48.1801 61.8993 50.589C56.4024 52.4102 49.1689 53.3609 41.5533 53.3609C33.7452 53.3609 26.3513 52.4685 20.7923 50.5689C13.7593 48.1651 9.52344 44.3632 9.52344 41.0927C9.52344 37.9192 13.4983 34.4133 20.1738 32.0861C25.8142 30.1195 33.4509 28.9434 41.552 28.9434H41.5533Z" stroke="#00D8FF" stroke-width="0.913321"/>
<path d="M30.9767 35.052C34.9848 28.1023 39.705 22.2211 44.1884 18.3199C49.5898 13.619 54.7305 11.7779 57.5017 13.3759C60.3898 15.0414 61.4375 20.7388 59.8921 28.2406C58.7246 33.9121 55.9336 40.6529 52.1288 47.2503C48.228 54.0143 43.7615 59.9736 39.3392 63.8389C33.7434 68.7304 28.3333 70.5007 25.5003 68.8669C22.7513 67.2827 21.7001 62.0872 23.019 55.1417C24.1333 49.273 26.9298 42.0699 30.9754 35.052H30.9767Z" stroke="#00D8FF" stroke-width="0.913321"/>
<path d="M30.9895 47.2685C26.9701 40.3265 24.2336 33.2986 23.0914 27.4661C21.7164 20.4386 22.6885 15.0657 25.4574 13.4629C28.3429 11.7923 33.8017 13.73 39.5291 18.8156C43.8595 22.6604 48.3061 28.444 52.1218 35.0349C56.0338 41.7925 58.9658 48.6387 60.1063 54.4001C61.5496 61.6913 60.3815 67.2621 57.551 68.9004C54.8048 70.4903 49.7791 68.8072 44.4203 64.1956C39.8927 60.2996 35.0486 54.2797 30.9895 47.2685Z" stroke="#00D8FF" stroke-width="0.913321"/>
</g>
<defs>
<clipPath id="clip0_3411_3834">
<rect width="81.9949" height="81.9949" fill="white" transform="translate(0.554688)"/>
</clipPath>
</defs>
</svg>
