<svg width="83" height="82" viewBox="0 0 83 82" fill="none" xmlns="http://www.w3.org/2000/svg">
<g clip-path="url(#clip0_3411_3850)">
<path d="M63.2969 0H19.7371C9.12352 0 0.519531 8.60399 0.519531 19.2176V62.7773C0.519531 73.3909 9.12352 81.9949 19.7371 81.9949H63.2969C73.9104 81.9949 82.5144 73.3909 82.5144 62.7773V19.2176C82.5144 8.60399 73.9104 0 63.2969 0Z" fill="#023430"/>
<path d="M55.3466 34.4602C51.9717 19.5727 44.938 15.6094 43.1438 12.8078C42.4034 11.5738 41.748 10.2908 41.182 8.96777C41.0872 10.2906 40.9129 11.1233 39.7887 12.1265C37.5316 14.1389 27.9452 21.9508 27.1384 38.8664C26.3867 54.6383 38.733 64.3633 40.3639 65.3687C41.6182 65.9859 43.1457 65.3819 43.891 64.8153C49.8423 60.7309 57.9739 49.8416 55.353 34.4602" fill="#10AA50"/>
<path d="M41.6936 56.9697C41.3829 60.8735 41.1603 63.1418 40.3711 65.3726C40.3711 65.3726 40.889 69.089 41.2529 73.0257H42.5401C42.8476 70.2535 43.3164 67.5015 43.9443 64.7839C42.2778 63.964 41.7576 60.3953 41.6936 56.9697Z" fill="#B8C4C2"/>
<path d="M43.9399 64.7867C42.2558 64.0087 41.7686 60.3647 41.6936 56.9703C42.1099 51.3706 42.2313 45.7529 42.0575 40.1405C41.9691 37.1957 42.0991 12.865 41.332 9.30273C41.8565 10.5094 42.4612 11.6796 43.142 12.8055C44.9363 15.6093 51.9722 19.5726 55.3448 34.4601C57.9722 49.8153 49.8848 60.6757 43.9399 64.7867Z" fill="#12924F"/>
</g>
<defs>
<clipPath id="clip0_3411_3850">
<rect width="81.9949" height="81.9949" fill="white" transform="translate(0.527344)"/>
</clipPath>
</defs>
</svg>
