<svg width="76" height="76" viewBox="0 0 76 76" fill="none" xmlns="http://www.w3.org/2000/svg">
<path d="M0.187012 32.1689C0.187012 17.084 0.187012 9.54153 4.8733 4.85524C9.5596 0.168945 17.1021 0.168945 32.187 0.168945H43.2399C58.3249 0.168945 65.8673 0.168945 70.5536 4.85524C75.2399 9.54153 75.2399 17.084 75.2399 32.1689V43.2218C75.2399 58.3068 75.2399 65.8493 70.5536 70.5356C65.8673 75.2218 58.3249 75.2218 43.2399 75.2218H32.187C17.1021 75.2218 9.5596 75.2218 4.8733 70.5356C0.187012 65.8493 0.187012 58.3068 0.187012 43.2219V32.1689Z" fill="#1E2235"/>
<path d="M25.9238 16.666H48.9942C50.1168 16.666 51.2069 16.8451 52.2644 17.2194C53.7938 17.7728 55.1767 18.7493 56.218 20.0189C57.2755 21.2884 57.9751 22.8509 58.2191 24.4785C58.3168 25.0807 58.333 25.6829 58.333 26.2852V48.7949C58.333 49.5111 58.3005 50.2435 58.1541 50.9434C57.8287 52.5547 57.064 54.0684 55.9577 55.2891C54.8676 56.5098 53.4359 57.4212 51.8902 57.9095C50.9466 58.2025 49.9704 58.3327 48.978 58.3327C48.5387 58.3327 25.8587 58.3327 25.5171 58.3164C23.8576 58.235 22.2143 57.6979 20.8314 56.7702C19.481 55.8587 18.3747 54.5892 17.6588 53.1243C17.0406 51.8711 16.7314 50.4714 16.7314 49.0716V25.9271C16.6989 24.5436 16.9918 23.1764 17.5937 21.9395C18.2933 20.4746 19.3834 19.1888 20.7338 18.2773C22.1167 17.3333 23.7437 16.7799 25.4032 16.6986C25.5659 16.666 25.7449 16.666 25.9238 16.666Z" fill="url(#paint0_linear_2062_2168)"/>
<path d="M51.8095 50.748C51.663 50.5202 51.5004 50.2923 51.3214 50.0807C50.9146 49.5924 50.4428 49.1693 49.9222 48.8112C49.2714 48.3717 48.5067 48.095 47.7258 48.0625C47.1726 48.0299 46.6194 48.1276 46.0988 48.3229C45.5782 48.502 45.0738 48.7624 44.5857 49.0228C44.0163 49.3158 43.4469 49.6087 42.8449 49.8529C42.129 50.1458 41.3806 50.3737 40.6159 50.5365C39.656 50.7155 38.6799 50.7806 37.7199 50.7643C35.9791 50.7318 34.2382 50.4714 32.5787 49.9831C31.1145 49.5436 29.7153 48.9414 28.3974 48.1764C27.2423 47.5091 26.1685 46.7441 25.1598 45.8815C24.33 45.1654 23.5653 44.4004 22.8495 43.5866C22.3614 43.0169 21.8896 42.4147 21.4503 41.7962C21.2713 41.5521 21.1086 41.2917 20.9622 41.0312L16.667 36.3926V25.8945C16.667 20.8001 20.7832 16.666 25.8756 16.666H34.0918L40.1767 22.8509C53.9083 32.1934 49.4666 42.4961 49.4666 42.4961C49.4666 42.4961 53.3714 46.8906 51.8095 50.748Z" fill="url(#paint1_linear_2062_2168)"/>
<path d="M40.2094 22.8506C53.941 32.193 49.4994 42.4958 49.4994 42.4958C49.4994 42.4958 53.4041 46.9066 51.8259 50.764C51.8259 50.764 50.2152 48.0622 47.5145 48.0622C44.9113 48.0622 43.382 50.764 38.1431 50.764C26.4778 50.764 20.9624 41.0146 20.9624 41.0146C31.4726 47.932 38.6475 43.0329 38.6475 43.0329C33.913 40.2822 23.8421 27.1312 23.8421 27.1312C32.6115 34.6019 36.4023 36.5713 36.4023 36.5713C34.1408 34.6995 27.7957 25.5524 27.7957 25.5524C32.8718 30.6956 42.959 37.8734 42.959 37.8734C45.8224 29.9307 40.2094 22.8506 40.2094 22.8506Z" fill="white"/>
<defs>
<linearGradient id="paint0_linear_2062_2168" x1="41.4436" y1="15.1792" x2="33.5685" y2="59.8235" gradientUnits="userSpaceOnUse">
<stop stop-color="#FAAE42"/>
<stop offset="1" stop-color="#EF3E31"/>
</linearGradient>
<linearGradient id="paint1_linear_2062_2168" x1="37.9171" y1="17.3392" x2="32.1535" y2="50.0137" gradientUnits="userSpaceOnUse">
<stop stop-color="#E39F3A"/>
<stop offset="1" stop-color="#D33929"/>
</linearGradient>
</defs>
</svg>
