<svg width="75" height="75" viewBox="0 0 75 75" fill="none" xmlns="http://www.w3.org/2000/svg">
<rect width="75" height="75" rx="16" fill="#1E2235"/>
<g clip-path="url(#clip0_395_7934)">
<path d="M16.668 16.666H58.3346V58.3327H16.668V16.666Z" fill="#8B5CF6"/>
<path d="M40.2928 49.4983V36.375C40.2928 36.375 41.1461 33.235 29.7778 37.66C29.7578 37.7167 29.7578 25.5233 29.7578 25.5233L33.4728 25.5V33.3117C33.4728 33.3117 43.8728 29.215 43.8728 36.4183V49.4983H40.2928ZM42.4095 30.2283H38.4695C39.8878 28.495 41.1711 25.5233 41.1711 25.5233H45.2445C45.2461 25.5233 44.5478 27.46 42.4095 30.2283ZM29.8245 49.4767V42.0033L33.5611 45.74L29.8245 49.4767Z" fill="#1E2235"/>
</g>
<defs>
<clipPath id="clip0_395_7934">
<rect width="41.6667" height="41.6667" fill="white" transform="translate(16.668 16.666)"/>
</clipPath>
</defs>
</svg>
