<svg width="75" height="75" viewBox="0 0 75 75" fill="none" xmlns="http://www.w3.org/2000/svg">
<rect width="75" height="75" rx="16" fill="#1E2235"/>
<path d="M44.4502 57.1606C47.5285 46.1225 46.4209 40.5583 41.0242 39.4893C41.8485 43.2374 42.7758 47.0885 38.8346 49.6902C36.7738 51.0555 35.138 50.5274 31.4801 47.7196C29.7928 51.1843 30.3596 54.6361 31.1452 58.3327C25.9031 57.4182 21.7686 55.2415 19.8495 50.1797C17.866 45.5686 18.9608 40.2235 22.5672 36.7459C23.8294 35.4579 25.1947 34.2858 26.6501 33.2296C32.5491 28.7989 33.6955 24.497 30.5785 17.8381C30.4368 17.4517 30.3209 17.0653 30.2436 16.666C36.7995 17.6578 43.0077 20.2982 48.2885 24.3167C59.7903 33.7191 58.3992 50.6305 45.6996 56.8386C45.2617 56.8644 44.8495 56.9674 44.4502 57.1606V57.1606Z" fill="#EE4854"/>
</svg>
