<svg width="75" height="75" viewBox="0 0 75 75" fill="none" xmlns="http://www.w3.org/2000/svg">
<rect width="75" height="75" rx="16" fill="#1E2235"/>
<path d="M35.7931 17.1105C36.8263 16.5192 38.1719 16.5165 39.2042 17.1105C44.3973 20.0449 49.5921 22.9748 54.7844 25.9109C55.761 26.4611 56.4143 27.5479 56.4043 28.6732V46.3277C56.4116 47.4996 55.6938 48.6125 54.6635 49.1501C49.4874 52.0683 44.3139 54.9901 39.1387 57.9084C38.0842 58.5113 36.7116 58.4649 35.69 57.8125C34.1382 56.9129 32.5837 56.0178 31.0318 55.1191C30.7147 54.93 30.3572 54.7796 30.1333 54.4721C30.3312 54.2053 30.6851 54.172 30.9727 54.0555C31.6205 53.8496 32.2154 53.5189 32.8105 53.1981C32.961 53.0951 33.1447 53.1346 33.2889 53.2267C34.6159 53.9876 35.9311 54.7705 37.2626 55.5241C37.5466 55.688 37.8342 55.4703 38.077 55.335C43.1563 52.4643 48.2419 49.6044 53.3203 46.7327C53.5085 46.6422 53.6125 46.4424 53.5972 46.2363C53.6008 40.4125 53.5981 34.5876 53.599 28.7637C53.6205 28.5299 53.4852 28.3148 53.2737 28.2191C48.1156 25.3142 42.9601 22.4049 37.8029 19.4993C37.7135 19.4379 37.6077 19.4049 37.4992 19.4047C37.3908 19.4046 37.2849 19.4372 37.1953 19.4984C32.0381 22.4049 26.8835 25.3169 21.7262 28.2216C21.5155 28.3175 21.3741 28.529 21.3992 28.7637C21.4001 34.5876 21.3992 40.4125 21.3992 46.2372C21.3902 46.3378 21.4123 46.4387 21.4625 46.5263C21.5126 46.614 21.5884 46.6841 21.6797 46.7274C23.0559 47.5078 24.4339 48.2827 25.811 49.0605C26.5869 49.4781 27.5394 49.7262 28.3942 49.4062C29.1485 49.1357 29.6772 48.366 29.6628 47.5651C29.67 41.7752 29.6593 35.9844 29.6682 30.1955C29.6493 29.9384 29.8931 29.7261 30.143 29.7503C30.8043 29.7458 31.4665 29.7414 32.1277 29.7521C32.4037 29.7458 32.5937 30.0226 32.5595 30.2815C32.5569 36.1081 32.5667 41.9347 32.5551 47.7613C32.5569 49.3141 31.9189 51.0037 30.4826 51.7635C28.7131 52.6802 26.526 52.4858 24.7779 51.6068C23.2645 50.8515 21.8203 49.9601 20.3338 49.1508C19.3008 48.6162 18.5866 47.4989 18.5939 46.3279V28.6732C18.583 27.5246 19.2623 26.418 20.2693 25.8759C25.4445 22.9553 30.6188 20.0325 35.7931 17.1105Z" fill="#8CC84B"/>
<path d="M40.3095 29.3407C42.5666 29.1955 44.983 29.2547 47.0141 30.3666C48.5867 31.2187 49.4585 33.0071 49.4862 34.7541C49.4423 34.9898 49.196 35.1198 48.971 35.1036C48.3161 35.1027 47.6611 35.1125 47.0062 35.0992C46.7284 35.1098 46.567 34.8537 46.5321 34.6081C46.3439 33.7722 45.8881 32.9443 45.1013 32.5411C43.8934 31.9364 42.493 31.9668 41.176 31.9794C40.2145 32.0305 39.1806 32.1137 38.3661 32.6791C37.7407 33.1074 37.5508 33.9719 37.774 34.6682C37.9844 35.1682 38.5615 35.3295 39.0337 35.4782C41.7539 36.1896 44.6363 36.1188 47.3045 37.055C48.4092 37.4367 49.4898 38.1787 49.8679 39.3353C50.3625 40.8855 50.1457 42.7384 49.0428 43.9828C48.1484 45.0069 46.8458 45.5643 45.5466 45.867C43.8182 46.2524 42.0245 46.2622 40.2693 46.0911C38.6188 45.9029 36.9013 45.4693 35.6271 44.3448C34.5376 43.3987 34.0054 41.9247 34.0583 40.502C34.0709 40.2618 34.3101 40.0942 34.5403 40.1139C35.1997 40.1086 35.8592 40.1068 36.5187 40.1148C36.7821 40.096 36.9774 40.3236 36.9909 40.5719C37.1126 41.3684 37.4119 42.2043 38.1064 42.6765C39.4467 43.5412 41.1285 43.482 42.6632 43.5062C43.9347 43.4498 45.362 43.4327 46.3996 42.5923C46.947 42.113 47.1092 41.3111 46.9613 40.6212C46.801 40.0387 46.1917 39.7673 45.6684 39.5898C42.9832 38.7404 40.0685 39.0486 37.4092 38.088C36.3296 37.7065 35.2857 36.9851 34.8709 35.876C34.2921 34.3063 34.5573 32.3646 35.7758 31.1622C36.9639 29.9661 38.6789 29.5055 40.3095 29.3406V29.3407Z" fill="#8CC84B"/>
</svg>
