<svg width="75" height="75" viewBox="0 0 75 75" fill="none" xmlns="http://www.w3.org/2000/svg">
<rect width="75" height="75" rx="16" fill="#1E2235"/>
<path d="M16.668 16.666H58.3346V58.3327H16.668V16.666Z" fill="#017ACB"/>
<path d="M36.6758 32.0957H38.6745V35.5462H33.2709V50.8978L33.1276 50.9368C32.9323 50.9889 30.3607 50.9889 29.8073 50.9303L29.3646 50.8913V35.5462H23.9609V32.0957L25.6732 32.0762C26.6107 32.0632 29.0195 32.0632 31.0248 32.0762C33.03 32.0892 35.569 32.0957 36.6758 32.0957V32.0957ZM51.9297 49.2702C51.1355 50.11 50.2826 50.5788 48.8633 50.9629C48.2448 51.1322 48.1407 51.1387 46.7474 51.1322C45.3542 51.1257 45.2435 51.1256 44.5664 50.9499C42.8151 50.5006 41.4024 49.6217 40.4388 48.3783C40.1654 48.0267 39.7162 47.2975 39.7162 47.2064C39.7162 47.1803 39.7813 47.1217 39.8659 47.0827C39.9505 47.0436 40.1263 46.9329 40.2696 46.8483C40.4128 46.7637 40.6732 46.6074 40.849 46.5163C41.0248 46.4251 41.5326 46.1256 41.9753 45.8587C42.418 45.5918 42.8216 45.377 42.8672 45.377C42.9128 45.377 42.9974 45.4681 43.0625 45.5788C43.4532 46.2363 44.3646 47.0762 45.0092 47.3626C45.4063 47.5319 46.2852 47.7207 46.7084 47.7207C47.099 47.7207 47.8151 47.5514 48.1993 47.3757C48.6094 47.1868 48.8178 46.998 49.0651 46.6204C49.2344 46.3535 49.254 46.2819 49.2474 45.7741C49.2474 45.3053 49.2214 45.1751 49.0912 44.9603C48.7266 44.3613 48.2318 44.0488 46.2266 43.1634C44.1563 42.2454 43.2253 41.6986 42.4701 40.9629C41.9102 40.416 41.7995 40.2663 41.4479 39.5827C40.9922 38.7038 40.9336 38.4173 40.9271 37.1087C40.9206 36.1908 40.9401 35.8913 41.0378 35.5788C41.1745 35.11 41.6172 34.2051 41.819 33.9772C42.2357 33.4889 42.3854 33.3392 42.6784 33.0983C43.5638 32.3691 44.944 31.8874 46.2657 31.8418C46.4154 31.8418 46.9102 31.8678 47.3724 31.9004C48.7006 32.0111 49.6055 32.3366 50.4779 33.0332C51.1355 33.554 52.1316 34.778 52.0339 34.9408C51.9688 35.0384 49.3711 36.7702 49.2019 36.8223C49.0977 36.8548 49.0261 36.8158 48.8829 36.6465C47.9974 35.5853 47.6394 35.3574 46.78 35.3053C46.168 35.2663 45.8425 35.3379 45.4323 35.6113C45.0026 35.8978 44.7943 36.334 44.7943 36.9395C44.8008 37.8249 45.1394 38.2415 46.3894 38.86C47.1967 39.2572 47.8868 39.5827 47.9388 39.5827C48.017 39.5827 49.6902 40.416 50.1264 40.6764C52.1576 41.8678 52.9844 43.0918 53.1993 45.2012C53.3555 46.7897 52.9063 48.2415 51.9297 49.2702V49.2702Z" fill="#1E2235"/>
</svg>
