<svg width="75" height="75" viewBox="0 0 75 75" fill="none" xmlns="http://www.w3.org/2000/svg">
<rect width="75" height="75" rx="16" fill="#1E2235"/>
<path d="M37.4996 41.1711C39.5284 41.1711 41.173 39.5264 41.173 37.4976C41.173 35.4689 39.5284 33.8242 37.4996 33.8242C35.4708 33.8242 33.8262 35.4689 33.8262 37.4976C33.8262 39.5264 35.4708 41.1711 37.4996 41.1711Z" fill="#61DAFB"/>
<path fill-rule="evenodd" clip-rule="evenodd" d="M20.2349 35.5628C19.4031 36.3138 19.1278 36.97 19.1278 37.4982C19.1278 38.0263 19.4031 38.6826 20.2349 39.4335C21.0666 40.1843 22.3454 40.9219 24.0395 41.5687C27.4185 42.8589 32.177 43.6849 37.4996 43.6849C42.8222 43.6849 47.5807 42.8589 50.9597 41.5687C52.6538 40.9219 53.9325 40.1843 54.7643 39.4335C55.5961 38.6826 55.8714 38.0263 55.8714 37.4982C55.8714 36.97 55.5961 36.3138 54.7643 35.5628C53.9325 34.812 52.6538 34.0745 50.9597 33.4276C47.5807 32.1375 42.8222 31.3114 37.4996 31.3114C32.177 31.3114 27.4185 32.1375 24.0395 33.4276C22.3454 34.0745 21.0666 34.812 20.2349 35.5628ZM23.084 30.9252C26.839 29.4915 31.9361 28.6328 37.4996 28.6328C43.0631 28.6328 48.1601 29.4915 51.9152 30.9252C53.7881 31.6404 55.396 32.5245 56.5591 33.5745C57.7221 34.6244 58.55 35.948 58.55 37.4982C58.55 39.0483 57.7221 40.3719 56.5591 41.4218C55.396 42.4718 53.7881 43.356 51.9152 44.0711C48.1601 45.5048 43.0631 46.3635 37.4996 46.3635C31.9361 46.3635 26.839 45.5048 23.084 44.0711C21.2111 43.356 19.6032 42.4718 18.4401 41.4218C17.2771 40.3719 16.4492 39.0483 16.4492 37.4982C16.4492 35.948 17.2771 34.6244 18.4401 33.5745C19.6032 32.5245 21.2111 31.6404 23.084 30.9252Z" fill="#61DAFB"/>
<path fill-rule="evenodd" clip-rule="evenodd" d="M30.5436 21.5795C29.4774 21.2345 28.7714 21.3242 28.314 21.5883C27.8566 21.8524 27.4259 22.4189 27.1915 23.5148C26.9572 24.6105 26.9578 26.0867 27.2447 27.8772C27.8169 31.4486 29.4807 35.9826 32.142 40.5922C34.8033 45.2017 37.898 48.9096 40.7048 51.1908C42.112 52.3346 43.3901 53.0732 44.4562 53.4181C45.5225 53.763 46.2284 53.6733 46.6858 53.4092C47.1432 53.1451 47.5739 52.5786 47.8083 51.4827C48.0427 50.387 48.042 48.9109 47.7552 47.1203C47.183 43.5489 45.5191 39.0149 42.8578 34.4054C40.1965 29.7958 37.1019 26.0879 34.2951 23.8067C32.8878 22.663 31.6097 21.9243 30.5436 21.5795ZM35.9844 21.7281C39.1036 24.2631 42.3958 28.248 45.1775 33.0661C47.9593 37.8842 49.7642 42.7278 50.4 46.6966C50.7172 48.6761 50.7554 50.5107 50.4276 52.043C50.0999 53.5751 49.3676 54.9539 48.0251 55.7289C46.6827 56.504 45.1224 56.4489 43.6317 55.9666C42.1408 55.4843 40.5712 54.5339 39.0154 53.2695C35.8962 50.7344 32.6041 46.7496 29.8223 41.9314C27.0406 37.1133 25.2357 32.2698 24.5998 28.301C24.2827 26.3214 24.2445 24.4869 24.5722 22.9545C24.8999 21.4224 25.6323 20.0437 26.9747 19.2686C28.3172 18.4935 29.8774 18.5487 31.3681 19.0309C32.859 19.5132 34.4287 20.4636 35.9844 21.7281Z" fill="#61DAFB"/>
<path fill-rule="evenodd" clip-rule="evenodd" d="M47.8077 23.5166C47.5733 22.4208 47.1426 21.8542 46.6853 21.5902C46.2279 21.3261 45.5219 21.2364 44.4556 21.5813C43.3895 21.9262 42.1115 22.6648 40.7042 23.8085C37.8974 26.0898 34.8028 29.7977 32.1415 34.4072C29.4801 39.0168 27.8163 43.5508 27.2441 47.1222C26.9572 48.9127 26.9566 50.3889 27.191 51.4846C27.4254 52.5805 27.8561 53.147 28.3134 53.4111C28.7708 53.6751 29.4768 53.7649 30.5431 53.4199C31.6092 53.075 32.8873 52.3364 34.2945 51.1927C37.1013 48.9115 40.1959 45.2035 42.8572 40.594C45.5186 35.9845 47.1824 31.4505 47.7546 27.8791C48.0415 26.0885 48.0421 24.6123 47.8077 23.5166ZM50.3994 28.3028C49.7636 32.2716 47.9587 37.1151 45.177 41.9333C42.3952 46.7514 39.103 50.7362 35.9839 53.2713C34.4281 54.5357 32.8584 55.4861 31.3675 55.9685C29.8768 56.4507 28.3166 56.5058 26.9742 55.7308C25.6317 54.9557 24.8993 53.577 24.5716 52.0448C24.2439 50.5125 24.2821 48.6779 24.5993 46.6984C25.2351 42.7296 27.04 37.8861 29.8217 33.0679C32.6035 28.2498 35.8957 24.265 39.0148 21.7299C40.5706 20.4655 42.1403 19.5151 43.6312 19.0328C45.1219 18.5505 46.6821 18.4954 48.0245 19.2705C49.367 20.0455 50.0994 21.4243 50.4271 22.9564C50.7548 24.4887 50.7166 26.3233 50.3994 28.3028Z" fill="#61DAFB"/>
</svg>
