<svg width="76" height="75" viewBox="0 0 76 75" fill="none" xmlns="http://www.w3.org/2000/svg">
<path d="M0.957031 32.168C0.957031 17.083 0.957031 9.54055 5.64332 4.85426C10.3296 0.167969 17.8721 0.167969 32.957 0.167969H43.1289C58.2139 0.167969 65.7563 0.167969 70.4426 4.85426C75.1289 9.54055 75.1289 17.083 75.1289 32.168V42.3398C75.1289 57.4248 75.1289 64.9673 70.4426 69.6536C65.7563 74.3398 58.2139 74.3398 43.1289 74.3398H32.957C17.8721 74.3398 10.3296 74.3398 5.64332 69.6536C0.957031 64.9673 0.957031 57.4248 0.957031 42.3398V32.168Z" fill="#1E2235"/>
<path d="M38.3502 16.7734C27.7726 16.7734 28.433 21.3605 28.433 21.3605L28.4448 26.1129H38.5388V27.5396H24.4356C24.4356 27.5396 17.667 26.772 17.667 37.4447C17.667 48.1178 23.5748 47.7393 23.5748 47.7393H27.1006V42.7866C27.1006 42.7866 26.9105 36.8788 32.9141 36.8788H42.9255C42.9255 36.8788 48.5503 36.9696 48.5503 31.4426V22.304C48.5503 22.304 49.4046 16.7734 38.3502 16.7734ZM32.7844 19.9693C33.0229 19.9691 33.2591 20.0159 33.4795 20.1071C33.7 20.1983 33.9002 20.332 34.0689 20.5007C34.2376 20.6694 34.3713 20.8696 34.4625 21.09C34.5537 21.3104 34.6005 21.5467 34.6003 21.7852C34.6005 22.0237 34.5537 22.26 34.4625 22.4804C34.3713 22.7008 34.2376 22.9011 34.0689 23.0697C33.9002 23.2384 33.7 23.3721 33.4795 23.4633C33.2591 23.5545 33.0229 23.6013 32.7844 23.6011C32.5458 23.6013 32.3096 23.5545 32.0892 23.4633C31.8688 23.3721 31.6685 23.2384 31.4999 23.0697C31.3312 22.9011 31.1974 22.7008 31.1063 22.4804C31.0151 22.26 30.9682 22.0237 30.9685 21.7852C30.9682 21.5467 31.0151 21.3104 31.1063 21.09C31.1974 20.8696 31.3312 20.6694 31.4999 20.5007C31.6685 20.332 31.8688 20.1983 32.0892 20.1071C32.3096 20.0159 32.5458 19.9691 32.7844 19.9693V19.9693Z" fill="url(#paint0_linear_173_327)"/>
<path d="M38.6501 58.2215C49.2277 58.2215 48.5673 53.6344 48.5673 53.6344L48.5555 48.8822H38.4613V47.4554H52.5646C52.5646 47.4554 59.3332 48.223 59.3332 37.55C59.3332 26.877 53.4254 27.2556 53.4254 27.2556H49.8996V32.2081C49.8996 32.2081 50.0897 38.1159 44.0861 38.1159H34.0746C34.0746 38.1159 28.4499 38.0251 28.4499 43.5522V52.691C28.4499 52.691 27.5958 58.2215 38.6499 58.2215H38.6501ZM44.216 55.0259C43.9774 55.0261 43.7412 54.9793 43.5208 54.8881C43.3004 54.7969 43.1001 54.6632 42.9314 54.4945C42.7628 54.3259 42.629 54.1256 42.5378 53.9052C42.4467 53.6848 42.3998 53.4485 42.4 53.21C42.3998 52.9715 42.4466 52.7352 42.5378 52.5148C42.629 52.2943 42.7627 52.0941 42.9314 51.9254C43.1 51.7567 43.3003 51.6229 43.5207 51.5317C43.7412 51.4405 43.9774 51.3937 44.216 51.3939C44.4545 51.3937 44.6907 51.4405 44.9111 51.5317C45.1315 51.6229 45.3318 51.7567 45.5005 51.9253C45.6691 52.094 45.8029 52.2943 45.8941 52.5147C45.9853 52.7351 46.0321 52.9713 46.0319 53.2098C46.0321 53.4484 45.9853 53.6846 45.8941 53.905C45.8029 54.1254 45.6691 54.3257 45.5005 54.4944C45.3318 54.663 45.1315 54.7968 44.9111 54.888C44.6907 54.9791 44.4545 55.026 44.216 55.0257V55.0259Z" fill="url(#paint1_linear_173_327)"/>
<defs>
<linearGradient id="paint0_linear_173_327" x1="21.6711" y1="20.5016" x2="42.3199" y2="40.9443" gradientUnits="userSpaceOnUse">
<stop stop-color="#387EB8"/>
<stop offset="1" stop-color="#366994"/>
</linearGradient>
<linearGradient id="paint1_linear_173_327" x1="34.3449" y1="33.6267" x2="56.5192" y2="54.5888" gradientUnits="userSpaceOnUse">
<stop stop-color="#FFE052"/>
<stop offset="1" stop-color="#FFC331"/>
</linearGradient>
</defs>
</svg>
