<svg width="76" height="76" viewBox="0 0 76 76" fill="none" xmlns="http://www.w3.org/2000/svg">
<path d="M0 32C0 16.9151 0 9.37258 4.68629 4.68629C9.37258 0 16.9151 0 32 0H43.0529C58.1378 0 65.6803 0 70.3666 4.68629C75.0529 9.37258 75.0529 16.9151 75.0529 32V43.0529C75.0529 58.1378 75.0529 65.6803 70.3666 70.3666C65.6803 75.0529 58.1378 75.0529 43.0529 75.0529H32C16.9151 75.0529 9.37258 75.0529 4.68629 70.3666C0 65.6803 0 58.1378 0 43.0529V32Z" fill="#1E2235"/>
<path d="M22.4702 54.1802L19.1279 16.666H55.8724L52.5301 54.1599L37.4698 58.3327" fill="#E44D26"/>
<path d="M37.4995 55.1425V19.7451H52.5194L49.6531 51.7497" fill="#F16529"/>
<path d="M25.9541 24.333H37.5V28.9311H30.9979L31.4232 33.6407H37.5V38.2286H27.21L25.9541 24.333ZM27.4125 40.5378H32.0309L32.355 44.2143L37.5 45.5917V50.3924L28.0607 47.7591" fill="#EBEBEB"/>
<path d="M49.0052 24.333H37.4795V28.9311H48.5798L49.0052 24.333ZM48.1645 33.6407H37.4795V38.2388H43.1512L42.6144 44.2143L37.4795 45.5917V50.3721L46.8985 47.7591" fill="white"/>
</svg>
