<svg width="76" height="76" viewBox="0 0 76 76" fill="none" xmlns="http://www.w3.org/2000/svg">
<path d="M0.956055 32.876C0.956055 17.791 0.956055 10.2486 5.64235 5.56227C10.3286 0.875977 17.8711 0.875977 32.9561 0.875977H43.956C59.041 0.875977 66.5835 0.875977 71.2698 5.56227C75.956 10.2486 75.956 17.791 75.956 32.876V43.876C75.956 58.9609 75.956 66.5034 71.2698 71.1897C66.5835 75.876 59.041 75.876 43.956 75.876H32.9561C17.8711 75.876 10.3286 75.876 5.64235 71.1897C0.956055 66.5034 0.956055 58.9609 0.956055 43.876V32.876Z" fill="#1E2235"/>
<path d="M36.7936 18.1105C37.8268 17.5192 39.1724 17.5165 40.2047 18.1105C45.3978 21.0449 50.5926 23.9748 55.7849 26.9109C56.7615 27.4611 57.4148 28.5479 57.4048 29.6732V47.3277C57.4121 48.4996 56.6943 49.6125 55.664 50.1501C50.4879 53.0683 45.3144 55.9901 40.1392 58.9084C39.0847 59.5113 37.712 59.4649 36.6905 58.8125C35.1387 57.9129 33.5842 57.0178 32.0323 56.1191C31.7152 55.93 31.3577 55.7796 31.1337 55.4721C31.3317 55.2053 31.6856 55.172 31.9732 55.0555C32.621 54.8495 33.2159 54.5189 33.811 54.1981C33.9614 54.0951 34.1452 54.1346 34.2894 54.2267C35.6164 54.9876 36.9316 55.7705 38.263 56.5241C38.5471 56.688 38.8347 56.4703 39.0774 56.335C44.1568 53.4643 49.2424 50.6044 54.3208 47.7327C54.509 47.6422 54.613 47.4424 54.5977 47.2363C54.6013 41.4125 54.5986 35.5876 54.5995 29.7637C54.621 29.5299 54.4857 29.3148 54.2742 29.2191C49.1161 26.3142 43.9606 23.4049 38.8034 20.4993C38.714 20.4379 38.6082 20.4049 38.4997 20.4047C38.3913 20.4046 38.2854 20.4372 38.1958 20.4984C33.0386 23.4049 27.884 26.3169 22.7267 29.2216C22.516 29.3175 22.3746 29.529 22.3997 29.7637C22.4006 35.5876 22.3997 41.4125 22.3997 47.2372C22.3907 47.3378 22.4128 47.4387 22.463 47.5263C22.5131 47.614 22.5889 47.6841 22.6801 47.7274C24.0564 48.5078 25.4344 49.2827 26.8115 50.0605C27.5873 50.4781 28.5399 50.7262 29.3947 50.4062C30.149 50.1357 30.6777 49.366 30.6633 48.5651C30.6704 42.7752 30.6598 36.9844 30.6687 31.1955C30.6498 30.9384 30.8936 30.7261 31.1435 30.7503C31.8048 30.7458 32.4669 30.7414 33.1282 30.7521C33.4042 30.7458 33.5942 31.0226 33.56 31.2815C33.5574 37.1081 33.5672 42.9347 33.5556 48.7613C33.5574 50.3141 32.9194 52.0037 31.4831 52.7635C29.7136 53.6802 27.5265 53.4858 25.7784 52.6068C24.265 51.8515 22.8208 50.9601 21.3343 50.1508C20.3013 49.6162 19.5871 48.4989 19.5944 47.3279V29.6732C19.5835 28.5246 20.2627 27.418 21.2698 26.8759C26.445 23.9553 31.6193 21.0325 36.7936 18.1105Z" fill="#8CC84B"/>
<path d="M41.308 30.3398C43.5652 30.1945 45.9815 30.2537 48.0126 31.3656C49.5852 32.2177 50.457 34.0061 50.4848 35.7532C50.4409 35.9888 50.1945 36.1188 49.9695 36.1026C49.3147 36.1017 48.6596 36.1115 48.0048 36.0982C47.727 36.1089 47.5655 35.8527 47.5306 35.6071C47.3425 34.7712 46.8866 33.9433 46.0998 33.5401C44.892 32.9354 43.4916 32.9658 42.1745 32.9784C41.2131 33.0295 40.1792 33.1127 39.3646 33.6781C38.7393 34.1064 38.5493 34.971 38.7725 35.6672C38.9829 36.1672 39.5601 36.3285 40.0323 36.4772C42.7524 37.1886 45.6349 37.1178 48.303 38.0541C49.4077 38.4357 50.4883 39.1777 50.8665 40.3343C51.3611 41.8845 51.1443 43.7374 50.0414 44.9818C49.147 46.0059 47.8443 46.5633 46.5451 46.866C44.8167 47.2514 43.0231 47.2612 41.2678 47.0901C39.6173 46.9019 37.8998 46.4683 36.6257 45.3438C35.5361 44.3977 35.004 42.9237 35.0568 41.501C35.0694 41.2608 35.3086 41.0932 35.5388 41.113C36.1983 41.1076 36.8578 41.1058 37.5172 41.1139C37.7806 41.095 37.9759 41.3227 37.9894 41.5709C38.1111 42.3674 38.4104 43.2033 39.1049 43.6755C40.4453 44.5402 42.127 44.481 43.6618 44.5052C44.9332 44.4488 46.3605 44.4317 47.3981 43.5914C47.9456 43.112 48.1078 42.3101 47.9598 41.6202C47.7995 41.0377 47.1902 40.7663 46.667 40.5888C43.9817 39.7394 41.067 40.0476 38.4078 39.087C37.3282 38.7055 36.2842 37.9842 35.8694 36.875C35.2907 35.3053 35.5559 33.3637 36.7744 32.1612C37.9624 30.9651 39.6774 30.5045 41.308 30.3396V30.3398Z" fill="#8CC84B"/>
</svg>
