<svg width="47" height="47" viewBox="0 0 47 47" fill="none" xmlns="http://www.w3.org/2000/svg">
<rect width="46.4881" height="46.4881" rx="7.40269" fill="url(#paint0_linear_1_689)"/>
<g clip-path="url(#clip0_1_689)">
<path d="M21.3457 32.844C21.3457 33.4198 21.5701 33.9611 21.9771 34.3678C22.3837 34.7748 22.925 34.9992 23.5009 34.9992C24.0767 34.9992 24.6176 34.7748 25.0246 34.3678C25.4317 33.9607 25.656 33.4198 25.656 32.844C25.656 32.7374 25.6405 32.6338 25.6254 32.5302C25.6285 32.5255 25.6342 32.5239 25.6371 32.519L27.5267 29.4104C27.6298 29.2404 27.6037 29.0223 27.4631 28.8818C27.3225 28.7412 27.1049 28.7159 26.9344 28.8182L23.8258 30.7078C23.8133 30.7154 23.8062 30.7279 23.7947 30.7365C23.1432 30.6521 22.4554 30.8414 21.9771 31.3202C21.5701 31.7268 21.3457 32.2681 21.3457 32.844ZM25.872 30.4729L25.2157 31.5525C25.1554 31.4727 25.0966 31.392 25.0246 31.3202C24.9525 31.248 24.8706 31.1901 24.7898 31.1307L25.872 30.4729ZM22.5866 31.9297C22.8307 31.6856 23.1553 31.5509 23.5009 31.5509C23.8465 31.5509 24.171 31.6856 24.4151 31.9297C24.6593 32.1739 24.794 32.4984 24.794 32.844C24.794 33.1896 24.6593 33.5141 24.4151 33.7582C23.9269 34.2465 23.0749 34.2465 22.5866 33.7582C22.3425 33.5141 22.2078 33.1896 22.2078 32.844C22.2078 32.4984 22.3425 32.1739 22.5866 31.9297Z" fill="white"/>
<path d="M17.8965 32.8451C17.8965 33.0833 18.0893 33.2761 18.3275 33.2761H20.0517C20.2899 33.2761 20.4827 33.0833 20.4827 32.8451C20.4827 32.6068 20.2899 32.4141 20.0517 32.4141H18.3275C18.0893 32.4141 17.8965 32.6068 17.8965 32.8451Z" fill="white"/>
<path d="M11.431 33.2767H14.8793C15.1176 33.2767 15.3103 33.0839 15.3103 32.8457C15.3103 32.6074 15.1176 32.4147 14.8793 32.4147H11.8701C12.0974 26.1962 17.2268 21.2078 23.5 21.2078C29.7731 21.2078 34.9026 26.1962 35.1299 32.4147H26.9483C26.71 32.4147 26.5172 32.6074 26.5172 32.8457C26.5172 33.0839 26.71 33.2767 26.9483 33.2767H35.5689C35.8072 33.2767 36 33.0839 36 32.8457C36 25.9534 30.3923 20.3457 23.5 20.3457C16.6076 20.3457 11 25.9534 11 32.8457C11 33.0839 11.1928 33.2767 11.431 33.2767Z" fill="white"/>
<path d="M23.9304 23.3615V22.4994C23.9304 22.2611 23.7376 22.0684 23.4994 22.0684C23.2611 22.0684 23.0684 22.2611 23.0684 22.4994V23.3615C23.0684 23.5997 23.2611 23.7925 23.4994 23.7925C23.7376 23.7925 23.9304 23.5997 23.9304 23.3615Z" fill="white"/>
<path d="M19.8724 24.5159C19.9275 24.5159 19.9835 24.5054 20.0374 24.4831C20.2571 24.3921 20.3615 24.1396 20.2706 23.9199L19.9406 23.1235C19.8501 22.9037 19.5962 22.7993 19.3774 22.8903C19.1576 22.9812 19.0532 23.2337 19.1442 23.4535L19.4742 24.2499C19.5428 24.4157 19.7036 24.5159 19.8724 24.5159Z" fill="white"/>
<path d="M17.0992 25.8354L16.4897 25.2259C16.3213 25.0575 16.0486 25.0575 15.8802 25.2259C15.7118 25.3943 15.7118 25.667 15.8802 25.8354L16.4897 26.4449C16.5739 26.5291 16.6842 26.5712 16.7944 26.5712C16.9047 26.5712 17.015 26.5291 17.0992 26.4449C17.2676 26.2765 17.2676 26.0038 17.0992 25.8354Z" fill="white"/>
<path d="M14.1078 28.4881C13.8885 28.3968 13.6355 28.5012 13.5446 28.7213C13.4536 28.9411 13.558 29.1936 13.7777 29.2845L14.5741 29.6146C14.628 29.6369 14.684 29.6474 14.7392 29.6474C14.9079 29.6474 15.0687 29.5472 15.1374 29.3814C15.2283 29.1616 15.1239 28.9091 14.9042 28.8182L14.1078 28.4881Z" fill="white"/>
<path d="M27.1283 24.5161C27.2971 24.5161 27.4579 24.4159 27.5265 24.2501L27.8565 23.4537C27.9474 23.234 27.843 22.9814 27.6233 22.8905C27.4044 22.7991 27.1515 22.9035 27.0601 23.1237L26.7301 23.9201C26.6392 24.1398 26.7436 24.3924 26.9633 24.4833C27.0172 24.5056 27.0732 24.5161 27.1283 24.5161Z" fill="white"/>
<path d="M30.5093 26.4449L31.1189 25.8354C31.2872 25.667 31.2872 25.3943 31.1189 25.2259C30.9505 25.0575 30.6777 25.0575 30.5093 25.2259L29.8998 25.8354C29.7315 26.0038 29.7315 26.2765 29.8998 26.4449C29.984 26.5291 30.0943 26.5712 30.2046 26.5712C30.3149 26.5712 30.4252 26.5291 30.5093 26.4449Z" fill="white"/>
<path d="M32.2611 29.6472C32.3163 29.6472 32.3722 29.6367 32.4261 29.6144L33.2225 29.2844C33.4422 29.1934 33.5466 28.9409 33.4557 28.7212C33.3648 28.501 33.1118 28.397 32.8925 28.488L32.0961 28.818C31.8764 28.9089 31.772 29.1615 31.8629 29.3812C31.9315 29.547 32.0923 29.6472 32.2611 29.6472Z" fill="white"/>
<path d="M15.7414 21.8618C15.9796 21.8618 16.1724 21.6691 16.1724 21.4308V14.3103H20.4828V19.2929C20.4828 19.5312 20.6756 19.7239 20.9138 19.7239C21.1521 19.7239 21.3448 19.5312 21.3448 19.2929V10.8621H25.6552V19.2929C25.6552 19.5312 25.848 19.7239 26.0862 19.7239C26.3245 19.7239 26.5172 19.5312 26.5172 19.2929V14.3103H30.8276V21.4308C30.8276 21.6691 31.0204 21.8618 31.2586 21.8618C31.4969 21.8618 31.6896 21.6691 31.6896 21.4308V13.8793C31.6896 13.6411 31.4969 13.4483 31.2586 13.4483H26.5172V10.431C26.5172 10.1928 26.3245 10 26.0862 10H20.9138C20.6756 10 20.4828 10.1928 20.4828 10.431V13.4483H15.7414C15.5032 13.4483 15.3104 13.6411 15.3104 13.8793V21.4308C15.3104 21.6691 15.5032 21.8618 15.7414 21.8618Z" fill="white"/>
<path d="M24.3621 19.5084C24.6003 19.5084 24.7931 19.3156 24.7931 19.0773V17.3275C24.7931 17.0893 24.6003 16.8965 24.3621 16.8965H22.6379C22.3997 16.8965 22.2069 17.0893 22.2069 17.3275V19.0773C22.2069 19.3156 22.3997 19.5084 22.6379 19.5084C22.8762 19.5084 23.069 19.3156 23.069 19.0773V17.7586H23.931V19.0773C23.931 19.3156 24.1238 19.5084 24.3621 19.5084Z" fill="white"/>
<path d="M19.1903 20.1726C19.4286 20.1726 19.6214 19.9799 19.6214 19.7416V19.0521C19.6214 18.8139 19.4286 18.6211 19.1903 18.6211H17.4662C17.2279 18.6211 17.0352 18.8139 17.0352 19.0521V20.4399C17.0352 20.6782 17.2279 20.871 17.4662 20.871C17.7044 20.871 17.8972 20.6782 17.8972 20.4399V19.4832H18.7593V19.7416C18.7593 19.9799 18.9521 20.1726 19.1903 20.1726Z" fill="white"/>
<path d="M29.5341 20.871C29.7723 20.871 29.9651 20.6782 29.9651 20.4399V19.0521C29.9651 18.8139 29.7723 18.6211 29.5341 18.6211H27.8099C27.5717 18.6211 27.3789 18.8139 27.3789 19.0521V19.7416C27.3789 19.9799 27.5717 20.1726 27.8099 20.1726C28.0482 20.1726 28.241 19.9799 28.241 19.7416V19.4832H29.103V20.4399C29.103 20.6782 29.2958 20.871 29.5341 20.871Z" fill="white"/>
<path d="M29.5341 16.8965H27.8099C27.5717 16.8965 27.3789 17.0893 27.3789 17.3275C27.3789 17.5658 27.5717 17.7586 27.8099 17.7586H29.5341C29.7723 17.7586 29.9651 17.5658 29.9651 17.3275C29.9651 17.0893 29.7723 16.8965 29.5341 16.8965Z" fill="white"/>
<path d="M24.3622 15.1719H22.6381C22.3998 15.1719 22.207 15.3647 22.207 15.6029C22.207 15.8412 22.3998 16.0339 22.6381 16.0339H24.3622C24.6004 16.0339 24.7932 15.8412 24.7932 15.6029C24.7932 15.3647 24.6004 15.1719 24.3622 15.1719Z" fill="white"/>
<path d="M19.1903 16.8965H17.4662C17.2279 16.8965 17.0352 17.0893 17.0352 17.3275C17.0352 17.5658 17.2279 17.7586 17.4662 17.7586H19.1903C19.4286 17.7586 19.6214 17.5658 19.6214 17.3275C19.6214 17.0893 19.4286 16.8965 19.1903 16.8965Z" fill="white"/>
<path d="M19.1903 15.1719H17.4662C17.2279 15.1719 17.0352 15.3647 17.0352 15.6029C17.0352 15.8412 17.2279 16.0339 17.4662 16.0339H19.1903C19.4286 16.0339 19.6214 15.8412 19.6214 15.6029C19.6214 15.3647 19.4286 15.1719 19.1903 15.1719Z" fill="white"/>
<path d="M24.3622 13.4492H22.6381C22.3998 13.4492 22.207 13.642 22.207 13.8803C22.207 14.1185 22.3998 14.3113 22.6381 14.3113H24.3622C24.6004 14.3113 24.7932 14.1185 24.7932 13.8803C24.7932 13.642 24.6004 13.4492 24.3622 13.4492Z" fill="white"/>
<path d="M24.3622 11.7246H22.6381C22.3998 11.7246 22.207 11.9174 22.207 12.1556C22.207 12.3939 22.3998 12.5867 22.6381 12.5867H24.3622C24.6004 12.5867 24.7932 12.3939 24.7932 12.1556C24.7932 11.9174 24.6004 11.7246 24.3622 11.7246Z" fill="white"/>
<path d="M29.5341 15.1719H27.8099C27.5717 15.1719 27.3789 15.3647 27.3789 15.6029C27.3789 15.8412 27.5717 16.0339 27.8099 16.0339H29.5341C29.7723 16.0339 29.9651 15.8412 29.9651 15.6029C29.9651 15.3647 29.7723 15.1719 29.5341 15.1719Z" fill="white"/>
<path d="M11.431 24.6558C11.6693 24.6558 11.8621 24.463 11.8621 24.2248V22.6791L13.4599 21.0813C13.5407 21.0005 13.5862 20.891 13.5862 20.7765V17.5067L13.7125 17.633C13.7967 17.7172 13.907 17.7593 14.0172 17.7593C14.1275 17.7593 14.2378 17.7172 14.322 17.633C14.4904 17.4646 14.4904 17.1919 14.322 17.0235L13.4599 16.1614C13.2916 15.9931 13.0188 15.9931 12.8504 16.1614L11.9883 17.0235C11.82 17.1919 11.82 17.4646 11.9883 17.633C12.1567 17.8014 12.4295 17.8014 12.5979 17.633L12.7241 17.5067V20.5981L11.1263 22.1959C11.0455 22.2767 11 22.3862 11 22.5007V24.2248C11 24.463 11.1928 24.6558 11.431 24.6558Z" fill="white"/>
<path d="M33.2866 17.633L33.4128 17.5067V20.7765C33.4128 20.891 33.4583 21.0005 33.5391 21.0813L35.137 22.6791V24.2248C35.137 24.463 35.3298 24.6558 35.568 24.6558C35.8063 24.6558 35.9991 24.463 35.9991 24.2248V22.5007C35.9991 22.3862 35.9536 22.2767 35.8728 22.1959L34.2749 20.5981V17.5067L34.4012 17.633C34.4854 17.7172 34.5957 17.7593 34.706 17.7593C34.8162 17.7593 34.9265 17.7172 35.0107 17.633C35.1791 17.4646 35.1791 17.1919 35.0107 17.0235L34.1486 16.1614C33.9803 15.9931 33.7075 15.9931 33.5391 16.1614L32.6771 17.0235C32.5087 17.1919 32.5087 17.4646 32.6771 17.633C32.8454 17.8014 33.1182 17.8014 33.2866 17.633Z" fill="white"/>
<path d="M16.6029 33.2761C16.841 33.2761 17.0339 33.0831 17.0339 32.8451C17.0339 32.607 16.841 32.4141 16.6029 32.4141C16.3649 32.4141 16.1719 32.607 16.1719 32.8451C16.1719 33.0831 16.3649 33.2761 16.6029 33.2761Z" fill="white"/>
</g>
<defs>
<linearGradient id="paint0_linear_1_689" x1="18.0613" y1="66.421" x2="66.7213" y2="22.3299" gradientUnits="userSpaceOnUse">
<stop stop-color="#FF1717"/>
<stop offset="1" stop-color="#FF6461"/>
</linearGradient>
<clipPath id="clip0_1_689">
<rect width="31" height="31" fill="white" transform="translate(8.03125 7.0293)"/>
</clipPath>
</defs>
</svg>
