<svg width="47" height="47" viewBox="0 0 47 47" fill="none" xmlns="http://www.w3.org/2000/svg">
<rect width="46.4881" height="46.4881" rx="7.40269" fill="url(#paint0_linear_1_678)"/>
<path fill-rule="evenodd" clip-rule="evenodd" d="M17.4056 24.1387V24.4113C17.4568 24.4523 17.4958 24.5087 17.5152 24.5764L18.0267 26.3252H19.9569L20.4613 24.601C20.4849 24.4882 20.5669 24.3909 20.6847 24.354C20.8088 24.315 20.9287 24.273 21.0445 24.2268C21.0527 24.2227 21.0609 24.2197 21.0691 24.2166C21.0937 24.2074 21.1183 24.1971 21.143 24.1869C21.2916 24.1254 21.4392 24.0567 21.5858 23.9798L21.5868 23.9808C21.6801 23.9327 21.7959 23.9296 21.8954 23.9839L23.4955 24.8603L24.8609 23.4949L23.9978 21.9184C23.9352 21.822 23.924 21.6949 23.9814 21.5863C24.0582 21.4397 24.1269 21.2911 24.1884 21.1435C24.1987 21.1189 24.2079 21.0953 24.2181 21.0707C24.2212 21.0625 24.2243 21.0532 24.2284 21.045C24.2735 20.9292 24.3166 20.8093 24.3555 20.6852H24.3565C24.3883 20.5838 24.4693 20.5007 24.5779 20.469L26.3267 19.9575V18.0273L24.6026 17.5229C24.4898 17.4993 24.3924 17.4173 24.3555 17.2994C24.3053 17.1406 24.2499 16.9878 24.1884 16.8412C24.1269 16.6926 24.0583 16.545 23.9814 16.3984L23.9824 16.3974C23.9342 16.3041 23.9311 16.1883 23.9855 16.0888L24.8619 14.4887L23.4965 13.1243L21.92 13.9875C21.8236 14.05 21.6965 14.0613 21.5878 14.0039C21.4413 13.927 21.2926 13.8583 21.145 13.7968C20.9954 13.7353 20.8437 13.6789 20.6889 13.6307V13.6297C20.5874 13.5979 20.5033 13.517 20.4715 13.4073L19.96 11.6585H18.0298L17.5255 13.3827C17.5019 13.4954 17.4199 13.5928 17.302 13.6297C17.1431 13.6799 16.9904 13.7353 16.8438 13.7958C16.6952 13.8573 16.5476 13.927 16.401 14.0028L16.4 14.0018C16.3067 14.05 16.1909 14.053 16.0914 13.9987L14.4913 13.1223L13.1259 14.4867L13.989 16.0632C14.0515 16.1596 14.0628 16.2867 14.0054 16.3953C13.9285 16.5419 13.8599 16.6905 13.7984 16.8392C13.7369 16.9888 13.6805 17.1405 13.6323 17.2964H13.6313C13.5995 17.3978 13.5185 17.4819 13.4088 17.5137L11.6601 18.0241V19.9544L13.3842 20.4587C13.497 20.4823 13.5944 20.5643 13.6313 20.6822C13.6815 20.841 13.7368 20.9938 13.7983 21.1404C13.8599 21.289 13.9285 21.4366 14.0054 21.5832L14.0044 21.5842C14.0526 21.6775 14.0556 21.7933 14.0013 21.8928L13.1249 23.4929L13.4396 23.8076H17.0775C17.2589 23.8086 17.4056 23.9562 17.4056 24.1387ZM26.9848 20.0793C27.321 20.0363 27.6624 20.0137 28.0078 20.0137C28.343 20.0137 28.6792 20.0363 29.0165 20.0783C29.2113 20.1029 29.404 20.1347 29.5936 20.1726V16.1432H28.0078V16.1422C27.932 16.1422 27.8561 16.1166 27.7946 16.0633C27.6562 15.9454 27.6408 15.7373 27.7587 15.5999L31.5853 11.1194C31.5976 11.1051 31.6109 11.0918 31.6253 11.0795C31.7636 10.9616 31.9707 10.978 32.0886 11.1153L35.9049 15.5817C35.9633 15.6411 36.0002 15.7231 36.0002 15.8133C36.0002 15.9958 35.8526 16.1434 35.6702 16.1434H34.0844V22.8167C34.6666 23.4983 35.1371 24.2794 35.4662 25.1313C35.8116 26.0261 36.0002 26.9959 36.0002 28.0076C36.0002 30.2146 35.1054 32.2123 33.659 33.6587C32.2126 35.1051 30.2148 36 28.0078 36C25.8009 36 23.8031 35.1051 22.3567 33.6587C20.9103 32.2124 20.0154 30.2145 20.0154 28.0076C20.0154 27.6622 20.038 27.3208 20.081 26.9846H17.7818C17.6219 26.9846 17.4887 26.8708 17.4589 26.7201L17.4066 26.5428V30.8564H18.9924C19.1749 30.8564 19.3225 31.004 19.3225 31.1865C19.3225 31.2767 19.2866 31.3587 19.2272 31.4181L15.4108 35.8845C15.293 36.0229 15.0849 36.0382 14.9475 35.9203C14.9332 35.908 14.9198 35.8947 14.9075 35.8804L11.0799 31.3999C10.962 31.2615 10.9784 31.0544 11.1158 30.9365C11.1773 30.8832 11.2542 30.8576 11.33 30.8576V30.8566H12.9158V24.2182L12.4843 23.7867C12.3715 23.6739 12.3572 23.4997 12.4433 23.3715L13.3412 21.7325C13.2879 21.6228 13.2377 21.511 13.1906 21.3952C13.1434 21.2804 13.0993 21.1656 13.0583 21.0498L11.2378 20.5188C11.0943 20.4768 11.001 20.3455 11.001 20.2031H11V17.7808C11 17.6209 11.1138 17.4877 11.2645 17.4579L13.0573 16.9341C13.0973 16.8173 13.1413 16.7025 13.1885 16.5897C13.2367 16.4739 13.2869 16.3621 13.3402 16.2524L12.4289 14.5877C12.3572 14.4565 12.3848 14.2986 12.4853 14.1982L12.4843 14.1972L14.1971 12.4843C14.3099 12.3715 14.4852 12.3572 14.6133 12.4433L16.2524 13.3412C16.3621 13.2879 16.4748 13.2377 16.5896 13.1895C16.7045 13.1424 16.8193 13.0983 16.9341 13.0583L17.4661 11.2388C17.5081 11.0953 17.6393 11.0021 17.7818 11.0021V11H20.204C20.3639 11 20.4972 11.1138 20.5269 11.2655L21.0507 13.0593C21.1676 13.0993 21.2824 13.1434 21.3952 13.1906C21.511 13.2387 21.6227 13.289 21.7324 13.3423L23.3971 12.431C23.5283 12.3592 23.6862 12.3869 23.7867 12.4873L23.7877 12.4863L25.5006 14.1992C25.6133 14.3119 25.6277 14.4872 25.5416 14.6154L24.6436 16.2544C24.6969 16.3641 24.7471 16.4759 24.7943 16.5917C24.8414 16.7065 24.8855 16.8223 24.9265 16.9371L26.746 17.4691C26.8895 17.5112 26.9828 17.6424 26.9828 17.7849H26.9838L26.9848 20.0793ZM29.5936 20.844V22.8593C29.5936 23.0418 29.7412 23.1894 29.9237 23.1894H33.5379C34.0945 23.828 34.5435 24.564 34.8531 25.3677C35.1678 26.1847 35.341 27.0744 35.341 28.0063C35.341 30.0318 34.52 31.8646 33.1935 33.1921C31.8661 34.5196 30.0332 35.3397 28.0076 35.3397C25.982 35.3397 24.1493 34.5186 22.8218 33.1921C21.4943 31.8647 20.6742 30.0319 20.6742 28.0063C20.6742 27.4117 20.7439 26.8377 20.8741 26.2903C20.9992 25.7675 21.1827 25.2632 21.4164 24.7855C21.524 24.7404 21.6296 24.6932 21.7321 24.643L23.3712 25.541C23.4993 25.6261 23.6736 25.6127 23.7873 25.5L25.5002 23.7871L25.4992 23.7861C25.5997 23.6856 25.6263 23.5278 25.5556 23.3965L24.6443 21.7318C24.6935 21.6293 24.7417 21.5248 24.7868 21.4161C25.2644 21.1824 25.7688 20.9989 26.2916 20.8728C26.8379 20.7416 27.413 20.6729 28.0075 20.6729C28.3284 20.6729 28.6369 20.6924 28.9342 20.7293C29.1566 20.758 29.377 20.7959 29.5933 20.8441L29.5936 20.844ZM30.7283 26.2564C30.7283 26.4389 30.5807 26.5865 30.3983 26.5865C30.2158 26.5865 30.0682 26.4389 30.0682 26.2564C30.0682 25.8382 29.8478 25.4548 29.4931 25.1729C29.1169 24.8746 28.5911 24.6891 28.0068 24.6891C27.4225 24.6891 26.8977 24.8736 26.5204 25.1729C26.1647 25.4548 25.9454 25.8382 25.9454 26.2564C25.9454 26.6746 26.1658 27.058 26.5204 27.3399C26.8966 27.6382 27.4225 27.8237 28.0068 27.8237C28.7428 27.8237 29.4132 28.0636 29.9022 28.4511C30.4116 28.8549 30.7273 29.4208 30.7273 30.0502C30.7273 30.6796 30.4116 31.2444 29.9022 31.6493C29.487 31.9783 28.9417 32.2008 28.3358 32.2602V32.8794C28.3358 33.0618 28.1882 33.2094 28.0058 33.2094C27.8233 33.2094 27.6757 33.0618 27.6757 32.8794V32.2602C27.0699 32.2008 26.5246 31.9783 26.1094 31.6493C25.5999 31.2454 25.2842 30.6806 25.2842 30.0502C25.2842 29.8677 25.4318 29.7201 25.6143 29.7201C25.7967 29.7201 25.9444 29.8677 25.9444 30.0502C25.9444 30.4684 26.1647 30.8518 26.5194 31.1337C26.8956 31.432 27.4215 31.6175 28.0058 31.6175C28.5901 31.6175 29.1149 31.433 29.4921 31.1337C29.8478 30.8518 30.0672 30.4684 30.0672 30.0502C30.0672 29.632 29.8468 29.2486 29.4921 28.9667C29.1159 28.6684 28.5901 28.4828 28.0058 28.4828C27.2698 28.4828 26.5994 28.243 26.1104 27.8555C25.601 27.4516 25.2852 26.8858 25.2852 26.2564C25.2852 25.627 25.601 25.0622 26.1104 24.6573C26.5256 24.3282 27.0709 24.1058 27.6767 24.0463V23.134C27.6767 22.9516 27.8243 22.804 28.0068 22.804C28.1893 22.804 28.3369 22.9516 28.3369 23.134V24.0463C28.9427 24.1058 29.488 24.3282 29.9032 24.6573C30.4126 25.0622 30.7283 25.627 30.7283 26.2564ZM18.9923 15.0236C20.0881 15.0236 21.0793 15.4675 21.7978 16.1861C22.5153 16.9036 22.9602 17.8959 22.9602 18.9916C22.9602 20.0873 22.5164 21.0796 21.7978 21.7971C21.0792 22.5145 20.088 22.9595 18.9923 22.9595C17.8966 22.9595 16.9042 22.5156 16.1868 21.7971C15.4692 21.0785 15.0244 20.0873 15.0244 18.9916C15.0244 17.8959 15.4682 16.9035 16.1868 16.1861C16.9043 15.4675 17.8966 15.0236 18.9923 15.0236ZM21.3315 16.6514C21.9301 17.2501 22.3002 18.0773 22.3002 18.9907C22.3002 19.904 21.9301 20.7312 21.3315 21.3299C20.7329 21.9285 19.9056 22.2985 18.9923 22.2985C18.0789 22.2985 17.2517 21.9285 16.6531 21.3299C16.0544 20.7312 15.6844 19.904 15.6844 18.9907C15.6844 18.0773 16.0544 17.2501 16.6531 16.6514C17.2517 16.0528 18.0789 15.6828 18.9923 15.6828C19.9056 15.6828 20.7328 16.0528 21.3315 16.6514ZM33.4242 22.5301V15.8128C33.4242 15.6303 33.5718 15.4827 33.7542 15.4827H34.9556L31.8384 11.8346L28.7211 15.4827H29.9225C30.1049 15.4827 30.2526 15.6303 30.2526 15.8128V22.5301H33.4242ZM16.7463 31.1846C16.7463 31.3671 16.8939 31.5147 17.0763 31.5147H18.2777L15.1605 35.1628L12.0432 31.5147H13.2446C13.4271 31.5147 13.5747 31.3671 13.5747 31.1846V24.4673H16.7473L16.7463 31.1846Z" fill="white"/>
<defs>
<linearGradient id="paint0_linear_1_678" x1="18.0613" y1="66.421" x2="66.7213" y2="22.3299" gradientUnits="userSpaceOnUse">
<stop stop-color="#FF1717"/>
<stop offset="1" stop-color="#FF6461"/>
</linearGradient>
</defs>
</svg>
