<svg width="47" height="47" viewBox="0 0 47 47" fill="none" xmlns="http://www.w3.org/2000/svg">
<rect width="46.4881" height="46.4881" rx="7.40269" fill="url(#paint0_linear_1_723)"/>
<g clip-path="url(#clip0_1_723)">
<path d="M20.5016 19.1457C20.5016 19.3414 20.3429 19.4999 20.1473 19.4999L14.5556 19.4999C14.36 19.4999 14.2013 19.3414 14.2013 19.1457C14.2013 18.9501 14.36 18.7915 14.5556 18.7915L20.1473 18.7915C20.3429 18.7915 20.5016 18.9501 20.5016 19.1457ZM21.2832 19.1457C21.2832 17.6596 22.4924 16.4504 23.9785 16.4504C25.4647 16.4504 26.6738 17.6596 26.6738 19.1457C26.6738 20.6319 25.4647 21.8409 23.9785 21.8409C22.4924 21.8409 21.2832 20.6319 21.2832 19.1457ZM21.9917 19.1457C21.9917 20.2412 22.883 21.1325 23.9785 21.1325C25.074 21.1325 25.9652 20.2412 25.9652 19.1457C25.9652 18.0502 25.074 17.1588 23.9785 17.1588C22.883 17.1588 21.9917 18.0502 21.9917 19.1457ZM23.5054 20.0685C23.5746 20.1377 23.6652 20.1723 23.7559 20.1723C23.8466 20.1723 23.9372 20.1377 24.0064 20.0685L25.3513 18.7236C25.4896 18.5854 25.4896 18.361 25.3513 18.2228C25.213 18.0844 24.9887 18.0844 24.8503 18.2228L23.7559 19.317L23.1066 18.6678C22.9682 18.5294 22.7439 18.5294 22.6056 18.6678C22.4673 18.806 22.4673 19.0304 22.6056 19.1686L23.5054 20.0685ZM20.1473 25.259L14.5556 25.259C14.36 25.259 14.2013 25.4176 14.2013 25.6132C14.2013 25.8088 14.36 25.9674 14.5556 25.9674L20.1473 25.9674C20.3429 25.9674 20.5016 25.8088 20.5016 25.6132C20.5016 25.4176 20.3429 25.259 20.1473 25.259ZM21.2832 25.6132C21.2832 24.127 22.4924 22.9181 23.9785 22.9181C25.4647 22.9181 26.6738 24.127 26.6738 25.6132C26.6738 27.0994 25.4647 28.3086 23.9785 28.3086C22.4924 28.3086 21.2832 27.0994 21.2832 25.6132ZM21.9917 25.6132C21.9917 26.7087 22.883 27.6002 23.9785 27.6002C25.074 27.6002 25.9652 26.7087 25.9652 25.6132C25.9652 24.5177 25.074 23.6265 23.9785 23.6265C22.883 23.6265 21.9917 24.5177 21.9917 25.6132ZM23.5054 26.5362C23.5746 26.6054 23.6652 26.6399 23.7559 26.6399C23.8466 26.6399 23.9372 26.6054 24.0064 26.5362L25.3513 25.1913C25.4896 25.0531 25.4896 24.8286 25.3513 24.6904C25.213 24.5521 24.9887 24.5521 24.8503 24.6904L23.7559 25.7847L23.1066 25.1354C22.9682 24.9971 22.7439 24.9971 22.6056 25.1354C22.4673 25.2736 22.4673 25.4981 22.6056 25.6363L23.5054 26.5362ZM20.1473 31.7267L14.5556 31.7267C14.36 31.7267 14.2013 31.8852 14.2013 32.0809C14.2013 32.2765 14.36 32.4351 14.5556 32.4351L20.1473 32.4351C20.3429 32.4351 20.5016 32.2765 20.5016 32.0809C20.5016 31.8852 20.3429 31.7267 20.1473 31.7267ZM35.5125 22.6924L28.8751 29.3299L28.8751 34.4737C28.8751 35.3153 28.1903 36 27.3486 36L13.5265 36C12.6848 36 12 35.3153 12 34.4737L12 15.4162C12 14.5744 12.6848 13.8897 13.5265 13.8897L16.7681 13.8897L16.7681 13.3617C16.7681 12.7392 17.3987 12.2329 18.1737 12.2329L18.5342 12.2329L18.5342 12.0496C18.5342 11.4708 19.1165 11 19.8322 11L21.0428 11C21.7586 11 22.3409 11.4708 22.3409 12.0496L22.3409 12.2329L22.7014 12.2329C23.4764 12.2329 24.1069 12.7392 24.1069 13.3617L24.1069 13.8897L27.3486 13.8897C28.1903 13.8897 28.8751 14.5744 28.8751 15.4162L28.8751 25.0387L33.3672 20.5466C33.9587 19.9548 34.9212 19.9548 35.5126 20.5466C35.7984 20.8322 35.9557 21.2132 35.9557 21.6195C35.9557 22.0256 35.7984 22.4068 35.5125 22.6924ZM32.0647 22.8508L26.3068 28.6087C26.5848 28.6706 26.84 28.8084 27.0455 29.014C27.2509 29.2193 27.3887 29.4746 27.4506 29.7526L33.2083 23.9947C33.5236 23.6795 33.5237 23.1662 33.2085 22.8509C32.8932 22.5361 32.3804 22.5357 32.0647 22.8508ZM25.9187 31.6573L24.1146 32.4079C24.0706 32.4262 24.0244 32.435 23.9786 32.435C23.8864 32.435 23.7958 32.3992 23.728 32.3312C23.6266 32.2299 23.5964 32.0773 23.6514 31.9447L24.4021 30.1403C24.2639 30.1104 24.1226 30.0939 23.9785 30.0939C22.883 30.0939 21.9918 30.9853 21.9918 32.0808C21.9918 33.1764 22.883 34.0676 23.9785 34.0676C25.074 34.0676 25.9652 33.1764 25.9652 32.0808C25.9652 31.9369 25.9487 31.7956 25.9187 31.6573ZM26.588 30.6116C26.7122 30.466 26.7799 30.2819 26.7799 30.0867C26.7799 29.8699 26.6963 29.6668 26.5444 29.5151C26.256 29.2261 25.755 29.2091 25.4478 29.4714L24.6355 31.4237L26.588 30.6116ZM17.4767 14.8057C17.4767 15.0042 17.7748 15.2264 18.1737 15.2264L22.7014 15.2264C23.1003 15.2264 23.3983 15.0042 23.3983 14.8057L23.3983 13.3617C23.3983 13.1632 23.1002 12.9412 22.7014 12.9412L21.9866 12.9412C21.791 12.9412 21.6323 12.7827 21.6323 12.5871L21.6323 12.0496C21.6323 11.8886 21.3801 11.7084 21.0427 11.7084L19.8322 11.7084C19.4948 11.7084 19.2427 11.8886 19.2427 12.0496L19.2427 12.5871C19.2427 12.7827 19.0841 12.9412 18.8884 12.9412L18.1737 12.9412C17.7747 12.9412 17.4766 13.1632 17.4766 13.3617L17.4767 14.8057ZM28.1665 30.0385L27.0455 31.1596C27.0288 31.1762 27.0106 31.1911 26.9911 31.204C26.9798 31.2116 26.9676 31.2169 26.9556 31.2231C26.9473 31.2273 26.9397 31.2326 26.9311 31.2362L26.929 31.2371C26.9285 31.2373 26.9281 31.2374 26.9277 31.2376L26.5794 31.3825C26.6402 31.6093 26.6738 31.8426 26.6738 32.0809C26.6738 33.5671 25.4647 34.776 23.9785 34.776C22.4924 34.776 21.2832 33.5671 21.2832 32.0809C21.2832 30.5947 22.4924 29.3855 23.9785 29.3855C24.217 29.3855 24.4503 29.4191 24.6769 29.4798L24.8231 29.1283C24.8272 29.1186 24.8332 29.1098 24.8381 29.1005C24.8437 29.0897 24.8485 29.0786 24.8554 29.0683C24.8684 29.0489 24.8831 29.0306 24.8997 29.014L28.1665 25.7473L28.1665 15.4162C28.1665 14.9651 27.7997 14.5981 27.3486 14.5981L24.1069 14.5981L24.1069 14.8057C24.1069 15.4282 23.4764 15.9348 22.7014 15.9348L18.1738 15.9348C17.3988 15.9348 16.7681 15.4282 16.7681 14.8057L16.7681 14.5981L13.5265 14.5981C13.0755 14.5981 12.7086 14.9651 12.7086 15.4162L12.7086 34.4737C12.7086 34.9247 13.0755 35.2916 13.5265 35.2916L27.3486 35.2916C27.7997 35.2916 28.1665 34.9246 28.1665 34.4737L28.1665 30.0385ZM35.2471 21.6195C35.2471 21.4025 35.1635 21.1994 35.0118 21.0474C34.6963 20.7324 34.1835 20.7324 33.8681 21.0474L32.9707 21.9448C33.2415 22.0056 33.499 22.1397 33.7093 22.3501C33.9147 22.5556 34.0525 22.8107 34.1144 23.0887L35.0118 22.1914C35.1635 22.0394 35.2471 21.8363 35.2471 21.6195Z" fill="white"/>
</g>
<defs>
<linearGradient id="paint0_linear_1_723" x1="18.0613" y1="66.421" x2="66.7213" y2="22.3299" gradientUnits="userSpaceOnUse">
<stop stop-color="#FF1717"/>
<stop offset="1" stop-color="#FF6461"/>
</linearGradient>
<clipPath id="clip0_1_723">
<rect width="31" height="31" fill="white" transform="translate(7.90625 8.1543) rotate(-0.644178)"/>
</clipPath>
</defs>
</svg>
