<svg width="60" height="60" viewBox="0 0 60 60" fill="none" xmlns="http://www.w3.org/2000/svg">
<g filter="url(#filter0_d_2299_1686)">
<rect x="6" y="6" width="46.4881" height="46.4881" rx="7.40269" fill="url(#paint0_linear_2299_1686)" shape-rendering="crispEdges"/>
<path fill-rule="evenodd" clip-rule="evenodd" d="M18.673 29.4572V33.0306C19.0896 32.9522 19.4657 32.7307 19.7363 32.4044C20.007 32.0781 20.1551 31.6675 20.1551 31.2436C20.1551 30.8197 20.007 30.4091 19.7363 30.0828C19.4657 29.7566 19.0896 29.5351 18.673 29.4567V29.4572ZM18.673 26.523H18.9671V27.2515C18.9671 27.3316 18.9957 27.409 19.0476 27.47C19.0996 27.5309 19.1716 27.5713 19.2507 27.5839C19.431 27.629 19.6078 27.6874 19.7795 27.7586C19.7852 27.7611 19.7909 27.7631 19.7963 27.7651C19.9708 27.8385 20.1395 27.9249 20.301 28.0237C20.3652 28.0629 20.4408 28.0794 20.5156 28.0704C20.5903 28.0615 20.6599 28.0276 20.7131 27.9743L21.2286 27.459L22.1212 28.3516L21.6059 28.8672C21.5498 28.9233 21.5153 28.9974 21.5085 29.0765C21.5018 29.1556 21.5233 29.2345 21.5691 29.2993C21.767 29.6273 21.9135 29.9836 22.0035 30.356C22.0212 30.429 22.0629 30.494 22.122 30.5404C22.1811 30.5869 22.2541 30.6121 22.3292 30.6121V30.6134H23.0589V31.8746H22.3292C22.2493 31.8749 22.172 31.9036 22.1113 31.9556C22.0506 32.0076 22.0103 32.0795 21.9978 32.1584C21.9528 32.3392 21.8944 32.5164 21.8231 32.6885C21.7483 32.8684 21.6597 33.0423 21.558 33.2085C21.5188 33.2728 21.5024 33.3484 21.5113 33.4232C21.5203 33.498 21.5541 33.5676 21.6074 33.6208L22.1212 34.1366L21.2291 35.0295L20.7146 34.5132C20.6585 34.457 20.5843 34.4225 20.5052 34.4158C20.4261 34.4091 20.3472 34.4305 20.2824 34.4764C19.9543 34.674 19.598 34.8204 19.2257 34.9108C19.1525 34.9283 19.0873 34.97 19.0406 35.0291C18.9939 35.0883 18.9684 35.1614 18.9684 35.2367V35.9652H18.673V33.7126C19.2685 33.6295 19.814 33.3338 20.2087 32.8802C20.6034 32.4265 20.8208 31.8455 20.8208 31.2441C20.8208 30.6428 20.6034 30.0617 20.2087 29.6081C19.814 29.1544 19.2685 28.8587 18.673 28.7756V26.523ZM40.21 37.801C40.2097 37.9923 40.1335 38.1756 39.9983 38.3109C39.863 38.4461 39.6797 38.5223 39.4884 38.5226H18.7216C18.5303 38.5223 18.347 38.4461 18.2117 38.3109C18.0765 38.1756 18.0003 37.9923 18 37.801V19.7216C18.0003 19.5303 18.0765 19.347 18.2117 19.2117C18.347 19.0765 18.5303 19.0003 18.7216 19H39.4884C39.6797 19.0003 39.863 19.0765 39.9983 19.2117C40.1335 19.347 40.2097 19.5303 40.21 19.7216V37.801ZM39.537 24.0868V37.801C39.5368 37.8138 39.5316 37.826 39.5225 37.8351C39.5134 37.8441 39.5012 37.8492 39.4884 37.8494H18.7216C18.7088 37.8492 18.6966 37.8441 18.6875 37.8351C18.6784 37.826 18.6732 37.8138 18.673 37.801V36.6384H18.9903C19.1626 36.6381 19.3278 36.5695 19.4496 36.4477C19.5714 36.3259 19.64 36.1607 19.6403 35.9884V35.4924C19.7764 35.4509 19.9087 35.4035 20.0374 35.35C20.1661 35.2965 20.2931 35.2366 20.4184 35.1701L20.7693 35.5208C20.8913 35.6425 21.0565 35.7108 21.2287 35.7108C21.401 35.7108 21.5662 35.6425 21.6881 35.5208L22.6128 34.5961C22.7345 34.4742 22.8028 34.3089 22.8028 34.1366C22.8028 33.9643 22.7345 33.7991 22.6128 33.6771L22.2623 33.3267C22.3282 33.203 22.3882 33.0755 22.4425 32.9442C22.4958 32.8154 22.5434 32.6831 22.5846 32.5493H23.0809C23.2532 32.5491 23.4183 32.4806 23.5401 32.3588C23.662 32.237 23.7305 32.0718 23.7307 31.8996V30.5916C23.7305 30.4194 23.662 30.2542 23.5402 30.1323C23.4184 30.0105 23.2532 29.9419 23.0809 29.9416H22.5846C22.5435 29.8069 22.4961 29.6753 22.4425 29.5468C22.3889 29.4183 22.3288 29.2908 22.2623 29.1643L22.6133 28.8107C22.7348 28.6886 22.8031 28.5234 22.8031 28.3512C22.8031 28.1789 22.7348 28.0137 22.6133 27.8917L21.6886 26.967C21.5666 26.8453 21.4014 26.777 21.2292 26.777C21.057 26.777 20.8918 26.8453 20.7698 26.967L20.4184 27.3184C20.3005 27.2559 20.179 27.1983 20.0542 27.1456L20.0372 27.1377C19.9083 27.0844 19.776 27.037 19.6401 26.9954V26.4993C19.6399 26.327 19.5714 26.1619 19.4496 26.04C19.3278 25.9182 19.1626 25.8496 18.9903 25.8493H18.673V24.0868H39.537ZM18.673 23.4139H39.537V19.7216C39.5368 19.7088 39.5316 19.6966 39.5225 19.6875C39.5134 19.6785 39.5012 19.6734 39.4884 19.6732H18.7216C18.7088 19.6734 18.6966 19.6785 18.6875 19.6875C18.6784 19.6966 18.6732 19.7088 18.673 19.7216V23.4139ZM20.1963 21.9416H20.2457C20.3333 21.9392 20.4166 21.9027 20.4778 21.8399C20.5389 21.777 20.5732 21.6928 20.5732 21.6051C20.5732 21.5174 20.5389 21.4332 20.4778 21.3703C20.4166 21.3075 20.3333 21.271 20.2457 21.2686H20.1963C20.1514 21.2674 20.1066 21.2752 20.0647 21.2916C20.0228 21.3079 19.9847 21.3325 19.9524 21.3639C19.9202 21.3953 19.8946 21.4328 19.8771 21.4742C19.8596 21.5156 19.8506 21.5601 19.8506 21.6051C19.8506 21.6501 19.8596 21.6946 19.8771 21.736C19.8946 21.7775 19.9202 21.815 19.9524 21.8463C19.9847 21.8777 20.0228 21.9023 20.0647 21.9186C20.1066 21.935 20.1514 21.9428 20.1963 21.9416ZM25.2987 21.9416H38.0137C38.0586 21.9428 38.1034 21.935 38.1453 21.9186C38.1871 21.9023 38.2253 21.8777 38.2576 21.8463C38.2898 21.815 38.3154 21.7775 38.3329 21.736C38.3504 21.6946 38.3594 21.6501 38.3594 21.6051C38.3594 21.5601 38.3504 21.5156 38.3329 21.4742C38.3154 21.4328 38.2898 21.3953 38.2576 21.3639C38.2253 21.3325 38.1871 21.3079 38.1453 21.2916C38.1034 21.2752 38.0586 21.2674 38.0137 21.2686H25.2997C25.212 21.271 25.1287 21.3075 25.0676 21.3703C25.0064 21.4332 24.9722 21.5174 24.9722 21.6051C24.9722 21.6928 25.0064 21.777 25.0676 21.8399C25.1287 21.9027 25.212 21.9392 25.2997 21.9416H25.2987ZM21.751 21.9416H21.8004C21.8453 21.9428 21.8901 21.935 21.932 21.9186C21.9739 21.9023 22.012 21.8777 22.0443 21.8463C22.0765 21.815 22.1021 21.7775 22.1196 21.736C22.1371 21.6946 22.1461 21.6501 22.1461 21.6051C22.1461 21.5601 22.1371 21.5156 22.1196 21.4742C22.1021 21.4328 22.0765 21.3953 22.0443 21.3639C22.012 21.3325 21.9739 21.3079 21.932 21.2916C21.8901 21.2752 21.8453 21.2674 21.8004 21.2686H21.751C21.7061 21.2674 21.6613 21.2752 21.6194 21.2916C21.5775 21.3079 21.5394 21.3325 21.5071 21.3639C21.4749 21.3953 21.4493 21.4328 21.4318 21.4742C21.4143 21.5156 21.4053 21.5601 21.4053 21.6051C21.4053 21.6501 21.4143 21.6946 21.4318 21.736C21.4493 21.7775 21.4749 21.815 21.5071 21.8463C21.5394 21.8777 21.5775 21.9023 21.6194 21.9186C21.6613 21.935 21.7061 21.9428 21.751 21.9416ZM23.3057 21.9416H23.3551C23.4 21.9428 23.4448 21.935 23.4867 21.9186C23.5286 21.9023 23.5667 21.8777 23.599 21.8463C23.6312 21.815 23.6568 21.7775 23.6743 21.736C23.6918 21.6946 23.7008 21.6501 23.7008 21.6051C23.7008 21.5601 23.6918 21.5156 23.6743 21.4742C23.6568 21.4328 23.6312 21.3953 23.599 21.3639C23.5667 21.3325 23.5286 21.3079 23.4867 21.2916C23.4448 21.2752 23.4 21.2674 23.3551 21.2686H23.3057C23.2608 21.2674 23.216 21.2752 23.1741 21.2916C23.1322 21.3079 23.0941 21.3325 23.0618 21.3639C23.0296 21.3953 23.004 21.4328 22.9865 21.4742C22.969 21.5156 22.96 21.5601 22.96 21.6051C22.96 21.6501 22.969 21.6946 22.9865 21.736C23.004 21.7775 23.0296 21.815 23.0618 21.8463C23.0941 21.8777 23.1322 21.9023 23.1741 21.9186C23.216 21.935 23.2608 21.9428 23.3057 21.9416ZM26.6079 25.9974C26.5643 26.041 26.5372 26.0984 26.5312 26.1598C26.5252 26.2211 26.5407 26.2827 26.575 26.3339C26.6093 26.3851 26.6603 26.4229 26.7193 26.4408C26.7783 26.4586 26.8417 26.4555 26.8986 26.4318C26.9556 26.4082 27.0026 26.3656 27.0316 26.3112C27.0606 26.2568 27.0699 26.194 27.0579 26.1336C27.0458 26.0731 27.0132 26.0187 26.9655 25.9796C26.9178 25.9405 26.858 25.9191 26.7964 25.9192C26.7614 25.9191 26.7267 25.926 26.6943 25.9394C26.662 25.9529 26.6326 25.9726 26.6079 25.9974ZM26.9852 36.1128C26.9415 36.069 26.884 36.0417 26.8224 36.0356C26.7609 36.0294 26.6991 36.0448 26.6476 36.0791C26.5962 36.1134 26.5582 36.1645 26.5402 36.2237C26.5222 36.2829 26.5253 36.3465 26.5489 36.4036C26.5726 36.4608 26.6153 36.508 26.6699 36.5372C26.7244 36.5663 26.7874 36.5757 26.848 36.5636C26.9087 36.5515 26.9633 36.5188 27.0025 36.471C27.0418 36.4232 27.0632 36.3632 27.0632 36.3013C27.0632 36.2663 27.0563 36.2317 27.0429 36.1993C27.0296 36.167 27.0099 36.1376 26.9852 36.1128ZM28.6904 31.0539C28.6468 31.0103 28.5894 30.9832 28.528 30.9772C28.4667 30.9712 28.4051 30.9867 28.3539 31.021C28.3026 31.0553 28.2649 31.1063 28.247 31.1653C28.2292 31.2243 28.2323 31.2877 28.256 31.3446C28.2796 31.4016 28.3222 31.4486 28.3766 31.4776C28.431 31.5066 28.4938 31.5159 28.5542 31.5039C28.6147 31.4918 28.6691 31.4592 28.7082 31.4115C28.7473 31.3638 28.7687 31.3041 28.7686 31.2424C28.7687 31.2074 28.7618 31.1727 28.7483 31.1403C28.7349 31.108 28.7152 31.0786 28.6904 31.0539ZM27.6243 31.5807C27.7029 31.7857 27.8507 31.9567 28.0422 32.064C28.2337 32.1713 28.4567 32.2082 28.6726 32.1683C28.8884 32.1283 29.0834 32.0141 29.2238 31.8453C29.3642 31.6766 29.4411 31.464 29.4411 31.2445C29.4411 31.025 29.3642 30.8124 29.2238 30.6437C29.0834 30.4749 28.8884 30.3606 28.6726 30.3207C28.4567 30.2808 28.2337 30.3176 28.0422 30.425C27.8507 30.5323 27.7029 30.7033 27.6243 30.9083H24.702C24.6143 30.9106 24.5311 30.9471 24.4699 31.01C24.4087 31.0728 24.3745 31.157 24.3745 31.2447C24.3745 31.3324 24.4087 31.4167 24.4699 31.4795C24.5311 31.5424 24.6143 31.5789 24.702 31.5812L27.6243 31.5807ZM25.9186 26.523C25.9972 26.7279 26.1451 26.8989 26.3366 27.0062C26.5281 27.1134 26.7511 27.1503 26.9669 27.1103C27.1827 27.0703 27.3777 26.9561 27.518 26.7873C27.6584 26.6186 27.7352 26.406 27.7352 26.1865C27.7352 25.9671 27.6584 25.7545 27.518 25.5858C27.3777 25.417 27.1827 25.3027 26.9669 25.2628C26.7511 25.2228 26.5281 25.2596 26.3366 25.3669C26.1451 25.4742 25.9972 25.6451 25.9186 25.8501H23.647C23.5699 25.8496 23.4951 25.8758 23.435 25.9241L22.5232 26.5872C22.4563 26.6414 22.4127 26.7192 22.4015 26.8046C22.3903 26.89 22.4123 26.9764 22.463 27.046C22.5136 27.1157 22.589 27.1632 22.6737 27.1788C22.7584 27.1945 22.8458 27.177 22.918 27.1301L23.7571 26.5208L25.9186 26.523ZM25.9186 36.6384C25.9972 36.8432 26.1451 37.014 26.3364 37.1211C26.5278 37.2283 26.7507 37.2651 26.9664 37.2251C27.182 37.1851 27.3769 37.0709 27.5171 36.9022C27.6574 36.7336 27.7342 36.5212 27.7342 36.3018C27.7342 36.0825 27.6574 35.8701 27.5171 35.7014C27.3769 35.5328 27.182 35.4186 26.9664 35.3786C26.7507 35.3386 26.5278 35.3754 26.3364 35.4825C26.1451 35.5897 25.9972 35.7605 25.9186 35.9652H23.7556L22.9166 35.3559C22.8444 35.309 22.7569 35.2915 22.6722 35.3072C22.5876 35.3228 22.5121 35.3704 22.4615 35.44C22.4108 35.5096 22.3888 35.5961 22.4001 35.6814C22.4113 35.7668 22.4548 35.8446 22.5217 35.8988L23.4348 36.5619C23.4947 36.6107 23.5696 36.6373 23.6468 36.6372L25.9186 36.6384Z" fill="white"/>
</g>
<defs>
<filter id="filter0_d_2299_1686" x="0.447986" y="0.447986" width="59.443" height="59.443" filterUnits="userSpaceOnUse" color-interpolation-filters="sRGB">
<feFlood flood-opacity="0" result="BackgroundImageFix"/>
<feColorMatrix in="SourceAlpha" type="matrix" values="0 0 0 0 0 0 0 0 0 0 0 0 0 0 0 0 0 0 127 0" result="hardAlpha"/>
<feOffset dx="0.925336" dy="0.925336"/>
<feGaussianBlur stdDeviation="3.23867"/>
<feComposite in2="hardAlpha" operator="out"/>
<feColorMatrix type="matrix" values="0 0 0 0 0.211765 0 0 0 0 0.211765 0 0 0 0 0.211765 0 0 0 0.35 0"/>
<feBlend mode="normal" in2="BackgroundImageFix" result="effect1_dropShadow_2299_1686"/>
<feBlend mode="normal" in="SourceGraphic" in2="effect1_dropShadow_2299_1686" result="shape"/>
</filter>
<linearGradient id="paint0_linear_2299_1686" x1="24.0613" y1="72.421" x2="72.7213" y2="28.3299" gradientUnits="userSpaceOnUse">
<stop stop-color="#FF1717"/>
<stop offset="1" stop-color="#FF6461"/>
</linearGradient>
</defs>
</svg>
