<svg width="40" height="40" viewBox="0 0 40 40" fill="none" xmlns="http://www.w3.org/2000/svg">
<path d="M15.2273 6C12.4992 6 10.0262 6.54444 8.17472 7.47017C6.32325 8.3959 5 9.76811 5 11.4545C5 11.5599 5.00051 11.6606 5.01065 11.7635L5 27.8182C5 29.5045 6.32375 30.8768 8.17472 31.8026C10.0257 32.7283 12.5 33.2727 15.2273 33.2727C17.8137 33.2727 20.165 32.7812 21.9815 31.9411C23.0582 32.3629 24.23 32.5909 25.4545 32.5909C30.7183 32.5909 35 28.3092 35 23.0455C35 17.7817 30.7183 13.5 25.4545 13.5V12.1364V11.4545C25.4545 9.76811 24.1313 8.3959 22.2798 7.47017C20.4284 6.54444 17.9553 6 15.2273 6ZM15.2273 7.36364C17.7711 7.36364 20.0693 7.883 21.6726 8.68466C23.2759 9.48631 24.0909 10.5051 24.0909 11.4545C24.0909 12.404 23.2759 13.4228 21.6726 14.2244C20.0693 15.0261 17.7711 15.5455 15.2273 15.5455C12.6835 15.5455 10.3853 15.0261 8.78196 14.2244C7.27886 13.4729 6.4697 12.5329 6.37429 11.6357V11.4545H6.36364C6.36364 10.5051 7.17865 9.48631 8.78196 8.68466C10.3853 7.883 12.6835 7.36364 15.2273 7.36364ZM6.37429 14.2351C6.87421 14.6927 7.49023 15.0967 8.17472 15.4389C10.0262 16.3647 12.4992 16.9091 15.2273 16.9091C16.3265 16.9091 17.3777 16.8182 18.37 16.6534C17.6007 17.5051 16.9835 18.4963 16.5589 19.5831C16.1242 19.6163 15.6811 19.6364 15.2273 19.6364C12.6835 19.6364 10.3853 19.1064 8.78196 18.3047C7.23186 17.5296 6.42657 16.5628 6.37429 15.6413V14.2351ZM25.4545 14.8636C29.9813 14.8636 33.6364 18.5187 33.6364 23.0455C33.6364 27.5723 29.9813 31.2273 25.4545 31.2273C20.9278 31.2273 17.2727 27.5723 17.2727 23.0455C17.2727 18.5187 20.9278 14.8636 25.4545 14.8636ZM26.8288 17.25C24.2289 17.25 22.0236 18.979 21.2891 21.3409H20.3409C20.3196 21.3399 20.2983 21.3399 20.277 21.3409C20.1874 21.3451 20.0996 21.3668 20.0184 21.405C19.9373 21.4431 19.8644 21.4968 19.8041 21.5631C19.7437 21.6294 19.697 21.7069 19.6666 21.7913C19.6362 21.8756 19.6227 21.9651 19.6269 22.0547C19.6311 22.1443 19.6529 22.2321 19.691 22.3132C19.7292 22.3944 19.783 22.4672 19.8493 22.5275C19.9156 22.5879 19.9931 22.6346 20.0775 22.665C20.1618 22.6953 20.2514 22.7088 20.3409 22.7045H21.044C21.0372 22.819 21.0227 22.9293 21.0227 23.0455C21.0227 23.2745 21.0392 23.5051 21.0653 23.7273H20.3409C20.3196 23.7263 20.2983 23.7263 20.277 23.7273C20.1874 23.7314 20.0996 23.7532 20.0184 23.7913C19.9373 23.8295 19.8644 23.8832 19.8041 23.9495C19.7437 24.0158 19.697 24.0933 19.6666 24.1777C19.6362 24.262 19.6227 24.3515 19.6269 24.4411C19.6311 24.5306 19.6529 24.6185 19.691 24.6996C19.7292 24.7807 19.783 24.8536 19.8493 24.9139C19.9156 24.9743 19.9931 25.0209 20.0775 25.0513C20.1618 25.0817 20.2514 25.0951 20.3409 25.0909H21.4062C22.2374 27.2803 24.3526 28.8409 26.8288 28.8409C28.6862 28.8409 29.9671 28.0145 31.0476 26.9339C31.1133 26.8715 31.1659 26.7965 31.2022 26.7135C31.2386 26.6304 31.2581 26.5409 31.2595 26.4503C31.2609 26.3596 31.2442 26.2696 31.2103 26.1855C31.1765 26.1013 31.1262 26.0248 31.0625 25.9603C30.9987 25.8959 30.9228 25.8448 30.839 25.81C30.7553 25.7753 30.6654 25.7576 30.5748 25.758C30.4841 25.7583 30.3944 25.7768 30.311 25.8123C30.2275 25.8477 30.152 25.8995 30.0888 25.9645C29.1238 26.9295 28.3154 27.4773 26.8288 27.4773C25.1086 27.4773 23.6256 26.5123 22.8871 25.0909H27.1591C27.2494 25.0922 27.3391 25.0755 27.423 25.0418C27.5068 25.0081 27.5831 24.9581 27.6475 24.8947C27.7118 24.8312 27.7629 24.7556 27.7978 24.6723C27.8327 24.5889 27.8506 24.4994 27.8506 24.4091C27.8506 24.3187 27.8327 24.2293 27.7978 24.1459C27.7629 24.0626 27.7118 23.987 27.6475 23.9235C27.5831 23.8601 27.5068 23.8101 27.423 23.7764C27.3391 23.7427 27.2494 23.726 27.1591 23.7273H22.4396C22.4055 23.5051 22.3864 23.2775 22.3864 23.0455C22.3864 22.9285 22.3988 22.8192 22.4077 22.7045H27.1591C27.2494 22.7058 27.3391 22.6891 27.423 22.6554C27.5068 22.6217 27.5831 22.5717 27.6475 22.5083C27.7118 22.4449 27.7629 22.3693 27.7978 22.2859C27.8327 22.2025 27.8506 22.1131 27.8506 22.0227C27.8506 21.9324 27.8327 21.8429 27.7978 21.7596C27.7629 21.6762 27.7118 21.6006 27.6475 21.5372C27.5831 21.4737 27.5068 21.4237 27.423 21.39C27.3391 21.3563 27.2494 21.3396 27.1591 21.3409H22.7273C23.3951 19.7375 24.9758 18.6136 26.8288 18.6136C28.3154 18.6136 29.1238 19.1508 30.0888 20.1158C30.152 20.1808 30.2275 20.2325 30.311 20.268C30.3944 20.3034 30.4841 20.3219 30.5748 20.3223C30.6654 20.3227 30.7553 20.305 30.839 20.2702C30.9228 20.2355 30.9987 20.1844 31.0625 20.1199C31.1262 20.0554 31.1765 19.9789 31.2103 19.8948C31.2442 19.8107 31.2609 19.7206 31.2595 19.63C31.2581 19.5393 31.2386 19.4499 31.2022 19.3668C31.1659 19.2838 31.1133 19.2088 31.0476 19.1463C29.9671 18.0658 28.6861 17.25 26.8288 17.25ZM6.36364 18.326C6.86548 18.7876 7.48541 19.1852 8.17472 19.5298C10.0262 20.4556 12.4992 21 15.2273 21C15.5333 21 15.8342 20.9929 16.1328 20.9787C15.985 21.645 15.9091 22.3353 15.9091 23.0455C15.9091 23.2683 15.9153 23.4869 15.9304 23.706C15.6976 23.7156 15.4664 23.7273 15.2273 23.7273C12.6835 23.7273 10.3853 23.1972 8.78196 22.3956C7.17865 21.5939 6.36364 20.5858 6.36364 19.6364V18.326ZM6.36364 22.4169C6.86548 22.8785 7.48541 23.2761 8.17472 23.6207C10.0262 24.5465 12.4992 25.0909 15.2273 25.0909C15.5296 25.0909 15.8271 25.0839 16.1222 25.0696C16.326 26.009 16.6756 26.8971 17.1342 27.7116C16.5186 27.7791 15.8841 27.8182 15.2273 27.8182C12.6835 27.8182 10.3853 27.2882 8.78196 26.4865C7.17865 25.6848 6.36364 24.6767 6.36364 23.7273V22.4169ZM6.36364 26.5078C6.86548 26.9694 7.48541 27.367 8.17472 27.7116C10.0262 28.6374 12.4992 29.1818 15.2273 29.1818C16.1862 29.1818 17.1072 29.1072 17.9865 28.9794C18.6527 29.8166 19.4555 30.5355 20.3622 31.1101C18.9162 31.6016 17.1436 31.9091 15.2273 31.9091C12.6843 31.9091 10.3847 31.379 8.78196 30.5774C7.17918 29.7758 6.36364 28.7677 6.36364 27.8182V26.5078Z" fill="#FD1716"/>
</svg>
