<svg width="50" height="50" viewBox="0 0 50 50" fill="none" xmlns="http://www.w3.org/2000/svg">
<rect width="50" height="50" rx="3" fill="#FF6461"/>
<path d="M25 25L15.5 17.875C15.3448 17.7586 15.2188 17.6076 15.132 17.434C15.0452 17.2604 15 17.0691 15 16.875V11.25C15 10.9185 15.1317 10.6005 15.3661 10.3661C15.6005 10.1317 15.9185 10 16.25 10H33.75C34.0815 10 34.3995 10.1317 34.6339 10.3661C34.8683 10.6005 35 10.9185 35 11.25V16.8187C34.9994 17.0115 34.9542 17.2015 34.868 17.3739C34.7818 17.5463 34.657 17.6964 34.5031 17.8125L25 25Z" stroke="white" stroke-width="2" stroke-linecap="round" stroke-linejoin="round"/>
<path d="M25 25L15.5 32.125C15.3448 32.2414 15.2188 32.3924 15.132 32.566C15.0452 32.7396 15 32.9309 15 33.125V38.75C15 39.0815 15.1317 39.3995 15.3661 39.6339C15.6005 39.8683 15.9185 40 16.25 40H33.75C34.0815 40 34.3995 39.8683 34.6339 39.6339C34.8683 39.3995 35 39.0815 35 38.75V33.1813C34.9999 32.988 34.9549 32.7974 34.8687 32.6244C34.7825 32.4514 34.6574 32.3008 34.5031 32.1844L25 25Z" stroke="white" stroke-width="2" stroke-linecap="round" stroke-linejoin="round"/>
<path d="M25 31.25V25" stroke="white" stroke-width="2" stroke-linecap="round" stroke-linejoin="round"/>
<path d="M16.668 18.75H33.2695" stroke="white" stroke-width="2" stroke-linecap="round" stroke-linejoin="round"/>
</svg>
