<svg width="50" height="50" viewBox="0 0 50 50" fill="none" xmlns="http://www.w3.org/2000/svg">
<rect width="50" height="50" rx="3" fill="#FF6461"/>
<path fill-rule="evenodd" clip-rule="evenodd" d="M11.2191 13.6247C10.927 13.2595 10.927 12.7406 11.2191 12.3753L12.8191 10.3753C13.1641 9.94408 13.7934 9.87416 14.2247 10.2192C14.6559 10.5642 14.7259 11.1935 14.3809 11.6247L14.0806 12H17.3333C17.8856 12 18.3333 12.4477 18.3333 13C18.3333 13.5523 17.8856 14 17.3333 14H14.0806L14.3809 14.3753C14.7259 14.8066 14.6559 15.4359 14.2247 15.7809C13.7934 16.1259 13.1641 16.056 12.8191 15.6247L11.2191 13.6247ZM39.4475 37.6247C39.7397 37.2595 39.7397 36.7406 39.4475 36.3754L37.8475 34.3754C37.5025 33.944 36.8731 33.8742 36.4419 34.2191C36.0106 34.5642 35.9407 35.1934 36.2857 35.6247L36.5859 36H33.3333C32.781 36 32.3333 36.4478 32.3333 37C32.3333 37.5523 32.781 38 33.3333 38H36.5859L36.2857 38.3753C35.9407 38.8065 36.0106 39.4359 36.4419 39.7808C36.8731 40.1259 37.5025 40.0559 37.8475 39.6247L39.4475 37.6247ZM25.3333 15.3334C19.9946 15.3334 15.6667 19.6613 15.6667 25C15.6667 30.3388 19.9946 34.6667 25.3333 34.6667C30.6721 34.6667 34.9999 30.3388 34.9999 25C34.9999 19.6613 30.6721 15.3334 25.3333 15.3334ZM13.6667 25C13.6667 18.5567 18.89 13.3334 25.3333 13.3334C31.7766 13.3334 36.9999 18.5567 36.9999 25C36.9999 31.4434 31.7766 36.6667 25.3333 36.6667C18.89 36.6667 13.6667 31.4434 13.6667 25Z" fill="white"/>
<path fill-rule="evenodd" clip-rule="evenodd" d="M25.3337 16.8271C25.8859 16.8271 26.3336 17.2749 26.3336 17.8271V18.8271H28.0003C28.5526 18.8271 29.0003 19.2749 29.0003 19.8271C29.0003 20.3794 28.5526 20.8271 28.0003 20.8271H25.3337C24.4131 20.8271 23.667 21.5733 23.667 22.4938V24.1604H28.0003C28.5526 24.1604 29.0003 24.6082 29.0003 25.1604V27.8271C29.0003 29.5055 27.8727 30.9204 26.3336 31.3558V32.4938C26.3336 33.046 25.8859 33.4938 25.3337 33.4938C24.7814 33.4938 24.3337 33.046 24.3337 32.4938V31.4938H22.667C22.1147 31.4938 21.667 31.046 21.667 30.4938C21.667 29.9415 22.1147 29.4938 22.667 29.4938H25.3337C26.2542 29.4938 27.0003 28.7476 27.0003 27.8271V26.1604H22.667C22.1147 26.1604 21.667 25.7127 21.667 25.1604V22.4938C21.667 20.8154 22.7946 19.4004 24.3337 18.9652V17.8271C24.3337 17.2749 24.7814 16.8271 25.3337 16.8271Z" fill="white"/>
</svg>
