<svg width="50" height="50" viewBox="0 0 50 50" fill="none" xmlns="http://www.w3.org/2000/svg">
<rect width="50" height="50" rx="3" fill="#FF6461"/>
<path d="M33.75 11H16.25C12.8038 11 10 13.8038 10 17.25V32.25C10 35.6963 12.8038 38.5 16.25 38.5H33.75C37.1963 38.5 40 35.6963 40 32.25V17.25C40 13.8038 37.1963 11 33.75 11ZM37.5 32.25C37.5 34.3175 35.8175 36 33.75 36H16.25C14.1825 36 12.5 34.3175 12.5 32.25V17.25C12.5 15.1825 14.1825 13.5 16.25 13.5H33.75C35.8175 13.5 37.5 15.1825 37.5 17.25V32.25ZM33.75 18.5C33.75 19.19 33.19 19.75 32.5 19.75H23.75C23.06 19.75 22.5 19.19 22.5 18.5C22.5 17.81 23.06 17.25 23.75 17.25H32.5C33.19 17.25 33.75 17.81 33.75 18.5ZM20 18.5C20 19.535 19.16 20.375 18.125 20.375C17.09 20.375 16.25 19.535 16.25 18.5C16.25 17.465 17.09 16.625 18.125 16.625C19.16 16.625 20 17.465 20 18.5ZM33.75 24.75C33.75 25.44 33.19 26 32.5 26H23.75C23.06 26 22.5 25.44 22.5 24.75C22.5 24.06 23.06 23.5 23.75 23.5H32.5C33.19 23.5 33.75 24.06 33.75 24.75ZM20 24.75C20 25.785 19.16 26.625 18.125 26.625C17.09 26.625 16.25 25.785 16.25 24.75C16.25 23.715 17.09 22.875 18.125 22.875C19.16 22.875 20 23.715 20 24.75ZM33.75 31C33.75 31.69 33.19 32.25 32.5 32.25H23.75C23.06 32.25 22.5 31.69 22.5 31C22.5 30.31 23.06 29.75 23.75 29.75H32.5C33.19 29.75 33.75 30.31 33.75 31ZM20 31C20 32.035 19.16 32.875 18.125 32.875C17.09 32.875 16.25 32.035 16.25 31C16.25 29.965 17.09 29.125 18.125 29.125C19.16 29.125 20 29.965 20 31Z" fill="white"/>
</svg>
