<svg width="40" height="40" viewBox="0 0 40 40" fill="none" xmlns="http://www.w3.org/2000/svg">
<path d="M12.6464 19.4272C13.7692 19.4272 14.8668 19.0915 15.8003 18.4627C16.7339 17.8338 17.4615 16.9399 17.8911 15.8941C18.3207 14.8483 18.433 13.6976 18.2138 12.5875C17.9946 11.4773 17.4537 10.4577 16.6596 9.65741C15.8655 8.85717 14.8539 8.31231 13.7526 8.09173C12.6513 7.87115 11.5099 7.98476 10.4726 8.4182C9.4354 8.85164 8.54897 9.58544 7.92546 10.5268C7.30195 11.4681 6.96936 12.5747 6.96975 13.7066C6.97196 15.2235 7.5708 16.6776 8.63496 17.75C9.69911 18.8224 11.1417 19.4255 12.6464 19.4272ZM12.6464 8.78727C13.6112 8.78727 14.5543 9.07569 15.3565 9.61605C16.1587 10.1564 16.784 10.9245 17.1532 11.823C17.5224 12.7216 17.619 13.7104 17.4308 14.6643C17.2426 15.6183 16.778 16.4945 16.0958 17.1823C15.4135 17.87 14.5443 18.3384 13.5981 18.5281C12.6518 18.7179 11.6709 18.6205 10.7796 18.2483C9.88821 17.8761 9.12634 17.2458 8.59032 16.4371C8.0543 15.6284 7.7682 14.6776 7.7682 13.705C7.76962 12.4011 8.28402 11.1511 9.19855 10.2292C10.1131 9.30727 11.353 8.7887 12.6464 8.78727ZM12.6464 21.4119C14.4223 21.4096 16.1422 20.785 17.5116 19.6452C18.8811 18.5054 19.815 16.9212 20.1535 15.1637H28.0446V17.4183C28.0452 17.4963 28.0682 17.5725 28.1109 17.6376C28.1535 17.7028 28.2139 17.754 28.2849 17.7853C28.3558 17.8165 28.4342 17.8263 28.5106 17.8136C28.587 17.8008 28.658 17.766 28.7152 17.7134L34.4048 12.3997C34.445 12.3619 34.477 12.3162 34.4988 12.2654C34.5207 12.2146 34.532 12.1599 34.532 12.1045C34.532 12.0492 34.5207 11.9944 34.4988 11.9437C34.477 11.8929 34.445 11.8472 34.4048 11.8094L28.7145 6.49567C28.6573 6.44328 28.5863 6.40868 28.5101 6.39605C28.4338 6.38342 28.3556 6.3933 28.2848 6.42449C28.2139 6.45569 28.1536 6.50687 28.111 6.57186C28.0684 6.63685 28.0453 6.71289 28.0446 6.79079V9.04537H18.7316C17.9446 8.00079 16.9062 7.176 15.7147 6.64909C14.5232 6.12218 13.2179 5.91061 11.9226 6.0344C10.6273 6.15819 9.38477 6.61324 8.31268 7.35648C7.24059 8.09971 6.37443 9.10652 5.79623 10.2816C5.21803 11.4566 4.94693 12.761 5.00859 14.0712C5.07025 15.3814 5.46265 16.654 6.14861 17.7686C6.83457 18.8832 7.79139 19.8028 8.92847 20.4403C10.0655 21.0779 11.3452 21.4123 12.6464 21.4119ZM28.4432 9.85029C28.4958 9.85029 28.5478 9.83985 28.5964 9.81955C28.645 9.79926 28.6892 9.76952 28.7264 9.73202C28.7636 9.69452 28.7931 9.65001 28.8132 9.60102C28.8334 9.55202 28.8437 9.49951 28.8437 9.44649V7.71281L33.546 12.1045L28.8424 16.4956V14.7612C28.8424 14.6541 28.8002 14.5514 28.7251 14.4757C28.6499 14.4 28.5481 14.3574 28.4418 14.3574H20.2637C20.2817 14.1417 20.2914 13.9237 20.2914 13.7036C20.2933 12.3504 19.9393 11.0208 19.2656 9.85029H28.4432ZM12.6464 6.80425C14.0006 6.80425 15.3245 7.20911 16.4505 7.96763C17.5765 8.72615 18.4541 9.80425 18.9723 11.0656C19.4904 12.3269 19.6259 13.7149 19.3616 15.0538C19.0973 16.3928 18.445 17.6227 17.4873 18.588C16.5296 19.5532 15.3094 20.2105 13.9811 20.4766C12.6528 20.7427 11.2761 20.6058 10.025 20.0831C8.77393 19.5604 7.7047 18.6755 6.95255 17.5402C6.2004 16.4049 5.79912 15.0702 5.79945 13.705C5.80192 11.8752 6.52414 10.1212 7.8077 8.82758C9.09126 7.53394 10.8314 6.8063 12.6464 6.80425ZM27.3536 21.5728C26.2308 21.5728 25.1332 21.9085 24.1997 22.5374C23.2661 23.1662 22.5385 24.0601 22.1089 25.1059C21.6793 26.1517 21.567 27.3024 21.7862 28.4125C22.0054 29.5227 22.5463 30.5423 23.3404 31.3426C24.1345 32.1428 25.1461 32.6877 26.2474 32.9083C27.3487 33.1289 28.4901 33.0152 29.5274 32.5818C30.5646 32.1484 31.451 31.4146 32.0745 30.4732C32.698 29.5319 33.0306 28.4253 33.0302 27.2934C33.028 25.7765 32.4292 24.3224 31.365 23.25C30.3009 22.1777 28.8583 21.5745 27.3536 21.5728ZM27.3536 32.2127C26.3888 32.2127 25.4457 31.9243 24.6435 31.3839C23.8413 30.8436 23.216 30.0756 22.8468 29.177C22.4776 28.2784 22.381 27.2896 22.5692 26.3357C22.7574 25.3817 23.222 24.5055 23.9042 23.8177C24.5865 23.13 25.4557 22.6616 26.4019 22.4719C27.3482 22.2821 28.3291 22.3795 29.2204 22.7517C30.1118 23.1239 30.8737 23.7542 31.4097 24.5629C31.9457 25.3716 32.2318 26.3224 32.2318 27.295C32.2304 28.5989 31.716 29.8489 30.8015 30.7708C29.8869 31.6927 28.647 32.2113 27.3536 32.2127ZM27.3536 19.5881C25.5777 19.5904 23.8578 20.215 22.4884 21.3548C21.1189 22.4946 20.185 24.0788 19.8465 25.8363H11.9554V23.5817C11.9548 23.5037 11.9318 23.4275 11.8891 23.3624C11.8465 23.2972 11.7861 23.246 11.7151 23.2148C11.6442 23.1835 11.5658 23.1737 11.4894 23.1865C11.413 23.1992 11.342 23.234 11.2848 23.2866L5.59516 28.6003C5.55504 28.6381 5.52304 28.6838 5.50117 28.7346C5.47929 28.7854 5.46801 28.8401 5.46801 28.8955C5.46801 28.9508 5.47929 29.0056 5.50117 29.0563C5.52304 29.1071 5.55504 29.1528 5.59516 29.1906L11.2855 34.5043C11.3427 34.5567 11.4137 34.5913 11.4899 34.604C11.5662 34.6166 11.6444 34.6067 11.7152 34.5755C11.7861 34.5443 11.8464 34.4931 11.889 34.4281C11.9316 34.3631 11.9547 34.2871 11.9554 34.2092V31.9546H21.2684C22.0554 32.9992 23.0938 33.824 24.2853 34.3509C25.4768 34.8778 26.7821 35.0894 28.0774 34.9656C29.3727 34.8418 30.6152 34.3868 31.6873 33.6435C32.7594 32.9003 33.6256 31.8935 34.2038 30.7184C34.782 29.5434 35.0531 28.239 34.9914 26.9288C34.9297 25.6186 34.5374 24.346 33.8514 23.2314C33.1654 22.1168 32.2086 21.1972 31.0715 20.5597C29.9345 19.9221 28.6548 19.5877 27.3536 19.5881ZM11.5568 31.1497C11.4506 31.1497 11.3487 31.1923 11.2736 31.268C11.1985 31.3437 11.1563 31.4464 11.1563 31.5535V33.2872L6.45403 28.8955L11.1576 24.5044V26.2398C11.1576 26.2928 11.168 26.3453 11.1881 26.3943C11.2082 26.4433 11.2377 26.4878 11.2749 26.5253C11.3121 26.5628 11.3563 26.5925 11.4049 26.6128C11.4535 26.6331 11.5056 26.6436 11.5582 26.6436H19.7363C19.7183 26.8596 19.7086 27.0777 19.7086 27.2977C19.707 28.6505 20.0609 29.9796 20.7344 31.1497H11.5568ZM27.3536 34.1974C25.9994 34.1974 24.6757 33.7926 23.5497 33.0342C22.4237 32.2757 21.5461 31.1977 21.0279 29.9365C20.5097 28.6752 20.3741 27.2874 20.6383 25.9485C20.9025 24.6095 21.5546 23.3796 22.5121 22.4143C23.4697 21.449 24.6897 20.7916 26.0179 20.5253C27.346 20.259 28.7227 20.3956 29.9738 20.9181C31.2249 21.4405 32.2943 22.3252 33.0466 23.4603C33.799 24.5954 34.2006 25.9299 34.2006 27.295C34.1985 29.125 33.4765 30.8795 32.1929 32.1735C30.9093 33.4675 29.1689 34.1954 27.3536 34.1974ZM26.413 25.9447C26.413 26.6405 27.1086 26.8424 27.4144 26.8976C28.4024 27.0359 29.0917 27.754 29.0917 28.6458C29.0912 29.0406 28.9587 29.4238 28.7156 29.7333C28.4725 30.0429 28.133 30.2608 27.7519 30.3519V30.6884C27.7436 30.7894 27.698 30.8837 27.6241 30.9524C27.5501 31.0211 27.4532 31.0592 27.3526 31.0592C27.2521 31.0592 27.1552 31.0211 27.0812 30.9524C27.0072 30.8837 26.9616 30.7894 26.9534 30.6884V30.3519C26.5723 30.2608 26.2327 30.0429 25.9896 29.7333C25.7465 29.4238 25.614 29.0406 25.6135 28.6458C25.6217 28.5447 25.6673 28.4505 25.7413 28.3818C25.8153 28.3131 25.9122 28.2749 26.0128 28.2749C26.1133 28.2749 26.2102 28.3131 26.2842 28.3818C26.3582 28.4505 26.4038 28.5447 26.412 28.6458C26.4124 28.8858 26.503 29.1167 26.6655 29.2921C26.828 29.4674 27.0504 29.5743 27.2879 29.591C27.3308 29.5829 27.3748 29.5829 27.4177 29.591C27.6552 29.5743 27.8775 29.4674 28.04 29.292C28.2024 29.1167 28.2929 28.8857 28.2933 28.6458C28.2933 28.0821 27.7926 27.7618 27.2992 27.6941L27.2842 27.6918C26.2538 27.5107 25.6135 26.8414 25.6135 25.9447C25.614 25.5498 25.7465 25.1667 25.9896 24.8571C26.2327 24.5475 26.5723 24.3296 26.9534 24.2386V23.9021C26.9616 23.801 27.0072 23.7068 27.0812 23.6381C27.1552 23.5693 27.2521 23.5312 27.3526 23.5312C27.4532 23.5312 27.5501 23.5693 27.6241 23.6381C27.698 23.7068 27.7436 23.801 27.7519 23.9021V24.2386C28.133 24.3296 28.4725 24.5475 28.7156 24.8571C28.9587 25.1667 29.0912 25.5498 29.0917 25.9447C29.0835 26.0457 29.0379 26.14 28.9639 26.2087C28.89 26.2774 28.7931 26.3155 28.6925 26.3155C28.5919 26.3155 28.495 26.2774 28.4211 26.2087C28.3471 26.14 28.3015 26.0457 28.2933 25.9447C28.2929 25.7047 28.2024 25.4738 28.04 25.2984C27.8775 25.123 27.6552 25.0162 27.4177 24.9994C27.3962 25.0033 27.3745 25.0053 27.3526 25.0055C27.3309 25.0053 27.3092 25.0033 27.2879 24.9994C27.0505 25.0163 26.8284 25.1232 26.6661 25.2986C26.5037 25.474 26.4133 25.7048 26.413 25.9447ZM9.72294 13.6747C9.72348 13.0635 9.90745 12.4667 10.2507 11.9629C10.5939 11.4591 11.0803 11.0717 11.646 10.8517L11.6299 10.0683C11.6363 9.96733 11.6801 9.87242 11.7526 9.80241C11.8252 9.7324 11.9211 9.6924 12.0215 9.69033C12.1219 9.68825 12.2194 9.72426 12.2947 9.79121C12.37 9.85817 12.4176 9.95119 12.4281 10.0519L12.4404 10.6646C12.5339 10.6559 12.6283 10.6508 12.7238 10.6508C12.8193 10.6508 12.9151 10.6552 13.0099 10.6643L12.9975 10.0683C13.0034 9.96695 13.047 9.87151 13.1196 9.80107C13.1922 9.73063 13.2885 9.69035 13.3892 9.68827C13.4899 9.68619 13.5877 9.72246 13.6631 9.78984C13.7385 9.85723 13.786 9.95079 13.796 10.0519L13.8123 10.8561C14.1786 10.9998 14.5132 11.2147 14.797 11.4887C14.8403 11.5238 14.8758 11.5675 14.9013 11.6171C14.9269 11.6668 14.942 11.7212 14.9456 11.777C14.9492 11.8328 14.9413 11.8887 14.9224 11.9413C14.9034 11.9938 14.8738 12.0418 14.8355 12.0823C14.7972 12.1227 14.751 12.1547 14.6998 12.1761C14.6485 12.1976 14.5935 12.2081 14.538 12.207C14.4826 12.2059 14.4279 12.1932 14.3776 12.1697C14.3273 12.1462 14.2823 12.1125 14.2456 12.0706C13.9768 11.8113 13.6472 11.6249 13.2875 11.5288C12.9279 11.4326 12.55 11.4298 12.1891 11.5207C12.1682 11.5284 12.1468 11.5343 12.125 11.5382C11.8028 11.6298 11.5057 11.7941 11.2559 12.0188C11.0062 12.2434 10.8106 12.5225 10.6838 12.8347C10.5571 13.147 10.5026 13.4843 10.5245 13.8209C10.5463 14.1576 10.644 14.4848 10.8101 14.7778C10.9761 15.0707 11.2062 15.3216 11.4829 15.5115C11.7595 15.7014 12.0754 15.8253 12.4067 15.8737C12.7379 15.9222 13.0757 15.8939 13.3944 15.791C13.7132 15.6882 14.0045 15.5134 14.2463 15.2801C14.2831 15.2385 14.328 15.2049 14.3783 15.1816C14.4286 15.1583 14.4831 15.1458 14.5385 15.1448C14.5938 15.1438 14.6487 15.1544 14.6998 15.1759C14.7509 15.1974 14.797 15.2293 14.8352 15.2697C14.8734 15.31 14.903 15.3579 14.9219 15.4104C14.9408 15.4628 14.9488 15.5186 14.9453 15.5743C14.9417 15.63 14.9268 15.6843 14.9014 15.7339C14.876 15.7834 14.8407 15.8272 14.7977 15.8623C14.5107 16.139 14.172 16.3554 13.8013 16.499L13.8187 17.3429C13.8205 17.4496 13.7803 17.5526 13.707 17.6295C13.6337 17.7064 13.5332 17.751 13.4275 17.7534H13.4191C13.3145 17.7535 13.214 17.7122 13.1391 17.6385C13.0643 17.5648 13.021 17.4645 13.0186 17.3591L13.0049 16.6861C12.9117 16.6948 12.8176 16.6995 12.7228 16.6995C12.628 16.6995 12.5302 16.6945 12.4357 16.6854L12.4491 17.3422C12.4509 17.4488 12.4108 17.5518 12.3376 17.6287C12.2643 17.7056 12.1639 17.7502 12.0582 17.7528H12.0499C11.9452 17.7528 11.8447 17.7116 11.7699 17.6379C11.695 17.5642 11.6517 17.4638 11.6493 17.3584L11.6316 16.4919C11.0695 16.27 10.5867 15.8826 10.2461 15.3801C9.90563 14.8775 9.72352 14.2832 9.72294 13.6747Z" fill="#FD1716"/>
</svg>
