<svg width="40" height="40" viewBox="0 0 40 40" fill="none" xmlns="http://www.w3.org/2000/svg">
<path d="M34.5168 19.7279H27.3803C27.1165 19.7279 26.9022 19.9369 26.8962 20.1987C26.842 22.6204 25.516 24.8342 23.405 26.0295C21.2938 27.2247 18.7071 27.2247 16.5959 26.0295C14.4848 24.8343 13.159 22.6204 13.1047 20.1987C13.0987 19.9369 12.8844 19.7279 12.6206 19.7279H5.48412C5.21677 19.7279 5 19.9441 5 20.2107V22.075V22.0738C5 22.2973 5.15294 22.4919 5.37212 22.5435L7.87824 23.1381C8.12874 24.17 8.51411 25.1633 9.02595 26.0931L7.6374 28.3442C7.52058 28.534 7.54828 28.779 7.70605 28.9376L10.8347 32.0582C10.9936 32.2156 11.2405 32.2444 11.4308 32.1267L13.6142 30.7861C14.5246 31.3135 15.5001 31.7195 16.5165 31.9958L17.1452 34.63V34.6288C17.1969 34.8463 17.392 35 17.616 35H22.0407C22.2647 35 22.4598 34.8462 22.5116 34.6288L23.1559 31.9297C24.0735 31.6606 24.9563 31.2846 25.786 30.809L28.3271 32.3694C28.5174 32.4871 28.7642 32.4582 28.922 32.3009L32.0506 29.1812V29.18C32.2084 29.0214 32.2373 28.7764 32.1193 28.5854L30.4923 25.9487V25.9499C30.8825 25.216 31.1956 24.4436 31.4268 23.646L34.6291 22.8856H34.6279C34.8459 22.8339 35 22.6405 35 22.4171V20.2105C35 19.9438 34.7844 19.7276 34.5171 19.7276L34.5168 19.7279ZM34.0326 22.0354L30.9244 22.7729H30.9256C30.751 22.815 30.6137 22.9483 30.5691 23.1213C30.3283 24.0318 29.973 24.9087 29.5118 25.7303C29.4263 25.8829 29.4299 26.0691 29.5214 26.2192L31.0954 28.7694L28.5086 31.3496L26.0446 29.8349C25.8893 29.7412 25.6942 29.7412 25.5388 29.8349C24.6332 30.3851 23.6517 30.8043 22.6269 31.0782C22.4558 31.1238 22.3222 31.2595 22.2812 31.4325L21.6586 34.0368H17.9988L17.3918 31.4926C17.3497 31.316 17.2124 31.1779 17.0366 31.1346C15.9166 30.8607 14.8472 30.4139 13.8645 29.8121C13.7091 29.7172 13.5128 29.7172 13.3575 29.8121L11.25 31.1058L8.66199 28.5256L9.99754 26.3598V26.3586C10.0915 26.2072 10.0939 26.0174 10.0048 25.8636C9.42069 24.8594 8.99918 23.7711 8.7535 22.636C8.71496 22.4546 8.57406 22.3117 8.39221 22.2684L5.96676 21.693V20.6924H12.1617C12.3833 23.3315 13.9236 25.68 16.2587 26.9398C18.5938 28.1987 21.407 28.1987 23.742 26.9398C26.0771 25.6798 27.6173 23.3315 27.839 20.6924H34.0339L34.0326 22.0354ZM20.2785 20.3381C22.2391 20.3357 24.0888 19.4251 25.2822 17.872C26.4745 16.3188 26.8755 14.3009 26.3673 12.4112C25.8579 10.5217 24.497 8.97567 22.6846 8.22842C20.8722 7.48006 18.814 7.61579 17.1162 8.59479C15.4181 9.57378 14.2728 11.2843 14.0175 13.2244C13.7621 15.1644 14.4257 17.1129 15.813 18.4954C16.9968 19.6775 18.6035 20.3405 20.2785 20.3381ZM16.4969 10.2708C17.6723 9.09837 19.3282 8.5386 20.9756 8.75482C22.6243 8.97224 24.0777 9.94043 24.9089 11.3771C25.7386 12.8125 25.853 14.5518 25.2172 16.0848C24.5801 17.6163 23.2662 18.7659 21.6609 19.1946C20.0544 19.6235 18.3406 19.2823 17.022 18.2733C15.7034 17.2643 14.9301 15.7003 14.9301 14.0425C14.9265 12.6263 15.4914 11.2691 16.4969 10.2708ZM17.8614 15.5572C17.8012 15.2977 17.9638 15.0383 18.2251 14.9782C18.4852 14.9194 18.7454 15.0815 18.8044 15.341C19.0067 16.2191 19.9232 16.505 20.7433 16.3981C21.1479 16.3752 21.5092 16.1386 21.6923 15.777C21.7874 15.52 21.7284 15.2317 21.5405 15.0323C21.219 14.6467 20.8649 14.5938 20.376 14.5193V14.5205C20.0556 14.4821 19.7401 14.41 19.4354 14.3067L19.4198 14.3007C18.6033 13.9716 18.1228 13.3338 18.1336 12.5962C18.1709 11.8094 18.69 11.1259 19.4414 10.8797C19.5691 10.8316 19.7004 10.7944 19.834 10.7667V10.1469C19.8413 9.88505 20.0556 9.67725 20.3182 9.67725C20.5807 9.67725 20.7951 9.88506 20.8023 10.1469V10.7547C21.6609 10.9337 22.3618 11.5499 22.6461 12.3788C22.6954 12.4989 22.6942 12.6346 22.6424 12.7536C22.5895 12.8737 22.4919 12.9674 22.3691 13.013C22.2474 13.0587 22.1113 13.0539 21.9933 12.9986C21.8741 12.9434 21.7838 12.8437 21.7404 12.7199C21.6236 12.3235 21.3418 11.9944 20.9685 11.8166C20.5939 11.6376 20.1604 11.6268 19.7774 11.7842C19.4053 11.8983 19.1379 12.2238 19.1006 12.6106C19.0958 12.9422 19.3354 13.2233 19.775 13.4034H19.7762C20.0171 13.4827 20.2663 13.5368 20.5193 13.5656C21.1997 13.5968 21.8368 13.9031 22.2848 14.4148C22.6978 14.8857 22.8159 15.5452 22.5931 16.129C22.2884 16.8233 21.6248 17.2942 20.8673 17.3554L20.8011 17.3626V17.9416C20.8047 18.0714 20.7553 18.1975 20.6638 18.2912C20.5735 18.3837 20.4482 18.4365 20.3182 18.4365C20.1869 18.4365 20.0616 18.3837 19.9713 18.2912C19.8798 18.1975 19.8304 18.0713 19.834 17.9416V17.329C18.8706 17.2053 18.0854 16.499 17.8614 15.5572ZM20.2784 22.0365C22.404 22.0365 24.4429 21.1944 25.9459 19.6953C27.4488 18.195 28.293 16.1626 28.293 14.0411C28.293 11.9209 27.4488 9.8872 25.9459 8.38808C24.4465 6.86854 22.4017 6.00846 20.2639 6.00006C18.1275 5.99165 16.0754 6.8349 14.5641 8.34244C13.0527 9.84996 12.2073 11.897 12.2169 14.0277C12.2254 16.1599 13.0864 18.1994 14.6111 19.6952C16.1104 21.1991 18.1515 22.0425 20.2784 22.0365ZM15.2951 9.07054C17.075 7.29515 19.6702 6.60085 22.1029 7.25188C24.5356 7.90175 26.4361 9.79605 27.0875 12.2225C27.739 14.649 27.0442 17.2377 25.263 19.0142C23.4819 20.7896 20.8867 21.4839 18.4539 20.8341C16.0225 20.183 14.122 18.2887 13.4706 15.8622C12.8191 13.4358 13.5139 10.847 15.2951 9.07054ZM8.44379 16.0363C8.55699 16.2141 8.75449 16.3222 8.96644 16.3222C9.1784 16.3222 9.3759 16.2141 9.4891 16.0363L11.3521 13.0753H11.3534C11.4762 12.8819 11.4762 12.6356 11.3534 12.4423C11.2401 12.2633 11.0427 12.1552 10.8295 12.1564H10.4092V7.11839C10.408 6.85293 10.1912 6.63671 9.92507 6.63671H8.00662C7.87776 6.63671 7.75492 6.68716 7.66339 6.77725C7.57307 6.86854 7.52128 6.99107 7.52128 7.1184V12.1564H7.10218C6.89023 12.1552 6.69153 12.2633 6.57832 12.4423C6.45669 12.6357 6.45669 12.8819 6.57832 13.0753L8.44379 16.0363ZM8.00542 13.1221C8.13428 13.1221 8.25711 13.0705 8.34865 12.9804C8.43897 12.8903 8.49075 12.7666 8.49075 12.6392V7.60127H9.44213V12.6392C9.44213 12.9059 9.6589 13.1221 9.92625 13.1221H10.1816L8.96643 15.0525L7.7513 13.1221L8.00542 13.1221ZM30.8775 16.2308C30.9907 16.4086 31.1882 16.5167 31.4001 16.5167C31.6121 16.5167 31.8096 16.4086 31.9228 16.2308L33.7858 13.2698C33.9087 13.0764 33.9087 12.8301 33.7858 12.6367C33.6738 12.4577 33.4751 12.3496 33.2632 12.3508H32.8441V7.31533C32.8441 7.18679 32.7923 7.06427 32.702 6.97417C32.6116 6.88288 32.4876 6.83243 32.3599 6.83243H30.4415C30.3126 6.83243 30.1898 6.88288 30.0995 6.97417C30.0079 7.06426 29.9573 7.18679 29.9573 7.31533V12.3521H29.5358C29.3239 12.3509 29.1264 12.459 29.0132 12.638C28.8903 12.8314 28.8903 13.0776 29.0132 13.271L30.8775 16.2308ZM30.4403 13.3154C30.7064 13.3154 30.922 13.1016 30.9244 12.8361V7.79815H31.8758V12.8361C31.8758 13.1028 32.0926 13.319 32.3599 13.319H32.6152L31.4001 15.2493L30.185 13.319L30.4403 13.3154Z" fill="#FD1716"/>
</svg>
