<svg width="32" height="32" viewBox="0 0 32 32" fill="none" xmlns="http://www.w3.org/2000/svg">
<path fill-rule="evenodd" clip-rule="evenodd" d="M16 29.3333C23.3638 29.3333 29.3333 23.3638 29.3333 16C29.3333 8.63617 23.3638 2.66667 16 2.66667C8.63617 2.66667 2.66667 8.63617 2.66667 16C2.66667 23.3638 8.63617 29.3333 16 29.3333ZM16 31C24.2843 31 31 24.2843 31 16C31 7.71575 24.2843 1 16 1C7.71575 1 1 7.71575 1 16C1 24.2843 7.71575 31 16 31Z" fill="black" stroke="black" stroke-width="0.5"/>
<path fill-rule="evenodd" clip-rule="evenodd" d="M9.91433 19.3327C11.2102 22.5259 13.5971 24.3327 16.0019 24.3327C18.4067 24.3327 20.7936 22.5259 22.0895 19.3327H9.91433ZM16.0019 25.9993C12.6368 25.9993 9.72008 23.4594 8.28683 19.7493C8.27308 19.7137 8.25941 19.6779 8.24591 19.6421C7.87233 18.6493 8.66841 17.666 9.72916 17.666H22.2747C23.3354 17.666 24.1315 18.6493 23.7579 19.6421C23.7444 19.6779 23.7307 19.7137 23.717 19.7493C22.2837 23.4594 19.367 25.9993 16.0019 25.9993Z" fill="#FF4A48"/>
<path d="M13.7512 14.702C13.8595 14.404 13.8271 14.0398 13.7373 13.7077C13.6437 13.3614 13.4714 12.9882 13.2287 12.6416C12.7448 11.9506 11.9424 11.3154 10.8584 11.2698C9.73607 11.2227 8.89741 11.935 8.38074 12.691C8.11866 13.0745 7.92382 13.4895 7.80166 13.8712C7.68274 14.2425 7.61966 14.6227 7.66124 14.9265C7.68049 15.0675 7.77041 15.189 7.89957 15.2485C8.02882 15.308 8.17949 15.2975 8.29916 15.2207C8.63199 15.007 8.98174 14.7146 9.30491 14.4445C9.45207 14.3214 9.59382 14.203 9.72582 14.0987C10.1944 13.7286 10.559 13.5177 10.8613 13.503C11.1485 13.4889 11.4804 13.6535 11.8985 13.9663C12.048 14.0782 12.1931 14.1965 12.3433 14.3192C12.3969 14.3629 12.4511 14.4071 12.5063 14.4517C12.7095 14.6158 12.9258 14.7844 13.1439 14.9162C13.2506 14.9808 13.3806 14.9941 13.4982 14.9527C13.6157 14.9112 13.7086 14.8192 13.7512 14.702ZM18.1769 14.702C18.0686 14.404 18.101 14.0398 18.1907 13.7077C18.2843 13.3614 18.4567 12.9882 18.6994 12.6416C19.1832 11.9506 19.9857 11.3154 21.0697 11.2698C22.192 11.2227 23.0307 11.935 23.5473 12.691C23.8095 13.0745 24.0042 13.4895 24.1265 13.8712C24.2454 14.2425 24.3084 14.6227 24.2668 14.9265C24.2476 15.0675 24.1577 15.189 24.0285 15.2485C23.8993 15.308 23.7487 15.2975 23.6289 15.2207C23.2962 15.007 22.9463 14.7146 22.6232 14.4445C22.476 14.3214 22.3342 14.203 22.2022 14.0987C21.7337 13.7286 21.3691 13.5177 21.0667 13.503C20.7797 13.4889 20.4477 13.6535 20.0297 13.9663C19.8802 14.0782 19.7351 14.1965 19.5847 14.3192C19.5312 14.3629 19.477 14.4071 19.4217 14.4517C19.2186 14.6158 19.0022 14.7844 18.7842 14.9162C18.6775 14.9808 18.5476 14.9941 18.43 14.9527C18.3124 14.9112 18.2196 14.8192 18.1769 14.702Z" fill="#FF4A48"/>
</svg>
