<svg width="30" height="28" viewBox="0 0 30 28" fill="none" xmlns="http://www.w3.org/2000/svg">
<path d="M20.5803 28.1217C19.4645 28.1217 18.5568 27.2166 18.5568 26.1042V21.9636H9.26087C9.03381 21.9636 8.84911 21.7794 8.84911 21.5531C8.84911 21.3268 9.03381 21.1426 9.26087 21.1426H18.5568V17.565H17.6156V17.955C17.6156 18.9527 16.8015 19.7643 15.8009 19.7643H14.195C13.1943 19.7643 12.3803 18.9527 12.3803 17.955V17.565H0.850873V19.6177C0.850873 20.4585 1.53699 21.1426 2.38029 21.1426H5.73499C5.96205 21.1426 6.14676 21.3268 6.14676 21.5531C6.14676 21.7794 5.96205 21.9636 5.73499 21.9636H2.38029C1.08287 21.9636 0.0273438 20.9112 0.0273438 19.6177V17.1545C0.0273438 16.9282 0.21205 16.744 0.439108 16.744H1.35087V2.78868C1.35087 1.26712 2.5924 0.0292969 4.11852 0.0292969H25.8773C27.4034 0.0292969 28.645 1.26712 28.645 2.78868V10.7108L28.6639 10.718C29.4442 11.0148 29.9685 11.7725 29.9685 12.6035V26.1042C29.9685 27.2167 29.0608 28.1217 27.945 28.1217H20.5803ZM19.3803 26.1042C19.3803 26.7639 19.9186 27.3006 20.5803 27.3006H27.945C28.6067 27.3006 29.145 26.7639 29.145 26.1042V25.0426H19.3803V26.1042ZM20.5803 11.407C19.9186 11.407 19.3803 11.9437 19.3803 12.6034V24.2216H29.145V12.6034C29.145 12.0726 28.7867 11.5998 28.2738 11.4537L28.2687 11.4523L28.2635 11.4527C28.2526 11.4534 28.242 11.4539 28.2314 11.4539C28.1707 11.4539 28.114 11.4411 28.0582 11.4149L28.0534 11.4126L28.0482 11.4122C27.9953 11.4076 27.9835 11.4066 27.8513 11.4066L27.6893 11.4068C27.5582 11.4071 27.3678 11.4074 27.085 11.4074C26.9152 11.4074 26.4391 11.4069 26.4391 11.4069V11.5047C26.4391 12.421 25.6915 13.1664 24.7725 13.1664H23.7528C22.8338 13.1664 22.0862 12.421 22.0862 11.5047V11.407H20.5803ZM13.2038 17.955C13.2038 18.4999 13.6485 18.9433 14.195 18.9433H15.8009C16.3475 18.9433 16.7921 18.4999 16.7921 17.955V17.565H13.2039V17.955H13.2038ZM4.38028 16.744H18.5568V12.6034C18.5568 11.491 19.4645 10.5859 20.5803 10.5859H25.6156V3.04967H24.2626C24.0356 3.04967 23.8509 2.86551 23.8509 2.63913C23.8509 2.41275 24.0356 2.22859 24.2626 2.22859H25.7126C26.1132 2.22859 26.4391 2.5535 26.4391 2.9529V10.5859H27.8215V2.78868C27.8215 1.71988 26.9493 0.850368 25.8773 0.850368H4.11852C3.04652 0.850368 2.1744 1.71988 2.1744 2.78868V16.744H3.55676V2.9529C3.55676 2.5535 3.88264 2.22859 4.28323 2.22859H20.7332C20.9602 2.22859 21.145 2.41275 21.145 2.63913C21.145 2.86551 20.9602 3.04967 20.7332 3.04967H4.38028V16.744ZM22.9097 11.5048C22.9097 11.9683 23.2879 12.3454 23.7528 12.3454H24.7725C25.2373 12.3454 25.6156 11.9683 25.6156 11.5048V11.407H22.9097V11.5048Z" fill="#FD1716"/>
<path d="M25.8794 0.0586479C27.3893 0.0586479 28.6176 1.28333 28.6176 2.78871V10.6906V10.731L28.6555 10.7454C29.4245 11.0379 29.9412 11.7846 29.9412 12.6034V26.1042C29.9412 27.2005 29.0466 28.0924 27.9471 28.0924H20.5824C19.4828 28.0924 18.5882 27.2004 18.5882 26.1042V21.993V21.9343H18.5294H9.26294C9.05212 21.9343 8.88059 21.7633 8.88059 21.5531C8.88059 21.3429 9.05212 21.1719 9.26294 21.1719H18.5294H18.5882V21.1133V17.5944V17.5357H18.5294H17.6471H17.5882V17.5944V17.9551C17.5882 18.9365 16.7874 19.735 15.8029 19.735H14.1971C13.2126 19.735 12.4118 18.9365 12.4118 17.9551V17.5944V17.5357H12.3529H0.882353H0.823529V17.5944V19.6177C0.823529 20.4747 1.52282 21.1719 2.38235 21.1719H5.73706C5.94788 21.1719 6.11941 21.3429 6.11941 21.5531C6.11941 21.7633 5.94788 21.9343 5.73706 21.9343H2.38235C1.10118 21.9343 0.0588235 20.8951 0.0588235 19.6177V17.1545C0.0588235 16.9443 0.230353 16.7733 0.441176 16.7733H1.32353H1.38235V16.7147V2.78871C1.38235 1.28333 2.61071 0.0586479 4.12059 0.0586479H25.8794ZM2.14706 16.7733H2.20588H3.52941H3.58824V16.7147V2.95292C3.58824 2.56972 3.90094 2.25795 4.28529 2.25795H20.7353C20.9461 2.25795 21.1176 2.42896 21.1176 2.63916C21.1176 2.84935 20.9461 3.02037 20.7353 3.02037H4.41176H4.35294V3.07902V16.7147V16.7733H4.41176H18.5294H18.5882V16.7147V12.6034C18.5882 11.5071 19.4828 10.6153 20.5824 10.6153H25.5882H25.6471V10.5566V3.07902V3.02037H25.5882H24.2647C24.0539 3.02037 23.8824 2.84935 23.8824 2.63916C23.8824 2.42896 24.0539 2.25795 24.2647 2.25795H25.7147C26.0991 2.25795 26.4118 2.56972 26.4118 2.95292V10.5566V10.6153H26.4706H27.7941H27.8529V10.5566V2.78871C27.8529 1.70372 26.9676 0.821071 25.8794 0.821071H4.12059C3.03235 0.821071 2.14706 1.70372 2.14706 2.78871V16.7147V16.7733ZM27.0871 11.3782C26.9173 11.3782 26.7141 11.3781 26.4707 11.3777L26.4118 11.3776V11.4363V11.5048C26.4118 12.4049 25.6773 13.1371 24.7745 13.1371H23.7549C22.8521 13.1371 22.1176 12.4049 22.1176 11.5048V11.4363V11.3777H22.0588H20.5824C19.9044 11.3777 19.3529 11.9276 19.3529 12.6034V24.1923V24.2509H19.4118H29.1176H29.1765V24.1923V12.6034C29.1765 12.0596 28.8094 11.5752 28.2839 11.4256L28.2739 11.4227L28.2635 11.4234C28.2534 11.4241 28.2434 11.4246 28.2336 11.4246C28.1772 11.4246 28.1246 11.4127 28.0728 11.3884L28.0604 11.3836L28.0498 11.3827C27.9989 11.3784 27.9868 11.3773 27.8536 11.3773C27.8128 11.3773 27.7604 11.3775 27.6915 11.3776C27.5605 11.3778 27.37 11.3782 27.0871 11.3782ZM23.7549 12.3747H24.7745C25.2556 12.3747 25.6471 11.9845 25.6471 11.5048V11.4363V11.3777H25.5882H22.9412H22.8824V11.4363V11.5048C22.8824 11.9845 23.2738 12.3747 23.7549 12.3747ZM14.1971 18.9726H15.803C16.3658 18.9726 16.8236 18.5162 16.8236 17.9551V17.5944V17.5357H16.7648H13.2354H13.1765V17.5944V17.9551C13.1765 18.5162 13.6343 18.9726 14.1971 18.9726ZM20.5824 27.3299H27.9471C28.625 27.3299 29.1765 26.7801 29.1765 26.1042V25.072V25.0133H29.1176H19.4118H19.3529V25.072V26.1042C19.3529 26.7801 19.9045 27.3299 20.5824 27.3299ZM25.8794 0H4.12059C2.57829 0 1.32353 1.25102 1.32353 2.78871V16.7147H0.441176C0.197471 16.7147 0 16.9115 0 17.1545V19.6177C0 20.9275 1.06871 21.993 2.38235 21.993H5.73706C5.98076 21.993 6.17824 21.7961 6.17824 21.5531C6.17824 21.3101 5.98076 21.1133 5.73706 21.1133H2.38235C1.55524 21.1133 0.882353 20.4424 0.882353 19.6177V17.5944H12.3529V17.9551C12.3529 18.9689 13.1802 19.7937 14.1971 19.7937H15.803C16.8198 19.7937 17.6471 18.9689 17.6471 17.9551V17.5944H18.5295V21.1133H9.26294C9.01924 21.1133 8.82176 21.3101 8.82176 21.5531C8.82176 21.7961 9.01924 21.993 9.26294 21.993H18.5294V26.1042C18.5294 27.2328 19.4504 28.151 20.5824 28.151H27.9471C29.0791 28.151 30 27.2328 30 26.1042V12.6034C30 11.7309 29.4494 10.9845 28.6765 10.6906V2.78871C28.6765 1.25102 27.4217 0 25.8794 0ZM2.20588 16.7147V2.78871C2.20588 1.7361 3.06482 0.879719 4.12059 0.879719H25.8794C26.9352 0.879719 27.7941 1.7361 27.7941 2.78871V10.5566H26.4706V2.95292C26.4706 2.5374 26.1315 2.1993 25.7147 2.1993H24.2647C24.021 2.1993 23.8235 2.39618 23.8235 2.63916C23.8235 2.88214 24.021 3.07902 24.2647 3.07902H25.5882V10.5566C24.7728 10.5566 21.7225 10.5566 20.5824 10.5566C19.4504 10.5566 18.5294 11.4748 18.5294 12.6034V16.7147C17.9376 16.7147 5.69982 16.7147 4.41176 16.7147V3.07902H20.7353C20.979 3.07902 21.1765 2.88214 21.1765 2.63916C21.1765 2.39618 20.979 2.1993 20.7353 2.1993H4.28529C3.86853 2.1993 3.52941 2.5374 3.52941 2.95292V16.7147H2.20588ZM27.0871 11.4368C27.5184 11.4368 27.7351 11.436 27.8536 11.436C27.9869 11.436 27.9964 11.4371 28.0478 11.4414C28.1063 11.4689 28.1676 11.4831 28.2336 11.4831C28.2448 11.4831 28.2562 11.4827 28.2678 11.4819C28.7576 11.6214 29.1176 12.0709 29.1176 12.6034V24.1923H19.4118V12.6034C19.4118 11.9599 19.9369 11.4363 20.5824 11.4363H22.0588V11.5048C22.0588 12.4372 22.8197 13.1958 23.7549 13.1958H24.7745C25.7097 13.1958 26.4706 12.4372 26.4706 11.5048V11.4363C26.7141 11.4367 26.9172 11.4368 27.0871 11.4368ZM23.7549 12.3161C23.3062 12.3161 22.9412 11.9522 22.9412 11.5048V11.4363H25.5882V11.5048C25.5882 11.9522 25.2232 12.3161 24.7745 12.3161H23.7549ZM14.1971 18.914C13.6667 18.914 13.2353 18.4838 13.2353 17.9551V17.5944H16.7647V17.9551C16.7647 18.4838 16.3333 18.914 15.8029 18.914H14.1971ZM20.5824 27.2713C19.9369 27.2713 19.4118 26.7477 19.4118 26.1042V25.072H29.1176V26.1042C29.1176 26.7477 28.5925 27.2713 27.9471 27.2713H20.5824Z" fill="#FD1716"/>
<path d="M11.0306 14.4874C8.37085 14.4874 6.20703 12.33 6.20703 9.67827C6.20703 7.0265 8.37085 4.86914 11.0306 4.86914C13.6903 4.86914 15.8541 7.0265 15.8541 9.67827C15.8541 12.33 13.6903 14.4874 11.0306 14.4874ZM11.0306 5.69021C8.82497 5.69021 7.03056 7.47927 7.03056 9.67827C7.03056 11.8773 8.82497 13.6663 11.0306 13.6663C13.2361 13.6663 15.0306 11.8773 15.0306 9.67827C15.0306 7.47927 13.2361 5.69021 11.0306 5.69021Z" fill="#FD1716"/>
<path d="M11.0287 4.89849C13.6722 4.89849 15.8228 7.04272 15.8228 9.6783C15.8228 12.3139 13.6722 14.4581 11.0287 14.4581C8.38525 14.4581 6.2346 12.3139 6.2346 9.6783C6.2346 7.04272 8.38525 4.89849 11.0287 4.89849ZM11.0287 13.6957C13.2505 13.6957 15.0581 11.8935 15.0581 9.6783C15.0581 7.46311 13.2505 5.66091 11.0287 5.66091C8.8069 5.66091 6.99931 7.46311 6.99931 9.6783C6.99931 11.8935 8.8069 13.6957 11.0287 13.6957ZM11.0287 4.83984C8.35284 4.83984 6.17578 7.0104 6.17578 9.6783C6.17578 12.3462 8.35284 14.5168 11.0287 14.5168C13.7046 14.5168 15.8817 12.3462 15.8817 9.6783C15.8817 7.0104 13.7046 4.83984 11.0287 4.83984ZM11.0287 13.637C8.83931 13.637 7.05813 11.8612 7.05813 9.6783C7.05813 7.49542 8.83931 5.71956 11.0287 5.71956C13.2181 5.71956 14.9993 7.49542 14.9993 9.6783C14.9993 11.8612 13.2181 13.637 11.0287 13.637Z" fill="#FD1716"/>
<path d="M10.5906 10.9656C10.4806 10.9656 10.3772 10.9229 10.2994 10.8454L8.97587 9.52582C8.81534 9.36576 8.81534 9.10525 8.97587 8.9452C9.05363 8.86773 9.1571 8.82503 9.26704 8.82503C9.37698 8.82503 9.48045 8.86773 9.55822 8.9452L10.5906 9.97453L12.5053 8.06548C12.583 7.98801 12.6865 7.94531 12.7965 7.94531C12.9064 7.94531 13.0099 7.98801 13.0876 8.06548C13.2482 8.22553 13.2482 8.48605 13.0876 8.6461L10.8817 10.8454C10.8039 10.9229 10.7006 10.9656 10.5906 10.9656Z" fill="#FD1716"/>
<path d="M12.7949 7.97466C12.897 7.97466 12.993 8.01431 13.0652 8.08627C13.2143 8.23494 13.2143 8.47681 13.0652 8.62542L10.8593 10.8247C10.7871 10.8967 10.691 10.9364 10.5889 10.9364C10.4868 10.9364 10.3907 10.8967 10.3185 10.8248L8.99497 9.5052C8.84591 9.35653 8.84591 9.11466 8.99497 8.96605C9.0672 8.89409 9.16326 8.85444 9.26538 8.85444C9.3675 8.85444 9.46356 8.89409 9.53579 8.96605L10.5473 9.97462L10.5889 10.0161L10.6305 9.97462L12.5244 8.08633C12.5967 8.01431 12.6927 7.97466 12.7949 7.97466ZM12.7949 7.91602C12.682 7.91602 12.569 7.95895 12.4829 8.04481L10.589 9.93315L9.57744 8.92458C9.49126 8.83872 9.37838 8.79579 9.26544 8.79579C9.1525 8.79579 9.03962 8.83872 8.95344 8.92458C8.78115 9.09642 8.78115 9.37488 8.95344 9.54666L10.277 10.8662C10.3631 10.9521 10.4761 10.995 10.589 10.995C10.7019 10.995 10.8147 10.9521 10.901 10.8662L13.1069 8.66694C13.2791 8.49511 13.2791 8.21665 13.1069 8.04487C13.0207 7.95895 12.9077 7.91602 12.7949 7.91602Z" fill="#FD1716"/>
<path d="M22.0597 22.8422C21.3462 22.8422 20.7656 22.2634 20.7656 21.552C20.7656 20.8405 21.3462 20.2617 22.0597 20.2617C22.7733 20.2617 23.3539 20.8405 23.3539 21.552C23.3539 22.2634 22.7733 22.8422 22.0597 22.8422ZM22.0597 21.0828C21.8003 21.0828 21.5892 21.2933 21.5892 21.552C21.5892 21.8107 21.8003 22.0212 22.0597 22.0212C22.3192 22.0212 22.5303 21.8107 22.5303 21.552C22.5303 21.2933 22.3192 21.0828 22.0597 21.0828Z" fill="#FD1716"/>
<path d="M22.0579 20.2911C22.7553 20.2911 23.3226 20.8567 23.3226 21.552C23.3226 22.2473 22.7553 22.8129 22.0579 22.8129C21.3606 22.8129 20.7932 22.2473 20.7932 21.552C20.7932 20.8567 21.3606 20.2911 22.0579 20.2911ZM22.0579 22.0505C22.3336 22.0505 22.5579 21.8269 22.5579 21.552C22.5579 21.2771 22.3336 21.0535 22.0579 21.0535C21.7822 21.0535 21.5579 21.2771 21.5579 21.552C21.5579 21.8269 21.7822 22.0505 22.0579 22.0505ZM22.0579 20.2324C21.3281 20.2324 20.7344 20.8244 20.7344 21.552C20.7344 22.2796 21.3281 22.8716 22.0579 22.8716C22.7877 22.8716 23.3814 22.2796 23.3814 21.552C23.3814 20.8244 22.7877 20.2324 22.0579 20.2324ZM22.0579 21.9919C21.8146 21.9919 21.6167 21.7946 21.6167 21.552C21.6167 21.3094 21.8146 21.1121 22.0579 21.1121C22.3012 21.1121 22.4991 21.3094 22.4991 21.552C22.4991 21.7946 22.3012 21.9919 22.0579 21.9919Z" fill="#FD1716"/>
<path d="M26.4738 22.8422C25.7602 22.8422 25.1797 22.2634 25.1797 21.552C25.1797 20.8405 25.7602 20.2617 26.4738 20.2617C27.1874 20.2617 27.7679 20.8405 27.7679 21.552C27.7679 22.2634 27.1874 22.8422 26.4738 22.8422ZM26.4738 21.0828C26.2143 21.0828 26.0032 21.2933 26.0032 21.552C26.0032 21.8107 26.2143 22.0212 26.4738 22.0212C26.7333 22.0212 26.9444 21.8107 26.9444 21.552C26.9444 21.2933 26.7333 21.0828 26.4738 21.0828Z" fill="#FD1716"/>
<path d="M26.472 20.2911C27.1693 20.2911 27.7367 20.8567 27.7367 21.552C27.7367 22.2473 27.1693 22.8129 26.472 22.8129C25.7746 22.8129 25.2073 22.2473 25.2073 21.552C25.2073 20.8567 25.7746 20.2911 26.472 20.2911ZM26.472 22.0505C26.7477 22.0505 26.972 21.8269 26.972 21.552C26.972 21.2771 26.7477 21.0535 26.472 21.0535C26.1963 21.0535 25.972 21.2771 25.972 21.552C25.972 21.8269 26.1963 22.0505 26.472 22.0505ZM26.472 20.2324C25.7422 20.2324 25.1484 20.8244 25.1484 21.552C25.1484 22.2796 25.7422 22.8716 26.472 22.8716C27.2017 22.8716 27.7955 22.2796 27.7955 21.552C27.7955 20.8244 27.2017 20.2324 26.472 20.2324ZM26.472 21.9919C26.2287 21.9919 26.0308 21.7946 26.0308 21.552C26.0308 21.3094 26.2287 21.1121 26.472 21.1121C26.7153 21.1121 26.9131 21.3094 26.9131 21.552C26.9131 21.7946 26.7153 21.9919 26.472 21.9919Z" fill="#FD1716"/>
<path d="M22.0597 18.8832C21.3462 18.8832 20.7656 18.3044 20.7656 17.593C20.7656 16.8815 21.3462 16.3027 22.0597 16.3027C22.7733 16.3027 23.3539 16.8815 23.3539 17.593C23.3539 18.3044 22.7733 18.8832 22.0597 18.8832ZM22.0597 17.1238C21.8003 17.1238 21.5892 17.3343 21.5892 17.593C21.5892 17.8517 21.8003 18.0622 22.0597 18.0622C22.3192 18.0622 22.5303 17.8517 22.5303 17.593C22.5303 17.3343 22.3192 17.1238 22.0597 17.1238Z" fill="#FD1716"/>
<path d="M22.0579 16.3321C22.7553 16.3321 23.3226 16.8977 23.3226 17.593C23.3226 18.2883 22.7553 18.8539 22.0579 18.8539C21.3606 18.8539 20.7932 18.2883 20.7932 17.593C20.7932 16.8977 21.3606 16.3321 22.0579 16.3321ZM22.0579 18.0915C22.3336 18.0915 22.5579 17.8679 22.5579 17.593C22.5579 17.3181 22.3336 17.0945 22.0579 17.0945C21.7822 17.0945 21.5579 17.3181 21.5579 17.593C21.5579 17.8679 21.7822 18.0915 22.0579 18.0915ZM22.0579 16.2734C21.3281 16.2734 20.7344 16.8654 20.7344 17.593C20.7344 18.3206 21.3281 18.9126 22.0579 18.9126C22.7877 18.9126 23.3814 18.3206 23.3814 17.593C23.3814 16.8654 22.7877 16.2734 22.0579 16.2734ZM22.0579 18.0329C21.8146 18.0329 21.6167 17.8356 21.6167 17.593C21.6167 17.3504 21.8146 17.1532 22.0579 17.1532C22.3012 17.1532 22.4991 17.3504 22.4991 17.593C22.4991 17.8356 22.3012 18.0329 22.0579 18.0329Z" fill="#FD1716"/>
<path d="M26.4738 18.8832C25.7602 18.8832 25.1797 18.3044 25.1797 17.593C25.1797 16.8815 25.7602 16.3027 26.4738 16.3027C27.1874 16.3027 27.7679 16.8815 27.7679 17.593C27.7679 18.3044 27.1874 18.8832 26.4738 18.8832ZM26.4738 17.1238C26.2143 17.1238 26.0032 17.3343 26.0032 17.593C26.0032 17.8517 26.2143 18.0622 26.4738 18.0622C26.7333 18.0622 26.9444 17.8517 26.9444 17.593C26.9444 17.3343 26.7333 17.1238 26.4738 17.1238Z" fill="#FD1716"/>
<path d="M26.472 16.3321C27.1693 16.3321 27.7367 16.8977 27.7367 17.593C27.7367 18.2883 27.1693 18.8539 26.472 18.8539C25.7746 18.8539 25.2073 18.2883 25.2073 17.593C25.2073 16.8977 25.7746 16.3321 26.472 16.3321ZM26.472 18.0915C26.7477 18.0915 26.972 17.8679 26.972 17.593C26.972 17.3181 26.7477 17.0945 26.472 17.0945C26.1963 17.0945 25.972 17.3181 25.972 17.593C25.972 17.8679 26.1963 18.0915 26.472 18.0915ZM26.472 16.2734C25.7422 16.2734 25.1484 16.8654 25.1484 17.593C25.1484 18.3206 25.7422 18.9126 26.472 18.9126C27.2017 18.9126 27.7955 18.3206 27.7955 17.593C27.7955 16.8654 27.2017 16.2734 26.472 16.2734ZM26.472 18.0329C26.2287 18.0329 26.0308 17.8356 26.0308 17.593C26.0308 17.3504 26.2287 17.1532 26.472 17.1532C26.7153 17.1532 26.9131 17.3504 26.9131 17.593C26.9131 17.8356 26.7153 18.0329 26.472 18.0329Z" fill="#FD1716"/>
<path d="M22.5016 3.04959C22.729 3.04959 22.9134 2.86578 22.9134 2.63905C22.9134 2.41232 22.729 2.22852 22.5016 2.22852C22.2742 2.22852 22.0898 2.41232 22.0898 2.63905C22.0898 2.86578 22.2742 3.04959 22.5016 3.04959Z" fill="#FD1716"/>
<path d="M22.4998 2.25787C22.7106 2.25787 22.8821 2.42888 22.8821 2.63908C22.8821 2.84927 22.7106 3.02029 22.4998 3.02029C22.2889 3.02029 22.1174 2.84927 22.1174 2.63908C22.1174 2.42888 22.2889 2.25787 22.4998 2.25787ZM22.4998 2.19922C22.2561 2.19922 22.0586 2.39616 22.0586 2.63908C22.0586 2.882 22.2561 3.07894 22.4998 3.07894C22.7434 3.07894 22.9409 2.882 22.9409 2.63908C22.9409 2.39616 22.7434 2.19922 22.4998 2.19922Z" fill="#FD1716"/>
<path d="M7.4977 22.0418C7.72511 22.0418 7.90947 21.858 7.90947 21.6312C7.90947 21.4045 7.72511 21.2207 7.4977 21.2207C7.27029 21.2207 7.08594 21.4045 7.08594 21.6312C7.08594 21.858 7.27029 22.0418 7.4977 22.0418Z" fill="#FD1716"/>
<path d="M7.49977 21.2501C7.71059 21.2501 7.88212 21.4211 7.88212 21.6313C7.88212 21.8415 7.71059 22.0125 7.49977 22.0125C7.28895 22.0125 7.11742 21.8415 7.11742 21.6313C7.11742 21.4211 7.28895 21.2501 7.49977 21.2501ZM7.49977 21.1914C7.25612 21.1914 7.05859 21.3883 7.05859 21.6313C7.05859 21.8742 7.25612 22.0711 7.49977 22.0711C7.74342 22.0711 7.94095 21.8742 7.94095 21.6313C7.94095 21.3883 7.74342 21.1914 7.49977 21.1914Z" fill="#FD1716"/>
</svg>
