<svg width="40" height="40" viewBox="0 0 40 40" fill="none" xmlns="http://www.w3.org/2000/svg">
<path d="M32.4138 18.4715C32.4138 18.4649 32.4132 18.4582 32.4129 18.4516C32.4127 18.4449 32.4126 18.4383 32.412 18.4316C32.4119 18.4294 32.4116 18.4273 32.4114 18.4251C32.4109 18.42 32.41 18.4149 32.4094 18.4099C32.4091 18.4073 32.4088 18.4048 32.4084 18.4023C32.4076 18.3972 32.4072 18.3921 32.4064 18.3871C32.4059 18.3846 32.4052 18.3821 32.4048 18.3795C32.4036 18.3734 32.4022 18.3675 32.4008 18.3616C32.3994 18.3554 32.3981 18.3492 32.3965 18.343C32.3957 18.3403 32.3947 18.3376 32.3939 18.3349C32.3921 18.3287 32.3901 18.3228 32.3881 18.3168C32.3861 18.3108 32.3842 18.3048 32.3818 18.2988C32.3807 18.296 32.3795 18.2932 32.3783 18.2904C32.3761 18.2849 32.3738 18.2794 32.3713 18.274C32.3686 18.2678 32.3657 18.2616 32.3627 18.2555C32.3613 18.2527 32.3598 18.2499 32.3584 18.2471C32.3559 18.2424 32.3533 18.2377 32.3507 18.233C32.3471 18.2266 32.3433 18.2203 32.3393 18.2141C32.3381 18.2123 32.3372 18.2103 32.336 18.2085C32.3353 18.2073 32.3344 18.2063 32.3337 18.2052C32.3311 18.2014 32.3286 18.1976 32.3259 18.1938C32.3218 18.1879 32.3173 18.1822 32.313 18.1764C32.3101 18.1726 32.3073 18.1688 32.3044 18.1651C32.3022 18.1624 32.2998 18.1597 32.2975 18.157C32.2959 18.1551 32.2945 18.1531 32.2928 18.1512L28.8111 14.1876L28.7984 12.1818C28.7967 11.9142 28.5786 11.6982 28.3103 11.6982H26.6245L20.8851 5.16599C20.7939 5.06214 20.6627 5.00185 20.5244 5.00003C20.3863 4.99851 20.2533 5.05509 20.1593 5.1565L14.0994 11.6982H12.1023C11.9723 11.6982 11.8476 11.7499 11.756 11.8418C11.6644 11.9338 11.6133 12.0584 11.6141 12.1879L11.6278 14.3642L8.12942 18.1417C8.1268 18.1445 8.12466 18.1476 8.1221 18.1504C8.11868 18.1542 8.11508 18.1579 8.11179 18.1619C8.10928 18.1648 8.10715 18.1681 8.10477 18.1711C8.0997 18.1774 8.09488 18.1839 8.09025 18.1904C8.08793 18.1937 8.08536 18.1967 8.08317 18.1999C8.08311 18.2 8.08305 18.2001 8.08298 18.2002C8.08158 18.2022 8.08048 18.2044 8.07914 18.2065C8.07853 18.2075 8.07798 18.2085 8.07737 18.2094C8.07279 18.2165 8.0684 18.2237 8.06419 18.2311C8.06218 18.2346 8.05998 18.2379 8.05809 18.2414C8.05626 18.2448 8.05479 18.2482 8.05302 18.2516C8.0493 18.2589 8.04582 18.2662 8.04253 18.2735C8.04088 18.2772 8.03905 18.2807 8.03753 18.2844C8.03588 18.2884 8.03454 18.2925 8.03295 18.2965C8.0302 18.3035 8.0277 18.3106 8.02532 18.3178C8.02404 18.3216 8.02258 18.3253 8.02142 18.3292C8.02001 18.3337 8.01898 18.3382 8.0177 18.3427C8.01574 18.3497 8.01403 18.3567 8.01245 18.3638C8.01159 18.3676 8.01043 18.3713 8.0097 18.3751C8.00873 18.3798 8.00812 18.3846 8.00726 18.3893C8.00604 18.3963 8.00513 18.4033 8.00427 18.4102C8.00397 18.4127 8.00348 18.4151 8.00317 18.4175C8.00299 18.4191 8.00262 18.4207 8.0025 18.4223C8.00207 18.4269 8.00189 18.4314 8.00159 18.4359C8.00104 18.443 8.00079 18.45 8.00061 18.4571C8.00043 18.4629 8 18.4687 8 18.4746V33.1124C8 34.1532 8.84931 35 9.89321 35H30.1231C30.8125 35 31.4313 34.6945 31.8516 34.2126C31.8521 34.2121 31.8525 34.2116 31.8529 34.2111C32.202 33.8103 32.4139 33.2879 32.4139 32.7168V18.4718C32.4139 18.4718 32.4139 18.4718 32.4139 18.4717C32.4139 18.4716 32.4138 18.4716 32.4138 18.4715ZM31.4375 32.7168C31.4375 32.8904 31.4027 33.056 31.3408 33.2078L20.8489 26.1732L28.6294 21.1659C28.6296 21.1658 28.6299 21.1655 28.6302 21.1654L31.4375 19.3639V32.7168ZM19.9708 25.5648L14.1607 21.6265C14.1795 21.6287 14.1985 21.6302 14.2179 21.6302H26.1022L19.9708 25.5648ZM31.1856 18.368L28.8472 19.8685L28.8206 15.6757L31.1856 18.368ZM20.5083 6.21432L25.3267 11.6981H15.4283L20.5083 6.21432ZM14.3129 12.6715H26.4033C26.4037 12.6715 26.4041 12.6715 26.4045 12.6715H27.8254L27.8749 20.4925L26.6655 21.2686C26.6762 21.2287 26.6824 21.1868 26.6824 21.1434C26.6824 20.8747 26.4639 20.6567 26.1943 20.6567H14.2178C13.9482 20.6567 13.7297 20.8747 13.7297 21.1434C13.7297 21.2268 13.7508 21.3051 13.7878 21.3738L12.6432 20.5979L12.5935 12.6715H14.3129ZM11.6632 20.0142L9.23293 18.3848L11.6366 15.7894L11.6632 20.0142ZM9.89309 34.0267C9.38749 34.0267 8.97617 33.6166 8.97617 33.1124V19.3856L30.6485 33.9166C30.4873 33.987 30.3098 34.0267 30.1229 34.0267H9.89309Z" fill="#FD1716"/>
<path d="M14.2186 18.6003H26.195C26.4646 18.6003 26.6832 18.3824 26.6832 18.1136C26.6832 17.8449 26.4646 17.627 26.195 17.627H14.2186C13.949 17.627 13.7305 17.8449 13.7305 18.1136C13.7305 18.3824 13.949 18.6003 14.2186 18.6003Z" fill="#FD1716"/>
<path d="M14.2186 15.5691H26.195C26.4646 15.5691 26.6832 15.3512 26.6832 15.0824C26.6832 14.8136 26.4646 14.5957 26.195 14.5957H14.2186C13.949 14.5957 13.7305 14.8136 13.7305 15.0824C13.7305 15.3512 13.949 15.5691 14.2186 15.5691Z" fill="#FD1716"/>
</svg>
