<svg width="30" height="30" viewBox="0 0 30 30" fill="none" xmlns="http://www.w3.org/2000/svg">
<path d="M25.569 16.0282H14.2716V10.207C14.2716 9.93414 14.048 9.71289 13.7716 9.71289H0.500022C0.223643 9.71289 0 9.93414 0 10.207V19.7381C0 20.0112 0.223643 20.2322 0.500022 20.2322H2.41368V23.8085C2.41368 24.0126 2.54064 24.1955 2.73303 24.2693C2.92375 24.3426 3.14384 24.2931 3.28335 24.141L6.88507 20.2322H10.814V25.7127C10.814 25.9858 11.0376 26.2068 11.314 26.2068H19.3646L22.8936 29.0496C22.9844 29.1229 23.0967 29.1606 23.2095 29.1606C23.4776 29.1652 23.7148 28.9325 23.7095 28.6664L23.7095 26.2068H25.569C25.8454 26.2068 26.069 25.9858 26.069 25.7127V16.5223C26.069 16.2492 25.8454 16.0282 25.569 16.0282ZM6.66387 19.2439C6.52324 19.2439 6.38895 19.3023 6.29422 19.4056L3.41372 22.5316V19.7381C3.41372 19.465 3.19008 19.2439 2.9137 19.2439H1.00004V10.7012H13.2716C13.2716 12.5433 13.2716 17.4719 13.2716 19.2439C11.9921 19.2439 8.00383 19.2439 6.66387 19.2439ZM25.069 25.2185C22.1762 25.234 22.7752 24.8568 22.7095 27.626L19.8583 25.3295C19.7689 25.2576 19.6576 25.2185 19.5424 25.2185H11.814V20.2322H13.7716C14.048 20.2322 14.2716 20.0112 14.2716 19.7381V17.0164H25.069V25.2185Z" fill="#FD1716"/>
<path d="M17.6637 22.3634H20.5046C21.994 22.3634 23.1605 21.503 23.1605 20.4047V19.44C23.1562 18.7938 22.1641 18.7933 22.1605 19.4401V20.4047C22.1605 20.8636 21.4803 21.3751 20.5046 21.3751H17.6637C16.6881 21.3751 16.0079 20.8636 16.0079 20.4047V19.44C15.9988 18.7917 15.0177 18.79 15.0078 19.44L15.0078 20.4047C15.0078 21.503 16.1744 22.3634 17.6637 22.3634Z" fill="#FD1716"/>
<path d="M20.1082 23.3164H18.0646C17.4113 23.3189 17.4102 24.3022 18.0647 24.3047L20.1082 24.3047C20.7615 24.3022 20.7626 23.3189 20.1082 23.3164Z" fill="#FD1716"/>
<path d="M7.39251 12.6585V11.668C7.39251 11.3951 7.16887 11.1738 6.89249 11.1738C6.61611 11.1738 6.39247 11.3951 6.39247 11.668V12.6585C2.48779 13.0599 2.49014 17.0778 6.39247 17.4782V18.4687C6.39247 18.7418 6.61611 18.9628 6.89249 18.9628C7.16887 18.9628 7.39251 18.7418 7.39251 18.4687V17.4782C11.2978 17.0769 11.2955 13.0591 7.39251 12.6585ZM4.44365 15.0683C4.44365 14.3841 5.29553 13.7931 6.39247 13.6521V16.4846C5.29553 16.3435 4.44365 15.7526 4.44365 15.0683ZM7.39251 16.4846V13.652C9.96761 14.0072 9.96597 16.13 7.39251 16.4846Z" fill="#FD1716"/>
<path d="M29.5017 0H12.7891C12.5127 0 12.2891 0.221254 12.2891 0.494142V8.26626C12.292 8.9102 13.286 8.91438 13.2891 8.26623L13.2891 0.988284H29.0017V11.2357H26.464C26.1876 11.2357 25.964 11.457 25.964 11.7298V13.7004L22.0009 11.3081C21.9223 11.2608 21.832 11.2357 21.7402 11.2357H15.7384C15.0865 11.2381 15.0829 12.2212 15.7385 12.224L21.5995 12.224L26.2032 15.003C26.2833 15.0513 26.3737 15.0754 26.464 15.0754C26.7316 15.0806 26.9696 14.8473 26.964 14.5813L26.964 12.224H29.5017C29.7781 12.224 30.0018 12.0027 30.0018 11.7298V0.494142C30.0018 0.221254 29.7781 0 29.5017 0Z" fill="#FD1716"/>
<path d="M22.1298 1.94141C21.8534 1.94141 21.6297 2.16266 21.6297 2.43555V3.39874H18.1974C17.5437 3.40147 17.5434 4.38433 18.1975 4.38702L19.3384 4.38702C19.4577 5.16527 19.8724 6.72403 21.2988 8.04284C20.5929 8.46412 19.7536 8.74213 18.7595 8.74213C18.4831 8.74213 18.2595 8.96339 18.2595 9.23627C18.2595 9.50916 18.4831 9.73041 18.7595 9.73041C20.1144 9.73041 21.2236 9.30679 22.1228 8.69216C22.71 9.08695 23.4162 9.43801 24.2724 9.70725C24.5283 9.78983 24.8171 9.64819 24.9004 9.38611C24.9839 9.12601 24.8384 8.84805 24.5752 8.76529C23.9363 8.56437 23.4027 8.31187 22.94 8.0337C24.7185 6.36615 25.4094 4.06497 25.4199 4.02872C25.4629 3.87961 25.4326 3.71916 25.3384 3.59538C25.2437 3.47161 25.0957 3.39874 24.939 3.39874H22.6298V2.43555C22.6298 2.16266 22.4061 1.94141 22.1298 1.94141ZM22.1131 7.44977C20.8442 6.3651 20.4601 5.07856 20.3431 4.38702H24.226C23.9073 5.1536 23.2394 6.46532 22.1131 7.44977Z" fill="#FD1716"/>
</svg>
