<svg width="40" height="40" viewBox="0 0 40 40" fill="none" xmlns="http://www.w3.org/2000/svg">
<path d="M13.8034 33.3802C13.8034 33.7223 13.5162 33.9999 13.1624 33.9999H9.0376C6.81199 33.9999 5 32.2483 5 30.0969V26.1096C5 25.7675 5.28718 25.49 5.641 25.49C5.99483 25.49 6.282 25.7676 6.282 26.1096V30.0969C6.282 31.5659 7.51789 32.7606 9.03756 32.7606H13.1623C13.5162 32.7606 13.8034 33.0382 13.8034 33.3802ZM34.359 25.4901C34.0051 25.4901 33.718 25.7677 33.718 26.1098V30.097C33.718 31.566 32.4821 32.7607 30.9624 32.7607H26.8376C26.4838 32.7607 26.1966 33.0383 26.1966 33.3804C26.1966 33.7224 26.4838 34 26.8376 34H30.9624C33.188 34 35 32.2485 35 30.097V26.1097C35 25.7677 34.7128 25.4901 34.359 25.4901ZM30.9624 5.00004H26.8376C26.4838 5.00004 26.1966 5.27765 26.1966 5.61968C26.1966 5.96171 26.4838 6.23931 26.8376 6.23931H30.9624C32.4821 6.23931 33.718 7.434 33.718 8.90301V12.8903C33.718 13.2323 34.0051 13.5099 34.359 13.5099C34.7128 13.5099 35 13.2323 35 12.8903V8.90301C35 6.74994 33.1898 5.00004 30.9624 5.00004ZM5.64131 13.5099C5.99515 13.5099 6.28231 13.2323 6.28231 12.8902V8.90296C6.28231 7.43395 7.51819 6.23927 9.03786 6.23927H13.1626C13.5165 6.23927 13.8036 5.96167 13.8036 5.61964C13.8036 5.27761 13.5165 5 13.1626 5H9.03786C6.81225 5 5.00026 6.75154 5.00026 8.90301V12.8903C5.00026 13.2323 5.28748 13.5099 5.64131 13.5099ZM23.5743 21.5802C23.2222 21.5438 22.9077 21.7917 22.87 22.1321C22.6923 23.7812 22.1111 26.3259 20.3607 29.0903C20.176 29.3828 20.2718 29.7645 20.5726 29.9429C20.6769 30.0057 20.7931 30.0338 20.9077 30.0338C21.123 30.0338 21.335 29.9281 21.4547 29.738C22.9384 27.3949 23.8683 24.809 24.1452 22.2625C24.1811 21.9204 23.9265 21.6166 23.5743 21.5802ZM21.8701 15.0399C20.947 14.488 19.8496 14.4351 18.694 14.8896C17.5317 15.3456 16.8376 16.266 16.6257 17.621C16.5727 17.9597 16.8137 18.2753 17.1641 18.3249C17.5146 18.3761 17.8411 18.1431 17.8923 17.8044C18.0359 16.8741 18.4325 16.3288 19.1761 16.0363C19.947 15.7323 20.6257 15.7521 21.1932 16.0925C22.1265 16.651 22.7693 18.0919 22.9128 19.9426C22.9385 20.2681 23.2188 20.516 23.5521 20.516C23.5675 20.516 23.5846 20.516 23.6 20.5144C23.9521 20.4879 24.2188 20.1921 24.1915 19.8501C24.106 18.7496 23.8718 17.778 23.4958 16.9617C23.0923 16.0925 22.5453 15.4448 21.8701 15.0399ZM17.9932 21.7769C18.0256 21.3307 17.9761 20.7921 17.9248 20.222C17.9162 20.1294 17.9077 20.0369 17.9009 19.9427C17.8718 19.6023 17.5624 19.3479 17.2086 19.3776C16.8564 19.4057 16.5932 19.7064 16.624 20.0468C16.6325 20.1426 16.6411 20.2368 16.6496 20.3294C16.6975 20.8499 16.7402 21.3406 16.7146 21.6893C16.5368 24.1382 15.5283 26.1145 13.7163 27.5603C13.4428 27.7785 13.4052 28.1684 13.6308 28.4328C13.7573 28.5815 13.9402 28.6575 14.1248 28.6575C14.2684 28.6575 14.4137 28.6113 14.5334 28.5154C15.5693 27.6876 16.3898 26.6945 16.9693 25.5626C17.547 24.4356 17.8923 23.1616 17.9932 21.7769ZM20.7418 17.6888C20.6615 17.355 20.3179 17.1485 19.9726 17.2261C19.6273 17.3037 19.4137 17.6359 19.494 17.9697C20.4341 21.8842 19.2581 26.2088 16.4957 28.9863C16.2495 29.2325 16.2581 29.6258 16.5128 29.8621C16.6376 29.9778 16.7965 30.0339 16.9572 30.0339C17.1247 30.0339 17.294 29.9712 17.4188 29.8439C18.947 28.3072 20.0615 26.3408 20.6427 24.1611C21.2136 22.0278 21.2478 19.7891 20.7418 17.6888ZM26.1143 24.7528C25.7724 24.6602 25.4203 24.8519 25.3246 25.1824C24.9365 26.5192 24.369 27.8411 23.6374 29.1135C23.4665 29.4126 23.5759 29.7893 23.887 29.9562C23.9861 30.0091 24.0921 30.0339 24.1981 30.0339C24.4237 30.0339 24.6425 29.9182 24.7587 29.715C25.5382 28.3583 26.1451 26.9455 26.5587 25.5162C26.6545 25.1874 26.4562 24.8437 26.1143 24.7528ZM26.3314 23.763C26.3622 23.768 26.3929 23.7696 26.4237 23.7696C26.7365 23.7696 27.0118 23.5465 27.0579 23.2375C27.3297 21.4182 27.2972 19.556 26.9639 17.8508C26.7109 16.5553 26.2784 15.359 25.8066 14.6501C24.2716 12.3434 21.3041 11.1916 18.752 11.9121C16.4734 12.5565 14.9537 13.8917 14.2359 15.8828C13.6445 17.5187 13.7573 19.2322 13.8086 20.0551C13.8308 20.3972 14.1351 20.6566 14.4889 20.6351C14.8428 20.6137 15.1112 20.3195 15.0889 19.9775C14.918 17.3535 15.2223 14.1991 19.1111 13.1001C21.1316 12.5283 23.4942 13.4619 24.7282 15.3176C25.4274 16.3702 26.3351 19.4007 25.7881 23.0575C25.7385 23.3996 25.9827 23.7134 26.3314 23.763ZM11.6922 26.9026C11.829 26.9026 11.9674 26.8596 12.0837 26.7737C13.5811 25.6534 14.4649 24.3347 14.8649 22.6212C14.9435 22.2874 14.7264 21.9553 14.3811 21.8793C14.0358 21.8032 13.6922 22.0131 13.6136 22.3469C13.2786 23.7828 12.564 24.8453 11.2991 25.7922C11.0187 26.002 10.9674 26.3904 11.1845 26.6613C11.3127 26.82 11.5008 26.9026 11.6922 26.9026ZM28.6441 26.8828C28.6988 26.896 28.7535 26.9026 28.8065 26.9026C29.0903 26.9026 29.3501 26.7175 29.4254 26.4399C30.0954 23.953 30.345 21.4115 30.1467 19.0883C30.1176 18.7479 29.8082 18.4934 29.4544 18.5215C29.1023 18.5496 28.8391 18.8487 28.8681 19.1907C29.0561 21.3752 28.8185 23.7745 28.1843 26.1274C28.0955 26.4578 28.3005 26.7968 28.6441 26.8828ZM11.0083 15.9139C10.933 16.2477 11.1536 16.5782 11.4989 16.6509C11.8442 16.7236 12.186 16.5105 12.2612 16.1767C12.6612 14.3887 13.7621 12.8718 15.5365 11.6656C17.4817 10.3437 19.993 9.88099 22.2576 10.4313C26.2747 11.4062 27.8559 14.4516 28.4747 16.8345C28.5482 17.1154 28.8097 17.3037 29.0969 17.3037C29.1482 17.3037 29.2012 17.2971 29.2542 17.2839C29.5977 17.2013 29.8063 16.8642 29.7191 16.5321C28.7071 12.6423 26.2354 10.1175 22.5687 9.22659C19.9482 8.59042 17.0422 9.12249 14.7977 10.6493C12.7532 12.0407 11.4784 13.8122 11.0083 15.9139ZM12.08 18.3463V18.2818C12.0817 17.9398 11.7963 17.6605 11.4424 17.6589H11.439C11.0869 17.6589 10.7997 17.9348 10.798 18.2752V18.3413C10.7895 20.2432 10.7775 22.6095 8.71599 23.882C8.41856 24.067 8.32967 24.4487 8.52112 24.7379C8.6442 24.923 8.85104 25.0238 9.0613 25.0238C9.17925 25.0238 9.29891 24.9924 9.4066 24.9263C10.5929 24.1942 11.3604 23.145 11.7519 21.7206C12.0698 20.5573 12.0749 19.3311 12.08 18.3463Z" fill="#FD1716"/>
</svg>
