<svg width="40" height="40" viewBox="0 0 40 40" fill="none" xmlns="http://www.w3.org/2000/svg">
<rect width="40" height="40" rx="10" fill="white"/>
<path fill-rule="evenodd" clip-rule="evenodd" d="M26.0286 29.0188H29.5524C29.7036 29.0188 29.827 28.8947 29.827 28.7445V28.3219C29.827 28.1709 29.7027 28.0477 29.5524 28.0477H26.0286C25.8774 28.0477 25.754 28.1718 25.754 28.3219V28.7445C25.754 28.8955 25.8782 29.0188 26.0286 29.0188ZM12.6694 11.6202C12.2758 12.0532 11.923 12.5687 11.6953 13.1527C11.3807 13.9606 11.4963 14.5221 11.7978 14.8493C12.2402 15.3283 13.0987 15.3283 13.541 14.8493C13.8426 14.5221 13.9582 13.9606 13.6436 13.1527C13.4159 12.5687 13.0631 12.0532 12.6694 11.6202ZM11.8291 11.8597C12.0464 11.5534 12.3001 11.2626 12.4922 11.0726C12.5921 10.9745 12.752 10.9763 12.8502 11.0752C13.3368 11.5681 13.7922 12.1825 14.0825 12.8863C14.3536 12.5183 14.696 12.1209 14.9949 11.825C15.0948 11.7269 15.2547 11.7286 15.3529 11.8276C15.9056 12.3873 16.4427 13.0581 16.8685 13.8287H25.0587C25.1986 13.8287 25.3124 13.9424 25.3124 14.0821V22.3498H26.94C27.3711 22.3498 27.7221 22.7004 27.7221 23.1308V23.5534C27.7221 23.7565 27.6439 23.9422 27.5153 24.081C27.6378 24.2138 27.7152 24.3891 27.7213 24.5817H29.5522C29.9833 24.5817 30.3343 24.9323 30.3343 25.3628V25.7854C30.3343 25.8826 30.3161 25.9763 30.2831 26.0622C30.6854 26.0961 31 26.4336 31 26.8406V27.2632C31 27.6702 30.6854 28.0087 30.2831 28.0417C30.3161 28.1276 30.3343 28.2213 30.3343 28.3185V28.7411C30.3343 28.9442 30.2561 29.1299 30.1275 29.2687C30.2553 29.4085 30.3343 29.5933 30.3343 29.7964V30.219C30.3343 30.6494 29.9833 31 29.5522 31H26.0284C25.607 31 25.2611 30.6642 25.2463 30.2459H23.4154C22.9843 30.2459 22.6333 29.8953 22.6333 29.4649C22.6333 29.3173 22.622 29.0119 22.6506 28.88L12.8563 28.8826C11.8778 28.8826 11.08 28.0859 11.08 27.1088V24.3022C11.08 24.1625 11.1939 24.0488 11.3338 24.0488H14.2058V18.6302C13.1265 18.2058 12.5243 17.1401 12.7711 15.7117C12.2775 15.7394 11.77 15.5659 11.4241 15.191C11.0027 14.7345 10.8245 13.9899 11.2225 12.9702C11.3859 12.5511 11.6023 12.1788 11.8282 11.8595L11.8291 11.8597ZM14.2753 13.4903C14.5465 13.0876 14.8558 12.7075 15.1721 12.3708C15.8369 13.0798 16.44 13.9363 16.8197 14.9125C17.3324 16.229 17.1361 17.155 16.632 17.7C16.2888 18.0714 15.8013 18.2718 15.3007 18.3013C14.7984 18.3308 14.2857 18.1885 13.8956 17.8735C13.3663 17.4465 13.0613 16.6898 13.309 15.5964C13.5349 15.5096 13.7426 15.3742 13.9121 15.1911C14.2588 14.8162 14.4395 14.2469 14.2736 13.4902L14.2753 13.4903ZM14.9184 14.2036V14.4188C14.7863 14.4605 14.6672 14.5334 14.5717 14.6288C14.0355 15.1643 14.4213 16.0772 15.1721 16.0772C15.4728 16.0772 15.631 16.4434 15.4137 16.6604C15.1964 16.8773 14.8297 16.7194 14.8297 16.4191C14.8297 16.2794 14.7159 16.1657 14.576 16.1657C14.4361 16.1657 14.3222 16.2794 14.3222 16.4191C14.3222 16.794 14.569 17.1194 14.9184 17.2288V17.444C14.9184 17.5837 15.0322 17.6974 15.1721 17.6974C15.312 17.6974 15.4259 17.5837 15.4259 17.444V17.2288C15.558 17.1871 15.677 17.1142 15.7726 17.0188C16.3088 16.4833 15.9229 15.5704 15.1721 15.5704C14.8714 15.5704 14.7133 15.2042 14.9306 14.9872C15.1478 14.7703 15.5145 14.9282 15.5145 15.2285C15.5145 15.3682 15.6284 15.4819 15.7683 15.4819C15.9082 15.4819 16.022 15.3682 16.022 15.2285C16.022 14.8536 15.7752 14.5282 15.4259 14.4188V14.2036C15.4259 14.0639 15.312 13.9502 15.1721 13.9502C15.0322 13.9502 14.9184 14.0639 14.9184 14.2036ZM17.1248 14.3364C17.1839 14.4648 17.2395 14.5959 17.2925 14.7304C17.8886 16.2594 17.6297 17.3667 17.0057 18.0419C16.427 18.6684 15.5362 18.9132 14.7141 18.7708V27.1078C14.7141 27.6042 14.509 28.0511 14.1788 28.3748H22.7368C22.6707 28.2602 22.6334 28.1283 22.6334 27.9877V27.5651C22.6334 27.362 22.7116 27.1763 22.8402 27.0375C22.7124 26.8986 22.6334 26.7129 22.6334 26.5098V26.0872C22.6334 26.0074 22.6455 25.9302 22.6681 25.8581C21.1795 26.5914 19.4259 25.5102 19.4259 23.844C19.4259 22.1786 21.1726 21.0999 22.6612 21.8263C22.9254 21.9556 23.1609 22.1353 23.3538 22.3513C23.3747 22.3496 23.3955 22.3487 23.4164 22.3487H24.805L24.8042 14.3364H17.1241L17.1248 14.3364ZM16.0437 25.8253H18.6047C18.7446 25.8253 18.8585 25.7116 18.8585 25.5719C18.8585 25.4322 18.7446 25.3185 18.6047 25.3185H16.0437C15.9038 25.3185 15.79 25.4322 15.79 25.5719C15.79 25.7117 15.9038 25.8253 16.0437 25.8253ZM16.0437 24.6078H18.6047C18.7446 24.6078 18.8585 24.4941 18.8585 24.3544C18.8585 24.2147 18.7446 24.101 18.6047 24.101H16.0437C15.9038 24.101 15.79 24.2147 15.79 24.3544C15.79 24.4941 15.9038 24.6078 16.0437 24.6078ZM16.0437 23.3902H18.6047C18.7446 23.3902 18.8585 23.2766 18.8585 23.1369C18.8585 22.9971 18.7446 22.8835 18.6047 22.8835H16.0437C15.9038 22.8835 15.79 22.9971 15.79 23.1369C15.79 23.2766 15.9038 23.3902 16.0437 23.3902ZM16.0437 22.1727H18.6047C18.7446 22.1727 18.8585 22.059 18.8585 21.9193C18.8585 21.7796 18.7446 21.6659 18.6047 21.6659H16.0437C15.9038 21.6659 15.79 21.7796 15.79 21.9193C15.79 22.059 15.9038 22.1727 16.0437 22.1727ZM19.2886 20.9552H23.2998C23.4397 20.9552 23.5536 20.8415 23.5536 20.7018C23.5536 20.5621 23.4397 20.4484 23.2998 20.4484H19.2886C19.1487 20.4484 19.0348 20.5621 19.0348 20.7018C19.0348 20.8415 19.1487 20.9552 19.2886 20.9552ZM16.0437 20.9552H18.4552C18.5951 20.9552 18.709 20.8415 18.709 20.7018C18.709 20.5621 18.5951 20.4484 18.4552 20.4484H16.0437C15.9038 20.4484 15.79 20.5621 15.79 20.7018C15.79 20.8415 15.9038 20.9552 16.0437 20.9552ZM16.0437 19.7376H23.3007C23.4406 19.7376 23.5544 19.6239 23.5544 19.4842C23.5544 19.3445 23.4406 19.2308 23.3007 19.2308L16.0428 19.23C15.9029 19.23 15.7891 19.3437 15.7891 19.4834C15.7891 19.6231 15.9029 19.7368 16.0428 19.7368L16.0437 19.7376ZM18.3943 18.5201H23.3007C23.4406 18.5201 23.5544 18.4064 23.5544 18.2667C23.5544 18.127 23.4406 18.0133 23.3007 18.0133H18.3943C18.2544 18.0133 18.1405 18.127 18.1405 18.2667C18.1405 18.4064 18.2544 18.5201 18.3943 18.5201ZM22.5003 17.3025H23.3006C23.4405 17.3025 23.5544 17.1889 23.5544 17.0492C23.5544 16.9094 23.4405 16.7958 23.3006 16.7958H22.5003C22.3604 16.7958 22.2465 16.9094 22.2465 17.0492C22.2465 17.1889 22.3604 17.3025 22.5003 17.3025ZM18.3943 17.3025H21.4227C21.5626 17.3025 21.6764 17.1889 21.6764 17.0492C21.6764 16.9094 21.5626 16.7958 21.4227 16.7958H18.3943C18.2544 16.7958 18.1405 16.9094 18.1405 17.0492C18.1405 17.1889 18.2544 17.3025 18.3943 17.3025ZM22.755 22.4824L21.9903 23.8049L22.6481 24.4619C22.6768 24.3178 22.7446 24.1885 22.8402 24.0844C22.7124 23.9446 22.6333 23.7598 22.6333 23.5567V23.1341C22.6333 22.9172 22.7228 22.7202 22.8662 22.5787C22.8306 22.5449 22.7932 22.5128 22.755 22.4824ZM21.488 23.6626L22.317 22.229C21.183 21.7804 19.9325 22.6117 19.9325 23.8466C19.9325 24.0731 19.9759 24.29 20.055 24.4888L21.488 23.6626ZM22.6464 25.1761L21.6314 24.1625L20.3079 24.9253C20.8806 25.6482 21.9208 25.7992 22.6707 25.2733C22.6603 25.242 22.6525 25.209 22.6464 25.1761ZM12.8562 28.3774H12.937C13.6357 28.3774 14.2058 27.8081 14.2058 27.1104V24.5573L11.5874 24.5565V27.1095C11.5874 27.8072 12.1574 28.3765 12.8561 28.3765L12.8562 28.3774ZM26.0285 24.5851H27.2129C27.199 24.4463 27.08 24.3378 26.9392 24.3378H23.4154C23.2642 24.3378 23.1408 24.4619 23.1408 24.612V25.0346C23.1408 25.1856 23.265 25.3089 23.4154 25.3089H25.2481C25.2776 24.9036 25.6183 24.5851 26.0285 24.5851ZM25.9633 26.5672C25.5705 26.5342 25.2603 26.2105 25.2464 25.8157H23.4154C23.2642 25.8157 23.1408 25.9398 23.1408 26.0899V26.5125C23.1408 26.6635 23.265 26.7868 23.4154 26.7868H25.9136C25.9189 26.7095 25.9362 26.6358 25.9623 26.5672L25.9633 26.5672ZM29.5523 25.0919H26.0285C25.8773 25.0919 25.7539 25.216 25.7539 25.3662V25.7888C25.7539 25.9398 25.8781 26.063 26.0285 26.063H29.5523C29.7035 26.063 29.8269 25.9389 29.8269 25.7888V25.3662C29.8269 25.2152 29.7026 25.0919 29.5523 25.0919ZM25.9633 27.5443C25.5818 27.5765 25.2759 27.8837 25.2481 28.2655H23.4154C23.2642 28.2655 23.1408 28.1414 23.1408 27.9913V27.5687C23.1408 27.4177 23.2651 27.2944 23.4154 27.2944H25.9121C25.9156 27.3821 25.933 27.4662 25.9625 27.5452L25.9633 27.5443ZM30.2188 26.5698H26.695C26.5438 26.5698 26.4204 26.6939 26.4204 26.844V27.2666C26.4204 27.4176 26.5446 27.5409 26.695 27.5409H30.2188C30.37 27.5409 30.4934 27.4168 30.4934 27.2666V26.844C30.4934 26.693 30.3691 26.5698 30.2188 26.5698ZM25.2472 28.7723H23.4162C23.265 28.7723 23.1416 28.8964 23.1416 29.0465V29.4692C23.1416 29.6202 23.2659 29.7434 23.4162 29.7434H25.2489C25.262 29.5629 25.3376 29.3989 25.4531 29.273C25.3306 29.1403 25.2533 28.965 25.2472 28.7723ZM29.553 29.5264H26.0292C25.8779 29.5264 25.7545 29.6505 25.7545 29.8007V30.2233C25.7545 30.3743 25.8788 30.4975 26.0292 30.4975H29.553C29.7042 30.4975 29.8276 30.3734 29.8276 30.2233V29.8007C29.8276 29.6497 29.7033 29.5264 29.553 29.5264ZM26.9399 22.859H23.4161C23.2649 22.859 23.1415 22.9831 23.1415 23.1332V23.5558C23.1415 23.7068 23.2658 23.8301 23.4161 23.8301H26.9399C27.0911 23.8301 27.2145 23.706 27.2145 23.5558V23.1332C27.2145 22.9822 27.0903 22.859 26.9399 22.859Z" fill="#FD1716"/>
</svg>
