<svg width="40" height="40" viewBox="0 0 40 40" fill="none" xmlns="http://www.w3.org/2000/svg">
<rect width="40" height="40" rx="10" fill="white"/>
<path d="M21.5993 21.3242L20.856 21.8868C20.6643 21.788 20.465 21.7051 20.2591 21.6398L20.1319 20.7165C20.1084 20.5508 19.9678 20.4277 19.8004 20.4277H18.3288C18.1614 20.4277 18.0199 20.5508 17.9973 20.7165L17.8701 21.6398C17.6642 21.7051 17.4649 21.788 17.2732 21.8868L16.5308 21.3242C16.3968 21.223 16.2102 21.2363 16.0921 21.3544L15.0516 22.3949C14.9336 22.5129 14.9202 22.7004 15.0215 22.8335L15.584 23.576C15.4852 23.7677 15.4024 23.9669 15.3371 24.1728L14.4138 24.3001C14.2481 24.3235 14.125 24.4641 14.125 24.6315V26.1031C14.125 26.2705 14.2481 26.412 14.4138 26.4346L15.3371 26.5618C15.4024 26.7678 15.4853 26.967 15.584 27.1587L15.0215 27.902C14.9211 28.0351 14.9336 28.2226 15.0516 28.3407L16.0921 29.3811C16.2102 29.4992 16.3968 29.5126 16.5308 29.4113L17.2732 28.8488C17.4649 28.9475 17.6642 29.0296 17.8701 29.0957L17.9973 30.019C18.0208 30.1847 18.1614 30.3078 18.3288 30.3078H19.8004C19.9678 30.3078 20.1093 30.1847 20.1319 30.019L20.2591 29.0957C20.465 29.0304 20.6642 28.9475 20.856 28.8488L21.5993 29.4113C21.7332 29.5126 21.9199 29.4992 22.0379 29.3811L23.0784 28.3407C23.1964 28.2226 23.2098 28.0351 23.1085 27.902L22.546 27.1587C22.6448 26.967 22.7268 26.7678 22.793 26.5618L23.7162 26.4346C23.882 26.4112 24.005 26.2705 24.005 26.1031V24.6315C24.005 24.4641 23.882 24.3227 23.7162 24.3001L22.793 24.1728C22.7277 23.9669 22.6448 23.7677 22.546 23.576L23.1085 22.8335C23.209 22.7004 23.1964 22.5129 23.0784 22.3949L22.0379 21.3544C21.9199 21.2364 21.7332 21.223 21.5993 21.3242ZM21.8605 23.7183C22.0153 23.9795 22.1325 24.2624 22.2087 24.5587C22.2422 24.6901 22.3527 24.7881 22.4874 24.8073L23.3371 24.9245V25.8127L22.4874 25.9299C22.3527 25.9483 22.243 26.0471 22.2087 26.1785C22.1325 26.4748 22.0153 26.7577 21.8605 27.0189C21.791 27.1361 21.7994 27.2834 21.8814 27.3914L22.3987 28.0753L21.7709 28.7031L21.087 28.1858C20.979 28.1038 20.8317 28.0954 20.7145 28.1649C20.4533 28.3197 20.1704 28.4369 19.8741 28.5131C19.7427 28.5466 19.6447 28.6571 19.6255 28.7918L19.5083 29.6415H18.6201L18.503 28.7918C18.4845 28.6571 18.3858 28.5474 18.2543 28.5131C17.958 28.4369 17.6751 28.3197 17.4139 28.1649C17.2967 28.0954 17.1494 28.1046 17.0414 28.1858L16.3575 28.7031L15.7297 28.0753L16.247 27.3914C16.3291 27.2826 16.3374 27.1353 16.2679 27.0189C16.1131 26.7577 15.9959 26.4748 15.9197 26.1785C15.8862 26.0471 15.7757 25.9491 15.641 25.9299L14.7914 25.8127V24.9245L15.641 24.8073C15.7757 24.7889 15.8854 24.6902 15.9197 24.5587C15.9959 24.2624 16.1131 23.9795 16.2679 23.7183C16.3374 23.6011 16.3291 23.4538 16.247 23.3458L15.7297 22.6619L16.3575 22.0341L17.0414 22.5514C17.1502 22.6335 17.2967 22.6418 17.4139 22.5723C17.6751 22.4175 17.958 22.3003 18.2543 22.2241C18.3857 22.1906 18.4837 22.0801 18.503 21.9454L18.6201 21.0958H19.5083L19.6255 21.9454C19.6439 22.0801 19.7427 22.1898 19.8741 22.2241C20.1704 22.3003 20.4533 22.4175 20.7145 22.5723C20.8317 22.6418 20.9782 22.6335 21.087 22.5514L21.7709 22.0341L22.3987 22.6619L21.8814 23.3458C21.7994 23.4546 21.791 23.6011 21.8605 23.7183Z" fill="#FD1716"/>
<path d="M19.0642 23.2441C17.8932 23.2441 16.9414 24.1967 16.9414 25.367C16.9414 26.538 17.894 27.4898 19.0642 27.4898C20.2353 27.4898 21.187 26.5372 21.187 25.367C21.187 24.1959 20.2344 23.2441 19.0642 23.2441ZM19.0642 26.8202C18.2623 26.8202 17.6111 26.1681 17.6111 25.3671C17.6111 24.5652 18.2632 23.9139 19.0642 23.9139C19.8661 23.9139 20.5174 24.566 20.5174 25.3671C20.5174 26.169 19.8653 26.8202 19.0642 26.8202Z" fill="#FD1716"/>
<path d="M30.7115 19.3865L29.5723 19.2292C29.4902 18.9621 29.3831 18.7027 29.2525 18.454L29.9448 17.5366C30.0452 17.4035 30.0318 17.216 29.9146 17.098L28.6758 15.8591C28.5577 15.7411 28.3702 15.7277 28.2371 15.829L27.3214 16.5229C27.077 16.3923 26.8183 16.2852 26.5479 16.2015L26.3905 15.0622C26.3679 14.8965 26.2265 14.7734 26.0591 14.7734H24.3046C24.1371 14.7734 23.9957 14.8965 23.9731 15.0622L23.8157 16.2015C23.5462 16.2852 23.2867 16.3923 23.0397 16.5229L22.1265 15.829C21.9934 15.7277 21.8059 15.7403 21.6878 15.8583L20.4456 17.0971C20.3268 17.2152 20.3142 17.4035 20.4155 17.5366L21.1111 18.454C20.9805 18.7027 20.8734 18.9621 20.7913 19.2292L19.6521 19.3865C19.4863 19.4091 19.3633 19.5506 19.3633 19.718V19.7582C19.3633 19.9432 19.5131 20.093 19.6981 20.093C19.7718 20.093 19.8404 20.0696 19.8957 20.0286L21.1002 19.862C21.235 19.8436 21.3455 19.7448 21.379 19.6126C21.4694 19.2568 21.61 18.9144 21.7983 18.5947C21.867 18.4775 21.8586 18.331 21.7766 18.223L21.1261 17.3642L21.9549 16.538L22.8103 17.1884C22.9192 17.2713 23.0682 17.2788 23.1845 17.2093C23.4976 17.0218 23.8391 16.8803 24.2007 16.7874C24.333 16.7539 24.4309 16.6434 24.4494 16.5087L24.5967 15.4414H25.7677L25.9151 16.5087C25.9335 16.6434 26.0323 16.7531 26.1637 16.7874C26.5261 16.8803 26.8668 17.0218 27.1749 17.2085C27.2921 17.2788 27.4411 17.2712 27.5499 17.1884L28.4087 16.5379L29.2349 17.365L28.587 18.2238C28.505 18.3318 28.4966 18.4783 28.5661 18.5955C28.7536 18.9153 28.8951 19.2568 28.9855 19.6134C29.019 19.7456 29.1295 19.8444 29.2642 19.8628L30.3315 20.0102V21.1779L29.2642 21.3252C29.1295 21.3436 29.019 21.4424 28.9855 21.5746C28.8951 21.9304 28.7544 22.2728 28.5661 22.5925C28.4975 22.7097 28.5058 22.8554 28.587 22.9642L29.2349 23.823L28.4087 24.6501L27.5499 23.9997C27.4411 23.9176 27.2937 23.9092 27.1765 23.9787C26.8585 24.1679 26.5169 24.3102 26.1628 24.4006C26.0314 24.4341 25.9327 24.5446 25.9142 24.6794L25.7669 25.7466H24.6753C24.4903 25.7466 24.3405 25.8965 24.3405 26.0815C24.3405 26.2665 24.4903 26.4163 24.6753 26.4163H26.0582C26.2256 26.4163 26.3671 26.2933 26.3897 26.1275L26.547 24.9874C26.8132 24.9045 27.071 24.7966 27.3197 24.666L28.2363 25.3607C28.3693 25.462 28.5569 25.4486 28.6749 25.3306L29.9137 24.0918C30.0318 23.9737 30.0452 23.7871 29.9439 23.6531L29.2516 22.7357C29.3822 22.4871 29.4893 22.2276 29.5714 21.9606L30.7106 21.8032C30.8764 21.7806 30.9994 21.6391 30.9994 21.4717V19.7205C30.9994 19.5531 30.8764 19.4117 30.7106 19.3891L30.7115 19.3865Z" fill="#FD1716"/>
<path d="M27.6474 20.5933C27.6474 19.2347 26.5425 18.1289 25.1831 18.1289C23.8245 18.1289 22.7188 19.2338 22.7188 20.5933C22.7188 21.9518 23.8237 23.0576 25.1831 23.0576C26.5417 23.0576 27.6474 21.9527 27.6474 20.5933ZM23.3893 20.5933C23.3893 19.6038 24.1945 18.7986 25.184 18.7986C26.1734 18.7986 26.9786 19.6038 26.9786 20.5933C26.9786 21.5827 26.1734 22.3879 25.184 22.3879C24.1945 22.3879 23.3893 21.5827 23.3893 20.5933Z" fill="#FD1716"/>
<path d="M12.4272 19.1855C12.5101 19.4533 12.6172 19.7128 12.747 19.9606L12.0547 20.878C11.9543 21.0111 11.9677 21.1986 12.0848 21.3167L13.3237 22.5555C13.389 22.6208 13.4744 22.6535 13.5606 22.6535C13.6309 22.6535 13.7029 22.6309 13.7632 22.5857L14.6823 21.8892C14.7015 21.8993 14.7208 21.9085 14.7392 21.9177C14.9058 21.9972 15.1058 21.9269 15.1854 21.7603C15.2649 21.5929 15.1946 21.3937 15.028 21.3141C14.9577 21.2807 14.8882 21.2405 14.8179 21.2011C14.7015 21.1359 14.5576 21.1451 14.4504 21.2254L13.5916 21.8767L12.7654 21.0496L13.4133 20.1908C13.4953 20.0828 13.5037 19.9363 13.4342 19.8191C13.2475 19.5019 13.1061 19.1595 13.0148 18.8013C12.9813 18.669 12.8709 18.5711 12.7361 18.5526L11.6688 18.4053V17.2368L12.7369 17.0861C12.8708 17.0668 12.9813 16.9689 13.0148 16.8375C13.1069 16.4775 13.2475 16.136 13.4334 15.8238C13.5028 15.7066 13.4945 15.5592 13.4124 15.4513L12.7645 14.5924L13.5916 13.7654L14.4504 14.4133C14.5592 14.4953 14.7066 14.5037 14.8229 14.4342C15.136 14.2484 15.4767 14.1077 15.8366 14.0157C15.9689 13.9822 16.0668 13.8717 16.0852 13.7369L16.2326 12.6696H17.4036L17.551 13.7369C17.5694 13.8717 17.6681 13.9813 17.7996 14.0157C18.1578 14.1077 18.5002 14.2484 18.8183 14.435C18.9355 14.5037 19.082 14.4953 19.19 14.4133L20.0454 13.7654L20.8742 14.5924L20.2237 15.4513C20.1417 15.5592 20.1333 15.7057 20.202 15.8229C20.2539 15.9117 20.3024 16.0021 20.3451 16.0933C20.4238 16.2607 20.623 16.3335 20.7904 16.2548C20.9578 16.1762 21.0298 15.9769 20.952 15.8095C20.9319 15.7668 20.911 15.7241 20.8892 15.6823L21.5848 14.764C21.6861 14.6309 21.6727 14.4426 21.5547 14.3245L20.3125 13.0857C20.1936 12.9677 20.0069 12.9551 19.8738 13.0556L18.9598 13.7478C18.712 13.6181 18.4525 13.5109 18.1846 13.4281L18.0272 12.2888C18.0046 12.1231 17.8632 12 17.6958 12H15.9413C15.7738 12 15.6324 12.1231 15.6098 12.2888L15.4524 13.4281C15.1837 13.5109 14.925 13.6172 14.6798 13.747L13.7623 13.0547C13.6284 12.9543 13.4417 12.9677 13.3237 13.0849L12.0849 14.3237C11.9668 14.4417 11.9534 14.6284 12.0547 14.7623L12.747 15.6798C12.6181 15.9259 12.5109 16.1845 12.4281 16.4532L11.288 16.6139C11.1231 16.6374 11 16.7789 11 16.9454V18.6966C11 18.864 11.1231 19.0055 11.2888 19.0281L12.4281 19.1855L12.4272 19.1855Z" fill="#FD1716"/>
<path d="M16.8198 15.3555C15.4613 15.3555 14.3555 16.4604 14.3555 17.8198C14.3555 19.1784 15.4604 20.2842 16.8198 20.2842C18.1784 20.2842 19.2842 19.1792 19.2842 17.8198C19.2842 16.4613 18.1792 15.3555 16.8198 15.3555ZM16.8198 19.6136C15.8304 19.6136 15.0251 18.8084 15.0251 17.819C15.0251 16.8295 15.8304 16.0243 16.8198 16.0243C17.8092 16.0243 18.6145 16.8295 18.6145 17.819C18.6145 18.8084 17.8092 19.6136 16.8198 19.6136Z" fill="#FD1716"/>
</svg>
