<svg width="40" height="40" viewBox="0 0 40 40" fill="none" xmlns="http://www.w3.org/2000/svg">
<rect width="40" height="40" rx="10" fill="white"/>
<path d="M20.9864 15.8789C18.2397 15.8789 16.0312 18.1123 16.0312 20.8341C16.0312 23.555 18.2396 25.8142 20.9864 25.8142C23.7333 25.8142 25.9416 23.5808 25.9416 20.859C25.9416 18.1382 23.7083 15.8789 20.9864 15.8789ZM20.9864 24.9929C18.7019 24.9929 16.8276 23.1186 16.8276 20.8341C16.8276 18.5486 18.6759 16.7002 20.9864 16.7002C23.271 16.7002 25.1453 18.5745 25.1453 20.859C25.1453 23.1445 23.2709 24.9929 20.9864 24.9929Z" fill="#FD1716"/>
<path d="M22.1933 19.6268C22.1933 19.8575 22.3728 20.038 22.6045 20.038C22.8351 20.038 23.0157 19.8585 23.0157 19.6268C23.0157 18.8305 22.3227 18.1887 21.398 18.0353V17.6241C21.398 17.3934 21.2185 17.2129 20.9869 17.2129C20.7562 17.2129 20.5757 17.3924 20.5757 17.6241V18.0353C19.651 18.1897 18.9581 18.8315 18.9581 19.6268C18.9581 20.4231 19.651 21.0649 20.5757 21.2183V22.8359C20.1134 22.7337 19.7794 22.4248 19.7794 22.0658C19.7794 21.8351 19.5999 21.6546 19.3682 21.6546C19.1376 21.6546 18.957 21.8341 18.957 22.0658C18.957 22.862 19.65 23.5039 20.5747 23.6573V24.0685C20.5747 24.2991 20.7542 24.4797 20.9858 24.4797C21.2165 24.4797 21.397 24.3001 21.397 24.0685V23.6573C22.3217 23.5028 23.0146 22.861 23.0146 22.0658C23.0146 21.2695 22.3217 20.6276 21.397 20.4742V18.8566C21.8343 18.985 22.1933 19.2668 22.1933 19.6268ZM19.7804 19.6268C19.7804 19.2678 20.1144 18.985 20.5767 18.8566V20.397C20.1144 20.2686 19.7804 19.9858 19.7804 19.6268ZM22.1933 22.0658C22.1933 22.4248 21.8593 22.7076 21.397 22.8359V21.2956C21.8343 21.4239 22.1933 21.7057 22.1933 22.0658Z" fill="#FD1716"/>
<path d="M19.4219 11.4131V12.8763C19.4219 13.107 19.6014 13.2875 19.8331 13.2875C20.0637 13.2875 20.2442 13.108 20.2442 12.8763V11.4131C20.2442 11.1825 20.0647 11.002 19.8331 11.002C19.6024 11.002 19.4219 11.1815 19.4219 11.4131Z" fill="#FD1716"/>
<path d="M17.6768 28.4844C17.4461 28.4844 17.2656 28.6639 17.2656 28.8956V30.3587C17.2656 30.5894 17.4451 30.7699 17.6768 30.7699C17.9075 30.7699 18.088 30.5904 18.088 30.3587V28.8956C18.087 28.6639 17.9075 28.4844 17.6768 28.4844Z" fill="#FD1716"/>
<path d="M21.9659 28.4844C21.7352 28.4844 21.5547 28.6639 21.5547 28.8956V30.3587C21.5547 30.5894 21.7342 30.7699 21.9659 30.7699C22.1965 30.7699 22.3771 30.5904 22.3771 30.3587V28.8956C22.376 28.6639 22.1965 28.4844 21.9659 28.4844Z" fill="#FD1716"/>
<path d="M11.4112 22.3478H12.8744C13.105 22.3478 13.2855 22.1682 13.2855 21.9366C13.2855 21.7059 13.106 21.5254 12.8744 21.5254H11.4112C11.1805 21.5254 11 21.7049 11 21.9366C11.001 22.1682 11.1805 22.3478 11.4112 22.3478Z" fill="#FD1716"/>
<path d="M30.5619 23.6816H29.0987C28.868 23.6816 28.6875 23.8612 28.6875 24.0928C28.6875 24.3235 28.867 24.504 29.0987 24.504H30.5619C30.7925 24.504 30.973 24.3245 30.973 24.0928C30.972 23.8622 30.7925 23.6816 30.5619 23.6816Z" fill="#FD1716"/>
<path d="M30.5619 19.4219H29.0987C28.868 19.4219 28.6875 19.6014 28.6875 19.8331C28.6875 20.0637 28.867 20.2442 29.0987 20.2442H30.5619C30.7925 20.2442 30.973 20.0647 30.973 19.8331C30.972 19.6014 30.7925 19.4219 30.5619 19.4219Z" fill="#FD1716"/>
<path d="M30.564 17.264H26.5074C25.9939 16.4677 25.301 15.7748 24.5047 15.2874V11.4112C24.5047 11.1806 24.3252 11.0001 24.0935 11.0001C23.8628 11.0001 23.6823 11.1796 23.6823 11.4112V14.8509C23.2711 14.6454 22.8098 14.517 22.3475 14.4147L22.3485 11.4112C22.3485 11.1805 22.169 11 21.9373 11C21.7067 11 21.5262 11.1795 21.5262 11.4112V14.2863C21.3466 14.2603 21.1411 14.2603 20.9355 14.2603C19.9085 14.2603 18.9077 14.4909 18.0341 14.9282L18.0351 11.4112C18.0351 11.1805 17.8556 11 17.624 11C17.3933 11 17.2128 11.1795 17.2128 11.4112V15.3905C16.4937 15.8779 15.8519 16.5198 15.3645 17.2649H15.3134L11.4113 17.2639C11.1806 17.2639 11.0001 17.4434 11.0001 17.6751C11.0001 17.9057 11.1796 18.0863 11.4113 18.0863H15.0055C14.7999 18.4974 14.6465 18.9587 14.5432 19.4211H11.4113C11.1807 19.4211 11.0001 19.6006 11.0001 19.8322C11.0001 20.0629 11.1797 20.2434 11.4113 20.2434H14.4148C14.3888 20.449 14.3888 20.6546 14.3888 20.8592C14.3888 21.8861 14.6194 22.8358 15.0306 23.7094L11.4112 23.7084C11.1805 23.7084 11 23.8879 11 24.1196C11 24.3503 11.1795 24.5308 11.4112 24.5308H15.4927C16.3913 25.8917 17.7772 26.8925 19.421 27.2776V30.3845C19.421 30.6152 19.6005 30.7957 19.8322 30.7957C20.0628 30.7957 20.2433 30.6162 20.2433 30.3845V27.4052C20.5001 27.4312 20.7307 27.4563 20.9875 27.4563C21.9632 27.4563 22.8869 27.2507 23.7093 26.8656V30.3826C23.7093 30.6133 23.8889 30.7938 24.1205 30.7938C24.3512 30.7938 24.5317 30.6143 24.5317 30.3826L24.5307 26.4043C25.9688 25.5057 27.0208 24.0425 27.4058 22.3476H30.5888C30.8195 22.3476 31 22.1681 31 21.9365C31 21.7058 30.8205 21.5253 30.5888 21.5253L27.5342 21.5263C27.5603 21.2956 27.5603 21.064 27.5603 20.8072C27.5603 19.8064 27.3296 18.8817 26.9445 18.0343H30.565C30.7956 18.0343 30.9762 17.8547 30.9762 17.6231C30.9742 17.4446 30.7947 17.264 30.564 17.264ZM20.9877 26.6348C17.8047 26.6348 15.2112 24.0412 15.2112 20.8583C15.2112 17.6753 17.8047 15.0818 20.9877 15.0818C24.1706 15.0818 26.7641 17.6753 26.7641 20.8583C26.7641 24.0423 24.1706 26.6348 20.9877 26.6348Z" fill="#FD1716"/>
</svg>
