<svg width="40" height="40" viewBox="0 0 40 40" fill="none" xmlns="http://www.w3.org/2000/svg">
<rect width="40" height="40" rx="10" fill="white"/>
<path d="M30.6027 28.9629H26.2117C25.9722 28.9629 25.8125 29.1226 25.8125 29.3621C25.8125 29.6016 25.9722 29.7612 26.2117 29.7612H30.6027C30.8422 29.7612 31.0019 29.6016 31.0019 29.3621C31.0019 29.1226 30.8422 28.9629 30.6027 28.9629Z" fill="#FD1716"/>
<path d="M24.6118 23.3745C25.2904 23.3745 25.8094 22.8556 25.8094 22.177C25.8094 21.4983 25.2904 20.9794 24.6118 20.9794C23.9332 20.9794 23.4143 21.4983 23.4143 22.177C23.4143 22.8556 23.4941 22.6161 23.574 22.7757L21.4184 25.051C21.2987 25.0111 21.139 24.9712 21.0193 24.9712C20.6999 24.9712 20.4205 25.0909 20.181 25.2905L18.1851 24.2926V24.1329C18.1851 23.4543 17.6662 22.9354 16.9876 22.9354C16.309 22.9354 15.7901 23.4543 15.7901 24.1329C15.7901 24.8115 15.8699 24.6119 15.9897 24.8115L15.3111 25.7695C15.1913 25.7695 15.1115 25.7296 14.9917 25.7296C14.4728 25.7296 14.0337 26.049 13.8741 26.528H12.9959V11.3992C12.9959 11.1597 12.8362 11 12.5967 11C12.3572 11 12.1975 11.1597 12.1975 11.3992V28.9629H11.3992C11.1597 28.9629 11 29.1225 11 29.362C11 29.6015 11.1597 29.7612 11.3992 29.7612H12.1975V30.5596C12.1975 30.7991 12.3572 30.9587 12.5967 30.9587C12.8362 30.9587 12.9959 30.7991 12.9959 30.5596V29.7612H24.5718C24.8113 29.7612 24.971 29.6015 24.971 29.362C24.971 29.1225 24.8113 28.9629 24.5718 28.9629H13.0357V27.3662H13.9139C14.0736 27.8452 14.5127 28.1645 15.0316 28.1645C15.5505 28.1645 16.2291 27.6456 16.2291 26.967C16.2291 26.2884 16.1493 26.488 16.0295 26.2884L16.7081 25.3304C16.8279 25.3304 16.9077 25.3703 17.0275 25.3703C17.3468 25.3703 17.6262 25.2506 17.8657 25.051L19.8616 26.0489V26.2086C19.8616 26.8871 20.3805 27.4061 21.0591 27.4061C21.7377 27.4061 22.2566 26.8872 22.2566 26.2086C22.2566 25.53 22.1768 25.7695 22.097 25.6098L24.2525 23.3345C24.3723 23.3744 24.532 23.4143 24.6517 23.4143L24.6118 23.3745ZM24.6118 21.7778C24.8513 21.7778 25.011 21.9375 25.011 22.177C25.011 22.4165 24.8513 22.5761 24.6118 22.5761C24.3723 22.5761 24.2127 22.4165 24.2127 22.177C24.2127 21.9375 24.3723 21.7778 24.6118 21.7778ZM15.0316 27.3662C14.7921 27.3662 14.6325 27.2066 14.6325 26.9671C14.6325 26.7276 14.7921 26.5679 15.0316 26.5679C15.2711 26.5679 15.4308 26.7276 15.4308 26.9671C15.4308 27.2066 15.2711 27.3662 15.0316 27.3662ZM17.0275 24.5719C16.788 24.5719 16.6283 24.4122 16.6283 24.1727C16.6283 23.9332 16.788 23.7735 17.0275 23.7735C17.267 23.7735 17.4267 23.9332 17.4267 24.1727C17.4267 24.4122 17.267 24.5719 17.0275 24.5719ZM21.0193 26.5678C20.7798 26.5678 20.6201 26.4081 20.6201 26.1686C20.6201 25.9291 20.7798 25.7694 21.0193 25.7694C21.2588 25.7694 21.4184 25.9291 21.4184 26.1686C21.4184 26.4081 21.2588 26.5678 21.0193 26.5678Z" fill="#FD1716"/>
<path d="M14.2351 22.1773H15.0335C15.273 22.1773 15.4326 22.0176 15.4326 21.7781C15.4326 21.5386 15.273 21.3789 15.0335 21.3789H14.2351C13.9956 21.3789 13.8359 21.5386 13.8359 21.7781C13.8359 22.0176 13.9956 22.1773 14.2351 22.1773Z" fill="#FD1716"/>
<path d="M16.6296 21.3789C16.3901 21.3789 16.2305 21.5386 16.2305 21.7781C16.2305 22.0176 16.3901 22.1773 16.6296 22.1773H17.428C17.6675 22.1773 17.8272 22.0176 17.8272 21.7781C17.8272 21.5386 17.6675 21.3789 17.428 21.3789H16.6296Z" fill="#FD1716"/>
<path d="M19.0242 21.3789C18.7847 21.3789 18.625 21.5386 18.625 21.7781C18.625 22.0176 18.7847 22.1773 19.0242 22.1773H19.8225C20.062 22.1773 20.2217 22.0176 20.2217 21.7781C20.2217 21.5386 20.062 21.3789 19.8225 21.3789H19.0242Z" fill="#FD1716"/>
<path d="M21.4187 21.3789C21.1792 21.3789 21.0195 21.5386 21.0195 21.7781C21.0195 22.0176 21.1792 22.1773 21.4187 22.1773H22.2171C22.4566 22.1773 22.6162 22.0176 22.6162 21.7781C22.6162 21.5386 22.4566 21.3789 22.2171 21.3789H21.4187Z" fill="#FD1716"/>
<path d="M17.8281 18.9835C18.0676 18.9835 18.2272 18.8239 18.2272 18.5844V17.3868C18.2272 17.1473 18.0676 16.9877 17.8281 16.9877C17.5886 16.9877 17.4289 17.1473 17.4289 17.3868V18.1453C15.8721 17.9457 14.6345 16.5885 14.6345 14.9917C14.6345 13.395 16.0716 11.7983 17.8279 11.7983C19.5843 11.7983 19.744 12.2774 20.3028 12.9959H19.0255C18.786 12.9959 18.6263 13.1555 18.6263 13.395C18.6263 13.6346 18.786 13.7942 19.0255 13.7942H20.7818C20.9016 14.0337 20.9415 14.3131 20.9814 14.5926H17.8279C17.5884 14.5926 17.4287 14.7522 17.4287 14.9917V15.7901C17.4287 16.0296 17.5884 16.1893 17.8279 16.1893C18.0674 16.1893 18.2271 16.0296 18.2271 15.7901V15.3909H21.4205C21.66 15.3909 21.8196 15.2313 21.8196 14.9917C21.8196 14.5926 21.7398 14.1535 21.62 13.7942H27.408V14.5926C27.408 14.8321 27.5677 14.9917 27.8072 14.9917C28.0467 14.9917 28.2064 14.8321 28.2064 14.5926V13.395C28.2064 13.1555 28.0467 12.9959 27.8072 12.9959H21.2607C20.5821 11.7983 19.2648 11 17.8277 11C15.6322 11 13.8359 12.7963 13.8359 14.9917C13.8359 17.1872 15.6322 18.9835 17.8277 18.9835L17.8281 18.9835Z" fill="#FD1716"/>
<path d="M23.0151 16.1883H19.4226C19.1831 16.1883 19.0234 16.3479 19.0234 16.5874V20.1799C19.0234 20.4194 19.1831 20.5791 19.4226 20.5791C21.6181 20.5791 23.4144 18.7828 23.4144 16.5873C23.4144 14.3918 23.2546 16.1883 23.0151 16.1883ZM19.8217 19.7408V16.9866H22.5759C22.3763 18.4236 21.2586 19.5812 19.8217 19.7408Z" fill="#FD1716"/>
<path d="M25.0125 19.7808H29.8026C30.0421 19.7808 30.2017 19.6211 30.2017 19.3816C30.2017 19.1421 30.0421 18.9824 29.8026 18.9824H25.0125C24.773 18.9824 24.6133 19.1421 24.6133 19.3816C24.6133 19.6211 24.773 19.7808 25.0125 19.7808Z" fill="#FD1716"/>
<path d="M25.0125 18.1851H28.2059C28.4454 18.1851 28.605 18.0254 28.605 17.7859C28.605 17.5464 28.4454 17.3867 28.2059 17.3867H25.0125C24.773 17.3867 24.6133 17.5464 24.6133 17.7859C24.6133 18.0254 24.773 18.1851 25.0125 18.1851Z" fill="#FD1716"/>
<path d="M24.6133 16.1882C24.6133 16.4277 24.773 16.5874 25.0125 16.5874H30.6009C30.8404 16.5874 31.0001 16.4277 31.0001 16.1882C31.0001 15.9487 30.8404 15.7891 30.6009 15.7891H25.0125C24.773 15.7891 24.6133 15.9487 24.6133 16.1882Z" fill="#FD1716"/>
</svg>
