<svg width="40" height="40" viewBox="0 0 40 40" fill="none" xmlns="http://www.w3.org/2000/svg">
<rect width="40" height="40" rx="10" fill="white"/>
<path d="M25.5313 21.375V20.625C25.5313 20.1407 25.1876 19.7344 24.7345 19.6406C24.6876 19.5313 24.6407 19.4063 24.5938 19.2969C24.8438 18.9063 24.8126 18.3906 24.4688 18.0469L23.9376 17.5156C23.7501 17.3281 23.5001 17.2187 23.2345 17.2187C23.0313 17.2187 22.8438 17.2812 22.6876 17.3906C22.5782 17.3437 22.4688 17.2969 22.3438 17.25C22.2501 16.8125 21.8594 16.4688 21.375 16.4688H20.625C20.1406 16.4688 19.7344 16.8125 19.6406 17.2656C19.5313 17.3125 19.4063 17.3594 19.2969 17.4063C19.1406 17.2969 18.9531 17.2344 18.75 17.2344C18.4844 17.2344 18.2344 17.3438 18.0469 17.5313L17.5156 18.0625C17.1719 18.4063 17.1406 18.9219 17.3906 19.3125C17.3437 19.4219 17.2969 19.5313 17.25 19.6563C16.8125 19.75 16.4688 20.1407 16.4688 20.6251V21.3751C16.4688 21.8594 16.8125 22.2657 17.2656 22.3595C17.3125 22.4688 17.3594 22.5938 17.4063 22.7032C17.2969 22.8595 17.2344 23.047 17.2344 23.2501C17.2344 23.5157 17.3438 23.7657 17.5313 23.9532L18.0625 24.4845C18.25 24.672 18.5 24.7814 18.7656 24.7814C18.9688 24.7814 19.1563 24.7189 19.3125 24.6095C19.4219 24.6564 19.5313 24.7032 19.6563 24.7501C19.75 25.2032 20.1563 25.547 20.6407 25.547H21.3907C21.8751 25.547 22.2813 25.2032 22.3751 24.7501C22.4844 24.7032 22.6095 24.6564 22.7188 24.6095C22.8751 24.7189 23.0626 24.7814 23.2657 24.7814C23.5313 24.7814 23.7813 24.672 23.9688 24.4845L24.5001 23.9532C24.6876 23.7657 24.797 23.5157 24.797 23.2501C24.797 23.047 24.7345 22.8595 24.6251 22.7032C24.672 22.5938 24.7188 22.4845 24.7657 22.3595C25.1876 22.2501 25.5313 21.8594 25.5313 21.375ZM24.5313 21.75C24.3751 21.75 24.2344 21.8438 24.1876 22C24.1251 22.2032 24.0469 22.3907 23.9532 22.5626C23.8751 22.7032 23.9063 22.8751 24.0157 22.9844C24.1563 23.1251 24.1563 23.3594 24.0157 23.5157L23.5001 24.0313C23.4219 24.1094 23.3282 24.1407 23.2344 24.1407C23.1407 24.1407 23.0469 24.1094 22.9688 24.0313C22.9063 23.9688 22.8126 23.9219 22.7188 23.9219C22.6563 23.9219 22.6094 23.9376 22.5469 23.9688C22.3751 24.0626 22.1719 24.1407 21.9844 24.2032C21.8438 24.2501 21.7344 24.3907 21.7344 24.547C21.7344 24.7501 21.5626 24.922 21.3594 24.922H20.6094C20.4063 24.922 20.2344 24.7501 20.2344 24.547C20.2344 24.3907 20.1407 24.2501 19.9844 24.2032C19.7813 24.1407 19.5938 24.0626 19.4219 23.9688C19.375 23.9376 19.3125 23.9219 19.25 23.9219C19.1563 23.9219 19.0625 23.9532 19 24.0313C18.9219 24.1094 18.8282 24.1407 18.7344 24.1407C18.6407 24.1407 18.5469 24.1094 18.4688 24.0313L17.9688 23.5001C17.8282 23.3594 17.8282 23.1251 17.9688 22.9688C18.0782 22.8594 18.1094 22.6876 18.0313 22.5469C17.9375 22.3751 17.8594 22.1719 17.7969 21.9844C17.75 21.8438 17.6094 21.7344 17.4531 21.7344C17.25 21.7344 17.0781 21.5625 17.0781 21.3594V20.6094C17.0781 20.4063 17.25 20.2344 17.4531 20.2344C17.6094 20.2344 17.75 20.1407 17.7969 19.9844C17.8594 19.7813 17.9375 19.5938 18.0313 19.4219C18.1094 19.2813 18.0782 19.1094 17.9688 19C17.8282 18.8594 17.8282 18.625 17.9688 18.4688L18.5 17.9375C18.5781 17.8594 18.6719 17.8282 18.7656 17.8282C18.8594 17.8282 18.9531 17.8594 19.0313 17.9375C19.0938 18 19.1875 18.0469 19.2813 18.0469C19.3438 18.0469 19.3906 18.0313 19.4531 18C19.625 17.9063 19.8282 17.8282 20.0157 17.7656C20.1563 17.7188 20.2657 17.5781 20.2657 17.4219C20.2657 17.2188 20.4375 17.0469 20.6407 17.0469H21.3907C21.5938 17.0469 21.7657 17.2188 21.7657 17.4219C21.7657 17.5781 21.8594 17.7188 22.0157 17.7656C22.2188 17.8282 22.4063 17.9063 22.5782 18C22.6251 18.0313 22.6876 18.0469 22.7501 18.0469C22.8438 18.0469 22.9376 18.0157 23.0001 17.9375C23.0782 17.8594 23.1719 17.8282 23.2657 17.8282C23.3594 17.8282 23.4532 17.8594 23.5313 17.9375L24.0625 18.4688C24.2032 18.6094 24.2032 18.8438 24.0625 19C23.9532 19.1094 23.9219 19.2813 24 19.4219C24.0938 19.5938 24.1719 19.7969 24.2344 19.9844C24.2813 20.125 24.4219 20.2344 24.5782 20.2344C24.7813 20.2344 24.9532 20.4063 24.9532 20.6094V21.3594C24.9063 21.5782 24.7345 21.75 24.5313 21.75Z" fill="#FD1716"/>
<path d="M21 15.8438C21.1719 15.8438 21.3125 15.7032 21.3125 15.5313V13.1407C21.7657 13 22.0938 12.5938 22.0938 12.0938C22.0938 11.4844 21.6094 11 21 11C20.3906 11 19.9062 11.4844 19.9062 12.0938C19.9062 12.5938 20.2344 13 20.6875 13.1407V15.5313C20.6875 15.7032 20.8282 15.8438 21 15.8438ZM20.5313 12.0937C20.5313 11.8281 20.7344 11.625 21 11.625C21.2657 11.625 21.4688 11.8281 21.4688 12.0937C21.4688 12.3594 21.2657 12.5625 21 12.5625C20.7344 12.5625 20.5313 12.3594 20.5313 12.0937Z" fill="#FD1716"/>
<path d="M22.25 15.8438C22.4219 15.8438 22.5625 15.7032 22.5625 15.5313V14.5782L23.7188 13.5C23.7813 13.4375 23.8125 13.3594 23.8125 13.2656V12.4063C23.8125 12.2344 23.6719 12.0938 23.5 12.0938C23.3281 12.0938 23.1875 12.2344 23.1875 12.4063V13.125L22.0313 14.2031C21.9688 14.2656 21.9375 14.3594 21.9375 14.4375V15.5313C21.9375 15.7032 22.0781 15.8438 22.25 15.8438Z" fill="#FD1716"/>
<path d="M19.75 15.8438C19.9219 15.8438 20.0625 15.7032 20.0625 15.5313V14.4375C20.0625 14.3438 20.0313 14.2657 19.9688 14.2031L18.8125 13.125V12.4063C18.8125 12.2344 18.6719 12.0938 18.5 12.0938C18.3281 12.0938 18.1875 12.2344 18.1875 12.4063V13.2656C18.1875 13.3594 18.2188 13.4375 18.2813 13.5L19.4375 14.5782V15.5313C19.4375 15.7032 19.5781 15.8438 19.75 15.8438Z" fill="#FD1716"/>
<path d="M21.3125 28.8594V26.4688C21.3125 26.2969 21.1719 26.1562 21 26.1562C20.8281 26.1562 20.6875 26.2969 20.6875 26.4688V28.8594C20.2344 29 19.9062 29.4063 19.9062 29.9063C19.9062 30.5156 20.3906 31 21 31C21.6094 31 22.0938 30.5156 22.0938 29.9063C22.0938 29.4063 21.7656 29 21.3125 28.8594ZM21 30.375C20.7344 30.375 20.5312 30.1719 20.5312 29.9062C20.5312 29.6406 20.7344 29.4375 21 29.4375C21.2656 29.4375 21.4688 29.6406 21.4688 29.9062C21.4688 30.1719 21.2656 30.375 21 30.375Z" fill="#FD1716"/>
<path d="M20.0625 27.5625V26.4688C20.0625 26.2969 19.9219 26.1562 19.75 26.1562C19.5781 26.1562 19.4375 26.2969 19.4375 26.4688V27.4219L18.2813 28.5C18.2188 28.5625 18.1875 28.6406 18.1875 28.7344V29.5938C18.1875 29.7657 18.3281 29.9063 18.5 29.9063C18.6719 29.9063 18.8125 29.7657 18.8125 29.5938V28.875L19.9688 27.7969C20.0313 27.7344 20.0625 27.6407 20.0625 27.5625Z" fill="#FD1716"/>
<path d="M22.5625 27.4219V26.4688C22.5625 26.2969 22.4219 26.1562 22.25 26.1562C22.0781 26.1562 21.9375 26.2969 21.9375 26.4688V27.5625C21.9375 27.6563 21.9688 27.7344 22.0313 27.7969L23.1875 28.875V29.5938C23.1875 29.7657 23.3281 29.9063 23.5 29.9063C23.6719 29.9063 23.8125 29.7657 23.8125 29.5938V28.7344C23.8125 28.6407 23.7813 28.5625 23.7188 28.5L22.5625 27.4219Z" fill="#FD1716"/>
<path d="M29.9063 19.9063C29.4063 19.9063 29 20.2344 28.8594 20.6875H26.4688C26.2969 20.6875 26.1562 20.8282 26.1562 21C26.1562 21.1719 26.2969 21.3125 26.4688 21.3125H28.8594C29 21.7657 29.4063 22.0938 29.9063 22.0938C30.5156 22.0938 31 21.6094 31 21C31 20.3906 30.5156 19.9063 29.9063 19.9063ZM29.9063 21.4688C29.6406 21.4688 29.4375 21.2657 29.4375 21C29.4375 20.7344 29.6406 20.5313 29.9063 20.5313C30.1719 20.5313 30.375 20.7344 30.375 21C30.375 21.2657 30.1719 21.4688 29.9063 21.4688Z" fill="#FD1716"/>
<path d="M29.5938 23.1875H28.875L27.7969 22.0313C27.7344 21.9688 27.6563 21.9375 27.5625 21.9375H26.4688C26.2969 21.9375 26.1562 22.0781 26.1562 22.25C26.1562 22.4219 26.2969 22.5625 26.4688 22.5625H27.4219L28.5 23.7188C28.5625 23.7813 28.6406 23.8125 28.7344 23.8125H29.5938C29.7657 23.8125 29.9063 23.6719 29.9063 23.5C29.9063 23.3281 29.7657 23.1875 29.5938 23.1875Z" fill="#FD1716"/>
<path d="M28.7344 18.1875C28.6406 18.1875 28.5625 18.2188 28.5 18.2813L27.4219 19.4375H26.4688C26.2969 19.4375 26.1562 19.5781 26.1562 19.75C26.1562 19.9219 26.2969 20.0625 26.4688 20.0625H27.5625C27.6563 20.0625 27.7344 20.0313 27.7969 19.9688L28.875 18.8125H29.5938C29.7657 18.8125 29.9063 18.6719 29.9063 18.5C29.9063 18.3281 29.7657 18.1875 29.5938 18.1875H28.7344Z" fill="#FD1716"/>
<path d="M13.1407 21.3125H15.5313C15.7032 21.3125 15.8438 21.1719 15.8438 21C15.8438 20.8281 15.7032 20.6875 15.5313 20.6875H13.1407C13 20.2344 12.5938 19.9062 12.0938 19.9062C11.4844 19.9062 11 20.3906 11 21C11 21.6094 11.4844 22.0938 12.0938 22.0938C12.5938 22.0938 13 21.7656 13.1407 21.3125ZM11.625 21C11.625 20.7344 11.8281 20.5312 12.0938 20.5312C12.3594 20.5312 12.5626 20.7344 12.5626 21C12.5626 21.2656 12.3594 21.4688 12.0938 21.4688C11.8281 21.4688 11.625 21.2656 11.625 21Z" fill="#FD1716"/>
<path d="M12.4062 18.8125H13.125L14.2031 19.9688C14.2656 20.0313 14.3438 20.0625 14.4375 20.0625H15.5313C15.7032 20.0625 15.8438 19.9219 15.8438 19.75C15.8438 19.5781 15.7032 19.4375 15.5313 19.4375H14.5782L13.5 18.2813C13.4375 18.2188 13.3594 18.1875 13.2656 18.1875H12.4063C12.2344 18.1875 12.0938 18.3281 12.0938 18.5C12.0938 18.6719 12.2344 18.8125 12.4062 18.8125Z" fill="#FD1716"/>
<path d="M13.5 23.7188L14.5782 22.5625H15.5313C15.7032 22.5625 15.8438 22.4219 15.8438 22.25C15.8438 22.0781 15.7032 21.9375 15.5313 21.9375H14.4375C14.3438 21.9375 14.2657 21.9688 14.2031 22.0313L13.125 23.1875H12.4063C12.2344 23.1875 12.0938 23.3281 12.0938 23.5C12.0938 23.6719 12.2344 23.8125 12.4063 23.8125H13.2656C13.3594 23.8125 13.4375 23.7813 13.5 23.7188Z" fill="#FD1716"/>
<path d="M26.7813 26.3281L25.0938 24.6406C24.9688 24.5156 24.7813 24.5156 24.6563 24.6406C24.5312 24.7656 24.5312 24.9531 24.6563 25.0781L26.3281 26.7813C26.1094 27.2031 26.1719 27.7188 26.5156 28.0782C26.7344 28.2969 27.0157 28.3907 27.2813 28.3907C27.5469 28.3907 27.8438 28.2813 28.0625 28.0782C28.4844 27.6563 28.4844 26.9531 28.0625 26.5313C27.7188 26.1719 27.1875 26.1094 26.7813 26.3281ZM27.625 27.625C27.4375 27.8125 27.1407 27.8125 26.9688 27.625C26.7813 27.4375 26.7813 27.1406 26.9688 26.9688C27.1563 26.7813 27.4532 26.7813 27.625 26.9688C27.8125 27.1563 27.8125 27.4532 27.625 27.625Z" fill="#FD1716"/>
<path d="M25.0156 28.1094L25.0625 26.5313C25.0625 26.4375 25.0313 26.3594 24.9688 26.2969L24.2031 25.5313C24.0781 25.4062 23.8906 25.4062 23.7656 25.5313C23.6406 25.6563 23.6406 25.8438 23.7656 25.9688L24.4375 26.6406L24.3906 28.2188C24.3906 28.3125 24.4219 28.3907 24.4844 28.4532L25.0938 29.0625C25.1563 29.125 25.2344 29.1563 25.3125 29.1563C25.3907 29.1563 25.4688 29.125 25.5313 29.0625C25.6563 28.9375 25.6563 28.75 25.5313 28.625L25.0156 28.1094Z" fill="#FD1716"/>
<path d="M28.4532 24.4844C28.3907 24.4219 28.3125 24.3906 28.2188 24.3906L26.6563 24.4375L25.9844 23.7656C25.8594 23.6406 25.6719 23.6406 25.5469 23.7656C25.4219 23.8906 25.4219 24.0781 25.5469 24.2031L26.3125 24.9688C26.375 25.0313 26.4531 25.0625 26.5469 25.0625L28.125 25.0156L28.6406 25.5313C28.7031 25.5938 28.7813 25.625 28.8594 25.625C28.9375 25.625 29.0157 25.5938 29.0782 25.5313C29.2032 25.4063 29.2032 25.2188 29.0782 25.0938L28.4532 24.4844Z" fill="#FD1716"/>
<path d="M13.9199 15.4688C14.1387 15.6875 14.4199 15.7813 14.6856 15.7813C14.8574 15.7813 15.0449 15.7344 15.2012 15.6563L16.8887 17.3438C16.9512 17.4063 17.0293 17.4375 17.1075 17.4375C17.1856 17.4375 17.2637 17.4063 17.3262 17.3438C17.4512 17.2188 17.4512 17.0313 17.3262 16.9063L15.67 15.2188C15.8887 14.7969 15.8262 14.2813 15.4825 13.9219C15.0606 13.5 14.3575 13.5 13.9356 13.9219C13.4981 14.3594 13.4981 15.0469 13.9199 15.4688ZM14.3731 14.375C14.4668 14.2813 14.5918 14.2344 14.7012 14.2344C14.8262 14.2344 14.9356 14.2813 15.0293 14.375C15.2168 14.5625 15.2168 14.8594 15.0293 15.0313C14.8418 15.2188 14.5449 15.2188 14.3731 15.0313C14.1856 14.8438 14.1856 14.5469 14.3731 14.375Z" fill="#FD1716"/>
<path d="M17.0156 15.7032L17.7812 16.4688C17.8437 16.5313 17.9219 16.5625 18 16.5625C18.0781 16.5625 18.1562 16.5313 18.2188 16.4688C18.3438 16.3438 18.3438 16.1563 18.2188 16.0313L17.5625 15.3438L17.6094 13.7656C17.6094 13.6719 17.5781 13.5938 17.5156 13.5313L16.9063 12.9219C16.7813 12.7969 16.5938 12.7969 16.4688 12.9219C16.3437 13.0469 16.3437 13.2344 16.4688 13.3594L16.9844 13.875L16.9375 15.4688C16.9219 15.5469 16.9687 15.6407 17.0156 15.7032Z" fill="#FD1716"/>
<path d="M12.9375 16.4687C12.8125 16.5937 12.8125 16.7812 12.9375 16.9062L13.5469 17.5156C13.6094 17.5781 13.6875 17.6094 13.7813 17.6094L15.3438 17.5625L16.0157 18.2344C16.0782 18.2969 16.1563 18.3281 16.2344 18.3281C16.3126 18.3281 16.3907 18.2969 16.4532 18.2344C16.5782 18.1094 16.5782 17.9219 16.4532 17.7969L15.6876 17.0312C15.6251 16.9687 15.5469 16.9375 15.4532 16.9375L13.875 16.9844L13.375 16.4688C13.25 16.3437 13.0625 16.3437 12.9375 16.4687Z" fill="#FD1716"/>
<path d="M24.8594 17.4532C24.9375 17.4532 25.0156 17.4219 25.0781 17.3594L26.7813 15.6719C26.9375 15.7657 27.125 15.7969 27.2969 15.7969C27.5782 15.7969 27.8594 15.6875 28.0625 15.4844C28.4844 15.0625 28.4844 14.3594 28.0625 13.9375C27.6407 13.5156 26.9375 13.5156 26.5156 13.9375C26.1719 14.2813 26.1094 14.8125 26.3281 15.2344L24.6406 16.9063C24.5156 17.0313 24.5156 17.2188 24.6406 17.3438C24.7031 17.4219 24.7813 17.4532 24.8594 17.4532ZM26.9688 14.3749C27.0626 14.2812 27.1876 14.2343 27.2969 14.2343C27.4219 14.2343 27.5313 14.2812 27.6251 14.3749C27.8126 14.5624 27.8126 14.8593 27.6251 15.0312C27.4376 15.2187 27.1407 15.2187 26.9688 15.0312C26.7813 14.8437 26.7813 14.5468 26.9688 14.3749Z" fill="#FD1716"/>
<path d="M25.9687 18.2344L26.6406 17.5625L28.2188 17.6094C28.3125 17.6094 28.3906 17.5781 28.4531 17.5156L29.0625 16.9063C29.1875 16.7813 29.1875 16.5938 29.0625 16.4688C28.9375 16.3437 28.75 16.3437 28.625 16.4688L28.1094 16.9844L26.5313 16.9375C26.4375 16.9375 26.3594 16.9687 26.2969 17.0312L25.5313 17.7969C25.4062 17.9219 25.4062 18.1094 25.5313 18.2344C25.5938 18.2969 25.6719 18.3281 25.75 18.3281C25.8281 18.3281 25.9062 18.2969 25.9687 18.2344Z" fill="#FD1716"/>
<path d="M23.9844 16.5625C24.0625 16.5625 24.1406 16.5313 24.2031 16.4688L24.9688 15.7031C25.0313 15.6406 25.0625 15.5625 25.0625 15.4688L25.0157 13.8906L25.5313 13.375C25.6563 13.25 25.6563 13.0625 25.5313 12.9375C25.4063 12.8125 25.2188 12.8125 25.0938 12.9375L24.4844 13.5469C24.4219 13.6094 24.3906 13.6875 24.3906 13.7813L24.4375 15.3438L23.7656 16.0157C23.6406 16.1407 23.6406 16.3282 23.7656 16.4532C23.8281 16.5313 23.9063 16.5625 23.9844 16.5625Z" fill="#FD1716"/>
<path d="M17.3594 25.0938C17.4844 24.9688 17.4844 24.7813 17.3594 24.6563C17.2344 24.5312 17.0469 24.5312 16.9219 24.6563L15.2188 26.3438C14.7969 26.125 14.2813 26.1875 13.9219 26.5313C13.5 26.9532 13.5 27.6563 13.9219 28.0782C14.1406 28.2969 14.4219 28.3907 14.6875 28.3907C14.9531 28.3907 15.25 28.2813 15.4688 28.0782C15.8125 27.7344 15.875 27.2032 15.6563 26.7813L17.3594 25.0938ZM15.0312 27.625C14.8437 27.8125 14.5468 27.8125 14.3749 27.625C14.1874 27.4375 14.1874 27.1406 14.3749 26.9687C14.5624 26.7812 14.8593 26.7812 15.0312 26.9687C15.2187 27.1562 15.2187 27.4531 15.0312 27.625Z" fill="#FD1716"/>
<path d="M15.4688 25.0625C15.5625 25.0625 15.6407 25.0313 15.7032 24.9688L16.4688 24.2031C16.5938 24.0781 16.5938 23.8906 16.4688 23.7656C16.3438 23.6406 16.1563 23.6406 16.0313 23.7656L15.3438 24.4375L13.7656 24.3906C13.6875 24.3906 13.5938 24.4219 13.5313 24.4844L12.9219 25.0938C12.7969 25.2188 12.7969 25.4063 12.9219 25.5313C12.9844 25.5938 13.0625 25.625 13.1406 25.625C13.2188 25.625 13.2969 25.5938 13.3594 25.5313L13.875 25.0157L15.4688 25.0625Z" fill="#FD1716"/>
<path d="M18.2344 25.9688C18.3594 25.8438 18.3594 25.6563 18.2344 25.5313C18.1094 25.4062 17.9219 25.4062 17.7969 25.5313L17.0313 26.2969C16.9687 26.3594 16.9375 26.4375 16.9375 26.5313L16.9844 28.1094L16.4688 28.625C16.3437 28.75 16.3437 28.9375 16.4688 29.0625C16.5313 29.125 16.6094 29.1563 16.6875 29.1563C16.7656 29.1563 16.8438 29.125 16.9063 29.0625L17.5157 28.4531C17.5782 28.3906 17.6094 28.3125 17.6094 28.2188L17.5625 26.6562L18.2344 25.9688Z" fill="#FD1716"/>
<path d="M23.6563 20.6875H23C22.9532 20.3594 22.8282 20.0625 22.6407 19.7969L23.1094 19.3281C23.2344 19.2031 23.2344 19.0156 23.1094 18.8906C22.9844 18.7656 22.7969 18.7656 22.6719 18.8906L22.2031 19.3594C21.9531 19.1719 21.6406 19.0469 21.3125 19V18.3438C21.3125 18.1719 21.1719 18.0312 21 18.0312C20.8281 18.0312 20.6875 18.1719 20.6875 18.3438V19C20.3594 19.0469 20.0625 19.1719 19.7969 19.3594L19.3281 18.8906C19.2031 18.7656 19.0156 18.7656 18.8906 18.8906C18.7656 19.0156 18.7656 19.2031 18.8906 19.3281L19.3594 19.7969C19.1719 20.0469 19.0469 20.3594 19 20.6875H18.3438C18.1719 20.6875 18.0312 20.8281 18.0312 21C18.0312 21.1719 18.1719 21.3125 18.3438 21.3125H19C19.0469 21.6406 19.1719 21.9375 19.3594 22.2031L18.8906 22.6719C18.7656 22.7969 18.7656 22.9844 18.8906 23.1094C18.9687 23.1563 19.0469 23.1875 19.125 23.1875C19.2031 23.1875 19.2813 23.1563 19.3438 23.0938L19.8125 22.625C20.0625 22.8125 20.375 22.9375 20.7032 22.9844V23.6563C20.7032 23.8282 20.8438 23.9688 21.0157 23.9688C21.1875 23.9688 21.3282 23.8282 21.3282 23.6563V23C21.6563 22.9532 21.9532 22.8282 22.2188 22.6407L22.6876 23.1094C22.7188 23.1563 22.7969 23.1876 22.8751 23.1876C22.9532 23.1876 23.0313 23.1563 23.0938 23.0938C23.2188 22.9688 23.2188 22.7813 23.0938 22.6563L22.6251 22.1875C22.8126 21.9375 22.9376 21.625 22.9844 21.2969H23.6563C23.8282 21.2969 23.9688 21.1563 23.9688 20.9844C23.9688 20.8125 23.8282 20.6875 23.6563 20.6875ZM21.0001 22.4063C20.2188 22.4063 19.5938 21.7813 19.5938 21C19.5938 20.2188 20.2188 19.5938 21.0001 19.5938C21.7813 19.5938 22.4063 20.2188 22.4063 21C22.4063 21.7813 21.7813 22.4063 21.0001 22.4063Z" fill="#FD1716"/>
</svg>
