<svg width="40" height="40" viewBox="0 0 40 40" fill="none" xmlns="http://www.w3.org/2000/svg">
<rect width="40" height="40" rx="10" fill="white"/>
<path fill-rule="evenodd" clip-rule="evenodd" d="M21.3751 19.0472C19.7079 19.0472 18.3516 17.6908 18.3516 16.0236C18.3516 14.3563 19.7079 13 21.3751 13C23.0424 13 24.3987 14.3563 24.3987 16.0236C24.3987 17.6909 23.0424 19.0472 21.3751 19.0472ZM21.3751 13.5328C20.0016 13.5328 18.8844 14.6501 18.8844 16.0244C18.8844 17.3979 20.0016 18.5151 21.3751 18.5151C22.7487 18.5151 23.8667 17.3979 23.8667 16.0244C23.8667 14.6509 22.7487 13.5328 21.3751 13.5328Z" fill="#FD1716"/>
<path fill-rule="evenodd" clip-rule="evenodd" d="M21.3766 18.1143C21.2298 18.1143 21.1102 17.9948 21.1102 17.8479V17.6908C20.8399 17.6299 20.6016 17.4705 20.45 17.2314C20.3711 17.1072 20.4078 16.9431 20.5321 16.8642C20.6563 16.7853 20.8204 16.822 20.8993 16.9463C21.0477 17.1807 21.3345 17.2221 21.5516 17.1588C21.636 17.1346 21.911 17.0322 21.9118 16.7392C21.9118 16.6252 21.8603 16.5158 21.7665 16.4314C21.6642 16.3392 21.5251 16.2884 21.3759 16.2884C21.0954 16.2876 20.8313 16.1884 20.6313 16.0095C20.4227 15.8228 20.3078 15.572 20.3086 15.304C20.3102 14.836 20.6321 14.4657 21.111 14.3602V14.1961C21.111 14.0492 21.2305 13.9297 21.3774 13.9297C21.5243 13.9297 21.6438 14.0492 21.6438 14.1961V14.3594C22.0157 14.4414 22.3517 14.6993 22.4337 15.1407C22.461 15.2852 22.3649 15.4243 22.2204 15.4509C22.0782 15.4782 21.9368 15.3821 21.9102 15.2376C21.8493 14.9071 21.5094 14.8485 21.3196 14.8657C21.1 14.886 20.8422 15.0125 20.8422 15.3048C20.8422 15.4188 20.8938 15.5282 20.9875 15.6126C21.0899 15.7048 21.2289 15.7556 21.3782 15.7556C21.6579 15.7563 21.9227 15.8556 22.1228 16.0345C22.3314 16.2212 22.4462 16.472 22.4454 16.74C22.4447 17.1744 22.1525 17.5393 21.7016 17.6697C21.6829 17.6752 21.6633 17.6807 21.6438 17.6853V17.8479C21.6438 17.9947 21.5243 18.1135 21.3774 18.1135L21.3766 18.1143Z" fill="#FD1716"/>
<path fill-rule="evenodd" clip-rule="evenodd" d="M19.1227 29.9671H16.5672C16.4203 29.9671 16.3008 29.8476 16.3008 29.7007V23.0535C16.3008 22.9066 16.4203 22.7871 16.5672 22.7871H19.1227C19.2696 22.7871 19.3892 22.9066 19.3892 23.0535V29.7007C19.3892 29.8476 19.2696 29.9671 19.1227 29.9671ZM16.8336 29.4351H18.8563V23.3199H16.8336V29.4351Z" fill="#FD1716"/>
<path fill-rule="evenodd" clip-rule="evenodd" d="M23.6696 29.9686H21.1141C20.9672 29.9686 20.8477 29.849 20.8477 29.7021V25.6043C20.8477 25.4574 20.9672 25.3379 21.1141 25.3379H23.6696C23.8165 25.3379 23.936 25.4574 23.936 25.6043V29.7021C23.936 29.849 23.8165 29.9686 23.6696 29.9686ZM21.3805 29.4365H23.4032V25.8707H21.3805V29.4365Z" fill="#FD1716"/>
<path fill-rule="evenodd" clip-rule="evenodd" d="M14.5759 29.9677H12.0203C11.8734 29.9677 11.7539 29.8481 11.7539 29.7012V20.5047C11.7539 20.3578 11.8734 20.2383 12.0203 20.2383H14.5759C14.7228 20.2383 14.8423 20.3578 14.8423 20.5047V29.7012C14.8423 29.8481 14.7235 29.9677 14.5759 29.9677ZM12.2867 29.4356H14.3095V20.7711H12.2867V29.4356Z" fill="#FD1716"/>
<path fill-rule="evenodd" clip-rule="evenodd" d="M13.1589 19.1878C13.0909 19.1878 13.0221 19.1613 12.9698 19.1097L12.1479 18.2839C12.0439 18.1792 12.0447 18.0112 12.1486 17.9073L12.9745 17.0854C13.0784 16.9814 13.2471 16.9822 13.351 17.0861C13.455 17.1908 13.4542 17.3588 13.3503 17.4627L12.7127 18.0964L13.3464 18.7331C13.4503 18.837 13.4495 19.0058 13.3456 19.1097C13.294 19.1613 13.2253 19.187 13.1581 19.187L13.1589 19.1878Z" fill="#FD1716"/>
<path fill-rule="evenodd" clip-rule="evenodd" d="M23.6708 23.4605H21.5661C21.4192 23.4605 21.2997 23.3409 21.2997 23.1941V20.9563H17.3002C17.1533 20.9563 17.0346 20.8376 17.0338 20.6907L17.026 18.361H12.3367C12.1898 18.361 12.0703 18.2414 12.0703 18.0945C12.0703 17.9477 12.1899 17.8281 12.3367 17.8281H17.291C17.4379 17.8281 17.5567 17.9469 17.5574 18.0938L17.5652 20.4235H21.5655C21.7124 20.4235 21.8319 20.543 21.8319 20.6899V22.9276H23.6703C23.8172 22.9276 23.9367 23.0472 23.9367 23.1941C23.9367 23.3409 23.818 23.4605 23.6711 23.4605H23.6708Z" fill="#FD1716"/>
<path fill-rule="evenodd" clip-rule="evenodd" d="M27.8307 23.1542C26.0548 23.1542 24.6641 22.2893 24.6641 21.1845C24.6641 20.0805 26.0548 19.2148 27.8307 19.2148C29.6065 19.2148 30.9972 20.0797 30.9972 21.1845C30.9972 22.2885 29.6065 23.1542 27.8307 23.1542ZM27.8307 19.7478C26.4024 19.7478 25.1961 20.4056 25.1961 21.1846C25.1961 21.9635 26.4024 22.6214 27.8307 22.6214C29.2581 22.6214 30.4652 21.9635 30.4652 21.1846C30.4652 20.4056 29.2589 19.7478 27.8307 19.7478Z" fill="#FD1716"/>
<path fill-rule="evenodd" clip-rule="evenodd" d="M27.8307 24.8591C26.0548 24.8591 24.6641 23.9942 24.6641 22.8895C24.6641 22.7426 24.7836 22.623 24.9305 22.623C25.0774 22.623 25.1969 22.7426 25.1969 22.8895C25.1969 23.6684 26.4032 24.3263 27.8314 24.3263C29.2589 24.3263 30.466 23.6684 30.466 22.8895C30.466 22.7426 30.5855 22.623 30.7324 22.623C30.8793 22.623 30.9988 22.7426 30.9988 22.8895C30.9988 23.9934 29.6074 24.8591 27.8322 24.8591H27.8307Z" fill="#FD1716"/>
<path fill-rule="evenodd" clip-rule="evenodd" d="M27.8307 26.5622C26.0548 26.5622 24.6641 25.6974 24.6641 24.5926C24.6641 24.4457 24.7836 24.3262 24.9305 24.3262C25.0774 24.3262 25.1969 24.4457 25.1969 24.5926C25.1969 25.3715 26.4032 26.0294 27.8314 26.0294C29.2589 26.0294 30.466 25.3715 30.466 24.5926C30.466 24.4457 30.5855 24.3262 30.7324 24.3262C30.8793 24.3262 30.9988 24.4457 30.9988 24.5926C30.9988 25.6966 29.6074 26.5622 27.8322 26.5622H27.8307Z" fill="#FD1716"/>
<path fill-rule="evenodd" clip-rule="evenodd" d="M27.8307 28.2654C26.0548 28.2654 24.6641 27.4005 24.6641 26.2957C24.6641 26.1488 24.7836 26.0293 24.9305 26.0293C25.0774 26.0293 25.1969 26.1488 25.1969 26.2957C25.1969 27.0747 26.4032 27.7325 27.8314 27.7325C29.2589 27.7325 30.466 27.0747 30.466 26.2957C30.466 26.1488 30.5855 26.0293 30.7324 26.0293C30.8793 26.0293 30.9988 26.1488 30.9988 26.2957C30.9988 27.3997 29.6074 28.2654 27.8322 28.2654H27.8307Z" fill="#FD1716"/>
<path fill-rule="evenodd" clip-rule="evenodd" d="M27.8307 29.968C26.0548 29.968 24.6641 29.1031 24.6641 27.9991V21.1863C24.6641 21.0395 24.7836 20.9199 24.9305 20.9199C25.0774 20.9199 25.1969 21.0395 25.1969 21.1863V27.9991C25.1969 28.7781 26.4032 29.4359 27.8314 29.4359C29.2589 29.4359 30.466 28.7781 30.466 27.9991V21.1863C30.466 21.0395 30.5855 20.9199 30.7324 20.9199C30.8793 20.9199 30.9988 21.0395 30.9988 21.1863V27.9991C30.9988 29.1031 29.6074 29.968 27.8322 29.968H27.8307Z" fill="#FD1716"/>
<path fill-rule="evenodd" clip-rule="evenodd" d="M24.4212 29.9684H11.2664C11.1195 29.9684 11 29.8488 11 29.702C11 29.5551 11.1195 29.4355 11.2664 29.4355H24.4212C24.5681 29.4355 24.6876 29.5551 24.6876 29.702C24.6876 29.8488 24.5689 29.9684 24.4212 29.9684Z" fill="#FD1716"/>
</svg>
