<svg width="70" height="70" viewBox="0 0 70 70" fill="none" xmlns="http://www.w3.org/2000/svg">
<path d="M63.9112 34.7937H48.2384C47.7798 34.7937 47.4062 35.1673 47.4062 35.6259C47.4062 42.2605 42.0086 47.6604 35.3717 47.6604C28.737 47.6604 23.3371 42.2627 23.3371 35.6259C23.3371 35.1673 22.9635 34.7937 22.5049 34.7937H6.83218C6.37357 34.7937 6 35.1673 6 35.6259C6 37.0558 6.10306 38.4961 6.31175 39.9079C6.46634 40.9669 7.28311 41.7733 8.34455 41.9176L12.3793 42.4586C12.8508 44.0484 13.4897 45.589 14.2859 47.0524L11.815 50.2911C11.1658 51.1413 11.158 52.2904 11.797 53.1483C13.5104 55.4517 15.5483 57.4896 17.8517 59.203C18.7096 59.842 19.8587 59.8342 20.7089 59.185L23.9476 56.7142C25.4084 57.5077 26.9517 58.1467 28.5414 58.6207L29.085 62.6554C29.2267 63.717 30.0357 64.5337 31.0921 64.6882C32.5117 64.8969 33.9442 65 35.3741 65C36.8041 65 38.234 64.8969 39.6536 64.6882C40.7126 64.5337 41.519 63.7169 41.6633 62.6554L42.2043 58.6181C43.7941 58.1466 45.3347 57.5077 46.7981 56.7116L50.0368 59.1824C50.887 59.8317 52.0361 59.8368 52.894 59.2004C55.1974 57.4871 57.2353 55.4491 58.9487 53.1458C59.5877 52.2878 59.5799 51.1387 58.9307 50.2885L56.4599 47.0525C57.2534 45.5917 57.8924 44.0483 58.3664 42.4561L62.4011 41.915C63.4627 41.7733 64.2794 40.9643 64.4339 39.9079C64.6401 38.4961 64.7457 37.0558 64.7457 35.6259C64.7457 35.1673 64.3721 34.7937 63.9135 34.7937L63.9112 34.7937ZM62.7853 39.6657C62.7389 39.9878 62.5019 40.2223 62.1798 40.2661L57.604 40.8793C57.2717 40.9231 56.9986 41.1627 56.911 41.4873C56.4163 43.3114 55.6871 45.0686 54.7441 46.7098C54.5767 47.0009 54.6024 47.3616 54.806 47.6296L57.6066 51.2984C57.8024 51.5561 57.805 51.891 57.6117 52.1513C55.9937 54.3258 54.0691 56.2478 51.8971 57.8659C51.6369 58.0591 51.302 58.0565 51.0443 57.8607L47.3729 55.0575C47.1075 54.854 46.7442 54.8308 46.4531 54.9957C44.8093 55.9387 43.0522 56.6679 41.2332 57.1599C40.9111 57.2475 40.6715 57.5206 40.6251 57.853L40.0119 62.4288C39.9681 62.7508 39.7337 62.9878 39.4116 63.0368C36.7321 63.4284 34.0114 63.4284 31.3318 63.0368C31.0098 62.9904 30.7753 62.7508 30.7315 62.4288L30.1158 57.853C30.072 57.5206 29.8323 57.2475 29.5077 57.1599C27.6862 56.6652 25.929 55.9361 24.2878 54.9957C24.159 54.921 24.0147 54.8849 23.873 54.8849C23.6952 54.8849 23.5174 54.9416 23.368 55.055L19.6965 57.8556C19.4389 58.0514 19.104 58.054 18.8437 57.8607C16.6692 56.2427 14.7472 54.3207 13.1291 52.1461C12.9359 51.8859 12.9385 51.551 13.1343 51.2933L15.9349 47.6218C16.1384 47.3565 16.1616 46.9932 15.9967 46.7021C15.0537 45.0583 14.3246 43.3012 13.8299 41.4796C13.7423 41.1575 13.4692 40.9179 13.1368 40.8715L8.56103 40.2583C8.23897 40.2145 8.00194 39.9801 7.95299 39.658C7.7984 38.5991 7.70565 37.5247 7.67216 36.4503L21.6986 36.4581C22.1289 43.6256 28.0985 49.325 35.3716 49.325C42.6446 49.325 48.6144 43.6259 49.0445 36.4581H63.0657C63.0322 37.5324 62.9399 38.6094 62.7853 39.6657ZM64.7434 5.82903V18.7837C64.7434 19.1212 64.5399 19.4226 64.2307 19.5541C63.919 19.6829 63.5608 19.6108 63.3238 19.3737L59.5467 15.5966L37.7656 37.3757C37.6033 37.538 37.3895 37.6204 37.1782 37.6204C36.9644 37.6204 36.7531 37.538 36.5908 37.3757L23.5253 24.3129L7.2497 33.7091C6.85035 33.9384 6.34279 33.8019 6.11346 33.4051C5.88415 33.0083 6.02071 32.4982 6.41748 32.2689L23.2471 22.5534C23.5743 22.3653 23.9866 22.4194 24.2519 22.6848L37.1782 35.6111L58.9573 13.832C59.2819 13.5073 59.8101 13.5073 60.1348 13.832L63.0796 16.7768V6.66163H52.9671L56.185 9.87962C56.5097 10.2043 56.5097 10.7324 56.185 11.0571L37.7685 29.4737C37.4438 29.7983 36.9156 29.7983 36.591 29.4737L24.4456 17.3283L7.25059 27.2582C6.85124 27.4875 6.34368 27.3509 6.11434 26.9541C5.88504 26.5574 6.02159 26.0472 6.41837 25.8179L24.1675 15.5714C24.4947 15.3834 24.9069 15.4375 25.1722 15.7028L37.1811 27.7117L54.423 10.4698L50.3728 6.41962C50.1358 6.18259 50.0636 5.82447 50.1924 5.51271C50.3213 5.20096 50.6253 5 50.9628 5H63.9175C64.3761 5 64.7497 5.37359 64.7497 5.83218L64.7434 5.82903Z" fill="#FD1716"/>
</svg>
