<svg width="19" height="14" viewBox="0 0 19 14" fill="none" xmlns="http://www.w3.org/2000/svg">
<path d="M11.605 0.292786C11.4175 0.480314 11.3122 0.734622 11.3122 0.999786C11.3122 1.26495 11.4175 1.51926 11.605 1.70679L16.555 6.65679L11.605 11.6068C11.4228 11.7954 11.322 12.048 11.3243 12.3102C11.3266 12.5724 11.4317 12.8232 11.6171 13.0086C11.8026 13.194 12.0534 13.2992 12.3156 13.3015C12.5778 13.3037 12.8304 13.2029 13.019 13.0208L18.676 7.36379C18.8634 7.17626 18.9688 6.92195 18.9688 6.65679C18.9688 6.39162 18.8634 6.13731 18.676 5.94979L13.019 0.292786C12.8314 0.105315 12.5771 0 12.312 0C12.0468 0 11.7925 0.105315 11.605 0.292786Z" fill="url(#paint0_linear_5551_3399)"/>
<path d="M5.94871 0.292786C5.76124 0.480314 5.65593 0.734622 5.65593 0.999786C5.65593 1.26495 5.76124 1.51926 5.94871 1.70679L10.8987 6.65679L5.94871 11.6068C5.76656 11.7954 5.66576 12.048 5.66804 12.3102C5.67032 12.5724 5.77549 12.8232 5.9609 13.0086C6.1463 13.194 6.39712 13.2992 6.65931 13.3015C6.92151 13.3037 7.17411 13.2029 7.36271 13.0208L13.0197 7.36379C13.2072 7.17626 13.3125 6.92195 13.3125 6.65679C13.3125 6.39162 13.2072 6.13731 13.0197 5.94979L7.36271 0.292786C7.17519 0.105315 6.92088 0 6.65571 0C6.39055 0 6.13624 0.105315 5.94871 0.292786Z" fill="url(#paint1_linear_5551_3399)"/>
<path d="M0.292464 0.292786C0.104993 0.480314 -0.000322819 0.734622 -0.000322819 0.999786C-0.000322819 1.26495 0.104993 1.51926 0.292464 1.70679L5.24246 6.65679L0.292464 11.6068C0.110306 11.7954 0.00951147 12.048 0.0117898 12.3102C0.0140681 12.5724 0.119237 12.8232 0.304645 13.0086C0.490053 13.194 0.740866 13.2992 1.00306 13.3015C1.26526 13.3037 1.51786 13.2029 1.70646 13.0208L7.36346 7.36379C7.55093 7.17626 7.65625 6.92195 7.65625 6.65679C7.65625 6.39162 7.55093 6.13731 7.36346 5.94979L1.70646 0.292786C1.51894 0.105315 1.26463 0 0.999464 0C0.734299 0 0.479991 0.105315 0.292464 0.292786Z" fill="url(#paint2_linear_5551_3399)"/>
<defs>
<linearGradient id="paint0_linear_5551_3399" x1="15.9941" y1="19.0048" x2="4.52093" y2="13.0208" gradientUnits="userSpaceOnUse">
<stop stop-color="#FF1717"/>
<stop offset="1" stop-color="#FF6461"/>
</linearGradient>
<linearGradient id="paint1_linear_5551_3399" x1="10.3378" y1="19.0048" x2="-1.13532" y2="13.0208" gradientUnits="userSpaceOnUse">
<stop stop-color="#FF1717"/>
<stop offset="1" stop-color="#FF6461"/>
</linearGradient>
<linearGradient id="paint2_linear_5551_3399" x1="4.68156" y1="19.0048" x2="-6.79157" y2="13.0208" gradientUnits="userSpaceOnUse">
<stop stop-color="#FF1717"/>
<stop offset="1" stop-color="#FF6461"/>
</linearGradient>
</defs>
</svg>
