<svg width="25" height="25" viewBox="0 0 25 25" fill="none" xmlns="http://www.w3.org/2000/svg">
<path d="M19.7917 2.08333H5.20833C4.58333 2.08333 4.16667 1.66667 4.16667 1.04167C4.16667 0.416667 4.58333 0 5.20833 0H19.7917C20.4167 0 20.8333 0.416667 20.8333 1.04167C20.8333 1.66667 20.4167 2.08333 19.7917 2.08333ZM19.7917 25H5.20833C4.58333 25 4.16667 24.5833 4.16667 23.9583C4.16667 23.3333 4.58333 22.9167 5.20833 22.9167H19.7917C20.4167 22.9167 20.8333 23.3333 20.8333 23.9583C20.8333 24.5833 20.4167 25 19.7917 25ZM23.9583 20.8333C23.3333 20.8333 22.9167 20.4167 22.9167 19.7917V5.20833C22.9167 4.58333 23.3333 4.16667 23.9583 4.16667C24.5833 4.16667 25 4.58333 25 5.20833V19.7917C25 20.4167 24.5833 20.8333 23.9583 20.8333ZM1.04167 20.8333C0.416667 20.8333 0 20.4167 0 19.7917V5.20833C0 4.58333 0.416667 4.16667 1.04167 4.16667C1.66667 4.16667 2.08333 4.58333 2.08333 5.20833V19.7917C2.08333 20.4167 1.66667 20.8333 1.04167 20.8333ZM19.7917 20.8333H5.20833C4.58333 20.8333 4.16667 20.4167 4.16667 19.7917V5.20833C4.16667 4.58333 4.58333 4.16667 5.20833 4.16667H19.7917C20.4167 4.16667 20.8333 4.58333 20.8333 5.20833V19.7917C20.8333 20.4167 20.4167 20.8333 19.7917 20.8333ZM6.25 18.75H18.75V6.25H6.25V18.75Z" fill="black"/>
</svg>
