<svg width="25" height="25" viewBox="0 0 25 25" fill="none" xmlns="http://www.w3.org/2000/svg">
<path d="M1.8581 23.1169C2.1941 23.4529 2.64982 23.6417 3.125 23.6417H24.25V24.225H3.125C2.49511 24.225 1.89102 23.9748 1.44562 23.5294C1.00022 23.084 0.75 22.4799 0.75 21.85V0.75H1.33333V21.85C1.33333 22.3252 1.5221 22.7809 1.8581 23.1169Z" fill="black" stroke="black" stroke-width="1.5"/>
<path d="M5.95801 19.0417V13.25H6.54134V19.0417H5.95801Z" fill="black" stroke="black" stroke-width="1.5"/>
<path d="M11.167 19.042V11.167H11.7503V19.042H11.167Z" fill="black" stroke="black" stroke-width="1.5"/>
<path d="M16.375 19.042V14.292H16.9583V19.042H16.375Z" fill="black" stroke="black" stroke-width="1.5"/>
<path d="M21.583 19.0417V10.125H22.1663V19.0417H21.583Z" fill="black" stroke="black" stroke-width="1.5"/>
<path d="M11.9888 4.06804L11.4585 3.53771L10.9281 4.06804L6.98659 8.00959L6.57433 7.59733L11.4585 2.7132L16.1365 7.3912L16.6668 7.92153L17.1971 7.3912L23.222 1.36632L23.6343 1.77858L16.6668 8.74605L11.9888 4.06804Z" fill="black" stroke="black" stroke-width="1.5"/>
</svg>
