<svg width="25" height="25" viewBox="0 0 25 25" fill="none" xmlns="http://www.w3.org/2000/svg">
<path d="M20.6475 25H4.36066C3.20414 25 2.09499 24.5406 1.27721 23.7228C0.459425 22.905 0 21.7959 0 20.6393V4.35246C0.00217124 3.19736 0.462554 2.09032 1.2801 1.27431C2.09765 0.458298 3.20556 -2.04063e-06 4.36066 0H20.6475C21.2191 0 21.7851 0.11258 22.3132 0.331311C22.8412 0.550043 23.321 0.870643 23.7252 1.27481C24.1294 1.67897 24.45 2.15878 24.6687 2.68684C24.8874 3.21491 25 3.78089 25 4.35246V20.6393C25 21.7944 24.5417 22.9024 23.7257 23.7199C22.9097 24.5374 21.8026 24.9978 20.6475 25ZM4.36066 2.04918C4.0575 2.0481 3.75711 2.10688 3.47671 2.22215C3.19632 2.33742 2.94144 2.5069 2.72669 2.72089C2.51194 2.93488 2.34155 3.18915 2.22529 3.46913C2.10902 3.74912 2.04918 4.0493 2.04918 4.35246V20.6393C2.04918 21.2524 2.29271 21.8403 2.7262 22.2738C3.15968 22.7073 3.74761 22.9508 4.36066 22.9508H20.6475C20.9507 22.9508 21.2509 22.891 21.5309 22.7747C21.8108 22.6584 22.0651 22.4881 22.2791 22.2733C22.4931 22.0586 22.6626 21.8037 22.7779 21.5233C22.8931 21.2429 22.9519 20.9425 22.9508 20.6393V4.35246C22.9508 3.74159 22.7082 3.15574 22.2762 2.72379C21.8443 2.29185 21.2584 2.04918 20.6475 2.04918H4.36066Z" fill="black"/>
<path d="M9.23796 13.5246C8.955 13.5236 8.67552 13.4621 8.41829 13.3443C8.05852 13.1808 7.75393 12.9165 7.54149 12.5833C7.32906 12.2501 7.21792 11.8624 7.22157 11.4672V1.02459C7.22157 0.752852 7.32952 0.492243 7.52166 0.300095C7.71381 0.107948 7.97442 0 8.24616 0C8.5179 0 8.7785 0.107948 8.97065 0.300095C9.1628 0.492243 9.27075 0.752852 9.27075 1.02459V11.4672L11.197 9.76229C11.559 9.43911 12.0273 9.26049 12.5126 9.26049C12.9978 9.26049 13.4661 9.43911 13.8281 9.76229L15.8035 11.4754L15.738 1.02459C15.738 0.752852 15.8459 0.492243 16.0381 0.300095C16.2302 0.107948 16.4908 0 16.7626 0C17.0343 0 17.2949 0.107948 17.487 0.300095C17.6792 0.492243 17.7871 0.752852 17.7871 1.02459V11.4672C17.7908 11.8624 17.6796 12.2501 17.4672 12.5833C17.2548 12.9165 16.9502 13.1808 16.5904 13.3443C16.2414 13.5048 15.8531 13.56 15.4731 13.5033C15.0931 13.4465 14.738 13.2801 14.4511 13.0246L12.5003 11.3361L10.5494 13.0328C10.187 13.3514 9.72052 13.5263 9.23796 13.5246ZM13.7298 19.9344H6.35272C6.08098 19.9344 5.82037 19.8265 5.62822 19.6343C5.43607 19.4422 5.32812 19.1816 5.32812 18.9098C5.32812 18.6381 5.43607 18.3775 5.62822 18.1853C5.82037 17.9932 6.08098 17.8852 6.35272 17.8852H13.7298C14.0015 17.8852 14.2621 17.9932 14.4543 18.1853C14.6464 18.3775 14.7544 18.6381 14.7544 18.9098C14.7544 19.1816 14.6464 19.4422 14.4543 19.6343C14.2621 19.8265 14.0015 19.9344 13.7298 19.9344Z" fill="black"/>
</svg>
