<svg width="25" height="27" viewBox="0 0 25 27" fill="none" xmlns="http://www.w3.org/2000/svg">
<path d="M24.0769 21.1924V22.1539C24.0769 23.174 23.6717 24.1523 22.9504 24.8736C22.2291 25.5949 21.2508 26.0001 20.2308 26.0001H13.5" stroke="black" stroke-width="1.5" stroke-linecap="round" stroke-linejoin="round"/>
<path d="M24.0769 12.5385H20.2308C19.7207 12.5385 19.2316 12.7411 18.8709 13.1017C18.5103 13.4624 18.3077 13.9515 18.3077 14.4615V19.2692C18.3077 19.7793 18.5103 20.2684 18.8709 20.6291C19.2316 20.9897 19.7207 21.1923 20.2308 21.1923H24.0769V12.5385ZM24.0769 12.5385C24.0769 11.0232 23.7785 9.52279 23.1986 8.12288C22.6187 6.72297 21.7688 5.45098 20.6974 4.37954C19.6259 3.30809 18.354 2.45818 16.954 1.87831C15.5541 1.29845 14.0537 1 12.5385 1C11.0232 1 9.52279 1.29845 8.12288 1.87831C6.72297 2.45818 5.45098 3.30809 4.37954 4.37954C3.30809 5.45098 2.45817 6.72297 1.87831 8.12288C1.29845 9.52279 1 11.0232 1 12.5385M1 12.5385V19.2692C1 19.7793 1.20261 20.2684 1.56326 20.6291C1.9239 20.9897 2.41305 21.1923 2.92308 21.1923H4.84615C5.35619 21.1923 5.84533 20.9897 6.20597 20.6291C6.56662 20.2684 6.76923 19.7793 6.76923 19.2692V14.4615C6.76923 13.9515 6.56662 13.4624 6.20597 13.1017C5.84533 12.7411 5.35619 12.5385 4.84615 12.5385H1Z" stroke="black" stroke-width="1.5" stroke-linecap="round" stroke-linejoin="round"/>
</svg>
