<svg width="27" height="27" viewBox="0 0 27 27" fill="none" xmlns="http://www.w3.org/2000/svg">
<path d="M1.20919 15.7789C0.666788 12.8512 1.18721 9.82608 2.67678 7.24798C4.16635 4.66987 6.52725 2.70812 9.33452 1.71582V11.0912L1.20919 15.7789Z" stroke="black" stroke-width="2" stroke-linecap="round" stroke-linejoin="round"/>
<path d="M13.5017 13.5552V1C15.6919 1.00033 17.8435 1.57606 19.7411 2.66954C21.6387 3.76303 23.2157 5.33588 24.3143 7.2306C25.4128 9.12531 25.9942 11.2754 26.0003 13.4655C26.0065 15.6556 25.4371 17.8089 24.3492 19.7098C23.2613 21.6106 21.6931 23.1923 19.8016 24.2964C17.9102 25.4004 15.7618 25.9882 13.5717 26.0008C11.3816 26.0134 9.22667 25.4504 7.32264 24.3681C5.4186 23.2858 3.83232 21.7223 2.72266 19.8341L13.5017 13.5552Z" stroke="black" stroke-width="2" stroke-linecap="round" stroke-linejoin="round"/>
</svg>
