<svg width="27" height="24" viewBox="0 0 27 24" fill="none" xmlns="http://www.w3.org/2000/svg">
<path d="M1 3.17391V20.5652C1 21.1418 1.22904 21.6947 1.63672 22.1024C2.04441 22.5101 2.59736 22.7391 3.17391 22.7391H24.913C25.2013 22.7391 25.4778 22.6246 25.6816 22.4208C25.8855 22.2169 26 21.9405 26 21.6522V6.43478C26 6.1465 25.8855 5.87003 25.6816 5.66619C25.4778 5.46234 25.2013 5.34783 24.913 5.34783H3.17391C2.59736 5.34783 2.04441 5.11879 1.63672 4.7111C1.22904 4.30341 1 3.75047 1 3.17391ZM1 3.17391C1 2.59736 1.22904 2.04441 1.63672 1.63672C2.04441 1.22904 2.59736 1 3.17391 1H21.6522" stroke="black" stroke-width="2" stroke-linecap="round" stroke-linejoin="round"/>
<path d="M20.022 15.13C20.9225 15.13 21.6525 14.4 21.6525 13.4996C21.6525 12.5991 20.9225 11.8691 20.022 11.8691C19.1216 11.8691 18.3916 12.5991 18.3916 13.4996C18.3916 14.4 19.1216 15.13 20.022 15.13Z" fill="black"/>
</svg>
