<svg width="24" height="25" viewBox="0 0 24 25" fill="none" xmlns="http://www.w3.org/2000/svg">
<mask id="path-1-inside-1_749_1046" fill="white">
<path d="M7.91667 20.8337H7.5V17.9378C7.50012 17.8647 7.48101 17.7929 7.44458 17.7295L4.56458 12.7428C4.5468 12.7123 4.52732 12.6828 4.50625 12.6545C4.37296 12.4579 4.19951 12.2917 3.99734 12.1669C3.79517 12.0422 3.56887 11.9617 3.33333 11.9307V8.33366C3.33333 7.89163 3.15774 7.46771 2.84518 7.15515C2.53262 6.84259 2.10869 6.66699 1.66667 6.66699C1.22464 6.66699 0.800716 6.84259 0.488155 7.15515C0.175595 7.46771 4.58301e-08 7.89163 4.58301e-08 8.33366V18.3337C-4.43298e-05 18.4283 0.032138 18.5202 0.09125 18.5941L1.66667 20.5632V20.8337H1.25C1.13949 20.8337 1.03351 20.8776 0.955372 20.9557C0.877232 21.0338 0.833333 21.1398 0.833333 21.2503V24.5837C0.833333 24.6942 0.877232 24.8001 0.955372 24.8783C1.03351 24.9564 1.13949 25.0003 1.25 25.0003H7.91667C8.02717 25.0003 8.13315 24.9564 8.2113 24.8783C8.28944 24.8001 8.33333 24.6942 8.33333 24.5837V21.2503C8.33333 21.1398 8.28944 21.0338 8.2113 20.9557C8.13315 20.8776 8.02717 20.8337 7.91667 20.8337ZM2.40875 20.1566L0.833333 18.1874V8.33366C0.833333 8.11265 0.921131 7.90068 1.07741 7.7444C1.23369 7.58812 1.44565 7.50033 1.66667 7.50033C1.88768 7.50033 2.09964 7.58812 2.25592 7.7444C2.4122 7.90068 2.5 8.11265 2.5 8.33366V12.0441C2.42859 12.0716 2.359 12.1036 2.29167 12.1399C1.9098 12.3619 1.63125 12.7259 1.51681 13.1525C1.40237 13.5791 1.46134 14.0337 1.68083 14.417L4.06417 18.542L4.78583 18.1253L2.4025 14.0003C2.2928 13.8092 2.26299 13.5824 2.31956 13.3694C2.37613 13.1564 2.5145 12.9744 2.70458 12.8628C2.78818 12.8141 2.88019 12.7814 2.97583 12.7666C2.99 12.7645 3.10667 12.7499 3.125 12.7499C3.27301 12.7498 3.41824 12.7902 3.545 12.8666C3.65498 12.9289 3.74832 13.0168 3.81708 13.1228C3.825 13.1345 3.83875 13.1557 3.8475 13.1666L6.66667 18.0491V20.8337H2.5V20.417C2.50004 20.3223 2.46786 20.2305 2.40875 20.1566ZM7.5 24.167H1.66667V21.667H7.5V24.167Z"/>
</mask>
<path d="M7.91667 20.8337H7.5V17.9378C7.50012 17.8647 7.48101 17.7929 7.44458 17.7295L4.56458 12.7428C4.5468 12.7123 4.52732 12.6828 4.50625 12.6545C4.37296 12.4579 4.19951 12.2917 3.99734 12.1669C3.79517 12.0422 3.56887 11.9617 3.33333 11.9307V8.33366C3.33333 7.89163 3.15774 7.46771 2.84518 7.15515C2.53262 6.84259 2.10869 6.66699 1.66667 6.66699C1.22464 6.66699 0.800716 6.84259 0.488155 7.15515C0.175595 7.46771 4.58301e-08 7.89163 4.58301e-08 8.33366V18.3337C-4.43298e-05 18.4283 0.032138 18.5202 0.09125 18.5941L1.66667 20.5632V20.8337H1.25C1.13949 20.8337 1.03351 20.8776 0.955372 20.9557C0.877232 21.0338 0.833333 21.1398 0.833333 21.2503V24.5837C0.833333 24.6942 0.877232 24.8001 0.955372 24.8783C1.03351 24.9564 1.13949 25.0003 1.25 25.0003H7.91667C8.02717 25.0003 8.13315 24.9564 8.2113 24.8783C8.28944 24.8001 8.33333 24.6942 8.33333 24.5837V21.2503C8.33333 21.1398 8.28944 21.0338 8.2113 20.9557C8.13315 20.8776 8.02717 20.8337 7.91667 20.8337ZM2.40875 20.1566L0.833333 18.1874V8.33366C0.833333 8.11265 0.921131 7.90068 1.07741 7.7444C1.23369 7.58812 1.44565 7.50033 1.66667 7.50033C1.88768 7.50033 2.09964 7.58812 2.25592 7.7444C2.4122 7.90068 2.5 8.11265 2.5 8.33366V12.0441C2.42859 12.0716 2.359 12.1036 2.29167 12.1399C1.9098 12.3619 1.63125 12.7259 1.51681 13.1525C1.40237 13.5791 1.46134 14.0337 1.68083 14.417L4.06417 18.542L4.78583 18.1253L2.4025 14.0003C2.2928 13.8092 2.26299 13.5824 2.31956 13.3694C2.37613 13.1564 2.5145 12.9744 2.70458 12.8628C2.78818 12.8141 2.88019 12.7814 2.97583 12.7666C2.99 12.7645 3.10667 12.7499 3.125 12.7499C3.27301 12.7498 3.41824 12.7902 3.545 12.8666C3.65498 12.9289 3.74832 13.0168 3.81708 13.1228C3.825 13.1345 3.83875 13.1557 3.8475 13.1666L6.66667 18.0491V20.8337H2.5V20.417C2.50004 20.3223 2.46786 20.2305 2.40875 20.1566ZM7.5 24.167H1.66667V21.667H7.5V24.167Z" fill="black"/>
<path d="M7.5 20.8337H6V22.3337H7.5V20.8337ZM7.5 17.9378L6 17.9353V17.9378H7.5ZM7.44458 17.7295L8.74508 16.982L8.74352 16.9793L7.44458 17.7295ZM4.56458 12.7428L5.86353 11.9926L5.86041 11.9873L4.56458 12.7428ZM4.50625 12.6545L3.26463 13.4961L3.28302 13.5233L3.30257 13.5496L4.50625 12.6545ZM3.33333 11.9307H1.83333V13.2465L3.13792 13.418L3.33333 11.9307ZM3.33333 8.33366H4.83333H3.33333ZM4.58301e-08 8.33366H-1.5H4.58301e-08ZM4.58301e-08 18.3337L1.5 18.3344V18.3337H4.58301e-08ZM0.09125 18.5941L-1.08025 19.5309L-1.08003 19.5311L0.09125 18.5941ZM1.66667 20.5632H3.16667V20.0371L2.83795 19.6262L1.66667 20.5632ZM1.66667 20.8337V22.3337H3.16667V20.8337H1.66667ZM2.40875 20.1566L3.58025 19.2198L3.58003 19.2195L2.40875 20.1566ZM0.833333 18.1874H-0.666667V18.7136L-0.337946 19.1245L0.833333 18.1874ZM2.5 8.33366H1H2.5ZM2.5 12.0441L3.03872 13.444L4 13.0741V12.0441H2.5ZM2.29167 12.1399L1.57922 10.8199L1.55834 10.8312L1.53782 10.8431L2.29167 12.1399ZM1.68083 14.417L0.379149 15.1624L0.382036 15.1674L1.68083 14.417ZM4.06417 18.542L2.76537 19.2924L3.51555 20.5908L4.81418 19.841L4.06417 18.542ZM4.78583 18.1253L5.53585 19.4244L6.83528 18.6741L6.08463 17.3749L4.78583 18.1253ZM2.4025 14.0003L1.10152 14.747L1.1037 14.7507L2.4025 14.0003ZM2.70458 12.8628L1.94866 11.5672L1.94546 11.5691L2.70458 12.8628ZM2.97583 12.7666L2.75759 11.2825L2.74605 11.2843L2.97583 12.7666ZM3.125 12.7499V14.2499L3.12594 14.2499L3.125 12.7499ZM3.545 12.8666L2.77056 14.1512L2.78802 14.1617L2.80577 14.1718L3.545 12.8666ZM3.81708 13.1228L2.5585 13.9389L2.56705 13.9521L2.57587 13.9651L3.81708 13.1228ZM3.8475 13.1666L5.14651 12.4165L5.08797 12.3151L5.01441 12.2241L3.8475 13.1666ZM6.66667 18.0491H8.16667V17.6471L7.96568 17.299L6.66667 18.0491ZM6.66667 20.8337V22.3337H8.16667V20.8337H6.66667ZM2.5 20.8337H1V22.3337H2.5V20.8337ZM2.5 20.417L1 20.4163V20.417H2.5ZM7.5 24.167V25.667H9V24.167H7.5ZM1.66667 24.167H0.166667V25.667H1.66667V24.167ZM1.66667 21.667V20.167H0.166667V21.667H1.66667ZM7.5 21.667H9V20.167H7.5V21.667ZM7.91667 19.3337H7.5V22.3337H7.91667V19.3337ZM9 20.8337V17.9378H6V20.8337H9ZM9 17.9404C9.00057 17.6041 8.91265 17.2736 8.74508 16.982L6.14409 18.477C6.04937 18.3122 5.99968 18.1254 6 17.9353L9 17.9404ZM8.74352 16.9793L5.86351 11.9926L3.26565 13.493L6.14565 18.4797L8.74352 16.9793ZM5.86041 11.9873C5.81453 11.9086 5.76429 11.8325 5.70993 11.7594L3.30257 13.5496C3.29035 13.5331 3.27907 13.516 3.26876 13.4984L5.86041 11.9873ZM5.74787 11.8128C5.49568 11.4408 5.16753 11.1264 4.78503 10.8904L3.20965 13.4435C3.23149 13.457 3.25023 13.4749 3.26463 13.4961L5.74787 11.8128ZM4.78503 10.8904C4.40254 10.6544 3.97437 10.5021 3.52874 10.4435L3.13792 13.418C3.16336 13.4213 3.18781 13.43 3.20965 13.4435L4.78503 10.8904ZM4.83333 11.9307V8.33366H1.83333V11.9307H4.83333ZM4.83333 8.33366C4.83333 7.49381 4.4997 6.68835 3.90584 6.09449L1.78452 8.21581C1.81577 8.24706 1.83333 8.28946 1.83333 8.33366H4.83333ZM3.90584 6.09449C3.31197 5.50062 2.50652 5.16699 1.66667 5.16699V8.16699C1.71087 8.16699 1.75326 8.18455 1.78452 8.21581L3.90584 6.09449ZM1.66667 5.16699C0.826814 5.16699 0.0213599 5.50062 -0.572505 6.09449L1.54882 8.21581C1.58007 8.18455 1.62246 8.16699 1.66667 8.16699V5.16699ZM-0.572505 6.09449C-1.16637 6.68835 -1.5 7.49381 -1.5 8.33366H1.5C1.5 8.28946 1.51756 8.24706 1.54882 8.21581L-0.572505 6.09449ZM-1.5 8.33366V18.3337H1.5V8.33366H-1.5ZM-1.5 18.333C-1.5002 18.7683 -1.35217 19.1908 -1.08025 19.5309L1.26275 17.6573C1.41644 17.8495 1.50012 18.0883 1.5 18.3344L-1.5 18.333ZM-1.08003 19.5311L0.495388 21.5003L2.83795 19.6262L1.26253 17.657L-1.08003 19.5311ZM0.166667 20.5632V20.8337H3.16667V20.5632H0.166667ZM1.66667 19.3337H1.25V22.3337H1.66667V19.3337ZM1.25 19.3337C0.741671 19.3337 0.254159 19.5356 -0.105288 19.895L2.01603 22.0164C1.81287 22.2195 1.53732 22.3337 1.25 22.3337V19.3337ZM-0.105288 19.895C-0.464733 20.2545 -0.666667 20.742 -0.666667 21.2503H2.33333C2.33333 21.5376 2.2192 21.8132 2.01603 22.0164L-0.105288 19.895ZM-0.666667 21.2503V24.5837H2.33333V21.2503H-0.666667ZM-0.666667 24.5837C-0.666667 25.092 -0.464733 25.5795 -0.105288 25.9389L2.01603 23.8176C2.2192 24.0208 2.33333 24.2963 2.33333 24.5837H-0.666667ZM-0.105288 25.9389C0.254159 26.2984 0.741671 26.5003 1.25 26.5003V23.5003C1.53732 23.5003 1.81287 23.6145 2.01603 23.8176L-0.105288 25.9389ZM1.25 26.5003H7.91667V23.5003H1.25V26.5003ZM7.91667 26.5003C8.42499 26.5003 8.91251 26.2984 9.27196 25.9389L7.15064 23.8176C7.3538 23.6145 7.62935 23.5003 7.91667 23.5003V26.5003ZM9.27196 25.9389C9.6314 25.5795 9.83333 25.092 9.83333 24.5837H6.83333C6.83333 24.2963 6.94747 24.0208 7.15064 23.8176L9.27196 25.9389ZM9.83333 24.5837V21.2503H6.83333V24.5837H9.83333ZM9.83333 21.2503C9.83333 20.742 9.6314 20.2545 9.27196 19.895L7.15064 22.0164C6.94747 21.8132 6.83333 21.5376 6.83333 21.2503H9.83333ZM9.27196 19.895C8.91251 19.5356 8.42499 19.3337 7.91667 19.3337V22.3337C7.62935 22.3337 7.3538 22.2195 7.15064 22.0164L9.27196 19.895ZM3.58003 19.2195L2.00461 17.2503L-0.337946 19.1245L1.23747 21.0936L3.58003 19.2195ZM2.33333 18.1874V8.33366H-0.666667V18.1874H2.33333ZM2.33333 8.33366C2.33333 8.51047 2.2631 8.68004 2.13807 8.80506L0.0167509 6.68374C-0.420834 7.12133 -0.666667 7.71482 -0.666667 8.33366H2.33333ZM2.13807 8.80506C2.01305 8.93009 1.84348 9.00033 1.66667 9.00033V6.00033C1.04783 6.00033 0.454335 6.24616 0.0167509 6.68374L2.13807 8.80506ZM1.66667 9.00033C1.48985 9.00033 1.32029 8.93009 1.19526 8.80506L3.31658 6.68374C2.879 6.24616 2.28551 6.00033 1.66667 6.00033V9.00033ZM1.19526 8.80506C1.07024 8.68004 1 8.51047 1 8.33366H4C4 7.71482 3.75417 7.12133 3.31658 6.68374L1.19526 8.80506ZM1 8.33366V12.0441H4V8.33366H1ZM1.96128 10.6442C1.83032 10.6946 1.70271 10.7533 1.57922 10.8199L3.00412 13.4599C3.0153 13.4539 3.02685 13.4486 3.03872 13.444L1.96128 10.6442ZM1.53782 10.8431C0.813482 11.2642 0.28511 11.9547 0.0680333 12.7639L2.96559 13.5412C2.97739 13.4972 3.00612 13.4596 3.04551 13.4367L1.53782 10.8431ZM0.0680333 12.7639C-0.149043 13.5731 -0.0371969 14.4353 0.379159 15.1624L2.98251 13.6716C2.95987 13.632 2.95379 13.5852 2.96559 13.5412L0.0680333 12.7639ZM0.382036 15.1674L2.76537 19.2924L5.36296 17.7916L2.97963 13.6666L0.382036 15.1674ZM4.81418 19.841L5.53585 19.4244L4.03582 16.8263L3.31415 17.243L4.81418 19.841ZM6.08463 17.3749L3.7013 13.2499L1.1037 14.7507L3.48704 18.8757L6.08463 17.3749ZM3.70348 13.2537C3.79055 13.4054 3.81421 13.5854 3.76931 13.7544L0.869812 12.9844C0.711776 13.5795 0.795048 14.2129 1.10152 14.747L3.70348 13.2537ZM3.76931 13.7544C3.72441 13.9235 3.61458 14.068 3.46371 14.1566L1.94546 11.5691C1.41441 11.8807 1.02785 12.3893 0.869812 12.9844L3.76931 13.7544ZM3.4605 14.1584C3.38195 14.2043 3.29549 14.2349 3.20562 14.2489L2.74605 11.2843C2.46489 11.3279 2.19442 11.4238 1.94867 11.5672L3.4605 14.1584ZM3.19407 14.2506C3.1862 14.2518 3.18062 14.2525 3.18053 14.2525C3.17928 14.2527 3.17892 14.2527 3.17974 14.2526C3.18133 14.2524 3.18463 14.252 3.1895 14.2514C3.19923 14.2502 3.21175 14.2486 3.22398 14.2472C3.23721 14.2456 3.24532 14.2448 3.24801 14.2445C3.24977 14.2443 3.24452 14.2449 3.23504 14.2456C3.23029 14.246 3.22014 14.2468 3.20663 14.2476C3.19969 14.248 3.18973 14.2485 3.17763 14.249C3.16624 14.2494 3.14783 14.2499 3.125 14.2499V11.2499C3.05534 11.2499 2.99683 11.2551 2.99278 11.2554C2.97335 11.257 2.95587 11.2587 2.94389 11.2599C2.9191 11.2625 2.89372 11.2654 2.87372 11.2677C2.84206 11.2714 2.78905 11.2779 2.75759 11.2825L3.19407 14.2506ZM3.12594 14.2499C3.00069 14.25 2.87781 14.2158 2.77056 14.1512L4.31944 11.582C3.95867 11.3645 3.54534 11.2496 3.12406 11.2499L3.12594 14.2499ZM2.80577 14.1718C2.70582 14.1152 2.621 14.0353 2.5585 13.9389L5.07567 12.3068C4.87564 11.9983 4.60415 11.7426 4.28423 11.5614L2.80577 14.1718ZM2.57587 13.9651C2.5739 13.9622 2.57228 13.9597 2.57653 13.9661C2.57912 13.97 2.58482 13.9785 2.5913 13.988C2.5976 13.9973 2.60769 14.0121 2.61986 14.0291C2.63031 14.0437 2.65204 14.0737 2.68059 14.1091L5.01441 12.2241C5.02766 12.2405 5.03797 12.254 5.04458 12.2628C5.05145 12.272 5.05687 12.2795 5.06048 12.2845C5.06736 12.2942 5.07188 12.3008 5.07266 12.302C5.07362 12.3034 5.07385 12.3037 5.07136 12.3C5.07053 12.2988 5.06423 12.2893 5.0583 12.2806L2.57587 13.9651ZM2.54849 13.9166L5.36766 18.7991L7.96568 17.299L5.14651 12.4165L2.54849 13.9166ZM5.16667 18.0491V20.8337H8.16667V18.0491H5.16667ZM6.66667 19.3337H2.5V22.3337H6.66667V19.3337ZM4 20.8337V20.417H1V20.8337H4ZM4 20.4177C4.0002 19.9823 3.85217 19.5598 3.58025 19.2198L1.23725 21.0934C1.08356 20.9012 0.999885 20.6624 1 20.4163L4 20.4177ZM7.5 22.667H1.66667V25.667H7.5V22.667ZM3.16667 24.167V21.667H0.166667V24.167H3.16667ZM1.66667 23.167H7.5V20.167H1.66667V23.167ZM6 21.667V24.167H9V21.667H6Z" fill="black" mask="url(#path-1-inside-1_749_1046)"/>
<path d="M20.3568 12.767C20.4508 12.7814 20.5414 12.8132 20.6238 12.8607L20.3568 12.767ZM20.3568 12.767C20.343 12.7649 20.2263 12.7503 20.208 12.7503L20.3568 12.767Z" fill="black" stroke="black" stroke-width="1.5"/>
<mask id="path-4-inside-2_749_1046" fill="white">
<path d="M16.6663 22.5H17.4997V23.3333H16.6663V22.5ZM6.19051 7.07917L7.30801 7.23875C7.38357 7.47365 7.47805 7.70203 7.59051 7.92167L6.91384 8.82417C6.85368 8.90441 6.82448 9.00365 6.8316 9.10369C6.83872 9.20372 6.88168 9.29784 6.95259 9.36875L8.13092 10.5471C8.20184 10.618 8.29595 10.661 8.39599 10.6681C8.49602 10.6752 8.59527 10.646 8.67551 10.5858L9.57801 9.90917C9.79764 10.0216 10.026 10.1161 10.2609 10.1917L10.4205 11.3092C10.4347 11.4084 10.4843 11.4992 10.5601 11.5649C10.6358 11.6305 10.7327 11.6667 10.833 11.6667H12.4997C12.5999 11.6667 12.6968 11.6305 12.7726 11.5649C12.8484 11.4992 12.8979 11.4084 12.9122 11.3092L13.0718 10.1917C13.3067 10.1162 13.5351 10.0217 13.7547 9.90917L14.6576 10.5858C14.7378 10.6459 14.837 10.675 14.9369 10.6679C15.0368 10.6608 15.1309 10.6179 15.2018 10.5471L16.3801 9.36875C16.451 9.29784 16.494 9.20372 16.5011 9.10369C16.5082 9.00365 16.479 8.90441 16.4188 8.82417L15.7418 7.92167C15.8545 7.70212 15.9492 7.47372 16.0247 7.23875L17.1422 7.07917C17.2414 7.06493 17.3322 7.01538 17.3979 6.93961C17.4635 6.86384 17.4997 6.76693 17.4997 6.66667V5C17.4997 4.89973 17.4635 4.80283 17.3979 4.72706C17.3322 4.65129 17.2414 4.60174 17.1422 4.5875L16.0247 4.42792C15.9492 4.19294 15.8545 3.96454 15.7418 3.745L16.4188 2.8425C16.479 2.76226 16.5082 2.66301 16.5011 2.56298C16.494 2.46294 16.451 2.36883 16.3801 2.29792L15.2018 1.11958C15.1309 1.04878 15.0368 1.00589 14.9369 0.998769C14.837 0.991652 14.7378 1.02079 14.6576 1.08083L13.7547 1.7575C13.5351 1.64494 13.3067 1.55046 13.0718 1.475L12.9122 0.3575C12.8979 0.25825 12.8484 0.167463 12.7726 0.101796C12.6968 0.0361292 12.5999 -1.33658e-05 12.4997 3.70782e-09H10.833C10.7327 -1.33658e-05 10.6358 0.0361292 10.5601 0.101796C10.4843 0.167463 10.4347 0.25825 10.4205 0.3575L10.2609 1.475C10.026 1.55056 9.79764 1.64504 9.57801 1.7575L8.67551 1.08083C8.59527 1.02067 8.49602 0.991471 8.39599 0.998589C8.29595 1.00571 8.20184 1.04867 8.13092 1.11958L6.95259 2.29792C6.88168 2.36883 6.83872 2.46294 6.8316 2.56298C6.82448 2.66301 6.85368 2.76226 6.91384 2.8425L7.59051 3.745C7.47805 3.96463 7.38357 4.19302 7.30801 4.42792L6.19051 4.5875C6.09126 4.60174 6.00047 4.65129 5.9348 4.72706C5.86914 4.80283 5.83299 4.89973 5.83301 5V6.66667C5.83299 6.76693 5.86914 6.86384 5.9348 6.93961C6.00047 7.01538 6.09126 7.06493 6.19051 7.07917ZM6.66634 5.36125L7.69259 5.21458C7.77429 5.20295 7.85069 5.16731 7.91212 5.1122C7.97354 5.05708 8.01721 4.98497 8.03759 4.905C8.12515 4.55996 8.26197 4.22934 8.44384 3.92333C8.48599 3.85237 8.50612 3.77049 8.50167 3.68808C8.49722 3.60566 8.46839 3.52643 8.41884 3.46042L7.79717 2.63125L8.46384 1.96458L9.29301 2.58625C9.35902 2.6358 9.43825 2.66462 9.52067 2.66907C9.60308 2.67353 9.68496 2.6534 9.75592 2.61125C10.0619 2.42938 10.3926 2.29255 10.7376 2.205C10.8176 2.18462 10.8897 2.14094 10.9448 2.07952C10.9999 2.0181 11.0355 1.9417 11.0472 1.86L11.1943 0.833333H12.1384L12.2847 1.85958C12.2963 1.94134 12.332 2.01778 12.3872 2.0792C12.4424 2.14063 12.5146 2.18427 12.5947 2.20458C12.9398 2.29195 13.2704 2.42879 13.5763 2.61083C13.6473 2.65289 13.7291 2.67297 13.8114 2.66852C13.8937 2.66407 13.9729 2.63529 14.0388 2.58583L14.8684 1.96417L15.5351 2.63083L14.9134 3.46C14.8638 3.52597 14.8349 3.60518 14.8304 3.6876C14.8259 3.77001 14.8459 3.85192 14.888 3.92292C15.07 4.22909 15.2071 4.55983 15.2951 4.905C15.3155 4.98483 15.3592 5.05681 15.4205 5.11184C15.4818 5.16687 15.5581 5.20248 15.6397 5.21417L16.6663 5.36125V6.30542L15.6401 6.45208C15.5585 6.46377 15.4822 6.49938 15.4209 6.55441C15.3596 6.60944 15.3159 6.68142 15.2955 6.76125C15.2076 7.10642 15.0705 7.43716 14.8884 7.74333C14.8463 7.81433 14.8263 7.89624 14.8308 7.97865C14.8353 8.06107 14.8642 8.14028 14.9138 8.20625L15.5355 9.03542L14.8688 9.70208L14.0393 9.08042C13.9733 9.03096 13.8941 9.00218 13.8118 8.99773C13.7295 8.99328 13.6477 9.01336 13.5768 9.05542C13.2708 9.23746 12.9402 9.3743 12.5951 9.46167C12.515 9.48198 12.4428 9.52562 12.3877 9.58705C12.3325 9.64847 12.2968 9.72491 12.2851 9.80667L12.1384 10.8333H11.1943L11.0476 9.80708C11.036 9.72538 11.0003 9.64898 10.9452 9.58756C10.8901 9.52614 10.818 9.48247 10.738 9.46208C10.393 9.37453 10.0623 9.23771 9.75634 9.05583C9.68538 9.01368 9.6035 8.99356 9.52109 8.99801C9.43867 9.00246 9.35943 9.03129 9.29342 9.08083L8.46426 9.7025L7.79759 9.03583L8.41926 8.20667C8.46881 8.14066 8.49763 8.06142 8.50208 7.97901C8.50653 7.89659 8.48641 7.81471 8.44426 7.74375C8.26239 7.43774 8.12556 7.10712 8.03801 6.76208C8.01762 6.68212 7.97395 6.61 7.91253 6.55489C7.85111 6.49977 7.77471 6.46414 7.69301 6.4525L6.66634 6.30542V5.36125Z"/>
</mask>
<path d="M16.6663 22.5H17.4997V23.3333H16.6663V22.5ZM6.19051 7.07917L7.30801 7.23875C7.38357 7.47365 7.47805 7.70203 7.59051 7.92167L6.91384 8.82417C6.85368 8.90441 6.82448 9.00365 6.8316 9.10369C6.83872 9.20372 6.88168 9.29784 6.95259 9.36875L8.13092 10.5471C8.20184 10.618 8.29595 10.661 8.39599 10.6681C8.49602 10.6752 8.59527 10.646 8.67551 10.5858L9.57801 9.90917C9.79764 10.0216 10.026 10.1161 10.2609 10.1917L10.4205 11.3092C10.4347 11.4084 10.4843 11.4992 10.5601 11.5649C10.6358 11.6305 10.7327 11.6667 10.833 11.6667H12.4997C12.5999 11.6667 12.6968 11.6305 12.7726 11.5649C12.8484 11.4992 12.8979 11.4084 12.9122 11.3092L13.0718 10.1917C13.3067 10.1162 13.5351 10.0217 13.7547 9.90917L14.6576 10.5858C14.7378 10.6459 14.837 10.675 14.9369 10.6679C15.0368 10.6608 15.1309 10.6179 15.2018 10.5471L16.3801 9.36875C16.451 9.29784 16.494 9.20372 16.5011 9.10369C16.5082 9.00365 16.479 8.90441 16.4188 8.82417L15.7418 7.92167C15.8545 7.70212 15.9492 7.47372 16.0247 7.23875L17.1422 7.07917C17.2414 7.06493 17.3322 7.01538 17.3979 6.93961C17.4635 6.86384 17.4997 6.76693 17.4997 6.66667V5C17.4997 4.89973 17.4635 4.80283 17.3979 4.72706C17.3322 4.65129 17.2414 4.60174 17.1422 4.5875L16.0247 4.42792C15.9492 4.19294 15.8545 3.96454 15.7418 3.745L16.4188 2.8425C16.479 2.76226 16.5082 2.66301 16.5011 2.56298C16.494 2.46294 16.451 2.36883 16.3801 2.29792L15.2018 1.11958C15.1309 1.04878 15.0368 1.00589 14.9369 0.998769C14.837 0.991652 14.7378 1.02079 14.6576 1.08083L13.7547 1.7575C13.5351 1.64494 13.3067 1.55046 13.0718 1.475L12.9122 0.3575C12.8979 0.25825 12.8484 0.167463 12.7726 0.101796C12.6968 0.0361292 12.5999 -1.33658e-05 12.4997 3.70782e-09H10.833C10.7327 -1.33658e-05 10.6358 0.0361292 10.5601 0.101796C10.4843 0.167463 10.4347 0.25825 10.4205 0.3575L10.2609 1.475C10.026 1.55056 9.79764 1.64504 9.57801 1.7575L8.67551 1.08083C8.59527 1.02067 8.49602 0.991471 8.39599 0.998589C8.29595 1.00571 8.20184 1.04867 8.13092 1.11958L6.95259 2.29792C6.88168 2.36883 6.83872 2.46294 6.8316 2.56298C6.82448 2.66301 6.85368 2.76226 6.91384 2.8425L7.59051 3.745C7.47805 3.96463 7.38357 4.19302 7.30801 4.42792L6.19051 4.5875C6.09126 4.60174 6.00047 4.65129 5.9348 4.72706C5.86914 4.80283 5.83299 4.89973 5.83301 5V6.66667C5.83299 6.76693 5.86914 6.86384 5.9348 6.93961C6.00047 7.01538 6.09126 7.06493 6.19051 7.07917ZM6.66634 5.36125L7.69259 5.21458C7.77429 5.20295 7.85069 5.16731 7.91212 5.1122C7.97354 5.05708 8.01721 4.98497 8.03759 4.905C8.12515 4.55996 8.26197 4.22934 8.44384 3.92333C8.48599 3.85237 8.50612 3.77049 8.50167 3.68808C8.49722 3.60566 8.46839 3.52643 8.41884 3.46042L7.79717 2.63125L8.46384 1.96458L9.29301 2.58625C9.35902 2.6358 9.43825 2.66462 9.52067 2.66907C9.60308 2.67353 9.68496 2.6534 9.75592 2.61125C10.0619 2.42938 10.3926 2.29255 10.7376 2.205C10.8176 2.18462 10.8897 2.14094 10.9448 2.07952C10.9999 2.0181 11.0355 1.9417 11.0472 1.86L11.1943 0.833333H12.1384L12.2847 1.85958C12.2963 1.94134 12.332 2.01778 12.3872 2.0792C12.4424 2.14063 12.5146 2.18427 12.5947 2.20458C12.9398 2.29195 13.2704 2.42879 13.5763 2.61083C13.6473 2.65289 13.7291 2.67297 13.8114 2.66852C13.8937 2.66407 13.9729 2.63529 14.0388 2.58583L14.8684 1.96417L15.5351 2.63083L14.9134 3.46C14.8638 3.52597 14.8349 3.60518 14.8304 3.6876C14.8259 3.77001 14.8459 3.85192 14.888 3.92292C15.07 4.22909 15.2071 4.55983 15.2951 4.905C15.3155 4.98483 15.3592 5.05681 15.4205 5.11184C15.4818 5.16687 15.5581 5.20248 15.6397 5.21417L16.6663 5.36125V6.30542L15.6401 6.45208C15.5585 6.46377 15.4822 6.49938 15.4209 6.55441C15.3596 6.60944 15.3159 6.68142 15.2955 6.76125C15.2076 7.10642 15.0705 7.43716 14.8884 7.74333C14.8463 7.81433 14.8263 7.89624 14.8308 7.97865C14.8353 8.06107 14.8642 8.14028 14.9138 8.20625L15.5355 9.03542L14.8688 9.70208L14.0393 9.08042C13.9733 9.03096 13.8941 9.00218 13.8118 8.99773C13.7295 8.99328 13.6477 9.01336 13.5768 9.05542C13.2708 9.23746 12.9402 9.3743 12.5951 9.46167C12.515 9.48198 12.4428 9.52562 12.3877 9.58705C12.3325 9.64847 12.2968 9.72491 12.2851 9.80667L12.1384 10.8333H11.1943L11.0476 9.80708C11.036 9.72538 11.0003 9.64898 10.9452 9.58756C10.8901 9.52614 10.818 9.48247 10.738 9.46208C10.393 9.37453 10.0623 9.23771 9.75634 9.05583C9.68538 9.01368 9.6035 8.99356 9.52109 8.99801C9.43867 9.00246 9.35943 9.03129 9.29342 9.08083L8.46426 9.7025L7.79759 9.03583L8.41926 8.20667C8.46881 8.14066 8.49763 8.06142 8.50208 7.97901C8.50653 7.89659 8.48641 7.81471 8.44426 7.74375C8.26239 7.43774 8.12556 7.10712 8.03801 6.76208C8.01762 6.68212 7.97395 6.61 7.91253 6.55489C7.85111 6.49977 7.77471 6.46414 7.69301 6.4525L6.66634 6.30542V5.36125Z" fill="black" stroke="black" stroke-width="3" mask="url(#path-4-inside-2_749_1046)"/>
<mask id="path-5-inside-3_749_1046" fill="white">
<path d="M11.6667 8.333C12.1611 8.333 12.6445 8.18637 13.0556 7.91167C13.4667 7.63696 13.7871 7.24652 13.9764 6.7897C14.1656 6.33289 14.2151 5.83022 14.1186 5.34527C14.0222 4.86032 13.7841 4.41486 13.4344 4.06523C13.0848 3.7156 12.6393 3.47749 12.1544 3.38103C11.6694 3.28457 11.1668 3.33408 10.71 3.5233C10.2531 3.71252 9.8627 4.03295 9.58799 4.44407C9.31329 4.85519 9.16667 5.33854 9.16667 5.83299C9.16733 6.49583 9.43093 7.13133 9.89963 7.60003C10.3683 8.06873 11.0038 8.33233 11.6667 8.333ZM11.6667 4.16633C11.9963 4.16633 12.3185 4.26408 12.5926 4.44721C12.8667 4.63035 13.0803 4.89065 13.2065 5.19519C13.3326 5.49973 13.3656 5.83484 13.3013 6.15815C13.237 6.48145 13.0783 6.77842 12.8452 7.01151C12.6121 7.24459 12.3151 7.40333 11.9918 7.46764C11.6685 7.53195 11.3334 7.49894 11.0289 7.37279C10.7243 7.24665 10.464 7.03303 10.2809 6.75894C10.0977 6.48486 10 6.16263 10 5.83299C10 5.39097 10.1756 4.96704 10.4882 4.65448C10.8007 4.34192 11.2246 4.16633 11.6667 4.16633ZM11.25 1.66633H12.0833V2.49966H11.25V1.66633ZM8.42583 3.18133L9.015 2.59216L9.60417 3.18133L9.015 3.77049L8.42583 3.18133ZM7.5 5.41633H8.33333V6.24966H7.5V5.41633ZM8.42583 8.48466L9.015 7.8955L9.60417 8.48466L9.015 9.07383L8.42583 8.48466ZM11.25 9.16633H12.0833V9.99966H11.25V9.16633ZM13.7292 8.48466L14.3183 7.8955L14.9075 8.48466L14.3183 9.07383L13.7292 8.48466ZM15 5.41633H15.8333V6.24966H15V5.41633ZM13.7292 3.18133L14.3183 2.59216L14.9075 3.18133L14.3183 3.77049L13.7292 3.18133ZM19.1667 3.33299C19.1667 3.22249 19.2106 3.11651 19.2887 3.03837C19.3668 2.96023 19.4728 2.91633 19.5833 2.91633H21.9108L21.3721 3.45508L21.9613 4.04424L23.2113 2.79424C23.2894 2.71611 23.3332 2.61015 23.3332 2.49966C23.3332 2.38918 23.2894 2.28321 23.2113 2.20508L21.9613 0.955078L21.3721 1.54424L21.9108 2.08299H19.5833C19.2518 2.08299 18.9339 2.21469 18.6995 2.44911C18.465 2.68353 18.3333 3.00147 18.3333 3.33299V7.49966H19.1667V3.33299ZM18.3333 8.333H19.1667V9.16633H18.3333V8.333ZM18.3333 9.99966H19.1667V10.833H18.3333V9.99966Z"/>
</mask>
<path d="M11.6667 8.333C12.1611 8.333 12.6445 8.18637 13.0556 7.91167C13.4667 7.63696 13.7871 7.24652 13.9764 6.7897C14.1656 6.33289 14.2151 5.83022 14.1186 5.34527C14.0222 4.86032 13.7841 4.41486 13.4344 4.06523C13.0848 3.7156 12.6393 3.47749 12.1544 3.38103C11.6694 3.28457 11.1668 3.33408 10.71 3.5233C10.2531 3.71252 9.8627 4.03295 9.58799 4.44407C9.31329 4.85519 9.16667 5.33854 9.16667 5.83299C9.16733 6.49583 9.43093 7.13133 9.89963 7.60003C10.3683 8.06873 11.0038 8.33233 11.6667 8.333ZM11.6667 4.16633C11.9963 4.16633 12.3185 4.26408 12.5926 4.44721C12.8667 4.63035 13.0803 4.89065 13.2065 5.19519C13.3326 5.49973 13.3656 5.83484 13.3013 6.15815C13.237 6.48145 13.0783 6.77842 12.8452 7.01151C12.6121 7.24459 12.3151 7.40333 11.9918 7.46764C11.6685 7.53195 11.3334 7.49894 11.0289 7.37279C10.7243 7.24665 10.464 7.03303 10.2809 6.75894C10.0977 6.48486 10 6.16263 10 5.83299C10 5.39097 10.1756 4.96704 10.4882 4.65448C10.8007 4.34192 11.2246 4.16633 11.6667 4.16633ZM11.25 1.66633H12.0833V2.49966H11.25V1.66633ZM8.42583 3.18133L9.015 2.59216L9.60417 3.18133L9.015 3.77049L8.42583 3.18133ZM7.5 5.41633H8.33333V6.24966H7.5V5.41633ZM8.42583 8.48466L9.015 7.8955L9.60417 8.48466L9.015 9.07383L8.42583 8.48466ZM11.25 9.16633H12.0833V9.99966H11.25V9.16633ZM13.7292 8.48466L14.3183 7.8955L14.9075 8.48466L14.3183 9.07383L13.7292 8.48466ZM15 5.41633H15.8333V6.24966H15V5.41633ZM13.7292 3.18133L14.3183 2.59216L14.9075 3.18133L14.3183 3.77049L13.7292 3.18133ZM19.1667 3.33299C19.1667 3.22249 19.2106 3.11651 19.2887 3.03837C19.3668 2.96023 19.4728 2.91633 19.5833 2.91633H21.9108L21.3721 3.45508L21.9613 4.04424L23.2113 2.79424C23.2894 2.71611 23.3332 2.61015 23.3332 2.49966C23.3332 2.38918 23.2894 2.28321 23.2113 2.20508L21.9613 0.955078L21.3721 1.54424L21.9108 2.08299H19.5833C19.2518 2.08299 18.9339 2.21469 18.6995 2.44911C18.465 2.68353 18.3333 3.00147 18.3333 3.33299V7.49966H19.1667V3.33299ZM18.3333 8.333H19.1667V9.16633H18.3333V8.333ZM18.3333 9.99966H19.1667V10.833H18.3333V9.99966Z" fill="black"/>
<path d="M11.6667 8.333L11.6652 9.833H11.6667V8.333ZM9.16667 5.83299H7.66667L7.66667 5.83449L9.16667 5.83299ZM11.25 1.66633V0.166328H9.75V1.66633H11.25ZM12.0833 1.66633H13.5833V0.166328H12.0833V1.66633ZM12.0833 2.49966V3.99966H13.5833V2.49966H12.0833ZM11.25 2.49966H9.75V3.99966H11.25V2.49966ZM8.42583 3.18133L7.36517 2.12067L6.30451 3.18133L7.36517 4.24199L8.42583 3.18133ZM9.015 2.59216L10.0757 1.5315L9.015 0.470841L7.95434 1.5315L9.015 2.59216ZM9.60417 3.18133L10.6648 4.24199L11.7255 3.18133L10.6648 2.12067L9.60417 3.18133ZM9.015 3.77049L7.95434 4.83115L9.015 5.89182L10.0757 4.83115L9.015 3.77049ZM7.5 5.41633V3.91633H6V5.41633H7.5ZM8.33333 5.41633H9.83333V3.91633H8.33333V5.41633ZM8.33333 6.24966V7.74966H9.83333V6.24966H8.33333ZM7.5 6.24966H6V7.74966H7.5V6.24966ZM8.42583 8.48466L7.36517 7.424L6.30451 8.48466L7.36517 9.54532L8.42583 8.48466ZM9.015 7.8955L10.0757 6.83484L9.015 5.77418L7.95434 6.83484L9.015 7.8955ZM9.60417 8.48466L10.6648 9.54532L11.7255 8.48466L10.6648 7.424L9.60417 8.48466ZM9.015 9.07383L7.95434 10.1345L9.015 11.1952L10.0757 10.1345L9.015 9.07383ZM11.25 9.16633V7.66633H9.75V9.16633H11.25ZM12.0833 9.16633H13.5833V7.66633H12.0833V9.16633ZM12.0833 9.99966V11.4997H13.5833V9.99966H12.0833ZM11.25 9.99966H9.75V11.4997H11.25V9.99966ZM13.7292 8.48466L12.6685 7.424L11.6078 8.48466L12.6685 9.54532L13.7292 8.48466ZM14.3183 7.8955L15.379 6.83483L14.3183 5.77418L13.2577 6.83484L14.3183 7.8955ZM14.9075 8.48466L15.9682 9.54532L17.0288 8.48466L15.9682 7.424L14.9075 8.48466ZM14.3183 9.07383L13.2577 10.1345L14.3183 11.1952L15.379 10.1345L14.3183 9.07383ZM15 5.41633V3.91633H13.5V5.41633H15ZM15.8333 5.41633H17.3333V3.91633H15.8333V5.41633ZM15.8333 6.24966V7.74966H17.3333V6.24966H15.8333ZM15 6.24966H13.5V7.74966H15V6.24966ZM13.7292 3.18133L12.6685 2.12067L11.6078 3.18133L12.6685 4.24199L13.7292 3.18133ZM14.3183 2.59216L15.379 1.5315L14.3183 0.470841L13.2577 1.5315L14.3183 2.59216ZM14.9075 3.18133L15.9682 4.24199L17.0288 3.18133L15.9682 2.12067L14.9075 3.18133ZM14.3183 3.77049L13.2577 4.83115L14.3183 5.89182L15.379 4.83116L14.3183 3.77049ZM21.9108 2.91633L22.9715 3.97699L25.5322 1.41633H21.9108V2.91633ZM21.3721 3.45508L20.3114 2.39442L19.2508 3.45508L20.3114 4.51574L21.3721 3.45508ZM21.9613 4.04424L20.9006 5.10491L21.9613 6.16556L23.0219 5.1049L21.9613 4.04424ZM23.2113 2.79424L24.2719 3.8549L24.2721 3.85474L23.2113 2.79424ZM23.2113 2.20508L24.2721 1.14458L24.2719 1.14442L23.2113 2.20508ZM21.9613 0.955078L23.0219 -0.105582L21.9613 -1.16624L20.9006 -0.105583L21.9613 0.955078ZM21.3721 1.54424L20.3114 0.483584L19.2508 1.54424L20.3114 2.6049L21.3721 1.54424ZM21.9108 2.08299V3.58299H25.5322L22.9715 1.02234L21.9108 2.08299ZM18.3333 7.49966H16.8333V8.99966H18.3333V7.49966ZM19.1667 7.49966V8.99966H20.6667V7.49966H19.1667ZM18.3333 8.333V6.833H16.8333V8.333H18.3333ZM19.1667 8.333H20.6667V6.833H19.1667V8.333ZM19.1667 9.16633V10.6663H20.6667V9.16633H19.1667ZM18.3333 9.16633H16.8333V10.6663H18.3333V9.16633ZM18.3333 9.99966V8.49966H16.8333V9.99966H18.3333ZM19.1667 9.99966H20.6667V8.49966H19.1667V9.99966ZM19.1667 10.833V12.333H20.6667V10.833H19.1667ZM18.3333 10.833H16.8333V12.333H18.3333V10.833ZM11.6667 9.833C12.4578 9.833 13.2312 9.5984 13.8889 9.15887L12.2222 6.66446C12.0578 6.77435 11.8644 6.833 11.6667 6.833V9.833ZM13.8889 9.15887C14.5467 8.71935 15.0594 8.09464 15.3622 7.36373L12.5905 6.21568C12.5149 6.3984 12.3867 6.55458 12.2222 6.66446L13.8889 9.15887ZM15.3622 7.36373C15.6649 6.63282 15.7441 5.82856 15.5898 5.05263L12.6475 5.6379C12.686 5.83189 12.6662 6.03295 12.5905 6.21568L15.3622 7.36373ZM15.5898 5.05263C15.4355 4.27671 15.0545 3.56398 14.4951 3.00457L12.3738 5.12589C12.5136 5.26574 12.6089 5.44392 12.6475 5.6379L15.5898 5.05263ZM14.4951 3.00457C13.9357 2.44516 13.223 2.06419 12.447 1.90985L11.8618 4.85221C12.0557 4.89079 12.2339 4.98604 12.3738 5.12589L14.4951 3.00457ZM12.447 1.90985C11.6711 1.75551 10.8668 1.83473 10.1359 2.13748L11.284 4.90912C11.4667 4.83343 11.6678 4.81362 11.8618 4.85221L12.447 1.90985ZM10.1359 2.13748C9.40503 2.44023 8.78031 2.95292 8.34079 3.61071L10.8352 5.27742C10.9451 5.11298 11.1013 4.9848 11.284 4.90912L10.1359 2.13748ZM8.34079 3.61071C7.90126 4.26851 7.66667 5.04187 7.66667 5.83299H10.6667C10.6667 5.63521 10.7253 5.44187 10.8352 5.27742L8.34079 3.61071ZM7.66667 5.83449C7.66773 6.89464 8.08933 7.91106 8.83897 8.66069L10.9603 6.53937C10.7725 6.35161 10.6669 6.09703 10.6667 5.8315L7.66667 5.83449ZM8.83897 8.66069C9.58861 9.41033 10.605 9.83194 11.6652 9.83299L11.6682 6.833C11.4026 6.83273 11.1481 6.72713 10.9603 6.53937L8.83897 8.66069ZM11.6667 5.66633C11.6996 5.66633 11.7319 5.6761 11.7593 5.69442L13.426 3.20001C12.9052 2.85205 12.293 2.66633 11.6667 2.66633V5.66633ZM11.7593 5.69442C11.7867 5.71273 11.808 5.73876 11.8206 5.76921L14.5923 4.62116C14.3526 4.04253 13.9467 3.54797 13.426 3.20001L11.7593 5.69442ZM11.8206 5.76921C11.8333 5.79967 11.8366 5.83318 11.8301 5.86551L14.7725 6.45078C14.8947 5.83651 14.832 5.1998 14.5923 4.62116L11.8206 5.76921ZM11.8301 5.86551C11.8237 5.89784 11.8078 5.92754 11.7845 5.95085L13.9058 8.07217C14.3487 7.6293 14.6503 7.06506 14.7725 6.45078L11.8301 5.86551ZM11.7845 5.95085C11.7612 5.97416 11.7315 5.99003 11.6992 5.99646L12.2845 8.93882C12.8987 8.81663 13.463 8.51503 13.9058 8.07217L11.7845 5.95085ZM11.6992 5.99646C11.6669 6.00289 11.6333 5.99959 11.6029 5.98698L10.4548 8.75861C11.0335 8.99829 11.6702 9.061 12.2845 8.93882L11.6992 5.99646ZM11.6029 5.98698C11.5724 5.97436 11.5464 5.953 11.5281 5.92559L9.03368 7.5923C9.38164 8.11306 9.8762 8.51894 10.4548 8.75861L11.6029 5.98698ZM11.5281 5.92559C11.5098 5.89818 11.5 5.86596 11.5 5.83299H8.5C8.5 6.4593 8.68572 7.07155 9.03368 7.5923L11.5281 5.92559ZM11.5 5.83299C11.5 5.78879 11.5176 5.7464 11.5488 5.71514L9.4275 3.59382C8.83363 4.18769 8.5 4.99314 8.5 5.83299H11.5ZM11.5488 5.71514C11.5801 5.68389 11.6225 5.66633 11.6667 5.66633V2.66633C10.8268 2.66633 10.0214 2.99996 9.4275 3.59382L11.5488 5.71514ZM11.25 3.16633H12.0833V0.166328H11.25V3.16633ZM10.5833 1.66633V2.49966H13.5833V1.66633H10.5833ZM12.0833 0.999661H11.25V3.99966H12.0833V0.999661ZM12.75 2.49966V1.66633H9.75V2.49966H12.75ZM9.48649 4.24199L10.0757 3.65282L7.95434 1.5315L7.36517 2.12067L9.48649 4.24199ZM7.95434 3.65282L8.54351 4.24199L10.6648 2.12067L10.0757 1.5315L7.95434 3.65282ZM8.54351 2.12067L7.95434 2.70984L10.0757 4.83115L10.6648 4.24199L8.54351 2.12067ZM10.0757 2.70984L9.48649 2.12067L7.36517 4.24199L7.95434 4.83115L10.0757 2.70984ZM7.5 6.91633H8.33333V3.91633H7.5V6.91633ZM6.83333 5.41633V6.24966H9.83333V5.41633H6.83333ZM8.33333 4.74966H7.5V7.74966H8.33333V4.74966ZM9 6.24966V5.41633H6V6.24966H9ZM9.48649 9.54532L10.0757 8.95616L7.95434 6.83484L7.36517 7.424L9.48649 9.54532ZM7.95434 8.95616L8.54351 9.54532L10.6648 7.424L10.0757 6.83484L7.95434 8.95616ZM8.54351 7.424L7.95434 8.01317L10.0757 10.1345L10.6648 9.54532L8.54351 7.424ZM10.0757 8.01317L9.48649 7.424L7.36517 9.54532L7.95434 10.1345L10.0757 8.01317ZM11.25 10.6663H12.0833V7.66633H11.25V10.6663ZM10.5833 9.16633V9.99966H13.5833V9.16633H10.5833ZM12.0833 8.49966H11.25V11.4997H12.0833V8.49966ZM12.75 9.99966V9.16633H9.75V9.99966H12.75ZM14.7898 9.54532L15.379 8.95616L13.2577 6.83484L12.6685 7.424L14.7898 9.54532ZM13.2577 8.95616L13.8468 9.54532L15.9682 7.424L15.379 6.83483L13.2577 8.95616ZM13.8468 7.424L13.2577 8.01317L15.379 10.1345L15.9682 9.54532L13.8468 7.424ZM15.379 8.01317L14.7898 7.424L12.6685 9.54532L13.2577 10.1345L15.379 8.01317ZM15 6.91633H15.8333V3.91633H15V6.91633ZM14.3333 5.41633V6.24966H17.3333V5.41633H14.3333ZM15.8333 4.74966H15V7.74966H15.8333V4.74966ZM16.5 6.24966V5.41633H13.5V6.24966H16.5ZM14.7898 4.24199L15.379 3.65282L13.2577 1.5315L12.6685 2.12067L14.7898 4.24199ZM13.2577 3.65282L13.8468 4.24199L15.9682 2.12067L15.379 1.5315L13.2577 3.65282ZM13.8468 2.12067L13.2577 2.70983L15.379 4.83116L15.9682 4.24199L13.8468 2.12067ZM15.379 2.70984L14.7898 2.12067L12.6685 4.24199L13.2577 4.83115L15.379 2.70984ZM20.6667 3.33299C20.6667 3.62031 20.5525 3.89586 20.3494 4.09903L18.228 1.97771C17.8686 2.33715 17.6667 2.82467 17.6667 3.33299H20.6667ZM20.3494 4.09903C20.1462 4.30219 19.8707 4.41633 19.5833 4.41633V1.41633C19.075 1.41633 18.5875 1.61826 18.228 1.97771L20.3494 4.09903ZM19.5833 4.41633H21.9108V1.41633H19.5833V4.41633ZM20.8502 1.85567L20.3114 2.39442L22.4327 4.51574L22.9715 3.97699L20.8502 1.85567ZM20.3114 4.51574L20.9006 5.10491L23.0219 2.98358L22.4327 2.39442L20.3114 4.51574ZM23.0219 5.1049L24.2719 3.8549L22.1506 1.73358L20.9006 2.98358L23.0219 5.1049ZM24.2721 3.85474C24.6314 3.49531 24.8332 3.00789 24.8332 2.49966H21.8332C21.8332 2.2124 21.9473 1.9369 22.1504 1.73374L24.2721 3.85474ZM24.8332 2.49966C24.8332 1.99143 24.6314 1.50401 24.2721 1.14458L22.1504 3.26558C21.9473 3.06242 21.8332 2.78692 21.8332 2.49966H24.8332ZM24.2719 1.14442L23.0219 -0.105582L20.9006 2.01574L22.1506 3.26574L24.2719 1.14442ZM20.9006 -0.105583L20.3114 0.483584L22.4327 2.60491L23.0219 2.01574L20.9006 -0.105583ZM20.3114 2.6049L20.8502 3.14365L22.9715 1.02234L22.4327 0.483585L20.3114 2.6049ZM21.9108 0.582995H19.5833V3.58299H21.9108V0.582995ZM19.5833 0.582995C18.854 0.582995 18.1545 0.872727 17.6388 1.38845L19.7601 3.50977C19.7132 3.55665 19.6496 3.58299 19.5833 3.58299V0.582995ZM17.6388 1.38845C17.1231 1.90417 16.8333 2.60365 16.8333 3.33299H19.8333C19.8333 3.3993 19.807 3.46289 19.7601 3.50977L17.6388 1.38845ZM16.8333 3.33299V7.49966H19.8333V3.33299H16.8333ZM18.3333 8.99966H19.1667V5.99966H18.3333V8.99966ZM20.6667 7.49966V3.33299H17.6667V7.49966H20.6667ZM18.3333 9.833H19.1667V6.833H18.3333V9.833ZM17.6667 8.333V9.16633H20.6667V8.333H17.6667ZM19.1667 7.66633H18.3333V10.6663H19.1667V7.66633ZM19.8333 9.16633V8.333H16.8333V9.16633H19.8333ZM18.3333 11.4997H19.1667V8.49966H18.3333V11.4997ZM17.6667 9.99966V10.833H20.6667V9.99966H17.6667ZM19.1667 9.333H18.3333V12.333H19.1667V9.333ZM19.8333 10.833V9.99966H16.8333V10.833H19.8333Z" fill="black" mask="url(#path-5-inside-3_749_1046)"/>
<mask id="path-7-inside-4_749_1046" fill="white">
<path d="M19.9999 3.74966H20.8332V4.58299H19.9999V3.74966ZM19.9999 5.41633H20.8332V6.24966H19.9999V5.41633ZM1.37199 4.04424L1.96116 3.45508L1.42241 2.91633H3.74991C3.86042 2.91633 3.9664 2.96023 4.04454 3.03837C4.12268 3.11651 4.16658 3.22249 4.16658 3.33299V7.49966H4.99991V3.33299C4.99991 3.00147 4.86822 2.68353 4.63379 2.44911C4.39937 2.21469 4.08143 2.08299 3.74991 2.08299H1.42241L1.96116 1.54424L1.37199 0.955078L0.121994 2.20508C0.0438815 2.28321 0 2.38918 0 2.49966C0 2.61015 0.0438815 2.71611 0.121994 2.79424L1.37199 4.04424ZM4.16658 8.333H4.99991V9.16633H4.16658V8.333ZM4.16658 9.99966H4.99991V10.833H4.16658V9.99966Z"/>
</mask>
<path d="M19.9999 3.74966H20.8332V4.58299H19.9999V3.74966ZM19.9999 5.41633H20.8332V6.24966H19.9999V5.41633ZM1.37199 4.04424L1.96116 3.45508L1.42241 2.91633H3.74991C3.86042 2.91633 3.9664 2.96023 4.04454 3.03837C4.12268 3.11651 4.16658 3.22249 4.16658 3.33299V7.49966H4.99991V3.33299C4.99991 3.00147 4.86822 2.68353 4.63379 2.44911C4.39937 2.21469 4.08143 2.08299 3.74991 2.08299H1.42241L1.96116 1.54424L1.37199 0.955078L0.121994 2.20508C0.0438815 2.28321 0 2.38918 0 2.49966C0 2.61015 0.0438815 2.71611 0.121994 2.79424L1.37199 4.04424ZM4.16658 8.333H4.99991V9.16633H4.16658V8.333ZM4.16658 9.99966H4.99991V10.833H4.16658V9.99966Z" fill="black"/>
<path d="M19.9999 3.74966V2.24966H18.4999V3.74966H19.9999ZM20.8332 3.74966H22.3332V2.24966H20.8332V3.74966ZM20.8332 4.58299V6.08299H22.3332V4.58299H20.8332ZM19.9999 4.58299H18.4999V6.08299H19.9999V4.58299ZM19.9999 5.41633V3.91633H18.4999V5.41633H19.9999ZM20.8332 5.41633H22.3332V3.91633H20.8332V5.41633ZM20.8332 6.24966V7.74966H22.3332V6.24966H20.8332ZM19.9999 6.24966H18.4999V7.74966H19.9999V6.24966ZM1.37199 4.04424L0.311334 5.1049L1.37199 6.16557L2.43265 5.1049L1.37199 4.04424ZM1.96116 3.45508L3.02182 4.51574L4.08248 3.45508L3.02182 2.39442L1.96116 3.45508ZM1.42241 2.91633V1.41633H-2.19891L0.361751 3.97699L1.42241 2.91633ZM4.04454 3.03837L5.1052 1.97771L4.04454 3.03837ZM4.16658 7.49966H2.66658V8.99966H4.16658V7.49966ZM4.99991 7.49966V8.99966H6.49991V7.49966H4.99991ZM1.42241 2.08299L0.361751 1.02233L-2.19891 3.58299H1.42241V2.08299ZM1.96116 1.54424L3.02182 2.6049L4.08248 1.54424L3.02182 0.483584L1.96116 1.54424ZM1.37199 0.955078L2.43265 -0.105582L1.37199 -1.16624L0.311334 -0.105582L1.37199 0.955078ZM0.121994 2.20508L-0.938666 1.14442L-0.938826 1.14458L0.121994 2.20508ZM0.121994 2.79424L-0.938826 3.85474L-0.938666 3.8549L0.121994 2.79424ZM4.16658 8.333V6.833H2.66658V8.333H4.16658ZM4.99991 8.333H6.49991V6.833H4.99991V8.333ZM4.99991 9.16633V10.6663H6.49991V9.16633H4.99991ZM4.16658 9.16633H2.66658V10.6663H4.16658V9.16633ZM4.16658 9.99966V8.49966H2.66658V9.99966H4.16658ZM4.99991 9.99966H6.49991V8.49966H4.99991V9.99966ZM4.99991 10.833V12.333H6.49991V10.833H4.99991ZM4.16658 10.833H2.66658V12.333H4.16658V10.833ZM19.9999 5.24966H20.8332V2.24966H19.9999V5.24966ZM19.3332 3.74966V4.58299H22.3332V3.74966H19.3332ZM20.8332 3.08299H19.9999V6.08299H20.8332V3.08299ZM21.4999 4.58299V3.74966H18.4999V4.58299H21.4999ZM19.9999 6.91633H20.8332V3.91633H19.9999V6.91633ZM19.3332 5.41633V6.24966H22.3332V5.41633H19.3332ZM20.8332 4.74966H19.9999V7.74966H20.8332V4.74966ZM21.4999 6.24966V5.41633H18.4999V6.24966H21.4999ZM2.43265 5.1049L3.02182 4.51574L0.900501 2.39442L0.311334 2.98358L2.43265 5.1049ZM3.02182 2.39442L2.48307 1.85567L0.361751 3.97699L0.9005 4.51574L3.02182 2.39442ZM1.42241 4.41633H3.74991V1.41633H1.42241V4.41633ZM3.74991 4.41633C3.46259 4.41633 3.18704 4.30219 2.98388 4.09903L5.1052 1.97771C4.74575 1.61826 4.25824 1.41633 3.74991 1.41633V4.41633ZM2.98388 4.09903C2.78071 3.89586 2.66658 3.62031 2.66658 3.33299H5.66658C5.66658 2.82466 5.46464 2.33715 5.1052 1.97771L2.98388 4.09903ZM2.66658 3.33299V7.49966H5.66658V3.33299H2.66658ZM4.16658 8.99966H4.99991V5.99966H4.16658V8.99966ZM6.49991 7.49966V3.33299H3.49991V7.49966H6.49991ZM6.49991 3.33299C6.49991 2.60365 6.21018 1.90418 5.69445 1.38845L3.57313 3.50977C3.52625 3.46289 3.49991 3.3993 3.49991 3.33299H6.49991ZM5.69445 1.38845C5.17873 0.872726 4.47926 0.582995 3.74991 0.582995V3.58299C3.68361 3.58299 3.62002 3.55666 3.57313 3.50977L5.69445 1.38845ZM3.74991 0.582995H1.42241V3.58299H3.74991V0.582995ZM2.48307 3.14365L3.02182 2.6049L0.9005 0.483585L0.361751 1.02233L2.48307 3.14365ZM3.02182 0.483584L2.43265 -0.105582L0.311334 2.01574L0.900501 2.6049L3.02182 0.483584ZM0.311334 -0.105582L-0.938666 1.14442L1.18265 3.26574L2.43265 2.01574L0.311334 -0.105582ZM-0.938826 1.14458C-1.29814 1.50401 -1.5 1.99143 -1.5 2.49966H1.5C1.5 2.78692 1.38591 3.06242 1.18281 3.26558L-0.938826 1.14458ZM-1.5 2.49966C-1.5 3.00789 -1.29814 3.49532 -0.938826 3.85474L1.18281 1.73374C1.38591 1.9369 1.5 2.2124 1.5 2.49966H-1.5ZM-0.938666 3.8549L0.311334 5.1049L2.43265 2.98358L1.18265 1.73358L-0.938666 3.8549ZM4.16658 9.833H4.99991V6.833H4.16658V9.833ZM3.49991 8.333V9.16633H6.49991V8.333H3.49991ZM4.99991 7.66633H4.16658V10.6663H4.99991V7.66633ZM5.66658 9.16633V8.333H2.66658V9.16633H5.66658ZM4.16658 11.4997H4.99991V8.49966H4.16658V11.4997ZM3.49991 9.99966V10.833H6.49991V9.99966H3.49991ZM4.99991 9.333H4.16658V12.333H4.99991V9.333ZM5.66658 10.833V9.99966H2.66658V10.833H5.66658Z" fill="black" mask="url(#path-7-inside-4_749_1046)"/>
<mask id="path-9-inside-5_749_1046" fill="white">
<path d="M2.5 3.75H3.33333V4.58333H2.5V3.75ZM2.5 5.41667H3.33333V6.25H2.5V5.41667ZM9.28875 12.6221L8.03875 13.8721L8.62792 14.4613L9.16667 13.9225V17.0833H10V13.9225L10.5387 14.4613L11.1279 13.8721L9.87792 12.6221C9.79978 12.544 9.69382 12.5001 9.58333 12.5001C9.47285 12.5001 9.36689 12.544 9.28875 12.6221ZM9.16667 17.9167H10V18.75H9.16667V17.9167ZM9.16667 19.5833H10V20.4167H9.16667V19.5833ZM15.2946 13.8721L14.0446 12.6221C13.9664 12.544 13.8605 12.5001 13.75 12.5001C13.6395 12.5001 13.5336 12.544 13.4554 12.6221L12.2054 13.8721L12.7946 14.4613L13.3333 13.9225V17.0833H14.1667V13.9225L14.7054 14.4613L15.2946 13.8721ZM13.3333 17.9167H14.1667V18.75H13.3333V17.9167ZM13.3333 19.5833H14.1667V20.4167H13.3333V19.5833Z"/>
</mask>
<path d="M2.5 3.75H3.33333V4.58333H2.5V3.75ZM2.5 5.41667H3.33333V6.25H2.5V5.41667ZM9.28875 12.6221L8.03875 13.8721L8.62792 14.4613L9.16667 13.9225V17.0833H10V13.9225L10.5387 14.4613L11.1279 13.8721L9.87792 12.6221C9.79978 12.544 9.69382 12.5001 9.58333 12.5001C9.47285 12.5001 9.36689 12.544 9.28875 12.6221ZM9.16667 17.9167H10V18.75H9.16667V17.9167ZM9.16667 19.5833H10V20.4167H9.16667V19.5833ZM15.2946 13.8721L14.0446 12.6221C13.9664 12.544 13.8605 12.5001 13.75 12.5001C13.6395 12.5001 13.5336 12.544 13.4554 12.6221L12.2054 13.8721L12.7946 14.4613L13.3333 13.9225V17.0833H14.1667V13.9225L14.7054 14.4613L15.2946 13.8721ZM13.3333 17.9167H14.1667V18.75H13.3333V17.9167ZM13.3333 19.5833H14.1667V20.4167H13.3333V19.5833Z" fill="black"/>
<path d="M2.5 3.75V2.25H1V3.75H2.5ZM3.33333 3.75H4.83333V2.25H3.33333V3.75ZM3.33333 4.58333V6.08333H4.83333V4.58333H3.33333ZM2.5 4.58333H1V6.08333H2.5V4.58333ZM2.5 5.41667V3.91667H1V5.41667H2.5ZM3.33333 5.41667H4.83333V3.91667H3.33333V5.41667ZM3.33333 6.25V7.75H4.83333V6.25H3.33333ZM2.5 6.25H1V7.75H2.5V6.25ZM9.28875 12.6221L8.22825 11.5613L8.22809 11.5614L9.28875 12.6221ZM8.03875 13.8721L6.97809 12.8114L5.91743 13.8721L6.97809 14.9327L8.03875 13.8721ZM8.62792 14.4613L7.56726 15.5219L8.62792 16.5826L9.68858 15.5219L8.62792 14.4613ZM9.16667 13.9225H10.6667V10.3012L8.10601 12.8618L9.16667 13.9225ZM9.16667 17.0833H7.66667V18.5833H9.16667V17.0833ZM10 17.0833V18.5833H11.5V17.0833H10ZM10 13.9225L11.0607 12.8618L8.5 10.3012V13.9225H10ZM10.5387 14.4613L9.47809 15.5219L10.5387 16.5826L11.5994 15.5219L10.5387 14.4613ZM11.1279 13.8721L12.1886 14.9327L13.2492 13.8721L12.1886 12.8114L11.1279 13.8721ZM9.87792 12.6221L10.9386 11.5614L10.9384 11.5613L9.87792 12.6221ZM9.16667 17.9167V16.4167H7.66667V17.9167H9.16667ZM10 17.9167H11.5V16.4167H10V17.9167ZM10 18.75V20.25H11.5V18.75H10ZM9.16667 18.75H7.66667V20.25H9.16667V18.75ZM9.16667 19.5833V18.0833H7.66667V19.5833H9.16667ZM10 19.5833H11.5V18.0833H10V19.5833ZM10 20.4167V21.9167H11.5V20.4167H10ZM9.16667 20.4167H7.66667V21.9167H9.16667V20.4167ZM15.2946 13.8721L16.3552 14.9327L17.4159 13.8721L16.3552 12.8114L15.2946 13.8721ZM14.0446 12.6221L15.1052 11.5614L15.1051 11.5613L14.0446 12.6221ZM13.4554 12.6221L12.3949 11.5613L12.3948 11.5614L13.4554 12.6221ZM12.2054 13.8721L11.1448 12.8114L10.0841 13.8721L11.1448 14.9327L12.2054 13.8721ZM12.7946 14.4613L11.7339 15.5219L12.7946 16.5826L13.8552 15.5219L12.7946 14.4613ZM13.3333 13.9225H14.8333V10.3012L12.2727 12.8618L13.3333 13.9225ZM13.3333 17.0833H11.8333V18.5833H13.3333V17.0833ZM14.1667 17.0833V18.5833H15.6667V17.0833H14.1667ZM14.1667 13.9225L15.2273 12.8618L12.6667 10.3012V13.9225H14.1667ZM14.7054 14.4613L13.6448 15.5219L14.7054 16.5826L15.7661 15.5219L14.7054 14.4613ZM13.3333 17.9167V16.4167H11.8333V17.9167H13.3333ZM14.1667 17.9167H15.6667V16.4167H14.1667V17.9167ZM14.1667 18.75V20.25H15.6667V18.75H14.1667ZM13.3333 18.75H11.8333V20.25H13.3333V18.75ZM13.3333 19.5833V18.0833H11.8333V19.5833H13.3333ZM14.1667 19.5833H15.6667V18.0833H14.1667V19.5833ZM14.1667 20.4167V21.9167H15.6667V20.4167H14.1667ZM13.3333 20.4167H11.8333V21.9167H13.3333V20.4167ZM2.5 5.25H3.33333V2.25H2.5V5.25ZM1.83333 3.75V4.58333H4.83333V3.75H1.83333ZM3.33333 3.08333H2.5V6.08333H3.33333V3.08333ZM4 4.58333V3.75H1V4.58333H4ZM2.5 6.91667H3.33333V3.91667H2.5V6.91667ZM1.83333 5.41667V6.25H4.83333V5.41667H1.83333ZM3.33333 4.75H2.5V7.75H3.33333V4.75ZM4 6.25V5.41667H1V6.25H4ZM8.22809 11.5614L6.97809 12.8114L9.09941 14.9327L10.3494 13.6827L8.22809 11.5614ZM6.97809 14.9327L7.56726 15.5219L9.68858 13.4006L9.09941 12.8114L6.97809 14.9327ZM9.68858 15.5219L10.2273 14.9832L8.10601 12.8618L7.56726 13.4006L9.68858 15.5219ZM7.66667 13.9225V17.0833H10.6667V13.9225H7.66667ZM9.16667 18.5833H10V15.5833H9.16667V18.5833ZM11.5 17.0833V13.9225H8.5V17.0833H11.5ZM8.93934 14.9832L9.47809 15.5219L11.5994 13.4006L11.0607 12.8618L8.93934 14.9832ZM11.5994 15.5219L12.1886 14.9327L10.0673 12.8114L9.47809 13.4006L11.5994 15.5219ZM12.1886 12.8114L10.9386 11.5614L8.81726 13.6827L10.0673 14.9327L12.1886 12.8114ZM10.9384 11.5613C10.579 11.2019 10.0916 11.0001 9.58333 11.0001V14.0001C9.29608 14.0001 9.02058 13.886 8.81742 13.6829L10.9384 11.5613ZM9.58333 11.0001C9.07511 11.0001 8.58768 11.2019 8.22825 11.5613L10.3492 13.6829C10.1461 13.886 9.87059 14.0001 9.58333 14.0001V11.0001ZM9.16667 19.4167H10V16.4167H9.16667V19.4167ZM8.5 17.9167V18.75H11.5V17.9167H8.5ZM10 17.25H9.16667V20.25H10V17.25ZM10.6667 18.75V17.9167H7.66667V18.75H10.6667ZM9.16667 21.0833H10V18.0833H9.16667V21.0833ZM8.5 19.5833V20.4167H11.5V19.5833H8.5ZM10 18.9167H9.16667V21.9167H10V18.9167ZM10.6667 20.4167V19.5833H7.66667V20.4167H10.6667ZM16.3552 12.8114L15.1052 11.5614L12.9839 13.6827L14.2339 14.9327L16.3552 12.8114ZM15.1051 11.5613C14.7457 11.2019 14.2582 11.0001 13.75 11.0001V14.0001C13.4627 14.0001 13.1872 13.886 12.9841 13.6829L15.1051 11.5613ZM13.75 11.0001C13.2418 11.0001 12.7543 11.2019 12.3949 11.5613L14.5159 13.6829C14.3128 13.886 14.0373 14.0001 13.75 14.0001V11.0001ZM12.3948 11.5614L11.1448 12.8114L13.2661 14.9327L14.5161 13.6827L12.3948 11.5614ZM11.1448 14.9327L11.7339 15.5219L13.8552 13.4006L13.2661 12.8114L11.1448 14.9327ZM13.8552 15.5219L14.394 14.9832L12.2727 12.8618L11.7339 13.4006L13.8552 15.5219ZM11.8333 13.9225V17.0833H14.8333V13.9225H11.8333ZM13.3333 18.5833H14.1667V15.5833H13.3333V18.5833ZM15.6667 17.0833V13.9225H12.6667V17.0833H15.6667ZM13.106 14.9832L13.6448 15.5219L15.7661 13.4006L15.2273 12.8618L13.106 14.9832ZM15.7661 15.5219L16.3552 14.9327L14.2339 12.8114L13.6448 13.4006L15.7661 15.5219ZM13.3333 19.4167H14.1667V16.4167H13.3333V19.4167ZM12.6667 17.9167V18.75H15.6667V17.9167H12.6667ZM14.1667 17.25H13.3333V20.25H14.1667V17.25ZM14.8333 18.75V17.9167H11.8333V18.75H14.8333ZM13.3333 21.0833H14.1667V18.0833H13.3333V21.0833ZM12.6667 19.5833V20.4167H15.6667V19.5833H12.6667ZM14.1667 18.9167H13.3333V21.9167H14.1667V18.9167ZM14.8333 20.4167V19.5833H11.8333V20.4167H14.8333Z" fill="black" mask="url(#path-9-inside-5_749_1046)"/>
</svg>
