<svg width="27" height="21" viewBox="0 0 27 21" fill="none" xmlns="http://www.w3.org/2000/svg">
<path d="M25.0385 4.8457H1.96154C1.4305 4.8457 1 5.2762 1 5.80724V19.2688C1 19.7998 1.4305 20.2303 1.96154 20.2303H25.0385C25.5695 20.2303 26 19.7998 26 19.2688V5.80724C26 5.2762 25.5695 4.8457 25.0385 4.8457Z" stroke="black" stroke-width="1.5" stroke-linecap="round" stroke-linejoin="round"/>
<path d="M1 10.6152H26" stroke="black" stroke-width="1.5" stroke-linecap="round" stroke-linejoin="round"/>
<path d="M6.76953 8.69238V12.5385" stroke="black" stroke-width="1.5" stroke-linecap="round" stroke-linejoin="round"/>
<path d="M20.2305 8.69238V12.5385" stroke="black" stroke-width="1.5" stroke-linecap="round" stroke-linejoin="round"/>
<path d="M18.3078 4.84615V2.92308C18.3078 2.41305 18.1052 1.9239 17.7445 1.56326C17.3839 1.20261 16.8947 1 16.3847 1H10.6155C10.1054 1 9.61629 1.20261 9.25564 1.56326C8.89499 1.9239 8.69238 2.41305 8.69238 2.92308V4.84615" stroke="black" stroke-width="1.5" stroke-linecap="round" stroke-linejoin="round"/>
</svg>
