<svg width="27" height="22" viewBox="0 0 27 22" fill="none" xmlns="http://www.w3.org/2000/svg">
<path d="M1 9.18945V16.086" stroke="black" stroke-width="2" stroke-linecap="round" stroke-linejoin="round"/>
<path d="M10.0518 1H16.9483" stroke="black" stroke-width="2" stroke-linecap="round" stroke-linejoin="round"/>
<path d="M23.414 16.5174L19.3558 20.5756C19.1943 20.737 18.9753 20.8277 18.747 20.8278H10.4086C10.1803 20.8277 9.96132 20.737 9.79977 20.5756L5.5627 16.3386C5.40134 16.177 5.31065 15.9581 5.31055 15.7297V6.17262C5.31055 5.94398 5.40137 5.72471 5.56304 5.56304C5.72471 5.40137 5.94398 5.31055 6.17262 5.31055H18.747C18.9753 5.31065 19.1943 5.40134 19.3558 5.5627L23.414 9.62089H25.1381C25.3668 9.62089 25.586 9.71172 25.7477 9.87339C25.9094 10.0351 26.0002 10.2543 26.0002 10.483V15.6554C26.0002 15.884 25.9094 16.1033 25.7477 16.265C25.586 16.4266 25.3668 16.5174 25.1381 16.5174H23.414Z" stroke="black" stroke-width="2" stroke-linecap="round" stroke-linejoin="round"/>
<path d="M1 12.6377H5.31034" stroke="black" stroke-width="2" stroke-linecap="round" stroke-linejoin="round"/>
<path d="M13.5 1V5.31035" stroke="black" stroke-width="2" stroke-linecap="round" stroke-linejoin="round"/>
</svg>
