<svg width="60" height="60" viewBox="0 0 60 60" fill="none" xmlns="http://www.w3.org/2000/svg">
<g filter="url(#filter0_d_2299_1698)">
<rect x="6" y="6" width="46.4881" height="46.4881" rx="7.40269" fill="url(#paint0_linear_2299_1698)" shape-rendering="crispEdges"/>
<path fill-rule="evenodd" clip-rule="evenodd" d="M24.7041 29.6468L24.9452 31.5119L26.3086 30.4792L26.1398 29.173C25.6349 29.3934 25.15 29.553 24.7041 29.6468ZM28.3714 25.4065C28.4037 25.1723 28.3465 24.9255 28.1922 24.7217C28.0382 24.5181 27.8162 24.3962 27.582 24.3638C27.3478 24.3315 27.101 24.3888 26.8972 24.543C26.6938 24.6972 26.5719 24.9191 26.5396 25.1535C26.5073 25.3877 26.5645 25.6345 26.719 25.8386C26.873 26.0419 27.0951 26.1638 27.3293 26.1961C27.5635 26.2285 27.8102 26.1712 28.0141 26.017C28.2174 25.8627 28.3393 25.6409 28.3716 25.4065H28.3714ZM28.6517 24.351C28.6599 24.3606 28.6675 24.3705 28.6742 24.3806C28.918 24.7108 29.0078 25.1086 28.9555 25.4872C28.9032 25.8655 28.7087 26.2243 28.3842 26.4762C28.3746 26.4844 28.3647 26.492 28.3546 26.4987C28.0244 26.7425 27.6266 26.8323 27.2481 26.78C26.8641 26.727 26.5001 26.5273 26.2474 26.1939C25.9952 25.8608 25.9019 25.4568 25.955 25.0726C26.0073 24.6943 26.2017 24.3355 26.5263 24.0835C26.5359 24.0754 26.5458 24.0677 26.5559 24.061C26.8861 23.8172 27.2839 23.7274 27.6624 23.7797C28.0407 23.832 28.3998 24.0265 28.6517 24.351ZM29.5507 22.2164C29.589 22.3457 29.6401 22.4797 29.7037 22.6157C29.8064 22.8361 29.9404 23.0594 30.1038 23.2751C30.2666 23.49 30.4453 23.6793 30.6296 23.8382C30.7436 23.9364 30.8586 24.0221 30.9722 24.0939C31.2735 23.4379 31.328 22.8827 31.0701 22.5421C30.8125 22.2021 30.2637 22.1041 29.5507 22.2164ZM23.4189 25.4092L22.1347 24.8616L20.772 25.8936L22.5556 26.6539C22.7755 26.2504 23.0665 25.8302 23.4189 25.4092ZM24.0074 29.2571L22.6363 27.4468L22.0749 27.872C22.0727 27.8737 22.0715 27.8764 22.071 27.8794C22.0705 27.8824 22.0712 27.8853 22.0732 27.888L23.4305 29.6801C23.4322 29.6823 23.4349 29.6836 23.4379 29.6841C23.4408 29.6846 23.444 29.6838 23.4465 29.6816L24.0072 29.2571H24.0074ZM24.1427 29.8951L23.8026 30.1527C23.6708 30.2524 23.5102 30.2892 23.3574 30.2682C23.2047 30.2472 23.0601 30.168 22.9599 30.0357L21.6127 28.257C21.6041 28.2468 21.5964 28.2362 21.5893 28.2254C21.4997 28.0973 21.4671 27.9443 21.4871 27.7984C21.5071 27.6529 21.5801 27.5147 21.7016 27.4152C21.7114 27.4063 21.7218 27.3984 21.7327 27.391L22.1102 27.105L20.0731 26.2366C19.9233 26.1729 19.8535 25.9997 19.9171 25.8499C19.9381 25.8006 19.9709 25.7601 20.0107 25.73L21.915 24.2876C22.0061 24.219 22.124 24.2108 22.2203 24.2567L23.8332 24.9442C24.2749 24.4769 24.7907 24.0134 25.3669 23.5771C26.6023 22.6416 27.8872 22.0059 28.9659 21.7347C30.1252 21.4433 31.0753 21.5708 31.5415 22.1863C32.0074 22.8015 31.8724 23.7504 31.2777 24.7873C30.7244 25.7519 29.7642 26.8168 28.5281 27.7528C27.9205 28.213 27.3009 28.6005 26.6997 28.9079L26.9125 30.5534C26.9342 30.6613 26.8944 30.7768 26.8009 30.8474L24.8966 32.2895L24.8961 32.289C24.8563 32.3191 24.8085 32.3394 24.7556 32.346C24.5943 32.3665 24.4469 32.2522 24.4267 32.0909L24.1429 29.8948L24.1427 29.8951ZM23.0383 26.9996C23.2708 26.5591 23.6044 26.0873 24.0237 25.6113C24.4928 25.0785 25.0661 24.545 25.722 24.0482C26.8416 23.2003 27.9943 22.6147 28.9728 22.3435C29.0207 22.514 29.0861 22.6892 29.168 22.8652C29.2869 23.1206 29.4426 23.3797 29.6327 23.6307C29.8234 23.8824 30.031 24.1025 30.2439 24.2861C30.3908 24.4124 30.5418 24.5228 30.6933 24.6151C30.1669 25.4835 29.2911 26.4345 28.172 27.2819C27.5176 27.7777 26.8515 28.1837 26.2153 28.4899C25.6418 28.7661 25.094 28.9605 24.6024 29.0654L23.0378 26.9996H23.0383ZM20.6086 28.7194C20.7349 28.616 20.921 28.6348 21.0242 28.7609C21.1276 28.8872 21.1088 29.0733 20.9827 29.1764C20.5812 29.5051 20.2643 29.859 20.0324 30.2386C19.8596 30.5211 19.7325 30.8187 19.6516 31.1309C19.9754 31.1378 20.2962 31.0964 20.6145 31.0068C21.0449 30.8856 21.4718 30.6768 21.8953 30.3807C22.0285 30.2877 22.2121 30.3202 22.3052 30.4535C22.3982 30.5868 22.3656 30.7704 22.2324 30.8634C21.7526 31.199 21.2665 31.4364 20.7739 31.5748C20.2745 31.7155 19.7701 31.7555 19.2607 31.6948C19.0988 31.6755 18.9828 31.5289 19.0021 31.3668C19.0036 31.355 19.0055 31.3434 19.0083 31.332C19.0899 30.8325 19.2634 30.3657 19.5292 29.9311C19.7974 29.4926 20.1572 29.0886 20.6088 28.7189L20.6086 28.7194ZM37.888 19.1031C37.5717 18.7867 37.1346 18.591 36.6519 18.591C36.1692 18.591 35.7322 18.7867 35.4158 19.1031C35.0995 19.4195 34.9038 19.8565 34.9038 20.3392C34.9038 20.8219 35.0995 21.2589 35.4158 21.5753C35.7322 21.8916 36.1692 22.0873 36.6519 22.0873C37.1346 22.0873 37.5717 21.8916 37.888 21.5753C38.2044 21.2589 38.4001 20.8219 38.4001 20.3392C38.4001 19.8565 38.2044 19.4195 37.888 19.1031ZM36.6519 18C37.298 18 37.8828 18.2618 38.3061 18.6853C38.7293 19.1085 38.9914 19.6936 38.9914 20.3394C38.9914 20.9852 38.7295 21.5703 38.3061 21.9936C37.8826 22.417 37.298 22.6789 36.6519 22.6789C36.0059 22.6789 35.421 22.417 34.9978 21.9936C34.5746 21.5703 34.3125 20.9855 34.3125 20.3394C34.3125 19.6934 34.5743 19.1085 34.9978 18.6853C35.4213 18.2621 36.0061 18 36.6519 18ZM35.6192 20.5346C35.5 20.4236 35.4933 20.237 35.6041 20.1178C35.7152 19.9986 35.9017 19.992 36.0209 20.1028L36.4155 20.4705L37.2726 19.5905C37.3861 19.4737 37.5726 19.4713 37.6894 19.5848C37.8061 19.6983 37.8086 19.8849 37.695 20.0016L36.6413 21.0837C36.5303 21.2029 36.3437 21.2096 36.2245 21.0988L35.6192 20.5346ZM39.0876 39.1415H22.1808V39.6187H39.0874L39.0876 39.1415ZM35.8134 38.5504H37.4905V25.0689H35.8134V38.5504ZM31.8018 38.5504H33.4789V28.9171H31.8018V38.5504ZM27.79 38.5504H29.4671V32.0711H27.79V38.5504ZM23.7782 38.5504H25.4553V34.8454H23.7782V38.5504ZM21.8854 38.5504H23.1869V34.5497C23.1869 34.3866 23.3192 34.2541 23.4825 34.2541H25.7506C25.9138 34.2541 26.0463 34.3864 26.0463 34.5497V38.5504H27.1987V31.7755C27.1987 31.6124 27.331 31.4798 27.4944 31.4798H29.7625C29.9256 31.4798 30.0581 31.6121 30.0581 31.7755V38.5504H31.2105V28.6214C31.2105 28.4583 31.3428 28.3258 31.5062 28.3258H33.7743C33.9374 28.3258 34.0699 28.4581 34.0699 28.6214V38.5504H35.2224V24.7732C35.2224 24.6101 35.3546 24.4776 35.518 24.4776H37.7861C37.9492 24.4776 38.0817 24.6099 38.0817 24.7732V38.5504H39.3835C39.5466 38.5504 39.6791 38.6827 39.6791 38.8461V39.9144C39.6791 40.0775 39.5469 40.21 39.3835 40.21H21.8852C21.722 40.21 21.5895 40.0777 21.5895 39.9144V38.8461C21.5895 38.683 21.722 38.5504 21.8854 38.5504Z" fill="white"/>
</g>
<defs>
<filter id="filter0_d_2299_1698" x="0.447986" y="0.447986" width="59.443" height="59.443" filterUnits="userSpaceOnUse" color-interpolation-filters="sRGB">
<feFlood flood-opacity="0" result="BackgroundImageFix"/>
<feColorMatrix in="SourceAlpha" type="matrix" values="0 0 0 0 0 0 0 0 0 0 0 0 0 0 0 0 0 0 127 0" result="hardAlpha"/>
<feOffset dx="0.925336" dy="0.925336"/>
<feGaussianBlur stdDeviation="3.23867"/>
<feComposite in2="hardAlpha" operator="out"/>
<feColorMatrix type="matrix" values="0 0 0 0 0.211765 0 0 0 0 0.211765 0 0 0 0 0.211765 0 0 0 0.35 0"/>
<feBlend mode="normal" in2="BackgroundImageFix" result="effect1_dropShadow_2299_1698"/>
<feBlend mode="normal" in="SourceGraphic" in2="effect1_dropShadow_2299_1698" result="shape"/>
</filter>
<linearGradient id="paint0_linear_2299_1698" x1="24.0613" y1="72.421" x2="72.7213" y2="28.3299" gradientUnits="userSpaceOnUse">
<stop stop-color="#FF1717"/>
<stop offset="1" stop-color="#FF6461"/>
</linearGradient>
</defs>
</svg>
