<svg width="60" height="60" viewBox="0 0 60 60" fill="none" xmlns="http://www.w3.org/2000/svg">
<g filter="url(#filter0_d_2299_1668)">
<rect x="6" y="6" width="46.4881" height="46.4881" rx="7.40269" fill="url(#paint0_linear_2299_1668)" shape-rendering="crispEdges"/>
<path d="M23.9561 28.97C23.958 30.3353 24.5014 31.6441 25.4661 32.6088C26.4318 33.5746 27.7396 34.1179 29.1049 34.1199C35.9353 33.8373 35.9333 24.1038 29.1049 23.8223C27.7396 23.8242 26.4319 24.3666 25.4661 25.3323C24.5014 26.297 23.958 27.6057 23.9561 28.97ZM29.1049 24.6134C30.26 24.6154 31.3675 25.0745 32.1835 25.8915C33.0005 26.7085 33.4595 27.8159 33.4615 28.9701C33.2236 34.7504 24.9861 34.7486 24.7483 28.9701C24.7503 27.816 25.2093 26.7085 26.0263 25.8915C26.8423 25.0745 27.9497 24.6154 29.1049 24.6134Z" fill="white"/>
<path d="M29.3225 30.3183H28.0138C27.7947 30.3183 27.6172 30.4958 27.6172 30.7149C27.6172 30.934 27.7947 31.1115 28.0138 31.1115H28.7078V31.3693C28.7078 31.5884 28.8853 31.7659 29.1044 31.7659C29.3236 31.7659 29.501 31.5884 29.501 31.3693V31.0916C30.1604 31.0004 30.6373 30.4135 30.5897 29.7492C30.5431 29.0848 29.9889 28.5703 29.3226 28.5732H28.8863C28.6235 28.5732 28.4104 28.3601 28.4104 28.0973C28.4104 27.8346 28.6236 27.6214 28.8863 27.6214H30.1951C30.4142 27.6214 30.5917 27.4439 30.5917 27.2248C30.5917 27.0057 30.4142 26.8282 30.1951 26.8282H29.501V26.5704C29.501 26.3513 29.3235 26.1738 29.1044 26.1738C28.8853 26.1738 28.7078 26.3513 28.7078 26.5704V26.8481C28.0534 26.9452 27.5854 27.5302 27.632 28.1896C27.6786 28.8489 28.2249 29.3615 28.8863 29.3665H29.3225C29.5853 29.3655 29.7985 29.5786 29.7985 29.8424C29.7985 30.1051 29.5853 30.3183 29.3225 30.3183Z" fill="white"/>
<path d="M22.671 30.9568C22.1207 29.1661 22.3398 27.2286 23.2758 25.6067C24.2127 23.9856 25.7823 22.8276 27.6075 22.4101C27.787 22.3684 27.9149 22.2078 27.9149 22.0234V18.3955C27.9149 18.2805 27.8643 18.1714 27.778 18.0961C27.6908 18.0217 27.5758 17.988 27.4627 18.0038C20.5836 18.9031 16.1062 26.6219 18.7881 33.0299C18.8307 33.137 18.917 33.2193 19.026 33.257C19.1341 33.2946 19.2541 33.2837 19.3532 33.2262L22.4902 31.4158V31.4168C22.6499 31.3236 22.7252 31.1332 22.6707 30.9567L22.671 30.9568ZM19.3634 32.3052C17.2763 26.5724 21.158 19.9303 27.1248 18.8655V21.7132C25.2112 22.2347 23.5802 23.4919 22.5887 25.2091C21.5962 26.9264 21.3226 28.9669 21.8273 30.8853L19.3634 32.3052Z" fill="white"/>
<path d="M37.6681 35.2852L34.5311 33.4708C34.3705 33.3786 34.1673 33.4093 34.0423 33.5452C31.519 36.3949 26.6914 36.3949 24.1671 33.5452C24.0888 33.4619 23.9797 33.4153 23.8657 33.4183C23.7516 33.4222 23.6446 33.4738 23.5722 33.561L20.5243 35.2724C20.4202 35.3368 20.3508 35.4459 20.3369 35.5678C20.322 35.6898 20.3647 35.8118 20.4509 35.9C22.5569 38.5334 25.7485 40.0652 29.1215 40.0604C32.4936 40.0555 35.6813 38.5147 37.7802 35.8744C37.8516 35.7841 37.8803 35.6671 37.8585 35.5541C37.8367 35.4411 37.7673 35.3428 37.6681 35.2852ZM29.1047 39.2672C26.1222 39.2752 23.2855 37.9813 21.3354 35.7256L23.824 34.3286C26.6151 37.1981 31.6212 37.19 34.4034 34.3118L36.8653 35.7356C34.915 37.9853 32.082 39.2751 29.1047 39.2672Z" fill="white"/>
<path d="M30.747 18.0038C30.634 17.988 30.519 18.0217 30.4317 18.0961C30.3455 18.1714 30.2949 18.2805 30.2949 18.3955V22.0234C30.2949 22.2088 30.4238 22.3684 30.6043 22.4101C32.4306 22.8255 34.0002 23.9836 34.937 25.6057C35.874 27.2278 36.0931 29.1661 35.5409 30.9568C35.4863 31.1333 35.5607 31.3236 35.7213 31.4168L38.8583 33.2273L38.8573 33.2263C38.9575 33.2838 39.0774 33.2947 39.1855 33.2571C39.2946 33.2184 39.3818 33.1351 39.4235 33.028C42.1026 26.622 37.6269 18.904 30.7468 18.004L30.747 18.0038ZM38.8465 32.3063L36.3827 30.8844V30.8854C36.8874 28.9669 36.6137 26.9263 35.6222 25.2092C34.6297 23.4909 32.9997 22.2346 31.0851 21.7133V18.8646C37.052 19.9305 40.9337 26.5734 38.8465 32.3063Z" fill="white"/>
</g>
<defs>
<filter id="filter0_d_2299_1668" x="0.447986" y="0.447986" width="59.443" height="59.443" filterUnits="userSpaceOnUse" color-interpolation-filters="sRGB">
<feFlood flood-opacity="0" result="BackgroundImageFix"/>
<feColorMatrix in="SourceAlpha" type="matrix" values="0 0 0 0 0 0 0 0 0 0 0 0 0 0 0 0 0 0 127 0" result="hardAlpha"/>
<feOffset dx="0.925336" dy="0.925336"/>
<feGaussianBlur stdDeviation="3.23867"/>
<feComposite in2="hardAlpha" operator="out"/>
<feColorMatrix type="matrix" values="0 0 0 0 0.211765 0 0 0 0 0.211765 0 0 0 0 0.211765 0 0 0 0.35 0"/>
<feBlend mode="normal" in2="BackgroundImageFix" result="effect1_dropShadow_2299_1668"/>
<feBlend mode="normal" in="SourceGraphic" in2="effect1_dropShadow_2299_1668" result="shape"/>
</filter>
<linearGradient id="paint0_linear_2299_1668" x1="24.0613" y1="72.421" x2="72.7213" y2="28.3299" gradientUnits="userSpaceOnUse">
<stop stop-color="#FF1717"/>
<stop offset="1" stop-color="#FF6461"/>
</linearGradient>
</defs>
</svg>
