<svg width="60" height="60" viewBox="0 0 60 60" fill="none" xmlns="http://www.w3.org/2000/svg">
<g filter="url(#filter0_d_2299_1680)">
<rect x="6" y="6" width="46.4881" height="46.4881" rx="7.40269" fill="url(#paint0_linear_2299_1680)" shape-rendering="crispEdges"/>
<path d="M26.7213 30.2098C26.6059 30.0992 26.6011 29.9165 26.7117 29.8011C26.8223 29.6857 27.005 29.6857 27.1156 29.7915L29.6829 32.2531C29.5675 31.8589 30.1252 31.7194 30.231 32.0752L30.5339 33.1089C30.6012 33.33 30.4041 33.5272 30.1925 33.4791L29.1348 33.2195C28.7742 33.1329 28.8896 32.5704 29.2839 32.6618L26.7213 30.2098ZM22.327 29.7242C22.327 29.5655 22.4568 29.4357 22.6155 29.4357C22.7741 29.4357 22.9039 29.5655 22.9039 29.7242V30.7386C23.1107 30.3781 23.5962 30.6906 23.4087 31.0079L22.8655 31.9454C22.7549 32.1425 22.476 32.1425 22.3655 31.9502L21.8222 31.0079C21.7452 30.8685 21.7885 30.6954 21.9279 30.6136C22.0674 30.5367 22.2405 30.58 22.3222 30.729V29.7242H22.327ZM27.6204 27.1568C27.4617 27.1568 27.3319 27.027 27.3319 26.8684C27.3319 26.7097 27.4617 26.5799 27.6204 26.5799H29.2021C28.8416 26.3732 29.1541 25.8876 29.4714 26.0703L30.4137 26.6136C30.6108 26.7241 30.6108 27.003 30.4185 27.1136L29.4762 27.6617C29.3368 27.7386 29.1637 27.6953 29.0819 27.5559C29.0002 27.4165 29.0483 27.2434 29.1973 27.1617H27.6204V27.1568ZM35.409 35.5609H32.9041C31.2935 35.5609 29.9762 36.8782 29.9762 38.4888V39.6331H38.3369V38.4888C38.3369 36.8782 37.0196 35.5609 35.409 35.5609ZM35.6205 34.9887C37.4571 35.0993 38.9139 36.633 38.9139 38.4888V39.9215C38.9139 40.0802 38.7841 40.21 38.6254 40.21H29.6877C29.5291 40.21 29.3993 40.0802 29.3993 39.9215V38.4888C29.3993 36.6378 30.856 35.1041 32.6926 34.9887C31.4426 34.0849 31.2935 32.2771 32.3849 31.181C32.8368 30.729 33.4666 30.4454 34.159 30.4454C35.5436 30.4454 36.6686 31.5656 36.6686 32.955C36.6638 33.782 36.26 34.5272 35.6205 34.9887ZM34.1542 31.0271C33.0868 31.0271 32.2262 31.8925 32.2262 32.9598C32.2262 34.0272 33.0916 34.8878 34.1542 34.8878C35.2215 34.8878 36.0869 34.0224 36.0869 32.9598C36.0869 31.8877 35.2215 31.0271 34.1542 31.0271ZM23.5482 36.7484H21.6827C20.5241 36.7484 19.5721 37.6955 19.5721 38.8542V39.6331H25.654V38.8542C25.6588 37.6955 24.7068 36.7484 23.5482 36.7484ZM23.8991 36.1907C25.2213 36.3638 26.2357 37.4984 26.2357 38.8542V39.9215C26.2357 40.0802 26.1059 40.21 25.9473 40.21H19.2885C19.1298 40.21 19 40.0802 19 39.9215V38.8542C19 37.5032 20.0144 36.3638 21.3366 36.1907C20.4952 35.4503 20.452 34.1522 21.2452 33.3589C22.0049 32.5993 23.2309 32.5993 23.9905 33.3589C24.7838 34.1522 24.7405 35.4503 23.8991 36.1907ZM22.6155 33.3685C21.4039 33.3685 20.7933 34.8397 21.6491 35.6955C22.5049 36.5513 23.9761 35.9455 23.9761 34.7339C23.9809 33.9791 23.3703 33.3685 22.6155 33.3685ZM36.2311 25.3828H34.3657C33.207 25.3828 32.2599 26.3299 32.2599 27.4886V28.2674H38.3417V27.4886C38.3369 26.3299 37.3898 25.3828 36.2311 25.3828ZM36.5773 24.8251C37.8994 24.9981 38.9139 26.1328 38.9139 27.4886V28.5559C38.9139 28.7146 38.7841 28.8444 38.6254 28.8444H31.9666C31.808 28.8444 31.6781 28.7146 31.6781 28.5559V27.4886C31.6781 26.1376 32.6926 24.9981 34.0147 24.8251C33.1734 24.0847 33.1301 22.7866 33.9234 21.9933C34.683 21.2336 35.909 21.2336 36.6686 21.9933C37.4619 22.7866 37.4187 24.0847 36.5773 24.8251ZM35.2984 22.0029C34.0869 22.0029 33.4763 23.4741 34.332 24.3299C35.1878 25.1856 36.659 24.5799 36.659 23.3635C36.659 22.6135 36.0484 22.0029 35.2984 22.0029ZM29.5002 19.9163C29.6589 19.9163 29.7887 20.0461 29.7887 20.2048C29.7887 20.3634 29.6589 20.4932 29.5002 20.4932H27.0579C26.8992 20.4932 26.7694 20.3634 26.7694 20.2048C26.7694 20.0461 26.8992 19.9163 27.0579 19.9163H29.5002ZM29.5002 22.1183C29.6589 22.1183 29.7887 22.2481 29.7887 22.4067C29.7887 22.5654 29.6589 22.6952 29.5002 22.6952H27.0579C26.8992 22.6952 26.7694 22.5654 26.7694 22.4067C26.7694 22.2481 26.8992 22.1183 27.0579 22.1183H29.5002ZM29.5002 21.0173C29.6589 21.0173 29.7887 21.1471 29.7887 21.3058C29.7887 21.4644 29.6589 21.5942 29.5002 21.5942H27.0579C26.8992 21.5942 26.7694 21.4644 26.7694 21.3058C26.7694 21.1471 26.8992 21.0173 27.0579 21.0173H29.5002ZM26.8848 18.2865C28.4762 17.5605 30.3512 18.2624 31.0772 19.849C31.8032 21.4404 31.1012 23.3154 29.5146 24.0414C28.7262 24.402 27.8415 24.4212 27.0531 24.1135L26.2117 24.5799C25.9953 24.7001 25.7405 24.5126 25.7886 24.2722L25.9617 23.402C24.4136 21.8635 24.8607 19.2096 26.8848 18.2865ZM29.1012 18.7384C27.7646 18.2384 26.2694 18.9211 25.7694 20.2577C25.4713 21.0606 25.5819 21.9789 26.1107 22.6952C26.2117 22.8346 26.3271 22.9596 26.4473 23.0702C26.5338 23.1327 26.5771 23.2433 26.5578 23.3587L26.4761 23.7722L26.88 23.551C26.9569 23.5029 27.0579 23.4885 27.1492 23.527C28.5194 24.1327 30.1012 23.4645 30.6252 22.0654C31.1204 20.7288 30.4377 19.2384 29.1012 18.7384ZM23.5482 25.3828H21.6827C20.5241 25.3828 19.5721 26.3299 19.5721 27.4886V28.2674H25.654V27.4886C25.6588 26.3299 24.7068 25.3828 23.5482 25.3828ZM23.8991 24.8251C25.2213 24.9981 26.2357 26.1328 26.2357 27.4886V28.5559C26.2357 28.7146 26.1059 28.8444 25.9473 28.8444H19.2885C19.1298 28.8444 19 28.7146 19 28.5559V27.4886C19 26.1376 20.0144 24.9981 21.3366 24.8251C20.4952 24.0847 20.452 22.7866 21.2452 21.9933C22.0049 21.2336 23.2309 21.2336 23.9905 21.9933C24.7838 22.7866 24.7405 24.0847 23.8991 24.8251ZM22.6155 22.0029C21.4039 22.0029 20.7933 23.4741 21.6491 24.3299C22.5049 25.1856 23.9761 24.5799 23.9761 23.3635C23.9809 22.6135 23.3703 22.0029 22.6155 22.0029Z" fill="white"/>
</g>
<defs>
<filter id="filter0_d_2299_1680" x="0.447986" y="0.447986" width="59.443" height="59.443" filterUnits="userSpaceOnUse" color-interpolation-filters="sRGB">
<feFlood flood-opacity="0" result="BackgroundImageFix"/>
<feColorMatrix in="SourceAlpha" type="matrix" values="0 0 0 0 0 0 0 0 0 0 0 0 0 0 0 0 0 0 127 0" result="hardAlpha"/>
<feOffset dx="0.925336" dy="0.925336"/>
<feGaussianBlur stdDeviation="3.23867"/>
<feComposite in2="hardAlpha" operator="out"/>
<feColorMatrix type="matrix" values="0 0 0 0 0.211765 0 0 0 0 0.211765 0 0 0 0 0.211765 0 0 0 0.35 0"/>
<feBlend mode="normal" in2="BackgroundImageFix" result="effect1_dropShadow_2299_1680"/>
<feBlend mode="normal" in="SourceGraphic" in2="effect1_dropShadow_2299_1680" result="shape"/>
</filter>
<linearGradient id="paint0_linear_2299_1680" x1="24.0613" y1="72.421" x2="72.7213" y2="28.3299" gradientUnits="userSpaceOnUse">
<stop stop-color="#FF1717"/>
<stop offset="1" stop-color="#FF6461"/>
</linearGradient>
</defs>
</svg>
