<svg width="50" height="50" viewBox="0 0 50 50" fill="none" xmlns="http://www.w3.org/2000/svg">
<rect width="50" height="50" rx="5" fill="white"/>
<rect x="0.5" y="0.5" width="49" height="49" rx="4.5" stroke="url(#paint0_linear_5293_28709)" stroke-opacity="0.2"/>
<path d="M39.4232 34.0985H10.3703C10.2104 34.0985 10.0583 34.0348 9.94494 33.9231C9.83318 33.8098 9.76953 33.6576 9.76953 33.4978V11.6023C9.76953 11.4424 9.83318 11.2887 9.94494 11.177C10.0583 11.0636 10.2104 11 10.3703 11H39.4232C39.7553 11 40.0239 11.2701 40.0239 11.6023V33.4977C40.0239 33.6576 39.9602 33.8098 39.8485 33.9231C39.7352 34.0348 39.583 34.0985 39.4232 34.0985ZM10.9707 32.9001H38.8207V12.2016H10.9707V32.9001Z" fill="#FD1716"/>
<path d="M39.8439 38.6443H9.15772C7.88793 38.6443 7 37.4521 7 35.7446C7 34.0665 7.86619 32.8945 9.10494 32.8945H9.97733C10.3095 32.8945 10.5796 33.1631 10.5796 33.4953C10.5796 33.8275 10.3095 34.096 9.97733 34.096H9.10494C8.51815 34.096 8.20306 34.9451 8.20306 35.7445C8.20306 36.426 8.45764 37.4428 9.15927 37.4428H39.8438C40.5424 37.4428 40.7985 36.4431 40.7985 35.7694C40.7985 35.0957 40.5439 34.096 39.8438 34.096H38.9745C38.6439 34.096 38.3754 33.8275 38.3754 33.4953C38.3754 33.1631 38.6439 32.8945 38.9745 32.8945H39.8438C41.1136 32.8945 42 34.0774 42 35.7663C42 37.4552 41.1137 38.6443 39.8439 38.6443ZM28.3863 36.2817H20.6185C19.6033 36.2817 18.8985 34.9964 18.8985 33.8446L18.897 33.4984C18.897 33.1662 19.1671 32.8977 19.4993 32.8977C19.8299 32.8977 20.0984 33.1662 20.0984 33.4984V33.8446C20.0984 34.4872 20.4695 35.0507 20.6216 35.0802H28.383C28.5305 35.0523 28.9 34.4872 28.9 33.8446L28.9015 33.4984C28.9124 33.1755 29.1778 32.9179 29.5022 32.9179C29.8251 32.9179 30.0921 33.1755 30.103 33.4984V33.8446C30.1045 34.9964 29.4 36.2817 28.3863 36.2817Z" fill="#FD1716"/>
<path d="M24.8916 31.475C21.9003 31.475 19.4648 28.5319 19.4648 24.9133C19.4648 21.2948 21.8989 18.3516 24.8916 18.3516C27.8844 18.3516 30.3184 21.2947 30.3184 24.9133C30.3184 28.5317 27.8828 31.475 24.8916 31.475ZM24.8916 19.5533C22.5631 19.5533 20.6677 21.9594 20.6677 24.9133C20.6677 27.8672 22.5616 30.2733 24.8916 30.2733C27.2216 30.2733 29.1171 27.8672 29.1171 24.9133C29.1155 21.9592 27.2217 19.5501 24.8916 19.5501V19.5533Z" fill="#FD1716"/>
<path d="M28.0321 20.9874H27.9886H27.9902C27.6595 20.9657 27.4096 20.6785 27.4329 20.3478C27.4376 20.2764 27.4391 20.1988 27.4391 20.1026C27.4391 18.2895 26.2966 16.8164 24.8902 16.8164C23.4854 16.8164 22.3445 18.291 22.3445 20.1026C22.3445 20.1957 22.3445 20.2749 22.3522 20.3478H22.3538C22.3771 20.6785 22.1271 20.9657 21.795 20.9874C21.4643 21.0107 21.1771 20.7608 21.1538 20.4301C21.1476 20.3308 21.1445 20.2221 21.1445 20.1026C21.1445 17.6282 22.8257 15.6133 24.8918 15.6133C26.9579 15.6133 28.6422 17.6266 28.6422 20.1026C28.6422 20.2237 28.6391 20.3355 28.6313 20.4317C28.6096 20.7453 28.3472 20.9874 28.0321 20.9874Z" fill="#FD1716"/>
<path d="M23.5648 17.176C23.5322 17.176 23.5011 17.1729 23.4685 17.1682C23.3117 17.1434 23.1705 17.0564 23.0773 16.9276C22.9842 16.7987 22.9454 16.6373 22.9702 16.4805C23.0572 15.9372 22.9858 15.5088 22.7591 15.2045C22.43 14.7606 21.8463 14.6768 21.8401 14.6752H21.8417C21.5111 14.6364 21.2766 14.3353 21.317 14.0062C21.3574 13.6771 21.657 13.4427 21.9876 13.483C22.0978 13.4955 23.0789 13.6383 23.7138 14.4734C24.1485 15.0493 24.299 15.7882 24.1593 16.6699L24.1578 16.6684C24.1112 16.9602 23.8597 17.176 23.5648 17.176Z" fill="#FD1716"/>
<path d="M26.2218 17.176C25.9269 17.176 25.6754 16.9602 25.6288 16.6684C25.4891 15.7866 25.6382 15.0478 26.0744 14.4719C26.7077 13.6336 27.6888 13.4955 27.8006 13.4815L27.799 13.483C28.1296 13.4427 28.4292 13.6771 28.4696 14.0062C28.5084 14.3368 28.274 14.6364 27.9449 14.6752C27.9247 14.6752 27.3519 14.7652 27.026 15.2045C26.7993 15.5088 26.7279 15.9372 26.8148 16.4805C26.8412 16.6373 26.8024 16.7987 26.7093 16.9276C26.6146 17.0564 26.4733 17.1434 26.3165 17.1682C26.2855 17.1728 26.2529 17.176 26.2218 17.176Z" fill="#FD1716"/>
<path d="M20.6048 22.7869C20.521 22.7869 20.4387 22.7698 20.3627 22.7356L20.3534 22.731C19.897 22.5292 19.068 22.1334 18.6365 21.736C18.0156 21.1616 18.1242 19.7242 18.1987 19.1327V19.1312C18.2158 18.9697 18.295 18.8207 18.4223 18.7198C18.5496 18.6189 18.7126 18.5723 18.874 18.5925C19.0354 18.6142 19.1813 18.6981 19.2791 18.8285C19.3769 18.9589 19.4173 19.1234 19.3924 19.2833C19.3148 19.9228 19.3459 20.6803 19.4623 20.8635C19.6827 21.0607 20.2074 21.3541 20.8376 21.6319L20.85 21.6381L20.8485 21.6366C21.1077 21.7515 21.2521 22.0324 21.1931 22.3103C21.1341 22.5882 20.8889 22.7869 20.6048 22.7869Z" fill="#FD1716"/>
<path d="M18.9725 31.6196C18.6714 31.6181 18.4168 31.3945 18.3764 31.0949C18.2988 30.5019 18.1917 29.0614 18.8111 28.4902C19.2892 28.0493 20.2578 27.6116 20.5435 27.4889H20.545C20.8493 27.357 21.2032 27.4982 21.3352 27.8025C21.4671 28.1067 21.3259 28.4606 21.0216 28.5926C20.5156 28.8099 19.8962 29.1328 19.6385 29.3641C19.5236 29.5442 19.4895 30.3048 19.5702 30.9428C19.6121 31.2719 19.3792 31.5731 19.0502 31.615H19.0486C19.0238 31.6181 18.9989 31.6196 18.9725 31.6196Z" fill="#FD1716"/>
<path d="M18.7538 26.3614C18.4309 26.3614 18.1251 26.2838 17.8892 26.0633C17.3955 25.607 16.5542 24.4272 16.4595 24.2937V24.2953C16.267 24.0236 16.3291 23.648 16.5992 23.4555C16.8708 23.263 17.2465 23.3251 17.439 23.5967C17.6718 23.9227 18.3316 24.8184 18.6808 25.1537C18.8423 25.1894 19.3359 25.0714 19.8264 24.8339C20.1214 24.7051 20.4644 24.8339 20.6041 25.1242C20.7438 25.4129 20.6305 25.7622 20.348 25.9143C19.9398 26.1146 19.3189 26.3614 18.7538 26.3614Z" fill="#FD1716"/>
<path d="M29.1834 22.7872C28.8978 22.7872 28.6525 22.5869 28.595 22.3091C28.5361 22.0296 28.682 21.7487 28.9443 21.6354C29.4519 21.4149 30.0728 21.0921 30.3274 20.8592C30.4439 20.6792 30.4765 19.9185 30.3957 19.279V19.2805C30.3523 18.9499 30.5851 18.6487 30.9142 18.6068C31.2433 18.5633 31.5444 18.7946 31.5879 19.1253C31.6655 19.7167 31.7742 21.1557 31.1548 21.7285C30.6938 22.1538 29.7888 22.5699 29.4224 22.7313V22.7297C29.3464 22.7654 29.2657 22.7856 29.1834 22.7872Z" fill="#FD1716"/>
<path d="M30.8099 31.6196C30.785 31.6196 30.7587 31.6181 30.7323 31.615C30.5755 31.5948 30.4311 31.5125 30.3333 31.3868C30.2355 31.2611 30.1921 31.1012 30.2138 30.9428C30.2914 30.3033 30.2619 29.5458 30.1455 29.3641C29.8863 29.1313 29.2669 28.81 28.7624 28.5926H28.7608C28.4566 28.4607 28.3169 28.1067 28.4473 27.8025C28.5792 27.4982 28.9331 27.357 29.2389 27.4889C29.5246 27.6116 30.4932 28.0477 30.9713 28.4902C31.5922 29.0614 31.4821 30.5019 31.406 31.0949C31.3672 31.3945 31.1126 31.6196 30.8099 31.6196Z" fill="#FD1716"/>
<path d="M31.0366 26.3583C30.4312 26.3583 29.7761 26.0804 29.4424 25.9158H29.4409C29.1444 25.7699 29.0202 25.4098 29.1677 25.1118C29.3136 24.8137 29.6737 24.6911 29.9717 24.837C30.4374 25.0652 30.9497 25.1909 31.1142 25.1552C31.4589 24.823 32.1233 23.9242 32.3561 23.5982H32.3545C32.5486 23.3281 32.9242 23.2645 33.1943 23.457C33.466 23.651 33.5281 24.0267 33.3356 24.2968C33.2409 24.4303 32.398 25.6085 31.9075 26.0633C31.6669 26.2791 31.3595 26.3583 31.0366 26.3583Z" fill="#FD1716"/>
<path d="M24.8781 31.4743C24.5459 31.4743 24.2773 31.2057 24.2773 30.8735V22.522C24.2882 22.1991 24.5552 21.9414 24.8781 21.9414C25.2025 21.9414 25.468 22.1991 25.4788 22.522V30.8735C25.4804 31.0334 25.4167 31.1855 25.3034 31.2989C25.1901 31.4106 25.038 31.4743 24.8781 31.4743Z" fill="#FD1716"/>
<defs>
<linearGradient id="paint0_linear_5293_28709" x1="19.4257" y1="71.4387" x2="71.7617" y2="24.0168" gradientUnits="userSpaceOnUse">
<stop stop-color="#FF1717"/>
<stop offset="1" stop-color="#FF6461"/>
</linearGradient>
</defs>
</svg>
