<svg width="50" height="50" viewBox="0 0 50 50" fill="none" xmlns="http://www.w3.org/2000/svg">
<rect width="50" height="50" rx="5" fill="white"/>
<rect x="0.5" y="0.5" width="49" height="49" rx="4.5" stroke="url(#paint0_linear_5293_28705)" stroke-opacity="0.2"/>
<path d="M41.8536 9H11.1464C9.96181 9 9 9.95944 9 11.1411V34.3333C9 35.515 9.96181 36.4744 11.1464 36.4744H22.2214L21.104 39.9065H17.8932C17.5926 39.9065 17.3451 40.1499 17.3451 40.4533C17.3451 40.7566 17.5891 41 17.8932 41H21.5H31.4965H35.1032C35.4038 41 35.6513 40.7566 35.6513 40.4533C35.6513 40.1499 35.4073 39.9065 35.1032 39.9065H31.8925L30.7751 36.4744H41.8536C43.0382 36.4744 44 35.515 44 34.3333V11.1446C44.0035 9.96296 43.0382 9 41.8536 9ZM11.1464 10.0899H41.8571C42.437 10.0899 42.9109 10.5626 42.9109 11.1411V30.0582H10.0926V11.1446C10.0926 10.5626 10.5629 10.0899 11.1464 10.0899ZM30.7468 39.9101H22.2532L23.3706 36.478H29.6259L30.7468 39.9101ZM41.8536 35.388H30.0219H30.0184H22.9816C22.9816 35.388 22.9816 35.388 22.9781 35.388H11.1464C10.5665 35.388 10.0926 34.9153 10.0926 34.3369V31.1517H42.9073V34.3369C42.9073 34.9153 42.437 35.388 41.8536 35.388ZM26.5 31.5538C25.5523 31.5538 24.7815 32.3228 24.7815 33.2681C24.7815 34.2134 25.5523 34.9824 26.5 34.9824C27.4477 34.9824 28.2185 34.2134 28.2185 33.2681C28.2185 32.3228 27.4477 31.5538 26.5 31.5538ZM26.5 33.8924C26.1535 33.8924 25.8741 33.6138 25.8741 33.2681C25.8741 32.9224 26.1535 32.6437 26.5 32.6437C26.8465 32.6437 27.1259 32.9224 27.1259 33.2681C27.1259 33.6138 26.8465 33.8924 26.5 33.8924ZM14.6577 27.3739H23.703C24.4314 27.3739 25.0219 26.7848 25.0219 26.0582V23.3175C25.0219 21.642 24.1556 20.0617 22.7659 19.134C23.1513 18.4991 23.3741 17.7584 23.3741 16.9647C23.3741 14.6543 21.4894 12.7778 19.1768 12.7778C16.8642 12.7778 14.9795 14.6578 14.9795 16.9647C14.9795 17.7584 15.2023 18.5026 15.5877 19.134C14.2016 20.0582 13.3317 21.6384 13.3317 23.3175V26.0582C13.3388 26.7848 13.9328 27.3739 14.6577 27.3739ZM19.1803 13.8677C20.8918 13.8677 22.285 15.2575 22.285 16.9647C22.285 18.672 20.8918 20.0617 19.1803 20.0617C17.4689 20.0617 16.0792 18.672 16.0792 16.9647C16.0792 15.2575 17.4689 13.8677 19.1803 13.8677ZM14.4314 23.3175C14.4314 21.9735 15.1457 20.7037 16.2808 19.9877C17.0339 20.7072 18.0559 21.1517 19.1803 21.1517C20.3048 21.1517 21.3267 20.7072 22.0799 19.9877C23.215 20.7037 23.9293 21.97 23.9293 23.3175V26.0582C23.9293 26.1817 23.8267 26.284 23.703 26.284H14.6577C14.5339 26.284 14.4314 26.1817 14.4314 26.0582V23.3175ZM28.0488 14.7354C28.0488 14.4356 28.2928 14.1887 28.5969 14.1887H39.1131C39.4137 14.1887 39.6612 14.4321 39.6612 14.7354C39.6612 15.0388 39.4172 15.2822 39.1131 15.2822H28.5969C28.2963 15.2822 28.0488 15.0388 28.0488 14.7354ZM28.0488 20.0758C28.0488 19.776 28.2928 19.5291 28.5969 19.5291H39.1131C39.4137 19.5291 39.6612 19.7725 39.6612 20.0758C39.6612 20.3757 39.4172 20.6226 39.1131 20.6226H28.5969C28.2963 20.6226 28.0488 20.3757 28.0488 20.0758ZM28.0488 25.4127C28.0488 25.1129 28.2928 24.866 28.5969 24.866H39.1131C39.4137 24.866 39.6612 25.1093 39.6612 25.4127C39.6612 25.716 39.4172 25.9594 39.1131 25.9594H28.5969C28.2963 25.9594 28.0488 25.716 28.0488 25.4127Z" fill="#FD1716"/>
<defs>
<linearGradient id="paint0_linear_5293_28705" x1="19.4257" y1="71.4387" x2="71.7617" y2="24.0168" gradientUnits="userSpaceOnUse">
<stop stop-color="#FF1717"/>
<stop offset="1" stop-color="#FF6461"/>
</linearGradient>
</defs>
</svg>
