<svg width="50" height="50" viewBox="0 0 50 50" fill="none" xmlns="http://www.w3.org/2000/svg">
<rect width="50" height="50" rx="5" fill="white"/>
<rect x="0.5" y="0.5" width="49" height="49" rx="4.5" stroke="url(#paint0_linear_5293_28707)" stroke-opacity="0.2"/>
<path d="M36.7201 27.7095C37.1455 27.5758 37.5543 27.4436 37.9615 27.3007V28.6014C37.5527 28.7428 37.144 28.8689 36.7201 28.9844V27.7095ZM34.2372 28.3173V29.5754C34.3877 29.542 34.5381 29.5086 34.687 29.4843C34.9544 29.4265 35.2203 29.3673 35.4787 29.3095V28.0423C35.1368 28.1258 34.7873 28.2003 34.4363 28.2763C34.3709 28.293 34.3041 28.3097 34.2372 28.3173ZM31.7529 29.9599C32.1784 29.9097 32.5871 29.852 32.9943 29.7851V28.5437C32.5855 28.6106 32.1768 28.6683 31.7529 28.7185V29.9599ZM31.7529 38.846C32.1784 38.7958 32.5871 38.7457 32.9943 38.6788V37.4283C32.5855 37.4951 32.1768 37.5529 31.7529 37.603V38.846ZM36.7203 37.8796C37.1457 37.755 37.5545 37.6288 37.9617 37.4966V36.1959C37.5529 36.3372 37.1442 36.471 36.7203 36.5955V37.8796ZM34.2374 37.2125V38.463C34.3879 38.4387 34.5383 38.4053 34.6872 38.3719C34.9546 38.3217 35.2205 38.264 35.4789 38.1971V36.9299C35.137 37.021 34.7875 37.097 34.4365 37.1715C34.3711 37.1791 34.3043 37.1958 34.2374 37.2125ZM39.2243 22.1345C39.8837 22.56 40.2089 23.0386 40.2089 23.5841V29.4765C40.2089 30.1633 39.829 30.7453 39.2166 31.0249C39.8807 31.4519 40.2089 31.9305 40.2089 32.4775V38.37C40.2089 39.0795 39.7971 39.6873 39.1331 39.9578C35.7553 41.295 31.6816 42 27.3432 42C23.0612 42 18.8737 41.2752 15.5506 39.9608C14.8912 39.6873 14.4703 39.0643 14.4703 38.37L14.4687 33.2524C11.9661 32.4653 9.0015 30.2575 9.0015 27.451V18.1561C9.0015 18.0194 9.05164 17.8872 9.14129 17.7838L11.7655 14.8057L9.20209 12.6617C9.07446 12.5553 9 12.3958 9 12.2301V9.65458C9 9.47224 9.08813 9.30053 9.23704 9.19569C9.38595 9.09084 9.57741 9.06349 9.74911 9.12427L13.6345 10.4933V7.93754C13.6345 7.42093 14.0584 7 14.5811 7H16.4653C16.9819 7 17.4028 7.42089 17.4028 7.93754V10.4933L21.2867 9.12427C21.4584 9.06349 21.6498 9.08932 21.7987 9.19569C21.9476 9.30053 22.0358 9.47223 22.0358 9.65458V11.5388C23.6753 11.3564 25.4941 11.2592 27.342 11.2592C31.7924 11.2592 40.2074 11.9779 40.2074 14.6978V20.5902C40.2089 21.2664 39.8321 21.8468 39.2243 22.134L39.2243 22.1345ZM37.7808 22.6648C34.6841 23.6798 31.1115 24.2132 27.3434 24.2132C25.52 24.2132 23.7407 24.0825 22.0372 23.8394V25.6096C23.6661 25.7965 25.488 25.8968 27.3434 25.8968C34.9408 25.8968 39.0847 24.3682 39.0847 23.5841C39.0847 23.4413 38.8049 23.0781 37.7808 22.6648ZM37.7732 31.5552C34.6901 32.5717 31.1164 33.1066 27.3436 33.1066C24.4186 33.1066 21.5208 32.7677 18.9364 32.1311C18.166 32.6294 17.3394 33.0139 16.5568 33.2585C18.3164 34.0745 22.2746 34.7811 27.3435 34.7811C34.9409 34.7811 39.0848 33.2585 39.0848 32.476C39.0848 32.3362 38.8034 31.9685 37.7732 31.5552ZM38.7138 30.0205C38.9493 29.9293 39.083 29.7318 39.083 29.4765L39.0845 25.1218C36.6442 26.5881 30.7986 27.0227 27.3432 27.0227C25.4955 27.0227 23.6767 26.9269 22.037 26.7431V27.4512C22.037 28.9174 21.2256 30.2212 20.0951 31.2453C22.3607 31.727 24.8404 31.9823 27.3432 31.9823C31.4809 31.9807 35.5197 31.2848 38.7133 30.0206L38.7138 30.0205ZM38.7153 21.1344C38.9478 21.0402 39.083 20.8411 39.083 20.592L39.0845 16.231C36.6442 17.6943 30.7986 18.1273 27.3432 18.1273C25.456 18.1273 23.6175 18.0286 21.9382 17.8417C22.0005 17.9343 22.037 18.0437 22.037 18.1562V22.7027C23.7358 22.9534 25.5151 23.0871 27.3432 23.0871C31.4731 23.0871 35.5123 22.3941 38.7153 21.1344ZM27.3436 12.3853C25.3941 12.3853 23.481 12.4947 21.7899 12.7013L19.2767 14.8104L20.8205 16.5639C22.7685 16.851 25.0174 17.0045 27.3439 17.0045C34.9413 17.0045 39.0852 15.482 39.0852 14.6994C39.0852 13.9124 34.9413 12.3853 27.3436 12.3853ZM17.4029 11.6863V12.6937C17.4166 12.7074 17.4318 12.718 17.4455 12.7332L18.5304 13.9655L20.9114 11.9674V10.4494L17.4029 11.6863ZM14.7605 14.2436H16.277L16.2785 8.12477H14.762L14.7605 14.2436ZM12.5101 13.961L13.592 12.7332C13.6057 12.718 13.6209 12.7059 13.6345 12.6922L13.6361 11.6863L10.1276 10.4494V11.9674L12.5101 13.961ZM15.5233 32.3637C17.7554 31.9351 20.9127 29.8474 20.9127 27.4511V18.369L17.4042 14.3865V14.4306C17.4042 14.9472 16.9834 15.3681 16.4667 15.3681H14.5825C14.0613 15.3681 13.6359 14.9472 13.6359 14.4306L13.6344 14.3865L13.0205 15.084C13.0144 15.0916 13.0099 15.1007 13.0038 15.1083C12.9947 15.1189 12.9825 15.128 12.9734 15.1371L10.1259 18.3691V26.8872H14.9474V28.0131H10.1854C10.623 30.1678 13.4643 31.97 15.5233 32.3637ZM39.0844 38.37V34.0106C36.6441 35.4739 30.7985 35.907 27.3431 35.907C22.8834 35.907 17.793 35.3037 15.5945 33.9985V38.37C15.5945 38.6146 15.7358 38.8182 15.9728 38.917C19.1592 40.1781 23.201 40.874 27.343 40.874C31.4807 40.874 35.5196 40.1781 38.7132 38.9139C38.9472 38.8197 39.0839 38.6206 39.0839 38.3699L39.0844 38.37ZM36.7201 20.0996C37.1455 19.975 37.5543 19.8489 37.9615 19.7167V18.416C37.5527 18.5573 37.144 18.691 36.7201 18.8156V20.0996ZM34.2372 19.4326V20.6831C34.3877 20.6497 34.5381 20.6253 34.687 20.5919C34.9544 20.5418 35.2203 20.4749 35.4786 20.4172V19.1499C35.1368 19.2335 34.7873 19.3171 34.4363 19.3915C34.3709 19.3991 34.3041 19.4158 34.2372 19.4326ZM31.7529 21.066C32.1783 21.0159 32.5871 20.9581 32.9943 20.8989V19.6483C32.5855 19.7152 32.1768 19.7729 31.7529 19.8231V21.066Z" fill="#FD1716"/>
<defs>
<linearGradient id="paint0_linear_5293_28707" x1="19.4257" y1="71.4387" x2="71.7617" y2="24.0168" gradientUnits="userSpaceOnUse">
<stop stop-color="#FF1717"/>
<stop offset="1" stop-color="#FF6461"/>
</linearGradient>
</defs>
</svg>
