<svg width="50" height="50" viewBox="0 0 50 50" fill="none" xmlns="http://www.w3.org/2000/svg">
<rect width="50" height="50" rx="5" fill="white"/>
<rect x="0.5" y="0.5" width="49" height="49" rx="4.5" stroke="url(#paint0_linear_5293_28711)" stroke-opacity="0.2"/>
<path d="M31.5754 17.6966C31.5754 18.1489 31.2078 18.5165 30.7544 18.5165C30.3021 18.5165 29.9345 18.1489 29.9345 17.6966V12.8542V8.82636L11.6431 12.6591V36.3385L29.9345 40.1713V36.1445V31.3021C29.9345 30.8487 30.3021 30.4822 30.7544 30.4822C31.2078 30.4822 31.5754 30.8498 31.5754 31.3021V35.3246H38.3996V29.5958C38.3996 29.1424 38.7672 28.7759 39.2195 28.7759C39.6729 28.7759 40.0405 29.1435 40.0405 29.5958V36.1456C40.0405 36.599 39.6729 36.9655 39.2195 36.9655H31.5744V41.1809H31.5722C31.5722 41.2356 31.5658 41.2913 31.5551 41.3481C31.4629 41.7908 31.0299 42.0748 30.5872 41.9826L10.7117 37.8187C10.3108 37.7651 10 37.4221 10 37.0052V11.9978H10.0021C10.0021 11.6184 10.268 11.2776 10.6538 11.1961L30.5251 7.03215C30.5979 7.01072 30.674 7 30.7534 7C31.2067 7 31.5744 7.36763 31.5744 7.81993V12.0353H39.2195C39.6729 12.0353 40.0405 12.403 40.0405 12.8553V19.404C40.0405 19.8574 39.6729 20.225 39.2195 20.225C38.7672 20.225 38.3996 19.8574 38.3996 19.404V13.6752H31.5754V17.6977V17.6966ZM33.3825 19.1875C33.703 18.867 34.2217 18.867 34.5422 19.1875C34.8627 19.508 34.8627 20.0267 34.5422 20.3472L31.211 23.6773H39.2195C39.6729 23.6773 40.0405 24.0449 40.0405 24.4972C40.0405 24.9506 39.6729 25.3171 39.2195 25.3171H31.211L34.5422 28.6483C34.8627 28.9688 34.8627 29.4875 34.5422 29.808C34.2217 30.1285 33.703 30.1285 33.3825 29.808L28.6515 25.0771C28.3311 24.7566 28.3311 24.2378 28.6515 23.9174L33.3825 19.1864V19.1875Z" fill="#FD1716"/>
<defs>
<linearGradient id="paint0_linear_5293_28711" x1="19.4257" y1="71.4387" x2="71.7617" y2="24.0168" gradientUnits="userSpaceOnUse">
<stop stop-color="#FF1717"/>
<stop offset="1" stop-color="#FF6461"/>
</linearGradient>
</defs>
</svg>
