<svg width="50" height="50" viewBox="0 0 50 50" fill="none" xmlns="http://www.w3.org/2000/svg">
<rect width="50" height="50" rx="5" fill="white"/>
<rect x="0.5" y="0.5" width="49" height="49" rx="4.5" stroke="url(#paint0_linear_5293_28708)" stroke-opacity="0.2"/>
<path d="M24.2549 36.6707H10.9794V31.2561H17.1768C19.5253 31.2561 21.4171 29.3642 21.4171 27.0157V26.5916C21.4171 24.2431 19.5253 22.3512 17.1768 22.3512H10.9794V16.9366H12.9038H35.9321C36.4866 16.9366 37.0085 16.7735 37.4651 16.4799V25.3847C37.4651 25.7435 37.7587 26.0371 38.1175 26.0371C38.4763 26.0371 38.7698 25.7435 38.7698 25.3847V14.0988V13.9683V13.8378C38.7698 12.2721 37.4977 11 35.9321 11H14.0781C13.0669 11 12.2189 11.8155 12.2189 12.8593V15.6318H10.2944C9.93561 15.6318 9.64205 15.9254 9.64205 16.2842V22.3512H8.23948C7.5545 22.3512 7 22.9057 7 23.5907V29.9839C7 30.6689 7.5545 31.2234 8.23948 31.2234H9.67467V37.2905C9.67467 37.6493 9.96823 37.9428 10.327 37.9428H24.2549C24.6137 37.9428 24.9072 37.6493 24.9072 37.2905C24.9072 36.9317 24.6137 36.6707 24.2549 36.6707ZM13.5562 12.8593C13.5562 12.5657 13.7845 12.3047 14.1107 12.3047H35.9647C36.8127 12.3047 37.4977 12.9897 37.4977 13.8378V13.9683V14.0988C37.4977 14.9468 36.8127 15.6318 35.9647 15.6318H13.5562V12.8593ZM8.30472 23.6886H17.1768C18.8077 23.6886 20.1124 24.9933 20.1124 26.6242V27.0483C20.1124 28.6792 18.8077 29.9839 17.1768 29.9839H8.30472V23.6886Z" fill="#FD1716"/>
<path d="M18.5774 26.82C18.5774 26.2002 18.0881 25.7109 17.4684 25.7109C16.8486 25.7109 16.3594 26.2002 16.3594 26.82C16.3594 27.4397 16.8486 27.929 17.4684 27.929C18.0881 27.929 18.5774 27.4397 18.5774 26.82Z" fill="#FD1716"/>
<path d="M38.7387 29.6583C37.9233 27.8969 36.0967 26.7227 34.1396 26.7227C33.4546 26.7227 32.7697 26.8531 32.1499 27.1141C31.8238 27.2446 31.6607 27.636 31.7911 27.9622C31.9216 28.2883 32.313 28.4514 32.6392 28.321C33.0958 28.1252 33.6177 28.0274 34.107 28.0274C35.6727 28.0274 37.0752 29.0059 37.6297 30.4738C37.7276 30.7021 37.9233 30.8652 38.1516 30.8978C39.5868 31.0935 40.6958 32.333 40.6958 33.8009C40.6958 34.4858 40.4349 35.1382 40.0108 35.6601C39.7825 35.9211 39.8151 36.3451 40.0761 36.5734C40.2065 36.6713 40.337 36.7365 40.5001 36.7365C40.6958 36.7365 40.8589 36.6713 40.9894 36.5082C41.6417 35.758 42.0005 34.7794 42.0005 33.8009C42.0331 31.8111 40.6632 30.0824 38.7387 29.6583Z" fill="#FD1716"/>
<path d="M30.8765 29.038L30.8438 29.0054L28.7563 26.8852C28.4954 26.6242 28.1039 26.6242 27.843 26.8852C27.5821 27.1461 27.5821 27.5375 27.843 27.7985L29.637 29.6251C29.4413 29.9839 29.3108 30.408 29.213 30.7994C27.5168 31.1256 26.2773 32.626 26.2773 34.3874C26.2773 36.2793 27.6799 37.845 29.5065 38.0407C29.5391 38.0407 29.5391 38.0407 29.5717 38.0407H37.8893L39.5854 39.7368C39.7159 39.8673 39.879 39.9325 40.0421 39.9325C40.2052 39.9325 40.3683 39.8673 40.4987 39.7368C40.7597 39.4759 40.7597 39.0845 40.4987 38.8235L30.8765 29.038ZM29.6044 36.6707C28.4301 36.5402 27.5494 35.5291 27.5494 34.3222C27.5494 33.0827 28.528 32.0389 29.7675 31.9736C30.0936 31.9736 30.3546 31.7127 30.3872 31.3865C30.4198 31.0929 30.485 30.832 30.5829 30.571L36.5846 36.6707H29.6044Z" fill="#FD1716"/>
<defs>
<linearGradient id="paint0_linear_5293_28708" x1="19.4257" y1="71.4387" x2="71.7617" y2="24.0168" gradientUnits="userSpaceOnUse">
<stop stop-color="#FF1717"/>
<stop offset="1" stop-color="#FF6461"/>
</linearGradient>
</defs>
</svg>
