<svg width="60" height="60" viewBox="0 0 60 60" fill="none" xmlns="http://www.w3.org/2000/svg">
<g filter="url(#filter0_d_2299_1655)">
<rect x="6" y="6" width="46.4881" height="46.4881" rx="7.40269" fill="url(#paint0_linear_2299_1655)" shape-rendering="crispEdges"/>
<path d="M19.826 35.7964H23.9788C24.1765 35.7964 24.337 35.6359 24.337 35.4382V32.3172C24.337 32.1194 24.1765 31.959 23.9788 31.959H19.826C19.6282 31.959 19.4678 32.1194 19.4678 32.3172V35.4382C19.4678 35.6359 19.6282 35.7964 19.826 35.7964ZM20.1841 32.6754H23.6206V35.08H20.1841V32.6754Z" fill="white"/>
<path d="M26.5769 28.793C26.3792 28.793 26.2188 28.9534 26.2188 29.1512V35.4381C26.2188 35.6358 26.3792 35.7963 26.5769 35.7963H30.7298C30.9275 35.7963 31.088 35.6358 31.088 35.4381V29.1512C31.088 28.9534 30.9275 28.793 30.7298 28.793H26.5769ZM30.3716 35.0799H26.9351V29.5093H30.3716V35.0799Z" fill="white"/>
<path d="M32.9678 26.9988V35.4406C32.9678 35.6383 33.1282 35.7988 33.326 35.7988H37.4788C37.6765 35.7988 37.837 35.6383 37.837 35.4406V26.9988C37.837 26.8011 37.6765 26.6406 37.4788 26.6406H33.326C33.1282 26.6406 32.9678 26.8011 32.9678 26.9988ZM33.6841 27.357H37.1206V35.0824H33.6841V27.357Z" fill="white"/>
<path d="M18.3582 40.2093H38.9466C39.1444 40.2093 39.3048 40.0489 39.3048 39.8511V37.8074C39.3048 37.6097 39.1444 37.4492 38.9466 37.4492H18.3582C18.1604 37.4492 18 37.6097 18 37.8074V39.8511C18 40.0489 18.1604 40.2093 18.3582 40.2093ZM18.7164 38.1656H38.5884V39.4929H18.7164V38.1656Z" fill="white"/>
<path d="M21.9479 30.58C22.015 30.6518 22.1055 30.6947 22.2035 30.6966H22.2128C22.3079 30.6966 22.3993 30.6584 22.4656 30.5912L27.4346 25.627L29.4046 27.2724C29.5455 27.389 29.7535 27.3824 29.885 27.2537L34.7774 22.4518L35.6272 23.3473C35.7204 23.4453 35.8613 23.4835 35.9928 23.4425C36.1215 23.4014 36.2195 23.2923 36.2409 23.158L37.017 18.4175C37.0357 18.3009 36.9955 18.1833 36.9116 18.1003C36.8258 18.0192 36.7064 17.9837 36.5917 18.007L31.7869 19.0033C31.6535 19.0322 31.5453 19.1348 31.5127 19.2663C31.4791 19.3997 31.5248 19.5405 31.6293 19.6292L32.5369 20.3884L29.4467 23.5403L27.1968 21.9116C27.0392 21.7969 26.8172 21.8305 26.7006 21.9881L21.2177 29.3432C21.1151 29.4793 21.1244 29.6706 21.2391 29.7965L21.9479 30.58ZM29.2786 24.3043C29.4222 24.4097 29.62 24.3901 29.744 24.2633L33.3211 20.6143C33.3901 20.5425 33.4284 20.4445 33.4237 20.3466C33.4191 20.2486 33.3734 20.1535 33.295 20.0891L32.657 19.5565L36.2267 18.8159L35.6511 22.3287L35.0467 21.6907C34.9796 21.6217 34.8891 21.5806 34.7939 21.5788C34.696 21.5788 34.6055 21.6142 34.5365 21.6814L29.6152 26.5122L27.6424 24.8667C27.5015 24.7473 27.2917 24.7567 27.1602 24.8882L22.2267 29.8171L21.9693 29.5307L27.0651 22.6963L29.2786 24.2988L29.2786 24.3043Z" fill="white"/>
</g>
<defs>
<filter id="filter0_d_2299_1655" x="0.447986" y="0.447986" width="59.443" height="59.443" filterUnits="userSpaceOnUse" color-interpolation-filters="sRGB">
<feFlood flood-opacity="0" result="BackgroundImageFix"/>
<feColorMatrix in="SourceAlpha" type="matrix" values="0 0 0 0 0 0 0 0 0 0 0 0 0 0 0 0 0 0 127 0" result="hardAlpha"/>
<feOffset dx="0.925336" dy="0.925336"/>
<feGaussianBlur stdDeviation="3.23867"/>
<feComposite in2="hardAlpha" operator="out"/>
<feColorMatrix type="matrix" values="0 0 0 0 0.211765 0 0 0 0 0.211765 0 0 0 0 0.211765 0 0 0 0.35 0"/>
<feBlend mode="normal" in2="BackgroundImageFix" result="effect1_dropShadow_2299_1655"/>
<feBlend mode="normal" in="SourceGraphic" in2="effect1_dropShadow_2299_1655" result="shape"/>
</filter>
<linearGradient id="paint0_linear_2299_1655" x1="24.0613" y1="72.421" x2="72.7213" y2="28.3299" gradientUnits="userSpaceOnUse">
<stop stop-color="#FF1717"/>
<stop offset="1" stop-color="#FF6461"/>
</linearGradient>
</defs>
</svg>
