<svg width="50" height="50" viewBox="0 0 50 50" fill="none" xmlns="http://www.w3.org/2000/svg">
<path d="M42.7261 30.0734H42.3079V30.5216H42.7261V30.0734Z" fill="black"/>
<path d="M7.40556 21.6394H6.9873V22.5349H7.40556V21.6394Z" fill="black"/>
<path d="M7.40556 23.4299H6.9873V24.3246H7.40556V23.4299Z" fill="black"/>
<path d="M7.40556 19.8501H6.9873V20.7447H7.40556V19.8501Z" fill="black"/>
<path d="M7.40556 14.4801H6.9873V15.3748H7.40556V14.4801Z" fill="black"/>
<path d="M7.40556 12.6896H6.9873V13.5842H7.40556V12.6896Z" fill="black"/>
<path d="M7.40556 16.2698H6.9873V17.1644H7.40556V16.2698Z" fill="black"/>
<path d="M7.40556 18.0596H6.9873V18.9547H7.40556V18.0596Z" fill="black"/>
<path d="M7.40556 25.2197H6.9873V26.1144H7.40556V25.2197Z" fill="black"/>
<path d="M7.40556 37.7496H6.9873V38.6447H7.40556V37.7496Z" fill="black"/>
<path d="M7.56704 39.3984L7.21265 39.6109C7.40783 39.9101 7.70825 40.1286 8.05905 40.2253L8.17463 39.8393C7.92323 39.7698 7.70736 39.6135 7.56704 39.3984Z" fill="black"/>
<path d="M7.40556 34.1698H6.9873V35.0644H7.40556V34.1698Z" fill="black"/>
<path d="M7.40556 28.7996H6.9873V29.6946H7.40556V28.7996Z" fill="black"/>
<path d="M7.40556 27.0095H6.9873V27.9042H7.40556V27.0095Z" fill="black"/>
<path d="M7.40556 30.5894H6.9873V31.4844H7.40556V30.5894Z" fill="black"/>
<path d="M7.40556 32.3796H6.9873V33.2747H7.40556V32.3796Z" fill="black"/>
<path d="M34.6889 9.71887H33.7566V10.1204H34.6889V9.71887Z" fill="black"/>
<path d="M42.2988 11.0097C42.3047 11.0538 42.3083 11.0991 42.3083 11.144V11.8789H42.7265V11.144C42.7265 11.0814 42.7225 11.0197 42.7144 10.9592L42.2988 11.0097Z" fill="black"/>
<path d="M42.7261 12.7742H42.3079V13.6688H42.7261V12.7742Z" fill="black"/>
<path d="M41.2146 9.71924L41.2452 10.1208C41.4984 10.1208 41.7439 10.2084 41.936 10.3669L42.2085 10.0625C41.9409 9.841 41.5987 9.71924 41.2447 9.71924H41.2146Z" fill="black"/>
<path d="M42.7261 18.1442H42.3079V19.0392H42.7261V18.1442Z" fill="black"/>
<path d="M7.40605 11.1442C7.40605 11.0743 7.41369 11.006 7.42673 10.9408L7.01658 10.8618C6.99724 10.9542 6.98779 11.0492 6.98779 11.1442V11.7945H7.40605V11.1442Z" fill="black"/>
<path d="M42.7261 14.5643H42.3079V15.459H42.7261V14.5643Z" fill="black"/>
<path d="M42.7261 16.3545H42.3079V17.2491H42.7261V16.3545Z" fill="black"/>
<path d="M40.2822 9.71887H39.3503V10.1204H40.2822V9.71887Z" fill="black"/>
<path d="M30.9597 9.71887H30.0278V10.1204H30.9597V9.71887Z" fill="black"/>
<path d="M29.0954 9.71887H28.1636V10.1204H29.0954V9.71887Z" fill="black"/>
<path d="M27.2309 9.71887H26.2986V10.1204H27.2309V9.71887Z" fill="black"/>
<path d="M32.8246 9.71887H31.8923V10.1204H32.8246V9.71887Z" fill="black"/>
<path d="M36.5534 9.71887H35.6211V10.1204H36.5534V9.71887Z" fill="black"/>
<path d="M7.58472 10.0008L7.83477 10.3229C8.01916 10.1904 8.23818 10.1204 8.4689 10.1204H8.58718V9.71887H8.4689C8.14734 9.71887 7.84152 9.81645 7.58472 10.0008Z" fill="black"/>
<path d="M38.4177 9.71887H37.4858V10.1204H38.4177V9.71887Z" fill="black"/>
<path d="M7.40556 35.9598H6.9873V36.8545H7.40556V35.9598Z" fill="black"/>
<path d="M37.9431 39.8792H37.0112V40.2807H37.9431V39.8792Z" fill="black"/>
<path d="M32.3494 39.8792H31.418V40.2807H32.3494V39.8792Z" fill="black"/>
<path d="M30.4851 39.8792H29.5532V40.2807H30.4851V39.8792Z" fill="black"/>
<path d="M36.0786 39.8792H35.1467V40.2807H36.0786V39.8792Z" fill="black"/>
<path d="M34.2143 39.8792H33.2825V40.2807H34.2143V39.8792Z" fill="black"/>
<path d="M28.6206 39.8792H27.6887V40.2807H28.6206V39.8792Z" fill="black"/>
<path d="M25.3666 9.71887H24.4343V10.1204H25.3666V9.71887Z" fill="black"/>
<path d="M26.7563 39.8792H25.8245V40.2807H26.7563V39.8792Z" fill="black"/>
<path d="M24.8918 39.8792H23.96V40.2807H24.8918V39.8792Z" fill="black"/>
<path d="M42.7261 33.2073H42.3079V34.1019H42.7261V33.2073Z" fill="black"/>
<path d="M42.7261 31.4171H42.3079V32.3118H42.7261V31.4171Z" fill="black"/>
<path d="M42.7261 34.9971H42.3079V35.8917H42.7261V34.9971Z" fill="black"/>
<path d="M41.7335 40.2013L41.5954 39.8226C41.4834 39.8606 41.3652 39.8792 41.2455 39.8792H40.7405V40.2807H41.2455C41.4128 40.2807 41.577 40.254 41.7335 40.2013Z" fill="black"/>
<path d="M39.8073 39.8792H38.8755V40.2807H39.8073V39.8792Z" fill="black"/>
<path d="M42.7261 36.7871H42.3079V37.6818H42.7261V36.7871Z" fill="black"/>
<path d="M42.7261 38.8558V38.5769H42.3078V38.8558C42.3078 39.0285 42.2624 39.1995 42.1765 39.3494L42.5421 39.5432C42.6627 39.3338 42.7261 39.0959 42.7261 38.8558Z" fill="black"/>
<path d="M16.0446 9.71887H15.1123V10.1204H16.0446V9.71887Z" fill="black"/>
<path d="M14.1799 9.71887H13.248V10.1204H14.1799V9.71887Z" fill="black"/>
<path d="M15.5698 39.8792H14.6379V40.2807H15.5698V39.8792Z" fill="black"/>
<path d="M9.9758 39.8792H9.04395V40.2807H9.9758V39.8792Z" fill="black"/>
<path d="M13.705 39.8792H12.7732V40.2807H13.705V39.8792Z" fill="black"/>
<path d="M10.4513 9.71887H9.51904V10.1204H10.4513V9.71887Z" fill="black"/>
<path d="M12.3154 9.71887H11.3835V10.1204H12.3154V9.71887Z" fill="black"/>
<path d="M11.8405 39.8792H10.9087V40.2807H11.8405V39.8792Z" fill="black"/>
<path d="M19.2983 39.8792H18.3665V40.2807H19.2983V39.8792Z" fill="black"/>
<path d="M21.6379 9.71887H20.7061V10.1204H21.6379V9.71887Z" fill="black"/>
<path d="M23.0275 39.8792H22.0952V40.2807H23.0275V39.8792Z" fill="black"/>
<path d="M21.1631 39.8792H20.2312V40.2807H21.1631V39.8792Z" fill="black"/>
<path d="M17.9087 9.71887H16.9768V10.1204H17.9087V9.71887Z" fill="black"/>
<path d="M17.4343 39.8792H16.502V40.2807H17.4343V39.8792Z" fill="black"/>
<path d="M23.5017 9.71887H22.5698V10.1204H23.5017V9.71887Z" fill="black"/>
<path d="M19.7734 9.71887H18.8416V10.1204H19.7734V9.71887Z" fill="black"/>
<path d="M42.7261 19.9486H42.3079V20.3977H42.7261V19.9486Z" fill="black"/>
<path d="M44.7139 20.8364V10.6442C44.7139 9.1861 43.4785 8 41.9597 8H7.75373C6.23497 8 5 9.1861 5 10.6442V39.3563C5 40.8144 6.23497 42.0001 7.75373 42.0001H41.9597C43.4785 42.0001 44.7139 40.8144 44.7139 39.3563V29.4945C45.1636 29.2829 45.4762 28.8429 45.4762 28.3299V22.0013C45.4762 21.4884 45.1636 21.0484 44.7139 20.8364ZM43.8774 28.8269H31.3041C29.2079 28.8269 27.5025 27.1844 27.5025 25.1654C27.5025 23.1469 29.2079 21.5044 31.3041 21.5044H43.8774V28.8269ZM43.8774 20.7012H31.3041C28.7465 20.7012 26.666 22.7043 26.666 25.165C26.666 27.6266 28.7465 29.6296 31.3041 29.6296H43.8774V39.3559C43.8774 40.371 43.017 41.197 41.9593 41.197H7.75373C6.69685 41.197 5.83606 40.371 5.83606 39.3559V10.6442C5.83606 9.62824 6.69685 8.80268 7.75373 8.80268H41.9597C43.0175 8.80268 43.8778 9.62824 43.8778 10.6442L43.8774 20.7012Z" fill="black"/>
<path d="M30.4603 26.3808C31.2335 26.3808 31.8604 25.7775 31.8604 25.0333C31.8604 24.289 31.2335 23.6857 30.4603 23.6857C29.6871 23.6857 29.0603 24.289 29.0603 25.0333C29.0603 25.7775 29.6871 26.3808 30.4603 26.3808Z" fill="black"/>
</svg>
