<svg width="50" height="50" viewBox="0 0 50 50" fill="none" xmlns="http://www.w3.org/2000/svg">
<path d="M27.4847 19.1097H29.4558H29.5943L29.6054 19.2477C29.6687 20.0365 29.4304 20.8118 29.1168 21.4629C29.5213 21.8807 29.9026 22.3214 30.2585 22.7828C30.7863 21.8801 31.307 20.6243 31.2396 19.2671L31.2318 19.1097H31.3894H33.8149V17.484H30.9166H30.8069L30.7736 17.3795C30.6267 16.9173 30.3902 16.0286 30.4133 15.1568C30.4364 14.286 30.7226 13.3862 31.6693 12.9879L27.4847 19.1097ZM27.4847 19.1097V17.484H28.9091H29.1013L29.0546 17.2976C28.8954 16.6621 28.6835 15.4992 28.8689 14.3486C29.0533 13.2045 29.6271 12.0833 31.0355 11.4893C31.7547 11.1869 32.5704 11.102 33.3968 11.2503C34.9568 11.5312 36.5068 12.737 36.5145 14.7908H34.8888C34.8836 14.0056 34.4798 13.524 34.0593 13.2405C33.6418 12.959 33.2047 12.8691 33.1129 12.8519L33.1129 12.8519L33.1116 12.8517C32.5981 12.76 32.1008 12.8062 31.6694 12.9879L27.4847 19.1097ZM31.5281 24.7097C31.2139 24.1452 30.8652 23.6023 30.4851 23.084H35.8488V24.7122L31.5281 24.7097Z" fill="black" stroke="white" stroke-width="0.3"/>
<path d="M4.15 32.2087C4.15 24.5718 10.363 18.3587 18 18.3587C25.6366 18.3587 31.8499 24.5718 31.8499 32.2087C31.8499 39.8456 25.6369 46.0586 18 46.0586C10.363 46.0586 4.15 39.8456 4.15 32.2087ZM6.4915 32.2087C6.4915 38.5545 11.6541 43.7171 18 43.7171C24.3458 43.7171 29.5084 38.5545 29.5084 32.2087C29.5084 25.8629 24.3458 20.7002 18 20.7002C11.6541 20.7002 6.4915 25.8629 6.4915 32.2087Z" fill="black" stroke="white" stroke-width="0.3"/>
<path d="M15.1365 30.3368H15.2865V30.1868V27.7854C15.2865 26.4934 16.3377 25.4421 17.6298 25.4421H19.0343C20.3263 25.4421 21.3776 26.4934 21.3776 27.7854V29.0341H19.6888V28.4881C19.6888 27.7397 19.081 27.1317 18.3335 27.1317C17.5854 27.1317 16.9776 27.7405 16.9776 28.4881V30.1858V30.3358H17.1276H19.9541L19.8222 31.608H17.1266H16.9766V31.758V32.6564V32.8064H17.1266H19.681L19.5498 34.0786H17.1268H16.9768V34.2286V35.9281C16.9768 36.6766 17.5846 37.2845 18.3324 37.2845C19.0805 37.2845 19.688 36.6757 19.688 35.9281V35.3821H21.3776V36.6308C21.3776 37.9228 20.3263 38.9741 19.0343 38.9741H17.6298C16.3377 38.9741 15.2865 37.9228 15.2865 36.6308V34.2296V34.0796H15.1365H14.1104L14.2421 32.8074H15.1365H15.2865V32.6574V31.759V31.609H15.1365H14.384L14.515 30.3368H15.1365Z" fill="black" stroke="white" stroke-width="0.3"/>
<path d="M31.9999 6.4351C25.9911 6.4351 21.0415 11.0639 20.5365 16.9461C19.7752 16.8186 18.9958 16.7487 18.202 16.7383C18.8144 9.66453 24.7715 4.0936 31.9999 4.0936C39.6355 4.0936 45.8498 10.3079 45.8498 17.9436C45.8498 25.0879 40.4144 30.9845 33.4616 31.7175C33.4389 30.9234 33.3531 30.1444 33.2134 29.3877C38.9909 28.7786 43.5083 23.8801 43.5083 17.9436C43.5083 11.5977 38.3457 6.4351 31.9999 6.4351Z" fill="black" stroke="white" stroke-width="0.3"/>
<path d="M14.3214 9.72048L14.0561 9.9781L12.9028 11.0978C12.439 11.5483 12.4282 12.2894 12.8785 12.7533L12.8785 12.7533C13.1079 12.9898 13.4128 13.1085 13.7183 13.1085C14.0123 13.1085 14.3062 12.9985 14.5339 12.7776C14.5339 12.7776 14.5339 12.7776 14.5339 12.7776L18.0168 9.39545C18.0198 9.39188 18.0239 9.38722 18.0292 9.38213C18.0671 9.34466 18.1015 9.3009 18.1406 9.24899L18.2604 9.33928M14.3214 9.72048L18.1273 9.49724C18.1285 9.49618 18.1294 9.49492 18.1303 9.49367C18.1312 9.49241 18.1322 9.49116 18.1333 9.4901C18.1804 9.44388 18.2208 9.39184 18.2604 9.33928M14.3214 9.72048H13.9516H10.6038C8.33612 9.72048 6.4915 11.5651 6.4915 13.8327V16.8504C6.4915 17.4971 5.96725 18.0211 5.32075 18.0211C4.67424 18.0211 4.15 17.4971 4.15 16.8506V13.833C4.15 10.2745 7.04529 7.37924 10.6038 7.37924H13.9519H14.3216L14.0564 7.12164L13.0087 6.10414L12.9042 6.21174L13.0087 6.10414C12.5449 5.6536 12.5339 4.91253 12.9844 4.4487C13.4349 3.98487 14.1759 3.97407 14.6398 4.42432L14.3214 9.72048ZM18.2604 9.33928L18.1399 9.2499C18.1498 9.23665 18.1605 9.22461 18.1663 9.21815L18.168 9.21624C18.1741 9.2093 18.1756 9.20735 18.1759 9.20705C18.3033 9.01951 18.378 8.79377 18.378 8.54999C18.378 8.47079 18.37 8.39268 18.3544 8.31657L18.3543 8.31622C18.323 8.16191 18.2612 8.01871 18.1755 7.89263L18.1753 7.89239C18.1752 7.8923 18.1748 7.89165 18.1736 7.89027L18.1666 7.88212C18.1661 7.88148 18.1654 7.88074 18.1647 7.87993C18.1587 7.87323 18.148 7.86117 18.1382 7.84802M18.2604 9.33928C18.266 9.33179 18.2722 9.32481 18.2784 9.31781C18.2858 9.3095 18.2932 9.30117 18.2995 9.29199C18.4435 9.08041 18.528 8.82524 18.528 8.54999C18.528 8.46071 18.519 8.37249 18.5013 8.28637C18.4659 8.11203 18.3962 7.95037 18.2995 7.80826C18.2928 7.79836 18.2848 7.78935 18.2768 7.78033C18.2703 7.77298 18.2638 7.76564 18.258 7.75781C18.2189 7.7063 18.1793 7.65505 18.1333 7.60988M18.1382 7.84802C18.138 7.84775 18.1378 7.84749 18.1376 7.84722L18.258 7.75783L18.1385 7.84849C18.1384 7.84833 18.1383 7.84818 18.1382 7.84802ZM18.1382 7.84802C18.0993 7.79675 18.0659 7.75414 18.0292 7.71787M18.0292 7.71787C18.0306 7.71922 18.0321 7.7206 18.0337 7.722L18.1333 7.60988M18.0292 7.71787C18.0289 7.71754 18.0285 7.7172 18.0282 7.71687L18.1333 7.60988M18.0292 7.71787C18.0239 7.71278 18.0198 7.70811 18.0168 7.70453M18.1333 7.60988C18.1322 7.60883 18.1312 7.60757 18.1303 7.60632C18.1294 7.60506 18.1285 7.60381 18.1273 7.60275L14.7443 4.31673L14.6398 4.42436L18.0168 7.70453M18.0168 7.70453L18.0228 7.71035L18.0227 7.71045L18.0276 7.71486C18.0259 7.71331 18.0243 7.71179 18.0228 7.71034C18.0184 7.70602 18.0151 7.70224 18.013 7.69972C18.0106 7.69674 18.0087 7.69416 18.0096 7.69531C18.0096 7.69538 18.011 7.69732 18.0131 7.69993C18.0139 7.70101 18.0149 7.70221 18.0159 7.70343C18.0162 7.70379 18.0165 7.70415 18.0168 7.70453Z" fill="black" stroke="white" stroke-width="0.3"/>
<path d="M31.7403 40.8111L31.8601 40.9014C31.8993 40.8494 31.9333 40.8059 31.9709 40.7688C31.9762 40.7637 31.9804 40.759 31.9834 40.7554L35.4662 37.3733C35.4662 37.3733 35.4663 37.3733 35.4663 37.3733C35.9301 36.9233 36.6712 36.934 37.1217 37.3976C37.572 37.8615 37.5612 38.6025 37.0973 39.0531L35.9441 40.1728L35.6787 40.4304H36.0486H39.3964C41.664 40.4304 43.5087 38.5858 43.5087 36.3181V33.3005C43.5087 32.6538 44.0329 32.1297 44.6794 32.1297C45.3259 32.1297 45.8502 32.6538 45.8502 33.3002V36.3179C45.8502 39.8763 42.9549 42.7716 39.3964 42.7716H36.0488H35.6791L35.9443 43.0292L36.9919 44.0467C37.4558 44.4973 37.4668 45.2383 37.0163 45.7022L37.0163 45.7022C36.7868 45.9387 36.482 46.0574 36.1764 46.0574C35.8824 46.0574 35.5886 45.9474 35.3609 45.7265C35.3609 45.7265 35.3608 45.7265 35.3608 45.7265L31.9834 42.4469C31.9804 42.4433 31.9764 42.4388 31.9712 42.4338C31.9338 42.3966 31.8998 42.3534 31.8613 42.3024C31.8518 42.2897 31.8413 42.278 31.8354 42.2713C31.8346 42.2704 31.834 42.2697 31.8334 42.269L31.8264 42.2609C31.8251 42.2593 31.8245 42.2585 31.8244 42.2583C31.7388 42.1324 31.6772 41.9891 31.6458 41.8349L31.6458 41.8346C31.6301 41.7585 31.6222 41.6803 31.6222 41.6011C31.6222 41.3571 31.697 41.1312 31.8247 40.9435L31.8248 40.9433C31.8248 40.9433 31.8261 40.9416 31.8325 40.9344C31.833 40.9337 31.8336 40.933 31.8343 40.9323C31.8401 40.9258 31.8508 40.9138 31.8605 40.9008L31.7403 40.8111ZM31.7403 40.8111C31.7347 40.8185 31.7286 40.8255 31.7224 40.8324C31.7147 40.841 31.7071 40.8496 31.7007 40.8591L31.8729 40.6536C31.8717 40.6547 31.8708 40.6559 31.8698 40.6572C31.8689 40.6585 31.868 40.6597 31.8668 40.6608C31.8201 40.7067 31.7799 40.7585 31.7403 40.8111Z" fill="black" stroke="white" stroke-width="0.3"/>
</svg>
