<svg width="50" height="50" viewBox="0 0 50 50" fill="none" xmlns="http://www.w3.org/2000/svg">
<path d="M12.8175 45.5107H38.1831C39.7364 45.5107 41 44.2471 41 42.6938C41 37.7172 41 10.7501 41 7.20482C41 5.65094 39.7364 4.38733 38.1831 4.38733H12.8175C11.2364 4.38733 10 5.71248 10 7.20482V42.6938C10 44.2471 11.2642 45.5107 12.8175 45.5107ZM38.1831 44.5393H12.8175C11.7993 44.5393 10.9714 43.7114 10.9714 42.6938V12.1587H40.0286V42.6938C40.0286 43.7114 39.2007 44.5393 38.1831 44.5393ZM40.0286 11.1873H10.9721V7.20482C10.9721 6.18664 11.7996 5.35938 12.8175 5.35938H38.1831C39.2007 5.35938 40.0286 6.18724 40.0286 7.20482V11.1873Z" fill="black"/>
<path d="M15.083 6.245C13.9668 6.245 13.0586 7.1557 13.0586 8.27574C13.0586 10.9551 17.1074 10.9518 17.1074 8.27574C17.1074 7.1557 16.1993 6.245 15.083 6.245ZM15.083 9.32874C14.5024 9.32874 14.03 8.85632 14.03 8.27574C14.03 7.69137 14.5024 7.21641 15.083 7.21641C15.6636 7.21641 16.136 7.69137 16.136 8.27574C16.136 8.85632 15.6636 9.32874 15.083 9.32874Z" fill="black"/>
<path d="M20.2473 6.245C19.1311 6.245 18.2229 7.1557 18.2229 8.27574C18.2229 9.39198 19.1311 10.3002 20.2473 10.3002C21.3636 10.3002 22.2717 9.39199 22.2717 8.27574C22.2717 7.1557 21.3636 6.245 20.2473 6.245ZM20.2473 9.32874C19.6668 9.32874 19.1943 8.85632 19.1943 8.27574C19.1943 7.69137 19.6667 7.21641 20.2473 7.21641C20.8279 7.21641 21.3003 7.69137 21.3003 8.27574C21.3003 8.85632 20.8279 9.32874 20.2473 9.32874Z" fill="black"/>
<path d="M25.4119 6.245C24.2956 6.245 23.3875 7.1557 23.3875 8.27574C23.3875 9.39198 24.2956 10.3002 25.4119 10.3002C26.5281 10.3002 27.4363 9.39199 27.4363 8.27574C27.4363 7.1557 26.5281 6.245 25.4119 6.245ZM25.4119 9.32874C24.8313 9.32874 24.3589 8.85632 24.3589 8.27574C24.3589 7.69137 24.8313 7.21641 25.4119 7.21641C25.9925 7.21641 26.4649 7.69137 26.4649 8.27574C26.4649 8.85632 25.9924 9.32874 25.4119 9.32874Z" fill="black"/>
<path d="M20.4071 32.7202H30.5937C31.6935 32.7202 32.5884 31.8253 32.5884 30.7255V23.259C32.5884 22.1592 31.6935 21.2643 30.5937 21.2643H29.9631V20.1493C29.9631 17.7389 28.017 15.6553 25.4754 15.6553C22.9969 15.6553 20.9807 17.6715 20.9807 20.1493V21.2643H20.4071C19.3072 21.2643 18.4124 22.1592 18.4124 23.259V30.7255C18.4124 31.8253 19.3072 32.7202 20.4071 32.7202ZM21.9521 20.1494C21.9521 18.2071 23.5325 16.6267 25.4754 16.6267C27.4756 16.6267 28.9917 18.2714 28.9917 20.1494V21.2643H21.9521V20.1494ZM19.3838 23.259C19.3838 22.6949 19.8429 22.2357 20.4071 22.2357H30.5937C31.1578 22.2357 31.6169 22.6949 31.6169 23.259V30.7255C31.6169 31.2897 31.1578 31.7488 30.5937 31.7488H20.4071C19.8429 31.7488 19.3838 31.2897 19.3838 30.7255V23.259Z" fill="black"/>
<path d="M14.8375 34.2125C14.5694 34.2125 14.3518 34.43 14.3518 34.6982V39.4534C14.3518 39.7216 14.5694 39.9392 14.8375 39.9392H36.1625C36.4307 39.9392 36.6482 39.7216 36.6482 39.4534V34.6982C36.6483 33.7592 36.2596 34.4262 14.8375 34.2125ZM35.6768 38.9677H15.3232V35.1839H35.6768L35.6768 38.9677Z" fill="black"/>
<path d="M19.0316 37.5633C19.2215 37.5633 19.3996 37.4524 19.4851 37.2585C19.5968 37.0079 19.4563 36.7297 19.2195 36.6242C18.8254 36.4634 18.4133 36.8744 18.5845 37.2585C18.6104 37.3173 18.8602 37.5633 19.0316 37.5633Z" fill="black"/>
<path d="M22.0689 37.2584C22.275 36.796 21.6548 36.3583 21.279 36.7341C21.1373 36.8758 21.0989 37.0869 21.1753 37.2584C21.2278 37.4158 21.8716 37.7059 22.0689 37.2584Z" fill="black"/>
<path d="M24.5489 37.4207C24.7333 37.2388 24.7434 36.9289 24.5489 36.7345C24.1732 36.3574 23.5535 36.7975 23.759 37.2588C23.785 37.3239 24.2781 37.6953 24.5489 37.4207Z" fill="black"/>
<path d="M27.1337 37.4204C27.3163 37.2508 27.3308 36.9314 27.1337 36.7342C26.6942 36.2733 25.9876 36.9637 26.4475 37.4204C26.5442 37.5115 26.9586 37.5966 27.1337 37.4204Z" fill="black"/>
<path d="M29.8274 37.2583C30.1352 36.5676 28.8945 36.3057 28.8945 37.0775C28.8945 37.142 28.9078 37.2002 28.9337 37.2583C29.0554 37.6234 29.6307 37.7045 29.8274 37.2583Z" fill="black"/>
<path d="M32.4499 37.078C32.4499 36.6291 31.9058 36.4496 31.6207 36.7346C31.4318 36.9235 31.4304 37.2305 31.6207 37.4208C31.9184 37.7185 32.4499 37.5131 32.4499 37.078Z" fill="black"/>
<path d="M24.3644 28.0988C24.4741 28.6889 23.8922 30.8354 25.4978 30.8354C27.1184 30.8354 26.5276 28.6616 26.6311 28.1058C28.6926 26.9333 27.8521 23.7958 25.4978 23.7958C24.2297 23.7958 23.1982 24.8273 23.1982 26.0953C23.1982 26.9269 23.6549 27.6928 24.3644 28.0988ZM26.8316 26.0953C26.8316 27.2047 25.8559 27.2217 25.6869 27.6106C25.6394 27.7196 25.6592 29.6363 25.6597 29.7021C25.6597 29.881 25.3359 29.881 25.3359 29.7021L25.3422 27.8769C25.4573 27.1728 24.1697 27.3717 24.1697 26.0953C24.1697 25.3629 26.8316 24.3429 26.8316 26.0953Z" fill="black"/>
</svg>
