<svg width="29" height="9" viewBox="0 0 29 9" fill="none" xmlns="http://www.w3.org/2000/svg">
<path d="M26.214 2.58134L23.7225 5.08251L22.5745 3.92492C22.5226 3.87304 22.4523 3.84389 22.3789 3.84389C22.3056 3.84389 22.2352 3.87304 22.1833 3.92492C22.1314 3.97679 22.1023 4.04715 22.1023 4.12052C22.1023 4.19389 22.1314 4.26425 22.1833 4.31612L23.5269 5.6597C23.5523 5.68588 23.5827 5.7067 23.6163 5.72091C23.6499 5.73512 23.686 5.74245 23.7225 5.74245C23.759 5.74245 23.7951 5.73512 23.8287 5.72091C23.8623 5.7067 23.8927 5.68588 23.9181 5.6597L26.6052 2.97255C26.6309 2.94686 26.6513 2.91637 26.6652 2.88281C26.6791 2.84924 26.6863 2.81327 26.6863 2.77695C26.6863 2.74062 26.6791 2.70465 26.6652 2.67109C26.6513 2.63752 26.6309 2.60703 26.6052 2.58134C26.5796 2.55566 26.5491 2.53528 26.5155 2.52138C26.4819 2.50748 26.446 2.50032 26.4096 2.50032C26.3733 2.50032 26.3373 2.50748 26.3038 2.52138C26.2702 2.53528 26.2397 2.55566 26.214 2.58134Z" fill="url(#paint0_linear_6_2435)"/>
<path d="M26.214 2.58134L23.7225 5.08251L22.5745 3.92492C22.5226 3.87304 22.4523 3.84389 22.3789 3.84389C22.3056 3.84389 22.2352 3.87304 22.1833 3.92492C22.1314 3.97679 22.1023 4.04715 22.1023 4.12052C22.1023 4.19389 22.1314 4.26425 22.1833 4.31612L23.5269 5.6597C23.5523 5.68588 23.5827 5.7067 23.6163 5.72091C23.6499 5.73512 23.686 5.74245 23.7225 5.74245C23.759 5.74245 23.7951 5.73512 23.8287 5.72091C23.8623 5.7067 23.8927 5.68588 23.9181 5.6597L26.6052 2.97255C26.6309 2.94686 26.6513 2.91637 26.6652 2.88281C26.6791 2.84924 26.6863 2.81327 26.6863 2.77695C26.6863 2.74062 26.6791 2.70465 26.6652 2.67109C26.6513 2.63752 26.6309 2.60703 26.6052 2.58134C26.5796 2.55566 26.5491 2.53528 26.5155 2.52138C26.4819 2.50748 26.446 2.50032 26.4096 2.50032C26.3733 2.50032 26.3373 2.50748 26.3038 2.52138C26.2702 2.53528 26.2397 2.55566 26.214 2.58134Z" fill="black" fill-opacity="0.2"/>
<path d="M24.5499 0C23.5054 0.00248055 22.5006 0.400957 21.7383 1.11507C20.976 1.82918 20.5128 2.80579 20.4422 3.84795H15.9369V3.47919C15.9358 3.13198 15.8098 2.79676 15.582 2.53477C15.3541 2.27278 15.0396 2.10151 14.696 2.05224V1.79571C14.696 1.37048 14.527 0.962675 14.2264 0.661996C13.9257 0.361317 13.5179 0.192397 13.0926 0.192397C12.6674 0.192397 12.2596 0.361317 11.9589 0.661996C11.6582 0.962675 11.4893 1.37048 11.4893 1.79571V2.05224C11.1509 2.10775 10.8432 2.28172 10.6212 2.54309C10.3992 2.80447 10.2773 3.13624 10.2772 3.47919V3.83833H5.67572V3.47919C5.67539 3.13227 5.5501 2.79709 5.32278 2.53503C5.09547 2.27297 4.78135 2.10158 4.43797 2.05224V1.79571C4.43797 1.37048 4.26905 0.962675 3.96837 0.661996C3.66769 0.361317 3.25988 0.192397 2.83465 0.192397C2.40943 0.192397 2.00162 0.361317 1.70094 0.661996C1.40026 0.962675 1.23134 1.37048 1.23134 1.79571V2.05224C0.889127 2.10298 0.57653 2.27498 0.350513 2.5369C0.124496 2.79882 0.000102781 3.13323 0 3.47919V5.33903C-9.39401e-07 5.72287 0.152262 6.09105 0.423383 6.36277C0.694504 6.63449 1.06234 6.78757 1.44619 6.78842H4.22312C4.41373 6.78884 4.60255 6.75166 4.77877 6.67901C4.95498 6.60636 5.11514 6.49967 5.25007 6.36504C5.385 6.23041 5.49205 6.07048 5.56509 5.89443C5.63813 5.71837 5.67572 5.52963 5.67572 5.33903V4.40269H10.2772V5.33903C10.2781 5.72317 10.431 6.09134 10.7027 6.36297C10.9743 6.6346 11.3425 6.78757 11.7266 6.78842H14.5003C14.8823 6.7842 15.2471 6.62974 15.516 6.35848C15.7849 6.08721 15.9361 5.72096 15.9369 5.33903V4.40269H20.4262C20.4817 5.20224 20.7695 5.96818 21.254 6.60658C21.7386 7.24498 22.3989 7.72807 23.1541 7.9966C23.9092 8.26513 24.7263 8.30742 25.5052 8.11829C26.284 7.92917 26.9907 7.51684 27.5386 6.93188C28.0865 6.34692 28.4517 5.61478 28.5896 4.82525C28.7274 4.03571 28.6318 3.22312 28.3144 2.48714C27.9971 1.75116 27.4719 1.1238 26.8032 0.681999C26.1345 0.2402 25.3514 0.00317649 24.5499 0ZM2.83465 0.785622C2.97025 0.784352 3.10477 0.809806 3.23053 0.860526C3.35629 0.911246 3.47082 0.986241 3.5676 1.08123C3.66437 1.17622 3.74149 1.28933 3.79454 1.41413C3.84759 1.53892 3.87555 1.67294 3.87681 1.80853V2.04262H1.7925V1.80853C1.79376 1.67294 1.82171 1.53892 1.87477 1.41413C1.92782 1.28933 2.00494 1.17622 2.10171 1.08123C2.19849 0.986241 2.31302 0.911246 2.43878 0.860526C2.56454 0.809806 2.69906 0.784352 2.83465 0.785622ZM5.11777 5.33903C5.11777 5.5763 5.02351 5.80386 4.85573 5.97164C4.68795 6.13942 4.4604 6.23367 4.22312 6.23367H1.44619C1.32816 6.23452 1.21114 6.212 1.10185 6.16742C0.992565 6.12284 0.893181 6.05708 0.809425 5.97392C0.725669 5.89076 0.659196 5.79184 0.613835 5.68288C0.568474 5.57392 0.545123 5.45705 0.545126 5.33903V3.47919C0.545126 3.24191 0.639383 3.01435 0.807162 2.84657C0.974941 2.67879 1.2025 2.58454 1.43977 2.58454H4.21671C4.33473 2.58369 4.45176 2.60621 4.56105 2.65079C4.67033 2.69537 4.76971 2.76113 4.85347 2.84429C4.93723 2.92745 5.0037 3.02637 5.04906 3.13533C5.09442 3.24429 5.11777 3.36116 5.11777 3.47919V5.33903ZM13.1151 0.785622C13.2507 0.784352 13.3852 0.809806 13.511 0.860526C13.6367 0.911246 13.7513 0.986241 13.848 1.08123C13.9448 1.17622 14.0219 1.28933 14.075 1.41413C14.128 1.53892 14.156 1.67294 14.1572 1.80853V2.04262H12.0697V1.80853C12.0731 1.53439 12.185 1.27278 12.381 1.08103C12.577 0.889287 12.8409 0.783054 13.1151 0.785622ZM15.395 5.33903C15.395 5.5763 15.3007 5.80386 15.133 5.97164C14.9652 6.13942 14.7376 6.23367 14.5003 6.23367H11.7266C11.4893 6.23367 11.2618 6.13942 11.094 5.97164C10.9262 5.80386 10.832 5.5763 10.832 5.33903V3.47919C10.832 3.24191 10.9262 3.01435 11.094 2.84657C11.2618 2.67879 11.4893 2.58454 11.7266 2.58454H14.5003C14.6178 2.58454 14.7342 2.60768 14.8427 2.65264C14.9513 2.6976 15.0499 2.7635 15.133 2.84657C15.216 2.92965 15.2819 3.02827 15.3269 3.13682C15.3719 3.24536 15.395 3.3617 15.395 3.47919V5.33903ZM24.5499 7.68627C23.8449 7.68501 23.1562 7.4748 22.5706 7.08222C21.9851 6.68964 21.529 6.1323 21.2601 5.48063C20.9912 4.82896 20.9215 4.11221 21.0598 3.42094C21.1982 2.72967 21.5383 2.09491 22.0372 1.59687C22.5361 1.09883 23.1715 0.759866 23.863 0.622799C24.5545 0.485732 25.2712 0.556719 25.9223 0.826791C26.5735 1.09686 27.1301 1.5539 27.5216 2.14015C27.9131 2.72639 28.1221 3.41554 28.1221 4.12051C28.1204 5.0668 27.7433 5.97375 27.0735 6.64228C26.4038 7.3108 25.4962 7.68628 24.5499 7.68627Z" fill="url(#paint1_linear_6_2435)"/>
<path d="M24.5499 0C23.5054 0.00248055 22.5006 0.400957 21.7383 1.11507C20.976 1.82918 20.5128 2.80579 20.4422 3.84795H15.9369V3.47919C15.9358 3.13198 15.8098 2.79676 15.582 2.53477C15.3541 2.27278 15.0396 2.10151 14.696 2.05224V1.79571C14.696 1.37048 14.527 0.962675 14.2264 0.661996C13.9257 0.361317 13.5179 0.192397 13.0926 0.192397C12.6674 0.192397 12.2596 0.361317 11.9589 0.661996C11.6582 0.962675 11.4893 1.37048 11.4893 1.79571V2.05224C11.1509 2.10775 10.8432 2.28172 10.6212 2.54309C10.3992 2.80447 10.2773 3.13624 10.2772 3.47919V3.83833H5.67572V3.47919C5.67539 3.13227 5.5501 2.79709 5.32278 2.53503C5.09547 2.27297 4.78135 2.10158 4.43797 2.05224V1.79571C4.43797 1.37048 4.26905 0.962675 3.96837 0.661996C3.66769 0.361317 3.25988 0.192397 2.83465 0.192397C2.40943 0.192397 2.00162 0.361317 1.70094 0.661996C1.40026 0.962675 1.23134 1.37048 1.23134 1.79571V2.05224C0.889127 2.10298 0.57653 2.27498 0.350513 2.5369C0.124496 2.79882 0.000102781 3.13323 0 3.47919V5.33903C-9.39401e-07 5.72287 0.152262 6.09105 0.423383 6.36277C0.694504 6.63449 1.06234 6.78757 1.44619 6.78842H4.22312C4.41373 6.78884 4.60255 6.75166 4.77877 6.67901C4.95498 6.60636 5.11514 6.49967 5.25007 6.36504C5.385 6.23041 5.49205 6.07048 5.56509 5.89443C5.63813 5.71837 5.67572 5.52963 5.67572 5.33903V4.40269H10.2772V5.33903C10.2781 5.72317 10.431 6.09134 10.7027 6.36297C10.9743 6.6346 11.3425 6.78757 11.7266 6.78842H14.5003C14.8823 6.7842 15.2471 6.62974 15.516 6.35848C15.7849 6.08721 15.9361 5.72096 15.9369 5.33903V4.40269H20.4262C20.4817 5.20224 20.7695 5.96818 21.254 6.60658C21.7386 7.24498 22.3989 7.72807 23.1541 7.9966C23.9092 8.26513 24.7263 8.30742 25.5052 8.11829C26.284 7.92917 26.9907 7.51684 27.5386 6.93188C28.0865 6.34692 28.4517 5.61478 28.5896 4.82525C28.7274 4.03571 28.6318 3.22312 28.3144 2.48714C27.9971 1.75116 27.4719 1.1238 26.8032 0.681999C26.1345 0.2402 25.3514 0.00317649 24.5499 0ZM2.83465 0.785622C2.97025 0.784352 3.10477 0.809806 3.23053 0.860526C3.35629 0.911246 3.47082 0.986241 3.5676 1.08123C3.66437 1.17622 3.74149 1.28933 3.79454 1.41413C3.84759 1.53892 3.87555 1.67294 3.87681 1.80853V2.04262H1.7925V1.80853C1.79376 1.67294 1.82171 1.53892 1.87477 1.41413C1.92782 1.28933 2.00494 1.17622 2.10171 1.08123C2.19849 0.986241 2.31302 0.911246 2.43878 0.860526C2.56454 0.809806 2.69906 0.784352 2.83465 0.785622ZM5.11777 5.33903C5.11777 5.5763 5.02351 5.80386 4.85573 5.97164C4.68795 6.13942 4.4604 6.23367 4.22312 6.23367H1.44619C1.32816 6.23452 1.21114 6.212 1.10185 6.16742C0.992565 6.12284 0.893181 6.05708 0.809425 5.97392C0.725669 5.89076 0.659196 5.79184 0.613835 5.68288C0.568474 5.57392 0.545123 5.45705 0.545126 5.33903V3.47919C0.545126 3.24191 0.639383 3.01435 0.807162 2.84657C0.974941 2.67879 1.2025 2.58454 1.43977 2.58454H4.21671C4.33473 2.58369 4.45176 2.60621 4.56105 2.65079C4.67033 2.69537 4.76971 2.76113 4.85347 2.84429C4.93723 2.92745 5.0037 3.02637 5.04906 3.13533C5.09442 3.24429 5.11777 3.36116 5.11777 3.47919V5.33903ZM13.1151 0.785622C13.2507 0.784352 13.3852 0.809806 13.511 0.860526C13.6367 0.911246 13.7513 0.986241 13.848 1.08123C13.9448 1.17622 14.0219 1.28933 14.075 1.41413C14.128 1.53892 14.156 1.67294 14.1572 1.80853V2.04262H12.0697V1.80853C12.0731 1.53439 12.185 1.27278 12.381 1.08103C12.577 0.889287 12.8409 0.783054 13.1151 0.785622ZM15.395 5.33903C15.395 5.5763 15.3007 5.80386 15.133 5.97164C14.9652 6.13942 14.7376 6.23367 14.5003 6.23367H11.7266C11.4893 6.23367 11.2618 6.13942 11.094 5.97164C10.9262 5.80386 10.832 5.5763 10.832 5.33903V3.47919C10.832 3.24191 10.9262 3.01435 11.094 2.84657C11.2618 2.67879 11.4893 2.58454 11.7266 2.58454H14.5003C14.6178 2.58454 14.7342 2.60768 14.8427 2.65264C14.9513 2.6976 15.0499 2.7635 15.133 2.84657C15.216 2.92965 15.2819 3.02827 15.3269 3.13682C15.3719 3.24536 15.395 3.3617 15.395 3.47919V5.33903ZM24.5499 7.68627C23.8449 7.68501 23.1562 7.4748 22.5706 7.08222C21.9851 6.68964 21.529 6.1323 21.2601 5.48063C20.9912 4.82896 20.9215 4.11221 21.0598 3.42094C21.1982 2.72967 21.5383 2.09491 22.0372 1.59687C22.5361 1.09883 23.1715 0.759866 23.863 0.622799C24.5545 0.485732 25.2712 0.556719 25.9223 0.826791C26.5735 1.09686 27.1301 1.5539 27.5216 2.14015C27.9131 2.72639 28.1221 3.41554 28.1221 4.12051C28.1204 5.0668 27.7433 5.97375 27.0735 6.64228C26.4038 7.3108 25.4962 7.68628 24.5499 7.68627Z" fill="black" fill-opacity="0.2"/>
<path d="M2.83472 3.24829C2.63453 3.24726 2.44051 3.31749 2.28735 3.44639C2.13418 3.5753 2.03187 3.7545 1.99871 3.95192C1.96555 4.14935 2.0037 4.35213 2.10634 4.524C2.20898 4.69588 2.36941 4.82564 2.55895 4.89008V5.30694C2.55895 5.38008 2.58801 5.45022 2.63972 5.50194C2.69144 5.55365 2.76158 5.58271 2.83472 5.58271C2.90786 5.58271 2.978 5.55365 3.02972 5.50194C3.08144 5.45022 3.11049 5.38008 3.11049 5.30694V4.89008C3.30003 4.82564 3.46046 4.69588 3.5631 4.524C3.66574 4.35213 3.70389 4.14935 3.67073 3.95192C3.63757 3.7545 3.53526 3.5753 3.38209 3.44639C3.22893 3.31749 3.03491 3.24726 2.83472 3.24829ZM2.83472 4.38664C2.77701 4.38664 2.72059 4.36952 2.6726 4.33746C2.62462 4.3054 2.58722 4.25982 2.56513 4.2065C2.54304 4.15318 2.53727 4.09451 2.54852 4.03791C2.55978 3.9813 2.58758 3.92931 2.62838 3.8885C2.66919 3.84769 2.72119 3.8199 2.77779 3.80864C2.8344 3.79738 2.89307 3.80316 2.94639 3.82524C2.99971 3.84733 3.04528 3.88473 3.07735 3.93272C3.10941 3.98071 3.12652 4.03712 3.12652 4.09483C3.12652 4.17223 3.09578 4.24645 3.04106 4.30117C2.98633 4.3559 2.91211 4.38664 2.83472 4.38664Z" fill="url(#paint2_linear_6_2435)"/>
<path d="M2.83472 3.24829C2.63453 3.24726 2.44051 3.31749 2.28735 3.44639C2.13418 3.5753 2.03187 3.7545 1.99871 3.95192C1.96555 4.14935 2.0037 4.35213 2.10634 4.524C2.20898 4.69588 2.36941 4.82564 2.55895 4.89008V5.30694C2.55895 5.38008 2.58801 5.45022 2.63972 5.50194C2.69144 5.55365 2.76158 5.58271 2.83472 5.58271C2.90786 5.58271 2.978 5.55365 3.02972 5.50194C3.08144 5.45022 3.11049 5.38008 3.11049 5.30694V4.89008C3.30003 4.82564 3.46046 4.69588 3.5631 4.524C3.66574 4.35213 3.70389 4.14935 3.67073 3.95192C3.63757 3.7545 3.53526 3.5753 3.38209 3.44639C3.22893 3.31749 3.03491 3.24726 2.83472 3.24829ZM2.83472 4.38664C2.77701 4.38664 2.72059 4.36952 2.6726 4.33746C2.62462 4.3054 2.58722 4.25982 2.56513 4.2065C2.54304 4.15318 2.53727 4.09451 2.54852 4.03791C2.55978 3.9813 2.58758 3.92931 2.62838 3.8885C2.66919 3.84769 2.72119 3.8199 2.77779 3.80864C2.8344 3.79738 2.89307 3.80316 2.94639 3.82524C2.99971 3.84733 3.04528 3.88473 3.07735 3.93272C3.10941 3.98071 3.12652 4.03712 3.12652 4.09483C3.12652 4.17223 3.09578 4.24645 3.04106 4.30117C2.98633 4.3559 2.91211 4.38664 2.83472 4.38664Z" fill="black" fill-opacity="0.2"/>
<path d="M13.1151 3.24831C12.9146 3.24651 12.7201 3.31618 12.5663 3.44483C12.4126 3.57348 12.3097 3.7527 12.2761 3.95034C12.2425 4.14799 12.2804 4.35113 12.383 4.52335C12.4857 4.69556 12.6463 4.82559 12.8361 4.8901V5.30696C12.8435 5.37538 12.8759 5.43867 12.9271 5.48465C12.9783 5.53064 13.0447 5.55607 13.1135 5.55607C13.1823 5.55607 13.2487 5.53064 13.2999 5.48465C13.3511 5.43867 13.3835 5.37538 13.3909 5.30696V4.8901C13.5804 4.82566 13.7408 4.6959 13.8435 4.52403C13.9461 4.35215 13.9843 4.14937 13.9511 3.95194C13.9179 3.75452 13.8156 3.57533 13.6625 3.44642C13.5093 3.31751 13.3153 3.24729 13.1151 3.24831ZM13.1151 4.38666C13.0574 4.38666 13.001 4.36955 12.953 4.33748C12.905 4.30542 12.8676 4.25985 12.8455 4.20653C12.8234 4.15321 12.8176 4.09453 12.8289 4.03793C12.8402 3.98133 12.868 3.92933 12.9088 3.88852C12.9496 3.84771 13.0016 3.81992 13.0582 3.80866C13.1148 3.7974 13.1734 3.80318 13.2268 3.82527C13.2801 3.84735 13.3257 3.88476 13.3577 3.93274C13.3898 3.98073 13.4069 4.03714 13.4069 4.09486C13.4061 4.17199 13.3751 4.24573 13.3205 4.30027C13.266 4.35482 13.1922 4.38583 13.1151 4.38666Z" fill="url(#paint3_linear_6_2435)"/>
<path d="M13.1151 3.24831C12.9146 3.24651 12.7201 3.31618 12.5663 3.44483C12.4126 3.57348 12.3097 3.7527 12.2761 3.95034C12.2425 4.14799 12.2804 4.35113 12.383 4.52335C12.4857 4.69556 12.6463 4.82559 12.8361 4.8901V5.30696C12.8435 5.37538 12.8759 5.43867 12.9271 5.48465C12.9783 5.53064 13.0447 5.55607 13.1135 5.55607C13.1823 5.55607 13.2487 5.53064 13.2999 5.48465C13.3511 5.43867 13.3835 5.37538 13.3909 5.30696V4.8901C13.5804 4.82566 13.7408 4.6959 13.8435 4.52403C13.9461 4.35215 13.9843 4.14937 13.9511 3.95194C13.9179 3.75452 13.8156 3.57533 13.6625 3.44642C13.5093 3.31751 13.3153 3.24729 13.1151 3.24831ZM13.1151 4.38666C13.0574 4.38666 13.001 4.36955 12.953 4.33748C12.905 4.30542 12.8676 4.25985 12.8455 4.20653C12.8234 4.15321 12.8176 4.09453 12.8289 4.03793C12.8402 3.98133 12.868 3.92933 12.9088 3.88852C12.9496 3.84771 13.0016 3.81992 13.0582 3.80866C13.1148 3.7974 13.1734 3.80318 13.2268 3.82527C13.2801 3.84735 13.3257 3.88476 13.3577 3.93274C13.3898 3.98073 13.4069 4.03714 13.4069 4.09486C13.4061 4.17199 13.3751 4.24573 13.3205 4.30027C13.266 4.35482 13.1922 4.38583 13.1151 4.38666Z" fill="black" fill-opacity="0.2"/>
<defs>
<linearGradient id="paint0_linear_6_2435" x1="24.3943" y1="2.50032" x2="24.3943" y2="5.74245" gradientUnits="userSpaceOnUse">
<stop stop-color="#FF0F0F"/>
<stop offset="1" stop-color="#FF4849"/>
</linearGradient>
<linearGradient id="paint1_linear_6_2435" x1="14.3254" y1="0" x2="14.3254" y2="8.23457" gradientUnits="userSpaceOnUse">
<stop stop-color="#FF0F0F"/>
<stop offset="1" stop-color="#FF4849"/>
</linearGradient>
<linearGradient id="paint2_linear_6_2435" x1="2.83472" y1="3.24828" x2="2.83472" y2="5.58271" gradientUnits="userSpaceOnUse">
<stop stop-color="#FF0F0F"/>
<stop offset="1" stop-color="#FF4849"/>
</linearGradient>
<linearGradient id="paint3_linear_6_2435" x1="13.1135" y1="3.24828" x2="13.1135" y2="5.55607" gradientUnits="userSpaceOnUse">
<stop stop-color="#FF0F0F"/>
<stop offset="1" stop-color="#FF4849"/>
</linearGradient>
</defs>
</svg>
