<svg width="41" height="42" viewBox="0 0 41 42" fill="none" xmlns="http://www.w3.org/2000/svg">
<g clip-path="url(#clip0_6_2545)">
<g clip-path="url(#clip1_6_2545)">
<path d="M17.4787 13.4482C17.2907 13.4482 17.134 13.2915 17.134 13.1035V11.5368C17.134 11.3488 17.2907 11.1921 17.4787 11.1921C17.6667 11.1921 17.8234 11.3488 17.8234 11.5368V13.1035C17.8234 13.2915 17.6667 13.4482 17.4787 13.4482Z" fill="url(#paint0_linear_6_2545)"/>
<path d="M18.6067 19.496C18.5127 19.496 18.3874 19.4334 18.3247 19.3707L17.1967 17.7726C17.1654 17.71 17.134 17.6473 17.134 17.5846V16.0179C17.134 15.8299 17.2907 15.6732 17.4787 15.6732C17.6667 15.6732 17.8234 15.8299 17.8234 16.0179V17.4593L18.8888 18.9633C18.9828 19.12 18.9514 19.308 18.7948 19.4334C18.7321 19.496 18.6694 19.496 18.6067 19.496Z" fill="url(#paint1_linear_6_2545)"/>
<path d="M16.3508 19.4959C16.2881 19.4959 16.2254 19.4646 16.1627 19.4333C16.0061 19.3393 15.9747 19.1199 16.0687 18.9633L17.1968 17.3652C17.2908 17.2085 17.5101 17.1772 17.6668 17.2712C17.8235 17.3652 17.8548 17.5845 17.7608 17.7412L16.6328 19.3393C16.5701 19.4646 16.4761 19.4959 16.3508 19.4959Z" fill="url(#paint2_linear_6_2545)"/>
<path d="M17.4789 11.9132C17.4163 11.9132 17.3536 11.8818 17.2909 11.8505C17.1343 11.7565 17.1029 11.5371 17.1969 11.3805L18.325 9.78242C18.419 9.62575 18.6383 9.59442 18.795 9.68842C18.9516 9.78242 18.983 10.0018 18.889 10.1584L17.7609 11.7565C17.6983 11.8505 17.5729 11.9132 17.4789 11.9132Z" fill="url(#paint3_linear_6_2545)"/>
<path d="M17.4788 11.9129C17.3848 11.9129 17.2594 11.8502 17.1968 11.7875L16.0687 10.1895C15.9747 10.0328 16.0061 9.84481 16.1627 9.71947C16.3194 9.62547 16.5074 9.6568 16.6328 9.81348L17.7608 11.4115C17.8548 11.5682 17.8235 11.7562 17.6668 11.8815C17.6041 11.8815 17.5415 11.9129 17.4788 11.9129Z" fill="url(#paint4_linear_6_2545)"/>
<path d="M20.4871 14.8899H18.9204C18.7324 14.8899 18.5757 14.7333 18.5757 14.5453C18.5757 14.3572 18.7324 14.2006 18.9204 14.2006H20.4871C20.6751 14.2006 20.8318 14.3572 20.8318 14.5453C20.8318 14.7333 20.6751 14.8899 20.4871 14.8899Z" fill="url(#paint5_linear_6_2545)"/>
<path d="M12.873 16.0177C12.779 16.0177 12.6536 15.955 12.591 15.8923C12.497 15.7357 12.5283 15.5477 12.685 15.4223L14.283 14.2943C14.3457 14.263 14.4084 14.2316 14.471 14.2316H16.0377C16.2257 14.2316 16.3824 14.3883 16.3824 14.5763C16.3824 14.7643 16.2257 14.921 16.0377 14.921H14.5964L13.0923 15.9863C12.9983 16.0177 12.9356 16.0177 12.873 16.0177Z" fill="url(#paint6_linear_6_2545)"/>
<path d="M14.4708 14.8898C14.4081 14.8898 14.3454 14.8585 14.2828 14.8271L12.6847 13.6991C12.528 13.6051 12.4967 13.3858 12.5907 13.2291C12.6847 13.0724 12.9041 13.0411 13.0607 13.1351L14.6588 14.2631C14.8155 14.3571 14.8468 14.5765 14.7528 14.7331C14.6901 14.8585 14.5648 14.8898 14.4708 14.8898Z" fill="url(#paint7_linear_6_2545)"/>
<path d="M22.0853 16.018C22.0226 16.018 21.9599 15.9866 21.8973 15.9553L20.2992 14.8273C20.1426 14.7332 20.1112 14.5139 20.2052 14.3572C20.2992 14.2006 20.5186 14.1692 20.6752 14.2632L22.2733 15.3913C22.43 15.4853 22.4613 15.7046 22.3673 15.8613C22.3046 15.9866 22.1793 16.018 22.0853 16.018Z" fill="url(#paint8_linear_6_2545)"/>
<path d="M20.4872 14.89C20.3932 14.89 20.2679 14.8274 20.2052 14.7647C20.1112 14.608 20.1426 14.42 20.2992 14.2947L21.8973 13.1667C22.0539 13.0727 22.242 13.104 22.3673 13.2607C22.4613 13.4173 22.43 13.6053 22.2733 13.7307L20.6752 14.8587C20.6126 14.89 20.5499 14.89 20.4872 14.89Z" fill="url(#paint9_linear_6_2545)"/>
<path d="M19.6097 17.0206C19.5157 17.0206 19.4531 16.9893 19.3904 16.9266L18.2937 15.8299C18.1684 15.7046 18.1684 15.4853 18.2937 15.3599C18.419 15.2346 18.6384 15.2346 18.7637 15.3599L19.8604 16.4566C19.9858 16.582 19.9858 16.8013 19.8604 16.9266C19.7664 16.9893 19.7038 17.0206 19.6097 17.0206Z" fill="url(#paint10_linear_6_2545)"/>
<path d="M16.351 13.7932C16.257 13.7932 16.1943 13.7619 16.1316 13.6992L15.1916 12.7592L13.3742 12.4459C13.1862 12.4145 13.0609 12.2578 13.0922 12.0698C13.1235 11.8818 13.2802 11.7565 13.4682 11.7878L15.3796 12.1325C15.4423 12.1325 15.5049 12.1638 15.5676 12.2265L16.5703 13.2292C16.6956 13.3545 16.6956 13.5739 16.5703 13.6992C16.539 13.7619 16.445 13.7932 16.351 13.7932Z" fill="url(#paint11_linear_6_2545)"/>
<path d="M15.3484 12.7903C15.1917 12.7903 15.0664 12.665 15.035 12.5083L14.6903 10.5969C14.659 10.4089 14.7843 10.2522 14.9724 10.2209C15.1604 10.1896 15.317 10.3149 15.3484 10.5029L15.693 12.4143C15.7244 12.6023 15.599 12.759 15.411 12.7903C15.3797 12.7903 15.3797 12.7903 15.3484 12.7903Z" fill="url(#paint12_linear_6_2545)"/>
<path d="M19.9543 18.9631C19.7977 18.9631 19.6723 18.8378 19.641 18.6811L19.2963 16.7697C19.265 16.5817 19.3903 16.4251 19.5783 16.3937C19.7663 16.3624 19.923 16.4877 19.9543 16.6757L20.299 18.5871C20.3303 18.7751 20.205 18.9318 20.017 18.9631C19.9857 18.9631 19.9543 18.9631 19.9543 18.9631Z" fill="url(#paint13_linear_6_2545)"/>
<path d="M21.5211 17.3654C21.4898 17.3654 21.4898 17.3654 21.4585 17.3654L19.5471 17.0207C19.3591 16.9894 19.2337 16.8327 19.2651 16.6447C19.2964 16.4567 19.4531 16.3313 19.6411 16.3627L21.5525 16.7074C21.7405 16.7387 21.8658 16.8954 21.8345 17.0834C21.8345 17.24 21.6778 17.3654 21.5211 17.3654Z" fill="url(#paint14_linear_6_2545)"/>
<path d="M18.5126 13.8868C18.4186 13.8868 18.3559 13.8555 18.2932 13.7928C18.1679 13.6674 18.1679 13.4481 18.2932 13.3228L19.3899 12.2261C19.5153 12.1007 19.7346 12.1007 19.8599 12.2261C19.9853 12.3514 19.9853 12.5707 19.8599 12.6961L18.7319 13.7928C18.6692 13.8555 18.6066 13.8868 18.5126 13.8868Z" fill="url(#paint15_linear_6_2545)"/>
<path d="M15.0345 18.9631C15.0032 18.9631 15.0032 18.9631 14.9719 18.9631C14.7839 18.9317 14.6585 18.7751 14.6899 18.5871L15.0345 16.6757C15.0345 16.613 15.0659 16.5503 15.1285 16.4877L16.2252 15.391C16.3506 15.2656 16.5699 15.2656 16.6953 15.391C16.8206 15.5163 16.8206 15.7356 16.6953 15.861L15.6612 16.8637L15.3479 18.6811C15.3165 18.8377 15.1912 18.9631 15.0345 18.9631Z" fill="url(#paint16_linear_6_2545)"/>
<path d="M13.4363 17.3654C13.2796 17.3654 13.1543 17.24 13.123 17.0834C13.0916 16.8954 13.217 16.7387 13.405 16.7074L15.3164 16.3627C15.5044 16.3313 15.661 16.4567 15.6924 16.6447C15.7237 16.8327 15.5984 16.9894 15.4104 17.0207L13.499 17.3654C13.4676 17.3654 13.4363 17.3654 13.4363 17.3654Z" fill="url(#paint17_linear_6_2545)"/>
<path d="M19.6092 12.7905C19.4525 12.7905 19.3271 12.6652 19.2958 12.5085C19.2645 12.3205 19.3898 12.1638 19.5778 12.1325L21.4892 11.7878C21.6772 11.7565 21.8339 11.8818 21.8652 12.0698C21.8966 12.2578 21.7712 12.4145 21.5832 12.4459L19.6718 12.7905C19.6405 12.7905 19.6092 12.7905 19.6092 12.7905Z" fill="url(#paint18_linear_6_2545)"/>
<path d="M19.6092 12.7903C19.5779 12.7903 19.5779 12.7903 19.5466 12.7903C19.3586 12.759 19.2332 12.6023 19.2646 12.4143L19.6092 10.5029C19.6406 10.3149 19.7972 10.1896 19.9853 10.2209C20.1733 10.2522 20.2986 10.4089 20.2673 10.5969L19.9226 12.5083C19.8912 12.665 19.7659 12.7903 19.6092 12.7903Z" fill="url(#paint19_linear_6_2545)"/>
<path d="M17.4787 16.3628C16.5073 16.3628 15.6926 15.5481 15.6926 14.5767C15.6926 13.6054 16.5073 12.7907 17.4787 12.7907C18.45 12.7907 19.2647 13.574 19.2647 14.5767C19.2647 15.5794 18.45 16.3628 17.4787 16.3628ZM17.4787 13.4487C16.852 13.4487 16.3506 13.95 16.3506 14.5767C16.3506 15.2034 16.852 15.7048 17.4787 15.7048C18.1054 15.7048 18.6067 15.2034 18.6067 14.5767C18.6067 13.95 18.1054 13.4487 17.4787 13.4487Z" fill="url(#paint20_linear_6_2545)"/>
<path d="M32.331 29.5857H10.2717C10.0837 29.5857 9.927 29.429 9.927 29.241V9.71975C9.927 8.15304 11.2117 6.86833 12.7784 6.86833H29.8243C31.391 6.86833 32.6757 8.15304 32.6757 9.71975V29.2724C32.6757 29.4604 32.519 29.5857 32.331 29.5857ZM10.585 28.9277H31.9864V9.71975C31.9864 8.52905 31.015 7.52635 29.7929 7.52635H12.7784C11.5877 7.52635 10.585 8.49772 10.585 9.71975V28.9277Z" fill="url(#paint21_linear_6_2545)"/>
<path d="M20.0165 22.6297H14.9404C14.7524 22.6297 14.5957 22.473 14.5957 22.285C14.5957 22.097 14.7524 21.9403 14.9404 21.9403H20.0165C20.2045 21.9403 20.3612 22.097 20.3612 22.285C20.3612 22.473 20.2045 22.6297 20.0165 22.6297Z" fill="url(#paint22_linear_6_2545)"/>
<path d="M20.0168 24.5412H14.9406C14.7526 24.5412 14.5959 24.3846 14.5959 24.1965C14.5959 24.0085 14.7526 23.8519 14.9406 23.8519H20.0168C20.2048 23.8519 20.3615 24.0085 20.3615 24.1965C20.3615 24.3846 20.2048 24.5412 20.0168 24.5412Z" fill="url(#paint23_linear_6_2545)"/>
<path d="M20.0168 26.4526H14.9406C14.7526 26.4526 14.5959 26.2959 14.5959 26.1079C14.5959 25.9199 14.7526 25.7632 14.9406 25.7632H20.0168C20.2048 25.7632 20.3615 25.9199 20.3615 26.1079C20.3615 26.2959 20.2048 26.4526 20.0168 26.4526Z" fill="url(#paint24_linear_6_2545)"/>
<path d="M26.6907 26.4523C25.9387 26.4523 25.312 25.8256 25.312 25.0736C25.312 24.3216 25.9387 23.6949 26.6907 23.6949C27.4427 23.6949 28.0694 24.3216 28.0694 25.0736C28.0694 25.8256 27.4741 26.4523 26.6907 26.4523ZM26.6907 24.3216C26.2834 24.3216 25.97 24.6349 25.97 25.0423C25.97 25.4496 26.2834 25.7629 26.6907 25.7629C27.0981 25.7629 27.4114 25.4496 27.4114 25.0423C27.4114 24.6662 27.0981 24.3216 26.6907 24.3216Z" fill="url(#paint25_linear_6_2545)"/>
<path d="M26.6909 24.3216C26.5029 24.3216 26.3462 24.1649 26.3462 23.9769V9.15579C26.3462 8.96778 26.5029 8.81111 26.6909 8.81111C26.8789 8.81111 27.0355 8.96778 27.0355 9.15579V24.0082C27.0355 24.1963 26.8789 24.3216 26.6909 24.3216Z" fill="url(#paint26_linear_6_2545)"/>
<path d="M29.2915 22.1911H27.8188C27.6308 22.1911 27.4741 22.0344 27.4741 21.8464C27.4741 21.6584 27.6308 21.5017 27.8188 21.5017H29.2915C29.4795 21.5017 29.6362 21.6584 29.6362 21.8464C29.6362 22.0344 29.4795 22.1911 29.2915 22.1911Z" fill="url(#paint27_linear_6_2545)"/>
<path d="M28.6335 20.8438H27.8188C27.6308 20.8438 27.4741 20.6871 27.4741 20.4991C27.4741 20.3111 27.6308 20.1544 27.8188 20.1544H28.6335C28.8215 20.1544 28.9782 20.3111 28.9782 20.4991C28.9468 20.6871 28.8215 20.8438 28.6335 20.8438Z" fill="url(#paint28_linear_6_2545)"/>
<path d="M29.2915 19.4959H27.8188C27.6308 19.4959 27.4741 19.3393 27.4741 19.1513C27.4741 18.9633 27.6308 18.8066 27.8188 18.8066H29.2915C29.4795 18.8066 29.6362 18.9633 29.6362 19.1513C29.6362 19.3393 29.4795 19.4959 29.2915 19.4959Z" fill="url(#paint29_linear_6_2545)"/>
<path d="M28.6335 18.1487H27.8188C27.6308 18.1487 27.4741 17.992 27.4741 17.804C27.4741 17.616 27.6308 17.4593 27.8188 17.4593H28.6335C28.8215 17.4593 28.9782 17.616 28.9782 17.804C28.9468 17.992 28.8215 18.1487 28.6335 18.1487Z" fill="url(#paint30_linear_6_2545)"/>
<path d="M29.2915 16.8014H27.8188C27.6308 16.8014 27.4741 16.6447 27.4741 16.4567C27.4741 16.2687 27.6308 16.1121 27.8188 16.1121H29.2915C29.4795 16.1121 29.6362 16.2687 29.6362 16.4567C29.6362 16.6447 29.4795 16.8014 29.2915 16.8014Z" fill="url(#paint31_linear_6_2545)"/>
<path d="M28.6335 15.4541H27.8188C27.6308 15.4541 27.4741 15.2975 27.4741 15.1095C27.4741 14.9215 27.6308 14.7648 27.8188 14.7648H28.6335C28.8215 14.7648 28.9782 14.9215 28.9782 15.1095C28.9782 15.2975 28.8215 15.4541 28.6335 15.4541Z" fill="url(#paint32_linear_6_2545)"/>
<path d="M29.2915 14.1069H27.8188C27.6308 14.1069 27.4741 13.9502 27.4741 13.7622C27.4741 13.5742 27.6308 13.4175 27.8188 13.4175H29.2915C29.4795 13.4175 29.6362 13.5742 29.6362 13.7622C29.6362 13.9502 29.4795 14.1069 29.2915 14.1069Z" fill="url(#paint33_linear_6_2545)"/>
<path d="M28.6335 12.759H27.8188C27.6308 12.759 27.4741 12.6024 27.4741 12.4144C27.4741 12.2264 27.6308 12.0697 27.8188 12.0697H28.6335C28.8215 12.0697 28.9782 12.2264 28.9782 12.4144C28.9468 12.6024 28.8215 12.759 28.6335 12.759Z" fill="url(#paint34_linear_6_2545)"/>
<path d="M29.2915 11.4118H27.8188C27.6308 11.4118 27.4741 11.2552 27.4741 11.0671C27.4741 10.8791 27.6308 10.7225 27.8188 10.7225H29.2915C29.4795 10.7225 29.6362 10.8791 29.6362 11.0671C29.6362 11.2552 29.4795 11.4118 29.2915 11.4118Z" fill="url(#paint35_linear_6_2545)"/>
<path d="M36.6239 35.132H5.97895C5.79095 35.132 5.63428 34.9753 5.63428 34.7873V32.2805C5.63428 30.4318 7.13832 28.9278 8.98705 28.9278H33.6471C35.4959 28.9278 36.9999 30.4318 36.9999 32.2805V34.7873C36.9686 34.9753 36.8119 35.132 36.6239 35.132ZM6.2923 34.4739H36.3106V32.2805C36.3106 30.8078 35.1199 29.5858 33.6158 29.5858H8.98705C7.51434 29.5858 6.2923 30.7765 6.2923 32.2805V34.4739Z" fill="url(#paint36_linear_6_2545)"/>
</g>
</g>
<defs>
<linearGradient id="paint0_linear_6_2545" x1="17.6711" y1="11.1921" x2="17.6373" y2="13.9313" gradientUnits="userSpaceOnUse">
<stop stop-color="#005CAA"/>
<stop offset="1" stop-color="#64B0F1"/>
</linearGradient>
<linearGradient id="paint1_linear_6_2545" x1="18.5423" y1="15.6732" x2="18.5053" y2="20.315" gradientUnits="userSpaceOnUse">
<stop stop-color="#005CAA"/>
<stop offset="1" stop-color="#64B0F1"/>
</linearGradient>
<linearGradient id="paint2_linear_6_2545" x1="17.4166" y1="17.2183" x2="17.4033" y2="19.984" gradientUnits="userSpaceOnUse">
<stop stop-color="#005CAA"/>
<stop offset="1" stop-color="#64B0F1"/>
</linearGradient>
<linearGradient id="paint3_linear_6_2545" x1="18.5447" y1="9.63554" x2="18.5315" y2="12.4012" gradientUnits="userSpaceOnUse">
<stop stop-color="#005CAA"/>
<stop offset="1" stop-color="#64B0F1"/>
</linearGradient>
<linearGradient id="paint4_linear_6_2545" x1="17.4166" y1="9.6666" x2="17.4037" y2="12.3942" gradientUnits="userSpaceOnUse">
<stop stop-color="#005CAA"/>
<stop offset="1" stop-color="#64B0F1"/>
</linearGradient>
<linearGradient id="paint5_linear_6_2545" x1="20.3334" y1="14.2006" x2="20.3324" y2="15.0377" gradientUnits="userSpaceOnUse">
<stop stop-color="#005CAA"/>
<stop offset="1" stop-color="#64B0F1"/>
</linearGradient>
<linearGradient id="paint6_linear_6_2545" x1="15.5332" y1="14.2316" x2="15.5294" y2="16.4004" gradientUnits="userSpaceOnUse">
<stop stop-color="#005CAA"/>
<stop offset="1" stop-color="#64B0F1"/>
</linearGradient>
<linearGradient id="paint7_linear_6_2545" x1="14.3047" y1="13.0822" x2="14.2981" y2="15.2772" gradientUnits="userSpaceOnUse">
<stop stop-color="#005CAA"/>
<stop offset="1" stop-color="#64B0F1"/>
</linearGradient>
<linearGradient id="paint8_linear_6_2545" x1="21.9192" y1="14.2104" x2="21.9126" y2="16.4053" gradientUnits="userSpaceOnUse">
<stop stop-color="#005CAA"/>
<stop offset="1" stop-color="#64B0F1"/>
</linearGradient>
<linearGradient id="paint9_linear_6_2545" x1="21.9192" y1="13.1138" x2="21.9128" y2="15.2707" gradientUnits="userSpaceOnUse">
<stop stop-color="#005CAA"/>
<stop offset="1" stop-color="#64B0F1"/>
</linearGradient>
<linearGradient id="paint10_linear_6_2545" x1="19.5668" y1="15.2659" x2="19.5588" y2="17.3967" gradientUnits="userSpaceOnUse">
<stop stop-color="#005CAA"/>
<stop offset="1" stop-color="#64B0F1"/>
</linearGradient>
<linearGradient id="paint11_linear_6_2545" x1="15.8742" y1="11.783" x2="15.869" y2="14.224" gradientUnits="userSpaceOnUse">
<stop stop-color="#005CAA"/>
<stop offset="1" stop-color="#64B0F1"/>
</linearGradient>
<linearGradient id="paint12_linear_6_2545" x1="15.4742" y1="10.2161" x2="15.4442" y2="13.3417" gradientUnits="userSpaceOnUse">
<stop stop-color="#005CAA"/>
<stop offset="1" stop-color="#64B0F1"/>
</linearGradient>
<linearGradient id="paint13_linear_6_2545" x1="20.0802" y1="16.3889" x2="20.0502" y2="19.5145" gradientUnits="userSpaceOnUse">
<stop stop-color="#005CAA"/>
<stop offset="1" stop-color="#64B0F1"/>
</linearGradient>
<linearGradient id="paint14_linear_6_2545" x1="21.2696" y1="16.3579" x2="21.2678" y2="17.5813" gradientUnits="userSpaceOnUse">
<stop stop-color="#005CAA"/>
<stop offset="1" stop-color="#64B0F1"/>
</linearGradient>
<linearGradient id="paint15_linear_6_2545" x1="19.5663" y1="12.1321" x2="19.5583" y2="14.2628" gradientUnits="userSpaceOnUse">
<stop stop-color="#005CAA"/>
<stop offset="1" stop-color="#64B0F1"/>
</linearGradient>
<linearGradient id="paint16_linear_6_2545" x1="16.3245" y1="15.297" x2="16.2952" y2="19.7486" gradientUnits="userSpaceOnUse">
<stop stop-color="#005CAA"/>
<stop offset="1" stop-color="#64B0F1"/>
</linearGradient>
<linearGradient id="paint17_linear_6_2545" x1="15.1275" y1="16.3579" x2="15.1257" y2="17.5813" gradientUnits="userSpaceOnUse">
<stop stop-color="#005CAA"/>
<stop offset="1" stop-color="#64B0F1"/>
</linearGradient>
<linearGradient id="paint18_linear_6_2545" x1="21.3003" y1="11.783" x2="21.2985" y2="13.0064" gradientUnits="userSpaceOnUse">
<stop stop-color="#005CAA"/>
<stop offset="1" stop-color="#64B0F1"/>
</linearGradient>
<linearGradient id="paint19_linear_6_2545" x1="20.0485" y1="10.2161" x2="20.0185" y2="13.3417" gradientUnits="userSpaceOnUse">
<stop stop-color="#005CAA"/>
<stop offset="1" stop-color="#64B0F1"/>
</linearGradient>
<linearGradient id="paint20_linear_6_2545" x1="18.4757" y1="12.7907" x2="18.4593" y2="17.1283" gradientUnits="userSpaceOnUse">
<stop stop-color="#005CAA"/>
<stop offset="1" stop-color="#64B0F1"/>
</linearGradient>
<linearGradient id="paint21_linear_6_2545" x1="27.6507" y1="6.86833" x2="27.5468" y2="34.4539" gradientUnits="userSpaceOnUse">
<stop stop-color="#005CAA"/>
<stop offset="1" stop-color="#64B0F1"/>
</linearGradient>
<linearGradient id="paint22_linear_6_2545" x1="19.0877" y1="21.9403" x2="19.0873" y2="22.7774" gradientUnits="userSpaceOnUse">
<stop stop-color="#005CAA"/>
<stop offset="1" stop-color="#64B0F1"/>
</linearGradient>
<linearGradient id="paint23_linear_6_2545" x1="19.0879" y1="23.8519" x2="19.0875" y2="24.689" gradientUnits="userSpaceOnUse">
<stop stop-color="#005CAA"/>
<stop offset="1" stop-color="#64B0F1"/>
</linearGradient>
<linearGradient id="paint24_linear_6_2545" x1="19.0879" y1="25.7632" x2="19.0875" y2="26.6003" gradientUnits="userSpaceOnUse">
<stop stop-color="#005CAA"/>
<stop offset="1" stop-color="#64B0F1"/>
</linearGradient>
<linearGradient id="paint25_linear_6_2545" x1="27.4603" y1="23.6949" x2="27.4477" y2="27.0432" gradientUnits="userSpaceOnUse">
<stop stop-color="#005CAA"/>
<stop offset="1" stop-color="#64B0F1"/>
</linearGradient>
<linearGradient id="paint26_linear_6_2545" x1="26.8833" y1="8.81111" x2="25.2956" y2="27.5109" gradientUnits="userSpaceOnUse">
<stop stop-color="#005CAA"/>
<stop offset="1" stop-color="#64B0F1"/>
</linearGradient>
<linearGradient id="paint27_linear_6_2545" x1="29.1586" y1="21.5017" x2="29.1576" y2="22.3388" gradientUnits="userSpaceOnUse">
<stop stop-color="#005CAA"/>
<stop offset="1" stop-color="#64B0F1"/>
</linearGradient>
<linearGradient id="paint28_linear_6_2545" x1="28.6459" y1="20.1544" x2="28.6445" y2="20.9915" gradientUnits="userSpaceOnUse">
<stop stop-color="#005CAA"/>
<stop offset="1" stop-color="#64B0F1"/>
</linearGradient>
<linearGradient id="paint29_linear_6_2545" x1="29.1586" y1="18.8066" x2="29.1576" y2="19.6437" gradientUnits="userSpaceOnUse">
<stop stop-color="#005CAA"/>
<stop offset="1" stop-color="#64B0F1"/>
</linearGradient>
<linearGradient id="paint30_linear_6_2545" x1="28.6459" y1="17.4593" x2="28.6445" y2="18.2964" gradientUnits="userSpaceOnUse">
<stop stop-color="#005CAA"/>
<stop offset="1" stop-color="#64B0F1"/>
</linearGradient>
<linearGradient id="paint31_linear_6_2545" x1="29.1586" y1="16.1121" x2="29.1576" y2="16.9491" gradientUnits="userSpaceOnUse">
<stop stop-color="#005CAA"/>
<stop offset="1" stop-color="#64B0F1"/>
</linearGradient>
<linearGradient id="paint32_linear_6_2545" x1="28.6459" y1="14.7648" x2="28.6445" y2="15.6019" gradientUnits="userSpaceOnUse">
<stop stop-color="#005CAA"/>
<stop offset="1" stop-color="#64B0F1"/>
</linearGradient>
<linearGradient id="paint33_linear_6_2545" x1="29.1586" y1="13.4175" x2="29.1576" y2="14.2546" gradientUnits="userSpaceOnUse">
<stop stop-color="#005CAA"/>
<stop offset="1" stop-color="#64B0F1"/>
</linearGradient>
<linearGradient id="paint34_linear_6_2545" x1="28.6459" y1="12.0697" x2="28.6445" y2="12.9068" gradientUnits="userSpaceOnUse">
<stop stop-color="#005CAA"/>
<stop offset="1" stop-color="#64B0F1"/>
</linearGradient>
<linearGradient id="paint35_linear_6_2545" x1="29.1586" y1="10.7225" x2="29.1576" y2="11.5596" gradientUnits="userSpaceOnUse">
<stop stop-color="#005CAA"/>
<stop offset="1" stop-color="#64B0F1"/>
</linearGradient>
<linearGradient id="paint36_linear_6_2545" x1="30.0715" y1="28.9278" x2="30.0659" y2="36.4616" gradientUnits="userSpaceOnUse">
<stop stop-color="#005CAA"/>
<stop offset="1" stop-color="#64B0F1"/>
</linearGradient>
<clipPath id="clip0_6_2545">
<rect width="39.7513" height="40.3589" fill="white" transform="translate(0.796875 0.992188)"/>
</clipPath>
<clipPath id="clip1_6_2545">
<rect width="38" height="38" fill="white" transform="translate(2 2)"/>
</clipPath>
</defs>
</svg>
