<svg width="41" height="42" viewBox="0 0 41 42" fill="none" xmlns="http://www.w3.org/2000/svg">
<g clip-path="url(#clip0_6_2471)">
<path fill-rule="evenodd" clip-rule="evenodd" d="M4.27001 33.1823H22.8832C23.0214 34.3556 23.605 35.391 24.4655 36.111H7.50857C5.79272 36.111 4.55343 34.8112 4.27001 33.1823ZM35.3292 5.05408C37.0455 5.05408 38.2867 6.35294 38.5706 7.98176H31.9162C32.1689 6.31478 33.5869 5.05408 35.3292 5.05408ZM12.2978 4C9.80892 4 7.78779 6.02159 7.78779 8.51089V32.1278H3.47282C3.20104 32.1278 3 32.3824 3 32.6541C3 35.143 5.0188 37.165 7.50857 37.165L27.4369 37.1622C28.4533 37.1622 29.3882 36.796 30.1347 36.2171C30.5694 35.8946 30.2976 35.2063 29.7591 35.2691C29.66 35.2789 29.5674 35.318 29.4901 35.3808C28.7823 35.8071 28.0433 36.1082 27.3624 36.1105C25.4809 36.1198 24.0001 34.6436 23.9103 32.7821C23.8838 32.2684 23.6874 32.1278 23.2951 32.1278H8.84373V8.51089C8.84373 6.58842 10.3734 5.05408 12.2978 5.05408H32.4327C31.4903 5.84661 30.8793 7.01657 30.8286 8.33079L30.8188 11.7746C30.7895 12.5043 31.9022 12.5043 31.8733 11.7746V9.03584H39.3147C39.6056 9.03304 39.8383 8.80036 39.841 8.51043C39.841 6.04998 37.866 4.00372 35.4125 4.00372L12.2978 4Z" fill="url(#paint0_linear_6_2471)"/>
<path fill-rule="evenodd" clip-rule="evenodd" d="M4.27001 33.1823H22.8832C23.0214 34.3556 23.605 35.391 24.4655 36.111H7.50857C5.79272 36.111 4.55343 34.8112 4.27001 33.1823ZM35.3292 5.05408C37.0455 5.05408 38.2867 6.35294 38.5706 7.98176H31.9162C32.1689 6.31478 33.5869 5.05408 35.3292 5.05408ZM12.2978 4C9.80892 4 7.78779 6.02159 7.78779 8.51089V32.1278H3.47282C3.20104 32.1278 3 32.3824 3 32.6541C3 35.143 5.0188 37.165 7.50857 37.165L27.4369 37.1622C28.4533 37.1622 29.3882 36.796 30.1347 36.2171C30.5694 35.8946 30.2976 35.2063 29.7591 35.2691C29.66 35.2789 29.5674 35.318 29.4901 35.3808C28.7823 35.8071 28.0433 36.1082 27.3624 36.1105C25.4809 36.1198 24.0001 34.6436 23.9103 32.7821C23.8838 32.2684 23.6874 32.1278 23.2951 32.1278H8.84373V8.51089C8.84373 6.58842 10.3734 5.05408 12.2978 5.05408H32.4327C31.4903 5.84661 30.8793 7.01657 30.8286 8.33079L30.8188 11.7746C30.7895 12.5043 31.9022 12.5043 31.8733 11.7746V9.03584H39.3147C39.6056 9.03304 39.8383 8.80036 39.841 8.51043C39.841 6.04998 37.866 4.00372 35.4125 4.00372L12.2978 4Z" fill="black" fill-opacity="0.2"/>
<path fill-rule="evenodd" clip-rule="evenodd" d="M31.3783 29.0671C31.7446 29.0987 32.101 29.2732 32.3626 29.5813L35.8748 33.7334C36.3983 34.3514 36.3257 35.2477 35.7049 35.7713C35.0869 36.2948 34.1906 36.2204 33.667 35.6023L30.152 31.4502C29.6285 30.8322 29.7039 29.935 30.3238 29.4114C30.6323 29.1499 31.013 29.0382 31.3783 29.0671ZM22.4054 11.3008C24.9677 11.2692 27.5199 12.3382 29.306 14.4496C32.4836 18.2033 32.0182 23.8078 28.2663 26.9803C24.514 30.1551 18.9132 29.6855 15.7356 25.9332C12.558 22.1795 13.0234 16.5819 16.7753 13.4071C18.4185 12.018 20.4131 11.3246 22.4054 11.3008ZM22.391 10.251C20.1613 10.2775 17.9261 11.0509 16.0939 12.6016C11.9056 16.1454 11.382 22.428 14.9259 26.6164C18.358 30.6693 24.3572 31.292 28.5381 28.1144L29.2771 28.9889C28.5744 29.9033 28.5772 31.2176 29.3497 32.1311L32.8619 36.2804C33.7517 37.3331 35.3368 37.4657 36.3867 36.5768C37.4384 35.6861 37.5748 34.102 36.6822 33.0493L33.17 28.8981C32.3965 27.9865 31.1005 27.7682 30.0841 28.309L29.3423 27.4308C33.1653 23.8367 33.5432 17.8208 30.1129 13.7678C28.1188 11.4121 25.2558 10.2175 22.391 10.251Z" fill="url(#paint1_linear_6_2471)"/>
<path fill-rule="evenodd" clip-rule="evenodd" d="M31.3783 29.0671C31.7446 29.0987 32.101 29.2732 32.3626 29.5813L35.8748 33.7334C36.3983 34.3514 36.3257 35.2477 35.7049 35.7713C35.0869 36.2948 34.1906 36.2204 33.667 35.6023L30.152 31.4502C29.6285 30.8322 29.7039 29.935 30.3238 29.4114C30.6323 29.1499 31.013 29.0382 31.3783 29.0671ZM22.4054 11.3008C24.9677 11.2692 27.5199 12.3382 29.306 14.4496C32.4836 18.2033 32.0182 23.8078 28.2663 26.9803C24.514 30.1551 18.9132 29.6855 15.7356 25.9332C12.558 22.1795 13.0234 16.5819 16.7753 13.4071C18.4185 12.018 20.4131 11.3246 22.4054 11.3008ZM22.391 10.251C20.1613 10.2775 17.9261 11.0509 16.0939 12.6016C11.9056 16.1454 11.382 22.428 14.9259 26.6164C18.358 30.6693 24.3572 31.292 28.5381 28.1144L29.2771 28.9889C28.5744 29.9033 28.5772 31.2176 29.3497 32.1311L32.8619 36.2804C33.7517 37.3331 35.3368 37.4657 36.3867 36.5768C37.4384 35.6861 37.5748 34.102 36.6822 33.0493L33.17 28.8981C32.3965 27.9865 31.1005 27.7682 30.0841 28.309L29.3423 27.4308C33.1653 23.8367 33.5432 17.8208 30.1129 13.7678C28.1188 11.4121 25.2558 10.2175 22.391 10.251Z" fill="black" fill-opacity="0.2"/>
<path fill-rule="evenodd" clip-rule="evenodd" d="M22.5215 16.7266C25.3356 16.7247 27.0036 18.3582 28.7776 19.9605C27.0059 21.5604 25.3426 23.1865 22.5266 23.1893C19.7097 23.1939 18.0418 21.5623 16.2659 19.9605C18.0404 18.3582 19.7055 16.7294 22.5215 16.7266ZM15.0881 19.5626C14.8479 19.7715 14.8479 20.1452 15.0881 20.3551C16.9714 22.0184 18.9902 24.2117 22.5215 24.2117C26.0509 24.2136 28.0679 22.0184 29.9531 20.3551C30.1932 20.1452 30.1932 19.7715 29.9531 19.5626C28.0679 17.9003 26.0509 15.7014 22.5243 15.7014C18.9949 15.7014 16.9733 17.8975 15.0881 19.5626Z" fill="url(#paint2_linear_6_2471)"/>
<path fill-rule="evenodd" clip-rule="evenodd" d="M22.5215 16.7266C25.3356 16.7247 27.0036 18.3582 28.7776 19.9605C27.0059 21.5604 25.3426 23.1865 22.5266 23.1893C19.7097 23.1939 18.0418 21.5623 16.2659 19.9605C18.0404 18.3582 19.7055 16.7294 22.5215 16.7266ZM15.0881 19.5626C14.8479 19.7715 14.8479 20.1452 15.0881 20.3551C16.9714 22.0184 18.9902 24.2117 22.5215 24.2117C26.0509 24.2136 28.0679 22.0184 29.9531 20.3551C30.1932 20.1452 30.1932 19.7715 29.9531 19.5626C28.0679 17.9003 26.0509 15.7014 22.5243 15.7014C18.9949 15.7014 16.9733 17.8975 15.0881 19.5626Z" fill="black" fill-opacity="0.2"/>
<path fill-rule="evenodd" clip-rule="evenodd" d="M22.5214 18.6082C23.2758 18.6082 23.872 19.209 23.872 19.9606C23.872 20.7113 23.2758 21.3102 22.5214 21.3102C21.7708 21.3102 21.169 20.7113 21.169 19.9606C21.169 19.209 21.7708 18.6082 22.5214 18.6082ZM22.5214 17.5541C21.1979 17.5541 20.1145 18.6375 20.1145 19.9611C20.1145 21.2846 21.1979 22.3652 22.5214 22.3652C23.845 22.3652 24.9265 21.2846 24.9265 19.9611C24.9265 18.6375 23.845 17.5541 22.5214 17.5541Z" fill="url(#paint3_linear_6_2471)"/>
<path fill-rule="evenodd" clip-rule="evenodd" d="M22.5214 18.6082C23.2758 18.6082 23.872 19.209 23.872 19.9606C23.872 20.7113 23.2758 21.3102 22.5214 21.3102C21.7708 21.3102 21.169 20.7113 21.169 19.9606C21.169 19.209 21.7708 18.6082 22.5214 18.6082ZM22.5214 17.5541C21.1979 17.5541 20.1145 18.6375 20.1145 19.9611C20.1145 21.2846 21.1979 22.3652 22.5214 22.3652C23.845 22.3652 24.9265 21.2846 24.9265 19.9611C24.9265 18.6375 23.845 17.5541 22.5214 17.5541Z" fill="black" fill-opacity="0.2"/>
</g>
<defs>
<linearGradient id="paint0_linear_6_2471" x1="21.4205" y1="4" x2="21.4205" y2="37.165" gradientUnits="userSpaceOnUse">
<stop stop-color="#FF0F0F"/>
<stop offset="1" stop-color="#FF4849"/>
</linearGradient>
<linearGradient id="paint1_linear_6_2471" x1="24.9241" y1="10.2503" x2="24.9241" y2="37.1656" gradientUnits="userSpaceOnUse">
<stop stop-color="#FF0F0F"/>
<stop offset="1" stop-color="#FF4849"/>
</linearGradient>
<linearGradient id="paint2_linear_6_2471" x1="22.5206" y1="15.7014" x2="22.5206" y2="24.2117" gradientUnits="userSpaceOnUse">
<stop stop-color="#FF0F0F"/>
<stop offset="1" stop-color="#FF4849"/>
</linearGradient>
<linearGradient id="paint3_linear_6_2471" x1="22.5205" y1="17.5541" x2="22.5205" y2="22.3652" gradientUnits="userSpaceOnUse">
<stop stop-color="#FF0F0F"/>
<stop offset="1" stop-color="#FF4849"/>
</linearGradient>
<clipPath id="clip0_6_2471">
<rect width="39.7513" height="40.3589" fill="white" transform="translate(0.945557 0.992188)"/>
</clipPath>
</defs>
</svg>
