<svg width="41" height="42" viewBox="0 0 41 42" fill="none" xmlns="http://www.w3.org/2000/svg">
<g clip-path="url(#clip0_6_2488)">
<path fill-rule="evenodd" clip-rule="evenodd" d="M19.6167 23.8342C19.1087 23.4221 18.8095 22.8078 18.8095 22.1603C18.8095 20.9637 19.7979 19.9935 21.0167 19.9935C22.2356 19.9935 23.2239 20.9637 23.2239 22.1603C23.2239 22.8086 22.9255 23.425 22.416 23.8342L22.8605 27.2104C22.8915 27.452 22.698 27.6636 22.4515 27.6618L19.5905 27.6695C19.3448 27.6695 19.1558 27.4583 19.1853 27.2199L19.6167 23.8342ZM13.7929 17.1479C12.8639 17.1479 12.1052 17.8927 12.1052 18.8046V28.8598C12.1052 29.7717 12.8639 30.5165 13.7929 30.5165H28.2409C29.1699 30.5165 29.9286 29.7717 29.9286 28.8598V18.8046C29.9286 17.8927 29.1699 17.1479 28.2409 17.1479H25.1454V13.0816C25.1454 7.755 16.888 7.755 16.888 13.0816V17.1479H13.7929ZM17.7083 17.1479V13.0816C17.7083 8.81365 24.3255 8.81365 24.3255 13.0816V17.1479H23.2083V13.1421C23.2083 10.3145 18.8252 10.3145 18.8252 13.1421V17.1479H17.7083ZM19.6455 17.1479V13.1421C19.6455 11.3732 22.3887 11.3732 22.3887 13.1421V17.1479H19.6455ZM28.2409 17.9528H13.7925C13.3162 17.9528 12.9252 18.3367 12.9252 18.8043V28.8594C12.9252 29.3269 13.3162 29.7109 13.7925 29.7109H28.2405C28.7168 29.7109 29.1079 29.3269 29.1079 28.8594V18.8043C29.1079 18.3367 28.7172 17.9528 28.2409 17.9528ZM20.806 38.9428C20.9349 39.0183 21.097 39.0198 21.2278 38.9428C25.482 36.5175 28.991 33.9715 31.4993 31.1901C37.474 24.5643 35.7774 16.4072 35.7774 8.20384C35.7774 7.89728 35.4468 7.71173 35.1809 7.84521C32.6643 8.86059 30.2509 9.22288 27.9402 8.93283C25.6239 8.64167 23.401 7.69303 21.2711 6.08691C21.1224 5.97103 20.911 5.97103 20.7623 6.08691C18.6324 7.6934 16.4095 8.64204 14.0932 8.93283C11.7825 9.22325 9.36908 8.86059 6.85256 7.84521C6.58361 7.71027 6.25602 7.90058 6.25602 8.20384C6.25602 16.5674 4.42942 24.4195 10.5341 31.1901C13.0421 33.9715 16.5518 36.5175 20.806 38.9428ZM21.0167 38.1339C25.1107 35.7833 28.4822 33.3258 30.8871 30.6588C36.5263 24.4048 34.9571 16.5667 34.9571 8.79422C32.4992 9.70435 30.1258 10.016 27.8375 9.72856C25.4629 9.43043 23.1892 8.48876 21.0163 6.9039C18.8435 8.48839 16.5698 9.43007 14.1952 9.72856C11.9069 10.016 9.53343 9.70472 7.07556 8.79422C7.07556 16.5663 5.50633 24.4048 11.1456 30.6588C13.5508 33.3261 16.9224 35.7833 21.016 38.1339H21.0167ZM21.7698 23.3058C22.1661 23.0539 22.404 22.6249 22.404 22.1599C22.404 21.4078 21.7832 20.798 21.0167 20.798C20.2502 20.798 19.6294 21.4074 19.6294 22.1599C19.6294 22.6263 19.8621 23.0491 20.2625 23.3036C20.3981 23.3825 20.4803 23.535 20.4601 23.6985L20.0549 26.8664L21.9909 26.8613L21.5748 23.7004C21.5542 23.5412 21.6323 23.3876 21.7694 23.3062L21.7698 23.3058Z" fill="url(#paint0_linear_6_2488)"/>
</g>
<defs>
<linearGradient id="paint0_linear_6_2488" x1="29.3733" y1="6" x2="29.207" y2="46.0716" gradientUnits="userSpaceOnUse">
<stop stop-color="#005CAA"/>
<stop offset="1" stop-color="#64B0F1"/>
</linearGradient>
<clipPath id="clip0_6_2488">
<rect width="39.7513" height="40.3589" fill="white" transform="translate(0.796875 0.992188)"/>
</clipPath>
</defs>
</svg>
