<svg width="40" height="42" viewBox="0 0 40 42" fill="none" xmlns="http://www.w3.org/2000/svg">
<g clip-path="url(#clip0_6_2648)">
<path d="M35.4362 21.3185C35.4362 21.143 35.4362 20.909 35.4362 20.7336V20.2656L30.4645 19.0374L29.4117 14.4166C29.7041 13.6562 29.9966 12.6619 30.2305 11.4336C30.289 11.0242 30.172 10.6148 29.8796 10.3223C29.5871 10.0299 29.1777 9.97136 28.7683 10.0883C28.5343 10.1468 28.3588 10.2053 28.1249 10.2638C28.0079 9.62042 27.423 9.09401 26.7211 9.09401C26.0192 9.09401 25.4343 9.56193 25.3174 10.2638C25.1419 10.2053 24.9079 10.1468 24.674 10.0883C24.2645 9.97136 23.8551 10.0883 23.5626 10.3223C23.2702 10.6148 23.0947 11.0242 23.2117 11.4336C23.4457 12.6619 23.7381 13.6562 24.0306 14.4166L22.7438 19.8562C22.5683 20.7336 22.7438 21.6109 23.2702 22.3128L25.4928 25.3543C26.0777 27.0505 27.306 28.8052 30.0551 30.092L30.289 30.209L30.523 30.092C35.5531 27.6939 35.4947 23.7166 35.4362 21.3185ZM29.0607 11.1997C28.8853 11.96 28.7683 12.6034 28.5928 13.1883C28.4758 13.0713 28.3004 13.0129 28.1249 12.9544V11.4336C28.4173 11.3751 28.7098 11.3166 29.0607 11.1997ZM26.6626 10.2638C26.8381 10.2638 26.9551 10.3808 26.9551 10.5563V12.7204H26.3702V10.5563C26.3702 10.3808 26.4872 10.2638 26.6626 10.2638ZM25.2004 11.4336V12.9544C25.0249 13.0129 24.9079 13.1298 24.7324 13.1883C24.557 12.6034 24.3815 11.96 24.2645 11.1997C24.6155 11.3166 24.9079 11.3751 25.2004 11.4336ZM24.0891 21.6694C23.7966 21.2015 23.6796 20.6751 23.7966 20.1487L25.0834 14.7091C25.2004 14.2412 25.6098 13.8902 26.0777 13.8902H27.2475C27.7155 13.8902 28.1249 14.2412 28.2419 14.7091L29.2947 19.2128L24.9079 20.2656V20.7336C24.9079 20.909 24.9079 21.0845 24.9079 21.3185C24.9079 21.7864 24.9079 22.2543 24.9079 22.8392L24.0891 21.6694ZM30.172 28.9807C25.9607 26.875 26.0192 23.7166 26.0777 21.3185C26.0777 21.26 26.0777 21.2015 26.0777 21.2015L30.172 20.2072L34.2664 21.2015C34.2664 21.26 34.2664 21.3185 34.2664 21.3185C34.3248 23.6581 34.3248 26.875 30.172 28.9807Z" fill="url(#paint0_linear_6_2648)"/>
<path d="M30.1136 24.4777L29.1193 23.5419L28.3589 24.4192L30.1721 26.057L32.7457 23.4834L31.8683 22.6645L30.1136 24.4777Z" fill="url(#paint1_linear_6_2648)"/>
<path d="M20.9888 19.3306C20.9888 19.2721 20.9888 19.2721 20.9303 19.2136C21.5152 17.8098 21.9246 15.9382 22.1586 14.5344C22.2171 14.0665 22.1001 13.657 21.7492 13.3646C21.3982 13.0721 20.9303 12.9552 20.5209 13.1306C20.053 13.3061 19.4096 13.4816 18.7077 13.5985V13.3061C18.7077 12.4872 18.0643 11.8438 17.2454 11.8438C16.4266 11.8438 15.7832 12.4872 15.7832 13.3061V13.5985C15.0813 13.4816 14.4379 13.3061 13.97 13.1306C13.5605 13.0136 13.0926 13.0721 12.7417 13.3646C12.3907 13.657 12.2153 14.125 12.3322 14.5344C12.5662 15.8797 12.9756 17.7514 13.5605 19.2136C13.5605 19.2721 13.5605 19.2721 13.5021 19.3306L11.7473 27.2268C11.4549 28.3966 11.7473 29.6249 12.4492 30.5607L15.9002 35.2399C16.1926 35.7664 16.719 36.0003 17.3039 36.0003C17.8888 36.0003 18.4152 35.7664 18.7077 35.2984L22.1586 30.6192C22.8605 29.6834 23.0945 28.4551 22.8605 27.2853L20.9888 19.3306ZM20.9303 14.2419H20.9888L21.0473 14.3004C20.8133 15.7042 20.5209 16.874 20.1699 17.8683C19.7605 17.4589 19.2926 17.2249 18.7077 17.108V14.7099C19.585 14.6514 20.4039 14.4759 20.9303 14.2419ZM17.3039 13.0136C17.4794 13.0136 17.5964 13.1306 17.5964 13.3061V17.108H17.0115V13.3061C17.0115 13.1306 17.1284 13.0136 17.3039 13.0136ZM13.5605 14.3004C13.619 14.2419 13.619 14.3004 13.619 14.3004C14.2039 14.4759 14.9643 14.7099 15.7832 14.8268V17.2249C15.2568 17.3419 14.7303 17.6344 14.3209 17.9853C14.0285 16.991 13.736 15.8212 13.4436 14.4174C13.5605 14.3589 13.5605 14.3004 13.5605 14.3004ZM21.2228 29.8588L17.7718 34.5381C17.5379 34.8305 17.07 34.8305 16.836 34.5381L13.3851 29.8588C12.8587 29.157 12.6832 28.2796 12.9171 27.4607L14.7303 19.623C14.9058 18.8042 15.6077 18.2778 16.4266 18.2778H18.1228C18.9416 18.2778 19.6435 18.8627 19.819 19.623L21.6907 27.5192C21.9246 28.3381 21.7492 29.2154 21.2228 29.8588Z" fill="url(#paint2_linear_6_2648)"/>
<path d="M16.5438 23.1901C16.6608 23.3071 16.7778 23.3656 16.8948 23.4241C17.0117 23.4825 17.1872 23.541 17.3627 23.541C17.5381 23.541 17.7136 23.541 17.8306 23.4241C17.9476 23.3656 18.123 23.3071 18.1815 23.1901C18.24 23.0731 18.357 22.9561 18.4155 22.7807C18.474 22.6052 18.5325 22.4882 18.5325 22.2542V21.3769H16.1929V22.3127C16.1929 22.4882 16.1929 22.6637 16.3099 22.8391C16.3683 22.9561 16.4268 23.0731 16.5438 23.1901ZM16.6023 21.9618H18.123V22.3127C18.123 22.4297 18.123 22.4882 18.0646 22.6052C18.0061 22.7222 18.0061 22.7807 17.8891 22.8391C17.8306 22.8976 17.7721 22.9561 17.6551 22.9561C17.5381 23.0146 17.4797 23.0146 17.3627 23.0146C17.2457 23.0146 17.1287 23.0146 17.0702 22.9561C16.9532 22.8976 16.8948 22.8976 16.8363 22.8391C16.7778 22.7807 16.7193 22.7222 16.6608 22.6052C16.6023 22.4882 16.6023 22.4297 16.6023 22.3127V21.9618Z" fill="url(#paint3_linear_6_2648)"/>
<path d="M16.5438 25.5887C16.6608 25.7057 16.7778 25.7642 16.8948 25.8227C17.0117 25.8811 17.1872 25.9396 17.3627 25.9396C17.5381 25.9396 17.7136 25.9396 17.8306 25.8227C17.9476 25.7642 18.123 25.7057 18.1815 25.5887C18.24 25.4717 18.357 25.3547 18.4155 25.1793C18.474 25.0038 18.5325 24.8868 18.5325 24.6529V23.717H16.1929V24.6529C16.1929 24.8283 16.1929 25.0038 16.3099 25.1793C16.3683 25.3547 16.4268 25.4717 16.5438 25.5887ZM16.6023 24.3019H18.123V24.6529C18.123 24.7698 18.123 24.8283 18.0646 24.9453C18.0061 25.0623 18.0061 25.1208 17.8891 25.1793C17.8306 25.2378 17.7721 25.2962 17.6551 25.2962C17.5381 25.3547 17.4797 25.3547 17.3627 25.3547C17.2457 25.3547 17.1287 25.3547 17.0702 25.2962C16.9532 25.2378 16.8948 25.2378 16.8363 25.1793C16.7778 25.1208 16.7193 25.0623 16.6608 24.9453C16.6023 24.8283 16.6023 24.7698 16.6023 24.6529V24.3019Z" fill="url(#paint4_linear_6_2648)"/>
<path d="M18.2402 26.3486C18.1232 26.2316 18.0062 26.1731 17.8892 26.1146C17.7138 26.0561 17.5383 26.0561 17.3628 26.0561C17.1873 26.0561 17.0119 26.0561 16.8949 26.1146C16.7779 26.1731 16.6024 26.2316 16.4855 26.3486C16.3685 26.4656 16.31 26.5825 16.2515 26.758C16.193 26.9335 16.1345 27.0505 16.1345 27.2844C16.1345 27.4599 16.193 27.6354 16.2515 27.8108C16.31 27.9863 16.3685 28.1033 16.4855 28.2203C16.6024 28.3372 16.7194 28.3957 16.8949 28.4542C17.0704 28.5127 17.1873 28.5127 17.3628 28.5127C17.5383 28.5127 17.7138 28.5127 17.8307 28.4542C17.9477 28.3957 18.1232 28.3372 18.1817 28.2203C18.2987 28.1033 18.3572 27.9863 18.4156 27.8108C18.4741 27.6354 18.5326 27.5184 18.5326 27.2844C18.5326 27.1089 18.4741 26.9335 18.4156 26.758C18.4156 26.5825 18.3572 26.4656 18.2402 26.3486ZM18.0647 27.5184C18.0062 27.5769 18.0062 27.6938 17.8892 27.7523C17.8307 27.8108 17.7722 27.8693 17.6553 27.8693C17.5383 27.9278 17.4798 27.9278 17.3628 27.9278C17.2458 27.9278 17.1289 27.9278 17.0704 27.8693C16.9534 27.8108 16.8949 27.8108 16.8364 27.7523C16.7779 27.6938 16.7194 27.6354 16.6609 27.5184C16.6024 27.4599 16.6024 27.3429 16.6024 27.2259C16.6024 27.1089 16.6024 27.0505 16.6609 26.9335C16.7194 26.875 16.7194 26.758 16.8364 26.6995C16.8949 26.641 16.9534 26.5825 17.0704 26.5825C17.1873 26.524 17.2458 26.524 17.3628 26.524C17.4798 26.524 17.5968 26.524 17.6553 26.5825C17.7722 26.641 17.8307 26.641 17.8892 26.6995C17.9477 26.758 18.0062 26.8165 18.0647 26.9335C18.1232 27.0505 18.1232 27.1089 18.1232 27.2259C18.1232 27.3429 18.1232 27.4599 18.0647 27.5184Z" fill="url(#paint5_linear_6_2648)"/>
<path d="M18.3567 28.8643C18.2982 28.8058 18.2397 28.7473 18.1228 28.6888C18.0643 28.6303 17.9473 28.6303 17.8888 28.6303C17.7718 28.6303 17.7133 28.6303 17.5964 28.6888C17.5379 28.7473 17.4794 28.7473 17.4209 28.8058C17.3624 28.8643 17.3039 28.9228 17.3039 28.9813C17.2454 29.0398 17.2454 29.0983 17.2454 29.1567C17.2454 29.2152 17.1869 29.2737 17.1869 29.3322C17.1869 29.3907 17.1284 29.4492 17.1284 29.5077C17.1284 29.5662 17.0699 29.6247 17.0699 29.6247C17.0115 29.6832 17.0115 29.6832 16.953 29.6832C16.836 29.6832 16.7775 29.6832 16.719 29.6247C16.6605 29.5662 16.6605 29.5077 16.6605 29.3907C16.6605 29.3322 16.6605 29.2737 16.719 29.2152C16.719 29.1567 16.7775 29.0983 16.7775 29.0983C16.7775 29.0398 16.836 29.0398 16.836 28.9813C16.836 28.9228 16.8945 28.9228 16.8945 28.8643V28.8058C16.8945 28.8058 16.8945 28.7473 16.836 28.7473L16.602 28.5718C16.5435 28.6303 16.485 28.6888 16.485 28.7473C16.485 28.8058 16.4266 28.8643 16.3681 28.9228C16.3096 28.9813 16.3096 29.0398 16.3096 29.1567C16.3096 29.2152 16.3096 29.3322 16.3096 29.3907C16.3096 29.5077 16.3096 29.6247 16.3681 29.7416C16.4266 29.8586 16.485 29.9171 16.5435 30.0341C16.602 30.1511 16.719 30.1511 16.7775 30.2096C16.836 30.2681 16.953 30.2681 17.0699 30.2681C17.1869 30.2681 17.2454 30.2681 17.3039 30.2096C17.3624 30.1511 17.4209 30.1511 17.4794 30.0926C17.5379 30.0341 17.5964 29.9756 17.5964 29.9171C17.6548 29.8586 17.6548 29.8001 17.6548 29.7416C17.6548 29.6832 17.7133 29.6247 17.7133 29.5662C17.7133 29.5077 17.7718 29.4492 17.7718 29.3907C17.7718 29.3322 17.8303 29.2737 17.8303 29.2737C17.8888 29.2152 17.8888 29.2152 17.9473 29.2152C18.0058 29.2152 18.0643 29.2152 18.1228 29.2737C18.1813 29.3322 18.1813 29.3907 18.1813 29.5077C18.1813 29.5662 18.1813 29.6247 18.1813 29.6832C18.1813 29.7416 18.1228 29.7416 18.1228 29.8001C18.1228 29.8586 18.0643 29.8586 18.0643 29.9171V29.9756V30.0341L18.1228 30.0926L18.3567 30.2096C18.4152 30.1511 18.4152 30.0926 18.4737 30.0926C18.5322 30.0341 18.5322 29.9756 18.5322 29.9171C18.5322 29.8586 18.5907 29.8001 18.5907 29.7416C18.5907 29.6832 18.5907 29.6247 18.5907 29.5077C18.5907 29.3907 18.5907 29.2737 18.5322 29.1567C18.4737 29.0398 18.4152 28.9228 18.3567 28.8643Z" fill="url(#paint6_linear_6_2648)"/>
<path d="M27.2474 5.00006H26.0776V8.334H27.2474V5.00006Z" fill="url(#paint7_linear_6_2648)"/>
<path d="M29.236 6.46227H28.0662V8.80187H29.236V6.46227Z" fill="url(#paint8_linear_6_2648)"/>
<path d="M25.2584 6.46227H24.0886V8.80187H25.2584V6.46227Z" fill="url(#paint9_linear_6_2648)"/>
<path d="M11.9814 19.9147L10.6947 14.4752C10.9871 13.7148 11.2796 12.7204 11.5135 11.4922C11.572 11.0827 11.455 10.6733 11.1626 10.3808C10.8701 10.0884 10.4607 10.0299 10.0513 10.1469C9.81731 10.2054 9.64184 10.2639 9.40788 10.3223C9.2909 9.67895 8.706 9.15254 8.00411 9.15254C7.30223 9.15254 6.71733 9.62046 6.60035 10.3223C6.42488 10.2639 6.19092 10.2054 5.95695 10.1469C5.54752 10.0299 5.13809 10.1469 4.84564 10.3808C4.43621 10.6148 4.31923 11.0242 4.37772 11.4337C4.61168 12.662 4.90413 13.6563 5.19658 14.4167L3.9098 19.8563C3.73432 20.7336 3.9098 21.611 4.43621 22.3128L6.83431 25.5883C7.12676 25.9392 7.53619 26.1732 7.94562 26.1732C8.41354 26.1732 8.82298 25.9392 9.05694 25.5883L11.455 22.3128C11.9814 21.6695 12.1569 20.7336 11.9814 19.9147ZM10.3437 11.1997C10.1683 11.9601 10.0513 12.6035 9.8758 13.1884C9.75882 13.0714 9.58335 13.0129 9.40788 12.9544V11.4337C9.70033 11.3752 9.99278 11.3167 10.3437 11.1997ZM7.94562 10.2639C8.12109 10.2639 8.23807 10.3808 8.23807 10.5563V12.7204H7.65317V10.5563C7.65317 10.3808 7.77015 10.2639 7.94562 10.2639ZM6.48337 11.4337V12.9544C6.3079 13.0129 6.19092 13.0714 6.01544 13.1884C5.83997 12.6035 5.6645 11.9601 5.54752 11.1997C5.89846 11.3167 6.19092 11.3752 6.48337 11.4337ZM10.5192 21.6695L8.12109 24.9449C8.0626 25.0034 8.00411 25.0619 7.94562 25.0619C7.88713 25.0619 7.82864 25.0619 7.77015 24.9449L5.37205 21.6695C5.0796 21.26 4.96262 20.6751 5.0796 20.1487L6.36639 14.7091C6.48337 14.2412 6.8928 13.8903 7.36072 13.8903H8.53053C8.99845 13.8903 9.40788 14.2412 9.52486 14.7091L10.8116 20.1487C10.9286 20.6751 10.8116 21.26 10.5192 21.6695Z" fill="url(#paint10_linear_6_2648)"/>
<path d="M8.53064 5.00006H7.36084V8.334H8.53064V5.00006Z" fill="url(#paint11_linear_6_2648)"/>
<path d="M6.54212 6.46227H5.37231V8.80187H6.54212V6.46227Z" fill="url(#paint12_linear_6_2648)"/>
<path d="M10.5194 6.46227H9.34961V8.80187H10.5194V6.46227Z" fill="url(#paint13_linear_6_2648)"/>
</g>
<defs>
<linearGradient id="paint0_linear_6_2648" x1="32.6278" y1="9.09401" x2="32.4678" y2="34.7332" gradientUnits="userSpaceOnUse">
<stop stop-color="#005CAA"/>
<stop offset="1" stop-color="#64B0F1"/>
</linearGradient>
<linearGradient id="paint1_linear_6_2648" x1="31.7767" y1="22.6645" x2="31.7646" y2="26.784" gradientUnits="userSpaceOnUse">
<stop stop-color="#005CAA"/>
<stop offset="1" stop-color="#64B0F1"/>
</linearGradient>
<linearGradient id="paint2_linear_6_2648" x1="20.4492" y1="11.8438" x2="20.2129" y2="41.1754" gradientUnits="userSpaceOnUse">
<stop stop-color="#005CAA"/>
<stop offset="1" stop-color="#64B0F1"/>
</linearGradient>
<linearGradient id="paint3_linear_6_2648" x1="18.0157" y1="21.3769" x2="18.0065" y2="24.0048" gradientUnits="userSpaceOnUse">
<stop stop-color="#005CAA"/>
<stop offset="1" stop-color="#64B0F1"/>
</linearGradient>
<linearGradient id="paint4_linear_6_2648" x1="18.0157" y1="23.717" x2="18.006" y2="26.4159" gradientUnits="userSpaceOnUse">
<stop stop-color="#005CAA"/>
<stop offset="1" stop-color="#64B0F1"/>
</linearGradient>
<linearGradient id="paint5_linear_6_2648" x1="18.0029" y1="26.0561" x2="17.9914" y2="29.0391" gradientUnits="userSpaceOnUse">
<stop stop-color="#005CAA"/>
<stop offset="1" stop-color="#64B0F1"/>
</linearGradient>
<linearGradient id="paint6_linear_6_2648" x1="18.0868" y1="28.5718" x2="18.081" y2="30.6316" gradientUnits="userSpaceOnUse">
<stop stop-color="#005CAA"/>
<stop offset="1" stop-color="#64B0F1"/>
</linearGradient>
<linearGradient id="paint7_linear_6_2648" x1="26.989" y1="5.00006" x2="26.9455" y2="9.04804" gradientUnits="userSpaceOnUse">
<stop stop-color="#005CAA"/>
<stop offset="1" stop-color="#64B0F1"/>
</linearGradient>
<linearGradient id="paint8_linear_6_2648" x1="28.9776" y1="6.46227" x2="28.9561" y2="9.30312" gradientUnits="userSpaceOnUse">
<stop stop-color="#005CAA"/>
<stop offset="1" stop-color="#64B0F1"/>
</linearGradient>
<linearGradient id="paint9_linear_6_2648" x1="25" y1="6.46227" x2="24.9786" y2="9.30312" gradientUnits="userSpaceOnUse">
<stop stop-color="#005CAA"/>
<stop offset="1" stop-color="#64B0F1"/>
</linearGradient>
<linearGradient id="paint10_linear_6_2648" x1="10.2352" y1="9.15254" x2="10.0734" y2="29.8197" gradientUnits="userSpaceOnUse">
<stop stop-color="#005CAA"/>
<stop offset="1" stop-color="#64B0F1"/>
</linearGradient>
<linearGradient id="paint11_linear_6_2648" x1="8.27225" y1="5.00006" x2="8.22871" y2="9.04804" gradientUnits="userSpaceOnUse">
<stop stop-color="#005CAA"/>
<stop offset="1" stop-color="#64B0F1"/>
</linearGradient>
<linearGradient id="paint12_linear_6_2648" x1="6.28372" y1="6.46227" x2="6.26228" y2="9.30312" gradientUnits="userSpaceOnUse">
<stop stop-color="#005CAA"/>
<stop offset="1" stop-color="#64B0F1"/>
</linearGradient>
<linearGradient id="paint13_linear_6_2648" x1="10.261" y1="6.46227" x2="10.2396" y2="9.30312" gradientUnits="userSpaceOnUse">
<stop stop-color="#005CAA"/>
<stop offset="1" stop-color="#64B0F1"/>
</linearGradient>
<clipPath id="clip0_6_2648">
<rect width="39.7513" height="40.3589" fill="white" transform="translate(0.0944824 0.992188)"/>
</clipPath>
</defs>
</svg>
