<svg width="50" height="50" viewBox="0 0 50 50" fill="none" xmlns="http://www.w3.org/2000/svg">
<path d="M12.2182 47.9091H38.1818C39.1941 47.9079 40.1646 47.5053 40.8804 46.7895C41.5962 46.0737 41.9988 45.1032 42 44.0909V14.7452C42.0002 13.7819 41.6357 12.8543 40.9798 12.1488L32.7753 3.31276C32.4176 2.92819 31.9846 2.62128 31.5033 2.4111C31.022 2.20091 30.5026 2.09193 29.9773 2.09094H12.2182C11.2059 2.09215 10.2355 2.49482 9.51968 3.2106C8.8039 3.92639 8.40124 4.89685 8.40002 5.90912V44.0909C8.40124 45.1032 8.8039 46.0737 9.51968 46.7895C10.2355 47.5053 11.2059 47.9079 12.2182 47.9091ZM25.2 31.8728C25.049 31.8728 24.9014 31.828 24.7758 31.7441C24.6502 31.6602 24.5523 31.5409 24.4945 31.4014C24.4367 31.2618 24.4216 31.1083 24.4511 30.9601C24.4805 30.812 24.5533 30.6759 24.6601 30.5692C24.7668 30.4624 24.9029 30.3896 25.051 30.3602C25.1992 30.3307 25.3527 30.3458 25.4923 30.4036C25.6318 30.4614 25.7511 30.5593 25.835 30.6849C25.9189 30.8105 25.9637 30.9581 25.9637 31.1091C25.9637 31.3117 25.8832 31.5059 25.74 31.6491C25.5968 31.7923 25.4026 31.8728 25.2 31.8728ZM32.0728 4.79956L39.4854 12.7819H34.0582C33.5316 12.7819 33.0266 12.5727 32.6543 12.2003C32.2819 11.828 32.0728 11.323 32.0728 10.7964V4.79956ZM9.9273 26.1455H20.0455C20.248 26.1454 20.4422 26.065 20.5854 25.9217L24.4097 22.0982C24.7153 22.2477 25.0507 22.326 25.3909 22.3273C25.844 22.3273 26.287 22.1929 26.6637 21.9412C27.0404 21.6895 27.3341 21.3317 27.5075 20.9131C27.6809 20.4945 27.7262 20.0339 27.6378 19.5895C27.5494 19.1451 27.3312 18.7369 27.0109 18.4165C26.6905 18.0961 26.2823 17.8779 25.8379 17.7895C25.3935 17.7011 24.9329 17.7465 24.5142 17.9199C24.0956 18.0933 23.7378 18.3869 23.4861 18.7636C23.2344 19.1404 23.1 19.5833 23.1 20.0364C23.1013 20.3766 23.1797 20.7121 23.3291 21.0177L19.7293 24.6182H9.9273V5.90912C9.9273 5.30154 10.1687 4.71884 10.5983 4.28921C11.0279 3.85958 11.6106 3.61822 12.2182 3.61822H22.9091V10.1748L17.7813 15.3019C17.4757 15.1524 17.1402 15.0741 16.8 15.0728C16.3469 15.0728 15.904 15.2071 15.5273 15.4588C15.1505 15.7106 14.8569 16.0684 14.6835 16.487C14.5101 16.9056 14.4647 17.3662 14.5531 17.8106C14.6415 18.255 14.8597 18.6632 15.1801 18.9836C15.5005 19.304 15.9087 19.5222 16.3531 19.6106C16.7975 19.699 17.2581 19.6536 17.6767 19.4802C18.0953 19.3068 18.4531 19.0132 18.7048 18.6364C18.9566 18.2597 19.0909 17.8168 19.0909 17.3637C19.0896 17.0235 19.0113 16.688 18.8618 16.3824L24.2134 11.0308C24.3563 10.8875 24.4365 10.6933 24.4364 10.4909V3.61822H29.9773C30.1694 3.62087 30.3603 3.64808 30.5455 3.69916V10.7964C30.5455 11.728 30.9156 12.6215 31.5743 13.2803C32.2331 13.939 33.1266 14.3091 34.0582 14.3091H40.4308C40.4586 14.4528 40.4727 14.5988 40.4728 14.7452V24.6182H38.498L34.8982 21.0177C35.0477 20.7121 35.126 20.3766 35.1273 20.0364C35.1273 19.5833 34.9929 19.1404 34.7412 18.7636C34.4895 18.3869 34.1317 18.0933 33.7131 17.9199C33.2945 17.7465 32.8338 17.7011 32.3895 17.7895C31.9451 17.8779 31.5369 18.0961 31.2165 18.4165C30.8961 18.7369 30.6779 19.1451 30.5895 19.5895C30.5011 20.0339 30.5465 20.4945 30.7199 20.9131C30.8933 21.3317 31.1869 21.6895 31.5636 21.9412C31.9404 22.1929 32.3833 22.3273 32.8364 22.3273C33.1766 22.326 33.5121 22.2477 33.8177 22.0982L37.642 25.9225C37.7853 26.0654 37.9794 26.1456 38.1818 26.1455H40.4728V44.0909C40.4728 44.6985 40.2314 45.2812 39.8018 45.7109C39.3721 46.1405 38.7894 46.3819 38.1818 46.3819H31.3091V38.298L34.146 35.4619C34.4516 35.6113 34.7871 35.6896 35.1273 35.6909C35.5804 35.6909 36.0233 35.5566 36.4001 35.3049C36.7768 35.0531 37.0704 34.6953 37.2438 34.2767C37.4172 33.8581 37.4626 33.3975 37.3742 32.9531C37.2858 32.5087 37.0676 32.1005 36.7472 31.7801C36.4268 31.4597 36.0186 31.2415 35.5742 31.1531C35.1298 31.0647 34.6692 31.1101 34.2506 31.2835C33.832 31.4569 33.4742 31.7505 33.2225 32.1273C32.9707 32.504 32.8364 32.9469 32.8364 33.4C32.8377 33.7402 32.916 34.0757 33.0655 34.3813L30.0048 37.442C29.8619 37.5853 29.7817 37.7795 29.7818 37.9819V46.3819H25.9637V33.2595C26.4732 33.0794 26.9026 32.7249 27.176 32.2588C27.4495 31.7927 27.5493 31.2449 27.4579 30.7122C27.3666 30.1796 27.0898 29.6964 26.6766 29.3481C26.2635 28.9998 25.7404 28.8087 25.2 28.8087C24.6596 28.8087 24.1366 28.9998 23.7234 29.3481C23.3102 29.6964 23.0335 30.1796 22.9421 30.7122C22.8507 31.2449 22.9506 31.7927 23.224 32.2588C23.4975 32.7249 23.9269 33.0794 24.4364 33.2595V46.3819H20.6182V37.9819C20.6182 37.7793 20.5377 37.5851 20.3945 37.442L17.3346 34.3813C17.484 34.0757 17.5623 33.7402 17.5637 33.4C17.5637 32.9469 17.4293 32.504 17.1776 32.1273C16.9258 31.7505 16.5681 31.4569 16.1494 31.2835C15.7308 31.1101 15.2702 31.0647 14.8258 31.1531C14.3814 31.2415 13.9732 31.4597 13.6528 31.7801C13.3324 32.1005 13.1143 32.5087 13.0259 32.9531C12.9375 33.3975 12.9828 33.8581 13.1562 34.2767C13.3296 34.6953 13.6233 35.0531 14 35.3049C14.3767 35.5566 14.8197 35.6909 15.2728 35.6909C15.6129 35.6896 15.9484 35.6113 16.254 35.4619L19.0909 38.298V46.3819H12.2182C11.6106 46.3819 11.0279 46.1405 10.5983 45.7109C10.1687 45.2812 9.9273 44.6985 9.9273 44.0909V26.1455ZM24.6273 20.0364C24.6273 19.8854 24.6721 19.7377 24.756 19.6121C24.8399 19.4866 24.9592 19.3887 25.0987 19.3309C25.2382 19.2731 25.3918 19.258 25.5399 19.2874C25.688 19.3169 25.8241 19.3896 25.9309 19.4964C26.0377 19.6032 26.1104 19.7393 26.1399 19.8874C26.1694 20.0356 26.1542 20.1891 26.0964 20.3286C26.0386 20.4682 25.9408 20.5874 25.8152 20.6713C25.6896 20.7552 25.542 20.8 25.3909 20.8C25.1884 20.8 24.9942 20.7196 24.851 20.5764C24.7078 20.4332 24.6273 20.2389 24.6273 20.0364ZM17.5637 17.3637C17.5637 17.5147 17.5189 17.6623 17.435 17.7879C17.3511 17.9135 17.2318 18.0114 17.0923 18.0692C16.9527 18.127 16.7992 18.1421 16.651 18.1126C16.5029 18.0832 16.3668 18.0104 16.2601 17.9036C16.1533 17.7968 16.0805 17.6608 16.0511 17.5126C16.0216 17.3645 16.0367 17.211 16.0945 17.0714C16.1523 16.9319 16.2502 16.8126 16.3758 16.7287C16.5014 16.6448 16.649 16.6 16.8 16.6C17.0026 16.6 17.1968 16.6805 17.34 16.8237C17.4832 16.9669 17.5637 17.1611 17.5637 17.3637ZM33.6 20.0364C33.6 20.1874 33.5552 20.3351 33.4713 20.4607C33.3874 20.5862 33.2682 20.6841 33.1286 20.7419C32.9891 20.7997 32.8355 20.8148 32.6874 20.7854C32.5393 20.7559 32.4032 20.6832 32.2964 20.5764C32.1896 20.4696 32.1169 20.3335 32.0874 20.1854C32.058 20.0372 32.0731 19.8837 32.1309 19.7442C32.1887 19.6046 32.2866 19.4854 32.4121 19.4015C32.5377 19.3175 32.6854 19.2728 32.8364 19.2728C33.0389 19.2728 33.2332 19.3532 33.3764 19.4964C33.5196 19.6396 33.6 19.8339 33.6 20.0364ZM34.3637 33.4C34.3637 33.249 34.4084 33.1014 34.4924 32.9758C34.5763 32.8502 34.6955 32.7523 34.8351 32.6945C34.9746 32.6367 35.1281 32.6216 35.2763 32.6511C35.4244 32.6805 35.5605 32.7533 35.6673 32.8601C35.7741 32.9669 35.8468 33.1029 35.8763 33.2511C35.9057 33.3992 35.8906 33.5527 35.8328 33.6923C35.775 33.8318 35.6771 33.9511 35.5516 34.035C35.426 34.1189 35.2783 34.1637 35.1273 34.1637C34.9248 34.1637 34.7305 34.0832 34.5873 33.94C34.4441 33.7968 34.3637 33.6026 34.3637 33.4ZM16.0364 33.4C16.0364 33.5511 15.9916 33.6987 15.9077 33.8243C15.8238 33.9499 15.7045 34.0477 15.565 34.1055C15.4254 34.1633 15.2719 34.1785 15.1238 34.149C14.9756 34.1195 14.8396 34.0468 14.7328 33.94C14.626 33.8332 14.5533 33.6971 14.5238 33.549C14.4943 33.4009 14.5094 33.2473 14.5672 33.1078C14.625 32.9683 14.7229 32.849 14.8485 32.7651C14.9741 32.6812 15.1217 32.6364 15.2728 32.6364C15.4753 32.6364 15.6695 32.7169 15.8127 32.8601C15.9559 33.0033 16.0364 33.1975 16.0364 33.4Z" fill="black"/>
<path d="M12.9818 7.43645H19.0909C19.2934 7.43645 19.4876 7.356 19.6308 7.21279C19.7741 7.06958 19.8545 6.87535 19.8545 6.67282C19.8545 6.47029 19.7741 6.27605 19.6308 6.13284C19.4876 5.98963 19.2934 5.90918 19.0909 5.90918H12.9818C12.7792 5.90918 12.585 5.98963 12.4418 6.13284C12.2986 6.27605 12.2181 6.47029 12.2181 6.67282C12.2181 6.87535 12.2986 7.06958 12.4418 7.21279C12.585 7.356 12.7792 7.43645 12.9818 7.43645Z" fill="black"/>
<path d="M16.8 9.72726C16.8 9.52473 16.7195 9.3305 16.5763 9.18729C16.4331 9.04408 16.2389 8.96362 16.0363 8.96362H12.9818C12.7792 8.96362 12.585 9.04408 12.4418 9.18729C12.2986 9.3305 12.2181 9.52473 12.2181 9.72726C12.2181 9.92979 12.2986 10.124 12.4418 10.2672C12.585 10.4104 12.7792 10.4909 12.9818 10.4909H16.0363C16.2389 10.4909 16.4331 10.4104 16.5763 10.2672C16.7195 10.124 16.8 9.92979 16.8 9.72726Z" fill="black"/>
</svg>
