<svg width="50" height="50" viewBox="0 0 50 50" fill="none" xmlns="http://www.w3.org/2000/svg">
<path d="M35.8293 10.2739L37.7599 12.806C37.9858 13.1042 38.3346 13.29 38.7079 13.3193C38.7423 13.3242 38.7767 13.3242 38.8062 13.3242C39.1451 13.3242 39.4743 13.1922 39.7199 12.9576L43.9592 8.86601C44.2098 8.6216 44.3522 8.29408 44.3572 7.94701C44.3621 7.59504 44.2294 7.26753 43.9838 7.01333C43.4778 6.49517 42.6427 6.48539 42.122 6.98889L38.9536 10.049L37.922 8.69492C37.7107 8.41629 37.4013 8.23542 37.0525 8.19142C36.7037 8.14254 36.3598 8.23542 36.0798 8.44562C35.5051 8.87579 35.3921 9.70192 35.8293 10.2739ZM36.6251 9.15443C36.7135 9.08599 36.8216 9.06155 36.9297 9.07621C37.0377 9.09088 37.136 9.14954 37.2048 9.23264L38.5458 10.9876C38.6244 11.0902 38.7423 11.1538 38.87 11.1635C39.0027 11.1733 39.1255 11.1293 39.2188 11.0364L42.7557 7.62437C42.9178 7.46795 43.1831 7.46795 43.3403 7.63415C43.4189 7.71236 43.4582 7.81502 43.4582 7.92745C43.4582 8.03988 43.414 8.14254 43.3354 8.21586L39.1009 12.3025C39.0174 12.3856 38.8995 12.4247 38.7816 12.415C38.6588 12.4052 38.5557 12.3465 38.482 12.2536L36.5514 9.72148C36.409 9.55038 36.4433 9.2913 36.6251 9.15443ZM42.6034 26.9236C42.9129 24.9047 43.0701 22.7343 43.0701 20.4661V15.8612C45.3887 14.7907 47 12.4492 47 9.74592C47 6.02589 43.9592 3 40.2259 3C37.4798 3 35.117 4.63271 34.051 6.96934L25.8425 3.21509C25.2235 2.93156 24.5702 2.93156 23.9512 3.21509L8.04008 10.4987C7.22954 10.8702 6.72357 11.6573 6.72357 12.5469V14.8787L3.28492 18.105C3.10316 18.2761 3 18.5107 3 18.76C3 19.0044 3.10316 19.244 3.28492 19.4151L6.7776 22.6903C6.99866 27.4173 7.94183 31.5919 9.59239 35.0969C10.9629 38.0152 12.8296 40.4936 15.1335 42.4636C19.1666 45.905 23.3617 46.7849 24.5505 46.9707C24.6733 46.9902 24.7863 47 24.9042 47C25.0172 47 25.1351 46.9902 25.2579 46.9707C27.0607 46.6871 36.2026 44.7416 40.6532 34.1094V35.3169C40.6532 35.6835 40.8596 35.9963 41.1985 36.143C41.3164 36.1919 41.4392 36.2163 41.562 36.2163C41.788 36.2163 42.0041 36.1332 42.1761 35.9719L46.5235 31.895C46.7053 31.7239 46.8084 31.4893 46.8084 31.24C46.8084 30.9956 46.7053 30.756 46.5235 30.5849L42.6034 26.9236ZM42.1662 20.4612C42.1662 22.4996 42.0385 24.4598 41.7831 26.293C41.5915 26.2392 41.3803 26.249 41.1838 26.3321C40.8497 26.4787 40.6385 26.7916 40.6385 27.1582V28.4194H39.3367C39.8574 25.9997 40.1227 23.3306 40.1227 20.4661V16.4869C40.1571 16.4869 40.1915 16.4918 40.2209 16.4918C40.8939 16.4918 41.5473 16.3941 42.1613 16.2083V20.4612H42.1662ZM31.5899 34.0605H36.4335C35.397 36.0941 34.0707 37.849 32.4742 39.2813C30.3275 41.2073 27.4292 42.6836 24.8944 43.1431C22.3596 42.6836 19.4613 41.2073 17.3146 39.2813C13.0409 35.444 10.7763 29.4899 10.5798 21.5806H14.1167C13.7679 22.6609 13.5812 23.8097 13.5812 24.9976C13.5812 31.2009 18.6557 36.2505 24.8895 36.2505C27.3997 36.2505 29.7134 35.4342 31.5899 34.0605ZM24.8944 35.3511C19.1567 35.3511 14.49 30.7071 14.49 24.9976C14.49 19.288 19.1567 14.644 24.8944 14.644C30.632 14.644 35.2988 19.288 35.2988 24.9976C35.2988 30.7071 30.632 35.3511 24.8944 35.3511ZM24.8944 13.7446C22.3891 13.7446 20.0754 14.5609 18.1988 15.9346H10.565V13.5539L24.8944 6.99378L33.5598 10.9631C34.0805 13.7788 36.3598 15.9883 39.2188 16.4087V20.4612C39.2188 23.3355 38.9486 26.0094 38.4083 28.4145H35.6623C36.0111 27.3342 36.1977 26.1854 36.1977 24.9976C36.2026 18.7942 31.1282 13.7446 24.8944 13.7446ZM40.2259 3.89946C43.4631 3.89946 46.0961 6.51961 46.0961 9.74103C46.0961 12.9624 43.4631 15.5826 40.2259 15.5826C36.9886 15.5826 34.3556 12.9624 34.3556 9.74103C34.3507 6.51961 36.9837 3.89946 40.2259 3.89946ZM7.62253 12.5469C7.62253 12.0043 7.91727 11.5448 8.41342 11.3151L24.3246 4.03144C24.7028 3.86035 25.086 3.86035 25.4642 4.03144L33.7317 7.81991C33.55 8.43095 33.4468 9.07621 33.4468 9.74592C33.4468 9.80458 33.4517 9.86813 33.4517 9.92679L25.0811 6.09432C24.9632 6.04055 24.8256 6.04055 24.7028 6.09432L9.92643 12.8598C9.76923 12.9331 9.66607 13.0944 9.66607 13.2655V15.9346H9.15027V14.6831C9.15027 14.3165 8.94395 14.0037 8.605 13.857C8.27096 13.7104 7.89271 13.7788 7.62744 14.0281L7.62253 14.033V12.5469ZM8.2464 14.6831V16.3843C8.2464 16.6336 8.44781 16.834 8.69834 16.834H17.123C15.9834 17.9095 15.0697 19.2195 14.4556 20.6811H8.69834C8.44781 20.6811 8.2464 20.8816 8.2464 21.1309V22.832L3.89896 18.7551L8.2464 14.6831ZM25.1056 46.0761C24.9533 46.1005 24.8305 46.1005 24.6832 46.0761C23.5533 45.9001 19.5645 45.0642 15.7132 41.7744C10.9531 37.7121 8.27096 31.587 7.7306 23.5653C7.88289 23.6728 8.06464 23.7315 8.2464 23.7315C8.36921 23.7315 8.49202 23.707 8.60991 23.6581C8.94395 23.5115 9.15519 23.1986 9.15519 22.832V21.5757H9.68572C9.88222 29.749 12.25 35.9279 16.7153 39.9412C19.0045 41.9943 22.1091 43.5635 24.8207 44.0377C24.8453 44.0425 24.8747 44.0425 24.8993 44.0425C24.9239 44.0425 24.9533 44.0425 24.9779 44.0377C27.6895 43.5684 30.7941 41.9992 33.0833 39.9412C34.8665 38.3427 36.3304 36.3581 37.4455 34.0557H39.6904C35.3724 43.9888 26.8102 45.8121 25.1056 46.0761ZM41.5424 35.312V33.6108C41.5424 33.3615 41.341 33.1611 41.0904 33.1611H32.6706C33.8103 32.0857 34.724 30.7756 35.3381 29.314H41.0904C41.341 29.314 41.5424 29.1135 41.5424 28.8642V27.1631L45.8898 31.24L41.5424 35.312ZM24.8944 16.878C20.3947 16.878 16.735 20.5198 16.735 24.9976C16.735 29.4753 20.3947 33.1171 24.8944 33.1171C29.3941 33.1171 33.0538 29.4753 33.0538 24.9976C33.0538 20.5198 29.3941 16.878 24.8944 16.878ZM24.8944 32.2225C20.8908 32.2225 17.6339 28.9816 17.6339 24.9976C17.6339 21.0136 20.8908 17.7726 24.8944 17.7726C28.898 17.7726 32.1549 21.0136 32.1549 24.9976C32.1549 28.9816 28.898 32.2225 24.8944 32.2225ZM27.2228 26.8649C27.2228 27.9892 26.4123 28.9278 25.3463 29.138V29.6904C25.3463 29.9397 25.1449 30.1401 24.8944 30.1401C24.6439 30.1401 24.4424 29.9397 24.4424 29.6904V29.138C23.8333 29.0207 23.293 28.6638 22.9442 28.131C22.8066 27.9257 22.8656 27.647 23.0719 27.5102C23.2782 27.3733 23.5582 27.432 23.6958 27.6373C23.961 28.0381 24.4081 28.2825 24.8895 28.2825C25.6754 28.2825 26.319 27.647 26.319 26.8649C26.319 26.0828 25.6804 25.4424 24.8895 25.4424C23.6073 25.4424 22.561 24.4012 22.561 23.1253C22.561 22.001 23.3716 21.0624 24.4375 20.8522V20.3047C24.4375 20.0554 24.6389 19.855 24.8895 19.855C25.14 19.855 25.3414 20.0554 25.3414 20.3047V20.8571C25.9505 20.9744 26.4909 21.3313 26.8397 21.8641C26.9772 22.0694 26.9183 22.3481 26.712 22.4849C26.5056 22.6218 26.2256 22.5632 26.0881 22.3578C25.8228 21.957 25.3758 21.7126 24.8944 21.7126C24.1084 21.7126 23.4698 22.3481 23.4698 23.1351C23.4698 23.9172 24.1084 24.5527 24.8944 24.5527C26.1814 24.5478 27.2228 25.589 27.2228 26.8649Z" fill="black"/>
</svg>
