<svg width="40" height="42" viewBox="0 0 40 42" fill="none" xmlns="http://www.w3.org/2000/svg">
<g clip-path="url(#clip0_8_1182)">
<path d="M14.6562 30.7969H12.875V21.8906H9.3125V30.7969H7.53125V20.1094H14.6562V30.7969ZM23.5625 30.7969H21.7812V16.5469H18.2188V30.7969H16.4375V14.7656H23.5625V30.7969ZM32.4688 30.7969H30.6875V11.2031H27.125V30.7969H25.3438V9.42188H32.4688V30.7969ZM5.75 30.7969H34.25V32.5781H5.75V30.7969Z" fill="url(#paint0_linear_8_1182)"/>
<path d="M14.6562 30.7969H12.875V21.8906H9.3125V30.7969H7.53125V20.1094H14.6562V30.7969ZM23.5625 30.7969H21.7812V16.5469H18.2188V30.7969H16.4375V14.7656H23.5625V30.7969ZM32.4688 30.7969H30.6875V11.2031H27.125V30.7969H25.3438V9.42188H32.4688V30.7969ZM5.75 30.7969H34.25V32.5781H5.75V30.7969Z" fill="black" fill-opacity="0.2"/>
</g>
<defs>
<linearGradient id="paint0_linear_8_1182" x1="20" y1="9.42187" x2="20" y2="32.5781" gradientUnits="userSpaceOnUse">
<stop stop-color="#FF0F0F"/>
<stop offset="1" stop-color="#FF4849"/>
</linearGradient>
<clipPath id="clip0_8_1182">
<rect width="39.7513" height="40.3589" fill="white" transform="translate(0.0944214 0.992188)"/>
</clipPath>
</defs>
</svg>
