<svg width="40" height="42" viewBox="0 0 40 42" fill="none" xmlns="http://www.w3.org/2000/svg">
<g clip-path="url(#clip0_8_1129)">
<path d="M22.66 22.7683C22.66 23.866 21.7058 24.7768 20.4552 24.9575V26.1638C20.4552 26.2843 20.4073 26.3998 20.3221 26.485C20.2369 26.5702 20.1214 26.6181 20.0009 26.6181C19.8804 26.6181 19.7648 26.5702 19.6796 26.485C19.5944 26.3998 19.5465 26.2843 19.5465 26.1638V24.9571C19.1772 24.9129 18.8209 24.7928 18.5002 24.6043C18.1795 24.4158 17.9012 24.163 17.6829 23.8618C17.6217 23.7619 17.6015 23.6423 17.6264 23.5278C17.6514 23.4134 17.7196 23.313 17.8167 23.2476C17.9139 23.1822 18.0326 23.1569 18.148 23.177C18.2634 23.197 18.3666 23.2608 18.4361 23.3551C18.6196 23.5926 18.8574 23.7826 19.1295 23.9091C19.4017 24.0356 19.7002 24.095 20 24.0822C20.9656 24.0822 21.751 23.4911 21.751 22.7683C21.751 22.0454 20.9656 21.4543 20 21.4543C18.5336 21.4543 17.34 20.457 17.34 19.2317C17.34 18.1339 18.2947 17.2228 19.5453 17.0425V15.8362C19.5453 15.7157 19.5931 15.6001 19.6783 15.5149C19.7635 15.4297 19.8791 15.3819 19.9996 15.3819C20.1201 15.3819 20.2356 15.4297 20.3208 15.5149C20.406 15.6001 20.4539 15.7157 20.4539 15.8362V17.0429C20.8232 17.087 21.1794 17.2071 21.5001 17.3956C21.8208 17.5841 22.099 17.8369 22.3172 18.1381C22.3805 18.238 22.4024 18.3586 22.3781 18.4744C22.3539 18.5901 22.2854 18.6918 22.1873 18.7578C22.0892 18.8238 21.9692 18.849 21.8529 18.8279C21.7365 18.8068 21.633 18.7411 21.5644 18.6448C21.3808 18.4073 21.143 18.2173 20.8707 18.0908C20.5985 17.9642 20.2999 17.9049 20 17.9177C19.0344 17.9177 18.2491 18.5089 18.2491 19.2317C18.2491 19.9546 19.0344 20.5457 20 20.5457C21.4664 20.5457 22.66 21.543 22.66 22.7683ZM30.6519 21C30.6519 23.1067 30.0272 25.1661 28.8567 26.9178C27.6863 28.6695 26.0227 30.0348 24.0763 30.841C22.1299 31.6472 19.9882 31.8582 17.9219 31.4472C15.8557 31.0362 13.9577 30.0217 12.468 28.532C10.9783 27.0423 9.96384 25.1443 9.55283 23.0781C9.14183 21.0118 9.35277 18.8701 10.159 16.9237C10.9652 14.9773 12.3305 13.3137 14.0822 12.1433C15.8339 10.9728 17.8933 10.3481 20 10.3481C22.8241 10.3513 25.5316 11.4745 27.5286 13.4714C29.5255 15.4684 30.6487 18.1759 30.6519 21ZM29.7432 21C29.7433 19.0728 29.1719 17.1889 28.1013 15.5865C27.0307 13.9841 25.509 12.7352 23.7285 11.9977C21.9481 11.2602 19.9889 11.0672 18.0988 11.4431C16.2087 11.8191 14.4725 12.7471 13.1098 14.1098C11.7471 15.4725 10.8191 17.2086 10.4431 19.0988C10.0672 20.9889 10.2602 22.9481 10.9977 24.7285C11.7352 26.5089 12.9842 28.0307 14.5866 29.1013C16.189 30.1719 18.0729 30.7433 20 30.7432C22.5833 30.7405 25.0599 29.7132 26.8866 27.8865C28.7132 26.0599 29.7406 23.5832 29.7432 21ZM28.048 21C28.048 22.5917 27.576 24.1477 26.6917 25.4712C25.8074 26.7947 24.5504 27.8262 23.0799 28.4354C21.6093 29.0445 19.9911 29.2039 18.4299 28.8933C16.8688 28.5828 15.4348 27.8163 14.3092 26.6908C13.1837 25.5652 12.4172 24.1312 12.1067 22.5701C11.7961 21.0089 11.9555 19.3907 12.5646 17.9201C13.1738 16.4496 14.2053 15.1926 15.5288 14.3083C16.8523 13.424 18.4083 12.952 20 12.952C22.1338 12.9543 24.1794 13.803 25.6882 15.3118C27.197 16.8206 28.0457 18.8662 28.048 21ZM27.1398 21C27.1398 19.5879 26.7211 18.2075 25.9365 17.0333C25.152 15.8592 24.0369 14.9441 22.7323 14.4037C21.4277 13.8633 19.9921 13.7219 18.6071 13.9974C17.2221 14.2729 15.9499 14.9529 14.9514 15.9514C13.9529 16.9499 13.2729 18.2221 12.9974 19.6071C12.7219 20.9921 12.8633 22.4276 13.4037 23.7323C13.9441 25.0369 14.8592 26.152 16.0334 26.9365C17.2075 27.721 18.5879 28.1398 20 28.1398C21.893 28.1377 23.7078 27.3848 25.0463 26.0462C26.3848 24.7077 27.1377 22.8929 27.1398 21ZM18.6362 4.46022L19.5457 3.55075V8.26192C19.5457 8.38241 19.5936 8.49796 19.6788 8.58316C19.764 8.66836 19.8795 8.71623 20 8.71623C20.1205 8.71623 20.2361 8.66836 20.3213 8.58316C20.4065 8.49796 20.4543 8.38241 20.4543 8.26192V3.55075L21.3638 4.46022C21.4498 4.54118 21.564 4.58546 21.6821 4.58368C21.8002 4.58189 21.9129 4.53418 21.9964 4.45066C22.08 4.36714 22.1277 4.25438 22.1295 4.13627C22.1312 4.01817 22.087 3.90402 22.006 3.81801L20.3209 2.13292C20.2357 2.04781 20.1202 2 19.9998 2C19.8794 2 19.7639 2.04781 19.6787 2.13292L17.994 3.81801C17.9131 3.90402 17.8688 4.01817 17.8706 4.13627C17.8724 4.25438 17.9201 4.36714 18.0036 4.45066C18.0871 4.53418 18.1999 4.58189 18.318 4.58368C18.4361 4.58546 18.5502 4.54118 18.6362 4.46022ZM29.0073 12.447C29.0669 12.4471 29.126 12.4354 29.181 12.4125C29.2361 12.3897 29.2861 12.3562 29.3282 12.314L32.6595 8.98265V10.2692C32.6595 10.3897 32.7074 10.5052 32.7926 10.5904C32.8778 10.6756 32.9934 10.7235 33.1139 10.7235C33.2344 10.7235 33.3499 10.6756 33.4351 10.5904C33.5203 10.5052 33.5682 10.3897 33.5682 10.2692V7.88614C33.5682 7.82646 33.5565 7.76736 33.5337 7.71221C33.5109 7.65707 33.4774 7.60696 33.4352 7.56477C33.393 7.52257 33.3429 7.48911 33.2878 7.46629C33.2326 7.44348 33.1735 7.43177 33.1139 7.43183H30.7308C30.6103 7.43183 30.4948 7.47969 30.4096 7.56489C30.3244 7.65009 30.2765 7.76565 30.2765 7.88614C30.2765 8.00663 30.3244 8.12219 30.4096 8.20739C30.4948 8.29259 30.6103 8.34045 30.7308 8.34045H32.0173L28.686 11.6718C28.6226 11.7354 28.5794 11.8163 28.562 11.9044C28.5445 11.9924 28.5535 12.0837 28.5879 12.1666C28.6223 12.2496 28.6805 12.3205 28.7551 12.3704C28.8298 12.4203 28.9175 12.4469 29.0073 12.447ZM38.8671 20.6804L37.182 18.9957C37.096 18.9147 36.9818 18.8704 36.8637 18.8722C36.7456 18.874 36.6329 18.9217 36.5493 19.0052C36.4658 19.0888 36.4181 19.2015 36.4163 19.3196C36.4145 19.4377 36.4588 19.5519 36.5398 19.6379L37.4493 20.5474H32.7381C32.6176 20.5474 32.502 20.5952 32.4168 20.6804C32.3316 20.7656 32.2838 20.8812 32.2838 21.0017C32.2838 21.1222 32.3316 21.2377 32.4168 21.3229C32.502 21.4081 32.6176 21.456 32.7381 21.456H37.4493L36.5398 22.3638C36.4588 22.4498 36.4145 22.5639 36.4163 22.682C36.4181 22.8001 36.4658 22.9129 36.5493 22.9964C36.6329 23.0799 36.7456 23.1276 36.8637 23.1294C36.9818 23.1312 37.096 23.0869 37.182 23.006L38.8671 21.3209C38.9522 21.2357 39 21.1202 39 20.9998C39 20.8794 38.9522 20.7639 38.8671 20.6787V20.6804ZM33.1139 31.2782C32.9934 31.2782 32.8778 31.326 32.7926 31.4112C32.7074 31.4964 32.6595 31.612 32.6595 31.7325V33.019L29.3282 29.6877C29.2422 29.6067 29.128 29.5624 29.0099 29.5642C28.8918 29.566 28.7791 29.6137 28.6956 29.6972C28.612 29.7807 28.5643 29.8935 28.5625 30.0116C28.5608 30.1297 28.605 30.2439 28.686 30.3299L32.0173 33.6612H30.7308C30.6103 33.6612 30.4948 33.7091 30.4096 33.7943C30.3244 33.8795 30.2765 33.995 30.2765 34.1155C30.2765 34.236 30.3244 34.3516 30.4096 34.4368C30.4948 34.522 30.6103 34.5698 30.7308 34.5698H33.1139C33.2344 34.5698 33.3499 34.522 33.4351 34.4368C33.5203 34.3516 33.5682 34.236 33.5682 34.1155V31.7308C33.5682 31.6711 33.5564 31.6121 33.5336 31.5569C33.5108 31.5018 33.4773 31.4517 33.4351 31.4095C33.3929 31.3674 33.3428 31.3339 33.2877 31.3111C33.2326 31.2882 33.1735 31.2765 33.1139 31.2765V31.2782ZM21.3638 37.5397L20.4543 38.4492V33.738C20.4543 33.6176 20.4065 33.502 20.3213 33.4168C20.2361 33.3316 20.1205 33.2837 20 33.2837C19.8795 33.2837 19.764 33.3316 19.6788 33.4168C19.5936 33.502 19.5457 33.6176 19.5457 33.738V38.4492L18.6362 37.5397C18.5502 37.4588 18.4361 37.4145 18.318 37.4163C18.1999 37.4181 18.0871 37.4658 18.0036 37.5493C17.9201 37.6328 17.8724 37.7456 17.8706 37.8637C17.8688 37.9818 17.9131 38.0959 17.994 38.182L19.6787 39.867C19.764 39.9522 19.8795 40 20 40C20.1205 40 20.2361 39.9522 20.3213 39.867L22.006 38.182C22.087 38.0959 22.1312 37.9818 22.1295 37.8637C22.1277 37.7456 22.08 37.6328 21.9964 37.5493C21.9129 37.4658 21.8002 37.4181 21.6821 37.4163C21.564 37.4145 21.4498 37.4588 21.3638 37.5397ZM10.6718 29.6864L7.34049 33.0177V31.7308C7.34049 31.6103 7.29262 31.4947 7.20742 31.4095C7.12222 31.3243 7.00667 31.2765 6.88617 31.2765C6.76568 31.2765 6.65013 31.3243 6.56493 31.4095C6.47973 31.4947 6.43186 31.6103 6.43186 31.7308V34.1138C6.43181 34.1735 6.44352 34.2326 6.46633 34.2878C6.48914 34.3429 6.5226 34.393 6.5648 34.4352C6.607 34.4774 6.65711 34.5109 6.71225 34.5337C6.7674 34.5565 6.8265 34.5682 6.88617 34.5681H9.2692C9.3897 34.5681 9.50525 34.5203 9.59045 34.4351C9.67565 34.3499 9.72352 34.2343 9.72352 34.1138C9.72352 33.9933 9.67565 33.8778 9.59045 33.7926C9.50525 33.7074 9.3897 33.6595 9.2692 33.6595H7.98269L11.314 30.3282C11.395 30.2422 11.4393 30.128 11.4375 30.0099C11.4357 29.8918 11.388 29.779 11.3045 29.6955C11.221 29.612 11.1082 29.5643 10.9901 29.5625C10.872 29.5607 10.7578 29.6054 10.6718 29.6864ZM2.55078 21.4543H7.26195C7.38244 21.4543 7.498 21.4064 7.5832 21.3212C7.6684 21.236 7.71627 21.1205 7.71627 21C7.71627 20.8795 7.6684 20.7639 7.5832 20.6787C7.498 20.5935 7.38244 20.5457 7.26195 20.5457H2.55078L3.46025 19.6362C3.54121 19.5502 3.5855 19.436 3.58371 19.3179C3.58193 19.1998 3.53422 19.0871 3.4507 19.0035C3.36718 18.92 3.25441 18.8723 3.13631 18.8705C3.01821 18.8688 2.90405 18.913 2.81805 18.994L1.13295 20.6787C1.04782 20.7639 1 20.8795 1 21C1 21.1205 1.04782 21.236 1.13295 21.3213L2.81805 23.006C2.90405 23.0869 3.01821 23.1312 3.13631 23.1294C3.25441 23.1276 3.36718 23.0799 3.4507 22.9964C3.53422 22.9129 3.58193 22.8001 3.58371 22.682C3.5855 22.5639 3.54121 22.4498 3.46025 22.3638L2.55078 21.4543ZM6.88617 10.7235C7.00667 10.7235 7.12222 10.6756 7.20742 10.5904C7.29262 10.5052 7.34049 10.3897 7.34049 10.2692V8.98265L10.6718 12.314C10.7578 12.395 10.872 12.4392 10.9901 12.4375C11.1082 12.4357 11.221 12.388 11.3045 12.3044C11.388 12.2209 11.4357 12.1082 11.4375 11.9901C11.4393 11.872 11.395 11.7578 11.314 11.6718L7.98269 8.34045H9.2692C9.3897 8.34045 9.50525 8.29259 9.59045 8.20739C9.67565 8.12219 9.72352 8.00663 9.72352 7.88614C9.72352 7.76565 9.67565 7.65009 9.59045 7.56489C9.50525 7.47969 9.3897 7.43183 9.2692 7.43183H6.88617C6.8265 7.43177 6.7674 7.44348 6.71225 7.46629C6.65711 7.48911 6.607 7.52257 6.5648 7.56477C6.5226 7.60696 6.48914 7.65707 6.46633 7.71221C6.44352 7.76736 6.43181 7.82646 6.43186 7.88614V10.2692C6.43186 10.3897 6.47973 10.5052 6.56493 10.5904C6.65013 10.6756 6.76568 10.7235 6.88617 10.7235Z" fill="url(#paint0_linear_8_1129)"/>
</g>
<defs>
<linearGradient id="paint0_linear_8_1129" x1="30.6062" y1="2" x2="30.432" y2="48.1432" gradientUnits="userSpaceOnUse">
<stop stop-color="#005CAA"/>
<stop offset="1" stop-color="#64B0F1"/>
</linearGradient>
<clipPath id="clip0_8_1129">
<rect width="39.7513" height="40.3589" fill="white" transform="translate(0.0944214 0.992188)"/>
</clipPath>
</defs>
</svg>
