<svg width="41" height="42" viewBox="0 0 41 42" fill="none" xmlns="http://www.w3.org/2000/svg">
<g clip-path="url(#clip0_8_1144)">
<g clip-path="url(#clip1_8_1144)">
<path d="M26.2296 27.0769C26.5612 27.0167 26.8015 26.7287 26.8015 26.3917V25.2659C26.8015 24.9288 26.5609 24.6409 26.2296 24.5806L25.6373 24.473C25.5396 24.1387 25.4054 23.815 25.2373 23.5086L25.5804 23.0133C25.7721 22.7365 25.7387 22.3624 25.5004 22.1241L24.7042 21.3278C24.4662 21.0895 24.0921 21.0558 23.815 21.2478L23.3197 21.591C23.0136 21.4231 22.6895 21.2887 22.3552 21.191L22.2477 20.5986C22.1874 20.2671 21.8994 20.0264 21.5624 20.0264H20.4366C20.0996 20.0264 19.8116 20.2671 19.7513 20.5986L19.6437 21.191C19.3098 21.2883 18.9857 21.4228 18.6793 21.591L18.1847 21.2485C17.9079 21.0565 17.5338 21.0902 17.2955 21.3285L16.4992 22.1248C16.2609 22.3631 16.2272 22.7369 16.4192 23.0136L16.7624 23.5086C16.5946 23.8146 16.4601 24.1387 16.3624 24.4734L15.7704 24.5809C15.4388 24.6412 15.1985 24.9292 15.1985 25.2662V26.392C15.1985 26.729 15.4391 27.017 15.7704 27.0773L16.3627 27.1849C16.4604 27.5191 16.5946 27.8429 16.7627 28.1493L16.4196 28.6446C16.2279 28.9214 16.2613 29.2955 16.4996 29.5338L17.2958 30.33C17.5341 30.5683 17.9079 30.6017 18.185 30.41L18.68 30.0672C18.986 30.2351 19.3101 30.3695 19.6448 30.4672L19.7523 31.0592C19.8126 31.3908 20.1006 31.6311 20.4376 31.6311H21.5634C21.9004 31.6311 22.1884 31.3905 22.2487 31.0592L22.3563 30.4669C22.6906 30.3692 23.0143 30.2351 23.3207 30.0669L23.816 30.41C24.0928 30.6017 24.4669 30.5683 24.7052 30.33L25.5014 29.5341C25.7397 29.2958 25.7734 28.922 25.5814 28.6449L25.2376 28.1489C25.4054 27.8429 25.5399 27.5188 25.6376 27.1842L26.2296 27.0769ZM24.9003 26.9231C24.8138 27.2322 24.6895 27.5314 24.5316 27.8119C24.3995 28.0461 24.4128 28.329 24.566 28.5503L24.8986 29.0306L24.2017 29.7275L23.7214 29.3946C23.5004 29.2414 23.2175 29.2281 22.983 29.3602C22.7021 29.5181 22.4032 29.6424 22.0941 29.7288C21.8354 29.8014 21.6448 30.0107 21.5968 30.2752L21.4926 30.8499H20.5071L20.4029 30.2752C20.3549 30.0107 20.1643 29.8014 19.9055 29.7292C19.5964 29.6427 19.2972 29.5185 19.0167 29.3605C18.7821 29.2284 18.4992 29.2417 18.2783 29.3949L17.798 29.7278L17.1011 29.031L17.434 28.5506C17.5872 28.3297 17.6005 28.0465 17.4684 27.8123C17.3105 27.5314 17.1862 27.2325 17.0997 26.9234C17.0272 26.6647 16.8179 26.474 16.5534 26.426L15.9787 26.3219V25.3363L16.553 25.2322C16.8175 25.1842 17.0269 24.9935 17.0994 24.7348C17.1862 24.4254 17.3101 24.1265 17.4681 23.8456C17.5998 23.6114 17.5869 23.3282 17.4337 23.1076L17.1011 22.6272L17.798 21.9304L18.2783 22.2633C18.4996 22.4165 18.7825 22.4298 19.0167 22.2977C19.2975 22.1394 19.5968 22.0155 19.9055 21.929C20.1643 21.8565 20.3549 21.6471 20.4029 21.3826L20.5071 20.808H21.4926L21.5968 21.3826C21.6448 21.6471 21.8354 21.8562 22.0941 21.9287C22.4032 22.0151 22.7021 22.1391 22.983 22.2974C23.2175 22.4294 23.5001 22.4162 23.7214 22.263L24.2017 21.93L24.8986 22.6269L24.5656 23.1076C24.4124 23.3285 24.3991 23.6114 24.5312 23.846C24.6892 24.1268 24.8131 24.4257 24.8999 24.7348C24.9724 24.9935 25.1818 25.1842 25.4463 25.2322L26.0209 25.3363V26.3219L25.4463 26.426C25.1821 26.4737 24.9728 26.6643 24.9003 26.9231ZM21 22.6633C19.2546 22.6633 17.8344 24.0832 17.8344 25.8289C17.8344 27.5743 19.2543 28.9946 21 28.9946C22.7457 28.9946 24.1656 27.5746 24.1656 25.8289C24.1656 24.0832 22.7454 22.6633 21 22.6633ZM21 28.2136C19.6849 28.2136 18.615 27.1437 18.615 25.8286C18.615 24.5135 19.6849 23.4436 21 23.4436C22.3151 23.4436 23.385 24.5135 23.385 25.8286C23.385 27.1437 22.3151 28.2136 21 28.2136ZM10.6466 29.4477C12.2599 29.4477 13.5723 28.1353 13.5723 26.522C13.5723 25.0415 12.4659 23.8174 11.0371 23.6257V15.1365H15.5879C15.4378 15.6441 15.3537 16.1799 15.3537 16.7355V18.0131C15.3537 18.2286 15.5283 18.4032 15.7438 18.4032H26.2562C26.4717 18.4032 26.6463 18.2286 26.6463 18.0131V16.7355C26.6463 16.1799 26.5626 15.6441 26.4121 15.1365H30.9632V23.6257C29.5345 23.8174 28.4281 25.0415 28.4281 26.522C28.4281 28.1353 29.7404 29.4477 31.3537 29.4477C32.967 29.4477 34.2793 28.1353 34.2793 26.522C34.2793 25.0415 33.1729 23.8174 31.7442 23.6257V14.7464C31.7442 14.5309 31.5695 14.3563 31.354 14.3563H26.1132C25.2131 12.4301 23.2625 11.0892 21 11.0892C18.7372 11.0892 16.7869 12.4301 15.8865 14.3563H10.6466C10.4311 14.3563 10.2565 14.5309 10.2565 14.7464V23.626C8.82774 23.8177 7.72136 25.0419 7.72136 26.5224C7.72102 28.1353 9.03336 29.4477 10.6466 29.4477ZM33.4984 26.522C33.4984 27.7047 32.536 28.6671 31.3534 28.6671C30.1707 28.6671 29.2083 27.7047 29.2083 26.522C29.2083 25.3394 30.1707 24.377 31.3534 24.377C32.5363 24.377 33.4984 25.3394 33.4984 26.522ZM21 11.8694C23.6829 11.8694 25.866 14.0523 25.866 16.7355V17.623H24.4812V15.8306C24.4812 15.6151 24.3066 15.4405 24.0911 15.4405C23.8756 15.4405 23.7009 15.6151 23.7009 15.8306V17.623H18.2994V15.8306C18.2994 15.6151 18.1248 15.4405 17.9093 15.4405C17.6938 15.4405 17.5191 15.6151 17.5191 15.8306V17.623H16.1343V16.7355C16.134 14.0523 18.3168 11.8694 21 11.8694ZM10.6466 24.377C11.8293 24.377 12.7917 25.3394 12.7917 26.522C12.7917 27.7047 11.8293 28.6671 10.6466 28.6671C9.464 28.6671 8.50162 27.7047 8.50162 26.522C8.50162 25.3394 9.46366 24.377 10.6466 24.377ZM31.3534 29.6856C29.0909 29.6856 27.1403 31.0266 26.2402 32.9527H15.7598C14.8597 31.0266 12.9091 29.6856 10.6466 29.6856C7.53311 29.6856 5 32.2187 5 35.3319V36.6095C5 36.8254 5.17464 37 5.39047 37H15.9028C16.1183 37 16.2929 36.8254 16.2929 36.6099V35.3319C16.2929 34.7763 16.2092 34.2405 16.0587 33.7329H25.9413C25.7911 34.2405 25.7071 34.7763 25.7071 35.3319V36.6095C25.7071 36.825 25.8817 36.9997 26.0972 36.9997H36.6095C36.8254 37 37 36.8254 37 36.6095V35.3319C37 32.2187 34.4669 29.6856 31.3534 29.6856ZM15.5123 36.2194H14.1275V34.4271C14.1275 34.2116 13.9529 34.0369 13.7374 34.0369C13.5219 34.0369 13.3472 34.2116 13.3472 34.4271V36.2194H7.9457V34.4271C7.9457 34.2116 7.77106 34.0369 7.55557 34.0369C7.34009 34.0369 7.16511 34.2116 7.16511 34.4271V36.2194H5.7806V35.3319C5.7806 32.6487 7.9634 30.4659 10.6466 30.4659C13.3295 30.4659 15.5127 32.6487 15.5127 35.3319L15.5123 36.2194ZM36.2194 36.2194H34.8346V34.4271C34.8346 34.2116 34.6599 34.0369 34.4444 34.0369C34.2289 34.0369 34.0543 34.2116 34.0543 34.4271V36.2194H28.6528V34.4271C28.6528 34.2116 28.4781 34.0369 28.2626 34.0369C28.0471 34.0369 27.8725 34.2116 27.8725 34.4271V36.2194H26.4877V35.3319C26.4877 32.6487 28.6705 30.4659 31.3537 30.4659C34.0369 30.4659 36.2194 32.649 36.2194 35.3319V36.2194ZM21 10.8509C22.6133 10.8509 23.9256 9.53855 23.9256 7.92528C23.9256 6.31234 22.6133 5 21 5C19.3867 5 18.0744 6.31234 18.0744 7.92562C18.0744 9.53855 19.3867 10.8509 21 10.8509ZM21 5.7806C22.1826 5.7806 23.145 6.74298 23.145 7.92562C23.145 9.10826 22.1826 10.0706 21 10.0706C19.8174 10.0706 18.855 9.10826 18.855 7.92562C18.855 6.74264 19.8174 5.7806 21 5.7806Z" fill="url(#paint0_linear_8_1144)"/>
</g>
</g>
<defs>
<linearGradient id="paint0_linear_8_1144" x1="29.9315" y1="5" x2="29.7849" y2="43.8574" gradientUnits="userSpaceOnUse">
<stop stop-color="#005CAA"/>
<stop offset="1" stop-color="#64B0F1"/>
</linearGradient>
<clipPath id="clip0_8_1144">
<rect width="39.7513" height="40.3589" fill="white" transform="translate(0.945648 0.992188)"/>
</clipPath>
<clipPath id="clip1_8_1144">
<rect width="38" height="38" fill="white" transform="translate(2.14877 2)"/>
</clipPath>
</defs>
</svg>
