<svg width="41" height="42" viewBox="0 0 41 42" fill="none" xmlns="http://www.w3.org/2000/svg">
<g clip-path="url(#clip0_8_1105)">
<path fill-rule="evenodd" clip-rule="evenodd" d="M32.4366 9.07936C24.5338 9.07936 20.9649 4.95805 20.9224 4.91556C20.7099 4.66063 20.2851 4.66063 20.1151 4.91556C20.0726 4.95805 16.5461 9.07936 8.60093 9.07936C8.30351 9.07936 8.04859 9.2918 8.04859 9.58921C8.04859 20.721 7.15634 33.2974 20.37 37.2063C20.455 37.2487 20.5825 37.2487 20.6675 37.2063C33.8387 33.2974 32.9889 20.721 32.9889 9.58921C32.9889 9.2918 32.734 9.07936 32.4366 9.07936ZM20.4975 36.1441C8.26103 32.3627 9.11078 20.5086 9.11078 10.1416C15.7814 9.9716 19.3503 7.16741 20.4975 6.06273C21.6872 7.16741 25.2561 9.9716 31.8842 10.1416C31.8842 20.5086 32.7765 32.3627 20.4975 36.1441Z" fill="url(#paint0_linear_8_1105)"/>
<path fill-rule="evenodd" clip-rule="evenodd" d="M20.2001 9.07948C18.5856 10.1842 15.7814 11.5863 11.7875 12.0961C11.4901 12.1386 11.2777 12.3935 11.2777 12.6485C11.2777 21.231 10.8103 30.0259 20.3276 33.7649C20.455 33.8074 20.5825 33.8074 20.71 33.7649C30.2272 30.0259 29.7174 21.231 29.7174 12.6485C29.7174 12.3935 29.5049 12.1386 29.25 12.0961C25.2561 11.5863 22.452 10.1842 20.8374 9.07948C20.625 8.95202 20.3701 8.95202 20.2001 9.07948ZM28.6552 13.1158C28.6552 21.0185 29.165 29.0912 20.4975 32.7027C11.8725 29.0912 12.3824 21.0185 12.3824 13.1158C16.1213 12.5635 18.798 11.2464 20.4975 10.1417C22.197 11.2464 24.9162 12.5635 28.6552 13.1158Z" fill="url(#paint1_linear_8_1105)"/>
<path fill-rule="evenodd" clip-rule="evenodd" d="M18.628 20.2537L17.2684 25.7347C17.1834 26.0746 17.4383 26.4145 17.8207 26.4145H23.2167C23.5566 26.4145 23.854 26.0746 23.769 25.7347L22.3669 20.2537C24.1514 18.5542 22.9618 15.5801 20.4975 15.5801C18.0332 15.5801 16.886 18.5542 18.628 20.2537Z" fill="url(#paint2_linear_8_1105)"/>
</g>
<defs>
<linearGradient id="paint0_linear_8_1105" x1="27.4857" y1="4.72437" x2="27.2916" y2="44.2052" gradientUnits="userSpaceOnUse">
<stop stop-color="#005CAA"/>
<stop offset="1" stop-color="#64B0F1"/>
</linearGradient>
<linearGradient id="paint1_linear_8_1105" x1="25.6471" y1="8.98389" x2="25.4942" y2="39.1136" gradientUnits="userSpaceOnUse">
<stop stop-color="#005CAA"/>
<stop offset="1" stop-color="#64B0F1"/>
</linearGradient>
<linearGradient id="paint2_linear_8_1105" x1="22.3409" y1="15.5801" x2="22.2586" y2="28.7359" gradientUnits="userSpaceOnUse">
<stop stop-color="#005CAA"/>
<stop offset="1" stop-color="#64B0F1"/>
</linearGradient>
<clipPath id="clip0_8_1105">
<rect width="39.7513" height="40.3589" fill="white" transform="translate(0.796875 0.992188)"/>
</clipPath>
</defs>
</svg>
