<svg width="60" height="60" viewBox="0 0 60 60" fill="none" xmlns="http://www.w3.org/2000/svg">
<path d="M51.2903 46.3226H49.1613V20.0645C49.1613 19.6728 48.8441 19.3548 48.4516 19.3548H33.5484V12.2581H42.7742V10.8387H32.8387C32.4463 10.8387 32.129 11.1566 32.129 11.5484V19.3548H30.7097V9.41935H44.1935V8H30C29.6075 8 29.2903 8.31794 29.2903 8.70968V19.3548H27.871V8.70968C27.871 8.31794 27.5537 8 27.1613 8H15.8065V9.41935H26.4516V19.3548H11.5484C11.1559 19.3548 10.8387 19.6728 10.8387 20.0645V46.3226H8.70968C8.31723 46.3226 8 46.6405 8 47.0323V49.1613C8 50.7268 9.27316 52 10.8387 52H49.1613C50.7268 52 52 50.7268 52 49.1613V47.0323C52 46.6405 51.6828 46.3226 51.2903 46.3226ZM32.129 20.7742V21.4839H30.7097V20.7742H32.129ZM33.5484 24.3226V22.9032H45.6129V44.1935H14.3871V22.9032H26.4516V24.3226H27.871V22.9032H29.2903V25.7419H30.7097V22.9032H32.129V24.3226H33.5484ZM29.2903 20.7742V21.4839H27.871V20.7742H29.2903ZM12.2581 20.7742H26.4516V21.4839H13.6774C13.285 21.4839 12.9677 21.8018 12.9677 22.1935V44.9032C12.9677 45.295 13.285 45.6129 13.6774 45.6129H46.3226C46.715 45.6129 47.0323 45.295 47.0323 44.9032V22.1935C47.0323 21.8018 46.715 21.4839 46.3226 21.4839H33.5484V20.7742H47.7419V46.3226H12.2581V20.7742ZM50.5806 49.1613C50.5806 49.9441 49.9441 50.5806 49.1613 50.5806H10.8387C10.0559 50.5806 9.41935 49.9441 9.41935 49.1613V47.7419H50.5806V49.1613Z" fill="url(#paint0_linear_6949_2549)"/>
<path d="M51.2903 46.3226H49.1613V20.0645C49.1613 19.6728 48.8441 19.3548 48.4516 19.3548H33.5484V12.2581H42.7742V10.8387H32.8387C32.4463 10.8387 32.129 11.1566 32.129 11.5484V19.3548H30.7097V9.41935H44.1935V8H30C29.6075 8 29.2903 8.31794 29.2903 8.70968V19.3548H27.871V8.70968C27.871 8.31794 27.5537 8 27.1613 8H15.8065V9.41935H26.4516V19.3548H11.5484C11.1559 19.3548 10.8387 19.6728 10.8387 20.0645V46.3226H8.70968C8.31723 46.3226 8 46.6405 8 47.0323V49.1613C8 50.7268 9.27316 52 10.8387 52H49.1613C50.7268 52 52 50.7268 52 49.1613V47.0323C52 46.6405 51.6828 46.3226 51.2903 46.3226ZM32.129 20.7742V21.4839H30.7097V20.7742H32.129ZM33.5484 24.3226V22.9032H45.6129V44.1935H14.3871V22.9032H26.4516V24.3226H27.871V22.9032H29.2903V25.7419H30.7097V22.9032H32.129V24.3226H33.5484ZM29.2903 20.7742V21.4839H27.871V20.7742H29.2903ZM12.2581 20.7742H26.4516V21.4839H13.6774C13.285 21.4839 12.9677 21.8018 12.9677 22.1935V44.9032C12.9677 45.295 13.285 45.6129 13.6774 45.6129H46.3226C46.715 45.6129 47.0323 45.295 47.0323 44.9032V22.1935C47.0323 21.8018 46.715 21.4839 46.3226 21.4839H33.5484V20.7742H47.7419V46.3226H12.2581V20.7742ZM50.5806 49.1613C50.5806 49.9441 49.9441 50.5806 49.1613 50.5806H10.8387C10.0559 50.5806 9.41935 49.9441 9.41935 49.1613V47.7419H50.5806V49.1613Z" fill="black" fill-opacity="0.2"/>
<path d="M17.9355 28.5807V39.9355C17.9355 41.1093 18.8907 42.0646 20.0645 42.0646H39.9355C41.1093 42.0646 42.0645 41.1093 42.0645 39.9355V28.5807C42.0645 27.4069 41.1093 26.4517 39.9355 26.4517H20.0645C18.8907 26.4517 17.9355 27.4069 17.9355 28.5807ZM19.3548 30.7097H40.6452V32.1291H19.3548V30.7097ZM39.9355 40.6452H20.0645C19.6728 40.6452 19.3548 40.3266 19.3548 39.9355V33.5484H40.6452V39.9355C40.6452 40.3266 40.3272 40.6452 39.9355 40.6452ZM40.6452 28.5807V29.2904H19.3548V28.5807C19.3548 28.1897 19.6728 27.871 20.0645 27.871H39.9355C40.3272 27.871 40.6452 28.1897 40.6452 28.5807Z" fill="url(#paint1_linear_6949_2549)"/>
<path d="M17.9355 28.5807V39.9355C17.9355 41.1093 18.8907 42.0646 20.0645 42.0646H39.9355C41.1093 42.0646 42.0645 41.1093 42.0645 39.9355V28.5807C42.0645 27.4069 41.1093 26.4517 39.9355 26.4517H20.0645C18.8907 26.4517 17.9355 27.4069 17.9355 28.5807ZM19.3548 30.7097H40.6452V32.1291H19.3548V30.7097ZM39.9355 40.6452H20.0645C19.6728 40.6452 19.3548 40.3266 19.3548 39.9355V33.5484H40.6452V39.9355C40.6452 40.3266 40.3272 40.6452 39.9355 40.6452ZM40.6452 28.5807V29.2904H19.3548V28.5807C19.3548 28.1897 19.6728 27.871 20.0645 27.871H39.9355C40.3272 27.871 40.6452 28.1897 40.6452 28.5807Z" fill="black" fill-opacity="0.2"/>
<path d="M37.0968 34.2583C36.7199 34.2583 36.3615 34.3357 36.0323 34.4691C35.703 34.3357 35.3446 34.2583 34.9677 34.2583C33.4022 34.2583 32.129 35.5315 32.129 37.097C32.129 38.6626 33.4022 39.9357 34.9677 39.9357C35.3446 39.9357 35.703 39.8584 36.0323 39.7249C36.3615 39.8584 36.7199 39.9357 37.0968 39.9357C38.6623 39.9357 39.9355 38.6626 39.9355 37.097C39.9355 35.5315 38.6623 34.2583 37.0968 34.2583ZM35.6774 37.097C35.6774 36.74 35.8144 36.4179 36.0323 36.168C36.2501 36.4179 36.3871 36.74 36.3871 37.097C36.3871 37.454 36.2501 37.7762 36.0323 38.026C35.8144 37.7762 35.6774 37.454 35.6774 37.097ZM33.5484 37.097C33.5484 36.432 34.0097 35.8764 34.6278 35.7231C34.3993 36.1326 34.2581 36.596 34.2581 37.097C34.2581 37.598 34.3993 38.0615 34.6278 38.4709C34.0097 38.3177 33.5484 37.762 33.5484 37.097ZM37.4367 38.4709C37.6652 38.0615 37.8064 37.598 37.8064 37.097C37.8064 36.596 37.6652 36.1326 37.4367 35.7231C38.0548 35.8764 38.5161 36.432 38.5161 37.097C38.5161 37.762 38.0548 38.3177 37.4367 38.4709Z" fill="url(#paint2_linear_6949_2549)"/>
<path d="M37.0968 34.2583C36.7199 34.2583 36.3615 34.3357 36.0323 34.4691C35.703 34.3357 35.3446 34.2583 34.9677 34.2583C33.4022 34.2583 32.129 35.5315 32.129 37.097C32.129 38.6626 33.4022 39.9357 34.9677 39.9357C35.3446 39.9357 35.703 39.8584 36.0323 39.7249C36.3615 39.8584 36.7199 39.9357 37.0968 39.9357C38.6623 39.9357 39.9355 38.6626 39.9355 37.097C39.9355 35.5315 38.6623 34.2583 37.0968 34.2583ZM35.6774 37.097C35.6774 36.74 35.8144 36.4179 36.0323 36.168C36.2501 36.4179 36.3871 36.74 36.3871 37.097C36.3871 37.454 36.2501 37.7762 36.0323 38.026C35.8144 37.7762 35.6774 37.454 35.6774 37.097ZM33.5484 37.097C33.5484 36.432 34.0097 35.8764 34.6278 35.7231C34.3993 36.1326 34.2581 36.596 34.2581 37.097C34.2581 37.598 34.3993 38.0615 34.6278 38.4709C34.0097 38.3177 33.5484 37.762 33.5484 37.097ZM37.4367 38.4709C37.6652 38.0615 37.8064 37.598 37.8064 37.097C37.8064 36.596 37.6652 36.1326 37.4367 35.7231C38.0548 35.8764 38.5161 36.432 38.5161 37.097C38.5161 37.762 38.0548 38.3177 37.4367 38.4709Z" fill="black" fill-opacity="0.2"/>
<path d="M47.0323 8H45.6129V9.41935H47.0323V8Z" fill="url(#paint3_linear_6949_2549)"/>
<path d="M47.0323 8H45.6129V9.41935H47.0323V8Z" fill="black" fill-opacity="0.2"/>
<path d="M14.3871 8H12.9677V9.41935H14.3871V8Z" fill="url(#paint4_linear_6949_2549)"/>
<path d="M14.3871 8H12.9677V9.41935H14.3871V8Z" fill="black" fill-opacity="0.2"/>
<defs>
<linearGradient id="paint0_linear_6949_2549" x1="30" y1="8" x2="30" y2="52" gradientUnits="userSpaceOnUse">
<stop stop-color="#FF0F0F"/>
<stop offset="1" stop-color="#FF4849"/>
</linearGradient>
<linearGradient id="paint1_linear_6949_2549" x1="30" y1="26.4517" x2="30" y2="42.0646" gradientUnits="userSpaceOnUse">
<stop stop-color="#FF0F0F"/>
<stop offset="1" stop-color="#FF4849"/>
</linearGradient>
<linearGradient id="paint2_linear_6949_2549" x1="36.0323" y1="34.2583" x2="36.0323" y2="39.9357" gradientUnits="userSpaceOnUse">
<stop stop-color="#FF0F0F"/>
<stop offset="1" stop-color="#FF4849"/>
</linearGradient>
<linearGradient id="paint3_linear_6949_2549" x1="46.3226" y1="8" x2="46.3226" y2="9.41935" gradientUnits="userSpaceOnUse">
<stop stop-color="#FF0F0F"/>
<stop offset="1" stop-color="#FF4849"/>
</linearGradient>
<linearGradient id="paint4_linear_6949_2549" x1="13.6774" y1="8" x2="13.6774" y2="9.41935" gradientUnits="userSpaceOnUse">
<stop stop-color="#FF0F0F"/>
<stop offset="1" stop-color="#FF4849"/>
</linearGradient>
</defs>
</svg>
