<svg width="70" height="70" viewBox="0 0 70 70" fill="none" xmlns="http://www.w3.org/2000/svg">
<path d="M58.155 37.2235C57.8168 37.384 57.5298 37.6352 57.3259 37.9491C57.122 38.263 57.0092 38.6273 57 39.0015H46C45.4696 39.0015 44.9609 39.2122 44.5858 39.5873C44.2107 39.9624 44 40.4711 44 41.0015V43.0015C44 43.5319 44.2107 44.0407 44.5858 44.4157C44.9609 44.7908 45.4696 45.0015 46 45.0015H57C57.009 45.3755 57.1215 45.7397 57.3251 46.0536C57.5286 46.3674 57.8152 46.6187 58.153 46.7795C58.5154 46.9596 58.9213 47.0335 59.3239 46.9926C59.7264 46.9518 60.1092 46.7978 60.428 46.5485L64.213 43.5825C64.4565 43.3973 64.6539 43.1584 64.7898 42.8843C64.9257 42.6102 64.9964 42.3084 64.9964 42.0025C64.9964 41.6966 64.9257 41.3948 64.7898 41.1207C64.6539 40.8467 64.4565 40.6077 64.213 40.4225L60.426 37.4515C60.1072 37.2038 59.725 37.0511 59.3233 37.0107C58.9216 36.9704 58.5167 37.0442 58.155 37.2235ZM62.985 42.0015L59 45.0015V44.0015C59 43.7363 58.8946 43.4819 58.7071 43.2944C58.5196 43.1069 58.2652 43.0015 58 43.0015H46V41.0015H58C58.2652 41.0015 58.5196 40.8962 58.7071 40.7086C58.8946 40.5211 59 40.2667 59 40.0015V39.0015L62.985 42.0015Z" fill="white"/>
<path d="M41.5739 45.4527L37.7819 48.4237C37.5384 48.6089 37.341 48.8479 37.2051 49.122C37.0692 49.396 36.9985 49.6978 36.9985 50.0037C36.9985 50.3096 37.0692 50.6114 37.2051 50.8855C37.341 51.1596 37.5384 51.3985 37.7819 51.5837L41.5669 54.5497C41.8857 54.799 42.2685 54.953 42.6711 54.9938C43.0737 55.0347 43.4796 54.9608 43.8419 54.7807C44.1808 54.6206 44.4685 54.3694 44.673 54.0553C44.8775 53.7412 44.9907 53.3764 44.9999 53.0017H55.9999C56.5304 53.0017 57.0391 52.791 57.4142 52.4159C57.7892 52.0409 57.9999 51.5322 57.9999 51.0017V49.0017C57.9999 48.4713 57.7892 47.9626 57.4142 47.5875C57.0391 47.2124 56.5304 47.0017 55.9999 47.0017H44.9999C44.9907 46.6278 44.8781 46.2637 44.6746 45.9499C44.4711 45.636 44.1846 45.3847 43.8469 45.2237C43.4849 45.0441 43.0796 44.9703 42.6775 45.0108C42.2754 45.0513 41.8929 45.2045 41.5739 45.4527ZM39.0149 50.0017L42.9999 47.0017V48.0017C42.9999 48.2669 43.1053 48.5213 43.2928 48.7088C43.4804 48.8964 43.7347 49.0017 43.9999 49.0017H55.9999V51.0017H43.9999C43.7347 51.0017 43.4804 51.1071 43.2928 51.2946C43.1053 51.4822 42.9999 51.7365 42.9999 52.0017V53.0017L39.0149 50.0017Z" fill="white"/>
<path d="M51 27.0017C50.662 27.0017 50.333 27.0347 50 27.0527V9.38966C49.9998 9.05144 49.9141 8.71876 49.7508 8.42257C49.5875 8.12639 49.3519 7.87633 49.066 7.69566L45.317 5.31466C44.9976 5.10923 44.6258 5 44.246 5C43.8662 5 43.4944 5.10923 43.175 5.31466L39.5 7.65466L35.819 5.32266C35.4981 5.11452 35.124 5.00318 34.7415 5.00194C34.359 5.0007 33.9843 5.10961 33.662 5.31566L30 7.65566L26.317 5.31466C25.9971 5.10953 25.625 5.00049 25.245 5.00049C24.865 5.00049 24.4929 5.10953 24.173 5.31466L20.5 7.65566L16.828 5.32266C16.5074 5.11478 16.1338 5.0035 15.7517 5.00208C15.3696 5.00067 14.9951 5.10917 14.673 5.31466L10.943 7.68966C10.6549 7.87021 10.4173 8.12085 10.2524 8.41814C10.0875 8.71544 10.0007 9.04969 10 9.38966V57.6107C9.99942 57.9497 10.0847 58.2834 10.2478 58.5807C10.4109 58.8779 10.6467 59.1291 10.933 59.3107L14.673 61.6907C14.9928 61.8956 15.3647 62.0045 15.7445 62.0045C16.1243 62.0045 16.4962 61.8956 16.816 61.6907L20.494 59.3507L24.173 61.6907C24.4925 61.8963 24.8645 62.0056 25.2445 62.0056C25.6245 62.0056 25.9965 61.8963 26.316 61.6907L29.992 59.3497L33.663 61.6907C33.9826 61.8961 34.3546 62.0053 34.7345 62.0053C35.1144 62.0053 35.4864 61.8961 35.806 61.6907L38.3 60.1017C40.5896 62.1628 43.3462 63.6359 46.3322 64.3939C49.3181 65.1519 52.4437 65.172 55.4391 64.4525C58.4345 63.7329 61.2099 62.2954 63.5258 60.2638C65.8417 58.2323 67.6285 55.6678 68.732 52.7916C69.8356 49.9154 70.2228 46.8139 69.8602 43.7546C69.4975 40.6954 68.396 37.7703 66.6507 35.2318C64.9053 32.6933 62.5685 30.6176 59.8418 29.1837C57.1152 27.7499 54.0807 27.001 51 27.0017ZM34.738 60.0017L31.049 57.6497C30.7281 57.4559 30.3599 57.3543 29.985 57.3563C29.61 57.3582 29.2429 57.4635 28.924 57.6607L25.246 60.0017L21.546 57.6507C21.2252 57.4564 20.857 57.3546 20.482 57.3566C20.1069 57.3585 19.7398 57.4641 19.421 57.6617L15.747 60.0017L12 57.6107L12.007 9.38366L15.743 7.00166L19.443 9.35466C19.764 9.5478 20.132 9.64884 20.5067 9.64673C20.8813 9.64461 21.2482 9.53941 21.567 9.34266L25.243 7.00166L28.932 9.34866C29.2543 9.54381 29.6242 9.6464 30.001 9.64517C30.3778 9.64393 30.747 9.53892 31.068 9.34166L34.734 7.00166L38.434 9.34766C38.753 9.5448 39.1205 9.64923 39.4955 9.64923C39.8705 9.64923 40.238 9.5448 40.557 9.34766L44.244 7.00166L48 9.38966V27.2627C44.6309 27.7928 41.4673 29.2226 38.8432 31.4011C36.2192 33.5797 34.2318 36.4262 33.091 39.6403C31.9501 42.8544 31.6981 46.3169 32.3615 49.6623C33.0249 53.0078 34.579 56.1121 36.86 58.6477L34.738 60.0017ZM51 63.0017C47.6377 63.0017 44.3509 62.0046 41.5553 60.1366C38.7597 58.2687 36.5807 55.6136 35.2941 52.5073C34.0074 49.4009 33.6707 45.9828 34.3267 42.6851C34.9826 39.3874 36.6017 36.3583 38.9792 33.9808C41.3567 31.6034 44.3858 29.9843 47.6835 29.3283C50.9811 28.6724 54.3993 29.009 57.5056 30.2957C60.612 31.5824 63.267 33.7613 65.135 36.557C67.003 39.3526 68 42.6394 68 46.0017C67.995 50.5088 66.2023 54.8299 63.0153 58.0169C59.8282 61.204 55.5071 62.9966 51 63.0017Z" fill="white"/>
<path d="M18 29.002C18 28.7367 17.8947 28.4824 17.7071 28.2948C17.5196 28.1073 17.2652 28.002 17 28.002C16.7348 28.002 16.4804 28.1073 16.2929 28.2948C16.1054 28.4824 16 28.7367 16 29.002C16.0015 30.1542 16.4001 31.2706 17.1287 32.1632C17.8574 33.0558 18.8714 33.6699 20 33.902V35.002C20 35.2672 20.1054 35.5215 20.2929 35.7091C20.4804 35.8966 20.7348 36.002 21 36.002C21.2652 36.002 21.5196 35.8966 21.7071 35.7091C21.8947 35.5215 22 35.2672 22 35.002V33.902C23.1303 33.6724 24.1465 33.0592 24.8764 32.1662C25.6063 31.2732 26.005 30.1553 26.005 29.002C26.005 27.8486 25.6063 26.7307 24.8764 25.8377C24.1465 24.9447 23.1303 24.3315 22 24.102V18.186C22.5829 18.392 23.0879 18.7732 23.4459 19.2773C23.8039 19.7813 23.9974 20.3837 24 21.002C24 21.2672 24.1054 21.5215 24.2929 21.7091C24.4804 21.8966 24.7348 22.002 25 22.002C25.2652 22.002 25.5196 21.8966 25.7071 21.7091C25.8947 21.5215 26 21.2672 26 21.002C25.9986 19.8497 25.5999 18.7333 24.8713 17.8407C24.1427 16.9481 23.1286 16.334 22 16.102V15.002C22 14.7367 21.8947 14.4824 21.7071 14.2948C21.5196 14.1073 21.2652 14.002 21 14.002C20.7348 14.002 20.4804 14.1073 20.2929 14.2948C20.1054 14.4824 20 14.7367 20 15.002V16.102C18.8697 16.3315 17.8535 16.9447 17.1236 17.8377C16.3937 18.7307 15.995 19.8486 15.995 21.002C15.995 22.1553 16.3937 23.2732 17.1236 24.1662C17.8535 25.0592 18.8697 25.6724 20 25.902V31.819C19.4169 31.6128 18.9118 31.2315 18.5538 30.7272C18.1958 30.223 18.0024 29.6204 18 29.002ZM24 29.002C23.9974 29.6202 23.8039 30.2226 23.4459 30.7267C23.0879 31.2307 22.5829 31.6119 22 31.818V26.186C22.5829 26.392 23.0879 26.7732 23.4459 27.2773C23.8039 27.7813 23.9974 28.3837 24 29.002ZM18 21.002C18.0026 20.3837 18.1961 19.7813 18.5541 19.2773C18.9121 18.7732 19.4171 18.392 20 18.186V23.818C19.4171 23.6119 18.9121 23.2307 18.5541 22.7267C18.1961 22.2226 18.0026 21.6202 18 21.002Z" fill="white"/>
<path d="M30 16.002H44C44.2652 16.002 44.5196 15.8966 44.7071 15.7091C44.8946 15.5215 45 15.2672 45 15.002C45 14.7367 44.8946 14.4824 44.7071 14.2948C44.5196 14.1073 44.2652 14.002 44 14.002H30C29.7348 14.002 29.4804 14.1073 29.2929 14.2948C29.1054 14.4824 29 14.7367 29 15.002C29 15.2672 29.1054 15.5215 29.2929 15.7091C29.4804 15.8966 29.7348 16.002 30 16.002Z" fill="white"/>
<path d="M30 21.002H44C44.2652 21.002 44.5196 20.8966 44.7071 20.7091C44.8946 20.5215 45 20.2672 45 20.002C45 19.7367 44.8946 19.4824 44.7071 19.2948C44.5196 19.1073 44.2652 19.002 44 19.002H30C29.7348 19.002 29.4804 19.1073 29.2929 19.2948C29.1054 19.4824 29 19.7367 29 20.002C29 20.2672 29.1054 20.5215 29.2929 20.7091C29.4804 20.8966 29.7348 21.002 30 21.002Z" fill="white"/>
<path d="M30 26.002H44C44.2652 26.002 44.5196 25.8966 44.7071 25.7091C44.8946 25.5215 45 25.2672 45 25.002C45 24.7367 44.8946 24.4824 44.7071 24.2948C44.5196 24.1073 44.2652 24.002 44 24.002H30C29.7348 24.002 29.4804 24.1073 29.2929 24.2948C29.1054 24.4824 29 24.7367 29 25.002C29 25.2672 29.1054 25.5215 29.2929 25.7091C29.4804 25.8966 29.7348 26.002 30 26.002Z" fill="white"/>
<path d="M30 31.002H36C36.2652 31.002 36.5196 30.8966 36.7071 30.7091C36.8946 30.5215 37 30.2672 37 30.002C37 29.7367 36.8946 29.4824 36.7071 29.2948C36.5196 29.1073 36.2652 29.002 36 29.002H30C29.7348 29.002 29.4804 29.1073 29.2929 29.2948C29.1054 29.4824 29 29.7367 29 30.002C29 30.2672 29.1054 30.5215 29.2929 30.7091C29.4804 30.8966 29.7348 31.002 30 31.002Z" fill="white"/>
<path d="M33 35.002C33 34.7367 32.8946 34.4824 32.7071 34.2948C32.5196 34.1073 32.2652 34.002 32 34.002H30C29.7348 34.002 29.4804 34.1073 29.2929 34.2948C29.1054 34.4824 29 34.7367 29 35.002C29 35.2672 29.1054 35.5215 29.2929 35.7091C29.4804 35.8966 29.7348 36.002 30 36.002H32C32.2652 36.002 32.5196 35.8966 32.7071 35.7091C32.8946 35.5215 33 35.2672 33 35.002Z" fill="white"/>
<path d="M28 40.002H16C15.7348 40.002 15.4804 40.1073 15.2929 40.2948C15.1054 40.4824 15 40.7367 15 41.002C15 41.2672 15.1054 41.5215 15.2929 41.7091C15.4804 41.8966 15.7348 42.002 16 42.002H28C28.2652 42.002 28.5196 41.8966 28.7071 41.7091C28.8946 41.5215 29 41.2672 29 41.002C29 40.7367 28.8946 40.4824 28.7071 40.2948C28.5196 40.1073 28.2652 40.002 28 40.002Z" fill="white"/>
<path d="M28 45.002H16C15.7348 45.002 15.4804 45.1073 15.2929 45.2948C15.1054 45.4824 15 45.7367 15 46.002C15 46.2672 15.1054 46.5215 15.2929 46.7091C15.4804 46.8966 15.7348 47.002 16 47.002H28C28.2652 47.002 28.5196 46.8966 28.7071 46.7091C28.8946 46.5215 29 46.2672 29 46.002C29 45.7367 28.8946 45.4824 28.7071 45.2948C28.5196 45.1073 28.2652 45.002 28 45.002Z" fill="white"/>
<path d="M28 50.002H16C15.7348 50.002 15.4804 50.1073 15.2929 50.2948C15.1054 50.4824 15 50.7367 15 51.002C15 51.2672 15.1054 51.5215 15.2929 51.7091C15.4804 51.8966 15.7348 52.002 16 52.002H28C28.2652 52.002 28.5196 51.8966 28.7071 51.7091C28.8946 51.5215 29 51.2672 29 51.002C29 50.7367 28.8946 50.4824 28.7071 50.2948C28.5196 50.1073 28.2652 50.002 28 50.002Z" fill="white"/>
</svg>
