<svg width="70" height="70" viewBox="0 0 70 70" fill="none" xmlns="http://www.w3.org/2000/svg">
<path d="M45.1813 45.6961L35.5188 41.4017C35.3846 41.3346 35.2235 41.3346 35.0893 41.4017L28.2853 44.4212L31.4793 38.9324C31.6269 38.6774 31.5464 38.3419 31.2914 38.1943C31.2109 38.1406 31.117 38.1271 31.023 38.1271H29.4126V34.3695H28.339V38.664C28.339 38.9592 28.5806 39.2008 28.8758 39.2008H30.0836L27.2654 44.0454L24.4337 39.2142H25.6415C25.9368 39.2142 26.1784 38.9726 26.1784 38.6774V25.794C26.1784 20.7615 30.2715 16.6683 35.3041 16.6683H37.4513V15.5947H35.3041C29.6676 15.5947 25.1047 20.1576 25.1047 25.794V38.1406H23.4943C23.1991 38.1406 22.9575 38.3821 22.9575 38.6774C22.9575 38.7713 22.9844 38.8653 23.0246 38.9458L26.6481 45.1459L25.4134 45.6961C25.2255 45.7766 25.0913 45.9779 25.0913 46.1927V51.5339C25.0913 57.1032 27.8693 62.2968 32.4992 65.3835L34.9954 67.0476C35.1699 67.1683 35.4114 67.1683 35.5859 67.0476L38.082 65.3835C42.712 62.2968 45.5034 57.1032 45.4899 51.5339V46.1927C45.5034 45.9779 45.3826 45.7901 45.1813 45.6961ZM44.4298 51.5339C44.4298 56.7409 41.8262 61.599 37.4915 64.4843L35.3041 65.9471L33.1166 64.4843C28.7819 61.599 26.1784 56.7409 26.1784 51.5339V46.5416L35.3041 42.4887L44.4298 46.5416V51.5339Z" fill="white"/>
<path d="M32.0832 47.2667V49.9507C30.607 49.9507 29.3992 51.1585 29.3992 52.6347V56.9292C29.3992 58.4054 30.607 59.6132 32.0832 59.6132H38.5249C40.0011 59.6132 41.2089 58.4054 41.2089 56.9292V52.6347C41.2089 51.1585 40.0011 49.9507 38.5249 49.9507V47.2667C38.5249 46.3809 37.8002 45.6562 36.9145 45.6562H33.6936C32.8079 45.6562 32.0832 46.3809 32.0832 47.2667ZM38.5249 51.0243C39.4106 51.0243 40.1353 51.749 40.1353 52.6347V56.9292C40.1353 57.8149 39.4106 58.5396 38.5249 58.5396H32.0832C31.1975 58.5396 30.4728 57.8149 30.4728 56.9292V52.6347C30.4728 51.749 31.1975 51.0243 32.0832 51.0243H38.5249ZM37.4513 47.2667V49.9507H33.1568V47.2667C33.1568 46.9714 33.3984 46.7299 33.6936 46.7299H36.9145C37.2097 46.7299 37.4513 46.9714 37.4513 47.2667Z" fill="white"/>
<path d="M34.7673 56.2984V58.0027H35.8409V56.2984C36.673 56.0031 37.1158 55.0771 36.8206 54.2451C36.5253 53.413 35.5993 52.9702 34.7673 53.2654C33.9353 53.5607 33.4924 54.4866 33.7876 55.3187C33.9487 55.775 34.311 56.1373 34.7673 56.2984ZM35.3041 54.2451C35.5993 54.2451 35.8409 54.4866 35.8409 54.7819C35.8409 55.0771 35.5993 55.3187 35.3041 55.3187C35.0089 55.3187 34.7673 55.0771 34.7673 54.7819C34.7673 54.4866 35.0089 54.2451 35.3041 54.2451Z" fill="white"/>
<path d="M47.5835 15.3265C47.6775 15.1654 47.6775 14.9507 47.5835 14.7897L43.8125 8.34799C43.7185 8.18695 43.5441 8.07959 43.3428 8.07959C43.1549 8.07959 42.9804 8.18695 42.873 8.34799L39.1288 14.7897C38.9812 15.0446 39.0617 15.3801 39.3167 15.5278C39.3972 15.5815 39.4912 15.5949 39.5851 15.5949H41.1955V19.3525H42.2691V15.0581C42.2691 14.7628 42.0276 14.5213 41.7323 14.5213H40.5245L43.3428 9.67659L46.1744 14.5213H44.9666C44.6713 14.5213 44.4298 14.7628 44.4298 15.0581V27.9414C44.4298 32.974 40.3366 37.0671 35.3041 37.0671H33.1569V38.1407H35.3041C40.9405 38.1407 45.5034 33.5779 45.5034 27.9414V15.5949H47.1138C47.3017 15.5949 47.4896 15.4875 47.5835 15.3265Z" fill="white"/>
<path d="M28.3256 25.7944V27.9416C28.3256 31.7932 31.4525 34.9201 35.304 34.9201C39.1556 34.9201 42.2825 31.7932 42.2825 27.9416V25.7944C42.2825 21.9428 39.1556 18.8159 35.304 18.8159C31.4525 18.8159 28.3256 21.9428 28.3256 25.7944ZM32.62 20.5337V21.4999C31.5061 21.9697 30.5399 22.7078 29.8018 23.6606C30.3252 22.3052 31.3317 21.2047 32.62 20.5337ZM35.304 33.8465C32.0429 33.8465 29.3992 31.2027 29.3992 27.9416C29.3992 24.6805 32.0429 22.0368 35.304 22.0368C38.5651 22.0368 41.2089 24.6805 41.2089 27.9416C41.2089 31.2027 38.5651 33.8465 35.304 33.8465ZM37.9881 20.5337C39.2764 21.1913 40.2829 22.3052 40.8063 23.6606C40.0682 22.7078 39.1019 21.9697 37.9881 21.4999V20.5337ZM36.9145 21.151C35.8543 20.896 34.7538 20.896 33.6936 21.151V20.1177C34.7404 19.8224 35.8677 19.8224 36.9145 20.1177V21.151Z" fill="white"/>
<path d="M11.6309 44.8243C10.7586 45.0256 9.89974 44.4888 9.69843 43.6165L5.32347 24.8015C5.86027 25.043 6.45076 25.0967 7.01441 24.9625L19.9648 21.9564L19.7233 20.9096L6.77284 23.9157C5.90053 24.1171 5.04164 23.5802 4.84034 22.7079C4.63904 21.8356 5.17585 20.9767 6.04815 20.7754L19.7635 17.5814L19.522 16.5347L5.80659 19.7287C4.35722 20.0642 3.47149 21.5135 3.79357 22.9495L8.65166 43.8581C8.93349 45.0659 10.0205 45.9382 11.2552 45.9382C11.4565 45.9382 11.6712 45.9114 11.8725 45.8711L19.8038 44.0325L19.5622 42.9858L11.6309 44.8243Z" fill="white"/>
<path d="M19.0389 35.1356C18.4886 35.2563 18.0189 35.5918 17.7237 36.075L18.6363 36.6386C18.9315 36.1555 19.5757 36.0079 20.0588 36.3031L20.6224 35.3905C20.1527 35.1087 19.5891 35.0148 19.0389 35.1356Z" fill="white"/>
<path d="M66.5864 19.1513C66.2107 18.5474 65.6067 18.118 64.9223 17.9569L52.3745 15.0447C51.8511 14.924 51.3143 14.9642 50.8043 15.1521L51.1935 16.1586C51.4887 16.0378 51.8243 16.0244 52.1329 16.0915L64.6808 19.0037C65.5531 19.205 66.0899 20.0639 65.8886 20.9362L60.7889 42.8915C60.5876 43.7638 59.7153 44.3007 58.8564 44.0994L51.1264 42.3011L50.8848 43.3478L58.6014 45.1461C60.0508 45.4816 61.4868 44.5825 61.8223 43.1465L66.9219 21.1912C67.0964 20.4799 66.9756 19.7552 66.5864 19.1513Z" fill="white"/>
<path d="M52.2537 39.2551C53.126 39.4564 53.9849 38.9196 54.1862 38.0473L55.1524 33.8602C55.3537 32.9879 54.8169 32.129 53.9446 31.9277L51.8511 31.4446C50.9788 31.2433 50.1199 31.7801 49.9186 32.6524L49.7844 33.2294V6.46967C49.7844 4.99346 48.5766 3.78564 47.1003 3.78564H23.4943C22.0181 3.78564 20.8103 4.99346 20.8103 6.46967V25.741C16.395 25.2445 12.0872 27.338 9.73865 31.1091L10.6512 31.6727C12.8119 28.2103 16.7708 26.3181 20.8103 26.828V30.5186C18.0323 29.9818 15.2275 31.203 13.7379 33.6052L14.6504 34.1689C15.9522 32.0887 18.4215 31.0554 20.8237 31.6056V51.5614C20.8237 53.0376 22.0315 54.2454 23.5077 54.2454V53.1718C22.622 53.1718 21.8973 52.4471 21.8973 51.5614V6.46967C21.8973 5.58394 22.622 4.85926 23.5077 4.85926H27.2654V5.39606C27.2654 6.87228 28.4732 8.08009 29.9494 8.08009H40.6855C42.1617 8.08009 43.3695 6.87228 43.3695 5.39606V4.85926H47.1272C48.0129 4.85926 48.7376 5.58394 48.7376 6.46967V51.5614C48.7376 52.4471 48.0129 53.1718 47.1272 53.1718V54.2454C48.6034 54.2454 49.8112 53.0376 49.8112 51.5614V38.6378C49.932 38.6914 50.0528 38.7451 50.1735 38.772L52.2537 39.2551ZM42.2825 5.39606C42.2825 6.28179 41.5578 7.00648 40.6721 7.00648H29.936C29.0502 7.00648 28.3256 6.28179 28.3256 5.39606V4.85926H42.2825V5.39606ZM50.9788 32.8939C51.0459 32.5987 51.3411 32.4242 51.6229 32.4913L53.7165 32.9745C54.0117 33.0416 54.1862 33.3368 54.1191 33.6186L53.7567 35.1888L50.6164 34.4641L50.9788 32.8939ZM49.9991 37.081L50.3614 35.5109L53.5017 36.2356L53.1394 37.8057C53.0723 38.101 52.7771 38.2754 52.4952 38.2083L50.4017 37.7252C50.1199 37.6581 49.932 37.3763 49.9991 37.081Z" fill="white"/>
<path d="M57.5708 37.7303L56.8419 40.8677L57.8877 41.1106L58.6166 37.9732L57.5708 37.7303Z" fill="white"/>
<path d="M58.5375 33.5525L57.8086 36.6899L58.8544 36.9329L59.5833 33.7955L58.5375 33.5525Z" fill="white"/>
<path d="M59.5071 29.3616L58.7782 32.499L59.824 32.742L60.5529 29.6046L59.5071 29.3616Z" fill="white"/>
<path d="M60.4867 25.1873L59.7578 28.3247L60.8036 28.5677L61.5325 25.4302L60.4867 25.1873Z" fill="white"/>
<path d="M61.4563 20.9959L60.7274 24.1333L61.7732 24.3763L62.5021 21.2388L61.4563 20.9959Z" fill="white"/>
</svg>
