<svg width="70" height="70" viewBox="0 0 70 70" fill="none" xmlns="http://www.w3.org/2000/svg">
<path fill-rule="evenodd" clip-rule="evenodd" d="M54.5163 56.5733C49.3552 61.2452 42.5099 64.0909 35 64.0909C18.9335 64.0909 5.90909 51.0665 5.90909 35C5.90909 27.4901 8.75478 20.6448 13.4267 15.4837L54.5163 56.5733ZM56.5733 54.5163C61.2452 49.3552 64.0909 42.5099 64.0909 35C64.0909 18.9335 51.0665 5.90909 35 5.90909C27.4901 5.90909 20.6448 8.75478 15.4837 13.4267L56.5733 54.5163ZM35 67C52.6731 67 67 52.6731 67 35C67 17.3269 52.6731 3 35 3C17.3269 3 3 17.3269 3 35C3 52.6731 17.3269 67 35 67Z" fill="white"/>
</svg>
