<svg width="29" height="29" viewBox="0 0 29 29" fill="none" xmlns="http://www.w3.org/2000/svg">
<g clip-path="url(#clip0_200_9671)">
<g clip-path="url(#clip1_200_9671)">
<path d="M18.4206 19.5424C18.4206 19.7849 18.2773 20.0412 18.0072 20.1361C17.9968 20.2509 17.9002 20.3406 17.7828 20.3406C17.6663 20.3406 17.5697 20.2517 17.5584 20.137C17.4204 20.0895 17.3004 19.9963 17.2219 19.872C17.1554 19.7667 17.1874 19.6278 17.2927 19.5614C17.3979 19.4949 17.5369 19.5268 17.6033 19.6321C17.6387 19.6882 17.7043 19.7236 17.7759 19.7236H17.7794C17.9606 19.721 17.9701 19.5717 17.9701 19.5424C17.9701 19.4897 17.9502 19.3681 17.7656 19.3655C17.5748 19.3629 17.4057 19.2887 17.2901 19.1592C17.1865 19.0427 17.1304 18.8891 17.133 18.7269C17.1373 18.4826 17.2858 18.2281 17.5585 18.1392C17.5714 18.027 17.6663 17.9398 17.782 17.9398C17.9011 17.9398 17.9977 18.0313 18.0063 18.1487C18.1453 18.2004 18.2644 18.298 18.3394 18.4265C18.4024 18.5344 18.3653 18.6716 18.2583 18.7346C18.1504 18.7976 18.0132 18.7605 17.9502 18.6535C17.9166 18.5957 17.851 18.5586 17.7785 18.5577H17.7725C17.5981 18.5577 17.5826 18.6932 17.5818 18.7346C17.5809 18.7829 17.5964 18.8295 17.6249 18.8606C17.6568 18.8969 17.706 18.915 17.7707 18.9158C18.1979 18.921 18.4197 19.2351 18.4206 19.5424ZM19.4251 20.5132C19.0514 21.056 18.4352 21.3805 17.7768 21.3805C17.0191 21.3805 16.3347 20.9602 15.9921 20.2837C15.5244 19.3611 15.9257 18.5517 16.3132 17.7698L16.3166 17.7629C16.3943 17.6067 16.4728 17.4505 16.5531 17.2951C15.8748 17.447 15.1153 17.5247 14.3438 17.5247C13.7527 17.5247 13.1546 17.479 12.579 17.3875C12.9182 18.1072 13.171 18.8986 12.6075 19.7176C12.2485 20.2397 11.6565 20.5512 11.0231 20.5512C10.2947 20.5512 9.63712 20.1473 9.30746 19.4966C8.85783 18.6104 9.24273 17.8337 9.61468 17.0837L9.61813 17.0768C9.72082 16.8697 9.82611 16.6634 9.93312 16.458C9.61985 16.2423 9.37909 16.0007 9.2177 15.7383C8.28309 14.2169 10.5683 10.8468 12.0802 8.61706C12.3339 8.24339 12.5575 7.91373 12.724 7.65224L11.2319 5.45681C11.1137 5.28335 11.1819 5.15821 11.2172 5.11248C11.3562 4.93125 11.5685 5.00374 12.0828 5.18066C12.4056 5.29198 12.8077 5.43006 13.0304 5.43006C13.1952 5.43006 13.3557 5.36015 13.5257 5.2868C13.7165 5.20395 13.9331 5.10989 14.1851 5.10557C14.45 5.10126 14.6761 5.18065 14.8962 5.25919C15.0834 5.32563 15.2603 5.38777 15.439 5.38777C15.6245 5.38777 15.9214 5.27817 16.1837 5.18065C16.5945 5.02877 16.8663 4.92781 17.0562 5.06415C17.1416 5.12542 17.1874 5.22208 17.1848 5.33686C17.1675 5.98669 16.6687 6.52519 16.1863 7.04557C16.0008 7.24579 15.8101 7.45203 15.6556 7.65656C15.8153 7.90855 16.0258 8.22095 16.264 8.57565C17.7587 10.8003 20.0179 14.1626 19.1663 15.7289C19.0256 15.9887 18.8185 16.2252 18.551 16.4357C18.7745 16.856 18.998 17.2814 19.2112 17.7086C19.6323 18.5543 20.112 19.5148 19.4251 20.5132ZM13.1252 7.44159C13.3936 7.52099 13.7828 7.56758 14.1875 7.56758C14.5931 7.56758 14.9841 7.52012 15.2525 7.44073C15.4285 7.19822 15.6443 6.96437 15.854 6.73825C16.2535 6.30763 16.6324 5.89771 16.7161 5.47225C16.6048 5.50332 16.452 5.56028 16.3381 5.6017C16.0257 5.71734 15.703 5.83643 15.4372 5.83643C15.1817 5.83643 14.9591 5.7579 14.745 5.68282C14.5543 5.61551 14.3731 5.55078 14.1919 5.5551C14.0288 5.55769 13.8717 5.62673 13.7043 5.69922C13.5093 5.78379 13.2883 5.88044 13.0294 5.88044C12.7317 5.88044 12.3089 5.7346 11.936 5.60687C11.9119 5.59824 11.8869 5.58961 11.861 5.58098L13.1252 7.44159ZM11.999 17.2252C11.6857 16.5987 11.35 15.9721 11.023 15.3646C10.6873 15.9885 10.3412 16.6323 10.0219 17.2761L10.0185 17.283C9.66636 17.9932 9.36173 18.6068 9.70953 19.2929C9.96237 19.7908 10.4655 20.1006 11.023 20.1006C11.508 20.1006 11.961 19.8616 12.2363 19.462C12.7464 18.7207 12.3994 18.0278 11.999 17.2252ZM16.8308 16.76C17.019 16.4036 17.2088 16.0507 17.3952 15.7046L17.5782 15.3646C17.617 15.2912 17.6938 15.2464 17.7767 15.2464C17.8595 15.2464 17.9355 15.2921 17.9752 15.3646L18.1339 15.6597C18.2004 15.7823 18.2668 15.9066 18.3333 16.0308C18.5223 15.872 18.6681 15.6986 18.7691 15.513C19.4906 14.1866 17.1476 10.6993 15.8894 8.82566C15.6512 8.47096 15.4406 8.15771 15.2775 7.9014C14.9772 7.97648 14.5923 8.01876 14.1884 8.01876C13.7846 8.01876 13.3997 7.97648 13.0993 7.9014C12.9293 8.16805 12.7067 8.49685 12.453 8.86966C11.1826 10.7423 8.81899 14.2288 9.60172 15.5025C9.72254 15.6992 9.90463 15.8839 10.1437 16.0548C10.3128 15.7355 10.4828 15.4188 10.6511 15.1072L10.8254 14.7836C10.8651 14.7102 10.9411 14.6654 11.0239 14.6654C11.1068 14.6654 11.1827 14.7111 11.2224 14.7836L11.3734 15.0649C11.6927 15.6587 12.0215 16.2714 12.3322 16.8867C13.8303 17.1749 15.5338 17.1274 16.8309 16.7598L16.8308 16.76ZM18.8062 17.9087C18.4765 17.2476 18.121 16.5866 17.7767 15.9463C17.4228 16.6039 17.0569 17.283 16.7204 17.9622L16.7169 17.9691C16.3476 18.7147 16.0283 19.3585 16.3942 20.0799C16.66 20.6038 17.1899 20.93 17.7767 20.93C18.2867 20.93 18.7648 20.6789 19.0539 20.2577C19.5907 19.4785 19.2273 18.751 18.8062 17.9087ZM14.1712 23.4662C14.0789 23.4645 14.053 23.4196 14.0452 23.405C14.0202 23.3601 14.0219 23.2988 14.0478 23.2548C14.0711 23.216 14.1117 23.197 14.1721 23.197H14.1773C14.2325 23.1978 14.2834 23.2263 14.3093 23.2703C14.3723 23.3782 14.5095 23.4136 14.6174 23.3515C14.7252 23.2885 14.7615 23.1512 14.6985 23.0434C14.6312 22.9286 14.5268 22.8406 14.4034 22.7905C14.3878 22.6818 14.2938 22.5981 14.1807 22.5981C14.0711 22.5981 13.9788 22.6766 13.9598 22.7819C13.8347 22.8251 13.7311 22.9079 13.6621 23.0235C13.5542 23.2048 13.5499 23.4404 13.6526 23.6242C13.7544 23.8063 13.9408 23.9133 14.1652 23.9167C14.3024 23.9185 14.3222 24.0013 14.3222 24.0496C14.3222 24.0816 14.3119 24.1843 14.1764 24.186C14.1229 24.1869 14.0685 24.1601 14.0409 24.1161C13.9745 24.0108 13.8355 23.9789 13.7302 24.0453C13.625 24.1118 13.593 24.2507 13.6595 24.356C13.7294 24.4673 13.8355 24.551 13.9572 24.5968C13.9753 24.7029 14.0677 24.784 14.179 24.784C14.2912 24.784 14.3835 24.702 14.4016 24.595C14.6433 24.5027 14.7719 24.2688 14.7719 24.0479C14.7727 23.764 14.5656 23.4723 14.1712 23.4662ZM15.4717 22.4048C15.8515 23.165 16.2821 24.0263 15.6616 24.9273C15.325 25.4175 14.7693 25.71 14.1747 25.71C13.4903 25.71 12.8733 25.3312 12.5643 24.7201C12.1423 23.8874 12.5022 23.1616 12.85 22.4601L12.8534 22.4541C13.1615 21.8336 13.4938 21.2165 13.8148 20.6194L13.9762 20.319C14.0159 20.2457 14.0918 20.2008 14.1747 20.2008C14.2575 20.2008 14.3335 20.2465 14.3732 20.319L14.5155 20.584C14.8348 21.176 15.1645 21.7894 15.4717 22.4048ZM15.0696 22.6067C14.7831 22.0328 14.475 21.4581 14.1747 20.9006C13.8666 21.4727 13.549 22.063 13.2565 22.6542L13.253 22.6602C12.9268 23.3178 12.6455 23.8856 12.9656 24.5165C13.1978 24.9747 13.6612 25.2595 14.1747 25.2595C14.6208 25.2595 15.0385 25.0394 15.2914 24.6718C15.7608 23.99 15.4407 23.3489 15.0696 22.6067ZM11.0196 18.1736C10.9463 18.1728 10.8971 18.1477 10.8703 18.0994C10.841 18.0468 10.8418 17.9734 10.8729 17.9208C10.9014 17.8733 10.9497 17.85 11.0205 17.85H11.0257C11.0912 17.8509 11.1508 17.8845 11.1819 17.9372C11.2449 18.0451 11.3821 18.0813 11.4899 18.0183C11.5978 17.9553 11.634 17.8181 11.5711 17.7102C11.4994 17.5868 11.3855 17.4936 11.2535 17.4427C11.2423 17.3288 11.1456 17.2408 11.03 17.2408C10.9169 17.2408 10.8228 17.3245 10.8073 17.4332C10.6727 17.4781 10.5614 17.5661 10.4872 17.6895C10.3741 17.8785 10.3698 18.1253 10.4768 18.3178C10.5829 18.5085 10.778 18.6198 11.0127 18.6233C11.1801 18.6259 11.1983 18.7355 11.1983 18.7829C11.1983 18.8097 11.1896 18.9435 11.0265 18.9469H11.0257C10.9583 18.946 10.8988 18.9167 10.8669 18.8649C10.8004 18.7596 10.6615 18.7277 10.5562 18.7942C10.4509 18.8606 10.419 18.9996 10.4854 19.1048C10.5605 19.2239 10.6744 19.3128 10.8065 19.3603C10.8203 19.4716 10.9152 19.5579 11.03 19.5579C11.1456 19.5579 11.2405 19.4707 11.2535 19.3594C11.5124 19.2653 11.6496 19.0185 11.6496 18.7846C11.6487 18.4843 11.4321 18.1797 11.0196 18.1736ZM14.1634 12.6556C13.7431 12.6487 13.561 12.3191 13.5662 11.9963C13.5714 11.6779 13.7603 11.3594 14.1694 11.3594H14.1824H14.1841C14.4024 11.3637 14.6052 11.4897 14.7131 11.6899C14.7718 11.7995 14.9081 11.8401 15.0177 11.7814C15.1273 11.7227 15.1679 11.5864 15.1092 11.4768C14.9608 11.2015 14.7045 11.0065 14.4128 10.9374V10.7743C14.4128 10.6501 14.3118 10.5491 14.1875 10.5491C14.0633 10.5491 13.9623 10.6501 13.9623 10.7743V10.9271C13.416 11.0246 13.1243 11.507 13.1166 11.9885C13.1071 12.5348 13.4609 13.094 14.1565 13.1061C14.6199 13.1139 14.7847 13.4573 14.7847 13.7499C14.7847 14.0597 14.5975 14.3954 14.185 14.4032H14.1833C13.9649 14.4058 13.7587 14.2875 13.6447 14.0908C13.5826 13.9829 13.4445 13.9466 13.3367 14.0088C13.2288 14.0709 13.1926 14.209 13.2547 14.3169C13.4109 14.5852 13.6698 14.7708 13.9615 14.8312V14.9883C13.9615 15.1125 14.0624 15.2135 14.1867 15.2135C14.311 15.2135 14.4119 15.1125 14.4119 14.9883V14.8286C14.953 14.7156 15.2344 14.2271 15.2344 13.749C15.2335 13.2304 14.8986 12.6677 14.1634 12.6556Z" fill="#FF3231"/>
</g>
</g>
<defs>
<clipPath id="clip0_200_9671">
<rect width="27.5601" height="27.5601" fill="white" transform="translate(0.703125 0.841797)"/>
</clipPath>
<clipPath id="clip1_200_9671">
<rect width="27.5601" height="27.5601" fill="white" transform="translate(0.703125 0.841797)"/>
</clipPath>
</defs>
</svg>
