<svg width="28" height="28" viewBox="0 0 28 28" fill="none" xmlns="http://www.w3.org/2000/svg">
<g clip-path="url(#clip0_200_9685)">
<g clip-path="url(#clip1_200_9685)">
<path d="M12.7233 10.2764L13.8457 11.34L15.9173 9.15398C16.6656 8.35005 17.9024 9.50028 17.1263 10.3042L14.5105 13.0932C14.1951 13.4395 13.6478 13.4674 13.3015 13.152L11.5761 11.5132C10.7382 10.734 11.9163 9.52811 12.7233 10.2764ZM5.41989 5.41571L6.25474 6.19181L8.00792 4.32422C8.7562 3.52029 9.99301 4.67053 9.21691 5.47446L6.88861 7.94808C6.60105 8.29439 6.02593 8.32222 5.71054 8.00683L4.27275 6.65561C3.46263 5.87642 4.6407 4.66744 5.41989 5.41571ZM8.35114 4.66744L6.4248 6.68035C6.33822 6.79476 6.19599 6.79476 6.07849 6.70818L5.10141 5.75892C4.7551 5.44354 4.26656 5.95991 4.61287 6.30621L6.05067 7.6296C6.1929 7.77184 6.4248 7.77184 6.53921 7.6296L8.86751 5.15598C9.18599 4.81276 8.66653 4.32422 8.35114 4.66744ZM5.47555 11.0803L6.4248 12.0296L7.34623 11.0803C8.15016 10.3042 9.33131 11.4823 8.55521 12.2584L7.60596 13.2076L8.55521 14.1569C9.33131 14.933 8.15325 16.142 7.34623 15.3659L6.4248 14.4166L5.47555 15.3659C4.69945 16.1141 3.46263 14.9639 4.26656 14.1569L5.21582 13.2076L4.26656 12.2862C3.49046 11.4823 4.67162 10.2764 5.47555 11.0803ZM4.6407 11.9152L5.76311 13.0376C5.84968 13.1241 5.84968 13.2973 5.76311 13.3839L4.6407 14.5063C4.32531 14.8526 4.81385 15.3102 5.10141 14.9948L6.22382 13.8724C6.33823 13.7858 6.48355 13.7858 6.59796 13.8724L7.72036 14.9948C8.00792 15.2824 8.49646 14.8804 8.18108 14.5063L7.08959 13.3839C6.97518 13.2973 6.97518 13.1241 7.08959 13.0376L8.212 11.9152C8.49956 11.5998 8.03884 11.1112 7.72346 11.4266L6.60105 12.549C6.48664 12.6634 6.34132 12.6634 6.22691 12.549L5.1045 11.4266C4.78602 11.1081 4.32531 11.5967 4.6407 11.9152ZM20.6296 12.7469L21.4645 13.4952L23.2176 11.6554C23.9659 10.8515 25.2027 12.0017 24.4266 12.8057L22.0983 15.2793C21.8108 15.5947 21.2356 15.6256 20.9203 15.3071L19.4825 13.9559C18.6754 13.2076 19.8535 12.0017 20.6296 12.7469ZM23.5639 11.9708L21.6376 14.0116C21.551 14.0981 21.4088 14.126 21.2913 14.0116L20.3142 13.0901C19.9679 12.7747 19.4794 13.2911 19.8257 13.6065L21.2356 14.9577C21.3779 15.1 21.6098 15.0721 21.752 14.9299L24.0803 12.4563C24.3957 12.1161 23.8793 11.6276 23.5639 11.9708ZM21.35 4.26547L22.2715 5.1869L23.2207 4.26547C23.9968 3.46154 25.2058 4.66744 24.4297 5.44354L23.4805 6.39279L24.4297 7.34205C25.2058 8.11815 23.9999 9.32713 23.2207 8.52011L22.2715 7.59868L21.3222 8.52011C20.5739 9.29621 19.3371 8.14597 20.1442 7.34205L21.0934 6.39279L20.1442 5.44354C19.3371 4.66744 20.543 3.46154 21.35 4.26547ZM20.4874 5.10032L21.6098 6.22273C21.7242 6.30931 21.7242 6.48246 21.6098 6.56904L20.4874 7.69145C20.172 8.00683 20.6605 8.49537 20.9759 8.17999L22.0983 7.05758C22.1849 6.971 22.3581 6.971 22.4446 7.05758L23.567 8.17999C23.8546 8.46755 24.371 8.06558 24.0556 7.69145L22.9332 6.56904C22.8466 6.48246 22.8466 6.30931 22.9332 6.22273L24.0556 5.10032C24.371 4.78493 23.8824 4.29639 23.567 4.61178L22.4446 5.73419C22.3581 5.84859 22.1849 5.84859 22.0983 5.73419L20.9759 4.61178C20.6574 4.2933 20.1689 4.78184 20.4874 5.10032ZM14.3899 5.93208C17.0923 5.93208 19.3062 8.14597 19.3062 10.8793C19.3062 12.4594 18.5301 13.8972 17.352 14.7908L16.9779 16.8315C16.7769 18.1827 15.7689 19.2185 14.3899 19.2185C12.9799 19.2185 11.975 18.1827 11.774 16.8315L11.3999 14.7908C10.2218 13.9002 9.44572 12.4625 9.44572 10.8793C9.44572 8.14597 11.6596 5.93208 14.3899 5.93208ZM12.1172 15.8822C13.4963 16.6862 15.2526 16.6862 16.6316 15.8822L16.746 15.1927C16.0565 15.5669 15.2495 15.7957 14.3868 15.7957C13.4963 15.7957 12.6893 15.5669 11.9997 15.1927L12.1172 15.8822ZM16.5172 16.5161C15.166 17.15 13.5829 17.15 12.2316 16.5161C12.2595 16.7171 12.2904 16.9459 12.3739 17.1778C13.6107 17.8117 15.1351 17.8117 16.3719 17.1778C16.4615 16.9459 16.4894 16.7171 16.5172 16.5161ZM16.0287 17.8673C14.965 18.2693 13.7869 18.2693 12.7233 17.8673C13.0974 18.3837 13.6725 18.7022 14.3899 18.7022C15.0794 18.6991 15.6545 18.3837 16.0287 17.8673ZM14.3899 6.45154C11.9472 6.45154 9.96209 8.43663 9.96209 10.8793C9.96209 13.2942 11.9472 15.2793 14.3899 15.2793C16.8048 15.2793 18.7898 13.2942 18.7898 10.8793C18.7898 8.43353 16.8048 6.45154 14.3899 6.45154ZM13.4406 24.1936H15.3082L15.537 22.4961C15.5649 22.3817 15.6236 22.2951 15.738 22.2673C16.2544 22.1251 16.8882 21.8066 16.947 21.7787C17.0336 21.72 17.148 21.7509 17.2346 21.8066L18.5858 22.8424L19.9092 21.519L18.8733 20.14C18.8146 20.0812 18.7868 19.939 18.8455 19.8524C19.0743 19.4783 19.2475 19.0763 19.3619 18.6743C19.3897 18.5599 19.4763 18.4734 19.5629 18.4734L21.2604 18.2446V16.8593C20.0823 17.0881 18.8733 17.2335 17.6674 17.32C17.6396 19.132 16.1709 20.5976 14.3899 20.5976C12.5779 20.5976 11.1123 19.132 11.0845 17.32C9.87551 17.2335 8.66962 17.0912 7.49155 16.8593V18.2384L9.18908 18.4672C9.27566 18.4672 9.39006 18.5538 9.41789 18.6682C9.5323 19.0701 9.67762 19.4721 9.90643 19.8462C9.99301 19.9328 9.93426 20.075 9.8786 20.1338L8.84277 21.5128L10.1662 22.8362L11.5174 21.8004C11.604 21.7416 11.7184 21.7138 11.8328 21.7726C11.8915 21.8004 12.4945 22.1189 13.0108 22.2611C13.1252 22.2889 13.184 22.3755 13.2118 22.4899L13.4406 24.1936ZM15.5401 24.71H13.2118C13.0665 24.71 12.983 24.5956 12.9521 24.4812L12.7233 22.728C12.377 22.6136 12.0338 22.4683 11.7184 22.2951L10.3084 23.3866C10.194 23.4732 10.0487 23.4454 9.96209 23.3588L8.32331 21.72C8.23673 21.6334 8.20891 21.4603 8.32331 21.3737L9.38697 19.9637C9.21382 19.6483 9.07158 19.302 8.95718 18.9588L7.20399 18.73C7.08959 18.7022 6.97518 18.6156 6.97518 18.4703V16.5718C6.97518 16.3986 7.12051 16.2842 7.29057 16.312C8.64179 16.5718 9.99301 16.7418 11.3751 16.8284C11.5174 16.8562 11.6349 16.9706 11.604 17.116C11.5174 18.7269 12.7542 20.0781 14.393 20.0781C16.0039 20.0781 17.2407 18.7269 17.1542 17.116C17.1542 16.9737 17.2407 16.8562 17.383 16.8284C18.762 16.7418 20.1132 16.5687 21.4675 16.312C21.6407 16.2842 21.7829 16.3986 21.7829 16.5718V18.4703C21.7829 18.6156 21.6685 18.6991 21.5541 18.73L19.8009 18.9588C19.6865 19.3051 19.5412 19.6483 19.3711 19.9637L20.4626 21.3737C20.5492 21.4603 20.5492 21.6334 20.4348 21.72L18.796 23.3588C18.7095 23.4454 18.5672 23.4732 18.4497 23.3866L17.0398 22.2951C16.7244 22.4683 16.3781 22.6105 16.0348 22.728L15.806 24.4812C15.7998 24.5956 15.6854 24.71 15.5401 24.71ZM16.2606 9.46936L14.0467 11.8564C13.9323 11.943 13.7869 11.943 13.7004 11.8564L12.377 10.6196C12.0307 10.3042 11.5421 10.8206 11.8884 11.136L13.6416 12.7747C13.7838 12.917 14.0157 12.917 14.1301 12.7747L16.7769 9.95791C17.0923 9.64252 16.5759 9.15398 16.2606 9.46936Z" fill="#FF3231"/>
</g>
</g>
<defs>
<clipPath id="clip0_200_9685">
<rect width="27.5601" height="27.5601" fill="white" transform="translate(0.202148 0.300781)"/>
</clipPath>
<clipPath id="clip1_200_9685">
<rect width="27.5601" height="27.5601" fill="white" transform="translate(0.202148 0.300781)"/>
</clipPath>
</defs>
</svg>
