<svg width="29" height="29" viewBox="0 0 29 29" fill="none" xmlns="http://www.w3.org/2000/svg">
<g clip-path="url(#clip0_200_9699)">
<g clip-path="url(#clip1_200_9699)">
<path d="M15.0428 21.0035C15.0686 21.0035 15.0915 21.0006 15.1163 20.993C15.8033 20.7869 16.2813 20.1457 16.2813 19.4282C16.2813 18.7365 15.872 18.2022 15.1316 17.9245C15.0524 17.8968 14.9665 17.9064 14.8978 17.955C14.8291 18.0037 14.7881 18.08 14.7881 18.164V20.7487C14.7881 20.8298 14.8263 20.9042 14.8902 20.952C14.936 20.9882 14.9894 21.0035 15.0428 21.0035ZM15.2976 18.5733C15.6134 18.7794 15.7737 19.0666 15.7737 19.4311C15.7737 19.8003 15.5876 20.1409 15.2976 20.347V18.5733Z" fill="#FF3231"/>
<path d="M14.1654 17.3855C14.1931 17.396 14.2236 17.4008 14.2541 17.4008C14.3047 17.4008 14.3562 17.3855 14.3992 17.355C14.4679 17.3064 14.5089 17.23 14.5089 17.1461V14.5643C14.5089 14.4832 14.4707 14.4087 14.4068 14.361C14.3429 14.3124 14.2589 14.2971 14.1826 14.32C13.4956 14.5261 13.0176 15.1673 13.0176 15.8848C13.0157 16.5765 13.425 17.1108 14.1654 17.3855ZM14.0003 14.9659V16.7396C13.6845 16.5335 13.5242 16.2463 13.5242 15.8819C13.5242 15.5155 13.7103 15.1749 14.0003 14.9659Z" fill="#FF3231"/>
<path d="M14.0003 12.9276V13.5507C12.9622 13.8379 12.2266 14.7872 12.2266 15.8816C12.2266 17.3748 13.4126 17.9654 14.0003 18.1639V20.3441C13.7102 20.1351 13.5242 19.7974 13.5242 19.4281V19.0341C13.5242 18.8938 13.4097 18.7793 13.2694 18.7793H12.4803C12.3401 18.7793 12.2256 18.8938 12.2256 19.0341V19.4281C12.2256 20.5225 12.9584 21.4709 13.9993 21.7591V22.3821C13.9993 22.5224 14.1138 22.6369 14.2541 22.6369H15.0431C15.1834 22.6369 15.2979 22.5224 15.2979 22.3821V21.7591C16.336 21.4719 17.0716 20.5225 17.0716 19.4281C17.0716 17.9349 15.8856 17.3443 15.2979 17.1458V14.9656C15.588 15.1746 15.774 15.5124 15.774 15.8816V16.2757C15.774 16.4159 15.8885 16.5304 16.0288 16.5304H16.8178C16.9581 16.5304 17.0726 16.4159 17.0726 16.2757V15.8816C17.0726 14.7872 16.3398 13.8388 15.2989 13.5507V12.9276C15.2989 12.7874 15.1844 12.6729 15.0441 12.6729H14.255C14.1148 12.6729 14.0003 12.7873 14.0003 12.9276ZM14.5088 13.7548V13.1852H14.7884V13.7548C14.7884 13.877 14.8752 13.9838 14.9973 14.0039C15.9028 14.1718 16.5621 14.9609 16.5621 15.8816V16.0218H16.2825V15.8816C16.2825 15.1669 15.8045 14.5229 15.1176 14.3168C15.0412 14.2939 14.9573 14.3092 14.8933 14.3579C14.8294 14.4065 14.7912 14.4828 14.7912 14.5611V17.3346C14.7912 17.4491 14.8676 17.5512 14.9792 17.5817C15.3504 17.681 16.564 18.1113 16.564 19.4289C16.564 20.3496 15.9047 21.1416 14.9993 21.3066C14.88 21.3295 14.7903 21.4335 14.7903 21.5557V22.1282H14.5108V21.5557C14.5108 21.4335 14.4239 21.3267 14.3018 21.3066C13.3963 21.1387 12.737 20.3496 12.737 19.4289V19.2887H13.0166V19.4289C13.0166 20.1436 13.4946 20.7876 14.1816 20.9937C14.2579 21.0166 14.3419 21.0013 14.4058 20.9527C14.4697 20.904 14.5079 20.8277 14.5079 20.7494V17.9759C14.5079 17.8614 14.4316 17.7593 14.3199 17.7288C13.9488 17.6295 12.7351 17.1992 12.7351 15.8816C12.7351 14.9609 13.3944 14.1689 14.2999 14.0039C14.423 13.981 14.5088 13.877 14.5088 13.7548Z" fill="#FF3231"/>
<path d="M23.05 4.00179C22.8544 3.99988 18.2364 3.92546 16.5066 4.97881C15.6593 5.495 15.0029 6.21536 14.6489 7.0092C14.2978 6.21536 13.6385 5.495 12.7912 4.97881C11.0614 3.92546 6.44345 3.99988 6.2478 4.00179C6.16097 4.00465 6.07987 4.05045 6.03693 4.12391C5.99114 4.19738 5.98827 4.29184 6.02644 4.36817C6.11326 4.54373 8.16369 8.6837 9.89351 9.73694C10.6902 10.2226 11.5499 10.4592 12.3285 10.4592C13.1709 10.4592 13.919 10.1797 14.397 9.6396V10.6061C10.6262 10.7407 7.59887 13.8501 7.59887 17.6542C7.596 21.5452 10.7591 24.71 14.6489 24.71C18.5386 24.71 21.7018 21.5452 21.7018 17.6571C21.7018 13.853 18.6742 10.7444 14.9036 10.6091V9.64253C15.3816 10.1845 16.1297 10.4621 16.9722 10.4621C17.7507 10.4621 18.6104 10.2255 19.4071 9.73987C21.1369 8.68651 23.1882 4.54648 23.2742 4.3711C23.3124 4.29191 23.3076 4.20031 23.2637 4.12685C23.2179 4.05051 23.1368 4.00465 23.05 4.00179ZM14.2902 8.85932L12.8781 7.9968L12.9773 6.83182C12.9897 6.69156 12.8857 6.56944 12.7455 6.55703C12.6004 6.54176 12.4812 6.64863 12.4707 6.78888L12.3944 7.70199L11.6081 7.22398L11.7074 6.05899C11.7198 5.91874 11.6158 5.79661 11.4755 5.78421C11.3305 5.76894 11.2112 5.8758 11.2007 6.01606L11.1215 6.92916L10.3353 6.45115L10.4346 5.28617C10.447 5.14591 10.343 5.02379 10.2027 5.01138C10.0577 4.99612 9.93841 5.10298 9.92791 5.24324L9.85158 6.15634L8.42419 5.28618C8.30492 5.21271 8.14654 5.25087 8.07593 5.37014C8.00437 5.4894 8.04063 5.64779 8.15989 5.7184L9.57199 6.57806L8.82681 7.04655C8.70754 7.12001 8.67129 7.2784 8.74762 7.39767C8.79628 7.474 8.87738 7.51693 8.9642 7.51693C9.01 7.51693 9.05866 7.50453 9.09874 7.47877L10.0576 6.87575L10.8439 7.35376L10.0987 7.82224C9.97941 7.89571 9.94315 8.05409 10.0195 8.17336C10.0681 8.24969 10.1492 8.29262 10.2361 8.29262C10.2819 8.29262 10.3305 8.28022 10.3706 8.25446L11.3295 7.65144L12.1157 8.12945L11.3705 8.59793C11.2513 8.6714 11.215 8.82979 11.2913 8.94905C11.34 9.02538 11.4211 9.06832 11.5079 9.06832C11.5537 9.06832 11.6024 9.05591 11.6425 9.03015L12.6014 8.42713L14.0288 9.2973C13.2779 10.1722 11.6139 10.1951 10.1588 9.30779C8.83825 8.50346 7.21521 5.55528 6.67052 4.51425C7.84315 4.52189 11.2093 4.61348 12.5298 5.41781C13.3007 5.8882 13.8932 6.53987 14.2014 7.24973C14.3035 7.48349 14.3646 7.71248 14.3951 7.93671C14.375 8.12467 14.375 8.30595 14.3951 8.48343C14.3741 8.61223 14.3389 8.73719 14.2902 8.85932ZM21.1934 17.6555C21.1934 21.2659 18.2567 24.2018 14.649 24.2018C11.0413 24.2018 8.10464 21.2659 8.10464 17.6555C8.10464 14.0478 11.0386 11.1141 14.6461 11.1111H14.6489H14.6518C18.2595 11.114 21.1934 14.0498 21.1934 17.6555ZM19.142 9.30485C17.687 10.1931 16.0229 10.1674 15.272 9.29435L16.6994 8.42418L17.6583 9.02721C17.7012 9.05297 17.747 9.06537 17.7928 9.06537C17.8768 9.06537 17.9608 9.02244 18.0094 8.94611C18.0829 8.82684 18.0476 8.67132 17.9302 8.59499L17.185 8.1265L17.9713 7.64849L18.9302 8.25151C18.9731 8.27727 19.0189 8.28968 19.0647 8.28968C19.1487 8.28968 19.2326 8.24674 19.2813 8.17041C19.3548 8.05115 19.3195 7.89562 19.2021 7.81929L18.4569 7.35081L19.2431 6.8728L20.202 7.47582C20.245 7.50158 20.2908 7.51398 20.3366 7.51398C20.4205 7.51398 20.5045 7.47105 20.5532 7.39472C20.6266 7.27545 20.5913 7.11993 20.474 7.0436L19.7288 6.57511L21.1409 5.71545C21.2601 5.64198 21.2983 5.48646 21.2248 5.36719C21.1514 5.24792 20.9958 5.20976 20.8766 5.28323L19.4492 6.15339L19.3729 5.24029C19.3605 5.10003 19.2402 4.99317 19.0981 5.00843C18.9578 5.02084 18.8538 5.14297 18.8662 5.28322L18.9654 6.44821L18.1792 6.92622L18.1 6.01311C18.0876 5.87285 17.9674 5.766 17.8253 5.78126C17.685 5.79366 17.581 5.91579 17.5934 6.05605L17.6926 7.22103L16.9064 7.69904L16.8301 6.78593C16.8177 6.64568 16.6975 6.53882 16.5553 6.55408C16.415 6.56648 16.311 6.68861 16.3234 6.82887L16.4227 7.99385L15.0106 8.85637C14.9619 8.73711 14.9266 8.60926 14.9066 8.47758C14.9266 8.29916 14.9295 8.11596 14.9066 7.93086C14.9371 7.7095 14.9982 7.47764 15.1003 7.24389C15.4084 6.53115 16.001 5.88045 16.7719 5.41196C18.0924 4.60762 21.4587 4.51603 22.6311 4.50841C22.0863 5.54936 20.4625 8.50051 19.142 9.30485Z" fill="#FF3231"/>
<path d="M8.70801 17.6561C8.70801 20.9336 11.3748 23.5994 14.6493 23.5994C17.9238 23.5994 20.5906 20.9326 20.5906 17.6561C20.5906 14.3787 17.9267 11.7148 14.6493 11.7148C11.3719 11.7148 8.70801 14.3816 8.70801 17.6561ZM20.0811 17.6561C20.0811 20.6532 17.6433 23.0909 14.6493 23.0909C11.6542 23.0909 9.21753 20.6531 9.21753 17.6561C9.21753 14.6584 11.6525 12.2234 14.6493 12.2234C17.6461 12.2234 20.0811 14.6612 20.0811 17.6561Z" fill="#FF3231"/>
</g>
</g>
<defs>
<clipPath id="clip0_200_9699">
<rect width="27.5601" height="27.5601" fill="white" transform="translate(0.896484 0.510742)"/>
</clipPath>
<clipPath id="clip1_200_9699">
<rect width="27.5601" height="27.5601" fill="white" transform="translate(0.896484 0.510742)"/>
</clipPath>
</defs>
</svg>
