<svg width="28" height="29" viewBox="0 0 28 29" fill="none" xmlns="http://www.w3.org/2000/svg">
<g clip-path="url(#clip0_200_9665)">
<path d="M17.3424 8.73702H11.0599C10.8813 8.73702 10.7363 8.59208 10.7363 8.41343C10.7363 8.23479 10.8813 8.08984 11.0599 8.08984H17.3423C17.5209 8.08984 17.6659 8.23479 17.6659 8.41343C17.6659 8.59208 17.5211 8.73702 17.3424 8.73702Z" fill="#FF3231"/>
<path d="M16.6292 19.6286H11.7744C11.6641 19.6286 11.5615 19.5725 11.5021 19.4797C10.4439 17.8295 9.81873 15.9179 9.69415 13.9517C9.57051 12.0001 9.94169 10.0375 10.7677 8.27594C11.3389 7.05722 12.1155 5.95229 13.0758 4.99204L13.9731 4.09475C14.0994 3.96842 14.3044 3.96842 14.4307 4.09475L15.328 4.99204C16.2882 5.95229 17.0647 7.05708 17.6361 8.27594C18.462 10.0375 18.8333 12.0002 18.7096 13.9517C18.5851 15.9181 17.96 17.8295 16.9018 19.4797C16.8421 19.5723 16.7395 19.6286 16.6292 19.6286ZM11.9531 18.9814H16.4506C18.379 15.8616 18.6118 11.8817 17.05 8.55045C16.5107 7.39982 15.7772 6.35651 14.8702 5.44952L14.2018 4.78103L13.5333 5.44952C12.6263 6.35651 11.8928 7.39982 11.3535 8.55045C9.7919 11.8815 10.0247 15.8614 11.9531 18.9814Z" fill="#FF3231"/>
<path d="M14.2008 13.2532C13.355 13.2532 12.667 12.5651 12.667 11.7194C12.667 10.8736 13.355 10.1855 14.2008 10.1855C15.0466 10.1855 15.7346 10.8736 15.7346 11.7194C15.7346 12.565 15.0466 13.2532 14.2008 13.2532ZM14.2008 10.8327C13.7119 10.8327 13.3142 11.2305 13.3142 11.7194C13.3142 12.2083 13.7119 12.606 14.2008 12.606C14.6897 12.606 15.0874 12.2083 15.0874 11.7194C15.0874 11.2305 14.6897 10.8327 14.2008 10.8327Z" fill="#FF3231"/>
<path d="M15.0985 15.029H13.3041C13.1254 15.029 12.9805 14.8841 12.9805 14.7054C12.9805 14.5268 13.1254 14.3818 13.3041 14.3818H15.0985C15.2771 14.3818 15.4221 14.5268 15.4221 14.7054C15.4221 14.8841 15.2773 15.029 15.0985 15.029Z" fill="#FF3231"/>
<path d="M15.0985 16.28H13.3041C13.1254 16.28 12.9805 16.1351 12.9805 15.9564C12.9805 15.7778 13.1254 15.6328 13.3041 15.6328H15.0985C15.2771 15.6328 15.4221 15.7778 15.4221 15.9564C15.4221 16.1351 15.2773 16.28 15.0985 16.28Z" fill="#FF3231"/>
<path d="M15.0985 17.5319H13.3041C13.1254 17.5319 12.9805 17.387 12.9805 17.2084C12.9805 17.0297 13.1254 16.8848 13.3041 16.8848H15.0985C15.2771 16.8848 15.4221 17.0297 15.4221 17.2084C15.4221 17.387 15.2773 17.5319 15.0985 17.5319Z" fill="#FF3231"/>
<path d="M19.6481 19.8123C19.5917 19.8123 19.5359 19.7976 19.4863 19.7689L17.1267 18.4066C16.9719 18.3172 16.9189 18.1192 17.0083 17.9646C17.0977 17.8098 17.2956 17.7568 17.4503 17.8462L19.514 19.0377C19.6726 18.6742 19.7556 18.2814 19.7556 17.8852C19.7556 16.8544 19.2017 15.8941 18.3102 15.3794L18.1088 15.2631C17.954 15.1738 17.901 14.9758 17.9904 14.821C18.0798 14.6663 18.2776 14.6133 18.4324 14.7025L18.6338 14.8189C19.1815 15.1351 19.6345 15.5919 19.9439 16.1397C20.2442 16.6712 20.4027 17.2748 20.4027 17.885C20.4027 18.5023 20.2387 19.1128 19.9284 19.6504C19.857 19.7574 19.7635 19.8113 19.6481 19.8123Z" fill="#FF3231"/>
<path d="M8.7545 19.8122C8.63909 19.8113 8.54579 19.7573 8.47433 19.6504C8.16395 19.1129 8 18.5023 8 17.8851C8 17.2747 8.15869 16.6712 8.45882 16.1397C8.76826 15.5919 9.22128 15.1351 9.76896 14.8189L9.97039 14.7026C10.1252 14.6132 10.3231 14.6663 10.4124 14.8211C10.5016 14.9759 10.4486 15.1738 10.294 15.2632L10.0925 15.3794C9.20106 15.8942 8.64718 16.8543 8.64718 17.8852C8.64718 18.2814 8.7301 18.6743 8.88879 19.0377L10.9525 17.8463C11.1073 17.7569 11.3052 17.8099 11.3946 17.9646C11.484 18.1194 11.4309 18.3174 11.2762 18.4066L8.91657 19.7689C8.86668 19.7975 8.81073 19.8122 8.7545 19.8122Z" fill="#FF3231"/>
<path d="M15.5504 22.2872H12.8518C12.6861 22.2872 12.5472 22.1621 12.5299 21.9973L12.2518 19.3388C12.2332 19.1611 12.3622 19.0018 12.5399 18.9832C12.7176 18.9648 12.8769 19.0937 12.8955 19.2714L13.1433 21.64H15.2589L15.5067 19.2714C15.5253 19.0937 15.6844 18.9646 15.8622 18.9832C16.0399 19.0018 16.169 19.1609 16.1504 19.3388L15.8722 21.9973C15.855 22.162 15.7161 22.2872 15.5504 22.2872Z" fill="#FF3231"/>
<path d="M14.2018 24.7106C14.119 24.7106 14.0362 24.6791 13.973 24.6158L13.5972 24.2401C13.3107 23.9536 13.1054 23.5959 13.0036 23.2057C12.9049 22.8273 12.905 22.4276 13.0041 22.0494C13.0494 21.8765 13.2263 21.7731 13.3992 21.8183C13.572 21.8636 13.6756 22.0403 13.6303 22.2133C13.4837 22.7727 13.6465 23.3741 14.055 23.7825L14.202 23.9294L14.3489 23.7825C14.7573 23.3741 14.9201 22.7727 14.7736 22.2133C14.7283 22.0405 14.8317 21.8636 15.0047 21.8183C15.1777 21.773 15.3545 21.8764 15.3998 22.0494C15.4989 22.4276 15.499 22.8275 15.4003 23.2057C15.2985 23.5959 15.0933 23.9534 14.8067 24.2401L14.4309 24.6158C14.3674 24.6791 14.2846 24.7106 14.2018 24.7106Z" fill="#FF3231"/>
</g>
<defs>
<clipPath id="clip0_200_9665">
<rect width="27.5601" height="27.5601" fill="white" transform="translate(0.411133 0.586914)"/>
</clipPath>
</defs>
</svg>
