<svg width="29" height="29" viewBox="0 0 29 29" fill="none" xmlns="http://www.w3.org/2000/svg">
<g clip-path="url(#clip0_200_9692)">
<g clip-path="url(#clip1_200_9692)">
<path d="M23.7143 14.5615C23.6087 14.5615 23.5074 14.6035 23.4327 14.6782C23.358 14.7529 23.3161 14.8542 23.3161 14.9598C23.3161 15.0654 23.358 15.1667 23.4327 15.2414C23.5074 15.3161 23.6087 15.3581 23.7143 15.3581C23.7671 15.3581 23.8178 15.379 23.8551 15.4164C23.8925 15.4537 23.9135 15.5044 23.9135 15.5572V22.3278C23.9135 22.3806 23.8925 22.4312 23.8551 22.4686C23.8178 22.5059 23.7671 22.5269 23.7143 22.5269H4.99567C4.94286 22.5269 4.89221 22.5059 4.85486 22.4686C4.81752 22.4312 4.79654 22.3806 4.79654 22.3278V15.5572C4.79654 15.5044 4.81752 15.4537 4.85486 15.4164C4.89221 15.379 4.94286 15.3581 4.99567 15.3581C5.1013 15.3581 5.2026 15.3161 5.27729 15.2414C5.35198 15.1667 5.39394 15.0654 5.39394 14.9598C5.39394 14.8542 5.35198 14.7529 5.27729 14.6782C5.2026 14.6035 5.1013 14.5615 4.99567 14.5615C4.7316 14.5615 4.47835 14.6664 4.29163 14.8531C4.1049 15.0399 4 15.2931 4 15.5572V22.3278C4 22.5918 4.1049 22.8451 4.29163 23.0318C4.47835 23.2185 4.7316 23.3234 4.99567 23.3234H23.7143C23.9784 23.3234 24.2316 23.2185 24.4184 23.0318C24.6051 22.8451 24.71 22.5918 24.71 22.3278V15.5572C24.71 15.2931 24.6051 15.0399 24.4184 14.8531C24.2316 14.6664 23.9784 14.5615 23.7143 14.5615Z" fill="#FF3231"/>
<path d="M6.78702 18.5435C6.68139 18.5435 6.58009 18.5855 6.5054 18.6602C6.43071 18.7349 6.38875 18.8362 6.38875 18.9418C6.38875 19.0474 6.43071 19.1487 6.5054 19.2234C6.58009 19.2981 6.68139 19.3401 6.78702 19.3401H21.9212C22.0269 19.3401 22.1282 19.2981 22.2029 19.2234C22.2776 19.1487 22.3195 19.0474 22.3195 18.9418C22.3195 18.8362 22.2776 18.7349 22.2029 18.6602C22.1282 18.5855 22.0269 18.5435 21.9212 18.5435H20.3979C21.4454 17.3759 22.1323 15.9298 22.3756 14.3801C22.6189 12.8304 22.4081 11.2435 21.7688 9.81098C21.1294 8.3785 20.0889 7.16186 18.7729 6.3081C17.4569 5.45434 15.9218 5 14.3531 5C12.7845 5 11.2494 5.45434 9.93338 6.3081C8.61739 7.16186 7.57684 8.3785 6.9375 9.81098C6.29817 11.2435 6.0874 12.8304 6.33068 14.3801C6.57396 15.9298 7.26088 17.3759 8.3084 18.5435H6.78702ZM7.02996 13.1231C7.0295 11.9035 7.33358 10.7032 7.91461 9.63089C8.49565 8.55863 9.33524 7.64843 10.3572 6.98289C11.3792 6.31735 12.5511 5.91754 13.7668 5.81974C14.9824 5.72193 16.2032 5.92924 17.3184 6.42283C18.4337 6.91643 19.408 7.68069 20.153 8.64627C20.8979 9.61185 21.39 10.7482 21.5845 11.9521C21.7791 13.1561 21.6699 14.3896 21.2668 15.5406C20.8638 16.6917 20.1798 17.7239 19.2767 18.5435H9.43152C8.67582 17.8571 8.07184 17.0204 7.65829 16.087C7.24473 15.1535 7.03072 14.144 7.02996 13.1231Z" fill="#FF3231"/>
<path d="M18.1806 12.926L14.636 9.38339C14.5614 9.30921 14.4605 9.26758 14.3553 9.26758C14.2501 9.26758 14.1491 9.30921 14.0745 9.38339L10.5299 12.926C10.4929 12.963 10.4635 13.0069 10.4434 13.0553C10.4234 13.1036 10.4131 13.1554 10.4131 13.2078C10.4131 13.2601 10.4234 13.3119 10.4434 13.3603C10.4635 13.4086 10.4929 13.4526 10.5299 13.4895L14.0745 17.0322C14.1491 17.1063 14.2501 17.148 14.3553 17.148C14.4605 17.148 14.5614 17.1063 14.636 17.0322L18.1806 13.4895C18.2177 13.4526 18.2471 13.4086 18.2671 13.3603C18.2871 13.3119 18.2975 13.2601 18.2975 13.2078C18.2975 13.1554 18.2871 13.1036 18.2671 13.0553C18.2471 13.0069 18.2177 12.963 18.1806 12.926ZM14.3553 16.1878L11.3682 13.2008L14.3553 10.2138L17.3423 13.2008L14.3553 16.1878Z" fill="#FF3231"/>
</g>
</g>
<defs>
<clipPath id="clip0_200_9692">
<rect width="27.5601" height="27.5601" fill="white" transform="translate(0.466797 0.510742)"/>
</clipPath>
<clipPath id="clip1_200_9692">
<rect width="27.5601" height="27.5601" fill="white" transform="translate(0.466797 0.510742)"/>
</clipPath>
</defs>
</svg>
