<svg width="29" height="28" viewBox="0 0 29 28" fill="none" xmlns="http://www.w3.org/2000/svg">
<g clip-path="url(#clip0_200_9678)">
<g clip-path="url(#clip1_200_9678)">
<path d="M18.6133 20.539C18.5366 20.407 18.5835 20.2323 18.7156 20.1556C18.8476 20.0789 19.0223 20.1215 19.099 20.2578L19.7807 21.4422L22.2347 18.9882C22.3455 18.8775 22.5244 18.8775 22.6352 18.9882C22.7459 19.099 22.7459 19.2779 22.6352 19.3887L19.9213 22.1026C19.7934 22.2347 19.5719 22.2049 19.4782 22.043L18.6133 20.539ZM20.6498 16.6919C21.0247 16.6919 21.3911 16.743 21.7362 16.841C21.8342 16.5726 21.9194 16.2999 21.9876 16.0187C22.077 15.6651 22.1452 15.2987 22.1836 14.9323C22.1921 14.7832 22.3156 14.6639 22.4647 14.6639H23.4446V13.3474H22.469C22.3284 13.3474 22.2049 13.2409 22.1878 13.096C22.0983 12.2738 21.8768 11.4515 21.5488 10.7017C21.4934 10.5739 21.5402 10.4205 21.668 10.3481L22.5116 9.85811L21.8512 8.71631L21.0162 9.19348C20.8926 9.27869 20.7222 9.24886 20.6328 9.12531C20.1513 8.4692 19.5378 7.8557 18.8817 7.37427C18.7667 7.28906 18.7326 7.13142 18.805 7.00787L19.295 6.1643L18.1532 5.50394L17.6718 6.33472C17.6036 6.46679 17.4459 6.52644 17.3096 6.46679C16.9347 6.30064 16.5427 6.1643 16.1337 6.05353C15.7418 5.95128 15.3413 5.87033 14.928 5.82773C14.7789 5.82347 14.6596 5.69566 14.6596 5.54654V4.56238H13.3431V5.53802C13.3431 5.67861 13.2366 5.80217 13.0918 5.81921C12.2695 5.90868 11.4472 6.13022 10.6974 6.45827C10.5653 6.51366 10.412 6.46679 10.3395 6.34324L9.85384 5.49967L8.71205 6.16004L9.19348 6.99083C9.27442 7.11438 9.2446 7.2848 9.12531 7.37427C8.46494 7.85996 7.85996 8.46494 7.37427 9.12531C7.28906 9.24034 7.13568 9.27443 7.00787 9.202L6.16004 8.71205L5.49967 9.85384L6.33046 10.3353C6.46253 10.4034 6.52218 10.5611 6.46253 10.6974C6.29638 11.0723 6.16004 11.4643 6.04927 11.869C5.94702 12.261 5.86607 12.6657 5.82347 13.0747C5.81921 13.2239 5.69139 13.3431 5.54228 13.3431H4.56238V14.6596H5.53802C5.67861 14.6596 5.80217 14.7661 5.81495 14.911C5.90442 15.7333 6.12596 16.5555 6.45827 17.3054C6.51366 17.4332 6.46679 17.5908 6.34324 17.659L5.49967 18.1489L6.15578 19.295L6.98657 18.8136C7.11012 18.7283 7.28054 18.7582 7.37001 18.8817C7.8557 19.5421 8.46068 20.1471 9.12105 20.6328C9.23608 20.718 9.27016 20.8713 9.19774 20.9992L8.71205 21.8512L9.85384 22.5116L10.3353 21.6766C10.4034 21.5445 10.5611 21.4848 10.6974 21.5488C11.0723 21.7149 11.4643 21.8512 11.869 21.9578C12.261 22.0643 12.6657 22.141 13.0747 22.1836C13.2239 22.1921 13.3431 22.3156 13.3431 22.4647V23.4404H14.6596V22.4647C14.6596 22.3242 14.7661 22.2006 14.911 22.1836C15.5458 22.1154 16.1806 21.9663 16.7771 21.7533C16.662 21.3315 16.6152 20.8926 16.645 20.4453C14.0419 21.5147 11.0553 20.9054 9.07418 18.9243C6.35176 16.2062 6.35176 11.7923 9.07418 9.07418C11.7923 6.35602 16.2062 6.35602 18.9243 9.07418C20.9182 11.0681 21.5189 14.0759 20.424 16.6919C20.5007 16.6919 20.5731 16.6919 20.6498 16.6919ZM22.2645 17.0327C23.696 17.6632 24.6546 19.0862 24.6546 20.7009C24.6546 22.9121 22.861 24.71 20.6455 24.71C19.018 24.71 17.5908 23.7386 16.9645 22.2943C16.4021 22.4946 15.8185 22.6394 15.222 22.7246V23.7258C15.222 23.8835 15.0984 24.007 14.9408 24.007H13.0577C12.9001 24.007 12.7765 23.8835 12.7765 23.7258V22.7161C12.0608 22.6181 11.3663 22.4307 10.7017 22.1623L10.1989 23.0356C10.1223 23.172 9.95183 23.2188 9.8155 23.1379L8.18801 22.1963C8.05594 22.1197 8.00907 21.9492 8.08576 21.8129L8.58849 20.9352C8.01759 20.4879 7.51486 19.9852 7.06752 19.4143L6.18987 19.9213C6.05353 19.998 5.88311 19.9511 5.80643 19.819L4.86913 18.1915C4.78818 18.0509 4.83931 17.8805 4.98842 17.7996L5.84903 17.3011C5.58062 16.6365 5.39316 15.942 5.29517 15.2263H4.28119C4.12355 15.2263 4 15.0984 4 14.9451V13.0662C4 12.9086 4.12781 12.785 4.28119 12.785H5.29091C5.39316 12.0693 5.57636 11.3748 5.84477 10.7102L4.97138 10.2075C4.83505 10.1308 4.78818 9.9561 4.86913 9.82402L5.81069 8.19653C5.89164 8.0602 6.06631 8.01333 6.21117 8.1028L7.07178 8.60128C7.51486 8.03038 8.02186 7.52764 8.59275 7.0803L8.08576 6.20265C8.00907 6.07057 8.05594 5.90016 8.18801 5.81921L9.8155 4.87765C9.95183 4.7967 10.1265 4.84357 10.2075 4.99694L10.7059 5.84903C11.3706 5.58062 12.065 5.39316 12.7808 5.29517V4.28119C12.7808 4.12355 12.9086 4 13.062 4H14.9451C15.1027 4 15.2263 4.12781 15.2263 4.28119V5.29091C15.942 5.39316 16.6365 5.57636 17.3011 5.84477L17.8038 4.97138C17.8805 4.83505 18.0552 4.78818 18.1873 4.86913L19.8148 5.81069C19.9468 5.88737 19.9937 6.06205 19.917 6.19413L19.4143 7.07178C19.9852 7.51486 20.4879 8.02186 20.9352 8.59275L21.8129 8.09002C21.945 8.01333 22.1196 8.0602 22.1963 8.19227L23.1379 9.81976C23.2188 9.96036 23.172 10.1308 23.0229 10.2117L22.1623 10.7059C22.4307 11.3706 22.6181 12.065 22.7161 12.7808H23.7258C23.8835 12.7808 24.007 12.9086 24.007 13.062V14.9408C24.007 15.0984 23.8835 15.222 23.7258 15.222H22.7161C22.6309 15.8483 22.4775 16.449 22.2645 17.0327ZM16.743 19.7935C17.0881 18.298 18.2682 17.1264 19.7679 16.7898C20.9523 14.3401 20.4496 11.4004 18.5281 9.47893C16.0272 6.97805 11.9755 6.97805 9.47467 9.47893C6.97379 11.9798 6.97379 16.0315 9.47467 18.5324C11.3876 20.441 14.3017 20.948 16.743 19.7935ZM23.0825 18.264C22.4605 17.6419 21.5999 17.2542 20.6498 17.2542C18.7496 17.2542 17.2074 18.7965 17.2074 20.6967C17.2074 22.5968 18.7496 24.1391 20.6498 24.1391C22.55 24.1391 24.0922 22.5968 24.0922 20.6967C24.0922 19.7466 23.7045 18.886 23.0825 18.264ZM14.0035 13.0108C14.2677 13.0108 14.5105 13.1131 14.6852 13.2835L15.6054 12.7509C15.7418 12.6743 15.9122 12.7211 15.9889 12.8532C16.0656 12.9895 16.0187 13.1599 15.8866 13.2366L14.9664 13.7692C15.1155 14.3912 14.6468 14.9962 14.0035 14.9962C13.1344 14.9962 12.6828 13.9524 13.2835 13.3176L13.096 12.9938C13.0194 12.8617 13.062 12.687 13.1983 12.6103C13.3304 12.5337 13.505 12.5805 13.5817 12.7126L13.7692 13.0364C13.8459 13.0194 13.9226 13.0108 14.0035 13.0108ZM14.306 13.701C14.0376 13.4326 13.5732 13.6243 13.5732 14.0035C13.5732 14.3827 14.0376 14.5744 14.306 14.306C14.4722 14.1398 14.4722 13.8672 14.306 13.701ZM13.7223 10.4716C13.7223 10.3182 13.8501 10.1904 14.0035 10.1904C14.1611 10.1904 14.2847 10.3182 14.2847 10.4716V10.9616C14.2847 11.1192 14.1611 11.2427 14.0035 11.2427C13.8459 11.2427 13.7223 11.1149 13.7223 10.9616V10.4716ZM17.2031 15.5245C17.3352 15.6012 17.382 15.7759 17.3054 15.9079C17.2287 16.04 17.054 16.0869 16.9219 16.0102L16.5001 15.7673C16.3681 15.6906 16.3212 15.516 16.3979 15.3839C16.4746 15.2518 16.6492 15.205 16.7813 15.2816L17.2031 15.5245ZM17.5354 13.7223C17.6888 13.7223 17.8166 13.8459 17.8166 14.0035C17.8166 14.1569 17.6888 14.2847 17.5354 14.2847H17.0455C16.8921 14.2847 16.7643 14.1611 16.7643 14.0035C16.7643 13.8459 16.8878 13.7223 17.0455 13.7223H17.5354ZM16.9219 11.9968C17.0582 11.9202 17.2287 11.9628 17.3054 12.0991C17.382 12.2312 17.3352 12.4058 17.2031 12.4825L16.7813 12.7296C16.645 12.8063 16.4746 12.7595 16.3979 12.6274C16.3212 12.4953 16.3681 12.3206 16.5001 12.244L16.9219 11.9968ZM11.9926 11.0851C11.9159 10.953 11.9628 10.7784 12.0948 10.7017C12.2269 10.625 12.4016 10.6718 12.4783 10.8039L12.7254 11.23C12.8021 11.362 12.7552 11.5367 12.6231 11.6134C12.4911 11.6901 12.3164 11.6432 12.2397 11.5112L11.9926 11.0851ZM10.8039 12.4825C10.6676 12.4058 10.6207 12.2312 10.7017 12.0991C10.7784 11.9628 10.953 11.9202 11.0851 11.9968L11.5069 12.244C11.6432 12.3206 11.6901 12.4953 11.6091 12.6274C11.5325 12.7595 11.3578 12.8063 11.2257 12.7296L10.8039 12.4825ZM10.4716 14.2847C10.314 14.2847 10.1904 14.1611 10.1904 14.0035C10.1904 13.8459 10.3182 13.7223 10.4716 13.7223H10.9616C11.1192 13.7223 11.2427 13.8501 11.2427 14.0035C11.2427 14.1611 11.1149 14.2847 10.9616 14.2847H10.4716ZM11.0851 16.0144C10.953 16.0911 10.7784 16.0443 10.7017 15.9122C10.625 15.7759 10.6718 15.6054 10.8039 15.5288L11.2257 15.2816C11.3578 15.205 11.5325 15.2518 11.6091 15.3839C11.6858 15.516 11.639 15.6906 11.5069 15.7673L11.0851 16.0144ZM12.4825 17.2031C12.4058 17.3352 12.2312 17.382 12.0991 17.3054C11.967 17.2287 11.9202 17.054 11.9968 16.9219L12.244 16.5001C12.3206 16.3681 12.4953 16.3212 12.6274 16.3979C12.7637 16.4746 12.8063 16.6492 12.7296 16.7813L12.4825 17.2031ZM14.2847 17.5354C14.2847 17.6888 14.1611 17.8166 14.0035 17.8166C13.8459 17.8166 13.7223 17.6931 13.7223 17.5354V17.0455C13.7223 16.8921 13.8459 16.7643 14.0035 16.7643C14.1569 16.7643 14.2847 16.8921 14.2847 17.0455V17.5354ZM16.0102 16.9219C16.0869 17.0582 16.04 17.2287 15.9079 17.3054C15.7716 17.382 15.6012 17.3352 15.5245 17.2031L15.2816 16.7813C15.205 16.645 15.2518 16.4746 15.3839 16.3979C15.5202 16.3212 15.6906 16.3681 15.7673 16.5001L16.0102 16.9219ZM15.5245 10.8039C15.6012 10.6718 15.7759 10.625 15.9079 10.7017C16.04 10.7784 16.0869 10.953 16.0102 11.0851L15.7673 11.5069C15.6906 11.639 15.516 11.6858 15.3839 11.6091C15.2518 11.5325 15.205 11.3578 15.2816 11.2257L15.5245 10.8039ZM14.0035 9.1807C16.6663 9.1807 18.8263 11.3407 18.8263 14.0035C18.8263 16.6663 16.6663 18.8263 14.0035 18.8263C11.3407 18.8263 9.18069 16.6663 9.18069 14.0035C9.18069 11.3407 11.3407 9.1807 14.0035 9.1807ZM17.0156 10.9914C15.3541 9.32981 12.6572 9.32981 10.9914 10.9914C9.32981 12.653 9.32981 15.3498 10.9914 17.0156C12.653 18.6772 15.3498 18.6772 17.0156 17.0156C18.6772 15.3541 18.6772 12.6572 17.0156 10.9914Z" fill="#FF3231"/>
</g>
</g>
<defs>
<clipPath id="clip0_200_9678">
<rect width="27.5601" height="27.5601" fill="white" transform="translate(0.658203 0.300781)"/>
</clipPath>
<clipPath id="clip1_200_9678">
<rect width="27.5601" height="27.5601" fill="white" transform="translate(0.658203 0.300781)"/>
</clipPath>
</defs>
</svg>
