<svg width="30" height="30" viewBox="0 0 30 30" fill="none" xmlns="http://www.w3.org/2000/svg">
<path d="M17.1709 13L15.6709 10.5L14.1709 13V20.5L13.6709 22L14.6709 23.5H15.6709L16.6709 23L17.1709 22V20.5V15.5V13Z" fill="#FD1716"/>
<path fill-rule="evenodd" clip-rule="evenodd" d="M15.6045 7.13608C12.8459 7.13608 10.6011 9.38087 10.6011 12.1395C10.6011 13.7996 11.083 14.3862 11.6416 15.066C12.3165 15.8873 13.0815 16.8172 13.0815 19.696C13.0815 20.0917 13.4035 20.4145 13.8 20.4145H17.4091C17.8048 20.4145 18.1276 20.0926 18.1276 19.696C18.1276 16.817 18.8927 15.8871 19.5676 15.066C20.1261 14.3862 20.6081 13.8005 20.6081 12.1395C20.6081 9.37988 18.3632 7.13608 15.6045 7.13608ZM17.4091 20.8995H13.8C13.1367 20.8995 12.5966 20.3603 12.5966 19.6961C12.5966 16.9908 11.9207 16.1684 11.2662 15.3743C10.6747 14.6539 10.1152 13.9741 10.1152 12.1406C10.1152 9.11434 12.5772 6.65234 15.6035 6.65234C18.6297 6.65234 21.0917 9.11434 21.0917 12.1406C21.0917 13.9752 20.5322 14.6549 19.9407 15.3743C19.2872 16.1695 18.6103 16.9917 18.6103 19.6961C18.6103 20.3594 18.0702 20.8995 17.4069 20.8995H17.4091Z" fill="white"/>
<path fill-rule="evenodd" clip-rule="evenodd" d="M17.0503 22.4795H14.1588C13.8272 22.4795 13.5576 22.2099 13.5576 21.8783V20.6584C13.5576 20.5246 13.6662 20.416 13.8 20.416C13.9338 20.416 14.0424 20.5246 14.0424 20.6584V21.8783C14.0424 21.9413 14.0958 21.9946 14.1588 21.9946H17.0503C17.1133 21.9946 17.1666 21.9413 17.1666 21.8783V20.6584C17.1666 20.5246 17.2752 20.416 17.409 20.416C17.5428 20.416 17.6514 20.5246 17.6514 20.6584V21.8783C17.6514 22.2099 17.3819 22.4795 17.0503 22.4795Z" fill="white"/>
<path fill-rule="evenodd" clip-rule="evenodd" d="M15.6049 23.8326C14.7244 23.8326 14.0088 23.1161 14.0088 22.2366C14.0088 22.1027 14.1174 21.9941 14.2512 21.9941C14.385 21.9941 14.4936 22.1027 14.4936 22.2366C14.4936 22.8494 14.992 23.3478 15.6049 23.3478C16.2177 23.3478 16.7161 22.8494 16.7161 22.2366C16.7161 22.1027 16.8247 21.9941 16.9585 21.9941C17.0924 21.9941 17.201 22.1027 17.201 22.2366C17.201 23.1161 16.4853 23.8326 15.6049 23.8326Z" fill="white"/>
<path fill-rule="evenodd" clip-rule="evenodd" d="M13.7972 26.2529C12.6675 26.2529 11.7473 25.3337 11.7473 24.2031C11.7473 24.1381 11.7502 24.0722 11.757 24.0072C10.9047 23.7813 10.2793 23.0172 10.2356 22.1251C9.30377 21.9234 8.62499 21.0982 8.62499 20.1227C8.62499 19.954 8.64536 19.7891 8.68511 19.6282C7.90938 19.3237 7.38672 18.5722 7.38672 17.7208C7.38672 16.8617 7.93361 16.0937 8.72195 15.7999C8.65795 15.5992 8.62498 15.3898 8.62498 15.1745C8.62498 14.1292 9.40749 13.2536 10.446 13.1382C10.5789 13.1236 10.6991 13.2187 10.7136 13.3525C10.7282 13.4853 10.6322 13.6046 10.4993 13.6201C9.70712 13.7083 9.10979 14.3765 9.10979 15.1745C9.10979 15.412 9.16118 15.6399 9.263 15.8513C9.295 15.9182 9.295 15.9958 9.263 16.0627C9.231 16.1296 9.16991 16.1771 9.09719 16.1936C8.38738 16.3497 7.87152 16.9926 7.87152 17.7218C7.87152 18.4384 8.35538 19.0609 9.04774 19.2384C9.11464 19.2558 9.17185 19.3004 9.20288 19.3625C9.23488 19.4245 9.23876 19.4963 9.21355 19.5613C9.14373 19.7407 9.10882 19.9307 9.10882 20.1256C9.10882 20.9266 9.70809 21.5956 10.5042 21.6809C10.6331 21.6955 10.7282 21.807 10.7204 21.9369C10.7185 21.968 10.7175 21.999 10.7175 22.029C10.7175 22.8057 11.2964 23.4729 12.0644 23.5786C12.1313 23.5873 12.1914 23.6241 12.2302 23.6804C12.269 23.7357 12.2826 23.8045 12.268 23.8704C12.2438 23.98 12.2321 24.0935 12.2321 24.206C12.2321 25.069 12.9342 25.771 13.7972 25.771C14.6602 25.771 15.3622 25.069 15.3622 24.206V23.5941C15.3622 23.4603 15.4708 23.3517 15.6046 23.3517C15.7385 23.3517 15.8471 23.4603 15.8471 23.5941V24.206C15.8471 25.3356 14.9278 26.2558 13.7972 26.2558L13.7972 26.2529Z" fill="white"/>
<path fill-rule="evenodd" clip-rule="evenodd" d="M17.4122 26.2519C16.2825 26.2519 15.3623 25.3327 15.3623 24.2021C15.3623 24.0682 15.4709 23.9596 15.6047 23.9596C15.7385 23.9596 15.8471 24.0682 15.8471 24.2021C15.8471 25.0651 16.5492 25.7671 17.4122 25.7671C18.2752 25.7671 18.9772 25.0651 18.9772 24.2021C18.9772 24.0896 18.9646 23.9761 18.9414 23.8665C18.9268 23.8006 18.9404 23.7318 18.9792 23.6765C19.018 23.6212 19.0781 23.5844 19.145 23.5747C19.913 23.468 20.4919 22.8018 20.4919 22.0251C20.4919 21.9941 20.4909 21.9631 20.489 21.932C20.4812 21.8031 20.5762 21.6906 20.7052 21.677C21.5003 21.5917 22.1005 20.9226 22.1005 20.1217C22.1005 19.9268 22.0656 19.7377 21.9958 19.5574C21.9706 19.4924 21.9745 19.4206 22.0065 19.3586C22.0385 19.2965 22.0947 19.2519 22.1616 19.2345C22.854 19.058 23.3378 18.4345 23.3378 17.7179C23.3378 16.9897 22.823 16.3468 22.1122 16.1897C22.0395 16.1732 21.9784 16.1257 21.9464 16.0588C21.9144 15.9919 21.9134 15.9143 21.9464 15.8474C22.0482 15.6351 22.0996 15.4072 22.0996 15.1706C22.0996 14.3725 21.5023 13.7044 20.71 13.6162C20.5772 13.6007 20.4812 13.4814 20.4957 13.3486C20.5103 13.2148 20.6305 13.1197 20.7634 13.1343C21.8019 13.2497 22.5844 14.1253 22.5844 15.1706C22.5844 15.3858 22.5514 15.5953 22.4874 15.796C23.2758 16.0908 23.8226 16.8578 23.8226 17.7169C23.8226 18.5683 23.3 19.3198 22.5243 19.6243C22.564 19.7852 22.5844 19.951 22.5844 20.1188C22.5844 21.0943 21.9056 21.9195 20.9737 22.1212C20.9301 23.0133 20.3047 23.7774 19.4523 24.0033C19.4582 24.0683 19.462 24.1342 19.462 24.1992C19.462 25.3288 18.5428 26.249 17.4122 26.249L17.4122 26.2519Z" fill="white"/>
<path fill-rule="evenodd" clip-rule="evenodd" d="M12.0316 24.0574C11.9172 24.0574 11.8144 23.976 11.7931 23.8586C11.7689 23.7267 11.8561 23.6007 11.988 23.5765C12.2973 23.5202 12.6765 23.4019 12.7288 23.1624C12.7579 23.0325 12.8869 22.95 13.0178 22.9782C13.1487 23.0072 13.2311 23.1362 13.2021 23.2671C13.1138 23.6676 12.7337 23.9314 12.0743 24.0526C12.0598 24.0555 12.0452 24.0564 12.0307 24.0564L12.0316 24.0574Z" fill="white"/>
<path fill-rule="evenodd" clip-rule="evenodd" d="M8.98868 19.712C8.87425 19.712 8.77147 19.6305 8.75014 19.5132C8.72589 19.3813 8.81317 19.2553 8.94504 19.231C9.25437 19.1748 9.6335 19.0565 9.68587 18.817C9.71496 18.687 9.84393 18.6037 9.97484 18.6327C10.1057 18.6618 10.1882 18.7908 10.1591 18.9217C10.0708 19.3222 9.69074 19.5859 9.03135 19.7072C9.01681 19.7101 9.00226 19.711 8.98771 19.711L8.98868 19.712Z" fill="white"/>
<path fill-rule="evenodd" clip-rule="evenodd" d="M9.98008 16.7962C9.86857 16.7962 9.76869 16.7196 9.74348 16.6061C9.69015 16.3676 9.31101 16.2493 9.00168 16.1921C8.86981 16.1678 8.78254 16.0418 8.80678 15.9099C8.83102 15.778 8.95708 15.6907 9.08895 15.715C9.74831 15.8352 10.1275 16.0999 10.2167 16.5004C10.2458 16.6313 10.1633 16.7603 10.0324 16.7894C10.015 16.7933 9.99753 16.7952 9.98008 16.7952L9.98008 16.7962Z" fill="white"/>
<path fill-rule="evenodd" clip-rule="evenodd" d="M10.4789 22.1599C10.4644 22.1599 10.4498 22.1589 10.4353 22.156C10.3034 22.1317 10.2161 22.0047 10.2404 21.8738C10.3616 21.2144 10.6253 20.8353 11.0258 20.7461C11.1567 20.717 11.2857 20.7994 11.3148 20.9303C11.3439 21.0602 11.2615 21.1902 11.1305 21.2193C10.891 21.2726 10.7737 21.6518 10.7175 21.9611C10.6961 22.0774 10.5943 22.1599 10.4789 22.1599Z" fill="white"/>
<path fill-rule="evenodd" clip-rule="evenodd" d="M19.1782 24.0587C19.1636 24.0587 19.1491 24.0578 19.1345 24.0549C18.4752 23.9337 18.096 23.6699 18.0068 23.2694C17.9777 23.1385 18.0601 23.0095 18.1911 22.9804C18.322 22.9514 18.4509 23.0338 18.48 23.1647C18.5334 23.4042 18.9125 23.5215 19.2218 23.5787C19.3537 23.603 19.441 23.729 19.4167 23.8609C19.3954 23.9773 19.2936 24.0597 19.1782 24.0597L19.1782 24.0587Z" fill="white"/>
<path fill-rule="evenodd" clip-rule="evenodd" d="M22.2212 19.713C22.2066 19.713 22.1921 19.7121 22.1775 19.7092C21.5182 19.5879 21.139 19.3242 21.0498 18.9237C21.0207 18.7928 21.1031 18.6638 21.234 18.6347C21.3649 18.6057 21.4939 18.6881 21.523 18.819C21.5763 19.0585 21.9555 19.1758 22.2638 19.233C22.3957 19.2573 22.483 19.3833 22.4587 19.5152C22.4374 19.6316 22.3356 19.714 22.2202 19.714L22.2212 19.713Z" fill="white"/>
<path fill-rule="evenodd" clip-rule="evenodd" d="M21.2297 16.7952C21.2123 16.7952 21.1948 16.7933 21.1774 16.7894C21.0465 16.7603 20.9641 16.6304 20.9931 16.5004C21.0824 16.0999 21.4615 15.8362 22.1209 15.715C22.2528 15.6907 22.3788 15.778 22.403 15.9099C22.4273 16.0408 22.34 16.1678 22.2081 16.1921C21.8988 16.2483 21.5197 16.3666 21.4663 16.6061C21.4411 16.7196 21.3413 16.7962 21.2297 16.7962L21.2297 16.7952Z" fill="white"/>
<path fill-rule="evenodd" clip-rule="evenodd" d="M20.7304 22.1599C20.616 22.1599 20.5132 22.0784 20.4918 21.9611C20.4356 21.6518 20.3173 21.2726 20.0787 21.2193C19.9478 21.1902 19.8654 21.0603 19.8945 20.9303C19.9236 20.7994 20.0526 20.717 20.1835 20.7461C20.584 20.8343 20.8477 21.2135 20.9689 21.8738C20.9932 22.0047 20.9059 22.1317 20.774 22.156C20.7595 22.1589 20.7449 22.1599 20.7304 22.1599Z" fill="white"/>
<path fill-rule="evenodd" clip-rule="evenodd" d="M17.1713 20.9002C17.0375 20.9002 16.9289 20.7916 16.9289 20.6578V15.7135H14.2798V20.6578C14.2798 20.7916 14.1712 20.9002 14.0373 20.9002C13.9035 20.9002 13.7949 20.7916 13.7949 20.6578V15.4709C13.7949 15.3371 13.9035 15.2285 14.0373 15.2285H17.1713C17.2353 15.2285 17.2974 15.2547 17.3429 15.2993C17.3885 15.3449 17.4137 15.4069 17.4137 15.4709V20.6578C17.4137 20.7916 17.3052 20.9002 17.1713 20.9002Z" fill="white"/>
<path fill-rule="evenodd" clip-rule="evenodd" d="M14.4622 13.9427H16.7477L16.962 12.9507L15.6044 10.7059L14.2469 12.9507L14.4612 13.9427H14.4622ZM16.9436 14.4275H14.2663C14.1519 14.4275 14.053 14.348 14.0298 14.2365L13.7534 12.9585C13.7408 12.8983 13.7505 12.8343 13.7825 12.782L15.397 10.1115C15.4406 10.0387 15.5192 9.99414 15.6045 9.99414C15.6898 9.99414 15.7684 10.0387 15.812 10.1115L17.4265 12.782C17.4585 12.8353 17.4692 12.8983 17.4556 12.9585L17.1792 14.2365C17.155 14.348 17.0561 14.4275 16.9426 14.4275H16.9436Z" fill="white"/>
<path fill-rule="evenodd" clip-rule="evenodd" d="M14.2668 15.712C14.133 15.712 14.0244 15.6034 14.0244 15.4696V14.1838C14.0244 14.05 14.133 13.9414 14.2668 13.9414C14.4006 13.9414 14.5092 14.05 14.5092 14.1838V15.4696C14.5092 15.6034 14.4006 15.712 14.2668 15.712ZM16.944 15.712C16.8102 15.712 16.7016 15.6034 16.7016 15.4696V14.1838C16.7016 14.05 16.8102 13.9414 16.944 13.9414C17.0779 13.9414 17.1865 14.05 17.1865 14.1838V15.4696C17.1865 15.6034 17.0779 15.712 16.944 15.712Z" fill="white"/>
<path fill-rule="evenodd" clip-rule="evenodd" d="M17.1713 18.0942H14.0373C13.9035 18.0942 13.7949 17.9856 13.7949 17.8518C13.7949 17.718 13.9035 17.6094 14.0373 17.6094H17.1713C17.3051 17.6094 17.4137 17.718 17.4137 17.8518C17.4137 17.9856 17.3051 18.0942 17.1713 18.0942Z" fill="white"/>
<path fill-rule="evenodd" clip-rule="evenodd" d="M15.6047 18.0939C15.4709 18.0939 15.3623 17.9853 15.3623 17.8515V15.4709C15.3623 15.3371 15.4709 15.2285 15.6047 15.2285C15.7385 15.2285 15.8471 15.3371 15.8471 15.4709V17.8515C15.8471 17.9853 15.7385 18.0939 15.6047 18.0939Z" fill="white"/>
<path fill-rule="evenodd" clip-rule="evenodd" d="M15.6047 14.4275C15.4709 14.4275 15.3623 14.3189 15.3623 14.1851V13.1213C15.3623 12.9875 15.4709 12.8789 15.6047 12.8789C15.7385 12.8789 15.8471 12.9875 15.8471 13.1213V14.1851C15.8471 14.3189 15.7385 14.4275 15.6047 14.4275Z" fill="white"/>
<path fill-rule="evenodd" clip-rule="evenodd" d="M15.6045 12.4673C15.491 12.4673 15.3979 12.5594 15.3979 12.6738C15.3979 12.7882 15.491 12.8804 15.6045 12.8804C15.7179 12.8804 15.811 12.7882 15.811 12.6738C15.811 12.5594 15.7179 12.4673 15.6045 12.4673ZM15.6045 13.3652C15.2234 13.3652 14.9131 13.0549 14.9131 12.6738C14.9131 12.2927 15.2234 11.9824 15.6045 11.9824C15.9856 11.9824 16.2959 12.2927 16.2959 12.6738C16.2959 13.0549 15.9856 13.3652 15.6045 13.3652Z" fill="white"/>
<path fill-rule="evenodd" clip-rule="evenodd" d="M15.6047 6.07832C15.4709 6.07832 15.3623 5.96972 15.3623 5.8359V4.28734C15.3623 4.15352 15.4709 4.04492 15.6047 4.04492C15.7385 4.04492 15.8471 4.15352 15.8471 4.28734V5.8359C15.8471 5.96972 15.7385 6.07832 15.6047 6.07832Z" fill="white"/>
<path fill-rule="evenodd" clip-rule="evenodd" d="M19.0232 6.99533C18.9824 6.99533 18.9407 6.98563 18.902 6.96333C18.7856 6.89642 18.7458 6.74806 18.8127 6.63171L19.5865 5.29067C19.6535 5.17528 19.8018 5.13552 19.9172 5.20243C20.0336 5.26933 20.0733 5.41769 20.0064 5.53308L19.2326 6.87412C19.188 6.95169 19.1065 6.99533 19.0222 6.99533H19.0232Z" fill="white"/>
<path fill-rule="evenodd" clip-rule="evenodd" d="M21.5252 9.49644C21.4418 9.49644 21.3603 9.45281 21.3147 9.37524C21.2478 9.25985 21.2876 9.11149 21.403 9.04459L22.744 8.27079C22.8604 8.20388 23.0078 8.24364 23.0747 8.35903C23.1416 8.47539 23.1018 8.62375 22.9864 8.69065L21.6454 9.46444C21.6076 9.48675 21.5659 9.49644 21.5242 9.49644H21.5252Z" fill="white"/>
<path fill-rule="evenodd" clip-rule="evenodd" d="M23.9892 12.9145H22.4407C22.3068 12.9145 22.1982 12.8059 22.1982 12.6721C22.1982 12.5383 22.3068 12.4297 22.4407 12.4297H23.9892C24.123 12.4297 24.2316 12.5383 24.2316 12.6721C24.2316 12.8059 24.123 12.9145 23.9892 12.9145Z" fill="white"/>
<path fill-rule="evenodd" clip-rule="evenodd" d="M12.1866 6.99533C12.1033 6.99533 12.0218 6.95169 11.9762 6.87412L11.2024 5.53308C11.1355 5.41769 11.1753 5.26933 11.2907 5.20243C11.407 5.13552 11.5544 5.17528 11.6223 5.29067L12.3961 6.63171C12.463 6.74807 12.4232 6.89643 12.3069 6.96333C12.2691 6.98563 12.2274 6.99533 12.1857 6.99533H12.1866Z" fill="white"/>
<path fill-rule="evenodd" clip-rule="evenodd" d="M9.68423 9.49644C9.6435 9.49644 9.6018 9.48675 9.56302 9.46444L8.22198 8.69064C8.10562 8.62374 8.06586 8.47538 8.13374 8.35903C8.20064 8.24364 8.349 8.20388 8.46438 8.27079L9.80543 9.04459C9.92179 9.11149 9.96057 9.25985 9.89367 9.37523C9.84906 9.45281 9.76761 9.49644 9.68325 9.49644H9.68423Z" fill="white"/>
<path fill-rule="evenodd" clip-rule="evenodd" d="M8.76754 12.9145H7.21898C7.08517 12.9145 6.97656 12.8059 6.97656 12.6721C6.97656 12.5383 7.08517 12.4297 7.21898 12.4297H8.76754C8.90136 12.4297 9.00996 12.5383 9.00996 12.6721C9.00996 12.8059 8.90136 12.9145 8.76754 12.9145Z" fill="white"/>
</svg>
