<svg width="30" height="30" viewBox="0 0 30 30" fill="none" xmlns="http://www.w3.org/2000/svg">
<path d="M18 9.57812L15.5 6.57812L13 9.57812L14.5 10.0781V15.0781H16.5V10.0781L18 9.57812Z" fill="#FD1716"/>
<path d="M18 21.0781L15.5 20.0781L13 21.0781L11.5 22.5781L11 24.5781H20V23.0781L18 21.0781Z" fill="#FD1716"/>
<path d="M16.5444 15.7591C16.5374 15.7565 16.5304 15.7521 16.5233 15.7477C16.4312 15.6994 16.3277 15.674 16.2232 15.6749H14.6735C14.5691 15.674 14.4664 15.6994 14.3734 15.7477C14.3664 15.7521 14.3594 15.7556 14.3524 15.7591C14.3339 15.7705 14.3173 15.781 14.3006 15.7942C14.1927 15.8741 14.1128 15.9837 14.0724 16.1119L13.9066 16.6191C13.8487 16.8016 13.7486 16.9666 13.6126 17.1026C13.4942 17.2193 13.352 17.3088 13.1958 17.3667C13.1844 17.372 13.1721 17.3773 13.1589 17.3808L13.1238 17.3922C12.9027 17.4615 12.686 17.5405 12.4736 17.6282C12.2542 17.7186 12.0454 17.8178 11.8453 17.9213C11.5031 18.1065 11.0906 18.11 10.7458 17.9292L10.5185 17.8125C10.5106 17.8099 10.5027 17.8064 10.4957 17.8011L10.2701 17.6861C10.1508 17.6247 10.0165 17.6019 9.88403 17.6221C9.75152 17.644 9.62955 17.7072 9.53652 17.8029L8.44225 18.8971C8.24481 19.0884 8.19655 19.3868 8.32554 19.6299L8.56861 20.1064C8.65724 20.2766 8.70287 20.4653 8.70199 20.6566C8.70023 20.8487 8.65197 21.0365 8.56246 21.2059C8.45716 21.406 8.35888 21.6157 8.26849 21.8342C8.18074 22.0466 8.10176 22.2633 8.03243 22.4844L8.03156 22.4853C7.92099 22.8591 7.63142 23.1531 7.25846 23.2681L6.75126 23.4322C6.48887 23.5138 6.31162 23.7586 6.31513 24.0333V24.5229L10.5764 24.5238C10.6738 22.8504 11.6233 21.3446 13.0904 20.5345C14.5576 19.7245 16.3382 19.7246 17.8053 20.5345C19.2734 21.3445 20.2221 22.8504 20.3202 24.5238H24.5806V24.0333C24.5842 23.7586 24.4069 23.5138 24.1445 23.4322L23.6373 23.2681C23.2643 23.1531 22.9748 22.8591 22.8642 22.4853C22.7949 22.2642 22.7159 22.0474 22.6282 21.8351C22.5369 21.6157 22.4386 21.4069 22.3342 21.2068L22.3333 21.2059C22.2438 21.0365 22.1955 20.8487 22.1938 20.6566C22.1929 20.4653 22.2385 20.2766 22.3272 20.1064L22.5685 19.6299C22.6983 19.3868 22.651 19.0884 22.4518 18.8971L21.3584 17.8029C21.2654 17.7072 21.1434 17.644 21.0109 17.6221C20.8784 17.6019 20.7432 17.6247 20.6239 17.6862L20.3834 17.809C20.3764 17.8134 20.3694 17.8178 20.3615 17.8204L20.1483 17.9292C19.8034 18.11 19.3918 18.1074 19.0496 17.9213C18.8495 17.8178 18.6407 17.7186 18.4213 17.6282C18.2089 17.5405 17.9922 17.4615 17.7711 17.3922C17.7526 17.3869 17.7351 17.3808 17.7166 17.3746C17.7044 17.3711 17.6912 17.3658 17.6798 17.3597C17.5315 17.3027 17.3955 17.2149 17.2823 17.1026C17.1471 16.9675 17.0462 16.8016 16.9874 16.6191L16.8216 16.1119C16.7812 15.9838 16.7022 15.8732 16.5952 15.7933C16.5776 15.7811 16.561 15.7696 16.5434 15.7582L16.5444 15.7591ZM8.09389 6.96376C9.02143 6.96376 9.81998 7.61928 10.0008 8.52928C10.1824 9.43927 9.69449 10.3501 8.83803 10.7047C7.98069 11.06 6.99171 10.7599 6.47655 9.98772C5.96144 9.21638 6.06325 8.1888 6.71962 7.53234C7.08379 7.16817 7.57878 6.96376 8.09389 6.96376ZM9.06881 7.9343C8.60373 7.47009 7.87626 7.39814 7.33043 7.76318C6.78373 8.12823 6.57138 8.8285 6.82323 9.43486C7.0742 10.0421 7.71918 10.387 8.36329 10.2589C9.00739 10.1307 9.4716 9.56475 9.4716 8.90836C9.47248 8.54331 9.32681 8.19229 9.06881 7.9343ZM9.66817 6.00111L9.84543 5.91073C10.0859 5.78787 10.379 5.83438 10.5703 6.02568L10.9774 6.43373C11.1696 6.62415 11.2152 6.91724 11.0915 7.1577L11.0011 7.33496C10.9967 7.34285 10.9941 7.35251 10.9932 7.36216C10.9932 7.37181 10.9959 7.38059 11.0011 7.38936C11.0915 7.56223 11.167 7.743 11.2258 7.9299C11.2284 7.9378 11.2319 7.9457 11.2381 7.95272H11.2398C11.2468 7.95974 11.2539 7.96413 11.2626 7.96676L11.4522 8.02731C11.7102 8.1098 11.8848 8.35024 11.8839 8.62138V9.19792C11.8839 9.33042 11.8427 9.45767 11.7655 9.56472C11.6882 9.67177 11.5786 9.74987 11.4522 9.79024L11.2626 9.85167C11.2442 9.85693 11.2311 9.87097 11.2258 9.88852C11.1977 9.98242 11.1644 10.0746 11.1258 10.1649C11.0889 10.2553 11.0477 10.3431 11.002 10.4291C10.9968 10.437 10.9941 10.4458 10.9941 10.4554C10.9941 10.4651 10.9968 10.4747 11.002 10.4826L11.0924 10.6599C11.153 10.7766 11.174 10.91 11.153 11.0407C11.1337 11.1715 11.0722 11.2917 10.9775 11.3847L10.5703 11.7927C10.4773 11.8858 10.357 11.9463 10.2272 11.9665C10.0964 11.9884 9.96304 11.9665 9.84634 11.9059L9.66908 11.8156C9.6603 11.812 9.65153 11.8094 9.64188 11.8085C9.63222 11.8094 9.62345 11.8112 9.61467 11.8156C9.52429 11.8629 9.43654 11.9051 9.35141 11.941C9.26103 11.9779 9.16801 12.0121 9.07586 12.0411C9.06709 12.0428 9.05831 12.0481 9.05129 12.0551C9.04515 12.0613 9.04076 12.0692 9.039 12.0779L8.97758 12.2675C8.93721 12.393 8.85736 12.5027 8.75118 12.5807C8.64412 12.658 8.516 12.7001 8.3835 12.6983H7.80609C7.53495 12.6983 7.29626 12.5246 7.21289 12.2666L7.15147 12.077C7.14971 12.0683 7.14532 12.0604 7.13918 12.0542H7.13743C7.13128 12.0472 7.12339 12.0428 7.11373 12.0402C7.01896 12.0104 6.9277 11.977 6.83818 11.9402C6.75306 11.9042 6.66356 11.8621 6.57317 11.8147C6.56527 11.8103 6.5565 11.8085 6.54772 11.8076C6.53807 11.8085 6.52841 11.8112 6.52052 11.8155L6.34326 11.9059C6.22655 11.9674 6.09228 11.9875 5.96242 11.9656C5.83254 11.9454 5.71232 11.884 5.62019 11.791L5.21214 11.3829C5.01997 11.1916 4.97433 10.8994 5.09719 10.6581L5.18757 10.4808C5.19196 10.4721 5.19459 10.4642 5.19547 10.4545C5.19459 10.4448 5.19196 10.4361 5.18757 10.4282C5.14019 10.3378 5.09806 10.25 5.06296 10.1632C5.02611 10.0728 4.99188 9.98151 4.9638 9.88761C4.96117 9.87883 4.9559 9.87094 4.94976 9.86392C4.94362 9.85777 4.93484 9.85251 4.92607 9.84988L4.73652 9.78845C4.61104 9.74896 4.50222 9.66998 4.42413 9.5638C4.34691 9.45675 4.30567 9.32774 4.30567 9.19612V8.61959C4.30479 8.34932 4.47942 8.10888 4.73741 8.02639L4.92696 7.96584C4.93573 7.96233 4.94363 7.95795 4.95065 7.9518C4.9568 7.94478 4.96118 7.93689 4.96382 7.92811C4.99277 7.83509 5.02524 7.74295 5.06298 7.65256C5.09896 7.56568 5.14108 7.47793 5.18759 7.38754C5.19285 7.37965 5.19548 7.36999 5.19636 7.36034C5.19548 7.35157 5.19285 7.34279 5.18759 7.33489L5.0972 7.15676C5.03577 7.03917 5.01559 6.90578 5.03753 6.77591C5.05771 6.64516 5.11914 6.52494 5.21216 6.43194L5.6202 6.02477C5.81063 5.83347 6.10283 5.78696 6.34329 5.90981L6.52055 6.00107C6.52845 6.00634 6.5381 6.00897 6.54776 6.00985C6.55653 6.00897 6.56618 6.00634 6.57408 6.00107C6.66447 5.95369 6.75397 5.91156 6.8391 5.87646C6.92948 5.83961 7.02074 5.80538 7.11465 5.77643C7.12342 5.77379 7.13132 5.76941 7.13834 5.76239C7.14536 5.75624 7.14975 5.74835 7.1515 5.73869L7.21293 5.54915L7.21381 5.55003C7.29542 5.29204 7.53586 5.1174 7.80613 5.11915H8.38179C8.51429 5.11828 8.64242 5.15952 8.74946 5.23762C8.85565 5.31572 8.93462 5.42541 8.97586 5.55001L9.03729 5.73956C9.03992 5.74833 9.04431 5.75623 9.05045 5.76325V5.7615C9.0566 5.76852 9.06449 5.77378 9.07327 5.77554C9.16629 5.80537 9.2593 5.83872 9.34882 5.87557C9.43394 5.91155 9.52169 5.95192 9.61208 6.00018C9.62086 6.00457 9.63051 6.0072 9.64016 6.00808C9.64981 6.00808 9.65939 6.0055 9.66817 6.00111ZM10.1025 6.41619L9.92528 6.50657C9.83665 6.55133 9.73837 6.57502 9.63834 6.57502C9.53918 6.57414 9.4409 6.54869 9.35315 6.50219C9.28646 6.46796 9.211 6.43286 9.1329 6.40039C9.05831 6.36968 8.98284 6.34248 8.9065 6.31791C8.81085 6.28895 8.72309 6.23717 8.65114 6.16697V6.16434C8.58182 6.09502 8.52917 6.00902 8.49845 5.91512L8.4379 5.72557C8.43352 5.71417 8.4265 5.70451 8.41684 5.69661C8.40631 5.68959 8.39403 5.68608 8.38174 5.68608H7.80609C7.79292 5.68608 7.78152 5.68959 7.77099 5.69661C7.76133 5.70363 7.75431 5.71416 7.75168 5.72557L7.69113 5.91512C7.63058 6.10817 7.47702 6.2591 7.28221 6.31703C7.20586 6.34073 7.12864 6.36881 7.05581 6.39952C6.97508 6.43199 6.90224 6.46621 6.83555 6.50131C6.7478 6.54782 6.64952 6.57327 6.55036 6.57415C6.45033 6.57415 6.35204 6.55133 6.26342 6.50658L6.08616 6.41619C6.07651 6.40917 6.06423 6.40654 6.05194 6.4083C6.03966 6.41093 6.02825 6.41707 6.01947 6.42585L5.6123 6.83389C5.60353 6.84179 5.59738 6.8532 5.59387 6.86461C5.593 6.87689 5.59563 6.89005 5.60177 6.90059L5.69216 7.07784C5.7843 7.25686 5.78254 7.47098 5.68777 7.64912C5.65179 7.71757 5.61844 7.79128 5.5851 7.86938C5.55438 7.94397 5.52718 8.01943 5.50349 8.09665C5.47453 8.19143 5.42276 8.2783 5.35343 8.34938C5.28235 8.42046 5.19636 8.47311 5.10071 8.50382L4.91291 8.56613C4.90063 8.56964 4.8901 8.57578 4.88308 8.58543C4.87606 8.59596 4.87255 8.60737 4.87343 8.61965V9.19619C4.87255 9.20847 4.87606 9.22076 4.88308 9.23129C4.8901 9.24094 4.89975 9.24708 4.91116 9.25059L5.09983 9.31202C5.1946 9.34186 5.28147 9.39451 5.3508 9.46559H5.35256C5.42276 9.53667 5.47278 9.62266 5.50261 9.71744C5.52631 9.79466 5.55351 9.871 5.58422 9.94559C5.61757 10.0246 5.65092 10.0983 5.68689 10.1658C5.78254 10.3449 5.78342 10.559 5.69128 10.7389L5.6009 10.9161C5.59475 10.9275 5.59212 10.9389 5.593 10.9512C5.59563 10.9635 5.60265 10.974 5.61143 10.9819L6.01947 11.3891C6.02825 11.3988 6.03966 11.4058 6.05194 11.4075C6.06335 11.4084 6.07564 11.4058 6.08616 11.4005L6.26342 11.3101C6.35205 11.2645 6.45034 11.2408 6.55036 11.2426C6.64952 11.2426 6.74781 11.2671 6.83555 11.3128C6.90224 11.3488 6.97771 11.3821 7.05581 11.4154C7.12865 11.4462 7.20587 11.4734 7.28221 11.4988C7.37786 11.5278 7.46561 11.5787 7.53756 11.648L7.53669 11.6497C7.60777 11.7199 7.65954 11.8059 7.69025 11.9007L7.7508 12.0903L7.75168 12.0894C7.75519 12.1017 7.76133 12.1113 7.77098 12.1192C7.78151 12.1262 7.79292 12.1297 7.80609 12.1289H8.38174C8.39403 12.1297 8.40631 12.1262 8.41684 12.1192C8.42562 12.1113 8.43351 12.1008 8.4379 12.0894L8.49845 11.8998C8.52916 11.8051 8.58181 11.7199 8.65289 11.6497L8.65114 11.648C8.72397 11.5787 8.81085 11.5278 8.90649 11.4997C8.98284 11.476 9.05831 11.4479 9.13289 11.4163C9.21187 11.383 9.28646 11.3496 9.35315 11.3136C9.53217 11.2198 9.74628 11.218 9.92618 11.3101L10.1034 11.4005C10.114 11.4058 10.1254 11.4084 10.1377 11.4075C10.1499 11.4058 10.1605 11.3988 10.1684 11.3891L10.5764 10.9819C10.5852 10.974 10.5913 10.9635 10.594 10.9512C10.5957 10.9389 10.5931 10.9267 10.587 10.9153L10.4974 10.738C10.4035 10.559 10.4053 10.3457 10.501 10.1676C10.5361 10.1 10.5703 10.0254 10.6036 9.94734C10.6335 9.87275 10.6615 9.79728 10.6852 9.72006C10.7151 9.62529 10.7668 9.53754 10.8362 9.46646C10.9064 9.39538 10.9932 9.34185 11.088 9.31201L11.2758 9.24971C11.2872 9.24708 11.2986 9.24006 11.3056 9.2304C11.3127 9.21987 11.3162 9.20759 11.3162 9.1953V8.61965C11.3162 8.60736 11.3127 8.59595 11.3056 8.58543C11.2986 8.57577 11.2881 8.56875 11.2767 8.56524L11.0889 8.50294L11.088 8.50382C10.9932 8.47398 10.9072 8.42133 10.837 8.35025C10.7677 8.27917 10.7159 8.19142 10.6861 8.09665C10.6624 8.01855 10.6343 7.94308 10.6045 7.86937C10.5712 7.7904 10.5369 7.71756 10.5018 7.64911C10.4062 7.47098 10.4044 7.25686 10.4983 7.07784L10.5861 6.8997C10.5931 6.88917 10.5957 6.87689 10.5931 6.8646C10.5913 6.85232 10.5861 6.84179 10.5773 6.83301L10.1684 6.42672C10.1596 6.41794 10.1491 6.4118 10.1368 6.41004C10.1254 6.40741 10.1122 6.40917 10.1025 6.41619ZM22.7256 6.96376C23.6532 6.96376 24.4517 7.61928 24.6334 8.52928C24.8141 9.43927 24.3271 10.3501 23.4698 10.7047C22.6124 11.06 21.6243 10.7599 21.1083 9.98772C20.5932 9.21638 20.695 8.1888 21.3514 7.53234C21.7155 7.16817 22.2105 6.96376 22.7256 6.96376ZM23.6988 7.9343C23.2346 7.47272 22.5089 7.40252 21.9648 7.7667C21.4207 8.13175 21.2092 8.83026 21.4611 9.43487C21.7121 10.0404 22.3553 10.3835 22.9985 10.2553C23.6409 10.1272 24.1033 9.56386 24.1033 8.90835C24.1042 8.54242 23.9585 8.19229 23.6988 7.9343ZM24.3008 6.00111L24.478 5.91073C24.5956 5.85106 24.729 5.83 24.8589 5.85018C24.9887 5.87124 25.1081 5.93267 25.202 6.0248L25.6091 6.43285C25.8022 6.62327 25.8487 6.91636 25.725 7.15682L25.6346 7.33408C25.6293 7.34285 25.6267 7.35163 25.6258 7.3604C25.6267 7.37005 25.6293 7.37971 25.6337 7.3876C25.6793 7.47448 25.7215 7.56223 25.7583 7.65262C25.7952 7.74125 25.8294 7.83427 25.8584 7.92817C25.861 7.93694 25.8654 7.94484 25.8706 7.95186H25.8724C25.8794 7.95888 25.8873 7.96327 25.8961 7.9659L26.0856 8.02645C26.3445 8.10894 26.5183 8.34938 26.5156 8.62053V9.19618C26.5183 9.46733 26.3436 9.70777 26.0848 9.78938L25.8952 9.85081C25.8864 9.85344 25.8794 9.85871 25.8724 9.86485C25.8654 9.87099 25.861 9.87889 25.8584 9.88855C25.8285 9.98332 25.7952 10.0746 25.7583 10.1641C25.7223 10.251 25.682 10.3387 25.6337 10.4291C25.6293 10.437 25.6267 10.4458 25.6258 10.4546C25.6267 10.4642 25.6293 10.4739 25.6346 10.4818L25.725 10.659C25.8487 10.8995 25.8022 11.1926 25.61 11.3839L25.202 11.791C25.109 11.8841 24.9879 11.9455 24.858 11.9657C24.7281 11.9867 24.5939 11.9657 24.4772 11.9051L24.2999 11.8147C24.292 11.8103 24.2823 11.8077 24.2727 11.8077C24.2639 11.8077 24.2543 11.8103 24.2455 11.8147C24.1551 11.8621 24.0674 11.9042 23.9805 11.9402C23.8936 11.9762 23.7988 12.0113 23.7049 12.0402C23.6961 12.042 23.6883 12.0464 23.6812 12.0525C23.676 12.0596 23.6707 12.0683 23.6681 12.0771L23.6075 12.2666C23.5672 12.3921 23.4882 12.5018 23.3811 12.579C23.2741 12.6571 23.1459 12.6984 23.0134 12.6975H22.4378C22.1666 12.6984 21.9271 12.5238 21.8446 12.2658L21.7832 12.0762C21.7814 12.0674 21.777 12.0595 21.7709 12.0525C21.7647 12.0464 21.756 12.0411 21.7472 12.0394C21.6524 12.0095 21.5611 11.9762 21.4716 11.9393C21.3848 11.9033 21.297 11.8612 21.2066 11.8138C21.1987 11.8094 21.1899 11.8068 21.1812 11.8068C21.1715 11.8068 21.1619 11.8094 21.154 11.8138L20.9767 11.9042C20.7363 12.0271 20.4432 11.9814 20.2519 11.791L19.8438 11.383C19.6534 11.1917 19.6078 10.8986 19.7297 10.6573L19.8201 10.48C19.8245 10.4712 19.8271 10.4633 19.828 10.4537C19.8271 10.4449 19.8245 10.4352 19.8201 10.4273C19.7727 10.337 19.7306 10.2492 19.6946 10.1623C19.6578 10.0719 19.6236 9.98068 19.5946 9.88678C19.592 9.878 19.5885 9.8701 19.5823 9.86308C19.5762 9.85694 19.5683 9.85168 19.5586 9.84992L19.3691 9.78849L19.37 9.78762C19.112 9.70601 18.9365 9.46644 18.9382 9.19529V8.61964C18.9373 8.48801 18.9786 8.359 19.0567 8.25283C19.1339 8.14578 19.2436 8.0668 19.3691 8.02644L19.5586 7.96589C19.5674 7.96325 19.5753 7.95799 19.5823 7.95185C19.5884 7.9457 19.592 7.93693 19.5946 7.92815C19.6244 7.83338 19.6578 7.74124 19.6946 7.6526C19.7315 7.56397 19.7727 7.47798 19.8201 7.38759C19.8245 7.37969 19.8263 7.37004 19.8271 7.36039C19.8263 7.35161 19.8236 7.34284 19.8192 7.33494L19.7289 7.1568C19.6683 7.03921 19.6472 6.90583 19.6683 6.77596C19.6894 6.64521 19.7499 6.52498 19.8429 6.43198L20.251 6.02481C20.4414 5.83351 20.7345 5.787 20.9758 5.90985L21.1522 6.00112C21.161 6.00638 21.1698 6.00901 21.1794 6.00989C21.1891 6.00901 21.1978 6.00638 21.2057 6.00112C21.2961 5.95373 21.3839 5.91161 21.4707 5.87651C21.5611 5.83965 21.6524 5.80543 21.7463 5.77647C21.7551 5.77384 21.7638 5.76945 21.77 5.76243C21.7761 5.75629 21.7814 5.74751 21.7832 5.73874L21.8446 5.54919L21.8455 5.55007C21.9262 5.29121 22.1666 5.11657 22.4378 5.1192H23.0143C23.1468 5.1192 23.2741 5.16044 23.3811 5.23766C23.4873 5.31576 23.5663 5.42545 23.6075 5.55093L23.6681 5.74048C23.6716 5.74925 23.676 5.75627 23.6821 5.76329C23.6882 5.77031 23.697 5.77382 23.7058 5.77646C23.8006 5.80629 23.8927 5.83964 23.9813 5.87649C24.0717 5.91423 24.1595 5.95547 24.2455 6.0011C24.2543 6.00549 24.2639 6.00812 24.2727 6.009C24.2832 6.00812 24.292 6.00638 24.3008 6.00111ZM24.7334 6.41619L24.5561 6.50657L24.557 6.50745C24.4684 6.5522 24.3701 6.5759 24.2709 6.57502C24.1718 6.57414 24.0735 6.54957 23.9858 6.50219C23.9173 6.46796 23.8436 6.43286 23.7655 6.40039C23.6909 6.36968 23.6154 6.34248 23.5382 6.31791C23.4426 6.28895 23.3548 6.23717 23.2837 6.16697V6.16434C23.2144 6.09502 23.1618 6.00902 23.1311 5.91512L23.0688 5.72557C23.0661 5.71417 23.0591 5.70363 23.0495 5.69661C23.0389 5.68959 23.0266 5.68608 23.0144 5.68608H22.4378C22.4255 5.68608 22.4132 5.68959 22.4027 5.69661C22.3931 5.70363 22.386 5.71416 22.3834 5.72557L22.3211 5.91512C22.2913 6.00989 22.2386 6.09676 22.1675 6.16697C22.0965 6.23717 22.0096 6.28894 21.9139 6.3179C21.8358 6.34159 21.7604 6.36968 21.6867 6.40039C21.6077 6.43286 21.534 6.46708 21.4673 6.50218C21.2883 6.59783 21.075 6.59959 20.8951 6.50657L20.7179 6.41618C20.7073 6.41004 20.6951 6.40741 20.6828 6.40916C20.6705 6.4118 20.66 6.41794 20.6512 6.42671L20.244 6.83476C20.2344 6.84266 20.2282 6.85319 20.2265 6.86548C20.2256 6.87776 20.2273 6.89005 20.2335 6.90145L20.3239 7.07871C20.416 7.25861 20.4143 7.47097 20.3204 7.64999C20.2844 7.71843 20.251 7.79215 20.2177 7.87025C20.187 7.94483 20.1598 8.0203 20.1352 8.09752C20.1071 8.19229 20.0545 8.27917 19.9851 8.34937C19.9141 8.42045 19.8281 8.4731 19.7324 8.50469L19.5429 8.567L19.5438 8.56612C19.5323 8.56963 19.5218 8.57665 19.5139 8.5863C19.5069 8.59595 19.5034 8.60824 19.5043 8.62052V9.19706C19.5034 9.20934 19.5069 9.22163 19.5139 9.23216C19.5218 9.24093 19.5323 9.24795 19.5438 9.25146L19.7333 9.31377C19.8289 9.34272 19.9141 9.39538 19.9834 9.46646H19.9851C20.0545 9.53754 20.1054 9.62441 20.1343 9.71918C20.158 9.79728 20.1861 9.87275 20.2168 9.94646C20.2502 10.0254 20.2835 10.0991 20.3195 10.1667C20.4134 10.3449 20.416 10.559 20.3239 10.738L20.2335 10.9152C20.2273 10.9258 20.2256 10.9389 20.2265 10.9512C20.2282 10.9635 20.2352 10.974 20.2449 10.9819L20.6521 11.3891C20.66 11.3988 20.6705 11.4049 20.6828 11.4075C20.6951 11.4084 20.7074 11.4058 20.7179 11.3996L20.8951 11.3093C20.9838 11.2645 21.0821 11.2408 21.1812 11.2417C21.2812 11.2417 21.3795 11.2663 21.4681 11.3128C21.5392 11.3505 21.6129 11.3847 21.6884 11.4154C21.7612 11.4462 21.8367 11.4734 21.9148 11.4988L21.9139 11.4979C22.1079 11.5567 22.2606 11.7077 22.3211 11.9007L22.3834 12.0903C22.3869 12.1017 22.3939 12.1113 22.4027 12.1192C22.4132 12.1262 22.4255 12.1289 22.4378 12.1289H23.0143C23.0275 12.1289 23.038 12.1262 23.0486 12.1192C23.0582 12.1113 23.0644 12.1008 23.0679 12.0894L23.1302 11.8998C23.1609 11.8042 23.2135 11.7191 23.2837 11.648C23.3548 11.5787 23.4417 11.5269 23.5365 11.4988C23.6146 11.4751 23.69 11.447 23.7637 11.4154C23.8427 11.3821 23.9155 11.3488 23.984 11.3128C24.163 11.2189 24.3762 11.2171 24.5553 11.3093L24.7325 11.3997C24.7439 11.4049 24.7562 11.4075 24.7685 11.4067C24.7808 11.4049 24.7913 11.3979 24.7992 11.3882L25.2073 10.9811C25.216 10.9732 25.2222 10.9626 25.2248 10.9504C25.2266 10.9381 25.2239 10.9249 25.2169 10.9144L25.1265 10.7371C25.0818 10.6485 25.059 10.5511 25.059 10.4519C25.0598 10.3519 25.0853 10.2545 25.1318 10.1667C25.166 10.0992 25.2011 10.0246 25.2336 9.94649C25.2643 9.8719 25.2915 9.79643 25.3161 9.71921C25.345 9.62444 25.3968 9.53581 25.467 9.46561C25.5381 9.39453 25.6241 9.34188 25.7197 9.31204L25.9093 9.24974C25.9207 9.24711 25.9312 9.24009 25.9382 9.23043C25.9453 9.2199 25.9488 9.20762 25.9488 9.19533V8.90839L25.9497 8.61968C25.9497 8.60739 25.9453 8.59598 25.9382 8.58545C25.9312 8.5758 25.9207 8.56878 25.9093 8.56527L25.7197 8.50297C25.6258 8.47226 25.5399 8.42048 25.4696 8.35028L25.4679 8.34853L25.4688 8.3494C25.3986 8.27832 25.3468 8.19145 25.3178 8.09668C25.2941 8.01858 25.2661 7.94311 25.2353 7.8694C25.2029 7.79043 25.1687 7.71759 25.1336 7.64914C25.0862 7.56139 25.0616 7.46311 25.0607 7.36308C25.0607 7.26392 25.0835 7.16651 25.1283 7.07789L25.2187 6.90063C25.2257 6.8901 25.2283 6.87782 25.2266 6.86465C25.2248 6.85324 25.2187 6.84184 25.2099 6.83394L24.8001 6.42677C24.7913 6.41799 24.7808 6.41185 24.7685 6.4101C24.7562 6.40746 24.7439 6.40917 24.7334 6.41619ZM11.1441 24.5238H19.7516C19.6516 23.0548 18.8101 21.7393 17.5192 21.0321C16.2284 20.3257 14.6664 20.3257 13.3756 21.0321C12.0848 21.7394 11.2433 23.0548 11.1441 24.5238ZM16.3882 15.1185V9.82968C16.3882 9.67261 16.5155 9.54537 16.6717 9.54537H17.5685L15.4484 6.95678L13.3292 9.54627H14.226C14.3831 9.54627 14.5095 9.67351 14.5095 9.82971V15.1185C14.5639 15.1106 14.6192 15.1071 14.6744 15.1071H16.2233C16.2785 15.1071 16.333 15.1106 16.3882 15.1185ZM13.9416 15.3546V10.114H12.7298C12.6201 10.114 12.52 10.0509 12.4735 9.95258C12.4262 9.85342 12.4402 9.73671 12.5095 9.6516L15.2255 6.3329C15.2387 6.31711 15.2536 6.30219 15.2685 6.28903C15.3905 6.19074 15.5686 6.20917 15.6669 6.33027L18.3793 9.6429C18.4258 9.69467 18.4503 9.76136 18.4503 9.82981C18.4503 9.98689 18.3231 10.1132 18.1669 10.1132H16.9542V15.3547C17.1463 15.503 17.2876 15.7057 17.3613 15.9356L17.5149 16.4086V12.6642C17.5149 12.508 17.6421 12.3808 17.7983 12.3808H20.245C20.4012 12.3808 20.5284 12.508 20.5284 12.6642V17.1133C20.7118 17.0501 20.9075 17.0326 21.0988 17.0624C21.3489 17.1028 21.5805 17.2221 21.7587 17.402L22.853 18.4972L22.8538 18.4963C23.2224 18.8622 23.3119 19.4256 23.0741 19.888L22.8319 20.3645C22.7345 20.5453 22.7345 20.7638 22.8337 20.9446C22.9521 21.1683 23.0566 21.3921 23.1487 21.6185C23.2426 21.844 23.3312 22.0792 23.4049 22.3179C23.4339 22.4144 23.4857 22.503 23.5559 22.575C23.6278 22.6461 23.7164 22.6996 23.813 22.7294L24.3184 22.8953C24.816 23.0506 25.1521 23.5131 25.1477 24.0343V24.8092C25.1477 24.9662 25.0204 25.0926 24.8642 25.0926H6.03172C5.87552 25.0926 5.74828 24.9654 5.74828 24.8083V24.0334C5.7439 23.5131 6.08 23.0515 6.57579 22.8944L7.08124 22.7286C7.17865 22.6978 7.26728 22.6461 7.33923 22.5741C7.41031 22.5022 7.46208 22.4144 7.49104 22.3179C7.56563 22.0818 7.65075 21.8466 7.74464 21.6176C7.83941 21.3921 7.94471 21.1683 8.06144 20.9446C8.16147 20.7647 8.16235 20.5462 8.06407 20.3645L7.82188 19.888C7.58407 19.4256 7.6727 18.8631 8.04214 18.4972L9.13641 17.402C9.4532 17.0808 9.9253 16.9676 10.3535 17.1098V12.6643C10.3535 12.5897 10.3834 12.5168 10.436 12.4633C10.4896 12.4107 10.5624 12.3808 10.637 12.3808H13.0836C13.2398 12.3808 13.367 12.5081 13.367 12.6643V16.4534L13.3705 16.4437L13.5364 15.9365C13.6101 15.7057 13.7514 15.503 13.9427 15.3547L13.9416 15.3546ZM19.8921 17.4238L19.9614 17.3878V12.9474H18.0817V16.8981C18.2713 16.9595 18.4556 17.0288 18.6372 17.1043C18.8627 17.1991 19.0865 17.3035 19.3103 17.4211C19.491 17.5211 19.7104 17.5221 19.8921 17.4238ZM10.9201 17.3808L11.0044 17.4238C11.186 17.5221 11.4045 17.5212 11.5853 17.4211C11.8082 17.3027 12.0328 17.1982 12.2584 17.1043C12.4356 17.0315 12.6155 16.9622 12.7998 16.9016V12.9474H10.9201L10.9201 17.3808Z" fill="white"/>
</svg>
