<svg width="22" height="22" viewBox="0 0 22 22" fill="none" xmlns="http://www.w3.org/2000/svg">
<g clip-path="url(#clip0_200_12227)">
<path d="M10.7268 21.7768C16.5243 21.7768 21.2241 17.077 21.2241 11.2795C21.2241 5.48203 16.5243 0.782227 10.7268 0.782227C4.9293 0.782227 0.229492 5.48203 0.229492 11.2795C0.229492 17.077 4.9293 21.7768 10.7268 21.7768Z" fill="url(#paint0_linear_200_12227)"/>
<path d="M8.03005 10.1647L10.7183 7.47752L13.4077 10.1669L14.971 8.60245L10.7183 4.34863L6.46582 8.60115L8.03005 10.1647Z" fill="white"/>
<path d="M3.7959 11.2716L5.35937 9.70703L6.92396 11.2716L5.35937 12.8353L3.7959 11.2716Z" fill="white"/>
<path d="M8.03037 12.3722L10.7187 15.0605L13.408 12.3711L14.9725 13.9335L10.7197 18.1871L6.46582 13.9366L8.03037 12.3722Z" fill="white"/>
<path d="M14.5088 11.2716L16.0723 9.70703L17.6368 11.2705L16.0723 12.8362L14.5088 11.2716Z" fill="white"/>
<path d="M12.3057 11.2692L10.7192 9.68164L9.54609 10.8548L9.41052 10.9893L9.13281 11.267L10.7192 12.8523L12.3057 11.2702V11.2692Z" fill="white"/>
</g>
<defs>
<linearGradient id="paint0_linear_200_12227" x1="10.7268" y1="0.782227" x2="10.7268" y2="21.7768" gradientUnits="userSpaceOnUse">
<stop stop-color="#FFB508"/>
<stop offset="1" stop-color="#FC2A02"/>
</linearGradient>
<clipPath id="clip0_200_12227">
<rect width="20.9946" height="20.9946" fill="white" transform="translate(0.228516 0.782227)"/>
</clipPath>
</defs>
</svg>
