<svg width="60" height="60" viewBox="0 0 60 60" fill="none" xmlns="http://www.w3.org/2000/svg">
<g filter="url(#filter0_d_200_9785)">
<rect x="5.82422" y="5.85059" width="46.4881" height="46.4881" rx="7.40269" fill="url(#paint0_linear_200_9785)" shape-rendering="crispEdges"/>
<path d="M34.0929 31.5608C33.8244 31.2923 34.2298 30.887 34.5035 31.1502L34.9352 31.5818L36.0407 30.5974H33.6665V32.8137H36.1197V31.2976L35.13 32.182C35.0194 32.2925 34.8352 32.2925 34.7194 32.182L34.0929 31.5608ZM36.5987 30.0973L36.8356 29.8867C37.1199 29.6341 37.4989 30.0605 37.2199 30.3184L36.6935 30.7869V33.1032C36.6935 33.2611 36.5671 33.3928 36.4039 33.3928H33.377C33.219 33.3928 33.0874 33.2664 33.0874 33.1032V31.9977H27.1019C27.0124 31.9977 26.9387 31.9609 26.8808 31.8977L26.2912 31.3081C25.5542 31.7398 24.7067 32.003 23.8065 32.0504V39.6362H35.4827V36.5355C35.4827 36.3776 35.609 36.246 35.7722 36.246H38.8729V18.5791H23.8065V21.0164C25.0331 21.0796 26.1544 21.5429 27.0388 22.2799C27.1598 22.1956 27.2809 22.0851 27.4073 22.0851H33.0822V20.9796C33.0822 20.8217 33.2085 20.69 33.3717 20.69H36.3987C36.4776 20.69 36.5461 20.7216 36.5987 20.7743L36.8251 20.569C37.1093 20.3163 37.4884 20.7427 37.2094 20.9954L36.6829 21.4639V23.7697C36.6829 23.9276 36.5566 24.0592 36.3934 24.0592H33.3664C33.2085 24.0592 33.0769 23.9328 33.0769 23.7697V22.6642H27.4968L27.4704 22.6799C28.4917 23.7328 29.0918 25.1752 29.0339 26.744H33.0874V25.6332C33.0874 25.4753 33.2138 25.3437 33.377 25.3437H36.4039C36.4829 25.3437 36.5513 25.3753 36.604 25.4279L36.8356 25.2226C37.1199 24.9699 37.4989 25.3963 37.2199 25.649L36.6935 26.1175V28.4233C36.6935 28.5812 36.5671 28.7128 36.4039 28.7128H33.377C33.219 28.7128 33.0874 28.5865 33.0874 28.4233V27.3178H28.9813C28.7655 28.8023 27.96 30.1131 26.7861 30.9712L27.223 31.4081H33.0874V30.2974C33.0874 30.1394 33.2138 30.0078 33.377 30.0078H36.4039C36.4776 30.0184 36.5461 30.0447 36.5987 30.0973ZM34.0929 26.9019C33.8244 26.6334 34.2298 26.2281 34.5035 26.4965L34.9352 26.9282L36.0512 25.9333H33.6665V28.1495H36.1197V26.6439L35.1247 27.5231C35.0142 27.6336 34.8299 27.6336 34.7141 27.5231L34.0929 26.9019ZM34.0929 22.243C33.8244 21.9745 34.2298 21.5692 34.5035 21.8324L34.9352 22.2641L36.0512 21.2639H33.6612V23.4801H36.1144V21.9745L35.1247 22.8589C35.0142 22.9695 34.8299 22.9695 34.7141 22.8589L34.0929 22.243ZM25.8701 30.8817L25.2647 30.2816C24.9962 30.0184 25.4016 29.6077 25.6701 29.8762L26.3702 30.5711C27.4389 29.813 28.1864 28.6549 28.397 27.3283H28.0337C27.6547 27.3283 27.6547 26.7545 28.0337 26.7545H28.4549C28.518 25.3068 27.9548 23.9697 26.9914 23.0221L26.4913 23.3696C26.3597 23.4591 26.1807 23.4275 26.0912 23.2959C26.0017 23.1643 26.0333 22.9853 26.1649 22.8958L26.5439 22.6326C24.5804 21.1059 21.7798 21.2849 20.0215 23.0432C18.0948 24.9752 18.0948 28.1022 20.0215 30.0341C21.5639 31.5713 23.9434 31.9188 25.8701 30.8817ZM21.7376 25.8332L20.5321 25.1384V28.2548L23.2327 29.813V26.6966L21.7376 25.8332ZM21.8798 25.2542L24.5804 23.696L23.517 23.0853L22.0272 23.9434L20.8217 24.6383L21.8798 25.2542ZM25.1542 24.0276L22.4588 25.5858L23.5222 26.1965L26.2228 24.6383L25.1542 24.0276ZM23.8065 26.6966V29.813L26.5018 28.2548V25.1384L23.8065 26.6966ZM23.6854 30.5448C23.5854 30.6185 23.4591 30.6132 23.359 30.55L21.7376 29.613L20.1004 28.6707C20.011 28.6181 19.9583 28.518 19.9583 28.4233V24.6435C19.9583 24.5277 20.0267 24.4277 20.1268 24.3803L21.7376 23.4485L23.3748 22.501C23.4696 22.4483 23.5801 22.4536 23.6696 22.501L25.3174 23.4538L26.923 24.3803C27.023 24.433 27.0809 24.5277 27.0809 24.6383V28.418C27.0809 28.5338 27.0124 28.6338 26.9124 28.6812L23.6854 30.5448ZM23.2327 32.0451C20.311 31.8924 18 29.4761 18 26.5334C18 23.5907 20.311 21.1691 23.2327 21.0217V18.2895C23.2327 18.1316 23.359 18 23.5222 18H39.1624C39.3203 18 39.4519 18.1316 39.4519 18.2895V36.5303C39.4519 36.6092 39.4204 36.6777 39.3677 36.7356L35.9617 40.1416C35.9354 40.1731 35.8406 40.21 35.7775 40.21H23.517C23.359 40.21 23.2274 40.0837 23.2274 39.9205V32.0451H23.2327ZM26.0017 37.4515C25.6227 37.4515 25.6227 36.8777 26.0017 36.8777H33.6454C34.0245 36.8777 34.0245 37.4515 33.6454 37.4515H26.0017ZM26.0017 35.5827C25.6227 35.5827 25.6227 35.0089 26.0017 35.0089H30.3289C30.708 35.0089 30.708 35.5827 30.3289 35.5827H26.0017ZM38.4623 36.8145H36.0617V39.215L38.4623 36.8145Z" fill="white"/>
</g>
<defs>
<filter id="filter0_d_200_9785" x="0.272205" y="0.298572" width="59.443" height="59.443" filterUnits="userSpaceOnUse" color-interpolation-filters="sRGB">
<feFlood flood-opacity="0" result="BackgroundImageFix"/>
<feColorMatrix in="SourceAlpha" type="matrix" values="0 0 0 0 0 0 0 0 0 0 0 0 0 0 0 0 0 0 127 0" result="hardAlpha"/>
<feOffset dx="0.925336" dy="0.925336"/>
<feGaussianBlur stdDeviation="3.23867"/>
<feComposite in2="hardAlpha" operator="out"/>
<feColorMatrix type="matrix" values="0 0 0 0 0.211765 0 0 0 0 0.211765 0 0 0 0 0.211765 0 0 0 0.35 0"/>
<feBlend mode="normal" in2="BackgroundImageFix" result="effect1_dropShadow_200_9785"/>
<feBlend mode="normal" in="SourceGraphic" in2="effect1_dropShadow_200_9785" result="shape"/>
</filter>
<linearGradient id="paint0_linear_200_9785" x1="23.8855" y1="72.2716" x2="72.5455" y2="28.1805" gradientUnits="userSpaceOnUse">
<stop stop-color="#FF1717"/>
<stop offset="1" stop-color="#FF6461"/>
</linearGradient>
</defs>
</svg>
