<svg width="60" height="60" viewBox="0 0 60 60" fill="none" xmlns="http://www.w3.org/2000/svg">
<g filter="url(#filter0_d_519_733)">
<rect x="6" y="6" width="46.4881" height="46.4881" rx="7.40269" fill="url(#paint0_linear_519_733)" shape-rendering="crispEdges"/>
<g clip-path="url(#clip0_519_733)">
<path fill-rule="evenodd" clip-rule="evenodd" d="M24.9806 33.5333C23.8072 34.5761 23.3684 35.793 23.74 37.2593C23.8187 36.8286 23.986 36.419 24.2313 36.0564C24.4766 35.6938 24.7945 35.3861 25.1649 35.1528L24.9806 33.5333ZM30.163 35.1526C30.5346 35.3842 30.8535 35.6912 31.099 36.0537C31.3446 36.4163 31.5114 36.8263 31.5886 37.2573C31.9592 35.7918 31.5192 34.5754 30.3475 33.5333L30.163 35.1526ZM27.6493 38.2757C27.6576 38.3928 27.6838 38.294 27.6784 38.2774C27.673 38.2711 27.6679 38.2645 27.6632 38.2576C27.6588 38.2637 27.6542 38.2698 27.6493 38.2757ZM27.7373 33.0028C27.6639 32.5692 27.6943 32.3008 27.6639 32.3008C27.6336 32.3008 27.6639 32.5697 27.5906 33.0028C27.3758 34.5375 27.3758 36.0947 27.5906 37.6294C27.6021 37.6971 27.6109 37.7609 27.618 37.8203C27.6347 37.8359 27.6499 37.853 27.6632 37.8716C27.6768 37.8524 27.6925 37.8347 27.7099 37.8188C27.717 37.7599 27.7258 37.6966 27.7373 37.6294C27.9517 36.0946 27.9517 34.5376 27.7373 33.0028ZM26.933 37.7313C26.9069 37.5751 26.8841 37.4045 26.8621 37.2216H26.1884L26.0222 37.7313H26.933ZM28.4657 37.2216C28.4447 37.4045 28.421 37.5751 28.3946 37.7313H29.3052L29.1387 37.2216H28.4657ZM28.1927 28.3409C28.088 28.2362 27.9546 28.1649 27.8094 28.136C27.6642 28.1071 27.5137 28.1219 27.377 28.1786C27.2402 28.2352 27.1233 28.3312 27.041 28.4543C26.9588 28.5774 26.9149 28.7221 26.9149 28.8701C26.9149 29.0182 26.9588 29.1629 27.041 29.286C27.1233 29.4091 27.2402 29.505 27.377 29.5617C27.5137 29.6183 27.6642 29.6331 27.8094 29.6043C27.9546 29.5754 28.088 29.5041 28.1927 29.3994C28.3329 29.2589 28.4116 29.0686 28.4116 28.8701C28.4116 28.6717 28.3329 28.4814 28.1927 28.3409ZM27.6635 27.455C27.9433 27.455 28.2169 27.538 28.4497 27.6935C28.6824 27.849 28.8638 28.07 28.9709 28.3286C29.078 28.5872 29.106 28.8717 29.0514 29.1462C28.9968 29.4207 28.862 29.6729 28.6641 29.8708C28.4662 30.0687 28.214 30.2035 27.9395 30.2581C27.665 30.3127 27.3805 30.2847 27.1219 30.1775C26.8633 30.0704 26.6423 29.8891 26.4868 29.6563C26.3313 29.4236 26.2483 29.15 26.2483 28.8701C26.2483 28.6843 26.2849 28.5003 26.356 28.3286C26.4272 28.1569 26.5314 28.0009 26.6628 27.8695C26.7942 27.7381 26.9502 27.6338 27.1219 27.5627C27.2936 27.4916 27.4776 27.455 27.6635 27.455ZM29.116 26.6691L29.5071 27.3142C29.9985 28.1002 30.2025 29.0321 30.0845 29.9516L29.3326 36.5562H28.5259C28.6115 35.3345 28.5673 34.1072 28.3941 32.8948C28.2621 32.1167 28.0086 31.6354 27.6647 31.6354C27.3207 31.6354 27.067 32.1167 26.935 32.8948C26.7616 34.1072 26.717 35.3345 26.802 36.5562H25.9953L25.2424 29.9516C25.1866 29.4951 25.2071 29.0324 25.303 28.5827C25.471 27.8168 25.8056 27.3396 26.2031 26.684C26.6527 26.9202 27.1535 27.0424 27.6614 27.0398C28.1693 27.0372 28.6688 26.9099 29.116 26.6691ZM26.5492 26.1117C26.8938 26.2854 27.2746 26.3746 27.6604 26.3722C28.0462 26.3698 28.4258 26.2757 28.7681 26.0978L27.6747 24.2972H27.6503L26.5502 26.111L26.5492 26.1117ZM25.0681 21.1533C25.1549 21.1556 25.2374 21.1918 25.298 21.254C25.3586 21.3163 25.3925 21.3997 25.3925 21.4866C25.3925 21.5734 25.3586 21.6569 25.298 21.7191C25.2374 21.7814 25.1549 21.8175 25.0681 21.8199H24.4191C24.3745 21.8211 24.3302 21.8134 24.2887 21.7971C24.2472 21.7809 24.2094 21.7566 24.1775 21.7255C24.1456 21.6944 24.1202 21.6573 24.1029 21.6162C24.0855 21.5752 24.0766 21.5311 24.0766 21.4866C24.0766 21.442 24.0855 21.3979 24.1029 21.3569C24.1202 21.3158 24.1456 21.2787 24.1775 21.2476C24.2094 21.2166 24.2472 21.1922 24.2887 21.176C24.3302 21.1598 24.3745 21.152 24.4191 21.1533H25.0681ZM22.968 21.1533C23.0548 21.1556 23.1373 21.1918 23.1979 21.254C23.2585 21.3163 23.2924 21.3997 23.2924 21.4866C23.2924 21.5734 23.2585 21.6569 23.1979 21.7191C23.1373 21.7814 23.0548 21.8175 22.968 21.8199H22.3202C22.2334 21.8175 22.1509 21.7814 22.0903 21.7191C22.0297 21.6569 21.9958 21.5734 21.9958 21.4866C21.9958 21.3997 22.0297 21.3163 22.0903 21.254C22.1509 21.1918 22.2334 21.1556 22.3202 21.1533H22.968ZM20.8679 21.1533C20.9124 21.152 20.9568 21.1598 20.9983 21.176C21.0398 21.1922 21.0776 21.2166 21.1095 21.2476C21.1414 21.2787 21.1668 21.3158 21.1841 21.3569C21.2014 21.3979 21.2104 21.442 21.2104 21.4866C21.2104 21.5311 21.2014 21.5752 21.1841 21.6162C21.1668 21.6573 21.1414 21.6944 21.1095 21.7255C21.0776 21.7566 21.0398 21.7809 20.9983 21.7971C20.9568 21.8134 20.9124 21.8211 20.8679 21.8199H20.2179C20.1311 21.8175 20.0486 21.7814 19.988 21.7191C19.9274 21.6569 19.8935 21.5734 19.8935 21.4866C19.8935 21.3997 19.9274 21.3163 19.988 21.254C20.0486 21.1918 20.1311 21.1556 20.2179 21.1533H20.8679ZM29.0977 22.488C29.0897 22.2651 29.0958 22.042 29.1157 21.8199H26.4867C26.4421 21.8211 26.3978 21.8134 26.3563 21.7971C26.3148 21.7809 26.277 21.7566 26.2451 21.7255C26.2132 21.6944 26.1878 21.6573 26.1705 21.6162C26.1531 21.5752 26.1442 21.5311 26.1442 21.4866C26.1442 21.442 26.1531 21.3979 26.1705 21.3569C26.1878 21.3158 26.2132 21.2787 26.2451 21.2476C26.277 21.2166 26.3148 21.1922 26.3563 21.176C26.3978 21.1598 26.4421 21.152 26.4867 21.1533H29.2187C29.2801 20.8747 29.3641 20.6017 29.47 20.3368H19.6068C19.122 20.3368 18.6666 20.6763 18.6666 21.1471V22.488H29.0977ZM36.6608 27.0927V32.5961C36.6608 33.0666 36.2051 33.4062 35.7204 33.4062H31.1694C30.942 33.1675 30.6968 32.9464 30.436 32.7447L30.7458 30.0252C30.8812 28.9601 30.644 27.8811 30.0745 26.971L28.244 23.9542C28.1831 23.8549 28.0977 23.773 27.9961 23.7161C27.8944 23.6593 27.7799 23.6294 27.6635 23.6294C27.547 23.6294 27.4325 23.6593 27.3308 23.7161C27.2292 23.773 27.1438 23.8549 27.0829 23.9542L25.2536 26.9705C24.684 27.8805 24.4468 28.9596 24.5824 30.0247L24.8918 32.7442C24.6311 32.9459 24.3859 33.167 24.1585 33.4057H19.6068C19.122 33.4057 18.6666 33.0662 18.6666 32.5956V23.1546H29.1634C29.296 23.9649 29.615 24.7334 30.0952 25.3994C30.5754 26.0655 31.2037 26.6109 31.9306 26.9927C32.6576 27.3745 33.4633 27.5823 34.2842 27.5996C35.1051 27.617 35.9183 27.4435 36.6608 27.0927ZM34.3945 17C35.5328 16.9999 36.641 17.3663 37.555 18.045C38.4689 18.7237 39.1401 19.6786 39.4692 20.7684C39.7982 21.8582 39.7676 23.025 39.382 24.0961C38.9964 25.1671 38.2761 26.0856 37.3279 26.7155V32.5961C37.3279 33.4404 36.5701 34.0728 35.7209 34.0728H31.7028C31.9776 34.4805 32.175 34.9354 32.2851 35.4146C32.5191 36.4498 32.3227 37.58 31.6959 38.8052C31.6636 38.8732 31.6091 38.9281 31.5414 38.9611C31.4738 38.9941 31.3969 39.0032 31.3234 38.9868C31.2499 38.9704 31.1842 38.9296 31.1369 38.8709C31.0897 38.8123 31.0637 38.7394 31.0633 38.6641C31.0685 37.3685 30.7395 36.449 30.0762 35.9055L29.9623 36.9055C29.9595 36.9564 29.9452 37.0059 29.9203 37.0504C29.8954 37.0948 29.8607 37.133 29.8188 37.162L30.073 37.9403C30.0934 37.9909 30.101 38.0457 30.0952 38.0999C30.0894 38.1541 30.0703 38.206 30.0398 38.2512C30.0092 38.2963 29.968 38.3332 29.9197 38.3587C29.8715 38.3841 29.8178 38.3974 29.7633 38.3972H28.2264C27.9309 39.2009 27.3953 39.2009 27.1005 38.3972H25.5634C25.5089 38.3973 25.4553 38.3841 25.4072 38.3587C25.3591 38.3332 25.3179 38.2964 25.2873 38.2514C25.2568 38.2063 25.2377 38.1545 25.2318 38.1004C25.226 38.0463 25.2335 37.9916 25.2536 37.941L25.5079 37.162C25.4686 37.1349 25.4357 37.0998 25.4113 37.0588C25.3869 37.0179 25.3717 36.9722 25.3666 36.9248L25.2505 35.905C24.4826 36.5303 24.2612 37.5746 24.2631 38.6649C24.2628 38.7402 24.237 38.8132 24.1897 38.8719C24.1425 38.9306 24.0768 38.9714 24.0032 38.9878C23.9297 39.0042 23.8528 38.9952 23.7851 38.9621C23.7174 38.9291 23.663 38.874 23.6307 38.8059C23.0043 37.5804 22.8079 36.4498 23.0416 35.4141C23.1515 34.9349 23.3488 34.48 23.6236 34.0723H19.6068C18.7576 34.0723 18 33.4399 18 32.5956V21.1471C18 20.3026 18.7578 19.6702 19.6068 19.6702H29.7919C30.2554 18.8587 30.9253 18.1843 31.7337 17.7154C32.542 17.2464 33.46 16.9996 34.3945 17ZM31.9196 19.9518C31.4862 19.8533 31.0584 19.7314 30.6382 19.5865C30.1331 20.2836 29.8333 21.1083 29.7728 21.967H31.4273C31.4584 21.2696 31.6257 20.585 31.9196 19.9518ZM34.0613 20.2268C33.5692 20.2114 33.0788 20.1633 32.5931 20.083C32.2979 20.6691 32.1273 21.31 32.092 21.9653H34.0613V20.2268ZM36.1912 20.0862C35.7071 20.1661 35.2183 20.2136 34.7279 20.2285V21.9663H36.694C36.6583 21.3117 36.4875 20.6716 36.1924 20.0862H36.1912ZM38.1512 19.5865C37.7294 19.7322 37.2999 19.8547 36.8646 19.9532C37.1584 20.5854 37.3258 21.2688 37.3575 21.9651H39.0163C38.9557 21.1066 38.656 20.2823 38.1512 19.5853V19.5865ZM36.5452 19.3421C36.9309 19.261 37.3122 19.1599 37.6875 19.0392C37.0433 18.3871 36.2197 17.9412 35.3214 17.7583C35.7895 18.2369 36.2001 18.7684 36.5452 19.3421ZM34.7279 19.5621C35.1 19.5501 35.4712 19.5181 35.8399 19.4663C35.518 18.9741 35.1453 18.5171 34.7279 18.1027V19.5621ZM32.9434 19.4643C33.3141 19.517 33.6875 19.5496 34.0618 19.5621V18.0954C33.6418 18.511 33.2669 18.9699 32.9434 19.4643ZM31.1024 19.039C31.4759 19.1587 31.8552 19.2593 32.2389 19.3404C32.5826 18.7681 32.992 18.2379 33.4587 17.7605C32.5642 17.9445 31.7443 18.3894 31.1024 19.039ZM32.3357 25.2383C31.919 25.3225 31.5072 25.4297 31.1024 25.5595C31.7636 26.2293 32.6134 26.6813 33.5384 26.8551C33.0852 26.3576 32.6823 25.8164 32.3357 25.2395V25.2383ZM34.0618 25.0364C33.7221 25.0476 33.3823 25.0757 33.0424 25.1207C33.3444 25.5892 33.6854 26.0313 34.0618 26.4425V25.0364ZM35.747 25.1202C35.4074 25.0757 35.0678 25.048 34.7284 25.0371V26.4432C35.1046 26.0321 35.4454 25.5888 35.747 25.1202ZM37.688 25.5602C37.2829 25.4296 36.8707 25.3221 36.4535 25.2381C36.1073 25.8154 35.7048 26.357 35.2518 26.8549C36.1768 26.681 37.0266 26.23 37.688 25.5602ZM36.7791 24.6269C37.2437 24.7289 37.7018 24.8581 38.1512 25.0139C38.6561 24.3168 38.9558 23.4923 39.0163 22.6336H37.3413C37.2735 23.3259 37.0831 24.0013 36.7791 24.6269ZM34.7279 24.372C35.1881 24.3859 35.6469 24.4287 36.1017 24.5001C36.4052 23.9185 36.5992 23.2861 36.674 22.6344H34.7279V24.372ZM32.6872 24.5023C33.1421 24.431 33.601 24.388 34.0613 24.3737V22.6336H32.1118C32.1873 23.2863 32.3824 23.9202 32.6872 24.5023ZM30.6382 25.0156C31.0875 24.8608 31.5454 24.7321 32.0096 24.6303C31.7044 24.0041 31.513 23.3286 31.4444 22.6354H29.7728C29.8336 23.4934 30.1334 24.3174 30.6382 25.0139V25.0156Z" fill="white"/>
</g>
</g>
<defs>
<filter id="filter0_d_519_733" x="0.447986" y="0.447986" width="59.443" height="59.4391" filterUnits="userSpaceOnUse" color-interpolation-filters="sRGB">
<feFlood flood-opacity="0" result="BackgroundImageFix"/>
<feColorMatrix in="SourceAlpha" type="matrix" values="0 0 0 0 0 0 0 0 0 0 0 0 0 0 0 0 0 0 127 0" result="hardAlpha"/>
<feOffset dx="0.925336" dy="0.925336"/>
<feGaussianBlur stdDeviation="3.23867"/>
<feComposite in2="hardAlpha" operator="out"/>
<feColorMatrix type="matrix" values="0 0 0 0 0.211765 0 0 0 0 0.211765 0 0 0 0 0.211765 0 0 0 0.35 0"/>
<feBlend mode="normal" in2="BackgroundImageFix" result="effect1_dropShadow_519_733"/>
<feBlend mode="normal" in="SourceGraphic" in2="effect1_dropShadow_519_733" result="shape"/>
</filter>
<linearGradient id="paint0_linear_519_733" x1="24.0613" y1="72.421" x2="72.7213" y2="28.3299" gradientUnits="userSpaceOnUse">
<stop stop-color="#FF1717"/>
<stop offset="1" stop-color="#FF6461"/>
</linearGradient>
<clipPath id="clip0_519_733">
<rect width="22" height="22" fill="white" transform="translate(18 17)"/>
</clipPath>
</defs>
</svg>
