<svg width="75" height="75" viewBox="0 0 75 75" fill="none" xmlns="http://www.w3.org/2000/svg">
<rect width="75" height="75" rx="16" fill="#1E2235"/>
<path d="M35.7941 17.1125C36.8272 16.5211 38.1729 16.5185 39.2052 17.1125C44.3983 20.0469 49.5931 22.9767 54.7854 25.9129C55.762 26.463 56.4152 27.5499 56.4053 28.6752V46.3297C56.4126 47.5016 55.6948 48.6144 54.6644 49.1521C49.4884 52.0703 44.3149 54.9921 39.1397 57.9103C38.0852 58.5133 36.7125 58.4668 35.691 57.8145C34.1392 56.9149 32.5847 56.0197 31.0328 55.121C30.7156 54.932 30.3582 54.7815 30.1342 54.474C30.3322 54.2072 30.6861 54.174 30.9737 54.0575C31.6215 53.8515 32.2164 53.5209 32.8115 53.2C32.9619 53.0971 33.1457 53.1365 33.2899 53.2287C34.6169 53.9895 35.9321 54.7725 37.2635 55.526C37.5476 55.69 37.8352 55.4723 38.0779 55.337C43.1573 52.4662 48.2429 49.6063 53.3213 46.7347C53.5095 46.6441 53.6135 46.4444 53.5982 46.2383C53.6018 40.4144 53.5991 34.5895 53.6 28.7657C53.6215 28.5318 53.4862 28.3168 53.2747 28.2211C48.1166 25.3162 42.9611 22.4069 37.8038 19.5012C37.7145 19.4398 37.6086 19.4069 37.5002 19.4067C37.3918 19.4065 37.2858 19.4392 37.1963 19.5004C32.0391 22.4069 26.8845 25.3189 21.7272 28.2236C21.5165 28.3195 21.3751 28.5309 21.4002 28.7657C21.401 34.5895 21.4002 40.4144 21.4002 46.2392C21.3912 46.3397 21.4133 46.4406 21.4634 46.5283C21.5136 46.6159 21.5894 46.6861 21.6806 46.7293C23.0569 47.5097 24.4349 48.2847 25.812 49.0624C26.5878 49.48 27.5404 49.7281 28.3952 49.4082C29.1495 49.1377 29.6782 48.3679 29.6638 47.567C29.6709 41.7772 29.6602 35.9864 29.6692 30.1974C29.6503 29.9404 29.8941 29.728 30.144 29.7522C30.8053 29.7478 31.4674 29.7433 32.1287 29.754C32.4047 29.7478 32.5947 30.0245 32.5605 30.2835C32.5579 36.11 32.5676 41.9367 32.5561 47.7632C32.5579 49.316 31.9199 51.0057 30.4836 51.7655C28.7141 52.6821 26.527 52.4877 24.7789 51.6088C23.2655 50.8534 21.8213 49.962 20.3348 49.1528C19.3018 48.6181 18.5876 47.5008 18.5949 46.3298V28.6752C18.584 27.5266 19.2632 26.42 20.2703 25.8779C25.4455 22.9573 30.6198 20.0344 35.7941 17.1125Z" fill="#8CC84B"/>
<path d="M40.3085 29.3427C42.5656 29.1974 44.982 29.2566 47.0131 30.3686C48.5857 31.2207 49.4575 33.009 49.4853 34.7561C49.4413 34.9917 49.195 35.1217 48.97 35.1056C48.3152 35.1047 47.6601 35.1145 47.0053 35.1011C46.7275 35.1118 46.566 34.8557 46.5311 34.6101C46.343 33.7741 45.8871 32.9462 45.1003 32.543C43.8925 31.9383 42.492 31.9687 41.175 31.9814C40.2136 32.0324 39.1797 32.1157 38.3651 32.681C37.7398 33.1093 37.5498 33.9739 37.773 34.6702C37.9834 35.1701 38.5606 35.3314 39.0328 35.4801C41.7529 36.1915 44.6353 36.1207 47.3035 37.057C48.4082 37.4387 49.4888 38.1807 49.8669 39.3373C50.3616 40.8874 50.1447 42.7403 49.0419 43.9848C48.1475 45.0089 46.8448 45.5662 45.5456 45.869C43.8172 46.2544 42.0236 46.2641 40.2683 46.093C38.6178 45.9049 36.9003 45.4713 35.6261 44.3467C34.5366 43.4007 34.0045 41.9266 34.0573 40.504C34.0699 40.2637 34.3091 40.0962 34.5393 40.1159C35.1988 40.1106 35.8582 40.1088 36.5177 40.1168C36.7811 40.0979 36.9764 40.3256 36.9899 40.5739C37.1116 41.3703 37.4109 42.2062 38.1054 42.6784C39.4457 43.5431 41.1275 43.4839 42.6623 43.5081C43.9337 43.4517 45.361 43.4347 46.3986 42.5943C46.946 42.115 47.1082 41.313 46.9603 40.6231C46.8 40.0407 46.1907 39.7692 45.6674 39.5918C42.9822 38.7423 40.0675 39.0506 37.4083 38.09C36.3287 37.7085 35.2847 36.9871 34.8699 35.878C34.2912 34.3082 34.5564 32.3666 35.7748 31.1641C36.9629 29.968 38.6779 29.5074 40.3085 29.3426V29.3427Z" fill="#8CC84B"/>
</svg>
