<svg width="32" height="32" viewBox="0 0 32 32" fill="none" xmlns="http://www.w3.org/2000/svg">
<path fill-rule="evenodd" clip-rule="evenodd" d="M15.9102 29.3075C23.274 29.3075 29.2435 23.338 29.2435 15.9741C29.2435 8.61029 23.274 2.64079 15.9102 2.64079C8.54632 2.64079 2.57682 8.61029 2.57682 15.9741C2.57682 23.338 8.54632 29.3075 15.9102 29.3075ZM15.9102 30.9741C24.1944 30.9741 30.9102 24.2584 30.9102 15.9741C30.9102 7.68987 24.1944 0.974121 15.9102 0.974121C7.62591 0.974121 0.910156 7.68987 0.910156 15.9741C0.910156 24.2584 7.62591 30.9741 15.9102 30.9741Z" fill="#FF4A48" stroke="white" stroke-width="0.5"/>
<path fill-rule="evenodd" clip-rule="evenodd" d="M9.82351 19.3073C11.1194 22.5005 13.5063 24.3073 15.9111 24.3073C18.3159 24.3073 20.7028 22.5005 21.9987 19.3073H9.82351ZM15.9111 25.974C12.546 25.974 9.62926 23.434 8.19601 19.724C8.18226 19.6883 8.16859 19.6525 8.15509 19.6167C7.78151 18.624 8.57759 17.6406 9.63834 17.6406H22.1838C23.2446 17.6406 24.0407 18.624 23.6671 19.6167C23.6536 19.6525 23.6399 19.6883 23.6262 19.724C22.1929 23.434 19.2762 25.974 15.9111 25.974Z" fill="#FF4A48" stroke="white" stroke-width="0.5"/>
<path d="M13.6623 14.6762C13.7706 14.3781 13.7382 14.0139 13.6485 13.6818C13.5549 13.3355 13.3825 12.9623 13.1398 12.6157C12.656 11.9247 11.8535 11.2895 10.7695 11.2439C9.64721 11.1968 8.80854 11.9091 8.29187 12.6651C8.02979 13.0487 7.83496 13.4636 7.71279 13.8453C7.59387 14.2167 7.53079 14.5968 7.57237 14.9007C7.59162 15.0417 7.68154 15.1631 7.81071 15.2226C7.93996 15.2822 8.09062 15.2717 8.21029 15.1948C8.54312 14.9812 8.89287 14.6887 9.21604 14.4186C9.36321 14.2955 9.50496 14.1771 9.63696 14.0728C10.1055 13.7027 10.4701 13.4918 10.7725 13.4771C11.0596 13.463 11.3915 13.6277 11.8096 13.9404C11.9591 14.0523 12.1042 14.1707 12.2545 14.2933C12.308 14.337 12.3622 14.3812 12.4175 14.4258C12.6206 14.5899 12.837 14.7585 13.055 14.8903C13.1617 14.9549 13.2917 14.9682 13.4093 14.9268C13.5269 14.8853 13.6197 14.7933 13.6623 14.6762ZM18.088 14.6762C17.9797 14.3781 18.0121 14.0139 18.1019 13.6818C18.1955 13.3355 18.3678 12.9623 18.6105 12.6157C19.0944 11.9247 19.8969 11.2895 20.9808 11.2439C22.1031 11.1968 22.9418 11.9091 23.4585 12.6651C23.7206 13.0487 23.9154 13.4636 24.0376 13.8453C24.1565 14.2167 24.2195 14.5968 24.178 14.9007C24.1587 15.0417 24.0688 15.1631 23.9396 15.2226C23.8105 15.2822 23.6598 15.2717 23.54 15.1948C23.2073 14.9812 22.8575 14.6887 22.5343 14.4186C22.3871 14.2955 22.2454 14.1771 22.1134 14.0728C21.6448 13.7027 21.2802 13.4918 20.9779 13.4771C20.6908 13.463 20.3588 13.6277 19.9408 13.9404C19.7913 14.0523 19.6462 14.1707 19.4959 14.2933C19.4424 14.337 19.3881 14.3812 19.3329 14.4258C19.1297 14.5899 18.9134 14.7585 18.6954 14.8903C18.5886 14.9549 18.4587 14.9682 18.3411 14.9268C18.2235 14.8853 18.1307 14.7933 18.088 14.6762Z" fill="#FF4A48" stroke="white" stroke-width="0.5"/>
</svg>
