<svg width="31" height="31" viewBox="0 0 22 31" fill="none" xmlns="http://www.w3.org/2000/svg">
<path d="M12.9334 23.1641L10.116 25.9815L8.95924 24.5934C8.92235 24.5489 8.87704 24.5121 8.82591 24.4851C8.77478 24.4582 8.71883 24.4415 8.66127 24.4362C8.6037 24.4309 8.54566 24.437 8.49046 24.4542C8.43526 24.4713 8.38398 24.4992 8.33957 24.5362C8.29516 24.5732 8.25849 24.6186 8.23166 24.6698C8.20482 24.721 8.18836 24.777 8.1832 24.8346C8.17804 24.8922 8.18429 24.9502 8.2016 25.0054C8.2189 25.0605 8.24691 25.1117 8.28404 25.156L9.74888 26.9139C9.78796 26.9608 9.8364 26.999 9.8911 27.0262C9.9458 27.0533 10.0056 27.0688 10.0666 27.0715C10.0732 27.0718 10.0798 27.072 10.0865 27.072C10.203 27.072 10.3148 27.0257 10.3972 26.9433L13.5549 23.7856C13.6372 23.7032 13.6833 23.5914 13.6833 23.475C13.6832 23.3585 13.6369 23.2468 13.5545 23.1645C13.4722 23.0821 13.3605 23.0358 13.244 23.0358C13.1275 23.0357 13.0158 23.0819 12.9334 23.1641ZM21.1626 5.85144C21.3909 5.43387 21.4781 4.95374 21.4113 4.48258C21.3446 4.01141 21.1274 3.57443 20.7921 3.23672L18.1577 0.602348L18.1572 0.601904C18.1462 0.590973 18.1345 0.58063 18.1224 0.57092C18.1188 0.568009 18.115 0.565398 18.1113 0.562608C18.1023 0.555799 18.0931 0.549262 18.0836 0.543155C18.0794 0.540487 18.0751 0.537976 18.0709 0.535459C18.0612 0.529723 18.0514 0.524358 18.0413 0.519366C18.0372 0.517348 18.0331 0.515339 18.029 0.513458C18.018 0.508436 18.0067 0.503959 17.9953 0.499839C17.9918 0.498616 17.9885 0.49725 17.985 0.496105C17.9717 0.491686 17.9581 0.487909 17.9441 0.484776C17.9425 0.484397 17.9408 0.483846 17.9391 0.483487C17.9231 0.480028 17.9069 0.477473 17.8905 0.475834L17.8896 0.475784C17.8755 0.474434 17.8613 0.473633 17.847 0.473633H3.78445C3.77006 0.473633 3.75584 0.474434 3.74181 0.475786L3.74076 0.475836C3.72449 0.477475 3.70832 0.480026 3.69234 0.483477C3.69032 0.483905 3.68838 0.484549 3.68637 0.485007C3.67284 0.488097 3.65954 0.491745 3.64649 0.496051C3.6428 0.497281 3.6392 0.498746 3.63552 0.50007C3.62435 0.504104 3.61335 0.508467 3.6026 0.51336C3.59828 0.515334 3.59402 0.517437 3.58976 0.519554C3.57986 0.524454 3.57022 0.529696 3.56075 0.535311C3.55634 0.537922 3.55195 0.540511 3.54763 0.543286C3.53824 0.549301 3.52922 0.555746 3.52033 0.56244C3.51653 0.565312 3.51264 0.567991 3.50892 0.570981C3.49681 0.580668 3.48522 0.59099 3.4742 0.601902L3.47369 0.602352L0.839369 3.23673C0.504038 3.57443 0.286811 4.01145 0.220065 4.48265C0.153319 4.95385 0.240629 5.43401 0.46898 5.85155L7.38796 18.3967V20.8586C6.52156 21.566 5.89523 22.5241 5.59486 23.6015C5.2945 24.6789 5.33482 25.8228 5.71029 26.8764C6.08577 27.93 6.77801 28.8416 7.69206 29.4862C8.60611 30.1308 9.69721 30.4769 10.8157 30.4769C11.9342 30.4769 13.0253 30.1308 13.9393 29.4862C14.8534 28.8416 15.5456 27.93 15.9211 26.8764C16.2966 25.8228 16.3369 24.6789 16.0365 23.6015C15.7362 22.5241 15.1098 21.566 14.2434 20.8586V18.3968L21.1626 5.85144ZM17.0868 1.35254L14.9109 5.13184H6.72053L4.54457 1.35254H17.0868ZM14.4048 6.01074L10.8157 12.2445L7.22657 6.01074H14.4048ZM1.2386 5.42709C1.10158 5.17657 1.04919 4.88847 1.08924 4.60575C1.12929 4.32302 1.25964 4.06081 1.46084 3.85819L3.68975 1.62929L13.0439 17.876H8.10448L1.2386 5.42709ZM13.3645 18.7549V20.2717C12.5802 19.8529 11.7048 19.6338 10.8157 19.6338C9.92658 19.6338 9.05116 19.8529 8.26687 20.2717V18.7549H13.3645ZM15.3567 25.0537C15.3567 25.9518 15.0904 26.8298 14.5914 27.5766C14.0924 28.3233 13.3832 28.9054 12.5535 29.2491C11.7237 29.5928 10.8107 29.6827 9.92979 29.5075C9.04892 29.3323 8.23979 28.8998 7.60472 28.2647C6.96964 27.6296 6.53715 26.8205 6.36194 25.9396C6.18672 25.0587 6.27665 24.1457 6.62035 23.3159C6.96405 22.4862 7.54608 21.777 8.29285 21.278C9.03961 20.779 9.91757 20.5127 10.8157 20.5127C12.0196 20.5141 13.1739 20.9929 14.0252 21.8442C14.8765 22.6955 15.3553 23.8498 15.3567 25.0537ZM13.7868 17.4049L11.3228 13.1252L17.9417 1.62929L20.1706 3.85819C20.3717 4.06081 20.5021 4.323 20.5421 4.6057C20.5822 4.8884 20.5299 5.17648 20.393 5.42703L13.7868 17.4049Z" fill="#FF4C4A"/>
</svg>
