<svg width="30" height="30" viewBox="0 0 30 30" fill="none" xmlns="http://www.w3.org/2000/svg">
<path d="M19 6.5L17 5.5L15.5 6L14.5 7L14 8.5L15.5 10.5H18L19.5 8.5L19 6.5Z" fill="#FD1716"/>
<path d="M18.5 14L11.5 10.5L4.5 14V15.5H18.5V14Z" fill="#FD1716"/>
<path d="M18.609 13.6661L11.5758 9.96444C11.4681 9.90769 11.3386 9.90769 11.2309 9.96444L4.19774 13.6661C4.07627 13.7301 4 13.8563 4 13.9936V15.4743C4 15.6789 4.16556 15.8445 4.37017 15.8445H5.48067V22.1373H4.74033C4.53573 22.1373 4.37017 22.3029 4.37017 22.5075V23.9881C4.37017 24.1927 4.53573 24.3583 4.74033 24.3583H5.85084V25.4688C5.85084 25.6734 6.0164 25.839 6.221 25.839H16.5857C16.7903 25.839 16.9559 25.6734 16.9559 25.4688V24.3583H18.0664C18.271 24.3583 18.4365 24.1927 18.4365 23.9881V22.5075C18.4365 22.3029 18.271 22.1373 18.0664 22.1373H17.326V15.8445H18.4365C18.6411 15.8445 18.8067 15.6789 18.8067 15.4743V13.9936C18.8067 13.8563 18.7304 13.7301 18.609 13.6661ZM6.221 15.8445H7.3315V22.1373H6.221V15.8445ZM14.7348 15.8445V22.1373H8.07184V15.8445H14.7348ZM16.2155 25.0986H6.59117V24.3583H16.2155V25.0986ZM17.6962 23.618H16.5857H6.221H5.1105V22.8776H5.85084H7.70167H15.105H16.9559H17.6962V23.618ZM16.5857 22.1373H15.4752V15.8445H16.5857V22.1373ZM18.0664 15.1041H16.9559H15.105H7.70167H5.85084H4.74033V14.217L11.4033 10.7102L18.0664 14.217V15.1041Z" fill="white"/>
<path d="M9.92285 13.2541C9.92285 14.0705 10.5869 14.7348 11.4035 14.7348C12.2201 14.7348 12.8842 14.0705 12.8842 13.2541C12.8842 12.4377 12.2201 11.7734 11.4035 11.7734C10.5869 11.7734 9.92285 12.4377 9.92285 13.2541ZM12.1439 13.2541C12.1439 13.6624 11.8116 13.9944 11.4035 13.9944C10.9954 13.9944 10.6632 13.6624 10.6632 13.2541C10.6632 12.8458 10.9954 12.5138 11.4035 12.5138C11.8116 12.5138 12.1439 12.8458 12.1439 13.2541Z" fill="white"/>
<path d="M26.191 9.13818C26.1403 8.98762 25.9994 8.88622 25.8403 8.88622H19.6779C19.7249 8.67315 19.751 8.45686 19.751 8.23843C19.751 6.57485 18.4059 5.22142 16.7528 5.22142C16.2304 5.22142 15.7202 5.36555 15.2656 5.62864H12.7312V4.37011C12.7312 4.22949 12.6517 4.10098 12.5255 4.03844C12.3997 3.97627 12.249 3.99018 12.1373 4.07532L7.84852 7.33271C7.722 7.42887 7.67067 7.59498 7.72164 7.74572C7.77224 7.89628 7.91323 7.99768 8.07228 7.99768H13.7727C13.7661 8.07784 13.7582 8.15795 13.7582 8.23843C13.7582 9.80694 14.9735 11.1284 16.5417 11.2478C16.6118 11.2516 16.6823 11.2553 16.7528 11.2553L16.7538 11.2552L16.7542 11.2553H21.1814V12.5138C21.1814 12.6544 21.2609 12.7829 21.3871 12.8455C21.4392 12.8713 21.4955 12.884 21.5516 12.884C21.6311 12.884 21.7099 12.8585 21.7753 12.8086L26.0641 9.55119C26.1906 9.45503 26.2419 9.28893 26.191 9.13818ZM11.9908 5.11605V5.99881C11.9908 6.20323 12.1564 6.36898 12.361 6.36898H14.4053C14.403 6.37182 14.4015 6.37519 14.3993 6.37806C14.2985 6.50727 14.2081 6.64382 14.1298 6.78817C14.1274 6.79253 14.1254 6.79703 14.1231 6.80141C14.045 6.94725 13.9763 7.09867 13.9227 7.25734H9.17158L11.9908 5.11605ZM14.4985 8.23843C14.4985 8.06266 14.5199 7.88668 14.5625 7.71163L14.5629 7.71065C14.563 7.70991 14.5633 7.70919 14.5635 7.70844C14.5966 7.56721 14.6431 7.43145 14.7006 7.30169C14.7046 7.29279 14.7091 7.28421 14.7132 7.27535C14.7669 7.15827 14.8314 7.04732 14.9037 6.94192C14.9171 6.92251 14.9308 6.90344 14.9447 6.88442C15.0188 6.78347 15.1005 6.68815 15.1909 6.6006C15.201 6.59075 15.2109 6.58083 15.2212 6.57119C15.3236 6.47566 15.4344 6.38784 15.5552 6.3115C15.9166 6.08268 16.3306 5.96176 16.7528 5.96176C17.9978 5.96176 19.0107 6.98315 19.0107 8.23843C19.0107 8.53702 18.9514 8.83218 18.8353 9.11451C18.7889 9.22636 18.7343 9.33253 18.6727 9.43289C18.6669 9.44247 18.6595 9.45067 18.6535 9.46016C18.5955 9.55166 18.533 9.63948 18.4635 9.72041C18.4623 9.7219 18.4608 9.72314 18.4595 9.72464C18.08 10.1645 17.5411 10.4419 16.9486 10.5003C16.9445 10.5007 16.9404 10.5009 16.9363 10.5013C16.8197 10.5121 16.701 10.5151 16.5811 10.5086C15.4135 10.4195 14.4985 9.42232 14.4985 8.23843ZM21.9217 11.7679V10.8851C21.9217 10.6807 21.7562 10.5149 21.5516 10.5149H18.7215C18.7312 10.5064 18.7398 10.4967 18.7494 10.488C18.7585 10.4798 18.7669 10.4708 18.7759 10.4625C18.8682 10.3773 18.9548 10.2859 19.0362 10.1891C19.0476 10.1755 19.0596 10.1626 19.0708 10.1488C19.1544 10.0457 19.2313 9.93656 19.3015 9.82174C19.3132 9.80267 19.3237 9.78288 19.335 9.7635C19.3614 9.71799 19.3895 9.67373 19.4137 9.62656H24.741L21.9217 11.7679Z" fill="white"/>
<path d="M18.2328 8.23848C18.2328 7.42205 17.5688 6.75781 16.7522 6.75781C15.9355 6.75781 15.2715 7.42205 15.2715 8.23848C15.2715 9.05491 15.9355 9.71915 16.7522 9.71915C17.5688 9.71915 18.2328 9.05491 18.2328 8.23848ZM16.0118 8.23848C16.0118 7.83018 16.344 7.49815 16.7522 7.49815C17.1603 7.49815 17.4925 7.83018 17.4925 8.23848C17.4925 8.64679 17.1603 8.97882 16.7522 8.97882C16.344 8.97882 16.0118 8.64679 16.0118 8.23848Z" fill="white"/>
</svg>
