<svg width="30" height="30" viewBox="0 0 30 30" fill="none" xmlns="http://www.w3.org/2000/svg">
<path d="M18.082 12.6191L15.082 11.6191L12.082 12.6191L11.082 15.6191L12.082 18.6191L15.082 20.1191L18.082 18.6191L19.082 15.6191L18.082 12.6191Z" fill="#FD1716"/>
<path d="M23.082 8.11914L21.582 7.61914L20.582 8.11914L20.082 9.11914L20.582 10.1191L21.582 10.6191H22.582L23.082 9.61914V8.11914Z" fill="#FD1716"/>
<path d="M16.8348 6.53945L16.1813 5.09971L15.1346 4.70661L14.0614 5.02012L13.6683 6.06677L13.9818 7.13995L14.6619 7.87309L15.7351 7.55957L16.8348 6.53945Z" fill="#FD1716"/>
<path d="M9.85662 8.09942L8.20122 7.71834L7.15798 8.29542L6.69069 9.332L7.30286 10.2902L8.41853 10.7105L9.49799 10.6321L9.96528 9.59548L9.85662 8.09942Z" fill="#FD1716"/>
<path d="M7.16232 14.6135L5.62601 14.2367L4.66063 14.7952L4.23086 15.8033L4.80178 16.7387L5.83774 17.1519L6.83842 17.0792L7.26818 16.0711L7.16232 14.6135Z" fill="#FD1716"/>
<path d="M9.85203 21.0888L8.19939 20.7204L7.15644 21.2846L6.6879 22.2955L7.29759 23.228L8.41112 23.6356L9.48935 23.5573L9.9579 22.5464L9.85203 21.0888Z" fill="#FD1716"/>
<path d="M16.521 23.844L14.911 23.4638L13.8975 24.0345L13.4447 25.0616L14.0412 26.0126L15.1265 26.4308L16.1759 26.3546L16.6287 25.3275L16.521 23.844Z" fill="#FD1716"/>
<path d="M23.0262 21.1251L21.497 20.7081L20.541 21.3056L20.1203 22.3922L20.6936 23.4066L21.7258 23.8596L22.7199 23.7874L23.1406 22.7008L23.0262 21.1251Z" fill="#FD1716"/>
<path d="M25.6309 14.5342L24.1024 14.128L23.1457 14.7147L22.7234 15.7796L23.2952 16.7724L24.3266 17.2146L25.3207 17.1424L25.743 16.0775L25.6309 14.5342Z" fill="#FD1716"/>
<path d="M15.1046 18.7853C16.7922 18.7853 18.1652 17.4123 18.1652 15.7247C18.1652 14.0371 16.7922 12.6641 15.1046 12.6641C13.417 12.6641 12.0439 14.0371 12.0439 15.7247C12.0439 17.4123 13.417 18.7853 15.1046 18.7853ZM15.1046 12.9476C16.6359 12.9476 17.8817 14.1934 17.8817 15.7247C17.8817 17.256 16.6359 18.5018 15.1046 18.5018C13.5733 18.5018 12.3275 17.256 12.3275 15.7247C12.3275 14.1934 13.5733 12.9476 15.1046 12.9476Z" fill="white"/>
<path d="M5.64714 17.5444L7.29472 20.9511C7.28089 20.9641 7.26615 20.9757 7.25267 20.9892C6.90709 21.3347 6.71672 21.7942 6.71672 22.2829C6.71672 22.7715 6.90709 23.231 7.25267 23.5765C7.5981 23.9221 8.05749 24.1124 8.54623 24.1124C8.97373 24.1124 9.37878 23.9667 9.70485 23.699L13.2784 24.9427C13.2778 24.9617 13.2755 24.9803 13.2755 24.9995C13.2755 26.0084 14.0962 26.8291 15.105 26.8291C16.0522 26.8291 16.8334 26.1054 16.9253 25.1819L20.3319 23.5344C20.3449 23.5482 20.3566 23.563 20.3701 23.5765C20.7157 23.9221 21.175 24.1124 21.6638 24.1124C22.1525 24.1124 22.6119 23.9221 22.9573 23.5765C23.3029 23.231 23.4933 22.7715 23.4933 22.2829C23.4933 21.8554 23.3476 21.4502 23.0798 21.1243L24.3235 17.5508C24.3426 17.5514 24.3613 17.5537 24.3805 17.5537C25.3893 17.5537 26.21 16.7329 26.21 15.7241C26.21 14.7768 25.4863 13.9956 24.5629 13.9037L22.9153 10.4972C22.9291 10.4842 22.9439 10.4725 22.9573 10.4591C23.3029 10.1135 23.4933 9.65411 23.4933 9.16537C23.4933 8.67663 23.3029 8.21724 22.9573 7.87167C22.6119 7.52609 22.1524 7.33586 21.6638 7.33586C21.2363 7.33586 20.8312 7.48144 20.5051 7.74919L16.9316 6.50556C16.9322 6.48648 16.9345 6.46786 16.9345 6.44865C16.9345 5.43989 16.1138 4.61914 15.105 4.61914C14.1578 4.61914 13.3766 5.34283 13.2847 6.26628L9.87807 7.91388C9.86502 7.9 9.8535 7.88524 9.83993 7.87167C9.49435 7.52609 9.03496 7.33586 8.54623 7.33586C8.05763 7.33586 7.5981 7.52609 7.25267 7.87167C6.58273 8.54147 6.54206 9.60573 7.13029 10.3237L5.88647 13.8974C5.86738 13.8968 5.84874 13.8945 5.82951 13.8945C4.82075 13.8945 4 14.7152 4 15.7241C4 16.6713 4.72369 17.4526 5.64714 17.5444ZM6.25638 17.5013C6.96955 17.3299 7.52 16.7409 7.63488 16.0077H10.8243C10.8882 16.9784 11.274 17.8605 11.8784 18.5498L9.62257 20.8056C9.31158 20.578 8.93895 20.4533 8.54623 20.4533C8.27258 20.4533 8.00903 20.515 7.76863 20.6281L6.25638 17.5013ZM15.105 11.996C17.1606 11.996 18.833 13.6684 18.833 15.7241C18.833 17.7797 17.1606 19.4521 15.105 19.4521C13.0494 19.4521 11.377 17.7797 11.377 15.7241C11.377 13.6684 13.0494 11.996 15.105 11.996ZM8.54623 23.5453C8.2091 23.5453 7.89204 23.4139 7.65362 23.1755C7.41521 22.9371 7.28382 22.62 7.28382 22.2829C7.28382 21.9456 7.41521 21.6286 7.65362 21.3902C7.89204 21.1518 8.2091 21.0204 8.54623 21.0204C8.8835 21.0204 9.20042 21.1518 9.43897 21.3902C9.67738 21.6286 9.80878 21.9456 9.80878 22.2829C9.80878 22.62 9.67738 22.9371 9.43897 23.1755C9.20042 23.4139 8.8835 23.5453 8.54623 23.5453ZM13.3859 24.3797L10.1052 23.2379C10.2804 22.9531 10.3759 22.6257 10.3759 22.2829C10.3759 21.8902 10.2511 21.5175 10.0236 21.2065L12.2794 18.9507C12.9686 19.5551 13.8507 19.941 14.8214 20.0049V23.1943C14.1559 23.2985 13.6095 23.7616 13.3859 24.3797ZM15.105 26.262C14.4089 26.262 13.8426 25.6956 13.8426 24.9995C13.8426 24.3034 14.4089 23.7371 15.105 23.7371C15.8011 23.7371 16.3674 24.3034 16.3674 24.9995C16.3674 25.6956 15.8011 26.262 15.105 26.262ZM16.8822 24.5726C16.7108 23.8595 16.1217 23.3091 15.3886 23.1943V20.0049C16.3593 19.941 17.2414 19.5551 17.9306 18.9507L20.1864 21.2065C19.9589 21.5175 19.8341 21.8902 19.8341 22.2829C19.8341 22.5565 19.8958 22.8201 20.009 23.0605L16.8822 24.5726ZM22.5564 23.1755C22.318 23.4139 22.0009 23.5453 21.6638 23.5453C21.3265 23.5453 21.0096 23.4139 20.771 23.1755C20.5326 22.9371 20.4012 22.62 20.4012 22.2829C20.4012 21.9456 20.5326 21.6286 20.771 21.3902C21.0096 21.1518 21.3265 21.0204 21.6638 21.0204C22.0009 21.0204 22.318 21.1518 22.5564 21.3902C22.7948 21.6286 22.9262 21.9456 22.9262 22.2829C22.9262 22.62 22.7948 22.9371 22.5564 23.1755ZM22.6187 20.724C22.334 20.5488 22.0066 20.4533 21.6638 20.4533C21.2711 20.4533 20.8984 20.578 20.5874 20.8056L18.3316 18.5498C18.936 17.8605 19.3218 16.9784 19.3857 16.0077H22.5751C22.6794 16.6732 23.1424 17.2196 23.7606 17.4432L22.6187 20.724ZM25.6429 15.7241C25.6429 16.4203 25.0766 16.9866 24.3805 16.9866C23.6843 16.9866 23.1179 16.4203 23.1179 15.7241C23.1179 15.028 23.6843 14.4616 24.3805 14.4616C25.0766 14.4616 25.6429 15.028 25.6429 15.7241ZM23.9536 13.9468C23.2404 14.1182 22.69 14.7073 22.5751 15.4406H19.3857C19.3218 14.4699 18.936 13.5877 18.3316 12.8985L20.5874 10.6427C20.8984 10.8703 21.2711 10.995 21.6638 10.995C21.9374 10.995 22.201 10.9333 22.4414 10.8201L23.9536 13.9468ZM21.6638 7.90296C22.0009 7.90296 22.318 8.03421 22.5564 8.27263C23.0486 8.76496 23.0486 9.56577 22.5564 10.0581C22.318 10.2965 22.0009 10.4279 21.6638 10.4279C21.3265 10.4279 21.0096 10.2965 20.771 10.0581C20.2788 9.56577 20.2788 8.76496 20.771 8.27263C21.0094 8.03421 21.3265 7.90296 21.6638 7.90296ZM16.8241 7.06852L20.1053 8.21041C19.7221 8.8359 19.7494 9.64175 20.1867 10.2415L17.9307 12.4975C17.2414 11.8931 16.3593 11.5072 15.3886 11.4433V8.25402C16.054 8.14975 16.6005 7.68669 16.8241 7.06852ZM15.105 5.18624C15.8011 5.18624 16.3674 5.75251 16.3674 6.44865C16.3674 7.14479 15.8011 7.7112 15.105 7.7112C14.4089 7.7112 13.8426 7.14479 13.8426 6.44865C13.8426 5.75251 14.4089 5.18624 15.105 5.18624ZM13.3278 6.87552C13.4992 7.58869 14.0883 8.13914 14.8214 8.25402V11.4433C13.8507 11.5072 12.9686 11.8931 12.2793 12.4975L10.0233 10.2415C10.4202 9.69716 10.4792 8.98334 10.2003 8.38813L13.3278 6.87552ZM7.65362 8.27263C7.89204 8.03421 8.2091 7.90296 8.54623 7.90296C8.8835 7.90296 9.20055 8.03421 9.43897 8.27263C9.93117 8.76496 9.93117 9.56577 9.43897 10.0581C9.20042 10.2965 8.8835 10.4279 8.54623 10.4279C8.2091 10.4279 7.89204 10.2965 7.65362 10.0581C7.16142 9.56577 7.16142 8.76496 7.65362 8.27263ZM7.59125 10.7243C7.876 10.8995 8.2034 10.995 8.54623 10.995C8.93895 10.995 9.31158 10.8703 9.62257 10.6427L11.8784 12.8985C11.274 13.5877 10.8882 14.4699 10.8243 15.4406H7.63488C7.53063 14.775 7.06757 14.2286 6.44943 14.0049L7.59125 10.7243ZM5.82951 14.4616C6.52565 14.4616 7.09206 15.028 7.09206 15.7241C7.09206 16.4203 6.52565 16.9866 5.82951 16.9866C5.13337 16.9866 4.5671 16.4203 4.5671 15.7241C4.5671 15.028 5.13337 14.4616 5.82951 14.4616Z" fill="white"/>
<path d="M13.8759 17.1052C14.0227 17.4055 14.2199 17.544 14.5639 17.544H14.5869H14.5938H14.9056V18.131H14.9125H15.3722H15.3791V17.544H15.6909H15.6978H15.7208C16.0648 17.544 16.262 17.4055 16.4088 17.1052L16.702 16.5084H16.1906L16.0098 16.879C15.9232 17.0574 15.8758 17.0797 15.6978 17.0817V17.0809H15.6909H14.5938H14.5869V17.0817C14.4089 17.0797 14.3615 17.0574 14.2749 16.879L13.8851 16.0799C13.83 15.969 13.7888 15.8905 13.7888 15.7611C13.7888 15.618 13.8254 15.5348 13.8851 15.4101L14.2842 14.6064C14.369 14.4354 14.4029 14.4137 14.5869 14.4127V14.4138H14.5938H15.6909H15.6978V14.4127C15.8818 14.4137 15.9157 14.4354 16.0005 14.6064L16.1666 14.9409H16.6744L16.4042 14.394C16.2483 14.0752 16.0511 13.9506 15.6978 13.9506H15.6909H15.3791V13.3184H15.3722H14.9125H14.9056V13.9506H14.5938H14.5869C14.2336 13.9506 14.0364 14.0752 13.8805 14.394L13.4584 15.2485C13.3667 15.4332 13.3301 15.5579 13.3301 15.7611C13.3301 15.9413 13.3759 16.0891 13.4539 16.2461L13.8759 17.1052Z" fill="white"/>
</svg>
