<svg width="30" height="30" viewBox="0 0 30 30" fill="none" xmlns="http://www.w3.org/2000/svg">
<circle cx="11.5" cy="11.5" r="7.5" fill="#FD1716"/>
<path d="M25.1694 11.6348H20.658C20.5659 11.6348 20.4777 11.6713 20.4126 11.7364C20.3475 11.8015 20.3109 11.8898 20.3109 11.9818C20.3109 12.0738 20.3475 12.1621 20.4126 12.2272C20.4777 12.2923 20.5659 12.3288 20.658 12.3288H25.1694C25.2614 12.3288 25.3497 12.3654 25.4148 12.4305C25.4798 12.4956 25.5164 12.5838 25.5164 12.6759V16.4932H24.1283V14.064C24.1283 13.9719 24.0917 13.8837 24.0266 13.8186C23.9616 13.7535 23.8733 13.717 23.7812 13.717H21.352C21.26 13.717 21.1717 13.7535 21.1066 13.8186C21.0416 13.8837 21.005 13.9719 21.005 14.064C21.005 14.156 21.0416 14.2443 21.1066 14.3094C21.1717 14.3745 21.26 14.411 21.352 14.411H23.4342V16.4932H21.005C20.3607 16.4932 19.7428 16.7491 19.2873 17.2047C18.8317 17.6603 18.5758 18.2782 18.5758 18.9224C18.5758 19.5667 18.8317 20.1846 19.2873 20.6401C19.7428 21.0957 20.3607 21.3516 21.005 21.3516H23.4342V23.4338H9.20594V20.6576C9.20594 20.5655 9.16937 20.4773 9.10429 20.4122C9.03921 20.3471 8.95094 20.3105 8.85891 20.3105C8.76687 20.3105 8.6786 20.3471 8.61352 20.4122C8.54844 20.4773 8.51187 20.5655 8.51187 20.6576V23.7809C8.51187 23.8729 8.54844 23.9612 8.61352 24.0262C8.6786 24.0913 8.76687 24.1279 8.85891 24.1279H23.7812C23.8733 24.1279 23.9616 24.0913 24.0266 24.0262C24.0917 23.9612 24.1283 23.8729 24.1283 23.7809V21.3516H25.5164V25.169C25.5164 25.261 25.4798 25.3493 25.4148 25.4144C25.3497 25.4795 25.2614 25.516 25.1694 25.516H7.47078C7.37874 25.516 7.29047 25.4795 7.22539 25.4144C7.16031 25.3493 7.12375 25.261 7.12375 25.169V19.2695C7.12375 19.1774 7.08719 19.0891 7.02211 19.0241C6.95703 18.959 6.86876 18.9224 6.77672 18.9224C6.68468 18.9224 6.59641 18.959 6.53133 19.0241C6.46625 19.0891 6.42969 19.1774 6.42969 19.2695V25.169C6.42969 25.4451 6.53937 25.7099 6.73462 25.9051C6.92986 26.1004 7.19467 26.2101 7.47078 26.2101H25.1694C25.4455 26.2101 25.7103 26.1004 25.9055 25.9051C26.1008 25.7099 26.2105 25.4451 26.2105 25.169V12.6759C26.2105 12.3997 26.1008 12.1349 25.9055 11.9397C25.7103 11.7445 25.4455 11.6348 25.1694 11.6348ZM21.005 20.6576C20.5448 20.6576 20.1035 20.4748 19.7781 20.1494C19.4527 19.824 19.2698 19.3826 19.2698 18.9224C19.2698 18.4622 19.4527 18.0209 19.7781 17.6955C20.1035 17.3701 20.5448 17.1873 21.005 17.1873H25.5164V20.6576H21.005Z" fill="white"/>
<path d="M19.2694 11.6347C19.2694 10.1247 18.8216 8.6486 17.9827 7.39309C17.1438 6.13757 15.9514 5.15901 14.5564 4.58116C13.1613 4.00331 11.6262 3.85212 10.1452 4.1467C8.66425 4.44129 7.30388 5.16842 6.23615 6.23615C5.16842 7.30388 4.44129 8.66425 4.1467 10.1452C3.85212 11.6262 4.00331 13.1613 4.58116 14.5564C5.15901 15.9514 6.13757 17.1438 7.39309 17.9827C8.6486 18.8216 10.1247 19.2694 11.6347 19.2694C13.6595 19.2694 15.6014 18.465 17.0332 17.0332C18.465 15.6014 19.2694 13.6595 19.2694 11.6347ZM9.2367 15.105H14.0327C13.5156 17.2635 12.5543 18.5753 11.6347 18.5753C10.7151 18.5753 9.75378 17.2635 9.2367 15.105ZM4.7253 11.9817H8.16438C8.17802 12.796 8.25342 13.6081 8.38995 14.4109H5.26667C4.9344 13.642 4.7462 12.8186 4.71142 11.9817H4.7253ZM11.6347 4.69407C12.5543 4.69407 13.5156 6.00584 14.0327 8.16438H9.2367C9.75378 6.00584 10.7151 4.69407 11.6347 4.69407ZM14.175 8.85844C14.317 9.66076 14.3959 10.473 14.4109 11.2877H8.85844C8.87116 10.4732 8.94774 9.66095 9.08748 8.85844H14.175ZM18.5753 11.2877H15.105C15.0914 10.4734 15.016 9.66131 14.8794 8.85844H18.0027C18.3409 9.62621 18.535 10.4497 18.5753 11.2877ZM18.5753 11.9817C18.5372 12.8193 18.3455 13.6427 18.0097 14.4109H14.8864C15.0206 13.6079 15.0937 12.7958 15.105 11.9817H18.5753ZM8.16438 11.2877H4.69407C4.73214 10.4501 4.92388 9.62667 5.25973 8.85844H8.38301C8.24881 9.66149 8.17572 10.4736 8.16438 11.2877ZM8.85844 11.9817H14.4109C14.3982 12.7962 14.3216 13.6084 14.1819 14.4109H9.09442C8.95235 13.6086 8.87345 12.7964 8.85844 11.9817ZM13.297 18.3671C14.0215 17.4054 14.5133 16.2888 14.7337 15.105H17.6349C17.168 15.9123 16.5433 16.6172 15.798 17.1777C15.0527 17.7381 14.2021 18.1427 13.297 18.3671ZM17.6349 8.16438H14.7337C14.5133 6.9806 14.0215 5.86401 13.297 4.90228C14.2021 5.12672 15.0527 5.53125 15.798 6.09172C16.5433 6.6522 17.168 7.35711 17.6349 8.16438ZM9.97241 4.90228C9.24785 5.86401 8.75608 6.9806 8.5357 8.16438H5.63452C6.10135 7.35711 6.72607 6.6522 7.47138 6.09172C8.21668 5.53125 9.06729 5.12672 9.97241 4.90228ZM5.63452 15.105H8.5357C8.75608 16.2888 9.24785 17.4054 9.97241 18.3671C9.06729 18.1427 8.21668 17.7381 7.47138 17.1777C6.72607 16.6172 6.10135 15.9123 5.63452 15.105Z" fill="white"/>
<path d="M21.005 17.8809C20.7991 17.8809 20.5978 17.9419 20.4266 18.0563C20.2554 18.1707 20.1219 18.3333 20.0431 18.5235C19.9643 18.7138 19.9437 18.9231 19.9839 19.1251C20.024 19.327 20.1232 19.5125 20.2688 19.6581C20.4144 19.8037 20.5999 19.9029 20.8019 19.943C21.0038 19.9832 21.2131 19.9626 21.4034 19.8838C21.5936 19.805 21.7562 19.6716 21.8706 19.5004C21.985 19.3291 22.0461 19.1279 22.0461 18.922C22.0461 18.6458 21.9364 18.381 21.7411 18.1858C21.5459 17.9905 21.2811 17.8809 21.005 17.8809ZM21.005 19.269C20.9363 19.269 20.8692 19.2486 20.8122 19.2105C20.7551 19.1724 20.7106 19.1182 20.6843 19.0548C20.6581 18.9913 20.6512 18.9216 20.6646 18.8543C20.678 18.7869 20.711 18.7251 20.7596 18.6766C20.8081 18.628 20.8699 18.595 20.9373 18.5816C21.0046 18.5682 21.0744 18.5751 21.1378 18.6013C21.2012 18.6276 21.2554 18.6721 21.2935 18.7292C21.3316 18.7862 21.352 18.8533 21.352 18.922C21.352 19.014 21.3154 19.1023 21.2503 19.1673C21.1853 19.2324 21.097 19.269 21.005 19.269Z" fill="white"/>
</svg>
