<svg width="30" height="30" viewBox="0 0 30 30" fill="none" xmlns="http://www.w3.org/2000/svg">
<circle cx="22" cy="18.9941" r="4" fill="#FD1716"/>
<path d="M11 14.9941L9.5 12.4941L7.5 14.9941L8.5 15.4941V18.9941L8 19.4941L9.5 21.4941L10.5 18.9941H10V17.9941V15.4941L11 14.9941Z" fill="#FD1716"/>
<path d="M4.39099 23.4033C4.18991 23.4033 4.02539 23.2387 4.02539 23.0377C4.02539 22.8366 4.18991 22.6721 4.39099 22.6721H5.62488C5.82595 22.6721 5.99047 22.8366 5.99047 23.0377C5.99047 23.2387 5.82595 23.4033 5.62488 23.4033H4.39099ZM12.2742 23.4033C12.0731 23.4033 11.9086 23.2387 11.9086 23.0377C11.9086 22.8366 12.0731 22.6721 12.2742 22.6721H12.9551V21.0634C12.9551 20.9218 13.0328 20.8029 13.147 20.739V19.0846C13.147 18.8836 13.3115 18.719 13.5126 18.719H14.189V17.476H14.061C13.8599 17.476 13.6954 17.3115 13.6954 17.1104V15.5018H13.3207C13.1196 15.5018 12.9551 15.3373 12.9551 15.1362V13.162C12.9551 12.9609 13.1196 12.7964 13.3207 12.7964H13.8874V11.5533H12.2742C12.0731 11.5533 11.9086 11.3888 11.9086 11.1878C11.9086 10.9867 12.0731 10.8222 12.2742 10.8222H12.9551V9.21353C12.9551 9.01245 13.1196 8.84793 13.3207 8.84793H13.4212V7.23474C13.4212 7.03366 13.5857 6.86914 13.7868 6.86914H22.127C22.3281 6.86914 22.4926 7.03366 22.4926 7.23474V9.20896C22.4926 9.41004 22.3281 9.57456 22.127 9.57456H22.0265V10.8176H22.5931C22.7942 10.8176 22.9587 10.9821 22.9587 11.1832V13.1574C22.9587 13.3585 22.7942 13.523 22.5931 13.523H22.0265V14.5101C24.38 14.6335 26.2354 16.5803 26.2354 18.9521C26.2354 21.4062 24.2429 23.3987 21.7888 23.3987H12.2742V23.4033ZM9.64644 23.4033C9.44536 23.4033 9.28084 23.2387 9.28084 23.0377C9.28084 22.8366 9.44536 22.6721 9.64644 22.6721H10.8803C11.0814 22.6721 11.2459 22.8366 11.2459 23.0377C11.2459 23.2387 11.0814 23.4033 10.8803 23.4033H9.64644ZM7.01871 23.4033C6.81764 23.4033 6.65312 23.2387 6.65312 23.0377C6.65312 22.8366 6.81764 22.6721 7.01871 22.6721H8.2526C8.45368 22.6721 8.6182 22.8366 8.6182 23.0377C8.6182 23.2387 8.45368 23.4033 8.2526 23.4033H7.01871ZM4.39099 11.5488C4.18991 11.5488 4.02539 11.3843 4.02539 11.1832C4.02539 10.9821 4.18991 10.8176 4.39099 10.8176H5.62488C5.82595 10.8176 5.99047 10.9821 5.99047 11.1832C5.99047 11.3843 5.82595 11.5488 5.62488 11.5488H4.39099ZM9.64644 11.5488C9.44536 11.5488 9.28084 11.3843 9.28084 11.1832C9.28084 10.9821 9.44536 10.8176 9.64644 10.8176H10.8803C11.0814 10.8176 11.2459 10.9821 11.2459 11.1832C11.2459 11.3843 11.0814 11.5488 10.8803 11.5488H9.64644ZM7.01871 11.5488C6.81764 11.5488 6.65312 11.3843 6.65312 11.1832C6.65312 10.9821 6.81764 10.8176 7.01871 10.8176H8.2526C8.45368 10.8176 8.6182 10.9821 8.6182 11.1832C8.6182 11.3843 8.45368 11.5488 8.2526 11.5488H7.01871ZM20.2807 19.9986C20.2625 19.7976 20.4087 19.6239 20.6098 19.6056C20.8108 19.5873 20.9845 19.7336 21.0028 19.9347C21.0485 20.4145 21.8802 20.6658 22.3601 20.2728C22.4835 20.1723 22.5611 20.0352 22.5611 19.8935C22.5611 18.9201 20.2716 19.793 20.2716 18.0198C20.2716 17.3755 20.7926 16.8911 21.4095 16.7585V16.4615C21.4095 16.2558 21.5695 16.0959 21.7843 16.0959C21.9899 16.0959 22.1544 16.265 22.1498 16.4661L22.1407 16.754C22.7622 16.8865 23.2878 17.3709 23.2878 18.0153C23.2878 18.2163 23.1232 18.3809 22.9222 18.3809C22.7211 18.3809 22.5566 18.2163 22.5566 18.0153C22.5566 17.5126 21.6929 17.2338 21.1993 17.636C21.0759 17.7365 20.9982 17.8736 20.9982 18.0153C20.9982 18.9887 23.2878 18.1158 23.2878 19.889C23.2878 20.5333 22.7622 21.0177 22.1407 21.1503L22.1361 21.4473C22.1361 21.6484 21.9716 21.8129 21.7705 21.8129C21.5695 21.8129 21.4049 21.6484 21.4049 21.4473V21.1503C20.8383 21.0269 20.3401 20.5973 20.2807 19.9986ZM19.3439 22.6721C18.8458 22.343 18.4208 21.9226 18.0917 21.429H13.6909V22.6721H19.3439ZM17.6941 20.6978C17.5296 20.3094 17.4154 19.889 17.3697 19.4548H13.8828V20.6978H17.6941ZM17.3422 18.7236C17.3651 18.2895 17.4519 17.869 17.589 17.4806H14.9202V18.7236H17.3422ZM17.9226 16.7448C18.1968 16.265 18.5533 15.8445 18.9829 15.5018H14.4266V16.7448H17.9226ZM20.2716 14.7706C20.5961 14.6518 20.9388 14.5741 21.2907 14.533V13.523C18.7544 13.523 16.218 13.523 13.6817 13.523V14.7706H20.2716ZM24.4165 16.329C22.9633 14.8757 20.6098 14.8757 19.1565 16.329C17.7078 17.7776 17.7078 20.1357 19.1565 21.5844C20.6098 23.0377 22.9633 23.0377 24.4165 21.5844C25.8698 20.1312 25.8652 17.7776 24.4165 16.329ZM8.91982 21.9134L7.13296 19.1852C6.97301 18.9384 7.15124 18.6185 7.43915 18.6185H8.19776V15.6069H7.43915C7.15581 15.6069 6.96387 15.287 7.1421 15.0265L8.92439 12.3028C9.06605 12.0835 9.39509 12.0789 9.54133 12.3074L11.3282 15.0402C11.4881 15.287 11.3099 15.6069 11.022 15.6069H10.2634V18.6185H11.022C11.3053 18.6185 11.4973 18.9384 11.319 19.1989L9.53676 21.9226C9.39052 22.1465 9.06148 22.1374 8.91982 21.9134ZM8.64105 20.154L9.23057 21.0543L10.3456 19.3497H9.89779C9.69671 19.3497 9.53219 19.1852 9.53219 18.9841V15.2413C9.53219 15.0402 9.69671 14.8757 9.89779 14.8757H10.3456L9.23057 13.1711L8.1155 14.8757H8.56336C8.76444 14.8757 8.92896 15.0402 8.92896 15.2413V18.9841C8.92896 19.1852 8.76444 19.3497 8.56336 19.3497H8.1155L8.64105 20.154ZM22.2275 11.5488C19.6912 11.5488 17.1549 11.5488 14.6186 11.5488V12.7918H22.2275V11.5488ZM13.6863 10.8176H21.2953V9.57456C18.7589 9.57456 16.2226 9.57456 13.6863 9.57456V10.8176ZM21.7614 7.60033H14.1524V8.84336H21.7614V7.60033Z" fill="white"/>
</svg>
