<svg width="114" height="114" viewBox="0 0 114 114" fill="none" xmlns="http://www.w3.org/2000/svg">
<g filter="url(#filter0_d_200_12207)">
<rect x="31.5049" y="11.7441" width="50.2371" height="50.2371" rx="10.4373" fill="white"/>
<g clip-path="url(#clip0_200_12207)">
<g clip-path="url(#clip1_200_12207)">
<g clip-path="url(#clip2_200_12207)">
<path d="M52.3499 36.3191C53.1355 36.3191 53.9035 36.0861 54.5566 35.6496C55.2098 35.2131 55.7189 34.5928 56.0195 33.8669C56.32 33.1411 56.3986 32.3425 56.2452 31.572C56.0919 30.8015 55.7135 30.0938 55.1579 29.5384C54.6023 28.983 53.8944 28.6048 53.1239 28.4518C52.3534 28.2987 51.5547 28.3775 50.829 28.6783C50.1033 28.9792 49.4831 29.4885 49.0468 30.1418C48.6106 30.7951 48.3779 31.5632 48.3782 32.3487C48.3797 33.4015 48.7987 34.4107 49.5433 35.155C50.2878 35.8993 51.2971 36.3179 52.3499 36.3191ZM52.3499 28.9345C53.025 28.9345 53.6848 29.1347 54.2461 29.5097C54.8074 29.8847 55.2449 30.4178 55.5032 31.0414C55.7615 31.6651 55.8291 32.3514 55.6974 33.0134C55.5657 33.6755 55.2407 34.2837 54.7633 34.761C54.286 35.2383 53.6778 35.5634 53.0158 35.6951C52.3537 35.8268 51.6674 35.7592 51.0438 35.5009C50.4201 35.2425 49.8871 34.8051 49.512 34.2438C49.137 33.6825 48.9368 33.0226 48.9368 32.3476C48.9378 31.4427 49.2977 30.5751 49.9376 29.9353C50.5774 29.2954 51.445 28.9355 52.3499 28.9345ZM52.3499 37.6966C53.5925 37.6949 54.7958 37.2615 55.754 36.4704C56.7121 35.6793 57.3656 34.5798 57.6024 33.36H63.1235V34.9248C63.124 34.979 63.1401 35.0318 63.1699 35.077C63.1997 35.1222 63.242 35.1578 63.2917 35.1795C63.3413 35.2012 63.3962 35.208 63.4496 35.1991C63.503 35.1903 63.5527 35.1661 63.5927 35.1296L67.5736 31.4416C67.6017 31.4154 67.624 31.3837 67.6393 31.3485C67.6547 31.3132 67.6626 31.2752 67.6626 31.2368C67.6626 31.1984 67.6547 31.1604 67.6393 31.1252C67.624 31.0899 67.6017 31.0582 67.5736 31.032L63.5923 27.344C63.5523 27.3077 63.5026 27.2836 63.4492 27.2749C63.3959 27.2661 63.3411 27.273 63.2916 27.2946C63.242 27.3163 63.1998 27.3518 63.17 27.3969C63.1402 27.442 63.124 27.4948 63.1235 27.5488V29.1136H56.6075C56.0569 28.3886 55.3304 27.8162 54.4967 27.4505C53.663 27.0848 52.7498 26.938 51.8435 27.0239C50.9372 27.1098 50.0679 27.4256 49.3178 27.9415C48.5677 28.4573 47.9616 29.1561 47.5571 29.9716C47.1525 30.7871 46.9629 31.6924 47.006 32.6018C47.0492 33.5111 47.3237 34.3944 47.8036 35.1679C48.2836 35.9415 48.953 36.5797 49.7486 37.0222C50.5442 37.4647 51.4396 37.6968 52.3499 37.6966ZM63.4024 29.6723C63.4392 29.6723 63.4756 29.665 63.5096 29.6509C63.5436 29.6369 63.5745 29.6162 63.6006 29.5902C63.6266 29.5642 63.6472 29.5333 63.6613 29.4993C63.6754 29.4653 63.6827 29.4288 63.6827 29.392V28.1888L66.9727 31.2368L63.6817 34.2844V33.0807C63.6817 33.0064 63.6522 32.9351 63.5996 32.8825C63.5471 32.83 63.4758 32.8004 63.4015 32.8004H57.6795C57.6921 32.6507 57.6989 32.4994 57.6989 32.3466C57.7002 31.4074 57.4526 30.4846 56.9812 29.6723H63.4024ZM52.3499 27.5582C53.2974 27.5582 54.2237 27.8392 55.0115 28.3656C55.7994 28.8921 56.4134 29.6403 56.7759 30.5157C57.1385 31.3912 57.2333 32.3545 57.0483 33.2838C56.8634 34.2131 56.407 35.0667 55.7369 35.7366C55.0668 36.4065 54.2131 36.8627 53.2838 37.0474C52.3544 37.2321 51.3912 37.1371 50.5158 36.7743C49.6405 36.4115 48.8924 35.7973 48.3661 35.0094C47.8399 34.2214 47.5591 33.2951 47.5593 32.3476C47.5611 31.0777 48.0664 29.8603 48.9645 28.9625C49.8625 28.0646 51.08 27.5596 52.3499 27.5582ZM62.6401 37.8082C61.8545 37.8082 61.0865 38.0412 60.4334 38.4777C59.7802 38.9141 59.2711 39.5345 58.9705 40.2603C58.67 40.9862 58.5914 41.7848 58.7448 42.5553C58.8981 43.3258 59.2765 44.0335 59.8321 44.5889C60.3877 45.1443 61.0956 45.5224 61.8661 45.6755C62.6366 45.8286 63.4353 45.7498 64.161 45.4489C64.8867 45.1481 65.5069 44.6388 65.9432 43.9855C66.3794 43.3322 66.6121 42.5641 66.6118 41.7785C66.6103 40.7258 66.1913 39.7166 65.4467 38.9723C64.7022 38.228 63.6929 37.8094 62.6401 37.8082ZM62.6401 45.1928C61.965 45.1928 61.3052 44.9926 60.7439 44.6176C60.1826 44.2425 59.7451 43.7095 59.4868 43.0858C59.2285 42.4622 59.1609 41.7759 59.2926 41.1138C59.4243 40.4518 59.7493 39.8436 60.2267 39.3663C60.704 38.889 61.3122 38.5639 61.9742 38.4322C62.6363 38.3005 63.3226 38.3681 63.9462 38.6264C64.5699 38.8847 65.1029 39.3222 65.478 39.8835C65.853 40.4448 66.0532 41.1047 66.0532 41.7797C66.0522 42.6846 65.6923 43.5522 65.0524 44.192C64.4125 44.8319 63.545 45.1918 62.6401 45.1928ZM62.6401 36.4307C61.3975 36.4324 60.1942 36.8658 59.236 37.6569C58.2779 38.448 57.6244 39.5475 57.3876 40.7673H51.8665V39.2025C51.866 39.1483 51.8499 39.0954 51.8201 39.0502C51.7903 39.005 51.748 38.9695 51.6983 38.9478C51.6487 38.9261 51.5938 38.9193 51.5404 38.9282C51.487 38.937 51.4373 38.9611 51.3973 38.9977L47.4164 42.6856C47.3883 42.7119 47.366 42.7436 47.3507 42.7788C47.3353 42.814 47.3274 42.852 47.3274 42.8905C47.3274 42.9289 47.3353 42.9669 47.3507 43.0021C47.366 43.0373 47.3883 43.0691 47.4164 43.0953L51.3977 46.7833C51.4377 46.8196 51.4874 46.8436 51.5408 46.8524C51.5941 46.8612 51.6489 46.8543 51.6984 46.8327C51.748 46.811 51.7902 46.7755 51.82 46.7304C51.8498 46.6853 51.866 46.6325 51.8665 46.5784V45.0137H58.3825C58.9331 45.7386 59.6596 46.3111 60.4933 46.6768C61.327 47.0425 62.2402 47.1893 63.1465 47.1034C64.0528 47.0175 64.9221 46.7017 65.6722 46.1858C66.4223 45.67 67.0284 44.9712 67.4329 44.1557C67.8375 43.3402 68.0271 42.4349 67.984 41.5255C67.9408 40.6162 67.6663 39.7329 67.1864 38.9594C66.7064 38.1858 66.037 37.5475 65.2414 37.105C64.4458 36.6625 63.5504 36.4304 62.6401 36.4307ZM51.5876 44.455C51.5133 44.455 51.442 44.4845 51.3894 44.5371C51.3369 44.5897 51.3073 44.6609 51.3073 44.7353V45.9385L48.0173 42.8905L51.3083 39.8429V41.0473C51.3083 41.0841 51.3155 41.1205 51.3296 41.1545C51.3437 41.1885 51.3643 41.2194 51.3904 41.2455C51.4164 41.2715 51.4473 41.2921 51.4813 41.3062C51.5153 41.3203 51.5517 41.3275 51.5885 41.3275H57.3105C57.2979 41.4775 57.2911 41.6288 57.2911 41.7816C57.29 42.7205 57.5376 43.6429 58.0088 44.455H51.5876ZM62.6401 46.5703C61.6926 46.5703 60.7664 46.2893 59.9786 45.7629C59.1908 45.2365 58.5768 44.4883 58.2142 43.613C57.8516 42.7376 57.7567 41.7744 57.9416 40.8451C58.1264 39.9158 58.5827 39.0622 59.2527 38.3923C59.9226 37.7223 60.7762 37.266 61.7055 37.0812C62.6348 36.8963 63.598 36.9912 64.4734 37.3538C65.3487 37.7164 66.0969 38.3304 66.6233 39.1182C67.1497 39.906 67.4307 40.8322 67.4307 41.7797C67.4292 43.0498 66.9241 44.2675 66.026 45.1656C65.1279 46.0637 63.9102 46.5688 62.6401 46.5703ZM61.9819 40.8425C61.9819 41.3254 62.4687 41.4656 62.6826 41.5039C63.3739 41.5999 63.8562 42.0983 63.8562 42.7172C63.8558 42.9912 63.7631 43.2571 63.593 43.472C63.4229 43.6868 63.1854 43.8381 62.9187 43.9013V44.1348C62.913 44.2049 62.8811 44.2704 62.8293 44.318C62.7776 44.3657 62.7098 44.3922 62.6394 44.3922C62.569 44.3922 62.5012 44.3657 62.4495 44.318C62.3977 44.2704 62.3658 44.2049 62.3601 44.1348V43.9013C62.0934 43.8381 61.8558 43.6868 61.6857 43.472C61.5156 43.2571 61.4229 42.9912 61.4226 42.7172C61.4283 42.647 61.4603 42.5816 61.512 42.5339C61.5638 42.4862 61.6316 42.4598 61.7019 42.4598C61.7723 42.4598 61.8401 42.4862 61.8918 42.5339C61.9436 42.5816 61.9755 42.647 61.9812 42.7172C61.9815 42.8837 62.0449 43.044 62.1586 43.1657C62.2723 43.2874 62.4279 43.3616 62.5941 43.3732C62.6241 43.3676 62.6549 43.3676 62.6849 43.3732C62.8511 43.3616 63.0066 43.2874 63.1203 43.1657C63.234 43.044 63.2973 42.8837 63.2975 42.7172C63.2975 42.326 62.9472 42.1036 62.602 42.0567L62.5915 42.0551C61.8705 41.9294 61.4226 41.4649 61.4226 40.8425C61.4229 40.5684 61.5156 40.3025 61.6857 40.0877C61.8558 39.8728 62.0934 39.7216 62.3601 39.6584V39.4248C62.3658 39.3547 62.3977 39.2893 62.4495 39.2416C62.5012 39.1939 62.569 39.1674 62.6394 39.1674C62.7098 39.1674 62.7776 39.1939 62.8293 39.2416C62.8811 39.2893 62.913 39.3547 62.9187 39.4248V39.6584C63.1854 39.7216 63.4229 39.8728 63.593 40.0877C63.7631 40.3025 63.8558 40.5684 63.8562 40.8425C63.8504 40.9126 63.8185 40.978 63.7668 41.0257C63.715 41.0734 63.6472 41.0999 63.5769 41.0999C63.5065 41.0999 63.4387 41.0734 63.3869 41.0257C63.3352 40.978 63.3033 40.9126 63.2975 40.8425C63.2973 40.6759 63.234 40.5157 63.1203 40.3939C63.0066 40.2722 62.8511 40.1981 62.6849 40.1864C62.6699 40.1891 62.6547 40.1905 62.6394 40.1906C62.6242 40.1905 62.609 40.1891 62.5941 40.1864C62.428 40.1982 62.2726 40.2724 62.159 40.3941C62.0454 40.5158 61.9822 40.676 61.9819 40.8425ZM50.3045 32.3266C50.3049 31.9024 50.4336 31.4882 50.6737 31.1385C50.9139 30.7888 51.2542 30.52 51.65 30.3673L51.6388 29.8236C51.6432 29.7535 51.6739 29.6876 51.7246 29.639C51.7753 29.5905 51.8425 29.5627 51.9127 29.5612C51.9829 29.5598 52.0512 29.5848 52.1038 29.6313C52.1565 29.6777 52.1898 29.7423 52.1972 29.8122L52.2058 30.2375C52.2712 30.2314 52.3373 30.2279 52.4041 30.2279C52.4709 30.2279 52.5379 30.2309 52.6042 30.2372L52.5956 29.8236C52.5997 29.7532 52.6302 29.687 52.681 29.6381C52.7318 29.5892 52.7992 29.5613 52.8696 29.5598C52.9401 29.5584 53.0086 29.5835 53.0613 29.6303C53.1141 29.6771 53.1472 29.742 53.1543 29.8122L53.1657 30.3704C53.4219 30.4701 53.6561 30.6193 53.8547 30.8094C53.8849 30.8338 53.9097 30.8641 53.9276 30.8985C53.9455 30.933 53.9561 30.9708 53.9586 31.0095C53.9611 31.0482 53.9556 31.087 53.9423 31.1235C53.9291 31.16 53.9084 31.1933 53.8816 31.2214C53.8548 31.2494 53.8224 31.2716 53.7866 31.2865C53.7508 31.3014 53.7122 31.3087 53.6734 31.308C53.6346 31.3072 53.5964 31.2984 53.5612 31.2821C53.526 31.2658 53.4945 31.2423 53.4688 31.2132C53.2807 31.0333 53.0501 30.9039 52.7985 30.8372C52.5469 30.7705 52.2825 30.7685 52.0299 30.8316C52.0154 30.837 52.0004 30.841 51.9851 30.8438C51.7597 30.9073 51.5518 31.0214 51.3771 31.1773C51.2024 31.3332 51.0655 31.5269 50.9768 31.7436C50.8881 31.9603 50.85 32.1944 50.8653 32.4281C50.8806 32.6617 50.9489 32.8889 51.0651 33.0922C51.1813 33.2955 51.3423 33.4696 51.5358 33.6014C51.7294 33.7332 51.9504 33.8192 52.1822 33.8528C52.4139 33.8864 52.6503 33.8668 52.8733 33.7954C53.0963 33.724 53.3002 33.6027 53.4693 33.4408C53.4951 33.4119 53.5265 33.3886 53.5617 33.3724C53.5969 33.3563 53.635 33.3476 53.6738 33.3469C53.7125 33.3462 53.7509 33.3536 53.7866 33.3685C53.8224 33.3834 53.8546 33.4056 53.8814 33.4336C53.9081 33.4616 53.9288 33.4948 53.942 33.5312C53.9553 33.5676 53.9608 33.6063 53.9584 33.645C53.9559 33.6836 53.9455 33.7213 53.9277 33.7557C53.9099 33.7901 53.8852 33.8205 53.8551 33.8449C53.6544 34.0369 53.4174 34.1871 53.158 34.2867L53.1701 34.8725C53.1714 34.9465 53.1433 35.018 53.092 35.0714C53.0407 35.1248 52.9704 35.1557 52.8964 35.1574H52.8906C52.8174 35.1574 52.7471 35.1288 52.6947 35.0776C52.6423 35.0265 52.612 34.9569 52.6103 34.8837L52.6007 34.4166C52.5356 34.4227 52.4697 34.4259 52.4034 34.4259C52.3371 34.4259 52.2686 34.4224 52.2025 34.4161L52.2119 34.872C52.2131 34.946 52.1851 35.0175 52.1339 35.0708C52.0826 35.1242 52.0124 35.1552 51.9384 35.1569H51.9326C51.8593 35.157 51.789 35.1283 51.7367 35.0772C51.6843 35.026 51.654 34.9564 51.6523 34.8832L51.6399 34.2818C51.2466 34.1279 50.9088 33.8589 50.6706 33.5102C50.4323 33.1614 50.3049 32.7489 50.3045 32.3266Z" fill="#FF2A29"/>
</g>
</g>
</g>
</g>
<defs>
<filter id="filter0_d_200_12207" x="0.0129642" y="0.497032" width="113.221" height="113.221" filterUnits="userSpaceOnUse" color-interpolation-filters="sRGB">
<feFlood flood-opacity="0" result="BackgroundImageFix"/>
<feColorMatrix in="SourceAlpha" type="matrix" values="0 0 0 0 0 0 0 0 0 0 0 0 0 0 0 0 0 0 127 0" result="hardAlpha"/>
<feOffset dy="20.2448"/>
<feGaussianBlur stdDeviation="15.746"/>
<feComposite in2="hardAlpha" operator="out"/>
<feColorMatrix type="matrix" values="0 0 0 0 0.956863 0 0 0 0 0.411765 0 0 0 0 0.407843 0 0 0 0.3 0"/>
<feBlend mode="normal" in2="BackgroundImageFix" result="effect1_dropShadow_200_12207"/>
<feBlend mode="normal" in="SourceGraphic" in2="effect1_dropShadow_200_12207" result="shape"/>
</filter>
<clipPath id="clip0_200_12207">
<rect width="23.9938" height="23.9938" fill="white" transform="translate(44.6943 24.9395)"/>
</clipPath>
<clipPath id="clip1_200_12207">
<rect width="23.9938" height="23.9938" fill="white" transform="translate(44.6943 24.9395)"/>
</clipPath>
<clipPath id="clip2_200_12207">
<rect width="23.9938" height="23.9938" fill="white" transform="translate(44.6943 24.9395)"/>
</clipPath>
</defs>
</svg>
