<svg width="114" height="114" viewBox="0 0 114 114" fill="none" xmlns="http://www.w3.org/2000/svg">
<g filter="url(#filter0_d_200_12458)">
<rect x="32.1846" y="11.9951" width="50.2371" height="50.2371" rx="10.4373" fill="white"/>
<g clip-path="url(#clip0_200_12458)">
<g clip-path="url(#clip1_200_12458)">
<g clip-path="url(#clip2_200_12458)">
<path d="M67.6895 35.7492L66.3811 35.5635C66.203 34.7441 65.9101 33.954 65.5111 33.2165L67.7007 30.9881C67.7316 30.9566 67.7563 30.9196 67.7734 30.8789C67.9174 30.537 67.991 30.1696 67.99 29.7986C67.9892 29.0567 67.694 28.3453 67.1694 27.8206C66.6447 27.296 65.9333 27.0008 65.1914 27C64.8316 26.9992 64.4751 27.0685 64.1419 27.204C64.0998 27.2213 64.0615 27.2464 64.0289 27.2781L61.784 29.4838C61.0436 29.0819 60.2499 28.7874 59.4265 28.6092L59.2408 27.3005C59.2289 27.2171 59.1873 27.1408 59.1237 27.0856C59.0601 27.0304 58.9787 27 58.8944 27H56.0958C56.0116 27 55.9301 27.0304 55.8665 27.0856C55.8029 27.1408 55.7613 27.2171 55.7495 27.3005L55.5637 28.6092C54.5015 28.8357 53.4895 29.254 52.5776 29.8438L51.5193 29.0532C51.4521 29.0034 51.3693 28.9793 51.2858 28.9853C51.2024 28.9914 51.1239 29.0271 51.0645 29.086L49.088 31.0626C49.0291 31.1219 48.9933 31.2004 48.9873 31.2839C48.9813 31.3673 49.0053 31.4501 49.0551 31.5174L49.845 32.5756C49.2547 33.488 48.836 34.5006 48.6094 35.5635L47.3014 35.7492C47.2179 35.761 47.1414 35.8025 47.0861 35.8661C47.0307 35.9297 47.0002 36.0112 47.0002 36.0956V38.8942C47.0002 38.9784 47.0306 39.0598 47.0858 39.1235C47.141 39.1871 47.2173 39.2287 47.3007 39.2405L48.6091 39.4263C48.7749 40.1903 49.0395 40.9294 49.3962 41.625L48.1547 42.8424C48.1069 42.8891 48.0735 42.9484 48.0585 43.0134L47.009 47.5612C46.9971 47.6125 46.997 47.6658 47.0086 47.7172C47.0203 47.7685 47.0433 47.8166 47.0761 47.8578C47.1089 47.899 47.1506 47.9323 47.198 47.9551C47.2454 47.978 47.2974 47.9898 47.3501 47.9898C47.3765 47.9898 47.4029 47.9869 47.4288 47.981L51.9765 46.9315C52.0416 46.9164 52.1009 46.8831 52.1476 46.8353L53.3671 45.5941C54.062 45.9506 54.8005 46.2149 55.5637 46.3806L55.7495 47.6889C55.7613 47.7724 55.8028 47.8488 55.8664 47.904C55.9301 47.9593 56.0115 47.9898 56.0958 47.9898H58.8944C58.9787 47.9898 59.0601 47.9594 59.1237 47.9042C59.1873 47.849 59.2289 47.7727 59.2408 47.6893L59.4265 46.3813C60.4887 46.1548 61.5007 45.7365 62.4127 45.1467L63.4709 45.9366C63.5381 45.9864 63.6209 46.0105 63.7044 46.0044C63.7878 45.9984 63.8663 45.9627 63.9257 45.9037L65.9022 43.9272C65.9612 43.8679 65.9969 43.7893 66.0029 43.7059C66.009 43.6225 65.9849 43.5396 65.9351 43.4724L65.1452 42.4142C65.7355 41.5017 66.1542 40.4892 66.3808 39.4263L67.6888 39.2405C67.7723 39.2288 67.8488 39.1873 67.9041 39.1237C67.9595 39.06 67.99 38.9785 67.99 38.8942V36.0956C67.99 36.0113 67.9596 35.9299 67.9044 35.8663C67.8492 35.8027 67.7729 35.7611 67.6895 35.7492ZM62.7425 37.4949C62.7445 38.286 62.5672 39.0672 62.2238 39.78C61.8805 40.4927 61.3801 41.1183 60.7602 41.6099C60.1404 42.1014 59.4172 42.4461 58.645 42.618C57.8728 42.7899 57.0717 42.7846 56.3018 42.6024L62.5802 36.204C62.6875 36.6259 62.742 37.0595 62.7425 37.4949ZM52.0136 45.973L51.2632 44.2214L63.4422 32.0424L64.5746 33.1748L52.0136 45.973ZM52.2477 37.4949C52.2466 36.6949 52.4286 35.9052 52.78 35.1865C53.1313 34.4677 53.6425 33.8389 54.2744 33.3484C54.9064 32.8578 55.6423 32.5184 56.4257 32.3562C57.2091 32.1941 58.0193 32.2135 58.794 32.4129L52.3893 38.691C52.2961 38.2991 52.2486 37.8977 52.2477 37.4949ZM61.8232 30.4234L62.9475 31.5478L50.7686 43.7267L49.0173 42.9764L61.8232 30.4234ZM63.0595 29.2109L65.7882 31.9396L65.0654 32.6763L62.3228 29.9337L63.0595 29.2109ZM50.5818 44.4082L51.4116 46.3456L50.6556 46.5205C50.4819 46.0143 50.1949 45.5544 49.8165 45.1759C49.4381 44.7975 48.9782 44.5105 48.472 44.3369L48.6469 43.5809L50.5818 44.4082ZM64.47 27.8284C64.7009 27.743 64.9452 27.6994 65.1914 27.6997C65.7479 27.7002 66.2814 27.9215 66.6749 28.3151C67.0685 28.7086 67.2898 29.2421 67.2903 29.7986C67.2912 30.0547 67.2446 30.3086 67.1528 30.5476L66.2783 31.4397L65.912 31.0734C65.9089 31.0699 65.9078 31.0657 65.9047 31.0626L63.9281 29.086C63.925 29.0829 63.9208 29.0818 63.9173 29.0787L63.5577 28.7198L64.47 27.8284ZM49.2472 39.0506C49.2338 38.9786 49.1982 38.9127 49.1453 38.862C49.0925 38.8114 49.0251 38.7786 48.9526 38.7683L47.6999 38.5906V36.3992L48.9526 36.2215C49.0251 36.2112 49.0926 36.1783 49.1454 36.1276C49.1983 36.0769 49.2339 36.0109 49.2472 35.9388C49.4568 34.8 49.9041 33.718 50.5597 32.7634C50.6009 32.7032 50.6223 32.6316 50.6208 32.5587C50.6193 32.4857 50.595 32.4151 50.5513 32.3566L49.795 31.3421L51.3434 29.7937L52.3579 30.5501C52.4163 30.5937 52.487 30.618 52.5599 30.6195C52.6329 30.621 52.7045 30.5997 52.7647 30.5585C53.7193 29.9028 54.8012 29.4556 55.9401 29.2459C56.0121 29.2326 56.0782 29.197 56.1289 29.1441C56.1796 29.0913 56.2124 29.0239 56.2228 28.9514L56.3994 27.6997H58.5908L58.7685 28.9524C58.7788 29.0249 58.8116 29.0923 58.8623 29.1451C58.9129 29.1979 58.9788 29.2336 59.0508 29.247C59.8187 29.3907 60.5621 29.6432 61.2586 29.997L59.3646 31.8535C58.3281 31.5061 57.2157 31.4518 56.1502 31.6968C55.0848 31.9417 54.1078 32.4764 53.3271 33.2417C52.5464 34.007 51.9924 34.9731 51.7263 36.0335C51.4602 37.0938 51.4923 38.2071 51.8191 39.2503L49.922 41.1097C49.6082 40.4557 49.3813 39.7634 49.2472 39.0506ZM48.3145 45.0162C48.6941 45.1573 49.0388 45.3785 49.3252 45.6648C49.6115 45.9512 49.8327 46.2959 49.9738 46.6755L47.8167 47.1733L48.3145 45.0162ZM67.2903 38.5906L66.0376 38.7683C65.9651 38.7786 65.8977 38.8115 65.8448 38.8622C65.792 38.9129 65.7564 38.9789 65.743 39.0509C65.5334 40.1898 65.0861 41.2718 64.4305 42.2263C64.3893 42.2866 64.3679 42.3581 64.3694 42.4311C64.3709 42.5041 64.3952 42.5747 64.4389 42.6332L65.1952 43.6477L63.6469 45.196L62.6324 44.4397C62.5739 44.396 62.5032 44.3718 62.4303 44.3703C62.3573 44.3688 62.2857 44.3901 62.2255 44.4313C61.271 45.087 60.189 45.5342 59.0501 45.7439C58.9781 45.7572 58.9121 45.7928 58.8613 45.8456C58.8106 45.8985 58.7778 45.9659 58.7674 46.0384L58.5908 47.2901H56.3994L56.2217 46.0374C56.2114 45.9649 56.1786 45.8975 56.128 45.8447C56.0773 45.7918 56.0114 45.7562 55.9394 45.7428C55.227 45.6087 54.5351 45.3821 53.8814 45.0687L55.7414 43.173C56.784 43.4972 57.8958 43.5277 58.9546 43.261C60.0133 42.9944 60.9781 42.441 61.7428 41.6617C62.5075 40.8824 63.0424 39.9073 63.2889 38.8436C63.5354 37.78 63.4839 36.669 63.14 35.6327L64.9958 33.7416C65.3473 34.4353 65.5989 35.1753 65.743 35.9395C65.7565 36.0114 65.7921 36.0773 65.845 36.1279C65.8978 36.1785 65.9652 36.2112 66.0376 36.2215L67.2903 36.3992V38.5906Z" fill="#FF6461"/>
</g>
</g>
</g>
</g>
<defs>
<filter id="filter0_d_200_12458" x="0.692652" y="0.748009" width="113.221" height="113.221" filterUnits="userSpaceOnUse" color-interpolation-filters="sRGB">
<feFlood flood-opacity="0" result="BackgroundImageFix"/>
<feColorMatrix in="SourceAlpha" type="matrix" values="0 0 0 0 0 0 0 0 0 0 0 0 0 0 0 0 0 0 127 0" result="hardAlpha"/>
<feOffset dy="20.2448"/>
<feGaussianBlur stdDeviation="15.746"/>
<feComposite in2="hardAlpha" operator="out"/>
<feColorMatrix type="matrix" values="0 0 0 0 0.956863 0 0 0 0 0.411765 0 0 0 0 0.407843 0 0 0 0.3 0"/>
<feBlend mode="normal" in2="BackgroundImageFix" result="effect1_dropShadow_200_12458"/>
<feBlend mode="normal" in="SourceGraphic" in2="effect1_dropShadow_200_12458" result="shape"/>
</filter>
<clipPath id="clip0_200_12458">
<rect width="23.9938" height="23.9938" fill="white" transform="translate(45.373 25.1934)"/>
</clipPath>
<clipPath id="clip1_200_12458">
<rect width="23.9938" height="23.9938" fill="white" transform="translate(45.373 25.1934)"/>
</clipPath>
<clipPath id="clip2_200_12458">
<rect width="23.9938" height="23.9938" fill="white" transform="translate(45.373 25.1934)"/>
</clipPath>
</defs>
</svg>
