<svg width="60" height="60" viewBox="0 0 60 60" fill="none" xmlns="http://www.w3.org/2000/svg">
<rect x="0.5" y="0.5" width="59" height="59" rx="9.5" fill="white"/>
<rect x="0.5" y="0.5" width="59" height="59" rx="9.5" stroke="#FD1716"/>
<path d="M13.5492 41.4339C13.6274 41.687 13.8609 41.8517 14.1151 41.8517C14.1596 41.8517 14.2046 41.8464 14.2496 41.8363C24.4569 39.463 34.1889 35.5265 43.1748 30.134L44.0423 29.6137L44.914 30.9215C45.0414 31.1123 45.2672 31.2119 45.4948 31.1793C45.7217 31.1449 45.909 30.9831 45.9748 30.7633L47.7525 24.8375C47.8064 24.6579 47.7721 24.4635 47.6601 24.3136C47.5492 24.1625 47.3727 24.0742 47.1854 24.0742H41.2596C41.0409 24.0742 40.84 24.1945 40.7369 24.3871C40.6338 24.5797 40.6451 24.8138 40.7665 24.9951L41.5914 26.2324L39.2442 27.5041C31.7871 31.5431 23.8305 34.6145 15.5954 36.6316L12.927 37.2859C12.7682 37.325 12.6325 37.4275 12.5525 37.5697C12.4725 37.7119 12.4535 37.8802 12.5021 38.0367L13.5492 41.4339ZM15.8775 37.7836C24.211 35.7416 32.2624 32.6341 39.8089 28.5464L42.7274 26.9654C42.8738 26.886 42.9798 26.7491 43.0201 26.5874C43.0598 26.4256 43.0302 26.2543 42.9378 26.1157L42.3671 25.2594H46.389L45.202 29.2161L44.7155 28.4866C44.5407 28.2241 44.1893 28.1441 43.9179 28.307L42.5656 29.1177C33.8428 34.3514 24.4101 38.1978 14.5187 40.5557L13.8194 38.2879L15.8775 37.7836Z" fill="#FD1716"/>
<path d="M22.2967 28.8142C25.8907 28.8142 28.8151 25.8898 28.8151 22.2958C28.8151 18.7017 25.8907 15.7773 22.2967 15.7773C18.7027 15.7773 15.7783 18.7017 15.7783 22.2958C15.7783 25.8898 18.7027 28.8142 22.2967 28.8142ZM22.2967 16.9625C25.2371 16.9625 27.63 19.3548 27.63 22.2958C27.63 25.2367 25.2371 27.629 22.2967 27.629C19.3563 27.629 16.9635 25.2367 16.9635 22.2958C16.9635 19.3548 19.3563 16.9625 22.2967 16.9625Z" fill="#FD1716"/>
<path d="M12.2227 24.3285C12.2227 24.6562 12.4881 24.9211 12.8152 24.9211H13.9299C13.9737 24.9211 14.0028 24.9626 14.014 24.9976C14.1521 25.423 14.3257 25.842 14.5296 26.2444C14.548 26.2805 14.5533 26.3291 14.5242 26.3575L13.7361 27.1457C13.5044 27.3774 13.5044 27.7519 13.7361 27.9836L16.6095 30.857C16.8324 31.0792 17.2264 31.0792 17.4481 30.857L18.235 30.0695C18.2658 30.0381 18.3162 30.047 18.35 30.0641C18.7494 30.2668 19.1683 30.4404 19.5962 30.5797C19.6317 30.5915 19.6726 30.6194 19.6726 30.6632V31.7779C19.6726 32.1056 19.9381 32.3705 20.2652 32.3705H24.3285C24.6556 32.3705 24.9211 32.1056 24.9211 31.7779V30.6627C24.9211 30.6194 24.962 30.591 24.9982 30.5791C25.4248 30.4398 25.8438 30.2662 26.2432 30.0635C26.2764 30.0476 26.3273 30.0381 26.3569 30.0683L27.1445 30.8564C27.2559 30.9678 27.4064 31.0301 27.564 31.0301C27.7211 31.0301 27.8722 30.9678 27.983 30.8564L30.8564 27.983C31.0881 27.7513 31.0881 27.3768 30.8564 27.1451L30.0677 26.3564C30.0393 26.3279 30.0446 26.2793 30.0635 26.2432C30.2674 25.8414 30.4404 25.4224 30.5785 24.9976C30.5904 24.962 30.6188 24.9205 30.6627 24.9205H31.7779C32.105 24.9205 32.3705 24.6556 32.3705 24.3279V20.2646C32.3705 19.9369 32.105 19.672 31.7779 19.672H30.6632C30.6194 19.672 30.5904 19.6305 30.5791 19.5956C30.441 19.1701 30.2674 18.7511 30.0635 18.3488C30.0452 18.3126 30.0398 18.264 30.0689 18.2356L30.857 17.4475C31.0887 17.2158 31.0887 16.8412 30.857 16.6095L27.9836 13.7361C27.7519 13.5044 27.3774 13.5044 27.1457 13.7361L26.3581 14.5237C26.3261 14.5557 26.2758 14.5462 26.2432 14.5296C25.8438 14.3269 25.4248 14.1533 24.997 14.014C24.9614 14.0022 24.9205 13.9743 24.9205 13.9305V12.8152C24.9205 12.4875 24.655 12.2227 24.3279 12.2227H20.2646C19.9375 12.2227 19.672 12.4875 19.672 12.8152V13.9305C19.672 13.9737 19.6311 14.0022 19.595 14.014C19.1683 14.1533 18.7494 14.3269 18.35 14.5296C18.318 14.5462 18.2676 14.5562 18.2356 14.5242L17.4481 13.7367C17.2164 13.505 16.8418 13.505 16.6101 13.7367L13.7367 16.6095C13.505 16.8412 13.505 17.2158 13.7367 17.4475L14.5254 18.2362C14.5539 18.2646 14.5485 18.3132 14.5296 18.3494C14.3257 18.7511 14.1527 19.1701 14.0146 19.595C14.0028 19.6305 13.9743 19.672 13.9305 19.672H12.8152C12.4881 19.672 12.2227 19.9369 12.2227 20.2646V24.3285ZM13.4078 20.8572H13.9299C14.4798 20.8572 14.9669 20.4975 15.1411 19.9612C15.2602 19.5944 15.4102 19.2329 15.5856 18.8874C15.8416 18.3849 15.7515 17.7864 15.3622 17.3977L14.9936 17.0285L17.0291 14.993L17.3977 15.3616C17.7858 15.7503 18.3849 15.8404 18.8868 15.5856C19.2317 15.4102 19.5932 15.2602 19.9612 15.1405C20.4969 14.9669 20.8572 14.4804 20.8572 13.9299V13.4078H23.7354V13.9305C23.7354 14.481 24.0951 14.9675 24.6302 15.1411C24.9993 15.2608 25.3608 15.4108 25.7057 15.5862C26.207 15.841 26.8055 15.7509 27.1949 15.3622L27.5634 14.9936L29.599 17.0291L29.2304 17.3977C28.8405 17.7864 28.7504 18.3855 29.0064 18.8874C29.1824 19.2335 29.3317 19.595 29.4514 19.9624C29.6256 20.4975 30.1121 20.8578 30.6621 20.8578H31.1853V23.736H30.6632C30.1133 23.736 29.6262 24.0956 29.452 24.6319C29.3329 24.9987 29.183 25.3602 29.0076 25.7057C28.7516 26.2082 28.8416 26.8067 29.231 27.1954L29.6002 27.5646L27.5646 29.6002L27.1949 29.2298C26.8061 28.8416 26.2076 28.7516 25.7063 29.007C25.3614 29.1824 24.9999 29.3323 24.6319 29.452C24.0962 29.6256 23.736 30.1121 23.736 30.6627V31.1853H20.8578V30.6627C20.8578 30.1121 20.4981 29.6256 19.963 29.452C19.5938 29.3323 19.2323 29.1824 18.8874 29.007C18.3861 28.7528 17.7882 28.8416 17.3977 29.2304L17.0291 29.5996L14.9936 27.5646L15.3622 27.196C15.7521 26.8073 15.8422 26.2082 15.5862 25.7063C15.4102 25.3602 15.2608 24.9987 15.1411 24.6313C14.9669 24.0962 14.4804 23.736 13.9305 23.736H13.4078V20.8572Z" fill="#FD1716"/>
<path d="M21.7419 24.284C21.829 24.5145 22.05 24.668 22.2971 24.668C22.5442 24.668 22.7652 24.5145 22.8524 24.284L24.6301 19.5434C24.6983 19.3608 24.6728 19.1576 24.562 18.9976C24.4511 18.8376 24.2692 18.7422 24.0749 18.7422H20.5194C20.325 18.7422 20.1431 18.8376 20.0323 18.9976C19.9214 19.1576 19.8966 19.3608 19.9641 19.5434L21.7419 24.284ZM23.2198 19.9274L22.2971 22.3878L21.3745 19.9274H23.2198Z" fill="#FD1716"/>
<path d="M22.2967 26.4449C22.624 26.4449 22.8893 26.1796 22.8893 25.8523C22.8893 25.5251 22.624 25.2598 22.2967 25.2598C21.9694 25.2598 21.7041 25.5251 21.7041 25.8523C21.7041 26.1796 21.9694 26.4449 22.2967 26.4449Z" fill="#FD1716"/>
<path d="M43.6296 35.3348C43.6296 35.0071 43.3641 34.7422 43.037 34.7422H38.2963C37.9692 34.7422 37.7037 35.0071 37.7037 35.3348V46.5938H36.5186V38.2977C36.5186 37.97 36.2531 37.7051 35.926 37.7051H31.1853C30.8582 37.7051 30.5927 37.97 30.5927 38.2977V46.5938H29.4076V41.2606C29.4076 40.9329 29.1421 40.668 28.815 40.668H24.0743C23.7472 40.668 23.4817 40.9329 23.4817 41.2606V46.5938H22.2966V43.6309C22.2966 43.3032 22.0311 43.0383 21.704 43.0383H16.9633C16.6362 43.0383 16.3707 43.3032 16.3707 43.6309V46.5938H12.2227V47.779H47.7776V46.5938H43.6296V35.3348ZM21.1114 46.5938H17.5559V44.2235H21.1114V46.5938ZM28.2224 46.5938H24.6669V41.8532H28.2224V46.5938ZM35.3334 46.5938H31.7779V38.8903H35.3334V46.5938ZM42.4444 46.5938H38.8889V35.9274H42.4444V46.5938Z" fill="#FD1716"/>
</svg>
