<svg width="60" height="60" viewBox="0 0 60 60" fill="none" xmlns="http://www.w3.org/2000/svg">
<rect x="0.5" y="0.5" width="59" height="59" rx="9.5" fill="white"/>
<rect x="0.5" y="0.5" width="59" height="59" rx="9.5" stroke="#FD1716"/>
<path fill-rule="evenodd" clip-rule="evenodd" d="M17.4549 34.2159C17.4532 34.1614 17.4625 34.1071 17.4822 34.0562C17.5019 34.0053 17.5316 33.9589 17.5695 33.9198C17.6075 33.8806 17.653 33.8494 17.7032 33.8282C17.7535 33.8069 17.8075 33.7959 17.862 33.7959C17.9166 33.7959 17.9706 33.8069 18.0208 33.8282C18.071 33.8494 18.1165 33.8806 18.1545 33.9198C18.1924 33.9589 18.2222 34.0053 18.2419 34.0562C18.2615 34.1071 18.2708 34.1614 18.2691 34.2159V34.4455C18.6095 34.5276 18.9128 34.7207 19.1312 34.9945C19.3496 35.2682 19.4705 35.6069 19.4749 35.957C19.4749 36.065 19.4319 36.1686 19.3556 36.245C19.2792 36.3214 19.1756 36.3643 19.0675 36.3643C18.9595 36.3643 18.8559 36.3214 18.7795 36.245C18.7031 36.1686 18.6602 36.065 18.6602 35.957C18.6498 35.8032 18.5957 35.6556 18.5041 35.5316C18.4125 35.4076 18.2873 35.3124 18.1434 35.2573C17.9994 35.2022 17.8427 35.1894 17.6917 35.2205C17.5407 35.2516 17.4018 35.3252 17.2913 35.4327C17.1838 35.5395 17.1114 35.6765 17.0837 35.8254C17.056 35.9744 17.0744 36.1283 17.1364 36.2665C17.1984 36.4048 17.3011 36.5208 17.4308 36.5992C17.5605 36.6776 17.711 36.7146 17.8622 36.7052C18.1757 36.696 18.4846 36.7816 18.7486 36.9509C19.0126 37.1201 19.2194 37.3651 19.3419 37.6538C19.4644 37.9424 19.497 38.2614 19.4353 38.5688C19.3735 38.8763 19.2205 39.158 18.996 39.377C18.7921 39.5717 18.5413 39.7102 18.2679 39.7792V40.0087C18.2696 40.0633 18.2604 40.1176 18.2407 40.1685C18.221 40.2193 18.1913 40.2657 18.1533 40.3049C18.1153 40.3441 18.0699 40.3752 18.0196 40.3965C17.9694 40.4178 17.9154 40.4287 17.8608 40.4287C17.8063 40.4287 17.7523 40.4178 17.702 40.3965C17.6518 40.3752 17.6063 40.3441 17.5684 40.3049C17.5304 40.2657 17.5007 40.2193 17.481 40.1685C17.4613 40.1176 17.452 40.0633 17.4537 40.0087V39.7792C17.1134 39.697 16.8101 39.5037 16.5918 39.2299C16.3736 38.9561 16.2527 38.6174 16.2484 38.2673C16.2517 38.1615 16.296 38.0612 16.372 37.9875C16.448 37.9139 16.5497 37.8727 16.6555 37.8727C16.7613 37.8727 16.863 37.9139 16.939 37.9875C17.015 38.0612 17.0593 38.1615 17.0626 38.2673C17.0731 38.4211 17.1273 38.5687 17.219 38.6926C17.3106 38.8166 17.4358 38.9118 17.5798 38.9669C17.7237 39.022 17.8805 39.0348 18.0314 39.0037C18.1824 38.9726 18.3214 38.899 18.4319 38.7916C18.5397 38.685 18.6124 38.548 18.6403 38.3989C18.6681 38.2498 18.6498 38.0958 18.5877 37.9575C18.5256 37.8192 18.4228 37.7031 18.2929 37.6248C18.163 37.5465 18.0123 37.5098 17.861 37.5195C17.5476 37.5287 17.2386 37.4431 16.9746 37.2738C16.7106 37.1046 16.5038 36.8596 16.3813 36.5709C16.2588 36.2822 16.2263 35.9633 16.288 35.6558C16.3497 35.3484 16.5028 35.0667 16.7272 34.8476C16.9306 34.6532 17.1809 34.5146 17.4537 34.4455V34.2159H17.4549ZM34.1949 38.436H36.9544V28.2288H34.1949V38.436ZM27.8739 38.436H30.6334V26.0433H27.8755V38.436H27.8739ZM23.5855 23.1443C23.4569 23.0157 23.2931 22.9282 23.1148 22.8927C22.9365 22.8573 22.7516 22.8755 22.5836 22.9451C22.4157 23.0146 22.2721 23.1325 22.1711 23.2836C22.0701 23.4348 22.0161 23.6126 22.0161 23.7944C22.0161 23.9762 22.0701 24.1539 22.1711 24.3051C22.2721 24.4563 22.4157 24.5741 22.5836 24.6437C22.7516 24.7133 22.9365 24.7315 23.1148 24.696C23.2931 24.6606 23.4569 24.573 23.5855 24.4445C23.7576 24.2719 23.8543 24.0381 23.8543 23.7944C23.8543 23.5506 23.7576 23.3169 23.5855 23.1443ZM29.788 20.5764C29.6594 20.4478 29.4956 20.3603 29.3173 20.3248C29.1389 20.2894 28.9541 20.3076 28.7861 20.3771C28.6181 20.4467 28.4746 20.5646 28.3736 20.7157C28.2725 20.8669 28.2186 21.0447 28.2186 21.2265C28.2186 21.4083 28.2725 21.586 28.3736 21.7372C28.4746 21.8884 28.6181 22.0062 28.7861 22.0758C28.9541 22.1454 29.1389 22.1636 29.3173 22.1281C29.4956 22.0927 29.6594 22.0051 29.788 21.8765C29.9601 21.704 30.0568 21.4702 30.0568 21.2265C30.0568 20.9827 29.9601 20.749 29.788 20.5764ZM35.9905 23.1443C35.8619 23.0157 35.6981 22.9282 35.5197 22.8927C35.3414 22.8573 35.1566 22.8755 34.9886 22.9451C34.8206 23.0146 34.6771 23.1325 34.576 23.2836C34.475 23.4348 34.4211 23.6126 34.4211 23.7944C34.4211 23.9762 34.475 24.1539 34.576 24.3051C34.6771 24.4563 34.8206 24.5741 34.9886 24.6437C35.1566 24.7133 35.3414 24.7315 35.5197 24.696C35.6981 24.6606 35.8619 24.573 35.9905 24.4445C36.1626 24.2719 36.2592 24.0381 36.2592 23.7944C36.2592 23.5506 36.1626 23.3169 35.9905 23.1443ZM43.2754 33.1129C43.2787 33.0071 43.323 32.9068 43.399 32.8331C43.475 32.7595 43.5767 32.7183 43.6825 32.7183C43.7884 32.7183 43.89 32.7595 43.966 32.8331C44.042 32.9068 44.0863 33.0071 44.0896 33.1129V34.9946C44.0913 35.0491 44.0821 35.1035 44.0624 35.1543C44.0427 35.2052 44.013 35.2516 43.975 35.2908C43.937 35.33 43.8916 35.3611 43.8413 35.3824C43.7911 35.4036 43.7371 35.4146 43.6825 35.4146C43.628 35.4146 43.574 35.4036 43.5237 35.3824C43.4735 35.3611 43.428 35.33 43.3901 35.2908C43.3521 35.2516 43.3224 35.2052 43.3027 35.1543C43.283 35.1035 43.2737 35.0491 43.2754 34.9946V33.1129ZM43.2754 29.5969C43.2737 29.5423 43.283 29.488 43.3027 29.4371C43.3224 29.3863 43.3521 29.3399 43.3901 29.3007C43.428 29.2615 43.4735 29.2304 43.5237 29.2091C43.574 29.1878 43.628 29.1769 43.6825 29.1769C43.7371 29.1769 43.7911 29.1878 43.8413 29.2091C43.8916 29.2304 43.937 29.2615 43.975 29.3007C44.013 29.3399 44.0427 29.3863 44.0624 29.4371C44.0821 29.488 44.0913 29.5423 44.0896 29.5969V31.4785C44.0913 31.5331 44.0821 31.5874 44.0624 31.6383C44.0427 31.6891 44.013 31.7355 43.975 31.7747C43.937 31.8139 43.8916 31.845 43.8413 31.8663C43.7911 31.8876 43.7371 31.8985 43.6825 31.8985C43.628 31.8985 43.574 31.8876 43.5237 31.8663C43.4735 31.845 43.428 31.8139 43.3901 31.7747C43.3521 31.7355 43.3224 31.6891 43.3027 31.6383C43.283 31.5874 43.2737 31.5331 43.2754 31.4785V29.5969ZM43.2754 26.0808C43.2737 26.0263 43.283 25.972 43.3027 25.9211C43.3224 25.8702 43.3521 25.8238 43.3901 25.7846C43.428 25.7455 43.4735 25.7143 43.5237 25.693C43.574 25.6718 43.628 25.6608 43.6825 25.6608C43.7371 25.6608 43.7911 25.6718 43.8413 25.693C43.8916 25.7143 43.937 25.7455 43.975 25.7846C44.013 25.8238 44.0427 25.8702 44.0624 25.9211C44.0821 25.972 44.0913 26.0263 44.0896 26.0808V27.9625C44.0863 28.0683 44.042 28.1686 43.966 28.2423C43.89 28.3159 43.7884 28.3571 43.6825 28.3571C43.5767 28.3571 43.475 28.3159 43.399 28.2423C43.323 28.1686 43.2787 28.0683 43.2754 27.9625V26.08V26.0808ZM40.5167 24.4456C40.5184 24.5002 40.5091 24.5545 40.4894 24.6054C40.4697 24.6562 40.44 24.7026 40.402 24.7418C40.3641 24.781 40.3186 24.8121 40.2684 24.8334C40.2181 24.8547 40.1641 24.8656 40.1096 24.8656C40.055 24.8656 40.001 24.8547 39.9508 24.8334C39.9005 24.8121 39.8551 24.781 39.8171 24.7418C39.7791 24.7026 39.7494 24.6562 39.7297 24.6054C39.71 24.5545 39.7008 24.5002 39.7025 24.4456V22.7386C39.7025 22.6306 39.7453 22.5271 39.8216 22.4507C39.8979 22.3743 40.0014 22.3314 40.1094 22.3313H43.6823C43.7903 22.3314 43.8939 22.3743 43.9702 22.4507C44.0466 22.527 44.0895 22.6306 44.0896 22.7386V24.4449C44.0913 24.4994 44.0821 24.5537 44.0624 24.6046C44.0427 24.6555 44.013 24.7019 43.975 24.741C43.937 24.7802 43.8916 24.8113 43.8413 24.8326C43.7911 24.8539 43.7371 24.8648 43.6825 24.8648C43.628 24.8648 43.574 24.8539 43.5237 24.8326C43.4735 24.8113 43.428 24.7802 43.3901 24.741C43.3521 24.7019 43.3224 24.6555 43.3027 24.6046C43.283 24.5537 43.2737 24.4994 43.2754 24.4449V23.1459H40.5147V24.4449L40.5167 24.4456ZM40.5167 27.9617C40.5134 28.0675 40.4691 28.1678 40.3931 28.2415C40.3171 28.3151 40.2154 28.3563 40.1096 28.3563C40.0037 28.3563 39.9021 28.3151 39.8261 28.2415C39.7501 28.1678 39.7058 28.0675 39.7025 27.9617V26.08C39.7008 26.0255 39.71 25.9712 39.7297 25.9203C39.7494 25.8694 39.7791 25.823 39.8171 25.7838C39.8551 25.7447 39.9005 25.7135 39.9508 25.6923C40.001 25.671 40.055 25.66 40.1096 25.66C40.1641 25.66 40.2181 25.671 40.2684 25.6923C40.3186 25.7135 40.3641 25.7447 40.402 25.7838C40.44 25.823 40.4697 25.8694 40.4894 25.9203C40.5091 25.9712 40.5184 26.0255 40.5167 26.08V27.9617ZM40.5167 31.4778C40.5184 31.5323 40.5091 31.5866 40.4894 31.6375C40.4697 31.6884 40.44 31.7348 40.402 31.7739C40.3641 31.8131 40.3186 31.8443 40.2684 31.8655C40.2181 31.8868 40.1641 31.8978 40.1096 31.8978C40.055 31.8978 40.001 31.8868 39.9508 31.8655C39.9005 31.8443 39.8551 31.8131 39.8171 31.7739C39.7791 31.7348 39.7494 31.6884 39.7297 31.6375C39.71 31.5866 39.7008 31.5323 39.7025 31.4778V29.5965C39.7008 29.5419 39.71 29.4876 39.7297 29.4367C39.7494 29.3859 39.7791 29.3395 39.8171 29.3003C39.8551 29.2611 39.9005 29.23 39.9508 29.2087C40.001 29.1874 40.055 29.1765 40.1096 29.1765C40.1641 29.1765 40.2181 29.1874 40.2684 29.2087C40.3186 29.23 40.3641 29.2611 40.402 29.3003C40.44 29.3395 40.4697 29.3859 40.4894 29.4367C40.5091 29.4876 40.5184 29.5419 40.5167 29.5965V31.4778ZM40.5167 34.9938C40.5184 35.0483 40.5091 35.1027 40.4894 35.1535C40.4697 35.2044 40.44 35.2508 40.402 35.29C40.3641 35.3292 40.3186 35.3603 40.2684 35.3816C40.2181 35.4028 40.1641 35.4138 40.1096 35.4138C40.055 35.4138 40.001 35.4028 39.9508 35.3816C39.9005 35.3603 39.8551 35.3292 39.8171 35.29C39.7791 35.2508 39.7494 35.2044 39.7297 35.1535C39.71 35.1027 39.7008 35.0483 39.7025 34.9938V33.1129C39.7058 33.0071 39.7501 32.9068 39.8261 32.8331C39.9021 32.7595 40.0037 32.7183 40.1096 32.7183C40.2154 32.7183 40.3171 32.7595 40.3931 32.8331C40.4691 32.9068 40.5134 33.0071 40.5167 33.1129V34.9946V34.9938ZM42.5461 17.6004C42.4176 17.4718 42.2537 17.3843 42.0754 17.3488C41.8971 17.3133 41.7123 17.3316 41.5443 17.4011C41.3763 17.4707 41.2327 17.5886 41.1317 17.7397C41.0307 17.8909 40.9768 18.0686 40.9768 18.2505C40.9768 18.4323 41.0307 18.61 41.1317 18.7612C41.2327 18.9124 41.3763 19.0302 41.5443 19.0998C41.7123 19.1694 41.8971 19.1876 42.0754 19.1521C42.2537 19.1167 42.4176 19.0291 42.5461 18.9005C42.7183 18.728 42.8149 18.4942 42.8149 18.2505C42.8149 18.0067 42.7183 17.7729 42.5461 17.6004ZM44.6976 13.9239C44.6436 13.9214 44.5906 13.9082 44.5418 13.885C44.4929 13.8617 44.4492 13.829 44.4132 13.7887C44.3771 13.7483 44.3495 13.7012 44.3319 13.65C44.3144 13.5989 44.3072 13.5447 44.3108 13.4908C44.3144 13.4368 44.3287 13.3841 44.3529 13.3357C44.3771 13.2874 44.4108 13.2444 44.4518 13.2092C44.4929 13.174 44.5406 13.1473 44.5921 13.1308C44.6436 13.1143 44.6979 13.1082 44.7518 13.1129L47.3987 13.2954C47.4521 13.2989 47.5044 13.3129 47.5524 13.3367C47.6003 13.3605 47.6432 13.3935 47.6783 13.4339C47.7135 13.4743 47.7404 13.5213 47.7573 13.5721C47.7743 13.6229 47.781 13.6765 47.7772 13.73L47.5946 16.3769C47.5921 16.4309 47.5789 16.4839 47.5557 16.5327C47.5324 16.5816 47.4997 16.6253 47.4593 16.6613C47.419 16.6974 47.3719 16.725 47.3207 16.7426C47.2696 16.7602 47.2154 16.7674 47.1615 16.7638C47.1075 16.7602 47.0548 16.7458 47.0064 16.7216C46.9581 16.6974 46.9151 16.6637 46.8799 16.6227C46.8447 16.5816 46.818 16.5339 46.8015 16.4824C46.785 16.4309 46.7789 16.3766 46.7836 16.3228L46.9021 14.6291L43.4627 17.5131C43.6261 17.8596 43.6702 18.2504 43.588 18.6246C43.5059 18.9988 43.3021 19.3352 43.0086 19.5814C42.7151 19.8276 42.3482 19.9696 41.9655 19.9853C41.5827 20.001 41.2055 19.8895 40.8928 19.6681L36.8904 23.0262C37.0118 23.2705 37.0739 23.54 37.0715 23.8129C37.0691 24.0857 37.0024 24.3541 36.8767 24.5963C36.7511 24.8385 36.5701 25.0476 36.3484 25.2066C36.1267 25.3657 35.8706 25.4702 35.6009 25.5116C35.3313 25.553 35.0556 25.5302 34.7964 25.4451C34.5372 25.3599 34.3018 25.2148 34.1092 25.0215C33.9166 24.8282 33.7724 24.5922 33.6883 24.3327C33.6041 24.0731 33.5824 23.7974 33.6248 23.5279L30.5386 22.2495C30.3776 22.4706 30.1667 22.6505 29.9229 22.7746C29.6792 22.8986 29.4096 22.9633 29.1361 22.9633C28.8626 22.9633 28.593 22.8986 28.3493 22.7746C28.1055 22.6505 27.8946 22.4706 27.7336 22.2495L24.6474 23.5279C24.69 23.799 24.6677 24.0763 24.5822 24.3371C24.4967 24.5978 24.3506 24.8346 24.1557 25.0278C23.9609 25.2211 23.723 25.3653 23.4616 25.4487C23.2001 25.5321 22.9226 25.5522 22.6519 25.5074C22.3812 25.4626 22.1249 25.3542 21.9043 25.191C21.6836 25.0279 21.5049 24.8147 21.3827 24.569C21.2605 24.3233 21.1984 24.0521 21.2015 23.7777C21.2046 23.5033 21.2727 23.2335 21.4004 22.9906L19.7451 21.5313C19.6661 21.4594 19.6186 21.3594 19.6127 21.2528C19.6068 21.1462 19.643 21.0416 19.7135 20.9615C19.7841 20.8813 19.8833 20.8321 19.9898 20.8245C20.0962 20.8168 20.2015 20.8513 20.2828 20.9205L21.9385 22.3763C22.3106 22.1147 22.7707 22.0098 23.2194 22.0843C23.6682 22.1588 24.0697 22.4067 24.3373 22.7745L27.4235 21.4961C27.3843 21.2486 27.3993 20.9954 27.4673 20.7542C27.5353 20.513 27.6549 20.2894 27.8177 20.0988C27.9804 19.9082 28.1826 19.7552 28.4102 19.6503C28.6378 19.5454 28.8855 19.491 29.1361 19.491C29.3867 19.491 29.6344 19.5454 29.862 19.6503C30.0896 19.7552 30.2918 19.9082 30.4546 20.0988C30.6174 20.2894 30.7369 20.513 30.8049 20.7542C30.873 20.9954 30.8879 21.2486 30.8487 21.4961L33.9349 22.7745C34.0695 22.5896 34.2394 22.4331 34.4347 22.3141C34.63 22.1951 34.847 22.1159 35.0731 22.0811C35.2991 22.0464 35.5298 22.0567 35.7519 22.1115C35.974 22.1663 36.183 22.2645 36.3669 22.4004L40.3571 19.0542C40.174 18.704 40.116 18.3018 40.1929 17.9141C40.2697 17.5265 40.4766 17.1767 40.7794 16.9228C41.0822 16.6688 41.4627 16.526 41.8578 16.5179C42.2529 16.5098 42.6389 16.6369 42.9519 16.8782L46.3391 14.0373L44.6976 13.9239ZM21.556 32.8526C22.3373 33.5299 22.9173 34.409 23.2326 35.3937C23.548 36.3784 23.5865 37.4308 23.3441 38.436H24.3148V28.3457H21.556V32.8526ZM13.8752 33.1256C13.2847 33.7157 12.8327 34.4297 12.5517 35.2158C12.2707 36.002 12.1677 36.8407 12.2503 37.6715C12.3329 38.5022 12.5989 39.3043 13.0291 40.0197C13.4594 40.7352 14.0431 41.3462 14.7382 41.8086C15.4333 42.271 16.2224 42.5733 17.0486 42.6936C17.8747 42.814 18.7173 42.7494 19.5154 42.5045C20.3135 42.2596 21.0473 41.8405 21.6638 41.2775C22.2803 40.7146 22.7641 40.0217 23.0802 39.249H46.5228C46.5774 39.2507 46.6317 39.2415 46.6825 39.2218C46.7334 39.2021 46.7798 39.1724 46.819 39.1344C46.8582 39.0964 46.8893 39.051 46.9106 39.0007C46.9319 38.9505 46.9428 38.8965 46.9428 38.8419C46.9428 38.7874 46.9319 38.7334 46.9106 38.6831C46.8893 38.6329 46.8582 38.5874 46.819 38.5495C46.7798 38.5115 46.7334 38.4818 46.6825 38.4621C46.6317 38.4424 46.5774 38.4331 46.5228 38.4348H44.0877V36.6298C44.0894 36.5752 44.0801 36.5209 44.0604 36.47C44.0407 36.4192 44.011 36.3728 43.973 36.3336C43.935 36.2944 43.8896 36.2633 43.8393 36.242C43.7891 36.2207 43.7351 36.2098 43.6805 36.2098C43.626 36.2098 43.572 36.2207 43.5218 36.242C43.4715 36.2633 43.4261 36.2944 43.3881 36.3336C43.3501 36.3728 43.3204 36.4192 43.3007 36.47C43.281 36.5209 43.2717 36.5752 43.2734 36.6298V38.436H40.5147V36.6298C40.5164 36.5752 40.5071 36.5209 40.4874 36.47C40.4677 36.4192 40.438 36.3728 40.4001 36.3336C40.3621 36.2944 40.3166 36.2633 40.2664 36.242C40.2162 36.2207 40.1622 36.2098 40.1076 36.2098C40.053 36.2098 39.999 36.2207 39.9488 36.242C39.8986 36.2633 39.8531 36.2944 39.8151 36.3336C39.7772 36.3728 39.7475 36.4192 39.7278 36.47C39.7081 36.5209 39.6988 36.5752 39.7005 36.6298V38.436H37.7682V27.8215C37.7681 27.7135 37.7252 27.61 37.6488 27.5337C37.5724 27.4574 37.4689 27.4145 37.3609 27.4145H33.788C33.68 27.4145 33.5765 27.4574 33.5001 27.5337C33.4237 27.61 33.3808 27.7135 33.3807 27.8215V38.436H31.4484V25.636C31.4484 25.528 31.4056 25.4245 31.3293 25.3481C31.253 25.2717 31.1495 25.2288 31.0415 25.2287H27.4686C27.3605 25.2287 27.2569 25.2716 27.1805 25.348C27.1042 25.4243 27.0612 25.5279 27.0612 25.636V38.436H25.129V27.9384C25.1289 27.8304 25.0859 27.7269 25.0096 27.6505C24.9332 27.5741 24.8297 27.5312 24.7217 27.5311H21.1487C21.0408 27.5312 20.9373 27.5741 20.861 27.6505C20.7847 27.7269 20.7418 27.8304 20.7418 27.9384V32.2639C19.6642 31.6241 18.4043 31.3615 17.1608 31.5176C15.9174 31.6736 14.7613 32.2394 13.8752 33.1256ZM17.8622 32.2884C16.9081 32.2884 15.9754 32.5714 15.182 33.1015C14.3887 33.6316 13.7704 34.385 13.4053 35.2665C13.0402 36.148 12.9446 37.118 13.1308 38.0538C13.317 38.9896 13.7765 39.8492 14.4512 40.5238C15.1259 41.1985 15.9855 41.6579 16.9213 41.844C17.8571 42.0301 18.8271 41.9345 19.7086 41.5693C20.5901 41.2041 21.3435 40.5858 21.8735 39.7924C22.4035 38.999 22.6864 38.0663 22.6863 37.1121C22.6863 36.4786 22.5615 35.8514 22.3191 35.2661C22.0767 34.6808 21.7213 34.149 21.2733 33.7011C20.8254 33.2532 20.2936 32.8979 19.7083 32.6555C19.123 32.4131 18.4957 32.2884 17.8622 32.2884Z" fill="#FD1716"/>
</svg>
