<svg width="30" height="30" viewBox="0 0 30 30" fill="none" xmlns="http://www.w3.org/2000/svg">
<path d="M14.893 23.1033C14.928 23.1128 14.9638 23.1176 15 23.1176C15.0362 23.1176 15.072 23.1128 15.107 23.1033C23.7616 20.743 22.0998 10.3133 22.0823 10.2083C22.0536 10.0392 21.9219 9.90612 21.7532 9.87549C17.0406 9.0185 15.329 7.0485 15.3135 7.0302C15.2363 6.9375 15.1217 6.88419 15.0012 6.88379H14.9996C14.8794 6.88379 14.7652 6.9371 14.6877 7.02881C14.671 7.0485 12.9594 9.0185 8.24673 9.87549C8.07804 9.90612 7.94635 10.0392 7.9177 10.2083C7.90019 10.3133 6.23834 20.743 14.893 23.1033ZM8.68119 10.6227C12.4242 9.89021 14.3105 8.49452 15 7.8671C15.6895 8.49452 17.5757 9.89021 21.3188 10.6227C21.5273 12.2549 22.1638 20.253 15 22.2873C7.83614 20.253 8.47271 12.2549 8.68119 10.6227Z" fill="black"/>
<path d="M13.1013 17.8008H16.8992C17.1244 17.8008 17.3066 17.6184 17.3066 17.3934V14.5925C17.3066 14.3675 17.1244 14.1851 16.8992 14.1851H16.7743V14.1278C16.7743 13.1494 15.9786 12.3535 15.0002 12.3535C14.0219 12.3535 13.2262 13.1494 13.2262 14.1278V14.1851H13.1013C12.8761 14.1851 12.6938 14.3675 12.6938 14.5925V17.3934C12.6938 17.6184 12.8761 17.8008 13.1013 17.8008ZM16.4918 16.986H13.5087V14.9999H16.4918V16.986ZM14.041 14.1278C14.041 13.5988 14.4715 13.1683 15.0002 13.1683C15.529 13.1683 15.9595 13.5988 15.9595 14.1278V14.1851H14.041V14.1278Z" fill="black"/>
<path d="M15.0002 16.6041C15.2254 16.6041 15.4076 16.4216 15.4076 16.1967V15.7892C15.4076 15.5643 15.2254 15.3818 15.0002 15.3818C14.775 15.3818 14.5928 15.5643 14.5928 15.7892V16.1967C14.5928 16.4216 14.775 16.6041 15.0002 16.6041Z" fill="black"/>
<path d="M21.4819 21.4819C21.2126 21.7512 21.0642 22.1093 21.0642 22.4902C21.0642 22.6959 21.1107 22.8933 21.1929 23.0753C19.4226 24.4334 17.241 25.1853 15 25.1853C9.38383 25.1853 4.81481 20.6163 4.81481 15.0001C4.81481 13.223 5.27534 11.4875 6.14993 9.95594C6.25969 9.76375 6.20421 9.52053 6.01647 9.40334C5.82242 9.28219 5.56214 9.34199 5.44848 9.54052C4.49959 11.1979 4 13.0766 4 15.0001C4 21.0655 8.93464 26.0001 15 26.0001C17.4363 26.0001 19.808 25.1777 21.7268 23.6921C21.9591 23.8396 22.224 23.9154 22.4901 23.9154C22.8553 23.9154 23.2202 23.7763 23.4983 23.4986C23.7676 23.2293 23.916 22.8712 23.916 22.4902C23.916 22.1093 23.7676 21.7512 23.4983 21.4819C22.9421 20.926 22.0381 20.9264 21.4819 21.4819ZM22.9222 22.9223C22.6842 23.1606 22.2959 23.1604 22.058 22.9221C21.9426 22.8069 21.879 22.6534 21.879 22.4902C21.879 22.3271 21.9426 22.1735 22.058 22.0582C22.177 21.939 22.3337 21.8795 22.4901 21.8795C22.6464 21.8795 22.8032 21.939 22.9222 22.0582C23.0375 22.1733 23.1012 22.3271 23.1012 22.4902C23.1012 22.6534 23.0375 22.8069 22.9222 22.9223Z" fill="black"/>
<path d="M15 4C12.5642 4 10.1925 4.82235 8.2734 6.30805C7.72217 5.95806 6.98247 6.02147 6.50174 6.50154C6.23239 6.77089 6.08398 7.12896 6.08398 7.50991C6.08398 7.89086 6.23239 8.24893 6.50174 8.51808C6.77984 8.79619 7.14468 8.93504 7.50991 8.93504C7.87514 8.93504 8.23998 8.79599 8.51808 8.51828C8.78743 8.24893 8.93584 7.89086 8.93584 7.50991C8.93584 7.30429 8.88931 7.1069 8.80715 6.92498C10.5775 5.56664 12.7591 4.81481 15 4.81481C20.6162 4.81481 25.1852 9.38383 25.1852 15C25.1852 16.7771 24.7247 18.5126 23.8501 20.0442C23.7403 20.2364 23.7958 20.4796 23.9835 20.5968C24.1776 20.718 24.4379 20.6581 24.5515 20.4596C25.5004 18.8022 26 16.9236 26 15C26 8.93464 21.0654 4 15 4ZM7.94198 7.94198C7.70407 8.1803 7.31576 8.1801 7.07784 7.94179C6.96246 7.82661 6.8988 7.67303 6.8988 7.50991C6.8988 7.34679 6.96246 7.19321 7.07784 7.07784C7.1968 6.95868 7.35355 6.8992 7.50991 6.8992C7.66627 6.8992 7.82303 6.95868 7.94198 7.07784C8.05736 7.19302 8.12102 7.34679 8.12102 7.50991C8.12102 7.67303 8.05736 7.82661 7.94198 7.94198Z" fill="black"/>
</svg>
