<svg width="30" height="30" viewBox="0 0 30 30" fill="none" xmlns="http://www.w3.org/2000/svg">
<path d="M4.83384 10.6001H3.36716C3.16467 10.6001 3.00049 10.4359 3.00049 10.2334V4.36667C3.00049 4.16418 3.16467 4 3.36716 4H9.2339C9.43639 4 9.60057 4.16418 9.60057 4.36667V5.83336C9.60057 6.03585 9.43639 6.20003 9.2339 6.20003H5.20051V10.2334C5.20051 10.4359 5.03634 10.6001 4.83384 10.6001ZM3.73383 9.86674H4.46717V5.83336C4.46717 5.63086 4.63135 5.46668 4.83384 5.46668H8.86723V4.73334H3.73383V9.86674Z" fill="black"/>
<path d="M26.1006 10.6001H24.6339C24.4314 10.6001 24.2672 10.4359 24.2672 10.2334V6.20003H20.2339C20.0314 6.20003 19.8672 6.03585 19.8672 5.83336V4.36667C19.8672 4.16418 20.0314 4 20.2339 4H26.1006C26.3031 4 26.4673 4.16418 26.4673 4.36667V10.2334C26.4673 10.4359 26.3031 10.6001 26.1006 10.6001ZM25.0006 9.86674H25.7339V4.73334H20.6005V5.46668H24.6339C24.8364 5.46668 25.0006 5.63086 25.0006 5.83336V9.86674Z" fill="black"/>
<path d="M26.1011 25.9995H20.2343C20.0319 25.9995 19.8677 25.8353 19.8677 25.6328V24.1661C19.8677 23.9636 20.0319 23.7995 20.2343 23.7995H24.2677V19.7661C24.2677 19.5636 24.4319 19.3994 24.6344 19.3994H26.1011C26.3036 19.3994 26.4678 19.5636 26.4678 19.7661V25.6328C26.4678 25.8353 26.3036 25.9995 26.1011 25.9995ZM20.601 25.2662H25.7344V20.1328H25.0011V24.1661C25.0011 24.3686 24.8369 24.5328 24.6344 24.5328H20.601V25.2662Z" fill="black"/>
<path d="M9.23341 25.9995H3.36667C3.16418 25.9995 3 25.8353 3 25.6328V19.7661C3 19.5636 3.16418 19.3994 3.36667 19.3994H4.83336C5.03585 19.3994 5.20003 19.5636 5.20003 19.7661V23.7995H9.23341C9.4359 23.7995 9.60008 23.9636 9.60008 24.1661V25.6328C9.60008 25.8353 9.4359 25.9995 9.23341 25.9995ZM3.73334 25.2662H8.86674V24.5328H4.83336C4.63086 24.5328 4.46668 24.3686 4.46668 24.1661V20.1328H3.73334V25.2662Z" fill="black"/>
<path d="M14.7336 24.5337C9.47691 24.5337 5.2002 20.257 5.2002 15.0002C5.2002 9.74351 9.47691 5.4668 14.7336 5.4668C19.9904 5.4668 24.2671 9.74351 24.2671 15.0002C24.2671 20.257 19.9904 24.5337 14.7336 24.5337ZM14.7336 6.20014C9.88126 6.20014 5.93354 10.1479 5.93354 15.0002C5.93354 19.8526 9.88126 23.8004 14.7336 23.8004C19.586 23.8004 23.5337 19.8526 23.5337 15.0002C23.5337 10.1479 19.586 6.20014 14.7336 6.20014Z" fill="black"/>
<path d="M17.667 19.3999H11.8003C11.5978 19.3999 11.4336 19.2358 11.4336 19.0333V16.8332C11.4336 15.0136 12.914 13.5332 14.7336 13.5332C16.5533 13.5332 18.0337 15.0136 18.0337 16.8332V19.0333C18.0337 19.2358 17.8695 19.3999 17.667 19.3999ZM12.1669 18.6666H17.3003V16.8332C17.3003 15.4179 16.1489 14.2665 14.7336 14.2665C13.3184 14.2665 12.1669 15.4179 12.1669 16.8332V18.6666Z" fill="black"/>
<path d="M14.7337 14.2663C13.7228 14.2663 12.9004 13.4439 12.9004 12.433C12.9004 11.4221 13.7228 10.5996 14.7337 10.5996C15.7447 10.5996 16.5671 11.4221 16.5671 12.433C16.5671 13.4439 15.7447 14.2663 14.7337 14.2663ZM14.7337 11.333C14.1272 11.333 13.6337 11.8264 13.6337 12.433C13.6337 13.0395 14.1272 13.533 14.7337 13.533C15.3403 13.533 15.8338 13.0395 15.8338 12.433C15.8338 11.8264 15.3403 11.333 14.7337 11.333Z" fill="black"/>
<path d="M21.5671 18.6667H17.6671C17.4646 18.6667 17.3004 18.5025 17.3004 18.3C17.3004 18.0975 17.4646 17.9334 17.6671 17.9334H21.2004V16.7C21.2004 16.2281 21.0167 15.7844 20.6831 15.4509C20.3495 15.1173 19.9059 14.9335 19.434 14.9335C18.7407 14.9335 18.1084 15.3418 17.823 15.9736C17.7397 16.1582 17.5224 16.2402 17.3379 16.1569C17.1533 16.0735 17.0713 15.8563 17.1547 15.6718C17.5585 14.7778 18.4532 14.2002 19.434 14.2002C20.1018 14.2002 20.7296 14.4602 21.2016 14.9323C21.6737 15.4044 21.9338 16.0322 21.9338 16.7V18.3C21.9338 18.5025 21.7696 18.6667 21.5671 18.6667Z" fill="black"/>
<path d="M19.4339 14.9331C18.6435 14.9331 18.0005 14.2901 18.0005 13.4997C18.0005 12.7094 18.6435 12.0664 19.4339 12.0664C20.2242 12.0664 20.8672 12.7094 20.8672 13.4997C20.8672 14.2901 20.2242 14.9331 19.4339 14.9331ZM19.4339 12.7997C19.0478 12.7997 18.7338 13.1138 18.7338 13.4997C18.7338 13.8857 19.0479 14.1997 19.4339 14.1997C19.8198 14.1997 20.1338 13.8857 20.1338 13.4997C20.1338 13.1138 19.8198 12.7997 19.4339 12.7997Z" fill="black"/>
<path d="M11.8004 18.6667H7.90036C7.69787 18.6667 7.53369 18.5025 7.53369 18.3V16.7C7.53369 15.3216 8.65506 14.2002 10.0335 14.2002C10.701 14.2002 11.3289 14.4601 11.8014 14.9322C12.0162 15.1469 12.1881 15.3957 12.3128 15.6719C12.3962 15.8564 12.3141 16.0736 12.1295 16.1569C11.945 16.2404 11.7278 16.1583 11.6445 15.9736C11.5563 15.7785 11.4348 15.6026 11.283 15.4509C10.9491 15.1174 10.5053 14.9336 10.0335 14.9336C9.05946 14.9336 8.26703 15.726 8.26703 16.7V17.9334H11.8004C12.0029 17.9334 12.167 18.0975 12.167 18.3C12.167 18.5025 12.0029 18.6667 11.8004 18.6667Z" fill="black"/>
<path d="M10.0335 14.9331C9.2431 14.9331 8.6001 14.2901 8.6001 13.4997C8.6001 12.7094 9.2431 12.0664 10.0335 12.0664C10.8238 12.0664 11.4668 12.7094 11.4668 13.4997C11.4668 14.2901 10.8238 14.9331 10.0335 14.9331ZM10.0335 12.7997C9.64749 12.7997 9.33344 13.1138 9.33344 13.4997C9.33344 13.8857 9.64749 14.1997 10.0335 14.1997C10.4194 14.1997 10.7335 13.8857 10.7335 13.4997C10.7335 13.1138 10.4194 12.7997 10.0335 12.7997Z" fill="black"/>
</svg>
