<svg width="30" height="30" viewBox="0 0 30 30" fill="none" xmlns="http://www.w3.org/2000/svg">
<path d="M28.6079 21.6864C28.6079 21.8277 28.5389 21.9603 28.4224 22.0412L22.8147 25.9234C22.7413 25.9741 22.6551 26 22.5688 26C22.5009 26 22.4318 25.9838 22.3682 25.9504C22.2259 25.876 22.1374 25.7293 22.1374 25.5686V23.8431H16.0292C15.7908 23.8431 15.5978 23.6501 15.5978 23.4118C15.5978 23.1734 15.7908 22.9804 16.0292 22.9804H22.5689C22.8073 22.9804 23.0003 23.1734 23.0003 23.4118V24.7458L27.4187 21.6863L23.0003 18.6268V19.9608C23.0003 20.1991 22.8073 20.3921 22.5689 20.3921H19.8383C19.6 20.3921 19.407 20.1991 19.407 19.9608C19.407 19.7224 19.6 19.5294 19.8383 19.5294H22.1376V17.8039C22.1376 17.6432 22.2271 17.4965 22.3683 17.4221C22.5096 17.3477 22.6822 17.3585 22.8137 17.4491L28.4215 21.3313C28.5379 21.4122 28.607 21.5449 28.607 21.6861L28.6079 21.6864ZM12.2739 23.7484C11.8361 23.8109 11.3799 23.8433 10.9216 23.8433H1.43137C1.19304 23.8433 1 23.6502 1 23.4119V19.9609C1 19.7226 1.19304 19.5295 1.43137 19.5295H10.9216C14.0134 19.5295 16.5293 17.0135 16.5293 13.9218C16.5293 10.8301 14.0133 8.3141 10.9216 8.3141C7.82987 8.3141 5.31387 10.8301 5.31387 13.9218C5.31387 15.6527 6.09465 17.2585 7.45672 18.3272C7.64437 18.475 7.67672 18.7456 7.53005 18.9333C7.3823 19.1199 7.11163 19.1522 6.92397 19.0066C5.57055 17.9443 4.71857 16.4205 4.50613 14.7437L3.41584 15.5622C3.33927 15.6194 3.2476 15.6485 3.15701 15.6485C3.06642 15.6485 2.97476 15.6194 2.89819 15.5622L1.9125 14.8224C2.03976 16.0982 2.43015 17.3384 3.06966 18.4523C3.18829 18.6593 3.11711 18.9225 2.91005 19.0411C2.70299 19.1597 2.43986 19.0886 2.32123 18.8815C1.45633 17.376 1.00014 15.6602 1.00014 13.9217C1.00014 8.45095 5.45081 4 10.9219 4C16.3929 4 20.8436 8.45067 20.8436 13.9217C20.8436 18.86 17.1596 23.0842 12.2744 23.7485L12.2739 23.7484ZM10.102 7.50939L9.28235 6.41587C9.16695 6.26273 9.16695 6.05137 9.28235 5.89822L10.0243 4.90823C5.51759 5.35363 1.97798 9.11623 1.87362 13.7138L3.15695 14.6768L4.46294 13.6976C4.57294 10.5097 6.99404 7.90435 10.1032 7.50846L10.102 7.50939ZM17.3339 13.1022L18.4274 12.2826C18.5805 12.1672 18.7919 12.1672 18.945 12.2826L19.935 13.0245C19.4896 8.51783 15.727 4.97822 11.1295 4.87276L10.1664 6.15608L11.1457 7.46207C14.3335 7.57208 16.9389 9.99317 17.3348 13.1024L17.3339 13.1022ZM1.86266 22.9806H10.7058L11.6763 21.6865L10.7058 20.3924H1.86266V22.9806ZM19.9707 14.1298L18.6863 13.1667L17.3803 14.146C17.2703 17.3338 14.8492 19.9392 11.74 20.3351L12.5596 21.4286C12.675 21.5818 12.675 21.7931 12.5596 21.9463L11.822 22.9309C11.933 22.919 12.0452 22.9115 12.1541 22.8953C16.5476 22.2978 19.868 18.5481 19.9705 14.1309L19.9707 14.1298Z" fill="black"/>
</svg>
