<svg width="30" height="30" viewBox="0 0 30 30" fill="none" xmlns="http://www.w3.org/2000/svg">
<mask id="path-1-inside-1_12250_46" fill="white">
<path d="M16.4834 14.0166C16.6698 13.9524 16.852 13.8768 17.0292 13.7903L17.6327 14.3938C17.7986 14.5591 18.0232 14.6519 18.2574 14.6519C18.4916 14.6519 18.7162 14.5591 18.8821 14.3938L19.897 13.3789C20.0623 13.213 20.1551 12.9884 20.1551 12.7542C20.1551 12.52 20.0623 12.2954 19.897 12.1295L19.2936 11.526C19.38 11.3488 19.4556 11.1665 19.5199 10.9802H20.3732C20.6074 10.9799 20.8319 10.8867 20.9975 10.721C21.1631 10.5554 21.2562 10.3308 21.2564 10.0966V8.65932C21.2562 8.42513 21.1631 8.20061 20.9975 8.03501C20.8319 7.86942 20.6074 7.7763 20.3732 7.77608H19.5212C19.4569 7.58963 19.3813 7.40726 19.2949 7.22995L19.8984 6.62649C20.0638 6.46075 20.1568 6.23612 20.1568 6.00192C20.1568 5.76772 20.0638 5.54309 19.8984 5.37734L18.8835 4.36079C18.7176 4.19567 18.493 4.10297 18.2589 4.10297C18.0248 4.10297 17.8003 4.19567 17.6343 4.36079L17.0309 4.96425C16.8536 4.87783 16.6714 4.80217 16.485 4.73768V3.88351C16.4847 3.649 16.3913 3.42419 16.2253 3.25851C16.0594 3.09284 15.8344 2.99985 15.5999 3H14.1625C13.9284 3.00036 13.7039 3.09357 13.5383 3.25919C13.3727 3.42481 13.2796 3.64933 13.2793 3.88351V4.73658C13.093 4.80108 12.9107 4.87674 12.7334 4.96315L12.13 4.3597C11.9642 4.1943 11.7396 4.10142 11.5054 4.10142C11.2712 4.10142 11.0466 4.1943 10.8808 4.3597L9.86593 5.37624C9.70061 5.54206 9.60777 5.76667 9.60777 6.00082C9.60777 6.23498 9.70061 6.45958 9.86593 6.6254L10.4694 7.22885C10.383 7.4062 10.3074 7.58857 10.2428 7.77498H9.38975C9.15554 7.7752 8.93099 7.86832 8.76535 8.0339C8.59971 8.19948 8.50653 8.42401 8.50624 8.65822V10.0955C8.50645 10.3295 8.59937 10.5539 8.76465 10.7196C8.92993 10.8852 9.15411 10.9786 9.38811 10.9793H10.2412C10.3057 11.1656 10.3814 11.3479 10.4677 11.5252L9.86429 12.1286C9.69901 12.2945 9.60622 12.5192 9.60622 12.7534C9.60622 12.9875 9.69901 13.2122 9.86429 13.3781L10.8792 14.393C11.045 14.5584 11.2696 14.6512 11.5038 14.6512C11.7379 14.6512 11.9626 14.5584 12.1283 14.393L12.7318 13.7895C12.909 13.876 13.0913 13.9517 13.2777 14.0161V14.8694C13.2779 15.1036 13.3711 15.3281 13.5367 15.4937C13.7022 15.6592 13.9267 15.7524 14.1609 15.7527H15.5982C15.8324 15.7524 16.0569 15.6592 16.2225 15.4937C16.3882 15.3281 16.4814 15.1036 16.4817 14.8694L16.4834 14.0166ZM16.0489 13.4406C15.9778 13.4608 15.9152 13.5037 15.8706 13.5627C15.8261 13.6217 15.802 13.6936 15.802 13.7676V14.8702C15.8013 14.9238 15.7797 14.9749 15.7418 15.0127C15.704 15.0505 15.6528 15.072 15.5993 15.0727H14.162C14.1085 15.072 14.0574 15.0504 14.0196 15.0126C13.9818 14.9748 13.9603 14.9237 13.9596 14.8702V13.7676C13.9595 13.6936 13.9354 13.6217 13.8908 13.5627C13.8463 13.5036 13.7838 13.4607 13.7127 13.4403C13.4067 13.3525 13.1117 13.2302 12.8333 13.0758C12.7686 13.0399 12.694 13.0261 12.6208 13.0363C12.5476 13.0465 12.4797 13.0803 12.4273 13.1326L11.6475 13.9127C11.6092 13.95 11.5578 13.9709 11.5043 13.9709C11.4508 13.9709 11.3994 13.95 11.3611 13.9127L10.3462 12.8964C10.3086 12.8582 10.2875 12.8067 10.2875 12.7531C10.2875 12.6995 10.3086 12.648 10.3462 12.6098L11.1255 11.8297C11.1778 11.7774 11.2116 11.7095 11.2219 11.6362C11.2322 11.563 11.2184 11.4884 11.1826 11.4237C11.028 11.1453 10.9057 10.8503 10.8177 10.5443C10.7974 10.4732 10.7545 10.4106 10.6955 10.3661C10.6364 10.3215 10.5645 10.2974 10.4905 10.2974H9.38811C9.33457 10.2967 9.28342 10.2751 9.24556 10.2373C9.20769 10.1994 9.18611 10.1483 9.1854 10.0947V8.6574C9.18611 8.60388 9.2077 8.55277 9.24557 8.51495C9.28344 8.47713 9.33459 8.45561 9.38811 8.45497H10.4905C10.5645 8.45495 10.6364 8.43085 10.6955 8.38631C10.7545 8.34177 10.7974 8.27921 10.8177 8.2081C10.9057 7.90209 11.028 7.60707 11.1826 7.3287C11.2184 7.26405 11.2322 7.1895 11.2219 7.11631C11.2116 7.04312 11.1778 6.97527 11.1255 6.92301L10.3457 6.14291C10.3081 6.10473 10.287 6.0533 10.287 5.99972C10.287 5.94615 10.3081 5.89472 10.3457 5.85654L11.3606 4.84027C11.3988 4.80268 11.4502 4.78161 11.5038 4.78161C11.5573 4.78161 11.6088 4.80268 11.647 4.84027L12.4268 5.6201C12.4791 5.67238 12.547 5.70623 12.6202 5.71652C12.6935 5.72681 12.7681 5.71299 12.8327 5.67715C13.1111 5.52268 13.4062 5.40029 13.7121 5.31233C13.7833 5.29201 13.8458 5.24908 13.8904 5.19004C13.9349 5.131 13.959 5.05905 13.959 4.9851V3.88351C13.9596 3.83 13.9812 3.77885 14.019 3.74098C14.0568 3.70311 14.1079 3.68152 14.1614 3.68081H15.5988C15.6523 3.68145 15.7035 3.70301 15.7414 3.74089C15.7793 3.77876 15.8008 3.82995 15.8015 3.88351V4.98592C15.8015 5.05988 15.8256 5.13182 15.8701 5.19086C15.9147 5.2499 15.9772 5.29283 16.0483 5.31316C16.3544 5.40101 16.6494 5.5234 16.9277 5.67797C16.9924 5.71381 17.067 5.72763 17.1403 5.71734C17.2135 5.70705 17.2814 5.6732 17.3337 5.62092L18.1138 4.84081C18.152 4.80329 18.2034 4.78226 18.257 4.78226C18.3105 4.78226 18.362 4.80329 18.4002 4.84081L19.4151 5.85709C19.4527 5.89527 19.4737 5.94669 19.4737 6.00027C19.4737 6.05385 19.4527 6.10528 19.4151 6.14346L18.6372 6.92383C18.5848 6.97605 18.5509 7.0439 18.5406 7.11711C18.5303 7.19033 18.5442 7.2649 18.5801 7.32952C18.7345 7.6079 18.8568 7.90293 18.9447 8.20892C18.965 8.28001 19.008 8.34254 19.067 8.38708C19.126 8.43161 19.1979 8.45573 19.2719 8.45579H20.3746C20.428 8.4565 20.4791 8.47805 20.5169 8.51586C20.5547 8.55368 20.5763 8.60475 20.577 8.65822V10.0955C20.5763 10.149 20.5547 10.2001 20.5169 10.238C20.4791 10.2759 20.4281 10.2975 20.3746 10.2982H19.2708C19.1968 10.2983 19.1249 10.3224 19.0658 10.3669C19.0068 10.4114 18.9639 10.474 18.9436 10.5451C18.8558 10.8511 18.7335 11.1462 18.579 11.4245C18.5431 11.4892 18.5293 11.5638 18.5396 11.637C18.5499 11.7103 18.5837 11.7782 18.6361 11.8305L19.4159 12.6103C19.4535 12.6485 19.4746 12.7 19.4746 12.7536C19.4746 12.8073 19.4535 12.8587 19.4159 12.8969L18.401 13.9132C18.3628 13.9508 18.3113 13.9719 18.2577 13.9719C18.204 13.9719 18.1526 13.9508 18.1144 13.9132L17.3342 13.1323C17.2819 13.0801 17.214 13.0463 17.1408 13.036C17.0675 13.0258 16.9929 13.0396 16.9283 13.0755C16.6499 13.23 16.3549 13.3526 16.0489 13.4406ZM18.3382 9.37661C18.3379 8.6931 18.135 8.02503 17.755 7.45684C17.3751 6.88866 16.8352 6.44589 16.2037 6.18451C15.5721 5.92314 14.8773 5.85489 14.2069 5.9884C13.5366 6.12191 12.9209 6.45119 12.4377 6.93459C11.9545 7.418 11.6254 8.03383 11.4922 8.70422C11.3589 9.37461 11.4275 10.0695 11.6891 10.7009C11.9507 11.3324 12.3937 11.8721 12.962 12.2518C13.5304 12.6315 14.1985 12.8341 14.882 12.8341C15.7985 12.8328 16.677 12.468 17.3249 11.8198C17.9727 11.1717 18.3372 10.2931 18.3382 9.37661ZM14.882 12.1533C14.3328 12.1535 13.7959 11.9908 13.3391 11.6858C12.8824 11.3808 12.5264 10.9471 12.3161 10.4398C12.1058 9.93242 12.0507 9.37409 12.1577 8.8354C12.2648 8.29672 12.5292 7.80188 12.9175 7.41346C13.3058 7.02505 13.8005 6.76051 14.3392 6.6533C14.8778 6.5461 15.4362 6.60104 15.9436 6.81117C16.451 7.02131 16.8848 7.37721 17.1899 7.83386C17.495 8.29051 17.6579 8.82739 17.6579 9.37661C17.6571 10.1127 17.3644 10.8183 16.844 11.3389C16.3237 11.8594 15.6181 12.1523 14.882 12.1533ZM26.5973 18.3607L26.4673 11.5244C26.5556 10.5136 26.1044 10.0607 25.826 9.88022C25.6015 9.74352 25.3439 9.67094 25.0812 9.67036C24.8184 9.66977 24.5605 9.74122 24.3354 9.87693C24.0303 10.062 23.7823 10.3279 23.6188 10.6452C23.4554 10.9625 23.3829 11.3188 23.4094 11.6747L23.298 16.1682C23.2976 16.1866 23.2986 16.2049 23.3011 16.2231C23.3076 16.2715 23.3097 16.3205 23.3071 16.3693C23.222 16.2024 23.0942 16.0611 22.9368 15.9598C22.5037 15.6855 21.9038 15.7488 21.1538 16.1518C19.5873 16.9906 17.5737 19.2464 17.5449 20.5852C17.5446 20.59 17.5446 20.5948 17.5449 20.5995L17.6039 23.5619H17.5287C17.232 23.5622 16.9475 23.6802 16.7377 23.89C16.5279 24.0999 16.4099 24.3843 16.4096 24.6811V25.9039C16.41 26.2006 16.528 26.485 16.7378 26.6948C16.9476 26.9046 17.232 27.0227 17.5287 27.023H22.7025C22.9992 27.0227 23.2837 26.9046 23.4935 26.6948C23.7033 26.485 23.8213 26.2006 23.8217 25.9039V24.6808C23.8213 24.3969 23.7132 24.1238 23.5192 23.9165C23.3252 23.7092 23.0598 23.5833 22.7766 23.5641L22.7645 23.3244C22.781 23.3096 22.7999 23.292 22.8194 23.2715L25.6213 20.5057C25.9406 20.2496 26.1953 19.922 26.3648 19.5495C26.5344 19.1769 26.614 18.7697 26.5973 18.3607ZM23.1411 24.6808V25.9039C23.1411 26.0203 23.0949 26.1319 23.0126 26.2142C22.9303 26.2965 22.8187 26.3428 22.7023 26.3428H17.5287C17.4123 26.3428 17.3007 26.2965 17.2184 26.2142C17.1361 26.1319 17.0898 26.0203 17.0898 25.9039V24.6808C17.0898 24.5644 17.1361 24.4528 17.2184 24.3705C17.3007 24.2882 17.4123 24.2419 17.5287 24.2419H22.7025C22.8188 24.2421 22.9303 24.2884 23.0125 24.3707C23.0947 24.4529 23.1409 24.5645 23.1409 24.6808H23.1411ZM25.1682 19.9977C25.1624 20.0026 25.1568 20.0078 25.1515 20.0133L22.3429 22.787C22.3133 22.8164 22.2903 22.8361 22.2702 22.8534C22.1972 22.9091 22.1411 22.9841 22.1082 23.0699C22.0754 23.1557 22.0672 23.249 22.0845 23.3392L22.0955 23.5617H18.2847L18.2257 20.5929C18.2531 19.6134 20.0114 17.5351 21.4753 16.7528C21.9707 16.4872 22.3701 16.4085 22.5725 16.5363C22.7538 16.6518 22.8422 16.9859 22.823 17.4794C22.2793 18.2049 21.6563 18.8673 20.9654 19.4543C20.8981 19.5145 20.8574 19.5989 20.8523 19.6891C20.8473 19.7792 20.8782 19.8677 20.9384 19.935C20.9985 20.0024 21.083 20.043 21.1731 20.0481C21.2633 20.0532 21.3518 20.0222 21.4191 19.962C23.2755 18.3031 24.0891 17.0932 23.9791 16.1592L24.0902 11.6824C24.0902 11.6758 24.0902 11.6695 24.0902 11.6629C24.0633 11.4294 24.1036 11.1932 24.2064 10.9819C24.3092 10.7705 24.4701 10.593 24.6703 10.47C24.7872 10.3958 24.9222 10.3548 25.0606 10.3516C25.199 10.3484 25.3357 10.3829 25.4559 10.4516C25.7162 10.6205 25.8342 10.9859 25.7878 11.4805C25.7867 11.4932 25.7862 11.5061 25.7865 11.5189L25.917 18.3763V18.3826C25.9301 18.692 25.8689 19.0001 25.7386 19.281C25.6083 19.562 25.4128 19.8077 25.1682 19.9977ZM18.9855 25.2955C18.9855 25.3858 18.9497 25.4724 18.8858 25.5362C18.822 25.6 18.7354 25.6359 18.6451 25.6359H17.8908C17.8005 25.6359 17.7139 25.6 17.6501 25.5362C17.5863 25.4724 17.5504 25.3858 17.5504 25.2955C17.5504 25.2052 17.5863 25.1186 17.6501 25.0548C17.7139 24.991 17.8005 24.9551 17.8908 24.9551H18.6451C18.7354 24.9551 18.822 24.991 18.8858 25.0548C18.9497 25.1186 18.9855 25.2052 18.9855 25.2955ZM12.0707 23.5617H11.9956L12.0546 20.5992C12.0548 20.5945 12.0548 20.5897 12.0546 20.585C12.0271 19.2461 10.0121 16.9917 8.44562 16.1515C7.69569 15.7499 7.0958 15.6852 6.66268 15.9595C6.50522 16.0609 6.37744 16.2022 6.29238 16.369C6.28981 16.3202 6.29183 16.2713 6.29841 16.2228C6.30089 16.2046 6.3019 16.1863 6.30143 16.168L6.19006 11.6744C6.21655 11.3185 6.14407 10.9622 5.98064 10.6449C5.81721 10.3276 5.56919 10.0617 5.26403 9.87665C5.039 9.74095 4.78109 9.6695 4.51831 9.67008C4.25552 9.67066 3.99793 9.74324 3.7735 9.87994C3.49509 10.0604 3.04387 10.5133 3.13219 11.5241L3.00217 18.3607C2.98549 18.7697 3.06511 19.1769 3.23463 19.5495C3.40415 19.922 3.65882 20.2496 3.97812 20.5057L6.77898 23.2715C6.79955 23.292 6.81821 23.3093 6.83384 23.3244L6.82177 23.5641C6.53854 23.5833 6.27314 23.7092 6.07917 23.9165C5.88519 24.1238 5.77709 24.3969 5.7767 24.6808V25.9039C5.77706 26.2006 5.89509 26.485 6.10489 26.6948C6.31469 26.9046 6.59913 27.0227 6.89583 27.023H12.0707C12.3674 27.0227 12.6519 26.9046 12.8617 26.6948C13.0715 26.485 13.1895 26.2006 13.1899 25.9039V24.6808C13.1896 24.3841 13.0716 24.0996 12.8618 23.8898C12.652 23.6799 12.3675 23.5619 12.0707 23.5617ZM4.44827 20.0133C4.44296 20.0078 4.43738 20.0026 4.43154 19.9977C4.187 19.8078 3.99142 19.5622 3.86111 19.2813C3.7308 19.0005 3.66953 18.6925 3.68243 18.3832V18.3769L3.813 11.5194C3.81368 11.5066 3.81368 11.4938 3.813 11.481C3.76664 10.9873 3.88459 10.6211 4.1449 10.4521C4.26514 10.3835 4.40183 10.3489 4.54025 10.3522C4.67867 10.3554 4.81359 10.3963 4.93049 10.4705C5.13071 10.5935 5.29166 10.7711 5.39442 10.9824C5.49719 11.1937 5.53751 11.43 5.51063 11.6634C5.51063 11.67 5.51063 11.6763 5.51063 11.6829L5.62035 16.1597C5.51063 17.0937 6.32529 18.3028 8.18119 19.9604C8.24852 20.0206 8.33699 20.0515 8.42714 20.0464C8.51729 20.0414 8.60174 20.0007 8.6619 19.9334C8.72206 19.8661 8.75302 19.7776 8.74795 19.6874C8.74288 19.5973 8.70221 19.5128 8.63488 19.4527C7.94401 18.8657 7.32096 18.2032 6.77734 17.4777C6.75814 16.984 6.84646 16.6502 7.02777 16.5347C7.22938 16.4069 7.62876 16.4859 8.12496 16.7511C9.58807 17.5351 11.3452 19.6134 11.3737 20.5929L11.3161 23.5617H7.5034L7.51465 23.3392C7.53196 23.249 7.52375 23.1557 7.49094 23.0699C7.45814 22.9841 7.40204 22.9091 7.32895 22.8534C7.30893 22.8361 7.28589 22.8164 7.25626 22.787L4.44827 20.0133ZM12.5091 25.9039C12.5091 26.0203 12.4628 26.1319 12.3805 26.2142C12.2982 26.2965 12.1866 26.3428 12.0702 26.3428H6.89693C6.78053 26.3428 6.6689 26.2965 6.5866 26.2142C6.50429 26.1319 6.45805 26.0203 6.45805 25.9039V24.6808C6.45805 24.5644 6.50429 24.4528 6.5866 24.3705C6.6689 24.2882 6.78053 24.2419 6.89693 24.2419H12.0707C12.1871 24.2419 12.2988 24.2882 12.3811 24.3705C12.4634 24.4528 12.5096 24.5644 12.5096 24.6808L12.5091 25.9039ZM12.0491 25.2955C12.0491 25.3858 12.0132 25.4724 11.9494 25.5362C11.8855 25.6 11.7989 25.6359 11.7087 25.6359H10.9543C10.8641 25.6359 10.7775 25.6 10.7136 25.5362C10.6498 25.4724 10.6139 25.3858 10.6139 25.2955C10.6139 25.2052 10.6498 25.1186 10.7136 25.0548C10.7775 24.991 10.8641 24.9551 10.9543 24.9551H11.7087C11.7534 24.9551 11.7976 24.9639 11.8389 24.981C11.8802 24.9981 11.9178 25.0232 11.9494 25.0548C11.981 25.0864 12.0061 25.1239 12.0232 25.1652C12.0403 25.2065 12.0491 25.2508 12.0491 25.2955Z"/>
</mask>
<path d="M16.4834 14.0166C16.6698 13.9524 16.852 13.8768 17.0292 13.7903L17.6327 14.3938C17.7986 14.5591 18.0232 14.6519 18.2574 14.6519C18.4916 14.6519 18.7162 14.5591 18.8821 14.3938L19.897 13.3789C20.0623 13.213 20.1551 12.9884 20.1551 12.7542C20.1551 12.52 20.0623 12.2954 19.897 12.1295L19.2936 11.526C19.38 11.3488 19.4556 11.1665 19.5199 10.9802H20.3732C20.6074 10.9799 20.8319 10.8867 20.9975 10.721C21.1631 10.5554 21.2562 10.3308 21.2564 10.0966V8.65932C21.2562 8.42513 21.1631 8.20061 20.9975 8.03501C20.8319 7.86942 20.6074 7.7763 20.3732 7.77608H19.5212C19.4569 7.58963 19.3813 7.40726 19.2949 7.22995L19.8984 6.62649C20.0638 6.46075 20.1568 6.23612 20.1568 6.00192C20.1568 5.76772 20.0638 5.54309 19.8984 5.37734L18.8835 4.36079C18.7176 4.19567 18.493 4.10297 18.2589 4.10297C18.0248 4.10297 17.8003 4.19567 17.6343 4.36079L17.0309 4.96425C16.8536 4.87783 16.6714 4.80217 16.485 4.73768V3.88351C16.4847 3.649 16.3913 3.42419 16.2253 3.25851C16.0594 3.09284 15.8344 2.99985 15.5999 3H14.1625C13.9284 3.00036 13.7039 3.09357 13.5383 3.25919C13.3727 3.42481 13.2796 3.64933 13.2793 3.88351V4.73658C13.093 4.80108 12.9107 4.87674 12.7334 4.96315L12.13 4.3597C11.9642 4.1943 11.7396 4.10142 11.5054 4.10142C11.2712 4.10142 11.0466 4.1943 10.8808 4.3597L9.86593 5.37624C9.70061 5.54206 9.60777 5.76667 9.60777 6.00082C9.60777 6.23498 9.70061 6.45958 9.86593 6.6254L10.4694 7.22885C10.383 7.4062 10.3074 7.58857 10.2428 7.77498H9.38975C9.15554 7.7752 8.93099 7.86832 8.76535 8.0339C8.59971 8.19948 8.50653 8.42401 8.50624 8.65822V10.0955C8.50645 10.3295 8.59937 10.5539 8.76465 10.7196C8.92993 10.8852 9.15411 10.9786 9.38811 10.9793H10.2412C10.3057 11.1656 10.3814 11.3479 10.4677 11.5252L9.86429 12.1286C9.69901 12.2945 9.60622 12.5192 9.60622 12.7534C9.60622 12.9875 9.69901 13.2122 9.86429 13.3781L10.8792 14.393C11.045 14.5584 11.2696 14.6512 11.5038 14.6512C11.7379 14.6512 11.9626 14.5584 12.1283 14.393L12.7318 13.7895C12.909 13.876 13.0913 13.9517 13.2777 14.0161V14.8694C13.2779 15.1036 13.3711 15.3281 13.5367 15.4937C13.7022 15.6592 13.9267 15.7524 14.1609 15.7527H15.5982C15.8324 15.7524 16.0569 15.6592 16.2225 15.4937C16.3882 15.3281 16.4814 15.1036 16.4817 14.8694L16.4834 14.0166ZM16.0489 13.4406C15.9778 13.4608 15.9152 13.5037 15.8706 13.5627C15.8261 13.6217 15.802 13.6936 15.802 13.7676V14.8702C15.8013 14.9238 15.7797 14.9749 15.7418 15.0127C15.704 15.0505 15.6528 15.072 15.5993 15.0727H14.162C14.1085 15.072 14.0574 15.0504 14.0196 15.0126C13.9818 14.9748 13.9603 14.9237 13.9596 14.8702V13.7676C13.9595 13.6936 13.9354 13.6217 13.8908 13.5627C13.8463 13.5036 13.7838 13.4607 13.7127 13.4403C13.4067 13.3525 13.1117 13.2302 12.8333 13.0758C12.7686 13.0399 12.694 13.0261 12.6208 13.0363C12.5476 13.0465 12.4797 13.0803 12.4273 13.1326L11.6475 13.9127C11.6092 13.95 11.5578 13.9709 11.5043 13.9709C11.4508 13.9709 11.3994 13.95 11.3611 13.9127L10.3462 12.8964C10.3086 12.8582 10.2875 12.8067 10.2875 12.7531C10.2875 12.6995 10.3086 12.648 10.3462 12.6098L11.1255 11.8297C11.1778 11.7774 11.2116 11.7095 11.2219 11.6362C11.2322 11.563 11.2184 11.4884 11.1826 11.4237C11.028 11.1453 10.9057 10.8503 10.8177 10.5443C10.7974 10.4732 10.7545 10.4106 10.6955 10.3661C10.6364 10.3215 10.5645 10.2974 10.4905 10.2974H9.38811C9.33457 10.2967 9.28342 10.2751 9.24556 10.2373C9.20769 10.1994 9.18611 10.1483 9.1854 10.0947V8.6574C9.18611 8.60388 9.2077 8.55277 9.24557 8.51495C9.28344 8.47713 9.33459 8.45561 9.38811 8.45497H10.4905C10.5645 8.45495 10.6364 8.43085 10.6955 8.38631C10.7545 8.34177 10.7974 8.27921 10.8177 8.2081C10.9057 7.90209 11.028 7.60707 11.1826 7.3287C11.2184 7.26405 11.2322 7.1895 11.2219 7.11631C11.2116 7.04312 11.1778 6.97527 11.1255 6.92301L10.3457 6.14291C10.3081 6.10473 10.287 6.0533 10.287 5.99972C10.287 5.94615 10.3081 5.89472 10.3457 5.85654L11.3606 4.84027C11.3988 4.80268 11.4502 4.78161 11.5038 4.78161C11.5573 4.78161 11.6088 4.80268 11.647 4.84027L12.4268 5.6201C12.4791 5.67238 12.547 5.70623 12.6202 5.71652C12.6935 5.72681 12.7681 5.71299 12.8327 5.67715C13.1111 5.52268 13.4062 5.40029 13.7121 5.31233C13.7833 5.29201 13.8458 5.24908 13.8904 5.19004C13.9349 5.131 13.959 5.05905 13.959 4.9851V3.88351C13.9596 3.83 13.9812 3.77885 14.019 3.74098C14.0568 3.70311 14.1079 3.68152 14.1614 3.68081H15.5988C15.6523 3.68145 15.7035 3.70301 15.7414 3.74089C15.7793 3.77876 15.8008 3.82995 15.8015 3.88351V4.98592C15.8015 5.05988 15.8256 5.13182 15.8701 5.19086C15.9147 5.2499 15.9772 5.29283 16.0483 5.31316C16.3544 5.40101 16.6494 5.5234 16.9277 5.67797C16.9924 5.71381 17.067 5.72763 17.1403 5.71734C17.2135 5.70705 17.2814 5.6732 17.3337 5.62092L18.1138 4.84081C18.152 4.80329 18.2034 4.78226 18.257 4.78226C18.3105 4.78226 18.362 4.80329 18.4002 4.84081L19.4151 5.85709C19.4527 5.89527 19.4737 5.94669 19.4737 6.00027C19.4737 6.05385 19.4527 6.10528 19.4151 6.14346L18.6372 6.92383C18.5848 6.97605 18.5509 7.0439 18.5406 7.11711C18.5303 7.19033 18.5442 7.2649 18.5801 7.32952C18.7345 7.6079 18.8568 7.90293 18.9447 8.20892C18.965 8.28001 19.008 8.34254 19.067 8.38708C19.126 8.43161 19.1979 8.45573 19.2719 8.45579H20.3746C20.428 8.4565 20.4791 8.47805 20.5169 8.51586C20.5547 8.55368 20.5763 8.60475 20.577 8.65822V10.0955C20.5763 10.149 20.5547 10.2001 20.5169 10.238C20.4791 10.2759 20.4281 10.2975 20.3746 10.2982H19.2708C19.1968 10.2983 19.1249 10.3224 19.0658 10.3669C19.0068 10.4114 18.9639 10.474 18.9436 10.5451C18.8558 10.8511 18.7335 11.1462 18.579 11.4245C18.5431 11.4892 18.5293 11.5638 18.5396 11.637C18.5499 11.7103 18.5837 11.7782 18.6361 11.8305L19.4159 12.6103C19.4535 12.6485 19.4746 12.7 19.4746 12.7536C19.4746 12.8073 19.4535 12.8587 19.4159 12.8969L18.401 13.9132C18.3628 13.9508 18.3113 13.9719 18.2577 13.9719C18.204 13.9719 18.1526 13.9508 18.1144 13.9132L17.3342 13.1323C17.2819 13.0801 17.214 13.0463 17.1408 13.036C17.0675 13.0258 16.9929 13.0396 16.9283 13.0755C16.6499 13.23 16.3549 13.3526 16.0489 13.4406ZM18.3382 9.37661C18.3379 8.6931 18.135 8.02503 17.755 7.45684C17.3751 6.88866 16.8352 6.44589 16.2037 6.18451C15.5721 5.92314 14.8773 5.85489 14.2069 5.9884C13.5366 6.12191 12.9209 6.45119 12.4377 6.93459C11.9545 7.418 11.6254 8.03383 11.4922 8.70422C11.3589 9.37461 11.4275 10.0695 11.6891 10.7009C11.9507 11.3324 12.3937 11.8721 12.962 12.2518C13.5304 12.6315 14.1985 12.8341 14.882 12.8341C15.7985 12.8328 16.677 12.468 17.3249 11.8198C17.9727 11.1717 18.3372 10.2931 18.3382 9.37661ZM14.882 12.1533C14.3328 12.1535 13.7959 11.9908 13.3391 11.6858C12.8824 11.3808 12.5264 10.9471 12.3161 10.4398C12.1058 9.93242 12.0507 9.37409 12.1577 8.8354C12.2648 8.29672 12.5292 7.80188 12.9175 7.41346C13.3058 7.02505 13.8005 6.76051 14.3392 6.6533C14.8778 6.5461 15.4362 6.60104 15.9436 6.81117C16.451 7.02131 16.8848 7.37721 17.1899 7.83386C17.495 8.29051 17.6579 8.82739 17.6579 9.37661C17.6571 10.1127 17.3644 10.8183 16.844 11.3389C16.3237 11.8594 15.6181 12.1523 14.882 12.1533ZM26.5973 18.3607L26.4673 11.5244C26.5556 10.5136 26.1044 10.0607 25.826 9.88022C25.6015 9.74352 25.3439 9.67094 25.0812 9.67036C24.8184 9.66977 24.5605 9.74122 24.3354 9.87693C24.0303 10.062 23.7823 10.3279 23.6188 10.6452C23.4554 10.9625 23.3829 11.3188 23.4094 11.6747L23.298 16.1682C23.2976 16.1866 23.2986 16.2049 23.3011 16.2231C23.3076 16.2715 23.3097 16.3205 23.3071 16.3693C23.222 16.2024 23.0942 16.0611 22.9368 15.9598C22.5037 15.6855 21.9038 15.7488 21.1538 16.1518C19.5873 16.9906 17.5737 19.2464 17.5449 20.5852C17.5446 20.59 17.5446 20.5948 17.5449 20.5995L17.6039 23.5619H17.5287C17.232 23.5622 16.9475 23.6802 16.7377 23.89C16.5279 24.0999 16.4099 24.3843 16.4096 24.6811V25.9039C16.41 26.2006 16.528 26.485 16.7378 26.6948C16.9476 26.9046 17.232 27.0227 17.5287 27.023H22.7025C22.9992 27.0227 23.2837 26.9046 23.4935 26.6948C23.7033 26.485 23.8213 26.2006 23.8217 25.9039V24.6808C23.8213 24.3969 23.7132 24.1238 23.5192 23.9165C23.3252 23.7092 23.0598 23.5833 22.7766 23.5641L22.7645 23.3244C22.781 23.3096 22.7999 23.292 22.8194 23.2715L25.6213 20.5057C25.9406 20.2496 26.1953 19.922 26.3648 19.5495C26.5344 19.1769 26.614 18.7697 26.5973 18.3607ZM23.1411 24.6808V25.9039C23.1411 26.0203 23.0949 26.1319 23.0126 26.2142C22.9303 26.2965 22.8187 26.3428 22.7023 26.3428H17.5287C17.4123 26.3428 17.3007 26.2965 17.2184 26.2142C17.1361 26.1319 17.0898 26.0203 17.0898 25.9039V24.6808C17.0898 24.5644 17.1361 24.4528 17.2184 24.3705C17.3007 24.2882 17.4123 24.2419 17.5287 24.2419H22.7025C22.8188 24.2421 22.9303 24.2884 23.0125 24.3707C23.0947 24.4529 23.1409 24.5645 23.1409 24.6808H23.1411ZM25.1682 19.9977C25.1624 20.0026 25.1568 20.0078 25.1515 20.0133L22.3429 22.787C22.3133 22.8164 22.2903 22.8361 22.2702 22.8534C22.1972 22.9091 22.1411 22.9841 22.1082 23.0699C22.0754 23.1557 22.0672 23.249 22.0845 23.3392L22.0955 23.5617H18.2847L18.2257 20.5929C18.2531 19.6134 20.0114 17.5351 21.4753 16.7528C21.9707 16.4872 22.3701 16.4085 22.5725 16.5363C22.7538 16.6518 22.8422 16.9859 22.823 17.4794C22.2793 18.2049 21.6563 18.8673 20.9654 19.4543C20.8981 19.5145 20.8574 19.5989 20.8523 19.6891C20.8473 19.7792 20.8782 19.8677 20.9384 19.935C20.9985 20.0024 21.083 20.043 21.1731 20.0481C21.2633 20.0532 21.3518 20.0222 21.4191 19.962C23.2755 18.3031 24.0891 17.0932 23.9791 16.1592L24.0902 11.6824C24.0902 11.6758 24.0902 11.6695 24.0902 11.6629C24.0633 11.4294 24.1036 11.1932 24.2064 10.9819C24.3092 10.7705 24.4701 10.593 24.6703 10.47C24.7872 10.3958 24.9222 10.3548 25.0606 10.3516C25.199 10.3484 25.3357 10.3829 25.4559 10.4516C25.7162 10.6205 25.8342 10.9859 25.7878 11.4805C25.7867 11.4932 25.7862 11.5061 25.7865 11.5189L25.917 18.3763V18.3826C25.9301 18.692 25.8689 19.0001 25.7386 19.281C25.6083 19.562 25.4128 19.8077 25.1682 19.9977ZM18.9855 25.2955C18.9855 25.3858 18.9497 25.4724 18.8858 25.5362C18.822 25.6 18.7354 25.6359 18.6451 25.6359H17.8908C17.8005 25.6359 17.7139 25.6 17.6501 25.5362C17.5863 25.4724 17.5504 25.3858 17.5504 25.2955C17.5504 25.2052 17.5863 25.1186 17.6501 25.0548C17.7139 24.991 17.8005 24.9551 17.8908 24.9551H18.6451C18.7354 24.9551 18.822 24.991 18.8858 25.0548C18.9497 25.1186 18.9855 25.2052 18.9855 25.2955ZM12.0707 23.5617H11.9956L12.0546 20.5992C12.0548 20.5945 12.0548 20.5897 12.0546 20.585C12.0271 19.2461 10.0121 16.9917 8.44562 16.1515C7.69569 15.7499 7.0958 15.6852 6.66268 15.9595C6.50522 16.0609 6.37744 16.2022 6.29238 16.369C6.28981 16.3202 6.29183 16.2713 6.29841 16.2228C6.30089 16.2046 6.3019 16.1863 6.30143 16.168L6.19006 11.6744C6.21655 11.3185 6.14407 10.9622 5.98064 10.6449C5.81721 10.3276 5.56919 10.0617 5.26403 9.87665C5.039 9.74095 4.78109 9.6695 4.51831 9.67008C4.25552 9.67066 3.99793 9.74324 3.7735 9.87994C3.49509 10.0604 3.04387 10.5133 3.13219 11.5241L3.00217 18.3607C2.98549 18.7697 3.06511 19.1769 3.23463 19.5495C3.40415 19.922 3.65882 20.2496 3.97812 20.5057L6.77898 23.2715C6.79955 23.292 6.81821 23.3093 6.83384 23.3244L6.82177 23.5641C6.53854 23.5833 6.27314 23.7092 6.07917 23.9165C5.88519 24.1238 5.77709 24.3969 5.7767 24.6808V25.9039C5.77706 26.2006 5.89509 26.485 6.10489 26.6948C6.31469 26.9046 6.59913 27.0227 6.89583 27.023H12.0707C12.3674 27.0227 12.6519 26.9046 12.8617 26.6948C13.0715 26.485 13.1895 26.2006 13.1899 25.9039V24.6808C13.1896 24.3841 13.0716 24.0996 12.8618 23.8898C12.652 23.6799 12.3675 23.5619 12.0707 23.5617ZM4.44827 20.0133C4.44296 20.0078 4.43738 20.0026 4.43154 19.9977C4.187 19.8078 3.99142 19.5622 3.86111 19.2813C3.7308 19.0005 3.66953 18.6925 3.68243 18.3832V18.3769L3.813 11.5194C3.81368 11.5066 3.81368 11.4938 3.813 11.481C3.76664 10.9873 3.88459 10.6211 4.1449 10.4521C4.26514 10.3835 4.40183 10.3489 4.54025 10.3522C4.67867 10.3554 4.81359 10.3963 4.93049 10.4705C5.13071 10.5935 5.29166 10.7711 5.39442 10.9824C5.49719 11.1937 5.53751 11.43 5.51063 11.6634C5.51063 11.67 5.51063 11.6763 5.51063 11.6829L5.62035 16.1597C5.51063 17.0937 6.32529 18.3028 8.18119 19.9604C8.24852 20.0206 8.33699 20.0515 8.42714 20.0464C8.51729 20.0414 8.60174 20.0007 8.6619 19.9334C8.72206 19.8661 8.75302 19.7776 8.74795 19.6874C8.74288 19.5973 8.70221 19.5128 8.63488 19.4527C7.94401 18.8657 7.32096 18.2032 6.77734 17.4777C6.75814 16.984 6.84646 16.6502 7.02777 16.5347C7.22938 16.4069 7.62876 16.4859 8.12496 16.7511C9.58807 17.5351 11.3452 19.6134 11.3737 20.5929L11.3161 23.5617H7.5034L7.51465 23.3392C7.53196 23.249 7.52375 23.1557 7.49094 23.0699C7.45814 22.9841 7.40204 22.9091 7.32895 22.8534C7.30893 22.8361 7.28589 22.8164 7.25626 22.787L4.44827 20.0133ZM12.5091 25.9039C12.5091 26.0203 12.4628 26.1319 12.3805 26.2142C12.2982 26.2965 12.1866 26.3428 12.0702 26.3428H6.89693C6.78053 26.3428 6.6689 26.2965 6.5866 26.2142C6.50429 26.1319 6.45805 26.0203 6.45805 25.9039V24.6808C6.45805 24.5644 6.50429 24.4528 6.5866 24.3705C6.6689 24.2882 6.78053 24.2419 6.89693 24.2419H12.0707C12.1871 24.2419 12.2988 24.2882 12.3811 24.3705C12.4634 24.4528 12.5096 24.5644 12.5096 24.6808L12.5091 25.9039ZM12.0491 25.2955C12.0491 25.3858 12.0132 25.4724 11.9494 25.5362C11.8855 25.6 11.7989 25.6359 11.7087 25.6359H10.9543C10.8641 25.6359 10.7775 25.6 10.7136 25.5362C10.6498 25.4724 10.6139 25.3858 10.6139 25.2955C10.6139 25.2052 10.6498 25.1186 10.7136 25.0548C10.7775 24.991 10.8641 24.9551 10.9543 24.9551H11.7087C11.7534 24.9551 11.7976 24.9639 11.8389 24.981C11.8802 24.9981 11.9178 25.0232 11.9494 25.0548C11.981 25.0864 12.0061 25.1239 12.0232 25.1652C12.0403 25.2065 12.0491 25.2508 12.0491 25.2955Z" fill="black" stroke="black" stroke-width="0.80046" mask="url(#path-1-inside-1_12250_46)"/>
</svg>
