<svg width="75" height="75" viewBox="0 0 75 75" fill="none" xmlns="http://www.w3.org/2000/svg">
<g clip-path="url(#clip0_3481_12930)">
<path d="M37.5 75C58.2107 75 75 58.2107 75 37.5C75 16.7893 58.2107 0 37.5 0C16.7893 0 0 16.7893 0 37.5C0 58.2107 16.7893 75 37.5 75Z" fill="#6FBCF0"/>
<path fill-rule="evenodd" clip-rule="evenodd" d="M19.5122 57.0122C23.2622 63.5161 30.0005 67.4126 37.5005 67.4126C45.0005 67.4126 51.7388 63.5161 55.4888 57.0122C59.2388 50.5083 59.2388 42.7446 55.4888 36.2407L39.6685 8.81885C38.7017 7.14893 36.2993 7.14893 35.3325 8.81885L19.5122 36.2407C15.7329 42.7446 15.7329 50.5083 19.5122 57.0122ZM33.0474 21.856L36.4165 15.9966C36.8853 15.1763 38.1157 15.1763 38.5845 15.9966L51.563 38.4966C53.936 42.6274 54.4048 47.4028 52.9106 51.7974C52.7642 51.0942 52.5298 50.3618 52.2368 49.6294C50.4497 45.0884 46.3774 41.6021 40.1665 39.2583C35.8892 37.647 33.1646 35.2446 32.0806 32.1685C30.6743 28.1841 32.1685 23.8481 33.0474 21.856ZM27.2759 31.8169L23.438 38.4966C20.5083 43.5942 20.5083 49.6587 23.438 54.7563C26.3677 59.854 31.6411 62.8716 37.5005 62.8716C41.397 62.8716 45.0298 61.5239 47.9009 59.1509C48.2817 58.2134 49.4243 54.7856 47.9888 51.2407C46.6704 47.9595 43.5064 45.352 38.5552 43.477C32.9888 41.3677 29.356 38.0571 27.7739 33.6626C27.5688 33.0474 27.4224 32.4321 27.2759 31.8169Z" fill="white"/>
</g>
<defs>
<clipPath id="clip0_3481_12930">
<rect width="75" height="75" fill="white"/>
</clipPath>
</defs>
</svg>
