<svg width="75" height="75" viewBox="0 0 75 75" fill="none" xmlns="http://www.w3.org/2000/svg">
<circle cx="37.5" cy="37.5" r="37.5" fill="#EDF0F4"/>
<path d="M26.2068 37.3097C26.1001 39.1629 27.5267 40.7495 29.38 40.8562C29.4466 40.8562 29.5133 40.8562 29.58 40.8562C31.4466 40.8562 32.9532 39.3496 32.9398 37.483C32.9398 35.6164 31.4332 34.1098 29.5666 34.1231C27.78 34.1231 26.3001 35.5231 26.2068 37.3097Z" fill="#0033AD"/>
<path d="M13.6477 36.4418C13.0478 36.4018 12.5278 36.8685 12.5011 37.4685C12.4745 38.0684 12.9278 38.5884 13.5277 38.6151C14.1277 38.6551 14.6344 38.1884 14.6744 37.5885C14.7144 36.9885 14.2477 36.4818 13.6477 36.4418V36.4418Z" fill="#0033AD"/>
<path d="M25.9935 17.7625C26.5268 17.4959 26.7401 16.8293 26.4735 16.2959C26.2068 15.7626 25.5402 15.5493 25.0069 15.816C24.4736 16.0826 24.2603 16.7359 24.5269 17.2692C24.7936 17.8159 25.4469 18.0425 25.9935 17.7625C25.9802 17.7625 25.9935 17.7625 25.9935 17.7625Z" fill="#0033AD"/>
<path d="M29.4072 23.7241C30.2338 23.3108 30.5671 22.2975 30.1538 21.4709C29.7405 20.6443 28.7272 20.3109 27.9006 20.7243C27.074 21.1376 26.7406 22.1509 27.154 22.9775C27.5673 23.8041 28.5806 24.1374 29.4072 23.7241Z" fill="#0033AD"/>
<path d="M17.915 27.8173C18.5549 28.2306 19.4082 28.0573 19.8349 27.4173C20.2482 26.7773 20.0749 25.924 19.4349 25.4974C18.7949 25.0841 17.9416 25.2574 17.515 25.8974V25.8974C17.0883 26.5373 17.275 27.404 17.915 27.8173Z" fill="#0033AD"/>
<path d="M19.9538 35.8427C19.0205 35.7893 18.2339 36.496 18.1806 37.4293C18.1272 38.3626 18.8339 39.1492 19.7672 39.2025C20.7005 39.2559 21.4871 38.5492 21.5404 37.6159V37.6159C21.5937 36.696 20.8871 35.896 19.9538 35.8427Z" fill="#0033AD"/>
<path d="M18.1002 47.1353C17.4202 47.482 17.1403 48.3086 17.4869 49.0019C17.8336 49.6819 18.6602 49.9619 19.3535 49.6152C20.0335 49.2686 20.3135 48.442 19.9668 47.7487V47.7487C19.6201 47.0687 18.7802 46.7887 18.1002 47.1353V47.1353Z" fill="#0033AD"/>
<path d="M24.6346 32.362C25.5546 32.962 26.7812 32.7086 27.3679 31.7887C27.9678 30.8687 27.7145 29.6421 26.7945 29.0555C25.8746 28.4555 24.648 28.7088 24.0613 29.6288C23.4614 30.5354 23.7147 31.762 24.6346 32.362V32.362Z" fill="#0033AD"/>
<path d="M45.3657 23.59C46.139 24.0966 47.1922 23.8833 47.6989 23.11C48.2055 22.3367 47.9922 21.2834 47.2189 20.7768C46.4456 20.2701 45.3923 20.4834 44.8857 21.2567V21.2567C44.3657 22.0434 44.579 23.0833 45.3657 23.59V23.59Z" fill="#0033AD"/>
<path d="M48.8061 17.6566C49.3128 17.9899 49.9794 17.8433 50.3127 17.3366C50.6461 16.83 50.4994 16.1633 49.9928 15.83C49.4861 15.4967 48.8195 15.6434 48.4862 16.1367C48.1662 16.6433 48.3128 17.3233 48.8061 17.6566V17.6566Z" fill="#0033AD"/>
<path d="M45.6205 34.0955C43.7672 33.9888 42.1673 35.4154 42.074 37.2686C41.9673 39.1219 43.3939 40.7218 45.2472 40.8152C45.3138 40.8152 45.3805 40.8152 45.4338 40.8152C47.2871 40.8152 48.7937 39.3086 48.7937 37.442C48.807 35.6687 47.4071 34.1888 45.6205 34.0955V34.0955Z" fill="#0033AD"/>
<path d="M30.5134 32.1227C31.0867 33.256 32.2467 33.976 33.5266 33.976C35.3799 33.976 36.8865 32.4694 36.8865 30.6028C36.8865 30.0828 36.7665 29.5629 36.5265 29.0829C35.6865 27.4163 33.66 26.7497 32.0067 27.5896C30.3401 28.4429 29.6735 30.4695 30.5134 32.1227V32.1227Z" fill="#0033AD"/>
<path d="M56.9 27.8156C57.58 27.469 57.8467 26.629 57.5 25.949C57.1534 25.2691 56.3134 25.0024 55.6334 25.3491C54.9535 25.6957 54.6868 26.5224 55.0201 27.2023C55.3801 27.8823 56.2067 28.1623 56.9 27.8156V27.8156Z" fill="#0033AD"/>
<path d="M48.367 28.8835C47.3937 29.3768 46.9937 30.5634 47.487 31.5367C47.9803 32.51 49.1669 32.91 50.1402 32.4167C51.1135 31.9234 51.5135 30.7367 51.0202 29.7635C50.5269 28.7902 49.3403 28.4035 48.367 28.8835Z" fill="#0033AD"/>
<path d="M37.3671 17.1502C38.1271 17.1902 38.7804 16.6035 38.8337 15.8436C38.8871 15.0836 38.2871 14.4303 37.5271 14.377C36.7672 14.337 36.1139 14.9103 36.0605 15.6702C36.0205 16.4435 36.6072 17.0969 37.3671 17.1502V17.1502Z" fill="#0033AD"/>
<path d="M37.3534 25.8564C38.4467 25.9231 39.38 25.0832 39.4333 23.9899C39.5 22.8966 38.66 21.9633 37.5667 21.91C36.4734 21.8433 35.5401 22.6833 35.4868 23.7765C35.4335 24.8698 36.2601 25.8031 37.3534 25.8564V25.8564Z" fill="#0033AD"/>
<path d="M26.6344 46.069C27.6076 45.5757 28.0076 44.3891 27.5143 43.4158C27.021 42.4425 25.8344 42.0425 24.8611 42.5358C23.8878 43.0291 23.4878 44.2158 23.9811 45.189C24.4745 46.1623 25.6611 46.5623 26.6344 46.069Z" fill="#0033AD"/>
<path d="M38.6329 28.7504C37.6197 30.3103 38.0463 32.3902 39.6062 33.4035C41.1662 34.4168 43.2461 33.9902 44.2594 32.4302C45.2726 30.8703 44.846 28.7904 43.2861 27.7771C42.7394 27.4171 42.0995 27.2305 41.4462 27.2305C40.3129 27.2305 39.2596 27.8038 38.6329 28.7504Z" fill="#0033AD"/>
<path d="M44.4855 42.829C43.6455 41.1624 41.619 40.4957 39.9657 41.3357C38.2991 42.1757 37.6325 44.2022 38.4724 45.8555C39.3124 47.5221 41.339 48.1887 42.9922 47.3488V47.3488C44.6455 46.5221 45.3255 44.5222 44.4988 42.8556C44.4988 42.8423 44.4988 42.8423 44.4855 42.829Z" fill="#0033AD"/>
<path d="M50.3668 42.5887C49.4469 41.9887 48.2202 42.242 47.6336 43.162C47.0336 44.0819 47.287 45.3086 48.2069 45.8952C49.1269 46.4952 50.3535 46.2419 50.9401 45.3219C51.5401 44.4153 51.2868 43.1887 50.3668 42.5887V42.5887Z" fill="#0033AD"/>
<path d="M56.8197 37.5358C56.873 36.6026 56.1664 35.8159 55.2331 35.7626C54.2998 35.7093 53.5132 36.4159 53.4599 37.3492C53.4065 38.2825 54.1132 39.0691 55.0465 39.1224V39.1224C55.9664 39.1758 56.7664 38.4558 56.8197 37.5358Z" fill="#0033AD"/>
<path d="M61.472 36.3364C60.872 36.2964 60.352 36.763 60.3253 37.363C60.2987 37.963 60.752 38.4829 61.352 38.5096C61.9519 38.5496 62.4586 38.083 62.4986 37.483C62.5252 36.883 62.0719 36.3764 61.472 36.3364Z" fill="#0033AD"/>
<path d="M57.0853 47.1361C56.4453 46.7227 55.592 46.8961 55.1654 47.536C54.752 48.176 54.9254 49.0293 55.5653 49.456C56.2053 49.8693 57.0586 49.6959 57.4853 49.056C57.9119 48.416 57.7252 47.5494 57.0853 47.1361V47.1361Z" fill="#0033AD"/>
<path d="M26.1804 57.2949C25.6737 56.9615 25.0071 57.1082 24.6738 57.6015C24.3405 58.1082 24.4871 58.7748 24.9804 59.1081C25.4871 59.4414 26.1537 59.2948 26.487 58.8015V58.8015C26.8337 58.3082 26.687 57.6282 26.1804 57.2949Z" fill="#0033AD"/>
<path d="M49.0069 57.1887C48.4736 57.4553 48.2603 58.122 48.5269 58.6553C48.7936 59.1886 49.4602 59.4019 49.9935 59.1353C50.5268 58.8686 50.7401 58.2153 50.4735 57.682C50.2068 57.1353 49.5535 56.9087 49.0069 57.1887C49.0202 57.1887 49.0069 57.1887 49.0069 57.1887Z" fill="#0033AD"/>
<path d="M36.3665 46.2017C37.3798 44.6418 36.9531 42.5619 35.3932 41.5353C33.8332 40.522 31.7533 40.9486 30.7267 42.5086C29.7001 44.0685 30.1401 46.1484 31.7 47.175C32.2467 47.535 32.8866 47.7217 33.5399 47.7217C34.6865 47.735 35.7398 47.1617 36.3665 46.2017Z" fill="#0033AD"/>
<path d="M29.6334 51.3627C28.8601 50.8561 27.8068 51.0694 27.3002 51.8427C26.7936 52.616 27.0069 53.6693 27.7802 54.1759C28.5535 54.6825 29.6068 54.4692 30.1134 53.6959V53.6959C30.6334 52.9226 30.4201 51.8693 29.6334 51.3627Z" fill="#0033AD"/>
<path d="M37.4875 57.8008C36.7275 57.7608 36.0742 58.3474 36.0209 59.1074C35.9675 59.8673 36.5675 60.5206 37.3275 60.574C38.0875 60.614 38.7408 60.0407 38.7941 59.2807C38.8341 58.5074 38.2474 57.8541 37.4875 57.8008V57.8008Z" fill="#0033AD"/>
<path d="M37.4996 49.0955C36.4063 49.0288 35.4731 49.8688 35.4197 50.9621C35.3531 52.0554 36.193 52.9887 37.2863 53.042C38.3796 53.0953 39.3129 52.2687 39.3662 51.1754C39.4329 50.0955 38.5929 49.1488 37.4996 49.0955V49.0955Z" fill="#0033AD"/>
<path d="M45.5932 51.2282C44.7665 51.6548 44.4332 52.6681 44.8599 53.4947C45.2865 54.3214 46.2998 54.6547 47.1264 54.228C47.953 53.8147 48.2864 52.8014 47.873 51.9748C47.4464 51.1482 46.4331 50.8015 45.5932 51.2282V51.2282Z" fill="#0033AD"/>
</svg>
