<svg width="75" height="75" viewBox="0 0 75 75" fill="none" xmlns="http://www.w3.org/2000/svg">
<circle cx="37.5" cy="37.5" r="37.5" fill="#EDF0F4"/>
<path d="M37.6613 12.5039C27.2344 12.5458 18.7919 20.9883 18.75 31.4152C18.75 33.5034 19.0871 35.5776 19.7472 37.5581C20.2398 38.9064 21.7018 39.6323 23.074 39.2155C24.4003 38.7069 25.1043 37.257 24.6815 35.9007C24.121 34.357 23.8717 32.7196 23.9455 31.0802C24.1729 23.5491 30.4614 17.6276 37.9924 17.855C45.5234 18.0824 51.4449 24.3709 51.2176 31.9019C51.0042 38.9522 45.4516 44.6783 38.4092 45.1071C38.4092 45.1071 35.7546 45.2686 34.4343 45.4302C33.9477 45.5 33.465 45.5957 32.9883 45.7174C32.9205 45.7872 32.8108 45.7872 32.741 45.7194L32.739 45.7174C32.6912 45.6556 32.6912 45.5678 32.739 45.506L33.1499 43.2642L35.6429 32.0515C35.9421 30.6514 35.0506 29.2732 33.6505 28.974C32.2504 28.6749 30.8722 29.5664 30.5731 30.9665C30.5731 30.9665 24.6436 58.412 24.6436 58.6613C24.3045 59.9956 25.1103 61.3518 26.4446 61.6909C26.4585 61.6949 26.4745 61.6989 26.4884 61.7009H26.6261C27.9584 62.0459 29.3186 61.2441 29.6616 59.9119C29.6676 59.8899 29.6736 59.868 29.6776 59.844C29.6736 59.8022 29.6736 59.7603 29.6776 59.7204C29.7514 59.3973 30.4993 55.7455 30.4993 55.7455C31.0657 52.9891 33.2875 50.877 36.0678 50.4502C36.6402 50.3625 39.0455 50.2009 39.0455 50.2009C49.4325 49.1658 57.0134 39.9056 55.9763 29.5185C55.0309 20.0449 47.1828 12.7512 37.6613 12.5039Z" fill="#1E1E1E"/>
<path d="M38.8063 56.1098C37.1011 55.7548 35.4337 56.8497 35.0787 58.553C35.0747 58.5689 35.0727 58.5849 35.0687 58.6009C34.6997 60.2941 35.7728 61.9675 37.468 62.3364C37.47 62.3364 37.472 62.3364 37.474 62.3384H37.5618C39.2212 62.7393 40.8905 61.7182 41.2894 60.0608C41.2934 60.0488 41.2954 60.0349 41.2994 60.0229V59.8494C41.5925 58.1381 40.4996 56.4967 38.8063 56.1098Z" fill="#E6007A"/>
</svg>
