<svg width="75" height="75" viewBox="0 0 75 75" fill="none" xmlns="http://www.w3.org/2000/svg">
<circle cx="37.5" cy="37.5" r="37.5" fill="#13B5EC"/>
<path fill-rule="evenodd" clip-rule="evenodd" d="M40.625 30.0031L49.0625 25.0565V34.9497L40.625 30.0031ZM49.0625 51.2029L37.8125 57.7984L26.5625 51.2029V39.6608L37.8125 46.2563L49.0625 39.6608V51.2029ZM26.5625 25.0565L35 30.0031L26.5625 34.9497V25.0565ZM39.2188 32.3587L47.6562 37.3053L39.2188 42.2519V32.3587ZM36.4062 42.2519L27.9688 37.3053L36.4062 32.3587V42.2519ZM47.6562 22.701L37.8125 28.3543L27.9688 22.701L37.8125 16.8122L47.6562 22.701ZM23.75 21.7588V52.6162L37.8125 60.625L51.875 52.6162V21.7588L37.8125 13.75L23.75 21.7588Z" fill="white"/>
</svg>
