<svg width="75" height="75" viewBox="0 0 75 75" fill="none" xmlns="http://www.w3.org/2000/svg">
<circle cx="37.5" cy="37.5" r="37.5" fill="#E84142"/>
<path fill-rule="evenodd" clip-rule="evenodd" d="M39.7401 11.1303C38.4409 8.88624 36.374 8.88624 35.0747 11.1303L11.4822 52.6756C10.183 54.9492 11.246 56.7504 13.8444 56.7504H25.685C28.0767 56.6028 30.2322 55.3331 31.5314 53.3252L45.7933 28.6107C46.8267 26.4847 46.8267 23.9748 45.7933 21.8488L41.5413 14.3784L39.7401 11.1303ZM55.4225 38.4716C54.1233 36.2276 52.0269 36.2276 50.7276 38.4716L42.4894 52.6744C41.2198 54.9185 42.2828 56.7492 44.8517 56.7492H61.1509C63.7493 56.7492 64.8123 54.9185 63.5131 52.6744L55.4225 38.4716Z" fill="white"/>
</svg>
