<svg width="76" height="76" viewBox="0 0 76 76" fill="none" xmlns="http://www.w3.org/2000/svg">
<path d="M0.841309 32C0.841309 16.9151 0.841309 9.37258 5.5276 4.68629C10.2139 0 17.7564 0 32.8413 0H43.8942C58.9792 0 66.5216 0 71.2079 4.68629C75.8942 9.37258 75.8942 16.9151 75.8942 32V43.0529C75.8942 58.1378 75.8942 65.6803 71.2079 70.3666C66.5216 75.0529 58.9792 75.0529 43.8942 75.0529H32.8413C17.7564 75.0529 10.2139 75.0529 5.5276 70.3666C0.841309 65.6803 0.841309 58.1378 0.841309 43.0529V32Z" fill="#1E2235"/>
<path d="M56.8704 16.666L53.5233 54.1617L38.4781 58.3327L23.4744 54.1675L20.1309 16.666H56.8704Z" fill="#264DE4"/>
<path d="M50.6577 51.7742L53.518 19.7324H38.5005V55.1446L50.6577 51.7742Z" fill="#2965F1"/>
<path d="M27.7954 33.6406L28.2076 38.24H38.5002V33.6406H27.7954Z" fill="#EBEBEB"/>
<path d="M38.5004 24.3311H38.4845H26.9673L27.3854 28.9305H38.5004V24.3311Z" fill="#EBEBEB"/>
<path d="M38.5002 50.3704V45.5851L38.48 45.5905L33.3576 44.2073L33.0302 40.5391H30.5411H28.4131L29.0575 47.7608L38.479 50.3763L38.5002 50.3704Z" fill="#EBEBEB"/>
<path d="M44.1485 38.2397L43.6146 44.2048L38.4849 45.5894V50.3745L47.9139 47.7612L47.9831 46.9842L49.0639 34.8754L49.1761 33.6404L50.0064 24.3311H38.4849V28.9305H44.9659L44.5474 33.6404H38.4849V38.2397H44.1485Z" fill="white"/>
</svg>
