<svg class="menu-icon-fill" xmlns="http://www.w3.org/2000/svg" width="50" height="50" viewBox="0 0 50 50" fill="none">
<path d="M4.6875 28.9062C5.46008 28.9062 6.21532 28.6772 6.8577 28.2479C7.50008 27.8187 8.00075 27.2086 8.2964 26.4949C8.59206 25.7811 8.66942 24.9957 8.51869 24.2379C8.36797 23.4802 7.99593 22.7842 7.44964 22.2379C6.90334 21.6916 6.20731 21.3195 5.44957 21.1688C4.69183 21.0181 3.90642 21.0954 3.19264 21.3911C2.47887 21.6868 1.8688 22.1874 1.43957 22.8298C1.01035 23.4722 0.78125 24.2274 0.78125 25C0.782491 26.0356 1.19444 27.0285 1.92673 27.7608C2.65903 28.4931 3.65188 28.905 4.6875 28.9062ZM4.6875 22.6562C5.15105 22.6562 5.60419 22.7937 5.98962 23.0512C6.37505 23.3088 6.67545 23.6748 6.85284 24.1031C7.03024 24.5314 7.07665 25.0026 6.98622 25.4572C6.89578 25.9119 6.67256 26.3295 6.34478 26.6573C6.017 26.9851 5.59939 27.2083 5.14474 27.2987C4.6901 27.3891 4.21885 27.3427 3.79059 27.1653C3.36232 26.9879 2.99628 26.6875 2.73874 26.3021C2.48121 25.9167 2.34375 25.4635 2.34375 25C2.34375 24.3784 2.59068 23.7823 3.03022 23.3427C3.46976 22.9032 4.0659 22.6563 4.6875 22.6562ZM18.75 40.625H31.25C32.0788 40.625 32.8737 40.2958 33.4597 39.7097C34.0458 39.1237 34.375 38.3288 34.375 37.5V12.5C34.375 11.6712 34.0458 10.8763 33.4597 10.2903C32.8737 9.70424 32.0788 9.375 31.25 9.375H18.75C17.9212 9.375 17.1263 9.70424 16.5403 10.2903C15.9542 10.8763 15.625 11.6712 15.625 12.5V37.5C15.625 38.3288 15.9542 39.1237 16.5403 39.7097C17.1263 40.2958 17.9212 40.625 18.75 40.625ZM27.8227 10.9375L27.5617 11.7188H22.4383L22.1773 10.9375H27.8227ZM17.1875 12.5C17.1875 12.0856 17.3521 11.6882 17.6451 11.3951C17.9382 11.1021 18.3356 10.9375 18.75 10.9375H20.5313L21.1344 12.7469C21.1862 12.9024 21.2856 13.0377 21.4185 13.1336C21.5514 13.2295 21.7111 13.2811 21.875 13.2812H28.125C28.2889 13.2811 28.4486 13.2295 28.5815 13.1336C28.7144 13.0377 28.8138 12.9024 28.8656 12.7469L29.4688 10.9375H31.25C31.6644 10.9375 32.0618 11.1021 32.3549 11.3951C32.6479 11.6882 32.8125 12.0856 32.8125 12.5V37.5C32.8125 37.9144 32.6479 38.3118 32.3549 38.6049C32.0618 38.8979 31.6644 39.0625 31.25 39.0625H18.75C18.3356 39.0625 17.9382 38.8979 17.6451 38.6049C17.3521 38.3118 17.1875 37.9144 17.1875 37.5V12.5Z" fill="#ff1717"/>
<path d="M14.0625 24.2188H10.1562V25.7812H14.0625V24.2188Z" fill="#ff1717"/>
<path d="M41.4062 24.2188H35.9375V25.7812H41.4062V24.2188Z" fill="#ff1717"/>
<path d="M46.0938 21.875C45.4757 21.875 44.8715 22.0583 44.3576 22.4017C43.8437 22.745 43.4432 23.2331 43.2066 23.8041C42.9701 24.3751 42.9082 25.0035 43.0288 25.6097C43.1494 26.2158 43.447 26.7727 43.884 27.2097C44.3211 27.6467 44.8779 27.9444 45.4841 28.065C46.0903 28.1855 46.7186 28.1236 47.2896 27.8871C47.8607 27.6506 48.3487 27.2501 48.6921 26.7362C49.0355 26.2223 49.2188 25.6181 49.2188 25C49.2188 24.1712 48.8895 23.3763 48.3035 22.7903C47.7174 22.2042 46.9226 21.875 46.0938 21.875ZM46.0938 26.5625C45.7847 26.5625 45.4826 26.4709 45.2257 26.2992C44.9687 26.1275 44.7685 25.8835 44.6502 25.5979C44.5319 25.3124 44.501 24.9983 44.5613 24.6952C44.6216 24.3921 44.7704 24.1137 44.9889 23.8951C45.2074 23.6766 45.4858 23.5278 45.7889 23.4675C46.092 23.4072 46.4062 23.4382 46.6917 23.5564C46.9772 23.6747 47.2212 23.875 47.3929 24.1319C47.5646 24.3889 47.6563 24.691 47.6563 25C47.6563 25.4144 47.4916 25.8118 47.1986 26.1049C46.9056 26.3979 46.5082 26.5625 46.0938 26.5625Z" fill="#ff1717"/>
<path d="M25 29.2969C25.4315 29.2969 25.7812 28.9471 25.7812 28.5156C25.7812 28.0842 25.4315 27.7344 25 27.7344C24.5685 27.7344 24.2188 28.0842 24.2188 28.5156C24.2188 28.9471 24.5685 29.2969 25 29.2969Z" fill="#ff1717"/>
<path d="M24.9977 23.0468C25.7337 23.0423 26.4603 23.2136 27.1168 23.5463C27.7734 23.8791 28.3411 24.3638 28.7727 24.9601L30.0344 24.0398C29.4548 23.2479 28.6967 22.6038 27.8216 22.1598C26.9465 21.7158 25.979 21.4844 24.9977 21.4844C24.0163 21.4844 23.0488 21.7158 22.1737 22.1598C21.2986 22.6038 20.5405 23.2479 19.9609 24.0398L21.2227 24.9601C21.6542 24.3638 22.2219 23.8791 22.8785 23.5463C23.5351 23.2136 24.2616 23.0423 24.9977 23.0468Z" fill="#ff1717"/>
<path d="M25.0008 24.6094C24.5083 24.6089 24.0228 24.7252 23.584 24.9487C23.1452 25.1722 22.7657 25.4966 22.4766 25.8953L23.7445 26.8078C23.8948 26.6187 24.0858 26.466 24.3033 26.361C24.5209 26.2561 24.7593 26.2016 25.0008 26.2016C25.2423 26.2016 25.4807 26.2561 25.6982 26.361C25.9157 26.466 26.1068 26.6187 26.257 26.8078L27.525 25.8953C27.2359 25.4966 26.8564 25.1722 26.4176 24.9487C25.9788 24.7252 25.4932 24.6089 25.0008 24.6094Z" fill="#ff1717"/>
<path d="M39.8826 14.4807L36.0156 18.3477L37.1205 19.4525L40.9875 15.5855L39.8826 14.4807Z" fill="#ff1717 !important"/>
<path d="M43.7493 14.8438C44.4723 14.8439 45.173 14.5934 45.732 14.1348C46.291 13.6763 46.6736 13.0381 46.8148 12.329C46.956 11.6199 46.847 10.8838 46.5063 10.2462C46.1656 9.60847 45.6143 9.10864 44.9464 8.83185C44.2785 8.55505 43.5353 8.5184 42.8434 8.72815C42.1515 8.93791 41.5537 9.38108 41.152 9.98216C40.7502 10.5832 40.5693 11.305 40.64 12.0246C40.7108 12.7441 41.0288 13.4168 41.54 13.9281C41.8294 14.2192 42.1737 14.45 42.553 14.6072C42.9322 14.7643 43.3388 14.8447 43.7493 14.8438ZM42.6446 10.6141C42.7888 10.4648 42.9612 10.3458 43.1518 10.2639C43.3425 10.182 43.5475 10.1389 43.755 10.1371C43.9624 10.1353 44.1682 10.1748 44.3602 10.2534C44.5522 10.332 44.7267 10.448 44.8734 10.5947C45.0201 10.7414 45.1361 10.9159 45.2147 11.1079C45.2932 11.2999 45.3328 11.5057 45.331 11.7131C45.3292 11.9206 45.2861 12.1256 45.2042 12.3163C45.1223 12.5069 45.0033 12.6793 44.854 12.8234C44.5565 13.1077 44.1608 13.2663 43.7493 13.2663C43.3378 13.2663 42.9422 13.1077 42.6446 12.8234C42.3517 12.5304 42.1872 12.1331 42.1872 11.7188C42.1872 11.3044 42.3517 10.9071 42.6446 10.6141Z" fill="#ff1717"/>
<path d="M37.1205 30.5475L36.0156 31.6523L39.8826 35.5193L40.9875 34.4145L37.1205 30.5475Z" fill="#ff1717 !important"/>
<path d="M46.875 38.2819C46.8752 37.5589 46.6246 36.8582 46.1661 36.2993C45.7075 35.7403 45.0693 35.3576 44.3603 35.2164C43.6512 35.0752 42.9151 35.1843 42.2774 35.525C41.6397 35.8657 41.1399 36.4169 40.8631 37.0848C40.5863 37.7528 40.5497 38.496 40.7594 39.1879C40.9692 39.8798 41.4123 40.4775 42.0134 40.8793C42.6145 41.2811 43.3363 41.462 44.0558 41.3913C44.7753 41.3205 45.4481 41.0025 45.9594 40.4913C46.2506 40.2019 46.4815 39.8576 46.6386 39.4784C46.7958 39.0991 46.8762 38.6925 46.875 38.2819ZM44.8547 39.3866C44.5572 39.6709 44.1615 39.8295 43.75 39.8295C43.3385 39.8295 42.9429 39.6709 42.6453 39.3866C42.4267 39.1681 42.2779 38.8897 42.2176 38.5866C42.1572 38.2835 42.1881 37.9693 42.3064 37.6838C42.4246 37.3982 42.6249 37.1542 42.8819 36.9824C43.1388 36.8107 43.4409 36.7191 43.75 36.7191C44.0591 36.7191 44.3612 36.8107 44.6181 36.9824C44.8751 37.1542 45.0754 37.3982 45.1936 37.6838C45.3119 37.9693 45.3428 38.2835 45.2824 38.5866C45.2221 38.8897 45.0733 39.1681 44.8547 39.3866Z" fill="#ff1717"/>
<defs>
<linearGradient id="paint0_linear_4769_27202" x1="26.9545" y1="9.375" x2="26.8213" y2="47.3218" gradientUnits="userSpaceOnUse">
<stop stop-color="#005CAA"/>
<stop offset="1" stop-color="#64B0F1"/>
</linearGradient>
<linearGradient id="paint1_linear_4769_27202" x1="13.1996" y1="24.2187" x2="13.1968" y2="26.1161" gradientUnits="userSpaceOnUse">
<stop stop-color="#005CAA"/>
<stop offset="1" stop-color="#64B0F1"/>
</linearGradient>
<linearGradient id="paint2_linear_4769_27202" x1="40.1983" y1="24.2187" x2="40.1962" y2="26.1161" gradientUnits="userSpaceOnUse">
<stop stop-color="#005CAA"/>
<stop offset="1" stop-color="#64B0F1"/>
</linearGradient>
<linearGradient id="paint3_linear_4769_27202" x1="47.8382" y1="21.875" x2="47.8095" y2="29.4643" gradientUnits="userSpaceOnUse">
<stop stop-color="#005CAA"/>
<stop offset="1" stop-color="#64B0F1"/>
</linearGradient>
<linearGradient id="paint4_linear_4769_27202" x1="25.4361" y1="27.7344" x2="25.4289" y2="29.6317" gradientUnits="userSpaceOnUse">
<stop stop-color="#005CAA"/>
<stop offset="1" stop-color="#64B0F1"/>
</linearGradient>
<linearGradient id="paint5_linear_4769_27202" x1="27.8092" y1="21.4844" x2="27.8038" y2="25.705" gradientUnits="userSpaceOnUse">
<stop stop-color="#005CAA"/>
<stop offset="1" stop-color="#64B0F1"/>
</linearGradient>
<linearGradient id="paint6_linear_4769_27202" x1="26.4098" y1="24.6094" x2="26.4055" y2="27.279" gradientUnits="userSpaceOnUse">
<stop stop-color="#005CAA"/>
<stop offset="1" stop-color="#64B0F1"/>
</linearGradient>
<linearGradient id="paint7_linear_4769_27202" x1="39.0284" y1="15.3348" x2="40.3686" y2="16.6779" gradientUnits="userSpaceOnUse">
<stop stop-color="#005CAA"/>
<stop offset="1" stop-color="#64B0F1"/>
</linearGradient>
<linearGradient id="paint8_linear_4769_27202" x1="45.4944" y1="8.59375" x2="45.4658" y2="16.1831" gradientUnits="userSpaceOnUse">
<stop stop-color="#005CAA"/>
<stop offset="1" stop-color="#64B0F1"/>
</linearGradient>
<linearGradient id="paint9_linear_4769_27202" x1="36.8764" y1="30.7915" x2="41.5093" y2="35.5485" gradientUnits="userSpaceOnUse">
<stop stop-color="#005CAA"/>
<stop offset="1" stop-color="#64B0F1"/>
</linearGradient>
<linearGradient id="paint10_linear_4769_27202" x1="45.4944" y1="35.1562" x2="45.4658" y2="42.7456" gradientUnits="userSpaceOnUse">
<stop stop-color="#005CAA"/>
<stop offset="1" stop-color="#64B0F1"/>
</linearGradient>
</defs>
</svg>