<svg width="30" height="30" viewBox="0 0 30 30" fill="none" xmlns="http://www.w3.org/2000/svg">
<path fill-rule="evenodd" clip-rule="evenodd" d="M30 3.67658C30 1.64742 28.3526 0 26.3234 0H3.67658C1.64742 0 0 1.64742 0 3.67658V26.3234C0 28.3526 1.64742 30 3.67658 30H26.3234C28.3526 30 30 28.3526 30 26.3234V3.67658ZM16.614 15.0001C16.614 18.9514 13.4326 22.1546 9.5083 22.1546C5.58404 22.1546 2.40234 18.9514 2.40234 15.0001C2.40234 11.0488 5.58375 7.84541 9.5083 7.84541C13.4328 7.84541 16.614 11.0488 16.614 15.0001ZM24.4092 15.0001C24.4092 18.7194 22.8185 21.7358 20.8563 21.7358C18.894 21.7358 17.3033 18.7194 17.3033 15.0001C17.3033 11.2808 18.8937 8.26453 20.856 8.26453C22.8183 8.26453 24.409 11.2798 24.409 15.0001H24.4092ZM27.5977 15.0001C27.5977 18.3317 27.0383 21.0342 26.3481 21.0342C25.6579 21.0342 25.0987 18.3325 25.0987 15.0001C25.0987 11.6678 25.6581 8.96607 26.3481 8.96607C27.038 8.96607 27.5977 11.6675 27.5977 15.0001Z" fill="black"/>
</svg>
