<svg width="30" height="30" viewBox="0 0 30 30" fill="none" xmlns="http://www.w3.org/2000/svg">
<path d="M15.0211 0C6.74488 0 0.0361328 6.70875 0.0361328 14.9838C0.0361328 21.3325 3.98363 26.755 9.55863 28.9363C9.42738 27.75 9.30988 25.9325 9.60988 24.6375C9.88363 23.4662 11.3674 17.1912 11.3674 17.1912C11.3674 17.1912 10.9186 16.2913 10.9186 14.965C10.9186 12.8863 12.1274 11.3263 13.6286 11.3263C14.9086 11.3263 15.5261 12.2875 15.5261 13.4362C15.5261 14.7225 14.7099 16.645 14.2861 18.4263C13.9299 19.9175 15.0361 21.1325 16.5049 21.1325C19.1649 21.1325 21.2149 18.3263 21.2149 14.2737C21.2149 10.6975 18.6361 8.1875 14.9549 8.1875C10.6924 8.1875 8.19363 11.39 8.19363 14.6862C8.19363 15.9775 8.68613 17.365 9.30488 18.1125C9.42863 18.2625 9.44488 18.3937 9.41113 18.5438C9.29863 19.0125 9.04488 20.0425 8.99363 20.2475C8.92738 20.5287 8.77863 20.5863 8.49238 20.4538C6.62363 19.5913 5.45113 16.8563 5.45113 14.6462C5.45113 9.92625 8.88613 5.58125 15.3511 5.58125C20.5486 5.58125 24.5911 9.29 24.5911 14.235C24.5911 19.4037 21.3324 23.5625 16.7999 23.5625C15.2824 23.5625 13.8574 22.7763 13.3524 21.8388L12.4161 25.3988C12.0799 26.705 11.1611 28.3388 10.5436 29.3312C11.9474 29.7625 13.4261 30 14.9811 30C23.2399 30 29.9624 23.2937 29.9624 15.0162C29.9624 6.7375 23.2399 0.0325 14.9811 0.0325L15.0211 0Z" fill="black"/>
</svg>
