<svg xmlns="http://www.w3.org/2000/svg" width="50" height="50" fill="none" class="menu-icon-fill"><path fill="#ff1717" d="M20.57 43.376a.656.656 0 1 0 0-1.312h-5.906a.656.656 0 0 0 0 1.312h5.906Zm9.516-20.863v1.57l.016.004a6.562 6.562 0 1 0-6.578.023v-1.582a5.25 5.25 0 1 1 6.562-.015Z"/><path fill="#ff1717" d="M41.078 9.25H11.547a1.971 1.971 0 0 0-1.969 1.969v14.437a1.971 1.971 0 0 0 1.969 1.969h11.977v-1.313h-7.422a5.915 5.915 0 0 0-5.211-5.21v-5.328a5.915 5.915 0 0 0 5.21-5.211h20.422a5.915 5.915 0 0 0 5.211 5.21v5.328a5.915 5.915 0 0 0-5.21 5.212h-3.042a3.263 3.263 0 0 1 1.412 1.312h6.184a1.971 1.971 0 0 0 1.969-1.969V11.22a1.971 1.971 0 0 0-1.969-1.969ZM14.776 26.313h-3.23a.657.657 0 0 1-.655-.657v-3.229a4.597 4.597 0 0 1 3.885 3.886ZM10.89 14.447v-3.23a.657.657 0 0 1 .656-.655h3.229a4.596 4.596 0 0 1-3.885 3.884Zm30.843 11.208a.657.657 0 0 1-.656.657H37.85a4.596 4.596 0 0 1 3.885-3.886v3.23Zm0-11.208a4.597 4.597 0 0 1-3.885-3.886h3.23a.657.657 0 0 1 .655.657v3.229Z"/><path fill="#ff1717" d="M26.853 14.512a.413.413 0 0 0-.413.41v.498c-1.148.122-1.65.794-1.65 1.571 0 .87.559 1.28 1.214 1.551a3.24 3.24 0 0 1 3.043.787c-.43-1.653-3.217-1.282-3.217-2.338 0-.349.278-.69 1.023-.69a1.88 1.88 0 0 1 1.256.463.6.6 0 0 0 .386.192.475.475 0 0 0 .484-.462.495.495 0 0 0-.09-.28 2.317 2.317 0 0 0-1.614-.785v-.506a.416.416 0 0 0-.422-.411Z"/><path fill="#ff1717" d="M24.508 44.688H9.578a1.313 1.313 0 0 1-1.312-1.313V6.625a1.313 1.313 0 0 1 1.312-1.313h4.366l1.227 2.28a.657.657 0 0 0 .579.346h6.36a.656.656 0 0 0 .578-.346l1.227-2.28h4.038a1.312 1.312 0 0 1 1.313 1.313v1.313h1.312V6.625A2.628 2.628 0 0 0 27.953 4H9.578a2.628 2.628 0 0 0-2.625 2.625v36.75A2.628 2.628 0 0 0 9.578 46h15.045a1.955 1.955 0 0 1-.115-.656v-.657ZM22.424 5.312l-.706 1.313h-5.577l-.706-1.313h6.99Z"/><path fill="#ff1717" d="M34.682 28.936c-.227 0-.453.04-.667.119A1.961 1.961 0 0 0 31.4 27.41v-.115a1.963 1.963 0 0 0-2.625-1.854v-3.724a1.969 1.969 0 1 0-3.937 0v9.678a222.99 222.99 0 0 1-1.807-1.74 2.038 2.038 0 0 0-1.385-.547 2.063 2.063 0 0 0-1.69.904 2.24 2.24 0 0 0 .155 2.654l4.233 4.91a9.544 9.544 0 0 1 1.006 1.55c.482.925.814 1.921.986 2.951a.656.656 0 0 0-.514.64v2.625a.656.656 0 0 0 .656.656h8.532a.657.657 0 0 0 .656-.656v-2.625a.656.656 0 0 0-.656-.656h-.265a6.17 6.17 0 0 1 .783-2.05c.994-1.698 1.122-3.828 1.122-5.497v-3.61a1.971 1.971 0 0 0-1.969-1.968Zm-.328 15.75h-7.218v-1.313h7.218v1.313Zm.985-10.172c0 1.508-.109 3.422-.964 4.876a.444.444 0 0 0-.029.043 7.671 7.671 0 0 0-.932 2.628h-5.752a11.237 11.237 0 0 0-1.148-3.543 10.878 10.878 0 0 0-1.159-1.781l-4.233-4.908a.912.912 0 0 1-.085-1.072.74.74 0 0 1 .61-.336.71.71 0 0 1 .482.187c3.154 3.07 3.154 3.068 3.62 2.872a.66.66 0 0 0 .402-.607V21.717a.657.657 0 1 1 1.313 0V33.2a.656.656 0 1 0 1.312 0v-5.906a.656.656 0 1 1 1.313 0V33.2a.656.656 0 1 0 1.312 0v-3.937a.656.656 0 1 1 1.313 0V33.2a.656.656 0 1 0 1.312 0v-2.297a.656.656 0 1 1 1.313 0v3.61Z"/></svg>