<svg width="23" height="23" viewBox="0 0 23 23" fill="none" xmlns="http://www.w3.org/2000/svg">
<path d="M22.9738 11.8573V11.4323V11.0923L19.4038 10.2423L18.5963 6.88483C18.8088 6.33233 19.0213 5.60983 19.1913 4.71733C19.2338 4.41983 19.1488 4.12233 18.9363 3.90983C18.7238 3.69733 18.4263 3.65483 18.1288 3.73983C17.9588 3.78233 17.8313 3.82483 17.6613 3.86733C17.5763 3.39983 17.1513 3.01733 16.6413 3.01733C16.1313 3.01733 15.7063 3.35733 15.6213 3.86733C15.4938 3.82483 15.3238 3.78233 15.1538 3.73983C14.8563 3.65483 14.5588 3.73983 14.3463 3.90983C14.0488 4.07983 13.9638 4.37733 14.0488 4.67483C14.2188 5.56733 14.4313 6.28983 14.6438 6.84233L13.7088 10.7948C13.5388 11.4323 13.7088 12.0698 14.0488 12.5798L15.6638 14.7898C16.0888 16.0223 16.9813 17.2973 18.9788 18.2323L19.1488 18.3173L19.3188 18.2323C23.0588 16.4898 23.0163 13.5998 22.9738 11.8573ZM17.661 4.67459C17.8735 4.63209 18.086 4.58959 18.341 4.50459C18.2135 5.05709 18.1285 5.52459 18.001 5.94959C17.916 5.86459 17.7885 5.82209 17.661 5.77959V4.67459ZM16.386 4.03709C16.386 3.90959 16.471 3.82459 16.5985 3.82459C16.726 3.82459 16.811 3.90959 16.811 4.03709V5.60959H16.386V4.03709ZM15.536 4.67459V5.77959C15.4085 5.82209 15.3235 5.90709 15.196 5.94959C15.0685 5.52459 14.941 5.05709 14.856 4.50459C15.111 4.58959 15.3235 4.63209 15.536 4.67459ZM19.1485 17.4246C16.0885 15.8946 16.131 13.5996 16.1735 11.8573V11.7723L19.1485 11.0498L22.1235 11.7723V11.8573C22.1235 13.5573 22.2085 15.8948 19.1485 17.4246Z" fill="black"/>
<path d="M19.1061 14.1527L18.3836 13.4727L17.8311 14.1102L19.1486 15.3002L21.0186 13.4302L20.3811 12.8352L19.1061 14.1527Z" fill="black"/>
<path d="M12.476 10.4127C12.476 10.3702 12.476 10.3702 12.4335 10.3277C12.8585 9.30766 13.156 7.94766 13.326 6.92766C13.3685 6.58766 13.2835 6.29016 13.0285 6.07766C12.7735 5.86516 12.476 5.78016 12.136 5.90766C11.796 6.03516 11.3285 6.16266 10.8185 6.24766V6.03516C10.8185 5.44016 10.351 4.97266 9.756 4.97266C9.161 4.97266 8.6935 5.44016 8.6935 6.03516V6.24766C8.1835 6.16266 7.716 6.03516 7.376 5.90766C7.0785 5.82266 6.7385 5.86516 6.4835 6.07766C6.2285 6.29016 6.101 6.63016 6.186 6.92766C6.356 7.90516 6.696 9.26516 7.0785 10.3277C7.0785 10.3702 7.0785 10.3702 7.036 10.4127L5.761 16.1499C5.5485 16.9999 5.761 17.8924 6.271 18.5724L8.7785 21.9724C9.0335 22.3124 9.3735 22.5249 9.7985 22.5249C10.2235 22.5249 10.5635 22.3124 10.8185 22.0149L13.326 18.6149C13.836 17.8924 14.006 17.0424 13.836 16.1924L12.476 10.4127ZM9.586 6.03516C9.586 5.90766 9.671 5.82266 9.7985 5.82266C9.926 5.82266 10.011 5.90766 10.011 6.03516V8.79766H9.586V6.03516ZM12.646 18.0624L10.1385 21.4624C9.9685 21.6749 9.6285 21.6749 9.4585 21.4624L6.951 18.0624C6.5685 17.5524 6.441 16.9149 6.611 16.3199L7.9285 10.6249C8.056 10.0299 8.566 9.64741 9.161 9.64741H10.3935C10.9885 9.64741 11.4985 10.0724 11.626 10.6249L12.986 16.3622C13.156 16.9572 12.986 17.5947 12.646 18.0622V18.0624Z" fill="black"/>
<path d="M9.24621 13.2172C9.33121 13.3022 9.41621 13.3447 9.50121 13.3872C9.58621 13.4297 9.71371 13.4722 9.84121 13.4722C9.96871 13.4722 10.0962 13.4722 10.1812 13.3872C10.2662 13.3447 10.3937 13.3022 10.4362 13.2172C10.4787 13.1322 10.5637 13.0472 10.6062 12.9197C10.6487 12.7922 10.6912 12.7072 10.6912 12.5372V11.8997H8.99121V12.5797C8.99121 12.7072 8.99121 12.8347 9.07621 12.9622C9.11871 13.0472 9.16121 13.1322 9.24621 13.2172ZM9.28871 12.3247H10.3937V12.5797C10.3937 12.6647 10.3937 12.7072 10.3512 12.7922C10.3087 12.8772 10.3087 12.9197 10.2237 12.9622C10.1812 13.0047 10.1387 13.0472 10.0537 13.0472C9.96871 13.0897 9.92621 13.0897 9.84121 13.0897C9.75621 13.0897 9.67121 13.0897 9.62871 13.0472C9.54371 13.0047 9.50121 13.0047 9.45871 12.9622C9.41621 12.9197 9.37371 12.8772 9.33121 12.7922C9.28871 12.7072 9.28871 12.6647 9.28871 12.5797V12.3247Z" fill="black"/>
<path d="M9.24621 14.9601C9.33121 15.0451 9.41621 15.0876 9.50121 15.1301C9.58621 15.1726 9.71371 15.2151 9.84121 15.2151C9.96871 15.2151 10.0962 15.2151 10.1812 15.1301C10.2662 15.0876 10.3937 15.0451 10.4362 14.9601C10.4787 14.8751 10.5637 14.7901 10.6062 14.6626C10.6487 14.5351 10.6912 14.4501 10.6912 14.2801V13.6001H8.99121V14.2801C8.99121 14.4076 8.99121 14.5351 9.07621 14.6626C9.11871 14.7901 9.16121 14.8751 9.24621 14.9601ZM9.28871 14.0251H10.3937V14.2801C10.3937 14.3651 10.3937 14.4076 10.3512 14.4926C10.3087 14.5776 10.3087 14.6201 10.2237 14.6626C10.1812 14.7051 10.1387 14.7476 10.0537 14.7476C9.96871 14.7901 9.92621 14.7901 9.84121 14.7901C9.75621 14.7901 9.67121 14.7901 9.62871 14.7476C9.54371 14.7051 9.50121 14.7051 9.45871 14.6626C9.41621 14.6201 9.37371 14.5776 9.33121 14.4926C9.28871 14.4076 9.28871 14.3651 9.28871 14.2801V14.0251Z" fill="black"/>
<path d="M10.4787 15.5128C10.3937 15.4278 10.3087 15.3853 10.2237 15.3428C10.0962 15.3003 9.96873 15.3003 9.84123 15.3003C9.71373 15.3003 9.58623 15.3003 9.50123 15.3428C9.41623 15.3853 9.28873 15.4278 9.20373 15.5128C9.11873 15.5978 9.07623 15.6828 9.03373 15.8103C8.99123 15.9378 8.94873 16.0228 8.94873 16.1928C8.94873 16.3203 8.99123 16.4478 9.03373 16.5753C9.07623 16.7028 9.11873 16.7878 9.20373 16.8728C9.28873 16.9578 9.37373 17.0003 9.50123 17.0428C9.62873 17.0853 9.71373 17.0853 9.84123 17.0853C9.96873 17.0853 10.0962 17.0853 10.1812 17.0428C10.2662 17.0003 10.3937 16.9578 10.4362 16.8728C10.5212 16.7878 10.5637 16.7028 10.6062 16.5753C10.6487 16.4478 10.6912 16.3628 10.6912 16.1928C10.6912 16.0653 10.6487 15.9378 10.6062 15.8103C10.6062 15.6828 10.5637 15.5978 10.4787 15.5128ZM10.3512 16.3628C10.3087 16.4053 10.3087 16.4903 10.2237 16.5328C10.1812 16.5753 10.1387 16.6178 10.0537 16.6178C9.96873 16.6603 9.92623 16.6603 9.84123 16.6603C9.75623 16.6603 9.67123 16.6603 9.62873 16.6178C9.54373 16.5753 9.50123 16.5753 9.45873 16.5328C9.41623 16.4903 9.37373 16.4478 9.33123 16.3628C9.28873 16.3203 9.28873 16.2353 9.28873 16.1503C9.28873 16.0653 9.28873 16.0228 9.33123 15.9378C9.37373 15.8953 9.37373 15.8103 9.45873 15.7678C9.50123 15.7253 9.54373 15.6828 9.62873 15.6828C9.71373 15.6403 9.75623 15.6403 9.84123 15.6403C9.92623 15.6403 10.0112 15.6403 10.0537 15.6828C10.1387 15.7253 10.1812 15.7253 10.2237 15.7678C10.2662 15.8103 10.3087 15.8528 10.3512 15.9378C10.3937 16.0228 10.3937 16.0653 10.3937 16.1503C10.3937 16.2353 10.3937 16.3203 10.3512 16.3628Z" fill="black"/>
<path d="M10.5642 17.3399C10.5217 17.2974 10.4792 17.2549 10.3942 17.2124C10.3517 17.1699 10.2667 17.1699 10.2242 17.1699C10.1392 17.1699 10.0967 17.1699 10.0117 17.2124C9.96916 17.2549 9.92666 17.2549 9.88416 17.2974C9.84166 17.3399 9.79916 17.3824 9.79916 17.4249C9.75666 17.4674 9.75666 17.5099 9.75666 17.5524C9.75666 17.5949 9.71416 17.6374 9.71416 17.6799C9.71416 17.7224 9.67166 17.7649 9.67166 17.8074C9.67166 17.8499 9.62916 17.8924 9.62916 17.8924C9.58666 17.9349 9.58666 17.9349 9.54416 17.9349C9.45916 17.9349 9.41666 17.9349 9.37416 17.8924C9.33166 17.8499 9.33166 17.8074 9.33166 17.7224C9.33166 17.6799 9.33166 17.6374 9.37416 17.5949C9.37416 17.5524 9.41666 17.5099 9.41666 17.5099C9.41666 17.4674 9.45916 17.4674 9.45916 17.4249C9.45916 17.3824 9.50166 17.3824 9.50166 17.3399V17.2974C9.50166 17.2974 9.50166 17.2549 9.45916 17.2549L9.28916 17.1274C9.24666 17.1699 9.20416 17.2124 9.20416 17.2549C9.20416 17.2974 9.16166 17.3399 9.11916 17.3824C9.07666 17.4249 9.07666 17.4674 9.07666 17.5524V17.7224C9.07666 17.8074 9.07666 17.8924 9.11916 17.9774C9.16166 18.0624 9.20416 18.1049 9.24666 18.1899C9.28916 18.2749 9.37416 18.2749 9.41666 18.3174C9.45916 18.3599 9.54416 18.3599 9.62916 18.3599C9.71416 18.3599 9.75666 18.3599 9.79916 18.3174C9.84166 18.2749 9.88416 18.2749 9.92666 18.2324C9.96916 18.1899 10.0117 18.1474 10.0117 18.1049C10.0542 18.0624 10.0542 18.0199 10.0542 17.9774C10.0542 17.9349 10.0967 17.8924 10.0967 17.8499C10.0967 17.8074 10.1392 17.7649 10.1392 17.7224C10.1392 17.6799 10.1817 17.6374 10.1817 17.6374C10.2242 17.5949 10.2242 17.5949 10.2667 17.5949C10.3092 17.5949 10.3517 17.5949 10.3942 17.6374C10.4367 17.6799 10.4367 17.7224 10.4367 17.8074V17.9349C10.4367 17.9774 10.3942 17.9774 10.3942 18.0199C10.3942 18.0624 10.3517 18.0624 10.3517 18.1049V18.1474V18.1899L10.3942 18.2324L10.5642 18.3174C10.6067 18.2749 10.6067 18.2324 10.6492 18.2324C10.6917 18.1899 10.6917 18.1474 10.6917 18.1049C10.6917 18.0624 10.7342 18.0199 10.7342 17.9774V17.8074C10.7342 17.7224 10.7342 17.6374 10.6917 17.5524C10.6492 17.4674 10.6067 17.3824 10.5642 17.3399Z" fill="black"/>
<path d="M16.1738 0H17.0238V2.4225H16.1738V0Z" fill="black"/>
<path d="M17.6191 1.0625H18.4691V2.7625H17.6191V1.0625Z" fill="black"/>
<path d="M14.729 1.0625H15.579V2.7625H14.729V1.0625Z" fill="black"/>
<path d="M5.93169 10.8373L4.99669 6.88483C5.20919 6.33233 5.42169 5.60983 5.59169 4.71733C5.63419 4.41983 5.54919 4.12233 5.33669 3.90983C5.12419 3.69733 4.82669 3.65483 4.52919 3.73983C4.35919 3.78233 4.23169 3.82483 4.06169 3.86733C3.97669 3.39983 3.55169 3.01733 3.04169 3.01733C2.53169 3.01733 2.10669 3.35733 2.02169 3.86733C1.89419 3.82483 1.72419 3.78233 1.55419 3.73983C1.25669 3.65483 0.959192 3.73983 0.746692 3.90983C0.449192 4.07983 0.364192 4.37733 0.406692 4.67483C0.576692 5.56733 0.789192 6.28983 1.00169 6.84233L0.0666918 10.7948C-0.103308 11.4323 0.0666918 12.0698 0.406692 12.5798L2.14919 14.9598C2.36169 15.2148 2.65919 15.3848 2.95669 15.3848C3.25419 15.3848 3.59419 15.2148 3.76419 14.9598L5.50669 12.5798C5.93169 12.1123 6.05919 11.4748 5.93169 10.8373ZM4.06169 4.67459C4.27419 4.63209 4.48669 4.58959 4.74169 4.50459C4.61419 5.05709 4.52919 5.52459 4.40169 5.94959C4.31669 5.86459 4.18919 5.82209 4.06169 5.77959V4.67459ZM2.78669 4.03709C2.78669 3.90959 2.87169 3.82459 2.99919 3.82459C3.12669 3.82459 3.21169 3.90959 3.21169 4.03709V5.60959H2.78669V4.03709ZM1.93669 4.67459V5.77959C1.80919 5.82209 1.72419 5.86459 1.59669 5.94959C1.46919 5.52459 1.34169 5.05709 1.25669 4.50459C1.51169 4.58959 1.72419 4.63209 1.93669 4.67459Z" fill="black"/>
<path d="M2.57373 0H3.42373V2.4225H2.57373V0Z" fill="black"/>
<path d="M1.12891 1.0625H1.97891V2.7625H1.12891V1.0625Z" fill="black"/>
<path d="M4.01904 1.0625H4.86904V2.7625H4.01904V1.0625Z" fill="black"/>
</svg>
