<svg width="33" height="33" viewBox="0 0 33 33" fill="none" xmlns="http://www.w3.org/2000/svg">
<g clip-path="url(#clip0_200_9434)">
<g clip-path="url(#clip1_200_9434)">
<g clip-path="url(#clip2_200_9434)">
<path d="M16.4408 10.6696C16.8832 10.6696 22.0943 10.6846 23.444 11.0445C23.8271 11.1501 24.1757 11.3547 24.4547 11.6376C24.7337 11.9206 24.9334 12.272 25.0336 12.6566C25.4085 14.0812 25.4085 17.043 25.4085 17.043V17.0729C25.4085 17.3954 25.386 20.0947 25.0336 21.4218C24.9345 21.8078 24.7354 22.1608 24.4563 22.4452C24.1772 22.7295 23.828 22.9352 23.444 23.0414C22.1243 23.4013 17.1081 23.4163 16.4708 23.4238H16.3433C15.706 23.4238 10.6897 23.4013 9.37758 23.0489C8.99265 22.9421 8.64283 22.7353 8.36365 22.4494C8.08448 22.1637 7.88587 21.8092 7.78799 21.4218C7.47307 20.2146 7.42058 17.8977 7.41309 17.2229V16.848C7.42058 16.1732 7.47307 13.8563 7.78799 12.6491C7.88934 12.2659 8.08949 11.9161 8.36845 11.6345C8.6474 11.3529 8.99537 11.1495 9.37758 11.0445C10.7272 10.6771 15.9384 10.6621 16.3808 10.6621L16.4408 10.6696ZM14.5663 14.3437V19.7273L19.275 17.043L14.5663 14.3512V14.3437Z" fill="black"/>
</g>
</g>
</g>
<defs>
<clipPath id="clip0_200_9434">
<rect width="17.9954" height="17.9954" fill="white" transform="translate(7.41309 8.04297)"/>
</clipPath>
<clipPath id="clip1_200_9434">
<rect width="17.9954" height="17.9954" fill="white" transform="translate(7.41309 8.04297)"/>
</clipPath>
<clipPath id="clip2_200_9434">
<rect width="17.9954" height="17.9954" fill="white" transform="translate(7.41309 8.04297)"/>
</clipPath>
</defs>
</svg>
