<svg class="menu-icon-fill" xmlns="http://www.w3.org/2000/svg" width="50" height="50" viewBox="0 0 50 50" fill="none">
<path d="M32.5856 8C38.328 8 43 12.7507 43 18.5917V31.4083C43 37.2493 38.328 42 32.5856 42C31.9232 42 31.3856 41.4532 31.3856 40.7794C31.3856 40.1056 31.9232 39.5588 32.5856 39.5588C37.0048 39.5588 40.6 35.9034 40.6 31.4083V21.1795H34.6896C32.7488 21.1811 31.1664 22.789 31.1648 24.7648C31.1664 26.7406 32.7488 28.3486 34.6896 28.3502H37.1456C37.808 28.3502 38.3456 28.897 38.3456 29.5708C38.3456 30.2446 37.808 30.7914 37.1456 30.7914H34.6896C31.424 30.7898 28.7664 28.0865 28.7648 24.7648C28.7664 21.4431 31.424 18.7398 34.6896 18.7382H40.6V18.5917C40.6 14.0966 37.0048 10.4412 32.5856 10.4412H17.4128C13.8512 10.4412 10.8624 12.8304 9.8208 16.1033H25.6384C26.3008 16.1033 26.8384 16.6501 26.8384 17.3239C26.8384 17.9993 26.3008 18.5445 25.6384 18.5445H9.4048L9.4 18.5917V31.4083C9.4 35.9034 12.9936 39.5588 17.4128 39.5588H25.0464C25.7088 39.5588 26.2464 40.1056 26.2464 40.7794C26.2464 41.4532 25.7088 42 25.0464 42H17.4128C11.6704 42 7 37.2493 7 31.4083V18.5917C7 12.7507 11.6704 8 17.4128 8H32.5856ZM35.4954 23.4342C36.1578 23.4342 36.6954 23.981 36.6954 24.6548C36.6954 25.3286 36.1578 25.8754 35.4954 25.8754H34.9498C34.2874 25.8754 33.7498 25.3286 33.7498 24.6548C33.7498 23.981 34.2874 23.4342 34.9498 23.4342H35.4954Z" fill="#ff1717"/>
<defs>
<linearGradient id="paint0_linear_4769_27217" x1="35.0479" y1="8" x2="34.9008" y2="49.2861" gradientUnits="userSpaceOnUse">
<stop stop-color="#005CAA"/>
<stop offset="1" stop-color="#64B0F1"/>
</linearGradient>
</defs>
</svg>