<svg width="36" height="37" viewBox="0 0 36 37" fill="none" xmlns="http://www.w3.org/2000/svg">
<g clip-path="url(#clip0_1118_1364)">
<path d="M27.4966 0.640625H8.52031C3.89665 0.640625 0.148438 4.38884 0.148438 9.0125V27.9888C0.148438 32.6124 3.89665 36.3606 8.52031 36.3606H27.4966C32.1202 36.3606 35.8684 32.6124 35.8684 27.9888V9.0125C35.8684 4.38884 32.1202 0.640625 27.4966 0.640625Z" fill="url(#paint0_radial_1118_1364)"/>
<path d="M27.4966 0.640625H8.52031C3.89665 0.640625 0.148438 4.38884 0.148438 9.0125V27.9888C0.148438 32.6124 3.89665 36.3606 8.52031 36.3606H27.4966C32.1202 36.3606 35.8684 32.6124 35.8684 27.9888V9.0125C35.8684 4.38884 32.1202 0.640625 27.4966 0.640625Z" fill="url(#paint1_radial_1118_1364)"/>
<path d="M18.0091 4.54785C14.2197 4.54785 13.744 4.56446 12.2558 4.63213C10.7703 4.70022 9.75635 4.93533 8.86921 5.28039C7.95138 5.63675 7.17293 6.11353 6.39742 6.88933C5.6212 7.66498 5.14443 8.44342 4.78695 9.36084C4.44091 10.2483 4.20552 11.2627 4.13869 12.7474C4.07213 14.2358 4.05469 14.7116 4.05469 18.5011C4.05469 22.2906 4.07143 22.7648 4.13896 24.253C4.20733 25.7385 4.44244 26.7524 4.78723 27.6396C5.14387 28.5574 5.62065 29.3359 6.39644 30.1114C7.17182 30.8876 7.95026 31.3655 8.8674 31.7218C9.75524 32.0669 10.7694 32.302 12.2545 32.3701C13.7429 32.4378 14.2181 32.4544 18.0074 32.4544C21.7972 32.4544 22.2713 32.4378 23.7596 32.3701C25.245 32.302 26.2601 32.0669 27.1479 31.7218C28.0654 31.3655 28.8427 30.8876 29.6179 30.1114C30.3941 29.3359 30.8708 28.5574 31.2284 27.64C31.5714 26.7524 31.8069 25.7382 31.8767 24.2533C31.9435 22.7651 31.9609 22.2906 31.9609 18.5011C31.9609 14.7116 31.9435 14.2361 31.8767 12.7477C31.8069 11.2622 31.5714 10.2484 31.2284 9.36126C30.8708 8.44342 30.3941 7.66498 29.6179 6.88933C28.8419 6.11325 28.0656 5.63647 27.1471 5.28053C26.2576 4.93533 25.2431 4.70008 23.7576 4.63213C22.2692 4.56446 21.7954 4.54785 18.0047 4.54785H18.0091ZM16.7573 7.06234C17.1289 7.06179 17.5435 7.06234 18.0091 7.06234C21.7347 7.06234 22.1762 7.07574 23.6474 7.14257C25.0078 7.20481 25.7462 7.4321 26.2381 7.62312C26.8893 7.87595 27.3535 8.17832 27.8416 8.66681C28.3299 9.15517 28.6321 9.62023 28.8857 10.2714C29.0767 10.7626 29.3043 11.501 29.3662 12.8614C29.4331 14.3323 29.4476 14.7741 29.4476 18.4979C29.4476 22.2217 29.4331 22.6636 29.3662 24.1344C29.304 25.4948 29.0767 26.2332 28.8857 26.7245C28.6328 27.3757 28.3299 27.8394 27.8416 28.3275C27.3532 28.8158 26.8895 29.1181 26.2381 29.371C25.7468 29.5629 25.0078 29.7896 23.6474 29.8518C22.1764 29.9187 21.7347 29.9332 18.0091 29.9332C14.2833 29.9332 13.8417 29.9187 12.3709 29.8518C11.0105 29.7891 10.2721 29.5618 9.77979 29.3707C9.12874 29.1178 8.66354 28.8155 8.17518 28.3272C7.68683 27.8388 7.3846 27.3749 7.13107 26.7234C6.94005 26.2321 6.71248 25.4937 6.65053 24.1333C6.58369 22.6624 6.5703 22.2206 6.5703 18.4944C6.5703 14.7684 6.58369 14.3289 6.65053 12.8579C6.71276 11.4975 6.94005 10.7591 7.13107 10.2672C7.38404 9.61604 7.68683 9.15099 8.17532 8.66263C8.66368 8.17427 9.12874 7.8719 9.77993 7.61852C10.2718 7.42666 11.0105 7.19992 12.3709 7.13741C13.6581 7.07923 14.1569 7.06179 16.7573 7.05886V7.06234ZM25.4572 9.37912C24.5329 9.37912 23.7829 10.1284 23.7829 11.0529C23.7829 11.9773 24.5329 12.7273 25.4572 12.7273C26.3816 12.7273 27.1316 11.9773 27.1316 11.0529C27.1316 10.1285 26.3816 9.37856 25.4572 9.37856V9.37912ZM18.0091 11.3355C14.052 11.3355 10.8436 14.5439 10.8436 18.5011C10.8436 22.4584 14.052 25.6652 18.0091 25.6652C21.9663 25.6652 25.1736 22.4584 25.1736 18.5011C25.1736 14.544 21.966 11.3355 18.0088 11.3355H18.0091ZM18.0091 13.85C20.5777 13.85 22.6602 15.9322 22.6602 18.5011C22.6602 21.0697 20.5777 23.1523 18.0091 23.1523C15.4403 23.1523 13.3581 21.0697 13.3581 18.5011C13.3581 15.9322 15.4403 13.85 18.0091 13.85Z" fill="white"/>
</g>
<defs>
<radialGradient id="paint0_radial_1118_1364" cx="0" cy="0" r="1" gradientUnits="userSpaceOnUse" gradientTransform="translate(9.63656 39.1118) rotate(-90) scale(35.4012 32.9259)">
<stop stop-color="#FFDD55"/>
<stop offset="0.1" stop-color="#FFDD55"/>
<stop offset="0.5" stop-color="#FF543E"/>
<stop offset="1" stop-color="#C837AB"/>
</radialGradient>
<radialGradient id="paint1_radial_1118_1364" cx="0" cy="0" r="1" gradientUnits="userSpaceOnUse" gradientTransform="translate(-5.8348 3.21372) rotate(78.681) scale(15.8245 65.2292)">
<stop stop-color="#3771C8"/>
<stop offset="0.128" stop-color="#3771C8"/>
<stop offset="1" stop-color="#6600FF" stop-opacity="0"/>
</radialGradient>
<clipPath id="clip0_1118_1364">
<rect width="35.72" height="35.72" fill="white" transform="translate(0.148438 0.640625)"/>
</clipPath>
</defs>
</svg>
