<svg width="36" height="37" viewBox="0 0 36 37" fill="none" xmlns="http://www.w3.org/2000/svg">
<g clip-path="url(#clip0_1118_1371)">
<path d="M27.4985 0.640625H8.52227C3.89861 0.640625 0.150391 4.38884 0.150391 9.0125V27.9888C0.150391 32.6124 3.89861 36.3606 8.52227 36.3606H27.4985C32.1222 36.3606 35.8704 32.6124 35.8704 27.9888V9.0125C35.8704 4.38884 32.1222 0.640625 27.4985 0.640625Z" fill="white"/>
<path d="M27.4985 0.640625H8.52227C3.89861 0.640625 0.150391 4.38884 0.150391 9.0125V27.9888C0.150391 32.6124 3.89861 36.3606 8.52227 36.3606H27.4985C32.1222 36.3606 35.8704 32.6124 35.8704 27.9888V9.0125C35.8704 4.38884 32.1222 0.640625 27.4985 0.640625Z" fill="#0A66C2"/>
<path d="M25.9245 31.0141H30.0085C30.1565 31.0141 30.2985 30.9553 30.4031 30.8506C30.5078 30.746 30.5666 30.6041 30.5667 30.4561L30.5688 21.8272C30.5688 17.3171 29.5969 13.8505 24.3264 13.8505C22.3229 13.7759 20.4335 14.8088 19.4139 16.5334C19.4089 16.5417 19.4014 16.5483 19.3923 16.5519C19.3833 16.5556 19.3733 16.5562 19.3639 16.5536C19.3545 16.5511 19.3462 16.5455 19.3402 16.5378C19.3343 16.5301 19.331 16.5206 19.3309 16.5109V14.8249C19.3309 14.6769 19.2721 14.535 19.1674 14.4303C19.0628 14.3256 18.9208 14.2668 18.7728 14.2668H14.897C14.749 14.2668 14.607 14.3256 14.5024 14.4303C14.3977 14.535 14.3389 14.6769 14.3389 14.8249V30.4552C14.3389 30.6033 14.3977 30.7452 14.5024 30.8499C14.607 30.9546 14.749 31.0134 14.897 31.0134H18.9808C19.1288 31.0134 19.2708 30.9546 19.3755 30.8499C19.4801 30.7452 19.5389 30.6033 19.5389 30.4552V22.729C19.5389 20.5443 19.9534 18.4286 22.6618 18.4286C25.3317 18.4286 25.3663 20.9285 25.3663 22.8705V30.4559C25.3663 30.604 25.4251 30.7459 25.5298 30.8506C25.6345 30.9553 25.7764 31.0141 25.9245 31.0141ZM5.45312 8.96016C5.45312 10.6156 6.81593 11.9777 8.47147 11.9777C10.1266 11.9775 11.4885 10.6146 11.4885 8.95947C11.4883 7.30435 10.1262 5.94238 8.47091 5.94238C6.81523 5.94238 5.45312 7.30477 5.45312 8.96016ZM6.42412 31.0141H10.5134C10.6614 31.0141 10.8034 30.9553 10.908 30.8506C11.0127 30.7459 11.0715 30.604 11.0715 30.4559V14.8249C11.0715 14.6769 11.0127 14.535 10.908 14.4303C10.8034 14.3256 10.6614 14.2668 10.5134 14.2668H6.42412C6.2761 14.2668 6.13414 14.3256 6.02947 14.4303C5.9248 14.535 5.866 14.6769 5.866 14.8249V30.4559C5.866 30.604 5.9248 30.7459 6.02947 30.8506C6.13414 30.9553 6.2761 31.0141 6.42412 31.0141Z" fill="white"/>
</g>
<defs>
<clipPath id="clip0_1118_1371">
<rect width="35.72" height="35.72" fill="white" transform="translate(0.150391 0.640625)"/>
</clipPath>
</defs>
</svg>
