<svg width="36" height="26" viewBox="0 0 36 26" fill="none" xmlns="http://www.w3.org/2000/svg">
<g clip-path="url(#clip0_1118_1376)">
<path d="M34.9311 3.91734C34.7262 3.16018 34.3266 2.4699 33.7719 1.91525C33.2173 1.36059 32.5271 0.960898 31.7699 0.75598C28.998 0 17.8419 0 17.8419 0C17.8419 0 6.68525 0.0228831 3.91332 0.778863C3.15615 0.983793 2.46588 1.3835 1.91125 1.93819C1.35661 2.49287 0.956963 3.18318 0.7521 3.94036C-0.086343 8.86554 -0.41159 16.3704 0.775123 21.0985C0.980007 21.8557 1.37966 22.546 1.9343 23.1006C2.48893 23.6553 3.17919 24.055 3.93634 24.2599C6.70827 25.0159 17.8646 25.0159 17.8646 25.0159C17.8646 25.0159 29.0209 25.0159 31.7926 24.2599C32.5498 24.055 33.2401 23.6553 33.7948 23.1006C34.3494 22.546 34.7491 21.8557 34.954 21.0985C35.8384 16.1664 36.1109 8.66615 34.9311 3.91734Z" fill="#FF0000"/>
<path d="M14.291 17.8685L23.5458 12.508L14.291 7.14746V17.8685Z" fill="white"/>
</g>
<defs>
<clipPath id="clip0_1118_1376">
<rect width="35.72" height="25.1156" fill="white"/>
</clipPath>
</defs>
</svg>
