<svg width="50" height="50" viewBox="0 0 50 50" fill="none" xmlns="http://www.w3.org/2000/svg">
<path d="M26.9237 18.8418C26.9462 18.9399 27.036 18.9968 27.1346 18.9748L28.4093 18.6828C28.4831 18.6658 28.5358 18.615 28.5441 18.5366C28.5665 18.4664 28.5253 18.3981 28.4652 18.3606L27.8327 17.9627C27.8891 17.8719 27.9555 17.7665 28.0279 17.6863C28.0985 17.6052 28.072 17.4823 27.9959 17.4351C27.9216 17.3874 27.8079 17.4003 27.7456 17.4663C27.6791 17.5717 27.598 17.668 27.5315 17.7734L26.899 17.3755C26.8385 17.3379 26.7748 17.3398 26.706 17.381C26.6822 17.3865 26.6629 17.4168 26.6533 17.4319C26.6249 17.4773 26.6212 17.5167 26.6322 17.5657L26.9237 18.8418Z" fill="black"/>
<path d="M35.6729 16.2519L35.732 16.29C36.0038 16.46 36.2656 16.6448 36.5076 16.8611C36.5901 16.9326 36.7028 16.9193 36.7647 16.8542C36.8362 16.7727 36.8239 16.6599 36.7583 16.5976C36.5154 16.3821 36.233 16.1626 35.9465 15.9824L35.8622 15.9503C35.7719 15.8935 35.6637 15.9311 35.6174 16.0058C35.5592 16.0966 35.5821 16.1951 35.6729 16.2519Z" fill="black"/>
<path d="M38.2545 22.8735C38.2545 22.8735 38.2448 22.8881 38.2357 22.9033C38.1307 23.237 37.9969 23.5519 37.8374 23.8713C37.8057 23.9566 37.8277 24.0547 37.9185 24.1115C38.0028 24.1432 38.116 24.1308 38.1573 24.0309C38.3173 23.7109 38.4548 23.3566 38.5689 23.0078C38.601 22.9234 38.5391 22.8212 38.4552 22.7891C38.3755 22.7818 38.2921 22.8134 38.2545 22.8735Z" fill="black"/>
<path d="M38.5173 20.9165C38.499 20.9468 38.4948 20.9862 38.4912 21.0265C38.5049 21.3708 38.4797 21.7127 38.4297 22.0588C38.4128 22.1532 38.4843 22.2398 38.5787 22.2573C38.6727 22.2751 38.7598 22.2027 38.7763 22.1092C38.8363 21.7471 38.8414 21.3721 38.8359 21.0123C38.8386 20.9083 38.7575 20.8368 38.6534 20.8345C38.6044 20.8459 38.5457 20.8721 38.5173 20.9165Z" fill="black"/>
<path d="M32.0187 15.4465C32.3584 15.408 32.7191 15.403 33.0597 15.4286C33.1647 15.4305 33.2513 15.359 33.2531 15.2563C33.2545 15.1518 33.1844 15.0651 33.0799 15.0628C32.7242 15.0275 32.3391 15.039 31.9752 15.0826C31.9257 15.0936 31.8771 15.105 31.8542 15.1742C31.8354 15.204 31.8308 15.2444 31.8267 15.2842C31.8249 15.3874 31.9298 15.4538 32.0187 15.4465Z" fill="black"/>
<path d="M37.714 18.3529C37.7607 18.4455 37.8698 18.4721 37.9624 18.4253C38.0546 18.3776 38.0816 18.2685 38.0344 18.1764C37.8579 17.8555 37.6576 17.5406 37.4128 17.261C37.3565 17.184 37.2382 17.1712 37.136 17.2331C37.1264 17.2487 37.1167 17.2629 37.1076 17.2784C37.0599 17.3541 37.0677 17.4425 37.1176 17.4957C37.3473 17.7652 37.5426 18.0563 37.714 18.3529Z" fill="black"/>
<path d="M33.9216 15.5288C34.2741 15.6035 34.6069 15.7084 34.9218 15.8418C34.9979 15.8895 35.1148 15.8372 35.1469 15.7524C35.1941 15.6768 35.1409 15.5599 35.0561 15.5278C34.7183 15.399 34.3695 15.2849 34.0005 15.201C33.9326 15.1776 33.8492 15.2097 33.8112 15.2707C33.8015 15.2858 33.807 15.3101 33.7979 15.3257C33.7653 15.4096 33.8267 15.5113 33.9216 15.5288Z" fill="black"/>
<path d="M38.58 20.2834C38.6771 20.2609 38.7491 20.1807 38.7267 20.0826C38.6579 19.7237 38.574 19.3557 38.4305 19.0146C38.3998 18.9317 38.2848 18.8799 38.2014 18.912C38.1674 18.9326 38.134 18.9532 38.1147 18.983C38.0858 19.0288 38.0881 19.0921 38.0845 19.1315C38.2215 19.4492 38.3155 19.8017 38.3783 20.1358C38.4007 20.2344 38.4814 20.3059 38.58 20.2834Z" fill="black"/>
<path d="M30.1867 15.9546C30.5044 15.8189 30.8362 15.6915 31.1644 15.603C31.2474 15.571 31.3134 15.466 31.2818 15.3826C31.2501 15.3001 31.1594 15.2432 31.0613 15.2657C30.7093 15.3592 30.3522 15.4912 30.0258 15.6434C30.0011 15.6493 29.9662 15.67 29.9479 15.7002C29.919 15.7447 29.9204 15.8098 29.9479 15.8684C29.9942 15.961 30.0937 16.0023 30.1867 15.9546Z" fill="black"/>
<path d="M28.603 17.039C28.8583 16.8002 29.1278 16.5706 29.4189 16.3758C29.4964 16.3194 29.5234 16.2098 29.4666 16.1328C29.4097 16.0554 29.3006 16.0283 29.2232 16.0847C28.922 16.2951 28.6287 16.5307 28.3637 16.7842C28.3637 16.7842 28.3541 16.7993 28.344 16.8144C28.2968 16.89 28.3041 16.9781 28.3559 17.0312C28.4114 17.1082 28.5397 17.1046 28.603 17.039Z" fill="black"/>
<path d="M12.6515 12.7993C12.6735 12.8973 12.7638 12.9542 12.8624 12.9317L14.1371 12.6407C14.2109 12.6237 14.2636 12.5728 14.2714 12.4944C14.2943 12.4243 14.2526 12.356 14.193 12.3184L13.5605 11.9206C13.6168 11.8303 13.6833 11.7248 13.7553 11.6442C13.8263 11.563 13.7993 11.4406 13.7236 11.393C13.6489 11.3458 13.5352 11.3586 13.4729 11.4241C13.4064 11.5296 13.3253 11.6258 13.2593 11.7312L12.6267 11.3334C12.5662 11.2953 12.5025 11.2972 12.4342 11.3389C12.4099 11.3444 12.3907 11.3751 12.3815 11.3898C12.3531 11.4351 12.349 11.4746 12.3604 11.5236L12.6515 12.7993Z" fill="black"/>
<path d="M21.4004 10.21L21.46 10.2481C21.7313 10.4181 21.9935 10.6029 22.2355 10.8188C22.3171 10.8903 22.4303 10.8774 22.4922 10.8119C22.5642 10.7303 22.5514 10.6175 22.4858 10.5552C22.2429 10.3398 21.961 10.1202 21.674 9.94052L21.5892 9.90843C21.4994 9.85159 21.3912 9.88872 21.3445 9.96435C21.2876 10.0551 21.3105 10.1532 21.4004 10.21Z" fill="black"/>
<path d="M23.9823 16.8316C23.9823 16.8316 23.9726 16.8463 23.9635 16.8614C23.8585 17.1956 23.7247 17.51 23.5647 17.83C23.5326 17.9148 23.5546 18.0129 23.6454 18.0702C23.7297 18.1018 23.8434 18.0894 23.8846 17.9895C24.0442 17.6695 24.1821 17.3152 24.2963 16.9664C24.3283 16.8816 24.2665 16.7798 24.1821 16.7478C24.1028 16.74 24.0199 16.7711 23.9823 16.8316Z" fill="black"/>
<path d="M24.2454 14.875C24.2267 14.9053 24.223 14.9447 24.2184 14.985C24.2331 15.3297 24.2069 15.6712 24.1579 16.0173C24.1405 16.1122 24.212 16.1983 24.3069 16.2162C24.4008 16.2336 24.4875 16.1612 24.5044 16.0682C24.564 15.706 24.5686 15.3311 24.5636 14.9708C24.5658 14.8668 24.4856 14.7953 24.382 14.793C24.3321 14.804 24.2734 14.8301 24.2454 14.875Z" fill="black"/>
<path d="M17.7463 9.40431C18.0864 9.36581 18.4467 9.36123 18.7873 9.38644C18.8918 9.38827 18.9789 9.31676 18.9803 9.21409C18.9821 9.10958 18.9115 9.02295 18.8079 9.02065C18.4513 8.98582 18.0672 8.99682 17.7028 9.04036C17.6528 9.05137 17.6047 9.06282 17.5818 9.13204C17.563 9.16229 17.5588 9.20217 17.5547 9.24159C17.5524 9.34518 17.6574 9.41211 17.7463 9.40431Z" fill="black"/>
<path d="M23.4419 12.3116C23.4882 12.4042 23.5978 12.4308 23.6904 12.3841C23.783 12.3364 23.8095 12.2273 23.7628 12.1352C23.5863 11.8143 23.3855 11.4989 23.1408 11.2193C23.0844 11.1423 22.9661 11.13 22.8639 11.1914C22.8543 11.207 22.8451 11.2216 22.8355 11.2372C22.7878 11.3128 22.7956 11.4008 22.8465 11.4545C23.0757 11.724 23.2705 12.0142 23.4419 12.3116Z" fill="black"/>
<path d="M19.6487 9.48628C20.0012 9.561 20.3344 9.66596 20.6493 9.79935C20.725 9.84702 20.8414 9.79431 20.8739 9.70997C20.9211 9.63479 20.8684 9.51745 20.7836 9.48536C20.4454 9.35656 20.0965 9.24197 19.7285 9.15854C19.6592 9.13517 19.5767 9.16725 19.5382 9.22776C19.5291 9.24288 19.535 9.26764 19.5254 9.28276C19.4929 9.36756 19.5543 9.46932 19.6487 9.48628Z" fill="black"/>
<path d="M24.3081 14.2414C24.4057 14.219 24.4777 14.1383 24.4547 14.0406C24.386 13.6817 24.3021 13.3137 24.1595 12.9726C24.1284 12.8897 24.0129 12.8379 23.9299 12.87C23.896 12.8906 23.8621 12.9117 23.8433 12.9415C23.8144 12.9873 23.8167 13.0506 23.8135 13.09C23.9496 13.4076 24.0436 13.7597 24.1064 14.0938C24.1288 14.1924 24.21 14.2639 24.3081 14.2414Z" fill="black"/>
<path d="M15.9147 9.91265C16.2323 9.77651 16.5637 9.64908 16.8924 9.56108C16.9749 9.52899 17.0409 9.42402 17.0097 9.34014C16.9777 9.25763 16.8869 9.20125 16.7888 9.22371C16.4368 9.31676 16.0802 9.44923 15.7533 9.60141C15.729 9.60737 15.6938 9.628 15.6754 9.65825C15.647 9.70317 15.6488 9.7678 15.6754 9.82647C15.7222 9.91861 15.8216 9.95986 15.9147 9.91265Z" fill="black"/>
<path d="M14.3301 10.9964C14.5849 10.7576 14.8549 10.5284 15.1464 10.3336C15.2239 10.2768 15.2505 10.1677 15.1941 10.0902C15.1373 10.0128 15.0286 9.98571 14.9512 10.0425C14.65 10.2529 14.3567 10.4885 14.0917 10.7416C14.0917 10.7416 14.0821 10.7567 14.0725 10.7718C14.0248 10.8475 14.0321 10.9359 14.0835 10.9886C14.1394 11.0661 14.2673 11.062 14.3301 10.9964Z" fill="black"/>
<path d="M10.6419 15.9323C10.6391 15.9323 10.5754 16.0226 10.4512 16.2032C10.4512 16.2082 10.4539 16.2109 10.459 16.2109H11.5815C11.5815 16.2527 11.5737 16.293 11.5577 16.3324C11.4568 16.6006 11.1997 16.7349 10.7867 16.7349C10.6987 16.7349 10.6226 16.7303 10.5571 16.7211L10.5534 16.7307V16.992C10.5534 16.9957 10.9224 17.4275 11.6604 18.2869H12.0706C12.0775 18.2869 12.0802 18.2846 12.0802 18.2791V18.2269L11.1479 17.1025C11.0654 17.0067 11.0241 16.9526 11.0241 16.9393V16.9356C11.1919 16.9356 11.367 16.8916 11.5499 16.8041C11.648 16.7647 11.7507 16.6789 11.8579 16.5465C11.9391 16.4158 11.9831 16.304 11.9913 16.2114H12.341C12.3438 16.2114 12.4048 16.1211 12.5253 15.9405C12.5253 15.9368 12.5221 15.9341 12.5157 15.9327H11.978C11.9528 15.8163 11.9056 15.7177 11.8364 15.6366H12.341C12.3553 15.6247 12.4181 15.5335 12.5294 15.3616V15.3579H10.6414C10.6373 15.3579 10.5749 15.4473 10.4548 15.6265V15.6361H10.9531C11.037 15.6361 11.1314 15.6536 11.2359 15.687C11.3821 15.7443 11.4811 15.825 11.532 15.9286V15.9323H10.6419Z" fill="black"/>
<path d="M24.386 21.9659C24.3837 21.9659 24.32 22.0566 24.1958 22.2368C24.1958 22.2418 24.1986 22.2446 24.2036 22.2446H25.3261C25.3261 22.2867 25.3179 22.3271 25.3023 22.3665C25.2019 22.6347 24.9448 22.7685 24.5309 22.7685C24.4433 22.7685 24.3668 22.7639 24.3017 22.7547L24.2976 22.7644V23.0252C24.2976 23.0293 24.667 23.4611 25.405 24.3205H25.8152C25.8217 24.3205 25.8249 24.3183 25.8249 24.3128V24.26L24.893 23.1352C24.8105 23.0399 24.7692 22.9858 24.7692 22.9729V22.9688C24.9365 22.9688 25.1121 22.9248 25.295 22.8373C25.3931 22.7978 25.4957 22.7121 25.603 22.5801C25.6846 22.449 25.7286 22.3372 25.7359 22.2441H26.0857C26.0884 22.2441 26.1503 22.1538 26.2704 21.9732C26.2704 21.9696 26.2667 21.9668 26.2603 21.9654H25.7231C25.6979 21.849 25.6507 21.7504 25.5815 21.6693H26.0857C26.1003 21.6574 26.1636 21.5657 26.2745 21.3943V21.3906H24.386C24.3824 21.3906 24.32 21.48 24.1999 21.6597V21.6693H24.6982C24.7821 21.6693 24.8765 21.6863 24.9805 21.7202C25.1272 21.778 25.2258 21.8586 25.2771 21.9613V21.9654L24.386 21.9659Z" fill="black"/>
<path d="M38.1311 27.9996C38.1284 27.9996 38.0651 28.0899 37.9409 28.2709C37.9409 28.2764 37.9437 28.2792 37.9487 28.2792H39.0713C39.0713 28.3214 39.0639 28.3617 39.0474 28.4007C38.947 28.6693 38.6904 28.8036 38.2764 28.8036C38.1889 28.8036 38.1123 28.7985 38.0468 28.7894L38.0427 28.7994V29.0603C38.0427 29.0644 38.4117 29.4957 39.1501 30.3552H39.5599C39.5668 30.3552 39.5695 30.3524 39.5695 30.3469V30.2942L38.6372 29.1698C38.5547 29.074 38.5139 29.0204 38.5139 29.0075V29.0034C38.6807 29.0034 38.8563 28.9589 39.0392 28.8719C39.1373 28.8324 39.2399 28.7467 39.3477 28.6143C39.4288 28.4836 39.4728 28.3718 39.4811 28.2792H39.8308C39.8331 28.2792 39.8945 28.1889 40.0151 28.0078C40.0151 28.0042 40.0114 28.0014 40.0054 27.9996H39.4678C39.4425 27.8836 39.3958 27.7846 39.3266 27.7035H39.8312C39.8455 27.6915 39.9078 27.5999 40.0196 27.4284V27.4243H38.1311C38.127 27.4243 38.0651 27.5142 37.945 27.6929V27.703H38.4438C38.5276 27.703 38.6221 27.72 38.7257 27.7539C38.8723 27.8112 38.9713 27.8914 39.0222 27.995V27.9987H38.1311V27.9996Z" fill="black"/>
<path d="M47.0909 40.0715H42.8551C44.1175 39.5613 44.8999 38.7995 44.8999 37.9364V34.9203V31.9033V28.8863C44.8999 27.3191 42.3 26.0915 38.9809 26.0915C38.952 26.0915 38.9259 26.092 38.897 26.0938C37.8767 26.0984 36.871 26.2268 35.9859 26.4656C34.1547 26.9615 33.061 27.8664 33.061 28.8863V31.9028V34.9198V37.9359C33.061 38.8009 33.849 39.5613 35.1104 40.071H29.1048C30.3653 39.5613 31.1537 38.8009 31.1537 37.9359V34.9198V31.9028V28.8863V25.8692V22.8522C31.1537 21.2855 28.5538 20.0584 25.2343 20.0584C25.1738 20.0584 25.1151 20.0584 25.0629 20.0603C21.7873 20.1015 19.3172 21.3015 19.3172 22.8522V25.8692V28.8863V31.9028V34.9198V37.9359C19.3172 38.7899 20.0955 39.5567 21.3688 40.071H15.355C16.6178 39.5608 17.4085 38.799 17.4085 37.9359V34.9198V31.9028V28.8863V25.8692V22.8522V19.8352V16.8182C17.4085 15.2515 14.8095 14.0244 11.4909 14.0244C10.8978 14.0244 10.3097 14.0648 9.74267 14.145C7.20878 14.5034 5.57193 15.5526 5.57193 16.8182V19.8352V22.8522V25.8692V28.8863V31.9028V34.9198V37.9359C5.57193 38.8009 6.35987 39.5613 7.6204 40.071H3.38091C3.17051 40.071 3 40.2415 3 40.4524C3 40.6623 3.17051 40.8333 3.38091 40.8333H47.0909C47.3009 40.8333 47.4714 40.6623 47.4714 40.4524C47.4714 40.242 47.3009 40.0715 47.0909 40.0715ZM36.1349 27.0175C36.9751 26.791 37.9345 26.6691 38.909 26.6654L38.9323 26.6641C38.9484 26.6631 38.9631 26.6631 38.9805 26.6631C42.1795 26.6631 44.3283 27.8123 44.3283 28.8863C44.3283 29.1585 44.199 29.4294 43.9469 29.6879C43.8938 29.7411 43.836 29.7961 43.7732 29.8479C43.7035 29.907 43.6366 29.957 43.566 30.0051C43.4913 30.0574 43.4106 30.1069 43.3277 30.1564C43.0788 30.3031 42.7946 30.4365 42.482 30.5534C41.5084 30.9164 40.2648 31.1162 38.98 31.1162C38.644 31.1162 38.3131 31.1039 37.9927 31.0777L37.7479 31.053C37.5925 31.0374 37.4394 31.0191 37.2882 30.9975C37.1176 30.9732 36.9512 30.9439 36.7872 30.9123C35.9405 30.7482 35.1948 30.4892 34.6337 30.1564C34.5494 30.1069 34.4692 30.0574 34.3922 30.0033C34.3252 29.9584 34.2583 29.9075 34.1863 29.847C34.1249 29.7966 34.0662 29.7416 34.0163 29.6902C33.7614 29.4294 33.6322 29.1585 33.6322 28.8863C33.6322 28.162 34.6149 27.4282 36.1349 27.0175ZM33.6322 30.1147C33.6537 30.1362 33.6753 30.1555 33.6959 30.1752C33.7041 30.183 33.7128 30.1912 33.7206 30.1981C33.7546 30.2293 33.7876 30.2586 33.8206 30.2857C33.9067 30.3585 33.9892 30.4209 34.0672 30.4731C34.0676 30.4731 34.0676 30.4736 34.0676 30.4736C34.0685 30.4741 34.0695 30.475 34.0704 30.4754C34.0731 30.4773 34.0759 30.4786 34.0786 30.4805C34.1588 30.5373 34.2418 30.5914 34.3321 30.6464L34.4082 30.6881H34.4114C34.4522 30.7115 34.4967 30.7326 34.5388 30.755C34.5865 30.7802 34.6337 30.8059 34.6828 30.8307C34.741 30.8595 34.8019 30.8866 34.8615 30.9136C34.9124 30.9366 34.9619 30.9599 35.0142 30.9815C35.0783 31.0085 35.1457 31.0337 35.2122 31.0599C35.2644 31.0796 35.3153 31.1007 35.3694 31.1194C35.4404 31.1451 35.5138 31.168 35.588 31.1923C35.6403 31.2093 35.6921 31.2272 35.7462 31.2437C35.8246 31.267 35.9062 31.2886 35.9864 31.3106C36.0386 31.3248 36.09 31.3399 36.1431 31.3541C36.2311 31.3761 36.3219 31.3963 36.4117 31.416C36.4608 31.4266 36.508 31.4394 36.558 31.4495C36.6597 31.4701 36.7638 31.4884 36.8687 31.5068C36.9095 31.5141 36.9485 31.5224 36.9893 31.5292C37.1355 31.5531 37.2849 31.5746 37.4353 31.5929L37.6915 31.6237C38.1054 31.6663 38.54 31.6878 38.9818 31.6878C40.3331 31.6878 41.6477 31.4751 42.6832 31.0892C42.7666 31.058 42.8473 31.0255 42.9271 30.9916C42.9486 30.9828 42.9688 30.9741 42.9889 30.965C43.0472 30.9393 43.1049 30.915 43.1608 30.8884C43.186 30.877 43.2099 30.8646 43.2346 30.8522C43.2837 30.8284 43.3336 30.8045 43.3813 30.7798C43.4088 30.7651 43.4349 30.7509 43.4615 30.7362C43.4918 30.7193 43.522 30.7042 43.5509 30.6881L43.6293 30.6464C43.7228 30.5891 43.8103 30.5327 43.8883 30.4773C43.9717 30.4209 44.0537 30.3585 44.1395 30.2861C44.172 30.2591 44.205 30.2311 44.238 30.1999C44.2504 30.1894 44.2637 30.1757 44.2765 30.1637C44.2935 30.1482 44.3104 30.1321 44.3283 30.1142V31.9028C44.3283 32.4331 43.8392 32.859 43.4006 33.1331L43.3258 33.1748C43.159 33.2752 42.9743 33.3678 42.7657 33.4549L42.746 33.4626C41.7344 33.8954 40.3973 34.1337 38.9805 34.1337C37.2739 34.1337 35.6486 33.7743 34.6337 33.1734L34.5663 33.1331H34.5608C34.1222 32.859 33.6326 32.4336 33.6326 31.9028L33.6322 30.1147ZM33.6322 33.1299C33.7422 33.2399 33.8701 33.3471 34.0112 33.4498C34.031 33.4636 34.0507 33.4787 34.0713 33.4929C34.1543 33.5507 34.24 33.6084 34.333 33.6639L34.4087 33.7047H34.4105C35.5275 34.3409 37.1864 34.7048 38.9805 34.7048C40.472 34.7048 41.8898 34.45 42.9789 33.9857L42.9972 33.9774C43.1934 33.8954 43.3795 33.8037 43.5509 33.7047L43.6275 33.6639C43.7205 33.6084 43.8062 33.5507 43.8892 33.4929C43.9098 33.4787 43.93 33.464 43.9492 33.4498C44.0904 33.3467 44.2183 33.2399 44.3283 33.1299V34.9198C44.3283 35.4502 43.8392 35.8755 43.4006 36.1501L43.3254 36.1913C43.2002 36.2674 43.0623 36.3389 42.9032 36.4118C42.7795 36.4682 42.6772 36.5113 42.5764 36.5489C41.5904 36.9367 40.3134 37.1498 38.9805 37.1498C37.2707 37.1498 35.6453 36.7918 34.6337 36.19L34.5663 36.1501H34.5608C34.1222 35.8755 33.6326 35.4506 33.6326 34.9198L33.6322 33.1299ZM33.6322 37.9359V36.1464C33.7422 36.2569 33.8701 36.3632 34.0112 36.4659C34.031 36.481 34.0507 36.4948 34.0713 36.509C34.1543 36.5677 34.24 36.625 34.333 36.6809L34.4087 36.7217H34.4105C35.5239 37.3579 37.1827 37.7214 38.9805 37.7214C40.3831 37.7214 41.7348 37.494 42.7804 37.0824C42.8895 37.0421 43.0036 36.994 43.1411 36.9316C43.2915 36.8624 43.4267 36.7936 43.5509 36.7217L43.6275 36.6809C43.7205 36.625 43.8062 36.5677 43.8892 36.509C43.9098 36.4952 43.93 36.481 43.9492 36.4659C44.0904 36.3628 44.2183 36.2569 44.3283 36.1464V37.9359C44.3283 38.921 42.6896 39.7914 40.4881 40.071H37.4417C35.1123 39.7749 33.6322 38.8302 33.6322 37.9359ZM25.0766 20.6314C25.1252 20.6296 25.1738 20.6296 25.2242 20.6296C25.2274 20.6296 25.2311 20.6296 25.2343 20.6296C28.4333 20.6296 30.5821 21.7787 30.5821 22.8522C30.5821 23.2968 30.2274 23.7483 29.5815 24.1242C29.2593 24.3154 28.8788 24.4808 28.4503 24.6183C27.5143 24.9222 26.4018 25.0827 25.2339 25.0827C23.5246 25.0827 21.9006 24.7247 20.8866 24.1233C20.2422 23.7483 19.8878 23.2968 19.8878 22.8522C19.8883 21.8113 21.9702 20.6704 25.0766 20.6314ZM19.8883 24.0848C19.9364 24.1329 19.9882 24.1801 20.0428 24.2269C20.046 24.2296 20.0497 24.2324 20.0533 24.2351C20.1212 24.2933 20.1954 24.3497 20.2729 24.4052C20.2935 24.4199 20.3137 24.4341 20.3348 24.4487C20.4177 24.506 20.5044 24.562 20.5979 24.616C21.7099 25.2766 23.4004 25.6543 25.2343 25.6543C26.4614 25.6543 27.6344 25.4842 28.6254 25.1629C29.0934 25.0125 29.5137 24.8287 29.8708 24.6174C29.9638 24.5629 30.0504 24.507 30.1334 24.4497C30.1554 24.435 30.176 24.4199 30.1976 24.4052C30.2741 24.3497 30.3479 24.2938 30.4162 24.2361C30.4199 24.2328 30.424 24.2306 30.4268 24.2269C30.4818 24.1801 30.5331 24.1325 30.5821 24.0843V25.8692C30.5821 26.3996 30.0931 26.8254 29.6544 27.1L29.582 27.1398C29.3643 27.2687 29.1181 27.3869 28.849 27.4933C27.8553 27.8847 26.5709 28.0992 25.2343 28.0992C23.5241 28.0992 21.8996 27.7403 20.8894 27.1398L20.822 27.0995H20.8142C20.3765 26.8245 19.8878 26.3996 19.8878 25.8688L19.8883 24.0848ZM19.8883 27.0972C19.9979 27.2068 20.1248 27.3131 20.2651 27.4153C20.2848 27.4295 20.3054 27.4447 20.326 27.4589C20.4086 27.5171 20.4943 27.5748 20.5864 27.6303L20.6643 27.6711H20.6662C21.7773 28.3069 23.4361 28.6713 25.2343 28.6713C26.6411 28.6713 27.9988 28.4416 29.059 28.0245C29.3276 27.9191 29.5783 27.8008 29.8043 27.6711L29.8818 27.6303C29.9743 27.5748 30.061 27.5171 30.1435 27.4589C30.1637 27.4451 30.1834 27.43 30.2035 27.4158C30.3443 27.3131 30.4717 27.2063 30.5821 27.0963V28.8863C30.5821 29.4166 30.0931 29.842 29.6544 30.1165L29.582 30.1564C29.3684 30.2825 29.1332 30.3966 28.8843 30.4956C27.886 30.8953 26.5897 31.1162 25.2348 31.1162C23.5246 31.1162 21.9006 30.7582 20.8898 30.1569L20.8225 30.1165H20.8142C20.3769 29.842 19.8883 29.4161 19.8883 28.8863V27.0972ZM19.8883 30.1133C19.9351 30.1605 19.9846 30.2064 20.0368 30.2522C20.0373 30.2527 20.0377 30.2536 20.0386 30.254C20.1083 30.315 20.1853 30.3737 20.2646 30.4328C20.2848 30.4475 20.305 30.4617 20.326 30.4768C20.4086 30.535 20.4938 30.5919 20.5864 30.6473L20.6643 30.6886H20.6662C21.7777 31.3243 23.4361 31.6883 25.2343 31.6883C26.6603 31.6883 28.0322 31.4531 29.0952 31.0264C29.345 30.9283 29.5829 30.8142 29.8043 30.689L29.8818 30.6482C29.9743 30.5923 30.061 30.535 30.1435 30.4768C30.1637 30.4626 30.1834 30.4484 30.2035 30.4337C30.3443 30.3301 30.4717 30.2242 30.5821 30.1138V31.9037C30.5821 32.4341 30.0931 32.8599 29.6544 33.134L29.582 33.1743C29.3432 33.316 29.075 33.4429 28.784 33.5525C27.7971 33.9274 26.537 34.1346 25.2348 34.1346C23.5278 34.1346 21.9033 33.7757 20.8894 33.1748L20.8216 33.1331H20.8142C20.3765 32.8585 19.8878 32.4331 19.8878 31.9028L19.8883 30.1133ZM19.8883 33.1308C19.9351 33.1775 19.9846 33.2234 20.0368 33.2692C20.0373 33.2697 20.0377 33.2701 20.0386 33.2706C20.1083 33.3311 20.1853 33.3911 20.2646 33.4494C20.2848 33.4636 20.305 33.4787 20.326 33.4934C20.4086 33.5511 20.4938 33.6089 20.5864 33.6643L20.6643 33.7051H20.6666C21.7814 34.3414 23.4398 34.7053 25.2343 34.7053C26.6035 34.7053 27.9369 34.4857 28.9866 34.0865C29.2808 33.9751 29.5554 33.8472 29.8043 33.7051L29.8818 33.6643C29.9743 33.6089 30.061 33.5511 30.1435 33.4934C30.1637 33.4791 30.1834 33.4645 30.2035 33.4503C30.3443 33.3471 30.4717 33.2403 30.5821 33.1303V34.9203C30.5821 35.4506 30.0931 35.876 29.6544 36.1505L29.5811 36.1909C29.2281 36.4013 28.7977 36.5833 28.2995 36.7327C27.3965 37.0068 26.3372 37.1503 25.2343 37.1503C23.5241 37.1503 21.8996 36.7923 20.8894 36.1904L20.822 36.1505H20.8142C20.3765 35.876 19.8878 35.4506 19.8878 34.9203L19.8883 33.1308ZM19.8883 37.9359V36.1469C19.9351 36.1941 19.9846 36.2399 20.0368 36.2858C20.0373 36.2862 20.0377 36.2871 20.0386 36.2876C20.1083 36.3486 20.1853 36.4072 20.2646 36.4659C20.2848 36.481 20.305 36.4948 20.326 36.5099C20.4086 36.5686 20.4938 36.6254 20.5864 36.6809L20.6643 36.7221H20.6662C21.7773 37.3584 23.4361 37.7219 25.2343 37.7219C26.3917 37.7219 27.5092 37.5688 28.4645 37.2795C28.9751 37.1264 29.4261 36.9394 29.8047 36.7221L29.8818 36.6813C29.9743 36.6254 30.061 36.5681 30.1435 36.5095C30.1637 36.4957 30.1834 36.4815 30.2035 36.4664C30.3443 36.3632 30.4717 36.2574 30.5821 36.1469V37.9364C30.5821 38.8302 29.103 39.7754 26.7731 40.0715H23.7322C21.5229 39.791 19.8883 38.8953 19.8883 37.9359ZM9.82243 14.7115C10.3633 14.635 10.9244 14.596 11.4909 14.596C14.689 14.596 16.8369 15.7451 16.8369 16.8187C16.8369 17.2637 16.4826 17.7148 15.8354 18.0893C15.4714 18.3061 15.0218 18.494 14.4988 18.6476C13.6113 18.9102 12.5717 19.0486 11.4904 19.0486C9.77888 19.0486 8.15395 18.6902 7.14094 18.0874C6.5776 17.7611 6.23566 17.3751 6.15865 16.9855C6.14811 16.9296 6.14261 16.8741 6.14261 16.8182C6.14306 15.8992 7.69053 15.0127 9.82243 14.7115ZM6.14306 18.0508C6.19119 18.0989 6.24299 18.1461 6.29708 18.1924C6.30075 18.1956 6.30487 18.1984 6.30808 18.2011C6.37592 18.2589 6.44972 18.3148 6.52672 18.3698C6.54735 18.3845 6.56798 18.3987 6.58952 18.4133C6.67294 18.4706 6.75912 18.5266 6.85217 18.5806C7.96326 19.2416 9.6542 19.6207 11.4909 19.6207C12.6263 19.6207 13.7223 19.474 14.6606 19.1958C15.2294 19.0289 15.7231 18.8222 16.1255 18.5825C16.2186 18.5284 16.3047 18.4725 16.3882 18.4156C16.4097 18.401 16.4313 18.3863 16.4523 18.3707C16.5289 18.3162 16.6022 18.2607 16.6696 18.2034C16.6733 18.1993 16.6779 18.1961 16.682 18.1929C16.7365 18.1461 16.7883 18.0989 16.8369 18.0503V19.8352C16.8369 20.3665 16.3469 20.7914 15.9092 21.0655L15.8363 21.1058C15.6484 21.2172 15.4467 21.3176 15.2349 21.4042C14.2251 21.8305 12.8958 22.0652 11.4914 22.0652C9.7798 22.0652 8.15486 21.7067 7.14461 21.1054L7.07723 21.065H7.07173C6.79762 20.8936 6.5038 20.6635 6.32137 20.3853C6.21228 20.2184 6.14352 20.0341 6.14352 19.8348L6.14306 18.0508ZM6.14306 21.0623C6.19028 21.1099 6.2407 21.1567 6.29341 21.203C6.29387 21.203 6.29433 21.2035 6.29433 21.2039C6.36446 21.2644 6.44147 21.3235 6.52122 21.3822C6.54139 21.3969 6.56156 21.4116 6.58264 21.4262C6.66561 21.484 6.75087 21.5413 6.84346 21.5972L6.91909 21.638H6.92047C8.03202 22.2742 9.69087 22.6377 11.4904 22.6377C12.9696 22.6377 14.3782 22.387 15.4535 21.9323C15.6635 21.8466 15.8665 21.7475 16.0586 21.6375L16.1361 21.5967C16.2282 21.5413 16.3139 21.484 16.3969 21.4262C16.4175 21.4116 16.4381 21.3969 16.4583 21.3818C16.5376 21.324 16.6132 21.2653 16.6829 21.2048C16.6847 21.2039 16.6856 21.203 16.687 21.2021C16.7402 21.1558 16.7902 21.1095 16.8374 21.0618V22.8518C16.8374 22.987 16.8067 23.119 16.7448 23.2533C16.7283 23.2877 16.7099 23.3221 16.6893 23.3569C16.5458 23.5962 16.3029 23.8276 15.9646 24.0454L15.9055 24.083H15.8661L15.8147 24.1343C15.7607 24.1659 15.7061 24.1975 15.6497 24.2269C15.5759 24.2654 15.4985 24.3044 15.4173 24.3401L15.3385 24.3749C15.2734 24.4043 15.206 24.4322 15.1377 24.4597C15.0754 24.485 15.013 24.5097 14.948 24.5335C14.8865 24.5565 14.8228 24.5775 14.7582 24.5991C14.6908 24.6215 14.6234 24.6449 14.5538 24.666C14.4772 24.6889 14.3979 24.7105 14.3186 24.7316C14.2586 24.7476 14.1994 24.7646 14.138 24.7797C13.9945 24.8154 13.8474 24.848 13.6948 24.8782C13.4917 24.9172 13.2919 24.9502 13.1012 24.9768C12.0565 25.1175 10.9266 25.1175 9.88293 24.9768C9.68858 24.9497 9.49332 24.9181 9.28751 24.8787C8.53669 24.732 7.86059 24.507 7.32979 24.2269C7.27204 24.1971 7.21795 24.1655 7.16249 24.1329L7.11023 24.083H7.07494L7.01581 24.0458C6.74766 23.8735 6.53589 23.6888 6.38784 23.4972C6.22557 23.2872 6.14444 23.07 6.14444 22.8527V21.0623H6.14306ZM6.14306 24.0825C6.23749 24.1765 6.34429 24.2672 6.46072 24.3552C6.46301 24.3571 6.4653 24.3589 6.46759 24.3607C6.53818 24.4134 6.61106 24.4652 6.68853 24.5152L6.6899 24.5161L6.73207 24.5441C6.7527 24.5578 6.77379 24.5707 6.79533 24.5835L6.88288 24.6559H6.92092C6.96722 24.6821 7.01397 24.7077 7.0621 24.7325C7.06256 24.7325 7.06348 24.7329 7.06394 24.7334C7.0699 24.7361 7.07585 24.7393 7.08181 24.7426C7.57915 25.0043 8.19474 25.2216 8.87818 25.3765C8.97673 25.3994 9.07665 25.42 9.1775 25.4397C9.39156 25.481 9.60241 25.5158 9.80501 25.5438C10.3523 25.6176 10.9198 25.6547 11.4904 25.6547C12.0616 25.6547 12.6286 25.6176 13.1768 25.5438C13.378 25.5158 13.588 25.481 13.802 25.4397C14.4974 25.3041 15.1194 25.1106 15.6484 24.8649C15.696 24.8434 15.7428 24.8214 15.7877 24.7989L15.8157 24.7861V24.7847C15.8491 24.7682 15.8826 24.7513 15.9142 24.7338C15.9628 24.7082 16.0114 24.6821 16.0581 24.6559L16.1012 24.6555L16.1571 24.5995L16.1727 24.5908C16.1865 24.5826 16.1998 24.5739 16.2126 24.5656L16.2837 24.5244L16.2969 24.512C16.3006 24.5092 16.3043 24.506 16.3084 24.5037C16.385 24.4533 16.456 24.402 16.5248 24.3493C16.5582 24.3241 16.5917 24.2989 16.6229 24.2732C16.6806 24.2255 16.7338 24.1774 16.7856 24.1288C16.8016 24.1137 16.8204 24.0995 16.836 24.0839V25.8697C16.836 26.4 16.346 26.8259 15.9082 27.1004L15.8344 27.1412C15.6754 27.2361 15.492 27.3278 15.289 27.4144C14.2741 27.8563 12.9252 28.0992 11.4909 28.0992C9.77934 28.0992 8.15441 27.7403 7.14415 27.1398L7.07677 27.0995H7.07127C6.63261 26.8249 6.14306 26.3996 6.14306 25.8688V24.0825ZM6.14306 27.0963C6.19028 27.144 6.24024 27.1903 6.29341 27.2366C6.29387 27.237 6.29433 27.2375 6.29479 27.2379C6.36538 27.2984 6.44192 27.3585 6.52214 27.4162C6.54185 27.4305 6.56156 27.4451 6.58173 27.4593C6.66469 27.5175 6.75087 27.5753 6.84346 27.6308L6.91909 27.6716H6.92047C8.03202 28.3073 9.69133 28.6717 11.4904 28.6717C13.0012 28.6717 14.4314 28.4118 15.5145 27.9397C15.7116 27.8554 15.894 27.7655 16.0591 27.6716L16.1361 27.6308C16.2287 27.5753 16.3148 27.5175 16.3978 27.4593C16.418 27.4456 16.4377 27.4305 16.4574 27.4162C16.5381 27.358 16.6151 27.298 16.6856 27.237C16.7384 27.1907 16.7888 27.144 16.836 27.0968V28.8863C16.836 29.4166 16.346 29.842 15.9082 30.1165L15.8358 30.1564C15.5746 30.3113 15.2775 30.4493 14.9516 30.5666C13.9858 30.9214 12.7565 31.1162 11.4904 31.1162C9.77934 31.1162 8.15441 30.7582 7.14369 30.1569L7.07631 30.1165H7.07081C6.63215 29.842 6.14261 29.417 6.14261 28.8863L6.14306 27.0963ZM6.14306 30.1129C6.19028 30.1605 6.24024 30.2073 6.29341 30.2536C6.29387 30.254 6.29433 30.2545 6.29479 30.2545C6.36538 30.3159 6.44192 30.3746 6.52214 30.4337C6.54185 30.4479 6.56156 30.4621 6.58173 30.4763C6.66469 30.5346 6.75087 30.5919 6.84346 30.6478L6.91909 30.6886H6.92047C8.03248 31.3243 9.69133 31.6883 11.4904 31.6883C12.8225 31.6883 14.1215 31.4811 15.1473 31.1043C15.4774 30.9842 15.7836 30.8458 16.0586 30.689L16.1361 30.6482C16.2287 30.5923 16.3144 30.5355 16.3973 30.4773C16.4175 30.4626 16.4377 30.4484 16.4574 30.4337C16.5376 30.375 16.6141 30.3159 16.6847 30.255C16.6847 30.255 16.6852 30.2545 16.6856 30.254C16.7384 30.2077 16.7888 30.161 16.836 30.1133V31.9033C16.836 32.4341 16.346 32.8594 15.9082 33.1335L15.8354 33.1743C15.4604 33.3966 15.0085 33.585 14.4891 33.734C13.6013 33.9957 12.5644 34.1342 11.49 34.1342C9.78209 34.1342 8.1567 33.7753 7.14323 33.1743L7.07585 33.1335H7.07081C6.63215 32.8594 6.14261 32.4345 6.14261 31.9033L6.14306 30.1129ZM6.14306 33.1299C6.19028 33.1775 6.24024 33.2238 6.29341 33.2701C6.29387 33.2706 6.29433 33.271 6.29479 33.2715C6.36538 33.332 6.44192 33.3916 6.52214 33.4503C6.54185 33.464 6.56156 33.4791 6.58173 33.4934C6.66469 33.5511 6.75087 33.6089 6.84346 33.6643L6.91909 33.7051H6.92092C8.03569 34.3414 9.695 34.7053 11.4909 34.7053C12.619 34.7053 13.7122 34.5586 14.6496 34.2822C15.1831 34.1296 15.6571 33.9352 16.0595 33.7051L16.137 33.6643C16.2296 33.6089 16.3153 33.5511 16.3982 33.4934C16.4184 33.4791 16.4386 33.4645 16.4583 33.4503C16.5385 33.3916 16.6151 33.3316 16.6856 33.271C16.6856 33.271 16.6861 33.2706 16.6866 33.2701C16.7393 33.2238 16.7897 33.1775 16.8369 33.1303V34.9198C16.8369 35.4502 16.3469 35.8755 15.9092 36.1501L15.8363 36.19C15.3 36.509 14.5858 36.7648 13.7722 36.9289C13.0608 37.0755 12.2935 37.1493 11.4909 37.1493C9.77934 37.1493 8.15441 36.7914 7.14415 36.1895L7.07677 36.1496H7.07127C6.63261 35.8751 6.14306 35.4502 6.14306 34.9194V33.1299ZM6.14306 37.9359V36.1464C6.19028 36.1941 6.24024 36.2408 6.29341 36.2871C6.29387 36.2876 6.29433 36.2876 6.29479 36.2881C6.36538 36.3495 6.44192 36.4082 6.52214 36.4668C6.54185 36.4815 6.56156 36.4957 6.58173 36.5095C6.66469 36.5681 6.75087 36.6254 6.84346 36.6813L6.91909 36.7221H6.92047C8.03202 37.3584 9.69087 37.7219 11.4904 37.7219C12.3316 37.7219 13.1378 37.6439 13.8859 37.4899C14.727 37.3189 15.4765 37.0549 16.0586 36.7221L16.1361 36.6813C16.2287 36.6254 16.3144 36.5686 16.3973 36.5099C16.4175 36.4957 16.4377 36.481 16.4574 36.4664C16.5376 36.4082 16.6141 36.349 16.6847 36.2881C16.6847 36.2876 16.6852 36.2876 16.6856 36.2871C16.7384 36.2408 16.7888 36.1941 16.836 36.1464V37.9359C16.836 38.827 15.3545 39.7744 13.0232 40.071H9.95123C7.62224 39.7749 6.14306 38.8302 6.14306 37.9359Z" fill="black"/>
</svg>
