<svg width="50" height="50" viewBox="0 0 50 50" fill="none" xmlns="http://www.w3.org/2000/svg">
<path d="M43.4588 20.7994L41.001 20.0809C40.8877 20.0455 40.7847 19.9832 40.7007 19.8994C40.6166 19.8156 40.5541 19.7128 40.5183 19.5996C40.3097 19.002 40.0667 18.4169 39.7904 17.8474C39.7358 17.7422 39.7073 17.6253 39.7074 17.5067C39.7075 17.3881 39.7362 17.2713 39.7911 17.1662L41.0227 14.9177C41.2432 14.5107 41.3269 14.0436 41.2612 13.5854C41.1955 13.1272 40.9839 12.7023 40.6578 12.3737L37.6266 9.34221C37.298 9.01603 36.873 8.80442 36.4146 8.73877C35.9563 8.67312 35.4889 8.75692 35.082 8.97775L32.8341 10.2086C32.7291 10.2637 32.6123 10.2925 32.4937 10.2928C32.3751 10.293 32.2582 10.2646 32.153 10.21C31.5834 9.93351 30.9982 9.69035 30.4004 9.48175C30.2877 9.44644 30.1852 9.38447 30.1016 9.30111C30.018 9.21774 29.9558 9.11544 29.9201 9.00289L29.2725 6.78784C29.1725 6.29279 28.9075 5.84632 28.5207 5.52153C28.134 5.19674 27.6484 5.01286 27.1436 5H22.8564C22.3935 5.00185 21.9434 5.15274 21.5729 5.43033C21.2025 5.70792 20.9312 6.09744 20.7994 6.54122L20.0809 8.99902C20.0455 9.11227 19.9832 9.21529 19.8994 9.29933C19.8156 9.38336 19.7128 9.44593 19.5996 9.48172C19.002 9.69029 18.4169 9.93333 17.8474 10.2096C17.7421 10.2642 17.6253 10.2926 17.5067 10.2925C17.3881 10.2924 17.2714 10.2637 17.1662 10.2089L14.9177 8.9774C14.5106 8.75711 14.0434 8.67364 13.5853 8.73934C13.1271 8.80504 12.7022 9.01641 12.3734 9.34221L9.34221 12.3734C9.01611 12.7021 8.80456 13.1271 8.73892 13.5854C8.67327 14.0437 8.75702 14.511 8.97775 14.918L10.2086 17.1659C10.2636 17.2709 10.2924 17.3877 10.2927 17.5063C10.2929 17.6249 10.2646 17.7418 10.21 17.847C9.93351 18.4166 9.69035 19.0018 9.48175 19.5996C9.44644 19.7123 9.38447 19.8148 9.30111 19.8984C9.21774 19.982 9.11544 20.0442 9.00289 20.0799L6.78784 20.7276C6.29279 20.8275 5.84632 21.0925 5.52153 21.4793C5.19674 21.866 5.01286 22.3516 5 22.8564V27.1436C5.00185 27.6065 5.15274 28.0566 5.43033 28.4271C5.70792 28.7975 6.09744 29.0688 6.54122 29.2006L8.99902 29.9191C9.11227 29.9546 9.21529 30.0168 9.29933 30.1006C9.38336 30.1844 9.44593 30.2873 9.48172 30.4004C9.69029 30.9981 9.93333 31.5831 10.2096 32.1526C10.2643 32.2579 10.2928 32.3747 10.2926 32.4933C10.2925 32.6119 10.2638 32.7287 10.2089 32.8338L8.9774 35.0823C8.75681 35.4893 8.67317 35.9564 8.73888 36.4146C8.80459 36.8729 9.01615 37.2977 9.34221 37.6263L12.3734 40.6578C12.7022 40.9837 13.1272 41.1951 13.5855 41.2608C14.0437 41.3264 14.511 41.2428 14.918 41.0222L17.1659 39.7914C17.2709 39.7364 17.3877 39.7075 17.5063 39.7072C17.6249 39.707 17.7418 39.7354 17.847 39.79C18.4166 40.0665 19.0018 40.3097 19.5996 40.5183C19.7123 40.5536 19.8148 40.6155 19.8984 40.6989C19.982 40.7823 20.0442 40.8846 20.0799 40.9971L20.7276 43.2122C20.8275 43.7072 21.0925 44.1537 21.4793 44.4785C21.866 44.8033 22.3516 44.9871 22.8564 45H27.1436C27.6065 44.9982 28.0566 44.8473 28.4271 44.5697C28.7975 44.2921 29.0688 43.9026 29.2006 43.4588L29.9191 41.001C29.9546 40.8877 30.0168 40.7847 30.1006 40.7007C30.1844 40.6166 30.2873 40.5541 30.4004 40.5183C30.9981 40.3097 31.5831 40.0667 32.1526 39.7904C32.2578 39.7355 32.3747 39.7069 32.4933 39.707C32.6119 39.7071 32.7288 39.736 32.8338 39.7911L35.0823 41.0227C35.4892 41.2434 35.9565 41.3271 36.4147 41.2614C36.8729 41.1956 37.2978 40.984 37.6263 40.6578L40.6578 37.6267C40.9839 37.298 41.1955 36.873 41.2611 36.4146C41.3267 35.9563 41.243 35.489 41.0223 35.082L39.7915 32.8342C39.7364 32.7291 39.7076 32.6123 39.7074 32.4938C39.7071 32.3752 39.7355 32.2583 39.79 32.153C40.0665 31.5834 40.3097 30.9982 40.5183 30.4004C40.5536 30.2878 40.6155 30.1853 40.6989 30.1017C40.7823 30.0181 40.8846 29.9558 40.9971 29.9202L43.2122 29.2725C43.7072 29.1726 44.1537 28.9075 44.4785 28.5208C44.8033 28.134 44.9871 27.6485 45 27.1436V22.8564C44.9981 22.3935 44.8473 21.9434 44.5697 21.573C44.2921 21.2025 43.9026 20.9312 43.4588 20.7994ZM43.5714 27.1436C43.5714 27.5862 43.1581 27.8 42.8111 27.9011L40.5957 28.5491C40.2653 28.6495 39.9636 28.8271 39.7156 29.0673C39.4675 29.3075 39.2802 29.6033 39.1692 29.9303C38.8151 31.0867 37.8125 32.3136 38.5384 33.5202L39.7691 35.768C39.8427 35.9037 39.8706 36.0594 39.8488 36.2122C39.8269 36.365 39.7564 36.5067 39.6477 36.6162L36.6159 39.6478C36.5064 39.7564 36.3649 39.8268 36.2122 39.8488C36.0596 39.8707 35.904 39.8429 35.7683 39.7695L33.5198 38.538C32.3115 37.8108 31.0876 38.815 29.9302 39.1693C29.6027 39.2808 29.3065 39.4688 29.0661 39.7176C28.8257 39.9663 28.648 40.2688 28.5477 40.5999L27.8292 43.0577C27.7853 43.2057 27.6949 43.3355 27.5714 43.428C27.4479 43.5206 27.2979 43.5708 27.1436 43.5714H22.8564C22.4138 43.5714 22.2 43.1581 22.0989 42.8111L21.4509 40.5957C21.109 39.2309 19.5421 39.0776 18.4703 38.5048C18.1597 38.3518 17.8172 38.275 17.471 38.2808C17.1248 38.2866 16.7851 38.3749 16.4798 38.5383L14.232 39.7691C14.0963 39.8427 13.9406 39.8706 13.7878 39.8488C13.635 39.8269 13.4934 39.7564 13.3838 39.6478L10.3522 36.6159C10.2436 36.5064 10.1731 36.3649 10.1512 36.2123C10.1293 36.0596 10.1571 35.904 10.2305 35.7684L11.462 33.5198C12.1885 32.3124 11.1852 31.0872 10.8307 29.9302C10.7192 29.6027 10.5313 29.3065 10.2825 29.0661C10.0337 28.8257 9.73122 28.648 9.4001 28.5477L6.94231 27.8292C6.79437 27.7853 6.6645 27.6949 6.57197 27.5714C6.47943 27.4479 6.42915 27.2979 6.42857 27.1436V22.8564C6.42857 22.4138 6.84186 22.2 7.18889 22.0989L9.4043 21.4509C10.769 21.109 10.9225 19.542 11.4952 18.4702C11.6483 18.1597 11.7251 17.8172 11.7193 17.471C11.7134 17.1248 11.6252 16.785 11.4617 16.4798L10.2309 14.232C10.1573 14.0963 10.1294 13.9406 10.1512 13.7878C10.1731 13.635 10.2436 13.4933 10.3523 13.3838L13.3838 10.3522C13.4935 10.2438 13.635 10.1735 13.7876 10.1516C13.9403 10.1297 14.0959 10.1573 14.2316 10.2305L16.4802 11.462C17.6878 12.1881 18.9129 11.1853 20.0697 10.8307C20.3972 10.7192 20.6935 10.5312 20.9339 10.2825C21.1743 10.0337 21.352 9.7312 21.4523 9.40009L22.1707 6.94229C22.2147 6.79434 22.3051 6.66448 22.4286 6.57195C22.5521 6.47942 22.7021 6.42914 22.8564 6.42857H27.1436C27.5862 6.42857 27.8 6.84186 27.9011 7.18889L28.5491 9.4043C28.8909 10.7691 30.458 10.9224 31.5298 11.4952C31.8404 11.6479 32.1829 11.7246 32.529 11.7187C32.8751 11.7129 33.2149 11.6248 33.5202 11.4617L35.768 10.2309C35.9037 10.1572 36.0594 10.1291 36.2122 10.151C36.3651 10.1729 36.5067 10.2435 36.6162 10.3523L39.6478 13.3841C39.7564 13.4936 39.8269 13.6351 39.8488 13.7878C39.8708 13.9404 39.8429 14.0961 39.7695 14.2317L38.538 16.4802C38.3746 16.7855 38.2865 17.1253 38.2808 17.4714C38.2751 17.8176 38.352 18.1602 38.5052 18.4706C39.0779 19.5438 39.2336 21.1098 40.6 21.4523L43.0577 22.1708C43.2057 22.2147 43.3355 22.3051 43.428 22.4286C43.5206 22.5521 43.5709 22.7021 43.5714 22.8564V27.1436Z" fill="black"/>
<path d="M24.9999 11.7861C10.0013 12.0829 6.8077 32.557 20.773 37.5089C23.5137 38.4423 26.4863 38.4423 29.227 37.5089C43.1931 32.558 39.9959 12.0791 24.9999 11.7861ZM23.9285 22.1433C23.9326 21.8618 24.0473 21.5933 24.2478 21.3957C24.4483 21.1981 24.7185 21.0874 24.9999 21.0874C25.2814 21.0874 25.5516 21.1982 25.7521 21.3958C25.9526 21.5933 26.0672 21.8619 26.0714 22.1433C26.0672 22.4248 25.9525 22.6933 25.7521 22.8909C25.5516 23.0884 25.2814 23.1992 24.9999 23.1992C24.7184 23.1992 24.4482 23.0884 24.2478 22.8908C24.0473 22.6933 23.9326 22.4247 23.9285 22.1433ZM29.6428 35.8297V28.5718H31.4285C31.6179 28.5718 31.7996 28.4966 31.9336 28.3626C32.0675 28.2287 32.1428 28.047 32.1428 27.8576V24.5267C32.7183 24.3551 33.2127 23.9821 33.5358 23.476C33.8589 22.9698 33.989 22.3642 33.9023 21.77C33.8156 21.1758 33.5179 20.6326 33.0637 20.2398C32.6094 19.8471 32.029 19.6309 31.4285 19.6309C30.828 19.6309 30.2475 19.8471 29.7933 20.2398C29.3391 20.6326 29.0414 21.1758 28.9547 21.77C28.868 22.3642 28.9981 22.9698 29.3212 23.476C29.6442 23.9821 30.1387 24.3551 30.7142 24.5267V27.1433H28.9285C28.7391 27.1433 28.5574 27.2185 28.4234 27.3525C28.2895 27.4864 28.2142 27.6681 28.2142 27.8576V36.3292C27.3986 36.5595 26.5603 36.7006 25.7142 36.75V24.5267C26.288 24.3552 26.781 23.9829 27.1029 23.4779C27.4249 22.9729 27.5543 22.3689 27.4677 21.7763C27.381 21.1837 27.0839 20.6421 26.6309 20.2504C26.1778 19.8588 25.5989 19.6433 25 19.6433C24.4011 19.6433 23.8222 19.8588 23.3691 20.2504C22.916 20.6421 22.6189 21.1837 22.5323 21.7763C22.4456 22.3689 22.5751 22.9729 22.897 23.4779C23.219 23.9829 23.7119 24.3552 24.2857 24.5267L24.2856 36.7499C23.4395 36.7006 22.6013 36.5595 21.7856 36.3292V27.8576C21.7856 27.6681 21.7104 27.4864 21.5764 27.3525C21.4425 27.2185 21.2608 27.1433 21.0714 27.1433H19.2856V24.5267C19.8595 24.3552 20.3524 23.9829 20.6743 23.4779C20.9963 22.9729 21.1258 22.3689 21.0391 21.7763C20.9524 21.1837 20.6554 20.6421 20.2023 20.2504C19.7492 19.8588 19.1703 19.6433 18.5714 19.6433C17.9725 19.6433 17.3936 19.8588 16.9405 20.2504C16.4874 20.6421 16.1904 21.1837 16.1037 21.7763C16.017 22.3689 16.1465 22.9729 16.4684 23.4779C16.7904 23.9829 17.2833 24.3552 17.8571 24.5267L17.8571 27.8576C17.8571 28.047 17.9323 28.2287 18.0663 28.3626C18.2002 28.4966 18.3819 28.5718 18.5714 28.5718H20.3571V35.8297C8.75421 30.6992 12.1429 13.4193 25.0001 13.2147C37.8589 13.421 41.2446 30.7003 29.6428 35.8297ZM30.3571 22.1433C30.3612 21.8618 30.4759 21.5933 30.6764 21.3957C30.8769 21.1981 31.147 21.0874 31.4285 21.0874C31.71 21.0874 31.9802 21.1982 32.1807 21.3958C32.3811 21.5933 32.4958 21.8619 32.4999 22.1433C32.4958 22.4248 32.3811 22.6933 32.1806 22.8909C31.9801 23.0884 31.71 23.1992 31.4285 23.1992C31.147 23.1992 30.8768 23.0884 30.6763 22.8908C30.4759 22.6933 30.3612 22.4247 30.3571 22.1433ZM18.5714 23.2147C18.2899 23.2106 18.0214 23.0959 17.8238 22.8954C17.6262 22.6949 17.5155 22.4247 17.5155 22.1433C17.5155 21.8618 17.6262 21.5916 17.8238 21.3911C18.0214 21.1906 18.2899 21.076 18.5714 21.0718C18.8528 21.076 19.1214 21.1907 19.3189 21.3911C19.5165 21.5916 19.6273 21.8618 19.6273 22.1433C19.6273 22.4248 19.5165 22.695 19.3189 22.8954C19.1213 23.0959 18.8528 23.2106 18.5714 23.2147Z" fill="black"/>
</svg>
