<svg width="41" height="42" viewBox="0 0 41 42" fill="none" xmlns="http://www.w3.org/2000/svg">
<g clip-path="url(#clip0_7129_7085)">
<path d="M8.79182 1.52051H33.207C33.9758 1.52051 34.674 1.83453 35.1799 2.34041C35.6857 2.84629 35.9999 3.5448 35.9999 4.3133V38.6858C35.9999 39.4543 35.6857 40.1526 35.1799 40.6587C34.674 41.1644 33.9758 41.4784 33.207 41.4784H8.79182C8.02316 41.4784 7.32481 41.1644 6.81908 40.6587C6.31304 40.1526 5.99902 39.4543 5.99902 38.6858V4.3133C5.99902 3.5448 6.31304 2.84629 6.81908 2.34041C7.32481 1.83453 8.02316 1.52051 8.79182 1.52051ZM20.7176 19.2215C20.7176 19.1832 20.7269 19.1472 20.7436 19.1155C20.5093 19.0763 20.2965 18.9923 20.1108 18.8834C19.7522 18.6733 19.4931 18.3659 19.3755 18.1116C19.3467 18.0493 19.3253 17.9887 19.3121 17.9321C19.2834 17.8092 19.3598 17.6864 19.4827 17.6578C19.6055 17.6291 19.7284 17.7055 19.7571 17.8284C19.7634 17.8559 19.7746 17.8868 19.79 17.9204C19.8751 18.1045 20.0687 18.3305 20.3414 18.4903C20.6119 18.6488 20.9597 18.7374 21.3542 18.6448C21.4573 18.6207 21.5639 18.5843 21.673 18.5338C21.9607 18.4008 22.1435 18.1969 22.2376 17.968C22.3175 17.7734 22.3355 17.558 22.3008 17.3509C22.2661 17.142 22.1782 16.9428 22.0471 16.7822C21.8926 16.5928 21.6763 16.4574 21.416 16.4258V16.425L20.5375 16.2875L20.529 16.2865C20.1425 16.2396 19.8238 16.0413 19.5976 15.7639C19.4161 15.5417 19.2948 15.2681 19.2473 14.9826C19.1994 14.6952 19.2256 14.3937 19.3392 14.1171C19.475 13.787 19.7327 13.4956 20.1343 13.31C20.2731 13.2458 20.4089 13.1994 20.5407 13.1684C20.602 13.1541 20.6626 13.143 20.7222 13.135V12.4181C20.7222 12.2916 20.8247 12.1893 20.951 12.1893C21.0772 12.1893 21.1797 12.2916 21.1797 12.4181V13.132C21.4437 13.1645 21.6823 13.2546 21.8877 13.3749C22.2463 13.5851 22.5054 13.8924 22.6231 14.1468C22.6519 14.2092 22.6733 14.2697 22.6866 14.3263C22.7151 14.4491 22.6387 14.572 22.5159 14.6007C22.393 14.6292 22.27 14.5528 22.2415 14.43C22.2351 14.4026 22.224 14.3714 22.2084 14.338C22.1233 14.1538 21.9298 13.9278 21.6571 13.7681C21.4608 13.6531 21.224 13.5749 20.9583 13.5759L20.951 13.5761H20.9467C20.8497 13.5773 20.7486 13.5891 20.6444 13.6135C20.5412 13.6377 20.4346 13.6742 20.3255 13.7246C20.0379 13.8575 19.855 14.0615 19.7611 14.2905C19.681 14.4851 19.6632 14.7003 19.6976 14.9075C19.7324 15.1165 19.8202 15.3156 19.9514 15.4762C20.1061 15.6657 20.3222 15.8011 20.5825 15.8327C20.5913 15.8337 20.6 15.8353 20.6084 15.8372L21.4695 15.9724V15.9718C21.856 16.0187 22.1747 16.2171 22.401 16.4944C22.5824 16.7166 22.7036 16.9902 22.7512 17.2757C22.7991 17.5631 22.773 17.8647 22.6593 18.1412C22.5237 18.4714 22.2659 18.7627 21.8642 18.9483C21.7254 19.0125 21.5897 19.059 21.4578 19.0899C21.3556 19.1138 21.2557 19.1286 21.1582 19.1353C21.1691 19.1618 21.1752 19.191 21.1752 19.2215V20.2403C21.1752 20.3665 21.0727 20.469 20.9464 20.469C20.82 20.469 20.7176 20.3665 20.7176 20.2403V19.2215ZM23.5316 13.6675C23.4139 13.5477 23.4156 13.3551 23.5353 13.2374C23.655 13.1196 23.8476 13.1212 23.9654 13.241C24.0166 13.2929 24.0689 13.3489 24.1221 13.4089C24.1714 13.4646 24.2208 13.5235 24.2701 13.5857C24.3741 13.7173 24.3517 13.9083 24.2201 14.0123C24.0884 14.1161 23.8975 14.0939 23.7935 13.9623C23.7543 13.9127 23.712 13.8625 23.667 13.8116C23.6257 13.7651 23.5804 13.7169 23.5316 13.6675ZM24.2251 14.6589C24.1533 14.507 24.2184 14.3257 24.3704 14.2539C24.5223 14.1822 24.7037 14.2473 24.7755 14.3992C24.9035 14.6713 25.0034 14.9611 25.0708 15.2644C25.1368 15.5606 25.1716 15.865 25.1716 16.1738C25.1716 16.7329 25.0604 17.2683 24.8588 17.7586C24.6501 18.2663 24.344 18.7238 23.9641 19.1079C23.8458 19.227 23.6532 19.2274 23.5341 19.1091C23.4149 18.9906 23.4145 18.7979 23.5328 18.6788C23.8572 18.3511 24.1183 17.9607 24.2965 17.5275C24.4673 17.1119 24.5615 16.6549 24.5615 16.1738C24.5615 15.903 24.5324 15.6425 24.4773 15.3954C24.4205 15.1398 24.3352 14.893 24.2251 14.6589ZM18.4659 18.6788C18.5844 18.7979 18.5838 18.9906 18.4649 19.1091C18.3458 19.2274 18.1531 19.227 18.0348 19.1079C17.9793 19.0517 17.9296 18.9993 17.8861 18.9503L17.8711 18.9322C17.8251 18.8803 17.7836 18.8312 17.7464 18.785C17.6412 18.6541 17.6621 18.4626 17.7929 18.3572C17.9239 18.252 18.1155 18.2727 18.2207 18.4037C18.2579 18.4499 18.293 18.4919 18.3258 18.5292L18.3412 18.5452C18.3862 18.5959 18.428 18.6404 18.4659 18.6788ZM17.8088 17.7596C17.8838 17.9103 17.8225 18.0933 17.6718 18.1684C17.5211 18.2434 17.3381 18.182 17.2631 18.0314C17.122 17.7478 17.0117 17.4452 16.9375 17.1284C16.8655 16.8208 16.8272 16.5011 16.8272 16.1738C16.8272 15.6147 16.9384 15.0794 17.14 14.5891C17.3488 14.0812 17.6547 13.6237 18.0348 13.2398C18.1531 13.1207 18.3458 13.1202 18.4649 13.2386C18.5838 13.3571 18.5844 13.5497 18.4659 13.6687C18.1417 13.9966 17.8804 14.387 17.7025 14.8201C17.5315 15.2357 17.4374 15.6928 17.4374 16.1738C17.4374 16.4558 17.4697 16.7291 17.5309 16.9901C17.594 17.2593 17.688 17.5172 17.8088 17.7596ZM20.9995 9.57297C22.8221 9.57297 24.4723 10.3119 25.6668 11.5064C26.8614 12.701 27.6003 14.3512 27.6003 16.1738C27.6003 17.9965 26.8614 19.6467 25.6668 20.8411C24.4723 22.0358 22.8221 22.7745 20.9995 22.7745C19.1768 22.7745 17.5265 22.0358 16.332 20.8411C15.1375 19.6467 14.3986 17.9965 14.3986 16.1738C14.3986 14.3512 15.1375 12.701 16.332 11.5064C17.5265 10.3119 19.1768 9.57297 20.9995 9.57297ZM25.2356 11.9377C24.1516 10.8536 22.6538 10.1832 20.9995 10.1832C19.345 10.1832 17.8474 10.8536 16.7633 11.9377C15.6792 13.0217 15.0087 14.5195 15.0087 16.1738C15.0087 17.8281 15.6792 19.3259 16.7633 20.41C17.8474 21.4939 19.345 22.1645 20.9995 22.1645C22.6538 22.1645 24.1516 21.4939 25.2356 20.41C26.3195 19.3259 26.9901 17.8281 26.9901 16.1738C26.9901 14.5195 26.3197 13.0217 25.2356 11.9377ZM15.9458 22.3586C16.3727 22.708 16.824 23.0054 17.2919 23.2502C17.7702 23.5003 18.2744 23.7004 18.7957 23.8496C19.0226 23.9143 19.1606 24.1395 19.121 24.3671L18.943 26.349L21.2098 26.5527L21.3908 24.5354C21.41 24.3132 21.5857 24.1421 21.8 24.1212V24.1208C22.3329 24.0677 22.8648 23.9599 23.3869 23.7968C23.8976 23.6373 24.3951 23.4256 24.8704 23.1616C25.0648 23.0535 25.3043 23.1027 25.4418 23.2675L25.4423 23.267L26.7403 24.8212L28.4854 23.3638L27.1879 21.8104C27.0447 21.6392 27.0482 21.3943 27.1846 21.2279C27.5338 20.8009 27.8314 20.3493 28.076 19.8814C28.3261 19.4033 28.5262 18.8989 28.6751 18.3776C28.7397 18.1505 28.9652 18.0127 29.1925 18.0523L31.1746 18.2303L31.3782 15.9634L29.3608 15.7822C29.1386 15.763 28.9674 15.5871 28.9465 15.3728H28.9461C28.8929 14.8403 28.7852 14.3089 28.6223 13.7873C28.4626 13.2763 28.2509 12.7786 27.9868 12.3031C27.8787 12.1086 27.9281 11.8692 28.0928 11.7316L28.0923 11.7312L29.6467 10.433L28.1895 8.6878L26.6358 9.98521C26.4649 10.1283 26.2199 10.1249 26.0536 9.98842C25.6264 9.63932 25.1749 9.34177 24.707 9.09714C24.2287 8.84702 23.7245 8.64708 23.2033 8.49792C22.9762 8.43341 22.8383 8.20815 22.8778 7.9806L23.0559 5.99856L20.789 5.79495L20.6078 7.81253C20.5884 8.03474 20.4128 8.20586 20.1985 8.2266V8.22706C19.6661 8.28013 19.1346 8.38796 18.6131 8.55084C18.1019 8.71067 17.6042 8.92221 17.1287 9.18636C16.9343 9.29449 16.6948 9.24523 16.5573 9.08051L16.5568 9.08082L15.2586 7.52642L13.5136 8.98367L14.811 10.5373C14.9541 10.7083 14.9505 10.9534 14.8142 11.1196C14.4649 11.5468 14.1676 11.9982 13.9228 12.4663C13.6727 12.9444 13.4727 13.4486 13.3237 13.97C13.2592 14.197 13.0338 14.3348 12.8062 14.2953L10.8243 14.1174L10.6207 16.3841L12.6382 16.5655C12.8604 16.5847 13.0315 16.7605 13.0522 16.9748L13.0527 16.9747C13.1059 17.5072 13.2136 18.0386 13.3766 18.5602C13.5363 19.0714 13.748 19.569 14.012 20.0446C14.1201 20.239 14.0709 20.4785 13.9061 20.616L13.9066 20.6165L12.3521 21.9147L13.8095 23.6597L15.3632 22.3621C15.5342 22.2189 15.7793 22.2224 15.9458 22.3586ZM16.8702 24.0581C16.4499 23.8382 16.0468 23.5853 15.6654 23.2999L14.0446 24.6535C13.8512 24.8153 13.5631 24.7897 13.4013 24.5963L11.3583 22.15C11.1965 21.9566 11.2221 21.6684 11.4156 21.5066L13.0376 20.1519C12.8222 19.7217 12.6446 19.2802 12.5044 18.8318C12.3621 18.3763 12.2575 17.9108 12.1904 17.4401L10.0868 17.2512C9.83622 17.2295 9.65046 17.0085 9.67212 16.758L9.95746 13.5834C9.97912 13.3327 10.2 13.1471 10.4507 13.1687L12.5563 13.358C12.7053 12.9108 12.8916 12.4715 13.1149 12.0446C13.3348 11.6241 13.5877 11.2209 13.8731 10.8394L12.5198 9.21899C12.358 9.02561 12.3836 8.73751 12.577 8.57555L15.0233 6.53265C15.2167 6.37084 15.5048 6.39646 15.6667 6.58984L17.0214 8.21196C17.4516 7.99646 17.8931 7.81878 18.3413 7.67878C18.797 7.53633 19.2625 7.43186 19.733 7.36476L19.922 5.26101C19.9438 5.01043 20.1646 4.82467 20.4153 4.84648L23.5897 5.13168C23.8405 5.15334 24.0261 5.37417 24.0044 5.6249L23.8153 7.73063C24.2623 7.87964 24.7017 8.06601 25.1287 8.28928C25.549 8.50905 25.9523 8.76192 26.3337 9.04742L27.9542 7.69418C28.1475 7.53237 28.4356 7.55799 28.5976 7.75137L30.6405 10.1977C30.8023 10.391 30.7767 10.6791 30.5833 10.841L28.9612 12.1957C29.1767 12.6258 29.3544 13.0675 29.4944 13.5157C29.6368 13.9713 29.7413 14.4369 29.8084 14.9074L31.912 15.0965C32.1627 15.1181 32.3483 15.339 32.3267 15.5897L32.0415 18.7642C32.0198 19.0148 31.799 19.2006 31.5482 19.1788L29.4425 18.9897C29.2935 19.4367 29.1073 19.8762 28.8839 20.3031C28.6641 20.7234 28.4112 21.1267 28.1257 21.5082L29.479 23.1287C29.6408 23.3221 29.6153 23.6102 29.4218 23.772L26.9755 25.8149C26.7821 25.9768 26.494 25.9512 26.3322 25.7577L24.9779 24.136C24.548 24.3515 24.1066 24.529 23.6585 24.669C23.2025 24.8115 22.7364 24.916 22.2655 24.9831L22.0768 27.0865C22.0552 27.3372 21.8342 27.5228 21.5836 27.5012L18.4091 27.216C18.1585 27.1943 17.9727 26.9733 17.9944 26.7228L18.1836 24.6169C17.7365 24.4679 17.2971 24.2814 16.8702 24.0581ZM8.95104 28.9853C8.82461 28.9853 8.72227 28.8829 8.72227 28.7565C8.72227 28.6302 8.82461 28.5277 8.95104 28.5277H16.9257C17.052 28.5277 17.1545 28.6302 17.1545 28.7565C17.1545 28.8829 17.052 28.9853 16.9257 28.9853H8.95104ZM8.95104 37.4721C8.82461 37.4721 8.72227 37.3696 8.72227 37.2433C8.72227 37.117 8.82461 37.0146 8.95104 37.0146H29.1477C29.274 37.0146 29.3765 37.117 29.3765 37.2433C29.3765 37.3696 29.274 37.4721 29.1477 37.4721H8.95104ZM30.8048 37.4721C30.6785 37.4721 30.576 37.3696 30.576 37.2433C30.576 37.117 30.6785 37.0146 30.8048 37.0146H32.3171C32.4435 37.0146 32.5458 37.117 32.5458 37.2433C32.5458 37.3696 32.4435 37.4721 32.3171 37.4721H30.8048ZM8.95104 35.3256C8.82461 35.3256 8.72227 35.2232 8.72227 35.0969C8.72227 34.9704 8.82461 34.8681 8.95104 34.8681H10.7354C10.8617 34.8681 10.9642 34.9704 10.9642 35.0969C10.9642 35.2232 10.8617 35.3256 10.7354 35.3256H8.95104ZM12.3919 35.3256C12.2656 35.3256 12.1631 35.2232 12.1631 35.0969C12.1631 34.9704 12.2656 34.8681 12.3919 34.8681H32.3171C32.4435 34.8681 32.5458 34.9704 32.5458 35.0969C32.5458 35.2232 32.4435 35.3256 32.3171 35.3256H12.3919ZM8.95104 33.1787C8.82461 33.1787 8.72227 33.0762 8.72227 32.95C8.72227 32.8237 8.82461 32.7212 8.95104 32.7212H14.8682C14.9945 32.7212 15.097 32.8237 15.097 32.95C15.097 33.0762 14.9945 33.1787 14.8682 33.1787H8.95104ZM16.5246 33.1787C16.3983 33.1787 16.2959 33.0762 16.2959 32.95C16.2959 32.8237 16.3983 32.7212 16.5246 32.7212H32.3171C32.4435 32.7212 32.5458 32.8237 32.5458 32.95C32.5458 33.0762 32.4435 33.1787 32.3171 33.1787H16.5246ZM8.95104 31.0315C8.82461 31.0315 8.72227 30.929 8.72227 30.8028C8.72227 30.6765 8.82461 30.574 8.95104 30.574H29.1477C29.274 30.574 29.3765 30.6765 29.3765 30.8028C29.3765 30.929 29.274 31.0315 29.1477 31.0315H8.95104ZM30.8048 31.0315C30.6785 31.0315 30.576 30.929 30.576 30.8028C30.576 30.6765 30.6785 30.574 30.8048 30.574H32.3171C32.4435 30.574 32.5458 30.6765 32.5458 30.8028C32.5458 30.929 32.4435 31.0315 32.3171 31.0315H30.8048ZM33.207 2.43558H8.79182C8.27587 2.43558 7.80659 2.64696 7.46603 2.98737C7.12547 3.32792 6.91409 3.79736 6.91409 4.3133V38.6858C6.91409 39.2017 7.12547 39.6712 7.46603 40.0116C7.80659 40.3521 8.27587 40.5635 8.79182 40.5635H33.207C33.7231 40.5635 34.1923 40.3521 34.5329 40.0116C34.8735 39.6712 35.0848 39.2017 35.0848 38.6858V4.3133C35.0848 3.79736 34.8735 3.32792 34.5329 2.98752C34.1923 2.64696 33.7231 2.43558 33.207 2.43558Z" fill="url(#paint0_linear_7129_7085)"/>
<path d="M8.79182 1.52051H33.207C33.9758 1.52051 34.674 1.83453 35.1799 2.34041C35.6857 2.84629 35.9999 3.5448 35.9999 4.3133V38.6858C35.9999 39.4543 35.6857 40.1526 35.1799 40.6587C34.674 41.1644 33.9758 41.4784 33.207 41.4784H8.79182C8.02316 41.4784 7.32481 41.1644 6.81908 40.6587C6.31304 40.1526 5.99902 39.4543 5.99902 38.6858V4.3133C5.99902 3.5448 6.31304 2.84629 6.81908 2.34041C7.32481 1.83453 8.02316 1.52051 8.79182 1.52051ZM20.7176 19.2215C20.7176 19.1832 20.7269 19.1472 20.7436 19.1155C20.5093 19.0763 20.2965 18.9923 20.1108 18.8834C19.7522 18.6733 19.4931 18.3659 19.3755 18.1116C19.3467 18.0493 19.3253 17.9887 19.3121 17.9321C19.2834 17.8092 19.3598 17.6864 19.4827 17.6578C19.6055 17.6291 19.7284 17.7055 19.7571 17.8284C19.7634 17.8559 19.7746 17.8868 19.79 17.9204C19.8751 18.1045 20.0687 18.3305 20.3414 18.4903C20.6119 18.6488 20.9597 18.7374 21.3542 18.6448C21.4573 18.6207 21.5639 18.5843 21.673 18.5338C21.9607 18.4008 22.1435 18.1969 22.2376 17.968C22.3175 17.7734 22.3355 17.558 22.3008 17.3509C22.2661 17.142 22.1782 16.9428 22.0471 16.7822C21.8926 16.5928 21.6763 16.4574 21.416 16.4258V16.425L20.5375 16.2875L20.529 16.2865C20.1425 16.2396 19.8238 16.0413 19.5976 15.7639C19.4161 15.5417 19.2948 15.2681 19.2473 14.9826C19.1994 14.6952 19.2256 14.3937 19.3392 14.1171C19.475 13.787 19.7327 13.4956 20.1343 13.31C20.2731 13.2458 20.4089 13.1994 20.5407 13.1684C20.602 13.1541 20.6626 13.143 20.7222 13.135V12.4181C20.7222 12.2916 20.8247 12.1893 20.951 12.1893C21.0772 12.1893 21.1797 12.2916 21.1797 12.4181V13.132C21.4437 13.1645 21.6823 13.2546 21.8877 13.3749C22.2463 13.5851 22.5054 13.8924 22.6231 14.1468C22.6519 14.2092 22.6733 14.2697 22.6866 14.3263C22.7151 14.4491 22.6387 14.572 22.5159 14.6007C22.393 14.6292 22.27 14.5528 22.2415 14.43C22.2351 14.4026 22.224 14.3714 22.2084 14.338C22.1233 14.1538 21.9298 13.9278 21.6571 13.7681C21.4608 13.6531 21.224 13.5749 20.9583 13.5759L20.951 13.5761H20.9467C20.8497 13.5773 20.7486 13.5891 20.6444 13.6135C20.5412 13.6377 20.4346 13.6742 20.3255 13.7246C20.0379 13.8575 19.855 14.0615 19.7611 14.2905C19.681 14.4851 19.6632 14.7003 19.6976 14.9075C19.7324 15.1165 19.8202 15.3156 19.9514 15.4762C20.1061 15.6657 20.3222 15.8011 20.5825 15.8327C20.5913 15.8337 20.6 15.8353 20.6084 15.8372L21.4695 15.9724V15.9718C21.856 16.0187 22.1747 16.2171 22.401 16.4944C22.5824 16.7166 22.7036 16.9902 22.7512 17.2757C22.7991 17.5631 22.773 17.8647 22.6593 18.1412C22.5237 18.4714 22.2659 18.7627 21.8642 18.9483C21.7254 19.0125 21.5897 19.059 21.4578 19.0899C21.3556 19.1138 21.2557 19.1286 21.1582 19.1353C21.1691 19.1618 21.1752 19.191 21.1752 19.2215V20.2403C21.1752 20.3665 21.0727 20.469 20.9464 20.469C20.82 20.469 20.7176 20.3665 20.7176 20.2403V19.2215ZM23.5316 13.6675C23.4139 13.5477 23.4156 13.3551 23.5353 13.2374C23.655 13.1196 23.8476 13.1212 23.9654 13.241C24.0166 13.2929 24.0689 13.3489 24.1221 13.4089C24.1714 13.4646 24.2208 13.5235 24.2701 13.5857C24.3741 13.7173 24.3517 13.9083 24.2201 14.0123C24.0884 14.1161 23.8975 14.0939 23.7935 13.9623C23.7543 13.9127 23.712 13.8625 23.667 13.8116C23.6257 13.7651 23.5804 13.7169 23.5316 13.6675ZM24.2251 14.6589C24.1533 14.507 24.2184 14.3257 24.3704 14.2539C24.5223 14.1822 24.7037 14.2473 24.7755 14.3992C24.9035 14.6713 25.0034 14.9611 25.0708 15.2644C25.1368 15.5606 25.1716 15.865 25.1716 16.1738C25.1716 16.7329 25.0604 17.2683 24.8588 17.7586C24.6501 18.2663 24.344 18.7238 23.9641 19.1079C23.8458 19.227 23.6532 19.2274 23.5341 19.1091C23.4149 18.9906 23.4145 18.7979 23.5328 18.6788C23.8572 18.3511 24.1183 17.9607 24.2965 17.5275C24.4673 17.1119 24.5615 16.6549 24.5615 16.1738C24.5615 15.903 24.5324 15.6425 24.4773 15.3954C24.4205 15.1398 24.3352 14.893 24.2251 14.6589ZM18.4659 18.6788C18.5844 18.7979 18.5838 18.9906 18.4649 19.1091C18.3458 19.2274 18.1531 19.227 18.0348 19.1079C17.9793 19.0517 17.9296 18.9993 17.8861 18.9503L17.8711 18.9322C17.8251 18.8803 17.7836 18.8312 17.7464 18.785C17.6412 18.6541 17.6621 18.4626 17.7929 18.3572C17.9239 18.252 18.1155 18.2727 18.2207 18.4037C18.2579 18.4499 18.293 18.4919 18.3258 18.5292L18.3412 18.5452C18.3862 18.5959 18.428 18.6404 18.4659 18.6788ZM17.8088 17.7596C17.8838 17.9103 17.8225 18.0933 17.6718 18.1684C17.5211 18.2434 17.3381 18.182 17.2631 18.0314C17.122 17.7478 17.0117 17.4452 16.9375 17.1284C16.8655 16.8208 16.8272 16.5011 16.8272 16.1738C16.8272 15.6147 16.9384 15.0794 17.14 14.5891C17.3488 14.0812 17.6547 13.6237 18.0348 13.2398C18.1531 13.1207 18.3458 13.1202 18.4649 13.2386C18.5838 13.3571 18.5844 13.5497 18.4659 13.6687C18.1417 13.9966 17.8804 14.387 17.7025 14.8201C17.5315 15.2357 17.4374 15.6928 17.4374 16.1738C17.4374 16.4558 17.4697 16.7291 17.5309 16.9901C17.594 17.2593 17.688 17.5172 17.8088 17.7596ZM20.9995 9.57297C22.8221 9.57297 24.4723 10.3119 25.6668 11.5064C26.8614 12.701 27.6003 14.3512 27.6003 16.1738C27.6003 17.9965 26.8614 19.6467 25.6668 20.8411C24.4723 22.0358 22.8221 22.7745 20.9995 22.7745C19.1768 22.7745 17.5265 22.0358 16.332 20.8411C15.1375 19.6467 14.3986 17.9965 14.3986 16.1738C14.3986 14.3512 15.1375 12.701 16.332 11.5064C17.5265 10.3119 19.1768 9.57297 20.9995 9.57297ZM25.2356 11.9377C24.1516 10.8536 22.6538 10.1832 20.9995 10.1832C19.345 10.1832 17.8474 10.8536 16.7633 11.9377C15.6792 13.0217 15.0087 14.5195 15.0087 16.1738C15.0087 17.8281 15.6792 19.3259 16.7633 20.41C17.8474 21.4939 19.345 22.1645 20.9995 22.1645C22.6538 22.1645 24.1516 21.4939 25.2356 20.41C26.3195 19.3259 26.9901 17.8281 26.9901 16.1738C26.9901 14.5195 26.3197 13.0217 25.2356 11.9377ZM15.9458 22.3586C16.3727 22.708 16.824 23.0054 17.2919 23.2502C17.7702 23.5003 18.2744 23.7004 18.7957 23.8496C19.0226 23.9143 19.1606 24.1395 19.121 24.3671L18.943 26.349L21.2098 26.5527L21.3908 24.5354C21.41 24.3132 21.5857 24.1421 21.8 24.1212V24.1208C22.3329 24.0677 22.8648 23.9599 23.3869 23.7968C23.8976 23.6373 24.3951 23.4256 24.8704 23.1616C25.0648 23.0535 25.3043 23.1027 25.4418 23.2675L25.4423 23.267L26.7403 24.8212L28.4854 23.3638L27.1879 21.8104C27.0447 21.6392 27.0482 21.3943 27.1846 21.2279C27.5338 20.8009 27.8314 20.3493 28.076 19.8814C28.3261 19.4033 28.5262 18.8989 28.6751 18.3776C28.7397 18.1505 28.9652 18.0127 29.1925 18.0523L31.1746 18.2303L31.3782 15.9634L29.3608 15.7822C29.1386 15.763 28.9674 15.5871 28.9465 15.3728H28.9461C28.8929 14.8403 28.7852 14.3089 28.6223 13.7873C28.4626 13.2763 28.2509 12.7786 27.9868 12.3031C27.8787 12.1086 27.9281 11.8692 28.0928 11.7316L28.0923 11.7312L29.6467 10.433L28.1895 8.6878L26.6358 9.98521C26.4649 10.1283 26.2199 10.1249 26.0536 9.98842C25.6264 9.63932 25.1749 9.34177 24.707 9.09714C24.2287 8.84702 23.7245 8.64708 23.2033 8.49792C22.9762 8.43341 22.8383 8.20815 22.8778 7.9806L23.0559 5.99856L20.789 5.79495L20.6078 7.81253C20.5884 8.03474 20.4128 8.20586 20.1985 8.2266V8.22706C19.6661 8.28013 19.1346 8.38796 18.6131 8.55084C18.1019 8.71067 17.6042 8.92221 17.1287 9.18636C16.9343 9.29449 16.6948 9.24523 16.5573 9.08051L16.5568 9.08082L15.2586 7.52642L13.5136 8.98367L14.811 10.5373C14.9541 10.7083 14.9505 10.9534 14.8142 11.1196C14.4649 11.5468 14.1676 11.9982 13.9228 12.4663C13.6727 12.9444 13.4727 13.4486 13.3237 13.97C13.2592 14.197 13.0338 14.3348 12.8062 14.2953L10.8243 14.1174L10.6207 16.3841L12.6382 16.5655C12.8604 16.5847 13.0315 16.7605 13.0522 16.9748L13.0527 16.9747C13.1059 17.5072 13.2136 18.0386 13.3766 18.5602C13.5363 19.0714 13.748 19.569 14.012 20.0446C14.1201 20.239 14.0709 20.4785 13.9061 20.616L13.9066 20.6165L12.3521 21.9147L13.8095 23.6597L15.3632 22.3621C15.5342 22.2189 15.7793 22.2224 15.9458 22.3586ZM16.8702 24.0581C16.4499 23.8382 16.0468 23.5853 15.6654 23.2999L14.0446 24.6535C13.8512 24.8153 13.5631 24.7897 13.4013 24.5963L11.3583 22.15C11.1965 21.9566 11.2221 21.6684 11.4156 21.5066L13.0376 20.1519C12.8222 19.7217 12.6446 19.2802 12.5044 18.8318C12.3621 18.3763 12.2575 17.9108 12.1904 17.4401L10.0868 17.2512C9.83622 17.2295 9.65046 17.0085 9.67212 16.758L9.95746 13.5834C9.97912 13.3327 10.2 13.1471 10.4507 13.1687L12.5563 13.358C12.7053 12.9108 12.8916 12.4715 13.1149 12.0446C13.3348 11.6241 13.5877 11.2209 13.8731 10.8394L12.5198 9.21899C12.358 9.02561 12.3836 8.73751 12.577 8.57555L15.0233 6.53265C15.2167 6.37084 15.5048 6.39646 15.6667 6.58984L17.0214 8.21196C17.4516 7.99646 17.8931 7.81878 18.3413 7.67878C18.797 7.53633 19.2625 7.43186 19.733 7.36476L19.922 5.26101C19.9438 5.01043 20.1646 4.82467 20.4153 4.84648L23.5897 5.13168C23.8405 5.15334 24.0261 5.37417 24.0044 5.6249L23.8153 7.73063C24.2623 7.87964 24.7017 8.06601 25.1287 8.28928C25.549 8.50905 25.9523 8.76192 26.3337 9.04742L27.9542 7.69418C28.1475 7.53237 28.4356 7.55799 28.5976 7.75137L30.6405 10.1977C30.8023 10.391 30.7767 10.6791 30.5833 10.841L28.9612 12.1957C29.1767 12.6258 29.3544 13.0675 29.4944 13.5157C29.6368 13.9713 29.7413 14.4369 29.8084 14.9074L31.912 15.0965C32.1627 15.1181 32.3483 15.339 32.3267 15.5897L32.0415 18.7642C32.0198 19.0148 31.799 19.2006 31.5482 19.1788L29.4425 18.9897C29.2935 19.4367 29.1073 19.8762 28.8839 20.3031C28.6641 20.7234 28.4112 21.1267 28.1257 21.5082L29.479 23.1287C29.6408 23.3221 29.6153 23.6102 29.4218 23.772L26.9755 25.8149C26.7821 25.9768 26.494 25.9512 26.3322 25.7577L24.9779 24.136C24.548 24.3515 24.1066 24.529 23.6585 24.669C23.2025 24.8115 22.7364 24.916 22.2655 24.9831L22.0768 27.0865C22.0552 27.3372 21.8342 27.5228 21.5836 27.5012L18.4091 27.216C18.1585 27.1943 17.9727 26.9733 17.9944 26.7228L18.1836 24.6169C17.7365 24.4679 17.2971 24.2814 16.8702 24.0581ZM8.95104 28.9853C8.82461 28.9853 8.72227 28.8829 8.72227 28.7565C8.72227 28.6302 8.82461 28.5277 8.95104 28.5277H16.9257C17.052 28.5277 17.1545 28.6302 17.1545 28.7565C17.1545 28.8829 17.052 28.9853 16.9257 28.9853H8.95104ZM8.95104 37.4721C8.82461 37.4721 8.72227 37.3696 8.72227 37.2433C8.72227 37.117 8.82461 37.0146 8.95104 37.0146H29.1477C29.274 37.0146 29.3765 37.117 29.3765 37.2433C29.3765 37.3696 29.274 37.4721 29.1477 37.4721H8.95104ZM30.8048 37.4721C30.6785 37.4721 30.576 37.3696 30.576 37.2433C30.576 37.117 30.6785 37.0146 30.8048 37.0146H32.3171C32.4435 37.0146 32.5458 37.117 32.5458 37.2433C32.5458 37.3696 32.4435 37.4721 32.3171 37.4721H30.8048ZM8.95104 35.3256C8.82461 35.3256 8.72227 35.2232 8.72227 35.0969C8.72227 34.9704 8.82461 34.8681 8.95104 34.8681H10.7354C10.8617 34.8681 10.9642 34.9704 10.9642 35.0969C10.9642 35.2232 10.8617 35.3256 10.7354 35.3256H8.95104ZM12.3919 35.3256C12.2656 35.3256 12.1631 35.2232 12.1631 35.0969C12.1631 34.9704 12.2656 34.8681 12.3919 34.8681H32.3171C32.4435 34.8681 32.5458 34.9704 32.5458 35.0969C32.5458 35.2232 32.4435 35.3256 32.3171 35.3256H12.3919ZM8.95104 33.1787C8.82461 33.1787 8.72227 33.0762 8.72227 32.95C8.72227 32.8237 8.82461 32.7212 8.95104 32.7212H14.8682C14.9945 32.7212 15.097 32.8237 15.097 32.95C15.097 33.0762 14.9945 33.1787 14.8682 33.1787H8.95104ZM16.5246 33.1787C16.3983 33.1787 16.2959 33.0762 16.2959 32.95C16.2959 32.8237 16.3983 32.7212 16.5246 32.7212H32.3171C32.4435 32.7212 32.5458 32.8237 32.5458 32.95C32.5458 33.0762 32.4435 33.1787 32.3171 33.1787H16.5246ZM8.95104 31.0315C8.82461 31.0315 8.72227 30.929 8.72227 30.8028C8.72227 30.6765 8.82461 30.574 8.95104 30.574H29.1477C29.274 30.574 29.3765 30.6765 29.3765 30.8028C29.3765 30.929 29.274 31.0315 29.1477 31.0315H8.95104ZM30.8048 31.0315C30.6785 31.0315 30.576 30.929 30.576 30.8028C30.576 30.6765 30.6785 30.574 30.8048 30.574H32.3171C32.4435 30.574 32.5458 30.6765 32.5458 30.8028C32.5458 30.929 32.4435 31.0315 32.3171 31.0315H30.8048ZM33.207 2.43558H8.79182C8.27587 2.43558 7.80659 2.64696 7.46603 2.98737C7.12547 3.32792 6.91409 3.79736 6.91409 4.3133V38.6858C6.91409 39.2017 7.12547 39.6712 7.46603 40.0116C7.80659 40.3521 8.27587 40.5635 8.79182 40.5635H33.207C33.7231 40.5635 34.1923 40.3521 34.5329 40.0116C34.8735 39.6712 35.0848 39.2017 35.0848 38.6858V4.3133C35.0848 3.79736 34.8735 3.32792 34.5329 2.98752C34.1923 2.64696 33.7231 2.43558 33.207 2.43558Z" fill="black" fill-opacity="0.2"/>
</g>
<defs>
<linearGradient id="paint0_linear_7129_7085" x1="20.9995" y1="1.52051" x2="20.9995" y2="41.4784" gradientUnits="userSpaceOnUse">
<stop stop-color="#FF0F0F"/>
<stop offset="1" stop-color="#FF4849"/>
</linearGradient>
<clipPath id="clip0_7129_7085">
<rect width="39.7513" height="40.3589" fill="white" transform="translate(0.796875 0.992188)"/>
</clipPath>
</defs>
</svg>
