<svg width="40" height="42" viewBox="0 0 40 42" fill="none" xmlns="http://www.w3.org/2000/svg">
<g clip-path="url(#clip0_7129_7165)">
<path d="M25.376 33.1375C22.6099 32.0564 21.6808 29.5218 21.8717 27.0514C21.9017 26.6701 22.112 26.3557 22.445 26.1054V24.7237C22.445 22.9276 23.8681 21.4597 25.607 21.4597C27.3458 21.4597 28.7689 22.9276 28.7689 24.7237V26.1054C29.102 26.3557 29.3123 26.6701 29.3403 27.0514C29.5332 29.528 28.6007 32.0667 25.8246 33.1437C25.613 33.2313 25.4521 33.1727 25.376 33.1375ZM8.46231 12.295H11.0983C11.6129 12.295 12.0328 12.7287 12.0328 13.2603V16.0182C12.0328 16.5498 11.6129 16.9835 11.0983 16.9835H8.46231C7.94767 16.9835 7.52781 16.5498 7.52781 16.0182V13.2603C7.52781 12.7287 7.94767 12.295 8.46231 12.295ZM11.0983 12.8459H8.46231C8.2427 12.8459 8.06114 13.0314 8.06114 13.2603V16.0182C8.06114 16.2451 8.2427 16.4306 8.46231 16.4306H11.0983C11.3179 16.4306 11.4994 16.2451 11.4994 16.0182V13.2603C11.4994 13.0321 11.3179 12.8459 11.0983 12.8459ZM8.46231 18.4556H11.0983C11.6129 18.4556 12.0328 18.8893 12.0328 19.4209V22.1788C12.0328 22.7104 11.6129 23.1441 11.0983 23.1441H8.46231C7.94767 23.1441 7.52781 22.7104 7.52781 22.1788V19.4209C7.52781 18.8893 7.94767 18.4556 8.46231 18.4556ZM11.0983 19.0085H8.46231C8.2427 19.0085 8.06114 19.194 8.06114 19.4209V22.1788C8.06114 22.4077 8.2427 22.5932 8.46231 22.5932H11.0983C11.3179 22.5932 11.4994 22.4056 11.4994 22.1788V19.4209C11.4994 19.194 11.3179 19.0085 11.0983 19.0085ZM22.979 25.7965C23.1946 25.7007 23.4349 25.6207 23.6906 25.5559C23.736 25.5442 23.7814 25.5325 23.8268 25.5228V24.692C23.8268 23.0738 25.7378 22.2291 26.8639 23.3944C27.1856 23.7267 27.3859 24.1859 27.3859 24.692V25.5228C27.4312 25.5325 27.4786 25.5442 27.522 25.5559C27.779 25.6207 28.018 25.7007 28.2336 25.7965V24.7237C28.2336 23.2323 27.0508 22.0113 25.6076 22.0113C24.1618 22.0113 22.9797 23.233 22.9797 24.7237V25.7965H22.979ZM24.3621 25.4228C25.1624 25.3036 26.0515 25.3036 26.8519 25.4228V24.692C26.8519 23.5626 25.5182 22.9662 24.7272 23.7832C24.5023 24.0156 24.3621 24.3383 24.3621 24.692V25.4228ZM25.3553 28.9937V30.0865C25.3553 30.2292 25.4688 30.3465 25.607 30.3465C25.7451 30.3465 25.8566 30.2292 25.8566 30.0865V28.9937C25.9721 28.9116 26.0475 28.7751 26.0475 28.6186C26.0475 28.3663 25.8506 28.1635 25.607 28.1635C25.3633 28.1635 25.1664 28.3669 25.1664 28.6186C25.1664 28.7751 25.2399 28.9116 25.3553 28.9937ZM25.607 20.0207C21.7148 20.0207 18.5629 23.2785 18.5629 27.2969C18.5629 31.3152 21.7155 34.573 25.607 34.573C29.4972 34.573 32.6511 31.3152 32.6511 27.2969C32.6511 23.2772 29.4972 20.0207 25.607 20.0207ZM20.247 21.7623C23.208 18.7038 28.0066 18.7038 30.9656 21.7623C33.9247 24.8188 33.9247 29.7756 30.9656 32.8321C28.0066 35.8886 23.208 35.8886 20.247 32.8321C17.2873 29.7756 17.2873 24.8195 20.247 21.7623ZM15.3689 25.6007C15.7187 25.6007 15.7187 26.1516 15.3689 26.1516H14.0139C13.6621 26.1516 13.6621 25.6007 14.0139 25.6007H15.3689ZM15.3028 27.7726C15.6546 27.7726 15.6546 28.3235 15.3028 28.3235H14.0146C13.6628 28.3235 13.6628 27.7726 14.0146 27.7726H15.3028ZM8.46231 24.6182H11.0983C11.6129 24.6182 12.0328 25.0519 12.0328 25.5835V28.3414C12.0328 28.873 11.6129 29.3067 11.0983 29.3067H8.46231C7.94767 29.3067 7.52781 28.873 7.52781 28.3414V25.5835C7.52781 25.0519 7.94767 24.6182 8.46231 24.6182ZM11.0983 25.1691H8.46231C8.2427 25.1691 8.06114 25.3566 8.06114 25.5835V28.3414C8.06114 28.5683 8.2427 28.7558 8.46231 28.7558H11.0983C11.3179 28.7558 11.4994 28.5683 11.4994 28.3414V25.5835C11.4994 25.3566 11.3179 25.1691 11.0983 25.1691ZM25.607 18.1467C20.7142 18.1467 16.748 22.2429 16.748 27.2975C16.748 32.3515 20.7136 36.4484 25.607 36.4484C30.4997 36.4484 34.466 32.3522 34.466 27.2975C34.466 22.2429 30.4997 18.1467 25.607 18.1467ZM18.964 20.4351C22.1901 17.1049 27.1776 16.7022 30.8295 19.2312V10.7781H5.53533V28.6324C5.53533 30.0886 6.68944 31.2807 8.09919 31.2807H17.0396C15.4844 27.7099 16.1258 23.3689 18.964 20.4351ZM31.3628 19.6284C31.6712 19.8766 31.9662 20.1441 32.2486 20.4358C35.9171 24.2252 35.9171 30.3699 32.2486 34.1579C28.58 37.9474 22.6326 37.9474 18.964 34.1579C18.2832 33.4547 17.7285 32.6686 17.3006 31.8323H8.09919C6.3944 31.8323 5 30.394 5 28.6331V9.19922C5 7.43827 6.3944 6 8.09919 6H28.2656C29.9704 6 31.3628 7.43827 31.3628 9.19922V19.6284ZM18.3393 19.4388C18.691 19.4388 18.691 19.9897 18.3393 19.9897H14.0139C13.6621 19.9897 13.6621 19.4388 14.0139 19.4388H18.3393ZM16.7026 21.61C17.0543 21.61 17.0543 22.1629 16.7026 22.1629H14.0139C13.6621 22.1629 13.6621 21.61 14.0139 21.61H16.7026ZM28.3597 13.2762C28.7115 13.2762 28.7115 13.8291 28.3597 13.8291H14.0139C13.6621 13.8291 13.6621 13.2762 14.0139 13.2762H28.3597ZM28.3597 15.4494C28.7115 15.4494 28.7115 16.0003 28.3597 16.0003H14.0139C13.6621 16.0003 13.6621 15.4494 14.0139 15.4494H28.3597ZM5.53533 10.2252H30.8295V9.19922C30.8295 7.74302 29.6754 6.5509 28.2656 6.5509H8.09919C6.68944 6.5509 5.53533 7.74302 5.53533 9.19922V10.2252ZM22.2635 8.11259C22.6153 8.11259 22.6153 8.66349 22.2635 8.66349H7.96903C7.61726 8.66349 7.61726 8.11259 7.96903 8.11259H22.2635ZM27.7036 7.39759C28.5553 7.39759 28.9845 8.46698 28.3831 9.09028C27.7797 9.71151 26.7444 9.26817 26.7444 8.38838C26.7444 7.84093 27.1736 7.39759 27.7036 7.39759ZM28.0046 8.07742C27.7376 7.80163 27.2777 7.99744 27.2777 8.38838C27.2777 8.77932 27.7376 8.97444 28.0046 8.69934C28.1708 8.52697 28.1708 8.24911 28.0046 8.07742ZM24.4001 7.39759C25.2519 7.39759 25.6811 8.46698 25.0777 9.09028C24.4762 9.71151 23.4409 9.26817 23.4409 8.38838C23.4403 7.84093 23.8701 7.39759 24.4001 7.39759ZM24.7005 8.07742C24.4335 7.80163 23.9743 7.99744 23.9743 8.38838C23.9743 8.77932 24.4342 8.97444 24.7005 8.69934C24.8674 8.52697 24.8674 8.24911 24.7005 8.07742ZM23.0999 30.5712C23.5764 31.4 24.3487 32.1522 25.5769 32.6273C25.6056 32.6411 25.6357 32.6293 25.6377 32.6273C26.8672 32.1502 27.6395 31.3959 28.1128 30.5712C28.815 29.3515 28.877 27.9677 28.809 27.0941C28.7729 26.6308 28.1902 26.2909 27.3959 26.0896C26.3265 25.8158 24.8888 25.8158 23.8181 26.0896C23.0251 26.2909 22.4404 26.6308 22.405 27.0941C22.3356 27.9677 22.3983 29.3515 23.0999 30.5712Z" fill="url(#paint0_linear_7129_7165)"/>
</g>
<defs>
<linearGradient id="paint0_linear_7129_7165" x1="28.3733" y1="6" x2="28.2265" y2="43.6431" gradientUnits="userSpaceOnUse">
<stop stop-color="#005CAA"/>
<stop offset="1" stop-color="#64B0F1"/>
</linearGradient>
<clipPath id="clip0_7129_7165">
<rect width="39.7513" height="40.3589" fill="white" transform="translate(0.0942383 0.992188)"/>
</clipPath>
</defs>
</svg>
