<svg width="40" height="42" viewBox="0 0 40 42" fill="none" xmlns="http://www.w3.org/2000/svg">
<g clip-path="url(#clip0_7129_7218)">
<path d="M32.7028 9.37463C32.6813 9.35296 32.658 9.3331 32.6333 9.31525C31.0407 7.64937 29.1289 6.32126 27.012 5.41011C24.8951 4.49896 22.6164 4.02343 20.3118 4.01187C20.2845 4.0062 20.257 4.00224 20.2293 4C20.2108 4 20.196 4.00891 20.1782 4.01009C17.8647 4.0147 15.576 4.48693 13.4496 5.39839C11.3233 6.30986 9.40307 7.64175 7.80444 9.31406C7.7793 9.33189 7.75567 9.35175 7.73378 9.37344C7.72666 9.38294 7.72487 9.39422 7.71834 9.40372C4.68925 12.5946 3.00049 16.8265 3.00049 21.2262C3.00049 25.6259 4.68925 29.8577 7.71834 33.0486C7.72309 33.0557 7.72428 33.0641 7.72903 33.0706C7.73378 33.0771 7.75813 33.0908 7.77119 33.1044C9.37477 34.7912 11.3044 36.1345 13.443 37.0528C15.5816 37.9711 17.8845 38.4452 20.2119 38.4463C22.5393 38.4474 24.8426 37.9755 26.982 37.0593C29.1215 36.143 31.0524 34.8016 32.6576 33.1163C32.6762 33.1024 32.6938 33.0873 32.7105 33.0712C32.7158 33.0647 32.7164 33.0563 32.7212 33.0492C35.7506 29.8583 37.4396 25.6261 37.4396 21.2262C37.4396 16.8262 35.7506 12.5941 32.7212 9.40313C32.7111 9.39481 32.7099 9.38353 32.7028 9.37463ZM32.1565 31.911C30.6835 30.8245 29.0644 29.9516 27.3471 29.3181C28.3308 26.9344 28.8856 24.3957 28.9859 21.819H36.235C36.0998 25.5569 34.6563 29.1287 32.1565 31.911ZM8.28181 31.911C5.7814 29.1283 4.33771 25.5559 4.20275 21.8172H11.4613C11.5589 24.395 12.1115 26.9351 13.0936 29.3205C11.3768 29.9556 9.75786 30.8288 8.28419 31.9146L8.28181 31.911ZM8.28775 10.536C9.78376 11.6431 11.4326 12.5271 13.1826 13.1604C12.1635 15.5282 11.5802 18.0606 11.4608 20.6357H4.20216C4.33754 16.8942 5.78368 13.3193 8.28775 10.536ZM20.8236 36.8771V29.2575C22.4854 29.304 24.1345 29.5635 25.7303 30.0294C24.5627 32.6134 22.895 34.9407 20.8236 36.8771ZM19.6248 5.64112V13.1912C17.9868 13.1442 16.3613 12.8905 14.7869 12.436C15.9669 9.89217 17.6071 7.58848 19.6248 5.64112ZM14.2929 13.5291C16.025 14.0467 17.8177 14.3336 19.6248 14.3823V20.6345H12.6589C12.7682 18.1865 13.3219 15.7789 14.2929 13.5291ZM19.6248 21.822V28.07C17.7964 28.1193 15.9825 28.4106 14.2306 28.9363C13.2859 26.6776 12.7534 24.2679 12.6583 21.8214L19.6248 21.822ZM26.2154 28.9369C24.4651 28.4104 22.6525 28.1189 20.8254 28.07V21.822H27.7895C27.6932 24.2685 27.1601 26.6781 26.2154 28.9369ZM20.8236 20.6345V14.3823C22.6311 14.3322 24.4241 14.0437 26.1561 13.5243C27.127 15.7757 27.6799 18.1851 27.7877 20.6345H20.8236ZM20.8236 13.1907V5.62984C22.8429 7.57881 24.4841 9.88455 25.6644 12.4307C24.0891 12.8863 22.4627 13.1416 20.8236 13.1907ZM13.6677 12.0738C12.0461 11.4945 10.5155 10.6863 9.12256 9.67387C11.6209 7.26698 14.8345 5.73832 18.2782 5.31872C16.3773 7.29908 14.8192 9.58196 13.6677 12.0738ZM19.6248 29.2575V36.8718C17.5514 34.9393 15.8824 32.6143 14.7145 30.0318C16.3117 29.5658 17.9618 29.3057 19.6248 29.2575ZM26.8751 30.41C28.4594 30.9895 29.9558 31.7855 31.3217 32.7755C28.8521 35.1574 25.6816 36.6815 22.2789 37.1223C24.1984 35.1764 25.7549 32.9033 26.8751 30.41ZM28.9865 20.6345C28.8689 18.0576 28.2865 15.5231 27.2676 13.1533C29.0123 12.5204 30.6566 11.6388 32.1494 10.536C34.6534 13.3193 36.0996 16.8942 36.235 20.6357L28.9865 20.6345ZM31.314 9.67387C29.9248 10.6828 28.3992 11.4891 26.7831 12.0685C25.6338 9.58076 24.0798 7.3009 22.1845 5.32169C25.6185 5.74596 28.8221 7.27318 31.314 9.67387ZM9.11544 32.7761C10.4839 31.7864 11.9824 30.9901 13.5686 30.41C14.6874 32.9024 16.2416 35.1755 18.1583 37.1223C14.7556 36.6817 11.5851 35.1578 9.11544 32.7761Z" fill="url(#paint0_linear_7129_7218)"/>
<path d="M32.7028 9.37463C32.6813 9.35296 32.658 9.3331 32.6333 9.31525C31.0407 7.64937 29.1289 6.32126 27.012 5.41011C24.8951 4.49896 22.6164 4.02343 20.3118 4.01187C20.2845 4.0062 20.257 4.00224 20.2293 4C20.2108 4 20.196 4.00891 20.1782 4.01009C17.8647 4.0147 15.576 4.48693 13.4496 5.39839C11.3233 6.30986 9.40307 7.64175 7.80444 9.31406C7.7793 9.33189 7.75567 9.35175 7.73378 9.37344C7.72666 9.38294 7.72487 9.39422 7.71834 9.40372C4.68925 12.5946 3.00049 16.8265 3.00049 21.2262C3.00049 25.6259 4.68925 29.8577 7.71834 33.0486C7.72309 33.0557 7.72428 33.0641 7.72903 33.0706C7.73378 33.0771 7.75813 33.0908 7.77119 33.1044C9.37477 34.7912 11.3044 36.1345 13.443 37.0528C15.5816 37.9711 17.8845 38.4452 20.2119 38.4463C22.5393 38.4474 24.8426 37.9755 26.982 37.0593C29.1215 36.143 31.0524 34.8016 32.6576 33.1163C32.6762 33.1024 32.6938 33.0873 32.7105 33.0712C32.7158 33.0647 32.7164 33.0563 32.7212 33.0492C35.7506 29.8583 37.4396 25.6261 37.4396 21.2262C37.4396 16.8262 35.7506 12.5941 32.7212 9.40313C32.7111 9.39481 32.7099 9.38353 32.7028 9.37463ZM32.1565 31.911C30.6835 30.8245 29.0644 29.9516 27.3471 29.3181C28.3308 26.9344 28.8856 24.3957 28.9859 21.819H36.235C36.0998 25.5569 34.6563 29.1287 32.1565 31.911ZM8.28181 31.911C5.7814 29.1283 4.33771 25.5559 4.20275 21.8172H11.4613C11.5589 24.395 12.1115 26.9351 13.0936 29.3205C11.3768 29.9556 9.75786 30.8288 8.28419 31.9146L8.28181 31.911ZM8.28775 10.536C9.78376 11.6431 11.4326 12.5271 13.1826 13.1604C12.1635 15.5282 11.5802 18.0606 11.4608 20.6357H4.20216C4.33754 16.8942 5.78368 13.3193 8.28775 10.536ZM20.8236 36.8771V29.2575C22.4854 29.304 24.1345 29.5635 25.7303 30.0294C24.5627 32.6134 22.895 34.9407 20.8236 36.8771ZM19.6248 5.64112V13.1912C17.9868 13.1442 16.3613 12.8905 14.7869 12.436C15.9669 9.89217 17.6071 7.58848 19.6248 5.64112ZM14.2929 13.5291C16.025 14.0467 17.8177 14.3336 19.6248 14.3823V20.6345H12.6589C12.7682 18.1865 13.3219 15.7789 14.2929 13.5291ZM19.6248 21.822V28.07C17.7964 28.1193 15.9825 28.4106 14.2306 28.9363C13.2859 26.6776 12.7534 24.2679 12.6583 21.8214L19.6248 21.822ZM26.2154 28.9369C24.4651 28.4104 22.6525 28.1189 20.8254 28.07V21.822H27.7895C27.6932 24.2685 27.1601 26.6781 26.2154 28.9369ZM20.8236 20.6345V14.3823C22.6311 14.3322 24.4241 14.0437 26.1561 13.5243C27.127 15.7757 27.6799 18.1851 27.7877 20.6345H20.8236ZM20.8236 13.1907V5.62984C22.8429 7.57881 24.4841 9.88455 25.6644 12.4307C24.0891 12.8863 22.4627 13.1416 20.8236 13.1907ZM13.6677 12.0738C12.0461 11.4945 10.5155 10.6863 9.12256 9.67387C11.6209 7.26698 14.8345 5.73832 18.2782 5.31872C16.3773 7.29908 14.8192 9.58196 13.6677 12.0738ZM19.6248 29.2575V36.8718C17.5514 34.9393 15.8824 32.6143 14.7145 30.0318C16.3117 29.5658 17.9618 29.3057 19.6248 29.2575ZM26.8751 30.41C28.4594 30.9895 29.9558 31.7855 31.3217 32.7755C28.8521 35.1574 25.6816 36.6815 22.2789 37.1223C24.1984 35.1764 25.7549 32.9033 26.8751 30.41ZM28.9865 20.6345C28.8689 18.0576 28.2865 15.5231 27.2676 13.1533C29.0123 12.5204 30.6566 11.6388 32.1494 10.536C34.6534 13.3193 36.0996 16.8942 36.235 20.6357L28.9865 20.6345ZM31.314 9.67387C29.9248 10.6828 28.3992 11.4891 26.7831 12.0685C25.6338 9.58076 24.0798 7.3009 22.1845 5.32169C25.6185 5.74596 28.8221 7.27318 31.314 9.67387ZM9.11544 32.7761C10.4839 31.7864 11.9824 30.9901 13.5686 30.41C14.6874 32.9024 16.2416 35.1755 18.1583 37.1223C14.7556 36.6817 11.5851 35.1578 9.11544 32.7761Z" fill="black" fill-opacity="0.2"/>
</g>
<defs>
<linearGradient id="paint0_linear_7129_7218" x1="20.22" y1="4" x2="20.22" y2="38.4463" gradientUnits="userSpaceOnUse">
<stop stop-color="#FF0F0F"/>
<stop offset="1" stop-color="#FF4849"/>
</linearGradient>
<clipPath id="clip0_7129_7218">
<rect width="39.7513" height="40.3589" fill="white" transform="translate(0.0947266 0.992188)"/>
</clipPath>
</defs>
</svg>
