<svg width="41" height="42" viewBox="0 0 41 42" fill="none" xmlns="http://www.w3.org/2000/svg">
<g clip-path="url(#clip0_7129_7201)">
<path d="M6.52567 21.0848C6.52567 17.8074 7.6417 14.724 9.75267 12.1676C11.7321 9.77077 14.4849 8.03435 17.5332 7.25285V4.18178C17.5332 3.53034 18.0817 3 18.7563 3H23.9137C24.5879 3 25.1368 3.52997 25.1368 4.18178V7.25285C31.6183 8.91153 36.1443 14.5984 36.1443 21.0848C36.1443 25.3631 34.1858 29.3823 30.7712 32.1129C30.6686 32.1948 30.5445 32.2347 30.4211 32.2347C30.2628 32.2347 30.1058 32.169 29.9971 32.0423C29.8033 31.8162 29.8362 31.4813 30.0702 31.2944C33.2314 28.7668 35.0446 25.0454 35.0446 21.0848C35.0446 15.174 30.9855 9.98082 25.1368 8.35502V9.16456C25.1368 9.816 24.5883 10.3463 23.9137 10.3463H18.7563C18.0821 10.3463 17.5332 9.81637 17.5332 9.16456V8.35465C11.6698 9.97932 7.62545 15.1336 7.62545 21.0848C7.62545 28.3885 13.7754 34.3303 21.335 34.3303H37.4503C37.754 34.3303 38 34.568 38 34.8614C38 35.1548 37.754 35.3925 37.4503 35.3925H21.335C17.3792 35.3925 13.6601 33.9043 10.8633 31.2017C8.06606 28.4999 6.52567 24.9067 6.52567 21.0848ZM18.6329 9.16493C18.6329 9.22959 18.6894 9.28416 18.7563 9.28416H23.9137C23.9806 9.28416 24.0371 9.22959 24.0371 9.16493V4.18178C24.0371 4.11713 23.9806 4.06256 23.9137 4.06256H18.7563C18.6894 4.06256 18.6329 4.11713 18.6329 4.18178V9.16493ZM4 34.8618C4 35.0255 4.07814 35.1799 4.2116 35.2804L6.34153 36.8875C6.44211 36.9634 6.56126 37 6.67963 37C6.84326 37 7.00496 36.9297 7.11327 36.7956C7.30012 36.5642 7.25757 36.2305 7.0185 36.0499L6.14734 35.3929H11.7635C12.0671 35.3929 12.3132 35.1552 12.3132 34.8618C12.3132 34.5684 12.0671 34.3307 11.7635 34.3307H6.14695L7.01811 33.6737C7.25757 33.4931 7.30012 33.1594 7.11289 32.928C6.92604 32.6967 6.5806 32.6556 6.34115 32.8365L4.21121 34.4436C4.07775 34.5437 4 34.6981 4 34.8618ZM31.0597 19.3446C31.2721 19.4235 31.4121 19.6205 31.4121 19.8406V22.332C31.4121 22.5517 31.2721 22.7487 31.0597 22.8279L29.746 23.3164C29.5538 23.994 29.2752 24.644 28.9143 25.255L29.4861 26.4989C29.5785 26.6996 29.5333 26.9347 29.3723 27.0901L27.5488 28.852C27.3879 29.0075 27.1445 29.0512 26.9368 28.9619L25.649 28.4091C25.0165 28.7578 24.3438 29.0273 23.6433 29.2126L23.1373 30.4823C23.0557 30.6874 22.8518 30.8227 22.6239 30.8227H20.0453C19.8178 30.8227 19.614 30.6874 19.5319 30.4823L19.0263 29.213C18.325 29.0276 17.6523 28.7582 17.0198 28.4095L15.7324 28.9619C15.5247 29.0508 15.2814 29.0075 15.1204 28.852L13.2969 27.0901C13.136 26.9347 13.0907 26.6996 13.1832 26.4989L13.7549 25.2547C13.394 24.6436 13.1155 23.994 12.9232 23.3168L11.6091 22.8279C11.3967 22.7491 11.2567 22.5521 11.2567 22.332V19.8406C11.2567 19.6208 11.3967 19.4239 11.6091 19.3446L12.9228 18.8562C13.1147 18.1786 13.3936 17.5286 13.7545 16.9175L13.1828 15.6737C13.0903 15.473 13.1356 15.2379 13.2965 15.0824L15.1201 13.3206C15.281 13.1651 15.5243 13.1218 15.732 13.2107L17.0198 13.7635C17.6523 13.4148 18.3246 13.1453 19.0256 12.9599L19.5316 11.6903C19.6132 11.4851 19.817 11.3498 20.0449 11.3498H22.6236C22.851 11.3498 23.0549 11.4851 23.1369 11.6903L23.6429 12.9599C24.3438 13.1453 25.0162 13.4148 25.6486 13.7635L26.9364 13.2107C27.1442 13.1214 27.3875 13.1651 27.5484 13.3206L29.372 15.0824C29.5329 15.2379 29.5781 15.473 29.4857 15.6737L28.9139 16.9175C29.2749 17.5286 29.5538 18.1786 29.7456 18.8558L31.0597 19.3446ZM28.7488 19.3764C28.5623 18.6184 28.2524 17.8967 27.8285 17.2315C27.7333 17.0824 27.7205 16.8974 27.794 16.7374L28.3279 15.5762L27.0385 14.3305L25.8366 14.8462C25.6711 14.9172 25.4796 14.9049 25.3252 14.813C24.6367 14.4033 23.8897 14.104 23.1052 13.9238C22.9288 13.8831 22.7845 13.7613 22.7195 13.5979L22.2476 12.4132H20.424L19.9521 13.5983C19.8871 13.7616 19.7428 13.8838 19.5664 13.9242C18.7823 14.1044 18.0353 14.4037 17.3467 14.8133C17.1923 14.9053 17.0009 14.9176 16.8353 14.8466L15.6334 14.3308L14.3441 15.5765L14.8779 16.7374C14.9514 16.8974 14.9386 17.0824 14.8435 17.2315C14.4195 17.8967 14.1096 18.6184 13.9232 19.3768C13.881 19.5472 13.7549 19.6866 13.5859 19.7498L12.36 20.2057V21.9676L13.5866 22.4236C13.7557 22.4863 13.8822 22.6257 13.924 22.7962C14.1108 23.5541 14.4203 24.2755 14.8442 24.9407C14.9394 25.0899 14.9522 25.2749 14.8787 25.4348L14.3448 26.596L15.6342 27.8417L16.8357 27.326C17.0013 27.255 17.1927 27.2673 17.3471 27.3592C18.0357 27.7689 18.7826 28.0682 19.5675 28.2484C19.7439 28.2891 19.8882 28.411 19.9536 28.5743L20.4255 29.7587H22.2491L22.721 28.5735C22.786 28.4102 22.9303 28.288 23.1067 28.2476C23.8908 28.0675 24.6378 27.7681 25.3264 27.3585C25.4807 27.2665 25.6722 27.2542 25.8378 27.3252L27.0397 27.841L28.329 26.5953L27.7952 25.4344C27.7217 25.2745 27.7345 25.0895 27.8296 24.9404C28.2536 24.2755 28.5635 23.5534 28.7499 22.7951C28.7921 22.6246 28.9182 22.4852 29.0872 22.4224L30.3131 21.9665V20.2046L29.0869 19.7487C28.9166 19.6862 28.7905 19.5468 28.7488 19.3764ZM21.335 26.3423C18.3355 26.3423 15.8949 23.9843 15.8949 21.0863C15.8949 18.1883 18.3355 15.8303 21.335 15.8303C24.3345 15.8303 26.7751 18.1883 26.7751 21.0863C26.7751 23.9843 24.3349 26.3423 21.335 26.3423ZM21.335 16.8929C18.9416 16.8929 16.9947 18.7739 16.9947 21.0863C16.9947 23.3987 18.9416 25.2797 21.335 25.2797C23.7284 25.2797 25.6753 23.3987 25.6753 21.0863C25.6753 18.7739 23.7284 16.8929 21.335 16.8929ZM19.5629 6.06322L21.1439 7.95138C21.2418 8.06836 21.3868 8.13975 21.5423 8.1476C21.552 8.14797 21.5617 8.14834 21.5714 8.14834C21.7168 8.14834 21.8568 8.09266 21.9601 7.99287L23.068 6.92246C23.2827 6.71503 23.2827 6.37866 23.068 6.17123C22.8533 5.9638 22.5052 5.9638 22.2905 6.17123L21.6147 6.82416L20.4182 5.39496C20.2271 5.16698 19.8809 5.13147 19.6449 5.3161C19.4085 5.50073 19.3722 5.83523 19.5629 6.06322Z" fill="url(#paint0_linear_7129_7201)"/>
<path d="M6.52567 21.0848C6.52567 17.8074 7.6417 14.724 9.75267 12.1676C11.7321 9.77077 14.4849 8.03435 17.5332 7.25285V4.18178C17.5332 3.53034 18.0817 3 18.7563 3H23.9137C24.5879 3 25.1368 3.52997 25.1368 4.18178V7.25285C31.6183 8.91153 36.1443 14.5984 36.1443 21.0848C36.1443 25.3631 34.1858 29.3823 30.7712 32.1129C30.6686 32.1948 30.5445 32.2347 30.4211 32.2347C30.2628 32.2347 30.1058 32.169 29.9971 32.0423C29.8033 31.8162 29.8362 31.4813 30.0702 31.2944C33.2314 28.7668 35.0446 25.0454 35.0446 21.0848C35.0446 15.174 30.9855 9.98082 25.1368 8.35502V9.16456C25.1368 9.816 24.5883 10.3463 23.9137 10.3463H18.7563C18.0821 10.3463 17.5332 9.81637 17.5332 9.16456V8.35465C11.6698 9.97932 7.62545 15.1336 7.62545 21.0848C7.62545 28.3885 13.7754 34.3303 21.335 34.3303H37.4503C37.754 34.3303 38 34.568 38 34.8614C38 35.1548 37.754 35.3925 37.4503 35.3925H21.335C17.3792 35.3925 13.6601 33.9043 10.8633 31.2017C8.06606 28.4999 6.52567 24.9067 6.52567 21.0848ZM18.6329 9.16493C18.6329 9.22959 18.6894 9.28416 18.7563 9.28416H23.9137C23.9806 9.28416 24.0371 9.22959 24.0371 9.16493V4.18178C24.0371 4.11713 23.9806 4.06256 23.9137 4.06256H18.7563C18.6894 4.06256 18.6329 4.11713 18.6329 4.18178V9.16493ZM4 34.8618C4 35.0255 4.07814 35.1799 4.2116 35.2804L6.34153 36.8875C6.44211 36.9634 6.56126 37 6.67963 37C6.84326 37 7.00496 36.9297 7.11327 36.7956C7.30012 36.5642 7.25757 36.2305 7.0185 36.0499L6.14734 35.3929H11.7635C12.0671 35.3929 12.3132 35.1552 12.3132 34.8618C12.3132 34.5684 12.0671 34.3307 11.7635 34.3307H6.14695L7.01811 33.6737C7.25757 33.4931 7.30012 33.1594 7.11289 32.928C6.92604 32.6967 6.5806 32.6556 6.34115 32.8365L4.21121 34.4436C4.07775 34.5437 4 34.6981 4 34.8618ZM31.0597 19.3446C31.2721 19.4235 31.4121 19.6205 31.4121 19.8406V22.332C31.4121 22.5517 31.2721 22.7487 31.0597 22.8279L29.746 23.3164C29.5538 23.994 29.2752 24.644 28.9143 25.255L29.4861 26.4989C29.5785 26.6996 29.5333 26.9347 29.3723 27.0901L27.5488 28.852C27.3879 29.0075 27.1445 29.0512 26.9368 28.9619L25.649 28.4091C25.0165 28.7578 24.3438 29.0273 23.6433 29.2126L23.1373 30.4823C23.0557 30.6874 22.8518 30.8227 22.6239 30.8227H20.0453C19.8178 30.8227 19.614 30.6874 19.5319 30.4823L19.0263 29.213C18.325 29.0276 17.6523 28.7582 17.0198 28.4095L15.7324 28.9619C15.5247 29.0508 15.2814 29.0075 15.1204 28.852L13.2969 27.0901C13.136 26.9347 13.0907 26.6996 13.1832 26.4989L13.7549 25.2547C13.394 24.6436 13.1155 23.994 12.9232 23.3168L11.6091 22.8279C11.3967 22.7491 11.2567 22.5521 11.2567 22.332V19.8406C11.2567 19.6208 11.3967 19.4239 11.6091 19.3446L12.9228 18.8562C13.1147 18.1786 13.3936 17.5286 13.7545 16.9175L13.1828 15.6737C13.0903 15.473 13.1356 15.2379 13.2965 15.0824L15.1201 13.3206C15.281 13.1651 15.5243 13.1218 15.732 13.2107L17.0198 13.7635C17.6523 13.4148 18.3246 13.1453 19.0256 12.9599L19.5316 11.6903C19.6132 11.4851 19.817 11.3498 20.0449 11.3498H22.6236C22.851 11.3498 23.0549 11.4851 23.1369 11.6903L23.6429 12.9599C24.3438 13.1453 25.0162 13.4148 25.6486 13.7635L26.9364 13.2107C27.1442 13.1214 27.3875 13.1651 27.5484 13.3206L29.372 15.0824C29.5329 15.2379 29.5781 15.473 29.4857 15.6737L28.9139 16.9175C29.2749 17.5286 29.5538 18.1786 29.7456 18.8558L31.0597 19.3446ZM28.7488 19.3764C28.5623 18.6184 28.2524 17.8967 27.8285 17.2315C27.7333 17.0824 27.7205 16.8974 27.794 16.7374L28.3279 15.5762L27.0385 14.3305L25.8366 14.8462C25.6711 14.9172 25.4796 14.9049 25.3252 14.813C24.6367 14.4033 23.8897 14.104 23.1052 13.9238C22.9288 13.8831 22.7845 13.7613 22.7195 13.5979L22.2476 12.4132H20.424L19.9521 13.5983C19.8871 13.7616 19.7428 13.8838 19.5664 13.9242C18.7823 14.1044 18.0353 14.4037 17.3467 14.8133C17.1923 14.9053 17.0009 14.9176 16.8353 14.8466L15.6334 14.3308L14.3441 15.5765L14.8779 16.7374C14.9514 16.8974 14.9386 17.0824 14.8435 17.2315C14.4195 17.8967 14.1096 18.6184 13.9232 19.3768C13.881 19.5472 13.7549 19.6866 13.5859 19.7498L12.36 20.2057V21.9676L13.5866 22.4236C13.7557 22.4863 13.8822 22.6257 13.924 22.7962C14.1108 23.5541 14.4203 24.2755 14.8442 24.9407C14.9394 25.0899 14.9522 25.2749 14.8787 25.4348L14.3448 26.596L15.6342 27.8417L16.8357 27.326C17.0013 27.255 17.1927 27.2673 17.3471 27.3592C18.0357 27.7689 18.7826 28.0682 19.5675 28.2484C19.7439 28.2891 19.8882 28.411 19.9536 28.5743L20.4255 29.7587H22.2491L22.721 28.5735C22.786 28.4102 22.9303 28.288 23.1067 28.2476C23.8908 28.0675 24.6378 27.7681 25.3264 27.3585C25.4807 27.2665 25.6722 27.2542 25.8378 27.3252L27.0397 27.841L28.329 26.5953L27.7952 25.4344C27.7217 25.2745 27.7345 25.0895 27.8296 24.9404C28.2536 24.2755 28.5635 23.5534 28.7499 22.7951C28.7921 22.6246 28.9182 22.4852 29.0872 22.4224L30.3131 21.9665V20.2046L29.0869 19.7487C28.9166 19.6862 28.7905 19.5468 28.7488 19.3764ZM21.335 26.3423C18.3355 26.3423 15.8949 23.9843 15.8949 21.0863C15.8949 18.1883 18.3355 15.8303 21.335 15.8303C24.3345 15.8303 26.7751 18.1883 26.7751 21.0863C26.7751 23.9843 24.3349 26.3423 21.335 26.3423ZM21.335 16.8929C18.9416 16.8929 16.9947 18.7739 16.9947 21.0863C16.9947 23.3987 18.9416 25.2797 21.335 25.2797C23.7284 25.2797 25.6753 23.3987 25.6753 21.0863C25.6753 18.7739 23.7284 16.8929 21.335 16.8929ZM19.5629 6.06322L21.1439 7.95138C21.2418 8.06836 21.3868 8.13975 21.5423 8.1476C21.552 8.14797 21.5617 8.14834 21.5714 8.14834C21.7168 8.14834 21.8568 8.09266 21.9601 7.99287L23.068 6.92246C23.2827 6.71503 23.2827 6.37866 23.068 6.17123C22.8533 5.9638 22.5052 5.9638 22.2905 6.17123L21.6147 6.82416L20.4182 5.39496C20.2271 5.16698 19.8809 5.13147 19.6449 5.3161C19.4085 5.50073 19.3722 5.83523 19.5629 6.06322Z" fill="black" fill-opacity="0.2"/>
</g>
<defs>
<linearGradient id="paint0_linear_7129_7201" x1="21" y1="3" x2="21" y2="37" gradientUnits="userSpaceOnUse">
<stop stop-color="#FF0F0F"/>
<stop offset="1" stop-color="#FF4849"/>
</linearGradient>
<clipPath id="clip0_7129_7201">
<rect width="39.7513" height="40.3589" fill="white" transform="translate(0.796875 0.992188)"/>
</clipPath>
</defs>
</svg>
