<svg width="60" height="60" viewBox="0 0 60 60" fill="none" xmlns="http://www.w3.org/2000/svg">
<path fill-rule="evenodd" clip-rule="evenodd" d="M46.4541 36.8459L49.1124 35.3838L52.3067 37.1407C54.9616 38.6009 54.9616 42.4157 52.3067 43.8759L32.0012 55.0439C30.8478 55.6783 29.4501 55.6783 28.2968 55.0439L7.99117 43.8759C5.33628 42.4157 5.33628 38.6009 7.99116 37.1407L11.1855 35.3838L13.8439 36.8459L9.22595 39.3857C8.341 39.8724 8.341 41.1441 9.22595 41.6308L29.5316 52.7989C29.916 53.0103 30.382 53.0103 30.7663 52.7989L51.072 41.6308C51.9569 41.1441 51.9569 39.8724 51.072 39.3857L46.4541 36.8459Z" fill="black"/>
<path fill-rule="evenodd" clip-rule="evenodd" d="M11.1857 25.1348L7.99116 26.8917C5.33628 28.3519 5.33628 32.1668 7.99117 33.6269L28.2968 44.795C29.4501 45.4293 30.8478 45.4293 32.0012 44.795L52.3067 33.6269C54.9616 32.1667 54.9616 28.3519 52.3067 26.8917L49.1125 25.1349L46.4542 26.597L51.072 29.1368C51.9569 29.6235 51.9569 30.8952 51.072 31.3819L30.7663 42.55C30.382 42.7614 29.916 42.7614 29.5316 42.55L9.22595 31.3819C8.341 30.8952 8.341 29.6235 9.22595 29.1368L13.844 26.5969L11.1857 25.1348Z" fill="black"/>
<path fill-rule="evenodd" clip-rule="evenodd" d="M30.7678 7.72082C30.3834 7.50937 29.9174 7.50937 29.5331 7.72082L9.22742 18.8889C8.34245 19.3757 8.34245 20.6472 9.22742 21.134L29.5331 32.302C29.9174 32.5135 30.3834 32.5135 30.7678 32.302L51.0734 21.134C51.9584 20.6472 51.9584 19.3757 51.0734 18.8889L30.7678 7.72082ZM28.2982 5.47575C29.4516 4.84142 30.8493 4.84142 32.0026 5.47574L52.3081 16.6438C54.9631 18.104 54.9631 21.9188 52.3081 23.379L32.0026 34.5472C30.8493 35.1815 29.4516 35.1815 28.2982 34.5472L7.99263 23.379C5.33775 21.9188 5.33774 18.104 7.99263 16.6438L28.2982 5.47575Z" fill="black"/>
</svg>
