<svg width="60" height="60" viewBox="0 0 60 60" fill="none" xmlns="http://www.w3.org/2000/svg">
<path d="M20.4969 37.8826L20.497 37.8824L20.4928 37.878C18.6141 35.9004 17.8162 32.9251 17.7162 30.0336C17.7171 23.2791 23.1806 17.7172 30.0343 17.7172C36.8892 17.7172 42.3525 23.1805 42.3525 30.0353C42.3525 36.7906 36.8887 42.3535 30.0343 42.3535C25.7624 42.3535 22.5843 40.3675 20.4969 37.8826ZM21.0506 35.3725L20.9944 35.4288L21.0365 35.4962C22.0437 37.1077 23.1569 38.3246 24.6795 39.1367L24.7449 39.1716L24.7973 39.1192L27.6014 36.3151C27.8804 36.0361 28.2427 35.9529 28.5005 36.0388L28.5004 36.0391L28.5079 36.041C30.5442 36.55 32.8838 35.9399 34.4113 34.4123C35.6311 33.1926 36.3452 31.4629 36.2431 29.8288L36.2292 29.6076L36.0726 29.7643L32.968 32.8688C32.8738 32.9631 32.7835 33.0298 32.6852 33.0735C32.5872 33.117 32.4763 33.14 32.3377 33.14C32.1992 33.14 32.0882 33.117 31.9903 33.0735C31.892 33.0299 31.8019 32.9633 31.7078 32.8692C31.7077 32.8691 31.7075 32.869 31.7074 32.8688L27.4019 28.4632L27.4011 28.4624C27.0396 28.1009 27.0396 27.5633 27.4011 27.2018L30.6058 23.9971L30.7632 23.8396L30.5409 23.8266C28.8084 23.7247 27.0791 24.4374 25.8588 25.6572C24.2274 27.1875 23.7211 29.4287 24.2287 31.5607L24.229 31.5618C24.2756 31.7481 24.2741 31.9044 24.2304 32.0464C24.1865 32.1891 24.0974 32.3258 23.9549 32.4683L21.0506 35.3725ZM26.5587 39.7789L26.4476 39.89L26.5952 39.9436C27.7076 40.3481 28.8207 40.5505 30.0343 40.5505C35.8974 40.5505 40.5501 35.8994 40.4494 30.0345C40.449 24.2719 35.7982 19.5201 29.9342 19.5201C24.1713 19.5201 19.419 24.171 19.419 30.0353C19.419 31.2479 19.6211 32.4613 20.0259 33.5746L20.0795 33.7222L20.1906 33.6111L22.1935 31.6082L22.231 31.5707L22.221 31.5186C21.7264 28.9469 22.5178 26.2766 24.3967 24.3977C25.8787 22.9157 27.9557 22.1236 30.0343 22.1236C31.0213 22.1236 31.9115 22.3207 32.9084 22.6197C33.1597 22.7042 33.3422 22.9602 33.4394 23.2416C33.4376 23.3782 33.4141 23.5368 33.3688 23.6842C33.3212 23.8389 33.2524 23.9719 33.1683 24.056L29.3628 27.8615L29.292 27.9322L29.3628 28.003L32.267 30.9072L32.3377 30.9779L32.4084 30.9072L36.1138 27.2018L36.1208 27.1948L36.1263 27.1866C36.2987 26.928 36.65 26.8379 36.9128 26.9255C37.0453 26.9697 37.1827 27.0601 37.2993 27.1768C37.416 27.2934 37.5064 27.4308 37.5506 27.5633L37.5509 27.5643C38.5399 30.4324 37.8481 33.4968 35.672 35.6729C33.793 37.5519 31.1228 38.3432 28.551 37.8487L28.4989 37.8387L28.4614 37.8762L26.5587 39.7789Z" fill="black" stroke="white" stroke-width="0.2"/>
<path d="M53.2482 25.3259L53.2494 25.3261C53.4794 25.3721 53.6533 25.485 53.7482 25.6327C53.8415 25.7777 53.8666 25.9686 53.7771 26.1924L53.7699 26.2103V26.2295V33.8407C53.7699 34.2973 53.4996 34.654 53.0491 34.744L53.0479 34.7443L46.939 36.0462L46.8868 36.0573L46.867 36.1069C46.8223 36.2185 46.7781 36.3338 46.7331 36.4512C46.5729 36.8688 46.4033 37.3111 46.173 37.6949L46.1411 37.7481L46.1746 37.8004L49.5796 43.1081L49.5854 43.1172L49.593 43.1248C49.7149 43.2467 49.7626 43.4376 49.7396 43.6439C49.7168 43.8498 49.625 44.0531 49.4929 44.1852L44.085 49.593C43.8138 49.8642 43.3684 49.9497 43.014 49.6839L43.0141 49.6837L43.008 49.6797L37.7002 46.2748L37.648 46.2413L37.5948 46.2732C37.211 46.5035 36.7687 46.6731 36.351 46.8332C36.2337 46.8782 36.1183 46.9225 36.0067 46.9671L35.9572 46.9869L35.9461 47.0391L34.6442 53.148L34.6439 53.1493C34.5538 53.5998 34.1972 53.87 33.7405 53.87H26.1294C25.6727 53.87 25.3161 53.5998 25.226 53.1493L25.2257 53.148L23.9238 47.0391L23.9127 46.9869L23.8632 46.9671C23.7516 46.9225 23.6362 46.8782 23.5189 46.8332C23.1012 46.6731 22.6589 46.5035 22.2751 46.2732L22.2219 46.2413L22.1697 46.2748L16.8619 49.6797L16.8529 49.6856L16.8452 49.6932C16.7234 49.815 16.5325 49.8627 16.3261 49.8398C16.1202 49.8169 15.917 49.7251 15.7849 49.593L10.377 44.1852C10.1058 43.914 10.0203 43.4685 10.2861 43.1141L10.2864 43.1143L10.2903 43.1081L13.6953 37.8004L13.7288 37.7481L13.6969 37.6949C13.4666 37.3111 13.297 36.8688 13.1368 36.4512C13.0918 36.3339 13.0476 36.2185 13.0029 36.1069L12.9831 36.0573L12.9309 36.0462L6.82201 34.7443L6.82078 34.7441C6.37025 34.654 6.1 34.2973 6.1 33.8407V26.2295C6.1 25.7729 6.37025 25.4162 6.82078 25.3261L6.82201 25.3259L12.9309 24.024L12.9831 24.0129L13.0029 23.9633C13.0476 23.8517 13.0918 23.7363 13.1368 23.619C13.297 23.2014 13.4666 22.7591 13.6969 22.3753L13.7288 22.3221L13.6953 22.2698L10.2903 16.9621L10.2905 16.9619L10.2861 16.9561C10.0239 16.6064 10.0999 16.1594 10.3821 15.7798L15.7798 10.3821C16.1594 10.0999 16.6064 10.0239 16.9561 10.2861L16.9559 10.2864L16.9621 10.2903L22.2698 13.6953L22.3221 13.7288L22.3753 13.6969C22.7591 13.4666 23.2014 13.297 23.619 13.1368C23.7363 13.0918 23.8517 13.0476 23.9633 13.0029L24.0129 12.9831L24.024 12.9309L25.3259 6.82201L25.3261 6.82078C25.4162 6.37025 25.7729 6.1 26.2295 6.1H33.8407C34.2973 6.1 34.654 6.37025 34.744 6.82078L34.7443 6.82201L36.0462 12.9309L36.0573 12.9831L36.1069 13.0029C36.2185 13.0476 36.3339 13.0918 36.4512 13.1368C36.8688 13.297 37.3111 13.4666 37.6949 13.6969L37.7481 13.7288L37.8004 13.6953L43.1081 10.2903L43.1082 10.2905L43.1141 10.2861C43.2924 10.1524 43.4901 10.109 43.6886 10.142C43.8891 10.1755 44.0963 10.2882 44.2853 10.4771L49.6932 15.885C49.9644 16.1562 50.0499 16.6017 49.784 16.9561L49.7838 16.9559L49.7799 16.9621L46.3749 22.2698L46.3414 22.3221L46.3733 22.3753C46.6036 22.7591 46.7732 23.2014 46.9334 23.619C46.9784 23.7363 47.0226 23.8517 47.0673 23.9633L47.0871 24.0129L47.1393 24.024L53.2482 25.3259ZM52.0888 33.1371L52.1673 33.1198V33.0395V27.0307V26.9493L52.0875 26.9328L46.285 25.7323C46.1542 25.6875 46.019 25.5979 45.9039 25.4828C45.7872 25.3662 45.6968 25.2288 45.6526 25.0963L45.6527 25.0963L45.6514 25.0928L45.6506 25.0908C45.3507 24.2909 45.0487 23.4856 44.6457 22.6797L44.6464 22.6794L44.6395 22.669C44.4616 22.4021 44.4616 22.0453 44.6395 21.7784L44.6403 21.7773L47.9451 16.6698L47.989 16.602L47.9318 16.5448L43.6255 12.2385L43.5684 12.1813L43.5005 12.2253L38.4038 15.5231C38.2587 15.571 38.0976 15.6157 37.9395 15.627C37.7777 15.6385 37.627 15.6146 37.5014 15.5308L37.5018 15.5302L37.4906 15.5246C36.6848 15.1217 35.8795 14.8197 35.0797 14.5198L35.0775 14.5189L35.0777 14.5183L35.0667 14.5156C34.7136 14.4273 34.5324 14.1652 34.4379 13.8848L33.1371 7.98141L33.1198 7.90292H33.0395H27.0307H26.9493L26.9328 7.98266L25.7323 13.7852C25.6875 13.916 25.5979 14.0512 25.4828 14.1663C25.3662 14.283 25.2288 14.3734 25.0963 14.4176L25.0963 14.4175L25.0928 14.4188L25.0907 14.4196C24.2909 14.7195 23.4856 15.0215 22.6797 15.4244L22.6794 15.4238L22.669 15.4307C22.4021 15.6086 22.0453 15.6086 21.7784 15.4307L21.7773 15.4299L16.6698 12.1251L16.602 12.0812L16.5448 12.1384L12.2385 16.4446L12.1813 16.5018L12.2253 16.5697L15.5231 21.6664C15.571 21.8115 15.6157 21.9726 15.627 22.1307C15.6385 22.2925 15.6146 22.4432 15.5308 22.5688L15.5302 22.5684L15.5246 22.5796C15.1217 23.3854 14.8197 24.1907 14.5198 24.9905L14.5189 24.9927L14.5183 24.9924L14.5156 25.0035C14.4273 25.3566 14.1652 25.5378 13.8848 25.6323L7.98141 26.9331L7.90292 26.9503V27.0307V33.0395V33.1209L7.98266 33.1374L13.7852 34.3379C13.916 34.3827 14.0512 34.4723 14.1663 34.5874C14.283 34.704 14.3734 34.8414 14.4176 34.9739L14.4175 34.9739L14.4188 34.9774L14.4196 34.9795C14.7195 35.7793 15.0215 36.5846 15.4244 37.3905L15.4238 37.3908L15.4307 37.4012C15.6086 37.6681 15.6086 38.0249 15.4307 38.2918L15.4299 38.2929L12.1251 43.4004L12.0812 43.4682L12.1384 43.5254L16.4446 47.8317L16.5018 47.8889L16.5697 47.8449L21.6664 44.5471C21.8115 44.4991 21.9726 44.4545 22.1307 44.4432C22.2925 44.4317 22.4432 44.4556 22.5688 44.5394L22.5684 44.54L22.5796 44.5456C23.3854 44.9485 24.1907 45.2505 24.9905 45.5504L24.9927 45.5513L24.9924 45.5519L25.0035 45.5546C25.3566 45.6429 25.5378 45.905 25.6323 46.1854L26.9331 52.0888L26.9503 52.1673H27.0307H33.0395H33.1209L33.1374 52.0875L34.3379 46.285C34.3827 46.1542 34.4723 46.019 34.5874 45.9039C34.704 45.7872 34.8414 45.6968 34.9739 45.6526L34.9739 45.6527L34.9774 45.6514L34.9794 45.6506C35.7793 45.3507 36.5846 45.0487 37.3905 44.6457L37.3908 44.6464L37.4012 44.6395C37.6681 44.4616 38.0249 44.4616 38.2918 44.6395L38.2929 44.6403L43.4004 47.9451L43.4682 47.989L43.5254 47.9318L47.8317 43.6255L47.8889 43.5684L47.8449 43.5005L44.5471 38.4038C44.4991 38.2587 44.4545 38.0976 44.4432 37.9395C44.4317 37.7777 44.4556 37.627 44.5394 37.5014L44.54 37.5018L44.5456 37.4906C44.9485 36.6848 45.2505 35.8795 45.5504 35.0797L45.5513 35.0775L45.5519 35.0777L45.5546 35.0667C45.6429 34.7136 45.905 34.5324 46.1854 34.4379L52.0888 33.1371Z" fill="black" stroke="white" stroke-width="0.2"/>
</svg>
