<svg width="60" height="60" viewBox="0 0 60 60" fill="none" xmlns="http://www.w3.org/2000/svg">
<path d="M52.3262 43.7017H49.7656V42.6038C49.7656 39.5823 47.6372 37.046 44.7901 36.392C45.3753 35.8187 45.7765 35.0841 45.9425 34.2819C46.1086 33.4796 46.0319 32.6461 45.7223 31.8876C45.4127 31.1291 44.8842 30.4801 44.2042 30.0232C43.5242 29.5663 42.7235 29.3223 41.9043 29.3223C41.0851 29.3223 40.2844 29.5663 39.6044 30.0232C38.9244 30.4801 38.3959 31.1291 38.0863 31.8876C37.7767 32.6461 37.7 33.4796 37.866 34.2819C38.0321 35.0841 38.4333 35.8187 39.0185 36.392C36.1714 37.046 34.043 39.5823 34.043 42.6038V43.7017H25.1601V42.6038C25.1601 39.5823 23.0308 37.046 20.1846 36.392C20.7697 35.8186 21.1708 35.084 21.3367 34.2818C21.5026 33.4796 21.4259 32.6462 21.1162 31.8878C20.8066 31.1294 20.2781 30.4804 19.5981 30.0235C18.9181 29.5667 18.1175 29.3227 17.2983 29.3227C16.4792 29.3227 15.6785 29.5667 14.9986 30.0235C14.3186 30.4804 13.7901 31.1294 13.4805 31.8878C13.1708 32.6462 13.0941 33.4796 13.26 34.2818C13.4259 35.084 13.827 35.8186 14.4121 36.392C11.5659 37.046 9.43746 39.5814 9.43746 42.6038V43.7017H7.67383C7.49512 43.7017 7.32373 43.7727 7.19736 43.899C7.07099 44.0254 7 44.1968 7 44.3755V47.0708C7 47.2495 7.07099 47.4209 7.19736 47.5473C7.32373 47.6736 7.49512 47.7446 7.67383 47.7446H9.56055V52.3267C9.56055 52.5054 9.63154 52.6768 9.75791 52.8031C9.88427 52.9295 10.0557 53.0005 10.2344 53.0005H49.7656C49.9443 53.0005 50.1157 52.9295 50.2421 52.8031C50.3685 52.6768 50.4395 52.5054 50.4395 52.3267V47.7446H52.3262C52.5049 47.7446 52.6763 47.6736 52.8026 47.5473C52.929 47.4209 53 47.2495 53 47.0708V44.3755C53 44.1968 52.929 44.0254 52.8026 43.899C52.6763 43.7727 52.5049 43.7017 52.3262 43.7017ZM41.9043 30.6743C42.4534 30.6743 42.9901 30.8371 43.4467 31.1422C43.9032 31.4472 44.259 31.8808 44.4691 32.3881C44.6793 32.8954 44.7342 33.4536 44.6271 33.9921C44.52 34.5306 44.2556 35.0253 43.8673 35.4135C43.4791 35.8018 42.9844 36.0662 42.4459 36.1733C41.9074 36.2804 41.3492 36.2255 40.8419 36.0153C40.3346 35.8052 39.901 35.4494 39.596 34.9928C39.2909 34.5363 39.1281 33.9996 39.1281 33.4505C39.1288 32.7144 39.4216 32.0087 39.942 31.4882C40.4625 30.9678 41.1682 30.675 41.9043 30.6743ZM35.3906 42.6038C35.3906 39.8303 37.6682 37.5725 40.4668 37.5725H43.3418C46.1404 37.5725 48.418 39.8285 48.418 42.6038V43.7017H35.3906V42.6038ZM17.2988 30.6743C17.8479 30.6743 18.3846 30.8371 18.8411 31.1422C19.2977 31.4472 19.6535 31.8808 19.8636 32.3881C20.0738 32.8954 20.1287 33.4536 20.0216 33.9921C19.9145 34.5306 19.6501 35.0253 19.2618 35.4135C18.8736 35.8018 18.3789 36.0662 17.8404 36.1733C17.3019 36.2804 16.7437 36.2255 16.2364 36.0153C15.7291 35.8052 15.2955 35.4494 14.9905 34.9928C14.6854 34.5363 14.5226 33.9996 14.5226 33.4505C14.5233 32.7144 14.816 32.0087 15.3365 31.4882C15.857 30.9678 16.5627 30.675 17.2988 30.6743ZM10.7851 42.6038C10.7851 39.8303 13.0618 37.5725 15.8613 37.5725H18.7363C21.5349 37.5725 23.8125 39.8285 23.8125 42.6038V43.7017H10.7851V42.6038ZM10.9082 47.7446H17.6465V51.6528H10.9082V47.7446ZM41.0059 47.7446V51.6528H18.9941V47.7446H41.0059ZM49.0918 51.6528H42.3535V47.7446H49.0918V51.6528ZM51.6523 46.397H8.34766V45.0493H51.6523V46.397Z" fill="black"/>
<path d="M9.4707 22.7227H22.6238L25.6507 26.5069C25.8948 26.8126 26.2279 27.0349 26.6039 27.1429C26.9799 27.251 27.3802 27.2394 27.7494 27.11C28.1186 26.9805 28.4384 26.7395 28.6645 26.4202C28.8907 26.101 29.012 25.7194 29.0117 25.3281V9.4707C29.0108 8.81572 28.7502 8.18784 28.287 7.7247C27.8239 7.26156 27.196 7.00095 26.541 7H9.4707C8.81572 7.00095 8.18784 7.26156 7.7247 7.7247C7.26156 8.18784 7.00095 8.81572 7 9.4707V20.252C7.00095 20.9069 7.26156 21.5348 7.7247 21.998C8.18784 22.4611 8.81572 22.7217 9.4707 22.7227ZM8.34766 9.4707C8.34813 9.173 8.4666 8.88762 8.67711 8.67711C8.88762 8.4666 9.173 8.34813 9.4707 8.34766H26.541C26.8387 8.34813 27.1241 8.4666 27.3346 8.67711C27.5451 8.88762 27.6636 9.173 27.6641 9.4707V25.3281C27.6646 25.4402 27.6302 25.5497 27.5656 25.6414C27.5011 25.733 27.4095 25.8023 27.3037 25.8394C27.1979 25.8766 27.0832 25.8799 26.9755 25.8488C26.8678 25.8177 26.7724 25.7538 26.7027 25.6659L24.3488 22.7227H25.3111C25.4898 22.7227 25.6612 22.6517 25.7875 22.5253C25.9139 22.3989 25.9849 22.2275 25.9849 22.0488C25.9849 21.8701 25.9139 21.6987 25.7875 21.5724C25.6612 21.446 25.4898 21.375 25.3111 21.375H9.4707C9.173 21.3745 8.88762 21.2561 8.67711 21.0455C8.4666 20.835 8.34813 20.5497 8.34766 20.252V9.4707Z" fill="black"/>
<path d="M11.2676 19.1289H22.0488C22.2275 19.1289 22.3989 19.0579 22.5253 18.9315C22.6517 18.8052 22.7227 18.6338 22.7227 18.4551C22.7227 18.2764 22.6517 18.105 22.5253 17.9786C22.3989 17.8522 22.2275 17.7812 22.0488 17.7812H11.2676C11.0889 17.7812 10.9175 17.8522 10.7911 17.9786C10.6647 18.105 10.5938 18.2764 10.5938 18.4551C10.5938 18.6338 10.6647 18.8052 10.7911 18.9315C10.9175 19.0579 11.0889 19.1289 11.2676 19.1289Z" fill="black"/>
<path d="M14.8613 11.9414H24.7441C24.9229 11.9414 25.0942 11.8704 25.2206 11.744C25.347 11.6177 25.418 11.4463 25.418 11.2676C25.418 11.0889 25.347 10.9175 25.2206 10.7911C25.0942 10.6647 24.9229 10.5938 24.7441 10.5938H14.8613C14.6826 10.5938 14.5112 10.6647 14.3849 10.7911C14.2585 10.9175 14.1875 11.0889 14.1875 11.2676C14.1875 11.4463 14.2585 11.6177 14.3849 11.744C14.5112 11.8704 14.6826 11.9414 14.8613 11.9414Z" fill="black"/>
<path d="M11.2676 11.9414H12.166C12.3447 11.9414 12.5161 11.8704 12.6425 11.744C12.7689 11.6177 12.8398 11.4463 12.8398 11.2676C12.8398 11.0889 12.7689 10.9175 12.6425 10.7911C12.5161 10.6647 12.3447 10.5938 12.166 10.5938H11.2676C11.0889 10.5938 10.9175 10.6647 10.7911 10.7911C10.6647 10.9175 10.5938 11.0889 10.5938 11.2676C10.5938 11.4463 10.6647 11.6177 10.7911 11.744C10.9175 11.8704 11.0889 11.9414 11.2676 11.9414Z" fill="black"/>
<path d="M11.2676 15.5352H24.7441C24.9229 15.5352 25.0942 15.4642 25.2206 15.3378C25.347 15.2114 25.418 15.04 25.418 14.8613C25.418 14.6826 25.347 14.5112 25.2206 14.3849C25.0942 14.2585 24.9229 14.1875 24.7441 14.1875H11.2676C11.0889 14.1875 10.9175 14.2585 10.7911 14.3849C10.6647 14.5112 10.5938 14.6826 10.5938 14.8613C10.5938 15.04 10.6647 15.2114 10.7911 15.3378C10.9175 15.4642 11.0889 15.5352 11.2676 15.5352Z" fill="black"/>
<path d="M50.5293 7H33.459C32.804 7.00095 32.1761 7.26156 31.713 7.7247C31.2498 8.18784 30.9892 8.81572 30.9883 9.4707V25.3281C30.9878 25.7194 31.109 26.1012 31.3351 26.4206C31.5612 26.74 31.881 26.9811 32.2502 27.1107C32.6194 27.2403 33.0198 27.2519 33.3959 27.1439C33.772 27.0358 34.1052 26.8135 34.3493 26.5078L37.3762 22.7227H50.5293C51.1843 22.7217 51.8122 22.4611 52.2753 21.998C52.7384 21.5348 52.9991 20.9069 53 20.252V9.4707C52.9991 8.81572 52.7384 8.18784 52.2753 7.7247C51.8122 7.26156 51.1843 7.00095 50.5293 7ZM51.6523 20.252C51.6519 20.5497 51.5334 20.835 51.3229 21.0455C51.1124 21.2561 50.827 21.3745 50.5293 21.375H34.6889C34.5102 21.375 34.3388 21.446 34.2125 21.5724C34.0861 21.6987 34.0151 21.8701 34.0151 22.0488C34.0151 22.2275 34.0861 22.3989 34.2125 22.5253C34.3388 22.6517 34.5102 22.7227 34.6889 22.7227H35.6512L33.2973 25.665C33.2276 25.7528 33.1324 25.8167 33.0247 25.8478C32.9171 25.8789 32.8024 25.8757 32.6967 25.8387C32.591 25.8016 32.4994 25.7325 32.4348 25.641C32.3701 25.5495 32.3356 25.4402 32.3359 25.3281V9.4707C32.3364 9.173 32.4549 8.88762 32.6654 8.67711C32.8759 8.4666 33.1613 8.34813 33.459 8.34766H50.5293C50.827 8.34813 51.1124 8.4666 51.3229 8.67711C51.5334 8.88762 51.6519 9.173 51.6523 9.4707V20.252Z" fill="black"/>
<path d="M48.7324 17.7812H37.9512C37.7725 17.7812 37.6011 17.8522 37.4747 17.9786C37.3483 18.105 37.2773 18.2764 37.2773 18.4551C37.2773 18.6338 37.3483 18.8052 37.4747 18.9315C37.6011 19.0579 37.7725 19.1289 37.9512 19.1289H48.7324C48.9111 19.1289 49.0825 19.0579 49.2089 18.9315C49.3353 18.8052 49.4062 18.6338 49.4062 18.4551C49.4062 18.2764 49.3353 18.105 49.2089 17.9786C49.0825 17.8522 48.9111 17.7812 48.7324 17.7812Z" fill="black"/>
<path d="M35.2559 11.9414H45.1387C45.3174 11.9414 45.4888 11.8704 45.6151 11.744C45.7415 11.6177 45.8125 11.4463 45.8125 11.2676C45.8125 11.0889 45.7415 10.9175 45.6151 10.7911C45.4888 10.6647 45.3174 10.5938 45.1387 10.5938H35.2559C35.0771 10.5938 34.9058 10.6647 34.7794 10.7911C34.653 10.9175 34.582 11.0889 34.582 11.2676C34.582 11.4463 34.653 11.6177 34.7794 11.744C34.9058 11.8704 35.0771 11.9414 35.2559 11.9414Z" fill="black"/>
<path d="M48.7324 10.5938H47.834C47.6553 10.5938 47.4839 10.6647 47.3575 10.7911C47.2311 10.9175 47.1602 11.0889 47.1602 11.2676C47.1602 11.4463 47.2311 11.6177 47.3575 11.744C47.4839 11.8704 47.6553 11.9414 47.834 11.9414H48.7324C48.9111 11.9414 49.0825 11.8704 49.2089 11.744C49.3353 11.6177 49.4062 11.4463 49.4062 11.2676C49.4062 11.0889 49.3353 10.9175 49.2089 10.7911C49.0825 10.6647 48.9111 10.5938 48.7324 10.5938Z" fill="black"/>
<path d="M48.7324 14.1875H35.2559C35.0771 14.1875 34.9058 14.2585 34.7794 14.3849C34.653 14.5112 34.582 14.6826 34.582 14.8613C34.582 15.04 34.653 15.2114 34.7794 15.3378C34.9058 15.4642 35.0771 15.5352 35.2559 15.5352H48.7324C48.9111 15.5352 49.0825 15.4642 49.2089 15.3378C49.3353 15.2114 49.4062 15.04 49.4062 14.8613C49.4062 14.6826 49.3353 14.5112 49.2089 14.3849C49.0825 14.2585 48.9111 14.1875 48.7324 14.1875Z" fill="black"/>
<path d="M23.9355 32.2461C23.9365 33.0202 24.2444 33.7624 24.7918 34.3097C25.3392 34.8571 26.0813 35.1651 26.8555 35.166H33.1445C33.9189 35.166 34.6616 34.8584 35.2092 34.3108C35.7568 33.7632 36.0645 33.0205 36.0645 32.2461C36.0645 31.4717 35.7568 30.729 35.2092 30.1814C34.6616 29.6338 33.9189 29.3262 33.1445 29.3262H26.8555C26.0813 29.3271 25.3392 29.6351 24.7918 30.1824C24.2444 30.7298 23.9365 31.472 23.9355 32.2461ZM34.7168 32.2461C34.7163 32.6629 34.5505 33.0626 34.2558 33.3573C33.961 33.6521 33.5614 33.8179 33.1445 33.8184H26.8555C26.4385 33.8184 26.0386 33.6527 25.7437 33.3579C25.4489 33.063 25.2832 32.6631 25.2832 32.2461C25.2832 31.8291 25.4489 31.4292 25.7437 31.1343C26.0386 30.8395 26.4385 30.6738 26.8555 30.6738H33.1445C33.5614 30.6743 33.961 30.8401 34.2558 31.1349C34.5505 31.4296 34.7163 31.8292 34.7168 32.2461Z" fill="black"/>
</svg>
