<svg width="60" height="60" viewBox="0 0 60 60" fill="none" xmlns="http://www.w3.org/2000/svg">
<mask id="path-1-outside-1_7129_7420" maskUnits="userSpaceOnUse" x="9.34473" y="6.27246" width="41" height="47" fill="black">
<rect fill="white" x="9.34473" y="6.27246" width="41" height="47"/>
<path d="M37.9633 11.9101C37.9388 11.8677 37.9229 11.8209 37.9165 11.7724C37.9101 11.7239 37.9134 11.6746 37.926 11.6273C37.9387 11.58 37.9605 11.5357 37.9903 11.4968C38.0201 11.458 38.0573 11.4254 38.0997 11.4009L40.2802 10.1422C40.3226 10.117 40.3696 10.1004 40.4184 10.0935C40.4673 10.0866 40.517 10.0895 40.5648 10.1019C40.6125 10.1144 40.6573 10.1362 40.6966 10.1661C40.7358 10.196 40.7687 10.2334 40.7934 10.2762C40.8181 10.3189 40.834 10.3661 40.8403 10.415C40.8466 10.464 40.8431 10.5137 40.83 10.5613C40.8169 10.6088 40.7945 10.6534 40.7641 10.6922C40.7337 10.7311 40.6959 10.7635 40.6528 10.7876L38.4724 12.0467C38.3867 12.0959 38.2851 12.1092 38.1897 12.0836C38.0943 12.058 38.0129 11.9955 37.9633 11.9101ZM36.1175 10.3615C36.1583 10.3765 36.2014 10.3842 36.2449 10.3842C36.3214 10.3842 36.396 10.3606 36.4586 10.3166C36.5212 10.2727 36.5688 10.2105 36.5949 10.1386L37.4561 7.77214C37.4898 7.67931 37.4853 7.57687 37.4435 7.48736C37.4017 7.39786 37.3261 7.32861 37.2333 7.29487C37.1404 7.26112 37.038 7.26564 36.9485 7.30742C36.859 7.34921 36.7897 7.42484 36.756 7.51767L35.8948 9.88397C35.878 9.92995 35.8705 9.97878 35.8726 10.0277C35.8747 10.0766 35.8864 10.1246 35.9071 10.1689C35.9278 10.2133 35.957 10.2531 35.9931 10.2861C36.0292 10.3192 36.0715 10.3448 36.1175 10.3615ZM38.3821 14.2833C38.3735 14.3315 38.3745 14.3809 38.3851 14.4287C38.3956 14.4765 38.4155 14.5217 38.4435 14.5618C38.4716 14.6019 38.5073 14.6361 38.5485 14.6624C38.5898 14.6887 38.6358 14.7066 38.684 14.7151L41.1636 15.1522C41.2603 15.1679 41.3593 15.1449 41.4392 15.0882C41.5191 15.0315 41.5734 14.9456 41.5905 14.8491C41.6075 14.7527 41.5859 14.6533 41.5303 14.5727C41.4747 14.492 41.3895 14.4365 41.2933 14.4182L38.8135 13.9811C38.7162 13.9641 38.6162 13.9864 38.5353 14.043C38.4544 14.0997 38.3993 14.1861 38.3821 14.2833ZM50.0001 41.9787V45.8696C49.9995 46.3123 49.8234 46.7367 49.5104 47.0497C49.1974 47.3627 48.773 47.5388 48.3304 47.5394H33.2438L34.3547 51.982H36.0095C36.0588 51.9813 36.1078 51.9904 36.1536 52.0088C36.1995 52.0272 36.2411 52.0545 36.2763 52.0892C36.3115 52.1238 36.3394 52.1651 36.3584 52.2107C36.3775 52.2562 36.3873 52.3051 36.3873 52.3544C36.3873 52.4038 36.3775 52.4527 36.3584 52.4982C36.3394 52.5438 36.3115 52.5851 36.2763 52.6197C36.2411 52.6544 36.1995 52.6817 36.1536 52.7001C36.1078 52.7185 36.0588 52.7276 36.0095 52.7269H24.3369C24.2876 52.7276 24.2386 52.7185 24.1927 52.7001C24.1469 52.6817 24.1052 52.6544 24.0701 52.6197C24.0349 52.5851 24.007 52.5438 23.988 52.4982C23.9689 52.4527 23.9591 52.4038 23.9591 52.3544C23.9591 52.3051 23.9689 52.2562 23.988 52.2107C24.007 52.1651 24.0349 52.1238 24.0701 52.0892C24.1052 52.0545 24.1469 52.0272 24.1927 52.0088C24.2386 51.9904 24.2876 51.9813 24.3369 51.982H25.9917L27.1021 47.5394H12.0157C11.5731 47.5388 11.1488 47.3626 10.8359 47.0496C10.5229 46.7366 10.3469 46.3122 10.3465 45.8696V41.9908L10.3447 41.982V19.9402C10.3452 19.4957 10.522 19.0695 10.8363 18.7552C11.1506 18.4408 11.5768 18.264 12.0213 18.2635H20.938L24.9568 15.9435L29.616 7.52457C29.6479 7.46684 29.6946 7.41863 29.7513 7.38488C29.808 7.35112 29.8727 7.33303 29.9387 7.33245C30.0046 7.33188 30.0696 7.34883 30.1269 7.38159C30.1842 7.41434 30.2317 7.46172 30.2647 7.51888L32.8845 12.0615L33.0919 11.9418C33.6449 11.6253 34.3009 11.5408 34.916 11.7069C35.5312 11.873 36.0555 12.2761 36.3741 12.828C36.6927 13.3798 36.7796 14.0354 36.6158 14.6512C36.452 15.267 36.0509 15.7928 35.5002 16.1135L35.2911 16.2339L36.4614 18.2635H48.3251C48.7686 18.2651 49.1934 18.4425 49.5062 18.7568C49.8191 19.0712 49.9945 19.4967 49.9939 19.9402V41.95C49.995 41.9598 50.0001 41.9686 50.0001 41.9787ZM33.2576 12.7072L34.9206 15.5877L35.128 15.4678C35.3171 15.3586 35.4829 15.2132 35.6158 15.0399C35.7488 14.8666 35.8463 14.6689 35.9028 14.4579C35.9593 14.247 35.9737 14.027 35.9451 13.8104C35.9166 13.5939 35.8457 13.3852 35.7365 13.196C35.6273 13.0069 35.4819 12.8412 35.3086 12.7082C35.1354 12.5753 34.9376 12.4778 34.7267 12.4213C34.5157 12.3648 34.2957 12.3504 34.0792 12.3789C33.8627 12.4074 33.6539 12.4783 33.4648 12.5875L33.2576 12.7072ZM25.6609 16.2106L28.0881 20.4136L36.9355 20.5765L35.9236 18.8223V18.8216L29.9485 8.462L25.6609 16.2106ZM20.1202 19.8083C20.0987 19.8876 20.0932 19.9703 20.1039 20.0517C20.1146 20.1331 20.1413 20.2116 20.1825 20.2827L21.8224 23.1221C21.9055 23.2655 22.042 23.3701 22.2021 23.413C22.3621 23.4559 22.5327 23.4337 22.6764 23.3512L27.3616 20.6458L25.0965 16.7233L20.4116 19.4279C20.3404 19.469 20.278 19.5238 20.228 19.589C20.178 19.6543 20.1413 19.7289 20.1202 19.8083ZM23.8068 23.5605L26.3862 28.0278C26.4856 28.2004 26.618 28.3517 26.7759 28.4731C26.9339 28.5945 27.1142 28.6836 27.3065 28.7353C27.4989 28.7869 27.6996 28.8002 27.8971 28.7743C28.0946 28.7483 28.285 28.6837 28.4575 28.5841C28.63 28.4845 28.7812 28.3519 28.9025 28.1939C29.0237 28.0358 29.1126 27.8554 29.164 27.663C29.2155 27.4706 29.2285 27.2699 29.2024 27.0724C29.1762 26.8749 29.1114 26.6846 29.0116 26.5122L26.4319 22.0449L23.8068 23.5605ZM19.8844 21.4379C19.7034 21.5424 19.5713 21.7145 19.5172 21.9164C19.4631 22.1182 19.4914 22.3333 19.5958 22.5143C19.7003 22.6953 19.8724 22.8274 20.0743 22.8816C20.2762 22.9357 20.4913 22.9074 20.6723 22.8029L20.7504 22.7578L19.9625 21.3925L19.8844 21.4379ZM11.0897 41.6065H49.2489V19.9402C49.2497 19.6943 49.1529 19.458 48.9797 19.2833C48.8066 19.1086 48.5712 19.0098 48.3252 19.0084H36.8921L37.9105 20.7746C37.9431 20.8312 37.9603 20.8954 37.9603 20.9608C37.9602 21.0262 37.943 21.0904 37.9103 21.147C37.8775 21.2036 37.8305 21.2506 37.7739 21.2833C37.7172 21.3159 37.653 21.3331 37.5876 21.333H37.5807L27.9678 21.1568L27.0772 21.6708L29.6572 26.1395C29.9562 26.659 30.037 27.2759 29.8819 27.8549C29.7267 28.4339 29.3483 28.9277 28.8295 29.2281C28.3101 29.5276 27.6931 29.6087 27.1139 29.4536C26.5347 29.2986 26.0408 28.92 25.7405 28.401L23.1604 23.9321L23.049 23.9965C22.9549 24.0498 22.8546 24.0915 22.7505 24.1207C22.7202 24.1298 22.6899 24.1351 22.6596 24.1418C22.5827 24.159 22.5046 24.1693 22.4259 24.1728C22.4058 24.1734 22.3867 24.1803 22.3666 24.1803C22.3546 24.1803 22.3425 24.1761 22.3305 24.1754C22.2222 24.1739 22.1143 24.1597 22.0093 24.1332C21.8352 24.087 21.6721 24.0068 21.5292 23.8973C21.3864 23.7877 21.2666 23.6509 21.1769 23.4949L21.1239 23.4034L21.0449 23.4484C20.8128 23.5833 20.5492 23.6545 20.2808 23.6546C20.146 23.6544 20.0118 23.6365 19.8817 23.6016C19.5888 23.5231 19.3257 23.3595 19.1257 23.1315C18.9258 22.9035 18.7979 22.6213 18.7583 22.3206C18.7187 22.0199 18.7692 21.7143 18.9033 21.4423C19.0373 21.1703 19.2491 20.9441 19.5117 20.7924L19.5903 20.747L19.5373 20.6555C19.4185 20.4536 19.3545 20.224 19.3518 19.9897C19.349 19.7554 19.4075 19.5244 19.5216 19.3197C19.5373 19.2912 19.5554 19.2649 19.5728 19.2374C19.6136 19.1733 19.6596 19.1127 19.7104 19.0561C19.7238 19.041 19.7326 19.0227 19.7465 19.0086H12.0212C11.7741 19.0088 11.5372 19.1071 11.3625 19.2818C11.1878 19.4565 11.0896 19.6934 11.0894 19.9405L11.0897 41.6065ZM32.4761 47.5394H27.87L26.7591 51.982H33.5863L32.4761 47.5394ZM49.2548 42.3546H11.0915V45.8698C11.0917 46.1148 11.1892 46.3497 11.3625 46.523C11.5357 46.6963 11.7707 46.7937 12.0157 46.794H48.3304C48.5754 46.7937 48.8103 46.6962 48.9836 46.523C49.1568 46.3497 49.2543 46.1148 49.2546 45.8698L49.2548 42.3546ZM28.9563 44.5729C28.9563 44.3323 29.0276 44.097 29.1613 43.8969C29.2949 43.6968 29.4849 43.5408 29.7072 43.4487C29.9296 43.3566 30.1742 43.3325 30.4102 43.3794C30.6463 43.4263 30.8631 43.5422 31.0332 43.7123C31.2034 43.8824 31.3193 44.0992 31.3663 44.3353C31.4132 44.5713 31.3892 44.8159 31.2971 45.0382C31.205 45.2606 31.0491 45.4506 30.849 45.5843C30.6489 45.718 30.4137 45.7894 30.173 45.7894C29.8505 45.789 29.5413 45.6607 29.3132 45.4327C29.0851 45.2046 28.9568 44.8955 28.9563 44.5729ZM29.7015 44.5729C29.7015 44.6662 29.7291 44.7573 29.781 44.8349C29.8328 44.9124 29.9064 44.9729 29.9926 45.0086C30.0787 45.0442 30.1735 45.0536 30.265 45.0354C30.3565 45.0172 30.4405 44.9723 30.5064 44.9063C30.5724 44.8404 30.6173 44.7564 30.6355 44.6649C30.6537 44.5734 30.6443 44.4786 30.6086 44.3925C30.5729 44.3063 30.5125 44.2327 30.435 44.1809C30.3574 44.1291 30.2663 44.1014 30.173 44.1014C30.048 44.1016 29.9282 44.1513 29.8398 44.2397C29.7514 44.3281 29.7016 44.4479 29.7015 44.5729ZM35.5469 32.545C35.498 32.545 35.4495 32.5546 35.4043 32.5734C35.3591 32.5921 35.3181 32.6195 35.2835 32.6542C35.2489 32.6888 35.2215 32.7298 35.2028 32.7751C35.184 32.8203 35.1744 32.8687 35.1745 32.9176V38.879C35.1738 38.9284 35.1829 38.9774 35.2013 39.0232C35.2197 39.0691 35.247 39.1108 35.2817 39.1459C35.3163 39.1811 35.3577 39.209 35.4032 39.2281C35.4488 39.2471 35.4976 39.2569 35.547 39.2569C35.5964 39.2569 35.6453 39.2471 35.6908 39.2281C35.7364 39.209 35.7777 39.1811 35.8123 39.1459C35.847 39.1108 35.8743 39.0691 35.8927 39.0232C35.9111 38.9774 35.9203 38.9284 35.9195 38.879V32.9176C35.9196 32.8687 35.9099 32.8202 35.8912 32.775C35.8725 32.7298 35.8451 32.6887 35.8104 32.6541C35.7758 32.6195 35.7347 32.592 35.6895 32.5733C35.6443 32.5546 35.5958 32.545 35.5469 32.545ZM38.803 30.6012C38.754 30.6012 38.7056 30.6108 38.6604 30.6295C38.6152 30.6483 38.5741 30.6757 38.5395 30.7103C38.5049 30.7449 38.4775 30.786 38.4588 30.8312C38.4401 30.8765 38.4304 30.9249 38.4305 30.9738V38.8793C38.4305 38.9782 38.4697 39.0729 38.5396 39.1428C38.6095 39.2127 38.7042 39.2519 38.803 39.2519C38.9019 39.2519 38.9966 39.2127 39.0665 39.1428C39.1364 39.0729 39.1756 38.9782 39.1756 38.8793V30.9741C39.1756 30.9252 39.166 30.8767 39.1473 30.8315C39.1286 30.7863 39.1011 30.7452 39.0665 30.7106C39.0319 30.676 38.9908 30.6485 38.9456 30.6298C38.9004 30.6111 38.8519 30.6012 38.803 30.6012ZM42.0592 31.5664C42.0103 31.5664 41.9618 31.576 41.9166 31.5947C41.8713 31.6134 41.8302 31.6409 41.7956 31.6755C41.761 31.7101 41.7336 31.7512 41.7149 31.7964C41.6961 31.8417 41.6865 31.8901 41.6865 31.9391V38.879C41.6858 38.9284 41.695 38.9774 41.7134 39.0232C41.7318 39.0691 41.7591 39.1108 41.7938 39.1459C41.8284 39.1811 41.8697 39.209 41.9153 39.2281C41.9608 39.2471 42.0097 39.2569 42.0591 39.2569C42.1085 39.2569 42.1573 39.2471 42.2029 39.2281C42.2484 39.209 42.2897 39.1811 42.3244 39.1459C42.3591 39.1108 42.3864 39.0691 42.4048 39.0232C42.4232 38.9774 42.4323 38.9284 42.4316 38.879V31.9394C42.4317 31.8905 42.4221 31.842 42.4034 31.7968C42.3847 31.7516 42.3572 31.7105 42.3226 31.6759C42.2881 31.6413 42.247 31.6138 42.2018 31.5951C42.1566 31.5764 42.1081 31.5664 42.0592 31.5664ZM45.3156 29.401C45.2666 29.401 45.2182 29.4106 45.1729 29.4294C45.1277 29.4481 45.0866 29.4755 45.052 29.5101C45.0174 29.5447 44.99 29.5858 44.9713 29.6311C44.9525 29.6763 44.9429 29.7247 44.9429 29.7737V38.8793C44.9422 38.9287 44.9513 38.9777 44.9697 39.0235C44.9881 39.0694 45.0155 39.1111 45.0501 39.1462C45.0848 39.1814 45.1261 39.2093 45.1717 39.2284C45.2172 39.2474 45.2661 39.2572 45.3155 39.2572C45.3648 39.2572 45.4137 39.2474 45.4593 39.2284C45.5048 39.2093 45.5461 39.1814 45.5808 39.1462C45.6155 39.1111 45.6428 39.0694 45.6612 39.0235C45.6796 38.9777 45.6887 38.9287 45.688 38.8793V29.7738C45.6881 29.7249 45.6785 29.6764 45.6598 29.6312C45.6411 29.586 45.6136 29.5449 45.5791 29.5103C45.5445 29.4756 45.5034 29.4482 45.4582 29.4294C45.413 29.4107 45.3645 29.401 45.3156 29.401ZM45.9822 26.1795C45.9765 26.1626 45.9694 26.1461 45.9611 26.1302C45.9521 26.1009 45.9393 26.0729 45.9232 26.0469L45.9208 26.0412C45.9082 26.0276 45.8946 26.0149 45.88 26.0034C45.8617 25.9822 45.8411 25.9632 45.8185 25.9467C45.7933 25.9326 45.7664 25.9216 45.7385 25.914C45.7227 25.906 45.7062 25.8993 45.6892 25.8939L44.1325 25.5944C44.0843 25.5848 44.0346 25.5848 43.9865 25.5944C43.9383 25.6041 43.8925 25.6232 43.8517 25.6506C43.8109 25.678 43.7759 25.7132 43.7488 25.7542C43.7217 25.7952 43.703 25.8411 43.6937 25.8894C43.6844 25.9377 43.6848 25.9873 43.6948 26.0354C43.7047 26.0835 43.7242 26.1292 43.7519 26.1698C43.7796 26.2104 43.8151 26.2451 43.8563 26.2719C43.8974 26.2987 43.9435 26.3171 43.9919 26.326L44.7044 26.4633L42.2928 28.2128L39.2129 27.2994C39.1629 27.2848 39.1104 27.2808 39.0587 27.2876C39.007 27.2944 38.9573 27.3118 38.9127 27.3388L35.0491 29.6992C34.9648 29.7508 34.9044 29.8337 34.8812 29.9298C34.858 30.0259 34.8739 30.1272 34.9255 30.2115C34.977 30.2959 35.06 30.3563 35.1561 30.3794C35.2521 30.4026 35.3535 30.3867 35.4378 30.3351L39.1599 28.0609L42.2574 28.9793C42.3121 28.9954 42.3698 28.9988 42.4261 28.9892C42.4823 28.9795 42.5356 28.9571 42.5819 28.9237L45.0757 27.1143L44.9545 27.7463C44.9359 27.8433 44.9566 27.9437 45.012 28.0256C45.0674 28.1074 45.153 28.1639 45.25 28.1826C45.2733 28.1868 45.297 28.1889 45.3207 28.1889C45.4071 28.1887 45.4909 28.1586 45.5576 28.1035C45.6243 28.0484 45.6697 27.9719 45.6863 27.887L45.9854 26.3299V26.3236C45.9887 26.2936 45.9883 26.2634 45.9841 26.2335C45.9849 26.2155 45.9844 26.1974 45.9822 26.1795ZM14.727 32.1407H21.6121C21.7109 32.1407 21.8057 32.1014 21.8756 32.0315C21.9454 31.9616 21.9847 31.8669 21.9847 31.768C21.9847 31.6692 21.9454 31.5744 21.8756 31.5045C21.8057 31.4346 21.7109 31.3954 21.6121 31.3954H14.727C14.6282 31.3954 14.5334 31.4346 14.4635 31.5045C14.3936 31.5744 14.3544 31.6692 14.3544 31.768C14.3544 31.8669 14.3936 31.9616 14.4635 32.0315C14.5334 32.1014 14.6282 32.1407 14.727 32.1407ZM26.2824 34.2059H14.727C14.6777 34.2052 14.6287 34.2143 14.5828 34.2327C14.537 34.2511 14.4953 34.2784 14.4602 34.3131C14.425 34.3478 14.3971 34.3891 14.3781 34.4346C14.359 34.4801 14.3492 34.529 14.3492 34.5784C14.3492 34.6277 14.359 34.6766 14.3781 34.7221C14.3971 34.7677 14.425 34.809 14.4602 34.8436C14.4953 34.8783 14.537 34.9056 14.5828 34.924C14.6287 34.9424 14.6777 34.9515 14.727 34.9508H26.2824C26.3317 34.9515 26.3807 34.9424 26.4266 34.924C26.4724 34.9056 26.5141 34.8783 26.5492 34.8436C26.5844 34.809 26.6123 34.7677 26.6313 34.7221C26.6504 34.6766 26.6602 34.6277 26.6602 34.5784C26.6602 34.529 26.6504 34.4801 26.6313 34.4346C26.6123 34.3891 26.5844 34.3478 26.5492 34.3131C26.5141 34.2784 26.4724 34.2511 26.4266 34.2327C26.3807 34.2143 26.3317 34.2052 26.2824 34.2059ZM26.2824 37.0165H14.727C14.6282 37.0165 14.5334 37.0558 14.4635 37.1257C14.3936 37.1956 14.3544 37.2903 14.3544 37.3892C14.3544 37.488 14.3936 37.5828 14.4635 37.6527C14.5334 37.7226 14.6282 37.7618 14.727 37.7618H26.2824C26.3812 37.7618 26.476 37.7226 26.5459 37.6527C26.6158 37.5828 26.655 37.488 26.655 37.3892C26.655 37.2903 26.6158 37.1956 26.5459 37.1257C26.476 37.0558 26.3812 37.0165 26.2824 37.0165Z"/>
</mask>
<path d="M37.9633 11.9101C37.9388 11.8677 37.9229 11.8209 37.9165 11.7724C37.9101 11.7239 37.9134 11.6746 37.926 11.6273C37.9387 11.58 37.9605 11.5357 37.9903 11.4968C38.0201 11.458 38.0573 11.4254 38.0997 11.4009L40.2802 10.1422C40.3226 10.117 40.3696 10.1004 40.4184 10.0935C40.4673 10.0866 40.517 10.0895 40.5648 10.1019C40.6125 10.1144 40.6573 10.1362 40.6966 10.1661C40.7358 10.196 40.7687 10.2334 40.7934 10.2762C40.8181 10.3189 40.834 10.3661 40.8403 10.415C40.8466 10.464 40.8431 10.5137 40.83 10.5613C40.8169 10.6088 40.7945 10.6534 40.7641 10.6922C40.7337 10.7311 40.6959 10.7635 40.6528 10.7876L38.4724 12.0467C38.3867 12.0959 38.2851 12.1092 38.1897 12.0836C38.0943 12.058 38.0129 11.9955 37.9633 11.9101ZM36.1175 10.3615C36.1583 10.3765 36.2014 10.3842 36.2449 10.3842C36.3214 10.3842 36.396 10.3606 36.4586 10.3166C36.5212 10.2727 36.5688 10.2105 36.5949 10.1386L37.4561 7.77214C37.4898 7.67931 37.4853 7.57687 37.4435 7.48736C37.4017 7.39786 37.3261 7.32861 37.2333 7.29487C37.1404 7.26112 37.038 7.26564 36.9485 7.30742C36.859 7.34921 36.7897 7.42484 36.756 7.51767L35.8948 9.88397C35.878 9.92995 35.8705 9.97878 35.8726 10.0277C35.8747 10.0766 35.8864 10.1246 35.9071 10.1689C35.9278 10.2133 35.957 10.2531 35.9931 10.2861C36.0292 10.3192 36.0715 10.3448 36.1175 10.3615ZM38.3821 14.2833C38.3735 14.3315 38.3745 14.3809 38.3851 14.4287C38.3956 14.4765 38.4155 14.5217 38.4435 14.5618C38.4716 14.6019 38.5073 14.6361 38.5485 14.6624C38.5898 14.6887 38.6358 14.7066 38.684 14.7151L41.1636 15.1522C41.2603 15.1679 41.3593 15.1449 41.4392 15.0882C41.5191 15.0315 41.5734 14.9456 41.5905 14.8491C41.6075 14.7527 41.5859 14.6533 41.5303 14.5727C41.4747 14.492 41.3895 14.4365 41.2933 14.4182L38.8135 13.9811C38.7162 13.9641 38.6162 13.9864 38.5353 14.043C38.4544 14.0997 38.3993 14.1861 38.3821 14.2833ZM50.0001 41.9787V45.8696C49.9995 46.3123 49.8234 46.7367 49.5104 47.0497C49.1974 47.3627 48.773 47.5388 48.3304 47.5394H33.2438L34.3547 51.982H36.0095C36.0588 51.9813 36.1078 51.9904 36.1536 52.0088C36.1995 52.0272 36.2411 52.0545 36.2763 52.0892C36.3115 52.1238 36.3394 52.1651 36.3584 52.2107C36.3775 52.2562 36.3873 52.3051 36.3873 52.3544C36.3873 52.4038 36.3775 52.4527 36.3584 52.4982C36.3394 52.5438 36.3115 52.5851 36.2763 52.6197C36.2411 52.6544 36.1995 52.6817 36.1536 52.7001C36.1078 52.7185 36.0588 52.7276 36.0095 52.7269H24.3369C24.2876 52.7276 24.2386 52.7185 24.1927 52.7001C24.1469 52.6817 24.1052 52.6544 24.0701 52.6197C24.0349 52.5851 24.007 52.5438 23.988 52.4982C23.9689 52.4527 23.9591 52.4038 23.9591 52.3544C23.9591 52.3051 23.9689 52.2562 23.988 52.2107C24.007 52.1651 24.0349 52.1238 24.0701 52.0892C24.1052 52.0545 24.1469 52.0272 24.1927 52.0088C24.2386 51.9904 24.2876 51.9813 24.3369 51.982H25.9917L27.1021 47.5394H12.0157C11.5731 47.5388 11.1488 47.3626 10.8359 47.0496C10.5229 46.7366 10.3469 46.3122 10.3465 45.8696V41.9908L10.3447 41.982V19.9402C10.3452 19.4957 10.522 19.0695 10.8363 18.7552C11.1506 18.4408 11.5768 18.264 12.0213 18.2635H20.938L24.9568 15.9435L29.616 7.52457C29.6479 7.46684 29.6946 7.41863 29.7513 7.38488C29.808 7.35112 29.8727 7.33303 29.9387 7.33245C30.0046 7.33188 30.0696 7.34883 30.1269 7.38159C30.1842 7.41434 30.2317 7.46172 30.2647 7.51888L32.8845 12.0615L33.0919 11.9418C33.6449 11.6253 34.3009 11.5408 34.916 11.7069C35.5312 11.873 36.0555 12.2761 36.3741 12.828C36.6927 13.3798 36.7796 14.0354 36.6158 14.6512C36.452 15.267 36.0509 15.7928 35.5002 16.1135L35.2911 16.2339L36.4614 18.2635H48.3251C48.7686 18.2651 49.1934 18.4425 49.5062 18.7568C49.8191 19.0712 49.9945 19.4967 49.9939 19.9402V41.95C49.995 41.9598 50.0001 41.9686 50.0001 41.9787ZM33.2576 12.7072L34.9206 15.5877L35.128 15.4678C35.3171 15.3586 35.4829 15.2132 35.6158 15.0399C35.7488 14.8666 35.8463 14.6689 35.9028 14.4579C35.9593 14.247 35.9737 14.027 35.9451 13.8104C35.9166 13.5939 35.8457 13.3852 35.7365 13.196C35.6273 13.0069 35.4819 12.8412 35.3086 12.7082C35.1354 12.5753 34.9376 12.4778 34.7267 12.4213C34.5157 12.3648 34.2957 12.3504 34.0792 12.3789C33.8627 12.4074 33.6539 12.4783 33.4648 12.5875L33.2576 12.7072ZM25.6609 16.2106L28.0881 20.4136L36.9355 20.5765L35.9236 18.8223V18.8216L29.9485 8.462L25.6609 16.2106ZM20.1202 19.8083C20.0987 19.8876 20.0932 19.9703 20.1039 20.0517C20.1146 20.1331 20.1413 20.2116 20.1825 20.2827L21.8224 23.1221C21.9055 23.2655 22.042 23.3701 22.2021 23.413C22.3621 23.4559 22.5327 23.4337 22.6764 23.3512L27.3616 20.6458L25.0965 16.7233L20.4116 19.4279C20.3404 19.469 20.278 19.5238 20.228 19.589C20.178 19.6543 20.1413 19.7289 20.1202 19.8083ZM23.8068 23.5605L26.3862 28.0278C26.4856 28.2004 26.618 28.3517 26.7759 28.4731C26.9339 28.5945 27.1142 28.6836 27.3065 28.7353C27.4989 28.7869 27.6996 28.8002 27.8971 28.7743C28.0946 28.7483 28.285 28.6837 28.4575 28.5841C28.63 28.4845 28.7812 28.3519 28.9025 28.1939C29.0237 28.0358 29.1126 27.8554 29.164 27.663C29.2155 27.4706 29.2285 27.2699 29.2024 27.0724C29.1762 26.8749 29.1114 26.6846 29.0116 26.5122L26.4319 22.0449L23.8068 23.5605ZM19.8844 21.4379C19.7034 21.5424 19.5713 21.7145 19.5172 21.9164C19.4631 22.1182 19.4914 22.3333 19.5958 22.5143C19.7003 22.6953 19.8724 22.8274 20.0743 22.8816C20.2762 22.9357 20.4913 22.9074 20.6723 22.8029L20.7504 22.7578L19.9625 21.3925L19.8844 21.4379ZM11.0897 41.6065H49.2489V19.9402C49.2497 19.6943 49.1529 19.458 48.9797 19.2833C48.8066 19.1086 48.5712 19.0098 48.3252 19.0084H36.8921L37.9105 20.7746C37.9431 20.8312 37.9603 20.8954 37.9603 20.9608C37.9602 21.0262 37.943 21.0904 37.9103 21.147C37.8775 21.2036 37.8305 21.2506 37.7739 21.2833C37.7172 21.3159 37.653 21.3331 37.5876 21.333H37.5807L27.9678 21.1568L27.0772 21.6708L29.6572 26.1395C29.9562 26.659 30.037 27.2759 29.8819 27.8549C29.7267 28.4339 29.3483 28.9277 28.8295 29.2281C28.3101 29.5276 27.6931 29.6087 27.1139 29.4536C26.5347 29.2986 26.0408 28.92 25.7405 28.401L23.1604 23.9321L23.049 23.9965C22.9549 24.0498 22.8546 24.0915 22.7505 24.1207C22.7202 24.1298 22.6899 24.1351 22.6596 24.1418C22.5827 24.159 22.5046 24.1693 22.4259 24.1728C22.4058 24.1734 22.3867 24.1803 22.3666 24.1803C22.3546 24.1803 22.3425 24.1761 22.3305 24.1754C22.2222 24.1739 22.1143 24.1597 22.0093 24.1332C21.8352 24.087 21.6721 24.0068 21.5292 23.8973C21.3864 23.7877 21.2666 23.6509 21.1769 23.4949L21.1239 23.4034L21.0449 23.4484C20.8128 23.5833 20.5492 23.6545 20.2808 23.6546C20.146 23.6544 20.0118 23.6365 19.8817 23.6016C19.5888 23.5231 19.3257 23.3595 19.1257 23.1315C18.9258 22.9035 18.7979 22.6213 18.7583 22.3206C18.7187 22.0199 18.7692 21.7143 18.9033 21.4423C19.0373 21.1703 19.2491 20.9441 19.5117 20.7924L19.5903 20.747L19.5373 20.6555C19.4185 20.4536 19.3545 20.224 19.3518 19.9897C19.349 19.7554 19.4075 19.5244 19.5216 19.3197C19.5373 19.2912 19.5554 19.2649 19.5728 19.2374C19.6136 19.1733 19.6596 19.1127 19.7104 19.0561C19.7238 19.041 19.7326 19.0227 19.7465 19.0086H12.0212C11.7741 19.0088 11.5372 19.1071 11.3625 19.2818C11.1878 19.4565 11.0896 19.6934 11.0894 19.9405L11.0897 41.6065ZM32.4761 47.5394H27.87L26.7591 51.982H33.5863L32.4761 47.5394ZM49.2548 42.3546H11.0915V45.8698C11.0917 46.1148 11.1892 46.3497 11.3625 46.523C11.5357 46.6963 11.7707 46.7937 12.0157 46.794H48.3304C48.5754 46.7937 48.8103 46.6962 48.9836 46.523C49.1568 46.3497 49.2543 46.1148 49.2546 45.8698L49.2548 42.3546ZM28.9563 44.5729C28.9563 44.3323 29.0276 44.097 29.1613 43.8969C29.2949 43.6968 29.4849 43.5408 29.7072 43.4487C29.9296 43.3566 30.1742 43.3325 30.4102 43.3794C30.6463 43.4263 30.8631 43.5422 31.0332 43.7123C31.2034 43.8824 31.3193 44.0992 31.3663 44.3353C31.4132 44.5713 31.3892 44.8159 31.2971 45.0382C31.205 45.2606 31.0491 45.4506 30.849 45.5843C30.6489 45.718 30.4137 45.7894 30.173 45.7894C29.8505 45.789 29.5413 45.6607 29.3132 45.4327C29.0851 45.2046 28.9568 44.8955 28.9563 44.5729ZM29.7015 44.5729C29.7015 44.6662 29.7291 44.7573 29.781 44.8349C29.8328 44.9124 29.9064 44.9729 29.9926 45.0086C30.0787 45.0442 30.1735 45.0536 30.265 45.0354C30.3565 45.0172 30.4405 44.9723 30.5064 44.9063C30.5724 44.8404 30.6173 44.7564 30.6355 44.6649C30.6537 44.5734 30.6443 44.4786 30.6086 44.3925C30.5729 44.3063 30.5125 44.2327 30.435 44.1809C30.3574 44.1291 30.2663 44.1014 30.173 44.1014C30.048 44.1016 29.9282 44.1513 29.8398 44.2397C29.7514 44.3281 29.7016 44.4479 29.7015 44.5729ZM35.5469 32.545C35.498 32.545 35.4495 32.5546 35.4043 32.5734C35.3591 32.5921 35.3181 32.6195 35.2835 32.6542C35.2489 32.6888 35.2215 32.7298 35.2028 32.7751C35.184 32.8203 35.1744 32.8687 35.1745 32.9176V38.879C35.1738 38.9284 35.1829 38.9774 35.2013 39.0232C35.2197 39.0691 35.247 39.1108 35.2817 39.1459C35.3163 39.1811 35.3577 39.209 35.4032 39.2281C35.4488 39.2471 35.4976 39.2569 35.547 39.2569C35.5964 39.2569 35.6453 39.2471 35.6908 39.2281C35.7364 39.209 35.7777 39.1811 35.8123 39.1459C35.847 39.1108 35.8743 39.0691 35.8927 39.0232C35.9111 38.9774 35.9203 38.9284 35.9195 38.879V32.9176C35.9196 32.8687 35.9099 32.8202 35.8912 32.775C35.8725 32.7298 35.8451 32.6887 35.8104 32.6541C35.7758 32.6195 35.7347 32.592 35.6895 32.5733C35.6443 32.5546 35.5958 32.545 35.5469 32.545ZM38.803 30.6012C38.754 30.6012 38.7056 30.6108 38.6604 30.6295C38.6152 30.6483 38.5741 30.6757 38.5395 30.7103C38.5049 30.7449 38.4775 30.786 38.4588 30.8312C38.4401 30.8765 38.4304 30.9249 38.4305 30.9738V38.8793C38.4305 38.9782 38.4697 39.0729 38.5396 39.1428C38.6095 39.2127 38.7042 39.2519 38.803 39.2519C38.9019 39.2519 38.9966 39.2127 39.0665 39.1428C39.1364 39.0729 39.1756 38.9782 39.1756 38.8793V30.9741C39.1756 30.9252 39.166 30.8767 39.1473 30.8315C39.1286 30.7863 39.1011 30.7452 39.0665 30.7106C39.0319 30.676 38.9908 30.6485 38.9456 30.6298C38.9004 30.6111 38.8519 30.6012 38.803 30.6012ZM42.0592 31.5664C42.0103 31.5664 41.9618 31.576 41.9166 31.5947C41.8713 31.6134 41.8302 31.6409 41.7956 31.6755C41.761 31.7101 41.7336 31.7512 41.7149 31.7964C41.6961 31.8417 41.6865 31.8901 41.6865 31.9391V38.879C41.6858 38.9284 41.695 38.9774 41.7134 39.0232C41.7318 39.0691 41.7591 39.1108 41.7938 39.1459C41.8284 39.1811 41.8697 39.209 41.9153 39.2281C41.9608 39.2471 42.0097 39.2569 42.0591 39.2569C42.1085 39.2569 42.1573 39.2471 42.2029 39.2281C42.2484 39.209 42.2897 39.1811 42.3244 39.1459C42.3591 39.1108 42.3864 39.0691 42.4048 39.0232C42.4232 38.9774 42.4323 38.9284 42.4316 38.879V31.9394C42.4317 31.8905 42.4221 31.842 42.4034 31.7968C42.3847 31.7516 42.3572 31.7105 42.3226 31.6759C42.2881 31.6413 42.247 31.6138 42.2018 31.5951C42.1566 31.5764 42.1081 31.5664 42.0592 31.5664ZM45.3156 29.401C45.2666 29.401 45.2182 29.4106 45.1729 29.4294C45.1277 29.4481 45.0866 29.4755 45.052 29.5101C45.0174 29.5447 44.99 29.5858 44.9713 29.6311C44.9525 29.6763 44.9429 29.7247 44.9429 29.7737V38.8793C44.9422 38.9287 44.9513 38.9777 44.9697 39.0235C44.9881 39.0694 45.0155 39.1111 45.0501 39.1462C45.0848 39.1814 45.1261 39.2093 45.1717 39.2284C45.2172 39.2474 45.2661 39.2572 45.3155 39.2572C45.3648 39.2572 45.4137 39.2474 45.4593 39.2284C45.5048 39.2093 45.5461 39.1814 45.5808 39.1462C45.6155 39.1111 45.6428 39.0694 45.6612 39.0235C45.6796 38.9777 45.6887 38.9287 45.688 38.8793V29.7738C45.6881 29.7249 45.6785 29.6764 45.6598 29.6312C45.6411 29.586 45.6136 29.5449 45.5791 29.5103C45.5445 29.4756 45.5034 29.4482 45.4582 29.4294C45.413 29.4107 45.3645 29.401 45.3156 29.401ZM45.9822 26.1795C45.9765 26.1626 45.9694 26.1461 45.9611 26.1302C45.9521 26.1009 45.9393 26.0729 45.9232 26.0469L45.9208 26.0412C45.9082 26.0276 45.8946 26.0149 45.88 26.0034C45.8617 25.9822 45.8411 25.9632 45.8185 25.9467C45.7933 25.9326 45.7664 25.9216 45.7385 25.914C45.7227 25.906 45.7062 25.8993 45.6892 25.8939L44.1325 25.5944C44.0843 25.5848 44.0346 25.5848 43.9865 25.5944C43.9383 25.6041 43.8925 25.6232 43.8517 25.6506C43.8109 25.678 43.7759 25.7132 43.7488 25.7542C43.7217 25.7952 43.703 25.8411 43.6937 25.8894C43.6844 25.9377 43.6848 25.9873 43.6948 26.0354C43.7047 26.0835 43.7242 26.1292 43.7519 26.1698C43.7796 26.2104 43.8151 26.2451 43.8563 26.2719C43.8974 26.2987 43.9435 26.3171 43.9919 26.326L44.7044 26.4633L42.2928 28.2128L39.2129 27.2994C39.1629 27.2848 39.1104 27.2808 39.0587 27.2876C39.007 27.2944 38.9573 27.3118 38.9127 27.3388L35.0491 29.6992C34.9648 29.7508 34.9044 29.8337 34.8812 29.9298C34.858 30.0259 34.8739 30.1272 34.9255 30.2115C34.977 30.2959 35.06 30.3563 35.1561 30.3794C35.2521 30.4026 35.3535 30.3867 35.4378 30.3351L39.1599 28.0609L42.2574 28.9793C42.3121 28.9954 42.3698 28.9988 42.4261 28.9892C42.4823 28.9795 42.5356 28.9571 42.5819 28.9237L45.0757 27.1143L44.9545 27.7463C44.9359 27.8433 44.9566 27.9437 45.012 28.0256C45.0674 28.1074 45.153 28.1639 45.25 28.1826C45.2733 28.1868 45.297 28.1889 45.3207 28.1889C45.4071 28.1887 45.4909 28.1586 45.5576 28.1035C45.6243 28.0484 45.6697 27.9719 45.6863 27.887L45.9854 26.3299V26.3236C45.9887 26.2936 45.9883 26.2634 45.9841 26.2335C45.9849 26.2155 45.9844 26.1974 45.9822 26.1795ZM14.727 32.1407H21.6121C21.7109 32.1407 21.8057 32.1014 21.8756 32.0315C21.9454 31.9616 21.9847 31.8669 21.9847 31.768C21.9847 31.6692 21.9454 31.5744 21.8756 31.5045C21.8057 31.4346 21.7109 31.3954 21.6121 31.3954H14.727C14.6282 31.3954 14.5334 31.4346 14.4635 31.5045C14.3936 31.5744 14.3544 31.6692 14.3544 31.768C14.3544 31.8669 14.3936 31.9616 14.4635 32.0315C14.5334 32.1014 14.6282 32.1407 14.727 32.1407ZM26.2824 34.2059H14.727C14.6777 34.2052 14.6287 34.2143 14.5828 34.2327C14.537 34.2511 14.4953 34.2784 14.4602 34.3131C14.425 34.3478 14.3971 34.3891 14.3781 34.4346C14.359 34.4801 14.3492 34.529 14.3492 34.5784C14.3492 34.6277 14.359 34.6766 14.3781 34.7221C14.3971 34.7677 14.425 34.809 14.4602 34.8436C14.4953 34.8783 14.537 34.9056 14.5828 34.924C14.6287 34.9424 14.6777 34.9515 14.727 34.9508H26.2824C26.3317 34.9515 26.3807 34.9424 26.4266 34.924C26.4724 34.9056 26.5141 34.8783 26.5492 34.8436C26.5844 34.809 26.6123 34.7677 26.6313 34.7221C26.6504 34.6766 26.6602 34.6277 26.6602 34.5784C26.6602 34.529 26.6504 34.4801 26.6313 34.4346C26.6123 34.3891 26.5844 34.3478 26.5492 34.3131C26.5141 34.2784 26.4724 34.2511 26.4266 34.2327C26.3807 34.2143 26.3317 34.2052 26.2824 34.2059ZM26.2824 37.0165H14.727C14.6282 37.0165 14.5334 37.0558 14.4635 37.1257C14.3936 37.1956 14.3544 37.2903 14.3544 37.3892C14.3544 37.488 14.3936 37.5828 14.4635 37.6527C14.5334 37.7226 14.6282 37.7618 14.727 37.7618H26.2824C26.3812 37.7618 26.476 37.7226 26.5459 37.6527C26.6158 37.5828 26.655 37.488 26.655 37.3892C26.655 37.2903 26.6158 37.1956 26.5459 37.1257C26.476 37.0558 26.3812 37.0165 26.2824 37.0165Z" fill="black"/>
<path d="M37.9633 11.9101C37.9388 11.8677 37.9229 11.8209 37.9165 11.7724C37.9101 11.7239 37.9134 11.6746 37.926 11.6273C37.9387 11.58 37.9605 11.5357 37.9903 11.4968C38.0201 11.458 38.0573 11.4254 38.0997 11.4009L40.2802 10.1422C40.3226 10.117 40.3696 10.1004 40.4184 10.0935C40.4673 10.0866 40.517 10.0895 40.5648 10.1019C40.6125 10.1144 40.6573 10.1362 40.6966 10.1661C40.7358 10.196 40.7687 10.2334 40.7934 10.2762C40.8181 10.3189 40.834 10.3661 40.8403 10.415C40.8466 10.464 40.8431 10.5137 40.83 10.5613C40.8169 10.6088 40.7945 10.6534 40.7641 10.6922C40.7337 10.7311 40.6959 10.7635 40.6528 10.7876L38.4724 12.0467C38.3867 12.0959 38.2851 12.1092 38.1897 12.0836C38.0943 12.058 38.0129 11.9955 37.9633 11.9101ZM36.1175 10.3615C36.1583 10.3765 36.2014 10.3842 36.2449 10.3842C36.3214 10.3842 36.396 10.3606 36.4586 10.3166C36.5212 10.2727 36.5688 10.2105 36.5949 10.1386L37.4561 7.77214C37.4898 7.67931 37.4853 7.57687 37.4435 7.48736C37.4017 7.39786 37.3261 7.32861 37.2333 7.29487C37.1404 7.26112 37.038 7.26564 36.9485 7.30742C36.859 7.34921 36.7897 7.42484 36.756 7.51767L35.8948 9.88397C35.878 9.92995 35.8705 9.97878 35.8726 10.0277C35.8747 10.0766 35.8864 10.1246 35.9071 10.1689C35.9278 10.2133 35.957 10.2531 35.9931 10.2861C36.0292 10.3192 36.0715 10.3448 36.1175 10.3615ZM38.3821 14.2833C38.3735 14.3315 38.3745 14.3809 38.3851 14.4287C38.3956 14.4765 38.4155 14.5217 38.4435 14.5618C38.4716 14.6019 38.5073 14.6361 38.5485 14.6624C38.5898 14.6887 38.6358 14.7066 38.684 14.7151L41.1636 15.1522C41.2603 15.1679 41.3593 15.1449 41.4392 15.0882C41.5191 15.0315 41.5734 14.9456 41.5905 14.8491C41.6075 14.7527 41.5859 14.6533 41.5303 14.5727C41.4747 14.492 41.3895 14.4365 41.2933 14.4182L38.8135 13.9811C38.7162 13.9641 38.6162 13.9864 38.5353 14.043C38.4544 14.0997 38.3993 14.1861 38.3821 14.2833ZM50.0001 41.9787V45.8696C49.9995 46.3123 49.8234 46.7367 49.5104 47.0497C49.1974 47.3627 48.773 47.5388 48.3304 47.5394H33.2438L34.3547 51.982H36.0095C36.0588 51.9813 36.1078 51.9904 36.1536 52.0088C36.1995 52.0272 36.2411 52.0545 36.2763 52.0892C36.3115 52.1238 36.3394 52.1651 36.3584 52.2107C36.3775 52.2562 36.3873 52.3051 36.3873 52.3544C36.3873 52.4038 36.3775 52.4527 36.3584 52.4982C36.3394 52.5438 36.3115 52.5851 36.2763 52.6197C36.2411 52.6544 36.1995 52.6817 36.1536 52.7001C36.1078 52.7185 36.0588 52.7276 36.0095 52.7269H24.3369C24.2876 52.7276 24.2386 52.7185 24.1927 52.7001C24.1469 52.6817 24.1052 52.6544 24.0701 52.6197C24.0349 52.5851 24.007 52.5438 23.988 52.4982C23.9689 52.4527 23.9591 52.4038 23.9591 52.3544C23.9591 52.3051 23.9689 52.2562 23.988 52.2107C24.007 52.1651 24.0349 52.1238 24.0701 52.0892C24.1052 52.0545 24.1469 52.0272 24.1927 52.0088C24.2386 51.9904 24.2876 51.9813 24.3369 51.982H25.9917L27.1021 47.5394H12.0157C11.5731 47.5388 11.1488 47.3626 10.8359 47.0496C10.5229 46.7366 10.3469 46.3122 10.3465 45.8696V41.9908L10.3447 41.982V19.9402C10.3452 19.4957 10.522 19.0695 10.8363 18.7552C11.1506 18.4408 11.5768 18.264 12.0213 18.2635H20.938L24.9568 15.9435L29.616 7.52457C29.6479 7.46684 29.6946 7.41863 29.7513 7.38488C29.808 7.35112 29.8727 7.33303 29.9387 7.33245C30.0046 7.33188 30.0696 7.34883 30.1269 7.38159C30.1842 7.41434 30.2317 7.46172 30.2647 7.51888L32.8845 12.0615L33.0919 11.9418C33.6449 11.6253 34.3009 11.5408 34.916 11.7069C35.5312 11.873 36.0555 12.2761 36.3741 12.828C36.6927 13.3798 36.7796 14.0354 36.6158 14.6512C36.452 15.267 36.0509 15.7928 35.5002 16.1135L35.2911 16.2339L36.4614 18.2635H48.3251C48.7686 18.2651 49.1934 18.4425 49.5062 18.7568C49.8191 19.0712 49.9945 19.4967 49.9939 19.9402V41.95C49.995 41.9598 50.0001 41.9686 50.0001 41.9787ZM33.2576 12.7072L34.9206 15.5877L35.128 15.4678C35.3171 15.3586 35.4829 15.2132 35.6158 15.0399C35.7488 14.8666 35.8463 14.6689 35.9028 14.4579C35.9593 14.247 35.9737 14.027 35.9451 13.8104C35.9166 13.5939 35.8457 13.3852 35.7365 13.196C35.6273 13.0069 35.4819 12.8412 35.3086 12.7082C35.1354 12.5753 34.9376 12.4778 34.7267 12.4213C34.5157 12.3648 34.2957 12.3504 34.0792 12.3789C33.8627 12.4074 33.6539 12.4783 33.4648 12.5875L33.2576 12.7072ZM25.6609 16.2106L28.0881 20.4136L36.9355 20.5765L35.9236 18.8223V18.8216L29.9485 8.462L25.6609 16.2106ZM20.1202 19.8083C20.0987 19.8876 20.0932 19.9703 20.1039 20.0517C20.1146 20.1331 20.1413 20.2116 20.1825 20.2827L21.8224 23.1221C21.9055 23.2655 22.042 23.3701 22.2021 23.413C22.3621 23.4559 22.5327 23.4337 22.6764 23.3512L27.3616 20.6458L25.0965 16.7233L20.4116 19.4279C20.3404 19.469 20.278 19.5238 20.228 19.589C20.178 19.6543 20.1413 19.7289 20.1202 19.8083ZM23.8068 23.5605L26.3862 28.0278C26.4856 28.2004 26.618 28.3517 26.7759 28.4731C26.9339 28.5945 27.1142 28.6836 27.3065 28.7353C27.4989 28.7869 27.6996 28.8002 27.8971 28.7743C28.0946 28.7483 28.285 28.6837 28.4575 28.5841C28.63 28.4845 28.7812 28.3519 28.9025 28.1939C29.0237 28.0358 29.1126 27.8554 29.164 27.663C29.2155 27.4706 29.2285 27.2699 29.2024 27.0724C29.1762 26.8749 29.1114 26.6846 29.0116 26.5122L26.4319 22.0449L23.8068 23.5605ZM19.8844 21.4379C19.7034 21.5424 19.5713 21.7145 19.5172 21.9164C19.4631 22.1182 19.4914 22.3333 19.5958 22.5143C19.7003 22.6953 19.8724 22.8274 20.0743 22.8816C20.2762 22.9357 20.4913 22.9074 20.6723 22.8029L20.7504 22.7578L19.9625 21.3925L19.8844 21.4379ZM11.0897 41.6065H49.2489V19.9402C49.2497 19.6943 49.1529 19.458 48.9797 19.2833C48.8066 19.1086 48.5712 19.0098 48.3252 19.0084H36.8921L37.9105 20.7746C37.9431 20.8312 37.9603 20.8954 37.9603 20.9608C37.9602 21.0262 37.943 21.0904 37.9103 21.147C37.8775 21.2036 37.8305 21.2506 37.7739 21.2833C37.7172 21.3159 37.653 21.3331 37.5876 21.333H37.5807L27.9678 21.1568L27.0772 21.6708L29.6572 26.1395C29.9562 26.659 30.037 27.2759 29.8819 27.8549C29.7267 28.4339 29.3483 28.9277 28.8295 29.2281C28.3101 29.5276 27.6931 29.6087 27.1139 29.4536C26.5347 29.2986 26.0408 28.92 25.7405 28.401L23.1604 23.9321L23.049 23.9965C22.9549 24.0498 22.8546 24.0915 22.7505 24.1207C22.7202 24.1298 22.6899 24.1351 22.6596 24.1418C22.5827 24.159 22.5046 24.1693 22.4259 24.1728C22.4058 24.1734 22.3867 24.1803 22.3666 24.1803C22.3546 24.1803 22.3425 24.1761 22.3305 24.1754C22.2222 24.1739 22.1143 24.1597 22.0093 24.1332C21.8352 24.087 21.6721 24.0068 21.5292 23.8973C21.3864 23.7877 21.2666 23.6509 21.1769 23.4949L21.1239 23.4034L21.0449 23.4484C20.8128 23.5833 20.5492 23.6545 20.2808 23.6546C20.146 23.6544 20.0118 23.6365 19.8817 23.6016C19.5888 23.5231 19.3257 23.3595 19.1257 23.1315C18.9258 22.9035 18.7979 22.6213 18.7583 22.3206C18.7187 22.0199 18.7692 21.7143 18.9033 21.4423C19.0373 21.1703 19.2491 20.9441 19.5117 20.7924L19.5903 20.747L19.5373 20.6555C19.4185 20.4536 19.3545 20.224 19.3518 19.9897C19.349 19.7554 19.4075 19.5244 19.5216 19.3197C19.5373 19.2912 19.5554 19.2649 19.5728 19.2374C19.6136 19.1733 19.6596 19.1127 19.7104 19.0561C19.7238 19.041 19.7326 19.0227 19.7465 19.0086H12.0212C11.7741 19.0088 11.5372 19.1071 11.3625 19.2818C11.1878 19.4565 11.0896 19.6934 11.0894 19.9405L11.0897 41.6065ZM32.4761 47.5394H27.87L26.7591 51.982H33.5863L32.4761 47.5394ZM49.2548 42.3546H11.0915V45.8698C11.0917 46.1148 11.1892 46.3497 11.3625 46.523C11.5357 46.6963 11.7707 46.7937 12.0157 46.794H48.3304C48.5754 46.7937 48.8103 46.6962 48.9836 46.523C49.1568 46.3497 49.2543 46.1148 49.2546 45.8698L49.2548 42.3546ZM28.9563 44.5729C28.9563 44.3323 29.0276 44.097 29.1613 43.8969C29.2949 43.6968 29.4849 43.5408 29.7072 43.4487C29.9296 43.3566 30.1742 43.3325 30.4102 43.3794C30.6463 43.4263 30.8631 43.5422 31.0332 43.7123C31.2034 43.8824 31.3193 44.0992 31.3663 44.3353C31.4132 44.5713 31.3892 44.8159 31.2971 45.0382C31.205 45.2606 31.0491 45.4506 30.849 45.5843C30.6489 45.718 30.4137 45.7894 30.173 45.7894C29.8505 45.789 29.5413 45.6607 29.3132 45.4327C29.0851 45.2046 28.9568 44.8955 28.9563 44.5729ZM29.7015 44.5729C29.7015 44.6662 29.7291 44.7573 29.781 44.8349C29.8328 44.9124 29.9064 44.9729 29.9926 45.0086C30.0787 45.0442 30.1735 45.0536 30.265 45.0354C30.3565 45.0172 30.4405 44.9723 30.5064 44.9063C30.5724 44.8404 30.6173 44.7564 30.6355 44.6649C30.6537 44.5734 30.6443 44.4786 30.6086 44.3925C30.5729 44.3063 30.5125 44.2327 30.435 44.1809C30.3574 44.1291 30.2663 44.1014 30.173 44.1014C30.048 44.1016 29.9282 44.1513 29.8398 44.2397C29.7514 44.3281 29.7016 44.4479 29.7015 44.5729ZM35.5469 32.545C35.498 32.545 35.4495 32.5546 35.4043 32.5734C35.3591 32.5921 35.3181 32.6195 35.2835 32.6542C35.2489 32.6888 35.2215 32.7298 35.2028 32.7751C35.184 32.8203 35.1744 32.8687 35.1745 32.9176V38.879C35.1738 38.9284 35.1829 38.9774 35.2013 39.0232C35.2197 39.0691 35.247 39.1108 35.2817 39.1459C35.3163 39.1811 35.3577 39.209 35.4032 39.2281C35.4488 39.2471 35.4976 39.2569 35.547 39.2569C35.5964 39.2569 35.6453 39.2471 35.6908 39.2281C35.7364 39.209 35.7777 39.1811 35.8123 39.1459C35.847 39.1108 35.8743 39.0691 35.8927 39.0232C35.9111 38.9774 35.9203 38.9284 35.9195 38.879V32.9176C35.9196 32.8687 35.9099 32.8202 35.8912 32.775C35.8725 32.7298 35.8451 32.6887 35.8104 32.6541C35.7758 32.6195 35.7347 32.592 35.6895 32.5733C35.6443 32.5546 35.5958 32.545 35.5469 32.545ZM38.803 30.6012C38.754 30.6012 38.7056 30.6108 38.6604 30.6295C38.6152 30.6483 38.5741 30.6757 38.5395 30.7103C38.5049 30.7449 38.4775 30.786 38.4588 30.8312C38.4401 30.8765 38.4304 30.9249 38.4305 30.9738V38.8793C38.4305 38.9782 38.4697 39.0729 38.5396 39.1428C38.6095 39.2127 38.7042 39.2519 38.803 39.2519C38.9019 39.2519 38.9966 39.2127 39.0665 39.1428C39.1364 39.0729 39.1756 38.9782 39.1756 38.8793V30.9741C39.1756 30.9252 39.166 30.8767 39.1473 30.8315C39.1286 30.7863 39.1011 30.7452 39.0665 30.7106C39.0319 30.676 38.9908 30.6485 38.9456 30.6298C38.9004 30.6111 38.8519 30.6012 38.803 30.6012ZM42.0592 31.5664C42.0103 31.5664 41.9618 31.576 41.9166 31.5947C41.8713 31.6134 41.8302 31.6409 41.7956 31.6755C41.761 31.7101 41.7336 31.7512 41.7149 31.7964C41.6961 31.8417 41.6865 31.8901 41.6865 31.9391V38.879C41.6858 38.9284 41.695 38.9774 41.7134 39.0232C41.7318 39.0691 41.7591 39.1108 41.7938 39.1459C41.8284 39.1811 41.8697 39.209 41.9153 39.2281C41.9608 39.2471 42.0097 39.2569 42.0591 39.2569C42.1085 39.2569 42.1573 39.2471 42.2029 39.2281C42.2484 39.209 42.2897 39.1811 42.3244 39.1459C42.3591 39.1108 42.3864 39.0691 42.4048 39.0232C42.4232 38.9774 42.4323 38.9284 42.4316 38.879V31.9394C42.4317 31.8905 42.4221 31.842 42.4034 31.7968C42.3847 31.7516 42.3572 31.7105 42.3226 31.6759C42.2881 31.6413 42.247 31.6138 42.2018 31.5951C42.1566 31.5764 42.1081 31.5664 42.0592 31.5664ZM45.3156 29.401C45.2666 29.401 45.2182 29.4106 45.1729 29.4294C45.1277 29.4481 45.0866 29.4755 45.052 29.5101C45.0174 29.5447 44.99 29.5858 44.9713 29.6311C44.9525 29.6763 44.9429 29.7247 44.9429 29.7737V38.8793C44.9422 38.9287 44.9513 38.9777 44.9697 39.0235C44.9881 39.0694 45.0155 39.1111 45.0501 39.1462C45.0848 39.1814 45.1261 39.2093 45.1717 39.2284C45.2172 39.2474 45.2661 39.2572 45.3155 39.2572C45.3648 39.2572 45.4137 39.2474 45.4593 39.2284C45.5048 39.2093 45.5461 39.1814 45.5808 39.1462C45.6155 39.1111 45.6428 39.0694 45.6612 39.0235C45.6796 38.9777 45.6887 38.9287 45.688 38.8793V29.7738C45.6881 29.7249 45.6785 29.6764 45.6598 29.6312C45.6411 29.586 45.6136 29.5449 45.5791 29.5103C45.5445 29.4756 45.5034 29.4482 45.4582 29.4294C45.413 29.4107 45.3645 29.401 45.3156 29.401ZM45.9822 26.1795C45.9765 26.1626 45.9694 26.1461 45.9611 26.1302C45.9521 26.1009 45.9393 26.0729 45.9232 26.0469L45.9208 26.0412C45.9082 26.0276 45.8946 26.0149 45.88 26.0034C45.8617 25.9822 45.8411 25.9632 45.8185 25.9467C45.7933 25.9326 45.7664 25.9216 45.7385 25.914C45.7227 25.906 45.7062 25.8993 45.6892 25.8939L44.1325 25.5944C44.0843 25.5848 44.0346 25.5848 43.9865 25.5944C43.9383 25.6041 43.8925 25.6232 43.8517 25.6506C43.8109 25.678 43.7759 25.7132 43.7488 25.7542C43.7217 25.7952 43.703 25.8411 43.6937 25.8894C43.6844 25.9377 43.6848 25.9873 43.6948 26.0354C43.7047 26.0835 43.7242 26.1292 43.7519 26.1698C43.7796 26.2104 43.8151 26.2451 43.8563 26.2719C43.8974 26.2987 43.9435 26.3171 43.9919 26.326L44.7044 26.4633L42.2928 28.2128L39.2129 27.2994C39.1629 27.2848 39.1104 27.2808 39.0587 27.2876C39.007 27.2944 38.9573 27.3118 38.9127 27.3388L35.0491 29.6992C34.9648 29.7508 34.9044 29.8337 34.8812 29.9298C34.858 30.0259 34.8739 30.1272 34.9255 30.2115C34.977 30.2959 35.06 30.3563 35.1561 30.3794C35.2521 30.4026 35.3535 30.3867 35.4378 30.3351L39.1599 28.0609L42.2574 28.9793C42.3121 28.9954 42.3698 28.9988 42.4261 28.9892C42.4823 28.9795 42.5356 28.9571 42.5819 28.9237L45.0757 27.1143L44.9545 27.7463C44.9359 27.8433 44.9566 27.9437 45.012 28.0256C45.0674 28.1074 45.153 28.1639 45.25 28.1826C45.2733 28.1868 45.297 28.1889 45.3207 28.1889C45.4071 28.1887 45.4909 28.1586 45.5576 28.1035C45.6243 28.0484 45.6697 27.9719 45.6863 27.887L45.9854 26.3299V26.3236C45.9887 26.2936 45.9883 26.2634 45.9841 26.2335C45.9849 26.2155 45.9844 26.1974 45.9822 26.1795ZM14.727 32.1407H21.6121C21.7109 32.1407 21.8057 32.1014 21.8756 32.0315C21.9454 31.9616 21.9847 31.8669 21.9847 31.768C21.9847 31.6692 21.9454 31.5744 21.8756 31.5045C21.8057 31.4346 21.7109 31.3954 21.6121 31.3954H14.727C14.6282 31.3954 14.5334 31.4346 14.4635 31.5045C14.3936 31.5744 14.3544 31.6692 14.3544 31.768C14.3544 31.8669 14.3936 31.9616 14.4635 32.0315C14.5334 32.1014 14.6282 32.1407 14.727 32.1407ZM26.2824 34.2059H14.727C14.6777 34.2052 14.6287 34.2143 14.5828 34.2327C14.537 34.2511 14.4953 34.2784 14.4602 34.3131C14.425 34.3478 14.3971 34.3891 14.3781 34.4346C14.359 34.4801 14.3492 34.529 14.3492 34.5784C14.3492 34.6277 14.359 34.6766 14.3781 34.7221C14.3971 34.7677 14.425 34.809 14.4602 34.8436C14.4953 34.8783 14.537 34.9056 14.5828 34.924C14.6287 34.9424 14.6777 34.9515 14.727 34.9508H26.2824C26.3317 34.9515 26.3807 34.9424 26.4266 34.924C26.4724 34.9056 26.5141 34.8783 26.5492 34.8436C26.5844 34.809 26.6123 34.7677 26.6313 34.7221C26.6504 34.6766 26.6602 34.6277 26.6602 34.5784C26.6602 34.529 26.6504 34.4801 26.6313 34.4346C26.6123 34.3891 26.5844 34.3478 26.5492 34.3131C26.5141 34.2784 26.4724 34.2511 26.4266 34.2327C26.3807 34.2143 26.3317 34.2052 26.2824 34.2059ZM26.2824 37.0165H14.727C14.6282 37.0165 14.5334 37.0558 14.4635 37.1257C14.3936 37.1956 14.3544 37.2903 14.3544 37.3892C14.3544 37.488 14.3936 37.5828 14.4635 37.6527C14.5334 37.7226 14.6282 37.7618 14.727 37.7618H26.2824C26.3812 37.7618 26.476 37.7226 26.5459 37.6527C26.6158 37.5828 26.655 37.488 26.655 37.3892C26.655 37.2903 26.6158 37.1956 26.5459 37.1257C26.476 37.0558 26.3812 37.0165 26.2824 37.0165Z" stroke="black" stroke-width="0.6" mask="url(#path-1-outside-1_7129_7420)"/>
</svg>
