<svg width="50" height="50" viewBox="0 0 50 50" fill="none" xmlns="http://www.w3.org/2000/svg">
<path d="M42.7259 30.0732H42.3076V30.5214H42.7259V30.0732Z" fill="black"/>
<path d="M7.40556 21.6396H6.9873V22.5352H7.40556V21.6396Z" fill="black"/>
<path d="M7.40556 23.4297H6.9873V24.3243H7.40556V23.4297Z" fill="black"/>
<path d="M7.40556 19.8506H6.9873V20.7452H7.40556V19.8506Z" fill="black"/>
<path d="M7.40556 14.4805H6.9873V15.3751H7.40556V14.4805Z" fill="black"/>
<path d="M7.40556 12.6895H6.9873V13.5841H7.40556V12.6895Z" fill="black"/>
<path d="M7.40556 16.2695H6.9873V17.1642H7.40556V16.2695Z" fill="black"/>
<path d="M7.40556 18.0596H6.9873V18.9547H7.40556V18.0596Z" fill="black"/>
<path d="M7.40556 25.2197H6.9873V26.1144H7.40556V25.2197Z" fill="black"/>
<path d="M7.40556 37.75H6.9873V38.6451H7.40556V37.75Z" fill="black"/>
<path d="M7.56728 39.3984L7.21289 39.6109C7.40808 39.9101 7.7085 40.1286 8.05929 40.2253L8.17487 39.8393C7.92347 39.7698 7.7076 39.6135 7.56728 39.3984Z" fill="black"/>
<path d="M7.40556 34.1699H6.9873V35.0646H7.40556V34.1699Z" fill="black"/>
<path d="M7.40556 28.7998H6.9873V29.6949H7.40556V28.7998Z" fill="black"/>
<path d="M7.40556 27.0098H6.9873V27.9044H7.40556V27.0098Z" fill="black"/>
<path d="M7.40556 30.5898H6.9873V31.4849H7.40556V30.5898Z" fill="black"/>
<path d="M7.40556 32.3799H6.9873V33.275H7.40556V32.3799Z" fill="black"/>
<path d="M34.6886 9.71875H33.7563V10.1203H34.6886V9.71875Z" fill="black"/>
<path d="M42.2988 11.0095C42.3047 11.0535 42.3083 11.0989 42.3083 11.1438V11.8787H42.7265V11.1438C42.7265 11.0812 42.7225 11.0194 42.7144 10.959L42.2988 11.0095Z" fill="black"/>
<path d="M42.7259 12.7744H42.3076V13.6691H42.7259V12.7744Z" fill="black"/>
<path d="M41.2144 9.71973L41.2449 10.1213C41.4981 10.1213 41.7437 10.2089 41.9357 10.3674L42.2083 10.063C41.9407 9.84149 41.5984 9.71973 41.2445 9.71973H41.2144Z" fill="black"/>
<path d="M42.7259 18.1445H42.3076V19.0396H42.7259V18.1445Z" fill="black"/>
<path d="M7.40605 11.1437C7.40605 11.0738 7.41369 11.0055 7.42673 10.9403L7.01658 10.8613C6.99724 10.9537 6.98779 11.0487 6.98779 11.1437V11.794H7.40605V11.1437Z" fill="black"/>
<path d="M42.7259 14.5645H42.3076V15.4591H42.7259V14.5645Z" fill="black"/>
<path d="M42.7259 16.3545H42.3076V17.2491H42.7259V16.3545Z" fill="black"/>
<path d="M40.2824 9.71875H39.3506V10.1203H40.2824V9.71875Z" fill="black"/>
<path d="M30.9597 9.71875H30.0278V10.1203H30.9597V9.71875Z" fill="black"/>
<path d="M29.0954 9.71875H28.1636V10.1203H29.0954V9.71875Z" fill="black"/>
<path d="M27.2311 9.71875H26.2988V10.1203H27.2311V9.71875Z" fill="black"/>
<path d="M32.8249 9.71875H31.8926V10.1203H32.8249V9.71875Z" fill="black"/>
<path d="M36.5534 9.71875H35.6211V10.1203H36.5534V9.71875Z" fill="black"/>
<path d="M7.58447 10.0007L7.83453 10.3228C8.01892 10.1903 8.23794 10.1203 8.46865 10.1203H8.58693V9.71875H8.46865C8.14709 9.71875 7.84127 9.81633 7.58447 10.0007Z" fill="black"/>
<path d="M38.4177 9.71875H37.4858V10.1203H38.4177V9.71875Z" fill="black"/>
<path d="M7.40556 35.96H6.9873V36.8546H7.40556V35.96Z" fill="black"/>
<path d="M37.9431 39.8789H37.0112V40.2805H37.9431V39.8789Z" fill="black"/>
<path d="M32.3494 39.8789H31.418V40.2805H32.3494V39.8789Z" fill="black"/>
<path d="M30.4851 39.8789H29.5532V40.2805H30.4851V39.8789Z" fill="black"/>
<path d="M36.0783 39.8789H35.1465V40.2805H36.0783V39.8789Z" fill="black"/>
<path d="M34.2146 39.8789H33.2827V40.2805H34.2146V39.8789Z" fill="black"/>
<path d="M28.6203 39.8789H27.6885V40.2805H28.6203V39.8789Z" fill="black"/>
<path d="M25.3669 9.71875H24.4346V10.1203H25.3669V9.71875Z" fill="black"/>
<path d="M26.7566 39.8789H25.8247V40.2805H26.7566V39.8789Z" fill="black"/>
<path d="M24.8918 39.8789H23.96V40.2805H24.8918V39.8789Z" fill="black"/>
<path d="M42.7259 33.207H42.3076V34.1017H42.7259V33.207Z" fill="black"/>
<path d="M42.7259 31.417H42.3076V32.3116H42.7259V31.417Z" fill="black"/>
<path d="M42.7259 34.9971H42.3076V35.8917H42.7259V34.9971Z" fill="black"/>
<path d="M41.7333 40.2009L41.5952 39.8223C41.4832 39.8603 41.3649 39.8788 41.2453 39.8788H40.7402V40.2804H41.2453C41.4126 40.2804 41.5767 40.2536 41.7333 40.2009Z" fill="black"/>
<path d="M39.8073 39.8789H38.8755V40.2805H39.8073V39.8789Z" fill="black"/>
<path d="M42.7259 36.7871H42.3076V37.6818H42.7259V36.7871Z" fill="black"/>
<path d="M42.7258 38.8561V38.5771H42.3076V38.8561C42.3076 39.0288 42.2622 39.1998 42.1763 39.3496L42.5419 39.5435C42.6624 39.3341 42.7258 39.0961 42.7258 38.8561Z" fill="black"/>
<path d="M16.0446 9.71875H15.1123V10.1203H16.0446V9.71875Z" fill="black"/>
<path d="M14.1799 9.71875H13.248V10.1203H14.1799V9.71875Z" fill="black"/>
<path d="M15.5695 39.8789H14.6377V40.2805H15.5695V39.8789Z" fill="black"/>
<path d="M9.9758 39.8789H9.04395V40.2805H9.9758V39.8789Z" fill="black"/>
<path d="M13.7053 39.8789H12.7734V40.2805H13.7053V39.8789Z" fill="black"/>
<path d="M10.4513 9.71875H9.51904V10.1203H10.4513V9.71875Z" fill="black"/>
<path d="M12.3152 9.71875H11.3833V10.1203H12.3152V9.71875Z" fill="black"/>
<path d="M11.8405 39.8789H10.9087V40.2805H11.8405V39.8789Z" fill="black"/>
<path d="M19.2986 39.8789H18.3667V40.2805H19.2986V39.8789Z" fill="black"/>
<path d="M21.6379 9.71875H20.7061V10.1203H21.6379V9.71875Z" fill="black"/>
<path d="M23.0275 39.8789H22.0952V40.2805H23.0275V39.8789Z" fill="black"/>
<path d="M21.1628 39.8789H20.231V40.2805H21.1628V39.8789Z" fill="black"/>
<path d="M17.9089 9.71875H16.9771V10.1203H17.9089V9.71875Z" fill="black"/>
<path d="M17.4343 39.8789H16.502V40.2805H17.4343V39.8789Z" fill="black"/>
<path d="M23.5017 9.71875H22.5698V10.1203H23.5017V9.71875Z" fill="black"/>
<path d="M19.7732 9.71875H18.8413V10.1203H19.7732V9.71875Z" fill="black"/>
<path d="M42.7259 19.9482H42.3076V20.3973H42.7259V19.9482Z" fill="black"/>
<path d="M44.7139 20.8364V10.6442C44.7139 9.1861 43.4785 8 41.9597 8H7.75373C6.23497 8 5 9.1861 5 10.6442V39.3563C5 40.8144 6.23497 42.0001 7.75373 42.0001H41.9597C43.4785 42.0001 44.7139 40.8144 44.7139 39.3563V29.4945C45.1636 29.2829 45.4762 28.8429 45.4762 28.3299V22.0013C45.4762 21.4884 45.1636 21.0484 44.7139 20.8364ZM43.8774 28.8269H31.3041C29.2079 28.8269 27.5025 27.1844 27.5025 25.1654C27.5025 23.1469 29.2079 21.5044 31.3041 21.5044H43.8774V28.8269ZM43.8774 20.7012H31.3041C28.7465 20.7012 26.666 22.7043 26.666 25.165C26.666 27.6266 28.7465 29.6296 31.3041 29.6296H43.8774V39.3559C43.8774 40.371 43.017 41.197 41.9593 41.197H7.75373C6.69685 41.197 5.83606 40.371 5.83606 39.3559V10.6442C5.83606 9.62824 6.69685 8.80268 7.75373 8.80268H41.9597C43.0175 8.80268 43.8778 9.62824 43.8778 10.6442L43.8774 20.7012Z" fill="black"/>
<path d="M30.4606 26.3807C31.2338 26.3807 31.8606 25.7774 31.8606 25.0331C31.8606 24.2889 31.2338 23.6855 30.4606 23.6855C29.6874 23.6855 29.0605 24.2889 29.0605 25.0331C29.0605 25.7774 29.6874 26.3807 30.4606 26.3807Z" fill="black"/>
</svg>
