<svg width="30" height="30" viewBox="0 0 54 54" fill="none"
                                xmlns="http://www.w3.org/2000/svg">
                                <path
                                    d="M52.3983 44.5253H51.5233V15.5543C51.4983 14.8746 51.2108 14.2316 50.7214 13.7598C50.2316 13.2883 49.578 13.025 48.8984 13.0254H34.8984C34.6726 10.0496 33.6609 7.18709 31.9672 4.73049C31.1883 3.54029 29.132 0.775391 27.0234 0.775391C24.9148 0.775391 22.8586 3.53159 22.0796 4.72149C20.4058 7.19179 19.3964 10.0516 19.1484 13.0254H5.14839C4.4687 13.025 3.81519 13.2883 3.32539 13.7598C2.83594 14.2317 2.54844 14.8746 2.52344 15.5543V44.5253H1.64844C1.16524 44.5253 0.773438 44.9171 0.773438 45.4003V48.9003C0.773438 50.0605 1.23438 51.1733 2.05464 51.9941C2.87534 52.8144 3.98824 53.2753 5.14844 53.2753H48.8984C50.0586 53.2753 51.1714 52.8143 51.9922 51.9941C52.8126 51.1734 53.2734 50.0605 53.2734 48.9003V45.4003C53.2734 45.1682 53.1813 44.9456 53.0172 44.7815C52.8531 44.6175 52.6304 44.5253 52.3983 44.5253ZM34.6003 17.0853C35.9073 18.7927 36.8054 20.7775 37.2253 22.8865C36.3628 21.9115 35.3276 21.1049 34.1718 20.5064C34.3293 19.1939 34.4781 18.0564 34.6003 17.0853ZM27.023 2.52527C27.618 2.52527 28.773 3.32136 30.0503 5.04517C29.1671 5.6772 28.1093 6.01978 27.023 6.02525C25.9347 6.02369 24.875 5.67759 23.9957 5.03658C25.2117 3.40028 26.4019 2.52527 27.023 2.52527ZM23.0242 6.50647C24.193 7.33459 25.5906 7.77797 27.023 7.77527C28.4539 7.77722 29.8503 7.33699 31.0218 6.51507C32.2952 8.59667 33.0265 10.9643 33.148 13.4014V13.8565C33.148 14.1803 33.148 14.5565 33.0691 14.9503C32.9379 16.3417 32.693 18.2753 32.3254 20.8741C32.0105 23.0616 31.6953 25.1003 31.5293 26.1241H22.5168C22.3504 25.0741 22.0355 23.044 21.7207 20.8741C21.4758 19.1854 21.152 16.7878 20.9855 14.9593V14.7405C20.9855 14.4167 20.9242 14.1104 20.9156 13.8655V13.8651C20.9258 11.2647 21.6555 8.71777 23.0242 6.50647ZM23.5231 27.9005H30.5231V29.6505H23.5231V27.9005ZM19.4543 17.0855C19.5941 18.2582 19.7519 19.4832 19.9004 20.5242C18.7465 21.1253 17.7117 21.932 16.8469 22.9043C17.259 20.7906 18.1512 18.7996 19.4543 17.0855ZM4.27327 15.5543C4.32249 15.109 4.70022 14.7726 5.14827 14.7754H19.1483C16.2647 17.8527 14.6952 21.9336 14.7733 26.1504V26.3515C14.7639 26.7715 15.0541 27.1386 15.4647 27.2265H15.6483C15.992 27.2258 16.3037 27.0238 16.4444 26.7105C17.2123 24.9066 18.5132 23.38 20.1721 22.3355C20.5572 24.9605 20.9072 27.1043 20.9072 27.1304H20.9068C20.96 27.5687 21.3314 27.8992 21.7732 27.9003V30.5253C21.7732 30.7574 21.8654 30.98 22.0295 31.1441C22.1935 31.3081 22.4162 31.4003 22.6482 31.4003H31.3982C31.6303 31.4003 31.8529 31.3081 32.017 31.1441C32.181 30.98 32.2732 30.7574 32.2732 30.5253V27.9003C32.7068 27.9058 33.0791 27.5933 33.1482 27.1652C33.1482 27.1652 33.4982 24.9863 33.892 22.3527C35.5506 23.3961 36.8486 24.923 37.6108 26.7277C37.7518 27.0413 38.0631 27.2433 38.4069 27.2441H38.5909C39.0014 27.1562 39.2912 26.789 39.2819 26.3691V26.1503C39.344 22.3753 38.1085 18.6937 35.7819 15.7203C35.528 15.4055 35.2483 15.0992 34.9592 14.8016H48.8982C49.3463 14.7988 49.724 15.1352 49.7732 15.5805V44.5255H4.27322L4.27327 15.5543ZM33.8663 46.2753C33.6858 46.7858 33.3518 47.228 32.91 47.5413C32.4682 47.8546 31.9401 48.0237 31.3987 48.0253H22.6487C22.1073 48.0237 21.5792 47.8546 21.1374 47.5413C20.6956 47.228 20.3616 46.7858 20.1812 46.2753H33.8663ZM51.5233 48.9003C51.5233 49.5964 51.2467 50.2644 50.7545 50.7565C50.2623 51.2486 49.5943 51.5252 48.8983 51.5252H5.14832C4.45223 51.5252 3.78422 51.2487 3.29212 50.7565C2.80002 50.2643 2.52337 49.5963 2.52337 48.9003V46.2753H18.3614C18.5629 47.2636 19.1 48.1515 19.8813 48.7894C20.6625 49.4273 21.6403 49.7757 22.6489 49.7753H31.3989C32.4075 49.7757 33.3852 49.4273 34.1665 48.7894C34.9478 48.1515 35.4849 47.2636 35.6864 46.2753H51.5244L51.5233 48.9003ZM22.6483 34.1483C22.5807 33.6647 22.9174 33.2182 23.4006 33.1506C23.8842 33.083 24.3307 33.4198 24.3983 33.903C24.7131 36.0643 25.7631 39.2757 27.0233 39.2757C28.2835 39.2757 29.3421 36.0644 29.6483 33.903C29.7158 33.4198 30.1623 33.083 30.6459 33.1506C31.1291 33.2182 31.4658 33.6647 31.3983 34.1483C31.2233 35.2944 30.2432 41.0256 27.0233 41.0256C23.8034 41.0256 22.8233 35.2944 22.6483 34.1483ZM26.1483 35.7756V34.0256C26.1483 33.5424 26.5401 33.1506 27.0233 33.1506C27.5065 33.1506 27.8983 33.5424 27.8983 34.0256V35.7756C27.8983 36.2588 27.5065 36.6506 27.0233 36.6506C26.5401 36.6506 26.1483 36.2588 26.1483 35.7756ZM27.0233 17.4006C27.9514 17.4006 28.8417 17.0318 29.4983 16.3756C30.1545 15.7189 30.5233 14.8287 30.5233 13.9006C30.5233 12.9725 30.1545 12.0822 29.4983 11.4256C28.8416 10.7693 27.9514 10.4006 27.0233 10.4006C26.0952 10.4006 25.2049 10.7693 24.5483 11.4256C23.892 12.0822 23.5233 12.9725 23.5233 13.9006C23.5233 14.8287 23.892 15.719 24.5483 16.3756C25.2049 17.0318 26.0952 17.4006 27.0233 17.4006ZM27.0233 12.1506C27.4873 12.1506 27.9326 12.335 28.2608 12.6631C28.5889 12.9912 28.7733 13.4365 28.7733 13.9006C28.7733 14.3646 28.5889 14.81 28.2608 15.1381C27.9326 15.4662 27.4873 15.6506 27.0233 15.6506C26.5592 15.6506 26.1139 15.4662 25.7858 15.1381C25.4576 14.81 25.2733 14.3646 25.2733 13.9006C25.2733 13.4365 25.4576 12.9912 25.7858 12.6631C26.1139 12.335 26.5592 12.1506 27.0233 12.1506Z"
                                    fill="black" />
                            </svg>