<svg width="38" height="38" viewBox="0 0 38 30" fill="none"
                                xmlns="http://www.w3.org/2000/svg">
                                <path
                                    d="M29.92 13.1049H30.42V12.6049V9.84514C30.42 9.73616 30.4716 9.67844 30.5236 9.65243C30.5752 9.62664 30.6515 9.61988 30.7378 9.68349C30.7385 9.68404 30.7393 9.6846 30.74 9.68516L37.4132 14.8399C37.4133 14.8399 37.4134 14.84 37.4135 14.8401C37.4611 14.8772 37.4934 14.9389 37.4953 15.0169C37.4971 15.0926 37.4695 15.1504 37.4377 15.1824L30.7742 20.3295L30.7741 20.3293L30.7633 20.3382C30.6643 20.4191 30.4599 20.3623 30.4599 20.1652V17.4051V16.9051H29.9599H25.7199H25.2199V17.4051V24.1646C25.2199 27.0863 22.8458 29.4247 19.9599 29.4247H11.9599C9.0382 29.4247 6.69979 27.0506 6.69979 24.1646V17.4448V16.9448H6.19979H0.719857C0.596046 16.9448 0.5 16.8488 0.5 16.7249V13.3248C0.5 13.201 0.596018 13.1049 0.719857 13.1049H6.12H6.62V12.6049V5.88507C6.62 2.96341 8.99408 0.625 11.8801 0.625H19.8801C22.8017 0.625 25.1401 2.99908 25.1401 5.88507V12.6049V13.1049H25.6401H29.92ZM9.48 16.9052H8.98V17.4052V24.125C8.98 25.7611 10.2839 27.065 11.92 27.065H19.92C21.5561 27.065 22.86 25.7611 22.86 24.125V5.88509C22.86 4.24901 21.5561 2.94509 19.92 2.94509H11.92C10.2839 2.94509 8.98 4.24901 8.98 5.88509V12.6049V13.1049H9.48H18.66V16.9052H9.48Z"
                                    stroke="black" />
                            </svg>