<svg width="38" height="38" viewBox="0 0 41 41" fill="none"
                                xmlns="http://www.w3.org/2000/svg">
                                <path
                                    d="M20.9844 17.2324C19.2595 17.2324 17.8594 18.6326 17.8594 20.3577C17.8594 22.0829 19.2595 23.4824 20.9844 23.4824C22.7098 23.4824 24.1094 22.0829 24.1094 20.3577C24.1094 18.6326 22.7098 17.2324 20.9844 17.2324ZM20.9844 22.2324C19.9503 22.2324 19.1094 21.3915 19.1094 20.3577C19.1094 19.3236 19.9503 18.4824 20.9844 18.4824C22.0184 18.4824 22.8594 19.3236 22.8594 20.3577C22.8594 21.3915 22.0184 22.2324 20.9844 22.2324Z"
                                    fill="black" />
                                <path
                                    d="M22.0546 10.69C21.7599 10.5126 21.3721 10.4238 20.9843 10.4238C20.5965 10.4238 20.2087 10.5126 19.914 10.6903L12.9922 14.8674C12.4034 15.2226 11.9219 16.0756 11.9219 16.7631V25.2009C11.9219 25.8884 12.4035 26.7414 12.9922 27.0966L15.7776 28.7771C16.9322 29.5285 18.6794 30.6967 19.861 31.363C20.1197 31.5098 20.5907 31.6066 21.0452 31.6066C21.3794 31.6066 21.7048 31.5541 21.9294 31.4305C22.7782 30.9637 28.9768 27.0968 28.9768 27.0968C29.5653 26.7414 30.0468 25.8884 30.0468 25.2009V16.763C30.0468 16.0755 29.5652 15.2226 28.9765 14.8674L22.0546 10.69ZM28.7968 25.2014C28.7968 25.4509 28.544 25.8982 28.3308 26.0271L26.9118 26.8834C26.3934 25.6211 25.4185 24.4835 24.272 23.7422C23.9503 24.0639 23.5837 24.3384 23.1816 24.5558C24.3021 25.1445 25.3238 26.2455 25.7918 27.4464C25.4143 27.7079 21.409 30.2037 21.409 30.2037C21.3554 30.2358 21.2059 30.2902 20.9843 30.2902C20.7628 30.2902 20.6132 30.2355 20.5599 30.2035L16.4405 27.7177C16.3191 27.6387 16.2042 27.5642 16.1012 27.4981C16.4595 26.1459 17.5162 25.0614 18.7034 24.5084C18.303 24.281 17.9392 23.9953 17.6219 23.6633C16.431 24.3726 15.4506 25.5007 14.9957 26.8461L13.638 26.0269C13.4246 25.8982 13.1718 25.451 13.1718 25.2015V16.7637C13.1718 16.5142 13.4246 16.0669 13.6377 15.938L20.5596 11.7609C20.6129 11.7288 20.7624 11.6741 20.984 11.6741C21.2055 11.6741 21.3551 11.7288 21.4084 11.7609L28.3302 15.938C28.5439 16.0669 28.7967 16.5142 28.7967 16.7637L28.7968 25.2014Z"
                                    fill="black" />
                                <path
                                    d="M3.79402 11.0689C3.96813 11.3652 4.39196 11.6074 4.73574 11.6074H9.73574C10.0795 11.6074 10.5033 11.3653 10.6775 11.0689L13.1688 6.834C13.3432 6.53769 13.3432 6.053 13.1688 5.75671L10.6775 1.52093C10.5033 1.22461 10.0795 0.982422 9.73574 0.982422H4.73574C4.39199 0.982422 3.96816 1.22461 3.79402 1.52093L1.30266 5.75643C1.12828 6.05274 1.12828 6.53743 1.30266 6.83371L3.79402 11.0689ZM4.82581 2.2325H9.64581L12.0356 6.29529L10.4764 8.94543C10.2733 8.49649 9.92595 8.11229 9.49545 7.82236C9.16426 8.17002 8.75438 8.4401 8.29431 8.60664C8.93911 8.82791 9.42324 9.3187 9.42324 9.84521V10.3555C9.42212 10.3561 9.42045 10.3569 9.41905 10.3575H5.14312C5.13029 10.3491 5.11745 10.3413 5.1049 10.3335C5.0876 10.3226 5.06834 10.3106 5.04881 10.2981V9.84522C5.04881 9.31899 5.53291 8.8285 6.17803 8.60693C5.71793 8.44064 5.30774 8.17054 4.9766 7.82314C4.54608 8.11304 4.19867 8.49725 3.9956 8.94622L2.43617 6.29557L4.82581 2.2325Z"
                                    fill="black" />
                                <path
                                    d="M7.23438 7.54492C8.26952 7.54492 9.10938 6.70506 9.10938 5.66992C9.10938 4.63478 8.26952 3.79492 7.23438 3.79492C6.19923 3.79492 5.35938 4.63478 5.35938 5.66992C5.35938 6.70506 6.19923 7.54492 7.23438 7.54492ZM7.23438 5.04492C7.57896 5.04492 7.85938 5.32534 7.85938 5.66992C7.85938 6.01451 7.57896 6.29492 7.23438 6.29492C6.88979 6.29492 6.60938 6.01451 6.60938 5.66992C6.60938 5.32534 6.88979 5.04492 7.23438 5.04492Z"
                                    fill="black" />
                                <path
                                    d="M20.988 2.23242C23.7157 2.23242 26.3064 2.82254 28.6466 3.87442L29.2867 2.78628C26.7582 1.63114 23.9496 0.982422 20.9881 0.982422C18.0835 0.982422 15.3262 1.60686 12.8359 2.72042L13.476 3.80828C15.7774 2.79771 18.3172 2.23242 20.9881 2.23242H20.988Z"
                                    fill="black" />
                                <path
                                    d="M28.9821 6.834L31.4735 11.0689C31.6479 11.3652 32.0717 11.6074 32.4155 11.6074H37.4155C37.7592 11.6074 38.1831 11.3653 38.3572 11.0689L40.8486 6.834C41.023 6.53769 41.023 6.053 40.8486 5.75671L38.3572 1.52093C38.1831 1.22461 37.759 0.982422 37.4155 0.982422H32.4155C32.0718 0.982422 31.6479 1.22461 31.4738 1.52093L28.9821 5.75671C28.808 6.05303 28.808 6.53771 28.9821 6.834ZM32.5053 2.23243H37.3253L39.7151 6.29521L38.1559 8.94536C37.9528 8.49642 37.6054 8.11222 37.1749 7.82229C36.8437 8.16994 36.4339 8.44003 35.9738 8.60657C36.6189 8.82784 37.103 9.31863 37.103 9.84486V10.3552C37.1016 10.356 37.1002 10.3569 37.0985 10.3574H32.8226C32.8098 10.349 32.7969 10.3412 32.7844 10.3334C32.7671 10.3225 32.7478 10.3105 32.7283 10.298V9.84514C32.7283 9.31891 33.2124 8.82842 33.8575 8.60685C33.3974 8.44056 32.9872 8.17047 32.6561 7.82307C32.2256 8.11297 31.8782 8.49717 31.6751 8.94614L30.1157 6.2955L32.5053 2.23243Z"
                                    fill="black" />
                                <path
                                    d="M34.9219 7.54492C35.957 7.54492 36.7969 6.70506 36.7969 5.66992C36.7969 4.63478 35.957 3.79492 34.9219 3.79492C33.8867 3.79492 33.0469 4.63478 33.0469 5.66992C33.0469 6.70506 33.8867 7.54492 34.9219 7.54492ZM34.9219 5.04492C35.2665 5.04492 35.5469 5.32534 35.5469 5.66992C35.5469 6.01451 35.2665 6.29492 34.9219 6.29492C34.5773 6.29492 34.2969 6.01451 34.2969 5.66992C34.2969 5.32534 34.5773 5.04492 34.9219 5.04492Z"
                                    fill="black" />
                                <path
                                    d="M13.1691 35.1317L10.6777 30.8962C10.5033 30.5996 10.0795 30.3574 9.73573 30.3574H4.73574C4.39199 30.3574 3.96816 30.5996 3.79402 30.8959L1.30266 35.1314C1.12828 35.4277 1.12828 35.9124 1.30266 36.2087L3.79402 40.4436C3.96813 40.7402 4.39196 40.9824 4.73574 40.9824H9.73573C10.0795 40.9824 10.5033 40.7402 10.6774 40.4439L13.1688 36.209C13.3432 35.9127 13.3432 35.428 13.1691 35.1317ZM10.4763 38.3204C10.2732 37.8714 9.92581 37.4872 9.49531 37.1973C9.16411 37.5449 8.75423 37.815 8.29416 37.9816C8.93925 38.2028 9.42338 38.6936 9.42338 39.2201V39.7305C9.42226 39.731 9.42059 39.7319 9.41919 39.7327H5.14326C5.13043 39.7243 5.11759 39.7165 5.10504 39.7087C5.08774 39.6978 5.06849 39.6858 5.04896 39.6733V39.2204C5.04896 38.6942 5.53305 38.2037 6.17817 37.9821C5.71807 37.8158 5.30788 37.5457 4.97674 37.1983C4.54622 37.4882 4.19881 37.8725 3.99574 38.3214L2.43631 35.6708L4.8261 31.6074H9.6461L12.0359 35.6702L10.4763 38.3204Z"
                                    fill="black" />
                                <path
                                    d="M7.23438 33.1699C6.19923 33.1699 5.35938 34.0098 5.35938 35.0449C5.35938 36.0801 6.19923 36.9199 7.23438 36.9199C8.26952 36.9199 9.10938 36.0801 9.10938 35.0449C9.10938 34.0098 8.26952 33.1699 7.23438 33.1699ZM7.23438 35.6699C6.88979 35.6699 6.60938 35.3895 6.60938 35.0449C6.60938 34.7003 6.88979 34.4199 7.23438 34.4199C7.57896 34.4199 7.85938 34.7003 7.85938 35.0449C7.85938 35.3895 7.57896 35.6699 7.23438 35.6699Z"
                                    fill="black" />
                                <path
                                    d="M38.9746 29.7213C40.2595 27.0812 40.9816 24.1169 40.9816 20.9827C40.9816 17.8485 40.2596 14.8845 38.9746 12.2441C38.6557 12.5215 38.2612 12.7204 37.8516 12.8064C39.055 15.2787 39.7316 18.0527 39.7316 20.9821C39.7316 23.9114 39.0549 26.6858 37.8519 29.1585C38.2612 29.2442 38.6557 29.4431 38.9746 29.7204V29.7213Z"
                                    fill="black" />
                                <path
                                    d="M38.3574 30.8959C38.1833 30.5996 37.7592 30.3574 37.4157 30.3574H32.4157C32.072 30.3574 31.6481 30.5996 31.474 30.8959L28.9824 35.1317C28.808 35.428 28.808 35.9127 28.9824 36.209L31.4737 40.4439C31.6481 40.7402 32.0719 40.9824 32.4157 40.9824H37.4157C37.7595 40.9824 38.1833 40.7403 38.3574 40.4439L40.8488 36.209C41.0232 35.9127 41.0232 35.428 40.8488 35.1317L38.3574 30.8959ZM38.1563 38.3202C37.9531 37.8713 37.6058 37.4871 37.1753 37.1971C36.8441 37.5448 36.4342 37.8149 35.9741 37.9814C36.6192 38.2027 37.1033 38.6935 37.1033 39.2197V39.73C37.1022 39.7306 37.1005 39.7314 37.0991 39.7323H32.8232C32.8104 39.7239 32.7975 39.7161 32.785 39.7083C32.7677 39.6974 32.7484 39.6854 32.7289 39.6728V39.22C32.7289 38.6938 33.213 38.2033 33.8581 37.9817C33.398 37.8154 32.9878 37.5453 32.6567 37.1979C32.2262 37.4878 31.8788 37.872 31.6757 38.321L30.1163 35.6704L32.5058 31.6073H37.3258L39.7155 35.6701L38.1563 38.3202Z"
                                    fill="black" />
                                <path
                                    d="M34.9219 33.1699C33.8867 33.1699 33.0469 34.0098 33.0469 35.0449C33.0469 36.0801 33.8867 36.9199 34.9219 36.9199C35.957 36.9199 36.7969 36.0801 36.7969 35.0449C36.7969 34.0098 35.957 33.1699 34.9219 33.1699ZM34.9219 35.6699C34.5773 35.6699 34.2969 35.3895 34.2969 35.0449C34.2969 34.7003 34.5773 34.4199 34.9219 34.4199C35.2665 34.4199 35.5469 34.7003 35.5469 35.0449C35.5469 35.3895 35.2665 35.6699 34.9219 35.6699Z"
                                    fill="black" />
                                <path
                                    d="M4.13309 29.1955C2.91852 26.7137 2.23437 23.9268 2.23437 20.9827C2.23437 18.0385 2.91852 15.2514 4.13309 12.7698C3.72823 12.6535 3.34652 12.4263 3.05023 12.1289C1.72995 14.7983 0.984375 17.803 0.984375 20.9832C0.984375 24.1633 1.72995 27.1676 3.05052 29.8375C3.34683 29.54 3.72825 29.3129 4.13309 29.1966V29.1955Z"
                                    fill="black" />
                                <path
                                    d="M20.9806 39.7318C18.3101 39.7318 15.77 39.1665 13.4685 38.156L12.8281 39.2438C15.3189 40.3574 18.0762 40.9818 20.981 40.9818C23.9425 40.9818 26.7511 40.3331 29.2796 39.178L28.6392 38.0898C26.2994 39.1418 23.7087 39.7318 20.9814 39.7318H20.9806Z"
                                    fill="black" />
                            </svg>