<svg width="50" height="50" viewBox="0 0 28 38" fill="none"
                                xmlns="http://www.w3.org/2000/svg">
                                <path
                                    d="M23.9997 0.267992H12.0476C11.052 0.264923 10.0969 0.660571 9.39523 1.36678L1.3488 9.41321C0.64261 10.1149 0.246946 11.07 0.250018 12.0656V34.0177C0.251134 35.0119 0.646504 35.9653 1.34966 36.6681C2.0525 37.3712 3.00595 37.7666 4.00002 37.7677H10.6666C10.8968 37.7677 11.0834 37.581 11.0834 37.3511C11.0834 37.1209 10.8968 36.9343 10.6666 36.9343H4.00002C3.22688 36.9335 2.48552 36.6257 1.93866 36.0791C1.39207 35.5322 1.0843 34.7909 1.08345 34.0177V21.1013H7.61888C8.39316 21.0991 9.13616 21.4068 9.68195 21.9556L11.0622 23.3359C11.764 24.0418 12.719 24.4375 13.7143 24.4344H18.6677C18.7576 24.9004 19.0056 25.3206 19.37 25.6244C19.7341 25.9283 20.1923 26.0965 20.6666 26.1013C21.411 26.1013 22.0988 25.7042 22.471 25.0594C22.8429 24.4149 22.8429 23.6208 22.471 22.9763C22.0988 22.3315 21.411 21.9344 20.6666 21.9344C20.1923 21.9392 19.7341 22.1074 19.37 22.4113C19.0056 22.7151 18.7576 23.1353 18.6677 23.6013H13.7143C12.94 23.6035 12.1973 23.2957 11.6512 22.7466L10.2709 21.3663L10.2712 21.3666C9.5695 20.6604 8.61444 20.2648 7.61887 20.2678H1.08344V14.4344H18.6677C18.7576 14.9004 19.0056 15.3205 19.37 15.6244C19.7341 15.9282 20.1923 16.0965 20.6666 16.1012C21.411 16.1012 22.0988 15.7042 22.471 15.0594C22.8429 14.4149 22.8429 13.6207 22.471 12.9762C22.0988 12.3314 21.411 11.9344 20.6666 11.9344C20.1923 11.9391 19.7341 12.1074 19.37 12.4112C19.0056 12.7151 18.7576 13.1353 18.6677 13.6012H1.08344V12.0655C1.08651 11.7365 1.14538 11.4104 1.25755 11.1012H5.66662C5.89681 11.1012 6.08347 10.9146 6.08347 10.6844C6.08347 10.4545 5.8968 10.2678 5.66662 10.2678H1.71962C1.78714 10.1752 1.85996 10.0867 1.93781 10.0025L9.98495 1.95531C10.0692 1.87747 10.1577 1.80464 10.2503 1.73712V7.35098C10.2495 8.12412 9.9417 8.86548 9.3948 9.41205C8.8482 9.95892 8.10687 10.2667 7.33373 10.2676C7.10353 10.2676 6.91688 10.4542 6.91688 10.6841C6.91688 10.9143 7.10354 11.101 7.33373 11.101C8.25337 11.0979 9.1398 10.7567 9.82365 10.1417C10.5075 9.52673 10.9412 8.68161 11.0416 7.76754H17.3337C18.0779 7.76754 18.7657 7.3705 19.1379 6.72597C19.5101 6.08116 19.5101 5.28704 19.1379 4.64254C18.7657 3.99801 18.0779 3.60097 17.3337 3.60097H11.0837V1.27511C11.3929 1.16295 11.719 1.10408 12.048 1.10101H24.0002C24.7733 1.10184 25.5147 1.4096 26.0615 1.95622C26.6081 2.50309 26.9159 3.24444 26.9167 4.01758V14.0176C26.9167 14.2478 27.1034 14.4342 27.3336 14.4342C27.5635 14.4342 27.7501 14.2478 27.7501 14.0176V4.01758C27.749 3.02344 27.3537 2.07001 26.6505 1.36722C25.9477 0.664092 24.9942 0.268721 24.0001 0.267578L23.9997 0.267992ZM20.6663 22.768C20.9981 22.768 21.3159 22.8997 21.5502 23.1341C21.7846 23.3684 21.9163 23.6865 21.9163 24.018C21.9163 24.3495 21.7846 24.6676 21.5502 24.9019C21.3159 25.1363 20.9981 25.268 20.6663 25.268C20.3348 25.268 20.017 25.1363 19.7824 24.9019C19.548 24.6676 19.4163 24.3495 19.4163 24.018C19.4169 23.6865 19.5486 23.3687 19.7829 23.1346C20.0173 22.9003 20.3351 22.7683 20.6663 22.768ZM20.6663 12.768C20.9981 12.768 21.3159 12.8997 21.5502 13.1341C21.7846 13.3684 21.9163 13.6865 21.9163 14.018C21.9163 14.3495 21.7846 14.6676 21.5502 14.9019C21.3159 15.1363 20.9981 15.268 20.6663 15.268C20.3348 15.268 20.017 15.1363 19.7824 14.9019C19.548 14.6676 19.4163 14.3495 19.4163 14.018C19.4169 13.6865 19.5486 13.3687 19.7829 13.1346C20.0173 12.9003 20.3351 12.7683 20.6663 12.768ZM17.3329 4.43442H17.3332C17.7796 4.43442 18.1922 4.6727 18.4154 5.05942C18.6389 5.44614 18.6389 5.92271 18.4154 6.30942C18.1922 6.69614 17.7796 6.93442 17.3332 6.93442H11.0832V4.43442H17.3329Z"
                                    fill="black" />
                                <path
                                    d="M27.3308 15.2676C27.1006 15.2676 26.9139 15.4543 26.9139 15.6842V34.0177C26.9131 34.7909 26.6053 35.5322 26.0587 36.0791C25.5118 36.6257 24.7705 36.9334 23.9973 36.9343H12.3309C12.1007 36.9343 11.9141 37.121 11.9141 37.3512C11.9141 37.5811 12.1007 37.7677 12.3309 37.7677H23.9973C24.9915 37.7666 25.9449 37.3712 26.6477 36.6681C27.3508 35.9652 27.7462 35.0118 27.7473 34.0177V15.6841C27.7473 15.5737 27.7035 15.4676 27.6254 15.3895C27.5473 15.3114 27.4413 15.2676 27.3308 15.2676Z"
                                    fill="black" />
                                <path
                                    d="M8.58594 34.0175C8.58594 34.128 8.62974 34.234 8.70787 34.3122C8.78599 34.3903 8.89202 34.4341 9.00251 34.4341H22.3361C22.566 34.4341 22.7527 34.2477 22.7527 34.0175C22.7527 33.7873 22.566 33.601 22.3361 33.601H15.6254C15.9145 33.2474 16.0769 32.8075 16.0861 32.351C16.0861 31.6065 15.6891 30.9187 15.0442 30.5465C14.3997 30.1746 13.6056 30.1746 12.9611 30.5465C12.3163 30.9187 11.9192 31.6065 11.9192 32.351C11.9284 32.8074 12.0908 33.2475 12.3799 33.601H9.00268C8.77249 33.601 8.58611 33.7873 8.58611 34.0175H8.58594ZM12.7525 32.351C12.7525 32.0192 12.8842 31.7014 13.1186 31.467C13.353 31.2327 13.671 31.101 14.0025 31.101C14.334 31.101 14.6521 31.2327 14.8864 31.467C15.1208 31.7014 15.2525 32.0192 15.2525 32.351C15.2525 32.6824 15.1208 33.0002 14.8864 33.2349C14.6521 33.4693 14.334 33.601 14.0025 33.601C13.671 33.6004 13.3532 33.4687 13.1192 33.2343C12.8848 33 12.7528 32.6821 12.7525 32.351Z"
                                    fill="black" />
                            </svg>