<svg width="38" height="38" viewBox="0 0 41 41" fill="none"
                                xmlns="http://www.w3.org/2000/svg">
                                <path
                                    d="M38.3178 20.3201H36.3178V15.6532C36.3178 14.9462 36.0368 14.2679 35.5365 13.7676C35.0365 13.2676 34.3582 12.9866 33.6509 12.9866H28.3178C28.3178 12.2793 28.0368 11.6011 27.5365 11.1011C27.0365 10.6011 26.3582 10.3201 25.6509 10.3201H21.6509V8.92664C22.9818 8.70175 24.1093 7.82092 24.6498 6.58428C25.1899 5.34771 25.0705 3.92164 24.3314 2.79242C23.5925 1.66321 22.3339 0.982422 20.9843 0.982422C19.6348 0.982422 18.376 1.66322 17.6373 2.79242C16.8981 3.92164 16.7787 5.34764 17.3189 6.58428C17.8594 7.82085 18.9869 8.70178 20.3178 8.92664V10.3201H16.3178C15.6105 10.3201 14.9322 10.601 14.4322 11.1011C13.9319 11.6011 13.6509 12.2794 13.6509 12.9866V14.3201C13.6509 15.0271 13.9319 15.7054 14.4322 16.2056C14.9322 16.7056 15.6105 16.9866 16.3178 16.9866H20.3178V19.1786C20.2327 19.23 20.154 19.2908 20.0831 19.36L16.6905 22.7526H16.6903C16.6211 22.8232 16.5605 22.9018 16.5097 22.9867H11.6509C11.6509 22.2794 11.37 21.6011 10.8699 21.1011C10.3699 20.6011 9.69166 20.3201 8.98438 20.3201H3.65095C2.94392 20.3201 2.26559 20.6011 1.76537 21.1011C1.26537 21.6011 0.984375 22.2794 0.984375 22.9867V24.3201C0.984375 25.0271 1.26535 25.7055 1.76537 26.2057C2.26565 26.7057 2.94395 26.9867 3.65095 26.9867H5.65095V34.3202H3.65095C2.94392 34.3202 2.26559 34.6012 1.76537 35.1012C1.26537 35.6012 0.984375 36.2795 0.984375 36.9868V38.3202C0.984375 39.0273 1.26535 39.7056 1.76537 40.2058C2.26565 40.7058 2.94395 40.9868 3.65095 40.9868H8.98438C9.69168 40.9868 10.3699 40.7058 10.8699 40.2058C11.3699 39.7055 11.6509 39.0272 11.6509 38.3202H15.6509C15.6509 39.0273 15.9319 39.7056 16.4322 40.2058C16.9322 40.7058 17.6105 40.9868 18.3178 40.9868H23.6512H23.651C24.3583 40.9868 25.0365 40.7058 25.5365 40.2058C26.0368 39.7055 26.3178 39.0272 26.3178 38.3202H30.3845C30.5101 39.0543 30.8873 39.7217 31.4515 40.2084C32.0154 40.695 32.7311 40.9701 33.4758 40.9868H37.8318C38.978 40.9221 40.0104 40.2728 40.5654 39.2681C41.1206 38.2634 41.1206 37.0437 40.5654 36.039C40.0104 35.0343 38.978 34.385 37.8318 34.3203H33.473C32.7289 34.3376 32.0137 34.613 31.4505 35.0996C30.8871 35.5859 30.5102 36.253 30.3846 36.9869H26.3179C26.3179 36.2796 26.0369 35.6013 25.5366 35.1013C25.0366 34.6013 24.3583 34.3203 23.651 34.3203H18.3179C17.6106 34.3203 16.9323 34.6013 16.4323 35.1013C15.932 35.6013 15.651 36.2796 15.651 36.9869H11.651C11.651 36.2796 11.3701 35.6013 10.87 35.1013C10.37 34.6013 9.69174 34.3203 8.98445 34.3203H6.98445V26.9867H8.98445C9.69176 26.9867 10.37 26.7058 10.87 26.2057C11.37 25.7055 11.651 25.0272 11.651 24.3202H16.5098C16.5609 24.405 16.6217 24.4837 16.6912 24.5548L20.0837 27.9474C20.3231 28.1848 20.6465 28.3179 20.9839 28.3179C21.3209 28.3179 21.6443 28.1848 21.8837 27.9474L25.2757 24.5554C25.3461 24.4845 25.4077 24.4056 25.4591 24.3202H30.3178C30.3178 25.0272 30.5988 25.7055 31.0988 26.2058C31.5988 26.7058 32.2771 26.9868 32.9844 26.9868H38.3178C39.0249 26.9868 39.7032 26.7058 40.2034 26.2058C40.7034 25.7055 40.9844 25.0272 40.9844 24.3202V22.9868C40.9844 22.2794 40.7035 21.6012 40.2034 21.1012C39.7031 20.6012 39.0248 20.3202 38.3178 20.3202L38.3178 20.3201ZM18.3178 4.98649C18.3178 4.27919 18.5987 3.60092 19.0988 3.10092C19.5988 2.60092 20.277 2.31992 20.9843 2.31992C21.6916 2.31992 22.3699 2.60089 22.8699 3.10092C23.3699 3.60095 23.6509 4.27921 23.6509 4.98649C23.6509 5.69378 23.3699 6.37207 22.8699 6.87207C22.3699 7.37207 21.6916 7.65307 20.9843 7.65307C20.277 7.65307 19.5988 7.37209 19.0988 6.87207C18.5988 6.37204 18.3178 5.69378 18.3178 4.98649ZM33.4728 35.6529H37.8288C38.4992 35.7154 39.0938 36.1097 39.4122 36.7031C39.7308 37.2963 39.7308 38.0098 39.4122 38.603C39.0938 39.1962 38.4993 39.5904 37.8288 39.6529H33.4728C32.8026 39.5904 32.208 39.1962 31.8893 38.603C31.571 38.0098 31.571 37.2964 31.8893 36.7031C32.208 36.1097 32.8025 35.7154 33.4728 35.6529ZM16.9842 36.9864C16.9842 36.6328 17.1245 36.2936 17.3748 36.0436C17.6248 35.7936 17.9638 35.6529 18.3176 35.6529H23.651H23.6508C24.0045 35.6529 24.3436 35.7936 24.5935 36.0436C24.8438 36.2936 24.9842 36.6329 24.9842 36.9864V38.3198C24.9842 38.6733 24.8438 39.0126 24.5935 39.2626C24.3435 39.5126 24.0045 39.6529 23.6508 39.6529H18.3176C17.9638 39.6529 17.6248 39.5126 17.3748 39.2626C17.1245 39.0126 16.9842 38.6733 16.9842 38.3198L16.9842 36.9864ZM10.3176 36.9864V38.3198C10.3176 38.6733 10.177 39.0126 9.92699 39.2626C9.67699 39.5126 9.3377 39.6529 8.9842 39.6529H3.65078C3.29726 39.6529 2.95798 39.5126 2.70799 39.2626C2.458 39.0126 2.31765 38.6733 2.31765 38.3198V36.9864C2.31765 36.6328 2.45799 36.2936 2.70799 36.0436C2.95799 35.7936 3.29728 35.6529 3.65078 35.6529H8.9842C9.33772 35.6529 9.677 35.7936 9.92699 36.0436C10.177 36.2936 10.3176 36.6329 10.3176 36.9864ZM10.3176 24.3199C10.3176 24.6734 10.177 25.0127 9.92699 25.2627C9.67699 25.5127 9.3377 25.6531 8.9842 25.6531H3.65078C3.29726 25.6531 2.95798 25.5127 2.70799 25.2627C2.458 25.0127 2.31765 24.6734 2.31765 24.3199V22.9865C2.31765 22.633 2.45799 22.2937 2.70799 22.0437C2.95799 21.7937 3.29728 21.6531 3.65078 21.6531H8.9842C9.33772 21.6531 9.677 21.7937 9.92699 22.0437C10.177 22.2937 10.3176 22.633 10.3176 22.9865V24.3199ZM14.9842 14.3199V12.9865C14.9842 12.633 15.1245 12.2937 15.3748 12.0437C15.6248 11.7937 15.9638 11.6531 16.3176 11.6531H25.6505C26.0043 11.6531 26.3433 11.7937 26.5932 12.0437C26.8435 12.2937 26.9839 12.633 26.9839 12.9865V14.3199C26.9839 14.6734 26.8435 15.0127 26.5932 15.2627C26.3432 15.5127 26.0042 15.6531 25.6505 15.6531H16.3176C15.9638 15.6531 15.6248 15.5127 15.3748 15.2627C15.1245 15.0127 14.9842 14.6734 14.9842 14.3199ZM20.9842 26.9628L17.6748 23.6534L20.9842 20.3442L24.2936 23.6534L20.9842 26.9628ZM25.4588 22.9868C25.4078 22.902 25.3469 22.823 25.2775 22.7521L21.8849 19.3596C21.8143 19.2901 21.7359 19.2295 21.6508 19.1788V16.9868H25.6508C26.3581 16.9868 27.0364 16.7058 27.5364 16.2058C28.0367 15.7055 28.3177 15.0272 28.3177 14.3202H33.6511H33.6508C34.0046 14.3202 34.3436 14.4605 34.5936 14.7105C34.8439 14.9605 34.9842 15.2998 34.9842 15.6533V20.3199L32.9842 20.3202C32.2769 20.3202 31.5987 20.6011 31.0987 21.1012C30.5987 21.6012 30.3177 22.2794 30.3177 22.9867L25.4588 22.9868ZM39.651 24.3202C39.651 24.6737 39.5106 25.013 39.2606 25.263C39.0106 25.513 38.6713 25.6533 38.3178 25.6533H32.9844C32.6309 25.6533 32.2916 25.513 32.0416 25.263C31.7916 25.013 31.651 24.6737 31.651 24.3202V22.9868C31.651 22.6333 31.7916 22.294 32.0416 22.044C32.2916 21.794 32.6309 21.6534 32.9844 21.6534H38.3178C38.6714 21.6534 39.0106 21.794 39.2606 22.044C39.5106 22.294 39.651 22.6333 39.651 22.9868V24.3202Z"
                                    fill="black" />
                                <path
                                    d="M22.3153 4.98689C22.3153 4.80999 22.245 4.64063 22.12 4.51535C21.995 4.39035 21.8253 4.32031 21.6484 4.32031H20.3153C19.947 4.32031 19.6484 4.61858 19.6484 4.98688C19.6484 5.35518 19.947 5.65346 20.3153 5.65346H21.6487H21.6484C21.8253 5.65346 21.995 5.58342 22.12 5.45842C22.245 5.33314 22.3153 5.16379 22.3153 4.98689Z"
                                    fill="black" />
                                <path
                                    d="M19.6484 23.6529C19.6484 23.8298 19.7188 23.9994 19.8438 24.1244C19.9688 24.2494 20.1384 24.3197 20.3153 24.3197H21.6487H21.6484C22.0167 24.3197 22.3153 24.0212 22.3153 23.6529C22.3153 23.2849 22.0167 22.9863 21.6484 22.9863H20.3153C19.947 22.9863 19.6484 23.2849 19.6484 23.6529Z"
                                    fill="black" />
                                <path
                                    d="M18.3178 12.9863H17.6509C17.2829 12.9863 16.9844 13.2849 16.9844 13.6529C16.9844 14.0212 17.2829 14.3197 17.6509 14.3197H18.3178C18.6858 14.3197 18.9844 14.0212 18.9844 13.6529C18.9844 13.2849 18.6858 12.9863 18.3178 12.9863Z"
                                    fill="black" />
                                <path
                                    d="M24.3203 14.3197C24.6883 14.3197 24.9869 14.0212 24.9869 13.6529C24.9869 13.2849 24.6883 12.9863 24.3203 12.9863H20.9869C20.6186 12.9863 20.3203 13.2849 20.3203 13.6529C20.3203 14.0212 20.6186 14.3197 20.9869 14.3197H24.3203Z"
                                    fill="black" />
                                <path
                                    d="M7.65346 22.9863H4.98688C4.61858 22.9863 4.32031 23.2849 4.32031 23.6529C4.32031 24.0212 4.61858 24.3198 4.98688 24.3198H7.65346C8.02176 24.3198 8.32031 24.0212 8.32031 23.6529C8.32031 23.2849 8.02176 22.9863 7.65346 22.9863Z"
                                    fill="black" />
                                <path
                                    d="M36.9819 22.9863H34.3153C33.947 22.9863 33.6484 23.2849 33.6484 23.6529C33.6484 24.0212 33.947 24.3198 34.3153 24.3198H36.9819C37.3502 24.3198 37.6484 24.0212 37.6484 23.6529C37.6484 23.2849 37.3502 22.9863 36.9819 22.9863Z"
                                    fill="black" />
                                <path
                                    d="M34.3153 38.3197H36.9819C37.3502 38.3197 37.6484 38.0212 37.6484 37.6529C37.6484 37.2849 37.3502 36.9863 36.9819 36.9863H34.3153C33.947 36.9863 33.6484 37.2849 33.6484 37.6529C33.6484 38.0212 33.947 38.3197 34.3153 38.3197Z"
                                    fill="black" />
                                <path
                                    d="M4.32031 37.6529C4.32031 37.8298 4.39035 37.9994 4.51535 38.1244C4.64063 38.2494 4.80999 38.3198 4.98689 38.3198H7.65346C8.02176 38.3198 8.32031 38.0212 8.32031 37.6529C8.32031 37.2849 8.02176 36.9863 7.65346 36.9863H4.98689C4.61859 36.9863 4.32031 37.2849 4.32031 37.6529Z"
                                    fill="black" />
                                <path
                                    d="M19.6509 38.3197H22.3178C22.6858 38.3197 22.9844 38.0212 22.9844 37.6529C22.9844 37.2849 22.6858 36.9863 22.3178 36.9863H19.6509C19.2829 36.9863 18.9844 37.2849 18.9844 37.6529C18.9844 38.0212 19.2829 38.3197 19.6509 38.3197Z"
                                    fill="black" />
                            </svg>