<svg width="50" height="50" viewBox="0 0 36 32" fill="none"
                                xmlns="http://www.w3.org/2000/svg">
                                <path fill-rule="evenodd" clip-rule="evenodd"
                                    d="M3.00139 0.160156C1.63082 0.160156 0.500536 1.28708 0.500536 2.65766V7.6593C0.475425 8.79544 2.19254 8.79544 2.16711 7.6593V5.15844H24.2478C25.3594 5.15844 25.3594 3.49101 24.2478 3.49101H2.16711V2.65758C2.16711 2.18158 2.52509 1.82751 3.00139 1.82751H32.9985C33.4745 1.82751 33.832 2.18158 33.832 2.65758V3.49101H30.0828C28.9713 3.49101 28.9713 5.15844 30.0828 5.15844H33.832V23.4934H30.4977V12.6599C30.4968 11.9749 29.7156 11.5832 29.1662 11.9925L22.9993 16.6194L16.8322 11.993C16.6748 11.8747 16.4809 11.8158 16.2845 11.8269C16.1712 11.8334 16.0604 11.8627 15.9589 11.9132L8.55814 15.6135C7.56371 16.1121 8.31149 17.6037 9.30592 17.1052L16.2443 13.635L22.4976 18.3259C22.7945 18.5494 23.2033 18.5494 23.5001 18.3259L28.8341 14.3244V23.4937H27.1667V19.3255C27.1737 18.8556 26.7909 18.4731 26.3213 18.4801C25.8612 18.4868 25.4934 18.8654 25.5001 19.3255V23.4937H23.8327V20.9929C23.8394 20.523 23.4569 20.1404 22.987 20.1474C22.5269 20.1541 22.1591 20.5328 22.1659 20.9929V23.4937H20.4984V19.3255C20.5054 18.8556 20.1226 18.4731 19.653 18.4801C19.1929 18.4868 18.8251 18.8654 18.8319 19.3255V23.4937H17.1641V15.9909C17.1692 15.5224 16.7872 15.1418 16.3187 15.1485C15.8611 15.1572 15.4959 15.533 15.5009 15.9909V23.4937H13.8335V17.6587C13.8391 17.1899 13.4568 16.8088 12.9881 16.8154C12.5288 16.8221 12.1616 17.1994 12.1669 17.6587L12.1666 23.4937H10.4992V19.3255C10.5062 18.8556 10.1234 18.4731 9.65379 18.4801C9.19313 18.4865 8.82507 18.8651 8.83179 19.3255V23.4937H7.16522V20.578C7.16522 19.4664 5.49779 19.4664 5.49779 20.578V23.4937H2.16657V14.328C2.14258 13.2412 0.524 13.2412 0.5 14.328V25.9944C0.5 27.365 1.63029 28.4911 3.00086 28.4911H13.3166L12.4831 30.1585L11.3325 30.1588C10.2457 30.1828 10.2457 31.8014 11.3325 31.8254H24.6668C25.7536 31.8014 25.7536 30.1828 24.6668 30.1588H23.5125L22.6785 28.4914H32.9985C34.3691 28.4914 35.4994 27.3652 35.4994 25.9947V2.65829C35.4994 1.28772 34.3691 0.160792 32.9985 0.160792L3.00139 0.160156ZM27.1664 3.49273C26.7063 3.49273 26.333 3.86578 26.333 4.32616C26.333 4.78626 26.706 5.15958 27.1664 5.15958C27.6265 5.15958 27.9998 4.78653 27.9998 4.32616C27.9998 3.86606 27.6268 3.49273 27.1664 3.49273ZM6.33354 16.8263C5.87344 16.8263 5.50011 17.1994 5.50011 17.6597C5.50011 18.1198 5.87316 18.4932 6.33354 18.4932C6.79364 18.4932 7.16697 18.1201 7.16697 17.6597C7.16697 17.1996 6.79392 16.8263 6.33354 16.8263ZM2.16782 25.1606H33.8328V25.9949C33.8328 26.4709 33.4757 26.8283 32.9994 26.8283L3.00225 26.8277C2.52624 26.8277 2.16797 26.4706 2.16797 25.9943L2.16782 25.1606ZM15.1814 28.4915H20.8195L21.6538 30.1589L14.3481 30.1587L15.1814 28.4915Z"
                                    fill="black" />
                            </svg>