<svg width="40" height="40" viewBox="0 0 41 34" fill="none" xmlns="http://www.w3.org/2000/svg">
                                <path d="M38.4844 0.142578H3.48438C2.82143 0.143415 2.18609 0.407085 1.71738 0.875578C1.2489 1.34433 0.985232 1.97965 0.984375 2.64258V28.8926C0.985212 29.5555 1.24888 30.1909 1.71738 30.6596C2.18613 31.1281 2.82145 31.3917 3.48438 31.3926H16.6094V32.6426H12.8594C12.5142 32.6426 12.2344 32.9224 12.2344 33.2676C12.2344 33.6127 12.5142 33.8926 12.8594 33.8926H29.1094C29.4545 33.8926 29.7344 33.6127 29.7344 33.2676C29.7344 32.9224 29.4545 32.6426 29.1094 32.6426H25.3594V31.3926H38.4844C39.1473 31.3917 39.7827 31.1281 40.2514 30.6596C40.7198 30.1908 40.9835 29.5555 40.9844 28.8926V2.64258C40.9835 1.97964 40.7199 1.34429 40.2514 0.875578C39.7826 0.407107 39.1473 0.143435 38.4844 0.142578ZM24.1094 32.6426H17.8594V31.3926H24.1094V32.6426ZM39.7344 28.8926C39.7341 29.2241 39.6021 29.5419 39.368 29.7762C39.1337 30.0103 38.8158 30.1423 38.4844 30.1426H3.48438C3.15291 30.1423 2.83511 30.0103 2.60074 29.7762C2.36665 29.5419 2.23467 29.224 2.23439 28.8926V28.5801H39.7344L39.7344 28.8926ZM39.7344 27.3301H2.23438V2.64294C2.23465 2.31146 2.36663 1.99366 2.60072 1.75929C2.8351 1.5252 3.1529 1.39322 3.48437 1.39294H38.4844C38.8158 1.39322 39.1336 1.5252 39.368 1.75929C39.6021 1.99366 39.7341 2.31147 39.7344 2.64294L39.7344 27.3301Z" fill="black"></path>
                                <path d="M20.9844 14.2051C19.9897 14.2051 19.036 14.6002 18.3326 15.3033C17.6295 16.0067 17.2344 16.9604 17.2344 17.9551C17.2344 18.9498 17.6295 19.9034 18.3326 20.6069C19.036 21.31 19.9897 21.7051 20.9844 21.7051C21.9791 21.7051 22.9327 21.31 23.6362 20.6069C24.3393 19.9035 24.7344 18.9498 24.7344 17.9551C24.7333 16.9609 24.3379 16.0078 23.6347 15.3047C22.9316 14.6017 21.9784 14.2062 20.9844 14.2051ZM20.9844 20.4551C20.3214 20.4551 19.6855 20.1917 19.2165 19.7229C18.7478 19.2539 18.4844 18.618 18.4844 17.9551C18.4844 17.2921 18.7478 16.6562 19.2165 16.1872C19.6855 15.7185 20.3214 15.4551 20.9844 15.4551C21.6473 15.4551 22.2832 15.7185 22.7522 16.1872C23.221 16.6562 23.4844 17.2921 23.4844 17.9551C23.4844 18.618 23.221 19.2539 22.7522 19.7229C22.2832 20.1917 21.6473 20.4551 20.9844 20.4551Z" fill="black"></path>
                                <path d="M35.6726 2.95399C34.9661 2.95371 34.3031 3.29495 33.8924 3.8697C33.4817 4.44448 33.3743 5.18249 33.6034 5.85042C33.8327 6.51867 34.3706 7.03513 35.0476 7.23685V12.6414H31.2976V7.95392C31.2976 7.60878 31.0177 7.32892 30.6726 7.32892H21.6097V6.92434C22.2869 6.72233 22.8246 6.20584 23.0539 5.53762C23.283 4.86937 23.1756 4.13162 22.7649 3.55662C22.3542 2.98185 21.6912 2.64062 20.9847 2.64062C20.2782 2.64062 19.6153 2.98186 19.2046 3.55662C18.7939 4.13168 18.6864 4.86941 18.9155 5.53762C19.1449 6.20587 19.6825 6.72234 20.3597 6.92434V7.32892H11.2969C10.9517 7.32892 10.6719 7.60878 10.6719 7.95392V12.6414H6.92188V7.23685C7.59905 7.03484 8.13673 6.51835 8.36609 5.85013C8.59516 5.18188 8.48774 4.44413 8.07702 3.86913C7.66631 3.29435 7.00338 2.95313 6.29688 2.95313C5.59038 2.95313 4.92745 3.29437 4.51674 3.86913C4.10603 4.44419 3.9986 5.18192 4.22768 5.85013C4.45703 6.51838 4.99468 7.03485 5.67189 7.23685V18.579H12.859V18.7397C12.8596 19.0935 12.974 19.4378 13.1855 19.7216C13.397 20.0053 13.6944 20.2132 14.0334 20.3145C14.1358 20.6175 14.2583 20.9132 14.4 21.1998C14.2321 21.5112 14.1687 21.8684 14.2198 22.2185C14.2709 22.5687 14.4332 22.8932 14.6832 23.1438L15.7946 24.2551L15.7943 24.2548C16.0449 24.5051 16.3694 24.6678 16.7195 24.7188C17.07 24.7699 17.4274 24.7066 17.7388 24.5383C18.0254 24.6801 18.3209 24.8023 18.6236 24.9047C18.7249 25.2437 18.933 25.5411 19.2165 25.7526C19.5003 25.9641 19.8446 26.0785 20.1984 26.0791H21.7698C22.1236 26.0785 22.4679 25.9641 22.7517 25.7526C23.0354 25.5411 23.2433 25.2437 23.3446 24.9047C23.6473 24.8023 23.9428 24.6801 24.2294 24.5383C24.5408 24.7066 24.8982 24.7699 25.2484 24.7188C25.5988 24.6678 25.9233 24.5051 26.1739 24.2548L27.2852 23.1435L27.2849 23.1438C27.5349 22.8932 27.6973 22.5687 27.7484 22.2185C27.7995 21.8687 27.7361 21.5112 27.5682 21.1998C27.7099 20.9133 27.8324 20.6175 27.9348 20.3145C28.2738 20.2132 28.5712 20.005 28.7827 19.7216C28.9942 19.4378 29.1086 19.0935 29.1092 18.7397V18.579H36.2963V7.23685C36.9732 7.03512 37.5112 6.51863 37.7405 5.85042C37.9696 5.18245 37.8622 4.44442 37.4515 3.8697C37.0407 3.29493 36.3778 2.9537 35.6713 2.95399H35.6726ZM20.0476 4.82899C20.0476 4.4498 20.2761 4.10799 20.6263 3.96292C20.9767 3.81783 21.3799 3.89791 21.648 4.16605C21.9162 4.43419 21.9963 4.83736 21.8512 5.18783C21.7061 5.538 21.3643 5.76652 20.9851 5.76652C20.4675 5.76596 20.0481 5.34657 20.0476 4.82899ZM5.36043 5.14149C5.36043 4.7623 5.58894 4.42049 5.93911 4.27542C6.28955 4.13033 6.69275 4.21041 6.9609 4.47855C7.22904 4.74669 7.30911 5.14986 7.16403 5.50033C7.01894 5.8505 6.67714 6.07902 6.29795 6.07902C5.78038 6.07846 5.361 5.65907 5.36043 5.14149ZM27.8604 18.7401C27.8604 18.8441 27.8191 18.9443 27.7455 19.018C27.6718 19.0916 27.5716 19.1329 27.4676 19.1329H26.9598C26.8046 19.9242 26.493 20.6764 26.0435 21.3456L26.4026 21.7047H26.4023C26.4759 21.7783 26.5175 21.8782 26.5175 21.9823C26.5175 22.0866 26.4759 22.1865 26.4023 22.2602L25.2912 23.3712C25.1378 23.5247 24.8891 23.5247 24.7357 23.3712L24.3766 23.0122V23.0124C23.7075 23.4619 22.9553 23.7736 22.164 23.9287V24.4365C22.164 24.5406 22.1227 24.6408 22.049 24.7144C21.9753 24.7881 21.8752 24.8294 21.7711 24.8294H20.1997C20.0956 24.8294 19.9954 24.7881 19.9218 24.7144C19.8481 24.6408 19.8068 24.5406 19.8068 24.4365V23.9287C19.0155 23.7736 18.2633 23.4619 17.5942 23.0124L17.2351 23.3715V23.3712C17.0816 23.5247 16.833 23.5247 16.6796 23.3712L15.5685 22.2602C15.415 22.1067 15.415 21.8581 15.5685 21.7047L15.9276 21.3456H15.9273C15.4778 20.6765 15.1662 19.9243 15.011 19.1329H14.5032C14.3991 19.1329 14.299 19.0916 14.2253 19.018C14.1516 18.9443 14.1103 18.8441 14.1103 18.7401V17.1686C14.1103 17.0646 14.1516 16.9644 14.2253 16.8907C14.299 16.8171 14.3991 16.7758 14.5032 16.7758H15.011C15.1661 15.9845 15.4778 15.2323 15.9273 14.5631L15.5682 14.204H15.5685C15.415 14.0506 15.415 13.802 15.5685 13.6485L16.6796 12.5374C16.833 12.384 17.0816 12.384 17.2351 12.5374L17.5942 12.8965V12.8963C18.2633 12.4468 19.0155 12.1351 19.8068 11.98V11.4722C19.8068 11.3681 19.8481 11.2679 19.9218 11.1943C19.9954 11.1206 20.0956 11.0793 20.1997 11.0793H21.7711C21.8752 11.0793 21.9753 11.1206 22.049 11.1943C22.1227 11.2679 22.164 11.3681 22.164 11.4722V11.98C22.9552 12.1351 23.7075 12.4468 24.3766 12.8963L24.7357 12.5372V12.5374C24.8891 12.384 25.1378 12.384 25.2912 12.5374L26.4023 13.6485C26.4759 13.7222 26.5175 13.8221 26.5175 13.9264C26.5175 14.0305 26.4759 14.1304 26.4023 14.204L26.0432 14.5631H26.0435C26.493 15.2322 26.8046 15.9844 26.9598 16.7758H27.4676C27.6846 16.7758 27.8604 16.9516 27.8604 17.1686V18.7401ZM35.0476 17.3293H29.1101V17.1686C29.1095 16.8148 28.9951 16.4705 28.7836 16.1868C28.5721 15.903 28.2747 15.6951 27.9357 15.5939C27.8333 15.2911 27.7111 14.9956 27.5693 14.7091C27.7376 14.3977 27.8009 14.0403 27.7499 13.6898C27.6988 13.3396 27.5361 13.0151 27.2859 12.7646L26.1748 11.6535C25.9242 11.4032 25.5997 11.2406 25.2496 11.1895C24.8991 11.1384 24.5417 11.2018 24.2303 11.37C23.9437 11.2283 23.6483 11.1061 23.3455 11.0037C23.2442 10.6647 23.0363 10.3672 22.7526 10.1557C22.4688 9.94425 22.1245 9.82985 21.7707 9.82929H20.1993C19.8455 9.82985 19.5012 9.94425 19.2174 10.1557C18.934 10.3672 18.7258 10.6647 18.6245 11.0037C18.3218 11.1061 18.0263 11.2283 17.7397 11.37C17.4284 11.2018 17.0709 11.1384 16.7207 11.1895C16.3703 11.2406 16.0458 11.4032 15.7952 11.6535L14.6839 12.7649L14.6842 12.7646C14.4342 13.0151 14.2718 13.3396 14.2207 13.6898C14.1697 14.04 14.233 14.3971 14.401 14.7085C14.2592 14.9953 14.1367 15.2908 14.0343 15.5939C13.6953 15.6952 13.3979 15.9033 13.1864 16.1868C12.9749 16.4705 12.8605 16.8149 12.8599 17.1686V17.3294H6.92245V13.8919H11.2974C11.6426 13.8919 11.9224 13.612 11.9224 13.2669V8.57935H30.0474V13.2669C30.0474 13.612 30.3273 13.8919 30.6724 13.8919H35.0474L35.0476 17.3293ZM35.6726 6.07935C35.2934 6.07935 34.9516 5.85083 34.8065 5.50066C34.6614 5.15022 34.7415 4.74702 35.0096 4.47887C35.2778 4.21073 35.6809 4.13066 36.0314 4.27575C36.3816 4.42083 36.6101 4.76263 36.6101 5.14182C36.6095 5.6594 36.1901 6.07877 35.6726 6.07935Z" fill="black"></path>
                            </svg>