<svg width="38" height="38" viewBox="0 0 34 34" fill="none" xmlns="http://www.w3.org/2000/svg">
                                <path d="M1.53371 32.5354C2.04571 32.9913 2.59371 33.3515 3.07779 33.5513C3.37382 33.6713 3.60987 33.7193 3.79764 33.7193C4.0376 33.7193 4.19776 33.6434 4.30574 33.5474L5.15788 32.6314L5.16178 32.6275C5.33366 32.4355 5.45782 32.0555 5.06971 31.3516C4.81776 30.8957 4.39365 30.3915 3.88164 29.9356C2.89756 29.0556 1.59756 28.3837 1.06549 28.9716L0.257492 29.8435L0.213407 29.8915C0.0655283 30.0994 -0.010643 30.4716 0.345386 31.1194C0.597336 31.5753 1.02144 32.0795 1.53346 32.5354L1.53371 32.5354ZM1.50972 29.3713C1.50972 29.3713 1.56162 29.3434 1.61379 29.3434C1.86574 29.3434 2.52172 29.5714 3.32165 30.2474L2.91763 30.6514L3.34174 31.0755L3.76585 30.6514C4.09788 30.9835 4.36992 31.3275 4.54178 31.6394C4.76164 32.0354 4.72565 32.2075 4.70975 32.2273C4.61376 32.3353 3.7856 32.1553 2.73375 31.2193C1.68182 30.2832 1.40982 29.4793 1.50582 29.3713L1.50972 29.3713ZM0.69779 30.2475L0.997733 29.9235C1.21369 30.4874 1.7458 31.1394 2.33788 31.6674C2.92186 32.1875 3.6138 32.6314 4.19388 32.7874L3.90593 33.0993C3.89003 33.1194 3.72206 33.1713 3.30605 32.9994C2.88194 32.8276 2.3939 32.5033 1.93412 32.0915C1.47402 31.6794 1.09398 31.2316 0.874119 30.8314C0.670154 30.4595 0.686062 30.2873 0.702247 30.2514L0.69779 30.2475Z" fill="black"></path>
                                <path d="M33.7492 29.8968L33.7051 29.8449L32.8971 28.9729C32.3651 28.385 31.0651 29.0608 30.081 29.9369C29.569 30.3928 29.1491 30.897 28.8929 31.3529C28.5048 32.0569 28.629 32.433 28.8008 32.6289H28.8048L29.6569 33.5488C29.7649 33.6409 29.925 33.7168 30.165 33.7168C30.353 33.7168 30.5891 33.6688 30.8848 33.5488C31.3689 33.3487 31.9169 32.9888 32.4289 32.5329C32.9409 32.0769 33.3608 31.5728 33.617 31.1169C33.973 30.4729 33.8971 30.1009 33.749 29.8928L33.7492 29.8968ZM29.2492 32.2327C29.2492 32.2327 29.2012 32.0407 29.4172 31.6448C29.5891 31.3287 29.8611 30.9888 30.1931 30.6568L30.6172 31.0809L31.0413 30.6568L30.6373 30.2528C31.4415 29.5809 32.0933 29.3488 32.3452 29.3488C32.3971 29.3488 32.4331 29.3608 32.4493 29.3767C32.5452 29.4847 32.2732 30.2846 31.2213 31.2246C30.1694 32.1607 29.3413 32.3407 29.2453 32.2327L29.2492 32.2327ZM33.0932 30.8325C32.8734 31.2327 32.4972 31.6805 32.0332 32.0926C31.5692 32.5047 31.0812 32.8287 30.6613 33.0005C30.2453 33.1724 30.0773 33.1205 30.0614 33.1004L29.7735 32.7885C30.3535 32.6325 31.0455 32.1886 31.6295 31.6685C32.2215 31.1406 32.7533 30.4885 32.9696 29.9246L33.2696 30.2486C33.2855 30.2846 33.3016 30.4606 33.0977 30.8286L33.0932 30.8325Z" fill="black"></path>
                                <path d="M0.213344 4.13968L0.257429 4.18767L1.06543 5.0596C1.20549 5.21167 1.39746 5.27947 1.62151 5.27947C2.25739 5.27947 3.15752 4.74347 3.88544 4.09139C4.39744 3.63548 4.81737 3.13132 5.07352 2.67539C5.46163 1.97143 5.33747 1.59532 5.16559 1.39947L5.16169 1.39556L4.30954 0.475631C3.74956 -0.0243692 2.4934 0.63551 1.53747 1.49156C1.02547 1.94747 0.605544 2.45163 0.349402 2.91149C-0.00662699 3.55546 0.0692663 3.92742 0.217423 4.13556L0.213344 4.13968ZM4.60149 1.78368C4.67347 1.78368 4.70947 1.79959 4.71337 1.80768C4.71337 1.80768 4.76136 1.99964 4.5454 2.39557C4.37353 2.7117 4.10149 3.05154 3.76947 3.38357L3.34537 2.95946L2.92126 3.38357L3.32527 3.78758C2.3532 4.59951 1.6012 4.76358 1.51334 4.66373C1.41736 4.55575 1.69331 3.7558 2.74127 2.8158C3.20528 2.40369 3.69327 2.07973 4.1132 1.90787C4.34925 1.81188 4.50913 1.78398 4.6012 1.78398L4.60149 1.78368ZM0.873558 3.20782C1.09342 2.80771 1.46954 2.3599 1.93356 1.94775C2.98549 1.01168 3.8097 0.831681 3.90956 0.939681L4.1975 1.25162C4.10152 1.27953 4.00163 1.31161 3.88556 1.3557C3.40147 1.55575 2.85349 1.91568 2.34149 2.37162C1.74941 2.89952 1.21763 3.55162 1.00134 4.11548L0.701402 3.79154C0.685497 3.75555 0.669314 3.57948 0.873273 3.21146L0.873558 3.20782Z" fill="black"></path>
                                <path d="M29.6569 0.482915L28.8048 1.39892L28.8008 1.40282C28.629 1.59479 28.5048 1.97481 28.8929 2.67875C29.1449 3.13466 29.569 3.63882 30.081 4.09475C30.8089 4.74263 31.7091 5.28282 32.3449 5.28282C32.569 5.28282 32.7609 5.21474 32.901 5.06296L33.709 4.19103L33.7531 4.14304C33.901 3.93517 33.9771 3.56296 33.6211 2.91511C33.3692 2.45919 32.9451 1.95504 32.433 1.49518C31.4771 0.643037 30.221 -0.0207487 29.661 0.48318L29.6569 0.482915ZM32.449 4.65899C32.357 4.75887 31.6089 4.59509 30.6371 3.78284L31.0411 3.37883L30.617 2.95472L30.1929 3.37883C29.8609 3.0468 29.5888 2.70277 29.417 2.39083C29.1971 1.9949 29.2331 1.82275 29.249 1.80294C29.249 1.80294 29.2931 1.77894 29.3609 1.77894C29.4569 1.77894 29.6128 1.80294 29.8489 1.90283C30.273 2.0747 30.761 2.39892 31.2208 2.81076C32.2727 3.74683 32.5448 4.55068 32.4488 4.65868L32.449 4.65899ZM33.0891 3.20306C33.2931 3.57499 33.2772 3.74714 33.261 3.78314L32.961 4.10708C32.7451 3.54319 32.213 2.89115 31.6209 2.36322C31.1089 1.90731 30.5609 1.54708 30.0768 1.34729C29.9649 1.2993 29.8609 1.26722 29.7649 1.24322L30.0528 0.931279C30.1488 0.823301 30.977 1.00327 32.0288 1.93935C32.4928 2.35146 32.869 2.79928 33.0888 3.19942L33.0891 3.20306Z" fill="black"></path>
                                <path d="M8.49355 25.08L7.84958 25.7239L8.27369 26.148L8.91766 25.5041C11.0217 27.5041 13.8577 28.732 16.9812 28.732C20.1048 28.732 22.9413 27.5001 25.0448 25.5041L25.6888 26.148L26.1129 25.7239L25.4689 25.08C27.465 22.9759 28.6968 20.14 28.6968 17.0164C28.6968 13.8928 27.465 11.0563 25.4689 8.95282L26.1129 8.30885L25.6888 7.88474L25.0448 8.52871C22.9407 6.53264 20.1048 5.30078 16.9812 5.30078C13.8577 5.30078 11.0212 6.53264 8.91766 8.52871L8.27369 7.88474L7.84958 8.30885L8.49355 8.95282C6.49748 11.0569 5.26562 13.8928 5.26562 17.0164C5.26562 20.14 6.49748 22.9765 8.49355 25.08ZM16.9814 5.89996C23.1095 5.89996 28.0971 10.884 28.0971 17.0157C28.0971 23.1473 23.1091 28.1314 16.9814 28.1314C10.8537 28.1314 5.8657 23.1434 5.8657 17.0157C5.8657 10.888 10.8537 5.89996 16.9814 5.89996Z" fill="black"></path>
                                <path d="M16.9829 27.1318C22.5588 27.1318 27.0986 22.5958 27.0986 17.0161C27.0986 11.4364 22.5626 6.90039 16.9829 6.90039C11.4032 6.90039 6.86719 11.4364 6.86719 17.0161C6.86719 22.5958 11.4032 27.1318 16.9829 27.1318ZM16.9829 7.50396C22.231 7.50396 26.4986 11.7721 26.4986 17.0197C26.4986 22.2677 22.2305 26.5354 16.9829 26.5354C11.7348 26.5354 7.46719 22.2672 7.46719 17.0197C7.46719 11.7716 11.7353 7.50396 16.9829 7.50396Z" fill="black"></path>
                                <path d="M4.45312 4.91462L4.87751 4.49023L5.72601 5.33873L5.30162 5.76312L4.45312 4.91462Z" fill="black"></path>
                                <path d="M6.15234 6.61189L6.57673 6.1875L7.42523 7.036L7.00084 7.46038L6.15234 6.61189Z" fill="black"></path>
                                <path d="M6.15234 27.4211L7.00084 26.5723L7.42523 26.9964L6.57673 27.8452L6.15234 27.4211Z" fill="black"></path>
                                <path d="M4.45703 29.12L5.30553 28.2715L5.72992 28.6959L4.88142 29.5444L4.45703 29.12Z" fill="black"></path>
                                <path d="M26.5352 26.9967L26.9595 26.5723L27.808 27.4208L27.3837 27.8452L26.5352 26.9967Z" fill="black"></path>
                                <path d="M28.2383 28.6959L28.6627 28.2715L29.5112 29.12L29.0868 29.5444L28.2383 28.6959Z" fill="black"></path>
                                <path d="M28.2383 5.33678L29.0868 4.48828L29.5112 4.91267L28.6627 5.76117L28.2383 5.33678Z" fill="black"></path>
                                <path d="M26.5391 7.03629L27.3876 6.1875L27.8119 6.61161L26.9634 7.46039L26.5391 7.03629Z" fill="black"></path>
                                <path d="M13.2699 20.7835H20.8335C21.3776 20.7835 21.8215 20.3395 21.8215 19.7955V18.8435C22.2054 18.7076 22.4813 18.3435 22.4813 17.9155V16.5393C22.4813 16.1113 22.2054 15.7472 21.8215 15.6113V13.8234H18.8973V13.4353C18.8973 12.8912 18.4534 12.4473 17.9093 12.4473H13.6133C12.8772 12.4473 12.2812 13.0433 12.2812 13.7793V19.7952C12.2812 20.3393 12.7252 20.7832 13.2693 20.7832L13.2699 20.7835ZM21.882 16.5396V17.9157C21.882 18.1317 21.7102 18.3039 21.4939 18.3039H18.3539V16.1518H21.4939C21.706 16.1518 21.882 16.3237 21.882 16.5399V16.5396ZM12.882 13.7795C12.882 13.3755 13.2102 13.0477 13.6139 13.0477H17.91C18.122 13.0477 18.2981 13.2195 18.2981 13.4358V13.8239H12.8821L12.882 13.7795ZM12.882 14.4235H21.222V15.5516H17.758V18.9037H21.222V19.7957C21.222 20.0117 21.0502 20.1838 20.8339 20.1838H13.2704C13.0583 20.1838 12.8822 20.012 12.8822 19.7957L12.882 14.4235Z" fill="black"></path>
                            </svg>