<svg width="38" height="38" viewBox="0 0 41 26" fill="none" xmlns="http://www.w3.org/2000/svg">
<path d="M40.3594 3.30469H24.1094C23.7642 3.30469 23.4844 3.58455 23.4844 3.92969V8.92969H19.7344V1.42969C19.7344 1.26395 19.6685 1.10491 19.5513 0.987723C19.4342 0.870538 19.2751 0.804688 19.1094 0.804688H1.60938C1.26423 0.804688 0.984375 1.08454 0.984375 1.42969V16.4297C0.984375 16.5954 1.05022 16.7545 1.16741 16.8717C1.2846 16.9888 1.44364 17.0547 1.60938 17.0547H14.7344V24.5547C14.7344 24.7204 14.8002 24.8795 14.9174 24.9967C15.0346 25.1138 15.1936 25.1797 15.3594 25.1797H26.6094C26.7751 25.1797 26.9342 25.1138 27.0513 24.9967C27.1685 24.8795 27.2344 24.7204 27.2344 24.5547V18.3047H40.3594C40.5251 18.3047 40.6842 18.2388 40.8013 18.1217C40.9185 18.0045 40.9844 17.8454 40.9844 17.6797V3.92969C40.9844 3.76395 40.9185 3.60491 40.8013 3.48772C40.6842 3.37054 40.5251 3.30469 40.3594 3.30469ZM14.7344 9.55469V15.8047H2.23438V2.05469H18.4844V8.92969H15.3594C15.0142 8.92969 14.7344 9.20955 14.7344 9.55469ZM25.9844 23.9297H15.9844V10.1797H25.9844V23.9297ZM39.7344 17.0547H27.2344V9.55469C27.2344 9.38895 27.1685 9.22991 27.0513 9.11272C26.9342 8.99554 26.7751 8.92969 26.6094 8.92969H24.7344V4.55469H39.7344V17.0547Z" fill="black"/>
<path d="M13.4844 5.84375H7.23438C6.88923 5.84375 6.60938 6.12333 6.60938 6.46875C6.60938 6.81389 6.88923 7.09375 7.23438 7.09375H13.4844C13.8295 7.09375 14.1094 6.81389 14.1094 6.46875C14.1094 6.12333 13.8295 5.84375 13.4844 5.84375Z" fill="black"/>
<path d="M13.4844 8.34375H7.23438C6.88923 8.34375 6.60938 8.62333 6.60938 8.96875C6.60938 9.31389 6.88923 9.59375 7.23438 9.59375H13.4844C13.8295 9.59375 14.1094 9.31389 14.1094 8.96875C14.1094 8.62333 13.8295 8.34375 13.4844 8.34375Z" fill="black"/>
<path d="M13.4844 10.8438H7.23438C6.88923 10.8438 6.60938 11.1233 6.60938 11.4688C6.60938 11.8139 6.88923 12.0938 7.23438 12.0938H13.4844C13.8295 12.0938 14.1094 11.8139 14.1094 11.4688C14.1094 11.1233 13.8295 10.8438 13.4844 10.8438Z" fill="black"/>
<path d="M13.4844 13.3438H7.23438C6.88923 13.3438 6.60938 13.6233 6.60938 13.9688C6.60938 14.3139 6.88923 14.5938 7.23438 14.5938H13.4844C13.8295 14.5938 14.1094 14.3139 14.1094 13.9688C14.1094 13.6233 13.8295 13.3438 13.4844 13.3438Z" fill="black"/>
<path d="M27.8594 7.67969C27.8594 7.84542 27.9252 8.00447 28.0424 8.12165C28.1596 8.23884 28.3186 8.30469 28.4844 8.30469H34.7344C35.0795 8.30469 35.3594 8.02483 35.3594 7.67969C35.3594 7.33454 35.0795 7.05469 34.7344 7.05469H28.4844C28.1392 7.05469 27.8594 7.33454 27.8594 7.67969Z" fill="black"/>
<path d="M34.7344 9.55469H28.4844C28.1392 9.55469 27.8594 9.83454 27.8594 10.1797C27.8594 10.5248 28.1392 10.8047 28.4844 10.8047H34.7344C35.0795 10.8047 35.3594 10.5248 35.3594 10.1797C35.3594 9.83454 35.0795 9.55469 34.7344 9.55469Z" fill="black"/>
<path d="M34.7344 12.0547H28.4844C28.1392 12.0547 27.8594 12.3345 27.8594 12.6797C27.8594 13.0248 28.1392 13.3047 28.4844 13.3047H34.7344C35.0795 13.3047 35.3594 13.0248 35.3594 12.6797C35.3594 12.3345 35.0795 12.0547 34.7344 12.0547Z" fill="black"/>
<path d="M34.7344 14.5547H28.4844C28.1392 14.5547 27.8594 14.8345 27.8594 15.1797C27.8594 15.5248 28.1392 15.8047 28.4844 15.8047H34.7344C35.0795 15.8047 35.3594 15.5248 35.3594 15.1797C35.3594 14.8345 35.0795 14.5547 34.7344 14.5547Z" fill="black"/>
<path d="M20.9844 20.1797H24.7344C25.0795 20.1797 25.3594 19.8998 25.3594 19.5547C25.3594 19.2095 25.0795 18.9297 24.7344 18.9297H20.9844C20.6392 18.9297 20.3594 19.2095 20.3594 19.5547C20.3594 19.8998 20.6392 20.1797 20.9844 20.1797Z" fill="black"/>
<path d="M20.9844 22.6797H24.7344C25.0795 22.6797 25.3594 22.3998 25.3594 22.0547C25.3594 21.7095 25.0795 21.4297 24.7344 21.4297H20.9844C20.6392 21.4297 20.3594 21.7095 20.3594 22.0547C20.3594 22.3998 20.6392 22.6797 20.9844 22.6797Z" fill="black"/>
<path d="M20.9844 17.6797H24.7344C25.0795 17.6797 25.3594 17.3998 25.3594 17.0547C25.3594 16.7095 25.0795 16.4297 24.7344 16.4297H20.9844C20.6392 16.4297 20.3594 16.7095 20.3594 17.0547C20.3594 17.3998 20.6392 17.6797 20.9844 17.6797Z" fill="black"/>
<path d="M20.9844 15.1797H24.7344C25.0795 15.1797 25.3594 14.8998 25.3594 14.5547C25.3594 14.2095 25.0795 13.9297 24.7344 13.9297H20.9844C20.6392 13.9297 20.3594 14.2095 20.3594 14.5547C20.3594 14.8998 20.6392 15.1797 20.9844 15.1797Z" fill="black"/>
<path d="M4.10938 3.30469C4.10938 3.64983 3.82952 3.92969 3.48438 3.92969C3.13923 3.92969 2.85938 3.64983 2.85938 3.30469C2.85938 2.95954 3.13923 2.67969 3.48438 2.67969C3.82952 2.67969 4.10938 2.95954 4.10938 3.30469Z" fill="black"/>
<path d="M5.98438 3.30469C5.98438 3.64983 5.70452 3.92969 5.35938 3.92969C5.01423 3.92969 4.73438 3.64983 4.73438 3.30469C4.73438 2.95954 5.01423 2.67969 5.35938 2.67969C5.70452 2.67969 5.98438 2.95954 5.98438 3.30469Z" fill="black"/>
<path d="M7.85938 3.30469C7.85938 3.64983 7.57952 3.92969 7.23438 3.92969C6.88923 3.92969 6.60938 3.64983 6.60938 3.30469C6.60938 2.95954 6.88923 2.67969 7.23438 2.67969C7.57952 2.67969 7.85938 2.95954 7.85938 3.30469Z" fill="black"/>
<path d="M26.6094 5.80469C26.6094 6.14983 26.3295 6.42969 25.9844 6.42969C25.6392 6.42969 25.3594 6.14983 25.3594 5.80469C25.3594 5.45954 25.6392 5.17969 25.9844 5.17969C26.3295 5.17969 26.6094 5.45954 26.6094 5.80469Z" fill="black"/>
<path d="M28.4844 5.80469C28.4844 6.14983 28.2045 6.42969 27.8594 6.42969C27.5142 6.42969 27.2344 6.14983 27.2344 5.80469C27.2344 5.45954 27.5142 5.17969 27.8594 5.17969C28.2045 5.17969 28.4844 5.45954 28.4844 5.80469Z" fill="black"/>
<path d="M30.3594 5.80469C30.3594 6.14983 30.0795 6.42969 29.7344 6.42969C29.3892 6.42969 29.1094 6.14983 29.1094 5.80469C29.1094 5.45954 29.3892 5.17969 29.7344 5.17969C30.0795 5.17969 30.3594 5.45954 30.3594 5.80469Z" fill="black"/>
<path d="M17.8594 11.4297C17.8594 11.7748 17.5795 12.0547 17.2344 12.0547C16.8892 12.0547 16.6094 11.7748 16.6094 11.4297C16.6094 11.0845 16.8892 10.8047 17.2344 10.8047C17.5795 10.8047 17.8594 11.0845 17.8594 11.4297Z" fill="black"/>
<path d="M19.7344 11.4297C19.7344 11.7748 19.4545 12.0547 19.1094 12.0547C18.7642 12.0547 18.4844 11.7748 18.4844 11.4297C18.4844 11.0845 18.7642 10.8047 19.1094 10.8047C19.4545 10.8047 19.7344 11.0845 19.7344 11.4297Z" fill="black"/>
<path d="M21.6094 11.4297C21.6094 11.7748 21.3295 12.0547 20.9844 12.0547C20.6392 12.0547 20.3594 11.7748 20.3594 11.4297C20.3594 11.0845 20.6392 10.8047 20.9844 10.8047C21.3295 10.8047 21.6094 11.0845 21.6094 11.4297Z" fill="black"/>
<path d="M5.83203 5.7535C5.726 5.62571 5.57366 5.54535 5.4082 5.53001C5.24302 5.51466 5.0784 5.566 4.95089 5.67231L3.07589 7.23481C2.93359 7.3534 2.85156 7.52917 2.85156 7.71444C2.85156 7.8997 2.93359 8.07521 3.07589 8.19407L4.95089 9.75657C5.07701 9.86985 5.24414 9.92705 5.41351 9.91505C5.58259 9.90278 5.73968 9.82214 5.84849 9.69184C5.95703 9.56154 6.00809 9.39245 5.98968 9.22365C5.97126 9.05512 5.88505 8.9011 5.75083 8.7973L4.45398 7.71916L5.75391 6.63795V6.63767C5.88226 6.53136 5.96261 6.3779 5.9774 6.21189C5.99191 6.04587 5.93973 5.88074 5.83203 5.7535Z" fill="black"/>
<path d="M36.1227 15.8917C36.2288 16.0195 36.3811 16.0999 36.5466 16.1149C36.7117 16.1303 36.8764 16.0792 37.0039 15.9729L38.8789 14.4104C39.0212 14.2916 39.1032 14.1161 39.1032 13.9308C39.1032 13.7455 39.0212 13.5697 38.8789 13.4509L37.0039 11.8884C36.738 11.6827 36.3568 11.7243 36.1414 11.9827C35.926 12.2408 35.9537 12.6233 36.2039 12.8479L37.5008 13.9291L36.2009 15.0103C36.0733 15.1169 35.9936 15.2695 35.979 15.4347C35.9643 15.6002 36.0161 15.7645 36.1227 15.8917Z" fill="black"/>
<path d="M18.6978 17.8499C18.8239 17.9632 18.9911 18.0204 19.1604 18.0081C19.3295 17.9961 19.4866 17.9155 19.5954 17.7852C19.704 17.6549 19.755 17.4858 19.7366 17.317C19.7182 17.1484 19.632 16.9944 19.4978 16.8904L18.2009 15.8061L19.5008 14.7249C19.635 14.6211 19.7213 14.467 19.7397 14.2982C19.7581 14.1294 19.7073 13.9606 19.5985 13.83C19.4897 13.6997 19.3329 13.6194 19.1635 13.6071C18.9941 13.5948 18.8273 13.652 18.7009 13.7653L16.8259 15.3278C16.6836 15.4467 16.6016 15.6224 16.6016 15.8077C16.6016 15.993 16.6836 16.1685 16.8259 16.2873L18.6978 17.8499Z" fill="black"/>
</svg>