<svg width="38" height="38" viewBox="0 0 50 50" fill="none" xmlns="http://www.w3.org/2000/svg">
<g clip-path="url(#clip0_3620_16358)">
<path d="M44.4435 3H6.72154C4.66946 3 3 4.66946 3 6.72154V31.4553C3 33.5073 4.66946 35.1768 6.72154 35.1768H18.9607C18.9362 37.5828 18.3523 40.0167 17.7008 41.4513H15.1009C13.7164 41.4513 12.5894 42.5777 12.5894 43.9629C12.5894 45.3473 13.7157 46.4744 15.1009 46.4744H35.2437C36.6282 46.4744 37.7553 45.348 37.7553 43.9629C37.7553 42.5784 36.6289 41.4513 35.2437 41.4513L32.6365 41.451C31.9551 39.9905 31.3334 37.548 31.2875 35.1765H43.6218C45.6739 35.1765 47.3433 33.507 47.3433 31.4549V5.90092C47.344 4.30149 46.0425 3.00001 44.4431 3.00001L44.4435 3ZM6.72154 4.25691H44.4444C45.3507 4.25691 46.0884 4.99453 46.0884 5.9016V27.7682H4.2564V6.72189C4.2564 5.36289 5.36194 4.25726 6.72171 4.25726L6.72154 4.25691ZM36.4978 43.9623C36.4978 44.6538 35.935 45.2169 35.2432 45.2169H15.1004C14.409 45.2169 13.8458 44.6541 13.8458 43.9623C13.8458 43.2709 14.4086 42.7077 15.1004 42.7077H35.2432C35.935 42.7077 36.4975 43.2709 36.4975 43.9623H36.4978ZM31.2652 41.4515H19.0655C19.7539 39.7 20.1939 37.3251 20.217 35.177H30.0313C30.0715 37.2984 30.5429 39.675 31.2654 41.4515H31.2652ZM43.6218 33.9204H6.72094C5.36194 33.9204 4.25597 32.8145 4.25597 31.4554V29.024H46.0871V31.4554C46.0871 32.8144 44.9816 33.9204 43.6218 33.9204ZM27.5007 31.4719C27.5007 31.8188 27.2191 32.1003 26.8722 32.1003H23.4711C23.1242 32.1003 22.8426 31.8188 22.8426 31.4719C22.8426 31.125 23.1242 30.8434 23.4711 30.8434H26.8722C27.2191 30.8441 27.5007 31.125 27.5007 31.4719ZM18.3352 23.476H22.4499C22.7967 23.476 23.0783 23.1944 23.0783 22.8476V22.1096C23.0783 21.5937 23.5032 21.1735 24.0252 21.1735C24.5412 21.1735 24.9614 21.5933 24.9614 22.1096V22.8476C24.9614 23.1945 25.243 23.476 25.5898 23.476H29.7048C30.0517 23.476 30.3333 23.1944 30.3333 22.8476V19.3611H30.4434C31.6524 19.3611 32.6358 18.3727 32.6358 17.1569C32.6358 15.9479 31.6524 14.9645 30.4434 14.9645H30.3333V11.478C30.3333 11.1311 30.0517 10.8495 29.7048 10.8495H26.2183V10.7394C26.2183 9.53038 25.2299 8.54698 24.0141 8.54698C22.8051 8.54698 21.8217 9.53038 21.8217 10.7394V10.8495H18.3352C17.9884 10.8495 17.7068 11.1311 17.7068 11.478V15.5926C17.7068 15.9395 17.9884 16.2211 18.3352 16.2211H19.0738C19.5898 16.2211 20.01 16.646 20.01 17.168C20.01 17.6839 19.5902 18.1041 19.0738 18.1041H18.3352C17.9884 18.1041 17.7068 18.3857 17.7068 18.7326V22.8472C17.7074 23.1951 17.9884 23.476 18.3352 23.476ZM18.9637 19.3614H19.0738C20.2828 19.3614 21.2662 18.378 21.2662 17.169C21.2662 15.9536 20.2828 14.9649 19.0738 14.9649H18.9637V12.1068H22.4502C22.7971 12.1068 23.0787 11.8252 23.0787 11.4783V10.7397C23.0787 10.2238 23.4985 9.80356 24.0148 9.80356C24.5368 9.80356 24.9617 10.2234 24.9617 10.7397V11.4783C24.9617 11.8252 25.2433 12.1068 25.5902 12.1068H29.0767V15.5933C29.0767 15.9402 29.3583 16.2218 29.7051 16.2218H30.4438C30.9597 16.2218 31.3799 16.6416 31.3799 17.1579C31.3799 17.6799 30.9601 18.1048 30.4438 18.1048H29.7051C29.3583 18.1048 29.0767 18.3864 29.0767 18.7333V22.2198H26.2186V22.1096C26.2186 20.9006 25.2352 19.9172 24.0262 19.9172C22.8111 19.9172 21.8221 20.9006 21.8221 22.1096V22.2198H18.964L18.9644 19.3614H18.9637Z" fill="black"/>
</g>
<defs>
<clipPath id="clip0_3620_16358">
<rect width="50" height="50" fill="white"/>
</clipPath>
</defs>
</svg>