<svg width="40" height="40" viewBox="0 0 28 40" fill="none" xmlns="http://www.w3.org/2000/svg">
                                <path d="M23.9737 4.0427H19.1367C18.885 3.50336 18.3392 3.12777 17.7053 3.12777H16.6604C16.4704 1.83534 15.354 0.839844 14.01 0.839844C12.666 0.839844 11.5497 1.83542 11.3597 3.12777H10.3147C9.68107 3.12777 9.13472 3.50361 8.88308 4.0432H4.04629C1.86244 4.0432 0.0859375 5.81999 0.0859375 8.00356V35.2121C0.0859375 37.396 1.86272 39.1725 4.04629 39.1725H23.9734C26.1573 39.1725 27.9338 37.3957 27.9338 35.2121V8.00356C27.9341 5.81942 26.1576 4.0427 23.9737 4.0427ZM9.51658 4.70788C9.51658 4.26787 9.87456 3.90988 10.3146 3.90988H11.7219C11.9379 3.90988 12.1131 3.73494 12.1131 3.51869C12.1131 2.47291 12.9638 1.62191 14.0099 1.62191C15.0557 1.62191 15.9067 2.47262 15.9067 3.51869C15.9067 3.73465 16.0816 3.90988 16.2979 3.90988H17.7052C18.1453 3.90988 18.5032 4.26786 18.5032 4.70788V6.06281C18.5032 6.50282 18.1453 6.86081 17.7052 6.86081H10.3145C9.87451 6.86081 9.51652 6.50283 9.51652 6.06281L9.51658 4.70788ZM10.3146 7.64317H17.7053C18.3389 7.64317 18.8853 7.26733 19.1369 6.72774H23.9737C24.6771 6.72774 25.2497 7.29972 25.2497 8.00367V35.2122C25.2497 35.9156 24.6777 36.4882 23.9737 36.4882L4.04587 36.4879C3.34246 36.4879 2.76994 35.9159 2.76994 35.212V8.00339C2.76994 7.29998 3.34192 6.72746 4.04587 6.72746H8.88265C9.1346 7.26736 9.68037 7.64317 10.3143 7.64317L10.3146 7.64317ZM27.1517 35.2117C27.1517 36.9642 25.7259 38.39 23.9734 38.39H4.04629C2.29379 38.39 0.868008 36.9642 0.868008 35.2117V8.00317C0.868008 6.25067 2.29379 4.82488 4.04629 4.82488H8.73408V5.94545H4.04629C2.91122 5.94545 1.98829 6.86874 1.98829 8.00345V35.212C1.98829 36.3465 2.91158 37.27 4.04629 37.27H23.9734C25.1079 37.27 26.0314 36.3467 26.0314 35.212V8.00345C26.0314 6.86895 25.1082 5.94545 23.9734 5.94545H19.2854V4.82488H23.9732C25.7257 4.82488 27.1514 6.25067 27.1514 8.00317L27.1517 35.2117ZM13.3753 3.33317C13.3753 2.98412 13.6602 2.69896 14.0095 2.69896C14.3586 2.69896 14.6437 2.98384 14.6437 3.33317C14.6437 3.68222 14.3586 3.96737 14.0095 3.96737C13.6605 3.96737 13.3753 3.68277 13.3753 3.33317ZM12.0675 13.171C12.0675 12.9551 12.2425 12.7798 12.4587 12.7798H23.123C23.3389 12.7798 23.5142 12.9548 23.5142 13.171C23.5142 13.3873 23.3392 13.5622 23.123 13.5622H12.458C12.2423 13.5619 12.0674 13.3867 12.0674 13.171H12.0675ZM12.0675 15.3839C12.0675 15.1679 12.2425 14.9927 12.4587 14.9927H17.7907C18.0067 14.9927 18.1819 15.1676 18.1819 15.3839C18.1819 15.5998 18.0069 15.7751 17.7907 15.7751H12.4581C12.2424 15.7751 12.0675 15.6001 12.0675 15.3839ZM4.50465 15.3736V13.1813C4.50465 12.5284 5.0359 11.9975 5.68851 11.9975H7.88101C8.03726 11.9975 8.18932 12.0279 8.33302 12.0876C8.53252 12.1705 8.6271 12.3993 8.54423 12.5988C8.46136 12.7983 8.23257 12.8929 8.03307 12.81C7.9848 12.7899 7.93347 12.7798 7.88101 12.7798L5.68822 12.7801C5.46696 12.7801 5.28644 12.9601 5.28644 13.1819V15.3744C5.28644 15.5957 5.4664 15.7762 5.68822 15.7762H7.88072C8.10199 15.7762 8.28251 15.5962 8.28251 15.3744V15.1986C8.28251 14.9827 8.45745 14.8074 8.6737 14.8074C8.88993 14.8074 9.06488 14.9824 9.06488 15.1986V15.3744C9.06488 16.0273 8.53363 16.5583 7.88102 16.5583L5.68824 16.558C5.03534 16.5572 4.50465 16.0265 4.50465 15.3736ZM9.06465 22.9857V23.1615C9.06465 23.8144 8.5334 24.3453 7.88079 24.3453H5.68829C5.03539 24.3453 4.50444 23.8141 4.50444 23.1615V20.969C4.50444 20.3161 5.03569 19.7851 5.68829 19.7851H7.88079C8.03704 19.7851 8.18911 19.8155 8.3328 19.8752C8.5323 19.9581 8.62689 20.1869 8.54402 20.3864C8.46114 20.5859 8.23235 20.6805 8.03286 20.5976C7.98459 20.5775 7.93325 20.5675 7.88079 20.5675L5.68829 20.5678C5.46703 20.5678 5.28651 20.7477 5.28651 20.9695V23.162C5.28651 23.3836 5.46647 23.5638 5.68829 23.5638H7.88079C8.10206 23.5638 8.28258 23.3839 8.28258 23.162V22.9863C8.28258 22.77 8.45752 22.5951 8.67377 22.5951C8.89 22.5948 9.06465 22.7697 9.06465 22.9857ZM12.0672 20.9586C12.0672 20.7427 12.2421 20.5674 12.4583 20.5674H23.1226C23.3386 20.5674 23.5138 20.7424 23.5138 20.9586C23.5138 21.1749 23.3389 21.3498 23.1226 21.3498H12.4576C12.2419 21.3498 12.067 21.1749 12.067 20.9586H12.0672ZM12.0672 23.1718C12.0672 22.9555 12.2421 22.7806 12.4583 22.7806H17.7903C18.0063 22.7806 18.1815 22.9555 18.1815 23.1718C18.1815 23.388 18.0066 23.563 17.7903 23.563L12.4578 23.5632C12.2421 23.5627 12.0672 23.3877 12.0672 23.1718ZM10.0792 20.3919C10.2075 20.5657 10.1704 20.8107 9.99657 20.9391L7.20585 22.9999C7.13805 23.0499 7.05658 23.0767 6.97343 23.0767C6.95222 23.0767 6.93046 23.075 6.90926 23.0714C6.80463 23.0538 6.71171 22.9952 6.65172 22.9081L5.71258 21.5518C5.58953 21.3744 5.63389 21.1305 5.81135 21.0078C5.98881 20.8847 6.23266 20.9291 6.35543 21.1065L7.06498 22.1317L9.53176 20.3105C9.70615 20.1816 9.95085 20.2182 10.0792 20.392L10.0792 20.3919ZM7.06572 14.3428L9.53251 12.5216C9.70634 12.3933 9.95132 12.4298 10.0797 12.6042C10.208 12.778 10.1709 13.023 9.99708 13.1514L7.20637 15.2119C7.13856 15.2619 7.0571 15.2887 6.97394 15.2887C6.95274 15.2887 6.93098 15.287 6.90977 15.2834C6.80514 15.2658 6.71279 15.2072 6.65224 15.1201L5.71309 13.7639C5.59004 13.5864 5.63441 13.3425 5.81186 13.2198C5.98932 13.0967 6.23318 13.1411 6.35595 13.3185L7.06572 14.3428ZM7.88072 27.5735H5.68822C5.03532 27.5735 4.50437 28.1045 4.50437 28.7573V30.9498C4.50437 31.6027 5.03562 32.1337 5.68822 32.1337H7.88072C8.53362 32.1337 9.06458 31.6027 9.06458 30.9498V28.7573C9.06458 28.1042 8.53333 27.5735 7.88072 27.5735ZM8.28195 30.9493C8.28195 31.1706 8.10199 31.3511 7.88017 31.3511L5.68817 31.3509C5.4669 31.3509 5.28638 31.1709 5.28638 30.9491V28.7566C5.28638 28.5353 5.46634 28.3548 5.68817 28.3548H7.88067C8.10193 28.3548 8.28245 28.5347 8.28245 28.7566V30.9494L8.28195 30.9493ZM12.0671 28.7468C12.0671 28.5305 12.242 28.3556 12.4583 28.3556H23.1226C23.3385 28.3556 23.5138 28.5305 23.5138 28.7468C23.5138 28.963 23.3388 29.138 23.1226 29.138H12.4576C12.2419 29.138 12.0669 28.9627 12.0669 28.7468H12.0671ZM12.0671 30.9596C12.0671 30.7434 12.242 30.5684 12.4583 30.5684H17.7903C18.0062 30.5684 18.1815 30.7434 18.1815 30.9596C18.1815 31.1759 18.0065 31.3508 17.7903 31.3508H12.4577C12.242 31.3508 12.0671 31.1759 12.0671 30.9596ZM7.78024 29.4105L7.33744 29.8533L7.78024 30.2961C7.93314 30.449 7.93314 30.6965 7.78024 30.8491C7.70407 30.9253 7.60362 30.9638 7.50345 30.9638C7.40357 30.9638 7.30339 30.9256 7.22667 30.8491L6.78387 30.4063L6.34107 30.8491C6.18817 31.002 5.94067 31.002 5.78777 30.8491C5.63487 30.6962 5.63487 30.4487 5.78777 30.2961L6.23057 29.8533L5.78777 29.4105C5.63487 29.2576 5.63487 29.0101 5.78777 28.8575C5.94067 28.7046 6.18817 28.7046 6.34107 28.8575L6.78387 29.3003L7.22667 28.8575C7.37957 28.7046 7.62706 28.7046 7.77996 28.8575C7.93314 29.0101 7.93314 29.2576 7.78024 29.4105Z" fill="black"></path>
</svg>