<svg width="38" height="38" viewBox="0 0 41 41" fill="none"
                                xmlns="http://www.w3.org/2000/svg">
                                <path
                                    d="M19.1688 28.5082H12.2031C11.858 28.5082 11.5781 28.2283 11.5781 27.8832V10.0703C11.5781 9.72489 11.858 9.44531 12.2031 9.44531H19.1688C19.3346 9.44531 19.4936 9.51116 19.6108 9.62835C19.728 9.74553 19.7938 9.90458 19.7938 10.0703V27.8832C19.7938 28.0489 19.728 28.2077 19.6108 28.3251C19.4936 28.4423 19.3346 28.5082 19.1688 28.5082ZM12.8312 27.2582H18.5438V10.6953H12.8281L12.8312 27.2582Z"
                                    fill="black" />
                                <path
                                    d="M15.6875 10.6446C15.3424 10.6446 15.0625 10.365 15.0625 10.0196V1.60742C15.0625 1.26228 15.3424 0.982422 15.6875 0.982422C16.0326 0.982422 16.3125 1.26228 16.3125 1.60742V10.0446C16.2991 10.3799 16.0232 10.6447 15.6875 10.6445V10.6446Z"
                                    fill="black" />
                                <path
                                    d="M15.6875 34.5265C15.3424 34.5265 15.0625 34.2467 15.0625 33.9015V27.8828C15.0625 27.5374 15.3424 27.2578 15.6875 27.2578C16.0326 27.2578 16.3125 27.5374 16.3125 27.8828V33.8985C16.3133 34.0647 16.2478 34.2243 16.1306 34.3424C16.0131 34.4601 15.8538 34.5265 15.6875 34.5265Z"
                                    fill="black" />
                                <path
                                    d="M40.3611 24.801H33.3984C33.0533 24.801 32.7734 24.5214 32.7734 24.176V14.9453C32.7734 14.5999 33.0533 14.3203 33.3984 14.3203H40.3611C40.5268 14.3203 40.6859 14.3862 40.803 14.5033C40.9202 14.6205 40.9861 14.7796 40.9861 14.9453V24.176C40.9861 24.3418 40.9202 24.5008 40.803 24.618C40.6859 24.7352 40.5268 24.801 40.3611 24.801ZM34.0234 23.551H39.7361V15.5703H34.0234V23.551Z"
                                    fill="black" />
                                <path
                                    d="M36.875 15.5176C36.5299 15.5176 36.25 15.2378 36.25 14.8926V8.36133C36.25 8.01619 36.5299 7.73633 36.875 7.73633C37.2201 7.73633 37.5 8.01619 37.5 8.36133V14.8926C37.5 15.0584 37.4342 15.2174 37.317 15.3346C37.1998 15.4518 37.0407 15.5176 36.875 15.5176Z"
                                    fill="black" />
                                <path
                                    d="M36.875 32.7851C36.5299 32.7851 36.25 32.5055 36.25 32.1601V24.1758C36.25 23.8306 36.5299 23.5508 36.875 23.5508C37.2201 23.5508 37.5 23.8306 37.5 24.1758V32.1601C37.5 32.3258 37.4342 32.4848 37.317 32.602C37.1998 32.7192 37.0407 32.7851 36.875 32.7851Z"
                                    fill="black" />
                                <path
                                    d="M29.7595 14.5547H22.7969C22.4517 14.5547 22.1719 14.2748 22.1719 13.9297V6.42969C22.1719 6.08427 22.4517 5.80469 22.7969 5.80469H29.7595C29.9253 5.80469 30.0843 5.87054 30.2015 5.98772C30.3187 6.10491 30.3845 6.26395 30.3845 6.42969V13.9297C30.3845 14.0954 30.3187 14.2542 30.2015 14.3717C30.0843 14.4888 29.9253 14.5547 29.7595 14.5547ZM23.4219 13.3047H29.1345V7.05469H23.4219V13.3047Z"
                                    fill="black" />
                                <path
                                    d="M26.2812 7.01371C25.9361 7.01371 25.6562 6.73385 25.6562 6.38871V1.60742C25.6562 1.26228 25.9361 0.982422 26.2812 0.982422C26.6264 0.982422 26.9062 1.26228 26.9062 1.60742V6.38871C26.9062 6.55444 26.8404 6.71349 26.7232 6.83067C26.606 6.94786 26.447 7.01371 26.2812 7.01371Z"
                                    fill="black" />
                                <path
                                    d="M26.2812 26.0204C25.9361 26.0204 25.6562 25.7408 25.6562 25.3954V13.9297C25.6562 13.5843 25.9361 13.3047 26.2812 13.3047C26.6264 13.3047 26.9062 13.5843 26.9062 13.9297V25.3954C26.9062 25.5611 26.8404 25.7202 26.7232 25.8374C26.606 25.9546 26.447 26.0204 26.2812 26.0204Z"
                                    fill="black" />
                                <path
                                    d="M8.57202 35.045H1.60938C1.26423 35.045 0.984375 34.7651 0.984375 34.42V29.2637C0.984375 28.9185 1.26423 28.6387 1.60938 28.6387H8.57202C8.73775 28.6387 8.89652 28.7045 9.01398 28.8217C9.13117 28.9389 9.19702 29.0979 9.19702 29.2637V34.42C9.19702 34.5857 9.13117 34.7447 9.01398 34.8619C8.89652 34.9791 8.73775 35.045 8.57202 35.045ZM2.23438 33.795H7.94702V29.8887H2.23438V33.795Z"
                                    fill="black" />
                                <path
                                    d="M5.09375 40.9824C4.74861 40.9824 4.46875 40.7026 4.46875 40.3574V34.4199C4.46875 34.0748 4.74861 33.7949 5.09375 33.7949C5.43889 33.7949 5.71875 34.0748 5.71875 34.4199V40.3574C5.71875 40.5232 5.6529 40.6822 5.53571 40.7994C5.41853 40.9166 5.25949 40.9824 5.09375 40.9824Z"
                                    fill="black" />
                                <path
                                    d="M5.09375 29.8881C4.74861 29.8881 4.46875 29.6082 4.46875 29.2631V12.6445C4.46875 12.2994 4.74861 12.0195 5.09375 12.0195C5.43889 12.0195 5.71875 12.2994 5.71875 12.6445V29.2631C5.71875 29.4288 5.6529 29.5879 5.53571 29.7051C5.41853 29.8223 5.25949 29.8881 5.09375 29.8881Z"
                                    fill="black" />
                            </svg>