<svg width="38" height="38" viewBox="0 0 50 51" fill="none" xmlns="http://www.w3.org/2000/svg">
<path d="M44.5338 21.5234C44.4837 21.5234 44.4372 21.5363 44.3876 21.5382L41.3865 14.5359C45.3487 10.8283 39.7697 5.11022 35.9582 8.97041L28.8843 6.14085C28.9191 5.61331 28.846 5.08421 28.6696 4.58582C28.4932 4.08743 28.2171 3.63021 27.8582 3.24203C27.4993 2.85386 27.065 2.54287 26.5819 2.32804C26.0989 2.1132 25.5771 1.99903 25.0484 1.99249C24.5198 1.98594 23.9954 2.08715 23.5071 2.28995C23.0189 2.49275 22.5771 2.79289 22.2086 3.17206C21.8402 3.55123 21.5529 4.00147 21.3642 4.49534C21.1755 4.9892 21.0893 5.51633 21.1111 6.04458L14.1087 9.04569C11.8511 6.32003 7.21627 8.09465 7.28561 11.619C7.29265 12.3257 7.49031 13.0173 7.85774 13.621C8.22516 14.2247 8.74873 14.718 9.37318 15.0488C9.99763 15.3797 10.6998 15.5359 11.4056 15.5008C12.1115 15.4658 12.7947 15.2409 13.3834 14.8499C13.7409 15.2814 14.1264 15.6888 14.5376 16.0694C8.87313 22.173 10.1467 32.3597 16.9752 36.9594C26.1055 43.4287 39.0739 36.7825 39.065 25.4295C39.1072 13.3306 24.5051 6.88501 15.6423 14.9647C15.2617 14.5535 14.8543 14.1679 14.4228 13.8105C14.7595 13.319 14.977 12.7558 15.058 12.1656C15.139 11.5754 15.0814 10.9744 14.8896 10.4104L21.4924 7.58052C21.8077 8.23368 22.2991 8.78584 22.9113 9.17483C23.5234 9.56383 24.232 9.77422 24.9572 9.78231C25.6825 9.79039 26.3956 9.59586 27.0163 9.22061C27.6369 8.84537 28.1405 8.3043 28.4704 7.65834L35.1409 10.3266C34.9031 11.0115 34.861 11.7492 35.0193 12.4568C35.1776 13.1643 35.53 13.8138 36.037 14.3321C36.544 14.8505 37.1855 15.2172 37.8894 15.3911C38.5933 15.565 39.3317 15.5393 40.0218 15.3167L42.8517 21.9195C42.1985 22.2349 41.6464 22.7263 41.2574 23.3384C40.8684 23.9506 40.658 24.6591 40.6499 25.3844C40.6418 26.1096 40.8363 26.8227 41.2116 27.4434C41.5868 28.0641 42.1279 28.5677 42.7739 28.8975L40.1057 35.568C39.4207 35.3303 38.683 35.2881 37.9754 35.4464C37.2679 35.6047 36.6184 35.9572 36.1001 36.4642C35.5818 36.9712 35.215 37.6126 35.0411 38.3165C34.8672 39.0204 34.8929 39.7588 35.1155 40.4489L28.5127 43.2788C28.1974 42.6257 27.7059 42.0735 27.0938 41.6845C26.4816 41.2955 25.7731 41.0851 25.0478 41.077C24.3226 41.069 23.6095 41.2635 22.9888 41.6387C22.3681 42.014 21.8645 42.5551 21.5347 43.201L14.8642 40.5328C15.1019 39.8478 15.1441 39.1101 14.9858 38.4026C14.8275 37.695 14.475 37.0456 13.968 36.5272C13.461 36.0089 12.8196 35.6422 12.1157 35.4682C11.4118 35.2943 10.6734 35.3201 9.9833 35.5427L7.15337 28.9398C7.94502 28.5539 8.583 27.9118 8.96376 27.1176C9.34452 26.3235 9.44571 25.424 9.25089 24.5651C9.05608 23.7062 8.57671 22.9384 7.89058 22.3862C7.20445 21.8341 6.35185 21.53 5.47117 21.5234C0.199572 21.7234 0.356409 29.3548 5.61742 29.3211L8.61854 36.3235C4.65637 40.031 10.2354 45.7491 14.0469 41.8889L21.1208 44.7185C21.086 45.246 21.159 45.7751 21.3354 46.2735C21.5118 46.7719 21.7879 47.2291 22.1469 47.6173C22.5058 48.0055 22.94 48.3165 23.4231 48.5313C23.9062 48.7461 24.428 48.8603 24.9566 48.8668C25.4853 48.8734 26.0097 48.7722 26.4979 48.5694C26.9862 48.3666 27.428 48.0664 27.7964 47.6873C28.1649 47.3081 28.4522 46.8579 28.6409 46.364C28.8296 45.8701 28.9157 45.343 28.894 44.8148L35.8963 41.8136C39.6039 45.7758 45.322 40.1968 41.4618 36.3853L44.2913 29.3114C49.6118 29.4855 49.8667 21.7286 44.5338 21.5234ZM9.53469 13.2761C9.10318 12.8349 8.86307 12.2414 8.86648 11.6243C8.86989 11.0072 9.11654 10.4164 9.5529 9.98001C9.98927 9.54366 10.5801 9.29702 11.1972 9.29363C11.8143 9.29024 12.4078 9.53037 12.8489 9.96189C13.2805 10.403 13.5206 10.9966 13.5172 11.6137C13.5137 12.2307 13.2671 12.8216 12.8307 13.2579C12.3944 13.6943 11.8035 13.9409 11.1864 13.9443C10.5693 13.9477 9.97582 13.7076 9.53469 13.2761ZM18.3078 35.9678C18.6402 34.9399 19.2305 34.0144 20.0224 33.2796C20.8142 32.5448 21.7812 32.0251 22.831 31.7703C23.0075 32.2004 23.3081 32.5683 23.6943 32.8272C24.0805 33.0861 24.535 33.2243 25 33.2241C25.465 33.224 25.9194 33.0856 26.3055 32.8265C26.6916 32.5674 26.9919 32.1993 27.1683 31.7691C28.2193 32.0231 29.1875 32.5426 29.9805 33.2777C30.7734 34.0128 31.3645 34.939 31.6973 35.9678C29.6939 37.2341 27.3725 37.9062 25.0025 37.9062C22.6325 37.9062 20.3111 37.234 18.3078 35.9678ZM25.0025 28.5547C23.3455 28.5528 21.7569 27.8937 20.5852 26.722C19.4135 25.5503 18.7544 23.9617 18.7525 22.3047C19.0959 14.0132 30.9104 14.0156 31.2525 22.3047C31.2506 23.9617 30.5915 25.5503 29.4198 26.722C28.2481 27.8937 26.6595 28.5528 25.0025 28.5547ZM25.0025 30.1172C25.2662 30.1172 25.5267 30.1032 25.7838 30.0776V30.8984C25.7836 31.1056 25.7013 31.3042 25.5548 31.4507C25.4083 31.5972 25.2097 31.6795 25.0025 31.6797C24.8964 31.6782 24.7916 31.6554 24.6945 31.6127C24.5973 31.57 24.5097 31.5082 24.4368 31.431C24.364 31.3538 24.3074 31.2628 24.2703 31.1633C24.2333 31.0638 24.2166 30.9579 24.2213 30.8519V30.0776C24.4783 30.1032 24.7388 30.1172 25.0025 30.1172ZM37.5025 25.4297C37.5023 27.2551 37.1015 29.0583 36.3284 30.712C35.5552 32.3656 34.4285 33.8294 33.0278 35C32.5473 33.7947 31.7778 32.726 30.787 31.8881C29.7963 31.0501 28.6147 30.4687 27.3463 30.1949V29.7568C35.7481 26.9621 33.9622 14.6762 25.0024 14.4922C16.0413 14.677 14.2583 26.9637 22.6588 29.7568V30.1949C21.3904 30.4687 20.2088 31.0501 19.218 31.8881C18.2273 32.726 17.4577 33.7947 16.9772 35C15.6509 33.8796 14.5719 32.4959 13.8085 30.9365C13.0452 29.3771 12.6142 27.6761 12.5428 25.9413C12.4715 24.2066 12.7614 22.476 13.3941 20.8592C14.0269 19.2424 14.9887 17.7747 16.2185 16.5492C23.9455 8.79362 37.5302 14.3626 37.5025 25.4297ZM25.0025 8.24218C24.3855 8.23522 23.7961 7.98523 23.3622 7.54644C22.9284 7.10765 22.685 6.51546 22.685 5.89839C22.685 5.28132 22.9284 4.68915 23.3623 4.25037C23.7962 3.81159 24.3856 3.56161 25.0026 3.55468C25.6196 3.56163 26.209 3.81163 26.6429 4.25042C27.0768 4.68921 27.3201 5.28139 27.3201 5.89846C27.3201 6.51553 27.0767 7.10771 26.6428 7.54649C26.209 7.98526 25.6196 8.23524 25.0025 8.24218ZM37.1562 13.2761C36.7246 12.8349 36.4845 12.2414 36.4879 11.6243C36.4914 11.0072 36.738 10.4164 37.1744 9.98001C37.6107 9.54366 38.2016 9.29702 38.8187 9.29363C39.4358 9.29024 40.0293 9.53037 40.4704 9.96189C40.9019 10.403 41.142 10.9966 41.1386 11.6137C41.1352 12.2307 40.8886 12.8216 40.4522 13.2579C40.0158 13.6943 39.425 13.9409 38.8079 13.9443C38.1908 13.9477 37.5973 13.7076 37.1562 13.2761ZM3.12753 25.4297C3.13448 24.8126 3.38448 24.2232 3.82327 23.7894C4.26206 23.3555 4.85424 23.1122 5.47131 23.1122C6.08838 23.1122 6.68056 23.3555 7.11933 23.7894C7.55811 24.2233 7.80809 24.8127 7.81503 25.4297C7.80807 26.0468 7.55808 26.6362 7.11929 27.07C6.6805 27.5039 6.08831 27.7472 5.47124 27.7472C4.85417 27.7472 4.26199 27.5039 3.82322 27.07C3.38444 26.6361 3.13446 26.0467 3.12753 25.4297ZM9.53469 40.8975C9.10318 40.4564 8.86307 39.8628 8.86648 39.2457C8.86989 38.6287 9.11654 38.0378 9.5529 37.6015C9.98927 37.1651 10.5801 36.9185 11.1972 36.9151C11.8143 36.9117 12.4078 37.1518 12.8489 37.5834C13.2805 38.0245 13.5206 38.618 13.5172 39.2351C13.5137 39.8522 13.2671 40.443 12.8307 40.8794C12.3944 41.3157 11.8035 41.5624 11.1864 41.5658C10.5693 41.5692 9.97582 41.329 9.53469 40.8975ZM25.0025 47.3047C24.3855 47.2977 23.7961 47.0477 23.3622 46.6089C22.9284 46.1701 22.685 45.578 22.685 44.9609C22.685 44.3438 22.9284 43.7516 23.3623 43.3129C23.7962 42.8741 24.3856 42.6241 25.0026 42.6172C25.6196 42.6241 26.209 42.8741 26.6429 43.3129C27.0768 43.7517 27.3201 44.3439 27.3201 44.961C27.3201 45.578 27.0767 46.1702 26.6428 46.609C26.209 47.0478 25.6196 47.2977 25.0025 47.3047ZM40.4704 40.8975C40.0289 41.3275 39.4359 41.5663 38.8196 41.5623C38.2034 41.5582 37.6135 41.3116 37.1778 40.8758C36.742 40.4401 36.4954 39.8502 36.4914 39.234C36.4874 38.6177 36.7262 38.0247 37.1562 37.5832C37.5977 37.1533 38.1907 36.9144 38.8069 36.9185C39.4232 36.9225 40.013 37.1692 40.4488 37.6049C40.8845 38.0407 41.1311 38.6305 41.1352 39.2468C41.1392 39.863 40.9004 40.4561 40.4704 40.8975ZM44.5338 27.7734C43.9167 27.7665 43.3273 27.5165 42.8935 27.0777C42.4596 26.6389 42.2163 26.0467 42.2163 25.4296C42.2163 24.8126 42.4596 24.2204 42.8935 23.7816C43.3274 23.3428 43.9168 23.0929 44.5338 23.0859C45.1509 23.0929 45.7403 23.3429 46.1741 23.7817C46.608 24.2205 46.8513 24.8126 46.8513 25.4297C46.8513 26.0468 46.608 26.639 46.1741 27.0777C45.7402 27.5165 45.1508 27.7665 44.5338 27.7734Z" fill="black"/>
</svg>