<svg width="38" height="38" viewBox="0 0 38 38" fill="none" xmlns="http://www.w3.org/2000/svg">
                                <path d="M10.2344 28.9824H8.35938C8.01423 28.9824 7.73438 28.7026 7.73438 28.3574C7.73438 28.0123 8.01423 27.7324 8.35938 27.7324H10.2344C10.5795 27.7324 10.8594 28.0123 10.8594 28.3574C10.8594 28.7026 10.5795 28.9824 10.2344 28.9824Z" fill="black"></path>
                                <path d="M14.6094 28.9824H12.7344C12.3892 28.9824 12.1094 28.7026 12.1094 28.3574C12.1094 28.0123 12.3892 27.7324 12.7344 27.7324H14.6094C14.9545 27.7324 15.2344 28.0123 15.2344 28.3574C15.2344 28.7026 14.9545 28.9824 14.6094 28.9824Z" fill="black"></path>
                                <path d="M18.9844 28.9824H17.1094C16.7642 28.9824 16.4844 28.7026 16.4844 28.3574C16.4844 28.0123 16.7642 27.7324 17.1094 27.7324H18.9844C19.3295 27.7324 19.6094 28.0123 19.6094 28.3574C19.6094 28.7026 19.3295 28.9824 18.9844 28.9824Z" fill="black"></path>
                                <path d="M23.3594 28.9824H21.4844C21.1392 28.9824 20.8594 28.7026 20.8594 28.3574C20.8594 28.0123 21.1392 27.7324 21.4844 27.7324H23.3594C23.7045 27.7324 23.9844 28.0123 23.9844 28.3574C23.9844 28.7026 23.7045 28.9824 23.3594 28.9824Z" fill="black"></path>
                                <path d="M27.7344 28.9824H25.8594C25.5142 28.9824 25.2344 28.7026 25.2344 28.3574C25.2344 28.0123 25.5142 27.7324 25.8594 27.7324H27.7344C28.0795 27.7324 28.3594 28.0123 28.3594 28.3574C28.3594 28.7026 28.0795 28.9824 27.7344 28.9824Z" fill="black"></path>
                                <path d="M36.4844 28.9824H34.6094C34.2642 28.9824 33.9844 28.7026 33.9844 28.3574C33.9844 28.0123 34.2642 27.7324 34.6094 27.7324H36.4844C36.8295 27.7324 37.1094 28.0123 37.1094 28.3574C37.1094 28.7026 36.8295 28.9824 36.4844 28.9824Z" fill="black"></path>
                                <path d="M18.9844 0.857422C17.161 0.857422 15.4124 1.58178 14.123 2.87106C12.8337 4.16042 12.1094 5.90899 12.1094 7.73242C12.1094 9.55585 12.8337 11.3044 14.123 12.5938C15.4124 13.8831 17.1609 14.6074 18.9844 14.6074C20.8078 14.6074 22.5564 13.8831 23.8457 12.5938C25.1351 11.3044 25.8594 9.55585 25.8594 7.73242C25.8574 5.90956 25.1322 4.16214 23.8434 2.87335C22.5547 1.58456 20.8072 0.859422 18.9844 0.857422ZM14.2977 9.58742C14.1373 9.62872 13.9668 9.60472 13.8242 9.52046C13.6814 9.43619 13.5779 9.29864 13.5366 9.1382C13.4771 8.90689 13.4325 8.67197 13.4029 8.43479C13.3608 8.09272 13.6038 7.78106 13.9459 7.73809C14.288 7.6954 14.5999 7.93787 14.6432 8.27966C14.666 8.46409 14.7009 8.64656 14.747 8.82625C14.7885 8.98669 14.7645 9.15716 14.6803 9.30002C14.596 9.4426 14.4584 9.54613 14.2977 9.58742ZM16.8655 3.90357C15.9889 4.39073 15.3049 5.16278 14.9272 6.09192C14.7974 6.41196 14.433 6.56597 14.1132 6.43651C13.7932 6.30677 13.6389 5.94236 13.7686 5.62258C14.2541 4.42894 15.1325 3.43672 16.2589 2.81036C16.4037 2.72889 16.5753 2.70852 16.7354 2.754C16.8953 2.79948 17.0306 2.90662 17.1115 3.052C17.1922 3.19737 17.2117 3.36924 17.1654 3.52884C17.1194 3.68872 17.0114 3.82349 16.8655 3.90357ZM19.6094 10.742V11.4822C19.6094 11.8274 19.3295 12.1072 18.9844 12.1072C18.6392 12.1072 18.3594 11.8274 18.3594 11.4822V10.735C17.9406 10.5905 17.5868 10.302 17.3608 9.92085C17.1878 9.6223 17.2897 9.23977 17.5882 9.06678C17.8868 8.89379 18.2693 8.99535 18.4423 9.29418C18.5539 9.48781 18.7601 9.60724 18.9836 9.60752C19.2071 9.60779 19.4135 9.48893 19.5254 9.29529C19.6373 9.10194 19.6373 8.86365 19.5257 8.67001C19.4141 8.47666 19.2079 8.35724 18.9844 8.35724C18.3904 8.35863 17.831 8.07794 17.4771 7.60081C17.1236 7.12369 17.0173 6.50681 17.1914 5.93866C17.3655 5.37086 17.7991 4.91938 18.3594 4.72245V3.98224C18.3594 3.63709 18.6393 3.35724 18.9844 3.35724C19.3295 3.35724 19.6094 3.63709 19.6094 3.98224V4.72945C20.0282 4.87398 20.382 5.16249 20.608 5.54359C20.781 5.84214 20.6791 6.22468 20.3806 6.39767C20.082 6.57065 19.6995 6.46909 19.5265 6.17026C19.4149 5.97663 19.2087 5.85721 18.9852 5.85693C18.7617 5.85665 18.5552 5.97551 18.4434 6.16915C18.3315 6.36251 18.3315 6.60079 18.4431 6.79443C18.5547 6.98779 18.7609 7.10721 18.9844 7.10721C19.5784 7.10581 20.1378 7.38651 20.4917 7.86364C20.8452 8.34076 20.9515 8.95764 20.7774 9.52578C20.6033 10.0936 20.1697 10.5451 19.6094 10.742Z" fill="black"></path>
                                <path d="M35.2344 33.3568H32.639L31.9099 28.9818H32.1094C32.4546 28.9818 32.7344 28.702 32.7344 28.3568C32.7344 28.0117 32.4546 27.7318 32.1094 27.7318H31.7015L30.8511 22.6289H30.8508C30.8212 22.452 30.7171 22.2963 30.5648 22.2014C30.4127 22.1066 30.2269 22.0817 30.055 22.1331L24.2174 23.8845L18.23 16.1009H18.2297C18.1097 15.9433 17.9216 15.8526 17.7235 15.8571C17.5254 15.8607 17.3407 15.9578 17.2258 16.1188L14.5759 19.8289L9.4682 13.5861C9.35213 13.4447 9.17997 13.361 8.99721 13.3571C8.81557 13.3599 8.64258 13.4355 8.51702 13.5666L4.60937 17.9631V2.7324C4.60937 2.06247 4.25195 1.44361 3.67187 1.10854C3.0918 0.773717 2.37695 0.773717 1.79688 1.10854C1.2168 1.44364 0.859375 2.06247 0.859375 2.7324V35.2324C0.859933 35.7296 1.05775 36.2062 1.40904 36.5578C1.7606 36.909 2.23718 37.1069 2.7344 37.1074H35.2344C35.9043 37.1074 36.5232 36.75 36.8583 36.1699C37.1931 35.5898 37.1931 34.875 36.8583 34.2949C36.5232 33.7148 35.9043 33.3574 35.2344 33.3574L35.2344 33.3568ZM2.73441 8.98181C2.48162 8.98181 2.25366 8.82947 2.15713 8.59593C2.0603 8.3624 2.1136 8.09371 2.29245 7.91485C2.4713 7.73599 2.73999 7.68271 2.97353 7.77953C3.20707 7.87607 3.35941 8.10403 3.35941 8.35681C3.35941 8.52255 3.29356 8.68159 3.17638 8.79878C3.05919 8.91596 2.90015 8.98181 2.73441 8.98181ZM3.35941 5.85681C3.35941 6.20196 3.07955 6.48181 2.73441 6.48181C2.38927 6.48181 2.10941 6.20196 2.10941 5.85681V2.73181C2.10941 2.38667 2.38927 2.10681 2.73441 2.10681C3.07955 2.10681 3.35941 2.38667 3.35941 2.73181V5.85681ZM4.60941 33.3568V28.9818H5.85941C6.20455 28.9818 6.48441 28.702 6.48441 28.3568C6.48441 28.0117 6.20455 27.7318 5.85941 27.7318H4.60941V19.8447L8.96463 14.9445L14.1256 21.2528C14.249 21.4035 14.4353 21.488 14.6301 21.4816C14.8246 21.4752 15.0051 21.3784 15.1181 21.2202L17.7529 17.5312L23.4889 24.9884L23.4892 24.9881C23.6477 25.1929 23.9156 25.2794 24.1639 25.2057L29.7345 23.5347L30.4342 27.732H30.2345C29.8893 27.732 29.6095 28.0118 29.6095 28.357C29.6095 28.7021 29.8893 28.982 30.2345 28.982H30.6424L31.3715 33.357L4.60941 33.3568Z" fill="black"></path>
                            </svg>