<svg width="42" height="42" viewBox="0 0 50 50" fill="none" xmlns="http://www.w3.org/2000/svg">
<path d="M13.3226 35.1784C13.2288 35.1784 13.1273 35.1627 13.0335 35.1237C12.9073 35.0699 12.7975 34.9839 12.7152 34.8741C12.6329 34.7644 12.581 34.6349 12.5648 34.4987C11.8773 27.2799 15.0413 22.4909 16.9866 20.2799C17.2601 19.9674 17.7444 19.9362 18.0569 20.2096C18.3694 20.4831 18.4007 20.9674 18.1273 21.2799C16.471 23.1627 13.846 27.0924 13.9944 32.9831C14.8773 32.3659 16.2366 31.5143 17.9554 30.694C18.1355 30.616 18.3389 30.6111 18.5226 30.6802C18.7063 30.7493 18.856 30.887 18.9401 31.0643C19.0242 31.2417 19.0361 31.4447 18.9734 31.6307C18.9107 31.8167 18.7782 31.971 18.6038 32.0612C15.6585 33.4596 13.8226 34.9909 13.8069 35.0065C13.6663 35.1237 13.4944 35.1784 13.3226 35.1784ZM36.6819 35.1784C36.5101 35.1784 36.3304 35.1159 36.1898 34.9987C36.1741 34.9831 34.3304 33.4518 31.3929 32.0534C31.2121 31.9668 31.0729 31.8123 31.0056 31.6235C30.9382 31.4347 30.9483 31.227 31.0335 31.0456C31.2132 30.6706 31.6663 30.5065 32.0413 30.6862C33.4222 31.3393 34.747 32.1049 36.0023 32.9752C36.1429 27.0846 33.5257 23.1549 31.8694 21.2643C31.738 21.1125 31.6717 20.9151 31.6849 20.7147C31.6981 20.5144 31.7896 20.3273 31.9398 20.194C32.0916 20.0626 32.289 19.9963 32.4893 20.0095C32.6897 20.0226 32.8768 20.1142 33.0101 20.2643C34.9554 22.4752 38.1194 27.2721 37.4319 34.4909C37.4085 34.7721 37.2288 35.0143 36.9632 35.1159C36.8773 35.1627 36.7835 35.1784 36.6819 35.1784ZM25.0023 49.9987C24.7679 49.9987 24.5413 49.8893 24.4007 49.7018C24.2679 49.5221 21.0648 45.2487 20.8616 39.8034C20.8538 39.6002 20.9319 39.3971 21.0726 39.2487C21.2132 39.1002 21.4085 39.0143 21.6194 39.0143H28.3929C28.4949 39.0149 28.5958 39.0359 28.6895 39.0762C28.7832 39.1164 28.8679 39.1751 28.9386 39.2486C29.0093 39.3222 29.0644 39.4092 29.1009 39.5045C29.1373 39.5998 29.1542 39.7014 29.1507 39.8034C28.9476 45.2487 25.7444 49.5221 25.6038 49.7018C25.5327 49.7937 25.4415 49.8682 25.3373 49.9196C25.2331 49.9711 25.1185 49.9981 25.0023 49.9987ZM22.4241 40.5299C22.7366 43.7565 24.1663 46.5065 25.0023 47.8659C25.8382 46.5065 27.2679 43.7565 27.5804 40.5299H22.4241Z" fill="black"/>
<path d="M31.2578 34.1328H18.7422C18.3984 34.1328 18.0937 33.8984 18.0078 33.5703C17.1522 30.3112 16.7189 26.9555 16.7188 23.5859C16.7187 7.1875 24.1797 0.46875 24.4922 0.195312C24.7813 -0.0546875 25.2031 -0.0546875 25.4922 0.195312C25.8125 0.476562 33.2656 7.19531 33.2656 23.5859C33.2656 26.9688 32.8359 30.3281 31.9766 33.5703C31.9063 33.8984 31.6016 34.1328 31.2578 34.1328ZM19.3359 32.6172H30.6719C31.3984 29.6719 31.7656 26.6406 31.7656 23.5859C31.7656 10.3281 26.6484 3.64844 25.0078 1.84375C23.3672 3.65625 18.2422 10.375 18.2422 23.5859C18.2422 26.6406 18.6094 29.6719 19.3359 32.6172Z" fill="black"/>
<path d="M30.2068 37.5234H19.8006C19.5662 37.5234 19.3396 37.4141 19.199 37.2266C19.1293 37.1325 19.0819 37.0239 19.0602 36.9089C19.0386 36.7939 19.0433 36.6754 19.074 36.5625L20.0193 33.1719C20.1287 32.7656 20.5506 32.5312 20.949 32.6484C21.3553 32.7578 21.5896 33.1797 21.4724 33.5781L20.7928 36.0078H29.2068L28.5271 33.5781C28.4735 33.3854 28.4986 33.1794 28.5967 33.0051C28.6948 32.8308 28.858 32.7026 29.0506 32.6484C29.2432 32.5957 29.4489 32.6211 29.623 32.7191C29.797 32.8171 29.9254 32.9798 29.9803 33.1719L30.9256 36.5625C30.9881 36.7891 30.9412 37.0312 30.8006 37.2266C30.6678 37.4062 30.4412 37.5234 30.2068 37.5234ZM25.0037 19.4609C22.7303 19.4609 20.8787 17.6094 20.8787 15.3359C20.8787 13.0625 22.7303 11.2109 25.0037 11.2109C27.2771 11.2109 29.1287 13.0625 29.1287 15.3359C29.1287 17.6094 27.2771 19.4609 25.0037 19.4609ZM25.0037 12.7344C23.5662 12.7344 22.3943 13.9062 22.3943 15.3438C22.3943 16.7812 23.5662 17.9531 25.0037 17.9531C25.6957 17.9531 26.3594 17.6782 26.8488 17.1889C27.3382 16.6995 27.6131 16.0358 27.6131 15.3438C27.6131 14.6517 27.3382 13.988 26.8488 13.4986C26.3594 13.0093 25.6957 12.7344 25.0037 12.7344ZM29.1756 7.6875H20.8318C20.4099 7.6875 20.074 7.35156 20.074 6.92969C20.074 6.50781 20.4099 6.17188 20.8318 6.17188H29.1756C29.5974 6.17188 29.9334 6.50781 29.9334 6.92969C29.9334 7.35156 29.5974 7.6875 29.1756 7.6875Z" fill="black"/>
</svg>