<svg width="38" height="38" viewBox="0 0 42 36" fill="none"
                                xmlns="http://www.w3.org/2000/svg">
                                <path
                                    d="M37.1905 17.5843C36.4519 17.5843 35.8367 18.0765 35.652 18.7537H32.9444L30.9752 12.7227L28.7597 22.3841L27.652 18.8149H24.2675L22.7907 13.7688L21.3752 19.7381H19.0368C18.8521 19.0612 18.2369 18.5687 17.4983 18.5687C16.5753 18.5687 15.8984 19.3073 15.8984 20.1686C15.8984 21.0916 16.637 21.7684 17.4983 21.7684C18.2369 21.7684 18.8521 21.2763 19.0368 20.5991H22.1138L22.9137 17.276L23.6523 19.6762H27.0984L29.0677 25.8299L31.2832 16.107L32.3909 19.5532H35.7754C35.9601 20.2301 36.5753 20.7225 37.3139 20.7225C38.2369 20.7225 38.9137 19.9839 38.9137 19.1227C38.8521 18.3227 38.1138 17.5844 37.1905 17.5844V17.5843ZM17.4369 20.9074C17.0678 20.9074 16.76 20.5996 16.76 20.2305C16.76 19.8613 17.0678 19.5536 17.4369 19.5536C17.8061 19.5536 18.1138 19.8613 18.1138 20.2305C18.1141 20.5996 17.8064 20.9074 17.4369 20.9074ZM37.1905 19.8611C36.8214 19.8611 36.5136 19.5533 36.5136 19.1842C36.5136 18.815 36.8214 18.5073 37.1905 18.5073C37.5597 18.5073 37.8674 18.815 37.8674 19.1842C37.9291 19.5533 37.6213 19.8611 37.1905 19.8611Z"
                                    fill="black" />
                                <path
                                    d="M41.1282 30.5066V0.660156H0.820312V30.5066H15.2203V34.3835H12.9435V35.3065H29.1285V34.3835H26.8517V30.5066H41.1282ZM40.2049 1.58373V26.6916H1.74346V1.58373H40.2049ZM1.74346 29.5837V27.6144H40.2049V29.5837H1.74346ZM25.8049 34.322H16.082V30.4451H25.8049V34.322Z"
                                    fill="black" />
                                <path
                                    d="M18.5457 10.0762C18.2997 6.32223 15.2227 3.30688 11.4687 2.99916L10.9766 2.9375V10.5068H18.5458L18.5457 10.0762ZM11.9612 9.64536V3.98379C14.8535 4.41459 17.1919 6.75308 17.6227 9.64536H11.9612Z"
                                    fill="black" />
                                <path
                                    d="M18.4796 11.9835L18.6027 11.4297H11.1562L15.7101 16.6604L16.0792 16.3526C17.31 15.1836 18.1716 13.6451 18.4794 11.9835L18.4796 11.9835ZM13.1258 12.353H17.4336C17.1259 13.4607 16.5721 14.5067 15.7104 15.3069L13.1258 12.353Z"
                                    fill="black" />
                                <path
                                    d="M9.80129 18.1389C10.1704 18.2006 10.6012 18.2006 10.9706 18.2006C12.2631 18.2006 13.4938 17.8928 14.6015 17.2776L14.1707 16.4776C12.8783 17.1545 11.4014 17.4623 9.92463 17.2162C7.03235 16.7854 4.75528 14.5086 4.32478 11.6164C4.07868 9.83179 4.50948 8.04714 5.55549 6.63171C6.60156 5.21629 8.2017 4.23157 9.98628 3.9855L9.86323 3.0625C7.89394 3.37026 6.04794 4.47793 4.81715 6.07786C3.58644 7.73943 3.09394 9.70871 3.40173 11.8011C3.89363 15.0619 6.53958 17.6465 9.80129 18.1389Z"
                                    fill="black" />
                                <path d="M20.5703 4.7832H38.3546V5.7062H20.5703V4.7832Z" fill="black" />
                                <path d="M26.6016 7.73633H38.4166V8.65933H26.6016V7.73633Z" fill="black" />
                            </svg>