<svg width="38" height="38" viewBox="0 0 28 41" fill="none" xmlns="http://www.w3.org/2000/svg">
                                <path d="M19.6445 18.2224H15.8945C14.6576 18.2224 13.6545 17.2194 13.6545 15.9824V12.2324C13.6545 10.9952 14.6575 9.99242 15.8945 9.99242H19.6445C20.8815 9.99242 21.8845 10.9952 21.8845 12.2324V15.9824C21.8845 17.2194 20.8815 18.2224 19.6445 18.2224Z" stroke="black" stroke-width="0.52"></path>
                                <path d="M9.64453 9.99242C10.8815 9.99242 11.8845 10.9952 11.8845 12.2324V15.9824C11.8845 17.2194 10.8815 18.2224 9.64453 18.2224H5.89453C4.65755 18.2224 3.65453 17.2194 3.65453 15.9824V12.2324C3.65453 10.9952 4.65753 9.99242 5.89453 9.99242H9.64453Z" stroke="black" stroke-width="0.52"></path>
                                <path d="M5.89453 19.9924H9.64453C10.8815 19.9924 11.8845 20.9954 11.8845 22.2324V25.9824C11.8845 27.2194 10.8815 28.2224 9.64453 28.2224H5.89453C4.65755 28.2224 3.65453 27.2194 3.65453 25.9824V22.2324C3.65453 20.9954 4.65755 19.9924 5.89453 19.9924Z" stroke="black" stroke-width="0.52"></path>
                                <path d="M15.8945 19.7324C14.514 19.7324 13.3945 20.8519 13.3945 22.2324V30.9824C13.3945 32.363 14.514 33.4824 15.8945 33.4824H24.6445C26.0251 33.4824 27.1445 32.363 27.1445 30.9824V22.2324C27.1445 20.8519 26.0251 19.7324 24.6445 19.7324H15.8945ZM24.6445 27.1039C24.6445 27.1848 24.606 27.2277 24.5243 27.2397C24.2341 27.283 23.9442 27.3251 23.654 27.3656C23.6082 27.3723 23.5862 27.3873 23.575 27.4356C23.498 27.757 23.3719 28.0598 23.202 28.3438C23.1844 28.3726 23.1841 28.3915 23.2056 28.4194C23.3858 28.6535 23.5639 28.8885 23.7424 29.1228C23.803 29.2026 23.8007 29.2562 23.7304 29.3271C23.5067 29.5556 23.284 29.7827 23.0597 30.011C23.0203 30.0517 22.9874 30.0715 22.952 30.0715C22.9218 30.0715 22.8906 30.057 22.8521 30.0288C22.6132 29.8541 22.3755 29.6814 22.1378 29.5059C22.1241 29.4959 22.0798 29.495 22.0667 29.5034C21.7617 29.6937 21.4358 29.8327 21.0864 29.915C21.0429 29.9253 21.0348 29.9479 21.0295 29.9833C20.9877 30.2771 20.9453 30.5701 20.902 30.8636C20.8895 30.9442 20.8459 30.9825 20.7631 30.9825H19.7759C19.6922 30.9825 19.6498 30.9445 19.637 30.8594C19.5946 30.5679 19.5516 30.2768 19.5111 29.9844C19.5053 29.9417 19.4882 29.9236 19.4456 29.913C19.1269 29.8374 18.8261 29.7141 18.5452 29.5464C18.5271 29.5355 18.4665 29.5363 18.4478 29.5508C18.2176 29.7294 17.9847 29.9055 17.7528 30.0812C17.7165 30.1094 17.6853 30.1234 17.6549 30.1234C17.6211 30.1234 17.5882 30.1055 17.5513 30.0704C17.3223 29.846 17.0929 29.6217 16.8641 29.3968C16.7918 29.3257 16.7877 29.2735 16.8468 29.1929C17.0206 28.954 17.1939 28.7152 17.3686 28.4791C17.3895 28.4501 17.3903 28.432 17.3722 28.4021C17.1825 28.0991 17.0438 27.7743 16.9618 27.4258C16.9512 27.3815 16.928 27.3723 16.8895 27.3675C16.5979 27.3254 16.3066 27.2827 16.0148 27.24C15.9314 27.2274 15.8948 27.1848 15.8948 27.098V26.1164C15.8948 26.0302 15.9322 25.9869 16.0151 25.9752C16.3069 25.932 16.5977 25.8898 16.8901 25.8477C16.9269 25.8427 16.9517 25.8346 16.9623 25.7899C17.0382 25.4641 17.166 25.1582 17.3368 24.8712C17.3541 24.8424 17.3555 24.8235 17.3343 24.7955C17.1535 24.5615 16.9757 24.3271 16.7969 24.0921C16.7366 24.0123 16.7388 23.9588 16.8092 23.8879C17.0352 23.658 17.2598 23.4261 17.4863 23.1976C17.5204 23.1638 17.5533 23.1465 17.5862 23.1457C17.6166 23.1457 17.6482 23.1591 17.683 23.1845C17.9222 23.3569 18.1596 23.5308 18.3965 23.7068C18.4121 23.7177 18.4621 23.7188 18.4774 23.7093C18.7788 23.5207 19.1027 23.384 19.4487 23.3011C19.49 23.2911 19.5045 23.2721 19.5104 23.2314C19.5514 22.9376 19.5943 22.6452 19.637 22.3511C19.6496 22.2707 19.6934 22.2325 19.776 22.2325H20.7628C20.8477 22.2325 20.8895 22.2707 20.9015 22.3555C20.9448 22.6471 20.9877 22.9381 21.0285 23.2305C21.0343 23.2732 21.0513 23.2914 21.094 23.3025C21.4121 23.3782 21.7132 23.5015 21.9947 23.6692C22.0125 23.68 22.0725 23.6792 22.0915 23.6647C22.3214 23.4861 22.5547 23.3101 22.7865 23.1343C22.8234 23.1061 22.8549 23.0922 22.885 23.0922C22.9188 23.0922 22.9511 23.11 22.9877 23.1452C23.2168 23.3695 23.4456 23.5938 23.6749 23.8196C23.7475 23.8899 23.7514 23.942 23.6917 24.0227C23.5178 24.2615 23.3448 24.4995 23.1699 24.7364C23.149 24.7654 23.1484 24.7836 23.1665 24.8134C23.3557 25.1164 23.4947 25.4412 23.5761 25.7897C23.5862 25.8341 23.6107 25.8422 23.649 25.8477C23.9403 25.8899 24.2316 25.9326 24.5234 25.9753C24.6051 25.9873 24.6442 26.0302 24.6442 26.1111C24.6448 26.4418 24.6448 26.7732 24.6445 27.1039Z" fill="black"></path>
                                <path d="M22.3577 26.6066C22.3577 27.7603 21.4224 28.6956 20.2687 28.6956C19.115 28.6956 18.1797 27.7603 18.1797 26.6066C18.1797 25.4529 19.115 24.5176 20.2687 24.5176C21.4224 24.5176 22.3577 25.4529 22.3577 26.6066Z" fill="black"></path>
                                <path d="M3.42775 40.9824H22.1113C23.5103 40.9824 24.6445 39.863 24.6445 38.4824V34.7324H2.14453V7.23242H23.3945V18.4824H24.6445V3.48242C24.6445 2.10156 23.51 0.982422 22.1113 0.982422H3.42775C2.02903 0.982422 0.894531 2.10156 0.894531 3.48242V38.4824C0.894531 39.863 2.02903 40.9824 3.42775 40.9824ZM9.64453 37.2324H15.8945C16.2394 37.2324 16.5195 37.5126 16.5195 37.8574C16.5195 38.2023 16.2394 38.4824 15.8945 38.4824H9.64453C9.29967 38.4824 9.01953 38.2023 9.01953 37.8574C9.01953 37.5126 9.29967 37.2324 9.64453 37.2324ZM15.8945 3.48242H17.1445C17.4894 3.48242 17.7695 3.76256 17.7695 4.10742C17.7695 4.45229 17.4894 4.73242 17.1445 4.73242H15.8945C15.5497 4.73242 15.2695 4.45229 15.2695 4.10742C15.2695 3.76256 15.5497 3.48242 15.8945 3.48242ZM8.39453 3.48242H13.3945C13.7394 3.48242 14.0195 3.76256 14.0195 4.10742C14.0195 4.45229 13.7394 4.73242 13.3945 4.73242H8.39453C8.04967 4.73242 7.76953 4.45229 7.76953 4.10742C7.76953 3.76256 8.04967 3.48242 8.39453 3.48242Z" fill="black"></path>
                            </svg>