<svg width="38" height="38" viewBox="0 0 50 60" fill="none" xmlns="http://www.w3.org/2000/svg">
<g clip-path="url(#clip0_3369_10698)">
<g clip-path="url(#clip1_3369_10698)">
<path d="M35.1562 43.9609H33.5938V47.0859H35.1562V43.9609Z" fill="black"/>
<path d="M32.8125 43.9609H31.25V47.0859H32.8125V43.9609Z" fill="black"/>
<path d="M30.4688 43.9609H28.9062V47.0859H30.4688V43.9609Z" fill="black"/>
<path d="M28.125 43.9609H26.5625V47.0859H28.125V43.9609Z" fill="black"/>
<path d="M25.7812 43.9609H24.2188V47.0859H25.7812V43.9609Z" fill="black"/>
<path d="M23.4375 43.9609H21.875V47.0859H23.4375V43.9609Z" fill="black"/>
<path d="M37.5 43.9609H35.9375V47.0859H37.5V43.9609Z" fill="black"/>
<path d="M39.8438 43.9609H38.2812V47.0859H39.8438V43.9609Z" fill="black"/>
<path d="M42.1875 43.9609H40.625V47.0859H42.1875V43.9609Z" fill="black"/>
<path d="M44.5312 43.9609H42.9688V47.0859H44.5312V43.9609Z" fill="black"/>
<path d="M46.875 43.9609H45.3125V47.0859H46.875V43.9609Z" fill="black"/>
<path d="M35.1562 37.7109H33.5938V40.8359H35.1562V37.7109Z" fill="black"/>
<path d="M32.8125 37.7109H31.25V40.8359H32.8125V37.7109Z" fill="black"/>
<path d="M30.4688 37.7109H28.9062V40.8359H30.4688V37.7109Z" fill="black"/>
<path d="M28.125 37.7109H26.5625V40.8359H28.125V37.7109Z" fill="black"/>
<path d="M25.7812 37.7109H24.2188V40.8359H25.7812V37.7109Z" fill="black"/>
<path d="M23.4375 37.7109H21.875V40.8359H23.4375V37.7109Z" fill="black"/>
<path d="M37.5 37.7109H35.9375V40.8359H37.5V37.7109Z" fill="black"/>
<path d="M39.8438 37.7109H38.2812V40.8359H39.8438V37.7109Z" fill="black"/>
<path d="M42.1875 37.7109H40.625V40.8359H42.1875V37.7109Z" fill="black"/>
<path d="M44.5312 37.7109H42.9688V40.8359H44.5312V37.7109Z" fill="black"/>
<path d="M46.875 37.7109H45.3125V40.8359H46.875V37.7109Z" fill="black"/>
<path d="M46.875 29.1172H41.4062V4.89844C41.405 3.86282 40.9931 2.86997 40.2608 2.13767C39.5285 1.40538 38.5356 0.993428 37.5 0.992188H4.6875C3.65188 0.993428 2.65903 1.40538 1.92673 2.13767C1.19444 2.86997 0.782491 3.86282 0.78125 4.89844V38.4922C0.783869 39.425 1.12063 40.326 1.73048 41.0319C2.34033 41.7378 3.1829 42.2018 4.10547 42.3398L4.73047 44.2078C4.78213 44.3629 4.88117 44.4979 5.01361 44.5938C5.14606 44.6897 5.30525 44.7416 5.46875 44.7422H8.59375C8.75765 44.7421 8.91736 44.6904 9.05028 44.5945C9.18319 44.4986 9.28258 44.3633 9.33438 44.2078L9.9375 42.3984H20.1406C19.7505 42.8255 19.5333 43.3825 19.5312 43.9609V47.0859C19.5312 47.7075 19.7782 48.3037 20.2177 48.7432C20.6573 49.1828 21.2534 49.4297 21.875 49.4297H46.875C47.4966 49.4297 48.0927 49.1828 48.5323 48.7432C48.9718 48.3037 49.2188 47.7075 49.2188 47.0859V43.9609C49.2167 43.3825 48.9995 42.8255 48.6094 42.3984C48.9995 41.9714 49.2167 41.4144 49.2188 40.8359V37.7109C49.2167 37.1325 48.9995 36.5755 48.6094 36.1484C48.9995 35.7214 49.2167 35.1644 49.2188 34.5859V31.4609C49.2188 30.8393 48.9718 30.2432 48.5323 29.8037C48.0927 29.3641 47.4966 29.1172 46.875 29.1172ZM47.6562 31.4609V34.5859C47.6562 34.7931 47.5739 34.9919 47.4274 35.1384C47.2809 35.2849 47.0822 35.3672 46.875 35.3672H21.875C21.6678 35.3672 21.4691 35.2849 21.3226 35.1384C21.1761 34.9919 21.0938 34.7931 21.0938 34.5859V31.4609C21.0938 31.2537 21.1761 31.055 21.3226 30.9085C21.4691 30.762 21.6678 30.6797 21.875 30.6797H46.875C47.0822 30.6797 47.2809 30.762 47.4274 30.9085C47.5739 31.055 47.6562 31.2537 47.6562 31.4609ZM47.6562 37.7109V40.8359C47.6562 41.0431 47.5739 41.2419 47.4274 41.3884C47.2809 41.5349 47.0822 41.6172 46.875 41.6172H21.875C21.6678 41.6172 21.4691 41.5349 21.3226 41.3884C21.1761 41.2419 21.0938 41.0431 21.0938 40.8359V37.7109C21.0938 37.5037 21.1761 37.305 21.3226 37.1585C21.4691 37.012 21.6678 36.9297 21.875 36.9297H46.875C47.0822 36.9297 47.2809 37.012 47.4274 37.1585C47.5739 37.305 47.6562 37.5037 47.6562 37.7109ZM5.46875 10.3672H8.59375V11.9297H5.46875V10.3672ZM5.46875 31.4609H8.59375V33.0234H5.46875V31.4609ZM5.46875 34.5859H8.59375C9.00815 34.5859 9.40558 34.4213 9.6986 34.1283C9.99163 33.8353 10.1562 33.4378 10.1562 33.0234V31.4609C10.1562 31.0465 9.99163 30.6491 9.6986 30.3561C9.40558 30.0631 9.00815 29.8984 8.59375 29.8984H5.46875V13.4922H8.59375C9.00815 13.4922 9.40558 13.3276 9.6986 13.0345C9.99163 12.7415 10.1562 12.3441 10.1562 11.9297V10.3672C10.1562 9.95279 9.99163 9.55536 9.6986 9.26233C9.40558 8.96931 9.00815 8.80469 8.59375 8.80469H5.46875V6.46094C5.46875 6.25374 5.55106 6.05502 5.69757 5.90851C5.84409 5.762 6.0428 5.67969 6.25 5.67969H35.9375C36.1447 5.67969 36.3434 5.762 36.4899 5.90851C36.6364 6.05502 36.7188 6.25374 36.7188 6.46094V29.1172H21.875C21.2534 29.1172 20.6573 29.3641 20.2177 29.8037C19.7782 30.2432 19.5312 30.8393 19.5312 31.4609V34.5859C19.5333 35.1644 19.7505 35.7214 20.1406 36.1484C19.7505 36.5755 19.5333 37.1325 19.5312 37.7109H6.25C6.0428 37.7109 5.84409 37.6286 5.69757 37.4821C5.55106 37.3356 5.46875 37.1369 5.46875 36.9297V34.5859ZM8.03047 43.1797H6.03203L5.77109 42.3984H8.29141L8.03047 43.1797ZM4.6875 40.8359C4.0659 40.8359 3.46976 40.589 3.03022 40.1495C2.59068 39.7099 2.34375 39.1138 2.34375 38.4922V4.89844C2.34375 4.27684 2.59068 3.68069 3.03022 3.24116C3.46976 2.80162 4.0659 2.55469 4.6875 2.55469H37.5C38.1216 2.55469 38.7177 2.80162 39.1573 3.24116C39.5968 3.68069 39.8438 4.27684 39.8438 4.89844V29.1172H38.2812V6.46094C38.2812 5.83934 38.0343 5.24319 37.5948 4.80366C37.1552 4.36412 36.5591 4.11719 35.9375 4.11719H6.25C5.6284 4.11719 5.03226 4.36412 4.59272 4.80366C4.15318 5.24319 3.90625 5.83934 3.90625 6.46094V36.9297C3.90625 37.5513 4.15318 38.1474 4.59272 38.587C5.03226 39.0265 5.6284 39.2734 6.25 39.2734H19.5312V40.8359H4.6875ZM47.6562 47.0859C47.6562 47.2931 47.5739 47.4919 47.4274 47.6384C47.2809 47.7849 47.0822 47.8672 46.875 47.8672H21.875C21.6678 47.8672 21.4691 47.7849 21.3226 47.6384C21.1761 47.4919 21.0938 47.2931 21.0938 47.0859V43.9609C21.0938 43.7537 21.1761 43.555 21.3226 43.4085C21.4691 43.262 21.6678 43.1797 21.875 43.1797H46.875C47.0822 43.1797 47.2809 43.262 47.4274 43.4085C47.5739 43.555 47.6562 43.7537 47.6562 43.9609V47.0859Z" fill="black"/>
<path d="M35.1562 31.4609H33.5938V34.5859H35.1562V31.4609Z" fill="black"/>
<path d="M32.8125 31.4609H31.25V34.5859H32.8125V31.4609Z" fill="black"/>
<path d="M30.4688 31.4609H28.9062V34.5859H30.4688V31.4609Z" fill="black"/>
<path d="M28.125 31.4609H26.5625V34.5859H28.125V31.4609Z" fill="black"/>
<path d="M25.7812 31.4609H24.2188V34.5859H25.7812V31.4609Z" fill="black"/>
<path d="M23.4375 31.4609H21.875V34.5859H23.4375V31.4609Z" fill="black"/>
<path d="M37.5 31.4609H35.9375V34.5859H37.5V31.4609Z" fill="black"/>
<path d="M39.8438 31.4609H38.2812V34.5859H39.8438V31.4609Z" fill="black"/>
<path d="M42.1875 31.4609H40.625V34.5859H42.1875V31.4609Z" fill="black"/>
<path d="M44.5312 31.4609H42.9688V34.5859H44.5312V31.4609Z" fill="black"/>
<path d="M46.875 31.4609H45.3125V34.5859H46.875V31.4609Z" fill="black"/>
<path d="M12.5 27.5547H26.5625C26.7697 27.5547 26.9684 27.4724 27.1149 27.3259C27.2614 27.1794 27.3438 26.9806 27.3438 26.7734V9.58594C27.3438 9.37874 27.2614 9.18002 27.1149 9.03351C26.9684 8.887 26.7697 8.80469 26.5625 8.80469H12.5C12.2928 8.80469 12.0941 8.887 11.9476 9.03351C11.8011 9.18002 11.7188 9.37874 11.7188 9.58594V26.7734C11.7188 26.9806 11.8011 27.1794 11.9476 27.3259C12.0941 27.4724 12.2928 27.5547 12.5 27.5547ZM13.2812 25.9922V14.2734H25.7812V25.9922H13.2812ZM25.7812 10.3672V12.7109H13.2812V10.3672H25.7812Z" fill="black"/>
<path d="M17.1875 15.8359H15.625V17.3984H17.1875V15.8359Z" fill="black"/>
<path d="M20.3125 15.8359H18.75V17.3984H20.3125V15.8359Z" fill="black"/>
<path d="M23.4375 15.8359H21.875V17.3984H23.4375V15.8359Z" fill="black"/>
<path d="M17.1875 18.1797H15.625V19.7422H17.1875V18.1797Z" fill="black"/>
<path d="M20.3125 18.1797H18.75V19.7422H20.3125V18.1797Z" fill="black"/>
<path d="M23.4375 18.1797H21.875V19.7422H23.4375V18.1797Z" fill="black"/>
<path d="M17.1875 20.5234H15.625V22.0859H17.1875V20.5234Z" fill="black"/>
<path d="M20.3125 20.5234H18.75V22.0859H20.3125V20.5234Z" fill="black"/>
<path d="M23.4375 20.5234H21.875V22.0859H23.4375V20.5234Z" fill="black"/>
<path d="M17.1875 22.8672H15.625V24.4297H17.1875V22.8672Z" fill="black"/>
<path d="M20.3125 22.8672H18.75V24.4297H20.3125V22.8672Z" fill="black"/>
<path d="M23.4375 22.8672H21.875V24.4297H23.4375V22.8672Z" fill="black"/>
<path d="M14.8456 44.7441V46.3066H13.1394C12.9551 45.7853 12.5925 45.346 12.1156 45.0662C11.6387 44.7865 11.0783 44.6843 10.5334 44.7778C9.98844 44.8713 9.49411 45.1545 9.13775 45.5772C8.78139 45.9999 8.58594 46.535 8.58594 47.0878C8.58594 47.6407 8.78139 48.1758 9.13775 48.5985C9.49411 49.0212 9.98844 49.3043 10.5334 49.3978C11.0783 49.4913 11.6387 49.3892 12.1156 49.1094C12.5925 48.8297 12.9551 48.3903 13.1394 47.8691H15.6269C15.8341 47.8691 16.0328 47.7868 16.1793 47.6403C16.3258 47.4937 16.4081 47.295 16.4081 47.0878V45.5253H18.7519V43.9628H15.6269C15.4197 43.9628 15.221 44.0451 15.0745 44.1917C14.928 44.3382 14.8456 44.5369 14.8456 44.7441ZM10.9394 47.8691C10.7849 47.8691 10.6338 47.8233 10.5054 47.7374C10.3769 47.6516 10.2767 47.5296 10.2176 47.3868C10.1585 47.2441 10.143 47.087 10.1732 46.9354C10.2033 46.7839 10.2777 46.6447 10.387 46.5354C10.4962 46.4261 10.6354 46.3517 10.787 46.3216C10.9385 46.2914 11.0956 46.3069 11.2384 46.3661C11.3811 46.4252 11.5031 46.5253 11.589 46.6538C11.6748 46.7823 11.7206 46.9333 11.7206 47.0878C11.7206 47.295 11.6383 47.4937 11.4918 47.6403C11.3453 47.7868 11.1466 47.8691 10.9394 47.8691ZM13.2831 33.6628V35.3691C13.2831 35.5763 13.3655 35.775 13.512 35.9215C13.6585 36.068 13.8572 36.1503 14.0644 36.1503H17.9706V34.5878H14.8456V33.6628C15.3669 33.4785 15.8062 33.1159 16.086 32.639C16.3657 32.1621 16.4679 31.6017 16.3744 31.0568C16.2809 30.5119 15.9978 30.0175 15.5751 29.6612C15.1524 29.3048 14.6173 29.1094 14.0644 29.1094C13.5115 29.1094 12.9764 29.3048 12.5537 29.6612C12.131 30.0175 11.8479 30.5119 11.7544 31.0568C11.6609 31.6017 11.7631 32.1621 12.0428 32.639C12.3226 33.1159 12.7619 33.4785 13.2831 33.6628ZM14.0644 30.6816C14.2189 30.6816 14.37 30.7274 14.4984 30.8132C14.6269 30.8991 14.727 31.0211 14.7862 31.1639C14.8453 31.3066 14.8608 31.4637 14.8306 31.6152C14.8005 31.7668 14.7261 31.906 14.6168 32.0153C14.5076 32.1245 14.3684 32.1989 14.2168 32.2291C14.0653 32.2592 13.9082 32.2437 13.7654 32.1846C13.6227 32.1255 13.5007 32.0253 13.4148 31.8969C13.329 31.7684 13.2831 31.6173 13.2831 31.4628C13.2831 31.2556 13.3655 31.0569 13.512 30.9104C13.6585 30.7639 13.8572 30.6816 14.0644 30.6816ZM46.8769 16.6191C46.3247 16.618 45.7899 16.8125 45.3673 17.1679C44.9447 17.5234 44.6616 18.0169 44.568 18.5611C44.4744 19.1054 44.5765 19.6651 44.8561 20.1413C45.1357 20.6175 45.5748 20.9794 46.0956 21.1628V22.8691H43.7519C43.5447 22.8691 43.346 22.9514 43.1995 23.0979C43.053 23.2444 42.9706 23.4431 42.9706 23.6503V27.5566H44.5331V24.4316H46.8769C47.0841 24.4316 47.2828 24.3493 47.4293 24.2028C47.5758 24.0562 47.6581 23.8575 47.6581 23.6503V21.1628C48.179 20.9794 48.6181 20.6175 48.8977 20.1413C49.1773 19.6651 49.2794 19.1054 49.1858 18.5611C49.0922 18.0169 48.8091 17.5234 48.3865 17.1679C47.9639 16.8125 47.4291 16.618 46.8769 16.6191ZM46.8769 19.7441C46.7224 19.7441 46.5713 19.6983 46.4429 19.6124C46.3144 19.5266 46.2142 19.4046 46.1551 19.2618C46.096 19.119 46.0805 18.962 46.1107 18.8104C46.1408 18.6589 46.2152 18.5197 46.3245 18.4104C46.4337 18.3011 46.5729 18.2267 46.7245 18.1966C46.876 18.1664 47.0331 18.1819 47.1759 18.2411C47.3186 18.3002 47.4406 18.4003 47.5265 18.5288C47.6123 18.6573 47.6581 18.8083 47.6581 18.9628C47.6581 19.17 47.5758 19.3687 47.4293 19.5153C47.2828 19.6618 47.0841 19.7441 46.8769 19.7441ZM30.4706 21.1628V23.6503C30.4706 23.8575 30.553 24.0562 30.6995 24.2028C30.846 24.3493 31.0447 24.4316 31.2519 24.4316H33.5956V27.5566H35.1581V23.6503C35.1581 23.4431 35.0758 23.2444 34.9293 23.0979C34.7828 22.9514 34.5841 22.8691 34.3769 22.8691H32.0331V21.1628C32.5544 20.9785 32.9937 20.6159 33.2735 20.139C33.5532 19.6621 33.6554 19.1017 33.5619 18.5568C33.4684 18.0119 33.1853 17.5175 32.7626 17.1612C32.3399 16.8048 31.8048 16.6094 31.2519 16.6094C30.699 16.6094 30.1639 16.8048 29.7412 17.1612C29.3185 17.5175 29.0354 18.0119 28.9419 18.5568C28.8484 19.1017 28.9506 19.6621 29.2303 20.139C29.5101 20.6159 29.9494 20.9785 30.4706 21.1628ZM31.2519 18.1816C31.4064 18.1816 31.5575 18.2274 31.6859 18.3132C31.8144 18.3991 31.9145 18.5211 31.9737 18.6639C32.0328 18.8066 32.0483 18.9637 32.0181 19.1152C31.988 19.2668 31.9136 19.406 31.8043 19.5153C31.6951 19.6245 31.5559 19.6989 31.4043 19.7291C31.2528 19.7592 31.0957 19.7437 30.9529 19.6846C30.8102 19.6255 30.6882 19.5253 30.6023 19.3969C30.5165 19.2684 30.4706 19.1173 30.4706 18.9628C30.4706 18.7556 30.553 18.5569 30.6995 18.4104C30.846 18.2639 31.0447 18.1816 31.2519 18.1816Z" fill="black"/>
</g>
</g>
<defs>
<clipPath id="clip0_3369_10698">
<rect width="50" height="59.3023" fill="white" transform="translate(0 0.210938)"/>
</clipPath>
<clipPath id="clip1_3369_10698">
<rect width="50" height="50" fill="white" transform="translate(0 0.210938)"/>
</clipPath>
</defs>
</svg>