<svg width="38" height="38" viewBox="0 0 32 40" fill="none"
                                xmlns="http://www.w3.org/2000/svg">
                                <path fill-rule="evenodd" clip-rule="evenodd"
                                    d="M3.07812 28.1672V37.9058C3.07812 38.403 3.27567 38.8799 3.62723 39.2317C3.9788 39.5832 4.45595 39.7808 4.95309 39.7808H22.3859C22.8834 39.7808 23.3606 39.5832 23.7118 39.2317C24.0634 38.8801 24.2609 38.4029 24.2609 37.9058V2.07223C24.2609 1.57502 24.0634 1.09816 23.7118 0.746373C23.3605 0.394808 22.8834 0.197266 22.3859 0.197266H4.95309C4.45588 0.197266 3.97902 0.394808 3.62723 0.746373C3.27567 1.09794 3.07812 1.57509 3.07812 2.07223V19.0787C3.07812 19.4235 3.35826 19.7037 3.70312 19.7037C4.04799 19.7037 4.32812 19.4235 4.32812 19.0787V2.07223C4.32812 1.90649 4.39397 1.74773 4.51116 1.63027C4.62863 1.51308 4.78739 1.44723 4.95313 1.44723H22.386C22.5517 1.44723 22.711 1.51308 22.8279 1.63027C22.9451 1.74773 23.011 1.90649 23.011 2.07223V37.9058C23.011 38.0715 22.9451 38.2303 22.8279 38.3478C22.7108 38.465 22.5517 38.5308 22.386 38.5308H4.95313C4.78739 38.5308 4.62863 38.465 4.51116 38.3478C4.39398 38.2303 4.32812 38.0715 4.32812 37.9058V28.1672C4.32812 27.8224 4.04799 27.5422 3.70312 27.5422C3.35826 27.5422 3.07812 27.8224 3.07812 28.1672Z"
                                    fill="black" />
                                <path fill-rule="evenodd" clip-rule="evenodd"
                                    d="M6.71875 36.2715H8.75532C9.09991 36.2715 9.38032 35.9913 9.38032 35.6465C9.38032 35.3016 9.09991 35.0215 8.75532 35.0215H6.71875C6.37389 35.0215 6.09375 35.3016 6.09375 35.6465C6.09375 35.9913 6.37389 36.2715 6.71875 36.2715Z"
                                    fill="black" />
                                <path fill-rule="evenodd" clip-rule="evenodd"
                                    d="M18.5781 36.2715H20.6147C20.9596 36.2715 21.2397 35.9913 21.2397 35.6465C21.2397 35.3016 20.9596 35.0215 20.6147 35.0215H18.5781C18.2333 35.0215 17.9531 35.3016 17.9531 35.6465C17.9531 35.9913 18.2333 36.2715 18.5781 36.2715Z"
                                    fill="black" />
                                <path fill-rule="evenodd" clip-rule="evenodd"
                                    d="M12.6484 36.2715H14.685C15.0296 36.2715 15.31 35.9913 15.31 35.6465C15.31 35.3016 15.0296 35.0215 14.685 35.0215H12.6484C12.3036 35.0215 12.0234 35.3016 12.0234 35.6465C12.0234 35.9913 12.3036 36.2715 12.6484 36.2715Z"
                                    fill="black" />
                                <path fill-rule="evenodd" clip-rule="evenodd"
                                    d="M13.125 4.88477H14.2034C14.5483 4.88477 14.8284 4.60463 14.8284 4.25977C14.8284 3.9149 14.5483 3.63477 14.2034 3.63477H13.125C12.7801 3.63477 12.5 3.9149 12.5 4.25977C12.5 4.60463 12.7801 4.88477 13.125 4.88477Z"
                                    fill="black" />
                                <path fill-rule="evenodd" clip-rule="evenodd"
                                    d="M27.625 10.6777V12.4472C27.625 12.7921 27.9051 13.0722 28.25 13.0722C28.5949 13.0722 28.875 12.7921 28.875 12.4472V10.6777C28.875 10.3329 28.5949 10.0527 28.25 10.0527C27.9051 10.0527 27.625 10.3329 27.625 10.6777Z"
                                    fill="black" />
                                <path fill-rule="evenodd" clip-rule="evenodd"
                                    d="M27.625 21.5371V23.3064C27.625 23.6513 27.9051 23.9314 28.25 23.9314C28.5949 23.9314 28.875 23.6513 28.875 23.3064V21.5371C28.875 21.1922 28.5949 20.9121 28.25 20.9121C27.9051 20.9121 27.625 21.1922 27.625 21.5371Z"
                                    fill="black" />
                                <path fill-rule="evenodd" clip-rule="evenodd"
                                    d="M17.9453 23.623V25.3925C17.9453 25.7371 18.2254 26.0175 18.5703 26.0175C18.9152 26.0175 19.1953 25.7371 19.1953 25.3925V23.623C19.1953 23.2782 18.9152 22.998 18.5703 22.998C18.2254 22.998 17.9453 23.2782 17.9453 23.623Z"
                                    fill="black" />
                                <path fill-rule="evenodd" clip-rule="evenodd"
                                    d="M17.9453 12.7656V17.8764C17.9453 18.2213 18.2254 18.5014 18.5703 18.5014C18.9152 18.5014 19.1953 18.2213 19.1953 17.8764V12.7656C19.1953 12.4208 18.9152 12.1406 18.5703 12.1406C18.2254 12.1406 17.9453 12.4208 17.9453 12.7656Z"
                                    fill="black" />
                                <path fill-rule="evenodd" clip-rule="evenodd"
                                    d="M10.5938 23.623V25.3925C10.5938 25.7371 10.8742 26.0175 11.2188 26.0175C11.5636 26.0175 11.8438 25.7371 11.8438 25.3925V23.623C11.8438 23.2782 11.5636 22.998 11.2188 22.998C10.8742 22.998 10.5938 23.2782 10.5938 23.623Z"
                                    fill="black" />
                                <path fill-rule="evenodd" clip-rule="evenodd"
                                    d="M10.5938 12.7656V14.5351C10.5938 14.88 10.8742 15.1601 11.2188 15.1601C11.5636 15.1601 11.8438 14.88 11.8438 14.5351V12.7656C11.8438 12.4208 11.5636 12.1406 11.2188 12.1406C10.8742 12.1406 10.5938 12.4208 10.5938 12.7656Z"
                                    fill="black" />
                                <path fill-rule="evenodd" clip-rule="evenodd"
                                    d="M21.5235 18.7085C21.5235 18.3217 21.37 17.951 21.0963 17.6772C20.8229 17.4037 20.4521 17.25 20.065 17.25H17.0835C16.6965 17.25 16.3257 17.4037 16.0522 17.6772C15.7785 17.9509 15.625 18.3217 15.625 18.7085V22.7888C15.625 23.1755 15.7785 23.5463 16.0522 23.8201C16.3256 24.0935 16.6964 24.2473 17.0835 24.2473H20.065C20.452 24.2473 20.8228 24.0936 21.0963 23.8201C21.37 23.5464 21.5235 23.1756 21.5235 22.7888V18.7085ZM20.2735 18.7085V22.7888C20.2735 22.8438 20.2517 22.8971 20.2127 22.9359C20.1736 22.9749 20.1206 22.9972 20.0651 22.9972H17.0835C17.028 22.9972 16.9752 22.9752 16.9359 22.9359C16.8968 22.8971 16.8751 22.8438 16.8751 22.7888V18.7085C16.8751 18.6535 16.8968 18.6002 16.9359 18.5614C16.975 18.5224 17.028 18.5 17.0835 18.5H20.0651C20.1206 18.5 20.1733 18.5221 20.2127 18.5614C20.2517 18.6002 20.2735 18.6535 20.2735 18.7085Z"
                                    fill="black" />
                                <path fill-rule="evenodd" clip-rule="evenodd"
                                    d="M31.1954 13.2807C31.1954 12.894 31.0419 12.5229 30.7682 12.2494C30.4948 11.976 30.1239 11.8223 29.7369 11.8223H26.7553C26.3683 11.8223 25.9976 11.976 25.7241 12.2494C25.4503 12.5229 25.2969 12.894 25.2969 13.2807V20.7022C25.2969 21.0889 25.4503 21.4597 25.7241 21.7334C25.9975 22.0069 26.3683 22.1606 26.7553 22.1606H29.7369C30.1239 22.1606 30.4947 22.0069 30.7682 21.7334C31.0419 21.4597 31.1954 21.0889 31.1954 20.7022V13.2807ZM29.9454 13.2807V20.7022C29.9454 20.7571 29.9236 20.8101 29.8845 20.8492C29.8455 20.8883 29.7925 20.9106 29.7369 20.9106H26.7554C26.6999 20.9106 26.6471 20.8885 26.6078 20.8492C26.5687 20.8101 26.547 20.7571 26.547 20.7022V13.2807C26.547 13.2252 26.5687 13.1725 26.6078 13.1331C26.6468 13.0941 26.6999 13.0723 26.7554 13.0723H29.7369C29.7925 13.0723 29.8452 13.0941 29.8845 13.1331C29.9236 13.1722 29.9454 13.2252 29.9454 13.2807Z"
                                    fill="black" />
                                <path fill-rule="evenodd" clip-rule="evenodd"
                                    d="M14.0866 15.3686C14.0866 14.9819 13.9328 14.6111 13.6594 14.3373C13.3857 14.0639 13.0149 13.9102 12.6281 13.9102H9.64596C9.25924 13.9102 8.88846 14.0639 8.61468 14.3373C8.34124 14.611 8.1875 14.9819 8.1875 15.3686V22.79C8.1875 23.1768 8.34124 23.5475 8.61468 23.8213C8.88839 24.0948 9.25921 24.2485 9.64596 24.2485H12.6281C13.0148 24.2485 13.3856 24.0948 13.6594 23.8213C13.9328 23.5476 14.0866 23.1768 14.0866 22.79V15.3686ZM12.8366 15.3686V22.79C12.8366 22.845 12.8145 22.8983 12.7752 22.9371C12.7364 22.9762 12.6834 22.9985 12.6281 22.9985H9.646C9.59104 22.9985 9.53774 22.9764 9.49896 22.9371C9.4599 22.8983 9.43757 22.845 9.43757 22.79V15.3686C9.43757 15.3131 9.45962 15.2604 9.49896 15.221C9.53774 15.1822 9.59104 15.1602 9.646 15.1602H12.6281C12.6837 15.1602 12.7364 15.1822 12.7752 15.221C12.8142 15.2601 12.8366 15.3131 12.8366 15.3686Z"
                                    fill="black" />
                                <path fill-rule="evenodd" clip-rule="evenodd"
                                    d="M6.6485 19.9116C6.6485 19.5249 6.49504 19.1538 6.22132 18.8803C5.94789 18.6069 5.57707 18.4531 5.19004 18.4531H2.20846C1.82174 18.4531 1.45068 18.6069 1.17718 18.8803C0.903679 19.1537 0.75 19.5248 0.75 19.9116V27.333C0.75 27.7197 0.903736 28.0905 1.17718 28.3643C1.45061 28.6377 1.82171 28.7915 2.20846 28.7915H5.19004C5.57704 28.7915 5.94782 28.6377 6.22132 28.3643C6.49504 28.0906 6.6485 27.7198 6.6485 27.333V19.9116ZM5.3985 19.9116V27.333C5.3985 27.388 5.37674 27.4413 5.33767 27.4801C5.29861 27.5191 5.2456 27.5414 5.19007 27.5414H2.2085C2.15298 27.5414 2.10025 27.5194 2.0609 27.4801C2.02184 27.4413 2.00008 27.388 2.00008 27.333V19.9116C2.00008 19.8561 2.02184 19.8033 2.0609 19.764C2.09997 19.7252 2.15298 19.7032 2.2085 19.7032H5.19007C5.2456 19.7032 5.29833 19.7252 5.33767 19.764C5.37674 19.8031 5.3985 19.8561 5.3985 19.9116Z"
                                    fill="black" />
                                <path fill-rule="evenodd" clip-rule="evenodd"
                                    d="M6.17969 4.88477H8.5329C8.87777 4.88477 9.1579 4.60463 9.1579 4.25977C9.1579 3.9149 8.87777 3.63477 8.5329 3.63477H6.17969C5.83482 3.63477 5.55469 3.9149 5.55469 4.25977C5.55469 4.60463 5.83482 4.88477 6.17969 4.88477Z"
                                    fill="black" />
                                <path fill-rule="evenodd" clip-rule="evenodd"
                                    d="M6.17969 7.33984H8.5329C8.87777 7.33984 9.1579 7.05971 9.1579 6.71484C9.1579 6.36998 8.87777 6.08984 8.5329 6.08984H6.17969C5.83482 6.08984 5.55469 6.36998 5.55469 6.71484C5.55469 7.05971 5.83482 7.33984 6.17969 7.33984Z"
                                    fill="black" />
                                <path fill-rule="evenodd" clip-rule="evenodd"
                                    d="M6.07812 31.332H12.0206C12.3655 31.332 12.6456 31.0519 12.6456 30.707C12.6456 30.3622 12.3655 30.082 12.0206 30.082H6.07812C5.73326 30.082 5.45312 30.3622 5.45312 30.707C5.45312 31.0519 5.73326 31.332 6.07812 31.332Z"
                                    fill="black" />
                                <path fill-rule="evenodd" clip-rule="evenodd"
                                    d="M15.3125 31.332H21.255C21.5999 31.332 21.88 31.0519 21.88 30.707C21.88 30.3622 21.5999 30.082 21.255 30.082H15.3125C14.9676 30.082 14.6875 30.3622 14.6875 30.707C14.6875 31.0519 14.9676 31.332 15.3125 31.332Z"
                                    fill="black" />
                            </svg>