<svg width="38" height="38" viewBox="0 0 40 36" fill="none" xmlns="http://www.w3.org/2000/svg">
<path d="M26.6995 31.4078C26.8262 31.5345 26.9978 31.6028 27.171 31.6028C27.2277 31.6028 27.286 31.5961 27.3443 31.5794L29.9425 30.8843C30.1724 30.8227 30.3524 30.6427 30.4141 30.4128L31.1108 27.8162C31.1724 27.5863 31.1058 27.3413 30.9375 27.1728L29.0357 25.271C28.8658 25.1011 28.6225 25.0344 28.3906 25.0978L25.7924 25.7928C25.5625 25.8545 25.3825 26.0344 25.3209 26.2643L24.6242 28.8609C24.5625 29.0908 24.6292 29.3358 24.7974 29.5043L26.6995 31.4078ZM26.5112 26.9829L28.3644 26.4879L29.7209 27.8444L29.2243 29.6977L27.3711 30.1926L26.0145 28.8361L26.5112 26.9829Z" fill="black"/>
<path d="M39.0323 10.6836C38.5906 10.2368 38.1505 9.79184 37.6972 9.35349C37.4505 9.11688 37.2156 8.94361 36.9773 8.82335C36.1707 8.41515 35.539 8.55327 35.1007 8.79322C35.2056 8.59986 35.274 8.41152 35.3074 8.22988C35.4291 7.54657 35.2092 6.90145 34.654 6.30995C34.4073 6.04656 34.149 5.79321 33.8923 5.53988L33.7106 5.36159C33.3872 5.03988 33.0555 4.72152 32.7273 4.4048C32.344 4.03315 31.9589 3.66316 31.5839 3.28987C27.3922 -0.901841 20.9439 0.608231 19.5739 1.20644C19.3688 1.29657 18.8889 1.50472 18.909 2.01644C18.9274 2.51477 19.3058 2.74973 20.9056 3.73802C21.9257 4.36972 23.1824 5.14787 23.9539 5.84795C23.3473 6.60802 23.0256 7.72295 23.7355 8.42973L24.0254 8.71963L18.9121 13.8312L14.3071 9.22185C14.8138 6.82706 14.0973 4.39542 12.3557 2.65185C10.3423 0.633702 7.9305 0.430273 6.25386 0.611916C5.97233 0.643724 5.74046 0.850195 5.67713 1.12698C5.61547 1.40516 5.73544 1.69199 5.97568 1.84184C6.22401 1.99529 6.42741 2.15182 6.59231 2.31672C7.90231 3.62672 7.90231 5.75844 6.59231 7.07008C5.28731 8.38008 3.15395 8.38344 1.84066 7.07008C1.67409 6.90351 1.51896 6.70345 1.36578 6.4568C1.21566 6.21517 0.927165 6.0952 0.652329 6.15853C0.375543 6.22187 0.169072 6.45345 0.137264 6.73694C-0.0426998 8.40351 0.16405 10.8137 2.18048 12.8287C3.92884 14.5737 6.36212 15.2922 8.75048 14.7822L12.4371 18.4722C12.3905 18.5054 12.3339 18.5187 12.292 18.5589C6.77025 23.5589 3.58704 26.6339 2.87846 27.4011C1.69518 28.691 1.64854 30.196 2.75179 31.4295C2.90023 31.5927 3.43176 32.1379 3.97836 32.6829C4.52329 33.2294 5.07015 33.7646 5.23844 33.9161C5.82856 34.4446 6.46837 34.7144 7.14358 34.7144C8.06351 34.7144 8.80515 34.2077 9.26858 33.7811C9.90195 33.1927 13.0035 30.006 18.1036 24.3711C18.1435 24.3279 18.1585 24.2729 18.192 24.2261L20.8287 26.8645C20.3204 29.2596 21.0372 31.6912 22.7805 33.4362C24.2553 34.9094 26.0472 35.5378 27.7872 35.5378C29.757 35.5378 31.6588 34.7328 32.9605 33.4362C34.257 32.1396 35.0221 30.3263 35.062 28.463C35.1003 26.5012 34.3553 24.6513 32.9605 23.2579C31.2138 21.5113 28.7755 20.7978 26.3905 21.3045L22.9304 17.8461L28.042 12.7345L28.1737 12.8662C28.1871 12.8779 28.1988 12.8896 28.2102 12.9011C28.2219 12.9161 28.2353 12.9295 28.2484 12.9426C28.9385 13.631 29.9002 13.6809 30.8017 13.1075C30.2384 14.0257 30.3667 15.0542 31.1751 15.8742C31.6918 16.396 32.2083 16.9142 32.7301 17.4275C33.1918 17.8826 33.7568 18.1108 34.3236 18.1108C34.8936 18.1108 35.4653 17.8793 35.9285 17.4175C37.0317 16.3193 38.1336 15.2174 39.2335 14.1125C40.1735 13.1641 40.1752 11.8407 39.2368 10.894L39.0323 10.6836ZM8.78725 13.4051C6.74711 13.9503 4.62211 13.3853 3.12539 11.887C2.05368 10.817 1.60868 9.60013 1.47054 8.50191C3.30732 9.82863 5.88547 9.66177 7.53725 8.01364C9.18739 6.36185 9.34889 3.77706 8.02219 1.94364C9.12204 2.08036 10.3422 2.52204 11.4106 3.59378C12.909 5.09014 13.474 7.20871 12.927 9.25871C12.8671 9.48862 12.9321 9.73359 13.1006 9.90184L17.9722 14.7735L14.299 18.4468L9.43231 13.5768C9.26378 13.4085 9.01716 13.3418 8.78725 13.4051ZM8.3637 32.8016C7.87877 33.2483 6.96527 33.6732 6.13041 32.9232C5.96886 32.7781 5.44543 32.265 4.92034 31.7399C4.39523 31.2148 3.88213 30.6916 3.74206 30.5365C3.50545 30.2731 2.78863 29.4698 3.85869 28.3049C4.44379 27.6732 7.49204 24.7017 13.1873 19.5464L12.7389 19.0531L13.3706 19.5497L13.7523 19.9314C13.7523 19.9314 13.7523 19.9331 13.754 19.9331C13.754 19.9331 13.7556 19.9331 13.7556 19.9347L16.8223 23.0031C16.8223 23.0031 16.824 23.0048 16.824 23.0065C16.824 23.0081 16.8257 23.0081 16.8274 23.0081L17.1122 23.293C17.1622 23.343 17.1639 23.4214 17.1139 23.4763C12.0441 29.0782 8.98106 32.2277 8.36392 32.8013L8.3637 32.8016ZM25.7087 22.5101C25.8786 22.6784 26.1219 22.7451 26.3538 22.6834C28.4004 22.1368 30.5187 22.7035 32.0154 24.2001C33.1521 25.3352 33.7604 26.8402 33.7271 28.435C33.6956 29.9585 33.0706 31.4384 32.0171 32.4933C30.0187 34.4866 26.2821 35.0533 23.7221 32.4933C22.2271 30.9967 21.6587 28.8784 22.2054 26.8284C22.2653 26.5985 22.2003 26.3535 22.0321 26.185L18.3105 22.4601L21.9838 18.7868L25.7087 22.5101ZM17.2966 21.5899L15.1682 19.4616L24.9646 9.66656L27.093 11.7949L17.2966 21.5899ZM38.2887 13.1699C37.1905 14.2715 36.092 15.3716 34.9888 16.4682C34.5739 16.8814 34.0806 16.8814 33.6688 16.4749C33.1504 15.9649 32.6373 15.4515 32.1272 14.935C31.6956 14.4966 31.6838 14.0717 32.0923 13.5965C32.5622 13.0466 32.5856 12.3265 32.1473 11.8432C31.904 11.5748 31.5655 11.4397 31.224 11.4397C30.9174 11.4397 30.6074 11.5497 30.3591 11.7715C30.0873 12.0165 29.5692 12.3747 29.1909 11.9964C29.1791 11.9846 29.1674 11.9729 29.156 11.9632C29.1443 11.9498 29.1309 11.9347 29.1194 11.9216L24.6803 7.48494C24.6354 7.43835 24.682 7.05832 25.0204 6.65151C25.5455 6.01981 25.5154 5.4833 24.9205 4.91159C24.1705 4.19001 22.749 3.31173 21.6089 2.60494C21.384 2.46655 21.1404 2.31504 20.9138 2.1733C22.8756 1.66828 27.5006 1.09151 30.6424 4.2333C31.0241 4.615 31.4125 4.99001 31.8023 5.36666C32.1273 5.67999 32.4541 5.99333 32.7738 6.31166L32.9572 6.4933C33.2005 6.73493 33.4471 6.97656 33.6837 7.22659C34.0172 7.57982 34.0286 7.81504 33.9971 7.99837C33.9921 8.02516 33.972 8.09994 33.8855 8.23665C33.732 8.48163 33.4488 9.12836 34.1254 9.80336C34.7937 10.4716 35.3905 10.2132 35.6888 10.0001C35.8205 9.9066 35.9921 9.82178 36.3805 10.0168C36.4954 10.0751 36.6238 10.1733 36.7722 10.3151C37.2172 10.745 37.6506 11.1834 38.0856 11.6234L38.2906 11.8318C38.7125 12.2551 38.7125 12.7434 38.2893 13.1699L38.2887 13.1699Z" fill="black"/>
</svg>