<svg width="38" height="38" viewBox="0 0 40 40" fill="none" xmlns="http://www.w3.org/2000/svg">
                                <path d="M38.75 34.375H36.875V11.25C36.875 10.9051 36.5957 10.625 36.25 10.625H23.125V4.375H31.25V3.125H22.5C22.1543 3.125 21.875 3.40514 21.875 3.75V10.625H20.625V1.875H32.5V0.625H20C19.6543 0.625 19.375 0.905136 19.375 1.25V10.625H18.125V1.25C18.125 0.905136 17.8457 0.625 17.5 0.625H7.5V1.875H16.875V10.625H3.75C3.4043 10.625 3.125 10.9051 3.125 11.25V34.375H1.25C0.9043 34.375 0.625 34.6551 0.625 35V36.875C0.625 38.2536 1.74636 39.375 3.125 39.375H36.875C38.2536 39.375 39.375 38.2536 39.375 36.875V35C39.375 34.6551 39.0957 34.375 38.75 34.375ZM21.875 11.875V12.5H20.625V11.875H21.875ZM23.125 15V13.75H33.75V32.5H6.25V13.75H16.875V15H18.125V13.75H19.375V16.25H20.625V13.75H21.875V15H23.125ZM19.375 11.875V12.5H18.125V11.875H19.375ZM4.375 11.875H16.875V12.5H5.625C5.2793 12.5 5 12.7801 5 13.125V33.125C5 33.4699 5.2793 33.75 5.625 33.75H34.375C34.7207 33.75 35 33.4699 35 33.125V13.125C35 12.7801 34.7207 12.5 34.375 12.5H23.125V11.875H35.625V34.375H4.375V11.875ZM38.125 36.875C38.125 37.5645 37.5645 38.125 36.875 38.125H3.125C2.43555 38.125 1.875 37.5645 1.875 36.875V35.625H38.125V36.875Z" fill="black"></path>
                                <path d="M9.375 18.75V28.75C9.375 29.7838 10.2162 30.625 11.25 30.625H28.75C29.7838 30.625 30.625 29.7838 30.625 28.75V18.75C30.625 17.7162 29.7838 16.875 28.75 16.875H11.25C10.2162 16.875 9.375 17.7162 9.375 18.75ZM10.625 20.625H29.375V21.875H10.625V20.625ZM28.75 29.375H11.25C10.9051 29.375 10.625 29.0943 10.625 28.75V23.125H29.375V28.75C29.375 29.0943 29.0949 29.375 28.75 29.375ZM29.375 18.75V19.375H10.625V18.75C10.625 18.4057 10.9051 18.125 11.25 18.125H28.75C29.0949 18.125 29.375 18.4057 29.375 18.75Z" fill="black"></path>
                                <path d="M26.25 23.75C25.9183 23.75 25.6024 23.8181 25.3125 23.9355C25.0226 23.8181 24.7068 23.75 24.375 23.75C22.9964 23.75 21.875 24.8714 21.875 26.25C21.875 27.6286 22.9964 28.75 24.375 28.75C24.7068 28.75 25.0226 28.6819 25.3125 28.5645C25.6024 28.6819 25.9183 28.75 26.25 28.75C27.6286 28.75 28.75 27.6286 28.75 26.25C28.75 24.8714 27.6286 23.75 26.25 23.75ZM25 26.25C25 25.9356 25.1205 25.6518 25.3125 25.4319C25.5045 25.6518 25.625 25.9356 25.625 26.25C25.625 26.5644 25.5045 26.8482 25.3125 27.0681C25.1205 26.8482 25 26.5644 25 26.25ZM23.125 26.25C23.125 25.6643 23.5312 25.1749 24.0756 25.0399C23.8745 25.4007 23.75 25.8089 23.75 26.25C23.75 26.6911 23.8745 27.0994 24.0756 27.4601C23.5313 27.325 23.125 26.8356 23.125 26.25ZM26.5494 27.4601C26.7505 27.0993 26.875 26.6911 26.875 26.25C26.875 25.8089 26.7505 25.4006 26.5494 25.0399C27.0937 25.175 27.5 25.6644 27.5 26.25C27.5 26.8356 27.0938 27.3251 26.5494 27.4601Z" fill="black"></path>
                                <path d="M33.75 0.625H35V1.875H33.75V0.625Z" fill="black"></path>
                                <path d="M5 0.625H6.25V1.875H5V0.625Z" fill="black"></path>
                            </svg>