<svg width="38" height="38" viewBox="0 0 38 38" fill="none"
                                xmlns="http://www.w3.org/2000/svg">
                                <path
                                    d="M17.5854 33.8787V34.4791C17.5854 34.8243 17.8653 35.1041 18.2104 35.1041C18.5556 35.1041 18.8354 34.8243 18.8354 34.4791V34.2048C18.8968 34.2085 18.9582 34.2138 19.0204 34.2138C19.0826 34.2138 19.144 34.2082 19.2057 34.2048V34.4791C19.2057 34.8243 19.4855 35.1041 19.8307 35.1041C20.1758 35.1041 20.4557 34.8243 20.4557 34.4791V33.8784C20.7718 33.7227 21.0653 33.5171 21.3223 33.2606C21.5665 33.0165 21.5665 32.6209 21.3223 32.377C21.2004 32.2551 21.0402 32.194 20.8803 32.194C20.7205 32.194 20.5606 32.2551 20.4387 32.377C20.06 32.7556 19.5564 32.9643 19.0207 32.9643C18.4849 32.9643 17.9816 32.7559 17.6029 32.377C17.2243 31.9984 17.0156 31.495 17.0156 30.9593C17.0156 30.4239 17.224 29.9202 17.6029 29.5413C17.9816 29.1627 18.4849 28.954 19.0207 28.954C19.5561 28.954 20.0597 29.1624 20.4387 29.5416C20.5606 29.6632 20.7207 29.7243 20.8803 29.7243C21.0402 29.7243 21.2004 29.6632 21.3226 29.5413C21.5665 29.2971 21.5665 28.9012 21.3223 28.6574C21.0656 28.4009 20.7721 28.1956 20.4557 28.0399V27.4395C20.4557 27.0943 20.1758 26.8145 19.8307 26.8145C19.4855 26.8145 19.2057 27.0943 19.2057 27.4395V27.7134C19.144 27.7098 19.0826 27.7045 19.0204 27.7045C18.9582 27.7045 18.8968 27.7101 18.8354 27.7134V27.4395C18.8354 27.0943 18.5556 26.8145 18.2104 26.8145C17.8653 26.8145 17.5854 27.0943 17.5854 27.4395V28.0396C17.269 28.1953 16.9755 28.4009 16.7188 28.6576C16.1044 29.2726 15.7656 30.0899 15.7656 30.9593C15.7656 31.8287 16.1041 32.6459 16.7188 33.2609C16.9752 33.5173 17.2687 33.7227 17.5854 33.8787Z"
                                    fill="black" />
                                <path
                                    d="M36.8909 20.916H33.7383V17.8329C33.7383 15.307 31.6831 13.252 29.1571 13.252H22.9754C20.4495 13.252 18.3942 15.307 18.3942 17.8329V20.916H1.14063C0.657368 20.916 0.265625 21.3078 0.265625 21.791V25.2107C0.265625 25.6939 0.657368 26.0857 1.14063 26.0857H2.07898V36.7914C2.07898 37.2746 2.47073 37.6664 2.95398 37.6664H35.0776C35.5608 37.6664 35.9526 37.2746 35.9526 36.7914V26.0857H36.8906C37.3739 26.0857 37.7656 25.6939 37.7656 25.2107L37.7653 21.791C37.7653 21.3078 37.3736 20.916 36.8903 20.916H36.8909ZM20.1445 17.8329C20.1445 16.2718 21.4146 15.002 22.9757 15.002H29.1571C30.7184 15.002 31.9883 16.272 31.9883 17.8329V20.916H30.9841V18.6404C30.9841 18.1571 30.5923 17.7654 30.1091 17.7654C29.6258 17.7654 29.2341 18.1571 29.2341 18.6404V20.916H22.9816V18.6404C22.9816 18.1571 22.5898 17.7654 22.1066 17.7654C21.6233 17.7654 21.2316 18.1571 21.2316 18.6404V20.916H20.1439L20.1442 17.8329H20.1445ZM34.2031 35.9157H3.82948V26.0857H34.2031V35.9157ZM36.0161 24.3357H2.01612V22.6661H36.0161V24.3357Z"
                                    fill="black" />
                                <path
                                    d="M4.1995 11.7389H8.12693L13.2996 16.2487C13.462 16.3904 13.6674 16.4641 13.875 16.4641C13.9975 16.4641 14.1211 16.4381 14.2369 16.3857C14.5491 16.2439 14.7497 15.9326 14.7497 15.5891V11.739H15.6331C16.803 11.739 17.7547 10.787 17.7547 9.61705L17.755 2.44419C17.755 1.27426 16.803 0.322545 15.6333 0.322545L4.19977 0.322266C3.02984 0.322266 2.07812 1.27427 2.07812 2.44391V9.61677C2.07812 10.787 3.03012 11.739 4.19977 11.739L4.1995 11.7389ZM3.82785 2.44462C3.82785 2.23954 3.9947 2.07297 4.1995 2.07297H15.6331C15.8382 2.07297 16.0047 2.23982 16.0047 2.44462V9.61748C16.0047 9.82256 15.8379 9.98941 15.6331 9.98941H13.8747C13.3915 9.98941 12.9997 10.3812 12.9997 10.8644V13.6661L9.02986 10.2051C8.87054 10.0662 8.6663 9.98973 8.4548 9.98973L4.19923 9.98945C3.99415 9.98945 3.82758 9.8226 3.82758 9.61752L3.82785 2.44462Z"
                                    fill="black" />
                                <path
                                    d="M8.95892 8.34094C9.07471 8.44781 9.22594 8.5064 9.38247 8.5064C9.39893 8.5064 9.41567 8.50584 9.43213 8.50444C9.60568 8.49049 9.76556 8.40484 9.87354 8.26784L12.7868 4.56641C13.0002 4.2952 12.9533 3.90207 12.6821 3.68862C12.4109 3.47518 12.0178 3.52177 11.8043 3.79325L9.30906 6.96375L7.96277 5.72268C7.70914 5.48831 7.31321 5.50504 7.0797 5.75867C6.84533 6.0123 6.86178 6.40795 7.11569 6.64175L8.95892 8.34094Z"
                                    fill="black" />
                                <path
                                    d="M26.0971 12.4261C28.4294 12.4261 30.3268 10.5285 30.3268 8.19644C30.3268 5.86415 28.4292 3.9668 26.0971 3.9668C23.7645 3.9668 21.8672 5.86437 21.8672 8.19644C21.8669 10.5287 23.7645 12.4261 26.0971 12.4261ZM26.0971 5.71651C27.4646 5.71651 28.5768 6.82894 28.5768 8.19615C28.5768 9.56365 27.4646 10.6758 26.0971 10.6758C24.7296 10.6758 23.6172 9.56337 23.6172 8.19615C23.6169 6.82894 24.7296 5.71651 26.0971 5.71651Z"
                                    fill="black" />
                            </svg>