<svg width="38" height="38" viewBox="0 0 22 30" fill="none" xmlns="http://www.w3.org/2000/svg">
<path d="M18.7657 29.7849H1.64066C0.703161 29.7849 0.359375 29.0192 0.359375 28.5036V8.56644C0.359375 7.62894 1.12502 7.28516 1.64066 7.28516H18.7657C19.7032 7.28516 20.047 8.0508 20.047 8.56644V28.5036C20.047 29.4411 19.2813 29.7849 18.7657 29.7849ZM1.37495 28.4958C1.38276 28.7692 1.55463 28.7692 1.64058 28.7692H18.7656C19.039 28.7614 19.039 28.5896 19.039 28.5036V8.56646C19.0312 8.29303 18.8593 8.29303 18.7734 8.29303H1.64838C1.37495 8.30084 1.37495 8.47271 1.37495 8.55866V28.4958Z" fill="black"/>
<path d="M21.1406 28.7149C20.8594 28.7149 20.6328 28.4883 20.6328 28.2071V27.7461C20.6328 27.4649 20.8594 27.2383 21.1406 27.2383C21.4219 27.2383 21.6484 27.4649 21.6484 27.7461V28.2071C21.6484 28.4883 21.4219 28.7149 21.1406 28.7149ZM21.1406 26.5821C20.8594 26.5821 20.6328 26.3555 20.6328 26.0743V18.4729C20.6328 18.1916 20.8594 17.965 21.1406 17.965C21.4219 17.965 21.6484 18.1916 21.6484 18.4729V26.0743C21.6484 26.3555 21.4219 26.5821 21.1406 26.5821ZM21.1406 17.1914C20.8594 17.1914 20.6328 16.9648 20.6328 16.6836V14.4883C20.6328 14.207 20.8594 13.9805 21.1406 13.9805C21.4219 13.9805 21.6484 14.207 21.6484 14.4883V16.6836C21.6484 16.9648 21.4219 17.1914 21.1406 17.1914Z" fill="black"/>
<path d="M16.2735 15.3476H4.14061C3.37496 15.3476 3.09375 14.7226 3.09375 14.3008V10.9961C3.09375 10.2304 3.71875 9.94922 4.14061 9.94922H16.2656C17.0313 9.94922 17.3125 10.5742 17.3125 10.9961V14.3008C17.3125 15.0664 16.6875 15.3476 16.2734 15.3476H16.2735ZM3.64846 14.3008C3.64846 14.418 3.69534 14.8008 4.14846 14.8008H16.2735C16.3907 14.8008 16.7735 14.7539 16.7735 14.3008V10.9961C16.7735 10.8789 16.7266 10.4961 16.2735 10.4961H4.14061C4.02342 10.4961 3.64061 10.543 3.64061 10.9961V14.3008H3.64846Z" fill="black"/>
<path d="M3.09375 19.5976C3.09375 19.5976 3.09375 20.043 3.53906 20.043H6.28907C6.28907 20.043 6.73438 20.043 6.73438 19.5976V18.1992C6.73438 18.1992 6.73438 17.7539 6.28907 17.7539H3.53906C3.53906 17.7539 3.09375 17.7539 3.09375 18.1992V19.5976Z" fill="black"/>
<path d="M3.09375 22.7539C3.09375 22.7539 3.09375 23.1992 3.53906 23.1992H6.28907C6.28907 23.1992 6.73438 23.1992 6.73438 22.7539V21.3555C6.73438 21.3555 6.73438 20.9102 6.28907 20.9102H3.53906C3.53906 20.9102 3.09375 20.9102 3.09375 21.3555V22.7539Z" fill="black"/>
<path d="M3.09375 25.8984C3.09375 25.8984 3.09375 26.3437 3.53906 26.3437H6.28907C6.28907 26.3437 6.73438 26.3437 6.73438 25.8984V24.5C6.73438 24.5 6.73438 24.0547 6.28907 24.0547H3.53906C3.53906 24.0547 3.09375 24.0547 3.09375 24.5V25.8984Z" fill="black"/>
<path d="M8.38281 19.5976C8.38281 19.5976 8.38281 20.043 8.82812 20.043H11.5781C11.5781 20.043 12.0234 20.043 12.0234 19.5976V18.1992C12.0234 18.1992 12.0234 17.7539 11.5781 17.7539H8.82812C8.82812 17.7539 8.38281 17.7539 8.38281 18.1992V19.5976Z" fill="black"/>
<path d="M11.5781 20.082H8.82812C8.35156 20.082 8.34375 19.6055 8.34375 19.5976V18.1992C8.34375 17.7227 8.82031 17.7148 8.82812 17.7148H11.5781C12.0547 17.7148 12.0625 18.1914 12.0625 18.1992V19.5976C12.0625 20.0742 11.5859 20.082 11.5781 20.082ZM8.42184 19.5976C8.42184 19.6133 8.42965 20.0039 8.82809 20.0039H11.5781C11.5937 20.0039 11.9843 19.9961 11.9843 19.5976V18.1992C11.9843 18.1836 11.9765 17.793 11.5781 17.793H8.82809C8.81246 17.793 8.42184 17.8008 8.42184 18.1992V19.5976Z" fill="black"/>
<path d="M8.38281 22.7539C8.38281 22.7539 8.38281 23.1992 8.82812 23.1992H11.5781C11.5781 23.1992 12.0234 23.1992 12.0234 22.7539V21.3555C12.0234 21.3555 12.0234 20.9102 11.5781 20.9102H8.82812C8.82812 20.9102 8.38281 20.9102 8.38281 21.3555V22.7539Z" fill="black"/>
<path d="M8.38281 25.8984C8.38281 25.8984 8.38281 26.3437 8.82812 26.3437H11.5781C11.5781 26.3437 12.0234 26.3437 12.0234 25.8984V24.5C12.0234 24.5 12.0234 24.0547 11.5781 24.0547H8.82812C8.82812 24.0547 8.38281 24.0547 8.38281 24.5V25.8984Z" fill="black"/>
<path d="M13.6797 19.5976C13.6797 19.5976 13.6797 20.043 14.125 20.043H16.875C16.875 20.043 17.3203 20.043 17.3203 19.5976V18.1992C17.3203 18.1992 17.3203 17.7539 16.875 17.7539H14.125C14.125 17.7539 13.6797 17.7539 13.6797 18.1992V19.5976Z" fill="black"/>
<path d="M13.6797 25.9023C13.6797 25.9023 13.6797 26.3476 14.125 26.3476H16.875C16.875 26.3476 17.3203 26.3476 17.3203 25.9023V21.332C17.3203 21.332 17.3203 20.8867 16.875 20.8867H14.125C14.125 20.8867 13.6797 20.8867 13.6797 21.332V25.9023Z" fill="black"/>
<mask id="mask0_4046_22831" style="mask-type:luminance" maskUnits="userSpaceOnUse" x="2" y="0" width="16" height="8">
<path d="M2.99219 0.179688H17.4208V7.7054H2.99219V0.179688Z" fill="white"/>
</mask>
<g mask="url(#mask0_4046_22831)">
<path d="M17.1097 26.7693H3.29687C3.14844 26.7693 3.02344 26.6443 3.02344 26.4959V1.41015C3.02344 1.34765 3.04687 1.27734 3.09375 1.23047L3.14844 1.16797L4.02344 0.292966C4.13281 0.183595 4.30469 0.183595 4.40625 0.292966L5.07031 0.95703L5.73438 0.292966C5.78907 0.238279 5.85157 0.214837 5.92969 0.214837C6.00001 0.214837 6.07032 0.246088 6.12501 0.292966L6.78907 0.95703L7.45314 0.292966C7.56251 0.183595 7.73439 0.183595 7.84376 0.292966L8.50783 0.95703L9.17189 0.292966C9.28127 0.183595 9.45315 0.183595 9.56252 0.292966L10.2266 0.95703L10.9063 0.292966C11.0078 0.191402 11.1875 0.191402 11.2891 0.292966L11.9532 0.95703L12.625 0.292966C12.6797 0.238279 12.7422 0.214837 12.8203 0.214837C12.8906 0.214837 12.961 0.246088 13.0157 0.292966L13.6797 0.95703L14.3438 0.292966C14.3985 0.238279 14.461 0.214837 14.5391 0.214837C14.6094 0.214837 14.6797 0.246088 14.7344 0.292966L15.3985 0.95703L16.0625 0.292966C16.1719 0.183595 16.3438 0.183595 16.4454 0.292966L17.2969 1.14454C17.3516 1.19922 17.3751 1.26172 17.3751 1.33985V26.512C17.3829 26.6526 17.2657 26.7698 17.1094 26.7698L17.1097 26.7693ZM3.57044 26.2224H16.844V1.441L16.2659 0.862873L15.6018 1.52694C15.5471 1.58162 15.4846 1.60507 15.4065 1.60507C15.3362 1.60507 15.2659 1.57382 15.2112 1.52694L14.5471 0.862873L13.8831 1.52694C13.8284 1.58162 13.7659 1.60507 13.6877 1.60507C13.6174 1.60507 13.5471 1.57382 13.4924 1.52694L12.8284 0.862873L12.1643 1.52694C12.1096 1.58162 12.0471 1.60507 11.969 1.60507C11.8987 1.60507 11.8284 1.57382 11.7737 1.52694L11.1096 0.862873L10.4456 1.52694C10.3362 1.63631 10.1643 1.63631 10.0549 1.52694L9.39086 0.862873L8.72679 1.52694C8.61742 1.63631 8.44554 1.63631 8.33617 1.52694L7.6721 0.862873L7.00804 1.52694C6.95335 1.58162 6.89085 1.60507 6.81272 1.60507C6.74241 1.60507 6.67209 1.57382 6.61741 1.52694L5.95335 0.862873L5.28928 1.52694C5.17991 1.63631 5.00803 1.63631 4.89865 1.52694L4.23459 0.862873L3.59396 1.5035V26.2221L3.57044 26.2224Z" fill="black"/>
</g>
</svg>