<svg width="38" height="38" viewBox="0 0 36 36" fill="none" xmlns="http://www.w3.org/2000/svg">
                                <path d="M34.7091 24.0922C34.233 23.4518 33.5773 23.0473 32.8279 22.9114C32.9099 21.8969 32.4111 20.8997 31.42 20.2518C30.3876 19.5758 28.9471 19.4245 27.7888 20.1918C27.4309 19.645 26.9496 19.1851 26.3533 18.8303C24.7305 17.8623 22.4623 17.8955 20.8376 18.9087C19.7271 19.6015 19.0335 20.6667 18.8468 21.9215C17.603 21.6983 16.4573 22.0276 15.6036 22.8791C14.3996 24.08 13.9788 26.1626 14.6248 27.7242C15.1231 28.9302 16.1644 29.6218 17.4803 29.6218H31.8603C33.3126 29.6218 34.4736 28.9689 35.0456 27.8311C35.6348 26.6572 35.4995 25.155 34.7091 24.0922ZM33.6156 27.1125C33.3167 27.7068 32.7096 28.0213 31.86 28.0213H17.48C16.8156 28.0213 16.3528 27.7152 16.1033 27.1125C15.7041 26.1474 15.987 24.7562 16.7334 24.0118C17.1073 23.6385 17.5712 23.4515 18.1062 23.4515C18.4742 23.4515 18.8754 23.5403 19.3034 23.7188C19.5601 23.8252 19.8559 23.7911 20.0814 23.6273C20.3071 23.463 20.431 23.1929 20.4078 22.915C20.2878 21.4591 21.0359 20.6714 21.6843 20.2666C22.8035 19.5685 24.4226 19.5425 25.5342 20.2049C26.2306 20.6201 27.0386 21.4792 26.931 23.2153C26.9039 23.6564 27.2393 24.0356 27.6801 24.0629C28.1184 24.0944 28.5004 23.7549 28.5277 23.3138C28.5626 22.7535 28.5252 22.2233 28.42 21.7318C29.1497 21.0125 30.0777 21.2865 30.5436 21.5909C30.7253 21.71 31.6053 22.352 31.0623 23.3094C30.9091 23.5789 30.9256 23.9126 31.1044 24.1656C31.2825 24.4182 31.588 24.5457 31.8966 24.4921C32.7122 24.349 33.177 24.7156 33.4245 25.0482C33.85 25.6182 33.9301 26.4865 33.6156 27.1126L33.6156 27.1125ZM25.0213 29.7325C24.9457 29.6382 24.7852 29.6382 24.7096 29.7325L23.2437 31.5573C23.1954 31.6173 23.1856 31.6996 23.2188 31.7688C23.2521 31.8383 23.3224 31.8824 23.3994 31.8824H24.237V34.3199L5.76415 34.3202V28.6073C7.87044 28.3138 9.49908 26.5051 9.49908 24.3194C9.49908 22.0096 7.68101 20.1213 5.40144 19.9971L6.78623 18.2739C6.8345 18.2139 6.84426 18.1316 6.81106 18.0624C6.77786 17.9929 6.70755 17.9488 6.63054 17.9488H5.76447L5.76475 11.9432H18.1469C19.5992 11.9432 20.7602 11.2903 21.3322 10.1525C21.9217 8.97896 21.7867 7.47703 20.9957 6.41367C20.5197 5.77333 19.864 5.36874 19.1145 5.23288C19.1966 4.21838 18.6977 3.22117 17.7066 2.57331C16.6737 1.89726 15.2337 1.74603 14.0755 2.51332C13.7175 1.96645 13.2362 1.50661 12.6399 1.15175C11.0168 0.183825 8.74868 0.216468 7.12397 1.23016C6.01347 1.92296 5.31982 2.98823 5.13318 4.24302C3.88932 4.0198 2.74368 4.34905 1.8899 5.20059C0.685967 6.40145 0.265181 8.48409 0.91111 10.0457C1.40944 11.2517 2.45075 11.9433 3.76661 11.9433H4.56461V17.9486H3.69911C3.62238 17.9486 3.55179 17.9927 3.51859 18.0621C3.48539 18.1313 3.49459 18.2137 3.54342 18.2736L4.93014 19.9999C3.57742 20.0719 2.35814 20.7572 1.59278 21.878L1.18625 21.6403C1.12514 21.604 1.04786 21.6043 0.985914 21.6394C0.923414 21.6754 0.885185 21.7418 0.885471 21.8138L0.891889 23.931C0.892168 24.0019 0.927603 24.0714 0.991217 24.1029C1.07883 24.1462 1.15919 24.1216 1.1896 24.1049L3.03752 23.0719C3.10002 23.0368 3.13909 22.9712 3.13992 22.8992C3.14076 22.8272 3.10281 22.7608 3.0406 22.7246L2.63072 22.4849C3.22 21.6696 4.148 21.1849 5.165 21.1849C6.8935 21.1849 8.29979 22.5914 8.29979 24.3194C8.29979 26.0474 6.89329 27.4539 5.165 27.4539C3.69293 27.4539 2.4365 26.4537 2.10893 25.0212L0.939288 25.2885C1.34637 27.0717 2.79557 28.3672 4.56457 28.6096V34.9205C4.56457 35.2517 4.83327 35.5204 5.16446 35.5204H24.8373C25.1685 35.5204 25.4372 35.2517 25.4372 34.9205V31.8828H26.3317C26.4084 31.8828 26.479 31.8387 26.5122 31.7693C26.5454 31.7001 26.5362 31.6178 26.4874 31.5578L25.0213 29.7325ZM2.38913 9.43396C1.98986 8.46882 2.27278 7.07768 3.01915 6.33325C3.39304 5.95992 3.85701 5.77298 4.39194 5.77298C4.75996 5.77298 5.16122 5.86171 5.58922 6.04028C5.84648 6.14658 6.14168 6.11254 6.36715 5.94876C6.59288 5.78442 6.71676 5.51433 6.6936 5.23643C6.57362 3.7805 7.32167 2.99286 7.9701 2.588C9.08924 1.8899 10.7084 1.86393 11.82 2.52634C12.5164 2.94151 13.3244 3.80062 13.2167 5.53669C13.1897 5.97782 13.5251 6.35698 13.9659 6.38434C14.4059 6.41838 14.7867 6.0763 14.8135 5.63519C14.8484 5.07492 14.811 4.54476 14.7058 4.05319C15.4355 3.33391 16.3635 3.60788 16.8294 3.91229C17.011 4.03143 17.891 4.67343 17.3481 5.63079C17.1949 5.90031 17.2114 6.23402 17.3902 6.48707C17.5682 6.73959 17.8743 6.86737 18.1824 6.81352C18.9979 6.67122 19.4628 7.03701 19.7103 7.36961C20.135 7.94076 20.215 8.80932 19.9006 9.43489C19.6018 10.0292 18.9946 10.3437 18.145 10.3437H3.76502C3.10151 10.3434 2.63859 10.0373 2.38916 9.43411L2.38913 9.43396ZM1.28977 23.5897L1.28587 22.162L2.53615 22.8932L1.28977 23.5897ZM6.21277 18.3477L5.16392 19.653L4.11563 18.3477H6.21277ZM23.8163 31.482L24.8652 30.1765L25.9141 31.482H23.8163ZM5.3642 22.5435V24.1188H7.42949C7.53998 24.1188 7.62955 24.2084 7.62955 24.3189C7.62955 24.4294 7.53998 24.5189 7.42949 24.5189H4.96434V22.5438C4.96434 22.4333 5.05391 22.3437 5.1644 22.3437C5.27434 22.3437 5.3642 22.4327 5.3642 22.5435Z" fill="black"></path>
                            </svg>