<svg width="38" height="38" viewBox="0 0 24 28" fill="none" xmlns="http://www.w3.org/2000/svg">
<path d="M4.65613 0.570312H0.65625V4.57021H16.6555V0.570312H4.65613Z" stroke="black" stroke-width="0.755893" stroke-linecap="round" stroke-linejoin="round"/>
<path d="M4.65613 6.17969H0.65625V10.1795H16.6555V6.17969H4.65613Z" stroke="black" stroke-width="0.755893" stroke-linecap="round" stroke-linejoin="round"/>
<path d="M2.65625 6.17808V4.57812" stroke="black" stroke-width="0.755893"/>
<path d="M14.6562 4.57812V6.17803" stroke="black" stroke-width="0.755893"/>
<path d="M2.65625 11.7718V10.1719" stroke="black" stroke-width="0.755893"/>
<path d="M14.6562 10.1719V11.7718" stroke="black" stroke-width="0.755893"/>
<path d="M2.65625 17.3812V15.7812" stroke="black" stroke-width="0.755893"/>
<path d="M16.6555 12.1814V11.7812H0.65625V15.7812H8.65617" stroke="black" stroke-width="0.755893" stroke-linecap="square" stroke-linejoin="round"/>
<path d="M8.256 17.3828H0.65625V20.9827H8.256" stroke="black" stroke-width="0.755893" stroke-linejoin="round"/>
<path d="M21.285 19.8654C21.6215 22.6062 19.6723 25.1009 16.9314 25.4375C14.1904 25.774 11.6957 23.8249 11.3593 21.0838C11.0228 18.343 12.9719 15.8481 15.7127 15.5118C18.4538 15.1753 20.9485 17.1243 21.285 19.8654Z" stroke="black" stroke-opacity="0.959" stroke-width="1.51184"/>
<path d="M14.6719 15.2203L14.8739 13.5837L16.065 13.4375L16.657 14.9768L14.6719 15.2203Z" fill="black" stroke="black" stroke-width="0.399988" stroke-linecap="round" stroke-linejoin="round"/>
<path d="M15.9922 25.9389L16.5842 27.4782L17.7754 27.332L17.9774 25.6953L15.9922 25.9389Z" fill="black" stroke="black" stroke-width="0.399988" stroke-linecap="round" stroke-linejoin="round"/>
<path d="M21.8061 20.7976L23.3454 20.2056L23.1992 19.0145L21.5625 18.8125L21.8061 20.7976Z" fill="black" stroke="black" stroke-width="0.399988" stroke-linecap="round" stroke-linejoin="round"/>
<path d="M11.0797 22.114L9.44308 21.9121L9.29688 20.721L10.8362 20.1289L11.0797 22.114Z" fill="black" stroke="black" stroke-width="0.399988" stroke-linecap="round" stroke-linejoin="round"/>
<path d="M11.202 18.2731L10.1875 16.9729L10.9263 16.0273L12.4333 16.6972L11.202 18.2731Z" fill="black" stroke="black" stroke-width="0.399988" stroke-linecap="round" stroke-linejoin="round"/>
<path d="M12.584 24.4883L11.9141 25.9952L12.8596 26.734L14.1598 25.7196L12.584 24.4883Z" fill="black" stroke="black" stroke-width="0.399988" stroke-linecap="round" stroke-linejoin="round"/>
<path d="M21.2703 23.004L22.2848 24.3041L21.546 25.2497L20.0391 24.5798L21.2703 23.004Z" fill="black" stroke="black" stroke-width="0.399988" stroke-linecap="round" stroke-linejoin="round"/>
<path d="M20.4509 16.7458L21.1208 15.2388L20.1752 14.5L18.875 15.5145L20.4509 16.7458Z" fill="black" stroke="black" stroke-width="0.399988" stroke-linecap="round" stroke-linejoin="round"/>
</svg>