<svg width="40" height="40" viewBox="0 0 22 36" fill="none" xmlns="http://www.w3.org/2000/svg">
                                <path d="M3.82507 0.822266C2.05914 0.822266 0.625 2.25641 0.625 4.02234V32.0223C0.625 33.7883 2.05914 35.2224 3.82507 35.2224H15.8251C15.9322 35.2238 16.0355 35.1825 16.1116 35.1072C16.1878 35.0321 16.2308 34.9294 16.2308 34.8223C16.2308 34.7152 16.1878 34.6128 16.1116 34.5374C16.0355 34.4624 15.9322 34.4208 15.8251 34.4225H3.82507C2.48857 34.4225 1.42521 33.3588 1.42521 32.0223V28.8222H20.6252V32.0223C20.6252 33.3588 19.5619 34.4225 18.2254 34.4225C18.1182 34.4208 18.015 34.4624 17.9388 34.5374C17.8626 34.6128 17.8197 34.7152 17.8197 34.8223C17.8197 34.9294 17.8626 35.0321 17.9388 35.1072C18.015 35.1825 18.1182 35.2238 18.2254 35.2224C19.9913 35.2224 21.4254 33.7883 21.4254 32.0223V4.02234C21.4254 2.25641 19.9913 0.822266 18.2254 0.822266H3.82507ZM3.82507 1.62219H18.2251C19.5616 1.62219 20.6249 2.68584 20.6249 4.02234V4.82227H1.42493V4.02234C1.42493 2.68584 2.48829 1.62219 3.82479 1.62219H3.82507ZM1.42521 5.62219H20.6252V28.0222H1.42521V5.62219ZM10.9752 10.0223C10.9214 10.0329 10.8703 10.0541 10.8251 10.0848L5.22524 13.2849C5.10331 13.3549 5.02742 13.483 5.02518 13.6222V20.0224C5.02742 20.1619 5.10331 20.29 5.22524 20.36L10.8251 23.5598C10.949 23.6301 11.1013 23.6301 11.2252 23.5598L16.8251 20.36C16.947 20.29 17.0229 20.1619 17.0251 20.0224V13.6222C17.0229 13.483 16.947 13.3549 16.8251 13.2849L11.2252 10.0848C11.1725 10.0508 11.1125 10.0293 11.0503 10.0223C11.0252 10.0201 11 10.0201 10.9752 10.0223ZM11.0252 10.8848L15.8251 13.6222L11.0252 16.3599L6.22523 13.6222L11.0252 10.8848ZM5.83766 14.3097L10.625 17.0474V22.5348L5.83766 19.7974V14.3097ZM16.2127 14.3097V19.7974L11.4253 22.5348V17.0474L16.2127 14.3097ZM11.0252 30.8226C10.5832 30.8226 10.2252 31.1808 10.2252 31.6225C10.2252 32.0644 10.5832 32.4227 11.0252 32.4227C11.4671 32.4227 11.8251 32.0644 11.8251 31.6225C11.8251 31.1808 11.4671 30.8226 11.0252 30.8226Z" fill="black"></path>
                            </svg>