<svg width="38" height="38" viewBox="0 0 50 50" fill="none" xmlns="http://www.w3.org/2000/svg">
<path d="M25.5506 18.4137C25.9607 18.4137 26.5114 18.1441 26.5114 17.7809C26.5082 17.741 26.5003 17.7017 26.488 17.6637L24.2264 10.2929C24.1209 9.94131 23.6873 9.77734 23.2421 9.77734C22.8085 9.77734 22.3749 9.94131 22.2694 10.2929L20.0078 17.6637C19.9965 17.702 19.9887 17.7412 19.9844 17.7809C19.9844 18.1558 20.5351 18.4137 20.9452 18.4137C21.203 18.4137 21.4022 18.3091 21.4608 18.0863L21.9062 16.5053H24.5897L25.035 18.0863C25.0935 18.3091 25.2929 18.4137 25.5506 18.4137ZM22.2226 15.3334L23.2421 11.7359L24.2615 15.3334H22.2226ZM29.2479 18.4137C29.6229 18.4137 29.9804 18.2495 29.9804 17.9332V10.316C29.9804 9.98799 29.6229 9.84727 29.2479 9.84727C28.8612 9.84727 28.5155 9.98799 28.5155 10.316V17.9332C28.5155 18.2495 28.8612 18.4137 29.2479 18.4137Z" fill="black"/>
<path d="M45.2536 37.7923H41.6959V31.4034C41.6959 30.9719 41.3053 30.6634 40.8739 30.6634H25.7779V24.6359C28.4482 24.4338 30.9362 23.2048 32.7195 21.2071C34.5029 19.2093 35.4426 16.5983 35.3415 13.9223C35.2404 11.2463 34.1062 8.71359 32.1773 6.85612C30.2483 4.99865 27.6746 3.96094 24.9967 3.96094C22.3188 3.96094 19.745 4.99865 17.816 6.85612C15.8871 8.71359 14.7529 11.2463 14.6518 13.9223C14.5507 16.5983 15.4905 19.2093 17.2738 21.2071C19.0571 23.2048 21.5451 24.4338 24.2154 24.6359V30.6634H9.11941C8.68806 30.6634 8.29744 30.9719 8.29744 31.4034V37.7923H4.73972C4.30818 37.7923 4.00056 38.1604 4.00056 38.5919V45.2567C3.99665 45.3548 4.0131 45.4526 4.04887 45.5441C4.08464 45.6355 4.13896 45.7185 4.20839 45.7879C4.27783 45.8573 4.36089 45.9116 4.45234 45.9473C4.54378 45.983 4.64163 45.9994 4.73972 45.9954H13.3088C13.4074 45.9996 13.5059 45.9834 13.5981 45.9479C13.6902 45.9124 13.7741 45.8584 13.8445 45.7891C13.9149 45.7198 13.9702 45.6368 14.0072 45.5452C14.0441 45.4536 14.0618 45.3554 14.0592 45.2567V38.5919C14.0629 38.49 14.0464 38.3883 14.0107 38.2928C13.9749 38.1973 13.9205 38.1099 13.8508 38.0355C13.781 37.9612 13.6971 37.9014 13.6041 37.8596C13.5111 37.8179 13.4107 37.795 13.3088 37.7923H9.85994V32.2259H24.2154V37.7923H20.7121C20.5017 37.7959 20.3011 37.8815 20.1529 38.0309C20.0047 38.1802 19.9206 38.3815 19.9185 38.5919V45.2567C19.9185 45.6882 20.2806 45.9954 20.7121 45.9954H29.2812C29.7127 45.9954 30.0748 45.6882 30.0748 45.2567V38.5919C30.0727 38.3815 29.9886 38.1802 29.8404 38.0309C29.6922 37.8815 29.4916 37.7959 29.2812 37.7923H25.7779V32.2259H40.1334V37.7923H36.6845C36.5826 37.795 36.4822 37.8179 36.3892 37.8596C36.2962 37.9014 36.2123 37.9612 36.1426 38.0355C36.0728 38.1099 36.0184 38.1973 35.9827 38.2928C35.9469 38.3883 35.9304 38.49 35.9342 38.5919V45.2567C35.9315 45.3554 35.9492 45.4536 35.9862 45.5452C36.0231 45.6368 36.0785 45.7198 36.1488 45.7891C36.2192 45.8584 36.3031 45.9124 36.3953 45.9479C36.4874 45.9834 36.5859 45.9996 36.6845 45.9954H45.2536C45.3517 45.9994 45.4495 45.983 45.541 45.9473C45.6324 45.9116 45.7155 45.8573 45.7849 45.7879C45.8544 45.7185 45.9087 45.6355 45.9444 45.5441C45.9802 45.4526 45.9967 45.3548 45.9928 45.2567V38.5919C45.9928 38.1604 45.6851 37.7923 45.2536 37.7923ZM16.2069 14.3129C16.2069 12.5744 16.7225 10.875 17.6883 9.42957C18.6541 7.98411 20.0269 6.85752 21.633 6.19226C23.2392 5.527 25.0065 5.35295 26.7115 5.69212C28.4166 6.03128 29.9827 6.86843 31.212 8.0977C32.4412 9.32698 33.2784 10.8932 33.6175 12.5982C33.9567 14.3032 33.7826 16.0706 33.1173 17.6767C32.452 19.2828 31.3254 20.6555 29.88 21.6214C28.4345 22.5872 26.7351 23.1027 24.9967 23.1027C22.6663 23.1001 20.4321 22.1731 18.7842 20.5253C17.1364 18.8775 16.2095 16.6433 16.2069 14.3129ZM12.4967 44.4329H5.56306V39.3548H12.4967V44.4329ZM28.5123 44.4329H21.481V39.3548H28.5123V44.4329ZM44.4303 44.4329H37.4967V39.3548H44.4303V44.4329Z" fill="black"/>
</svg>