<svg width="38" height="38" viewBox="0 0 50 54" fill="none" xmlns="http://www.w3.org/2000/svg">
<g clip-path="url(#clip0_3620_16374)">
<g clip-path="url(#clip1_3620_16374)">
<path d="M7.49813 44.0002H14.4283C15.4191 43.9784 15.4114 42.5186 14.4283 42.5002H7.49813C5.84342 42.5002 4.49813 41.1542 4.49813 39.5002V21.5002C4.49813 19.8461 5.84342 18.5002 7.49813 18.5002H38.9981C40.6528 18.5002 41.9981 19.8461 41.9981 21.5002V29.63C42.0065 30.612 43.4864 30.6164 43.4981 29.63V15.5C43.4981 13.0187 41.4795 11 38.9981 11H16.4227C16.0742 9.29043 14.5594 8 12.748 8H6.74805C4.68053 8 2.99805 9.68249 2.99805 11.75V39.5C2.99805 41.9813 5.0167 44 7.49805 44L7.49813 44.0002ZM22.5401 17.0002H7.69956C7.95871 16.5522 8.44387 16.2502 8.99796 16.2502H22.7165C22.6291 16.4889 22.5723 16.74 22.5401 17.0002ZM24.0438 17.0002C24.235 16.143 25.0011 15.5002 25.9151 15.5002H37.0803C37.9943 15.5002 38.7604 16.143 38.9516 17.0002H24.0438ZM4.49753 11.7502C4.49753 10.5093 5.50665 9.50017 6.74753 9.50017H12.7475C13.9884 9.50017 14.9975 10.5093 14.9975 11.7502C14.9975 12.1643 15.333 12.5002 15.7475 12.5002H38.9975C40.6522 12.5002 41.9975 13.8461 41.9975 15.5002V18.1556C41.5603 17.7629 41.047 17.4552 40.4812 17.257C40.3948 15.4486 38.9092 14.0005 37.08 14.0005H25.9149C25.0902 14.0005 24.3432 14.3059 23.7523 14.794C23.5899 14.7652 23.4215 14.7505 23.2474 14.7505L8.9974 14.7502C7.51617 14.7502 6.29071 15.8313 6.04865 17.2439C5.46908 17.4418 4.94371 17.7549 4.4974 18.1557L4.49753 11.7502Z" fill="black"/>
<path d="M11.2485 35.0008H26.6883L25.7187 35.9704C25.0269 36.6662 26.0839 37.7219 26.779 37.0308L29.029 34.7808C29.5011 34.3382 29.1482 33.4787 28.4987 33.5004L11.2487 33.5007C10.27 33.5155 10.257 34.9833 11.2487 35.0007L11.2485 35.0008Z" fill="black"/>
<path d="M14.0295 28.4697C13.7365 28.1768 13.2617 28.1768 12.9691 28.4697L10.7191 30.7197C10.247 31.1624 10.5996 32.0218 11.2495 32.0001H28.4995C29.4785 31.9854 29.4908 30.5175 28.4995 30.5001H13.0598L14.0294 29.5305C14.3223 29.2376 14.3223 28.7628 14.0294 28.4702L14.0295 28.4697Z" fill="black"/>
<path d="M31.6041 28.4697C29.0675 23.134 21.2532 23.2274 18.9081 28.7037C18.5344 29.6201 19.8741 30.195 20.2836 29.3004C22.2754 24.641 29.1344 25.0692 30.5616 29.9205C30.7012 30.4485 31.4207 30.6366 31.8024 30.2462C35.0971 26.9717 40.9404 29.2964 41.069 33.9544C41.0858 34.3555 41.4323 34.6719 41.8337 34.6719C47.9995 34.8862 48.0129 43.7825 41.8337 44.0019H20.7069C17.1327 44.0498 15.2094 39.5582 17.734 37.0252C18.0226 36.7286 18.0166 36.2538 17.7192 35.9648C16.3146 34.8342 14.9158 38.8236 15.0818 39.8769C15.0818 42.9788 17.6051 45.5019 20.7068 45.5019H41.8345C49.5957 45.2505 50.1709 34.2931 42.5069 33.2096C41.8941 28.1532 35.7545 25.4595 31.6049 28.4696L31.6041 28.4697Z" fill="black"/>
</g>
</g>
<defs>
<clipPath id="clip0_3620_16374">
<rect width="50" height="53.6842" fill="white"/>
</clipPath>
<clipPath id="clip1_3620_16374">
<rect width="50" height="53.6842" fill="white"/>
</clipPath>
</defs>
</svg>