<svg width="38" height="38" viewBox="0 0 40 38" fill="none" xmlns="http://www.w3.org/2000/svg">
<path d="M9.97796 3.54967H16.3672C16.618 3.54967 16.8217 3.34598 16.8217 3.09515C16.8217 2.84431 16.618 2.64062 16.3672 2.64062H9.97796C9.72712 2.64062 9.52344 2.84431 9.52344 3.09515C9.52344 3.34626 9.72712 3.54967 9.97796 3.54967Z" fill="black"/>
<path d="M13.1755 33.3672C12.3549 33.3672 11.6875 34.0352 11.6875 34.8558C11.6875 35.6763 12.3549 36.3443 13.1755 36.3443C13.9961 36.3443 14.6641 35.6769 14.6641 34.8558C14.6641 34.0343 13.9969 33.3672 13.1755 33.3672ZM13.1755 35.4344C12.8566 35.4344 12.5968 35.1744 12.5968 34.8549C12.5968 34.5354 12.8569 34.2754 13.1755 34.2754C13.495 34.2754 13.755 34.5354 13.755 34.8549C13.755 35.1744 13.495 35.4344 13.1755 35.4344Z" fill="black"/>
<path d="M17.9287 14.1431L16.7446 14.9481C16.2251 14.6643 15.7011 14.45 15.1804 14.3069L14.9296 12.9057C14.8908 12.6886 14.7022 12.5312 14.4823 12.5312H11.8825C11.6626 12.5312 11.474 12.6889 11.4352 12.9057L11.1844 14.305C10.659 14.4473 10.1305 14.6627 9.60796 14.9473L8.42382 14.1423C8.24273 14.0192 8.00138 14.0424 7.84681 14.1967L6.01031 16.0332C5.85462 16.1889 5.83285 16.4339 5.95814 16.6138L6.77399 17.7865C6.47935 18.3089 6.26255 18.8309 6.1183 19.3678L4.72266 19.603C4.50446 19.6398 4.34375 19.8295 4.34375 20.0513V22.6696C4.34375 22.8909 4.50307 23.0801 4.72126 23.1175L6.11884 23.3574C6.26421 23.8937 6.48435 24.4221 6.77397 24.935L5.95811 26.1133C5.83339 26.2932 5.8546 26.5368 6.0089 26.692L7.8454 28.5405C8.00053 28.6967 8.24607 28.7187 8.42659 28.5937L9.61016 27.7742C10.1319 28.0586 10.6593 28.2731 11.1847 28.4149L11.4355 29.815C11.4743 30.0321 11.6629 30.1895 11.8828 30.1895H14.4826C14.7025 30.1895 14.8911 30.0318 14.9299 29.815L15.1807 28.4138C15.7008 28.2715 16.2237 28.0575 16.7426 27.7743L17.9262 28.5938C18.1062 28.7185 18.3498 28.6968 18.5063 28.5416L20.3554 26.6931C20.5111 26.538 20.5328 26.2938 20.4075 26.113L19.5895 24.9305C19.8696 24.4213 20.0847 23.8943 20.2326 23.3572L21.6319 23.1167C21.8501 23.079 22.0094 22.8901 22.0094 22.6688V20.0506C22.0094 19.8287 21.8495 19.6396 21.6305 19.6027L20.2407 19.367C20.0861 18.8251 19.871 18.305 19.5887 17.79L20.4076 16.6136C20.5331 16.4325 20.5111 16.187 20.3543 16.0313L18.5052 14.1948C18.3501 14.0433 18.1096 14.021 17.9288 14.1432L17.9287 14.1431ZM18.6609 17.9997C19.0239 18.6113 19.2767 19.2245 19.4329 19.8749C19.4759 20.0518 19.6202 20.1858 19.799 20.2162L21.0995 20.4369V22.2885L19.7862 22.5145C19.6051 22.5454 19.4608 22.6824 19.4201 22.8618C19.2758 23.4983 19.02 24.1244 18.6614 24.7223C18.5699 24.875 18.5761 25.0678 18.6779 25.2151L19.4441 26.3211L18.1313 27.6333L17.0253 26.8671C16.88 26.7664 16.6872 26.7599 16.5357 26.8495C15.9162 27.2145 15.2943 27.4684 14.6866 27.6034C14.5072 27.6428 14.3696 27.7865 14.3375 27.967L14.1012 29.2834H12.2625L12.0262 27.967C11.9935 27.7859 11.8551 27.6422 11.676 27.6029C11.0613 27.4689 10.4361 27.2156 9.81607 26.8495C9.66457 26.76 9.47232 26.7664 9.3264 26.8671L8.22147 27.6319L6.91954 26.3216L7.68625 25.2145C7.78921 25.066 7.79479 24.8701 7.69909 24.7164C7.32744 24.1176 7.0699 23.4946 6.9318 22.8648C6.89302 22.6843 6.7471 22.5454 6.56517 22.5138L5.25182 22.2878V20.4368L6.56317 20.2161C6.74677 20.1851 6.89297 20.0459 6.93232 19.864C7.06932 19.2317 7.32015 18.6241 7.70017 18.0057C7.7942 17.8517 7.78918 17.6567 7.68622 17.5082L6.92087 16.4084L8.22279 15.1064L9.32937 15.8586C9.47474 15.958 9.66586 15.9636 9.81597 15.8743C10.436 15.5082 11.062 15.2549 11.6759 15.1209C11.8559 15.0816 11.9934 14.9379 12.0261 14.7568L12.2624 13.4404H14.1011L14.3374 14.7568C14.3701 14.9373 14.5071 15.0805 14.6859 15.1204C15.2945 15.2562 15.9169 15.5096 16.5356 15.8743C16.686 15.9633 16.8768 15.958 17.0222 15.8587L18.1302 15.1059L19.4424 16.4094L18.6782 17.5082C18.5766 17.6539 18.5702 17.8461 18.6609 17.9996L18.6609 17.9997Z" fill="black"/>
<path d="M13.1791 17.4531C11.0172 17.4531 9.25781 19.204 9.25781 21.3561C9.25781 23.5179 11.0165 25.2773 13.1791 25.2773C15.3384 25.2773 17.0942 23.5187 17.0942 21.3561C17.0942 19.204 15.3378 17.4531 13.1791 17.4531ZM13.1791 24.3683C11.5184 24.3683 10.1671 23.0173 10.1671 21.3563C10.1671 19.7053 11.5181 18.3624 13.1791 18.3624C14.8367 18.3624 16.1852 19.7053 16.1852 21.3563C16.1852 23.0173 14.8367 24.3683 13.1791 24.3683Z" fill="black"/>
<path d="M29.9453 20.8773L30.178 19.59C30.6556 19.4577 31.13 19.2627 31.5962 19.0068L32.6743 19.7577C32.8549 19.8832 33.0998 19.8612 33.2555 19.706L34.9768 17.9848C35.1325 17.8291 35.1543 17.5841 35.0284 17.4041L34.2781 16.3254C34.5357 15.8569 34.731 15.3771 34.8624 14.8926L36.1437 14.6755C36.3624 14.6387 36.5226 14.4495 36.5226 14.2277V11.7975C36.5226 11.5762 36.3627 11.3865 36.1451 11.3497L34.8742 11.1321C34.7319 10.6413 34.5318 10.1611 34.2785 9.69927L35.0287 8.62055C35.1549 8.43947 35.1331 8.19393 34.976 8.0388L33.2547 6.3298C33.0996 6.17579 32.8577 6.15402 32.6772 6.27763L31.5965 7.01955C31.1219 6.76146 30.6467 6.56503 30.1777 6.43473L29.9456 5.15345C29.9062 4.93721 29.7176 4.78012 29.4983 4.78012H27.0801C26.8602 4.78012 26.6711 4.93832 26.6328 5.1554L26.4054 6.43411C26.1727 6.49773 25.9437 6.5753 25.7163 6.66681V5.58453C25.7163 5.58034 25.7188 5.57727 25.7188 5.57309L25.7185 2.49416C25.7185 1.20623 24.6699 0.160156 23.3829 0.160156H2.96429C1.67886 0.160156 0.625 1.21901 0.625 2.49359V35.4572C0.625 36.7437 1.67414 37.7906 2.96429 37.7906H23.3821C24.0258 37.7906 24.6096 37.5289 25.032 37.1064C25.4556 36.6834 25.7187 36.0997 25.7187 35.4549V32.3785C25.7187 32.3743 25.7162 32.3707 25.7162 32.3671V19.3585C25.9441 19.4506 26.1732 19.5281 26.4053 19.5912L26.6327 20.8761C26.671 21.0931 26.8593 21.2513 27.08 21.2513H29.4982C29.7178 21.2511 29.907 21.0937 29.9457 20.8772L29.9453 20.8773ZM21.5488 8.61946L22.2974 9.69589C22.0337 10.1674 21.8351 10.6479 21.7028 11.1317L20.4272 11.3488C20.209 11.3857 20.0491 11.5748 20.0491 11.7966V14.2269C20.0491 14.4487 20.209 14.6379 20.4272 14.6747L21.7028 14.8918C21.8356 15.3753 22.0343 15.856 22.2974 16.3276L21.5488 17.404C21.4233 17.584 21.4445 17.8282 21.5991 17.9841L23.3075 19.7054C23.4637 19.8631 23.7087 19.8848 23.8898 19.7581L24.8061 19.12V31.9236H1.53323L1.53351 6.02574H24.8064V6.90745L23.8876 6.2766C23.7071 6.15299 23.4626 6.17476 23.3089 6.32989L21.6005 8.03889C21.4453 8.1943 21.4227 8.43928 21.5488 8.61981L21.5488 8.61946ZM23.3839 36.8795H2.96248C2.17648 36.8795 1.53698 36.24 1.53698 35.4545V32.8326H24.8077V35.4567C24.8077 35.8496 24.6478 36.2053 24.39 36.4635C24.1319 36.7202 23.7767 36.8795 23.3844 36.8795L23.3839 36.8795ZM2.96248 1.06946H23.3846C24.1664 1.06946 24.8076 1.70646 24.8076 2.4936V5.11667H1.53691V2.4936C1.53691 1.69196 2.20607 1.06946 2.96248 1.06946ZM29.3353 19.1395L29.1183 20.3412H27.4612L27.2491 19.1405C27.217 18.9594 27.0789 18.8152 26.8995 18.7756C26.4171 18.6695 25.9517 18.4954 25.4651 18.2368C25.3652 18.1871 25.2717 18.1313 25.1777 18.0761C25.0243 17.9857 24.8334 17.9924 24.6869 18.0942L23.6858 18.7912L22.5125 17.6093L23.2106 16.6051C23.5359 16.1402 22.8451 15.9081 22.5183 14.3952C22.479 14.2133 22.3328 14.074 22.1498 14.0431L20.9575 13.8408V12.1779L22.1498 11.9756C22.3328 11.9446 22.4787 11.8054 22.5183 11.6235C22.642 11.0501 22.8797 10.4736 23.2251 9.91081C23.3191 9.75679 23.3135 9.56176 23.2106 9.41388L22.513 8.41081L23.6858 7.23809L24.6888 7.92726C24.8348 8.02715 25.0337 8.02855 25.1846 7.93926C25.2756 7.88597 25.3671 7.83212 25.4748 7.77799C25.9489 7.5252 26.4148 7.35137 26.8984 7.24479C27.0778 7.20545 27.2159 7.0612 27.248 6.88067L27.4601 5.68617H29.1177L29.3339 6.8826C29.3671 7.06256 29.5041 7.2057 29.683 7.2456C30.2363 7.36865 30.8091 7.6033 31.3861 7.94426C31.5388 8.03466 31.729 8.02852 31.8753 7.92779L32.8795 7.23806L34.0625 8.41271L33.366 9.41464C33.2636 9.56196 33.2569 9.75531 33.3496 9.9085C33.681 10.4587 33.9216 11.0408 34.0672 11.6359C34.1096 11.8123 34.2533 11.9462 34.4322 11.9772L35.6122 12.1789V13.8418L34.4146 14.0441C34.231 14.0751 34.0848 14.2143 34.046 14.3962C33.9219 14.9744 33.6872 15.5514 33.3502 16.1124C33.2581 16.2659 33.2642 16.459 33.3666 16.6063L34.0642 17.6094L32.8806 18.793L31.8781 18.0949C31.7308 17.9925 31.5368 17.9863 31.3842 18.0784C30.8259 18.414 30.2539 18.6487 29.6836 18.7754C29.5056 18.8161 29.368 18.9592 29.3354 19.1392L29.3353 19.1395Z" fill="black"/>
<path d="M32.2103 13.0045C32.2103 10.8524 30.4517 9.10156 28.289 9.10156C26.137 9.10156 24.3672 10.8488 24.3672 13.0045C24.3672 15.1468 26.1163 16.9258 28.289 16.9258C30.4514 16.9255 32.2103 15.1668 32.2103 13.0045ZM28.289 16.0165C26.5553 16.0165 25.2871 14.6194 25.2782 13.0221C25.2782 13.005 25.2793 12.9889 25.2801 12.9718C25.2983 11.3518 26.6281 10.0106 28.2894 10.0106C29.9501 10.0106 31.3014 11.3536 31.3014 13.0045C31.3014 14.6658 29.9503 16.0165 28.289 16.0165Z" fill="black"/>
<path d="M28.2905 1.91406C28.0396 1.91406 27.8359 2.11775 27.8359 2.36858C27.8359 2.61942 28.0396 2.82311 28.2905 2.82311C33.9232 2.82311 38.5055 7.38196 38.5055 12.9852C38.5055 18.618 33.9223 23.2002 28.2905 23.2002C28.0396 23.2002 27.8359 23.4039 27.8359 23.6548C27.8359 23.9056 28.0396 24.1093 28.2905 24.1093C34.4244 24.1093 39.4147 19.1191 39.4147 12.985C39.4153 6.88008 34.4251 1.91429 28.2905 1.91429V1.91406Z" fill="black"/>
</svg>