<svg width="38" height="38" viewBox="0 0 50 50" fill="none" xmlns="http://www.w3.org/2000/svg">
<path d="M14.0625 41.4062H14.8438V42.9688H16.4062V41.4062H17.1875C17.3947 41.4062 17.5934 41.3239 17.7399 41.1774C17.8864 41.0309 17.9688 40.8322 17.9688 40.625V35.9375C17.9688 35.7303 17.8864 35.5316 17.7399 35.3851C17.5934 35.2386 17.3947 35.1562 17.1875 35.1562H16.4062V33.5938H14.8438V35.1562H14.0625C13.8553 35.1562 13.6566 35.2386 13.5101 35.3851C13.3636 35.5316 13.2812 35.7303 13.2812 35.9375V40.625C13.2812 40.8322 13.3636 41.0309 13.5101 41.1774C13.6566 41.3239 13.8553 41.4062 14.0625 41.4062ZM14.8438 36.7188H16.4062V39.8438H14.8438V36.7188ZM20.3125 39.0625H21.0938V40.625H22.6562V39.0625H23.4375C23.6447 39.0625 23.8434 38.9802 23.9899 38.8337C24.1364 38.6872 24.2188 38.4885 24.2188 38.2812V33.5938C24.2188 33.3865 24.1364 33.1878 23.9899 33.0413C23.8434 32.8948 23.6447 32.8125 23.4375 32.8125H22.6562V31.25H21.0938V32.8125H20.3125C20.1053 32.8125 19.9066 32.8948 19.7601 33.0413C19.6136 33.1878 19.5312 33.3865 19.5312 33.5938V38.2812C19.5312 38.4885 19.6136 38.6872 19.7601 38.8337C19.9066 38.9802 20.1053 39.0625 20.3125 39.0625ZM21.0938 34.375H22.6562V37.5H21.0938V34.375ZM26.5625 42.1875H27.3438V43.75H28.9062V42.1875H29.6875C29.8947 42.1875 30.0934 42.1052 30.2399 41.9587C30.3864 41.8122 30.4688 41.6135 30.4688 41.4062V36.7188C30.4688 36.5115 30.3864 36.3128 30.2399 36.1663C30.0934 36.0198 29.8947 35.9375 29.6875 35.9375H28.9062V34.375H27.3438V35.9375H26.5625C26.3553 35.9375 26.1566 36.0198 26.0101 36.1663C25.8636 36.3128 25.7812 36.5115 25.7812 36.7188V41.4062C25.7812 41.6135 25.8636 41.8122 26.0101 41.9587C26.1566 42.1052 26.3553 42.1875 26.5625 42.1875ZM27.3438 37.5H28.9062V40.625H27.3438V37.5ZM32.8125 39.8438H33.5938V41.4062H35.1562V39.8438H35.9375C36.1447 39.8438 36.3434 39.7614 36.4899 39.6149C36.6364 39.4684 36.7188 39.2697 36.7188 39.0625V34.375C36.7188 34.1678 36.6364 33.9691 36.4899 33.8226C36.3434 33.6761 36.1447 33.5938 35.9375 33.5938H35.1562V32.0312H33.5938V33.5938H32.8125C32.6053 33.5938 32.4066 33.6761 32.2601 33.8226C32.1136 33.9691 32.0312 34.1678 32.0312 34.375V39.0625C32.0312 39.2697 32.1136 39.4684 32.2601 39.6149C32.4066 39.7614 32.6053 39.8438 32.8125 39.8438ZM33.5938 35.1562H35.1562V38.2812H33.5938V35.1562Z" fill="black"/>
<path d="M8.59375 29.6875V45.3125C8.59375 45.9341 8.84068 46.5302 9.28022 46.9698C9.71976 47.4093 10.3159 47.6562 10.9375 47.6562H39.0625C39.6841 47.6562 40.2802 47.4093 40.7198 46.9698C41.1593 46.5302 41.4062 45.9341 41.4062 45.3125V29.6875C41.4062 29.0659 41.1593 28.4698 40.7198 28.0302C40.2802 27.5907 39.6841 27.3438 39.0625 27.3438H10.9375C10.3159 27.3438 9.71976 27.5907 9.28022 28.0302C8.84068 28.4698 8.59375 29.0659 8.59375 29.6875ZM10.1562 29.6875C10.1562 29.4803 10.2386 29.2816 10.3851 29.1351C10.5316 28.9886 10.7303 28.9062 10.9375 28.9062H39.0625C39.2697 28.9062 39.4684 28.9886 39.6149 29.1351C39.7614 29.2816 39.8438 29.4803 39.8438 29.6875V45.3125C39.8438 45.5197 39.7614 45.7184 39.6149 45.8649C39.4684 46.0114 39.2697 46.0938 39.0625 46.0938H10.9375C10.7303 46.0938 10.5316 46.0114 10.3851 45.8649C10.2386 45.7184 10.1562 45.5197 10.1562 45.3125V29.6875ZM38.6719 14.8438H37.5V12.5C37.5 11.8784 37.2531 11.2823 36.8135 10.8427C36.374 10.4032 35.7779 10.1562 35.1562 10.1562H33.5938V4.46875C33.8299 4.33241 34.0263 4.13665 34.1633 3.90091C34.3004 3.66518 34.3734 3.39768 34.375 3.125C34.375 2.7106 34.2104 2.31317 33.9174 2.02015C33.6243 1.72712 33.2269 1.5625 32.8125 1.5625C32.3981 1.5625 32.0007 1.72712 31.7076 2.02015C31.4146 2.31317 31.25 2.7106 31.25 3.125C31.2516 3.39768 31.3246 3.66518 31.4617 3.90091C31.5987 4.13665 31.7951 4.33241 32.0312 4.46875V10.1562H17.9688V4.46875C18.2049 4.33241 18.4013 4.13665 18.5383 3.90091C18.6754 3.66518 18.7484 3.39768 18.75 3.125C18.75 2.7106 18.5854 2.31317 18.2924 2.02015C17.9993 1.72712 17.6019 1.5625 17.1875 1.5625C16.7731 1.5625 16.3757 1.72712 16.0826 2.02015C15.7896 2.31317 15.625 2.7106 15.625 3.125C15.6266 3.39768 15.6996 3.66518 15.8367 3.90091C15.9737 4.13665 16.1701 4.33241 16.4062 4.46875V10.1562H14.8438C14.2221 10.1562 13.626 10.4032 13.1865 10.8427C12.7469 11.2823 12.5 11.8784 12.5 12.5V14.8438H11.3281C10.6029 14.8438 9.90742 15.1318 9.39463 15.6446C8.88184 16.1574 8.59375 16.8529 8.59375 17.5781C8.59375 18.3033 8.88184 18.9988 9.39463 19.5116C9.90742 20.0244 10.6029 20.3125 11.3281 20.3125H12.5V22.6562C12.5 23.2779 12.7469 23.874 13.1865 24.3135C13.626 24.7531 14.2221 25 14.8438 25H35.1562C35.7779 25 36.374 24.7531 36.8135 24.3135C37.2531 23.874 37.5 23.2779 37.5 22.6562V20.3125H38.6719C39.3971 20.3125 40.0926 20.0244 40.6054 19.5116C41.1182 18.9988 41.4062 18.3033 41.4062 17.5781C41.4062 16.8529 41.1182 16.1574 40.6054 15.6446C40.0926 15.1318 39.3971 14.8438 38.6719 14.8438ZM11.3281 18.75C11.0173 18.75 10.7193 18.6265 10.4995 18.4068C10.2797 18.187 10.1562 17.8889 10.1562 17.5781C10.1562 17.2673 10.2797 16.9693 10.4995 16.7495C10.7193 16.5297 11.0173 16.4062 11.3281 16.4062H12.5V18.75H11.3281ZM21.0938 23.4375V21.0938H28.9062V23.4375H21.0938ZM35.9375 22.6562C35.9375 22.8635 35.8552 23.0622 35.7087 23.2087C35.5622 23.3552 35.3635 23.4375 35.1562 23.4375H30.4688V21.0938C30.4688 20.6793 30.3041 20.2819 30.0111 19.9889C29.7181 19.6959 29.3207 19.5312 28.9062 19.5312H21.0938C20.6793 19.5312 20.2819 19.6959 19.9889 19.9889C19.6959 20.2819 19.5312 20.6793 19.5312 21.0938V23.4375H14.8438C14.6365 23.4375 14.4378 23.3552 14.2913 23.2087C14.1448 23.0622 14.0625 22.8635 14.0625 22.6562V12.5C14.0625 12.2928 14.1448 12.0941 14.2913 11.9476C14.4378 11.8011 14.6365 11.7188 14.8438 11.7188H35.1562C35.3635 11.7188 35.5622 11.8011 35.7087 11.9476C35.8552 12.0941 35.9375 12.2928 35.9375 12.5V22.6562ZM38.6719 18.75H37.5V16.4062H38.6719C38.9827 16.4062 39.2807 16.5297 39.5005 16.7495C39.7203 16.9693 39.8438 17.2673 39.8438 17.5781C39.8438 17.8889 39.7203 18.187 39.5005 18.4068C39.2807 18.6265 38.9827 18.75 38.6719 18.75Z" fill="black"/>
<path d="M20.3125 13.2812H17.1875C16.9803 13.2812 16.7816 13.3636 16.6351 13.5101C16.4886 13.6566 16.4062 13.8553 16.4062 14.0625V17.1875C16.4062 17.3947 16.4886 17.5934 16.6351 17.7399C16.7816 17.8864 16.9803 17.9688 17.1875 17.9688H20.3125C20.5197 17.9688 20.7184 17.8864 20.8649 17.7399C21.0114 17.5934 21.0938 17.3947 21.0938 17.1875V14.0625C21.0938 13.8553 21.0114 13.6566 20.8649 13.5101C20.7184 13.3636 20.5197 13.2812 20.3125 13.2812ZM19.5312 16.4062H17.9688V14.8438H19.5312V16.4062ZM32.8125 13.2812H29.6875C29.4803 13.2812 29.2816 13.3636 29.1351 13.5101C28.9886 13.6566 28.9062 13.8553 28.9062 14.0625V17.1875C28.9062 17.3947 28.9886 17.5934 29.1351 17.7399C29.2816 17.8864 29.4803 17.9688 29.6875 17.9688H32.8125C33.0197 17.9688 33.2184 17.8864 33.3649 17.7399C33.5114 17.5934 33.5938 17.3947 33.5938 17.1875V14.0625C33.5938 13.8553 33.5114 13.6566 33.3649 13.5101C33.2184 13.3636 33.0197 13.2812 32.8125 13.2812ZM32.0312 16.4062H30.4688V14.8438H32.0312V16.4062Z" fill="black"/>
</svg>