<svg width="38" height="38" viewBox="0 0 26 26" fill="none" xmlns="http://www.w3.org/2000/svg">
<path d="M0.884203 0.482644C0.778175 0.482644 0.676331 0.524775 0.601281 0.599551C0.526503 0.674608 0.484375 0.77645 0.484375 0.882472V25.1318C0.484375 25.2378 0.526506 25.3396 0.601281 25.4144C0.676338 25.4895 0.778182 25.5316 0.884203 25.5316H21.0806C21.1858 25.5316 21.2868 25.49 21.3619 25.4161L25.4146 21.4066C25.4905 21.3315 25.5332 21.2291 25.5332 21.1223V0.882251C25.5332 0.776222 25.491 0.674379 25.4163 0.599329C25.3412 0.524551 25.2394 0.482422 25.1334 0.482422L0.884203 0.482644ZM24.7335 1.28257V4.272H1.2842V1.28257H24.7335ZM1.2842 5.07193H24.7335V20.3534H20.8568C20.7508 20.3534 20.649 20.3955 20.5739 20.4705C20.4991 20.5456 20.457 20.6474 20.457 20.7535V24.732H1.28416L1.2842 5.07193ZM21.2571 24.3948V21.1534H24.5338L21.2571 24.3948Z" fill="black"/>
<path d="M3.18945 2.90736C3.18945 3.13225 3.00697 3.31445 2.78236 3.31445C2.55748 3.31445 2.375 3.13225 2.375 2.90736C2.375 2.68248 2.55748 2.5 2.78236 2.5C3.00697 2.5 3.18945 2.68248 3.18945 2.90736Z" fill="black"/>
<path d="M5.19698 2.90736C5.19698 3.13225 5.01478 3.31445 4.7899 3.31445C4.56501 3.31445 4.38281 3.13225 4.38281 2.90736C4.38281 2.68248 4.56501 2.5 4.7899 2.5C5.01478 2.5 5.19698 2.68248 5.19698 2.90736Z" fill="black"/>
<path d="M7.21289 2.90736C7.21289 3.13225 7.03069 3.31445 6.8058 3.31445C6.58092 3.31445 6.39844 3.13225 6.39844 2.90736C6.39844 2.68248 6.58092 2.5 6.8058 2.5C7.03069 2.5 7.21289 2.68248 7.21289 2.90736Z" fill="black"/>
<path d="M10.9626 13.4805C10.8566 13.4805 10.7547 13.5226 10.6797 13.5977C10.6046 13.6727 10.5625 13.7743 10.5625 13.8806V20.0407C10.5625 20.2614 10.7416 20.4406 10.9626 20.4406C11.1836 20.4406 11.3625 20.2614 11.3625 20.0407V13.8806C11.3627 13.7743 11.3206 13.6727 11.2455 13.5977C11.1705 13.5226 11.0686 13.4805 10.9626 13.4805Z" fill="black"/>
<path d="M7.95452 17.3887C7.84849 17.3887 7.74665 17.4308 7.6716 17.5056C7.59654 17.5806 7.55441 17.6825 7.55469 17.7885V20.0419C7.55469 20.2626 7.73354 20.4417 7.95452 20.4417C8.17551 20.4417 8.35464 20.2626 8.35464 20.0419V17.7885C8.35464 17.6825 8.31251 17.5806 8.23745 17.5056C8.16239 17.4308 8.06054 17.3887 7.95452 17.3887Z" fill="black"/>
<path d="M14.3298 14.623C14.2235 14.623 14.1219 14.6652 14.0469 14.7402C13.9718 14.8153 13.9297 14.9169 13.9297 15.0232V20.0416C13.9297 20.2623 14.1088 20.4414 14.3298 20.4414C14.5505 20.4414 14.7296 20.2623 14.7296 20.0416V15.0232C14.7296 14.9168 14.6875 14.8153 14.6127 14.7402C14.5377 14.6652 14.4358 14.623 14.3298 14.623Z" fill="black"/>
<path d="M17.6342 11.7988C17.5282 11.7988 17.4263 11.841 17.3513 11.9157C17.2765 11.9908 17.2344 12.0926 17.2344 12.1987V20.0415C17.2344 20.2622 17.4135 20.4413 17.6342 20.4413C17.8552 20.4413 18.0343 20.2622 18.0343 20.0415V12.1987C18.0343 12.0926 17.9922 11.9908 17.9171 11.9157C17.8421 11.841 17.7405 11.7988 17.6342 11.7988Z" fill="black"/>
<path d="M19.5219 7.58912C19.5186 7.5735 19.5141 7.55787 19.5088 7.54281C19.5007 7.48896 19.479 7.43789 19.4455 7.39465C19.4382 7.37986 19.4296 7.36563 19.4204 7.35196C19.4142 7.34498 19.4059 7.34247 19.3992 7.33633C19.3595 7.30257 19.3163 7.27411 19.2697 7.25123C19.2465 7.24314 19.2228 7.237 19.1986 7.23338C19.1718 7.22724 19.1444 7.22389 19.1168 7.22361C19.1087 7.22389 19.1015 7.21998 19.0934 7.22082L16.4215 7.42088V7.4206C16.3155 7.42841 16.217 7.4778 16.1478 7.55843C16.0783 7.63879 16.0437 7.74342 16.0518 7.84917C16.0596 7.9552 16.1093 8.05369 16.1896 8.12288C16.2703 8.19208 16.3749 8.2264 16.4809 8.21831L17.9859 8.10558L13.8414 11.8386L11.1344 10.4823V10.4826C10.9695 10.4003 10.77 10.441 10.6503 10.5808L6.42348 15.5437C6.35457 15.6246 6.32081 15.7295 6.32946 15.8352C6.33783 15.941 6.38805 16.0389 6.46868 16.1078C6.63693 16.251 6.88972 16.2309 7.03286 16.0626L11.0563 11.3383L13.7271 12.6761C13.8744 12.7492 14.0513 12.7252 14.1738 12.6156L18.7859 8.46129L18.8956 9.90379H18.8959C18.9118 10.1122 19.0853 10.2732 19.2943 10.2735C19.3043 10.2735 19.3147 10.2732 19.3253 10.2724L19.325 10.2721C19.4307 10.2643 19.5289 10.2143 19.5981 10.134C19.6673 10.0533 19.7014 9.94871 19.6933 9.84296L19.5219 7.58912Z" fill="black"/>
</svg>