<svg width="38" height="38" viewBox="0 0 40 40" fill="none" xmlns="http://www.w3.org/2000/svg">
                                <path d="M35.6248 1.875V3.125H32.0478L28.9228 1.25H19.375C18.6855 1.25 18.125 1.81055 18.125 2.5C18.125 2.95759 18.2575 3.38057 18.4724 3.75H15.625C14.5912 3.75 13.75 4.59121 13.75 5.625C13.75 5.87193 13.8005 6.10631 13.8876 6.32254C13.0907 6.53822 12.5 7.26061 12.5 8.12497C12.5 8.98933 13.0907 9.71176 13.8876 9.9274C13.8005 10.1436 13.75 10.378 13.75 10.6249C13.75 10.8543 13.7924 11.0786 13.8719 11.2893C13.4143 11.7248 13.125 12.3367 13.125 13.0181V13.3043L14.185 14.9999H11.0767L7.95171 16.8749H4.375V15.6249H0.625V28.1249H4.375V26.8749H7.327L9.40571 28.1218C9.39316 28.3317 9.37502 28.5418 9.37502 28.7499C9.37502 34.6087 14.1412 39.3749 20 39.3749C25.8588 39.3749 30.625 34.6087 30.625 28.7499C30.625 25.8317 29.4063 23.0251 27.2857 21.0228C27.0469 20.5596 26.625 20.2108 26.1119 20.0721C26.1995 19.8559 26.25 19.6215 26.25 19.3746C26.25 18.3408 25.4088 17.4996 24.375 17.4996H24.2525L25.815 14.9996H29.5483L32.6733 13.1246H35.625V14.3746H39.375V1.87459L35.6248 1.875ZM3.12484 26.875H1.87484V16.875H3.12484V26.875ZM19.9998 38.125C14.8305 38.125 10.6248 33.9194 10.6248 28.75H21.2498C21.9393 28.75 22.4998 29.3105 22.4998 30C22.4998 30.6894 21.9393 31.25 21.2498 31.25H18.7498C18.0604 31.25 17.4998 30.6894 17.4998 30H16.2498C16.2498 31.3786 17.3712 32.5 18.7498 32.5H19.3748V33.75H20.6248V32.5H21.2498C22.6285 32.5 23.7498 31.3786 23.7498 30C23.7498 29.5318 23.6123 29.0988 23.388 28.7238C24.2967 28.5943 24.9998 27.8186 24.9998 26.875C24.9998 26.6281 24.9493 26.3937 24.8623 26.1775C25.6591 25.9612 26.2498 25.2394 26.2498 24.375C26.2498 24.1281 26.1993 23.8937 26.1123 23.6775C26.593 23.5469 26.9943 23.233 27.2392 22.812C28.6022 24.4783 29.3748 26.5771 29.3748 28.7501C29.3748 33.9194 25.1691 38.1251 19.9998 38.1251L19.9998 38.125ZM24.9998 19.375C24.9998 19.7193 24.7197 20 24.3748 20H14.9998V21.25H25.6248C25.9697 21.25 26.2498 21.5307 26.2498 21.875C26.2498 22.2193 25.9697 22.5 25.6248 22.5H14.9998V23.75H24.3748C24.7197 23.75 24.9998 24.0307 24.9998 24.375C24.9998 24.7193 24.7197 25 24.3748 25H14.9998V26.25H23.1248C23.4697 26.25 23.7498 26.5307 23.7498 26.875C23.7498 27.2193 23.4697 27.5 23.1248 27.5H10.7977L7.67269 25.625H4.37469V18.125H8.29769L11.4227 16.25H14.9659L15.7472 17.5H14.9997V18.75H24.3747C24.7196 18.75 24.9997 19.0307 24.9997 19.375H24.9998ZM17.2213 17.5L14.377 12.9486C14.4133 12.3507 14.9107 11.875 15.5176 11.875C15.8181 11.875 16.1125 11.9969 16.3256 12.2101L17.6563 13.5271L18.055 12.7882C18.0751 12.7506 18.5631 11.875 20 11.875C21.4369 11.875 21.9249 12.7506 21.9406 12.7793L22.3281 13.555L23.6738 12.2092C23.8876 11.9969 24.1814 11.875 24.4824 11.875C25.0893 11.875 25.5873 12.3507 25.623 12.9486L22.7788 17.5L17.2213 17.5ZM32.327 11.875L29.202 13.75H26.5963L26.875 13.3044V13.0181C26.875 11.6981 25.8014 10.625 24.4824 10.625C23.8429 10.625 23.2425 10.8739 22.7904 11.3262L22.548 11.5681C22.0868 11.1269 21.2807 10.625 20 10.625C18.7193 10.625 17.9132 11.1269 17.452 11.5681L17.2095 11.3262C16.7575 10.8739 16.1574 10.625 15.5175 10.625C15.3431 10.625 15.1743 10.6462 15.0105 10.6819C15.0086 10.6624 14.9999 10.6442 14.9999 10.625C14.9999 10.2807 15.2801 9.99999 15.6249 9.99999H24.9999V8.74999H14.3749C14.0301 8.74999 13.7499 8.4693 13.7499 8.12499C13.7499 7.78069 14.0301 7.49999 14.3749 7.49999H24.9999V6.24999H15.6249C15.2801 6.24999 14.9999 5.9693 14.9999 5.62499C14.9999 5.28069 15.2801 4.99999 15.6249 4.99999H24.9999V3.74999H20.6249C19.9355 3.74999 19.3749 3.18944 19.3749 2.49999H28.5771L31.7021 4.37499H35.6251V11.875L32.327 11.875ZM38.125 13.125H36.875V3.125H38.125V13.125Z" fill="black"></path>
                                <path d="M10.625 0.625H11.875V1.875H10.625V0.625Z" fill="black"></path>
                                <path d="M10.625 3.125H11.875V4.375H10.625V3.125Z" fill="black"></path>
                                <path d="M9.33873 8.125H6.87444V4.375H9.37444V3.125H5.62444V9.375H6.91016L4.99944 12.0494L3.08873 9.375H4.37444V1.875H9.37444V0.625H3.12444V8.125H0.660156L4.99944 14.2006L9.33873 8.125Z" fill="black"></path>
                                <path d="M29.375 38.125H30.625V39.375H29.375V38.125Z" fill="black"></path>
                                <path d="M29.375 35.625H30.625V36.875H29.375V35.625Z" fill="black"></path>
                                <path d="M30.6602 31.8745H33.1244V35.6245H31.8744V36.8745H34.3744V30.6245H33.0887L34.9994 27.9501L36.9102 30.6245H35.6244V38.1245H31.8744V39.3745H36.8744V31.8745H39.3387L34.9994 25.7988L30.6602 31.8745Z" fill="black"></path>
                            </svg>