<svg width="38" height="38" viewBox="0 0 38 38" fill="none" xmlns="http://www.w3.org/2000/svg">
                                <path d="M17.1754 20.9638C17.2114 21.9485 18.0104 22.7191 18.9954 22.7191C19.9803 22.7191 20.7794 21.9482 20.8154 20.9638L21.1262 12.3602C21.1446 11.8544 20.9683 11.3948 20.617 11.0302C20.2657 10.666 19.8123 10.4735 19.3061 10.4735H18.6848C18.1786 10.4735 17.7255 10.666 17.3739 11.0302C17.0226 11.3943 16.8463 11.8544 16.8647 12.3602L17.1754 20.9638ZM18.2261 11.8524C18.3545 11.7196 18.4999 11.6573 18.6849 11.6573H19.3062C19.4909 11.6573 19.6366 11.7196 19.7649 11.8518C19.8933 11.9846 19.9499 12.1328 19.9432 12.3172L19.6324 20.9208C19.6198 21.2654 19.3403 21.5349 18.9957 21.5349C18.6511 21.5349 18.371 21.2654 18.359 20.9208L18.0481 12.3172C18.0411 12.1331 18.0978 11.9852 18.2261 11.8524ZM18.9954 23.1817C17.8009 23.1817 16.8289 24.1532 16.8289 25.3482C16.8289 26.5427 17.8009 27.5148 18.9954 27.5148C20.1899 27.5148 21.1617 26.5432 21.1617 25.3482C21.162 24.1537 20.1899 23.1817 18.9954 23.1817ZM18.9954 26.331C18.4539 26.331 18.013 25.8901 18.013 25.3485C18.013 24.8067 18.4539 24.3658 18.9954 24.3658C19.537 24.3658 19.9779 24.8067 19.9779 25.3482C19.9779 25.8901 19.5376 26.331 18.9954 26.331ZM18.9954 7.30453C12.5496 7.30453 7.30615 12.5481 7.30615 18.9938C7.30615 25.4395 12.5497 30.6831 18.9954 30.6831C25.4411 30.6831 30.6847 25.439 30.6847 18.9938C30.6847 12.5487 25.4411 7.30453 18.9954 7.30453ZM18.9954 29.4995C13.2024 29.4995 8.48972 24.7867 8.48972 18.9938C8.48972 13.201 13.2026 8.4881 18.9954 8.4881C24.7883 8.4881 29.5011 13.201 29.5011 18.9938C29.5011 24.7867 24.7883 29.4995 18.9954 29.4995ZM37.5561 16.6074L34.7844 15.5407C34.3762 13.6623 33.6426 11.8931 32.6005 10.272L33.8067 7.55574C33.9063 7.33197 33.8575 7.06997 33.6842 6.89698L31.0907 4.30405C30.9177 4.13078 30.6557 4.08251 30.432 4.18156L27.7149 5.38835C26.0935 4.34621 24.3245 3.61299 22.4479 3.20449L21.3809 0.43192C21.293 0.203684 21.0734 0.0527344 20.8284 0.0527344H17.1613C16.9163 0.0527344 16.6967 0.203684 16.6088 0.43192L15.5418 3.20449C13.6649 3.61269 11.8959 4.34621 10.2743 5.38835L7.5572 4.18156C7.33342 4.08251 7.0717 4.13078 6.89843 4.30405L4.3055 6.89755C4.13223 7.07054 4.08396 7.33253 4.18302 7.55631L5.3898 10.2731C4.34766 11.8939 3.61444 13.6632 3.20594 15.5407L0.433873 16.6077C0.205638 16.6956 0.0546875 16.9151 0.0546875 17.1601V20.8273C0.0546875 21.0722 0.205638 21.2918 0.433873 21.3797L3.20566 22.4464C3.61442 24.3248 4.34766 26.0943 5.38952 27.7152L4.1833 30.4314C4.08369 30.6551 4.13252 30.9171 4.30579 31.0901L6.89929 33.6831C7.07256 33.8563 7.33427 33.9046 7.55805 33.8055L10.2751 32.5988C11.8965 33.6409 13.6655 34.3741 15.5421 34.7826L16.6091 37.5552C16.697 37.7834 16.9166 37.9344 17.1616 37.9344H20.829C21.074 37.9344 21.2936 37.7834 21.3815 37.5552L22.4482 34.7834C24.3265 34.3752 26.0958 33.6417 27.7169 32.5995L30.4331 33.8058C30.6569 33.9054 30.9189 33.8565 31.0919 33.6833L33.6848 31.0898C33.8581 30.9168 33.9063 30.6548 33.8073 30.431L32.6005 27.7139C33.6426 26.0926 34.3759 24.3236 34.7844 22.4469L37.5569 21.3799C37.7852 21.292 37.9361 21.0725 37.9361 20.8275V17.1601C37.9356 16.9148 37.7849 16.6952 37.5561 16.6073L37.5561 16.6074ZM36.752 20.4207L34.0575 21.4579C33.8675 21.5307 33.7288 21.6967 33.6892 21.8962C33.3064 23.8454 32.5488 25.673 31.4373 27.3287C31.324 27.4975 31.3053 27.7129 31.3876 27.8988L32.5606 30.5397L30.5422 32.5581L27.9021 31.3857C27.7163 31.3031 27.5009 31.3221 27.3321 31.4354C25.6769 32.5469 23.8488 33.3045 21.8979 33.6879C21.6984 33.7269 21.533 33.8661 21.4596 34.0561L20.4225 36.7498H17.5678L16.5307 34.0553C16.4578 33.8653 16.2918 33.7266 16.0923 33.687C14.1437 33.3042 12.3155 32.5466 10.6598 31.4351C10.4907 31.3218 10.2756 31.3031 10.0898 31.3854L7.44887 32.5584L5.43044 30.54L6.60287 27.8999C6.68545 27.7141 6.66648 27.4987 6.5532 27.3299C5.44184 25.6747 4.68406 23.8466 4.3007 21.8957C4.26164 21.6962 4.12241 21.5308 3.9324 21.4574L1.23876 20.4202V17.5656L3.93297 16.5285C4.12299 16.4556 4.26221 16.2896 4.30127 16.0901C4.68409 14.1406 5.44163 12.3125 6.5532 10.6571C6.66648 10.4883 6.68518 10.2729 6.60287 10.0871L5.42987 7.44616L7.44829 5.42773L10.0892 6.60073C10.2751 6.68331 10.4905 6.66434 10.6593 6.55106C12.3153 5.43949 14.143 4.68192 16.0923 4.29913C16.2918 4.26007 16.4578 4.12084 16.5306 3.93083L17.5677 1.23633H20.4224L21.4595 3.93083C21.5323 4.12085 21.6984 4.25952 21.8979 4.29913C23.8471 4.68195 25.6749 5.43949 27.3309 6.55106C27.4997 6.66434 27.7151 6.68304 27.9009 6.60073L30.5418 5.42773L32.5603 7.44616L31.3878 10.0862C31.3052 10.2721 31.3242 10.4875 31.4375 10.6565C32.5491 12.3117 33.3066 14.1398 33.69 16.0907C33.729 16.2902 33.8683 16.4556 34.0583 16.529L36.7519 17.5662L36.7514 20.4208L36.752 20.4207Z" fill="black"></path>
                            </svg>