<svg width="38" height="38" viewBox="0 0 40 37" fill="none" xmlns="http://www.w3.org/2000/svg">
<path d="M36.875 0H3.125C1.40179 0 0 1.40179 0 3.125V33.125C0 34.8482 1.40179 36.25 3.125 36.25H36.875C38.5982 36.25 40 34.8482 40 33.125V3.125C40 1.40179 38.5982 0 36.875 0ZM36.875 35H3.125C2.09121 35 1.25 34.1588 1.25 33.125V5.625H15C15.3457 5.625 15.625 5.3457 15.625 5C15.625 4.6543 15.3457 4.375 15 4.375H1.25V3.125C1.25 2.09121 2.09121 1.25 3.125 1.25H36.875C37.9088 1.25 38.75 2.09121 38.75 3.125V4.375H25C24.6543 4.375 24.375 4.6543 24.375 5C24.375 5.3457 24.6543 5.625 25 5.625H38.75V33.125C38.75 34.1588 37.9088 35 36.875 35Z" fill="black"/>
<path d="M8.75 25H5C4.6543 25 4.375 25.2793 4.375 25.625V29.375C4.375 29.7207 4.6543 30 5 30H8.75C9.0957 30 9.375 29.7207 9.375 29.375V25.625C9.375 25.2793 9.0957 25 8.75 25ZM8.125 28.75H5.625V26.25H8.125V28.75Z" fill="black"/>
<path d="M8.75 31.25H5C4.6543 31.25 4.375 31.5293 4.375 31.875C4.375 32.2207 4.6543 32.5 5 32.5H8.75C9.0957 32.5 9.375 32.2207 9.375 31.875C9.375 31.5293 9.0957 31.25 8.75 31.25Z" fill="black"/>
<path d="M16.25 31.25H12.5C12.1543 31.25 11.875 31.5293 11.875 31.875C11.875 32.2207 12.1543 32.5 12.5 32.5H16.25C16.5957 32.5 16.875 32.2207 16.875 31.875C16.875 31.5293 16.5957 31.25 16.25 31.25Z" fill="black"/>
<path d="M27.5 31.25H23.75C23.4043 31.25 23.125 31.5293 23.125 31.875C23.125 32.2207 23.4043 32.5 23.75 32.5H27.5C27.8457 32.5 28.125 32.2207 28.125 31.875C28.125 31.5293 27.8457 31.25 27.5 31.25Z" fill="black"/>
<path d="M16.25 25H12.5C12.1543 25 11.875 25.2793 11.875 25.625V29.375C11.875 29.7207 12.1543 30 12.5 30H16.25C16.5957 30 16.875 29.7207 16.875 29.375V25.625C16.875 25.2793 16.5957 25 16.25 25ZM15.625 28.75H13.125V26.25H15.625V28.75Z" fill="black"/>
<path d="M35 25H31.25C30.9043 25 30.625 25.2793 30.625 25.625V29.375C30.625 29.7207 30.9043 30 31.25 30H35C35.3457 30 35.625 29.7207 35.625 29.375V25.625C35.625 25.2793 35.3457 25 35 25ZM34.375 28.75H31.875V26.25H34.375V28.75Z" fill="black"/>
<path d="M35 31.25H31.25C30.9043 31.25 30.625 31.5293 30.625 31.875C30.625 32.2207 30.9043 32.5 31.25 32.5H35C35.3457 32.5 35.625 32.2207 35.625 31.875C35.625 31.5293 35.3457 31.25 35 31.25Z" fill="black"/>
<path d="M27.5 25H23.75C23.4043 25 23.125 25.2793 23.125 25.625V29.375C23.125 29.7207 23.4043 30 23.75 30H27.5C27.8457 30 28.125 29.7207 28.125 29.375V25.625C28.125 25.2793 27.8457 25 27.5 25ZM26.875 28.75H24.375V26.25H26.875V28.75Z" fill="black"/>
<path d="M29.06 9.45745L20.31 4.45745C20.118 4.34752 19.8811 4.34752 19.69 4.45745L10.94 9.45745C10.745 9.56878 10.625 9.77609 10.625 9.99987V19.3749C10.625 19.5986 10.745 19.8062 10.94 19.9173L19.69 24.9173C19.9263 25.078 20.2143 24.9722 20.31 24.9173L29.06 19.9173C29.255 19.806 29.375 19.5986 29.375 19.3749V9.99987C29.375 9.77609 29.255 9.5685 29.06 9.45745ZM28.125 19.0125L20 23.6556L11.875 19.0125V10.3625L20 5.71931L28.125 10.3625V19.0125Z" fill="black"/>
<path d="M17.8502 9.63189L14.6657 11.647C14.4852 11.7614 14.375 11.9606 14.375 12.1751V13.7502C14.375 14.0959 14.6543 14.3752 15 14.3752C15.3457 14.3752 15.625 14.0959 15.625 13.7502V12.5195L18.0555 10.9813C18.4168 11.6931 19.1481 12.1875 20 12.1875C21.2062 12.1875 22.1875 11.2062 22.1875 10C22.1875 8.79379 21.2062 7.8125 20 7.8125C18.9199 7.8125 18.0256 8.60186 17.8494 9.6325L17.8502 9.63189ZM20.9383 9.99936C20.9383 10.5161 20.5176 10.9369 20.0008 10.9369C19.4841 10.9369 19.0633 10.5161 19.0633 9.99936C19.0633 9.48261 19.4841 9.06186 20.0008 9.06186C20.5176 9.06186 20.9383 9.48261 20.9383 9.99936Z" fill="black"/>
<path d="M20 17.1883C18.7938 17.1883 17.8125 18.1696 17.8125 19.3758C17.8125 20.582 18.7938 21.5633 20 21.5633C21.0801 21.5633 21.9744 20.774 22.1506 19.7433L25.3351 17.7282C25.5156 17.6138 25.6258 17.4146 25.6258 17.2001V15.625C25.6258 15.2793 25.3465 15 25.0008 15C24.6551 15 24.3758 15.2793 24.3758 15.625V16.8557L21.9453 18.3939C21.584 17.6822 20.8527 17.1877 20.0008 17.1877L20 17.1883ZM20 20.3133C19.4833 20.3133 19.0625 19.8926 19.0625 19.3758C19.0625 18.8591 19.4833 18.4383 20 18.4383C20.5167 18.4383 20.9375 18.8591 20.9375 19.3758C20.9375 19.8926 20.5167 20.3133 20 20.3133Z" fill="black"/>
<path d="M5.625 18.75C5.2793 18.75 5 19.0293 5 19.375C5 19.7207 5.2793 20 5.625 20H7.5C7.8457 20 8.125 19.7207 8.125 19.375V10C8.125 9.6543 7.8457 9.375 7.5 9.375H5.625C5.2793 9.375 5 9.6543 5 10C5 10.3457 5.2793 10.625 5.625 10.625H6.875V18.75H5.625Z" fill="black"/>
<path d="M32.5 20H34.375C34.7207 20 35 19.7207 35 19.375C35 19.0293 34.7207 18.75 34.375 18.75H33.125V10.625H34.375C34.7207 10.625 35 10.3457 35 10C35 9.6543 34.7207 9.375 34.375 9.375H32.5C32.1543 9.375 31.875 9.6543 31.875 10V19.375C31.875 19.7207 32.1543 20 32.5 20Z" fill="black"/>
<path d="M15.625 16.25C15.625 16.5951 15.3451 16.875 15 16.875C14.6549 16.875 14.375 16.5951 14.375 16.25C14.375 15.9049 14.6549 15.625 15 15.625C15.3451 15.625 15.625 15.9049 15.625 16.25Z" fill="black"/>
<path d="M25.625 13.125C25.625 13.4701 25.3451 13.75 25 13.75C24.6549 13.75 24.375 13.4701 24.375 13.125C24.375 12.7799 24.6549 12.5 25 12.5C25.3451 12.5 25.625 12.7799 25.625 13.125Z" fill="black"/>
</svg>