<svg width="38" height="38" viewBox="0 0 40 38" fill="none" xmlns="http://www.w3.org/2000/svg">
                                <path d="M39.3623 24.8721C39.3126 24.4273 39.1338 24.0066 38.8481 23.6617C38.5626 23.3169 38.1823 23.0627 37.7543 22.931C35.2088 22.0909 31.0231 23.2527 25.3108 26.3805H25.3111C24.3161 25.5301 23.1512 24.9014 21.8942 24.5368L21.8789 24.5318C21.4238 24.3956 20.9338 24.2355 20.4154 24.0664C18.3541 23.3939 16.0192 22.6317 14.1208 22.7489H14.1211C12.8658 22.8677 11.6269 23.1214 10.4261 23.5056C9.9135 23.6501 9.38727 23.7972 8.86163 23.9222V23.5354L8.86135 23.5357C8.84935 23.1373 8.51732 22.8237 8.11885 22.8345H6.41628V22.6161C6.43469 22.0823 6.01812 21.6345 5.48463 21.6136H3.16849C2.66012 21.6406 2.25692 22.0516 2.23963 22.5603L0.631348 36.1203C0.600098 36.3887 0.685199 36.6577 0.865162 36.8591C1.04038 37.0598 1.29318 37.1758 1.55964 37.1783H5.48514C6.01834 37.1574 6.43436 36.7096 6.41621 36.1764V35.9574H8.11964V35.9571C8.51808 35.9677 8.85014 35.6538 8.86214 35.2554V35.1867C9.88086 35.3628 10.8814 35.6321 11.851 35.9909C13.2137 36.506 14.6367 36.8441 16.0856 36.997L16.1786 37.0048C16.796 37.0573 17.4922 37.1165 18.2336 37.1165V37.1167C19.7961 37.1647 21.3426 36.7878 22.7082 36.0263L38.4161 26.8192C38.7461 26.6219 39.0115 26.3326 39.1795 25.9866C39.3475 25.6409 39.4111 25.2533 39.362 24.8719L39.3623 24.8721ZM5.47229 36.1764C5.47284 36.1962 5.46782 36.216 5.45806 36.2333H1.5702L3.17898 22.6711C3.18289 22.6318 3.19405 22.5933 3.21191 22.5581H5.45855C5.46832 22.5754 5.47306 22.5953 5.4725 22.6153L5.47229 36.1764ZM7.91679 35.012H6.41679V23.7799H7.91679V35.012ZM37.9375 26.0034L22.2318 35.212C20.2034 36.4012 18.0159 36.2154 16.2589 36.0661L16.1654 36.0583H16.1657C14.7929 35.9104 13.445 35.5884 12.1537 35.0998C11.0872 34.7045 9.98488 34.4151 8.86181 34.2354V24.8926C9.48067 24.7542 10.0906 24.582 10.683 24.4152L10.6832 24.4149C11.8191 24.0488 12.9912 23.8066 14.1793 23.6919C15.8952 23.5862 18.1419 24.3169 20.1227 24.9648C20.6439 25.1347 21.1363 25.2952 21.6001 25.4344C24.2198 26.3189 25.2739 27.4101 25.1442 28.0507C25.0245 28.6434 23.6857 29.4394 20.4834 29.2042L14.6667 28.7756C14.5417 28.7667 14.4184 28.8074 14.3235 28.8892C14.2287 28.9712 14.1701 29.0875 14.1609 29.2123V29.2471V29.2474C14.1612 29.4949 14.352 29.7003 14.5989 29.7187L20.4167 30.1467C20.8143 30.176 21.1963 30.1883 21.5601 30.1883C24.1296 30.1883 25.8236 29.4737 26.0736 28.2363C26.1444 27.8602 26.0817 27.4712 25.8961 27.1366C26.0273 27.0649 26.1578 26.9946 26.2862 26.9257H26.2859C27.9031 26.042 29.5797 25.2714 31.3035 24.6193L31.3244 24.6118L31.3414 24.6051L31.3651 24.5967L31.3997 24.5842L31.4173 24.578L31.4274 24.5744C34.3461 23.5206 36.1358 23.4781 37.2229 23.7574H37.2254C37.3088 23.7783 37.3852 23.8015 37.4595 23.8258C37.7139 23.9017 37.941 24.0504 38.1124 24.2535C38.2837 24.4569 38.3919 24.7055 38.424 24.9694C38.4542 25.1706 38.4243 25.3762 38.3375 25.5601C38.251 25.7443 38.1118 25.8986 37.9377 26.0035L37.9375 26.0034ZM13.3725 13.8206H15.6133C15.7469 14.2352 15.9141 14.6381 16.1133 15.0254L14.5299 16.6088H14.5301C14.3708 16.7678 14.346 17.0173 14.4707 17.2048C15.2469 18.3719 16.2478 19.3728 17.4149 20.1487C17.6024 20.2737 17.8521 20.2489 18.0112 20.0896L19.5946 18.5061V18.5064C19.9822 18.7056 20.3856 18.8728 20.8005 19.0064V21.2469V21.2466C20.8005 21.4721 20.9596 21.666 21.1806 21.7101C22.555 21.9824 23.9694 21.9824 25.3438 21.7101C25.5645 21.6657 25.7235 21.4718 25.7232 21.2466V19.0072C26.1381 18.8736 26.5416 18.7064 26.9292 18.5072L28.5126 20.0906V20.0904C28.6719 20.2497 28.9214 20.2745 29.1089 20.1495C30.2757 19.3736 31.2766 18.3727 32.0525 17.2056C32.1775 17.0181 32.1527 16.7686 31.9934 16.6096L30.4099 15.0262C30.6094 14.6386 30.7766 14.2354 30.9099 13.8205H33.1504C33.3759 13.8205 33.5698 13.6615 33.6139 13.4405C33.8862 12.0661 33.8862 10.6514 33.6139 9.277C33.5698 9.0563 33.3756 8.89725 33.1504 8.89753H30.9088C30.7751 8.48291 30.608 8.07975 30.4088 7.69218L31.9922 6.10875C32.1515 5.94971 32.1764 5.69998 32.0514 5.51248C31.2754 4.34534 30.2752 3.34448 29.1083 2.56798C28.9211 2.44271 28.6714 2.46754 28.512 2.62713L26.9286 4.21056L26.9289 4.21028C26.5413 4.01106 26.1379 3.84393 25.723 3.71028V1.47036C25.723 1.24519 25.5642 1.05127 25.3435 1.00718C23.9688 0.734584 22.5541 0.734584 21.1797 1.00718C20.9587 1.05127 20.8 1.24518 20.8 1.47036V3.71086C20.3851 3.84423 19.9819 4.01136 19.594 4.21086L18.0106 2.62743H18.0109C17.8516 2.46811 17.6021 2.44328 17.4146 2.56828C16.2472 3.3442 15.2464 4.34478 14.4704 5.5122C14.3454 5.69943 14.3702 5.94915 14.5296 6.10847L16.113 7.6919V7.69162C15.9138 8.07945 15.7464 8.48262 15.613 8.89755H13.3725C13.1473 8.89755 12.9534 9.05631 12.909 9.27701C12.6367 10.6514 12.6367 12.0661 12.909 13.4405C12.9534 13.6612 13.1473 13.8203 13.3725 13.8206ZM13.7679 9.84266H15.9654C16.1786 9.84266 16.3653 9.6998 16.4214 9.49416C16.5787 8.91688 16.8089 8.36166 17.1063 7.84209C17.2124 7.6571 17.1814 7.42384 17.0304 7.27289L15.4766 5.71903V5.71931C16.0731 4.89481 16.7972 4.17074 17.6214 3.57396L19.1752 5.12781L19.175 5.12753C19.3259 5.27848 19.5592 5.30946 19.7442 5.20343C20.2637 4.90599 20.8187 4.67581 21.3962 4.51844C21.6019 4.46264 21.7447 4.2757 21.7447 4.06253V1.86553C22.7494 1.70788 23.7727 1.70788 24.7777 1.86553V4.0631C24.7777 4.27627 24.9202 4.46293 25.1259 4.51901C25.7034 4.67638 26.2584 4.90657 26.7779 5.204C26.9629 5.31003 27.1962 5.27906 27.3471 5.12811L28.901 3.57396C29.7249 4.17051 30.449 4.89425 31.0455 5.71846L29.4914 7.27261C29.3404 7.42328 29.3092 7.65653 29.4149 7.84181C29.7126 8.36078 29.9431 8.91573 30.0999 9.49302C30.156 9.69893 30.3429 9.84179 30.5564 9.84179H32.7542C32.9116 10.8465 32.9116 11.87 32.7542 12.8747H30.5566C30.3435 12.8744 30.1568 13.0173 30.1007 13.2229C29.9436 13.8008 29.7137 14.3563 29.4166 14.8759C29.3106 15.0611 29.3415 15.2944 29.4925 15.4451L31.0463 16.9989C30.4498 17.8228 29.7258 18.5469 28.9018 19.1434L27.348 17.5896C27.1973 17.4389 26.9643 17.4076 26.7793 17.5134C26.2593 17.8114 25.7035 18.0418 25.1251 18.1989C24.9186 18.2553 24.776 18.4434 24.7768 18.6571V20.8547C23.7718 21.0123 22.7486 21.0123 21.7439 20.8547V18.6546C21.7447 18.4406 21.6019 18.2528 21.3954 18.1964C20.8179 18.0394 20.2626 17.8092 19.7433 17.5115C19.5581 17.4057 19.3254 17.4367 19.1741 17.5871L17.6203 19.1412L17.6206 19.1415C16.7964 18.5447 16.0726 17.8209 15.4758 16.9967L17.0305 15.4426C17.1812 15.2916 17.2124 15.0586 17.1064 14.8734C16.8087 14.3544 16.5785 13.7991 16.4214 13.2219C16.365 13.0162 16.1784 12.8734 15.9652 12.8734H13.7679C13.6106 11.8692 13.6105 10.8469 13.7679 9.84266ZM23.2607 17.4677C24.8813 17.4677 26.4354 16.824 27.5813 15.678C28.7272 14.5324 29.3712 12.9779 29.3712 11.3574C29.371 9.73687 28.7273 8.1828 27.5813 7.03687C26.4351 5.89094 24.8809 5.24751 23.2604 5.24751C21.6399 5.24779 20.0858 5.89176 18.9399 7.03794C17.7942 8.18387 17.1508 9.7383 17.1511 11.3588C17.1528 12.9788 17.797 14.5318 18.9424 15.6772C20.0877 16.8225 21.6407 17.4671 23.2607 17.4687V17.4677ZM23.2607 6.19337C24.631 6.19337 25.9452 6.73773 26.9142 7.70651C27.8829 8.67551 28.4273 9.98973 28.4273 11.3599C28.4273 12.7302 27.8829 14.0444 26.9142 15.0134C25.9452 15.9821 24.6309 16.5265 23.2607 16.5265C21.8905 16.5265 20.5763 15.9821 19.6073 15.0134C18.6383 14.0444 18.0939 12.7302 18.0939 11.3599C18.0955 9.99023 18.6402 8.67694 19.6089 7.70873C20.5777 6.74023 21.891 6.19558 23.2607 6.19451V6.19337ZM22.184 12.7305C22.2049 12.9749 22.4095 13.163 22.655 13.163H23.8671C24.1123 13.163 24.3171 12.9749 24.3378 12.7305L24.7543 7.85551C24.7736 7.6217 24.6938 7.39067 24.5345 7.21823C24.3752 7.04608 24.1511 6.94843 23.9165 6.94926H22.6037C22.3693 6.94898 22.1455 7.0472 21.9868 7.21935C21.828 7.39178 21.7485 7.62281 21.7677 7.85635L22.184 12.7305ZM23.8023 7.89373L23.4332 12.2174H23.0891L22.7194 7.89373H23.8023ZM23.2683 13.4908C22.9555 13.4908 22.6555 13.615 22.4343 13.8359C22.213 14.0569 22.0886 14.3569 22.0886 14.6697C22.0886 14.9824 22.2127 15.2824 22.4337 15.5037C22.655 15.7249 22.9549 15.8491 23.2677 15.8491C23.5805 15.8491 23.8804 15.7249 24.1014 15.5039C24.3227 15.2827 24.4468 14.9827 24.4468 14.6699C24.4466 14.3574 24.3221 14.0578 24.1011 13.8368C23.8802 13.6158 23.5807 13.4914 23.2683 13.4908ZM23.2683 14.9037C23.1737 14.9037 23.0883 14.8468 23.0523 14.7595C23.016 14.6721 23.0361 14.5714 23.1028 14.5047C23.1698 14.4378 23.2702 14.4177 23.3575 14.454C23.4449 14.4902 23.5018 14.5753 23.5018 14.6699C23.501 14.7983 23.3966 14.9021 23.2683 14.9021L23.2683 14.9037Z" fill="black"></path>
                            </svg>