<svg width="38" height="38" viewBox="0 0 40 40" fill="none" xmlns="http://www.w3.org/2000/svg">
<g clip-path="url(#clip0_3369_10660)">
<path fill-rule="evenodd" clip-rule="evenodd" d="M37.1794 28.9916C38.3306 30.0914 39.0479 31.6419 39.0479 33.3599V37.8574C39.0479 38.7104 38.3564 39.4019 37.5033 39.4019H28.5085C27.6554 39.4019 26.9639 38.7104 26.9639 37.8574V33.3599C26.9639 31.6419 27.6811 30.0914 28.8324 28.9916C29.9061 30.0498 31.3801 30.7029 33.0059 30.7029C34.6312 30.7029 36.1053 30.0498 37.1794 28.9916ZM10.276 21.2981V32.5793H25.459C25.4328 32.836 25.4194 33.0966 25.4194 33.3599V34.1318H9.49975C9.07124 34.1318 8.72351 33.7841 8.72351 33.3556V21.2981H10.276ZM33.0059 20.3504C30.575 20.3504 28.6019 22.3239 28.6019 24.7544C28.6019 27.1853 30.575 29.1583 33.0059 29.1583C35.4364 29.1583 37.4099 27.1853 37.4099 24.7544C37.4099 22.3239 35.4364 20.3504 33.0059 20.3504ZM15.5001 10.1298V15.537H15.7837C16.2998 15.537 16.7944 15.7417 17.1592 16.1065C17.5243 16.4712 17.7291 16.9663 17.7291 17.4819V17.8082C17.7291 18.3243 17.5243 18.8189 17.1592 19.1837C16.7944 19.5484 16.2998 19.7536 15.7837 19.7536H3.21579C2.69975 19.7536 2.2051 19.5484 1.84035 19.1837C1.47559 18.8189 1.27045 18.3243 1.27045 17.8082V17.4819C1.27045 16.9663 1.47559 16.4712 1.84035 16.1065C2.2051 15.7417 2.69975 15.537 3.21579 15.537H3.51243V10.1298H2.50569C1.86569 10.1298 1.29144 9.73736 1.05896 9.14092C0.826881 8.54449 0.984109 7.86686 1.45579 7.43399L8.45619 1.00667C9.04985 0.46132 9.96233 0.46132 10.556 1.00667L17.5564 7.43399C18.0281 7.86686 18.1857 8.54449 17.9532 9.14092C17.7211 9.73736 17.1465 10.1298 16.5065 10.1298H15.5001ZM17.0447 11.4653H33.0059C33.4344 11.4653 33.7821 11.8126 33.7821 12.2415V18.8562C33.5279 18.8233 33.2689 18.8059 33.0059 18.8059C32.7429 18.8059 32.4839 18.8233 32.2297 18.8562V13.0178H17.0447V11.4653ZM5.85698 10.1298V15.537H8.33381V10.1298H5.85698ZM10.6784 10.1298V15.537H13.1556V10.1298H10.6784Z" fill="black"/>
</g>
<defs>
<clipPath id="clip0_3369_10660">
<rect width="40" height="40" fill="white"/>
</clipPath>
</defs>
</svg>