<svg width="36" height="38" viewBox="0 0 36 38" fill="none" xmlns="http://www.w3.org/2000/svg">
                                <path d="M7.02734 11.4188L9.97713 14.368L7.02734 17.3181L7.91156 18.2017L11.7447 14.368L7.91156 10.5352L7.02734 11.4188Z" fill="black"></path>
                                <path d="M13.0156 12.0176H16.0611V13.2676H13.0156V12.0176Z" fill="black"></path>
                                <path d="M17.957 12.0176H22.4916V13.2676H17.957V12.0176Z" fill="black"></path>
                                <path d="M24.9375 12.0176H25.7358V13.2676H24.9375V12.0176Z" fill="black"></path>
                                <path d="M27.9922 12.0176H28.9793V13.2676H27.9922V12.0176Z" fill="black"></path>
                                <path d="M25.9336 13.7441H28.9785V14.9941H25.9336V13.7441Z" fill="black"></path>
                                <path d="M19.5078 13.7441H24.0416V14.9941H19.5078V13.7441Z" fill="black"></path>
                                <path d="M16.2617 13.7441H17.0606V14.9941H16.2617V13.7441Z" fill="black"></path>
                                <path d="M13.0156 13.7441H14.0036V14.9941H13.0156V13.7441Z" fill="black"></path>
                                <path d="M13.0156 15.4688H16.0611V16.7188H13.0156V15.4688Z" fill="black"></path>
                                <path d="M17.957 15.4688H22.4916V16.7188H17.957V15.4688Z" fill="black"></path>
                                <path d="M24.9375 15.4688H25.7358V16.7188H24.9375V15.4688Z" fill="black"></path>
                                <path d="M27.9922 15.4688H28.9793V16.7188H27.9922V15.4688Z" fill="black"></path>
                                <path d="M7.46875 18.9844H11.5717V20.2344H7.46875V18.9844Z" fill="black"></path>
                                <path d="M14.125 18.9844H20.2349V20.2344H14.125V18.9844Z" fill="black"></path>
                                <path d="M23.5312 18.9844H24.6071V20.2344H23.5312V18.9844Z" fill="black"></path>
                                <path d="M27.6484 18.9844H28.9785V20.2344H27.6484V18.9844Z" fill="black"></path>
                                <path d="M24.8789 21.3086H28.9813V22.5586H24.8789V21.3086Z" fill="black"></path>
                                <path d="M16.2148 21.3086H22.3239V22.5586H16.2148V21.3086Z" fill="black"></path>
                                <path d="M11.8398 21.3086H12.9157V22.5586H11.8398V21.3086Z" fill="black"></path>
                                <path d="M7.46875 21.3086H8.79911V22.5586H7.46875V21.3086Z" fill="black"></path>
                                <path d="M7.46875 23.6328H11.5717V24.8828H7.46875V23.6328Z" fill="black"></path>
                                <path d="M14.125 23.6328H17.2497V24.8828H14.125V23.6328Z" fill="black"></path>
                                <path d="M23.5312 23.6328H24.6071V24.8828H23.5312V23.6328Z" fill="black"></path>
                                <path d="M27.6484 23.6328H28.9785V24.8828H27.6484V23.6328Z" fill="black"></path>
                                <path d="M18.2245 0.64263C15.0379 0.64263 11.9324 1.52713 9.24595 3.19984L9.01101 3.34605C4.11009 6.50062 1.18459 11.8603 1.18459 17.6832C1.18459 24.3277 4.94237 30.2303 10.861 33.0518C8.68187 34.1826 6.25473 34.7883 3.77316 34.8138H3.6077V34.8154L0.714844 34.845L3.5402 36.0163C3.5628 36.0255 3.58512 36.0333 3.60772 36.0425V36.0643H3.66353C5.69731 36.8888 7.84824 37.3093 10.0603 37.3093C13.2857 37.3093 16.4186 36.4064 19.1317 34.6969C28.1932 34.2284 35.2653 26.7876 35.2653 17.6833C35.2656 8.28758 27.621 0.642578 18.2253 0.642578L18.2245 0.64263ZM18.9095 33.4562L18.7399 33.4632L18.597 33.555C16.054 35.1934 13.102 36.0592 10.0599 36.0592C8.99037 36.0592 7.93572 35.9537 6.90444 35.7447C8.91451 35.3497 10.8403 34.5944 12.5867 33.5059L13.6447 32.8463L12.4834 32.3929C6.37872 30.0104 2.43408 24.2357 2.43408 17.6829C2.43408 12.2869 5.14529 7.32073 9.67908 4.40216L9.9062 4.26126C12.3953 2.7119 15.272 1.89268 18.2248 1.89268C26.9312 1.89268 34.0155 8.97611 34.0155 17.6834C34.0155 26.1727 27.3804 33.1005 18.9098 33.457L18.9095 33.4562Z" fill="black"></path>
                            </svg>