<svg width="38" height="38" viewBox="0 0 32 38" fill="none" xmlns="http://www.w3.org/2000/svg">
                                <path d="M28.5 0.267578H1C0.654857 0.267578 0.375 0.547435 0.375 0.892578V34.6426C0.375 34.8083 0.440849 34.9674 0.558036 35.0845C0.675223 35.2017 0.834264 35.2676 1 35.2676H2.875V37.1426C2.875 37.3083 2.94085 37.4674 3.05804 37.5845C3.17522 37.7017 3.33426 37.7676 3.5 37.7676H31C31.1657 37.7676 31.3248 37.7017 31.442 37.5845C31.5592 37.4674 31.625 37.3083 31.625 37.1426V3.39258C31.625 3.22684 31.5592 3.0678 31.442 2.95061C31.3248 2.83343 31.1657 2.76758 31 2.76758H29.125V0.892578C29.125 0.726842 29.0592 0.5678 28.942 0.450614C28.8248 0.333428 28.6657 0.267578 28.5 0.267578ZM1.625 1.51758H27.875V34.0176H1.625V1.51758ZM30.375 4.01758V36.5176H4.125V35.2676H28.5C28.6657 35.2676 28.8248 35.2017 28.942 35.0845C29.0592 34.9674 29.125 34.8083 29.125 34.6426V4.01758H30.375Z" fill="black"></path>
                                <path d="M26.4384 26.0759C26.3212 25.9587 26.1622 25.8929 25.9965 25.8929C25.8307 25.8929 25.6717 25.9587 25.5545 26.0759L25.3893 26.2411V26.2414C24.453 25.394 23.1527 25.0759 21.9312 25.3951C20.7094 25.714 19.7308 26.6272 19.3282 27.8242C18.9256 29.0209 19.1536 30.3401 19.934 31.3326C20.7147 32.3251 21.9429 32.8571 23.201 32.748C24.4588 32.6389 25.5771 31.9031 26.1751 30.791C26.773 29.6789 26.7702 28.3401 26.1675 27.2307L26.4385 26.9598C26.5556 26.8426 26.6215 26.6836 26.6215 26.5178C26.6215 26.3521 26.5556 26.1931 26.4384 26.0759ZM25.3714 29.0179C25.3728 29.786 25.0215 30.5123 24.4186 30.988C23.8156 31.464 23.0276 31.6368 22.2807 31.4571C21.5341 31.2774 20.911 30.7648 20.5907 30.0667C20.2704 29.3683 20.2882 28.562 20.639 27.8786C20.9897 27.1953 21.6348 26.7106 22.3887 26.5639C23.1429 26.4172 23.9225 26.6248 24.5036 27.1267L22.8713 28.759L22.6883 28.576C22.4442 28.3318 22.0485 28.3318 21.8044 28.576C21.5602 28.8201 21.5602 29.2157 21.8044 29.4599L22.4294 30.0849C22.5466 30.2021 22.7056 30.2679 22.8713 30.2679C23.0371 30.2679 23.1961 30.2021 23.3133 30.0849L25.2243 28.1742C25.3217 28.4448 25.3716 28.7303 25.3713 29.0179L25.3714 29.0179Z" fill="black"></path>
                                <path d="M25.375 18.3926C25.5407 18.3926 25.6998 18.3267 25.817 18.2095C25.9342 18.0924 26 17.9333 26 17.7676V4.01758C26 3.67244 25.7201 3.39258 25.375 3.39258C25.0299 3.39258 24.75 3.67244 24.75 4.01758V17.1426H4.125C3.77986 17.1426 3.5 17.4224 3.5 17.7676C3.5 18.1127 3.77986 18.3926 4.125 18.3926H25.375Z" fill="black"></path>
                                <path d="M24.75 20.2676H4.125C3.77986 20.2676 3.5 20.5474 3.5 20.8926C3.5 21.2377 3.77986 21.5176 4.125 21.5176H24.75C25.0951 21.5176 25.375 21.2377 25.375 20.8926C25.375 20.5474 25.0951 20.2676 24.75 20.2676Z" fill="black"></path>
                                <path d="M24.75 22.7676H4.125C3.77986 22.7676 3.5 23.0474 3.5 23.3926C3.5 23.7377 3.77986 24.0176 4.125 24.0176H24.75C25.0951 24.0176 25.375 23.7377 25.375 23.3926C25.375 23.0474 25.0951 22.7676 24.75 22.7676Z" fill="black"></path>
                                <path d="M17.25 25.2676H4.125C3.77986 25.2676 3.5 25.5474 3.5 25.8926C3.5 26.2377 3.77986 26.5176 4.125 26.5176H17.25C17.5951 26.5176 17.875 26.2377 17.875 25.8926C17.875 25.5474 17.5951 25.2676 17.25 25.2676Z" fill="black"></path>
                                <path d="M17.25 27.7676H4.125C3.77986 27.7676 3.5 28.0474 3.5 28.3926C3.5 28.7377 3.77986 29.0176 4.125 29.0176H17.25C17.5951 29.0176 17.875 28.7377 17.875 28.3926C17.875 28.0474 17.5951 27.7676 17.25 27.7676Z" fill="black"></path>
                                <path d="M17.25 30.2676H4.125C3.77986 30.2676 3.5 30.5474 3.5 30.8926C3.5 31.2377 3.77986 31.5176 4.125 31.5176H17.25C17.5951 31.5176 17.875 31.2377 17.875 30.8926C17.875 30.5474 17.5951 30.2676 17.25 30.2676Z" fill="black"></path>
                                <path d="M4.125 4.01758H6.625C6.97014 4.01758 7.25 3.73772 7.25 3.39258C7.25 3.04744 6.97014 2.76758 6.625 2.76758H4.125C3.77986 2.76758 3.5 3.04744 3.5 3.39258C3.5 3.73772 3.77986 4.01758 4.125 4.01758Z" fill="black"></path>
                                <path d="M4.125 6.51758H6.625C6.97014 6.51758 7.25 6.23772 7.25 5.89258C7.25 5.54744 6.97014 5.26758 6.625 5.26758H4.125C3.77986 5.26758 3.5 5.54744 3.5 5.89258C3.5 6.23772 3.77986 6.51758 4.125 6.51758Z" fill="black"></path>
                                <path d="M22.8749 4.6426H20.9999C20.6548 4.6426 20.3749 4.92246 20.3749 5.2676C20.3749 5.61275 20.6548 5.8926 20.9999 5.8926H21.5744L20.0744 7.7676H19.0175C18.8467 7.28155 18.4834 6.88703 18.0133 6.67689C17.5428 6.46651 17.0066 6.45925 16.5306 6.65652C16.0548 6.85351 15.6809 7.23799 15.4968 7.71902C15.3129 8.20033 15.3349 8.73602 15.5582 9.20031L14.3082 10.4503C13.8282 10.221 13.2736 10.2064 12.7822 10.4098C12.2912 10.6135 11.9094 11.0162 11.7323 11.5176H9.64244C9.47168 11.0315 9.1084 10.637 8.63822 10.4268C8.1678 10.2165 7.63151 10.2092 7.15551 10.4065C6.67978 10.6035 6.30587 10.988 6.12172 11.469C5.93785 11.9503 5.95989 12.486 6.18311 12.9503L4.30811 14.8253C4.06396 15.0694 4.06396 15.4653 4.30811 15.7092C4.55197 15.9533 4.94789 15.9533 5.19204 15.7092L7.06704 13.8342C7.54666 14.0635 8.10111 14.0783 8.59239 13.8749C9.08346 13.6712 9.46518 13.2689 9.64232 12.7675H11.7325H11.7322C11.9029 13.2536 12.2662 13.6481 12.7364 13.8582C13.2068 14.0686 13.7431 14.0759 14.2191 13.8786C14.6948 13.6816 15.0688 13.2971 15.2529 12.8161C15.4368 12.3348 15.4147 11.7991 15.1915 11.3348L16.4415 10.0848C16.9214 10.3141 17.4761 10.3287 17.9674 10.1253C18.4585 9.92157 18.8402 9.51895 19.0174 9.01754H20.3748C20.5645 9.01754 20.7442 8.93133 20.8628 8.78317L22.2498 7.04939V7.14258C22.2498 7.48772 22.5297 7.76758 22.8748 7.76758C23.2199 7.76758 23.4998 7.48772 23.4998 7.14258V5.26758C23.4998 5.10184 23.434 4.9428 23.3168 4.82561C23.1996 4.70843 23.0405 4.64258 22.8748 4.64258L22.8749 4.6426ZM7.87491 12.7676C7.62212 12.7676 7.39416 12.6153 7.29762 12.3817C7.2008 12.1482 7.2541 11.8795 7.43295 11.7006C7.61179 11.5218 7.88049 11.4685 8.11403 11.5653C8.34757 11.6619 8.49991 11.8898 8.49991 12.1426C8.49963 12.4877 8.22005 12.7673 7.87491 12.7676ZM13.4999 12.7676C13.2471 12.7676 13.0192 12.6153 12.9226 12.3817C12.8258 12.1482 12.8791 11.8795 13.0579 11.7006C13.2368 11.5218 13.5055 11.4685 13.739 11.5653C13.9726 11.6619 14.1249 11.8898 14.1249 12.1426C14.1246 12.4877 13.8451 12.7673 13.4999 12.7676ZM17.2499 9.0176C16.9971 9.0176 16.7692 8.86526 16.6726 8.63173C16.5758 8.39819 16.6291 8.1295 16.8079 7.95064C16.9868 7.77178 17.2555 7.7185 17.489 7.81532C17.7226 7.91186 17.8749 8.13982 17.8749 8.3926C17.8746 8.73775 17.5951 9.01733 17.2499 9.0176Z" fill="black"></path>
                            </svg>