<svg width="38" height="38" viewBox="0 0 50 50" fill="none" xmlns="http://www.w3.org/2000/svg">
<g clip-path="url(#clip0_3620_16307)">
<path d="M33.442 24.1243H30.7069C30.5144 24.1243 30.3299 24.2033 30.197 24.3433C30.0644 24.4832 29.9951 24.6714 30.0051 24.8639C30.0051 24.9045 30.0078 24.9446 30.0078 24.9858C29.9954 25.8604 29.5216 26.6629 28.7623 27.0965C28.0029 27.5301 27.0708 27.5301 26.3114 27.0965C25.552 26.6629 25.0782 25.8604 25.0659 24.9858C25.0659 24.944 25.0659 24.9018 25.0689 24.8606C25.0776 24.6687 25.0076 24.4812 24.875 24.3423C24.7424 24.2033 24.5586 24.1247 24.3664 24.1243H22.2949V22.2437C23.5404 22.0696 24.6242 21.3022 25.2018 20.1848C25.7797 19.0679 25.7797 17.74 25.2018 16.6226C24.6242 15.5057 23.5404 14.7379 22.2949 14.5637V11.9813C22.2949 11.5932 21.9801 11.2785 21.5921 11.2785C18.2545 11.2825 15.0547 12.6104 12.6949 14.9705C10.3351 17.331 9.00751 20.5309 9.00391 23.8685C9.00391 24.2087 9.01797 24.5506 9.04475 24.8841C9.23159 27.283 10.1051 29.5776 11.5609 31.4934C13.0167 33.4096 14.9932 34.8661 17.2542 35.689V37.2999C16.7523 37.6491 16.4654 38.2324 16.4955 38.8431C16.5253 39.4541 16.8675 40.0066 17.4015 40.3053C17.3245 40.5038 17.2846 40.7148 17.283 40.9277C17.2836 41.2823 17.3898 41.6288 17.5877 41.9231C17.7855 42.2174 18.0665 42.4464 18.3946 42.5807C18.5235 43.6314 19.16 44.5518 20.0975 45.0433C21.035 45.5345 22.1536 45.5345 23.0911 45.0433C24.0287 44.5517 24.6651 43.6313 24.794 42.5807C25.1221 42.4464 25.4031 42.2174 25.6009 41.9231C25.7988 41.6288 25.905 41.2823 25.9053 40.9277C25.904 40.7148 25.8641 40.5038 25.7878 40.3053C26.3211 40.0059 26.6633 39.4535 26.6931 38.8428C26.7228 38.2321 26.4359 37.6488 25.934 37.2993V35.6891C28.1954 34.8661 30.1718 33.4093 31.6277 31.4935C33.0831 29.5774 33.9567 27.2828 34.1432 24.8835C34.1583 24.6883 34.0913 24.4954 33.9584 24.3518C33.8252 24.2078 33.6383 24.1258 33.4425 24.1258L33.442 24.1243ZM20.89 12.7055V15.2321C20.89 15.4249 20.9694 15.6091 21.1094 15.7417C21.248 15.8763 21.4368 15.9462 21.6297 15.9342C21.6702 15.9322 21.7104 15.9312 21.7509 15.9312H21.7512C22.4125 15.9218 23.0503 16.1779 23.5214 16.6423C23.9925 17.1067 24.2576 17.7408 24.2576 18.4021C24.2576 19.0637 23.9925 19.6975 23.5214 20.1623C23.0503 20.6267 22.4124 20.8828 21.7512 20.8731C21.7107 20.8731 21.6705 20.8731 21.63 20.8704L21.6297 20.8708C21.4371 20.8607 21.2493 20.9304 21.1094 21.0629C20.9694 21.1955 20.8904 21.3797 20.89 21.5725V24.1222H19.5082C19.3338 22.8767 18.5664 21.7928 17.4494 21.2153C16.3321 20.6374 15.0042 20.6374 13.8869 21.2153C12.77 21.7929 12.0026 22.8767 11.8281 24.1222H10.4124C10.4124 24.0368 10.4094 23.9514 10.4094 23.8664C10.4131 21.0234 11.4986 18.2883 13.4449 16.2157C15.3912 14.1431 18.0527 12.889 20.8899 12.7067L20.89 12.7055ZM10.5323 25.53H12.499C12.6912 25.5304 12.875 25.4517 13.0076 25.3124C13.1406 25.1734 13.2105 24.9859 13.2012 24.7941C13.2012 24.7526 13.1982 24.7107 13.1982 24.6692C13.1888 24.0076 13.4449 23.3701 13.9093 22.899C14.3737 22.4279 15.0078 22.1628 15.6691 22.1628C16.3307 22.1628 16.9645 22.4279 17.4289 22.899C17.8936 23.3701 18.1498 24.0077 18.1401 24.6692C18.1401 24.7107 18.1401 24.7526 18.1371 24.7941C18.1307 24.9364 18.1679 25.0773 18.2432 25.1982C18.2686 25.2384 18.2981 25.2762 18.3313 25.3107C18.4304 25.4138 18.5583 25.4841 18.6979 25.5129C18.7444 25.5227 18.792 25.5277 18.8395 25.5277H20.8903V26.6969C19.6457 26.872 18.563 27.6398 17.9861 28.7564C17.4088 29.8733 17.4088 31.2003 17.9861 32.3172C18.563 33.4338 19.6457 34.2015 20.8903 34.3767V36.9685L18.66 36.9688V35.1852C18.6604 34.8795 18.4631 34.609 18.1719 34.5155C16.185 33.8837 14.4155 32.7065 13.0648 31.1177C11.7141 29.5294 10.8369 27.5938 10.5326 25.5309L10.5323 25.53ZM25.2855 38.7575H25.2858C25.2831 38.9671 25.1137 39.1365 24.9044 39.1392H18.2807C18.0701 39.1392 17.8993 38.9684 17.8993 38.7575C17.8993 38.5469 18.0701 38.3761 18.2807 38.3761H24.9058C25.1157 38.3788 25.2852 38.5485 25.2872 38.7585L25.2855 38.7575ZM24.4956 40.9265L24.496 40.9268C24.4936 41.1364 24.3242 41.3058 24.1146 41.3088H19.0699C18.8646 41.3011 18.7019 41.1324 18.7019 40.9268C18.7019 40.7212 18.8646 40.5528 19.0699 40.5451H24.116C24.3259 40.5478 24.4953 40.7179 24.4977 40.9278L24.4956 40.9265ZM21.5914 44.0051H21.5917C21.2341 44.0041 20.8842 43.898 20.5865 43.6998C20.2885 43.5016 20.0558 43.22 19.9169 42.8902H23.2718C23.1329 43.2207 22.8995 43.5029 22.6009 43.7015C22.3022 43.9 21.952 44.0061 21.5934 44.0061L21.5914 44.0051ZM25.0143 34.5183C24.7233 34.6114 24.5261 34.8822 24.5265 35.1876V36.9712H22.2962V33.7104C22.2958 33.5199 22.2182 33.3374 22.0809 33.2052C21.9439 33.0712 21.7578 33.0002 21.5666 33.0086L21.4357 33.0123V33.012C20.5527 33.012 19.7368 32.5412 19.2955 31.7765C18.8539 31.0117 18.8539 30.0699 19.2955 29.3052C19.7368 28.5408 20.5527 28.0697 21.4357 28.0697C21.4772 28.0697 21.5184 28.0697 21.5599 28.0727C21.7524 28.0861 21.9416 28.0154 22.0782 27.8792C22.2175 27.7466 22.2962 27.5628 22.2962 27.3702V25.5311H23.6974H23.6971C23.8725 26.7759 24.6403 27.8584 25.7569 28.4353C26.8735 29.0126 28.2008 29.0126 29.3174 28.4353C30.434 27.8584 31.2017 26.776 31.3772 25.5311H32.6545C32.3505 27.5942 31.4733 29.5308 30.1222 31.1195C28.7716 32.7086 27.0017 33.8861 25.0142 34.5183H25.0143ZM28.5483 5C28.3618 5 28.1827 5.074 28.0507 5.20591C27.9192 5.33783 27.8448 5.51663 27.8448 5.70346V8.95623C27.8448 9.14875 27.9235 9.33257 28.0625 9.46549C28.2018 9.59842 28.3893 9.6684 28.5814 9.65902C28.6223 9.65902 28.6638 9.65533 28.7053 9.65533C29.5883 9.65533 30.4042 10.1264 30.8455 10.8912C31.2872 11.6556 31.2872 12.5977 30.8455 13.3625C30.4042 14.1269 29.5883 14.598 28.7053 14.598C28.6665 14.598 28.627 14.598 28.5881 14.5949C28.3949 14.5822 28.2051 14.6512 28.0651 14.7855C27.9245 14.9184 27.8448 15.1032 27.8448 15.2967V18.5502C27.8448 18.9386 28.1599 19.2533 28.5483 19.2533H30.6523C30.8264 20.4988 31.5938 21.5827 32.7112 22.1602C33.8281 22.7381 35.156 22.7381 36.2734 22.1602C37.3903 21.5827 38.1581 20.4988 38.3322 19.2533H40.3987C40.7653 19.2533 41.0704 18.9717 41.0995 18.6061C41.1263 18.2679 41.14 17.9264 41.14 17.5906C41.1363 14.2524 39.8084 11.0518 37.448 8.6917C35.0875 6.33122 31.8866 5.00368 28.5482 5.00033L28.5483 5ZM39.7289 17.8469H37.662C37.4702 17.8469 37.2867 17.9252 37.1541 18.0635C37.0215 18.2021 36.9512 18.3886 36.9596 18.5801C36.9596 18.622 36.9626 18.6652 36.9626 18.7073C36.9626 19.5903 36.4915 20.4062 35.7271 20.8475C34.9624 21.2888 34.0205 21.2888 33.2558 20.8475C32.4911 20.4063 32.0203 19.5903 32.0203 18.7073C32.0203 18.6675 32.0203 18.6267 32.0233 18.5865C32.0334 18.3939 31.9641 18.2058 31.8315 18.0658C31.6985 17.9259 31.5141 17.8468 31.3212 17.8468H29.2497V15.9658C30.4945 15.7904 31.577 15.0226 32.1543 13.906C32.7312 12.7894 32.7312 11.4622 32.1543 10.3456C31.577 9.22896 30.4946 8.46122 29.2497 8.28576V6.42653C32.0879 6.60834 34.7505 7.86362 36.6975 9.93679C38.6441 12.01 39.7289 14.7465 39.7319 17.5905C39.7319 17.6782 39.7309 17.7612 39.7289 17.847L39.7289 17.8469Z" fill="black"/>
</g>
<defs>
<clipPath id="clip0_3620_16307">
<rect width="50" height="50" fill="white"/>
</clipPath>
</defs>
</svg>