<svg width="40" height="40" viewBox="0 0 40 40" fill="none" xmlns="http://www.w3.org/2000/svg">
                                <path d="M3.125 39.2285H15.625C16.2879 39.2285 16.9239 38.9651 17.3929 38.4964C17.8616 38.0273 18.125 37.3914 18.125 36.7285V12.9785C18.125 12.3156 17.8616 11.6797 17.3929 11.2107C16.9238 10.7419 16.2879 10.4785 15.625 10.4785H3.125C2.46206 10.4785 1.82614 10.7419 1.35714 11.2107C0.888393 11.6797 0.625 12.3156 0.625 12.9785V36.7285C0.625 37.3915 0.888393 38.0274 1.35714 38.4964C1.82617 38.9651 2.46207 39.2285 3.125 39.2285ZM11.6329 11.7285L11.4242 12.3535H7.32537L7.11666 11.7285H11.6329ZM1.875 12.9785C1.875 12.647 2.0067 12.329 2.24107 12.0946C2.47544 11.8602 2.79353 11.7285 3.125 11.7285H5.79936L6.28178 13.1761C6.36688 13.4314 6.60572 13.6035 6.87497 13.6035H11.875C12.1442 13.6035 12.3831 13.4314 12.4682 13.1761L12.9506 11.7285H15.6249C15.9564 11.7285 16.2745 11.8602 16.5089 12.0946C16.7432 12.329 16.8749 12.647 16.8749 12.9785V36.7285C16.8749 37.06 16.7432 37.3781 16.5089 37.6124C16.2745 37.8468 15.9564 37.9785 15.6249 37.9785H3.12494C2.79347 37.9785 2.47539 37.8468 2.24101 37.6124C2.00664 37.3781 1.87494 37.06 1.87494 36.7285L1.875 12.9785Z" fill="black"></path>
                                <path d="M3.75009 34.854H10.0001C10.1658 34.854 10.3249 34.7882 10.442 34.671C10.5592 34.5538 10.6251 34.3948 10.6251 34.229V29.854C10.6234 29.2522 10.4041 28.6712 10.0079 28.2185C9.61169 27.7653 9.06511 27.471 8.46883 27.389C9.00064 26.9489 9.32683 26.3086 9.37004 25.6197C9.41357 24.9308 9.16999 24.2547 8.69733 23.7514C8.22495 23.2483 7.56533 22.9629 6.87504 22.9629C6.18476 22.9629 5.52519 23.2483 5.05276 23.7514C4.5801 24.2547 4.33654 24.9308 4.38004 25.6197C4.42329 26.3086 4.74946 26.9489 5.28126 27.389C4.68499 27.471 4.1384 27.7654 3.74219 28.2185C3.34598 28.6713 3.12667 29.2522 3.125 29.854V34.229C3.125 34.3948 3.19085 34.5538 3.30804 34.671C3.42522 34.7882 3.58426 34.854 3.75 34.854H3.75009ZM6.87509 24.229C7.20656 24.229 7.52464 24.3607 7.75901 24.5951C7.99339 24.8295 8.12509 25.1476 8.12509 25.479C8.12509 25.8105 7.99339 26.1286 7.75901 26.363C7.52464 26.5973 7.20656 26.729 6.87509 26.729C6.54361 26.729 6.22553 26.5973 5.99116 26.363C5.75679 26.1286 5.62509 25.8105 5.62509 25.479C5.62509 25.1476 5.75679 24.8295 5.99116 24.5951C6.22553 24.3607 6.54361 24.229 6.87509 24.229ZM4.37509 29.854C4.37509 29.5226 4.50679 29.2045 4.74116 28.9701C4.97553 28.7357 5.29361 28.604 5.62509 28.604H8.12509C8.45656 28.604 8.77464 28.7357 9.00901 28.9701C9.24339 29.2045 9.37509 29.5226 9.37509 29.854V33.604H4.37509V29.854Z" fill="black"></path>
                                <path d="M9.37496 21.1036H9.99996V22.3536C9.99996 22.6063 10.1523 22.834 10.3858 22.9308C10.6194 23.0277 10.8881 22.9741 11.0669 22.7955L12.7586 21.1035H15C15.1657 21.1035 15.3248 21.0377 15.442 20.9205C15.5591 20.8033 15.625 20.6443 15.625 20.4785V16.7285C15.625 16.5628 15.5592 16.4037 15.442 16.2866C15.3248 16.1694 15.1657 16.1035 15 16.1035H9.375C9.02986 16.1035 8.75 16.3834 8.75 16.7285V20.4785C8.75 20.6443 8.81585 20.8033 8.93304 20.9205C9.05022 21.0377 9.20923 21.1036 9.37496 21.1036ZM9.99996 17.3536H14.375V19.8536H12.5C12.3342 19.8536 12.1752 19.9194 12.058 20.0366L11.25 20.8449V20.4785C11.25 20.3128 11.1842 20.1537 11.067 20.0366C10.9498 19.9194 10.7907 19.8535 10.625 19.8535H10L9.99996 17.3536Z" fill="black"></path>
                                <path d="M33.75 11.1035C35.0761 11.1035 36.3479 10.5767 37.2854 9.63894C38.2232 8.70144 38.75 7.42966 38.75 6.10352C38.75 4.77737 38.2232 3.50559 37.2854 2.56809C36.3479 1.6303 35.0761 1.10352 33.75 1.10352C32.4239 1.10352 31.1521 1.6303 30.2146 2.56809C29.2768 3.50559 28.75 4.77737 28.75 6.10352C28.7514 7.42916 29.2787 8.70009 30.2162 9.6373C31.1534 10.5748 32.4244 11.1022 33.75 11.1035ZM33.75 2.35352C34.7447 2.35352 35.6984 2.7486 36.4018 3.45173C37.1049 4.15514 37.5 5.1088 37.5 6.10352C37.5 7.09823 37.1049 8.05187 36.4018 8.7553C35.6984 9.45843 34.7447 9.85352 33.75 9.85352C32.7553 9.85352 31.8016 9.45843 31.0982 8.7553C30.3951 8.05189 30 7.09823 30 6.10352C30.0011 5.10937 30.3965 4.15594 31.0994 3.45287C31.8025 2.75003 32.7559 2.35466 33.75 2.35352Z" fill="black"></path>
                                <path d="M34.0625 7.35356H33.4375C33.2648 7.35356 33.125 7.21377 33.125 7.04106H31.875C31.875 7.40127 31.9994 7.75004 32.2274 8.02906C32.4551 8.30807 32.772 8.49976 33.125 8.57175V9.22856H34.375V8.57175C34.885 8.46712 35.3094 8.11528 35.5067 7.63368C35.7042 7.15209 35.6487 6.60354 35.3591 6.17104C35.0692 5.73884 34.5832 5.47907 34.0625 5.47852H33.4375C33.2648 5.47852 33.125 5.33873 33.125 5.16602C33.125 4.9933 33.2648 4.85352 33.4375 4.85352H34.0625C34.1454 4.85352 34.2249 4.88644 34.2835 4.94503C34.3421 5.00362 34.375 5.08314 34.375 5.16602H35.625C35.625 4.8058 35.5006 4.45703 35.2726 4.17802C35.0449 3.899 34.728 3.70732 34.375 3.63532V2.97852H33.125V3.63532C32.615 3.73995 32.1906 4.09179 31.9933 4.57339C31.7958 5.05498 31.8513 5.60354 32.1409 6.03604C32.4308 6.46824 32.9169 6.728 33.4375 6.72856H34.0625C34.2352 6.72856 34.375 6.86834 34.375 7.04106C34.375 7.21377 34.2352 7.35356 34.0625 7.35356Z" fill="black"></path>
                                <path d="M38.9491 21.1811C38.7538 21.0729 38.5155 21.0768 38.3241 21.1917L36.7928 22.1091L31.8014 12.6856C31.6586 12.4155 31.3413 12.2883 31.0514 12.3848L25.9052 14.103L18.0374 0.785156L16.9609 1.42131L25.0859 15.1713C25.2358 15.4249 25.5424 15.5393 25.8217 15.4464L30.9467 13.7383L35.721 22.7526L34.0372 23.7601L34.0374 23.7598C33.846 23.8742 33.7302 24.0821 33.7333 24.3047C33.7364 24.5277 33.858 24.7319 34.0522 24.841L38.4448 27.3103V27.3106C38.6401 27.4194 38.8789 27.4157 39.0709 27.3005C39.2626 27.1855 39.3784 26.9766 39.3742 26.7531L39.2718 21.7149C39.2671 21.4922 39.144 21.2888 38.9493 21.1811L38.9491 21.1811ZM35.6017 24.2793L38.0437 22.8175L38.1018 25.685L35.6017 24.2793Z" fill="black"></path>
                                <path d="M31.25 36.7285C31.4157 36.7285 31.5748 36.6627 31.692 36.5455C31.8092 36.4283 31.875 36.2693 31.875 36.1035V26.1035C31.875 25.9378 31.8092 25.7787 31.692 25.6616C31.5748 25.5444 31.4157 25.4785 31.25 25.4785H28.125C27.7799 25.4785 27.5 25.7584 27.5 26.1035V36.1035C27.5 36.2693 27.5658 36.4283 27.683 36.5455C27.8002 36.6627 27.9593 36.7285 28.125 36.7285H31.25ZM28.75 26.7285H30.625V35.4785H28.75V26.7285Z" fill="black"></path>
                                <path d="M37.5 36.7285C37.6657 36.7285 37.8248 36.6627 37.942 36.5455C38.0592 36.4283 38.125 36.2693 38.125 36.1035V31.7285C38.125 31.5628 38.0592 31.4037 37.942 31.2866C37.8248 31.1694 37.6657 31.1035 37.5 31.1035H34.375C34.0299 31.1035 33.75 31.3834 33.75 31.7285V36.1035C33.75 36.2693 33.8158 36.4283 33.933 36.5455C34.0502 36.6627 34.2093 36.7285 34.375 36.7285H37.5ZM35 32.3535H36.875V35.4785H35V32.3535Z" fill="black"></path>
                                <path d="M25 36.7285C25.1657 36.7285 25.3248 36.6627 25.442 36.5455C25.5592 36.4283 25.625 36.2693 25.625 36.1035V19.2285C25.625 19.0628 25.5592 18.9037 25.442 18.7866C25.3248 18.6694 25.1657 18.6035 25 18.6035H21.875C21.5299 18.6035 21.25 18.8834 21.25 19.2285V36.1035C21.25 36.2693 21.3158 36.4283 21.433 36.5455C21.5502 36.6627 21.7093 36.7285 21.875 36.7285H25ZM22.5 19.8535H24.375V35.4785H22.5V19.8535Z" fill="black"></path>
                                <path d="M20 37.9785H39.375V39.2285H20V37.9785Z" fill="black"></path>
                            </svg>