<svg width="38" height="38" viewBox="0 0 42 38" fill="none" xmlns="http://www.w3.org/2000/svg">
<path d="M39.4665 7.71596H33.9897V3.34653H33.0667V10.9772C33.0667 11.7772 32.4511 12.3927 31.6512 12.3927C30.8513 12.3927 30.2358 11.7772 30.2358 10.9772V2.60796C30.2358 1.31553 29.1897 0.269531 27.8974 0.269531H27.7127H13.7434C12.451 0.269531 11.405 1.3156 11.405 2.60796V7.71567H2.54353C1.62053 7.71567 0.820312 8.45425 0.820312 9.43889V31.5925C0.820312 32.5155 1.55888 33.3157 2.54353 33.3157H15.5285V36.8235H12.7592V37.7465H29.2514V36.8235H26.4821V33.3157H39.4671C40.3901 33.3157 41.1903 32.5771 41.1903 31.5925V9.43818C41.1903 8.51517 40.3901 7.71525 39.4671 7.71525L39.4665 7.71596ZM13.6822 1.19282H25.9901C25.6823 1.56196 25.4979 2.11582 25.4979 2.60825V18.5468C25.4979 19.3467 24.8824 19.9622 24.0825 19.9622C23.2826 19.9622 22.667 19.3467 22.667 18.5468C22.667 18.4852 22.667 18.3007 22.7287 18.1777L22.8518 17.6238H12.2675V2.60882C12.2058 1.87025 12.8827 1.1934 13.6826 1.1934L13.6822 1.19282ZM21.6822 18.5464C21.6822 19.1002 21.8669 19.5925 22.1744 20.0232H10.6666C10.2974 20.0232 9.1897 19.9002 9.00499 18.5464H21.6822ZM2.54366 8.63853H11.2822V17.6235H7.95916V18.1157C7.95916 20.2081 9.37459 20.9464 10.6054 20.9464H24.0211C25.3135 20.9464 26.4212 19.9003 26.4212 18.6079L26.421 2.60793C26.421 1.808 27.0365 1.1925 27.8364 1.1925C28.6363 1.1925 29.2518 1.80802 29.2518 2.60793V10.9772C29.2518 12.2696 30.2979 13.3156 31.5902 13.3156C32.8826 13.3156 33.9287 12.2696 33.9287 10.9772V8.63879H39.4055C39.8363 8.63879 40.2055 9.00793 40.2055 9.43872V29.5001H1.80545V9.43872C1.80545 9.00792 2.11321 8.63879 2.54403 8.63879L2.54366 8.63853ZM25.5587 36.7614H16.4508V33.2536H25.5587V36.7614ZM39.4665 32.3306H2.54366C2.11286 32.3306 1.80509 31.9615 1.80509 31.5307V30.3613H40.2665V31.5923C40.2665 32.0228 39.8973 32.3306 39.4665 32.3306Z" fill="black"/>
<path d="M19.0938 4.69922H24.3862V5.62222H19.0938V4.69922Z" fill="black"/>
<path d="M19.0938 6.54688H22.7246V7.46987H19.0938V6.54688Z" fill="black"/>
<path d="M19.0938 11.4688H24.3862V12.3917H19.0938V11.4688Z" fill="black"/>
<path d="M19.0938 13.3164H22.7246V14.2394H19.0938V13.3164Z" fill="black"/>
<path d="M18.2355 3.65625H13.3125V8.51782H18.2355V3.65625ZM17.3125 7.59489H14.2971V4.57925H17.3125V7.59489Z" fill="black"/>
<path d="M18.2355 10.4219H13.3125V15.2834H18.2355V10.4219ZM17.3125 14.3602H14.2971V11.3449H17.3125V14.3602Z" fill="black"/>
<path d="M38.5427 22.9141H15.2812V28.1448L38.5427 28.1451V22.9141ZM37.6197 27.2218H16.204V23.8373H37.6197V27.2218Z" fill="black"/>
<path d="M13.9302 22.9141H3.46875V28.1448H13.9302V22.9141ZM13.0072 27.2218H4.39146V23.8373H13.0072V27.2218Z" fill="black"/>
</svg>