<svg width="40" height="40" viewBox="0 0 38 38" fill="none" xmlns="http://www.w3.org/2000/svg">
                                <path d="M3.35938 5.85742C4.02232 5.85742 4.65823 5.59403 5.12723 5.12528C5.59598 4.65625 5.85938 4.02035 5.85938 3.35742C5.85938 2.69449 5.59598 2.05856 5.12723 1.58956C4.6582 1.12081 4.0223 0.857422 3.35938 0.857422C2.69645 0.857422 2.06052 1.12081 1.59152 1.58956C1.12277 2.05859 0.859375 2.69449 0.859375 3.35742C0.859375 4.02035 1.12277 4.65628 1.59152 5.12528C2.06055 5.59403 2.69645 5.85742 3.35938 5.85742ZM3.35938 2.10742C3.69085 2.10742 4.00893 2.23912 4.2433 2.47349C4.47768 2.70786 4.60938 3.02595 4.60938 3.35742C4.60938 3.68889 4.47768 4.00698 4.2433 4.24135C4.00893 4.47572 3.69085 4.60742 3.35938 4.60742C3.0279 4.60742 2.70982 4.47572 2.47545 4.24135C2.24108 4.00698 2.10938 3.68889 2.10938 3.35742C2.10938 3.02595 2.24108 2.70786 2.47545 2.47349C2.70982 2.23912 3.0279 2.10742 3.35938 2.10742Z" fill="black"></path>
                                <path d="M34.6094 5.85742C35.2723 5.85742 35.9082 5.59403 36.3772 5.12528C36.846 4.65625 37.1094 4.02035 37.1094 3.35742C37.1094 2.69449 36.846 2.05856 36.3772 1.58956C35.9082 1.12081 35.2723 0.857422 34.6094 0.857422C33.9464 0.857422 33.3105 1.12081 32.8415 1.58956C32.3728 2.05859 32.1094 2.69449 32.1094 3.35742C32.1094 4.02035 32.3728 4.65628 32.8415 5.12528C33.3105 5.59403 33.9464 5.85742 34.6094 5.85742ZM34.6094 2.10742C34.9408 2.10742 35.2589 2.23912 35.4933 2.47349C35.7277 2.70786 35.8594 3.02595 35.8594 3.35742C35.8594 3.68889 35.7277 4.00698 35.4933 4.24135C35.2589 4.47572 34.9408 4.60742 34.6094 4.60742C34.2779 4.60742 33.9598 4.47572 33.7254 4.24135C33.4911 4.00698 33.3594 3.68889 33.3594 3.35742C33.3594 3.02595 33.4911 2.70786 33.7254 2.47349C33.9598 2.23912 34.2779 2.10742 34.6094 2.10742Z" fill="black"></path>
                                <path d="M15.8594 6.48249H20.0399C19.81 7.14292 19.4746 7.76177 19.0469 8.31506C18.7578 8.02655 18.4919 7.71545 18.252 7.38506C18.0594 7.0999 17.6727 7.02401 17.3868 7.21514C17.1008 7.40627 17.0229 7.79242 17.2126 8.07928C17.5003 8.48497 17.8226 8.86499 18.1755 9.21485C17.6172 9.68081 16.9757 10.0371 16.2849 10.2648C15.957 10.3739 15.7796 10.7282 15.8887 11.0561C15.9977 11.3842 16.3521 11.5614 16.6799 11.4523C17.5759 11.1593 18.4032 10.6886 19.1124 10.0681C19.7586 10.5935 20.4604 11.0468 21.2051 11.4199C21.514 11.5742 21.8895 11.4489 22.0438 11.1398C22.1981 10.8309 22.0728 10.4554 21.7637 10.3011C21.132 9.98243 20.5357 9.59822 19.9844 9.15485C20.6077 8.36049 21.0717 7.45285 21.3507 6.48242H22.1094C22.4545 6.48242 22.7344 6.20256 22.7344 5.85742C22.7344 5.51228 22.4545 5.23242 22.1094 5.23242H19.6094V4.60742C19.6094 4.26228 19.3295 3.98242 18.9844 3.98242C18.6392 3.98242 18.3594 4.26228 18.3594 4.60742V5.23242H15.8594C15.5142 5.23242 15.2344 5.51228 15.2344 5.85742C15.2344 6.20256 15.5143 6.48249 15.8594 6.48249Z" fill="black"></path>
                                <path d="M8.29402 26.2026C8.17656 26.0056 7.96394 25.8848 7.73459 25.8848C7.50524 25.8848 7.29263 26.0056 7.17517 26.2026L4.05017 32.4526C3.97622 32.6007 3.96395 32.7726 4.01668 32.93C4.06914 33.0871 4.18186 33.2171 4.3303 33.2913C4.63917 33.4456 5.01473 33.3203 5.16901 33.0112L7.73151 27.8794L8.90787 30.2319H7.73151C7.38637 30.2319 7.10651 30.5117 7.10651 30.8569C7.10651 31.202 7.38637 31.4819 7.73151 31.4819H9.53287L10.2974 33.0112H10.2971C10.4514 33.3203 10.8269 33.4456 11.1358 33.2913C11.445 33.137 11.5702 32.7614 11.4159 32.4526L8.29402 26.2026Z" fill="black"></path>
                                <path d="M33.6714 24.2796C33.3305 24.0823 32.973 23.9149 32.6034 23.7796L34.3296 22.6253C34.6095 22.4308 34.682 22.0477 34.4926 21.7645C34.3029 21.481 33.9212 21.4018 33.6346 21.5865L32.2802 22.4922C33.0487 19.5664 32.8318 16.4691 31.6636 13.6786C30.4956 10.8882 28.4407 8.56034 25.817 7.05477C25.5885 4.81284 24.2757 2.82541 22.3036 1.73499C20.3315 0.644843 17.9504 0.590486 15.9302 1.58906C13.9102 2.58791 12.5078 4.5132 12.1769 6.74227L9.67131 6.48529C9.32701 6.45069 9.01981 6.70209 8.98548 7.0464C8.95089 7.39071 9.202 7.69763 9.54631 7.73223L10.8865 7.8709C9.13531 9.14683 7.71067 10.8182 6.72853 12.7493C5.7461 14.68 5.2341 16.816 5.23381 18.9823C5.23577 20.5462 5.50697 22.098 6.03624 23.5699C5.42603 23.7234 4.84038 23.9619 4.29631 24.2786C2.18667 25.5152 0.892884 27.7795 0.898455 30.2248C0.903757 32.67 2.2076 34.9285 4.32281 36.1558C6.43774 37.3833 9.04545 37.3947 11.1713 36.186C12.5664 35.3866 13.6331 34.1187 14.1819 32.6072L15.3401 34.3341C15.5351 34.614 15.9182 34.6857 16.2015 34.4956C16.4844 34.3054 16.5628 33.9237 16.3775 33.6374L15.4677 32.2799V32.2797C18.144 32.9778 20.9679 32.8581 23.5755 31.9359C23.9519 33.4136 24.8093 34.7238 26.0127 35.6603C27.2162 36.5966 28.6972 37.1055 30.2217 37.1073C32.2549 37.1101 34.1849 36.213 35.4932 34.6569C36.8015 33.1011 37.3543 31.0455 37.0027 29.0433C36.6512 27.0411 35.4313 25.297 33.6712 24.2797L33.6714 24.2796ZM18.9843 2.10743C20.4316 2.1052 21.8236 2.66184 22.8704 3.66071C23.9176 4.65986 24.5386 6.02429 24.6042 7.46986C24.6098 7.55803 24.6092 7.6448 24.6092 7.73241C24.6092 9.74191 23.5372 11.5991 21.7967 12.6038C20.0562 13.6085 17.9122 13.6085 16.1717 12.6038C14.4312 11.5991 13.3592 9.74191 13.3592 7.73241C13.3592 7.6448 13.3592 7.55803 13.3648 7.46121C13.4321 6.01699 14.054 4.65428 15.1006 3.65706C16.1475 2.65985 17.5384 2.10464 18.9843 2.10743ZM10.5471 35.1039C8.80664 36.1086 6.66207 36.1083 4.92186 35.1036C3.18136 34.0986 2.10907 32.2414 2.10936 30.2317C2.10936 28.2219 3.18164 26.3647 4.92214 25.36C5.54742 24.9945 6.23857 24.7559 6.95593 24.6574C7.21569 24.6217 7.47741 24.6039 7.73971 24.6039C9.36586 24.6061 10.9116 25.3123 11.978 26.5399C13.0444 27.7676 13.5274 29.3968 13.3022 31.0076C13.0706 32.7269 12.0525 34.2409 10.5472 35.1039L10.5471 35.1039ZM14.5921 30.67C14.7187 28.6979 13.9905 26.7666 12.5932 25.3689C11.1961 23.9714 9.26507 23.2428 7.29271 23.3686C6.75895 21.968 6.48521 20.4816 6.48471 18.9825C6.48527 16.9036 7.00424 14.8572 7.99478 13.0294C8.98528 11.2012 10.4159 9.64907 12.1571 8.51314C12.4147 10.7684 13.7693 12.7509 15.7769 13.8106C17.7841 14.8703 20.1854 14.8703 22.1926 13.8106C24.2001 12.7509 25.5547 10.7684 25.8123 8.51314C27.5536 9.649 28.9841 11.2012 29.9746 13.0294C30.9651 14.8572 31.4841 16.9035 31.4847 18.9825C31.4842 20.4816 31.2104 21.968 30.6767 23.3686C28.7044 23.2428 26.7733 23.9713 25.3762 25.3689C23.9789 26.7665 23.2506 28.6979 23.3774 30.67C20.5442 31.7255 17.4254 31.7255 14.5924 30.67H14.5921ZM35.1059 33.045C34.1001 34.7839 32.2435 35.8544 30.2348 35.8539C28.2262 35.853 26.3702 34.7813 25.3654 33.0419C24.361 31.3025 24.3601 29.1591 25.3635 27.4191C26.3668 25.6789 28.222 24.6058 30.231 24.6039C30.4932 24.6036 30.7552 24.6217 31.0153 24.658C31.732 24.7565 32.4226 24.9956 33.047 25.3611C34.3378 26.1083 35.2792 27.3368 35.6653 28.7774C36.0512 30.218 35.8501 31.7526 35.1059 33.045Z" fill="black"></path>
                                <path d="M18.9844 17.7324C18.1557 17.7324 17.3608 18.0617 16.7745 18.6476C16.1886 19.2338 15.8594 20.0287 15.8594 20.8574C15.8594 21.6861 16.1886 22.481 16.7745 23.0673C17.3607 23.6532 18.1557 23.9824 18.9844 23.9824C19.8131 23.9824 20.6079 23.6532 21.1942 23.0673C21.7802 22.4811 22.1094 21.6861 22.1094 20.8574C22.1083 20.029 21.7787 19.2346 21.1931 18.6487C20.6072 18.0631 19.8128 17.7336 18.9844 17.7324ZM18.9844 22.7324C18.4872 22.7324 18.01 22.5349 17.6585 22.1833C17.307 21.8318 17.1094 21.3546 17.1094 20.8575C17.1094 20.3603 17.307 19.8831 17.6585 19.5316C18.0101 19.1801 18.4872 18.9825 18.9844 18.9825C19.4815 18.9825 19.9587 19.18 20.3102 19.5316C20.6617 19.8832 20.8593 20.3603 20.8593 20.8575C20.8593 21.3546 20.6618 21.8318 20.3102 22.1833C19.9587 22.5348 19.4815 22.7324 18.9844 22.7324Z" fill="black"></path>
                                <path d="M32.736 32.7331H29.611C29.1643 32.7331 28.7517 32.4948 28.5285 32.1081C28.3053 31.7214 28.3053 31.2448 28.5285 30.8581C28.7517 30.4714 29.1643 30.2331 29.611 30.2331H32.111C32.4562 30.2331 32.736 29.9533 32.736 29.6081C32.736 29.263 32.4562 28.9831 32.111 28.9831H30.861C30.6348 28.982 30.4266 28.8584 30.3172 28.6603C30.2079 28.4622 30.2143 28.2203 30.3337 28.028C30.4534 27.8358 30.6674 27.7234 30.8934 27.7337C31.1197 27.7443 31.3223 27.8763 31.4235 28.0788C31.579 28.3874 31.9551 28.5119 32.264 28.3564C32.5726 28.2013 32.697 27.8249 32.5416 27.5163C32.2444 26.9491 31.6783 26.5729 31.0402 26.5185C30.402 26.4641 29.7804 26.7392 29.3914 27.2479C29.0025 27.7565 28.9001 28.4284 29.1197 29.0299C28.2985 29.1912 27.6127 29.7526 27.2921 30.5255C26.9718 31.2987 27.0591 32.1807 27.5254 32.8757C27.9913 33.5707 28.7742 33.9862 29.611 33.9831H32.736C33.0812 33.9831 33.361 33.7032 33.361 33.3581C33.361 33.0129 33.0812 32.7331 32.736 32.7331Z" fill="black"></path>
                            </svg>