<svg width="38" height="38" viewBox="0 0 50 60" fill="none" xmlns="http://www.w3.org/2000/svg">
<g clip-path="url(#clip0_3620_16389)">
<path d="M10.4887 37.3217H13.3792V38.5797C13.3792 38.8281 13.5808 39.03 13.8292 39.03H18.1625C18.4109 39.03 18.6125 38.8284 18.6125 38.5797V37.3217H31.7962V38.5797C31.7962 38.8281 31.9978 39.03 32.2462 39.03H36.5795C36.8279 39.03 37.0295 38.8284 37.0295 38.5797V37.3217H39.92C40.7196 37.3217 41.3698 36.6708 41.3698 35.8716L41.3695 16.4504C41.3695 15.6512 40.7189 15.0003 39.9197 15.0003L10.4888 15C9.68928 15 9.03906 15.6509 9.03906 16.4501V35.8713C9.03906 36.6708 9.68928 37.3217 10.4888 37.3217L10.4887 37.3217ZM17.7124 38.1293H14.2791V37.3217H17.7124V38.1293ZM36.129 38.1293H32.6957V37.3217H36.129V38.1293ZM9.93811 16.4504C9.93811 16.1471 10.1849 15.9007 10.4882 15.9007H39.9191C40.2224 15.9007 40.4692 16.1471 40.4692 16.4504V35.8716C40.4692 36.1749 40.2224 36.4214 39.9191 36.4214L36.5785 36.421H10.4888C10.1855 36.421 9.93871 36.1746 9.93871 35.8712L9.93811 16.4504Z" fill="black"/>
<path d="M12.2859 33.7755H38.1194C38.3678 33.7755 38.5694 33.574 38.5694 33.3252V18.9972C38.5694 18.7488 38.3678 18.5469 38.1194 18.5469L12.2859 18.5472C12.0375 18.5472 11.8359 18.7488 11.8359 18.9975V33.3255C11.8359 33.5736 12.0375 33.7755 12.2859 33.7755ZM12.7359 19.4475H37.6694V32.8747H12.7359V19.4475Z" fill="black"/>
<path d="M42.9535 39.9219H7.45402C6.65447 39.9219 6.00391 40.5728 6.00391 41.372V43.3759C6.00391 44.451 6.87879 45.3262 7.95391 45.3262H42.4539C43.529 45.3262 44.4039 44.4514 44.4039 43.3759V41.372C44.4039 40.5728 43.7534 39.9219 42.9538 39.9219H42.9535ZM28.4292 40.8222L27.6999 41.6737H22.7078L21.9785 40.8222H28.4292ZM43.5037 43.3759C43.5037 43.9551 43.0326 44.4256 42.4537 44.4256L7.95374 44.4259C7.37483 44.4259 6.90374 43.9551 6.90374 43.3762V41.3723C6.90374 41.069 7.1505 40.8225 7.45385 40.8225H20.7944L22.1595 42.417C22.2449 42.5171 22.3701 42.5747 22.5014 42.5747H27.9077C28.039 42.5747 28.1642 42.5171 28.2496 42.417L29.6146 40.8225L42.9535 40.8222C43.2569 40.8222 43.5036 41.069 43.5036 41.372L43.5037 43.3759Z" fill="black"/>
<path d="M9.92259 42.1719H8.86016C8.61172 42.1719 8.41016 42.3734 8.41016 42.6219C8.41016 42.8703 8.61172 43.0722 8.86016 43.0722H9.92259C10.171 43.0722 10.3726 42.8706 10.3726 42.6219C10.3726 42.3734 10.171 42.1719 9.92259 42.1719Z" fill="black"/>
<path d="M13.1726 42.1719H12.1102C11.8617 42.1719 11.6602 42.3734 11.6602 42.6219C11.6602 42.8703 11.8617 43.0722 12.1102 43.0722H13.1726C13.421 43.0722 13.6226 42.8706 13.6226 42.6219C13.6223 42.3734 13.421 42.1719 13.1726 42.1719Z" fill="black"/>
<path d="M25.7351 34.6484H24.6727C24.4242 34.6484 24.2227 34.85 24.2227 35.0988C24.2227 35.3472 24.4242 35.5491 24.6727 35.5491H25.7351C25.9835 35.5491 26.1851 35.3475 26.1851 35.0988C26.1851 34.8503 25.9835 34.6484 25.7351 34.6484Z" fill="black"/>
<path d="M25.1219 17.6741H25.2846C25.533 17.6741 25.7346 17.4725 25.7346 17.2238C25.7346 16.9753 25.533 16.7734 25.2846 16.7734H25.1219C24.8734 16.7734 24.6719 16.975 24.6719 17.2238C24.6719 17.4725 24.8734 17.6741 25.1219 17.6741Z" fill="black"/>
</g>
<defs>
<clipPath id="clip0_3620_16389">
<rect width="50" height="59.3023" fill="white"/>
</clipPath>
</defs>
</svg>