<svg width="38" height="38" viewBox="0 0 30 24" fill="none" xmlns="http://www.w3.org/2000/svg">
<path d="M27.7939 0.3125H2.19395C1.48795 0.3125 0.914062 0.886615 0.914062 1.59239V18.8724H29.0741L29.0738 1.59296C29.0738 0.886957 28.5 0.312843 27.794 0.312843L27.7939 0.3125ZM28.114 17.9125H1.87404V1.5925C1.87404 1.41616 2.01779 1.27241 2.19413 1.27241H27.7941C27.9707 1.27241 28.1142 1.41616 28.1142 1.5925L28.114 17.9125Z" fill="url(#paint0_linear_4003_36846)"/>
<path d="M16.4806 20.3117H13.5072L11.9072 19.5117H0.914062V22.3916C0.914062 23.0976 1.48818 23.6715 2.19395 23.6715H27.7939C28.4999 23.6715 29.0738 23.0974 29.0738 22.3916V19.5117H18.0807L16.4806 20.3117ZM28.1138 20.4718V22.3919C28.1138 22.5684 27.9705 22.712 27.7937 22.712L2.19369 22.7117C2.01735 22.7117 1.87359 22.5684 1.87359 22.3917V20.4715H11.6805L13.2805 21.2715H16.707L18.307 20.4715L28.1138 20.4718Z" fill="url(#paint1_linear_4003_36846)"/>
<path d="M18.9955 22.0733H26.9955C27.2605 22.0733 27.4754 21.8584 27.4754 21.5934C27.4754 21.3285 27.2605 21.1133 26.9955 21.1133H18.9955C18.7306 21.1133 18.5156 21.3282 18.5156 21.5932C18.5156 21.8584 18.7306 22.0733 18.9955 22.0733Z" fill="url(#paint2_linear_4003_36846)"/>
<path d="M2.51585 17.2741H27.4759L27.4756 1.91406H2.51562L2.51585 17.2741ZM3.47568 2.87406H26.5157V16.3141H3.47568V2.87406Z" fill="url(#paint3_linear_4003_36846)"/>
<path d="M18.4677 8.2087H17.6117V6.60984C17.6117 5.16653 16.4374 3.99219 14.9939 3.99219C13.5504 3.99219 12.3761 5.1663 12.3761 6.60984C12.3761 6.87502 12.5908 7.08975 12.856 7.08975C13.1212 7.08975 13.3359 6.87502 13.3359 6.60984C13.3359 5.69602 14.0797 4.95224 14.9937 4.95224C15.908 4.95224 16.6516 5.69602 16.6516 6.60984V8.20853L11.5203 8.20875C11.1085 8.20875 10.7734 8.5438 10.7734 8.95561V13.7661C10.7734 14.178 11.1085 14.513 11.5203 14.513H18.4683C18.8803 14.513 19.2158 14.1779 19.2158 13.7661V8.95561C19.2156 8.54378 18.8806 8.20875 18.4681 8.20875L18.4677 8.2087ZM18.2552 13.5529H11.7329V9.1687H18.2552V13.5529Z" fill="url(#paint4_linear_4003_36846)"/>
<defs>
<linearGradient id="paint0_linear_4003_36846" x1="22.8538" y1="0.3125" x2="22.7977" y2="22.8498" gradientUnits="userSpaceOnUse">
<stop stop-color="#005CAA"/>
<stop offset="1" stop-color="#64B0F1"/>
</linearGradient>
<linearGradient id="paint1_linear_4003_36846" x1="22.8536" y1="19.5117" x2="22.8508" y2="24.563" gradientUnits="userSpaceOnUse">
<stop stop-color="#005CAA"/>
<stop offset="1" stop-color="#64B0F1"/>
</linearGradient>
<linearGradient id="paint2_linear_4003_36846" x1="25.4963" y1="21.1133" x2="25.4958" y2="22.2791" gradientUnits="userSpaceOnUse">
<stop stop-color="#005CAA"/>
<stop offset="1" stop-color="#64B0F1"/>
</linearGradient>
<linearGradient id="paint3_linear_4003_36846" x1="21.9624" y1="1.91406" x2="21.9191" y2="20.5658" gradientUnits="userSpaceOnUse">
<stop stop-color="#005CAA"/>
<stop offset="1" stop-color="#64B0F1"/>
</linearGradient>
<linearGradient id="paint4_linear_4003_36846" x1="17.351" y1="3.99219" x2="17.2909" y2="16.7674" gradientUnits="userSpaceOnUse">
<stop stop-color="#005CAA"/>
<stop offset="1" stop-color="#64B0F1"/>
</linearGradient>
</defs>
</svg>