<svg width="38" height="38" viewBox="0 0 28 22" fill="none" xmlns="http://www.w3.org/2000/svg">
<path d="M25.5154 16.5156V8.01562H24.5154V16.5156H17.8085L16.8085 17.5156H11.2085L10.1036 16.5156H3.51563V1.51562H24.5156V4.3286H25.5156V0.515625H2.51563V16.5156H0.515625V19.0156C0.515625 20.3964 1.63483 21.5156 3.01563 21.5156H6.13574V20.5156H3.01563C2.18728 20.5156 1.51563 19.844 1.51563 19.0156V17.5156H9.71563L10.8216 18.5156H17.2216L18.2216 17.5156H26.5153V19.0156C26.5153 19.844 25.8437 20.5156 25.0153 20.5156H8.91534V21.5156H25.0153C26.3961 21.5156 27.5153 20.3964 27.5153 19.0156V16.5156H25.5154Z" fill="url(#paint0_linear_3878_19576)"/>
<path d="M17.7931 8.34351L16.0822 11.7656L13.0822 3.76562L10.7641 8.40357L7.63826 7.36162L6.52734 12.9165L7.50723 13.1125L8.39632 8.66744L11.2704 9.62549L12.9524 6.26344L15.9524 14.2634L18.2415 9.68555L20.3095 10.7195L21.4925 7.17241L20.5425 6.85634L19.7256 9.30925L17.7936 8.3432L17.7931 8.34351Z" fill="url(#paint1_linear_3878_19576)"/>
<defs>
<linearGradient id="paint0_linear_3878_19576" x1="21.5514" y1="0.515625" x2="21.4765" y2="26.0159" gradientUnits="userSpaceOnUse">
<stop stop-color="#005CAA"/>
<stop offset="1" stop-color="#64B0F1"/>
</linearGradient>
<linearGradient id="paint1_linear_3878_19576" x1="18.1869" y1="3.76562" x2="18.1531" y2="16.5132" gradientUnits="userSpaceOnUse">
<stop stop-color="#005CAA"/>
<stop offset="1" stop-color="#64B0F1"/>
</linearGradient>
</defs>
</svg>