<svg width="38" height="38" viewBox="0 0 32 30" fill="none" xmlns="http://www.w3.org/2000/svg">
                                <path d="M14.0595 23.7075C14.0595 23.9753 13.8423 24.1923 13.5747 24.1923C13.3068 24.1923 13.0898 23.9753 13.0898 23.7075C13.0898 23.4398 13.3068 23.2227 13.5747 23.2227C13.8423 23.2227 14.0595 23.4398 14.0595 23.7075Z" fill="url(#paint0_linear_5739_28765)"></path>
                                <path d="M31.1701 2.72874L24.3872 0.0428014C24.2854 0.00396202 24.1738 0.00396202 24.0769 0.0428014L17.2941 2.72874C17.134 2.79169 17.0273 2.94682 17.0273 3.12138V7.56269C17.0273 12.0087 19.7231 15.9261 24.0622 17.793C24.1156 17.8173 24.1738 17.8269 24.2272 17.8269C24.2805 17.8269 24.3435 17.8173 24.3921 17.793C28.7314 15.9312 31.427 12.0135 31.427 7.56269V3.12652C31.4368 2.95197 31.3301 2.79682 31.1701 2.72874ZM30.5884 7.5676C30.5884 11.6111 28.1593 15.1893 24.2318 16.9447C20.3045 15.1896 17.8752 11.6162 17.8752 7.5676L17.8754 3.41246L24.2314 0.891259L30.588 3.41246L30.5884 7.5676Z" fill="url(#paint1_linear_5739_28765)"></path>
                                <path d="M26.1838 9.7108H25.636V9.17263C25.636 8.40166 25.0056 7.77148 24.2348 7.77148C23.4639 7.77148 22.8337 8.40183 22.8337 9.17263V9.7108H22.2859C22.0531 9.7108 21.8594 9.89986 21.8594 10.1374V13.0465C21.8594 13.2793 22.0484 13.4731 22.2859 13.4731H26.1792C26.4121 13.4731 26.6058 13.284 26.6058 13.0465V10.1374C26.6056 9.89986 26.4166 9.7108 26.1838 9.7108ZM23.682 9.17263C23.682 8.86727 23.9293 8.61995 24.2347 8.61995C24.54 8.61995 24.7873 8.86727 24.7873 9.17263V9.7108H23.682L23.682 9.17263ZM25.7572 12.6199H22.7123V10.5593H25.7619V12.6199H25.7572Z" fill="url(#paint2_linear_5739_28765)"></path>
                                <path d="M22.8164 6.77688C23.1945 6.39876 23.6987 6.19025 24.2322 6.19025C24.7655 6.19025 25.2697 6.39873 25.6481 6.77688C25.7304 6.85925 25.842 6.903 25.9487 6.903C26.0554 6.903 26.1668 6.85947 26.2494 6.77688C26.4143 6.61193 26.4143 6.3405 26.2494 6.17574C25.7112 5.63757 24.9985 5.3418 24.2373 5.3418C23.4762 5.3418 22.7634 5.63756 22.2253 6.17574C22.0603 6.34069 22.0603 6.61212 22.2253 6.77688C22.3898 6.94161 22.6516 6.94161 22.8164 6.77688Z" fill="url(#paint3_linear_5739_28765)"></path>
                                <path d="M20.8503 4.80826C20.6853 4.97321 20.6853 5.24464 20.8503 5.4094C21.0152 5.57436 21.2867 5.57436 21.4514 5.4094C22.9885 3.87237 25.4854 3.87237 27.0224 5.4094C27.1048 5.49177 27.2164 5.53552 27.3231 5.53552C27.4298 5.53552 27.5411 5.49199 27.6237 5.4094C27.7887 5.24445 27.7887 4.97302 27.6237 4.80826C25.7521 2.94152 22.7168 2.94152 20.85 4.80826H20.8503Z" fill="url(#paint4_linear_5739_28765)"></path>
                                <path d="M7.00961 11.9264C6.83506 11.7713 6.56831 11.7858 6.40847 11.9604C5.90423 12.5276 5.63281 13.255 5.63281 14.0113C5.63281 15.718 7.01944 17.1046 8.72613 17.1046C10.4328 17.1046 11.8194 15.718 11.8194 14.0113C11.8194 12.3046 10.4328 10.918 8.72613 10.918C8.33818 10.918 7.96007 10.9907 7.59641 11.1314C7.37833 11.2186 7.27163 11.461 7.354 11.6791C7.44127 11.8972 7.6886 12.0039 7.90177 11.9166C8.1636 11.8148 8.43502 11.7615 8.7212 11.7615C9.9576 11.7615 10.9661 12.765 10.9661 14.0064C10.9661 15.2477 9.9576 16.2512 8.7212 16.2512C7.4848 16.2512 6.47634 15.2477 6.47634 14.0064C6.47634 13.4586 6.67522 12.93 7.03884 12.518C7.20357 12.3481 7.18417 12.0816 7.00961 11.9264Z" fill="url(#paint5_linear_5739_28765)"></path>
                                <path d="M14.6493 15.1515C14.8384 15.1031 14.9694 14.9334 14.9694 14.7394V13.285C14.9694 13.091 14.8386 12.9214 14.6493 12.8729L13.6893 12.6305C13.5777 12.2281 13.4178 11.845 13.2094 11.4765L13.7185 10.6281C13.8203 10.4631 13.7913 10.245 13.6556 10.1093L12.6277 9.08143C12.492 8.94081 12.2737 8.91648 12.1089 9.01848L11.2605 9.52764C10.8969 9.31916 10.5089 9.15911 10.1065 9.04773L9.86406 8.08767C9.81562 7.89861 9.64598 7.76758 9.45201 7.76758H7.99755C7.80358 7.76758 7.63393 7.89838 7.5855 8.08767L7.34309 9.04773C6.94063 9.15933 6.5576 9.31916 6.18909 9.52764L5.34063 9.01848C5.17568 8.9167 4.9576 8.94572 4.82188 9.08143L3.794 10.1093C3.65828 10.245 3.62904 10.4584 3.73105 10.6281L4.2402 11.4765C4.03172 11.8401 3.87168 12.2281 3.76029 12.6305L2.80447 12.8727C2.6154 12.9211 2.48438 13.0908 2.48438 13.2848V14.7392C2.48438 14.9332 2.61518 15.1028 2.80447 15.1513L3.76452 15.3888C3.87613 15.7912 4.03595 16.1743 4.24443 16.5428L3.73528 17.3912C3.63349 17.5562 3.66251 17.7743 3.79823 17.91L4.82611 18.9379C4.96183 19.0785 5.18013 19.1028 5.34486 19.0008L6.19332 18.4917C6.55693 18.7001 6.94486 18.8602 7.34732 18.9716L7.58973 19.9316C7.63817 20.1207 7.80781 20.2517 8.00178 20.2517H9.45624C9.65021 20.2517 9.81985 20.1209 9.86829 19.9316L10.1107 18.9716C10.5132 18.86 10.9011 18.7001 11.2647 18.4917L12.1132 19.0008C12.2781 19.1026 12.4913 19.0736 12.6319 18.9379L13.2622 18.3075C13.4272 18.1426 13.4272 17.8711 13.2622 17.7064C13.0973 17.5414 12.8259 17.5414 12.6611 17.7064L12.2636 18.1039L11.4781 17.6336C11.3424 17.5512 11.1678 17.5512 11.0321 17.6385C10.6102 17.9099 10.1498 18.0992 9.6649 18.2057C9.50976 18.2396 9.38364 18.3608 9.3448 18.516L9.12181 19.4032L8.33164 19.4037L8.10865 18.5164C8.06982 18.3613 7.94861 18.2401 7.78856 18.2061C7.30374 18.0995 6.84302 17.9055 6.42136 17.639C6.28565 17.5517 6.116 17.5517 5.97538 17.634L5.1899 18.1044L4.62739 17.5419L5.09771 16.7564C5.18007 16.6207 5.18007 16.4461 5.0928 16.3104C4.82137 15.8885 4.63208 15.428 4.52561 14.9432C4.49168 14.7881 4.37048 14.6619 4.21534 14.6231L3.32808 14.4001V13.6097L4.21534 13.3867C4.37047 13.3479 4.49168 13.2218 4.52561 13.0666C4.6323 12.5818 4.82628 12.1211 5.0928 11.6994C5.18007 11.5637 5.18007 11.3892 5.09771 11.2534L4.62739 10.468L5.1899 9.90546L5.97538 10.3758C6.116 10.4581 6.28565 10.4581 6.42136 10.3709C6.84324 10.0994 7.30371 9.91015 7.78856 9.80367C7.9437 9.76975 8.06981 9.64854 8.10865 9.49341L8.33164 8.60615H9.12204L9.34503 9.49341C9.38387 9.64854 9.50508 9.76974 9.66512 9.80367C10.1499 9.91037 10.6107 10.1043 11.0323 10.3709C11.168 10.4581 11.3426 10.4581 11.4783 10.3758L12.2638 9.90546L12.8263 10.468L12.356 11.2534C12.2736 11.3892 12.2736 11.5637 12.3609 11.6994C12.6323 12.1213 12.8216 12.5818 12.9281 13.0666C12.962 13.2218 13.0832 13.3479 13.2383 13.3867L14.1256 13.6097V14.4001L13.2383 14.6231C13.0832 14.6619 12.962 14.7881 12.9281 14.9432C12.8214 15.428 12.6274 15.8887 12.3609 16.3104C12.2736 16.4461 12.2736 16.6207 12.356 16.7564L12.7341 17.3818C12.8553 17.5807 13.1171 17.6485 13.316 17.5273C13.5149 17.4061 13.5828 17.1443 13.4616 16.9454L13.2192 16.538C13.4277 16.1744 13.5877 15.7865 13.6991 15.384L14.6493 15.1515Z" fill="url(#paint6_linear_5739_28765)"></path>
                                <path d="M8.24106 15.4063C8.34776 15.4063 8.45914 15.3628 8.54173 15.2802L9.97676 13.8499C10.1417 13.6849 10.1417 13.4135 9.97676 13.2487C9.8118 13.0838 9.54037 13.0838 9.37561 13.2487L8.24104 14.3833L8.05689 14.1991C7.89193 14.0342 7.62051 14.0342 7.45575 14.1991C7.29079 14.3641 7.29079 14.6355 7.45575 14.8003L7.94057 15.2851C8.02271 15.3628 8.12946 15.4063 8.24106 15.4063Z" fill="url(#paint7_linear_5739_28765)"></path>
                                <path d="M26.1822 17.6278C25.9494 17.6278 25.7557 17.8169 25.7557 18.0544V21.3466H1.39166V7.22315C1.39166 6.92248 1.63407 6.67539 1.93943 6.67539H16C16.2328 6.67539 16.4266 6.48632 16.4266 6.24883C16.4266 6.01133 16.2375 5.82227 16 5.82227H1.93943C1.17337 5.82227 0.542969 6.44769 0.542969 7.21872V24.673C0.542969 25.444 1.1684 26.0695 1.93943 26.0695L9.15428 26.069L8.06343 27.1599H7.26834C6.50228 27.1599 5.87188 27.7853 5.87188 28.5563C5.87188 29.3273 6.49731 29.9528 7.26834 29.9528H8.946C9.17881 29.9528 9.37256 29.7637 9.37256 29.5262C9.37256 29.2887 9.18349 29.0997 8.946 29.0997H7.26834C6.96767 29.0997 6.72057 28.8573 6.72057 28.5519C6.72057 28.2466 6.96299 28.0041 7.26834 28.0041H19.8746C20.1753 28.0041 20.4224 28.2466 20.4224 28.5519C20.4224 28.8573 20.18 29.0997 19.8746 29.0997L10.4295 29.0995C10.1967 29.0995 10.0029 29.2885 10.0029 29.526C10.0029 29.7635 10.192 29.9526 10.4295 29.9526H19.8792C20.6453 29.9526 21.2757 29.3271 21.2757 28.5561C21.2757 27.7851 20.6502 27.1597 19.8792 27.1597H19.0841L17.9933 26.0688H22.6671C22.9 26.0688 23.0937 25.8797 23.0937 25.6422C23.0937 25.4047 22.9046 25.2157 22.6671 25.2157H1.93971C1.63904 25.2157 1.39195 24.9733 1.39195 24.6679V22.1807H25.7554V24.6775C25.7554 24.9782 25.513 25.2253 25.2076 25.2253L24.2328 25.2255C24 25.2255 23.8062 25.4146 23.8062 25.6521C23.8062 25.8896 23.9953 26.0786 24.2328 26.0786H25.2123C25.9784 26.0786 26.6088 25.4532 26.6088 24.6822L26.6085 18.0547C26.6038 17.8172 26.4148 17.6282 26.182 17.6282L26.1822 17.6278ZM17.8816 27.1644H9.26622L10.3571 26.0736H16.7908L17.8816 27.1644Z" fill="url(#paint8_linear_5739_28765)"></path>
                                <defs>
                                    <linearGradient id="paint0_linear_5739_28765" x1="13.8453" y1="23.2227" x2="13.8409" y2="24.4001" gradientUnits="userSpaceOnUse">
                                        <stop stop-color="#005CAA"></stop>
                                        <stop offset="1" stop-color="#64B0F1"></stop>
                                    </linearGradient>
                                    <linearGradient id="paint1_linear_5739_28765" x1="28.2467" y1="0.0136719" x2="28.1457" y2="21.644" gradientUnits="userSpaceOnUse">
                                        <stop stop-color="#005CAA"></stop>
                                        <stop offset="1" stop-color="#64B0F1"></stop>
                                    </linearGradient>
                                    <linearGradient id="paint2_linear_5739_28765" x1="25.5574" y1="7.77148" x2="25.526" y2="14.6948" gradientUnits="userSpaceOnUse">
                                        <stop stop-color="#005CAA"></stop>
                                        <stop offset="1" stop-color="#64B0F1"></stop>
                                    </linearGradient>
                                    <linearGradient id="paint3_linear_5739_28765" x1="25.4296" y1="5.3418" x2="25.427" y2="7.23758" gradientUnits="userSpaceOnUse">
                                        <stop stop-color="#005CAA"></stop>
                                        <stop offset="1" stop-color="#64B0F1"></stop>
                                    </linearGradient>
                                    <linearGradient id="paint4_linear_5739_28765" x1="26.1966" y1="3.4082" x2="26.1936" y2="5.99142" gradientUnits="userSpaceOnUse">
                                        <stop stop-color="#005CAA"></stop>
                                        <stop offset="1" stop-color="#64B0F1"></stop>
                                    </linearGradient>
                                    <linearGradient id="paint5_linear_5739_28765" x1="10.4529" y1="10.918" x2="10.4245" y2="18.4304" gradientUnits="userSpaceOnUse">
                                        <stop stop-color="#005CAA"></stop>
                                        <stop offset="1" stop-color="#64B0F1"></stop>
                                    </linearGradient>
                                    <linearGradient id="paint6_linear_5739_28765" x1="12.2116" y1="7.76758" x2="12.1544" y2="22.927" gradientUnits="userSpaceOnUse">
                                        <stop stop-color="#005CAA"></stop>
                                        <stop offset="1" stop-color="#64B0F1"></stop>
                                    </linearGradient>
                                    <linearGradient id="paint7_linear_5739_28765" x1="9.48895" y1="13.125" x2="9.48034" y2="15.8952" gradientUnits="userSpaceOnUse">
                                        <stop stop-color="#005CAA"></stop>
                                        <stop offset="1" stop-color="#64B0F1"></stop>
                                    </linearGradient>
                                    <linearGradient id="paint8_linear_5739_28765" x1="20.8511" y1="5.82227" x2="20.7487" y2="35.1239" gradientUnits="userSpaceOnUse">
                                        <stop stop-color="#005CAA"></stop>
                                        <stop offset="1" stop-color="#64B0F1"></stop>
                                    </linearGradient>
                                </defs>
                            </svg>