<svg width="38" height="38" viewBox="0 0 24 30" fill="none" xmlns="http://www.w3.org/2000/svg">
<path d="M19.6844 4.45518V0.615234H0.484375V25.5752H4.32432V29.4152H23.5243L23.5245 4.45518H19.6844ZM2.40438 23.6552V2.53518H17.7644V4.45529L4.32438 4.45507V23.6551L2.40438 23.6552ZM21.6044 27.4951H6.24438V6.37512H21.6044V27.4951Z" fill="#CC1212"/>
<path d="M9.125 9.25586H11.0451V11.176H9.125V9.25586Z" fill="#CC1212"/>
<path d="M12.9609 9.25586H18.7209V11.176H12.9609V9.25586Z" fill="#CC1212"/>
<path d="M9.125 13.7344H11.0451V15.6545H9.125V13.7344Z" fill="#CC1212"/>
<path d="M12.9609 13.7344H18.7209V15.6545H12.9609V13.7344Z" fill="#CC1212"/>
<path d="M9.125 18.2148H11.0451V20.135H9.125V18.2148Z" fill="#CC1212"/>
<path d="M12.9609 18.2148H18.7209V20.135H12.9609V18.2148Z" fill="#CC1212"/>
<path d="M9.125 22.6953H11.0451V24.6154H9.125V22.6953Z" fill="#CC1212"/>
<path d="M12.9609 22.6953H18.7209V24.6154H12.9609V22.6953Z" fill="#CC1212"/>
</svg>