<svg width="38" height="38" viewBox="0 0 31 31" fill="none" xmlns="http://www.w3.org/2000/svg">
<path d="M16.5155 30.0134H13.5155C13.1177 30.0134 12.736 29.8554 12.4548 29.5742C12.1736 29.2929 12.0155 28.9112 12.0155 28.5135V26.6284C10.9285 26.3512 9.88651 25.9208 8.92045 25.3506L7.58897 26.682C7.30415 26.9546 6.92491 27.1068 6.53051 27.1068C6.13609 27.1068 5.75708 26.9546 5.47205 26.682L3.34703 24.557C3.066 24.2764 2.90796 23.8956 2.90796 23.4986C2.90796 23.1015 3.066 22.7207 3.34703 22.4401L4.67851 21.1086C4.1082 20.1426 3.67783 19.1006 3.40063 18.0135H1.5156C1.11783 18.0135 0.736111 17.8555 0.454911 17.5742C0.173711 17.293 0.015625 16.9113 0.015625 16.5136V13.5136C0.015625 13.1158 0.173659 12.7341 0.454911 12.4529C0.736162 12.1717 1.11788 12.0136 1.5156 12.0136H3.40063C3.67786 10.9266 4.10822 9.88456 4.67851 8.9185L3.34703 7.58702C3.066 7.30643 2.90796 6.92564 2.90796 6.52856C2.90796 6.13147 3.066 5.75067 3.34703 5.4701L5.47205 3.34507C5.7571 3.07253 6.13611 2.9203 6.53051 2.9203C6.92493 2.9203 7.30417 3.07253 7.58897 3.34507L8.92045 4.67656C9.88651 4.10624 10.9285 3.67587 12.0155 3.39867V1.51364C12.0155 1.11588 12.1736 0.734158 12.4548 0.452958C12.7361 0.171758 13.1178 0.0136719 13.5155 0.0136719H16.5155C16.9133 0.0136719 17.295 0.171706 17.5762 0.452958C17.8574 0.734209 18.0155 1.11593 18.0155 1.51364V3.39867C19.1025 3.67591 20.1445 4.10627 21.1106 4.67656L22.4421 3.34507C22.7269 3.07253 23.1061 2.9203 23.5005 2.9203C23.8949 2.9203 24.2739 3.07253 24.559 3.34507L26.684 5.4701C26.965 5.75068 27.1231 6.13147 27.1231 6.52856C27.1231 6.92564 26.965 7.30644 26.684 7.58702L25.3525 8.9185C25.9228 9.88456 26.3532 10.9266 26.6304 12.0136H28.5154C28.9132 12.0136 29.2949 12.1716 29.5761 12.4529C29.8573 12.7341 30.0154 13.1158 30.0154 13.5136V16.5136C30.0154 16.9113 29.8574 17.293 29.5761 17.5742C29.2949 17.8554 28.9131 18.0135 28.5154 18.0135H26.6304C26.3532 19.1006 25.9228 20.1426 25.3525 21.1086L26.684 22.4401C26.965 22.7207 27.1231 23.1015 27.1231 23.4986C27.1231 23.8956 26.965 24.2764 26.684 24.557L24.559 26.682C24.2739 26.9546 23.8949 27.1068 23.5005 27.1068C23.1061 27.1068 22.7269 26.9546 22.4421 26.682L21.1106 25.3506C20.1445 25.9209 19.1025 26.3512 18.0155 26.6284V28.5135C18.0155 28.9112 17.8574 29.293 17.5762 29.5742C17.2949 29.8554 16.9132 30.0134 16.5155 30.0134ZM8.84637 24.2186C8.94101 24.2188 9.03387 24.2458 9.11378 24.2967C10.1892 24.9824 11.3769 25.4733 12.6227 25.7467C12.8517 25.7969 13.0151 25.9994 13.0158 26.2338V28.5137C13.0158 28.6462 13.0685 28.7735 13.1622 28.8672C13.256 28.961 13.3832 29.0137 13.5158 29.0137H16.5158C16.6484 29.0137 16.7756 28.961 16.8693 28.8672C16.9631 28.7735 17.0158 28.6462 17.0158 28.5137V26.2338C17.0158 25.9987 17.1792 25.7954 17.4089 25.7451C18.6546 25.4717 19.8423 24.9809 20.9178 24.2951C21.1153 24.1697 21.3736 24.1981 21.5392 24.3637L23.1493 25.9737C23.345 26.1608 23.6535 26.1608 23.8493 25.9737L25.9747 23.8487C26.0682 23.7556 26.1207 23.6293 26.1207 23.4974C26.1207 23.3657 26.0682 23.2391 25.9747 23.1462L24.3658 21.5371C24.2001 21.3715 24.1718 21.1132 24.2972 20.9157C24.983 19.8403 25.4738 18.6525 25.7472 17.4068C25.7975 17.1771 26.0008 17.0137 26.2359 17.0137H28.5157C28.6483 17.0137 28.7756 16.961 28.8693 16.8673C28.9631 16.7735 29.0157 16.6463 29.0157 16.5137V13.5137C29.0157 13.3811 28.9631 13.2539 28.8693 13.1601C28.7756 13.0664 28.6483 13.0137 28.5157 13.0137H26.2359C26.0008 13.0137 25.7975 12.8503 25.7472 12.6206C25.4738 11.3748 24.983 10.1871 24.2972 9.11169C24.1718 8.91415 24.2001 8.65588 24.3658 8.49026L25.9758 6.8802C26.0694 6.78712 26.1218 6.66079 26.1218 6.52887C26.1218 6.39717 26.0694 6.27061 25.9758 6.17775L23.8508 4.05232V4.0521C23.6544 3.86393 23.3445 3.86393 23.1483 4.0521L21.5392 5.6637C21.3736 5.82932 21.1153 5.85767 20.9178 5.73223C19.8423 5.04651 18.6546 4.55566 17.4089 4.28223C17.1792 4.232 17.0158 4.02865 17.0158 3.79361V1.51372C17.0158 1.38113 16.9631 1.2539 16.8693 1.16015C16.7756 1.0664 16.6484 1.01372 16.5158 1.01372H13.5158C13.2397 1.01372 13.0158 1.23761 13.0158 1.51372V3.79361C13.0158 4.02865 12.8524 4.232 12.6227 4.28223C11.3769 4.55567 10.1892 5.04651 9.11378 5.73223C8.91624 5.85767 8.65797 5.82932 8.49235 5.6637L6.88229 4.05364C6.68587 3.86547 6.37604 3.86547 6.17984 4.05364L4.05441 6.17867H4.05418C3.86133 6.3722 3.86133 6.68537 4.05418 6.87867L5.66424 8.48919C5.82987 8.65481 5.85821 8.91307 5.73277 9.11084C5.04705 10.186 4.5562 11.374 4.28277 12.6198C4.23299 12.849 4.03053 13.0131 3.79572 13.0137H1.51583C1.23972 13.0137 1.01583 13.2376 1.01583 13.5137V16.5137C1.01583 16.6463 1.06851 16.7736 1.16226 16.8673C1.25601 16.9611 1.38324 17.0137 1.51583 17.0137H3.79572C4.03076 17.0137 4.23411 17.1771 4.28433 17.4068C4.55777 18.6526 5.04862 19.8403 5.73433 20.9157C5.85978 21.1133 5.83143 21.3715 5.66581 21.5372L4.05575 23.1472C3.86289 23.3407 3.86289 23.6539 4.05575 23.8472L6.18078 25.9726C6.37654 26.1599 6.68502 26.1599 6.88078 25.9726L8.49129 24.3626V24.3628C8.58593 24.2695 8.71361 24.2177 8.84643 24.2186L8.84637 24.2186Z" fill="#CC1212"/>
<path d="M15.0156 21.5137C13.2917 21.5137 11.6384 20.8289 10.4194 19.6099C9.20043 18.3909 8.51562 16.7376 8.51562 15.0137C8.51562 13.2898 9.20043 11.6364 10.4194 10.4174C11.6384 9.19847 13.2917 8.51367 15.0156 8.51367C16.7395 8.51367 18.3929 9.19847 19.6119 10.4174C20.8308 11.6364 21.5156 13.2898 21.5156 15.0137C21.5136 16.7369 20.8281 18.3891 19.6096 19.6077C18.3911 20.8262 16.7389 21.5117 15.0156 21.5137ZM15.0156 9.51367C13.5569 9.51367 12.158 10.0932 11.1265 11.1246C10.0951 12.1561 9.51563 13.5549 9.51563 15.0137C9.51563 16.4724 10.0951 17.8713 11.1265 18.9028C12.158 19.9342 13.5569 20.5137 15.0156 20.5137C16.4744 20.5137 17.8732 19.9342 18.9047 18.9028C19.9362 17.8713 20.5156 16.4724 20.5156 15.0137C20.5138 13.5554 19.9339 12.1577 18.9029 11.1264C17.8716 10.0954 16.4739 9.5155 15.0156 9.51367Z" fill="#CC1212"/>
<path d="M15.0156 18.4006C14.9279 18.4006 14.8417 18.3776 14.7656 18.3341L12.2656 16.8906C12.1109 16.8013 12.0156 16.6361 12.0156 16.4575V13.5705C12.0156 13.3919 12.1109 13.2267 12.2656 13.1375L14.7656 11.6939C14.9203 11.6046 15.1109 11.6046 15.2656 11.6939L17.7656 13.1375C17.9203 13.2267 18.0156 13.3919 18.0156 13.5705V16.4575C18.0156 16.6361 17.9203 16.8013 17.7656 16.8906L15.2656 18.3341C15.1895 18.3776 15.1034 18.4006 15.0156 18.4006ZM13.0156 16.1689L15.0156 17.3234L17.0156 16.1689V13.8591L15.0156 12.7046L13.0156 13.8591V16.1689Z" fill="#CC1212"/>
<path d="M15.0154 23.5132C12.7612 23.5132 10.5991 22.6177 9.00511 21.0237C7.41111 19.4296 6.51562 17.2675 6.51562 15.0134C6.51562 12.7594 7.41117 10.5972 9.00511 9.00316C10.5993 7.40916 12.7613 6.51367 15.0154 6.51367C17.2695 6.51367 19.4317 7.40922 21.0257 9.00316C22.6197 10.5973 23.5152 12.7594 23.5152 15.0134C23.5127 17.267 22.6163 19.4275 21.0228 21.0209C19.4292 22.6144 17.2688 23.5108 15.0153 23.5133L15.0154 23.5132ZM15.0154 7.51322C13.0263 7.51322 11.1185 8.30339 9.71203 9.70984C8.30557 11.1163 7.5154 13.0241 7.5154 15.0132C7.5154 17.0023 8.30557 18.9101 9.71203 20.3166C11.1185 21.723 13.0263 22.5132 15.0154 22.5132C17.0045 22.5132 18.9123 21.723 20.3188 20.3166C21.7252 18.9101 22.5154 17.0023 22.5154 15.0132C22.5132 13.0248 21.7223 11.1184 20.3163 9.7123C18.9103 8.30624 17.0038 7.51544 15.0154 7.51322Z" fill="#CC1212"/>
</svg>