<svg width="38" height="38" viewBox="0 0 38 38" fill="none" xmlns="http://www.w3.org/2000/svg">
<path d="M38.0082 22.8364V15.1556L33.9698 14.6408C33.645 13.5403 33.2095 12.487 32.6633 11.5052L35.1497 8.27457L29.7177 2.84261L26.5108 5.33695C25.5211 4.78268 24.468 4.35515 23.3514 4.03042L22.8367 0H15.1637L14.6489 4.03042C13.5323 4.3552 12.4873 4.78274 11.5052 5.33695L8.28235 2.84261L2.85038 8.27457L5.33673 11.4975C4.79047 12.4873 4.35493 13.5403 4.02215 14.6411L0 15.1556V22.8364L4.02244 23.3589C4.35494 24.4675 4.79044 25.5205 5.33702 26.5025L2.85067 29.7174L8.28263 35.1574L11.5055 32.6631C12.4873 33.2093 13.5326 33.6449 14.6492 33.9696L15.1639 38H22.8369L23.3517 33.9616C24.4683 33.6448 25.5213 33.2093 26.5111 32.6631L29.718 35.1574L35.1499 29.7174L32.6636 26.5025C33.2098 25.5207 33.6454 24.4677 33.9701 23.3589L38.0082 22.8364ZM21.7043 30.0576C20.8413 30.2714 19.9384 30.3824 19.0042 30.3824C18.0937 30.3824 17.1989 30.2716 16.3516 30.0736C11.3393 28.8781 7.61738 24.3724 7.61738 18.9958C7.61738 12.7165 12.7168 7.6167 19.0035 7.6167C25.2827 7.6167 30.3825 12.7162 30.3825 18.9958C30.3825 24.3485 26.6846 28.8463 21.7042 30.0574L21.7043 30.0576Z" fill="url(#paint0_linear_3799_19565)"/>
<path d="M19.265 18.611C21.0753 18.611 22.541 17.1454 22.541 15.3351C22.541 13.5323 21.0754 12.0664 19.265 12.0664C17.4622 12.0664 15.9963 13.532 15.9963 15.3351C15.9963 17.1454 17.4619 18.611 19.265 18.611Z" fill="url(#paint1_linear_3799_19565)"/>
<path d="M18.9915 19.6953C15.5587 19.6953 12.7559 22.4805 12.7559 25.9309H25.2443C25.2443 22.4802 22.4422 19.6953 18.9915 19.6953Z" fill="url(#paint2_linear_3799_19565)"/>
<defs>
<linearGradient id="paint0_linear_3799_19565" x1="29.6126" y1="-6.83423e-09" x2="29.4385" y2="46.1432" gradientUnits="userSpaceOnUse">
<stop stop-color="#005CAA"/>
<stop offset="1" stop-color="#64B0F1"/>
</linearGradient>
<linearGradient id="paint1_linear_3799_19565" x1="21.0953" y1="12.0664" x2="21.0653" y2="20.0135" gradientUnits="userSpaceOnUse">
<stop stop-color="#005CAA"/>
<stop offset="1" stop-color="#64B0F1"/>
</linearGradient>
<linearGradient id="paint2_linear_3799_19565" x1="22.4857" y1="19.6953" x2="22.4714" y2="27.2673" gradientUnits="userSpaceOnUse">
<stop stop-color="#005CAA"/>
<stop offset="1" stop-color="#64B0F1"/>
</linearGradient>
</defs>
</svg>