<svg width="38" height="38" viewBox="0 0 53 51" fill="none" xmlns="http://www.w3.org/2000/svg">
<path d="M47.0473 11.5175L34.9132 1.19564C34.2325 0.613493 33.3738 0.280663 32.4786 0.252017C31.5834 0.22337 30.7052 0.500617 29.9887 1.03805L24.7292 4.9777L21.4199 1.6684C20.6818 0.934632 19.6833 0.522775 18.6425 0.522775C17.6017 0.522775 16.6032 0.934632 15.865 1.6684L6.01591 11.616C4.60923 11.81 3.31945 12.5041 2.38258 13.5712C1.44571 14.6383 0.924411 16.007 0.914062 17.427V45.0045C0.914063 46.5718 1.53667 48.0749 2.64491 49.1831C3.75315 50.2914 5.25624 50.914 6.82353 50.914H46.22C47.7873 50.914 49.2904 50.2914 50.3986 49.1831C51.5069 48.0749 52.1295 46.5718 52.1295 45.0045V17.427C52.1436 15.993 51.6358 14.6029 50.7008 13.5156C49.7657 12.4284 48.4672 11.7182 47.0473 11.5175ZM48.1898 35.1554H44.2502C43.2053 35.1554 42.2033 34.7403 41.4644 34.0015C40.7256 33.2627 40.3105 32.2606 40.3105 31.2158C40.3105 30.1709 40.7256 29.1688 41.4644 28.43C42.2033 27.6912 43.2053 27.2761 44.2502 27.2761H48.1898V35.1554ZM32.4312 4.18977L40.9015 11.5175H31.269L27.5461 7.79455L32.4312 4.18977ZM18.6425 4.44585L25.7141 11.5175H11.5708L18.6425 4.44585ZM46.22 46.9743H6.82353C6.3011 46.9743 5.80007 46.7668 5.43066 46.3974C5.06124 46.028 4.85371 45.5269 4.85371 45.0045V17.427C4.85371 16.9046 5.06124 16.4035 5.43066 16.0341C5.80007 15.6647 6.3011 15.4572 6.82353 15.4572H46.22C46.7424 15.4572 47.2435 15.6647 47.6129 16.0341C47.9823 16.4035 48.1898 16.9046 48.1898 17.427V23.3365H44.2502C42.1605 23.3365 40.1563 24.1666 38.6787 25.6443C37.201 27.1219 36.3709 29.126 36.3709 31.2158C36.3709 33.3055 37.201 35.3096 38.6787 36.7873C40.1563 38.2649 42.1605 39.095 44.2502 39.095H48.1898V45.0045C48.1898 45.5269 47.9823 46.028 47.6129 46.3974C47.2435 46.7668 46.7424 46.9743 46.22 46.9743Z" fill="url(#paint0_linear_3620_16455)"/>
<defs>
<linearGradient id="paint0_linear_3620_16455" x1="40.8167" y1="0.25" x2="40.587" y2="61.771" gradientUnits="userSpaceOnUse">
<stop stop-color="#005CAA"/>
<stop offset="1" stop-color="#64B0F1"/>
</linearGradient>
</defs>
</svg>