<svg width="38" height="38" viewBox="0 0 30 28" fill="none"
                                xmlns="http://www.w3.org/2000/svg">
                                <path
                                    d="M29.1526 19.6594C28.98 19.2076 28.6407 18.853 28.1964 18.6609C27.7518 18.4694 27.2621 18.4647 26.8145 18.649L21.6014 20.8028C21.6016 20.7916 21.6069 20.7816 21.6069 20.7704C21.6069 19.8974 20.9237 19.1881 20.0506 19.1552L17.8043 19.0716C17.0556 19.0438 16.3058 18.9119 15.5746 18.6804C14.6102 18.3752 13.0851 17.9623 11.296 17.7255C9.24717 17.4536 7.28013 18.3979 6.07906 19.1528V18.8258L0.765625 18.8261V27.1198H6.07927V26.4761C6.92472 26.2967 8.67712 25.9379 9.42295 25.884C10.6995 25.7886 13.4441 25.95 17.1543 26.3306C18.8355 26.5038 20.4944 26.1514 21.9482 25.3221L28.3393 21.8548C29.1186 21.4326 29.4678 20.489 29.1527 19.6594L29.1526 19.6594ZM4.87274 25.9132H1.97204V20.0324H4.87274V25.9132ZM27.7639 20.794L21.362 24.2672C20.1143 24.9788 18.6982 25.271 17.2772 25.1309C14.6051 24.8562 11.0577 24.556 9.33579 24.6796C8.57981 24.7347 7.00916 25.0479 6.0793 25.2428V20.608C6.93473 19.9767 9.02517 18.6433 11.1385 18.9213C12.8404 19.1469 14.2923 19.5399 15.2103 19.8302C16.045 20.0946 16.9027 20.2449 17.7598 20.2767L20.0055 20.3603C20.2271 20.3692 20.4008 20.5488 20.4008 20.7702C20.4008 20.9839 20.264 21.1949 20.1051 21.2392C17.4903 21.7361 14.1386 21.2946 14.1001 21.2897L13.9364 22.4844C14.1079 22.5088 17.5073 22.9577 20.3198 22.4261L20.3207 22.4302C20.3283 22.4287 20.3342 22.4232 20.3419 22.4217C20.9131 22.3125 21.4617 22.1661 21.9513 21.9636L27.2749 19.7646C27.4181 19.7063 27.5754 19.707 27.7185 19.7682C27.861 19.8302 27.97 19.9438 28.0254 20.0886C28.1265 20.355 28.0146 20.6584 27.7641 20.7939L27.7639 20.794Z"
                                    fill="#CC1212"></path>
                                <path d="M3.22656 20.9277H4.43295V22.2437H3.22656V20.9277Z" fill="#CC1212"></path>
                                <path
                                    d="M13.9028 11.012L17.4631 9.53461L20.6991 11.6312L20.3939 7.78791L23.3871 5.35798L19.6381 4.4608L18.2526 0.863281L16.2402 4.15093L12.3906 4.35769L14.896 7.28721L13.9028 11.012ZM16.9377 5.32231L18.0051 3.57795L18.7403 5.48598L20.7292 5.96246L19.1415 7.25088L19.3029 9.28915L17.587 8.17754L15.6985 8.9611L16.2252 6.9858L14.8969 5.43122L16.9377 5.32231Z"
                                    fill="#CC1212"></path>
                                <path
                                    d="M21.5329 12.4379L19.0781 14.4384L22.1591 15.17L23.3031 18.1237L24.9508 15.4192L28.1135 15.243L26.0505 12.84L26.8605 9.77851L23.938 10.9978L21.2759 9.28125L21.5329 12.4379ZM22.6769 11.6202L23.8167 12.3554L25.0684 11.8335L24.7215 13.1455L25.6051 14.1746L24.2508 14.2495L23.5444 15.4081L23.0543 14.1428L21.7347 13.8294L22.7863 12.9729L22.6769 11.6202Z"
                                    fill="#CC1212"></path>
                                <path
                                    d="M9.03158 13.965L10.162 16.9227L11.822 14.2258L14.9848 14.0632L12.9329 11.6515L13.7559 8.59411L10.8281 9.80007L8.1744 8.07227L8.41721 11.2297L5.95312 13.2196L9.03158 13.965ZM9.56468 10.417L10.7011 11.1575L11.9558 10.6409L11.6029 11.951L12.4825 12.9843L11.1271 13.0539L10.4167 14.2085L9.93194 12.9413L8.61361 12.6226L9.6686 11.7695L9.56468 10.417Z"
                                    fill="#CC1212"></path>
                                <path
                                    d="M12.4297 6.66823L13.4111 6.26172L13.8727 7.37626L12.8913 7.78277L12.4297 6.66823Z"
                                    fill="#CC1212"></path>
                                <path
                                    d="M12.2939 8.02807L11.832 6.91353L11.0097 7.25409L9.36965 6.12891L8.6875 7.1232L10.8672 8.61839L12.2939 8.02807Z"
                                    fill="#CC1212"></path>
                            </svg>