<svg width="38" height="38" viewBox="0 0 28 26" fill="none" xmlns="http://www.w3.org/2000/svg">
<path d="M14.7509 0.414364C8.0103 0.414364 2.48916 5.73334 2.1623 12.3938H0.6875L2.90824 16.0369L5.12899 12.3938H3.70756C4.03189 6.58351 8.86116 1.95608 14.751 1.95608C20.8498 1.95608 25.8121 6.91814 25.8121 13.0172C25.8119 19.1161 20.8496 24.0789 14.7504 24.0789C12.5531 24.0789 10.3989 23.4093 8.57899 22.1792V22.1798H8.46068C10.3808 23.8272 12.5866 25.6209 14.7504 25.6209C21.7001 25.6209 27.3538 19.9673 27.3538 13.0175C27.3538 6.06766 21.7002 0.414062 14.7504 0.414062L14.7509 0.414364Z" fill="url(#paint0_linear_4105_33866)"/>
<defs>
<linearGradient id="paint0_linear_4105_33866" x1="21.4635" y1="0.414062" x2="21.3543" y2="31.0227" gradientUnits="userSpaceOnUse">
<stop stop-color="#005CAA"/>
<stop offset="1" stop-color="#64B0F1"/>
</linearGradient>
</defs>
</svg>