<svg width="39" height="39" viewBox="0 0 39 39" fill="none" xmlns="http://www.w3.org/2000/svg">
<g clip-path="url(#clip0_3369_11649)">
<path d="M35.3105 17.3649C35.7922 16.9527 36.1795 16.4414 36.4457 15.866C36.712 15.2906 36.8511 14.6645 36.8535 14.0304C36.8521 12.854 36.384 11.7262 35.5521 10.8945C34.7201 10.0627 33.5921 9.59501 32.4157 9.59393C31.8313 9.58757 31.2516 9.69798 30.7104 9.91868C30.1693 10.1394 29.6777 10.4659 29.2644 10.8792C28.8512 11.2924 28.5246 11.784 28.3039 12.3252C28.0832 12.8663 27.9728 13.4461 27.9792 14.0304C27.9792 15.3591 28.5777 16.5398 29.506 17.3527C29.0305 17.4969 28.5774 17.7066 28.1597 17.9756C27.6264 17.3593 26.9743 16.8568 26.2423 16.4984C25.5103 16.14 24.7135 15.933 23.8996 15.8897C25.3233 14.7701 26.2556 13.0533 26.2556 11.1071C26.2556 7.68307 23.5725 5 20.1485 5C18.5293 5.0018 16.977 5.6458 15.8321 6.79072C14.6871 7.93565 14.0431 9.48798 14.0413 11.1071C14.0413 13.0574 14.9764 14.7769 16.4041 15.8965C15.6002 15.9464 14.8143 16.1561 14.0924 16.5133C13.3704 16.8705 12.727 17.3681 12.1997 17.977C11.782 17.7079 11.3289 17.4983 10.8534 17.3541C11.3308 16.9418 11.7141 16.4318 11.9775 15.8587C12.2409 15.2856 12.3782 14.6626 12.3802 14.0318C12.3865 13.4474 12.2761 12.8676 12.0554 12.3265C11.8347 11.7854 11.5082 11.2938 11.0949 10.8805C10.6817 10.4673 10.1901 10.1407 9.64896 9.92004C9.10782 9.69934 8.52806 9.58893 7.94369 9.59528C6.76726 9.59636 5.63931 10.0641 4.80732 10.8958C3.97533 11.7275 3.50727 12.8554 3.50583 14.0318C3.50583 15.3672 4.11112 16.5534 5.0489 17.3663C2.81912 18.0408 1.17969 20.0901 1.17969 22.5384V30.1071C1.17969 30.2871 1.25118 30.4597 1.37844 30.587C1.50569 30.7142 1.67829 30.7857 1.85826 30.7857H10.6797V34.1786C10.6797 34.3585 10.7512 34.5311 10.8784 34.6584C11.0057 34.7857 11.1783 34.8571 11.3583 34.8571H29.0011C29.1811 34.8571 29.3537 34.7857 29.4809 34.6584C29.6082 34.5311 29.6797 34.3585 29.6797 34.1786V30.7857H38.5011C38.6811 30.7857 38.8537 30.7142 38.9809 30.587C39.1082 30.4597 39.1797 30.2871 39.1797 30.1071V22.5384C39.1797 20.0901 37.5403 18.0408 35.3105 17.3649ZM32.4157 10.9511C34.142 10.9511 35.4964 12.3041 35.4964 14.0304C35.4953 14.847 35.1704 15.6299 34.5928 16.2072C34.0153 16.7844 33.2323 17.1091 32.4157 17.1098C30.6894 17.1098 29.3363 15.7567 29.3363 14.0304C29.3363 12.3041 30.6894 10.9511 32.4157 10.9511ZM15.3985 11.1071C15.3985 8.44443 17.4858 6.35714 20.1485 6.35714C22.8112 6.35714 24.8985 8.44443 24.8985 11.1071C24.8985 13.7699 22.8112 15.8571 20.1485 15.8571C17.5292 15.8571 15.3985 13.7264 15.3985 11.1071ZM7.94369 10.9511C9.66997 10.9511 11.023 12.3041 11.023 14.0304C11.023 15.7567 9.66997 17.1098 7.94369 17.1098C7.1272 17.1087 6.34444 16.784 5.76696 16.2068C5.18949 15.6295 4.86441 14.8469 4.86297 14.0304C4.86297 12.3028 6.21604 10.9511 7.94369 10.9511ZM5.25112 29.4286V23.3214C5.25112 23.1415 5.17962 22.9689 5.05237 22.8416C4.92511 22.7143 4.75251 22.6429 4.57254 22.6429C4.39258 22.6429 4.21998 22.7143 4.09272 22.8416C3.96547 22.9689 3.89397 23.1415 3.89397 23.3214V29.4286H2.53683V22.5384C2.53683 20.2936 4.36354 18.4669 6.60826 18.4669H9.32254C10.0635 18.4669 10.7774 18.6732 11.4153 19.0668C11.3488 19.1903 11.2972 19.3192 11.2388 19.4468C11.2063 19.5201 11.1683 19.5893 11.1384 19.6639C11.0096 19.98 10.9079 20.3064 10.8344 20.6397C10.8168 20.7157 10.8045 20.7931 10.791 20.8718C10.7204 21.2318 10.6832 21.5975 10.6797 21.9643V29.4286H5.25112ZM28.3225 33.5H25.6083V23.3214C25.6083 23.1415 25.5368 22.9689 25.4095 22.8416C25.2823 22.7143 25.1097 22.6429 24.9297 22.6429C24.7497 22.6429 24.5771 22.7143 24.4499 22.8416C24.3226 22.9689 24.2511 23.1415 24.2511 23.3214V33.5H16.1083V23.3214C16.1083 23.1415 16.0368 22.9689 15.9095 22.8416C15.7823 22.7143 15.6097 22.6429 15.4297 22.6429C15.2497 22.6429 15.0771 22.7143 14.9499 22.8416C14.8226 22.9689 14.7511 23.1415 14.7511 23.3214V33.5H12.0368V21.9643C12.0368 21.6711 12.0721 21.3875 12.1237 21.1106C12.14 21.0197 12.1644 20.9315 12.1861 20.8419C12.2323 20.6546 12.2893 20.4728 12.3558 20.295C12.3924 20.2 12.4263 20.1036 12.4684 20.0114C12.5512 19.8309 12.6475 19.6585 12.752 19.4902C12.7955 19.421 12.8294 19.3477 12.8755 19.2799C13.3107 18.6438 13.8943 18.1233 14.5758 17.7634C15.2572 17.4035 16.0161 17.215 16.7868 17.2143H23.5725C25.1943 17.2143 26.6261 18.034 27.4838 19.2785C27.53 19.3464 27.5639 19.4196 27.6073 19.4889C27.7105 19.6571 27.8082 19.8295 27.891 20.01C27.933 20.1023 27.9683 20.1986 28.0036 20.2936C28.0715 20.4714 28.1285 20.6533 28.1733 20.8406C28.195 20.9301 28.2194 21.0184 28.2357 21.1093C28.2873 21.3875 28.3225 21.6711 28.3225 21.9643V33.5ZM37.8225 29.4286H36.4654V23.3214C36.4654 23.1415 36.3939 22.9689 36.2667 22.8416C36.1394 22.7143 35.9668 22.6429 35.7868 22.6429C35.6069 22.6429 35.4343 22.7143 35.307 22.8416C35.1797 22.9689 35.1083 23.1415 35.1083 23.3214V29.4286H29.6797V21.9643C29.6797 21.5938 29.6349 21.2301 29.5698 20.8704C29.4964 20.4568 29.38 20.052 29.2223 19.6626C29.1925 19.5879 29.1545 19.5187 29.1219 19.4454C29.0635 19.3179 29.012 19.1889 28.9455 19.0654C29.5833 18.6719 30.2972 18.4656 31.0382 18.4656H33.7525C35.9972 18.4656 37.8239 20.2923 37.8239 22.537L37.8225 29.4286Z" fill="url(#paint0_linear_3369_11649)"></path>
<path d="M35.3105 17.3649C35.7922 16.9527 36.1795 16.4414 36.4457 15.866C36.712 15.2906 36.8511 14.6645 36.8535 14.0304C36.8521 12.854 36.384 11.7262 35.5521 10.8945C34.7201 10.0627 33.5921 9.59501 32.4157 9.59393C31.8313 9.58757 31.2516 9.69798 30.7104 9.91868C30.1693 10.1394 29.6777 10.4659 29.2644 10.8792C28.8512 11.2924 28.5246 11.784 28.3039 12.3252C28.0832 12.8663 27.9728 13.4461 27.9792 14.0304C27.9792 15.3591 28.5777 16.5398 29.506 17.3527C29.0305 17.4969 28.5774 17.7066 28.1597 17.9756C27.6264 17.3593 26.9743 16.8568 26.2423 16.4984C25.5103 16.14 24.7135 15.933 23.8996 15.8897C25.3233 14.7701 26.2556 13.0533 26.2556 11.1071C26.2556 7.68307 23.5725 5 20.1485 5C18.5293 5.0018 16.977 5.6458 15.8321 6.79072C14.6871 7.93565 14.0431 9.48798 14.0413 11.1071C14.0413 13.0574 14.9764 14.7769 16.4041 15.8965C15.6002 15.9464 14.8143 16.1561 14.0924 16.5133C13.3704 16.8705 12.727 17.3681 12.1997 17.977C11.782 17.7079 11.3289 17.4983 10.8534 17.3541C11.3308 16.9418 11.7141 16.4318 11.9775 15.8587C12.2409 15.2856 12.3782 14.6626 12.3802 14.0318C12.3865 13.4474 12.2761 12.8676 12.0554 12.3265C11.8347 11.7854 11.5082 11.2938 11.0949 10.8805C10.6817 10.4673 10.1901 10.1407 9.64896 9.92004C9.10782 9.69934 8.52806 9.58893 7.94369 9.59528C6.76726 9.59636 5.63931 10.0641 4.80732 10.8958C3.97533 11.7275 3.50727 12.8554 3.50583 14.0318C3.50583 15.3672 4.11112 16.5534 5.0489 17.3663C2.81912 18.0408 1.17969 20.0901 1.17969 22.5384V30.1071C1.17969 30.2871 1.25118 30.4597 1.37844 30.587C1.50569 30.7142 1.67829 30.7857 1.85826 30.7857H10.6797V34.1786C10.6797 34.3585 10.7512 34.5311 10.8784 34.6584C11.0057 34.7857 11.1783 34.8571 11.3583 34.8571H29.0011C29.1811 34.8571 29.3537 34.7857 29.4809 34.6584C29.6082 34.5311 29.6797 34.3585 29.6797 34.1786V30.7857H38.5011C38.6811 30.7857 38.8537 30.7142 38.9809 30.587C39.1082 30.4597 39.1797 30.2871 39.1797 30.1071V22.5384C39.1797 20.0901 37.5403 18.0408 35.3105 17.3649ZM32.4157 10.9511C34.142 10.9511 35.4964 12.3041 35.4964 14.0304C35.4953 14.847 35.1704 15.6299 34.5928 16.2072C34.0153 16.7844 33.2323 17.1091 32.4157 17.1098C30.6894 17.1098 29.3363 15.7567 29.3363 14.0304C29.3363 12.3041 30.6894 10.9511 32.4157 10.9511ZM15.3985 11.1071C15.3985 8.44443 17.4858 6.35714 20.1485 6.35714C22.8112 6.35714 24.8985 8.44443 24.8985 11.1071C24.8985 13.7699 22.8112 15.8571 20.1485 15.8571C17.5292 15.8571 15.3985 13.7264 15.3985 11.1071ZM7.94369 10.9511C9.66997 10.9511 11.023 12.3041 11.023 14.0304C11.023 15.7567 9.66997 17.1098 7.94369 17.1098C7.1272 17.1087 6.34444 16.784 5.76696 16.2068C5.18949 15.6295 4.86441 14.8469 4.86297 14.0304C4.86297 12.3028 6.21604 10.9511 7.94369 10.9511ZM5.25112 29.4286V23.3214C5.25112 23.1415 5.17962 22.9689 5.05237 22.8416C4.92511 22.7143 4.75251 22.6429 4.57254 22.6429C4.39258 22.6429 4.21998 22.7143 4.09272 22.8416C3.96547 22.9689 3.89397 23.1415 3.89397 23.3214V29.4286H2.53683V22.5384C2.53683 20.2936 4.36354 18.4669 6.60826 18.4669H9.32254C10.0635 18.4669 10.7774 18.6732 11.4153 19.0668C11.3488 19.1903 11.2972 19.3192 11.2388 19.4468C11.2063 19.5201 11.1683 19.5893 11.1384 19.6639C11.0096 19.98 10.9079 20.3064 10.8344 20.6397C10.8168 20.7157 10.8045 20.7931 10.791 20.8718C10.7204 21.2318 10.6832 21.5975 10.6797 21.9643V29.4286H5.25112ZM28.3225 33.5H25.6083V23.3214C25.6083 23.1415 25.5368 22.9689 25.4095 22.8416C25.2823 22.7143 25.1097 22.6429 24.9297 22.6429C24.7497 22.6429 24.5771 22.7143 24.4499 22.8416C24.3226 22.9689 24.2511 23.1415 24.2511 23.3214V33.5H16.1083V23.3214C16.1083 23.1415 16.0368 22.9689 15.9095 22.8416C15.7823 22.7143 15.6097 22.6429 15.4297 22.6429C15.2497 22.6429 15.0771 22.7143 14.9499 22.8416C14.8226 22.9689 14.7511 23.1415 14.7511 23.3214V33.5H12.0368V21.9643C12.0368 21.6711 12.0721 21.3875 12.1237 21.1106C12.14 21.0197 12.1644 20.9315 12.1861 20.8419C12.2323 20.6546 12.2893 20.4728 12.3558 20.295C12.3924 20.2 12.4263 20.1036 12.4684 20.0114C12.5512 19.8309 12.6475 19.6585 12.752 19.4902C12.7955 19.421 12.8294 19.3477 12.8755 19.2799C13.3107 18.6438 13.8943 18.1233 14.5758 17.7634C15.2572 17.4035 16.0161 17.215 16.7868 17.2143H23.5725C25.1943 17.2143 26.6261 18.034 27.4838 19.2785C27.53 19.3464 27.5639 19.4196 27.6073 19.4889C27.7105 19.6571 27.8082 19.8295 27.891 20.01C27.933 20.1023 27.9683 20.1986 28.0036 20.2936C28.0715 20.4714 28.1285 20.6533 28.1733 20.8406C28.195 20.9301 28.2194 21.0184 28.2357 21.1093C28.2873 21.3875 28.3225 21.6711 28.3225 21.9643V33.5ZM37.8225 29.4286H36.4654V23.3214C36.4654 23.1415 36.3939 22.9689 36.2667 22.8416C36.1394 22.7143 35.9668 22.6429 35.7868 22.6429C35.6069 22.6429 35.4343 22.7143 35.307 22.8416C35.1797 22.9689 35.1083 23.1415 35.1083 23.3214V29.4286H29.6797V21.9643C29.6797 21.5938 29.6349 21.2301 29.5698 20.8704C29.4964 20.4568 29.38 20.052 29.2223 19.6626C29.1925 19.5879 29.1545 19.5187 29.1219 19.4454C29.0635 19.3179 29.012 19.1889 28.9455 19.0654C29.5833 18.6719 30.2972 18.4656 31.0382 18.4656H33.7525C35.9972 18.4656 37.8239 20.2923 37.8239 22.537L37.8225 29.4286Z" fill="black" fill-opacity="0.2"></path>
</g>
<defs>
<linearGradient id="paint0_linear_3369_11649" x1="20.1797" y1="5" x2="20.1797" y2="34.8571" gradientUnits="userSpaceOnUse">
<stop stop-color="#FF0F0F"></stop>
<stop offset="1" stop-color="#FF4849"></stop>
</linearGradient>
<clipPath id="clip0_3369_11649">
<rect width="37.9976" height="37.9848" fill="white" transform="translate(0.726562 0.574219)"></rect>
</clipPath>
</defs>
</svg>