<svg width="38" height="38" viewBox="0 0 33 22" fill="none" xmlns="http://www.w3.org/2000/svg">
<path d="M27.6539 9.67724H12.9871C12.619 9.67724 12.3203 9.37724 12.3203 9.01049C12.3203 8.64375 12.619 8.34375 12.9871 8.34375H27.6539C28.0207 8.34375 28.3207 8.64375 28.3207 9.01049C28.3207 9.37724 28.0207 9.67724 27.6539 9.67724Z" fill="#CC1212"/>
<path d="M24.9875 14.3018C24.8755 14.3018 24.761 14.2739 24.6556 14.2165C24.3369 14.0286 24.2277 13.6286 24.409 13.3018L26.8838 9.00984L24.409 4.7179C24.2264 4.40049 24.3342 3.99133 24.6556 3.80316C24.9744 3.62057 25.3822 3.72972 25.5664 4.05114L28.2331 8.67634C28.3532 8.8817 28.3532 9.13773 28.2331 9.34309L25.5664 13.9683C25.4422 14.1817 25.217 14.3015 24.9878 14.3015L24.9875 14.3018Z" fill="#CC1212"/>
<path d="M20.982 13.6772H6.31518C5.9471 13.6772 5.64844 13.3772 5.64844 13.0105C5.64844 12.6437 5.9471 12.3438 6.31518 12.3438H20.982C21.3488 12.3438 21.6488 12.6437 21.6488 13.0105C21.6488 13.3772 21.3488 13.6772 20.982 13.6772Z" fill="#CC1212"/>
<path d="M8.98281 18.303C8.75223 18.303 8.52813 18.1829 8.40424 17.9697L5.7375 13.3445C5.61875 13.1392 5.61875 12.8831 5.7375 12.6778L8.40424 8.05259C8.58683 7.73518 8.99487 7.62469 9.31499 7.80594C9.63373 7.99389 9.74423 8.39657 9.5603 8.72068L7.0855 13.0113L9.5603 17.3033C9.74423 17.6233 9.63508 18.0298 9.31499 18.218C9.21097 18.274 9.09624 18.3033 8.98306 18.3033L8.98281 18.303Z" fill="#CC1212"/>
<path d="M32.318 21.6772H1.65112C1.28304 21.6772 0.984375 21.3772 0.984375 21.0105V1.01049C0.984375 0.64375 1.28304 0.34375 1.65112 0.34375H32.318C32.6847 0.34375 32.9847 0.64375 32.9847 1.01049V21.0105C32.9847 21.3772 32.6847 21.6772 32.318 21.6772ZM2.31798 20.3438H31.6511V1.67689H2.31798V20.3438Z" fill="#CC1212"/>
</svg>