<svg width="38" height="38" viewBox="0 0 39 39" fill="none" xmlns="http://www.w3.org/2000/svg">
<path d="M14.1057 30.4054C12.6765 30.4038 11.3062 29.8355 10.2955 28.8252C9.28489 27.8149 8.71642 26.4451 8.71484 25.0163C8.71484 24.8589 8.7774 24.7079 8.88874 24.5966C9.00008 24.4853 9.15109 24.4228 9.30856 24.4228C9.46602 24.4228 9.61703 24.4853 9.72837 24.5966C9.83972 24.7079 9.90227 24.8589 9.90227 25.0163C9.90227 25.8474 10.1488 26.6598 10.6107 27.3508C11.0726 28.0418 11.7291 28.5804 12.4971 28.8985C13.2652 29.2165 14.1104 29.2997 14.9258 29.1376C15.7412 28.9755 16.4902 28.5753 17.0781 27.9876C17.6659 27.3999 18.0663 26.6512 18.2285 25.8361C18.3907 25.0209 18.3074 24.176 17.9893 23.4082C17.6711 22.6404 17.1323 21.9841 16.4411 21.5224C15.7498 21.0606 14.9371 20.8142 14.1057 20.8142C13.3695 20.8133 12.6463 21.0078 12.0099 21.378L12.0634 21.4077C12.1316 21.4467 12.1915 21.4987 12.2396 21.5608C12.2877 21.6229 12.3231 21.6939 12.3438 21.7697C12.3644 21.8454 12.37 21.9245 12.3601 22.0025C12.3502 22.0804 12.325 22.1556 12.286 22.2238C12.247 22.292 12.195 22.3518 12.1329 22.3999C12.0708 22.448 11.9998 22.4834 11.924 22.5041C11.8482 22.5248 11.769 22.5303 11.6911 22.5204C11.6131 22.5105 11.5379 22.4853 11.4697 22.4464L10.6207 21.9419C10.539 21.8956 10.4694 21.8307 10.4177 21.7524C10.366 21.6741 10.3336 21.5846 10.3232 21.4914C10.3128 21.3981 10.3246 21.3037 10.3577 21.2159C10.3909 21.1281 10.4443 21.0494 10.5138 20.9863C11.1648 20.4027 11.9481 19.9862 12.796 19.7726C13.644 19.5591 14.5312 19.555 15.3811 19.7606C16.231 19.9662 17.0181 20.3755 17.6745 20.953C18.3309 21.5305 18.837 22.259 19.149 23.0756C19.461 23.8922 19.5696 24.7725 19.4654 25.6404C19.3613 26.5083 19.0475 27.3379 18.5511 28.0576C18.0547 28.7772 17.3907 29.3654 16.6162 29.7713C15.8418 30.1772 14.9802 30.3887 14.1057 30.3876V30.4054Z" fill="url(#paint0_linear_3820_20699)"/>
<path d="M10.9065 22.0344C10.7588 22.0351 10.6162 21.9808 10.5064 21.882C10.3966 21.7833 10.3276 21.6471 10.3128 21.5002L10.1941 20.3785C10.1783 20.2211 10.2258 20.0639 10.326 19.9414C10.4262 19.819 10.571 19.7414 10.7284 19.7256C10.8859 19.7099 11.0432 19.7573 11.1656 19.8575C11.2881 19.9577 11.3658 20.1024 11.3815 20.2598L11.5003 21.3815C11.5152 21.5372 11.4681 21.6925 11.3691 21.8136C11.2702 21.9348 11.1274 22.012 10.9718 22.0284L10.9065 22.0344ZM24.1582 37.2461H9.82598C9.03867 37.2461 8.28361 36.9335 7.72689 36.3769C7.17018 35.8204 6.85742 35.0656 6.85742 34.2786V32.6227C6.85742 32.4652 6.91997 32.3143 7.03132 32.203C7.14266 32.0917 7.29367 32.0291 7.45113 32.0291H26.533C26.6905 32.0291 26.8415 32.0917 26.9529 32.203C27.0642 32.3143 27.1268 32.4652 27.1268 32.6227V34.2548C27.1299 34.6465 27.0554 35.035 26.9076 35.3977C26.7599 35.7605 26.5417 36.0905 26.2657 36.3686C25.9898 36.6466 25.6614 36.8674 25.2997 37.018C24.938 37.1686 24.55 37.2461 24.1582 37.2461ZM8.04485 33.2162V34.2548C8.04485 34.727 8.2325 35.1799 8.56653 35.5138C8.90056 35.8478 9.3536 36.0354 9.82598 36.0354H24.1582C24.6306 36.0354 25.0836 35.8478 25.4176 35.5138C25.7517 35.1799 25.9393 34.727 25.9393 34.2548V33.2162H8.04485Z" fill="url(#paint1_linear_3820_20699)"/>
<path d="M26.533 33.2185H7.45113C7.29367 33.2185 7.14266 33.156 7.03132 33.0447C6.91997 32.9334 6.85742 32.7824 6.85742 32.625V6.21366C6.85742 5.42661 7.17018 4.6718 7.72689 4.11527C8.28361 3.55875 9.03867 3.24609 9.82598 3.24609H24.1582C24.9455 3.24609 25.7006 3.55875 26.2573 4.11527C26.814 4.6718 27.1268 5.42661 27.1268 6.21366V11.0567C27.1268 11.2141 27.0642 11.3651 26.9529 11.4764C26.8415 11.5877 26.6905 11.6502 26.533 11.6502H21.8249V27.0816H26.533C26.6905 27.0816 26.8415 27.1441 26.9529 27.2554C27.0642 27.3667 27.1268 27.5177 27.1268 27.6751V32.625C27.1268 32.7824 27.0642 32.9334 26.9529 33.0447C26.8415 33.156 26.6905 33.2185 26.533 33.2185ZM8.04485 32.0315H25.9393V28.2449H21.2312C21.0737 28.2449 20.9227 28.1823 20.8114 28.071C20.7 27.9597 20.6375 27.8088 20.6375 27.6513V11.033C20.6375 10.8756 20.7 10.7246 20.8114 10.6133C20.9227 10.502 21.0737 10.4395 21.2312 10.4395H25.9393V6.21366C25.9393 5.74143 25.7517 5.28854 25.4176 4.95463C25.0836 4.62071 24.6306 4.43312 24.1582 4.43312H9.82598C9.3536 4.43312 8.90056 4.62071 8.56653 4.95463C8.2325 5.28854 8.04485 5.74143 8.04485 6.21366V32.0315Z" fill="url(#paint2_linear_3820_20699)"/>
<path d="M21.1485 7.40068H12.8365C12.7176 7.4008 12.6014 7.36522 12.503 7.29855C12.4045 7.23188 12.3284 7.1372 12.2844 7.02677L11.0969 4.05921C11.0611 3.96933 11.0477 3.87206 11.0581 3.77586C11.0684 3.67965 11.1022 3.58744 11.1563 3.50724C11.2108 3.42669 11.2842 3.36076 11.3701 3.31522C11.456 3.26969 11.5518 3.24595 11.6491 3.24609H22.3359C22.4332 3.24595 22.529 3.26969 22.6149 3.31522C22.7008 3.36076 22.7742 3.42669 22.8287 3.50724C22.8828 3.58744 22.9166 3.67965 22.9269 3.77586C22.9373 3.87206 22.9239 3.96933 22.8881 4.05921L21.7006 7.02677C21.6566 7.1372 21.5805 7.23188 21.482 7.29855C21.3836 7.36522 21.2674 7.4008 21.1485 7.40068ZM13.2402 6.21366H20.7448L21.4572 4.43312H12.5515L13.2402 6.21366ZM32.3043 28.2449H21.2316C21.0741 28.2449 20.9231 28.1823 20.8118 28.071C20.7004 27.9597 20.6379 27.8088 20.6379 27.6513V11.033C20.6379 10.8756 20.7004 10.7246 20.8118 10.6133C20.9231 10.502 21.0741 10.4395 21.2316 10.4395H27.7031C27.8605 10.4395 28.0115 10.502 28.1229 10.6133C28.2342 10.7246 28.2968 10.8756 28.2968 11.033V14.6653L32.2984 14.6237C32.3765 14.6233 32.454 14.6383 32.5263 14.6678C32.5987 14.6973 32.6645 14.7408 32.7199 14.7959C32.776 14.8508 32.8207 14.9164 32.8512 14.9887C32.8818 15.061 32.8977 15.1387 32.8981 15.2172V27.6513C32.8981 27.8088 32.8355 27.9597 32.7242 28.071C32.6128 28.1823 32.4618 28.2449 32.3043 28.2449ZM21.8253 27.0578H31.7106V15.8404L27.709 15.882C27.6305 15.8853 27.5522 15.8716 27.4794 15.8419C27.4067 15.8122 27.3412 15.7672 27.2875 15.7099C27.2314 15.6549 27.1867 15.5893 27.1562 15.517C27.1256 15.4447 27.1097 15.367 27.1094 15.2885V11.6502H21.8253V27.0578Z" fill="url(#paint3_linear_3820_20699)"/>
<path d="M27.703 15.8806C27.5472 15.8799 27.3979 15.8181 27.2874 15.7084C27.2313 15.6535 27.1866 15.5879 27.1561 15.5156C27.1255 15.4433 27.1096 15.3656 27.1092 15.287V11.0553C27.11 10.9405 27.1441 10.8283 27.2073 10.7325C27.2705 10.6366 27.3602 10.5611 27.4655 10.5152C27.5699 10.4692 27.6853 10.4543 27.798 10.4722C27.9106 10.4901 28.0157 10.54 28.1007 10.6161L32.702 14.7707C32.7902 14.8508 32.8523 14.9557 32.8801 15.0716C32.9079 15.1874 32.9001 15.309 32.8579 15.4204C32.8156 15.5318 32.7407 15.628 32.643 15.6963C32.5454 15.7646 32.4294 15.8019 32.3102 15.8034L27.7089 15.8509L27.703 15.8806ZM28.2967 12.3966V14.6876H30.7843L28.2967 12.3966ZM11.5302 13.5599H9.81442C9.65695 13.5599 9.50594 13.4974 9.3946 13.3861C9.28325 13.2748 9.2207 13.1238 9.2207 12.9664C9.2207 12.809 9.28325 12.658 9.3946 12.5467C9.50594 12.4354 9.65695 12.3729 9.81442 12.3729H11.5302C11.6877 12.3729 11.8387 12.4354 11.9501 12.5467C12.0614 12.658 12.124 12.809 12.124 12.9664C12.124 13.1238 12.0614 13.2748 11.9501 13.3861C11.8387 13.4974 11.6877 13.5599 11.5302 13.5599ZM17.4674 13.5599H13.9704C13.8129 13.5599 13.6619 13.4974 13.5506 13.3861C13.4392 13.2748 13.3767 13.1238 13.3767 12.9664C13.3767 12.809 13.4392 12.658 13.5506 12.5467C13.6619 12.4354 13.8129 12.3729 13.9704 12.3729H17.4674C17.6248 12.3729 17.7758 12.4354 17.8872 12.5467C17.9985 12.658 18.0611 12.809 18.0611 12.9664C18.0611 13.1238 17.9985 13.2748 17.8872 13.3861C17.7758 13.4974 17.6248 13.5599 17.4674 13.5599ZM12.7889 26.8902C12.6332 26.8896 12.4839 26.8277 12.3733 26.7181C12.2627 26.6069 12.2007 26.4565 12.2007 26.2997C12.2007 26.1429 12.2627 25.9924 12.3733 25.8812L13.5132 24.7358V22.6347C13.5132 22.4773 13.5758 22.3264 13.6871 22.2151C13.7985 22.1038 13.9495 22.0412 14.107 22.0412C14.2644 22.0412 14.4154 22.1038 14.5268 22.2151C14.6381 22.3264 14.7007 22.4773 14.7007 22.6347V25.0088C14.7 25.1645 14.6382 25.3137 14.5285 25.4242L13.2104 26.7418C13.0946 26.8443 12.9434 26.8975 12.7889 26.8902Z" fill="url(#paint4_linear_3820_20699)"/>
<defs>
<linearGradient id="paint0_linear_3820_20699" x1="17.1206" y1="19.6094" x2="17.0711" y2="32.7189" gradientUnits="userSpaceOnUse">
<stop stop-color="#005CAA"/>
<stop offset="1" stop-color="#64B0F1"/>
</linearGradient>
<linearGradient id="paint1_linear_3820_20699" x1="22.6495" y1="19.7227" x2="22.5801" y2="41.0014" gradientUnits="userSpaceOnUse">
<stop stop-color="#005CAA"/>
<stop offset="1" stop-color="#64B0F1"/>
</linearGradient>
<linearGradient id="paint2_linear_3820_20699" x1="22.6495" y1="3.24609" x2="22.4464" y2="39.6408" gradientUnits="userSpaceOnUse">
<stop stop-color="#005CAA"/>
<stop offset="1" stop-color="#64B0F1"/>
</linearGradient>
<linearGradient id="paint3_linear_3820_20699" x1="28.0731" y1="3.24609" x2="27.942" y2="33.6018" gradientUnits="userSpaceOnUse">
<stop stop-color="#005CAA"/>
<stop offset="1" stop-color="#64B0F1"/>
</linearGradient>
<linearGradient id="paint4_linear_3820_20699" x1="27.6667" y1="10.4648" x2="27.6145" y2="30.411" gradientUnits="userSpaceOnUse">
<stop stop-color="#005CAA"/>
<stop offset="1" stop-color="#64B0F1"/>
</linearGradient>
</defs>
</svg>