<svg width="38" height="38" viewBox="0 0 26 22" fill="none" xmlns="http://www.w3.org/2000/svg">
<path d="M1.60015 17.7207H14.755C15.3508 19.3948 16.7057 20.687 18.4063 21.2026C20.1068 21.718 21.9512 21.396 23.3764 20.3344C24.8015 19.2728 25.638 17.598 25.6309 15.821C25.6237 14.0437 24.7735 12.3757 23.34 11.3257V3.02053C23.3394 2.69576 23.2101 2.38459 22.9804 2.15493C22.751 1.92547 22.4396 1.79623 22.115 1.79555H20.7126C20.5938 1.32033 20.2684 0.923441 19.8255 0.713841C19.3829 0.504241 18.8695 0.504241 18.4268 0.713841C17.9842 0.923441 17.6588 1.3203 17.54 1.79555H1.59998C1.2752 1.79622 0.964035 1.92546 0.734378 2.15493C0.504915 2.38462 0.375674 2.69578 0.375 3.02053V16.5005C0.376786 16.8244 0.506698 17.1342 0.736161 17.3628C0.965624 17.5914 1.27611 17.72 1.59999 17.7206L1.60015 17.7207ZM1.60015 16.9707C1.33765 16.9707 1.12515 16.758 1.12515 16.4957V15.5156H14.4452V15.843C14.4458 16.2218 14.4833 16.5993 14.5577 16.9707H1.60015ZM15.1853 15.8433L15.1851 15.8431C15.1869 14.6245 15.6471 13.4511 16.4743 12.5562C17.3016 11.6613 18.4352 11.1104 19.6502 11.0131V12.5006C18.8348 12.5926 18.0812 12.9792 17.5308 13.5876C16.9803 14.1959 16.671 14.9843 16.6607 15.8048C16.6504 16.6251 16.9399 17.4211 17.4752 18.043L16.4326 19.0856C15.6288 18.197 15.1841 17.0412 15.185 15.843L15.1853 15.8433ZM20.0353 18.4683L20.0351 18.4681C19.3388 18.4681 18.6712 18.1915 18.1791 17.6993C17.6867 17.2072 17.4101 16.5393 17.4101 15.8431C17.4101 15.1469 17.6867 14.4793 18.1791 13.9871C18.6713 13.4947 19.3389 13.2181 20.0351 13.2181C20.7313 13.2181 21.3991 13.4947 21.8913 13.9871C22.3835 14.4793 22.66 15.1469 22.66 15.8431C22.6594 16.5391 22.3826 17.2065 21.8906 17.6987C21.3984 18.1907 20.731 18.4675 20.035 18.4681L20.0353 18.4683ZM16.9701 19.5982L18.0225 18.5457C18.6018 18.9797 19.3063 19.2145 20.0301 19.2145C20.754 19.2145 21.4585 18.9797 22.0377 18.5457L23.0902 19.5982C22.2266 20.304 21.1456 20.6897 20.0301 20.6897C18.9147 20.6897 17.8337 20.304 16.9701 19.5982ZM24.8849 15.8482C24.8878 17.0493 24.4421 18.2085 23.6349 19.0982L22.5925 18.0558V18.0556C23.1329 17.4324 23.4258 16.6324 23.4153 15.8076C23.405 14.9828 23.0923 14.1904 22.5365 13.5808C21.9807 12.9712 21.2204 12.5868 20.4001 12.5007V11.0007C21.6202 11.0944 22.7597 11.6453 23.5914 12.5431C24.4229 13.4408 24.8849 14.6194 24.8849 15.8431V15.8482ZM19.1352 1.31333C19.3716 1.31266 19.5986 1.40597 19.766 1.57293C19.9334 1.73968 20.0276 1.96624 20.0279 2.20242C20.0281 2.4388 19.9343 2.66559 19.7672 2.83276C19.6 2.99973 19.3734 3.09348 19.137 3.09325C18.9007 3.09303 18.6741 2.99883 18.5073 2.83142C18.3406 2.66401 18.2471 2.43723 18.2477 2.20085C18.2471 1.96648 18.3388 1.74147 18.5031 1.57428C18.6674 1.40709 18.891 1.31156 19.1254 1.30844L19.1352 1.31333ZM1.13523 3.02585C1.1368 2.76402 1.34863 2.55218 1.61023 2.55085H17.528C17.6233 2.97808 17.8851 3.3497 18.2554 3.58342L17.7005 4.69102V4.69079C17.6181 4.67405 17.5344 4.66557 17.4505 4.66579C16.992 4.66646 16.5659 4.90129 16.3204 5.28837L14.5878 4.78837H14.588C14.5905 4.74752 14.5905 4.70667 14.588 4.66582C14.5927 4.23435 14.3918 3.82634 14.0467 3.56697C13.7016 3.30781 13.2536 3.22857 12.8405 3.35357C12.4275 3.47857 12.0988 3.79286 11.9552 4.19997C11.8117 4.60689 11.8706 5.05803 12.1139 5.41449C12.3572 5.77096 12.7559 5.99014 13.1871 6.00466C13.6186 6.01939 14.0311 5.82765 14.2979 5.48836L16.1204 6.00086C16.1162 6.45689 16.3432 6.88389 16.7236 7.13526C17.1039 7.38682 17.5859 7.42834 18.0037 7.24598C18.4216 7.06339 18.7184 6.68169 18.7926 6.23192C18.8667 5.78192 18.7077 5.32523 18.3705 5.01832L18.968 3.81586H19.1205C19.4943 3.81586 19.8571 3.68796 20.1481 3.45314C20.4392 3.21854 20.6412 2.89131 20.7205 2.52588H22.1104C22.3722 2.52722 22.5841 2.73905 22.5854 3.00088V10.8632C20.9147 10.0025 18.9227 10.0402 17.2854 10.9632V8.23059H16.5354V11.4806C16.12 11.8141 15.7537 12.2045 15.4479 12.6407H14.7555V9.9306H14.0055V12.6306H12.2329V6.53059H11.4829V12.6306H9.70552V8.23059H8.95552V12.6306H7.17563V9.9306H6.42563V12.6306H4.64551V11.0632H3.89551V12.6306H2.78546V13.3806H15.0055C14.788 13.8192 14.6309 14.2851 14.538 14.7656H1.12548L1.13523 3.02585ZM18.0604 6.00082C18.0604 6.24144 17.9155 6.45841 17.6932 6.55059C17.4709 6.64256 17.2148 6.59167 17.0447 6.42158C16.8746 6.25149 16.8238 5.99546 16.9157 5.77312C17.0079 5.5508 17.2249 5.40571 17.4655 5.40571C17.7934 5.40727 18.0591 5.6727 18.0604 6.00082ZM13.8655 4.65842C13.8664 4.89748 13.7231 5.11355 13.5023 5.20551C13.2818 5.29748 13.0273 5.24703 12.8583 5.07806C12.6892 4.90886 12.6389 4.65462 12.7309 4.43389C12.8229 4.21313 13.0389 4.06982 13.278 4.07094C13.6019 4.07228 13.8642 4.33455 13.8655 4.65842ZM7.67066 4.27583H4.67066V3.52583H7.67066V4.27583ZM3.81306 4.27583H2.78563V3.52583H3.81306V4.27583ZM7.67066 5.97583H4.67066V5.22583H7.67066V5.97583ZM3.81306 5.97583H2.78563V5.22583H3.81306V5.97583ZM7.67066 7.67583H4.67066V6.92583H7.67066V7.67583ZM3.81306 7.67583H2.78563V6.92583H3.81306V7.67583ZM20.0353 14.4084C19.6548 14.4084 19.2898 14.5595 19.0208 14.8287C18.7516 15.0977 18.6005 15.4627 18.6005 15.8432C18.6005 16.2238 18.7516 16.589 19.0208 16.858C19.2898 17.1272 19.6548 17.2783 20.0353 17.2783C20.4159 17.2783 20.7811 17.1272 21.0501 16.858C21.3193 16.589 21.4704 16.2238 21.4704 15.8432C21.4697 15.4629 21.3184 15.0984 21.0494 14.8294C20.7805 14.5604 20.4159 14.4091 20.0353 14.4084ZM20.0353 16.5283C19.7583 16.5283 19.5086 16.3615 19.4026 16.1055C19.2965 15.8495 19.3552 15.5549 19.551 15.3589C19.747 15.1631 20.0416 15.1044 20.2976 15.2105C20.5536 15.3165 20.7204 15.5663 20.7204 15.8433C20.7204 16.2216 20.4137 16.5283 20.0353 16.5283Z" fill="url(#paint0_linear_4063_27792)"/>
<defs>
<linearGradient id="paint0_linear_4063_27792" x1="20.0521" y1="0.556641" x2="19.973" y2="25.9195" gradientUnits="userSpaceOnUse">
<stop stop-color="#005CAA"/>
<stop offset="1" stop-color="#64B0F1"/>
</linearGradient>
</defs>
</svg>