<svg width="38" height="38" viewBox="0 0 30 26" fill="none" xmlns="http://www.w3.org/2000/svg">
<path d="M17.396 13.8678C17.2984 13.7932 17.1906 13.7327 17.0761 13.6885C16.9513 13.6405 16.8232 13.5957 16.6984 13.5573L16.7913 12.4597C16.8558 12.4742 16.9192 12.4945 16.9801 12.5204L17.1337 12.5941L17.2585 12.6548V12.655C17.2873 12.6695 17.319 12.6782 17.3513 12.6805C17.3846 12.6818 17.4172 12.6716 17.444 12.6517C17.4674 12.6249 17.4868 12.5945 17.5015 12.5622L17.6616 12.3222C17.5533 12.2213 17.4328 12.1343 17.3033 12.0628C17.1513 11.9887 16.9879 11.9412 16.8201 11.9222L16.8649 11.4006H16.6216C16.5745 11.3983 16.5288 11.4171 16.4969 11.4517C16.4658 11.4823 16.4475 11.5236 16.4457 11.5669L16.417 11.9028V11.903C16.0844 11.895 15.762 12.0166 15.5176 12.2421C15.4212 12.343 15.3451 12.4613 15.2938 12.591C15.1804 12.8622 15.1804 13.1675 15.2938 13.439C15.3496 13.5553 15.4306 13.6579 15.5304 13.7396C15.6275 13.8175 15.7353 13.8812 15.8504 13.9285C15.9721 13.9762 16.096 14.018 16.2217 14.0533L16.1225 15.2437C16.0326 15.2285 15.9453 15.2004 15.8632 15.1606C15.7966 15.128 15.7324 15.0905 15.6712 15.0486L15.5176 14.9526C15.4817 14.9278 15.4397 14.9135 15.396 14.9108C15.3634 14.9115 15.3315 14.9202 15.3033 14.9365C15.2741 14.9519 15.2498 14.9754 15.2328 15.0037L15.0312 15.3012C15.1654 15.4352 15.3225 15.5437 15.4953 15.6213C15.6792 15.7079 15.8759 15.7651 16.0777 15.791L16.0297 16.3606H16.2696C16.3172 16.3615 16.3627 16.3417 16.3944 16.3062C16.4256 16.2767 16.4451 16.237 16.4489 16.1941L16.4808 15.8037C16.6629 15.7948 16.8419 15.7526 17.0089 15.6789C17.1549 15.6167 17.2866 15.5251 17.396 15.4102C17.5013 15.301 17.583 15.1716 17.6361 15.0294C17.6915 14.8809 17.7198 14.7238 17.7192 14.5653C17.7236 14.4211 17.6917 14.278 17.6265 14.1493C17.5701 14.0406 17.4915 13.9445 17.396 13.8678ZM16.2857 13.4294C16.2214 13.4075 16.1591 13.3796 16.1 13.3461C16.0455 13.3191 15.9957 13.2836 15.9529 13.2405C15.9116 13.2017 15.879 13.155 15.8569 13.103C15.8314 13.0479 15.8194 12.9876 15.8216 12.9269C15.8214 12.8702 15.831 12.814 15.8504 12.7606C15.8734 12.7073 15.9071 12.6593 15.9495 12.6198C15.9977 12.5716 16.0556 12.5345 16.1192 12.5108C16.1991 12.4785 16.2832 12.457 16.3687 12.447L16.2857 13.4294ZM16.9672 15.0613C16.8518 15.1725 16.7013 15.2403 16.5417 15.2533L16.6312 14.1622C16.6966 14.1838 16.7609 14.2095 16.8232 14.239C16.8779 14.2646 16.9283 14.2981 16.9736 14.3381C17.0152 14.3767 17.0498 14.4222 17.0761 14.4725C17.1 14.528 17.112 14.5881 17.1112 14.6486C17.1216 14.7999 17.0696 14.9492 16.9672 15.0613Z" fill="url(#paint0_linear_4497_31619)"/>
<path d="M28.6174 20.2011C28.5902 20.1636 28.5567 20.131 28.5183 20.1051C28.479 20.0806 28.4357 20.0634 28.3904 20.0538L26.352 19.6411H26.3518C27.4281 17.7232 27.9267 15.5351 27.7884 13.3399C27.6498 11.1451 26.8799 9.03701 25.571 7.26964H26.0288C26.2212 7.25178 26.3685 7.09018 26.3685 6.89688C26.3685 6.70357 26.2212 6.54197 26.0288 6.52411H25.9201L25.9198 6.06005C26.079 6.01429 26.1886 5.86875 26.1886 5.70335C26.1886 5.53773 26.079 5.39219 25.9198 5.34643V2.41517C26.0741 2.36606 26.1779 2.22187 26.1759 2.06004C26.1765 1.89397 26.0667 1.74754 25.9071 1.70156V1.24732H26.0158C26.2085 1.22946 26.3558 1.06786 26.3558 0.874555C26.3558 0.681029 26.2085 0.519423 26.0158 0.501566H20.8957H20.8959C20.791 0.491968 20.6868 0.52679 20.6091 0.597772C20.5312 0.668755 20.4868 0.7692 20.4868 0.87456C20.4868 0.979692 20.5312 1.08014 20.6091 1.15112C20.6868 1.2221 20.791 1.25693 20.8959 1.24733H21.0015V1.70179V1.70157C20.8437 1.74956 20.7357 1.89509 20.7359 2.06005C20.7366 2.225 20.8462 2.36965 21.0047 2.41518V3.60243C19.1366 2.77478 17.081 2.46335 15.0515 2.70043C13.0222 2.93749 11.0937 3.71449 9.46671 4.95043C7.83968 6.18615 6.57408 7.83592 5.80151 9.72723L4.70059 8.81203L4.46689 8.61694L4.23319 8.81203L3.11021 9.71449L0.710214 11.7049C0.630751 11.7685 0.580974 11.862 0.57182 11.9634C0.562668 12.0649 0.595481 12.1656 0.66222 12.2424C0.73298 12.3285 0.83878 12.3779 0.950168 12.3768C1.03677 12.3763 1.12048 12.3457 1.187 12.2904L1.587 11.9703V15.2665H5.02071C5.31669 18.0406 6.61825 20.6103 8.6794 22.4905C10.7405 24.3706 13.4189 25.4309 16.2085 25.4713C18.998 25.5117 21.7059 24.5294 23.8205 22.7097L26.9023 23.3497H26.9822C27.0451 23.3503 27.1069 23.3336 27.1612 23.3017H27.1869L29.2445 21.8329C29.4083 21.7153 29.4494 21.4887 29.3373 21.3209L28.6174 20.2011ZM26.8895 20.9179L22.2592 19.9931L22.7904 19.673L27.3632 20.6009L26.8895 20.9179ZM21.7694 6.51786V6.07634H25.1647V6.51161L21.7694 6.51786ZM21.7694 5.33706V2.43146H25.1647V5.33055L21.7694 5.33706ZM25.1647 1.24757V1.68262H21.7598V1.24757H25.1647ZM21.0047 5.34666C20.8455 5.39242 20.7359 5.53796 20.7359 5.70358C20.7359 5.86898 20.8455 6.01452 21.0047 6.06028V6.51139H20.8991C20.7942 6.50179 20.6901 6.53662 20.6122 6.6076C20.5343 6.67858 20.4901 6.77903 20.4901 6.88439C20.4901 6.98952 20.5343 7.08997 20.6122 7.16095C20.6901 7.23193 20.7942 7.26675 20.8991 7.25715H24.291C24.8611 7.92389 25.3459 8.65915 25.7343 9.44601L20.8703 11.7244C20.1377 10.3123 18.7846 9.32635 17.2158 9.06184V3.65715C18.5332 3.76452 19.8178 4.12188 21.0015 4.70984L21.0047 5.34666ZM16.3774 18.1147C15.2988 18.1147 14.2643 17.6861 13.5015 16.9233C12.7388 16.1606 12.3102 15.126 12.3102 14.0475C12.3102 12.9687 12.7388 11.9343 13.5015 11.1713C14.2643 10.4086 15.2988 9.98026 16.3774 9.98026C17.4562 9.98026 18.4905 10.4086 19.2533 11.1713C20.0163 11.9343 20.4446 12.9687 20.4446 14.0475C20.4437 15.1258 20.0149 16.1597 19.2524 16.9224C18.4899 17.6849 17.456 18.1137 16.3775 18.1146L16.3774 18.1147ZM2.33568 14.5178V11.3178L4.44774 9.56735L6.56294 11.3178V14.5178H5.76294V12.1274H3.13568V14.5178H2.33568ZM3.88123 12.8825H5.01403V14.5241L3.88123 14.5243V12.8825ZM6.01563 15.2667H7.29551L7.29573 11.9482L7.69573 12.2683C7.85377 12.4 8.08881 12.3783 8.22051 12.2203C8.35221 12.062 8.33056 11.8272 8.17252 11.6955L6.59486 10.3868V10.3866C7.33504 8.42142 8.65024 6.72479 10.369 5.5181C12.0877 4.31119 14.1301 3.65045 16.2301 3.62187V8.99153C14.4978 9.03863 12.91 9.96896 12.0225 11.4574C11.1348 12.9455 11.0705 14.7848 11.8524 16.3312C12.6344 17.8779 14.1533 18.9165 15.8781 19.0844V24.4634C13.4143 24.3375 11.0741 23.346 9.27009 21.6634C7.46586 19.9811 6.3134 17.7156 6.01586 15.2668L6.01563 15.2667ZM16.8768 24.4633V19.0843C18.3719 18.9387 19.7248 18.1354 20.5683 16.8923C21.4119 15.6492 21.6587 14.0955 21.2415 12.6521L26.131 10.3608V10.3611C26.6877 11.8349 26.9029 13.416 26.7603 14.9849C26.6178 16.5541 26.1216 18.0704 25.3087 19.4202L22.7967 18.9115V18.9113C22.7047 18.8921 22.6087 18.9079 22.5279 18.9561L21.0558 19.849C21.006 19.882 20.9652 19.9271 20.9375 19.9802L20.0959 21.4394C20.0401 21.5456 20.0401 21.6724 20.0959 21.7785C20.1446 21.8874 20.2419 21.9668 20.3582 21.993L22.579 22.4474C20.9189 23.6675 18.9348 24.3691 16.8768 24.4633ZM20.9886 21.3626L21.4301 20.5883L26.5982 21.622V22.518L20.9886 21.3626ZM27.3503 22.2555V21.5227L28.2079 20.9372L28.528 21.4236L27.3503 22.2555Z" fill="url(#paint1_linear_4497_31619)"/>
<defs>
<linearGradient id="paint0_linear_4497_31619" x1="17.1258" y1="11.4004" x2="17.0838" y2="17.4234" gradientUnits="userSpaceOnUse">
<stop stop-color="#005CAA"/>
<stop offset="1" stop-color="#64B0F1"/>
</linearGradient>
<linearGradient id="paint1_linear_4497_31619" x1="23.0321" y1="0.5" x2="22.933" y2="30.8241" gradientUnits="userSpaceOnUse">
<stop stop-color="#005CAA"/>
<stop offset="1" stop-color="#64B0F1"/>
</linearGradient>
</defs>
</svg>