<svg width="38" height="38" viewBox="0 0 31 31" fill="none" xmlns="http://www.w3.org/2000/svg">
<path d="M23.0146 21.4122V15.0168C23.0117 13.3826 22.509 11.7887 21.5737 10.4485C20.6385 9.10859 19.3155 8.08693 17.7827 7.52087L19.4717 3.72087H19.4715C19.5316 3.58583 19.5287 3.43136 19.4639 3.29855C19.399 3.16596 19.2789 3.06864 19.1356 3.03293L18.0581 2.76284C17.3472 2.58605 16.5965 2.66864 15.9412 2.99587C15.6532 3.13873 15.336 3.21351 15.0146 3.21395V4.21395C15.4912 4.21284 15.961 4.1019 16.3876 3.8894C16.8293 3.66886 17.3353 3.61306 17.8146 3.73226L18.3146 3.8577L16.8146 7.22913V7.22935C16.2247 7.09029 15.6206 7.01886 15.0146 7.01685V8.01685C16.8704 8.01886 18.6499 8.75702 19.9621 10.0693C21.2744 11.3816 22.0126 13.161 22.0146 15.0169V21.2169C20.7461 21.0791 19.4659 21.3343 18.3472 21.9479L18.2206 22.0169H14.5146C13.8916 22.0169 13.3043 22.3073 12.926 22.8019C12.5476 23.2967 12.4213 23.9396 12.5847 24.541L8.54966 22.691C8.37935 22.6166 8.19899 22.568 8.01462 22.5459V15.0167C8.0135 14.3862 8.09765 13.7583 8.26462 13.1502L7.30056 12.8833C7.10971 13.5783 7.01351 14.296 7.01462 15.0167V22.6773C6.55034 22.8724 6.18405 23.2456 5.99765 23.7132C5.82756 24.1351 5.81395 24.6039 5.95926 25.0347C6.10435 25.4657 6.39899 25.8305 6.7896 26.0632L12.545 29.5169C13.0886 29.8434 13.7106 30.0164 14.345 30.0169H30.0142V29.0169H25.5142V23.5169H30.0142V22.5169H25.1847C24.5405 22.0102 23.803 21.6347 23.0142 21.4124L23.0146 21.4122ZM13.0597 28.6625L7.30431 25.2074C7.1177 25.0965 6.97685 24.9221 6.90743 24.7161C6.83824 24.5103 6.84493 24.2864 6.92641 24.0851C6.99315 23.9183 7.10833 23.7755 7.25676 23.6748C7.40542 23.5741 7.58087 23.5203 7.76033 23.5199C7.88913 23.5203 8.01658 23.5482 8.13377 23.602L13.3067 25.9715C13.3719 26.0016 13.4429 26.017 13.5148 26.017H18.5148C18.7909 26.017 19.0148 25.7931 19.0148 25.517C19.0148 25.2409 18.7909 25.017 18.5148 25.017H14.5148C14.1574 25.017 13.8273 24.8264 13.6487 24.517C13.4702 24.2076 13.4702 23.8264 13.6487 23.517C13.8273 23.2076 14.1574 23.017 14.5148 23.017H18.3483C18.432 23.017 18.5143 22.996 18.5878 22.9561L18.8257 22.8261V22.8259C19.7134 22.3373 20.7242 22.1176 21.7346 22.1944C22.7449 22.271 23.711 22.6404 24.5148 23.2574V29.0168H14.3456C13.8925 29.0166 13.4481 28.8934 13.0597 28.6604L13.0597 28.6625Z" fill="url(#paint0_linear_3941_22870)"/>
<path d="M26.5156 27.0156H27.5156V28.0156H26.5156V27.0156Z" fill="url(#paint1_linear_3941_22870)"/>
<path d="M14.5164 11.0156V12.0156H14.2523C13.7269 12.0154 13.2297 12.2531 12.8999 12.6623C12.5702 13.0714 12.4436 13.608 12.5554 14.1214C12.6675 14.6348 13.0059 15.0699 13.476 15.3047L16.1099 16.6212C16.4155 16.7736 16.576 17.1165 16.4974 17.4488C16.4188 17.7812 16.1219 18.016 15.7804 18.0156H13.0164V19.0156H14.5164V20.0156H15.5164V19.0156H15.7804C16.3059 19.0158 16.803 18.7781 17.1329 18.3689C17.4626 17.9598 17.5891 17.4232 17.4773 16.9098C17.3653 16.3964 17.0269 15.9613 16.5568 15.7265L13.9228 14.41C13.6173 14.2576 13.4568 13.9147 13.5353 13.5824C13.6139 13.25 13.9108 13.0152 14.2523 13.0156H17.0164V12.0156H15.5164V11.0156H14.5164Z" fill="url(#paint2_linear_3941_22870)"/>
<path d="M5.84911 10.0156L9.71563 12.9156C9.87902 13.0379 10.1004 13.0486 10.275 12.9426C10.4496 12.8366 10.542 12.635 10.5087 12.4337L10.106 10.0156H11.5156C12.1784 10.0147 12.8139 9.75112 13.2826 9.2826C13.7511 8.81385 14.0147 8.17837 14.0156 7.51563V2.51563C14.0147 1.85288 13.7511 1.2174 13.2826 0.748654C12.8138 0.280128 12.1784 0.0165393 11.5156 0.015625H2.51563C1.85288 0.0165179 1.2174 0.280134 0.748654 0.748654C0.280128 1.2174 0.0165393 1.85288 0.015625 2.51563V7.51563C0.0165179 8.17837 0.280134 8.81385 0.748654 9.2826C1.2174 9.75112 1.85288 10.0147 2.51563 10.0156L5.84911 10.0156ZM1.01563 7.5156V2.5156C1.01563 2.11783 1.17366 1.73611 1.45491 1.45491C1.73616 1.17371 2.11788 1.01563 2.5156 1.01563H11.5156C11.9134 1.01563 12.2951 1.17366 12.5763 1.45491C12.8575 1.73616 13.0156 2.11788 13.0156 2.5156V7.5156C13.0156 7.91336 12.8575 8.29508 12.5763 8.57629C12.295 8.85748 11.9133 9.01557 11.5156 9.01557H9.5156C9.36872 9.01557 9.22921 9.0803 9.13435 9.19236C9.03925 9.30441 8.99841 9.45263 9.02252 9.59749L9.3156 11.3655L6.3156 9.11555C6.22899 9.05059 6.12385 9.01555 6.0156 9.01555H2.5156C2.11783 9.01555 1.73611 8.85751 1.45491 8.57626C1.17371 8.29501 1.01563 7.91331 1.01563 7.5156Z" fill="url(#paint3_linear_3941_22870)"/>
<path d="M4.16016 7.16016L9.16016 2.16016L9.8673 2.8673L4.8673 7.8673L4.16016 7.16016Z" fill="url(#paint4_linear_3941_22870)"/>
<path d="M4.5156 5.01557C4.91336 5.01557 5.29508 4.85753 5.57628 4.57628C5.85748 4.29503 6.01557 3.91331 6.01557 3.5156C6.01557 3.11788 5.85753 2.73611 5.57628 2.45491C5.29503 2.17371 4.91331 2.01562 4.5156 2.01562C4.11788 2.01562 3.73611 2.17366 3.45491 2.45491C3.17371 2.73616 3.01562 3.11788 3.01562 3.5156C3.01562 3.91331 3.17366 4.29508 3.45491 4.57628C3.73616 4.85748 4.11788 5.01557 4.5156 5.01557ZM4.5156 3.01557C4.71783 3.01557 4.9002 3.13744 4.97742 3.32427C5.05488 3.5111 5.01225 3.72605 4.86917 3.86914C4.72609 4.01223 4.51113 4.05485 4.3243 3.9774C4.13747 3.90016 4.0156 3.7178 4.0156 3.51557C4.0156 3.23945 4.23948 3.01557 4.5156 3.01557Z" fill="url(#paint5_linear_3941_22870)"/>
<path d="M8.01562 6.5156C8.01562 6.91336 8.17366 7.29508 8.45491 7.57628C8.73616 7.85748 9.11788 8.01557 9.5156 8.01557C9.91331 8.01557 10.2951 7.85753 10.5763 7.57628C10.8575 7.29503 11.0156 6.91331 11.0156 6.5156C11.0156 6.11788 10.8575 5.73611 10.5763 5.45491C10.295 5.17371 9.91331 5.01562 9.5156 5.01562C9.11788 5.01562 8.73611 5.17366 8.45491 5.45491C8.17371 5.73616 8.01562 6.11788 8.01562 6.5156ZM10.0156 6.5156C10.0156 6.71783 9.89375 6.9002 9.70692 6.97742C9.52009 7.05488 9.30514 7.01225 9.16205 6.86917C9.01897 6.72609 8.97634 6.51113 9.0538 6.3243C9.13103 6.13747 9.3134 6.0156 9.51562 6.0156C9.64821 6.0156 9.77545 6.06828 9.8692 6.16202C9.96294 6.25577 10.0156 6.38301 10.0156 6.5156Z" fill="url(#paint6_linear_3941_22870)"/>
<defs>
<linearGradient id="paint0_linear_3941_22870" x1="24.6786" y1="2.67187" x2="24.5368" y2="35.8766" gradientUnits="userSpaceOnUse">
<stop stop-color="#005CAA"/>
<stop offset="1" stop-color="#64B0F1"/>
</linearGradient>
<linearGradient id="paint1_linear_3941_22870" x1="27.2947" y1="27.0156" x2="27.2902" y2="28.2299" gradientUnits="userSpaceOnUse">
<stop stop-color="#005CAA"/>
<stop offset="1" stop-color="#64B0F1"/>
</linearGradient>
<linearGradient id="paint2_linear_3941_22870" x1="16.4123" y1="11.0156" x2="16.3381" y2="21.9439" gradientUnits="userSpaceOnUse">
<stop stop-color="#005CAA"/>
<stop offset="1" stop-color="#64B0F1"/>
</linearGradient>
<linearGradient id="paint3_linear_3941_22870" x1="10.9232" y1="0.015625" x2="10.8678" y2="15.8011" gradientUnits="userSpaceOnUse">
<stop stop-color="#005CAA"/>
<stop offset="1" stop-color="#64B0F1"/>
</linearGradient>
<linearGradient id="paint4_linear_3941_22870" x1="8.60665" y1="2.16016" x2="8.58049" y2="9.09031" gradientUnits="userSpaceOnUse">
<stop stop-color="#005CAA"/>
<stop offset="1" stop-color="#64B0F1"/>
</linearGradient>
<linearGradient id="paint5_linear_3941_22870" x1="5.35291" y1="2.01562" x2="5.33916" y2="5.65844" gradientUnits="userSpaceOnUse">
<stop stop-color="#005CAA"/>
<stop offset="1" stop-color="#64B0F1"/>
</linearGradient>
<linearGradient id="paint6_linear_3941_22870" x1="10.3529" y1="5.01562" x2="10.3392" y2="8.65844" gradientUnits="userSpaceOnUse">
<stop stop-color="#005CAA"/>
<stop offset="1" stop-color="#64B0F1"/>
</linearGradient>
</defs>
</svg>