  <svg width="38" height="38" viewBox="0 0 22 23" fill="none"
                                xmlns="http://www.w3.org/2000/svg">
                                <path
                                    d="M10.23 20.557C10.7906 21.4678 11.785 22.021 12.8544 22.0172H15.6113C16.8825 22.0168 18.0929 21.4735 18.9384 20.5243L20.0031 19.3277V19.3275C20.7292 18.5123 21.1299 17.4586 21.1295 16.3672V8.87906C21.1301 8.43142 20.969 7.9986 20.6757 7.6604C20.3824 7.32239 19.9768 7.10142 19.5336 7.03867C19.0904 6.97611 18.6393 7.07556 18.2638 7.31922C18.1143 6.73119 17.6868 6.25342 17.1189 6.04014C16.551 5.8266 15.9146 5.90421 15.4148 6.24816C15.2342 5.71972 14.8245 5.30114 14.3001 5.10881C13.7757 4.91669 13.1925 4.9714 12.7131 5.25788V1.88006C12.7131 1.21615 12.3587 0.602449 11.7837 0.270383C11.2086 -0.0614819 10.5001 -0.0614819 9.92502 0.270383C9.34992 0.60246 8.99582 1.21615 8.99582 1.88006V10.9843L8.07508 10.1798C7.62404 9.78602 7.01097 9.63337 6.42783 9.76991C5.84491 9.90626 5.36334 10.3153 5.13388 10.8683C4.90464 11.4215 4.95575 12.0512 5.27128 12.5601L10.23 20.557ZM6.29784 10.8116C6.47109 10.6859 6.68229 10.6227 6.89623 10.6327C7.11019 10.6428 7.31418 10.7253 7.47491 10.867L9.15164 12.3318L9.15185 12.3316C9.2865 12.4493 9.47756 12.4773 9.64021 12.4033C9.80307 12.3293 9.90761 12.1671 9.90782 11.9883V1.87975C9.90782 1.54152 10.0881 1.22897 10.3811 1.05993C10.674 0.890706 11.0349 0.890706 11.3278 1.05993C11.6206 1.22893 11.8011 1.5415 11.8011 1.87975V9.44284C11.8011 9.69475 12.0053 9.89875 12.257 9.89875C12.5089 9.89875 12.7131 9.69475 12.7131 9.44284V6.85427C12.7131 6.51605 12.8936 6.2035 13.1864 6.03445C13.4795 5.86523 13.8402 5.86523 14.1332 6.03445C14.4261 6.20346 14.6065 6.51603 14.6065 6.85427V10.2817C14.6065 10.5336 14.8107 10.7378 15.0624 10.7378C15.3143 10.7378 15.5186 10.5336 15.5186 10.2817V7.78012C15.5186 7.44189 15.699 7.12934 15.9919 6.96013C16.2849 6.79112 16.6456 6.79112 16.9387 6.96013C17.2315 7.12935 17.412 7.44192 17.412 7.78012V11.2071C17.412 11.459 17.6162 11.6632 17.8679 11.6632C18.1198 11.6632 18.324 11.459 18.324 11.2071V8.87897C18.324 8.54074 18.5045 8.22841 18.7973 8.05915C19.0904 7.88993 19.4511 7.88993 19.7441 8.05915C20.037 8.22837 20.2174 8.54072 20.2174 8.87897V16.3671C20.2178 17.2351 19.8991 18.0729 19.3217 18.7214L18.257 19.918C17.5848 20.6729 16.6221 21.1048 15.6112 21.1053H12.8543C12.1007 21.1078 11.4001 20.718 11.005 20.0762L6.04656 12.0799C5.9206 11.8759 5.8767 11.6316 5.92336 11.3964C5.97001 11.1612 6.10381 10.9524 6.29784 10.8116Z"
                                    fill="url(#paint0_linear_5422_29241)" />
                                <path
                                    d="M5.74495 2.61537L5.55071 3.81497H5.55092C5.53163 3.93436 5.56047 4.0565 5.63129 4.15447C5.70212 4.25265 5.80878 4.3186 5.92817 4.33768C5.95256 4.34171 5.97716 4.34383 6.00176 4.34362C6.22526 4.34341 6.41568 4.18119 6.45131 3.96044L6.80077 1.80003H6.80098C6.82028 1.68065 6.79123 1.5585 6.7204 1.46053C6.64957 1.36235 6.54291 1.29662 6.42331 1.27732L4.26312 0.927855C4.14373 0.908346 4.02138 0.936974 3.9232 1.0078C3.82481 1.07863 3.75886 1.1855 3.73935 1.30489C3.72005 1.42449 3.7491 1.54684 3.82014 1.64481C3.89097 1.74299 3.99805 1.80894 4.11766 1.82803L5.06467 1.98134V1.98113C3.3905 3.1752 2.39408 5.10256 2.3879 7.15906C2.3879 7.2371 2.3968 7.3145 2.39956 7.39254L1.58082 6.722C1.4873 6.64523 1.36728 6.60897 1.24684 6.62085C1.12661 6.63272 1.01591 6.6921 0.939148 6.78562C0.779683 6.98049 0.808096 7.26782 1.00298 7.42727L2.7418 8.85162C2.93117 9.00685 3.20917 8.98479 3.37179 8.80179L4.83707 7.15139V7.15161C5.00417 6.9633 4.9872 6.67491 4.7989 6.50783C4.61059 6.34052 4.32221 6.3577 4.15512 6.546L3.31646 7.49046C3.30989 7.37998 3.29971 7.26972 3.29971 7.15902C3.3048 5.33111 4.22218 3.62644 5.74495 2.61537Z"
                                    fill="url(#paint1_linear_5422_29241)" />
                                <defs>
                                    <linearGradient id="paint0_linear_5422_29241" x1="17.5649" y1="0.0214844"
                                        x2="17.4276" y2="26.7304" gradientUnits="userSpaceOnUse">
                                        <stop stop-color="#005CAA" />
                                        <stop offset="1" stop-color="#64B0F1" />
                                    </linearGradient>
                                    <linearGradient id="paint1_linear_5422_29241" x1="5.4879" y1="0.921875" x2="5.43838"
                                        y2="10.6763" gradientUnits="userSpaceOnUse">
                                        <stop stop-color="#005CAA" />
                                        <stop offset="1" stop-color="#64B0F1" />
                                    </linearGradient>
                                </defs>
                            </svg>