<svg width="38" height="38" viewBox="0 0 19 32" fill="none" xmlns="http://www.w3.org/2000/svg">
<path d="M7.01128 17.8119H6.01676C6.0791 18.6283 5.95951 19.0469 5.82994 19.8451C5.53095 21.6915 6.57512 20.6184 6.73521 19.9774C6.89828 19.3211 6.9343 18.503 7.01128 17.8119ZM18.287 0.620728V6.08133H15.8407V5.27681H17.4824V1.42573H1.25373V5.27681H2.89544V6.08133H0.449219V0.620728H18.287ZM3.69008 2.12547H15.0456C16.8817 2.12547 17.0096 4.75855 15.3062 5.06456V17.8114H13.7066C14.1604 18.7084 14.209 19.758 14.0871 20.7398C13.9145 22.13 13.364 23.5968 13.2747 24.961C13.1918 26.2295 13.7696 27.0866 14.3901 28.1151L13.7128 28.5464C12.9933 27.467 12.3866 26.2337 12.4735 24.9109C12.5651 23.5054 13.1129 22.058 13.2887 20.6425C13.4164 19.6168 13.3527 18.6959 12.7762 17.8116H9.94842C9.98362 18.5256 10.0097 19.26 10.1068 19.9676C10.2173 20.7736 10.4287 21.3502 10.7644 22.0796L10.0353 22.4157C9.66445 21.6101 9.43352 20.9644 9.31137 20.0742C9.15933 18.9656 9.18817 17.8479 9.07557 16.7422C8.98438 15.8469 8.2742 15.655 8.01444 16.3906C7.61748 17.5135 7.81978 18.9446 7.51485 20.1686C7.37934 20.7117 7.18277 20.9159 6.77667 21.2562C6.53408 22.0705 6.26711 22.9465 6.17508 23.7909C5.92676 26.0677 7.27371 26.5175 8.26632 28.3792C8.6811 29.1577 9.13191 29.8365 9.63557 30.5617L8.97568 31.0206C8.45318 30.2686 7.9892 29.5636 7.55893 28.7565C6.45752 26.6903 5.08534 26.3734 5.37691 23.706C5.4488 23.0438 5.61505 22.3862 5.79636 21.7456C4.79294 21.785 5.0109 20.5431 5.11165 19.9207C5.23528 19.156 5.27472 18.5949 5.21195 17.8118H3.43008L3.49412 5.07472C1.72984 4.84019 1.81995 2.1257 3.69048 2.1257L3.69008 2.12547ZM15.3061 4.23094C15.8946 3.98454 15.8176 3.18448 15.3061 2.97857V4.23094ZM3.50388 2.95246C2.88192 3.11087 2.84034 4.05918 3.49751 4.25445L3.50388 2.95246ZM6.94744 3.80746H7.77084V8.0373H6.94744V3.80746ZM5.34367 3.80746H6.16708V10.7625H5.34367V3.80746ZM13.2357 3.00783V17.007H14.5011V3.00783H13.2357ZM10.8512 17.007V3.00783H4.23429V17.007H7.11464C7.51351 14.4467 9.65162 14.4921 9.87322 16.6603C9.88424 16.7661 9.89379 16.8823 9.90248 17.007H10.8512H10.8512Z" fill="url(#paint0_linear_3240_13627)"/>
<defs>
<linearGradient id="paint0_linear_3240_13627" x1="14.3468" y1="0.620728" x2="14.1094" y2="37.5341" gradientUnits="userSpaceOnUse">
<stop stop-color="#005CAA"/>
<stop offset="1" stop-color="#64B0F1"/>
</linearGradient>
</defs>
</svg>