<svg width="38" height="38" viewBox="0 0 37 33" fill="none" xmlns="http://www.w3.org/2000/svg">
<path fill-rule="evenodd" clip-rule="evenodd" d="M9.2247 28.3472V16.9261H14.3616C16.5388 17.3157 18.716 18.4971 20.8933 19.8672H24.8828C26.6889 19.9754 27.6352 21.8063 25.8786 23.0093C24.4807 24.0361 22.6344 23.9773 20.7417 23.8072C19.4366 23.7423 19.381 25.4958 20.7417 25.502C21.2149 25.5391 21.7283 25.4278 22.1767 25.4278C24.5364 25.4247 26.4817 24.9732 27.6724 23.1083L28.2692 21.7135L34.204 18.7724C37.173 17.7951 39.2853 20.9001 37.0957 23.0619C32.7969 26.1886 28.3899 28.7616 23.8808 30.8399C20.6057 32.8316 17.3305 32.7635 14.0585 30.8399L9.2247 28.3472ZM35.0112 7.52751C35.1689 7.79348 35.2555 8.078 35.2555 8.3718C35.2555 9.93668 32.8371 11.2016 29.8558 11.2016C26.8745 11.2016 24.456 9.93359 24.456 8.3718C24.456 8.078 24.5426 7.79348 24.7003 7.52751C25.3869 8.67798 27.4342 9.51299 29.8527 9.51299C32.2773 9.51299 34.3246 8.67798 35.0112 7.52751ZM22.7736 11.7428C22.9344 12.0119 23.0179 12.2933 23.0179 12.5871C23.0179 14.152 20.5995 15.4169 17.6182 15.4169C14.6368 15.4169 12.2184 14.1489 12.2184 12.5871C12.2184 12.2933 12.305 12.0088 12.4627 11.7428C13.1493 12.8933 15.1966 13.7283 17.6151 13.7283C20.0397 13.7283 22.087 12.8933 22.7736 11.7428ZM18.4037 7.60483L18.3913 6.9028C18.5521 6.89661 18.6789 6.84713 18.7779 6.75744C18.88 6.66775 18.9325 6.55951 18.9449 6.43271C18.9573 6.28736 18.9078 6.15747 18.7995 6.04613C18.6913 5.9348 18.515 5.86676 18.2769 5.8482C18.0542 5.82965 17.881 5.86367 17.7604 5.95644C17.6398 6.04613 17.5718 6.17293 17.5594 6.33375C17.5439 6.53477 17.6151 6.72033 17.779 6.89661L17.6491 7.45638L15.7842 6.93372L15.945 5.0905L16.5976 5.14617L16.4832 6.46364L17.0924 6.62755C17.0275 6.46364 17.0027 6.30282 17.0182 6.13891C17.0429 5.82965 17.1821 5.57605 17.4233 5.38121C17.6676 5.18637 17.9676 5.10287 18.3295 5.13689C18.6295 5.16163 18.8892 5.27297 19.1088 5.46781C19.4088 5.73068 19.5418 6.07397 19.5047 6.49457C19.4737 6.82857 19.3624 7.09763 19.1645 7.29247C18.9666 7.48421 18.713 7.58936 18.4037 7.60483ZM17.6182 4.79052C20.0675 4.79052 22.0561 5.56986 22.0561 6.53168C22.0561 7.49349 20.0675 8.27284 17.6182 8.27284C15.1688 8.27284 13.1802 7.49658 13.1802 6.53477C13.1802 5.57296 15.1688 4.79052 17.6182 4.79052ZM17.6182 4.21528C20.5995 4.21528 23.0179 5.48327 23.0179 7.04506C23.0179 8.60994 20.5995 9.87483 17.6182 9.87483C14.6368 9.87174 12.2184 8.60685 12.2184 7.04506C12.2215 5.48327 14.6399 4.21528 17.6182 4.21528ZM22.7922 8.93157C22.9375 9.18826 23.0179 9.46351 23.0179 9.74494C23.0179 11.3098 20.5995 12.5747 17.6182 12.5747C14.6368 12.5747 12.2184 11.3067 12.2184 9.74494C12.2184 9.46042 12.2957 9.19136 12.4442 8.93467C13.1122 10.1006 15.175 10.9511 17.6151 10.9511C20.0613 10.9511 22.1241 10.1006 22.7922 8.93157ZM31.8072 1.67931L31.7454 2.38134L29.095 2.14939C29.3146 2.42773 29.463 2.74627 29.5496 3.10193L28.9125 3.04626C28.8692 2.85761 28.7702 2.64731 28.6249 2.42155C28.4764 2.1896 28.294 2.02878 28.0744 1.92981L28.1239 1.36077L31.8072 1.67931ZM29.8558 0.578326C32.3051 0.578326 34.2937 1.35767 34.2937 2.31949C34.2937 3.2813 32.3051 4.06065 29.8558 4.06065C27.4064 4.06065 25.4209 3.27821 25.4209 2.3164C25.4209 1.35458 27.4064 0.578326 29.8558 0.578326ZM29.8558 0C32.8371 0 35.2555 1.26799 35.2555 2.82977C35.2555 4.39156 32.8371 5.65955 29.8558 5.65955C26.8745 5.65955 24.456 4.39156 24.456 2.82977C24.456 1.26799 26.8775 0 29.8558 0ZM35.0298 4.71629C35.1751 4.97298 35.2555 5.24823 35.2555 5.52657C35.2555 7.09145 32.8371 8.35634 29.8558 8.35634C26.8745 8.35634 24.456 7.08835 24.456 5.52657C24.456 5.24204 24.5333 4.97298 24.6818 4.71629C25.3467 5.88222 27.4095 6.7327 29.8527 6.7327C32.299 6.73579 34.3649 5.88531 35.0298 4.71629ZM34.9772 13.2953C35.1566 13.5798 35.2555 13.8798 35.2555 14.1953C35.2555 15.7601 32.8371 17.025 29.8558 17.025C26.8745 17.025 24.456 15.7571 24.456 14.1953C24.456 13.8798 24.555 13.5798 24.7343 13.2953C25.4518 14.4148 27.4744 15.2251 29.8527 15.2251C32.2309 15.2251 34.2597 14.4179 34.9772 13.2953ZM35.0019 10.382C35.1659 10.6542 35.2555 10.9418 35.2555 11.2418C35.2555 12.8036 32.8371 14.0716 29.8558 14.0716C26.8745 14.0716 24.456 12.8036 24.456 11.2418C24.456 10.9418 24.5457 10.6542 24.7096 10.382C25.4024 11.5263 27.4435 12.352 29.8558 12.352C32.268 12.352 34.3061 11.5263 35.0019 10.382ZM-0.000671387 15.8282H7.67838V29.4915H-0.000671387V15.8282Z" fill="url(#paint0_linear_3799_19485)"/>
<path fill-rule="evenodd" clip-rule="evenodd" d="M9.2247 28.3472V16.9261H14.3616C16.5388 17.3157 18.716 18.4971 20.8933 19.8672H24.8828C26.6889 19.9754 27.6352 21.8063 25.8786 23.0093C24.4807 24.0361 22.6344 23.9773 20.7417 23.8072C19.4366 23.7423 19.381 25.4958 20.7417 25.502C21.2149 25.5391 21.7283 25.4278 22.1767 25.4278C24.5364 25.4247 26.4817 24.9732 27.6724 23.1083L28.2692 21.7135L34.204 18.7724C37.173 17.7951 39.2853 20.9001 37.0957 23.0619C32.7969 26.1886 28.3899 28.7616 23.8808 30.8399C20.6057 32.8316 17.3305 32.7635 14.0585 30.8399L9.2247 28.3472ZM35.0112 7.52751C35.1689 7.79348 35.2555 8.078 35.2555 8.3718C35.2555 9.93668 32.8371 11.2016 29.8558 11.2016C26.8745 11.2016 24.456 9.93359 24.456 8.3718C24.456 8.078 24.5426 7.79348 24.7003 7.52751C25.3869 8.67798 27.4342 9.51299 29.8527 9.51299C32.2773 9.51299 34.3246 8.67798 35.0112 7.52751ZM22.7736 11.7428C22.9344 12.0119 23.0179 12.2933 23.0179 12.5871C23.0179 14.152 20.5995 15.4169 17.6182 15.4169C14.6368 15.4169 12.2184 14.1489 12.2184 12.5871C12.2184 12.2933 12.305 12.0088 12.4627 11.7428C13.1493 12.8933 15.1966 13.7283 17.6151 13.7283C20.0397 13.7283 22.087 12.8933 22.7736 11.7428ZM18.4037 7.60483L18.3913 6.9028C18.5521 6.89661 18.6789 6.84713 18.7779 6.75744C18.88 6.66775 18.9325 6.55951 18.9449 6.43271C18.9573 6.28736 18.9078 6.15747 18.7995 6.04613C18.6913 5.9348 18.515 5.86676 18.2769 5.8482C18.0542 5.82965 17.881 5.86367 17.7604 5.95644C17.6398 6.04613 17.5718 6.17293 17.5594 6.33375C17.5439 6.53477 17.6151 6.72033 17.779 6.89661L17.6491 7.45638L15.7842 6.93372L15.945 5.0905L16.5976 5.14617L16.4832 6.46364L17.0924 6.62755C17.0275 6.46364 17.0027 6.30282 17.0182 6.13891C17.0429 5.82965 17.1821 5.57605 17.4233 5.38121C17.6676 5.18637 17.9676 5.10287 18.3295 5.13689C18.6295 5.16163 18.8892 5.27297 19.1088 5.46781C19.4088 5.73068 19.5418 6.07397 19.5047 6.49457C19.4737 6.82857 19.3624 7.09763 19.1645 7.29247C18.9666 7.48421 18.713 7.58936 18.4037 7.60483ZM17.6182 4.79052C20.0675 4.79052 22.0561 5.56986 22.0561 6.53168C22.0561 7.49349 20.0675 8.27284 17.6182 8.27284C15.1688 8.27284 13.1802 7.49658 13.1802 6.53477C13.1802 5.57296 15.1688 4.79052 17.6182 4.79052ZM17.6182 4.21528C20.5995 4.21528 23.0179 5.48327 23.0179 7.04506C23.0179 8.60994 20.5995 9.87483 17.6182 9.87483C14.6368 9.87174 12.2184 8.60685 12.2184 7.04506C12.2215 5.48327 14.6399 4.21528 17.6182 4.21528ZM22.7922 8.93157C22.9375 9.18826 23.0179 9.46351 23.0179 9.74494C23.0179 11.3098 20.5995 12.5747 17.6182 12.5747C14.6368 12.5747 12.2184 11.3067 12.2184 9.74494C12.2184 9.46042 12.2957 9.19136 12.4442 8.93467C13.1122 10.1006 15.175 10.9511 17.6151 10.9511C20.0613 10.9511 22.1241 10.1006 22.7922 8.93157ZM31.8072 1.67931L31.7454 2.38134L29.095 2.14939C29.3146 2.42773 29.463 2.74627 29.5496 3.10193L28.9125 3.04626C28.8692 2.85761 28.7702 2.64731 28.6249 2.42155C28.4764 2.1896 28.294 2.02878 28.0744 1.92981L28.1239 1.36077L31.8072 1.67931ZM29.8558 0.578326C32.3051 0.578326 34.2937 1.35767 34.2937 2.31949C34.2937 3.2813 32.3051 4.06065 29.8558 4.06065C27.4064 4.06065 25.4209 3.27821 25.4209 2.3164C25.4209 1.35458 27.4064 0.578326 29.8558 0.578326ZM29.8558 0C32.8371 0 35.2555 1.26799 35.2555 2.82977C35.2555 4.39156 32.8371 5.65955 29.8558 5.65955C26.8745 5.65955 24.456 4.39156 24.456 2.82977C24.456 1.26799 26.8775 0 29.8558 0ZM35.0298 4.71629C35.1751 4.97298 35.2555 5.24823 35.2555 5.52657C35.2555 7.09145 32.8371 8.35634 29.8558 8.35634C26.8745 8.35634 24.456 7.08835 24.456 5.52657C24.456 5.24204 24.5333 4.97298 24.6818 4.71629C25.3467 5.88222 27.4095 6.7327 29.8527 6.7327C32.299 6.73579 34.3649 5.88531 35.0298 4.71629ZM34.9772 13.2953C35.1566 13.5798 35.2555 13.8798 35.2555 14.1953C35.2555 15.7601 32.8371 17.025 29.8558 17.025C26.8745 17.025 24.456 15.7571 24.456 14.1953C24.456 13.8798 24.555 13.5798 24.7343 13.2953C25.4518 14.4148 27.4744 15.2251 29.8527 15.2251C32.2309 15.2251 34.2597 14.4179 34.9772 13.2953ZM35.0019 10.382C35.1659 10.6542 35.2555 10.9418 35.2555 11.2418C35.2555 12.8036 32.8371 14.0716 29.8558 14.0716C26.8745 14.0716 24.456 12.8036 24.456 11.2418C24.456 10.9418 24.5457 10.6542 24.7096 10.382C25.4024 11.5263 27.4435 12.352 29.8558 12.352C32.268 12.352 34.3061 11.5263 35.0019 10.382ZM-0.000671387 15.8282H7.67838V29.4915H-0.000671387V15.8282Z" fill="black" fill-opacity="0.2"/>
<defs>
<linearGradient id="paint0_linear_3799_19485" x1="18.9993" y1="0" x2="18.9993" y2="32.3083" gradientUnits="userSpaceOnUse">
<stop stop-color="#FF0F0F"/>
<stop offset="1" stop-color="#FF4849"/>
</linearGradient>
</defs>
</svg>