<svg width="38" height="38" viewBox="0 0 30 24" fill="none"
                                xmlns="http://www.w3.org/2000/svg">
                                <path
                                    d="M29.2667 11.5339C29.2549 11.5006 29.2373 11.4698 29.215 11.4427L29.1968 11.4092L29.1785 11.388L16.2797 0.240414C16.2004 0.171498 16.0912 0.148595 15.9909 0.179554L3.09531 4.13161L2.18326 4.4357V4.43548C1.55686 4.64011 1.06763 5.13419 0.869381 5.76228C0.670902 6.39058 0.787741 7.07616 1.18322 7.60311L1.21057 7.63661L1.81852 8.24456C1.30196 8.53019 0.934476 9.02557 0.810867 9.60257C0.687242 10.1798 0.819773 10.7822 1.17411 11.2543L1.20147 11.2878L12.9359 23.0189C13.192 23.3542 13.5461 23.6014 13.9493 23.7267C14.3522 23.8521 14.7841 23.8491 15.1854 23.7181L28.0413 19.5624H28.0839C28.1651 19.5622 28.2428 19.5293 28.2998 19.4712L29.0719 19.2219V19.2221C29.2252 19.1655 29.3066 18.9977 29.2558 18.8425C29.2051 18.6871 29.0405 18.5995 28.8834 18.6444L28.3878 18.8115V15.7898L29.0749 15.5678V15.568C29.2284 15.5114 29.3096 15.3436 29.2589 15.1884C29.2082 15.033 29.0437 14.9454 28.8866 14.9903L28.3878 15.1515V12.1327L29.0748 11.9107C29.1092 11.8993 29.141 11.8819 29.1692 11.8592L29.1874 11.8409C29.2129 11.8183 29.2345 11.7915 29.2513 11.7619C29.264 11.7368 29.2731 11.7103 29.2786 11.6828V11.6616V11.6372C29.2805 11.6024 29.2763 11.5674 29.2665 11.5339L29.2667 11.5339ZM16.0091 0.811907L28.3699 11.4975L16.6936 15.2731L15.0125 15.8204L3.76446 4.57244L16.0091 0.811907ZM1.38072 6.37837C1.38093 6.07577 1.47677 5.781 1.65448 5.53628C1.83493 5.29327 2.08855 5.1143 2.378 5.02545L3.10152 4.79134L6.1748 7.8498L14.3557 16.0307L13.9271 16.1704C13.5142 16.3017 13.154 16.5614 12.8995 16.9122C12.8382 16.998 12.7833 17.0886 12.7353 17.1827C12.7171 17.2192 12.705 17.2557 12.6897 17.2922C12.6745 17.3286 12.635 17.4107 12.6138 17.4745C12.5926 17.5384 12.5926 17.5596 12.5835 17.5992C12.5744 17.6387 12.55 17.7178 12.5409 17.7786C12.5318 17.8395 12.5409 17.8668 12.5409 17.9124C12.5409 17.958 12.5409 18.0218 12.5256 18.0765L1.6549 7.22048C1.47593 6.9762 1.38008 6.68102 1.38114 6.3784L1.38072 6.37837ZM1.38072 10.0263C1.38114 9.73876 1.46829 9.45799 1.63115 9.22093C1.7938 8.98385 2.02451 8.80148 2.29279 8.69779L12.9328 19.3378C13.1209 19.5831 13.362 19.7827 13.6381 19.9216C13.3439 20.0673 13.0893 20.2821 12.8963 20.5478C12.8348 20.6336 12.7799 20.7242 12.7322 20.8183C12.7139 20.8548 12.7019 20.8913 12.6866 20.9278C12.6713 20.9642 12.6319 21.0463 12.6107 21.1101C12.5895 21.174 12.5895 21.1952 12.5803 21.2348C12.5712 21.2743 12.5468 21.3534 12.5377 21.4142C12.5286 21.4751 12.5377 21.5024 12.5377 21.548C12.5377 21.5936 12.5377 21.6574 12.5225 21.7122L1.65446 10.8805C1.47485 10.6354 1.379 10.3391 1.3807 10.0353L1.38072 10.0263ZM27.7799 17.0911L15.7507 20.9852C15.6712 21.0079 15.6044 21.062 15.5656 21.1349C15.5268 21.2078 15.5193 21.2933 15.545 21.372C15.5707 21.4504 15.6271 21.5151 15.7015 21.5512C15.7757 21.5872 15.8616 21.5914 15.939 21.5628L27.7798 17.7295V19.0093L15.0118 23.1407C14.7255 23.2331 14.4174 23.2334 14.1309 23.1411C13.8444 23.0489 13.5944 22.869 13.4158 22.6269C13.2307 22.3807 13.1315 22.0807 13.133 21.7725C13.133 21.4691 13.2288 21.1733 13.4067 20.9275C13.5779 20.6862 13.8202 20.5045 14.0997 20.4078L24.673 16.9908L27.7797 15.9876L27.7799 17.0911ZM27.7799 13.4125L15.7507 17.3069C15.6644 17.3211 15.5885 17.3718 15.5422 17.4458C15.496 17.52 15.4837 17.6106 15.5089 17.6941C15.534 17.7779 15.594 17.8468 15.6733 17.883C15.7528 17.9195 15.844 17.9199 15.9239 17.8845L27.7799 14.051V15.3613L14.9908 19.4835C14.7051 19.5746 14.3983 19.574 14.1133 19.482C13.8281 19.3897 13.5789 19.2108 13.4008 18.9699C13.2159 18.7235 13.1164 18.4236 13.1181 18.1155C13.1179 17.8121 13.2138 17.5163 13.3917 17.2705C13.5664 17.0256 13.8145 16.8424 14.0999 16.7476L27.7799 12.3214L27.7799 13.4125Z"
                                    fill="#CC1212"></path>
                            </svg>