<svg width="39" height="39" viewBox="0 0 39 39" fill="none" xmlns="http://www.w3.org/2000/svg">
<path d="M5.84671 30.7878H11.4438V32.3711H5.84671C5.21682 32.3711 4.61273 32.1209 4.16733 31.6755C3.72194 31.2301 3.47171 30.626 3.47171 29.9961V20.4328H5.05505V29.9961C5.05505 30.2061 5.13845 30.4074 5.28692 30.5559C5.43539 30.7044 5.63675 30.7878 5.84671 30.7878ZM33.555 29.9961C33.555 30.2061 33.4716 30.4074 33.3232 30.5559C33.1747 30.7044 32.9733 30.7878 32.7634 30.7878H27.2771V32.3711H32.7634C33.3933 32.3711 33.9974 32.1209 34.4428 31.6755C34.8882 31.2301 35.1384 30.626 35.1384 29.9961V20.5436H33.555V29.9961ZM5.05505 12.5794H3.47171V6.24609C3.47171 5.6162 3.72194 5.01211 4.16733 4.56672C4.61273 4.12132 5.21682 3.87109 5.84671 3.87109H32.7634C33.3933 3.87109 33.9974 4.12132 34.4428 4.56672C34.8882 5.01211 35.1384 5.6162 35.1384 6.24609V12.6269H33.555V10.2044H5.05505V12.5794ZM5.05505 6.24609V8.62109H33.555V6.24609C33.555 6.03613 33.4716 5.83477 33.3232 5.6863C33.1747 5.53783 32.9733 5.45443 32.7634 5.45443H5.84671C5.63675 5.45443 5.43539 5.53783 5.28692 5.6863C5.13845 5.83477 5.05505 6.03613 5.05505 6.24609ZM9.01338 6.24609H6.63838V7.82943H9.01338V6.24609ZM12.9717 6.24609H10.5967V7.82943H12.9717V6.24609ZM26.43 28.4128C26.43 29.822 26.0122 31.1995 25.2293 32.3712C24.4464 33.5429 23.3336 34.4561 22.0317 34.9954C20.7297 35.5347 19.2971 35.6758 17.915 35.4009C16.5329 35.1259 15.2634 34.4473 14.2669 33.4509C13.2705 32.4544 12.5919 31.1849 12.317 29.8028C12.042 28.4207 12.1831 26.9881 12.7224 25.6861C13.2617 24.3842 14.1749 23.2714 15.3466 22.4885C16.5183 21.7056 17.8959 21.2878 19.305 21.2878C21.1947 21.2878 23.007 22.0384 24.3432 23.3746C25.6794 24.7108 26.43 26.5231 26.43 28.4128ZM24.8467 28.4128C24.8467 27.3167 24.5217 26.2453 23.9128 25.334C23.3038 24.4227 22.4384 23.7124 21.4258 23.2929C20.4131 22.8735 19.2989 22.7638 18.2239 22.9776C17.1489 23.1914 16.1615 23.7192 15.3865 24.4942C14.6115 25.2692 14.0837 26.2567 13.8699 27.3316C13.656 28.4066 13.7658 29.5209 14.1852 30.5335C14.6046 31.5461 15.3149 32.4116 16.2263 33.0205C17.1376 33.6294 18.209 33.9544 19.305 33.9544C20.7748 33.9544 22.1843 33.3706 23.2236 32.3313C24.2629 31.2921 24.8467 29.8825 24.8467 28.4128ZM20.0967 24.4544H18.5134V25.2461H17.7217C17.5118 25.2461 17.3104 25.3295 17.1619 25.478C17.0135 25.6264 16.93 25.8278 16.93 26.0378V28.4128C16.93 28.6227 17.0135 28.8241 17.1619 28.9726C17.3104 29.121 17.5118 29.2044 17.7217 29.2044H20.0967V29.9961H16.93V31.5794H18.5134V32.3711H20.0967V31.5794H20.8884C21.0983 31.5794 21.2997 31.496 21.4482 31.3476C21.5966 31.1991 21.68 30.9977 21.68 30.7878V28.4128C21.68 28.2028 21.5966 28.0014 21.4482 27.853C21.2997 27.7045 21.0983 27.6211 20.8884 27.6211H18.5134V26.8294H21.68V25.2461H20.0967V24.4544ZM22.4717 17.3294V15.7461H16.1384V17.3294H22.4717ZM5.61713 18.3507L4.58796 17.3294H14.555V15.7461H4.58796L5.61713 14.7248L4.49296 13.6007L2.11796 15.9757C2.04376 16.0493 1.98487 16.1368 1.94467 16.2333C1.90448 16.3298 1.88379 16.4333 1.88379 16.5378C1.88379 16.6423 1.90448 16.7457 1.94467 16.8422C1.98487 16.9387 2.04376 17.0262 2.11796 17.0998L4.49296 19.4748L5.61713 18.3507ZM36.4921 15.9757L34.1171 13.6007L32.993 14.7248L34.0221 15.7461H24.055V17.3294H34.0221L32.993 18.3507L34.1171 19.4748L36.4921 17.0998C36.5663 17.0262 36.6252 16.9387 36.6654 16.8422C36.7056 16.7457 36.7263 16.6423 36.7263 16.5378C36.7263 16.4333 36.7056 16.3298 36.6654 16.2333C36.6252 16.1368 36.5663 16.0493 36.4921 15.9757Z" fill="url(#paint0_linear_3773_19554)"/>
<defs>
<linearGradient id="paint0_linear_3773_19554" x1="29.0299" y1="3.87109" x2="28.898" y2="42.3238" gradientUnits="userSpaceOnUse">
<stop stop-color="#005CAA"/>
<stop offset="1" stop-color="#64B0F1"/>
</linearGradient>
</defs>
</svg>