  <svg width="38" height="38" viewBox="0 0 32 28" fill="none"
                                xmlns="http://www.w3.org/2000/svg">
                                <path
                                    d="M19.314 0.496997L9.45413 3.74801C9.43695 3.74716 9.45604 3.7461 9.4342 3.7461H2.86183C2.03907 3.7461 1.31615 4.02834 0.807871 4.53644C0.299577 5.04474 0.015625 5.76764 0.015625 6.5904V24.6659C0.015625 25.4887 0.299778 26.2116 0.807871 26.7199C1.31616 27.2282 2.03907 27.5121 2.86183 27.5121H27.9201C28.376 27.5121 28.7931 27.3573 29.0858 27.0647C29.3784 26.772 29.5332 26.356 29.5332 25.899V20.9372H30.3863C30.8422 20.9372 31.2593 20.7824 31.552 20.4897C31.8446 20.1971 31.9994 19.781 31.9994 19.3241V14.3944C31.9994 13.9385 31.8446 13.5223 31.552 13.2288C31.2594 12.9353 30.8433 12.7813 30.3863 12.7813C29.9542 12.7813 29.596 13.1403 29.596 13.5717C29.596 14.0038 29.9541 14.362 30.3863 14.362C30.4775 14.362 30.4614 14.3781 30.4311 14.3467C30.4007 14.3154 30.4158 14.3012 30.4158 14.3915V19.3211C30.4158 19.4123 30.3997 19.3962 30.4311 19.3659C30.4625 19.3355 30.4767 19.3506 30.3863 19.3506H23.814C23.7228 19.3506 23.737 19.3334 23.7673 19.364C23.7976 19.3943 23.7826 19.4115 23.7826 19.3211V15.2132C23.7826 15.1229 23.7978 15.1411 23.7673 15.1704C23.737 15.1999 23.7236 15.1837 23.814 15.1837H28.7425C29.1747 15.1837 29.5328 14.8247 29.5328 14.3934V9.46376C29.5328 9.00785 29.378 8.59161 29.0854 8.29809C28.7928 8.00456 28.3767 7.85065 27.9197 7.85065H2.86145C2.43395 7.85065 2.13282 7.72533 1.9286 7.52006C1.72439 7.3148 1.59801 7.01474 1.59801 6.58722C1.59801 6.15887 1.72439 5.85946 1.9286 5.65632C2.13281 5.45296 2.43392 5.32574 2.86145 5.32574H4.65988L4.4281 5.40165C4.01587 5.53652 3.78688 5.98967 3.92172 6.40192C4.03093 6.73251 4.34265 6.94543 4.67515 6.94543C4.75404 6.94543 4.8414 6.93313 4.9222 6.90641L19.8106 1.99865C20.2201 1.86273 20.4499 1.40955 20.3151 0.998385C20.1802 0.587003 19.7241 0.359062 19.3148 0.493908L19.314 0.496997ZM22.8414 1.76424L10.8849 5.39883C10.4716 5.52522 10.2333 5.97073 10.3578 6.38597V6.38681V6.38766C10.4604 6.72589 10.7776 6.94621 11.115 6.94621C11.1882 6.94621 11.2622 6.93667 11.3391 6.91482C11.3438 6.91398 11.3468 6.91292 11.3495 6.91207L11.3468 6.91292L22.5693 3.50057L23.5544 6.41039C23.6931 6.82072 24.1455 7.047 24.5566 6.90533C24.9699 6.76664 25.194 6.31242 25.0535 5.90126L24.6022 4.57506L24.3238 3.75523L23.8212 2.26938V2.26747C23.6863 1.86648 23.2465 1.6415 22.8417 1.76491L22.8414 1.76424ZM1.60045 9.13733C1.97961 9.31206 2.3927 9.43569 2.86194 9.43569H27.9219C28.013 9.43569 27.9969 9.45181 27.9666 9.42042C27.9363 9.38904 27.9513 9.37483 27.9513 9.46516V13.6042H23.8142C23.3583 13.6042 22.9401 13.759 22.6466 14.0517C22.3531 14.3443 22.1992 14.7604 22.1992 15.2173V19.3253C22.1992 19.7812 22.3531 20.1983 22.6466 20.4909C22.9401 20.7836 23.3572 20.9384 23.8142 20.9384H27.9513V25.9002C27.9513 25.9914 27.9352 25.9753 27.9666 25.9449C27.998 25.9146 28.0122 25.9297 27.9219 25.9297H2.86194C2.43444 25.9297 2.13419 25.8033 1.93105 25.5991C1.72769 25.3949 1.60046 25.0937 1.60046 24.6662L1.60045 9.13733ZM26.6902 16.0696C26.0309 16.0696 25.4875 16.612 25.4875 17.2724C25.4875 17.9327 26.0299 18.4751 26.6902 18.4751C27.3495 18.4751 27.893 17.9327 27.893 17.2724C27.893 16.612 27.3505 16.0696 26.6902 16.0696Z"
                                    fill="url(#paint0_linear_5422_29163)" />
                                <defs>
                                    <linearGradient id="paint0_linear_5422_29163" x1="24.9345" y1="0.455078"
                                        x2="24.8296" y2="33.3104" gradientUnits="userSpaceOnUse">
                                        <stop stop-color="#005CAA" />
                                        <stop offset="1" stop-color="#64B0F1" />
                                    </linearGradient>
                                </defs>
                            </svg>