<svg width="38" height="38" viewBox="0 0 27 26" fill="none" xmlns="http://www.w3.org/2000/svg">
<path d="M20.3367 11.5861C17.0872 11.5861 14.6367 12.9475 14.6367 14.7527V22.3527C14.6367 24.1581 17.0872 25.5193 20.3367 25.5193C23.5862 25.5193 26.0367 24.1579 26.0367 22.3527V14.7527C26.0367 12.9473 23.5862 11.5861 20.3367 11.5861ZM24.7701 19.8191C24.7701 20.7159 22.8737 21.7191 20.3367 21.7191C17.7997 21.7191 15.9033 20.7159 15.9033 19.8191L15.9035 19.2985C16.9312 20.0057 18.4957 20.4525 20.3367 20.4525C22.178 20.4525 23.7423 20.0057 24.7701 19.2985L24.7701 19.8191ZM24.7701 17.2857C24.7701 18.1825 22.8737 19.1857 20.3367 19.1857C17.7997 19.1857 15.9033 18.1825 15.9033 17.2857L15.9035 16.7651C16.9312 17.4722 18.4957 17.9191 20.3367 17.9191C22.178 17.9191 23.7423 17.4723 24.7701 16.7651L24.7701 17.2857ZM20.3367 12.8525C22.8737 12.8525 24.7701 13.8557 24.7701 14.7525C24.7701 15.6493 22.8737 16.6525 20.3367 16.6525C17.7997 16.6525 15.9033 15.6493 15.9033 14.7525C15.9035 13.8557 17.7997 12.8525 20.3367 12.8525ZM20.3367 24.2525C17.7997 24.2525 15.9033 23.2493 15.9033 22.3525L15.9035 21.8319C16.9312 22.5391 18.4957 22.9859 20.3367 22.9859C22.178 22.9859 23.7423 22.5391 24.7701 21.8319V22.3525C24.7701 23.2493 22.8737 24.2525 20.3367 24.2525Z" fill="url(#paint0_linear_3240_13643)"/>
<path d="M20.3367 11.5861C17.0872 11.5861 14.6367 12.9475 14.6367 14.7527V22.3527C14.6367 24.1581 17.0872 25.5193 20.3367 25.5193C23.5862 25.5193 26.0367 24.1579 26.0367 22.3527V14.7527C26.0367 12.9473 23.5862 11.5861 20.3367 11.5861ZM24.7701 19.8191C24.7701 20.7159 22.8737 21.7191 20.3367 21.7191C17.7997 21.7191 15.9033 20.7159 15.9033 19.8191L15.9035 19.2985C16.9312 20.0057 18.4957 20.4525 20.3367 20.4525C22.178 20.4525 23.7423 20.0057 24.7701 19.2985L24.7701 19.8191ZM24.7701 17.2857C24.7701 18.1825 22.8737 19.1857 20.3367 19.1857C17.7997 19.1857 15.9033 18.1825 15.9033 17.2857L15.9035 16.7651C16.9312 17.4722 18.4957 17.9191 20.3367 17.9191C22.178 17.9191 23.7423 17.4723 24.7701 16.7651L24.7701 17.2857ZM20.3367 12.8525C22.8737 12.8525 24.7701 13.8557 24.7701 14.7525C24.7701 15.6493 22.8737 16.6525 20.3367 16.6525C17.7997 16.6525 15.9033 15.6493 15.9033 14.7525C15.9035 13.8557 17.7997 12.8525 20.3367 12.8525ZM20.3367 24.2525C17.7997 24.2525 15.9033 23.2493 15.9033 22.3525L15.9035 21.8319C16.9312 22.5391 18.4957 22.9859 20.3367 22.9859C22.178 22.9859 23.7423 22.5391 24.7701 21.8319V22.3525C24.7701 23.2493 22.8737 24.2525 20.3367 24.2525Z" fill="black" fill-opacity="0.2"/>
<path d="M6.40313 11.5861C3.15364 11.5861 0.703125 12.9473 0.703125 14.7527V22.3527C0.703125 24.1581 3.15364 25.5193 6.40313 25.5193C9.65261 25.5193 12.1031 24.1579 12.1031 22.3527V14.7527C12.1031 12.9473 9.65261 11.5861 6.40313 11.5861ZM10.8363 19.8191C10.8363 20.7159 8.9399 21.7191 6.40291 21.7191C3.86592 21.7191 1.9695 20.7159 1.9695 19.8191L1.96971 19.2985C2.99734 20.0057 4.56186 20.4525 6.40312 20.4525C8.24438 20.4525 9.80868 20.0057 10.8365 19.2985L10.8363 19.8191ZM10.8363 17.2857C10.8363 18.1825 8.9399 19.1857 6.40291 19.1857C3.86592 19.1857 1.9695 18.1825 1.9695 17.2857L1.96971 16.7651C2.99734 17.4722 4.56186 17.9191 6.40312 17.9191C8.24438 17.9191 9.80868 17.4723 10.8365 16.7651L10.8363 17.2857ZM6.40313 12.8525C8.94011 12.8525 10.8365 13.8557 10.8365 14.7525C10.8365 15.6493 8.94011 16.6525 6.40313 16.6525C3.86614 16.6525 1.96972 15.6493 1.96972 14.7525C1.96972 13.8557 3.86614 12.8525 6.40313 12.8525ZM6.40313 24.2525C3.86614 24.2525 1.96972 23.2493 1.96972 22.3525V21.8319C2.99735 22.5391 4.56186 22.9859 6.40313 22.9859C8.24439 22.9859 9.80869 22.5391 10.8365 21.8319L10.8363 22.3525C10.8363 23.2493 8.94011 24.2525 6.40313 24.2525Z" fill="url(#paint1_linear_3240_13643)"/>
<path d="M6.40313 11.5861C3.15364 11.5861 0.703125 12.9473 0.703125 14.7527V22.3527C0.703125 24.1581 3.15364 25.5193 6.40313 25.5193C9.65261 25.5193 12.1031 24.1579 12.1031 22.3527V14.7527C12.1031 12.9473 9.65261 11.5861 6.40313 11.5861ZM10.8363 19.8191C10.8363 20.7159 8.9399 21.7191 6.40291 21.7191C3.86592 21.7191 1.9695 20.7159 1.9695 19.8191L1.96971 19.2985C2.99734 20.0057 4.56186 20.4525 6.40312 20.4525C8.24438 20.4525 9.80868 20.0057 10.8365 19.2985L10.8363 19.8191ZM10.8363 17.2857C10.8363 18.1825 8.9399 19.1857 6.40291 19.1857C3.86592 19.1857 1.9695 18.1825 1.9695 17.2857L1.96971 16.7651C2.99734 17.4722 4.56186 17.9191 6.40312 17.9191C8.24438 17.9191 9.80868 17.4723 10.8365 16.7651L10.8363 17.2857ZM6.40313 12.8525C8.94011 12.8525 10.8365 13.8557 10.8365 14.7525C10.8365 15.6493 8.94011 16.6525 6.40313 16.6525C3.86614 16.6525 1.96972 15.6493 1.96972 14.7525C1.96972 13.8557 3.86614 12.8525 6.40313 12.8525ZM6.40313 24.2525C3.86614 24.2525 1.96972 23.2493 1.96972 22.3525V21.8319C2.99735 22.5391 4.56186 22.9859 6.40313 22.9859C8.24439 22.9859 9.80869 22.5391 10.8365 21.8319L10.8363 22.3525C10.8363 23.2493 8.94011 24.2525 6.40313 24.2525Z" fill="black" fill-opacity="0.2"/>
<path d="M17.7461 4.98766C17.643 4.76288 17.4182 4.61889 17.171 4.61889H15.5876V0.818894C15.5878 0.650945 15.521 0.489787 15.4022 0.371037C15.2835 0.252287 15.1223 0.185488 14.9544 0.1857H11.7876C11.6196 0.185488 11.4584 0.252287 11.3397 0.371037C11.2209 0.489787 11.1541 0.650945 11.1544 0.818894V4.61889H9.57096C9.3237 4.61911 9.09914 4.76288 8.99564 4.98745C8.89216 5.21201 8.92884 5.47623 9.08958 5.66433L12.8896 10.0977V10.0975C13.01 10.2381 13.1858 10.3189 13.3707 10.3189C13.5559 10.3189 13.7316 10.2381 13.8519 10.0975L17.6519 5.66412V5.66433C17.813 5.47646 17.8498 5.21223 17.7461 4.98766ZM13.371 8.7128L10.9478 5.88571H11.7876C11.9557 5.88571 12.1169 5.81912 12.2356 5.70016C12.3544 5.58141 12.421 5.42025 12.421 5.2523V1.4523H14.321V5.2523C14.321 5.42025 14.3876 5.58141 14.5063 5.70016C14.6251 5.81912 14.7862 5.88571 14.9544 5.88571H15.7943L13.371 8.7128Z" fill="url(#paint2_linear_3240_13643)"/>
<path d="M17.7461 4.98766C17.643 4.76288 17.4182 4.61889 17.171 4.61889H15.5876V0.818894C15.5878 0.650945 15.521 0.489787 15.4022 0.371037C15.2835 0.252287 15.1223 0.185488 14.9544 0.1857H11.7876C11.6196 0.185488 11.4584 0.252287 11.3397 0.371037C11.2209 0.489787 11.1541 0.650945 11.1544 0.818894V4.61889H9.57096C9.3237 4.61911 9.09914 4.76288 8.99564 4.98745C8.89216 5.21201 8.92884 5.47623 9.08958 5.66433L12.8896 10.0977V10.0975C13.01 10.2381 13.1858 10.3189 13.3707 10.3189C13.5559 10.3189 13.7316 10.2381 13.8519 10.0975L17.6519 5.66412V5.66433C17.813 5.47646 17.8498 5.21223 17.7461 4.98766ZM13.371 8.7128L10.9478 5.88571H11.7876C11.9557 5.88571 12.1169 5.81912 12.2356 5.70016C12.3544 5.58141 12.421 5.42025 12.421 5.2523V1.4523H14.321V5.2523C14.321 5.42025 14.3876 5.58141 14.5063 5.70016C14.6251 5.81912 14.7862 5.88571 14.9544 5.88571H15.7943L13.371 8.7128Z" fill="black" fill-opacity="0.2"/>
<defs>
<linearGradient id="paint0_linear_3240_13643" x1="20.3367" y1="11.5861" x2="20.3367" y2="25.5193" gradientUnits="userSpaceOnUse">
<stop stop-color="#FF0F0F"/>
<stop offset="1" stop-color="#FF4849"/>
</linearGradient>
<linearGradient id="paint1_linear_3240_13643" x1="6.40313" y1="11.5861" x2="6.40313" y2="25.5193" gradientUnits="userSpaceOnUse">
<stop stop-color="#FF0F0F"/>
<stop offset="1" stop-color="#FF4849"/>
</linearGradient>
<linearGradient id="paint2_linear_3240_13643" x1="13.3709" y1="0.185699" x2="13.3709" y2="10.3189" gradientUnits="userSpaceOnUse">
<stop stop-color="#FF0F0F"/>
<stop offset="1" stop-color="#FF4849"/>
</linearGradient>
</defs>
</svg>