<svg width="38" height="38" viewBox="0 0 28 32" fill="none" xmlns="http://www.w3.org/2000/svg">
<path fill-rule="evenodd" clip-rule="evenodd" d="M13.9836 7.36313C15.0329 7.36357 16.0394 7.78076 16.7812 8.52295C17.5231 9.26513 17.9398 10.2716 17.9398 11.321C17.9398 12.3705 17.5229 13.3768 16.7809 14.119C16.039 14.8611 15.0325 15.2781 13.9832 15.2783C12.9338 15.2786 11.9272 14.862 11.1849 14.1203C10.4425 13.3786 10.0253 12.3723 10.0246 11.3227C10.0251 10.273 10.4423 9.26604 11.1847 8.52364C11.9269 7.78124 12.9336 7.36381 13.9836 7.36313H13.9836ZM13.9836 15.8706C15.1903 15.8703 16.3474 15.3906 17.2006 14.5371C18.0537 13.6835 18.5327 12.5262 18.5323 11.3194C18.5321 10.1125 18.0522 8.95535 17.1986 8.10244C16.345 7.24953 15.1874 6.7705 13.9808 6.77095C12.7741 6.77162 11.6169 7.25154 10.764 8.10513C9.9111 8.9589 9.4323 10.1165 9.43299 11.3232C9.43455 12.5292 9.91469 13.6855 10.7678 14.5379C11.6209 15.3906 12.7776 15.8699 13.9836 15.8706ZM12.9646 24.9357H15.0026C15.1238 24.9471 15.2167 25.0486 15.2167 25.1705C15.2167 25.2922 15.1238 25.394 15.0026 25.4053H12.9646C12.8434 25.394 12.7506 25.2922 12.7506 25.1705C12.7506 25.0486 12.8434 24.9471 12.9646 24.9357ZM12.9646 25.9975H15.0026C15.2979 25.9975 15.5709 25.8399 15.7186 25.5839C15.8664 25.3281 15.8664 25.0129 15.7186 24.7571C15.5709 24.5011 15.2979 24.3435 15.0026 24.3435H12.9646C12.6693 24.3435 12.3963 24.5011 12.2486 24.7571C12.1008 25.0129 12.1008 25.3281 12.2486 25.5839C12.3964 25.8399 12.6693 25.9975 12.9646 25.9975ZM0.89036 23.9372V24.7794C0.890583 25.2102 1.06179 25.6232 1.36625 25.9276C1.67071 26.2323 2.08391 26.4035 2.51448 26.404H25.4533C25.8839 26.4035 26.2971 26.2323 26.6016 25.9276C26.906 25.6232 27.0772 25.2102 27.0775 24.7794V23.9372H0.89036ZM2.5147 7.26981H2.51448C2.0839 7.27003 1.67094 7.44124 1.36648 7.7457C1.06179 8.05017 0.890588 8.46313 0.890365 8.8937V23.344H27.0772V8.8937C27.077 8.4629 26.9058 8.04993 26.6013 7.74547C26.2966 7.44101 25.8837 7.26981 25.4531 7.26936H21.3607C21.7112 7.90485 21.9768 8.58319 22.1509 9.28742L24.2147 9.65126C24.3562 9.67626 24.4593 9.79925 24.4593 9.943V12.697C24.4593 12.8405 24.3562 12.9635 24.2147 12.9887L22.1509 13.3526V13.3524C21.9495 14.1644 21.6277 14.9416 21.196 15.6582L22.3975 17.376C22.4796 17.4943 22.4656 17.6546 22.3638 17.7566L20.4176 19.7026C20.3158 19.8033 20.1566 19.8176 20.0386 19.7363L18.3207 18.5352C17.6051 18.9664 16.8286 19.2874 16.0172 19.4869L15.6513 21.551V21.5512C15.6272 21.6932 15.504 21.797 15.3598 21.7968H12.6076C12.4634 21.797 12.3402 21.6932 12.3163 21.5512L11.9504 19.4872V19.4869C11.1391 19.2876 10.3623 18.9666 9.64667 18.5352L7.92884 19.7363C7.81076 19.8176 7.65183 19.8033 7.55005 19.7026L5.60342 17.7566C5.50164 17.6546 5.48735 17.4943 5.56972 17.376L6.77086 15.6582C6.33916 14.9417 6.01726 14.1644 5.81594 13.3524L3.75212 12.9885V12.9887C3.6106 12.9635 3.5077 12.8405 3.50748 12.697V9.94323C3.5077 9.7997 3.6106 9.67671 3.75212 9.65149L5.81594 9.28765V9.28787C5.9905 8.58341 6.25657 7.90507 6.60726 7.26981L2.5147 7.26981ZM7.79213 3.53455L6.19659 5.12918L7.36733 6.8053C7.43586 6.90239 7.43876 7.03119 7.3747 7.13141C6.89211 7.8921 6.54458 8.73073 6.34813 9.61021C6.32268 9.72695 6.22982 9.81691 6.11219 9.83856L4.10059 10.1939V12.4488L6.11219 12.8042C6.22916 12.827 6.32157 12.9165 6.34813 13.0325C6.54456 13.9118 6.89188 14.7506 7.3747 15.5113C7.43876 15.6113 7.43586 15.7401 7.36733 15.837L6.19659 17.5122L7.79213 19.1071L9.46693 17.9396C9.56425 17.8691 9.69461 17.8658 9.79528 17.9312C10.5553 18.4133 11.3935 18.7597 12.2723 18.9548C12.3891 18.9832 12.4781 19.0776 12.4993 19.1959L12.8558 21.205H15.1127L15.4692 19.1959H15.4687C15.4899 19.0776 15.579 18.9832 15.696 18.9548C16.5745 18.7595 17.4125 18.4131 18.1728 17.9312C18.2734 17.8658 18.4038 17.8691 18.5011 17.9396L20.1759 19.1071L21.7715 17.5122L20.6 15.8361C20.5315 15.739 20.5286 15.6102 20.5927 15.5102C21.0753 14.7495 21.4228 13.9109 21.6192 13.0314C21.6458 12.9153 21.7382 12.8258 21.8552 12.8031L23.8668 12.4477V10.1928L21.8565 9.83675C21.7389 9.81533 21.6458 9.72515 21.6206 9.60841C21.4241 8.72915 21.0768 7.89035 20.594 7.12961C20.5299 7.02961 20.5328 6.90059 20.6013 6.80349L21.7721 5.12829L20.1752 3.53452L18.5004 4.70595C18.4015 4.77291 18.2725 4.77447 18.1721 4.71041C17.412 4.22805 16.5739 3.88161 15.6951 3.68676C15.5783 3.65841 15.4893 3.56377 15.468 3.44568L15.1118 1.43631H12.8549L12.4984 3.44545L12.4986 3.44568C12.4772 3.56398 12.3881 3.65862 12.2712 3.68675C11.3926 3.88162 10.5547 4.22805 9.7946 4.71041C9.69415 4.77447 9.56514 4.77291 9.46625 4.70594L7.79213 3.53455ZM15.0658 28.5734H12.9016V26.9955H15.0658V28.5734ZM17.779 29.8678V30.566H10.1881V29.8678C10.1879 29.6817 10.2618 29.5031 10.3935 29.3714C10.525 29.2397 10.7035 29.1658 10.8897 29.1658H17.0777C17.2639 29.1658 17.4424 29.2399 17.5739 29.3716C17.7054 29.5031 17.7792 29.6817 17.779 29.8678ZM2.51442 26.9955H12.3093V28.5731L10.8894 28.5734C10.5463 28.5736 10.2173 28.7102 9.97465 28.9528C9.73202 29.1954 9.59563 29.5247 9.59563 29.8678V30.8622C9.59541 30.9408 9.62643 31.0162 9.68201 31.0718C9.73759 31.1274 9.81304 31.1586 9.89184 31.1582H18.0747C18.1535 31.1586 18.2289 31.1274 18.2845 31.0718C18.3401 31.0162 18.3711 30.9408 18.3709 30.8622V29.8678C18.3709 29.5247 18.2345 29.1957 17.9921 28.9528C17.7495 28.7102 17.4204 28.5736 17.0774 28.5734H15.6572V26.9955H25.4521C26.0398 26.995 26.6032 26.7611 27.0186 26.3457C27.4342 25.9301 27.6679 25.3664 27.6684 24.7787V8.89358C27.6679 8.30586 27.434 7.74243 27.0186 7.32706C26.603 6.91144 26.0396 6.67775 25.4521 6.67706H21.4099L22.3976 5.26232C22.4798 5.14402 22.4655 4.98397 22.3639 4.88174L20.4166 2.93774C20.3146 2.83729 20.1557 2.82301 20.0376 2.90425L18.3198 4.1058V4.10557C17.6042 3.67432 16.8276 3.35335 16.0162 3.1538L15.6506 1.08929C15.6267 0.9471 15.5035 0.843306 15.3593 0.843751H12.6066C12.4624 0.843305 12.3392 0.9471 12.3153 1.08929L11.9495 3.15335C11.1381 3.35312 10.3615 3.67388 9.64572 4.10535L7.92789 2.9038C7.80981 2.82277 7.65088 2.83684 7.5491 2.93751L5.60178 4.88505C5.5 4.98706 5.48571 5.14733 5.56808 5.26563L6.55533 6.68038H2.51316V6.6806C1.92568 6.68105 1.36225 6.91475 0.946647 7.33037C0.531247 7.74577 0.297332 8.30917 0.296875 8.89689V24.7786C0.297321 25.3665 0.531029 25.9301 0.946875 26.3458C1.3625 26.7614 1.92613 26.9949 2.51385 26.9953L2.51442 26.9955Z" fill="#CC1212"/>
</svg>