<svg width="38" height="38" viewBox="0 0 32 28" fill="none" xmlns="http://www.w3.org/2000/svg">
<path d="M21.6921 0.386719C16.4512 0.386719 12.1875 4.65055 12.1875 9.89186C12.1875 10.4771 12.2411 11.0637 12.3469 11.6356C12.4121 11.9865 12.7471 12.2173 13.1006 12.1539C13.4518 12.089 13.6839 11.7515 13.619 11.4002C13.5272 10.9057 13.481 10.3984 13.481 9.89188C13.481 5.36399 17.1645 1.68045 21.6919 1.68045C26.2195 1.68045 29.9033 5.36416 29.9033 9.89188C29.9033 13.6459 27.3671 16.9176 23.7359 17.8473C23.3897 17.9359 23.181 18.2884 23.2698 18.6343C23.3446 18.9268 23.6075 19.1209 23.8961 19.1209C23.9493 19.1209 24.0033 19.1142 24.0568 19.1006C28.2608 18.0241 31.1968 14.2373 31.1968 9.89206C31.1968 4.65074 26.933 0.386915 21.6923 0.386915L21.6921 0.386719Z" fill="#CC1212"/>
<path d="M21.6937 3.55273C21.3366 3.55273 21.0469 3.84224 21.0469 4.19959V9.89422C21.0469 10.2514 21.3364 10.5411 21.6937 10.5411H24.8576C25.2147 10.5411 25.5044 10.2516 25.5044 9.89422C25.5044 9.53708 25.2149 9.24736 24.8576 9.24736H22.3404L22.3406 4.19959C22.3406 3.84245 22.0509 3.55273 21.6937 3.55273Z" fill="#CC1212"/>
<path d="M21.0592 13.043H2.07636C1.37076 13.043 0.796875 13.6171 0.796875 14.3227V26.345C0.796875 27.0506 1.37076 27.6245 2.07636 27.6245H21.0592C21.7648 27.6245 22.3387 27.0503 22.3387 26.345V14.3227C22.3387 13.6171 21.7648 13.043 21.0592 13.043ZM2.09065 26.3447L2.07658 14.3367H21.0452L21.0594 26.331L2.09065 26.3447Z" fill="#CC1212"/>
<path d="M9.76273 21.0129C10.1094 20.5977 10.3167 20.0725 10.3167 19.5018V18.6107C10.3167 17.2714 9.17503 16.1816 7.77189 16.1816C6.36835 16.1816 5.22658 17.2711 5.22658 18.6107V19.5018C5.22658 20.0725 5.43417 20.598 5.7806 21.0131C4.68997 21.4613 3.96094 22.266 3.96094 23.1823V23.8151C3.96094 24.1723 4.25045 24.462 4.6078 24.462C4.96494 24.462 5.25465 24.1725 5.25465 23.8151V23.1823C5.25465 22.6841 6.25865 21.931 7.77185 21.931C9.28505 21.931 10.2886 22.6842 10.2886 23.1823V23.8151C10.2886 24.1723 10.5781 24.462 10.9355 24.462C11.2926 24.462 11.5823 24.1725 11.5823 23.8151V23.1823C11.5823 22.2658 10.8535 21.4611 9.76265 21.0129H9.76273ZM9.02325 19.5018C9.02325 20.1279 8.46209 20.6372 7.77193 20.6372C7.08178 20.6372 6.52039 20.1281 6.52039 19.5018V18.6107C6.52039 17.9846 7.08199 17.4752 7.77193 17.4752C8.4621 17.4752 9.02325 17.9846 9.02325 18.6107V19.5018Z" fill="#CC1212"/>
<path d="M18.5292 16.8398H14.1C13.7428 16.8398 13.4531 17.1294 13.4531 17.4867C13.4531 17.8438 13.7426 18.1336 14.1 18.1336H18.5292C18.8864 18.1336 19.1761 17.844 19.1761 17.4867C19.1761 17.1294 18.8864 16.8398 18.5292 16.8398Z" fill="#CC1212"/>
<path d="M18.5292 19.3711H14.1C13.7428 19.3711 13.4531 19.6606 13.4531 20.0179C13.4531 20.3751 13.7426 20.6648 14.1 20.6648H18.5292C18.8864 20.6648 19.1761 20.3753 19.1761 20.0179C19.1761 19.6606 18.8864 19.3711 18.5292 19.3711Z" fill="#CC1212"/>
<path d="M17.2636 21.9023H14.1C13.7428 21.9023 13.4531 22.1919 13.4531 22.5492C13.4531 22.9063 13.7426 23.1961 14.1 23.1961H17.2636C17.6207 23.1961 17.9104 22.9065 17.9104 22.5492C17.9104 22.1921 17.6209 21.9023 17.2636 21.9023Z" fill="#CC1212"/>
</svg>