<svg width="38" height="38" viewBox="0 0 32 32" fill="none" xmlns="http://www.w3.org/2000/svg">
<path d="M7.9808 3.63739H13.0922C13.2928 3.63739 13.4558 3.47444 13.4558 3.27377C13.4558 3.0731 13.2928 2.91016 13.0922 2.91016H7.9808C7.78014 2.91016 7.61719 3.0731 7.61719 3.27377C7.61719 3.47466 7.78014 3.63739 7.9808 3.63739Z" fill="url(#paint0_linear_4497_31603)"/>
<path d="M10.5342 27.4941C9.87769 27.4941 9.34375 28.0285 9.34375 28.685C9.34375 29.3415 9.87768 29.8759 10.5342 29.8759C11.1906 29.8759 11.725 29.3419 11.725 28.685C11.725 28.0279 11.1913 27.4941 10.5342 27.4941ZM10.5342 29.1479C10.279 29.1479 10.0712 28.9399 10.0712 28.6843C10.0712 28.4287 10.2792 28.2207 10.5342 28.2207C10.7897 28.2207 10.9978 28.4287 10.9978 28.6843C10.9978 28.9399 10.7897 29.1479 10.5342 29.1479Z" fill="url(#paint1_linear_4497_31603)"/>
<path d="M14.3446 12.1137L13.3972 12.7577C12.9816 12.5307 12.5624 12.3593 12.1459 12.2447L11.9453 11.1238C11.9142 10.9501 11.7633 10.8242 11.5874 10.8242H9.50756C9.33166 10.8242 9.18077 10.9503 9.14974 11.1238L8.94908 12.2432C8.52876 12.357 8.10599 12.5294 7.68793 12.757L6.74062 12.113C6.59575 12.0146 6.40267 12.0331 6.27901 12.1566L4.80981 13.6258C4.68526 13.7503 4.66785 13.9463 4.76807 14.0903L5.42076 15.0284C5.18504 15.4463 5.0116 15.8639 4.8962 16.2934L3.77969 16.4816C3.60513 16.5111 3.47656 16.6628 3.47656 16.8403V18.9349C3.47656 19.1119 3.60402 19.2633 3.77857 19.2932L4.89663 19.4851C5.01293 19.9142 5.18904 20.3369 5.42074 20.7472L4.76805 21.6898C4.66828 21.8338 4.68524 22.0287 4.80868 22.1528L6.27788 23.6316C6.40199 23.7566 6.59842 23.7742 6.74283 23.6742L7.68969 23.0186C8.1071 23.2461 8.52901 23.4177 8.94929 23.5311L9.14996 24.6512C9.18099 24.8249 9.33188 24.9508 9.50777 24.9508H11.5877C11.7635 24.9508 11.9144 24.8247 11.9455 24.6512L12.1461 23.5303C12.5622 23.4164 12.9805 23.2452 13.3957 23.0187L14.3425 23.6743C14.4865 23.774 14.6814 23.7566 14.8066 23.6325L16.2859 22.1537C16.4104 22.0296 16.4278 21.8343 16.3276 21.6897L15.6731 20.7437C15.8972 20.3363 16.0693 19.9146 16.1876 19.485L17.3071 19.2926C17.4816 19.2624 17.6091 19.1113 17.6091 18.9343V16.8397C17.6091 16.6622 17.4812 16.5109 17.306 16.4814L16.1941 16.2928C16.0705 15.8593 15.8984 15.4432 15.6725 15.0312L16.3276 14.0901C16.4281 13.9452 16.4104 13.7488 16.285 13.6243L14.8057 12.1551C14.6816 12.0339 14.4892 12.016 14.3446 12.1138L14.3446 12.1137ZM14.9303 15.1989C15.2207 15.6882 15.4229 16.1788 15.5479 16.6992C15.5823 16.8407 15.6977 16.9478 15.8408 16.9722L16.8812 17.1487V18.63L15.8305 18.8108C15.6856 18.8356 15.5702 18.9452 15.5376 19.0887C15.4222 19.5978 15.2175 20.0988 14.9307 20.5771C14.8575 20.6992 14.8624 20.8534 14.9439 20.9713L15.5569 21.8561L14.5066 22.9059L13.6218 22.2929C13.5055 22.2123 13.3513 22.2072 13.2301 22.2788C12.7346 22.5708 12.237 22.7739 11.7508 22.882C11.6073 22.9134 11.4973 23.0284 11.4716 23.1728L11.2825 24.226H9.81156L9.6225 23.1728C9.59638 23.0279 9.48567 22.913 9.34236 22.8815C8.85062 22.7744 8.35042 22.5717 7.85442 22.2788C7.73322 22.2072 7.57942 22.2123 7.46268 22.2929L6.57874 22.9047L5.53719 21.8565L6.15057 20.9708C6.23293 20.852 6.23739 20.6953 6.16083 20.5723C5.86351 20.0933 5.65748 19.5949 5.547 19.0911C5.51598 18.9467 5.39924 18.8355 5.2537 18.8103L4.20302 18.6295V17.1487L5.2521 16.9721C5.39898 16.9473 5.51594 16.836 5.54742 16.6904C5.65702 16.1846 5.85768 15.6985 6.1617 15.2038C6.23692 15.0806 6.23291 14.9245 6.15054 14.8058L5.53826 13.9259L6.5798 12.8844L7.46505 13.4861C7.58135 13.5656 7.73425 13.5701 7.85434 13.4986C8.35032 13.2058 8.8512 13.0031 9.34228 12.896C9.48626 12.8645 9.5963 12.7495 9.62242 12.6047L9.81148 11.5515H11.2824L11.4715 12.6047C11.4976 12.7491 11.6072 12.8636 11.7503 12.8955C12.2371 13.0042 12.7351 13.2069 13.23 13.4986C13.3503 13.5698 13.503 13.5656 13.6193 13.4861L14.5057 12.8839L15.5555 13.9268L14.9441 14.8058C14.8629 14.9223 14.8577 15.0761 14.9303 15.1989L14.9303 15.1989Z" fill="url(#paint2_linear_4497_31603)"/>
<path d="M10.5433 14.7617C8.81379 14.7617 7.40625 16.1624 7.40625 17.8841C7.40625 19.6135 8.81316 21.0211 10.5433 21.0211C12.2707 21.0211 13.6754 19.6142 13.6754 17.8841C13.6754 16.1624 12.2703 14.7617 10.5433 14.7617ZM10.5433 20.2938C9.21471 20.2938 8.13368 19.213 8.13368 17.8842C8.13368 16.5635 9.21448 15.4891 10.5433 15.4891C11.8694 15.4891 12.9482 16.5635 12.9482 17.8842C12.9482 19.213 11.8694 20.2938 10.5433 20.2938Z" fill="url(#paint3_linear_4497_31603)"/>
<path d="M23.9562 17.5015L24.1424 16.4716C24.5245 16.3658 24.904 16.2097 25.2769 16.0051L26.1395 16.6057C26.2839 16.7062 26.4799 16.6886 26.6044 16.5644L27.9814 15.1874C28.106 15.0629 28.1234 14.8669 28.0227 14.7229L27.4225 13.8599C27.6285 13.4852 27.7848 13.1013 27.8899 12.7137L28.915 12.54C29.09 12.5106 29.2181 12.3592 29.2181 12.1818V10.2376C29.2181 10.0606 29.0902 9.90882 28.9161 9.87936L27.8993 9.70525C27.7855 9.31262 27.6254 8.92845 27.4228 8.55902L28.023 7.69605C28.1239 7.55118 28.1065 7.35475 27.9808 7.23065L26.6038 5.86345C26.4797 5.74024 26.2861 5.72283 26.1417 5.82171L25.2772 6.41525C24.8975 6.20878 24.5174 6.05164 24.1422 5.94739L23.9565 4.92237C23.925 4.74938 23.7741 4.6237 23.5987 4.6237H21.6641C21.4882 4.6237 21.3368 4.75026 21.3063 4.92393L21.1244 5.9469C20.9382 5.99779 20.7549 6.05985 20.573 6.13306V5.26723C20.573 5.26388 20.575 5.26143 20.575 5.25808L20.5748 2.79493C20.5748 1.76459 19.7359 0.927734 18.7063 0.927734H2.37143C1.34309 0.927734 0.5 1.77482 0.5 2.79448V29.1653C0.5 30.1946 1.33931 31.0321 2.37143 31.0321H18.7057C19.2207 31.0321 19.6877 30.8227 20.0256 30.4848C20.3644 30.1464 20.5749 29.6794 20.5749 29.1636V26.7024C20.5749 26.6991 20.5729 26.6962 20.5729 26.6933V16.2864C20.7553 16.3601 20.9385 16.4221 21.1243 16.4726L21.3062 17.5005C21.3368 17.6741 21.4874 17.8007 21.664 17.8007H23.5986C23.7742 17.8005 23.9256 17.6746 23.9566 17.5013L23.9562 17.5015ZM17.2391 7.69517L17.8379 8.55632C17.627 8.93355 17.4681 9.31792 17.3623 9.705L16.3417 9.87867C16.1672 9.90813 16.0393 10.0595 16.0393 10.2369V12.1811C16.0393 12.3586 16.1672 12.5099 16.3417 12.5394L17.3623 12.713C17.4685 13.0998 17.6274 13.4844 17.8379 13.8617L17.2391 14.7228C17.1386 14.8668 17.1556 15.0621 17.2793 15.1869L18.646 16.5639C18.771 16.69 18.967 16.7075 19.1118 16.6061L19.8449 16.0956V26.3385H1.22658L1.22681 5.6202H19.8451V6.32557L19.1101 5.82089C18.9656 5.722 18.7701 5.73941 18.6471 5.86352L17.2804 7.23072C17.1563 7.35505 17.1382 7.55104 17.2391 7.69545L17.2391 7.69517ZM18.7071 30.3032H2.36999C1.74119 30.3032 1.22959 29.7916 1.22959 29.1632V27.0657H19.8462V29.165C19.8462 29.4793 19.7183 29.7639 19.512 29.9704C19.3055 30.1757 19.0214 30.3032 18.7075 30.3032L18.7071 30.3032ZM2.36999 1.65517H18.7077C19.3331 1.65517 19.8461 2.16477 19.8461 2.79449V4.89295H1.22953V2.79449C1.22953 2.15317 1.76486 1.65517 2.36999 1.65517ZM23.4683 16.1112L23.2946 17.0725H21.969L21.7993 16.112C21.7736 15.9672 21.6631 15.8518 21.5196 15.8201C21.1337 15.7352 20.7613 15.596 20.3721 15.389C20.2922 15.3493 20.2174 15.3047 20.1422 15.2605C20.0194 15.1881 19.8667 15.1935 19.7495 15.275L18.9486 15.8326L18.01 14.887L18.5685 14.0836C18.8287 13.7118 18.2761 13.5261 18.0147 12.3158C17.9832 12.1702 17.8662 12.0588 17.7198 12.0341L16.766 11.8722V10.5419L17.7198 10.3801C17.8662 10.3553 17.983 10.2439 18.0147 10.0984C18.1136 9.63967 18.3037 9.17848 18.5801 8.72826C18.6553 8.60504 18.6508 8.44902 18.5685 8.33071L18.0104 7.52825L18.9486 6.59008L19.7511 7.14142C19.8678 7.22133 20.027 7.22245 20.1477 7.15102C20.2205 7.10839 20.2937 7.0653 20.3799 7.022C20.7591 6.81977 21.1319 6.6807 21.5187 6.59544C21.6622 6.56397 21.7727 6.44857 21.7984 6.30414L21.9681 5.34854H23.2942L23.4672 6.30569C23.4937 6.44966 23.6033 6.56417 23.7464 6.59609C24.189 6.69453 24.6473 6.88225 25.1089 7.15501C25.231 7.22733 25.3832 7.22242 25.5002 7.14184L26.3036 6.59006L27.25 7.52977L26.6928 8.33132C26.6109 8.44918 26.6056 8.60386 26.6797 8.72641C26.9448 9.16659 27.1373 9.63224 27.2538 10.1084C27.2877 10.2494 27.4027 10.3566 27.5457 10.3813L28.4897 10.5427V11.8731L27.5317 12.0349C27.3848 12.0597 27.2678 12.1711 27.2368 12.3166C27.1375 12.7791 26.9498 13.2407 26.6801 13.6896C26.6065 13.8123 26.6114 13.9668 26.6933 14.0847L27.2513 14.8871L26.3045 15.834L25.5025 15.2755C25.3846 15.1936 25.2295 15.1887 25.1074 15.2623C24.6607 15.5308 24.2031 15.7186 23.7469 15.8199C23.6045 15.8525 23.4944 15.967 23.4683 16.111L23.4683 16.1112Z" fill="url(#paint4_linear_4497_31603)"/>
<path d="M25.7667 11.2024C25.7667 9.48076 24.3598 8.08008 22.6297 8.08008C20.908 8.08008 19.4922 9.47785 19.4922 11.2024C19.4922 12.9163 20.8915 14.3394 22.6297 14.3394C24.3596 14.3392 25.7667 12.9323 25.7667 11.2024ZM22.6297 13.612C21.2426 13.612 20.2281 12.4944 20.221 11.2165C20.221 11.2029 20.2219 11.1899 20.2225 11.1763C20.2371 9.8803 21.3009 8.80733 22.6299 8.80733C23.9585 8.80733 25.0395 9.88167 25.0395 11.2024C25.0395 12.5314 23.9587 13.612 22.6297 13.612Z" fill="url(#paint5_linear_4497_31603)"/>
<path d="M22.6292 2.33203C22.4286 2.33203 22.2656 2.49498 22.2656 2.69565C22.2656 2.89632 22.4286 3.05927 22.6292 3.05927C27.1355 3.05927 30.8012 6.70635 30.8012 11.189C30.8012 15.6952 27.1347 19.361 22.6292 19.361C22.4286 19.361 22.2656 19.5239 22.2656 19.7246C22.2656 19.9253 22.4286 20.0882 22.6292 20.0882C27.5364 20.0882 31.5287 16.096 31.5287 11.1888C31.5291 6.30484 27.537 2.33221 22.6292 2.33221V2.33203Z" fill="url(#paint6_linear_4497_31603)"/>
<defs>
<linearGradient id="paint0_linear_4497_31603" x1="12.1661" y1="2.91016" x2="12.1657" y2="3.79325" gradientUnits="userSpaceOnUse">
<stop stop-color="#005CAA"/>
<stop offset="1" stop-color="#64B0F1"/>
</linearGradient>
<linearGradient id="paint1_linear_4497_31603" x1="11.199" y1="27.4941" x2="11.1881" y2="30.3862" gradientUnits="userSpaceOnUse">
<stop stop-color="#005CAA"/>
<stop offset="1" stop-color="#64B0F1"/>
</linearGradient>
<linearGradient id="paint2_linear_4497_31603" x1="14.4873" y1="10.8242" x2="14.4226" y2="27.978" gradientUnits="userSpaceOnUse">
<stop stop-color="#005CAA"/>
<stop offset="1" stop-color="#64B0F1"/>
</linearGradient>
<linearGradient id="paint3_linear_4497_31603" x1="12.2906" y1="14.7617" x2="12.262" y2="22.3624" gradientUnits="userSpaceOnUse">
<stop stop-color="#005CAA"/>
<stop offset="1" stop-color="#64B0F1"/>
</linearGradient>
<linearGradient id="paint4_linear_4497_31603" x1="22.8745" y1="0.927734" x2="22.7299" y2="37.4832" gradientUnits="userSpaceOnUse">
<stop stop-color="#005CAA"/>
<stop offset="1" stop-color="#64B0F1"/>
</linearGradient>
<linearGradient id="paint5_linear_4497_31603" x1="24.3807" y1="8.08008" x2="24.3521" y2="15.6808" gradientUnits="userSpaceOnUse">
<stop stop-color="#005CAA"/>
<stop offset="1" stop-color="#64B0F1"/>
</linearGradient>
<linearGradient id="paint6_linear_4497_31603" x1="29.4826" y1="2.33203" x2="29.3266" y2="23.8924" gradientUnits="userSpaceOnUse">
<stop stop-color="#005CAA"/>
<stop offset="1" stop-color="#64B0F1"/>
</linearGradient>
</defs>
</svg>