<svg width="38" height="38" viewBox="0 0 23 24" fill="none" xmlns="http://www.w3.org/2000/svg">
<path d="M4.5933 14.0897C5.76212 14.0897 6.71321 13.1388 6.71321 11.9698C6.71321 10.8008 5.76234 9.84989 4.5933 9.84989C3.42447 9.84989 2.47338 10.8008 2.47338 11.9698C2.47338 13.1388 3.42425 14.0897 4.5933 14.0897ZM4.5933 10.6097C5.34309 10.6097 5.95321 11.2198 5.95321 11.9696C5.95321 12.7195 5.34314 13.3296 4.5933 13.3296C3.84345 13.3296 3.23338 12.7195 3.23338 11.9696C3.23338 11.2198 3.84345 10.6097 4.5933 10.6097ZM6.02595 19.1614C6.02595 19.3713 5.85588 19.5414 5.64595 19.5414H1.57154C0.838461 19.5414 0.242188 18.9449 0.242188 18.212V17.0752C0.242188 16.6331 0.461024 16.2211 0.827876 15.9732C0.861169 15.9507 0.897855 15.9394 0.934325 15.9286C0.946624 15.9189 0.954469 15.9057 0.968253 15.8975C1.11648 15.8078 4.63998 13.7305 8.2192 15.8977C8.39859 16.0062 8.45606 16.2399 8.34749 16.4195C8.27603 16.5374 8.1507 16.6027 8.0222 16.6027C7.95519 16.6027 7.88733 16.5849 7.82563 16.5478C4.63591 14.6164 1.39385 16.5285 1.36128 16.548C1.33499 16.5639 1.30594 16.569 1.27794 16.5779C1.26882 16.5854 1.26374 16.5958 1.25398 16.6023C1.09643 16.709 1.00249 16.8856 1.00249 17.075V18.2118C1.00249 18.5258 1.25801 18.7811 1.57183 18.7811H5.64625C5.85618 18.7811 6.02625 18.9512 6.02625 19.1611L6.02595 19.1614ZM17.8027 9.84973C16.6339 9.84973 15.6828 10.8006 15.6828 11.9696C15.6828 13.1387 16.6336 14.0896 17.8027 14.0896C18.9715 14.0896 19.9226 13.1387 19.9226 11.9696C19.9226 10.8006 18.9717 9.84973 17.8027 9.84973ZM17.8027 13.3297C17.0529 13.3297 16.4428 12.7197 16.4428 11.9698C16.4428 11.22 17.0528 10.6099 17.8027 10.6099C18.5525 10.6099 19.1626 11.22 19.1626 11.9698C19.1626 12.7197 18.5525 13.3297 17.8027 13.3297ZM22.1542 17.075V18.2118C22.1542 18.9449 21.5577 19.5411 20.8249 19.5411H16.7195C16.5096 19.5411 16.3395 19.3711 16.3395 19.1611C16.3395 18.9512 16.5096 18.7811 16.7195 18.7811H20.8249C21.1387 18.7811 21.3942 18.5258 21.3942 18.2118V17.075C21.3942 16.8981 21.3139 16.7338 21.1739 16.6252C21.1616 16.6155 21.1553 16.6017 21.1444 16.5909C21.1067 16.582 21.0696 16.5688 21.0346 16.5476C17.8444 14.6162 14.6028 16.5283 14.5703 16.5478C14.3906 16.6562 14.1572 16.5985 14.0484 16.4187C13.94 16.2391 13.9977 16.0054 14.1773 15.897C14.3255 15.8073 17.849 13.7301 21.4283 15.8972C21.4543 15.9131 21.4722 15.9361 21.4929 15.9566C21.5451 15.9687 21.5956 15.9897 21.6403 16.0245C21.9669 16.2785 22.1541 16.6613 22.1541 17.0746L22.1542 17.075ZM11.1983 12.2447C9.83626 12.2447 8.72808 13.3528 8.72808 14.7149C8.72808 16.0769 9.83626 17.1851 11.1983 17.1851C12.5603 17.1851 13.6685 16.0769 13.6685 14.7149C13.6685 13.3528 12.5603 12.2447 11.1983 12.2447ZM11.1983 16.4253C10.2553 16.4253 9.48808 15.6581 9.48808 14.7151C9.48808 13.7719 10.2553 13.0049 11.1983 13.0049C12.1413 13.0049 12.9085 13.7721 12.9085 14.7151C12.9085 15.6583 12.1413 16.4253 11.1983 16.4253ZM15.7617 19.6476C15.7125 19.6095 15.6569 19.5893 15.5999 19.5785C15.5746 19.5495 15.5488 19.5206 15.514 19.4996C11.2545 16.92 7.05898 19.3926 6.88255 19.4994C6.86644 19.5092 6.85689 19.5242 6.8429 19.5359C6.79943 19.5463 6.75659 19.5616 6.71757 19.5881C6.29792 19.8714 6.04725 20.3427 6.04725 20.849V22.2144C6.04725 23.0528 6.72919 23.735 7.56769 23.735H14.8284C15.6668 23.735 16.3488 23.0529 16.3488 22.2144V20.849C16.3488 20.3761 16.1347 19.9384 15.7612 19.6481L15.7617 19.6476ZM15.5893 22.2139C15.5893 22.6333 15.2481 22.9746 14.8288 22.9746H7.56811C7.14888 22.9746 6.80768 22.6334 6.80768 22.2139V20.8485C6.80768 20.5953 6.93321 20.3593 7.14293 20.2177C7.15566 20.209 7.16265 20.1958 7.17411 20.1861C7.20846 20.1771 7.24323 20.1693 7.27526 20.1502C7.3147 20.1265 11.261 17.8123 15.1206 20.1496C15.1618 20.1744 15.2061 20.1875 15.2506 20.1956C15.2659 20.2128 15.2765 20.2327 15.2951 20.2473C15.4822 20.3928 15.5895 20.6119 15.5895 20.8485L15.5893 22.2139ZM2.70726 8.73801V7.46887C2.70726 7.25893 2.87732 7.08887 3.08726 7.08887H4.16999C4.34854 6.32143 4.64711 5.59856 5.06082 4.93269L4.2968 4.16846C4.14836 4.02002 4.14836 3.77955 4.2968 3.63112L6.09143 1.83648C6.16268 1.76523 6.25938 1.72516 6.3601 1.72516C6.46083 1.72516 6.55752 1.76523 6.62877 1.83648L7.39279 2.60072C8.05866 2.18721 8.78174 1.88844 9.54918 1.70989V0.627162C9.54918 0.417228 9.71925 0.247162 9.92918 0.247162H12.4673C12.6772 0.247162 12.8473 0.417228 12.8473 0.627162V1.70989C13.6149 1.88865 14.3378 2.18722 15.0034 2.60072L15.7677 1.83648C15.9161 1.68805 16.1566 1.68805 16.305 1.83648L18.0996 3.63112C18.2481 3.77956 18.2481 4.02002 18.0996 4.16846L17.3356 4.93269C17.7491 5.59834 18.0479 6.32121 18.2264 7.08887H19.3092C19.5191 7.08887 19.6892 7.25893 19.6892 7.46887V8.73801C19.6892 8.94795 19.5191 9.11801 19.3092 9.11801C19.0992 9.11801 18.9292 8.94795 18.9292 8.73801V7.84887H17.9181C17.7353 7.84887 17.5784 7.71888 17.5447 7.53885C17.3786 6.6548 17.0389 5.83308 16.5353 5.09621C16.432 4.94544 16.4509 4.74229 16.5802 4.61315L17.2936 3.89978L16.0364 2.64252L15.323 3.35589C15.1936 3.48524 14.9909 3.50433 14.8397 3.40106C14.1028 2.89722 13.2811 2.55773 12.3971 2.39167C12.2175 2.35774 12.0873 2.20104 12.0873 2.01825V1.00717H10.3092V2.01825C10.3092 2.20104 10.179 2.35795 9.99939 2.39167C9.11556 2.55771 8.29362 2.89721 7.55631 3.40106C7.40555 3.50433 7.2024 3.48546 7.07326 3.35589L6.36011 2.64252L5.10285 3.89978L5.816 4.61315C5.94535 4.74229 5.96423 4.94544 5.86096 5.09621C5.35733 5.8333 5.01763 6.65502 4.85157 7.53885C4.81785 7.71867 4.66093 7.84887 4.47814 7.84887H3.46707V8.73801C3.46707 8.94795 3.297 9.11801 3.08707 9.11801C2.87714 9.11801 2.70707 8.94795 2.70707 8.73801H2.70726ZM14.2055 8.73801C14.2055 7.07975 12.8564 5.73069 11.1984 5.73069C9.54009 5.73069 8.19104 7.0798 8.19104 8.73801C8.19104 8.94795 8.02097 9.11801 7.81104 9.11801C7.6011 9.11801 7.43104 8.94795 7.43104 8.73801C7.43104 6.66072 9.1209 4.97069 11.1984 4.97069C13.2757 4.97069 14.9655 6.66077 14.9655 8.73801C14.9655 8.94795 14.7954 9.11801 14.5855 9.11801C14.3756 9.11801 14.2055 8.94795 14.2055 8.73801Z" fill="url(#paint0_linear_3240_13555)"/>
<path d="M4.5933 14.0897C5.76212 14.0897 6.71321 13.1388 6.71321 11.9698C6.71321 10.8008 5.76234 9.84989 4.5933 9.84989C3.42447 9.84989 2.47338 10.8008 2.47338 11.9698C2.47338 13.1388 3.42425 14.0897 4.5933 14.0897ZM4.5933 10.6097C5.34309 10.6097 5.95321 11.2198 5.95321 11.9696C5.95321 12.7195 5.34314 13.3296 4.5933 13.3296C3.84345 13.3296 3.23338 12.7195 3.23338 11.9696C3.23338 11.2198 3.84345 10.6097 4.5933 10.6097ZM6.02595 19.1614C6.02595 19.3713 5.85588 19.5414 5.64595 19.5414H1.57154C0.838461 19.5414 0.242188 18.9449 0.242188 18.212V17.0752C0.242188 16.6331 0.461024 16.2211 0.827876 15.9732C0.861169 15.9507 0.897855 15.9394 0.934325 15.9286C0.946624 15.9189 0.954469 15.9057 0.968253 15.8975C1.11648 15.8078 4.63998 13.7305 8.2192 15.8977C8.39859 16.0062 8.45606 16.2399 8.34749 16.4195C8.27603 16.5374 8.1507 16.6027 8.0222 16.6027C7.95519 16.6027 7.88733 16.5849 7.82563 16.5478C4.63591 14.6164 1.39385 16.5285 1.36128 16.548C1.33499 16.5639 1.30594 16.569 1.27794 16.5779C1.26882 16.5854 1.26374 16.5958 1.25398 16.6023C1.09643 16.709 1.00249 16.8856 1.00249 17.075V18.2118C1.00249 18.5258 1.25801 18.7811 1.57183 18.7811H5.64625C5.85618 18.7811 6.02625 18.9512 6.02625 19.1611L6.02595 19.1614ZM17.8027 9.84973C16.6339 9.84973 15.6828 10.8006 15.6828 11.9696C15.6828 13.1387 16.6336 14.0896 17.8027 14.0896C18.9715 14.0896 19.9226 13.1387 19.9226 11.9696C19.9226 10.8006 18.9717 9.84973 17.8027 9.84973ZM17.8027 13.3297C17.0529 13.3297 16.4428 12.7197 16.4428 11.9698C16.4428 11.22 17.0528 10.6099 17.8027 10.6099C18.5525 10.6099 19.1626 11.22 19.1626 11.9698C19.1626 12.7197 18.5525 13.3297 17.8027 13.3297ZM22.1542 17.075V18.2118C22.1542 18.9449 21.5577 19.5411 20.8249 19.5411H16.7195C16.5096 19.5411 16.3395 19.3711 16.3395 19.1611C16.3395 18.9512 16.5096 18.7811 16.7195 18.7811H20.8249C21.1387 18.7811 21.3942 18.5258 21.3942 18.2118V17.075C21.3942 16.8981 21.3139 16.7338 21.1739 16.6252C21.1616 16.6155 21.1553 16.6017 21.1444 16.5909C21.1067 16.582 21.0696 16.5688 21.0346 16.5476C17.8444 14.6162 14.6028 16.5283 14.5703 16.5478C14.3906 16.6562 14.1572 16.5985 14.0484 16.4187C13.94 16.2391 13.9977 16.0054 14.1773 15.897C14.3255 15.8073 17.849 13.7301 21.4283 15.8972C21.4543 15.9131 21.4722 15.9361 21.4929 15.9566C21.5451 15.9687 21.5956 15.9897 21.6403 16.0245C21.9669 16.2785 22.1541 16.6613 22.1541 17.0746L22.1542 17.075ZM11.1983 12.2447C9.83626 12.2447 8.72808 13.3528 8.72808 14.7149C8.72808 16.0769 9.83626 17.1851 11.1983 17.1851C12.5603 17.1851 13.6685 16.0769 13.6685 14.7149C13.6685 13.3528 12.5603 12.2447 11.1983 12.2447ZM11.1983 16.4253C10.2553 16.4253 9.48808 15.6581 9.48808 14.7151C9.48808 13.7719 10.2553 13.0049 11.1983 13.0049C12.1413 13.0049 12.9085 13.7721 12.9085 14.7151C12.9085 15.6583 12.1413 16.4253 11.1983 16.4253ZM15.7617 19.6476C15.7125 19.6095 15.6569 19.5893 15.5999 19.5785C15.5746 19.5495 15.5488 19.5206 15.514 19.4996C11.2545 16.92 7.05898 19.3926 6.88255 19.4994C6.86644 19.5092 6.85689 19.5242 6.8429 19.5359C6.79943 19.5463 6.75659 19.5616 6.71757 19.5881C6.29792 19.8714 6.04725 20.3427 6.04725 20.849V22.2144C6.04725 23.0528 6.72919 23.735 7.56769 23.735H14.8284C15.6668 23.735 16.3488 23.0529 16.3488 22.2144V20.849C16.3488 20.3761 16.1347 19.9384 15.7612 19.6481L15.7617 19.6476ZM15.5893 22.2139C15.5893 22.6333 15.2481 22.9746 14.8288 22.9746H7.56811C7.14888 22.9746 6.80768 22.6334 6.80768 22.2139V20.8485C6.80768 20.5953 6.93321 20.3593 7.14293 20.2177C7.15566 20.209 7.16265 20.1958 7.17411 20.1861C7.20846 20.1771 7.24323 20.1693 7.27526 20.1502C7.3147 20.1265 11.261 17.8123 15.1206 20.1496C15.1618 20.1744 15.2061 20.1875 15.2506 20.1956C15.2659 20.2128 15.2765 20.2327 15.2951 20.2473C15.4822 20.3928 15.5895 20.6119 15.5895 20.8485L15.5893 22.2139ZM2.70726 8.73801V7.46887C2.70726 7.25893 2.87732 7.08887 3.08726 7.08887H4.16999C4.34854 6.32143 4.64711 5.59856 5.06082 4.93269L4.2968 4.16846C4.14836 4.02002 4.14836 3.77955 4.2968 3.63112L6.09143 1.83648C6.16268 1.76523 6.25938 1.72516 6.3601 1.72516C6.46083 1.72516 6.55752 1.76523 6.62877 1.83648L7.39279 2.60072C8.05866 2.18721 8.78174 1.88844 9.54918 1.70989V0.627162C9.54918 0.417228 9.71925 0.247162 9.92918 0.247162H12.4673C12.6772 0.247162 12.8473 0.417228 12.8473 0.627162V1.70989C13.6149 1.88865 14.3378 2.18722 15.0034 2.60072L15.7677 1.83648C15.9161 1.68805 16.1566 1.68805 16.305 1.83648L18.0996 3.63112C18.2481 3.77956 18.2481 4.02002 18.0996 4.16846L17.3356 4.93269C17.7491 5.59834 18.0479 6.32121 18.2264 7.08887H19.3092C19.5191 7.08887 19.6892 7.25893 19.6892 7.46887V8.73801C19.6892 8.94795 19.5191 9.11801 19.3092 9.11801C19.0992 9.11801 18.9292 8.94795 18.9292 8.73801V7.84887H17.9181C17.7353 7.84887 17.5784 7.71888 17.5447 7.53885C17.3786 6.6548 17.0389 5.83308 16.5353 5.09621C16.432 4.94544 16.4509 4.74229 16.5802 4.61315L17.2936 3.89978L16.0364 2.64252L15.323 3.35589C15.1936 3.48524 14.9909 3.50433 14.8397 3.40106C14.1028 2.89722 13.2811 2.55773 12.3971 2.39167C12.2175 2.35774 12.0873 2.20104 12.0873 2.01825V1.00717H10.3092V2.01825C10.3092 2.20104 10.179 2.35795 9.99939 2.39167C9.11556 2.55771 8.29362 2.89721 7.55631 3.40106C7.40555 3.50433 7.2024 3.48546 7.07326 3.35589L6.36011 2.64252L5.10285 3.89978L5.816 4.61315C5.94535 4.74229 5.96423 4.94544 5.86096 5.09621C5.35733 5.8333 5.01763 6.65502 4.85157 7.53885C4.81785 7.71867 4.66093 7.84887 4.47814 7.84887H3.46707V8.73801C3.46707 8.94795 3.297 9.11801 3.08707 9.11801C2.87714 9.11801 2.70707 8.94795 2.70707 8.73801H2.70726ZM14.2055 8.73801C14.2055 7.07975 12.8564 5.73069 11.1984 5.73069C9.54009 5.73069 8.19104 7.0798 8.19104 8.73801C8.19104 8.94795 8.02097 9.11801 7.81104 9.11801C7.6011 9.11801 7.43104 8.94795 7.43104 8.73801C7.43104 6.66072 9.1209 4.97069 11.1984 4.97069C13.2757 4.97069 14.9655 6.66077 14.9655 8.73801C14.9655 8.94795 14.7954 9.11801 14.5855 9.11801C14.3756 9.11801 14.2055 8.94795 14.2055 8.73801Z" fill="black" fill-opacity="0.2"/>
<defs>
<linearGradient id="paint0_linear_3240_13555" x1="11.1982" y1="0.247162" x2="11.1982" y2="23.735" gradientUnits="userSpaceOnUse">
<stop stop-color="#FF0F0F"/>
<stop offset="1" stop-color="#FF4849"/>
</linearGradient>
</defs>
</svg>