<svg width="38" height="38" viewBox="0 0 28 32" fill="none" xmlns="http://www.w3.org/2000/svg">
<path d="M26.5084 25.4707C26.5424 25.2428 26.5569 25.0149 26.5569 24.7919C26.5569 24.5689 26.5424 24.341 26.5084 24.1131L27.7883 23.0997C27.9725 22.9542 28.0211 22.6973 27.9046 22.4937L26.8138 20.6029C26.6975 20.3993 26.4502 20.3167 26.2318 20.3993L24.724 21.0005C24.3604 20.7143 23.9675 20.4866 23.541 20.3167L23.3082 18.7071C23.2742 18.4743 23.0753 18.3047 22.8428 18.3047H20.6561C20.4233 18.3047 20.2247 18.4743 20.1907 18.7071L19.9579 20.3167C19.5314 20.4864 19.1289 20.7192 18.7749 21.0005L17.2671 20.3993C17.049 20.312 16.8017 20.3993 16.6851 20.6029L15.5943 22.4937C15.478 22.6973 15.5264 22.9545 15.7106 23.0997L16.9904 24.1131C16.9614 24.341 16.942 24.564 16.942 24.7919C16.942 25.0198 16.9565 25.2428 16.9904 25.4707L15.7106 26.4841C15.5264 26.6296 15.4777 26.8865 15.5943 27.0852L16.6851 28.9761C16.8014 29.1797 17.0487 29.2622 17.2671 29.175L18.7749 28.5738C19.1289 28.8551 19.5313 29.0877 19.9579 29.2575L20.1907 30.8671C20.2247 31.1 20.4235 31.2696 20.6561 31.2696H22.8428C23.0756 31.2696 23.2742 31.1 23.3082 30.8671L23.541 29.2575C23.9675 29.0879 24.3653 28.86 24.724 28.5738L26.2318 29.175C26.4499 29.2622 26.6972 29.175 26.8138 28.9714L27.9046 27.0805C28.0209 26.877 27.9725 26.6198 27.7883 26.4745L26.5084 25.4707ZM26.198 28.1569L24.8064 27.5993C24.6415 27.5314 24.4524 27.5654 24.3167 27.6866C23.9191 28.0406 23.4633 28.3071 22.964 28.4721C22.7943 28.5254 22.6682 28.6756 22.6439 28.8502L22.4305 30.3339L21.0586 30.3337L20.8452 28.85C20.8209 28.6754 20.695 28.5252 20.5251 28.4718C20.0209 28.3069 19.5506 28.0355 19.1724 27.6913C19.0416 27.5701 18.8477 27.5361 18.6827 27.604L17.2912 28.1616L16.6075 26.9736L17.7856 26.0428C17.9262 25.9312 17.9891 25.7567 17.9552 25.5821C17.9019 25.3203 17.8775 25.0585 17.8775 24.7966C17.8775 24.5348 17.9019 24.273 17.9552 24.0112C17.9892 23.8366 17.9213 23.662 17.7856 23.5504L16.6075 22.6196L17.2912 21.4317L18.6827 21.9893C18.8477 22.0571 19.0414 22.0232 19.1724 21.902C19.5506 21.5578 20.0209 21.2862 20.5251 21.1214C20.6948 21.0681 20.816 20.9179 20.8452 20.7433L21.0586 19.2596H22.4307L22.6441 20.7433C22.6685 20.9179 22.7944 21.0681 22.9642 21.1214C23.4636 21.2864 23.9194 21.548 24.3169 21.9069C24.4477 22.0281 24.6417 22.0621 24.8066 21.9942L26.1982 21.4366L26.8819 22.6246L25.7038 23.5554C25.5632 23.662 25.5002 23.8415 25.5341 24.0161C25.5875 24.2779 25.6118 24.5446 25.6118 24.8016C25.6118 25.0585 25.5875 25.3252 25.5341 25.587C25.5002 25.7616 25.5681 25.9361 25.7038 26.0478L26.8819 26.9786L26.198 28.1569Z" fill="url(#paint0_linear_4105_34089)"/>
<path d="M21.7525 22.2325C20.3366 22.2325 19.1875 23.3815 19.1875 24.7974C19.1875 26.0048 20.0409 27.0617 21.219 27.3041C21.3935 27.3429 21.573 27.3624 21.7522 27.3624C23.1681 27.3624 24.3172 26.2133 24.3172 24.7974C24.3174 23.3816 23.1634 22.2325 21.7525 22.2325ZM21.7525 26.4169C21.6362 26.4169 21.5246 26.4073 21.4132 26.3829C20.6715 26.2278 20.1284 25.5586 20.1284 24.7925C20.1284 23.8957 20.8556 23.1682 21.7527 23.1682C22.6496 23.1682 23.3771 23.8954 23.3771 24.7925C23.3768 25.6894 22.6447 26.4169 21.7525 26.4169Z" fill="url(#paint1_linear_4105_34089)"/>
<path d="M8.66025 9.38942C8.66025 9.12759 8.45177 8.9191 8.18994 8.9191C7.92811 8.9191 7.71962 9.12758 7.71962 9.38942V10.6646C7.71962 10.7858 7.61784 10.8876 7.49663 10.8876H3.77298C3.65177 10.8876 3.54999 10.7858 3.54999 10.6646V6.94096C3.54999 6.81976 3.65177 6.71797 3.77298 6.71797H6.008C6.26983 6.71797 6.47832 6.50949 6.47832 6.24766C6.47832 5.98582 6.26984 5.77734 6.008 5.77734H3.77298C3.13303 5.77734 2.60938 6.30101 2.60938 6.94094V10.6646C2.60938 11.3045 3.13304 11.8282 3.77298 11.8282H7.49663C8.13658 11.8282 8.66023 11.3045 8.66023 10.6646L8.66025 9.38942Z" fill="url(#paint2_linear_4105_34089)"/>
<path d="M19.1325 6.86328H11.1422C10.8804 6.86328 10.6719 7.07176 10.6719 7.3336C10.6719 7.59542 10.8804 7.80391 11.1422 7.80391H19.1279C19.3897 7.80391 19.5982 7.59543 19.5982 7.3336C19.6031 7.07177 19.3897 6.86328 19.1328 6.86328H19.1325Z" fill="url(#paint3_linear_4105_34089)"/>
<path d="M11.1422 10.7356H15.3991C15.6609 10.7356 15.8694 10.5271 15.8694 10.2652C15.8694 10.0034 15.6609 9.79492 15.3991 9.79492H11.1422C10.8804 9.79492 10.6719 10.0034 10.6719 10.2652C10.6719 10.5271 10.8804 10.7356 11.1422 10.7356Z" fill="url(#paint4_linear_4105_34089)"/>
<path d="M4.88834 8.46178C4.70418 8.27762 4.40843 8.27762 4.22405 8.46178C4.0399 8.64593 4.0399 8.94168 4.22405 9.12606L5.14034 10.0423C5.23253 10.1345 5.35373 10.1781 5.47494 10.1781C5.59614 10.1781 5.71735 10.1345 5.80954 10.0423L8.19011 7.66178C8.37426 7.47762 8.37426 7.18187 8.19011 6.99749C8.00596 6.81334 7.7102 6.81334 7.52582 6.99749L5.47982 9.04349L4.88834 8.46178Z" fill="url(#paint5_linear_4105_34089)"/>
<path d="M19.6028 15.1832C19.6028 14.9214 19.3943 14.7129 19.1325 14.7129H11.1422C10.8804 14.7129 10.6719 14.9214 10.6719 15.1832C10.6719 15.445 10.8804 15.6535 11.1422 15.6535H19.1279C19.3897 15.6535 19.6031 15.445 19.6031 15.1832H19.6028Z" fill="url(#paint6_linear_4105_34089)"/>
<path d="M11.1422 17.6504C10.8804 17.6504 10.6719 17.8589 10.6719 18.1207C10.6719 18.3825 10.8804 18.591 11.1422 18.591H17.3822C17.644 18.591 17.8525 18.3825 17.8525 18.1207C17.8525 17.8589 17.644 17.6504 17.3822 17.6504H11.1422Z" fill="url(#paint7_linear_4105_34089)"/>
<path d="M7.24932 13.627H4.02029C3.24463 13.627 2.60938 14.2573 2.60938 15.0379V18.2669C2.60938 19.0426 3.23972 19.6778 4.02029 19.6778H7.24932C8.02497 19.6778 8.66023 19.0475 8.66023 18.2669V15.0379C8.66023 14.2622 8.02497 13.627 7.24932 13.627ZM7.71963 18.2669C7.71963 18.5287 7.51115 18.7372 7.24932 18.7372H4.02029C3.75846 18.7372 3.54997 18.5287 3.54997 18.2669V15.0379C3.54997 14.776 3.75845 14.5676 4.02029 14.5676H7.24932C7.51115 14.5676 7.71963 14.776 7.71963 15.0379V18.2669Z" fill="url(#paint8_linear_4105_34089)"/>
<path d="M14.29 22.2324H7.72031C7.45849 22.2324 7.25 22.4409 7.25 22.7027C7.25 22.9646 7.45848 23.1731 7.72031 23.1731H14.2946C14.5564 23.1731 14.7649 22.9646 14.7649 22.7027C14.7649 22.4409 14.5515 22.2324 14.2897 22.2324H14.29Z" fill="url(#paint9_linear_4105_34089)"/>
<path d="M14.012 26.989H5.92458V23.4836C5.92458 22.6691 5.26029 21.9999 4.44086 21.9999H0.935491V5.29187C0.935491 4.56461 1.52703 3.97804 2.24932 3.97804H19.9562C20.6834 3.97804 21.2749 4.56958 21.2749 5.29187V16.7633C21.2749 17.0251 21.4834 17.2336 21.7452 17.2336C22.0071 17.2336 22.2156 17.0251 22.2156 16.7633L22.2158 5.29187C22.2158 4.05055 21.2024 3.03741 19.9564 3.03741H17.6872L17.0907 1.82535C16.7611 1.15147 16.0579 0.715067 15.3066 0.715067L6.90429 0.714844C6.15274 0.714844 5.44983 1.15123 5.12011 1.83004L4.52857 3.0421L2.25446 3.04232C1.01314 3.04232 0 4.0557 0 5.29678V22.4751C0 22.6012 0.0484377 22.7175 0.135714 22.8097L5.11989 27.7938C5.20716 27.8811 5.32837 27.9296 5.45449 27.9296H14.0122C14.274 27.9296 14.4825 27.7211 14.4825 27.4592C14.4825 27.1976 14.274 26.9891 14.0122 26.9891L14.012 26.989ZM5.96344 2.2421C6.13799 1.88339 6.50652 1.65547 6.90406 1.65547H15.3064C15.7039 1.65547 16.0724 1.88337 16.247 2.2421L16.6396 3.0421H5.57561L5.96344 2.2421ZM4.98395 23.4832V26.3246L1.60446 22.9451H4.44578C4.74154 22.9451 4.98395 23.1875 4.98395 23.4832Z" fill="url(#paint10_linear_4105_34089)"/>
<defs>
<linearGradient id="paint0_linear_4105_34089" x1="25.2206" y1="18.3047" x2="25.1586" y2="34.0479" gradientUnits="userSpaceOnUse">
<stop stop-color="#005CAA"/>
<stop offset="1" stop-color="#64B0F1"/>
</linearGradient>
<linearGradient id="paint1_linear_4105_34089" x1="23.1841" y1="22.2324" x2="23.1606" y2="28.4617" gradientUnits="userSpaceOnUse">
<stop stop-color="#005CAA"/>
<stop offset="1" stop-color="#64B0F1"/>
</linearGradient>
<linearGradient id="paint2_linear_4105_34089" x1="7.32367" y1="5.77734" x2="7.29594" y2="13.1249" gradientUnits="userSpaceOnUse">
<stop stop-color="#005CAA"/>
<stop offset="1" stop-color="#64B0F1"/>
</linearGradient>
<linearGradient id="paint3_linear_4105_34089" x1="17.6265" y1="6.86328" x2="17.6261" y2="8.0055" gradientUnits="userSpaceOnUse">
<stop stop-color="#005CAA"/>
<stop offset="1" stop-color="#64B0F1"/>
</linearGradient>
<linearGradient id="paint4_linear_4105_34089" x1="14.7213" y1="9.79492" x2="14.7206" y2="10.9371" gradientUnits="userSpaceOnUse">
<stop stop-color="#005CAA"/>
<stop offset="1" stop-color="#64B0F1"/>
</linearGradient>
<linearGradient id="paint5_linear_4105_34089" x1="7.39114" y1="6.85937" x2="7.37925" y2="10.8893" gradientUnits="userSpaceOnUse">
<stop stop-color="#005CAA"/>
<stop offset="1" stop-color="#64B0F1"/>
</linearGradient>
<linearGradient id="paint6_linear_4105_34089" x1="17.6303" y1="14.7129" x2="17.6298" y2="15.8551" gradientUnits="userSpaceOnUse">
<stop stop-color="#005CAA"/>
<stop offset="1" stop-color="#64B0F1"/>
</linearGradient>
<linearGradient id="paint7_linear_4105_34089" x1="16.2664" y1="17.6504" x2="16.2658" y2="18.7926" gradientUnits="userSpaceOnUse">
<stop stop-color="#005CAA"/>
<stop offset="1" stop-color="#64B0F1"/>
</linearGradient>
<linearGradient id="paint8_linear_4105_34089" x1="7.32366" y1="13.627" x2="7.29593" y2="20.9745" gradientUnits="userSpaceOnUse">
<stop stop-color="#005CAA"/>
<stop offset="1" stop-color="#64B0F1"/>
</linearGradient>
<linearGradient id="paint9_linear_4105_34089" x1="13.1049" y1="22.2324" x2="13.1044" y2="23.3746" gradientUnits="userSpaceOnUse">
<stop stop-color="#005CAA"/>
<stop offset="1" stop-color="#64B0F1"/>
</linearGradient>
<linearGradient id="paint10_linear_4105_34089" x1="17.3085" y1="0.714844" x2="17.1558" y2="33.7613" gradientUnits="userSpaceOnUse">
<stop stop-color="#005CAA"/>
<stop offset="1" stop-color="#64B0F1"/>
</linearGradient>
</defs>
</svg>