<svg width="38" height="38" viewBox="0 0 40 40" fill="none"
                                xmlns="http://www.w3.org/2000/svg">
                                <path
                                    d="M17.7016 19.643C17.5678 19.643 17.4778 19.6055 17.4328 19.5305C17.3866 19.4555 17.3641 19.3305 17.3641 19.1555V15.8305C17.3641 15.488 17.2891 15.1992 17.1391 14.9617C16.9893 14.7242 16.7859 14.5252 16.5453 14.3805C16.2886 14.226 16.0075 14.1161 15.7141 14.0555C15.406 13.9891 15.0917 13.9556 14.7766 13.9555C14.4178 13.9555 14.0691 13.9892 13.7266 14.0555C13.4015 14.1148 13.09 14.2335 12.8078 14.4055C12.5366 14.573 12.3141 14.793 12.1391 15.068C11.9641 15.343 11.8641 15.6892 11.8391 16.1055H13.2641C13.2978 15.7555 13.4441 15.4967 13.7016 15.3305C13.9591 15.1642 14.2891 15.0805 14.6891 15.0805C14.8303 15.0805 14.9803 15.0917 15.1391 15.1117C15.2966 15.133 15.4416 15.1742 15.5703 15.2367C15.6987 15.2989 15.8101 15.3911 15.8953 15.5055C15.9828 15.6217 16.0266 15.7717 16.0266 15.9555C16.0266 16.1642 15.9741 16.3205 15.8703 16.4242C15.7509 16.5366 15.6045 16.6163 15.4453 16.6555C15.2426 16.7092 15.0356 16.7448 14.8266 16.7617C14.5791 16.7848 14.333 16.8202 14.0891 16.868C13.7891 16.9017 13.4903 16.9492 13.1953 17.0117C12.8991 17.0742 12.6328 17.1767 12.3953 17.318C12.1578 17.4605 11.9653 17.6555 11.8203 17.9055C11.6741 18.1555 11.6016 18.4805 11.6016 18.8805C11.6016 19.1967 11.6616 19.4742 11.7828 19.7117C11.9041 19.9492 12.0666 20.1455 12.2703 20.2992C12.4741 20.4542 12.7103 20.5705 12.9766 20.6492C13.2428 20.728 13.5216 20.768 13.8141 20.768C14.1978 20.768 14.5953 20.7055 15.0078 20.5805C15.4203 20.4555 15.7678 20.2555 16.0516 19.9805C16.1103 20.273 16.2341 20.4767 16.4266 20.593C16.6475 20.717 16.8984 20.7775 17.1516 20.768C17.3904 20.7613 17.6276 20.7256 17.8578 20.6617C17.9366 20.6405 18.0016 20.6217 18.0516 20.6055V19.618C17.986 19.6333 17.9189 19.6417 17.8516 19.643H17.7016ZM15.9391 18.4167C15.9391 18.6417 15.8841 18.8317 15.7766 18.9855C15.6686 19.1389 15.5303 19.2687 15.3703 19.3667C15.2078 19.4667 15.0341 19.538 14.8516 19.5792C14.5462 19.6518 14.2291 19.6603 13.9203 19.6042C13.7666 19.5792 13.6253 19.5355 13.4953 19.473C13.3653 19.4105 13.2553 19.3255 13.1641 19.2167C13.071 19.1046 13.0221 18.9624 13.0266 18.8167C13.0266 18.6342 13.0578 18.478 13.1203 18.348C13.1783 18.224 13.2664 18.1166 13.3766 18.0355C13.4841 17.9567 13.6091 17.8942 13.7516 17.848C13.8928 17.8017 14.0391 17.7667 14.1891 17.7417C14.5035 17.6832 14.8205 17.6394 15.1391 17.6105C15.4553 17.5817 15.7228 17.4955 15.9391 17.3542V18.4167ZM24.5891 14.9617C24.3391 14.6492 24.0241 14.403 23.6453 14.2242C23.2269 14.0371 22.7722 13.9453 22.3141 13.9555C21.8978 13.9555 21.5091 14.0367 21.1516 14.1992C20.7928 14.3617 20.5141 14.6305 20.3141 15.0055H20.2891V14.1305H18.9391V22.9805H20.3641V19.7555H20.3891C20.4966 19.9305 20.6328 20.083 20.7953 20.2117C20.9578 20.3417 21.1341 20.448 21.3266 20.5305C21.5178 20.613 21.7178 20.6742 21.9266 20.7117C22.1341 20.7492 22.3428 20.768 22.5516 20.768C23.0266 20.768 23.4391 20.6742 23.7891 20.4867C24.1391 20.2992 24.4291 20.0492 24.6578 19.7367C24.8866 19.4242 25.0578 19.0642 25.1703 18.6555C25.2831 18.2442 25.3399 17.8195 25.3391 17.393C25.3391 16.918 25.2766 16.473 25.1516 16.0555C25.0266 15.638 24.8391 15.2742 24.5891 14.9617ZM23.8203 18.1992C23.7578 18.4705 23.6528 18.7117 23.5078 18.9242C23.3616 19.1367 23.1766 19.3105 22.9516 19.443C22.7266 19.5755 22.4516 19.643 22.1266 19.643C21.868 19.6486 21.6119 19.5926 21.3793 19.4795C21.1467 19.3665 20.9444 19.1997 20.7891 18.993C20.6241 18.7792 20.5031 18.5349 20.4328 18.2742C20.3511 17.9792 20.3111 17.6741 20.3141 17.368C20.3141 16.6767 20.4666 16.1217 20.7703 15.7055C21.0741 15.2892 21.5266 15.0805 22.1266 15.0805C22.4178 15.0805 22.6766 15.1455 22.9016 15.2742C23.1266 15.4042 23.3141 15.5742 23.4641 15.7867C23.6141 15.9992 23.7266 16.243 23.8016 16.518C23.8766 16.793 23.9141 17.0755 23.9141 17.368C23.9141 17.6505 23.8828 17.928 23.8203 18.1992ZM26.5766 11.668H28.0016V13.018H26.5766V11.668ZM26.5766 14.1305H28.0016V20.593H26.5766V14.1305Z"
                                    fill="#CC1212" />
                                <path d="M3.75 3.75V36.25H36.25V3.75H3.75ZM6.25 6.25H33.75V28.75H6.25V6.25Z"
                                    fill="#CC1212" />
                            </svg>