<svg width="39" height="39" viewBox="0 0 38 35" fill="none" xmlns="http://www.w3.org/2000/svg">
<g clip-path="url(#clip0_3369_11876)">
<path d="M11.861 15.8492C12.0349 15.6753 12.3168 15.6753 12.4907 15.8492C12.6099 15.9725 12.8137 15.9689 12.9335 15.8492C12.929 15.8446 13.3682 15.627 13.5632 15.8491L21.1845 23.4705C21.3584 23.6444 21.3584 23.9263 21.1845 24.1002C21.1259 24.1564 21.0937 24.2411 21.0937 24.3216C21.0937 24.3625 21.1564 24.5711 21.1845 24.543C21.3584 24.7169 21.3584 24.9988 21.1845 25.1727L14.2039 32.1532C14.0319 32.3253 13.7436 32.3286 13.573 32.152C13.3756 31.9568 13.117 32.1389 13.1315 32.1533C12.9576 32.3272 12.6756 32.3272 12.5017 32.1533L4.88044 24.5319C4.70655 24.358 4.70653 24.0761 4.88042 23.9022C5.00267 23.7851 4.99833 23.5774 4.88044 23.4594C4.70657 23.2855 4.70655 23.0036 4.88044 22.8297L11.861 15.8492ZM12.237 16.7326L5.76447 23.2051C5.89344 23.5062 5.89344 23.8554 5.76447 24.1565L12.8772 31.2692C13.1569 31.1494 13.5502 31.1518 13.828 31.2698L20.3005 24.7974C20.2356 24.6459 20.2032 24.4837 20.2032 24.3216C20.2032 24.1595 20.2356 23.9973 20.3005 23.8459L13.1879 16.7332C12.8779 16.866 12.5459 16.8637 12.237 16.7326Z" fill="url(#paint0_linear_3369_11876)"/>
<path d="M11.861 15.8492C12.0349 15.6753 12.3168 15.6753 12.4907 15.8492C12.6099 15.9725 12.8137 15.9689 12.9335 15.8492C12.929 15.8446 13.3682 15.627 13.5632 15.8491L21.1845 23.4705C21.3584 23.6444 21.3584 23.9263 21.1845 24.1002C21.1259 24.1564 21.0937 24.2411 21.0937 24.3216C21.0937 24.3625 21.1564 24.5711 21.1845 24.543C21.3584 24.7169 21.3584 24.9988 21.1845 25.1727L14.2039 32.1532C14.0319 32.3253 13.7436 32.3286 13.573 32.152C13.3756 31.9568 13.117 32.1389 13.1315 32.1533C12.9576 32.3272 12.6756 32.3272 12.5017 32.1533L4.88044 24.5319C4.70655 24.358 4.70653 24.0761 4.88042 23.9022C5.00267 23.7851 4.99833 23.5774 4.88044 23.4594C4.70657 23.2855 4.70655 23.0036 4.88044 22.8297L11.861 15.8492ZM12.237 16.7326L5.76447 23.2051C5.89344 23.5062 5.89344 23.8554 5.76447 24.1565L12.8772 31.2692C13.1569 31.1494 13.5502 31.1518 13.828 31.2698L20.3005 24.7974C20.2356 24.6459 20.2032 24.4837 20.2032 24.3216C20.2032 24.1595 20.2356 23.9973 20.3005 23.8459L13.1879 16.7332C12.8779 16.866 12.5459 16.8637 12.237 16.7326Z" fill="black" fill-opacity="0.2"/>
<path d="M24.1638 4.80212L13.859 15.1069C13.9327 15.2717 13.9696 15.4497 13.9697 15.6279C13.9697 15.8059 13.9341 15.9841 13.8596 16.1493L20.8807 23.1705C21.0459 23.0959 21.2241 23.0586 21.4022 23.0586C21.5803 23.0587 21.7583 23.0973 21.9231 23.1711L32.2274 12.8668C32.1528 12.7016 32.1155 12.5234 32.1155 12.3453C32.1155 12.1673 32.1528 11.9891 32.2274 11.8238L25.2062 4.8027C25.041 4.87723 24.8628 4.91452 24.6847 4.91452C24.5066 4.9145 24.3286 4.87588 24.1638 4.80212ZM12.9724 14.7341L23.7893 3.91722C23.9632 3.74333 24.2468 3.74168 24.4207 3.91557C24.494 3.98894 24.5897 4.02569 24.6847 4.02569C24.7803 4.02569 24.8756 3.98819 24.9477 3.91671C25.1216 3.74282 25.4046 3.74171 25.5785 3.91559L33.1128 11.4499C33.2867 11.6238 33.2884 11.9074 33.1145 12.0813C33.0423 12.1535 33.0061 12.2492 33.0061 12.3453C33.0061 12.4409 33.0419 12.5362 33.1134 12.6083C33.2872 12.7822 33.2884 13.0652 33.1145 13.2391L22.2976 24.0559C22.1237 24.2298 21.8401 24.2315 21.6662 24.0576C21.5929 23.9842 21.4972 23.9475 21.4022 23.9475C21.3066 23.9475 21.2113 23.985 21.1392 24.0564C20.9653 24.2303 20.6823 24.2315 20.5084 24.0576L12.9741 16.5232C12.8002 16.3493 12.7985 16.0658 12.9724 15.8919C13.0446 15.8197 13.0808 15.7239 13.0808 15.6279C13.0808 15.5334 13.0462 15.4381 12.9735 15.3649C12.7996 15.191 12.7986 14.908 12.9724 14.7341ZM11.2438 21.9238C11.07 22.0977 11.07 22.3796 11.2438 22.5535C11.4177 22.7274 11.6996 22.7274 11.8735 22.5535L13.8585 20.5685C14.0324 20.3946 14.0324 20.1127 13.8585 19.9388C13.6846 19.765 13.4027 19.765 13.2288 19.9388L11.2438 21.9238ZM10.5827 25.8177C10.4088 25.9916 10.4088 26.2735 10.5827 26.4474C10.7566 26.6213 11.0385 26.6213 11.2124 26.4474L15.4749 22.1849C15.6487 22.011 15.6487 21.7291 15.4749 21.5552C15.301 21.3813 15.0191 21.3813 14.8452 21.5552L10.5827 25.8177ZM12.199 27.434C12.0251 27.6079 12.0251 27.8898 12.199 28.0637C12.3728 28.2376 12.6548 28.2376 12.8287 28.0637L14.1246 26.7677C14.2985 26.5938 14.2985 26.3119 14.1246 26.138C13.9508 25.9642 13.6688 25.9642 13.495 26.138L12.199 27.434ZM14.8971 24.7359C14.7233 24.9097 14.7233 25.1917 14.8971 25.3655C15.071 25.5394 15.3529 25.5394 15.5268 25.3655L17.0912 23.8012C17.265 23.6273 17.265 23.3454 17.0912 23.1715C16.9173 22.9976 16.6354 22.9976 16.4615 23.1715L14.8971 24.7359ZM8.96634 24.2014C8.79247 24.3752 8.79247 24.6572 8.96634 24.831C9.1402 25.0049 9.42215 25.0049 9.59601 24.831L10.7177 23.7093C10.8916 23.5355 10.8916 23.2535 10.7177 23.0797C10.5439 22.9058 10.2619 22.9058 10.088 23.0797L8.96634 24.2014Z" fill="url(#paint1_linear_3369_11876)"/>
<path d="M24.1638 4.80212L13.859 15.1069C13.9327 15.2717 13.9696 15.4497 13.9697 15.6279C13.9697 15.8059 13.9341 15.9841 13.8596 16.1493L20.8807 23.1705C21.0459 23.0959 21.2241 23.0586 21.4022 23.0586C21.5803 23.0587 21.7583 23.0973 21.9231 23.1711L32.2274 12.8668C32.1528 12.7016 32.1155 12.5234 32.1155 12.3453C32.1155 12.1673 32.1528 11.9891 32.2274 11.8238L25.2062 4.8027C25.041 4.87723 24.8628 4.91452 24.6847 4.91452C24.5066 4.9145 24.3286 4.87588 24.1638 4.80212ZM12.9724 14.7341L23.7893 3.91722C23.9632 3.74333 24.2468 3.74168 24.4207 3.91557C24.494 3.98894 24.5897 4.02569 24.6847 4.02569C24.7803 4.02569 24.8756 3.98819 24.9477 3.91671C25.1216 3.74282 25.4046 3.74171 25.5785 3.91559L33.1128 11.4499C33.2867 11.6238 33.2884 11.9074 33.1145 12.0813C33.0423 12.1535 33.0061 12.2492 33.0061 12.3453C33.0061 12.4409 33.0419 12.5362 33.1134 12.6083C33.2872 12.7822 33.2884 13.0652 33.1145 13.2391L22.2976 24.0559C22.1237 24.2298 21.8401 24.2315 21.6662 24.0576C21.5929 23.9842 21.4972 23.9475 21.4022 23.9475C21.3066 23.9475 21.2113 23.985 21.1392 24.0564C20.9653 24.2303 20.6823 24.2315 20.5084 24.0576L12.9741 16.5232C12.8002 16.3493 12.7985 16.0658 12.9724 15.8919C13.0446 15.8197 13.0808 15.7239 13.0808 15.6279C13.0808 15.5334 13.0462 15.4381 12.9735 15.3649C12.7996 15.191 12.7986 14.908 12.9724 14.7341ZM11.2438 21.9238C11.07 22.0977 11.07 22.3796 11.2438 22.5535C11.4177 22.7274 11.6996 22.7274 11.8735 22.5535L13.8585 20.5685C14.0324 20.3946 14.0324 20.1127 13.8585 19.9388C13.6846 19.765 13.4027 19.765 13.2288 19.9388L11.2438 21.9238ZM10.5827 25.8177C10.4088 25.9916 10.4088 26.2735 10.5827 26.4474C10.7566 26.6213 11.0385 26.6213 11.2124 26.4474L15.4749 22.1849C15.6487 22.011 15.6487 21.7291 15.4749 21.5552C15.301 21.3813 15.0191 21.3813 14.8452 21.5552L10.5827 25.8177ZM12.199 27.434C12.0251 27.6079 12.0251 27.8898 12.199 28.0637C12.3728 28.2376 12.6548 28.2376 12.8287 28.0637L14.1246 26.7677C14.2985 26.5938 14.2985 26.3119 14.1246 26.138C13.9508 25.9642 13.6688 25.9642 13.495 26.138L12.199 27.434ZM14.8971 24.7359C14.7233 24.9097 14.7233 25.1917 14.8971 25.3655C15.071 25.5394 15.3529 25.5394 15.5268 25.3655L17.0912 23.8012C17.265 23.6273 17.265 23.3454 17.0912 23.1715C16.9173 22.9976 16.6354 22.9976 16.4615 23.1715L14.8971 24.7359ZM8.96634 24.2014C8.79247 24.3752 8.79247 24.6572 8.96634 24.831C9.1402 25.0049 9.42215 25.0049 9.59601 24.831L10.7177 23.7093C10.8916 23.5355 10.8916 23.2535 10.7177 23.0797C10.5439 22.9058 10.2619 22.9058 10.088 23.0797L8.96634 24.2014Z" fill="black" fill-opacity="0.2"/>
<path d="M21.4252 11.7408C21.2513 11.9146 21.2513 12.1966 21.4252 12.3704C21.5991 12.5443 21.881 12.5443 22.0549 12.3704L26.3019 8.12335C26.4758 7.94949 26.4758 7.66754 26.3019 7.49368C26.1281 7.31982 25.8461 7.31982 25.6723 7.49368L21.4252 11.7408ZM18.1686 18.23C17.9948 18.4038 17.9948 18.6858 18.1686 18.8596C18.3425 19.0335 18.6244 19.0335 18.7983 18.8596L27.9183 9.73965C28.0922 9.56578 28.0922 9.28384 27.9183 9.10997C27.7444 8.93611 27.4625 8.93611 27.2886 9.10997L18.1686 18.23ZM19.785 19.8463C19.6111 20.0202 19.6111 20.3021 19.785 20.476C19.9588 20.6499 20.2408 20.6499 20.4146 20.476L23.1875 17.7031C23.3614 17.5293 23.3614 17.2473 23.1875 17.0735C23.0136 16.8996 22.7317 16.8996 22.5578 17.0735L19.785 19.8463ZM25.5578 14.0735C25.384 14.2473 25.384 14.5293 25.5578 14.7031C25.7317 14.877 26.0136 14.877 26.1875 14.7031L29.5346 11.356C29.7085 11.1822 29.7085 10.9002 29.5346 10.7264C29.3608 10.5525 29.0788 10.5525 28.9049 10.7264L25.5578 14.0735ZM16.5523 16.6136C16.3784 16.7875 16.3784 17.0694 16.5523 17.2433C16.7261 17.4172 17.0081 17.4172 17.1819 17.2433L19.582 14.8433C19.7558 14.6694 19.7558 14.3875 19.582 14.2136C19.4081 14.0397 19.1261 14.0397 18.9523 14.2136L16.5523 16.6136Z" fill="url(#paint2_linear_3369_11876)"/>
<path d="M21.4252 11.7408C21.2513 11.9146 21.2513 12.1966 21.4252 12.3704C21.5991 12.5443 21.881 12.5443 22.0549 12.3704L26.3019 8.12335C26.4758 7.94949 26.4758 7.66754 26.3019 7.49368C26.1281 7.31982 25.8461 7.31982 25.6723 7.49368L21.4252 11.7408ZM18.1686 18.23C17.9948 18.4038 17.9948 18.6858 18.1686 18.8596C18.3425 19.0335 18.6244 19.0335 18.7983 18.8596L27.9183 9.73965C28.0922 9.56578 28.0922 9.28384 27.9183 9.10997C27.7444 8.93611 27.4625 8.93611 27.2886 9.10997L18.1686 18.23ZM19.785 19.8463C19.6111 20.0202 19.6111 20.3021 19.785 20.476C19.9588 20.6499 20.2408 20.6499 20.4146 20.476L23.1875 17.7031C23.3614 17.5293 23.3614 17.2473 23.1875 17.0735C23.0136 16.8996 22.7317 16.8996 22.5578 17.0735L19.785 19.8463ZM25.5578 14.0735C25.384 14.2473 25.384 14.5293 25.5578 14.7031C25.7317 14.877 26.0136 14.877 26.1875 14.7031L29.5346 11.356C29.7085 11.1822 29.7085 10.9002 29.5346 10.7264C29.3608 10.5525 29.0788 10.5525 28.9049 10.7264L25.5578 14.0735ZM16.5523 16.6136C16.3784 16.7875 16.3784 17.0694 16.5523 17.2433C16.7261 17.4172 17.0081 17.4172 17.1819 17.2433L19.582 14.8433C19.7558 14.6694 19.7558 14.3875 19.582 14.2136C19.4081 14.0397 19.1261 14.0397 18.9523 14.2136L16.5523 16.6136Z" fill="black" fill-opacity="0.2"/>
</g>
<defs>
<linearGradient id="paint0_linear_3369_11876" x1="13.0325" y1="15.7187" x2="13.0325" y2="32.2837" gradientUnits="userSpaceOnUse">
<stop stop-color="#FF0F0F"/>
<stop offset="1" stop-color="#FF4849"/>
</linearGradient>
<linearGradient id="paint1_linear_3369_11876" x1="21.0404" y1="3.78516" x2="21.0404" y2="28.1941" gradientUnits="userSpaceOnUse">
<stop stop-color="#FF0F0F"/>
<stop offset="1" stop-color="#FF4849"/>
</linearGradient>
<linearGradient id="paint2_linear_3369_11876" x1="23.0434" y1="7.36328" x2="23.0434" y2="20.6064" gradientUnits="userSpaceOnUse">
<stop stop-color="#FF0F0F"/>
<stop offset="1" stop-color="#FF4849"/>
</linearGradient>
<clipPath id="clip0_3369_11876">
<rect width="38" height="38" fill="white" transform="translate(0 -0.964844)"/>
</clipPath>
</defs>
</svg>