<svg width="38" height="38" viewBox="0 0 32 32" fill="none" xmlns="http://www.w3.org/2000/svg">
<path d="M28.3737 7.68711L21.0587 1.4646C20.6484 1.11366 20.1307 0.913017 19.5911 0.895747C19.0514 0.878478 18.5219 1.04561 18.09 1.36961L14.9194 3.7446L12.9244 1.7496C12.4794 1.30726 11.8774 1.05897 11.25 1.05897C10.6226 1.05897 10.0206 1.30726 9.57562 1.7496L3.63812 7.74648C2.79011 7.86345 2.01258 8.28186 1.44779 8.92515C0.883004 9.56844 0.568738 10.3936 0.5625 11.2496V27.8746C0.5625 28.8194 0.937834 29.7256 1.60593 30.3937C2.27403 31.0618 3.18017 31.4371 4.125 31.4371H27.875C28.8198 31.4371 29.726 31.0618 30.3941 30.3937C31.0622 29.7256 31.4375 28.8194 31.4375 27.8746V11.2496C31.446 10.3852 31.1399 9.5471 30.5762 8.89165C30.0125 8.23621 29.2297 7.80809 28.3737 7.68711ZM29.0625 21.9371H26.6875C26.0576 21.9371 25.4535 21.6869 25.0081 21.2415C24.5627 20.7961 24.3125 20.192 24.3125 19.5621C24.3125 18.9322 24.5627 18.3281 25.0081 17.8827C25.4535 17.4373 26.0576 17.1871 26.6875 17.1871H29.0625V21.9371ZM19.5625 3.26961L24.6687 7.68711H18.8619L16.6175 5.44273L19.5625 3.26961ZM11.25 3.42398L15.5131 7.68711H6.98687L11.25 3.42398ZM27.875 29.0621H4.125C3.81006 29.0621 3.50801 28.937 3.28531 28.7143C3.06261 28.4916 2.9375 28.1896 2.9375 27.8746V11.2496C2.9375 10.9347 3.06261 10.6326 3.28531 10.4099C3.50801 10.1872 3.81006 10.0621 4.125 10.0621H27.875C28.1899 10.0621 28.492 10.1872 28.7147 10.4099C28.9374 10.6326 29.0625 10.9347 29.0625 11.2496V14.8121H26.6875C25.4277 14.8121 24.2195 15.3126 23.3287 16.2033C22.4379 17.0941 21.9375 18.3023 21.9375 19.5621C21.9375 20.8219 22.4379 22.0301 23.3287 22.9209C24.2195 23.8117 25.4277 24.3121 26.6875 24.3121H29.0625V27.8746C29.0625 28.1896 28.9374 28.4916 28.7147 28.7143C28.492 28.937 28.1899 29.0621 27.875 29.0621Z" fill="url(#paint0_linear_3820_20737)"/>
<path d="M28.3737 7.68711L21.0587 1.4646C20.6484 1.11366 20.1307 0.913017 19.5911 0.895747C19.0514 0.878478 18.5219 1.04561 18.09 1.36961L14.9194 3.7446L12.9244 1.7496C12.4794 1.30726 11.8774 1.05897 11.25 1.05897C10.6226 1.05897 10.0206 1.30726 9.57562 1.7496L3.63812 7.74648C2.79011 7.86345 2.01258 8.28186 1.44779 8.92515C0.883004 9.56844 0.568738 10.3936 0.5625 11.2496V27.8746C0.5625 28.8194 0.937834 29.7256 1.60593 30.3937C2.27403 31.0618 3.18017 31.4371 4.125 31.4371H27.875C28.8198 31.4371 29.726 31.0618 30.3941 30.3937C31.0622 29.7256 31.4375 28.8194 31.4375 27.8746V11.2496C31.446 10.3852 31.1399 9.5471 30.5762 8.89165C30.0125 8.23621 29.2297 7.80809 28.3737 7.68711ZM29.0625 21.9371H26.6875C26.0576 21.9371 25.4535 21.6869 25.0081 21.2415C24.5627 20.7961 24.3125 20.192 24.3125 19.5621C24.3125 18.9322 24.5627 18.3281 25.0081 17.8827C25.4535 17.4373 26.0576 17.1871 26.6875 17.1871H29.0625V21.9371ZM19.5625 3.26961L24.6687 7.68711H18.8619L16.6175 5.44273L19.5625 3.26961ZM11.25 3.42398L15.5131 7.68711H6.98687L11.25 3.42398ZM27.875 29.0621H4.125C3.81006 29.0621 3.50801 28.937 3.28531 28.7143C3.06261 28.4916 2.9375 28.1896 2.9375 27.8746V11.2496C2.9375 10.9347 3.06261 10.6326 3.28531 10.4099C3.50801 10.1872 3.81006 10.0621 4.125 10.0621H27.875C28.1899 10.0621 28.492 10.1872 28.7147 10.4099C28.9374 10.6326 29.0625 10.9347 29.0625 11.2496V14.8121H26.6875C25.4277 14.8121 24.2195 15.3126 23.3287 16.2033C22.4379 17.0941 21.9375 18.3023 21.9375 19.5621C21.9375 20.8219 22.4379 22.0301 23.3287 22.9209C24.2195 23.8117 25.4277 24.3121 26.6875 24.3121H29.0625V27.8746C29.0625 28.1896 28.9374 28.4916 28.7147 28.7143C28.492 28.937 28.1899 29.0621 27.875 29.0621Z" fill="black" fill-opacity="0.2"/>
<path d="M25.8444 18.7185C25.6274 18.946 25.5044 19.2472 25.5 19.5616C25.5 19.8765 25.6251 20.1786 25.8478 20.4013C26.0705 20.624 26.3726 20.7491 26.6875 20.7491C27.0024 20.7491 27.3045 20.624 27.5272 20.4013C27.7499 20.1786 27.875 19.8765 27.875 19.5616C27.8764 19.3257 27.8075 19.0948 27.6771 18.8982C27.5467 18.7017 27.3607 18.5484 27.1429 18.458C26.925 18.3675 26.6852 18.344 26.4539 18.3904C26.2227 18.4368 26.0105 18.551 25.8444 18.7185Z" fill="url(#paint1_linear_3820_20737)"/>
<path d="M25.8444 18.7185C25.6274 18.946 25.5044 19.2472 25.5 19.5616C25.5 19.8765 25.6251 20.1786 25.8478 20.4013C26.0705 20.624 26.3726 20.7491 26.6875 20.7491C27.0024 20.7491 27.3045 20.624 27.5272 20.4013C27.7499 20.1786 27.875 19.8765 27.875 19.5616C27.8764 19.3257 27.8075 19.0948 27.6771 18.8982C27.5467 18.7017 27.3607 18.5484 27.1429 18.458C26.925 18.3675 26.6852 18.344 26.4539 18.3904C26.2227 18.4368 26.0105 18.551 25.8444 18.7185Z" fill="black" fill-opacity="0.2"/>
<defs>
<linearGradient id="paint0_linear_3820_20737" x1="16.0001" y1="0.894531" x2="16.0001" y2="31.4371" gradientUnits="userSpaceOnUse">
<stop stop-color="#FF0F0F"/>
<stop offset="1" stop-color="#FF4849"/>
</linearGradient>
<linearGradient id="paint1_linear_3820_20737" x1="26.6875" y1="18.3672" x2="26.6875" y2="20.7491" gradientUnits="userSpaceOnUse">
<stop stop-color="#FF0F0F"/>
<stop offset="1" stop-color="#FF4849"/>
</linearGradient>
</defs>
</svg>