   <svg width="38" height="38" viewBox="0 0 30 30" fill="none"
                                xmlns="http://www.w3.org/2000/svg">
                                <path
                                    d="M28.7735 24.9754V9.30036C28.7735 7.99072 27.7081 6.92536 26.3985 6.92536H23.8487C23.7277 6.25271 23.5447 5.59113 23.2968 4.94692L22.4689 2.79417L22.0253 2.96466C21.7488 3.07132 21.4619 3.12539 21.1735 3.12539C19.8638 3.12539 18.7985 2.06003 18.7985 0.750391V0.275391H11.1985V0.750391C11.1985 2.06003 10.1331 3.12539 8.82349 3.12539C8.5351 3.12539 8.24817 3.07132 7.97185 2.96529L7.52823 2.7948L6.70038 4.94756C6.45249 5.59155 6.27012 6.2534 6.1484 6.926L3.59844 6.92579C2.2888 6.92579 1.22344 7.99114 1.22344 9.30079V24.9758H0.273438V27.3508C0.273438 28.6604 1.33879 29.7258 2.64844 29.7258H27.3484C28.6581 29.7258 29.7234 28.6604 29.7234 27.3508V24.9758H28.7734L28.7735 24.9754ZM26.3985 7.87536C27.1842 7.87536 27.8235 8.51469 27.8235 9.30036V24.9754H26.8735V9.77536C26.8735 9.25138 26.4475 8.82536 25.9235 8.82536H24.0216C24.0207 8.50707 24.0069 8.19028 23.9783 7.87536H26.3985ZM21.1735 4.07536C21.4214 4.07536 21.6684 4.04695 21.9112 3.99139L22.41 5.28811C22.8502 6.43278 23.0735 7.63553 23.0735 8.8625C23.0735 12.4763 21.1114 15.8111 17.9526 17.5667L15.4735 18.9431V15.0006H19.7485V13.5836C19.7485 12.5286 19.0402 11.5895 18.0258 11.2998L16.4235 10.8424V10.716C17.0153 10.2701 17.3735 9.56838 17.3735 8.82603V7.97483C17.3735 6.79346 16.556 5.78896 15.4735 5.56036V1.22554H17.8822C18.1136 2.83484 19.501 4.07554 21.1735 4.07554L21.1735 4.07536ZM14.2873 10.0511C13.8403 9.79094 13.5734 9.3325 13.5734 8.82526V7.87526C13.5734 7.47723 13.7415 7.09381 14.0361 6.82456C14.3334 6.55186 14.7233 6.42123 15.1277 6.456C15.8542 6.5192 16.4233 7.18566 16.4233 7.9741V8.8253C16.4233 9.33254 16.1564 9.79099 15.7094 10.0512L15.4734 10.1886V11.5584L17.7648 12.2131C18.3732 12.3874 18.7984 12.9506 18.7984 13.5833V14.0503H11.1984V13.5833C11.1984 12.9502 11.6235 12.3867 12.2319 12.2131L14.5234 11.5584V10.1886L14.2873 10.0511ZM7.58685 5.288L8.0856 3.99128C8.32841 4.04683 8.57544 4.07525 8.82335 4.07525C10.4958 4.07525 11.8833 2.83455 12.1146 1.22525H14.5233V5.5611C14.1054 5.64698 13.712 5.83274 13.3937 6.12454C12.9041 6.57324 12.6233 7.21171 12.6233 7.87525V8.82525C12.6233 9.56766 12.9815 10.2697 13.5733 10.7153V10.8416L11.971 11.2995C10.9566 11.5893 10.2483 12.5283 10.2483 13.5833V15.0002H14.5233V18.9427L12.0442 17.5657C8.88545 15.8112 6.92335 12.4762 6.92335 8.86258C6.92335 7.63562 7.14664 6.43286 7.58688 5.28819L7.58685 5.288ZM11.5836 18.3958L14.9983 20.2935L18.413 18.3958C21.6055 16.6226 23.6781 13.3755 23.9805 9.77526H25.9234V24.9753H18.6019L18.4628 25.1144C17.9396 25.6375 17.2447 25.9253 16.5051 25.9253H13.4916C12.7519 25.9253 12.0566 25.6375 11.5341 25.1144L11.395 24.9753H4.07348V9.77526H6.01631C6.3187 13.3757 8.39131 16.6229 11.5839 18.3958H11.5836ZM2.17321 9.30026C2.17321 8.51458 2.81253 7.87526 3.59821 7.87526H6.01838C5.98996 8.19016 5.97618 8.50698 5.97512 8.82526H4.07322C3.54923 8.82526 3.12322 9.25127 3.12322 9.77526V24.9753H2.17322L2.17321 9.30026ZM28.7732 27.3503C28.7732 28.1359 28.1339 28.7753 27.3482 28.7753H2.64821C1.86253 28.7753 1.22321 28.1359 1.22321 27.3503V25.9253H11.0093C11.6923 26.5393 12.5658 26.8753 13.492 26.8753H16.5055C17.4314 26.8753 18.3052 26.5394 18.9882 25.9253H28.7732V27.3503Z"
                                    fill="url(#paint0_linear_5422_29179)" />
                                <path d="M3.125 26.875H4.075V27.825H3.125V26.875Z"
                                    fill="url(#paint1_linear_5422_29179)" />
                                <path d="M5.02344 26.875H5.97344V27.825H5.02344V26.875Z"
                                    fill="url(#paint2_linear_5422_29179)" />
                                <path d="M6.92188 26.875H7.87188V27.825H6.92188V26.875Z"
                                    fill="url(#paint3_linear_5422_29179)" />
                                <path d="M23.0703 26.875H26.8703V27.825H23.0703V26.875Z"
                                    fill="url(#paint4_linear_5422_29179)" />
                                <path d="M5.02344 23.0762H11.6734V24.0262H5.02344V23.0762Z"
                                    fill="url(#paint5_linear_5422_29179)" />
                                <path d="M5.02344 21.1758H11.6734V22.1258H5.02344V21.1758Z"
                                    fill="url(#paint6_linear_5422_29179)" />
                                <path d="M5.02344 19.2754H11.6734V20.2254H5.02344V19.2754Z"
                                    fill="url(#paint7_linear_5422_29179)" />
                                <path d="M18.3203 23.0762H24.9703V24.0262H18.3203V23.0762Z"
                                    fill="url(#paint8_linear_5422_29179)" />
                                <path d="M18.3203 21.1758H24.9703V22.1258H18.3203V21.1758Z"
                                    fill="url(#paint9_linear_5422_29179)" />
                                <path d="M18.3203 19.2754H24.9703V20.2254H18.3203V19.2754Z"
                                    fill="url(#paint10_linear_5422_29179)" />
                                <defs>
                                    <linearGradient id="paint0_linear_5422_29179" x1="23.2182" y1="0.275391"
                                        x2="23.0833" y2="36.0368" gradientUnits="userSpaceOnUse">
                                        <stop stop-color="#005CAA" />
                                        <stop offset="1" stop-color="#64B0F1" />
                                    </linearGradient>
                                    <linearGradient id="paint1_linear_5422_29179" x1="3.86515" y1="26.875" x2="3.8608"
                                        y2="28.0286" gradientUnits="userSpaceOnUse">
                                        <stop stop-color="#005CAA" />
                                        <stop offset="1" stop-color="#64B0F1" />
                                    </linearGradient>
                                    <linearGradient id="paint2_linear_5422_29179" x1="5.76359" y1="26.875" x2="5.75924"
                                        y2="28.0286" gradientUnits="userSpaceOnUse">
                                        <stop stop-color="#005CAA" />
                                        <stop offset="1" stop-color="#64B0F1" />
                                    </linearGradient>
                                    <linearGradient id="paint3_linear_5422_29179" x1="7.66203" y1="26.875" x2="7.65768"
                                        y2="28.0286" gradientUnits="userSpaceOnUse">
                                        <stop stop-color="#005CAA" />
                                        <stop offset="1" stop-color="#64B0F1" />
                                    </linearGradient>
                                    <linearGradient id="paint4_linear_5422_29179" x1="26.0309" y1="26.875" x2="26.0298"
                                        y2="28.0286" gradientUnits="userSpaceOnUse">
                                        <stop stop-color="#005CAA" />
                                        <stop offset="1" stop-color="#64B0F1" />
                                    </linearGradient>
                                    <linearGradient id="paint5_linear_5422_29179" x1="10.2045" y1="23.0762" x2="10.2039"
                                        y2="24.2298" gradientUnits="userSpaceOnUse">
                                        <stop stop-color="#005CAA" />
                                        <stop offset="1" stop-color="#64B0F1" />
                                    </linearGradient>
                                    <linearGradient id="paint6_linear_5422_29179" x1="10.2045" y1="21.1758" x2="10.2039"
                                        y2="22.3294" gradientUnits="userSpaceOnUse">
                                        <stop stop-color="#005CAA" />
                                        <stop offset="1" stop-color="#64B0F1" />
                                    </linearGradient>
                                    <linearGradient id="paint7_linear_5422_29179" x1="10.2045" y1="19.2754" x2="10.2039"
                                        y2="20.429" gradientUnits="userSpaceOnUse">
                                        <stop stop-color="#005CAA" />
                                        <stop offset="1" stop-color="#64B0F1" />
                                    </linearGradient>
                                    <linearGradient id="paint8_linear_5422_29179" x1="23.5014" y1="23.0762" x2="23.5008"
                                        y2="24.2298" gradientUnits="userSpaceOnUse">
                                        <stop stop-color="#005CAA" />
                                        <stop offset="1" stop-color="#64B0F1" />
                                    </linearGradient>
                                    <linearGradient id="paint9_linear_5422_29179" x1="23.5014" y1="21.1758" x2="23.5008"
                                        y2="22.3294" gradientUnits="userSpaceOnUse">
                                        <stop stop-color="#005CAA" />
                                        <stop offset="1" stop-color="#64B0F1" />
                                    </linearGradient>
                                    <linearGradient id="paint10_linear_5422_29179" x1="23.5014" y1="19.2754"
                                        x2="23.5008" y2="20.429" gradientUnits="userSpaceOnUse">
                                        <stop stop-color="#005CAA" />
                                        <stop offset="1" stop-color="#64B0F1" />
                                    </linearGradient>
                                </defs>
                            </svg>