<svg width="38" height="38" viewBox="0 0 33 28" fill="none" xmlns="http://www.w3.org/2000/svg">
<path d="M31.4844 21.5137H30.7058C30.8862 21.2112 30.9824 20.8659 30.9844 20.5137V2.51367C30.9844 1.98332 30.7737 1.47459 30.3987 1.09939C30.0235 0.724386 29.5148 0.513672 28.9844 0.513672H4.98441C4.45405 0.513672 3.94532 0.724386 3.57012 1.09939C3.19512 1.47461 2.98441 1.98333 2.98441 2.51367V20.5137C2.98441 20.7898 3.20829 21.0137 3.48441 21.0137C3.76052 21.0137 3.98441 20.7898 3.98441 20.5137V2.51367C3.98441 2.24849 4.08977 1.99403 4.27727 1.80653C4.46476 1.61903 4.71923 1.51367 4.98441 1.51367H28.9844C29.2496 1.51367 29.5041 1.61903 29.6916 1.80653C29.879 1.99403 29.9844 2.24849 29.9844 2.51367V20.5137C29.9844 20.7789 29.879 21.0333 29.6916 21.2208C29.5041 21.4083 29.2496 21.5137 28.9844 21.5137H20.4844C20.3518 21.5137 20.2246 21.5664 20.1308 21.6601L19.2775 22.5137H14.6913L13.8377 21.6601H13.8379C13.7442 21.5664 13.6169 21.5137 13.4843 21.5137H2.48435C2.08658 21.5137 1.70486 21.6717 1.42366 21.953C1.14246 22.2342 0.984375 22.6159 0.984375 23.0136V24.5136C0.984375 26.3922 2.29283 27.5136 4.48438 27.5136H29.4844C31.6759 27.5136 32.9844 26.3922 32.9844 24.5136V23.0136C32.9844 22.6159 32.8263 22.2342 32.5451 21.953C32.2638 21.6718 31.8821 21.5137 31.4844 21.5137ZM31.9844 24.5137C31.9844 26.1666 30.6248 26.5137 29.4844 26.5137H4.48441C3.34401 26.5137 1.98441 26.1666 1.98441 24.5137V23.0137C1.98441 22.7376 2.20829 22.5137 2.48441 22.5137H13.2776L14.1312 23.3673H14.1309C14.2247 23.461 14.3519 23.5137 14.4845 23.5137H19.4845C19.6171 23.5137 19.7443 23.461 19.8381 23.3673L20.6914 22.5137H31.4846C31.6172 22.5137 31.7444 22.5664 31.8382 22.6601C31.9319 22.7539 31.9846 22.8811 31.9846 23.0137L31.9844 24.5137Z" fill="url(#paint0_linear_4087_26878)"/>
<path d="M28.4844 3.51367H5.48438C5.20826 3.51367 4.98438 3.73756 4.98438 4.01367V19.0137C4.98438 19.1463 5.03705 19.2735 5.1308 19.3672C5.22455 19.461 5.35179 19.5137 5.48438 19.5137H28.4844C28.617 19.5137 28.7442 19.461 28.8379 19.3672C28.9317 19.2735 28.9844 19.1463 28.9844 19.0137V4.01367C28.9844 3.88108 28.9317 3.75385 28.8379 3.6601C28.7442 3.56635 28.617 3.51367 28.4844 3.51367ZM5.98438 4.51367H9.98438V18.5137H5.98438V4.51367ZM27.9844 18.5137H10.9844V4.51367H27.9844V18.5137Z" fill="url(#paint1_linear_4087_26878)"/>
<path d="M8.48438 7.01367H7.48438C7.20826 7.01367 6.98438 6.78979 6.98438 6.51367C6.98438 6.23756 7.20826 6.01367 7.48438 6.01367H8.48438C8.76049 6.01367 8.98438 6.23756 8.98438 6.51367C8.98438 6.78979 8.76049 7.01367 8.48438 7.01367Z" fill="url(#paint2_linear_4087_26878)"/>
<path d="M8.48438 9.51367H7.48438C7.20826 9.51367 6.98438 9.28979 6.98438 9.01367C6.98438 8.73756 7.20826 8.51367 7.48438 8.51367H8.48438C8.76049 8.51367 8.98438 8.73756 8.98438 9.01367C8.98438 9.28979 8.76049 9.51367 8.48438 9.51367Z" fill="url(#paint3_linear_4087_26878)"/>
<path d="M8.48438 12.0137H7.48438C7.20826 12.0137 6.98438 11.7898 6.98438 11.5137C6.98438 11.2376 7.20826 11.0137 7.48438 11.0137H8.48438C8.76049 11.0137 8.98438 11.2376 8.98438 11.5137C8.98438 11.7898 8.76049 12.0137 8.48438 12.0137Z" fill="url(#paint4_linear_4087_26878)"/>
<path d="M8.48438 14.5137H7.48438C7.20826 14.5137 6.98438 14.2898 6.98438 14.0137C6.98438 13.7376 7.20826 13.5137 7.48438 13.5137H8.48438C8.76049 13.5137 8.98438 13.7376 8.98438 14.0137C8.98438 14.2898 8.76049 14.5137 8.48438 14.5137Z" fill="url(#paint5_linear_4087_26878)"/>
<path d="M8.48438 17.0137H7.48438C7.20826 17.0137 6.98438 16.7898 6.98438 16.5137C6.98438 16.2376 7.20826 16.0137 7.48438 16.0137H8.48438C8.76049 16.0137 8.98438 16.2376 8.98438 16.5137C8.98438 16.7898 8.76049 17.0137 8.48438 17.0137Z" fill="url(#paint6_linear_4087_26878)"/>
<path d="M12.9844 14.0136C12.7083 14.0136 12.4844 13.7898 12.4844 13.5136V7.51364C12.4844 7.11588 12.6424 6.73416 12.9237 6.45296C13.2049 6.17176 13.5866 6.01367 13.9843 6.01367H24.9843C25.3821 6.01367 25.7638 6.17171 26.045 6.45296C26.3262 6.73421 26.4843 7.11593 26.4843 7.51364V8.51364C26.4843 8.78976 26.2604 9.01364 25.9843 9.01364C25.7082 9.01364 25.4843 8.78976 25.4843 8.51364V7.51364C25.4843 7.38105 25.4316 7.25382 25.3379 7.16007C25.2441 7.06632 25.1169 7.01364 24.9843 7.01364H13.9843C13.7082 7.01364 13.4843 7.23753 13.4843 7.51364V13.5136C13.4843 13.6462 13.4316 13.7735 13.3379 13.8672C13.2441 13.961 13.1169 14.0136 12.9843 14.0136H12.9844Z" fill="url(#paint7_linear_4087_26878)"/>
<path d="M26.1759 9.55177C25.989 9.47431 25.7738 9.51717 25.6308 9.66025L22.9009 12.3901L19.7344 10.5798C19.5649 10.483 19.3547 10.4935 19.196 10.6069L15.7275 13.0843L12.7609 14.5638C12.5906 14.6488 12.4833 14.8234 12.4844 15.0138V15.5138C12.4844 15.9115 12.6424 16.2933 12.9237 16.5745C13.2049 16.8557 13.5866 17.0137 13.9844 17.0137H24.9844C25.3821 17.0137 25.7638 16.8557 26.045 16.5745C26.3262 16.2932 26.4843 15.9115 26.4843 15.5138V10.0138C26.4843 9.81154 26.3627 9.62922 26.1759 9.55177ZM25.4843 15.5141C25.4843 15.6466 25.4316 15.7739 25.3379 15.8676C25.2441 15.9614 25.1169 16.0141 24.9843 16.0141H13.9843C13.7082 16.0141 13.4843 15.7902 13.4843 15.5141V15.323L15.4843 14.323V15.0141C15.4843 15.2902 15.7082 15.5141 15.9843 15.5141C16.2604 15.5141 16.4843 15.2902 16.4843 15.0141V13.7717L18.9843 11.9857V15.0141C18.9843 15.2902 19.2082 15.5141 19.4843 15.5141C19.7604 15.5141 19.9843 15.2902 19.9843 15.0141V11.8761L22.4843 13.304V15.0141C22.4843 15.2902 22.7082 15.5141 22.9843 15.5141C23.2604 15.5141 23.4843 15.2902 23.4843 15.0141V13.221L25.4843 11.221V15.5141Z" fill="url(#paint8_linear_4087_26878)"/>
<defs>
<linearGradient id="paint0_linear_4087_26878" x1="25.9159" y1="0.513672" x2="25.8115" y2="33.2997" gradientUnits="userSpaceOnUse">
<stop stop-color="#005CAA"/>
<stop offset="1" stop-color="#64B0F1"/>
</linearGradient>
<linearGradient id="paint1_linear_4087_26878" x1="23.683" y1="3.51367" x2="23.6341" y2="22.9425" gradientUnits="userSpaceOnUse">
<stop stop-color="#005CAA"/>
<stop offset="1" stop-color="#64B0F1"/>
</linearGradient>
<linearGradient id="paint2_linear_4087_26878" x1="8.54259" y1="6.01367" x2="8.5403" y2="7.22798" gradientUnits="userSpaceOnUse">
<stop stop-color="#005CAA"/>
<stop offset="1" stop-color="#64B0F1"/>
</linearGradient>
<linearGradient id="paint3_linear_4087_26878" x1="8.54259" y1="8.51367" x2="8.5403" y2="9.72798" gradientUnits="userSpaceOnUse">
<stop stop-color="#005CAA"/>
<stop offset="1" stop-color="#64B0F1"/>
</linearGradient>
<linearGradient id="paint4_linear_4087_26878" x1="8.54259" y1="11.0137" x2="8.5403" y2="12.228" gradientUnits="userSpaceOnUse">
<stop stop-color="#005CAA"/>
<stop offset="1" stop-color="#64B0F1"/>
</linearGradient>
<linearGradient id="paint5_linear_4087_26878" x1="8.54259" y1="13.5137" x2="8.5403" y2="14.728" gradientUnits="userSpaceOnUse">
<stop stop-color="#005CAA"/>
<stop offset="1" stop-color="#64B0F1"/>
</linearGradient>
<linearGradient id="paint6_linear_4087_26878" x1="8.54259" y1="16.0137" x2="8.5403" y2="17.228" gradientUnits="userSpaceOnUse">
<stop stop-color="#005CAA"/>
<stop offset="1" stop-color="#64B0F1"/>
</linearGradient>
<linearGradient id="paint7_linear_4087_26878" x1="23.3919" y1="6.01367" x2="23.3709" y2="15.7281" gradientUnits="userSpaceOnUse">
<stop stop-color="#005CAA"/>
<stop offset="1" stop-color="#64B0F1"/>
</linearGradient>
<linearGradient id="paint8_linear_4087_26878" x1="23.3919" y1="9.51367" x2="23.3735" y2="18.6211" gradientUnits="userSpaceOnUse">
<stop stop-color="#005CAA"/>
<stop offset="1" stop-color="#64B0F1"/>
</linearGradient>
</defs>
</svg>