<svg width="38" height="38" viewBox="0 0 30 24" fill="none" xmlns="http://www.w3.org/2000/svg">
<path d="M29.1244 15.4645C29.1244 15.4165 29.1148 15.3685 29.0988 15.327V2.01154C29.0988 0.981202 28.2604 0.142801 27.23 0.142801L2.74374 0.142578C1.7134 0.142578 0.875 0.980978 0.875 2.01132V18.0565C0.875 19.0868 1.7134 19.9252 2.74374 19.9252H11.0415L10.0656 23.0964H8.07831C7.87675 23.0964 7.71023 23.2596 7.71023 23.4645C7.71023 23.6694 7.87341 23.8326 8.07831 23.8326H21.9149C22.1164 23.8326 22.283 23.6694 22.283 23.4645C22.283 23.2596 22.1198 23.0964 21.9149 23.0964H19.9276L18.9517 19.9252H27.2237C28.2541 19.9252 29.0925 19.0868 29.0925 18.0565V15.602C29.1086 15.5605 29.1182 15.5125 29.1182 15.4645L29.1244 15.4645ZM2.74387 0.87247H27.2273C27.8546 0.87247 28.3632 1.38117 28.3632 2.00841V15.0964H1.60838V2.01184C1.60838 1.38458 2.11709 0.875899 2.74433 0.875899L2.74387 0.87247ZM19.1633 23.0965H10.8336L11.8095 19.9253H18.1872L19.1631 23.0965H19.1633ZM27.2273 19.1893L2.74387 19.1891C2.11661 19.1891 1.60793 18.6804 1.60793 18.0532V15.829L28.3662 15.8293V18.0534C28.3662 18.6806 27.8575 19.1893 27.2303 19.1893H27.2273Z" fill="url(#paint0_linear_4497_31552)"/>
<path d="M7.34908 10.0732C9.53143 10.0732 11.3075 8.29728 11.3075 6.11471C11.3075 3.93236 9.53165 2.15625 7.34908 2.15625C5.16674 2.15625 3.39062 3.93214 3.39062 6.11471C3.39062 8.29705 5.16651 10.0732 7.34908 10.0732ZM10.5714 6.11471C10.5714 7.89059 9.12503 9.33705 7.34908 9.33705C6.59394 9.33705 5.89617 9.07455 5.34594 8.63614L7.60845 6.37362C7.67877 6.30643 7.71716 6.21045 7.71716 6.11447V2.91132C9.32361 3.09369 10.5748 4.46018 10.5748 6.11447L10.5714 6.11471ZM6.98103 2.91156V5.96111L4.82434 8.11779C4.38594 7.56735 4.12342 6.86979 4.12342 6.11465C4.12342 4.46019 5.37457 3.09396 6.98103 2.91156Z" fill="url(#paint1_linear_4497_31552)"/>
<path d="M3.75871 13.7147H11.6821C11.8837 13.7147 12.0502 13.5515 12.0502 13.3466C12.0502 13.1417 11.887 12.9785 11.6821 12.9785L3.75871 12.9787C3.55715 12.9787 3.39062 13.1419 3.39062 13.3468C3.39062 13.5517 3.5538 13.7149 3.75871 13.7149V13.7147Z" fill="url(#paint2_linear_4497_31552)"/>
<path d="M15.6594 7.38188H17.1154C17.1346 7.38188 17.1506 7.38501 17.1698 7.38501H18.8082C18.8274 7.38501 18.8466 7.38501 18.8627 7.38188H20.2834C20.3026 7.38188 20.3187 7.38501 20.3379 7.38501H21.9763C21.9955 7.38501 22.0147 7.38501 22.0308 7.38188H23.4515C23.4707 7.38188 23.4868 7.38501 23.506 7.38501H25.1444C25.1636 7.38501 25.1828 7.38501 25.1988 7.38188H25.6852C25.8868 7.38188 26.0533 7.21871 26.0533 7.0138C26.0533 6.80889 25.8901 6.64572 25.6852 6.64572H25.5125V2.85686C25.5125 2.6553 25.3493 2.48878 25.1444 2.48878H23.506C23.3044 2.48878 23.1379 2.65195 23.1379 2.85686V6.64572H22.341V4.30018C22.341 4.09862 22.1779 3.9321 21.973 3.9321H20.3346C20.133 3.9321 19.9665 4.09527 19.9665 4.30018V6.64572H19.1696V5.26646C19.1696 5.0649 19.0065 4.89838 18.8015 4.89838H17.1631C16.9616 4.89838 16.7951 5.06155 16.7951 5.26646V6.64572H16.0174V2.54972C16.0174 2.34816 15.8542 2.18164 15.6493 2.18164C15.4444 2.18164 15.2812 2.34481 15.2812 2.54972V7.01041C15.2812 7.21197 15.4444 7.37849 15.6493 7.37849L15.6594 7.38188ZM23.8771 3.22519H24.7795V6.64931H23.8771V3.22519ZM20.709 4.66851H21.6115V6.64617H20.709V4.66851ZM17.541 5.63817H18.4434V6.64931H17.541V5.63817Z" fill="url(#paint3_linear_4497_31552)"/>
<path d="M15.657 13.7148H25.6827C25.8843 13.7148 26.0508 13.5517 26.0508 13.3467C26.0508 13.1418 25.8876 12.9787 25.6827 12.9787H16.0221V12.0988L17.2924 11.0876C17.4045 10.9981 17.6092 10.9981 17.7212 11.0876L18.4475 11.6765C18.8219 11.9805 19.4138 11.9836 19.7915 11.683L21.75 10.1374C21.8652 10.0479 22.0701 10.0479 22.1788 10.1374L22.8283 10.6749C23.206 10.9854 23.8011 10.9917 24.185 10.6845L25.7274 9.45257C25.8841 9.32467 25.9129 9.09409 25.785 8.9374C25.6571 8.7807 25.4265 8.7519 25.2698 8.87981L23.7274 10.1117C23.6154 10.2013 23.4073 10.2013 23.2986 10.1117L22.6491 9.57425C22.2748 9.26376 21.6794 9.25751 21.2986 9.56153L19.3402 11.1071C19.2281 11.1966 19.0234 11.1966 18.9114 11.1071L18.1851 10.5182C17.8074 10.2142 17.2154 10.2111 16.838 10.5117L16.0252 11.1581V8.8798C16.0252 8.67824 15.862 8.51172 15.6571 8.51172C15.4522 8.51172 15.2891 8.67489 15.2891 8.8798V13.3405C15.2891 13.542 15.4522 13.7086 15.6571 13.7086L15.657 13.7148Z" fill="url(#paint4_linear_4497_31552)"/>
<path d="M3.75871 11.9002H7.72031C7.92187 11.9002 8.08839 11.7371 8.08839 11.5321C8.08839 11.3272 7.92521 11.1641 7.72031 11.1641L3.75871 11.1643C3.55715 11.1643 3.39062 11.3275 3.39062 11.5324C3.39062 11.7373 3.5538 11.9004 3.75871 11.9004V11.9002Z" fill="url(#paint5_linear_4497_31552)"/>
<defs>
<linearGradient id="paint0_linear_4497_31552" x1="22.8844" y1="0.142578" x2="22.7934" y2="28.9093" gradientUnits="userSpaceOnUse">
<stop stop-color="#005CAA"/>
<stop offset="1" stop-color="#64B0F1"/>
</linearGradient>
<linearGradient id="paint1_linear_4497_31552" x1="9.55877" y1="2.15625" x2="9.52249" y2="11.7697" gradientUnits="userSpaceOnUse">
<stop stop-color="#005CAA"/>
<stop offset="1" stop-color="#64B0F1"/>
</linearGradient>
<linearGradient id="paint2_linear_4497_31552" x1="10.1374" y1="12.9785" x2="10.1371" y2="13.8727" gradientUnits="userSpaceOnUse">
<stop stop-color="#005CAA"/>
<stop offset="1" stop-color="#64B0F1"/>
</linearGradient>
<linearGradient id="paint3_linear_4497_31552" x1="23.6739" y1="2.18164" x2="23.6623" y2="8.50013" gradientUnits="userSpaceOnUse">
<stop stop-color="#005CAA"/>
<stop offset="1" stop-color="#64B0F1"/>
</linearGradient>
<linearGradient id="paint4_linear_4497_31552" x1="23.6736" y1="8.51172" x2="23.6621" y2="14.8299" gradientUnits="userSpaceOnUse">
<stop stop-color="#005CAA"/>
<stop offset="1" stop-color="#64B0F1"/>
</linearGradient>
<linearGradient id="paint5_linear_4497_31552" x1="7.05069" y1="11.1641" x2="7.05017" y2="12.0583" gradientUnits="userSpaceOnUse">
<stop stop-color="#005CAA"/>
<stop offset="1" stop-color="#64B0F1"/>
</linearGradient>
</defs>
</svg>