<svg width="39" height="39" viewBox="0 0 39 39" fill="none" xmlns="http://www.w3.org/2000/svg">
<path d="M5.84574 30.7878H11.4428V32.3711H5.84574C5.21585 32.3711 4.61176 32.1209 4.16636 31.6755C3.72096 31.2301 3.47074 30.626 3.47074 29.9961V20.4328H5.05407V29.9961C5.05407 30.2061 5.13748 30.4074 5.28594 30.5559C5.43441 30.7044 5.63577 30.7878 5.84574 30.7878ZM33.5541 29.9961C33.5541 30.2061 33.4707 30.4074 33.3222 30.5559C33.1737 30.7044 32.9724 30.7878 32.7624 30.7878H27.2762V32.3711H32.7624C33.3923 32.3711 33.9964 32.1209 34.4418 31.6755C34.8872 31.2301 35.1374 30.626 35.1374 29.9961V20.5436H33.5541V29.9961ZM5.05407 12.5794H3.47074V6.24609C3.47074 5.6162 3.72096 5.01211 4.16636 4.56672C4.61176 4.12132 5.21585 3.87109 5.84574 3.87109H32.7624C33.3923 3.87109 33.9964 4.12132 34.4418 4.56672C34.8872 5.01211 35.1374 5.6162 35.1374 6.24609V12.6269H33.5541V10.2044H5.05407V12.5794ZM5.05407 6.24609V8.62109H33.5541V6.24609C33.5541 6.03613 33.4707 5.83477 33.3222 5.6863C33.1737 5.53783 32.9724 5.45443 32.7624 5.45443H5.84574C5.63577 5.45443 5.43441 5.53783 5.28594 5.6863C5.13748 5.83477 5.05407 6.03613 5.05407 6.24609ZM9.0124 6.24609H6.6374V7.82943H9.0124V6.24609ZM12.9707 6.24609H10.5957V7.82943H12.9707V6.24609ZM26.4291 28.4128C26.4291 29.822 26.0112 31.1995 25.2283 32.3712C24.4454 33.5429 23.3326 34.4561 22.0307 34.9954C20.7288 35.5347 19.2962 35.6758 17.9141 35.4009C16.5319 35.1259 15.2624 34.4473 14.2659 33.4509C13.2695 32.4544 12.5909 31.1849 12.316 29.8028C12.0411 28.4207 12.1822 26.9881 12.7214 25.6861C13.2607 24.3842 14.1739 23.2714 15.3456 22.4885C16.5173 21.7056 17.8949 21.2878 19.3041 21.2878C21.1937 21.2878 23.006 22.0384 24.3422 23.3746C25.6784 24.7108 26.4291 26.5231 26.4291 28.4128ZM24.8457 28.4128C24.8457 27.3167 24.5207 26.2453 23.9118 25.334C23.3029 24.4227 22.4374 23.7124 21.4248 23.2929C20.4122 22.8735 19.2979 22.7638 18.2229 22.9776C17.148 23.1914 16.1605 23.7192 15.3855 24.4942C14.6105 25.2692 14.0827 26.2567 13.8689 27.3316C13.6551 28.4066 13.7648 29.5209 14.1842 30.5335C14.6037 31.5461 15.314 32.4116 16.2253 33.0205C17.1366 33.6294 18.208 33.9544 19.3041 33.9544C20.7738 33.9544 22.1834 33.3706 23.2226 32.3313C24.2619 31.2921 24.8457 29.8825 24.8457 28.4128ZM20.0957 24.4544H18.5124V25.2461H17.7207C17.5108 25.2461 17.3094 25.3295 17.1609 25.478C17.0125 25.6264 16.9291 25.8278 16.9291 26.0378V28.4128C16.9291 28.6227 17.0125 28.8241 17.1609 28.9726C17.3094 29.121 17.5108 29.2044 17.7207 29.2044H20.0957V29.9961H16.9291V31.5794H18.5124V32.3711H20.0957V31.5794H20.8874C21.0974 31.5794 21.2987 31.496 21.4472 31.3476C21.5957 31.1991 21.6791 30.9977 21.6791 30.7878V28.4128C21.6791 28.2028 21.5957 28.0014 21.4472 27.853C21.2987 27.7045 21.0974 27.6211 20.8874 27.6211H18.5124V26.8294H21.6791V25.2461H20.0957V24.4544ZM22.4707 17.3294V15.7461H16.1374V17.3294H22.4707ZM5.61615 18.3507L4.58699 17.3294H14.5541V15.7461H4.58699L5.61615 14.7248L4.49199 13.6007L2.11699 15.9757C2.04278 16.0493 1.98389 16.1368 1.9437 16.2333C1.90351 16.3298 1.88281 16.4333 1.88281 16.5378C1.88281 16.6423 1.90351 16.7457 1.9437 16.8422C1.98389 16.9387 2.04278 17.0262 2.11699 17.0998L4.49199 19.4748L5.61615 18.3507ZM36.4912 15.9757L34.1162 13.6007L32.992 14.7248L34.0212 15.7461H24.0541V17.3294H34.0212L32.992 18.3507L34.1162 19.4748L36.4912 17.0998C36.5654 17.0262 36.6242 16.9387 36.6644 16.8422C36.7046 16.7457 36.7253 16.6423 36.7253 16.5378C36.7253 16.4333 36.7046 16.3298 36.6644 16.2333C36.6242 16.1368 36.5654 16.0493 36.4912 15.9757Z" fill="url(#paint0_linear_3703_35259)"/>
<defs>
<linearGradient id="paint0_linear_3703_35259" x1="29.0289" y1="3.87109" x2="28.8971" y2="42.3238" gradientUnits="userSpaceOnUse">
<stop stop-color="#005CAA"/>
<stop offset="1" stop-color="#64B0F1"/>
</linearGradient>
</defs>
</svg>