<svg width="38" height="38" viewBox="0 0 23 24" fill="none" xmlns="http://www.w3.org/2000/svg">
<path d="M8.03229 8.86013C6.43229 8.86013 5.12023 10.0121 4.86423 11.5161H0.00017177V12.5721H4.86423C5.12026 14.0761 6.43229 15.2281 8.03229 15.2281C9.63229 15.2281 10.9443 14.0761 11.2003 12.5721H22.0163V11.5161H11.2003C10.9441 10.0121 9.63229 8.86013 8.03229 8.86013ZM8.03229 14.2041C6.84834 14.2041 5.88829 13.2441 5.88829 12.0601C5.88829 10.8762 6.84834 9.91613 8.03229 9.91613C9.21623 9.91613 10.1763 10.8762 10.1763 12.0601C10.1763 13.2443 9.21623 14.2041 8.03229 14.2041ZM13.5361 0.828125C11.9361 0.828125 10.624 1.98012 10.368 3.48412H0V4.54013H10.368C10.624 6.04413 11.9361 7.19613 13.5361 7.19613C15.1361 7.19613 16.4481 6.04413 16.7041 4.54013H22.0162V3.48412H16.7041C16.4481 1.98012 15.1041 0.828125 13.5361 0.828125ZM13.5361 6.17213C12.3521 6.17213 11.3921 5.21207 11.3921 4.02813C11.3921 2.84418 12.3521 1.88413 13.5361 1.88413C14.72 1.88413 15.6801 2.84418 15.6801 4.02813C15.6803 5.21207 14.7202 6.17213 13.5361 6.17213ZM13.8242 16.8281C12.2242 16.8281 10.9122 17.9801 10.6562 19.4841H0.00017177V20.5401H10.6562C10.9122 22.0441 12.2242 23.1961 13.8242 23.1961C15.4242 23.1961 16.7363 22.0441 16.9923 20.5401H22.0164V19.4841H16.9923C16.736 17.9801 15.4242 16.8281 13.8242 16.8281ZM13.8242 22.1721C12.6403 22.1721 11.6802 21.2121 11.6802 20.0281C11.6802 18.8442 12.6403 17.8841 13.8242 17.8841C15.0082 17.8841 15.9682 18.8442 15.9682 20.0281C15.9682 21.2121 15.0082 22.1721 13.8242 22.1721Z" fill="#CC1212"/>
</svg>