<svg width="38" height="38" viewBox="0 0 24 16" fill="none" xmlns="http://www.w3.org/2000/svg">
<path d="M5.56812 8.37581C5.23371 8.37581 4.96017 8.10226 4.96017 7.76786L4.95996 3.14701C4.95996 2.8126 5.23351 2.53906 5.56791 2.53906C5.9023 2.53906 6.17585 2.81261 6.17585 3.14701V7.73735C6.17607 8.10209 5.90251 8.37586 5.56812 8.37586L5.56812 8.37581Z" fill="url(#paint0_linear_3819_28316)"/>
<path d="M5.56812 8.37581C5.23371 8.37581 4.96017 8.10226 4.96017 7.76786L4.95996 3.14701C4.95996 2.8126 5.23351 2.53906 5.56791 2.53906C5.9023 2.53906 6.17585 2.81261 6.17585 3.14701V7.73735C6.17607 8.10209 5.90251 8.37586 5.56812 8.37586L5.56812 8.37581Z" fill="black" fill-opacity="0.2"/>
<path d="M17.7888 10.233H1.09916C0.764746 10.233 0.491211 9.95944 0.491211 9.62505V7.22355C0.491211 6.88914 0.764762 6.61561 1.09916 6.61561C1.73767 6.61561 2.25441 6.09884 2.25441 5.46035C2.25441 4.82185 1.73764 4.3051 1.09916 4.3051C0.764746 4.3051 0.491211 4.03155 0.491211 3.69715V1.29545C0.491211 0.961034 0.764762 0.6875 1.09916 0.6875H17.7888C18.1232 0.6875 18.3967 0.961051 18.3967 1.29545V9.62505C18.3969 9.95924 18.1231 10.233 17.7888 10.233ZM1.70716 9.01688H17.1808V1.90328H1.70716V3.18008C2.71036 3.45363 3.47036 4.36568 3.47036 5.46008C3.47036 6.55448 2.71036 7.46654 1.70716 7.74008V9.01688Z" fill="url(#paint1_linear_3819_28316)"/>
<path d="M17.7888 10.233H1.09916C0.764746 10.233 0.491211 9.95944 0.491211 9.62505V7.22355C0.491211 6.88914 0.764762 6.61561 1.09916 6.61561C1.73767 6.61561 2.25441 6.09884 2.25441 5.46035C2.25441 4.82185 1.73764 4.3051 1.09916 4.3051C0.764746 4.3051 0.491211 4.03155 0.491211 3.69715V1.29545C0.491211 0.961034 0.764762 0.6875 1.09916 0.6875H17.7888C18.1232 0.6875 18.3967 0.961051 18.3967 1.29545V9.62505C18.3969 9.95924 18.1231 10.233 17.7888 10.233ZM1.70716 9.01688H17.1808V1.90328H1.70716V3.18008C2.71036 3.45363 3.47036 4.36568 3.47036 5.46008C3.47036 6.55448 2.71036 7.46654 1.70716 7.74008V9.01688Z" fill="black" fill-opacity="0.2"/>
<path d="M20.2819 12.8189H3.59232C3.25791 12.8189 2.98438 12.5453 2.98438 12.2109C2.98438 11.8765 3.25793 11.603 3.59232 11.603H19.6739L19.6741 3.88138C19.6741 3.54697 19.9477 3.27344 20.2821 3.27344C20.6165 3.27344 20.89 3.54699 20.89 3.88138V12.211C20.89 12.5454 20.6165 12.8189 20.2821 12.8189L20.2819 12.8189Z" fill="url(#paint2_linear_3819_28316)"/>
<path d="M20.2819 12.8189H3.59232C3.25791 12.8189 2.98438 12.5453 2.98438 12.2109C2.98438 11.8765 3.25793 11.603 3.59232 11.603H19.6739L19.6741 3.88138C19.6741 3.54697 19.9477 3.27344 20.2821 3.27344C20.6165 3.27344 20.89 3.54699 20.89 3.88138V12.211C20.89 12.5454 20.6165 12.8189 20.2821 12.8189L20.2819 12.8189Z" fill="black" fill-opacity="0.2"/>
<path d="M22.9265 15.2798H6.23685C5.90244 15.2798 5.62891 15.0063 5.62891 14.6719C5.62891 14.3375 5.90246 14.0639 6.23685 14.0639H22.3185V6.34232C22.3185 6.00791 22.592 5.73438 22.9264 5.73438C23.2608 5.73438 23.5343 6.00793 23.5343 6.34232V14.6719C23.5343 15.0063 23.2608 15.2799 22.9264 15.2799L22.9265 15.2798Z" fill="url(#paint3_linear_3819_28316)"/>
<path d="M22.9265 15.2798H6.23685C5.90244 15.2798 5.62891 15.0063 5.62891 14.6719C5.62891 14.3375 5.90246 14.0639 6.23685 14.0639H22.3185V6.34232C22.3185 6.00791 22.592 5.73438 22.9264 5.73438C23.2608 5.73438 23.5343 6.00793 23.5343 6.34232V14.6719C23.5343 15.0063 23.2608 15.2799 22.9264 15.2799L22.9265 15.2798Z" fill="black" fill-opacity="0.2"/>
<defs>
<linearGradient id="paint0_linear_3819_28316" x1="5.56791" y1="2.53906" x2="5.56791" y2="8.37586" gradientUnits="userSpaceOnUse">
<stop stop-color="#FF0F0F"/>
<stop offset="1" stop-color="#FF4849"/>
</linearGradient>
<linearGradient id="paint1_linear_3819_28316" x1="9.44396" y1="0.6875" x2="9.44396" y2="10.233" gradientUnits="userSpaceOnUse">
<stop stop-color="#FF0F0F"/>
<stop offset="1" stop-color="#FF4849"/>
</linearGradient>
<linearGradient id="paint2_linear_3819_28316" x1="11.9372" y1="3.27344" x2="11.9372" y2="12.8189" gradientUnits="userSpaceOnUse">
<stop stop-color="#FF0F0F"/>
<stop offset="1" stop-color="#FF4849"/>
</linearGradient>
<linearGradient id="paint3_linear_3819_28316" x1="14.5816" y1="5.73437" x2="14.5816" y2="15.2799" gradientUnits="userSpaceOnUse">
<stop stop-color="#FF0F0F"/>
<stop offset="1" stop-color="#FF4849"/>
</linearGradient>
</defs>
</svg>