<svg width="38" height="38" viewBox="0 0 24 24" fill="none" xmlns="http://www.w3.org/2000/svg">
<path fill-rule="evenodd" clip-rule="evenodd" d="M20.3126 3.64771C21.4171 3.64771 22.3126 4.54325 22.3126 5.64771V20.3146C22.3126 21.419 21.4171 22.3146 20.3126 22.3146H5.64576C4.5413 22.3146 3.64576 21.419 3.64576 20.3146V12.2666H2.3125V20.3146C2.3125 22.1554 3.8049 23.6478 5.64576 23.6478H20.3126C22.1535 23.6478 23.6459 22.1554 23.6459 20.3146V5.64771C23.6459 3.80685 22.1535 2.31445 20.3126 2.31445H12.2646V3.64771H20.3126Z" fill="url(#paint0_linear_4209_26775)"/>
<path fill-rule="evenodd" clip-rule="evenodd" d="M4.97901 1.64771C6.8201 1.64771 8.3125 3.14011 8.3125 4.98097C8.3125 6.82205 6.8201 8.31445 4.97901 8.31445C3.13816 8.31445 1.64576 6.82205 1.64576 4.98097C1.64576 3.14011 3.13816 1.64771 4.97901 1.64771ZM9.64576 4.98097C9.64576 2.40371 7.5565 0.314453 4.97901 0.314453C2.40176 0.314453 0.3125 2.40371 0.3125 4.98097C0.3125 7.5584 2.40176 9.64771 4.97901 9.64771C7.55644 9.64771 9.64576 7.55845 9.64576 4.98097Z" fill="url(#paint1_linear_4209_26775)"/>
<defs>
<linearGradient id="paint0_linear_4209_26775" x1="18.9335" y1="2.31445" x2="18.8358" y2="28.2194" gradientUnits="userSpaceOnUse">
<stop stop-color="#005CAA"/>
<stop offset="1" stop-color="#64B0F1"/>
</linearGradient>
<linearGradient id="paint1_linear_4209_26775" x1="7.58413" y1="0.314453" x2="7.54136" y2="11.6478" gradientUnits="userSpaceOnUse">
<stop stop-color="#005CAA"/>
<stop offset="1" stop-color="#64B0F1"/>
</linearGradient>
</defs>
</svg>