<svg width="38" height="38" viewBox="0 0 32 32" fill="none"
                                xmlns="http://www.w3.org/2000/svg">
                                <path
                                    d="M14.6127 21.7065H9.31875C9.05644 21.7065 8.84375 21.4938 8.84375 21.2315V7.69375C8.84375 7.43123 9.05644 7.21875 9.31875 7.21875H14.6127C14.7387 7.21875 14.8595 7.26879 14.9486 7.35786C15.0376 7.44692 15.0877 7.56779 15.0877 7.69375V21.2315C15.0877 21.3575 15.0376 21.4781 14.9486 21.5674C14.8595 21.6565 14.7387 21.7065 14.6127 21.7065ZM9.79608 20.7565H14.1377V8.16875H9.79375L9.79608 20.7565Z"
                                    fill="url(#paint0_linear_5422_29595)" />
                                <path
                                    d="M11.9672 8.13034C11.7049 8.13034 11.4922 7.91786 11.4922 7.65534V1.26211C11.4922 0.999801 11.7049 0.787109 11.9672 0.787109C12.2295 0.787109 12.4422 0.999801 12.4422 1.26211V7.67434C12.432 7.92923 12.2223 8.13046 11.9672 8.13025V8.13034Z"
                                    fill="url(#paint1_linear_5422_29595)" />
                                <path
                                    d="M11.9672 26.2801C11.7049 26.2801 11.4922 26.0674 11.4922 25.8051V21.2309C11.4922 20.9683 11.7049 20.7559 11.9672 20.7559C12.2295 20.7559 12.4422 20.9683 12.4422 21.2309V25.8027C12.4428 25.9291 12.393 26.0504 12.3039 26.1401C12.2147 26.2296 12.0936 26.2801 11.9672 26.2801Z"
                                    fill="url(#paint2_linear_5422_29595)" />
                                <path
                                    d="M30.7119 18.8892H25.4203C25.158 18.8892 24.9453 18.6767 24.9453 18.4142V11.3988C24.9453 11.1363 25.158 10.9238 25.4203 10.9238H30.7119C30.8379 10.9238 30.9588 10.9739 31.0478 11.0629C31.1369 11.152 31.1869 11.2729 31.1869 11.3988V18.4142C31.1869 18.5401 31.1369 18.661 31.0478 18.7501C30.9588 18.8391 30.8379 18.8892 30.7119 18.8892ZM25.8953 17.9392H30.2369V11.8738H25.8953V17.9392Z"
                                    fill="url(#paint3_linear_5422_29595)" />
                                <path
                                    d="M28.0688 11.8337C27.8064 11.8337 27.5938 11.621 27.5938 11.3587V6.39492C27.5938 6.13261 27.8064 5.91992 28.0688 5.91992C28.3311 5.91992 28.5438 6.13261 28.5438 6.39492V11.3587C28.5438 11.4847 28.4937 11.6055 28.4046 11.6946C28.3156 11.7837 28.1947 11.8337 28.0688 11.8337Z"
                                    fill="url(#paint4_linear_5422_29595)" />
                                <path
                                    d="M28.0688 24.9575C27.8064 24.9575 27.5938 24.745 27.5938 24.4825V18.4145C27.5938 18.1521 27.8064 17.9395 28.0688 17.9395C28.3311 17.9395 28.5438 18.1521 28.5438 18.4145V24.4825C28.5438 24.6085 28.4937 24.7293 28.4046 24.8184C28.3156 24.9075 28.1947 24.9575 28.0688 24.9575Z"
                                    fill="url(#paint5_linear_5422_29595)" />
                                <path
                                    d="M22.6572 11.1012H17.3656C17.1033 11.1012 16.8906 10.8885 16.8906 10.6262V4.92617C16.8906 4.66365 17.1033 4.45117 17.3656 4.45117H22.6572C22.7832 4.45117 22.9041 4.50122 22.9931 4.59028C23.0822 4.67934 23.1322 4.80021 23.1322 4.92617V10.6262C23.1322 10.7521 23.0822 10.8728 22.9931 10.9621C22.9041 11.0511 22.7832 11.1012 22.6572 11.1012ZM17.8406 10.1512H22.1822V5.40117H17.8406V10.1512Z"
                                    fill="url(#paint6_linear_5422_29595)" />
                                <path
                                    d="M20.0141 5.37089C19.7518 5.37089 19.5391 5.1582 19.5391 4.89589V1.26211C19.5391 0.999801 19.7518 0.787109 20.0141 0.787109C20.2764 0.787109 20.4891 0.999801 20.4891 1.26211V4.89589C20.4891 5.02185 20.439 5.14272 20.35 5.23178C20.2609 5.32084 20.14 5.37089 20.0141 5.37089Z"
                                    fill="url(#paint7_linear_5422_29595)" />
                                <path
                                    d="M20.0141 19.8163C19.7518 19.8163 19.5391 19.6038 19.5391 19.3413V10.6273C19.5391 10.3648 19.7518 10.1523 20.0141 10.1523C20.2764 10.1523 20.4891 10.3648 20.4891 10.6273V19.3413C20.4891 19.4672 20.439 19.5881 20.35 19.6772C20.2609 19.7662 20.14 19.8163 20.0141 19.8163Z"
                                    fill="url(#paint8_linear_5422_29595)" />
                                <path
                                    d="M6.55567 26.6754H1.26406C1.00175 26.6754 0.789062 26.4627 0.789062 26.2004V22.2816C0.789062 22.0193 1.00175 21.8066 1.26406 21.8066H6.55567C6.68163 21.8066 6.80229 21.8567 6.89156 21.9457C6.98063 22.0348 7.03067 22.1557 7.03067 22.2816V26.2004C7.03067 26.3264 6.98063 26.4473 6.89156 26.5363C6.80229 26.6254 6.68163 26.6754 6.55567 26.6754ZM1.73906 25.7254H6.08067V22.7566H1.73906V25.7254Z"
                                    fill="url(#paint9_linear_5422_29595)" />
                                <path
                                    d="M3.9125 31.1871C3.65019 31.1871 3.4375 30.9744 3.4375 30.7121V26.1996C3.4375 25.9373 3.65019 25.7246 3.9125 25.7246C4.17481 25.7246 4.3875 25.9373 4.3875 26.1996V30.7121C4.3875 30.8381 4.33746 30.9589 4.24839 31.048C4.15933 31.1371 4.03846 31.1871 3.9125 31.1871Z"
                                    fill="url(#paint10_linear_5422_29595)" />
                                <path
                                    d="M3.9125 22.7559C3.65019 22.7559 3.4375 22.5432 3.4375 22.2809V9.65078C3.4375 9.38847 3.65019 9.17578 3.9125 9.17578C4.17481 9.17578 4.3875 9.38847 4.3875 9.65078V22.2809C4.3875 22.4069 4.33746 22.5277 4.24839 22.6168C4.15933 22.7059 4.03846 22.7559 3.9125 22.7559Z"
                                    fill="url(#paint11_linear_5422_29595)" />
                                <defs>
                                    <linearGradient id="paint0_linear_5422_29595" x1="13.7085" y1="7.21875" x2="13.5544"
                                        y2="24.8101" gradientUnits="userSpaceOnUse">
                                        <stop stop-color="#005CAA" />
                                        <stop offset="1" stop-color="#64B0F1" />
                                    </linearGradient>
                                    <linearGradient id="paint1_linear_5422_29595" x1="12.2323" y1="0.787109"
                                        x2="11.9725" y2="9.6965" gradientUnits="userSpaceOnUse">
                                        <stop stop-color="#005CAA" />
                                        <stop offset="1" stop-color="#64B0F1" />
                                    </linearGradient>
                                    <linearGradient id="paint2_linear_5422_29595" x1="12.2323" y1="20.7559" x2="12.0852"
                                        y2="27.4608" gradientUnits="userSpaceOnUse">
                                        <stop stop-color="#005CAA" />
                                        <stop offset="1" stop-color="#64B0F1" />
                                    </linearGradient>
                                    <linearGradient id="paint3_linear_5422_29595" x1="29.8082" y1="10.9238" x2="29.7616"
                                        y2="20.596" gradientUnits="userSpaceOnUse">
                                        <stop stop-color="#005CAA" />
                                        <stop offset="1" stop-color="#64B0F1" />
                                    </linearGradient>
                                    <linearGradient id="paint4_linear_5422_29595" x1="28.3339" y1="5.91992" x2="28.1653"
                                        y2="13.0971" gradientUnits="userSpaceOnUse">
                                        <stop stop-color="#005CAA" />
                                        <stop offset="1" stop-color="#64B0F1" />
                                    </linearGradient>
                                    <linearGradient id="paint5_linear_5422_29595" x1="28.3339" y1="17.9395" x2="28.0965"
                                        y2="26.4549" gradientUnits="userSpaceOnUse">
                                        <stop stop-color="#005CAA" />
                                        <stop offset="1" stop-color="#64B0F1" />
                                    </linearGradient>
                                    <linearGradient id="paint6_linear_5422_29595" x1="21.7535" y1="4.45117" x2="21.7211"
                                        y2="12.5262" gradientUnits="userSpaceOnUse">
                                        <stop stop-color="#005CAA" />
                                        <stop offset="1" stop-color="#64B0F1" />
                                    </linearGradient>
                                    <linearGradient id="paint7_linear_5422_29595" x1="20.2792" y1="0.787109"
                                        x2="20.1779" y2="6.3514" gradientUnits="userSpaceOnUse">
                                        <stop stop-color="#005CAA" />
                                        <stop offset="1" stop-color="#64B0F1" />
                                    </linearGradient>
                                    <linearGradient id="paint8_linear_5422_29595" x1="20.2792" y1="10.1523" x2="19.8294"
                                        y2="21.8701" gradientUnits="userSpaceOnUse">
                                        <stop stop-color="#005CAA" />
                                        <stop offset="1" stop-color="#64B0F1" />
                                    </linearGradient>
                                    <linearGradient id="paint9_linear_5422_29595" x1="5.65196" y1="21.8066" x2="5.63456"
                                        y2="27.7188" gradientUnits="userSpaceOnUse">
                                        <stop stop-color="#005CAA" />
                                        <stop offset="1" stop-color="#64B0F1" />
                                    </linearGradient>
                                    <linearGradient id="paint10_linear_5422_29595" x1="4.17765" y1="25.7246"
                                        x2="4.03379" y2="32.3547" gradientUnits="userSpaceOnUse">
                                        <stop stop-color="#005CAA" />
                                        <stop offset="1" stop-color="#64B0F1" />
                                    </linearGradient>
                                    <linearGradient id="paint11_linear_5422_29595" x1="4.17765" y1="9.17578"
                                        x2="3.29069" y2="25.6184" gradientUnits="userSpaceOnUse">
                                        <stop stop-color="#005CAA" />
                                        <stop offset="1" stop-color="#64B0F1" />
                                    </linearGradient>
                                </defs>
                            </svg>