<svg width="38" height="38" viewBox="0 0 28 30" fill="none"
                                xmlns="http://www.w3.org/2000/svg">
                                <path
                                    d="M14.0019 29.9319C13.8153 29.9319 13.6641 29.7807 13.6641 29.5941V22.3964C13.6641 22.2098 13.8153 22.0586 14.0019 22.0586C14.1885 22.0586 14.3397 22.2098 14.3397 22.3964V29.5941C14.3397 29.7805 14.1883 29.9317 14.0019 29.9317V29.9319ZM18.582 29.9319C18.3954 29.9319 18.2442 29.7807 18.2442 29.5941L18.2444 22.3964C18.2444 22.2098 18.3956 22.0586 18.5822 22.0586C18.7688 22.0586 18.92 22.2098 18.92 22.3964V29.5941C18.9198 29.7807 18.7686 29.9319 18.582 29.9319Z"
                                    fill="#CC1212" />
                                <path
                                    d="M14.0019 22.735C13.8153 22.735 13.6641 22.5838 13.6641 22.3972V17.3809C13.6641 14.6691 15.8703 12.4629 18.582 12.4629C18.7686 12.4629 18.9198 12.6141 18.9198 12.8007C18.9198 12.9873 18.7686 13.1385 18.582 13.1385C16.2426 13.1385 14.3397 15.0417 14.3397 17.381V22.3976C14.3397 22.5838 14.1883 22.735 14.0019 22.735Z"
                                    fill="#CC1212" />
                                <path
                                    d="M18.5878 22.7348C18.4012 22.7348 18.25 22.5836 18.25 22.397V18.6852C18.25 17.2045 19.4547 16 20.9355 16H22.6962C22.8828 16 23.034 16.1512 23.034 16.3378C23.034 16.5244 22.8828 16.6756 22.6962 16.6756H20.9355C19.8273 16.6756 18.9256 17.5772 18.9256 18.6854V22.3972C18.9256 22.5836 18.7744 22.7348 18.5878 22.7348Z"
                                    fill="#CC1212" />
                                <path
                                    d="M22.6961 13.1365H18.5878C18.4012 13.1365 18.25 12.9853 18.25 12.7987C18.25 12.6121 18.4012 12.4609 18.5878 12.4609H22.6961V13.1365Z"
                                    fill="#CC1212" />
                                <path
                                    d="M22.6972 19.269C22.6537 19.269 22.6098 19.2605 22.568 19.2433C22.4419 19.1912 22.3596 19.068 22.3596 18.9312L22.3594 10.2069C22.3594 10.0704 22.4417 9.94718 22.5678 9.8948C22.6938 9.84264 22.8392 9.87147 22.9359 9.96796L27.2981 14.3301C27.3615 14.3935 27.3971 14.4794 27.3971 14.5689C27.3971 14.6586 27.3615 14.7444 27.2981 14.8076L22.9359 19.1698C22.8715 19.2346 22.785 19.269 22.6972 19.269ZM23.035 11.0225V18.116L26.5816 14.5694L23.035 11.0225Z"
                                    fill="#CC1212" />
                                <path
                                    d="M9.42374 29.9319C9.23714 29.9319 9.08594 29.7807 9.08594 29.5941V22.3964C9.08594 22.2098 9.23714 22.0586 9.42374 22.0586C9.61035 22.0586 9.76155 22.2098 9.76155 22.3964V29.5941C9.76155 29.7807 9.61035 29.9319 9.42374 29.9319Z"
                                    fill="#CC1212" />
                                <path
                                    d="M14.0041 17.7188C13.8175 17.7188 13.6663 17.5676 13.6663 17.381C13.6663 15.0416 11.7631 13.1385 9.42374 13.1385C9.23714 13.1385 9.08594 12.9873 9.08594 12.8007C9.08594 12.6141 9.23714 12.4629 9.42374 12.4629C12.1355 12.4629 14.3419 14.6691 14.3419 17.3809C14.3419 17.5677 14.1905 17.7188 14.0041 17.7188Z"
                                    fill="#CC1212" />
                                <path
                                    d="M9.42248 22.7348C9.23587 22.7348 9.08467 22.5836 9.08467 22.397V18.6852C9.08467 17.577 8.18304 16.6754 7.07485 16.6754L5.31437 16.6756C5.12776 16.6756 4.97656 16.5244 4.97656 16.3378C4.97656 16.1512 5.12776 16 5.31437 16H7.07507C8.55582 16 9.76031 17.2047 9.76031 18.6852V22.397C9.76031 22.5836 9.60908 22.7348 9.42248 22.7348Z"
                                    fill="#CC1212" />
                                <path
                                    d="M9.42271 13.1365H5.31437C5.12776 13.1365 4.97656 12.9853 4.97656 12.7987C4.97656 12.6121 5.12776 12.4609 5.31437 12.4609H9.42271V13.1365Z"
                                    fill="#CC1212" />
                                <path
                                    d="M5.31711 19.2689C5.22932 19.2689 5.14281 19.2346 5.07813 19.1699L0.716004 14.8078C0.652598 14.7444 0.617188 14.6585 0.617188 14.569C0.617188 14.4793 0.652813 14.3934 0.716004 14.3302L5.07813 9.9681C5.17483 9.87141 5.32008 9.84256 5.44625 9.89494C5.57243 9.94732 5.6547 10.0703 5.6547 10.2071V18.9313C5.6547 19.0679 5.57243 19.1911 5.44625 19.2435C5.40448 19.2604 5.36059 19.2689 5.31711 19.2689ZM1.43248 14.569L4.97908 18.1156V11.0221L1.43248 14.569Z"
                                    fill="#CC1212" />
                                <path
                                    d="M16.917 13.4535C16.7304 13.4535 16.5792 13.3023 16.5792 13.1157V5.6503C16.5792 5.4637 16.7304 5.3125 16.917 5.3125C17.1036 5.3125 17.2548 5.4637 17.2548 5.6503V13.1157C17.2546 13.3023 17.1034 13.4535 16.917 13.4535ZM11.0878 13.4535C10.9012 13.4535 10.75 13.3023 10.75 13.1157V5.6503C10.75 5.4637 10.9012 5.3125 11.0878 5.3125C11.2744 5.3125 11.4256 5.4637 11.4256 5.6503V13.1157C11.4256 13.3023 11.2744 13.4535 11.0878 13.4535Z"
                                    fill="#CC1212" />
                                <path
                                    d="M19.2468 5.98731H8.76749C8.63093 5.98731 8.50772 5.90503 8.45535 5.77886C8.40318 5.65269 8.43202 5.50743 8.52851 5.41074L13.7682 0.171082C13.8316 0.107676 13.9175 0.0722656 14.0069 0.0722656C14.0964 0.0722656 14.1825 0.107891 14.2457 0.171082L19.4854 5.41074C19.5821 5.50743 19.6109 5.65269 19.5585 5.77886C19.5066 5.90503 19.3836 5.98731 19.2468 5.98731ZM9.58286 5.31172H18.4314L14.0071 0.887436L9.58286 5.31172Z"
                                    fill="#CC1212" />
                            </svg>