<svg width="38" height="38" viewBox="0 0 33 33" fill="none" xmlns="http://www.w3.org/2000/svg">
<path d="M7.73437 16.4862H4.73437V10.9862C4.73437 10.7101 4.51049 10.4862 4.23438 10.4862C3.95826 10.4862 3.73438 10.7101 3.73438 10.9862V22.4862C3.73438 22.7623 3.95826 22.9862 4.23438 22.9862C4.51049 22.9862 4.73437 22.7623 4.73437 22.4862V17.4862H7.73437V17.7637C7.73437 17.9998 7.82812 18.2262 7.99509 18.3931C8.16206 18.5599 8.38839 18.6536 8.62435 18.6536H9.07435C9.28127 19.6329 9.66766 20.5655 10.2143 21.4036L9.8942 21.7237H9.89442C9.73014 21.8903 9.63795 22.1148 9.63795 22.3488C9.63795 22.5827 9.73014 22.8072 9.89442 22.9738L10.9944 24.0738C11.1609 24.2381 11.3855 24.3303 11.6194 24.3303C11.8534 24.3303 12.0779 24.2381 12.2445 24.0738L12.5646 23.7537H12.5643C13.4027 24.3006 14.3351 24.687 15.3143 24.8939V25.3439C15.3137 25.5807 15.4076 25.8082 15.5751 25.9756C15.7427 26.1432 15.9699 26.237 16.207 26.2363H17.7619C17.9981 26.2363 18.2244 26.1425 18.3914 25.9756C18.5581 25.8086 18.6519 25.5823 18.6519 25.3463V24.8963C19.6312 24.6896 20.5637 24.303 21.4019 23.7564L21.722 24.0765V24.0763C21.8885 24.2405 22.1131 24.3327 22.347 24.3327C22.581 24.3327 22.8055 24.2405 22.972 24.0763L24.072 22.9763C24.2363 22.8097 24.3285 22.5852 24.3285 22.3512C24.3285 22.1173 24.2363 21.8927 24.072 21.7262L23.752 21.4061V21.4063C24.2988 20.5679 24.6852 19.6356 24.8921 18.6563H25.3421C25.579 18.657 25.8064 18.563 25.9738 18.3956C26.1415 18.228 26.2352 18.0007 26.2346 17.7637V17.4862H27.9846V23.9862C27.9846 24.2623 28.2084 24.4862 28.4846 24.4862C28.7607 24.4862 28.9846 24.2623 28.9846 23.9862V12.2365C28.9846 11.9604 28.7607 11.7365 28.4846 11.7365C28.2084 11.7365 27.9846 11.9604 27.9846 12.2365V16.4865H26.2346V16.209C26.2346 15.9729 26.1408 15.7465 25.9738 15.5796C25.8069 15.4128 25.5805 15.3191 25.3446 15.3191H24.8946C24.6877 14.3398 24.3013 13.4072 23.7546 12.5691L24.0747 12.249H24.0745C24.2388 12.0825 24.331 11.8579 24.331 11.6239C24.331 11.39 24.2388 11.1655 24.0745 10.9989L22.9846 9.89646C22.818 9.73217 22.5935 9.63998 22.3595 9.63998C22.1256 9.63998 21.9011 9.73217 21.7345 9.89646L21.4144 10.2165V10.2163C20.5762 9.66967 19.6437 9.28307 18.6644 9.07638V8.62638C18.6646 8.38821 18.5691 8.15986 18.3995 7.99267C18.2298 7.82526 18.0001 7.73307 17.762 7.73642H16.2071C15.9709 7.73642 15.7446 7.83016 15.5776 7.99713C15.4108 8.1641 15.3171 8.39043 15.3171 8.62639V9.07639C14.3378 9.28309 13.4053 9.6697 12.5671 10.2163L12.247 9.89624V9.89646C12.0805 9.73218 11.8559 9.63999 11.622 9.63999C11.388 9.63999 11.1635 9.73218 10.9969 9.89646L9.89448 10.9864C9.73019 11.1529 9.638 11.3775 9.638 11.6114C9.638 11.8454 9.73019 12.0699 9.89448 12.2365L10.2146 12.5566H10.2143C9.66769 13.3947 9.28132 14.3273 9.0744 15.3066H8.6244C8.38623 15.3063 8.15788 15.4019 7.99069 15.5715C7.82328 15.7412 7.73109 15.9708 7.73444 16.209L7.73437 16.4862ZM8.73438 16.3188H9.48438C9.73281 16.3217 9.94598 16.1418 9.98438 15.8963C10.1585 14.7797 10.5973 13.7211 11.2643 12.8088C11.4107 12.6094 11.3895 12.3333 11.2143 12.1588L10.6792 11.6237L11.6216 10.6813L12.1567 11.2164L12.1569 11.2161C12.3314 11.3914 12.6076 11.4126 12.8069 11.2661C13.7192 10.5994 14.7779 10.1605 15.8944 9.98626C16.1399 9.94786 16.3198 9.7347 16.3169 9.48626V8.73626H17.6495V9.48626H17.6493C17.6464 9.7347 17.8263 9.94786 18.0718 9.98626C19.1883 10.1606 20.247 10.5994 21.1593 11.2661C21.3586 11.4126 21.6347 11.3914 21.8093 11.2161L22.3443 10.6811L23.2867 11.6235L22.7544 12.1612C22.5791 12.3358 22.5579 12.6119 22.7044 12.8112C23.3709 13.7228 23.8097 14.7804 23.9843 15.8963C24.0226 16.1418 24.2358 16.3217 24.4843 16.3188H25.2343V17.6514L24.4843 17.6511C24.2358 17.6482 24.0226 17.8282 23.9843 18.0737C23.8101 19.1902 23.3713 20.2489 22.7044 21.1612C22.5579 21.3605 22.5791 21.6366 22.7544 21.8112L23.2894 22.3462L22.347 23.2886L21.812 22.7536H21.8117C21.6372 22.5786 21.3611 22.5574 21.1617 22.7036C20.2497 23.3715 19.191 23.8112 18.0743 23.9861C17.8287 24.0245 17.6488 24.2377 17.6517 24.4861V25.2361H16.3169V24.4861C16.3198 24.2377 16.1399 24.0245 15.8944 23.9861C14.7779 23.8118 13.7192 23.373 12.8069 22.7063C12.6076 22.5598 12.3314 22.581 12.1569 22.7563L11.6218 23.2913L10.6794 22.3489L11.2145 21.8139L11.2143 21.8136C11.3895 21.6391 11.4107 21.363 11.2643 21.1636C10.5973 20.2513 10.1584 19.1927 9.98438 18.0761C9.94599 17.8306 9.73282 17.6507 9.48438 17.6536H8.73438L8.73438 16.3188Z" fill="#CC1212"/>
<path d="M16.9844 22.4863C18.4431 22.4863 19.842 21.9068 20.8735 20.8754C21.9049 19.8439 22.4844 18.4451 22.4844 16.9863C22.4844 15.5276 21.9049 14.1287 20.8735 13.0972C19.842 12.0658 18.4431 11.4863 16.9844 11.4863C15.5256 11.4863 14.1268 12.0658 13.0953 13.0972C12.0638 14.1287 11.4844 15.5276 11.4844 16.9863C11.4844 18.4451 12.0639 19.8439 13.0953 20.8754C14.1268 21.9069 15.5256 22.4863 16.9844 22.4863ZM12.9844 16.4863H12.5143C12.6085 15.6428 12.9406 14.8432 13.4719 14.1814L13.8018 14.5113C13.9973 14.7066 14.3141 14.7066 14.5094 14.5113C14.7047 14.316 14.7047 13.9993 14.5094 13.8037L14.1795 13.4863C14.84 12.9506 15.6395 12.614 16.4844 12.5162V12.9863C16.4844 13.2624 16.7083 13.4863 16.9844 13.4863C17.2605 13.4863 17.4844 13.2624 17.4844 12.9863V12.5162C18.3293 12.614 19.1288 12.9506 19.7893 13.4863L19.4594 13.8037C19.2641 13.9993 19.2641 14.316 19.4594 14.5113C19.6547 14.7066 19.9715 14.7066 20.167 14.5113L20.4969 14.1814C21.0282 14.8432 21.3603 15.6428 21.4545 16.4863H20.9844C20.7083 16.4863 20.4844 16.7102 20.4844 16.9863C20.4844 17.2624 20.7083 17.4863 20.9844 17.4863H21.4545C21.3603 18.3299 21.0282 19.1294 20.4969 19.7912L20.167 19.4613C19.9715 19.266 19.6547 19.266 19.4594 19.4613C19.2641 19.6566 19.2641 19.9734 19.4594 20.1689L19.7893 20.4863C19.1288 21.0221 18.3293 21.3587 17.4844 21.4565V20.9864C17.4844 20.7103 17.2605 20.4864 16.9844 20.4864C16.7083 20.4864 16.4844 20.7103 16.4844 20.9864V21.4565C15.6395 21.3587 14.84 21.0221 14.1795 20.4863L14.5094 20.1564C14.7047 19.9609 14.7047 19.6442 14.5094 19.4488C14.3141 19.2535 13.9973 19.2535 13.8018 19.4488L13.4719 19.7787C12.9426 19.1203 12.6107 18.3256 12.5143 17.4863H12.9844C13.2605 17.4863 13.4844 17.2625 13.4844 16.9863C13.4844 16.7102 13.2605 16.4863 12.9844 16.4863Z" fill="#CC1212"/>
<path d="M14.9844 17.4863H16.9844C17.117 17.4863 17.2442 17.4336 17.3379 17.3399C17.4317 17.2461 17.4844 17.1189 17.4844 16.9863V14.9863C17.4844 14.7102 17.2605 14.4863 16.9844 14.4863C16.7083 14.4863 16.4844 14.7102 16.4844 14.9863V16.4863H14.9844C14.7083 16.4863 14.4844 16.7102 14.4844 16.9863C14.4844 17.2624 14.7083 17.4863 14.9844 17.4863Z" fill="#CC1212"/>
<path d="M32.9378 32.7013C33.0202 32.5269 32.995 32.3207 32.8729 32.1714L31.4854 30.4863V25.9863C31.4854 25.8537 31.4327 25.7265 31.339 25.6328C31.2452 25.539 31.118 25.4863 30.9854 25.4863H24.4854C24.2093 25.4863 23.9854 25.7102 23.9854 25.9863V30.4863L22.5979 32.1787C22.4811 32.3285 22.4593 32.5314 22.5414 32.7026C22.6236 32.8738 22.7954 32.9839 22.9854 32.9863H32.4854C32.6787 32.9868 32.8548 32.8758 32.9378 32.7013ZM24.9852 26.4864H30.4852V29.9864H24.9852V26.4864ZM24.0402 31.9864L24.8603 30.9864H30.61L31.4301 31.9864H24.0402Z" fill="#CC1212"/>
<path d="M2.23439 10.2364H6.73439C7.06586 10.2364 7.38393 10.1047 7.61833 9.87028C7.85273 9.63591 7.9844 9.31783 7.9844 8.98634V3.48634C7.9844 3.15487 7.8527 2.8368 7.61833 2.6024C7.38396 2.368 7.06587 2.23633 6.73439 2.23633H5.98439V1.98633C5.98439 1.72115 5.87903 1.46668 5.69153 1.27919C5.50403 1.09169 5.24956 0.986328 4.98439 0.986328H3.98439C3.71921 0.986328 3.46474 1.09169 3.27724 1.27919C3.08975 1.46668 2.98439 1.72115 2.98439 1.98633V2.23633H2.23439C1.90291 2.23633 1.58484 2.36803 1.35044 2.6024C1.11604 2.83677 0.984375 3.15485 0.984375 3.48634V8.98634C0.984375 9.31781 1.11607 9.63588 1.35044 9.87028C1.58481 10.1047 1.9029 10.2364 2.23439 10.2364ZM3.98439 1.98607H4.98439V2.98607H3.98439V1.98607ZM1.98439 3.48607C1.98439 3.34789 2.09621 3.23607 2.23439 3.23607H2.98439V3.48607C2.98439 3.61865 3.03707 3.74589 3.13082 3.83964C3.22456 3.93339 3.3518 3.98607 3.48439 3.98607H5.48439C5.61697 3.98607 5.74421 3.93339 5.83796 3.83964C5.93171 3.74589 5.98439 3.61865 5.98439 3.48607V3.23607H6.73439C6.80068 3.23607 6.86429 3.2624 6.91117 3.30928C6.95805 3.35615 6.98439 3.41977 6.98439 3.48607V8.98607C6.98439 9.05236 6.95805 9.11597 6.91117 9.16285C6.8643 9.20973 6.80068 9.23607 6.73439 9.23607H2.23439C2.09621 9.23607 1.98439 9.12424 1.98439 8.98607V3.48607Z" fill="#CC1212"/>
<path d="M3.45313 5.98633H5.51564C5.79175 5.98633 6.01564 5.76244 6.01564 5.48633C6.01564 5.21021 5.79175 4.98633 5.51564 4.98633H3.45313C3.17679 4.98633 2.95312 5.21021 2.95312 5.48633C2.95312 5.76244 3.17679 5.98633 3.45313 5.98633Z" fill="#CC1212"/>
<path d="M3.45313 7.98633H5.51564C5.79175 7.98633 6.01564 7.76244 6.01564 7.48633C6.01564 7.21021 5.79175 6.98633 5.51564 6.98633H3.45313C3.17679 6.98633 2.95312 7.21021 2.95312 7.48633C2.95312 7.76244 3.17679 7.98633 3.45313 7.98633Z" fill="#CC1212"/>
<path d="M2.23438 25.9863C2.23438 26.5167 2.44509 27.0254 2.82009 27.4006C3.19531 27.7756 3.70403 27.9863 4.23438 27.9863C4.76472 27.9863 5.27346 27.7756 5.64866 27.4006C6.02366 27.0254 6.23438 26.5167 6.23438 25.9863C6.23438 25.456 6.02366 24.9472 5.64866 24.572C5.27344 24.197 4.76472 23.9863 4.23438 23.9863C3.70403 23.9863 3.19529 24.197 2.82009 24.572C2.44509 24.9473 2.23438 25.456 2.23438 25.9863ZM5.23438 25.9863C5.23438 26.2515 5.12901 26.506 4.94152 26.6935C4.75402 26.881 4.49955 26.9863 4.23438 26.9863C3.9692 26.9863 3.71473 26.881 3.52723 26.6935C3.33974 26.506 3.23438 26.2515 3.23438 25.9863C3.23438 25.7212 3.33974 25.4667 3.52723 25.2792C3.71473 25.0917 3.9692 24.9863 4.23438 24.9863C4.49955 24.9863 4.75402 25.0917 4.94152 25.2792C5.12901 25.4667 5.23438 25.7212 5.23438 25.9863Z" fill="#CC1212"/>
<path d="M1.48438 32.9861H6.98438C7.11696 32.9861 7.2442 32.9335 7.33795 32.8397C7.4317 32.746 7.48438 32.6187 7.48438 32.4861V30.2187C7.4846 29.716 7.23304 29.2468 6.81426 28.9687C6.37229 28.6703 5.81312 28.6051 5.31426 28.7937C4.62586 29.0549 3.8654 29.0549 3.17677 28.7937C2.67811 28.6051 2.11872 28.6703 1.67677 28.9687C1.24731 29.2475 0.986832 29.7239 0.984375 30.2361V32.4861C0.984375 32.6187 1.03705 32.746 1.1308 32.8397C1.22455 32.9335 1.35179 32.9861 1.48438 32.9861ZM1.98438 30.2212C1.98415 30.0471 2.07165 29.8846 2.21696 29.7886C2.39107 29.6721 2.61138 29.6477 2.80691 29.7236C3.72565 30.0723 4.74039 30.0723 5.65936 29.7236C5.8549 29.6477 6.07499 29.6721 6.24931 29.7886C6.39462 29.8846 6.48212 30.0471 6.4819 30.2212H6.9819L6.48435 30.2361V31.9861H1.98435L1.98438 30.2212Z" fill="#CC1212"/>
<path d="M28.4844 0.986328C26.5545 0.986328 24.9844 2.62627 24.9844 4.64393C25.0042 5.29279 25.2033 5.92341 25.5593 6.46627C25.6669 6.63636 25.7819 6.81136 25.8993 6.98636C26.3118 7.60893 26.7392 8.25133 26.8267 8.90893C26.8417 9.02389 26.8843 9.37144 26.9066 9.74151L26.9069 9.74128C26.6307 9.76271 26.4243 10.004 26.4455 10.2801C26.4669 10.5562 26.7082 10.7627 26.9843 10.7413H29.9843C30.2604 10.7649 30.5033 10.56 30.5267 10.2839C30.5504 10.0078 30.3455 9.76495 30.0694 9.74128C30.0828 9.42901 30.1194 9.11831 30.1794 8.8114C30.3194 8.16631 30.6944 7.64128 31.0895 7.08397L31.3395 6.74156L31.3392 6.74133C31.7625 6.12413 31.9875 5.39248 31.9843 4.64402C31.9843 2.62636 30.4142 0.986419 28.4843 0.986419L28.4844 0.986328ZM30.5069 6.17873L30.2744 6.50864C29.8369 7.12361 29.382 7.75864 29.1994 8.60618V8.6064C29.1264 8.97984 29.082 9.3584 29.067 9.73875H27.9094C27.8869 9.33116 27.842 8.9488 27.8195 8.78383C27.7021 7.89635 27.1869 7.12132 26.732 6.43875C26.6195 6.27133 26.5119 6.10616 26.4146 5.93875H26.4143C26.1539 5.55527 26.005 5.10703 25.9844 4.64389C25.9844 3.17869 27.107 1.98629 28.4844 1.98629C29.8619 1.98629 30.9844 3.17869 30.9844 4.64389C30.9858 5.19233 30.819 5.72787 30.5069 6.17873Z" fill="#CC1212"/>
<path d="M27.9871 2.55112C27.4942 2.83349 27.0859 3.24266 26.8045 3.73615C26.7315 3.8511 26.7085 3.99106 26.7409 4.12342C26.7733 4.25579 26.8583 4.36918 26.9764 4.43726C27.0942 4.50557 27.2351 4.52253 27.3659 4.48458C27.4967 4.44664 27.6065 4.3569 27.6697 4.23614C27.8641 3.89619 28.1465 3.61472 28.4871 3.42117C28.7273 3.283 28.8101 2.9763 28.6722 2.73614C28.534 2.49597 28.2272 2.41318 27.9871 2.55112Z" fill="#CC1212"/>
</svg>