<svg width="38" height="38" viewBox="0 0 28 34" fill="none"
                                xmlns="http://www.w3.org/2000/svg">
                                <path
                                    d="M18.1641 16.166H14.8307V12.8327C14.8307 12.3327 14.4974 11.9993 13.9974 11.9993C13.4974 11.9993 13.1641 12.3327 13.1641 12.8327V16.166H9.83073C9.33073 16.166 8.9974 16.4993 8.9974 16.9993C8.9974 17.4993 9.33073 17.8327 9.83073 17.8327H13.1641V21.166C13.1641 21.666 13.4974 21.9993 13.9974 21.9993C14.4974 21.9993 14.8307 21.666 14.8307 21.166V17.8327H18.1641C18.6641 17.8327 18.9974 17.4993 18.9974 16.9993C18.9974 16.4993 18.6641 16.166 18.1641 16.166ZM27.3307 3.33268C27.1641 2.83268 26.8307 2.66602 26.3307 2.66602C22.1641 3.49935 17.9974 2.66602 14.4974 0.166016C14.1641 -0.000651038 13.8307 -0.000651038 13.4974 0.166016C9.9974 2.49935 5.83073 3.49935 1.66406 2.66602H1.4974C0.997396 2.66602 0.664062 2.99935 0.664062 3.49935V16.8327C0.664062 21.666 2.9974 26.3327 6.9974 29.166L13.4974 33.8327C13.6641 33.9993 13.8307 33.9993 13.9974 33.9993C14.1641 33.9993 14.3307 33.9993 14.4974 33.8327L20.9974 29.166C24.9974 26.3327 27.3307 21.666 27.3307 16.8327V3.49935C27.3307 3.33268 27.3307 3.33268 27.3307 3.33268ZM25.6641 16.8327C25.6641 21.166 23.4974 25.3327 19.9974 27.8327L13.9974 32.166L7.9974 27.8327C4.4974 25.3327 2.33073 21.166 2.33073 16.8327V4.49935C6.33073 5.16602 10.4974 4.16602 13.9974 1.99935C17.4974 4.16602 21.6641 5.16602 25.6641 4.49935V16.8327Z"
                                    fill="#CC1212" />
                            </svg>