<svg width="38" height="38" viewBox="0 0 34 34" fill="none" xmlns="http://www.w3.org/2000/svg">
<path fill-rule="evenodd" clip-rule="evenodd" d="M7.50059 11.0625C4.87859 11.0625 2.75 13.1911 2.75 15.8131C2.75 18.4351 4.87859 20.5637 7.50059 20.5637C10.1226 20.5637 12.2512 18.4351 12.2512 15.8131C12.2512 13.1911 10.1226 11.0625 7.50059 11.0625ZM7.50059 13.4387C8.81159 13.4387 9.875 14.5021 9.875 15.8131C9.875 17.1241 8.81159 18.1875 7.50059 18.1875C6.18959 18.1875 5.12619 17.1241 5.12619 15.8131C5.12619 14.5021 6.18959 13.4387 7.50059 13.4387Z" fill="url(#paint0_linear_3820_20769)"/>
<path fill-rule="evenodd" clip-rule="evenodd" d="M19.9688 8.6875C18.0022 8.6875 16.4062 10.2835 16.4062 12.25C16.4062 14.2165 18.0022 15.8125 19.9688 15.8125C21.9352 15.8125 23.5312 14.2165 23.5312 12.25C23.5312 10.2835 21.9352 8.6875 19.9688 8.6875ZM19.9688 11.0625C20.6242 11.0625 21.1562 11.5945 21.1562 12.25C21.1562 12.9055 20.6242 13.4375 19.9688 13.4375C19.3133 13.4375 18.7812 12.9055 18.7812 12.25C18.7812 11.5945 19.3133 11.0625 19.9688 11.0625Z" fill="url(#paint1_linear_3820_20769)"/>
<path fill-rule="evenodd" clip-rule="evenodd" d="M14.625 30.0625V29.3274C14.625 25.7982 11.7646 22.9375 8.23626 22.9375H6.76375C3.23539 22.9375 0.375 25.7982 0.375 29.3274V30.0625C0.375 31.0077 0.750551 31.9138 1.41852 32.5812C2.08649 33.2498 2.99197 33.625 3.93751 33.625C6.00673 33.625 8.99328 33.625 11.0625 33.625C12.008 33.625 12.9135 33.2498 13.5815 32.5812C14.2495 31.9138 14.625 31.0077 14.625 30.0625ZM12.25 29.3262V30.0625C12.25 30.3772 12.1253 30.68 11.9027 30.9021C11.68 31.1253 11.3772 31.25 11.0625 31.25H3.93751C3.62283 31.25 3.32 31.1253 3.09734 30.9021C2.87469 30.68 2.75001 30.3772 2.75001 30.0625V29.3274C2.75001 27.1104 4.54758 25.3125 6.76375 25.3125H8.23626C10.4524 25.3125 12.25 27.1104 12.25 29.3262Z" fill="url(#paint2_linear_3820_20769)"/>
<path fill-rule="evenodd" clip-rule="evenodd" d="M8.6875 7.84868V3.93707C8.6875 3.28073 9.2195 2.74888 9.875 2.74888H30.0625C30.718 2.74888 31.25 3.28073 31.25 3.93707V20.5617C31.25 20.8773 31.1253 21.1791 30.9021 21.4016C30.68 21.6242 30.3772 21.7499 30.0625 21.7499H15.8125C15.157 21.7499 14.625 22.2818 14.625 22.9369C14.625 23.5919 15.157 24.1238 15.8125 24.1238C15.8125 24.1238 25.4681 24.1238 30.0625 24.1238C31.0077 24.1238 31.9138 23.7491 32.5812 23.0815C33.2498 22.4125 33.625 21.5073 33.625 20.5617C33.625 16.4489 33.625 8.04986 33.625 3.93707C33.625 1.96932 32.0302 0.375 30.0625 0.375H9.875C7.90731 0.375 6.3125 1.96932 6.3125 3.93707C6.3125 5.71748 6.3125 7.84868 6.3125 7.84868C6.3125 8.50376 6.8445 9.03562 7.5 9.03562C8.1555 9.03562 8.6875 8.50376 8.6875 7.84868Z" fill="url(#paint3_linear_3820_20769)"/>
<defs>
<linearGradient id="paint0_linear_3820_20769" x1="10.1525" y1="11.0625" x2="10.1089" y2="22.5997" gradientUnits="userSpaceOnUse">
<stop stop-color="#005CAA"/>
<stop offset="1" stop-color="#64B0F1"/>
</linearGradient>
<linearGradient id="paint1_linear_3820_20769" x1="21.9574" y1="8.6875" x2="21.9248" y2="17.3393" gradientUnits="userSpaceOnUse">
<stop stop-color="#005CAA"/>
<stop offset="1" stop-color="#64B0F1"/>
</linearGradient>
<linearGradient id="paint2_linear_3820_20769" x1="11.4773" y1="22.9375" x2="11.4406" y2="35.9154" gradientUnits="userSpaceOnUse">
<stop stop-color="#005CAA"/>
<stop offset="1" stop-color="#64B0F1"/>
</linearGradient>
<linearGradient id="paint3_linear_3820_20769" x1="27.5919" y1="0.375" x2="27.4973" y2="29.2131" gradientUnits="userSpaceOnUse">
<stop stop-color="#005CAA"/>
<stop offset="1" stop-color="#64B0F1"/>
</linearGradient>
</defs>
</svg>