       <svg width="38" height="38" viewBox="0 0 30 28" fill="none"
                                xmlns="http://www.w3.org/2000/svg">
                                <path
                                    d="M28.8853 11.5023C28.6826 11.355 28.4063 11.401 28.2636 11.6037L27.6325 12.4742C27.0154 5.75848 21.4559 0.618164 14.6067 0.618164C7.40728 0.618164 1.54822 6.46311 1.52542 13.6581C1.15242 14.0912 0.935934 14.63 0.926597 15.2104C0.885246 17.7207 2.41902 20.8436 4.93375 23.3587C7.41645 25.8414 10.4888 27.3705 12.9854 27.3705H13.0868C13.6625 27.3614 14.1969 27.1493 14.6252 26.781C20.3366 26.7719 25.3391 23.1146 27.0708 17.6746C27.1446 17.4396 27.0154 17.1909 26.7807 17.1126C26.5457 17.0388 26.297 17.168 26.2187 17.4027C24.7034 22.1654 20.4981 25.4587 15.5836 25.8501L16.1456 25.2928C16.2792 25.1592 16.3943 24.9887 16.4725 24.8047C16.7122 24.229 16.583 23.5748 16.1456 23.1373L14.2386 21.2303C13.6444 20.6361 12.6816 20.6361 12.0875 21.2303L10.6826 22.6351C10.6688 22.6489 10.6413 22.6582 10.6273 22.6442C9.60476 22.0225 8.64673 21.267 7.7762 20.3918C6.94709 19.5627 6.22395 18.66 5.62046 17.6972C5.61134 17.6835 5.61579 17.6559 5.62958 17.6419L7.06202 16.2095C7.65617 15.6153 7.65617 14.6481 7.06202 14.0584L5.15501 12.1514C4.64842 11.6448 3.84217 11.5619 3.21576 11.9764C3.14197 12.0318 3.07305 12.0869 3.00392 12.156L2.59869 12.5659C2.59403 12.5706 2.58957 12.5706 2.58491 12.5751C2.58024 12.5797 2.58024 12.5842 2.57579 12.5889L2.46977 12.6949C2.98103 6.44008 8.22731 1.51148 14.607 1.51148C21.0919 1.51148 26.3387 6.45848 26.767 12.8653L25.6062 12.0224C25.4035 11.8797 25.1271 11.9211 24.9844 12.1238C24.8417 12.3219 24.8831 12.6028 25.0858 12.7455L26.9881 14.1228C27.0664 14.1782 27.1586 14.2057 27.2507 14.2057C27.3889 14.2057 27.527 14.1413 27.6099 14.0215L28.9872 12.1191C29.1299 11.9255 29.0836 11.6445 28.8856 11.5018L28.8853 11.5023ZM13.6071 21.8611L15.5141 23.7681C15.6938 23.9477 15.7491 24.2196 15.6524 24.459C15.6202 24.5373 15.5742 24.6064 15.5188 24.6618L15.4083 24.7678L12.6079 21.9674L12.714 21.8614C12.9623 21.6124 13.3631 21.6124 13.6071 21.8611ZM5.00286 17.0064C4.68966 17.3196 4.63431 17.7986 4.8646 18.1672C5.50479 19.185 6.26946 20.143 7.1446 21.0182C8.06577 21.9394 9.08385 22.7409 10.1661 23.3996C10.5347 23.6252 11.009 23.5654 11.3176 23.2569L11.9809 22.5936L14.7768 25.3895L14.1367 26.0297C13.8557 26.3107 13.478 26.4674 13.0725 26.4718H12.9805C10.7143 26.4718 7.88612 25.0438 5.56454 22.7225C3.21544 20.3734 1.77833 17.4992 1.81991 15.224C1.82903 14.8188 1.98574 14.4409 2.26204 14.1555L2.89778 13.5106L5.69371 16.3065L5.00286 17.0064ZM3.72693 12.6995C3.83295 12.6304 3.95722 12.5935 4.07702 12.5935C4.24285 12.5935 4.40401 12.658 4.52382 12.7778L6.43083 14.6848C6.6749 14.9289 6.6749 15.3297 6.43083 15.5737L6.3248 15.6798L3.52887 12.8838L3.63489 12.7778C3.67179 12.7411 3.71314 12.7089 3.72693 12.6995Z"
                                    fill="url(#paint0_linear_6052_30741)" />
                                <path
                                    d="M14.607 5.03958C14.8557 5.03958 15.0538 4.84153 15.0538 4.59278V3.01296C15.0538 2.76422 14.8557 2.56616 14.607 2.56616C14.3582 2.56616 14.1602 2.76422 14.1602 3.01296V4.59278C14.1602 4.84152 14.3582 5.03958 14.607 5.03958Z"
                                    fill="url(#paint1_linear_6052_30741)" />
                                <path
                                    d="M8.81944 4.11872C8.6076 4.24299 8.5338 4.51484 8.65827 4.72667L9.44585 6.09461C9.52876 6.23732 9.6808 6.31578 9.83285 6.31578C9.90664 6.31578 9.98489 6.29733 10.054 6.25598C10.2659 6.13172 10.3397 5.85986 10.2152 5.64804L9.4276 4.28009C9.30758 4.06804 9.03127 3.99425 8.81944 4.11872Z"
                                    fill="url(#paint2_linear_6052_30741)" />
                                <path
                                    d="M19.7777 23.9941C19.8606 24.1368 20.0126 24.2152 20.1647 24.2152C20.2385 24.2152 20.3167 24.1968 20.3858 24.1554C20.5977 24.0312 20.6715 23.7593 20.547 23.5475L19.7594 22.1795C19.6351 21.9677 19.3633 21.8939 19.1515 22.0184C18.9396 22.1426 18.8658 22.4145 18.9903 22.6263L19.7777 23.9941Z"
                                    fill="url(#paint3_linear_6052_30741)" />
                                <path
                                    d="M5.19582 8.19041C4.98398 8.06614 4.70767 8.13973 4.58787 8.35157C4.46361 8.56341 4.53719 8.83972 4.74903 8.95952L6.11698 9.7471C6.18611 9.78845 6.26435 9.8069 6.33815 9.8069C6.49019 9.8069 6.64224 9.72865 6.72515 9.58573C6.84941 9.37389 6.77583 9.09758 6.56398 8.97778L5.19582 8.19041Z"
                                    fill="url(#paint4_linear_6052_30741)" />
                                <path
                                    d="M24.4622 19.314L23.0943 18.5265C22.8824 18.4022 22.6061 18.4758 22.4863 18.6876C22.362 18.8995 22.4356 19.1758 22.6475 19.2956L24.0154 20.0832C24.0845 20.1245 24.1628 20.143 24.2366 20.143C24.3886 20.143 24.5407 20.0647 24.6236 19.9218C24.7478 19.7102 24.674 19.4338 24.4622 19.314Z"
                                    fill="url(#paint5_linear_6052_30741)" />
                                <path
                                    d="M24.6235 8.35154C24.4992 8.1397 24.2273 8.06591 24.0155 8.19038L22.6476 8.97796C22.4357 9.10222 22.3619 9.37407 22.4864 9.5859C22.5693 9.72861 22.7214 9.80707 22.8734 9.80707C22.9472 9.80707 23.0254 9.78862 23.0946 9.74727L24.4625 8.95969C24.6741 8.83967 24.7479 8.56783 24.6235 8.35154Z"
                                    fill="url(#paint6_linear_6052_30741)" />
                                <path
                                    d="M20.3935 4.11863C20.1817 3.99437 19.9054 4.06795 19.7856 4.2798L18.998 5.64774C18.8738 5.85958 18.9473 6.13589 19.1592 6.25569C19.2283 6.29704 19.3066 6.31549 19.3804 6.31549C19.5324 6.31549 19.6844 6.23724 19.7674 6.09432L20.5549 4.72637C20.679 4.51474 20.6054 4.24288 20.3935 4.11863Z"
                                    fill="url(#paint7_linear_6052_30741)" />
                                <path
                                    d="M14.0935 11.9029C13.3288 12.101 12.7578 12.7965 12.7578 13.6256C12.7578 14.6112 13.5592 15.4128 14.5403 15.4128C14.9227 15.4128 15.2865 15.2886 15.5904 15.0674L19.0034 17.8818C19.0863 17.9509 19.1877 17.9831 19.2891 17.9831C19.418 17.9831 19.5469 17.9278 19.6345 17.822C19.7912 17.633 19.7634 17.3521 19.5747 17.1956L16.157 14.3767C16.2631 14.1418 16.3275 13.8886 16.3275 13.6259C16.3275 12.7967 15.7564 12.1012 14.9872 11.9032V6.7903C14.9872 6.54157 14.7891 6.34351 14.5404 6.34351C14.2916 6.34351 14.0936 6.54156 14.0936 6.7903L14.0935 11.9029ZM15.4339 13.6254C15.4339 13.8326 15.3601 14.0353 15.2312 14.192C15.0607 14.3992 14.8075 14.519 14.5403 14.519C14.0475 14.519 13.6513 14.1183 13.6513 13.6254C13.6513 13.1326 14.0521 12.7318 14.5403 12.7318C15.0331 12.7318 15.4339 13.1326 15.4339 13.6254Z"
                                    fill="url(#paint8_linear_6052_30741)" />
                                <defs>
                                    <linearGradient id="paint0_linear_6052_30741" x1="22.8533" y1="0.618164"
                                        x2="22.7368" y2="33.1034" gradientUnits="userSpaceOnUse">
                                        <stop stop-color="#005CAA" />
                                        <stop offset="1" stop-color="#64B0F1" />
                                    </linearGradient>
                                    <linearGradient id="paint1_linear_6052_30741" x1="14.8564" y1="2.56616" x2="14.825"
                                        y2="5.56934" gradientUnits="userSpaceOnUse">
                                        <stop stop-color="#005CAA" />
                                        <stop offset="1" stop-color="#64B0F1" />
                                    </linearGradient>
                                    <linearGradient id="paint2_linear_6052_30741" x1="9.90511" y1="4.05811" x2="9.8912"
                                        y2="6.79956" gradientUnits="userSpaceOnUse">
                                        <stop stop-color="#005CAA" />
                                        <stop offset="1" stop-color="#64B0F1" />
                                    </linearGradient>
                                    <linearGradient id="paint3_linear_6052_30741" x1="20.237" y1="21.9578" x2="20.2231"
                                        y2="24.699" gradientUnits="userSpaceOnUse">
                                        <stop stop-color="#005CAA" />
                                        <stop offset="1" stop-color="#64B0F1" />
                                    </linearGradient>
                                    <linearGradient id="paint4_linear_6052_30741" x1="6.28683" y1="8.12988" x2="6.28112"
                                        y2="10.1663" gradientUnits="userSpaceOnUse">
                                        <stop stop-color="#005CAA" />
                                        <stop offset="1" stop-color="#64B0F1" />
                                    </linearGradient>
                                    <linearGradient id="paint5_linear_6052_30741" x1="24.1852" y1="18.4659" x2="24.1795"
                                        y2="20.5023" gradientUnits="userSpaceOnUse">
                                        <stop stop-color="#005CAA" />
                                        <stop offset="1" stop-color="#64B0F1" />
                                    </linearGradient>
                                    <linearGradient id="paint6_linear_6052_30741" x1="24.1852" y1="8.12976" x2="24.1795"
                                        y2="10.1665" gradientUnits="userSpaceOnUse">
                                        <stop stop-color="#005CAA" />
                                        <stop offset="1" stop-color="#64B0F1" />
                                    </linearGradient>
                                    <linearGradient id="paint7_linear_6052_30741" x1="20.2447" y1="4.05811" x2="20.2308"
                                        y2="6.7992" gradientUnits="userSpaceOnUse">
                                        <stop stop-color="#005CAA" />
                                        <stop offset="1" stop-color="#64B0F1" />
                                    </linearGradient>
                                    <linearGradient id="paint8_linear_6052_30741" x1="18.1948" y1="6.34351" x2="18.1058"
                                        y2="20.4771" gradientUnits="userSpaceOnUse">
                                        <stop stop-color="#005CAA" />
                                        <stop offset="1" stop-color="#64B0F1" />
                                    </linearGradient>
                                </defs>
                            </svg>