<svg width="38" height="38" viewBox="0 0 32 32" fill="none" xmlns="http://www.w3.org/2000/svg">
<path d="M24.9801 27.3235C26.2696 27.3235 27.2728 26.2729 27.2728 25.0309C27.2728 23.7414 26.2221 22.7383 24.9801 22.7383C23.6906 22.7383 22.6875 23.789 22.6875 25.0309C22.6877 26.2729 23.6906 27.3235 24.9801 27.3235ZM24.9801 23.6459C25.7444 23.6459 26.3174 24.2669 26.3174 24.9831C26.3174 25.6997 25.6964 26.3204 24.9801 26.3204C24.2636 26.3204 23.6429 25.6994 23.6429 24.9831C23.6429 24.2669 24.2638 23.6459 24.9801 23.6459Z" fill="#CC1212"/>
<path d="M1.77015 31.7645H21.3524C22.1643 31.7645 22.8808 31.0957 22.8808 30.2361V30.1406C23.0719 30.2361 23.2152 30.2839 23.4062 30.3317L23.7884 31.4301C23.8361 31.6212 24.0272 31.7645 24.2183 31.7645H25.7942C25.9852 31.7645 26.1763 31.6212 26.2241 31.4301L26.6062 30.3317C26.9406 30.2361 27.275 30.0928 27.6091 29.9017L28.6598 30.4272C28.8509 30.5227 29.042 30.475 29.1853 30.3317L30.3315 29.1854C30.4748 29.0421 30.5226 28.8033 30.427 28.66L29.9016 27.6093C30.0927 27.2749 30.236 26.9405 30.3315 26.6064L31.4299 26.2242C31.621 26.1765 31.7643 25.9854 31.7643 25.7943V24.2182C31.7643 24.0271 31.621 23.8361 31.4299 23.7883L30.3315 23.4062C30.236 23.0718 30.0927 22.7374 29.9016 22.4032L30.427 21.3526C30.5226 21.1615 30.4748 20.9704 30.3315 20.8271L29.1853 19.6809C29.042 19.5376 28.8031 19.4898 28.6598 19.5853L27.6091 20.0628C27.2748 19.8717 26.9404 19.7762 26.6062 19.6329L26.2241 18.5344C26.1763 18.3434 25.9852 18.2001 25.7942 18.2001H24.2181C24.027 18.2001 23.8359 18.3434 23.7881 18.5344L23.406 19.6329C23.2149 19.6807 23.0239 19.7762 22.8806 19.824V7.40626C22.8806 7.21518 22.8328 7.07188 22.6895 6.97635L16.0032 0.38549C15.9077 0.289953 15.7644 0.242188 15.6688 0.242188H1.77053C0.958702 0.242188 0.242188 0.91093 0.242188 1.77053V30.2837C0.242188 31.0957 0.910702 31.7642 1.77053 31.7642L1.77015 31.7645ZM23.8359 20.493C23.9792 20.4453 24.1225 20.3497 24.1702 20.2064L24.5046 19.2035H25.412L25.7464 20.2064C25.7941 20.3497 25.9374 20.493 26.0807 20.493C26.5107 20.5886 26.9403 20.7796 27.3225 21.0185C27.4658 21.114 27.6568 21.114 27.8001 21.0185L28.7553 20.5408L29.424 21.2095L28.9464 22.1647C28.8986 22.308 28.8986 22.4991 28.9464 22.6424C29.1852 23.0245 29.3285 23.4542 29.4718 23.8841C29.5196 24.0274 29.6151 24.1707 29.7584 24.2185L30.7613 24.5528V25.4602L29.8059 25.7946C29.6626 25.8423 29.5193 25.9857 29.5193 26.129C29.4238 26.5589 29.2327 26.9886 28.9939 27.3707C28.8984 27.514 28.8984 27.6573 28.9939 27.8483L29.4716 28.8035L28.8028 29.4245L27.8477 28.9468C27.7044 28.899 27.5133 28.899 27.4178 28.9468C27.0356 29.1856 26.6059 29.3289 26.1761 29.4722C26.0328 29.52 25.8895 29.6155 25.8417 29.7588L25.5073 30.7617H24.5999L24.2656 29.7588C24.2178 29.6155 24.0745 29.4722 23.9312 29.4722C23.5013 29.3767 23.0716 29.1856 22.6895 28.9468C22.5462 28.8512 22.4029 28.8512 22.2596 28.9468L21.3044 29.4245L20.5404 28.8035L21.018 27.8483C21.0658 27.705 21.0658 27.514 21.018 27.3707C20.7792 26.9885 20.6359 26.6064 20.4926 26.129C20.4448 25.9857 20.3493 25.8423 20.206 25.7946L19.2031 25.4602V24.5528L20.206 24.2185C20.3493 24.1707 20.4926 24.0274 20.4926 23.8841C20.5881 23.4542 20.7792 23.0245 21.018 22.6424C21.1136 22.4991 21.1136 22.308 21.018 22.1647L20.5404 21.2095L21.2091 20.5408L22.1642 21.0185C22.3075 21.0662 22.4986 21.0662 22.6419 21.0185C23.0241 20.7796 23.4059 20.6363 23.8359 20.493ZM16.1462 1.86617L21.2089 6.92891H16.1462V1.86617ZM1.19701 1.77063C1.19701 1.43626 1.43585 1.19743 1.77021 1.19743H15.1914V7.40658C15.1914 7.69318 15.3824 7.88426 15.669 7.88426H21.8782V19.8248L21.305 19.5382C21.1139 19.4427 20.9228 19.4905 20.7795 19.6338L19.6333 20.78C19.49 20.9233 19.4422 21.1621 19.5378 21.3054L20.0632 22.3561C19.8721 22.6905 19.7766 23.0249 19.6333 23.359L18.5348 23.7412C18.3438 23.7889 18.2005 23.98 18.2005 24.1711V25.795C18.2005 25.986 18.3438 26.1771 18.5348 26.2249L19.6333 26.607C19.7288 26.9414 19.8721 27.2758 20.0632 27.6099L19.5378 28.6606C19.4422 28.8517 19.49 29.0428 19.6333 29.1861L20.7795 30.3323C20.9228 30.4756 21.1617 30.5234 21.305 30.4278L21.8782 30.1412V30.2368C21.8782 30.5234 21.6393 30.81 21.305 30.81H1.72269C1.43609 30.81 1.14949 30.5711 1.14949 30.2368V1.77105L1.19701 1.77063Z" fill="#CC1212"/>
<path d="M3.82143 8.0745H12.562C12.8486 8.0745 13.0397 7.88343 13.0397 7.59682C13.0397 7.31021 12.8486 7.11914 12.562 7.11914L3.82143 7.11936C3.53482 7.11936 3.34375 7.31044 3.34375 7.59704C3.34375 7.88343 3.53482 8.0745 3.82143 8.0745Z" fill="#CC1212"/>
<path d="M3.82143 11.4183H19.2483C19.5349 11.4183 19.726 11.2272 19.726 10.9406C19.726 10.654 19.5349 10.4629 19.2483 10.4629H3.82143C3.53482 10.4629 3.34375 10.654 3.34375 10.9406C3.34375 11.2272 3.53482 11.4183 3.82143 11.4183Z" fill="#CC1212"/>
<path d="M3.82143 14.762H19.2483C19.5349 14.762 19.726 14.5709 19.726 14.2843C19.726 13.9977 19.5349 13.8066 19.2483 13.8066H3.82143C3.53482 13.8066 3.34375 13.9977 3.34375 14.2843C3.34375 14.5709 3.53482 14.762 3.82143 14.762Z" fill="#CC1212"/>
<path d="M3.82143 4.77958H12.562C12.8486 4.77958 13.0397 4.5885 13.0397 4.3019C13.0397 4.01529 12.8486 3.82422 12.562 3.82422L3.82143 3.82444C3.53482 3.82444 3.34375 4.01529 3.34375 4.3019C3.34375 4.58851 3.53482 4.77958 3.82143 4.77958Z" fill="#CC1212"/>
<path d="M5.16402 28.5156C5.25956 28.6112 5.40286 28.6589 5.4984 28.6589C5.59393 28.6589 5.73724 28.6112 5.83277 28.5156L9.22386 25.1245C9.41493 24.9335 9.41493 24.6469 9.22386 24.4558C9.03278 24.2647 8.74618 24.2647 8.55512 24.4558L5.49843 27.5125L3.87454 25.8886C3.68347 25.6975 3.39686 25.6975 3.2058 25.8886C3.01474 26.0797 3.01473 26.3663 3.2058 26.5573L5.16402 28.5156Z" fill="#CC1212"/>
<path d="M16.3815 24.2188H11.4621C11.1754 24.2188 10.9844 24.4098 10.9844 24.6964C10.9844 24.983 11.1754 25.1741 11.4621 25.1741H16.3815C16.6681 25.1741 16.8592 24.983 16.8592 24.6964C16.8589 24.4098 16.6203 24.2188 16.3815 24.2188Z" fill="#CC1212"/>
<path d="M16.3815 27.7051H11.4621C11.1754 27.7051 10.9844 27.8962 10.9844 28.1828C10.9844 28.4694 11.1754 28.6604 11.4621 28.6604H16.3815C16.6681 28.6604 16.8592 28.4694 16.8592 28.1828C16.8589 27.8962 16.6203 27.7051 16.3815 27.7051Z" fill="#CC1212"/>
<path d="M5.30487 21.543C5.40041 21.6385 5.54371 21.6863 5.63925 21.6863C5.73479 21.6863 5.87809 21.6385 5.97363 21.543L9.36471 18.1519C9.55579 17.9608 9.55579 17.6742 9.36471 17.4831C9.17364 17.2921 8.88703 17.2921 8.69597 17.4831L5.63906 20.5398L4.01517 18.9159C3.8241 18.7249 3.53749 18.7249 3.34643 18.9159C3.15536 19.107 3.15535 19.3936 3.34643 19.5847L5.30487 21.543Z" fill="#CC1212"/>
<path d="M11.6105 17.2441C11.3239 17.2441 11.1328 17.4352 11.1328 17.7218C11.1328 18.0084 11.3239 18.1995 11.6105 18.1995H19.3956C19.6822 18.1995 19.8733 18.0084 19.8733 17.7218C19.8733 17.4352 19.6822 17.2441 19.3956 17.2441H11.6105Z" fill="#CC1212"/>
<path d="M16.5299 20.7324H11.6105C11.3239 20.7324 11.1328 20.9235 11.1328 21.2101C11.1328 21.4967 11.3239 21.6878 11.6105 21.6878H16.5299C16.8165 21.6878 17.0076 21.4967 17.0076 21.2101C17.0074 20.9235 16.7688 20.7324 16.5299 20.7324Z" fill="#CC1212"/>
</svg>