<svg width="38" height="38" viewBox="0 0 31 32" fill="none" xmlns="http://www.w3.org/2000/svg">
<path d="M29.0904 1.62108V2.76171V5.71171V9.75548V14.2055V18.3804V21.5648V22.5648C29.0904 22.7242 29.0747 22.893 29.0904 23.0555V23.0867C29.0841 23.0117 29.0841 23.0805 29.0904 23.0867C29.0966 23.0742 29.1029 23.0617 29.1091 23.0492C29.0841 23.0898 29.081 23.0961 29.1029 23.068C29.0497 23.1055 29.1404 23.0117 29.1029 23.068C29.1091 23.0648 29.1122 23.0586 29.1185 23.0555C29.0716 23.0805 29.0716 23.0805 29.1216 23.0586C29.1091 23.0617 29.0966 23.0648 29.081 23.068C29.1216 23.0617 29.1372 23.0586 29.1216 23.0586C29.0622 23.0523 28.9997 23.0586 28.9404 23.0586H27.7029H23.5091H20.3216H20.1529C20.3091 23.2148 20.4654 23.3711 20.6216 23.5273V19.9305V19.4117C20.6216 19.1586 20.406 18.943 20.1529 18.943H17.3467H12.8904H11.8654C11.6123 18.943 11.3966 19.1586 11.3966 19.4117V23.0086V23.5273C11.5529 23.3711 11.7091 23.2148 11.8654 23.0586H9.79042H5.74665H3.00288H2.91538H2.89976C2.89976 23.0586 2.97476 23.0773 2.92163 23.0617C2.91538 23.0586 2.90913 23.0586 2.90288 23.0555L2.92163 23.0648C2.89351 23.0461 2.89663 23.0523 2.93726 23.0805C2.92788 23.0711 2.91851 23.0617 2.90913 23.0523C2.91851 23.0617 2.92476 23.0742 2.93413 23.0836C2.92788 23.0711 2.92163 23.0617 2.91538 23.0492C2.92163 23.0617 2.92788 23.0742 2.93413 23.0867C2.93101 23.0742 2.92788 23.0617 2.92476 23.0461C3.05601 23.068 2.93101 23.1023 2.93413 23.0867V23.0773V23.0367C2.94038 22.8805 2.93413 22.7211 2.93413 22.5617V20.3461V16.918V12.8649V8.71172V5.08984V2.52732V1.82732C2.93413 1.77107 2.93726 1.7117 2.93413 1.65545V1.61795V1.6117C2.93413 1.60857 2.92476 1.65232 2.92476 1.65232C2.92788 1.63982 2.93101 1.62732 2.93413 1.6117C2.92788 1.6242 2.92163 1.6367 2.91538 1.6492C2.94351 1.60545 2.94038 1.60232 2.90913 1.64607C2.91851 1.6367 2.92788 1.62732 2.93726 1.61795C2.92788 1.62732 2.91538 1.63357 2.90601 1.64295C2.91851 1.6367 2.92788 1.63045 2.94038 1.6242C2.92788 1.63045 2.91538 1.6367 2.90288 1.64295C2.91538 1.63982 2.92788 1.6367 2.94351 1.63357C2.92476 1.78982 2.88726 1.63982 2.90288 1.64295H2.90913H2.94038C2.98726 1.64607 3.03725 1.64295 3.08413 1.64295H3.67476H5.87476H9.10287H13.0185H17.181H21.2497H24.8278H27.5341H28.9809C29.0184 1.64295 29.0622 1.6492 29.0965 1.64295H29.1184C29.1247 1.64295 29.1216 1.63357 29.0965 1.63982C29.0903 1.63982 29.0841 1.6367 29.0747 1.6367C29.1216 1.6492 29.1278 1.6492 29.0965 1.6367C29.0903 1.63357 29.0841 1.63045 29.0778 1.62732C29.1184 1.65232 29.1247 1.65545 29.0965 1.63357C29.0872 1.5992 29.1278 1.64295 29.0965 1.63357C29.0497 1.61795 29.1247 1.67732 29.0934 1.63357C29.0716 1.59607 29.0965 1.72732 29.0903 1.62107C29.1028 1.86482 29.2966 2.10232 29.5591 2.08982C29.8028 2.08045 30.0403 1.88357 30.0278 1.62107C30.0028 1.11482 29.6278 0.730444 29.1153 0.714844H29.0247H28.5215H26.4403H23.2371H19.334H15.1184H10.9715H7.32154H4.54028H3.04651C2.74963 0.714844 2.46211 0.761719 2.24028 0.992969C2.0184 1.22735 1.98715 1.51172 1.98715 1.80857V3.60543V6.7992V10.8148V15.0335V18.8773V21.7523C1.98715 22.1898 1.9809 22.6304 1.98715 23.0679C1.99653 23.6335 2.4309 23.9991 2.97778 23.9991H3.96527H7.79652H11.2934H11.859C12.1121 23.9991 12.3278 23.7835 12.3278 23.5304V19.9335V19.4148C12.1715 19.571 12.0153 19.7273 11.859 19.8835H14.6652H19.1215H20.1465C19.9902 19.7273 19.834 19.571 19.6777 19.4148V23.0116V23.5304C19.6777 23.7835 19.8934 23.9991 20.1465 23.9991H22.509H26.8621H28.5059C28.7747 23.9991 29.0965 24.0398 29.3621 23.9648C29.7653 23.8523 30.009 23.4804 30.0215 23.0773V22.9273V22.2117V19.4242V15.4273V10.9399V6.67734V3.35545V1.69294V1.62106C30.0215 1.37731 29.8059 1.13981 29.5528 1.15231C29.3059 1.16169 29.0903 1.35858 29.0903 1.62107L29.0904 1.62108Z" fill="url(#paint0_linear_4003_36731)"/>
<path d="M24.4759 14.9851H23.3415H20.4728H16.6696H12.7384H9.47588H7.68525H7.56337H7.55712C7.63525 14.9851 7.55087 14.9976 7.55712 14.982C7.5665 14.9601 7.61337 15.0383 7.579 14.9883C7.54775 14.9414 7.61025 15.0226 7.6165 15.0351C7.5415 14.9476 7.629 15.032 7.61025 15.0383C7.59462 15.0445 7.60712 14.9601 7.60712 15.0383V15.0351V15.0195C7.604 14.8008 7.60712 14.582 7.60712 14.3601V11.1445V7.28203C7.60712 6.53826 7.63212 5.78826 7.60712 5.04454V4.99142V4.98829C7.60712 4.97267 7.52275 5.04142 7.59775 5.02892C7.60087 5.02267 7.60087 5.01642 7.604 5.01017C7.61337 4.97892 7.61025 4.98204 7.59462 5.02892C7.579 5.02579 7.67587 4.94454 7.5915 5.02892C7.58525 5.03517 7.54462 5.07892 7.57587 5.04142C7.51962 5.05079 7.61025 5.00079 7.57587 5.04142C7.65087 5.02892 7.5165 5.04454 7.554 5.04454H7.63525H8.22588H10.7509H14.4009H18.3759H21.8727H24.0915C24.2165 5.04454 24.3446 5.05079 24.4696 5.04454H24.4759C24.4915 5.04454 24.429 4.90704 24.4352 5.03517C24.4415 5.03829 24.4477 5.03829 24.454 5.04142C24.4852 5.05079 24.4821 5.04767 24.4352 5.03204C24.4352 5.02892 24.5009 5.07892 24.454 5.04142C24.4352 5.03204 24.4227 5.01642 24.4134 4.99767C24.4196 5.01017 24.4259 5.01954 24.4352 5.03204C24.429 5.01954 24.4259 5.00704 24.4196 4.99454C24.4227 5.00704 24.4259 5.01954 24.429 5.03517C24.5071 5.04767 24.4196 4.97892 24.4196 4.99454V4.99767V5.01642C24.4071 5.08829 24.4196 5.17267 24.4196 5.24454V7.96643V11.8789V14.7164C24.4196 14.8039 24.4165 14.8946 24.4196 14.9821V15.0352V15.0383C24.4196 14.9602 24.4321 15.0446 24.4165 15.0383C24.4009 15.0321 24.4852 14.9477 24.4102 15.0352C24.4259 15.0196 24.429 15.0008 24.4509 14.9914C24.5102 14.9602 24.3852 15.0071 24.4509 14.9946C24.5321 14.9758 24.3477 14.9914 24.4759 14.9852C24.2321 14.9977 23.9946 15.1914 24.0071 15.4539C24.0165 15.6977 24.2134 15.9352 24.4759 15.9227C24.9759 15.8977 25.3446 15.5258 25.3603 15.0227C25.3634 14.9508 25.3603 14.8789 25.3603 14.8071V13.7321V10.0602V6.37271V5.25711V5.01649C25.354 4.61336 25.1071 4.2446 24.704 4.13837C24.5415 4.09462 24.3634 4.10712 24.1946 4.10712H23.3665H20.4446H16.5602H12.5634H9.31339H7.62899C7.10399 4.10712 6.68213 4.4665 6.66962 5.01026C6.66337 5.23214 6.66962 5.45401 6.66962 5.67586V8.97586V12.8915C6.66962 13.6008 6.65712 14.3071 6.66962 15.0165C6.67899 15.5571 7.09774 15.9227 7.61962 15.9227H8.19773H10.7602H14.4758H18.5227H22.0414H24.1821H24.4727C24.7164 15.9227 24.954 15.7071 24.9414 15.454C24.9352 15.1977 24.7384 14.9852 24.4759 14.9852L24.4759 14.9851Z" fill="url(#paint1_linear_4003_36731)"/>
<path d="M22.3442 18.9453H19.8473H17.5723H15.2817H12.2411H9.79422H9.68797C9.44422 18.9453 9.20672 19.1609 9.21922 19.4141C9.23173 19.6672 9.42547 19.8828 9.68797 19.8828H12.1848H14.8911H17.1879H19.7441H22.2379H22.3442C22.5879 19.8828 22.8254 19.6672 22.8129 19.4141C22.8035 19.1578 22.6067 18.9453 22.3442 18.9453Z" fill="url(#paint2_linear_4003_36731)"/>
<path d="M19.6844 19.4145V20.8176V23.8489V26.7364V27.5895C19.6844 27.6458 19.6719 27.7145 19.6844 27.7677V27.7833C19.6563 27.7645 19.7375 27.6708 19.7438 27.6645C19.7938 27.6145 19.9219 27.6083 19.8156 27.6052C18.9719 27.5895 18.125 27.6052 17.2812 27.6052H17.2031C17.3594 27.7614 17.5156 27.9177 17.6719 28.0739V25.1427V20.4771V19.4145L17.2031 19.8833H19.7812H20.1531C20.3969 19.8833 20.6344 19.6677 20.6219 19.4145C20.6094 19.1614 20.4156 18.9458 20.1531 18.9458H17.575H17.2031C16.95 18.9458 16.7344 19.1614 16.7344 19.4145V22.3458V27.0114V28.0739C16.7344 28.327 16.95 28.5427 17.2031 28.5427H19.675C19.8719 28.5427 20.0594 28.5427 20.2406 28.4427C20.4938 28.302 20.6156 28.0333 20.6219 27.752C20.625 27.5489 20.6219 27.3427 20.6219 27.1395V24.4083V21.2083C20.6219 20.6208 20.6375 20.0301 20.6219 19.4427L20.6219 19.4145C20.6219 19.1708 20.4062 18.9333 20.1531 18.9458C19.9 18.9552 19.6844 19.152 19.6844 19.4145Z" fill="url(#paint3_linear_4003_36731)"/>
<path d="M16.7382 19.4146V22.3458V27.0114V28.074L17.2069 27.6052H14.5101H12.7601H12.2601C12.2351 27.6052 12.1851 27.5958 12.1601 27.6052C12.2132 27.5833 12.3601 27.724 12.3351 27.7802C12.3538 27.7333 12.3351 27.6302 12.3351 27.5802V27.1302V25.6583V21.8271C12.3351 21.0396 12.3694 20.2427 12.3351 19.4552V19.4177C12.1788 19.5739 12.0226 19.7302 11.8663 19.8864H13.6632H16.5476H17.2069C17.4507 19.8864 17.6882 19.6708 17.6757 19.4177C17.6632 19.1646 17.4694 18.9489 17.2069 18.9489H15.4101H12.5257H11.8663C11.6132 18.9489 11.3976 19.1646 11.3976 19.4177V21.4489V25.3489C11.3976 26.1489 11.3819 26.9552 11.3976 27.7552C11.4069 28.1895 11.7132 28.5239 12.1538 28.5427C12.2382 28.5458 12.3225 28.5427 12.4069 28.5427H13.9538H17.1413H17.2038C17.4569 28.5427 17.6725 28.327 17.6725 28.0739V25.1426V20.477V19.4145C17.6725 19.1708 17.4569 18.9333 17.2038 18.9458C16.9506 18.9552 16.7381 19.152 16.7381 19.4145L16.7382 19.4146Z" fill="url(#paint4_linear_4003_36731)"/>
<path d="M0.119867 31.0903C0.11451 31.0934 0.108706 31.0954 0.102902 31.0965C0.0975449 31.0977 0.0915181 31.0983 0.0850449 31.0983C0.0658484 31.0983 0.0506701 31.0934 0.0395089 31.0831C0.0287946 31.0724 0.0234375 31.0579 0.0234375 31.0394C0.0234375 31.0215 0.0287946 31.0073 0.0395089 30.9965C0.0506695 30.9858 0.0658484 30.9805 0.0850449 30.9805C0.0915181 30.9805 0.0975449 30.9814 0.102902 30.9831C0.108705 30.9845 0.114509 30.9865 0.119867 30.9894V31.0126C0.11451 31.009 0.109152 31.0064 0.103795 31.0046C0.0984381 31.0028 0.0926346 31.0019 0.0868306 31.0019C0.0765626 31.0019 0.0685272 31.0055 0.0627232 31.0126C0.0566964 31.0193 0.0537946 31.0282 0.0537946 31.0394C0.0537946 31.0515 0.0566964 31.0608 0.0627232 31.068C0.0685266 31.0747 0.0765626 31.0778 0.0868306 31.0778C0.0926341 31.0778 0.0984375 31.0769 0.103795 31.0751C0.109153 31.0733 0.11451 31.0706 0.119867 31.0671V31.0903Z" fill="url(#paint5_linear_4003_36731)"/>
<path d="M0.204018 31.0328C0.201563 31.0317 0.199107 31.031 0.196875 31.031C0.19442 31.0306 0.191965 31.0301 0.189732 31.0301C0.18259 31.0301 0.176786 31.0326 0.172768 31.0373C0.169196 31.0415 0.167411 31.0478 0.167411 31.056V31.0953H0.140625V31.0096H0.167411V31.0239C0.170982 31.0185 0.174777 31.0147 0.179018 31.0123C0.183705 31.0094 0.189286 31.0078 0.195982 31.0078H0.198661C0.199777 31.0078 0.201562 31.0083 0.204018 31.0087L0.204018 31.0328Z" fill="url(#paint6_linear_4003_36731)"/>
<path d="M0.30201 31.0525V31.0605H0.238616C0.239062 31.0665 0.241294 31.0712 0.244866 31.0748C0.248884 31.0779 0.254688 31.0792 0.261831 31.0792C0.267634 31.0792 0.273661 31.0783 0.279688 31.0766C0.285491 31.0748 0.291742 31.0725 0.298438 31.0694V31.09C0.291741 31.0924 0.285268 31.0942 0.278795 31.0953C0.272098 31.0964 0.265625 31.0971 0.259152 31.0971C0.243527 31.0971 0.231696 31.0933 0.223438 31.0855C0.214955 31.0779 0.210938 31.0667 0.210938 31.0525C0.210938 31.0388 0.214955 31.0281 0.223438 31.0203C0.231696 31.0121 0.243304 31.0078 0.258259 31.0078C0.271206 31.0078 0.281697 31.0121 0.28951 31.0203C0.297768 31.0281 0.30201 31.0388 0.30201 31.0525ZM0.274331 31.0435C0.274331 31.0382 0.272769 31.0342 0.269867 31.031C0.266742 31.0275 0.262724 31.0257 0.257367 31.0257C0.252456 31.0257 0.248438 31.0272 0.244867 31.0301C0.241296 31.0333 0.239064 31.0377 0.238617 31.0435L0.274331 31.0435Z" fill="url(#paint7_linear_4003_36731)"/>
<path d="M0.364955 31.0569C0.358929 31.0569 0.354465 31.0578 0.351562 31.0596C0.348437 31.0614 0.347098 31.0645 0.347098 31.0685C0.347098 31.0721 0.348214 31.0748 0.350669 31.0766C0.352901 31.0783 0.35625 31.0792 0.360491 31.0792C0.365848 31.0792 0.369866 31.0775 0.372991 31.0739C0.376562 31.0703 0.378348 31.0656 0.378348 31.0596V31.0569L0.364955 31.0569ZM0.406027 31.0462V31.0953H0.378348V31.0828C0.374777 31.0882 0.370535 31.0922 0.365848 31.0944C0.361607 31.0962 0.35625 31.0971 0.349776 31.0971C0.340848 31.0971 0.333705 31.0949 0.328348 31.09C0.322991 31.0846 0.320312 31.0779 0.320312 31.0694C0.320312 31.0594 0.323438 31.0522 0.330134 31.048C0.337277 31.0433 0.347991 31.0408 0.362277 31.0408H0.378348V31.0382C0.378348 31.0342 0.376563 31.031 0.372991 31.0292C0.369866 31.027 0.364956 31.0257 0.357813 31.0257C0.351786 31.0257 0.346206 31.0263 0.340848 31.0275C0.335938 31.0288 0.331474 31.0306 0.327455 31.0328V31.0123C0.333259 31.0105 0.339286 31.0094 0.345313 31.0087C0.351116 31.0083 0.356919 31.0078 0.362277 31.0078C0.377679 31.0078 0.388617 31.0109 0.395313 31.0167C0.402455 31.0228 0.406027 31.0326 0.406027 31.0462Z" fill="url(#paint8_linear_4003_36731)"/>
<path d="M0.455134 30.9844V31.0085H0.483705V31.0281H0.455134V31.0647C0.455134 31.0683 0.45558 31.071 0.45692 31.0728C0.458705 31.0741 0.46183 31.0746 0.466741 31.0746H0.481027V31.0942H0.457813C0.447099 31.0942 0.439286 31.0922 0.434598 31.0879C0.430357 31.0833 0.428348 31.0754 0.428348 31.0647V31.0281H0.414062V31.0085H0.428348V30.9844L0.455134 30.9844Z" fill="url(#paint9_linear_4003_36731)"/>
<path d="M0.591073 31.0525V31.0605H0.527678C0.528125 31.0665 0.530357 31.0712 0.533929 31.0748C0.537946 31.0779 0.54375 31.0792 0.550893 31.0792C0.556697 31.0792 0.562723 31.0783 0.56875 31.0766C0.574554 31.0748 0.580804 31.0725 0.5875 31.0694V31.09C0.580803 31.0924 0.57433 31.0942 0.567857 31.0953C0.561161 31.0964 0.554687 31.0971 0.548214 31.0971C0.532589 31.0971 0.520759 31.0933 0.5125 31.0855C0.504018 31.0779 0.5 31.0667 0.5 31.0525C0.5 31.0388 0.504018 31.0281 0.5125 31.0203C0.520759 31.0121 0.532366 31.0078 0.547322 31.0078C0.560268 31.0078 0.570759 31.0121 0.578572 31.0203C0.586831 31.0281 0.591073 31.0388 0.591073 31.0525ZM0.563394 31.0435C0.563394 31.0382 0.561831 31.0342 0.558929 31.031C0.555804 31.0275 0.551787 31.0257 0.546429 31.0257C0.541519 31.0257 0.537501 31.0272 0.533929 31.0301C0.530358 31.0333 0.528126 31.0377 0.527679 31.0435L0.563394 31.0435Z" fill="url(#paint10_linear_4003_36731)"/>
<path d="M0.665848 31.0221V30.9766H0.693527V31.0953H0.665848V31.0828C0.661607 31.0882 0.657143 31.0922 0.652455 31.0944C0.648214 31.0962 0.64308 31.0971 0.637277 31.0971C0.627009 31.0971 0.618527 31.0931 0.611384 31.0846C0.604688 31.0763 0.601562 31.0656 0.601562 31.0525C0.601562 31.0395 0.604688 31.0288 0.611384 31.0203C0.618527 31.0121 0.627009 31.0078 0.637277 31.0078C0.64308 31.0078 0.648215 31.0092 0.652455 31.0114C0.657143 31.0138 0.661607 31.0174 0.665848 31.0221ZM0.647991 31.0775C0.653348 31.0775 0.657366 31.0754 0.660491 31.0712C0.664063 31.0672 0.665848 31.0609 0.665848 31.0525C0.665848 31.0449 0.664063 31.0388 0.660491 31.0346C0.657366 31.0299 0.653348 31.0275 0.647991 31.0275C0.641964 31.0275 0.6375 31.0299 0.634598 31.0346C0.631473 31.0388 0.630134 31.0449 0.630134 31.0525C0.630134 31.0609 0.631473 31.0672 0.634598 31.0712C0.6375 31.0754 0.641964 31.0775 0.647991 31.0775Z" fill="url(#paint11_linear_4003_36731)"/>
<path d="M0.818973 31.0775C0.82433 31.0775 0.828348 31.0754 0.831473 31.0712C0.835044 31.0672 0.83683 31.0609 0.83683 31.0525C0.83683 31.0449 0.835044 31.0388 0.831473 31.0346C0.828348 31.0299 0.82433 31.0275 0.818973 31.0275C0.812946 31.0275 0.808259 31.0299 0.804687 31.0346C0.801562 31.0388 0.800223 31.0449 0.800223 31.0525C0.800223 31.0609 0.801562 31.0672 0.804687 31.0712C0.808259 31.0754 0.812946 31.0775 0.818973 31.0775ZM0.800223 31.0221C0.804241 31.0174 0.808482 31.0138 0.812723 31.0114C0.817411 31.0092 0.822768 31.0078 0.828795 31.0078C0.839509 31.0078 0.847991 31.0121 0.854687 31.0203C0.86116 31.0288 0.864509 31.0395 0.864509 31.0525C0.864509 31.0656 0.861161 31.0763 0.854687 31.0846C0.847991 31.0931 0.839509 31.0971 0.828795 31.0971C0.822768 31.0971 0.817411 31.0962 0.812723 31.0944C0.808482 31.0922 0.804241 31.0882 0.800223 31.0828V31.0953H0.773438V30.9766H0.800223V31.0221Z" fill="url(#paint12_linear_4003_36731)"/>
<path d="M0.875 31.0117H0.902679L0.925 31.0698L0.944643 31.0117H0.972322L0.936607 31.1055C0.933036 31.1148 0.928572 31.1215 0.923214 31.1251C0.918304 31.1291 0.912054 31.1314 0.904465 31.1314H0.889286V31.1135H0.897322C0.902009 31.1135 0.905357 31.1126 0.907143 31.1108C0.909376 31.1095 0.911161 31.1068 0.912501 31.1028L0.913393 31.101L0.875 31.0117Z" fill="url(#paint13_linear_4003_36731)"/>
<path d="M1.11049 31.0123V31.0337C1.10513 31.0308 1.09933 31.0288 1.09353 31.0275C1.08817 31.0263 1.08303 31.0257 1.07835 31.0257C1.07344 31.0257 1.06964 31.0266 1.06674 31.0283C1.06429 31.0297 1.06317 31.0315 1.06317 31.0337C1.06317 31.0362 1.06406 31.0379 1.06585 31.0391C1.06763 31.0404 1.0712 31.0413 1.07656 31.0417L1.08103 31.0426C1.09531 31.0444 1.10469 31.0475 1.1096 31.0516C1.11429 31.0551 1.11674 31.0614 1.11674 31.0703C1.11674 31.0792 1.11317 31.0862 1.10603 31.0908C1.09933 31.0951 1.08951 31.0971 1.07656 31.0971C1.07054 31.0971 1.06451 31.0964 1.05871 31.0953C1.05268 31.0949 1.04665 31.0935 1.04085 31.0917V31.0712C1.04621 31.0743 1.05156 31.0763 1.05692 31.0775C1.06272 31.0788 1.06875 31.0792 1.07478 31.0792C1.08013 31.0792 1.08393 31.0788 1.08638 31.0775C1.08929 31.0757 1.09085 31.0734 1.09085 31.0703C1.09085 31.0681 1.08995 31.0663 1.08817 31.065C1.08638 31.0638 1.08237 31.0629 1.07656 31.0623L1.0721 31.0614C1.0596 31.0603 1.05089 31.0576 1.04621 31.0533C1.04129 31.0493 1.03906 31.0431 1.03906 31.0346C1.03906 31.0257 1.04196 31.0192 1.04799 31.015C1.05446 31.0103 1.06406 31.0078 1.07656 31.0078C1.08192 31.0078 1.08728 31.0085 1.09263 31.0096C1.09844 31.0103 1.10446 31.0112 1.11049 31.0123Z" fill="url(#paint14_linear_4003_36731)"/>
<path d="M1.22634 31.0435V31.0953H1.19866V31.056C1.19866 31.0484 1.19821 31.0433 1.19777 31.0408C1.19777 31.0379 1.19732 31.0355 1.19688 31.0337C1.19554 31.0319 1.1942 31.0308 1.19241 31.0301C1.19063 31.029 1.18839 31.0283 1.18616 31.0283C1.18013 31.0283 1.17545 31.0308 1.17188 31.0355C1.16875 31.0397 1.16741 31.0458 1.16741 31.0533V31.0953H1.14062V30.9766H1.16741V31.0221C1.17143 31.0174 1.17589 31.0138 1.1808 31.0114C1.18549 31.0092 1.19063 31.0078 1.19598 31.0078C1.20603 31.0078 1.21339 31.0109 1.2183 31.0167C1.22366 31.0228 1.22634 31.0317 1.22634 31.0435Z" fill="url(#paint15_linear_4003_36731)"/>
<path d="M1.28683 31.0569C1.2808 31.0569 1.27634 31.0578 1.27344 31.0596C1.27031 31.0614 1.26897 31.0645 1.26897 31.0685C1.26897 31.0721 1.27009 31.0748 1.27254 31.0766C1.27478 31.0783 1.27812 31.0792 1.28237 31.0792C1.28772 31.0792 1.29174 31.0775 1.29487 31.0739C1.29844 31.0703 1.30022 31.0656 1.30022 31.0596V31.0569L1.28683 31.0569ZM1.3279 31.0462V31.0953H1.30022V31.0828C1.29665 31.0882 1.29241 31.0922 1.28772 31.0944C1.28348 31.0962 1.27812 31.0971 1.27165 31.0971C1.26272 31.0971 1.25558 31.0949 1.25022 31.09C1.24487 31.0846 1.24219 31.0779 1.24219 31.0694C1.24219 31.0594 1.24531 31.0522 1.25201 31.048C1.25915 31.0433 1.26987 31.0408 1.28415 31.0408H1.30022V31.0382C1.30022 31.0342 1.29844 31.031 1.29487 31.0292C1.29174 31.027 1.28683 31.0257 1.27969 31.0257C1.27366 31.0257 1.26808 31.0263 1.26272 31.0275C1.25781 31.0288 1.25335 31.0306 1.24933 31.0328V31.0123C1.25513 31.0105 1.26116 31.0094 1.26719 31.0087C1.27299 31.0083 1.27879 31.0078 1.28415 31.0078C1.29955 31.0078 1.31049 31.0109 1.31719 31.0167C1.32433 31.0228 1.3279 31.0326 1.3279 31.0462Z" fill="url(#paint16_linear_4003_36731)"/>
<path d="M1.42299 31.0123V31.0337C1.41763 31.0308 1.41183 31.0288 1.40603 31.0275C1.40067 31.0263 1.39553 31.0257 1.39085 31.0257C1.38594 31.0257 1.38214 31.0266 1.37924 31.0283C1.37679 31.0297 1.37567 31.0315 1.37567 31.0337C1.37567 31.0362 1.37656 31.0379 1.37835 31.0391C1.38013 31.0404 1.3837 31.0413 1.38906 31.0417L1.39353 31.0426C1.40781 31.0444 1.41719 31.0475 1.4221 31.0516C1.42679 31.0551 1.42924 31.0614 1.42924 31.0703C1.42924 31.0792 1.42567 31.0862 1.41853 31.0908C1.41183 31.0951 1.40201 31.0971 1.38906 31.0971C1.38304 31.0971 1.37701 31.0964 1.37121 31.0953C1.36518 31.0949 1.35915 31.0935 1.35335 31.0917V31.0712C1.35871 31.0743 1.36406 31.0763 1.36942 31.0775C1.37522 31.0788 1.38125 31.0792 1.38728 31.0792C1.39263 31.0792 1.39643 31.0788 1.39888 31.0775C1.40179 31.0757 1.40335 31.0734 1.40335 31.0703C1.40335 31.0681 1.40245 31.0663 1.40067 31.065C1.39888 31.0638 1.39487 31.0629 1.38906 31.0623L1.3846 31.0614C1.3721 31.0603 1.36339 31.0576 1.35871 31.0533C1.35379 31.0493 1.35156 31.0431 1.35156 31.0346C1.35156 31.0257 1.35446 31.0192 1.36049 31.015C1.36696 31.0103 1.37656 31.0078 1.38906 31.0078C1.39442 31.0078 1.39978 31.0085 1.40513 31.0096C1.41094 31.0103 1.41696 31.0112 1.42299 31.0123Z" fill="url(#paint17_linear_4003_36731)"/>
<path d="M1.53103 31.0435V31.0953H1.50335V31.056C1.50335 31.0484 1.5029 31.0433 1.50246 31.0408C1.50246 31.0379 1.50201 31.0355 1.50156 31.0337C1.50022 31.0319 1.49888 31.0308 1.4971 31.0301C1.49531 31.029 1.49308 31.0283 1.49085 31.0283C1.48482 31.0283 1.48013 31.0308 1.47656 31.0355C1.47344 31.0397 1.4721 31.0458 1.4721 31.0533V31.0953H1.44531V30.9766H1.4721V31.0221C1.47612 31.0174 1.48058 31.0138 1.48549 31.0114C1.49018 31.0092 1.49531 31.0078 1.50067 31.0078C1.51071 31.0078 1.51808 31.0109 1.52299 31.0167C1.52835 31.0228 1.53103 31.0317 1.53103 31.0435Z" fill="url(#paint18_linear_4003_36731)"/>
<path d="M1.59933 31.0569C1.5933 31.0569 1.58884 31.0578 1.58594 31.0596C1.58281 31.0614 1.58147 31.0645 1.58147 31.0685C1.58147 31.0721 1.58259 31.0748 1.58504 31.0766C1.58728 31.0783 1.59062 31.0792 1.59487 31.0792C1.60022 31.0792 1.60424 31.0775 1.60737 31.0739C1.61094 31.0703 1.61272 31.0656 1.61272 31.0596V31.0569L1.59933 31.0569ZM1.6404 31.0462V31.0953H1.61272V31.0828C1.60915 31.0882 1.60491 31.0922 1.60022 31.0944C1.59598 31.0962 1.59062 31.0971 1.58415 31.0971C1.57522 31.0971 1.56808 31.0949 1.56272 31.09C1.55737 31.0846 1.55469 31.0779 1.55469 31.0694C1.55469 31.0594 1.55781 31.0522 1.56451 31.048C1.57165 31.0433 1.58237 31.0408 1.59665 31.0408H1.61272V31.0382C1.61272 31.0342 1.61094 31.031 1.60737 31.0292C1.60424 31.027 1.59933 31.0257 1.59219 31.0257C1.58616 31.0257 1.58058 31.0263 1.57522 31.0275C1.57031 31.0288 1.56585 31.0306 1.56183 31.0328V31.0123C1.56763 31.0105 1.57366 31.0094 1.57969 31.0087C1.58549 31.0083 1.59129 31.0078 1.59665 31.0078C1.61205 31.0078 1.62299 31.0109 1.62969 31.0167C1.63683 31.0228 1.6404 31.0326 1.6404 31.0462Z" fill="url(#paint19_linear_4003_36731)"/>
<path d="M1.74978 31.0435V31.0953H1.7221V31.0551C1.7221 31.048 1.72165 31.0433 1.72121 31.0408C1.72121 31.0379 1.72076 31.0355 1.72031 31.0337C1.71897 31.0319 1.71763 31.0308 1.71585 31.0301C1.71406 31.029 1.71183 31.0283 1.7096 31.0283C1.70357 31.0283 1.69888 31.0308 1.69531 31.0355C1.69219 31.0397 1.69085 31.0458 1.69085 31.0533V31.0953H1.66406V31.0096H1.69085V31.0221C1.69487 31.0174 1.69933 31.0138 1.70424 31.0114C1.70893 31.0092 1.71406 31.0078 1.71942 31.0078C1.72946 31.0078 1.73683 31.0109 1.74174 31.0167C1.7471 31.0228 1.74978 31.0317 1.74978 31.0435Z" fill="url(#paint20_linear_4003_36731)"/>
<path d="M1.77344 30.9766H1.80022V31.0408L1.83147 31.0096H1.86362L1.82165 31.0489L1.86719 31.0953H1.83415L1.80022 31.0596V31.0953H1.77344L1.77344 30.9766Z" fill="url(#paint21_linear_4003_36731)"/>
<path d="M2.00112 31.0123V31.0337C1.99576 31.0308 1.98995 31.0288 1.98415 31.0275C1.97879 31.0263 1.97366 31.0257 1.96897 31.0257C1.96406 31.0257 1.96027 31.0266 1.95737 31.0283C1.95491 31.0297 1.95379 31.0315 1.95379 31.0337C1.95379 31.0362 1.95469 31.0379 1.95647 31.0391C1.95826 31.0404 1.96183 31.0413 1.96719 31.0417L1.97165 31.0426C1.98594 31.0444 1.99531 31.0475 2.00022 31.0516C2.00491 31.0551 2.00737 31.0614 2.00737 31.0703C2.00737 31.0792 2.00379 31.0862 1.99665 31.0908C1.98995 31.0951 1.98013 31.0971 1.96719 31.0971C1.96116 31.0971 1.95513 31.0964 1.94933 31.0953C1.9433 31.0949 1.93728 31.0935 1.93147 31.0917V31.0712C1.93683 31.0743 1.94219 31.0763 1.94754 31.0775C1.95335 31.0788 1.95937 31.0792 1.9654 31.0792C1.97076 31.0792 1.97455 31.0788 1.97701 31.0775C1.97991 31.0757 1.98147 31.0734 1.98147 31.0703C1.98147 31.0681 1.98058 31.0663 1.97879 31.065C1.97701 31.0638 1.97299 31.0629 1.96719 31.0623L1.96272 31.0614C1.95022 31.0603 1.94152 31.0576 1.93683 31.0533C1.93192 31.0493 1.92969 31.0431 1.92969 31.0346C1.92969 31.0257 1.93259 31.0192 1.93862 31.015C1.94509 31.0103 1.95469 31.0078 1.96719 31.0078C1.97254 31.0078 1.9779 31.0085 1.98326 31.0096C1.98906 31.0103 1.99509 31.0112 2.00112 31.0123Z" fill="url(#paint22_linear_4003_36731)"/>
<path d="M2.02344 31.0096H2.05022V31.0953H2.02344V31.0096ZM2.02344 30.9766H2.05022V30.9989H2.02344V30.9766Z" fill="url(#paint23_linear_4003_36731)"/>
<path d="M2.16384 31.0435V31.0953H2.13616V31.0551C2.13616 31.048 2.13571 31.0433 2.13527 31.0408C2.13527 31.0379 2.13482 31.0355 2.13438 31.0337C2.13304 31.0319 2.1317 31.0308 2.12991 31.0301C2.12813 31.029 2.12589 31.0283 2.12366 31.0283C2.11763 31.0283 2.11295 31.0308 2.10938 31.0355C2.10625 31.0397 2.10491 31.0458 2.10491 31.0533V31.0953H2.07812V31.0096H2.10491V31.0221C2.10893 31.0174 2.11339 31.0138 2.1183 31.0114C2.12299 31.0092 2.12813 31.0078 2.13348 31.0078C2.14353 31.0078 2.15089 31.0109 2.1558 31.0167C2.16116 31.0228 2.16384 31.0317 2.16384 31.0435Z" fill="url(#paint24_linear_4003_36731)"/>
<path d="M2.25179 31.081C2.24754 31.0859 2.24308 31.0895 2.23839 31.0917C2.23415 31.0942 2.22902 31.0953 2.22321 31.0953C2.21295 31.0953 2.20446 31.0913 2.19732 31.0828C2.19063 31.0746 2.1875 31.0641 2.1875 31.0516C2.1875 31.0391 2.19063 31.0288 2.19732 31.0203C2.20446 31.0121 2.21295 31.0078 2.22321 31.0078C2.22902 31.0078 2.23415 31.0092 2.23839 31.0114C2.24308 31.0138 2.24754 31.0174 2.25179 31.0221V31.0096H2.27946V31.0864C2.27946 31.1 2.275 31.1105 2.26607 31.1176C2.25714 31.1252 2.24464 31.1292 2.22857 31.1292C2.22321 31.1292 2.21786 31.1286 2.2125 31.1275C2.20759 31.1268 2.2029 31.1257 2.19821 31.1239V31.1025C2.2029 31.1054 2.20737 31.1074 2.21161 31.1087C2.21629 31.1105 2.22098 31.1114 2.22589 31.1114C2.23482 31.1114 2.24129 31.1092 2.24554 31.1051C2.24955 31.1009 2.25179 31.0949 2.25179 31.0864L2.25179 31.081ZM2.23393 31.0275C2.2279 31.0275 2.22344 31.0297 2.22054 31.0337C2.21741 31.0379 2.21607 31.044 2.21607 31.0516C2.21607 31.0594 2.21741 31.0654 2.22054 31.0694C2.22344 31.0737 2.2279 31.0757 2.23393 31.0757C2.23929 31.0757 2.2433 31.0737 2.24643 31.0694C2.25 31.0654 2.25179 31.0594 2.25179 31.0516C2.25179 31.044 2.25 31.0379 2.24643 31.0337C2.2433 31.0297 2.23929 31.0275 2.23393 31.0275Z" fill="url(#paint25_linear_4003_36731)"/>
<path d="M2.3904 31.0435V31.0953H2.36272V31.056C2.36272 31.0484 2.36228 31.0433 2.36183 31.0408C2.36183 31.0379 2.36138 31.0355 2.36094 31.0337C2.3596 31.0319 2.35826 31.0308 2.35647 31.0301C2.35469 31.029 2.35246 31.0283 2.35022 31.0283C2.3442 31.0283 2.33951 31.0308 2.33594 31.0355C2.33281 31.0397 2.33147 31.0458 2.33147 31.0533V31.0953H2.30469V30.9766H2.33147V31.0221C2.33549 31.0174 2.33996 31.0138 2.34487 31.0114C2.34955 31.0092 2.35469 31.0078 2.36004 31.0078C2.37009 31.0078 2.37746 31.0109 2.38237 31.0167C2.38772 31.0228 2.3904 31.0317 2.3904 31.0435Z" fill="url(#paint26_linear_4003_36731)"/>
<path d="M0.082589 31.1328V31.1507H0.0674107C0.0631696 31.1507 0.0602679 31.1516 0.0584821 31.1533C0.0571429 31.1547 0.0566964 31.1569 0.0566964 31.1605V31.1658H0.0799107V31.1855H0.0566964V31.2516H0.0299107V31.1855H0.015625V31.1658H0.0299107V31.1605C0.0299107 31.1511 0.0321429 31.1442 0.0370536 31.14C0.0424107 31.1353 0.0504467 31.1328 0.061161 31.1328L0.082589 31.1328Z" fill="url(#paint27_linear_4003_36731)"/>
<path d="M0.157143 31.1891C0.154688 31.1879 0.152232 31.1873 0.15 31.1873C0.147545 31.1868 0.14509 31.1864 0.142857 31.1864C0.135715 31.1864 0.129911 31.1888 0.125893 31.1935C0.122321 31.1978 0.120536 31.204 0.120536 31.2123V31.2516H0.09375V31.1658H0.120536V31.1801C0.124107 31.1748 0.127902 31.171 0.132143 31.1685C0.13683 31.1656 0.142411 31.1641 0.149107 31.1641H0.151786C0.152902 31.1641 0.154687 31.1645 0.157143 31.165L0.157143 31.1891Z" fill="url(#paint28_linear_4003_36731)"/>
<path d="M0.210491 31.1837C0.204464 31.1837 0.199777 31.1859 0.196205 31.19C0.19308 31.1942 0.191741 31.2004 0.191741 31.2087C0.191741 31.2172 0.19308 31.2237 0.196205 31.2283C0.199777 31.2326 0.204464 31.2346 0.210491 31.2346C0.216295 31.2346 0.220759 31.2326 0.223884 31.2283C0.227456 31.2237 0.229241 31.2172 0.229241 31.2087C0.229241 31.2004 0.227456 31.1942 0.223884 31.19C0.220759 31.1859 0.216295 31.1837 0.210491 31.1837ZM0.210491 31.1641C0.225223 31.1641 0.236831 31.1683 0.245313 31.1766C0.253572 31.1844 0.257813 31.1951 0.257813 31.2087C0.257813 31.223 0.253572 31.2342 0.245313 31.2417C0.236831 31.2496 0.225224 31.2533 0.210491 31.2533C0.195536 31.2533 0.183929 31.2496 0.175669 31.2417C0.167857 31.2342 0.164062 31.223 0.164062 31.2087C0.164062 31.1951 0.167857 31.1844 0.175669 31.1766C0.183928 31.1683 0.195536 31.1641 0.210491 31.1641Z" fill="url(#paint29_linear_4003_36731)"/>
<path d="M0.359822 31.1801C0.363393 31.1748 0.367411 31.171 0.372322 31.1685C0.377009 31.1656 0.382367 31.1641 0.388393 31.1641C0.397768 31.1641 0.405358 31.1672 0.410715 31.173C0.416072 31.179 0.41875 31.1879 0.41875 31.1998V31.2516H0.391071V31.2069V31.2051V31.2016C0.391071 31.1958 0.390178 31.1915 0.388393 31.1891C0.386607 31.1862 0.383482 31.1846 0.379464 31.1846C0.374553 31.1846 0.370759 31.1868 0.367857 31.1908C0.364732 31.1951 0.363393 31.2013 0.363393 31.2096V31.2516H0.335714V31.2069C0.335714 31.1975 0.334821 31.1915 0.333035 31.1891C0.331696 31.1862 0.329018 31.1846 0.325 31.1846C0.319643 31.1846 0.315402 31.1871 0.3125 31.1917C0.309375 31.196 0.308036 31.202 0.308036 31.2096V31.2516H0.28125V31.1658H0.308036V31.1783C0.311607 31.1737 0.315402 31.1701 0.319643 31.1676C0.32433 31.1654 0.329017 31.1641 0.333928 31.1641C0.339732 31.1641 0.344866 31.1656 0.349107 31.1685C0.353794 31.1717 0.357367 31.1754 0.359822 31.1801Z" fill="url(#paint30_linear_4003_36731)"/>
<path d="M0.525446 31.1406V31.1647H0.554018V31.1844H0.525446V31.221C0.525446 31.2246 0.525893 31.2272 0.527232 31.229C0.529018 31.2304 0.532143 31.2308 0.537054 31.2308H0.55134V31.2504H0.528125C0.517411 31.2504 0.509598 31.2484 0.504911 31.2442C0.50067 31.2395 0.498661 31.2317 0.498661 31.221V31.1844H0.484375V31.1647H0.498661V31.1406L0.525446 31.1406Z" fill="url(#paint31_linear_4003_36731)"/>
<path d="M0.656027 31.1998V31.2516H0.628349V31.2123C0.628349 31.2047 0.627902 31.1996 0.627456 31.1971C0.627456 31.1942 0.627009 31.1917 0.626563 31.19C0.625223 31.1882 0.623884 31.1871 0.622099 31.1864C0.620313 31.1853 0.618081 31.1846 0.615848 31.1846C0.609821 31.1846 0.605134 31.1871 0.601563 31.1917C0.598437 31.196 0.597098 31.202 0.597098 31.2096V31.2516H0.570312V31.1328H0.597098V31.1783C0.601116 31.1737 0.605581 31.1701 0.610491 31.1676C0.615179 31.1654 0.620313 31.1641 0.62567 31.1641C0.635714 31.1641 0.643081 31.1672 0.647991 31.173C0.653348 31.179 0.656027 31.1879 0.656027 31.1998Z" fill="url(#paint32_linear_4003_36731)"/>
<path d="M0.762948 31.2087V31.2167H0.699553C0.7 31.2228 0.702232 31.2275 0.705804 31.231C0.709821 31.2342 0.715625 31.2355 0.722768 31.2355C0.728572 31.2355 0.734598 31.2346 0.740625 31.2328C0.746429 31.231 0.752679 31.2288 0.759375 31.2257V31.2462C0.752678 31.2487 0.746205 31.2504 0.739732 31.2516C0.733036 31.2527 0.726562 31.2533 0.720089 31.2533C0.704464 31.2533 0.692634 31.2496 0.684375 31.2417C0.675893 31.2342 0.671875 31.223 0.671875 31.2087C0.671875 31.1951 0.675893 31.1844 0.684375 31.1766C0.692634 31.1683 0.704241 31.1641 0.719197 31.1641C0.732143 31.1641 0.742634 31.1683 0.750447 31.1766C0.758706 31.1844 0.762948 31.1951 0.762948 31.2087ZM0.735269 31.1998C0.735269 31.1944 0.733706 31.1904 0.730804 31.1873C0.727679 31.1837 0.723662 31.1819 0.718304 31.1819C0.713394 31.1819 0.709376 31.1835 0.705804 31.1864C0.702233 31.1895 0.700001 31.194 0.699554 31.1998L0.735269 31.1998Z" fill="url(#paint33_linear_4003_36731)"/>
<path d="M0.843751 31.1367H0.876786L0.917857 31.2153V31.1367H0.945536V31.251H0.913393L0.871429 31.1724V31.251H0.84375L0.843751 31.1367Z" fill="url(#paint34_linear_4003_36731)"/>
<path d="M1.01518 31.1837C1.00915 31.1837 1.00446 31.1859 1.00089 31.19C0.997768 31.1942 0.996429 31.2004 0.996429 31.2087C0.996429 31.2172 0.997768 31.2237 1.00089 31.2283C1.00446 31.2326 1.00915 31.2346 1.01518 31.2346C1.02098 31.2346 1.02545 31.2326 1.02857 31.2283C1.03214 31.2237 1.03393 31.2172 1.03393 31.2087C1.03393 31.2004 1.03214 31.1942 1.02857 31.19C1.02545 31.1859 1.02098 31.1837 1.01518 31.1837ZM1.01518 31.1641C1.02991 31.1641 1.04152 31.1683 1.05 31.1766C1.05826 31.1844 1.0625 31.1951 1.0625 31.2087C1.0625 31.223 1.05826 31.2342 1.05 31.2417C1.04152 31.2496 1.02991 31.2533 1.01518 31.2533C1.00022 31.2533 0.988616 31.2496 0.980357 31.2417C0.972544 31.2342 0.96875 31.223 0.96875 31.2087C0.96875 31.1951 0.972545 31.1844 0.980357 31.1766C0.988616 31.1683 1.00022 31.1641 1.01518 31.1641Z" fill="url(#paint35_linear_4003_36731)"/>
<path d="M1.07812 31.2206V31.168H1.10491V31.1769V31.1948V31.2081V31.2233C1.10536 31.2265 1.10625 31.2285 1.10759 31.2296C1.10871 31.2314 1.11027 31.2329 1.11205 31.234C1.11384 31.2347 1.11585 31.2349 1.1183 31.2349C1.12366 31.2349 1.12768 31.2329 1.1308 31.2287C1.13438 31.2247 1.13616 31.2186 1.13616 31.2108V31.168H1.16384V31.2537H1.13616V31.2412C1.13192 31.2465 1.12746 31.2506 1.12277 31.2528C1.11853 31.2546 1.11384 31.2555 1.10848 31.2555C1.09821 31.2555 1.09063 31.2526 1.08527 31.2465C1.08036 31.2407 1.07812 31.232 1.07812 31.2206Z" fill="url(#paint36_linear_4003_36731)"/>
<path d="M1.28103 31.1998V31.2516H1.25335V31.2114C1.25335 31.2042 1.2529 31.1996 1.25246 31.1971C1.25246 31.1942 1.25201 31.1917 1.25156 31.19C1.25022 31.1882 1.24888 31.1871 1.2471 31.1864C1.24531 31.1853 1.24308 31.1846 1.24085 31.1846C1.23482 31.1846 1.23013 31.1871 1.22656 31.1917C1.22344 31.196 1.2221 31.202 1.2221 31.2096V31.2516H1.19531V31.1658H1.2221V31.1783C1.22612 31.1737 1.23058 31.1701 1.23549 31.1676C1.24018 31.1654 1.24531 31.1641 1.25067 31.1641C1.26071 31.1641 1.26808 31.1672 1.27299 31.173C1.27835 31.179 1.28103 31.1879 1.28103 31.1998Z" fill="url(#paint37_linear_4003_36731)"/>
<path d="M1.35938 31.1367H1.40848C1.42277 31.1367 1.43371 31.1401 1.44152 31.1465C1.44911 31.1532 1.45312 31.1624 1.45312 31.1742C1.45312 31.1863 1.44911 31.1954 1.44152 31.2019C1.43371 31.2086 1.42277 31.2117 1.40848 31.2117H1.38884V31.251H1.35938L1.35938 31.1367ZM1.38884 31.1581V31.1903H1.40491C1.41071 31.1903 1.41518 31.1892 1.4183 31.1867C1.42121 31.1838 1.42277 31.1796 1.42277 31.1742C1.42277 31.1689 1.42121 31.1651 1.4183 31.1626C1.41518 31.1597 1.41071 31.1581 1.40491 31.1581L1.38884 31.1581Z" fill="url(#paint38_linear_4003_36731)"/>
<path d="M1.53214 31.1891C1.52969 31.1879 1.52723 31.1873 1.525 31.1873C1.52254 31.1868 1.52009 31.1864 1.51786 31.1864C1.51071 31.1864 1.50491 31.1888 1.50089 31.1935C1.49732 31.1978 1.49554 31.204 1.49554 31.2123V31.2516H1.46875V31.1658H1.49554V31.1801C1.49911 31.1748 1.5029 31.171 1.50714 31.1685C1.51183 31.1656 1.51741 31.1641 1.52411 31.1641H1.52679C1.5279 31.1641 1.52969 31.1645 1.53214 31.165L1.53214 31.1891Z" fill="url(#paint39_linear_4003_36731)"/>
<path d="M1.58549 31.1837C1.57946 31.1837 1.57478 31.1859 1.57121 31.19C1.56808 31.1942 1.56674 31.2004 1.56674 31.2087C1.56674 31.2172 1.56808 31.2237 1.57121 31.2283C1.57478 31.2326 1.57946 31.2346 1.58549 31.2346C1.59129 31.2346 1.59576 31.2326 1.59888 31.2283C1.60246 31.2237 1.60424 31.2172 1.60424 31.2087C1.60424 31.2004 1.60246 31.1942 1.59888 31.19C1.59576 31.1859 1.5913 31.1837 1.58549 31.1837ZM1.58549 31.1641C1.60022 31.1641 1.61183 31.1683 1.62031 31.1766C1.62857 31.1844 1.63281 31.1951 1.63281 31.2087C1.63281 31.223 1.62857 31.2342 1.62031 31.2417C1.61183 31.2496 1.60022 31.2533 1.58549 31.2533C1.57054 31.2533 1.55893 31.2496 1.55067 31.2417C1.54286 31.2342 1.53906 31.223 1.53906 31.2087C1.53906 31.1951 1.54286 31.1844 1.55067 31.1766C1.55893 31.1683 1.57054 31.1641 1.58549 31.1641Z" fill="url(#paint40_linear_4003_36731)"/>
<path d="M1.65938 31.1658H1.68616V31.2498C1.68616 31.2616 1.68348 31.2705 1.67813 31.2766C1.67277 31.2824 1.66473 31.2855 1.65402 31.2855H1.64062V31.2676H1.64509C1.65045 31.2676 1.65402 31.2663 1.6558 31.2641C1.65804 31.2616 1.65938 31.2569 1.65938 31.2498L1.65938 31.1658ZM1.65938 31.1328H1.68616V31.1551H1.65938V31.1328Z" fill="url(#paint41_linear_4003_36731)"/>
<path d="M1.7942 31.2087V31.2167H1.7308C1.73125 31.2228 1.73348 31.2275 1.73705 31.231C1.74107 31.2342 1.74688 31.2355 1.75402 31.2355C1.75982 31.2355 1.76585 31.2346 1.77188 31.2328C1.77768 31.231 1.78393 31.2288 1.79063 31.2257V31.2462C1.78393 31.2487 1.77746 31.2504 1.77098 31.2516C1.76429 31.2527 1.75781 31.2533 1.75134 31.2533C1.73571 31.2533 1.72388 31.2496 1.71563 31.2417C1.70714 31.2342 1.70312 31.223 1.70312 31.2087C1.70312 31.1951 1.70714 31.1844 1.71563 31.1766C1.72388 31.1683 1.73549 31.1641 1.75045 31.1641C1.76339 31.1641 1.77388 31.1683 1.7817 31.1766C1.78996 31.1844 1.7942 31.1951 1.7942 31.2087ZM1.76652 31.1998C1.76652 31.1944 1.76496 31.1904 1.76205 31.1873C1.75893 31.1837 1.75491 31.1819 1.74955 31.1819C1.74464 31.1819 1.74063 31.1835 1.73705 31.1864C1.73348 31.1895 1.73125 31.194 1.7308 31.1998L1.76652 31.1998Z" fill="url(#paint42_linear_4003_36731)"/>
<path d="M1.8875 31.1685V31.1908C1.88393 31.1886 1.87991 31.1868 1.87589 31.1855C1.87232 31.1844 1.8683 31.1837 1.86429 31.1837C1.85714 31.1837 1.85112 31.1862 1.84643 31.1908C1.84219 31.1951 1.84018 31.2011 1.84018 31.2087C1.84018 31.2172 1.84219 31.2237 1.84643 31.2283C1.85112 31.2326 1.85714 31.2346 1.86429 31.2346C1.86897 31.2346 1.87321 31.2342 1.87679 31.2328C1.8808 31.231 1.88437 31.229 1.8875 31.2266V31.2489C1.88326 31.2507 1.87879 31.2518 1.87411 31.2525C1.86987 31.2529 1.86562 31.2533 1.86161 31.2533C1.84598 31.2533 1.83393 31.2496 1.825 31.2417C1.81652 31.2342 1.8125 31.223 1.8125 31.2087C1.8125 31.1951 1.81652 31.1844 1.825 31.1766C1.83393 31.1683 1.84598 31.1641 1.86161 31.1641C1.86562 31.1641 1.86987 31.1647 1.87411 31.1658C1.87879 31.1665 1.88326 31.1674 1.8875 31.1685Z" fill="url(#paint43_linear_4003_36731)"/>
<path d="M1.93951 31.1406V31.1647H1.96808V31.1844H1.93951V31.221C1.93951 31.2246 1.93996 31.2272 1.94129 31.229C1.94308 31.2304 1.94621 31.2308 1.95112 31.2308H1.9654V31.2504H1.94219C1.93147 31.2504 1.92366 31.2484 1.91897 31.2442C1.91473 31.2395 1.91272 31.2317 1.91272 31.221V31.1844H1.89844V31.1647H1.91272V31.1406L1.93951 31.1406Z" fill="url(#paint44_linear_4003_36731)"/>
<defs>
<linearGradient id="paint0_linear_4003_36731" x1="23.8336" y1="0.714844" x2="23.745" y2="29.0023" gradientUnits="userSpaceOnUse">
<stop stop-color="#005CAA"/>
<stop offset="1" stop-color="#64B0F1"/>
</linearGradient>
<linearGradient id="paint1_linear_4003_36731" x1="21.2315" y1="4.10547" x2="21.1973" y2="18.4557" gradientUnits="userSpaceOnUse">
<stop stop-color="#005CAA"/>
<stop offset="1" stop-color="#64B0F1"/>
</linearGradient>
<linearGradient id="paint2_linear_4003_36731" x1="19.8105" y1="18.9453" x2="19.8102" y2="20.0837" gradientUnits="userSpaceOnUse">
<stop stop-color="#005CAA"/>
<stop offset="1" stop-color="#64B0F1"/>
</linearGradient>
<linearGradient id="paint3_linear_4003_36731" x1="19.7686" y1="18.9453" x2="19.6602" y2="30.5985" gradientUnits="userSpaceOnUse">
<stop stop-color="#005CAA"/>
<stop offset="1" stop-color="#64B0F1"/>
</linearGradient>
<linearGradient id="paint4_linear_4003_36731" x1="16.2878" y1="18.9453" x2="16.2206" y2="30.6008" gradientUnits="userSpaceOnUse">
<stop stop-color="#005CAA"/>
<stop offset="1" stop-color="#64B0F1"/>
</linearGradient>
<linearGradient id="paint5_linear_4003_36731" x1="0.0985664" y1="30.9805" x2="0.0979063" y2="31.1236" gradientUnits="userSpaceOnUse">
<stop stop-color="#005CAA"/>
<stop offset="1" stop-color="#64B0F1"/>
</linearGradient>
<linearGradient id="paint6_linear_4003_36731" x1="0.190015" y1="31.0078" x2="0.189462" y2="31.1141" gradientUnits="userSpaceOnUse">
<stop stop-color="#005CAA"/>
<stop offset="1" stop-color="#64B0F1"/>
</linearGradient>
<linearGradient id="paint7_linear_4003_36731" x1="0.281893" y1="31.0078" x2="0.281492" y2="31.1162" gradientUnits="userSpaceOnUse">
<stop stop-color="#005CAA"/>
<stop offset="1" stop-color="#64B0F1"/>
</linearGradient>
<linearGradient id="paint8_linear_4003_36731" x1="0.387093" y1="31.0078" x2="0.386667" y2="31.1162" gradientUnits="userSpaceOnUse">
<stop stop-color="#005CAA"/>
<stop offset="1" stop-color="#64B0F1"/>
</linearGradient>
<linearGradient id="paint9_linear_4003_36731" x1="0.468322" y1="30.9844" x2="0.467528" y2="31.1177" gradientUnits="userSpaceOnUse">
<stop stop-color="#005CAA"/>
<stop offset="1" stop-color="#64B0F1"/>
</linearGradient>
<linearGradient id="paint10_linear_4003_36731" x1="0.570956" y1="31.0078" x2="0.570554" y2="31.1162" gradientUnits="userSpaceOnUse">
<stop stop-color="#005CAA"/>
<stop offset="1" stop-color="#64B0F1"/>
</linearGradient>
<linearGradient id="paint11_linear_4003_36731" x1="0.673213" y1="30.9766" x2="0.672489" y2="31.1229" gradientUnits="userSpaceOnUse">
<stop stop-color="#005CAA"/>
<stop offset="1" stop-color="#64B0F1"/>
</linearGradient>
<linearGradient id="paint12_linear_4003_36731" x1="0.844392" y1="30.9766" x2="0.843661" y2="31.1229" gradientUnits="userSpaceOnUse">
<stop stop-color="#005CAA"/>
<stop offset="1" stop-color="#64B0F1"/>
</linearGradient>
<linearGradient id="paint13_linear_4003_36731" x1="0.950824" y1="31.0117" x2="0.95015" y2="31.157" gradientUnits="userSpaceOnUse">
<stop stop-color="#005CAA"/>
<stop offset="1" stop-color="#64B0F1"/>
</linearGradient>
<linearGradient id="paint14_linear_4003_36731" x1="1.09958" y1="31.0078" x2="1.09911" y2="31.1162" gradientUnits="userSpaceOnUse">
<stop stop-color="#005CAA"/>
<stop offset="1" stop-color="#64B0F1"/>
</linearGradient>
<linearGradient id="paint15_linear_4003_36731" x1="1.20741" y1="30.9766" x2="1.20665" y2="31.1208" gradientUnits="userSpaceOnUse">
<stop stop-color="#005CAA"/>
<stop offset="1" stop-color="#64B0F1"/>
</linearGradient>
<linearGradient id="paint16_linear_4003_36731" x1="1.30897" y1="31.0078" x2="1.30854" y2="31.1162" gradientUnits="userSpaceOnUse">
<stop stop-color="#005CAA"/>
<stop offset="1" stop-color="#64B0F1"/>
</linearGradient>
<linearGradient id="paint17_linear_4003_36731" x1="1.41208" y1="31.0078" x2="1.41161" y2="31.1162" gradientUnits="userSpaceOnUse">
<stop stop-color="#005CAA"/>
<stop offset="1" stop-color="#64B0F1"/>
</linearGradient>
<linearGradient id="paint18_linear_4003_36731" x1="1.51209" y1="30.9766" x2="1.51134" y2="31.1208" gradientUnits="userSpaceOnUse">
<stop stop-color="#005CAA"/>
<stop offset="1" stop-color="#64B0F1"/>
</linearGradient>
<linearGradient id="paint19_linear_4003_36731" x1="1.62147" y1="31.0078" x2="1.62104" y2="31.1162" gradientUnits="userSpaceOnUse">
<stop stop-color="#005CAA"/>
<stop offset="1" stop-color="#64B0F1"/>
</linearGradient>
<linearGradient id="paint20_linear_4003_36731" x1="1.73084" y1="31.0078" x2="1.73043" y2="31.1141" gradientUnits="userSpaceOnUse">
<stop stop-color="#005CAA"/>
<stop offset="1" stop-color="#64B0F1"/>
</linearGradient>
<linearGradient id="paint21_linear_4003_36731" x1="1.84648" y1="30.9766" x2="1.84579" y2="31.1208" gradientUnits="userSpaceOnUse">
<stop stop-color="#005CAA"/>
<stop offset="1" stop-color="#64B0F1"/>
</linearGradient>
<linearGradient id="paint22_linear_4003_36731" x1="1.99021" y1="31.0078" x2="1.98974" y2="31.1162" gradientUnits="userSpaceOnUse">
<stop stop-color="#005CAA"/>
<stop offset="1" stop-color="#64B0F1"/>
</linearGradient>
<linearGradient id="paint23_linear_4003_36731" x1="2.04431" y1="30.9766" x2="2.04189" y2="31.1207" gradientUnits="userSpaceOnUse">
<stop stop-color="#005CAA"/>
<stop offset="1" stop-color="#64B0F1"/>
</linearGradient>
<linearGradient id="paint24_linear_4003_36731" x1="2.14491" y1="31.0078" x2="2.1445" y2="31.1141" gradientUnits="userSpaceOnUse">
<stop stop-color="#005CAA"/>
<stop offset="1" stop-color="#64B0F1"/>
</linearGradient>
<linearGradient id="paint25_linear_4003_36731" x1="2.25915" y1="31.0078" x2="2.25842" y2="31.1553" gradientUnits="userSpaceOnUse">
<stop stop-color="#005CAA"/>
<stop offset="1" stop-color="#64B0F1"/>
</linearGradient>
<linearGradient id="paint26_linear_4003_36731" x1="2.37147" y1="30.9766" x2="2.37071" y2="31.1208" gradientUnits="userSpaceOnUse">
<stop stop-color="#005CAA"/>
<stop offset="1" stop-color="#64B0F1"/>
</linearGradient>
<linearGradient id="paint27_linear_4003_36731" x1="0.0677973" y1="31.1328" x2="0.0668324" y2="31.277" gradientUnits="userSpaceOnUse">
<stop stop-color="#005CAA"/>
<stop offset="1" stop-color="#64B0F1"/>
</linearGradient>
<linearGradient id="paint28_linear_4003_36731" x1="0.14314" y1="31.1641" x2="0.142587" y2="31.2703" gradientUnits="userSpaceOnUse">
<stop stop-color="#005CAA"/>
<stop offset="1" stop-color="#64B0F1"/>
</linearGradient>
<linearGradient id="paint29_linear_4003_36731" x1="0.237104" y1="31.1641" x2="0.236715" y2="31.2725" gradientUnits="userSpaceOnUse">
<stop stop-color="#005CAA"/>
<stop offset="1" stop-color="#64B0F1"/>
</linearGradient>
<linearGradient id="paint30_linear_4003_36731" x1="0.388378" y1="31.1641" x2="0.388122" y2="31.2703" gradientUnits="userSpaceOnUse">
<stop stop-color="#005CAA"/>
<stop offset="1" stop-color="#64B0F1"/>
</linearGradient>
<linearGradient id="paint31_linear_4003_36731" x1="0.538634" y1="31.1406" x2="0.537841" y2="31.274" gradientUnits="userSpaceOnUse">
<stop stop-color="#005CAA"/>
<stop offset="1" stop-color="#64B0F1"/>
</linearGradient>
<linearGradient id="paint32_linear_4003_36731" x1="0.637094" y1="31.1328" x2="0.63634" y2="31.277" gradientUnits="userSpaceOnUse">
<stop stop-color="#005CAA"/>
<stop offset="1" stop-color="#64B0F1"/>
</linearGradient>
<linearGradient id="paint33_linear_4003_36731" x1="0.742831" y1="31.1641" x2="0.742429" y2="31.2725" gradientUnits="userSpaceOnUse">
<stop stop-color="#005CAA"/>
<stop offset="1" stop-color="#64B0F1"/>
</linearGradient>
<linearGradient id="paint34_linear_4003_36731" x1="0.923053" y1="31.1367" x2="0.922465" y2="31.2755" gradientUnits="userSpaceOnUse">
<stop stop-color="#005CAA"/>
<stop offset="1" stop-color="#64B0F1"/>
</linearGradient>
<linearGradient id="paint35_linear_4003_36731" x1="1.04179" y1="31.1641" x2="1.0414" y2="31.2725" gradientUnits="userSpaceOnUse">
<stop stop-color="#005CAA"/>
<stop offset="1" stop-color="#64B0F1"/>
</linearGradient>
<linearGradient id="paint36_linear_4003_36731" x1="1.14491" y1="31.168" x2="1.1445" y2="31.2742" gradientUnits="userSpaceOnUse">
<stop stop-color="#005CAA"/>
<stop offset="1" stop-color="#64B0F1"/>
</linearGradient>
<linearGradient id="paint37_linear_4003_36731" x1="1.26209" y1="31.1641" x2="1.26168" y2="31.2703" gradientUnits="userSpaceOnUse">
<stop stop-color="#005CAA"/>
<stop offset="1" stop-color="#64B0F1"/>
</linearGradient>
<linearGradient id="paint38_linear_4003_36731" x1="1.43242" y1="31.1367" x2="1.43178" y2="31.2755" gradientUnits="userSpaceOnUse">
<stop stop-color="#005CAA"/>
<stop offset="1" stop-color="#64B0F1"/>
</linearGradient>
<linearGradient id="paint39_linear_4003_36731" x1="1.51814" y1="31.1641" x2="1.51759" y2="31.2703" gradientUnits="userSpaceOnUse">
<stop stop-color="#005CAA"/>
<stop offset="1" stop-color="#64B0F1"/>
</linearGradient>
<linearGradient id="paint40_linear_4003_36731" x1="1.6121" y1="31.1641" x2="1.61171" y2="31.2725" gradientUnits="userSpaceOnUse">
<stop stop-color="#005CAA"/>
<stop offset="1" stop-color="#64B0F1"/>
</linearGradient>
<linearGradient id="paint41_linear_4003_36731" x1="1.6761" y1="31.1328" x2="1.67376" y2="31.3182" gradientUnits="userSpaceOnUse">
<stop stop-color="#005CAA"/>
<stop offset="1" stop-color="#64B0F1"/>
</linearGradient>
<linearGradient id="paint42_linear_4003_36731" x1="1.77408" y1="31.1641" x2="1.77368" y2="31.2725" gradientUnits="userSpaceOnUse">
<stop stop-color="#005CAA"/>
<stop offset="1" stop-color="#64B0F1"/>
</linearGradient>
<linearGradient id="paint43_linear_4003_36731" x1="1.87093" y1="31.1641" x2="1.87045" y2="31.2725" gradientUnits="userSpaceOnUse">
<stop stop-color="#005CAA"/>
<stop offset="1" stop-color="#64B0F1"/>
</linearGradient>
<linearGradient id="paint44_linear_4003_36731" x1="1.9527" y1="31.1406" x2="1.9519" y2="31.274" gradientUnits="userSpaceOnUse">
<stop stop-color="#005CAA"/>
<stop offset="1" stop-color="#64B0F1"/>
</linearGradient>
</defs>
</svg>