  <svg width="38" height="38" viewBox="0 0 20 24" fill="none"
                                xmlns="http://www.w3.org/2000/svg">
                                <path
                                    d="M13.0208 9.50258L8.52161 13.1505L6.7887 11.1137C6.56074 10.9082 6.21533 10.9046 5.98332 11.1059C5.75133 11.3069 5.70553 11.6494 5.87666 11.9043L8.0046 14.3972L8.06546 14.458H8.85581L13.8111 10.4449C13.9538 10.3505 14.05 10.2002 14.0761 10.031C14.1024 9.86196 14.056 9.68956 13.9487 9.5564C13.8412 9.42323 13.6826 9.34138 13.5116 9.3312C13.3409 9.32081 13.1736 9.38315 13.0511 9.50253L13.0208 9.50258Z"
                                    fill="#CC1212" />
                                <path
                                    d="M19.6193 6.52292C19.6201 5.80086 19.407 5.09493 19.0067 4.4942C18.6061 3.8937 18.0365 3.42526 17.3696 3.14852L10.256 0.16937C10.1097 0.11021 9.94622 0.11021 9.79991 0.16937L2.65591 3.14852C1.98901 3.42525 1.41944 3.8937 1.01887 4.4942C0.618509 5.09493 0.405384 5.80086 0.406253 6.52292V14.1229C0.406253 19.3821 4.571 23.7597 9.70865 23.9117H10.0127C12.5553 23.9117 14.9941 22.9038 16.7947 21.1088C18.5952 19.3138 19.6109 16.8781 19.619 14.3356L19.6193 6.52292ZM18.4034 14.3357L18.4032 14.3355C18.396 16.5983 17.475 18.7623 15.8496 20.3362C14.2241 21.9103 12.0314 22.7611 9.76964 22.6953C5.27049 22.5738 1.62244 18.713 1.62244 14.1225V6.52254C1.62095 6.04245 1.76154 5.57254 2.02661 5.17218C2.29168 4.77183 2.66935 4.45903 3.11189 4.27289L10.0127 1.38494L16.9135 4.27289C17.356 4.45907 17.7337 4.77185 17.9988 5.17218C18.2638 5.57254 18.4044 6.04244 18.4029 6.52254L18.4034 14.3357Z"
                                    fill="#CC1212" />
                            </svg>