<svg width="38" height="38" viewBox="0 0 28 28" fill="none" xmlns="http://www.w3.org/2000/svg">
<path d="M9.65708 14.2953C9.64478 14.2754 9.63164 14.2561 9.61743 14.2376L9.57799 14.195L9.53536 14.1556L9.47768 14.1161L9.4533 14.0886L9.39244 14.0612L9.3407 14.04H9.31037L9.19184 14.0156H9.06715C9.03534 14.0203 9.00374 14.0273 8.97299 14.0368H8.94564C8.91828 14.0368 8.89093 14.058 8.86357 14.0733L8.83622 14.0945V14.0947C8.81247 14.1077 8.7902 14.1229 8.76921 14.1403C8.75564 14.1509 8.74334 14.1632 8.73274 14.1768L8.68418 14.2224L8.6477 14.2801L8.62035 14.3165L4.9724 21.0045C4.89458 21.1464 4.87655 21.3135 4.92214 21.4685C4.96774 21.6237 5.07334 21.7544 5.21562 21.8315C5.30236 21.8835 5.40032 21.9136 5.50126 21.9198C5.72158 21.9227 5.92621 21.8065 6.03627 21.6157L7.35569 19.1836H10.943L12.2624 21.6157H12.2622C12.3725 21.8065 12.5771 21.9227 12.7974 21.9198C12.9032 21.9212 13.0078 21.8962 13.1013 21.8468C13.2436 21.7696 13.3492 21.639 13.3948 21.4838C13.4404 21.3285 13.4223 21.1617 13.3445 21.0198L9.69657 14.3318L9.65708 14.2953ZM8.0183 17.9676L9.14918 15.8944L10.2801 17.9676H8.0183Z" fill="url(#paint0_linear_3819_28332)"/>
<path d="M9.65708 14.2953C9.64478 14.2754 9.63164 14.2561 9.61743 14.2376L9.57799 14.195L9.53536 14.1556L9.47768 14.1161L9.4533 14.0886L9.39244 14.0612L9.3407 14.04H9.31037L9.19184 14.0156H9.06715C9.03534 14.0203 9.00374 14.0273 8.97299 14.0368H8.94564C8.91828 14.0368 8.89093 14.058 8.86357 14.0733L8.83622 14.0945V14.0947C8.81247 14.1077 8.7902 14.1229 8.76921 14.1403C8.75564 14.1509 8.74334 14.1632 8.73274 14.1768L8.68418 14.2224L8.6477 14.2801L8.62035 14.3165L4.9724 21.0045C4.89458 21.1464 4.87655 21.3135 4.92214 21.4685C4.96774 21.6237 5.07334 21.7544 5.21562 21.8315C5.30236 21.8835 5.40032 21.9136 5.50126 21.9198C5.72158 21.9227 5.92621 21.8065 6.03627 21.6157L7.35569 19.1836H10.943L12.2624 21.6157H12.2622C12.3725 21.8065 12.5771 21.9227 12.7974 21.9198C12.9032 21.9212 13.0078 21.8962 13.1013 21.8468C13.2436 21.7696 13.3492 21.639 13.3948 21.4838C13.4404 21.3285 13.4223 21.1617 13.3445 21.0198L9.69657 14.3318L9.65708 14.2953ZM8.0183 17.9676L9.14918 15.8944L10.2801 17.9676H8.0183Z" fill="black" fill-opacity="0.2"/>
<path d="M25.8692 0.335938H11.8852C11.4015 0.335938 10.9375 0.52806 10.5955 0.870098C10.2532 1.21214 10.0611 1.67613 10.0611 2.16004V10.976H2.15711C1.6732 10.976 1.20922 11.1682 0.867168 11.5102C0.525125 11.8522 0.333008 12.3162 0.333008 12.8001V23.1361C0.333008 23.6198 0.52513 24.0838 0.867168 24.4259C1.20921 24.7679 1.6732 24.9602 2.15711 24.9602H3.67711V27.0882C3.67732 27.332 3.82321 27.5524 4.04799 27.6476C4.12284 27.6794 4.20342 27.6959 4.28506 27.6962C4.44262 27.6964 4.59402 27.6353 4.70769 27.5259L7.36155 24.9602H16.1412C16.6249 24.9602 17.0889 24.7679 17.4309 24.4258C17.7732 24.0838 17.9653 23.6198 17.9653 23.1361V14.3201H20.6647L23.3186 16.886V16.8858C23.4323 16.9952 23.5837 17.0563 23.7412 17.0561C23.8229 17.0558 23.9035 17.0393 23.9783 17.0075C24.2031 16.9123 24.349 16.692 24.3492 16.4481V14.3201H25.8692C26.3531 14.3201 26.8171 14.1278 27.1591 13.7858C27.5012 13.4437 27.6933 12.9797 27.6933 12.496V2.16004C27.6933 1.67613 27.5012 1.21216 27.1591 0.870103C26.8171 0.52806 26.3531 0.335938 25.8692 0.335938ZM16.7492 23.1359C16.7492 23.2971 16.6852 23.4519 16.5713 23.5658C16.4572 23.6799 16.3026 23.7439 16.1412 23.7439H7.1157C6.95794 23.7437 6.80653 23.8048 6.69308 23.9142L4.8934 25.653V24.3518C4.8934 24.1907 4.82936 24.0361 4.71528 23.922C4.6014 23.8079 4.44661 23.7439 4.28544 23.7439H2.1575C1.8216 23.7439 1.54933 23.4718 1.54933 23.1359V12.7999C1.54933 12.464 1.82161 12.1918 2.1575 12.1918H10.0615V12.4958C10.0615 12.9795 10.2536 13.4435 10.5959 13.7856C10.9379 14.1276 11.4019 14.3199 11.8856 14.3199H16.7495L16.7492 23.1359ZM26.4772 12.4959C26.4772 12.6571 26.4132 12.8119 26.2991 12.9258C26.185 13.0399 26.0304 13.1039 25.869 13.1039H23.7411C23.4054 13.1039 23.1331 13.3762 23.1331 13.7118V15.013L21.3335 13.2742C21.22 13.1648 21.0686 13.1037 20.9108 13.1039H11.8853C11.5494 13.1039 11.2774 12.8318 11.2774 12.496V2.15996C11.2774 1.82407 11.5494 1.5518 11.8853 1.5518H25.8693C26.0307 1.5518 26.1853 1.61584 26.2993 1.72992C26.4134 1.84401 26.4775 1.9986 26.4775 2.15997L26.4772 12.4959Z" fill="url(#paint1_linear_3819_28332)"/>
<path d="M25.8692 0.335938H11.8852C11.4015 0.335938 10.9375 0.52806 10.5955 0.870098C10.2532 1.21214 10.0611 1.67613 10.0611 2.16004V10.976H2.15711C1.6732 10.976 1.20922 11.1682 0.867168 11.5102C0.525125 11.8522 0.333008 12.3162 0.333008 12.8001V23.1361C0.333008 23.6198 0.52513 24.0838 0.867168 24.4259C1.20921 24.7679 1.6732 24.9602 2.15711 24.9602H3.67711V27.0882C3.67732 27.332 3.82321 27.5524 4.04799 27.6476C4.12284 27.6794 4.20342 27.6959 4.28506 27.6962C4.44262 27.6964 4.59402 27.6353 4.70769 27.5259L7.36155 24.9602H16.1412C16.6249 24.9602 17.0889 24.7679 17.4309 24.4258C17.7732 24.0838 17.9653 23.6198 17.9653 23.1361V14.3201H20.6647L23.3186 16.886V16.8858C23.4323 16.9952 23.5837 17.0563 23.7412 17.0561C23.8229 17.0558 23.9035 17.0393 23.9783 17.0075C24.2031 16.9123 24.349 16.692 24.3492 16.4481V14.3201H25.8692C26.3531 14.3201 26.8171 14.1278 27.1591 13.7858C27.5012 13.4437 27.6933 12.9797 27.6933 12.496V2.16004C27.6933 1.67613 27.5012 1.21216 27.1591 0.870103C26.8171 0.52806 26.3531 0.335938 25.8692 0.335938ZM16.7492 23.1359C16.7492 23.2971 16.6852 23.4519 16.5713 23.5658C16.4572 23.6799 16.3026 23.7439 16.1412 23.7439H7.1157C6.95794 23.7437 6.80653 23.8048 6.69308 23.9142L4.8934 25.653V24.3518C4.8934 24.1907 4.82936 24.0361 4.71528 23.922C4.6014 23.8079 4.44661 23.7439 4.28544 23.7439H2.1575C1.8216 23.7439 1.54933 23.4718 1.54933 23.1359V12.7999C1.54933 12.464 1.82161 12.1918 2.1575 12.1918H10.0615V12.4958C10.0615 12.9795 10.2536 13.4435 10.5959 13.7856C10.9379 14.1276 11.4019 14.3199 11.8856 14.3199H16.7495L16.7492 23.1359ZM26.4772 12.4959C26.4772 12.6571 26.4132 12.8119 26.2991 12.9258C26.185 13.0399 26.0304 13.1039 25.869 13.1039H23.7411C23.4054 13.1039 23.1331 13.3762 23.1331 13.7118V15.013L21.3335 13.2742C21.22 13.1648 21.0686 13.1037 20.9108 13.1039H11.8853C11.5494 13.1039 11.2774 12.8318 11.2774 12.496V2.15996C11.2774 1.82407 11.5494 1.5518 11.8853 1.5518H25.8693C26.0307 1.5518 26.1853 1.61584 26.2993 1.72992C26.4134 1.84401 26.4775 1.9986 26.4775 2.15997L26.4772 12.4959Z" fill="black" fill-opacity="0.2"/>
<path d="M22.5251 4.895H19.4851V3.98295C19.4851 3.64726 19.2129 3.375 18.8772 3.375C18.5413 3.375 18.269 3.64728 18.269 3.98295V4.895H15.229C14.8934 4.895 14.6211 5.16728 14.6211 5.50295C14.6211 5.83884 14.8934 6.11089 15.229 6.11089H17.0258C17.1664 6.74831 17.3967 7.36245 17.7099 7.935C17.8257 8.14493 17.9535 8.34787 18.0929 8.54295C17.3345 9.29214 16.3901 9.82523 15.357 10.0873C15.0327 10.1779 14.8436 10.5142 14.9343 10.8382C15.0249 11.1622 15.3612 11.3514 15.6852 11.2608C16.888 10.9466 17.9884 10.3242 18.8773 9.45496C19.7669 10.3159 20.8627 10.9336 22.06 11.2485C22.384 11.3393 22.7203 11.1501 22.8109 10.8261C22.9016 10.5019 22.7125 10.1658 22.3885 10.0752C21.3547 9.80951 20.4102 9.27325 19.6524 8.52172C20.1583 7.78528 20.5214 6.96014 20.7226 6.08967H22.5253C22.861 6.08967 23.1332 5.81739 23.1332 5.48172C23.1332 5.14583 22.8609 4.87377 22.5253 4.87377L22.5251 4.895ZM18.8772 7.52764C18.6109 7.0853 18.4062 6.6088 18.269 6.11089H19.4851C19.348 6.60879 19.1435 7.08527 18.8772 7.52764Z" fill="url(#paint2_linear_3819_28332)"/>
<path d="M22.5251 4.895H19.4851V3.98295C19.4851 3.64726 19.2129 3.375 18.8772 3.375C18.5413 3.375 18.269 3.64728 18.269 3.98295V4.895H15.229C14.8934 4.895 14.6211 5.16728 14.6211 5.50295C14.6211 5.83884 14.8934 6.11089 15.229 6.11089H17.0258C17.1664 6.74831 17.3967 7.36245 17.7099 7.935C17.8257 8.14493 17.9535 8.34787 18.0929 8.54295C17.3345 9.29214 16.3901 9.82523 15.357 10.0873C15.0327 10.1779 14.8436 10.5142 14.9343 10.8382C15.0249 11.1622 15.3612 11.3514 15.6852 11.2608C16.888 10.9466 17.9884 10.3242 18.8773 9.45496C19.7669 10.3159 20.8627 10.9336 22.06 11.2485C22.384 11.3393 22.7203 11.1501 22.8109 10.8261C22.9016 10.5019 22.7125 10.1658 22.3885 10.0752C21.3547 9.80951 20.4102 9.27325 19.6524 8.52172C20.1583 7.78528 20.5214 6.96014 20.7226 6.08967H22.5253C22.861 6.08967 23.1332 5.81739 23.1332 5.48172C23.1332 5.14583 22.8609 4.87377 22.5253 4.87377L22.5251 4.895ZM18.8772 7.52764C18.6109 7.0853 18.4062 6.6088 18.269 6.11089H19.4851C19.348 6.60879 19.1435 7.08527 18.8772 7.52764Z" fill="black" fill-opacity="0.2"/>
<defs>
<linearGradient id="paint0_linear_3819_28332" x1="9.15846" y1="14.0156" x2="9.15846" y2="21.9198" gradientUnits="userSpaceOnUse">
<stop stop-color="#FF0F0F"/>
<stop offset="1" stop-color="#FF4849"/>
</linearGradient>
<linearGradient id="paint1_linear_3819_28332" x1="14.0132" y1="0.335937" x2="14.0132" y2="27.6962" gradientUnits="userSpaceOnUse">
<stop stop-color="#FF0F0F"/>
<stop offset="1" stop-color="#FF4849"/>
</linearGradient>
<linearGradient id="paint2_linear_3819_28332" x1="18.8772" y1="3.375" x2="18.8772" y2="11.2835" gradientUnits="userSpaceOnUse">
<stop stop-color="#FF0F0F"/>
<stop offset="1" stop-color="#FF4849"/>
</linearGradient>
</defs>
</svg>