<svg width="38" height="38" viewBox="0 0 32 32" fill="none" xmlns="http://www.w3.org/2000/svg">
<path d="M9.22154 19.1426H11.3528C11.4671 19.1426 11.5765 19.0973 11.6573 19.0165C11.7381 18.9357 11.7831 18.8261 11.7831 18.712V14.8583C11.7831 14.6208 11.5905 14.4279 11.3528 14.4279H9.22154C8.98381 14.4279 8.79118 14.6208 8.79118 14.8583V18.712C8.79118 18.8261 8.83627 18.9357 8.91708 19.0165C8.99788 19.0973 9.10725 19.1426 9.22154 19.1426ZM9.65212 15.289H10.9222V18.2817H9.65212V15.289ZM13.0981 12.6598V12.6595C12.8606 12.6595 12.6678 12.8522 12.6678 13.0899V18.712C12.6678 18.8261 12.7131 18.9357 12.7939 19.0165C12.8745 19.0973 12.9841 19.1426 13.0981 19.1426H15.2296C15.3437 19.1426 15.4533 19.0973 15.5338 19.0165C15.6147 18.9357 15.66 18.8261 15.66 18.712V13.0899C15.66 12.8522 15.4671 12.6595 15.2296 12.6595L13.0981 12.6598ZM14.7981 18.2819L13.5289 18.2817V13.5207H14.799L14.7981 18.2819ZM16.5454 10.9773V18.711C16.5454 18.8251 16.5908 18.9347 16.6713 19.0155C16.7521 19.0963 16.8617 19.1416 16.9758 19.1416H19.1073C19.2213 19.1416 19.3309 19.0963 19.4115 19.0155C19.4923 18.9347 19.5376 18.8251 19.5374 18.711V10.9773C19.5376 10.8632 19.4923 10.7536 19.4115 10.6728C19.3309 10.592 19.2213 10.5467 19.1073 10.5467H16.9749C16.7374 10.5474 16.5454 10.74 16.5454 10.9773ZM17.4064 11.4077H18.6765V18.282H17.4055L17.4064 11.4077ZM20.8514 19.1425H22.9829C23.2202 19.1421 23.4124 18.9492 23.4122 18.7119V11.9405C23.4122 11.7028 23.2195 11.5102 22.9818 11.5102H20.8515C20.6137 11.5102 20.4211 11.7028 20.4211 11.9405V18.7119C20.4211 18.826 20.4664 18.9356 20.547 19.0164C20.6278 19.0972 20.7374 19.1425 20.8514 19.1425ZM21.2822 12.3711H22.5524L22.5521 18.282H21.2822L21.2822 12.3711ZM8.63538 20.5002C8.63538 20.2625 8.82802 20.0699 9.06552 20.0699H14.699C14.8153 20.0668 14.9278 20.1105 15.0113 20.1918C15.0945 20.2728 15.1416 20.3842 15.1416 20.5005C15.1416 20.6168 15.0945 20.7281 15.0113 20.8092C14.9278 20.8902 14.8153 20.9342 14.699 20.9308H9.06552C8.95145 20.9308 8.84185 20.8855 8.76128 20.8047C8.68047 20.7239 8.63516 20.6145 8.63538 20.5002ZM8.63538 22.2185C8.63516 22.1045 8.68047 21.9949 8.76128 21.9141C8.84186 21.8333 8.95145 21.7879 9.06552 21.7879H21.2478C21.3641 21.7846 21.4766 21.8286 21.5601 21.9096C21.6433 21.9908 21.6904 22.102 21.6904 22.2183C21.6904 22.3346 21.6433 22.446 21.5601 22.5272C21.4766 22.6083 21.3641 22.6522 21.2478 22.6489H9.06552C8.82824 22.6489 8.63583 22.4569 8.63538 22.2196V22.2185ZM12.46 6.37395C12.46 6.136 12.6528 5.94337 12.8905 5.94337H15.86C16.0979 5.94337 16.2906 6.136 16.2906 6.37395C16.2906 6.6119 16.0979 6.80453 15.86 6.80453H12.8905C12.6528 6.80453 12.46 6.6119 12.46 6.37395ZM12.46 7.96304C12.4606 7.72554 12.6533 7.53357 12.8905 7.53357H18.2544C18.4874 7.54005 18.6729 7.73089 18.6729 7.96416C18.6729 8.19741 18.4874 8.38827 18.2544 8.39474H12.8905C12.7763 8.39474 12.6664 8.3492 12.5856 8.26818C12.5048 8.18715 12.4595 8.07732 12.46 7.96304ZM12.46 9.55229C12.46 9.31435 12.6528 9.12171 12.8905 9.12171H18.2544C18.4921 9.12171 18.685 9.31435 18.685 9.55229C18.685 9.79024 18.4921 9.98288 18.2544 9.98288H12.8905C12.6528 9.98288 12.46 9.79024 12.46 9.55229ZM9.16556 9.22126V8.79091C9.17203 8.55788 9.36288 8.37216 9.59614 8.37216C9.8294 8.37216 10.0202 8.55788 10.0267 8.79091V9.22126C10.0821 9.47238 10.3044 9.65117 10.5615 9.65117C10.8185 9.65117 11.041 9.47238 11.0964 9.22126V8.79091C11.0964 8.536 11.0464 8.47484 10.4713 8.35162C9.98294 8.24694 9.16574 8.07172 9.16574 7.07037L9.16552 6.64001C9.17311 6.35854 9.27132 6.08711 9.44542 5.8659C9.61953 5.64469 9.86038 5.48554 10.1323 5.41233V4.9525C10.1292 4.83644 10.1729 4.72371 10.2542 4.64045C10.3352 4.55697 10.4466 4.50987 10.5629 4.50987C10.6791 4.50987 10.7905 4.55697 10.8716 4.64045C10.9526 4.72371 10.9966 4.83644 10.9932 4.9525V5.41233C11.2651 5.48554 11.5059 5.64469 11.6802 5.8659C11.8544 6.0871 11.9523 6.35853 11.9599 6.64001V7.07037C11.9633 7.18644 11.9193 7.29916 11.8383 7.38242C11.757 7.4659 11.6456 7.513 11.5294 7.513C11.4131 7.513 11.3019 7.4659 11.2206 7.38242C11.1396 7.29916 11.0956 7.18644 11.099 7.07037V6.64001C11.0436 6.3889 10.8211 6.2101 10.5642 6.2101C10.307 6.2101 10.0845 6.3889 10.0294 6.64001V7.07037C10.0294 7.32573 10.0796 7.38644 10.6546 7.50965C11.1429 7.61456 11.9599 7.79001 11.9599 8.79091V9.22126C11.9526 9.50274 11.8543 9.77439 11.6802 9.99561C11.5061 10.2168 11.2651 10.376 10.9932 10.4494V10.9088V10.9086C10.9966 11.0249 10.9526 11.1376 10.8716 11.2208C10.7905 11.3043 10.6791 11.3512 10.5629 11.3512C10.4466 11.3512 10.3352 11.3043 10.2542 11.2208C10.1729 11.1376 10.1292 11.0248 10.1323 10.9086V10.4494C9.8604 10.376 9.61955 10.2168 9.44542 9.99561C9.27109 9.7744 9.17314 9.50275 9.16556 9.22126ZM31.1016 22.003C31.0547 21.6307 30.7382 21.3512 30.3627 21.3508H29.8707C29.8375 21.2621 29.802 21.1751 29.7627 21.0894L30.1118 20.7414C30.3765 20.4758 30.4027 20.0548 30.1727 19.7584C29.9377 19.4559 29.6658 19.1838 29.3631 18.9488C29.0667 18.7188 28.6455 18.745 28.3799 19.0097L28.0321 19.3577C27.9464 19.3184 27.8594 19.282 27.7707 19.2496V18.7577C27.7705 18.3825 27.4911 18.0661 27.1187 18.019C27.0714 18.013 27.0241 18.0081 26.977 18.0036L26.9772 7.42479C26.9772 7.3105 26.9317 7.2009 26.8509 7.12033L21.8679 2.13838C21.7873 2.05735 21.6777 2.01205 21.5634 2.01205H19.4147L16.8957 0.557589C16.7968 0.500669 16.6794 0.485046 16.5692 0.514731L10.9808 2.01205H5.6582C5.42025 2.01227 5.22762 2.2049 5.2274 2.44263V3.55354L1.20574 4.6312C1.09547 4.66089 1.0015 4.73298 0.944357 4.83187C0.887214 4.93075 0.871814 5.04839 0.9015 5.15866L5.22739 21.3044V29.3827C5.22739 29.6206 5.42024 29.8135 5.65819 29.8135H7.50751L7.87425 31.1802L7.87403 31.18C7.93563 31.4099 8.17157 31.5463 8.40148 31.4847L14.6409 29.8135H26.5449C26.7829 29.8135 26.9757 29.6206 26.9757 29.3827V27.1465C27.0228 27.1423 27.0701 27.1371 27.117 27.1311C27.4893 27.0842 27.7688 26.7677 27.7692 26.3925V25.9001C27.8579 25.8668 27.9449 25.8313 28.0306 25.792L28.3784 26.14C28.644 26.4052 29.0652 26.4313 29.3616 26.2014C29.6641 25.9661 29.9362 25.6942 30.1712 25.3918C30.4012 25.0954 30.375 24.6744 30.1103 24.4088L29.7623 24.0608C29.8016 23.9751 29.838 23.888 29.8704 23.7994H30.3623C30.7375 23.7989 31.054 23.5197 31.1009 23.1474C31.1485 22.7675 31.1485 22.3831 31.1014 22.003L31.1016 22.003ZM21.9936 3.48184L25.5061 6.99435H21.9936V3.48184ZM16.6197 1.39258L17.6924 2.01201H14.3076L16.6197 1.39258ZM1.84481 5.35149L5.22784 4.44481V17.978L1.84481 5.35149ZM8.59453 30.5418L8.39921 29.8132H11.314L8.59453 30.5418ZM6.08893 28.9521V2.87264H21.1324V7.42441C21.1324 7.53847 21.1777 7.64807 21.2585 7.72887C21.3393 7.80968 21.4489 7.85498 21.5629 7.85498H26.1143V18.003C26.0669 18.0072 26.0198 18.0124 25.9725 18.0184H25.9727C25.6004 18.0655 25.3212 18.3818 25.3207 18.757V19.249C25.2321 19.2822 25.1451 19.3177 25.0593 19.357L24.7114 19.009C24.4457 18.7443 24.0247 18.7182 23.7283 18.9481C23.4259 19.1834 23.1538 19.4552 22.9183 19.7577C22.6888 20.0543 22.7149 20.4751 22.9797 20.7407L23.3276 21.0887C23.2884 21.1744 23.252 21.2615 23.2196 21.3501H22.7276C22.3524 21.3505 22.0359 21.6298 21.989 22.0021C21.9417 22.3822 21.9417 22.7666 21.989 23.1467C22.0053 23.2775 22.0562 23.4016 22.1366 23.5061H9.06513C8.8274 23.5061 8.63454 23.699 8.63454 23.9367C8.63454 24.1746 8.8274 24.3675 9.06513 24.3675H22.9823C22.9959 24.3675 23.0093 24.3675 23.0229 24.3653L22.9798 24.4083V24.4081C22.7662 24.6226 22.7035 24.9452 22.8211 25.2242H9.06511C8.82739 25.2242 8.63453 25.4168 8.63453 25.6548C8.63453 25.8925 8.82739 26.0853 9.06511 26.0853H22.9823C23.1343 26.0851 23.2751 26.0048 23.3526 25.8737C23.4718 25.9894 23.5974 26.0985 23.7285 26.2007C24.0249 26.4306 24.4459 26.4045 24.7115 26.1398L25.0595 25.7918C25.1452 25.8311 25.2322 25.8675 25.3209 25.8998V26.3918C25.3213 26.767 25.6005 27.0834 25.9729 27.1304C26.0202 27.1365 26.0673 27.1414 26.1146 27.1458V28.9518L6.08893 28.9521ZM30.2581 22.9384H29.5552C29.3596 22.9384 29.1886 23.0703 29.1386 23.2593C29.0775 23.493 28.9846 23.7171 28.863 23.9258C28.7643 24.0946 28.7918 24.3089 28.9297 24.4473L29.4268 24.9446C29.2723 25.1321 29.1002 25.304 28.9127 25.4582L28.4156 24.9611V24.9613C28.2773 24.8232 28.0632 24.7957 27.8944 24.8946C27.6857 25.0163 27.4614 25.1089 27.2277 25.1703C27.0386 25.22 26.9067 25.391 26.9067 25.5866V26.2897C26.665 26.3129 26.4217 26.3129 26.1801 26.2897V25.585C26.1799 25.3895 26.0482 25.2185 25.8592 25.1687C25.6252 25.1073 25.4009 25.0145 25.1924 24.8926C25.0237 24.7939 24.8096 24.8214 24.671 24.9594L24.1781 25.4573C23.9906 25.3031 23.8185 25.1312 23.6643 24.9437L24.1614 24.4464C24.2996 24.3078 24.327 24.0935 24.2281 23.9248C24.1063 23.716 24.0136 23.4917 23.9525 23.258C23.9025 23.0687 23.7315 22.9368 23.5357 22.937H22.8322C22.8087 22.6953 22.8087 22.452 22.8322 22.2102H23.5349C23.7304 22.2105 23.9016 22.0785 23.9514 21.8892C24.0128 21.6555 24.1054 21.4314 24.2271 21.2227C24.3259 21.054 24.2985 20.8397 24.1605 20.7013L23.6634 20.204C23.8179 20.0172 23.9904 19.8459 24.1782 19.6926L24.6755 20.1897C24.8137 20.3279 25.0282 20.3553 25.1967 20.2562C25.4054 20.1348 25.6297 20.0419 25.8634 19.9805C26.0525 19.9308 26.1842 19.7598 26.1844 19.5643V18.862C26.4262 18.8386 26.6695 18.8386 26.9112 18.862V19.5667C26.9112 19.7622 27.0429 19.9332 27.2322 19.983C27.4657 20.0444 27.69 20.137 27.8987 20.2587C28.0675 20.3578 28.2818 20.3303 28.4201 20.1919L28.9172 19.6948L28.917 19.6951C29.1047 19.8491 29.2768 20.0212 29.4311 20.2087L28.934 20.706H28.9342C28.796 20.8446 28.7686 21.0589 28.8675 21.2276C28.9891 21.4363 29.0818 21.6607 29.1431 21.8944C29.1929 22.0835 29.3639 22.2151 29.5594 22.2154H30.2581C30.2813 22.4558 30.2813 22.698 30.2581 22.9384ZM26.5447 20.5546C26.009 20.5546 25.4952 20.7676 25.1161 21.1464C24.7373 21.5251 24.5244 22.0392 24.5244 22.5749C24.5244 23.1106 24.7374 23.6247 25.1161 24.0035C25.4951 24.3823 26.009 24.5952 26.5447 24.5952C27.0806 24.5952 27.5945 24.3823 27.9733 24.0035C28.3523 23.6247 28.565 23.1106 28.565 22.5749C28.5645 22.0392 28.3514 21.5258 27.9726 21.147C27.594 20.7682 27.0804 20.5553 26.5447 20.5546ZM26.5447 23.7344C26.2373 23.7344 25.9425 23.6123 25.725 23.3948C25.5076 23.1774 25.3855 22.8823 25.3855 22.575C25.3855 22.2676 25.5076 21.9725 25.725 21.7551C25.9425 21.5377 26.2373 21.4156 26.5447 21.4156C26.8523 21.4156 27.1472 21.5377 27.3646 21.7551C27.582 21.9725 27.7041 22.2676 27.7041 22.575C27.7034 22.8821 27.5811 23.1765 27.3639 23.3937C27.1465 23.6109 26.8521 23.733 26.5447 23.7332L26.5447 23.7344Z" fill="#CC1212"/>
</svg>