<svg width="38" height="38" viewBox="0 0 40 40" fill="none"
                                xmlns="http://www.w3.org/2000/svg">
                                <g clip-path="url(#clip0_5451_29827)">
                                    <path
                                        d="M37.0062 38.4371H34.45V36.7371C34.45 36.5713 34.3842 36.4124 34.2669 36.2952C34.1497 36.178 33.9908 36.1121 33.825 36.1121C33.6592 36.1121 33.5003 36.178 33.3831 36.2952C33.2658 36.4124 33.2 36.5713 33.2 36.7371V38.4371H30.8313V36.7371C30.8313 36.5713 30.7654 36.4124 30.6482 36.2952C30.531 36.178 30.372 36.1121 30.2063 36.1121C30.0405 36.1121 29.8815 36.178 29.7643 36.2952C29.6471 36.4124 29.5813 36.5713 29.5813 36.7371V38.4371H27.2125V36.7371C27.2125 36.5713 27.1467 36.4124 27.0294 36.2952C26.9122 36.178 26.7533 36.1121 26.5875 36.1121C26.4217 36.1121 26.2628 36.178 26.1456 36.2952C26.0283 36.4124 25.9625 36.5713 25.9625 36.7371V38.4371H23.5938V36.7371C23.5938 36.5713 23.5279 36.4124 23.4107 36.2952C23.2935 36.178 23.1345 36.1121 22.9688 36.1121C22.803 36.1121 22.644 36.178 22.5268 36.2952C22.4096 36.4124 22.3438 36.5713 22.3438 36.7371V38.4371H20V36.7371C20 36.5713 19.9342 36.4124 19.8169 36.2952C19.6997 36.178 19.5408 36.1121 19.375 36.1121C19.2092 36.1121 19.0503 36.178 18.9331 36.2952C18.8158 36.4124 18.75 36.5713 18.75 36.7371V38.4371H16.3625V36.7371C16.3625 36.5713 16.2967 36.4124 16.1794 36.2952C16.0622 36.178 15.9033 36.1121 15.7375 36.1121C15.5717 36.1121 15.4128 36.178 15.2956 36.2952C15.1783 36.4124 15.1125 36.5713 15.1125 36.7371V38.4371H12.7375V36.7371C12.7375 36.5713 12.6717 36.4124 12.5544 36.2952C12.4372 36.178 12.2783 36.1121 12.1125 36.1121C11.9467 36.1121 11.7878 36.178 11.6706 36.2952C11.5533 36.4124 11.4875 36.5713 11.4875 36.7371V38.4371H9.125V36.7371C9.125 36.5713 9.05915 36.4124 8.94194 36.2952C8.82473 36.178 8.66576 36.1121 8.5 36.1121C8.33424 36.1121 8.17527 36.178 8.05806 36.2952C7.94085 36.4124 7.875 36.5713 7.875 36.7371V38.4371H5.50625V36.7371C5.50625 36.5713 5.4404 36.4124 5.32319 36.2952C5.20598 36.178 5.04701 36.1121 4.88125 36.1121C4.71549 36.1121 4.55652 36.178 4.43931 36.2952C4.3221 36.4124 4.25625 36.5713 4.25625 36.7371V38.4371H1.25V35.3934H2.925C3.09076 35.3934 3.24973 35.3275 3.36694 35.2103C3.48415 35.0931 3.55 34.9341 3.55 34.7684C3.55 34.6026 3.48415 34.4436 3.36694 34.3264C3.24973 34.2092 3.09076 34.1434 2.925 34.1434H1.25V31.7746H2.925C3.09076 31.7746 3.24973 31.7088 3.36694 31.5916C3.48415 31.4743 3.55 31.3154 3.55 31.1496C3.55 30.9839 3.48415 30.8249 3.36694 30.7077C3.24973 30.5905 3.09076 30.5246 2.925 30.5246H1.25V28.1559H2.925C3.09076 28.1559 3.24973 28.09 3.36694 27.9728C3.48415 27.8556 3.55 27.6966 3.55 27.5309C3.55 27.3651 3.48415 27.2061 3.36694 27.0889C3.24973 26.9717 3.09076 26.9059 2.925 26.9059H1.25V24.5371H2.925C3.09076 24.5371 3.24973 24.4713 3.36694 24.3541C3.48415 24.2368 3.55 24.0779 3.55 23.9121C3.55 23.7463 3.48415 23.5874 3.36694 23.4702C3.24973 23.353 3.09076 23.2871 2.925 23.2871H1.25V20.9184H2.925C3.09076 20.9184 3.24973 20.8525 3.36694 20.7353C3.48415 20.6181 3.55 20.4591 3.55 20.2934C3.55 20.1276 3.48415 19.9686 3.36694 19.8514C3.24973 19.7342 3.09076 19.6684 2.925 19.6684H1.25V17.3059H2.925C3.09076 17.3059 3.24973 17.24 3.36694 17.1228C3.48415 17.0056 3.55 16.8466 3.55 16.6809C3.55 16.5151 3.48415 16.3561 3.36694 16.2389C3.24973 16.1217 3.09076 16.0559 2.925 16.0559H1.25V13.6871H2.925C3.09076 13.6871 3.24973 13.6213 3.36694 13.5041C3.48415 13.3868 3.55 13.2279 3.55 13.0621C3.55 12.8963 3.48415 12.7374 3.36694 12.6202C3.24973 12.503 3.09076 12.4371 2.925 12.4371H1.25V10.0684H2.925C3.09076 10.0684 3.24973 10.0025 3.36694 9.8853C3.48415 9.76809 3.55 9.60912 3.55 9.44336C3.55 9.2776 3.48415 9.11863 3.36694 9.00142C3.24973 8.88421 3.09076 8.81836 2.925 8.81836H1.25V6.44961H2.925C3.09076 6.44961 3.24973 6.38376 3.36694 6.26655C3.48415 6.14934 3.55 5.99037 3.55 5.82461C3.55 5.65885 3.48415 5.49988 3.36694 5.38267C3.24973 5.26546 3.09076 5.19961 2.925 5.19961H1.25V2.66211C1.25 2.49635 1.18415 2.33738 1.06694 2.22017C0.949732 2.10296 0.79076 2.03711 0.625 2.03711C0.45924 2.03711 0.300269 2.10296 0.183058 2.22017C0.065848 2.33738 0 2.49635 0 2.66211L0 5.83086V9.44336V13.0621V16.6871V20.2934V23.8996V27.5121V31.1184V34.7184V38.9934C0 39.1591 0.065848 39.3181 0.183058 39.4353C0.300269 39.5525 0.45924 39.6184 0.625 39.6184H37.0062C37.172 39.6184 37.331 39.5525 37.4482 39.4353C37.5654 39.3181 37.6312 39.1591 37.6312 38.9934C37.6312 38.8276 37.5654 38.6686 37.4482 38.5514C37.331 38.4342 37.172 38.3684 37.0062 38.3684V38.4371Z"
                                        fill="#CC1212" />
                                    <path
                                        d="M37.9609 18.2695C37.5674 18.2684 37.1819 18.3816 36.8515 18.5954C36.521 18.8092 36.2598 19.1144 36.0996 19.4739C35.9394 19.8334 35.8871 20.2317 35.949 20.6204C36.0109 21.0091 36.1844 21.3714 36.4484 21.6633L32.9984 27.5008C32.8472 27.4629 32.6918 27.444 32.5359 27.4445C32.2771 27.4444 32.0205 27.4932 31.7797 27.5883L28.3172 24.2508C28.416 24.0133 28.465 23.758 28.4609 23.5008C28.4609 22.9604 28.2463 22.4422 27.8642 22.0601C27.4821 21.678 26.9638 21.4633 26.4234 21.4633C25.8831 21.4633 25.3648 21.678 24.9827 22.0601C24.6006 22.4422 24.3859 22.9604 24.3859 23.5008C24.3869 23.7762 24.4443 24.0485 24.5547 24.3008L20.4984 29.1695C20.1538 28.9537 19.7517 28.8476 19.3454 28.8655C18.9391 28.8833 18.5478 29.0243 18.2234 29.2695L14.1109 23.4133C14.1612 23.2386 14.1864 23.0576 14.1859 22.8758C14.1571 22.3557 13.9302 21.8665 13.5518 21.5085C13.1735 21.1506 12.6724 20.9511 12.1516 20.9511C11.6307 20.9511 11.1296 21.1506 10.7513 21.5085C10.3729 21.8665 10.146 22.3557 10.1172 22.8758C10.1104 23.3734 10.2911 23.8553 10.6234 24.2258L7.84219 28.7883C7.69096 28.7504 7.53559 28.7315 7.37969 28.732C6.97645 28.7308 6.5819 28.8492 6.24602 29.0724C5.91013 29.2955 5.64801 29.6133 5.49283 29.9855C5.33766 30.3577 5.29642 30.7675 5.37433 31.1632C5.45224 31.5588 5.6458 31.9225 5.9305 32.208C6.2152 32.4936 6.57823 32.6883 6.97364 32.7674C7.36904 32.8465 7.77904 32.8066 8.15171 32.6525C8.52437 32.4985 8.84296 32.2374 9.06712 31.9022C9.29128 31.567 9.41094 31.1728 9.41094 30.7695C9.41435 30.2744 9.23396 29.7956 8.90469 29.4258L11.6734 24.857C11.8269 24.8946 11.9842 24.9135 12.1422 24.9133C12.5826 24.9124 13.0106 24.7675 13.3609 24.5008L17.4984 30.3508C17.4427 30.5266 17.4152 30.7101 17.4172 30.8945C17.4018 31.1712 17.4431 31.448 17.5384 31.7082C17.6337 31.9684 17.7811 32.2064 17.9715 32.4076C18.1619 32.6089 18.3914 32.7692 18.6459 32.8788C18.9003 32.9883 19.1745 33.0448 19.4516 33.0448C19.7286 33.0448 20.0028 32.9883 20.2573 32.8788C20.5118 32.7692 20.7412 32.6089 20.9316 32.4076C21.1221 32.2064 21.2694 31.9684 21.3647 31.7082C21.46 31.448 21.5013 31.1712 21.4859 30.8945C21.4881 30.6288 21.4371 30.3653 21.3359 30.1195L25.3922 25.2383C25.7063 25.4366 26.0707 25.5407 26.4422 25.5383C26.8352 25.5369 27.2194 25.4218 27.5484 25.207L30.8422 28.3758C30.6294 28.7032 30.5165 29.0854 30.5172 29.4758C30.5125 29.8084 30.5893 30.1371 30.741 30.4332C30.8926 30.7293 31.1144 30.9837 31.387 31.1743C31.6596 31.3649 31.9748 31.4859 32.3049 31.5266C32.6351 31.5674 32.9702 31.5267 33.2809 31.4081C33.5917 31.2895 33.8688 31.0966 34.0878 30.8462C34.3069 30.5959 34.4613 30.2958 34.5376 29.972C34.614 29.6482 34.6098 29.3107 34.5257 28.9888C34.4415 28.667 34.2798 28.3707 34.0547 28.1258L37.4984 22.2883C37.6476 22.3257 37.8009 22.3446 37.9547 22.3445C38.4951 22.3445 39.0133 22.1299 39.3954 21.7478C39.7775 21.3657 39.9922 20.8474 39.9922 20.307C39.9922 19.7667 39.7775 19.2484 39.3954 18.8663C39.0133 18.4842 38.4951 18.2695 37.9547 18.2695H37.9609Z"
                                        fill="#CC1212" />
                                    <path
                                        d="M24.562 13.2688C24.412 13.4438 24.2495 13.625 24.087 13.7875C23.9233 13.9536 23.7501 14.1101 23.5683 14.2563L23.4683 14.3375L27.2683 18.5687C27.4021 18.7439 27.5705 18.8897 27.7629 18.9972C27.9553 19.1047 28.1677 19.1716 28.387 19.1937H28.4495C28.5842 19.1897 28.7166 19.1576 28.8383 19.0995C28.9599 19.0414 29.068 18.9585 29.1558 18.8563C29.2582 18.7632 29.3409 18.6506 29.3989 18.5249C29.4568 18.3993 29.4889 18.2633 29.4933 18.125C29.4388 17.6814 29.2148 17.276 28.8683 16.9938L24.637 13.2062L24.562 13.2688ZM18.0558 15.1813C19.5918 15.1835 21.0903 14.7072 22.3433 13.8188L22.437 13.75C22.7444 13.5261 23.0329 13.2774 23.2995 13.0063C24.5127 11.7921 25.2674 10.1948 25.4349 8.48656C25.6024 6.77833 25.1724 5.06487 24.2182 3.63814C23.264 2.21141 21.8446 1.1597 20.2018 0.662206C18.5591 0.164715 16.7947 0.252231 15.2092 0.909843C13.6238 1.56745 12.3154 2.75447 11.5071 4.26862C10.6987 5.78278 10.4404 7.53038 10.7761 9.21364C11.1119 10.8969 12.0209 12.4117 13.3483 13.4998C14.6757 14.588 16.3394 15.1822 18.0558 15.1813ZM13.5058 3.20625C14.5552 2.15371 15.937 1.49754 17.4159 1.34952C18.8948 1.2015 20.3793 1.57078 21.6164 2.39447C22.8536 3.21815 23.7669 4.44528 24.2008 5.86682C24.6348 7.28835 24.5624 8.81636 23.9961 10.1905C23.4299 11.5647 22.4047 12.7001 21.0952 13.4032C19.7858 14.1063 18.273 14.3337 16.8147 14.0466C15.3564 13.7595 14.0428 12.9757 13.0975 11.8287C12.1523 10.6817 11.6339 9.24253 11.6308 7.75625C11.6262 6.91143 11.7896 6.07414 12.1115 5.29303C12.4334 4.51193 12.9073 3.80259 13.5058 3.20625Z"
                                        fill="#CC1212" />
                                    <path
                                        d="M21.7391 11.4366C22.4672 10.7085 22.9631 9.78082 23.164 8.7709C23.3649 7.76097 23.2618 6.71415 22.8678 5.76281C22.4738 4.81148 21.8065 3.99835 20.9503 3.42626C20.0941 2.85418 19.0875 2.54883 18.0578 2.54883C17.0281 2.54883 16.0215 2.85418 15.1653 3.42626C14.3092 3.99835 13.6419 4.81148 13.2478 5.76281C12.8538 6.71415 12.7507 7.76097 12.9516 8.7709C13.1525 9.78082 13.6484 10.7085 14.3766 11.4366C14.8575 11.9245 15.4306 12.3119 16.0625 12.5764C16.6945 12.8409 17.3727 12.9771 18.0578 12.9771C18.7429 12.9771 19.4211 12.8409 20.0531 12.5764C20.6851 12.3119 21.2582 11.9245 21.7391 11.4366ZM17.8953 8.12408C17.1578 7.84283 16.4703 7.45533 16.4703 6.59908C16.4708 6.25933 16.5906 5.93055 16.8088 5.67011C17.027 5.40968 17.3297 5.23412 17.6641 5.17408V4.37408H18.5516V5.12408C18.8796 5.14908 19.1978 5.24733 19.4828 5.41158L19.6266 5.49908L19.2828 6.38033L19.0891 6.24908C18.8134 6.09103 18.5006 6.00907 18.1828 6.01158C17.7141 6.01158 17.5578 6.25533 17.5578 6.49283C17.5578 6.73033 17.6828 6.89908 18.4203 7.19908C18.7876 7.28612 19.1168 7.48954 19.359 7.77902C19.6011 8.06849 19.7432 8.42849 19.7641 8.80533C19.7602 9.16035 19.6336 9.5031 19.4058 9.77539C19.1779 10.0477 18.8629 10.2327 18.5141 10.2991V11.1491H17.6078V10.3616C17.2074 10.3326 16.8205 10.2037 16.4828 9.98658L16.3578 9.90533L16.6828 9.00533L16.8953 9.14908C17.2046 9.34272 17.5617 9.44658 17.9266 9.44908C18.3703 9.44908 18.6703 9.21783 18.6703 8.87408C18.6703 8.64908 18.5766 8.40533 17.8953 8.12408Z"
                                        fill="#CC1212" />
                                </g>
                                <defs>
                                    <clipPath id="clip0_5451_29827">
                                        <rect width="40" height="40" fill="white" />
                                    </clipPath>
                                </defs>
</svg>