<svg width="38" height="38" viewBox="0 0 39 39" fill="none" xmlns="http://www.w3.org/2000/svg">
<path d="M33.4297 11.3216C33.4297 7.83828 30.5797 4.98828 27.0964 4.98828H25.513C24.563 4.98828 23.9297 5.62161 23.9297 6.57161C23.9297 7.52161 24.563 8.15495 25.513 8.15495H27.0964C28.838 8.15495 30.263 9.57995 30.263 11.3216V13.0633C30.263 14.0133 30.8964 14.6466 31.8464 14.6466C32.7964 14.6466 33.4297 14.0133 33.4297 13.0633V11.3216ZM33.4297 25.5716C33.4297 24.6216 32.7964 23.9883 31.8464 23.9883C30.8964 23.9883 30.263 24.6216 30.263 25.5716V27.1549C30.263 28.8966 28.838 30.3216 27.0964 30.3216H25.513C24.563 30.3216 23.9297 30.955 23.9297 31.905C23.9297 32.8549 24.563 33.4883 25.513 33.4883H27.0964C30.5797 33.4883 33.4297 30.6383 33.4297 27.1549V25.5716ZM4.92969 27.1549C4.92969 30.6383 7.77969 33.4883 11.263 33.4883H12.8464C13.7964 33.4883 14.4297 32.8549 14.4297 31.905C14.4297 30.955 13.7964 30.3216 12.8464 30.3216H11.263C9.52135 30.3216 8.09635 28.8966 8.09635 27.1549V25.5716C8.09635 24.6216 7.46302 23.9883 6.51302 23.9883C5.56302 23.9883 4.92969 24.6216 4.92969 25.5716V27.1549ZM12.8464 4.98828H11.263C7.77969 4.98828 4.92969 7.83828 4.92969 11.3216V12.9049C4.92969 13.8549 5.56302 14.4883 6.51302 14.4883C7.46302 14.4883 8.09635 13.8549 8.09635 12.9049V11.3216C8.09635 9.57995 9.52135 8.15495 11.263 8.15495H12.8464C13.7964 8.15495 14.4297 7.52161 14.4297 6.57161C14.4297 5.62161 13.7964 4.98828 12.8464 4.98828ZM23.9297 14.4883C23.9297 11.7966 21.8714 9.73828 19.1797 9.73828C16.488 9.73828 14.4297 11.7966 14.4297 14.4883C14.4297 17.1799 16.488 19.2383 19.1797 19.2383C21.8714 19.2383 23.9297 17.1799 23.9297 14.4883ZM19.1797 16.0716C18.2297 16.0716 17.5964 15.4383 17.5964 14.4883C17.5964 13.5383 18.2297 12.9049 19.1797 12.9049C20.1297 12.9049 20.763 13.5383 20.763 14.4883C20.763 15.4383 20.1297 16.0716 19.1797 16.0716Z" fill="url(#paint0_linear_3820_20469)"/>
<path d="M33.4297 11.3216C33.4297 7.83828 30.5797 4.98828 27.0964 4.98828H25.513C24.563 4.98828 23.9297 5.62161 23.9297 6.57161C23.9297 7.52161 24.563 8.15495 25.513 8.15495H27.0964C28.838 8.15495 30.263 9.57995 30.263 11.3216V13.0633C30.263 14.0133 30.8964 14.6466 31.8464 14.6466C32.7964 14.6466 33.4297 14.0133 33.4297 13.0633V11.3216ZM33.4297 25.5716C33.4297 24.6216 32.7964 23.9883 31.8464 23.9883C30.8964 23.9883 30.263 24.6216 30.263 25.5716V27.1549C30.263 28.8966 28.838 30.3216 27.0964 30.3216H25.513C24.563 30.3216 23.9297 30.955 23.9297 31.905C23.9297 32.8549 24.563 33.4883 25.513 33.4883H27.0964C30.5797 33.4883 33.4297 30.6383 33.4297 27.1549V25.5716ZM4.92969 27.1549C4.92969 30.6383 7.77969 33.4883 11.263 33.4883H12.8464C13.7964 33.4883 14.4297 32.8549 14.4297 31.905C14.4297 30.955 13.7964 30.3216 12.8464 30.3216H11.263C9.52135 30.3216 8.09635 28.8966 8.09635 27.1549V25.5716C8.09635 24.6216 7.46302 23.9883 6.51302 23.9883C5.56302 23.9883 4.92969 24.6216 4.92969 25.5716V27.1549ZM12.8464 4.98828H11.263C7.77969 4.98828 4.92969 7.83828 4.92969 11.3216V12.9049C4.92969 13.8549 5.56302 14.4883 6.51302 14.4883C7.46302 14.4883 8.09635 13.8549 8.09635 12.9049V11.3216C8.09635 9.57995 9.52135 8.15495 11.263 8.15495H12.8464C13.7964 8.15495 14.4297 7.52161 14.4297 6.57161C14.4297 5.62161 13.7964 4.98828 12.8464 4.98828ZM23.9297 14.4883C23.9297 11.7966 21.8714 9.73828 19.1797 9.73828C16.488 9.73828 14.4297 11.7966 14.4297 14.4883C14.4297 17.1799 16.488 19.2383 19.1797 19.2383C21.8714 19.2383 23.9297 17.1799 23.9297 14.4883ZM19.1797 16.0716C18.2297 16.0716 17.5964 15.4383 17.5964 14.4883C17.5964 13.5383 18.2297 12.9049 19.1797 12.9049C20.1297 12.9049 20.763 13.5383 20.763 14.4883C20.763 15.4383 20.1297 16.0716 19.1797 16.0716Z" fill="black" fill-opacity="0.2"/>
<path d="M12.0548 23.0383L11.4215 25.0966C11.1048 25.8883 11.5798 26.8383 12.3715 27.1549C13.1631 27.4716 14.1131 26.9966 14.4298 26.2049L15.0631 23.9883C15.3798 23.0383 16.3298 22.4049 17.2798 22.4049H21.0798C22.0298 22.4049 22.9798 23.0383 23.2965 23.9883L23.9298 26.0466C24.0881 26.6799 24.7215 27.1549 25.3548 27.1549C25.5131 27.1549 25.6715 27.1549 25.8298 26.9966C26.6215 26.6799 27.0965 25.8883 26.7798 24.9383L26.1465 22.8799C25.5131 20.8216 23.4548 19.2383 21.0798 19.2383H17.2798C14.9048 19.2383 12.8465 20.8216 12.0548 23.0383Z" fill="url(#paint1_linear_3820_20469)"/>
<path d="M12.0548 23.0383L11.4215 25.0966C11.1048 25.8883 11.5798 26.8383 12.3715 27.1549C13.1631 27.4716 14.1131 26.9966 14.4298 26.2049L15.0631 23.9883C15.3798 23.0383 16.3298 22.4049 17.2798 22.4049H21.0798C22.0298 22.4049 22.9798 23.0383 23.2965 23.9883L23.9298 26.0466C24.0881 26.6799 24.7215 27.1549 25.3548 27.1549C25.5131 27.1549 25.6715 27.1549 25.8298 26.9966C26.6215 26.6799 27.0965 25.8883 26.7798 24.9383L26.1465 22.8799C25.5131 20.8216 23.4548 19.2383 21.0798 19.2383H17.2798C14.9048 19.2383 12.8465 20.8216 12.0548 23.0383Z" fill="black" fill-opacity="0.2"/>
<defs>
<linearGradient id="paint0_linear_3820_20469" x1="19.1797" y1="4.98828" x2="19.1797" y2="33.4883" gradientUnits="userSpaceOnUse">
<stop stop-color="#FF0F0F"/>
<stop offset="1" stop-color="#FF4849"/>
</linearGradient>
<linearGradient id="paint1_linear_3820_20469" x1="19.1006" y1="19.2383" x2="19.1006" y2="27.2541" gradientUnits="userSpaceOnUse">
<stop stop-color="#FF0F0F"/>
<stop offset="1" stop-color="#FF4849"/>
</linearGradient>
</defs>
</svg>