<svg width="38" height="38" viewBox="0 0 30 24" fill="none" xmlns="http://www.w3.org/2000/svg">
<path fill-rule="evenodd" clip-rule="evenodd" d="M27.5004 0.230521H2.53125C2.00067 0.230521 1.49216 0.441012 1.11719 0.816463C0.742193 1.19146 0.53125 1.69995 0.53125 2.23052V8.23052C0.53125 8.50641 0.755359 8.73052 1.03125 8.73052C1.30714 8.73052 1.53125 8.50641 1.53125 8.23052V2.23052C1.53125 1.96557 1.63683 1.7111 1.82433 1.52361C2.01183 1.33611 2.2663 1.23053 2.53124 1.23053H18.3975C18.3951 1.24347 18.3295 2.56356 18.392 3.20796C18.4134 3.42604 18.5745 3.60505 18.789 3.64903L19.9314 3.88407C20.0069 4.27202 20.11 4.65505 20.2384 5.02962L19.3663 5.80419C19.2022 5.94973 19.1522 6.18522 19.2433 6.38476C19.5107 6.97425 19.8352 7.53568 20.2118 8.06265C20.3392 8.24122 20.5683 8.31555 20.7763 8.24613L21.8827 7.87805C22.1428 8.17649 22.4227 8.45708 22.7218 8.71713C22.7214 8.71669 22.3538 9.82359 22.3538 9.82359C22.2843 10.0316 22.3587 10.2606 22.5372 10.3881C23.0638 10.7647 23.6256 11.0886 24.2151 11.3566C24.4147 11.4477 24.6502 11.3977 24.7957 11.2336L25.5703 10.3615C25.9444 10.4901 26.3272 10.5925 26.7158 10.6684L26.9504 11.8104C26.9948 12.0253 27.1738 12.1863 27.3919 12.2079C27.7604 12.2434 28.1303 12.2588 28.5004 12.2539V15.2305H22.5427C22.5556 14.776 22.5411 14.299 22.5003 13.8765C22.4788 13.6579 22.3177 13.4789 22.1032 13.4349L20.9608 13.2003C20.8849 12.812 20.7822 12.4289 20.6538 12.0548L21.526 11.2802C21.69 11.1347 21.74 10.8992 21.6489 10.6992C21.3809 10.1101 21.057 9.54829 20.6804 9.02178C20.553 8.84321 20.3239 8.76888 20.1159 8.83785L19.0095 9.20593C18.7494 8.90749 18.4691 8.62735 18.1704 8.36753L18.5385 7.26107C18.6079 7.05303 18.5335 6.82402 18.355 6.69656C17.828 6.32 17.2666 5.99565 16.6771 5.72759C16.4775 5.63719 16.242 5.68719 16.0965 5.85103L15.3219 6.72314C14.9474 6.59413 14.565 6.49167 14.1764 6.41622L13.9414 5.27382C13.8974 5.05887 13.7184 4.89793 13.5003 4.87673C12.8559 4.81422 12.2067 4.81422 11.5628 4.87673C11.3443 4.89771 11.1653 5.05865 11.1213 5.27382L10.8867 6.41622C10.4983 6.49167 10.1152 6.59413 9.74113 6.72314L8.96656 5.85103C8.82102 5.68697 8.58553 5.63697 8.38553 5.72759C7.79645 5.99567 7.23462 6.31999 6.70811 6.69656C6.52953 6.82402 6.4552 7.05303 6.52417 7.26107L6.89225 8.36753C6.59381 8.62757 6.31368 8.90748 6.05385 9.20593L4.9474 8.83785C4.73936 8.76888 4.51034 8.84343 4.38289 9.02178C4.00633 9.54834 3.68197 10.1102 3.41392 10.6992C3.32352 10.8992 3.37351 11.1347 3.53736 11.2802L4.40947 12.0548C4.28045 12.4289 4.178 12.8117 4.10255 13.2003L2.96015 13.4349C2.7452 13.4789 2.58426 13.6579 2.56305 13.8765C2.52198 14.299 2.50814 14.776 2.52109 15.2305H1.5316V10.2305C1.5316 9.95458 1.30749 9.73047 1.0316 9.73047C0.755712 9.73047 0.531603 9.95458 0.531603 10.2305V17.2305C0.531603 17.7611 0.74254 18.2696 1.11755 18.6445C1.49255 19.02 2.00103 19.2305 2.5316 19.2305H12.391L10.9326 22.7305H10.0161C9.74017 22.7305 9.51606 22.9546 9.51606 23.2305C9.51606 23.5064 9.74017 23.7305 10.0161 23.7305H20.0161C20.292 23.7305 20.5161 23.5064 20.5161 23.2305C20.5161 22.9546 20.292 22.7305 20.0161 22.7305H19.0995L17.6411 19.2305H27.5005C28.0311 19.2305 28.5396 19.02 28.9146 18.6445C29.2896 18.2695 29.5005 17.761 29.5005 17.2305V2.23047C29.5005 1.69989 29.2896 1.19138 28.9146 0.816412C28.5396 0.440966 28.0311 0.230469 27.5005 0.230469L27.5004 0.230521ZM18.0158 22.7305H12.0158L13.4743 19.2305H16.5573L18.0158 22.7305ZM28.5004 16.2305H1.53125V17.2305C1.53125 17.4955 1.63683 17.7499 1.82433 17.9374C2.01183 18.1249 2.2663 18.2305 2.53124 18.2305H27.5004C27.7653 18.2305 28.0198 18.1249 28.2073 17.9374C28.3948 17.7499 28.5004 17.4955 28.5004 17.2305L28.5004 16.2305ZM16.9861 15.2305C16.9941 15.0955 16.9982 14.9611 16.9982 14.845C16.9982 12.3801 14.9966 10.379 12.5316 10.379C10.0667 10.379 8.06513 12.3799 8.06513 14.845C8.06513 14.9611 8.0696 15.0955 8.07808 15.2305H16.9861ZM3.52096 15.2305C3.51137 14.9361 3.51494 14.6305 3.53101 14.339C3.53101 14.3385 4.63701 14.1115 4.63701 14.1115C4.84192 14.0696 4.99906 13.9039 5.03053 13.6975C5.11513 13.147 5.25955 12.6075 5.46156 12.0885C5.53745 11.8941 5.48455 11.672 5.32808 11.533L4.483 10.783C4.63501 10.4814 4.80443 10.1886 4.98947 9.90593L6.06159 10.2624C6.26003 10.3285 6.47855 10.264 6.60958 10.1004C6.95756 9.66576 7.35266 9.27087 7.787 8.92293C7.9504 8.7919 8.01491 8.57337 7.94905 8.37494L7.59258 7.30282C7.87517 7.11778 8.16801 6.94881 8.46961 6.79635L9.21961 7.64143C9.35867 7.79791 9.58055 7.85104 9.77519 7.77492C10.2942 7.5729 10.8336 7.42849 11.3841 7.34389C11.5906 7.31241 11.7562 7.15549 11.7982 6.95036L12.0256 5.8439C12.3627 5.82493 12.7006 5.82493 13.0381 5.8439L13.2656 6.95036C13.3076 7.15527 13.4725 7.31241 13.6797 7.34389C14.2301 7.42849 14.7696 7.5729 15.2881 7.77492C15.4832 7.85081 15.7046 7.79791 15.8437 7.64143L16.5942 6.79635C16.8957 6.94881 17.1882 7.11778 17.4712 7.30282L17.1147 8.37494C17.0486 8.57338 17.1131 8.7919 17.2763 8.92293C17.7109 9.27092 18.1058 9.66601 18.4542 10.1004C18.5848 10.2638 18.8033 10.3283 19.0022 10.2624L20.0743 9.90593C20.2594 10.1885 20.4283 10.4814 20.5803 10.783L19.7359 11.533C19.5795 11.672 19.5259 11.8939 19.602 12.0885C19.8045 12.6075 19.9491 13.147 20.033 13.6975C20.065 13.9039 20.2221 14.0696 20.427 14.1115L21.533 14.3385C21.5491 14.6305 21.5524 14.9361 21.5435 15.2305H17.9875C17.9951 15.095 17.9984 14.962 17.9984 14.845C17.9984 11.828 15.5489 9.37893 12.5319 9.37893C9.51495 9.37893 7.0654 11.828 7.0654 14.845C7.0654 14.962 7.06942 15.095 7.07701 15.2305L3.52096 15.2305ZM22.9873 1.23052H19.3638C19.3413 1.58543 19.3393 2.39058 19.3594 2.74549L20.4658 2.97295C20.6707 3.01491 20.8279 3.17987 20.8598 3.38701C20.9437 3.93746 21.0884 4.47695 21.2908 4.99547C21.3667 5.19056 21.3134 5.41199 21.1569 5.55105L20.3118 6.30151C20.4643 6.60307 20.6332 6.89551 20.8183 7.17854L21.8904 6.82206C22.0888 6.756 22.3078 6.8205 22.4384 6.98367C22.7868 7.41827 23.1815 7.81316 23.6158 8.1611C23.7792 8.29213 23.8437 8.51065 23.7779 8.70909L23.4214 9.78166C23.704 9.9667 23.9968 10.1357 24.2984 10.2877L25.0489 9.44329C25.1873 9.28681 25.4094 9.23324 25.6044 9.30936C26.123 9.51181 26.6625 9.65645 27.2129 9.74039C27.4198 9.77186 27.585 9.92945 27.627 10.1339L27.8544 11.2408C28.0694 11.2529 28.285 11.2573 28.5004 11.2538V7.70377C27.5259 7.72966 26.533 7.49618 25.6275 6.9732C23.5649 5.7828 22.5719 3.44663 22.9875 1.23091L22.9873 1.23052ZM24.0082 1.23052C23.5763 3.09504 24.3848 5.10104 26.1272 6.10709C26.8747 6.53857 27.6957 6.72966 28.5002 6.70309V2.23052C28.5002 1.96557 28.3946 1.7111 28.2071 1.52361C28.0196 1.33611 27.7651 1.23053 27.5002 1.23053L24.0082 1.23052Z" fill="url(#paint0_linear_4003_36686)"/>
<defs>
<linearGradient id="paint0_linear_4003_36686" x1="23.1015" y1="0.230469" x2="23.0141" y2="28.7665" gradientUnits="userSpaceOnUse">
<stop stop-color="#005CAA"/>
<stop offset="1" stop-color="#64B0F1"/>
</linearGradient>
</defs>
</svg>