<svg width="38" height="38" viewBox="0 0 31 26" fill="none" xmlns="http://www.w3.org/2000/svg">
<path d="M12.7473 5.94527V6.40175C12.3214 6.59327 12.0237 7.02072 12.0237 7.51695V7.58324C12.0237 8.00556 12.2476 8.40536 12.6078 8.62633L13.4163 9.12164C13.4833 9.16272 13.5232 9.23415 13.5232 9.31227C13.5232 9.43526 13.423 9.53548 13.2996 9.53548H13.2471C13.1239 9.53548 13.0234 9.43526 13.0234 9.31227C13.0234 9.03615 12.7996 8.81227 12.5234 8.81227C12.2473 8.81227 12.0234 9.03615 12.0234 9.31227C12.0234 9.8145 12.3281 10.2467 12.7618 10.4346V10.781C12.7618 11.0572 12.9857 11.281 13.2618 11.281C13.538 11.281 13.7618 11.0572 13.7618 10.781V10.4438C14.2078 10.261 14.5228 9.82279 14.5228 9.31205C14.5228 8.88995 14.2989 8.48994 13.9386 8.26874L13.1299 7.7732C13.064 7.73302 13.0232 7.66025 13.0232 7.58302L13.0236 7.51718C13.0236 7.39419 13.1239 7.29396 13.2473 7.29396H13.2998C13.423 7.29396 13.5234 7.39419 13.5234 7.51718V7.53771C13.5234 7.81383 13.7473 8.03771 14.0234 8.03771C14.2995 8.03771 14.5234 7.81383 14.5234 7.53771L14.5232 7.51718C14.5232 7.00088 14.2011 6.55889 13.7473 6.37969V5.94531C13.7473 5.6692 13.5234 5.44531 13.2473 5.44531C12.971 5.44531 12.7473 5.66938 12.7473 5.94527Z" fill="url(#paint0_linear_3954_27521)"/>
<path d="M20.2589 8.42631C20.2589 8.09238 19.9868 7.82031 19.6529 7.82031C19.319 7.82031 19.0469 8.09241 19.0469 8.42631C19.0469 8.76022 19.319 9.03231 19.6529 9.03231C19.987 9.03231 20.2589 8.76022 20.2589 8.42631Z" fill="url(#paint1_linear_3954_27521)"/>
<path d="M6.76562 8.42631C6.76562 8.76024 7.03772 9.03231 7.37162 9.03231C7.70553 9.03231 7.97762 8.76022 7.97762 8.42631C7.97762 8.09241 7.70553 7.82031 7.37162 7.82031C7.03772 7.82031 6.76562 8.09219 6.76562 8.42631Z" fill="url(#paint2_linear_3954_27521)"/>
<path d="M8.97656 8.42601C8.97656 10.7696 10.8835 12.6762 13.2275 12.6762C15.5716 12.676 17.4786 10.7693 17.4786 8.42601C17.4786 6.08247 15.5717 4.17578 13.2277 4.17578C10.8837 4.17578 8.97656 6.08224 8.97656 8.42601ZM16.4788 8.42601C16.4788 10.2182 15.0204 11.6762 13.2279 11.6762C11.4353 11.6762 9.97702 10.2182 9.97702 8.42601C9.97702 6.63384 11.4355 5.17578 13.2279 5.17578C15.0206 5.17578 16.4788 6.63384 16.4788 8.42601Z" fill="url(#paint3_linear_3954_27521)"/>
<path d="M24.7206 17.039V16.2878C25.2977 16.0816 25.7123 15.5311 25.7123 14.8843V14.7936C25.7123 14.2787 25.4394 13.7912 24.9998 13.522L23.8915 12.8427C23.7464 12.7541 23.6567 12.5936 23.6567 12.4238C23.6567 12.1528 23.8775 11.9322 24.1485 11.9322H24.2203C24.4913 11.9322 24.7121 12.1528 24.7121 12.4238V12.6651C24.7121 12.9412 24.936 13.1651 25.2121 13.1651C25.4882 13.1651 25.7121 12.9412 25.7121 12.6651V12.4238C25.7121 11.7691 25.2877 11.213 24.6996 11.0128V10.4102C24.6996 10.134 24.4757 9.91016 24.1996 9.91016C23.9234 9.91016 23.6996 10.134 23.6996 10.4102V11.0015C23.0956 11.1923 22.6562 11.7577 22.6562 12.4238C22.6562 12.9388 22.929 13.4263 23.3688 13.6955L24.4771 14.3747C24.6221 14.4633 24.7121 14.6238 24.7121 14.7937V14.8843C24.7121 15.1553 24.4913 15.3758 24.2204 15.3758H24.1485C23.8775 15.3758 23.6567 15.1553 23.6567 14.8843V14.8564C23.6567 14.5803 23.4328 14.3564 23.1567 14.3564C22.8806 14.3564 22.6567 14.5803 22.6567 14.8564V14.8843C22.6567 15.558 23.1058 16.1281 23.7203 16.3124V17.0388C23.7203 17.3149 23.9442 17.5388 24.2203 17.5388C24.4964 17.5388 24.7206 17.3151 24.7206 17.039L24.7206 17.039Z" fill="url(#paint4_linear_3954_27521)"/>
<path d="M28.4215 18.8493H27.0503C28.8184 17.8511 30.0155 15.9556 30.0155 13.785C30.0155 11.4111 28.584 9.36652 26.5396 8.46492V1.11406C26.5396 0.726114 26.2256 0.414062 25.8396 0.414062H0.715625C0.329688 0.414062 0.015625 0.726114 0.015625 1.11406V15.6118C0.015625 15.9977 0.329688 16.3118 0.715625 16.3118H18.4196C18.2236 15.8658 18.0777 15.3957 17.9897 14.9118H1.41543V1.81406H25.1394V8.04949C24.8789 8.00708 24.6124 7.98275 24.3414 7.97628V6.31822C24.3414 6.04233 24.1173 5.81822 23.8414 5.81822C22.3254 5.81822 21.0914 4.69611 21.0914 3.31822C21.0914 3.04233 20.8673 2.81822 20.5914 2.81822H5.95315C5.67725 2.81822 5.45315 3.04233 5.45315 3.31822C5.45315 4.69611 4.2192 5.81822 2.70315 5.81822C2.42725 5.81822 2.20314 6.04233 2.20314 6.31822V10.3803C2.20314 10.6562 2.42725 10.8803 2.70315 10.8803C4.2192 10.8803 5.45315 12.0024 5.45315 13.3823C5.45315 13.6582 5.67725 13.8823 5.95315 13.8823H17.8891C17.8871 13.8504 17.8871 13.8182 17.8871 13.7863C17.8871 13.4803 17.9092 13.1782 17.9512 12.8823H6.4152C6.17926 11.3383 4.8612 10.1182 3.20314 9.91018V6.78807C4.8612 6.58003 6.17903 5.36018 6.4152 3.81795H20.1295C20.3674 5.3599 21.6855 6.58001 23.3415 6.78807V8.03653C20.7016 8.42983 18.6366 10.6037 18.4098 13.2932C18.4076 13.3193 18.4056 13.3457 18.4038 13.3718C18.3942 13.5086 18.3875 13.6459 18.3875 13.7852V13.7861C18.3875 13.818 18.3875 13.8501 18.3895 13.8821H18.3909C18.3967 14.2338 18.433 14.5781 18.4991 14.9119H18.4973C18.4991 14.9206 18.5016 14.9294 18.5034 14.9381C18.5174 15.0068 18.5346 15.0744 18.5507 15.1425C18.5638 15.197 18.5759 15.2517 18.5904 15.3055C18.6087 15.3733 18.6299 15.4398 18.6509 15.5066C18.6679 15.5613 18.6844 15.6162 18.7027 15.6702C18.7243 15.7327 18.7482 15.7943 18.7719 15.8559C18.7931 15.9113 18.8138 15.9668 18.8368 16.0215C18.8645 16.0872 18.8942 16.1514 18.9241 16.216C18.9388 16.2477 18.9518 16.2805 18.9672 16.3117H18.9694C19.4879 17.3798 20.3223 18.2675 21.3527 18.8492H19.9716C19.0953 18.8492 18.3824 19.5619 18.3824 20.4385V21.3345C18.3824 21.3985 18.3873 21.4615 18.3949 21.5235H18.2764C17.4 21.5235 16.6871 22.2363 16.6871 23.1128V24.0088C16.6871 24.8851 17.3998 25.598 18.2764 25.598H26.7255C27.6018 25.598 28.3148 24.8853 28.3148 24.0088V23.1128C28.3148 23.0485 28.3099 22.9858 28.3023 22.9235H28.421C29.2974 22.9235 30.0103 22.2107 30.0103 21.3344V20.4384C30.0103 19.5623 29.2975 18.8495 28.4212 18.8495L28.4215 18.8493ZM19.7878 13.785C19.7878 11.3518 21.7677 9.37252 24.2019 9.37252C26.6356 9.37252 28.6157 11.352 28.6157 13.785C28.6157 16.2183 26.6358 18.1975 24.2019 18.1975C21.7677 18.1975 19.7878 16.2183 19.7878 13.785ZM26.9152 24.009C26.9152 24.1133 26.8302 24.1983 26.7259 24.1983H18.2762C18.172 24.1983 18.0869 24.1133 18.0869 24.009V23.113C18.0869 23.0088 18.172 22.9238 18.2762 22.9238H26.7259C26.8302 22.9238 26.9152 23.0088 26.9152 23.113V24.009ZM28.6108 21.3347C28.6108 21.4389 28.5257 21.5238 28.4215 21.5238H19.9718C19.8675 21.5238 19.7825 21.4389 19.7825 21.3347V20.4387C19.7825 20.3345 19.8675 20.2494 19.9718 20.2494H28.4215C28.5257 20.2494 28.6108 20.3345 28.6108 20.4387V21.3347Z" fill="url(#paint5_linear_3954_27521)"/>
<defs>
<linearGradient id="paint0_linear_3954_27521" x1="13.9712" y1="5.44531" x2="13.9088" y2="12.5312" gradientUnits="userSpaceOnUse">
<stop stop-color="#005CAA"/>
<stop offset="1" stop-color="#64B0F1"/>
</linearGradient>
<linearGradient id="paint1_linear_3954_27521" x1="19.9912" y1="7.82031" x2="19.9856" y2="9.29204" gradientUnits="userSpaceOnUse">
<stop stop-color="#005CAA"/>
<stop offset="1" stop-color="#64B0F1"/>
</linearGradient>
<linearGradient id="paint2_linear_3954_27521" x1="7.70991" y1="7.82031" x2="7.70435" y2="9.29204" gradientUnits="userSpaceOnUse">
<stop stop-color="#005CAA"/>
<stop offset="1" stop-color="#64B0F1"/>
</linearGradient>
<linearGradient id="paint3_linear_3954_27521" x1="15.6006" y1="4.17578" x2="15.5617" y2="14.4978" gradientUnits="userSpaceOnUse">
<stop stop-color="#005CAA"/>
<stop offset="1" stop-color="#64B0F1"/>
</linearGradient>
<linearGradient id="paint4_linear_3954_27521" x1="25.0373" y1="9.91016" x2="24.95" y2="19.1729" gradientUnits="userSpaceOnUse">
<stop stop-color="#005CAA"/>
<stop offset="1" stop-color="#64B0F1"/>
</linearGradient>
<linearGradient id="paint5_linear_3954_27521" x1="23.3888" y1="0.414062" x2="23.2919" y2="30.9949" gradientUnits="userSpaceOnUse">
<stop stop-color="#005CAA"/>
<stop offset="1" stop-color="#64B0F1"/>
</linearGradient>
</defs>
</svg>