<svg width="38" height="38" viewBox="0 0 26 28" fill="none" xmlns="http://www.w3.org/2000/svg">
<path d="M5.88808 11.136H7.5686C7.72488 11.7003 7.94902 12.2404 8.23892 12.7495L7.04865 13.9398C6.95938 14.029 6.90954 14.1497 6.90954 14.2757C6.90954 14.402 6.95937 14.5227 7.04865 14.6116L9.06276 16.625C9.24852 16.8108 9.54878 16.8108 9.73433 16.625L10.9246 15.4347C11.4344 15.7244 11.9743 15.9492 12.5381 16.1051V17.786C12.5381 18.0488 12.751 18.261 13.0131 18.261H15.8631C16.1259 18.261 16.3381 18.0488 16.3381 17.786V16.1055C16.902 15.9496 17.4421 15.7251 17.9512 15.4352L19.1421 16.6255C19.3279 16.8112 19.6282 16.8112 19.8137 16.6255L21.8272 14.612C22.0129 14.4262 22.0129 14.126 21.8272 13.9404L20.6369 12.7502C20.9266 12.2404 21.1514 11.7005 21.3072 11.1366L22.9882 11.1364C23.2509 11.1364 23.4632 10.9235 23.4632 10.6614V7.81141C23.4632 7.54931 23.2509 7.33641 22.9882 7.33641H21.3077C21.1518 6.77254 20.9272 6.23246 20.6373 5.72288L21.8276 4.53261C22.0134 4.34685 22.0134 4.04658 21.8276 3.86104L19.8142 1.84693C19.7249 1.75702 19.6042 1.70719 19.4778 1.70719C19.3515 1.70719 19.2308 1.75702 19.1419 1.84629L17.951 3.03656C17.4421 2.7469 16.9024 2.52276 16.3381 2.36646V0.685938C16.3381 0.423841 16.1259 0.210938 15.8631 0.210938H13.0131C12.751 0.210938 12.5381 0.423841 12.5381 0.685938V2.36646C11.9738 2.52274 11.4338 2.74688 10.925 3.03678L9.73477 1.84651C9.54901 1.66075 9.24875 1.66075 9.0632 1.84651L7.0491 3.86062C6.86333 4.04638 6.86333 4.34665 7.0491 4.53219L8.23936 5.72246C7.9497 6.23117 7.72534 6.77169 7.56904 7.33556H5.88809C5.62599 7.33556 5.41309 7.54846 5.41309 7.81056V10.6606C5.41309 10.9231 5.62598 11.136 5.88808 11.136ZM6.36308 8.28597H7.94013C8.16342 8.28597 8.35618 8.13075 8.4041 7.91254C8.56123 7.19771 8.84157 6.52272 9.23766 5.90609C9.35832 5.718 9.33181 5.47138 9.17404 5.31318L8.0563 4.19544L9.39862 2.85312L10.5164 3.97086C10.6746 4.12905 10.921 4.15556 11.1093 4.03448C11.7259 3.63878 12.4009 3.35802 13.1157 3.20092C13.3329 3.15406 13.4881 2.9613 13.4881 2.73801V1.16095H15.3881V2.73801C15.3881 2.9613 15.5433 3.15406 15.7609 3.20198C16.4757 3.35911 17.1507 3.63945 17.7678 4.03554C17.9554 4.15577 18.2014 4.13012 18.36 3.97192L19.4782 2.85418L20.8201 4.1965L19.7024 5.31425C19.5442 5.47244 19.5177 5.71884 19.6383 5.90715C20.0349 6.52422 20.3152 7.19921 20.4719 7.91317C20.52 8.13074 20.7128 8.28597 20.9361 8.28597H22.5131V10.186H20.9361C20.7128 10.186 20.52 10.3412 20.4721 10.5594C20.3154 11.2734 20.035 11.9483 19.6385 12.5654C19.5179 12.7535 19.5444 13.0001 19.7026 13.1583L20.8203 14.2765L19.4784 15.6184L18.3602 14.5006C18.2021 14.3429 17.9556 14.3164 17.768 14.4366C17.1505 14.8331 16.4755 15.1135 15.7615 15.2702C15.5433 15.3179 15.3881 15.5106 15.3881 15.7339V17.311H13.4881V15.7339C13.4881 15.5106 13.3329 15.3179 13.1147 15.2699C12.4007 15.1132 11.7257 14.8329 11.1087 14.4364C10.9206 14.3157 10.6735 14.3422 10.5158 14.5004L9.39801 15.6182L8.05569 14.2763L9.17343 13.1581C9.33163 12.9999 9.35813 12.7535 9.23705 12.5652C8.84135 11.9486 8.56059 11.2736 8.40349 10.5587C8.3562 10.3412 8.16344 10.186 7.94015 10.186H6.3631L6.36308 8.28597Z" fill="url(#paint0_linear_3819_28380)"/>
<path d="M14.4381 13.5109C16.7955 13.5109 18.7131 11.5929 18.7131 9.23594C18.7131 6.87896 16.7955 4.96094 14.4381 4.96094C12.0811 4.96094 10.1631 6.87896 10.1631 9.23594C10.1631 11.5929 12.0811 13.5109 14.4381 13.5109ZM14.4381 5.91094C16.2711 5.91094 17.7631 7.40255 17.7631 9.23594C17.7631 11.0693 16.2711 12.5609 14.4381 12.5609C12.6047 12.5609 11.1131 11.0693 11.1131 9.23594C11.1131 7.40255 12.6047 5.91094 14.4381 5.91094Z" fill="url(#paint1_linear_3819_28380)"/>
<path d="M23.9385 17.3125C23.7394 17.3125 23.5585 17.3409 23.3846 17.399C23.3138 17.4228 23.2487 17.4631 23.1965 17.5163C22.9272 17.7898 22.6422 18.0415 22.3458 18.2672C21.2422 19.1245 19.9523 19.7106 18.5937 19.9844C18.3891 19.4286 17.9334 18.986 17.3487 18.8179C17.2603 18.7918 17.1663 18.7937 17.0794 18.8198C16.6561 18.9485 16.2235 19.0473 15.7973 19.1129C14.5466 19.291 13.3858 19.2278 12.2548 18.9419C11.4833 18.7505 10.7428 18.457 10.0452 18.0666C9.86513 17.9712 9.67555 17.8552 9.43 17.6919C9.41006 17.6785 9.38907 17.6667 9.36723 17.6567C8.87718 17.4279 8.3466 17.3125 7.78849 17.3125C6.67607 17.3125 5.6334 17.7947 4.91748 18.633C4.86871 18.4226 4.6891 18.2625 4.46348 18.2625H0.663477C0.40138 18.2625 0.188477 18.4748 0.188477 18.7375V26.3375C0.188477 26.6003 0.40138 26.8125 0.663477 26.8125H4.46348C4.72557 26.8125 4.93848 26.6003 4.93848 26.3375V26.0468C7.13618 27.1679 9.58159 27.7625 12.0635 27.7625C17.42 27.7625 22.3533 25.0688 25.2587 20.5582C25.4296 20.2936 25.5916 20.0192 25.749 19.7393C25.7761 19.6909 25.7946 19.6362 25.803 19.5807C25.8272 19.46 25.8382 19.3389 25.8382 19.2125C25.8382 18.1648 24.986 17.3125 23.9382 17.3125L23.9385 17.3125ZM3.98849 25.8625H3.03849V23.4875C3.03849 23.2248 2.82558 23.0125 2.56349 23.0125C2.30139 23.0125 2.08849 23.2248 2.08849 23.4875V25.8625H1.13849V19.2125H3.98849V25.8625ZM24.8793 19.3477C24.7452 19.5843 24.6066 19.8169 24.4602 20.0426C21.7305 24.2815 17.0958 26.8126 12.0636 26.8126C9.56896 26.8126 7.11166 26.1789 4.93855 24.9776V21.1126C4.93855 20.4357 5.17605 19.7864 5.60735 19.2842C5.6082 19.2834 5.6082 19.2819 5.60926 19.2808C5.61011 19.28 5.61159 19.2793 5.61265 19.2781C6.1483 18.6326 6.94157 18.2625 7.78853 18.2625C8.19462 18.2625 8.58035 18.3433 8.93423 18.5028C9.19167 18.6733 9.39779 18.7982 9.58968 18.9004C10.3524 19.3271 11.1724 19.6513 12.0236 19.8631C13.271 20.178 14.5515 20.2503 15.9358 20.0523C16.361 19.9872 16.7866 19.8936 17.2041 19.773C17.5171 19.9117 17.7357 20.217 17.7607 20.5667C17.7607 20.5777 17.762 20.6271 17.7635 20.6375C17.7635 20.9554 17.6072 21.2503 17.3707 21.4109C17.3508 21.4223 17.2581 21.4779 17.2136 21.5001C15.2799 22.5229 12.9486 22.8002 10.8112 22.2667C10.5599 22.2035 10.299 22.357 10.2355 22.6126C10.1718 22.8672 10.3266 23.1247 10.5813 23.1883C11.3748 23.3868 12.1933 23.4875 13.0136 23.4875C14.632 23.4875 16.2379 23.0909 17.6482 22.3451C17.6923 22.3229 17.8249 22.2459 17.8773 22.2145C18.3181 21.9172 18.6059 21.4526 18.6875 20.9354C20.2247 20.642 21.6838 19.985 22.9246 19.0212C23.2195 18.7964 23.5073 18.5466 23.7804 18.2765C23.8298 18.2667 23.882 18.2625 23.9386 18.2625C24.4626 18.2625 24.8886 18.6885 24.8886 19.2125C24.8886 19.2591 24.8859 19.3032 24.8795 19.3478L24.8793 19.3477Z" fill="url(#paint2_linear_3819_28380)"/>
<defs>
<linearGradient id="paint0_linear_3819_28380" x1="19.4761" y1="0.210937" x2="19.3934" y2="22.1291" gradientUnits="userSpaceOnUse">
<stop stop-color="#005CAA"/>
<stop offset="1" stop-color="#64B0F1"/>
</linearGradient>
<linearGradient id="paint1_linear_3819_28380" x1="16.8245" y1="4.96094" x2="16.7853" y2="15.3432" gradientUnits="userSpaceOnUse">
<stop stop-color="#005CAA"/>
<stop offset="1" stop-color="#64B0F1"/>
</linearGradient>
<linearGradient id="paint2_linear_3819_28380" x1="20.1725" y1="17.3125" x2="20.1529" y2="30.002" gradientUnits="userSpaceOnUse">
<stop stop-color="#005CAA"/>
<stop offset="1" stop-color="#64B0F1"/>
</linearGradient>
</defs>
</svg>