<svg width="38" height="38" viewBox="0 0 32 32" fill="none" xmlns="http://www.w3.org/2000/svg">
<path d="M25.1362 28.082H26.117V29.0628H25.1362V28.082Z" fill="url(#paint0_linear_3799_19500)"/>
<path d="M21.2141 28.082H22.1948V29.0628H21.2141V28.082Z" fill="url(#paint1_linear_3799_19500)"/>
<path d="M23.1749 28.082H24.1557V29.0628H23.1749V28.082Z" fill="url(#paint2_linear_3799_19500)"/>
<path d="M30.0394 5.52819H19.2523C18.7115 5.52819 18.2715 5.96821 18.2715 6.50892V10.4315H13.3682L13.3684 1.60573C13.3684 1.06499 12.9284 0.625 12.3877 0.625H1.6006C1.05986 0.625 0.619873 1.06501 0.619873 1.60573V12.3928C0.619873 12.9336 1.05989 13.3736 1.6006 13.3736H4.54261V26.122L2.58111 26.1216V26.6119C2.58111 29.0452 4.56064 31.0247 6.99394 31.0247H24.6455C27.0788 31.0247 29.0583 29.0452 29.0583 26.6119V26.1216H27.097L27.0972 18.2762H30.0393C30.58 18.2762 31.02 17.8362 31.02 17.2955L31.0198 6.50839C31.0198 5.96765 30.5798 5.52788 30.039 5.52788L30.0394 5.52819ZM20.2332 11.4122V22.1993L9.44608 22.1991V13.3734H12.3881C12.9288 13.3734 13.3688 12.9333 13.3688 12.3926V11.4119L20.2332 11.4122ZM21.2139 22.1993V18.2768H24.1559V24.1608H7.4848V13.3737H8.46552V22.1994C8.46552 22.7402 8.90553 23.1802 9.44625 23.1802H20.2334C20.7737 23.18 21.2137 22.7399 21.2137 22.1992L21.2139 22.1993ZM1.60104 1.60605H12.3882L12.3888 12.3932H12.3882L1.60104 12.393V1.60605ZM24.6464 30.0447H6.99487C5.26874 30.0447 3.83609 28.7639 3.59756 27.1027H28.044C27.8053 28.7641 26.3729 30.0447 24.6467 30.0447H24.6464ZM26.1172 26.1221H5.52394V13.3737H6.50467V24.1608C6.50467 24.7015 6.94468 25.1415 7.48539 25.1415H24.1565C24.6973 25.1415 25.1373 24.7015 25.1373 24.1608V18.2768H26.118L26.1172 26.1221ZM30.0398 17.2964H21.214V11.4123C21.214 10.8716 20.774 10.4316 20.2333 10.4316H19.2526L19.2528 6.50903H30.0399L30.0398 17.2964Z" fill="url(#paint3_linear_3799_19500)"/>
<path d="M6.9945 2.58594C4.56119 2.58594 2.58167 4.56547 2.58167 6.99877C2.58167 9.43207 4.56119 11.4116 6.9945 11.4116C9.4278 11.4116 11.4073 9.43207 11.4073 6.99877C11.4075 4.56547 9.4278 2.58594 6.9945 2.58594ZM6.50423 3.60211V6.79563L4.24671 9.05316C3.81708 8.47995 3.56243 7.76876 3.56243 6.99877C3.56243 5.27286 4.84325 3.84086 6.50423 3.60211ZM4.94015 9.74671L6.99454 7.69211L9.04893 9.74649C8.47573 10.1763 7.76453 10.431 6.99454 10.431C6.22477 10.431 5.51335 10.1763 4.94015 9.74671ZM9.74254 9.0531L7.48501 6.79579V3.60206C9.14605 3.84083 10.427 5.27259 10.427 6.99871C10.4268 7.7687 10.1721 8.4799 9.74254 9.0531Z" fill="url(#paint4_linear_3799_19500)"/>
<path d="M20.2332 7.48828H29.0589V8.46901H20.2332V7.48828Z" fill="url(#paint5_linear_3799_19500)"/>
<path d="M22.1946 9.44922H29.059V10.4299H22.1946V9.44922Z" fill="url(#paint6_linear_3799_19500)"/>
<path d="M22.1946 11.4102H29.059V12.3909H22.1946V11.4102Z" fill="url(#paint7_linear_3799_19500)"/>
<path d="M22.1946 16.317H29.059V13.375L22.1946 13.3752V16.317ZM23.1753 14.3557H28.0786V15.3365H23.1753V14.3557Z" fill="url(#paint8_linear_3799_19500)"/>
<path d="M13.3688 20.2396V16.317H12.388V20.2396H10.4268V21.2203H19.2525V12.3945H18.2718V20.2399H17.2913V14.3559H16.3106V20.2399H15.3301V13.3755H14.3493V20.2399L13.3688 20.2396Z" fill="url(#paint9_linear_3799_19500)"/>
<defs>
<linearGradient id="paint0_linear_3799_19500" x1="25.9003" y1="28.082" x2="25.8958" y2="29.2729" gradientUnits="userSpaceOnUse">
<stop stop-color="#005CAA"/>
<stop offset="1" stop-color="#64B0F1"/>
</linearGradient>
<linearGradient id="paint1_linear_3799_19500" x1="21.9782" y1="28.082" x2="21.9737" y2="29.2729" gradientUnits="userSpaceOnUse">
<stop stop-color="#005CAA"/>
<stop offset="1" stop-color="#64B0F1"/>
</linearGradient>
<linearGradient id="paint2_linear_3799_19500" x1="23.939" y1="28.082" x2="23.9345" y2="29.2729" gradientUnits="userSpaceOnUse">
<stop stop-color="#005CAA"/>
<stop offset="1" stop-color="#64B0F1"/>
</linearGradient>
<linearGradient id="paint3_linear_3799_19500" x1="24.3049" y1="0.625" x2="24.1656" y2="37.5392" gradientUnits="userSpaceOnUse">
<stop stop-color="#005CAA"/>
<stop offset="1" stop-color="#64B0F1"/>
</linearGradient>
<linearGradient id="paint4_linear_3799_19500" x1="9.45782" y1="2.58594" x2="9.41738" y2="13.3029" gradientUnits="userSpaceOnUse">
<stop stop-color="#005CAA"/>
<stop offset="1" stop-color="#64B0F1"/>
</linearGradient>
<linearGradient id="paint5_linear_3799_19500" x1="27.1094" y1="7.48828" x2="27.1089" y2="8.67919" gradientUnits="userSpaceOnUse">
<stop stop-color="#005CAA"/>
<stop offset="1" stop-color="#64B0F1"/>
</linearGradient>
<linearGradient id="paint6_linear_3799_19500" x1="27.5427" y1="9.44922" x2="27.5421" y2="10.6401" gradientUnits="userSpaceOnUse">
<stop stop-color="#005CAA"/>
<stop offset="1" stop-color="#64B0F1"/>
</linearGradient>
<linearGradient id="paint7_linear_3799_19500" x1="27.5427" y1="11.4102" x2="27.5421" y2="12.6011" gradientUnits="userSpaceOnUse">
<stop stop-color="#005CAA"/>
<stop offset="1" stop-color="#64B0F1"/>
</linearGradient>
<linearGradient id="paint8_linear_3799_19500" x1="27.5427" y1="13.375" x2="27.5369" y2="16.9475" gradientUnits="userSpaceOnUse">
<stop stop-color="#005CAA"/>
<stop offset="1" stop-color="#64B0F1"/>
</linearGradient>
<linearGradient id="paint9_linear_3799_19500" x1="17.303" y1="12.3945" x2="17.2626" y2="23.1116" gradientUnits="userSpaceOnUse">
<stop stop-color="#005CAA"/>
<stop offset="1" stop-color="#64B0F1"/>
</linearGradient>
</defs>
</svg>