<svg width="38" height="38" viewBox="0 0 32 32" fill="none" xmlns="http://www.w3.org/2000/svg">
<path d="M28.3736 7.68711L21.0586 1.4646C20.6483 1.11366 20.1306 0.913017 19.5909 0.895747C19.0513 0.878478 18.5218 1.04561 18.0899 1.36961L14.9193 3.7446L12.9243 1.7496C12.4793 1.30726 11.8773 1.05897 11.2499 1.05897C10.6224 1.05897 10.0205 1.30726 9.5755 1.7496L3.638 7.74648C2.78999 7.86345 2.01245 8.28186 1.44767 8.92515C0.882882 9.56844 0.568616 10.3936 0.562378 11.2496V27.8746C0.562378 28.8194 0.937712 29.7256 1.60581 30.3937C2.27391 31.0618 3.18004 31.4371 4.12488 31.4371H27.8749C28.8197 31.4371 29.7258 31.0618 30.3939 30.3937C31.062 29.7256 31.4374 28.8194 31.4374 27.8746V11.2496C31.4459 10.3852 31.1398 9.5471 30.5761 8.89165C30.0124 8.23621 29.2296 7.80809 28.3736 7.68711ZM29.0624 21.9371H26.6874C26.0575 21.9371 25.4534 21.6869 25.008 21.2415C24.5626 20.7961 24.3124 20.192 24.3124 19.5621C24.3124 18.9322 24.5626 18.3281 25.008 17.8827C25.4534 17.4373 26.0575 17.1871 26.6874 17.1871H29.0624V21.9371ZM19.5624 3.26961L24.6686 7.68711H18.8618L16.6174 5.44273L19.5624 3.26961ZM11.2499 3.42398L15.513 7.68711H6.98675L11.2499 3.42398ZM27.8749 29.0621H4.12488C3.80993 29.0621 3.50789 28.937 3.28519 28.7143C3.06249 28.4916 2.93738 28.1896 2.93738 27.8746V11.2496C2.93738 10.9347 3.06249 10.6326 3.28519 10.4099C3.50789 10.1872 3.80993 10.0621 4.12488 10.0621H27.8749C28.1898 10.0621 28.4919 10.1872 28.7146 10.4099C28.9373 10.6326 29.0624 10.9347 29.0624 11.2496V14.8121H26.6874C25.4276 14.8121 24.2194 15.3126 23.3286 16.2033C22.4378 17.0941 21.9374 18.3023 21.9374 19.5621C21.9374 20.8219 22.4378 22.0301 23.3286 22.9209C24.2194 23.8117 25.4276 24.3121 26.6874 24.3121H29.0624V27.8746C29.0624 28.1896 28.9373 28.4916 28.7146 28.7143C28.4919 28.937 28.1898 29.0621 27.8749 29.0621Z" fill="url(#paint0_linear_3799_19550)"/>
<path d="M28.3736 7.68711L21.0586 1.4646C20.6483 1.11366 20.1306 0.913017 19.5909 0.895747C19.0513 0.878478 18.5218 1.04561 18.0899 1.36961L14.9193 3.7446L12.9243 1.7496C12.4793 1.30726 11.8773 1.05897 11.2499 1.05897C10.6224 1.05897 10.0205 1.30726 9.5755 1.7496L3.638 7.74648C2.78999 7.86345 2.01245 8.28186 1.44767 8.92515C0.882882 9.56844 0.568616 10.3936 0.562378 11.2496V27.8746C0.562378 28.8194 0.937712 29.7256 1.60581 30.3937C2.27391 31.0618 3.18004 31.4371 4.12488 31.4371H27.8749C28.8197 31.4371 29.7258 31.0618 30.3939 30.3937C31.062 29.7256 31.4374 28.8194 31.4374 27.8746V11.2496C31.4459 10.3852 31.1398 9.5471 30.5761 8.89165C30.0124 8.23621 29.2296 7.80809 28.3736 7.68711ZM29.0624 21.9371H26.6874C26.0575 21.9371 25.4534 21.6869 25.008 21.2415C24.5626 20.7961 24.3124 20.192 24.3124 19.5621C24.3124 18.9322 24.5626 18.3281 25.008 17.8827C25.4534 17.4373 26.0575 17.1871 26.6874 17.1871H29.0624V21.9371ZM19.5624 3.26961L24.6686 7.68711H18.8618L16.6174 5.44273L19.5624 3.26961ZM11.2499 3.42398L15.513 7.68711H6.98675L11.2499 3.42398ZM27.8749 29.0621H4.12488C3.80993 29.0621 3.50789 28.937 3.28519 28.7143C3.06249 28.4916 2.93738 28.1896 2.93738 27.8746V11.2496C2.93738 10.9347 3.06249 10.6326 3.28519 10.4099C3.50789 10.1872 3.80993 10.0621 4.12488 10.0621H27.8749C28.1898 10.0621 28.4919 10.1872 28.7146 10.4099C28.9373 10.6326 29.0624 10.9347 29.0624 11.2496V14.8121H26.6874C25.4276 14.8121 24.2194 15.3126 23.3286 16.2033C22.4378 17.0941 21.9374 18.3023 21.9374 19.5621C21.9374 20.8219 22.4378 22.0301 23.3286 22.9209C24.2194 23.8117 25.4276 24.3121 26.6874 24.3121H29.0624V27.8746C29.0624 28.1896 28.9373 28.4916 28.7146 28.7143C28.4919 28.937 28.1898 29.0621 27.8749 29.0621Z" fill="black" fill-opacity="0.2"/>
<path d="M25.8441 18.7185C25.6271 18.946 25.5041 19.2472 25.4998 19.5616C25.4998 19.8765 25.6249 20.1786 25.8476 20.4013C26.0703 20.624 26.3723 20.7491 26.6873 20.7491C27.0022 20.7491 27.3042 20.624 27.5269 20.4013C27.7496 20.1786 27.8748 19.8765 27.8748 19.5616C27.8761 19.3257 27.8072 19.0948 27.6768 18.8982C27.5464 18.7017 27.3605 18.5484 27.1426 18.458C26.9248 18.3675 26.685 18.344 26.4537 18.3904C26.2224 18.4368 26.0102 18.551 25.8441 18.7185Z" fill="url(#paint1_linear_3799_19550)"/>
<path d="M25.8441 18.7185C25.6271 18.946 25.5041 19.2472 25.4998 19.5616C25.4998 19.8765 25.6249 20.1786 25.8476 20.4013C26.0703 20.624 26.3723 20.7491 26.6873 20.7491C27.0022 20.7491 27.3042 20.624 27.5269 20.4013C27.7496 20.1786 27.8748 19.8765 27.8748 19.5616C27.8761 19.3257 27.8072 19.0948 27.6768 18.8982C27.5464 18.7017 27.3605 18.5484 27.1426 18.458C26.9248 18.3675 26.685 18.344 26.4537 18.3904C26.2224 18.4368 26.0102 18.551 25.8441 18.7185Z" fill="black" fill-opacity="0.2"/>
<defs>
<linearGradient id="paint0_linear_3799_19550" x1="16" y1="0.894531" x2="16" y2="31.4371" gradientUnits="userSpaceOnUse">
<stop stop-color="#FF0F0F"/>
<stop offset="1" stop-color="#FF4849"/>
</linearGradient>
<linearGradient id="paint1_linear_3799_19550" x1="26.6873" y1="18.3672" x2="26.6873" y2="20.7491" gradientUnits="userSpaceOnUse">
<stop stop-color="#FF0F0F"/>
<stop offset="1" stop-color="#FF4849"/>
</linearGradient>
</defs>
</svg>