<svg width="38" height="38" viewBox="0 0 32 32" fill="none" xmlns="http://www.w3.org/2000/svg">
<path d="M28.2118 7.87753L28.267 7.9245L28.3388 7.93464C29.1347 8.04714 29.8625 8.44521 30.3867 9.05466C30.9108 9.66411 31.1954 10.4434 31.1875 11.2471V11.2496V27.8746C31.1875 28.7531 30.8385 29.5957 30.2173 30.2169C29.5961 30.8381 28.7535 31.1871 27.875 31.1871H4.125C3.24647 31.1871 2.40392 30.8381 1.78271 30.2169C1.16149 29.5957 0.8125 28.7531 0.8125 27.8746V11.2505C0.818513 10.4549 1.1107 9.68801 1.63566 9.09009C2.16081 8.49195 2.88378 8.1029 3.67228 7.99414L3.75619 7.98256L3.81578 7.92238L9.75187 1.92691C9.7521 1.92668 9.75233 1.92646 9.75255 1.92624C10.1506 1.53087 10.6889 1.30897 11.25 1.30897C11.8113 1.30897 12.3498 1.53104 12.7479 1.92669C12.748 1.92676 12.7481 1.92684 12.7481 1.92691L14.7426 3.92138L14.8958 4.07461L15.0693 3.94469L18.2399 1.56969L18.24 1.5696C18.6265 1.27971 19.1002 1.13017 19.5831 1.14562C20.0659 1.16107 20.5291 1.3406 20.8963 1.6546L20.8968 1.65503L28.2118 7.87753ZM29.0625 22.1871H29.3125V21.9371V17.1871V16.9371H29.0625H26.6875C25.9913 16.9371 25.3236 17.2137 24.8313 17.7059C24.3391 18.1982 24.0625 18.8659 24.0625 19.5621C24.0625 20.2583 24.3391 20.926 24.8313 21.4183C25.3236 21.9105 25.9913 22.1871 26.6875 22.1871H29.0625ZM19.7261 3.08054L19.5749 2.94976L19.4141 3.06844L16.4691 5.24157L16.2353 5.41407L16.4407 5.61951L18.6851 7.86388L18.7583 7.93711H18.8619H24.6687H25.3398L24.8323 7.49804L19.7261 3.08054ZM11.4268 3.2472L11.25 3.07043L11.0732 3.2472L6.8101 7.51033L6.38332 7.93711H6.98687H15.5131H16.1167L15.6899 7.51033L11.4268 3.2472ZM29.0625 15.0621H29.3125V14.8121V11.2496C29.3125 10.8684 29.161 10.5027 28.8915 10.2331C28.6219 9.96356 28.2562 9.81211 27.875 9.81211H4.125C3.74375 9.81211 3.37812 9.96356 3.10853 10.2331C2.83895 10.5027 2.6875 10.8684 2.6875 11.2496V27.8746C2.6875 28.2559 2.83895 28.6215 3.10853 28.8911C3.37812 29.1607 3.74375 29.3121 4.125 29.3121H27.875C28.2562 29.3121 28.6219 29.1607 28.8915 28.8911C29.161 28.6215 29.3125 28.2559 29.3125 27.8746V24.3121V24.0621H29.0625H26.6875C25.494 24.0621 24.3494 23.588 23.5055 22.7441C22.6616 21.9002 22.1875 20.7556 22.1875 19.5621C22.1875 18.3686 22.6616 17.224 23.5055 16.3801C24.3494 15.5362 25.494 15.0621 26.6875 15.0621H29.0625Z" fill="url(#paint0_linear_3878_19701)" stroke="#EFEFEF" stroke-width="0.5"/>
<path d="M25.8444 18.7185C25.6274 18.946 25.5044 19.2472 25.5 19.5616C25.5 19.8765 25.6251 20.1786 25.8478 20.4013C26.0705 20.624 26.3726 20.7491 26.6875 20.7491C27.0024 20.7491 27.3045 20.624 27.5272 20.4013C27.7499 20.1786 27.875 19.8765 27.875 19.5616C27.8764 19.3257 27.8075 19.0948 27.6771 18.8982C27.5467 18.7017 27.3607 18.5484 27.1429 18.458C26.925 18.3675 26.6852 18.344 26.4539 18.3904C26.2227 18.4368 26.0105 18.551 25.8444 18.7185Z" fill="url(#paint1_linear_3878_19701)"/>
<defs>
<linearGradient id="paint0_linear_3878_19701" x1="24.6176" y1="0.894531" x2="24.4792" y2="37.9822" gradientUnits="userSpaceOnUse">
<stop stop-color="#005CAA"/>
<stop offset="1" stop-color="#64B0F1"/>
</linearGradient>
<linearGradient id="paint1_linear_3878_19701" x1="27.3504" y1="18.3672" x2="27.3395" y2="21.2595" gradientUnits="userSpaceOnUse">
<stop stop-color="#005CAA"/>
<stop offset="1" stop-color="#64B0F1"/>
</linearGradient>
</defs>
</svg>