<svg width="38" height="38" viewBox="0 0 26 38" fill="none" xmlns="http://www.w3.org/2000/svg">
<path fill-rule="evenodd" clip-rule="evenodd" d="M0.179688 15.2001L15.5127 0L25.3061 9.62334L23.7264 10.3591L16.9255 3.68488L16.8451 3.60141C16.5453 3.31509 16.1442 3.15947 15.7297 3.16875C15.3153 3.17802 14.9215 3.35143 14.6348 3.65087L14.0814 4.22586L14.0629 4.20731L11.4662 6.95861L1.52133 16.5139L0.179688 15.2001ZM4.32517 23.7569L4.23243 24.3505C3.98822 25.9333 3.59253 28.5052 3.43178 29.4141C3.42083 29.4686 3.40318 29.5216 3.37922 29.5718C3.36105 29.6198 3.33375 29.6639 3.29885 29.7016C3.11512 29.9354 2.94877 30.1823 2.80114 30.4404C2.69329 30.622 2.61404 30.819 2.5662 31.0247C2.5428 31.1264 2.5428 31.2321 2.5662 31.3338C2.5926 31.4272 2.64389 31.5116 2.71459 31.578C4.22316 33.0928 5.82447 34.623 7.28977 36.1687C7.50934 36.372 7.77131 36.5241 8.05678 36.6139C8.34225 36.7037 8.6441 36.729 8.94055 36.688C9.49582 36.6165 10.044 36.4975 10.579 36.3325C11.1601 36.2044 11.7322 36.0382 12.2916 35.8348C12.8488 35.6205 13.3621 35.3062 13.8063 34.9074L15.0676 33.5905C15.0847 33.5658 15.1044 33.543 15.1263 33.5225C15.1634 33.4854 15.2716 33.3772 15.4355 33.2319C16.2701 32.4158 17.2903 31.4111 16.7122 30.5764L16.2887 30.1529L15.9795 30.4312L15.5746 30.7681C15.3582 30.9567 15.1572 31.136 14.9748 31.3153C14.8519 31.4383 14.6851 31.5073 14.5111 31.5073C14.3372 31.5073 14.1704 31.4383 14.0474 31.3153C13.9245 31.1923 13.8554 31.0255 13.8554 30.8516C13.8554 30.6777 13.9245 30.5109 14.0474 30.3879C14.2422 30.1931 14.4771 29.9829 14.7214 29.7696L14.7523 29.7449C15.5715 29.0184 16.5081 28.1992 16.0506 27.5191L15.5529 27.0214C15.4355 27.142 15.3118 27.2563 15.1881 27.3707C15.0645 27.4851 14.879 27.6551 14.7183 27.7911L14.6781 27.8221C14.4679 28.0075 14.27 28.1807 14.0876 28.363C14.0267 28.4239 13.9544 28.4722 13.8749 28.5052C13.7953 28.5382 13.71 28.5551 13.6239 28.5551C13.5378 28.5551 13.4525 28.5382 13.373 28.5052C13.2934 28.4722 13.2211 28.4239 13.1602 28.363C13.0993 28.3022 13.051 28.2299 13.0181 28.1503C12.9851 28.0707 12.9682 27.9855 12.9682 27.8993C12.9682 27.8132 12.9851 27.728 13.0181 27.6484C13.051 27.5688 13.0993 27.4965 13.1602 27.4356C13.3488 27.2471 13.5806 27.04 13.8249 26.8174L13.862 26.7834C14.6812 26.06 15.6178 25.2377 15.1634 24.5576C14.9903 24.3876 14.8141 24.2176 14.6472 24.0414L13.2622 25.4263C13.1393 25.5493 12.9725 25.6183 12.7985 25.6183C12.6246 25.6183 12.4578 25.5493 12.3348 25.4263C12.2119 25.3033 12.1428 25.1365 12.1428 24.9626C12.1428 24.7886 12.2119 24.6219 12.3348 24.4989L15.117 21.7167C15.3781 21.4692 15.5782 21.1644 15.7013 20.8264C15.8045 20.5484 15.8132 20.2442 15.726 19.9608C15.6974 19.8753 15.659 19.7933 15.6117 19.7166C15.566 19.6427 15.5121 19.5742 15.4509 19.5125C15.3889 19.4496 15.3193 19.3946 15.2438 19.3487C15.1676 19.3031 15.0868 19.2657 15.0027 19.2374C14.7196 19.1524 14.4164 19.1633 14.1402 19.2683C13.7954 19.4049 13.485 19.616 13.2313 19.8866L6.54476 26.6041C6.42178 26.7271 6.25498 26.7961 6.08106 26.7961C5.90713 26.7961 5.74034 26.7271 5.61735 26.6041C5.49437 26.4811 5.42528 26.3143 5.42528 26.1404C5.42528 25.9664 5.49437 25.7997 5.61735 25.6767L5.90794 25.3892L4.31281 23.76L4.32517 23.7569ZM7.46288 23.8435L11.4383 19.868L11.3642 19.8464C10.8353 19.6728 10.3693 19.3475 10.0239 18.9111C9.67851 18.4746 9.46911 17.9462 9.42173 17.3917C9.37435 16.8371 9.49109 16.2809 9.75742 15.7922C10.0238 15.3034 10.4279 14.9038 10.9196 14.6431C11.4113 14.3823 11.9688 14.2718 12.5228 14.3255C13.0768 14.3791 13.6028 14.5945 14.0353 14.9448C14.4678 15.2951 14.7878 15.7648 14.9554 16.2956C15.123 16.8263 15.1308 17.3946 14.9779 17.9298C15.1259 17.951 15.2718 17.9851 15.4138 18.0318C15.5922 18.0905 15.7633 18.1693 15.9239 18.2667C16.0862 18.3667 16.2366 18.485 16.3721 18.6191C16.431 18.678 16.4867 18.7399 16.5391 18.8046L20.3105 14.9652C19.9719 14.614 19.7853 14.1436 19.7911 13.6558C19.7969 13.1681 19.9946 12.7022 20.3414 12.3592L16.8915 8.83505C16.5406 9.17495 16.0697 9.36269 15.5812 9.35748C15.0927 9.35227 14.626 9.15454 14.2824 8.80723L4.8167 18.5171C5.15934 18.8643 5.35147 19.3324 5.35147 19.8201C5.35147 20.3079 5.15934 20.776 4.8167 21.1231L7.47834 23.8435H7.46288ZM16.978 21.1911C16.7973 21.7597 16.4787 22.2748 16.0506 22.6904L15.5962 23.1418L16.1341 23.6797L16.1836 23.7353L16.2268 23.794C16.4802 24.0994 16.6319 24.4762 16.6608 24.8719C16.6896 25.2676 16.5941 25.6625 16.3876 26.0013H16.403C16.4389 26.0256 16.473 26.0524 16.5051 26.0816L17.0306 26.6103C17.0494 26.6266 17.066 26.6453 17.08 26.6659L17.1202 26.7185C17.4167 27.0886 17.5723 27.552 17.5592 28.0261C17.5346 28.4173 17.4043 28.7945 17.1821 29.1173L17.7045 29.6367L17.754 29.6954L17.7911 29.748C19.0709 31.4977 17.5808 32.9537 16.3783 34.1284C16.2979 34.2242 16.165 34.3417 16.0692 34.4375C15.6488 34.8765 15.1418 35.47 14.709 35.8595C13.4972 36.957 12.3039 37.2506 10.9221 37.5876C10.3055 37.7786 9.67193 37.9101 9.03019 37.9802C8.55231 38.0329 8.06866 37.98 7.61352 37.8251C7.15837 37.6701 6.74285 37.4171 6.39637 37.0837L1.82737 32.5147C1.59712 32.2997 1.42759 32.0278 1.33585 31.7264C1.2513 31.4156 1.24281 31.0891 1.31112 30.7743C1.3739 30.4788 1.47797 30.1937 1.62025 29.9273C1.78551 29.6113 1.9779 29.3103 2.19524 29.0277C2.31271 28.3569 2.56929 26.6474 2.81351 25.077C2.95262 24.1341 3.08864 23.2469 3.19065 22.6039L0.621749 19.9793L15.8219 4.63701L24.5487 13.5555L16.978 21.1911Z" fill="url(#paint0_linear_3240_13569)"/>
<defs>
<linearGradient id="paint0_linear_3240_13569" x1="19.7559" y1="-6.83423e-09" x2="19.4926" y2="46.1423" gradientUnits="userSpaceOnUse">
<stop stop-color="#005CAA"/>
<stop offset="1" stop-color="#64B0F1"/>
</linearGradient>
</defs>
</svg>