<svg width="38" height="38" viewBox="0 0 32 32" fill="none" xmlns="http://www.w3.org/2000/svg">
                                <path d="M0.999977 31.5002H7.99998C8.13257 31.5002 8.2598 31.4475 8.35355 31.3537C8.4473 31.26 8.49998 31.1327 8.49998 31.0002V26.5002C8.49908 25.8374 8.23547 25.2019 7.76695 24.7332C7.2982 24.2647 6.66272 24.0011 5.99998 24.0002H5.89707C6.38837 23.6109 6.69507 23.0346 6.7433 22.4095C6.79153 21.7845 6.57678 21.1678 6.15113 20.7078C5.72524 20.2479 5.12679 19.9863 4.49999 19.9863C3.87319 19.9863 3.27479 20.2479 2.84885 20.7078C2.42318 21.1678 2.20845 21.7846 2.25667 22.4095C2.3049 23.0345 2.61158 23.6108 3.1029 24.0002H3C2.33726 24.001 1.70177 24.2647 1.23303 24.7332C0.764503 25.2019 0.500914 25.8374 0.5 26.5002V31.0002C0.5 31.1327 0.552679 31.26 0.646429 31.3537C0.740178 31.4475 0.867389 31.5002 0.999977 31.5002ZM4.49998 21.0002C4.83145 21.0002 5.14952 21.1319 5.38392 21.3662C5.61832 21.6006 5.74999 21.9187 5.74999 22.2502C5.74999 22.5817 5.61829 22.8997 5.38392 23.1341C5.14955 23.3685 4.83146 23.5002 4.49998 23.5002C4.16849 23.5002 3.85043 23.3685 3.61603 23.1341C3.38163 22.8997 3.24997 22.5817 3.24997 22.2502C3.24997 21.9187 3.38166 21.6006 3.61603 21.3662C3.85041 21.1318 4.16849 21.0002 4.49998 21.0002ZM1.49998 26.5002C1.49998 26.1024 1.65801 25.7207 1.93926 25.4395C2.22051 25.1583 2.60223 25.0002 2.99995 25.0002H5.99995C6.39771 25.0002 6.77943 25.1582 7.06063 25.4395C7.34183 25.7207 7.49992 26.1024 7.49992 26.5002V30.5002H1.49992L1.49998 26.5002Z" fill="#CC1212"></path>
                                <path d="M11.5 10H20.5C20.6326 10 20.7598 9.94732 20.8536 9.85357C20.9473 9.75982 21 9.63259 21 9.5V1C21 0.867411 20.9473 0.740177 20.8536 0.646429C20.7598 0.55268 20.6326 0.5 20.5 0.5H11.5C11.2239 0.5 11 0.723886 11 1V9.5C11 9.63259 11.0527 9.75982 11.1464 9.85357C11.2402 9.94732 11.3674 10 11.5 10ZM15.5 1.5H16.5V3.5H15.5V1.5ZM12 1.5H14.5V4C14.5 4.13259 14.5527 4.25982 14.6464 4.35357C14.7402 4.44732 14.8674 4.5 15 4.5H17C17.1326 4.5 17.2598 4.44732 17.3536 4.35357C17.4473 4.25982 17.5 4.13259 17.5 4V1.5H20V9H12V1.5Z" fill="#CC1212"></path>
                                <path d="M29.7181 26.8232L30.8366 24.7111C31.3632 23.7163 31.3301 22.5183 30.7496 21.554C30.169 20.5897 29.1257 20 28 20C26.8744 20 25.8311 20.5897 25.2505 21.554C24.6699 22.5183 24.6369 23.7163 25.1634 24.7111L26.2819 26.8232C25.1971 27.2547 24.5 28.0772 24.5 29.0002C24.5 30.4002 26.0375 31.5002 28 31.5002C29.9625 31.5002 31.5 30.4002 31.5 29.0002C31.5 28.0773 30.803 27.2547 29.7181 26.8232ZM26.05 24.2433C25.6873 23.5583 25.7099 22.7335 26.1094 22.0694C26.5092 21.4056 27.2275 20.9995 28.0025 20.9995C28.7775 20.9995 29.4958 21.4056 29.8956 22.0694C30.2951 22.7335 30.3179 23.5583 29.955 24.2433L28.0001 27.9317L26.05 24.2433ZM28 30.5005C26.6451 30.5005 25.5 29.8134 25.5 29.0005C25.5 28.479 26 27.9795 26.75 27.711L27.5565 29.2344C27.6431 29.3982 27.8132 29.5007 27.9985 29.5007C28.1837 29.5007 28.3538 29.3982 28.4404 29.2344L29.25 27.711C30 27.9795 30.5 28.479 30.5 29.0005C30.5 29.8134 29.355 30.5005 28 30.5005Z" fill="#CC1212"></path>
                                <path d="M29.4999 23C29.4999 22.6022 29.3419 22.2205 29.0607 21.9393C28.7794 21.6581 28.3977 21.5 28 21.5C27.6023 21.5 27.2205 21.658 26.9393 21.9393C26.6581 22.2205 26.5 22.6023 26.5 23C26.5 23.3977 26.658 23.7795 26.9393 24.0607C27.2205 24.3419 27.6023 24.4999 28 24.4999C28.3977 24.4999 28.7795 24.3419 29.0607 24.0607C29.3419 23.7794 29.4999 23.3977 29.4999 23ZM27.4999 23C27.4999 22.7977 27.6218 22.6154 27.8086 22.5381C27.9955 22.4607 28.2104 22.5033 28.3535 22.6464C28.4966 22.7895 28.5392 23.0044 28.4618 23.1913C28.3845 23.3781 28.2022 23.5 27.9999 23.5C27.7238 23.5 27.4999 23.2761 27.4999 23Z" fill="#CC1212"></path>
                                <path d="M19.9706 17.0972C20.0293 16.8809 19.9962 16.6499 19.8795 16.4586L19.3154 15.5246C19.1983 15.3373 19.0137 15.2021 18.8 15.1463C18.5862 15.0905 18.3592 15.1186 18.1655 15.2246L18.036 15.2967V15.2965C17.8414 15.1588 17.6331 15.0416 17.4146 14.9465V14.8356C17.4119 14.6119 17.3208 14.3983 17.161 14.2416C17.0012 14.0849 16.7858 13.998 16.5619 14H15.4351C15.2117 13.9987 14.9967 14.086 14.8374 14.2427C14.6782 14.3991 14.5874 14.6125 14.5851 14.836V14.9471C14.3666 15.0416 14.1586 15.1579 13.9635 15.294L13.8336 15.2226C13.6398 15.1163 13.4128 15.0884 13.199 15.1442C12.9851 15.1998 12.8008 15.3353 12.6836 15.5226L12.1202 16.4561H12.12C12.0028 16.6474 11.9697 16.8786 12.0284 17.0952C12.0885 17.315 12.2349 17.5014 12.4345 17.6117L12.5425 17.6713V17.6711C12.52 17.8885 12.52 18.1077 12.5425 18.3251L12.4345 18.3847C12.2349 18.4947 12.0885 18.6811 12.0284 18.901C11.9697 19.1173 12.0028 19.3483 12.1195 19.5396L12.6836 20.4735C12.8005 20.661 12.9849 20.7965 13.1988 20.8523C13.4128 20.9081 13.6398 20.88 13.8336 20.7735L13.963 20.7014V20.7017C14.1577 20.8394 14.3659 20.9566 14.5844 21.0517V21.1626C14.5865 21.3863 14.6771 21.6001 14.8367 21.7572C14.9961 21.9141 15.2112 22.0016 15.4351 22.0001H16.5622H16.5619C16.7854 22.0014 17.0003 21.9141 17.1597 21.7574C17.3189 21.601 17.4097 21.3876 17.412 21.1641V21.053C17.6305 20.9585 17.8385 20.8423 18.0336 20.7061L18.1635 20.7775C18.3573 20.884 18.5843 20.9121 18.7983 20.8563C19.0122 20.8005 19.1965 20.665 19.3135 20.4775L19.8769 19.544H19.8771C19.9943 19.3527 20.0273 19.1215 19.9686 18.9049C19.9086 18.6851 19.7622 18.4987 19.5626 18.3884L19.4546 18.3288V18.3291C19.4771 18.1116 19.4771 17.8924 19.4546 17.6751L19.5626 17.6155C19.7633 17.5054 19.9106 17.3181 19.9706 17.0971L19.9706 17.0972ZM18.4735 18.0001C18.4733 18.1048 18.4659 18.2095 18.451 18.3131C18.4293 18.4793 18.4583 18.6481 18.5344 18.7974C18.6103 18.9468 18.7297 19.0695 18.8771 19.1497L18.9306 19.1787L18.5306 19.8383L18.4411 19.7883L18.4409 19.7881C18.2945 19.709 18.1284 19.6733 17.9623 19.6852C17.796 19.6972 17.6369 19.7561 17.503 19.855C17.3333 19.9794 17.1485 20.0816 16.953 20.159C16.7947 20.2195 16.6583 20.326 16.5614 20.4648C16.4646 20.6039 16.4119 20.7689 16.4101 20.9381V21.0001H15.5831V20.9385C15.5813 20.7693 15.5284 20.6043 15.4317 20.4655C15.3349 20.3267 15.1983 20.2202 15.04 20.1602C14.8447 20.0818 14.6599 19.9793 14.49 19.855C14.3561 19.7561 14.1969 19.6974 14.0308 19.6856C13.8648 19.6738 13.6989 19.7095 13.5525 19.7885L13.4634 19.8385L13.0634 19.1789L13.1163 19.1499L13.1165 19.1501C13.2636 19.0702 13.3833 18.9474 13.4594 18.7983C13.5355 18.649 13.5648 18.4803 13.5429 18.3142C13.513 18.1064 13.513 17.8954 13.5429 17.6876C13.5648 17.5215 13.5355 17.3526 13.4596 17.2035C13.3835 17.0541 13.2641 16.9314 13.117 16.851L13.0634 16.822L13.4634 16.1624L13.5529 16.2124V16.2126C13.6996 16.2918 13.8657 16.3276 14.0317 16.3157C14.1978 16.3037 14.3572 16.2447 14.4909 16.1456C14.6607 16.0213 14.8456 15.9193 15.0409 15.8416C15.1991 15.7813 15.3357 15.6747 15.4324 15.5358C15.5293 15.3967 15.5822 15.232 15.584 15.0626V15.0001H16.415V15.0617C16.4168 15.2309 16.4695 15.3959 16.5663 15.5347C16.6632 15.6735 16.7996 15.78 16.9581 15.8401C17.1534 15.9184 17.3382 16.0209 17.5081 16.1452C17.642 16.2438 17.8011 16.3025 17.967 16.3142C18.1331 16.326 18.2989 16.2905 18.4456 16.2117L18.5346 16.1617L18.9346 16.8213L18.8817 16.8503L18.8815 16.8501C18.7342 16.93 18.6148 17.0528 18.5384 17.2019C18.4623 17.3512 18.4333 17.52 18.4549 17.686C18.4686 17.7903 18.4746 17.8952 18.4735 18.0001Z" fill="#CC1212"></path>
                                <path d="M16 16.25C15.5359 16.25 15.0908 16.4344 14.7625 16.7625C14.4344 17.0909 14.25 17.5359 14.25 18C14.25 18.464 14.4344 18.9091 14.7625 19.2375C15.0909 19.5656 15.5359 19.75 16 19.75C16.464 19.75 16.9091 19.5656 17.2375 19.2375C17.5656 18.9091 17.75 18.464 17.75 18C17.75 17.5359 17.5656 17.0908 17.2375 16.7625C16.9091 16.4344 16.464 16.25 16 16.25ZM16 18.75C15.6966 18.75 15.4232 18.5672 15.3071 18.2871C15.1911 18.0067 15.2551 17.6841 15.4696 17.4696C15.6841 17.2551 16.0067 17.1911 16.2871 17.3071C16.5672 17.4232 16.75 17.6966 16.75 18C16.75 18.4143 16.4143 18.75 16 18.75Z" fill="#CC1212"></path>
                                <path d="M12.4534 30.2663L13.2485 29.6594L12.3251 28.4503C14.1677 29.015 16.1159 29.1467 18.0179 28.8351C19.9199 28.5235 21.7244 27.7771 23.2905 26.6539L22.7066 25.8418C21.28 26.865 19.6383 27.5483 17.9073 27.8398C16.176 28.1313 14.401 28.0233 12.718 27.5237L14.0604 27.1036L13.7604 26.1492L10.8486 27.0603C10.6925 27.1085 10.5698 27.23 10.52 27.3855C10.47 27.5411 10.4995 27.7114 10.5986 27.8414L12.4534 30.2663Z" fill="#CC1212"></path>
                                <path d="M27.484 15.9292L26.5965 14.7792L25.8045 15.3898L27.6679 17.8063H27.6681C27.7625 17.929 27.909 18.0011 28.0641 18.0011H28.0871C28.2503 17.994 28.3996 17.9074 28.4871 17.7692L30.1201 15.1913L29.275 14.6563L28.484 15.9063C28.404 14.1337 27.9458 12.3989 27.1402 10.8179C26.3344 9.23709 25.2 7.84669 23.8129 6.74023L23.1875 7.52081C24.4602 8.53623 25.502 9.81143 26.2429 11.2614C26.9837 12.7114 27.4069 14.3027 27.484 15.9293V15.9292Z" fill="#CC1212"></path>
                                <path d="M3.59999 18.0652L4.59107 17.9342V17.9344C4.52947 17.4587 4.49911 16.9795 4.5 16.4998C4.49464 13.5188 5.65423 10.6541 7.73149 8.51582L7.47747 9.95576L8.46204 10.1292L8.99262 7.12429H8.9924C9.02097 6.96357 8.96919 6.79906 8.85378 6.68344C8.73816 6.56804 8.57365 6.51625 8.41294 6.54482L5.40802 7.07541L5.58213 8.06044L7.02768 7.80485L7.02745 7.80463C4.76002 10.1303 3.49374 13.2517 3.50002 16.4995C3.49913 17.0229 3.53239 17.5459 3.60002 18.0649L3.59999 18.0652Z" fill="#CC1212"></path>
                            </svg>