<svg width="38" height="38" viewBox="0 0 30 30" fill="none" xmlns="http://www.w3.org/2000/svg">
                                <path d="M15.5839 16.6769H13.5415C13.3172 16.6769 13.1243 16.5189 13.0801 16.2988L12.7708 14.7571C12.3029 14.6252 11.8531 14.439 11.4277 14.2011L10.1232 15.0738C9.93661 15.1988 9.6875 15.1745 9.52881 15.0155L8.08596 13.5725C7.92748 13.414 7.90292 13.1658 8.0268 12.9791L8.89823 11.6702C8.66341 11.2374 8.4797 10.7887 8.34979 10.3301L6.80625 10.0153C6.58705 9.97069 6.42969 9.77828 6.42969 9.55439V7.51713C6.42969 7.2928 6.58794 7.09994 6.80759 7.05575L8.34999 6.74637C8.48169 6.28187 8.66494 5.83277 8.89753 5.4062L8.02679 4.09792C7.90246 3.91131 7.92724 3.6622 8.08661 3.50414L9.52947 2.06666C9.68728 1.90952 9.93483 1.88429 10.1216 2.00773L11.4322 2.8767C11.8565 2.63876 12.3049 2.4526 12.7708 2.32023L13.0802 0.778516C13.1241 0.558425 13.3172 0.400391 13.5415 0.400391H15.5839C15.8083 0.400391 16.0011 0.558425 16.0453 0.778516L16.3547 2.32023C16.8208 2.4526 17.269 2.63876 17.6933 2.8767L19.0038 2.00773C19.1907 1.88407 19.438 1.90929 19.596 2.06666L21.0389 3.50414C21.198 3.66218 21.223 3.91129 21.0987 4.09792L20.2282 5.4062C20.4641 5.83723 20.6492 6.28632 20.7804 6.74637L22.3235 7.05575C22.5431 7.09995 22.7014 7.2928 22.7014 7.51713V9.55439C22.7014 9.77828 22.544 9.97069 22.3248 10.0153L20.7808 10.3301C20.6512 10.7841 20.4661 11.2332 20.2277 11.6702L21.0987 12.9791C21.2228 13.1658 21.1982 13.414 21.0395 13.5725L19.5967 15.0155C19.4378 15.1745 19.1886 15.1995 19.0016 15.0734L17.7027 14.201C17.2777 14.4385 16.8264 14.6247 16.3547 14.7575L16.0454 16.2988C16.0014 16.5189 15.8083 16.6769 15.584 16.6769H15.5839ZM13.927 15.7358H15.1984L15.49 14.2822C15.5263 14.1008 15.6658 13.9572 15.8462 13.9159C16.4248 13.7831 16.9705 13.5579 17.4688 13.2458C17.6264 13.1478 17.827 13.1507 17.981 13.2541L19.2052 14.0757L20.1018 13.1791L19.283 11.9494C19.1824 11.7983 19.1779 11.6025 19.2714 11.4467C19.5884 10.9186 19.8134 10.3718 19.9406 9.8217C19.9819 9.64201 20.1246 9.50317 20.3052 9.46656L21.7603 9.17014V7.90271L20.3065 7.61141C20.1257 7.57503 19.9826 7.43641 19.9407 7.25672C19.8117 6.70248 19.5806 6.14089 19.2726 5.63261C19.178 5.47636 19.182 5.27971 19.2831 5.12792L20.1014 3.89821L19.2043 3.00444L17.9681 3.82432C17.8141 3.92678 17.615 3.92901 17.4583 3.83124C16.9581 3.51785 16.4159 3.29263 15.8458 3.16113C15.6657 3.11983 15.5264 2.97631 15.49 2.79483L15.1985 1.34123H13.927L13.6355 2.79483C13.5991 2.97631 13.4601 3.11983 13.2797 3.16113C12.7096 3.2926 12.1674 3.51783 11.6677 3.83079C11.511 3.92877 11.3116 3.92632 11.1578 3.82387L9.92167 3.00398L9.02458 3.89775L9.84287 5.12747C9.94398 5.27903 9.948 5.47591 9.85336 5.63215C9.5509 6.13126 9.32189 6.69284 9.19062 7.25627C9.14888 7.43595 9.00557 7.57479 8.82477 7.61095L7.371 7.90225V9.16968L8.82614 9.46611C9.00673 9.50294 9.14913 9.64155 9.19065 9.82124C9.32011 10.3811 9.54333 10.9275 9.85448 11.4463C9.948 11.6021 9.94332 11.7978 9.84287 11.9489L9.02413 13.1787L9.92122 14.0757L11.1507 13.2532C11.3047 13.1507 11.5049 13.1469 11.6621 13.2454C12.1623 13.5588 12.7063 13.784 13.2793 13.9155C13.4596 13.9568 13.5992 14.1003 13.6355 14.2818L13.927 15.7358ZM14.563 12.0566C12.6231 12.0566 11.0447 10.4785 11.0447 8.53876C11.0447 6.59859 12.6231 5.02047 14.563 5.02047C16.5029 5.02047 18.0811 6.59859 18.0811 8.53876C18.0811 10.4785 16.5029 12.0566 14.563 12.0566ZM14.563 5.96173C13.1418 5.96173 11.9857 7.11796 11.9857 8.53899C11.9857 9.95996 13.1417 11.1158 14.563 11.1158C15.984 11.1158 17.14 9.95996 17.14 8.53899C17.1398 7.11801 15.984 5.96173 14.563 5.96173Z" fill="url(#paint0_linear_5739_28626)"></path>
                                <path d="M16.1329 27.0936H13.2619C12.5722 27.0936 11.9275 26.7238 11.58 26.128C11.4001 25.8207 11.067 25.6294 10.7105 25.6294L2.49397 25.6296C2.23415 25.6296 2.02344 25.4191 2.02344 25.159V10.9522C2.02344 9.36202 3.31721 8.06847 4.90738 8.06847H6.90047C7.16029 8.06847 7.371 8.27897 7.371 8.53901C7.371 8.79906 7.16029 9.00955 6.90047 9.00955H4.90738C3.83618 9.00955 2.96452 9.88098 2.96452 10.9522V24.6882H10.7097C11.3994 24.6882 12.0441 25.058 12.3916 25.6538C12.5715 25.9611 12.9046 26.1524 13.261 26.1524H16.132C16.4887 26.1524 16.8215 25.9614 17.0014 25.6538C17.349 25.0582 17.9936 24.6882 18.6834 24.6882H27.0491L27.0495 10.9579C27.0495 9.88332 26.1752 9.00943 25.1007 9.00943H22.2304C21.9706 9.00943 21.7599 8.79894 21.7599 8.5389C21.7599 8.27885 21.9706 8.06836 22.2304 8.06836H25.1007C26.6945 8.06836 27.9909 9.36482 27.9909 10.9581V25.1592C27.9909 25.4193 27.7801 25.6298 27.5203 25.6298L18.6837 25.6295C18.327 25.6295 17.9943 25.8206 17.8143 26.1282C17.4666 26.7237 16.8221 27.0936 16.1324 27.0936H16.1329Z" fill="url(#paint1_linear_5739_28626)"></path>
                                <path d="M25.0418 22.5276H4.97835C4.71853 22.5276 4.50781 22.3171 4.50781 22.057V11.6405C4.50781 11.3804 4.71853 11.1699 4.97835 11.1699H9.10515C9.36497 11.1699 9.57569 11.3804 9.57569 11.6405C9.57569 11.9005 9.36497 12.111 9.10515 12.111H5.44892V21.5864H24.5712V12.1116H20.1368C19.877 12.1116 19.6663 11.9011 19.6663 11.641C19.6663 11.381 19.877 11.1705 20.1368 11.1705H25.0417C25.3015 11.1705 25.5123 11.381 25.5123 11.641V22.0576C25.5125 22.3176 25.3018 22.5281 25.0419 22.5281L25.0418 22.5276Z" fill="url(#paint2_linear_5739_28626)"></path>
                                <path d="M26.2876 29.5763H3.73045C1.82216 29.5763 0.269531 28.0239 0.269531 26.1154V25.7786C0.269531 25.177 0.759039 24.6875 1.36062 24.6875H10.712C11.4018 24.6875 12.0464 25.0574 12.394 25.6531C12.5739 25.9605 12.9069 26.1518 13.2634 26.1518H16.1344C16.4911 26.1518 16.8239 25.9607 17.0038 25.6531C17.3514 25.0576 17.996 24.6875 18.6858 24.6875H28.6572C29.2587 24.6875 29.7483 25.177 29.7483 25.7786V26.1154C29.7485 28.0241 28.1958 29.5763 26.2876 29.5763ZM1.36016 25.6288C1.27735 25.6288 1.21038 25.696 1.21038 25.7786V26.1154C1.21038 27.5046 2.34073 28.6353 3.73027 28.6353H26.2874C27.6769 28.6353 28.8073 27.5047 28.8073 26.1154V25.7786C28.8073 25.6958 28.7401 25.6288 28.6575 25.6288H18.6855C18.3288 25.6288 17.996 25.8199 17.8161 26.1274C17.4686 26.723 16.8239 27.093 16.1341 27.093H13.2632C12.5735 27.093 11.9288 26.7232 11.5812 26.1274C11.4013 25.8201 11.0683 25.6288 10.7118 25.6288H1.36016Z" fill="url(#paint3_linear_5739_28626)"></path>
                                <path d="M22.8612 19.3004H6.86116C6.60134 19.3004 6.39062 19.09 6.39062 18.8299C6.39062 18.5699 6.60134 18.3594 6.86116 18.3594H22.8612C23.121 18.3594 23.3317 18.5699 23.3317 18.8299C23.3317 19.09 23.121 19.3004 22.8612 19.3004Z" fill="url(#paint4_linear_5739_28626)"></path>
                                <defs>
                                    <linearGradient id="paint0_linear_5739_28626" x1="19.1071" y1="0.400391" x2="19.0325" y2="20.1649" gradientUnits="userSpaceOnUse">
                                        <stop stop-color="#005CAA"></stop>
                                        <stop offset="1" stop-color="#64B0F1"></stop>
                                    </linearGradient>
                                    <linearGradient id="paint1_linear_5739_28626" x1="22.2549" y1="8.06836" x2="22.191" y2="31.1708" gradientUnits="userSpaceOnUse">
                                        <stop stop-color="#005CAA"></stop>
                                        <stop offset="1" stop-color="#64B0F1"></stop>
                                    </linearGradient>
                                    <linearGradient id="paint2_linear_5739_28626" x1="20.8726" y1="11.1699" x2="20.8444" y2="24.9623" gradientUnits="userSpaceOnUse">
                                        <stop stop-color="#005CAA"></stop>
                                        <stop offset="1" stop-color="#64B0F1"></stop>
                                    </linearGradient>
                                    <linearGradient id="paint3_linear_5739_28626" x1="23.2367" y1="24.6875" x2="23.233" y2="30.6241" gradientUnits="userSpaceOnUse">
                                        <stop stop-color="#005CAA"></stop>
                                        <stop offset="1" stop-color="#64B0F1"></stop>
                                    </linearGradient>
                                    <linearGradient id="paint4_linear_5739_28626" x1="19.5896" y1="18.3594" x2="19.5893" y2="19.5021" gradientUnits="userSpaceOnUse">
                                        <stop stop-color="#005CAA"></stop>
                                        <stop offset="1" stop-color="#64B0F1"></stop>
                                    </linearGradient>
                                </defs>
                            </svg>