<svg width="38" height="38" viewBox="0 0 30 30" fill="none"
                                xmlns="http://www.w3.org/2000/svg">
                                <path
                                    d="M30 6.66667C30 3 27 0 23.3333 0H21.6667C20.6667 0 20 0.666667 20 1.66667C20 2.66667 20.6667 3.33333 21.6667 3.33333H23.3333C25.1667 3.33333 26.6667 4.83333 26.6667 6.66667V8.5C26.6667 9.5 27.3333 10.1667 28.3333 10.1667C29.3333 10.1667 30 9.5 30 8.5V6.66667ZM30 21.6667C30 20.6667 29.3333 20 28.3333 20C27.3333 20 26.6667 20.6667 26.6667 21.6667V23.3333C26.6667 25.1667 25.1667 26.6667 23.3333 26.6667H21.6667C20.6667 26.6667 20 27.3333 20 28.3333C20 29.3333 20.6667 30 21.6667 30H23.3333C27 30 30 27 30 23.3333V21.6667ZM0 23.3333C0 27 3 30 6.66667 30H8.33333C9.33333 30 10 29.3333 10 28.3333C10 27.3333 9.33333 26.6667 8.33333 26.6667H6.66667C4.83333 26.6667 3.33333 25.1667 3.33333 23.3333V21.6667C3.33333 20.6667 2.66667 20 1.66667 20C0.666667 20 0 20.6667 0 21.6667V23.3333ZM8.33333 0H6.66667C3 0 0 3 0 6.66667V8.33333C0 9.33333 0.666667 10 1.66667 10C2.66667 10 3.33333 9.33333 3.33333 8.33333V6.66667C3.33333 4.83333 4.83333 3.33333 6.66667 3.33333H8.33333C9.33333 3.33333 10 2.66667 10 1.66667C10 0.666667 9.33333 0 8.33333 0ZM20 10C20 7.16667 17.8333 5 15 5C12.1667 5 10 7.16667 10 10C10 12.8333 12.1667 15 15 15C17.8333 15 20 12.8333 20 10ZM15 11.6667C14 11.6667 13.3333 11 13.3333 10C13.3333 9 14 8.33333 15 8.33333C16 8.33333 16.6667 9 16.6667 10C16.6667 11 16 11.6667 15 11.6667Z"
                                    fill="#CC1212" />
                                <path
                                    d="M7.77108 21L7.10441 23.1667C6.77108 24 7.27108 25 8.10441 25.3333C8.93774 25.6667 9.93774 25.1667 10.2711 24.3333L10.9377 22C11.2711 21 12.2711 20.3333 13.2711 20.3333H17.2711C18.2711 20.3333 19.2711 21 19.6044 22L20.2711 24.1667C20.4377 24.8333 21.1044 25.3333 21.7711 25.3333C21.9377 25.3333 22.1044 25.3333 22.2711 25.1667C23.1044 24.8333 23.6044 24 23.2711 23L22.6044 20.8333C21.9377 18.6667 19.7711 17 17.2711 17H13.2711C10.7711 17 8.60441 18.6667 7.77108 21Z"
                                    fill="#CC1212" />
                            </svg>