<svg width="38" height="38" viewBox="0 0 28 28" fill="none"
                                xmlns="http://www.w3.org/2000/svg">
                                <path
                                    d="M5.13831 16.2534C3.97817 16.2825 2.87568 16.7651 2.06693 17.5974C1.25834 18.4299 0.808152 19.546 0.812658 20.7065C0.802691 21.8898 1.26582 23.0279 2.09896 23.868C2.93213 24.7082 4.06638 25.1809 5.24965 25.1809C6.43291 25.1809 7.56716 24.7082 8.40033 23.868C9.23373 23.0278 9.69662 21.8898 9.68685 20.7065C9.69152 19.5073 9.21058 18.3574 8.35365 17.5185C7.49697 16.6796 6.33704 16.2233 5.13831 16.2534V16.2534ZM5.13831 16.9472C6.15296 16.919 7.13607 17.3026 7.86339 18.0107C8.59055 18.719 9.00019 19.6914 8.99916 20.7065C8.99916 22.0484 8.28308 23.2885 7.12098 23.9594C5.95873 24.6306 4.52672 24.6306 3.36468 23.9594C2.20243 23.2885 1.48651 22.0484 1.48651 20.7065C1.48523 19.7275 1.86629 18.7868 2.54844 18.0847C3.23038 17.3825 4.15964 16.9744 5.13825 16.9472H5.13831Z"
                                    fill="#CC1212" />
                                <path
                                    d="M21.3944 18.5312C20.2406 18.5647 19.1452 19.0465 18.3406 19.8745C17.5361 20.7024 17.0862 21.8112 17.0859 22.9656C17.0859 24.5512 17.9316 26.0162 19.3049 26.8089C20.6779 27.6017 22.3695 27.6017 23.7425 26.8089C25.1156 26.0162 25.9614 24.5512 25.9614 22.9656C25.9612 21.7665 25.4756 20.6184 24.6153 19.7831C23.755 18.9476 22.5932 18.4962 21.3944 18.5312ZM21.4879 19.136C22.503 19.1265 23.4789 19.5281 24.1931 20.2495C24.9073 20.9709 25.299 21.9508 25.279 22.9657C25.3047 23.978 24.9205 24.9579 24.2135 25.683C23.5067 26.4079 22.537 26.8168 21.5242 26.8168C20.5117 26.8168 19.5419 26.408 18.835 25.683C18.1282 24.958 17.7439 23.9781 17.7696 22.9657C17.7499 21.9633 18.1316 20.9946 18.8301 20.2753C19.5283 19.5561 20.4853 19.1459 21.4879 19.136Z"
                                    fill="#CC1212" />
                                <path
                                    d="M1.36724 12.1554H2.0475V7.40557H6.07609V12.1554H6.75803V6.72461H1.36719L1.36724 12.1554Z"
                                    fill="#CC1212" />
                                <path
                                    d="M7.8438 11.3543H8.52406V4.79982H12.5524V7.84851L13.2344 7.8483V4.11914H7.84375L7.8438 11.3543Z"
                                    fill="#CC1212" />
                                <path
                                    d="M19.7109 9.97913V2.17773H14.3203V7.60848H15.0006V2.85869H19.0306V9.97989L19.7109 9.97913Z"
                                    fill="#CC1212" />
                                <path
                                    d="M20.7813 12.584H21.4616V1.25887H25.4918V12.584H26.1721V0.578125H20.7812L20.7813 12.584Z"
                                    fill="#CC1212" />
                                <path
                                    d="M14.0372 8.30107C12.6012 8.28644 11.2146 8.82421 10.1638 9.80327C9.11313 10.7821 8.47864 12.1273 8.39168 13.5607H0.046875V14.2409H8.39168L8.39146 14.2411C8.50788 16.1572 9.59764 17.8802 11.2792 18.8062C12.9606 19.7323 14.9994 19.7323 16.6808 18.8062C18.3624 17.8802 19.4522 16.1572 19.5683 14.2411H27.9132V13.5609L19.5683 13.5607C19.4827 12.1469 18.8643 10.8181 17.8378 9.84208C16.8114 8.86619 15.4532 8.31551 14.0369 8.30107H14.0372ZM13.836 8.98518C15.1647 8.94637 16.4525 9.44703 17.4061 10.373C18.3595 11.2991 18.8978 12.5716 18.8978 13.901C18.8978 15.658 17.9605 17.2815 16.4388 18.1603C14.9171 19.0388 13.0421 19.0388 11.5204 18.1603C9.99869 17.2815 9.0614 15.658 9.0614 13.901C9.0614 12.6215 9.56015 11.3924 10.4516 10.4746C11.3431 9.55665 12.5571 9.02253 13.836 8.98518Z"
                                    fill="#CC1212" />
                                <path
                                    d="M13.3755 15.1536H12.1641C12.1641 15.5245 12.2822 15.8856 12.5012 16.1848C12.7203 16.4841 13.0288 16.7056 13.3823 16.8176V17.5494H14.6124V16.751V16.7512C15.0144 16.5741 15.3349 16.252 15.5098 15.8491C15.6847 15.4462 15.7013 14.9922 15.5562 14.5777C15.4112 14.1629 15.1152 13.8183 14.7273 13.6124L13.7771 13.1073L13.7769 13.1071C13.5987 13.0265 13.4789 12.8549 13.4643 12.6601C13.4499 12.465 13.5432 12.2775 13.7075 12.1715C13.8719 12.0655 14.0809 12.0578 14.2527 12.1513C14.4245 12.2451 14.5311 12.4249 14.5311 12.6206H15.7426C15.7426 12.2656 15.6342 11.9189 15.4321 11.6271C15.23 11.3353 14.9438 11.1121 14.6117 10.9869V10.2246H13.3816V10.9869C12.9598 11.1456 12.6159 11.4609 12.4214 11.8672C12.2269 12.2735 12.1973 12.7393 12.3381 13.1671C12.4791 13.595 12.7802 13.9517 13.178 14.1627L14.1585 14.6818C14.3286 14.7719 14.4369 14.9466 14.4423 15.1392C14.4473 15.3317 14.3485 15.512 14.1835 15.6114C14.0186 15.7106 13.8129 15.7134 13.6454 15.6186C13.4776 15.5238 13.3741 15.3461 13.3741 15.1536L13.3755 15.1536Z"
                                    fill="#CC1212" />
                                <path
                                    d="M6.30735 18.3926H7.1668C7.21409 18.3926 7.25798 18.4176 7.28237 18.4581C7.30697 18.4986 7.30845 18.5489 7.28661 18.5908L6.06838 20.92H6.88267V21.5403L5.76156 21.5405V21.9462H6.88267V22.5664L5.76156 22.5662V23.5658H4.72612V22.5662H3.60501V21.946H4.7259V21.5403L3.60501 21.5405V20.9202H4.41951L3.20297 18.5908C3.18091 18.5489 3.18261 18.4986 3.207 18.4581C3.23138 18.4176 3.27528 18.3926 3.32256 18.3926H4.18223C4.23461 18.3928 4.28211 18.4233 4.30438 18.471L5.24439 20.5006L6.18462 18.471H6.1844C6.20667 18.4233 6.25417 18.3928 6.30655 18.3926L6.30735 18.3926Z"
                                    fill="#CC1212" />
                                <path
                                    d="M23.0777 21.5415C23.116 21.5731 23.1693 21.5794 23.2144 21.5582C23.2594 21.537 23.2882 21.4916 23.2882 21.4418V21.0397C23.2882 20.9475 23.239 20.8623 23.1589 20.8162C22.6563 20.527 22.0653 20.4305 21.4968 20.545C20.9745 20.6498 20.5186 20.9653 20.2366 21.4172C20.0665 21.6897 19.9399 21.987 19.8612 22.2982H19.0166L18.8514 22.6729H19.7897C19.7537 22.9439 19.7537 23.2186 19.7897 23.4896H19.0089L18.8438 23.8643H19.8658C19.9449 24.1586 20.0669 24.4396 20.2278 24.6982C20.5098 25.1501 20.9658 25.4657 21.4881 25.5704C22.0568 25.6849 22.6476 25.5884 23.1503 25.2992C23.2303 25.2532 23.2795 25.1679 23.2795 25.0757V24.6736C23.2795 24.6238 23.2506 24.5784 23.2057 24.5572C23.1607 24.536 23.1075 24.5424 23.0689 24.574C22.6641 24.9077 22.1306 25.0415 21.6161 24.9383C21.2681 24.8683 20.9645 24.6579 20.7764 24.3568C20.6793 24.202 20.5999 24.0366 20.5395 23.8642H22.1734L22.3386 23.4895H20.4433C20.3977 23.2191 20.3977 22.9431 20.4433 22.6729H22.1827L22.3479 22.2982H20.5347C20.5962 22.1086 20.6806 21.9273 20.786 21.7583C20.9741 21.4572 21.2777 21.2468 21.6257 21.1769C22.1402 21.0736 22.6737 21.2072 23.0785 21.5412L23.0777 21.5415Z"
                                    fill="#CC1212" />
                            </svg>