<svg width="38" height="38" viewBox="0 0 32 32" fill="none" xmlns="http://www.w3.org/2000/svg">
<path fill-rule="evenodd" clip-rule="evenodd" d="M26.0999 25.7011V23.5478C26.0999 23.1799 25.8013 22.881 25.4332 22.881C25.0653 22.881 24.7667 23.1799 24.7667 23.5478V27.3192C24.7667 27.687 25.0653 27.9857 25.4332 27.9857H29.2046C29.5727 27.9857 29.8714 27.6864 29.8714 27.3192C29.8714 26.9511 29.5727 26.6524 29.2046 26.6524H27.0352C29.6992 23.8931 31.3386 20.1393 31.3386 16.005C31.3386 7.54216 24.4683 0.671875 16.0054 0.671875C13.496 0.671875 11.1268 1.27587 9.03456 2.34645C8.70732 2.51386 8.57741 2.91586 8.74527 3.24376C8.91268 3.57122 9.31469 3.70113 9.64258 3.53305C11.5513 2.55647 13.7147 2.00516 16.0054 2.00516C23.7317 2.00516 30.0054 8.27887 30.0054 16.0052C30.0054 19.7672 28.5182 23.1846 26.1001 25.7012L26.0999 25.7011Z" fill="url(#paint0_linear_4063_28020)"/>
<path fill-rule="evenodd" clip-rule="evenodd" d="M4.97525 5.35868C2.31119 8.11805 0.671875 11.8718 0.671875 16.0061C0.671875 24.469 7.54216 31.3392 16.005 31.3392C18.5144 31.3392 20.8836 30.7352 22.9759 29.6647C23.3031 29.4973 23.433 29.0953 23.2652 28.7674C23.0978 28.4399 22.6957 28.31 22.3678 28.4781C20.4592 29.4546 18.2957 30.006 16.005 30.006C8.2787 30.006 2.00499 23.7323 2.00499 16.006C2.00499 12.2439 3.49225 8.82653 5.91036 6.30996V8.46333C5.91036 8.83119 6.20902 9.13008 6.5771 9.13008C6.94496 9.13008 7.24362 8.83119 7.24362 8.46333V4.69191C7.24362 4.32405 6.94496 4.02539 6.5771 4.02539H2.80568C2.4376 4.02539 2.13893 4.32472 2.13893 4.69191C2.13893 5.05999 2.4376 5.35865 2.80568 5.35865L4.97525 5.35868Z" fill="url(#paint1_linear_4063_28020)"/>
<path fill-rule="evenodd" clip-rule="evenodd" d="M16.0078 6.00586C10.4884 6.00586 6.00781 10.4864 6.00781 16.0059C6.00781 21.5253 10.4884 26.0059 16.0078 26.0059C21.5272 26.0059 26.0078 21.5253 26.0078 16.0059C26.0078 10.4864 21.5272 6.00586 16.0078 6.00586ZM16.0078 7.33912C20.7911 7.33912 24.6747 11.2226 24.6747 16.006C24.6747 20.7893 20.7912 24.6728 16.0078 24.6728C11.2244 24.6728 7.34096 20.7893 7.34096 16.006C7.34096 11.2226 11.2244 7.33912 16.0078 7.33912Z" fill="url(#paint2_linear_4063_28020)"/>
<path fill-rule="evenodd" clip-rule="evenodd" d="M15.3359 10.0051H14.6694C12.8286 10.0051 11.3359 11.4978 11.3359 13.3384C11.3359 15.1792 12.8286 16.6719 14.6694 16.6719H17.3359C18.4406 16.6719 19.3359 17.5672 19.3359 18.6719C19.3359 19.7766 18.4406 20.6719 17.3359 20.6719H14.6694C13.5647 20.6719 12.6694 19.7766 12.6694 18.6719C12.6694 18.3038 12.3708 18.0051 12.0027 18.0051C11.6346 18.0051 11.3359 18.3038 11.3359 18.6719C11.3359 20.5125 12.8286 22.0051 14.6694 22.0051H15.3359V22.6719C15.3359 23.0397 15.6346 23.3384 16.0027 23.3384C16.3708 23.3384 16.6694 23.0397 16.6694 22.6719V22.0051H17.3359C19.1768 22.0051 20.6694 20.5125 20.6694 18.6719C20.6694 16.831 19.1768 15.3384 17.3359 15.3384H14.6694C13.5647 15.3384 12.6694 14.4431 12.6694 13.3384C12.6694 12.2337 13.5647 11.3384 14.6694 11.3384H17.3359C18.4406 11.3384 19.3359 12.2337 19.3359 13.3384C19.3359 13.7065 19.6346 14.0051 20.0027 14.0051C20.3708 14.0051 20.6694 13.7065 20.6694 13.3384C20.6694 11.4978 19.1768 10.0051 17.3359 10.0051H16.6694V9.33839C16.6694 8.97053 16.3708 8.67188 16.0027 8.67188C15.6346 8.67188 15.3359 8.97054 15.3359 9.33839V10.0051Z" fill="url(#paint3_linear_4063_28020)"/>
<defs>
<linearGradient id="paint0_linear_4063_28020" x1="26.3317" y1="0.671875" x2="26.1809" y2="33.8387" gradientUnits="userSpaceOnUse">
<stop stop-color="#005CAA"/>
<stop offset="1" stop-color="#64B0F1"/>
</linearGradient>
<linearGradient id="paint1_linear_4063_28020" x1="18.3317" y1="4.02539" x2="18.1809" y2="37.1922" gradientUnits="userSpaceOnUse">
<stop stop-color="#005CAA"/>
<stop offset="1" stop-color="#64B0F1"/>
</linearGradient>
<linearGradient id="paint2_linear_4063_28020" x1="21.59" y1="6.00586" x2="21.4984" y2="30.2917" gradientUnits="userSpaceOnUse">
<stop stop-color="#005CAA"/>
<stop offset="1" stop-color="#64B0F1"/>
</linearGradient>
<linearGradient id="paint3_linear_4063_28020" x1="18.6077" y1="8.67187" x2="18.5021" y2="26.481" gradientUnits="userSpaceOnUse">
<stop stop-color="#005CAA"/>
<stop offset="1" stop-color="#64B0F1"/>
</linearGradient>
</defs>
</svg>