   <svg width="38" height="38" viewBox="0 0 29 30" fill="none"
                                xmlns="http://www.w3.org/2000/svg">
                                <path
                                    d="M12.832 13.4409C11.4863 13.668 10.457 14.8386 10.457 16.2481V26.4131C10.457 27.9846 11.7355 29.2631 13.307 29.2631H21.382C22.5988 29.2631 23.666 28.4825 24.0628 27.3631H25.8945C28.2911 27.3421 28.8327 24.0107 26.607 23.2111V13.1129C26.607 11.5413 25.3286 10.2629 23.757 10.2629H15.682C13.9733 10.2533 12.6836 11.7616 12.832 13.4409ZM21.382 28.313H13.307C12.259 28.313 11.407 27.4606 11.407 26.413V16.248C11.407 15.3652 12.0148 14.6279 12.832 14.4154V24.5131C12.832 26.0847 14.1105 27.3631 15.682 27.3631H23.0291C22.697 27.9365 22.0744 28.3131 21.3822 28.3131L21.382 28.313ZM25.8945 24.038C27.4457 24.0696 27.4637 26.3829 25.8945 26.413H17.807C18.3951 25.7698 18.5846 24.8881 18.532 24.038H25.8945ZM25.657 13.113V23.088H18.057C17.7945 23.088 17.582 23.3007 17.582 23.563V24.513C17.508 27.0108 13.8575 27.0275 13.782 24.513V13.113C13.782 12.0655 14.634 11.213 15.682 11.213H23.757C24.805 11.213 25.657 12.0655 25.657 13.113Z"
                                    fill="#CC1212" />
                                <path
                                    d="M15.6829 14.063H23.7579C24.3796 14.0533 24.3843 13.1236 23.7579 13.113H15.6829C15.0612 13.1228 15.0565 14.0525 15.6829 14.063Z"
                                    fill="#CC1212" />
                                <path
                                    d="M23.7579 15.0131H15.6829C15.0612 15.0228 15.0565 15.9525 15.6829 15.9631H23.7579C24.3796 15.9533 24.3843 15.0236 23.7579 15.0131Z"
                                    fill="#CC1212" />
                                <path
                                    d="M23.7579 16.9131H15.6829C15.0612 16.9228 15.0565 17.8525 15.6829 17.8631H23.7579C24.3796 17.8533 24.3843 16.9237 23.7579 16.9131Z"
                                    fill="#CC1212" />
                                <path
                                    d="M20.908 18.813H15.683C15.0602 18.823 15.0574 19.7524 15.683 19.763H20.908C21.5308 19.753 21.5335 18.8236 20.908 18.813Z"
                                    fill="#CC1212" />
                                <path
                                    d="M2.85808 29.2631H10.3484C10.6109 29.2631 10.8234 29.0504 10.8234 28.7881C10.8234 28.5258 10.6109 28.3131 10.3484 28.3131H4.04531C3.91108 27.0721 4.63035 25.9618 5.94531 25.9381H9.50781C10.1302 25.9285 10.1338 24.9984 9.50781 24.9881H5.94531C4.15345 24.9832 2.90955 26.5783 3.09531 28.3131C1.96975 28.4176 0.951027 27.5617 0.957813 26.4131V8.58129C1.46271 9.03466 2.12751 9.31306 2.85781 9.31306H7.60781C8.234 9.3014 8.23085 8.37365 7.60781 8.36306H2.85781C1.80983 8.36306 0.957813 7.51061 0.957813 6.46306V3.61306C0.957813 2.56551 1.80983 1.71306 2.85781 1.71306H18.0578C19.1058 1.71306 19.9578 2.56551 19.9578 3.61306V6.46306C19.9578 7.51061 19.1058 8.36306 18.0578 8.36306H13.3078C12.6823 8.37345 12.6848 9.30329 13.3078 9.31306H18.0578C18.7881 9.31306 19.4529 9.03464 19.9578 8.58129V9.31306C19.9648 9.93588 20.8993 9.93756 20.9078 9.31306V3.61306C20.9078 2.04154 19.6293 0.763062 18.0578 0.763062H2.85781C1.2863 0.763062 0.0078125 2.04154 0.0078125 3.61306V26.4131C0.0078125 27.9846 1.2863 29.2631 2.85781 29.2631H2.85808Z"
                                    fill="#CC1212" />
                                <path
                                    d="M10.4592 13.5881C11.5072 13.5881 12.3592 12.7356 12.3592 11.6881V5.98806C12.3766 4.13643 9.90189 3.39293 8.89278 4.91614C8.63661 4.70387 8.2806 4.66528 8.03186 4.63813C7.76722 4.61544 7.50851 4.5794 7.4693 4.29651C7.45763 4.18413 7.5134 4.05922 7.60438 3.99264C7.81643 3.83826 7.86329 3.54096 7.70871 3.3291C7.10923 2.68766 6.4103 3.80262 6.52398 4.39278C6.57275 5.09893 7.27632 5.58326 7.92987 5.58261C8.56371 5.58367 8.46785 5.98339 8.55926 6.52539V11.6882C8.55926 12.7358 9.41127 13.5882 10.4593 13.5882L10.4592 13.5881ZM10.4592 12.6381C9.2066 12.6052 9.20682 10.7707 10.4592 10.7381C11.7118 10.7709 11.7116 12.6054 10.4592 12.6381ZM10.4592 5.03806C11.7118 5.07093 11.7116 6.90538 10.4592 6.93806C9.2066 6.90519 9.20682 5.07074 10.4592 5.03806ZM9.50919 7.62385C10.061 7.97077 10.8576 7.97077 11.4092 7.62385V10.0523C10.8574 9.70535 10.0607 9.70535 9.50919 10.0523V7.62385Z"
                                    fill="#CC1212" />
                            </svg>