<svg width="38" height="38" viewBox="0 0 38 39" fill="none" xmlns="http://www.w3.org/2000/svg">
<path d="M31.3737 10.7613L24.0587 4.53882C23.6484 4.18788 23.1307 3.98724 22.5911 3.96997C22.0514 3.9527 21.5219 4.11983 21.09 4.44382L17.9194 6.81882L15.9244 4.82382C15.4794 4.38148 14.8774 4.13319 14.25 4.13319C13.6226 4.13319 13.0206 4.38148 12.5756 4.82382L6.63812 10.8207C5.79011 10.9377 5.01258 11.3561 4.44779 11.9994C3.883 12.6427 3.56874 13.4678 3.5625 14.3238V30.9488C3.5625 31.8937 3.93783 32.7998 4.60593 33.4679C5.27403 34.136 6.18017 34.5113 7.125 34.5113H30.875C31.8198 34.5113 32.726 34.136 33.3941 33.4679C34.0622 32.7998 34.4375 31.8937 34.4375 30.9488V14.3238C34.446 13.4594 34.1399 12.6213 33.5762 11.9659C33.0125 11.3104 32.2297 10.8823 31.3737 10.7613ZM32.0625 25.0113H29.6875C29.0576 25.0113 28.4535 24.7611 28.0081 24.3157C27.5627 23.8703 27.3125 23.2662 27.3125 22.6363C27.3125 22.0064 27.5627 21.4023 28.0081 20.9569C28.4535 20.5115 29.0576 20.2613 29.6875 20.2613H32.0625V25.0113ZM22.5625 6.34382L27.6687 10.7613H21.8619L19.6175 8.51695L22.5625 6.34382ZM14.25 6.4982L18.5131 10.7613H9.98687L14.25 6.4982ZM30.875 32.1363H7.125C6.81006 32.1363 6.50801 32.0112 6.28531 31.7885C6.06261 31.5658 5.9375 31.2638 5.9375 30.9488V14.3238C5.9375 14.0089 6.06261 13.7068 6.28531 13.4841C6.50801 13.2614 6.81006 13.1363 7.125 13.1363H30.875C31.1899 13.1363 31.492 13.2614 31.7147 13.4841C31.9374 13.7068 32.0625 14.0089 32.0625 14.3238V17.8863H29.6875C28.4277 17.8863 27.2195 18.3868 26.3287 19.2776C25.4379 20.1684 24.9375 21.3765 24.9375 22.6363C24.9375 23.8961 25.4379 25.1043 26.3287 25.9951C27.2195 26.8859 28.4277 27.3863 29.6875 27.3863H32.0625V30.9488C32.0625 31.2638 31.9374 31.5658 31.7147 31.7885C31.492 32.0112 31.1899 32.1363 30.875 32.1363Z" fill="url(#paint0_linear_3703_35139)"/>
<path d="M28.8444 21.7927C28.6274 22.0203 28.5044 22.3214 28.5 22.6358C28.5 22.9508 28.6251 23.2528 28.8478 23.4755C29.0705 23.6982 29.3726 23.8233 29.6875 23.8233C30.0024 23.8233 30.3045 23.6982 30.5272 23.4755C30.7499 23.2528 30.875 22.9508 30.875 22.6358C30.8764 22.3999 30.8075 22.169 30.6771 21.9725C30.5467 21.7759 30.3607 21.6226 30.1429 21.5322C29.925 21.4417 29.6852 21.4182 29.4539 21.4646C29.2227 21.511 29.0105 21.6252 28.8444 21.7927Z" fill="url(#paint1_linear_3703_35139)"/>
<defs>
<linearGradient id="paint0_linear_3703_35139" x1="27.6176" y1="3.96875" x2="27.4792" y2="41.0564" gradientUnits="userSpaceOnUse">
<stop stop-color="#005CAA"/>
<stop offset="1" stop-color="#64B0F1"/>
</linearGradient>
<linearGradient id="paint1_linear_3703_35139" x1="30.3504" y1="21.4414" x2="30.3395" y2="24.3337" gradientUnits="userSpaceOnUse">
<stop stop-color="#005CAA"/>
<stop offset="1" stop-color="#64B0F1"/>
</linearGradient>
</defs>
</svg>