<svg width="38" height="38" viewBox="0 0 30 30" fill="none" xmlns="http://www.w3.org/2000/svg">
<path d="M21.7331 12.1334C22.0851 12.1334 22.373 11.8454 22.373 11.4934C22.373 11.1414 22.0851 10.8535 21.7331 10.8535C21.3811 10.8535 21.0931 11.1414 21.0931 11.4934C21.0929 11.8452 21.3811 12.1334 21.7331 12.1334ZM23.653 12.1334C24.005 12.1334 24.2929 11.8454 24.2929 11.4934C24.2929 11.1414 24.005 10.8535 23.653 10.8535C23.3009 10.8535 23.013 11.1414 23.013 11.4934C23.013 11.8452 23.301 12.1334 23.653 12.1334ZM25.5731 10.8532C25.9251 10.8532 26.213 11.1412 26.213 11.4932C26.213 11.8452 25.9251 12.1331 25.5731 12.1331C25.2211 12.1331 24.9331 11.8452 24.9331 11.4932C24.9331 11.1412 25.2211 10.8532 25.5731 10.8532ZM7.33307 23.8132H4.13307V23.4932H7.33307V23.8132ZM7.65294 21.2532H4.13305V20.9331H7.65317L7.65294 21.2532ZM8.29288 22.8532H4.13305V22.5331H8.29311L8.29288 22.8532ZM8.29288 19.3333H4.13305V18.6934H8.29311L8.29288 19.3333ZM10.213 27.6533H26.853V18.6933H10.213V27.6533ZM25.253 26.2134H26.2131V27.1734H25.253V26.2134ZM23.653 26.2134H24.6131V27.1734H23.653V26.2134ZM22.053 26.2134H23.0131V27.1734H22.053V26.2134ZM13.093 16.7734H4.133V16.4533H13.093V16.7734ZM25.573 26.5334H25.8931V26.8534H25.573V26.5334ZM11.493 15.4934H4.133V14.8534H11.493V15.4934ZM8.93317 20.2934H4.13317V19.9733H8.93317V20.2934ZM18.5332 2.53336H15.9731V2.21326H18.5332V2.53336ZM24.9332 2.53336H22.3731V2.21326H24.9332V2.53336ZM21.7332 2.53336H19.1731V2.21326H21.7332V2.53336ZM5.09317 2.85322H1.89317V1.89317H5.09317V2.85322ZM0.613281 0.613281V29.4133H29.4133V0.613281H0.613281ZM28.7733 28.7733H1.25328V13.4133H28.7733V28.7733ZM28.7733 13.0933H1.25328V3.81328H28.7733V13.0933ZM28.7733 3.49328H1.25328V1.25334H28.7733V3.49328ZM19.4933 8.29328H4.13328V7.97319H19.4933V8.29328ZM13.0933 7.33345H4.13328V6.05357H13.0933V7.33345ZM16.2933 8.93345H4.13328V8.61336H16.2933V8.93345ZM28.1333 2.53345H25.5732V2.21336H28.1333V2.53345ZM7.97328 10.5335H4.13334V9.89351H7.97328V10.5335Z" fill="#CC1212"/>
</svg>