<svg width="38" height="38" viewBox="0 0 30 24" fill="none" xmlns="http://www.w3.org/2000/svg">
<path d="M14.9836 0.230469C12.4693 0.230469 10.4177 2.28224 10.4177 4.7963C10.4177 4.94719 10.4262 5.09585 10.4407 5.24295H3.15671H3.15694C2.86118 5.24406 2.62234 5.48469 2.62346 5.78045V19.4484H1.27968C0.983924 19.4473 0.743302 19.6862 0.742188 19.9819C0.742188 20.771 0.87433 21.629 1.17299 22.3538C1.32232 22.7163 1.51652 23.0503 1.78168 23.3181C2.04684 23.5859 2.40625 23.7891 2.81694 23.8116C2.82743 23.8118 2.83792 23.8118 2.84841 23.8116H27.1101H27.1175C27.6079 23.804 28.0481 23.6201 28.3588 23.3295C28.6697 23.0389 28.8561 22.667 28.9789 22.2826C29.2245 21.5139 29.2329 20.6565 29.2164 19.9703C29.2091 19.6793 28.9702 19.4473 28.6789 19.4485H27.3392V5.78046C27.3397 5.63827 27.2836 5.50167 27.1834 5.40078C27.0832 5.30011 26.947 5.24319 26.8048 5.24297H19.522C19.5363 5.09587 19.5438 4.94721 19.5438 4.79631C19.5438 2.28203 17.4976 0.230486 14.9832 0.230486L14.9836 0.230469ZM14.9836 1.30235C16.9193 1.30235 18.4733 2.86081 18.4733 4.79635C18.4733 5.11377 18.4284 5.41955 18.3498 5.71155C18.305 5.87651 18.2512 6.03722 18.1847 6.19057C18.1762 6.21044 18.1655 6.22941 18.1565 6.24905C18.0862 6.40307 18.0065 6.55129 17.9159 6.69146C17.9083 6.70329 17.9016 6.71535 17.894 6.72695C17.798 6.87182 17.6907 7.00708 17.5751 7.13476C17.5588 7.15285 17.5427 7.17137 17.5259 7.18923C17.4079 7.31445 17.2813 7.43119 17.1463 7.53745C17.132 7.54861 17.1168 7.55888 17.1023 7.56981C16.8195 7.78521 16.5041 7.95776 16.1653 8.07919C16.1474 8.08566 16.13 8.09303 16.1119 8.09906C15.9481 8.15486 15.7789 8.19772 15.6057 8.22874C15.5778 8.23365 15.5492 8.237 15.5208 8.24124C15.3449 8.26847 15.1659 8.28611 14.9833 8.28611C14.8003 8.28611 14.6211 8.26847 14.4447 8.24124C14.4168 8.237 14.3887 8.23365 14.361 8.22874C14.1869 8.19749 14.0166 8.15419 13.8516 8.09794C13.8362 8.0928 13.8211 8.08678 13.8057 8.08119C13.459 7.95753 13.1358 7.78142 12.8476 7.55932C12.8414 7.55463 12.8349 7.55039 12.8289 7.5457C12.686 7.4341 12.5525 7.31044 12.4284 7.17762C12.4204 7.16892 12.4123 7.16021 12.4043 7.15151C12.2806 7.01646 12.1661 6.87182 12.0643 6.71758C11.8563 6.40128 11.6983 6.04661 11.6001 5.66335C11.5295 5.38589 11.4891 5.09661 11.4891 4.79638C11.4891 2.86089 13.0474 1.30238 14.9831 1.30238L14.9836 1.30235ZM14.7222 2.06573V2.67533C14.5579 2.70033 14.4077 2.74028 14.2755 2.79877C14.0456 2.89921 13.8679 3.04609 13.7463 3.23894C13.6242 3.4318 13.5652 3.66439 13.5652 3.93649V3.93961C13.5652 4.24653 13.6306 4.48381 13.7597 4.6519C13.8887 4.81797 14.0469 4.93471 14.2324 5.00212C14.4177 5.06774 14.6507 5.12199 14.932 5.1664L14.9978 5.17578C14.9978 5.17734 14.9978 5.1789 15.0259 5.1789C15.0259 5.1789 15.0541 5.1789 15.0541 5.18203C15.2159 5.20703 15.346 5.23582 15.4483 5.26685C15.5514 5.29766 15.6335 5.34565 15.696 5.41127C15.7617 5.47689 15.7922 5.56596 15.7922 5.67801V5.68114C15.7922 5.84141 15.7186 5.96574 15.5779 6.05458C15.4371 6.14141 15.2353 6.18426 14.9766 6.18426C14.7539 6.18426 14.534 6.149 14.322 6.07757C14.1108 6.00413 13.9222 5.90123 13.7603 5.76797L13.3934 6.42157C13.5249 6.53184 13.6771 6.62693 13.8452 6.70594C14.0164 6.78295 14.1949 6.84121 14.3858 6.88161C14.5101 6.90773 14.6394 6.92469 14.7664 6.93384H14.7382V7.5227H15.5059V6.88899C15.6209 6.86488 15.7311 6.83318 15.8291 6.79167C16.0715 6.69122 16.2539 6.54658 16.3791 6.35551C16.5034 6.16443 16.5695 5.93452 16.5695 5.66625V5.66C16.5695 5.37451 16.5106 5.14951 16.3885 4.98543C16.2666 4.81936 16.1184 4.70016 15.9398 4.62672C15.7615 4.5515 15.5396 4.48744 15.2738 4.43543L15.2414 4.43029C15.2414 4.42583 15.2135 4.42271 15.211 4.42092C15.211 4.41936 15.1829 4.41779 15.1829 4.41779L15.1548 4.41154C14.9695 4.37471 14.8251 4.34078 14.7229 4.30797C14.622 4.27516 14.5331 4.2236 14.4666 4.15418C14.3963 4.08275 14.363 3.9861 14.363 3.86445V3.86132C14.363 3.71645 14.4313 3.60485 14.5628 3.52561C14.6941 3.44458 14.8843 3.4044 15.1276 3.4044C15.2872 3.4044 15.459 3.43476 15.6347 3.49637C15.813 3.5582 15.9818 3.64481 16.1441 3.75686L16.4798 3.08543C16.3436 2.9928 16.2005 2.91378 16.051 2.84816C15.9008 2.78253 15.7459 2.73231 15.5876 2.69749C15.5595 2.69146 15.532 2.68856 15.5039 2.68276V2.06578L14.7222 2.06573ZM3.69474 6.31373H10.6839C11.2332 7.86058 12.5942 9.02378 14.2522 9.29321C14.281 9.29835 14.31 9.30236 14.339 9.30683C14.4225 9.31888 14.5062 9.33093 14.591 9.3383C14.7205 9.35035 14.8513 9.35817 14.9843 9.35817C15.1171 9.35817 15.2482 9.35035 15.3776 9.3383C15.4631 9.33093 15.5466 9.31888 15.6307 9.30683C15.658 9.30259 15.6852 9.29902 15.7122 9.29433C17.3711 9.02602 18.7314 7.86176 19.2805 6.31376H26.2685V19.4486H3.69478L3.69474 6.31373ZM7.88114 9.98247H7.88092C7.75993 9.98135 7.64319 10.0287 7.55703 10.1139C7.47087 10.1992 7.42221 10.3153 7.42198 10.4365C7.42087 10.5586 7.46886 10.6758 7.55524 10.7622C7.64162 10.8485 7.75881 10.8965 7.88091 10.8954H9.74228V16.2749H7.88091V16.2751C7.75993 16.274 7.64319 16.3213 7.55702 16.4066C7.47087 16.4916 7.4222 16.6077 7.42198 16.7289C7.42198 16.8503 7.47042 16.9666 7.55658 17.0521C7.64296 17.1374 7.75971 17.1849 7.88091 17.1838H10.1974C10.4481 17.1832 10.651 16.9798 10.6512 16.7289V15.6267H11.0979L12.4501 17.9546C12.6124 18.2334 12.9255 18.3648 13.1811 18.378C13.4367 18.3914 13.668 18.3251 13.8735 18.2117C14.0443 18.1177 14.1974 17.991 14.3179 17.8227C14.3264 17.8256 14.3345 17.8291 14.3429 17.832C14.6121 17.9222 14.9139 18.0137 15.2601 17.7849C15.3499 17.7256 15.43 17.6543 15.5039 17.5758C15.5325 17.5959 15.5526 17.6202 15.5845 17.6385C15.7968 17.7606 16.1588 17.805 16.4231 17.6302C16.5611 17.5389 16.7773 17.3827 16.9722 17.1796C16.9858 17.1655 16.9977 17.1481 17.0108 17.1336C17.0919 17.1528 17.1715 17.166 17.2483 17.1722C17.5269 17.195 17.7963 17.1639 18.0546 17.0144C18.2923 16.8767 18.4586 16.6789 18.6025 16.4445H19.3117V16.7289L19.3115 16.7291C19.3115 16.9802 19.515 17.1838 19.7664 17.184H22.0869C22.3376 17.1834 22.5407 16.9798 22.5407 16.7291C22.54 16.4787 22.3373 16.2758 22.0869 16.2751H20.2213V10.8956H22.0869C22.2081 10.8952 22.3242 10.8465 22.4092 10.7604C22.4945 10.6742 22.5418 10.5577 22.5407 10.4365C22.54 10.186 22.3373 9.98334 22.0869 9.98267H19.7664C19.5155 9.98267 19.3121 10.1858 19.3115 10.4365V10.8025C19.0358 10.655 18.6199 10.4543 17.6675 10.0653H17.6672C17.6123 10.0421 17.5534 10.03 17.4938 10.0298H15.011C14.8954 10.0293 14.784 10.0731 14.6994 10.1521L14.6617 10.1876H10.5757C10.492 10.0601 10.3498 9.98314 10.1972 9.98269L7.88114 9.98247ZM15.1891 10.9383H17.3947C18.5771 11.426 19.0298 11.6676 19.1224 11.7289C19.1465 11.7448 19.1494 11.7468 19.1621 11.7571C19.1731 11.766 19.2286 11.8097 19.3117 11.8428V15.5354H18.7699C18.755 15.4957 18.7394 15.4564 18.7155 15.4173L16.7275 12.1367H16.7273C16.6438 12.0004 16.4949 11.9178 16.3351 11.9193H15.1775C15.0635 11.9187 14.9534 11.9608 14.8688 12.0374C14.5784 12.3026 14.165 12.6416 13.825 12.8834C13.655 13.0044 13.4987 13.1042 13.4099 13.1479C13.392 13.1455 13.3777 13.1417 13.367 13.1406C13.3416 13.1383 13.3208 13.1383 13.2958 13.1363C13.2458 13.1325 13.1855 13.1258 13.1253 13.1164C13.0204 13.0999 12.9525 13.0667 12.9402 13.0651L15.1166 11.006L15.1168 11.0062C15.1431 10.9863 15.1675 10.9636 15.1889 10.9383L15.1891 10.9383ZM10.6514 11.0972H13.6967L12.2012 12.508C12.1179 12.5868 12.0385 12.6754 11.9838 12.8008C11.9289 12.926 11.9144 13.0941 11.9483 13.2276C12.0162 13.4941 12.1666 13.6042 12.2923 13.7211C12.5336 13.9459 12.788 13.9872 12.9836 14.0182C13.0813 14.0336 13.1668 14.0408 13.2251 14.0455C13.2327 14.0461 13.2343 14.0461 13.2407 14.0466C13.3552 14.0827 13.4657 14.0785 13.5336 14.0653C13.6479 14.0435 13.7287 14.0048 13.8139 13.9629C13.9843 13.8787 14.1597 13.7624 14.3514 13.626C14.6854 13.3885 15.0349 13.0943 15.3356 12.828H16.0792L17.901 15.8243C17.8934 15.8504 17.8778 15.8921 17.8457 15.9466C17.7709 16.0729 17.6126 16.2176 17.5968 16.2269C17.5847 16.2325 17.4354 16.2716 17.3238 16.2624C17.2789 16.2586 17.2586 16.2482 17.2401 16.2406C17.2296 16.2165 17.224 16.1917 17.2097 16.1685L15.9443 14.1281H15.9441C15.857 13.9888 15.7015 13.9071 15.5372 13.9147C15.4602 13.9185 15.3854 13.9419 15.3198 13.9828C15.1077 14.1153 15.0423 14.3941 15.1733 14.6071L16.3477 16.5084C16.3338 16.5265 16.3358 16.5296 16.3153 16.5513C16.2267 16.6437 16.101 16.7316 15.9995 16.8044C15.9675 16.7756 15.9303 16.749 15.8928 16.6903H15.8885L15.8028 16.5555C15.7845 16.4973 15.7658 16.4388 15.7307 16.3818C15.6983 16.3292 15.6557 16.2836 15.6053 16.2479L14.8816 15.1164C14.7461 14.9046 14.4646 14.843 14.253 14.9783C14.1513 15.0432 14.0794 15.1459 14.0533 15.2637C14.0271 15.3816 14.049 15.505 14.114 15.6068L14.9128 16.8481C14.8865 16.8975 14.8329 16.951 14.7905 16.9892C14.7689 16.9874 14.7064 16.9955 14.6316 16.9705C14.5037 16.9276 14.3789 16.8111 14.4026 16.8481C14.3827 16.8169 14.3593 16.7881 14.3325 16.7624L13.5566 15.5629C13.4198 15.3528 13.1385 15.2928 12.928 15.429C12.7178 15.566 12.6579 15.847 12.7941 16.0575L13.5847 17.279C13.5593 17.3162 13.4965 17.3785 13.434 17.4129C13.3662 17.4504 13.2707 17.4705 13.2291 17.4682C13.2195 17.4678 13.224 17.4703 13.2218 17.4714L11.7503 14.9426V14.9428C11.6689 14.804 11.5202 14.7185 11.3593 14.7178H10.6512L10.6514 11.0972ZM13.0119 13.8988C13.0436 13.9354 13.078 13.9577 13.1124 13.9814C13.0977 13.9729 13.0789 13.9624 13.0789 13.9626L13.0119 13.8988ZM8.38092 15.2282C8.30145 15.228 8.22511 15.2582 8.16887 15.3124C8.11262 15.3666 8.08092 15.4401 8.08069 15.5169C8.08069 15.5937 8.11217 15.6675 8.16842 15.7218C8.22489 15.7762 8.30123 15.8066 8.38092 15.8064C8.46039 15.8064 8.53651 15.7758 8.59253 15.7215C8.64878 15.6671 8.68002 15.5934 8.68002 15.5169C8.67958 15.3575 8.54587 15.2282 8.38092 15.2282ZM20.9363 15.2282C20.8569 15.228 20.7808 15.2582 20.7245 15.3124C20.668 15.3666 20.6363 15.4401 20.6363 15.5169C20.6361 15.5937 20.6676 15.6675 20.7241 15.7218C20.7803 15.7762 20.8569 15.8066 20.9363 15.8064C21.0158 15.8064 21.0919 15.7758 21.1482 15.7215C21.2042 15.6671 21.2357 15.5934 21.2354 15.5169C21.2352 15.3575 21.1013 15.2282 20.9363 15.2282ZM1.908 20.5197H9.94457C9.96443 20.6061 9.99457 20.6889 10.0252 20.7706C10.0316 20.8005 10.0345 20.8322 10.0461 20.8595L10.0459 20.8597H10.0502C10.1522 21.0996 10.2993 21.3108 10.4769 21.4883V21.4925C10.6555 21.6695 10.8702 21.815 11.1095 21.915C11.2292 21.9653 11.3555 22.0041 11.4861 22.03H11.4872C11.6173 22.0559 11.7513 22.0697 11.8876 22.0697H18.0733C18.347 22.0697 18.61 22.0144 18.8483 21.915C18.9668 21.8655 19.0802 21.805 19.186 21.734C19.2936 21.6626 19.3943 21.5825 19.4852 21.4925C19.4863 21.4909 19.4874 21.4896 19.4883 21.4883C19.666 21.3108 19.8104 21.1012 19.9117 20.8639V20.8597C19.9579 20.7516 19.991 20.6367 20.0173 20.5197H28.0939C28.0829 21.0257 28.0852 21.5637 27.9591 21.9588C27.8731 22.228 27.7568 22.4267 27.6276 22.5477C27.4983 22.6684 27.362 22.7372 27.1015 22.7412H2.87575C2.76302 22.7349 2.66727 22.6921 2.54003 22.5635C2.4128 22.4349 2.27686 22.2189 2.16459 21.9465C2.00164 21.5508 1.95633 21.022 1.90722 20.5202L1.908 20.5197ZM11.0897 20.5197H18.8726C18.8315 20.5934 18.7904 20.6686 18.7304 20.7289C18.6886 20.7702 18.6433 20.8097 18.5956 20.843C18.5873 20.8488 18.577 20.8521 18.5683 20.8577C18.5266 20.8834 18.4837 20.9075 18.4375 20.9267C18.3246 20.9738 18.2038 20.9979 18.0737 20.9979H11.888C11.8232 20.9979 11.7603 20.9918 11.6998 20.98H11.6987C11.6377 20.968 11.5799 20.9496 11.525 20.9267C11.4703 20.9039 11.4176 20.876 11.3692 20.843L11.3681 20.8418C11.321 20.8097 11.2772 20.7733 11.2364 20.7331C11.173 20.6697 11.1313 20.5941 11.09 20.5197L11.0897 20.5197Z" fill="url(#paint0_linear_3954_27460)"/>
<defs>
<linearGradient id="paint0_linear_3954_27460" x1="22.9308" y1="0.230469" x2="22.8414" y2="28.8653" gradientUnits="userSpaceOnUse">
<stop stop-color="#005CAA"/>
<stop offset="1" stop-color="#64B0F1"/>
</linearGradient>
</defs>
</svg>