<svg width="38" height="38" viewBox="0 0 43 48" fill="none" xmlns="http://www.w3.org/2000/svg">
<path d="M40.0532 26.2125C38.3657 23.4375 28.2409 18.375 28.2409 18.375L23.6285 22.6875V29.625C23.6285 30.4125 23.216 31.0875 22.616 31.5C23.216 31.9125 23.591 32.5875 23.591 33.3375C23.591 34.5751 22.5786 35.55 21.3786 35.55C20.141 35.55 19.1661 34.5375 19.1661 33.3375C19.1661 32.5875 19.5411 31.9125 20.1411 31.5C19.5411 31.0875 19.1287 30.4125 19.1287 29.625V22.65L14.5162 18.375C14.5162 18.375 4.39162 23.4375 2.70391 26.2125C0.941449 29.0625 0.266363 42.1503 0.00390625 48.0003H42.7539C42.4914 42.1503 41.8539 29.0625 40.0539 26.2125H40.0532Z" fill="url(#paint0_linear_3620_16642)"/>
<path d="M40.0532 26.2125C38.3657 23.4375 28.2409 18.375 28.2409 18.375L23.6285 22.6875V29.625C23.6285 30.4125 23.216 31.0875 22.616 31.5C23.216 31.9125 23.591 32.5875 23.591 33.3375C23.591 34.5751 22.5786 35.55 21.3786 35.55C20.141 35.55 19.1661 34.5375 19.1661 33.3375C19.1661 32.5875 19.5411 31.9125 20.1411 31.5C19.5411 31.0875 19.1287 30.4125 19.1287 29.625V22.65L14.5162 18.375C14.5162 18.375 4.39162 23.4375 2.70391 26.2125C0.941449 29.0625 0.266363 42.1503 0.00390625 48.0003H42.7539C42.4914 42.1503 41.8539 29.0625 40.0539 26.2125H40.0532Z" fill="black" fill-opacity="0.2"/>
<path d="M11.6289 9.56211C11.6289 9.97461 11.9664 10.3121 12.3789 10.3121C12.7914 10.3121 13.1289 9.97461 13.1289 9.56211C13.1289 5.09966 16.729 1.49966 21.1914 1.49966C25.6539 1.49966 29.2539 5.09966 29.2539 9.56211C29.2539 13.9121 25.8414 17.4746 21.4914 17.6246H21.4539H21.3789C20.9664 17.6246 20.6289 17.9621 20.6289 18.3746V29.6246C20.6289 30.0371 20.9664 30.3746 21.3789 30.3746C21.7914 30.3746 22.1289 30.0371 22.1289 29.6246V19.0869C27.0039 18.5994 30.7535 14.5493 30.7535 9.56229C30.7535 4.27474 26.4785 0 21.1912 0C15.9039 0 11.6289 4.275 11.6289 9.56229L11.6289 9.56211Z" fill="url(#paint1_linear_3620_16642)"/>
<path d="M11.6289 9.56211C11.6289 9.97461 11.9664 10.3121 12.3789 10.3121C12.7914 10.3121 13.1289 9.97461 13.1289 9.56211C13.1289 5.09966 16.729 1.49966 21.1914 1.49966C25.6539 1.49966 29.2539 5.09966 29.2539 9.56211C29.2539 13.9121 25.8414 17.4746 21.4914 17.6246H21.4539H21.3789C20.9664 17.6246 20.6289 17.9621 20.6289 18.3746V29.6246C20.6289 30.0371 20.9664 30.3746 21.3789 30.3746C21.7914 30.3746 22.1289 30.0371 22.1289 29.6246V19.0869C27.0039 18.5994 30.7535 14.5493 30.7535 9.56229C30.7535 4.27474 26.4785 0 21.1912 0C15.9039 0 11.6289 4.275 11.6289 9.56229L11.6289 9.56211Z" fill="black" fill-opacity="0.2"/>
<path d="M22.0891 33.3375C22.0891 33.7309 21.77 34.05 21.3766 34.05C20.9832 34.05 20.6641 33.7309 20.6641 33.3375C20.6641 32.9441 20.9832 32.625 21.3766 32.625C21.77 32.625 22.0891 32.9441 22.0891 33.3375Z" fill="url(#paint2_linear_3620_16642)"/>
<path d="M22.0891 33.3375C22.0891 33.7309 21.77 34.05 21.3766 34.05C20.9832 34.05 20.6641 33.7309 20.6641 33.3375C20.6641 32.9441 20.9832 32.625 21.3766 32.625C21.77 32.625 22.0891 32.9441 22.0891 33.3375Z" fill="black" fill-opacity="0.2"/>
<defs>
<linearGradient id="paint0_linear_3620_16642" x1="21.3789" y1="18.375" x2="21.3789" y2="48.0003" gradientUnits="userSpaceOnUse">
<stop stop-color="#FF0F0F"/>
<stop offset="1" stop-color="#FF4849"/>
</linearGradient>
<linearGradient id="paint1_linear_3620_16642" x1="21.1912" y1="0" x2="21.1912" y2="30.3746" gradientUnits="userSpaceOnUse">
<stop stop-color="#FF0F0F"/>
<stop offset="1" stop-color="#FF4849"/>
</linearGradient>
<linearGradient id="paint2_linear_3620_16642" x1="21.3766" y1="32.625" x2="21.3766" y2="34.05" gradientUnits="userSpaceOnUse">
<stop stop-color="#FF0F0F"/>
<stop offset="1" stop-color="#FF4849"/>
</linearGradient>
</defs>
</svg>