<svg width="38" height="38" viewBox="0 0 32 32" fill="none" xmlns="http://www.w3.org/2000/svg">
<mask id="path-1-inside-1_3240_13742" fill="white">
<path d="M16.4528 19.1951C16.4659 19.1951 16.4791 19.194 16.4922 19.1919C17.8404 18.968 18.8193 17.8943 18.8193 16.639C18.8193 15.4076 17.8192 14.3104 16.4929 14.0865C16.4229 14.0748 16.3512 14.0943 16.2969 14.1401C16.2426 14.1859 16.2115 14.2534 16.2115 14.3244V18.9537C16.2115 19.0248 16.2426 19.092 16.2967 19.1378C16.3408 19.1749 16.3961 19.1951 16.4528 19.1951ZM16.6941 14.6268C17.6479 14.9046 18.3369 15.7276 18.3369 16.639C18.3369 17.5697 17.6613 18.3793 16.6941 18.6531V14.6268ZM13.6339 16.639C13.6339 16.2481 13.3161 15.9303 12.9252 15.9303C12.5344 15.9303 12.2165 16.2481 12.2165 16.639C12.2165 18.3345 13.5177 19.7907 15.2767 20.1054V20.8168C15.2767 21.2076 15.5946 21.5255 15.9854 21.5255C16.3762 21.5255 16.6941 21.2076 16.6941 20.8168V20.1054C18.4528 19.7907 19.7542 18.3347 19.7542 16.639C19.7542 14.9432 18.453 13.4872 16.6941 13.1725V8.99912C17.661 9.27288 18.3369 10.0825 18.3369 11.0132C18.3369 11.404 18.6547 11.7219 19.0456 11.7219C19.4364 11.7219 19.7543 11.4041 19.7543 11.0132C19.7543 9.31745 18.4531 7.86145 16.6941 7.54681V6.8354C16.6941 6.44458 16.3763 6.1267 15.9854 6.1267C15.5946 6.1267 15.2767 6.44457 15.2767 6.8354V7.54681C13.518 7.8615 12.2166 9.31745 12.2166 11.0132C12.2166 12.7088 13.5178 14.165 15.2767 14.4796V18.6531C14.3098 18.3791 13.6339 17.5695 13.6339 16.639ZM15.5477 14.0326C13.9238 13.8311 12.6992 12.533 12.6992 11.013C12.6992 9.49296 13.9238 8.19477 15.5477 7.99331C15.6686 7.97826 15.7594 7.87562 15.7594 7.7539V6.83506C15.7594 6.71037 15.8607 6.60901 15.9854 6.60901C16.1101 6.60901 16.2115 6.71037 16.2115 6.83506V7.7539C16.2115 7.87562 16.3022 7.97825 16.4231 7.99331C18.047 8.19476 19.2716 9.49274 19.2716 11.013C19.2716 11.1376 19.1703 11.239 19.0456 11.239C18.9209 11.239 18.8195 11.1376 18.8195 11.013C18.8195 9.7576 17.8409 8.68399 16.4925 8.46006C16.4227 8.4484 16.351 8.46833 16.2969 8.51413C16.2429 8.55994 16.2117 8.62737 16.2117 8.69819V13.3799C16.2117 13.5016 16.3025 13.6043 16.4233 13.6193C18.0472 13.8208 19.2719 15.1187 19.2719 16.639C19.2719 18.159 18.0472 19.4571 16.4233 19.6586C16.3025 19.6737 16.2117 19.7763 16.2117 19.898V20.8169C16.2117 20.9415 16.1103 21.0429 15.9856 21.0429C15.861 21.0429 15.7596 20.9415 15.7596 20.8169V19.898C15.7596 19.7763 15.6688 19.6737 15.548 19.6586C13.9241 19.4572 12.6994 18.159 12.6994 16.639C12.6994 16.5143 12.8008 16.4129 12.9255 16.4129C13.0502 16.4129 13.1515 16.5143 13.1515 16.639C13.1515 17.8943 14.1301 18.9679 15.4786 19.1919C15.5488 19.2035 15.62 19.1836 15.6741 19.1378C15.7282 19.092 15.7594 19.0245 15.7594 18.9537V14.2722C15.7594 14.1503 15.6686 14.0477 15.5477 14.0326ZM15.7594 8.69816C15.7594 8.62712 15.7282 8.5599 15.6741 8.5141C15.62 8.4683 15.5484 8.44857 15.4786 8.46002C14.1304 8.68395 13.1515 9.75778 13.1515 11.0129C13.1515 12.2441 14.1516 13.3415 15.4779 13.5654C15.4913 13.5678 15.5047 13.5688 15.518 13.5688C15.5746 13.5688 15.63 13.5489 15.6737 13.5118C15.728 13.466 15.7591 13.3985 15.7591 13.3275L15.7594 8.69816ZM15.2767 13.0253C14.3227 12.7475 13.6339 11.9244 13.6339 11.0132C13.6339 10.0824 14.3095 9.27283 15.2767 8.99906V13.0253ZM31.1852 3.56767C31.1852 3.4345 31.0772 3.32635 30.9438 3.32635H6.44307V0.861671C6.44307 0.761579 6.38136 0.671883 6.28784 0.636261C6.19433 0.600636 6.08872 0.626295 6.02193 0.700725L0.846765 6.48215C0.764701 6.57376 0.764701 6.71245 0.846765 6.80405L6.02215 12.5855C6.0688 12.6376 6.13454 12.6659 6.20197 12.6659C6.23081 12.6659 6.26007 12.6608 6.28806 12.6499C6.38158 12.6143 6.44328 12.5246 6.44328 12.4245V9.95986H8.21094C7.62802 11.1258 7.29953 12.4398 7.29953 13.8294C7.29953 15.5869 7.82479 17.2237 8.72578 18.5923H7.4878C7.4297 18.439 7.37668 18.2823 7.33045 18.1209C7.25772 17.8671 7.07747 17.6612 6.83616 17.556C6.59569 17.4511 6.32362 17.4591 6.08951 17.5777C5.72435 17.7628 5.53373 18.1848 5.63656 18.5813C5.63762 18.5849 5.63847 18.5887 5.63953 18.5923L4.88952 18.5925C4.75635 18.5925 4.6482 18.7005 4.6482 18.8338C4.6482 18.967 4.75614 19.0752 4.88952 19.0752H5.76553C6.17946 20.6382 6.95178 23.3972 7.46109 24.2592C7.55842 24.424 7.67929 24.5858 7.81607 24.744L1.02655 24.7438C0.893385 24.7438 0.785237 24.8517 0.785237 24.9851C0.785237 25.1183 0.893173 25.2264 1.02655 25.2264H8.28781C8.60801 25.5229 8.96106 25.8047 9.29275 26.0689C9.84049 26.5053 10.3577 26.9176 10.4856 27.211C10.6985 27.7 10.401 29.6276 10.1635 30.7277C10.1353 30.8579 10.2182 30.9864 10.3484 31.0146C10.3655 31.0184 10.3827 31.0201 10.3995 31.0201C10.5106 31.0201 10.6107 30.9427 10.6351 30.8297C10.7014 30.5229 11.2725 27.8099 10.9281 27.0185C10.7525 26.6149 10.2154 26.187 9.59366 25.6917C8.95092 25.1796 8.2223 24.599 7.87644 24.0139C7.32382 23.0786 6.37957 19.5271 6.10326 18.4605C6.05703 18.2817 6.14291 18.0915 6.30725 18.0082C6.41243 17.9548 6.53478 17.9511 6.64293 17.9984C6.75193 18.0459 6.83336 18.1392 6.86644 18.2542C7.16819 19.3064 7.72567 20.2297 8.52535 21.002C8.43502 21.1239 8.37459 21.2672 8.35317 21.4197C8.31796 21.6701 8.3854 21.9159 8.54295 22.1116C9.14221 22.8553 9.89456 23.5245 10.779 24.1007C10.8908 24.1737 11.0401 24.1418 11.1128 24.0301C11.1855 23.9183 11.1539 23.7691 11.0422 23.6963C10.2003 23.1479 9.48571 22.5131 8.91848 21.8088C8.84532 21.718 8.81415 21.6038 8.83069 21.4869C8.84765 21.3669 8.91169 21.2621 9.01093 21.1926C9.18058 21.0734 9.41108 21.0925 9.55911 21.2377C10.6143 22.2725 11.7874 23.0754 13.0457 23.6238C13.8055 23.955 14.2964 24.7033 14.2964 25.5306V30.7785C14.2964 30.9116 14.4043 31.0198 14.5377 31.0198C14.6709 31.0198 14.779 30.9118 14.779 30.7785V25.5306C14.779 25.4279 14.7727 25.3263 14.7606 25.2263H17.2096C17.1977 25.3263 17.1911 25.4279 17.1911 25.5306V30.7785C17.1911 30.9116 17.2991 31.0198 17.4325 31.0198C17.5656 31.0198 17.6738 30.9118 17.6738 30.7785V25.5306C17.6738 24.7033 18.1647 23.955 18.9245 23.6238C20.1828 23.0754 21.3559 22.2725 22.4111 21.2377C22.5591 21.0925 22.7896 21.0736 22.9592 21.1926C23.0585 21.2623 23.1225 21.3669 23.1395 21.4869C23.1558 21.6037 23.1249 21.718 23.0517 21.8088C22.4845 22.5131 21.7701 23.1479 20.928 23.6963C20.8162 23.7691 20.7846 23.9186 20.8574 24.0301C20.9301 24.1418 21.0796 24.1734 21.1911 24.1007C22.0758 23.5248 22.8282 22.8555 23.4272 22.1116C23.585 21.9157 23.6524 21.6701 23.617 21.4197C23.5954 21.2672 23.5349 21.1237 23.4446 21.0017C24.2442 20.2293 24.802 19.3062 25.1037 18.2542C25.1368 18.1392 25.2182 18.0462 25.3272 17.9984C25.4353 17.9514 25.5577 17.955 25.6629 18.0082C25.8274 18.0915 25.9131 18.2817 25.8671 18.4605C25.5908 19.5267 24.6465 23.0784 24.0939 24.0139C23.7482 24.599 23.0196 25.1796 22.3767 25.6917C21.7547 26.187 21.2178 26.615 21.0422 27.0185C20.6978 27.8099 21.2689 30.5229 21.3353 30.8297C21.3597 30.9427 21.4598 31.0201 21.5709 31.0201C21.5876 31.0201 21.6048 31.0185 21.622 31.0146C21.7522 30.9864 21.8349 30.8581 21.8069 30.7277C21.5694 29.6278 21.2717 27.7004 21.4848 27.211C21.6124 26.9176 22.1299 26.5053 22.6776 26.0689C23.0092 25.8047 23.3625 25.5229 23.6825 25.2264H25.5272V27.6911C25.5272 27.7912 25.5889 27.8809 25.6824 27.9165C25.7104 27.9273 25.7396 27.9324 25.7685 27.9324C25.8357 27.9324 25.9016 27.9042 25.9483 27.852L31.1237 22.0706C31.2057 21.979 31.2057 21.8403 31.1237 21.7487L25.9483 15.9673C25.8815 15.8928 25.7759 15.8672 25.6824 15.9028C25.5889 15.9384 25.5272 16.0281 25.5272 16.1282V17.4852C25.3942 17.4786 25.26 17.5019 25.1342 17.5568C24.8927 17.662 24.7127 17.8679 24.6399 18.1217C24.5937 18.2831 24.5407 18.4398 24.4826 18.5931H23.2446C24.1456 17.2243 24.6708 15.5875 24.6708 13.8298C24.6708 12.4402 24.3424 11.1261 23.7597 9.96022H24.0922C24.2253 9.96022 24.3335 9.85229 24.3335 9.71891C24.3335 9.58574 24.2255 9.47759 24.0922 9.47759H23.4995C21.9941 6.88865 19.1897 5.14429 15.9852 5.14429C12.7808 5.14429 9.97635 6.88887 8.47101 9.47781H6.2016C6.06843 9.47781 5.96028 9.58574 5.96028 9.71912V11.7939L1.35023 6.64329L5.9605 1.49272V3.56747C5.9605 3.70063 6.06843 3.80878 6.20181 3.80878L30.9436 3.80899C31.0768 3.80899 31.1849 3.70085 31.1849 3.56768L31.1852 3.56767ZM30.62 21.9097L26.0098 27.0601V24.9853C26.0098 24.8522 25.9018 24.744 25.7685 24.744H24.1543C24.2911 24.5858 24.4118 24.4242 24.5093 24.2593C25.0781 23.2966 25.975 19.9679 26.3342 18.5815C26.4241 18.2346 26.2895 17.8682 26.0098 17.6578V16.7589L30.62 21.9097ZM24.274 19.0752C23.978 19.6777 23.5758 20.2154 23.06 20.7019C22.7284 20.5649 22.3386 20.6332 22.0734 20.8936C21.0604 21.887 19.9361 22.657 18.732 23.1818C18.0458 23.4808 17.5379 24.0565 17.3157 24.744H14.6548C14.4326 24.0565 13.9247 23.4808 13.2385 23.1818C12.0342 22.657 10.9101 21.8872 9.89718 20.8936C9.6319 20.6334 9.24216 20.5651 8.91048 20.7019C8.39455 20.2154 7.99229 19.6777 7.69627 19.0752H9.0672C10.6548 21.1639 13.1651 22.5153 15.9854 22.5153C18.8055 22.5153 21.3157 21.1639 22.9035 19.0752H24.274ZM15.9852 5.62645C20.5082 5.62645 24.1883 9.30643 24.1883 13.8296C24.1883 18.3527 20.5083 22.0327 15.9852 22.0327C11.462 22.0327 7.78204 18.3527 7.78204 13.8296C7.78204 9.30648 11.462 5.62645 15.9852 5.62645ZM0.785156 18.8342C0.785156 18.701 0.893092 18.5929 1.02647 18.5929H1.74598C1.87914 18.5929 1.98729 18.7008 1.98729 18.8342C1.98729 18.9673 1.87936 19.0755 1.74598 19.0755L1.02647 19.0753C0.893304 19.0753 0.785156 18.9673 0.785156 18.8342ZM2.73521 19.0753C2.60204 19.0753 2.49389 18.9673 2.49389 18.834C2.49389 18.7008 2.60183 18.5926 2.73521 18.5926H3.90126C4.03443 18.5926 4.14258 18.7006 4.14258 18.834C4.14258 18.9671 4.03464 19.0753 3.90126 19.0753H2.73521ZM30.9513 9.71913C30.9513 9.8523 30.8434 9.96045 30.71 9.96045H29.522C29.3889 9.96045 29.2807 9.85251 29.2807 9.71913C29.2807 9.58596 29.3887 9.47781 29.522 9.47781H30.71C30.8431 9.47781 30.9513 9.58575 30.9513 9.71913ZM28.504 9.47781C28.6372 9.47781 28.7453 9.58575 28.7453 9.71913C28.7453 9.8523 28.6374 9.96045 28.504 9.96045H27.316C27.1829 9.96045 27.0747 9.85251 27.0747 9.71913C27.0747 9.58596 27.1827 9.47781 27.316 9.47781H28.504ZM26.298 9.47781C26.4311 9.47781 26.5393 9.58575 26.5393 9.71913C26.5393 9.8523 26.4314 9.96045 26.298 9.96045H25.11C24.9769 9.96045 24.8687 9.85251 24.8687 9.71913C24.8687 9.58596 24.9767 9.47781 25.11 9.47781H26.298Z"/>
</mask>
<path d="M16.4528 19.1951C16.4659 19.1951 16.4791 19.194 16.4922 19.1919C17.8404 18.968 18.8193 17.8943 18.8193 16.639C18.8193 15.4076 17.8192 14.3104 16.4929 14.0865C16.4229 14.0748 16.3512 14.0943 16.2969 14.1401C16.2426 14.1859 16.2115 14.2534 16.2115 14.3244V18.9537C16.2115 19.0248 16.2426 19.092 16.2967 19.1378C16.3408 19.1749 16.3961 19.1951 16.4528 19.1951ZM16.6941 14.6268C17.6479 14.9046 18.3369 15.7276 18.3369 16.639C18.3369 17.5697 17.6613 18.3793 16.6941 18.6531V14.6268ZM13.6339 16.639C13.6339 16.2481 13.3161 15.9303 12.9252 15.9303C12.5344 15.9303 12.2165 16.2481 12.2165 16.639C12.2165 18.3345 13.5177 19.7907 15.2767 20.1054V20.8168C15.2767 21.2076 15.5946 21.5255 15.9854 21.5255C16.3762 21.5255 16.6941 21.2076 16.6941 20.8168V20.1054C18.4528 19.7907 19.7542 18.3347 19.7542 16.639C19.7542 14.9432 18.453 13.4872 16.6941 13.1725V8.99912C17.661 9.27288 18.3369 10.0825 18.3369 11.0132C18.3369 11.404 18.6547 11.7219 19.0456 11.7219C19.4364 11.7219 19.7543 11.4041 19.7543 11.0132C19.7543 9.31745 18.4531 7.86145 16.6941 7.54681V6.8354C16.6941 6.44458 16.3763 6.1267 15.9854 6.1267C15.5946 6.1267 15.2767 6.44457 15.2767 6.8354V7.54681C13.518 7.8615 12.2166 9.31745 12.2166 11.0132C12.2166 12.7088 13.5178 14.165 15.2767 14.4796V18.6531C14.3098 18.3791 13.6339 17.5695 13.6339 16.639ZM15.5477 14.0326C13.9238 13.8311 12.6992 12.533 12.6992 11.013C12.6992 9.49296 13.9238 8.19477 15.5477 7.99331C15.6686 7.97826 15.7594 7.87562 15.7594 7.7539V6.83506C15.7594 6.71037 15.8607 6.60901 15.9854 6.60901C16.1101 6.60901 16.2115 6.71037 16.2115 6.83506V7.7539C16.2115 7.87562 16.3022 7.97825 16.4231 7.99331C18.047 8.19476 19.2716 9.49274 19.2716 11.013C19.2716 11.1376 19.1703 11.239 19.0456 11.239C18.9209 11.239 18.8195 11.1376 18.8195 11.013C18.8195 9.7576 17.8409 8.68399 16.4925 8.46006C16.4227 8.4484 16.351 8.46833 16.2969 8.51413C16.2429 8.55994 16.2117 8.62737 16.2117 8.69819V13.3799C16.2117 13.5016 16.3025 13.6043 16.4233 13.6193C18.0472 13.8208 19.2719 15.1187 19.2719 16.639C19.2719 18.159 18.0472 19.4571 16.4233 19.6586C16.3025 19.6737 16.2117 19.7763 16.2117 19.898V20.8169C16.2117 20.9415 16.1103 21.0429 15.9856 21.0429C15.861 21.0429 15.7596 20.9415 15.7596 20.8169V19.898C15.7596 19.7763 15.6688 19.6737 15.548 19.6586C13.9241 19.4572 12.6994 18.159 12.6994 16.639C12.6994 16.5143 12.8008 16.4129 12.9255 16.4129C13.0502 16.4129 13.1515 16.5143 13.1515 16.639C13.1515 17.8943 14.1301 18.9679 15.4786 19.1919C15.5488 19.2035 15.62 19.1836 15.6741 19.1378C15.7282 19.092 15.7594 19.0245 15.7594 18.9537V14.2722C15.7594 14.1503 15.6686 14.0477 15.5477 14.0326ZM15.7594 8.69816C15.7594 8.62712 15.7282 8.5599 15.6741 8.5141C15.62 8.4683 15.5484 8.44857 15.4786 8.46002C14.1304 8.68395 13.1515 9.75778 13.1515 11.0129C13.1515 12.2441 14.1516 13.3415 15.4779 13.5654C15.4913 13.5678 15.5047 13.5688 15.518 13.5688C15.5746 13.5688 15.63 13.5489 15.6737 13.5118C15.728 13.466 15.7591 13.3985 15.7591 13.3275L15.7594 8.69816ZM15.2767 13.0253C14.3227 12.7475 13.6339 11.9244 13.6339 11.0132C13.6339 10.0824 14.3095 9.27283 15.2767 8.99906V13.0253ZM31.1852 3.56767C31.1852 3.4345 31.0772 3.32635 30.9438 3.32635H6.44307V0.861671C6.44307 0.761579 6.38136 0.671883 6.28784 0.636261C6.19433 0.600636 6.08872 0.626295 6.02193 0.700725L0.846765 6.48215C0.764701 6.57376 0.764701 6.71245 0.846765 6.80405L6.02215 12.5855C6.0688 12.6376 6.13454 12.6659 6.20197 12.6659C6.23081 12.6659 6.26007 12.6608 6.28806 12.6499C6.38158 12.6143 6.44328 12.5246 6.44328 12.4245V9.95986H8.21094C7.62802 11.1258 7.29953 12.4398 7.29953 13.8294C7.29953 15.5869 7.82479 17.2237 8.72578 18.5923H7.4878C7.4297 18.439 7.37668 18.2823 7.33045 18.1209C7.25772 17.8671 7.07747 17.6612 6.83616 17.556C6.59569 17.4511 6.32362 17.4591 6.08951 17.5777C5.72435 17.7628 5.53373 18.1848 5.63656 18.5813C5.63762 18.5849 5.63847 18.5887 5.63953 18.5923L4.88952 18.5925C4.75635 18.5925 4.6482 18.7005 4.6482 18.8338C4.6482 18.967 4.75614 19.0752 4.88952 19.0752H5.76553C6.17946 20.6382 6.95178 23.3972 7.46109 24.2592C7.55842 24.424 7.67929 24.5858 7.81607 24.744L1.02655 24.7438C0.893385 24.7438 0.785237 24.8517 0.785237 24.9851C0.785237 25.1183 0.893173 25.2264 1.02655 25.2264H8.28781C8.60801 25.5229 8.96106 25.8047 9.29275 26.0689C9.84049 26.5053 10.3577 26.9176 10.4856 27.211C10.6985 27.7 10.401 29.6276 10.1635 30.7277C10.1353 30.8579 10.2182 30.9864 10.3484 31.0146C10.3655 31.0184 10.3827 31.0201 10.3995 31.0201C10.5106 31.0201 10.6107 30.9427 10.6351 30.8297C10.7014 30.5229 11.2725 27.8099 10.9281 27.0185C10.7525 26.6149 10.2154 26.187 9.59366 25.6917C8.95092 25.1796 8.2223 24.599 7.87644 24.0139C7.32382 23.0786 6.37957 19.5271 6.10326 18.4605C6.05703 18.2817 6.14291 18.0915 6.30725 18.0082C6.41243 17.9548 6.53478 17.9511 6.64293 17.9984C6.75193 18.0459 6.83336 18.1392 6.86644 18.2542C7.16819 19.3064 7.72567 20.2297 8.52535 21.002C8.43502 21.1239 8.37459 21.2672 8.35317 21.4197C8.31796 21.6701 8.3854 21.9159 8.54295 22.1116C9.14221 22.8553 9.89456 23.5245 10.779 24.1007C10.8908 24.1737 11.0401 24.1418 11.1128 24.0301C11.1855 23.9183 11.1539 23.7691 11.0422 23.6963C10.2003 23.1479 9.48571 22.5131 8.91848 21.8088C8.84532 21.718 8.81415 21.6038 8.83069 21.4869C8.84765 21.3669 8.91169 21.2621 9.01093 21.1926C9.18058 21.0734 9.41108 21.0925 9.55911 21.2377C10.6143 22.2725 11.7874 23.0754 13.0457 23.6238C13.8055 23.955 14.2964 24.7033 14.2964 25.5306V30.7785C14.2964 30.9116 14.4043 31.0198 14.5377 31.0198C14.6709 31.0198 14.779 30.9118 14.779 30.7785V25.5306C14.779 25.4279 14.7727 25.3263 14.7606 25.2263H17.2096C17.1977 25.3263 17.1911 25.4279 17.1911 25.5306V30.7785C17.1911 30.9116 17.2991 31.0198 17.4325 31.0198C17.5656 31.0198 17.6738 30.9118 17.6738 30.7785V25.5306C17.6738 24.7033 18.1647 23.955 18.9245 23.6238C20.1828 23.0754 21.3559 22.2725 22.4111 21.2377C22.5591 21.0925 22.7896 21.0736 22.9592 21.1926C23.0585 21.2623 23.1225 21.3669 23.1395 21.4869C23.1558 21.6037 23.1249 21.718 23.0517 21.8088C22.4845 22.5131 21.7701 23.1479 20.928 23.6963C20.8162 23.7691 20.7846 23.9186 20.8574 24.0301C20.9301 24.1418 21.0796 24.1734 21.1911 24.1007C22.0758 23.5248 22.8282 22.8555 23.4272 22.1116C23.585 21.9157 23.6524 21.6701 23.617 21.4197C23.5954 21.2672 23.5349 21.1237 23.4446 21.0017C24.2442 20.2293 24.802 19.3062 25.1037 18.2542C25.1368 18.1392 25.2182 18.0462 25.3272 17.9984C25.4353 17.9514 25.5577 17.955 25.6629 18.0082C25.8274 18.0915 25.9131 18.2817 25.8671 18.4605C25.5908 19.5267 24.6465 23.0784 24.0939 24.0139C23.7482 24.599 23.0196 25.1796 22.3767 25.6917C21.7547 26.187 21.2178 26.615 21.0422 27.0185C20.6978 27.8099 21.2689 30.5229 21.3353 30.8297C21.3597 30.9427 21.4598 31.0201 21.5709 31.0201C21.5876 31.0201 21.6048 31.0185 21.622 31.0146C21.7522 30.9864 21.8349 30.8581 21.8069 30.7277C21.5694 29.6278 21.2717 27.7004 21.4848 27.211C21.6124 26.9176 22.1299 26.5053 22.6776 26.0689C23.0092 25.8047 23.3625 25.5229 23.6825 25.2264H25.5272V27.6911C25.5272 27.7912 25.5889 27.8809 25.6824 27.9165C25.7104 27.9273 25.7396 27.9324 25.7685 27.9324C25.8357 27.9324 25.9016 27.9042 25.9483 27.852L31.1237 22.0706C31.2057 21.979 31.2057 21.8403 31.1237 21.7487L25.9483 15.9673C25.8815 15.8928 25.7759 15.8672 25.6824 15.9028C25.5889 15.9384 25.5272 16.0281 25.5272 16.1282V17.4852C25.3942 17.4786 25.26 17.5019 25.1342 17.5568C24.8927 17.662 24.7127 17.8679 24.6399 18.1217C24.5937 18.2831 24.5407 18.4398 24.4826 18.5931H23.2446C24.1456 17.2243 24.6708 15.5875 24.6708 13.8298C24.6708 12.4402 24.3424 11.1261 23.7597 9.96022H24.0922C24.2253 9.96022 24.3335 9.85229 24.3335 9.71891C24.3335 9.58574 24.2255 9.47759 24.0922 9.47759H23.4995C21.9941 6.88865 19.1897 5.14429 15.9852 5.14429C12.7808 5.14429 9.97635 6.88887 8.47101 9.47781H6.2016C6.06843 9.47781 5.96028 9.58574 5.96028 9.71912V11.7939L1.35023 6.64329L5.9605 1.49272V3.56747C5.9605 3.70063 6.06843 3.80878 6.20181 3.80878L30.9436 3.80899C31.0768 3.80899 31.1849 3.70085 31.1849 3.56768L31.1852 3.56767ZM30.62 21.9097L26.0098 27.0601V24.9853C26.0098 24.8522 25.9018 24.744 25.7685 24.744H24.1543C24.2911 24.5858 24.4118 24.4242 24.5093 24.2593C25.0781 23.2966 25.975 19.9679 26.3342 18.5815C26.4241 18.2346 26.2895 17.8682 26.0098 17.6578V16.7589L30.62 21.9097ZM24.274 19.0752C23.978 19.6777 23.5758 20.2154 23.06 20.7019C22.7284 20.5649 22.3386 20.6332 22.0734 20.8936C21.0604 21.887 19.9361 22.657 18.732 23.1818C18.0458 23.4808 17.5379 24.0565 17.3157 24.744H14.6548C14.4326 24.0565 13.9247 23.4808 13.2385 23.1818C12.0342 22.657 10.9101 21.8872 9.89718 20.8936C9.6319 20.6334 9.24216 20.5651 8.91048 20.7019C8.39455 20.2154 7.99229 19.6777 7.69627 19.0752H9.0672C10.6548 21.1639 13.1651 22.5153 15.9854 22.5153C18.8055 22.5153 21.3157 21.1639 22.9035 19.0752H24.274ZM15.9852 5.62645C20.5082 5.62645 24.1883 9.30643 24.1883 13.8296C24.1883 18.3527 20.5083 22.0327 15.9852 22.0327C11.462 22.0327 7.78204 18.3527 7.78204 13.8296C7.78204 9.30648 11.462 5.62645 15.9852 5.62645ZM0.785156 18.8342C0.785156 18.701 0.893092 18.5929 1.02647 18.5929H1.74598C1.87914 18.5929 1.98729 18.7008 1.98729 18.8342C1.98729 18.9673 1.87936 19.0755 1.74598 19.0755L1.02647 19.0753C0.893304 19.0753 0.785156 18.9673 0.785156 18.8342ZM2.73521 19.0753C2.60204 19.0753 2.49389 18.9673 2.49389 18.834C2.49389 18.7008 2.60183 18.5926 2.73521 18.5926H3.90126C4.03443 18.5926 4.14258 18.7006 4.14258 18.834C4.14258 18.9671 4.03464 19.0753 3.90126 19.0753H2.73521ZM30.9513 9.71913C30.9513 9.8523 30.8434 9.96045 30.71 9.96045H29.522C29.3889 9.96045 29.2807 9.85251 29.2807 9.71913C29.2807 9.58596 29.3887 9.47781 29.522 9.47781H30.71C30.8431 9.47781 30.9513 9.58575 30.9513 9.71913ZM28.504 9.47781C28.6372 9.47781 28.7453 9.58575 28.7453 9.71913C28.7453 9.8523 28.6374 9.96045 28.504 9.96045H27.316C27.1829 9.96045 27.0747 9.85251 27.0747 9.71913C27.0747 9.58596 27.1827 9.47781 27.316 9.47781H28.504ZM26.298 9.47781C26.4311 9.47781 26.5393 9.58575 26.5393 9.71913C26.5393 9.8523 26.4314 9.96045 26.298 9.96045H25.11C24.9769 9.96045 24.8687 9.85251 24.8687 9.71913C24.8687 9.58596 24.9767 9.47781 25.11 9.47781H26.298Z" stroke="url(#paint0_linear_3240_13742)" stroke-width="712" mask="url(#path-1-inside-1_3240_13742)"/>
<path d="M16.4528 19.1951C16.4659 19.1951 16.4791 19.194 16.4922 19.1919C17.8404 18.968 18.8193 17.8943 18.8193 16.639C18.8193 15.4076 17.8192 14.3104 16.4929 14.0865C16.4229 14.0748 16.3512 14.0943 16.2969 14.1401C16.2426 14.1859 16.2115 14.2534 16.2115 14.3244V18.9537C16.2115 19.0248 16.2426 19.092 16.2967 19.1378C16.3408 19.1749 16.3961 19.1951 16.4528 19.1951ZM16.6941 14.6268C17.6479 14.9046 18.3369 15.7276 18.3369 16.639C18.3369 17.5697 17.6613 18.3793 16.6941 18.6531V14.6268ZM13.6339 16.639C13.6339 16.2481 13.3161 15.9303 12.9252 15.9303C12.5344 15.9303 12.2165 16.2481 12.2165 16.639C12.2165 18.3345 13.5177 19.7907 15.2767 20.1054V20.8168C15.2767 21.2076 15.5946 21.5255 15.9854 21.5255C16.3762 21.5255 16.6941 21.2076 16.6941 20.8168V20.1054C18.4528 19.7907 19.7542 18.3347 19.7542 16.639C19.7542 14.9432 18.453 13.4872 16.6941 13.1725V8.99912C17.661 9.27288 18.3369 10.0825 18.3369 11.0132C18.3369 11.404 18.6547 11.7219 19.0456 11.7219C19.4364 11.7219 19.7543 11.4041 19.7543 11.0132C19.7543 9.31745 18.4531 7.86145 16.6941 7.54681V6.8354C16.6941 6.44458 16.3763 6.1267 15.9854 6.1267C15.5946 6.1267 15.2767 6.44457 15.2767 6.8354V7.54681C13.518 7.8615 12.2166 9.31745 12.2166 11.0132C12.2166 12.7088 13.5178 14.165 15.2767 14.4796V18.6531C14.3098 18.3791 13.6339 17.5695 13.6339 16.639ZM15.5477 14.0326C13.9238 13.8311 12.6992 12.533 12.6992 11.013C12.6992 9.49296 13.9238 8.19477 15.5477 7.99331C15.6686 7.97826 15.7594 7.87562 15.7594 7.7539V6.83506C15.7594 6.71037 15.8607 6.60901 15.9854 6.60901C16.1101 6.60901 16.2115 6.71037 16.2115 6.83506V7.7539C16.2115 7.87562 16.3022 7.97825 16.4231 7.99331C18.047 8.19476 19.2716 9.49274 19.2716 11.013C19.2716 11.1376 19.1703 11.239 19.0456 11.239C18.9209 11.239 18.8195 11.1376 18.8195 11.013C18.8195 9.7576 17.8409 8.68399 16.4925 8.46006C16.4227 8.4484 16.351 8.46833 16.2969 8.51413C16.2429 8.55994 16.2117 8.62737 16.2117 8.69819V13.3799C16.2117 13.5016 16.3025 13.6043 16.4233 13.6193C18.0472 13.8208 19.2719 15.1187 19.2719 16.639C19.2719 18.159 18.0472 19.4571 16.4233 19.6586C16.3025 19.6737 16.2117 19.7763 16.2117 19.898V20.8169C16.2117 20.9415 16.1103 21.0429 15.9856 21.0429C15.861 21.0429 15.7596 20.9415 15.7596 20.8169V19.898C15.7596 19.7763 15.6688 19.6737 15.548 19.6586C13.9241 19.4572 12.6994 18.159 12.6994 16.639C12.6994 16.5143 12.8008 16.4129 12.9255 16.4129C13.0502 16.4129 13.1515 16.5143 13.1515 16.639C13.1515 17.8943 14.1301 18.9679 15.4786 19.1919C15.5488 19.2035 15.62 19.1836 15.6741 19.1378C15.7282 19.092 15.7594 19.0245 15.7594 18.9537V14.2722C15.7594 14.1503 15.6686 14.0477 15.5477 14.0326ZM15.7594 8.69816C15.7594 8.62712 15.7282 8.5599 15.6741 8.5141C15.62 8.4683 15.5484 8.44857 15.4786 8.46002C14.1304 8.68395 13.1515 9.75778 13.1515 11.0129C13.1515 12.2441 14.1516 13.3415 15.4779 13.5654C15.4913 13.5678 15.5047 13.5688 15.518 13.5688C15.5746 13.5688 15.63 13.5489 15.6737 13.5118C15.728 13.466 15.7591 13.3985 15.7591 13.3275L15.7594 8.69816ZM15.2767 13.0253C14.3227 12.7475 13.6339 11.9244 13.6339 11.0132C13.6339 10.0824 14.3095 9.27283 15.2767 8.99906V13.0253ZM31.1852 3.56767C31.1852 3.4345 31.0772 3.32635 30.9438 3.32635H6.44307V0.861671C6.44307 0.761579 6.38136 0.671883 6.28784 0.636261C6.19433 0.600636 6.08872 0.626295 6.02193 0.700725L0.846765 6.48215C0.764701 6.57376 0.764701 6.71245 0.846765 6.80405L6.02215 12.5855C6.0688 12.6376 6.13454 12.6659 6.20197 12.6659C6.23081 12.6659 6.26007 12.6608 6.28806 12.6499C6.38158 12.6143 6.44328 12.5246 6.44328 12.4245V9.95986H8.21094C7.62802 11.1258 7.29953 12.4398 7.29953 13.8294C7.29953 15.5869 7.82479 17.2237 8.72578 18.5923H7.4878C7.4297 18.439 7.37668 18.2823 7.33045 18.1209C7.25772 17.8671 7.07747 17.6612 6.83616 17.556C6.59569 17.4511 6.32362 17.4591 6.08951 17.5777C5.72435 17.7628 5.53373 18.1848 5.63656 18.5813C5.63762 18.5849 5.63847 18.5887 5.63953 18.5923L4.88952 18.5925C4.75635 18.5925 4.6482 18.7005 4.6482 18.8338C4.6482 18.967 4.75614 19.0752 4.88952 19.0752H5.76553C6.17946 20.6382 6.95178 23.3972 7.46109 24.2592C7.55842 24.424 7.67929 24.5858 7.81607 24.744L1.02655 24.7438C0.893385 24.7438 0.785237 24.8517 0.785237 24.9851C0.785237 25.1183 0.893173 25.2264 1.02655 25.2264H8.28781C8.60801 25.5229 8.96106 25.8047 9.29275 26.0689C9.84049 26.5053 10.3577 26.9176 10.4856 27.211C10.6985 27.7 10.401 29.6276 10.1635 30.7277C10.1353 30.8579 10.2182 30.9864 10.3484 31.0146C10.3655 31.0184 10.3827 31.0201 10.3995 31.0201C10.5106 31.0201 10.6107 30.9427 10.6351 30.8297C10.7014 30.5229 11.2725 27.8099 10.9281 27.0185C10.7525 26.6149 10.2154 26.187 9.59366 25.6917C8.95092 25.1796 8.2223 24.599 7.87644 24.0139C7.32382 23.0786 6.37957 19.5271 6.10326 18.4605C6.05703 18.2817 6.14291 18.0915 6.30725 18.0082C6.41243 17.9548 6.53478 17.9511 6.64293 17.9984C6.75193 18.0459 6.83336 18.1392 6.86644 18.2542C7.16819 19.3064 7.72567 20.2297 8.52535 21.002C8.43502 21.1239 8.37459 21.2672 8.35317 21.4197C8.31796 21.6701 8.3854 21.9159 8.54295 22.1116C9.14221 22.8553 9.89456 23.5245 10.779 24.1007C10.8908 24.1737 11.0401 24.1418 11.1128 24.0301C11.1855 23.9183 11.1539 23.7691 11.0422 23.6963C10.2003 23.1479 9.48571 22.5131 8.91848 21.8088C8.84532 21.718 8.81415 21.6038 8.83069 21.4869C8.84765 21.3669 8.91169 21.2621 9.01093 21.1926C9.18058 21.0734 9.41108 21.0925 9.55911 21.2377C10.6143 22.2725 11.7874 23.0754 13.0457 23.6238C13.8055 23.955 14.2964 24.7033 14.2964 25.5306V30.7785C14.2964 30.9116 14.4043 31.0198 14.5377 31.0198C14.6709 31.0198 14.779 30.9118 14.779 30.7785V25.5306C14.779 25.4279 14.7727 25.3263 14.7606 25.2263H17.2096C17.1977 25.3263 17.1911 25.4279 17.1911 25.5306V30.7785C17.1911 30.9116 17.2991 31.0198 17.4325 31.0198C17.5656 31.0198 17.6738 30.9118 17.6738 30.7785V25.5306C17.6738 24.7033 18.1647 23.955 18.9245 23.6238C20.1828 23.0754 21.3559 22.2725 22.4111 21.2377C22.5591 21.0925 22.7896 21.0736 22.9592 21.1926C23.0585 21.2623 23.1225 21.3669 23.1395 21.4869C23.1558 21.6037 23.1249 21.718 23.0517 21.8088C22.4845 22.5131 21.7701 23.1479 20.928 23.6963C20.8162 23.7691 20.7846 23.9186 20.8574 24.0301C20.9301 24.1418 21.0796 24.1734 21.1911 24.1007C22.0758 23.5248 22.8282 22.8555 23.4272 22.1116C23.585 21.9157 23.6524 21.6701 23.617 21.4197C23.5954 21.2672 23.5349 21.1237 23.4446 21.0017C24.2442 20.2293 24.802 19.3062 25.1037 18.2542C25.1368 18.1392 25.2182 18.0462 25.3272 17.9984C25.4353 17.9514 25.5577 17.955 25.6629 18.0082C25.8274 18.0915 25.9131 18.2817 25.8671 18.4605C25.5908 19.5267 24.6465 23.0784 24.0939 24.0139C23.7482 24.599 23.0196 25.1796 22.3767 25.6917C21.7547 26.187 21.2178 26.615 21.0422 27.0185C20.6978 27.8099 21.2689 30.5229 21.3353 30.8297C21.3597 30.9427 21.4598 31.0201 21.5709 31.0201C21.5876 31.0201 21.6048 31.0185 21.622 31.0146C21.7522 30.9864 21.8349 30.8581 21.8069 30.7277C21.5694 29.6278 21.2717 27.7004 21.4848 27.211C21.6124 26.9176 22.1299 26.5053 22.6776 26.0689C23.0092 25.8047 23.3625 25.5229 23.6825 25.2264H25.5272V27.6911C25.5272 27.7912 25.5889 27.8809 25.6824 27.9165C25.7104 27.9273 25.7396 27.9324 25.7685 27.9324C25.8357 27.9324 25.9016 27.9042 25.9483 27.852L31.1237 22.0706C31.2057 21.979 31.2057 21.8403 31.1237 21.7487L25.9483 15.9673C25.8815 15.8928 25.7759 15.8672 25.6824 15.9028C25.5889 15.9384 25.5272 16.0281 25.5272 16.1282V17.4852C25.3942 17.4786 25.26 17.5019 25.1342 17.5568C24.8927 17.662 24.7127 17.8679 24.6399 18.1217C24.5937 18.2831 24.5407 18.4398 24.4826 18.5931H23.2446C24.1456 17.2243 24.6708 15.5875 24.6708 13.8298C24.6708 12.4402 24.3424 11.1261 23.7597 9.96022H24.0922C24.2253 9.96022 24.3335 9.85229 24.3335 9.71891C24.3335 9.58574 24.2255 9.47759 24.0922 9.47759H23.4995C21.9941 6.88865 19.1897 5.14429 15.9852 5.14429C12.7808 5.14429 9.97635 6.88887 8.47101 9.47781H6.2016C6.06843 9.47781 5.96028 9.58574 5.96028 9.71912V11.7939L1.35023 6.64329L5.9605 1.49272V3.56747C5.9605 3.70063 6.06843 3.80878 6.20181 3.80878L30.9436 3.80899C31.0768 3.80899 31.1849 3.70085 31.1849 3.56768L31.1852 3.56767ZM30.62 21.9097L26.0098 27.0601V24.9853C26.0098 24.8522 25.9018 24.744 25.7685 24.744H24.1543C24.2911 24.5858 24.4118 24.4242 24.5093 24.2593C25.0781 23.2966 25.975 19.9679 26.3342 18.5815C26.4241 18.2346 26.2895 17.8682 26.0098 17.6578V16.7589L30.62 21.9097ZM24.274 19.0752C23.978 19.6777 23.5758 20.2154 23.06 20.7019C22.7284 20.5649 22.3386 20.6332 22.0734 20.8936C21.0604 21.887 19.9361 22.657 18.732 23.1818C18.0458 23.4808 17.5379 24.0565 17.3157 24.744H14.6548C14.4326 24.0565 13.9247 23.4808 13.2385 23.1818C12.0342 22.657 10.9101 21.8872 9.89718 20.8936C9.6319 20.6334 9.24216 20.5651 8.91048 20.7019C8.39455 20.2154 7.99229 19.6777 7.69627 19.0752H9.0672C10.6548 21.1639 13.1651 22.5153 15.9854 22.5153C18.8055 22.5153 21.3157 21.1639 22.9035 19.0752H24.274ZM15.9852 5.62645C20.5082 5.62645 24.1883 9.30643 24.1883 13.8296C24.1883 18.3527 20.5083 22.0327 15.9852 22.0327C11.462 22.0327 7.78204 18.3527 7.78204 13.8296C7.78204 9.30648 11.462 5.62645 15.9852 5.62645ZM0.785156 18.8342C0.785156 18.701 0.893092 18.5929 1.02647 18.5929H1.74598C1.87914 18.5929 1.98729 18.7008 1.98729 18.8342C1.98729 18.9673 1.87936 19.0755 1.74598 19.0755L1.02647 19.0753C0.893304 19.0753 0.785156 18.9673 0.785156 18.8342ZM2.73521 19.0753C2.60204 19.0753 2.49389 18.9673 2.49389 18.834C2.49389 18.7008 2.60183 18.5926 2.73521 18.5926H3.90126C4.03443 18.5926 4.14258 18.7006 4.14258 18.834C4.14258 18.9671 4.03464 19.0753 3.90126 19.0753H2.73521ZM30.9513 9.71913C30.9513 9.8523 30.8434 9.96045 30.71 9.96045H29.522C29.3889 9.96045 29.2807 9.85251 29.2807 9.71913C29.2807 9.58596 29.3887 9.47781 29.522 9.47781H30.71C30.8431 9.47781 30.9513 9.58575 30.9513 9.71913ZM28.504 9.47781C28.6372 9.47781 28.7453 9.58575 28.7453 9.71913C28.7453 9.8523 28.6374 9.96045 28.504 9.96045H27.316C27.1829 9.96045 27.0747 9.85251 27.0747 9.71913C27.0747 9.58596 27.1827 9.47781 27.316 9.47781H28.504ZM26.298 9.47781C26.4311 9.47781 26.5393 9.58575 26.5393 9.71913C26.5393 9.8523 26.4314 9.96045 26.298 9.96045H25.11C24.9769 9.96045 24.8687 9.85251 24.8687 9.71913C24.8687 9.58596 24.9767 9.47781 25.11 9.47781H26.298Z" stroke="black" stroke-opacity="0.2" stroke-width="712" mask="url(#path-1-inside-1_3240_13742)"/>
<defs>
<linearGradient id="paint0_linear_3240_13742" x1="15.9852" y1="0.620407" x2="15.9852" y2="31.0201" gradientUnits="userSpaceOnUse">
<stop stop-color="#FF0F0F"/>
<stop offset="1" stop-color="#FF4849"/>
</linearGradient>
</defs>
</svg>