<svg width="38" height="38" viewBox="0 0 28 34" fill="none"
                                xmlns="http://www.w3.org/2000/svg">
                                <path
                                    d="M24.8307 0.333984H9.83073C9.60972 0.333984 9.39775 0.421782 9.24147 0.578062C9.08519 0.734343 8.9974 0.946304 8.9974 1.16732C8.9974 1.38833 9.08519 1.60029 9.24147 1.75657C9.39775 1.91285 9.60972 2.00065 9.83073 2.00065H24.8307C25.0517 2.00065 25.2637 2.08845 25.42 2.24473C25.5763 2.40101 25.6641 2.61297 25.6641 2.83398V8.66732H2.33073V2.83398C2.33073 2.61297 2.41853 2.40101 2.57481 2.24473C2.73109 2.08845 2.94305 2.00065 3.16406 2.00065H6.4974C6.71841 2.00065 6.93037 1.91285 7.08665 1.75657C7.24293 1.60029 7.33073 1.38833 7.33073 1.16732C7.33073 0.946304 7.24293 0.734343 7.08665 0.578062C6.93037 0.421782 6.71841 0.333984 6.4974 0.333984H3.16406C2.50102 0.333984 1.86514 0.597377 1.3963 1.06622C0.927454 1.53506 0.664062 2.17094 0.664062 2.83398V24.5007C0.664062 25.1637 0.927454 25.7996 1.3963 26.2684C1.86514 26.7373 2.50102 27.0007 3.16406 27.0007H13.1641V28.6673H11.4974C11.2764 28.6673 11.0644 28.7551 10.9081 28.9114C10.7519 29.0677 10.6641 29.2796 10.6641 29.5007V30.334H1.4974C1.27638 30.334 1.06442 30.4218 0.90814 30.5781C0.75186 30.7343 0.664062 30.9463 0.664062 31.1673C0.664062 31.3883 0.75186 31.6003 0.90814 31.7566C1.06442 31.9129 1.27638 32.0007 1.4974 32.0007H10.6641V32.834C10.6641 33.055 10.7519 33.267 10.9081 33.4232C11.0644 33.5795 11.2764 33.6673 11.4974 33.6673H16.4974C16.7184 33.6673 16.9304 33.5795 17.0867 33.4232C17.2429 33.267 17.3307 33.055 17.3307 32.834V32.0007H26.4974C26.7184 32.0007 26.9304 31.9129 27.0867 31.7566C27.2429 31.6003 27.3307 31.3883 27.3307 31.1673C27.3307 30.9463 27.2429 30.7343 27.0867 30.5781C26.9304 30.4218 26.7184 30.334 26.4974 30.334H17.3307V29.5007C17.3307 29.2796 17.2429 29.0677 17.0867 28.9114C16.9304 28.7551 16.7184 28.6673 16.4974 28.6673H14.8307V27.0007H24.8307C25.4938 27.0007 26.1297 26.7373 26.5985 26.2684C27.0673 25.7996 27.3307 25.1637 27.3307 24.5007V2.83398C27.3307 2.17094 27.0673 1.53506 26.5985 1.06622C26.1297 0.597377 25.4938 0.333984 24.8307 0.333984ZM15.6641 30.334V32.0007H12.3307V30.334H15.6641ZM25.6641 10.334V17.0007H2.33073V10.334H25.6641ZM24.8307 25.334H3.16406C2.94305 25.334 2.73109 25.2462 2.57481 25.0899C2.41853 24.9336 2.33073 24.7217 2.33073 24.5007V18.6673H25.6641V24.5007C25.6641 24.7217 25.5763 24.9336 25.42 25.0899C25.2637 25.2462 25.0517 25.334 24.8307 25.334ZM21.4974 7.00065C21.1678 7.00065 20.8455 6.9029 20.5714 6.71977C20.2974 6.53663 20.0837 6.27633 19.9576 5.97179C19.8315 5.66725 19.7984 5.33214 19.8628 5.00883C19.9271 4.68553 20.0858 4.38856 20.3189 4.15547C20.552 3.92239 20.8489 3.76365 21.1722 3.69934C21.4955 3.63503 21.8307 3.66804 22.1352 3.79418C22.4397 3.92033 22.7 4.13395 22.8832 4.40803C23.0663 4.68212 23.1641 5.00435 23.1641 5.33398C23.1641 5.77601 22.9885 6.19993 22.6759 6.5125C22.3633 6.82506 21.9394 7.00065 21.4974 7.00065ZM19.8307 13.6673C19.8307 13.3377 19.9285 13.0154 20.1116 12.7414C20.2947 12.4673 20.555 12.2537 20.8596 12.1275C21.1641 12.0014 21.4992 11.9684 21.8225 12.0327C22.1459 12.097 22.4428 12.2557 22.6759 12.4888C22.909 12.7219 23.0677 13.0189 23.132 13.3422C23.1963 13.6655 23.1633 14.0006 23.0372 14.3051C22.9111 14.6097 22.6974 14.87 22.4233 15.0531C22.1493 15.2362 21.827 15.334 21.4974 15.334C21.0554 15.334 20.6314 15.1584 20.3189 14.8458C20.0063 14.5333 19.8307 14.1093 19.8307 13.6673ZM23.1641 22.0007C23.1641 22.3303 23.0663 22.6525 22.8832 22.9266C22.7 23.2007 22.4397 23.4143 22.1352 23.5404C21.8307 23.6666 21.4955 23.6996 21.1722 23.6353C20.8489 23.571 20.552 23.4122 20.3189 23.1792C20.0858 22.9461 19.9271 22.6491 19.8628 22.3258C19.7984 22.0025 19.8315 21.6674 19.9576 21.3628C20.0837 21.0583 20.2974 20.798 20.5714 20.6149C20.8455 20.4317 21.1678 20.334 21.4974 20.334C21.9394 20.334 22.3633 20.5096 22.6759 20.8221C22.9885 21.1347 23.1641 21.5586 23.1641 22.0007ZM4.83073 15.334V12.0007H6.4974V15.334H4.83073ZM10.6641 15.334H8.9974V12.0007H10.6641V15.334ZM14.8307 15.334H13.1641V12.0007H14.8307V15.334ZM4.83073 20.334H6.4974V23.6673H4.83073V20.334ZM8.9974 20.334H10.6641V23.6673H8.9974V20.334ZM13.1641 20.334H14.8307V23.6673H13.1641V20.334ZM4.83073 7.00065V3.66732H6.4974V7.00065H4.83073ZM10.6641 7.00065H8.9974V3.66732H10.6641V7.00065ZM14.8307 3.66732V7.00065H13.1641V3.66732H14.8307Z"
                                    fill="#CC1212" />
                            </svg>