<svg width="38" height="38" viewBox="0 0 30 26" fill="none" xmlns="http://www.w3.org/2000/svg">
<path d="M14.9975 3.45H17.6878C17.9501 3.45 18.1628 3.23731 18.1628 2.975C18.1628 2.71269 17.9501 2.5 17.6878 2.5H14.9975C14.7352 2.5 14.5225 2.71269 14.5225 2.975C14.5225 3.23731 14.7352 3.45 14.9975 3.45Z" fill="url(#paint0_linear_3819_28341)"/>
<path d="M14.9975 3.45H17.6878C17.9501 3.45 18.1628 3.23731 18.1628 2.975C18.1628 2.71269 17.9501 2.5 17.6878 2.5H14.9975C14.7352 2.5 14.5225 2.71269 14.5225 2.975C14.5225 3.23731 14.7352 3.45 14.9975 3.45Z" fill="black" fill-opacity="0.2"/>
<path d="M14.9975 5.27031H20.4241C20.6864 5.27031 20.8991 5.05762 20.8991 4.79531C20.8991 4.533 20.6864 4.32031 20.4241 4.32031H14.9975C14.7352 4.32031 14.5225 4.533 14.5225 4.79531C14.5225 5.05783 14.7352 5.27031 14.9975 5.27031Z" fill="url(#paint1_linear_3819_28341)"/>
<path d="M14.9975 5.27031H20.4241C20.6864 5.27031 20.8991 5.05762 20.8991 4.79531C20.8991 4.533 20.6864 4.32031 20.4241 4.32031H14.9975C14.7352 4.32031 14.5225 4.533 14.5225 4.79531C14.5225 5.05783 14.7352 5.27031 14.9975 5.27031Z" fill="black" fill-opacity="0.2"/>
<path d="M14.9975 7.09063H15.6816C15.9439 7.09063 16.1566 6.87793 16.1566 6.61563C16.1566 6.35332 15.9439 6.14062 15.6816 6.14062H14.9975C14.7352 6.14062 14.5225 6.35332 14.5225 6.61563C14.5225 6.87815 14.7352 7.09063 14.9975 7.09063Z" fill="url(#paint2_linear_3819_28341)"/>
<path d="M14.9975 7.09063H15.6816C15.9439 7.09063 16.1566 6.87793 16.1566 6.61563C16.1566 6.35332 15.9439 6.14062 15.6816 6.14062H14.9975C14.7352 6.14062 14.5225 6.35332 14.5225 6.61563C14.5225 6.87815 14.7352 7.09063 14.9975 7.09063Z" fill="black" fill-opacity="0.2"/>
<path d="M18.8158 6.61563C18.8158 6.35332 18.6031 6.14062 18.3408 6.14062H17.6566C17.3943 6.14062 17.1816 6.35332 17.1816 6.61563C17.1816 6.87793 17.3943 7.09063 17.6566 7.09063H18.3408C18.6031 7.09063 18.8158 6.87815 18.8158 6.61563Z" fill="url(#paint3_linear_3819_28341)"/>
<path d="M18.8158 6.61563C18.8158 6.35332 18.6031 6.14062 18.3408 6.14062H17.6566C17.3943 6.14062 17.1816 6.35332 17.1816 6.61563C17.1816 6.87793 17.3943 7.09063 17.6566 7.09063H18.3408C18.6031 7.09063 18.8158 6.87815 18.8158 6.61563Z" fill="black" fill-opacity="0.2"/>
<path d="M18.4141 10.6794C18.4141 12.9581 20.2678 14.8119 22.5466 14.8119C24.8251 14.8119 26.6788 12.9581 26.6788 10.6794C26.6788 8.40062 24.8251 6.54688 22.5466 6.54688C20.268 6.54688 18.4141 8.40062 18.4141 10.6794ZM22.5466 7.87688C24.0918 7.87688 25.3488 9.13413 25.3488 10.6794C25.3488 12.2246 24.0918 13.4819 22.5466 13.4819C21.0013 13.4819 19.7441 12.2246 19.7441 10.6794C19.7441 9.13413 21.0013 7.87688 22.5466 7.87688Z" fill="url(#paint4_linear_3819_28341)"/>
<path d="M18.4141 10.6794C18.4141 12.9581 20.2678 14.8119 22.5466 14.8119C24.8251 14.8119 26.6788 12.9581 26.6788 10.6794C26.6788 8.40062 24.8251 6.54688 22.5466 6.54688C20.268 6.54688 18.4141 8.40062 18.4141 10.6794ZM22.5466 7.87688C24.0918 7.87688 25.3488 9.13413 25.3488 10.6794C25.3488 12.2246 24.0918 13.4819 22.5466 13.4819C21.0013 13.4819 19.7441 12.2246 19.7441 10.6794C19.7441 9.13413 21.0013 7.87688 22.5466 7.87688Z" fill="black" fill-opacity="0.2"/>
<path d="M21.5738 12.1432C21.6665 12.2358 21.7882 12.2823 21.9097 12.2823C22.0312 12.2823 22.1527 12.2358 22.2456 12.1432L24.5156 9.87315C24.7012 9.6876 24.7012 9.38691 24.5156 9.20158C24.3301 9.01625 24.0294 9.01603 23.844 9.20158L21.9099 11.1357L21.2491 10.475C21.0636 10.2894 20.7629 10.2894 20.5776 10.475C20.3922 10.6605 20.392 10.9612 20.5776 11.1465L21.5738 12.1432Z" fill="url(#paint5_linear_3819_28341)"/>
<path d="M21.5738 12.1432C21.6665 12.2358 21.7882 12.2823 21.9097 12.2823C22.0312 12.2823 22.1527 12.2358 22.2456 12.1432L24.5156 9.87315C24.7012 9.6876 24.7012 9.38691 24.5156 9.20158C24.3301 9.01625 24.0294 9.01603 23.844 9.20158L21.9099 11.1357L21.2491 10.475C21.0636 10.2894 20.7629 10.2894 20.5776 10.475C20.3922 10.6605 20.392 10.9612 20.5776 11.1465L21.5738 12.1432Z" fill="black" fill-opacity="0.2"/>
<path d="M3.75077 6.93889L4.37826 9.08741C4.11935 9.40379 4.00653 9.8118 4.07715 10.2213L4.21562 11.0224C4.29514 11.4828 4.62 11.8587 5.05026 12.0214L5.28267 12.7016C5.46864 13.246 5.84947 13.7072 6.35546 13.9998L7.14407 14.4564C7.53998 14.6856 7.99272 14.8067 8.4535 14.8067H8.64986C9.11044 14.8067 9.56316 14.6854 9.95885 14.4564L10.7479 13.9998C11.2536 13.7068 11.6349 13.246 11.8207 12.7016L12.0529 12.0216C12.4829 11.8594 12.8082 11.483 12.8877 11.0222L13.026 10.2213C13.0977 9.80671 12.9813 9.39277 12.7151 9.07492L13.3392 6.93889C13.4847 6.44099 13.4219 5.91805 13.1617 5.46682C12.9333 5.07049 12.565 4.76534 12.132 4.60737C11.8915 3.40798 10.8045 2.5 9.50356 2.5C8.93655 2.5 8.38457 2.61302 7.86289 2.83589C7.13128 3.14846 5.75019 3.56175 4.7211 2.81638C4.54022 2.68576 4.3059 2.65416 4.09768 2.73241C3.88881 2.81066 3.73316 2.98836 3.68312 3.20572C3.52578 3.88749 3.49524 4.72447 3.90578 5.50928C3.66764 5.94653 3.60912 6.45461 3.75076 6.93894L3.75077 6.93889ZM5.40861 6.94779L5.2449 7.3102L5.08183 6.7523C5.18425 6.81952 5.29304 6.8846 5.40861 6.94779ZM11.5803 10.7775L11.5157 10.7839C11.2364 10.8135 10.9966 11.0035 10.9035 11.2714L10.5621 12.2716C10.48 12.5119 10.3095 12.7165 10.0818 12.8484L9.29274 13.305C9.09913 13.4174 8.87712 13.4763 8.65 13.4763H8.45363C8.22674 13.4763 8.00429 13.4169 7.81046 13.305L7.02185 12.8484C6.7941 12.7167 6.6234 12.5117 6.54154 12.2716L6.19887 11.2684C6.10705 11.0036 5.86721 10.8136 5.58435 10.7835L5.52328 10.7769L5.3882 9.99485C5.38311 9.96559 5.3952 9.93547 5.42128 9.91236L5.63779 9.72279C5.79959 9.58114 5.87359 9.3782 5.86045 9.17885L6.63934 7.45506C6.64994 7.43152 6.66415 7.40968 6.68026 7.38911C7.64085 7.60371 8.82775 7.64506 9.97557 7.26336C10.1666 7.20017 10.3747 7.28478 10.4516 7.45527L11.2426 9.20599C11.2379 9.3962 11.3115 9.58684 11.4657 9.72234L11.6824 9.91255C11.7087 9.93545 11.7208 9.96556 11.7157 9.99525L11.5803 10.7775ZM8.38618 4.05909C8.74158 3.90726 9.11757 3.83007 9.50392 3.83007C10.2471 3.83007 10.8519 4.40343 10.8519 5.10812V5.12869C10.8519 5.43468 11.061 5.70145 11.3579 5.77441L11.6092 5.83633C11.7826 5.87896 11.9249 5.9835 12.0098 6.13088C12.0869 6.2649 12.1058 6.41927 12.063 6.56601L11.8454 7.31054L11.6635 6.90763C11.3821 6.28503 10.7671 5.911 10.1098 5.911C9.92612 5.911 9.7393 5.94005 9.55545 6.00134C8.32598 6.41039 6.92384 6.1941 6.07313 5.7965C5.37463 5.42074 5.00245 4.97711 4.91956 4.3893C6.23197 4.80938 7.59648 4.39646 8.38618 4.05909Z" fill="url(#paint6_linear_3819_28341)"/>
<path d="M3.75077 6.93889L4.37826 9.08741C4.11935 9.40379 4.00653 9.8118 4.07715 10.2213L4.21562 11.0224C4.29514 11.4828 4.62 11.8587 5.05026 12.0214L5.28267 12.7016C5.46864 13.246 5.84947 13.7072 6.35546 13.9998L7.14407 14.4564C7.53998 14.6856 7.99272 14.8067 8.4535 14.8067H8.64986C9.11044 14.8067 9.56316 14.6854 9.95885 14.4564L10.7479 13.9998C11.2536 13.7068 11.6349 13.246 11.8207 12.7016L12.0529 12.0216C12.4829 11.8594 12.8082 11.483 12.8877 11.0222L13.026 10.2213C13.0977 9.80671 12.9813 9.39277 12.7151 9.07492L13.3392 6.93889C13.4847 6.44099 13.4219 5.91805 13.1617 5.46682C12.9333 5.07049 12.565 4.76534 12.132 4.60737C11.8915 3.40798 10.8045 2.5 9.50356 2.5C8.93655 2.5 8.38457 2.61302 7.86289 2.83589C7.13128 3.14846 5.75019 3.56175 4.7211 2.81638C4.54022 2.68576 4.3059 2.65416 4.09768 2.73241C3.88881 2.81066 3.73316 2.98836 3.68312 3.20572C3.52578 3.88749 3.49524 4.72447 3.90578 5.50928C3.66764 5.94653 3.60912 6.45461 3.75076 6.93894L3.75077 6.93889ZM5.40861 6.94779L5.2449 7.3102L5.08183 6.7523C5.18425 6.81952 5.29304 6.8846 5.40861 6.94779ZM11.5803 10.7775L11.5157 10.7839C11.2364 10.8135 10.9966 11.0035 10.9035 11.2714L10.5621 12.2716C10.48 12.5119 10.3095 12.7165 10.0818 12.8484L9.29274 13.305C9.09913 13.4174 8.87712 13.4763 8.65 13.4763H8.45363C8.22674 13.4763 8.00429 13.4169 7.81046 13.305L7.02185 12.8484C6.7941 12.7167 6.6234 12.5117 6.54154 12.2716L6.19887 11.2684C6.10705 11.0036 5.86721 10.8136 5.58435 10.7835L5.52328 10.7769L5.3882 9.99485C5.38311 9.96559 5.3952 9.93547 5.42128 9.91236L5.63779 9.72279C5.79959 9.58114 5.87359 9.3782 5.86045 9.17885L6.63934 7.45506C6.64994 7.43152 6.66415 7.40968 6.68026 7.38911C7.64085 7.60371 8.82775 7.64506 9.97557 7.26336C10.1666 7.20017 10.3747 7.28478 10.4516 7.45527L11.2426 9.20599C11.2379 9.3962 11.3115 9.58684 11.4657 9.72234L11.6824 9.91255C11.7087 9.93545 11.7208 9.96556 11.7157 9.99525L11.5803 10.7775ZM8.38618 4.05909C8.74158 3.90726 9.11757 3.83007 9.50392 3.83007C10.2471 3.83007 10.8519 4.40343 10.8519 5.10812V5.12869C10.8519 5.43468 11.061 5.70145 11.3579 5.77441L11.6092 5.83633C11.7826 5.87896 11.9249 5.9835 12.0098 6.13088C12.0869 6.2649 12.1058 6.41927 12.063 6.56601L11.8454 7.31054L11.6635 6.90763C11.3821 6.28503 10.7671 5.911 10.1098 5.911C9.92612 5.911 9.7393 5.94005 9.55545 6.00134C8.32598 6.41039 6.92384 6.1941 6.07313 5.7965C5.37463 5.42074 5.00245 4.97711 4.91956 4.3893C6.23197 4.80938 7.59648 4.39646 8.38618 4.05909Z" fill="black" fill-opacity="0.2"/>
<path d="M27.3443 0.0234375H2.64973C1.65456 0.0234375 0.844727 0.833272 0.844727 1.82844V19.0017C0.844727 19.9969 1.65434 20.8067 2.64973 20.8067H10.6324V24.6345L8.11983 24.6343C7.75255 24.6343 7.45483 24.932 7.45483 25.2993C7.45483 25.6666 7.75255 25.9643 8.11983 25.9643H21.8742C22.2415 25.9643 22.5392 25.6666 22.5392 25.2993C22.5392 24.932 22.2415 24.6343 21.8742 24.6343H19.3219V20.8067H27.3442C28.3394 20.8067 29.1492 19.9969 29.1492 19.0017V1.82844C29.1492 0.83306 28.3394 0.0234427 27.3442 0.0234427L27.3443 0.0234375ZM2.64973 1.35344H27.3443C27.6064 1.35344 27.8193 1.56655 27.8193 1.82844V15.9568H2.17473V1.82844C2.17473 1.56655 2.38784 1.35344 2.64973 1.35344ZM17.992 24.6344H11.9624V20.8068H17.992V24.6344ZM27.3443 19.4768H2.64973C2.38784 19.4768 2.17473 19.2639 2.17473 19.0018V17.2872H27.8193V19.0018C27.8193 19.2637 27.6062 19.4768 27.3443 19.4768Z" fill="url(#paint7_linear_3819_28341)"/>
<path d="M27.3443 0.0234375H2.64973C1.65456 0.0234375 0.844727 0.833272 0.844727 1.82844V19.0017C0.844727 19.9969 1.65434 20.8067 2.64973 20.8067H10.6324V24.6345L8.11983 24.6343C7.75255 24.6343 7.45483 24.932 7.45483 25.2993C7.45483 25.6666 7.75255 25.9643 8.11983 25.9643H21.8742C22.2415 25.9643 22.5392 25.6666 22.5392 25.2993C22.5392 24.932 22.2415 24.6343 21.8742 24.6343H19.3219V20.8067H27.3442C28.3394 20.8067 29.1492 19.9969 29.1492 19.0017V1.82844C29.1492 0.83306 28.3394 0.0234427 27.3442 0.0234427L27.3443 0.0234375ZM2.64973 1.35344H27.3443C27.6064 1.35344 27.8193 1.56655 27.8193 1.82844V15.9568H2.17473V1.82844C2.17473 1.56655 2.38784 1.35344 2.64973 1.35344ZM17.992 24.6344H11.9624V20.8068H17.992V24.6344ZM27.3443 19.4768H2.64973C2.38784 19.4768 2.17473 19.2639 2.17473 19.0018V17.2872H27.8193V19.0018C27.8193 19.2637 27.6062 19.4768 27.3443 19.4768Z" fill="black" fill-opacity="0.2"/>
<defs>
<linearGradient id="paint0_linear_3819_28341" x1="16.3426" y1="2.5" x2="16.3426" y2="3.45" gradientUnits="userSpaceOnUse">
<stop stop-color="#FF0F0F"/>
<stop offset="1" stop-color="#FF4849"/>
</linearGradient>
<linearGradient id="paint1_linear_3819_28341" x1="17.7108" y1="4.32031" x2="17.7108" y2="5.27031" gradientUnits="userSpaceOnUse">
<stop stop-color="#FF0F0F"/>
<stop offset="1" stop-color="#FF4849"/>
</linearGradient>
<linearGradient id="paint2_linear_3819_28341" x1="15.3395" y1="6.14062" x2="15.3395" y2="7.09063" gradientUnits="userSpaceOnUse">
<stop stop-color="#FF0F0F"/>
<stop offset="1" stop-color="#FF4849"/>
</linearGradient>
<linearGradient id="paint3_linear_3819_28341" x1="17.9987" y1="6.14062" x2="17.9987" y2="7.09063" gradientUnits="userSpaceOnUse">
<stop stop-color="#FF0F0F"/>
<stop offset="1" stop-color="#FF4849"/>
</linearGradient>
<linearGradient id="paint4_linear_3819_28341" x1="22.5465" y1="6.54687" x2="22.5465" y2="14.8119" gradientUnits="userSpaceOnUse">
<stop stop-color="#FF0F0F"/>
<stop offset="1" stop-color="#FF4849"/>
</linearGradient>
<linearGradient id="paint5_linear_3819_28341" x1="22.5466" y1="9.0625" x2="22.5466" y2="12.2823" gradientUnits="userSpaceOnUse">
<stop stop-color="#FF0F0F"/>
<stop offset="1" stop-color="#FF4849"/>
</linearGradient>
<linearGradient id="paint6_linear_3819_28341" x1="8.49554" y1="2.5" x2="8.49554" y2="14.8067" gradientUnits="userSpaceOnUse">
<stop stop-color="#FF0F0F"/>
<stop offset="1" stop-color="#FF4849"/>
</linearGradient>
<linearGradient id="paint7_linear_3819_28341" x1="14.997" y1="0.0234375" x2="14.997" y2="25.9643" gradientUnits="userSpaceOnUse">
<stop stop-color="#FF0F0F"/>
<stop offset="1" stop-color="#FF4849"/>
</linearGradient>
</defs>
</svg>