<svg width="38" height="38" viewBox="0 0 27 27" fill="none" xmlns="http://www.w3.org/2000/svg">
<path d="M26.4989 16.97H21.6078C21.3319 16.97 21.1078 17.1942 21.1078 17.47V17.652H13.2729C12.387 17.652 11.6339 18.231 11.372 19.0299L2.89602 16.8419C1.78911 16.5569 0.623051 17.1359 0.181051 18.1899C-0.293949 19.3189 0.196006 20.6269 1.29602 21.1669L12.432 26.6339C12.5001 26.6669 12.576 26.6848 12.6521 26.6848H12.6631L21.1082 26.4928L21.108 26.4991C21.108 26.775 21.3321 26.9991 21.608 26.9991H26.4991C26.775 26.9991 26.9991 26.775 26.9991 26.4991V17.4699C26.9991 17.1929 26.775 16.9699 26.4991 16.9699L26.4989 16.97ZM12.7629 25.6803L1.73602 20.2674C1.11099 19.9604 0.833108 19.2174 1.10208 18.5763C1.35498 17.9754 2.02711 17.6484 2.64517 17.8102L11.3115 20.0472C11.4954 20.9613 12.3055 21.6512 13.2724 21.6512H17.8793C18.1552 21.6512 18.3793 21.4271 18.3793 21.1512C18.3793 20.8754 18.1552 20.6512 17.8793 20.6512H13.2724C12.7215 20.6512 12.2724 20.2033 12.2724 19.6512C12.2724 19.0992 12.7215 18.6512 13.2724 18.6512H21.1072V25.4901L12.7629 25.6803ZM25.9989 25.9993H22.1078V17.9702H25.9989V25.9993Z" fill="url(#paint0_linear_3912_23843)"/>
<path d="M12.9766 10.3259C12.6105 10.3259 12.3125 10.0279 12.3125 9.66296C12.3125 9.38707 12.0884 9.16296 11.8125 9.16296C11.5366 9.16296 11.3125 9.38707 11.3125 9.66296C11.3125 10.5799 12.0585 11.3259 12.9766 11.3259H12.9987V11.5759C12.9987 11.8518 13.2228 12.0759 13.4987 12.0759C13.7745 12.0759 13.9987 11.8518 13.9987 11.5759V11.3259H14.0208C14.9377 11.3259 15.6848 10.5799 15.6848 9.66296C15.6848 8.7449 14.9388 7.9989 14.0208 7.9989H13.9987V6.67188H14.0208C14.3868 6.67188 14.6848 6.96986 14.6848 7.33485C14.6848 7.61074 14.9089 7.83485 15.1848 7.83485C15.4607 7.83485 15.6848 7.61074 15.6848 7.33485C15.6848 6.41788 14.9388 5.67188 14.0208 5.67188H13.9987V5.42188C13.9987 5.14598 13.7745 4.92188 13.4987 4.92188C13.2228 4.92188 12.9987 5.14598 12.9987 5.42188V5.67188H12.9766C12.0596 5.67188 11.3125 6.41788 11.3125 7.33485C11.3125 8.2529 12.0585 8.9989 12.9766 8.9989H12.9987V10.3259H12.9766ZM12.9766 7.9989C12.6105 7.9989 12.3125 7.70092 12.3125 7.33485C12.3125 6.96989 12.6105 6.67188 12.9766 6.67188H12.9987V7.9989H12.9766ZM13.9987 8.9989H14.0208C14.3868 8.9989 14.6848 9.29689 14.6848 9.66296C14.6848 10.0279 14.3868 10.3259 14.0208 10.3259H13.9987V8.9989Z" fill="url(#paint1_linear_3912_23843)"/>
<path d="M5.38906 7.1201C5.16094 7.17211 5 7.37412 5 7.60693V9.39196C5 9.625 5.16094 9.8279 5.38906 9.87901L6.90203 10.225C7.05895 10.827 7.29802 11.402 7.61609 11.9431L6.78906 13.26C6.66495 13.4571 6.69397 13.714 6.85915 13.879L8.12121 15.142C8.28617 15.308 8.54331 15.3339 8.74133 15.2121L10.0574 14.3842C10.5985 14.7023 11.1734 14.9422 11.7754 15.0991L12.1205 16.6121C12.1725 16.84 12.3745 17.0012 12.6076 17.0012H14.3926C14.6256 17.0012 14.8285 16.8402 14.8797 16.6121L15.2248 15.0991C15.8268 14.9422 16.4018 14.7032 16.9428 14.3842L18.2589 15.2121C18.456 15.3342 18.7138 15.308 18.879 15.142L20.141 13.879C20.306 13.714 20.335 13.4569 20.2111 13.26L19.3841 11.944C19.7022 11.4029 19.941 10.8279 20.0982 10.2259L21.6111 9.87993C21.839 9.82792 22.0002 9.62591 22.0002 9.39288V7.60785C22.0002 7.37481 21.8393 7.17191 21.6111 7.1208L20.0982 6.77481C19.9412 6.1719 19.7022 5.59693 19.3841 5.05675L20.2111 3.7407C20.3352 3.5436 20.3062 3.28668 20.141 3.12173L18.879 1.85875C18.714 1.6938 18.456 1.66679 18.2589 1.78866L16.9428 2.61655C16.4017 2.29847 15.8268 2.05851 15.2248 1.90158L14.8799 0.389063C14.8279 0.160937 14.6259 0 14.3931 0H12.608C12.375 0 12.1721 0.160937 12.121 0.389063L11.7759 1.90203C11.1739 2.05895 10.598 2.29802 10.0578 2.61701L8.74 1.78798C8.54201 1.66588 8.28509 1.69289 8.11989 1.85807L6.85806 3.12104C6.6931 3.28599 6.66498 3.54314 6.78909 3.74001L7.61611 5.05607C7.29803 5.59602 7.05919 6.17104 6.90206 6.77413L5.38906 7.1201ZM7.80603 7.29599C7.95313 6.59599 8.22902 5.93394 8.62409 5.32794C8.73101 5.16499 8.73302 4.95383 8.629 4.78887L7.84797 3.54579L8.54597 2.84779L9.78906 3.62882C9.95513 3.73283 10.165 3.72971 10.329 3.62391C10.935 3.22792 11.598 2.95294 12.2971 2.80585C12.4881 2.76589 12.6381 2.6179 12.681 2.42795L13.006 1.00006H13.993L14.3189 2.42795C14.362 2.6179 14.512 2.7659 14.7029 2.80585C15.4019 2.95295 16.0638 3.22884 16.6709 3.62391C16.835 3.72882 17.045 3.73194 17.2109 3.62882L18.454 2.84779L19.152 3.54579L18.3709 4.78887C18.2669 4.95383 18.2689 5.16477 18.3758 5.32794C18.7709 5.93285 19.0459 6.59599 19.1939 7.29599C19.2338 7.48595 19.3818 7.63707 19.5718 7.67993L20.9997 8.00582V8.99376L19.5718 9.31965C19.3818 9.36273 19.2338 9.51273 19.1939 9.70358C19.0468 10.4027 18.7718 11.0645 18.3758 11.6716C18.2698 11.8357 18.2678 12.0457 18.3718 12.2107L19.1528 13.4538L18.4548 14.1518L17.2118 13.3708C17.0457 13.2667 16.8359 13.2699 16.6718 13.3757C16.0658 13.7717 15.4028 14.0466 14.7037 14.1937C14.5127 14.2337 14.3627 14.3817 14.3198 14.5716L13.9939 16H13.0069L12.681 14.5721C12.6379 14.3821 12.4879 14.2341 12.2971 14.1942C11.598 14.0471 10.9362 13.7721 10.329 13.3761C10.165 13.2712 9.95491 13.2681 9.78906 13.3712L8.54598 14.1522L7.84797 13.4542L8.629 12.2112C8.73302 12.0462 8.73102 11.8362 8.62499 11.6721C8.229 11.0661 7.95401 10.4031 7.80693 9.70404C7.76697 9.51409 7.61898 9.36297 7.42903 9.32011L6 8.99399V8.00605L7.42788 7.68016C7.61806 7.63708 7.76608 7.48595 7.80603 7.29599Z" fill="url(#paint2_linear_3912_23843)"/>
<path d="M13.4978 13.6167C16.3179 13.6167 18.6128 11.3216 18.6128 8.50169C18.6128 5.68158 16.3179 3.38672 13.4978 3.38672C10.6777 3.38672 8.38281 5.68158 8.38281 8.50169C8.38281 11.3218 10.6777 13.6167 13.4978 13.6167ZM13.4978 4.38695C15.7668 4.38695 17.6128 6.23295 17.6128 8.50192C17.6128 10.7709 15.7668 12.6169 13.4978 12.6169C11.2288 12.6169 9.38281 10.772 9.38281 8.50192C9.38281 6.2318 11.2288 4.38695 13.4978 4.38695Z" fill="url(#paint3_linear_3912_23843)"/>
<defs>
<linearGradient id="paint0_linear_3912_23843" x1="21.0352" y1="16.7695" x2="21.0175" y2="29.1914" gradientUnits="userSpaceOnUse">
<stop stop-color="#005CAA"/>
<stop offset="1" stop-color="#64B0F1"/>
</linearGradient>
<linearGradient id="paint1_linear_3912_23843" x1="14.719" y1="4.92187" x2="14.6654" y2="13.6088" gradientUnits="userSpaceOnUse">
<stop stop-color="#005CAA"/>
<stop offset="1" stop-color="#64B0F1"/>
</linearGradient>
<linearGradient id="paint2_linear_3912_23843" x1="18.245" y1="-3.05763e-09" x2="18.1671" y2="20.6444" gradientUnits="userSpaceOnUse">
<stop stop-color="#005CAA"/>
<stop offset="1" stop-color="#64B0F1"/>
</linearGradient>
<linearGradient id="paint3_linear_3912_23843" x1="16.3531" y1="3.38672" x2="16.3062" y2="15.8089" gradientUnits="userSpaceOnUse">
<stop stop-color="#005CAA"/>
<stop offset="1" stop-color="#64B0F1"/>
</linearGradient>
</defs>
</svg>