    <svg width="38" height="38" viewBox="0 0 28 26" fill="none"
                                xmlns="http://www.w3.org/2000/svg">
                                <path d="M18.7734 19.5366L20.9014 18.3207L18.7734 17.0742V19.5366Z" fill="#CC1212" />
                                <path
                                    d="M15.2117 12.6957C15.2117 13.384 14.6535 13.9421 13.9652 13.9421C13.2769 13.9421 12.7188 13.384 12.7188 12.6957C12.7188 12.0073 13.2769 11.4492 13.9652 11.4492C14.6535 11.4492 15.2117 12.0073 15.2117 12.6957Z"
                                    fill="#CC1212" />
                                <path
                                    d="M16.6165 19.4753C16.6165 19.445 16.6468 19.3841 16.6468 19.3232L16.6471 15.0673C16.6471 14.5506 16.2215 14.125 15.7047 14.125H12.2695C11.9959 14.125 11.7527 14.2465 11.5703 14.4291L15.4918 18.3809V15.645H15.6742V18.5635L16.6165 19.4753Z"
                                    fill="#CC1212" />
                                <path
                                    d="M4.21144 12.6957C4.21144 13.384 3.65355 13.9421 2.9652 13.9421C2.27664 13.9421 1.71875 13.384 1.71875 12.6957C1.71875 12.0073 2.27664 11.4492 2.9652 11.4492C3.65355 11.4492 4.21144 12.0073 4.21144 12.6957Z"
                                    fill="#CC1212" />
                                <path
                                    d="M4.66666 14.125H1.23141C0.714635 14.125 0.289062 14.5506 0.289062 15.0673V19.3538C0.289062 19.6274 0.501966 19.8402 0.775511 19.8402C1.04906 19.8402 1.26196 19.6273 1.26196 19.3538V15.645H1.44433V24.461C1.44433 24.8563 1.74841 25.1601 2.14347 25.1601H2.1738C2.56906 25.1601 2.87294 24.8561 2.87294 24.461L2.87315 19.8404H3.08606L3.08585 24.461C3.08585 24.8563 3.38993 25.1601 3.78499 25.1601C4.18026 25.1601 4.48414 24.8561 4.48414 24.461L4.48435 19.8404V15.6451H4.66672V19.3539C4.66672 19.6275 4.87962 19.8404 5.15317 19.8404C5.42672 19.8404 5.63961 19.6275 5.63961 19.3539L5.6394 15.0675C5.60908 14.5507 5.18349 14.1251 4.66671 14.1251L4.66666 14.125Z"
                                    fill="#CC1212" />
                                <path
                                    d="M26.2505 12.6957C26.2505 13.384 25.6926 13.9421 25.0043 13.9421C24.3157 13.9421 23.7578 13.384 23.7578 12.6957C23.7578 12.0073 24.3157 11.4492 25.0043 11.4492C25.6926 11.4492 26.2505 12.0073 26.2505 12.6957Z"
                                    fill="#CC1212" />
                                <path
                                    d="M26.7057 14.125H23.2705C22.7537 14.125 22.3281 14.5506 22.3281 15.0673V19.3538C22.3281 19.6274 22.541 19.8402 22.8146 19.8402C23.0881 19.8402 23.301 19.6273 23.301 19.3538V15.645H23.4834V24.461C23.4834 24.8563 23.7875 25.1601 24.1825 25.1601H24.2129C24.6081 25.1601 24.912 24.8561 24.912 24.461L24.9122 19.8404H25.1251L25.1249 24.461C25.1249 24.8563 25.429 25.1601 25.8241 25.1601C26.2193 25.1601 26.5232 24.8561 26.5232 24.461L26.5234 19.8404V15.6451H26.7058V19.3539C26.7058 19.6275 26.9187 19.8404 27.1922 19.8404C27.4658 19.8404 27.6787 19.6275 27.6787 19.3539L27.6785 15.0675C27.6481 14.5507 27.2226 14.1251 26.7058 14.1251L26.7057 14.125Z"
                                    fill="#CC1212" />
                                <path d="M7.73438 19.5366L9.89288 18.3207L7.73438 17.0742V19.5366Z" fill="#CC1212" />
                                <path
                                    d="M13.9697 1.59997C15.4593 1.59997 16.8882 1.90406 18.2561 2.45117C19.5632 2.99827 20.749 3.78883 21.752 4.82237C22.4208 5.49117 22.9985 6.25117 23.4849 7.10237L20.3234 6.12947L20.1105 6.82883L24.4882 8.16648L25.4914 3.72797L24.7617 3.54561L24.0626 6.52475C23.5761 5.7039 22.9682 4.9439 22.2994 4.2751C21.205 3.1807 19.9585 2.3295 18.5602 1.7519C17.1011 1.14395 15.5506 0.839844 13.9699 0.839844C12.389 0.839844 10.8387 1.14393 9.37953 1.7519C7.98102 2.35984 6.70428 3.1807 5.64039 4.2751C4.57628 5.3695 3.69479 6.61595 3.11719 8.01424L3.81633 8.31833C4.36342 7.01124 5.15399 5.82542 6.18753 4.82244C7.19073 3.81924 8.37633 3.02889 9.68342 2.45124C11.0512 1.87358 12.48 1.60004 13.9697 1.60004L13.9697 1.59997Z"
                                    fill="#CC1212" />
                                <path
                                    d="M7.52344 12.5442L11.3234 16.3442V19.3539C11.3234 19.6274 11.5363 19.8403 11.8099 19.8403C12.0834 19.8403 12.2963 19.6274 12.2963 19.3539V17.2868L12.4482 17.4692V24.4612C12.4482 24.8564 12.7523 25.1603 13.1473 25.1603H13.1776C13.5729 25.1603 13.8768 24.8562 13.8768 24.4612L13.877 19.8405H14.0899L14.0897 24.4612C14.0897 24.8564 14.3938 25.1603 14.7888 25.1603C15.1841 25.1603 15.488 24.8562 15.488 24.4612L15.4882 20.5093L19.349 24.3702L19.8961 23.8231L8.07053 12.0273L7.52344 12.5442Z"
                                    fill="#CC1212" />
                            </svg>