<svg width="38" height="38" viewBox="0 0 22 28" fill="none" xmlns="http://www.w3.org/2000/svg">
<path d="M11.633 17.5742H10.2998C6.21067 17.5742 0.34375 20.3298 0.34375 24.9519C0.34375 26.3743 1.23284 27.3519 2.38815 27.3519H19.6327C20.7883 27.3519 21.6771 26.3743 21.6771 25.0408V24.952C21.6773 20.3298 15.8108 17.5742 11.6331 17.5742L11.633 17.5742ZM19.8993 25.0411C19.8993 25.2188 19.8105 25.5743 19.6326 25.5743H2.38798C2.2103 25.5743 2.12146 25.3076 2.12146 24.8632C2.12146 21.5743 7.09912 19.352 10.3883 19.352H11.7216C15.0104 19.352 19.9884 21.5744 19.9884 24.8632L19.9882 25.0411L19.8993 25.0411Z" fill="url(#paint0_linear_3941_22957)"/>
<path d="M11.0117 15.7984C12.5228 15.7984 13.8561 15.2651 14.834 14.1984C17.3229 11.7095 17.234 7.08693 17.234 6.90979C17.234 3.44304 14.4784 0.6875 11.0117 0.6875C7.54506 0.6875 4.78946 3.4431 4.78946 6.90979C4.78946 7.08747 4.70062 11.7098 7.18946 14.2875C8.16734 15.2654 9.5006 15.7986 11.0118 15.7986L11.0117 15.7984ZM6.56729 6.90979C6.56729 4.42093 8.52289 2.46539 11.0117 2.46539C13.5005 2.46539 15.4561 4.42099 15.4561 6.90979C15.4561 6.90979 15.5449 10.9986 13.5893 12.9544C12.8784 13.6655 12.0784 14.0211 11.0117 14.0211C9.94494 14.0211 9.14494 13.6655 8.43403 12.9544C6.47843 10.9988 6.56729 6.99893 6.56729 6.90979Z" fill="url(#paint1_linear_3941_22957)"/>
<defs>
<linearGradient id="paint0_linear_3941_22957" x1="16.9648" y1="17.5742" x2="16.9442" y2="29.4474" gradientUnits="userSpaceOnUse">
<stop stop-color="#005CAA"/>
<stop offset="1" stop-color="#64B0F1"/>
</linearGradient>
<linearGradient id="paint1_linear_3941_22957" x1="14.4854" y1="0.6875" x2="14.4013" y2="19.0368" gradientUnits="userSpaceOnUse">
<stop stop-color="#005CAA"/>
<stop offset="1" stop-color="#64B0F1"/>
</linearGradient>
</defs>
</svg>