<svg width="38" height="38" viewBox="0 0 32 30" fill="none" xmlns="http://www.w3.org/2000/svg">
<path d="M1.12492 27.5553C1.34009 28.4566 2.14189 29.0863 3.07423 29.0863H28.8925C29.8249 29.0863 30.6267 28.4566 30.8416 27.5562L31.4925 24.856C31.5648 24.5564 31.3376 24.2665 31.0282 24.2665H30.5613V8.59562C30.5613 7.59739 29.7492 6.78557 28.7512 6.78557H28.5077V0.872994L3.46197 0.872771C3.46152 1.47746 3.46375 -1.3174 3.45706 6.78534H3.21353C2.21799 6.78534 1.40793 7.5974 1.40793 8.5954V24.2663H0.938738C0.629138 24.2663 0.402132 24.5562 0.474452 24.8557L1.12492 27.5553ZM28.5078 7.74099H28.7513C29.2225 7.74099 29.6062 8.1247 29.6062 8.59591V24.2662H28.5078L28.5078 7.74099ZM4.41692 1.82842H27.5523V2.85768L13.1661 2.85902V3.81416L27.5523 3.81282V4.84208H4.41692V1.82842ZM4.41201 5.79739H27.5526V24.2665H4.41201V5.79739ZM18.5286 25.2265L18.5203 25.95L13.4328 25.9361V25.2265L18.5286 25.2265ZM2.36343 8.59568C2.36343 8.12447 2.74491 7.74077 3.21366 7.74077H3.45719V24.2665H2.36342L2.36343 8.59568ZM12.4777 25.2265V25.9361C12.4777 26.4703 12.9125 26.9051 13.4467 26.9051H18.5203C19.0545 26.9051 19.4893 26.4703 19.4893 25.9361V25.2265C19.8099 25.2263 30.0996 25.2221 30.4219 25.2218L29.9127 27.3334C29.8007 27.8031 29.381 28.1312 28.8925 28.1312L3.07474 28.1314C2.58612 28.1314 2.16668 27.8033 2.05422 27.3328L1.5453 25.222C2.66313 25.2222 -2.50425 25.2202 12.4779 25.2265L12.4777 25.2265Z" fill="url(#paint0_linear_4003_36442)"/>
<path d="M26.4998 6.75391H5.46094V23.3128H26.4998V6.75391ZM25.5447 22.3573H6.41608V7.70933H25.5447V22.3573Z" fill="url(#paint1_linear_4003_36442)"/>
<path d="M9.92188 2.85938H11.0295V3.81452H9.92188V2.85938Z" fill="url(#paint2_linear_4003_36442)"/>
<path d="M7.71094 2.85938H8.81854V3.81452H7.71094V2.85938Z" fill="url(#paint3_linear_4003_36442)"/>
<path d="M5.5 2.85938H6.6076V3.81452H5.5V2.85938Z" fill="url(#paint4_linear_4003_36442)"/>
<path d="M10.6107 16.7718H13.5375L14.1353 18.1606H15.4889L12.6148 11.9023H11.5072L8.63281 18.1606H10.0129L10.6107 16.7718ZM12.0786 13.3791L13.0893 15.7258H11.0677L12.0786 13.3791Z" fill="url(#paint5_linear_4003_36442)"/>
<path d="M17.3946 15.6291H18.8625C20.1056 15.6291 21.0509 15.0103 21.0509 13.7657C21.0509 12.5182 20.1277 11.9023 18.8625 11.9023H16.0234V18.1606H17.3946V15.6291ZM17.3946 12.9572H18.6866C19.4013 12.9572 19.7589 13.2295 19.7589 13.7746C19.7589 14.3139 19.4013 14.5831 18.6866 14.5831H17.3946V12.9572Z" fill="url(#paint6_linear_4003_36442)"/>
<path d="M21.9609 11.9023H23.3321V18.1606H21.9609V11.9023Z" fill="url(#paint7_linear_4003_36442)"/>
<defs>
<linearGradient id="paint0_linear_4003_36442" x1="24.6485" y1="0.871094" x2="24.531" y2="35.1328" gradientUnits="userSpaceOnUse">
<stop stop-color="#005CAA"/>
<stop offset="1" stop-color="#64B0F1"/>
</linearGradient>
<linearGradient id="paint1_linear_4003_36442" x1="21.8525" y1="6.75391" x2="21.7928" y2="26.8613" gradientUnits="userSpaceOnUse">
<stop stop-color="#005CAA"/>
<stop offset="1" stop-color="#64B0F1"/>
</linearGradient>
<linearGradient id="paint2_linear_4003_36442" x1="10.7848" y1="2.85937" x2="10.781" y2="4.0192" gradientUnits="userSpaceOnUse">
<stop stop-color="#005CAA"/>
<stop offset="1" stop-color="#64B0F1"/>
</linearGradient>
<linearGradient id="paint3_linear_4003_36442" x1="8.57388" y1="2.85937" x2="8.5701" y2="4.0192" gradientUnits="userSpaceOnUse">
<stop stop-color="#005CAA"/>
<stop offset="1" stop-color="#64B0F1"/>
</linearGradient>
<linearGradient id="paint4_linear_4003_36442" x1="6.36294" y1="2.85937" x2="6.35917" y2="4.0192" gradientUnits="userSpaceOnUse">
<stop stop-color="#005CAA"/>
<stop offset="1" stop-color="#64B0F1"/>
</linearGradient>
<linearGradient id="paint5_linear_4003_36442" x1="13.9744" y1="11.9023" x2="13.9483" y2="19.5018" gradientUnits="userSpaceOnUse">
<stop stop-color="#005CAA"/>
<stop offset="1" stop-color="#64B0F1"/>
</linearGradient>
<linearGradient id="paint6_linear_4003_36442" x1="19.9404" y1="11.9023" x2="19.9047" y2="19.5017" gradientUnits="userSpaceOnUse">
<stop stop-color="#005CAA"/>
<stop offset="1" stop-color="#64B0F1"/>
</linearGradient>
<linearGradient id="paint7_linear_4003_36442" x1="23.0293" y1="11.9023" x2="22.8984" y2="19.4996" gradientUnits="userSpaceOnUse">
<stop stop-color="#005CAA"/>
<stop offset="1" stop-color="#64B0F1"/>
</linearGradient>
</defs>
</svg>