<svg width="38" height="38" viewBox="0 0 28 24" fill="none" xmlns="http://www.w3.org/2000/svg">
<path d="M0.687728 7.83664C0.687728 7.84222 0.69063 7.84668 0.690853 7.85204V14.9898C0.690853 16.1252 1.61383 17.0491 2.74914 17.0491H6.95005C7.22505 20.7358 10.2978 23.6114 14.0169 23.6114C17.7539 23.6114 20.8192 20.7123 21.0929 17.0491H25.2981C26.4335 17.0491 27.3574 16.1252 27.3574 14.9898V2.41375C27.3574 1.25953 26.4532 0.355469 25.2981 0.355469H2.74891C1.61343 0.355469 0.690625 1.27844 0.690625 2.41375V4.21713C0.690179 4.22248 0.6875 4.22717 0.6875 4.23253L0.687728 7.83664ZM1.75739 4.7659H26.2877V7.30338H1.75739V4.7659ZM17.8848 11.8893L17.3701 12.4041C17.1618 12.6123 17.1618 12.9498 17.3701 13.1583C17.5783 13.3665 17.9158 13.3665 18.1243 13.1583L18.639 12.6436C19.4105 13.5637 19.9109 14.7157 20.023 15.9788L19.2929 15.9784C18.998 15.9784 18.7596 16.217 18.7596 16.5116C18.7596 16.8054 18.9982 17.0449 19.2929 17.0449L20.0264 17.0453C19.9159 18.3092 19.4152 19.4623 18.6424 20.3826L18.125 19.8647C17.9167 19.6565 17.5792 19.6565 17.3708 19.8647C17.1625 20.073 17.1625 20.4105 17.3708 20.619L17.8875 21.1364C16.9668 21.9069 15.8139 22.4067 14.5498 22.5179V21.7886C14.5498 21.4937 14.3112 21.2553 14.0165 21.2553C13.7217 21.2553 13.4833 21.494 13.4833 21.7886V22.5179C12.2199 22.4065 11.0679 21.9053 10.148 21.1333L10.6623 20.619C10.8706 20.4107 10.8706 20.0732 10.6623 19.8648C10.4541 19.6565 10.1166 19.6565 9.90809 19.8648L9.39425 20.3786C8.62413 19.4583 8.12596 18.3056 8.01591 17.0429H8.74048C9.03535 17.0429 9.27374 16.8043 9.27374 16.5096C9.27374 16.2148 9.03512 15.9764 8.74048 15.9764L8.01705 15.9759C8.12978 14.7146 8.62979 13.5636 9.39922 12.6449L9.9106 13.1563C10.1189 13.3645 10.4564 13.3645 10.6648 13.1563C10.8731 12.948 10.8731 12.6105 10.6648 12.4021L10.153 11.8902C11.072 11.119 12.2224 10.6188 13.4836 10.5072V11.2365C13.4836 11.5313 13.7222 11.7697 14.0168 11.7697C14.3117 11.7697 14.5501 11.5311 14.5501 11.2365V10.5072C15.7536 10.6132 16.9119 11.0733 17.8849 11.8894L17.8848 11.8893ZM25.298 15.9822H21.0968C21.0955 15.9628 21.0912 15.944 21.0897 15.9246C20.7845 12.2476 17.6781 9.41145 14.012 9.41145C10.3044 9.41145 7.21367 12.3137 6.93881 15.9823L2.74864 15.9825C2.20177 15.9825 1.75693 15.5368 1.75693 14.9899V8.3699H26.2901V14.9899C26.2903 15.5368 25.8443 15.9825 25.2974 15.9825L25.298 15.9822ZM2.74881 1.42218H25.298C25.8542 1.42218 26.2906 1.85767 26.2906 2.4139V3.69938H1.75744V2.41367C1.75744 1.85742 2.19293 1.42212 2.74916 1.42212L2.74881 1.42218Z" fill="url(#paint0_linear_4003_36947)"/>
<path d="M14.0452 12.25C13.7504 12.25 13.512 12.4886 13.512 12.7833V16.2906L11.3203 18.4833C11.112 18.6915 11.112 19.029 11.3203 19.2375C11.5285 19.4457 11.866 19.4457 12.0745 19.2375L14.4225 16.8886C14.5225 16.7886 14.5787 16.6531 14.5787 16.5116V12.7835C14.5785 12.4886 14.3399 12.25 14.0452 12.25Z" fill="url(#paint1_linear_4003_36947)"/>
<defs>
<linearGradient id="paint0_linear_4003_36947" x1="21.4663" y1="0.355469" x2="21.3734" y2="28.5951" gradientUnits="userSpaceOnUse">
<stop stop-color="#005CAA"/>
<stop offset="1" stop-color="#64B0F1"/>
</linearGradient>
<linearGradient id="paint1_linear_4003_36947" x1="13.8245" y1="12.25" x2="13.756" y2="20.9241" gradientUnits="userSpaceOnUse">
<stop stop-color="#005CAA"/>
<stop offset="1" stop-color="#64B0F1"/>
</linearGradient>
</defs>
</svg>