<svg width="38" height="38" viewBox="0 0 32 32" fill="none" xmlns="http://www.w3.org/2000/svg">
                                <path d="M27.0271 21.4706V17.4706C27.0271 17.338 26.9744 17.2108 26.8807 17.1171C26.7869 17.0233 26.6597 16.9706 26.5271 16.9706H26.0271V8.47062C26.0271 8.33803 25.9744 8.2108 25.8807 8.11705C25.7869 8.0233 25.6597 7.97062 25.5271 7.97062H19.558L16.7044 5.11702C16.5091 4.92193 16.1925 4.92193 15.9975 5.11702L13.1439 7.97062H7.52734C6.8646 7.97151 6.22912 8.23513 5.76037 8.70365C5.29185 9.1724 5.02826 9.80788 5.02734 10.4706V24.4706C5.02824 25.1334 5.29185 25.7689 5.76037 26.2376C6.22912 26.7061 6.8646 26.9697 7.52734 26.9706H25.5273C25.6599 26.9706 25.7872 26.9179 25.8809 26.8242C25.9747 26.7304 26.0273 26.6032 26.0273 26.4706V21.9706H26.5273C26.6599 21.9706 26.7872 21.9179 26.8809 21.8242C26.9747 21.7304 27.0273 21.6032 27.0273 21.4706H27.0271ZM25.0271 8.97062V11.9706H23.5577L20.5577 8.97062H25.0271ZM14.2608 8.26708C14.8637 8.71931 15.597 8.96371 16.3503 8.96371C17.1039 8.96371 17.8372 8.71929 18.4398 8.26708L22.1433 11.9706H10.5576L14.2608 8.26708ZM16.3503 6.17759L17.7253 7.55257C17.3173 7.82154 16.8391 7.96484 16.3503 7.96484C15.8617 7.96484 15.3836 7.82154 14.9753 7.55257L16.3503 6.17759ZM7.52689 8.97068H12.1434L9.1434 11.9707H7.52689C6.99095 11.9707 6.49586 11.6847 6.2278 11.2207C5.95994 10.7566 5.95994 10.1847 6.2278 9.72068C6.49588 9.25662 6.99094 8.97068 7.52689 8.97068ZM25.0269 25.9707H7.52689C7.12912 25.9707 6.7474 25.8126 6.4662 25.5314C6.185 25.2501 6.02692 24.8684 6.02692 24.4707V12.4576C6.45705 12.7884 6.98429 12.9687 7.52692 12.9705H25.0269V16.9705H22.5269C21.6338 16.9705 20.8084 17.4471 20.3619 18.2205C19.9153 18.9939 19.9153 19.9471 20.3619 20.7205C20.8084 21.4939 21.6338 21.9705 22.5269 21.9705H25.0269L25.0269 25.9707ZM26.0269 20.9707H22.5269C21.9909 20.9707 21.4959 20.6847 21.2278 20.2207C20.9599 19.7566 20.9599 19.1847 21.2278 18.7207C21.4959 18.2566 21.9909 17.9707 22.5269 17.9707H26.0269V20.9707Z" fill="url(#paint0_linear_5739_28660)"></path>
                                <path d="M23.0273 19.4707C23.0273 19.7468 22.8035 19.9707 22.5273 19.9707C22.2512 19.9707 22.0273 19.7468 22.0273 19.4707C22.0273 19.1946 22.2512 18.9707 22.5273 18.9707C22.8035 18.9707 23.0273 19.1946 23.0273 19.4707Z" fill="url(#paint1_linear_5739_28660)"></path>
                                <path d="M22.0273 13.9707H24.0273V14.9707H22.0273V13.9707Z" fill="url(#paint2_linear_5739_28660)"></path>
                                <path d="M19.0273 13.9707H21.0273V14.9707H19.0273V13.9707Z" fill="url(#paint3_linear_5739_28660)"></path>
                                <path d="M16.0273 13.9707H18.0273V14.9707H16.0273V13.9707Z" fill="url(#paint4_linear_5739_28660)"></path>
                                <path d="M13.0273 13.9707H15.0273V14.9707H13.0273V13.9707Z" fill="url(#paint5_linear_5739_28660)"></path>
                                <path d="M10.0273 13.9707H12.0273V14.9707H10.0273V13.9707Z" fill="url(#paint6_linear_5739_28660)"></path>
                                <path d="M7.02734 13.9707H9.02734V14.9707H7.02734V13.9707Z" fill="url(#paint7_linear_5739_28660)"></path>
                                <path d="M2.67366 17.8243L3.38058 17.1174L2.73418 16.4707H4.02726V15.4707H2.73418L3.38058 14.8243L2.67366 14.1172L1.17366 15.6172C0.978571 15.8125 0.978571 16.129 1.17366 16.3243L2.67366 17.8243Z" fill="url(#paint8_linear_5739_28660)"></path>
                                <path d="M29.3809 14.1172L28.674 14.8241L29.3204 15.4707H28.0273V16.4707H29.3204L28.674 17.1171L29.3809 17.824L30.8809 16.324V16.3243C31.076 16.129 31.076 15.8124 30.8809 15.6171L29.3809 14.1172Z" fill="url(#paint9_linear_5739_28660)"></path>
                                <path d="M16.5252 29.2638V27.9707H15.5252V29.2638L14.8788 28.6174L14.1719 29.3243L15.6719 30.8243H15.6717C15.867 31.0194 16.1835 31.0194 16.3788 30.8243L17.8788 29.3243L17.1719 28.6174L16.5252 29.2638Z" fill="url(#paint10_linear_5739_28660)"></path>
                                <path d="M15.5255 2.67754V3.97062H16.5255V2.67754L17.1719 3.32394L17.8788 2.61702L16.3788 1.11702H16.379C16.1837 0.92193 15.8672 0.92193 15.6719 1.11702L14.1719 2.61702L14.8788 3.32394L15.5255 2.67754Z" fill="url(#paint11_linear_5739_28660)"></path>
                                <path d="M30.5254 0.970703H27.5254V1.9707H29.3185L26.6719 4.6171L27.3788 5.32402L30.0254 2.67762V4.4707H31.0254V1.4707C31.0254 1.33811 30.9727 1.21088 30.879 1.11713C30.7852 1.02338 30.658 0.970703 30.5254 0.970703Z" fill="url(#paint12_linear_5739_28660)"></path>
                                <path d="M2.02734 2.67762L4.67374 5.32402L5.38066 4.6171L2.73426 1.9707H4.52734V0.970703H1.52734C1.25123 0.970703 1.02734 1.19459 1.02734 1.4707V4.4707H2.02734V2.67762Z" fill="url(#paint13_linear_5739_28660)"></path>
                                <path d="M30.0252 29.2636L27.3788 26.6172L26.6719 27.3248L29.3183 29.9712H27.5252V30.9712H30.5252C30.6578 30.9712 30.785 30.9185 30.8788 30.8248C30.9725 30.731 31.0252 30.6038 31.0252 30.4712V27.4712H30.0252V29.2636Z" fill="url(#paint14_linear_5739_28660)"></path>
                                <path d="M4.61906 26.6699L1.97266 29.3199V27.5244H0.972656V30.5244C0.972656 30.657 1.02534 30.7842 1.11908 30.878C1.21283 30.9717 1.34007 31.0244 1.47266 31.0244H4.47266V30.0244H2.67957L5.32711 27.378L4.61906 26.6699Z" fill="url(#paint15_linear_5739_28660)"></path>
                                <path d="M22.0273 23.9707H24.0273V24.9707H22.0273V23.9707Z" fill="url(#paint16_linear_5739_28660)"></path>
                                <path d="M19.0273 23.9707H21.0273V24.9707H19.0273V23.9707Z" fill="url(#paint17_linear_5739_28660)"></path>
                                <path d="M16.0273 23.9707H18.0273V24.9707H16.0273V23.9707Z" fill="url(#paint18_linear_5739_28660)"></path>
                                <path d="M13.0273 23.9707H15.0273V24.9707H13.0273V23.9707Z" fill="url(#paint19_linear_5739_28660)"></path>
                                <path d="M10.0273 23.9707H12.0273V24.9707H10.0273V23.9707Z" fill="url(#paint20_linear_5739_28660)"></path>
                                <path d="M7.02734 23.9707H9.02734V24.9707H7.02734V23.9707Z" fill="url(#paint21_linear_5739_28660)"></path>
                                <defs>
                                    <linearGradient id="paint0_linear_5739_28660" x1="22.1678" y1="4.9707" x2="22.0669" y2="31.6851" gradientUnits="userSpaceOnUse">
                                        <stop stop-color="#005CAA"></stop>
                                        <stop offset="1" stop-color="#64B0F1"></stop>
                                    </linearGradient>
                                    <linearGradient id="paint1_linear_5739_28660" x1="22.8065" y1="18.9707" x2="22.8019" y2="20.185" gradientUnits="userSpaceOnUse">
                                        <stop stop-color="#005CAA"></stop>
                                        <stop offset="1" stop-color="#64B0F1"></stop>
                                    </linearGradient>
                                    <linearGradient id="paint2_linear_5739_28660" x1="23.5856" y1="13.9707" x2="23.5833" y2="15.185" gradientUnits="userSpaceOnUse">
                                        <stop stop-color="#005CAA"></stop>
                                        <stop offset="1" stop-color="#64B0F1"></stop>
                                    </linearGradient>
                                    <linearGradient id="paint3_linear_5739_28660" x1="20.5856" y1="13.9707" x2="20.5833" y2="15.185" gradientUnits="userSpaceOnUse">
                                        <stop stop-color="#005CAA"></stop>
                                        <stop offset="1" stop-color="#64B0F1"></stop>
                                    </linearGradient>
                                    <linearGradient id="paint4_linear_5739_28660" x1="17.5856" y1="13.9707" x2="17.5833" y2="15.185" gradientUnits="userSpaceOnUse">
                                        <stop stop-color="#005CAA"></stop>
                                        <stop offset="1" stop-color="#64B0F1"></stop>
                                    </linearGradient>
                                    <linearGradient id="paint5_linear_5739_28660" x1="14.5856" y1="13.9707" x2="14.5833" y2="15.185" gradientUnits="userSpaceOnUse">
                                        <stop stop-color="#005CAA"></stop>
                                        <stop offset="1" stop-color="#64B0F1"></stop>
                                    </linearGradient>
                                    <linearGradient id="paint6_linear_5739_28660" x1="11.5856" y1="13.9707" x2="11.5833" y2="15.185" gradientUnits="userSpaceOnUse">
                                        <stop stop-color="#005CAA"></stop>
                                        <stop offset="1" stop-color="#64B0F1"></stop>
                                    </linearGradient>
                                    <linearGradient id="paint7_linear_5739_28660" x1="8.58556" y1="13.9707" x2="8.58327" y2="15.185" gradientUnits="userSpaceOnUse">
                                        <stop stop-color="#005CAA"></stop>
                                        <stop offset="1" stop-color="#64B0F1"></stop>
                                    </linearGradient>
                                    <linearGradient id="paint8_linear_5739_28660" x1="3.36461" y1="14.1172" x2="3.34362" y2="18.6186" gradientUnits="userSpaceOnUse">
                                        <stop stop-color="#005CAA"></stop>
                                        <stop offset="1" stop-color="#64B0F1"></stop>
                                    </linearGradient>
                                    <linearGradient id="paint9_linear_5739_28660" x1="30.3646" y1="14.1172" x2="30.3436" y2="18.6184" gradientUnits="userSpaceOnUse">
                                        <stop stop-color="#005CAA"></stop>
                                        <stop offset="1" stop-color="#64B0F1"></stop>
                                    </linearGradient>
                                    <linearGradient id="paint10_linear_5739_28660" x1="17.06" y1="27.9707" x2="17.0488" y2="31.6135" gradientUnits="userSpaceOnUse">
                                        <stop stop-color="#005CAA"></stop>
                                        <stop offset="1" stop-color="#64B0F1"></stop>
                                    </linearGradient>
                                    <linearGradient id="paint11_linear_5739_28660" x1="17.06" y1="0.970703" x2="17.0488" y2="4.61351" gradientUnits="userSpaceOnUse">
                                        <stop stop-color="#005CAA"></stop>
                                        <stop offset="1" stop-color="#64B0F1"></stop>
                                    </linearGradient>
                                    <linearGradient id="paint12_linear_5739_28660" x1="30.0638" y1="0.970703" x2="30.0438" y2="6.25691" gradientUnits="userSpaceOnUse">
                                        <stop stop-color="#005CAA"></stop>
                                        <stop offset="1" stop-color="#64B0F1"></stop>
                                    </linearGradient>
                                    <linearGradient id="paint13_linear_5739_28660" x1="4.41905" y1="0.970703" x2="4.3991" y2="6.25691" gradientUnits="userSpaceOnUse">
                                        <stop stop-color="#005CAA"></stop>
                                        <stop offset="1" stop-color="#64B0F1"></stop>
                                    </linearGradient>
                                    <linearGradient id="paint14_linear_5739_28660" x1="30.0636" y1="26.6172" x2="30.0436" y2="31.9042" gradientUnits="userSpaceOnUse">
                                        <stop stop-color="#005CAA"></stop>
                                        <stop offset="1" stop-color="#64B0F1"></stop>
                                    </linearGradient>
                                    <linearGradient id="paint15_linear_5739_28660" x1="4.36526" y1="26.6699" x2="4.3453" y2="31.9575" gradientUnits="userSpaceOnUse">
                                        <stop stop-color="#005CAA"></stop>
                                        <stop offset="1" stop-color="#64B0F1"></stop>
                                    </linearGradient>
                                    <linearGradient id="paint16_linear_5739_28660" x1="23.5856" y1="23.9707" x2="23.5833" y2="25.185" gradientUnits="userSpaceOnUse">
                                        <stop stop-color="#005CAA"></stop>
                                        <stop offset="1" stop-color="#64B0F1"></stop>
                                    </linearGradient>
                                    <linearGradient id="paint17_linear_5739_28660" x1="20.5856" y1="23.9707" x2="20.5833" y2="25.185" gradientUnits="userSpaceOnUse">
                                        <stop stop-color="#005CAA"></stop>
                                        <stop offset="1" stop-color="#64B0F1"></stop>
                                    </linearGradient>
                                    <linearGradient id="paint18_linear_5739_28660" x1="17.5856" y1="23.9707" x2="17.5833" y2="25.185" gradientUnits="userSpaceOnUse">
                                        <stop stop-color="#005CAA"></stop>
                                        <stop offset="1" stop-color="#64B0F1"></stop>
                                    </linearGradient>
                                    <linearGradient id="paint19_linear_5739_28660" x1="14.5856" y1="23.9707" x2="14.5833" y2="25.185" gradientUnits="userSpaceOnUse">
                                        <stop stop-color="#005CAA"></stop>
                                        <stop offset="1" stop-color="#64B0F1"></stop>
                                    </linearGradient>
                                    <linearGradient id="paint20_linear_5739_28660" x1="11.5856" y1="23.9707" x2="11.5833" y2="25.185" gradientUnits="userSpaceOnUse">
                                        <stop stop-color="#005CAA"></stop>
                                        <stop offset="1" stop-color="#64B0F1"></stop>
                                    </linearGradient>
                                    <linearGradient id="paint21_linear_5739_28660" x1="8.58556" y1="23.9707" x2="8.58327" y2="25.185" gradientUnits="userSpaceOnUse">
                                        <stop stop-color="#005CAA"></stop>
                                        <stop offset="1" stop-color="#64B0F1"></stop>
                                    </linearGradient>
                                </defs>
                            </svg>