<svg width="38" height="38" viewBox="0 0 38 31" fill="none" xmlns="http://www.w3.org/2000/svg">
<path d="M34.3105 12.7907C34.7922 12.3785 35.1795 11.8672 35.4457 11.2918C35.712 10.7163 35.8511 10.0903 35.8535 9.45621C35.8521 8.27978 35.384 7.15197 34.5521 6.32024C33.7201 5.48851 32.5921 5.02079 31.4157 5.01971C30.8313 5.01335 30.2516 5.12376 29.7104 5.34446C29.1693 5.56517 28.6777 5.89172 28.2644 6.30496C27.8512 6.7182 27.5246 7.20981 27.3039 7.75094C27.0832 8.29207 26.9728 8.87183 26.9792 9.45621C26.9792 10.7849 27.5777 11.9656 28.506 12.7785C28.0305 12.9227 27.5774 13.1323 27.1597 13.4014C26.6264 12.7851 25.9743 12.2826 25.2423 11.9242C24.5103 11.5658 23.7135 11.3587 22.8996 11.3155C24.3233 10.1959 25.2556 8.47907 25.2556 6.53292C25.2556 3.10885 22.5725 0.425781 19.1485 0.425781C17.5293 0.427577 15.977 1.07158 14.8321 2.21651C13.6871 3.36143 13.0431 4.91376 13.0413 6.53292C13.0413 8.48314 13.9764 10.2026 15.4041 11.3223C14.6002 11.3722 13.8143 11.5818 13.0924 11.9391C12.3704 12.2963 11.727 12.7939 11.1997 13.4028C10.782 13.1337 10.3289 12.924 9.8534 12.7799C10.3308 12.3676 10.7141 11.8576 10.9775 11.2845C11.2409 10.7113 11.3782 10.0883 11.3802 9.45757C11.3865 8.87319 11.2761 8.29343 11.0554 7.7523C10.8347 7.21116 10.5082 6.71956 10.0949 6.30631C9.6817 5.89307 9.19009 5.56652 8.64896 5.34582C8.10782 5.12512 7.52806 5.01471 6.94369 5.02107C5.76726 5.02214 4.63931 5.48986 3.80732 6.3216C2.97533 7.15333 2.50727 8.28114 2.50583 9.45757C2.50583 10.793 3.11112 11.9791 4.0489 12.7921C1.81912 13.4666 0.179688 15.5159 0.179688 17.9641V25.5329C0.179688 25.7129 0.25118 25.8855 0.378437 26.0127C0.505693 26.14 0.678291 26.2115 0.858259 26.2115H9.67969V29.6044C9.67969 29.7843 9.75118 29.9569 9.87844 30.0842C10.0057 30.2114 10.1783 30.2829 10.3583 30.2829H28.0011C28.1811 30.2829 28.3537 30.2114 28.4809 30.0842C28.6082 29.9569 28.6797 29.7843 28.6797 29.6044V26.2115H37.5011C37.6811 26.2115 37.8537 26.14 37.9809 26.0127C38.1082 25.8855 38.1797 25.7129 38.1797 25.5329V17.9641C38.1797 15.5159 36.5403 13.4666 34.3105 12.7907ZM31.4157 6.37685C33.142 6.37685 34.4964 7.72992 34.4964 9.45621C34.4953 10.2728 34.1704 11.0556 33.5928 11.6329C33.0153 12.2102 32.2323 12.5348 31.4157 12.5356C29.6894 12.5356 28.3363 11.1825 28.3363 9.45621C28.3363 7.72992 29.6894 6.37685 31.4157 6.37685ZM14.3985 6.53292C14.3985 3.87021 16.4858 1.78292 19.1485 1.78292C21.8112 1.78292 23.8985 3.87021 23.8985 6.53292C23.8985 9.19564 21.8112 11.2829 19.1485 11.2829C16.5292 11.2829 14.3985 9.15221 14.3985 6.53292ZM6.94369 6.37685C8.66997 6.37685 10.023 7.72992 10.023 9.45621C10.023 11.1825 8.66997 12.5356 6.94369 12.5356C6.1272 12.5345 5.34444 12.2098 4.76696 11.6325C4.18949 11.0553 3.86441 10.2727 3.86297 9.45621C3.86297 7.72857 5.21604 6.37685 6.94369 6.37685ZM4.25112 24.8544V18.7472C4.25112 18.5672 4.17962 18.3946 4.05237 18.2674C3.92511 18.1401 3.75251 18.0686 3.57254 18.0686C3.39258 18.0686 3.21998 18.1401 3.09272 18.2674C2.96547 18.3946 2.89397 18.5672 2.89397 18.7472V24.8544H1.53683V17.9641C1.53683 15.7194 3.36354 13.8927 5.60826 13.8927H8.32254C9.06354 13.8927 9.7774 14.099 10.4153 14.4926C10.3488 14.6161 10.2972 14.745 10.2388 14.8726C10.2063 14.9459 10.1683 15.0151 10.1384 15.0897C10.0096 15.4058 9.90788 15.7322 9.8344 16.0655C9.81676 16.1415 9.80454 16.2189 9.79097 16.2976C9.72043 16.6575 9.68318 17.0233 9.67969 17.3901V24.8544H4.25112ZM27.3225 28.9258H24.6083V18.7472C24.6083 18.5672 24.5368 18.3946 24.4095 18.2674C24.2823 18.1401 24.1097 18.0686 23.9297 18.0686C23.7497 18.0686 23.5771 18.1401 23.4499 18.2674C23.3226 18.3946 23.2511 18.5672 23.2511 18.7472V28.9258H15.1083V18.7472C15.1083 18.5672 15.0368 18.3946 14.9095 18.2674C14.7823 18.1401 14.6097 18.0686 14.4297 18.0686C14.2497 18.0686 14.0771 18.1401 13.9499 18.2674C13.8226 18.3946 13.7511 18.5672 13.7511 18.7472V28.9258H11.0368V17.3901C11.0368 17.0969 11.0721 16.8133 11.1237 16.5364C11.14 16.4455 11.1644 16.3573 11.1861 16.2677C11.2323 16.0804 11.2893 15.8986 11.3558 15.7208C11.3924 15.6258 11.4263 15.5294 11.4684 15.4371C11.5512 15.2566 11.6475 15.0843 11.752 14.916C11.7955 14.8468 11.8294 14.7735 11.8755 14.7056C12.3107 14.0696 12.8943 13.5491 13.5758 13.1892C14.2572 12.8293 15.0161 12.6408 15.7868 12.6401H22.5725C24.1943 12.6401 25.6261 13.4598 26.4838 14.7043C26.53 14.7721 26.5639 14.8454 26.6073 14.9146C26.7105 15.0829 26.8082 15.2553 26.891 15.4358C26.933 15.5281 26.9683 15.6244 27.0036 15.7194C27.0715 15.8972 27.1285 16.0791 27.1733 16.2664C27.195 16.3559 27.2194 16.4441 27.2357 16.5351C27.2873 16.8133 27.3225 17.0969 27.3225 17.3901V28.9258ZM36.8225 24.8544H35.4654V18.7472C35.4654 18.5672 35.3939 18.3946 35.2667 18.2674C35.1394 18.1401 34.9668 18.0686 34.7868 18.0686C34.6069 18.0686 34.4343 18.1401 34.307 18.2674C34.1797 18.3946 34.1083 18.5672 34.1083 18.7472V24.8544H28.6797V17.3901C28.6797 17.0196 28.6349 16.6559 28.5698 16.2962C28.4964 15.8826 28.38 15.4777 28.2223 15.0884C28.1925 15.0137 28.1545 14.9445 28.1219 14.8712C28.0635 14.7436 28.012 14.6147 27.9455 14.4912C28.5833 14.0976 29.2972 13.8914 30.0382 13.8914H32.7525C34.9972 13.8914 36.8239 15.7181 36.8239 17.9628L36.8225 24.8544Z" fill="url(#paint0_linear_3820_20532)"/>
<path d="M34.3105 12.7907C34.7922 12.3785 35.1795 11.8672 35.4457 11.2918C35.712 10.7163 35.8511 10.0903 35.8535 9.45621C35.8521 8.27978 35.384 7.15197 34.5521 6.32024C33.7201 5.48851 32.5921 5.02079 31.4157 5.01971C30.8313 5.01335 30.2516 5.12376 29.7104 5.34446C29.1693 5.56517 28.6777 5.89172 28.2644 6.30496C27.8512 6.7182 27.5246 7.20981 27.3039 7.75094C27.0832 8.29207 26.9728 8.87183 26.9792 9.45621C26.9792 10.7849 27.5777 11.9656 28.506 12.7785C28.0305 12.9227 27.5774 13.1323 27.1597 13.4014C26.6264 12.7851 25.9743 12.2826 25.2423 11.9242C24.5103 11.5658 23.7135 11.3587 22.8996 11.3155C24.3233 10.1959 25.2556 8.47907 25.2556 6.53292C25.2556 3.10885 22.5725 0.425781 19.1485 0.425781C17.5293 0.427577 15.977 1.07158 14.8321 2.21651C13.6871 3.36143 13.0431 4.91376 13.0413 6.53292C13.0413 8.48314 13.9764 10.2026 15.4041 11.3223C14.6002 11.3722 13.8143 11.5818 13.0924 11.9391C12.3704 12.2963 11.727 12.7939 11.1997 13.4028C10.782 13.1337 10.3289 12.924 9.8534 12.7799C10.3308 12.3676 10.7141 11.8576 10.9775 11.2845C11.2409 10.7113 11.3782 10.0883 11.3802 9.45757C11.3865 8.87319 11.2761 8.29343 11.0554 7.7523C10.8347 7.21116 10.5082 6.71956 10.0949 6.30631C9.6817 5.89307 9.19009 5.56652 8.64896 5.34582C8.10782 5.12512 7.52806 5.01471 6.94369 5.02107C5.76726 5.02214 4.63931 5.48986 3.80732 6.3216C2.97533 7.15333 2.50727 8.28114 2.50583 9.45757C2.50583 10.793 3.11112 11.9791 4.0489 12.7921C1.81912 13.4666 0.179688 15.5159 0.179688 17.9641V25.5329C0.179688 25.7129 0.25118 25.8855 0.378437 26.0127C0.505693 26.14 0.678291 26.2115 0.858259 26.2115H9.67969V29.6044C9.67969 29.7843 9.75118 29.9569 9.87844 30.0842C10.0057 30.2114 10.1783 30.2829 10.3583 30.2829H28.0011C28.1811 30.2829 28.3537 30.2114 28.4809 30.0842C28.6082 29.9569 28.6797 29.7843 28.6797 29.6044V26.2115H37.5011C37.6811 26.2115 37.8537 26.14 37.9809 26.0127C38.1082 25.8855 38.1797 25.7129 38.1797 25.5329V17.9641C38.1797 15.5159 36.5403 13.4666 34.3105 12.7907ZM31.4157 6.37685C33.142 6.37685 34.4964 7.72992 34.4964 9.45621C34.4953 10.2728 34.1704 11.0556 33.5928 11.6329C33.0153 12.2102 32.2323 12.5348 31.4157 12.5356C29.6894 12.5356 28.3363 11.1825 28.3363 9.45621C28.3363 7.72992 29.6894 6.37685 31.4157 6.37685ZM14.3985 6.53292C14.3985 3.87021 16.4858 1.78292 19.1485 1.78292C21.8112 1.78292 23.8985 3.87021 23.8985 6.53292C23.8985 9.19564 21.8112 11.2829 19.1485 11.2829C16.5292 11.2829 14.3985 9.15221 14.3985 6.53292ZM6.94369 6.37685C8.66997 6.37685 10.023 7.72992 10.023 9.45621C10.023 11.1825 8.66997 12.5356 6.94369 12.5356C6.1272 12.5345 5.34444 12.2098 4.76696 11.6325C4.18949 11.0553 3.86441 10.2727 3.86297 9.45621C3.86297 7.72857 5.21604 6.37685 6.94369 6.37685ZM4.25112 24.8544V18.7472C4.25112 18.5672 4.17962 18.3946 4.05237 18.2674C3.92511 18.1401 3.75251 18.0686 3.57254 18.0686C3.39258 18.0686 3.21998 18.1401 3.09272 18.2674C2.96547 18.3946 2.89397 18.5672 2.89397 18.7472V24.8544H1.53683V17.9641C1.53683 15.7194 3.36354 13.8927 5.60826 13.8927H8.32254C9.06354 13.8927 9.7774 14.099 10.4153 14.4926C10.3488 14.6161 10.2972 14.745 10.2388 14.8726C10.2063 14.9459 10.1683 15.0151 10.1384 15.0897C10.0096 15.4058 9.90788 15.7322 9.8344 16.0655C9.81676 16.1415 9.80454 16.2189 9.79097 16.2976C9.72043 16.6575 9.68318 17.0233 9.67969 17.3901V24.8544H4.25112ZM27.3225 28.9258H24.6083V18.7472C24.6083 18.5672 24.5368 18.3946 24.4095 18.2674C24.2823 18.1401 24.1097 18.0686 23.9297 18.0686C23.7497 18.0686 23.5771 18.1401 23.4499 18.2674C23.3226 18.3946 23.2511 18.5672 23.2511 18.7472V28.9258H15.1083V18.7472C15.1083 18.5672 15.0368 18.3946 14.9095 18.2674C14.7823 18.1401 14.6097 18.0686 14.4297 18.0686C14.2497 18.0686 14.0771 18.1401 13.9499 18.2674C13.8226 18.3946 13.7511 18.5672 13.7511 18.7472V28.9258H11.0368V17.3901C11.0368 17.0969 11.0721 16.8133 11.1237 16.5364C11.14 16.4455 11.1644 16.3573 11.1861 16.2677C11.2323 16.0804 11.2893 15.8986 11.3558 15.7208C11.3924 15.6258 11.4263 15.5294 11.4684 15.4371C11.5512 15.2566 11.6475 15.0843 11.752 14.916C11.7955 14.8468 11.8294 14.7735 11.8755 14.7056C12.3107 14.0696 12.8943 13.5491 13.5758 13.1892C14.2572 12.8293 15.0161 12.6408 15.7868 12.6401H22.5725C24.1943 12.6401 25.6261 13.4598 26.4838 14.7043C26.53 14.7721 26.5639 14.8454 26.6073 14.9146C26.7105 15.0829 26.8082 15.2553 26.891 15.4358C26.933 15.5281 26.9683 15.6244 27.0036 15.7194C27.0715 15.8972 27.1285 16.0791 27.1733 16.2664C27.195 16.3559 27.2194 16.4441 27.2357 16.5351C27.2873 16.8133 27.3225 17.0969 27.3225 17.3901V28.9258ZM36.8225 24.8544H35.4654V18.7472C35.4654 18.5672 35.3939 18.3946 35.2667 18.2674C35.1394 18.1401 34.9668 18.0686 34.7868 18.0686C34.6069 18.0686 34.4343 18.1401 34.307 18.2674C34.1797 18.3946 34.1083 18.5672 34.1083 18.7472V24.8544H28.6797V17.3901C28.6797 17.0196 28.6349 16.6559 28.5698 16.2962C28.4964 15.8826 28.38 15.4777 28.2223 15.0884C28.1925 15.0137 28.1545 14.9445 28.1219 14.8712C28.0635 14.7436 28.012 14.6147 27.9455 14.4912C28.5833 14.0976 29.2972 13.8914 30.0382 13.8914H32.7525C34.9972 13.8914 36.8239 15.7181 36.8239 17.9628L36.8225 24.8544Z" fill="black" fill-opacity="0.2"/>
<defs>
<linearGradient id="paint0_linear_3820_20532" x1="19.1797" y1="0.425781" x2="19.1797" y2="30.2829" gradientUnits="userSpaceOnUse">
<stop stop-color="#FF0F0F"/>
<stop offset="1" stop-color="#FF4849"/>
</linearGradient>
</defs>
</svg>