<svg width="38" height="38" viewBox="0 0 28 28" fill="none" xmlns="http://www.w3.org/2000/svg">
<path d="M13.9993 0.425781C6.51325 0.425781 0.423828 6.51603 0.423828 14.0017C0.423828 21.4873 6.51325 27.5766 13.9993 27.5766C21.4849 27.5766 27.5747 21.4873 27.5747 14.0017C27.5747 6.51603 21.485 0.425781 13.9993 0.425781ZM13.9993 25.4353C7.6943 25.4353 2.56511 20.3062 2.56511 14.0016C2.56511 7.69625 7.6943 2.56707 13.9993 2.56707C20.3042 2.56707 25.4334 7.69625 25.4334 14.0016C25.4334 20.3062 20.3042 25.4353 13.9993 25.4353Z" fill="url(#paint0_linear_1_5)"/>
<path d="M13.9993 0.425781C6.51325 0.425781 0.423828 6.51603 0.423828 14.0017C0.423828 21.4873 6.51325 27.5766 13.9993 27.5766C21.4849 27.5766 27.5747 21.4873 27.5747 14.0017C27.5747 6.51603 21.485 0.425781 13.9993 0.425781ZM13.9993 25.4353C7.6943 25.4353 2.56511 20.3062 2.56511 14.0016C2.56511 7.69625 7.6943 2.56707 13.9993 2.56707C20.3042 2.56707 25.4334 7.69625 25.4334 14.0016C25.4334 20.3062 20.3042 25.4353 13.9993 25.4353Z" fill="black" fill-opacity="0.2"/>
<path d="M11.8527 11.3411C11.8527 10.4823 13.1088 10.3356 14.1984 10.3356C15.2254 10.3356 16.6286 10.8169 17.802 11.4252L18.0319 9.05802C17.4451 8.72255 16.0839 8.32445 14.7012 8.24125L15.0363 5.83203H12.7948L13.1303 8.24125C10.2398 8.51318 9.29688 10.1889 9.29688 11.5925C9.29688 15.1325 15.8948 14.3792 15.8948 16.5569C15.8948 17.3745 15.1204 17.6671 13.7584 17.6671C11.9154 17.6671 10.5323 17.0184 9.82064 16.3476L9.46416 19.0082C10.1351 19.4063 11.4959 19.7623 13.1303 19.8464L12.7948 22.1716H15.0363L14.7012 19.825C18.0946 19.5316 18.702 17.7298 18.702 16.5363C18.7021 12.3261 11.8527 13.3729 11.8527 11.3411Z" fill="url(#paint1_linear_1_5)"/>
<path d="M11.8527 11.3411C11.8527 10.4823 13.1088 10.3356 14.1984 10.3356C15.2254 10.3356 16.6286 10.8169 17.802 11.4252L18.0319 9.05802C17.4451 8.72255 16.0839 8.32445 14.7012 8.24125L15.0363 5.83203H12.7948L13.1303 8.24125C10.2398 8.51318 9.29688 10.1889 9.29688 11.5925C9.29688 15.1325 15.8948 14.3792 15.8948 16.5569C15.8948 17.3745 15.1204 17.6671 13.7584 17.6671C11.9154 17.6671 10.5323 17.0184 9.82064 16.3476L9.46416 19.0082C10.1351 19.4063 11.4959 19.7623 13.1303 19.8464L12.7948 22.1716H15.0363L14.7012 19.825C18.0946 19.5316 18.702 17.7298 18.702 16.5363C18.7021 12.3261 11.8527 13.3729 11.8527 11.3411Z" fill="black" fill-opacity="0.2"/>
<defs>
<linearGradient id="paint0_linear_1_5" x1="13.9993" y1="0.425781" x2="13.9993" y2="27.5766" gradientUnits="userSpaceOnUse">
<stop stop-color="#FF0F0F"/>
<stop offset="1" stop-color="#FF4849"/>
</linearGradient>
<linearGradient id="paint1_linear_1_5" x1="13.9994" y1="5.83203" x2="13.9994" y2="22.1716" gradientUnits="userSpaceOnUse">
<stop stop-color="#FF0F0F"/>
<stop offset="1" stop-color="#FF4849"/>
</linearGradient>
</defs>
</svg>