 <svg width="38" height="38" viewBox="0 0 29 29" fill="none"
                                xmlns="http://www.w3.org/2000/svg">
                                <mask id="path-1-inside-1_5422_29147" fill="white">
                                    <path
                                        d="M28.4931 3.67595L24.2181 0.825945C24.1112 0.754695 23.9628 0.784383 23.8916 0.891256C23.8678 0.932819 23.85 0.974379 23.85 1.02188V2.68438H14.7061C7.68806 2.68438 2 8.37244 2 15.3905V21.4466H2.475V15.3905C2.475 8.64549 7.96111 3.15938 14.7061 3.15938H24.0872C24.2179 3.15938 24.3247 3.0525 24.3247 2.92188V1.46718L27.9347 3.87188L24.3247 6.27657V4.82188C24.3247 4.69126 24.2179 4.58438 24.0872 4.58438H14.825C8.7982 4.58438 3.9 9.4828 3.9 15.5094V21.4472H4.375V15.5094C4.375 9.75021 9.06561 5.05938 14.825 5.05938H23.85V6.72188C23.85 6.8525 23.9569 6.95938 24.0875 6.95938C24.135 6.95938 24.1825 6.9475 24.2181 6.91782L28.4931 4.06782C28.6 3.99657 28.6297 3.84813 28.5584 3.74126C28.5406 3.71157 28.5228 3.69376 28.4931 3.67595Z" />
                                </mask>
                                <path
                                    d="M28.4931 3.67595L-44.1726 112.675L-41.5781 114.404L-38.9043 116.008L28.4931 3.67595ZM24.2181 0.825945L96.8838 -108.173L96.8826 -108.173L24.2181 0.825945ZM23.8916 0.891256L-85.1065 -71.7752L-87.6094 -68.0209L-89.8481 -64.1033L23.8916 0.891256ZM23.85 2.68438V133.684H154.85V2.68438H23.85ZM2 21.4466H-129V152.447H2V21.4466ZM2.475 21.4466V152.447H133.475V21.4466H2.475ZM24.3247 1.46718L96.9492 -107.559L-106.675 -243.197V1.46718H24.3247ZM27.9347 3.87188L100.559 112.898L264.232 3.87187L100.559 -105.154L27.9347 3.87188ZM24.3247 6.27657H-106.675V250.941L96.9492 115.303L24.3247 6.27657ZM3.9 21.4472H-127.1V152.447H3.9V21.4472ZM4.375 21.4472V152.447H135.375V21.4472H4.375ZM23.85 5.05938H154.85V-125.941H23.85V5.05938ZM24.2181 6.91782L-48.4476 -102.081L-54.272 -98.1979L-59.6494 -93.7164L24.2181 6.91782ZM28.4931 4.06782L-44.1713 -104.932L-44.1726 -104.931L28.4931 4.06782ZM28.5584 3.74126L-83.7739 71.139L-82.1693 73.8133L-80.4393 76.4083L28.5584 3.74126ZM101.159 -105.323L96.8838 -108.173L-48.4476 109.825L-44.1726 112.675L101.159 -105.323ZM96.8826 -108.173C36.5779 -148.376 -44.9031 -132.079 -85.1065 -71.7752L132.89 73.5577C92.8287 133.648 11.6446 149.885 -48.4463 109.825L96.8826 -108.173ZM-89.8481 -64.1033C-93.8015 -57.1848 -107.15 -33.1257 -107.15 1.02188H154.85C154.85 35.0744 141.537 59.0505 137.631 65.8858L-89.8481 -64.1033ZM-107.15 1.02188V2.68438H154.85V1.02188H-107.15ZM23.85 -128.316H14.7061V133.684H23.85V-128.316ZM14.7061 -128.316C-64.6613 -128.316 -129 -63.9768 -129 15.3905H133C133 80.7217 80.0374 133.684 14.7061 133.684V-128.316ZM-129 15.3905V21.4466H133V15.3905H-129ZM2 152.447H2.475V-109.553H2V152.447ZM133.475 21.4466V15.3905H-128.525V21.4466H133.475ZM133.475 15.3905C133.475 80.9948 80.3104 134.159 14.7061 134.159V-127.841C-64.3882 -127.841 -128.525 -63.7038 -128.525 15.3905H133.475ZM14.7061 134.159H24.0872V-127.841H14.7061V134.159ZM24.0872 134.159C96.567 134.159 155.325 75.4019 155.325 2.92188H-106.675C-106.675 -69.2969 -48.1313 -127.841 24.0872 -127.841V134.159ZM155.325 2.92188V1.46718H-106.675V2.92188H155.325ZM-48.2998 110.493L-44.6898 112.898L100.559 -105.154L96.9492 -107.559L-48.2998 110.493ZM-44.6898 -105.154L-48.2998 -102.749L96.9492 115.303L100.559 112.898L-44.6898 -105.154ZM155.325 6.27657V4.82188H-106.675V6.27657H155.325ZM155.325 4.82188C155.325 -67.658 96.5672 -126.416 24.0872 -126.416V135.584C-48.1315 135.584 -106.675 77.0406 -106.675 4.82188H155.325ZM24.0872 -126.416H14.825V135.584H24.0872V-126.416ZM14.825 -126.416C-63.5528 -126.416 -127.1 -62.8648 -127.1 15.5094H134.9C134.9 81.8304 81.1492 135.584 14.825 135.584V-126.416ZM-127.1 15.5094V21.4472H134.9V15.5094H-127.1ZM3.9 152.447H4.375V-109.553H3.9V152.447ZM135.375 21.4472V15.5094H-126.625V21.4472H135.375ZM135.375 15.5094C135.375 82.0977 81.4167 136.059 14.825 136.059V-125.941C-63.2855 -125.941 -126.625 -62.5973 -126.625 15.5094H135.375ZM14.825 136.059H23.85V-125.941H14.825V136.059ZM-107.15 5.05938V6.72188H154.85V5.05938H-107.15ZM-107.15 6.72188C-107.15 79.2018 -48.3924 137.959 24.0875 137.959V-124.041C96.3062 -124.041 154.85 -65.4968 154.85 6.72188H-107.15ZM24.0875 137.959C43.5974 137.959 77.1469 133.336 108.086 107.552L-59.6494 -93.7164C-28.7819 -119.441 4.67256 -124.041 24.0875 -124.041V137.959ZM96.8839 115.916L101.159 113.066L-44.1726 -104.931L-48.4476 -102.081L96.8839 115.916ZM101.158 113.067C161.465 72.8631 177.76 -8.62124 137.556 -68.9257L-80.4393 76.4083C-120.501 16.3175 -104.265 -64.87 -44.1713 -104.932L101.158 113.067ZM140.891 -63.6565C129.807 -82.1303 114.355 -97.5784 95.8906 -108.657L-38.9043 116.008C-45.7423 111.906 -54.8275 105.608 -64.0977 96.3382C-73.3683 87.0682 -79.6684 77.9817 -83.7739 71.139L140.891 -63.6565Z"
                                    fill="url(#paint0_linear_5422_29147)" mask="url(#path-1-inside-1_5422_29147)" />
                                <mask id="path-3-inside-2_5422_29147" fill="white">
                                    <path
                                        d="M15.5346 22.6345C19.8571 22.6345 23.3724 19.1195 23.3724 14.7968C23.3724 10.474 19.8574 6.95898 15.5346 6.95898H13.6346C9.31215 6.95898 5.79688 10.474 5.79688 14.7968C5.79688 19.1195 9.31188 22.6345 13.6346 22.6345H15.5346ZM16.4846 22.1002C17.7256 21.6133 18.824 20.8177 19.679 19.7845H20.9496C19.774 21.0552 18.1946 21.8745 16.4846 22.1002ZM21.3475 19.3095H20.0412C20.4569 18.7217 20.7834 18.0864 21.0268 17.4095H22.4221C22.155 18.0923 21.7987 18.7336 21.3475 19.3095ZM22.5825 16.9345H21.1753C21.3534 16.317 21.4484 15.6758 21.4662 15.0345H22.8912C22.8734 15.6817 22.7665 16.317 22.5825 16.9345ZM22.8912 14.5595H21.4662C21.4484 13.9183 21.3475 13.277 21.1753 12.6595H22.5825C22.7665 13.277 22.8734 13.9123 22.8912 14.5595ZM21.3474 10.2845C21.7987 10.8605 22.1549 11.5017 22.4162 12.1845H21.0209C20.7834 11.5077 20.4509 10.8723 20.0353 10.2845H21.3474ZM20.9437 9.80954H19.6731C18.824 8.78234 17.7256 7.98076 16.4787 7.49393C18.1946 7.71955 19.774 8.53893 20.9437 9.80954ZM6.27188 14.797C6.27188 10.7298 9.56718 7.43481 13.6341 7.43481C17.701 7.43481 20.9963 10.7301 20.9963 14.797C20.9963 18.864 17.701 22.1593 13.6341 22.1593C9.56691 22.1533 6.2773 18.864 6.27188 14.797Z" />
                                </mask>
                                <path
                                    d="M16.4846 22.1002L-31.3626 -99.8492L33.6198 151.975L16.4846 22.1002ZM19.679 19.7845V-111.215H-41.9494L-81.2421 -63.7375L19.679 19.7845ZM20.9496 19.7845L117.106 108.751L320.626 -111.215L20.9496 -111.215V19.7845ZM21.3475 19.3095V150.31H85.1251L124.462 100.108L21.3475 19.3095ZM20.0412 19.3095L-86.9215 -56.321L-233.025 150.31H20.0412V19.3095ZM21.0268 17.4095V-113.59H-71.0771L-102.245 -26.9203L21.0268 17.4095ZM22.4221 17.4095L144.415 65.1465L214.356 -113.59H22.4221V17.4095ZM22.5825 16.9345V147.935H120.23L148.124 54.3553L22.5825 16.9345ZM21.1753 16.9345L-104.693 -19.373L-152.954 147.935L21.1753 147.935V16.9345ZM21.4662 15.0345V-115.965H-105.944L-109.483 11.3961L21.4662 15.0345ZM22.8912 15.0345L153.842 18.6386L157.546 -115.965L22.8912 -115.965V15.0345ZM22.8912 14.5595V145.56H157.546L153.842 10.9557L22.8912 14.5595ZM21.4662 14.5595L-109.483 18.1971L-105.945 145.56L21.4662 145.56V14.5595ZM21.1753 12.6595V-118.34H-151.352L-105.011 47.8463L21.1753 12.6595ZM22.5825 12.6595L148.124 -24.7612L120.23 -118.34H22.5825V12.6595ZM21.3474 10.2845L124.464 -70.5109L85.1274 -120.715H21.3474V10.2845ZM22.4162 12.1845V143.185H212.807L144.765 -34.6324L22.4162 12.1845ZM21.0209 12.1845L-102.591 55.5563L-71.8448 143.185H21.0209V12.1845ZM20.0353 10.2845V-120.715H-233.027L-86.9283 85.9138L20.0353 10.2845ZM20.9437 9.80954V140.81H319.596L117.323 -78.9149L20.9437 9.80954ZM19.6731 9.80954L-81.2973 93.272L-42.0026 140.81H19.6731V9.80954ZM16.4787 7.49393L33.5566 -122.388L-31.1661 129.523L16.4787 7.49393ZM6.27188 14.797H-124.728V14.8845L-124.728 14.9719L6.27188 14.797ZM13.6341 22.1593L13.4429 153.159L13.5385 153.159H13.6341V22.1593ZM15.5346 153.635C92.2035 153.635 154.372 91.4718 154.372 14.7968H-107.628C-107.628 -53.2327 -52.4892 -108.365 15.5346 -108.365V153.635ZM154.372 14.7968C154.372 -61.8753 92.2067 -124.041 15.5346 -124.041V137.959C-52.4919 137.959 -107.628 82.8233 -107.628 14.7968H154.372ZM15.5346 -124.041H13.6346V137.959H15.5346V-124.041ZM13.6346 -124.041C-63.0342 -124.041 -125.203 -61.8783 -125.203 14.7968H136.797C136.797 82.8262 81.6585 137.959 13.6346 137.959V-124.041ZM-125.203 14.7968C-125.203 91.4688 -63.0374 153.635 13.6346 153.635V-108.365C81.6612 -108.365 136.797 -53.2298 136.797 14.7968H-125.203ZM13.6346 153.635H15.5346V-108.365H13.6346V153.635ZM64.3319 144.05C86.312 135.426 105.648 121.373 120.6 103.307L-81.2421 -63.7375C-68.0004 -79.7376 -50.8609 -92.199 -31.3626 -99.8492L64.3319 144.05ZM19.679 150.785H20.9496V-111.215H19.679V150.785ZM-75.2062 -69.182C-55.7186 -90.2445 -29.3885 -103.983 -0.650542 -107.774L33.6198 151.975C65.7778 147.732 95.2666 132.355 117.106 108.751L-75.2062 -69.182ZM21.3475 -111.69H20.0412V150.31H21.3475V-111.69ZM127.004 94.9401C134.518 84.3125 140.22 73.0796 144.298 61.7394L-102.245 -26.9203C-98.6534 -36.9067 -93.6047 -46.8691 -86.9215 -56.321L127.004 94.9401ZM21.0268 148.41H22.4221V-113.59H21.0268V148.41ZM-99.5704 -30.3274C-95.5821 -40.5196 -89.8245 -51.2061 -81.7671 -61.4889L124.462 100.108C133.422 88.6734 139.892 76.7043 144.415 65.1465L-99.5704 -30.3274ZM22.5825 -114.065H21.1753V147.935H22.5825V-114.065ZM147.043 53.2421C150.461 41.3945 152.108 29.7342 152.416 18.673L-109.483 11.3961C-109.212 1.61735 -107.754 -8.76045 -104.693 -19.373L147.043 53.2421ZM21.4662 146.035H22.8912V-115.965H21.4662V146.035ZM-108.059 11.4305C-107.743 -0.0565998 -105.852 -10.7821 -102.959 -20.4862L148.124 54.3553C151.385 43.4162 153.49 31.4201 153.842 18.6386L-108.059 11.4305ZM22.8912 -116.44H21.4662V145.56H22.8912V-116.44ZM152.416 10.922C152.086 -0.936411 150.25 -12.1664 147.361 -22.5272L-105.011 47.8463C-107.555 38.7205 -109.189 28.773 -109.483 18.1971L152.416 10.922ZM21.1753 143.66H22.5825V-118.34H21.1753V143.66ZM-102.959 50.0803C-105.852 40.3764 -107.743 29.6508 -108.059 18.1634L153.842 10.9557C153.49 -1.82608 151.385 -13.8223 148.124 -24.7612L-102.959 50.0803ZM-81.7695 91.08C-89.818 80.8079 -95.771 69.8766 -99.9324 59.0015L144.765 -34.6324C140.081 -46.8732 133.415 -59.087 124.464 -70.5109L-81.7695 91.08ZM22.4162 -118.815H21.0209V143.185H22.4162V-118.815ZM144.633 -31.1872C140.197 -43.8301 134.126 -55.265 126.999 -65.3447L-86.9283 85.9138C-93.224 77.0097 -98.6299 66.8454 -102.591 55.5563L144.633 -31.1872ZM20.0353 141.285H21.3474V-120.715H20.0353V141.285ZM20.9437 -121.19H19.6731V140.81H20.9437V-121.19ZM120.643 -73.6529C105.812 -91.5959 86.4588 -105.814 64.1234 -114.535L-31.1661 129.523C-51.0076 121.776 -68.1637 109.161 -81.2973 93.272L120.643 -73.6529ZM-0.599238 137.376C-29.2739 133.606 -55.7775 119.888 -75.4356 98.534L117.323 -78.9149C95.3254 -102.81 65.6631 -118.167 33.5566 -122.388L-0.599238 137.376ZM137.272 14.797C137.272 83.0823 81.9133 138.435 13.6341 138.435V-123.565C-62.779 -123.565 -124.728 -61.6226 -124.728 14.797H137.272ZM13.6341 138.435C-54.6483 138.435 -110.004 83.0794 -110.004 14.797H151.996C151.996 -61.6192 90.0503 -123.565 13.6341 -123.565V138.435ZM-110.004 14.797C-110.004 -53.4853 -54.6483 -108.841 13.6341 -108.841V153.159C90.0504 153.159 151.996 91.2132 151.996 14.797H-110.004ZM13.8254 -108.841C81.9463 -108.741 137.181 -53.5353 137.272 14.6222L-124.728 14.9719C-124.626 91.2633 -62.8125 153.048 13.4429 153.159L13.8254 -108.841Z"
                                    fill="url(#paint1_linear_5422_29147)" mask="url(#path-3-inside-2_5422_29147)" />
                                <mask id="path-5-inside-3_5422_29147" fill="white">
                                    <path
                                        d="M26.7004 14.2031C26.7004 20.9481 21.2143 26.4343 14.4693 26.4343H5.08817C4.95754 26.4343 4.85067 26.5411 4.85067 26.6718V28.1265L1.24067 25.7218L4.85067 23.3171V24.7718C4.85067 24.9024 4.95754 25.0093 5.08817 25.0093H14.3504C20.3772 25.0093 25.2754 20.1108 25.2754 14.0843V8.14648H24.8004V14.0843C24.8004 19.8434 20.1098 24.5343 14.3504 24.5343H5.3254V22.8718C5.3254 22.7411 5.21852 22.6343 5.0879 22.6343C5.0404 22.6343 4.9929 22.6461 4.95727 22.6758L0.682273 25.5258C0.575395 25.5971 0.545712 25.7455 0.616962 25.8524C0.634774 25.8761 0.658524 25.8999 0.682273 25.9177L4.95727 28.7677C5.06415 28.8389 5.21258 28.8093 5.28383 28.7024C5.30758 28.6608 5.3254 28.6193 5.3254 28.5718V26.9093H14.4693C21.4873 26.9093 27.1754 21.2212 27.1754 14.2031V8.14703H26.7004V14.2031Z" />
                                </mask>
                                <path
                                    d="M4.85067 28.1265L-67.7738 137.153L135.851 272.791L135.851 28.1265H4.85067ZM1.24067 25.7218L-71.3838 -83.3043L-235.057 25.7218L-71.3838 134.748L1.24067 25.7218ZM4.85067 23.3171H135.851V-221.347L-67.7738 -85.709L4.85067 23.3171ZM25.2754 8.14648H156.275V-122.854H25.2754V8.14648ZM24.8004 8.14648V-122.854H-106.2V8.14648H24.8004ZM5.3254 24.5343H-125.675V155.534H5.3254V24.5343ZM4.95727 22.6758L77.623 131.674L83.4474 127.792L88.8248 123.31L4.95727 22.6758ZM0.682273 25.5258L73.3467 134.525L73.348 134.524L0.682273 25.5258ZM0.616962 25.8524L-108.381 98.5194L-106.364 101.544L-104.184 104.452L0.616962 25.8524ZM0.682273 25.9177L-77.9162 130.719L-75.0081 132.9L-71.9835 134.916L0.682273 25.9177ZM4.95727 28.7677L-67.7085 137.766L-67.7072 137.767L4.95727 28.7677ZM5.28383 28.7024L114.282 101.369L116.785 97.6145L119.024 93.6969L5.28383 28.7024ZM5.3254 26.9093V-104.091H-125.675V26.9093H5.3254ZM27.1754 8.14703H158.175V-122.853H27.1754V8.14703ZM26.7004 8.14703V-122.853H-104.3V8.14703H26.7004ZM-104.3 14.2031C-104.3 -51.4011 -51.135 -104.566 14.4693 -104.566V157.434C93.5636 157.434 157.7 93.2974 157.7 14.2031H-104.3ZM14.4693 -104.566H5.08817V157.434H14.4693V-104.566ZM5.08817 -104.566C-67.3918 -104.566 -126.149 -45.8082 -126.149 26.6718H135.851C135.851 98.8904 77.3069 157.434 5.08817 157.434V-104.566ZM-126.149 26.6718V28.1265H135.851V26.6718H-126.149ZM77.4751 -80.8996L73.8651 -83.3043L-71.3838 134.748L-67.7738 137.153L77.4751 -80.8996ZM73.8651 134.748L77.4751 132.343L-67.7738 -85.709L-71.3838 -83.3043L73.8651 134.748ZM-126.149 23.3171V24.7718H135.851V23.3171H-126.149ZM-126.149 24.7718C-126.149 97.2517 -67.3918 156.009 5.08817 156.009V-105.991C77.3069 -105.991 135.851 -47.4469 135.851 24.7718H-126.149ZM5.08817 156.009H14.3504V-105.991H5.08817V156.009ZM14.3504 156.009C92.7282 156.009 156.275 92.4584 156.275 14.0843H-105.725C-105.725 -52.2367 -51.9738 -105.991 14.3504 -105.991V156.009ZM156.275 14.0843V8.14648H-105.725V14.0843H156.275ZM25.2754 -122.854H24.8004V139.146H25.2754V-122.854ZM-106.2 8.14648V14.0843H155.8V8.14648H-106.2ZM-106.2 14.0843C-106.2 -52.5041 -52.2413 -106.466 14.3504 -106.466V155.534C92.4609 155.534 155.8 92.1909 155.8 14.0843H-106.2ZM14.3504 -106.466H5.3254V155.534H14.3504V-106.466ZM136.325 24.5343V22.8718H-125.675V24.5343H136.325ZM136.325 22.8718C136.325 -49.6082 77.5678 -108.366 5.0879 -108.366V153.634C-67.1308 153.634 -125.675 95.0904 -125.675 22.8718H136.325ZM5.0879 -108.366C-14.422 -108.366 -47.9715 -103.742 -78.9102 -77.9584L88.8248 123.31C57.9573 149.035 24.5028 153.634 5.0879 153.634V-108.366ZM-67.7085 -86.3228L-71.9835 -83.4728L73.348 134.524L77.623 131.674L-67.7085 -86.3228ZM-71.9822 -83.4736C-132.291 -43.269 -148.584 38.2156 -108.381 98.5194L109.615 -46.8146C149.676 13.2755 133.441 94.4631 73.3467 134.525L-71.9822 -83.4736ZM-104.184 104.452C-96.7193 114.404 -87.8739 123.251 -77.9162 130.719L79.2807 -78.8835C84.6754 -74.8376 89.32 -70.7023 93.2797 -66.7424C97.2395 -62.7825 101.373 -58.139 105.418 -52.7468L-104.184 104.452ZM-71.9835 134.916L-67.7085 137.766L77.623 -80.2309L73.348 -83.0809L-71.9835 134.916ZM-67.7072 137.767C-7.40442 177.968 74.0772 161.675 114.282 101.369L-103.714 -43.9641C-63.6521 -104.056 17.5327 -120.29 77.6217 -80.2317L-67.7072 137.767ZM119.024 93.6969C122.978 86.7765 136.325 62.718 136.325 28.5718H-125.675C-125.675 -5.47947 -112.363 -29.4549 -108.456 -36.2921L119.024 93.6969ZM136.325 28.5718V26.9093H-125.675V28.5718H136.325ZM5.3254 157.909H14.4693V-104.091H5.3254V157.909ZM14.4693 157.909C93.8367 157.909 158.175 93.5705 158.175 14.2031H-103.825C-103.825 -51.1281 -50.862 -104.091 14.4693 -104.091V157.909ZM158.175 14.2031V8.14703H-103.825V14.2031H158.175ZM27.1754 -122.853H26.7004V139.147H27.1754V-122.853ZM-104.3 8.14703V14.2031H157.7V8.14703H-104.3Z"
                                    fill="url(#paint2_linear_5422_29147)" mask="url(#path-5-inside-3_5422_29147)" />
                                <mask id="path-7-inside-4_5422_29147" fill="white">
                                    <path
                                        d="M15.3021 15.2715C15.3021 13.5021 14.1443 11.9346 12.4521 11.4121V10.7174C12.8202 10.5868 13.0161 10.1771 12.8855 9.80898C12.7846 9.52398 12.5174 9.33398 12.2146 9.33398H10.3146C9.92271 9.33398 9.60209 9.65461 9.60209 10.0465C9.60209 10.3493 9.79209 10.6165 10.0771 10.7174V11.4121C7.9455 12.0652 6.75209 14.3274 7.4052 16.459C8.05831 18.5906 10.3205 19.784 12.4521 19.1309C14.1443 18.6084 15.3021 17.0468 15.3021 15.2715ZM10.3146 9.80926H12.2146C12.3452 9.80926 12.4521 9.91613 12.4521 10.0468C12.4521 10.1774 12.3452 10.2843 12.2146 10.2843H10.3146C10.1839 10.2843 10.0771 10.1774 10.0771 10.0468C10.0771 9.91613 10.1839 9.80926 10.3146 9.80926ZM11.9771 10.7593V11.2996C11.508 11.2164 11.0211 11.2164 10.5521 11.2996V10.7593H11.9771ZM13.6099 17.9494C13.0221 18.466 12.2799 18.7747 11.5021 18.8222V17.6466H11.0271V18.8282C10.2493 18.7747 9.50707 18.4719 8.91926 17.9554L9.53084 17.3438L9.1924 17.0053L8.58082 17.6169C8.06426 17.0291 7.75552 16.2869 7.70802 15.5091H8.8896V15.0341H7.70802C7.76145 14.2563 8.06427 13.5141 8.58082 12.9263L9.1924 13.5379L9.53084 13.1995L8.91926 12.5879C10.2611 11.4123 12.268 11.4123 13.604 12.5879L12.9924 13.1995L13.3308 13.5379L13.9424 12.9263C14.459 13.5141 14.7677 14.2563 14.8152 15.0341H13.6396V15.5091H14.8212C14.7677 16.2869 14.4649 17.0291 13.9484 17.6169L13.3368 17.0053L12.9983 17.3438L13.6099 17.9494Z" />
                                </mask>
                                <path
                                    d="M12.4521 11.4121H-118.548V108.066L-26.1965 136.581L12.4521 11.4121ZM12.4521 10.7174L-31.3551 -112.741L-118.548 -81.8018V10.7174H12.4521ZM12.8855 9.80898L-110.598 53.5435L-110.584 53.5839L-110.57 53.6243L12.8855 9.80898ZM10.0771 10.7174H141.077V-81.8663L53.8032 -112.77L10.0771 10.7174ZM10.0771 11.4121L48.4541 136.665L141.077 108.285V11.4121H10.0771ZM12.4521 19.1309L50.8291 144.383L50.9649 144.342L51.1006 144.3L12.4521 19.1309ZM11.9771 10.7593H142.977V-120.241H11.9771V10.7593ZM11.9771 11.2996L-10.8813 140.29L142.977 167.555L142.977 11.2996H11.9771ZM10.5521 11.2996H-120.448V167.554L33.4094 140.29L10.5521 11.2996ZM10.5521 10.7593V-120.241H-120.448V10.7593H10.5521ZM13.6099 17.9494L100.085 116.352L205.553 23.6672L105.789 -75.1309L13.6099 17.9494ZM11.5021 18.8222H-119.498V158.066L19.4873 149.579L11.5021 18.8222ZM11.5021 17.6466H142.502V-113.353H11.5021V17.6466ZM11.0271 17.6466V-113.353H-119.973V17.6466H11.0271ZM11.0271 18.8282L2.04811 149.52L142.027 159.137V18.8282H11.0271ZM8.91926 17.9554L-83.7117 -74.6757L-182.512 24.1242L-77.5557 116.358L8.91926 17.9554ZM9.53084 17.3438L102.162 109.975L194.793 17.3437L102.162 -75.2873L9.53084 17.3438ZM9.1924 17.0053L101.823 -75.6258L9.1923 -168.257L-83.4386 -75.6257L9.1924 17.0053ZM8.58082 17.6169L-89.8214 104.092L2.41248 209.047L101.212 110.248L8.58082 17.6169ZM7.70802 15.5091V-115.491H-131.536L-123.048 23.4943L7.70802 15.5091ZM8.8896 15.5091V146.509H139.89V15.5091H8.8896ZM8.8896 15.0341H139.89V-115.966H8.8896V15.0341ZM7.70802 15.0341L-122.984 6.05517L-132.601 146.034H7.70802V15.0341ZM8.58082 12.9263L101.212 -79.7046L2.41203 -178.505L-89.8218 -73.5486L8.58082 12.9263ZM9.1924 13.5379L-83.4386 106.169L9.19224 198.8L101.823 106.169L9.1924 13.5379ZM9.53084 13.1995L102.162 105.831L194.793 13.1996L102.162 -79.4315L9.53084 13.1995ZM8.91926 12.5879L-77.4055 -85.9466L-182.663 6.26792L-83.7117 105.219L8.91926 12.5879ZM13.604 12.5879L106.235 105.219L204.967 6.48688L100.146 -85.7554L13.604 12.5879ZM12.9924 13.1995L-79.6387 -79.4315L-172.27 13.1995L-79.6386 105.83L12.9924 13.1995ZM13.3308 13.5379L-79.3002 106.169L13.3309 198.8L105.962 106.169L13.3308 13.5379ZM13.9424 12.9263L112.345 -73.5491L20.1107 -178.504L-78.6887 -79.7046L13.9424 12.9263ZM14.8152 15.0341V146.034H154.059L145.572 7.04893L14.8152 15.0341ZM13.6396 15.0341V-115.966H-117.36V15.0341H13.6396ZM13.6396 15.5091H-117.36V146.509H13.6396V15.5091ZM14.8212 15.5091L145.513 24.4881L155.13 -115.491H14.8212V15.5091ZM13.9484 17.6169L-78.6825 110.248L20.1173 209.048L112.351 104.092L13.9484 17.6169ZM13.3368 17.0053L105.968 -75.6258L13.3364 -168.257L-79.2944 -75.6254L13.3368 17.0053ZM12.9983 17.3438L-79.6329 -75.287L-172.715 17.7955L-79.1812 110.424L12.9983 17.3438ZM146.302 15.2715C146.302 -44.0575 107.604 -96.3104 51.1006 -113.757L-26.1965 136.581C-79.3152 120.18 -115.698 71.0617 -115.698 15.2715H146.302ZM143.452 11.4121V10.7174H-118.548V11.4121H143.452ZM56.2592 134.176C124.559 109.941 160.762 34.8031 136.341 -34.0064L-110.57 53.6243C-134.73 -14.4489 -98.9183 -88.7671 -31.3551 -112.741L56.2592 134.176ZM136.369 -33.9255C117.847 -86.2224 68.3174 -121.666 12.2146 -121.666V140.334C-43.2826 140.334 -92.2783 105.27 -110.598 53.5435L136.369 -33.9255ZM12.2146 -121.666H10.3146V140.334H12.2146V-121.666ZM10.3146 -121.666C-62.4266 -121.666 -121.398 -62.6947 -121.398 10.0465H140.602C140.602 82.0039 82.272 140.334 10.3146 140.334V-121.666ZM-121.398 10.0465C-121.398 66.1449 -85.9575 115.682 -33.649 134.204L53.8032 -112.77C105.542 -94.4492 140.602 -45.4463 140.602 10.0465H-121.398ZM-120.923 10.7174V11.4121H141.077V10.7174H-120.923ZM-28.3 -113.84C-99.992 -91.8742 -139.577 -16.0846 -117.847 54.836L132.658 -21.9181C153.081 44.7394 115.883 116.005 48.4541 136.665L-28.3 -113.84ZM-117.847 54.836C-95.8811 126.528 -20.0915 166.113 50.8291 144.383L-25.925 -106.122C40.7325 -126.545 111.998 -89.347 132.658 -21.9181L-117.847 54.836ZM51.1006 144.3C107.497 126.887 146.302 74.7183 146.302 15.2715H-115.698C-115.698 -40.6248 -79.208 -89.6698 -26.1964 -106.038L51.1006 144.3ZM10.3146 140.809H12.2146V-121.191H10.3146V140.809ZM12.2146 140.809C-60.0041 140.809 -118.548 82.2654 -118.548 10.0468H143.452C143.452 -62.4332 84.6945 -121.191 12.2146 -121.191V140.809ZM-118.548 10.0468C-118.548 -62.1719 -60.0041 -120.716 12.2146 -120.716V141.284C84.6945 141.284 143.452 82.5267 143.452 10.0468H-118.548ZM12.2146 -120.716H10.3146V141.284H12.2146V-120.716ZM10.3146 -120.716C82.5332 -120.716 141.077 -62.1719 141.077 10.0468H-120.923C-120.923 82.5267 -62.1654 141.284 10.3146 141.284V-120.716ZM141.077 10.0468C141.077 82.2654 82.5332 140.809 10.3146 140.809V-121.191C-62.1654 -121.191 -120.923 -62.4332 -120.923 10.0468H141.077ZM-119.023 10.7593V11.2996H142.977V10.7593H-119.023ZM34.8354 -117.691C19.2449 -120.454 3.28391 -120.453 -12.3053 -117.691L33.4094 140.29C18.7584 142.886 3.77111 142.886 -10.8813 140.29L34.8354 -117.691ZM141.552 11.2996V10.7593H-120.448V11.2996H141.552ZM10.5521 141.759H11.9771V-120.241H10.5521V141.759ZM-72.8656 -80.4528C-51.8887 -98.8872 -25.1072 -110.186 3.51687 -111.934L19.4873 149.579C49.6669 147.736 77.9329 135.819 100.085 116.352L-72.8656 -80.4528ZM142.502 18.8222V17.6466H-119.498V18.8222H142.502ZM11.5021 -113.353H11.0271V148.647H11.5021V-113.353ZM-119.973 17.6466V18.8282H142.027V17.6466H-119.973ZM20.006 -111.864C47.2466 -109.992 73.9027 -99.3337 95.3942 -80.4473L-77.5557 116.358C-54.8886 136.278 -26.7481 147.542 2.04811 149.52L20.006 -111.864ZM101.55 110.586L102.162 109.975L-83.1001 -75.2873L-83.7117 -74.6757L101.55 110.586ZM102.162 -75.2873L101.823 -75.6258L-83.4385 109.636L-83.1 109.975L102.162 -75.2873ZM-83.4386 -75.6257L-84.0502 -75.0141L101.212 110.248L101.823 109.636L-83.4386 -75.6257ZM106.983 -68.8585C125.417 -47.8817 136.716 -21.1001 138.464 7.52393L-123.048 23.4943C-121.205 53.674 -109.289 81.9399 -89.8214 104.092L106.983 -68.8585ZM7.70802 146.509H8.8896V-115.491H7.70802V146.509ZM139.89 15.5091V15.0341H-122.11V15.5091H139.89ZM8.8896 -115.966H7.70802V146.034H8.8896V-115.966ZM138.4 24.0131C136.528 51.2537 125.87 77.9098 106.983 99.4013L-89.8218 -73.5486C-109.741 -50.8815 -121.006 -22.7411 -122.984 6.05517L138.4 24.0131ZM-84.0502 105.557L-83.4386 106.169L101.823 -79.093L101.212 -79.7046L-84.0502 105.557ZM101.823 106.169L102.162 105.831L-83.1 -79.4316L-83.4385 -79.0932L101.823 106.169ZM102.162 -79.4315L101.55 -80.0431L-83.7117 105.219L-83.1001 105.83L102.162 -79.4315ZM95.244 111.122C47.2865 153.137 -24.6847 153.395 -72.9385 110.931L100.146 -85.7554C49.2208 -130.57 -26.7642 -130.313 -77.4055 -85.9466L95.244 111.122ZM-79.0271 -80.043L-79.6387 -79.4315L105.623 105.83L106.235 105.219L-79.0271 -80.043ZM-79.6386 105.83L-79.3002 106.169L105.962 -79.0931L105.623 -79.4315L-79.6386 105.83ZM105.962 106.169L106.573 105.557L-78.6887 -79.7046L-79.3002 -79.093L105.962 106.169ZM-84.4598 99.4018C-102.894 78.4249 -114.193 51.6434 -115.941 23.0193L145.572 7.04893C143.729 -23.1307 131.812 -51.3967 112.345 -73.5491L-84.4598 99.4018ZM14.8152 -115.966H13.6396V146.034H14.8152V-115.966ZM-117.36 15.0341V15.5091H144.64V15.0341H-117.36ZM13.6396 146.509H14.8212V-115.491H13.6396V146.509ZM-115.871 6.53017C-113.999 -20.7104 -103.341 -47.3665 -84.4543 -68.858L112.351 104.092C132.271 81.4247 143.535 53.2842 145.513 24.4881L-115.871 6.53017ZM106.579 -75.0142L105.968 -75.6258L-79.2941 109.636L-78.6825 110.248L106.579 -75.0142ZM-79.2944 -75.6254L-79.6329 -75.287L105.63 109.975L105.968 109.636L-79.2944 -75.6254ZM-79.1812 110.424L-78.5697 111.03L105.789 -75.1309L105.178 -75.7365L-79.1812 110.424Z"
                                    fill="url(#paint3_linear_5422_29147)" mask="url(#path-7-inside-4_5422_29147)" />
                                <mask id="path-9-inside-5_5422_29147" fill="white">
                                    <path
                                        d="M11.0257 15.1709L9.67188 16.5247L10.0103 16.8631L11.4353 15.4381C11.4828 15.3906 11.5066 15.3312 11.5066 15.2719V12.4219H11.0316V15.171L11.0257 15.1709Z" />
                                </mask>
                                <path
                                    d="M11.0257 15.1709L12.0904 -115.825L-42.7945 -116.271L-81.6053 -77.4601L11.0257 15.1709ZM9.67188 16.5247L-82.9591 -76.1064L-175.59 16.5246L-82.9591 109.156L9.67188 16.5247ZM10.0103 16.8631L-82.6207 109.494L10.0103 202.125L102.641 109.494L10.0103 16.8631ZM11.5066 12.4219H142.507V-118.578H11.5066V12.4219ZM11.0316 12.4219V-118.578H-119.968V12.4219H11.0316ZM11.0316 15.171L9.96686 146.167L142.032 147.24V15.171H11.0316ZM-81.6053 -77.4601L-82.9591 -76.1064L102.303 109.156L103.657 107.802L-81.6053 -77.4601ZM-82.9591 109.156L-82.6207 109.494L102.641 -75.7679L102.303 -76.1063L-82.9591 109.156ZM102.641 109.494L104.066 108.069L-81.1957 -77.1929L-82.6207 -75.7679L102.641 109.494ZM104.066 108.069C127.898 84.2377 142.507 51.167 142.507 15.2719H-119.493C-119.493 -20.5045 -104.932 -53.4565 -81.1957 -77.1929L104.066 108.069ZM142.507 15.2719V12.4219H-119.493V15.2719H142.507ZM11.5066 -118.578H11.0316V143.422H11.5066V-118.578ZM-119.968 12.4219V15.171H142.032V12.4219H-119.968ZM12.0963 -115.825L12.0904 -115.825L9.96095 146.167L9.96686 146.167L12.0963 -115.825Z"
                                    fill="url(#paint4_linear_5422_29147)" mask="url(#path-9-inside-5_5422_29147)" />
                                <mask id="path-11-inside-6_5422_29147" fill="white">
                                    <path
                                        d="M16.2491 15.271C16.255 16.6426 15.685 17.9607 14.6875 18.8988L15.0141 19.2432C15.2991 18.976 15.5544 18.6791 15.7741 18.3585H17.9116V17.8835H16.065C16.2312 17.5807 16.3678 17.2601 16.4687 16.9335H18.3865V16.4585H16.5934C16.6647 16.1438 16.7003 15.8291 16.7181 15.5085H18.8615V15.0335H16.7181C16.7003 14.5466 16.6172 14.0716 16.4687 13.6085H19.3366V13.1335H16.2906C16.1481 12.801 15.9759 12.4804 15.7681 12.1835H18.8616V11.7085H15.4059C15.2813 11.566 15.1506 11.4295 15.0141 11.2988L14.6875 11.6432C15.685 12.5813 16.255 13.8994 16.2491 15.271Z" />
                                </mask>
                                <path
                                    d="M16.2491 15.271L-114.75 14.7059L-114.752 15.272L-114.75 15.8381L16.2491 15.271ZM14.6875 18.8988L-75.0591 -76.5294L-170.882 13.588L-80.3699 109.038L14.6875 18.8988ZM15.0141 19.2432L-80.0433 109.383L9.58414 203.9L104.611 114.812L15.0141 19.2432ZM15.7741 18.3585V-112.641H-53.2657L-92.2904 -55.6892L15.7741 18.3585ZM17.9116 18.3585V149.359H148.912V18.3585H17.9116ZM17.9116 17.8835H148.912V-113.116H17.9116V17.8835ZM16.065 17.8835L-98.7667 -45.1616L-205.302 148.884H16.065V17.8835ZM16.4687 16.9335V-114.066H-80.1567L-108.69 -21.7499L16.4687 16.9335ZM18.3865 16.9335V147.934H149.387V16.9335H18.3865ZM18.3865 16.4585H149.387V-114.541H18.3865V16.4585ZM16.5934 16.4585L-111.173 -12.4695L-147.383 147.459H16.5934V16.4585ZM16.7181 15.5085V-115.491H-107.206L-114.08 8.24219L16.7181 15.5085ZM18.8615 15.5085V146.509H149.862V15.5085H18.8615ZM18.8615 15.0335H149.862V-115.966H18.8615V15.0335ZM16.7181 15.0335L-114.194 19.8229L-109.577 146.034L16.7181 146.034V15.0335ZM16.4687 13.6085V-117.391H-163.085L-108.28 53.5936L16.4687 13.6085ZM19.3366 13.6085V144.609H150.337V13.6085H19.3366ZM19.3366 13.1335H150.337V-117.866H19.3366V13.1335ZM16.2906 13.1335L-104.117 64.7369L-70.0903 144.134H16.2906V13.1335ZM15.7681 12.1835V-118.816H-235.83L-91.5531 87.3045L15.7681 12.1835ZM18.8616 12.1835V143.184H149.862V12.1835H18.8616ZM18.8616 11.7085H149.862V-119.291H18.8616V11.7085ZM15.4059 11.7085L-83.1811 97.9732L-44.0373 142.709H15.4059V11.7085ZM15.0141 11.2988L105.564 -83.3677L10.4868 -174.31L-80.0433 -78.8405L15.0141 11.2988ZM14.6875 11.6432L-80.3699 -78.4961L-170.882 16.954L-75.0591 107.071L14.6875 11.6432ZM-114.75 15.8381C-114.902 -19.3259 -100.384 -52.7127 -75.0591 -76.5294L104.434 114.327C131.754 88.6341 147.412 52.6111 147.248 14.7039L-114.75 15.8381ZM-80.3699 109.038L-80.0433 109.383L110.071 -70.8961L109.745 -71.2405L-80.3699 109.038ZM104.611 114.812C111.727 108.141 118.194 100.644 123.839 92.4063L-92.2904 -55.6892C-87.0853 -63.2856 -81.1287 -70.1888 -74.5825 -76.3259L104.611 114.812ZM15.7741 149.359H17.9116V-112.641H15.7741V149.359ZM148.912 18.3585V17.8835H-113.088V18.3585H148.912ZM17.9116 -113.116H16.065V148.884H17.9116V-113.116ZM130.897 80.9286C135.221 73.0519 138.856 64.5829 141.627 55.6169L-108.69 -21.7499C-106.12 -30.0627 -102.759 -37.8905 -98.7667 -45.1616L130.897 80.9286ZM16.4687 147.934H18.3865V-114.066H16.4687V147.934ZM149.387 16.9335V16.4585H-112.613V16.9335H149.387ZM18.3865 -114.541H16.5934V147.459H18.3865V-114.541ZM144.36 45.3866C146.507 35.9003 147.23 27.9388 147.516 22.7748L-114.08 8.24219C-113.829 3.71942 -113.178 -3.61268 -111.173 -12.4695L144.36 45.3866ZM16.7181 146.509H18.8615V-115.491H16.7181V146.509ZM149.862 15.5085V15.0335H-112.138V15.5085H149.862ZM18.8615 -115.966H16.7181V146.034H18.8615V-115.966ZM147.631 10.2441C147.176 -2.17883 145.025 -14.4969 141.217 -26.3765L-108.28 53.5936C-111.791 42.6402 -113.775 31.2721 -114.194 19.8229L147.631 10.2441ZM16.4687 144.609H19.3366V-117.391H16.4687V144.609ZM150.337 13.6085V13.1335H-111.663V13.6085H150.337ZM19.3366 -117.866H16.2906V144.134H19.3366V-117.866ZM136.699 -38.4699C133.548 -45.8221 129.18 -54.2367 123.089 -62.9374L-91.5531 87.3045C-97.2277 79.1975 -101.251 71.4241 -104.117 64.7369L136.699 -38.4699ZM15.7681 143.184H18.8616V-118.816H15.7681V143.184ZM149.862 12.1835V11.7085H-112.138V12.1835H149.862ZM18.8616 -119.291H15.4059V142.709H18.8616V-119.291ZM113.993 -74.5561C111.32 -77.6105 108.509 -80.5509 105.564 -83.3677L-75.5357 105.965C-78.2073 103.41 -80.7579 100.743 -83.1811 97.9732L113.993 -74.5561ZM-80.0433 -78.8405L-80.3699 -78.4961L109.745 101.783L110.071 101.438L-80.0433 -78.8405ZM-75.0591 107.071C-100.384 83.254 -114.901 49.8674 -114.75 14.7059L147.248 15.8362C147.411 -22.0685 131.754 -58.0913 104.434 -83.785L-75.0591 107.071Z"
                                    fill="url(#paint5_linear_5422_29147)" mask="url(#path-11-inside-6_5422_29147)" />
                                <mask id="path-13-inside-7_5422_29147" fill="white">
                                    <path d="M19.3359 15.0352H20.2859V15.5102H19.3359V15.0352Z" />
                                </mask>
                                <path
                                    d="M19.3359 15.0352V-115.965H-111.664V15.0352H19.3359ZM20.2859 15.0352H151.286V-115.965H20.2859V15.0352ZM20.2859 15.5102V146.51H151.286V15.5102H20.2859ZM19.3359 15.5102H-111.664V146.51H19.3359V15.5102ZM19.3359 146.035H20.2859V-115.965H19.3359V146.035ZM-110.714 15.0352V15.5102H151.286V15.0352H-110.714ZM20.2859 -115.49H19.3359V146.51H20.2859V-115.49ZM150.336 15.5102V15.0352H-111.664V15.5102H150.336Z"
                                    fill="url(#paint6_linear_5422_29147)" mask="url(#path-13-inside-7_5422_29147)" />
                                <mask id="path-15-inside-8_5422_29147" fill="white">
                                    <path d="M18.3906 17.8848H19.3406V18.3598H18.3906V17.8848Z" />
                                </mask>
                                <path
                                    d="M18.3906 17.8848V-113.115H-112.609V17.8848H18.3906ZM19.3406 17.8848H150.341V-113.115H19.3406V17.8848ZM19.3406 18.3598V149.36H150.341V18.3598H19.3406ZM18.3906 18.3598H-112.609V149.36H18.3906V18.3598ZM18.3906 148.885H19.3406V-113.115H18.3906V148.885ZM-111.659 17.8848V18.3598H150.341V17.8848H-111.659ZM19.3406 -112.64H18.3906V149.36H19.3406V-112.64ZM149.391 18.3598V17.8848H-112.609V18.3598H149.391Z"
                                    fill="url(#paint7_linear_5422_29147)" mask="url(#path-15-inside-8_5422_29147)" />
                                <defs>
                                    <linearGradient id="paint0_linear_5422_29147" x1="22.7222" y1="0.787109"
                                        x2="22.6487" y2="25.8746" gradientUnits="userSpaceOnUse">
                                        <stop stop-color="#005CAA" />
                                        <stop offset="1" stop-color="#64B0F1" />
                                    </linearGradient>
                                    <linearGradient id="paint1_linear_5422_29147" x1="19.4901" y1="6.95898" x2="19.4261"
                                        y2="25.9938" gradientUnits="userSpaceOnUse">
                                        <stop stop-color="#005CAA" />
                                        <stop offset="1" stop-color="#64B0F1" />
                                    </linearGradient>
                                    <linearGradient id="paint2_linear_5422_29147" x1="21.3003" y1="8.14648" x2="21.2268"
                                        y2="33.234" gradientUnits="userSpaceOnUse">
                                        <stop stop-color="#005CAA" />
                                        <stop offset="1" stop-color="#64B0F1" />
                                    </linearGradient>
                                    <linearGradient id="paint3_linear_5422_29147" x1="13.5183" y1="9.33398" x2="13.4618"
                                        y2="21.4471" gradientUnits="userSpaceOnUse">
                                        <stop stop-color="#005CAA" />
                                        <stop offset="1" stop-color="#64B0F1" />
                                    </linearGradient>
                                    <linearGradient id="paint4_linear_5422_29147" x1="11.1013" y1="12.4219" x2="11.052"
                                        y2="17.8145" gradientUnits="userSpaceOnUse">
                                        <stop stop-color="#005CAA" />
                                        <stop offset="1" stop-color="#64B0F1" />
                                    </linearGradient>
                                    <linearGradient id="paint5_linear_5422_29147" x1="18.3096" y1="11.2988" x2="18.2474"
                                        y2="20.9454" gradientUnits="userSpaceOnUse">
                                        <stop stop-color="#005CAA" />
                                        <stop offset="1" stop-color="#64B0F1" />
                                    </linearGradient>
                                    <linearGradient id="paint6_linear_5422_29147" x1="20.0761" y1="15.0352" x2="20.075"
                                        y2="15.612" gradientUnits="userSpaceOnUse">
                                        <stop stop-color="#005CAA" />
                                        <stop offset="1" stop-color="#64B0F1" />
                                    </linearGradient>
                                    <linearGradient id="paint7_linear_5422_29147" x1="19.1308" y1="17.8848" x2="19.1297"
                                        y2="18.4616" gradientUnits="userSpaceOnUse">
                                        <stop stop-color="#005CAA" />
                                        <stop offset="1" stop-color="#64B0F1" />
                                    </linearGradient>
                                </defs>
                            </svg>