<svg width="38" height="38" viewBox="0 0 31 31" fill="none" xmlns="http://www.w3.org/2000/svg">
                                <path d="M23.5156 17.5137V2.51367C23.5147 1.85093 23.2511 1.21544 22.7826 0.7467C22.3138 0.278175 21.6784 0.0145862 21.0156 0.0136719H9.01563C8.35288 0.0145647 7.7174 0.27818 7.24865 0.7467C6.78013 1.21545 6.51654 1.85093 6.51562 2.51367V7.51367H7.51563V4.01367H22.5156V17.5137H23.5156ZM7.51563 3.01367V2.51367C7.51563 2.11591 7.67366 1.73419 7.95491 1.45299C8.23616 1.17179 8.61788 1.0137 9.0156 1.0137H21.0156C21.4134 1.0137 21.7951 1.17173 22.0763 1.45299C22.3575 1.73424 22.5156 2.11596 22.5156 2.51367V3.01367H7.51563Z" fill="url(#paint0_linear_5739_28697)"></path>
                                <path d="M7.51563 12.5137H6.51562V25.5137C6.51652 26.1764 6.78013 26.8119 7.24865 27.2806C7.7174 27.7492 8.35288 28.0128 9.01563 28.0137H12.5156V27.0137H9.01563C8.61786 27.0137 8.23614 26.8556 7.95494 26.5744C7.67374 26.2931 7.51565 25.9114 7.51565 25.5137V25.0137H13.0157V24.0137H7.51565L7.51563 12.5137Z" fill="url(#paint1_linear_5739_28697)"></path>
                                <path d="M8.51562 5.01367H9.51562V6.01367H8.51562V5.01367Z" fill="url(#paint2_linear_5739_28697)"></path>
                                <path d="M10.5156 5.01367H11.5156V6.01367H10.5156V5.01367Z" fill="url(#paint3_linear_5739_28697)"></path>
                                <path d="M12.5156 5.01367H13.5156V6.01367H12.5156V5.01367Z" fill="url(#paint4_linear_5739_28697)"></path>
                                <path d="M8.51652 15.0145C8.51852 16.7377 9.204 18.3899 10.4225 19.6085C11.641 20.827 13.2933 21.5125 15.0165 21.5145H16.0165V20.5145H15.0165C13.3942 20.5118 11.8562 19.7919 10.815 18.5479C9.77366 17.3039 9.33572 15.6631 9.61874 14.0658C9.90178 12.4682 10.8766 11.0778 12.2817 10.2671C13.6871 9.45634 15.3788 9.30863 16.9031 9.86351C18.4277 10.4182 19.6288 11.6187 20.1844 13.1428C20.7402 14.6669 20.5933 16.3586 19.7835 17.7644L20.65 18.2644C21.8076 16.2521 21.8052 13.7756 20.6438 11.7656C19.4824 9.75551 17.3379 8.51671 15.0165 8.51443H4.01652V7.51443C4.01674 7.32023 3.90446 7.14344 3.72879 7.06086C3.5529 6.97849 3.34509 7.0055 3.19598 7.12983L0.195979 9.62983C0.0816934 9.72492 0.015625 9.86576 0.015625 10.0144C0.015625 10.1631 0.0816934 10.3039 0.195979 10.399L3.19598 12.899C3.34509 13.0234 3.5529 13.0504 3.72879 12.968C3.90446 12.8854 4.01674 12.7086 4.01652 12.5144V11.5144H9.54195C8.87275 12.5591 8.51674 13.7738 8.51652 15.0145ZM3.51652 10.5145C3.2404 10.5145 3.01652 10.7383 3.01652 11.0145V11.447L1.29754 10.0145L3.01652 8.5819V9.01449C3.01652 9.14708 3.06919 9.27431 3.16294 9.36806C3.25669 9.46181 3.38393 9.51449 3.51652 9.51449H11.5668C11.117 9.79619 10.7037 10.1321 10.3358 10.5145L3.51652 10.5145Z" fill="url(#paint5_linear_5739_28697)"></path>
                                <path d="M10.5156 15.0137C10.5156 16.6213 11.3732 18.107 12.7656 18.9108C14.158 19.7145 15.8732 19.7145 17.2656 18.9108C18.658 18.107 19.5156 16.6213 19.5156 15.0137H18.5156C18.5156 15.942 18.1469 16.8322 17.4904 17.4885C16.8342 18.1449 15.944 18.5137 15.0156 18.5137C14.0872 18.5137 13.1971 18.1449 12.5408 17.4885C11.8844 16.8322 11.5156 15.9421 11.5156 15.0137C11.5156 14.0853 11.8844 13.1952 12.5408 12.5389C13.1971 11.8824 14.0872 11.5137 15.0156 11.5137V10.5137C13.8225 10.515 12.6788 10.9896 11.8351 11.8331C10.9915 12.6769 10.517 13.8206 10.5156 15.0137Z" fill="url(#paint6_linear_5739_28697)"></path>
                                <path d="M14.5156 12.5137V13.0137H14.0966C13.7515 13.0139 13.4274 13.1786 13.2239 13.4572C13.0205 13.736 12.9623 14.0949 13.0674 14.4235C13.1723 14.7523 13.4279 15.011 13.7551 15.1201L15.96 15.8556C15.998 15.8681 16.0212 15.9063 16.0149 15.9456C16.0087 15.9848 15.9745 16.0139 15.9346 16.0136H14.0967C14.075 16.0139 14.0545 16.0054 14.0393 15.99C14.0239 15.9748 14.0154 15.9543 14.0156 15.9326V15.5136H13.0156V15.9326C13.0161 16.2192 13.1301 16.494 13.3326 16.6967C13.5353 16.8991 13.81 17.0132 14.0966 17.0136H14.5156V17.5136H15.5156V17.0136H15.9346C16.2797 17.0134 16.6038 16.8487 16.8073 16.5701C17.0107 16.2913 17.0689 15.9324 16.9638 15.6038C16.8589 15.275 16.6033 15.0163 16.2761 14.9072L14.0712 14.1717C14.0332 14.1592 14.01 14.121 14.0163 14.0817C14.0225 14.0425 14.0567 14.0134 14.0966 14.0137H15.9346C15.9562 14.0134 15.9768 14.0219 15.9919 14.0373C16.0073 14.0525 16.0158 14.073 16.0156 14.0947V14.5137H17.0156V14.0947C17.0151 13.8081 16.9011 13.5333 16.6986 13.3306C16.4959 13.1282 16.2212 13.0141 15.9346 13.0137H15.5156V12.5137H14.5156Z" fill="url(#paint7_linear_5739_28697)"></path>
                                <path d="M26.8362 17.1298C26.6871 17.0055 26.4792 16.9785 26.3034 17.0609C26.1277 17.1434 26.0154 17.3202 26.0156 17.5144V18.5144H21.5156V19.5144H26.5156C26.6482 19.5144 26.7754 19.4617 26.8692 19.368C26.9629 19.2743 27.0156 19.147 27.0156 19.0144V18.5818L28.7341 20.0144L27.0156 21.447V21.0144C27.0156 20.8818 26.9629 20.7546 26.8692 20.6608C26.7754 20.5671 26.6482 20.5144 26.5156 20.5144H21.0156V21.5144H26.0156V22.5144C26.0158 22.7084 26.1279 22.8847 26.3036 22.9669C26.3699 22.9983 26.4424 23.0146 26.5156 23.0144C26.6326 23.0144 26.746 22.9735 26.8362 22.899L29.8362 20.399C29.9504 20.3039 30.0165 20.1631 30.0165 20.0144C30.0165 19.8657 29.9504 19.7249 29.8362 19.6298L26.8362 17.1298Z" fill="url(#paint8_linear_5739_28697)"></path>
                                <path d="M8.51562 20.5137V22.5137C8.51562 22.6463 8.5683 22.7735 8.66205 22.8672C8.7558 22.961 8.88304 23.0137 9.01563 23.0137H11.0156V22.0137H9.51563V20.5137H8.51562Z" fill="url(#paint9_linear_5739_28697)"></path>
                                <path d="M21.5156 9.51367V7.51367C21.5156 7.38108 21.4629 7.25385 21.3692 7.1601C21.2754 7.06635 21.1482 7.01367 21.0156 7.01367H19.0156V8.01367H20.5156V9.51367H21.5156Z" fill="url(#paint10_linear_5739_28697)"></path>
                                <path d="M24.7656 22.533C24.3292 22.4604 23.8833 22.5839 23.5462 22.8698C23.5362 22.8778 23.5268 22.8863 23.5167 22.8952L23.5165 22.8955C23.242 22.6488 22.8857 22.5124 22.5165 22.5124C22.1475 22.5124 21.7913 22.6488 21.5165 22.8955C21.1031 22.5408 20.5342 22.4281 20.0165 22.5979V20.0664C20.0212 19.7048 19.8984 19.3531 19.6699 19.0727C19.4415 18.7923 19.1216 18.6012 18.7665 18.5329C18.331 18.4588 17.8848 18.5809 17.5473 18.8662C17.2098 19.1515 17.0151 19.5709 17.0156 20.0128V26.13L15.6886 25.334C15.2834 25.0891 14.781 25.0704 14.3587 25.284L14.2797 25.323C13.846 25.5402 13.5578 25.9686 13.5198 26.4521C13.4821 26.9355 13.7002 27.4034 14.0946 27.6855L17.2252 29.921C17.31 29.9811 17.4116 30.0132 17.5156 30.013H25.5156C25.6482 30.013 25.7754 29.9603 25.8692 29.8666C25.9629 29.7728 26.0156 29.6456 26.0156 29.513V24.0666C26.0201 23.705 25.8975 23.3532 25.669 23.0728C25.4404 22.7924 25.1207 22.6014 24.7656 22.5331L24.7656 22.533ZM25.0156 29.013H17.6756L14.6756 26.8706C14.566 26.7927 14.5053 26.663 14.5156 26.5291C14.5258 26.3951 14.6055 26.2764 14.7256 26.2159L14.8042 26.1768L14.804 26.177C14.9207 26.1179 15.0598 26.123 15.1716 26.1909L17.2562 27.4409H17.256C17.4104 27.5349 17.6035 27.538 17.7611 27.4491C17.9185 27.3605 18.0158 27.1938 18.0156 27.013V20.013C18.0156 19.8661 18.0801 19.7266 18.1921 19.6315C18.3053 19.5344 18.4564 19.4938 18.603 19.5206C18.8526 19.5815 19.0251 19.8096 19.0156 20.0666V24.013C19.0156 24.2891 19.2394 24.513 19.5156 24.513C19.7917 24.513 20.0156 24.2891 20.0156 24.013C20.0156 23.7368 20.2394 23.513 20.5156 23.513C20.7917 23.513 21.0156 23.7368 21.0156 24.013C21.0156 24.2891 21.2394 24.513 21.5156 24.513C21.7917 24.513 22.0156 24.2891 22.0156 24.013C22.0156 23.7368 22.2394 23.513 22.5156 23.513C22.7917 23.513 23.0156 23.7368 23.0156 24.013C23.0156 24.2891 23.2394 24.513 23.5156 24.513C23.7917 24.513 24.0156 24.2891 24.0156 24.013C24.0156 23.865 24.081 23.7246 24.1943 23.6295C24.3077 23.5346 24.4573 23.4946 24.603 23.5205C24.8526 23.5815 25.0251 23.8096 25.0156 24.0665L25.0156 29.013Z" fill="url(#paint11_linear_5739_28697)"></path>
                                <defs>
                                    <linearGradient id="paint0_linear_5739_28697" x1="19.7605" y1="0.0136719" x2="19.6779" y2="21.2638" gradientUnits="userSpaceOnUse">
                                        <stop stop-color="#005CAA"></stop>
                                        <stop offset="1" stop-color="#64B0F1"></stop>
                                    </linearGradient>
                                    <linearGradient id="paint1_linear_5739_28697" x1="11.5799" y1="12.5137" x2="11.4105" y2="31.334" gradientUnits="userSpaceOnUse">
                                        <stop stop-color="#005CAA"></stop>
                                        <stop offset="1" stop-color="#64B0F1"></stop>
                                    </linearGradient>
                                    <linearGradient id="paint2_linear_5739_28697" x1="9.29473" y1="5.01367" x2="9.29015" y2="6.22797" gradientUnits="userSpaceOnUse">
                                        <stop stop-color="#005CAA"></stop>
                                        <stop offset="1" stop-color="#64B0F1"></stop>
                                    </linearGradient>
                                    <linearGradient id="paint3_linear_5739_28697" x1="11.2947" y1="5.01367" x2="11.2902" y2="6.22797" gradientUnits="userSpaceOnUse">
                                        <stop stop-color="#005CAA"></stop>
                                        <stop offset="1" stop-color="#64B0F1"></stop>
                                    </linearGradient>
                                    <linearGradient id="paint4_linear_5739_28697" x1="13.2947" y1="5.01367" x2="13.2902" y2="6.22797" gradientUnits="userSpaceOnUse">
                                        <stop stop-color="#005CAA"></stop>
                                        <stop offset="1" stop-color="#64B0F1"></stop>
                                    </linearGradient>
                                    <linearGradient id="paint5_linear_5739_28697" x1="16.7672" y1="7.01367" x2="16.7224" y2="24.622" gradientUnits="userSpaceOnUse">
                                        <stop stop-color="#005CAA"></stop>
                                        <stop offset="1" stop-color="#64B0F1"></stop>
                                    </linearGradient>
                                    <linearGradient id="paint6_linear_5739_28697" x1="17.5276" y1="10.5137" x2="17.4864" y2="21.4422" gradientUnits="userSpaceOnUse">
                                        <stop stop-color="#005CAA"></stop>
                                        <stop offset="1" stop-color="#64B0F1"></stop>
                                    </linearGradient>
                                    <linearGradient id="paint7_linear_5739_28697" x1="16.132" y1="12.5137" x2="16.1034" y2="18.585" gradientUnits="userSpaceOnUse">
                                        <stop stop-color="#005CAA"></stop>
                                        <stop offset="1" stop-color="#64B0F1"></stop>
                                    </linearGradient>
                                    <linearGradient id="paint8_linear_5739_28697" x1="28.0283" y1="17.0137" x2="28.01" y2="24.3004" gradientUnits="userSpaceOnUse">
                                        <stop stop-color="#005CAA"></stop>
                                        <stop offset="1" stop-color="#64B0F1"></stop>
                                    </linearGradient>
                                    <linearGradient id="paint9_linear_5739_28697" x1="10.4634" y1="20.5137" x2="10.4519" y2="23.5494" gradientUnits="userSpaceOnUse">
                                        <stop stop-color="#005CAA"></stop>
                                        <stop offset="1" stop-color="#64B0F1"></stop>
                                    </linearGradient>
                                    <linearGradient id="paint10_linear_5739_28697" x1="20.9634" y1="7.01367" x2="20.9519" y2="10.0494" gradientUnits="userSpaceOnUse">
                                        <stop stop-color="#005CAA"></stop>
                                        <stop offset="1" stop-color="#64B0F1"></stop>
                                    </linearGradient>
                                    <linearGradient id="paint11_linear_5739_28697" x1="23.2546" y1="18.5117" x2="23.2061" y2="32.4777" gradientUnits="userSpaceOnUse">
                                        <stop stop-color="#005CAA"></stop>
                                        <stop offset="1" stop-color="#64B0F1"></stop>
                                    </linearGradient>
                                </defs>
                            </svg>