<svg width="38" height="38" viewBox="0 0 32 32" fill="none" xmlns="http://www.w3.org/2000/svg">
<path d="M29 25.5451V24C29 22.6214 27.8786 21.5 26.5 21.5H16.5V18.5H24.5V16.5766L18.5 15.5766V14.5H23.5C24.8786 14.5 26 13.3786 26 12V3C26 1.62143 24.8786 0.5 23.5 0.5H8.5C7.12143 0.5 6 1.62143 6 3V12C6 13.3786 7.12143 14.5 8.5 14.5H13.5V15.5766L7.5 16.5766V18.5H15.5V21.5H5.5C4.12143 21.5 3 22.6214 3 24V25.5451C1.58349 25.7846 0.5 27.0165 0.5 28.5C0.5 30.1545 1.84554 31.5 3.5 31.5C5.15446 31.5 6.5 30.1545 6.5 28.5C6.5 27.0165 5.41651 25.7846 4 25.5451V24C4 23.173 4.67297 22.5 5.5 22.5H11.5V25.5451C10.0835 25.7842 9 27.0161 9 28.5C9 30.1545 10.3455 31.5 12 31.5C13.6545 31.5 15 30.1545 15 28.5C15 27.0165 13.9165 25.7846 12.5 25.5451V22.5H19.5V25.5451C18.0835 25.7842 17 27.0161 17 28.5C17 30.1545 18.3455 31.5 20 31.5C21.6545 31.5 23 30.1545 23 28.5C23 27.0165 21.9165 25.7846 20.5 25.5451V22.5H26.5C27.327 22.5 28 23.173 28 24V25.5451C26.5835 25.7842 25.5 27.0161 25.5 28.5C25.5 30.1545 26.8455 31.5 28.5 31.5C30.1545 31.5 31.5 30.1545 31.5 28.5C31.5 27.0165 30.4165 25.7846 29 25.5451ZM23.5 17.4234V17.4999H18.5V16.5899L23.5 17.4234ZM8.5 1.49994H23.5C24.327 1.49994 25 2.17291 25 2.99994V10.4999H7V2.99994C7 2.17291 7.67297 1.49994 8.5 1.49994ZM7 11.9999V11.4999H25V11.9999C25 12.827 24.327 13.4999 23.5 13.4999H8.5C7.67297 13.4999 7 12.827 7 11.9999ZM17.5 14.4999V17.4999H14.5V14.4999H17.5ZM8.5 17.4234L13.5 16.5903V17.4999H8.5V17.4234ZM5.5 28.4999C5.5 29.6029 4.60291 30.4999 3.5 30.4999C2.39709 30.4999 1.5 29.6029 1.5 28.4999C1.5 27.397 2.39709 26.4999 3.5 26.4999C4.60291 26.4999 5.5 27.397 5.5 28.4999ZM14 28.4999C14 29.6029 13.1029 30.4999 12 30.4999C10.8971 30.4999 10 29.6029 10 28.4999C10 27.397 10.8971 26.4999 12 26.4999C13.1029 26.4999 14 27.397 14 28.4999ZM22 28.4999C22 29.6029 21.1029 30.4999 20 30.4999C18.8971 30.4999 18 29.6029 18 28.4999C18 27.397 18.8971 26.4999 20 26.4999C21.1029 26.4999 22 27.397 22 28.4999ZM28.5 30.4999C27.3971 30.4999 26.5 29.6029 26.5 28.4999C26.5 27.397 27.3971 26.4999 28.5 26.4999C29.6029 26.4999 30.5 27.397 30.5 28.4999C30.5 29.6029 29.6029 30.4999 28.5 30.4999Z" fill="url(#paint0_linear_4105_33903)"/>
<path d="M22.5 8.5H21.5V6.5H19.5V5.5H17.5V4.5H15.5V3.5H13.5V2.5H10.5V8.5H9.5V9.5H22.5V8.5ZM20.5 7.5V8.5H19.5V7.5H20.5ZM18.5 6.5V8.5H17.5V6.5H18.5ZM16.5 5.5V8.5H15.5V5.5H16.5ZM14.5 4.5V8.5H13.5V4.5H14.5ZM11.5 3.5H12.5V8.5H11.5V3.5Z" fill="url(#paint1_linear_4105_33903)"/>
<defs>
<linearGradient id="paint0_linear_4105_33903" x1="24.6524" y1="0.5" x2="24.5103" y2="38.1431" gradientUnits="userSpaceOnUse">
<stop stop-color="#005CAA"/>
<stop offset="1" stop-color="#64B0F1"/>
</linearGradient>
<linearGradient id="paint1_linear_4105_33903" x1="19.6284" y1="2.5" x2="19.6112" y2="11.0001" gradientUnits="userSpaceOnUse">
<stop stop-color="#005CAA"/>
<stop offset="1" stop-color="#64B0F1"/>
</linearGradient>
</defs>
</svg>