<svg width="38" height="38" viewBox="0 0 30 32" fill="none" xmlns="http://www.w3.org/2000/svg">
<path d="M29.0834 19.9192C28.8075 19.4582 27.6754 18.0888 24.6977 19.8232L19.4868 22.8582C19.2488 22.9968 19.0069 23.0982 18.7555 23.1629C18.8433 23.0107 18.9125 22.8413 18.9622 22.656C19.2325 21.6473 18.6337 20.5944 17.5986 20.2589C17.5776 20.2522 17.5562 20.2466 17.5343 20.2428C16.039 19.9732 14.562 19.4393 13.3754 19.0103C12.9625 18.8609 12.5727 18.7199 12.2409 18.6123C10.8962 18.1759 9.68349 18.7145 8.67412 19.2989L4.82189 21.5292L4.47033 20.9078C4.12859 20.3044 3.36004 20.0911 2.75627 20.4328L1.29444 21.2605C1.0027 21.4254 0.792883 21.6951 0.702728 22.0194C0.612774 22.3437 0.654291 22.683 0.819471 22.9743L5.11793 30.5692C5.34896 30.9774 5.77553 31.2071 6.21456 31.2071C6.42416 31.2071 6.63665 31.1549 6.83199 31.0442L8.29404 30.2169C8.89759 29.8752 9.11079 29.1066 8.76904 28.5028L8.3398 27.7439L9.18957 27.2533L15.8519 29.0386C16.2226 29.1379 16.5912 29.1872 16.9539 29.1872C17.6876 29.1872 18.3963 28.9852 19.0438 28.5865L28.5004 22.7637C29.3747 22.2253 29.6528 20.8697 29.0834 19.9191L29.0834 19.9192ZM7.81028 29.3632L6.34822 30.1904C6.21764 30.2645 6.04487 30.2163 5.97099 30.0858L1.67299 22.4909C1.63705 22.4273 1.6279 22.3529 1.64799 22.2809C1.66807 22.2088 1.71405 22.1496 1.77723 22.1134L3.23928 21.2862C3.28102 21.2625 3.32701 21.2516 3.37299 21.2516C3.47031 21.2516 3.56629 21.3023 3.61673 21.3909L7.91496 28.9857C7.98907 29.1161 7.94108 29.2886 7.81028 29.3627V29.3632ZM27.9857 21.9289L18.5297 27.7518C17.7866 28.2091 16.971 28.3234 16.1056 28.0915L9.24673 26.2535C9.12107 26.2198 8.98713 26.2375 8.87464 26.3026L7.85635 26.8906L5.30504 22.383L9.16572 20.1477C10.0291 19.6477 10.9628 19.2288 11.9381 19.5455C12.2544 19.6482 12.6193 19.7799 13.0416 19.9328C14.2537 20.3712 15.7604 20.9154 17.3242 21.2018C17.8534 21.3877 18.1494 21.8988 18.0146 22.4024C17.8373 23.0647 17.284 23.1475 16.8429 23.0971C16.0766 22.9395 15.3483 22.7317 14.5773 22.5114C14.2113 22.4067 13.8327 22.2986 13.4434 22.1944C13.182 22.1243 12.913 22.2797 12.8427 22.541C12.7726 22.8026 12.928 23.0716 13.1893 23.1417C13.571 23.244 13.9456 23.3511 14.3081 23.4544C15.1039 23.6817 15.8554 23.8964 16.6655 24.062C16.6688 24.0627 16.6815 24.065 16.6851 24.0656L17.3331 24.171C18.309 24.327 19.1748 24.175 19.9804 23.706L25.1913 20.671C26.6764 19.806 27.817 19.7136 28.242 20.4237C28.534 20.9114 28.4047 21.671 27.986 21.929L27.9857 21.9289ZM3.64971 22.7289C3.69145 23.0142 3.49412 23.2791 3.20863 23.3208C2.92336 23.3626 2.65841 23.1653 2.61669 22.8798C2.57495 22.5945 2.77227 22.3295 3.05776 22.2878C3.34281 22.2463 3.60776 22.4438 3.64971 22.7289ZM9.64399 11.9615L10.898 12.4441C11.0799 13.1137 11.346 13.7554 11.6918 14.3583L11.146 15.5869C11.0636 15.7722 11.104 15.9891 11.2473 16.1329L12.969 17.8546C13.1127 17.9979 13.3293 18.0383 13.515 17.9559L14.7442 17.4099C15.3472 17.7552 15.9889 18.0213 16.6578 18.2032L17.1404 19.4574C17.2134 19.6467 17.3951 19.7717 17.598 19.7717H20.0326C20.2355 19.7717 20.4172 19.6467 20.4902 19.4574L20.9728 18.2034C21.6422 18.0215 22.2841 17.7555 22.887 17.4097L24.1156 17.9554C24.3013 18.0378 24.5179 17.9974 24.6616 17.8541L26.3833 16.1324C26.5266 15.9891 26.567 15.7722 26.4846 15.5865L25.9386 14.3574C26.2839 13.7545 26.55 13.1128 26.7319 12.4438L27.9862 11.9612C28.1754 11.8883 28.3004 11.7066 28.3004 11.5037V9.06909C28.3004 8.86618 28.1754 8.68448 27.9862 8.6115L26.7322 8.12891C26.5502 7.45948 26.2842 6.81754 25.9384 6.21462L26.4841 4.98605C26.5665 4.80078 26.5261 4.58382 26.3828 4.44007L24.6612 2.71841C24.5178 2.57511 24.3009 2.53448 24.1154 2.61707L22.8864 3.16306C22.2834 2.81774 21.6417 2.55168 20.9728 2.36974L20.4902 1.11551C20.4172 0.926228 20.2355 0.801228 20.0326 0.801228L17.598 0.800781C17.3951 0.800781 17.2134 0.925781 17.1404 1.11507L16.6578 2.3693C15.9889 2.55122 15.3471 2.81728 14.7442 3.16261L13.5148 2.61685C13.329 2.53448 13.1125 2.57489 12.9688 2.71819L11.2471 4.43984C11.1038 4.58315 11.0634 4.80011 11.1458 4.9856L11.6915 6.21463C11.3462 6.81755 11.0802 7.45926 10.8978 8.12869L9.64376 8.61128C9.45448 8.68427 9.32948 8.86596 9.32948 9.06887V11.5034C9.3297 11.7063 9.45471 11.8885 9.64399 11.9615ZM10.3105 9.40564L11.4868 8.95296C11.6377 8.89493 11.7502 8.76591 11.7877 8.60899C11.9648 7.86522 12.2585 7.15744 12.6601 6.50476C12.7447 6.36703 12.7565 6.1965 12.6907 6.04851L12.1786 4.89559L13.4239 3.65028L14.5768 4.16233C14.7246 4.22795 14.8951 4.21657 15.0331 4.13175C15.686 3.72974 16.3938 3.43644 17.1373 3.25941C17.2947 3.22213 17.4233 3.10941 17.4813 2.95852L17.934 1.78217H19.6953L20.148 2.95852C20.2061 3.10941 20.3351 3.22213 20.492 3.25941C21.2358 3.43642 21.9435 3.72972 22.5962 4.13175C22.7339 4.21635 22.9045 4.22818 23.0525 4.16233L24.2054 3.65028L25.4507 4.89559L24.9387 6.04782C24.873 6.19581 24.8844 6.36657 24.9692 6.50407C25.3712 7.15676 25.665 7.86499 25.842 8.60899C25.8793 8.76635 25.992 8.89493 26.1429 8.95341L27.3188 9.40609V11.1675L26.1424 11.6201C25.9915 11.6782 25.879 11.8072 25.8415 11.9641C25.6645 12.7074 25.3712 13.4154 24.9692 14.0683C24.8846 14.2061 24.8727 14.3766 24.9386 14.5246L25.4506 15.6775L24.2053 16.9228L23.0526 16.4108C22.9049 16.3451 22.7343 16.3565 22.5964 16.4413C21.9437 16.8434 21.2355 17.1371 20.4915 17.3141C20.3341 17.3514 20.2055 17.4641 20.1471 17.615L19.6944 18.7909L17.9348 18.7913L17.4821 17.615C17.4241 17.4641 17.2951 17.3514 17.1381 17.3141C16.3944 17.1371 15.6866 16.8438 15.0339 16.4417C14.8962 16.3571 14.7256 16.3453 14.5777 16.4112L13.4247 16.9232L12.1794 15.6779L12.6915 14.5252C12.7571 14.3774 12.7457 14.2069 12.6609 14.069C12.2589 13.4163 11.9656 12.7083 11.7882 11.964C11.7509 11.8067 11.6382 11.6781 11.4873 11.6201L10.3114 11.1674L10.3107 9.40556L10.3105 9.40564ZM18.8156 15.0228C21.4272 15.0228 23.5523 12.8978 23.5523 10.2862C23.5523 7.67461 21.4272 5.54958 18.8156 5.54958C16.204 5.54958 14.079 7.67461 14.079 10.2862C14.079 12.8978 16.2036 15.0228 18.8156 15.0228ZM16.3931 13.1532C16.6283 12.0162 17.6301 11.1862 18.8158 11.1862C20.0015 11.1862 21.0031 12.0161 21.2386 13.1532C20.5839 13.7072 19.7386 14.0423 18.8158 14.0423C17.8931 14.042 17.0473 13.707 16.3931 13.1532ZM18.8156 10.2054C18.2594 10.2054 17.807 9.75273 17.807 9.19672C17.807 8.64047 18.2596 8.18804 18.8156 8.18804C19.3719 8.18804 19.8243 8.64072 19.8243 9.19672C19.8243 9.75275 19.3719 10.2054 18.8156 10.2054ZM18.8156 6.53044C20.8866 6.53044 22.5712 8.21501 22.5712 10.286C22.5712 11.0227 22.3572 11.7102 21.9893 12.2903C21.6549 11.5124 21.046 10.889 20.288 10.5329C20.609 10.1795 20.805 9.71015 20.805 9.19627C20.805 8.09918 19.9123 7.20655 18.8152 7.20655C17.7182 7.20655 16.8255 8.09918 16.8255 9.19627C16.8255 9.71033 17.0215 10.1795 17.3425 10.5329C16.5844 10.8889 15.9755 11.5122 15.6412 12.2903C15.2731 11.7099 15.0592 11.0226 15.0592 10.286C15.0597 8.21553 16.7447 6.53044 18.8156 6.53044Z" fill="#CC1212"/>
</svg>