<svg width="38" height="38" viewBox="0 0 33 32" fill="none" xmlns="http://www.w3.org/2000/svg">
<path d="M1.48452 29.5723H8.98452C9.26108 29.5723 9.48452 29.3489 9.48452 29.0723H10.3665L15.712 31.7453C15.943 31.8607 16.1935 31.9187 16.443 31.9187C16.7276 31.9187 17.0116 31.8442 17.266 31.6957L28.174 25.3323C28.674 25.0408 28.9845 24.5004 28.9845 23.9214C28.9845 23.4379 28.772 22.9819 28.4019 22.6705C28.0325 22.3595 27.5455 22.2285 27.0705 22.3109L17.1545 24.0352L14.3379 21.2187C14.2444 21.1247 14.1174 21.0723 13.9844 21.0723H9.48438C9.48438 20.7957 9.26093 20.5723 8.98438 20.5723H1.48438C1.20782 20.5723 0.984375 20.7957 0.984375 21.0723V29.0723C0.984375 29.3488 1.20782 29.5723 1.48438 29.5723L1.48452 29.5723ZM13.7777 22.0723L17.7171 26.0118C17.887 26.1819 17.9846 26.4174 17.9846 26.6582C17.9846 27.1622 17.5745 27.5722 17.0705 27.5722C16.8301 27.5722 16.5939 27.4747 16.4241 27.3048L13.8382 24.7189L13.1312 25.4258L15.7172 28.0117C16.0786 28.3731 16.5591 28.5722 17.0706 28.5722C18.1257 28.5722 18.9846 27.7133 18.9846 26.6582C18.9846 26.1472 18.7855 25.6662 18.4241 25.3046L18.0192 24.8997L27.2415 23.2957C27.4281 23.2631 27.6149 23.3142 27.7585 23.4352C27.9022 23.5562 27.9848 23.7332 27.9848 23.9207C27.9848 24.1452 27.8643 24.3553 27.6703 24.4682L16.7629 30.8316C16.5778 30.9397 16.3524 30.9466 16.16 30.8506L10.709 28.1252C10.6394 28.0901 10.5624 28.0721 10.4849 28.0721H9.48493V22.0721L13.7777 22.0723ZM8.48458 28.5723H7.48458V21.5723H8.48458V28.5723ZM1.98458 21.5723H6.48458V28.5723H1.98458V21.5723Z" fill="#CC1212"/>
<path d="M19.4844 21.0723C25.2741 21.0723 29.9844 16.3618 29.9844 10.5723C29.9844 4.78278 25.2739 0.0722656 19.4844 0.0722656C13.6949 0.0722656 8.98438 4.78278 8.98438 10.5723C8.98438 16.3618 13.6949 21.0723 19.4844 21.0723ZM19.4844 1.07227C24.7228 1.07227 28.9844 5.33387 28.9844 10.5723C28.9844 15.8107 24.7228 20.0723 19.4844 20.0723C14.246 20.0723 9.98438 15.8107 9.98438 10.5723C9.98438 5.33387 14.246 1.07227 19.4844 1.07227Z" fill="#CC1212"/>
<path d="M19.4844 19.0723C24.1714 19.0723 27.9844 15.2593 27.9844 10.5723C27.9844 5.88524 24.1714 2.07227 19.4844 2.07227C14.7973 2.07227 10.9844 5.88524 10.9844 10.5723C10.9844 15.2593 14.7973 19.0723 19.4844 19.0723ZM19.4844 3.07227C23.6199 3.07227 26.9844 6.43678 26.9844 10.5723C26.9844 14.7078 23.6199 18.0723 19.4844 18.0723C15.3489 18.0723 11.9844 14.7078 11.9844 10.5723C11.9844 6.43678 15.3489 3.07227 19.4844 3.07227Z" fill="#CC1212"/>
<path d="M19.9844 12.5723H18.9844C18.4328 12.5723 17.9844 12.1238 17.9844 11.5723H16.9844C16.9844 12.6752 17.8815 13.5723 18.9844 13.5723V14.5723H19.9844V13.5723C21.0873 13.5723 21.9844 12.6752 21.9844 11.5723C21.9844 10.4694 21.0873 9.57227 19.9844 9.57227H18.9844C18.4328 9.57227 17.9844 9.12383 17.9844 8.57227C17.9844 8.02071 18.4328 7.57227 18.9844 7.57227H19.9844C20.5359 7.57227 20.9844 8.02071 20.9844 8.57227H21.9844C21.9844 7.46935 21.0873 6.57227 19.9844 6.57227V5.57227H18.9844V6.57227C17.8815 6.57227 16.9844 7.46935 16.9844 8.57227C16.9844 9.67518 17.8815 10.5723 18.9844 10.5723H19.9844C20.5359 10.5723 20.9844 11.0207 20.9844 11.5723C20.9844 12.1238 20.5359 12.5723 19.9844 12.5723Z" fill="#CC1212"/>
<path d="M14.4844 12.0723C15.3114 12.0723 15.9844 11.3993 15.9844 10.5723C15.9844 9.74524 15.3114 9.07227 14.4844 9.07227C13.6573 9.07227 12.9844 9.74524 12.9844 10.5723C12.9844 11.3993 13.6573 12.0723 14.4844 12.0723ZM14.4844 10.0723C14.7603 10.0723 14.9844 10.2964 14.9844 10.5723C14.9844 10.8482 14.7603 11.0723 14.4844 11.0723C14.2085 11.0723 13.9844 10.8482 13.9844 10.5723C13.9844 10.2964 14.2085 10.0723 14.4844 10.0723Z" fill="#CC1212"/>
<path d="M24.4844 12.0723C25.3114 12.0723 25.9844 11.3993 25.9844 10.5723C25.9844 9.74524 25.3114 9.07227 24.4844 9.07227C23.6573 9.07227 22.9844 9.74524 22.9844 10.5723C22.9844 11.3993 23.6573 12.0723 24.4844 12.0723ZM24.4844 10.0723C24.7603 10.0723 24.9844 10.2964 24.9844 10.5723C24.9844 10.8482 24.7603 11.0723 24.4844 11.0723C24.2085 11.0723 23.9844 10.8482 23.9844 10.5723C23.9844 10.2964 24.2085 10.0723 24.4844 10.0723Z" fill="#CC1212"/>
<path d="M18.9844 15.5723H19.9844V16.5723H18.9844V15.5723Z" fill="#CC1212"/>
<path d="M20.9844 15.5723H21.9844V16.5723H20.9844V15.5723Z" fill="#CC1212"/>
<path d="M16.9844 15.5723H17.9844V16.5723H16.9844V15.5723Z" fill="#CC1212"/>
<path d="M6.98438 10.0723H7.98438V11.0723H6.98438V10.0723Z" fill="#CC1212"/>
<path d="M29.9844 18.0723H30.9844V19.0723H29.9844V18.0723Z" fill="#CC1212"/>
<path d="M27.9844 18.0723H28.9844V19.0723H27.9844V18.0723Z" fill="#CC1212"/>
<path d="M4.98438 10.0723H5.98438V11.0723H4.98438V10.0723Z" fill="#CC1212"/>
<path d="M2.98438 10.0723H3.98438V11.0723H2.98438V10.0723Z" fill="#CC1212"/>
<path d="M25.9844 30.0723H26.9844V31.0723H25.9844V30.0723Z" fill="#CC1212"/>
<path d="M27.9844 30.0723H28.9844V31.0723H27.9844V30.0723Z" fill="#CC1212"/>
<path d="M29.9844 30.0723H30.9844V31.0723H29.9844V30.0723Z" fill="#CC1212"/>
<path d="M31.9844 30.0723H32.9844V31.0723H31.9844V30.0723Z" fill="#CC1212"/>
<path d="M23.9844 30.0723H24.9844V31.0723H23.9844V30.0723Z" fill="#CC1212"/>
<path d="M21.9844 30.0723H22.9844V31.0723H21.9844V30.0723Z" fill="#CC1212"/>
<path d="M2.98438 12.0723H3.98438V13.0723H2.98438V12.0723Z" fill="#CC1212"/>
<path d="M31.9844 28.0723H32.9844V29.0723H31.9844V28.0723Z" fill="#CC1212"/>
<path d="M31.9844 26.0723H32.9844V27.0723H31.9844V26.0723Z" fill="#CC1212"/>
<path d="M31.9844 24.0723H32.9844V25.0723H31.9844V24.0723Z" fill="#CC1212"/>
<path d="M31.9844 22.0723H32.9844V23.0723H31.9844V22.0723Z" fill="#CC1212"/>
<path d="M31.9844 20.0723H32.9844V21.0723H31.9844V20.0723Z" fill="#CC1212"/>
<path d="M31.9844 18.0723H32.9844V19.0723H31.9844V18.0723Z" fill="#CC1212"/>
<path d="M2.98438 14.0723H3.98438V15.0723H2.98438V14.0723Z" fill="#CC1212"/>
<path d="M2.98438 16.0723H3.98438V17.0723H2.98438V16.0723Z" fill="#CC1212"/>
<path d="M2.98438 18.0723H3.98438V19.0723H2.98438V18.0723Z" fill="#CC1212"/>
</svg>