<svg width="39" height="39" viewBox="0 0 39 39" fill="none" xmlns="http://www.w3.org/2000/svg">
<path d="M11.3286 16.8961C9.4851 16.8961 7.68303 17.4428 6.15024 18.467C4.61745 19.4911 3.42278 20.9469 2.71732 22.65C2.01185 24.3531 1.82727 26.2272 2.18691 28.0353C2.54656 29.8433 3.43427 31.5041 4.7378 32.8077C6.04133 34.1112 7.70213 34.9989 9.51018 35.3586C11.3182 35.7182 13.1923 35.5336 14.8955 34.8282C16.5986 34.1227 18.0543 32.928 19.0785 31.3952C20.1027 29.8624 20.6493 28.0604 20.6493 26.2169C20.6361 23.7489 19.6499 21.3858 17.9048 19.6407C16.1596 17.8956 13.7965 16.9093 11.3286 16.8961ZM11.3286 34.1682C9.76871 34.1682 8.24388 33.7057 6.9469 32.8391C5.64993 31.9724 4.63906 30.7407 4.04213 29.2996C3.44519 27.8584 3.28901 26.2727 3.59332 24.7428C3.89764 23.2129 4.64878 21.8076 5.75177 20.7046C6.85475 19.6016 8.26005 18.8505 9.78993 18.5462C11.3198 18.2419 12.9056 18.398 14.3467 18.995C15.7878 19.5919 17.0196 20.6028 17.8862 21.8998C18.7528 23.1967 19.2154 24.7216 19.2154 26.2814C19.2041 28.3696 18.3695 30.3691 16.8929 31.8457C15.4163 33.3224 13.4168 34.1569 11.3286 34.1682ZM28.7799 13.6769C28.3525 13.5072 27.911 13.3753 27.4606 13.2826V10.8305C27.7852 10.8612 28.0952 10.9802 28.3569 11.1746C28.5092 11.3165 28.632 11.487 28.7182 11.6765C28.8043 11.866 28.8521 12.0707 28.8588 12.2788L29.8339 12.2071C29.8232 11.7766 29.6942 11.3574 29.461 10.9954C29.2153 10.6278 28.8623 10.3449 28.4501 10.1852C28.1236 10.0587 27.7808 9.97907 27.432 9.94859V8.80859H26.6074V9.91991C26.2489 9.94275 25.8959 10.0201 25.5606 10.1493C25.1614 10.3087 24.8244 10.5929 24.5999 10.9595C24.3815 11.2811 24.2641 11.6606 24.2629 12.0493C24.271 12.3838 24.3728 12.7092 24.5569 12.9886C24.7613 13.2982 25.0464 13.5462 25.3814 13.7056C25.7807 13.8913 26.199 14.0332 26.6289 14.1286V16.9033C26.4298 16.8666 26.2352 16.8089 26.0482 16.7312C25.738 16.6048 25.4697 16.3936 25.2739 16.1218C25.0909 15.8373 24.9802 15.5124 24.9512 15.1754L23.9689 15.2614C23.9782 15.7531 24.1248 16.2324 24.392 16.6452C24.6648 17.0514 25.0514 17.3681 25.5033 17.5558C25.8573 17.6934 26.2291 17.7803 26.6074 17.8139V18.9395H27.4606V17.8426C27.8997 17.8295 28.3325 17.7346 28.7369 17.5629C29.1494 17.3785 29.4985 17.0768 29.7406 16.6954C29.9706 16.3518 30.093 15.9474 30.092 15.5339C30.1012 15.1468 29.991 14.7663 29.7765 14.4441C29.5198 14.1029 29.1754 13.8377 28.7799 13.6769ZM26.6289 13.0746C26.2519 12.9973 25.8922 12.8515 25.5678 12.6444C25.4662 12.5559 25.3862 12.4452 25.334 12.3209C25.2817 12.1966 25.2587 12.062 25.2667 11.9275C25.2686 11.7687 25.3079 11.6126 25.3814 11.4718C25.4549 11.3311 25.5605 11.2096 25.6897 11.1173C25.9661 10.9234 26.2917 10.8116 26.6289 10.7946V13.0746ZM28.9161 16.301C28.7464 16.519 28.5174 16.6833 28.2565 16.7743C28.0079 16.8659 27.7468 16.9191 27.4822 16.932V14.3365C27.7296 14.3923 27.9737 14.4617 28.2135 14.5444C28.4906 14.6236 28.7394 14.7803 28.9305 14.9961C29.074 15.1747 29.1502 15.398 29.1456 15.6271C29.1378 15.8731 29.0497 16.1099 28.8946 16.301H28.9161Z" fill="url(#paint0_linear_3369_11663)"/>
<path d="M27.0267 4.5036C25.1832 4.5036 23.3811 5.05026 21.8484 6.07443C20.3156 7.09861 19.1209 8.55431 18.4154 10.2575C17.71 11.9606 17.5254 13.8347 17.885 15.6427C18.2447 17.4508 19.1324 19.1116 20.4359 20.4151C21.7395 21.7187 23.4003 22.6064 25.2083 22.966C27.0164 23.3257 28.8904 23.1411 30.5936 22.4356C32.2967 21.7301 33.7524 20.5355 34.7766 19.0027C35.8008 17.4699 36.3474 15.6678 36.3474 13.8244C36.3361 11.3558 35.3505 8.99162 33.605 7.24609C31.8594 5.50056 29.4952 4.51492 27.0267 4.5036ZM27.0267 21.7757C25.4668 21.7757 23.942 21.3131 22.645 20.4465C21.348 19.5799 20.3372 18.3482 19.7402 16.907C19.1433 15.4659 18.9871 13.8801 19.2914 12.3502C19.5958 10.8204 20.3469 9.41507 21.4499 8.31208C22.5529 7.20909 23.9582 6.45795 25.4881 6.15364C27.0179 5.84932 28.6037 6.00551 30.0448 6.60244C31.486 7.19937 32.7177 8.21024 33.5843 9.50722C34.4509 10.8042 34.9135 12.329 34.9135 13.8889C34.9097 15.9821 34.0785 17.9889 32.6011 19.4717C31.1236 20.9545 29.1199 21.793 27.0267 21.8044V21.7757ZM13.2822 26.013C13.5769 25.8694 13.8253 25.6458 13.9991 25.3678C14.162 25.1103 14.249 24.8121 14.2501 24.5074C14.2485 24.1763 14.1514 23.8526 13.9705 23.5753C13.7891 23.2797 13.5213 23.0469 13.2033 22.9085C12.9331 22.811 12.6509 22.7507 12.3644 22.7293V21.7542H11.5901V22.7006H10.9305V21.7542H10.149V22.7006H9.26707V29.7987H10.149V30.7451H10.9305V29.7987H11.6044V30.7451H12.3644V29.7772C12.6228 29.7692 12.8798 29.7356 13.1316 29.6768C13.4105 29.6124 13.6738 29.493 13.9059 29.3255C14.1308 29.1526 14.3084 28.9257 14.4222 28.6659C14.5658 28.3788 14.6395 28.0619 14.6373 27.741C14.6468 27.354 14.5255 26.9751 14.2931 26.6655C14.0343 26.3458 13.6801 26.1172 13.2822 26.013ZM10.2135 23.5394H11.6474C12.0113 23.5212 12.3758 23.555 12.7301 23.6398C12.9307 23.6966 13.1023 23.8273 13.2105 24.0055C13.3272 24.1923 13.387 24.409 13.3825 24.6293C13.3879 24.8484 13.3253 25.0638 13.2033 25.2459C13.0683 25.423 12.8755 25.5473 12.6584 25.5972C12.3651 25.6673 12.0634 25.6963 11.7622 25.6832H10.2135V23.5394ZM13.5259 28.3361C13.4417 28.4957 13.3183 28.6313 13.1674 28.7304C13.0003 28.83 12.8151 28.8958 12.6225 28.924C12.4102 28.9404 12.1968 28.9404 11.9844 28.924H10.2135V26.4862H11.8554C12.2057 26.4725 12.5561 26.5112 12.895 26.601C13.1261 26.6702 13.3262 26.8171 13.4614 27.0168C13.6052 27.2273 13.6757 27.4792 13.6622 27.7338C13.6641 27.9441 13.6123 28.1514 13.5116 28.3361H13.5259ZM15.0961 8.80549C15.2217 8.94795 15.3987 9.03475 15.5882 9.04685C15.7778 9.05894 15.9644 8.99535 16.1071 8.87002L18.975 6.37492C19.0506 6.30854 19.1113 6.22699 19.1533 6.13558C19.1953 6.04417 19.2176 5.94495 19.2188 5.84436C19.2163 5.64186 19.1338 5.44856 18.9893 5.30662L16.4871 2.99077C16.4193 2.91994 16.3377 2.86376 16.2473 2.82572C16.157 2.78767 16.0597 2.76856 15.9617 2.76957C15.8637 2.77058 15.7669 2.79169 15.6773 2.83158C15.5878 2.87148 15.5073 2.92933 15.441 3.00154C15.3747 3.07376 15.3239 3.1588 15.2917 3.25143C15.2596 3.34406 15.2468 3.44229 15.2541 3.54006C15.2614 3.63784 15.2887 3.73307 15.3343 3.81987C15.3799 3.90667 15.4428 3.98321 15.5191 4.04474L16.6663 5.08436C13.7052 5.08436 11.3678 5.90172 9.69008 7.56511C6.62858 10.5549 6.97273 15.0934 6.98707 15.2583C7.00151 15.4384 7.08339 15.6063 7.21631 15.7286C7.34924 15.8509 7.52342 15.9185 7.70405 15.9179H7.76141C7.85567 15.9107 7.94757 15.8849 8.03182 15.842C8.11607 15.7991 8.19101 15.74 8.25231 15.668C8.31362 15.596 8.36009 15.5127 8.38904 15.4227C8.418 15.3327 8.42887 15.2378 8.42103 15.1436C8.42103 15.1078 8.14857 11.0568 10.6867 8.54021C12.0633 7.17794 14.0422 6.49681 16.5659 6.49681L15.132 7.73002C15.0534 7.79472 14.9895 7.87542 14.9445 7.96674C14.8995 8.05806 14.8745 8.15791 14.8711 8.25965C14.8677 8.3614 14.886 8.46269 14.9248 8.55681C14.9636 8.65092 15.022 8.7357 15.0961 8.80549ZM33.9814 23.6183C33.7985 23.618 33.6223 23.6876 33.489 23.8129C33.3558 23.9382 33.2754 24.1097 33.2644 24.2923C33.2644 24.3353 33.0135 28.3647 30.1599 30.5372C28.6112 31.713 26.575 32.1361 24.0512 31.7991L25.6071 30.7594C25.6859 30.7074 25.7536 30.6402 25.8064 30.5619C25.8592 30.4835 25.896 30.3955 25.9146 30.3029C25.9333 30.2103 25.9334 30.1149 25.9151 30.0222C25.8968 29.9295 25.8603 29.8414 25.8078 29.7628C25.7529 29.6817 25.6819 29.6127 25.5992 29.5601C25.5166 29.5075 25.424 29.4724 25.3273 29.4569C25.2305 29.4415 25.1316 29.446 25.0367 29.4703C24.9418 29.4945 24.8528 29.538 24.7754 29.5979L21.6278 31.6987C21.5434 31.7547 21.4719 31.8279 21.4178 31.9135C21.3638 31.9991 21.3285 32.0952 21.3143 32.1955C21.3001 32.2957 21.3072 32.3978 21.3353 32.4951C21.3634 32.5924 21.4118 32.6826 21.4773 32.7598L23.6282 35.341C23.6956 35.4219 23.78 35.487 23.8754 35.5316C23.9709 35.5762 24.0749 35.5992 24.1803 35.5991C24.316 35.5979 24.4487 35.5583 24.5628 35.4847C24.6769 35.4112 24.7677 35.3068 24.8248 35.1836C24.8819 35.0604 24.9028 34.9236 24.8852 34.789C24.8676 34.6544 24.8121 34.5275 24.7252 34.4232L23.7501 33.1828C24.365 33.2729 24.9856 33.3184 25.6071 33.3191C27.5394 33.3893 29.4398 32.8113 31.0059 31.6772C34.3829 29.1032 34.6625 24.5647 34.6769 24.3711C34.6817 24.2758 34.6674 24.1805 34.6349 24.0907C34.6024 24.001 34.5522 23.9186 34.4875 23.8485C34.4227 23.7784 34.3445 23.7219 34.2577 23.6824C34.1708 23.6428 34.0768 23.6211 33.9814 23.6183Z" fill="url(#paint1_linear_3369_11663)"/>
<defs>
<linearGradient id="paint0_linear_3369_11663" x1="23.8889" y1="8.80859" x2="23.7723" y2="41.2656" gradientUnits="userSpaceOnUse">
<stop stop-color="#005CAA"/>
<stop offset="1" stop-color="#64B0F1"/>
</linearGradient>
<linearGradient id="paint1_linear_3369_11663" x1="29.858" y1="2.76953" x2="29.6899" y2="42.6341" gradientUnits="userSpaceOnUse">
<stop stop-color="#005CAA"/>
<stop offset="1" stop-color="#64B0F1"/>
</linearGradient>
</defs>
</svg>