<svg width="38" height="38" viewBox="0 0 30 30" fill="none"
                                xmlns="http://www.w3.org/2000/svg">
                                <path
                                    d="M2.17344 29.6137H11.6734C12.1773 29.6137 12.6606 29.4135 13.017 29.0572C13.3733 28.7008 13.5734 28.2175 13.5734 27.7137V9.66367C13.5734 9.15984 13.3733 8.67654 13.017 8.3201C12.6605 7.96385 12.1773 7.76367 11.6734 7.76367H2.17344C1.6696 7.76367 1.18631 7.96385 0.829866 8.3201C0.473616 8.67656 0.273438 9.15985 0.273438 9.66367V27.7137C0.273438 28.2175 0.473616 28.7008 0.829866 29.0572C1.18633 29.4135 1.66961 29.6137 2.17344 29.6137ZM8.63941 8.71367L8.48079 9.18867H5.36572L5.2071 8.71367H8.63941ZM1.22344 9.66367C1.22344 9.41175 1.32353 9.17001 1.50165 8.99189C1.67977 8.81376 1.92152 8.71367 2.17344 8.71367H4.20595L4.57259 9.81383C4.63727 10.0079 4.81879 10.1387 5.02342 10.1387H8.82342C9.02805 10.1387 9.20957 10.0079 9.27424 9.81383L9.64088 8.71367H11.6734C11.9253 8.71367 12.1671 8.81376 12.3452 8.99189C12.5233 9.17001 12.6234 9.41175 12.6234 9.66367V27.7137C12.6234 27.9656 12.5233 28.2073 12.3452 28.3855C12.1671 28.5636 11.9253 28.6637 11.6734 28.6637H2.17339C1.92148 28.6637 1.67973 28.5636 1.50161 28.3855C1.32349 28.2073 1.22339 27.9656 1.22339 27.7137L1.22344 9.66367Z"
                                    fill="url(#paint0_linear_5422_29678)" />
                                <path
                                    d="M2.64694 26.2873H7.39694C7.5229 26.2873 7.64377 26.2372 7.73283 26.1482C7.82189 26.0591 7.87194 25.9382 7.87194 25.8123V22.4873C7.87067 22.0299 7.70399 21.5884 7.40288 21.2442C7.10176 20.8999 6.68636 20.6761 6.23318 20.6138C6.63736 20.2794 6.88526 19.7927 6.91811 19.2692C6.95119 18.7456 6.76606 18.2318 6.40684 17.8493C6.04784 17.4669 5.54653 17.25 5.02191 17.25C4.49729 17.25 3.99602 17.4669 3.63697 17.8493C3.27775 18.2318 3.09265 18.7456 3.12571 19.2692C3.15858 19.7927 3.40647 20.2794 3.81063 20.6138C3.35747 20.6762 2.94206 20.8999 2.64094 21.2442C2.33982 21.5884 2.17315 22.0299 2.17188 22.4873V25.8123C2.17188 25.9382 2.22192 26.0591 2.31098 26.1482C2.40004 26.2372 2.52092 26.2873 2.64688 26.2873H2.64694ZM5.02194 18.2123C5.27386 18.2123 5.5156 18.3124 5.69373 18.4905C5.87185 18.6686 5.97194 18.9104 5.97194 19.1623C5.97194 19.4142 5.87185 19.6559 5.69373 19.8341C5.5156 20.0122 5.27386 20.1123 5.02194 20.1123C4.77002 20.1123 4.52828 20.0122 4.35015 19.8341C4.17203 19.6559 4.07194 19.4142 4.07194 19.1623C4.07194 18.9104 4.17203 18.6686 4.35015 18.4905C4.52828 18.3124 4.77002 18.2123 5.02194 18.2123ZM3.12194 22.4873C3.12194 22.2354 3.22203 21.9936 3.40015 21.8155C3.57828 21.6374 3.82002 21.5373 4.07194 21.5373H5.97194C6.22386 21.5373 6.4656 21.6374 6.64373 21.8155C6.82185 21.9936 6.92194 22.2354 6.92194 22.4873V25.3373H3.12194V22.4873Z"
                                    fill="url(#paint1_linear_5422_29678)" />
                                <path
                                    d="M6.92029 15.8391H7.39529V16.7891C7.39529 16.9812 7.51107 17.1542 7.68855 17.2278C7.86604 17.3014 8.07025 17.2607 8.20618 17.125L9.49188 15.8391H11.1953C11.3213 15.8391 11.4421 15.789 11.5312 15.7C11.6203 15.6109 11.6703 15.49 11.6703 15.3641V12.5141C11.6703 12.3881 11.6203 12.2672 11.5312 12.1782C11.4421 12.0891 11.3213 12.0391 11.1953 12.0391H6.92031C6.658 12.0391 6.44531 12.2518 6.44531 12.5141V15.3641C6.44531 15.49 6.49536 15.6109 6.58442 15.7C6.67348 15.789 6.79433 15.8391 6.92029 15.8391ZM7.39529 12.9891H10.7203V14.8891H9.29529C9.16933 14.8891 9.04845 14.9391 8.95939 15.0282L8.34531 15.6425V15.3641C8.34531 15.2381 8.29527 15.1172 8.20621 15.0282C8.11714 14.9391 7.99627 14.8891 7.87031 14.8891H7.39531L7.39529 12.9891Z"
                                    fill="url(#paint2_linear_5422_29678)" />
                                <path
                                    d="M25.4484 8.23867C26.4563 8.23867 27.4229 7.83832 28.1354 7.1256C28.8481 6.4131 29.2484 5.44654 29.2484 4.43867C29.2484 3.4308 28.8481 2.46425 28.1354 1.75175C27.4229 1.03903 26.4563 0.638672 25.4484 0.638672C24.4406 0.638672 23.474 1.03903 22.7615 1.75175C22.0488 2.46425 21.6484 3.4308 21.6484 4.43867C21.6495 5.44616 22.0503 6.41207 22.7628 7.12435C23.475 7.83685 24.4409 8.23764 25.4484 8.23867ZM25.4484 1.58867C26.2044 1.58867 26.9292 1.88894 27.4638 2.42331C27.9982 2.9579 28.2984 3.68269 28.2984 4.43867C28.2984 5.19465 27.9982 5.91942 27.4638 6.45403C26.9292 6.98841 26.2044 7.28867 25.4484 7.28867C24.6925 7.28867 23.9677 6.98841 23.4331 6.45403C22.8987 5.91944 22.5984 5.19465 22.5984 4.43867C22.5993 3.68312 22.8998 2.95852 23.4339 2.42418C23.9683 1.89002 24.6929 1.58954 25.4484 1.58867Z"
                                    fill="url(#paint3_linear_5422_29678)" />
                                <path
                                    d="M25.6859 5.38753H25.2109C25.0797 5.38753 24.9734 5.2813 24.9734 5.15003H24.0234C24.0234 5.4238 24.118 5.68886 24.2913 5.90091C24.4643 6.11296 24.7052 6.25864 24.9734 6.31336V6.81253H25.9234V6.31336C26.311 6.23384 26.6336 5.96644 26.7835 5.60043C26.9336 5.23442 26.8915 4.81752 26.6713 4.48882C26.451 4.16034 26.0816 3.96292 25.6859 3.9625H25.2109C25.0797 3.9625 24.9734 3.85626 24.9734 3.725C24.9734 3.59374 25.0797 3.4875 25.2109 3.4875H25.6859C25.7489 3.4875 25.8094 3.51252 25.8539 3.55705C25.8984 3.60158 25.9234 3.66202 25.9234 3.725H26.8734C26.8734 3.45124 26.7789 3.18617 26.6056 2.97412C26.4326 2.76207 26.1917 2.61639 25.9235 2.56167V2.0625H24.9735V2.56167C24.5858 2.64119 24.2633 2.90859 24.1134 3.27461C23.9632 3.64061 24.0054 4.05752 24.2255 4.38622C24.4459 4.71469 24.8152 4.91211 25.2109 4.91253H25.6859C25.8172 4.91253 25.9234 5.01877 25.9234 5.15003C25.9234 5.2813 25.8172 5.38753 25.6859 5.38753Z"
                                    fill="url(#paint4_linear_5422_29678)" />
                                <path
                                    d="M29.3985 15.8974C29.25 15.8151 29.069 15.8181 28.9235 15.9055L27.7597 16.6027L23.9663 9.4408C23.8577 9.23554 23.6166 9.13884 23.3963 9.21221L19.4852 10.5181L13.5056 0.396484L12.6875 0.879964L18.8625 11.33C18.9764 11.5227 19.2094 11.6097 19.4217 11.5391L23.3167 10.2409L26.9452 17.0917L25.6654 17.8574L25.6656 17.8572C25.5202 17.9442 25.4322 18.1021 25.4345 18.2713C25.4368 18.4408 25.5293 18.596 25.6769 18.6789L29.0152 20.5556V20.5558C29.1637 20.6385 29.3452 20.6357 29.4911 20.5481C29.6368 20.4608 29.7248 20.302 29.7216 20.1321L29.6438 16.3031C29.6401 16.1338 29.5466 15.9793 29.3986 15.8974L29.3985 15.8974ZM26.8545 18.2521L28.7104 17.1411L28.7545 19.3204L26.8545 18.2521Z"
                                    fill="url(#paint5_linear_5422_29678)" />
                                <path
                                    d="M23.5453 27.7141C23.6713 27.7141 23.7921 27.664 23.8812 27.575C23.9703 27.4859 24.0203 27.365 24.0203 27.2391V19.6391C24.0203 19.5131 23.9703 19.3922 23.8812 19.3032C23.7921 19.2141 23.6713 19.1641 23.5453 19.1641H21.1703C20.908 19.1641 20.6953 19.3768 20.6953 19.6391V27.2391C20.6953 27.365 20.7454 27.4859 20.8344 27.575C20.9235 27.664 21.0444 27.7141 21.1703 27.7141H23.5453ZM21.6453 20.1141H23.0703V26.7641H21.6453V20.1141Z"
                                    fill="url(#paint6_linear_5422_29678)" />
                                <path
                                    d="M28.2953 27.7125C28.4213 27.7125 28.5421 27.6625 28.6312 27.5734C28.7203 27.4843 28.7703 27.3635 28.7703 27.2375V23.9125C28.7703 23.7865 28.7203 23.6657 28.6312 23.5766C28.5421 23.4875 28.4213 23.4375 28.2953 23.4375H25.9203C25.658 23.4375 25.4453 23.6502 25.4453 23.9125V27.2375C25.4453 27.3635 25.4954 27.4843 25.5844 27.5734C25.6735 27.6625 25.7944 27.7125 25.9203 27.7125H28.2953ZM26.3953 24.3875H27.8203V26.7625H26.3953V24.3875Z"
                                    fill="url(#paint7_linear_5422_29678)" />
                                <path
                                    d="M18.7953 27.7125C18.9213 27.7125 19.0421 27.6625 19.1312 27.5734C19.2203 27.4843 19.2703 27.3635 19.2703 27.2375V14.4125C19.2703 14.2865 19.2203 14.1657 19.1312 14.0766C19.0421 13.9875 18.9213 13.9375 18.7953 13.9375H16.4203C16.158 13.9375 15.9453 14.1502 15.9453 14.4125V27.2375C15.9453 27.3635 15.9954 27.4843 16.0844 27.5734C16.1735 27.6625 16.2944 27.7125 16.4203 27.7125H18.7953ZM16.8953 14.8875H18.3203V26.7625H16.8953V14.8875Z"
                                    fill="url(#paint8_linear_5422_29678)" />
                                <path d="M15 28.6641H29.725V29.6141H15V28.6641Z"
                                    fill="url(#paint9_linear_5422_29678)" />
                                <defs>
                                    <linearGradient id="paint0_linear_5422_29678" x1="10.6356" y1="7.76367" x2="10.4711"
                                        y2="34.2954" gradientUnits="userSpaceOnUse">
                                        <stop stop-color="#005CAA" />
                                        <stop offset="1" stop-color="#64B0F1" />
                                    </linearGradient>
                                    <linearGradient id="paint1_linear_5422_29678" x1="6.61285" y1="17.25" x2="6.5472"
                                        y2="28.2237" gradientUnits="userSpaceOnUse">
                                        <stop stop-color="#005CAA" />
                                        <stop offset="1" stop-color="#64B0F1" />
                                    </linearGradient>
                                    <linearGradient id="paint2_linear_5422_29678" x1="10.5162" y1="12.0391" x2="10.4922"
                                        y2="18.3837" gradientUnits="userSpaceOnUse">
                                        <stop stop-color="#005CAA" />
                                        <stop offset="1" stop-color="#64B0F1" />
                                    </linearGradient>
                                    <linearGradient id="paint3_linear_5422_29678" x1="27.5697" y1="0.638672"
                                        x2="27.5348" y2="9.86731" gradientUnits="userSpaceOnUse">
                                        <stop stop-color="#005CAA" />
                                        <stop offset="1" stop-color="#64B0F1" />
                                    </linearGradient>
                                    <linearGradient id="paint4_linear_5422_29678" x1="26.2439" y1="2.0625" x2="26.2076"
                                        y2="7.83029" gradientUnits="userSpaceOnUse">
                                        <stop stop-color="#005CAA" />
                                        <stop offset="1" stop-color="#64B0F1" />
                                    </linearGradient>
                                    <linearGradient id="paint5_linear_5422_29678" x1="25.959" y1="0.396484" x2="25.849"
                                        y2="24.9486" gradientUnits="userSpaceOnUse">
                                        <stop stop-color="#005CAA" />
                                        <stop offset="1" stop-color="#64B0F1" />
                                    </linearGradient>
                                    <linearGradient id="paint6_linear_5422_29678" x1="23.2859" y1="19.1641" x2="23.1851"
                                        y2="29.5454" gradientUnits="userSpaceOnUse">
                                        <stop stop-color="#005CAA" />
                                        <stop offset="1" stop-color="#64B0F1" />
                                    </linearGradient>
                                    <linearGradient id="paint7_linear_5422_29678" x1="28.0359" y1="23.4375" x2="28.0107"
                                        y2="28.6286" gradientUnits="userSpaceOnUse">
                                        <stop stop-color="#005CAA" />
                                        <stop offset="1" stop-color="#64B0F1" />
                                    </linearGradient>
                                    <linearGradient id="paint8_linear_5422_29678" x1="18.5359" y1="13.9375" x2="18.2744"
                                        y2="30.6606" gradientUnits="userSpaceOnUse">
                                        <stop stop-color="#005CAA" />
                                        <stop offset="1" stop-color="#64B0F1" />
                                    </linearGradient>
                                    <linearGradient id="paint9_linear_5422_29678" x1="26.4724" y1="28.6641" x2="26.4721"
                                        y2="29.8177" gradientUnits="userSpaceOnUse">
                                        <stop stop-color="#005CAA" />
                                        <stop offset="1" stop-color="#64B0F1" />
                                    </linearGradient>
                                </defs>
                            </svg>