<svg width="38" height="38" viewBox="0 0 30 30" fill="none" xmlns="http://www.w3.org/2000/svg">
                                <path d="M12.9894 7.65421H17.031C18.7636 7.65421 20.1844 9.07541 20.1844 10.8078V12.2815C20.1844 12.535 19.9783 12.7406 19.7248 12.7406H10.2956C10.042 12.7406 9.83647 12.535 9.83647 12.2815V10.8078C9.83647 9.07478 11.2572 7.65421 12.9898 7.65421H12.9894ZM16.0944 14.8942L16.4622 14.5264L15.3341 14.521V15.9114L15.7015 15.544C16.0024 15.2431 16.4616 15.6998 16.1596 16.0018L15.2424 16.919C15.1104 17.0487 14.9104 17.0502 14.779 16.9194L13.8609 16.0018C13.5589 15.6998 14.0167 15.2417 14.3189 15.544L14.6863 15.9114V14.5178L13.5585 14.5134L13.9259 14.8803C14.229 15.1824 13.7687 15.6409 13.4685 15.3384L12.5508 14.4212C12.42 14.2904 12.42 14.0881 12.5508 13.9573L13.468 13.0401C13.7694 12.7377 14.2276 13.1962 13.9261 13.498L13.5576 13.8658L16.4618 13.8783L16.0948 13.5118C15.7917 13.2098 16.2509 12.7524 16.5522 13.0538L17.4694 13.971C17.6002 14.1024 17.6006 14.3029 17.4698 14.4343L16.5518 15.352C16.2509 15.6536 15.7924 15.1962 16.0944 14.8942ZM12.9894 24.3445H17.031C18.7636 24.3445 20.1844 25.7657 20.1844 27.4981V28.9713C20.1844 29.2249 19.9783 29.4309 19.7248 29.4309H10.2956C10.042 29.4309 9.83647 29.2249 9.83647 28.9713V27.4981C9.83647 25.7651 11.2572 24.3445 12.9898 24.3445H12.9894ZM15.01 17.2199C16.7977 17.2199 18.2474 18.6697 18.2474 20.4574C18.2474 22.2451 16.7977 23.6949 15.01 23.6949C13.2222 23.6949 11.7725 22.2451 11.7725 20.4574C11.7725 18.6719 13.2245 17.2199 15.01 17.2199ZM15.01 18.1387C13.7267 18.1387 12.6912 19.1742 12.6912 20.4574C12.6912 21.738 13.7294 22.7762 15.01 22.7762C16.2905 22.7762 17.3287 21.738 17.3287 20.4574C17.3287 19.1766 16.2908 18.1387 15.01 18.1387ZM17.0309 25.2632H12.9894C11.7588 25.2632 10.755 26.267 10.755 27.498V28.5121H19.2653V27.498C19.2653 26.2675 18.2616 25.2632 17.0309 25.2632ZM4.02408 18.6764H8.06562C9.79819 18.6764 11.219 20.0971 11.219 21.8298V23.3034C11.219 23.557 11.013 23.7626 10.7594 23.7626H1.33025C1.07668 23.7626 0.871094 23.557 0.871094 23.3034V21.8298C0.871094 20.0972 2.29184 18.6764 4.02447 18.6764H4.02408ZM21.9538 18.6764H25.9953C27.7279 18.6764 29.1487 20.0971 29.1487 21.8298V23.3034C29.1487 23.557 28.9431 23.7626 28.6896 23.7626H19.2604C19.0068 23.7626 18.8008 23.557 18.8008 23.3034V21.8298C18.8008 20.0972 20.2216 18.6764 21.9542 18.6764H21.9538ZM23.9743 11.5512C25.7625 11.5512 27.2123 13.001 27.2123 14.7887C27.2123 16.5769 25.7625 18.0262 23.9743 18.0262C22.1866 18.0262 20.7368 16.5767 20.7368 14.7887C20.7368 13.0037 22.1893 11.5512 23.9743 11.5512ZM23.9743 12.47C22.691 12.47 21.6556 13.5055 21.6556 14.7887C21.6556 16.0695 22.6937 17.1075 23.9743 17.1075C25.2551 17.1075 26.2935 16.0695 26.2935 14.7887C26.2935 13.5079 25.2553 12.47 23.9743 12.47ZM25.9953 19.5951H21.9537C20.7232 19.5951 19.7193 20.5989 19.7193 21.8295V22.8436H28.2296V21.8295C28.2296 20.599 27.2259 19.5951 25.9953 19.5951ZM6.04442 11.5511C7.83213 11.5511 9.28236 13.0009 9.28236 14.7886C9.28236 16.5768 7.83213 18.0261 6.04442 18.0261C4.25671 18.0261 2.80693 16.5766 2.80693 14.7886C2.80693 13.0036 4.25939 11.5511 6.04442 11.5511ZM6.04442 12.4699C4.76116 12.4699 3.72568 13.5054 3.72568 14.7886C3.72568 16.0694 4.76385 17.1074 6.04442 17.1074C7.32499 17.1074 8.36316 16.0694 8.36316 14.7886C8.36316 13.5078 7.32522 12.4699 6.04442 12.4699ZM8.06539 19.595H4.02385C2.79328 19.595 1.78945 20.5988 1.78945 21.8294V22.8435H10.2997V21.8294C10.2997 20.5988 9.29602 19.595 8.06539 19.595ZM15.0094 0.529297C16.7971 0.529297 18.2469 1.97907 18.2469 3.76678C18.2469 5.5545 16.7971 7.00427 15.0094 7.00427C13.2217 7.00427 11.7719 5.5545 11.7719 3.76678C11.7719 1.98175 13.2239 0.529297 15.0094 0.529297ZM15.0094 1.44804C13.7261 1.44804 12.6906 2.48353 12.6906 3.76678C12.6906 5.04735 13.7288 6.08553 15.0094 6.08553C16.29 6.08553 17.3281 5.04735 17.3281 3.76678C17.3281 2.48598 16.2902 1.44804 15.0094 1.44804ZM17.0304 8.57261H12.9888C11.7582 8.57261 10.7544 9.57638 10.7544 10.8074V11.8215H19.2647V10.8074C19.2647 9.57684 18.261 8.57261 17.0304 8.57261Z" fill="#CC1212"></path>
                            </svg>