<svg width="38" height="38" viewBox="0 0 28 32" fill="none" xmlns="http://www.w3.org/2000/svg">
<path d="M18.9805 2.5C18.9802 2.22389 18.7566 2 18.4805 2H2.98047C2.70413 2 2.48047 2.22389 2.48047 2.5C2.48047 2.77611 2.70413 3 2.98047 3H18.4805C18.7566 3 18.9802 2.77611 18.9805 2.5Z" fill="url(#paint0_linear_3912_22934)"/>
<path d="M0.734705 24.067L4.91888 26.9697C4.92803 26.9761 4.93785 26.9813 4.94812 26.9855L12.6641 30.1141C12.682 30.1212 12.7009 30.125 12.7201 30.125L21.5281 29.2612H21.5284C21.5333 29.532 21.754 29.7491 22.0248 29.75H27.0022C27.1346 29.7498 27.2614 29.6969 27.3547 29.6032C27.448 29.5094 27.5002 29.3824 27.5 29.25V21.75C27.5002 21.6177 27.448 21.4907 27.3547 21.3969C27.2614 21.3032 27.1346 21.2503 27.0022 21.25H22.0248C21.7494 21.2507 21.5266 21.4746 21.5273 21.75V22.5741L20.2147 22.7536C20.208 22.7545 20.2011 22.755 20.1944 22.755C20.1585 22.755 20.1239 22.742 20.0967 22.7186L18.2205 21.0987C18.2105 21.09 18.1996 21.0826 18.1875 21.077L11.8424 18.0333H11.8421C11.6091 17.929 11.3564 17.8752 11.1011 17.875C10.52 17.8775 9.9738 18.1516 9.62472 18.6161C9.31132 19.0297 9.17137 19.5493 9.23476 20.0648C9.29816 20.5799 9.55999 21.05 9.96448 21.3755L12.3022 23.2121V23.2119C12.3526 23.2517 12.3725 23.3188 12.3517 23.3796C12.331 23.4403 12.2741 23.4811 12.2098 23.4813H9.36338L7.25646 20.3146C6.98459 19.903 6.52389 19.6555 6.03058 19.6557C5.91674 19.6557 5.80357 19.6686 5.69263 19.6943C5.19933 19.8142 4.7924 20.1619 4.59686 20.6305C4.40132 21.0992 4.44061 21.6329 4.70266 22.068L5.37724 23.1577L2.24529 21.355C1.98503 21.2045 1.68458 21.1376 1.38501 21.1632C1.08544 21.1889 0.800836 21.3061 0.570036 21.4987C0.181196 21.8255 -0.0292779 22.3177 0.00329349 22.8246C0.0358826 23.3315 0.307756 23.7927 0.735236 24.067L0.734705 24.067ZM22.5221 22.25H26.5041V28.75H22.5221V22.25ZM5.51356 21.019C5.58321 20.8442 5.73276 20.7138 5.91557 20.6688C5.95307 20.6601 5.99147 20.6556 6.03008 20.6556C6.1908 20.6545 6.3408 20.7355 6.42852 20.8701L8.16555 23.4812H6.74927L5.54727 21.5397H5.54749C5.45329 21.3817 5.44057 21.188 5.51356 21.019ZM1.20128 22.2714C1.28811 22.1984 1.39771 22.1583 1.5111 22.1578C1.59503 22.1578 1.6774 22.1801 1.74994 22.2226L5.40931 24.329C5.58275 24.4288 5.77918 24.4812 5.97896 24.4812H12.2092C12.53 24.4799 12.8356 24.3446 13.0523 24.1083C13.2691 23.8719 13.3776 23.5558 13.3514 23.2361C13.3255 22.9165 13.1673 22.6223 12.9151 22.4241L10.5773 20.5875V20.5877C10.38 20.4247 10.2532 20.1921 10.2229 19.9384C10.1927 19.6843 10.2613 19.4285 10.4148 19.2238C10.5758 19.0062 10.8298 18.877 11.1006 18.875C11.2133 18.875 11.3247 18.8982 11.428 18.9428L17.6566 21.9305L19.4472 23.4768H19.4474C19.6954 23.6913 20.0238 23.7886 20.3486 23.7444L21.5269 23.5832V28.2564L12.8429 29.1082L5.40749 26.0932L1.30035 23.2442L1.27937 23.2296L1.25772 23.2162V23.216C1.10325 23.1165 1.00593 22.9484 0.996557 22.7649C0.981379 22.577 1.05772 22.3935 1.20124 22.2714L1.20128 22.2714Z" fill="url(#paint1_linear_3912_22934)"/>
<path d="M0.3125 25.0312V30.5C0.312946 30.8978 0.471203 31.279 0.752232 31.5603C1.03348 31.8413 1.41475 31.9996 1.81252 32H19.8125C20.2022 31.9993 20.5763 31.8473 20.8561 31.5757C21.1355 31.3043 21.2985 30.9346 21.3103 30.5451C21.2023 30.4824 21.1023 30.4067 21.0128 30.3197L20.3125 30.388V30.5C20.3123 30.7761 20.0886 30.9998 19.8125 31H14.0445L12.813 31.1203C12.7807 31.1235 12.7483 31.125 12.7159 31.125H12.7157C12.5668 31.1252 12.4193 31.0962 12.2816 31.0398L12.1829 31H1.81262C1.53651 30.9998 1.31284 30.7761 1.31262 30.5V25.7219L0.3125 25.0312Z" fill="url(#paint2_linear_3912_22934)"/>
<path d="M1.31253 1.50007C1.31276 1.22395 1.53642 1.00029 1.81253 1.00007H19.8125C20.0886 1.00029 20.3123 1.22395 20.3125 1.50007V21.5606L20.4878 21.7113L20.565 21.7008C20.5826 21.1841 20.8652 20.7129 21.3125 20.4537V1.50002C21.3121 1.10225 21.1541 0.720989 20.8728 0.439731C20.5916 0.158703 20.2103 0.000445714 19.8125 0H1.81252C1.41475 0.000446429 1.03349 0.158703 0.752231 0.439731C0.471203 0.720983 0.312946 1.10225 0.3125 1.50002V20.4406C0.622769 20.2792 0.963414 20.1852 1.3125 20.1643L1.31253 1.50007Z" fill="url(#paint3_linear_3912_22934)"/>
<path d="M14.5186 18.207C14.8559 18.3679 15.2077 18.536 15.558 18.7032C16.3358 18.0487 16.7303 17.0735 16.7303 15.7877H16.7305C16.7366 14.5554 16.3765 13.3489 15.6961 12.3215C15.0156 11.294 14.0452 10.4917 12.9082 10.0165L14.0517 7.81608C14.2939 7.37769 14.2899 6.84466 14.0412 6.40986C13.8153 6.01499 13.4062 5.75986 12.9521 5.73083L12.8068 5.70784C12.7841 5.70427 12.7611 5.70136 12.7381 5.69935C12.4242 5.27904 12.0068 4.94735 11.5265 4.73638C10.8816 4.42121 10.1274 4.42121 9.48231 4.73638C9.00352 4.94665 8.587 5.27701 8.27317 5.69553H8.17004C7.65397 5.69218 7.17496 5.96361 6.91244 6.40804C6.67316 6.81697 6.66825 7.32233 6.89994 7.73593L7.48229 8.8433H7.48251C6.99769 8.68682 6.47137 8.72298 6.01262 8.94463C5.76575 9.06584 5.66307 9.36361 5.78294 9.61115C5.90258 9.85869 6.1999 9.96316 6.44814 9.84463C6.92894 9.61226 7.45237 9.85333 7.82917 10.1196H7.82939C6.7499 10.6212 5.83722 11.4216 5.19928 12.4263C4.56133 13.431 4.22516 14.5977 4.23053 15.7877C4.23053 17.5397 4.96025 18.7176 6.39928 19.2888C6.97939 19.5054 7.58745 19.637 8.2051 19.6801C8.2214 19.3417 8.29506 19.0085 8.42318 18.6949C6.54638 18.5415 5.23055 17.9634 5.23055 15.7877C5.22966 14.6641 5.58837 13.5697 6.25398 12.6645C6.9196 11.7594 7.85753 11.0909 8.93033 10.7569C9.43658 10.9306 9.96941 11.0127 10.5044 11C11.0321 11.0094 11.5576 10.9306 12.0594 10.767C13.1252 11.1054 14.0558 11.7746 14.7158 12.6773C15.3759 13.5799 15.7312 14.6694 15.7306 15.7878C15.7306 17.0673 15.2752 17.7938 14.5187 18.207L14.5186 18.207ZM11.9477 9.69611C11.9053 9.73629 11.8562 9.76887 11.8026 9.79231C11.3881 9.94722 10.9466 10.0178 10.5044 9.9999C9.81304 9.9999 9.23047 9.87111 9.06081 9.69611L7.77847 7.25794C7.71552 7.13026 7.72713 6.97825 7.80838 6.86128C7.88985 6.74432 8.02824 6.68093 8.16998 6.69544H8.35771C8.48806 6.69544 8.59431 6.69745 8.6807 6.69745C8.95079 6.69745 9.02557 6.67691 9.02557 6.50727C9.02557 6.12781 9.57914 5.80459 9.92711 5.63184C10.2918 5.45595 10.7168 5.45595 11.0813 5.63184C11.4291 5.80461 11.9829 6.12783 11.9829 6.50727C11.9829 6.67692 12.0577 6.69745 12.3277 6.69745C12.4141 6.69745 12.5204 6.69544 12.6507 6.69544L12.8514 6.72714C12.9949 6.7316 13.1248 6.81307 13.1911 6.94031C13.2577 7.06754 13.2501 7.22066 13.1715 7.34075L11.9477 9.69611Z" fill="url(#paint4_linear_3912_22934)"/>
<path d="M11.0824 16.8752C11.7355 16.7286 12.0759 16.3089 12.0759 15.704C12.0759 14.1451 9.79959 14.5255 9.79959 13.7085C9.79959 13.4589 9.99311 13.2158 10.5105 13.2158H10.5107C10.8328 13.2127 11.1442 13.3308 11.3837 13.5462C11.4524 13.6241 11.5482 13.673 11.6518 13.6833C11.8359 13.6848 11.9866 13.537 11.9886 13.3529C11.9879 13.2817 11.9663 13.2123 11.9263 13.1533C11.6444 12.8208 11.2388 12.6181 10.8038 12.592V12.2304C10.8044 12.1529 10.7743 12.0786 10.7198 12.0234C10.6654 11.9685 10.591 11.9375 10.5136 11.9375C10.4363 11.9375 10.362 11.9685 10.3075 12.0234C10.2531 12.0786 10.2229 12.1529 10.2236 12.2304V12.5859C9.42539 12.6732 9.07607 13.1534 9.07607 13.7085C9.07607 15.2114 11.3524 14.7935 11.3524 15.7041C11.3524 16.0907 11.0779 16.2777 10.5107 16.2777C10.1192 16.2663 9.74956 16.0951 9.48796 15.8036C9.42099 15.7199 9.32055 15.6699 9.21341 15.6666C9.02925 15.6686 8.88148 15.819 8.88282 16.0032C8.88327 16.065 8.90046 16.1253 8.93282 16.1779C9.23483 16.6011 9.70602 16.8721 10.2237 16.9201V17.013V17.0127C10.5011 16.9232 10.7909 16.8768 11.0824 16.8752Z" fill="url(#paint5_linear_3912_22934)"/>
<defs>
<linearGradient id="paint0_linear_3912_22934" x1="15.3358" y1="2" x2="15.3355" y2="3.21431" gradientUnits="userSpaceOnUse">
<stop stop-color="#005CAA"/>
<stop offset="1" stop-color="#64B0F1"/>
</linearGradient>
<linearGradient id="paint1_linear_3912_22934" x1="21.4255" y1="17.875" x2="21.4005" y2="32.7503" gradientUnits="userSpaceOnUse">
<stop stop-color="#005CAA"/>
<stop offset="1" stop-color="#64B0F1"/>
</linearGradient>
<linearGradient id="paint2_linear_3912_22934" x1="16.6721" y1="25.0312" x2="16.6615" y2="33.4935" gradientUnits="userSpaceOnUse">
<stop stop-color="#005CAA"/>
<stop offset="1" stop-color="#64B0F1"/>
</linearGradient>
<linearGradient id="paint3_linear_3912_22934" x1="16.6738" y1="-3.90474e-09" x2="16.571" y2="26.3639" gradientUnits="userSpaceOnUse">
<stop stop-color="#005CAA"/>
<stop offset="1" stop-color="#64B0F1"/>
</linearGradient>
<linearGradient id="paint4_linear_3912_22934" x1="13.9694" y1="4.5" x2="13.885" y2="22.933" gradientUnits="userSpaceOnUse">
<stop stop-color="#005CAA"/>
<stop offset="1" stop-color="#64B0F1"/>
</linearGradient>
<linearGradient id="paint5_linear_3912_22934" x1="11.3706" y1="11.9375" x2="11.3336" y2="18.1005" gradientUnits="userSpaceOnUse">
<stop stop-color="#005CAA"/>
<stop offset="1" stop-color="#64B0F1"/>
</linearGradient>
</defs>
</svg>