<svg width="38" height="38" viewBox="0 0 40 40" fill="none"
                                xmlns="http://www.w3.org/2000/svg">
                                <path
                                    d="M33.8025 0H6.3025C4.64802 0.000506229 3.06025 0.652338 1.88266 1.81449C0.705068 2.97664 0.03234 4.55567 0.01 6.21L0 6.1975V33.6975C0.000331402 35.3689 0.664449 36.9718 1.84633 38.1537C3.0282 39.3356 4.63107 39.9997 6.3025 40H27.5525C28.9325 40 30 38.88 30 37.5V11.25C30 10.56 29.4925 10 28.8025 10H6.3025C4.205 10 2.5 8.3975 2.5 6.3025C2.50099 5.29432 2.90193 4.32771 3.61482 3.61482C4.32771 2.90193 5.29432 2.50099 6.3025 2.5H32.5V31.25C32.5 31.94 33.1125 32.5 33.8025 32.5C34.4925 32.5 35 31.94 35 31.25V1.25C35 0.56 34.4925 0 33.8025 0ZM6.3025 12.5H27.5025L27.5525 37.5H6.3025C5.29432 37.499 4.32771 37.0981 3.61482 36.3852C2.90193 35.6723 2.50099 34.7057 2.5 33.6975V11.2775C3.55 12.0475 4.8625 12.5 6.3025 12.5Z"
                                    fill="url(#paint0_linear_5451_29832)" />
                                <defs>
                                    <linearGradient id="paint0_linear_5451_29832" x1="27.2688" y1="-7.19393e-09"
                                        x2="27.0594" y2="48.5716" gradientUnits="userSpaceOnUse">
                                        <stop stop-color="#005CAA" />
                                        <stop offset="1" stop-color="#64B0F1" />
                                    </linearGradient>
                                </defs>
                            </svg>