<svg width="38" height="38" viewBox="0 0 26 16" fill="none" xmlns="http://www.w3.org/2000/svg">
<path d="M6.2261 8.3959C5.87409 8.3959 5.58616 8.10795 5.58616 7.75595L5.58594 2.8919C5.58594 2.53988 5.87389 2.25195 6.22588 2.25195C6.57788 2.25195 6.86582 2.5399 6.86582 2.8919V7.72384C6.86605 8.10777 6.5781 8.39595 6.22611 8.39595L6.2261 8.3959Z" fill="url(#paint0_linear_4105_34145)"/>
<path d="M19.0908 10.3487H1.52276C1.17074 10.3487 0.882812 10.0607 0.882812 9.70872V7.18084C0.882812 6.82883 1.17076 6.5409 1.52276 6.5409C2.19487 6.5409 2.73881 5.99692 2.73881 5.32484C2.73881 4.65272 2.19484 4.10878 1.52276 4.10878C1.17074 4.10878 0.882812 3.82083 0.882812 3.46884V0.940724C0.882812 0.588712 1.17076 0.300781 1.52276 0.300781H19.0908C19.4428 0.300781 19.7307 0.588729 19.7307 0.940724V9.70872C19.7309 10.0605 19.4427 10.3487 19.0908 10.3487ZM2.16276 9.06855H18.4508V1.58055H2.16276V2.92455C3.21876 3.2125 4.01876 4.17255 4.01876 5.32455C4.01876 6.47655 3.21876 7.43661 2.16276 7.72455V9.06855Z" fill="url(#paint1_linear_4105_34145)"/>
<path d="M21.7158 13.0693H4.14776C3.79574 13.0693 3.50781 12.7814 3.50781 12.4294C3.50781 12.0774 3.79576 11.7894 4.14776 11.7894H21.0758L21.076 3.66143C21.076 3.30942 21.3639 3.02148 21.7159 3.02148C22.0679 3.02148 22.3559 3.30943 22.3559 3.66143V12.4294C22.3559 12.7814 22.0679 13.0694 21.7159 13.0694L21.7158 13.0693Z" fill="url(#paint2_linear_4105_34145)"/>
<path d="M24.497 15.6611H6.92901C6.57699 15.6611 6.28906 15.3732 6.28906 15.0212C6.28906 14.6692 6.57701 14.3812 6.92901 14.3812H23.857V6.25322C23.857 5.90121 24.145 5.61328 24.497 5.61328C24.849 5.61328 25.1369 5.90123 25.1369 6.25322V15.0212C25.1369 15.3732 24.8489 15.6612 24.497 15.6612L24.497 15.6611Z" fill="url(#paint3_linear_4105_34145)"/>
<defs>
<linearGradient id="paint0_linear_4105_34145" x1="6.58311" y1="2.25195" x2="6.448" y2="9.71024" gradientUnits="userSpaceOnUse">
<stop stop-color="#005CAA"/>
<stop offset="1" stop-color="#64B0F1"/>
</linearGradient>
<linearGradient id="paint1_linear_4105_34145" x1="15.5674" y1="0.300781" x2="15.5428" y2="12.502" gradientUnits="userSpaceOnUse">
<stop stop-color="#005CAA"/>
<stop offset="1" stop-color="#64B0F1"/>
</linearGradient>
<linearGradient id="paint2_linear_4105_34145" x1="18.1925" y1="3.02148" x2="18.168" y2="15.2227" gradientUnits="userSpaceOnUse">
<stop stop-color="#005CAA"/>
<stop offset="1" stop-color="#64B0F1"/>
</linearGradient>
<linearGradient id="paint3_linear_4105_34145" x1="20.9736" y1="5.61328" x2="20.949" y2="17.8145" gradientUnits="userSpaceOnUse">
<stop stop-color="#005CAA"/>
<stop offset="1" stop-color="#64B0F1"/>
</linearGradient>
</defs>
</svg>