<svg width="37" height="39" viewBox="0 0 37 39" fill="none" xmlns="http://www.w3.org/2000/svg">
<path d="M33.2461 11.5833C33.2461 8.1 30.3961 5.25 26.9128 5.25H25.3294C24.3794 5.25 23.7461 5.88333 23.7461 6.83333C23.7461 7.78333 24.3794 8.41667 25.3294 8.41667H26.9128C28.6544 8.41667 30.0794 9.84167 30.0794 11.5833V13.325C30.0794 14.275 30.7128 14.9083 31.6628 14.9083C32.6128 14.9083 33.2461 14.275 33.2461 13.325V11.5833ZM33.2461 25.8333C33.2461 24.8833 32.6128 24.25 31.6628 24.25C30.7128 24.25 30.0794 24.8833 30.0794 25.8333V27.4167C30.0794 29.1583 28.6544 30.5833 26.9128 30.5833H25.3294C24.3794 30.5833 23.7461 31.2167 23.7461 32.1667C23.7461 33.1167 24.3794 33.75 25.3294 33.75H26.9128C30.3961 33.75 33.2461 30.9 33.2461 27.4167V25.8333ZM4.74609 27.4167C4.74609 30.9 7.59609 33.75 11.0794 33.75H12.6628C13.6128 33.75 14.2461 33.1167 14.2461 32.1667C14.2461 31.2167 13.6128 30.5833 12.6628 30.5833H11.0794C9.33776 30.5833 7.91276 29.1583 7.91276 27.4167V25.8333C7.91276 24.8833 7.27943 24.25 6.32943 24.25C5.37943 24.25 4.74609 24.8833 4.74609 25.8333V27.4167ZM12.6628 5.25H11.0794C7.59609 5.25 4.74609 8.1 4.74609 11.5833V13.1667C4.74609 14.1167 5.37943 14.75 6.32943 14.75C7.27943 14.75 7.91276 14.1167 7.91276 13.1667V11.5833C7.91276 9.84167 9.33776 8.41667 11.0794 8.41667H12.6628C13.6128 8.41667 14.2461 7.78333 14.2461 6.83333C14.2461 5.88333 13.6128 5.25 12.6628 5.25ZM23.7461 14.75C23.7461 12.0583 21.6878 10 18.9961 10C16.3044 10 14.2461 12.0583 14.2461 14.75C14.2461 17.4417 16.3044 19.5 18.9961 19.5C21.6878 19.5 23.7461 17.4417 23.7461 14.75ZM18.9961 16.3333C18.0461 16.3333 17.4128 15.7 17.4128 14.75C17.4128 13.8 18.0461 13.1667 18.9961 13.1667C19.9461 13.1667 20.5794 13.8 20.5794 14.75C20.5794 15.7 19.9461 16.3333 18.9961 16.3333Z" fill="url(#paint0_linear_3703_35211)"/>
<path d="M11.8712 23.3L11.2379 25.3583C10.9212 26.15 11.3962 27.1 12.1879 27.4167C12.9795 27.7333 13.9295 27.2583 14.2462 26.4667L14.8795 24.25C15.1962 23.3 16.1462 22.6667 17.0962 22.6667H20.8962C21.8462 22.6667 22.7962 23.3 23.1129 24.25L23.7462 26.3083C23.9045 26.9417 24.5379 27.4167 25.1712 27.4167C25.3295 27.4167 25.4879 27.4167 25.6462 27.2583C26.4379 26.9417 26.9129 26.15 26.5962 25.2L25.9629 23.1417C25.3295 21.0833 23.2712 19.5 20.8962 19.5H17.0962C14.7212 19.5 12.6629 21.0833 11.8712 23.3Z" fill="url(#paint1_linear_3703_35211)"/>
<path d="M11.8712 23.3L11.2379 25.3583C10.9212 26.15 11.3962 27.1 12.1879 27.4167C12.9795 27.7333 13.9295 27.2583 14.2462 26.4667L14.8795 24.25C15.1962 23.3 16.1462 22.6667 17.0962 22.6667H20.8962C21.8462 22.6667 22.7962 23.3 23.1129 24.25L23.7462 26.3083C23.9045 26.9417 24.5379 27.4167 25.1712 27.4167C25.3295 27.4167 25.4879 27.4167 25.6462 27.2583C26.4379 26.9417 26.9129 26.15 26.5962 25.2L25.9629 23.1417C25.3295 21.0833 23.2712 19.5 20.8962 19.5H17.0962C14.7212 19.5 12.6629 21.0833 11.8712 23.3Z" fill="black" fill-opacity="0.2"/>
<defs>
<linearGradient id="paint0_linear_3703_35211" x1="18.9961" y1="5.25" x2="18.9961" y2="33.75" gradientUnits="userSpaceOnUse">
<stop stop-color="#FF0F0F"/>
<stop offset="1" stop-color="#FF4849"/>
</linearGradient>
<linearGradient id="paint1_linear_3703_35211" x1="18.917" y1="19.5" x2="18.917" y2="27.5159" gradientUnits="userSpaceOnUse">
<stop stop-color="#FF0F0F"/>
<stop offset="1" stop-color="#FF4849"/>
</linearGradient>
</defs>
</svg>