   <svg width="38" height="38" viewBox="0 0 30 30" fill="none"
                                xmlns="http://www.w3.org/2000/svg">
                                <path
                                    d="M29.1601 24.3991L24.9436 20.214C24.8276 20.0991 24.6539 20.0649 24.5032 20.1275C24.3524 20.1902 24.254 20.3378 24.254 20.5009V22.7154H20.5904C22.9781 20.9818 24.534 18.1692 24.534 14.9992C24.534 9.74385 20.2587 5.46825 15.003 5.46825C13.4739 5.46825 12.0279 5.83087 10.746 6.47362H5.34759C5.12409 6.47362 4.94299 6.65472 4.94299 6.87822V8.52547L1.70556 5.31224L4.94321 2.0988V3.74604C4.94321 3.96955 5.1243 4.15064 5.34781 4.15064H15.0031C15.2266 4.15064 15.4077 3.96955 15.4077 3.74604C15.4077 3.52254 15.2266 3.34166 15.0031 3.34166H5.75224V1.12718C5.75224 0.96369 5.65406 0.816521 5.50308 0.753756C5.35231 0.690991 5.17842 0.724917 5.06264 0.840277L0.846159 5.02495C0.769605 5.10086 0.726562 5.20413 0.726562 5.31207C0.726562 5.42 0.769609 5.52327 0.846159 5.59919L5.06264 9.78429C5.13983 9.86085 5.24288 9.90177 5.34764 9.90177C5.39981 9.90177 5.45282 9.8916 5.50308 9.87081C5.65384 9.80805 5.75224 9.66046 5.75224 9.49739V7.28291H9.41565C7.02817 9.01669 5.47229 11.8293 5.47229 14.9991C5.47229 20.2544 9.74794 24.53 15.0032 24.53C16.5323 24.53 17.9784 24.1674 19.2602 23.5247H24.6584C24.8819 23.5247 25.063 23.3436 25.063 23.1201V21.4728L28.3007 24.686L25.063 27.8995V26.2522C25.063 26.0287 24.8819 25.8476 24.6584 25.8476H15.0032C14.7797 25.8476 14.5986 26.0287 14.5986 26.2522C14.5986 26.4757 14.7797 26.6568 15.0032 26.6568H24.254V28.8713C24.254 29.0348 24.3522 29.182 24.5032 29.2447C24.5534 29.2657 24.606 29.2757 24.6586 29.2757C24.7634 29.2757 24.8664 29.2348 24.9436 29.1582L29.1601 24.9731C29.2366 24.8972 29.2797 24.7939 29.2797 24.686C29.2797 24.5781 29.2366 24.4748 29.1601 24.3989V24.3991ZM6.28136 14.9995C6.28136 10.1903 10.1937 6.27797 15.0029 6.27797C19.8121 6.27797 23.7245 10.1903 23.7245 14.9995C23.7245 19.8087 19.8121 23.7211 15.0029 23.7211C10.1937 23.7211 6.28136 19.8087 6.28136 14.9995ZM15.0029 7.716C10.9866 7.716 7.71939 10.9834 7.71939 14.9995C7.71939 19.0157 10.9867 22.283 15.0029 22.283C19.0191 22.283 22.2864 19.0157 22.2864 14.9995C22.2864 10.9834 19.0191 7.716 15.0029 7.716ZM15.0029 21.4742C11.4328 21.4742 8.52825 18.5697 8.52825 14.9995C8.52825 11.4294 11.4328 8.52486 15.0029 8.52486C18.5731 8.52486 21.4776 11.4294 21.4776 14.9995C21.4776 18.5697 18.5731 21.4742 15.0029 21.4742ZM17.257 16.6813C17.257 17.6865 16.4618 18.5256 15.4155 18.7028L15.4295 19.2805C15.4348 19.5038 15.2582 19.6893 15.0349 19.6946H15.0251C14.8063 19.6946 14.6261 19.5199 14.6208 19.2998L14.6066 18.7094C13.9691 18.6153 13.577 18.2934 13.1783 17.9172C13.0159 17.7639 13.0083 17.5077 13.1618 17.3453C13.3151 17.1828 13.5713 17.1752 13.7337 17.3285C14.1818 17.7514 14.4572 17.928 15.0035 17.928C15.8002 17.928 16.4484 17.3688 16.4484 16.6809C16.4484 15.9934 15.8002 15.4338 15.0035 15.4338C13.7606 15.4338 12.7494 14.5114 12.7494 13.3777C12.7494 12.372 13.5452 11.5329 14.5923 11.3558L14.5771 10.7177C14.5718 10.4942 14.7484 10.3089 14.9719 10.3036C15.1952 10.2966 15.3808 10.4749 15.3861 10.6984L15.4022 11.3679C15.9633 11.4839 16.6821 11.81 16.9824 12.2672C17.1052 12.454 17.0534 12.7049 16.8664 12.8274C16.6796 12.9502 16.4287 12.8984 16.3062 12.7114C16.1219 12.4311 15.384 12.1306 15.0033 12.1306C14.2066 12.1306 13.5586 12.6902 13.5584 13.3777C13.5584 14.0652 14.2066 14.6248 15.0033 14.6248C16.2457 14.6252 17.257 15.5477 17.257 16.6813Z"
                                    fill="#CC1212" />
                            </svg>