<svg width="38" height="38" viewBox="0 0 32 24" fill="none" xmlns="http://www.w3.org/2000/svg">
<path d="M28.0409 2.07245H3.99005C3.78938 2.07245 3.62643 2.2354 3.62643 2.43607C3.78648 19.0121 3.28648 19.2721 3.99005 19.2721H28.0409C28.2416 19.2721 28.4045 19.1091 28.4045 18.9085V2.43588C28.4045 2.23521 28.2416 2.07227 28.0409 2.07227V2.07245ZM27.6773 18.5445H4.35386V2.79931H27.6773V18.5445Z" fill="#CC1212"/>
<path d="M31.1665 20.5511H30.417V0.420258C30.417 0.219589 30.254 0.0566406 30.0534 0.0566406H1.97678C1.77611 0.0566406 1.61316 0.219589 1.61316 0.420258V20.5511L0.863617 20.5513C0.662949 20.5513 0.5 20.7143 0.5 20.915C0.5 22.5786 1.85377 23.9322 3.5172 23.9322H28.5138C30.1774 23.9322 31.5305 22.5784 31.5305 20.915C31.5305 20.7143 31.3676 20.5513 31.1669 20.5513L31.1665 20.5511ZM2.34022 0.783686H29.6899V20.5511L2.34022 20.5513V0.783686ZM28.5134 23.2043H3.51679C2.37794 23.2043 1.43039 22.3683 1.25588 21.2779C1.39851 21.2779 32.7576 21.2949 30.7742 21.2779C30.5992 22.3688 29.6518 23.2043 28.5135 23.2043H28.5134Z" fill="#CC1212"/>
<path d="M9.02846 12.1116L10.1925 12.3139C10.3162 12.7686 10.4979 13.209 10.7352 13.6297L10.0568 14.5976C9.95592 14.7416 9.97244 14.938 10.0965 15.0625L11.618 16.5942C11.7425 16.7188 11.9385 16.7369 12.0834 16.6364L13.0624 15.9567C13.4803 16.1909 13.92 16.3712 14.3745 16.4949L14.5809 17.6654C14.6115 17.8391 14.7629 17.9661 14.9392 17.9661H17.0952C17.2718 17.9661 17.4224 17.8395 17.4534 17.6654L17.6599 16.4949C18.1079 16.3732 18.5472 16.1924 18.9704 15.9563L19.945 16.636C20.0894 16.7364 20.2859 16.7195 20.4109 16.5942L21.9372 15.0625C22.0618 14.938 22.0787 14.7416 21.9774 14.5976L21.2981 13.6284C21.5372 13.2007 21.7189 12.7605 21.8412 12.3139L23.0106 12.1112C23.1847 12.0811 23.3122 11.9299 23.3122 11.7529V9.59693C23.3122 9.42104 23.1861 9.27059 23.0131 9.23912L21.8446 9.02773C21.718 8.57595 21.5347 8.13602 21.2981 7.71522L21.9774 6.74225C22.0783 6.59783 22.0609 6.40095 21.9357 6.27685L20.4089 4.75496C20.2847 4.6313 20.0899 4.61389 19.9448 4.71367L18.9718 5.38864C18.5549 5.15404 18.1151 4.97369 17.6593 4.85047L17.4528 3.67567C17.4222 3.50156 17.2709 3.375 17.0946 3.375H14.9386C14.762 3.375 14.6113 3.50156 14.5803 3.67567L14.3734 4.85047C13.9113 4.97547 13.4712 5.15583 13.06 5.38819L12.0821 4.71277C11.9382 4.61299 11.7429 4.63085 11.6181 4.75495L10.0966 6.27684C9.97209 6.40139 9.95468 6.59782 10.056 6.74179L10.7344 7.71391C10.4998 8.12752 10.317 8.56728 10.1888 9.02728L9.02523 9.23866C8.85224 9.27013 8.72656 9.42103 8.72656 9.59647V11.7525C8.72701 11.9304 8.85447 12.0815 9.02857 12.1116L9.02846 12.1116ZM9.45413 9.90112L10.5479 9.70223C10.6905 9.67656 10.8039 9.56897 10.837 9.4279C10.966 8.88147 11.1807 8.36476 11.4756 7.8915C11.5526 7.76784 11.5488 7.61025 11.4653 7.49105L10.8267 6.57608L11.9186 5.48414L12.8389 6.11985C12.9581 6.20222 13.1153 6.20624 13.238 6.12901C13.7063 5.83659 14.2222 5.62566 14.7715 5.50112C14.9146 5.46853 15.0238 5.3538 15.0494 5.20915L15.2443 4.10224H16.7901L16.9849 5.20915C17.0106 5.35357 17.1202 5.46898 17.2633 5.50112C17.8097 5.62389 18.3115 5.82947 18.7975 6.12946C18.9202 6.20558 19.0767 6.20112 19.1959 6.11875L20.1113 5.48372L21.2071 6.57612L20.5689 7.49063C20.4866 7.60938 20.4816 7.76564 20.5573 7.88862C20.8564 8.3759 21.0718 8.89377 21.1973 9.42748C21.2303 9.56856 21.3441 9.67614 21.4868 9.70181L22.5855 9.9007V11.4469L21.4843 11.6375C21.3394 11.6628 21.224 11.7724 21.1915 11.9159C21.0736 12.4391 20.8602 12.9578 20.5569 13.4572C20.4817 13.5804 20.487 13.7365 20.5694 13.8548L21.2069 14.7648L20.1111 15.8644L19.1966 15.2262C19.0783 15.1438 18.9227 15.1385 18.7995 15.2141C18.3002 15.5177 17.7973 15.7237 17.2631 15.844C17.12 15.8759 17.0104 15.9913 16.9847 16.136L16.7903 17.238H15.2441L15.0497 16.136C15.024 15.992 14.9148 15.8771 14.7718 15.8447C14.2345 15.723 13.7178 15.5112 13.2358 15.2154C13.1126 15.1393 12.9566 15.1442 12.8383 15.227L11.9191 15.8657L10.8267 14.7666L11.4653 13.8561C11.5488 13.7369 11.553 13.5797 11.4769 13.4561C11.1767 12.9708 10.964 12.4529 10.8427 11.9167C10.8108 11.7737 10.6954 11.6636 10.5503 11.6384L9.45411 11.4478L9.45413 9.90112Z" fill="#CC1212"/>
<path d="M16.0116 15.2305H16.0132C18.5625 15.2305 20.5716 13.1341 20.5716 10.668C20.5716 8.19681 18.5531 6.11133 16.015 6.11133C13.4656 6.11133 11.4531 8.20059 11.4531 10.668C11.4531 13.1497 13.4808 15.2296 16.0116 15.2305ZM14.8819 7.00939C14.7127 7.33171 14.5741 7.72499 14.4663 8.16276H13.1214C13.8473 7.32796 14.5756 7.15384 14.8819 7.00939ZM17.1415 14.3322C17.3107 14.0093 17.4493 13.6162 17.5571 13.1773H18.902C18.1078 14.0938 17.2087 14.2974 17.1415 14.3322ZM16.0116 6.83853H16.0121C16.2284 6.83853 16.5623 7.29679 16.8054 8.16264H15.2179C15.4614 7.29721 15.7955 6.83899 16.0116 6.83853ZM18.9029 8.1631H17.5574C17.4498 7.72471 17.3105 7.33161 17.1418 7.0091C17.8333 7.22249 18.4393 7.62939 18.9029 8.1631ZM16.0157 14.502H16.0152C16.0123 14.502 16.0099 14.5015 16.007 14.5015C15.7907 14.4948 15.4601 14.0374 15.2186 13.1769H16.8054C16.5635 14.0399 16.232 14.4974 16.0157 14.502ZM14.882 14.3308C14.1916 14.1165 13.586 13.7102 13.123 13.1774H14.467C14.5742 13.6156 14.7128 14.0084 14.882 14.3308ZM15.0572 12.45C14.986 12.0359 14.9364 11.5631 14.9204 11.0312H17.1032C17.0871 11.5627 17.0378 12.0359 16.9663 12.45H15.0572ZM17.8308 11.0314H19.8246C19.7766 11.5395 19.6286 12.0185 19.4014 12.4502H17.7021C17.7728 11.9966 17.8163 11.5167 17.8308 11.0314ZM19.8242 10.3042H17.8304C17.8159 9.82025 17.7728 9.34235 17.7014 8.88989H19.4011C19.6288 9.32025 19.7766 9.79749 19.8242 10.3042ZM16.967 8.89035C17.0382 9.30352 17.0873 9.77475 17.1032 10.3046H14.9204C14.936 9.77517 14.9858 9.30349 15.0565 8.89035H16.967ZM14.1931 10.3042H12.1994C12.2473 9.79748 12.3953 9.32047 12.6217 8.88989H14.3214C14.2507 9.34213 14.2072 9.82069 14.1931 10.3042ZM14.1931 11.0314C14.2076 11.5167 14.2507 11.9964 14.3221 12.4502H12.6228C12.4023 12.0317 12.2472 11.5372 12.1996 11.0314H14.1931Z" fill="#CC1212"/>
<path d="M17.184 21.877H14.8402C14.6395 21.877 14.4766 22.0399 14.4766 22.2406C14.4766 22.4412 14.6395 22.6042 14.8402 22.6042H17.184C17.3846 22.6042 17.5476 22.4412 17.5476 22.2406C17.5476 22.0399 17.3851 21.877 17.184 21.877Z" fill="#CC1212"/>
</svg>