<svg width="38" height="38" viewBox="0 0 49 49" fill="none" xmlns="http://www.w3.org/2000/svg">
<path d="M48.3844 29.0707V19.293L43.2435 18.6377C42.8301 17.2368 42.2756 15.8959 41.5803 14.6461L44.7454 10.5335L37.8305 3.61863L33.7482 6.79392C32.4882 6.08834 31.1477 5.54409 29.7263 5.13072L29.071 0H19.3033L18.648 5.13072C17.2266 5.54416 15.8963 6.08841 14.6462 6.79392L10.5434 3.61863L3.62853 10.5335L6.79365 14.6363C6.09826 15.8963 5.54382 17.2368 5.12019 18.6381L0 19.2931V29.0707L5.12055 29.7358C5.54383 31.147 6.09822 32.4875 6.79401 33.7377L3.62889 37.8302L10.5438 44.7553L14.6465 41.58C15.8963 42.2754 17.227 42.8298 18.6484 43.2432L19.3037 48.3739H29.0714L29.7267 43.233C31.148 42.8298 32.4886 42.2753 33.7486 41.58L37.8309 44.7553L44.7458 37.8302L41.5807 33.7377C42.2761 32.4878 42.8305 31.1474 43.2439 29.7358L48.3844 29.0707ZM27.6295 38.2633C26.5309 38.5354 25.3816 38.6767 24.1923 38.6767C23.0332 38.6767 21.8942 38.5357 20.8155 38.2836C14.435 36.7617 9.69691 31.026 9.69691 24.1815C9.69691 16.1881 16.1885 9.69604 24.1914 9.69604C32.1848 9.69604 38.6769 16.1877 38.6769 24.1815C38.6769 30.9955 33.9695 36.7212 27.6294 38.2629L27.6295 38.2633Z" fill="url(#paint0_linear_3620_16672)"/>
<path d="M24.5243 23.6907C26.8288 23.6907 28.6946 21.825 28.6946 19.5204C28.6946 17.2254 26.8289 15.3594 24.5243 15.3594C22.2293 15.3594 20.3633 17.2251 20.3633 19.5204C20.3633 21.8249 22.229 23.6907 24.5243 23.6907Z" fill="url(#paint1_linear_3620_16672)"/>
<path d="M24.1762 25.0742C19.8062 25.0742 16.2383 28.6198 16.2383 33.0121H32.1359C32.1359 28.6193 28.5689 25.0742 24.1762 25.0742Z" fill="url(#paint2_linear_3620_16672)"/>
<defs>
<linearGradient id="paint0_linear_3620_16672" x1="37.6967" y1="-8.69996e-09" x2="37.4751" y2="58.7402" gradientUnits="userSpaceOnUse">
<stop stop-color="#005CAA"/>
<stop offset="1" stop-color="#64B0F1"/>
</linearGradient>
<linearGradient id="paint1_linear_3620_16672" x1="26.8543" y1="15.3594" x2="26.8161" y2="25.476" gradientUnits="userSpaceOnUse">
<stop stop-color="#005CAA"/>
<stop offset="1" stop-color="#64B0F1"/>
</linearGradient>
<linearGradient id="paint2_linear_3620_16672" x1="28.6243" y1="25.0742" x2="28.6061" y2="34.7133" gradientUnits="userSpaceOnUse">
<stop stop-color="#005CAA"/>
<stop offset="1" stop-color="#64B0F1"/>
</linearGradient>
</defs>
</svg>