<svg width="38" height="38" viewBox="0 0 30 30" fill="none"
                                xmlns="http://www.w3.org/2000/svg">
                                <path
                                    d="M24.2047 2.83008H15.1358C8.07632 2.83008 2.35469 8.55172 2.35469 15.6112V21.6673V21.7423H2.42969H2.90469H2.97969V21.6673V15.6112C2.97969 8.90762 8.43222 3.45508 15.1358 3.45508H24.5169C24.689 3.45508 24.8294 3.31463 24.8294 3.14258V1.82796L28.2291 4.09258L24.8294 6.3572V5.04258C24.8294 4.87054 24.689 4.73008 24.5169 4.73008H15.2547C9.18647 4.73008 4.25469 9.66208 4.25469 15.7301V21.6679V21.7429H4.32969H4.80469H4.87969V21.6679V15.7301C4.87969 10.0123 9.53672 5.35508 15.2547 5.35508H24.2047V6.94258C24.2047 7.11463 24.3451 7.25508 24.5172 7.25508C24.5746 7.25508 24.6397 7.24118 24.6924 7.19892L28.9644 4.35092C29.1052 4.25703 29.1445 4.06309 29.0515 3.92188C29.028 3.883 29.0019 3.8569 28.963 3.83332L24.6894 0.984245L24.6894 0.984244C24.5481 0.890019 24.3531 0.929019 24.2588 1.07036L24.2587 1.07026L24.2561 1.07475C24.2301 1.12025 24.2047 1.17556 24.2047 1.24258V2.83008Z"
                                    fill="url(#paint0_linear_5422_29652)" stroke="url(#paint1_linear_5422_29652)"
                                    stroke-width="0.15" />
                                <path
                                    d="M15.9643 22.9302C20.3283 22.9302 23.8771 19.3817 23.8771 15.0175C23.8771 10.6533 20.3285 7.10469 15.9643 7.10469H14.0643C9.70041 7.10469 6.15156 10.6533 6.15156 15.0175C6.15156 19.3817 9.70014 22.9302 14.0643 22.9302H15.9643ZM20.1439 20.0802H21.205C20.1991 21.1174 18.9145 21.8321 17.5143 22.1395C18.5223 21.6491 19.4187 20.9487 20.1439 20.0802ZM22.7411 17.7052C22.4859 18.3322 22.1539 18.9219 21.7405 19.4552H20.6142C20.9852 18.9096 21.2819 18.3247 21.5091 17.7052H22.7411ZM21.9685 15.3302H23.2434C23.2204 15.9252 23.1215 16.5101 22.956 17.0802H21.7039C21.8601 16.5095 21.9468 15.9201 21.9685 15.3302ZM22.956 12.9552C23.1215 13.5254 23.2204 14.1102 23.2434 14.7052H21.9685C21.9464 14.1149 21.8548 13.5255 21.7031 12.9552H22.956ZM21.7405 10.5802C22.154 11.1137 22.4859 11.7034 22.7361 12.3302H21.5036C21.2811 11.7103 20.9796 11.1255 20.6083 10.5802H21.7405ZM20.138 9.95524C19.4175 9.09148 18.5216 8.38745 17.5098 7.89585C18.914 8.20322 20.1984 8.91807 21.1996 9.95524H20.138ZM6.77656 15.0177C6.77659 10.9919 10.0383 7.73051 14.0638 7.73051C18.0893 7.73051 21.351 10.9922 21.351 15.0177C21.351 19.0432 18.0894 22.3049 14.0639 22.305C10.0381 22.2991 6.78196 19.0432 6.77656 15.0177Z"
                                    fill="url(#paint2_linear_5422_29652)" stroke="url(#paint3_linear_5422_29652)"
                                    stroke-width="0.15" />
                                <path
                                    d="M5.20535 26.8925V28.2071L1.80564 25.9425L5.20535 23.6778V24.9925C5.20535 25.1645 5.34581 25.305 5.51785 25.305H14.7801C20.8483 25.305 25.7801 20.373 25.7801 14.305V8.36719V8.29219H25.7051H25.2301H25.1551V8.36719V14.305C25.1551 20.0227 20.4981 24.68 14.7801 24.68H5.83008V23.0925C5.83008 22.9204 5.68963 22.78 5.51758 22.78C5.46018 22.78 5.39509 22.7939 5.34236 22.8361L1.07036 25.6841C0.929015 25.7783 0.890019 25.9734 0.984246 26.1147L0.98415 26.1147L0.986649 26.1181C1.00872 26.1475 1.03752 26.1763 1.06696 26.1984L1.06689 26.1985L1.07036 26.2008L5.34536 29.0508C5.4867 29.145 5.6817 29.106 5.77593 28.9647L5.77607 28.9648L5.77864 28.9603C5.80464 28.9148 5.83008 28.8595 5.83008 28.7925V27.205H14.899C21.9585 27.205 27.6801 21.4833 27.6801 14.4238V8.36773V8.29273H27.6051H27.1301H27.0551V8.36773V14.4238C27.0551 21.1274 21.6025 26.58 14.899 26.58H5.51785C5.34581 26.58 5.20535 26.7204 5.20535 26.8925Z"
                                    fill="url(#paint4_linear_5422_29652)" stroke="url(#paint5_linear_5422_29652)"
                                    stroke-width="0.15" />
                                <path
                                    d="M12.9037 19.4233L12.9039 19.4232C14.6274 18.8911 15.8068 17.3005 15.8068 15.4922C15.8068 13.7083 14.6515 12.1261 12.9568 11.5779V10.9891C13.3313 10.8267 13.5244 10.3949 13.3859 10.0046C13.2744 9.68985 12.979 9.47969 12.6443 9.47969H10.7443C10.311 9.47969 9.95677 9.83389 9.95677 10.2672C9.95677 10.5839 10.1449 10.8654 10.4318 10.9892V11.5777C8.29366 12.264 7.10343 14.5484 7.76318 16.7017C8.42849 18.8731 10.7328 20.0885 12.9037 19.4233ZM13.3753 17.6178L13.929 18.1662C13.3841 18.6232 12.7121 18.9025 12.0068 18.9622V17.8673V17.7923H11.9318H11.4568H11.3818V17.8673V18.9676C10.6758 18.9031 10.0038 18.6283 9.45921 18.1719L10.0136 17.6175L10.0666 17.5645L10.0136 17.5115L9.67512 17.173L9.62209 17.12L9.56906 17.173L9.01469 17.7274C8.55754 17.1824 8.27814 16.5103 8.21836 15.8048H9.31929H9.39429V15.7298V15.2548V15.1798H9.31929H8.21894C8.28353 14.4738 8.55824 13.8019 9.0147 13.2573L9.56906 13.8116L9.62209 13.8647L9.67512 13.8116L10.0136 13.4732L10.0666 13.4202L10.0136 13.3671L9.45928 12.8128C10.7517 11.7315 12.6368 11.7316 13.9234 12.8127L13.369 13.3671L13.316 13.4202L13.369 13.4732L13.7075 13.8116L13.7605 13.8647L13.8135 13.8116L14.3679 13.2573C14.8251 13.8022 15.1045 14.4743 15.1642 15.1798H14.0693H13.9943V15.2548V15.7298V15.8048H14.0693H15.1696C15.105 16.5108 14.8303 17.1828 14.3739 17.7274L13.8195 17.173L13.7665 17.12L13.7134 17.173L13.375 17.5115L13.3217 17.5647L13.3753 17.6178ZM10.7443 10.105H12.6443C12.7335 10.105 12.8068 10.1783 12.8068 10.2675C12.8068 10.3567 12.7335 10.43 12.6443 10.43H10.7443C10.6551 10.43 10.5818 10.3567 10.5818 10.2675C10.5818 10.1783 10.6551 10.105 10.7443 10.105ZM12.3318 11.055V11.4318C11.9108 11.3666 11.4777 11.3666 11.0568 11.4318V11.055H12.3318Z"
                                    fill="url(#paint6_linear_5422_29652)" stroke="url(#paint7_linear_5422_29652)"
                                    stroke-width="0.15" />
                                <path
                                    d="M11.3863 15.3546L10.0485 16.6924L9.9955 16.7454L10.0485 16.7984L10.387 17.1369L10.44 17.1899L10.493 17.1369L11.918 15.7119C11.9792 15.6507 12.0113 15.5725 12.0113 15.4926V12.6426V12.5676H11.9363H11.4613H11.3863V12.6426V15.3546Z"
                                    fill="url(#paint8_linear_5422_29652)" stroke="url(#paint9_linear_5422_29652)"
                                    stroke-width="0.15" />
                                <path
                                    d="M16.6038 15.4914L16.6038 15.4921C16.6096 16.8427 16.0482 18.141 15.0658 19.0649L15.011 19.1165L15.0628 19.1711L15.3893 19.5155L15.4407 19.5696L15.4951 19.5186C15.7743 19.2569 16.0255 18.9669 16.2431 18.6542H18.3413H18.4163V18.5792V18.1042V18.0292H18.3413H16.6197C16.7531 17.7717 16.8655 17.5028 16.9534 17.2292H18.8162H18.8912V17.1542V16.6792V16.6042H18.8162H17.116C17.1706 16.3383 17.2012 16.0726 17.2185 15.8042H19.2912H19.3662V15.7292V15.2542V15.1792H19.2912H17.2196C17.198 14.7449 17.1249 14.3198 17.0002 13.9042H19.7662H19.8412V13.8292V13.3542V13.2792H19.7662H16.7696C16.6482 13.0022 16.5059 12.7332 16.3392 12.4792H19.2912H19.3662V12.4042V11.9292V11.8542H19.2912H15.8695C15.7502 11.7193 15.6256 11.5897 15.4956 11.4653L15.4412 11.4133L15.3893 11.4679L15.0628 11.8123L15.0109 11.867L15.0658 11.9185C16.0482 12.8425 16.6096 14.1407 16.6038 15.4914Z"
                                    fill="url(#paint10_linear_5422_29652)" stroke="url(#paint11_linear_5422_29652)"
                                    stroke-width="0.15" />
                                <path
                                    d="M19.7656 15.1809H19.6906V15.2559V15.7309V15.8059H19.7656H20.7156H20.7906V15.7309V15.2559V15.1809H20.7156H19.7656Z"
                                    fill="url(#paint12_linear_5422_29652)" stroke="url(#paint13_linear_5422_29652)"
                                    stroke-width="0.15" />
                                <path
                                    d="M18.8203 18.0305H18.7453V18.1055V18.5805V18.6555H18.8203H19.7703H19.8453V18.5805V18.1055V18.0305H19.7703H18.8203Z"
                                    fill="url(#paint14_linear_5422_29652)" stroke="url(#paint15_linear_5422_29652)"
                                    stroke-width="0.15" />
                                <defs>
                                    <linearGradient id="paint0_linear_5422_29652" x1="23.1519" y1="1.00781" x2="23.0783"
                                        y2="26.0953" gradientUnits="userSpaceOnUse">
                                        <stop stop-color="#005CAA" />
                                        <stop offset="1" stop-color="#64B0F1" />
                                    </linearGradient>
                                    <linearGradient id="paint1_linear_5422_29652" x1="23.1519" y1="1.00781" x2="23.0783"
                                        y2="26.0953" gradientUnits="userSpaceOnUse">
                                        <stop stop-color="#005CAA" />
                                        <stop offset="1" stop-color="#64B0F1" />
                                    </linearGradient>
                                    <linearGradient id="paint2_linear_5422_29652" x1="19.9198" y1="7.17969" x2="19.8558"
                                        y2="26.2145" gradientUnits="userSpaceOnUse">
                                        <stop stop-color="#005CAA" />
                                        <stop offset="1" stop-color="#64B0F1" />
                                    </linearGradient>
                                    <linearGradient id="paint3_linear_5422_29652" x1="19.9198" y1="7.17969" x2="19.8558"
                                        y2="26.2145" gradientUnits="userSpaceOnUse">
                                        <stop stop-color="#005CAA" />
                                        <stop offset="1" stop-color="#64B0F1" />
                                    </linearGradient>
                                    <linearGradient id="paint4_linear_5422_29652" x1="21.73" y1="8.36719" x2="21.6565"
                                        y2="33.4547" gradientUnits="userSpaceOnUse">
                                        <stop stop-color="#005CAA" />
                                        <stop offset="1" stop-color="#64B0F1" />
                                    </linearGradient>
                                    <linearGradient id="paint5_linear_5422_29652" x1="21.73" y1="8.36719" x2="21.6565"
                                        y2="33.4547" gradientUnits="userSpaceOnUse">
                                        <stop stop-color="#005CAA" />
                                        <stop offset="1" stop-color="#64B0F1" />
                                    </linearGradient>
                                    <linearGradient id="paint6_linear_5422_29652" x1="13.948" y1="9.55469" x2="13.8915"
                                        y2="21.6678" gradientUnits="userSpaceOnUse">
                                        <stop stop-color="#005CAA" />
                                        <stop offset="1" stop-color="#64B0F1" />
                                    </linearGradient>
                                    <linearGradient id="paint7_linear_5422_29652" x1="13.948" y1="9.55469" x2="13.8915"
                                        y2="21.6678" gradientUnits="userSpaceOnUse">
                                        <stop stop-color="#005CAA" />
                                        <stop offset="1" stop-color="#64B0F1" />
                                    </linearGradient>
                                    <linearGradient id="paint8_linear_5422_29652" x1="11.531" y1="12.6426" x2="11.4817"
                                        y2="18.0352" gradientUnits="userSpaceOnUse">
                                        <stop stop-color="#005CAA" />
                                        <stop offset="1" stop-color="#64B0F1" />
                                    </linearGradient>
                                    <linearGradient id="paint9_linear_5422_29652" x1="11.531" y1="12.6426" x2="11.4817"
                                        y2="18.0352" gradientUnits="userSpaceOnUse">
                                        <stop stop-color="#005CAA" />
                                        <stop offset="1" stop-color="#64B0F1" />
                                    </linearGradient>
                                    <linearGradient id="paint10_linear_5422_29652" x1="18.7393" y1="11.5195"
                                        x2="18.6771" y2="21.1661" gradientUnits="userSpaceOnUse">
                                        <stop stop-color="#005CAA" />
                                        <stop offset="1" stop-color="#64B0F1" />
                                    </linearGradient>
                                    <linearGradient id="paint11_linear_5422_29652" x1="18.7393" y1="11.5195"
                                        x2="18.6771" y2="21.1661" gradientUnits="userSpaceOnUse">
                                        <stop stop-color="#005CAA" />
                                        <stop offset="1" stop-color="#64B0F1" />
                                    </linearGradient>
                                    <linearGradient id="paint12_linear_5422_29652" x1="20.5058" y1="15.2559"
                                        x2="20.5047" y2="15.8327" gradientUnits="userSpaceOnUse">
                                        <stop stop-color="#005CAA" />
                                        <stop offset="1" stop-color="#64B0F1" />
                                    </linearGradient>
                                    <linearGradient id="paint13_linear_5422_29652" x1="20.5058" y1="15.2559"
                                        x2="20.5047" y2="15.8327" gradientUnits="userSpaceOnUse">
                                        <stop stop-color="#005CAA" />
                                        <stop offset="1" stop-color="#64B0F1" />
                                    </linearGradient>
                                    <linearGradient id="paint14_linear_5422_29652" x1="19.5605" y1="18.1055"
                                        x2="19.5594" y2="18.6823" gradientUnits="userSpaceOnUse">
                                        <stop stop-color="#005CAA" />
                                        <stop offset="1" stop-color="#64B0F1" />
                                    </linearGradient>
                                    <linearGradient id="paint15_linear_5422_29652" x1="19.5605" y1="18.1055"
                                        x2="19.5594" y2="18.6823" gradientUnits="userSpaceOnUse">
                                        <stop stop-color="#005CAA" />
                                        <stop offset="1" stop-color="#64B0F1" />
                                    </linearGradient>
                                </defs>
                            </svg>