<svg width="40" height="40" viewBox="0 0 57 57" fill="none" xmlns="http://www.w3.org/2000/svg">
<path d="M52.2953 14.9979C52.2953 9.21976 47.5677 4.49219 41.7896 4.49219H39.1631C37.5873 4.49219 36.5367 5.54276 36.5367 7.11862C36.5367 8.69448 37.5873 9.74505 39.1631 9.74505H41.7896C44.6786 9.74505 47.0424 12.1088 47.0424 14.9979V17.887C47.0424 19.4628 48.093 20.5134 49.6689 20.5134C51.2447 20.5134 52.2953 19.4628 52.2953 17.887V14.9979ZM52.2953 38.6358C52.2953 37.0599 51.2447 36.0094 49.6689 36.0094C48.093 36.0094 47.0424 37.0599 47.0424 38.6358V41.2622C47.0424 44.1513 44.6786 46.5151 41.7896 46.5151H39.1631C37.5873 46.5151 36.5367 47.5657 36.5367 49.1415C36.5367 50.7174 37.5873 51.768 39.1631 51.768H41.7896C47.5677 51.768 52.2953 47.0404 52.2953 41.2622V38.6358ZM5.01953 41.2622C5.01953 47.0404 9.74711 51.768 15.5253 51.768H18.1517C19.7275 51.768 20.7781 50.7174 20.7781 49.1415C20.7781 47.5657 19.7275 46.5151 18.1517 46.5151H15.5253C12.6362 46.5151 10.2724 44.1513 10.2724 41.2622V38.6358C10.2724 37.0599 9.22182 36.0094 7.64596 36.0094C6.0701 36.0094 5.01953 37.0599 5.01953 38.6358V41.2622ZM18.1517 4.49219H15.5253C9.74711 4.49219 5.01953 9.21976 5.01953 14.9979V17.6243C5.01953 19.2002 6.0701 20.2508 7.64596 20.2508C9.22182 20.2508 10.2724 19.2002 10.2724 17.6243V14.9979C10.2724 12.1088 12.6362 9.74505 15.5253 9.74505H18.1517C19.7275 9.74505 20.7781 8.69448 20.7781 7.11862C20.7781 5.54276 19.7275 4.49219 18.1517 4.49219ZM36.5367 20.2508C36.5367 15.7858 33.1224 12.3715 28.6574 12.3715C24.1925 12.3715 20.7781 15.7858 20.7781 20.2508C20.7781 24.7157 24.1925 28.1301 28.6574 28.1301C33.1224 28.1301 36.5367 24.7157 36.5367 20.2508ZM28.6574 22.8772C27.0816 22.8772 26.031 21.8266 26.031 20.2508C26.031 18.6749 27.0816 17.6243 28.6574 17.6243C30.2333 17.6243 31.2838 18.6749 31.2838 20.2508C31.2838 21.8266 30.2333 22.8772 28.6574 22.8772Z" fill="url(#paint0_linear_3451_13368)"/>
<path d="M16.8401 34.4323L15.7895 37.8467C15.2642 39.1599 16.0522 40.7358 17.3654 41.2611C18.6786 41.7864 20.2545 40.9984 20.7798 39.6852L21.8303 36.0082C22.3556 34.4323 23.9315 33.3818 25.5073 33.3818H31.8108C33.3866 33.3818 34.9625 34.4323 35.4878 36.0082L36.5383 39.4226C36.801 40.4731 37.8516 41.2611 38.9021 41.2611C39.1648 41.2611 39.4274 41.2611 39.6901 40.9984C41.0033 40.4731 41.7912 39.1599 41.2659 37.5841L40.2153 34.1697C39.1648 30.7553 35.7504 28.1289 31.8108 28.1289H25.5073C21.5677 28.1289 18.1533 30.7553 16.8401 34.4323Z" fill="url(#paint1_linear_3451_13368)"/>
<path d="M16.8401 34.4323L15.7895 37.8467C15.2642 39.1599 16.0522 40.7358 17.3654 41.2611C18.6786 41.7864 20.2545 40.9984 20.7798 39.6852L21.8303 36.0082C22.3556 34.4323 23.9315 33.3818 25.5073 33.3818H31.8108C33.3866 33.3818 34.9625 34.4323 35.4878 36.0082L36.5383 39.4226C36.801 40.4731 37.8516 41.2611 38.9021 41.2611C39.1648 41.2611 39.4274 41.2611 39.6901 40.9984C41.0033 40.4731 41.7912 39.1599 41.2659 37.5841L40.2153 34.1697C39.1648 30.7553 35.7504 28.1289 31.8108 28.1289H25.5073C21.5677 28.1289 18.1533 30.7553 16.8401 34.4323Z" fill="black" fill-opacity="0.2"/>
<defs>
<linearGradient id="paint0_linear_3451_13368" x1="28.6574" y1="4.49219" x2="28.6574" y2="51.768" gradientUnits="userSpaceOnUse">
<stop stop-color="#FF0F0F"/>
<stop offset="1" stop-color="#FF4849"/>
</linearGradient>
<linearGradient id="paint1_linear_3451_13368" x1="28.5277" y1="28.1289" x2="28.5277" y2="41.4256" gradientUnits="userSpaceOnUse">
<stop stop-color="#FF0F0F"/>
<stop offset="1" stop-color="#FF4849"/>
</linearGradient>
</defs>
</svg>