<svg width="38" height="38" viewBox="0 0 31 31" fill="none" xmlns="http://www.w3.org/2000/svg">
<path d="M16.9491 23.5614V23.4654L20.2908 21.3435C20.5671 21.1985 20.7537 20.929 20.7932 20.6107L21.1836 17.0927C21.5075 16.9072 21.7225 16.5556 21.7225 16.1541V14.129C21.7225 14.0625 21.7151 13.9962 21.7015 13.9107C21.597 13.4141 21.158 13.0538 20.6575 13.0538H19.6575V12.0938C19.6575 11.1592 18.9104 10.3984 17.9925 10.3984L12.0422 10.3989C11.1244 10.3989 10.3773 11.1596 10.3773 12.0942V13.0543H9.37726C8.87681 13.0543 8.43777 13.4145 8.33326 13.9112C8.33237 13.915 8.33393 13.9185 8.33326 13.9223C8.33192 13.9279 8.32969 13.9328 8.32857 13.9384C8.31987 13.9964 8.3125 14.063 8.3125 14.1292V16.1543C8.3125 16.75 8.78996 17.2344 9.37747 17.2344H10.4904C10.9543 19.3779 12.8288 20.9442 15.0172 20.9442C17.2045 20.9442 19.0782 19.3795 19.5436 17.2342H20.1614L19.8023 20.4701C19.7929 20.4755 19.7837 20.4808 19.775 20.4862L16.8523 22.3415C16.7018 21.9811 16.3873 21.7357 16.0112 21.7357H14.0228C13.4969 21.7357 13.0853 22.2114 13.0853 22.8187V23.5614C13.0853 24.1419 13.4623 24.7641 14.0228 24.7641H16.0112C16.5719 24.7641 16.9489 24.1419 16.9489 23.5614L16.9491 23.5614ZM10.3771 16.2346H9.37706C9.34625 16.2346 9.3121 16.2004 9.3121 16.1544L9.31166 14.1174C9.31858 14.0837 9.34916 14.0544 9.37706 14.0544H10.3771V16.2044L10.3771 16.2346ZM15.0172 19.9444C13.1867 19.9444 11.6353 18.5386 11.4088 16.6779C11.3911 16.5212 11.3771 16.3654 11.3771 16.2042V12.0941C11.3771 11.7109 11.6755 11.3988 12.042 11.3988H17.9923C18.3591 11.3988 18.6573 11.7109 18.6573 12.0941V16.2042C18.6573 16.3654 18.6432 16.5212 18.6256 16.6738C18.3993 18.5386 16.848 19.9444 15.0173 19.9444L15.0172 19.9444ZM19.6574 16.2042V14.0542H20.6574C20.684 14.0542 20.7119 14.0814 20.7206 14.1131C20.7212 14.1187 20.7224 14.1238 20.7224 14.1294V16.1545C20.7224 16.1973 20.6907 16.2297 20.6697 16.2321C20.6628 16.2326 20.6561 16.2337 20.6491 16.2346H19.6574L19.6574 16.2042ZM15.9489 23.5614C15.9489 23.637 15.9235 23.7147 15.8987 23.764H14.136C14.111 23.7147 14.0858 23.637 14.0858 23.5614L14.0855 22.8187C14.0855 22.783 14.0918 22.7553 14.0991 22.7357H15.9351C15.9425 22.7553 15.9487 22.783 15.9487 22.8187L15.9489 23.5614Z" fill="#CC1212"/>
<path d="M27.2657 9.01564H27.1806C26.5851 7.50581 25.2521 6.51564 23.7657 6.51564C23.748 6.51564 23.7311 6.51564 23.7139 6.51608C22.9824 4.43505 21.005 3.01563 18.7656 3.01563C17.9038 3.01563 17.0728 3.22076 16.3277 3.6134C15.7418 1.50448 13.8853 0.015625 11.7656 0.015625C9.29775 0.015625 7.26364 2.00694 7.03661 4.54288C6.86429 4.52503 6.69041 4.51565 6.51563 4.51565C4.31003 4.51565 2.51563 5.97371 2.51563 7.76565C2.51563 8.20114 2.61875 8.62411 2.81696 9.01565H2.76563C2.02591 9.01565 1.33505 9.3027 0.824768 9.81988C0.302671 10.3351 0.015625 11.0259 0.015625 11.7657C0.015625 13.2817 1.24957 14.5157 2.76563 14.5157H4.32591C4.12279 15.3607 4.01564 16.2284 4.01564 17.1054C4.01564 20.4022 5.47947 23.5002 8.03216 25.6065C8.12546 25.6831 8.23818 25.7208 8.35001 25.7208C8.49465 25.7208 8.63707 25.6587 8.73617 25.5391C8.91207 25.3257 8.88171 25.0107 8.66876 24.8351C6.34711 22.9201 5.01562 20.1028 5.01562 17.1054C5.01562 16.1025 5.16316 15.1123 5.45357 14.1625C6.64351 10.2938 9.97254 7.59567 13.9233 7.1711L12.7159 8.68024C12.5436 8.89608 12.5786 9.21059 12.794 9.38338C12.8862 9.45704 12.9967 9.49276 13.1061 9.49276C13.253 9.49276 13.3981 9.42825 13.4972 9.30526L15.4063 6.91909C15.4081 6.91664 15.4085 6.91373 15.4103 6.91128C15.4427 6.86954 15.4692 6.82288 15.4873 6.7711C15.4891 6.76619 15.4885 6.76083 15.49 6.75592C15.496 6.73695 15.4969 6.7182 15.5005 6.69878C15.5083 6.6586 15.5126 6.61887 15.5103 6.57869C15.5092 6.5586 15.5063 6.53985 15.5027 6.51999C15.4956 6.47891 15.4831 6.4403 15.4659 6.40213C15.4588 6.38606 15.4532 6.37021 15.444 6.35481C15.4137 6.3028 15.3768 6.25436 15.328 6.2153L12.9432 4.3057C12.7273 4.13181 12.4124 4.16797 12.2405 4.38338C12.0677 4.59878 12.1023 4.91373 12.3182 5.08606L13.6887 6.18384C9.5197 6.67893 6.00696 9.49052 4.62067 13.5158H2.76576C1.80101 13.5158 1.01576 12.7306 1.01576 11.7658C1.01576 11.2955 1.19745 10.8572 1.53183 10.527C1.85705 10.1975 2.29543 10.0158 2.76577 10.0158H3.47091C3.66913 10.0158 3.85372 9.88747 3.93386 9.70577C3.96065 9.64417 3.98698 9.58167 4.02181 9.52028C4.12337 9.33903 4.10239 9.11403 3.96913 8.95488C3.67248 8.60086 3.51578 8.18968 3.51578 7.7658C3.51578 6.52517 4.86155 5.5158 6.51578 5.5158C6.81891 5.5158 7.11824 5.54995 7.40641 5.61781C7.56355 5.65486 7.73297 5.61245 7.85418 5.50352C7.97627 5.39414 8.03676 5.23254 8.01668 5.07049C8.01489 5.05151 8.01579 5.03477 8.01579 5.0158C8.01579 2.8102 9.69796 1.0158 11.7658 1.0158C13.545 1.0158 15.0924 2.36489 15.4446 4.22426C15.4553 4.28229 15.4767 4.3381 15.5071 4.38877C15.5457 4.45216 15.5794 4.51622 15.6136 4.58453C15.6785 4.71443 15.797 4.80953 15.9377 4.84569C16.0787 4.8814 16.2287 4.85439 16.3473 4.77046C17.0533 4.27694 17.8899 4.01578 18.7658 4.01578C20.6946 4.01578 22.383 5.31601 22.8722 7.17783C22.9388 7.43185 23.1888 7.58899 23.4479 7.54212C23.5446 7.52404 23.6457 7.51578 23.7658 7.51578C24.922 7.51578 25.9591 8.37761 26.3472 9.66041C26.4109 9.87112 26.6055 10.0158 26.8258 10.0158H27.2658C28.2305 10.0158 29.0158 10.801 29.0158 11.7658C29.0158 12.2361 28.8341 12.6745 28.4997 13.0046C28.1745 13.3341 27.7361 13.5158 27.2658 13.5158H25.4062C24.7459 11.6017 23.5827 9.91333 22.0138 8.62024C21.7999 8.44435 21.485 8.47515 21.3102 8.6881C21.1343 8.90105 21.1647 9.21645 21.3781 9.39164C22.8921 10.6392 23.9968 12.2892 24.5738 14.1646C24.8669 15.1037 25.0158 16.093 25.0158 17.1055C25.0158 22.1827 21.2131 26.3883 16.3055 27.0226L17.7538 25.5744C17.9491 25.3791 17.9491 25.0628 17.7538 24.8672C17.5584 24.6719 17.2421 24.6719 17.0466 24.8672L14.6618 27.252C14.6448 27.269 14.6344 27.2895 14.6203 27.3083C14.6143 27.3163 14.6051 27.3206 14.5993 27.3293C14.5962 27.3344 14.596 27.3407 14.5928 27.3458C14.5609 27.3976 14.5364 27.4525 14.525 27.5114C14.5241 27.5159 14.525 27.5201 14.5243 27.5246C14.5156 27.5768 14.5167 27.6295 14.525 27.6826C14.5279 27.702 14.5337 27.7199 14.539 27.7389C14.5444 27.7583 14.5457 27.7784 14.5535 27.7974C14.5611 27.8157 14.5739 27.8302 14.5835 27.8471C14.5933 27.865 14.6024 27.8822 14.6145 27.8989C14.6475 27.944 14.6855 27.9842 14.7308 28.0157C14.7337 28.0177 14.735 28.021 14.7379 28.0228L17.6018 29.9319C17.6875 29.9886 17.7837 30.0159 17.879 30.0159C18.0406 30.0159 18.1993 29.9377 18.2955 29.7931C18.4489 29.5632 18.3868 29.2532 18.1569 29.0998L16.5096 28.0016C21.8703 27.2701 26.0159 22.6643 26.0159 17.1056C26.0159 16.2214 25.9081 15.3536 25.704 14.5159H27.2659C28.0056 14.5159 28.6964 14.2288 29.2067 13.7116C29.7288 13.1964 30.0159 12.5056 30.0159 11.7659C30.0159 10.2498 28.7819 9.01585 27.2659 9.01585L27.2657 9.01564Z" fill="#CC1212"/>
</svg>