<svg width="38" height="38" viewBox="0 0 38 38" fill="none" xmlns="http://www.w3.org/2000/svg">
<path d="M32.2812 2H4.96875C4.18139 2 3.42628 2.31278 2.86953 2.86953C2.31278 3.42628 2 4.18139 2 4.96875V29.3125C2 30.0999 2.31278 30.855 2.86953 31.4117C3.42628 31.9685 4.18139 32.2812 4.96875 32.2812H9.71875V31.0937H4.96875C4.49633 31.0937 4.04327 30.9061 3.70922 30.572C3.37517 30.238 3.1875 29.7849 3.1875 29.3125V7.9375H34.0625V29.3125C34.0625 29.7849 33.8748 30.238 33.5408 30.572C33.2067 30.9061 32.7537 31.0937 32.2812 31.0937H27.6441V32.2812H32.2812C33.0686 32.2812 33.8237 31.9685 34.3805 31.4117C34.9372 30.855 35.25 30.0999 35.25 29.3125V4.96875C35.25 4.18139 34.9372 3.42628 34.3805 2.86953C33.8237 2.31278 33.0686 2 32.2812 2ZM3.1875 6.75V4.96875C3.1875 4.49633 3.37517 4.04327 3.70922 3.70922C4.04327 3.37517 4.49633 3.1875 4.96875 3.1875H32.2812C32.7537 3.1875 33.2067 3.37517 33.5408 3.70922C33.8748 4.04327 34.0625 4.49633 34.0625 4.96875V6.75H3.1875ZM5.5625 4.375H7.9375V5.5625H5.5625V4.375ZM9.125 4.375H11.5V5.5625H9.125V4.375ZM12.6875 4.375H15.0625V5.5625H12.6875V4.375ZM23.9688 4.375H31.6875V5.5625H23.9688V4.375ZM32.2812 29.9062H27.6084V28.7187H31.6875V10.3125H5.5625V28.7187H9.71875V29.9062H4.96875C4.81128 29.9062 4.66026 29.8437 4.54891 29.7323C4.43756 29.621 4.375 29.47 4.375 29.3125V9.71875C4.375 9.56128 4.43756 9.41025 4.54891 9.2989C4.66026 9.18755 4.81128 9.125 4.96875 9.125H32.2812C32.4387 9.125 32.5897 9.18755 32.7011 9.2989C32.8124 9.41025 32.875 9.56128 32.875 9.71875V29.3125C32.875 29.47 32.8124 29.621 32.7011 29.7323C32.5897 29.8437 32.4387 29.9062 32.2812 29.9062ZM18.625 19.8125C17.0984 19.8125 15.606 20.2652 14.3367 21.1133C13.0674 21.9615 12.078 23.167 11.4938 24.5774C10.9096 25.9878 10.7567 27.5398 11.0546 29.0371C11.3524 30.5344 12.0875 31.9097 13.167 32.9892C14.2465 34.0687 15.6219 34.8039 17.1191 35.1017C18.6164 35.3995 20.1684 35.2467 21.5788 34.6624C22.9893 34.0782 24.1948 33.0889 25.0429 31.8196C25.8911 30.5502 26.3438 29.0579 26.3438 27.5312C26.3438 25.4841 25.5305 23.5208 24.083 22.0733C22.6354 20.6257 20.6721 19.8125 18.625 19.8125ZM14.8784 32.875C15.2181 32.1707 15.7496 31.5765 16.4118 31.1607C17.074 30.7449 17.8401 30.5243 18.622 30.5243C19.404 30.5243 20.17 30.7449 20.8323 31.1607C21.4945 31.5765 22.0259 32.1707 22.3656 32.875C21.2702 33.6475 19.9625 34.0623 18.622 34.0623C17.2816 34.0623 15.9739 33.6475 14.8784 32.875ZM23.3038 32.0794C22.8421 31.2427 22.1645 30.5451 21.3416 30.0593C20.5187 29.5735 19.5806 29.3173 18.625 29.3173C17.6694 29.3173 16.7313 29.5735 15.9084 30.0593C15.0855 30.5451 14.4079 31.2427 13.9463 32.0794C13.0501 31.1593 12.4451 29.9953 12.207 28.7332C11.9688 27.471 12.1082 26.1666 12.6075 24.9832C13.1068 23.7998 13.944 22.79 15.0143 22.0799C16.0847 21.3698 17.3406 20.9911 18.625 20.9911C19.9094 20.9911 21.1653 21.3698 22.2357 22.0799C23.306 22.79 24.1431 23.7998 24.6425 24.9832C25.1418 26.1666 25.2812 27.471 25.043 28.7332C24.8049 29.9953 24.1999 31.1593 23.3038 32.0794ZM18.625 22.1875C18.0378 22.1875 17.4639 22.3616 16.9757 22.6878C16.4874 23.014 16.1069 23.4777 15.8822 24.0202C15.6575 24.5626 15.5987 25.1595 15.7133 25.7354C15.8278 26.3113 16.1106 26.8403 16.5258 27.2555C16.941 27.6707 17.4699 27.9534 18.0458 28.068C18.6217 28.1825 19.2186 28.1237 19.7611 27.899C20.3036 27.6743 20.7672 27.2938 21.0934 26.8056C21.4196 26.3174 21.5938 25.7434 21.5938 25.1562C21.5938 24.3689 21.281 23.6138 20.7242 23.057C20.1675 22.5003 19.4124 22.1875 18.625 22.1875ZM18.625 26.9375C18.2727 26.9375 17.9283 26.833 17.6354 26.6373C17.3425 26.4416 17.1142 26.1634 16.9793 25.8379C16.8445 25.5124 16.8092 25.1543 16.878 24.8087C16.9467 24.4632 17.1164 24.1458 17.3655 23.8967C17.6146 23.6476 17.932 23.478 18.2775 23.4092C18.623 23.3405 18.9812 23.3758 19.3067 23.5106C19.6321 23.6454 19.9103 23.8737 20.1061 24.1666C20.3018 24.4596 20.4062 24.8039 20.4062 25.1562C20.4062 25.6287 20.2186 26.0817 19.8845 26.4158C19.5505 26.7498 19.0974 26.9375 18.625 26.9375ZM12.6875 16.8437V13.2812C12.6875 13.1238 12.6249 12.9728 12.5136 12.8614C12.4022 12.7501 12.2512 12.6875 12.0938 12.6875H8.53125C8.37378 12.6875 8.22275 12.7501 8.11141 12.8614C8.00006 12.9728 7.9375 13.1238 7.9375 13.2812V16.8437C7.9375 17.0012 8.00006 17.1522 8.11141 17.2636C8.22275 17.3749 8.37378 17.4375 8.53125 17.4375H12.0938C12.2512 17.4375 12.4022 17.3749 12.5136 17.2636C12.6249 17.1522 12.6875 17.0012 12.6875 16.8437ZM11.5 16.25H9.125V13.875H11.5V16.25ZM29.3125 13.875H15.0625V12.6875H29.3125V13.875ZM15.0625 16.25H29.3125V17.4375H15.0625V16.25Z" fill="url(#paint0_linear_3820_20809)"/>
<defs>
<linearGradient id="paint0_linear_3820_20809" x1="27.9054" y1="2" x2="27.753" y2="42.3753" gradientUnits="userSpaceOnUse">
<stop stop-color="#005CAA"/>
<stop offset="1" stop-color="#64B0F1"/>
</linearGradient>
</defs>
</svg>