<svg width="38" height="38" viewBox="0 0 26 32" fill="none" xmlns="http://www.w3.org/2000/svg">
<path d="M8.92652 2.51621C8.79125 2.28161 8.87161 1.98183 9.10576 1.8461C9.34036 1.71038 9.64036 1.79118 9.77588 2.02534L10.2698 2.88071C10.4051 3.11531 10.3248 3.41508 10.0906 3.55082C10.0134 3.59546 9.929 3.61644 9.84597 3.61644C9.67632 3.61644 9.51159 3.5285 9.42074 3.37113L8.92652 2.51621ZM6.42875 5.3729L7.28435 5.86687C7.36158 5.91151 7.44596 5.93249 7.52899 5.93249C7.69841 5.93249 7.86337 5.84454 7.95421 5.68718C8.08948 5.45258 8.00912 5.1528 7.77497 5.01706L6.91937 4.52309C6.68477 4.38782 6.385 4.46818 6.24926 4.70233C6.11377 4.9376 6.19413 5.2376 6.42872 5.37284L6.42875 5.3729ZM15.9265 3.55124C16.0037 3.59588 16.0881 3.61686 16.1711 3.61686C16.3405 3.61686 16.5055 3.52891 16.5963 3.37155L17.0903 2.51595C17.2256 2.28135 17.1452 1.98157 16.9111 1.84583C16.6765 1.71056 16.3765 1.79092 16.2409 2.02507L15.747 2.88067C15.6113 3.11594 15.6916 3.41594 15.9264 3.55119L15.9265 3.55124ZM18.4876 5.9325C18.5706 5.9325 18.6552 5.91107 18.7322 5.86687L19.5878 5.3729C19.8224 5.23763 19.9028 4.93763 19.7675 4.70279C19.6323 4.46841 19.3323 4.38783 19.0974 4.5231L18.2418 5.01707C18.0072 5.15234 17.9269 5.45234 18.0621 5.68719C18.1534 5.84455 18.318 5.9325 18.4876 5.9325ZM13.0084 2.76952C13.2793 2.76952 13.4988 2.54988 13.4988 2.27912V1.29118C13.4988 1.0202 13.2791 0.800781 13.0084 0.800781C12.7376 0.800781 12.518 1.02043 12.518 1.29118V2.27912C12.518 2.54988 12.7374 2.76952 13.0084 2.76952ZM16.1693 18.2564C16.4402 18.2564 16.6597 18.476 16.6597 18.7468C16.6597 20.7602 15.0217 22.3981 13.0084 22.3981C10.995 22.3981 9.35704 20.7602 9.35704 18.7468C9.35704 18.4758 9.57668 18.2564 9.84744 18.2564H16.1693ZM15.6335 19.2374H10.3831C10.6141 20.4765 11.7034 21.4173 13.0083 21.4173C14.3132 21.4175 15.4027 20.4764 15.6335 19.2374ZM25.469 18.7468V20.3669C25.469 20.5698 25.344 20.7515 25.1547 20.8245L23.4083 21.4966C23.1623 22.4285 22.7927 23.3207 22.3061 24.1553L23.0661 25.8662C23.1485 26.0515 23.1081 26.2684 22.9648 26.412L20.6737 28.7031C20.5304 28.8464 20.3134 28.8868 20.1277 28.8044L18.417 28.0448C17.5824 28.5314 16.6899 28.9015 15.7574 29.1475L15.0853 30.8932C15.0123 31.0825 14.8306 31.2075 14.6277 31.2075H11.3877C11.1848 31.2075 11.0031 31.0825 10.9301 30.8932L10.258 29.1472C9.32608 28.9013 8.43391 28.5316 7.59934 28.045L5.88842 28.8051C5.70271 28.8874 5.48619 28.847 5.34244 28.7037L3.05136 26.4127C2.90805 26.2693 2.86765 26.0524 2.95002 25.8667L3.70962 24.1559C3.22301 23.3215 2.85293 22.4289 2.60693 21.4963L0.861161 20.8242C0.671875 20.7512 0.546875 20.5695 0.546875 20.3666V18.7465C0.546875 18.4755 0.766521 18.2561 1.03728 18.2561H7.3567C7.62769 18.2561 7.84711 18.4758 7.84711 18.7465C7.84711 21.5916 10.1618 23.9066 13.0072 23.9066C15.8525 23.9066 18.1672 21.5918 18.1672 18.7465C18.1672 18.4755 18.3869 18.2561 18.6576 18.2561L24.9782 18.2557C25.2492 18.2563 25.4688 18.4762 25.4688 18.7467L25.469 18.7468ZM24.488 19.2374H19.1297C18.879 22.3948 16.2292 24.8879 13.0085 24.8879C9.78784 24.8879 7.13766 22.3948 6.88738 19.2374H1.52909V20.03L3.19806 20.6724C3.34896 20.7305 3.46146 20.859 3.49896 21.0164C3.73869 22.0233 4.13598 22.9818 4.67998 23.8651C4.76458 24.0028 4.77641 24.1734 4.71056 24.3213L3.98422 25.9566L5.79896 27.7713L7.43491 27.0448C7.58267 26.9792 7.75321 26.9905 7.89116 27.0754C8.77442 27.6193 9.73247 28.0164 10.7389 28.2559C10.8963 28.2932 11.0249 28.4059 11.0833 28.5568L11.726 30.2263H14.2923L14.9347 28.5573C14.9927 28.4064 15.1217 28.2939 15.2791 28.2564C16.286 28.0167 17.2445 27.6194 18.1278 27.0754C18.2655 26.9903 18.4365 26.9789 18.584 27.0448L20.2193 27.7711L22.034 25.9564L21.3074 24.3204C21.2418 24.1727 21.2532 24.0021 21.338 23.8642C21.882 22.9809 22.2791 22.0229 22.5186 21.0164C22.5559 20.859 22.6686 20.7305 22.8195 20.6724L24.4889 20.0298L24.4891 19.2374H24.488ZM6.18566 16.3577C5.7187 15.5488 5.7187 14.5827 6.18566 13.7738L10.7702 5.83261C11.2372 5.0237 12.0738 4.54067 13.0079 4.54067C13.9424 4.54067 14.7787 5.0237 15.2459 5.83261L19.8305 13.7738C20.2974 14.5827 20.2974 15.5487 19.8305 16.3577C19.3635 17.1667 18.5269 17.6496 17.5925 17.6496L8.42395 17.6499C7.48955 17.6499 6.65298 17.1668 6.18578 16.3577L6.18566 16.3577ZM7.03498 15.8675C7.32471 16.3695 7.84367 16.6691 8.42338 16.6691H17.5931C18.1728 16.6691 18.6918 16.3693 18.9815 15.8675C19.2712 15.3655 19.2712 14.7662 18.9815 14.2641L14.3969 6.323C14.1072 5.82099 13.588 5.52146 13.0085 5.52146C12.4288 5.52146 11.9098 5.82124 11.6201 6.323L7.03509 14.2641C6.74558 14.7662 6.74558 15.3655 7.03509 15.8675H7.03498ZM11.8158 14.9387C11.8158 14.2811 12.3508 13.7461 13.0084 13.7461C13.666 13.7461 14.201 14.2811 14.201 14.9387C14.201 15.5963 13.666 16.1313 13.0084 16.1313C12.3508 16.1313 11.8158 15.5965 11.8158 14.9387ZM12.7968 14.9387C12.7968 15.0555 12.8919 15.1503 13.0084 15.1503C13.1252 15.1503 13.22 15.0552 13.22 14.9387C13.22 14.822 13.1249 14.7271 13.0084 14.7271C12.8917 14.7271 12.7968 14.8222 12.7968 14.9387ZM11.9705 12.4729L11.8318 8.63626C11.8216 8.34787 11.9218 8.08559 12.1222 7.87758C12.3225 7.66999 12.581 7.55994 12.8696 7.55994H13.1466C13.4352 7.55994 13.6937 7.66954 13.8939 7.87735C14.0946 8.08539 14.1948 8.34767 14.1843 8.63604L14.0457 12.4727C14.0254 13.034 13.5698 13.4736 13.008 13.4736H13.0077C12.4468 13.4738 11.9908 13.0341 11.9705 12.4729ZM12.812 8.60055L12.9506 12.4372C12.9515 12.4684 12.977 12.4928 13.0082 12.4928C13.0395 12.4928 13.0649 12.4684 13.0658 12.4372L13.2044 8.60055C13.2051 8.57912 13.2031 8.57354 13.1883 8.55814C13.1736 8.54318 13.1683 8.54072 13.1471 8.54072H12.87C12.8486 8.54072 12.8435 8.54296 12.8287 8.55814C12.8133 8.57376 12.8113 8.57934 12.812 8.60055Z" fill="url(#paint0_linear_4497_31595)"/>
<defs>
<linearGradient id="paint0_linear_4497_31595" x1="19.9639" y1="0.800781" x2="19.7939" y2="37.7233" gradientUnits="userSpaceOnUse">
<stop stop-color="#005CAA"/>
<stop offset="1" stop-color="#64B0F1"/>
</linearGradient>
</defs>
</svg>