<svg width="38" height="38" viewBox="0 0 30 24" fill="none" xmlns="http://www.w3.org/2000/svg">
<path d="M29.1205 15.4664C29.1205 15.4184 29.1109 15.3704 29.0949 15.3289V2.0135C29.0949 0.983155 28.2565 0.144754 27.2261 0.144754L2.73984 0.144531C1.70949 0.144531 0.871094 0.982931 0.871094 2.01327V18.0584C0.871094 19.0888 1.70949 19.9272 2.73984 19.9272H11.0376L10.0617 23.0984H8.07441C7.87285 23.0984 7.70633 23.2615 7.70633 23.4664C7.70633 23.6714 7.8695 23.8345 8.07441 23.8345H21.911C22.1125 23.8345 22.2791 23.6714 22.2791 23.4664C22.2791 23.2615 22.1159 23.0984 21.911 23.0984H19.9237L18.9478 19.9272H27.2198C28.2502 19.9272 29.0886 19.0888 29.0886 18.0584V15.604C29.1047 15.5624 29.1143 15.5145 29.1143 15.4665L29.1205 15.4664ZM2.73996 0.874423H27.2234C27.8506 0.874423 28.3593 1.38313 28.3593 2.01037V15.0984H1.60448V2.01379C1.60448 1.38654 2.11318 0.877852 2.74042 0.877852L2.73996 0.874423ZM19.1594 23.0984H10.8297L11.8056 19.9272H18.1833L19.1592 23.0984H19.1594ZM27.2234 19.1913L2.73996 19.1911C2.11271 19.1911 1.60402 18.6824 1.60402 18.0551V15.831L28.3623 15.8312V18.0553C28.3623 18.6826 27.8536 19.1913 27.2264 19.1913H27.2234Z" fill="#CC1212"/>
<path d="M7.34518 10.0732C9.52752 10.0732 11.3036 8.29728 11.3036 6.11471C11.3036 3.93236 9.52775 2.15625 7.34518 2.15625C5.16283 2.15625 3.38672 3.93214 3.38672 6.11471C3.38672 8.29705 5.1626 10.0732 7.34518 10.0732ZM10.5675 6.11471C10.5675 7.89059 9.12112 9.33705 7.34518 9.33705C6.59003 9.33705 5.89226 9.07455 5.34203 8.63614L7.60455 6.37362C7.67486 6.30643 7.71325 6.21045 7.71325 6.11447V2.91132C9.31971 3.09369 10.5708 4.46018 10.5708 6.11447L10.5675 6.11471ZM6.97712 2.91156V5.96111L4.82043 8.11779C4.38204 7.56735 4.11952 6.86979 4.11952 6.11465C4.11952 4.46019 5.37066 3.09396 6.97712 2.91156Z" fill="#CC1212"/>
<path d="M3.7548 13.7166H11.6782C11.8798 13.7166 12.0463 13.5535 12.0463 13.3485C12.0463 13.1436 11.8831 12.9805 11.6782 12.9805L3.7548 12.9807C3.55324 12.9807 3.38672 13.1439 3.38672 13.3488C3.38672 13.5537 3.54989 13.7169 3.7548 13.7169V13.7166Z" fill="#CC1212"/>
<path d="M15.6516 7.38383H17.1076C17.1268 7.38383 17.1428 7.38696 17.162 7.38696H18.8004C18.8196 7.38696 18.8388 7.38696 18.8549 7.38383H20.2756C20.2948 7.38383 20.3109 7.38696 20.3301 7.38696H21.9685C21.9877 7.38696 22.0069 7.38696 22.023 7.38383H23.4437C23.4629 7.38383 23.479 7.38696 23.4982 7.38696H25.1366C25.1558 7.38696 25.175 7.38696 25.191 7.38383H25.6774C25.879 7.38383 26.0455 7.22066 26.0455 7.01575C26.0455 6.81084 25.8823 6.64767 25.6774 6.64767H25.5046V2.85882C25.5046 2.65726 25.3415 2.49074 25.1366 2.49074H23.4982C23.2966 2.49074 23.1301 2.65391 23.1301 2.85882V6.64767H22.3332V4.30213C22.3332 4.10057 22.1701 3.93405 21.9652 3.93405H20.3268C20.1252 3.93405 19.9587 4.09722 19.9587 4.30213V6.64767H19.1618V5.26842C19.1618 5.06686 18.9986 4.90034 18.7937 4.90034H17.1553C16.9538 4.90034 16.7873 5.06351 16.7873 5.26842V6.64767H16.0096V2.55167C16.0096 2.35011 15.8464 2.18359 15.6415 2.18359C15.4366 2.18359 15.2734 2.34677 15.2734 2.55167V7.01236C15.2734 7.21392 15.4366 7.38044 15.6415 7.38044L15.6516 7.38383ZM23.8693 3.22715H24.7717V6.65126H23.8693V3.22715ZM20.7012 4.67046H21.6037V6.64812H20.7012V4.67046ZM17.5332 5.64012H18.4356V6.65126H17.5332V5.64012Z" fill="#CC1212"/>
<path d="M15.6531 13.7148H25.6788C25.8804 13.7148 26.0469 13.5517 26.0469 13.3467C26.0469 13.1418 25.8837 12.9787 25.6788 12.9787H16.0182V12.0988L17.2885 11.0876C17.4006 10.9981 17.6052 10.9981 17.7173 11.0876L18.4436 11.6765C18.818 11.9805 19.4099 11.9836 19.7876 11.683L21.7461 10.1374C21.8613 10.0479 22.0662 10.0479 22.1749 10.1374L22.8244 10.6749C23.2021 10.9854 23.7972 10.9917 24.1811 10.6845L25.7235 9.45257C25.8802 9.32467 25.909 9.09409 25.7811 8.9374C25.6532 8.7807 25.4226 8.7519 25.2659 8.87981L23.7235 10.1117C23.6115 10.2013 23.4034 10.2013 23.2947 10.1117L22.6452 9.57425C22.2709 9.26376 21.6755 9.25751 21.2947 9.56153L19.3363 11.1071C19.2242 11.1966 19.0195 11.1966 18.9075 11.1071L18.1811 10.5182C17.8035 10.2142 17.2115 10.2111 16.8341 10.5117L16.0213 11.1581V8.8798C16.0213 8.67824 15.8581 8.51172 15.6532 8.51172C15.4483 8.51172 15.2852 8.67489 15.2852 8.8798V13.3405C15.2852 13.542 15.4483 13.7086 15.6532 13.7086L15.6531 13.7148Z" fill="#CC1212"/>
<path d="M3.7548 11.9002H7.7164C7.91796 11.9002 8.08448 11.7371 8.08448 11.5321C8.08448 11.3272 7.92131 11.1641 7.7164 11.1641L3.7548 11.1643C3.55324 11.1643 3.38672 11.3275 3.38672 11.5324C3.38672 11.7373 3.54989 11.9004 3.7548 11.9004V11.9002Z" fill="#CC1212"/>
</svg>