<svg width="38" height="38" viewBox="0 0 25 23" fill="none" xmlns="http://www.w3.org/2000/svg">
<path d="M23.2065 5.23158e-06H1.04653C0.769742 0.000451689 0.504341 0.11072 0.308816 0.306703C0.113278 0.502685 0.00368373 0.768085 0.00390659 1.04487V16.29C0.00412979 16.5664 0.114175 16.8315 0.30949 17.0269C0.505027 17.2224 0.769981 17.3322 1.04652 17.3325H8.54652L8.18402 20.5849L7.06636 20.5851C6.76814 20.5851 6.49247 20.7443 6.34339 21.0026C6.19406 21.2608 6.19406 21.5791 6.34339 21.8376C6.4925 22.0958 6.76816 22.255 7.06636 22.255H17.1515C17.4497 22.255 17.7254 22.0958 17.8747 21.8376C18.0238 21.5791 18.0238 21.2608 17.8747 21.0026C17.7254 20.7443 17.4497 20.5851 17.1515 20.5851H16.0689L15.7064 17.3325H23.2064C23.483 17.3322 23.7479 17.2224 23.9435 17.0269C24.1388 16.8316 24.2488 16.5664 24.249 16.29V1.04487C24.2493 0.76808 24.1397 0.50268 23.9441 0.306697C23.7486 0.110714 23.4832 0.000445714 23.2064 0L23.2065 5.23158e-06ZM16.1242 21.0851H17.1517C17.3367 21.0851 17.4867 21.2351 17.4867 21.42C17.4867 21.605 17.3367 21.755 17.1517 21.755H7.06653C6.88149 21.755 6.73148 21.605 6.73148 21.42C6.73148 21.2351 6.88149 21.0851 7.06653 21.0851H16.1242ZM15.5667 20.5851H8.68666L9.04916 17.3327L15.204 17.3325L15.5667 20.5851ZM23.7495 16.2901C23.7495 16.434 23.6926 16.572 23.5908 16.6738C23.489 16.7755 23.3509 16.8327 23.2069 16.8325H1.04688C0.902907 16.8327 0.764735 16.7755 0.662947 16.6738C0.561158 16.572 0.504244 16.434 0.504244 16.2901V1.04492C0.503798 0.74492 0.746655 0.500948 1.04688 0.500051H23.2069H23.2067C23.5069 0.500944 23.7497 0.74492 23.7493 1.04492L23.7495 16.2901Z" fill="#CC1212"/>
<path d="M23.0247 0.992188H1.21094C1.07299 0.992188 0.960938 1.10402 0.960938 1.24219V12.5982C0.960938 12.6645 0.987277 12.7281 1.03415 12.775C1.08102 12.8219 1.14464 12.8482 1.21094 12.8482H23.0247C23.091 12.8482 23.1546 12.8218 23.2014 12.775C23.2483 12.7281 23.2747 12.6645 23.2747 12.5982V1.24219C23.2747 1.17589 23.2483 1.11228 23.2014 1.0654C23.1546 1.01852 23.091 0.992188 23.0247 0.992188ZM22.7747 12.3482H1.46094V1.49219H22.7747V12.3482Z" fill="#CC1212"/>
<path d="M5.56844 6.35235C5.56933 6.37378 5.57156 6.39521 5.57513 6.41642L3.97268 7.5095L3.97245 7.50928C3.85839 7.58718 3.82893 7.74276 3.90683 7.85682C3.98451 7.97088 4.14009 8.00035 4.25437 7.92267L5.8566 6.82958C5.9999 6.90927 6.17178 6.91842 6.32267 6.85458L9.33987 9.36104C9.30393 9.52867 9.34902 9.70367 9.46174 9.83291C9.57425 9.96215 9.74121 10.0309 9.91241 10.0182C10.0834 10.0057 10.2385 9.91305 10.3309 9.76863C10.4233 9.62421 10.4423 9.44474 10.3821 9.28403L12.2948 7.24986C12.4372 7.29227 12.591 7.27374 12.7189 7.19829C12.847 7.12285 12.9379 6.9974 12.9698 6.85231L15.1151 6.30812C15.2573 6.47999 15.4921 6.54383 15.7021 6.46816L17.2655 7.97599V7.97577C17.2512 8.02353 17.2436 8.07286 17.243 8.12264C17.2412 8.2838 17.3108 8.4376 17.4334 8.54229C17.5557 8.6472 17.7184 8.69229 17.8773 8.6655C18.0365 8.63871 18.1753 8.54273 18.2566 8.40345C18.3381 8.26438 18.3535 8.0963 18.2988 7.94452L21.1064 4.89583C21.1997 4.79427 21.1932 4.63601 21.0914 4.54249C20.9898 4.44918 20.8318 4.45566 20.7383 4.55722L17.9358 7.6023C17.8878 7.5878 17.8378 7.57998 17.7878 7.57931C17.7265 7.57998 17.6657 7.59092 17.6084 7.6119L16.0477 6.10653H16.0475C16.0901 5.96635 16.074 5.81501 16.003 5.68689C15.9321 5.55854 15.8124 5.46457 15.6709 5.42617C15.5296 5.38778 15.3787 5.40809 15.2526 5.48264C15.1265 5.55698 15.0361 5.67952 15.0015 5.82171L12.8466 6.36836V6.36858C12.6756 6.17193 12.3888 6.12528 12.1642 6.25742C11.9397 6.38956 11.8415 6.66323 11.9303 6.90811L10.0125 8.94782H10.0127C9.89417 8.91345 9.76738 8.92238 9.65488 8.97282L6.64305 6.47082C6.67587 6.32015 6.64328 6.16256 6.55332 6.03756C6.46337 5.91234 6.32453 5.83131 6.17118 5.81435C6.01783 5.79761 5.86471 5.8465 5.74975 5.94918C5.6348 6.05186 5.56872 6.19873 5.56805 6.35275L5.56844 6.35235Z" fill="#CC1212"/>
<path d="M19.7656 8.66797C19.7656 8.73427 19.792 8.79788 19.8388 8.84476C19.8857 8.89163 19.9493 8.91797 20.0156 8.91797H21.7851C21.9232 8.91797 22.0351 8.80592 22.0351 8.66797C22.0351 8.5298 21.9232 8.41797 21.7851 8.41797H20.0156C19.8777 8.41797 19.7656 8.5298 19.7656 8.66797Z" fill="#CC1212"/>
<path d="M21.7851 9.54297H20.0156C19.8777 9.54297 19.7656 9.6548 19.7656 9.79297C19.7656 9.93092 19.8777 10.043 20.0156 10.043H21.7851C21.9232 10.043 22.0351 9.93092 22.0351 9.79297C22.0351 9.6548 21.9232 9.54297 21.7851 9.54297Z" fill="#CC1212"/>
<path d="M21.7851 10.6641H20.0156C19.8777 10.6641 19.7656 10.7761 19.7656 10.9141C19.7656 11.0522 19.8777 11.1641 20.0156 11.1641H21.7851C21.9232 11.1641 22.0351 11.0522 22.0351 10.9141C22.0351 10.7761 21.9232 10.6641 21.7851 10.6641Z" fill="#CC1212"/>
<path d="M3.03125 3.16016H6.09216C6.23034 3.16016 6.34216 3.04833 6.34216 2.91016C6.34216 2.77198 6.23034 2.66016 6.09216 2.66016H3.03125C2.89308 2.66016 2.78125 2.77198 2.78125 2.91016C2.78125 3.04833 2.89308 3.16016 3.03125 3.16016Z" fill="#CC1212"/>
<path d="M3.03125 4.41797H6.09216C6.23034 4.41797 6.34216 4.30592 6.34216 4.16797C6.34216 4.0298 6.23034 3.91797 6.09216 3.91797H3.03125C2.89308 3.91797 2.78125 4.0298 2.78125 4.16797C2.78125 4.30592 2.89308 4.41797 3.03125 4.41797Z" fill="#CC1212"/>
</svg>