<svg width="42" height="42" viewBox="0 0 40 40" fill="none" xmlns="http://www.w3.org/2000/svg">
                                <path d="M20.329 13.4933C20.1636 13.385 19.9496 13.385 19.7842 13.4933C13.3419 17.683 13.3116 25.5613 20.0395 25.7904C20.0453 25.7909 20.0507 25.7909 20.0567 25.7909C20.065 25.7909 20.0732 25.7909 20.081 25.7904C26.7982 25.4594 26.741 17.6636 20.329 13.4933ZM20.0527 24.7904C14.1818 24.5739 15.0668 17.9522 20.0565 14.5139C25.0596 17.9612 25.8771 24.4876 20.0527 24.7904Z" fill="url(#paint0_linear_5739_28632)"></path>
                                <path d="M19.4161 18.6956C19.8915 18.5322 20.4127 18.5661 20.8634 18.7893C21.0469 18.9956 21.3627 19.0139 21.5692 18.8304C21.7755 18.6469 21.794 18.3311 21.6103 18.1246C21.3179 17.8542 20.946 17.685 20.5498 17.6424V17.2656C20.5498 16.9895 20.3259 16.7656 20.0498 16.7656C19.7737 16.7656 19.5498 16.9895 19.5498 17.2656V17.6357C18.5828 17.7877 18.1328 18.3801 18.1328 19.0665C18.1328 20.4917 19.5321 20.4917 19.9922 20.4917C20.9292 20.4917 20.9688 20.6221 20.9688 20.9165C20.9688 21.5375 19.4587 21.4797 19.2217 21.1752V21.1754C19.0531 20.9567 18.7393 20.916 18.5205 21.0846C18.3017 21.2531 18.2612 21.5669 18.4297 21.7857C18.7221 22.1036 19.1203 22.304 19.5498 22.35V22.7228C19.5498 22.9989 19.7737 23.2228 20.0498 23.2228C20.3259 23.2228 20.5498 22.9989 20.5498 22.7228V22.3527C21.5205 22.1929 21.9688 21.5918 21.9688 20.9167C21.9688 19.4919 20.5835 19.4919 19.9922 19.4919C19.1328 19.4919 19.1328 19.3044 19.1328 19.0667C19.1328 18.9357 19.167 18.8 19.4161 18.6955L19.4161 18.6956Z" fill="url(#paint1_linear_5739_28632)"></path>
                                <path d="M17.1015 8.98193H18.435V11.6933C18.435 11.9694 18.6589 12.1933 18.935 12.1933C19.2114 12.1933 19.435 11.9694 19.435 11.6933V8.48193C19.4352 8.34934 19.3826 8.2221 19.2888 8.12813C19.1951 8.03438 19.0678 7.9817 18.935 7.98193H18.1783L20.0488 5.7661L21.92 7.98193H21.1611C21.0285 7.9817 20.9013 8.03438 20.8076 8.12813C20.7138 8.2221 20.6611 8.34934 20.6611 8.48193V11.6703C20.6611 11.9464 20.885 12.1703 21.1611 12.1703C21.4372 12.1703 21.6611 11.9464 21.6611 11.6703V8.98193H22.9966C23.1913 8.98193 23.3683 8.86898 23.4502 8.69242C23.5321 8.51586 23.5042 8.30782 23.3785 8.15916L20.4308 4.6683C20.3328 4.56116 20.1942 4.5 20.0488 4.5C19.9035 4.5 19.7649 4.56116 19.6669 4.6683L16.7198 8.15916C16.5942 8.30782 16.566 8.51586 16.648 8.69242C16.7299 8.86898 16.9069 8.98193 17.1015 8.98193Z" fill="url(#paint2_linear_5739_28632)"></path>
                                <path d="M13.6205 14.3848L11.2929 13.0411L11.9598 11.8848H11.9601C12.0574 11.7163 12.048 11.5067 11.9362 11.3473C11.8241 11.1882 11.6301 11.1083 11.4384 11.1426L6.94286 11.9493C6.79799 11.9752 6.67188 12.0638 6.59822 12.1915C6.52456 12.319 6.51095 12.4725 6.56094 12.6109L8.1094 16.9094C8.17525 17.0924 8.34154 17.2206 8.53529 17.238C8.72926 17.2552 8.91542 17.1585 9.01275 16.99L9.68018 15.8353L12.0284 17.1909V17.1907C12.2677 17.3284 12.5733 17.2465 12.7112 17.0074C12.8494 16.7683 12.7675 16.4625 12.5284 16.3244L9.74714 14.7188C9.63241 14.6525 9.4958 14.6344 9.36768 14.6688C9.23955 14.7032 9.13018 14.7871 9.0641 14.902L8.68531 15.5579L7.70228 12.8293L10.5563 12.317L10.1768 12.9742V12.9744C10.1105 13.0891 10.0924 13.2257 10.1268 13.3539C10.1612 13.482 10.2449 13.5911 10.3599 13.6574L13.1205 15.2512C13.3598 15.3891 13.6656 15.3072 13.8038 15.0682C13.9417 14.8289 13.8598 14.5231 13.6205 14.3849L13.6205 14.3848Z" fill="url(#paint3_linear_5739_28632)"></path>
                                <path d="M13.0834 24.6214L10.3021 26.227C10.0631 26.3652 9.98113 26.671 10.1191 26.91L10.4981 27.5659L7.6441 27.0536L8.6269 24.3262L9.00569 24.9829C9.07199 25.0978 9.18136 25.1815 9.30949 25.2159C9.43761 25.2491 9.57377 25.2313 9.68895 25.1661L12.4506 23.5717C12.6896 23.4335 12.7715 23.128 12.6336 22.8889C12.4954 22.6496 12.1898 22.5677 11.9506 22.7057L9.62199 24.0498L8.95501 22.8936C8.85948 22.7231 8.67176 22.6257 8.47756 22.6456C8.28358 22.6628 8.11751 22.7909 8.05166 22.9742L6.50235 27.2715C6.45235 27.4099 6.46597 27.5635 6.53963 27.6909C6.61307 27.8186 6.73918 27.9072 6.88427 27.9331L11.3809 28.7407H11.3807C11.5724 28.7753 11.7666 28.6954 11.8784 28.536C11.9903 28.3769 11.9996 28.167 11.9023 27.9985L11.2354 26.8431L13.5836 25.4878H13.5834C13.8226 25.3496 13.9046 25.0438 13.7666 24.8047C13.6284 24.5655 13.3226 24.4835 13.0834 24.6215L13.0834 24.6214Z" fill="url(#paint4_linear_5739_28632)"></path>
                                <path d="M22.8795 31.0004H21.546V28.2891C21.546 28.0129 21.3221 27.7891 21.046 27.7891C20.7697 27.7891 20.546 28.0129 20.546 28.2891V31.5004C20.5458 31.633 20.5985 31.7603 20.6922 31.854C20.786 31.9478 20.9132 32.0004 21.046 32.0004H21.8027L19.9315 34.2163L18.061 32.0004H18.8199C18.9525 32.0004 19.0797 31.9478 19.1735 31.854C19.2672 31.7603 19.3199 31.633 19.3199 31.5004V28.3118C19.3199 28.0357 19.096 27.8118 18.8199 27.8118C18.5438 27.8118 18.3199 28.0357 18.3199 28.3118V31.0002H16.9844V31.0004C16.7898 31.0004 16.6128 31.1134 16.5309 31.2899C16.4489 31.4665 16.4768 31.6745 16.6025 31.8232L19.5498 35.3138C19.6449 35.4263 19.7844 35.4911 19.9317 35.4911C20.0788 35.4911 20.2186 35.4263 20.3134 35.3138L23.2612 31.8232C23.3869 31.6745 23.415 31.4665 23.3331 31.2899C23.2512 31.1134 23.0742 31.0004 22.8795 31.0004Z" fill="url(#paint5_linear_5739_28632)"></path>
                                <path d="M31.8753 23.0753C31.8094 22.8923 31.6431 22.7639 31.4494 22.7467C31.2554 22.7293 31.0692 22.8262 30.9719 22.9947L30.3049 24.1494L27.9562 22.7934V22.7936C27.8413 22.7273 27.7049 22.7092 27.5768 22.7436C27.4484 22.7778 27.3393 22.8617 27.273 22.9766C27.2067 23.0916 27.1886 23.228 27.223 23.3561C27.2574 23.4842 27.3413 23.5936 27.4562 23.6599L30.2375 25.2659V25.2657C30.4768 25.4034 30.7824 25.3215 30.9205 25.0826L31.2993 24.4268L32.2821 27.1549L29.4281 27.6672L29.8069 27.0105L29.8074 27.0103C29.8737 26.8956 29.8917 26.759 29.8574 26.6308C29.823 26.5027 29.7391 26.3936 29.6243 26.3273L26.8636 24.7331H26.8634C26.7487 24.6666 26.6121 24.6487 26.484 24.6829C26.3558 24.7172 26.2465 24.8012 26.1802 24.9159C26.1139 25.0309 26.096 25.1675 26.1304 25.2956C26.1648 25.4237 26.2487 25.5331 26.3634 25.5992L28.6911 26.9433L28.0241 28.0992C27.9268 28.2677 27.9362 28.4775 28.048 28.6369C28.1598 28.796 28.354 28.8759 28.5455 28.8413L33.0415 28.0347L33.0418 28.0349C33.1866 28.0088 33.3127 27.9202 33.3864 27.7927C33.4601 27.6652 33.4737 27.5117 33.4237 27.3733L31.8753 23.0753Z" fill="url(#paint6_linear_5739_28632)"></path>
                                <path d="M33.4432 12.2921C33.3695 12.1644 33.2434 12.0758 33.0983 12.0499L28.6013 11.2423C28.4097 11.2077 28.2155 11.2877 28.1037 11.4468C27.9919 11.6062 27.9825 11.8158 28.0798 11.9843L28.7473 13.1397L26.3986 14.4953H26.3988C26.2838 14.5616 26.1999 14.6707 26.1655 14.7988C26.1312 14.927 26.149 15.0636 26.2153 15.1785C26.2816 15.2933 26.391 15.3772 26.5191 15.4116C26.6472 15.4457 26.7838 15.4279 26.8988 15.3613L29.6805 13.7557V13.756C29.9196 13.6178 30.0015 13.312 29.8635 13.0727L29.4848 12.4171L32.3388 12.9298L31.356 15.6569L30.9765 15.0002L30.9763 15C30.8381 14.7611 30.5325 14.679 30.2932 14.8169L27.5321 16.4111C27.4171 16.4774 27.3332 16.5868 27.2988 16.7149C27.2645 16.843 27.2823 16.9794 27.3486 17.0943C27.4151 17.2093 27.5243 17.2932 27.6524 17.3274C27.7805 17.3618 27.9171 17.3437 28.0321 17.2774L30.3602 15.9332L31.0276 17.0894C31.1232 17.2598 31.3109 17.3573 31.5053 17.3374C31.6991 17.3202 31.8651 17.1919 31.931 17.0089L33.4803 12.7115C33.5305 12.5731 33.5169 12.4196 33.4432 12.2921Z" fill="url(#paint7_linear_5739_28632)"></path>
                                <defs>
                                    <linearGradient id="paint0_linear_5739_28632" x1="22.8854" y1="13.4121" x2="22.8162" y2="28.4435" gradientUnits="userSpaceOnUse">
                                        <stop stop-color="#005CAA"></stop>
                                        <stop offset="1" stop-color="#64B0F1"></stop>
                                    </linearGradient>
                                    <linearGradient id="paint1_linear_5739_28632" x1="21.1214" y1="16.7656" x2="21.0716" y2="24.6063" gradientUnits="userSpaceOnUse">
                                        <stop stop-color="#005CAA"></stop>
                                        <stop offset="1" stop-color="#64B0F1"></stop>
                                    </linearGradient>
                                    <linearGradient id="paint2_linear_5739_28632" x1="21.9736" y1="4.5" x2="21.9343" y2="13.8419" gradientUnits="userSpaceOnUse">
                                        <stop stop-color="#005CAA"></stop>
                                        <stop offset="1" stop-color="#64B0F1"></stop>
                                    </linearGradient>
                                    <linearGradient id="paint3_linear_5739_28632" x1="12.2495" y1="11.1348" x2="12.2261" y2="18.5696" gradientUnits="userSpaceOnUse">
                                        <stop stop-color="#005CAA"></stop>
                                        <stop offset="1" stop-color="#64B0F1"></stop>
                                    </linearGradient>
                                    <linearGradient id="paint4_linear_5739_28632" x1="12.2076" y1="22.6387" x2="12.1844" y2="30.058" gradientUnits="userSpaceOnUse">
                                        <stop stop-color="#005CAA"></stop>
                                        <stop offset="1" stop-color="#64B0F1"></stop>
                                    </linearGradient>
                                    <linearGradient id="paint5_linear_5739_28632" x1="21.8564" y1="27.7891" x2="21.817" y2="37.1415" gradientUnits="userSpaceOnUse">
                                        <stop stop-color="#005CAA"></stop>
                                        <stop offset="1" stop-color="#64B0F1"></stop>
                                    </linearGradient>
                                    <linearGradient id="paint6_linear_5739_28632" x1="31.832" y1="22.7266" x2="31.8086" y2="30.1614" gradientUnits="userSpaceOnUse">
                                        <stop stop-color="#005CAA"></stop>
                                        <stop offset="1" stop-color="#64B0F1"></stop>
                                    </linearGradient>
                                    <linearGradient id="paint7_linear_5739_28632" x1="31.884" y1="11.2344" x2="31.8608" y2="18.6538" gradientUnits="userSpaceOnUse">
                                        <stop stop-color="#005CAA"></stop>
                                        <stop offset="1" stop-color="#64B0F1"></stop>
                                    </linearGradient>
                                </defs>
                            </svg>