<svg width="39" height="39" viewBox="0 0 39 39" fill="none" xmlns="http://www.w3.org/2000/svg">
<path d="M14.1018 30.4054C12.6726 30.4038 11.3023 29.8355 10.2916 28.8252C9.28098 27.8149 8.71251 26.4451 8.71094 25.0163C8.71094 24.8589 8.77349 24.7079 8.88483 24.5966C8.99617 24.4853 9.14719 24.4228 9.30465 24.4228C9.46211 24.4228 9.61312 24.4853 9.72447 24.5966C9.83581 24.7079 9.89836 24.8589 9.89836 25.0163C9.89836 25.8474 10.1449 26.6598 10.6068 27.3508C11.0687 28.0418 11.7252 28.5804 12.4932 28.8985C13.2613 29.2165 14.1065 29.2997 14.9219 29.1376C15.7373 28.9755 16.4863 28.5753 17.0742 27.9876C17.662 27.3999 18.0624 26.6512 18.2246 25.8361C18.3867 25.0209 18.3035 24.176 17.9854 23.4082C17.6672 22.6404 17.1284 21.9841 16.4372 21.5224C15.7459 21.0606 14.9332 20.8142 14.1018 20.8142C13.3656 20.8133 12.6424 21.0078 12.006 21.378L12.0595 21.4077C12.1277 21.4467 12.1876 21.4987 12.2357 21.5608C12.2838 21.6229 12.3192 21.6939 12.3399 21.7697C12.3605 21.8454 12.3661 21.9245 12.3562 22.0025C12.3463 22.0804 12.3211 22.1556 12.2821 22.2238C12.2431 22.292 12.1911 22.3518 12.129 22.3999C12.0668 22.448 11.9959 22.4834 11.92 22.5041C11.8442 22.5248 11.7651 22.5303 11.6872 22.5204C11.6092 22.5105 11.534 22.4853 11.4658 22.4464L10.6168 21.9419C10.5351 21.8956 10.4655 21.8307 10.4138 21.7524C10.3621 21.6741 10.3297 21.5846 10.3193 21.4914C10.3089 21.3981 10.3207 21.3037 10.3538 21.2159C10.387 21.1281 10.4404 21.0494 10.5099 20.9863C11.1609 20.4027 11.9442 19.9862 12.7921 19.7726C13.6401 19.5591 14.5273 19.555 15.3772 19.7606C16.2271 19.9662 17.0142 20.3755 17.6706 20.953C18.327 21.5305 18.8331 22.259 19.1451 23.0756C19.4571 23.8922 19.5657 24.7725 19.4615 25.6404C19.3574 26.5083 19.0436 27.3379 18.5472 28.0576C18.0508 28.7772 17.3868 29.3654 16.6123 29.7713C15.8379 30.1772 14.9763 30.3887 14.1018 30.3876V30.4054Z" fill="url(#paint0_linear_3369_11837)"/>
<path d="M10.9007 22.0344C10.753 22.0351 10.6103 21.9808 10.5005 21.882C10.3907 21.7833 10.3217 21.6471 10.307 21.5002L10.1882 20.3785C10.1725 20.2211 10.2199 20.0639 10.3201 19.9414C10.4203 19.819 10.5651 19.7414 10.7226 19.7256C10.88 19.7099 11.0373 19.7573 11.1598 19.8575C11.2823 19.9577 11.3599 20.1024 11.3756 20.2598L11.4944 21.3815C11.5093 21.5372 11.4622 21.6925 11.3633 21.8136C11.2643 21.9348 11.1216 22.012 10.966 22.0284L10.9007 22.0344ZM24.1523 37.2461H9.82012C9.03281 37.2461 8.27775 36.9335 7.72103 36.3769C7.16432 35.8204 6.85156 35.0656 6.85156 34.2786V32.6227C6.85156 32.4652 6.91411 32.3143 7.02546 32.203C7.1368 32.0917 7.28781 32.0291 7.44527 32.0291H26.5272C26.6846 32.0291 26.8357 32.0917 26.947 32.203C27.0583 32.3143 27.1209 32.4652 27.1209 32.6227V34.2548C27.124 34.6465 27.0496 35.035 26.9018 35.3977C26.754 35.7605 26.5358 36.0905 26.2599 36.3686C25.9839 36.6466 25.6556 36.8674 25.2939 37.018C24.9321 37.1686 24.5442 37.2461 24.1523 37.2461ZM8.03899 33.2162V34.2548C8.03899 34.727 8.22664 35.1799 8.56067 35.5138C8.8947 35.8478 9.34774 36.0354 9.82012 36.0354H24.1523C24.6247 36.0354 25.0778 35.8478 25.4118 35.5138C25.7458 35.1799 25.9335 34.727 25.9335 34.2548V33.2162H8.03899Z" fill="url(#paint1_linear_3369_11837)"/>
<path d="M26.5272 33.2185H7.44527C7.28781 33.2185 7.1368 33.156 7.02546 33.0447C6.91411 32.9334 6.85156 32.7824 6.85156 32.625V6.21366C6.85156 5.42661 7.16432 4.6718 7.72103 4.11527C8.27775 3.55875 9.03281 3.24609 9.82012 3.24609H24.1523C24.9396 3.24609 25.6947 3.55875 26.2514 4.11527C26.8081 4.6718 27.1209 5.42661 27.1209 6.21366V11.0567C27.1209 11.2141 27.0583 11.3651 26.947 11.4764C26.8357 11.5877 26.6846 11.6502 26.5272 11.6502H21.819V27.0816H26.5272C26.6846 27.0816 26.8357 27.1441 26.947 27.2554C27.0583 27.3667 27.1209 27.5177 27.1209 27.6751V32.625C27.1209 32.7824 27.0583 32.9334 26.947 33.0447C26.8357 33.156 26.6846 33.2185 26.5272 33.2185ZM8.03899 32.0315H25.9335V28.2449H21.2253C21.0679 28.2449 20.9169 28.1823 20.8055 28.071C20.6942 27.9597 20.6316 27.8088 20.6316 27.6513V11.033C20.6316 10.8756 20.6942 10.7246 20.8055 10.6133C20.9169 10.502 21.0679 10.4395 21.2253 10.4395H25.9335V6.21366C25.9335 5.74143 25.7458 5.28854 25.4118 4.95463C25.0778 4.62071 24.6247 4.43312 24.1523 4.43312H9.82012C9.34774 4.43312 8.8947 4.62071 8.56067 4.95463C8.22664 5.28854 8.03899 5.74143 8.03899 6.21366V32.0315Z" fill="url(#paint2_linear_3369_11837)"/>
<path d="M21.1407 7.40068H12.8287C12.7098 7.4008 12.5936 7.36522 12.4951 7.29855C12.3967 7.23188 12.3205 7.1372 12.2766 7.02677L11.0891 4.05921C11.0533 3.96933 11.0399 3.87206 11.0503 3.77586C11.0606 3.67965 11.0943 3.58744 11.1485 3.50724C11.203 3.42669 11.2764 3.36076 11.3623 3.31522C11.4482 3.26969 11.544 3.24595 11.6413 3.24609H22.3281C22.4254 3.24595 22.5211 3.26969 22.6071 3.31522C22.693 3.36076 22.7664 3.42669 22.8209 3.50724C22.875 3.58744 22.9088 3.67965 22.9191 3.77586C22.9295 3.87206 22.9161 3.96933 22.8803 4.05921L21.6928 7.02677C21.6488 7.1372 21.5727 7.23188 21.4742 7.29855C21.3758 7.36522 21.2596 7.4008 21.1407 7.40068ZM13.2324 6.21366H20.7369L21.4494 4.43312H12.5437L13.2324 6.21366ZM32.2965 28.2449H21.2238C21.0663 28.2449 20.9153 28.1823 20.804 28.071C20.6926 27.9597 20.6301 27.8088 20.6301 27.6513V11.033C20.6301 10.8756 20.6926 10.7246 20.804 10.6133C20.9153 10.502 21.0663 10.4395 21.2238 10.4395H27.6953C27.8527 10.4395 28.0037 10.502 28.1151 10.6133C28.2264 10.7246 28.289 10.8756 28.289 11.033V14.6653L32.2906 14.6237C32.3687 14.6233 32.4462 14.6383 32.5185 14.6678C32.5909 14.6973 32.6566 14.7408 32.7121 14.7959C32.7682 14.8508 32.8129 14.9164 32.8434 14.9887C32.874 15.061 32.8899 15.1387 32.8902 15.2172V27.6513C32.8902 27.8088 32.8277 27.9597 32.7163 28.071C32.605 28.1823 32.454 28.2449 32.2965 28.2449ZM21.8175 27.0578H31.7028V15.8404L27.7012 15.882C27.6227 15.8853 27.5444 15.8716 27.4716 15.8419C27.3989 15.8122 27.3334 15.7672 27.2797 15.7099C27.2236 15.6549 27.1789 15.5893 27.1484 15.517C27.1178 15.4447 27.1019 15.367 27.1015 15.2885V11.6502H21.8175V27.0578Z" fill="url(#paint3_linear_3369_11837)"/>
<path d="M27.701 15.8806C27.5453 15.8799 27.396 15.8181 27.2854 15.7084C27.2293 15.6535 27.1847 15.5879 27.1541 15.5156C27.1235 15.4433 27.1076 15.3656 27.1073 15.287V11.0553C27.108 10.9405 27.1421 10.8283 27.2053 10.7325C27.2686 10.6366 27.3582 10.5611 27.4635 10.5152C27.5679 10.4692 27.6833 10.4543 27.796 10.4722C27.9087 10.4901 28.0138 10.54 28.0988 10.6161L32.7001 14.7707C32.7883 14.8508 32.8503 14.9557 32.8781 15.0716C32.9059 15.1874 32.8982 15.309 32.8559 15.4204C32.8136 15.5318 32.7388 15.628 32.6411 15.6963C32.5434 15.7646 32.4274 15.8019 32.3082 15.8034L27.7069 15.8509L27.701 15.8806ZM28.2947 12.3966V14.6876H30.7824L28.2947 12.3966ZM11.5283 13.5599H9.81246C9.655 13.5599 9.50399 13.4974 9.39264 13.3861C9.2813 13.2748 9.21875 13.1238 9.21875 12.9664C9.21875 12.809 9.2813 12.658 9.39264 12.5467C9.50399 12.4354 9.655 12.3729 9.81246 12.3729H11.5283C11.6858 12.3729 11.8368 12.4354 11.9481 12.5467C12.0594 12.658 12.122 12.809 12.122 12.9664C12.122 13.1238 12.0594 13.2748 11.9481 13.3861C11.8368 13.4974 11.6858 13.5599 11.5283 13.5599ZM17.4654 13.5599H13.9684C13.811 13.5599 13.66 13.4974 13.5486 13.3861C13.4373 13.2748 13.3747 13.1238 13.3747 12.9664C13.3747 12.809 13.4373 12.658 13.5486 12.5467C13.66 12.4354 13.811 12.3729 13.9684 12.3729H17.4654C17.6229 12.3729 17.7739 12.4354 17.8852 12.5467C17.9966 12.658 18.0591 12.809 18.0591 12.9664C18.0591 13.1238 17.9966 13.2748 17.8852 13.3861C17.7739 13.4974 17.6229 13.5599 17.4654 13.5599ZM12.787 26.8902C12.6312 26.8896 12.4819 26.8277 12.3714 26.7181C12.2608 26.6069 12.1987 26.4565 12.1987 26.2997C12.1987 26.1429 12.2608 25.9924 12.3714 25.8812L13.5113 24.7358V22.6347C13.5113 22.4773 13.5738 22.3264 13.6852 22.2151C13.7965 22.1038 13.9475 22.0412 14.105 22.0412C14.2625 22.0412 14.4135 22.1038 14.5248 22.2151C14.6362 22.3264 14.6987 22.4773 14.6987 22.6347V25.0088C14.6981 25.1645 14.6362 25.3137 14.5265 25.4242L13.2085 26.7418C13.0927 26.8443 12.9414 26.8975 12.787 26.8902Z" fill="url(#paint4_linear_3369_11837)"/>
<defs>
<linearGradient id="paint0_linear_3369_11837" x1="17.1167" y1="19.6094" x2="17.0672" y2="32.7189" gradientUnits="userSpaceOnUse">
<stop stop-color="#005CAA"/>
<stop offset="1" stop-color="#64B0F1"/>
</linearGradient>
<linearGradient id="paint1_linear_3369_11837" x1="22.6437" y1="19.7227" x2="22.5742" y2="41.0014" gradientUnits="userSpaceOnUse">
<stop stop-color="#005CAA"/>
<stop offset="1" stop-color="#64B0F1"/>
</linearGradient>
<linearGradient id="paint2_linear_3369_11837" x1="22.6436" y1="3.24609" x2="22.4405" y2="39.6408" gradientUnits="userSpaceOnUse">
<stop stop-color="#005CAA"/>
<stop offset="1" stop-color="#64B0F1"/>
</linearGradient>
<linearGradient id="paint3_linear_3369_11837" x1="28.0652" y1="3.24609" x2="27.9341" y2="33.6018" gradientUnits="userSpaceOnUse">
<stop stop-color="#005CAA"/>
<stop offset="1" stop-color="#64B0F1"/>
</linearGradient>
<linearGradient id="paint4_linear_3369_11837" x1="27.6647" y1="10.4648" x2="27.6125" y2="30.411" gradientUnits="userSpaceOnUse">
<stop stop-color="#005CAA"/>
<stop offset="1" stop-color="#64B0F1"/>
</linearGradient>
</defs>
</svg>