<svg width="38" height="38" viewBox="0 0 52 56" fill="none" xmlns="http://www.w3.org/2000/svg">
<path d="M50.2359 21.4828H6.98906C7.06562 11.0484 15.575 2.57187 26.0312 2.57187C32.725 2.57187 38.8063 5.98438 42.2953 11.6938C42.6781 12.3281 43.5094 12.525 44.1328 12.1313C44.7562 11.7484 44.9531 10.9281 44.5703 10.2937C40.5891 3.79688 33.6547 -0.0859375 26.0312 -0.0859375C14.1094 -0.0859375 4.39687 9.58281 4.32031 21.4828H1.82656C1.09375 21.4828 0.492188 22.0844 0.492188 22.8172V54.5797C0.492188 55.3125 1.09375 55.9141 1.82656 55.9141H50.2359C50.9688 55.9141 51.5703 55.3125 51.5703 54.5797V22.8172C51.5703 22.0734 50.9688 21.4828 50.2359 21.4828ZM48.9016 53.2453H3.16094V24.1516H48.9016V53.2453Z" fill="url(#paint0_linear_3451_13393)"></path>
<path d="M50.2359 21.4828H6.98906C7.06562 11.0484 15.575 2.57187 26.0312 2.57187C32.725 2.57187 38.8063 5.98438 42.2953 11.6938C42.6781 12.3281 43.5094 12.525 44.1328 12.1313C44.7562 11.7484 44.9531 10.9281 44.5703 10.2937C40.5891 3.79688 33.6547 -0.0859375 26.0312 -0.0859375C14.1094 -0.0859375 4.39687 9.58281 4.32031 21.4828H1.82656C1.09375 21.4828 0.492188 22.0844 0.492188 22.8172V54.5797C0.492188 55.3125 1.09375 55.9141 1.82656 55.9141H50.2359C50.9688 55.9141 51.5703 55.3125 51.5703 54.5797V22.8172C51.5703 22.0734 50.9688 21.4828 50.2359 21.4828ZM48.9016 53.2453H3.16094V24.1516H48.9016V53.2453Z" fill="black" fill-opacity="0.2"></path>
<path d="M24.6969 40.2633V46.4211C24.6969 47.1539 25.2984 47.7555 26.0312 47.7555C26.7641 47.7555 27.3656 47.1539 27.3656 46.4211V40.2633C29.7062 39.6617 31.4453 37.5617 31.4453 35.0352C31.4453 32.0492 29.0172 29.6211 26.0312 29.6211C23.0453 29.6211 20.6172 32.0492 20.6172 35.0352C20.6172 37.5617 22.3563 39.6727 24.6969 40.2633ZM26.0312 32.3008C27.5406 32.3008 28.7766 33.5367 28.7766 35.0461C28.7766 36.5555 27.5406 37.7914 26.0312 37.7914C24.5219 37.7914 23.2859 36.5664 23.2859 35.0461C23.2859 33.5367 24.5109 32.3008 26.0312 32.3008Z" fill="url(#paint1_linear_3451_13393)"></path>
<path d="M24.6969 40.2633V46.4211C24.6969 47.1539 25.2984 47.7555 26.0312 47.7555C26.7641 47.7555 27.3656 47.1539 27.3656 46.4211V40.2633C29.7062 39.6617 31.4453 37.5617 31.4453 35.0352C31.4453 32.0492 29.0172 29.6211 26.0312 29.6211C23.0453 29.6211 20.6172 32.0492 20.6172 35.0352C20.6172 37.5617 22.3563 39.6727 24.6969 40.2633ZM26.0312 32.3008C27.5406 32.3008 28.7766 33.5367 28.7766 35.0461C28.7766 36.5555 27.5406 37.7914 26.0312 37.7914C24.5219 37.7914 23.2859 36.5664 23.2859 35.0461C23.2859 33.5367 24.5109 32.3008 26.0312 32.3008Z" fill="black" fill-opacity="0.2"></path>
<defs>
<linearGradient id="paint0_linear_3451_13393" x1="26.0312" y1="-0.0859375" x2="26.0313" y2="55.9141" gradientUnits="userSpaceOnUse">
<stop stop-color="#FF0F0F"></stop>
<stop offset="1" stop-color="#FF4849"></stop>
</linearGradient>
<linearGradient id="paint1_linear_3451_13393" x1="26.0312" y1="29.6211" x2="26.0312" y2="47.7555" gradientUnits="userSpaceOnUse">
<stop stop-color="#FF0F0F"></stop>
<stop offset="1" stop-color="#FF4849"></stop>
</linearGradient>
</defs>
</svg>