<svg width="38" height="38" viewBox="0 0 32 28" fill="none" xmlns="http://www.w3.org/2000/svg">
<path d="M10.4203 7.79102C8.62633 7.79102 7.17188 9.24547 7.17188 11.0395C7.17188 12.8335 8.62633 14.2879 10.4203 14.2879C12.2143 14.2879 13.6688 12.8335 13.6688 11.0395C13.6688 9.24547 12.2628 7.79102 10.4203 7.79102ZM10.4203 13.3667C9.15965 13.3667 8.14153 12.3486 8.14153 11.0879C8.14153 9.82713 9.15959 8.80907 10.4203 8.80907C11.6811 8.80907 12.6991 9.82713 12.6991 11.0879C12.6991 12.3486 11.7292 13.3667 10.4203 13.3667Z" fill="url(#paint0_linear_4209_26568)"/>
<path d="M4.99056 8.71236C5.23297 8.80923 5.52382 8.71236 5.62091 8.46995L6.25125 7.06395C6.34812 6.82153 6.25125 6.53069 6.00884 6.4336C5.76643 6.33673 5.47558 6.4336 5.37849 6.67601L4.74815 8.08202C4.65105 8.32443 4.74815 8.61527 4.99056 8.71236Z" fill="url(#paint1_linear_4209_26568)"/>
<path d="M11.2509 16.5176C11.0085 16.4207 10.7177 16.5176 10.6206 16.76L9.99024 18.166C9.89337 18.4084 9.99024 18.6993 10.2327 18.7963C10.4751 18.8932 10.7659 18.7963 10.863 18.5539L11.4933 17.1479C11.6389 16.9055 11.4933 16.6145 11.2509 16.5176Z" fill="url(#paint2_linear_4209_26568)"/>
<path d="M12.6545 5.8022C12.8969 5.89908 13.1878 5.8022 13.2849 5.55979L13.9152 4.15379C14.0121 3.91138 13.9152 3.62053 13.6728 3.52345C13.4304 3.42657 13.1395 3.52345 13.0425 3.76586L12.4121 5.17186C12.3152 5.41427 12.4121 5.70534 12.6545 5.8022Z" fill="url(#paint3_linear_4209_26568)"/>
<path d="M6.00874 13.0762C5.76633 12.9793 5.47549 13.0762 5.3784 13.3186L4.74806 14.7246C4.65118 14.967 4.74806 15.2579 4.99047 15.3549C5.23288 15.4518 5.52373 15.3549 5.62081 15.1125L6.25115 13.7065C6.34825 13.4639 6.25115 13.173 6.00874 13.0762Z" fill="url(#paint4_linear_4209_26568)"/>
<path d="M8.63256 6.48192C9.40822 6.48192 10.0386 5.85158 10.0386 5.07592C10.0386 4.30026 9.40822 3.66992 8.63256 3.66992C7.85691 3.66992 7.22656 4.30026 7.22656 5.07592C7.22656 5.85158 7.85668 6.48192 8.63256 6.48192ZM8.63256 4.63952C8.87497 4.63952 9.06895 4.83349 9.06895 5.0759C9.06895 5.31832 8.87497 5.51229 8.63256 5.51229C8.39015 5.51229 8.19618 5.31832 8.19618 5.0759C8.19618 4.83349 8.39015 4.63952 8.63256 4.63952Z" fill="url(#paint5_linear_4209_26568)"/>
<path d="M15.5622 9.68114C16.3379 9.68114 16.9682 9.0508 16.9682 8.27514C16.9682 7.49948 16.3379 6.86914 15.5622 6.86914C14.7866 6.86914 14.1562 7.49948 14.1562 8.27514C14.1562 9.0508 14.738 9.68114 15.5622 9.68114ZM15.5622 7.83874C15.8047 7.83874 15.9986 8.03271 15.9986 8.27512C15.9986 8.51754 15.8047 8.71151 15.5622 8.71151C15.3198 8.71151 15.1259 8.51754 15.1259 8.27512C15.0774 8.03271 15.3198 7.83874 15.5622 7.83874Z" fill="url(#paint6_linear_4209_26568)"/>
<path d="M7.12399 15.3535C5.28159 15.3535 5.28159 18.1656 7.12399 18.1656C7.89964 18.1656 8.52999 17.5352 8.52999 16.7596C8.52999 15.9837 7.89987 15.3536 7.12399 15.3536V15.3535ZM7.12399 17.1959C6.88158 17.1959 6.68761 17.0019 6.68761 16.7595C6.68761 16.5171 6.88158 16.3231 7.12399 16.3231C7.3664 16.3231 7.56037 16.5171 7.56037 16.7595C7.56037 17.0019 7.3664 17.1959 7.12399 17.1959Z" fill="url(#paint7_linear_4209_26568)"/>
<path d="M3.49194 9.63281C2.71628 9.63281 2.08594 10.2632 2.08594 11.0388C2.08594 11.8145 2.71628 12.4448 3.49194 12.4448C4.26759 12.4448 4.89794 11.8145 4.89794 11.0388C4.89794 10.2629 4.26782 9.63281 3.49194 9.63281ZM3.49194 11.5237C3.24953 11.5237 3.05555 11.3297 3.05555 11.0873C3.05555 10.8449 3.24953 10.6509 3.49194 10.6509C3.73435 10.6509 3.92832 10.8449 3.92832 11.0873C3.92832 11.2813 3.73435 11.5237 3.49194 11.5237Z" fill="url(#paint8_linear_4209_26568)"/>
<path d="M31.757 17.391C31.757 16.5183 31.0782 15.791 30.2538 15.6942C30.4478 14.0942 28.8962 12.8335 28.2174 12.3486C28.4599 10.991 27.5871 10.0698 26.2781 9.58502C26.9569 6.96697 24.8237 4.93056 22.4478 4.20308C22.1085 4.1062 21.769 4.39705 21.8174 4.73634C22.0599 5.94839 21.2355 6.28788 20.9931 6.38479C20.4598 6.48167 20.0719 6.72408 19.781 7.01514C18.1813 3.28188 14.5449 0.857422 10.4239 0.857422C4.79956 0.857422 0.242188 5.41502 0.242188 11.0391C0.242188 16.6633 4.79979 21.2209 10.4239 21.2209C11.8784 21.2209 13.2846 20.93 14.5936 20.3481L15.1268 25.8754C15.2237 26.651 15.8056 27.1845 16.5813 27.1845H28.1693C28.9449 27.1845 29.5753 26.6026 29.6237 25.8754L30.3025 19.0388C31.1269 18.9417 31.7572 18.2145 31.7572 17.3903L31.757 17.391ZM21.2844 7.35445C21.8664 7.20891 22.7389 6.62719 22.8844 5.41514C24.6784 6.28788 25.9389 7.69394 25.3088 9.63319C25.1148 9.77873 24.7268 9.92404 24.3876 9.97248C24.0967 9.97248 23.9027 10.2149 23.9027 10.4573C23.9027 10.6997 24.1451 10.9421 24.3876 10.9421C24.9695 10.9421 25.5028 10.6513 25.7936 10.5057C26.7632 10.7966 27.4904 11.3785 27.248 12.3966C27.054 12.5421 26.6661 12.7359 26.2784 12.6874C26.0359 12.639 25.7451 12.833 25.7451 13.1238C25.6967 13.3662 25.8906 13.6571 26.1815 13.6571C26.7147 13.7055 27.2482 13.5602 27.733 13.2691C28.2663 13.6571 29.527 14.6267 29.333 15.7903L15.5633 15.7908C15.4664 14.2392 16.6301 13.512 17.0665 13.2696C17.5513 13.512 18.0361 13.706 18.5209 13.8028H18.6178C18.8602 13.8028 19.0542 13.6089 19.1026 13.3665C19.151 13.124 18.9571 12.8332 18.7147 12.8332C18.3267 12.7848 17.939 12.6392 17.5995 12.4453C17.4055 9.68165 19.4419 9.68165 19.4903 9.63319C20.3633 9.48766 19.3452 7.88765 21.2845 7.35439L21.2844 7.35445ZM10.4238 20.2996C5.33299 20.2996 1.21184 16.1784 1.21184 11.0876C1.21184 5.99674 5.33304 1.87559 10.4238 1.87559C14.3511 1.87559 17.8421 4.34834 19.1513 8.08188C19.0544 8.27585 19.0057 8.46983 19.0057 8.66382C17.5513 9.00311 16.4845 10.2154 16.6301 12.3486C15.7089 12.8334 14.5453 13.9486 14.6421 15.7426C13.7694 15.8395 13.139 16.567 13.139 17.4395C13.139 18.2638 13.7693 18.991 14.545 19.1363L14.5934 19.3787C13.2361 19.9607 11.8785 20.2999 10.424 20.2999L10.4238 20.2996ZM28.7027 25.827C28.6543 26.0694 28.4603 26.2634 28.2179 26.2634L16.6299 26.2632C16.3875 26.2632 16.1451 26.0692 16.1451 25.8268L15.4663 19.1359H29.3817L28.7027 25.827ZM30.0603 18.1179H14.8357C14.4478 18.1179 14.1085 17.7786 14.1085 17.3906C14.1085 17.0027 14.4478 16.6634 14.8357 16.6634H30.0603C30.4483 16.6634 30.7876 17.0027 30.7876 17.3906C30.7876 17.7783 30.4481 18.1179 30.0603 18.1179Z" fill="url(#paint9_linear_4209_26568)"/>
<path d="M22.4458 25.1004C22.7366 25.1004 22.9306 24.9064 22.9306 24.6156V20.7368C22.9306 20.4459 22.7366 20.252 22.4458 20.252C22.1549 20.252 21.9609 20.4459 21.9609 20.7368V24.6156C21.9609 24.9067 22.1549 25.1004 22.4458 25.1004Z" fill="url(#paint10_linear_4209_26568)"/>
<path d="M19.0501 24.7599C19.0986 25.0023 19.2926 25.1479 19.535 25.1479H19.6318C19.8743 25.0994 20.0682 24.8086 19.9711 24.5659L19.0015 20.6871C18.953 20.4447 18.6622 20.2507 18.4195 20.3478C18.1771 20.3963 17.9831 20.6871 18.0802 20.9298L19.0501 24.7599Z" fill="url(#paint11_linear_4209_26568)"/>
<path d="M25.2131 25.1002H25.31C25.504 25.1002 25.7464 24.9546 25.7948 24.7122L26.7645 20.8334C26.8129 20.591 26.6676 20.3002 26.4252 20.2515C26.1828 20.203 25.892 20.3483 25.8433 20.5908L24.8736 24.4696C24.7767 24.7609 24.9223 25.0518 25.2131 25.1002Z" fill="url(#paint12_linear_4209_26568)"/>
<defs>
<linearGradient id="paint0_linear_4209_26568" x1="12.2337" y1="7.79102" x2="12.2039" y2="15.6802" gradientUnits="userSpaceOnUse">
<stop stop-color="#005CAA"/>
<stop offset="1" stop-color="#64B0F1"/>
</linearGradient>
<linearGradient id="paint1_linear_4209_26568" x1="5.93993" y1="6.39648" x2="5.92384" y2="9.25366" gradientUnits="userSpaceOnUse">
<stop stop-color="#005CAA"/>
<stop offset="1" stop-color="#64B0F1"/>
</linearGradient>
<linearGradient id="paint2_linear_4209_26568" x1="11.1984" y1="16.4805" x2="11.1825" y2="19.3376" gradientUnits="userSpaceOnUse">
<stop stop-color="#005CAA"/>
<stop offset="1" stop-color="#64B0F1"/>
</linearGradient>
<linearGradient id="paint3_linear_4209_26568" x1="13.6039" y1="3.48633" x2="13.5878" y2="6.3435" gradientUnits="userSpaceOnUse">
<stop stop-color="#005CAA"/>
<stop offset="1" stop-color="#64B0F1"/>
</linearGradient>
<linearGradient id="paint4_linear_4209_26568" x1="5.93993" y1="13.0391" x2="5.92385" y2="15.8962" gradientUnits="userSpaceOnUse">
<stop stop-color="#005CAA"/>
<stop offset="1" stop-color="#64B0F1"/>
</linearGradient>
<linearGradient id="paint5_linear_4209_26568" x1="9.41742" y1="3.66992" x2="9.40453" y2="7.08452" gradientUnits="userSpaceOnUse">
<stop stop-color="#005CAA"/>
<stop offset="1" stop-color="#64B0F1"/>
</linearGradient>
<linearGradient id="paint6_linear_4209_26568" x1="16.3471" y1="6.86914" x2="16.3342" y2="10.2837" gradientUnits="userSpaceOnUse">
<stop stop-color="#005CAA"/>
<stop offset="1" stop-color="#64B0F1"/>
</linearGradient>
<linearGradient id="paint7_linear_4209_26568" x1="7.91419" y1="15.3535" x2="7.90119" y2="18.7682" gradientUnits="userSpaceOnUse">
<stop stop-color="#005CAA"/>
<stop offset="1" stop-color="#64B0F1"/>
</linearGradient>
<linearGradient id="paint8_linear_4209_26568" x1="4.27679" y1="9.63281" x2="4.26391" y2="13.0474" gradientUnits="userSpaceOnUse">
<stop stop-color="#005CAA"/>
<stop offset="1" stop-color="#64B0F1"/>
</linearGradient>
<linearGradient id="paint9_linear_4209_26568" x1="24.7958" y1="0.857422" x2="24.6951" y2="32.8264" gradientUnits="userSpaceOnUse">
<stop stop-color="#005CAA"/>
<stop offset="1" stop-color="#64B0F1"/>
</linearGradient>
<linearGradient id="paint10_linear_4209_26568" x1="22.7164" y1="20.252" x2="22.6053" y2="26.1374" gradientUnits="userSpaceOnUse">
<stop stop-color="#005CAA"/>
<stop offset="1" stop-color="#64B0F1"/>
</linearGradient>
<linearGradient id="paint11_linear_4209_26568" x1="19.5677" y1="20.3223" x2="19.5128" y2="26.1815" gradientUnits="userSpaceOnUse">
<stop stop-color="#005CAA"/>
<stop offset="1" stop-color="#64B0F1"/>
</linearGradient>
<linearGradient id="paint12_linear_4209_26568" x1="26.3475" y1="20.2422" x2="26.2914" y2="26.1407" gradientUnits="userSpaceOnUse">
<stop stop-color="#005CAA"/>
<stop offset="1" stop-color="#64B0F1"/>
</linearGradient>
</defs>
</svg>