<svg width="38" height="38" viewBox="0 0 40 40" fill="none"
                                xmlns="http://www.w3.org/2000/svg">
                                <path
                                    d="M36.6831 9.56L34.6831 6.36C34.5231 6.12 34.2831 6 34.0031 6C33.7231 6 33.4831 6.16 33.3231 6.36L31.3231 9.56C31.2431 9.72 31.2031 9.84 31.2031 10V31.2C31.2031 32.76 32.4431 34 34.0031 34C35.5631 34 36.8031 32.76 36.8031 31.2V10C36.8031 9.84 36.7631 9.72 36.6831 9.56ZM34.0031 8.32L35.2031 10.24V28.4H32.8031V10.24L34.0031 8.32ZM34.0031 32.4C33.3231 32.4 32.8031 31.88 32.8031 31.2V30H35.2031V31.2C35.2031 31.88 34.6831 32.4 34.0031 32.4ZM26.4031 2H5.60312C4.28312 2 3.20312 3.08 3.20312 4.4V35.6C3.20312 36.92 4.28312 38 5.60312 38H26.4031C27.7231 38 28.8031 36.92 28.8031 35.6V4.4C28.8031 3.08 27.7231 2 26.4031 2ZM27.2031 35.6C27.2031 36.04 26.8431 36.4 26.4031 36.4H5.60312C5.16312 36.4 4.80312 36.04 4.80312 35.6V4.4C4.80312 3.96 5.16312 3.6 5.60312 3.6H26.4031C26.8431 3.6 27.2031 3.96 27.2031 4.4V35.6ZM11.2031 7.6C11.2031 7.16 11.5631 6.8 12.0031 6.8H20.0031C20.4431 6.8 20.8031 7.16 20.8031 7.6C20.8031 8.04 20.4431 8.4 20.0031 8.4H12.0031C11.5631 8.4 11.2031 8.04 11.2031 7.6ZM24.0031 11.6C24.0031 12.04 23.6431 12.4 23.2031 12.4H8.80312C8.36312 12.4 8.00312 12.04 8.00312 11.6C8.00312 11.16 8.36312 10.8 8.80312 10.8H23.2031C23.6431 10.8 24.0031 11.16 24.0031 11.6ZM24.0031 15.6C24.0031 16.04 23.6431 16.4 23.2031 16.4H8.80312C8.36312 16.4 8.00312 16.04 8.00312 15.6C8.00312 15.16 8.36312 14.8 8.80312 14.8H23.2031C23.6431 14.8 24.0031 15.16 24.0031 15.6ZM24.0031 19.6C24.0031 20.04 23.6431 20.4 23.2031 20.4H8.80312C8.36312 20.4 8.00312 20.04 8.00312 19.6C8.00312 19.16 8.36312 18.8 8.80312 18.8H23.2031C23.6431 18.8 24.0031 19.16 24.0031 19.6ZM24.0031 28.4C24.0031 28.84 23.6431 29.2 23.2031 29.2H8.80312C8.36312 29.2 8.00312 28.84 8.00312 28.4C8.00312 27.96 8.36312 27.6 8.80312 27.6H23.2031C23.6431 27.6 24.0031 27.96 24.0031 28.4ZM24.0031 32.4C24.0031 32.84 23.6431 33.2 23.2031 33.2H8.80312C8.36312 33.2 8.00312 32.84 8.00312 32.4C8.00312 31.96 8.36312 31.6 8.80312 31.6H23.2031C23.6431 31.6 24.0031 31.96 24.0031 32.4Z"
                                    fill="url(#paint0_linear_5451_29825)" />
                                <defs>
                                    <linearGradient id="paint0_linear_5451_29825" x1="29.3812" y1="2" x2="29.2045"
                                        y2="45.7145" gradientUnits="userSpaceOnUse">
                                        <stop stop-color="#005CAA" />
                                        <stop offset="1" stop-color="#64B0F1" />
                                    </linearGradient>
                                </defs>
                            </svg>