<svg width="38" height="38" viewBox="0 0 46 46" fill="none" xmlns="http://www.w3.org/2000/svg">
<path d="M44.1856 14.034C43.8156 14.8218 43.4115 15.622 42.9836 16.4199C43.5675 18.1897 43.9395 20.0577 44.0296 22.0021H39.7077C39.2058 22.7939 38.7598 23.4759 38.4136 24.0019H44.0316C43.8595 27.6559 42.7576 31.06 40.9536 34.0022H34.4658C35.0959 31.9143 35.5278 29.6144 35.7678 27.1783L34.3559 25.1402C34.3237 25.0964 34.1697 24.8704 33.94 24.5282C33.8021 27.9581 33.2299 31.1942 32.3021 34.0005H23.9996V24.0002H33.5858C33.238 23.4742 32.794 22.7921 32.2917 22.0003H23.9999V12H26.9198C26.6359 11.3581 26.426 10.6918 26.2837 10.0001H23.9998V2.1C25.0739 2.29587 26.1058 2.81217 27.0759 3.57994C27.5858 2.55609 28.2397 1.62189 29.054 0.832029C27.1217 0.306026 25.0997 0 22.9997 0C10.2977 0 0 10.2977 0 22.9997C0 35.7034 10.2977 45.9994 22.9997 45.9994C35.7034 45.9994 45.9994 35.7034 45.9994 22.9997C45.9998 19.8199 45.3536 16.7898 44.1857 14.034L44.1856 14.034ZM16.5779 2.92368C14.8237 4.65374 13.3297 7.07182 12.2138 9.99982H6.43581C9.01196 6.72562 12.5238 4.22585 16.5775 2.92368H16.5779ZM5.04759 12H11.5317C10.6357 14.9759 10.1118 18.372 10.0277 22.0003H1.96753C2.13929 18.346 3.2415 14.9382 5.04759 12ZM1.96753 24H10.0277C10.1117 27.6281 10.6357 31.0238 11.5337 34.0003H5.0475C3.23944 31.0582 2.1393 27.6541 1.96753 24ZM6.43539 36H12.2154C13.3314 38.928 14.8254 41.3461 16.5795 43.0761C12.5235 41.778 9.01153 39.2779 6.43521 36H6.43539ZM21.9994 43.9001C18.9813 43.352 16.2753 40.358 14.4414 36H21.9994V43.9001ZM21.9994 34.0001H13.6992C12.7212 31.0459 12.1212 27.6281 12.027 23.9998H21.999L21.9994 34.0001ZM21.9994 22.0001H12.0274C12.1215 18.3699 12.7215 14.9541 13.6995 11.9998H21.9994V22.0001ZM21.9994 10.0001H14.4411C16.2752 5.64005 18.981 2.64811 21.999 2.09997L21.9994 10.0001ZM23.9993 43.9001V36H31.5572C29.7214 40.36 27.0174 43.3519 23.9993 43.9001ZM29.4193 43.0761C31.1735 41.3481 32.6675 38.93 33.7854 35.9999H39.5675C36.9873 39.2778 33.4714 41.7779 29.4198 43.0761H29.4193Z" fill="url(#paint0_linear_3620_16659)"/>
<path d="M28.0936 8.93554C28.2195 9.99154 28.5416 10.9756 29.0375 11.8635C31.1937 17.0633 35.9998 23.9998 35.9998 23.9998C35.9998 23.9998 40.8058 17.0637 42.9618 11.8661C43.4577 10.9761 43.7798 9.99214 43.9057 8.93606C43.966 8.59789 43.9998 8.28416 43.9998 7.99989C43.9998 3.58191 40.4179 0 35.9999 0C31.5819 0 28 3.58191 28 7.99989C28 8.28415 28.0338 8.59788 28.0938 8.93606L28.0936 8.93554ZM35.9997 3.9996C38.2079 3.9996 39.9999 5.79154 39.9999 7.99971C39.9999 10.2079 38.2079 11.9998 35.9997 11.9998C33.7916 11.9998 31.9996 10.2079 31.9996 7.99971C31.9996 5.79154 33.7916 3.9996 35.9997 3.9996Z" fill="url(#paint1_linear_3620_16659)"/>
<defs>
<linearGradient id="paint0_linear_3620_16659" x1="35.8386" y1="-8.27291e-09" x2="35.6278" y2="55.8568" gradientUnits="userSpaceOnUse">
<stop stop-color="#005CAA"/>
<stop offset="1" stop-color="#64B0F1"/>
</linearGradient>
<linearGradient id="paint1_linear_3620_16659" x1="40.4656" y1="-4.31632e-09" x2="40.3006" y2="29.1423" gradientUnits="userSpaceOnUse">
<stop stop-color="#005CAA"/>
<stop offset="1" stop-color="#64B0F1"/>
</linearGradient>
</defs>
</svg>