<svg width="38" height="38" viewBox="0 0 20 24" fill="none" xmlns="http://www.w3.org/2000/svg">
<path d="M2.80055 20.0803H17.2006C18.2566 20.0803 19.1845 19.4403 19.5365 18.4483C19.8885 17.4563 19.6325 16.3685 18.8325 15.6644C17.2966 14.3523 16.6244 12.7204 16.7845 10.8325C17.0086 8.08045 16.4006 5.93645 14.9925 4.46445C14.1926 3.63251 13.2647 3.12045 12.4006 2.86445V2.80039C12.4006 1.48833 11.3127 0.400391 10.0006 0.400391C8.68855 0.400391 7.60061 1.48833 7.60061 2.80039V2.86445C6.73655 3.1524 5.80866 3.63251 5.00866 4.46445C3.60061 5.93634 3.02472 8.08028 3.24861 10.8645C3.40865 12.7524 2.70464 14.3846 1.20061 15.6964C0.400608 16.4004 0.112665 17.4883 0.496607 18.4803C0.816699 19.4406 1.74461 20.0806 2.80061 20.0806L2.80055 20.0803ZM10.0006 1.68028C10.5445 1.68028 10.9925 2.06421 11.0885 2.54434C10.5445 2.44836 10.1284 2.44836 10.0006 2.48028C9.87265 2.48028 9.45658 2.48028 8.91261 2.54434C9.00859 2.06421 9.45658 1.68028 10.0006 1.68028ZM2.00055 16.6563C3.85655 15.0563 4.68849 13.0723 4.49655 10.7363C4.30458 8.36823 4.7845 6.54434 5.93649 5.32823C7.37644 3.79228 9.52044 3.72823 9.90455 3.72823H9.96861H10.0325C10.1284 3.72823 12.4965 3.66416 14.0644 5.32823C15.2164 6.51217 15.6963 8.33628 15.5043 10.7363C15.3124 13.0722 16.1765 15.0564 18.0003 16.6563C18.4802 17.0724 18.4802 17.6163 18.3524 18.0003C18.2245 18.3842 17.8403 18.8003 17.2003 18.8003H2.80035C2.16041 18.8003 1.80841 18.3842 1.64835 18.0003C1.52067 17.6164 1.52064 17.0724 2.00055 16.6563Z" fill="url(#paint0_linear_4087_26848)"/>
<path d="M11.9857 21.0717C11.6337 21.8398 10.8337 22.3197 10.0018 22.3197C9.16981 22.3197 8.36981 21.8398 8.01781 21.0717C7.85776 20.7516 7.47384 20.6237 7.15375 20.7838C6.83366 20.9438 6.70576 21.3277 6.8658 21.6478C7.44169 22.8639 8.65774 23.6318 10.0017 23.6318C11.3457 23.6318 12.5618 22.8637 13.1377 21.6478C13.2977 21.3277 13.1377 20.9438 12.8497 20.7838C12.5296 20.6237 12.1458 20.7519 11.9857 21.0717Z" fill="url(#paint1_linear_4087_26848)"/>
<defs>
<linearGradient id="paint0_linear_4087_26848" x1="15.4139" y1="0.400391" x2="15.3222" y2="24.2979" gradientUnits="userSpaceOnUse">
<stop stop-color="#005CAA"/>
<stop offset="1" stop-color="#64B0F1"/>
</linearGradient>
<linearGradient id="paint1_linear_4087_26848" x1="11.7865" y1="20.7148" x2="11.7804" y2="24.2569" gradientUnits="userSpaceOnUse">
<stop stop-color="#005CAA"/>
<stop offset="1" stop-color="#64B0F1"/>
</linearGradient>
</defs>
</svg>