<svg width="38" height="38" viewBox="0 0 26 24" fill="none" xmlns="http://www.w3.org/2000/svg">
<path d="M23.9419 0.453342H4.48586C4.00217 0.453342 3.5382 0.645465 3.19614 0.98772C2.8541 1.32976 2.66198 1.79375 2.66198 2.27744V9.28138C1.12184 10.5505 0.229492 12.4416 0.229492 14.4373C0.229492 16.4329 1.12184 18.324 2.66198 19.5932V21.7332C2.66198 22.2169 2.8541 22.6809 3.19614 23.0229C3.53819 23.3652 4.00218 23.5573 4.48586 23.5573H23.9419C24.4256 23.5573 24.8895 23.3652 25.2316 23.0229C25.5736 22.6809 25.7657 22.2169 25.7657 21.7332V2.27722C25.7657 1.79353 25.5736 1.32956 25.2316 0.987503C24.8895 0.645248 24.4255 0.453125 23.9419 0.453125V0.453342ZM22.3002 3.06774C22.4711 2.89301 22.7313 2.84 22.9569 2.93394C23.0328 2.9596 23.1003 3.00604 23.1514 3.06774C23.268 3.17865 23.3339 3.33239 23.3339 3.49333C23.3339 3.65428 23.268 3.80802 23.1514 3.91892C23.1003 3.98084 23.0328 4.02707 22.9569 4.05272C22.8846 4.08623 22.8055 4.10277 22.7258 4.10128C22.4825 4.09789 22.2648 3.94988 22.1721 3.72489C22.0794 3.4999 22.1299 3.24139 22.3002 3.06774ZM19.7345 3.26241C19.7996 3.11609 19.9164 2.99924 20.0628 2.93393C20.2108 2.87329 20.3768 2.87329 20.5248 2.93393C20.6711 2.99924 20.788 3.11609 20.8531 3.26241C20.8866 3.33471 20.9033 3.4136 20.9019 3.49333C20.9019 3.82922 20.6296 4.10128 20.2937 4.10128C19.958 4.10128 19.6857 3.82921 19.6857 3.49333C19.6843 3.4136 19.701 3.33471 19.7345 3.26241ZM17.4363 3.06774C17.4874 3.00604 17.5548 2.95959 17.6307 2.93394C17.7787 2.87329 17.9448 2.87329 18.0928 2.93394C18.1689 2.9596 18.2361 3.00604 18.2874 3.06774C18.4039 3.17865 18.47 3.33239 18.47 3.49333C18.47 3.65428 18.4039 3.80802 18.2874 3.91892C18.2361 3.98084 18.1689 4.02707 18.0928 4.05272C18.0205 4.08623 17.9414 4.10277 17.8618 4.10128C17.7819 4.10404 17.7026 4.08729 17.6307 4.05272C17.4844 3.98762 17.3675 3.87057 17.3025 3.72446C17.2689 3.65215 17.2522 3.57306 17.2537 3.49333C17.2516 3.33216 17.3179 3.17737 17.4363 3.06774ZM1.44564 14.4373C1.44543 12.7273 2.24658 11.1159 3.61007 10.0841C3.64039 10.0568 3.67284 10.0324 3.7074 10.0112C4.63895 9.32961 5.76348 8.96318 6.9177 8.9653C8.57466 8.96615 10.1422 9.71786 11.1802 11.0095C12.2182 12.3011 12.6152 13.9935 12.2594 15.6119C11.9037 17.2305 10.8337 18.6004 9.34975 19.3377V18.6932C9.34975 17.8245 8.8862 17.0216 8.13365 16.5871C7.3813 16.1526 6.45415 16.1526 5.70181 16.5871C4.94924 17.0216 4.4857 17.8245 4.4857 18.6932V19.3377C4.2113 19.206 3.95047 19.0472 3.70746 18.8635C3.67289 18.8421 3.64045 18.8177 3.61012 18.7906C2.24663 17.7585 1.44548 16.1473 1.4457 14.4373H1.44564ZM24.5496 21.7333C24.5496 21.8947 24.4856 22.0493 24.3715 22.1634C24.2574 22.2773 24.1029 22.3413 23.9417 22.3413H4.48569C4.15001 22.3413 3.87774 22.0692 3.87774 21.7334V20.3836C4.81651 20.8722 5.85939 21.1267 6.91774 21.1254C9.30718 21.1254 11.5151 19.8508 12.71 17.7813C13.9047 15.7121 13.9047 13.1626 12.71 11.0933C11.5153 9.02409 9.3074 7.74941 6.91774 7.74941C5.85939 7.74792 4.81651 8.00239 3.87774 8.49117V6.5333H24.5497L24.5496 21.7333ZM5.09364 12.6133C5.09364 12.1296 5.28598 11.6657 5.62802 11.3236C5.97007 10.9816 6.43406 10.7895 6.91774 10.7895C7.40143 10.7895 7.86541 10.9816 8.20746 11.3236C8.54951 11.6657 8.74184 12.1297 8.74184 12.6133C8.74184 13.097 8.54951 13.561 8.20746 13.9031C7.86542 14.2453 7.40143 14.4374 6.91774 14.4374C6.43406 14.4374 5.97008 14.2453 5.62802 13.9031C5.28598 13.561 5.09364 13.097 5.09364 12.6133ZM14.8216 18.0853V15.6533H14.8219C14.8219 15.3176 15.0939 15.0453 15.4298 15.0453H17.8619C18.023 15.0453 18.1776 15.1094 18.2917 15.2235C18.4058 15.3373 18.4698 15.4921 18.4698 15.6533V18.0854C18.4698 18.2465 18.4058 18.4013 18.2917 18.5152C18.1776 18.6293 18.023 18.6933 17.8619 18.6933H15.4298C15.0939 18.6933 14.8219 18.4212 14.8219 18.0854L14.8216 18.0853ZM19.6858 18.0853V15.6533C19.6858 15.3176 19.958 15.0453 20.2937 15.0453H22.7258C22.8871 15.0453 23.0417 15.1094 23.1558 15.2235C23.2697 15.3373 23.3337 15.4921 23.3337 15.6533V18.0854C23.3337 18.2465 23.2697 18.4013 23.1558 18.5152C23.0417 18.6293 22.8871 18.6933 22.7258 18.6933H20.2937C19.958 18.6933 19.6858 18.4212 19.6858 18.0853ZM14.8219 20.5174C14.8219 20.1815 15.0939 19.9095 15.4298 19.9095H17.8619C18.1975 19.9095 18.4698 20.1815 18.4698 20.5174C18.4698 20.8531 18.1975 21.1253 17.8619 21.1253H15.4298C15.0939 21.1253 14.8219 20.8531 14.8219 20.5174ZM19.6858 20.5174C19.6858 20.1815 19.958 19.9095 20.2937 19.9095H22.7258C23.0616 19.9095 23.3337 20.1815 23.3337 20.5174C23.3337 20.8531 23.0616 21.1253 22.7258 21.1253H20.2937C19.958 21.1253 19.6858 20.8531 19.6858 20.5174ZM14.8216 13.2214V12.0055L14.8219 12.0053C14.8219 11.6694 15.0939 11.3973 15.4298 11.3973C15.7655 11.3973 16.0377 11.6694 16.0377 12.0053V13.2212C16.0377 13.5571 15.7655 13.8293 15.4298 13.8293C15.0939 13.8293 14.8219 13.5571 14.8219 13.2212L14.8216 13.2214ZM17.2537 13.2214V9.57323C17.2537 9.23755 17.526 8.96529 17.8619 8.96529C18.1975 8.96529 18.4698 9.23756 18.4698 9.57323V13.2212C18.4698 13.5571 18.1975 13.8293 17.8619 13.8293C17.526 13.8293 17.2537 13.5571 17.2537 13.2212V13.2214ZM19.6858 13.2214V10.7893C19.6858 10.4534 19.958 10.1812 20.2937 10.1812C20.6296 10.1812 20.9019 10.4535 20.9019 10.7893V13.2214V13.2212C20.9019 13.5571 20.6296 13.8293 20.2937 13.8293C19.958 13.8293 19.6858 13.5571 19.6858 13.2212V13.2214ZM22.1178 13.2214V8.35729C22.1178 8.0214 22.3901 7.74934 22.7258 7.74934C23.0616 7.74934 23.3337 8.02141 23.3337 8.35729V13.2214V13.2212C23.3337 13.5571 23.0616 13.8293 22.7258 13.8293C22.3901 13.8293 22.1178 13.5571 22.1178 13.2212V13.2214Z" fill="url(#paint0_linear_3819_28338)"/>
<defs>
<linearGradient id="paint0_linear_3819_28338" x1="20.125" y1="0.453125" x2="20.0292" y2="28.5085" gradientUnits="userSpaceOnUse">
<stop stop-color="#005CAA"/>
<stop offset="1" stop-color="#64B0F1"/>
</linearGradient>
</defs>
</svg>