    <svg width="38" height="38" viewBox="0 0 32 28" fill="none"
                                xmlns="http://www.w3.org/2000/svg">
                                <path
                                    d="M15.0369 11.4336C15.2992 11.4336 15.5119 11.2209 15.5119 10.9586V6.36678L15.837 6.82184C15.9297 6.95141 16.0758 7.02054 16.2238 7.02054C16.3194 7.02054 16.4159 6.9917 16.4997 6.9319C16.713 6.77943 16.7624 6.48256 16.6099 6.26924L15.4233 4.60885C15.3342 4.48416 15.19 4.41016 15.0367 4.41016C14.8834 4.41016 14.7394 4.48416 14.6502 4.60885L13.4635 6.26924C13.3111 6.48256 13.3605 6.77943 13.5738 6.9319C13.7869 7.08458 14.0838 7.03517 14.2365 6.82164L14.5615 6.36657V10.9584C14.562 11.2209 14.7746 11.4336 15.0369 11.4336Z"
                                    fill="url(#paint0_linear_5422_29197)" />
                                <path
                                    d="M13.2329 17.5525C12.999 17.4346 12.7129 17.53 12.5954 17.7646L11.2037 20.5429L11.1161 19.9795C11.0758 19.7201 10.833 19.5437 10.5739 19.5832C10.3148 19.6234 10.1373 19.8662 10.1776 20.1256L10.4933 22.1573C10.5167 22.308 10.6112 22.4385 10.7472 22.5076C10.8148 22.5422 10.8888 22.5593 10.9626 22.5593C11.037 22.5593 11.1117 22.5417 11.1797 22.5067L12.9756 21.5837C13.2089 21.4639 13.3009 21.1776 13.1811 20.9443C13.0613 20.7111 12.775 20.6195 12.5416 20.7391L12.0386 20.9978L13.4447 18.1902C13.5622 17.9554 13.4674 17.6698 13.2329 17.5525Z"
                                    fill="url(#paint1_linear_5422_29197)" />
                                <path
                                    d="M15.9084 21.9579C15.7562 22.1712 15.8058 22.4679 16.0194 22.6204L17.6681 23.7964C17.7497 23.8547 17.8464 23.8848 17.9439 23.8848C17.9955 23.8848 18.0472 23.8766 18.097 23.8596C18.2417 23.8102 18.3541 23.6942 18.3984 23.5479L18.9947 21.5834C19.0708 21.3321 18.9291 21.067 18.6778 20.9907C18.4268 20.9146 18.1615 21.0564 18.0854 21.3073L17.8873 21.9604L16.0732 17.3633C15.9767 17.1192 15.7013 16.9994 15.4569 17.0959C15.2129 17.1922 15.0933 17.4682 15.1895 17.7121L16.9192 22.0955L16.5711 21.8472C16.3575 21.6949 16.0611 21.7439 15.9084 21.9579L15.9084 21.9579Z"
                                    fill="url(#paint2_linear_5422_29197)" />
                                <path
                                    d="M17.0281 11.7465C17.1119 11.9117 17.2788 12.0064 17.452 12.0064C17.5244 12.0064 17.5977 11.9899 17.6666 11.9549L21.6861 9.91475L21.4174 10.4445C21.2989 10.6781 21.3922 10.9642 21.6261 11.083C21.695 11.1177 21.7684 11.1343 21.8407 11.1343C22.014 11.1343 22.1808 11.0393 22.2646 10.8741L23.1907 9.0483C23.2587 8.91428 23.2592 8.75588 23.1921 8.62122C23.1249 8.48678 22.9981 8.39178 22.8499 8.3657L20.8697 8.01497C20.6116 7.97001 20.3648 8.14156 20.3192 8.40006C20.2734 8.65834 20.4458 8.90475 20.7041 8.95079L21.2844 9.05363L17.2366 11.108C17.0027 11.2268 16.9094 11.5126 17.0281 11.7465L17.0281 11.7465Z"
                                    fill="url(#paint3_linear_5422_29197)" />
                                <path
                                    d="M12.1665 14.5177C12.092 14.2662 11.8278 14.1232 11.5761 14.1972L6.3123 15.7561L6.67068 15.2828C6.82887 15.0737 6.78773 14.7757 6.57865 14.6173C6.36977 14.4589 6.07184 14.5005 5.91321 14.7094L4.68223 16.3352C4.59168 16.4545 4.56305 16.6098 4.60462 16.7537C4.64639 16.8977 4.75348 17.0137 4.89386 17.0663L6.78028 17.775C6.83542 17.7956 6.89182 17.8055 6.94738 17.8055C7.13971 17.8053 7.3206 17.6879 7.39206 17.4972C7.4843 17.2517 7.36004 16.9779 7.11448 16.8856L6.55382 16.6751L11.8458 15.1078C12.0973 15.0338 12.2409 14.7694 12.1665 14.5177Z"
                                    fill="url(#paint4_linear_5422_29197)" />
                                <path
                                    d="M23.8484 21.8142C23.8658 22.0646 24.0745 22.2563 24.3217 22.2563C24.3328 22.2563 24.3438 22.2559 24.355 22.2552L27.187 22.0589C27.3397 22.0483 27.478 21.9649 27.5583 21.8345C27.6387 21.7043 27.6514 21.5434 27.5927 21.4021L26.5402 18.8766C26.4391 18.6347 26.1613 18.5193 25.9189 18.6211C25.6768 18.722 25.5623 19 25.6632 19.2422L26.1475 20.4046L18.0611 15.3936C17.8381 15.2553 17.5452 15.3242 17.4072 15.5471C17.2691 15.7702 17.3378 16.0628 17.5609 16.2011L25.6495 21.2127L24.29 21.3071C24.0281 21.3253 23.8307 21.5522 23.8489 21.8141L23.8484 21.8142Z"
                                    fill="url(#paint5_linear_5422_29197)" />
                                <path
                                    d="M10.9678 9.19275C11.226 9.14695 11.3984 8.90054 11.3526 8.64224C11.307 8.38396 11.0604 8.21219 10.8021 8.25715L8.82194 8.60788C8.67392 8.63418 8.54691 8.72897 8.47968 8.8634C8.41246 8.99785 8.4131 9.15625 8.48117 9.29048L9.40723 11.1163C9.49099 11.2815 9.65788 11.3765 9.83112 11.3765C9.90343 11.3765 9.9768 11.3599 10.0457 11.3251C10.2796 11.2064 10.3731 10.9203 10.2544 10.6866L9.98571 10.1571L12.5501 11.4585C12.619 11.4935 12.6924 11.5101 12.7647 11.5101C12.9377 11.5101 13.1048 11.4151 13.1886 11.2501C13.3071 11.016 13.2138 10.7303 12.9799 10.6116L10.3869 9.29558L10.9678 9.19275Z"
                                    fill="url(#paint6_linear_5422_29197)" />
                                <path
                                    d="M15.0406 16.1379C16.0882 16.1379 16.9406 15.2854 16.9406 14.2379C16.9406 13.1903 16.0882 12.3379 15.0406 12.3379C13.9931 12.3379 13.1406 13.1903 13.1406 14.2379C13.1406 15.2854 13.9931 16.1379 15.0406 16.1379ZM15.0406 13.2879C15.5644 13.2879 15.9906 13.7139 15.9906 14.2379C15.9906 14.7619 15.5644 15.1879 15.0406 15.1879C14.5169 15.1879 14.0906 14.7619 14.0906 14.2379C14.0906 13.7139 14.5169 13.2879 15.0406 13.2879Z"
                                    fill="url(#paint7_linear_5422_29197)" />
                                <path
                                    d="M16.4672 2.12422C16.4672 1.33729 15.8291 0.699219 15.0422 0.699219C14.2553 0.699219 13.6172 1.33729 13.6172 2.12422C13.6172 2.91114 14.2553 3.54922 15.0422 3.54922C15.8291 3.54922 16.4672 2.91114 16.4672 2.12422ZM14.5672 2.12422C14.5672 1.86233 14.7803 1.64922 15.0422 1.64922C15.3041 1.64922 15.5172 1.86233 15.5172 2.12422C15.5172 2.3861 15.3041 2.59922 15.0422 2.59922C14.7803 2.59922 14.5672 2.3861 14.5672 2.12422Z"
                                    fill="url(#paint8_linear_5422_29197)" />
                                <path
                                    d="M9.81563 26.1117C10.6026 26.1117 11.2406 25.4736 11.2406 24.6867C11.2406 23.8998 10.6026 23.2617 9.81563 23.2617C9.0287 23.2617 8.39062 23.8998 8.39062 24.6867C8.39062 25.4736 9.0287 26.1117 9.81563 26.1117ZM9.81563 24.2117C10.0775 24.2117 10.2906 24.4248 10.2906 24.6867C10.2906 24.9486 10.0775 25.1617 9.81563 25.1617C9.55374 25.1617 9.34063 24.9486 9.34063 24.6867C9.34063 24.4248 9.55374 24.2117 9.81563 24.2117Z"
                                    fill="url(#paint9_linear_5422_29197)" />
                                <path
                                    d="M19.3156 27.2992C20.1026 27.2992 20.7406 26.6611 20.7406 25.8742C20.7406 25.0873 20.1026 24.4492 19.3156 24.4492C18.5287 24.4492 17.8906 25.0873 17.8906 25.8742C17.8906 26.6611 18.5287 27.2992 19.3156 27.2992ZM19.3156 25.3992C19.5775 25.3992 19.7906 25.6123 19.7906 25.8742C19.7906 26.1361 19.5775 26.3492 19.3156 26.3492C19.0537 26.3492 18.8406 26.1361 18.8406 25.8742C18.8406 25.6123 19.0537 25.3992 19.3156 25.3992Z"
                                    fill="url(#paint10_linear_5422_29197)" />
                                <path
                                    d="M2.21406 19.0648C3.00099 19.0648 3.63906 18.4268 3.63906 17.6398C3.63906 16.8529 3.00099 16.2148 2.21406 16.2148C1.42714 16.2148 0.789062 16.8529 0.789062 17.6398C0.789062 18.4268 1.42714 19.0648 2.21406 19.0648ZM2.21406 17.1648C2.47595 17.1648 2.68906 17.378 2.68906 17.6398C2.68906 17.9017 2.47595 18.1148 2.21406 18.1148C1.95218 18.1148 1.73906 17.9017 1.73906 17.6398C1.73906 17.378 1.95218 17.1648 2.21406 17.1648Z"
                                    fill="url(#paint11_linear_5422_29197)" />
                                <path
                                    d="M5.0625 7.58711C5.0625 8.37404 5.70057 9.01211 6.4875 9.01211C7.27443 9.01211 7.9125 8.37404 7.9125 7.58711C7.9125 6.80018 7.27443 6.16211 6.4875 6.16211C5.70057 6.16211 5.0625 6.80018 5.0625 7.58711ZM6.9625 7.58711C6.9625 7.84899 6.74939 8.06211 6.4875 8.06211C6.22561 8.06211 6.0125 7.84899 6.0125 7.58711C6.0125 7.32522 6.22561 7.11211 6.4875 7.11211C6.74939 7.11211 6.9625 7.32522 6.9625 7.58711Z"
                                    fill="url(#paint12_linear_5422_29197)" />
                                <path
                                    d="M26.9125 7.58711C26.9125 6.80018 26.2744 6.16211 25.4875 6.16211C24.7006 6.16211 24.0625 6.80018 24.0625 7.58711C24.0625 8.37404 24.7006 9.01211 25.4875 9.01211C26.2744 9.01211 26.9125 8.37404 26.9125 7.58711ZM25.0125 7.58711C25.0125 7.32522 25.2256 7.11211 25.4875 7.11211C25.7494 7.11211 25.9625 7.32522 25.9625 7.58711C25.9625 7.84899 25.7494 8.06211 25.4875 8.06211C25.2256 8.06211 25.0125 7.84899 25.0125 7.58711Z"
                                    fill="url(#paint13_linear_5422_29197)" />
                                <path
                                    d="M29.7609 21.3613C28.974 21.3613 28.3359 21.9994 28.3359 22.7863C28.3359 23.5733 28.974 24.2113 29.7609 24.2113C30.5479 24.2113 31.1859 23.5733 31.1859 22.7863C31.1859 21.9994 30.5479 21.3613 29.7609 21.3613ZM29.7609 23.2613C29.4991 23.2613 29.2859 23.0482 29.2859 22.7863C29.2859 22.5244 29.4991 22.3113 29.7609 22.3113C30.0228 22.3113 30.2359 22.5244 30.2359 22.7863C30.2359 23.0482 30.0228 23.2613 29.7609 23.2613Z"
                                    fill="url(#paint14_linear_5422_29197)" />
                                <defs>
                                    <linearGradient id="paint0_linear_5422_29197" x1="15.9643" y1="4.41016" x2="15.8963"
                                        y2="12.9383" gradientUnits="userSpaceOnUse">
                                        <stop stop-color="#005CAA" />
                                        <stop offset="1" stop-color="#64B0F1" />
                                    </linearGradient>
                                    <linearGradient id="paint1_linear_5422_29197" x1="12.761" y1="17.502" x2="12.7258"
                                        y2="23.643" gradientUnits="userSpaceOnUse">
                                        <stop stop-color="#005CAA" />
                                        <stop offset="1" stop-color="#64B0F1" />
                                    </linearGradient>
                                    <linearGradient id="paint2_linear_5422_29197" x1="18.1628" y1="17.0625" x2="18.1076"
                                        y2="25.3466" gradientUnits="userSpaceOnUse">
                                        <stop stop-color="#005CAA" />
                                        <stop offset="1" stop-color="#64B0F1" />
                                    </linearGradient>
                                    <linearGradient id="paint3_linear_5422_29197" x1="21.8581" y1="8.00781" x2="21.8464"
                                        y2="12.8634" gradientUnits="userSpaceOnUse">
                                        <stop stop-color="#005CAA" />
                                        <stop offset="1" stop-color="#64B0F1" />
                                    </linearGradient>
                                    <linearGradient id="paint4_linear_5422_29197" x1="10.5073" y1="14.1777" x2="10.4993"
                                        y2="18.583" gradientUnits="userSpaceOnUse">
                                        <stop stop-color="#005CAA" />
                                        <stop offset="1" stop-color="#64B0F1" />
                                    </linearGradient>
                                    <linearGradient id="paint5_linear_5422_29197" x1="25.3555" y1="15.3223" x2="25.3341"
                                        y2="23.7423" gradientUnits="userSpaceOnUse">
                                        <stop stop-color="#005CAA" />
                                        <stop offset="1" stop-color="#64B0F1" />
                                    </linearGradient>
                                    <linearGradient id="paint6_linear_5422_29197" x1="12.1774" y1="8.25" x2="12.1673"
                                        y2="12.2087" gradientUnits="userSpaceOnUse">
                                        <stop stop-color="#005CAA" />
                                        <stop offset="1" stop-color="#64B0F1" />
                                    </linearGradient>
                                    <linearGradient id="paint7_linear_5422_29197" x1="16.1012" y1="12.3379" x2="16.0838"
                                        y2="16.9522" gradientUnits="userSpaceOnUse">
                                        <stop stop-color="#005CAA" />
                                        <stop offset="1" stop-color="#64B0F1" />
                                    </linearGradient>
                                    <linearGradient id="paint8_linear_5422_29197" x1="15.8376" y1="0.699219"
                                        x2="15.8246" y2="4.15996" gradientUnits="userSpaceOnUse">
                                        <stop stop-color="#005CAA" />
                                        <stop offset="1" stop-color="#64B0F1" />
                                    </linearGradient>
                                    <linearGradient id="paint9_linear_5422_29197" x1="10.6111" y1="23.2617" x2="10.598"
                                        y2="26.7225" gradientUnits="userSpaceOnUse">
                                        <stop stop-color="#005CAA" />
                                        <stop offset="1" stop-color="#64B0F1" />
                                    </linearGradient>
                                    <linearGradient id="paint10_linear_5422_29197" x1="20.1111" y1="24.4492" x2="20.098"
                                        y2="27.91" gradientUnits="userSpaceOnUse">
                                        <stop stop-color="#005CAA" />
                                        <stop offset="1" stop-color="#64B0F1" />
                                    </linearGradient>
                                    <linearGradient id="paint11_linear_5422_29197" x1="3.00952" y1="16.2148"
                                        x2="2.99647" y2="19.6756" gradientUnits="userSpaceOnUse">
                                        <stop stop-color="#005CAA" />
                                        <stop offset="1" stop-color="#64B0F1" />
                                    </linearGradient>
                                    <linearGradient id="paint12_linear_5422_29197" x1="7.28296" y1="6.16211" x2="7.2699"
                                        y2="9.62285" gradientUnits="userSpaceOnUse">
                                        <stop stop-color="#005CAA" />
                                        <stop offset="1" stop-color="#64B0F1" />
                                    </linearGradient>
                                    <linearGradient id="paint13_linear_5422_29197" x1="26.283" y1="6.16211" x2="26.2699"
                                        y2="9.62285" gradientUnits="userSpaceOnUse">
                                        <stop stop-color="#005CAA" />
                                        <stop offset="1" stop-color="#64B0F1" />
                                    </linearGradient>
                                    <linearGradient id="paint14_linear_5422_29197" x1="30.5564" y1="21.3613"
                                        x2="30.5433" y2="24.8221" gradientUnits="userSpaceOnUse">
                                        <stop stop-color="#005CAA" />
                                        <stop offset="1" stop-color="#64B0F1" />
                                    </linearGradient>
                                </defs>
                            </svg>