<svg width="39" height="39" viewBox="0 0 39 39" fill="none" xmlns="http://www.w3.org/2000/svg">
<g clip-path="url(#clip0_3369_11823)">
<path d="M12.8965 34.1387C12.8965 34.2863 12.9551 34.4279 13.0595 34.5323C13.1639 34.6367 13.3055 34.6953 13.4531 34.6953H25.2539C25.4015 34.6953 25.5431 34.6367 25.6475 34.5323C25.7519 34.4279 25.8105 34.2863 25.8105 34.1387C25.8105 33.991 25.7519 33.8495 25.6475 33.7451C25.5431 33.6407 25.4015 33.582 25.2539 33.582H13.4531C13.3055 33.582 13.1639 33.6407 13.0595 33.7451C12.9551 33.8495 12.8965 33.991 12.8965 34.1387ZM24.5712 22.8574H21.9736C21.826 22.8574 21.6844 22.9161 21.58 23.0205C21.4756 23.1248 21.4169 23.2664 21.4169 23.4141C21.4169 23.5617 21.4756 23.7033 21.58 23.8077C21.6844 23.9121 21.826 23.9707 21.9736 23.9707H24.5712C24.7189 23.9707 24.8605 23.9121 24.9648 23.8077C25.0692 23.7033 25.1279 23.5617 25.1279 23.4141C25.1279 23.2664 25.0692 23.1248 24.9648 23.0205C24.8605 22.9161 24.7189 22.8574 24.5712 22.8574ZM29.3359 22.8574H26.7383C26.5907 22.8574 26.4491 22.9161 26.3447 23.0205C26.2403 23.1248 26.1816 23.2664 26.1816 23.4141C26.1816 23.5617 26.2403 23.7033 26.3447 23.8077C26.4491 23.9121 26.5907 23.9707 26.7383 23.9707H29.3359C29.4836 23.9707 29.6252 23.9121 29.7295 23.8077C29.8339 23.7033 29.8926 23.5617 29.8926 23.4141C29.8926 23.2664 29.8339 23.1248 29.7295 23.0205C29.6252 22.9161 29.4836 22.8574 29.3359 22.8574ZM34.3135 21.086C33.9783 21.0857 33.6496 21.1788 33.3645 21.355C33.0897 21.1859 32.7747 21.0931 32.4521 21.0863C32.1295 21.0794 31.811 21.1588 31.5293 21.3162C31.2476 21.4735 31.013 21.7032 30.8497 21.9815C30.6863 22.2598 30.6002 22.5766 30.6002 22.8993C30.6002 23.222 30.6863 23.5388 30.8496 23.8171C31.0129 24.0954 31.2474 24.3251 31.5291 24.4825C31.8108 24.6399 32.1294 24.7193 32.452 24.7125C32.7746 24.7057 33.0895 24.613 33.3643 24.4438C33.6031 24.5906 33.8726 24.68 34.1517 24.7051C34.4308 24.7302 34.7119 24.6902 34.973 24.5883C35.2341 24.4864 35.468 24.3254 35.6563 24.118C35.8447 23.9105 35.9824 23.6621 36.0586 23.3925C36.1349 23.1228 36.1476 22.8391 36.0957 22.5637C36.0439 22.2883 35.9289 22.0287 35.7598 21.8052C35.5907 21.5817 35.3721 21.4005 35.1212 21.2757C34.8702 21.1509 34.5937 21.086 34.3135 21.086ZM32.6275 23.566C32.5225 23.5998 32.411 23.6082 32.3021 23.5907C32.1931 23.5732 32.0899 23.5302 32.0007 23.4652C31.9116 23.4002 31.839 23.3151 31.789 23.2167C31.739 23.1184 31.7129 23.0096 31.713 22.8993C31.713 22.789 31.739 22.6802 31.7891 22.5819C31.8391 22.4835 31.9116 22.3984 32.0008 22.3334C32.0899 22.2684 32.1932 22.2255 32.3021 22.208C32.4111 22.1905 32.5226 22.1989 32.6276 22.2327C32.4576 22.6609 32.4576 23.1378 32.6276 23.566H32.6275ZM34.3135 23.5996C34.175 23.5996 34.0397 23.5585 33.9246 23.4816C33.8094 23.4047 33.7197 23.2953 33.6667 23.1674C33.6138 23.0395 33.5999 22.8987 33.6269 22.7629C33.6539 22.6271 33.7206 22.5024 33.8185 22.4045C33.9164 22.3065 34.0412 22.2399 34.177 22.2129C34.3128 22.1858 34.4535 22.1997 34.5815 22.2527C34.7094 22.3057 34.8187 22.3954 34.8957 22.5105C34.9726 22.6256 35.0137 22.761 35.0137 22.8994C35.0135 23.0851 34.9396 23.263 34.8084 23.3943C34.6771 23.5256 34.4991 23.5994 34.3135 23.5996ZM36.3125 11.1309H30.7461V2.81836C30.7453 2.08046 30.4518 1.37302 29.93 0.851249C29.4082 0.329476 28.7008 0.0359813 27.9629 0.0351563L10.7441 0.0351562C10.0062 0.0359813 9.2988 0.329476 8.77703 0.851249C8.25526 1.37302 7.96176 2.08046 7.96094 2.81836V35.252C7.96176 35.9899 8.25526 36.6973 8.77703 37.2191C9.2988 37.7408 10.0062 38.0343 10.7441 38.0352H27.9629C28.7008 38.0343 29.4082 37.7408 29.93 37.2191C30.4518 36.6973 30.7453 35.9899 30.7461 35.252V26.9395H36.3125C36.8536 26.9388 37.3724 26.7236 37.755 26.341C38.1377 25.9583 38.3529 25.4396 38.3535 24.8984V13.1719C38.3529 12.6308 38.1377 12.112 37.755 11.7293C37.3724 11.3467 36.8536 11.1315 36.3125 11.1309ZM23.7595 1.14844L23.3567 1.95408C23.3107 2.04676 23.2397 2.1247 23.1518 2.17908C23.0638 2.23346 22.9623 2.26209 22.8589 2.26172H15.8482C15.7447 2.26206 15.6432 2.23341 15.5553 2.17902C15.4673 2.12464 15.3963 2.04669 15.3503 1.95401L14.9475 1.14844H23.7595ZM29.6328 35.252C29.6323 35.6947 29.4562 36.1191 29.1431 36.4322C28.8301 36.7453 28.4056 36.9214 27.9629 36.9219H10.7441C10.3014 36.9214 9.87693 36.7453 9.56387 36.4322C9.25081 36.1192 9.07471 35.6947 9.07422 35.252V2.81836C9.07471 2.37562 9.25081 1.95115 9.56387 1.63809C9.87693 1.32502 10.3014 1.14893 10.7441 1.14844H13.7029L14.3546 2.45187C14.4924 2.72993 14.7054 2.96381 14.9694 3.12697C15.2334 3.29013 15.5379 3.37606 15.8482 3.375H22.8589C23.1692 3.37607 23.4737 3.29015 23.7376 3.12698C24.0016 2.96382 24.2146 2.72994 24.3524 2.45187L25.0041 1.14844H27.9629C28.4056 1.14895 28.8301 1.32505 29.1431 1.63811C29.4562 1.95117 29.6323 2.37563 29.6328 2.81836V11.1309H19.9102V10.2598C19.9102 10.1121 19.8515 9.97054 19.7471 9.86615C19.6427 9.76176 19.5011 9.70311 19.3535 9.70311C19.2059 9.70311 19.0643 9.76176 18.9599 9.86615C18.8555 9.97054 18.7969 10.1121 18.7969 10.2598V27.8106C18.7969 27.9582 18.8555 28.0998 18.9599 28.2042C19.0643 28.3086 19.2059 28.3672 19.3535 28.3672C19.5011 28.3672 19.6427 28.3086 19.7471 28.2042C19.8515 28.0998 19.9102 27.9582 19.9102 27.8106V26.9395H29.6328V35.252ZM19.9102 15.584H22.3223V17.291H19.9102V15.584ZM37.2402 24.8984C37.24 25.1444 37.1421 25.3802 36.9682 25.5541C36.7943 25.7281 36.5585 25.8259 36.3125 25.8262H19.9102V18.4043H22.3594C22.6447 18.404 22.9182 18.2905 23.12 18.0887C23.3217 17.887 23.4352 17.6134 23.4355 17.3281V15.5469C23.4352 15.2616 23.3217 14.988 23.12 14.7863C22.9182 14.5845 22.6447 14.471 22.3594 14.4707H19.9102V12.2441H36.3125C36.5585 12.2444 36.7943 12.3422 36.9682 12.5162C37.1421 12.6901 37.24 12.9259 37.2402 13.1719V24.8984ZM35.0137 16.8828V15.3984C35.0134 15.1525 34.9156 14.9167 34.7416 14.7427C34.5677 14.5688 34.3319 14.471 34.0859 14.4707H30.5977C30.3517 14.471 30.1159 14.5688 29.942 14.7427C29.768 14.9167 29.6702 15.1525 29.6699 15.3984V16.8828C29.6702 17.1288 29.768 17.3646 29.942 17.5385C30.1159 17.7124 30.3517 17.8103 30.5977 17.8105H34.0859C34.3319 17.8103 34.5677 17.7124 34.7416 17.5385C34.9156 17.3646 35.0134 17.1288 35.0137 16.8828ZM33.9004 16.6973H30.7832V15.584H33.9004V16.6973Z" fill="url(#paint0_linear_3369_11823)"/>
<path d="M12.8965 34.1387C12.8965 34.2863 12.9551 34.4279 13.0595 34.5323C13.1639 34.6367 13.3055 34.6953 13.4531 34.6953H25.2539C25.4015 34.6953 25.5431 34.6367 25.6475 34.5323C25.7519 34.4279 25.8105 34.2863 25.8105 34.1387C25.8105 33.991 25.7519 33.8495 25.6475 33.7451C25.5431 33.6407 25.4015 33.582 25.2539 33.582H13.4531C13.3055 33.582 13.1639 33.6407 13.0595 33.7451C12.9551 33.8495 12.8965 33.991 12.8965 34.1387ZM24.5712 22.8574H21.9736C21.826 22.8574 21.6844 22.9161 21.58 23.0205C21.4756 23.1248 21.4169 23.2664 21.4169 23.4141C21.4169 23.5617 21.4756 23.7033 21.58 23.8077C21.6844 23.9121 21.826 23.9707 21.9736 23.9707H24.5712C24.7189 23.9707 24.8605 23.9121 24.9648 23.8077C25.0692 23.7033 25.1279 23.5617 25.1279 23.4141C25.1279 23.2664 25.0692 23.1248 24.9648 23.0205C24.8605 22.9161 24.7189 22.8574 24.5712 22.8574ZM29.3359 22.8574H26.7383C26.5907 22.8574 26.4491 22.9161 26.3447 23.0205C26.2403 23.1248 26.1816 23.2664 26.1816 23.4141C26.1816 23.5617 26.2403 23.7033 26.3447 23.8077C26.4491 23.9121 26.5907 23.9707 26.7383 23.9707H29.3359C29.4836 23.9707 29.6252 23.9121 29.7295 23.8077C29.8339 23.7033 29.8926 23.5617 29.8926 23.4141C29.8926 23.2664 29.8339 23.1248 29.7295 23.0205C29.6252 22.9161 29.4836 22.8574 29.3359 22.8574ZM34.3135 21.086C33.9783 21.0857 33.6496 21.1788 33.3645 21.355C33.0897 21.1859 32.7747 21.0931 32.4521 21.0863C32.1295 21.0794 31.811 21.1588 31.5293 21.3162C31.2476 21.4735 31.013 21.7032 30.8497 21.9815C30.6863 22.2598 30.6002 22.5766 30.6002 22.8993C30.6002 23.222 30.6863 23.5388 30.8496 23.8171C31.0129 24.0954 31.2474 24.3251 31.5291 24.4825C31.8108 24.6399 32.1294 24.7193 32.452 24.7125C32.7746 24.7057 33.0895 24.613 33.3643 24.4438C33.6031 24.5906 33.8726 24.68 34.1517 24.7051C34.4308 24.7302 34.7119 24.6902 34.973 24.5883C35.2341 24.4864 35.468 24.3254 35.6563 24.118C35.8447 23.9105 35.9824 23.6621 36.0586 23.3925C36.1349 23.1228 36.1476 22.8391 36.0957 22.5637C36.0439 22.2883 35.9289 22.0287 35.7598 21.8052C35.5907 21.5817 35.3721 21.4005 35.1212 21.2757C34.8702 21.1509 34.5937 21.086 34.3135 21.086ZM32.6275 23.566C32.5225 23.5998 32.411 23.6082 32.3021 23.5907C32.1931 23.5732 32.0899 23.5302 32.0007 23.4652C31.9116 23.4002 31.839 23.3151 31.789 23.2167C31.739 23.1184 31.7129 23.0096 31.713 22.8993C31.713 22.789 31.739 22.6802 31.7891 22.5819C31.8391 22.4835 31.9116 22.3984 32.0008 22.3334C32.0899 22.2684 32.1932 22.2255 32.3021 22.208C32.4111 22.1905 32.5226 22.1989 32.6276 22.2327C32.4576 22.6609 32.4576 23.1378 32.6276 23.566H32.6275ZM34.3135 23.5996C34.175 23.5996 34.0397 23.5585 33.9246 23.4816C33.8094 23.4047 33.7197 23.2953 33.6667 23.1674C33.6138 23.0395 33.5999 22.8987 33.6269 22.7629C33.6539 22.6271 33.7206 22.5024 33.8185 22.4045C33.9164 22.3065 34.0412 22.2399 34.177 22.2129C34.3128 22.1858 34.4535 22.1997 34.5815 22.2527C34.7094 22.3057 34.8187 22.3954 34.8957 22.5105C34.9726 22.6256 35.0137 22.761 35.0137 22.8994C35.0135 23.0851 34.9396 23.263 34.8084 23.3943C34.6771 23.5256 34.4991 23.5994 34.3135 23.5996ZM36.3125 11.1309H30.7461V2.81836C30.7453 2.08046 30.4518 1.37302 29.93 0.851249C29.4082 0.329476 28.7008 0.0359813 27.9629 0.0351563L10.7441 0.0351562C10.0062 0.0359813 9.2988 0.329476 8.77703 0.851249C8.25526 1.37302 7.96176 2.08046 7.96094 2.81836V35.252C7.96176 35.9899 8.25526 36.6973 8.77703 37.2191C9.2988 37.7408 10.0062 38.0343 10.7441 38.0352H27.9629C28.7008 38.0343 29.4082 37.7408 29.93 37.2191C30.4518 36.6973 30.7453 35.9899 30.7461 35.252V26.9395H36.3125C36.8536 26.9388 37.3724 26.7236 37.755 26.341C38.1377 25.9583 38.3529 25.4396 38.3535 24.8984V13.1719C38.3529 12.6308 38.1377 12.112 37.755 11.7293C37.3724 11.3467 36.8536 11.1315 36.3125 11.1309ZM23.7595 1.14844L23.3567 1.95408C23.3107 2.04676 23.2397 2.1247 23.1518 2.17908C23.0638 2.23346 22.9623 2.26209 22.8589 2.26172H15.8482C15.7447 2.26206 15.6432 2.23341 15.5553 2.17902C15.4673 2.12464 15.3963 2.04669 15.3503 1.95401L14.9475 1.14844H23.7595ZM29.6328 35.252C29.6323 35.6947 29.4562 36.1191 29.1431 36.4322C28.8301 36.7453 28.4056 36.9214 27.9629 36.9219H10.7441C10.3014 36.9214 9.87693 36.7453 9.56387 36.4322C9.25081 36.1192 9.07471 35.6947 9.07422 35.252V2.81836C9.07471 2.37562 9.25081 1.95115 9.56387 1.63809C9.87693 1.32502 10.3014 1.14893 10.7441 1.14844H13.7029L14.3546 2.45187C14.4924 2.72993 14.7054 2.96381 14.9694 3.12697C15.2334 3.29013 15.5379 3.37606 15.8482 3.375H22.8589C23.1692 3.37607 23.4737 3.29015 23.7376 3.12698C24.0016 2.96382 24.2146 2.72994 24.3524 2.45187L25.0041 1.14844H27.9629C28.4056 1.14895 28.8301 1.32505 29.1431 1.63811C29.4562 1.95117 29.6323 2.37563 29.6328 2.81836V11.1309H19.9102V10.2598C19.9102 10.1121 19.8515 9.97054 19.7471 9.86615C19.6427 9.76176 19.5011 9.70311 19.3535 9.70311C19.2059 9.70311 19.0643 9.76176 18.9599 9.86615C18.8555 9.97054 18.7969 10.1121 18.7969 10.2598V27.8106C18.7969 27.9582 18.8555 28.0998 18.9599 28.2042C19.0643 28.3086 19.2059 28.3672 19.3535 28.3672C19.5011 28.3672 19.6427 28.3086 19.7471 28.2042C19.8515 28.0998 19.9102 27.9582 19.9102 27.8106V26.9395H29.6328V35.252ZM19.9102 15.584H22.3223V17.291H19.9102V15.584ZM37.2402 24.8984C37.24 25.1444 37.1421 25.3802 36.9682 25.5541C36.7943 25.7281 36.5585 25.8259 36.3125 25.8262H19.9102V18.4043H22.3594C22.6447 18.404 22.9182 18.2905 23.12 18.0887C23.3217 17.887 23.4352 17.6134 23.4355 17.3281V15.5469C23.4352 15.2616 23.3217 14.988 23.12 14.7863C22.9182 14.5845 22.6447 14.471 22.3594 14.4707H19.9102V12.2441H36.3125C36.5585 12.2444 36.7943 12.3422 36.9682 12.5162C37.1421 12.6901 37.24 12.9259 37.2402 13.1719V24.8984ZM35.0137 16.8828V15.3984C35.0134 15.1525 34.9156 14.9167 34.7416 14.7427C34.5677 14.5688 34.3319 14.471 34.0859 14.4707H30.5977C30.3517 14.471 30.1159 14.5688 29.942 14.7427C29.768 14.9167 29.6702 15.1525 29.6699 15.3984V16.8828C29.6702 17.1288 29.768 17.3646 29.942 17.5385C30.1159 17.7124 30.3517 17.8103 30.5977 17.8105H34.0859C34.3319 17.8103 34.5677 17.7124 34.7416 17.5385C34.9156 17.3646 35.0134 17.1288 35.0137 16.8828ZM33.9004 16.6973H30.7832V15.584H33.9004V16.6973Z" fill="black" fill-opacity="0.2"/>
</g>
<defs>
<linearGradient id="paint0_linear_3369_11823" x1="23.1572" y1="0.0351562" x2="23.1572" y2="38.0352" gradientUnits="userSpaceOnUse">
<stop stop-color="#FF0F0F"/>
<stop offset="1" stop-color="#FF4849"/>
</linearGradient>
<clipPath id="clip0_3369_11823">
<rect width="38" height="38" fill="white" transform="translate(0.351562 0.0351562)"/>
</clipPath>
</defs>
</svg>