<svg width="38" height="38" viewBox="0 0 52 51" fill="none" xmlns="http://www.w3.org/2000/svg">
<path d="M46.852 11.3417L34.7179 1.01986C34.0372 0.437712 33.1785 0.104882 32.2833 0.0762355C31.3881 0.0475889 30.5098 0.324836 29.7933 0.862271L24.5339 4.80192L21.2246 1.49261C20.4865 0.758851 19.488 0.346993 18.4472 0.346993C17.4064 0.346993 16.4079 0.758851 15.6697 1.49261L5.82059 11.4402C4.41391 11.6343 3.12413 12.3283 2.18727 13.3954C1.2504 14.4625 0.729098 15.8312 0.71875 17.2512V44.8287C0.71875 46.396 1.34135 47.8991 2.44959 49.0074C3.55783 50.1156 5.06093 50.7382 6.62822 50.7382H46.0247C47.592 50.7382 49.0951 50.1156 50.2033 49.0074C51.3116 47.8991 51.9342 46.396 51.9342 44.8287V17.2512C51.9483 15.8173 51.4405 14.4271 50.5055 13.3398C49.5704 12.2526 48.2719 11.5424 46.852 11.3417ZM47.9945 34.9796H44.0549C43.01 34.9796 42.0079 34.5645 41.2691 33.8257C40.5303 33.0869 40.1152 32.0848 40.1152 31.04C40.1152 29.9951 40.5303 28.993 41.2691 28.2542C42.0079 27.5154 43.01 27.1003 44.0549 27.1003H47.9945V34.9796ZM32.2359 4.01399L40.7062 11.3417H31.0737L27.3508 7.61877L32.2359 4.01399ZM18.4472 4.27007L25.5188 11.3417H11.3755L18.4472 4.27007ZM46.0247 46.7986H6.62822C6.10579 46.7986 5.60476 46.591 5.23535 46.2216C4.86593 45.8522 4.6584 45.3512 4.6584 44.8287V17.2512C4.6584 16.7288 4.86593 16.2277 5.23535 15.8583C5.60476 15.4889 6.10579 15.2814 6.62822 15.2814H46.0247C46.5471 15.2814 47.0482 15.4889 47.4176 15.8583C47.787 16.2277 47.9945 16.7288 47.9945 17.2512V23.1607H44.0549C41.9651 23.1607 39.961 23.9908 38.4834 25.4685C37.0057 26.9461 36.1756 28.9503 36.1756 31.04C36.1756 33.1297 37.0057 35.1338 38.4834 36.6115C39.961 38.0891 41.9651 38.9193 44.0549 38.9193H47.9945V44.8287C47.9945 45.3512 47.787 45.8522 47.4176 46.2216C47.0482 46.591 46.5471 46.7986 46.0247 46.7986Z" fill="url(#paint0_linear_3451_13350)"/>
<path d="M46.852 11.3417L34.7179 1.01986C34.0372 0.437712 33.1785 0.104882 32.2833 0.0762355C31.3881 0.0475889 30.5098 0.324836 29.7933 0.862271L24.5339 4.80192L21.2246 1.49261C20.4865 0.758851 19.488 0.346993 18.4472 0.346993C17.4064 0.346993 16.4079 0.758851 15.6697 1.49261L5.82059 11.4402C4.41391 11.6343 3.12413 12.3283 2.18727 13.3954C1.2504 14.4625 0.729098 15.8312 0.71875 17.2512V44.8287C0.71875 46.396 1.34135 47.8991 2.44959 49.0074C3.55783 50.1156 5.06093 50.7382 6.62822 50.7382H46.0247C47.592 50.7382 49.0951 50.1156 50.2033 49.0074C51.3116 47.8991 51.9342 46.396 51.9342 44.8287V17.2512C51.9483 15.8173 51.4405 14.4271 50.5055 13.3398C49.5704 12.2526 48.2719 11.5424 46.852 11.3417ZM47.9945 34.9796H44.0549C43.01 34.9796 42.0079 34.5645 41.2691 33.8257C40.5303 33.0869 40.1152 32.0848 40.1152 31.04C40.1152 29.9951 40.5303 28.993 41.2691 28.2542C42.0079 27.5154 43.01 27.1003 44.0549 27.1003H47.9945V34.9796ZM32.2359 4.01399L40.7062 11.3417H31.0737L27.3508 7.61877L32.2359 4.01399ZM18.4472 4.27007L25.5188 11.3417H11.3755L18.4472 4.27007ZM46.0247 46.7986H6.62822C6.10579 46.7986 5.60476 46.591 5.23535 46.2216C4.86593 45.8522 4.6584 45.3512 4.6584 44.8287V17.2512C4.6584 16.7288 4.86593 16.2277 5.23535 15.8583C5.60476 15.4889 6.10579 15.2814 6.62822 15.2814H46.0247C46.5471 15.2814 47.0482 15.4889 47.4176 15.8583C47.787 16.2277 47.9945 16.7288 47.9945 17.2512V23.1607H44.0549C41.9651 23.1607 39.961 23.9908 38.4834 25.4685C37.0057 26.9461 36.1756 28.9503 36.1756 31.04C36.1756 33.1297 37.0057 35.1338 38.4834 36.6115C39.961 38.0891 41.9651 38.9193 44.0549 38.9193H47.9945V44.8287C47.9945 45.3512 47.787 45.8522 47.4176 46.2216C47.0482 46.591 46.5471 46.7986 46.0247 46.7986Z" fill="black" fill-opacity="0.2"/>
<path d="M42.6572 29.6413C42.2972 30.0188 42.0932 30.5183 42.0859 31.0399C42.0859 31.5623 42.2935 32.0633 42.6629 32.4328C43.0323 32.8022 43.5333 33.0097 44.0558 33.0097C44.5782 33.0097 45.0792 32.8022 45.4486 32.4328C45.8181 32.0633 46.0256 31.5623 46.0256 31.0399C46.0279 30.6486 45.9136 30.2656 45.6973 29.9395C45.481 29.6135 45.1725 29.3592 44.8112 29.2092C44.4498 29.0591 44.052 29.0201 43.6683 29.0971C43.2847 29.174 42.9327 29.3635 42.6572 29.6413Z" fill="url(#paint1_linear_3451_13350)"/>
<path d="M42.6572 29.6413C42.2972 30.0188 42.0932 30.5183 42.0859 31.0399C42.0859 31.5623 42.2935 32.0633 42.6629 32.4328C43.0323 32.8022 43.5333 33.0097 44.0558 33.0097C44.5782 33.0097 45.0792 32.8022 45.4486 32.4328C45.8181 32.0633 46.0256 31.5623 46.0256 31.0399C46.0279 30.6486 45.9136 30.2656 45.6973 29.9395C45.481 29.6135 45.1725 29.3592 44.8112 29.2092C44.4498 29.0591 44.052 29.0201 43.6683 29.0971C43.2847 29.174 42.9327 29.3635 42.6572 29.6413Z" fill="black" fill-opacity="0.2"/>
<defs>
<linearGradient id="paint0_linear_3451_13350" x1="26.3266" y1="0.0742187" x2="26.3266" y2="50.7382" gradientUnits="userSpaceOnUse">
<stop stop-color="#FF0F0F"/>
<stop offset="1" stop-color="#FF4849"/>
</linearGradient>
<linearGradient id="paint1_linear_3451_13350" x1="44.0558" y1="29.0586" x2="44.0558" y2="33.0097" gradientUnits="userSpaceOnUse">
<stop stop-color="#FF0F0F"/>
<stop offset="1" stop-color="#FF4849"/>
</linearGradient>
</defs>
</svg>