<svg width="38" height="38" viewBox="0 0 31 31" fill="none" xmlns="http://www.w3.org/2000/svg">
<path d="M6.01562 23.5137H5.51562V22.5137C5.51562 22.2378 5.29152 22.0137 5.01562 22.0137C4.73973 22.0137 4.51562 22.2378 4.51562 22.5137V23.5137H4.01562C3.73973 23.5137 3.51562 23.7378 3.51562 24.0137V27.0137C3.51562 27.2896 3.73973 27.5137 4.01562 27.5137H4.51562V28.0137C4.51562 28.2896 4.73973 28.5137 5.01562 28.5137C5.29152 28.5137 5.51562 28.2896 5.51562 28.0137V27.5137H6.01562C6.29152 27.5137 6.51562 27.2896 6.51562 27.0137V24.0137C6.51562 23.7378 6.29152 23.5137 6.01562 23.5137ZM5.51562 26.5137H4.51562V24.5137H5.51562V26.5137Z" fill="url(#paint0_linear_4105_33951)"/>
<path d="M11.0156 22.5137H10.5156V21.5137C10.5156 21.2378 10.2915 21.0137 10.0156 21.0137C9.73973 21.0137 9.51562 21.2378 9.51562 21.5137V22.5137H9.01562C8.73973 22.5137 8.51562 22.7378 8.51562 23.0137V25.5137C8.51562 25.7896 8.73973 26.0137 9.01562 26.0137H9.51562V26.5137C9.51562 26.7896 9.73973 27.0137 10.0156 27.0137C10.2915 27.0137 10.5156 26.7896 10.5156 26.5137V26.0137H11.0156C11.2915 26.0137 11.5156 25.7896 11.5156 25.5137V23.0137C11.5156 22.7378 11.2915 22.5137 11.0156 22.5137ZM10.5156 25.0137H9.51562V23.5137H10.5156V25.0137Z" fill="url(#paint1_linear_4105_33951)"/>
<path d="M16.0156 21.0137H15.5156V20.0137C15.5156 19.7378 15.2915 19.5137 15.0156 19.5137C14.7397 19.5137 14.5156 19.7378 14.5156 20.0137V21.0137H14.0156C13.7397 21.0137 13.5156 21.2378 13.5156 21.5137V25.5137C13.5156 25.7896 13.7397 26.0137 14.0156 26.0137H14.5156V26.5137C14.5156 26.7896 14.7397 27.0137 15.0156 27.0137C15.2915 27.0137 15.5156 26.7896 15.5156 26.5137V26.0137H16.0156C16.2915 26.0137 16.5156 25.7896 16.5156 25.5137V21.5137C16.5156 21.2378 16.2915 21.0137 16.0156 21.0137ZM15.5156 25.0137H14.5156V22.0137H15.5156V25.0137Z" fill="url(#paint2_linear_4105_33951)"/>
<path d="M21.0156 19.5137H20.5156V18.5137C20.5156 18.2378 20.2915 18.0137 20.0156 18.0137C19.7397 18.0137 19.5156 18.2378 19.5156 18.5137V19.5137H19.0156C18.7397 19.5137 18.5156 19.7378 18.5156 20.0137V24.0137C18.5156 24.2896 18.7397 24.5137 19.0156 24.5137H19.5156V25.0137C19.5156 25.2896 19.7397 25.5137 20.0156 25.5137C20.2915 25.5137 20.5156 25.2896 20.5156 25.0137V24.5137H21.0156C21.2915 24.5137 21.5156 24.2896 21.5156 24.0137V20.0137C21.5156 19.7378 21.2915 19.5137 21.0156 19.5137ZM20.5156 23.5137H19.5156V20.5137H20.5156V23.5137Z" fill="url(#paint3_linear_4105_33951)"/>
<path d="M26.0156 16.0137H25.5156V15.0137C25.5156 14.7378 25.2915 14.5137 25.0156 14.5137C24.7397 14.5137 24.5156 14.7378 24.5156 15.0137V16.0137H24.0156C23.7397 16.0137 23.5156 16.2378 23.5156 16.5137V20.5137C23.5156 20.7896 23.7397 21.0137 24.0156 21.0137H24.5156V21.5137C24.5156 21.7896 24.7397 22.0137 25.0156 22.0137C25.2915 22.0137 25.5156 21.7896 25.5156 21.5137V21.0137H26.0156C26.2915 21.0137 26.5156 20.7896 26.5156 20.5137V16.5137C26.5156 16.2378 26.2915 16.0137 26.0156 16.0137ZM25.5156 20.0137H24.5156V17.0137H25.5156V20.0137Z" fill="url(#paint4_linear_4105_33951)"/>
<path d="M4.19293 21.4984C4.22195 21.4984 4.25141 21.496 4.28088 21.4904C13.2992 19.8875 20.1352 16.7219 24.6203 12.0652L25.6647 13.1096C25.8078 13.2527 26.0216 13.2951 26.2098 13.2181C26.3969 13.1407 26.5183 12.9581 26.5183 12.7561V8.51367C26.5183 8.23778 26.2942 8.01367 26.0183 8.01367H21.7759C21.5739 8.01367 21.3913 8.13577 21.3138 8.32215C21.2364 8.5092 21.2792 8.72416 21.4223 8.86724L22.4993 9.94427C18.4768 14.1507 12.1736 17.0408 3.75648 18.5374C3.62589 18.5604 3.51005 18.6345 3.43393 18.7434C3.35804 18.8519 3.32835 18.9865 3.35135 19.1169L3.70135 21.0859C3.74443 21.3283 3.95536 21.4984 4.19287 21.4984L4.19293 21.4984ZM23.4969 10.3424L23.5623 10.2714C23.7443 10.0739 23.7378 9.76898 23.5483 9.5795L22.9833 9.01454H25.5188V11.55L24.9639 10.9951C24.8679 10.8987 24.7313 10.848 24.5958 10.8536C24.4599 10.8565 24.3257 10.9197 24.2338 11.0201C20.0003 15.6226 13.396 18.783 4.59833 20.4178L4.42288 19.4333C12.9989 17.8389 19.4149 14.7817 23.4972 10.3435L23.4969 10.3424Z" fill="url(#paint5_linear_4105_33951)"/>
<path d="M27.5156 0.0136719H2.51562C1.13705 0.0136719 0.015625 1.1351 0.015625 2.51367V27.5137C0.015625 28.8922 1.13705 30.0137 2.51562 30.0137H27.5156C28.8942 30.0137 30.0156 28.8922 30.0156 27.5137V2.51367C30.0156 1.1351 28.8942 0.0136719 27.5156 0.0136719ZM1.01562 2.51367C1.01562 1.68664 1.6886 1.01367 2.51562 1.01367H27.5156C28.3427 1.01367 29.0156 1.68664 29.0156 2.51367V6.01367H1.01562V2.51367ZM29.0156 27.5137C29.0156 28.3407 28.3427 29.0137 27.5156 29.0137H2.51562C1.6886 29.0137 1.01562 28.3407 1.01562 27.5137H2.01562C2.29152 27.5137 2.51562 27.2896 2.51562 27.0137C2.51562 26.7378 2.29152 26.5137 2.01562 26.5137H1.01562V24.5137H2.01562C2.29152 24.5137 2.51562 24.2896 2.51562 24.0137C2.51562 23.7378 2.29152 23.5137 2.01562 23.5137H1.01562V21.5137H2.01562C2.29152 21.5137 2.51562 21.2896 2.51562 21.0137C2.51562 20.7378 2.29152 20.5137 2.01562 20.5137H1.01562V18.5137H2.01562C2.29152 18.5137 2.51562 18.2896 2.51562 18.0137C2.51562 17.7378 2.29152 17.5137 2.01562 17.5137H1.01562V15.5137H2.01562C2.29152 15.5137 2.51562 15.2896 2.51562 15.0137C2.51562 14.7378 2.29152 14.5137 2.01562 14.5137H1.01562V12.5137H2.01562C2.29152 12.5137 2.51562 12.2896 2.51562 12.0137C2.51562 11.7378 2.29152 11.5137 2.01562 11.5137H1.01562V9.51367H2.01562C2.29152 9.51367 2.51562 9.28956 2.51562 9.01367C2.51562 8.73778 2.29152 8.51367 2.01562 8.51367H1.01562V7.01367H29.0156V27.5137Z" fill="url(#paint6_linear_4105_33951)"/>
<path d="M28.0156 3.51367C28.0156 4.06591 27.5679 4.51367 27.0156 4.51367C26.4634 4.51367 26.0156 4.06591 26.0156 3.51367C26.0156 2.96144 26.4634 2.51367 27.0156 2.51367C27.5679 2.51367 28.0156 2.96144 28.0156 3.51367Z" fill="url(#paint7_linear_4105_33951)"/>
<path d="M24.5156 3.51367C24.5156 4.06591 24.0679 4.51367 23.5156 4.51367C22.9634 4.51367 22.5156 4.06591 22.5156 3.51367C22.5156 2.96144 22.9634 2.51367 23.5156 2.51367C24.0679 2.51367 24.5156 2.96144 24.5156 3.51367Z" fill="url(#paint8_linear_4105_33951)"/>
<path d="M21.0156 3.51367C21.0156 4.06591 20.5679 4.51367 20.0156 4.51367C19.4634 4.51367 19.0156 4.06591 19.0156 3.51367C19.0156 2.96144 19.4634 2.51367 20.0156 2.51367C20.5679 2.51367 21.0156 2.96144 21.0156 3.51367Z" fill="url(#paint9_linear_4105_33951)"/>
<path d="M11.0156 11.0137H14.0156C14.2915 11.0137 14.5156 10.7896 14.5156 10.5137V8.51367C14.5156 8.23778 14.2915 8.01367 14.0156 8.01367H11.0156C10.7397 8.01367 10.5156 8.23778 10.5156 8.51367V10.5137C10.5156 10.7896 10.7397 11.0137 11.0156 11.0137ZM11.5156 9.01367H13.5156V10.0137H11.5156V9.01367Z" fill="url(#paint10_linear_4105_33951)"/>
<path d="M4.01562 11.0137H7.01562C7.29152 11.0137 7.51562 10.7896 7.51562 10.5137V8.51367C7.51562 8.23778 7.29152 8.01367 7.01562 8.01367H4.01562C3.73973 8.01367 3.51562 8.23778 3.51562 8.51367V10.5137C3.51562 10.7896 3.73973 11.0137 4.01562 11.0137ZM4.51562 9.01367H6.51562V10.0137H4.51562V9.01367Z" fill="url(#paint11_linear_4105_33951)"/>
<path d="M8.51562 10.0137H9.51562C9.79152 10.0137 10.0156 9.78956 10.0156 9.51367C10.0156 9.23778 9.79152 9.01367 9.51562 9.01367H8.51562C8.23973 9.01367 8.01562 9.23778 8.01562 9.51367C8.01562 9.78956 8.23973 10.0137 8.51562 10.0137Z" fill="url(#paint12_linear_4105_33951)"/>
<defs>
<linearGradient id="paint0_linear_4105_33951" x1="5.85295" y1="22.0137" x2="5.78842" y2="29.9062" gradientUnits="userSpaceOnUse">
<stop stop-color="#005CAA"/>
<stop offset="1" stop-color="#64B0F1"/>
</linearGradient>
<linearGradient id="paint1_linear_4105_33951" x1="10.853" y1="21.0137" x2="10.798" y2="28.2991" gradientUnits="userSpaceOnUse">
<stop stop-color="#005CAA"/>
<stop offset="1" stop-color="#64B0F1"/>
</linearGradient>
<linearGradient id="paint2_linear_4105_33951" x1="15.853" y1="19.5137" x2="15.767" y2="28.6202" gradientUnits="userSpaceOnUse">
<stop stop-color="#005CAA"/>
<stop offset="1" stop-color="#64B0F1"/>
</linearGradient>
<linearGradient id="paint3_linear_4105_33951" x1="20.853" y1="18.0137" x2="20.767" y2="27.1202" gradientUnits="userSpaceOnUse">
<stop stop-color="#005CAA"/>
<stop offset="1" stop-color="#64B0F1"/>
</linearGradient>
<linearGradient id="paint4_linear_4105_33951" x1="25.853" y1="14.5137" x2="25.767" y2="23.6202" gradientUnits="userSpaceOnUse">
<stop stop-color="#005CAA"/>
<stop offset="1" stop-color="#64B0F1"/>
</linearGradient>
<linearGradient id="paint5_linear_4105_33951" x1="21.3992" y1="8.01367" x2="21.3633" y2="24.3883" gradientUnits="userSpaceOnUse">
<stop stop-color="#005CAA"/>
<stop offset="1" stop-color="#64B0F1"/>
</linearGradient>
<linearGradient id="paint6_linear_4105_33951" x1="23.3889" y1="0.0136719" x2="23.2514" y2="36.4425" gradientUnits="userSpaceOnUse">
<stop stop-color="#005CAA"/>
<stop offset="1" stop-color="#64B0F1"/>
</linearGradient>
<linearGradient id="paint7_linear_4105_33951" x1="27.5738" y1="2.51367" x2="27.5647" y2="4.94226" gradientUnits="userSpaceOnUse">
<stop stop-color="#005CAA"/>
<stop offset="1" stop-color="#64B0F1"/>
</linearGradient>
<linearGradient id="paint8_linear_4105_33951" x1="24.0738" y1="2.51367" x2="24.0647" y2="4.94226" gradientUnits="userSpaceOnUse">
<stop stop-color="#005CAA"/>
<stop offset="1" stop-color="#64B0F1"/>
</linearGradient>
<linearGradient id="paint9_linear_4105_33951" x1="20.5738" y1="2.51367" x2="20.5647" y2="4.94226" gradientUnits="userSpaceOnUse">
<stop stop-color="#005CAA"/>
<stop offset="1" stop-color="#64B0F1"/>
</linearGradient>
<linearGradient id="paint10_linear_4105_33951" x1="13.6321" y1="8.01367" x2="13.6218" y2="11.6566" gradientUnits="userSpaceOnUse">
<stop stop-color="#005CAA"/>
<stop offset="1" stop-color="#64B0F1"/>
</linearGradient>
<linearGradient id="paint11_linear_4105_33951" x1="6.63206" y1="8.01367" x2="6.62175" y2="11.6566" gradientUnits="userSpaceOnUse">
<stop stop-color="#005CAA"/>
<stop offset="1" stop-color="#64B0F1"/>
</linearGradient>
<linearGradient id="paint12_linear_4105_33951" x1="9.57384" y1="9.01367" x2="9.57155" y2="10.228" gradientUnits="userSpaceOnUse">
<stop stop-color="#005CAA"/>
<stop offset="1" stop-color="#64B0F1"/>
</linearGradient>
</defs>
</svg>