<svg width="38" height="38" viewBox="0 0 38 38" fill="none" xmlns="http://www.w3.org/2000/svg">
<path d="M32.6562 2.37549H5.34375C4.55639 2.37549 3.80128 2.68827 3.24453 3.24501C2.68778 3.80176 2.375 4.55688 2.375 5.34424V29.688C2.375 30.4753 2.68778 31.2305 3.24453 31.7872C3.80128 32.344 4.55639 32.6567 5.34375 32.6567H10.0938V31.4692H5.34375C4.87133 31.4692 4.41827 31.2816 4.08422 30.9475C3.75017 30.6135 3.5625 30.1604 3.5625 29.688V8.31299H34.4375V29.688C34.4375 30.1604 34.2498 30.6135 33.9158 30.9475C33.5817 31.2816 33.1287 31.4692 32.6562 31.4692H28.0191V32.6567H32.6562C33.4436 32.6567 34.1987 32.344 34.7555 31.7872C35.3122 31.2305 35.625 30.4753 35.625 29.688V5.34424C35.625 4.55688 35.3122 3.80176 34.7555 3.24501C34.1987 2.68827 33.4436 2.37549 32.6562 2.37549ZM3.5625 7.12549V5.34424C3.5625 4.87182 3.75017 4.41875 4.08422 4.0847C4.41827 3.75066 4.87133 3.56299 5.34375 3.56299H32.6562C33.1287 3.56299 33.5817 3.75066 33.9158 4.0847C34.2498 4.41875 34.4375 4.87182 34.4375 5.34424V7.12549H3.5625ZM5.9375 4.75049H8.3125V5.93799H5.9375V4.75049ZM9.5 4.75049H11.875V5.93799H9.5V4.75049ZM13.0625 4.75049H15.4375V5.93799H13.0625V4.75049ZM24.3438 4.75049H32.0625V5.93799H24.3438V4.75049ZM32.6562 30.2817H27.9834V29.0942H32.0625V10.688H5.9375V29.0942H10.0938V30.2817H5.34375C5.18628 30.2817 5.03526 30.2192 4.92391 30.1078C4.81256 29.9965 4.75 29.8455 4.75 29.688V10.0942C4.75 9.93677 4.81256 9.78574 4.92391 9.67439C5.03526 9.56304 5.18628 9.50049 5.34375 9.50049H32.6562C32.8137 9.50049 32.9647 9.56304 33.0761 9.67439C33.1874 9.78574 33.25 9.93677 33.25 10.0942V29.688C33.25 29.8455 33.1874 29.9965 33.0761 30.1078C32.9647 30.2192 32.8137 30.2817 32.6562 30.2817ZM19 20.188C17.4734 20.188 15.981 20.6407 14.7117 21.4888C13.4424 22.337 12.453 23.5425 11.8688 24.9529C11.2846 26.3633 11.1317 27.9153 11.4296 29.4126C11.7274 30.9099 12.4625 32.2852 13.542 33.3647C14.6215 34.4442 15.9969 35.1793 17.4941 35.4772C18.9914 35.775 20.5434 35.6221 21.9538 35.0379C23.3643 34.4537 24.5698 33.4644 25.4179 32.195C26.2661 30.9257 26.7188 29.4334 26.7188 27.9067C26.7188 25.8596 25.9055 23.8963 24.458 22.4488C23.0104 21.0012 21.0471 20.188 19 20.188ZM15.2534 33.2505C15.5931 32.5462 16.1246 31.952 16.7868 31.5362C17.449 31.1203 18.2151 30.8998 18.997 30.8998C19.779 30.8998 20.545 31.1203 21.2073 31.5362C21.8695 31.952 22.4009 32.5462 22.7406 33.2505C21.6452 34.023 20.3375 34.4378 18.997 34.4378C17.6566 34.4378 16.3489 34.023 15.2534 33.2505ZM23.6788 32.4549C23.2171 31.6182 22.5395 30.9206 21.7166 30.4348C20.8937 29.949 19.9556 29.6928 19 29.6928C18.0444 29.6928 17.1063 29.949 16.2834 30.4348C15.4605 30.9206 14.7829 31.6182 14.3213 32.4549C13.4251 31.5347 12.8201 30.3708 12.582 29.1086C12.3438 27.8465 12.4832 26.5421 12.9825 25.3587C13.4818 24.1753 14.319 23.1654 15.3893 22.4554C16.4597 21.7453 17.7156 21.3666 19 21.3666C20.2844 21.3666 21.5403 21.7453 22.6107 22.4554C23.681 23.1654 24.5181 24.1753 25.0175 25.3587C25.5168 26.5421 25.6562 27.8465 25.418 29.1086C25.1799 30.3708 24.5749 31.5347 23.6788 32.4549ZM19 22.563C18.4128 22.563 17.8389 22.7371 17.3507 23.0633C16.8624 23.3895 16.4819 23.8532 16.2572 24.3956C16.0325 24.9381 15.9737 25.535 16.0883 26.1109C16.2028 26.6868 16.4856 27.2158 16.9008 27.631C17.316 28.0461 17.8449 28.3289 18.4208 28.4434C18.9967 28.558 19.5936 28.4992 20.1361 28.2745C20.6786 28.0498 21.1422 27.6693 21.4684 27.1811C21.7946 26.6929 21.9688 26.1189 21.9688 25.5317C21.9688 24.7444 21.656 23.9893 21.0992 23.4325C20.5425 22.8758 19.7874 22.563 19 22.563ZM19 27.313C18.6477 27.313 18.3033 27.2085 18.0104 27.0128C17.7175 26.8171 17.4892 26.5389 17.3543 26.2134C17.2195 25.8879 17.1842 25.5298 17.253 25.1842C17.3217 24.8387 17.4914 24.5213 17.7405 24.2722C17.9896 24.0231 18.307 23.8534 18.6525 23.7847C18.998 23.716 19.3562 23.7513 19.6817 23.8861C20.0071 24.0209 20.2853 24.2492 20.4811 24.5421C20.6768 24.8351 20.7812 25.1794 20.7812 25.5317C20.7812 26.0042 20.5936 26.4572 20.2595 26.7913C19.9255 27.1253 19.4724 27.313 19 27.313ZM13.0625 17.2192V13.6567C13.0625 13.4993 12.9999 13.3482 12.8886 13.2369C12.7772 13.1255 12.6262 13.063 12.4688 13.063H8.90625C8.74878 13.063 8.59776 13.1255 8.48641 13.2369C8.37506 13.3482 8.3125 13.4993 8.3125 13.6567V17.2192C8.3125 17.3767 8.37506 17.5277 8.48641 17.6391C8.59776 17.7504 8.74878 17.813 8.90625 17.813H12.4688C12.6262 17.813 12.7772 17.7504 12.8886 17.6391C12.9999 17.5277 13.0625 17.3767 13.0625 17.2192ZM11.875 16.6255H9.5V14.2505H11.875V16.6255ZM29.6875 14.2505H15.4375V13.063H29.6875V14.2505ZM15.4375 16.6255H29.6875V17.813H15.4375V16.6255Z" fill="url(#paint0_linear_3240_13691)"/>
<defs>
<linearGradient id="paint0_linear_3240_13691" x1="28.2804" y1="2.37549" x2="28.128" y2="42.7508" gradientUnits="userSpaceOnUse">
<stop stop-color="#005CAA"/>
<stop offset="1" stop-color="#64B0F1"/>
</linearGradient>
</defs>
</svg>