<svg width="38" height="38" viewBox="0 0 32 32" fill="none"
                                xmlns="http://www.w3.org/2000/svg">
                                <path
                                    d="M22.8541 20.3994H21.8734C21.0623 20.3994 20.4024 19.7395 20.4024 18.9284C20.4024 18.1172 21.0623 17.4573 21.8734 17.4573H22.8541C23.6652 17.4573 24.3252 18.1172 24.3252 18.9284H25.3059C25.3059 17.5765 24.2062 16.4768 22.8544 16.4768V15.4961H21.8736V16.4768C20.5218 16.4768 19.4221 17.5765 19.4221 18.9284C19.4221 20.2802 20.5218 21.3799 21.8736 21.3799H22.8544C23.6654 21.3799 24.3254 22.0398 24.3254 22.8509C24.3254 23.662 23.6655 24.322 22.8544 24.322H21.8736C21.0626 24.322 20.4026 23.6621 20.4026 22.8509H19.4219C19.4219 24.2028 20.5216 25.3025 21.8734 25.3025V26.2832H22.8541V25.3025C24.206 25.3025 25.3057 24.2028 25.3057 22.8509C25.3057 21.4993 24.206 20.3994 22.8541 20.3994Z"
                                    fill="#CC1212" />
                                <path
                                    d="M28.9851 16.3678L25.1847 12.2749C25.5524 12.0073 25.7922 11.5739 25.7922 11.0851C25.7922 10.4731 25.4165 9.94742 24.8836 9.72604C25.1576 8.34008 26.1294 7.16338 27.4454 6.63708L27.8428 6.47825L27.5595 5.34503C27.3217 4.39438 26.4714 3.73047 25.4915 3.73047C25.0684 3.73047 24.6643 3.85282 24.3195 4.08078C23.9708 3.85261 23.5637 3.73047 23.1375 3.73047H21.5823C21.1561 3.73047 20.7488 3.85282 20.4005 4.08078C20.0557 3.85261 19.6515 3.73047 19.2285 3.73047C18.2486 3.73047 17.3983 4.39438 17.1605 5.34503L16.8772 6.47825L17.2746 6.63708C18.5904 7.16339 19.5625 8.33986 19.8364 9.72604C19.3035 9.94743 18.9278 10.4731 18.9278 11.0851C18.9278 11.5737 19.1676 12.0073 19.5353 12.2749L15.7349 16.3678C14.3156 17.896 13.5342 19.8864 13.5342 21.9717C13.5342 22.1017 13.538 22.2321 13.5441 22.3623H12.5534V15.9881H11.5727V23.3427H14.9553L9.53991 30.0079C9.43685 30.1347 9.28418 30.2075 9.12089 30.2075C8.95761 30.2075 8.80493 30.1347 8.70187 30.0079L3.28687 23.3427H6.66952V15.9881H5.68901V22.3623H1.22656L7.94116 30.6262C8.23104 30.9833 8.6611 31.188 9.12101 31.188C9.58092 31.188 10.011 30.9833 10.3011 30.6262L14.3789 25.6076C14.9837 26.8381 15.8842 27.8969 17.0185 28.6995C18.413 29.6858 20.0559 30.2072 21.7697 30.2072H22.9496C27.4909 30.2072 31.1853 26.5128 31.1853 21.9715C31.1853 19.886 30.4038 17.8956 28.9846 16.3676L28.9851 16.3678ZM20.3988 11.5756C20.1284 11.5756 19.9085 11.3557 19.9085 11.0853C19.9085 10.815 20.1284 10.5951 20.3988 10.5951H24.3213C24.5917 10.5951 24.8116 10.815 24.8116 11.0853C24.8116 11.3557 24.5917 11.5756 24.3213 11.5756H20.3988ZM18.0318 5.90384L18.112 5.583C18.2405 5.06983 18.6995 4.71123 19.2286 4.71123C19.5361 4.71123 19.8251 4.83082 20.0429 5.04882L20.3991 5.40401L20.7452 5.05794C20.9687 4.83443 21.266 4.71123 21.5822 4.71123H23.1374C23.4535 4.71123 23.7509 4.83443 23.9743 5.05794L24.3204 5.40401L24.6773 5.04818C24.8947 4.83083 25.1837 4.71102 25.4909 4.71102C26.02 4.71102 26.4791 5.06961 26.6076 5.5828L26.6878 5.90363C25.2422 6.62905 24.1974 8.01291 23.9067 9.61433H20.8124C20.5223 8.01312 19.4773 6.62905 18.0317 5.9038L18.0318 5.90384ZM22.9502 29.2272H21.7703C18.8457 29.2272 16.1876 27.4427 15.0699 24.7586L17.0163 22.3626H14.5257C14.5187 22.2324 14.5151 22.1019 14.5151 21.972C14.5151 20.1347 15.2037 18.3814 16.4537 17.0352L20.6129 12.5562H24.1078L28.2668 17.0352C29.517 18.3815 30.2053 20.1348 30.2053 21.972C30.2053 25.9723 26.9508 29.2272 22.9506 29.2272L22.9502 29.2272Z"
                                    fill="#CC1212" />
                                <path
                                    d="M27.9201 18.1387L27.144 18.7379C27.8642 19.6708 28.2448 20.7885 28.2448 21.9703C28.2448 23.2708 27.7666 24.5221 26.8984 25.4935L27.6296 26.1471C28.6589 24.9954 29.2255 23.5121 29.2255 21.9703C29.2255 20.5694 28.774 19.2445 27.9201 18.1387H27.9201Z"
                                    fill="#CC1212" />
                                <path
                                    d="M25.1016 26.8068L25.5015 27.7021C25.8734 27.5359 26.2314 27.3319 26.5654 27.0956L25.999 26.2949C25.7172 26.4947 25.4152 26.6667 25.1016 26.8068Z"
                                    fill="#CC1212" />
                                <path
                                    d="M18.9339 2.25784C18.9339 2.52864 18.7142 2.74811 18.4434 2.74811C18.1726 2.74811 17.9531 2.52863 17.9531 2.25784C17.9531 1.98705 18.1726 1.76758 18.4434 1.76758C18.7142 1.76758 18.9339 1.98706 18.9339 2.25784Z"
                                    fill="#CC1212" />
                                <path
                                    d="M20.8948 2.25784C20.8948 2.52864 20.6751 2.74811 20.4043 2.74811C20.1335 2.74811 19.9141 2.52863 19.9141 2.25784C19.9141 1.98705 20.1335 1.76758 20.4043 1.76758C20.6751 1.76758 20.8948 1.98706 20.8948 2.25784Z"
                                    fill="#CC1212" />
                                <path
                                    d="M22.8557 2.25784C22.8557 2.52864 22.6361 2.74811 22.3653 2.74811C22.0945 2.74811 21.875 2.52863 21.875 2.25784C21.875 1.98705 22.0945 1.76758 22.3653 1.76758C22.6361 1.76758 22.8557 1.98706 22.8557 2.25784Z"
                                    fill="#CC1212" />
                                <path
                                    d="M24.8167 2.25784C24.8167 2.52864 24.597 2.74811 24.3262 2.74811C24.0554 2.74811 23.8359 2.52863 23.8359 2.25784C23.8359 1.98705 24.0554 1.76758 24.3262 1.76758C24.597 1.76758 24.8167 1.98706 24.8167 2.25784Z"
                                    fill="#CC1212" />
                                <path
                                    d="M26.7776 2.25784C26.7776 2.52864 26.5579 2.74811 26.2871 2.74811C26.0163 2.74811 25.7969 2.52863 25.7969 2.25784C25.7969 1.98705 26.0164 1.76758 26.2871 1.76758C26.5579 1.76758 26.7776 1.98706 26.7776 2.25784Z"
                                    fill="#CC1212" />
                                <path
                                    d="M3.64672 9.61314H4.73965C4.83402 10.4628 5.17076 11.2402 5.67885 11.8751L4.90506 12.6489C4.70954 12.5552 4.49389 12.5058 4.27057 12.5058C3.87763 12.5058 3.50823 12.6589 3.23045 12.9367C2.65709 13.51 2.65709 14.4433 3.23045 15.0169C3.50824 15.2947 3.87765 15.4478 4.27057 15.4478C4.6635 15.4478 5.0329 15.2947 5.31068 15.0169C5.76236 14.565 5.85674 13.8907 5.59674 13.344L6.37221 12.5686C7.00708 13.0766 7.78451 13.4133 8.63419 13.5078V14.6007C8.06354 14.803 7.65346 15.3482 7.65346 15.9873C7.65346 16.7984 8.31336 17.4583 9.1245 17.4583C9.93563 17.4583 10.5955 16.7984 10.5955 15.9873C10.5955 15.3482 10.1856 14.8032 9.61481 14.6007V13.5078C10.4645 13.4134 11.2419 13.0766 11.8768 12.5686L12.6523 13.344C12.3923 13.8905 12.4864 14.565 12.9383 15.0169C13.2161 15.2947 13.5855 15.4478 13.9784 15.4478C14.3714 15.4478 14.7408 15.2947 15.0185 15.0169C15.5919 14.4435 15.5919 13.5102 15.0185 12.9367C14.7408 12.6589 14.3713 12.5058 13.9784 12.5058C13.7551 12.5058 13.5397 12.5554 13.3439 12.6489L12.5701 11.8751C13.0782 11.2402 13.4149 10.4628 13.5093 9.61314H14.6023C14.8046 10.1838 15.3498 10.5939 15.9889 10.5939C16.8 10.5939 17.4599 9.93397 17.4599 9.12283C17.4599 8.31175 16.8 7.6518 15.9889 7.6518C15.3498 7.6518 14.8048 8.0617 14.6023 8.63253H13.5093C13.415 7.78285 13.0782 7.00542 12.5701 6.37055L13.3439 5.59676C13.5395 5.69049 13.7551 5.73989 13.9784 5.73989C14.3714 5.73989 14.7408 5.58679 15.0185 5.309C15.5919 4.73564 15.5919 3.80236 15.0185 3.22877C14.7408 2.95098 14.3713 2.79788 13.9784 2.79788C13.5855 2.79788 13.2161 2.95098 12.9383 3.22877C12.4866 3.68066 12.3923 4.35498 12.6523 4.90164L11.877 5.6769C11.2421 5.16881 10.4647 4.8321 9.61502 4.7377V3.64476C10.1857 3.44246 10.5957 2.89725 10.5957 2.25814C10.5957 1.44706 9.93585 0.787109 9.12472 0.787109C8.31363 0.787109 7.65368 1.44701 7.65368 2.25814C7.65368 2.89725 8.06358 3.44222 8.63441 3.64476V4.7377C7.78473 4.83206 7.0073 5.1688 6.37243 5.6769L5.59674 4.90142C5.85672 4.35498 5.76257 3.68043 5.31068 3.22856C5.03289 2.95076 4.66349 2.79766 4.27057 2.79766C3.87763 2.79766 3.50823 2.95076 3.23045 3.22856C2.65709 3.80192 2.65709 4.7352 3.23045 5.30878C3.50824 5.58657 3.87765 5.73968 4.27057 5.73968C4.49386 5.73968 4.70931 5.69006 4.90506 5.59654L5.67885 6.37033C5.17077 7.0052 4.83405 7.78263 4.73965 8.63231H3.64672C3.44442 8.06166 2.8992 7.65158 2.2601 7.65158C1.44901 7.65158 0.789062 8.31148 0.789062 9.12262C0.789062 9.93375 1.44896 10.5937 2.2601 10.5937C2.8992 10.5937 3.44418 10.1838 3.64672 9.61314ZM4.61751 14.3235C4.52484 14.4162 4.40164 14.4671 4.2708 14.4671C4.13975 14.4671 4.01676 14.4162 3.9241 14.3235C3.73304 14.1325 3.73304 13.8212 3.9241 13.6301C4.01676 13.5375 4.13976 13.4866 4.2708 13.4866C4.40185 13.4866 4.52484 13.5377 4.61751 13.6301C4.80857 13.8212 4.80857 14.1323 4.61751 14.3235ZM9.12447 16.4776C8.8541 16.4776 8.63421 16.2577 8.63421 15.9873C8.63421 15.7169 8.85411 15.497 9.12447 15.497C9.39484 15.497 9.61474 15.7169 9.61474 15.9873C9.61495 16.2577 9.39484 16.4776 9.12447 16.4776ZM14.3253 13.6301C14.5164 13.8212 14.5164 14.1325 14.3253 14.3235C14.2326 14.4162 14.1097 14.4671 13.9786 14.4671C13.8478 14.4671 13.7246 14.416 13.6319 14.3235C13.4408 14.1325 13.4408 13.8212 13.6319 13.6301C13.7246 13.5375 13.8478 13.4866 13.9786 13.4866C14.1094 13.4864 14.2326 13.5375 14.3253 13.6301ZM15.9891 8.63247C16.2594 8.63247 16.4793 8.85237 16.4793 9.12274C16.4793 9.3931 16.2594 9.613 15.9891 9.613C15.7187 9.613 15.4988 9.3931 15.4988 9.12274C15.4988 8.85237 15.7187 8.63247 15.9891 8.63247ZM13.6317 3.9221C13.7243 3.82943 13.8475 3.77854 13.9784 3.77854C14.1094 3.77854 14.2324 3.82943 14.3251 3.9221C14.5161 4.11316 14.5161 4.42445 14.3251 4.61549C14.2324 4.70816 14.1094 4.75905 13.9784 4.75905C13.8473 4.75905 13.7243 4.70794 13.6317 4.61549C13.4406 4.42443 13.4406 4.11335 13.6317 3.9221ZM9.12447 1.76804C9.39484 1.76804 9.61474 1.98794 9.61474 2.25831C9.61474 2.52868 9.39484 2.74857 9.12447 2.74857C8.85411 2.74857 8.63421 2.52867 8.63421 2.25831C8.63421 1.98794 8.85411 1.76804 9.12447 1.76804ZM9.12447 5.69062C11.017 5.69062 12.5568 7.23033 12.5568 9.12294C12.5568 11.0156 11.0171 12.5553 9.12447 12.5553C7.23185 12.5553 5.69215 11.0156 5.69215 9.12294C5.69236 7.23038 7.23185 5.69062 9.12447 5.69062ZM3.92385 4.61549C3.73279 4.42443 3.73279 4.11314 3.92385 3.9221C4.01651 3.82943 4.13951 3.77854 4.27055 3.77854C4.40139 3.77854 4.52459 3.82965 4.61726 3.9221C4.80832 4.11316 4.80832 4.42445 4.61726 4.61549C4.52459 4.70816 4.40139 4.75905 4.27055 4.75905C4.13971 4.75905 4.01651 4.70816 3.92385 4.61549ZM1.76979 9.12267C1.76979 8.8523 1.98969 8.63241 2.26005 8.63241C2.53042 8.63241 2.75032 8.85231 2.75032 9.12267C2.75032 9.39303 2.53042 9.61294 2.26005 9.61294C1.98968 9.61315 1.76979 9.39303 1.76979 9.12267Z"
                                    fill="#CC1212" />
                                <path
                                    d="M7.65262 8.14261C7.65262 8.4134 7.43293 8.63287 7.16214 8.63287C6.89135 8.63287 6.67188 8.4134 6.67188 8.14261C6.67188 7.87182 6.89135 7.65234 7.16214 7.65234C7.43293 7.65234 7.65262 7.87182 7.65262 8.14261Z"
                                    fill="#CC1212" />
                                <path
                                    d="M8.14481 10.1035C8.14481 10.3743 7.92533 10.5938 7.65454 10.5938C7.38376 10.5938 7.16406 10.3743 7.16406 10.1035C7.16406 9.83276 7.38375 9.61328 7.65454 9.61328C7.92534 9.61328 8.14481 9.83276 8.14481 10.1035Z"
                                    fill="#CC1212" />
                                <path
                                    d="M9.61356 7.16214C9.61356 7.43293 9.39387 7.65262 9.12308 7.65262C8.85228 7.65262 8.63281 7.43293 8.63281 7.16214C8.63281 6.89135 8.85229 6.67188 9.12308 6.67188C9.39387 6.67188 9.61356 6.89135 9.61356 7.16214Z"
                                    fill="#CC1212" />
                                <path
                                    d="M11.5745 8.63284C11.5745 8.90364 11.3548 9.12311 11.084 9.12311C10.8132 9.12311 10.5938 8.90363 10.5938 8.63284C10.5938 8.36206 10.8132 8.14258 11.084 8.14258C11.3548 8.14258 11.5745 8.36206 11.5745 8.63284Z"
                                    fill="#CC1212" />
                                <path
                                    d="M10.1057 9.12308C10.1057 9.39387 9.88627 9.61356 9.61548 9.61356C9.34469 9.61356 9.125 9.39387 9.125 9.12308C9.125 8.85228 9.34469 8.63281 9.61548 8.63281C9.88628 8.63281 10.1057 8.85229 10.1057 9.12308Z"
                                    fill="#CC1212" />
                                <path
                                    d="M10.5977 11.084C10.5977 11.3548 10.3782 11.5745 10.1075 11.5745C9.83666 11.5745 9.61719 11.3548 9.61719 11.084C9.61719 10.8132 9.83666 10.5938 10.1075 10.5938C10.3782 10.5938 10.5977 10.8132 10.5977 11.084Z"
                                    fill="#CC1212" />
                            </svg>