<svg width="38" height="38" viewBox="0 0 20 24" fill="none" xmlns="http://www.w3.org/2000/svg">
<path d="M3.51071 6.06462H10.9261C11.0962 6.06462 11.2337 5.92667 11.2337 5.75703C11.2337 5.58716 11.0962 5.44944 10.9261 5.44944L3.51071 5.44922C3.34084 5.44922 3.20312 5.58717 3.20312 5.75681C3.20312 5.9269 3.34085 6.06462 3.51071 6.06462Z" fill="url(#paint0_linear_3878_19408)"/>
<path d="M3.51071 8.70915H8.09528C8.26515 8.70915 8.40287 8.5712 8.40287 8.40156C8.40287 8.23169 8.26492 8.09397 8.09528 8.09397L3.51071 8.09375C3.34084 8.09375 3.20312 8.2317 3.20312 8.40134C3.20312 8.57121 3.34085 8.70915 3.51071 8.70915Z" fill="url(#paint1_linear_3878_19408)"/>
<path d="M17.8779 15.5726H16.6165V4.21832C16.6165 4.13707 16.5846 4.05894 16.527 4.00113L13.0886 0.286386C13.0304 0.223214 12.9484 0.1875 12.8625 0.1875H3.17051C1.74531 0.1875 0.585938 1.34687 0.585938 2.77207V19.3875C0.585938 20.8127 1.74531 21.9719 3.17051 21.9719H7.04731V22.2489C7.04731 23.0971 7.73748 23.7873 8.58571 23.7873H17.8783C18.7265 23.7873 19.4167 23.0971 19.4167 22.2489L19.4169 17.1107C19.4169 16.2623 18.7267 15.5723 17.8783 15.5723L17.8779 15.5726ZM3.17047 21.3572C2.08453 21.3572 1.20127 20.4737 1.20127 19.3882V2.77277C1.20127 1.68683 2.08476 0.803575 3.17047 0.803575H12.5242V4.18815C12.5242 4.35801 12.6617 4.49573 12.8318 4.49573H16.001V15.5729H14.4626V15.2037C14.4626 14.8653 14.1856 14.5883 13.8471 14.5883H12.6472C12.3088 14.5883 12.0317 14.8653 12.0317 15.2037V15.5727H8.58572C7.73749 15.5727 7.04732 16.2628 7.04732 17.1111V21.3573L3.17047 21.3572ZM18.8013 22.2493C18.8013 22.7583 18.3873 23.1723 17.8784 23.1723L8.58579 23.1725C8.07686 23.1725 7.66282 22.7585 7.66282 22.2496L7.66259 17.1109C7.66259 16.602 8.07666 16.188 8.58557 16.188H17.8781C18.3871 16.188 18.8011 16.602 18.8011 17.1109L18.8013 22.2493Z" fill="url(#paint2_linear_3878_19408)"/>
<path d="M12.0306 19.8789H9.93817C9.56898 19.8789 9.26115 20.1559 9.19978 20.5251L8.98438 21.8481H12.9844L12.769 20.5251C12.7076 20.1559 12.4 19.8789 12.0306 19.8789Z" fill="url(#paint3_linear_3878_19408)"/>
<path d="M11.017 19.4784C11.4786 19.4784 11.8786 19.14 11.9399 18.6784V18.5554C11.9399 18.2784 11.7861 18.0324 11.6015 17.8478C11.4477 17.7248 11.2631 17.6324 11.1091 17.6016H11.0167C10.5551 17.6016 10.1551 17.94 10.0938 18.4016V18.5554C10.0938 19.0475 10.4938 19.4784 11.017 19.4784Z" fill="url(#paint4_linear_3878_19408)"/>
<path d="M17.233 18.0664H14.4638C14.2937 18.0664 14.1562 18.2039 14.1562 18.374C14.1562 18.5441 14.2937 18.6816 14.4638 18.6816H17.233C17.4031 18.6816 17.5406 18.5441 17.5406 18.374C17.5408 18.2039 17.4029 18.0664 17.233 18.0664Z" fill="url(#paint5_linear_3878_19408)"/>
<path d="M17.233 19.5742H14.4638C14.2937 19.5742 14.1562 19.7117 14.1562 19.8818C14.1562 20.0519 14.2937 20.1894 14.4638 20.1894H17.233C17.4031 20.1894 17.5406 20.0519 17.5406 19.8818C17.5408 19.7117 17.4029 19.5742 17.233 19.5742Z" fill="url(#paint6_linear_3878_19408)"/>
<path d="M17.233 21.0781H14.4638C14.2937 21.0781 14.1562 21.2156 14.1562 21.3857C14.1562 21.5558 14.2937 21.6933 14.4638 21.6933H17.233C17.4031 21.6933 17.5406 21.5558 17.5406 21.3857C17.5408 21.2156 17.4029 21.0781 17.233 21.0781Z" fill="url(#paint7_linear_3878_19408)"/>
<path d="M7.47529 13.3849C7.50118 13.3875 7.5273 13.3895 7.55386 13.3895C7.97998 13.3895 8.4954 12.9699 9.30855 10.5302C9.36234 10.369 9.27529 10.1947 9.11413 10.1409C8.95253 10.0871 8.77864 10.1744 8.72485 10.3353C8.06947 12.3018 7.68513 12.6831 7.57953 12.7565C7.53176 12.6427 7.49717 12.3815 7.4773 12.2315C7.41882 11.7862 7.34515 11.2324 6.86301 11.2324C6.43957 11.2324 6.12707 11.7159 5.79627 12.2275C5.77663 12.2579 5.75542 12.2911 5.73287 12.3253C5.73287 12.319 5.73265 12.3132 5.73265 12.3072C5.72216 11.711 5.71055 11.0351 5.23756 10.9096C4.72751 10.74 4.13933 11.4382 3.16276 12.8746C3.067 13.0152 3.1036 13.2065 3.24423 13.3023C3.38486 13.3983 3.57615 13.361 3.67169 13.2208C4.35609 12.2144 4.817 11.6436 5.04403 11.5211C5.10608 11.6813 5.11368 12.1034 5.11725 12.3184C5.12617 12.8313 5.13265 13.2021 5.46591 13.2851C5.47908 13.2885 5.49247 13.2909 5.50631 13.2923C5.81636 13.328 6.01546 13.0226 6.31345 12.5619C6.43242 12.3775 6.65988 12.026 6.79738 11.8952C6.82774 12.0092 6.85185 12.1909 6.86792 12.3124C6.92707 12.7617 7.00162 13.3215 7.47529 13.3849V13.3849Z" fill="url(#paint8_linear_3878_19408)"/>
<defs>
<linearGradient id="paint0_linear_3878_19408" x1="9.45985" y1="5.44922" x2="9.45963" y2="6.19651" gradientUnits="userSpaceOnUse">
<stop stop-color="#005CAA"/>
<stop offset="1" stop-color="#64B0F1"/>
</linearGradient>
<linearGradient id="paint1_linear_3878_19408" x1="7.2543" y1="8.09375" x2="7.25397" y2="8.84104" gradientUnits="userSpaceOnUse">
<stop stop-color="#005CAA"/>
<stop offset="1" stop-color="#64B0F1"/>
</linearGradient>
<linearGradient id="paint2_linear_3878_19408" x1="15.2573" y1="0.1875" x2="15.1218" y2="28.8444" gradientUnits="userSpaceOnUse">
<stop stop-color="#005CAA"/>
<stop offset="1" stop-color="#64B0F1"/>
</linearGradient>
<linearGradient id="paint3_linear_3878_19408" x1="12.1008" y1="19.8789" x2="12.0964" y2="22.2701" gradientUnits="userSpaceOnUse">
<stop stop-color="#005CAA"/>
<stop offset="1" stop-color="#64B0F1"/>
</linearGradient>
<linearGradient id="paint4_linear_3878_19408" x1="11.5321" y1="17.6016" x2="11.5234" y2="19.8805" gradientUnits="userSpaceOnUse">
<stop stop-color="#005CAA"/>
<stop offset="1" stop-color="#64B0F1"/>
</linearGradient>
<linearGradient id="paint5_linear_3878_19408" x1="16.7931" y1="18.0664" x2="16.7925" y2="18.8134" gradientUnits="userSpaceOnUse">
<stop stop-color="#005CAA"/>
<stop offset="1" stop-color="#64B0F1"/>
</linearGradient>
<linearGradient id="paint6_linear_3878_19408" x1="16.7931" y1="19.5742" x2="16.7925" y2="20.3212" gradientUnits="userSpaceOnUse">
<stop stop-color="#005CAA"/>
<stop offset="1" stop-color="#64B0F1"/>
</linearGradient>
<linearGradient id="paint7_linear_3878_19408" x1="16.7931" y1="21.0781" x2="16.7925" y2="21.8251" gradientUnits="userSpaceOnUse">
<stop stop-color="#005CAA"/>
<stop offset="1" stop-color="#64B0F1"/>
</linearGradient>
<linearGradient id="paint8_linear_3878_19408" x1="7.9516" y1="10.125" x2="7.94375" y2="14.0892" gradientUnits="userSpaceOnUse">
<stop stop-color="#005CAA"/>
<stop offset="1" stop-color="#64B0F1"/>
</linearGradient>
</defs>
</svg>