<svg width="38" height="38" viewBox="0 0 38 38" fill="none" xmlns="http://www.w3.org/2000/svg">
<rect width="38" height="38" rx="4.04813" fill="#F8FCFF"/>
<path d="M32.6562 2.375H5.34375C4.55639 2.375 3.80128 2.68778 3.24453 3.24453C2.68778 3.80128 2.375 4.55639 2.375 5.34375V29.6875C2.375 30.4749 2.68778 31.23 3.24453 31.7867C3.80128 32.3435 4.55639 32.6562 5.34375 32.6562H10.0938V31.4687H5.34375C4.87133 31.4687 4.41827 31.2811 4.08422 30.947C3.75017 30.613 3.5625 30.1599 3.5625 29.6875V8.3125H34.4375V29.6875C34.4375 30.1599 34.2498 30.613 33.9158 30.947C33.5817 31.2811 33.1287 31.4687 32.6562 31.4687H28.0191V32.6562H32.6562C33.4436 32.6562 34.1987 32.3435 34.7555 31.7867C35.3122 31.23 35.625 30.4749 35.625 29.6875V5.34375C35.625 4.55639 35.3122 3.80128 34.7555 3.24453C34.1987 2.68778 33.4436 2.375 32.6562 2.375ZM3.5625 7.125V5.34375C3.5625 4.87133 3.75017 4.41827 4.08422 4.08422C4.41827 3.75017 4.87133 3.5625 5.34375 3.5625H32.6562C33.1287 3.5625 33.5817 3.75017 33.9158 4.08422C34.2498 4.41827 34.4375 4.87133 34.4375 5.34375V7.125H3.5625ZM5.9375 4.75H8.3125V5.9375H5.9375V4.75ZM9.5 4.75H11.875V5.9375H9.5V4.75ZM13.0625 4.75H15.4375V5.9375H13.0625V4.75ZM24.3438 4.75H32.0625V5.9375H24.3438V4.75ZM32.6562 30.2812H27.9834V29.0937H32.0625V10.6875H5.9375V29.0937H10.0938V30.2812H5.34375C5.18628 30.2812 5.03526 30.2187 4.92391 30.1073C4.81256 29.996 4.75 29.845 4.75 29.6875V10.0937C4.75 9.93628 4.81256 9.78525 4.92391 9.6739C5.03526 9.56255 5.18628 9.5 5.34375 9.5H32.6562C32.8137 9.5 32.9647 9.56255 33.0761 9.6739C33.1874 9.78525 33.25 9.93628 33.25 10.0937V29.6875C33.25 29.845 33.1874 29.996 33.0761 30.1073C32.9647 30.2187 32.8137 30.2812 32.6562 30.2812ZM19 20.1875C17.4734 20.1875 15.981 20.6402 14.7117 21.4883C13.4424 22.3365 12.453 23.542 11.8688 24.9524C11.2846 26.3628 11.1317 27.9148 11.4296 29.4121C11.7274 30.9094 12.4625 32.2847 13.542 33.3642C14.6215 34.4437 15.9969 35.1789 17.4941 35.4767C18.9914 35.7745 20.5434 35.6217 21.9538 35.0374C23.3643 34.4532 24.5698 33.4639 25.4179 32.1946C26.2661 30.9252 26.7188 29.4329 26.7188 27.9062C26.7188 25.8591 25.9055 23.8958 24.458 22.4483C23.0104 21.0007 21.0471 20.1875 19 20.1875ZM15.2534 33.25C15.5931 32.5457 16.1246 31.9515 16.7868 31.5357C17.449 31.1199 18.2151 30.8993 18.997 30.8993C19.779 30.8993 20.545 31.1199 21.2073 31.5357C21.8695 31.9515 22.4009 32.5457 22.7406 33.25C21.6452 34.0225 20.3375 34.4373 18.997 34.4373C17.6566 34.4373 16.3489 34.0225 15.2534 33.25ZM23.6788 32.4544C23.2171 31.6177 22.5395 30.9201 21.7166 30.4343C20.8937 29.9485 19.9556 29.6923 19 29.6923C18.0444 29.6923 17.1063 29.9485 16.2834 30.4343C15.4605 30.9201 14.7829 31.6177 14.3213 32.4544C13.4251 31.5343 12.8201 30.3703 12.582 29.1082C12.3438 27.846 12.4832 26.5416 12.9825 25.3582C13.4818 24.1748 14.319 23.165 15.3893 22.4549C16.4597 21.7448 17.7156 21.3661 19 21.3661C20.2844 21.3661 21.5403 21.7448 22.6107 22.4549C23.681 23.165 24.5181 24.1748 25.0175 25.3582C25.5168 26.5416 25.6562 27.846 25.418 29.1082C25.1799 30.3703 24.5749 31.5343 23.6788 32.4544ZM19 22.5625C18.4128 22.5625 17.8389 22.7366 17.3507 23.0628C16.8624 23.389 16.4819 23.8527 16.2572 24.3952C16.0325 24.9376 15.9737 25.5345 16.0883 26.1104C16.2028 26.6863 16.4856 27.2153 16.9008 27.6305C17.316 28.0457 17.8449 28.3284 18.4208 28.443C18.9967 28.5575 19.5936 28.4987 20.1361 28.274C20.6786 28.0493 21.1422 27.6688 21.4684 27.1806C21.7946 26.6924 21.9688 26.1184 21.9688 25.5312C21.9688 24.7439 21.656 23.9888 21.0992 23.432C20.5425 22.8753 19.7874 22.5625 19 22.5625ZM19 27.3125C18.6477 27.3125 18.3033 27.208 18.0104 27.0123C17.7175 26.8166 17.4892 26.5384 17.3543 26.2129C17.2195 25.8874 17.1842 25.5293 17.253 25.1837C17.3217 24.8382 17.4914 24.5208 17.7405 24.2717C17.9896 24.0226 18.307 23.853 18.6525 23.7842C18.998 23.7155 19.3562 23.7508 19.6817 23.8856C20.0071 24.0204 20.2853 24.2487 20.4811 24.5416C20.6768 24.8346 20.7812 25.1789 20.7812 25.5312C20.7812 26.0037 20.5936 26.4567 20.2595 26.7908C19.9255 27.1248 19.4724 27.3125 19 27.3125ZM13.0625 17.2187V13.6562C13.0625 13.4988 12.9999 13.3478 12.8886 13.2364C12.7772 13.1251 12.6262 13.0625 12.4688 13.0625H8.90625C8.74878 13.0625 8.59775 13.1251 8.48641 13.2364C8.37506 13.3478 8.3125 13.4988 8.3125 13.6562V17.2187C8.3125 17.3762 8.37506 17.5272 8.48641 17.6386C8.59775 17.7499 8.74878 17.8125 8.90625 17.8125H12.4688C12.6262 17.8125 12.7772 17.7499 12.8886 17.6386C12.9999 17.5272 13.0625 17.3762 13.0625 17.2187ZM11.875 16.625H9.5V14.25H11.875V16.625ZM29.6875 14.25H15.4375V13.0625H29.6875V14.25ZM15.4375 16.625H29.6875V17.8125H15.4375V16.625Z" fill="url(#paint0_linear_3773_19567)"/>
<defs>
<linearGradient id="paint0_linear_3773_19567" x1="28.2804" y1="2.375" x2="28.128" y2="42.7503" gradientUnits="userSpaceOnUse">
<stop stop-color="#005CAA"/>
<stop offset="1" stop-color="#64B0F1"/>
</linearGradient>
</defs>
</svg>