<svg width="38" height="38" viewBox="0 0 40 40" fill="none"
                                xmlns="http://www.w3.org/2000/svg">
                                <path
                                    d="M7.63609 12.288V15.3198C7.63609 16.216 8.36523 16.9452 9.26148 16.9452H12.2934C13.1896 16.9452 13.9188 16.216 13.9188 15.3198V13.4078L15.7124 11.7801C15.8335 11.6683 15.9055 11.5131 15.9128 11.3485C15.9201 11.1838 15.862 11.023 15.7512 10.9009C15.6405 10.7789 15.486 10.7055 15.3214 10.6968C15.1568 10.6881 14.9954 10.7448 14.8724 10.8545L13.8404 11.791C13.6298 11.1372 13.0163 10.6626 12.2934 10.6626H9.26141C8.36523 10.6625 7.63609 11.3916 7.63609 12.288ZM12.6687 12.288V12.8542L11.738 13.6987L10.6871 12.6477C10.5699 12.5305 10.4109 12.4647 10.2452 12.4647C10.0794 12.4647 9.92042 12.5305 9.8032 12.6477C9.68599 12.7649 9.62014 12.9239 9.62014 13.0897C9.62014 13.2555 9.68599 13.4144 9.8032 13.5316L11.2752 15.0037C11.3332 15.0618 11.4021 15.1079 11.478 15.1393C11.5539 15.1707 11.6352 15.1868 11.7173 15.1867C11.8726 15.1869 12.0223 15.1291 12.1372 15.0245L12.6688 14.5422V15.3198C12.6688 15.5232 12.4969 15.6952 12.2934 15.6952H9.26141C9.05797 15.6952 8.88602 15.5233 8.88602 15.3198V12.288C8.88602 12.0845 9.05789 11.9125 9.26141 11.9125H12.2933C12.4967 11.9125 12.6687 12.0845 12.6687 12.288ZM14.8723 19.3577L13.8403 20.2943C13.6298 19.6405 13.0162 19.1659 12.2934 19.1659H9.26141C8.36516 19.1659 7.63602 19.895 7.63602 20.7913V23.8231C7.63602 24.7195 8.36516 25.4486 9.26141 25.4486H12.2933C13.1895 25.4486 13.9187 24.7195 13.9187 23.8231V21.9112L15.7123 20.2834C15.7731 20.2283 15.8225 20.1617 15.8575 20.0875C15.8925 20.0133 15.9126 19.9329 15.9166 19.8509C15.9206 19.7689 15.9084 19.687 15.8807 19.6097C15.853 19.5324 15.8103 19.4614 15.7552 19.4006C15.6438 19.2779 15.4882 19.2044 15.3226 19.1964C15.1571 19.1883 14.9951 19.2464 14.8723 19.3577ZM12.6687 23.8231C12.6687 24.0266 12.4968 24.1986 12.2933 24.1986H9.26141C9.05797 24.1986 8.88602 24.0266 8.88602 23.8231V20.7913C8.88602 20.5879 9.05789 20.4159 9.26141 20.4159H12.2933C12.4967 20.4159 12.6687 20.5878 12.6687 20.7913V21.3576L11.738 22.2021L10.6871 21.1511C10.6291 21.0931 10.5602 21.047 10.4843 21.0156C10.4085 20.9842 10.3272 20.968 10.2452 20.968C10.1631 20.968 10.0818 20.9842 10.006 21.0156C9.93014 21.047 9.86124 21.0931 9.8032 21.1511C9.74516 21.2091 9.69913 21.278 9.66772 21.3539C9.63631 21.4297 9.62014 21.511 9.62014 21.593C9.62014 21.6751 9.63631 21.7564 9.66772 21.8322C9.69913 21.9081 9.74516 21.977 9.8032 22.035L11.2752 23.507C11.3332 23.5651 11.4021 23.6112 11.478 23.6426C11.5539 23.674 11.6352 23.6902 11.7173 23.6901C11.8726 23.6903 12.0223 23.6324 12.1372 23.5279L12.6688 23.0455V23.8231H12.6687ZM14.8723 27.8611L13.8403 28.7977C13.6298 28.1438 13.0162 27.6692 12.2934 27.6692H9.26141C8.36516 27.6692 7.63602 28.3984 7.63602 29.2947V32.3265C7.63602 33.2227 8.36516 33.9519 9.26141 33.9519H12.2933C13.1895 33.9519 13.9187 33.2227 13.9187 32.3265V30.4145L15.7123 28.7868C15.7731 28.7316 15.8225 28.6651 15.8575 28.5908C15.8925 28.5166 15.9126 28.4362 15.9166 28.3543C15.9206 28.2723 15.9084 28.1903 15.8807 28.1131C15.853 28.0358 15.8103 27.9648 15.7552 27.904C15.7 27.8432 15.6334 27.7938 15.5592 27.7588C15.485 27.7237 15.4046 27.7036 15.3226 27.6996C15.2407 27.6957 15.1587 27.7079 15.0814 27.7356C15.0042 27.7633 14.9331 27.8059 14.8723 27.8611ZM12.6687 32.3264C12.6687 32.5298 12.4968 32.7018 12.2933 32.7018H9.26141C9.05797 32.7018 8.88602 32.5299 8.88602 32.3264V29.2946C8.88602 29.0912 9.05789 28.9191 9.26141 28.9191H12.2933C12.4967 28.9191 12.6687 29.0911 12.6687 29.2946V29.8609L11.738 30.7054L10.6871 29.6544C10.5699 29.5372 10.4109 29.4713 10.2452 29.4713C10.0794 29.4713 9.92042 29.5372 9.8032 29.6544C9.68599 29.7716 9.62014 29.9306 9.62014 30.0963C9.62014 30.2621 9.68599 30.4211 9.8032 30.5383L11.2752 32.0103C11.3332 32.0684 11.4021 32.1145 11.478 32.1459C11.5539 32.1773 11.6352 32.1935 11.7173 32.1934C11.8726 32.1936 12.0223 32.1357 12.1372 32.0312L12.6688 31.5488V32.3264H12.6687ZM17.8647 3.04617C17.8647 3.47648 17.5137 3.82742 17.0834 3.82742C16.6531 3.82742 16.3022 3.47648 16.3022 3.04617C16.3022 2.61586 16.6532 2.26492 17.0834 2.26492C17.5137 2.26492 17.8647 2.61586 17.8647 3.04617ZM37.4981 7.37453L36.9144 7.0375C35.8112 6.40047 34.3955 6.77984 33.7586 7.88305L32.823 9.50344V5.67094C32.823 4.36836 31.7634 3.30867 30.4607 3.30867H24.397V2.88359C24.397 2.71783 24.3312 2.55886 24.214 2.44165C24.0968 2.32444 23.9378 2.25859 23.772 2.25859H20.4109C19.8784 0.907109 18.5731 0 17.0834 0C15.5936 0 14.2885 0.907109 13.7559 2.25852H10.3948C10.229 2.25852 10.07 2.32436 9.95282 2.44157C9.83561 2.55878 9.76977 2.71776 9.76977 2.88352V3.30859H3.70609C2.40344 3.30859 1.34375 4.36828 1.34375 5.67086V37.6377C1.34375 38.9402 2.40344 39.9999 3.70609 39.9999H30.4608C31.7634 39.9999 32.8231 38.9402 32.8231 37.6377V20.0922L38.3437 10.5302C38.9807 9.42703 38.6013 8.01141 37.4981 7.37453ZM34.8411 8.50797C35.0836 8.08813 35.5713 7.89781 36.0195 8.01117L27.2615 23.1807L26.5927 22.7946L34.8411 8.50797ZM26.364 24.1059L27.9916 25.0456L26.364 25.9853V24.1059ZM30.4608 4.55867C31.0741 4.55867 31.5731 5.05766 31.5731 5.67094V11.6684L30.4062 13.6895V6.35047C30.4062 6.18471 30.3404 6.02574 30.2232 5.90853C30.106 5.79132 29.947 5.72547 29.7812 5.72547H24.397V4.55867H30.4608ZM11.0197 3.50852H14.2124C14.3527 3.50852 14.4889 3.46133 14.5991 3.37455C14.7093 3.28777 14.7871 3.16644 14.82 3.03008C15.0728 1.98195 16.0035 1.25 17.0834 1.25C18.1633 1.25 19.094 1.98195 19.3468 3.03008C19.3797 3.16644 19.4575 3.28777 19.5677 3.37455C19.6779 3.46133 19.8141 3.50852 19.9544 3.50852H23.147V6.77547H11.0197V3.50852ZM23.7721 8.02555C23.9379 8.02555 24.0968 7.9597 24.2141 7.84249C24.3313 7.72528 24.3971 7.56631 24.3971 7.40055V6.97555H29.1563V15.8546L25.1978 22.7109C25.143 22.806 25.1141 22.9137 25.1141 23.0234V27.068C25.114 27.1777 25.1429 27.2855 25.1977 27.3805C25.2526 27.4756 25.3315 27.5545 25.4265 27.6094C25.5215 27.6642 25.6293 27.6931 25.739 27.6931C25.8488 27.693 25.9566 27.6641 26.0516 27.6092L29.1563 25.8167V36.3333H5.01055V6.97547H9.76969V7.40047C9.76969 7.56623 9.83554 7.7252 9.95275 7.84241C10.07 7.95962 10.2289 8.02547 10.3947 8.02547L23.7721 8.02555ZM31.5731 37.6377C31.5731 38.2511 31.0741 38.75 30.4608 38.75H3.70609C3.09273 38.75 2.59375 38.251 2.59375 37.6377V5.67094C2.59375 5.05758 3.09281 4.55867 3.70609 4.55867H9.76969V5.72555H4.38555C4.21979 5.72555 4.06082 5.79139 3.94361 5.9086C3.82639 6.02582 3.76055 6.18479 3.76055 6.35055V36.9582C3.76055 37.124 3.82639 37.2829 3.94361 37.4001C4.06082 37.5174 4.21979 37.5832 4.38555 37.5832H29.7812C29.947 37.5832 30.106 37.5174 30.2232 37.4001C30.3404 37.2829 30.4062 37.124 30.4062 36.9582V24.2784L31.5731 22.2573V37.6377ZM37.2612 9.90523L29.0129 24.1919L28.344 23.8057L37.1021 8.63625C37.4245 8.96781 37.5035 9.48547 37.2612 9.90523ZM16.8404 15.1662C16.8404 15.0004 16.9062 14.8414 17.0234 14.7242C17.1407 14.607 17.2996 14.5412 17.4654 14.5412H21.0396C21.2054 14.5412 21.3643 14.607 21.4816 14.7242C21.5988 14.8414 21.6646 15.0004 21.6646 15.1662C21.6646 15.3319 21.5988 15.4909 21.4816 15.6081C21.3643 15.7253 21.2054 15.7912 21.0396 15.7912H17.4654C17.2996 15.7912 17.1407 15.7253 17.0234 15.6081C16.9062 15.4909 16.8404 15.3319 16.8404 15.1662ZM16.8404 12.4416C16.8404 12.2758 16.9062 12.1168 17.0234 11.9996C17.1407 11.8824 17.2996 11.8166 17.4654 11.8166H24.6138C24.7796 11.8166 24.9386 11.8824 25.0558 11.9996C25.173 12.1168 25.2388 12.2758 25.2388 12.4416C25.2388 12.6073 25.173 12.7663 25.0558 12.8835C24.9386 13.0007 24.7796 13.0666 24.6138 13.0666H17.4654C17.2996 13.0666 17.1407 13.0007 17.0234 12.8835C16.9062 12.7663 16.8404 12.6073 16.8404 12.4416ZM16.8404 22.8052C16.8404 22.6394 16.9062 22.4804 17.0234 22.3632C17.1407 22.246 17.2996 22.1802 17.4654 22.1802H21.0396C21.2054 22.1802 21.3643 22.246 21.4816 22.3632C21.5988 22.4804 21.6646 22.6394 21.6646 22.8052C21.6646 22.9709 21.5988 23.1299 21.4816 23.2471C21.3643 23.3643 21.2054 23.4302 21.0396 23.4302H17.4654C17.2996 23.4302 17.1407 23.3643 17.0234 23.2471C16.9062 23.1299 16.8404 22.9709 16.8404 22.8052ZM16.8404 20.0805C16.8404 19.9148 16.9062 19.7558 17.0234 19.6386C17.1407 19.5214 17.2996 19.4555 17.4654 19.4555H24.6138C24.7796 19.4555 24.9386 19.5214 25.0558 19.6386C25.173 19.7558 25.2388 19.9148 25.2388 20.0805C25.2388 20.2463 25.173 20.4053 25.0558 20.5225C24.9386 20.6397 24.7796 20.7055 24.6138 20.7055H17.4654C17.2996 20.7055 17.1407 20.6397 17.0234 20.5225C16.9062 20.4053 16.8404 20.2463 16.8404 20.0805ZM16.8404 32.1729C16.8404 32.0071 16.9062 31.8482 17.0234 31.7309C17.1407 31.6137 17.2996 31.5479 17.4654 31.5479H21.0396C21.2054 31.5479 21.3643 31.6137 21.4816 31.7309C21.5988 31.8482 21.6646 32.0071 21.6646 32.1729C21.6646 32.3387 21.5988 32.4976 21.4816 32.6148C21.3643 32.732 21.2054 32.7979 21.0396 32.7979H17.4654C17.1202 32.7979 16.8404 32.518 16.8404 32.1729ZM16.8404 29.4483C16.8404 29.2825 16.9062 29.1236 17.0234 29.0063C17.1407 28.8891 17.2996 28.8233 17.4654 28.8233H24.6138C24.7796 28.8233 24.9386 28.8891 25.0558 29.0063C25.173 29.1236 25.2388 29.2825 25.2388 29.4483C25.2388 29.614 25.173 29.773 25.0558 29.8902C24.9386 30.0074 24.7796 30.0733 24.6138 30.0733H17.4654C17.1202 30.0733 16.8404 29.7934 16.8404 29.4483Z"
                                    fill="url(#paint0_linear_5451_29852)" />
                                <defs>
                                    <linearGradient id="paint0_linear_5451_29852" x1="30.4116" y1="-7.19391e-09"
                                        x2="30.2151" y2="48.5716" gradientUnits="userSpaceOnUse">
                                        <stop stop-color="#005CAA" />
                                        <stop offset="1" stop-color="#64B0F1" />
                                    </linearGradient>
                                </defs>
                            </svg>