<svg width="38" height="38" viewBox="0 0 29 26" fill="none" xmlns="http://www.w3.org/2000/svg">
<path fill-rule="evenodd" clip-rule="evenodd" d="M26.4787 5.64938C27.8713 5.64938 29.0006 6.77441 28.9999 8.16189V22.6093C28.9999 24.3435 27.589 25.75 25.8477 25.75H3.15223C1.41091 25.75 0 24.3435 0 22.6093V4.39332C0 3.00584 1.12903 1.88081 2.52166 1.88081H15.2388L20.3442 0.0377225C20.6681 -0.0796889 21.0263 0.0861603 21.1435 0.407814L21.6819 1.88079H23.9571C25.3497 1.88079 26.4787 3.00581 26.4787 4.3933L26.4787 5.64938ZM23.957 3.13687H22.1394L23.0568 5.64938H25.2179V4.39315C25.2179 3.69961 24.6537 3.13687 23.957 3.13687ZM15.4102 3.13687L8.45131 5.64938H21.7296L20.8539 3.25052L20.1843 1.41389L18.8912 1.88064H18.8925L15.4164 3.13687H15.4102ZM2.52217 3.13687C1.82617 3.13687 1.26149 3.69959 1.26149 4.39309C1.26149 5.08664 1.82622 5.64932 2.52217 5.64932H4.81389C4.82259 5.6462 4.82706 5.63928 4.83598 5.63615L11.7583 3.13684L2.52217 3.13687ZM27.7393 18.2123V8.16201C27.7393 7.46847 27.175 6.90578 26.4784 6.90578H2.52183C2.06045 6.90578 1.63297 6.77275 1.26114 6.55712V22.6091C1.26114 23.65 2.10823 24.4935 3.15246 24.4935H25.8479C26.8932 24.4935 27.7392 23.65 27.7392 22.6091L27.7393 18.2123Z" fill="#CC1212"/>
<path d="M17.4176 10.9296H14.7203C14.5962 10.9296 14.4877 11.0381 14.4877 11.162V14.9564C14.4877 15.0803 14.3792 15.1885 14.2554 15.1885H11.9763C11.8524 15.1885 11.744 15.0803 11.744 14.9564V12.3079C11.744 12.0448 11.5268 11.8278 11.2634 11.8278H9.48058C9.21697 11.8278 9 12.0448 9 12.3079V18.6885C9 18.9517 9.21697 19.1687 9.48058 19.1687H11.2634C11.5268 19.1687 11.744 18.9517 11.744 18.6885V16.0401C11.744 15.9162 11.8524 15.8079 11.9763 15.8079H14.2862C14.4103 15.8079 14.5187 15.9162 14.5187 16.0401V19.8501C14.5187 19.974 14.6272 20.0823 14.7513 20.0823H17.4487C17.5417 20.0823 17.6192 20.1443 17.6502 20.2218C17.8364 20.7329 18.3788 21.089 18.9989 20.9807C19.4951 20.8876 19.8826 20.5006 19.9757 20.0204C20.1306 19.2305 19.5261 18.5335 18.7666 18.5335C18.2393 18.5335 17.8054 18.8588 17.6192 19.3079C17.5882 19.401 17.5108 19.4474 17.4177 19.4474H15.3404C15.2163 19.4474 15.1078 19.3389 15.1078 19.215V16.0246C15.1078 15.9007 15.2163 15.7923 15.3404 15.7923H17.4177C17.5108 15.7923 17.5882 15.8543 17.6192 15.9318C17.8208 16.4583 18.3788 16.799 18.999 16.6907C19.4952 16.5976 19.8827 16.2106 19.9758 15.7304C20.1307 14.9405 19.5262 14.2435 18.7666 14.2435C18.2394 14.2435 17.8055 14.5688 17.6193 15.0179C17.5883 15.1107 17.5108 15.1574 17.4177 15.1574H15.3405C15.2164 15.1574 15.1079 15.0489 15.1079 14.925V11.7346C15.1079 11.6107 15.2164 11.5023 15.3405 11.5023H17.4177C17.5108 11.5023 17.5883 11.5643 17.6193 11.6418C17.8365 12.2147 18.3789 12.5554 18.999 12.4471C19.4952 12.3541 19.8827 11.967 19.9758 11.4869C20.1307 10.6969 19.5263 10 18.7667 10C18.2394 10 17.8055 10.3252 17.6194 10.7743C17.5883 10.8672 17.5109 10.9293 17.4178 10.9293L17.4176 10.9296Z" fill="#CC1212"/>
</svg>