<svg width="38" height="38" viewBox="0 0 28 33" fill="none" xmlns="http://www.w3.org/2000/svg">
<path d="M12.3732 15.6612C15.7929 15.6612 18.551 11.6319 18.551 8.29947L18.5507 7.16421C18.5507 4.95707 17.3733 2.91759 15.4619 1.81399C13.5505 0.710442 11.1956 0.710442 9.28417 1.81399C7.3728 2.91753 6.19531 4.95707 6.19531 7.16421V8.29947C6.19888 11.632 8.95337 15.6612 12.373 15.6612H12.3732ZM7.58845 7.16404C7.63376 5.48456 8.55588 3.95176 10.0182 3.12496C11.4807 2.29793 13.2693 2.29793 14.7318 3.12496C16.1943 3.95176 17.1163 5.48456 17.1616 7.16404V8.2993C17.1616 10.9843 14.9503 14.2684 12.3732 14.2684C9.79622 14.2682 7.58845 10.9843 7.58845 8.2993V7.16404Z" fill="#CC1212"/>
<path d="M27.1499 24.0045H25.9659C25.8798 23.7415 25.7737 23.4855 25.649 23.2384L26.5056 22.3991C26.661 22.2419 26.7483 22.0299 26.7483 21.8089C26.7483 21.5879 26.661 21.3757 26.5056 21.2185L25.252 19.9649H25.2518C25.0947 19.8093 24.8826 19.7223 24.6616 19.7223C24.4407 19.7223 24.2284 19.8093 24.0712 19.9649L23.2284 20.8078L23.2286 20.8075C22.9779 20.6819 22.7183 20.5747 22.452 20.4872V19.2997C22.452 19.0808 22.3659 18.8707 22.2119 18.7149C22.0581 18.5591 21.8491 18.4703 21.6301 18.4674H19.8228C18.1395 17.3906 16.1828 16.8189 14.1846 16.8203H10.5665C7.77615 16.8239 5.10112 17.9339 3.12769 19.9065C1.15449 21.8792 0.0437482 24.5538 0.0390625 27.3442V28.1799C0.0390625 28.9188 0.332588 29.6275 0.85512 30.15C1.37744 30.6723 2.08615 30.9659 2.82501 30.9659H15.7101L16.2325 31.4882C16.3889 31.6435 16.6005 31.7306 16.8211 31.7306C17.0414 31.7306 17.253 31.6435 17.4095 31.4882L18.2557 30.6453V30.6455C18.5013 30.771 18.7564 30.877 19.0185 30.9625V32.1534C19.0185 32.3741 19.1062 32.586 19.2622 32.742C19.4182 32.898 19.6301 32.9857 19.8508 32.9857H21.6303C21.8511 32.9857 22.0627 32.898 22.219 32.742C22.375 32.586 22.4627 32.3741 22.4627 32.1534V30.9625C22.7243 30.8757 22.9792 30.7699 23.2252 30.6455L24.0681 31.4882C24.2246 31.6435 24.4362 31.7306 24.6565 31.7306C24.877 31.7306 25.0886 31.6435 25.2451 31.4882L26.5058 30.2382C26.6612 30.081 26.7484 29.8688 26.7484 29.6478C26.7484 29.4268 26.6612 29.2147 26.5058 29.0576L25.6629 28.2147C25.783 27.9685 25.8844 27.7136 25.9661 27.4522H27.1535C27.3748 27.4531 27.5875 27.3658 27.7442 27.2096C27.9011 27.0533 27.9893 26.8413 27.9893 26.6199V24.8369C27.9884 24.6152 27.8993 24.4029 27.7419 24.2469C27.5846 24.0909 27.3716 24.0036 27.15 24.0045L27.1499 24.0045ZM1.43215 28.1799V27.3442C1.43572 24.923 2.39935 22.6022 4.11186 20.8905C5.82415 19.1789 8.14535 18.2161 10.5667 18.2132H14.1848C15.8906 18.2143 17.5613 18.6971 19.0047 19.6063V20.4873C18.7435 20.5755 18.4886 20.6815 18.2419 20.8043L17.3991 19.9614C17.2426 19.8063 17.031 19.7192 16.8107 19.7192C16.5901 19.7192 16.3785 19.8063 16.222 19.9614L14.9684 21.215V21.2152C14.8128 21.3724 14.7258 21.5844 14.7258 21.8054C14.7258 22.0264 14.8128 22.2387 14.9684 22.3958L15.8113 23.2351L15.8111 23.2349C15.6847 23.4813 15.5787 23.7376 15.4943 24.0012H14.3171C14.0963 24.0012 13.8847 24.0889 13.7287 24.2449C13.5724 24.401 13.4849 24.6128 13.4849 24.8333V26.6059C13.4811 26.8291 13.5671 27.0445 13.7235 27.2037C13.88 27.3626 14.0939 27.4523 14.3171 27.4523H15.5082C15.5943 27.7142 15.7001 27.9691 15.8251 28.2149L14.9823 29.0577C14.8439 29.1983 14.76 29.3834 14.7454 29.58H2.82487C2.45434 29.58 2.09899 29.4323 1.83739 29.1695C1.57601 28.9068 1.43002 28.5508 1.43203 28.1801L1.43215 28.1799ZM27.1116 26.5641H25.2971L25.2136 26.8915C25.1071 27.2998 24.9442 27.6913 24.7294 28.0547L24.5553 28.3437L25.8403 29.6321L24.6388 30.8301L23.3714 29.5415L23.0823 29.7156C22.7169 29.929 22.3245 30.0917 21.9156 30.1997L21.5917 30.2868V32.1011H19.8888V30.2937L19.5406 30.2102C19.1312 30.1018 18.7388 29.9377 18.374 29.7227L18.085 29.5486L16.7999 30.8337L15.5986 29.6323L16.8837 28.3473L16.7096 28.0583L16.7093 28.058C16.4962 27.6929 16.3334 27.3004 16.2254 26.8915L16.1488 26.5641H14.3448V24.8681H16.1591L16.2426 24.5406L16.2428 24.5408C16.3515 24.1321 16.5143 23.7397 16.7268 23.3743L16.9009 23.0852L15.6158 21.8002L16.8172 20.6022L18.1024 21.8803L18.3915 21.7062C18.7571 21.4935 19.1493 21.3308 19.558 21.2221L19.8819 21.1386V19.3381H21.5812V21.1524L21.9051 21.2359C22.3138 21.3446 22.7062 21.5073 23.0718 21.7201L23.3714 21.8803L24.6564 20.5953L25.8577 21.7966L24.5693 23.0712L24.7434 23.3602H24.7432C24.9573 23.7252 25.1202 24.1176 25.2274 24.527L25.3108 24.8544H27.1217L27.1116 26.5641Z" fill="#CC1212"/>
<path d="M20.7248 23.3711C20.0996 23.3702 19.4996 23.6182 19.0571 24.0602C18.6149 24.5024 18.3667 25.1021 18.3672 25.7276C18.3679 26.3528 18.6174 26.9524 19.0605 27.3934C19.5036 27.8347 20.1043 28.0814 20.7295 28.0794C21.3549 28.0772 21.9536 27.8263 22.3938 27.3821C22.8339 26.9379 23.0792 26.3368 23.0755 25.7113C23.0719 25.0899 22.8226 24.4953 22.3824 24.0569C21.942 23.6185 21.3462 23.3721 20.7248 23.3712V23.3711ZM20.7248 27.2017C20.3315 27.2026 19.954 27.0474 19.6752 26.7702C19.3965 26.4927 19.2391 26.1162 19.238 25.7229C19.2366 25.3296 19.3915 24.9519 19.6688 24.6729C19.9458 24.3939 20.3224 24.2363 20.7156 24.2347C21.1087 24.2331 21.4866 24.3878 21.7659 24.6646C22.0451 24.9416 22.2029 25.318 22.2049 25.7112C22.2067 26.1048 22.0522 26.4827 21.7752 26.7624C21.4985 27.0419 21.1219 27.1999 20.7284 27.2017L20.7248 27.2017Z" fill="#CC1212"/>
</svg>