<svg width="38" height="38" viewBox="0 0 32 32" fill="none" xmlns="http://www.w3.org/2000/svg">
<path d="M16.9255 21.2276C17.3248 21.1595 17.704 21.4283 17.7721 21.8276C17.8402 22.227 17.5714 22.6062 17.1721 22.6743C16.9763 22.708 16.7833 22.7339 16.5942 22.7501L16.5741 22.751C16.3851 22.7673 16.1958 22.7751 16.0067 22.7751C14.1375 22.7751 12.446 22.0178 11.221 20.7928C9.99597 19.5678 9.23865 17.8754 9.23865 16.0071C9.23865 14.137 9.99511 12.4455 11.2201 11.2205C12.4452 9.99635 14.1367 9.23897 16.0068 9.23897C17.8748 9.23897 19.5675 9.99635 20.7925 11.2213C22.0166 12.4454 22.774 14.1369 22.774 16.007C22.774 16.2749 22.7577 16.5427 22.726 16.8106C22.6952 17.0688 22.6472 17.3329 22.5829 17.6007C22.4878 17.9934 22.0914 18.2353 21.6987 18.1403C21.3061 18.0452 21.0642 17.6496 21.1592 17.2561C21.2052 17.0641 21.2427 16.8576 21.2686 16.6378C21.2927 16.4353 21.305 16.224 21.305 16.007C21.305 14.5429 20.7126 13.2191 19.7537 12.261C18.7945 11.3019 17.4697 10.7097 16.0068 10.7097C14.5427 10.7097 13.2179 11.3021 12.259 12.2601C11.301 13.2182 10.7086 14.5429 10.7086 16.007C10.7086 17.47 11.301 18.7949 12.2599 19.7539C13.2179 20.7119 14.5427 21.3052 16.0059 21.3052C16.1577 21.3052 16.3063 21.2994 16.4503 21.2869L16.4666 21.2849C16.6269 21.2703 16.7796 21.2512 16.9235 21.2264L16.9255 21.2276ZM18.2072 5.07963L17.6648 1.79837H14.346L13.8007 5.09991C13.7527 5.39455 13.5349 5.61933 13.2641 5.69122C12.8014 5.8131 12.354 5.96489 11.923 6.14234C11.4871 6.32292 11.061 6.53497 10.6471 6.77491C10.3898 6.9238 10.0797 6.8988 9.85228 6.73652L9.85139 6.73741L7.12796 4.78672L5.95584 5.95592L5.95785 5.95793L4.78465 7.13113L6.73734 9.85571C6.92059 10.1111 6.91591 10.4441 6.75185 10.691C6.52529 11.0845 6.32171 11.4963 6.14516 11.9227C5.96458 12.3586 5.81302 12.8068 5.69203 13.2638C5.61435 13.5604 5.3657 13.7658 5.08043 13.8042L1.79541 14.3466L1.7925 16.0073L1.79541 17.6642L5.10078 18.2104C5.39542 18.2584 5.62019 18.4762 5.69209 18.747C5.81397 19.2097 5.96575 19.657 6.14321 20.0881C6.32379 20.5249 6.53584 20.951 6.77578 21.364C6.93225 21.6338 6.89676 21.963 6.71149 22.1925L4.78383 24.8796L7.13292 27.2286L9.85258 25.2769C10.0945 25.1032 10.4055 25.0974 10.6474 25.2376V25.2367C11.0555 25.4729 11.4807 25.6849 11.9233 25.8675C12.3552 26.047 12.8046 26.1996 13.2673 26.3235C13.5687 26.4041 13.776 26.6606 13.8077 26.9532L14.3463 30.2173H17.6651L18.2104 26.9158C18.2584 26.6211 18.4753 26.3963 18.747 26.3244C19.205 26.2026 19.6524 26.0499 20.0881 25.8684C20.5307 25.6852 20.956 25.4738 21.3631 25.2376C21.6329 25.0811 21.9621 25.1166 22.1916 25.301L24.8787 27.2287L27.2277 24.8796L25.276 22.1599C25.1023 21.918 25.0965 21.607 25.2367 21.3651C25.4766 20.9523 25.6878 20.526 25.8684 20.0892C26.047 19.659 26.1976 19.2108 26.3195 18.7481C26.3972 18.4514 26.6459 18.2461 26.932 18.2077L30.2162 17.6662V14.3474L26.9108 13.8021C26.6162 13.7541 26.3914 13.5372 26.3195 13.2655C26.1985 12.8086 26.047 12.3601 25.8664 11.9244C25.6831 11.4838 25.4729 11.0586 25.2367 10.6534C25.0869 10.3961 25.1119 10.086 25.2751 9.85859H25.2742L27.2269 7.13402L26.0537 5.96082L26.0173 5.92153L24.8836 4.78959L22.1601 6.74027C21.9048 6.92353 21.5726 6.91885 21.326 6.75478C20.9257 6.52443 20.5128 6.32085 20.0905 6.14518C19.6603 5.9675 19.2121 5.81594 18.7494 5.69407C18.4527 5.61639 18.2474 5.36773 18.209 5.08247L18.2072 5.07963ZM19.0107 0.94591L19.5819 4.40482C19.9429 4.51532 20.298 4.64389 20.6455 4.78786C21.0007 4.93473 21.3464 5.09701 21.6803 5.27357L24.5316 3.23072L24.5325 3.23272C24.8187 3.02736 25.2189 3.05326 25.4763 3.30951L27.0517 4.88094L27.093 4.91934L28.7069 6.53316C28.9564 6.78272 28.9968 7.18408 28.7845 7.48071L26.7388 10.3347C26.9153 10.6677 27.0767 11.0106 27.2227 11.3599C27.3667 11.7083 27.4952 12.0655 27.6077 12.4302L31.0187 12.9927C31.3941 13.0264 31.6879 13.3411 31.6879 13.7253V18.2873H31.6859C31.6859 18.6407 31.4305 18.9525 31.0704 19.0112L27.6077 19.5824C27.4963 19.9434 27.3686 20.2985 27.2246 20.646C27.0769 21.0023 26.9146 21.3478 26.7378 21.6829L28.7461 24.4822C28.9939 24.7713 28.9803 25.2061 28.7077 25.4797L25.4803 28.7072L25.4783 28.7052C25.2296 28.9547 24.8283 28.9942 24.5327 28.7819L21.6834 26.7371C21.3484 26.9148 21.0046 27.0768 20.6524 27.2228C20.3048 27.3668 19.9486 27.4965 19.5821 27.6087L19.0196 31.0176C18.9859 31.3931 18.6712 31.6857 18.287 31.6857H13.725V31.6837C13.3716 31.6837 13.0598 31.4283 13.0011 31.0683L12.4299 27.6084C12.0669 27.4962 11.7098 27.3665 11.3604 27.2216C11.0091 27.0756 10.6654 26.9134 10.3294 26.7359L7.53011 28.7453C7.24216 28.993 6.80622 28.9794 6.53256 28.706L3.30513 25.4786L3.30714 25.4765C3.05759 25.2279 3.01808 24.8265 3.23035 24.531L5.27521 21.6817C5.09753 21.3466 4.93548 21.0011 4.78838 20.6448C4.64441 20.2973 4.51673 19.9421 4.40535 19.5812L0.946434 19.01V19.0091C0.597994 18.9536 0.33192 18.6511 0.33192 18.2862L0.328125 16.0071L0.33192 13.7598C0.313616 13.3922 0.573886 13.061 0.946434 13.0004L4.40535 12.4292C4.51762 12.0645 4.64642 11.7074 4.79039 11.3598C4.93526 11.0094 5.09665 10.6676 5.27433 10.3335L3.24198 7.49752C3.02122 7.20958 3.04332 6.79575 3.30627 6.5317L4.9201 4.91787L4.92211 4.91876L6.50045 3.34442C6.74621 3.06227 7.17056 3.00737 7.48148 3.23013L10.3328 5.27299C10.6669 5.09643 11.0125 4.93415 11.3676 4.78727C11.716 4.6433 12.0703 4.51562 12.4312 4.40424L12.9937 0.996182C13.0274 0.620736 13.3421 0.328125 13.7263 0.328125H18.2883V0.330134C18.6417 0.330134 18.9535 0.585494 19.0122 0.945562L19.0107 0.94591Z" fill="#CC1212"/>
</svg>