<svg width="38" height="38" viewBox="0 0 30 18" fill="none" xmlns="http://www.w3.org/2000/svg">
<path d="M20.7523 0.314453C18.6362 0.314453 16.6181 1.08028 15.034 2.47405L14.1335 1.5736C14.0112 1.45128 13.8132 1.45128 13.6909 1.5736L12.5545 2.70954C12.1875 2.5169 11.8011 2.35753 11.4011 2.23409V0.627407C11.4011 0.454196 11.261 0.314459 11.0882 0.314459H7.47612C7.30336 0.314459 7.16318 0.454636 7.16318 0.627407V2.23386C6.76318 2.35775 6.37655 2.51712 6.00958 2.70931L4.87363 1.57337C4.75131 1.45105 4.55332 1.45105 4.431 1.57337L1.87608 4.12828C1.8176 4.18676 1.78434 4.26645 1.78434 4.34971C1.78434 4.43297 1.81738 4.51221 1.87608 4.57114L3.01249 5.70708C2.81963 6.07472 2.66025 6.46131 2.53659 6.86068H0.930136C0.75737 6.86068 0.617188 7.00064 0.617188 7.17363V10.7852C0.617188 10.9584 0.757365 11.0982 0.930136 11.0982H2.53659C2.66003 11.4982 2.81941 11.8844 3.01204 12.2518L1.8761 13.3877C1.81762 13.4462 1.78435 13.5259 1.78435 13.6092C1.78435 13.6924 1.81739 13.7717 1.8761 13.8306L4.43055 16.385C4.55287 16.5074 4.75087 16.5074 4.87319 16.385L6.00913 15.2491C6.3761 15.4417 6.76273 15.6011 7.16273 15.725V17.3314C7.16273 17.5047 7.30291 17.6444 7.47568 17.6444H11.0875C11.2603 17.6444 11.4005 17.5042 11.4005 17.3314V15.725C11.8005 15.6011 12.1866 15.4417 12.5538 15.2491L13.6902 16.385C13.8125 16.5074 14.0105 16.5074 14.1329 16.385L15.0333 15.4846C16.6177 16.8786 18.6355 17.6442 20.7516 17.6442C25.5302 17.6444 29.4173 13.7573 29.4173 8.97961C29.4173 4.20189 25.5303 0.314464 20.7522 0.314464L20.7523 0.314453ZM16.688 13.8305C16.7465 13.772 16.7797 13.6923 16.7797 13.609C16.7797 13.5258 16.7467 13.4465 16.688 13.3876L15.5516 12.2517C15.7445 11.8847 15.9038 11.4981 16.0275 11.0981H17.6335C17.8067 11.0981 17.9464 10.9579 17.9464 10.7851V7.1735C17.9464 7.00029 17.8063 6.86056 17.6335 6.86056H16.0275C15.9036 6.46056 15.7442 6.07438 15.5516 5.70696L16.688 4.57101C16.7465 4.51253 16.7797 4.43284 16.7797 4.34958C16.7797 4.26633 16.7467 4.18708 16.688 4.12816L16.5146 3.95472C17.6998 2.95157 19.1927 2.40249 20.7523 2.40249C24.3788 2.40249 27.3294 5.35295 27.3294 8.97963C27.3294 12.6063 24.3787 15.5568 20.7523 15.5568C19.1927 15.5568 17.6998 15.0077 16.5146 14.0045L16.688 13.8305ZM13.9119 15.7211L12.8308 14.6405C12.7313 14.5414 12.5768 14.52 12.4543 14.5898C12.0025 14.8477 11.515 15.049 11.0056 15.1876C10.8692 15.2247 10.7746 15.3485 10.7746 15.4896V17.0182H7.78909V15.4896C7.78909 15.3485 7.69445 15.2247 7.55806 15.1876C7.04824 15.049 6.56098 14.8481 6.1092 14.5898C5.98622 14.5195 5.83242 14.541 5.73265 14.6405L4.65207 15.7211L2.54002 13.6095L3.62104 12.5289C3.72082 12.4294 3.74136 12.2749 3.67171 12.1523C3.41346 11.7001 3.21211 11.2129 3.07417 10.7037C3.03712 10.5673 2.91323 10.4726 2.77216 10.4726L1.24359 10.4724V7.48693H2.77193C2.91345 7.48693 3.03711 7.39229 3.07394 7.2559C3.21189 6.7472 3.41278 6.25967 3.67149 5.80721C3.74158 5.68467 3.72082 5.5302 3.62082 5.43065L2.53979 4.35008L4.65184 2.23848L5.73242 3.31905C5.83219 3.41883 5.98643 3.44004 6.10898 3.36972C6.56076 3.11191 7.04829 2.91057 7.55783 2.77195C7.69422 2.7349 7.78886 2.61101 7.78886 2.46994V0.941368H10.7743V2.46994C10.7743 2.61101 10.869 2.73489 11.0054 2.77195C11.5148 2.91057 12.0022 3.11146 12.4541 3.36972C12.5771 3.44048 12.7311 3.41928 12.8306 3.31905L13.9116 2.23848L16.0237 4.35054L14.9427 5.43111C14.8429 5.53066 14.8224 5.68513 14.892 5.80767C15.1503 6.25945 15.3512 6.74716 15.4898 7.25636C15.5268 7.39274 15.6507 7.48738 15.7918 7.48738H17.3201V10.4729H15.7918C15.6507 10.4729 15.5268 10.5675 15.4898 10.7039C15.3512 11.2137 15.1503 11.701 14.892 12.1526C14.8219 12.2751 14.8427 12.4294 14.9427 12.5291L16.0237 13.6097L15.8369 13.7965L13.9119 15.7211ZM20.7525 17.0179C18.8031 17.0179 16.9419 16.3184 15.4766 15.0423L16.0763 14.4425C17.3806 15.5626 19.0268 16.1822 20.7525 16.1822C24.7246 16.1822 27.9559 12.951 27.9559 8.97937C27.9559 5.00771 24.7244 1.77651 20.7525 1.77651C19.0268 1.77651 17.3806 2.3964 16.0763 3.51622L15.4766 2.91645C16.9418 1.63988 18.8029 0.940796 20.7525 0.940796C25.185 0.940796 28.7913 4.5468 28.7913 8.97965C28.7913 13.4125 25.1853 17.0185 20.7525 17.0185V17.0179Z" fill="#CC1212"/>
<path d="M21.0667 14.4083V13.3696C22.2218 13.2156 23.1167 12.2263 23.1167 11.0299C23.1167 9.72678 22.0564 8.66678 20.7536 8.66678C19.7957 8.66678 19.0165 7.88753 19.0165 6.92976C19.0165 5.97193 19.7958 5.19273 20.7536 5.19273H22.8036C22.9768 5.19273 23.1165 5.05255 23.1165 4.87978C23.1165 4.70701 22.9763 4.56683 22.8036 4.56683H21.0665V3.55123C21.0665 3.37802 20.9263 3.23828 20.7536 3.23828C20.5808 3.23828 20.4406 3.37846 20.4406 3.55123V4.58986C19.2855 4.74387 18.3906 5.73317 18.3906 6.92957C18.3906 8.23272 19.4509 9.29272 20.7538 9.29272C21.7116 9.29272 22.4908 10.072 22.4908 11.0297C22.4908 11.9876 21.7115 12.7668 20.7538 12.7668H18.7038C18.5306 12.7668 18.3908 12.9069 18.3908 13.0797C18.3908 13.2525 18.531 13.3927 18.7038 13.3927H20.4408V14.4083C20.4408 14.5815 20.581 14.7212 20.7537 14.7212C20.9265 14.7212 21.0667 14.5815 21.0667 14.4083Z" fill="#CC1212"/>
<path d="M9.28104 4.52734C6.82567 4.52734 4.82812 6.52489 4.82812 8.98026C4.82812 11.4356 6.82567 13.4332 9.28104 13.4332C11.7364 13.4332 13.7342 11.4356 13.7342 8.98026C13.7342 6.52489 11.7364 4.52734 9.28104 4.52734ZM9.28104 12.8068C7.17098 12.8068 5.45447 11.09 5.45447 8.97997C5.45447 6.86991 7.17121 5.15317 9.28104 5.15317C11.3911 5.15317 13.1078 6.86991 13.1078 8.97997C13.1078 11.09 11.3913 12.8068 9.28104 12.8068Z" fill="#CC1212"/>
</svg>