<svg width="38" height="38" viewBox="0 0 32 28" fill="none" xmlns="http://www.w3.org/2000/svg">
<path d="M17.831 9.80235H25.8642V6.27623H17.2345C17.6242 7.2488 17.8394 8.31149 17.8394 9.42309C17.8394 9.54988 17.8365 9.67644 17.8307 9.80233L17.831 9.80235ZM5.35675 10.8258C5.0755 10.5445 5.0755 10.0885 5.35675 9.80726C5.638 9.52601 6.09401 9.52601 6.37526 9.80726L7.89401 11.326L12.3014 5.9912C12.5538 5.68495 13.0078 5.64276 13.3141 5.89522C13.6204 6.14768 13.6626 6.60168 13.4101 6.90796L8.45365 12.9034C8.17239 13.1846 7.71639 13.1846 7.43513 12.9034L5.35679 10.825L5.35675 10.8258ZM15.4859 5.9508C15.4714 5.92871 15.4571 5.90571 15.4455 5.88161C15.1468 5.37 14.7879 4.89944 14.3752 4.48092L14.3377 4.44632C13.0638 3.17244 11.304 2.38518 9.3609 2.38518C7.41782 2.38518 5.65822 3.17244 4.3841 4.44632C3.11022 5.72021 2.32296 7.48004 2.32296 9.42313C2.32296 11.3662 3.11022 13.1258 4.3841 14.3999C5.65622 15.6738 7.41582 16.4611 9.3609 16.4611C11.306 16.4611 13.0656 15.6738 14.3395 14.4008C15.6116 13.1278 16.3998 11.3671 16.3998 9.42221C16.3998 8.1597 16.0676 6.97421 15.4868 5.94987L15.4859 5.9508ZM16.4901 4.83629H26.5838C26.9814 4.83629 27.3039 5.15883 27.3039 5.5564V9.80263H28.841C29.2385 9.80263 29.5611 10.1252 29.5611 10.5227V16.2799C29.6841 16.3424 29.801 16.4105 29.9115 16.4835C30.6296 16.9587 31.0751 17.6431 31.0751 18.4228C31.0751 19.2033 30.6307 19.8877 29.9126 20.3629C29.8021 20.4359 29.6852 20.504 29.5622 20.5665V26.3225C29.5622 26.7201 29.2396 27.0426 28.8421 27.0426H5.82092C5.05103 27.0426 4.35018 26.7277 3.84326 26.2199C3.33634 25.713 3.02138 25.0132 3.02138 24.2422V17.9708C3.02138 17.5733 3.34392 17.2507 3.74149 17.2507C4.13906 17.2507 4.46161 17.5732 4.46161 17.9708V24.2422C4.46161 24.6148 4.61518 24.9556 4.86183 25.2014C5.10848 25.448 5.44846 25.6016 5.82189 25.6016H28.123V20.9974C27.9166 21.0233 27.7054 21.0378 27.4893 21.0378C26.5551 21.0378 25.6969 20.7795 25.0652 20.3619C24.3471 19.8867 23.9027 19.2023 23.9027 18.4217C23.9027 17.6411 24.3471 16.9567 25.0663 16.4824C25.6971 16.0648 26.5562 15.8065 27.4893 15.8065C27.7053 15.8065 27.9165 15.821 28.123 15.8469V11.2427H17.6441C17.2919 12.8516 16.4816 14.2907 15.3573 15.4148L15.3544 15.4177C13.8202 16.9519 11.7006 17.9012 9.36178 17.9012C7.0223 17.9012 4.9035 16.9516 3.36921 15.4177C1.83218 13.8835 0.882812 11.763 0.882812 9.42227C0.882812 7.08073 1.83236 4.96113 3.3663 3.42685C4.90047 1.89267 7.02007 0.943359 9.36173 0.943359C11.7021 0.943359 13.8229 1.8929 15.3572 3.42685L15.3976 3.47104C15.8065 3.88666 16.1741 4.34361 16.492 4.83624L16.4901 4.83629ZM28.6398 17.442C28.6131 17.4344 28.5881 17.4257 28.563 17.4152C28.2463 17.3076 27.8805 17.2471 27.4878 17.2471C26.839 17.2471 26.2628 17.4132 25.8577 17.6811C25.539 17.8922 25.3412 18.1563 25.3412 18.4222C25.3412 18.6891 25.539 18.9541 25.8568 19.1643C26.262 19.4322 26.8379 19.5983 27.4879 19.5983C27.8785 19.5983 28.2435 19.5378 28.5602 19.4313C28.5881 19.4197 28.6169 19.4092 28.6466 19.4005C28.8214 19.3353 28.9807 19.2556 29.1189 19.1634C29.4377 18.9532 29.6345 18.6882 29.6345 18.4213C29.6345 18.1543 29.4368 17.8905 29.118 17.6802C28.9778 17.5871 28.8167 17.5065 28.6399 17.4411L28.6398 17.442Z" fill="url(#paint0_linear_4087_26936)"/>
<defs>
<linearGradient id="paint0_linear_4087_26936" x1="24.4059" y1="0.943359" x2="24.3026" y2="32.6357" gradientUnits="userSpaceOnUse">
<stop stop-color="#005CAA"/>
<stop offset="1" stop-color="#64B0F1"/>
</linearGradient>
</defs>
</svg>