<svg width="38" height="38" viewBox="0 0 32 32" fill="none" xmlns="http://www.w3.org/2000/svg">
<path d="M30.8929 7.43828L31.8617 6.32576L30.8304 3.83828L29.3617 3.73202C29.0304 3.31952 28.6554 2.94454 28.2429 2.61328L28.1367 1.14454L25.6554 0.113281L24.5429 1.08202C24.0179 1.02577 23.4929 1.02577 22.9679 1.08202L21.8492 0.113281L19.3617 1.14454L19.2555 2.61328C18.843 2.94453 18.468 3.31951 18.1367 3.73202L16.668 3.83828L15.6367 6.32576L16.6055 7.43828C16.5492 7.96328 16.5492 8.48828 16.6055 9.01325L15.6367 10.1258L16.668 12.6132L18.1367 12.7195C18.468 13.132 18.8429 13.507 19.2555 13.8382L19.3617 15.307L21.8492 16.3382L22.9617 15.3695C23.4867 15.4257 24.0117 15.4257 24.5367 15.3695L25.6492 16.3382L28.1367 15.307L28.2429 13.8382C28.6554 13.507 29.0304 13.132 29.3617 12.7195L30.8304 12.6132L31.8617 10.1258L30.8929 9.01325C30.9554 8.48825 30.9554 7.96325 30.8929 7.43828ZM29.8492 7.34453C29.9367 7.92578 29.9367 8.5195 29.8492 9.10076L29.8179 9.33201L30.6741 10.3195L30.1304 11.632L28.8304 11.7258L28.6866 11.9133C28.3366 12.382 27.9179 12.8007 27.4429 13.157L27.2554 13.3008L27.1616 14.6008L25.8491 15.1445L24.8616 14.2883L24.6304 14.3195C24.0491 14.4008 23.4554 14.4008 22.8741 14.3195L22.6429 14.2883L21.6554 15.1445L20.3429 14.6008L20.2491 13.3008L20.0617 13.157C19.5929 12.807 19.1742 12.3883 18.8179 11.9133L18.6741 11.7258L17.3741 11.632L16.8304 10.3195L17.6866 9.33201L17.6554 9.10076C17.5679 8.5195 17.5679 7.92578 17.6554 7.34453L17.6866 7.11328L16.8304 6.12579L17.3741 4.81328L18.6741 4.71953L18.8116 4.53203C19.1616 4.06328 19.5804 3.64454 20.0554 3.28826L20.2429 3.14451L20.3366 1.84451L21.6492 1.30076L22.6366 2.15699L22.8679 2.12574C23.4492 2.04449 24.0429 2.04449 24.6241 2.12574L24.8554 2.15699L25.8429 1.30076L27.1554 1.84451L27.2491 3.14451L27.4366 3.28826C27.9054 3.63826 28.3241 4.057 28.6804 4.53203L28.8241 4.71953L30.1241 4.81328L30.6679 6.12579L29.8117 7.11328L29.8492 7.34453Z" fill="url(#paint0_linear_3878_19483)"/>
<path d="M25.7197 3.47578C24.451 2.95078 23.0572 2.95078 21.7885 3.47578C19.1697 4.56327 17.9259 7.56955 19.0072 10.1884C19.8259 12.1633 21.7447 13.3633 23.7634 13.3633C24.4197 13.3633 25.0822 13.2383 25.7259 12.9696C26.9947 12.4446 27.9822 11.4571 28.5072 10.1883C29.0322 8.91958 29.0322 7.5258 28.5072 6.25706C27.976 4.98832 26.9885 4.00081 25.7197 3.47578ZM27.551 9.79464C27.1322 10.8072 26.3385 11.6009 25.3259 12.0197C23.2322 12.8884 20.8197 11.8884 19.9572 9.79464C19.0885 7.70087 20.0885 5.28841 22.1822 4.4259C22.6885 4.21339 23.2197 4.11339 23.7572 4.11339C24.2885 4.11339 24.8259 4.21964 25.3322 4.4259C26.3447 4.84464 27.1384 5.63841 27.5572 6.65092C27.9697 7.66344 27.9697 8.78218 27.551 9.7947L27.551 9.79464Z" fill="url(#paint1_linear_3878_19483)"/>
<path d="M18.3758 16.9336L19.0071 15.6711L16.3008 12.9648L15.0383 13.5961C14.3196 13.1773 13.5508 12.8586 12.7446 12.6461L12.3008 11.3086H8.47577L8.03202 12.6461C7.23202 12.8586 6.46328 13.1773 5.73825 13.5961L4.47574 12.9648L1.76951 15.6711L2.40077 16.9336C1.98202 17.6523 1.66328 18.4211 1.45077 19.2273L0.113281 19.6773V23.5024L1.45077 23.9461C1.66327 24.7461 1.98202 25.5149 2.40077 26.2399L1.76951 27.5024L4.47574 30.2086L5.73825 29.5711C6.457 29.9899 7.22574 30.3086 8.03202 30.5211L8.47577 31.8586H12.3008L12.7446 30.5211C13.5446 30.3086 14.3133 29.9899 15.0383 29.5711L16.3008 30.2024L19.0071 27.4962L18.3758 26.2399C18.7946 25.5212 19.1133 24.7525 19.3258 23.9462L20.6633 23.5024V19.6774L19.3258 19.2336C19.1196 18.4274 18.8008 17.6587 18.3758 16.9336V16.9336ZM19.6383 22.7587L18.4571 23.1525L18.3946 23.4337C18.1883 24.3212 17.8383 25.165 17.3508 25.9399L17.1945 26.1837L17.7508 27.2962L16.0946 28.9524L14.982 28.3962L14.7383 28.5524C13.9633 29.0399 13.1196 29.3899 12.2321 29.5962L11.9508 29.6587L11.5571 30.84H9.2133L8.81955 29.6587L8.5383 29.5962C7.65081 29.3899 6.80704 29.0399 6.03207 28.5524L5.78832 28.3962L4.67581 28.9587L3.01958 27.3025L3.57583 26.1899L3.42583 25.9462C2.93833 25.1712 2.58834 24.3274 2.38206 23.44L2.31956 23.1587L1.1383 22.765V20.4212L2.31956 20.0274L2.38206 19.7462C2.58831 18.8587 2.93831 18.0149 3.42583 17.24L3.57583 16.9962L3.01958 15.8837L4.67581 14.2212L5.78832 14.7774L6.03207 14.6274C6.80704 14.1399 7.65081 13.7899 8.5383 13.5837L8.81955 13.5212L9.2133 12.3399H11.5571L11.9508 13.5212L12.2321 13.5837C13.1196 13.7899 13.9633 14.1399 14.7383 14.6274L14.982 14.7837L16.0946 14.2274L17.7508 15.8837L17.1945 16.9962L17.3508 17.2399C17.8383 18.0149 18.1883 18.8587 18.3946 19.7462L18.4571 20.0274L19.6383 20.4212V22.7587Z" fill="url(#paint2_linear_3878_19483)"/>
<path d="M10.3882 14.9062C6.70692 14.9062 3.70703 17.9 3.70703 21.5874C3.70703 23.9436 4.93829 26.0187 6.78829 27.2061V27.2374H6.84454C7.8758 27.8874 9.08831 28.2624 10.3883 28.2624C11.6883 28.2624 12.9008 27.8812 13.9321 27.2374H13.9883V27.2061C15.8383 26.0187 17.0696 23.9436 17.0696 21.5874C17.0696 17.8999 14.0758 14.9062 10.3884 14.9062H10.3882ZM7.81943 26.6125V26.2063C7.81943 24.7875 8.96943 23.6375 10.3882 23.6375C11.8069 23.6375 12.9569 24.7875 12.9569 26.2063V26.6125C12.1819 27.0063 11.3131 27.2376 10.3882 27.2376C9.4632 27.2376 8.5944 27.0126 7.81943 26.6125ZM10.3882 22.1C9.81943 22.1 9.36315 21.6375 9.36315 21.075C9.36315 20.5062 9.82565 20.05 10.3882 20.05C10.9507 20.05 11.4132 20.5125 11.4132 21.075C11.4195 21.6375 10.957 22.1 10.3882 22.1ZM13.9757 25.95C13.8694 24.4688 12.8694 23.2375 11.5069 22.7875C12.0694 22.4188 12.4444 21.7875 12.4444 21.0688C12.4444 19.9375 11.5194 19.0125 10.3882 19.0125C9.25697 19.0125 8.33195 19.9376 8.33195 21.0688C8.33195 21.7875 8.70695 22.425 9.26943 22.7875C7.90692 23.2313 6.90692 24.4688 6.80069 25.95C5.54446 24.9125 4.73817 23.3438 4.73817 21.5875C4.73817 18.4688 7.27566 15.9375 10.3882 15.9375C13.5007 15.9375 16.0382 18.475 16.0382 21.5875C16.0444 23.3437 15.2382 24.9125 13.9757 25.95Z" fill="url(#paint3_linear_3878_19483)"/>
<path d="M9.875 12.8516H10.9V13.8766H9.875V12.8516Z" fill="url(#paint4_linear_3878_19483)"/>
<path d="M9.875 29.293H10.9V30.318H9.875V29.293Z" fill="url(#paint5_linear_3878_19483)"/>
<path d="M16.2053 15.043L16.9301 15.7678L16.2053 16.4926L15.4805 15.7678L16.2053 15.043Z" fill="url(#paint6_linear_3878_19483)"/>
<path d="M4.58027 28.1254L3.85547 27.4006L4.58027 26.6758L5.30507 27.4006L4.58027 28.1254Z" fill="url(#paint7_linear_3878_19483)"/>
<path d="M18.1016 21.0703H19.1266V22.0953H18.1016V21.0703Z" fill="url(#paint8_linear_3878_19483)"/>
<path d="M1.65625 21.0703H2.68128V22.0953H1.65625V21.0703Z" fill="url(#paint9_linear_3878_19483)"/>
<path d="M16.2092 28.1254L15.4844 27.4006L16.2092 26.6758L16.934 27.4006L16.2092 28.1254Z" fill="url(#paint10_linear_3878_19483)"/>
<path d="M4.57636 15.043L5.30116 15.7678L4.57636 16.4926L3.85156 15.7678L4.57636 15.043Z" fill="url(#paint11_linear_3878_19483)"/>
<defs>
<linearGradient id="paint0_linear_3878_19483" x1="28.2777" y1="0.113281" x2="28.2034" y2="19.8152" gradientUnits="userSpaceOnUse">
<stop stop-color="#005CAA"/>
<stop offset="1" stop-color="#64B0F1"/>
</linearGradient>
<linearGradient id="paint1_linear_3878_19483" x1="26.6294" y1="3.08203" x2="26.5823" y2="15.5665" gradientUnits="userSpaceOnUse">
<stop stop-color="#005CAA"/>
<stop offset="1" stop-color="#64B0F1"/>
</linearGradient>
<linearGradient id="paint2_linear_3878_19483" x1="16.124" y1="11.3086" x2="16.0298" y2="36.2624" gradientUnits="userSpaceOnUse">
<stop stop-color="#005CAA"/>
<stop offset="1" stop-color="#64B0F1"/>
</linearGradient>
<linearGradient id="paint3_linear_3878_19483" x1="14.1179" y1="14.9062" x2="14.0568" y2="31.1246" gradientUnits="userSpaceOnUse">
<stop stop-color="#005CAA"/>
<stop offset="1" stop-color="#64B0F1"/>
</linearGradient>
<linearGradient id="paint4_linear_3878_19483" x1="10.6736" y1="12.8516" x2="10.6689" y2="14.0962" gradientUnits="userSpaceOnUse">
<stop stop-color="#005CAA"/>
<stop offset="1" stop-color="#64B0F1"/>
</linearGradient>
<linearGradient id="paint5_linear_3878_19483" x1="10.6736" y1="29.293" x2="10.6689" y2="30.5377" gradientUnits="userSpaceOnUse">
<stop stop-color="#005CAA"/>
<stop offset="1" stop-color="#64B0F1"/>
</linearGradient>
<linearGradient id="paint6_linear_3878_19483" x1="16.6099" y1="15.043" x2="16.6032" y2="16.8032" gradientUnits="userSpaceOnUse">
<stop stop-color="#005CAA"/>
<stop offset="1" stop-color="#64B0F1"/>
</linearGradient>
<linearGradient id="paint7_linear_3878_19483" x1="4.98487" y1="26.6758" x2="4.97822" y2="28.436" gradientUnits="userSpaceOnUse">
<stop stop-color="#005CAA"/>
<stop offset="1" stop-color="#64B0F1"/>
</linearGradient>
<linearGradient id="paint8_linear_3878_19483" x1="18.9002" y1="21.0703" x2="18.8955" y2="22.315" gradientUnits="userSpaceOnUse">
<stop stop-color="#005CAA"/>
<stop offset="1" stop-color="#64B0F1"/>
</linearGradient>
<linearGradient id="paint9_linear_3878_19483" x1="2.45486" y1="21.0703" x2="2.45016" y2="22.315" gradientUnits="userSpaceOnUse">
<stop stop-color="#005CAA"/>
<stop offset="1" stop-color="#64B0F1"/>
</linearGradient>
<linearGradient id="paint10_linear_3878_19483" x1="16.6138" y1="26.6758" x2="16.6071" y2="28.436" gradientUnits="userSpaceOnUse">
<stop stop-color="#005CAA"/>
<stop offset="1" stop-color="#64B0F1"/>
</linearGradient>
<linearGradient id="paint11_linear_3878_19483" x1="4.98096" y1="15.043" x2="4.97432" y2="16.8032" gradientUnits="userSpaceOnUse">
<stop stop-color="#005CAA"/>
<stop offset="1" stop-color="#64B0F1"/>
</linearGradient>
</defs>
</svg>