<svg width="33" height="33" viewBox="0 0 33 29" fill="none" xmlns="http://www.w3.org/2000/svg">
                            <path
                                d="M21.3233 11.8704C21.153 11.9023 21.0096 12.016 20.9396 12.1744C20.8556 12.3514 20.7228 12.5008 20.5565 12.6047C20.262 12.7918 19.8938 12.8204 19.574 12.6809C19.2542 12.5414 19.0245 12.2522 18.9612 11.9089C18.8982 11.5658 19.0096 11.2137 19.2586 10.9695C19.339 10.8873 19.4339 10.821 19.5385 10.7735C19.6966 10.7035 19.8099 10.5596 19.8413 10.3896C19.873 10.2194 19.8185 10.0446 19.6959 9.92243L17.7736 8.00009C17.4782 7.70489 17.078 7.53906 16.6604 7.53906C16.2429 7.53906 15.8425 7.70489 15.5473 8.00009L14.3858 9.16155V9.16133C14.2967 9.00802 14.1882 8.86701 14.0627 8.74159C13.632 8.30736 13.0324 8.08423 12.4227 8.13123C11.8237 8.17516 11.2722 8.47365 10.9078 8.95116C10.5434 9.42866 10.4009 10.0393 10.5164 10.6286C10.6319 11.2181 10.9946 11.7296 11.512 12.0343L10.3517 13.194H10.3519C10.0565 13.4892 9.89062 13.8898 9.89062 14.3074C9.89062 14.7249 10.0565 15.1256 10.3519 15.4208L12.2742 17.3431C12.3963 17.4654 12.571 17.5197 12.741 17.4883C12.911 17.4569 13.0546 17.3435 13.1249 17.1856C13.1723 17.0813 13.2389 16.9864 13.3206 16.906C13.5646 16.6558 13.9171 16.5434 14.2609 16.6062C14.6047 16.669 14.8948 16.899 15.0343 17.2194C15.174 17.5397 15.145 17.9087 14.957 18.2032C14.8528 18.3693 14.7033 18.5021 14.526 18.5858C14.3679 18.6561 14.2545 18.7998 14.2231 18.97C14.1917 19.1402 14.2462 19.3148 14.3688 19.4372L15.9201 20.9885L15.9199 20.9883C16.2157 21.2828 16.6159 21.448 17.033 21.448C17.4504 21.448 17.8505 21.2828 18.1462 20.9883L19.2598 19.8747C19.792 20.3952 20.5599 20.5951 21.2783 20.4001C21.9965 20.2048 22.5579 19.6438 22.7534 18.9256C22.9489 18.2074 22.7494 17.4392 22.2291 16.9071L23.3427 15.7935V15.7933C23.6379 15.4981 23.8037 15.0977 23.8037 14.6803C23.8037 14.2628 23.6379 13.8624 23.3427 13.5672L21.7905 12.0154C21.6686 11.8919 21.4936 11.8377 21.3233 11.8704L21.3233 11.8704ZM22.7529 14.6797C22.7532 14.8189 22.6978 14.9527 22.5992 15.0509L21.0483 16.602C20.9279 16.7226 20.8737 16.8941 20.9024 17.0619C20.9314 17.2297 21.0399 17.3731 21.1937 17.4465C21.3018 17.497 21.4006 17.5651 21.486 17.6486C21.7085 17.8662 21.823 18.1718 21.7984 18.4821C21.7735 18.7927 21.6121 19.0762 21.3578 19.2559C21.1034 19.4358 20.7825 19.4931 20.4816 19.413C20.1805 19.3328 19.9307 19.1228 19.7998 18.8403C19.7265 18.6866 19.583 18.5781 19.4152 18.5491C19.2474 18.5203 19.0759 18.5746 18.9553 18.6949L17.404 20.2456L17.4042 20.2458C17.199 20.4505 16.8669 20.4505 16.662 20.2458L15.5489 19.1333V19.1331C15.6578 19.0244 15.7549 18.9043 15.8386 18.7753C16.2164 18.188 16.2776 17.4513 16.0015 16.81C15.7257 16.1684 15.1489 15.7063 14.4627 15.5767C13.7766 15.4471 13.0709 15.6671 12.5802 16.1637L11.0961 14.6796C10.8911 14.4747 10.8911 14.1426 11.0961 13.9376L12.8694 12.1638H12.8692C13.0162 12.0171 13.0625 11.7974 12.9878 11.6037C12.9132 11.41 12.7313 11.2787 12.524 11.2685C12.1789 11.2536 11.8639 11.0676 11.6842 10.7726C11.5046 10.4776 11.4815 10.113 11.6225 9.79759C11.7637 9.4824 12.0508 9.25661 12.3906 9.19426C12.7304 9.13166 13.0792 9.24038 13.3232 9.48463C13.5051 9.66825 13.6118 9.91293 13.6228 10.171C13.6333 10.3784 13.7647 10.56 13.9584 10.6347C14.1521 10.7091 14.3716 10.6626 14.5183 10.5158L16.2921 8.74245V8.74267C16.497 8.53775 16.8291 8.53775 17.0341 8.74267L18.5182 10.2268C18.0842 10.66 17.8612 11.2612 17.908 11.8726C17.9546 12.4839 18.2665 13.0444 18.7611 13.4066C19.1027 13.6541 19.5105 13.7938 19.932 13.8079C20.3537 13.8217 20.7697 13.7093 21.1269 13.4848C21.256 13.4009 21.376 13.304 21.4849 13.1955L22.5991 14.3087C22.698 14.4067 22.7533 14.5404 22.7529 14.6797L22.7529 14.6797Z"
                                fill="white" />
                            <path
                                d="M16.6678 3.81261C13.8841 3.81261 11.2143 4.91852 9.24623 6.88697C7.27778 8.85519 6.17188 11.5249 6.17188 14.3086C6.17188 17.0922 7.27778 19.7621 9.24623 21.7302C11.2145 23.6986 13.8842 24.8045 16.6678 24.8045C19.4515 24.8045 22.1213 23.6986 24.0894 21.7302C26.0579 19.762 27.1638 17.0922 27.1638 14.3086C27.1605 11.5259 26.0537 8.85789 24.086 6.89034C22.1184 4.92256 19.4504 3.81576 16.6677 3.8125L16.6678 3.81261ZM16.6678 23.7552C14.1626 23.7552 11.7597 22.76 9.98845 20.9884C8.2168 19.2169 7.22161 16.8141 7.22161 14.309C7.22161 11.8039 8.2168 9.40083 9.98845 7.62958C11.7599 5.85793 14.1627 4.86274 16.6678 4.86274C19.1729 4.86274 21.576 5.85793 23.3472 7.62958C25.1189 9.401 26.1141 11.8039 26.1141 14.309C26.1112 16.8133 25.1149 19.2145 23.3441 20.9855C21.5732 22.7563 19.172 23.7526 16.6676 23.7555L16.6678 23.7552Z"
                                fill="white" />
                            <path
                                d="M19.6369 15.0517L17.4101 17.2785L17.4104 17.2782C17.3091 17.3762 17.2513 17.5104 17.25 17.6512C17.2489 17.792 17.3043 17.9273 17.4038 18.027C17.5033 18.1265 17.6386 18.1819 17.7794 18.1805C17.9201 18.1794 18.0546 18.1217 18.1523 18.0204L20.3791 15.7936C20.5779 15.5878 20.5752 15.2604 20.3727 15.0581C20.1702 14.8556 19.8429 14.8527 19.6369 15.0517Z"
                                fill="white" />
                            <path
                                d="M15.551 10.9695L13.3242 13.1963C13.223 13.294 13.1654 13.4284 13.1641 13.5692C13.1628 13.71 13.2181 13.8453 13.3178 13.9448C13.4173 14.0445 13.5526 14.0999 13.6934 14.0986C13.8342 14.0975 13.9686 14.0397 14.0664 13.9384L16.2931 11.7117C16.4919 11.5057 16.4891 11.1784 16.2868 10.9759C16.0843 10.7736 15.757 10.7707 15.551 10.9695Z"
                                fill="white" />
                            <path
                                d="M2.64865 15.2045C2.85357 15.4092 3.1859 15.4092 3.39081 15.2045L4.96521 13.6301C5.16399 13.4241 5.16113 13.0968 4.95862 12.8943C4.75633 12.692 4.42906 12.6892 4.22304 12.8879L3.56871 13.5425C3.74113 10.5801 4.91246 7.76388 6.8917 5.55353C8.87089 3.34307 11.5409 1.86859 14.4663 1.37085C17.3914 0.873361 20.3989 1.38184 22.9978 2.81368C25.5967 4.24552 27.6334 6.51599 28.7759 9.2541C28.8874 9.52163 29.1949 9.64792 29.4625 9.53634C29.591 9.48253 29.6929 9.38018 29.7458 9.25124C29.7988 9.12253 29.7983 8.97801 29.7445 8.84952C28.5081 5.88256 26.2998 3.42436 23.4818 1.8783C20.6637 0.33224 17.404 -0.21031 14.2372 0.340337C11.0706 0.890983 8.18533 2.50182 6.05483 4.90868C3.92428 7.31532 2.67538 10.3749 2.51333 13.5848L1.81638 12.8878C1.71842 12.7865 1.58422 12.7288 1.44343 12.7277C1.30264 12.7264 1.16733 12.7817 1.06762 12.8812C0.968121 12.9809 0.91277 13.1162 0.914085 13.257C0.915184 13.3978 0.972951 13.532 1.07421 13.63L2.64865 15.2045Z"
                                fill="white" />
                            <path
                                d="M30.6834 13.4133C30.4785 13.2086 30.1462 13.2086 29.9413 13.4133L28.3669 14.9877C28.1681 15.1937 28.171 15.521 28.3735 15.7235C28.5758 15.9258 28.903 15.9286 29.1091 15.7299L29.7634 15.0755V15.0753C29.591 18.0377 28.4196 20.8539 26.4404 23.0643C24.4612 25.2747 21.7912 26.7492 18.8658 27.247C15.9407 27.7444 12.9332 27.236 10.3343 25.8041C7.73539 24.3723 5.69874 22.1018 4.55623 19.3637C4.44465 19.0962 4.13715 18.9699 3.86962 19.0815C3.6021 19.1933 3.4758 19.5008 3.5876 19.7683C4.82395 22.7353 7.03227 25.1935 9.85034 26.7395C12.6684 28.2856 15.9281 28.8281 19.0949 28.2775C22.2614 27.7268 25.1468 26.116 27.2773 23.7091C29.4078 21.3025 30.6567 18.2429 30.8188 15.0331L31.5157 15.73C31.7217 15.9288 32.049 15.9259 32.2515 15.7236C32.4538 15.5211 32.4567 15.1939 32.2579 14.9878L30.6834 13.4133Z"
                                fill="white" />
</svg>