  <svg width="33" height="33" viewBox="0 0 30 30" fill="none" xmlns="http://www.w3.org/2000/svg">
                            <path
                                d="M16.4166 2.37695H12.4712C12.2517 2.37695 12.0703 2.55816 12.0703 2.7778C12.0703 2.99722 12.2515 3.17865 12.4712 3.17865H16.4166C16.636 3.17865 16.8175 2.99744 16.8175 2.7778C16.8172 2.55838 16.636 2.37695 16.4166 2.37695Z"
                                fill="white" />
                            <path
                                d="M27.8015 6.56644H23.9608V4.93008C23.9608 4.92525 23.9656 4.92064 23.9656 4.9158C23.9656 4.91097 23.9608 4.90636 23.9608 4.90153L23.961 2.92627C23.961 1.44718 22.7587 0.240234 21.2798 0.240234H7.61572C6.13663 0.240234 4.93452 1.44257 4.93452 2.92627V4.90614C4.93452 4.91097 4.92969 4.91558 4.92969 4.92041C4.92969 4.92525 4.93452 4.92986 4.93452 4.93469V6.48514C4.93452 6.70456 5.11573 6.88599 5.33537 6.88599C5.55479 6.88599 5.73622 6.70478 5.73622 6.48514V5.32104H23.1547V6.571L15.8742 6.57122C14.7292 6.57122 13.7988 7.50163 13.7988 8.64662V20.5789C13.7988 21.7239 14.7292 22.6543 15.8742 22.6543H23.1547V23.7993H5.74071V20.3546C5.74071 20.1352 5.55951 19.9537 5.33987 19.9537C5.12044 19.9537 4.93902 20.1349 4.93902 20.3546V24.1856C4.93902 24.1904 4.93419 24.1951 4.93419 24.1999C4.93419 24.2047 4.93902 24.2093 4.93902 24.2142V26.6568C4.93902 28.1359 6.14135 29.338 7.62022 29.338H21.2843C21.4513 29.338 21.5993 29.3237 21.7328 29.2998L21.6564 28.9086L21.8042 29.2903C21.8949 29.2761 21.976 29.2521 22.057 29.2284C22.5484 29.0852 22.9826 28.799 23.2975 28.4317C23.3404 28.3841 23.3834 28.341 23.4263 28.2791C23.4979 28.1838 23.5646 28.0834 23.6362 27.9498C23.6602 27.907 23.6791 27.8688 23.6936 27.8449C23.7746 27.6825 23.8414 27.4965 23.8987 27.2771C23.913 27.2006 23.9273 27.1244 23.9369 27.0434V27.0339C23.9464 26.9766 23.956 26.9147 23.956 26.8527C23.9609 26.8193 23.9609 26.7954 23.9609 26.7717V26.7383V24.2431C23.9609 24.2289 23.9703 24.2192 23.9703 24.2049C23.9703 24.1906 23.9655 24.181 23.9609 24.1667V22.6591H27.8062C28.9512 22.6591 29.8816 21.7287 29.8816 20.5837V8.64188C29.8767 7.49689 28.9463 6.56648 27.8013 6.56648L27.8015 6.56644ZM5.73629 4.515V2.92632C5.73629 1.88632 6.58084 1.04176 7.61601 1.04176H21.2801C22.3155 1.04176 23.1598 1.88632 23.1598 2.92632V4.51984H5.73629V4.515ZM23.1503 26.7382C23.1454 26.7573 23.1454 26.7764 23.1454 26.8002C23.1454 26.8384 23.1406 26.8766 23.1312 26.9146C23.1312 26.924 23.1263 26.9337 23.1263 26.948C23.1215 27.0005 23.1121 27.053 23.1024 27.0912C23.0642 27.239 23.0165 27.3679 22.9546 27.4967C22.9497 27.5109 22.9403 27.53 22.9306 27.5443C22.9258 27.5491 22.9067 27.5871 22.9067 27.592C22.8639 27.6684 22.816 27.7352 22.7732 27.7971C22.7589 27.8162 22.7398 27.8353 22.7015 27.8782C22.4725 28.1501 22.1672 28.3504 21.819 28.4508C21.7617 28.4699 21.7092 28.4842 21.6521 28.4936L21.5757 28.5079C21.4898 28.5222 21.3896 28.5319 21.2752 28.5319L7.61615 28.5321C6.58076 28.5321 5.73643 27.6875 5.73643 26.6523V24.5961H23.1504V26.7286V26.7383L23.1503 26.7382ZM29.0756 20.5744C29.0756 21.2758 28.503 21.8484 27.8017 21.8484H23.5652H23.5558H23.5464L15.8745 21.8481C15.1732 21.8481 14.6006 21.2755 14.6006 20.5742L14.6008 8.64252C14.6008 7.94118 15.1735 7.36861 15.8747 7.36861H27.802C28.5033 7.36861 29.0759 7.94124 29.0759 8.64252L29.0756 20.5744Z"
                                fill="white" />
                            <path
                                d="M27.4977 8.54102H16.1665C15.9471 8.54102 15.7656 8.72222 15.7656 8.94186V11.8425C15.7656 12.0619 15.9468 12.2433 16.1665 12.2433H27.4977C27.7171 12.2433 27.8985 12.0621 27.8985 11.8425V8.94186C27.8985 8.72222 27.7171 8.54102 27.4977 8.54102ZM27.0968 11.4416H16.5674V9.3425H27.0968V11.4416Z"
                                fill="white" />
                            <path
                                d="M27.4979 13.0977H23.5571C23.3377 13.0977 23.1562 13.2789 23.1562 13.4985V16.3991C23.1562 16.6185 23.3375 16.8 23.5571 16.8H27.4979C27.7174 16.8 27.8988 16.6188 27.8988 16.3991V13.4983C27.8988 13.2789 27.7174 13.0977 27.4979 13.0977ZM27.0971 15.9983H23.9577V13.8991H27.0971V15.9983Z"
                                fill="white" />
                            <path
                                d="M20.1073 13.0977H16.1665C15.9471 13.0977 15.7656 13.2789 15.7656 13.4985V16.3991C15.7656 16.6185 15.9468 16.8 16.1665 16.8H20.1073C20.3267 16.8 20.5082 16.6188 20.5082 16.3991L20.5079 13.4983C20.5079 13.2789 20.3267 13.0977 20.1073 13.0977ZM19.7065 15.9983H16.5671V13.8991H19.7065V15.9983Z"
                                fill="white" />
                            <path
                                d="M5.78299 16.1334C7.24296 16.1143 8.42134 14.9073 8.40706 13.4474C8.38795 11.9971 7.20011 10.8281 5.74959 10.8281H5.72103C4.25645 10.8472 3.08268 12.0496 3.10179 13.5093C3.11124 14.2201 3.39282 14.8834 3.90327 15.3796C4.40428 15.8663 5.05793 16.1334 5.75443 16.1334H5.78299ZM3.89843 13.4999C3.88415 12.479 4.70475 11.6393 5.72563 11.6296H5.74474C6.75618 11.6296 7.58623 12.4454 7.60073 13.4568C7.61018 14.4777 6.78958 15.3174 5.76869 15.3317C5.27735 15.3411 4.80972 15.1505 4.45677 14.8021C4.10359 14.4588 3.90326 13.996 3.89843 13.4999Z"
                                fill="white" />
                            <path
                                d="M5.43298 18.9281L6.20107 18.9186C6.61619 18.9138 6.98343 18.6325 7.09808 18.2316L7.26039 17.6495C7.43699 17.5876 7.60875 17.516 7.77568 17.4301L8.31007 17.7163C8.67753 17.912 9.1355 17.8404 9.42649 17.5397L9.96549 16.9862C10.2565 16.6903 10.3138 16.2276 10.1133 15.8651L9.81745 15.3355C9.89389 15.1781 9.95582 15.016 10.0132 14.8488C10.018 14.8394 10.018 14.8297 10.0226 14.8203L10.6047 14.6391C11.0007 14.515 11.2726 14.1429 11.2678 13.7278L11.2583 12.9597C11.2535 12.5446 10.9721 12.1773 10.5713 12.0627L9.98436 11.8957C9.97953 11.8766 9.97009 11.8575 9.96526 11.8384C9.90793 11.6809 9.84116 11.5283 9.76494 11.3756L10.0465 10.8412C10.2422 10.4738 10.1706 10.0158 9.87476 9.72481L9.33092 9.20974C9.03507 8.91871 8.57229 8.85678 8.20984 9.06192L7.66117 9.37206L7.16983 9.17635L6.98862 8.58005C6.86936 8.18403 6.49728 7.91695 6.07733 7.91211L5.30924 7.92155C4.89412 7.92639 4.52688 8.20775 4.41223 8.60378L4.2453 9.19069C4.06871 9.25263 3.89694 9.32906 3.73485 9.41011L3.20529 9.12392C2.83782 8.92821 2.37524 8.99982 2.0842 9.29568L1.54981 9.84435C1.25879 10.1402 1.20146 10.603 1.4066 10.9654L1.69741 11.4855C1.61153 11.6573 1.54476 11.8339 1.48743 12.0057L0.905354 12.1869C0.509337 12.311 0.237415 12.683 0.242251 13.0982L0.251696 13.8662C0.256528 14.2814 0.537888 14.6486 0.933917 14.7584L1.52083 14.9254C1.58277 15.1019 1.6592 15.2737 1.74025 15.4406L1.45889 15.9702C1.26319 16.3377 1.33479 16.7956 1.63065 17.0866L2.17449 17.6256C2.47035 17.9166 2.93312 17.9786 3.29091 17.7734L3.82047 17.4776C3.9874 17.5586 4.15915 17.6254 4.33575 17.6876L4.51234 18.2648C4.63161 18.656 5.00369 18.9279 5.41397 18.9279C5.42341 18.9281 5.42825 18.9281 5.43286 18.9281L5.43298 18.9281ZM5.28516 18.0311L5.04663 17.2487C5.00841 17.12 4.90342 17.0196 4.76988 16.9816C4.50279 16.9052 4.24515 16.8004 4.00663 16.6715C3.94931 16.6381 3.88254 16.6238 3.81576 16.6238C3.74899 16.6238 3.68222 16.6429 3.62006 16.6763L2.90444 17.0772C2.85195 17.1057 2.78034 17.0963 2.73751 17.0532L2.18884 16.5188C2.14601 16.476 2.13152 16.4044 2.1649 16.3519L2.54664 15.6315C2.60858 15.5122 2.60858 15.3644 2.54181 15.2452C2.40344 15.0066 2.29361 14.749 2.21256 14.4819C2.17457 14.3481 2.06957 14.248 1.94065 14.2144L1.15345 13.9901C1.09151 13.971 1.05329 13.9185 1.04846 13.8566L1.03901 13.0885C1.03901 13.0266 1.07723 12.9692 1.13917 12.9501L1.92153 12.7068C2.05024 12.6685 2.15523 12.5636 2.18862 12.43C2.25539 12.1772 2.36038 11.929 2.49875 11.6668C2.56552 11.5475 2.56069 11.3997 2.49392 11.2804L2.09307 10.5696C2.06452 10.5171 2.06913 10.4455 2.11701 10.4027L2.6514 9.85403C2.69423 9.8112 2.76584 9.79671 2.81833 9.83009L3.53874 10.2164C3.658 10.2832 3.80582 10.2784 3.92509 10.2116C4.16362 10.0732 4.41643 9.96825 4.68372 9.88237C4.81244 9.84415 4.91281 9.73916 4.95081 9.61045L5.1799 8.81841C5.199 8.76109 5.2515 8.71826 5.31344 8.71826L6.08152 8.70881C6.14346 8.70881 6.20079 8.74703 6.21989 8.80897L6.45843 9.59133C6.49181 9.70577 6.57769 9.80131 6.69212 9.84414L7.54129 10.1828C7.65572 10.2257 7.77982 10.221 7.88481 10.1589L8.60043 9.75804C8.65293 9.72466 8.72453 9.7341 8.76736 9.78198L9.31603 10.321C9.35886 10.3638 9.36852 10.4354 9.33997 10.4879L8.95362 11.2083C8.88685 11.3276 8.89168 11.4754 8.95845 11.5947C9.05861 11.7664 9.13966 11.9476 9.20665 12.1242C9.23059 12.2007 9.25914 12.2769 9.28309 12.3533C9.3213 12.482 9.4263 12.587 9.555 12.6204L10.347 12.8447C10.409 12.8638 10.4472 12.9163 10.452 12.9782L10.4615 13.7463C10.4615 13.8082 10.4233 13.8655 10.3613 13.8847L9.57895 14.1232C9.55984 14.128 9.54074 14.1375 9.52646 14.1423C9.42147 14.19 9.34042 14.2855 9.30704 14.3999C9.28793 14.4667 9.26882 14.5286 9.24971 14.5908C9.18294 14.7865 9.10189 14.9772 9.00152 15.1634C8.93957 15.2827 8.93957 15.4259 9.00635 15.5452L9.4072 16.256C9.43575 16.3085 9.4263 16.3801 9.38325 16.4229L8.85369 16.9817C8.81086 17.0245 8.73926 17.039 8.68676 17.0056L7.96153 16.6193C7.84226 16.5573 7.69444 16.5573 7.57517 16.6241C7.33181 16.7625 7.079 16.8674 6.82137 16.9485C6.68783 16.9867 6.58768 17.0917 6.54946 17.2252L6.3252 18.0173C6.30609 18.0792 6.2536 18.1174 6.19166 18.1223L5.42358 18.1267C5.34714 18.1267 5.30431 18.0884 5.2852 18.0311L5.28516 18.0311Z"
                                fill="white" />
                            <path
                                d="M20.1073 17.7266H16.1665C15.9471 17.7266 15.7656 17.9078 15.7656 18.1274C15.7656 18.3468 15.9468 18.5283 16.1665 18.5283H20.1073C20.3267 18.5283 20.5082 18.3471 20.5082 18.1274C20.5079 17.9032 20.3267 17.7266 20.1073 17.7266Z"
                                fill="white" />
                            <path
                                d="M18.8364 19.457H16.1743C15.9549 19.457 15.7734 19.6382 15.7734 19.8579C15.7734 20.0773 15.9546 20.2587 16.1743 20.2587H18.8364C19.0558 20.2587 19.2372 20.0775 19.2372 19.8579C19.2324 19.6336 19.0558 19.457 18.8364 19.457Z"
                                fill="white" />
                            <path
                                d="M27.4979 17.7266H23.5571C23.3377 17.7266 23.1562 17.9078 23.1562 18.1274C23.1562 18.3468 23.3375 18.5283 23.5571 18.5283H27.4979C27.7174 18.5283 27.8988 18.3471 27.8988 18.1274C27.8988 17.9032 27.7174 17.7266 27.4979 17.7266Z"
                                fill="white" />
                            <path
                                d="M26.2192 19.457H23.5571C23.3377 19.457 23.1562 19.6382 23.1562 19.8579C23.1562 20.0773 23.3375 20.2587 23.5571 20.2587H26.2192C26.4386 20.2587 26.62 20.0775 26.62 19.8579C26.6198 19.6336 26.4434 19.457 26.2192 19.457Z"
                                fill="white" />
                            <path
                                d="M14.4418 25.25C13.7165 25.25 13.125 25.8415 13.125 26.5668C13.125 27.292 13.7165 27.8835 14.4418 27.8835C15.167 27.8835 15.7585 27.292 15.7585 26.5668C15.7585 25.8415 15.1668 25.25 14.4418 25.25ZM14.4418 27.082C14.1602 27.082 13.9265 26.853 13.9265 26.5668C13.9265 26.2806 14.1556 26.0515 14.4418 26.0515C14.728 26.0515 14.957 26.2806 14.957 26.5668C14.957 26.8481 14.7231 27.082 14.4418 27.082Z"
                                fill="white" />
</svg>