 <svg width="33" height="33" viewBox="0 0 33 33" fill="none" xmlns="http://www.w3.org/2000/svg">
                            <path
                                d="M13.0747 9.76727L13.29 9.8749C13.393 10.5615 13.8202 11.1558 14.455 11.4733L14.5622 11.5266L15.0166 10.618L14.9092 10.5646C14.5222 10.3711 14.2814 9.98213 14.2814 9.54877V9.2349L13.5294 8.85866C13.3662 8.77695 13.2656 8.61441 13.2656 8.43299C13.2656 8.30757 13.3163 8.18523 13.4049 8.09628L13.6247 7.87641L12.9065 7.1582L12.6866 7.37807C12.409 7.65548 12.25 8.04005 12.25 8.43303C12.25 9.00144 12.5658 9.51279 13.0748 9.76733L13.0747 9.76727Z"
                                fill="white" />
                            <path
                                d="M18.1705 11.4733C18.8053 11.1559 19.2325 10.5611 19.3355 9.87496L19.5508 9.76733C20.0599 9.51277 20.3757 9.00144 20.3757 8.43303C20.3757 8.04053 20.2167 7.65595 19.9389 7.37807L19.719 7.1582L19.0008 7.87641L19.2207 8.09628C19.3092 8.18479 19.3601 8.30757 19.3601 8.43299C19.3601 8.6142 19.2595 8.77739 19.0966 8.85866L18.3443 9.2349V9.54877C18.3443 9.98191 18.1036 10.3711 17.7166 10.5646L17.6094 10.618L18.0638 11.5266L18.1705 11.4733Z"
                                fill="white" />
                            <path d="M13.7812 18.1816H14.7971V19.1975H13.7812V18.1816Z" fill="white" />
                            <path d="M15.8047 18.1816H16.8205V19.1975H15.8047V18.1816Z" fill="white" />
                            <path d="M17.8359 18.1816H18.8518V19.1975H17.8359V18.1816Z" fill="white" />
                            <path
                                d="M27.4775 13.6108C27.1555 13.6108 27.0621 13.3542 27.0413 13.276C27.0204 13.1979 26.9732 12.9281 27.2754 12.7535L27.6908 12.4935L25.4144 8.55043L25.1524 8.11509L24.7126 8.369C24.4328 8.53044 24.2241 8.35428 24.1673 8.29696C24.1099 8.23963 23.9342 8.03031 24.1023 7.73841L24.3485 7.30066L23.9081 7.04675C23.9235 6.92528 23.932 6.80295 23.932 6.67885C23.932 5.43608 23.1866 4.33501 22.0326 3.87377L21.8777 3.81183C21.8843 3.73276 21.9006 3.65611 21.9006 3.57637C21.9006 2.10853 20.7059 0.914062 19.2383 0.914062C18.2215 0.914062 17.2373 1.21212 16.391 1.77593L16.3139 1.82711L16.2373 1.77571C15.3912 1.21214 14.4063 0.914068 13.3896 0.914068C11.9219 0.914068 10.7273 2.10848 10.7273 3.57638C10.7273 3.65611 10.7435 3.73276 10.7501 3.81162L10.5952 3.87356C9.44144 4.33459 8.69579 5.43564 8.69579 6.67886C8.69579 6.80428 8.70501 6.92815 8.72017 7.05071L8.2789 7.31187L8.53281 7.75159C8.69381 8.03032 8.51853 8.23964 8.46077 8.29696C8.40388 8.35429 8.19676 8.53 7.90222 8.36198L7.46491 8.11576L5.18192 12.0691L4.93592 12.5139L5.37564 12.7678C5.65437 12.9284 5.60715 13.1979 5.5865 13.2763C5.56585 13.3545 5.47184 13.6108 5.14062 13.6108H4.63281V18.1816L4.64248 18.6894H5.15029C5.47229 18.6894 5.56563 18.9459 5.5865 19.0241C5.60736 19.1023 5.65459 19.372 5.35236 19.5466L4.93701 19.8069L7.4673 24.1899L7.90702 23.936C8.18575 23.7734 8.39704 23.9503 8.45547 24.0087C8.51345 24.0667 8.68961 24.2769 8.52818 24.5571L8.27427 24.9969L12.2326 27.2823L12.6776 27.528L12.9316 27.0883C13.0915 26.8089 13.3616 26.8562 13.44 26.8775C13.518 26.8983 13.7745 26.9923 13.7745 27.3233V30.8785C13.7745 31.7184 14.4581 32.4022 15.2982 32.4022H17.3297C18.1696 32.4022 18.8534 31.7187 18.8534 30.8785V27.3137C18.8534 26.9917 19.1099 26.8984 19.1881 26.8775C19.2663 26.8567 19.536 26.8094 19.7107 27.1117L19.9707 27.527L23.9137 25.2506L24.3491 24.9886L24.0952 24.5489C23.9342 24.2702 24.1094 24.0608 24.1672 24.0035C24.2245 23.9466 24.4323 23.7709 24.7258 23.9385L25.1631 24.1847L27.4461 20.2313L27.6918 19.7863L27.2521 19.5324C26.9734 19.3719 27.0206 19.1024 27.0413 19.024C27.0619 18.9462 27.1559 18.6897 27.4871 18.6897H27.9949V14.1189L27.9853 13.6111L27.4775 13.6108ZM19.2383 1.92985C20.1463 1.92985 20.8847 2.6683 20.8847 3.57628C20.8847 4.01601 20.7136 4.43006 20.4028 4.74083L20.0178 5.12587L20.736 5.84408L21.121 5.45904C21.3185 5.26158 21.4701 5.03337 21.5944 4.79223L21.6559 4.81661C22.4211 5.12279 22.9162 5.85397 22.9162 6.67873C22.9162 7.35105 22.5826 7.9753 22.0229 8.34804L20.9844 9.03993L22.0231 9.7316C22.5825 10.105 22.9162 10.7285 22.9162 11.4011C22.9162 12.2258 22.4211 12.9566 21.6557 13.263L21.5942 13.2874C21.4696 13.0462 21.3183 12.818 21.1208 12.6205L20.7358 12.2355L20.0176 12.9537L20.4026 13.3388C20.7136 13.6498 20.8847 14.0638 20.8847 14.5035C20.8847 15.4117 20.1463 16.1502 19.2383 16.1502C18.4232 16.1502 17.6329 15.911 16.9545 15.459L16.8218 15.3705V2.70946L16.9542 2.62117C17.6329 2.16914 18.4225 1.92995 19.2383 1.92995V1.92985ZM23.4623 13.0148C23.7691 13.8523 23.9321 14.742 23.9321 15.6419C23.9321 19.8426 20.5147 23.2598 16.3142 23.2598C12.1138 23.2598 8.69637 19.8424 8.69637 15.6419C8.69637 14.742 8.85935 13.8523 9.16619 13.0148C9.37244 13.3414 9.64216 13.6236 9.96194 13.8518C9.7994 14.4317 9.71221 15.0315 9.71221 15.6419C9.71221 19.2823 12.6741 22.2443 16.3146 22.2443C19.955 22.2443 22.9169 19.2824 22.9169 15.6419C22.9169 15.0316 22.8295 14.4317 22.6665 13.8516C22.9866 13.6238 23.2563 13.3414 23.463 13.0148H23.4623ZM17.8377 25.2917H14.7904V24.1333C15.2861 24.2216 15.7935 24.2761 16.3141 24.2761C16.8346 24.2761 17.342 24.2218 17.8378 24.1333L17.8377 25.2917ZM16.2374 16.3041L16.314 16.2529L16.3907 16.3043C17.2368 16.8679 18.2216 17.166 19.2384 17.166C20.5503 17.166 21.6371 16.2101 21.8543 14.9599C21.8818 15.1853 21.9007 15.4124 21.9007 15.6424C21.9007 18.7226 19.3943 21.229 16.3141 21.229C13.2338 21.229 10.7275 18.7226 10.7275 15.6424C10.7275 15.4124 10.7464 15.1853 10.7736 14.9597C10.9911 16.2103 12.0778 17.166 13.3898 17.166C14.4065 17.166 15.3914 16.8679 16.2375 16.3041L16.2374 16.3041ZM10.9723 4.81719L11.0338 4.79281C11.1583 5.03398 11.3097 5.26219 11.5071 5.45963L11.8922 5.84466L12.6104 5.12645L12.2254 4.74142C11.9143 4.43018 11.7432 4.01618 11.7432 3.57642C11.7432 2.66844 12.4817 1.92999 13.3897 1.92999C14.2048 1.92999 14.995 2.16918 15.6735 2.62121L15.8062 2.7095V15.3711L15.6737 15.4593C14.995 15.9114 14.2054 16.1506 13.3897 16.1506C12.4817 16.1506 11.7432 15.4121 11.7432 14.5039C11.7432 14.0642 11.9143 13.6501 12.2251 13.3394L12.6102 12.9543L11.892 12.2361L11.5069 12.6212C11.3095 12.8186 11.1579 13.0468 11.0336 13.288L10.9721 13.2636C10.2069 12.9576 9.71178 12.2262 9.71178 11.4015C9.71178 10.7291 10.0454 10.1049 10.6051 9.73215L11.6436 9.04026L10.6049 8.34859C10.0454 7.9752 9.71178 7.35166 9.71178 6.67911C9.71178 5.85435 10.2069 5.12316 10.9723 4.81744V4.81719ZM13.7025 25.8962C13.2191 25.7657 12.7295 25.885 12.373 26.1896L9.58633 24.5807C9.66914 24.1195 9.52549 23.6407 9.17384 23.2897C8.82351 22.9387 8.3456 22.7966 7.88278 22.8772L6.27279 20.0895C6.57963 19.7315 6.69626 19.2423 6.56733 18.7609C6.43884 18.2809 6.09444 17.9168 5.64811 17.7589V14.5415C6.09244 14.384 6.4384 14.0199 6.56733 13.538C6.69692 13.055 6.57853 12.5649 6.27388 12.2084L7.88123 9.42422C8.34534 9.51098 8.82638 9.36733 9.17888 9.01436C9.28651 8.90673 9.37194 8.78571 9.44003 8.65788C9.55886 8.7945 9.68735 8.92409 9.83165 9.03874C9.11586 9.6107 8.69589 10.4757 8.69589 11.401C8.69589 11.4553 8.70512 11.5078 8.70797 11.5609C8.03671 12.8098 7.68028 14.2166 7.68028 15.6421C7.68028 19.5192 10.2496 22.8067 13.7749 23.8936V25.922C13.7505 25.9141 13.7281 25.9034 13.7026 25.8963L13.7025 25.8962ZM17.8377 30.8783C17.8377 31.1586 17.6102 31.3861 17.3299 31.3861H15.2984C15.0181 31.3861 14.7906 31.1586 14.7906 30.8783V26.3075H17.8379V27.3137L17.8377 27.3232L17.8377 30.8783ZM26.9794 17.7579C26.535 17.9154 26.1891 18.2796 26.0601 18.7615C25.9305 19.2445 26.0489 19.7345 26.3536 20.091L24.7462 22.8752C24.2815 22.7889 23.8011 22.9321 23.4486 23.2851C23.0961 23.6369 22.9528 24.1184 23.0392 24.5823L20.2534 26.1911C19.8954 25.8843 19.4078 25.7666 18.9248 25.8966C18.9 25.9032 18.8771 25.9144 18.8528 25.9221V23.8937C22.3778 22.8069 24.9474 19.5195 24.9474 15.6421C24.9474 14.2165 24.5909 12.8099 23.9195 11.5614C23.9232 11.5074 23.9324 11.4551 23.9324 11.4009C23.9324 10.4755 23.5125 9.61053 22.7969 9.0397C22.9405 8.92482 23.069 8.79545 23.1885 8.65884C23.2566 8.78623 23.3418 8.9077 23.4497 9.01532C23.8015 9.36784 24.2836 9.51149 24.7469 9.42473L26.3557 12.2105C26.0489 12.5685 25.9323 13.0576 26.0612 13.5391C26.1897 14.019 26.5341 14.3832 26.9804 14.5411L26.9802 17.7577L26.9794 17.7579Z"
                                fill="white" />
                            <path
                                d="M30.5315 4.97705C31.3714 4.97705 32.0552 4.29354 32.0552 3.45337C32.0552 2.61343 31.3717 1.92969 30.5315 1.92969C29.6916 1.92969 29.0078 2.6132 29.0078 3.45337C29.0078 4.29354 29.6916 4.97705 30.5315 4.97705ZM30.5315 2.94557C30.8118 2.94557 31.0393 3.17312 31.0393 3.45338C31.0393 3.73364 30.8118 3.96119 30.5315 3.96119C30.2512 3.96119 30.0237 3.73364 30.0237 3.45338C30.0237 3.17312 30.2512 2.94557 30.5315 2.94557Z"
                                fill="white" />
                            <path
                                d="M29.0083 9.04004H30.532C31.3719 9.04004 32.0556 8.35652 32.0556 7.51636C32.0556 6.67641 31.3721 5.99267 30.532 5.99267H25.9612C25.6809 5.99267 25.4534 5.76512 25.4534 5.48486C25.4534 5.2046 25.6809 4.97705 25.9612 4.97705H26.977C27.817 4.97705 28.5007 4.29354 28.5007 3.45337C28.5007 2.61343 27.8172 1.92969 26.977 1.92969H22.9141V2.94551H26.977C27.2573 2.94551 27.4848 3.17306 27.4848 3.45332C27.4848 3.73358 27.2573 3.96114 26.977 3.96114H25.9612C25.1213 3.96114 24.4375 4.64465 24.4375 5.48482C24.4375 6.32476 25.121 7.0085 25.9612 7.0085H30.532C30.8122 7.0085 31.0398 7.23605 31.0398 7.51631C31.0398 7.79657 30.8122 8.02412 30.532 8.02412H29.0083C28.1683 8.02412 27.4846 8.70764 27.4846 9.54781C27.4846 10.3877 28.1681 11.0715 29.0083 11.0715H30.532C30.8122 11.0715 31.0398 11.299 31.0398 11.5793C31.0398 11.8596 30.8122 12.0871 30.532 12.0871H30.0242V13.1029H30.532C31.3719 13.1029 32.0556 12.4194 32.0556 11.5793C32.0556 10.7393 31.3721 10.0556 30.532 10.0556H29.0083C28.728 10.0556 28.5005 9.82802 28.5005 9.54776C28.5005 9.2675 28.728 9.03995 29.0083 9.03995V9.04004Z"
                                fill="white" />
                            <path d="M27.9922 12.0879H29.008V13.1037H27.9922V12.0879Z" fill="white" />
                            <path
                                d="M2.09399 4.97683C2.93394 4.97683 3.61768 4.29331 3.61768 3.45314C3.61768 2.6132 2.93394 1.92969 2.09399 1.92969C1.25388 1.92969 0.570312 2.6132 0.570312 3.45314C0.570312 4.29326 1.25383 4.97683 2.09399 4.97683ZM2.09399 2.94534C2.37426 2.94534 2.60181 3.1729 2.60181 3.45316C2.60181 3.73364 2.37425 3.96119 2.09399 3.96119C1.81351 3.96119 1.58618 3.73364 1.58618 3.45316C1.58618 3.17289 1.81352 2.94534 2.09399 2.94534Z"
                                fill="white" />
                            <path
                                d="M1.58619 11.5791C1.58619 11.2988 1.81374 11.0713 2.094 11.0713H3.61768C4.45762 11.0713 5.14136 10.3878 5.14136 9.54759C5.14136 8.70764 4.45785 8.0239 3.61768 8.0239L2.094 8.02412C1.81373 8.02412 1.58619 7.79657 1.58619 7.51631C1.58619 7.23605 1.81374 7.0085 2.094 7.0085H6.66476C7.50471 7.0085 8.18845 6.32499 8.18845 5.48482C8.18845 4.64488 7.50493 3.96114 6.66476 3.96114H5.64894C5.36867 3.96114 5.14113 3.73358 5.14113 3.4531C5.14113 3.17283 5.36868 2.94529 5.64894 2.94529H9.7119L9.71212 1.92969H5.64916C4.80905 1.92969 4.12548 2.6132 4.12548 3.45314C4.12548 4.29309 4.80899 4.97683 5.64916 4.97683H6.66498C6.94525 4.97683 7.1728 5.20438 7.1728 5.48464C7.1728 5.7649 6.94524 5.99245 6.66498 5.99245L2.09399 5.99267C1.25405 5.99267 0.570312 6.67618 0.570312 7.51635C0.570312 8.35629 1.25383 9.04003 2.09399 9.04003H3.61768C3.89794 9.04003 4.12549 9.26758 4.12549 9.54784C4.12549 9.8281 3.89794 10.0557 3.61768 10.0557H2.09399C1.25405 10.0557 0.570312 10.7392 0.570312 11.5793C0.570312 12.4193 1.25383 13.103 2.09399 13.103H2.60181V12.0872H2.09399C1.81351 12.0872 1.58618 11.8596 1.58618 11.5792L1.58619 11.5791Z"
                                fill="white" />
                            <path d="M3.61719 12.0879H4.63301V13.1037H3.61719V12.0879Z" fill="white" />
</svg>