<svg width="38" height="38" viewBox="0 0 24 24" fill="none" xmlns="http://www.w3.org/2000/svg">
                                <path d="M8.16637 23.8752C10.2278 23.8718 12.2098 23.0806 13.7068 21.6635C15.2039 20.2463 16.1023 18.3105 16.2186 16.2523C18.3043 16.1371 20.2641 15.2176 21.6857 13.6873C23.1075 12.1571 23.8805 10.1349 23.8421 8.04643C23.8037 5.9579 22.957 3.96567 21.4798 2.48866C20.0028 1.01149 18.0106 0.164744 15.922 0.126364C13.8335 0.0879824 11.8113 0.860904 10.2812 2.28254C8.75098 3.70434 7.83154 5.66416 7.71618 7.74965C4.89843 7.91717 2.37306 9.54467 1.05641 12.0416C-0.260019 14.5385 -0.176256 17.5418 1.27758 19.9613C2.73141 22.3808 5.34391 23.8648 8.16644 23.8748L8.16637 23.8752ZM15.7664 1.07517C17.656 1.07517 19.4684 1.82583 20.8046 3.16197C22.1407 4.4981 22.8914 6.31054 22.8914 8.20017C22.8914 10.0898 22.1407 11.9022 20.8046 13.2384C19.4684 14.5745 17.656 15.3252 15.7664 15.3252C13.8767 15.3252 12.0644 14.5745 10.7282 13.2384C9.39204 11.9022 8.64137 10.0898 8.64137 8.20017C8.64349 6.31119 9.39481 4.50006 10.7305 3.1643C12.0662 1.82855 13.8774 1.07729 15.7664 1.07517ZM7.71634 8.69797C7.73458 9.01456 7.77169 9.32991 7.82746 9.64227C6.33249 9.72306 4.91786 10.3448 3.84745 11.3915C2.77699 12.4384 2.12388 13.8386 2.00961 15.3315C1.89531 16.8241 2.32769 18.3076 3.22615 19.5051L3.98615 18.9351C3.21404 17.9058 2.84935 16.6278 2.96151 15.3461C3.0739 14.0645 3.65533 12.8693 4.59453 11.9897C5.53373 11.1104 6.76449 10.6087 8.05079 10.5809C8.84304 13.1287 10.8378 15.1237 13.3855 15.9161C13.3441 17.7606 12.3332 19.4464 10.7257 20.3516C9.1181 21.2569 7.15237 21.2474 5.55371 20.3264L5.07871 21.1486C6.93609 22.2207 9.21691 22.2512 11.1022 21.2296C12.9878 20.2077 14.2076 18.2803 14.3238 16.1388C14.6361 16.1946 14.9514 16.2317 15.2681 16.2499C15.1531 18.0836 14.334 19.8016 12.9819 21.0451C11.6299 22.2888 9.8495 22.9619 8.01269 22.9235C6.17609 22.8851 4.42538 22.1385 3.12632 20.8394C1.82726 19.5404 1.08062 17.7896 1.04224 15.9528C1.00385 14.1162 1.67689 12.3358 2.92041 10.9838C4.1641 9.63154 5.88219 8.81258 7.71558 8.69744L7.71634 8.69797Z" fill="#CC1212"></path>
                                <path d="M8.79277 18.6508H9.11722V17.7008H8.79277C8.50883 17.6982 8.26306 17.5021 8.19753 17.2258H8.6422V16.2758H8.1672V15.8008H8.6422V14.8508H8.19753C8.26305 14.5745 8.50882 14.3783 8.79277 14.3758H9.11722V13.4258H8.79277C8.40217 13.4271 8.02599 13.5736 7.73757 13.837C7.44896 14.1005 7.26893 14.4619 7.23245 14.8508H6.74219V15.8008H7.21719V16.2758H6.74219V17.2258H7.23245C7.26893 17.6147 7.44896 17.976 7.73757 18.2396C8.02596 18.503 8.40213 18.6495 8.79277 18.6508Z" fill="#CC1212"></path>
                                <path d="M4.84375 15.3242H5.79375V16.2742H4.84375V15.3242Z" fill="#CC1212"></path>
                                <path d="M10.0625 15.3242H11.0125V16.2742H10.0625V15.3242Z" fill="#CC1212"></path>
                                <path d="M14.2422 22.6885L14.4388 23.6182H14.439C16.7633 23.1137 18.8841 21.9271 20.5298 20.2099C22.1753 18.4929 23.271 16.3235 23.6763 13.98L22.7396 13.8223C22.3671 15.9782 21.3592 17.9739 19.8453 19.5532C18.3315 21.1328 16.3804 22.2244 14.2425 22.6884L14.2422 22.6885Z" fill="#CC1212"></path>
                                <path d="M9.69191 1.31246L9.49534 0.382812H9.49512C7.17083 0.88729 5.05005 2.07392 3.40427 3.79114C1.75876 5.50814 0.663055 7.67746 0.257812 10.021L1.19446 10.1787C1.56704 8.02278 2.57494 6.02713 4.08876 4.44779C5.60262 2.86819 7.5537 1.77655 9.69158 1.31257L9.69191 1.31246Z" fill="#CC1212"></path>
                                <path d="M17.1938 7.24964V7.1803C17.1927 6.89276 17.1 6.61285 16.9291 6.38149C16.7584 6.15014 16.5184 5.97922 16.2438 5.89355V5.34961H15.2938V5.89355C14.9483 6.00085 14.6604 6.24238 14.4945 6.56387C14.3287 6.88535 14.2986 7.26003 14.4112 7.60377C14.5236 7.94751 14.7694 8.23185 15.0933 8.39303L16.0192 8.85615H16.019C16.1873 8.94013 16.2758 9.12885 16.2327 9.31206C16.1895 9.49507 16.0262 9.62442 15.8381 9.62463H15.6994C15.4755 9.62442 15.294 9.4429 15.2938 9.21897V9.14963H14.3438V9.21897C14.3448 9.50652 14.4375 9.78642 14.6084 10.0178C14.7791 10.2491 15.0191 10.4201 15.2938 10.5057V11.0497H16.2438V10.5057C16.5892 10.3984 16.8772 10.1569 17.043 9.8354C17.2088 9.51393 17.2389 9.13924 17.1263 8.7955C17.014 8.45177 16.7682 8.16742 16.4442 8.00624L15.5183 7.54312H15.5186C15.3502 7.45915 15.2618 7.27042 15.3048 7.08721C15.3481 6.90421 15.5113 6.77485 15.6994 6.77464H15.8381C16.062 6.77485 16.2436 6.95637 16.2438 7.1803V7.24964H17.1938Z" fill="#CC1212"></path>
                                <path d="M15.7671 14.3753C17.3039 14.3753 18.7853 13.8024 19.9221 12.7682C21.0589 11.7342 21.7693 10.3135 21.9145 8.78375C22.0596 7.25376 21.6291 5.72485 20.7071 4.49539L19.9471 5.06539C20.9898 6.45793 21.2701 8.27824 20.6948 9.91995C20.1195 11.5617 18.7641 12.8088 17.0803 13.2458C15.3964 13.6826 13.6056 13.252 12.3047 12.0973C11.0035 10.9425 10.3633 9.21554 10.5974 7.49175C10.8313 5.76796 11.9088 4.27407 13.4706 3.50788C15.0324 2.74175 16.8732 2.80407 18.3796 3.67413L18.8546 2.85197C17.1921 1.89264 15.1778 1.76094 13.4049 2.49572C11.6317 3.23048 10.3008 4.74815 9.80422 6.60233C9.30738 8.45629 9.70116 10.436 10.8694 11.959C12.0377 13.482 13.8479 14.375 15.7674 14.3754L15.7671 14.3753Z" fill="#CC1212"></path>
                                <path d="M12.4375 7.72461H13.3875V8.67461H12.4375V7.72461Z" fill="#CC1212"></path>
                                <path d="M18.1406 7.72461H19.0906V8.67461H18.1406V7.72461Z" fill="#CC1212"></path>
                            </svg>