<svg width="38" height="38" viewBox="0 0 29 30" fill="none" xmlns="http://www.w3.org/2000/svg">
                                <path d="M9.04375 25.4629H1.44375C1.18144 25.4629 0.96875 25.6756 0.96875 25.9379V28.7879C0.96875 28.9138 1.01879 29.0347 1.10786 29.1238C1.19692 29.2128 1.31779 29.2629 1.44375 29.2629H9.04375C9.16971 29.2629 9.29058 29.2128 9.37964 29.1238C9.4687 29.0347 9.51875 28.9138 9.51875 28.7879V25.9379C9.51875 25.8119 9.46871 25.6911 9.37964 25.602C9.29058 25.5129 9.16971 25.4629 9.04375 25.4629ZM8.56875 28.3129H7.61875V27.3629H6.66875V28.3129H5.71875V27.3629H4.76875V28.3129H3.81875V27.3629H2.86875V28.3129H1.91875V26.4129H8.56875V28.3129Z" fill="url(#paint0_linear_5637_27964)"></path>
                                <path d="M18.5438 22.6133H10.9438C10.6814 22.6133 10.4688 22.826 10.4688 23.0883V28.7883C10.4688 28.9142 10.5188 29.0351 10.6079 29.1242C10.6969 29.2132 10.8178 29.2633 10.9438 29.2633H18.5438C18.6697 29.2633 18.7906 29.2132 18.8796 29.1242C18.9687 29.0351 19.0188 28.9142 19.0188 28.7883V23.0883C19.0188 22.9623 18.9687 22.8414 18.8796 22.7524C18.7906 22.6633 18.6697 22.6133 18.5438 22.6133ZM18.0688 28.3133H17.1188V27.3633H16.1688V28.3133H15.2188V27.3633H14.2688V28.3133H13.3188V27.3633H12.3688V28.3133H11.4188V26.4133H18.0688V28.3133ZM18.0688 25.4633H17.1188V24.5133H16.1688V25.4633H15.2188V24.5133H14.2688V25.4633H13.3188V24.5133H12.3688V25.4633H11.4188V23.5633H18.0688V25.4633Z" fill="url(#paint1_linear_5637_27964)"></path>
                                <path d="M28.0438 16.9141H20.4438C20.1814 16.9141 19.9688 17.1268 19.9688 17.3891V28.7891C19.9688 28.915 20.0188 29.0359 20.1079 29.125C20.1969 29.214 20.3178 29.2641 20.4438 29.2641H28.0438C28.1697 29.2641 28.2906 29.214 28.3796 29.125C28.4687 29.0359 28.5188 28.915 28.5188 28.7891V17.3891C28.5188 17.2631 28.4687 17.1422 28.3796 17.0532C28.2906 16.9641 28.1697 16.9141 28.0438 16.9141ZM27.5688 28.3141H26.6188V27.3641H25.6688V28.3141H24.7188V27.3641H23.7688V28.3141H22.8188V27.3641H21.8688V28.3141H20.9188V26.4141H27.5688V28.3141ZM27.5688 25.4641H26.6188V24.5141H25.6688V25.4641H24.7188V24.5141H23.7688V25.4641H22.8188V24.5141H21.8688V25.4641H20.9188V23.5641H27.5688V25.4641ZM27.5688 22.6141H26.6188V21.6641H25.6688V22.6141H24.7188V21.6641H23.7688V22.6141H22.8188V21.6641H21.8688V22.6141H20.9188V20.7141H27.5688V22.6141ZM27.5688 19.7641H26.6188V18.8141H25.6688V19.7641H24.7188V18.8141H23.7688V19.7641H22.8188V18.8141H21.8688V19.7641H20.9188V17.8641H27.5688V19.7641Z" fill="url(#paint2_linear_5637_27964)"></path>
                                <path d="M6.19375 11.2137C7.5795 11.2137 8.90847 10.6632 9.88838 9.6833C10.8683 8.70339 11.4188 7.37448 11.4188 5.98867C11.4188 4.60287 10.8682 3.27395 9.88838 2.29404C8.90847 1.31413 7.57956 0.763672 6.19375 0.763672C4.80794 0.763672 3.47903 1.31418 2.49912 2.29404C1.51921 3.27395 0.96875 4.60287 0.96875 5.98867C0.970446 7.37404 1.52138 8.70187 2.50086 9.68157C3.48055 10.661 4.80843 11.2119 6.19375 11.2137ZM6.19375 1.71367C7.32762 1.71367 8.41501 2.16408 9.2166 2.96583C10.0184 3.76741 10.4688 4.85481 10.4688 5.98867C10.4688 7.12254 10.0183 8.20994 9.2166 9.01152C8.41501 9.81332 7.32762 10.2637 6.19375 10.2637C5.05988 10.2637 3.97249 9.81327 3.1709 9.01152C2.3691 8.20994 1.91875 7.12254 1.91875 5.98867C1.92002 4.85524 2.37085 3.76866 3.17221 2.96713C3.97379 2.16576 5.06032 1.71497 6.19375 1.71367Z" fill="url(#paint3_linear_5637_27964)"></path>
                                <path d="M5.72031 9.31406H6.67031V8.36406H8.09531C8.22127 8.36406 8.34214 8.31402 8.43121 8.22496C8.52027 8.13589 8.57031 8.01502 8.57031 7.88906V5.98906C8.57031 5.8631 8.52027 5.74223 8.43121 5.65317C8.34214 5.56411 8.22127 5.51406 8.09531 5.51406H6.67031V4.56406H8.57031V3.61406H6.67031V2.66406H5.72031V3.61406H4.29531C4.033 3.61406 3.82031 3.82675 3.82031 4.08906V5.98906C3.82031 6.11502 3.87036 6.23589 3.95942 6.32496C4.04848 6.41402 4.16935 6.46406 4.29531 6.46406H5.72031V7.41406H3.82031V8.36406H5.72031V9.31406ZM6.67031 6.46406H7.62031V7.41406H6.67031V6.46406ZM4.77031 5.51406V4.56406H5.72031V5.51406H4.77031Z" fill="url(#paint4_linear_5637_27964)"></path>
                                <path d="M28.4221 3.62327L21.7721 5.04827C21.6016 5.08453 21.4646 5.21091 21.4152 5.3778C21.3656 5.5449 21.4114 5.72556 21.5346 5.84877L23.1002 7.41285L15.2217 15.2913L10.8077 10.8773V10.877C10.6221 10.6917 10.3214 10.6917 10.1359 10.877L2.06088 18.952C1.87554 19.1376 1.87554 19.4383 2.06088 19.6238L3.48588 21.0488C3.67143 21.2342 3.97211 21.2342 4.15766 21.0488L10.4716 14.7343L14.8857 19.1484V19.1486C15.0713 19.3339 15.372 19.3339 15.5575 19.1486L25.1965 9.50909L26.7606 11.0732V11.0734C26.8496 11.1624 26.9705 11.2125 27.0964 11.2125C27.142 11.2123 27.1872 11.2057 27.2309 11.193C27.3986 11.1446 27.5263 11.0079 27.5634 10.8372L28.9884 4.18716C29.0221 4.0296 28.9738 3.86568 28.8597 3.7516C28.7458 3.63582 28.5802 3.58705 28.4218 3.62288L28.4221 3.62327ZM15.222 18.1414L10.8079 13.7274V13.7271C10.6224 13.5418 10.3217 13.5418 10.1361 13.7271L3.82218 20.0417L3.06875 19.2882L10.4722 11.8847L14.8863 16.2988V16.299C15.0719 16.4844 15.3726 16.4844 15.5581 16.299L23.7721 8.08452L24.5255 8.83795L15.222 18.1414ZM26.8153 9.7847L22.8253 5.7947L27.9044 4.70562L26.8153 9.7847Z" fill="url(#paint5_linear_5637_27964)"></path>
                                <path d="M5.38281 21.3281L10.1328 16.5781L10.8046 17.2499L6.0546 21.9999L5.38281 21.3281Z" fill="url(#paint6_linear_5637_27964)"></path>
                                <path d="M14.8828 12.7779L18.2076 9.45312L18.8794 10.1249L15.5546 13.4497L14.8828 12.7779Z" fill="url(#paint7_linear_5637_27964)"></path>
                                <path d="M13.4609 11.3531L15.3609 9.45312L16.0327 10.1249L14.1327 12.0249L13.4609 11.3531Z" fill="url(#paint8_linear_5637_27964)"></path>
                                <path d="M8.71094 20.8539L11.5609 18.0039L12.2327 18.6757L9.38272 21.5257L8.71094 20.8539Z" fill="url(#paint9_linear_5637_27964)"></path>
                                <path d="M4.42969 22.2777L4.90469 21.8027L5.57647 22.4745L5.10147 22.9495L4.42969 22.2777Z" fill="url(#paint10_linear_5637_27964)"></path>
                                <defs>
                                    <linearGradient id="paint0_linear_5637_27964" x1="7.63014" y1="25.4629" x2="7.6224" y2="30.0773" gradientUnits="userSpaceOnUse">
                                        <stop stop-color="#005CAA"></stop>
                                        <stop offset="1" stop-color="#64B0F1"></stop>
                                    </linearGradient>
                                    <linearGradient id="paint1_linear_5637_27964" x1="17.1301" y1="22.6133" x2="17.1064" y2="30.6884" gradientUnits="userSpaceOnUse">
                                        <stop stop-color="#005CAA"></stop>
                                        <stop offset="1" stop-color="#64B0F1"></stop>
                                    </linearGradient>
                                    <linearGradient id="paint2_linear_5637_27964" x1="26.6301" y1="16.9141" x2="26.5484" y2="31.9104" gradientUnits="userSpaceOnUse">
                                        <stop stop-color="#005CAA"></stop>
                                        <stop offset="1" stop-color="#64B0F1"></stop>
                                    </linearGradient>
                                    <linearGradient id="paint3_linear_5637_27964" x1="9.11045" y1="0.763672" x2="9.06256" y2="13.453" gradientUnits="userSpaceOnUse">
                                        <stop stop-color="#005CAA"></stop>
                                        <stop offset="1" stop-color="#64B0F1"></stop>
                                    </linearGradient>
                                    <linearGradient id="paint4_linear_5637_27964" x1="7.52108" y1="2.66406" x2="7.47842" y2="10.739" gradientUnits="userSpaceOnUse">
                                        <stop stop-color="#005CAA"></stop>
                                        <stop offset="1" stop-color="#64B0F1"></stop>
                                    </linearGradient>
                                    <linearGradient id="paint5_linear_5637_27964" x1="23.0179" y1="3.61133" x2="22.9656" y2="24.9546" gradientUnits="userSpaceOnUse">
                                        <stop stop-color="#005CAA"></stop>
                                        <stop offset="1" stop-color="#64B0F1"></stop>
                                    </linearGradient>
                                    <linearGradient id="paint6_linear_5637_27964" x1="9.60698" y1="16.5781" x2="9.58213" y2="23.1618" gradientUnits="userSpaceOnUse">
                                        <stop stop-color="#005CAA"></stop>
                                        <stop offset="1" stop-color="#64B0F1"></stop>
                                    </linearGradient>
                                    <linearGradient id="paint7_linear_5637_27964" x1="17.9966" y1="9.45312" x2="17.9783" y2="14.3061" gradientUnits="userSpaceOnUse">
                                        <stop stop-color="#005CAA"></stop>
                                        <stop offset="1" stop-color="#64B0F1"></stop>
                                    </linearGradient>
                                    <linearGradient id="paint8_linear_5637_27964" x1="15.4646" y1="9.45312" x2="15.4529" y2="12.576" gradientUnits="userSpaceOnUse">
                                        <stop stop-color="#005CAA"></stop>
                                        <stop offset="1" stop-color="#64B0F1"></stop>
                                    </linearGradient>
                                    <linearGradient id="paint9_linear_5637_27964" x1="11.4548" y1="18.0039" x2="11.4387" y2="22.2804" gradientUnits="userSpaceOnUse">
                                        <stop stop-color="#005CAA"></stop>
                                        <stop offset="1" stop-color="#64B0F1"></stop>
                                    </linearGradient>
                                    <linearGradient id="paint10_linear_5637_27964" x1="5.32316" y1="21.8027" x2="5.3179" y2="23.1953" gradientUnits="userSpaceOnUse">
                                        <stop stop-color="#005CAA"></stop>
                                        <stop offset="1" stop-color="#64B0F1"></stop>
                                    </linearGradient>
                                </defs>
                            </svg>