<svg width="45" height="45" viewBox="0 0 34 34"
                                                fill="none" xmlns="http://www.w3.org/2000/svg">
                                                <path
                                                    d="M17.025 0.625C12.6754 0.625 8.50429 2.35293 5.42857 5.42857C2.35293 8.50421 0.625 12.6757 0.625 17.025C0.625 21.3743 2.35293 25.5457 5.42857 28.6214C8.50421 31.6971 12.6757 33.425 17.025 33.425C21.3743 33.425 25.5457 31.6971 28.6214 28.6214C31.6971 25.5458 33.425 21.3743 33.425 17.025C33.425 12.6757 31.6971 8.50429 28.6214 5.42857C25.5458 2.35293 21.3743 0.625 17.025 0.625ZM17.025 32.625C12.8877 32.625 8.92 30.9816 5.99429 28.0561C3.06879 25.1303 1.42536 21.1624 1.42536 17.0254C1.42536 12.8884 3.06879 8.92036 5.99429 5.99464C8.92007 3.06914 12.888 1.42571 17.025 1.42571C21.162 1.42571 25.13 3.06914 28.0557 5.99464C30.9812 8.92043 32.6246 12.8884 32.6246 17.0254C32.6193 21.1612 30.9743 25.1261 28.0499 28.0504C25.1255 30.9747 21.1606 32.6199 17.0249 32.6251L17.025 32.625Z"
                                                    fill="white" />
                                                <path
                                                    d="M7.82403 7.30551C7.92308 7.30523 8.01878 7.26812 8.09216 7.20144C8.47302 6.85322 8.87366 6.52733 9.29223 6.22544C9.4722 6.09625 9.51322 5.84542 9.38403 5.66545C9.25485 5.48521 9.00401 5.44419 8.82405 5.57337C8.37762 5.89927 7.95019 6.25055 7.54419 6.6253C7.43203 6.7397 7.39882 6.9099 7.45993 7.05778C7.52075 7.20566 7.66415 7.30299 7.82403 7.30551Z"
                                                    fill="white" />
                                                <path
                                                    d="M5.71836 9.7136C5.85062 9.71471 5.97506 9.65026 6.05039 9.54144C6.3414 9.11343 6.65809 8.70358 6.99846 8.31351C7.14411 8.14666 7.12709 7.89331 6.96023 7.74766C6.79366 7.60173 6.54003 7.61875 6.39438 7.78561C6.03501 8.20051 5.69962 8.63604 5.39045 9.08947C5.26545 9.27194 5.31205 9.52083 5.49425 9.64555C5.56065 9.69019 5.63856 9.7136 5.71836 9.7136Z"
                                                    fill="white" />
                                                <path
                                                    d="M10.4056 5.44443C10.4742 5.44443 10.5418 5.4263 10.6015 5.39254C11.0543 5.14421 11.5203 4.92127 11.9977 4.72456C12.1023 4.68941 12.1877 4.61268 12.2337 4.51251C12.2798 4.41206 12.2826 4.29739 12.241 4.19499C12.1994 4.09286 12.1177 4.01223 12.0147 3.97233C11.912 3.93243 11.7971 3.93689 11.6975 3.98461C11.1933 4.1908 10.7017 4.42741 10.2257 4.69248C10.0641 4.77981 9.98265 4.96563 10.0281 5.14337C10.0733 5.32138 10.234 5.44555 10.4176 5.44443L10.4056 5.44443Z"
                                                    fill="white" />
                                                <path
                                                    d="M3.42472 15.6339H3.47661C3.67862 15.6356 3.85022 15.4863 3.87673 15.286C3.94369 14.7726 4.04135 14.2637 4.16858 13.762C4.22271 13.5477 4.09296 13.3301 3.87868 13.276C3.66439 13.2218 3.44675 13.3516 3.39263 13.5659C3.25703 14.0924 3.15435 14.6267 3.08459 15.166C3.06506 15.2734 3.09017 15.3842 3.15462 15.4726C3.2188 15.5611 3.31646 15.6194 3.42472 15.6339Z"
                                                    fill="white" />
                                                <path
                                                    d="M13.3636 4.22466C13.3982 4.2308 13.4334 4.2308 13.4677 4.22466C13.968 4.08822 14.4752 3.98024 14.9878 3.90072C15.2085 3.8664 15.36 3.65964 15.3256 3.43866C15.2913 3.21767 15.0846 3.06645 14.8636 3.10049C14.324 3.18503 13.7897 3.3011 13.2637 3.4487C13.0427 3.47856 12.8879 3.68168 12.9177 3.90267C12.9476 4.12365 13.1507 4.2785 13.3717 4.24865L13.3636 4.22466Z"
                                                    fill="white" />
                                                <path
                                                    d="M3.4495 18.8295C3.55497 18.8184 3.65179 18.7656 3.71875 18.6833C3.78544 18.6008 3.81669 18.495 3.80552 18.3895C3.76144 17.9414 3.73744 17.4816 3.73744 17.0254V16.8373C3.73744 16.7313 3.69531 16.6295 3.62026 16.5544C3.5452 16.4796 3.44364 16.4375 3.33761 16.4375C3.11663 16.4375 2.9375 16.6164 2.9375 16.8373V17.0254C2.94141 17.5078 2.96931 17.9897 3.02149 18.4693C3.04213 18.6747 3.2154 18.8304 3.4216 18.8295L3.4495 18.8295Z"
                                                    fill="white" />
                                                <path
                                                    d="M4.09063 12.5175C4.13695 12.5334 4.1855 12.5415 4.2346 12.5415C4.4009 12.5429 4.55073 12.4408 4.61044 12.2857C4.79375 11.8013 5.00609 11.3284 5.2466 10.8697C5.29877 10.7754 5.31105 10.6643 5.28036 10.5611C5.24939 10.4578 5.17824 10.3713 5.08309 10.3211C4.98767 10.2712 4.87607 10.2617 4.77367 10.2949C4.67127 10.3281 4.58644 10.4012 4.53845 10.4977C4.28232 10.9846 4.05659 11.4869 3.86267 12.0017C3.78371 12.207 3.88555 12.4377 4.09063 12.5175Z"
                                                    fill="white" />
                                                <path
                                                    d="M30.43 19.8247C30.3268 19.8007 30.218 19.8192 30.1279 19.8752C30.038 19.9316 29.9739 20.0215 29.9501 20.1247C29.8288 20.6275 29.6792 21.123 29.502 21.6088C29.4646 21.7084 29.4685 21.8191 29.5129 21.916C29.557 22.0128 29.6382 22.0878 29.7381 22.1247C29.783 22.1406 29.8304 22.1487 29.8781 22.1487C30.0464 22.1487 30.1968 22.0432 30.254 21.8847C30.4429 21.3694 30.6005 20.8431 30.7261 20.3089C30.7515 20.2053 30.7344 20.0962 30.6786 20.0053C30.6231 19.9143 30.5338 19.8496 30.43 19.8247Z"
                                                    fill="white" />
                                                <path
                                                    d="M24.9102 27.7175C24.4928 28.0241 24.0589 28.3073 23.61 28.5654C23.4557 28.6569 23.3812 28.8402 23.4278 29.0132C23.4744 29.1865 23.6307 29.3076 23.8101 29.3095C23.8787 29.3093 23.9462 29.2914 24.0062 29.2574C24.4839 28.9856 24.9449 28.6851 25.3862 28.3575C25.4805 28.2981 25.5455 28.2021 25.5662 28.0924C25.5866 27.9828 25.5603 27.8698 25.4939 27.7802C25.4272 27.6909 25.3265 27.6332 25.2157 27.6215C25.105 27.6095 24.9942 27.6444 24.9102 27.7175Z"
                                                    fill="white" />
                                                <path
                                                    d="M22.2244 29.2539C21.7475 29.4581 21.2585 29.633 20.7604 29.7778C20.5394 29.8099 20.3862 30.015 20.4183 30.236C20.4504 30.4567 20.6555 30.6099 20.8765 30.5778C20.9136 30.5831 20.9512 30.5831 20.9883 30.5778C21.5146 30.4224 22.0313 30.2368 22.5363 30.022C22.7395 29.9355 22.8343 29.7011 22.7484 29.498C22.7132 29.3945 22.6374 29.3099 22.5386 29.2639C22.4395 29.2179 22.3259 29.2142 22.2244 29.2539Z"
                                                    fill="white" />
                                                <path
                                                    d="M29.4212 22.8371C29.3264 22.7885 29.2159 22.7796 29.1146 22.8125C29.013 22.8457 28.929 22.918 28.881 23.0131C28.6419 23.4769 28.3746 23.9258 28.0811 24.3571C28.0259 24.4487 28.0094 24.5586 28.0356 24.6624C28.0621 24.7662 28.1288 24.8549 28.2212 24.909C28.3096 24.9682 28.4182 24.9897 28.5225 24.9687C28.6269 24.9475 28.7184 24.8859 28.7773 24.7972C29.0792 24.3382 29.3557 23.8627 29.6051 23.373C29.652 23.2776 29.659 23.1674 29.6244 23.0669C29.5898 22.9662 29.5167 22.8836 29.4213 22.837L29.4212 22.8371Z"
                                                    fill="white" />
                                                <path
                                                    d="M27.1691 25.5972C26.8363 25.9929 26.4794 26.3684 26.1013 26.7211C25.9722 26.8316 25.9267 27.0113 25.9878 27.1695C26.0492 27.328 26.2035 27.4303 26.3734 27.4253C26.4758 27.4259 26.5746 27.3871 26.6493 27.3173C27.05 26.9401 27.428 26.5391 27.7813 26.1173C27.9239 25.9482 27.9024 25.6957 27.7333 25.5531C27.5643 25.4108 27.3117 25.4323 27.1692 25.6011L27.1691 25.5972Z"
                                                    fill="white" />
                                                <path
                                                    d="M30.0324 14.3126C30.137 14.8198 30.2118 15.3326 30.2561 15.8486C30.2748 16.0553 30.4487 16.2135 30.6563 16.2127H30.6923C30.7986 16.2035 30.8968 16.1524 30.9651 16.0704C31.0335 15.9886 31.0661 15.8829 31.0564 15.7766C31.0061 15.23 30.9261 14.6864 30.8164 14.1485C30.7709 13.9278 30.5552 13.7852 30.3343 13.8307C30.1133 13.8759 29.971 14.0916 30.0162 14.3126L30.0324 14.3126Z"
                                                    fill="white" />
                                                <path
                                                    d="M30.7049 16.625C30.4842 16.625 30.3051 16.8041 30.3051 17.0251C30.307 17.5435 30.2791 18.062 30.2211 18.577C30.1976 18.7955 30.3547 18.9919 30.5729 19.0171H30.6209C30.8246 19.0187 30.9967 18.8672 31.021 18.6652C31.0807 18.1206 31.1089 17.5729 31.105 17.0251C31.105 16.9191 31.0629 16.8173 30.9878 16.7422C30.9128 16.6672 30.8112 16.625 30.7049 16.625Z"
                                                    fill="white" />
                                                <path
                                                    d="M6.75464 25.4491C6.61039 25.2948 6.37099 25.2792 6.20804 25.4137C6.0451 25.5479 6.01469 25.7859 6.13857 25.9569C6.48567 26.3797 6.85843 26.7803 7.25464 27.157C7.41061 27.3121 7.66256 27.3121 7.81881 27.157C7.97367 27.001 7.97367 26.7491 7.81881 26.5931C7.44242 26.2323 7.08721 25.8504 6.75464 25.4491Z"
                                                    fill="white" />
                                                <path
                                                    d="M5.08121 22.846C4.98383 22.6471 4.74388 22.5647 4.54522 22.6618C4.34628 22.7592 4.26397 22.9992 4.36107 23.1978C4.60047 23.69 4.86748 24.1683 5.161 24.6301C5.2807 24.8153 5.52763 24.8689 5.71318 24.75C5.89845 24.6306 5.95202 24.3837 5.83316 24.1979C5.55553 23.7629 5.3044 23.3114 5.08121 22.846Z"
                                                    fill="white" />
                                                <path
                                                    d="M16.1534 30.2809C15.6394 30.2483 15.128 30.1855 14.6213 30.0928C14.4006 30.0518 14.1883 30.1978 14.1475 30.4187C14.1065 30.6397 14.2524 30.8518 14.4734 30.8928C15.0142 30.9929 15.5605 31.061 16.1093 31.0967H16.1333C16.3543 31.1046 16.5395 30.9316 16.5473 30.7109C16.5552 30.4899 16.3824 30.3046 16.1615 30.2968L16.1534 30.2809Z"
                                                    fill="white" />
                                                <path
                                                    d="M10.2701 28.4694C9.82506 28.2044 9.39481 27.9145 8.98217 27.6014C8.80973 27.5077 8.59489 27.5526 8.47463 27.7075C8.35438 27.8626 8.36414 28.0819 8.49807 28.2256C8.93446 28.5588 9.38978 28.8657 9.86221 29.1455C9.92415 29.1812 9.99447 29.2005 10.0662 29.2016C10.2074 29.2016 10.3379 29.1271 10.4102 29.0055C10.5148 28.8182 10.4529 28.5816 10.2701 28.4694Z"
                                                    fill="white" />
                                                <path
                                                    d="M29.0496 11.3724C29.2692 11.8411 29.4614 12.3219 29.6257 12.8124C29.6793 12.977 29.8328 13.0883 30.0058 13.0883C30.0468 13.0942 30.0886 13.0942 30.1296 13.0883C30.2312 13.0554 30.3158 12.9834 30.3637 12.888C30.4117 12.7926 30.4198 12.6818 30.3858 12.5805C30.2111 12.0507 30.0069 11.5312 29.7736 11.0244C29.7287 10.9273 29.6464 10.8526 29.5457 10.8163C29.4452 10.7803 29.3342 10.7862 29.2376 10.8325C29.1402 10.8782 29.0655 10.9614 29.03 11.063C28.9946 11.1645 29.0019 11.2761 29.0496 11.3724Z"
                                                    fill="white" />
                                                <path
                                                    d="M13.1121 29.7208C12.6163 29.5693 12.13 29.3877 11.6562 29.177C11.4539 29.0874 11.2176 29.1787 11.128 29.381C11.0387 29.583 11.13 29.8196 11.3322 29.9089C11.8353 30.1318 12.3507 30.3254 12.876 30.4889C13.0881 30.5542 13.313 30.4351 13.378 30.223C13.4433 30.011 13.3242 29.7861 13.1121 29.7208Z"
                                                    fill="white" />
                                                <path
                                                    d="M19.2525 30.1252C18.7427 30.2094 18.2285 30.2655 17.7123 30.2934C17.4916 30.2934 17.3125 30.4723 17.3125 30.6932C17.3125 30.9142 17.4916 31.0934 17.7123 31.0934H17.7324C18.281 31.0655 18.827 31.0052 19.3686 30.9134C19.5893 30.8757 19.738 30.6662 19.7003 30.4452C19.6629 30.2245 19.4534 30.0758 19.2324 30.1132L19.2525 30.1252Z"
                                                    fill="white" />
                                                <path
                                                    d="M26.381 7.58785C26.4555 7.66179 26.5559 7.70364 26.6608 7.70392C26.8216 7.70336 26.9664 7.60654 27.0283 7.45811C27.0903 7.30967 27.0573 7.13863 26.9449 7.02396C26.5548 6.63723 26.1422 6.27396 25.7088 5.9361C25.5353 5.80078 25.285 5.83119 25.1488 6.0039C25.0827 6.08761 25.0526 6.19419 25.0654 6.30021C25.0782 6.40596 25.1326 6.5025 25.2169 6.56807C25.6243 6.88531 26.013 7.22571 26.381 7.58785Z"
                                                    fill="white" />
                                                <path
                                                    d="M4.48263 21.425C4.31354 20.9358 4.1718 20.4378 4.0588 19.9327C4.00132 19.7285 3.79457 19.6043 3.58754 19.6501C3.38023 19.6959 3.24462 19.8954 3.27866 20.1049C3.39446 20.6473 3.54541 21.1819 3.73067 21.7048C3.78675 21.8646 3.93714 21.9721 4.10679 21.9729C4.15171 21.9723 4.19635 21.9642 4.23876 21.9489C4.342 21.9137 4.42654 21.8378 4.47258 21.7388C4.51862 21.64 4.52225 21.5265 4.48263 21.425Z"
                                                    fill="white" />
                                                <path
                                                    d="M22.5688 4.94867C23.0398 5.1649 23.4977 5.40793 23.9411 5.6766C24.1288 5.79044 24.3735 5.73156 24.4891 5.54462C24.6029 5.35656 24.544 5.11186 24.3571 4.99662C23.8889 4.71035 23.4039 4.45254 22.9051 4.22455C22.7039 4.13164 22.4656 4.21953 22.373 4.42042C22.2801 4.6216 22.368 4.8596 22.5689 4.95251L22.5688 4.94867Z"
                                                    fill="white" />
                                                <path
                                                    d="M28.3128 10.0137C28.3859 10.1309 28.5145 10.202 28.6526 10.2017C28.7277 10.202 28.8011 10.1811 28.8647 10.1417C28.9551 10.0857 29.0193 9.99581 29.0432 9.8923C29.0672 9.78878 29.0491 9.67968 28.9927 9.58956C28.7028 9.12276 28.385 8.67413 28.0407 8.24556C27.9035 8.07425 27.6532 8.0455 27.4808 8.18167C27.399 8.24947 27.3474 8.34712 27.3376 8.45287C27.3279 8.55862 27.3608 8.66409 27.4289 8.74557C27.7489 9.15014 28.0441 9.57339 28.3128 10.0137Z"
                                                    fill="white" />
                                                <path
                                                    d="M19.6195 3.9922C20.1284 4.09543 20.6306 4.22908 21.1234 4.39231C21.1636 4.40487 21.2054 4.41157 21.2473 4.4124C21.4683 4.44644 21.6753 4.29522 21.7093 4.07423C21.7437 3.85325 21.5924 3.6465 21.3714 3.61217C20.8463 3.44755 20.3123 3.3139 19.7713 3.21234C19.5551 3.17076 19.3458 3.31195 19.3034 3.52819C19.2643 3.74331 19.4049 3.94978 19.6195 3.9922Z"
                                                    fill="white" />
                                                <path
                                                    d="M16.5313 3.74893C17.0489 3.73163 17.567 3.74223 18.0834 3.78102H18.1155H18.1152C18.3259 3.78129 18.5006 3.61891 18.5154 3.40881C18.5315 3.18922 18.3669 2.99781 18.1473 2.98079C17.6005 2.93699 17.0516 2.92499 16.5033 2.9448C16.3973 2.94871 16.2969 2.99419 16.2246 3.07203C16.1523 3.14959 16.1135 3.25283 16.1175 3.35886C16.125 3.57984 16.3105 3.75255 16.5312 3.74474L16.5313 3.74893Z"
                                                    fill="white" />
                                                <path
                                                    d="M28.6796 17.0254C28.6796 13.9341 27.4517 10.9693 25.2655 8.78321C23.0797 6.59714 20.1149 5.36914 17.0234 5.36914C13.9319 5.36914 10.9673 6.59707 8.78126 8.78321C6.59519 10.9691 5.36719 13.9339 5.36719 17.0254C5.36719 20.1169 6.59512 23.0814 8.78126 25.2675C10.9671 27.4536 13.9319 28.6816 17.0234 28.6816C20.1138 28.6785 23.0767 27.4494 25.262 25.2641C27.4473 23.0789 28.6763 20.116 28.6794 17.0256L28.6796 17.0254ZM17.0239 27.8811C14.1447 27.8811 11.3835 26.7374 9.34747 24.7014C7.3114 22.6654 6.16776 19.9042 6.16776 17.0249C6.16776 14.1456 7.31147 11.3846 9.34747 9.3485C11.3835 7.31243 14.1446 6.16878 17.0239 6.16878C19.9032 6.16878 22.6643 7.3125 24.7003 9.3485C26.7364 11.3845 27.88 14.1456 27.88 17.0249C27.8778 19.9036 26.7335 22.6636 24.6981 24.6992C22.6627 26.7349 19.9026 27.8789 17.0238 27.8811L17.0239 27.8811Z"
                                                    fill="white" />
                                                <path
                                                    d="M24.0296 14.1894L19.8976 12.8535L17.3457 9.33343H17.3454C17.2703 9.22935 17.1498 9.16797 17.0214 9.16797C16.8931 9.16797 16.7726 9.22935 16.6975 9.33343L14.1456 12.8535L10.0133 14.1894C9.89051 14.2279 9.7937 14.3231 9.75324 14.4453C9.71418 14.5681 9.7365 14.702 9.81351 14.8055L12.3696 18.3175L12.3693 22.6654C12.3629 22.7968 12.4215 22.9232 12.5261 23.003C12.6307 23.0831 12.7683 23.1063 12.8933 23.0653L17.0214 21.6973L21.1534 23.0452V23.0455C21.2753 23.0856 21.4092 23.0647 21.5133 22.9894C21.6168 22.9138 21.6776 22.7935 21.6774 22.6654V18.3175L24.2214 14.8055C24.2982 14.702 24.3205 14.5681 24.2814 14.4453C24.2426 14.325 24.1492 14.2302 24.0295 14.1894L24.0296 14.1894ZM20.9495 17.9534C20.8999 18.022 20.8731 18.1046 20.8736 18.1894V22.1135L17.1418 20.9135H17.1415C17.0609 20.887 16.9741 20.887 16.8934 20.9135L13.1616 22.1135V18.1894C13.1647 18.1043 13.1376 18.0206 13.0854 17.9534L10.7774 14.7815L14.5093 13.5814H14.5095C14.5902 13.5546 14.6602 13.5027 14.7096 13.4333L17.0215 10.2494L19.3257 13.4255C19.3748 13.4947 19.4448 13.5466 19.5255 13.5734L23.2573 14.7734L20.9495 17.9534Z"
                                                    fill="white" />
                                            </svg>