<svg width="45" height="45" viewBox="0 0 26 20"
                                                fill="none" xmlns="http://www.w3.org/2000/svg">
                                                <path
                                                    d="M19.4089 7.57489V1.17503C19.4089 0.735015 19.0528 0.3751 18.6089 0.3751H12.2088C11.9967 0.3751 11.7928 0.459086 11.6449 0.61115L0.444895 11.8112C0.132952 12.1231 0.132952 12.6312 0.444895 12.9432L6.84504 19.3433C7.00073 19.4951 7.2047 19.5749 7.40893 19.5749C7.6129 19.5749 7.81685 19.4948 7.97282 19.3388L19.1728 8.13883C19.3249 7.99095 19.4089 7.78694 19.4089 7.57489ZM17.8087 7.24314L7.40872 17.6431L2.14086 12.375L12.5409 1.97499H17.8087V7.24314ZM25.573 16.1389L22.3729 19.3389C22.217 19.4949 22.013 19.5747 21.809 19.5747C21.6051 19.5747 21.4011 19.4946 21.2451 19.3386L18.0451 16.1386C17.7331 15.8266 17.7331 15.3186 18.0451 15.0066C18.357 14.6946 18.8651 14.6946 19.1771 15.0066L21.0091 16.8428V1.17493C21.0091 0.734915 21.3651 0.375 21.809 0.375C22.2529 0.375 22.6089 0.734936 22.6089 1.17493V16.8428L24.4449 15.0069C24.7568 14.6949 25.2649 14.6949 25.5769 15.0069C25.8891 15.3188 25.8891 15.8269 25.573 16.1389Z"
                                                    fill="white" />
                                            </svg>