<svg width="38" height="38" viewBox="0 0 30 30" fill="none" xmlns="http://www.w3.org/2000/svg">
                                <path d="M16.6509 15.0137C16.6509 14.5801 16.4787 14.164 16.1721 13.8574C15.8654 13.5507 15.4494 13.3783 15.0157 13.3783C14.582 13.3783 14.166 13.5507 13.8594 13.8574C13.5528 14.164 13.3806 14.5799 13.3806 15.0137C13.3806 15.4474 13.5528 15.8632 13.8594 16.17C14.166 16.4767 14.582 16.6489 15.0157 16.6489C15.4492 16.6484 15.8648 16.476 16.1714 16.1694C16.478 15.8628 16.6505 15.4471 16.6509 15.0137ZM15.0157 16.1817C14.7059 16.1817 14.4088 16.0585 14.1898 15.8395C13.971 15.6204 13.8477 15.3233 13.848 15.0137C13.848 14.7039 13.9709 14.4068 14.19 14.1878C14.4091 13.9687 14.7061 13.8457 15.016 13.8457C15.3256 13.8457 15.6227 13.9687 15.8417 14.1878C16.0607 14.4068 16.1837 14.7039 16.1837 15.0137C16.1835 15.3233 16.0603 15.6202 15.8413 15.8392C15.6222 16.0583 15.3253 16.1813 15.0157 16.1817ZM29.0323 14.7801H27.9434C27.8794 11.4336 26.5214 8.24189 24.1544 5.87504C21.7877 3.50807 18.5961 2.15033 15.2494 2.08627V0.997356C15.2494 0.868215 15.1446 0.763672 15.0157 0.763672C14.8868 0.763672 14.782 0.868215 14.782 0.997356V2.08627C11.4356 2.15031 8.24385 3.50829 5.87699 5.87504C3.51003 8.24178 2.15229 11.4334 2.08801 14.7801H0.999097C0.870168 14.7801 0.765625 14.8848 0.765625 15.0137C0.765625 15.1427 0.870168 15.2474 0.999097 15.2474H2.08801C2.15227 18.5939 3.51003 21.7856 5.87699 24.1525C8.24374 26.5192 11.4353 27.8772 14.782 27.9412V29.0301C14.782 29.1593 14.8868 29.2638 15.0157 29.2638C15.1446 29.2638 15.2494 29.1593 15.2494 29.0301V27.9412C18.5958 27.8772 21.7876 26.5194 24.1544 24.1525C26.5214 21.7857 27.8793 18.5941 27.9434 15.2474H29.0323C29.1612 15.2474 29.2658 15.1427 29.2658 15.0137C29.2658 14.8848 29.1612 14.7801 29.0323 14.7801ZM15.2497 5.82944C17.6039 5.89157 19.8445 6.85451 21.5099 8.51978C23.1752 10.1851 24.1381 12.4256 24.2003 14.78H21.3119C21.2515 13.1915 20.5935 11.6845 19.4694 10.5605C18.3455 9.43645 16.8384 8.77845 15.2499 8.7182L15.2497 5.82944ZM24.2003 15.2469C24.1382 17.6011 23.1753 19.8417 21.51 21.5071C19.8447 23.1724 17.6042 24.1353 15.2498 24.1975V21.3089C16.8383 21.2487 18.3453 20.5907 19.4692 19.4665C20.5933 18.3427 21.2513 16.8356 21.3117 15.2471L24.2003 15.2469ZM14.7829 2.55275V5.36182C12.3048 5.42416 9.94551 6.4363 8.19257 8.18913C6.43963 9.94196 5.42758 12.3013 5.36526 14.7794H2.5562C2.62003 11.5568 3.92859 8.4839 6.208 6.20444C8.48713 3.92509 11.5602 2.61648 14.783 2.55264L14.7829 2.55275ZM14.7829 5.82916V8.71754C13.1944 8.77777 11.6873 9.43574 10.5634 10.5599C9.4393 11.6838 8.7813 13.1909 8.72105 14.7794H5.83266C5.89458 12.4251 6.85752 10.1846 8.52279 8.51913C10.1881 6.85386 12.4286 5.89094 14.783 5.82878L14.7829 5.82916ZM14.7829 27.4734V27.4732C11.5603 27.4094 8.48734 26.1006 6.20843 23.8214C3.9293 21.5423 2.62047 18.4694 2.55663 15.247H5.36592C5.42805 17.7249 6.44018 20.0841 8.19301 21.8367C9.94562 23.5896 12.3052 24.6017 14.7828 24.664L14.7829 27.4734ZM14.7829 24.197C12.4287 24.1349 10.1881 23.1719 8.52263 21.5067C6.85736 19.8414 5.89444 17.6009 5.8325 15.2464H8.72088C8.78111 16.8349 9.43908 18.342 10.5632 19.4659C11.6871 20.59 13.1942 21.248 14.7827 21.3082L14.7829 24.197ZM15.0165 18.5963C14.8876 18.5963 14.7829 18.7011 14.7829 18.83V20.8412C13.3184 20.7811 11.9299 20.1726 10.8934 19.136C9.85692 18.0995 9.24827 16.711 9.18828 15.2466H11.1994C11.3285 15.2466 11.4331 15.1418 11.4331 15.0129C11.4331 14.884 11.3285 14.7792 11.1994 14.7792H9.18828C9.24829 13.3147 9.85686 11.9262 10.8934 10.8897C11.9299 9.85327 13.3184 9.24462 14.7829 9.18463V11.1958C14.7829 11.3249 14.8876 11.4294 15.0165 11.4294C15.1455 11.4294 15.2502 11.3249 15.2502 11.1958V9.18463C16.7147 9.24465 18.1032 9.85322 19.1397 10.8897C20.1762 11.9263 20.7848 13.3148 20.8448 14.7792H18.8337C18.7045 14.7792 18.6 14.884 18.6 15.0129C18.6 15.1418 18.7045 15.2466 18.8337 15.2466H20.8448C20.7848 16.711 20.1762 18.0996 19.1397 19.136C18.1032 20.1725 16.7146 20.7812 15.2502 20.8412V18.83C15.2502 18.7681 15.2256 18.7087 15.1817 18.6648C15.1378 18.6209 15.0785 18.5963 15.0165 18.5963ZM15.2502 27.4731V24.6641C17.7283 24.6019 20.0876 23.5896 21.8405 21.8368C23.5935 20.0839 24.6057 17.7246 24.6678 15.2465H27.4771H27.4769C27.4131 18.469 26.1045 21.542 23.8251 23.8215C21.546 26.1008 18.4728 27.4094 15.2501 27.4733L15.2502 27.4731ZM24.6677 14.779C24.6056 12.3009 23.5932 9.94163 21.8404 8.18869C20.0876 6.43575 17.7283 5.42349 15.2501 5.36138V2.55232C18.4727 2.61614 21.5456 3.92471 23.8251 6.2039C26.1044 8.48325 27.413 11.5561 27.4769 14.7789L24.6677 14.779Z" fill="url(#paint0_linear_5637_29387)"></path>
                                <defs>
                                    <linearGradient id="paint0_linear_5637_29387" x1="22.9704" y1="0.763672" x2="22.8398" y2="35.3712" gradientUnits="userSpaceOnUse">
                                        <stop stop-color="#005CAA"></stop>
                                        <stop offset="1" stop-color="#64B0F1"></stop>
                                    </linearGradient>
                                </defs>
                            </svg>