<svg width="38" height="38" viewBox="0 0 30 30" fill="none" xmlns="http://www.w3.org/2000/svg">
                                <path d="M9.29692 24.0262C9.29692 25.5746 9.9269 27.0562 11.0419 28.1307C12.1569 29.2049 13.661 29.7796 15.2084 29.7221C16.7557 29.6647 18.213 28.9801 19.2454 27.8261L18.5376 27.1929C17.5429 28.3052 16.0833 28.8856 14.5963 28.7596C13.1094 28.6338 11.7679 27.8164 10.9745 26.5528C10.1807 25.2891 10.027 23.7261 10.5595 22.332C11.0917 20.938 12.2482 19.8752 13.6821 19.4621C15.116 19.0491 16.6609 19.3338 17.853 20.2312C19.0454 21.1284 19.7467 22.5339 19.7469 24.0261C19.7469 24.1733 19.7327 24.3188 19.7193 24.4647L19.1769 23.7411L18.4169 24.3111L19.8419 26.2111C19.9316 26.3307 20.0724 26.4011 20.2219 26.4011C20.3714 26.4011 20.5122 26.3307 20.6019 26.2111L22.0269 24.3111L21.2669 23.7411L20.6646 24.5444C20.6799 24.3724 20.6969 24.2 20.6969 24.0261C20.6969 21.9898 19.6105 20.108 17.8469 19.0897C16.0832 18.0717 13.9105 18.0717 12.1469 19.0897C10.3832 20.108 9.29688 21.9898 9.29688 24.0261L9.29692 24.0262Z" fill="#CC1212"></path>
                                <path d="M14.5201 24.2057L12.8828 25.0243L13.3076 25.8746L15.2076 24.9246L15.2073 24.9244C15.3685 24.8438 15.4701 24.6793 15.4701 24.4992V20.6992H14.5201L14.5201 24.2057Z" fill="#CC1212"></path>
                                <path d="M23.0703 23.5508H29.7203V24.5008H23.0703V23.5508Z" fill="#CC1212"></path>
                                <path d="M0.273438 23.5508H8.34844V24.5008H0.273438V23.5508Z" fill="#CC1212"></path>
                                <path d="M5.97656 22.6008V12.1508C5.97656 12.0248 5.92652 11.9039 5.83746 11.8149C5.74839 11.7258 5.62752 11.6758 5.50156 11.6758H1.70156C1.43925 11.6758 1.22656 11.8885 1.22656 12.1508V22.6008H2.17656V12.6258H5.02656V22.6008H5.97656Z" fill="#CC1212"></path>
                                <path d="M13.0953 6.92578H9.29531C9.033 6.92578 8.82031 7.13847 8.82031 7.40078V19.7508H9.77031V7.87578H12.6203V17.3758H13.5703V7.40078C13.5703 7.27482 13.5203 7.15395 13.4312 7.06489C13.3421 6.97583 13.2213 6.92578 13.0953 6.92578Z" fill="#CC1212"></path>
                                <path d="M21.1719 19.7508V12.1508C21.1719 12.0248 21.1218 11.9039 21.0328 11.8149C20.9437 11.7258 20.8228 11.6758 20.6969 11.6758H16.8969C16.6346 11.6758 16.4219 11.8885 16.4219 12.1508V17.3758H17.3719V12.6258H20.2219V19.7508H21.1719Z" fill="#CC1212"></path>
                                <path d="M28.7734 22.6008V7.40078C28.7734 7.27482 28.7234 7.15395 28.6343 7.06489C28.5453 6.97583 28.4244 6.92578 28.2984 6.92578H24.4984C24.2361 6.92578 24.0234 7.13847 24.0234 7.40078V22.6008H24.9734V7.87578H27.8234V22.6008H28.7734Z" fill="#CC1212"></path>
                                <path d="M26.4005 4.07539C26.9043 4.07539 27.3876 3.87521 27.744 3.51896C28.1003 3.1625 28.3005 2.67922 28.3005 2.17539C28.3005 1.67156 28.1003 1.18826 27.744 0.831819C27.3876 0.475569 26.9043 0.275391 26.4005 0.275391C25.8967 0.275391 25.4133 0.475569 25.0569 0.831819C24.7007 1.18828 24.5005 1.67156 24.5005 2.17539C24.5026 2.36921 24.5346 2.56133 24.5955 2.74539L20.104 5.54789C19.746 5.20542 19.2681 5.01712 18.7727 5.0237C18.2776 5.03006 17.8045 5.23087 17.4559 5.58268L12.5447 2.69321C12.5958 2.52526 12.6229 2.35096 12.6255 2.17537C12.6253 1.60706 12.3706 1.06865 11.9312 0.708194C11.4921 0.347493 10.9146 0.202235 10.3572 0.3125C9.79949 0.422766 9.32063 0.776687 9.05176 1.27732C8.78287 1.77798 8.75213 2.37259 8.96799 2.89824L4.30452 6.39711C3.97118 6.12611 3.55511 5.97725 3.12549 5.97534C2.5771 5.97471 2.05503 6.21051 1.69284 6.62232C1.33065 7.03413 1.16376 7.58231 1.2348 8.12598C1.30563 8.66992 1.60781 9.15654 2.06331 9.4619C2.51901 9.76704 3.08415 9.86098 3.61404 9.71954C4.14396 9.5781 4.58716 9.21507 4.83015 8.72329C5.07316 8.23175 5.09245 7.65918 4.88295 7.15237L9.54832 3.65349C9.91072 3.94846 10.37 4.09796 10.8367 4.07251C11.3033 4.04707 11.7437 3.8488 12.0719 3.5163L16.9812 6.40745C16.9301 6.5754 16.903 6.74971 16.9004 6.92529C16.9004 7.60408 17.2626 8.23135 17.8504 8.5708C18.4382 8.91008 19.1626 8.91008 19.7504 8.5708C20.3382 8.2313 20.7004 7.60402 20.7004 6.92529C20.6983 6.73147 20.6663 6.53935 20.6054 6.35529L25.0969 3.55279C25.4483 3.88783 25.915 4.07508 26.4004 4.07529L26.4005 4.07539ZM26.4005 1.22539C26.6524 1.22539 26.8941 1.32548 27.0723 1.50361C27.2504 1.68173 27.3505 1.92347 27.3505 2.17539C27.3505 2.42731 27.2504 2.66905 27.0723 2.84718C26.8941 3.0253 26.6524 3.12539 26.4005 3.12539C26.1486 3.12539 25.9068 3.0253 25.7287 2.84718C25.5506 2.66905 25.4505 2.42731 25.4505 2.17539C25.4505 1.92347 25.5506 1.68173 25.7287 1.50361C25.9068 1.32548 26.1486 1.22539 26.4005 1.22539ZM3.12548 8.82539C2.87356 8.82539 2.63181 8.7253 2.45369 8.54718C2.27557 8.36905 2.17548 8.12731 2.17548 7.87539C2.17548 7.62347 2.27557 7.38173 2.45369 7.20361C2.63181 7.02548 2.87356 6.92539 3.12548 6.92539C3.37739 6.92539 3.61914 7.02548 3.79726 7.20361C3.97538 7.38173 4.07548 7.62347 4.07548 7.87539C4.07548 8.12731 3.97538 8.36905 3.79726 8.54718C3.61914 8.7253 3.37739 8.82539 3.12548 8.82539ZM10.7255 3.12539C10.4736 3.12539 10.2318 3.0253 10.0537 2.84718C9.87557 2.66905 9.77548 2.42731 9.77548 2.17539C9.77548 1.92347 9.87557 1.68173 10.0537 1.50361C10.2318 1.32548 10.4736 1.22539 10.7255 1.22539C10.9774 1.22539 11.2191 1.32548 11.3973 1.50361C11.5754 1.68173 11.6755 1.92347 11.6755 2.17539C11.6755 2.42731 11.5754 2.66905 11.3973 2.84718C11.2191 3.0253 10.9774 3.12539 10.7255 3.12539ZM18.8005 7.87539C18.5486 7.87539 18.3068 7.7753 18.1287 7.59718C17.9506 7.41905 17.8505 7.17731 17.8505 6.92539C17.8505 6.67347 17.9506 6.43173 18.1287 6.25361C18.3068 6.07548 18.5486 5.97539 18.8005 5.97539C19.0524 5.97539 19.2941 6.07548 19.4723 6.25361C19.6504 6.43173 19.7505 6.67347 19.7505 6.92539C19.7505 7.17731 19.6504 7.41905 19.4723 7.59718C19.2941 7.7753 19.0524 7.87539 18.8005 7.87539Z" fill="#CC1212"></path>
                            </svg>