<svg width="45" height="45" viewBox="0 0 32 33"
                                                fill="none" xmlns="http://www.w3.org/2000/svg">
                                                <path
                                                    d="M0.653139 32.0012H31.321C31.5649 32.0012 31.761 31.8053 31.761 31.5612V29.3533C31.761 29.1094 31.5651 28.9133 31.321 28.9133H30.0529V27.1451C30.0529 26.9013 29.857 26.7051 29.6128 26.7051H27.8651V24.5333C27.8651 24.2894 27.6692 24.0933 27.425 24.0933H26.7052L26.7049 13.129H27.4248C27.6686 13.129 27.8648 12.9331 27.8648 12.689V10.5171H31.3207C31.5166 10.5171 31.6887 10.389 31.7448 10.201C31.8009 10.0129 31.7208 9.81285 31.5568 9.70906L16.2168 0.0690589C16.0728 -0.0230196 15.8928 -0.0230196 15.7488 0.0690589L0.416695 9.70477C0.252631 9.80884 0.172831 10.0089 0.228638 10.1967C0.284721 10.3847 0.456595 10.5128 0.652745 10.5128H4.10867V12.6847C4.10867 12.9285 4.30455 13.1247 4.54869 13.1247H5.26855V24.0925H4.54869C4.30482 24.0925 4.10867 24.2884 4.10867 24.5326V26.7044H2.3606C2.11674 26.7044 1.92059 26.9003 1.92059 27.1444V28.9126H0.652446C0.408581 28.9126 0.212431 29.1084 0.212431 29.3526V31.5604C0.21271 31.8049 0.408859 32.0007 0.652724 32.0007L0.653139 32.0012ZM26.9853 24.9732V26.7051H23.1451V24.9732H26.9853ZM18.3453 24.0971H17.6254V13.1292H18.3453C18.5891 13.1292 18.7853 12.9334 18.7853 12.6892V10.5174H22.2694V12.6892C22.2694 12.9331 22.4652 13.1292 22.7094 13.1292H23.4292V24.0971H22.7094C22.4655 24.0971 22.2694 24.293 22.2694 24.5371V26.709H18.7853V24.5371C18.7853 24.2932 18.5852 24.0971 18.3453 24.0971ZM9.26528 24.0971H8.54542L8.54515 13.1292H9.265C9.50887 13.1292 9.70502 12.9334 9.70502 12.6892V10.5174L13.1852 10.5171V12.6889C13.1852 12.9328 13.3811 13.129 13.6252 13.129H14.3451V24.0968H13.6252C13.3814 24.0968 13.1852 24.2927 13.1852 24.5368V26.7087H9.70116V24.5368C9.70116 24.2932 9.50524 24.0971 9.26528 24.0971ZM14.7851 12.2492H14.0652V10.5174H17.9054V12.2492H14.7851ZM16.7451 13.1292V24.0971H15.2251V13.1292H16.7451ZM14.0651 24.9735H17.905V26.7054H14.0649L14.0651 24.9735ZM24.3051 24.0974V13.1295H25.8291V24.0974H24.3051ZM26.9851 12.2495H23.1453V10.5177H26.9854L26.9851 12.2495ZM2.17728 9.63738L15.9851 0.95738L29.793 9.63738H2.17728ZM4.98528 12.2495V10.5177H8.82542V12.2495H4.98528ZM7.66528 13.1295V24.0974H6.14521V13.1295H7.66528ZM4.98528 24.9738H8.82514V26.7057H4.985L4.98528 24.9738ZM2.79721 27.5857H29.1729V28.9177H2.79721V27.5857ZM1.08935 29.7938H30.8815V31.1258L1.08935 31.1255V29.7938Z"
                                                    fill="white" />
                                            </svg>