<svg width="38" height="38" viewBox="0 0 28 30" fill="none" xmlns="http://www.w3.org/2000/svg">
                                <path d="M10.3461 17.1632H12.1464C12.3127 17.1632 12.4473 17.0286 12.4473 16.8623C12.4473 16.6961 12.3127 16.5614 12.1464 16.5614H11.0047V15.9611C11.0047 15.7948 10.8701 15.6602 10.7038 15.6602C10.5376 15.6602 10.4029 15.7948 10.4029 15.9611V16.5614H10.3459C9.58229 16.5614 8.96094 17.1827 8.96094 17.9463C8.96094 18.7101 9.58224 19.3313 10.3459 19.3313H11.0622C11.4941 19.3313 11.8455 19.6827 11.8455 20.1146C11.8455 20.5466 11.4941 20.898 11.0622 20.898H9.26184C9.09559 20.898 8.96094 21.0328 8.96094 21.1989C8.96094 21.3649 9.09559 21.4998 9.26184 21.4998H10.4029V22.0999C10.4029 22.2662 10.5376 22.4008 10.7038 22.4008C10.8701 22.4008 11.0047 22.2662 11.0047 22.0999V21.4998H11.0624C11.826 21.4998 12.4474 20.8785 12.4474 20.1146C12.4474 19.3508 11.8261 18.7297 11.0624 18.7297H10.3461C9.91417 18.7297 9.56278 18.3783 9.56278 17.9463C9.56278 17.5146 9.91411 17.1632 10.3461 17.1632Z" fill="url(#paint0_linear_5637_29391)"></path>
                                <path d="M10.7001 13.8379C7.837 13.8379 5.50781 16.1666 5.50781 19.029C5.50781 21.8921 7.837 24.2215 10.7001 24.2215C13.5626 24.2215 15.8914 21.8921 15.8914 19.029C15.8914 16.1666 13.5627 13.8379 10.7001 13.8379ZM10.7001 23.6202C8.16863 23.6202 6.10941 21.5607 6.10941 19.0292C6.10941 16.4986 8.16868 14.4398 10.7001 14.4398C13.2306 14.4398 15.2896 16.4986 15.2896 19.0292C15.2898 21.5607 13.2308 23.6202 10.7001 23.6202Z" fill="url(#paint1_linear_5637_29391)"></path>
                                <path d="M24.3246 10.2943H14.1096V2.71497C14.1096 2.54893 13.975 2.41406 13.8087 2.41406C13.6425 2.41406 13.5078 2.54872 13.5078 2.71497V10.5951C13.5078 10.7613 13.6425 10.896 13.8087 10.896H24.3244C24.4907 10.896 24.6253 10.7613 24.6253 10.5951C24.6253 10.429 24.4907 10.2944 24.3244 10.2944L24.3246 10.2943Z" fill="url(#paint2_linear_5637_29391)"></path>
                                <path d="M15.5153 9.42337H16.8834C17.2193 9.42337 17.4925 9.15025 17.4925 8.81456V5.86511C17.4925 5.52922 17.2194 5.25586 16.8834 5.25586H15.5153C15.1794 5.25586 14.9062 5.52898 14.9062 5.86511V8.81456C14.9062 9.15024 15.1794 9.42337 15.5153 9.42337ZM15.5153 5.85767H16.8834C16.8875 5.85767 16.8909 5.86085 16.8909 5.86509L16.8834 8.82176L15.5078 8.81455L15.5153 5.85767Z" fill="url(#paint3_linear_5637_29391)"></path>
                                <path d="M18.3823 9.42289H19.7504C20.0861 9.42289 20.3595 9.14977 20.3595 8.81408L20.3597 3.02288C20.3597 2.68698 20.0863 2.41406 19.7506 2.41406H18.3825C18.0466 2.41406 17.7734 2.68718 17.7734 3.02288V8.81408C17.7732 9.14976 18.0466 9.42289 18.3823 9.42289ZM18.3823 3.01609H19.7504C19.7544 3.01609 19.7578 3.01927 19.7578 3.0233L19.7504 8.82156L18.3748 8.81435L18.3823 3.01609Z" fill="url(#paint4_linear_5637_29391)"></path>
                                <path d="M25.3306 0.561051H12.8047C11.6997 0.561051 10.8006 1.45997 10.8006 2.56495V8.61564H10.1087C9.54631 8.61564 9.0889 9.07176 9.0889 9.63241V10.7202C8.6949 10.7979 8.30941 10.9039 7.93744 11.0364L7.38927 10.0858C7.11614 9.60377 6.49632 9.43477 6.00541 9.7117L4.97377 10.3059C4.49813 10.5862 4.33146 11.2071 4.60437 11.6935L5.1538 12.641C4.85565 12.8969 4.57234 13.1781 4.3077 13.4813L3.35938 12.93C2.87993 12.6564 2.26096 12.8223 1.97786 13.3028L1.38094 14.3397C1.1059 14.8253 1.27491 15.446 1.75797 15.7238L2.70352 16.266C2.57268 16.6469 2.46877 17.0347 2.39307 17.4243L1.29992 17.4247C0.742619 17.4247 0.289062 17.8781 0.289062 18.4355V19.6209C0.289062 20.1833 0.742647 20.6409 1.29992 20.6409H2.3935C2.46963 21.0262 2.57354 21.413 2.70438 21.7962L1.75948 22.3407C1.27706 22.6136 1.10425 23.2381 1.38245 23.725L1.97916 24.7558C2.26097 25.2339 2.87997 25.3997 3.36154 25.1252L4.30818 24.5746C4.57091 24.8753 4.85462 25.1591 5.15514 25.4216L4.6036 26.3704C4.32602 26.8562 4.49376 27.4762 4.97575 27.7517L6.00572 28.3482C6.50807 28.6357 7.12259 28.4491 7.38723 27.9737L7.93813 27.026C8.31621 27.1562 8.70149 27.2601 9.08871 27.3364V28.4302C9.08871 28.9875 9.54611 29.4411 10.1085 29.4411H11.2939C11.8511 29.4411 12.3047 28.9875 12.3047 28.4302V27.337C12.6945 27.2611 13.0825 27.1572 13.4629 27.0266L14.0062 27.974C14.2883 28.4582 14.9047 28.6329 15.3912 28.3481L16.4252 27.7529C16.9052 27.4787 17.0759 26.8544 16.7977 26.3688L16.2474 25.422C16.5492 25.1584 16.8321 24.8749 17.0921 24.5757L18.0393 25.1277C18.5285 25.4021 19.1507 25.2341 19.4248 24.7536L20.0171 23.7255C20.2979 23.2416 20.1271 22.6148 19.6452 22.3421L18.6985 21.7965C18.8289 21.4139 18.933 21.0272 19.009 20.6412H20.0968C20.667 20.6412 21.1136 20.1932 21.1136 19.6213V18.4359C21.1136 17.8786 20.6572 17.425 20.0968 17.425H19.0096C18.9337 17.0349 18.8298 16.6468 18.6992 16.2668L19.6452 15.7244C20.1288 15.4457 20.2964 14.8233 20.0179 14.3392L19.4252 13.3046C19.1504 12.8234 18.5295 12.6548 18.0346 12.9322L17.0901 13.4827C17.0386 13.424 16.9767 13.3608 16.919 13.2993L17.1315 12.7492H25.3297C26.4347 12.7492 27.3334 11.8503 27.3334 10.7453L27.3341 2.56445C27.3341 1.45946 26.4354 0.560547 25.3304 0.560547L25.3306 0.561051ZM17.1769 14.1287L18.3338 13.4543C18.5327 13.3424 18.7935 13.4109 18.9032 13.6032L19.4963 14.6386C19.6093 14.8348 19.5404 15.0903 19.3455 15.2023L18.1811 15.8701C18.0531 15.9434 17.9973 16.0991 18.0492 16.2371C18.2378 16.7378 18.3764 17.255 18.4608 17.7741C18.4846 17.9198 18.6103 18.0266 18.7579 18.0266H20.0968C20.3295 18.0266 20.512 18.2062 20.512 18.4357V19.6211C20.512 19.8556 20.3297 20.0392 20.0968 20.0392L18.7581 20.0397C18.611 20.0397 18.4854 20.1461 18.4613 20.2914C18.3764 20.8035 18.2378 21.3202 18.0488 21.827C17.9977 21.9649 18.0533 22.1195 18.1807 22.1926L19.3472 22.8646C19.5408 22.9747 19.6091 23.2302 19.4965 23.4244L18.9034 24.4542C18.7931 24.6465 18.5321 24.7137 18.3385 24.6054L17.177 23.9285C17.0487 23.8538 16.8865 23.8833 16.7924 23.998C16.4597 24.4052 16.0822 24.7837 15.6697 25.1234C15.5561 25.2171 15.527 25.3795 15.601 25.5068L16.2768 26.6695C16.3856 26.8592 16.3231 27.1188 16.1261 27.231L15.0898 27.8275C14.8889 27.9443 14.6415 27.8688 14.5274 27.6729L13.8596 26.5085C13.7863 26.3804 13.6302 26.3247 13.4928 26.3766C12.9913 26.5656 12.4745 26.704 11.9558 26.7884C11.8104 26.8122 11.7035 26.9379 11.7035 27.0853V28.4301C11.7035 28.6596 11.5237 28.8392 11.2942 28.8392H10.1086C9.87793 28.8392 9.69047 28.6558 9.69047 28.4301V27.0853C9.69047 26.9381 9.58403 26.8124 9.43877 26.7886C8.92348 26.7032 8.40924 26.5645 7.9103 26.3766C7.77395 26.3249 7.61788 26.3798 7.54429 26.507L6.86447 27.6761C6.75314 27.8765 6.50441 27.9407 6.30615 27.8268L5.2758 27.2304C5.08368 27.1205 5.01498 26.8633 5.12482 26.6709L5.80171 25.5066C5.87572 25.3791 5.84667 25.2169 5.73301 25.1232C5.32311 24.7856 4.94418 24.4067 4.60658 23.997C4.51306 23.8831 4.35063 23.8534 4.22319 23.928L3.06093 24.6038C2.86605 24.7152 2.61328 24.6467 2.4988 24.4524L1.90377 23.425C1.79584 23.2363 1.85606 22.9776 2.05751 22.8631L3.22189 22.1921C3.34912 22.1188 3.40489 21.9644 3.35378 21.8268C3.16463 21.3185 3.02595 20.8017 2.94134 20.2909C2.91716 20.1458 2.79184 20.0392 2.64446 20.0392L1.2998 20.0394C1.07036 20.0394 0.890537 19.8557 0.890537 19.6212V18.4358C0.890537 18.2064 1.07036 18.0268 1.2998 18.0268H2.64462C2.79221 18.0268 2.91774 17.9199 2.94171 17.7742C3.02611 17.2566 3.16437 16.7394 3.35331 16.2373C3.40526 16.0992 3.34949 15.9438 3.22141 15.8702L2.05763 15.2027C1.86085 15.0894 1.79193 14.8356 1.90347 14.6386L2.49806 13.6063C2.613 13.4101 2.86597 13.3412 3.05894 13.4521L4.22332 14.129C4.35119 14.2034 4.51383 14.1735 4.60713 14.0599C4.94854 13.6445 5.32642 13.2695 5.73036 12.9453C5.84635 12.8523 5.87689 12.6883 5.80246 12.5598L5.12747 11.3961C5.0155 11.1965 5.08378 10.9401 5.27696 10.8263L6.30394 10.2348C6.50285 10.1224 6.75583 10.1884 6.86716 10.3847L7.54404 11.5582C7.61869 11.6876 7.77645 11.7425 7.91514 11.6878C8.39926 11.4967 8.9122 11.3557 9.43915 11.2684C9.58462 11.2444 9.69086 11.1189 9.69086 10.9717V9.6328C9.69086 9.40399 9.87831 9.2176 10.109 9.2176H10.801L10.8003 10.7453C10.8003 11.8502 11.6994 12.7492 12.8044 12.7492H13.8034L14.6361 14.8983C14.9317 15.6594 16.0083 15.6579 16.3021 14.8973L16.6774 13.926C16.7173 13.9721 16.7595 14.02 16.7951 14.0626C16.8892 14.1739 17.0491 14.2023 17.1768 14.1285L17.1769 14.1287ZM26.7322 10.7454C26.7322 11.5185 26.1033 12.1475 25.3302 12.1475H16.9256C16.8014 12.1475 16.6896 12.224 16.6451 12.34L15.7407 14.6807C15.6448 14.929 15.2935 14.929 15.1972 14.6809L14.2898 12.3396C14.2448 12.2238 14.1335 12.1475 14.0092 12.1475H12.8044C12.031 12.1475 11.4021 11.5185 11.4021 10.7454L11.4019 2.56505C11.4019 1.79191 12.0308 1.16296 12.8042 1.16296H25.33C26.103 1.16296 26.7321 1.79191 26.7321 2.56505L26.7322 10.7454Z" fill="url(#paint5_linear_5637_29391)"></path>
                                <path d="M21.2497 9.42312H22.6182C22.9541 9.42312 23.2271 9.15 23.2271 8.81431L23.2269 4.91763C23.2269 4.58173 22.9539 4.30859 22.618 4.30859H21.2494C20.9135 4.30859 20.6406 4.58172 20.6406 4.91763V8.81431C20.6408 9.14999 20.9137 9.42312 21.2497 9.42312ZM21.2497 4.91019H22.6182C22.6221 4.91019 22.6252 4.91337 22.6252 4.91761L22.6182 8.82151L21.2426 8.8143L21.2497 4.91019Z" fill="url(#paint6_linear_5637_29391)"></path>
                                <defs>
                                    <linearGradient id="paint0_linear_5637_29391" x1="11.6772" y1="15.6602" x2="11.6175" y2="23.845" gradientUnits="userSpaceOnUse">
                                        <stop stop-color="#005CAA"></stop>
                                        <stop offset="1" stop-color="#64B0F1"></stop>
                                    </linearGradient>
                                    <linearGradient id="paint1_linear_5637_29391" x1="13.5978" y1="13.8379" x2="13.5502" y2="26.4466" gradientUnits="userSpaceOnUse">
                                        <stop stop-color="#005CAA"></stop>
                                        <stop offset="1" stop-color="#64B0F1"></stop>
                                    </linearGradient>
                                    <linearGradient id="paint2_linear_5637_29391" x1="22.1696" y1="2.41406" x2="22.1399" y2="12.7137" gradientUnits="userSpaceOnUse">
                                        <stop stop-color="#005CAA"></stop>
                                        <stop offset="1" stop-color="#64B0F1"></stop>
                                    </linearGradient>
                                    <linearGradient id="paint3_linear_5637_29391" x1="16.9212" y1="5.25586" x2="16.8904" y2="10.3163" gradientUnits="userSpaceOnUse">
                                        <stop stop-color="#005CAA"></stop>
                                        <stop offset="1" stop-color="#64B0F1"></stop>
                                    </linearGradient>
                                    <linearGradient id="paint4_linear_5637_29391" x1="19.7884" y1="2.41406" x2="19.7014" y2="10.9241" gradientUnits="userSpaceOnUse">
                                        <stop stop-color="#005CAA"></stop>
                                        <stop offset="1" stop-color="#64B0F1"></stop>
                                    </linearGradient>
                                    <linearGradient id="paint5_linear_5637_29391" x1="21.3601" y1="0.560547" x2="21.2188" y2="35.6299" gradientUnits="userSpaceOnUse">
                                        <stop stop-color="#005CAA"></stop>
                                        <stop offset="1" stop-color="#64B0F1"></stop>
                                    </linearGradient>
                                    <linearGradient id="paint6_linear_5637_29391" x1="22.6557" y1="4.30859" x2="22.6094" y2="10.5189" gradientUnits="userSpaceOnUse">
                                        <stop stop-color="#005CAA"></stop>
                                        <stop offset="1" stop-color="#64B0F1"></stop>
                                    </linearGradient>
                                </defs>
                            </svg>