<svg width="38" height="38" viewBox="0 0 30 30" fill="none" xmlns="http://www.w3.org/2000/svg">
                                <path fill-rule="evenodd" clip-rule="evenodd" d="M2.04557 5.51696L7.64514 11.1165C6.75789 12.1577 6.22204 13.5077 6.22204 14.9827C6.22204 15.9005 6.42943 16.7697 6.79969 17.5462L2.11521 20.2505L2.47867 19.3518C2.57643 19.108 2.4581 18.8308 2.21403 18.7331C1.96996 18.6353 1.69301 18.7537 1.59528 18.9977L0.720576 21.1611C0.593559 21.448 0.775074 21.782 1.09082 21.8255L3.41897 22.1523C3.67938 22.1883 3.91963 22.0064 3.95568 21.746C3.99173 21.4856 3.80979 21.2453 3.54938 21.2092L2.59173 21.075L7.27708 18.3701C8.26822 19.804 9.87112 20.7824 11.7092 20.9281V25.8937L11.1142 25.1316C10.9526 24.9249 10.6538 24.8882 10.4471 25.0496C10.2403 25.2111 10.2037 25.5099 10.365 25.7167L11.8118 27.5694C12.0057 27.8173 12.3799 27.8103 12.5665 27.5624L14.0081 25.7165C14.1697 25.5097 14.1328 25.2107 13.926 25.0493C13.7193 24.8878 13.4203 24.9247 13.2589 25.1314L12.6639 25.8935L12.6637 20.9276C13.9519 20.8256 15.1252 20.3142 16.0527 19.5236L25.1825 28.654L24.2242 28.5361C23.9628 28.504 23.7249 28.6902 23.6933 28.9515C23.6612 29.2129 23.8474 29.4509 24.1087 29.4824L26.4419 29.7694C26.7551 29.8077 27.0152 29.537 26.972 29.229L26.6862 26.905C26.6541 26.6435 26.4164 26.4575 26.1552 26.4896C25.8937 26.5216 25.7077 26.7593 25.7398 27.0205L25.8577 27.9788L16.7268 18.849C17.6141 17.8078 18.1499 16.4579 18.1499 14.9828C18.1499 14.067 17.9434 13.1997 17.5746 12.4244L27.9068 6.45895L27.5433 7.35765C27.4456 7.60151 27.5639 7.87867 27.808 7.9764C28.0518 8.07416 28.329 7.95583 28.4267 7.71176L29.308 5.53246C29.4236 5.24406 29.2353 4.92663 28.9314 4.88401L26.6032 4.55724C26.3428 4.52119 26.1026 4.70313 26.0665 4.96354C26.0305 5.22394 26.2124 5.4642 26.4728 5.50024L27.4305 5.63448L17.0977 11.5999C16.1066 10.1635 14.5024 9.18313 12.6624 9.03748V2.052L13.2575 2.81412C13.4191 3.02087 13.7178 3.05755 13.9246 2.89618C14.1313 2.73459 14.168 2.43581 14.0066 2.22906L12.5651 0.38313C12.3785 0.134817 12.004 0.127819 11.8102 0.376132L10.3634 2.22885C10.2018 2.4356 10.2387 2.7346 10.4454 2.89597C10.6522 3.05755 10.9512 3.02066 11.1125 2.8139L11.7076 2.05179V9.03727C10.4194 9.13927 9.24605 9.65075 8.31852 10.4413L2.71949 4.84278L3.67774 4.96068C3.9392 4.9927 4.17713 4.80652 4.20872 4.54527C4.24074 4.28381 4.05456 4.04588 3.79331 4.01429L1.46923 3.72844C1.16112 3.68497 0.890762 3.94537 0.928919 4.25858L1.21583 6.59178C1.24785 6.85324 1.48557 7.03921 1.74681 7.00719C2.00805 6.97516 2.19424 6.73745 2.16222 6.47621L2.04557 5.51696ZM12.1861 10.9057C14.4379 10.9057 16.2633 12.731 16.2633 14.9828C16.2633 17.2346 14.4379 19.0598 12.1861 19.0598C9.93437 19.0598 8.10901 17.2344 8.10901 14.9827C8.10901 12.7309 9.93437 10.9057 12.1861 10.9057ZM11.709 12.3275V12.1008C11.709 11.8374 11.9228 11.6237 12.1861 11.6237C12.4495 11.6237 12.6633 11.8374 12.6633 12.1008V12.3205C13.2661 12.4664 13.725 12.8385 13.9668 13.4145C14.0688 13.6573 13.9545 13.937 13.7115 14.039C13.4687 14.141 13.189 14.0267 13.087 13.7836C12.8991 13.3362 12.429 13.1502 11.972 13.2421C11.6473 13.3074 11.3346 13.5224 11.3524 13.889C11.3729 14.3163 11.9275 14.4406 12.267 14.4964C13.1368 14.6391 13.9931 15.0055 14.1129 15.9926C14.118 16.0337 14.1212 16.0838 14.1224 16.1421C14.143 17.006 13.4403 17.5107 12.6635 17.6549V17.8648C12.6635 18.1282 12.4498 18.3419 12.1864 18.3419C11.923 18.3419 11.7093 18.1282 11.7093 17.8648V17.6458C11.0097 17.4973 10.4408 17.0342 10.263 16.3217C10.2003 16.0664 10.3561 15.8087 10.6117 15.7458C10.867 15.683 11.1246 15.8389 11.1876 16.0944C11.3042 16.5615 11.7924 16.756 12.2347 16.7454C12.2775 16.7445 12.3305 16.7401 12.3939 16.7324C12.6995 16.6953 13.1809 16.5477 13.1718 16.165C13.1715 16.1552 13.1696 16.1355 13.166 16.1052C13.1083 15.6302 12.5038 15.5004 12.114 15.4364C11.2726 15.2983 10.4488 14.898 10.4019 13.9342C10.3618 13.112 10.9465 12.5116 11.709 12.3275ZM12.1861 9.9514C14.9649 9.9514 17.2178 12.2043 17.2178 14.983C17.2178 17.7618 14.9649 20.0147 12.1861 20.0147C9.40736 20.0147 7.1545 17.7618 7.1545 14.983C7.1545 12.2041 9.40736 9.9514 12.1861 9.9514Z" fill="#CC1212"></path>
                            </svg>