<svg width="45" height="45" viewBox="0 0 31 39"
                                                fill="none" xmlns="http://www.w3.org/2000/svg">
                                                <path
                                                    d="M7.58168 31.1641H0.980313C0.610749 31.1641 0.320312 31.4077 0.320312 31.7177V38.3406C0.320312 38.6506 0.610749 38.8943 0.980313 38.8943H7.58168C7.95124 38.8943 8.24168 38.6506 8.24168 38.3406V31.7177C8.24168 31.4077 7.95124 31.1641 7.58168 31.1641ZM6.92168 37.787H1.64031V32.2713H6.92168V37.787Z"
                                                    fill="white" />
                                                <path
                                                    d="M18.8004 38.8969C19.17 38.8969 19.4604 38.6533 19.4604 38.3432V25.0966C19.4604 24.7866 19.17 24.543 18.8004 24.543H12.1991C11.8295 24.543 11.5391 24.7866 11.5391 25.0966V38.3432C11.5391 38.6533 11.8295 38.8969 12.1991 38.8969H18.8004ZM12.8591 25.6502H18.1404V37.789H12.8591V25.6502Z"
                                                    fill="white" />
                                                <path
                                                    d="M23.4256 38.8958H30.027C30.3966 38.8958 30.687 38.6522 30.687 38.3422V19.5146C30.687 19.2046 30.3966 18.9609 30.027 18.9609H23.4256C23.0561 18.9609 22.7656 19.2046 22.7656 19.5146V38.3422C22.7656 38.6522 23.0561 38.8958 23.4256 38.8958ZM24.0856 20.0682H29.367V37.7889H24.0856V20.0682Z"
                                                    fill="white" />
                                                <path
                                                    d="M0.659746 28.8841C0.831265 28.8841 1.00324 28.8289 1.1217 28.718L13.1764 18.606L17.0317 21.8399C17.2956 22.0613 17.7049 22.0613 17.9693 21.8399L29.482 12.1826L28.9802 16.2917C28.9404 16.5905 29.2048 16.8675 29.5743 16.9009H29.6402C29.9704 16.9009 30.2609 16.6907 30.3002 16.4025L31 10.743V10.7208C31 10.6655 30.9867 10.6099 30.9735 10.5658C30.9735 10.5435 30.9735 10.5217 30.9602 10.4994C30.9337 10.433 30.8811 10.3555 30.8148 10.2999C30.7489 10.2447 30.6565 10.2002 30.5769 10.1779C30.5504 10.1668 30.5371 10.1668 30.5111 10.1668C30.4452 10.1557 30.3789 10.1445 30.313 10.1445H30.2865L23.5397 10.7315C23.1834 10.7649 22.919 11.0304 22.9456 11.3408C22.9854 11.6397 23.3019 11.8614 23.6719 11.8392L28.5704 11.4183L17.5197 20.6881L13.6645 17.4542C13.4138 17.2439 12.978 17.2439 12.7269 17.4542L0.197932 27.964C-0.0659774 28.1854 -0.0659774 28.5287 0.197932 28.7505C0.330114 28.8395 0.488811 28.8836 0.66033 28.8836L0.659746 28.8841Z"
                                                    fill="white" />
                                                <path
                                                    d="M15.4982 12.4485C19.5912 12.4485 22.9182 9.65769 22.9182 6.22423C22.9182 2.79115 19.5912 0 15.4982 0C11.4051 0 8.07812 2.79077 8.07812 6.22423C8.07812 9.65769 11.4051 12.4485 15.4982 12.4485ZM15.4982 1.10803C18.8649 1.10803 21.5977 3.40042 21.5977 6.22461C21.5977 9.0488 18.8649 11.3412 15.4982 11.3412C12.1314 11.3412 9.39858 9.0488 9.39858 6.22461C9.39858 3.40042 12.1314 1.10803 15.4982 1.10803Z"
                                                    fill="white" />
                                                <path
                                                    d="M14.0892 8.78132H15.0003V9.2797C15.0003 9.58971 15.2908 9.83334 15.6603 9.83334C16.0299 9.83334 16.3203 9.58971 16.3203 9.2797V8.75907C17.2049 8.64819 17.8915 8.01705 17.8915 7.24169C17.8915 6.3888 17.0728 5.70239 16.0564 5.70239H15.2775C14.9871 5.70239 14.7625 5.50288 14.7625 5.204C14.7625 4.96037 15.0003 4.77199 15.2775 4.77199H16.5715V4.90474C16.5715 5.21475 16.8619 5.45838 17.2315 5.45838C17.6011 5.45838 17.8915 5.21475 17.8915 4.90474V4.21798C17.8915 3.90797 17.6011 3.66434 17.2315 3.66434H16.3204L16.3208 3.1552C16.3208 2.84519 16.0304 2.60156 15.6608 2.60156C15.2913 2.60156 15.0008 2.84519 15.0008 3.1552V3.67584C14.1163 3.78672 13.4297 4.42898 13.4297 5.25966C13.4297 6.11256 14.2484 6.79896 15.2647 6.79896H16.0437C16.3341 6.79896 16.5587 6.99847 16.5587 7.23098C16.5587 7.46348 16.3208 7.66299 16.0437 7.66299H14.7497V7.57436C14.7497 7.26435 14.4593 7.02072 14.0897 7.02072C13.7201 7.02072 13.4297 7.26435 13.4297 7.57436V8.21662C13.4292 8.53776 13.7197 8.78132 14.0892 8.78132Z"
                                                    fill="white" />
                                            </svg>