<svg width="43" height="38" viewBox="0 0 30 26" fill="none" xmlns="http://www.w3.org/2000/svg">
                                <path d="M6.40329 13.9589H7.01759V15.386C7.01759 15.5845 7.17769 15.7412 7.37278 15.7412C7.56809 15.7412 7.72797 15.5811 7.72797 15.386V13.9589H8.34227C8.54075 13.9589 8.69746 13.7988 8.69746 13.6037V9.41163C8.69746 9.21315 8.53736 9.05643 8.34227 9.05643H7.72797V7.62932C7.72797 7.43084 7.56787 7.27413 7.37278 7.27413C7.17748 7.27413 7.01759 7.43423 7.01759 7.62932V9.05643H6.40329C6.20481 9.05643 6.0481 9.21653 6.0481 9.41163V13.6037C6.04492 13.7988 6.20502 13.9589 6.40329 13.9589ZM6.75849 9.76682H7.9905V13.2451H6.75849V9.76682ZM11.2642 11.322H11.8817V12.7491C11.8817 12.9476 12.0418 13.1043 12.2369 13.1043C12.4322 13.1043 12.5921 12.9442 12.5921 12.7491V11.322H13.2064C13.4049 11.322 13.5616 11.1619 13.5616 10.9668V6.7747C13.5616 6.57622 13.4015 6.41951 13.2064 6.41951H12.5921V4.99239C12.5921 4.79391 12.432 4.6372 12.2369 4.6372C12.0416 4.6372 11.8817 4.7973 11.8817 4.99239V6.41951H11.2642C11.0657 6.41951 10.909 6.57961 10.909 6.7747V10.9668C10.909 11.1621 11.0657 11.322 11.2642 11.322ZM11.6194 7.13011H12.848L12.8483 10.6084H11.6162V7.13011H11.6194ZM15.5426 11.322H16.1569V12.7491C16.1569 12.9476 16.317 13.1043 16.5121 13.1043C16.7074 13.1043 16.8673 12.9442 16.8673 12.7491V11.322H17.4816C17.6801 11.322 17.8368 11.1619 17.8368 10.9668V6.7747C17.8368 6.57622 17.6767 6.41951 17.4816 6.41951H16.8673V4.99239C16.8673 4.79391 16.7072 4.6372 16.5121 4.6372C16.3168 4.6372 16.1569 4.7973 16.1569 4.99239V6.41951H15.5426C15.3441 6.41951 15.1874 6.57961 15.1874 6.7747V10.9668C15.1842 11.1621 15.3441 11.322 15.5426 11.322ZM15.8978 7.13011H17.1265L17.1267 10.6084H15.8947V7.13011H15.8978ZM19.725 8.36847H20.3393V9.79559C20.3393 9.99407 20.4994 10.1508 20.6944 10.1508C20.8897 10.1508 21.0496 9.99068 21.0496 9.79559L21.0498 8.36847H21.6641C21.8626 8.36847 22.0193 8.20837 22.0193 8.01328V3.82117C22.0193 3.62269 21.8592 3.46598 21.6641 3.46598H21.0498V2.03887C21.0498 1.84039 20.8897 1.68367 20.6947 1.68367C20.4994 1.68367 20.3395 1.84377 20.3395 2.03887V3.46598H19.7252C19.5267 3.46598 19.37 3.62608 19.37 3.82117V8.01328C19.3666 8.20837 19.5265 8.36847 19.725 8.36847ZM20.0801 4.17637H21.3122V7.65467H20.0801V4.17637ZM29.3695 18.7239C29.3695 16.9958 28.6367 15.4407 27.4686 14.3398V1.29987C27.4686 0.733457 27.0079 0.269531 26.4383 0.269531H1.63191C1.06549 0.269531 0.601562 0.730325 0.601562 1.29987V18.9416C0.601562 19.5081 1.06236 19.9688 1.63191 19.9688H10.4322L9.09136 22.3305H6.55052C5.7441 22.3305 5.08817 22.9866 5.08817 23.7928V24.9C5.08817 25.0985 5.24827 25.2552 5.44336 25.2552H19.9778C20.7043 25.5688 21.5074 25.7416 22.3458 25.7416C24.2115 25.7416 25.9395 24.9 27.0914 23.4313C28.4803 22.3273 29.3699 20.6313 29.3699 18.7241L29.3695 18.7239ZM28.6559 18.7239C28.6559 20.5511 27.7312 22.1638 26.3263 23.1206C26.32 23.1237 26.3136 23.1301 26.307 23.1365C25.891 23.4181 25.4333 23.6388 24.9437 23.7958C24.9213 23.8021 24.899 23.8085 24.8733 23.8151C24.7421 23.8566 24.6045 23.8886 24.4702 23.9207C24.4318 23.9302 24.3935 23.9366 24.3551 23.9431C24.227 23.9688 24.0991 23.9879 23.9711 24.0008C23.9295 24.0072 23.8879 24.0135 23.8461 24.0167C23.6797 24.0326 23.51 24.0424 23.3406 24.0424C20.4062 24.0424 18.0223 21.6551 18.0223 18.7241C18.0223 18.5544 18.0318 18.3848 18.048 18.2185C18.0511 18.177 18.0575 18.1354 18.0639 18.0936C18.0798 17.9655 18.0991 17.8377 18.1215 17.7096C18.1279 17.6712 18.1374 17.6328 18.1472 17.5945C18.176 17.46 18.2112 17.3256 18.2496 17.1913C18.256 17.1657 18.2623 17.1434 18.2721 17.1178C18.4256 16.6313 18.6498 16.1737 18.9282 15.7578C18.9346 15.7515 18.9377 15.7419 18.9441 15.7354C19.9041 14.3305 21.5138 13.4058 23.3408 13.4058C26.2718 13.4053 28.6559 15.7926 28.6559 18.7239ZM1.63196 0.98328H26.4416C26.6176 0.98328 26.7584 1.12409 26.7584 1.30009V13.7576C25.7855 13.0856 24.608 12.6888 23.3408 12.6888C21.4335 12.6888 19.7375 13.5784 18.6304 14.9639C18.0545 15.4152 17.5775 15.9559 17.2065 16.5575H1.31541V1.29992C1.31541 1.1271 1.45622 0.983117 1.63222 0.983117L1.63196 0.98328ZM1.63196 19.2618C1.45595 19.2618 1.31515 19.121 1.31515 18.945V17.2746H16.8322C16.5569 17.8956 16.3873 18.5675 16.3362 19.2618L1.63196 19.2618ZM11.2514 19.9722H16.3299C16.3651 20.817 16.5731 21.6137 16.9219 22.3339H9.91037L11.2514 19.9722ZM5.80165 24.5481V23.7993C5.80165 23.3865 6.13775 23.0474 6.55041 23.0474H17.3245C17.7117 23.6265 18.1982 24.1322 18.7548 24.5481H5.80165ZM24.2371 24.6889C23.645 24.9128 23.0051 25.0314 22.3492 25.0314C19.4148 25.0314 17.0309 22.6441 17.0309 19.7131C17.0309 19.057 17.1492 18.4202 17.3733 17.8252C17.3638 17.8924 17.3574 17.9628 17.3509 18.0332C17.3445 18.0748 17.3413 18.1195 17.3381 18.1613C17.3222 18.3468 17.3093 18.5326 17.3093 18.7245C17.3093 22.0493 20.0166 24.7567 23.3415 24.7567C23.5302 24.7567 23.716 24.744 23.9015 24.7279C23.9463 24.7247 23.9912 24.7183 24.0328 24.712C24.0996 24.7052 24.17 24.702 24.2372 24.6891L24.2371 24.6889ZM24.4258 17.2811C24.4258 17.4796 24.5859 17.6363 24.781 17.6363C24.9763 17.6363 25.1362 17.4762 25.1362 17.2811C25.1362 16.4106 24.5153 15.6843 23.6929 15.5179V15.1339C23.6929 14.9354 23.5328 14.7787 23.3378 14.7787C23.1425 14.7787 22.9826 14.9388 22.9826 15.1339V15.5179C22.1602 15.6844 21.5393 16.4106 21.5393 17.2811C21.5393 18.1516 22.1602 18.8778 22.9826 19.0443V21.1884C22.5602 21.0412 22.2529 20.6413 22.2529 20.1675C22.2529 19.969 22.0928 19.8123 21.8977 19.8123C21.7024 19.8123 21.5425 19.9724 21.5425 20.1675C21.5425 21.038 22.1634 21.7643 22.9858 21.9307V22.3147C22.9858 22.5132 23.1459 22.6699 23.341 22.6699C23.5363 22.6699 23.6961 22.5098 23.6961 22.3147V21.9307C24.5185 21.7643 25.1394 21.038 25.1394 20.1675C25.1394 19.297 24.5185 18.5676 23.6961 18.4043V16.2602C24.1186 16.4074 24.4258 16.8073 24.4258 17.2811ZM22.2531 17.2811C22.2531 16.8076 22.5604 16.4074 22.9828 16.2602V18.3051C22.557 18.1547 22.2531 17.7546 22.2531 17.2811ZM24.4258 20.1676C24.4258 20.6411 24.1185 21.0412 23.6961 21.1884V19.1436C24.1186 19.2939 24.4258 19.6939 24.4258 20.1676Z" fill="#CC1212"></path>
                            </svg>