<svg width="38" height="38" viewBox="0 0 28 30" fill="none" xmlns="http://www.w3.org/2000/svg">
                                <path d="M0.375 26.5971C0.375 28.183 1.66515 29.4738 3.25171 29.4738H13.5817C13.6962 29.4738 13.7895 29.3805 13.7895 29.266C13.7895 29.1515 13.6962 29.0582 13.5817 29.0582H3.25171C1.89435 29.0582 0.790612 27.9544 0.790612 26.5971V24.5196C0.790612 18.8185 2.85857 13.3215 6.61221 9.03402C9.12971 8.40696 11.7831 8.40696 14.3007 9.03402C16.1324 11.1257 17.5663 13.502 18.5626 16.0982C18.5939 16.1807 18.673 16.2318 18.7568 16.2318C18.7818 16.2318 18.8066 16.2271 18.831 16.2182C18.9379 16.1773 18.992 16.0567 18.9504 15.9498C17.9701 13.395 16.5724 11.0496 14.7959 8.97244C14.9021 8.88634 14.9634 8.75996 14.9634 8.62276V7.95418C14.9634 7.77669 14.8595 7.61871 14.7028 7.54619L16.8106 5.24903C17.1586 4.86967 17.2654 4.35245 17.0962 3.86621C16.9264 3.37998 16.522 3.04091 16.0133 2.96013L15.0841 2.81233L15.2342 2.48449C15.3559 2.21858 15.3529 1.91574 15.2259 1.65196C15.0989 1.38901 14.8631 1.19774 14.58 1.12713L14.0588 0.998201C11.6915 0.412729 9.19002 0.414629 6.82414 1.00414L6.33366 1.12649C6.05035 1.19711 5.8154 1.38838 5.6888 1.65133C5.56242 1.91428 5.55945 2.21774 5.68117 2.4832L5.83193 2.81273L4.90142 2.96054C4.39249 3.04133 3.98768 3.3804 3.81848 3.86662C3.64862 4.35286 3.75549 4.87004 4.10411 5.24944L6.21192 7.54659C6.05521 7.61911 5.9513 7.77688 5.9513 7.95458V8.62317C5.9513 8.76036 6.01237 8.88739 6.11882 8.97348C2.41257 13.3042 0.375393 18.8106 0.375393 24.5193L0.375 26.5971ZM14.5485 8.62309C14.5485 8.63729 14.5412 8.64556 14.5349 8.65044C14.5283 8.65511 14.5188 8.65998 14.5052 8.65638C14.2113 8.58089 13.9157 8.51451 13.6188 8.4562C13.5667 8.129 13.3985 7.83935 13.1544 7.63258C13.6139 7.70913 14.0705 7.80477 14.5224 7.92055C14.5378 7.92479 14.5485 7.93836 14.5485 7.95447L14.5485 8.62309ZM4.40897 4.96727C4.16617 4.70241 4.09131 4.34152 4.21006 4.0018C4.32818 3.66209 4.61084 3.42588 4.96583 3.36948L6.01018 3.20323L7.20359 5.80851C7.25173 5.91305 7.37451 5.95864 7.47905 5.91114C7.58359 5.863 7.62918 5.74023 7.58168 5.63568L6.0581 2.30835C5.98812 2.15567 5.98982 1.98115 6.06277 1.82974C6.13571 1.67834 6.27058 1.56849 6.43386 1.52757L6.92434 1.40521C9.22513 0.832227 11.6572 0.829893 13.9587 1.39928L14.4799 1.5282C14.6432 1.56849 14.7785 1.67834 14.8516 1.82975C14.9246 1.98115 14.9265 2.15567 14.8563 2.30835L12.9279 6.51929C12.8804 6.62384 12.9262 6.74661 13.0306 6.79475C13.0585 6.8079 13.0882 6.81383 13.1173 6.81383C13.1962 6.81383 13.2717 6.76867 13.306 6.69275L14.9045 3.20212L15.9482 3.36837C16.3032 3.42478 16.5858 3.66101 16.704 4.00069C16.8221 4.3404 16.7479 4.70071 16.5051 4.96617L14.2494 7.42493C11.7599 6.84901 9.15445 6.84901 6.66518 7.42493L4.40897 4.96727Z" fill="#CC1212"></path>
                                <path d="M27.5901 24.1614V22.551C27.5901 22.2304 27.3289 21.9691 27.0082 21.9691H25.5482C25.5643 21.9163 25.5726 21.8606 25.5726 21.8029V20.1932C25.5726 19.8726 25.3114 19.6113 24.9907 19.6113H17.4005C17.0799 19.6113 16.8186 19.8726 16.8186 20.1932V20.7318C16.7141 20.7242 16.6085 20.7193 16.5022 20.7193C14.0886 20.7193 12.125 22.6829 12.125 25.0965C12.125 27.5101 14.0886 29.4738 16.5022 29.4738H24.9914C25.312 29.4738 25.5733 29.2125 25.5733 28.8919V27.2815C25.5733 27.1354 25.5186 27.0025 25.4302 26.9003C25.5192 26.7981 25.5733 26.6651 25.5733 26.519V24.9087C25.5733 24.851 25.5644 24.7952 25.5489 24.7424H27.0089C27.3289 24.7431 27.5902 24.4818 27.5902 24.1612L27.5901 24.1614ZM17.234 20.1934C17.234 20.102 17.3089 20.0272 17.4003 20.0272H24.9916C25.083 20.0272 25.1579 20.102 25.1579 20.1934V21.8037C25.1579 21.8951 25.083 21.97 24.9916 21.97H19.5609C18.9368 21.3597 18.1316 20.9339 17.2346 20.7825V20.1934L17.234 20.1934ZM12.5398 25.0965C12.5398 22.9121 14.3168 21.1349 16.5014 21.1349C18.6857 21.1349 20.463 22.9119 20.463 25.0965C20.463 27.2808 18.686 29.0581 16.5014 29.0581C14.3171 29.0581 12.5398 27.2811 12.5398 25.0965ZM25.1569 28.8918C25.1569 28.9832 25.082 29.0581 24.9906 29.0581H18.3607C19.2282 28.649 19.9407 27.9639 20.3831 27.1159H24.9906C25.082 27.1159 25.1568 27.1907 25.1568 27.2821L25.1569 28.8918ZM25.1569 26.5192C25.1569 26.6106 25.082 26.6854 24.9906 26.6854H20.5784C20.7714 26.1926 20.8783 25.657 20.8783 25.0965C20.8783 24.9777 20.8724 24.8596 20.8628 24.7432H24.9911C25.0825 24.7438 25.1567 24.818 25.1567 24.9094L25.1569 26.5192ZM27.1744 24.1613C27.1744 24.2527 27.0995 24.3276 27.0081 24.3276H24.9917H24.9904H20.8091C20.6802 23.6032 20.3727 22.9399 19.9333 22.3854H27.0079C27.0993 22.3854 27.1741 22.4602 27.1741 22.5516L27.1744 24.1613Z" fill="#CC1212"></path>
                                <path d="M16.7371 24.7084H16.2615C15.869 24.7084 15.5312 24.4073 15.5117 24.0154C15.4909 23.5968 15.8258 23.2488 16.2403 23.2488H16.843C17.1868 23.2488 17.4701 23.5154 17.4961 23.8528C17.4985 23.8824 17.5235 23.9045 17.5532 23.9045H18.2152C18.2472 23.9045 18.2746 23.8778 18.2729 23.8451C18.2425 23.0993 17.6388 22.4997 16.8924 22.4742V21.8194C16.8924 21.7874 16.8669 21.7617 16.8347 21.7617H16.1739C16.1419 21.7617 16.1163 21.7872 16.1163 21.8194V22.4785C15.3368 22.5421 14.7233 23.2016 14.7345 23.9997C14.7458 24.828 15.4434 25.4841 16.2717 25.4841H16.7473C17.1398 25.4841 17.4776 25.7852 17.4971 26.1771C17.5179 26.5957 17.1831 26.943 16.7685 26.943H16.1658C15.8221 26.943 15.5388 26.6765 15.5127 26.3391C15.5104 26.3094 15.4853 26.2874 15.4557 26.2874H14.7936C14.761 26.2874 14.7343 26.3141 14.736 26.3468C14.7663 27.0925 15.37 27.6922 16.1164 27.7183V28.3731C16.1164 28.4052 16.1419 28.4308 16.1741 28.4308H16.8349C16.8669 28.4308 16.8926 28.4054 16.8926 28.3731V27.714C17.6721 27.6504 18.2855 26.991 18.2743 26.1928C18.2631 25.3645 17.5654 24.7084 16.7371 24.7084Z" fill="#CC1212"></path>
                                <path d="M16.1785 14.7577C16.0657 14.6449 15.8829 14.6449 15.7701 14.7577L10.5534 19.9744C10.4405 20.0873 10.4405 20.27 10.5534 20.3829L10.9845 20.814C11.0973 20.9268 11.2801 20.9268 11.3929 20.814L15.9743 16.2325L18.5862 18.8444C18.699 18.9572 18.8818 18.9572 18.9946 18.8444L21.8274 16.0115L22.6158 16.7999C22.7091 16.8932 22.8688 16.8457 22.8955 16.7168L23.5391 13.6573C23.5641 13.5398 23.4596 13.4359 23.3425 13.4607L20.283 14.1043C20.1541 14.1316 20.1066 14.2907 20.1999 14.384L20.9883 15.1724L18.7908 17.3699L16.1785 14.7577Z" fill="#CC1212"></path>
                            </svg>