<svg width="38" height="38" viewBox="0 0 30 30" fill="none" xmlns="http://www.w3.org/2000/svg">
                                <path d="M28.0382 0.601562H7.89119C7.22239 0.601562 6.67844 1.14551 6.67844 1.81431V6.78058H4.1249C3.5937 6.78058 3.16176 7.21253 3.16176 7.74372V16.9918C2.98894 17.1551 2.82566 17.3279 2.67531 17.5135C1.43695 18.4895 0.726562 19.9487 0.726562 21.523C0.726562 24.3325 3.0146 26.6205 5.8241 26.6205C7.39518 26.6205 8.8514 25.9133 9.82724 24.6781C9.85926 24.6525 9.8881 24.6302 9.92012 24.6045H11.997L10.829 26.6621L8.55684 26.6623C7.81128 26.6623 7.20648 27.2702 7.20648 28.0158V29.0142C7.20648 29.2095 7.36658 29.3694 7.56167 29.3694H23.0402C23.2386 29.3694 23.3954 29.2093 23.3954 29.0142V28.0158C23.3954 27.2703 22.7906 26.6623 22.045 26.6623H19.7762L18.6082 24.6047H26.4802C27.0114 24.6047 27.4433 24.1728 27.4433 23.6416L27.4431 18.9633H28.0384C28.7072 18.9633 29.2511 18.4193 29.2511 17.7505V1.8144C29.2545 1.1456 28.7072 0.601661 28.0384 0.601661L28.0382 0.601562ZM7.89119 1.31515H28.0382C28.3103 1.31515 28.5406 1.54565 28.5406 1.8175V3.75355H7.38871V1.8143C7.38871 1.53927 7.61264 1.31513 7.89107 1.31513L7.89119 1.31515ZM11.0368 20.6979C11.0368 22.1922 10.2848 23.5139 9.13911 24.3074C9.1232 24.317 9.10709 24.3299 9.09118 24.3426C8.86068 24.4962 8.61766 24.6306 8.36153 24.7394C8.35517 24.7426 8.34881 24.7426 8.34562 24.7457C8.2273 24.7937 8.10558 24.8386 7.98407 24.877C7.95841 24.8865 7.93297 24.8929 7.9073 24.8995C7.80488 24.9315 7.69928 24.9572 7.59368 24.9794C7.55848 24.9858 7.52328 24.9953 7.48808 25.0019C7.38566 25.0212 7.28324 25.0371 7.18081 25.0498C7.14561 25.053 7.10723 25.0594 7.07203 25.0626C6.9344 25.0753 6.79678 25.085 6.65598 25.085C4.2369 25.085 2.26882 23.117 2.26882 20.6979C2.26882 20.5571 2.27836 20.4163 2.2913 20.2786C2.29448 20.2466 2.30084 20.2146 2.30402 20.1826C2.31675 20.0706 2.33286 19.9618 2.35513 19.8531C2.36149 19.8274 2.36467 19.7986 2.37103 19.7731C2.39669 19.6516 2.42871 19.5331 2.46391 19.4147C2.46709 19.4052 2.47027 19.3954 2.47345 19.3859C3.03346 17.6068 4.69748 16.3139 6.65899 16.3139C9.069 16.3139 11.0369 18.2785 11.0369 20.6979L11.0368 20.6979ZM3.87214 7.74421C3.87214 7.60976 3.98729 7.49462 4.12173 7.49462H6.67528V15.6H6.64962C5.62563 15.6 4.67199 15.9073 3.86872 16.4287V7.74411L3.87214 7.74421ZM6.83837 25.792C6.50884 25.8688 6.16957 25.9104 5.82073 25.9104C3.40165 25.9104 1.43357 23.9423 1.43357 21.5232C1.43357 21.1712 1.47514 20.8255 1.55508 20.496C1.5519 20.5632 1.5519 20.6305 1.5519 20.6977C1.5519 23.5072 3.83994 25.7952 6.64944 25.7952C6.71369 25.7952 6.77772 25.7952 6.83837 25.792ZM22.0481 27.3761C22.4002 27.3761 22.6881 27.6641 22.6881 28.0161V28.656H7.92023V28.0161C7.92023 27.6641 8.2082 27.3761 8.5602 27.3761H22.0481ZM18.9568 26.6623H11.6446L12.8126 24.6048H17.7854L18.9568 26.6623ZM26.4803 23.8944H10.618C11.2133 23.1584 11.6068 22.2561 11.7156 21.2673H26.7332V23.6448C26.7332 23.7793 26.6181 23.8944 26.4804 23.8944L26.4803 23.8944ZM26.7331 20.5537H11.7442C11.7283 19.9969 11.6227 19.4625 11.4401 18.9633H26.733L26.7331 20.5537ZM28.0387 18.2496H11.1238C10.3687 16.8767 8.99901 15.8943 7.38933 15.6577V4.46394H28.5412V17.7504C28.5412 18.0192 28.3109 18.2495 28.0389 18.2495L28.0387 18.2496ZM8.27869 2.43181C8.27869 2.2365 8.43879 2.07661 8.63388 2.07661H9.4467C9.64518 2.07661 9.80189 2.23671 9.80189 2.43181C9.80189 2.62711 9.64179 2.787 9.4467 2.787H8.63388C8.43879 2.79018 8.27869 2.63008 8.27869 2.43181ZM11.0532 2.43181C11.0532 2.2365 11.2133 2.07661 11.4084 2.07661H12.2212C12.4197 2.07661 12.5764 2.23671 12.5764 2.43181C12.5764 2.62711 12.4163 2.787 12.2212 2.787H11.4084C11.2131 2.79018 11.0532 2.63008 11.0532 2.43181ZM13.8339 2.43181C13.8339 2.2365 13.994 2.07661 14.189 2.07661H14.9987C15.1971 2.07661 15.3539 2.23671 15.3539 2.43181C15.3539 2.62711 15.1938 2.787 14.9987 2.787H14.189C13.994 2.79018 13.8339 2.63008 13.8339 2.43181ZM10.666 7.99989V10.6079C10.666 10.8032 10.5059 10.9631 10.3108 10.9631C10.1155 10.9631 9.95563 10.803 9.95563 10.6079V7.99989C9.95563 7.80459 10.1157 7.6447 10.3108 7.6447C10.5059 7.6447 10.666 7.8048 10.666 7.99989ZM11.9396 7.99989V10.6079C11.9396 10.8032 11.7795 10.9631 11.5844 10.9631C11.3891 10.9631 11.2292 10.803 11.2292 10.6079V7.99989C11.2292 7.80459 11.3893 7.6447 11.5844 7.6447C11.7795 7.6447 11.9396 7.8048 11.9396 7.99989ZM13.2164 10.2816V12.8896C13.2164 13.0849 13.0563 13.2448 12.8612 13.2448C12.6659 13.2448 12.506 13.0847 12.506 12.8896V10.2816C12.506 10.0863 12.6661 9.92638 12.8612 9.92638C13.0563 9.92638 13.2164 10.0863 13.2164 10.2816ZM14.4932 11.5679V14.1759C14.4932 14.3712 14.3331 14.5311 14.138 14.5311C13.9427 14.5311 13.7828 14.371 13.7828 14.1759V11.5679C13.7828 11.3726 13.9429 11.2127 14.138 11.2127C14.3331 11.2127 14.4932 11.3696 14.4932 11.5679ZM15.7668 10.0288V12.6368C15.7668 12.8321 15.6067 12.992 15.4116 12.992C15.2163 12.992 15.0564 12.8319 15.0564 12.6368V10.0288C15.0564 9.83346 15.2165 9.67357 15.4116 9.67357C15.6067 9.67357 15.7668 9.83346 15.7668 10.0288ZM17.0436 7.55833V10.1664C17.0436 10.3617 16.8835 10.5216 16.6884 10.5216C16.4931 10.5216 16.3332 10.3615 16.3332 10.1664V7.55833C16.3332 7.36303 16.4933 7.20314 16.6884 7.20314C16.8837 7.20314 17.0436 7.36303 17.0436 7.55833ZM18.3204 6.69763V9.30568C18.3204 9.50098 18.1603 9.66087 17.9652 9.66087C17.7699 9.66087 17.61 9.50077 17.61 9.30568V6.69763C17.61 6.50233 17.7701 6.34244 17.9652 6.34244C18.1605 6.34223 18.3204 6.49915 18.3204 6.69763ZM19.5972 5.78878V8.39683C19.5972 8.59213 19.4371 8.75202 19.242 8.75202C19.0467 8.75202 18.8868 8.59192 18.8868 8.39683V5.78878C18.8868 5.59348 19.0469 5.43359 19.242 5.43359C19.4373 5.43359 19.5972 5.59348 19.5972 5.78878ZM20.8708 9.30546V11.9135C20.8708 12.1088 20.7107 12.2687 20.5156 12.2687C20.3203 12.2687 20.1604 12.1086 20.1604 11.9135V9.30546C20.1604 9.11016 20.3205 8.95027 20.5156 8.95027C20.7109 8.95027 20.8708 9.10719 20.8708 9.30546ZM22.1478 9.21916V11.8272C22.1478 12.0225 21.9877 12.1824 21.7926 12.1824C21.5973 12.1824 21.4374 12.0223 21.4374 11.8272V9.21916C21.4374 9.02386 21.5975 8.86397 21.7926 8.86397C21.9877 8.86397 22.1478 9.02067 22.1478 9.21916ZM23.4246 11.0976V13.7056C23.4246 13.9009 23.2645 14.0608 23.0694 14.0608C22.8741 14.0608 22.7142 13.9007 22.7142 13.7056V11.0976C22.7142 10.9022 22.8743 10.7424 23.0694 10.7424C23.2645 10.7424 23.4246 10.8991 23.4246 11.0976ZM24.6982 9.29912V11.9072C24.6982 12.1025 24.5381 12.2624 24.343 12.2624C24.1477 12.2624 23.9878 12.1023 23.9878 11.9072V9.29912C23.9878 9.10382 24.1479 8.94393 24.343 8.94393C24.5381 8.94393 24.6982 9.10403 24.6982 9.29912ZM25.975 7.99985V10.6079C25.975 10.8032 25.8149 10.9631 25.6198 10.9631C25.4245 10.9631 25.2646 10.803 25.2646 10.6079V7.99985C25.2646 7.80454 25.4247 7.64466 25.6198 7.64466C25.8149 7.64466 25.975 7.80476 25.975 7.99985ZM7.50153 19.491C7.50153 19.6864 7.66163 19.8462 7.85672 19.8462C8.05203 19.8462 8.21192 19.6861 8.21192 19.491C8.21192 18.7518 7.69663 18.1375 7.00553 17.9743V17.699C7.00553 17.5037 6.84543 17.3438 6.65033 17.3438C6.45503 17.3438 6.29514 17.5039 6.29514 17.699V17.9743C5.60723 18.1375 5.08875 18.7518 5.08875 19.491C5.08875 20.2303 5.60404 20.8446 6.29514 21.0078V22.6718C6.00399 22.5374 5.80233 22.243 5.80233 21.9038C5.80233 21.7085 5.64223 21.5486 5.44714 21.5486C5.25184 21.5486 5.09195 21.7087 5.09195 21.9038C5.09195 22.643 5.60724 23.2605 6.29834 23.4206V23.6958C6.29834 23.8911 6.45844 24.051 6.65353 24.051C6.84884 24.051 7.00872 23.8909 7.00872 23.6958V23.4206C7.69663 23.2573 8.21511 22.643 8.21511 21.9038C8.21511 21.1646 7.69982 20.5471 7.00872 20.387V18.723C7.29987 18.8577 7.50153 19.152 7.50153 19.491ZM5.80234 19.491C5.80234 19.1486 6.004 18.8574 6.29515 18.723V20.2589C6.00718 20.1247 5.80234 19.8335 5.80234 19.491ZM7.00873 22.6719V21.2638H7.20721C7.38639 21.4205 7.50154 21.6478 7.50154 21.9006C7.50154 22.243 7.29988 22.5376 7.00873 22.6718V22.6719Z" fill="url(#paint0_linear_5637_27956)"></path>
                                <defs>
                                    <linearGradient id="paint0_linear_5637_27956" x1="22.9503" y1="0.601562" x2="22.8174" y2="35.5342" gradientUnits="userSpaceOnUse">
                                        <stop stop-color="#005CAA"></stop>
                                        <stop offset="1" stop-color="#64B0F1"></stop>
                                    </linearGradient>
                                </defs>
                            </svg>