<svg width="38" height="38" viewBox="0 0 20 16" fill="none" xmlns="http://www.w3.org/2000/svg">
                                <path d="M14.8717 6.15746V1.29357C14.8717 0.959158 14.6011 0.685623 14.2637 0.685623H9.39962C9.23845 0.685623 9.08345 0.749452 8.97106 0.865021L0.459057 9.37702C0.221981 9.6141 0.221981 10.0002 0.459057 10.2373L5.32317 15.1015C5.44149 15.2168 5.59651 15.2775 5.75172 15.2775C5.90674 15.2775 6.06175 15.2166 6.18028 15.0981L14.6923 6.58606C14.8079 6.47367 14.8717 6.31862 14.8717 6.15746ZM13.6556 5.90533L5.75156 13.8093L1.74799 9.80554L9.65199 1.90154H13.6556V5.90533ZM19.5564 12.6661L17.1244 15.0981C17.0058 15.2167 16.8508 15.2773 16.6958 15.2773C16.5408 15.2773 16.3858 15.2165 16.2672 15.0979L13.8352 12.6659C13.5981 12.4288 13.5981 12.0427 13.8352 11.8055C14.0723 11.5685 14.4584 11.5685 14.6955 11.8055L16.0878 13.2011V1.29349C16.0878 0.959082 16.3584 0.685547 16.6958 0.685547C17.0332 0.685547 17.3037 0.959098 17.3037 1.29349V13.2011L18.699 11.8058C18.9361 11.5687 19.3222 11.5687 19.5594 11.8058C19.7966 12.0428 19.7967 12.429 19.5564 12.6661Z" fill="url(#paint0_linear_5637_28741)"></path>
                                <defs>
                                    <linearGradient id="paint0_linear_5637_28741" x1="15.4394" y1="0.685547" x2="15.3892" y2="18.4045" gradientUnits="userSpaceOnUse">
                                        <stop stop-color="#005CAA"></stop>
                                        <stop offset="1" stop-color="#64B0F1"></stop>
                                    </linearGradient>
                                </defs>
                            </svg>