<svg width="38" height="38" viewBox="0 0 30 30" fill="none" xmlns="http://www.w3.org/2000/svg">
                                <path d="M6.30124 15.7329C6.10169 13.3013 6.93464 10.8782 8.58656 9.08512C10.2001 7.33353 12.3806 6.34114 14.7502 6.27306L14.1448 5.63819C13.9931 5.47915 13.9991 5.22723 14.1583 5.07541C14.3174 4.92379 14.5693 4.92973 14.7211 5.08877L15.9909 6.42089C16.1374 6.57441 16.1374 6.81637 15.9909 6.96988L14.7211 8.302C14.5695 8.46104 14.3176 8.46698 14.1583 8.31536C13.9993 8.16374 13.9934 7.91182 14.1448 7.75258L14.7977 7.06765C12.6345 7.12342 10.6435 8.02612 9.17148 9.62418C7.66994 11.2544 6.91249 13.457 7.09419 15.6678C7.11221 15.8869 6.94914 16.0792 6.73009 16.0968C6.71907 16.0976 6.70783 16.0981 6.69723 16.0981C6.49238 16.0987 6.31828 15.9411 6.30111 15.7331L6.30124 15.7329ZM23.2927 13.9216C23.0736 13.9396 22.9105 14.132 22.9286 14.3506C23.1101 16.5613 22.3529 18.7641 20.8513 20.3937C19.3794 21.9915 17.3884 22.894 15.2251 22.9502L15.878 22.2653C16.0296 22.1062 16.0237 21.8543 15.8644 21.7025C15.7054 21.5509 15.4535 21.5568 15.3016 21.7159L14.0318 23.048C13.8853 23.2015 13.8853 23.4435 14.0318 23.597L15.3016 24.9291C15.3799 25.0111 15.4846 25.0525 15.5898 25.0525C15.6886 25.0525 15.7875 25.016 15.8644 24.9426C16.0235 24.791 16.0294 24.5391 15.878 24.3799L15.2726 23.745C17.6423 23.6769 19.8228 22.6845 21.4362 20.9329C23.0883 19.1396 23.921 16.7169 23.7215 14.2851C23.7039 14.0665 23.512 13.9041 23.2926 13.9214L23.2927 13.9216ZM13.1353 22.9689C13.1353 26.3233 10.4062 29.0521 7.05201 29.0521C3.69753 29.0521 0.96875 26.323 0.96875 22.9689C0.96875 19.6147 3.69786 16.8856 7.05201 16.8856C10.4065 16.8856 13.1353 19.6143 13.1353 22.9689ZM12.3394 22.9689C12.3394 20.0533 9.96764 17.6815 7.05212 17.6815C4.13659 17.6815 1.7648 20.0533 1.7648 22.9689C1.7648 25.8844 4.13659 28.2562 7.05212 28.2562C9.96764 28.256 12.3394 25.8842 12.3394 22.9689ZM11.7355 22.9689C11.7355 25.5512 9.63449 27.6522 7.05228 27.6522C4.47034 27.6522 2.36889 25.5512 2.36889 22.9689C2.36889 20.3865 4.46991 18.2856 7.05212 18.2856C9.63432 18.2856 11.7355 20.3864 11.7355 22.9689ZM10.9395 22.9689C10.9395 20.8254 9.19553 19.0815 7.05212 19.0815C4.9087 19.0815 3.16477 20.8254 3.16477 22.9689C3.16477 25.1123 4.9087 26.8562 7.05212 26.8562C9.19553 26.8562 10.9395 25.1123 10.9395 22.9689ZM7.05212 21.4868C7.44802 21.4868 7.81999 21.641 8.09988 21.9209C8.25532 22.0763 8.50745 22.0763 8.66266 21.9209C8.8181 21.7654 8.8181 21.5133 8.66266 21.3581C8.46185 21.1573 8.23007 20.9987 7.97839 20.8865V20.2376C7.97839 20.0179 7.80005 19.8396 7.58037 19.8396C7.36069 19.8396 7.18235 20.0179 7.18235 20.2376V20.6946C7.09561 20.6899 7.00761 20.6895 6.92131 20.6946V20.2376C6.92131 20.0179 6.74297 19.8396 6.52329 19.8396C6.3036 19.8396 6.12526 20.0179 6.12526 20.2376V20.8878C5.32987 21.2434 4.77366 22.0424 4.77366 22.9687C4.77366 23.8949 5.32943 24.6939 6.12526 25.0495V25.6997C6.12526 25.9194 6.3036 26.0977 6.52329 26.0977C6.74297 26.0977 6.92131 25.9194 6.92131 25.6997V25.2428C7.0074 25.2478 7.0954 25.2474 7.18235 25.2428V25.6997C7.18235 25.9194 7.36069 26.0977 7.58037 26.0977C7.80005 26.0977 7.97839 25.9194 7.97839 25.6997V25.0511C8.2301 24.9389 8.46187 24.7803 8.66266 24.5795C8.8181 24.424 8.8181 24.1719 8.66266 24.0167C8.50723 23.8612 8.2551 23.8612 8.09988 24.0167C7.81998 24.2966 7.4478 24.4508 7.05212 24.4508C6.23506 24.4508 5.57006 23.786 5.57006 22.9687C5.57049 22.1516 6.23506 21.4869 7.05212 21.4869V21.4868ZM29.0541 7.05005C29.0541 10.4041 26.325 13.1333 22.9709 13.1333C19.6167 13.1333 16.8876 10.4042 16.8876 7.05005C16.8876 3.6959 19.6167 0.966797 22.9709 0.966797C26.325 0.966797 29.0541 3.6959 29.0541 7.05005ZM28.2581 7.05005C28.2581 4.13453 25.8863 1.76273 22.9708 1.76273C20.0552 1.76273 17.6834 4.13453 17.6834 7.05005C17.6834 9.96558 20.0552 12.3374 22.9708 12.3374C25.8863 12.3374 28.2581 9.96558 28.2581 7.05005ZM27.6541 7.05005C27.6541 9.63243 25.5533 11.7333 22.9709 11.7333C20.3885 11.7333 18.2877 9.63248 18.2877 7.05005C18.2877 4.46768 20.3885 2.36683 22.9709 2.36683C25.5531 2.36683 27.6541 4.46785 27.6541 7.05005ZM26.8581 7.05005C26.8581 4.90664 25.1142 3.16293 22.9708 3.16293C20.8273 3.16293 19.0836 4.90685 19.0836 7.05005C19.0836 9.19347 20.8276 10.9374 22.9708 10.9374C25.1142 10.9374 26.8581 9.19347 26.8581 7.05005ZM22.971 6.67111C22.5551 6.67111 22.2169 6.38802 22.2169 6.04026C22.2169 5.69249 22.5551 5.4094 22.971 5.4094C23.1894 5.4094 23.5866 5.59283 23.6603 5.70543C23.781 5.88907 24.0276 5.94017 24.2112 5.81952C24.3949 5.69886 24.446 5.45224 24.3253 5.26863C24.1351 4.97917 23.7226 4.76924 23.362 4.67295L23.3548 4.36823C23.3495 4.14854 23.166 3.97423 22.9476 3.97996C22.7279 3.98526 22.554 4.16741 22.5593 4.3871L22.5659 4.66319C21.9068 4.82753 21.4208 5.3827 21.4208 6.04069C21.4208 6.82718 22.1162 7.46759 22.9709 7.46759C23.3868 7.46759 23.725 7.75068 23.725 8.09845C23.725 8.44621 23.3868 8.7293 22.9709 8.7293C22.6826 8.7293 22.5456 8.64596 22.2801 8.39553C22.1202 8.24455 21.8685 8.25218 21.7177 8.41207C21.567 8.57196 21.5744 8.82367 21.7342 8.97485C21.9679 9.19518 22.2124 9.39853 22.581 9.48378L22.5869 9.73358C22.5922 9.95009 22.7693 10.1218 22.9847 10.1218H22.9945C23.2142 10.1165 23.3881 9.93397 23.3828 9.71428L23.377 9.47593C24.0357 9.31117 24.5215 8.75622 24.5215 8.09865C24.5206 7.31129 23.8255 6.67111 22.971 6.67111Z" fill="#CC1212"></path>
                            </svg>