<svg width="38" height="38" viewBox="0 0 30 28" fill="none" xmlns="http://www.w3.org/2000/svg">
                                <path d="M28.8892 11.5033C28.6865 11.3559 28.4102 11.4019 28.2675 11.6047L27.6364 12.4751C27.0194 5.75946 21.4598 0.619141 14.6106 0.619141C7.41119 0.619141 1.55213 6.46408 1.52933 13.6591C1.15633 14.0921 0.93984 14.6309 0.930503 15.2114C0.889152 17.7216 2.42293 20.8446 4.93766 23.3596C7.42036 25.8423 10.4927 27.3715 12.9893 27.3715H13.0907C13.6664 27.3624 14.2008 27.1503 14.6291 26.782C20.3405 26.7729 25.343 23.1156 27.0747 17.6756C27.1485 17.4406 27.0193 17.1919 26.7846 17.1136C26.5496 17.0398 26.3009 17.1689 26.2226 17.4037C24.7073 22.1664 20.502 25.4597 15.5875 25.8511L16.1495 25.2938C16.2831 25.1602 16.3982 24.9897 16.4765 24.8056C16.7161 24.2299 16.5869 23.5757 16.1495 23.1382L14.2425 21.2312C13.6483 20.6371 12.6856 20.6371 12.0914 21.2312L10.6865 22.6361C10.6728 22.6499 10.6452 22.6592 10.6312 22.6452C9.60867 22.0235 8.65063 21.2679 7.78011 20.3928C6.951 19.5637 6.22786 18.661 5.62437 17.6982C5.61525 17.6844 5.6197 17.6569 5.63348 17.6429L7.06592 16.2104C7.66008 15.6163 7.66008 14.6491 7.06592 14.0594L5.15892 12.1524C4.65232 11.6458 3.84607 11.5629 3.21967 11.9774C3.14587 12.0328 3.07696 12.0879 3.00783 12.157L2.6026 12.5669C2.59793 12.5716 2.59348 12.5716 2.58882 12.576C2.58415 12.5807 2.58415 12.5852 2.5797 12.5898L2.47367 12.6959C2.98493 6.44105 8.23122 1.51245 14.6109 1.51245C21.0958 1.51245 26.3426 6.45946 26.7709 12.8663L25.6101 12.0234C25.4074 11.8807 25.1311 11.9221 24.9883 12.1248C24.8456 12.3228 24.887 12.6038 25.0897 12.7465L26.992 14.1238C27.0703 14.1791 27.1625 14.2067 27.2546 14.2067C27.3928 14.2067 27.5309 14.1422 27.6138 14.0224L28.9911 12.1201C29.1338 11.9265 29.0875 11.6455 28.8895 11.5028L28.8892 11.5033ZM13.611 21.8621L15.5181 23.7691C15.6977 23.9487 15.753 24.2206 15.6563 24.46C15.6241 24.5383 15.5781 24.6074 15.5227 24.6627L15.4122 24.7688L12.6119 21.9684L12.7179 21.8623C12.9662 21.6134 13.367 21.6134 13.611 21.8621ZM5.00676 17.0073C4.69356 17.3205 4.63821 17.7996 4.8685 18.1681C5.50869 19.186 6.27336 20.144 7.1485 21.0192C8.06968 21.9404 9.08775 22.7419 10.17 23.4006C10.5386 23.6262 11.0129 23.5664 11.3215 23.2579L11.9848 22.5945L14.7807 25.3905L14.1406 26.0307C13.8596 26.3116 13.4819 26.4683 13.0764 26.4728H12.9844C10.7182 26.4728 7.89003 25.0448 5.56845 22.7235C3.21934 20.3744 1.78224 17.5002 1.82382 15.225C1.83294 14.8198 1.98964 14.4419 2.26595 14.1564L2.90169 13.5116L5.69762 16.3075L5.00676 17.0073ZM3.73083 12.7005C3.83686 12.6314 3.96112 12.5945 4.08093 12.5945C4.24676 12.5945 4.40792 12.659 4.52773 12.7788L6.43473 14.6858C6.67881 14.9298 6.67881 15.3306 6.43473 15.5747L6.32871 15.6807L3.53278 12.8848L3.6388 12.7788C3.6757 12.7421 3.71705 12.7099 3.73083 12.7005Z" fill="#CC1212"></path>
                                <path d="M14.6109 5.03983C14.8596 5.03983 15.0577 4.84177 15.0577 4.59303V3.0132C15.0577 2.76447 14.8596 2.56641 14.6109 2.56641C14.3621 2.56641 14.1641 2.76446 14.1641 3.0132V4.59303C14.1641 4.84176 14.3621 5.03983 14.6109 5.03983Z" fill="#CC1212"></path>
                                <path d="M8.82334 4.11921C8.6115 4.24347 8.53771 4.51533 8.66218 4.72715L9.44976 6.0951C9.53267 6.23781 9.68471 6.31627 9.83675 6.31627C9.91055 6.31627 9.9888 6.29782 10.0579 6.25647C10.2698 6.1322 10.3436 5.86035 10.2191 5.64852L9.43151 4.28058C9.31149 4.06853 9.03518 3.99474 8.82334 4.11921Z" fill="#CC1212"></path>
                                <path d="M19.7855 23.9953C19.8684 24.138 20.0204 24.2165 20.1725 24.2165C20.2463 24.2165 20.3245 24.198 20.3936 24.1567C20.6055 24.0324 20.6793 23.7605 20.5548 23.5487L19.7672 22.1808C19.643 21.9689 19.3711 21.8951 19.1593 22.0196C18.9474 22.1439 18.8736 22.4157 18.9981 22.6275L19.7855 23.9953Z" fill="#CC1212"></path>
                                <path d="M5.19972 8.19139C4.98788 8.06712 4.71157 8.14071 4.59178 8.35255C4.46751 8.56439 4.5411 8.8407 4.75294 8.9605L6.12089 9.74807C6.19001 9.78942 6.26826 9.80787 6.34206 9.80787C6.4941 9.80787 6.64614 9.72963 6.72905 9.5867C6.85332 9.37486 6.77973 9.09855 6.56789 8.97876L5.19972 8.19139Z" fill="#CC1212"></path>
                                <path d="M24.4661 19.3149L23.0982 18.5273C22.8863 18.4031 22.61 18.4766 22.4902 18.6885C22.3659 18.9003 22.4395 19.1766 22.6514 19.2964L24.0193 20.084C24.0885 20.1254 24.1667 20.1438 24.2405 20.1438C24.3925 20.1438 24.5446 20.0656 24.6275 19.9226C24.7518 19.711 24.6779 19.4347 24.4661 19.3149Z" fill="#CC1212"></path>
                                <path d="M24.6274 8.35264C24.5031 8.1408 24.2312 8.06701 24.0194 8.19148L22.6515 8.97905C22.4396 9.10332 22.3658 9.37517 22.4903 9.587C22.5732 9.72971 22.7253 9.80817 22.8773 9.80817C22.9511 9.80817 23.0293 9.78972 23.0985 9.74837L24.4664 8.96079C24.678 8.84077 24.7518 8.56893 24.6274 8.35264Z" fill="#CC1212"></path>
                                <path d="M20.3935 4.11912C20.1817 3.99486 19.9054 4.06844 19.7856 4.28028L18.998 5.64823C18.8738 5.86007 18.9473 6.13638 19.1592 6.25618C19.2283 6.29753 19.3066 6.31598 19.3804 6.31598C19.5324 6.31598 19.6844 6.23773 19.7674 6.09481L20.5549 4.72686C20.679 4.51523 20.6054 4.24337 20.3935 4.11912Z" fill="#CC1212"></path>
                                <path d="M14.1013 11.9032C13.3367 12.1012 12.7656 12.7968 12.7656 13.6259C12.7656 14.6115 13.567 15.4131 14.5482 15.4131C14.9305 15.4131 15.2944 15.2888 15.5983 15.0676L19.0113 17.882C19.0942 17.9511 19.1955 17.9834 19.2969 17.9834C19.4258 17.9834 19.5547 17.928 19.6423 17.8222C19.799 17.6333 19.7712 17.3523 19.5825 17.1958L16.1649 14.377C16.2709 14.142 16.3353 13.8888 16.3353 13.6261C16.3353 12.797 15.7643 12.1014 14.995 11.9034V6.79055C14.995 6.54181 14.7969 6.34375 14.5482 6.34375C14.2994 6.34375 14.1014 6.54181 14.1014 6.79055L14.1013 11.9032ZM15.4417 13.6257C15.4417 13.8328 15.3679 14.0356 15.239 14.1923C15.0685 14.3995 14.8153 14.5193 14.5481 14.5193C14.0553 14.5193 13.6591 14.1185 13.6591 13.6257C13.6591 13.1329 14.0599 12.7321 14.5481 12.7321C15.0409 12.7321 15.4417 13.1328 15.4417 13.6257Z" fill="#CC1212"></path>
                            </svg>