<svg width="38" height="38" viewBox="0 0 32 24" fill="none" xmlns="http://www.w3.org/2000/svg">
                                <path d="M17.8868 14.838C19.1012 14.852 20.2705 14.3794 21.1341 13.5254C21.9978 12.6717 22.4838 11.5077 22.4838 10.2933C22.4838 9.07866 21.9978 7.91494 21.1341 7.06097C20.2705 6.20722 19.1012 5.73455 17.8868 5.74834H13.5346C12.3202 5.73456 11.1509 6.20722 10.2872 7.06097C9.42352 7.91488 8.9375 9.07866 8.9375 10.2933C8.9375 11.5077 9.42353 12.6717 10.2872 13.5254C11.1509 14.3793 12.3202 14.8521 13.5346 14.838H17.8868ZM10.1771 10.2935C10.178 9.40334 10.5319 8.54959 11.1615 7.9202C11.7909 7.2906 12.6446 6.93671 13.5348 6.93584H17.887C18.7853 6.92397 19.6506 7.27237 20.29 7.90321C20.9293 8.53407 21.2894 9.39498 21.2894 10.2932C21.2894 11.1915 20.9293 12.0522 20.29 12.6831C19.6507 13.3139 18.7853 13.6625 17.887 13.6504H13.5348C12.6446 13.6496 11.7911 13.2957 11.1617 12.6663C10.5321 12.0369 10.178 11.1836 10.1771 10.2934V10.2935Z" fill="url(#paint0_linear_5637_29377)"></path>
                                <path d="M17.7084 12.9784C18.4207 12.9784 19.1039 12.6958 19.6078 12.1922C20.1114 11.6886 20.3945 11.0053 20.3945 10.293C20.3945 9.58076 20.1116 8.89752 19.608 8.39391C19.1044 7.89029 18.4211 7.60742 17.7088 7.60742C16.9966 7.60742 16.3133 7.89051 15.8097 8.39413C15.3061 8.89797 15.0234 9.5812 15.0234 10.2935C15.0245 11.0053 15.3076 11.6878 15.811 12.1909C16.3142 12.6943 16.9966 12.9774 17.7085 12.9785L17.7084 12.9784Z" fill="url(#paint1_linear_5637_29377)"></path>
                                <path d="M30.555 18.7632H30.0282V2.72229C30.0276 2.20679 29.8225 1.71231 29.4578 1.34778C29.0933 0.983043 28.5988 0.777995 28.0833 0.777344H3.93265C3.41715 0.77798 2.92267 0.983038 2.55814 1.34778C2.1934 1.7123 1.98836 2.2068 1.9877 2.72229V18.7632H1.46096C1.13313 18.7632 0.867188 19.0291 0.867188 19.357V20.7037C0.867188 21.3808 1.13607 22.0301 1.61486 22.5089C2.09368 22.9878 2.74319 23.2568 3.4203 23.2568H28.5953C29.2724 23.2568 29.9219 22.9877 30.4007 22.5089C30.8796 22.0301 31.1484 21.3808 31.1484 20.7037V19.357C31.1484 19.1996 31.0859 19.0484 30.9745 18.9371C30.8632 18.8258 30.7122 18.7632 30.5547 18.7632L30.555 18.7632ZM3.17543 2.72229C3.17564 2.30412 3.51471 1.96506 3.93288 1.96484H28.0835C28.5017 1.96506 28.8407 2.30413 28.841 2.72229V18.7632H3.17575L3.17543 2.72229ZM29.9611 20.7034C29.9611 21.0655 29.8173 21.4129 29.5612 21.6688C29.305 21.925 28.9577 22.069 28.5955 22.069H3.42046C3.05827 22.069 2.71095 21.925 2.45477 21.6688C2.19861 21.4129 2.05484 21.0655 2.05484 20.7034V19.9504H12.608V20.1249C12.6084 20.4258 12.728 20.7141 12.9407 20.9268C13.1534 21.1395 13.4418 21.2593 13.7427 21.2595H18.273C18.5739 21.2593 18.8622 21.1395 19.0749 20.9268C19.2876 20.7141 19.4072 20.4258 19.4076 20.1249V19.9504H29.9608L29.9611 20.7034Z" fill="url(#paint2_linear_5637_29377)"></path>
                                <defs>
                                    <linearGradient id="paint0_linear_5637_29377" x1="19.4916" y1="5.74805" x2="19.4636" y2="16.7864" gradientUnits="userSpaceOnUse">
                                        <stop stop-color="#005CAA"></stop>
                                        <stop offset="1" stop-color="#64B0F1"></stop>
                                    </linearGradient>
                                    <linearGradient id="paint1_linear_5637_29377" x1="19.2081" y1="7.60742" x2="19.1834" y2="14.1295" gradientUnits="userSpaceOnUse">
                                        <stop stop-color="#005CAA"></stop>
                                        <stop offset="1" stop-color="#64B0F1"></stop>
                                    </linearGradient>
                                    <linearGradient id="paint2_linear_5637_29377" x1="24.4596" y1="0.777344" x2="24.3831" y2="28.0742" gradientUnits="userSpaceOnUse">
                                        <stop stop-color="#005CAA"></stop>
                                        <stop offset="1" stop-color="#64B0F1"></stop>
                                    </linearGradient>
                                </defs>
                            </svg>