<svg width="38" height="38" viewBox="0 0 29 22" fill="none" xmlns="http://www.w3.org/2000/svg">
                                <path d="M15.7074 0.742536C15.442 0.743615 15.2269 0.958527 15.226 1.22392C15.2271 1.48932 15.442 1.70423 15.7074 1.70531H16.8922V3.51109C12.8139 4.49653 9.77754 8.19791 9.77754 12.6016C9.77754 17.7573 13.9394 21.9489 19.0619 21.9489C24.1845 21.9489 28.3413 17.7571 28.3413 12.6016C28.3413 8.19786 25.308 4.49764 21.2311 3.51164V1.70476H22.412L22.4118 1.70497C22.6787 1.70605 22.896 1.4905 22.8971 1.22359C22.8967 1.09542 22.8451 0.972641 22.7543 0.882448C22.6632 0.79204 22.54 0.741547 22.4118 0.742194L15.7074 0.742536ZM17.8588 1.70533H20.2632V3.33181C19.8696 3.28046 19.4689 3.25435 19.0615 3.25435C18.6542 3.25435 18.2524 3.28024 17.8588 3.33181V1.70533ZM19.0615 4.22103C23.6577 4.22103 27.3781 7.96467 27.3781 12.6017C27.3781 17.2388 23.6576 20.9863 19.0615 20.9863C14.4654 20.9863 10.7449 17.2387 10.7449 12.6017C10.7449 7.96472 14.4655 4.22103 19.0615 4.22103ZM4.02247 4.289L4.02226 4.28922C3.89344 4.28857 3.76981 4.33949 3.67875 4.43076C3.58748 4.52182 3.53655 4.64546 3.53698 4.77428C3.53763 4.90244 3.58898 5.02522 3.68004 5.11563C3.77088 5.20582 3.89408 5.25632 4.02225 5.25588H10.1233C10.2514 5.25632 10.3747 5.20583 10.4655 5.11563C10.5565 5.02522 10.6079 4.90244 10.6085 4.77428C10.609 4.64546 10.5581 4.52182 10.467 4.43076C10.3757 4.33949 10.2521 4.28857 10.1233 4.28922L4.02247 4.289ZM18.9715 6.88606C18.8433 6.88671 18.7206 6.93807 18.6301 7.0289C18.54 7.11996 18.4895 7.24317 18.4899 7.37133V13.3685C18.4892 13.4969 18.5395 13.6203 18.6299 13.7116C18.7201 13.8026 18.8431 13.8542 18.9715 13.8546H22.4219H22.4217C22.5507 13.8553 22.6746 13.8041 22.7659 13.7129C22.8569 13.6216 22.9079 13.4975 22.907 13.3685C22.9066 13.2403 22.8552 13.1176 22.7642 13.0274C22.6731 12.9372 22.5499 12.8867 22.4217 12.8871H19.4529V7.37133C19.4533 7.24317 19.4031 7.11996 19.3127 7.0289C19.2225 6.93807 19.0997 6.88671 18.9715 6.88606ZM1.69641 8.2068H1.69619C1.56802 8.20615 1.44482 8.25664 1.35398 8.34705C1.26292 8.43725 1.21157 8.56003 1.21092 8.68819C1.21157 8.81636 1.26292 8.93914 1.35398 9.02933C1.44482 9.11974 1.56802 9.17023 1.69619 9.16959H7.79721C7.92538 9.17023 8.04859 9.11974 8.13943 9.02933C8.23048 8.93914 8.28184 8.81636 8.28248 8.68819C8.28184 8.56003 8.23048 8.43725 8.13943 8.34705C8.04859 8.25665 7.92538 8.20615 7.79721 8.2068H1.69641ZM0.790176 12.1207H0.78996C0.661792 12.12 0.538584 12.1705 0.447745 12.2607C0.356691 12.3511 0.305337 12.4739 0.30469 12.6021C0.304259 12.7309 0.355181 12.8545 0.446453 12.9458C0.537507 13.0369 0.661145 13.0878 0.789966 13.0873H6.89099C7.0198 13.0878 7.14344 13.0369 7.2345 12.9458C7.32577 12.8545 7.37669 12.7309 7.37626 12.6021C7.37562 12.4739 7.32426 12.3511 7.23321 12.2607C7.14237 12.1705 7.01916 12.12 6.89099 12.1207H0.790176ZM1.69641 16.0346L1.69619 16.0343C1.56802 16.0339 1.44482 16.0844 1.35398 16.1746C1.26292 16.265 1.21157 16.3876 1.21092 16.516C1.21049 16.6448 1.26141 16.7684 1.35268 16.8595C1.44374 16.9507 1.56738 17.0017 1.6962 17.001H7.79722C7.92603 17.0017 8.04967 16.9507 8.14095 16.8595C8.232 16.7684 8.28293 16.6448 8.2825 16.516C8.28185 16.3876 8.23049 16.265 8.13944 16.1746C8.0486 16.0844 7.92539 16.0339 7.79723 16.0343L1.69641 16.0346ZM4.02242 19.9484L4.0222 19.9482C3.89404 19.9478 3.77083 19.9983 3.67999 20.0885C3.58893 20.1787 3.53758 20.3014 3.53693 20.4296C3.5365 20.5584 3.58742 20.6823 3.6787 20.7733C3.76975 20.8644 3.89339 20.9153 4.02221 20.9149H10.1232C10.252 20.9153 10.3757 20.8644 10.4667 20.7733C10.558 20.6823 10.6089 20.5584 10.6085 20.4296C10.6079 20.3014 10.5565 20.1787 10.4655 20.0885C10.3746 19.9983 10.2514 19.9478 10.1232 19.9482L4.02242 19.9484Z" fill="url(#paint0_linear_5637_28752)"></path>
                                <defs>
                                    <linearGradient id="paint0_linear_5637_28752" x1="22.1483" y1="0.742187" x2="22.0748" y2="26.4936" gradientUnits="userSpaceOnUse">
                                        <stop stop-color="#005CAA"></stop>
                                        <stop offset="1" stop-color="#64B0F1"></stop>
                                    </linearGradient>
                                </defs>
                            </svg>