<svg width="38" height="38" viewBox="0 0 40 40" fill="none" xmlns="http://www.w3.org/2000/svg">
<path d="M21.6625 32.7855H5.91337C5.4098 32.7855 5 32.3757 5 31.8721V22.4407C5 21.9369 5.40982 21.5273 5.91337 21.5273H21.6631C22.1669 21.5273 22.5765 21.9372 22.5765 22.4407V31.8721C22.5762 32.3757 22.1666 32.7853 21.6629 32.7853L21.6625 32.7855ZM5.91337 21.9844C5.66181 21.9844 5.45712 22.1891 5.45712 22.4406V31.8721C5.45712 32.1236 5.66158 32.3283 5.91337 32.3283H21.6631C21.9146 32.3283 22.1193 32.1238 22.1193 31.8721L22.1191 22.4406C22.1191 22.1891 21.9144 21.9844 21.6629 21.9844H5.91337Z" fill="white"/>
<path d="M20.2755 31.629C19.6411 31.629 19.125 31.1127 19.125 30.4786C19.125 29.8442 19.6413 29.3281 20.2755 29.3281C20.9099 29.3281 21.4259 29.8444 21.4259 30.4786C21.4259 31.113 20.9098 31.629 20.2755 31.629ZM20.2755 29.785C19.8931 29.785 19.5821 30.096 19.5821 30.4784C19.5821 30.8607 19.8931 31.1717 20.2755 31.1717C20.6578 31.1717 20.9688 30.8607 20.9688 30.4784C20.9688 30.0962 20.6578 29.785 20.2755 29.785Z" fill="white"/>
<path d="M18.9276 31.6249C18.2934 31.6249 17.7773 31.1088 17.7773 30.4744C17.7773 29.8403 18.2934 29.3242 18.9276 29.3242C19.2457 29.3242 19.5521 29.4579 19.7682 29.6907C19.8541 29.7834 19.8488 29.928 19.7561 30.0137C19.6637 30.0994 19.5189 30.0943 19.4332 30.0017C19.3012 29.8595 19.1216 29.7811 18.9276 29.7811C18.5452 29.7811 18.2345 30.0921 18.2345 30.4742C18.2345 30.8564 18.5454 31.1675 18.9276 31.1675C19.1213 31.1675 19.3012 31.0894 19.4338 30.9481C19.5202 30.8559 19.6651 30.8517 19.7568 30.9376C19.8488 31.024 19.8535 31.1687 19.7673 31.2606C19.5503 31.4921 19.2443 31.6249 18.9276 31.6249Z" fill="white"/>
<path d="M22.3099 26.0431H5.26763C5.1413 26.0431 5.03906 25.9408 5.03906 25.8145C5.03906 25.6882 5.1413 25.5859 5.26763 25.5859H22.3099C22.4363 25.5859 22.5385 25.6882 22.5385 25.8145C22.5385 25.9406 22.4363 26.0431 22.3099 26.0431Z" fill="white"/>
<path d="M22.3099 24.1407H5.26763C5.1413 24.1407 5.03906 24.0385 5.03906 23.9122C5.03906 23.7858 5.1413 23.6836 5.26763 23.6836H22.3099C22.4363 23.6836 22.5385 23.7858 22.5385 23.9122C22.5385 24.0385 22.4363 24.1407 22.3099 24.1407Z" fill="white"/>
<path d="M11.0224 30.2618H6.58404C6.4577 30.2618 6.35547 30.1596 6.35547 30.0333C6.35547 29.9069 6.4577 29.8047 6.58404 29.8047H11.0224C11.1488 29.8047 11.251 29.9069 11.251 30.0333C11.251 30.1594 11.1488 30.2618 11.0224 30.2618Z" fill="white"/>
<path d="M24.8964 20.3287C24.8604 20.3287 24.8236 20.3202 24.7894 20.3021C24.6778 20.2429 24.6356 20.1048 24.6946 19.9929L25.339 18.778C25.3977 18.6666 25.5358 18.6235 25.6481 18.6831C25.7597 18.7423 25.8019 18.8804 25.743 18.9923L25.0986 20.2072C25.0575 20.2845 24.9783 20.3287 24.8964 20.3287Z" fill="white"/>
<path d="M28.8652 12.8441C28.8293 12.8441 28.7924 12.8356 28.7583 12.8175C28.6467 12.7584 28.6043 12.6202 28.6634 12.5086L29.3076 11.2936C29.3665 11.182 29.5049 11.1392 29.6165 11.1988C29.7281 11.2577 29.7705 11.3961 29.7114 11.5077L29.0672 12.7227C29.0264 12.8001 28.9471 12.8441 28.8652 12.8441Z" fill="white"/>
<path d="M27.2 18.0642C26.8348 18.0642 26.4645 17.9775 26.1201 17.7947C24.9931 17.1972 24.5623 15.794 25.1598 14.6671C25.7571 13.54 27.1607 13.109 28.2875 13.7068C29.4145 14.3043 29.8455 15.7075 29.2478 16.8344C28.8328 17.6172 28.0295 18.0642 27.2 18.0642ZM27.2062 13.8936C27.0232 13.8936 26.839 13.9211 26.6591 13.9762C26.185 14.1218 25.7962 14.4432 25.5638 14.8811C25.3315 15.3193 25.2837 15.8215 25.4294 16.2957C25.575 16.7698 25.8964 17.1586 26.3344 17.391C27.2388 17.8704 28.3645 17.5247 28.8442 16.6205C29.0766 16.1825 29.1243 15.6803 28.9786 15.2059C28.833 14.7318 28.5116 14.343 28.0734 14.1106C27.8018 13.9667 27.5051 13.8936 27.2062 13.8936Z" fill="white"/>
<path d="M27.6058 24.5009C27.5688 24.5009 27.5322 24.4918 27.4987 24.4744L23.1449 22.1648C23.0333 22.1056 22.9911 21.9672 23.05 21.8556C23.1092 21.7442 23.2469 21.7016 23.3592 21.7607L27.511 23.963L34.1761 11.3955L26.8972 7.53749L24.4727 12.1109C24.4135 12.2225 24.2754 12.2654 24.1638 12.2058C24.0521 12.1466 24.0097 12.0085 24.0689 11.8969L26.6001 7.12166C26.6588 7.01006 26.797 6.96742 26.9091 7.0268L34.5919 11.0989C34.6455 11.1273 34.6857 11.1759 34.7035 11.2337C34.7212 11.2918 34.7154 11.3543 34.687 11.4078L27.8076 24.3793C27.7792 24.4326 27.7306 24.473 27.6728 24.4907C27.6507 24.4976 27.6281 24.5009 27.6056 24.5009L27.6058 24.5009Z" fill="white"/>
<path d="M26.168 22.5346C26.1321 22.5346 26.0953 22.5261 26.0613 22.508L24.1647 21.5038C24.0531 21.4447 24.0107 21.3065 24.0696 21.1949C24.1285 21.0833 24.2669 21.0404 24.3785 21.0998L26.0908 22.0063C26.4404 21.5536 27.0453 21.3683 27.5893 21.5467L32.2188 12.8175C31.7648 12.4673 31.5791 11.8631 31.7589 11.3191L28.3192 9.49717C27.9697 9.94985 27.3659 10.1353 26.821 9.95699L24.4735 14.3831C24.4143 14.4945 24.2757 14.5373 24.1645 14.478C24.0529 14.4188 24.0105 14.2807 24.0697 14.1691L26.5143 9.55831C26.5732 9.44693 26.7112 9.40451 26.8228 9.46322C27.2614 9.69425 27.8069 9.52706 28.0391 9.09023C28.0982 8.97907 28.2359 8.93621 28.348 8.99536L32.1576 11.0132C32.2112 11.0415 32.2513 11.0902 32.2692 11.148C32.2868 11.206 32.281 11.2688 32.2527 11.3223C32.1399 11.5344 32.1167 11.7775 32.1875 12.0069C32.258 12.2366 32.4138 12.425 32.6259 12.5377C32.7373 12.5969 32.7797 12.7353 32.7205 12.8469L27.8953 21.9452C27.8364 22.0563 27.6985 22.099 27.5869 22.0403C27.1485 21.809 26.6025 21.9764 26.3706 22.4132C26.3293 22.4905 26.25 22.5344 26.1681 22.5344L26.168 22.5346Z" fill="white"/>
<path d="M26.3951 15.5521C26.3592 15.5521 26.3223 15.5437 26.2882 15.5256L26.102 15.4269C25.9904 15.3678 25.948 15.2294 26.0072 15.1178C26.0663 15.0062 26.2043 14.9635 26.3163 15.0229L26.5025 15.1216C26.6141 15.1807 26.6565 15.3191 26.5973 15.4307C26.5563 15.5082 26.477 15.5521 26.3951 15.5521Z" fill="white"/>
<path d="M27.6068 16.6521C27.4985 16.6521 27.3887 16.6267 27.2867 16.5724C26.9525 16.3952 26.8246 15.9791 27.0019 15.6448C27.0307 15.5908 27.0365 15.5289 27.0186 15.4702C27.0005 15.4117 26.961 15.364 26.907 15.3354C26.8532 15.3066 26.7912 15.301 26.7325 15.3189C26.674 15.337 26.6262 15.3762 26.5976 15.4305C26.5385 15.5421 26.5811 15.6809 26.6925 15.7401C26.8041 15.7992 26.8463 15.9376 26.7874 16.0492C26.7282 16.1604 26.59 16.203 26.4782 16.1441C26.3164 16.0582 26.1976 15.9146 26.1438 15.7392C26.09 15.564 26.1077 15.3783 26.1936 15.2164C26.2793 15.0546 26.4231 14.9359 26.5983 14.8821C26.7735 14.8283 26.9588 14.8461 27.1211 14.9318C27.2831 15.0178 27.4016 15.1613 27.4554 15.3367C27.5092 15.512 27.4916 15.6977 27.4057 15.8595C27.3465 15.9711 27.3894 16.1097 27.5008 16.1689C27.6121 16.228 27.7512 16.1854 27.8101 16.0738C27.8693 15.9622 27.8264 15.8236 27.715 15.7644C27.6037 15.7053 27.5612 15.5669 27.6202 15.4553C27.6793 15.3437 27.817 15.3012 27.9293 15.3604C28.2635 15.5376 28.3912 15.9537 28.2142 16.2878C28.0912 16.5197 27.853 16.6521 27.6068 16.6521Z" fill="white"/>
<path d="M28.1998 16.5053C28.1639 16.5053 28.127 16.4968 28.0929 16.4787L27.9067 16.38C27.7951 16.3209 27.7527 16.1825 27.8119 16.0709C27.871 15.9593 28.009 15.9166 28.121 15.976L28.3072 16.0747C28.4188 16.1338 28.4612 16.2722 28.402 16.3838C28.361 16.4611 28.2817 16.5053 28.1998 16.5053Z" fill="white"/>
<path d="M10.8848 14.5749C10.8029 14.5749 10.7237 14.5307 10.6828 14.4532L10.0384 13.2383C9.97926 13.1267 10.0217 12.9885 10.1333 12.9293C10.2442 12.8695 10.3831 12.9126 10.4422 13.0242L11.0864 14.2392C11.1455 14.3508 11.1031 14.489 10.9915 14.5481C10.9576 14.5664 10.9208 14.5749 10.8848 14.5749Z" fill="white"/>
<path d="M12.5506 19.7934C12.3223 19.7934 12.093 19.7593 11.8687 19.6903C11.2778 19.509 10.7933 19.1084 10.5037 18.5624C9.90594 17.4354 10.3367 16.0323 11.464 15.4348C12.01 15.1452 12.6361 15.0856 13.2267 15.2671C13.8176 15.4484 14.3022 15.8491 14.5917 16.3952C14.8812 16.9412 14.9408 17.5671 14.7593 18.158C14.5779 18.7488 14.1774 19.2334 13.6315 19.523C13.2928 19.7022 12.9232 19.7933 12.5507 19.7935L12.5506 19.7934ZM12.5453 15.6213C12.2462 15.6213 11.9497 15.6943 11.6778 15.8385C11.2399 16.0709 10.9185 16.4597 10.7729 16.9338C10.6274 17.4079 10.6752 17.9102 10.9073 18.3483C11.1397 18.7863 11.5285 19.1077 12.0026 19.2532C12.4772 19.3988 12.9792 19.3512 13.4171 19.1189C13.8551 18.8865 14.1765 18.4977 14.322 18.0236C14.4676 17.5494 14.4198 17.0472 14.1877 16.609C13.9553 16.1711 13.5665 15.8497 13.0924 15.7039C12.9124 15.6488 12.7283 15.6213 12.5453 15.6213Z" fill="white"/>
<path d="M9.89235 21.9832C9.81043 21.9832 9.73119 21.939 9.69033 21.8615L5.06576 13.1381C5.00661 13.0265 5.04902 12.8883 5.16063 12.8292L12.8412 8.75704C12.895 8.72847 12.9577 8.72289 13.0153 8.74053C13.0733 8.75838 13.1218 8.79856 13.1501 8.85213L15.7772 13.8075C15.8363 13.9191 15.7939 14.0573 15.6823 14.1164C15.5707 14.1758 15.4323 14.1329 15.3734 14.0216L12.8533 9.26796L5.57668 13.1258L10.0941 21.6475C10.1533 21.7591 10.1109 21.8973 9.99924 21.9564C9.96487 21.9747 9.92828 21.9832 9.89235 21.9832Z" fill="white"/>
<path d="M11.0988 21.985C11.0168 21.985 10.9376 21.9408 10.8965 21.8633L7.03447 14.5776C6.97531 14.466 7.01795 14.3278 7.12934 14.2687C7.56617 14.0367 7.73334 13.4912 7.50233 13.0524C7.44362 12.9408 7.48603 12.8028 7.59764 12.7437L11.405 10.726C11.5166 10.6666 11.6548 10.7093 11.7139 10.8209C11.9461 11.2577 12.4923 11.4249 12.9302 11.1939C13.0418 11.1354 13.1798 11.1776 13.2389 11.289L15.7789 16.0823C15.838 16.1939 15.7954 16.3321 15.684 16.3914C15.5719 16.4506 15.4342 16.408 15.3748 16.2966L12.9322 11.6877C12.3878 11.8664 11.7838 11.6807 11.4338 11.2281L7.99582 13.0499C8.17417 13.5944 7.9889 14.1986 7.536 14.5482L11.3001 21.6493C11.3592 21.7609 11.3168 21.8991 11.2052 21.9585C11.1713 21.9763 11.1346 21.9848 11.0987 21.9848L11.0988 21.985Z" fill="white"/>
<path d="M13.3578 17.2788C13.2759 17.2788 13.1966 17.2346 13.1556 17.1571C13.0964 17.0455 13.139 16.9074 13.2504 16.848L13.4366 16.7493C13.5482 16.6902 13.6864 16.7328 13.7457 16.8442C13.8049 16.9558 13.7623 17.094 13.6509 17.1533L13.4647 17.252C13.4303 17.2703 13.3937 17.2788 13.3578 17.2788Z" fill="white"/>
<path d="M12.1443 18.3827C12.0767 18.3827 12.0086 18.3724 11.9421 18.3521C11.7669 18.2983 11.6231 18.1796 11.5372 18.0177C11.4515 17.8559 11.4339 17.6702 11.4874 17.495C11.5412 17.3198 11.66 17.176 11.8218 17.0901C11.9334 17.0309 12.0716 17.0736 12.131 17.1849C12.1901 17.2965 12.1475 17.4347 12.0361 17.4941C11.9245 17.5532 11.8821 17.6921 11.9412 17.8035C11.9698 17.8575 12.0178 17.8972 12.076 17.9151C12.1347 17.9329 12.1964 17.9269 12.2504 17.8986C12.362 17.8394 12.4046 17.7006 12.3455 17.5892C12.1682 17.255 12.2959 16.839 12.6303 16.6618C12.9651 16.4847 13.381 16.6124 13.5579 16.9466C13.6439 17.1084 13.6613 17.2939 13.6077 17.4693C13.5539 17.6446 13.4352 17.7883 13.2733 17.8742C13.1615 17.9334 13.0233 17.8908 12.9642 17.7794C12.905 17.6678 12.9475 17.5296 13.0591 17.4702C13.1707 17.4111 13.2133 17.2722 13.1542 17.1608C13.1254 17.1068 13.0776 17.0671 13.0191 17.0492C12.9604 17.0312 12.8986 17.037 12.8446 17.0658C12.7329 17.1249 12.6905 17.2637 12.7497 17.3751C12.8356 17.5372 12.853 17.7229 12.7995 17.8979C12.7457 18.0731 12.6269 18.2169 12.4651 18.3028C12.3644 18.3557 12.2548 18.3827 12.1443 18.3827Z" fill="white"/>
<path d="M11.5531 18.2359C11.4712 18.2359 11.3919 18.1917 11.3509 18.1143C11.2917 18.0027 11.3344 17.8645 11.4457 17.8051L11.6319 17.7064C11.7435 17.6471 11.8817 17.6899 11.9411 17.8013C12.0002 17.9129 11.9576 18.0511 11.8462 18.1105L11.66 18.2091C11.6259 18.2274 11.5893 18.2359 11.5531 18.2359Z" fill="white"/>
<path d="M19.9239 19.7737C19.7975 19.7737 19.6953 19.6715 19.6953 19.5452V18.17C19.6953 18.0436 19.7975 17.9414 19.9239 17.9414C20.0502 17.9414 20.1525 18.0436 20.1525 18.17V19.5452C20.1525 19.6713 20.05 19.7737 19.9239 19.7737Z" fill="white"/>
<path d="M19.9239 11.3009C19.7975 11.3009 19.6953 11.1986 19.6953 11.0723V9.69732C19.6953 9.57098 19.7975 9.46875 19.9239 9.46875C20.0502 9.46875 20.1525 9.57098 20.1525 9.69732V11.0725C20.1525 11.1986 20.05 11.3009 19.9239 11.3009Z" fill="white"/>
<path d="M19.9227 16.9353C18.6471 16.9353 17.6094 15.8976 17.6094 14.622C17.6094 13.3463 18.6471 12.3086 19.9227 12.3086C21.1984 12.3086 22.2361 13.3463 22.2361 14.622C22.2361 15.8974 21.1984 16.9353 19.9227 16.9353ZM19.9227 12.7655C18.8993 12.7655 18.0665 13.5983 18.0665 14.6217C18.0665 15.6451 18.8993 16.4779 19.9227 16.4779C20.9462 16.4779 21.779 15.6451 21.779 14.6217C21.779 13.5983 20.9462 12.7655 19.9227 12.7655Z" fill="white"/>
<path d="M24.2705 22.1914H22.1525C22.0261 22.1914 21.9239 22.0891 21.9239 21.9628C21.9239 21.8364 22.0261 21.7342 22.1525 21.7342H24.0419V7.50792H15.8048V21.7554C15.8048 21.8817 15.7026 21.9839 15.5762 21.9839C15.4499 21.9839 15.3477 21.8817 15.3477 21.7554V7.27935C15.3477 7.15302 15.4499 7.05078 15.5762 7.05078H24.2705C24.3969 7.05078 24.4991 7.15302 24.4991 7.27935V21.9628C24.4991 22.0889 24.3966 22.1914 24.2705 22.1914Z" fill="white"/>
<path d="M22.0803 21.128H17.7701C17.6437 21.128 17.5415 21.0258 17.5415 20.8995C17.5415 20.4039 17.1381 20.0006 16.6426 20.0006C16.5163 20.0006 16.4141 19.8984 16.4141 19.772V9.47319C16.4141 9.34685 16.5163 9.24462 16.6426 9.24462C17.1382 9.24462 17.5415 8.84127 17.5415 8.34576C17.5415 8.21942 17.6437 8.11719 17.7701 8.11719H22.0803C22.2067 8.11719 22.3089 8.21942 22.3089 8.34576C22.3089 8.8413 22.7123 9.24462 23.2078 9.24462C23.3341 9.24462 23.4363 9.34685 23.4363 9.47319V19.772C23.4363 19.8984 23.3341 20.0006 23.2078 20.0006C22.7122 20.0006 22.3089 20.404 22.3089 20.8995C22.3089 21.0256 22.2067 21.128 22.0803 21.128ZM17.9792 20.6709H21.8712C21.9674 20.1059 22.4142 19.6588 22.9792 19.5628V9.68227C22.4143 9.58607 21.9674 9.13919 21.8712 8.57422L17.9792 8.57399C17.883 9.13895 17.4361 9.58605 16.8711 9.68205V19.5626C17.4361 19.6588 17.883 20.1059 17.9792 20.6709Z" fill="white"/>
<path d="M21.0487 14.8478H20.8379C20.7116 14.8478 20.6094 14.7455 20.6094 14.6192C20.6094 14.4929 20.7116 14.3906 20.8379 14.3906H21.0487C21.175 14.3906 21.2772 14.4929 21.2772 14.6192C21.2772 14.7455 21.1748 14.8478 21.0487 14.8478Z" fill="white"/>
<path d="M20.3819 15.3055C20.2556 15.3055 20.1534 15.2032 20.1534 15.0769C20.1534 14.9506 20.2556 14.8483 20.3819 14.8483C20.5083 14.8483 20.6107 14.7457 20.6107 14.6195C20.6107 14.4934 20.508 14.3907 20.3819 14.3907C20.2558 14.3907 20.1531 14.4934 20.1531 14.6195C20.1531 14.9979 19.8453 15.3055 19.4672 15.3055C19.0891 15.3055 18.7812 14.9977 18.7812 14.6195C18.7812 14.2414 19.0891 13.9336 19.4672 13.9336C19.5935 13.9336 19.6958 14.0358 19.6958 14.1622C19.6958 14.2885 19.5935 14.3907 19.4672 14.3907C19.3409 14.3907 19.2384 14.4934 19.2384 14.6195C19.2384 14.7457 19.3411 14.8483 19.4672 14.8483C19.5933 14.8483 19.696 14.7457 19.696 14.6195C19.696 14.2412 20.0038 13.9336 20.3819 13.9336C20.7601 13.9336 21.0679 14.2414 21.0679 14.6195C21.0681 14.9977 20.7603 15.3055 20.3819 15.3055Z" fill="white"/>
<path d="M19.0094 14.8478H18.7989C18.6725 14.8478 18.5703 14.7455 18.5703 14.6192C18.5703 14.4929 18.6725 14.3906 18.7989 14.3906H19.0094C19.1357 14.3906 19.2379 14.4929 19.2379 14.6192C19.2379 14.7455 19.1355 14.8478 19.0094 14.8478Z" fill="white"/>
</svg>