<svg width="32" height="32" viewBox="0 0 40 40" fill="none" xmlns="http://www.w3.org/2000/svg">
<path d="M2.50781 21.4492V22.2858V37.0124H10.8965V34.9323L10.9356 34.9456C13.1249 35.6737 16.2438 36.3133 19.3372 37.4196L19.5716 37.5042L19.806 37.4424C20.7789 37.2162 23.3881 36.4049 26.5117 35.4014C29.6353 34.3979 33.2015 33.2171 35.8509 32.3024C37.1212 31.8631 37.8053 30.4486 37.3385 29.1872V29.1742C36.8481 27.8838 35.4252 27.3147 34.2135 27.6866C33.2066 27.9955 28.4836 29.4656 25.3789 30.3819C25.4098 29.4935 25.6441 28.5222 24.9232 27.9567L24.8743 27.921L24.8385 27.8949C21.3489 25.816 21.0469 25.5579 16.1406 22.9502L15.9063 22.8396L15.6589 22.8623C13.9745 23.0425 11.1156 23.5103 10.8965 23.5459V21.4496L2.50781 21.4492ZM15.5742 24.5482C20.0671 26.9409 20.5726 27.3059 23.8913 29.2845C24.4162 29.703 24.5565 30.2172 24.2363 30.6777C24.0628 30.9276 23.8956 31.0161 23.6439 31.0586C23.3922 31.1011 23.0465 31.0639 22.6478 30.8861C21.1448 30.192 20.3409 29.7471 18.6862 28.819L17.9603 28.4121L17.1367 29.8639L17.8757 30.2708C19.5347 31.2013 20.4175 31.6869 21.9609 32.3997V32.4127C22.592 32.6941 23.262 32.8163 23.9173 32.7057C24.1872 32.6602 24.3708 32.3961 24.6172 32.263L24.6432 32.3379L25.4408 32.1035C28.5495 31.1932 33.6678 29.6027 34.7051 29.2845C35.095 29.1648 35.6193 29.3539 35.7761 29.7663C35.9308 30.1845 35.7379 30.5788 35.3106 30.7265C32.6791 31.6349 29.1201 32.8124 26.0072 33.8125C22.9753 34.7865 20.4079 35.5705 19.5977 35.7689C16.4848 34.6882 13.3886 34.0037 11.4531 33.36L10.8965 33.1745V25.235L11.0332 25.2122C11.0332 25.2122 13.8885 24.7462 15.5742 24.5482Z" fill="white"></path>
<path d="M26.8672 2.5C21.2037 2.5 16.5938 7.1101 16.5938 12.7734C16.5938 18.4368 21.2037 23.0469 26.8672 23.0469C32.5307 23.0469 37.1276 18.4368 37.1276 12.7734C37.1276 7.1101 32.5307 2.5 26.8672 2.5ZM23.6445 7.0638C24.2874 7.06164 24.9307 7.30177 25.4154 7.78646C26.3847 8.75579 26.3847 10.3653 25.4154 11.3346C24.446 12.304 22.8463 12.2975 21.877 11.3281C20.9075 10.3588 20.9075 8.76236 21.877 7.79298C22.3616 7.30832 23.0016 7.06597 23.6445 7.0638ZM29.8066 8.65234L30.9883 9.82096L30.3991 10.4102L24.2207 16.5885L23.6315 17.1777L22.4499 16.0091L23.0391 15.4199L29.2174 9.24154L29.8066 8.65234ZM23.6445 8.72396C23.434 8.72612 23.2247 8.81171 23.0586 8.97786C22.726 9.31043 22.7263 9.81093 23.0586 10.1432C23.3909 10.4756 23.9014 10.4853 24.2337 10.1531C24.5661 9.82072 24.566 9.30046 24.2337 8.96816C24.0674 8.80188 23.8551 8.72179 23.6445 8.72396ZM30.0768 13.4928C30.7197 13.4907 31.3597 13.7308 31.8444 14.2155C32.8138 15.1848 32.8073 16.7878 31.8379 17.7572C30.8685 18.7265 29.2754 18.7265 28.306 17.7572C27.3366 16.7878 27.3366 15.1946 28.306 14.2253C28.7907 13.7406 29.4339 13.495 30.0768 13.4928ZM30.0703 15.1497C29.8576 15.1497 29.644 15.231 29.4779 15.3971C29.1454 15.7297 29.1553 16.24 29.4877 16.5723C29.8203 16.9048 30.3208 16.9046 30.6531 16.5723C30.9855 16.2399 30.9952 15.7294 30.6629 15.3971C30.4967 15.2309 30.283 15.1497 30.0703 15.1497Z" fill="white"></path>
</svg>