<svg width="38" height="38" viewBox="0 0 40 40" fill="none" xmlns="http://www.w3.org/2000/svg">
<path d="M28.2098 34.801C28.7085 34.801 29.1797 34.6081 29.5384 34.257C29.9022 33.9008 30.1054 33.426 30.1112 32.9195L30.1487 29.4289C30.154 28.9224 29.9612 28.4429 29.6049 28.0796C29.4036 27.8738 29.1634 27.7215 28.9018 27.6251L28.9136 27.5441C29.0022 26.9508 29.2725 26.4135 29.6958 25.9905L32.413 23.2733C33.107 22.5793 33.5455 21.6624 33.6469 20.6918L33.9353 17.9568C33.9547 17.8577 33.9661 17.7545 33.9679 17.6481L33.9688 17.6405C33.969 17.6362 33.9686 17.6322 33.9688 17.628C33.9688 17.6101 33.9712 17.5932 33.971 17.5748L33.8302 13.1646C33.8186 12.8378 33.6849 12.5304 33.4536 12.299C33.2065 12.0519 32.8634 11.9121 32.5052 11.9224C31.2492 11.9637 30.2585 13.0199 30.2969 14.2775L30.3649 16.3778L30.01 17.8133C29.5806 17.8108 29.1502 17.972 28.8228 18.2994L26.4875 20.6364L25.6788 20.7762C25.1558 20.8648 24.6612 21.1206 24.2862 21.4958L22.6775 23.1045C22.2036 23.5782 21.9342 24.2072 21.9188 24.876L21.8592 27.5418C21.1092 27.7904 20.5624 28.4931 20.5532 29.3262L20.5157 32.817C20.5104 33.3235 20.7032 33.8025 21.0597 34.1664C21.416 34.5302 21.8907 34.7333 22.3972 34.7391L28.1886 34.8009L28.2098 34.801ZM23.3561 23.7833L24.9648 22.1746C25.2002 21.9391 25.511 21.7784 25.8406 21.7223L26.8007 21.5563C26.8346 21.5505 26.867 21.5409 26.8976 21.5284C26.8998 21.5275 26.9018 21.5261 26.9036 21.5252C26.9612 21.5011 27.0127 21.4668 27.0558 21.4241C27.0565 21.4235 27.0574 21.4232 27.0583 21.4226L29.5011 18.9782C29.7759 18.7034 30.223 18.7034 30.498 18.9782C30.7728 19.2529 30.7728 19.7005 30.498 19.9753L27.6913 22.7819C27.5038 22.9692 27.5038 23.2732 27.6913 23.4607C27.7855 23.5545 27.9083 23.6011 28.0313 23.6011C28.1543 23.6011 28.277 23.5545 28.3708 23.4607L31.1775 20.6541C31.8263 20.0052 31.8263 18.9487 31.1775 18.2996C31.1 18.2221 31.0161 18.1556 30.9288 18.0967L31.3125 16.544C31.3138 16.5386 31.3138 16.5335 31.3147 16.5284C31.3183 16.5121 31.3201 16.4958 31.3219 16.4791C31.3234 16.4623 31.325 16.446 31.325 16.4295C31.325 16.4241 31.3263 16.419 31.3259 16.4134L31.2556 14.2476C31.2335 13.5186 31.8078 12.9059 32.5308 12.8818C32.6283 12.8804 32.7102 12.9137 32.7741 12.9775C32.8156 13.019 32.8663 13.0914 32.8701 13.1965L33.0098 17.5719L32.9774 17.8797C32.9761 17.8913 32.9743 17.9027 32.9739 17.9139L32.6917 20.5913C32.6129 21.344 32.2725 22.0554 31.7337 22.5942L29.0165 25.3114C28.4468 25.8811 28.0827 26.6043 27.9633 27.4043L27.9488 27.5034L22.8212 27.4483L22.8781 24.8976C22.8879 24.4777 23.0578 24.0818 23.356 23.7833L23.3561 23.7833ZM21.7456 33.4947C21.569 33.3141 21.473 33.0771 21.4757 32.8273L21.5132 29.3364C21.5185 28.8206 21.94 28.4045 22.4549 28.4045H22.4652L28.2572 28.4665C28.5072 28.469 28.7422 28.5701 28.919 28.7507C29.0956 28.9312 29.1915 29.1685 29.1889 29.4186L29.1514 32.9092C29.1489 33.1592 29.0478 33.3942 28.8672 33.571C28.6864 33.7476 28.4427 33.8373 28.1992 33.8409L22.4071 33.779C22.1576 33.7764 21.9223 33.6753 21.7456 33.4947Z" fill="white"/>
<path d="M28.8616 29.8566C28.8616 30.3102 28.494 30.678 28.0402 30.678C27.5866 30.678 27.2188 30.3102 27.2188 29.8566C27.2188 29.4028 27.5866 29.0352 28.0402 29.0352C28.494 29.0352 28.8616 29.4028 28.8616 29.8566Z" fill="white"/>
<path d="M6.0019 17.6358V17.6407L6.00213 17.6439C6.00347 17.751 6.0153 17.8559 6.03539 17.9581L6.32378 20.6919C6.42512 21.6628 6.86351 22.5796 7.55772 23.2736L10.2749 25.9908C10.6979 26.4142 10.9685 26.9511 11.0566 27.5428L11.0687 27.6256C10.8073 27.722 10.5669 27.8742 10.3655 28.08C10.0093 28.4439 9.81644 28.9234 9.8218 29.4294L9.8593 32.92C9.86466 33.4265 10.0682 33.9015 10.432 34.2575C10.791 34.6088 11.2618 34.8014 11.7606 34.8014H11.7814L17.5734 34.7396C18.0798 34.7343 18.5549 34.5307 18.9109 34.1669C19.2671 33.803 19.4602 33.3236 19.4548 32.8176L19.4173 29.3267C19.4084 28.4934 18.8615 27.7908 18.1113 27.5423L18.0517 24.8765C18.0363 24.2084 17.7669 23.5792 17.293 23.1053L15.6844 21.4966C15.3094 21.1216 14.8145 20.8658 14.293 20.7772L13.4832 20.637L11.1475 18.2997C10.8205 17.9729 10.3901 17.8118 9.96065 17.814L9.60574 16.3781L9.67426 14.2769C9.71243 13.0202 8.72158 11.964 7.46089 11.9225C7.11156 11.9115 6.76489 12.0522 6.51758 12.299C6.28632 12.5303 6.1524 12.8379 6.14102 13.166L6.00017 17.5798C5.99928 17.5993 6.00218 17.6173 6.00218 17.6359L6.0019 17.6358ZM18.4568 29.337L18.4943 32.8278C18.4967 33.0778 18.4012 33.3149 18.2244 33.4953C18.0478 33.6758 17.8126 33.7769 17.5626 33.7794L11.7711 33.8417C11.5209 33.8386 11.2841 33.7482 11.1037 33.5718C10.9231 33.3953 10.822 33.16 10.8196 32.91L10.7816 29.4194C10.7792 29.1694 10.8747 28.9323 11.0515 28.7515C11.228 28.5709 11.4633 28.4702 11.7133 28.4673L17.5053 28.4053H17.5151C18.0303 28.4053 18.4518 28.8211 18.4571 29.337L18.4568 29.337ZM7.19562 12.9781C7.25968 12.9145 7.34026 12.8853 7.43379 12.8821C8.16168 12.9062 8.73625 13.519 8.71413 14.2469L8.64382 16.4136C8.6436 16.419 8.64471 16.4241 8.64471 16.4297C8.64471 16.446 8.64627 16.4627 8.64784 16.4792C8.6494 16.496 8.65141 16.5125 8.65498 16.5286C8.65632 16.5339 8.65587 16.5391 8.65721 16.5446L9.04091 18.0973C8.95319 18.1562 8.86949 18.223 8.79203 18.3005C8.14317 18.9498 8.14317 20.006 8.79203 20.6549L11.5987 23.4616C11.6929 23.5551 11.8159 23.6018 11.9387 23.6018C12.0617 23.6018 12.1844 23.5551 12.2782 23.4614C12.4657 23.2739 12.4657 22.9698 12.2782 22.7826L9.47149 19.9759C9.19672 19.7011 9.19694 19.2535 9.47149 18.9788C9.74627 18.7042 10.1934 18.7042 10.4683 18.9788L12.9117 21.4237C12.9123 21.4243 12.9132 21.4246 12.9141 21.4252C12.957 21.4679 13.0085 21.5022 13.0661 21.5263C13.0684 21.5272 13.0704 21.5286 13.0722 21.5295C13.103 21.542 13.1351 21.5511 13.169 21.5574L14.1306 21.7237C14.459 21.7792 14.7697 21.9397 15.0052 22.1754L16.6139 23.7841C16.9126 24.0828 17.082 24.4781 17.0916 24.8984L17.1485 27.4496L12.0208 27.5047L12.0061 27.4036C11.8871 26.6051 11.5228 25.8824 10.9532 25.3127L8.23598 22.5955C7.69714 22.0562 7.3565 21.3453 7.27793 20.5924L6.99578 17.9153C6.99556 17.9037 6.99333 17.8926 6.99221 17.8812L6.95985 17.5734L7.09958 13.1986C7.10337 13.0919 7.15382 13.02 7.19556 12.978L7.19562 12.9781Z" fill="white"/>
<path d="M12.7522 29.8566C12.7522 30.3102 12.3844 30.678 11.9308 30.678C11.477 30.678 11.1094 30.3102 11.1094 29.8566C11.1094 29.4028 11.477 29.0352 11.9308 29.0352C12.3844 29.0352 12.7522 29.4028 12.7522 29.8566Z" fill="white"/>
<path d="M19.9854 16.3496C21.5733 16.3496 22.8652 15.0574 22.8652 13.4697C22.8652 11.8818 21.5731 10.5898 19.9854 10.5898C18.3974 10.5898 17.1055 11.882 17.1055 13.4697C17.1055 15.0574 18.3974 16.3496 19.9854 16.3496ZM19.9854 11.5496C21.0443 11.5496 21.9055 12.4108 21.9055 13.4697C21.9055 14.5287 21.0443 15.3898 19.9854 15.3898C18.9264 15.3898 18.0652 14.5287 18.0652 13.4697C18.0652 12.4108 18.9264 11.5496 19.9854 11.5496Z" fill="white"/>
<path d="M19.2257 20.9371H20.7422C21.3364 20.9371 21.8199 20.4536 21.8199 19.8595V18.8467C22.5172 18.6097 23.1652 18.2351 23.7233 17.7476L24.6003 18.2539C24.7663 18.3499 24.9507 18.3988 25.1376 18.3988C25.2311 18.3988 25.3255 18.3863 25.4181 18.3617C25.6963 18.2871 25.9286 18.1086 26.0721 17.8597L26.8306 16.5465C27.1275 16.0323 26.9507 15.3717 26.4364 15.0742L25.559 14.5677C25.6297 14.2081 25.6654 13.8398 25.6654 13.4689C25.6654 13.0977 25.63 12.7294 25.5592 12.3698L26.436 11.8633C26.9505 11.5664 27.1277 10.9059 26.8306 10.391L26.0722 9.07783C25.7753 8.56332 25.1148 8.38629 24.6001 8.68363L23.723 9.18989C23.1652 8.70216 22.5172 8.32806 21.8195 8.0908L21.8197 7.07743C21.8202 6.48343 21.3369 6 20.7427 6H19.2257C18.6315 6 18.1481 6.48348 18.1481 7.07743V8.09017C17.4498 8.32767 16.8018 8.70177 16.2441 9.18926L15.367 8.68278C14.8527 8.38635 14.1921 8.56269 13.8949 9.07742L13.1362 10.391C12.8394 10.9055 13.0161 11.5658 13.5309 11.8631L14.4079 12.3696C14.3371 12.7292 14.3014 13.0975 14.3014 13.4687C14.3014 13.8397 14.3374 14.2076 14.4083 14.5676L13.5309 15.074C13.0164 15.3709 12.8394 16.0314 13.1367 16.5461L13.8952 17.8593C14.0391 18.1086 14.2715 18.2872 14.5496 18.3617C14.6425 18.3867 14.7365 18.3988 14.8302 18.3988C15.0168 18.3988 15.2012 18.3499 15.3673 18.2539L16.2443 17.7475C16.8028 18.2352 17.4503 18.6095 18.1478 18.8465V19.8591C18.1483 20.4537 18.6315 20.9371 19.2257 20.9371ZM14.8875 17.4226C14.8313 17.455 14.7596 17.436 14.7266 17.3793L13.9681 16.0662C13.9356 16.0099 13.955 15.9378 14.011 15.9052L15.0907 15.2818C15.1438 15.251 15.1943 15.2168 15.2414 15.1816C15.2429 15.1802 15.2438 15.1791 15.2456 15.1778C15.255 15.1706 15.2624 15.1622 15.2708 15.1548C15.3586 15.0771 15.4135 14.974 15.4289 14.8646C15.4291 14.8622 15.4289 14.8595 15.4291 14.857C15.4327 14.8285 15.4342 14.8001 15.4327 14.7715C15.4325 14.7651 15.4304 14.7588 15.4298 14.7521C15.4275 14.7271 15.424 14.7019 15.4179 14.6773C15.4177 14.6764 15.4177 14.6751 15.4173 14.6742C15.3139 14.284 15.2615 13.8787 15.2615 13.4688C15.2615 13.0583 15.3139 12.6521 15.4173 12.2617C15.432 12.205 15.4356 12.1472 15.4298 12.0898C15.4157 11.9525 15.3429 11.828 15.2304 11.7481C15.1856 11.715 15.1389 11.6829 15.0907 11.6552L14.011 11.0318C13.955 10.9992 13.9356 10.9271 13.9677 10.8711L14.7261 9.55793C14.7587 9.50235 14.8311 9.48271 14.8869 9.51463L15.9667 10.1383C16.0179 10.168 16.0717 10.1936 16.1246 10.2166C16.1351 10.2211 16.146 10.2238 16.1569 10.2276C16.2063 10.2452 16.2565 10.2557 16.3067 10.2566C16.3096 10.2566 16.3125 10.2582 16.3156 10.2582C16.3188 10.2582 16.3217 10.2566 16.325 10.2561C16.3826 10.2553 16.4388 10.2443 16.4918 10.2238C16.494 10.2229 16.4962 10.2222 16.4984 10.2213C16.5563 10.1977 16.6092 10.1628 16.6543 10.1182C17.2351 9.54031 17.9576 9.12311 18.7437 8.91106C18.7553 8.90793 18.7654 8.90235 18.777 8.89856C18.7859 8.89543 18.7942 8.89208 18.8033 8.88873C18.85 8.86931 18.8924 8.84387 18.9295 8.81217C18.9348 8.80726 18.9397 8.80235 18.9451 8.79744C18.9826 8.76262 19.0149 8.72289 19.0395 8.67847C19.0424 8.67334 19.044 8.6682 19.0466 8.66307C19.0712 8.61441 19.0886 8.56218 19.0955 8.50749C19.0955 8.50659 19.0962 8.50592 19.0962 8.50503C19.1033 8.44611 19.1078 8.38494 19.1078 8.324L19.1076 7.07737C19.1082 7.01264 19.1611 6.95996 19.2257 6.95996H20.7422C20.8071 6.95996 20.86 7.01286 20.86 7.07737V8.324C20.86 8.38449 20.8645 8.44521 20.8712 8.50347C20.8714 8.50503 20.8719 8.50637 20.8721 8.50771C20.8745 8.5278 20.8801 8.54744 20.8852 8.56731C20.8882 8.57847 20.8897 8.59074 20.8935 8.60146C20.898 8.61485 20.9047 8.62713 20.9105 8.63985C20.9176 8.65592 20.9232 8.67222 20.9319 8.68717C20.935 8.69298 20.9395 8.69766 20.9431 8.70324C20.9558 8.72378 20.9694 8.74387 20.985 8.76217C20.9911 8.76931 20.9984 8.77467 21.0049 8.78114C21.0198 8.79654 21.0346 8.81217 21.0513 8.82534C21.0602 8.83248 21.0707 8.83784 21.0803 8.84431C21.0966 8.85525 21.1123 8.86663 21.1299 8.87556C21.1388 8.88003 21.1489 8.88293 21.1578 8.88672C21.1779 8.89543 21.1978 8.90391 21.2192 8.91016C21.2205 8.91038 21.2216 8.9115 21.223 8.91172C22.0091 9.12333 22.7317 9.54075 23.3129 10.1189C23.3578 10.1631 23.4105 10.1977 23.4678 10.2213C23.4707 10.2227 23.4732 10.2236 23.4761 10.2244C23.5285 10.245 23.5848 10.2555 23.6419 10.2568C23.6451 10.2568 23.6484 10.2588 23.6515 10.2588C23.6544 10.2588 23.6573 10.2573 23.6602 10.2573C23.7105 10.2564 23.7607 10.2457 23.8102 10.2282C23.8212 10.2244 23.8319 10.2218 23.8426 10.2173C23.8955 10.1945 23.9491 10.1686 24.0006 10.139L25.0803 9.51553C25.1364 9.48249 25.2082 9.50236 25.2413 9.55839L25.9997 10.8715C26.0323 10.9278 26.0129 10.9999 25.9564 11.0325L24.8781 11.6552C24.831 11.682 24.7857 11.7126 24.7428 11.7436C24.6323 11.8195 24.5549 11.9405 24.5375 12.0809C24.5288 12.1501 24.5355 12.2188 24.5553 12.2829C24.6551 12.6666 24.7058 13.0657 24.7058 13.4695C24.7058 13.8798 24.6533 14.2851 24.55 14.6749C24.5497 14.6758 24.5497 14.6771 24.5493 14.678C24.5428 14.7026 24.5397 14.7276 24.5375 14.7528C24.5368 14.7593 24.535 14.7655 24.5346 14.7722C24.533 14.8008 24.5346 14.8296 24.5381 14.8577C24.5384 14.8602 24.5381 14.8628 24.5384 14.8653C24.5538 14.9751 24.6087 15.0778 24.6964 15.1555C24.7051 15.1631 24.7125 15.1715 24.7216 15.1785C24.7232 15.1798 24.7241 15.1809 24.7259 15.1823C24.773 15.2175 24.8238 15.2517 24.8765 15.2825L25.9562 15.9054C26.0125 15.938 26.0317 16.0101 25.9995 16.0662L25.2409 17.3798C25.2208 17.4146 25.1909 17.4286 25.1694 17.4345C25.148 17.4403 25.115 17.4427 25.0801 17.4226L24.0011 16.7999C23.9478 16.7688 23.892 16.7416 23.8366 16.7182C23.8353 16.7175 23.8341 16.7175 23.833 16.7173C23.8315 16.7166 23.8295 16.7164 23.8279 16.7157C23.6455 16.6427 23.4442 16.6889 23.3118 16.8197C23.3118 16.8197 23.3116 16.8197 23.3116 16.82C22.7293 17.3979 22.0069 17.8148 21.2225 18.026C21.221 18.0262 21.2196 18.0273 21.2183 18.0275C21.2051 18.0313 21.1931 18.0371 21.1806 18.042C21.0417 18.0938 20.9379 18.203 20.8928 18.336C20.8908 18.3414 20.8904 18.3476 20.8886 18.3532C20.8812 18.3782 20.8747 18.4032 20.8716 18.4291C20.8716 18.43 20.871 18.4311 20.871 18.432C20.8638 18.4909 20.8593 18.5521 20.8593 18.613V19.8596C20.8593 19.9246 20.8064 19.9775 20.7415 19.9775L19.2257 19.9777C19.1607 19.9777 19.1078 19.9248 19.1078 19.8599V18.6132C19.1078 18.5527 19.1033 18.4923 19.0966 18.434C19.0964 18.4324 19.0958 18.4309 19.0958 18.4289C19.0935 18.411 19.0884 18.394 19.0841 18.3764C19.081 18.3626 19.0788 18.3485 19.0743 18.3353C19.0708 18.3251 19.0654 18.3159 19.0612 18.3059C19.0167 18.1987 18.9366 18.1117 18.8355 18.0603C18.8341 18.0597 18.833 18.0594 18.8317 18.0588C18.8045 18.0454 18.7761 18.0344 18.7462 18.0262C18.7455 18.0262 18.7453 18.0255 18.7446 18.0255C17.9607 17.8144 17.2382 17.3974 16.656 16.8195C16.6558 16.8193 16.6558 16.8193 16.6553 16.8193C16.5232 16.6892 16.3223 16.6434 16.1404 16.7153C16.1382 16.7162 16.1359 16.7166 16.1337 16.7173C16.1321 16.718 16.1306 16.7182 16.1288 16.7188C16.0743 16.7423 16.019 16.7691 15.9669 16.7992L14.8875 17.4226Z" fill="white"/>
</svg>