<svg width="60" height="60" viewBox="0 0 29 49" fill="none" xmlns="http://www.w3.org/2000/svg">
                                <path d="M11.8581 31.293H17.1262C17.5793 31.2926 18.0138 31.1124 18.3345 30.7917C18.6548 30.4714 18.8351 30.0369 18.8354 29.5835V25.6029C18.8351 25.1495 18.6548 24.715 18.3345 24.3947C18.0139 24.074 17.5793 23.8938 17.1262 23.8934H13.3039V22.8767C13.3042 22.3033 13.7692 21.8382 14.343 21.8378H14.758H14.7576C15.3315 21.8386 15.7962 22.3032 15.7968 22.8767H16.914C16.9132 22.3051 16.6858 21.757 16.2817 21.3529C15.8773 20.9489 15.3292 20.7214 14.7576 20.7207H14.343C13.7713 20.7214 13.2229 20.9485 12.8188 21.3529C12.4148 21.757 12.1873 22.3051 12.1866 22.8767V23.8934H11.858C11.4049 23.8938 10.9704 24.074 10.6497 24.3947C10.3294 24.715 10.1492 25.1495 10.1484 25.6029V29.5838V29.5835C10.1492 30.0369 10.3294 30.4714 10.6497 30.7917C10.9704 31.1124 11.4049 31.2926 11.858 31.293L11.8581 31.293ZM11.3673 25.603C11.3677 25.332 11.5871 25.1126 11.8581 25.1122H17.1262C17.3968 25.1126 17.6166 25.332 17.6166 25.603V29.5839V29.5835C17.6166 29.8545 17.3968 30.0739 17.1262 30.0743H11.8581C11.5871 30.0739 11.3677 29.8545 11.3673 29.5835V25.603Z" fill="white"></path>
                                <path d="M14.4865 28.5551C14.8761 28.5551 15.2272 28.3204 15.3763 27.9606C15.5253 27.6008 15.443 27.1865 15.1677 26.9108C14.892 26.6355 14.4778 26.5532 14.1179 26.7023C13.7581 26.8514 13.5234 27.2025 13.5234 27.592C13.5234 28.1238 13.9544 28.5551 14.4865 28.5551Z" fill="white"></path>
                                <path d="M13.739 9.92071H14.8561V9.03784C15.4234 8.9653 15.9143 8.60802 16.1569 8.09042C16.3999 7.57282 16.3611 6.96667 16.0546 6.48427C15.7477 6.00149 15.2156 5.70949 14.6436 5.70986H14.1928C14.0774 5.71023 13.9664 5.66489 13.8848 5.58363C13.8028 5.50202 13.7568 5.39139 13.7568 5.27604C13.7568 5.1607 13.8028 5.05007 13.8848 4.96845C13.9664 4.8872 14.0774 4.84186 14.1928 4.84222H16.2476V3.72506H14.9752V2.85742H13.858V3.76242C13.356 3.87341 12.9418 4.22562 12.7517 4.70334C12.5616 5.18104 12.6208 5.72189 12.9095 6.14699C13.1979 6.57246 13.6788 6.82709 14.1928 6.82709H14.6437C14.9498 6.82709 15.1979 7.0752 15.1979 7.38134C15.1979 7.68748 14.9498 7.93595 14.6437 7.93595H12.5859V9.05311H13.739L13.739 9.92071Z" fill="white"></path>
                                <path d="M12.1641 44.9844H16.8117V46.2031H12.1641V44.9844Z" fill="white"></path>
                                <path d="M24.4539 1.24246H18.1531C17.0544 0.484004 15.7512 0.078125 14.4164 0.078125C13.0816 0.078125 11.7783 0.484013 10.6796 1.24246H4.52421C3.48244 1.24355 2.48348 1.65778 1.74648 2.39445C1.00979 3.13114 0.595236 4.13004 0.59375 5.1718V45.0428C0.595201 46.0846 1.0098 47.0835 1.74648 47.8202C2.48353 48.5569 3.48244 48.9711 4.52421 48.9721H24.4541C25.4959 48.9707 26.4945 48.5565 27.2311 47.8198C27.9678 47.0831 28.3821 46.0845 28.3835 45.0428V5.1718C28.382 4.13004 27.9678 3.13145 27.2311 2.39482C26.4944 1.65818 25.4958 1.24358 24.4541 1.24246H24.4539ZM14.417 1.29687H14.4167C15.8432 1.29687 17.2115 1.86345 18.2206 2.87256C19.2293 3.88127 19.7959 5.24952 19.7959 6.67609C19.7959 8.10265 19.2293 9.4709 18.2202 10.4796C17.2115 11.4887 15.8432 12.0553 14.4167 12.0553C12.9901 12.0553 11.6218 11.4887 10.6131 10.4796C9.60406 9.4709 9.03745 8.10265 9.03745 6.67609C9.0389 5.24989 9.60619 3.88276 10.6149 2.87405C11.6232 1.86571 12.9904 1.29836 14.4166 1.29696L14.417 1.29687ZM20.4843 9.26698H20.4839C20.7132 8.73161 20.8699 8.16793 20.9497 7.59119H24.4786C24.6843 7.59119 24.8511 7.75805 24.8515 7.96371V42.2512C24.8508 42.4569 24.6843 42.6234 24.4786 42.6241H4.50041C4.29475 42.6237 4.12789 42.4572 4.12789 42.2512V7.96371C4.12753 7.86505 4.1667 7.77002 4.23671 7.70001C4.30672 7.63 4.40175 7.59083 4.50041 7.59119H7.88393C7.96373 8.16792 8.12043 8.73157 8.34967 9.26698C7.47877 11.3051 7.68951 13.6447 8.91081 15.4945C10.1321 17.3443 12.2004 18.4572 14.417 18.4572C16.6335 18.4572 18.7021 17.3444 19.9235 15.4945C21.1447 13.6446 21.3555 11.3051 20.4846 9.26698H20.4843ZM9.03745 11.8546C9.03745 11.4564 9.08206 11.0595 9.17056 10.6711C10.4162 12.3109 12.3571 13.274 14.4166 13.274C16.4762 13.274 18.4171 12.3109 19.6631 10.6711C20 12.164 19.6852 13.7296 18.7972 14.9758C17.9093 16.2225 16.5327 17.0318 15.0118 17.2012C13.4905 17.3706 11.9696 16.8841 10.8293 15.8635C9.68887 14.8431 9.03707 13.385 9.03745 11.8546ZM27.1645 45.0427C27.1637 45.7613 26.8779 46.4504 26.3697 46.9586C25.8615 47.4668 25.1723 47.7526 24.4538 47.7534H4.52387C3.80495 47.7526 3.11579 47.4668 2.60758 46.9586C2.09904 46.4505 1.81321 45.7612 1.81213 45.0427V5.17171C1.81322 4.45279 2.09904 3.76399 2.60758 3.25578C3.11576 2.7476 3.80497 2.46178 4.52387 2.46106H9.34446C8.42423 3.56374 7.89069 4.93737 7.82578 6.37229H4.49964C4.07779 6.37266 3.67336 6.5406 3.37486 6.83875C3.0767 7.13727 2.90876 7.54171 2.9084 7.96353V42.251C2.90876 42.6729 3.0767 43.0777 3.37486 43.3758C3.67338 43.6743 4.07782 43.8419 4.49964 43.8426H24.4778C24.8997 43.8419 25.3041 43.6743 25.6026 43.3758C25.9011 43.0777 26.0687 42.6729 26.0695 42.251V7.96353C26.0687 7.54168 25.9011 7.13725 25.6026 6.83875C25.3041 6.5406 24.8997 6.37266 24.4778 6.37229H21.0062C20.9413 4.93737 20.4081 3.56374 19.4878 2.46106H24.4535C25.1721 2.46178 25.8612 2.7476 26.3694 3.25578C26.8776 3.76396 27.1634 4.45318 27.1642 5.17171L27.1645 45.0427Z" fill="white"></path>
                                <path d="M5.89062 36.1583V38.7227C5.89099 39.1478 6.06002 39.5555 6.36071 39.8562C6.66105 40.1566 7.06875 40.326 7.49385 40.3263H21.4893C21.9144 40.326 22.3217 40.1566 22.6224 39.8562C22.9231 39.5555 23.0921 39.1478 23.0929 38.7227V36.1583C23.0921 35.7332 22.9231 35.3255 22.6224 35.0248C22.3217 34.7244 21.9144 34.555 21.4893 34.5547H7.49385C7.06874 34.5551 6.66103 34.7244 6.36071 35.0248C6.06002 35.3255 5.89099 35.7332 5.89062 36.1583ZM21.8741 36.1583V38.7227C21.8738 38.9353 21.7015 39.1072 21.4893 39.1076H7.49385C7.28165 39.1072 7.10937 38.9353 7.10937 38.7227V36.1583C7.10937 35.9457 7.28166 35.7738 7.49385 35.7734H21.4893C21.7015 35.7738 21.8738 35.9457 21.8741 36.1583Z" fill="white"></path>
                                <path d="M9.46361 38.279C9.80275 38.279 10.1089 38.0748 10.2388 37.7614C10.3686 37.448 10.2968 37.0871 10.0567 36.8474C9.81691 36.6072 9.456 36.5358 9.1426 36.6653C8.82921 36.7951 8.625 37.1013 8.625 37.4404C8.625 37.6628 8.71314 37.876 8.87056 38.0335C9.02798 38.1909 9.24126 38.279 9.46361 38.279Z" fill="white"></path>
                                <path d="M12.8155 38.279C13.1547 38.279 13.4608 38.0748 13.5907 37.7614C13.7202 37.448 13.6487 37.0871 13.4086 36.8474C13.1688 36.6072 12.8079 36.5358 12.4945 36.6653C12.1811 36.7951 11.9766 37.1013 11.9766 37.4404C11.9766 37.6628 12.0651 37.8764 12.2225 38.0335C12.3799 38.1909 12.5932 38.2794 12.8155 38.279Z" fill="white"></path>
                                <path d="M17.0057 37.4405C17.0057 37.9037 16.6303 38.2792 16.1671 38.2792C15.7039 38.2792 15.3281 37.9037 15.3281 37.4405C15.3281 36.9774 15.7039 36.6016 16.1671 36.6016C16.6303 36.6016 17.0057 36.9773 17.0057 37.4405Z" fill="white"></path>
                                <path d="M19.5187 38.279C19.8578 38.279 20.1636 38.0748 20.2934 37.7614C20.4233 37.448 20.3515 37.0871 20.1117 36.8474C19.872 36.6072 19.511 36.5358 19.1977 36.6653C18.8843 36.7951 18.6797 37.1013 18.6797 37.4404C18.6797 37.6628 18.7682 37.876 18.9256 38.0335C19.0827 38.1909 19.296 38.279 19.5187 38.279Z" fill="white"></path>
                            </svg>