<svg width="60" height="60" viewBox="0 0 53 49" fill="none" xmlns="http://www.w3.org/2000/svg">
                                <path d="M26.7438 7.28125C20.7799 7.28125 15.9297 12.2861 15.9297 18.4455C15.9297 24.6041 20.7804 29.6097 26.7438 29.6097C32.7078 29.6097 37.558 24.6049 37.558 18.4455C37.5583 12.2868 32.7077 7.28125 26.7438 7.28125ZM35.8195 17.6488L31.8462 17.6408C31.7323 14.147 30.9119 11.222 29.6525 9.49144C33.0243 10.6692 35.5108 13.838 35.8195 17.6488ZM26.89 27.3988C25.4355 27.3988 23.8188 24.0026 23.64 19.3223L30.14 19.3386C29.9615 24.0022 28.3445 27.3988 26.89 27.3988ZM23.64 17.6163C23.8105 12.9117 25.4355 9.49125 26.89 9.49125C28.3525 9.49125 29.9775 12.9201 30.14 17.6326L23.64 17.6163ZM24.2334 9.36144C22.9254 11.0677 22.056 14.0413 21.9421 17.6163L17.6764 17.6083C18.0094 13.6676 20.6826 10.4176 24.2333 9.36144L24.2334 9.36144ZM17.6765 19.3064L21.9422 19.3144C22.064 22.8731 22.9335 25.8308 24.2335 27.5287C20.6828 26.4728 18.0178 23.2308 17.6766 19.3064L17.6765 19.3064ZM29.6523 27.3991C30.8953 25.6849 31.7162 22.7922 31.846 19.339L35.8109 19.347C35.4616 23.1088 32.9835 26.2289 29.6523 27.3991Z" fill="white"></path>
                                <path d="M47.4068 0.984375H5.54675C2.75156 0.984375 0.476562 3.25938 0.476562 6.05456V31.2179C0.476562 34.0131 2.75156 36.2881 5.54675 36.2881H11.161V47.2165C11.161 47.5494 11.3561 47.8585 11.6648 47.9963C11.7787 48.0449 11.8922 48.0696 12.0061 48.0696C12.2172 48.0696 12.4204 47.9963 12.5749 47.8501L25.2982 36.2885H47.3982C50.1934 36.2885 52.4684 34.0135 52.4684 31.2183V6.05495C52.4763 3.25976 50.2013 0.984761 47.4062 0.984761L47.4068 0.984375ZM50.7786 31.2177C50.7786 33.0785 49.2675 34.5896 47.4068 34.5896H24.9817C24.7706 34.5896 24.5675 34.6708 24.413 34.809L12.8597 45.2898V35.4339C12.8597 34.9628 12.4778 34.5808 12.0066 34.5808H5.54726C3.68649 34.5808 2.17543 33.0698 2.17543 31.209V6.05399C2.17543 4.19322 3.68649 2.68216 5.54726 2.68216H47.4073C49.268 2.68216 50.7791 4.19322 50.7791 6.05399C50.7787 6.05399 50.7787 31.2173 50.7787 31.2173L50.7786 31.2177Z" fill="white"></path>
                            </svg>