<svg width="38" height="38" viewBox="0 0 32 32" fill="none"
                                xmlns="http://www.w3.org/2000/svg">
                                <path
                                    d="M21.0036 25.6152C20.4576 25.6152 19.9341 25.832 19.5483 26.2182C19.1621 26.6041 18.9453 27.1278 18.9453 27.6735C18.9453 28.2196 19.1621 28.743 19.5483 29.1292C19.9341 29.5151 20.4576 29.7319 21.0036 29.7319C21.5497 29.7319 22.0731 29.5151 22.459 29.1292C22.8451 28.743 23.0619 28.2196 23.0619 27.6735C23.0555 27.1297 22.8365 26.6099 22.452 26.2255C22.0672 25.8407 21.5474 25.6219 21.0036 25.6152ZM21.0036 28.9487C20.6655 28.9487 20.3412 28.8142 20.1021 28.5753C19.863 28.3362 19.7285 28.0117 19.7285 27.6735C19.7285 27.3354 19.863 27.0112 20.1021 26.772C20.3412 26.5329 20.6655 26.3987 21.0036 26.3987C21.3418 26.3987 21.666 26.5329 21.9051 26.772C22.1442 27.0112 22.2787 27.3354 22.2787 27.6735C22.2787 28.0117 22.1442 28.3362 21.9051 28.5753C21.666 28.8142 21.3418 28.9487 21.0036 28.9487Z"
                                    fill="black" />
                                <path
                                    d="M2.66908 21.423H10.5862V29.3401C10.5862 29.8926 10.8055 30.4224 11.1964 30.8131C11.5871 31.204 12.1169 31.4233 12.6694 31.4233H29.3365C29.889 31.4233 30.4188 31.204 30.8094 30.8131C31.2003 30.4224 31.4197 29.8926 31.4197 29.3401V2.67299C31.4197 2.12053 31.2003 1.5907 30.8094 1.20006C30.4188 0.809151 29.8889 0.589844 29.3365 0.589844H12.6694C12.1169 0.589844 11.5871 0.809151 11.1964 1.20006C10.8055 1.59069 10.5862 2.12056 10.5862 2.67299V5.58956L2.66908 5.58984C2.11662 5.58984 1.58679 5.80914 1.19615 6.20005C0.805245 6.59068 0.585938 7.12055 0.585938 7.67298V19.3401C0.585938 19.8926 0.805245 20.4224 1.19615 20.813C1.58678 21.204 2.11665 21.4233 2.66908 21.4233V21.423ZM1.41908 19.3396V9.33956C1.41908 9.00781 1.55078 8.69 1.78515 8.45563C2.01981 8.22126 2.33761 8.08956 2.66908 8.08956H22.6691C23.0008 8.08956 23.3186 8.22126 23.553 8.45563C23.7874 8.69 23.9191 9.00781 23.9191 9.33956V10.5896H19.3359C18.7832 10.5896 18.2534 10.8089 17.8627 11.1998C17.4721 11.5904 17.2525 12.1203 17.2525 12.6727V16.0061C17.2525 16.5586 17.4721 17.0884 17.8627 17.4793C18.2534 17.87 18.7832 18.0896 19.3359 18.0896H23.9191V19.3396C23.9191 19.671 23.7874 19.9888 23.553 20.2235C23.3186 20.4579 23.0008 20.5896 22.6691 20.5896H2.66908C2.33761 20.5896 2.01981 20.4579 1.78515 20.2235C1.55078 19.9888 1.41908 19.671 1.41908 19.3396ZM13.0855 21.423H22.6691C23.2218 21.423 23.7517 21.2037 24.1423 20.8128C24.5329 20.4221 24.7525 19.8923 24.7525 19.3398V18.048C25.2232 17.952 25.6459 17.6964 25.9498 17.3242C26.2534 16.9523 26.4194 16.4866 26.4191 16.0064V12.673C26.4194 12.1928 26.2534 11.7271 25.9498 11.3552C25.6459 10.9833 25.2232 10.7274 24.7525 10.6314V7.67299C24.7525 7.12053 24.5329 6.5907 24.1423 6.20006C23.7517 5.80915 23.2218 5.58984 22.6691 5.58984H13.0862V3.50642C13.0862 3.27622 13.2726 3.08984 13.5028 3.08984H28.5028C28.6133 3.08984 28.7193 3.13365 28.7974 3.21177C28.8756 3.2899 28.9194 3.39592 28.9194 3.50642V23.5064C28.9194 23.6169 28.8756 23.7229 28.7974 23.8011C28.7193 23.8792 28.6133 23.923 28.5028 23.923H13.5028C13.2726 23.923 13.0862 23.7366 13.0862 23.5064L13.0855 21.423ZM24.3355 11.423C24.667 11.423 24.9848 11.5547 25.2194 11.7891C25.4538 12.0237 25.5855 12.3415 25.5855 12.673V16.0064C25.5855 16.3379 25.4538 16.656 25.2194 16.8903C24.9848 17.1247 24.667 17.2564 24.3355 17.2564H19.3355C19.0038 17.2564 18.686 17.1247 18.4516 16.8903C18.2172 16.656 18.0855 16.3379 18.0855 16.0064V12.673C18.0855 12.3415 18.2172 12.0237 18.4516 11.7891C18.686 11.5547 19.0038 11.423 19.3355 11.423H24.3355ZM11.4184 2.67299C11.4184 2.34152 11.5501 2.02372 11.7844 1.78906C12.0191 1.55469 12.3369 1.42299 12.6684 1.42299H29.3355C29.667 1.42299 29.9848 1.55469 30.2194 1.78906C30.4538 2.02372 30.5855 2.34152 30.5855 2.67299V29.3401C30.5855 29.6716 30.4538 29.9894 30.2194 30.2241C29.9848 30.4584 29.667 30.5901 29.3355 30.5901H12.6684C12.3369 30.5901 12.0191 30.4584 11.7844 30.2241C11.5501 29.9894 11.4184 29.6716 11.4184 29.3401V21.423H12.2518V23.5064C12.2518 23.8379 12.3835 24.156 12.6179 24.3903C12.8522 24.6247 13.1703 24.7564 13.5018 24.7564H28.5018C28.8333 24.7564 29.1514 24.6247 29.3857 24.3903C29.6201 24.156 29.7518 23.8379 29.7518 23.5064V3.50642C29.7518 3.17494 29.6201 2.85686 29.3857 2.62249C29.1514 2.38812 28.8333 2.25642 28.5018 2.25642H13.5018C13.1703 2.25642 12.8522 2.38812 12.6179 2.62249C12.3835 2.85686 12.2518 3.17494 12.2518 3.50642V5.58984H11.4184V2.67299ZM2.66837 6.42299H22.6684C23.0001 6.42299 23.3179 6.55469 23.5523 6.78906C23.7867 7.02372 23.9184 7.34152 23.9184 7.67299C23.5579 7.40262 23.1192 7.25642 22.6684 7.25642H2.66837C2.21775 7.25642 1.77915 7.40262 1.41837 7.67299C1.41837 7.34152 1.55007 7.02372 1.78444 6.78906C2.0191 6.55469 2.3369 6.42299 2.66837 6.42299Z"
                                    fill="black" />
                                <path
                                    d="M21.0053 16.4224C21.5578 16.4224 22.0876 16.2031 22.4785 15.8122C22.8691 15.4216 23.0887 14.8917 23.0887 14.3393C23.0887 13.7866 22.8691 13.2567 22.4785 12.8661C22.0876 12.4754 21.5577 12.2559 21.0053 12.2559C20.4529 12.2559 19.923 12.4754 19.5321 12.8661C19.1415 13.2567 18.9219 13.7866 18.9219 14.3393C18.9219 14.8917 19.1415 15.4216 19.5321 15.8122C19.923 16.2031 20.4529 16.4224 21.0053 16.4224ZM21.0053 13.0893C21.3368 13.0893 21.6549 13.221 21.8892 13.4554C22.1236 13.6897 22.2553 14.0075 22.2553 14.3393C22.2553 14.6708 22.1236 14.9886 21.8892 15.2232C21.6549 15.4576 21.3368 15.5893 21.0053 15.5893C20.6738 15.5893 20.3557 15.4576 20.1214 15.2232C19.887 14.9886 19.7553 14.6708 19.7553 14.3393C19.7553 14.0075 19.887 13.6897 20.1214 13.4554C20.3557 13.221 20.6738 13.0893 21.0053 13.0893Z"
                                    fill="black" />
                                <path
                                    d="M4.33872 11.423H7.67215H7.67187C7.90206 11.423 8.08872 11.2366 8.08872 11.0064C8.08872 10.7762 7.90205 10.5898 7.67187 10.5898H4.33872C4.10853 10.5898 3.92188 10.7762 3.92188 11.0064C3.92188 11.2366 4.10853 11.423 4.33872 11.423Z"
                                    fill="black" />
                                <path
                                    d="M4.33872 14.7572H11.0053C11.2355 14.7572 11.4219 14.5706 11.4219 14.3407C11.4219 14.1105 11.2355 13.9238 11.0053 13.9238H4.33872C4.10853 13.9238 3.92188 14.1105 3.92188 14.3407C3.92188 14.5706 4.10854 14.7572 4.33872 14.7572Z"
                                    fill="black" />
                                <path
                                    d="M7.67187 17.2559H4.33873C4.10853 17.2559 3.92188 17.4425 3.92188 17.6724C3.92188 17.9026 4.10854 18.0893 4.33873 18.0893H7.67215H7.67188C7.90207 18.0893 8.08873 17.9026 8.08873 17.6724C8.08873 17.4425 7.90205 17.2559 7.67187 17.2559Z"
                                    fill="black" />
</svg>