<svg width="38" height="38" viewBox="0 0 38 34" fill="none"
                                xmlns="http://www.w3.org/2000/svg">
                                <path
                                    d="M37.1415 0.839844H0.891529C0.546386 0.839844 0.266529 1.11942 0.266529 1.46484C0.263739 4.50584 0.268482 24.0356 0.266529 26.5613C0.266529 26.9067 0.546386 27.1863 0.891529 27.1863H13.8544L11.646 31.9458H8.39124C7.5771 31.9575 7.56367 33.1816 8.39124 33.1958H12.045H29.6414C30.4555 33.1843 30.469 31.96 29.6414 31.9458H26.3867L24.1782 27.1863H37.1411C37.4862 27.1863 37.7661 26.9067 37.7661 26.5613C37.7647 24.1283 37.7669 4.40556 37.7661 1.46484C37.7661 1.11942 37.4862 0.839844 37.1411 0.839844H37.1415ZM36.5165 2.08984V21.7534H1.51653V2.08984H36.5165ZM25.0087 31.9456H13.0244L15.2325 27.1861H22.8004L25.0087 31.9456ZM36.5165 25.9361H1.51653V23.0033H36.5165V25.9361Z"
                                    fill="black" />
                                <path
                                    d="M12.9724 20.0701H27.5724C28.5489 20.0701 29.3436 19.2755 29.3436 18.2989C29.3438 15.6868 29.3436 12.0621 29.3436 9.44534C29.3436 8.46877 28.5489 7.67412 27.5724 7.67412H26.1262V5.58427C26.1262 4.6077 25.3316 3.81305 24.355 3.81305H12.6314C11.2885 3.78348 10.0996 4.9467 10.0921 6.28791C10.0446 6.3691 10.0921 17.0843 10.0756 17.1736C10.0759 18.7707 11.3752 20.0701 12.9721 20.0701H12.9724ZM24.4595 14.8003C24.3247 14.6572 24.2399 14.4878 24.2095 14.3104C24.207 14.2931 24.2056 14.2752 24.2042 14.2574C24.1392 13.6996 24.6163 13.1767 25.1793 13.1896H28.0937V15.1567H25.2821C24.9726 15.1567 24.673 15.0269 24.4595 14.8003ZM28.0937 9.44512V11.9396H25.1794C24.5811 11.9396 24.0198 12.1709 23.5981 12.5919C23.0094 13.1826 22.7918 14.1081 23.0753 14.8933C23.0767 14.8972 23.0775 14.9013 23.0789 14.9052C23.3914 15.811 24.2772 16.4493 25.282 16.4067H28.0937V18.2987C28.0937 18.5861 27.8599 18.8199 27.5725 18.8199L12.9717 18.8202C12.0638 18.8202 11.3252 18.0816 11.3252 17.1734L11.3255 8.56409C11.7346 8.81214 12.2337 8.94021 12.7402 8.92347H25.5009H27.572C27.8594 8.92374 28.0932 9.15756 28.0932 9.44495L28.0937 9.44512ZM12.6316 5.06284H24.3551C24.6425 5.06284 24.8763 5.29665 24.8763 5.58404V7.6739H12.7399C12.111 7.6739 11.5561 7.27017 11.3836 6.73219C11.3794 6.71768 11.3739 6.70373 11.3702 6.68894C11.1462 5.89594 11.8061 5.03965 12.6311 5.0628L12.6316 5.06284Z"
                                    fill="black" />
</svg>