<svg width="30" height="30" viewBox="0 0 43 40" fill="none" xmlns="http://www.w3.org/2000/svg">
                                <path fill-rule="evenodd" clip-rule="evenodd" d="M41.5842 36.0232C41.3424 36.0232 41.1467 35.8275 41.1467 35.5857V8.16066H38.2561C38.0143 8.16066 37.8186 7.96496 37.8186 7.72316C37.8186 7.48136 38.0143 7.28566 38.2561 7.28566H41.5842C41.826 7.28566 42.0217 7.48136 42.0217 7.72316V35.5862C42.0217 35.828 41.826 36.0237 41.5842 36.0237V36.0232ZM27.7792 8.16016H18.9929C18.7511 8.16016 18.5554 7.96446 18.5554 7.72266C18.5554 7.48086 18.7511 7.28516 18.9929 7.28516H27.7792C28.021 7.28516 28.2167 7.48086 28.2167 7.72266C28.2167 7.96446 28.021 8.16016 27.7792 8.16016ZM10.8332 8.16016H5.79688C5.55508 8.16016 5.35938 7.96446 5.35938 7.72266C5.35938 7.48086 5.55508 7.28516 5.79688 7.28516H10.8332C11.075 7.28516 11.2707 7.48086 11.2707 7.72266C11.2707 7.96446 11.0746 8.16016 10.8332 8.16016Z" fill="black"></path>
                                <path fill-rule="evenodd" clip-rule="evenodd" d="M0.460938 36.0227C0.219138 36.0227 0.0234375 35.827 0.0234375 35.5852V3.8562C0.0234375 2.1433 1.41684 0.75 3.12964 0.75H5.79844C6.04024 0.75 6.23594 0.9457 6.23594 1.1875V32.3175C6.23594 32.5593 6.04024 32.755 5.79844 32.755C5.55664 32.755 5.36094 32.5593 5.36094 32.3175V1.6245H3.12974C1.89964 1.6245 0.898537 2.6253 0.898537 3.8557V35.5857C0.898537 35.8271 0.702837 36.0232 0.461037 36.0232L0.460938 36.0227Z" fill="black"></path>
                                <path fill-rule="evenodd" clip-rule="evenodd" d="M38.3179 39.2911H3.72894C1.68594 39.2911 0.0234375 37.629 0.0234375 35.586C0.0234375 33.543 1.68554 31.8809 3.72894 31.8809H5.80354C6.04534 31.8809 6.24104 32.0766 6.24104 32.3184C6.24104 32.5602 6.04534 32.7559 5.80354 32.7559H3.72894C2.16844 32.7559 0.898438 34.0254 0.898438 35.586C0.898438 37.1465 2.16834 38.4161 3.72894 38.4161H38.3179C39.8784 38.4161 41.148 37.1466 41.148 35.586C41.148 35.3442 41.3437 35.1485 41.5855 35.1485C41.8273 35.1485 42.023 35.3442 42.023 35.586C42.023 37.629 40.3609 39.2911 38.3179 39.2911Z" fill="black"></path>
                                <path fill-rule="evenodd" clip-rule="evenodd" d="M29.7046 30.1902C29.5929 30.1902 29.4808 30.1476 29.3952 30.0621L18.5812 19.2481C18.4992 19.166 18.4531 19.0547 18.4531 18.9387C18.4531 18.8227 18.4992 18.7113 18.5812 18.6293L21.3609 15.8496C21.525 15.6855 21.8156 15.6855 21.9797 15.8496L32.7937 26.6636C32.9648 26.8343 32.9648 27.1117 32.7937 27.2824L30.014 30.0621C29.9284 30.1472 29.8163 30.1902 29.7046 30.1902ZM19.5086 18.9382L29.7046 29.1342L31.8655 26.9733L21.6695 16.7773L19.5082 18.9386L19.5086 18.9382Z" fill="black"></path>
                                <path fill-rule="evenodd" clip-rule="evenodd" d="M18.8845 19.3736C18.8509 19.3736 18.817 19.3697 18.7834 19.3619C18.6357 19.3268 18.5166 19.2174 18.4693 19.0733L17.0923 14.8928C17.0404 14.7353 17.0822 14.5623 17.1993 14.4455C17.3169 14.3287 17.4908 14.2885 17.6474 14.3412L21.804 15.742C21.9474 15.7904 22.0556 15.9092 22.0903 16.0568C22.1251 16.2041 22.0809 16.3592 21.9739 16.4658L19.1942 19.2455C19.111 19.3283 18.9993 19.3736 18.8848 19.3736L18.8845 19.3736ZM18.1967 15.4494L19.0775 18.124L20.856 16.3455L18.1966 15.4491L18.1967 15.4494Z" fill="black"></path>
                                <path fill-rule="evenodd" clip-rule="evenodd" d="M31.5306 32.0172C31.4146 32.0172 31.3033 31.9711 31.2212 31.8891L29.3939 30.0618C29.2229 29.8911 29.2229 29.6137 29.3939 29.443L32.1736 26.6633C32.3443 26.4922 32.6217 26.4926 32.7924 26.6633L34.6197 28.4906C34.7017 28.5727 34.7478 28.684 34.7478 28.8C34.7478 28.916 34.7017 29.0273 34.6197 29.1094L31.84 31.8891C31.758 31.9711 31.6466 32.0172 31.5306 32.0172ZM30.322 29.7524L31.5306 30.961L33.6915 28.7997L32.4829 27.5911L30.322 29.752V29.7524Z" fill="black"></path>
                                <path fill-rule="evenodd" clip-rule="evenodd" d="M27.8108 25.5198C27.6991 25.5198 27.587 25.4772 27.5014 25.3916L23.2455 21.1357C23.0744 20.965 23.0744 20.6877 23.2455 20.517C23.4162 20.3459 23.6936 20.3459 23.8643 20.517L28.1202 24.7729C28.2912 24.9436 28.2912 25.2209 28.1202 25.3916C28.0346 25.4772 27.9229 25.5198 27.8108 25.5198Z" fill="black"></path>
                                <path fill-rule="evenodd" clip-rule="evenodd" d="M29.098 33.3906H29.0956H9.76563C9.52383 33.3906 9.32812 33.1949 9.32812 32.9531V13.6231C9.32812 13.4462 9.43476 13.2868 9.59843 13.2188C9.76171 13.1513 9.94999 13.1884 10.0754 13.3138L29.3794 32.6178C29.4747 32.6978 29.5352 32.8181 29.5352 32.9525C29.5352 33.1943 29.3392 33.39 29.0977 33.39L29.098 33.3906ZM10.203 32.5156H28.039L10.203 14.6796V32.5156Z" fill="black"></path>
                                <path fill-rule="evenodd" clip-rule="evenodd" d="M21.7094 30.3321H21.707H12.8203C12.5785 30.3321 12.3828 30.1364 12.3828 29.8946V21.0079C12.3828 20.831 12.4895 20.6716 12.6527 20.6036C12.8164 20.536 13.0043 20.5731 13.1297 20.6985L21.9906 29.5594C22.0859 29.6395 22.1464 29.7598 22.1464 29.8942C22.1464 30.136 21.9504 30.3317 21.7089 30.3317L21.7094 30.3321ZM13.2582 29.4571H20.6512L13.2582 22.0641V29.4571Z" fill="black"></path>
                                <path fill-rule="evenodd" clip-rule="evenodd" d="M24.1016 33.3906C23.8598 33.3906 23.6641 33.1949 23.6641 32.9531V32.0176C23.6641 31.7758 23.8598 31.5801 24.1016 31.5801C24.3434 31.5801 24.5391 31.7758 24.5391 32.0176V32.9531C24.5391 33.1949 24.3434 33.3906 24.1016 33.3906Z" fill="black"></path>
                                <path fill-rule="evenodd" clip-rule="evenodd" d="M20.9844 33.3906C20.7426 33.3906 20.5469 33.1949 20.5469 32.9531V32.0176C20.5469 31.7758 20.7426 31.5801 20.9844 31.5801C21.2262 31.5801 21.4219 31.7758 21.4219 32.0176V32.9531C21.4219 33.1949 21.2262 33.3906 20.9844 33.3906Z" fill="black"></path>
                                <path fill-rule="evenodd" clip-rule="evenodd" d="M17.875 33.3906C17.6332 33.3906 17.4375 33.1949 17.4375 32.9531V32.0176C17.4375 31.7758 17.6332 31.5801 17.875 31.5801C18.1168 31.5801 18.3125 31.7758 18.3125 32.0176V32.9531C18.3125 33.1949 18.1168 33.3906 17.875 33.3906Z" fill="black"></path>
                                <path fill-rule="evenodd" clip-rule="evenodd" d="M14.7578 33.3906C14.516 33.3906 14.3203 33.1949 14.3203 32.9531V32.0176C14.3203 31.7758 14.516 31.5801 14.7578 31.5801C14.9996 31.5801 15.1953 31.7758 15.1953 32.0176V32.9531C15.1953 33.1949 14.9996 33.3906 14.7578 33.3906Z" fill="black"></path>
                                <path fill-rule="evenodd" clip-rule="evenodd" d="M38.2422 31.2914C38.0004 31.2914 37.8047 31.0957 37.8047 30.8539V23.2871C37.8047 23.0453 38.0004 22.8496 38.2422 22.8496C38.484 22.8496 38.6797 23.0453 38.6797 23.2871V30.8539C38.6797 31.0957 38.484 31.2914 38.2422 31.2914Z" fill="black"></path>
                                <path fill-rule="evenodd" clip-rule="evenodd" d="M32.2816 36.3125H9.76563C9.52383 36.3125 9.32812 36.1168 9.32812 35.875C9.32812 35.6332 9.52383 35.4375 9.76563 35.4375H32.2816C32.5234 35.4375 32.7191 35.6332 32.7191 35.875C32.7191 36.1168 32.5234 36.3125 32.2816 36.3125Z" fill="black"></path>
                                <path fill-rule="evenodd" clip-rule="evenodd" d="M35.0867 18.6664C34.8449 18.6664 34.6492 18.4707 34.6492 18.2289C34.6492 15.8406 35.7031 15.0879 36.6328 14.4238C37.5956 13.7359 38.5055 13.0863 38.5055 10.491C38.5055 7.46521 36.0442 5.00391 33.0184 5.00391C29.993 5.00391 27.5312 7.46521 27.5312 10.491C27.5312 13.0859 28.4406 13.7359 29.4039 14.4238C30.3336 15.0879 31.3875 15.8406 31.3875 18.2289C31.3875 18.4707 31.1918 18.6664 30.95 18.6664C30.7082 18.6664 30.5125 18.4707 30.5125 18.2289C30.5125 16.291 29.7989 15.7812 28.8953 15.1359C27.8457 14.3863 26.6562 13.5367 26.6562 10.491C26.6562 6.98321 29.5102 4.12891 33.0184 4.12891C36.5262 4.12891 39.3805 6.98281 39.3805 10.491C39.3805 13.5363 38.191 14.3863 37.1414 15.1359C36.2378 15.7812 35.5242 16.2914 35.5242 18.2289C35.5238 18.4707 35.3281 18.6664 35.0863 18.6664H35.0867Z" fill="black"></path>
                                <path fill-rule="evenodd" clip-rule="evenodd" d="M35.5473 20.1383H30.4922C30.2504 20.1383 30.0547 19.9422 30.0547 19.7008V18.2285C30.0547 17.9867 30.2504 17.791 30.4922 17.791H35.5473C35.7891 17.791 35.9848 17.9867 35.9848 18.2285V19.7008C35.9848 19.9422 35.7891 20.1383 35.5473 20.1383ZM30.9297 19.2633H35.1098V18.6657H30.9297V19.2633Z" fill="black"></path>
                                <path fill-rule="evenodd" clip-rule="evenodd" d="M34.809 21.611H31.2266C30.9848 21.611 30.7891 21.4153 30.7891 21.1735V19.7012C30.7891 19.4594 30.9848 19.2637 31.2266 19.2637C31.4684 19.2637 31.6641 19.4594 31.6641 19.7012V20.736H34.3715V19.7012C34.3715 19.4594 34.5672 19.2637 34.809 19.2637C35.0508 19.2637 35.2465 19.4594 35.2465 19.7012V21.1735C35.2465 21.4153 35.0504 21.611 34.809 21.611Z" fill="black"></path>
                                <path fill-rule="evenodd" clip-rule="evenodd" d="M33.0156 18.6656C32.7738 18.6656 32.5781 18.4699 32.5781 18.2281V12.9531C32.5781 12.7113 32.7738 12.5156 33.0156 12.5156C33.2574 12.5156 33.4531 12.7113 33.4531 12.9531V18.2281C33.4531 18.4699 33.2574 18.6656 33.0156 18.6656Z" fill="black"></path>
                                <path fill-rule="evenodd" clip-rule="evenodd" d="M33.0168 13.3918C31.8574 13.3918 30.9141 12.4484 30.9141 11.2891C30.9141 11.0473 31.1098 10.8516 31.3516 10.8516C31.5934 10.8516 31.7891 11.0473 31.7891 11.2891C31.7891 11.966 32.3398 12.5168 33.0168 12.5168C33.6937 12.5168 34.2445 11.966 34.2445 11.2891C34.2445 11.0473 34.4402 10.8516 34.682 10.8516C34.9238 10.8516 35.1195 11.0473 35.1195 11.2891C35.1195 12.4485 34.1761 13.3918 33.0168 13.3918Z" fill="black"></path>
                                <path fill-rule="evenodd" clip-rule="evenodd" d="M33.0156 3.1461C32.7738 3.1461 32.5781 2.9504 32.5781 2.7086V1.1875C32.5781 0.9457 32.7738 0.75 33.0156 0.75C33.2574 0.75 33.4531 0.9457 33.4531 1.1875V2.7086C33.4531 2.9504 33.2574 3.1461 33.0156 3.1461Z" fill="black"></path>
                                <path fill-rule="evenodd" clip-rule="evenodd" d="M28.6751 4.30946C28.5239 4.30946 28.3766 4.23094 28.2958 4.09071L27.5352 2.77351C27.4145 2.56413 27.486 2.29656 27.6954 2.17585C27.9044 2.05515 28.1723 2.12663 28.293 2.33601L29.0536 3.65321C29.1743 3.86259 29.1028 4.13016 28.8934 4.25087C28.8247 4.29071 28.7493 4.30946 28.6751 4.30946Z" fill="black"></path>
                                <path fill-rule="evenodd" clip-rule="evenodd" d="M37.3591 4.30963C37.2848 4.30963 37.2094 4.29088 37.1407 4.25104C36.9313 4.13034 36.8598 3.86276 36.9805 3.65338L37.7411 2.33618C37.8618 2.1268 38.1294 2.05493 38.3387 2.17602C38.5481 2.29672 38.6196 2.5643 38.4989 2.77368L37.7384 4.09088C37.6575 4.23111 37.5102 4.30963 37.3591 4.30963Z" fill="black"></path>
                                <path fill-rule="evenodd" clip-rule="evenodd" d="M15.8703 12.4122H13.959C13.7297 12.4122 13.5394 12.2353 13.5226 12.0072L13.4449 10.9552C12.8633 10.7595 12.325 10.4485 11.8629 10.0403L10.9117 10.4997C10.7051 10.5993 10.4571 10.5231 10.3426 10.3243L9.38674 8.66881C9.27229 8.47037 9.3301 8.21725 9.51955 8.08834L10.3922 7.49459C10.3317 7.19459 10.3016 6.88834 10.3016 6.58092C10.3016 6.27311 10.3321 5.96686 10.3922 5.66725L9.51955 5.0735C9.3301 4.94459 9.27228 4.69147 9.38674 4.49303L10.3426 2.83793C10.4571 2.63949 10.7055 2.56293 10.9117 2.66254L11.8629 3.12192C12.325 2.71411 12.8633 2.40278 13.4449 2.20708L13.5226 1.15508C13.5394 0.92656 13.7297 0.75 13.959 0.75H15.8703C16.0996 0.75 16.2898 0.92695 16.3066 1.15508L16.3843 2.20708C16.966 2.40278 17.5042 2.71372 17.9663 3.12192L18.9175 2.66254C19.1242 2.56293 19.3722 2.63949 19.4867 2.83793L20.4425 4.49303C20.557 4.69147 20.4992 4.94459 20.3097 5.0735L19.437 5.66725C19.4972 5.96725 19.5277 6.27311 19.5277 6.58092C19.5277 6.88873 19.4972 7.19459 19.437 7.49459L20.3097 8.08834C20.4992 8.21725 20.557 8.47037 20.4425 8.66881L19.4867 10.3243C19.3722 10.5227 19.1238 10.5993 18.9175 10.4997L17.9663 10.0403C17.5042 10.4481 16.9659 10.7595 16.3843 10.9552L16.3066 12.0072C16.2894 12.2353 16.0992 12.4122 15.8703 12.4122ZM14.3652 11.5372H15.464L15.5339 10.59C15.5476 10.4032 15.6788 10.2458 15.8601 10.1989C16.5077 10.0302 17.1007 9.68762 17.5742 9.20793C17.7058 9.07473 17.9074 9.03996 18.0757 9.12121L18.9324 9.53488L19.4816 8.58332L18.696 8.04894C18.5414 7.94386 18.4706 7.75206 18.5203 7.5716C18.6085 7.24972 18.6531 6.91652 18.6531 6.58098C18.6531 6.24504 18.6085 5.91184 18.5203 5.59075C18.4707 5.41028 18.5414 5.21848 18.696 5.11341L19.4816 4.57903L18.9324 3.62747L18.0757 4.04114C17.9074 4.12239 17.7058 4.08763 17.5742 3.95442C17.1007 3.47512 16.5078 3.13215 15.8601 2.9634C15.6788 2.91614 15.548 2.7591 15.5343 2.57238L15.4644 1.62511H14.3656L14.2956 2.57238C14.282 2.7591 14.1507 2.91652 13.9695 2.9634C13.3218 3.13215 12.7289 3.47473 12.2554 3.95442C12.1237 4.08762 11.9222 4.12239 11.7538 4.04114L10.8972 3.62747L10.348 4.57903L11.1335 5.11341C11.2882 5.21849 11.3589 5.41029 11.3093 5.59075C11.2214 5.91223 11.1765 6.24544 11.1765 6.58098C11.1765 6.91652 11.221 7.24973 11.3093 7.5716C11.3589 7.75207 11.2878 7.94387 11.1335 8.04894L10.348 8.58332L10.8972 9.53488L11.7538 9.12121C11.9222 9.03996 12.1237 9.07473 12.2554 9.20793C12.7288 9.68723 13.3214 10.0302 13.9695 10.1989C14.1507 10.2462 14.2816 10.4032 14.2953 10.59L14.3656 11.5372H14.3652Z" fill="black"></path>
                                <path fill-rule="evenodd" clip-rule="evenodd" d="M14.9133 9.41649C13.35 9.41649 12.0781 8.14459 12.0781 6.58129C12.0781 5.01799 13.35 3.74609 14.9133 3.74609C16.4766 3.74609 17.7485 5.01799 17.7485 6.58129C17.7485 8.14459 16.4766 9.41649 14.9133 9.41649ZM14.9133 4.62119C13.8324 4.62119 12.9531 5.50049 12.9531 6.58139C12.9531 7.66229 13.8324 8.54159 14.9133 8.54159C15.9942 8.54159 16.8735 7.66229 16.8735 6.58139C16.8735 5.50049 15.9942 4.62119 14.9133 4.62119Z" fill="black"></path>
                            </svg>