<svg width="30" height="30" viewBox="0 0 40 50" fill="none" xmlns="http://www.w3.org/2000/svg">
                                <path fill-rule="evenodd" clip-rule="evenodd" d="M12.786 2.73499C12.9153 2.73851 13.0438 2.76429 13.1645 2.81117C13.2849 2.85804 13.3973 2.92601 13.4946 3.01117C13.5919 3.09632 13.6743 3.19828 13.7372 3.31117C13.8001 3.42406 13.8431 3.54828 13.8638 3.67601C13.8845 3.80374 13.8825 3.93499 13.8587 4.06195C13.8349 4.1889 13.7888 4.31195 13.7231 4.42328C13.5919 4.64594 13.3809 4.82094 13.138 4.90844C6.90677 7.25614 2.46697 13.2729 2.46697 20.3414C2.46697 25.1301 4.50527 29.4277 7.75917 32.4454C7.89315 32.5697 7.99589 32.7271 8.05565 32.8993C8.11542 33.072 8.13221 33.2591 8.10409 33.4396L6.68139 42.5466L24.1454 47.1052L24.9833 40.6872C25.0036 40.5329 25.0559 40.3833 25.1368 40.2505C25.2177 40.1176 25.3263 40.002 25.454 39.913C25.5813 39.8243 25.7278 39.7622 25.8802 39.7325C26.0329 39.7028 26.1915 39.7055 26.3431 39.7399L31.565 40.9309L32.4591 35.4657C32.4802 35.336 32.5247 35.2099 32.5892 35.0954C32.654 34.9809 32.7388 34.8778 32.8392 34.7927C32.9392 34.7075 33.0548 34.6403 33.1778 34.595C33.3013 34.5497 33.4325 34.5263 33.5642 34.5263H37.2802L35.1786 24.5423C35.1598 24.454 35.152 24.3637 35.1551 24.2739L35.3485 18.5372C34.6903 12.4798 30.7497 7.4102 25.3455 5.1332C25.2084 5.07773 25.0822 4.99492 24.9767 4.89062C24.8717 4.78632 24.7873 4.66132 24.7303 4.5246C24.6732 4.38788 24.6439 4.23983 24.6443 4.09179C24.6447 3.94374 24.6748 3.7957 24.7322 3.65937C24.7896 3.52304 24.8744 3.39804 24.9803 3.29453C25.0861 3.19101 25.2123 3.10859 25.3498 3.05351C25.4873 2.99882 25.6357 2.97148 25.7838 2.97421C25.9318 2.97695 26.0791 3.00898 26.2146 3.06874C32.381 5.66644 36.8636 11.4628 37.5846 18.3767C37.5901 18.4279 37.5917 18.4791 37.5901 18.5307L37.3987 24.2139L39.7561 35.4159C39.7901 35.5784 39.7877 35.7483 39.7487 35.9096C39.7096 36.0709 39.6342 36.2233 39.5295 36.3522C39.4248 36.4811 39.2913 36.5862 39.1416 36.6577C38.9916 36.7291 38.826 36.7666 38.66 36.7666H34.5155L33.5827 42.4689C33.5581 42.6193 33.5022 42.7646 33.4202 42.8928C33.3378 43.0209 33.2292 43.1322 33.1026 43.2174C32.9761 43.3025 32.8323 43.3615 32.6823 43.3893C32.5327 43.4174 32.3768 43.4139 32.2284 43.3803L27.0448 42.1979L26.2018 48.6545C26.1815 48.8115 26.1272 48.9638 26.0436 49.0986C25.9604 49.2334 25.8483 49.3498 25.7167 49.4384C25.5854 49.5271 25.435 49.5869 25.2792 49.6138C25.1229 49.6408 24.9616 49.6334 24.8081 49.5935L5.13508 44.4583C5.00227 44.4236 4.8761 44.3642 4.76438 44.2841C4.65305 44.204 4.55657 44.1032 4.48118 43.9884C4.40579 43.8736 4.35188 43.745 4.32298 43.6107C4.29408 43.4767 4.28978 43.3372 4.31126 43.2013L5.80036 33.6701C2.36406 30.2724 0.226562 25.5506 0.226562 20.3411C0.226562 12.3341 5.26206 5.4821 12.3476 2.81209C12.4866 2.75741 12.6366 2.73085 12.7858 2.73475L12.786 2.73499Z" fill="black"></path>
                                <path fill-rule="evenodd" clip-rule="evenodd" d="M22.1614 0.349609C22.3079 0.349609 22.4544 0.378906 22.5899 0.434765C22.7255 0.491015 22.8497 0.573825 22.9532 0.677735C23.0567 0.781255 23.1399 0.905465 23.1958 1.04102C23.252 1.17657 23.2809 1.32305 23.2809 1.46954V17.9795C25.575 19.265 27.1336 21.7193 27.1336 24.5248C27.1336 26.8924 26.0258 29.0088 24.3039 30.3857L26.916 34.9068C26.9914 35.0338 27.0414 35.176 27.0621 35.3221C27.0828 35.4686 27.0742 35.6189 27.0367 35.7619C26.9992 35.9049 26.9336 36.0404 26.8438 36.158C26.7543 36.2756 26.641 36.3752 26.5133 36.449C26.3852 36.5229 26.2426 36.5713 26.0961 36.59C25.9496 36.6092 25.7992 36.5986 25.6567 36.5592C25.5141 36.5201 25.3797 36.4525 25.2629 36.3615C25.1465 36.2705 25.0485 36.1564 24.9758 36.0275L22.3656 31.5099C21.5168 31.8447 20.5933 32.0287 19.6289 32.0287C15.4965 32.0287 12.125 28.6572 12.125 24.5248C12.125 21.7193 13.6828 19.2643 15.9777 17.9787V1.46969C15.9777 1.32321 16.007 1.17672 16.0629 1.04117C16.1191 0.905616 16.2019 0.781396 16.3054 0.677886C16.4093 0.574366 16.5332 0.491166 16.6687 0.434916C16.8043 0.378666 16.9507 0.34976 17.0972 0.34976L22.1614 0.349609ZM21.0415 2.58941H18.2192V17.1604C18.6766 17.0729 19.1481 17.0264 19.6305 17.0264C20.1125 17.0264 20.5844 17.0729 21.0418 17.1608L21.0415 2.58941ZM19.6302 19.2664C16.7068 19.2664 14.3661 21.6078 14.3661 24.525C14.3661 27.4484 16.7063 29.7891 19.6302 29.7891C22.547 29.7891 24.8943 27.4473 24.8943 24.525C24.8943 21.609 22.5474 19.2664 19.6302 19.2664Z" fill="black"></path>
                            </svg>