<svg width="45" height="42" viewBox="0 0 31 30"
                                                fill="none" xmlns="http://www.w3.org/2000/svg">
                                                <path
                                                    d="M21.8906 9.66992C17.3781 9.66992 13.7656 11.5449 13.7656 13.4199V25.5014C13.7656 27.6889 17.2595 29.3576 21.8906 29.3576C26.5218 29.3576 30.0156 27.6984 30.0156 25.5014V13.4199C30.0156 11.5449 26.4032 9.66992 21.8906 9.66992ZM28.7656 19.5135C28.7656 20.7448 25.8251 22.1198 21.8906 22.1198C17.9562 22.1198 15.0156 20.7448 15.0156 19.5135V15.6385C16.4313 16.7041 18.9249 17.3824 21.8906 17.3824C24.8563 17.3824 27.3499 16.7043 28.7656 15.6385V19.5135ZM21.8906 10.9199C25.8251 10.9199 28.7656 12.2949 28.7656 13.5262C28.7656 14.7575 25.8251 16.1325 21.8906 16.1325C17.9562 16.1325 15.0156 14.7575 15.0156 13.5262C15.0156 12.2949 17.9562 10.9199 21.8906 10.9199ZM21.8906 28.1071C17.9562 28.1071 15.0156 26.7321 15.0156 25.5008V21.6258C16.4313 22.6914 18.9249 23.3696 21.8906 23.3696C24.8563 23.3696 27.3499 22.6916 28.7656 21.6258V25.5008C28.7656 26.7321 25.8251 28.1071 21.8906 28.1071Z"
                                                    fill="white" />
                                                <path
                                                    d="M13.7182 5.29492C14.4571 5.31362 15.1474 5.66797 15.5932 6.25757C16.0572 6.84267 16.3396 7.55106 16.4057 8.29492C16.423 8.45982 16.5053 8.61133 16.6342 8.7154C16.7631 8.81975 16.9283 8.86858 17.0932 8.85128C17.4356 8.81501 17.6842 8.5092 17.6496 8.16685C17.5606 7.18049 17.1872 6.24164 16.5745 5.46371C15.9026 4.57028 14.8499 4.04492 13.7324 4.04492C12.6147 4.04492 11.5619 4.57032 10.8901 5.46371C10.1663 6.39899 9.77344 7.54828 9.77344 8.73071C9.77344 9.91349 10.1663 11.0627 10.8901 11.998C11.091 12.2494 11.3103 12.4857 11.5463 12.7042C11.6627 12.8077 11.8125 12.8655 11.9682 12.8669C12.1445 12.8663 12.3125 12.7915 12.4308 12.6604C12.5424 12.5376 12.6007 12.3752 12.5924 12.2092C12.5843 12.0432 12.5103 11.8875 12.387 11.7762C12.1959 11.601 12.0193 11.4107 11.8588 11.2073C11.3175 10.4958 11.0243 9.62633 11.0243 8.7324C11.0243 7.83847 11.3175 6.96897 11.8588 6.25754C12.3016 5.67244 12.985 5.31892 13.7182 5.29492Z"
                                                    fill="white" />
                                                <path
                                                    d="M11.8903 15.6071H5.89984C5.76424 14.4235 5.23271 13.3205 4.39148 12.4771C3.55027 11.6336 2.4487 11.099 1.26534 10.9604V6.58535C2.46341 6.44333 3.57755 5.89785 4.42441 5.03849C5.2712 4.17914 5.80055 3.05721 5.9247 1.85714H21.3811C21.5031 3.11885 22.0547 4.30049 22.9439 5.20392C23.8331 6.10735 25.0058 6.67799 26.2656 6.81971V8.41957C26.2656 8.76471 26.5455 9.04457 26.8906 9.04457C27.2358 9.04457 27.5156 8.76471 27.5156 8.41957V1.23242C27.5156 1.06669 27.4498 0.907643 27.3326 0.790458C27.2154 0.673272 27.0564 0.607422 26.8906 0.607422H0.640625C0.295482 0.607422 0.015625 0.887279 0.015625 1.23242V16.2324C0.015625 16.3982 0.0814736 16.5572 0.198661 16.6744C0.315848 16.7916 0.474889 16.8574 0.640625 16.8574H11.8906C12.2358 16.8574 12.5156 16.5776 12.5156 16.2324C12.5156 15.8873 12.2358 15.6074 11.8906 15.6074L11.8903 15.6071ZM26.2653 5.55707C25.3393 5.42258 24.483 4.98759 23.8281 4.31907C23.1733 3.65054 22.7558 2.78557 22.6403 1.85699H26.2653V5.55707ZM4.66177 1.85699C4.54932 2.72642 4.15702 3.53528 3.54427 4.16221C2.93155 4.78888 2.13162 5.19957 1.26498 5.33185V1.85699H4.66177ZM1.26498 12.2227C2.11512 12.3519 2.90141 12.7503 3.50827 13.3597C4.11541 13.9688 4.51077 14.7565 4.63691 15.6072H1.26498V12.2227Z"
                                                    fill="white" />
                                                <path
                                                    d="M11.8906 19.3574H0.640625C0.295482 19.3574 0.015625 19.6373 0.015625 19.9824C0.015625 20.3276 0.295482 20.6074 0.640625 20.6074H11.8906C12.2358 20.6074 12.5156 20.3276 12.5156 19.9824C12.5156 19.6373 12.2358 19.3574 11.8906 19.3574Z"
                                                    fill="white" />
                                                <path
                                                    d="M11.8906 23.1074H0.640625C0.295482 23.1074 0.015625 23.3873 0.015625 23.7324C0.015625 24.0776 0.295482 24.3574 0.640625 24.3574H11.8906C12.2358 24.3574 12.5156 24.0776 12.5156 23.7324C12.5156 23.3873 12.2358 23.1074 11.8906 23.1074Z"
                                                    fill="white" />
                                            </svg>