<svg width="42" height="42" viewBox="0 0 32 34"
                                                fill="none" xmlns="http://www.w3.org/2000/svg">
                                                <path fill-rule="evenodd" clip-rule="evenodd"
                                                    d="M26.5798 21.2871L28.3089 20.3359L30.3868 21.4788C32.1136 22.4286 32.1136 24.9099 30.3868 25.8599L17.1789 33.1242C16.4286 33.5369 15.5193 33.5369 14.7693 33.1242L1.56077 25.8599C-0.166089 24.9099 -0.166089 22.4286 1.56077 21.4788L3.63862 20.3359L5.3677 21.2871L2.36405 22.9392C1.78844 23.2556 1.78844 24.0829 2.36405 24.3995L15.5719 31.6638C15.8219 31.8014 16.1252 31.8014 16.3752 31.6638L29.5831 24.3995C30.1587 24.0828 30.1587 23.2555 29.5831 22.9392L26.5798 21.2871Z"
                                                    fill="white" />
                                                <path fill-rule="evenodd" clip-rule="evenodd"
                                                    d="M3.63862 13.6699L1.56077 14.8128C-0.166089 15.7626 -0.166089 18.2441 1.56077 19.1939L14.7693 26.4582C15.5193 26.8709 16.4286 26.8709 17.1789 26.4582L30.3868 19.1939C32.1136 18.2441 32.1136 15.7626 30.3868 14.8128L28.3089 13.6702L26.5798 14.6211L29.5835 16.2731C30.1591 16.5898 30.1591 17.4171 29.5835 17.7335L16.3756 24.9978C16.1256 25.1353 15.8223 25.1353 15.5723 24.9978L2.36448 17.7335C1.78887 17.4171 1.78887 16.5898 2.36448 16.2731L5.36841 14.6211L3.63862 13.6699Z"
                                                    fill="white" />
                                                <path fill-rule="evenodd" clip-rule="evenodd"
                                                    d="M16.3754 2.34212C16.1251 2.20456 15.8221 2.20456 15.5721 2.34212L2.36355 9.60641C1.78794 9.92309 1.78794 10.7501 2.36355 11.0668L15.5721 18.3311C15.8221 18.4686 16.1251 18.4686 16.3754 18.3311L29.5833 11.0668C30.1589 10.7501 30.1589 9.92305 29.5833 9.60641L16.3754 2.34212ZM14.7688 0.881764C15.5191 0.4691 16.4284 0.4691 17.1784 0.881764L30.3863 8.14605C32.1134 9.09583 32.1134 11.5774 30.3863 12.5272L17.1784 19.7915C16.4284 20.2041 15.5191 20.2041 14.7688 19.7915L1.56098 12.5272C-0.166161 11.5774 -0.166161 9.09583 1.56098 8.14605L14.7688 0.881764Z"
                                                    fill="white" />
                                            </svg>