<svg width="38" height="38" viewBox="0 0 32 38"
                                                fill="none" xmlns="http://www.w3.org/2000/svg">
                                                <path
                                                    d="M30.8443 0H1.08426C0.724324 0 0.484375 0.280136 0.484375 0.599886V37.3999C0.484375 37.7598 0.76451 37.9998 1.08426 37.9998H30.8843C31.2442 37.9998 31.4841 37.7196 31.4841 37.3999L31.4844 0.599886C31.4844 0.280129 31.2043 0 30.8444 0H30.8443ZM30.2444 36.76H1.68438V1.24H30.2444V36.76Z"
                                                    fill="white" />
                                                <path
                                                    d="M13.0452 7.83984H26.0852C26.4451 7.83984 26.6851 7.5597 26.6851 7.23995C26.6851 6.91964 26.4451 6.59961 26.0852 6.59961H13.0452C12.6853 6.59961 12.4453 6.87975 12.4453 7.1995C12.445 7.51981 12.685 7.83984 13.0452 7.83984Z"
                                                    fill="white" />
                                                <path
                                                    d="M7.72688 9.87953C9.2068 9.87953 10.4069 8.67946 10.4069 7.19953C10.4069 5.7196 9.2068 4.51953 7.72688 4.51953C6.24695 4.51953 5.04688 5.7196 5.04688 7.19953C5.04688 8.67946 6.24695 9.87953 7.72688 9.87953ZM7.72688 5.79946C8.5268 5.79946 9.16688 6.43952 9.16688 7.23946C9.16688 8.0394 8.52681 8.67946 7.72688 8.67946C6.92694 8.67946 6.28688 8.0394 6.28688 7.23946C6.28688 6.43952 6.92694 5.79946 7.72688 5.79946Z"
                                                    fill="white" />
                                                <path
                                                    d="M13.0452 15.6805H26.0852C26.4451 15.6805 26.6851 15.4004 26.6851 15.0806C26.6851 14.7606 26.4049 14.4807 26.0852 14.4807L13.0452 14.4805C12.6853 14.4805 12.4453 14.7606 12.4453 15.0804C12.445 15.4007 12.685 15.6805 13.0452 15.6805Z"
                                                    fill="white" />
                                                <path
                                                    d="M7.72688 17.7194C9.2068 17.7194 10.4069 16.5193 10.4069 15.0394C10.4069 13.5594 9.2068 12.3594 7.72688 12.3594C6.24695 12.3594 5.04688 13.5594 5.04688 15.0394C5.04688 16.5196 6.24695 17.7194 7.72688 17.7194ZM7.72688 13.6396C8.5268 13.6396 9.16688 14.2797 9.16688 15.0796C9.16688 15.8795 8.52681 16.5196 7.72688 16.5196C6.92694 16.5196 6.28688 15.8795 6.28688 15.0796C6.28688 14.2797 6.92694 13.6396 7.72688 13.6396Z"
                                                    fill="white" />
                                                <path
                                                    d="M13.0452 23.5594H26.0852C26.4451 23.5594 26.6851 23.2793 26.6851 22.9595C26.6851 22.6395 26.4049 22.3597 26.0852 22.3597L13.0452 22.3594C12.6853 22.3594 12.4453 22.6395 12.4453 22.9593C12.445 23.2796 12.685 23.5594 13.0452 23.5594Z"
                                                    fill="white" />
                                                <path
                                                    d="M7.72688 25.6002C9.2068 25.6002 10.4069 24.4002 10.4069 22.9202C10.4069 21.4403 9.2068 20.2402 7.72688 20.2402C6.24695 20.2402 5.04688 21.4403 5.04688 22.9202C5.04688 24.4005 6.24695 25.6002 7.72688 25.6002ZM7.72688 21.4802C8.5268 21.4802 9.16688 22.1203 9.16688 22.9202C9.16688 23.7202 8.52681 24.3602 7.72688 24.3602C6.92694 24.3602 6.28688 23.7202 6.28688 22.9202C6.28688 22.1203 6.92694 21.4802 7.72688 21.4802Z"
                                                    fill="white" />
                                                <path
                                                    d="M13.0452 31.3993H26.0852C26.4451 31.3993 26.6851 31.1191 26.6851 30.7994C26.6851 30.4793 26.4049 30.1995 26.0852 30.1995L13.0452 30.1992C12.6853 30.1992 12.4453 30.4794 12.4453 30.7991C12.445 31.1191 12.685 31.3993 13.0452 31.3993Z"
                                                    fill="white" />
                                                <path
                                                    d="M7.72688 33.4401C9.2068 33.4401 10.4069 32.24 10.4069 30.7601C10.4069 29.2802 9.2068 28.0801 7.72688 28.0801C6.24695 28.0801 5.04688 29.2802 5.04688 30.7601C5.04688 32.24 6.24695 33.4401 7.72688 33.4401ZM7.72688 29.36C8.5268 29.36 9.16688 30.0001 9.16688 30.8C9.16688 31.5999 8.52681 32.2001 7.72688 32.2001C6.92694 32.2001 6.28688 31.5601 6.28688 30.7601C6.28688 29.9602 6.92694 29.36 7.72688 29.36Z"
                                                    fill="white" />
                                            </svg>