<svg width="38" height="38" viewBox="0 0 41 41"
                                                fill="none" xmlns="http://www.w3.org/2000/svg">
                                                <path
                                                    d="M40.203 36.2952H5.67158V20.1937L14.0459 14.9923L20.6087 18.963C20.8188 19.0903 21.0766 19.1112 21.3048 19.0194L27.3974 16.5671C28.8057 17.5758 30.5299 18.17 32.3904 18.17C37.129 18.17 40.984 14.3148 40.984 9.57646C40.984 4.83811 37.1288 0.982893 32.3904 0.982893C27.6521 0.982893 23.7969 4.83811 23.7969 9.57646C23.7969 11.8265 24.666 13.8773 26.0862 15.4108L21.0837 17.4242L14.4451 13.4075C14.1937 13.2554 13.8781 13.2571 13.6284 13.4122L5.67195 18.3544V1.76371C5.67195 1.33234 5.32206 0.982422 4.89066 0.982422C4.4593 0.982422 4.10938 1.33231 4.10938 1.76371V36.2951H1.76566C1.3343 36.2951 0.984375 36.645 0.984375 37.0764C0.984375 37.5078 1.33426 37.8577 1.76566 37.8577H4.10938V40.2014C4.10938 40.6328 4.45926 40.9827 4.89066 40.9827C5.32203 40.9827 5.67195 40.6328 5.67195 40.2014V37.8577H40.2034C40.6347 37.8577 40.9847 37.5078 40.9847 37.0764C40.9847 36.6451 40.6348 36.2951 40.2034 36.2951L40.203 36.2952ZM32.3902 2.54517C36.2671 2.54517 39.4214 5.69917 39.4214 9.57646C39.4214 13.4534 36.2674 16.6077 32.3902 16.6077C28.5132 16.6077 25.3589 13.4537 25.3589 9.57646C25.3589 5.69953 28.5132 2.54517 32.3902 2.54517Z"
                                                    fill="white" />
                                                <path
                                                    d="M24.6474 34.7331C25.0787 34.7331 25.4287 34.3832 25.4287 33.9518V32.8009H26.1932C26.6245 32.8009 26.9745 32.451 26.9745 32.0196V28.9281C26.9745 28.4967 26.6246 28.1468 26.1932 28.1468H25.4287V22.0547C25.4287 21.6234 25.0788 21.2734 24.6474 21.2734C24.216 21.2734 23.8661 21.6233 23.8661 22.0547V28.1468H23.1016C22.6702 28.1468 22.3203 28.4967 22.3203 28.9281V32.0196C22.3203 32.4509 22.6702 32.8009 23.1016 32.8009H23.8661V33.9518C23.8661 34.3832 24.216 34.7331 24.6474 34.7331ZM23.8829 29.7094H25.4119V31.2384H23.8829V29.7094Z"
                                                    fill="white" />
                                                <path
                                                    d="M17.6864 34.7332C18.1178 34.7332 18.4677 34.3833 18.4677 33.9519V31.6416H19.2322C19.6636 31.6416 20.0135 31.2917 20.0135 30.8603V27.7688C20.0135 27.3374 19.6636 26.9875 19.2322 26.9875H18.4677V22.0547C18.4677 21.6234 18.1178 21.2734 17.6864 21.2734C17.2551 21.2734 16.9052 21.6233 16.9052 22.0547V26.9875H16.1407C15.7093 26.9875 15.3594 27.3374 15.3594 27.7688V30.8603C15.3594 31.2917 15.7093 31.6416 16.1407 31.6416H16.9052V33.9519C16.9052 34.3832 17.255 34.7332 17.6864 34.7332ZM16.9219 28.5502H18.4509V30.0792H16.9219V28.5502Z"
                                                    fill="white" />
                                                <path
                                                    d="M10.7177 34.7332C11.1491 34.7332 11.499 34.3833 11.499 33.9519V29.3229H12.2635C12.6948 29.3229 13.0448 28.9731 13.0448 28.5417V25.4502C13.0448 25.0188 12.6949 24.6689 12.2635 24.6689H11.499V22.0547C11.499 21.6234 11.1491 21.2734 10.7177 21.2734C10.2863 21.2734 9.93641 21.6233 9.93641 22.0547V24.6689H9.17191C8.74055 24.6689 8.39062 25.0188 8.39062 25.4502V28.5417C8.39062 28.973 8.74051 29.3229 9.17191 29.3229H9.93641V33.9519C9.93641 34.3832 10.2863 34.7332 10.7177 34.7332ZM9.9532 26.2317H11.4822V27.7607H9.9532V26.2317Z"
                                                    fill="white" />
                                                <path
                                                    d="M31.6161 34.7315C32.0475 34.7315 32.3974 34.3816 32.3974 33.9502V27.7616H33.1619C33.5933 27.7616 33.9432 27.4117 33.9432 26.9803V23.8888C33.9432 23.4574 33.5933 23.1075 33.1619 23.1075H32.3974V22.0528C32.3974 21.6214 32.0475 21.2715 31.6161 21.2715C31.1848 21.2715 30.8348 21.6214 30.8348 22.0528V23.1075H30.0703C29.639 23.1075 29.2891 23.4574 29.2891 23.8888V26.9803C29.2891 27.4116 29.6389 27.7616 30.0703 27.7616H30.8348V33.9502C30.8348 34.3816 31.1847 34.7315 31.6161 34.7315ZM30.8516 24.6701H32.3806V26.1991H30.8516V24.6701Z"
                                                    fill="white" />
                                                <path
                                                    d="M31.6799 10.1267L32.5108 10.4707C32.8947 10.6298 33.078 11.0717 32.9187 11.456C32.8423 11.6404 32.6972 11.7846 32.51 11.8622C32.323 11.9398 32.1182 11.9403 31.9335 11.8639L31.5183 11.6917C31.1196 11.5268 30.6626 11.716 30.4977 12.1144C30.3325 12.5131 30.522 12.9701 30.9204 13.1351L31.3359 13.3072C31.4268 13.3449 31.5195 13.3764 31.6132 13.4021V14.2592C31.6132 14.6906 31.9631 15.0405 32.3945 15.0405C32.8259 15.0405 33.1758 14.6906 33.1758 14.2592V13.2762C33.716 13.0329 34.1358 12.601 34.3624 12.0536C34.8513 10.8736 34.2888 9.51596 33.1088 9.0271L32.2781 8.68307C31.8942 8.52403 31.7109 8.08206 31.8702 7.69786C31.9467 7.51343 32.0918 7.36917 32.2787 7.29161C32.4656 7.21404 32.6704 7.21348 32.8551 7.28993L33.2703 7.46209C33.669 7.62727 34.126 7.43781 34.291 7.03937C34.4561 6.64066 34.2667 6.18366 33.8683 6.01873L33.4528 5.84657C33.3618 5.80891 33.2692 5.7771 33.1755 5.75171V4.89457C33.1755 4.4632 32.8256 4.11328 32.3942 4.11328C31.9628 4.11328 31.6129 4.46317 31.6129 4.89457V5.87785C31.0727 6.12144 30.6528 6.55307 30.4262 7.1005C29.9377 8.2805 30.4999 9.63785 31.6799 10.127L31.6799 10.1267Z"
                                                    fill="white" />
                                            </svg>