<svg width="38" height="38" viewBox="0 0 34 34"
                                                fill="none" xmlns="http://www.w3.org/2000/svg">
                                                <path fill-rule="evenodd" clip-rule="evenodd"
                                                    d="M33.408 0.564201C33.7543 0.867215 33.7894 1.3937 33.4861 1.73999L28.6156 7.3067C27.7894 8.25092 26.3912 8.43642 25.3474 7.74057L17.7924 2.70372C17.442 2.47018 16.9718 2.53491 16.6976 2.85494L8.55541 12.3542C7.77499 13.2647 6.45806 13.4929 5.41677 12.898L0.779484 10.2479C0.379927 10.0197 0.240977 9.51046 0.469213 9.11089C0.697727 8.71134 1.20664 8.57267 1.60621 8.80091L6.24378 11.4508C6.59061 11.6491 7.02978 11.573 7.28986 11.2697L15.4327 1.76968C16.2556 0.809822 17.6654 0.615394 18.7176 1.31655L26.2726 6.35341C26.6205 6.58527 27.0865 6.52333 27.3619 6.2086L32.2326 0.642172C32.5357 0.295629 33.0621 0.260472 33.4087 0.563765L33.408 0.564201Z"
                                                    fill="white" />
                                                <path fill-rule="evenodd" clip-rule="evenodd"
                                                    d="M22.0287 17.025C22.4891 17.025 22.8622 17.398 22.8622 17.8584V32.8584C22.8622 33.3185 22.4891 33.6915 22.0287 33.6915C21.5684 33.6915 21.1953 33.3185 21.1953 32.8584V17.8584C21.1953 17.398 21.5684 17.025 22.0287 17.025ZM17.0287 8.69141C17.4891 8.69141 17.8622 9.06446 17.8622 9.52483V32.8584C17.8622 33.3185 17.4891 33.6915 17.0287 33.6915C16.5684 33.6915 16.1953 33.3185 16.1953 32.8584V9.52483C16.1953 9.06446 16.5684 8.69141 17.0287 8.69141ZM12.0287 15.3583C12.4891 15.3583 12.8622 15.7313 12.8622 16.1914V32.8586C12.8622 33.3187 12.4891 33.6917 12.0287 33.6917C11.5684 33.6917 11.1953 33.3186 11.1953 32.8586V16.1914C11.1953 15.7313 11.5684 15.3583 12.0287 15.3583ZM7.02874 18.6914C7.48912 18.6914 7.86217 19.0645 7.86217 19.5248V32.8584C7.86217 33.3185 7.48912 33.6915 7.02874 33.6915C6.56836 33.6915 6.19531 33.3185 6.19531 32.8584V19.5248C6.19531 19.0645 6.56836 18.6914 7.02874 18.6914Z"
                                                    fill="white" />
                                                <path
                                                    d="M2.02874 17.0254C2.48884 17.0254 2.86217 17.3984 2.86217 17.8588V32.8588C2.86217 33.3189 2.48884 33.692 2.02874 33.692C1.56864 33.692 1.19531 33.3189 1.19531 32.8588V17.8588C1.19531 17.3984 1.56864 17.0254 2.02874 17.0254Z"
                                                    fill="white" />
                                                <path
                                                    d="M27.0287 13.6914C27.4891 13.6914 27.8622 14.0645 27.8622 14.5248V32.8584C27.8622 33.3185 27.4891 33.6915 27.0287 33.6915C26.5684 33.6915 26.1953 33.3185 26.1953 32.8584V14.5248C26.1953 14.0645 26.5684 13.6914 27.0287 13.6914Z"
                                                    fill="white" />
                                                <path
                                                    d="M32.0287 10.3574C32.4891 10.3574 32.8622 10.7305 32.8622 11.1906V32.8577C32.8622 33.3178 32.4891 33.6909 32.0287 33.6909C31.5684 33.6909 31.1953 33.3178 31.1953 32.8577V11.1906C31.1953 10.7305 31.5684 10.3574 32.0287 10.3574Z"
                                                    fill="white" />
                                            </svg>