<svg width="38" height="38" viewBox="0 0 23 27" fill="none" xmlns="http://www.w3.org/2000/svg">
                                <path d="M22.6775 4.08301L11.483 0.351562L0.288457 4.08301C0.288457 4.08301 -1.65214 19.059 11.483 26.622C24.6185 19.059 22.6775 4.08301 22.6775 4.08301ZM20.2335 12.21C18.8904 17.5325 15.9488 21.6705 11.4825 24.524C7.01651 21.6705 4.07501 17.532 2.73151 12.21C2.00181 9.31841 1.94831 6.78051 1.99441 5.40451L11.4824 2.24241L20.9699 5.40451C21.016 6.78186 20.9627 9.31896 20.2332 12.21H20.2335Z" fill="black"/>
                                <path d="M17.4531 6.90369L11.7361 5.13789C11.5631 5.08399 11.3785 5.08438 11.2059 5.13828L5.51137 6.90408C5.13754 7.01951 4.88247 7.36424 4.87992 7.75523C4.87875 7.98433 4.88422 13.4047 8.13462 17.5272C8.44146 17.9169 9.00532 17.9819 9.39417 17.6759C9.78343 17.3694 9.84964 16.8056 9.54281 16.4163C7.29986 13.5708 6.81021 9.88332 6.70336 8.41232L11.4723 6.93402L16.9243 8.61782C17.3989 8.76391 17.8993 8.49868 18.0458 8.02522C18.1919 7.55217 17.9267 7.04982 17.4536 6.90372L17.4531 6.90369Z" fill="black"/>
                                </svg>