<svg width="38" height="38" viewBox="0 0 29 29" fill="none" xmlns="http://www.w3.org/2000/svg">
                                    <path d="M22.8125 21.9375H23.6875C23.9289 21.9375 24.125 22.134 24.125 22.375H25C25 21.6514 24.4111 21.0625 23.6875 21.0625V20.1875H22.8125V21.0625C22.0889 21.0625 21.5 21.6514 21.5 22.375C21.5 23.0987 22.0889 23.6875 22.8125 23.6875H23.6875C23.9289 23.6875 24.125 23.884 24.125 24.125C24.125 24.366 23.9289 24.5625 23.6875 24.5625H22.8125C22.5711 24.5625 22.375 24.366 22.375 24.125H21.5C21.5 24.8487 22.0889 25.4375 22.8125 25.4375V26.3125H23.6875V25.4375C24.4111 25.4375 25 24.8487 25 24.125C25 23.4014 24.4111 22.8125 23.6875 22.8125H22.8125C22.5711 22.8125 22.375 22.616 22.375 22.375C22.375 22.134 22.5711 21.9375 22.8125 21.9375Z" fill="black"/>
                                    <path d="M23.25 18.4375C22.4621 18.4375 21.7196 18.6318 21.0625 18.9685V10.125C21.0625 9.40135 20.4736 8.8125 19.75 8.8125H16.6875V2.25C16.6875 1.52635 16.0986 0.9375 15.375 0.9375H4C3.27635 0.9375 2.6875 1.52635 2.6875 2.25V3.8621C1.6545 4.35488 0.9375 5.40665 0.9375 6.625C0.9375 7.84335 1.6545 8.8951 2.6875 9.3879V11C2.6875 11.7237 3.27635 12.3125 4 12.3125H9.6875V20.625C9.6875 21.3487 10.2764 21.9375 11 21.9375H18.624C18.5054 22.3553 18.4377 22.7946 18.4377 23.25C18.4377 25.9035 20.5967 28.0625 23.2502 28.0625C25.9037 28.0625 28.0627 25.9035 28.0627 23.25C28.0627 20.5965 25.9037 18.4375 23.2502 18.4375L23.25 18.4375ZM3.5625 2.24995C3.5625 2.00894 3.75859 1.81245 4 1.81245H15.375C15.6164 1.81245 15.8125 2.00894 15.8125 2.24995V8.81245H14.9375V2.68745H4.4375V3.5974C4.29395 3.57689 4.14883 3.56244 4 3.56244C3.85117 3.56244 3.70605 3.57689 3.5625 3.5974V2.24995ZM9.768 9.68745H5.31255V9.38784C6.34555 8.89526 7.06255 7.84349 7.06255 6.62494C7.06255 5.40659 6.34555 4.35484 5.31255 3.86204V3.56243H14.0626V8.81243H11.0001C10.4305 8.81243 9.94925 9.17944 9.768 9.68745ZM1.8125 6.62495C1.8125 5.4187 2.79375 4.43745 4 4.43745C5.20625 4.43745 6.1875 5.4187 6.1875 6.62495C6.1875 7.8312 5.20625 8.81245 4 8.81245C2.79375 8.81245 1.8125 7.8312 1.8125 6.62495ZM4 11.4375C3.75859 11.4375 3.5625 11.241 3.5625 11V9.6525C3.70605 9.67301 3.85117 9.68746 4 9.68746C4.14883 9.68746 4.29395 9.67301 4.4375 9.6525V10.5625H9.6875V11.4375H4ZM11 21.0625C10.7586 21.0625 10.5625 20.866 10.5625 20.625V10.125C10.5625 9.88393 10.7586 9.68745 11 9.68745H19.75C19.9914 9.68745 20.1875 9.88393 20.1875 10.125V19.5405C19.684 19.9569 19.2696 20.4758 18.9685 21.0625L11 21.0625ZM23.25 27.1875C21.0787 27.1875 19.3125 25.4209 19.3125 23.25C19.3125 21.0791 21.0787 19.3125 23.25 19.3125C25.4213 19.3125 27.1875 21.0791 27.1875 23.25C27.1875 25.4209 25.4213 27.1875 23.25 27.1875Z" fill="black"/>
                                    <path d="M4.4375 7.9375V7.0625H5.3125V6.1875H4.4375V5.3125H3.5625V6.1875H2.6875V7.0625H3.5625V7.9375H4.4375Z" fill="black"/>
                                    <path d="M13.1875 4.4375H7.9375V7.0625H13.1875V4.4375ZM8.8125 5.3125H9.6875V6.1875H8.8125V5.3125ZM12.3125 6.1875H10.5625V5.3125H12.3125V6.1875Z" fill="black"/>
                                    <path d="M12.3125 16.6875H18.4375V10.5625H12.3125V16.6875ZM13.1875 11.4375H17.5625V15.8125H13.1875V11.4375Z" fill="black"/>
                                    <path d="M12.3125 19.3125H13.1875V20.1875H12.3125V19.3125Z" fill="black"/>
                                    <path d="M14.0625 19.3125H18.4375V20.1875H14.0625V19.3125Z" fill="black"/>
                                    <path d="M12.3125 17.5625H18.4375V18.4375H12.3125V17.5625Z" fill="black"/>
                                    <path d="M14.9373 13.8822L14.3717 13.3164L13.7529 13.9352L14.9373 15.1194L17.4342 12.6227L16.8155 12.0039L14.9373 13.8822Z" fill="black"/>
                                    <path d="M14.5 24.5615C8.95098 24.5615 4.43748 20.0475 4.43748 14.499C4.43748 14.0799 4.46365 13.6564 4.51541 13.2404L3.64746 13.1328C3.59102 13.5842 3.5625 14.0436 3.5625 14.499C3.5625 20.53 8.46915 25.4365 14.5 25.4365C15.5864 25.4365 16.66 25.2777 17.6899 24.9637L17.4352 24.1268C16.4875 24.4154 15.5002 24.5615 14.5 24.5615Z" fill="black"/>
                                    <path d="M24.5627 14.4997C24.5627 15.5007 24.4166 16.4882 24.1278 17.4344L24.9651 17.6895C25.2789 16.66 25.4377 15.5868 25.4377 14.4997C25.4377 9.65081 22.3244 5.44566 17.6902 4.03516L17.4355 4.87206C21.6986 6.16971 24.563 10.0391 24.563 14.4996L24.5627 14.4997Z" fill="black"/>
                                    </svg>