<svg width="38" height="38" viewBox="0 0 25 25" fill="none" xmlns="http://www.w3.org/2000/svg">
                                <path d="M24.292 13.132V12.6945V12.3445L20.5732 11.4258L19.7857 7.96953C20.0045 7.40078 20.2232 6.65703 20.3982 5.73828C20.442 5.43203 20.3545 5.12578 20.1357 4.90703C19.917 4.68828 19.6107 4.64453 19.3045 4.73203C19.1295 4.77578 18.9982 4.81953 18.8232 4.86328C18.7357 4.38203 18.2982 3.98828 17.7732 3.98828C17.2482 3.98828 16.8107 4.33828 16.7232 4.86328C16.592 4.81953 16.417 4.77578 16.242 4.73203C15.9357 4.64453 15.6295 4.73203 15.4107 4.90703C15.192 5.12578 15.0607 5.43203 15.1482 5.73828C15.3232 6.65703 15.542 7.40078 15.7607 7.96953L14.7982 12.0383C14.667 12.6945 14.7982 13.3508 15.192 13.8758L16.8545 16.1508C17.292 17.4195 18.2107 18.732 20.267 19.6945L20.442 19.782L20.617 19.6945C24.3795 17.9008 24.3357 14.9258 24.292 13.132ZM19.5232 5.56303C19.392 6.13178 19.3045 6.61303 19.1732 7.05053C19.0857 6.96303 18.9545 6.91928 18.8232 6.87553V5.73803C19.042 5.69428 19.2607 5.65053 19.5232 5.56303ZM17.7295 4.86303C17.8607 4.86303 17.9482 4.95053 17.9482 5.08178V6.70053H17.5107V5.08178C17.5107 4.95053 17.5982 4.86303 17.7295 4.86303ZM16.6357 5.73803V6.87553C16.5045 6.91928 16.417 7.00678 16.2857 7.05053C16.1545 6.61303 16.0232 6.13178 15.9357 5.56303C16.1982 5.65053 16.417 5.69428 16.6357 5.73803ZM15.8045 13.394C15.5857 13.044 15.4982 12.6503 15.5857 12.2565L16.5482 8.18778C16.6357 7.83778 16.942 7.57528 17.292 7.57528H18.167C18.517 7.57528 18.8232 7.83778 18.9107 8.18778L19.6982 11.5565L16.417 12.344V12.694V13.1315V14.269L15.8045 13.394ZM20.3545 18.863C17.2045 17.288 17.2482 14.9255 17.292 13.132V13.0445L20.3545 12.3008L23.417 13.0445V13.132C23.4607 14.882 23.4607 17.2883 20.3545 18.863Z" fill="black"/>
                                <path d="M20.3105 15.493L19.5668 14.793L18.998 15.4492L20.3543 16.6742L22.2793 14.7492L21.623 14.1367L20.3105 15.493Z" fill="black"/>
                                <path d="M13.486 11.643C13.486 11.5992 13.486 11.5992 13.4422 11.5555C13.8797 10.5055 14.186 9.10547 14.361 8.05547C14.4047 7.70547 14.3172 7.39922 14.0547 7.18047C13.7922 6.96172 13.4422 6.87422 13.136 7.00547C12.786 7.13672 12.3047 7.26797 11.7797 7.35547V7.13672C11.7797 6.52422 11.2985 6.04297 10.686 6.04297C10.0735 6.04297 9.59222 6.52422 9.59222 7.13672V7.35547C9.06721 7.26797 8.58596 7.13672 8.23596 7.00547C7.92971 6.91797 7.57971 6.96172 7.31721 7.18047C7.05471 7.39922 6.92346 7.74922 7.01096 8.05547C7.18596 9.06172 7.49221 10.4617 7.92971 11.5555C7.92971 11.5992 7.92971 11.5992 7.88596 11.643L6.57346 17.549C6.35471 18.424 6.57346 19.3427 7.09846 20.0427L9.67972 23.5427C9.89847 23.9365 10.2922 24.1115 10.7297 24.1115C11.1672 24.1115 11.561 23.9365 11.7797 23.5865L14.361 20.0865C14.886 19.3865 15.061 18.4677 14.886 17.5927L13.486 11.643ZM13.4422 7.83672H13.486L13.5297 7.88047C13.3547 8.93047 13.136 9.80547 12.8735 10.5492C12.5672 10.243 12.2172 10.068 11.7797 9.98047V8.18672C12.436 8.14297 13.0485 8.01172 13.4422 7.83672ZM10.7297 6.91797C10.861 6.91797 10.9485 7.00547 10.9485 7.13672V9.98047H10.511V7.13672C10.511 7.00547 10.5985 6.91797 10.7297 6.91797ZM7.92971 7.88047C7.97346 7.83672 7.97346 7.88047 7.97346 7.88047C8.41096 8.01172 8.97972 8.18672 9.59222 8.27422V10.068C9.19847 10.1555 8.80471 10.3742 8.49847 10.6367C8.27971 9.89297 8.06096 9.01797 7.84221 7.96797C7.92971 7.92422 7.92971 7.88047 7.92971 7.88047ZM13.6607 19.518L11.0795 23.018C10.9045 23.2367 10.5545 23.2367 10.3795 23.018L7.79821 19.518C7.40446 18.993 7.27322 18.3367 7.44822 17.7242L8.80446 11.8617C8.93571 11.2492 9.46071 10.8555 10.0732 10.8555H11.342C11.9545 10.8555 12.4795 11.293 12.6107 11.8617L14.0107 17.7677C14.1857 18.3802 14.0545 19.0365 13.6607 19.5177V19.518Z" fill="black"/>
                                <path d="M10.1609 14.532C10.2484 14.6195 10.3359 14.6633 10.4234 14.707C10.5109 14.7508 10.6422 14.7945 10.7734 14.7945C10.9047 14.7945 11.0359 14.7945 11.1234 14.707C11.2109 14.6633 11.3422 14.6195 11.3859 14.532C11.4297 14.4445 11.5172 14.357 11.5609 14.2258C11.6047 14.0945 11.6484 14.007 11.6484 13.832V13.1758H9.89844V13.8758C9.89844 14.007 9.89844 14.1383 9.98594 14.2695C10.0297 14.357 10.0734 14.4445 10.1609 14.532ZM10.2047 13.6133H11.3422V13.8758C11.3422 13.9633 11.3422 14.007 11.2984 14.0945C11.2547 14.182 11.2547 14.2258 11.1672 14.2695C11.1234 14.3133 11.0797 14.357 10.9922 14.357C10.9047 14.4008 10.8609 14.4008 10.7734 14.4008C10.6859 14.4008 10.5984 14.4008 10.5547 14.357C10.4672 14.3133 10.4234 14.3133 10.3797 14.2695C10.3359 14.2258 10.2922 14.182 10.2484 14.0945C10.2047 14.007 10.2047 13.9633 10.2047 13.8758V13.6133Z" fill="black"/>
                                <path d="M10.1609 16.3258C10.2484 16.4133 10.3359 16.457 10.4234 16.5008C10.5109 16.5445 10.6422 16.5883 10.7734 16.5883C10.9047 16.5883 11.0359 16.5883 11.1234 16.5008C11.2109 16.457 11.3422 16.4133 11.3859 16.3258C11.4297 16.2383 11.5172 16.1508 11.5609 16.0195C11.6047 15.8883 11.6484 15.8008 11.6484 15.6258V14.9258H9.89844V15.6258C9.89844 15.757 9.89844 15.8883 9.98594 16.0195C10.0297 16.1508 10.0734 16.2383 10.1609 16.3258ZM10.2047 15.3633H11.3422V15.6258C11.3422 15.7133 11.3422 15.757 11.2984 15.8445C11.2547 15.932 11.2547 15.9758 11.1672 16.0195C11.1234 16.0633 11.0797 16.107 10.9922 16.107C10.9047 16.1508 10.8609 16.1508 10.7734 16.1508C10.6859 16.1508 10.5984 16.1508 10.5547 16.107C10.4672 16.0633 10.4234 16.0633 10.3797 16.0195C10.3359 15.9758 10.2922 15.932 10.2484 15.8445C10.2047 15.757 10.2047 15.7133 10.2047 15.6258V15.3633Z" fill="black"/>
                                <path d="M11.4295 16.8945C11.342 16.807 11.2545 16.7633 11.167 16.7195C11.0357 16.6758 10.9045 16.6758 10.7732 16.6758C10.642 16.6758 10.5107 16.6758 10.4232 16.7195C10.3357 16.7633 10.2045 16.807 10.117 16.8945C10.0295 16.982 9.98574 17.0695 9.94199 17.2008C9.89824 17.332 9.85449 17.4195 9.85449 17.5945C9.85449 17.7258 9.89824 17.857 9.94199 17.9883C9.98574 18.1195 10.0295 18.207 10.117 18.2945C10.2045 18.382 10.292 18.4258 10.4232 18.4695C10.5545 18.5133 10.642 18.5133 10.7732 18.5133C10.9045 18.5133 11.0357 18.5133 11.1232 18.4695C11.2107 18.4258 11.342 18.382 11.3857 18.2945C11.4732 18.207 11.517 18.1195 11.5607 17.9883C11.6045 17.857 11.6482 17.7695 11.6482 17.5945C11.6482 17.4633 11.6045 17.332 11.5607 17.2008C11.5607 17.0695 11.517 16.982 11.4295 16.8945ZM11.2982 17.7695C11.2545 17.8133 11.2545 17.9008 11.167 17.9445C11.1232 17.9883 11.0795 18.032 10.992 18.032C10.9045 18.0758 10.8607 18.0758 10.7732 18.0758C10.6857 18.0758 10.5982 18.0758 10.5545 18.032C10.467 17.9883 10.4232 17.9883 10.3795 17.9445C10.3357 17.9008 10.292 17.857 10.2482 17.7695C10.2045 17.7258 10.2045 17.6383 10.2045 17.5508C10.2045 17.4633 10.2045 17.4195 10.2482 17.332C10.292 17.2883 10.292 17.2008 10.3795 17.157C10.4232 17.1133 10.467 17.0695 10.5545 17.0695C10.642 17.0258 10.6857 17.0258 10.7732 17.0258C10.8607 17.0258 10.9482 17.0258 10.992 17.0695C11.0795 17.1133 11.1232 17.1133 11.167 17.157C11.2107 17.2008 11.2545 17.2445 11.2982 17.332C11.342 17.4195 11.342 17.4633 11.342 17.5508C11.342 17.6383 11.342 17.7258 11.2982 17.7695Z" fill="black"/>
                                <path d="M11.5176 18.7773C11.4738 18.7336 11.4301 18.6898 11.3426 18.6461C11.2988 18.6023 11.2113 18.6023 11.1676 18.6023C11.0801 18.6023 11.0363 18.6023 10.9488 18.6461C10.9051 18.6898 10.8613 18.6898 10.8176 18.7336C10.7738 18.7773 10.7301 18.8211 10.7301 18.8648C10.6863 18.9086 10.6863 18.9523 10.6863 18.9961C10.6863 19.0398 10.6426 19.0836 10.6426 19.1273C10.6426 19.1711 10.5988 19.2148 10.5988 19.2586C10.5988 19.3023 10.5551 19.3461 10.5551 19.3461C10.5113 19.3898 10.5113 19.3898 10.4676 19.3898C10.3801 19.3898 10.3363 19.3898 10.2926 19.3461C10.2488 19.3023 10.2488 19.2586 10.2488 19.1711C10.2488 19.1273 10.2488 19.0836 10.2926 19.0398C10.2926 18.9961 10.3363 18.9523 10.3363 18.9523C10.3363 18.9086 10.3801 18.9086 10.3801 18.8648C10.3801 18.8211 10.4238 18.8211 10.4238 18.7773V18.7336C10.4238 18.7336 10.4238 18.6898 10.3801 18.6898L10.2051 18.5586C10.1613 18.6023 10.1176 18.6461 10.1176 18.6898C10.1176 18.7336 10.0738 18.7773 10.0301 18.8211C9.98633 18.8648 9.98633 18.9086 9.98633 18.9961V19.1711C9.98633 19.2586 9.98633 19.3461 10.0301 19.4336C10.0738 19.5211 10.1176 19.5648 10.1613 19.6523C10.2051 19.7398 10.2926 19.7398 10.3363 19.7836C10.3801 19.8273 10.4676 19.8273 10.5551 19.8273C10.6426 19.8273 10.6863 19.8273 10.7301 19.7836C10.7738 19.7398 10.8176 19.7398 10.8613 19.6961C10.9051 19.6523 10.9488 19.6086 10.9488 19.5648C10.9926 19.5211 10.9926 19.4773 10.9926 19.4336C10.9926 19.3898 11.0363 19.3461 11.0363 19.3023C11.0363 19.2586 11.0801 19.2148 11.0801 19.1711C11.0801 19.1273 11.1238 19.0836 11.1238 19.0836C11.1676 19.0398 11.1676 19.0398 11.2113 19.0398C11.2551 19.0398 11.2988 19.0398 11.3426 19.0836C11.3863 19.1273 11.3863 19.1711 11.3863 19.2586V19.3898C11.3863 19.4336 11.3426 19.4336 11.3426 19.4773C11.3426 19.5211 11.2988 19.5211 11.2988 19.5648V19.6086V19.6523L11.3426 19.6961L11.5176 19.7836C11.5613 19.7398 11.5613 19.6961 11.6051 19.6961C11.6488 19.6523 11.6488 19.6086 11.6488 19.5648C11.6488 19.5211 11.6926 19.4773 11.6926 19.4336V19.2586C11.6926 19.1711 11.6926 19.0836 11.6488 18.9961C11.6051 18.9086 11.5613 18.8211 11.5176 18.7773Z" fill="black"/>
                                <path d="M17.292 0.925781H18.167V3.41953H17.292V0.925781Z" fill="black"/>
                                <path d="M18.7803 2.01953H19.6553V3.76953H18.7803V2.01953Z" fill="black"/>
                                <path d="M15.8047 2.01953H16.6797V3.76953H15.8047V2.01953Z" fill="black"/>
                                <path d="M6.74883 12.0813L5.78633 8.0125C6.00508 7.44375 6.22383 6.7 6.39883 5.78125C6.44258 5.475 6.35508 5.16875 6.13633 4.95C5.91758 4.73125 5.61133 4.6875 5.30508 4.775C5.13008 4.81875 4.99883 4.8625 4.82383 4.90625C4.73633 4.425 4.29883 4.03125 3.77383 4.03125C3.24883 4.03125 2.81133 4.38125 2.72383 4.90625C2.59258 4.8625 2.41758 4.81875 2.24258 4.775C1.93633 4.6875 1.63008 4.775 1.41133 4.95C1.10508 5.125 1.01758 5.43125 1.06133 5.7375C1.23633 6.65625 1.45508 7.4 1.67383 7.96875L0.711328 12.0375C0.580078 12.6938 0.711328 13.35 1.10508 13.875L2.89883 16.325C3.11758 16.5875 3.42383 16.7625 3.73008 16.7625C4.08008 16.7625 4.38633 16.5875 4.56133 16.325L6.35508 13.875C6.74883 13.3938 6.88008 12.6938 6.74883 12.0813ZM5.52383 5.56225C5.39258 6.131 5.30508 6.61225 5.17383 7.04975C5.08633 6.96225 4.95508 6.9185 4.82383 6.87475V5.73725C5.04258 5.6935 5.26133 5.64975 5.52383 5.56225ZM3.73008 4.86225C3.86133 4.86225 3.94883 4.94975 3.94883 5.081V6.69975H3.51133V5.081C3.51133 4.94975 3.59883 4.86225 3.73008 4.86225ZM2.63633 5.73725V6.87475C2.50508 6.9185 2.41758 6.96225 2.28633 7.04975C2.15508 6.61225 2.02383 6.131 1.93633 5.56225C2.19883 5.64975 2.41758 5.6935 2.63633 5.73725ZM5.65508 13.3932L3.86133 15.8432C3.81758 15.887 3.77383 15.9307 3.73008 15.9307C3.68633 15.9307 3.64258 15.9307 3.59883 15.8432L1.80508 13.3932C1.58633 13.087 1.49883 12.6495 1.58633 12.2557L2.54883 8.187C2.63633 7.837 2.94258 7.5745 3.29258 7.5745H4.16758C4.51758 7.5745 4.82383 7.837 4.91133 8.187L5.87383 12.2557C5.96133 12.6495 5.87383 13.087 5.65508 13.3932Z" fill="black"/>
                                <path d="M3.29199 0.925781H4.16699V3.41953H3.29199V0.925781Z" fill="black"/>
                                <path d="M1.80469 2.01953H2.67969V3.76953H1.80469V2.01953Z" fill="black"/>
                                <path d="M4.78027 2.01953H5.65527V3.76953H4.78027V2.01953Z" fill="black"/>
                                </svg>