<svg width="38" height="38" viewBox="0 0 22 25" fill="none" xmlns="http://www.w3.org/2000/svg">
                                <path d="M20.7195 3.77446L10.657 0.274463C10.5637 0.241846 10.4617 0.241846 10.3684 0.274463L0.30586 3.77446C0.13086 3.83579 0.0134753 4.00044 0.0126953 4.18579V12.4983C0.0126953 21.0253 10.2632 24.6868 10.3682 24.7223C10.4616 24.7549 10.5635 24.7549 10.6569 24.7223C10.7619 24.6871 21.0124 21.0254 21.0124 12.4983V4.18579C21.0116 4.00044 20.8942 3.83579 20.7192 3.77446H20.7195ZM20.1377 12.4985C20.1377 19.866 11.7247 23.379 10.5127 23.843C9.30078 23.3793 0.887681 19.8662 0.887681 12.4985V4.49646L10.5127 1.14956L20.1377 4.49646V12.4985Z" fill="black"/>
                                <path d="M10.3819 2.43428L2.06942 5.05928C1.87977 5.11865 1.75399 5.29834 1.76317 5.49678V12.4968C1.76317 19.2868 10.0102 22.4018 10.3602 22.5333C10.4576 22.569 10.5647 22.569 10.6621 22.5333C11.0164 22.402 19.2631 19.287 19.2631 12.4968V5.49678C19.2723 5.29834 19.1465 5.11865 18.9569 5.05928L10.6444 2.43428C10.559 2.40732 10.4673 2.40732 10.3819 2.43428ZM18.3879 5.81613V12.4966C18.3879 18.1841 11.6199 21.1986 10.5129 21.6491C9.40607 21.1985 2.63792 18.1841 2.63792 12.4966V5.81613L10.5129 3.30928L18.3879 5.81613Z" fill="black"/>
                                <path d="M7.8877 8.99996V9.87496H6.5752C6.3336 9.87496 6.1377 10.0709 6.1377 10.3125V15.5625C6.1377 15.6785 6.18379 15.7898 6.26582 15.8718C6.34785 15.9539 6.45918 16 6.5752 16H14.4502C14.5662 16 14.6775 15.9539 14.7596 15.8718C14.8416 15.7898 14.8877 15.6785 14.8877 15.5625V10.3125C14.8877 10.1964 14.8416 10.0851 14.7596 10.0031C14.6775 9.92105 14.5662 9.87496 14.4502 9.87496H13.1377V8.99996C13.1377 8.06206 12.6373 7.19546 11.8252 6.72671C11.0131 6.25776 10.0123 6.25776 9.2002 6.72671C8.3881 7.19546 7.8877 8.06206 7.8877 8.99996ZM14.0127 15.125H7.0127V10.75H14.0127V15.125ZM12.2627 8.99996V9.87496H8.7627V8.99996C8.7627 8.37476 9.09629 7.79701 9.6377 7.48436C10.1791 7.17186 10.8463 7.17186 11.3877 7.48436C11.9291 7.79705 12.2627 8.37481 12.2627 8.99996Z" fill="black"/>
                                <path d="M10.5127 12.0625C10.2711 12.0625 10.0752 12.2584 10.0752 12.5V13.375C10.0752 13.6166 10.2711 13.8125 10.5127 13.8125C10.7543 13.8125 10.9502 13.6166 10.9502 13.375V12.5C10.9502 12.384 10.9041 12.2727 10.8221 12.1906C10.74 12.1086 10.6287 12.0625 10.5127 12.0625Z" fill="black"/>
                                </svg>