<svg width="32" height="32" viewBox="0 0 30 30" fill="none" xmlns="http://www.w3.org/2000/svg">
<path d="M15 29.9375C6.74999 29.9375 0.0625 23.25 0.0625 15C0.0625 6.74999 6.74999 0.0625 15 0.0625C23.25 0.0625 29.9375 6.74999 29.9375 15C29.9375 23.25 23.25 29.9375 15 29.9375ZM15 1.6875C7.68749 1.6875 1.6875 7.68749 1.6875 15C1.6875 22.3125 7.68749 28.3125 15 28.3125C22.3125 28.3125 28.3125 22.3125 28.3125 15C28.3125 7.68749 22.3125 1.6875 15 1.6875Z" fill="white"/>
<path d="M6.25 25.8125L4.75 25.125C5.1875 24.0625 6.5625 23.5 8.125 22.8125C9.625 22.125 11.5 21.3125 11.5 20.3125V18.9375C10.9375 18.5 10.0625 17.5 9.93749 16.0625C9.49999 15.625 8.8125 14.8125 8.8125 13.8125C8.8125 13.1875 9.0625 12.6875 9.25 12.375C9.125 11.6875 8.875 10.3125 8.875 9.24999C8.875 5.81249 11.25 3.5625 15 3.5625C16.0625 3.5625 17.375 3.87499 18.0625 4.62499C19.75 4.93749 21.125 6.93749 21.125 9.24999C21.125 10.75 20.875 12 20.6875 12.5625C20.875 12.875 21.0625 13.3125 21.0625 13.8125C21.0625 15 20.5 15.75 19.9375 16.125C19.8125 17.5625 19 18.5 18.5 18.9375V20.3125C18.5 21.1875 20.0625 21.75 21.5 22.3125C23.1875 22.9375 24.9375 23.5625 25.5 25L23.9375 25.5625C23.6875 24.8125 22.1875 24.3125 20.9375 23.8125C19 23.125 16.8125 22.3125 16.8125 20.3125V18.0625L17.1875 17.8125C17.25 17.8125 18.3125 17.0625 18.3125 15.625V15.0625L18.8125 14.875C18.875 14.8125 19.375 14.5625 19.375 13.8125C19.375 13.5625 19.1875 13.3125 19.125 13.25L18.8125 12.875L18.9375 12.4375C18.9375 12.4375 19.375 11.0625 19.375 9.18749C19.375 7.62499 18.5 6.18749 17.5625 6.18749H17.0625L16.8125 5.75C16.625 5.4375 15.875 5.125 14.875 5.125C12.0625 5.125 10.375 6.62499 10.375 9.18749C10.375 10.375 10.8125 12.3125 10.8125 12.3125L10.9375 12.75L10.625 13.0625C10.625 13.0625 10.375 13.375 10.375 13.6875C10.375 14.125 10.9375 14.6875 11.1875 14.9375L11.5 15.1875V15.625C11.5 17 12.6875 17.75 12.6875 17.75L13.0625 18V20.25C13.0625 22.3125 10.75 23.375 8.68749 24.25C7.81249 24.75 6.5 25.375 6.25 25.8125Z" fill="white"/>
</svg>