    <svg width="38" height="38" viewBox="0 0 41 41" fill="none"
                                xmlns="http://www.w3.org/2000/svg">
                                <path
                                    d="M40.3555 32.8579H36.8641L34.5471 30.5409C34.4305 30.4234 34.2717 30.3578 34.1054 30.3578H30.1306C30.2762 29.749 30.3555 29.1223 30.3555 28.4828C30.3555 25.0953 28.2622 22.126 25.2067 20.9235L30.9004 17.7179C31.721 17.2667 32.2305 16.3979 32.2305 15.4517C32.2305 14.0217 31.0667 12.858 29.6367 12.858H29.5369C29.1649 12.858 28.8 12.9381 28.4492 13.0974L27.2305 13.6599V5.98273C27.2305 5.76901 27.1211 5.57035 26.9412 5.45511L20.0662 1.08011C19.8611 0.949533 19.5999 0.949533 19.3948 1.08011L12.5198 5.45511C12.3399 5.57035 12.2305 5.76901 12.2305 5.98273V12.2327H7.8555C7.68921 12.2327 7.53045 12.2983 7.41354 12.4158L5.09683 14.7328H1.60547C1.25977 14.7328 0.980469 15.0121 0.980469 15.3578V22.2328C0.980469 22.5785 1.25977 22.8578 1.60547 22.8578H16.379C14.9385 24.3516 14.1053 26.3516 14.1053 28.4828C14.1053 29.641 14.3564 30.7796 14.8353 31.8335L13.5108 31.2222C13.1729 31.0654 12.7959 30.9828 12.4223 30.9828H12.328C10.8952 30.9828 9.73038 32.1477 9.73038 33.5795C9.73038 34.5159 10.2379 35.3834 11.054 35.8421L20.049 40.9021C20.1422 40.9551 20.248 40.9828 20.3554 40.9828H40.3554C40.7011 40.9828 40.9804 40.7035 40.9804 40.3578V33.4827C40.9804 33.1371 40.7011 32.8578 40.3554 32.8578L40.3555 32.8579ZM13.4805 7.23287H19.2204C19.4791 7.95858 20.1665 8.48287 20.9805 8.48287C22.0143 8.48287 22.8555 7.64166 22.8555 6.60787C22.8555 5.57408 22.0143 4.73287 20.9805 4.73287C20.1668 4.73287 19.4793 5.25714 19.2204 5.98287H14.0193L19.7305 2.34923L25.9805 6.32608V9.73287H18.9905C18.7319 9.00716 18.0444 8.48287 17.2305 8.48287C16.1967 8.48287 15.3555 9.32408 15.3555 10.3579C15.3555 11.3917 16.1967 12.2329 17.2305 12.2329C18.0441 12.2329 18.7316 11.7086 18.9905 10.9829H25.9805V14.2365L20.8429 16.6079H18.6303C18.9391 16.1517 19.1051 15.6123 19.1051 15.0454C19.1051 14.9396 19.099 14.8353 19.0876 14.7329H19.2201C19.4788 15.4586 20.1662 15.9829 20.9802 15.9829C22.014 15.9829 22.8552 15.1417 22.8552 14.1079C22.8552 13.0741 22.014 12.2329 20.9802 12.2329C20.1665 12.2329 19.479 12.7571 19.2201 13.4829H18.6241C18.1116 12.7128 17.236 12.2329 16.2929 12.2329H13.4804L13.4805 7.23287ZM20.3555 6.60787C20.3555 6.26301 20.6356 5.98287 20.9805 5.98287C21.3253 5.98287 21.6055 6.26301 21.6055 6.60787C21.6055 6.95273 21.3253 7.23287 20.9805 7.23287C20.6356 7.23287 20.3555 6.95273 20.3555 6.60787ZM17.8555 10.3579C17.8555 10.7027 17.5753 10.9829 17.2305 10.9829C16.8856 10.9829 16.6055 10.7027 16.6055 10.3579C16.6055 10.013 16.8856 9.73287 17.2305 9.73287C17.5753 9.73287 17.8555 10.013 17.8555 10.3579ZM20.3555 14.1079C20.3555 13.763 20.6356 13.4829 20.9805 13.4829C21.3253 13.4829 21.6055 13.763 21.6055 14.1079C21.6055 14.4527 21.3253 14.7329 20.9805 14.7329C20.6356 14.7329 20.3555 14.4527 20.3555 14.1079ZM2.23048 15.9829H5.35548C5.52177 15.9829 5.68053 15.9173 5.79744 15.7998L8.11416 13.4828H16.2927C16.8926 13.4828 17.4434 13.8322 17.7051 14.3916C17.8047 14.5878 17.8552 14.8074 17.8552 15.0454C17.8552 15.4636 17.6928 15.8534 17.394 16.1478C17.1708 16.3716 16.8965 16.5197 16.5765 16.5797C16.4964 16.5984 16.4015 16.6079 16.2927 16.6079H10.9802V17.8579H20.9802C21.0709 17.8579 21.1596 17.8386 21.2422 17.8004L28.9694 14.2334C29.1499 14.1511 29.3469 14.1079 29.5363 14.1079H29.6357C30.377 14.1079 30.9794 14.7111 30.9794 15.4516C30.9794 15.9421 30.7174 16.391 30.2913 16.6259L23.48 20.4616C21.5173 20.1616 19.5375 20.576 17.9138 21.6078H2.23024L2.23048 15.9829ZM15.3555 28.4829C15.3555 26.1679 16.5056 24.0261 18.4355 22.7516C19.8887 21.7753 21.7018 21.3953 23.4875 21.7229C23.4975 21.7248 23.5076 21.7265 23.5187 21.7279C26.7573 22.3448 29.1055 25.1816 29.1055 28.4829C29.1055 29.1266 29.0137 29.7541 28.8399 30.3579H27.2305V29.618C27.9562 29.3593 28.4805 28.6718 28.4805 27.8579C28.4805 26.8241 27.6393 25.9829 26.6055 25.9829C25.5717 25.9829 24.7305 26.8241 24.7305 27.8579C24.7305 28.6715 25.2548 29.359 25.9805 29.618V30.3579H25.668C24.1175 30.3579 22.8555 31.6199 22.8555 33.1704C22.8555 33.748 23.0305 34.2853 23.3304 34.7329H22.8555V27.743C23.5812 27.4843 24.1055 26.7968 24.1055 25.9829C24.1055 24.9491 23.2643 24.1079 22.2305 24.1079C21.1967 24.1079 20.3555 24.9491 20.3555 25.9829C20.3555 26.7965 20.8798 27.484 21.6055 27.743V34.7329H21.1181L20.3555 34.3811V32.8579C20.3555 32.6916 20.2899 32.5329 20.1725 32.4159L18.4805 30.7242V29.6179C19.2062 29.3593 19.7305 28.6718 19.7305 27.8579C19.7305 26.8241 18.8893 25.9829 17.8555 25.9829C16.8217 25.9829 15.9805 26.8241 15.9805 27.8579C15.9805 28.6715 16.5047 29.359 17.2305 29.6179V30.9829C17.2305 31.1492 17.296 31.3079 17.4135 31.4248L19.1055 33.1166V33.8041L16.8544 32.7647C15.8762 31.5373 15.3555 30.0609 15.3555 28.4829ZM25.9805 27.8579C25.9805 27.513 26.2606 27.2329 26.6055 27.2329C26.9503 27.2329 27.2305 27.513 27.2305 27.8579C27.2305 28.2027 26.9503 28.4829 26.6055 28.4829C26.2606 28.4829 25.9805 28.2027 25.9805 27.8579ZM21.6055 25.9829C21.6055 25.638 21.8856 25.3579 22.2305 25.3579C22.5753 25.3579 22.8555 25.638 22.8555 25.9829C22.8555 26.3277 22.5753 26.6079 22.2305 26.6079C21.8856 26.6079 21.6055 26.3277 21.6055 25.9829ZM17.2305 27.8579C17.2305 27.513 17.5106 27.2329 17.8555 27.2329C18.2003 27.2329 18.4805 27.513 18.4805 27.8579C18.4805 28.2027 18.2003 28.4829 17.8555 28.4829C17.5106 28.4829 17.2305 28.2027 17.2305 27.8579ZM39.7305 39.7329H20.519L11.6669 34.7529C11.2431 34.5147 10.98 34.066 10.98 33.5797C10.98 32.8372 11.5843 32.2329 12.3267 32.2329H12.4211C12.6155 32.2329 12.8106 32.2753 12.9855 32.3568L20.7176 35.9254C20.8002 35.9636 20.8895 35.9829 20.9802 35.9829H31.6052V34.7329H25.6677C24.8058 34.7329 24.1052 34.0323 24.1052 33.1704C24.1052 32.3085 24.8058 31.6079 25.6677 31.6079H33.8463L36.1633 33.9249C36.2799 34.0423 36.4387 34.1079 36.605 34.1079H39.73L39.7305 39.7329Z"
                                    fill="black" />
                            </svg>