 <svg width="60" height="35" viewBox="0 0 36 16" fill="none"
                                xmlns="http://www.w3.org/2000/svg">
                                <path
                                    d="M21.7781 4.01036C20.6731 4.01036 19.7781 4.906 19.7781 6.01036C19.7797 7.11443 20.674 8.00922 21.7781 8.01036C22.883 8.01036 23.7781 7.11472 23.7781 6.01036C23.7781 4.906 22.8827 4.01036 21.7781 4.01036ZM21.7781 6.81029C21.3364 6.81029 20.9781 6.45175 20.9781 6.01036C20.9781 5.56867 21.3367 5.21043 21.7781 5.21043C22.2197 5.21043 22.578 5.56897 22.578 6.01036C22.578 6.45204 22.22 6.81029 21.7781 6.81029ZM12.1788 10.8103H23.7788V12.0104H12.1788V10.8103ZM34.5788 2.97814C33.5668 2.53618 32.3876 2.99823 31.9457 4.0105H29.3785V2.0105C29.3785 1.12686 28.662 0.410645 27.7786 0.410645H8.17934C7.2957 0.410645 6.57949 1.12714 6.57949 2.0105V4.0105H4.01277C3.75245 3.41368 3.21756 2.98122 2.57949 2.85122C1.4972 2.63052 0.440842 3.32889 0.220414 4.41122C-0.000286192 5.4935 0.698093 6.54964 1.78041 6.77029C2.8627 6.99099 3.91884 6.29261 4.13949 5.21029H6.57949V14.0103C6.57949 14.8939 7.29599 15.6101 8.17934 15.6101H27.7786C28.6623 15.6101 29.3785 14.8936 29.3785 14.0103V5.21029H31.8193C31.9488 5.8484 32.3818 6.383 32.9781 6.64357C33.9901 7.08554 35.169 6.62348 35.6109 5.61122C36.0529 4.59864 35.5905 3.41979 34.5788 2.97786L34.5788 2.97814ZM2.17877 5.61043C1.73709 5.61043 1.37884 5.25189 1.37884 4.8105C1.37884 4.36882 1.73738 4.01057 2.17877 4.01057C2.62046 4.01057 2.9787 4.36911 2.9787 4.8105C2.9787 5.25219 2.62016 5.61043 2.17877 5.61043ZM28.1781 14.0104C28.1781 14.2317 27.9992 14.4105 27.7779 14.4105H8.17866C7.95796 14.4105 7.77854 14.2317 7.77854 14.0104V2.01043C7.77854 1.78973 7.95767 1.61032 8.17866 1.61032H27.7779C27.9992 1.61032 28.1781 1.78944 28.1781 2.01043V14.0104ZM33.7782 5.61043C33.3365 5.61043 32.9783 5.25189 32.9783 4.8105C32.9783 4.36882 33.3368 4.01057 33.7782 4.01057C34.2199 4.01057 34.5781 4.36911 34.5781 4.8105C34.5781 5.25219 34.2202 5.61043 33.7782 5.61043ZM14.1789 8.01057C15.2833 8.01057 16.1789 7.11493 16.1789 6.01057C16.1789 4.90622 15.2833 4.01057 14.1789 4.01057C13.0746 4.01057 12.1789 4.90622 12.1789 6.01057C12.18 7.11465 13.0746 8.00943 14.1789 8.01057ZM14.1789 5.21064C14.6206 5.21064 14.9788 5.56918 14.9788 6.01057C14.9788 6.45226 14.6203 6.8105 14.1789 6.8105C13.7372 6.8105 13.379 6.45197 13.379 6.01057C13.379 5.56889 13.737 5.21064 14.1789 5.21064Z"
                                    fill="black" />
                            </svg>