  <svg width="38" height="38" viewBox="0 0 34 32" fill="none"
                                xmlns="http://www.w3.org/2000/svg">
                                <path
                                    d="M2.625 30V1C2.625 0.447543 2.17746 0 1.625 0C1.07282 0 0.625 0.447543 0.625 1V31C0.625 31.5525 1.07254 32 1.625 32H32.425C32.9775 32 33.425 31.5525 33.425 31C33.425 30.4475 32.9775 30 32.425 30H2.625Z"
                                    fill="black" />
                                <path
                                    d="M29.9206 7.23926C28.0579 7.23926 26.5445 8.7524 26.5445 10.6154C26.5445 11.1595 26.6756 11.6757 26.9061 12.1327L22.3947 16.4695C21.9064 16.1955 21.3464 16.0406 20.7502 16.0406C20.1821 16.0406 19.6461 16.1793 19.1773 16.4299L16.739 13.9915C16.9772 13.5267 17.1123 13.0026 17.1123 12.4466C17.1123 10.5839 15.5992 9.07042 13.7362 9.07042C11.8734 9.07042 10.36 10.5836 10.36 12.4466C10.36 13.0306 10.5068 13.5824 10.7732 14.059L8.63231 16.1999C8.16356 15.9535 7.63538 15.8146 7.07146 15.8146C5.21267 15.8146 3.69531 17.3277 3.69531 19.1907C3.69531 21.0535 5.2126 22.5669 7.07146 22.5669C8.93417 22.5669 10.4476 21.0537 10.4476 19.1907C10.4476 18.6107 10.3047 18.0707 10.0425 17.5945L12.1912 15.4457C12.656 15.6882 13.18 15.823 13.7361 15.823C14.3201 15.823 14.8681 15.6762 15.3485 15.4097L17.7712 17.8325C17.5173 18.3054 17.3739 18.8453 17.3739 19.4173C17.3739 21.28 18.8871 22.7935 20.7501 22.7935C22.6128 22.7935 24.1262 21.2803 24.1262 19.4173C24.1262 18.8732 23.999 18.361 23.7685 17.9042L28.2847 13.5663C28.7691 13.8364 29.3252 13.991 29.9212 13.991C31.7839 13.991 33.2973 12.4737 33.2973 10.6148C33.2967 8.75269 31.7836 7.23926 29.9206 7.23926ZM8.46279 19.19C8.46279 19.9564 7.83918 20.58 7.07272 20.58C6.30626 20.58 5.68265 19.9564 5.68265 19.19C5.68265 18.4391 6.28226 17.8236 7.02893 17.8041C7.04484 17.8002 7.05684 17.8002 7.07246 17.8002C7.83475 17.8002 8.45446 18.4157 8.46253 19.1741L8.46279 19.19ZM13.7368 13.8362C12.9821 13.8362 12.3668 13.2327 12.3467 12.4818V12.4461C12.3467 11.6797 12.9703 11.056 13.7368 11.056H13.7725C13.7845 11.056 13.7965 11.056 13.8082 11.0599C14.5192 11.0957 15.0869 11.6635 15.1226 12.3744C15.1266 12.3984 15.1266 12.4221 15.1266 12.4461C15.1268 13.2131 14.5035 13.8362 13.7368 13.8362ZM20.7507 20.8066H20.7468C19.9845 20.8027 19.3648 20.183 19.361 19.4208V19.4169C19.361 18.6504 19.9846 18.0268 20.751 18.0268H20.775C21.5297 18.0388 22.1414 18.6585 22.1414 19.4169C22.1414 19.4369 22.1414 19.4526 22.1375 19.4724C22.1087 20.2146 21.4971 20.8066 20.7507 20.8066ZM28.5307 10.6152C28.5307 10.5993 28.5307 10.5873 28.5346 10.5717C28.5547 9.82473 29.1702 9.22537 29.9205 9.22537H29.9325C30.0516 9.22537 30.1669 9.24128 30.274 9.27309C30.7743 9.40422 31.1677 9.80908 31.2787 10.3214C31.2988 10.4165 31.3102 10.5161 31.3102 10.6155C31.3102 10.6314 31.3102 10.6434 31.3063 10.659C31.2862 11.4059 30.6707 12.0053 29.9205 12.0053H29.9085C29.1462 11.9972 28.5307 11.3775 28.5307 10.6152Z"
                                    fill="black" />
                            </svg>