<svg width="32" height="32" viewBox="0 0 33 33" fill="none" xmlns="http://www.w3.org/2000/svg">
                    <path d="M10.4866 32.9856C10.354 32.9856 10.2267 32.933 10.133 32.8392L5.63298 28.3392C5.53923 28.2455 5.48633 28.118 5.48633 27.9854C5.48633 27.8526 5.53923 27.7254 5.63298 27.6316L7.13298 26.1345V26.1348C7.32829 25.9395 7.64481 25.9395 7.84012 26.1348L12.3401 30.6348C12.4339 30.7285 12.4868 30.8558 12.4868 30.9883C12.4868 31.1212 12.4339 31.2484 12.3401 31.3421L10.8401 32.8392C10.7464 32.933 10.6191 32.9856 10.4866 32.9856ZM6.69415 27.9856L10.4866 31.7792L11.279 30.9881L7.48655 27.1952L6.69415 27.9856Z" fill="white"/>
                    <path d="M25.9047 24.7114C25.5862 24.2513 25.2107 23.8337 24.7872 23.4678C24.3848 23.123 23.8618 22.952 23.3332 22.9924C22.819 23.027 22.3392 23.264 21.9993 23.6513L19.5948 25.9863H18.2187C18.3951 25.6825 18.4877 25.3375 18.4873 24.9863V23.9863C18.4884 23.727 18.2911 23.51 18.0328 23.4863L12.4873 22.9863C12.0379 23.0028 11.6094 23.1803 11.2797 23.4863L8.94303 25.8247H8.94325C8.74793 26.0203 8.74816 26.3368 8.94347 26.5321C9.13879 26.7274 9.45552 26.7272 9.65062 26.5319L11.9872 24.1932C12.118 24.0854 12.275 24.014 12.4422 23.9863L17.4872 24.4428V24.9863C17.4872 25.2515 17.3819 25.506 17.1944 25.6935C17.0069 25.881 16.7524 25.9863 16.4872 25.9863H14.4872C14.2111 25.9863 13.9872 26.2102 13.9872 26.4863C13.9872 26.7624 14.2111 26.9863 14.4872 26.9863H19.7973C19.9279 26.9868 20.0535 26.9363 20.1473 26.8453L22.7303 24.3352V24.3354C22.9022 24.1334 23.1482 24.0089 23.4127 23.9899C23.6774 23.9669 23.9399 24.0524 24.1401 24.2267C24.3914 24.4452 24.6234 24.6854 24.8327 24.9444L21.2461 28.6363C21.0564 28.8582 20.7791 28.9861 20.4872 28.9863H12.6055C12.3294 28.9863 12.1055 29.2102 12.1055 29.4863C12.1055 29.7624 12.3294 29.9863 12.6055 29.9863H20.4872C21.0618 29.9897 21.6091 29.7428 21.9872 29.3104L25.8461 25.3363C26.0104 25.1678 26.0347 24.9075 25.9046 24.7113L25.9047 24.7114Z" fill="white"/>
                    <path d="M24.2582 10.6359C24.1205 10.6359 23.9888 10.5792 23.8944 10.479C23.5393 10.1029 23.1547 9.75577 22.7444 9.44079C22.6357 9.36155 22.5636 9.24169 22.5442 9.10865C22.525 8.97539 22.5603 8.84013 22.6419 8.73321C22.7239 8.62629 22.8451 8.55687 22.9788 8.54079C23.1123 8.5245 23.2469 8.56267 23.3518 8.64682C23.806 8.99392 24.2316 9.37694 24.6243 9.79237C24.7616 9.93746 24.7991 10.1504 24.7201 10.3337C24.6411 10.5171 24.4605 10.6359 24.2609 10.6359L24.2582 10.6359Z" fill="white"/>
                    <path d="M25.2746 23.0817C25.0898 23.0813 24.9201 22.979 24.8335 22.8159C24.7471 22.6525 24.7576 22.4547 24.8612 22.3016C25.2766 21.6804 25.6174 21.0123 25.8762 20.3112C25.9768 20.0585 26.261 19.9326 26.5156 20.0279C26.7703 20.123 26.9022 20.4045 26.8125 20.6612C26.5261 21.4361 26.1491 22.1748 25.6891 22.8612C25.5962 22.9989 25.4409 23.0815 25.2746 23.0817Z" fill="black"/>
                    <path d="M9.62031 24.2312C9.48013 24.2314 9.3462 24.1725 9.25134 24.0691C8.34128 23.0785 7.63145 21.9211 7.16094 20.6611C7.07121 20.4044 7.20313 20.1231 7.45781 20.0278C7.7125 19.9327 7.99665 20.0586 8.0973 20.3111C8.52274 21.4505 9.16427 22.4972 9.98678 23.3932C10.1209 23.5392 10.1558 23.7508 10.0761 23.9325C9.99616 24.114 9.81669 24.2312 9.61826 24.2312L9.62031 24.2312Z" fill="white"/>
                    <path d="M9.22851 11.1803C9.03565 11.1803 8.85998 11.0694 8.77695 10.8951C8.69414 10.7209 8.71892 10.5145 8.84057 10.3649C9.38722 9.69841 10.0131 9.10109 10.7046 8.58635C10.9256 8.42073 11.239 8.46537 11.4046 8.68635C11.5702 8.90733 11.5256 9.22073 11.3046 9.38635C10.6785 9.85175 10.1118 10.3922 9.61714 10.9953C9.52205 11.1125 9.3794 11.1803 9.22851 11.1803Z" fill="white"/>
                    <path d="M32.4862 19.4863H22.4862C22.3324 19.4863 22.1871 19.4153 22.0923 19.2941C21.9976 19.1727 21.9639 19.0147 22.0012 18.8653L23.0012 14.8653C23.0568 14.6426 23.2568 14.4863 23.4862 14.4863H24.9862C25.2624 14.4863 25.4862 14.7102 25.4862 14.9863C25.4862 15.2624 25.2624 15.4863 24.9862 15.4863H23.8766L23.1266 18.4863H31.8461L31.0961 15.4863H28.9865C28.7104 15.4863 28.4865 15.2624 28.4865 14.9863C28.4865 14.7102 28.7104 14.4863 28.9865 14.4863H31.4865C31.7159 14.4863 31.9159 14.6426 31.9715 14.8653L32.9715 18.8653C33.0088 19.0147 32.9751 19.1727 32.8804 19.2941C32.7856 19.4153 32.6403 19.4863 32.4865 19.4863H32.4862Z" fill="white"/>
                    <path d="M29.9863 11.4859C29.9861 10.852 29.7452 10.2418 29.3122 9.77856C28.8789 9.31561 28.2863 9.03456 27.6537 8.99193C27.0212 8.94952 26.3959 9.14907 25.9051 9.55019C25.414 9.95108 25.0937 10.5236 25.0088 11.152C24.924 11.7803 25.0809 12.4174 25.4481 12.9341C25.8153 13.4511 26.3651 13.8091 26.9863 13.9359V14.6778L26.7097 14.5395C26.4626 14.416 26.1622 14.5162 26.0388 14.7633C25.9153 15.0104 26.0155 15.3109 26.2629 15.4343L26.9863 15.7948V16.4859C26.9863 16.762 27.2102 16.9859 27.4863 16.9859C27.7624 16.9859 27.9863 16.762 27.9863 16.4859V13.9359C28.5506 13.82 29.0577 13.5131 29.4222 13.0667C29.7865 12.6203 29.9859 12.062 29.9863 11.4859ZM27.4863 12.9859C27.0886 12.9859 26.7068 12.8279 26.4256 12.5466C26.1444 12.2654 25.9863 11.8837 25.9863 11.486C25.9863 11.0882 26.1444 10.7065 26.4256 10.4253C26.7069 10.1441 27.0886 9.98599 27.4863 9.98599C27.884 9.98599 28.2658 10.144 28.547 10.4253C28.8282 10.7065 28.9863 11.0882 28.9863 11.486C28.9863 11.8837 28.8283 12.2654 28.547 12.5466C28.2658 12.8278 27.884 12.9859 27.4863 12.9859Z" fill="white"/>
                    <path d="M11.7101 13.0391L6.71014 10.5391C6.56952 10.4687 6.40389 10.4687 6.26326 10.5391L1.26326 13.0391C1.01594 13.1625 0.91572 13.4629 1.03915 13.71C1.16259 13.9574 1.46304 14.0576 1.71013 13.9341L1.98669 13.7955V18.9866C1.98669 19.1192 2.03937 19.2464 2.13311 19.3402C2.22686 19.4339 2.3541 19.4866 2.48669 19.4866H10.4867C10.6193 19.4866 10.7465 19.4339 10.8403 19.3402C10.934 19.2464 10.9867 19.1192 10.9867 18.9866V13.7955L11.2632 13.9339V13.9341C11.5103 14.0576 11.8108 13.9574 11.9342 13.71C12.0577 13.4629 11.9575 13.1625 11.7101 13.0391ZM9.98671 18.4866H5.98671V16.4866H6.98671V17.4866C6.98671 17.7627 7.21059 17.9866 7.48671 17.9866C7.76282 17.9866 7.98671 17.7627 7.98671 17.4866V15.9866C7.98671 15.854 7.93403 15.7268 7.84028 15.633C7.74653 15.5393 7.6193 15.4866 7.48671 15.4866H5.48671C5.21059 15.4866 4.98671 15.7105 4.98671 15.9866V18.4866H2.98671V13.2955L6.48671 11.5455L9.98671 13.2955V18.4866Z" fill="white"/>
                    <path d="M6.98633 14.4863H5.98633C5.71021 14.4863 5.48633 14.2624 5.48633 13.9863C5.48633 13.7102 5.71021 13.4863 5.98633 13.4863H6.98633C7.26244 13.4863 7.48633 13.7102 7.48633 13.9863C7.48633 14.2624 7.26244 14.4863 6.98633 14.4863Z" fill="white"/>
                    <path d="M24.0863 3.99638L21.8517 3.54928L20.9517 1.29928C20.8754 1.10955 20.691 0.985662 20.4863 0.986331H14.4863C14.2816 0.986331 14.0977 1.11089 14.0218 1.30084L13.1218 3.55084L10.8863 3.99638C10.6535 4.04392 10.4863 4.24861 10.4863 4.48633V7.48633C10.4863 7.61892 10.539 7.74615 10.6328 7.8399C10.7265 7.93365 10.8537 7.98633 10.9863 7.98633H12.5573C12.7209 8.62027 13.1846 9.13387 13.7984 9.36153C14.4122 9.58921 15.0986 9.50193 15.6359 9.12805C16.1734 8.75417 16.4939 8.14102 16.4939 7.48634C16.4939 6.83165 16.1734 6.21845 15.6359 5.84462C15.0986 5.47074 14.4122 5.38346 13.7984 5.61114C13.1846 5.83882 12.721 6.35246 12.5573 6.98634H11.4863V4.89594L13.5863 4.47653V4.4763C13.7522 4.44327 13.8899 4.32876 13.9528 4.17184L14.8247 1.98635H16.9863V3.48635H15.9863C15.7102 3.48635 15.4863 3.71024 15.4863 3.98635C15.4863 4.26247 15.7102 4.48635 15.9863 4.48635H21.4363L23.4863 4.89595V6.98635C23.2102 6.98635 22.9863 7.21024 22.9863 7.48635C22.9863 7.76247 23.2102 7.98635 23.4863 7.98635H23.9863C24.1189 7.98635 24.2462 7.93367 24.3399 7.83993C24.4337 7.74618 24.4863 7.61894 24.4863 7.48635V4.48635C24.4863 4.24863 24.3191 4.04392 24.0863 3.99638ZM14.4863 6.48632C14.7515 6.48632 15.0059 6.59168 15.1934 6.77918C15.3809 6.96667 15.4863 7.22114 15.4863 7.48632C15.4863 7.7515 15.3809 8.00597 15.1934 8.19346C15.0059 8.38096 14.7515 8.48632 14.4863 8.48632C14.2211 8.48632 13.9666 8.38096 13.7792 8.19346C13.5917 8.00597 13.4863 7.7515 13.4863 7.48632C13.4863 7.22114 13.5917 6.96667 13.7792 6.77918C13.9666 6.59168 14.2211 6.48632 14.4863 6.48632ZM17.9863 1.98632H20.1479L20.7479 3.48632H17.9863V1.98632Z" fill="white"/>
                    <path d="M20.4863 5.48635C20.0441 5.48791 19.6151 5.63612 19.266 5.90755C18.9171 6.17898 18.6678 6.55824 18.5573 6.98635H17.4863C17.2102 6.98635 16.9863 7.21024 16.9863 7.48635C16.9863 7.76247 17.2102 7.98635 17.4863 7.98635H18.5573C18.6834 8.47051 18.9868 8.88972 19.4073 9.16092C19.8278 9.43191 20.335 9.53526 20.828 9.45043C21.3211 9.36561 21.7642 9.09865 22.07 8.70243C22.3756 8.30645 22.5213 7.81003 22.4785 7.31135C22.4354 6.81291 22.2068 6.3486 21.8378 6.01066C21.4691 5.67271 20.9867 5.48568 20.4863 5.48635ZM20.4863 8.48635C20.2211 8.48635 19.9666 8.38099 19.7791 8.19349C19.5916 8.00599 19.4863 7.75152 19.4863 7.48635C19.4863 7.22117 19.5916 6.9667 19.7791 6.7792C19.9666 6.59171 20.2211 6.48635 20.4863 6.48635C20.7514 6.48635 21.0059 6.59171 21.1934 6.7792C21.3809 6.9667 21.4863 7.22117 21.4863 7.48635C21.4863 7.75152 21.3809 8.00599 21.1934 8.19349C21.0059 8.38099 20.7514 8.48635 20.4863 8.48635Z" fill="white"/>
                    </svg>