<svg width="50" height="60" viewBox="0 0 32 32" fill="none"
                                xmlns="http://www.w3.org/2000/svg">
                                <path
                                    d="M22.86 23.4817C22.7601 23.2858 22.8399 23.0456 23.0361 22.9457C24.7722 22.0695 26.1801 20.7657 27.1719 19.1976L26.1359 18.5977C25.944 18.4858 25.8798 18.2417 25.9881 18.0497C26.1 17.8578 26.3441 17.7936 26.5361 17.9018L27.576 18.5017C28.288 17.1496 28.696 15.6337 28.756 14.0497H27.5679C27.348 14.0497 27.1678 13.8698 27.1678 13.6496C27.1678 13.4297 27.3478 13.2495 27.5679 13.2495H28.756C28.696 11.6496 28.2719 10.1376 27.564 8.80143L26.5361 9.39741C26.4722 9.4334 26.4041 9.44931 26.336 9.44931C26.1959 9.44931 26.064 9.37732 25.9881 9.24925C25.8762 9.05729 25.944 8.81314 26.1359 8.70126L27.1639 8.10918C26.3357 6.79725 25.2199 5.68504 23.9077 4.85304L23.3157 5.88096C23.2398 6.00904 23.1078 6.08102 22.9677 6.08102C22.8996 6.08102 22.8318 6.06512 22.7677 6.02912C22.5757 5.91724 22.5115 5.6731 22.6198 5.48113L23.2158 4.4532C21.8801 3.74952 20.3681 3.3257 18.7679 3.2657V4.45377C18.7679 4.67364 18.5879 4.85389 18.3678 4.85389C18.1479 4.85389 17.9677 4.67392 17.9677 4.45377V3.2657C16.3798 3.32569 14.8636 3.73362 13.5157 4.4457L14.1156 5.48563C14.2274 5.6776 14.1596 5.92174 13.9677 6.03362C13.9038 6.06962 13.8357 6.08552 13.7676 6.08552C13.6276 6.08552 13.4956 6.01354 13.4197 5.88547L12.8198 4.84946C11.2517 5.83746 9.94788 7.24961 9.07173 8.98532C8.97185 9.18119 8.73161 9.26127 8.53574 9.16138C8.33987 9.06149 8.25979 8.82126 8.35968 8.62539C10.2799 4.8176 14.1119 2.45381 18.3683 2.45381C24.5443 2.45381 29.5683 7.47782 29.5683 13.6538C29.5683 17.91 27.2041 21.7417 23.3964 23.6617C23.3403 23.6896 23.2764 23.7058 23.2164 23.7058C23.0722 23.7013 22.9321 23.6215 22.8601 23.4814L22.86 23.4817ZM18.3681 0.053803C13.492 0.053803 8.96381 2.68966 6.5481 6.92995C6.32823 7.31388 6.46411 7.80187 6.84804 8.02202C7.23197 8.24188 7.71997 8.106 7.94011 7.72208C10.0721 3.97793 14.0679 1.65372 18.368 1.65372C24.984 1.65372 30.368 7.03765 30.368 13.6537C30.368 17.9536 28.044 21.9494 24.296 24.0859C23.912 24.3057 23.7801 24.7937 23.996 25.1779C24.1439 25.438 24.412 25.5819 24.6919 25.5819C24.8278 25.5819 24.9639 25.5499 25.0878 25.4779C29.332 23.0579 31.9678 18.53 31.9678 13.6536C31.9678 6.15359 25.868 0.0535889 18.3678 0.0535889L18.3681 0.053803ZM18.3681 6.45395C18.1482 6.45395 17.968 6.63391 17.968 6.85406V13.654C17.968 13.8739 18.1479 14.0541 18.3681 14.0541H23.5682C23.788 14.0541 23.9683 13.8741 23.9683 13.654C23.9683 13.4341 23.7883 13.2539 23.5682 13.2539H18.768V6.85373C18.768 6.63387 18.588 6.45395 18.3681 6.45395ZM23.12 25.2739C24.2121 26.366 24.2121 28.1419 23.12 29.234L22.3762 29.9779C21.0522 31.3018 19.3081 31.9659 17.5682 31.9659C15.8282 31.9659 14.0841 31.3018 12.7602 29.9779L2.04374 19.2622C-0.60833 16.6101 -0.60833 12.2982 2.04374 9.64645L2.7876 8.90259C3.87967 7.81052 5.6556 7.81052 6.74767 8.90259L8.71974 10.8747C9.24764 11.4026 9.53974 12.1065 9.53974 12.8546C9.53974 13.6027 9.24761 14.3066 8.71974 14.8345L8.23174 15.3225C7.60786 15.9464 7.60786 16.9626 8.23174 17.5864L14.4357 23.7904C15.0596 24.4143 16.0757 24.4143 16.6996 23.7904L17.1876 23.3024C17.7155 22.7745 18.4195 22.4824 19.1675 22.4824C19.9156 22.4824 20.6195 22.7745 21.1475 23.3024L23.12 25.2739ZM21.988 26.4062L20.016 24.4342C19.548 23.9662 18.788 23.9662 18.3201 24.4342L18.216 24.5382L18.6521 24.9743C18.8081 25.1303 18.8081 25.3823 18.6521 25.5382C18.5721 25.6141 18.4719 25.654 18.3681 25.654C18.264 25.654 18.1641 25.6141 18.0841 25.538L17.6401 25.094C16.384 26.166 14.4923 26.11 13.3042 24.9222L7.09999 18.7182C5.91192 17.5302 5.85613 15.6382 6.92812 14.3823L6.08412 13.5383C5.92815 13.3823 5.92815 13.1304 6.08412 12.9744C6.24009 12.8184 6.49204 12.8184 6.64801 12.9744L7.48394 13.8103L7.58801 13.7063C8.05593 13.2384 8.05593 12.4783 7.58801 12.0104L5.61594 10.0383C5.38408 9.80648 5.07604 9.68623 4.76801 9.68623C4.45998 9.68623 4.15194 9.8023 3.92008 10.0383L3.81601 10.1424L4.25212 10.5785C4.40809 10.7345 4.40809 10.9864 4.25212 11.1424C4.17204 11.2141 4.07216 11.2543 3.96808 11.2543C3.864 11.2543 3.76411 11.2144 3.68403 11.1382L3.24793 10.7021L3.17203 10.778C1.14411 12.8059 1.14411 16.1062 3.17203 18.1302L13.8878 28.8459C15.9157 30.8738 19.2159 30.8738 21.2399 28.8459L21.3158 28.77L20.4799 27.9341C20.3239 27.7781 20.3239 27.5261 20.4799 27.3702C20.6358 27.2142 20.8878 27.2142 21.0438 27.3702L21.8797 28.2061L21.9838 28.102C22.4559 27.6341 22.4559 26.8741 21.9879 26.4062L21.988 26.4062ZM5.16803 11.6541C4.94816 11.6541 4.76791 11.8341 4.76791 12.0542C4.76791 12.2741 4.94788 12.4543 5.16803 12.4543C5.38789 12.4543 5.56814 12.2744 5.56814 12.0542C5.56786 11.8343 5.3879 11.6541 5.16803 11.6541ZM19.568 26.0541C19.3482 26.0541 19.1679 26.2341 19.1679 26.4542C19.1679 26.6741 19.3479 26.8543 19.568 26.8543C19.7879 26.8543 19.9681 26.6744 19.9681 26.4542C19.9681 26.2341 19.7882 26.0541 19.568 26.0541Z"
                                    fill="white" />
                            </svg>