<svg width="60" height="60" viewBox="0 0 41 34" fill="none"
                                xmlns="http://www.w3.org/2000/svg">
                                <path
                                    d="M34.6024 11.6544C34.392 11.381 33.9997 11.3299 33.726 11.54L28.5273 15.5391C28.8357 15.8237 29.0943 16.158 29.2924 16.5277L34.4883 12.5311C34.7617 12.3204 34.8131 11.9281 34.6024 11.6544Z"
                                    fill="white" />
                                <path
                                    d="M28.4805 18.2858C28.4805 17.6229 28.2171 16.987 27.7483 16.518C27.2793 16.0492 26.6434 15.7858 25.9805 15.7858C25.3175 15.7858 24.6816 16.0492 24.2126 16.518C23.7439 16.987 23.4805 17.6229 23.4805 18.2858C23.4805 18.9488 23.7439 19.5847 24.2126 20.0537C24.6816 20.5224 25.3175 20.7858 25.9805 20.7858C26.6434 20.785 27.2788 20.5213 27.7475 20.0528C28.2159 19.5841 28.4796 18.9488 28.4805 18.2858ZM25.9805 19.5358C25.649 19.5358 25.3309 19.4041 25.0965 19.1698C24.8622 18.9354 24.7305 18.6173 24.7305 18.2858C24.7305 17.9544 24.8622 17.6363 25.0965 17.4019C25.3309 17.1675 25.649 17.0358 25.9805 17.0358C26.3119 17.0358 26.63 17.1675 26.8644 17.4019C27.0988 17.6363 27.2305 17.9544 27.2305 18.2858C27.2302 18.6173 27.0982 18.9351 26.8641 19.1695C26.6297 19.4036 26.3119 19.5355 25.9805 19.5358Z"
                                    fill="white" />
                                <path
                                    d="M25.3555 28.9108V30.1608C25.3555 30.506 25.6353 30.7858 25.9805 30.7858C26.3256 30.7858 26.6055 30.506 26.6055 30.1608V28.9108C26.6055 28.5657 26.3256 28.2858 25.9805 28.2858C25.6353 28.2858 25.3555 28.5657 25.3555 28.9108Z"
                                    fill="white" />
                                <path
                                    d="M37.8555 18.9108C38.2006 18.9108 38.4805 18.631 38.4805 18.2858C38.4805 17.9407 38.2006 17.6608 37.8555 17.6608H36.6055C36.2603 17.6608 35.9805 17.9407 35.9805 18.2858C35.9805 18.631 36.2603 18.9108 36.6055 18.9108H37.8555Z"
                                    fill="white" />
                                <path
                                    d="M33.5971 24.7065C33.346 24.4696 32.9506 24.4811 32.7134 24.7319C32.4765 24.983 32.488 25.3784 32.7388 25.6156L33.6476 26.4736V26.4733C33.9001 26.7063 34.2924 26.6951 34.5313 26.4479C34.6451 26.3274 34.7062 26.1666 34.7014 26.0009C34.6967 25.8355 34.6264 25.6784 34.5059 25.5645L33.5971 24.7065Z"
                                    fill="white" />
                                <path
                                    d="M18.3351 24.7065L17.4263 25.5645C17.1755 25.8014 17.164 26.197 17.4009 26.4479C17.6381 26.699 18.0335 26.7101 18.2846 26.4732L19.1934 25.6152V25.6155C19.4439 25.3784 19.4548 24.9833 19.2182 24.7325C18.9813 24.4819 18.5862 24.4702 18.3351 24.7065Z"
                                    fill="white" />
                                <path
                                    d="M25.4045 4.50654C25.6104 4.52328 25.8163 4.47501 25.9932 4.36814C26.1489 4.24956 26.2404 4.06513 26.241 3.86954V2.85311L28.9556 5.39804L26.241 7.7694V6.77918C26.2511 6.59531 26.1858 6.41534 26.0596 6.28085C25.9338 6.14665 25.7583 6.06964 25.5742 6.06768C23.0585 6.14162 20.628 6.99654 18.6199 8.51382C16.6122 10.0311 15.1258 12.1358 14.368 14.5356H14.4182C14.8303 14.5356 15.2307 14.6721 15.5569 14.9234C16.2045 12.871 17.4467 11.0568 19.1261 9.71059C20.8055 8.36459 22.8468 7.54737 24.991 7.36209V9.1453C24.991 9.39056 25.1344 9.61294 25.3574 9.71422C25.5806 9.81578 25.8426 9.77728 26.027 9.616L30.2979 5.885V5.88528C30.431 5.76893 30.5089 5.60208 30.5119 5.42546C30.515 5.24884 30.4433 5.0792 30.3144 4.95838L26.0435 0.954738C25.8618 0.78426 25.5962 0.738224 25.3677 0.837274C25.1389 0.936324 24.991 1.1615 24.991 1.41065V3.2798C21.8325 3.48097 18.8192 4.67908 16.3853 6.70165C13.9509 8.72423 12.2212 11.4673 11.4453 14.5359H12.7411C13.5176 11.7385 15.1624 9.26001 17.4384 7.45751C19.7143 5.65508 22.504 4.62187 25.4048 4.50687L25.4045 4.50654Z"
                                    fill="white" />
                                <path
                                    d="M33.8647 5.48511C33.7238 5.39749 33.5542 5.36959 33.3926 5.40754C33.2311 5.44521 33.0913 5.54566 33.004 5.68656C32.9166 5.82774 32.8887 5.99739 32.9267 6.15894C32.9646 6.32021 33.0651 6.45999 33.2063 6.54733C35.6284 8.0359 37.5299 10.2379 38.6499 12.8509C39.7699 15.4642 40.0533 18.3598 39.461 21.1402C38.8686 23.9206 37.4297 26.4496 35.3418 28.3795C33.2542 30.3092 30.62 31.5449 27.8018 31.9171C24.9832 32.2893 22.1185 31.7793 19.6018 30.4575C17.0848 29.1358 15.039 27.0669 13.7453 24.5354H12.3555C13.668 27.3783 15.8368 29.7393 18.5583 31.2876C21.2799 32.8362 24.4177 33.4941 27.5319 33.1699C30.6463 32.8454 33.581 31.5547 35.9248 29.4788C38.2685 27.4028 39.9044 24.6453 40.6028 21.593C41.3011 18.5406 41.0269 15.3464 39.8185 12.458C38.6103 9.5694 36.5285 7.13133 33.865 5.48512L33.8647 5.48511Z"
                                    fill="white" />
                                <path
                                    d="M8.71484 17.0358H14.418C14.7631 17.0358 15.043 16.756 15.043 16.4108C15.043 16.0657 14.7631 15.7858 14.418 15.7858H8.71484C8.3697 15.7858 8.08984 16.0657 8.08984 16.4108C8.08984 16.756 8.3697 17.0358 8.71484 17.0358Z"
                                    fill="white" />
                                <path
                                    d="M15.043 22.6608C15.043 22.3157 14.7631 22.0358 14.418 22.0358H8.71484C8.3697 22.0358 8.08984 22.3157 8.08984 22.6608C8.08984 23.006 8.3697 23.2858 8.71484 23.2858H14.418C14.7631 23.2858 15.043 23.006 15.043 22.6608Z"
                                    fill="white" />
                                <path
                                    d="M13.7933 19.5358C13.7933 19.1907 13.5135 18.9108 13.1683 18.9108H1.60547C1.26033 18.9108 0.980469 19.1907 0.980469 19.5358C0.980469 19.881 1.26033 20.1608 1.60547 20.1608H13.1683C13.5135 20.1608 13.7933 19.881 13.7933 19.5358Z"
                                    fill="white" />
                                <path
                                    d="M5.04297 17.0358H6.29297C6.63811 17.0358 6.91797 16.756 6.91797 16.4108C6.91797 16.0657 6.63811 15.7858 6.29297 15.7858H5.04297C4.69783 15.7858 4.41797 16.0657 4.41797 16.4108C4.41797 16.756 4.69783 17.0358 5.04297 17.0358Z"
                                    fill="white" />
                                <path
                                    d="M6.29297 22.0358H5.04297C4.69783 22.0358 4.41797 22.3157 4.41797 22.6608C4.41797 23.006 4.69783 23.2858 5.04297 23.2858H6.29297C6.63811 23.2858 6.91797 23.006 6.91797 22.6608C6.91797 22.3157 6.63811 22.0358 6.29297 22.0358Z"
                                    fill="white" />
                            </svg>