<svg width="32" height="32" viewBox="0 0 22 22" fill="none" xmlns="http://www.w3.org/2000/svg">
<path d="M15.1123 4.1952C15.4931 3.63203 15.8451 3.33137 16.1332 3.33137C17.0357 3.33137 18.6933 6.24657 18.6933 11.0114C18.6933 15.7762 17.0357 18.6914 16.1332 18.6914C15.4549 18.6914 14.354 17.0465 13.8484 14.2115H16.1332L12.2931 10.3715L8.45312 14.2115H11.2563C11.8386 18.0514 13.4962 21.2515 16.1331 21.2515C19.4931 21.2515 21.2532 16.0995 21.2532 11.0115C21.2532 5.92349 19.4931 0.771484 16.1333 0.771484C15.3235 0.779074 14.5451 1.08555 13.9476 1.63217C14.4286 2.44131 14.8192 3.30091 15.1123 4.19531L15.1123 4.1952Z" fill="white"/>
<path d="M6.16852 7.81148C6.67723 4.97623 7.76852 3.3316 8.45332 3.3316C9.13812 3.3316 10.2326 4.97646 10.7413 7.81148H13.3301C12.7478 3.97154 11.0902 0.771484 8.45332 0.771484C5.81647 0.771484 4.15578 3.97148 3.57344 7.81148H0.773438L4.61338 11.6514L8.45332 7.81148H6.16852Z" fill="white"/>
<path d="M9.47567 17.827C9.09486 18.3902 8.74287 18.6908 8.45493 18.6908C7.77658 18.6908 6.67567 17.046 6.16698 14.2109H3.57812C4.16047 18.0509 5.81807 21.2509 8.45493 21.2509C9.26475 21.2433 10.0431 20.9369 10.6406 20.3903C10.1596 19.5811 9.76898 18.7215 9.47567 17.8271V17.827Z" fill="white"/>
</svg>