<svg width="32" height="32" viewBox="0 0 33 33" fill="none" xmlns="http://www.w3.org/2000/svg">
<path d="M3.84529 26.7475H13.9339V30.1336H11.0091C10.8689 30.1336 10.755 30.2473 10.755 30.3877V32.7325C10.755 32.8727 10.8687 32.9865 11.0091 32.9865H22.9588C23.099 32.9865 23.2128 32.8729 23.2128 32.7325V30.3874C23.2128 30.2473 23.0992 30.1334 22.9588 30.1334H20.034V26.7472H30.1225C31.7004 26.7472 32.9841 25.4635 32.9841 23.8856V3.84793C32.9841 2.27004 31.7004 0.986328 30.1225 0.986328H3.84598C2.26809 0.986328 0.984375 2.27004 0.984375 3.84793V23.8856C0.984375 25.4638 2.26809 26.7475 3.84598 26.7475H3.84529ZM22.7047 32.4783H11.263V30.6413H22.7047V32.4783ZM19.5261 30.1335H14.442V26.7473H19.5261V30.1335ZM32.4759 7.63404H31.1118C30.9716 7.63404 30.8578 7.74766 30.8578 7.88806C30.8578 8.02824 30.9714 8.14208 31.1118 8.14208L32.4759 8.14185V13.6128H29.8819L26.408 8.14185H26.7549C26.895 8.14185 27.0089 8.02824 27.0089 7.88784C27.0089 7.74766 26.8953 7.63382 26.7549 7.63382H25.1368C24.9966 7.63382 24.8828 7.74744 24.8828 7.88784C24.8828 8.02801 24.9964 8.14185 25.1368 8.14185H25.4381L16.9838 19.4224L8.52956 8.14185H8.83089C8.97107 8.14185 9.08491 8.02824 9.08491 7.88784C9.08491 7.74766 8.97129 7.63382 8.83089 7.63382L7.21284 7.63404C7.07266 7.63404 6.95882 7.74766 6.95882 7.88806C6.95882 8.02824 7.07244 8.14208 7.21284 8.14208H7.55971L4.08583 13.6131H1.49205V8.14208H2.85611C2.99629 8.14208 3.11013 8.02846 3.11013 7.88806C3.11013 7.74788 2.99651 7.63404 2.85611 7.63404H1.49205V4.76107H32.4761L32.4759 7.63404ZM1.49186 20.0998H2.85592C2.9961 20.0998 3.10994 19.9861 3.10994 19.8457C3.10994 19.7056 2.99632 19.5917 2.85592 19.5917H1.49186V14.1208H4.22535C4.31218 14.1208 4.3932 14.0763 4.43985 14.0029L8.03917 8.33438L16.4763 19.5915H16.175C16.0348 19.5915 15.921 19.7051 15.921 19.8455C15.921 19.9857 16.0346 20.0996 16.175 20.0996H17.793C17.9332 20.0996 18.0471 19.9859 18.0471 19.8455C18.0471 19.7054 17.9334 19.5915 17.793 19.5915H17.4917L25.9288 8.33438L29.5282 14.0029C29.5748 14.0763 29.6556 14.1208 29.7427 14.1208H32.4759V19.5917H31.1119C30.9717 19.5917 30.8578 19.7053 30.8578 19.8457C30.8578 19.9859 30.9715 20.0998 31.1119 20.0998H32.4759V22.9727H1.49192L1.49186 20.0998ZM3.84546 1.49461H30.122C31.4198 1.49461 32.4756 2.55044 32.4756 3.84821V4.25312H1.49163V3.84821C1.49163 2.55044 2.54746 1.49461 3.84523 1.49461H3.84546ZM1.49186 23.4809H32.4759V23.8858C32.4759 25.1836 31.42 26.2396 30.1223 26.2396H3.84512C2.54735 26.2396 1.49152 25.1838 1.49152 23.8858L1.49186 23.4809Z" fill="white"/>
<path d="M16.1759 8.14085H17.7939C17.9341 8.14085 18.048 8.02723 18.048 7.88683C18.048 7.74665 17.9343 7.63281 17.7939 7.63281H16.1759C16.0357 7.63281 15.9219 7.74643 15.9219 7.88683C15.9219 8.02723 16.0355 8.14085 16.1759 8.14085Z" fill="white"/>
<path d="M13.1837 8.14085H14.8018C14.9419 8.14085 15.0558 8.02723 15.0558 7.88683C15.0558 7.74665 14.9422 7.63281 14.8018 7.63281H13.1837C13.0435 7.63281 12.9297 7.74643 12.9297 7.88683C12.9297 8.02723 13.0435 8.14085 13.1837 8.14085Z" fill="white"/>
<path d="M10.1993 8.14085H11.8174C11.9576 8.14085 12.0714 8.02723 12.0714 7.88683C12.0714 7.74665 11.9578 7.63281 11.8174 7.63281H10.1993C10.0592 7.63281 9.94531 7.74643 9.94531 7.88683C9.94531 8.02723 10.0592 8.14085 10.1993 8.14085Z" fill="white"/>
<path d="M4.22277 8.14085H5.84082C5.981 8.14085 6.09484 8.02723 6.09484 7.88683C6.09484 7.74665 5.98122 7.63281 5.84082 7.63281L4.22277 7.63304C4.08259 7.63304 3.96875 7.74665 3.96875 7.88705C3.96897 8.02723 4.08259 8.14085 4.22277 8.14085Z" fill="white"/>
<path d="M19.1603 8.14085H20.7783C20.9185 8.14085 21.0323 8.02723 21.0323 7.88683C21.0323 7.74665 20.9187 7.63281 20.7783 7.63281H19.1603C19.0201 7.63281 18.9062 7.74643 18.9062 7.88683C18.9062 8.02723 19.0201 8.14085 19.1603 8.14085Z" fill="white"/>
<path d="M22.1525 8.14085H23.7705C23.9107 8.14085 24.0245 8.02723 24.0245 7.88683C24.0245 7.74665 23.9109 7.63281 23.7705 7.63281L22.1525 7.63304C22.0123 7.63304 21.8984 7.74665 21.8984 7.88705C21.8987 8.02723 22.0123 8.14085 22.1525 8.14085Z" fill="white"/>
<path d="M28.1212 8.14085H29.7393C29.8794 8.14085 29.9933 8.02723 29.9933 7.88683C29.9933 7.74665 29.8797 7.63281 29.7393 7.63281H28.1212C27.981 7.63281 27.8672 7.74643 27.8672 7.88683C27.8672 8.02723 27.9808 8.14085 28.1212 8.14085Z" fill="white"/>
<path d="M14.8018 19.5918H13.1837C13.0435 19.5918 12.9297 19.7054 12.9297 19.8458C12.9297 19.986 13.0433 20.0998 13.1837 20.0998H14.8018C14.9419 20.0998 15.0558 19.9862 15.0558 19.8458C15.0558 19.7056 14.9419 19.5918 14.8018 19.5918Z" fill="white"/>
<path d="M11.8174 19.5918H10.1993C10.0592 19.5918 9.94531 19.7054 9.94531 19.8458C9.94531 19.986 10.0589 20.0998 10.1993 20.0998H11.8174C11.9576 20.0998 12.0714 19.9862 12.0714 19.8458C12.0712 19.7056 11.9576 19.5918 11.8174 19.5918Z" fill="white"/>
<path d="M8.83301 19.5918H7.21495C7.07478 19.5918 6.96094 19.7054 6.96094 19.8458C6.96094 19.986 7.07455 20.0998 7.21495 20.0998H8.83301C8.97319 20.0998 9.08703 19.9862 9.08703 19.8458C9.08703 19.7056 8.97319 19.5918 8.83301 19.5918Z" fill="white"/>
<path d="M5.84082 19.5918H4.22277C4.08259 19.5918 3.96875 19.7054 3.96875 19.8458C3.96875 19.986 4.08237 20.0998 4.22277 20.0998H5.84082C5.981 20.0998 6.09484 19.9862 6.09484 19.8458C6.09484 19.7056 5.98122 19.5918 5.84082 19.5918Z" fill="white"/>
<path d="M20.7783 19.5918H19.1603C19.0201 19.5918 18.9062 19.7054 18.9062 19.8458C18.9062 19.986 19.0199 20.0998 19.1603 20.0998H20.7783C20.9185 20.0998 21.0323 19.9862 21.0323 19.8458C21.0323 19.7056 20.9185 19.5918 20.7783 19.5918Z" fill="white"/>
<path d="M23.7707 19.5918H22.1525C22.0123 19.5918 21.8984 19.7054 21.8984 19.8458C21.8984 19.986 22.0121 20.0998 22.1525 20.0998H23.7705C23.9107 20.0998 24.0245 19.9862 24.0245 19.8458C24.0245 19.7056 23.9109 19.5918 23.7707 19.5918Z" fill="white"/>
<path d="M26.7549 19.5918H25.1368C24.9967 19.5918 24.8828 19.7054 24.8828 19.8458C24.8828 19.986 24.9964 20.0998 25.1368 20.0998H26.7549C26.8951 20.0998 27.0089 19.9862 27.0089 19.8458C27.0089 19.7056 26.8951 19.5918 26.7549 19.5918Z" fill="white"/>
<path d="M29.7393 19.5918H28.1212C27.981 19.5918 27.8672 19.7054 27.8672 19.8458C27.8672 19.986 27.9808 20.0998 28.1212 20.0998H29.7393C29.8794 20.0998 29.9933 19.9862 29.9933 19.8458C29.9931 19.7056 29.8794 19.5918 29.7393 19.5918Z" fill="white"/>
<path d="M27.7161 3.71537C28.1799 3.71537 28.5572 3.33814 28.5572 2.87429C28.5572 2.41045 28.1799 2.0332 27.7161 2.0332C27.2522 2.0332 26.875 2.41044 26.875 2.87429C26.875 3.33813 27.2522 3.71537 27.7161 3.71537ZM27.7161 2.54103C27.8998 2.54103 28.0493 2.69059 28.0493 2.87429C28.0493 3.05799 27.8998 3.20755 27.7161 3.20755C27.5324 3.20755 27.3828 3.05799 27.3828 2.87429C27.3828 2.69059 27.5324 2.54103 27.7161 2.54103Z" fill="white"/>
<path d="M30.1536 3.71537C30.6174 3.71537 30.9947 3.33814 30.9947 2.87429C30.9947 2.41045 30.6174 2.0332 30.1536 2.0332C29.6897 2.0332 29.3125 2.41044 29.3125 2.87429C29.3125 3.33813 29.6897 3.71537 30.1536 3.71537ZM30.1536 2.54103C30.3373 2.54103 30.4866 2.69059 30.4866 2.87429C30.4866 3.05799 30.3371 3.20755 30.1536 3.20755C29.9699 3.20755 29.8203 3.05799 29.8203 2.87429C29.8206 2.69059 29.9699 2.54103 30.1536 2.54103Z" fill="white"/>
</svg>