<svg width="32" height="32" viewBox="0 0 30 40" fill="none" xmlns="http://www.w3.org/2000/svg">
<path d="M3.82052 26.3926H10.1938C10.7319 26.3926 11.1685 26.8291 11.1685 27.3672V38.5117C11.1685 39.0499 10.7319 39.4864 10.1938 39.4864H3.82052C3.28193 39.4864 2.84587 39.0499 2.84587 38.5117V27.3672C2.84587 26.8291 3.28193 26.3926 3.82052 26.3926ZM5.43392 1.47303C5.43392 0.191283 7.38323 0.191283 7.38323 1.47303V2.60406H10.6558C11.9381 2.60406 11.9381 4.55336 10.6558 4.55336H7.38323V8.99293H8.55064C10.8458 8.99293 12.72 10.8671 12.72 13.1623C12.72 15.4569 10.8458 17.3311 8.55064 17.3311H7.38323V18.4621C7.38323 19.7439 5.43392 19.7439 5.43392 18.4621V17.3311H2.16177C0.879552 17.3311 0.879552 15.3818 2.16177 15.3818H5.43392V10.9422H4.26698C1.97184 10.9422 0.0976562 9.06805 0.0976562 6.77291C0.0976562 4.47777 1.97184 2.60406 4.26698 2.60406H5.43392V1.47303ZM7.38323 10.9422V15.3818H8.55064C9.76907 15.3818 10.7707 14.3807 10.7707 13.1623C10.7707 11.9433 9.76907 10.9422 8.55064 10.9422H7.38323ZM5.43392 8.99293V4.55336H4.26698C3.04807 4.55336 2.04696 5.55447 2.04696 6.77291C2.04696 7.99182 3.04807 8.99293 4.26698 8.99293H5.43392ZM22.5581 8.47371H28.9314C29.4695 8.47371 29.9061 8.91025 29.9061 9.44836V38.5117C29.9061 39.0499 29.4695 39.4864 28.9314 39.4864H22.5581C22.0196 39.4864 21.5835 39.0499 21.5835 38.5117V9.44836C21.5835 8.91025 22.0196 8.47371 22.5581 8.47371ZM27.9568 10.423H23.5328V37.5371H27.9568V10.423ZM13.1891 17.9793H19.5624C20.101 17.9793 20.537 18.4158 20.537 18.9539V38.5117C20.537 39.0499 20.101 39.4864 19.5624 39.4864H13.1891C12.651 39.4864 12.2144 39.0499 12.2144 38.5117V18.9539C12.2144 18.4158 12.651 17.9793 13.1891 17.9793ZM18.5877 19.9286H14.1638V37.5371H18.5877V19.9286ZM9.21914 28.3419H4.79517V37.5371H9.21914V28.3419Z" fill="white"></path>
</svg>