<svg width="32" height="32" viewBox="0 0 32 26" fill="none" xmlns="http://www.w3.org/2000/svg">
<path d="M27.1345 25.0384H3.33217C1.81788 25.0384 0.585938 23.806 0.585938 22.2915V3.67494C0.585938 2.16065 1.81788 0.928711 3.33217 0.928711H27.135C28.6495 0.928711 29.8819 2.16065 29.8819 3.67494V7.17585C30.7839 7.50576 31.4297 8.37294 31.4297 9.38791V16.5788C31.4297 17.5942 30.7839 18.4609 29.8814 18.7908V22.2911C29.8812 23.806 28.6491 25.0384 27.1346 25.0384H27.1345ZM3.33217 2.52923C2.69982 2.52923 2.18594 3.04307 2.18594 3.67545V22.292C2.18594 22.9246 2.69978 23.4389 3.33217 23.4389H27.135C27.7674 23.4389 28.2817 22.9246 28.2817 22.292L28.2814 18.934H20.8157C19.5169 18.934 18.4606 17.8777 18.4606 16.5797V9.38945C18.4606 8.09077 19.5173 7.03454 20.8157 7.03454C21.2577 7.03454 21.6157 7.39257 21.6157 7.83454C21.6157 8.27651 21.2577 8.63454 20.8157 8.63454C20.399 8.63454 20.0606 8.97338 20.0606 9.38945V16.5797C20.0606 16.9958 20.3994 17.334 20.8157 17.334H29.0751C29.4912 17.334 29.8294 16.9954 29.8294 16.5797V9.38888C29.8294 8.97281 29.4908 8.63465 29.0751 8.63465H24.087C23.645 8.63465 23.287 8.27662 23.287 7.83465C23.287 7.39269 23.645 7.03465 24.087 7.03465H28.2811V3.67551C28.2811 3.04317 27.7669 2.52928 27.1343 2.52928L3.33217 2.52923Z" fill="white"/>
</svg>