<svg width="32" height="32" viewBox="0 0 30 26" fill="none" xmlns="http://www.w3.org/2000/svg">
<path d="M7.12154 11.8419C7.07043 11.4258 7.69743 11.349 7.75525 11.7651C7.78717 11.9892 8.56171 12.2196 9.04811 11.9251C9.13762 11.8675 9.19521 11.81 9.19521 11.7524C9.19521 11.5539 8.81128 11.4963 8.42715 11.4452C7.76801 11.3492 7.1151 11.2597 7.1151 10.4981C7.1151 9.97336 7.64635 9.65974 8.15195 9.57648V9.44858C8.15195 9.26934 8.2928 9.12849 8.48476 9.12849C8.67026 9.12849 8.8111 9.27559 8.80486 9.45483L8.79838 9.57C9.97604 9.76197 10.0528 10.8115 9.51513 10.8115C9.34236 10.8115 9.19503 10.6707 9.19503 10.4915C9.19503 10.2738 8.40778 10.0178 7.90218 10.3252C7.81267 10.3827 7.75508 10.4403 7.75508 10.4915C7.75508 10.6899 8.13901 10.7475 8.51668 10.8051C9.17582 10.9011 9.83496 10.9906 9.83496 11.7459C9.83496 12.2707 9.29747 12.5908 8.79165 12.6676V12.7892C8.79165 13.2116 8.15171 13.2116 8.15171 12.7892L8.15215 12.6738C7.67849 12.597 7.17914 12.3218 7.12154 11.8419ZM8.472 8.03382C10.1807 8.03382 11.5633 9.41616 11.5633 11.1251C11.5633 12.8338 10.181 14.2164 8.472 14.2164C6.76331 14.2164 5.38068 12.8341 5.38068 11.1251C5.38091 9.41622 6.76325 8.03382 8.472 8.03382ZM10.2064 9.39074C9.24634 8.43068 7.69771 8.43068 6.73766 9.39074C5.7776 10.3508 5.7776 11.8994 6.73766 12.8595C7.69771 13.8195 9.24634 13.8195 10.2064 12.8595C11.1665 11.8994 11.1665 10.3506 10.2064 9.39074ZM16.6961 20.1747L18.2834 23.0419H19.845C20.6385 23.0419 21.2849 23.6883 21.2849 24.4819V25.5955C21.2849 25.7747 21.1441 25.9156 20.9648 25.9156H9.02253C8.8433 25.9156 8.70244 25.7747 8.70244 25.5955V24.4819C8.70244 23.6883 9.34884 23.0419 10.1424 23.0419H11.704L13.2912 20.1747H0.593529C0.420763 20.1747 0.273438 20.0339 0.273438 19.8546V0.392357C0.273438 0.219591 0.414283 0.0722656 0.593529 0.0722656H29.3935C29.5728 0.0722656 29.7136 0.213111 29.7136 0.392357V19.8546C29.7136 20.0339 29.5728 20.1747 29.3935 20.1747H16.6961ZM13.8289 19.5348H29.0735V18.0756H0.913483V19.5348H13.8289ZM16.5425 21.2051L15.9729 20.1747H14.0209L12.4273 23.0419H17.5537L16.5425 21.2051ZM19.8512 23.6819H10.1358C9.7005 23.6819 9.34223 24.0404 9.34223 24.4754V25.269H20.6445V24.4754C20.6443 24.0404 20.286 23.6819 19.8507 23.6819H19.8512ZM0.913483 17.4356H29.0735L29.0733 0.712163H0.91326L0.913483 17.4356ZM4.29251 4.42416C4.29251 4.00184 4.93246 4.00184 4.93246 4.42416V14.8819H5.25255C5.47018 14.8819 5.62375 15.0868 5.55969 15.2979C5.51482 15.4323 5.39339 15.5221 5.25255 15.5221H4.58695C4.42065 15.5093 4.29253 15.3685 4.29253 15.202L4.29251 4.42416ZM25.3742 15.5282C25.5151 15.5282 25.6367 15.4387 25.6814 15.3041C25.7454 15.0991 25.5919 14.888 25.3742 14.888C25.1501 14.888 24.8686 14.8431 24.7854 15.1121C24.7278 15.317 24.8749 15.5282 25.0925 15.5282H25.3742ZM23.1727 15.5282C23.3135 15.5282 23.4352 15.4387 23.4798 15.3041C23.5439 15.0991 23.3903 14.888 23.1727 14.888H22.5327C22.3919 14.888 22.2702 14.9775 22.2256 15.1121C22.168 15.317 22.3151 15.5282 22.5327 15.5282H23.1727ZM20.6126 15.5282C20.7535 15.5282 20.8751 15.4387 20.9198 15.3041C20.9774 15.0991 20.8303 14.888 20.6126 14.888H19.9727C19.8318 14.888 19.7102 14.9775 19.6655 15.1121C19.6015 15.317 19.7551 15.5282 19.9727 15.5282H20.6126ZM18.0526 15.5282C18.1934 15.5282 18.3151 15.4387 18.3597 15.3041C18.4238 15.0991 18.2702 14.888 18.0526 14.888H17.4126C17.2718 14.888 17.1501 14.9775 17.1055 15.1121C17.0414 15.317 17.195 15.5282 17.4126 15.5282H18.0526ZM15.4925 15.5282C15.6334 15.5282 15.755 15.4387 15.7997 15.3041C15.8637 15.0991 15.7101 14.888 15.4925 14.888H14.8526C14.7117 14.888 14.5901 14.9775 14.5454 15.1121C14.4814 15.317 14.6349 15.5282 14.8526 15.5282H15.4925ZM12.9327 15.5282C13.0735 15.5282 13.1952 15.4387 13.2398 15.3041C13.3039 15.0991 13.1503 14.888 12.9327 14.888H12.2927C12.1519 14.888 12.0302 14.9775 11.9856 15.1121C11.9215 15.317 12.0751 15.5282 12.2927 15.5282H12.9327ZM10.3726 15.5282C10.5135 15.5282 10.6351 15.4387 10.6798 15.3041C10.7438 15.0991 10.5903 14.888 10.3726 14.888H9.73268C9.59184 14.888 9.47018 14.9775 9.42554 15.1121C9.36148 15.317 9.51505 15.5282 9.73268 15.5282H10.3726ZM7.81257 15.5282C7.95341 15.5282 8.07507 15.4387 8.11971 15.3041C8.18377 15.0991 8.0302 14.888 7.81257 14.888H7.17263C7.03178 14.888 6.91012 14.9775 6.86548 15.1121C6.80142 15.317 6.95499 15.5282 7.17263 15.5282H7.81257ZM16.3823 7.11216H18.3535C18.5327 7.11216 18.6736 7.25301 18.6736 7.43225V13.4225C18.6736 13.6018 18.5327 13.7426 18.3535 13.7426H16.3823C16.203 13.7426 16.0622 13.6018 16.0622 13.4225V7.43225C16.0622 7.25302 16.2095 7.11216 16.3823 7.11216ZM18.0399 7.75233H16.7086V13.1028H18.0399V7.75233ZM23.403 4.89788H25.3742C25.5535 4.89788 25.6943 5.03872 25.6943 5.21797V11.2083C25.6943 11.381 25.5535 11.5283 25.3742 11.5283H23.403C23.2303 11.5283 23.0829 11.3875 23.0829 11.2083V5.21797C23.0829 5.04498 23.2238 4.89788 23.403 4.89788ZM25.0542 5.53782H23.7229V10.8883H25.0542V5.53782ZM12.8753 5.49295H14.8465C15.0258 5.49295 15.1666 5.6338 15.1666 5.81305V9.83225C15.1666 10.005 15.0258 10.1523 14.8465 10.1523H12.8753C12.6961 10.1523 12.5552 10.0115 12.5552 9.83225V5.81305C12.5552 5.63381 12.6961 5.49295 12.8753 5.49295ZM14.5265 6.13313H13.1952V9.51238H14.5265V6.13313ZM19.8961 3.15701H21.8673C22.0466 3.15701 22.1874 3.29786 22.1874 3.4771V11.8228C22.1874 12.0021 22.0466 12.1429 21.8673 12.1429H19.8961C19.7169 12.1429 19.576 12.0021 19.576 11.8228V3.4771C19.5695 3.29786 19.7169 3.15701 19.8961 3.15701ZM21.5473 3.79695H20.216V11.5027H21.5473V3.79695Z" fill="white"/>
</svg>