<svg width="32" height="32" viewBox="0 0 28 24" fill="none" xmlns="http://www.w3.org/2000/svg">
<path d="M15.808 0.490813C15.7323 0.506661 15.6647 0.549293 15.618 0.610904L11.868 5.38102C11.7899 5.47834 11.7756 5.61249 11.8314 5.7241C11.8874 5.83593 12.0031 5.9049 12.1281 5.90089H14.1881V10.0109C14.1881 10.1877 14.3312 10.331 14.508 10.331H17.2381C17.4147 10.331 17.558 10.1877 17.558 10.0109V5.90089H19.618C19.741 5.90089 19.8533 5.83057 19.9066 5.71964C19.96 5.6087 19.9448 5.477 19.868 5.38102L16.118 0.610904C16.0453 0.516264 15.9256 0.46983 15.808 0.490813ZM15.868 1.32093L18.968 5.26087H17.2381C17.0613 5.26087 16.918 5.40417 16.918 5.58096V9.69079H14.8281V5.58096C14.8281 5.40417 14.6848 5.26087 14.508 5.26087H12.7781L15.868 1.32093ZM22.288 4.66087C22.1349 4.69011 22.0253 4.82516 22.028 4.98096V9.09079H19.9679C19.8431 9.08677 19.7273 9.15597 19.6715 9.26758C19.6155 9.37941 19.6297 9.51334 19.7079 9.61088L23.4579 14.381C23.5186 14.4569 23.6105 14.5011 23.7079 14.5011C23.8052 14.5011 23.8972 14.4569 23.9579 14.381L27.7079 9.61088C27.7849 9.5149 27.7998 9.3832 27.7465 9.27226C27.6931 9.16133 27.5809 9.09079 27.4579 9.09079H25.3978V4.98096C25.3978 4.80417 25.2547 4.66087 25.0779 4.66087H22.3478C22.328 4.65908 22.3079 4.65908 22.288 4.66087ZM22.6679 5.30081H24.7579V9.41087C24.7579 9.58766 24.9012 9.73096 25.078 9.73096H26.7978L23.7079 13.6608L20.628 9.73096H22.3479C22.5247 9.73096 22.668 9.58766 22.668 9.41087L22.6679 5.30081ZM4.20792 12.3311C4.20123 12.334 4.19453 12.3373 4.18806 12.3409L0.497884 13.3311C0.415741 13.3523 0.345427 13.4052 0.302124 13.4784C0.259043 13.5514 0.246766 13.6387 0.267972 13.721L2.83809 23.2908C2.85929 23.3731 2.91219 23.4437 2.98541 23.4867C3.0584 23.5298 3.14567 23.5421 3.22804 23.5209L6.91798 22.531C7.00013 22.5097 7.07066 22.4566 7.11374 22.3836C7.15682 22.3104 7.16932 22.2231 7.1479 22.1408L6.82803 20.9609L8.70791 20.2609L16.7782 21.9408C16.8275 21.9528 16.8789 21.9528 16.9282 21.9408C16.9282 21.9408 18.844 21.4256 20.7782 20.9008C21.7452 20.6386 22.7184 20.3725 23.4581 20.1709C23.828 20.0701 24.1436 19.9826 24.3681 19.9209C24.4804 19.8899 24.5628 19.8692 24.6282 19.8509C24.6934 19.8326 24.7112 19.8265 24.7581 19.8109C25.4927 19.5638 26.0182 18.8647 26.0182 18.0508C26.0182 17.031 25.1878 16.2008 24.1682 16.2008C24.1139 16.2008 24.1108 16.2078 24.0882 16.2109C24.0657 16.214 24.0387 16.2158 24.0081 16.2209C23.9472 16.2314 23.8664 16.2419 23.7682 16.2609C23.5717 16.2986 23.3045 16.3569 22.9883 16.4209C22.3555 16.5491 21.537 16.7205 20.7182 16.8908C19.1258 17.2223 17.6338 17.5327 17.548 17.5509L13.3882 16.1609H16.9581C17.9882 16.1609 18.8682 15.4107 18.8682 14.3609C18.8682 13.3109 18.0139 12.4509 16.9581 12.4509H10.1181C10.1081 12.4504 10.098 12.4504 10.0882 12.4509C10.0574 12.4531 10.027 12.46 9.99801 12.4709L7.07813 13.7109C6.99152 13.7366 6.91965 13.7975 6.88036 13.879C6.8413 13.9604 6.8384 14.0546 6.87233 14.1383C6.90648 14.2221 6.97434 14.2875 7.05915 14.3185C7.1442 14.3495 7.23817 14.343 7.31808 14.3008L10.1781 13.0908H16.9581C17.6715 13.0908 18.2283 13.6575 18.2283 14.3609C18.2283 15.0643 17.6972 15.521 16.9581 15.521H12.4182C12.2414 15.521 12.0981 15.6643 12.0981 15.8408V16.181C12.0999 16.3176 12.1883 16.4381 12.3182 16.481L17.4283 18.1908C17.4829 18.2096 17.5416 18.2129 17.5981 18.2009C17.5981 18.2009 19.2117 17.8515 20.8481 17.5109C21.6664 17.3406 22.4878 17.1786 23.1182 17.0509C23.4334 16.987 23.6959 16.9279 23.8884 16.8908C23.9846 16.8723 24.064 16.8603 24.1183 16.8509C24.141 16.8471 24.1553 16.8429 24.1683 16.8408C24.8417 16.8408 25.3783 17.3768 25.3783 18.0509C25.3783 18.5891 25.0372 19.0398 24.5582 19.2009C24.5859 19.1917 24.522 19.213 24.4582 19.231C24.3946 19.2489 24.31 19.2701 24.1982 19.3009C23.9745 19.3625 23.658 19.4502 23.2883 19.5509C22.5488 19.7525 21.5752 20.0185 20.6082 20.281C18.7051 20.7973 16.8877 21.2848 16.8283 21.3009L8.73861 19.611C8.6779 19.6002 8.6154 19.6072 8.55848 19.6311L6.66854 20.3409L4.5786 12.5609C4.5344 12.399 4.37301 12.2988 4.2085 12.331L4.20792 12.3311ZM4.04788 13.0409L6.43805 21.9906L3.36793 22.8208L0.967933 13.8608L4.04788 13.0409Z" fill="white"/>
</svg>