<svg width="32" height="32" viewBox="0 0 28 30" fill="none" xmlns="http://www.w3.org/2000/svg">
<path d="M3.6198 22.8247C2.65643 22.8211 1.74483 23.2608 1.14769 24.0168C0.550372 24.7728 0.334086 25.7615 0.560658 26.6981C0.787218 27.6345 1.43163 28.4148 2.30843 28.8144C3.18523 29.2137 4.19683 29.1881 5.0522 28.7445C5.90757 28.301 6.51157 27.4889 6.69014 26.5423C6.86894 25.5954 6.60265 24.6191 5.9678 23.8943L11.1368 18.2302C11.9361 18.8548 12.9203 19.1963 13.9348 19.2012C14.9493 19.2061 15.9365 18.8742 16.7421 18.2574L18.7997 20.9572V20.9574C18.1047 21.7065 17.8355 22.7563 18.0843 23.7474C18.3334 24.7385 19.0665 25.5366 20.033 25.8683C20.9995 26.2003 22.0683 26.021 22.8736 25.3918C23.6788 24.7628 24.1113 23.769 24.0232 22.7509C23.935 21.7328 23.3379 20.8284 22.4363 20.3472C21.535 19.8659 20.4513 19.873 19.5562 20.3664L17.4464 17.5976C18.0064 16.953 18.3754 16.165 18.5122 15.3222C18.649 14.4793 18.5481 13.615 18.2209 12.8264L23.2769 9.71881V9.71903C23.7477 10.3536 24.5035 10.7123 25.2927 10.6757C26.0822 10.6391 26.8016 10.2121 27.2117 9.53663C27.622 8.8612 27.6688 8.02589 27.3371 7.30874C27.0055 6.59132 26.3387 6.08617 25.5584 5.9612C24.778 5.83642 23.9867 6.10785 23.4476 6.68577C22.9085 7.26343 22.6922 8.07172 22.871 8.8416L17.7605 11.9818C16.9967 10.865 15.7813 10.1398 14.4357 9.9976V7.15566C15.4926 7.10566 16.4522 6.52372 16.9853 5.60989C17.5183 4.69583 17.5522 3.57417 17.0757 2.62977C16.5989 1.68514 15.6761 1.04629 14.6244 0.93223C13.5724 0.81839 12.5344 1.24473 11.8663 2.06526C11.1984 2.88577 10.9913 3.98892 11.3163 4.99583C11.6413 6.00274 12.454 6.7764 13.4757 7.05166V9.99806C12.5317 10.099 11.6415 10.4885 10.9266 11.1133C10.2114 11.7381 9.70629 12.5677 9.47949 13.4898H5.98172C5.95895 12.7048 5.54734 11.9822 4.88349 11.5624C4.21966 11.1425 3.39041 11.0803 2.67121 11.3961C1.95201 11.712 1.43704 12.3648 1.29709 13.1376C1.15736 13.9106 1.41093 14.7026 1.97366 15.2504C2.53639 15.7984 3.33481 16.0307 4.10378 15.87C4.87252 15.7096 5.51138 15.1772 5.80778 14.4499H9.34909C9.34753 14.4966 9.34195 14.5417 9.34195 14.5888C9.34173 15.6814 9.73101 16.7383 10.4399 17.5696L5.23126 23.2774C4.74577 22.9816 4.18818 22.8249 3.61966 22.8247L3.6198 22.8247ZM25.1735 6.90924C25.5463 6.90924 25.9036 7.05701 26.1671 7.32063C26.4307 7.58402 26.5787 7.94114 26.5787 8.31394C26.5789 8.68649 26.4309 9.04383 26.1675 9.30726C25.9039 9.57087 25.5468 9.71886 25.174 9.71886C24.8014 9.71886 24.4441 9.57087 24.1806 9.30748C23.9173 9.04409 23.769 8.68674 23.769 8.31416C23.7699 7.94184 23.9182 7.58514 24.1813 7.32176C24.4447 7.05859 24.8015 6.91014 25.1735 6.90924ZM3.62037 14.9584C3.24783 14.9586 2.89049 14.8106 2.62683 14.5472C2.36321 14.2838 2.215 13.9265 2.215 13.5539C2.21478 13.1811 2.36277 12.8238 2.62638 12.5604C2.88978 12.2968 3.24713 12.1488 3.6197 12.1488C3.99246 12.1488 4.34981 12.2968 4.61324 12.5604C4.87663 12.8238 5.02462 13.1811 5.02462 13.5539C5.02373 13.926 4.87552 14.2827 4.61235 14.5459C4.34918 14.809 3.99243 14.9573 3.62037 14.9584ZM3.6197 28.1138C3.04559 28.1138 2.4949 27.8857 2.0889 27.4799C1.68287 27.0738 1.45473 26.5232 1.45473 25.9491C1.45451 25.375 1.68263 24.8243 2.08867 24.4183C2.49448 24.0122 3.04513 23.7841 3.61925 23.7841C4.19359 23.7841 4.74427 24.0122 5.15005 24.418C5.55607 24.8241 5.78422 25.3747 5.78422 25.9488C5.78377 26.5227 5.55542 27.073 5.14965 27.479C4.74384 27.8848 4.19365 28.1131 3.61976 28.1138L3.6197 28.1138ZM23.0968 23.0323C23.0968 23.5841 22.8777 24.1131 22.4877 24.5033C22.0975 24.8933 21.5685 25.1124 21.0167 25.1124C20.4652 25.1124 19.9362 24.8932 19.546 24.5033C19.156 24.1131 18.9368 23.5841 18.9368 23.0323C18.9368 22.4808 19.156 21.9518 19.546 21.5616C19.9362 21.1716 20.4652 20.9524 21.0167 20.9524C21.5683 20.9533 22.0966 21.1728 22.4866 21.5627C22.8766 21.9527 23.096 22.481 23.0969 23.0324L23.0968 23.0323ZM12.1254 4.03862C12.1252 3.46427 12.3533 2.91359 12.7594 2.50759C13.1652 2.10156 13.7158 1.87342 14.2902 1.87342C14.8643 1.87342 15.415 2.10154 15.821 2.50759C16.227 2.91339 16.4551 3.46404 16.4549 4.03839C16.4549 4.6125 16.2268 5.16319 15.8207 5.56919C15.4147 5.97499 14.864 6.20313 14.2899 6.20313C13.716 6.20246 13.1658 5.97411 12.76 5.56833C12.3542 5.16252 12.1261 4.6125 12.1255 4.03862H12.1254ZM13.9558 10.9323C14.925 10.9323 15.8546 11.3172 16.5399 12.0026C17.2254 12.6879 17.6104 13.6174 17.6104 14.5866C17.6104 15.5558 17.2256 16.4852 16.5403 17.1707C15.8548 17.856 14.9254 18.241 13.9562 18.2412C12.987 18.2412 12.0573 17.8562 11.372 17.171C10.6867 16.4855 10.3017 15.556 10.3017 14.5868C10.3028 13.618 10.6881 12.689 11.3731 12.004C12.0582 11.319 12.987 10.9335 13.9557 10.9323H13.9558Z" fill="white"/>
</svg>