<svg width="32" height="32" viewBox="0 0 30 30" fill="none" xmlns="http://www.w3.org/2000/svg">
<path d="M18.2464 22.2672C18.1897 22.2672 18.1326 22.2513 18.0819 22.2183L15.063 20.2502C14.9232 20.1589 14.8837 19.9719 14.9748 19.8321C15.0659 19.6924 15.2531 19.6536 15.3926 19.7442L18.4116 21.7122C18.5513 21.8035 18.5909 21.9906 18.4998 22.1303C18.4415 22.2187 18.3451 22.2672 18.2464 22.2672Z" fill="white"/>
<path d="M15.3334 11.6888C15.2398 11.6888 15.1477 11.6458 15.0887 11.5638C14.991 11.4295 15.0209 11.2402 15.1559 11.1422L18.5796 8.66047C18.7148 8.56382 18.9039 8.59262 19.0012 8.72833C19.099 8.86271 19.0691 9.05199 18.934 9.14998L15.5104 11.6317C15.4566 11.6699 15.3948 11.6888 15.3334 11.6888Z" fill="white"/>
<path d="M24.2168 29.6922C24.0104 29.6922 23.8106 29.68 23.6108 29.6538C23.4591 29.6344 23.3459 29.5041 23.3477 29.3507C23.3495 29.198 23.4655 29.0701 23.6178 29.0541C25.0334 28.9036 26.32 28.1485 27.147 26.9822C27.7463 26.1331 28.0633 25.1366 28.0633 24.1014C28.0633 21.6243 26.216 19.5051 23.7662 19.1715C23.6138 19.1509 23.5013 19.0188 23.5051 18.8648C23.5091 18.711 23.6281 18.5847 23.7814 18.5717C23.9292 18.5594 24.07 18.5527 24.2173 18.5527C27.2905 18.5527 29.7905 21.0498 29.7905 24.1192C29.7899 27.1922 27.2898 29.6922 24.2168 29.6922ZM26.5789 19.7545C27.8572 20.7865 28.6668 22.3659 28.6668 24.1018C28.6668 25.2621 28.3115 26.3791 27.6396 27.3313C27.3043 27.8041 26.9023 28.2163 26.4503 28.5583C28.0718 27.7394 29.1863 26.0572 29.1863 24.1202C29.1861 22.2367 28.13 20.5951 26.5789 19.7546V19.7545Z" fill="white"/>
<path d="M23.0828 29.6932C21.2797 29.6932 19.5739 28.8111 18.5201 27.333C17.8473 26.3796 17.4922 25.2628 17.4922 24.1024C17.4922 21.0227 20.0002 18.5176 23.083 18.5176C23.3433 18.5176 23.6025 18.537 23.8533 18.5754C26.596 18.9486 28.6678 21.3254 28.6678 24.1026C28.6678 25.2629 28.3125 26.3799 27.6406 27.3321C26.7129 28.6406 25.2703 29.4873 23.6821 29.6558C23.4891 29.681 23.2895 29.6932 23.0828 29.6932ZM23.0828 19.1212C20.3328 19.1212 18.0958 21.3558 18.0958 24.1023C18.0958 25.1375 18.4128 26.1342 19.0128 26.9838C19.9527 28.3016 21.4744 29.0894 23.0829 29.0894C23.263 29.0894 23.4373 29.0782 23.6117 29.0556C25.0342 28.9048 26.3206 28.1494 27.1476 26.9831C27.7469 26.134 28.0639 25.1375 28.0639 24.1023C28.0639 21.6252 26.2166 19.506 23.7668 19.1724C23.5414 19.1385 23.3128 19.1213 23.0829 19.1213L23.0828 19.1212Z" fill="white"/>
<path d="M23.0795 29.6914C21.2708 29.6914 19.5665 28.8088 18.5204 27.33C18.4521 27.2333 18.4463 27.1059 18.5059 27.0034C19.071 26.0322 19.9505 25.2534 20.982 24.8106C21.1159 24.751 21.2726 24.7994 21.3534 24.922C21.7393 25.5086 22.3847 25.8588 23.0795 25.8588C23.7793 25.8588 24.4244 25.5093 24.8049 24.9231C24.8855 24.7999 25.0431 24.7515 25.1773 24.8104C26.2087 25.2532 27.0882 26.032 27.6534 27.0032C27.713 27.1059 27.7074 27.2331 27.6389 27.3298C26.5925 28.8088 24.888 29.6914 23.0795 29.6914ZM19.1302 27.1396C20.0704 28.363 21.5324 29.0878 23.0795 29.0878C24.6266 29.0878 26.0887 28.3633 27.029 27.1396C26.5712 26.4249 25.9177 25.8411 25.1574 25.4657C24.6549 26.0943 23.8962 26.4628 23.0795 26.4628C22.2679 26.4628 21.5094 26.0943 21.0032 25.4653C20.2422 25.8407 19.5884 26.4249 19.1302 27.1396Z" fill="white"/>
<path d="M23.082 26.4613C22.1802 26.4613 21.3465 26.0102 20.8517 25.2537C20.5729 24.8216 20.4258 24.3216 20.4258 23.8055V22.7754C20.4258 21.3106 21.6173 20.1191 23.082 20.1191C23.7923 20.1191 24.4594 20.395 24.9608 20.8964C25.4626 21.4053 25.7381 22.0721 25.7381 22.7754V23.8055C25.7381 24.3214 25.591 24.8214 25.3128 25.2524C24.8173 26.0102 23.9836 26.4613 23.082 26.4613ZM23.082 20.723C21.9503 20.723 21.0296 21.644 21.0296 22.7755V23.8056C21.0296 24.2047 21.143 24.5922 21.3579 24.9248C21.7396 25.5085 22.3847 25.8576 23.082 25.8576C23.7793 25.8576 24.424 25.5085 24.8066 24.9237C25.0207 24.5922 25.1341 24.2049 25.1341 23.8058V22.7757C25.1341 22.2315 24.9202 21.7157 24.5323 21.3223C24.1466 20.9364 23.6309 20.723 23.082 20.723Z" fill="white"/>
<path d="M25.426 22.9698H20.7394C20.6568 22.9698 20.5782 22.9361 20.5213 22.8767C20.4642 22.8171 20.434 22.7363 20.4378 22.6544C20.503 21.2327 21.6648 20.1191 23.0829 20.1191C23.7932 20.1191 24.4603 20.395 24.9617 20.8964C25.4255 21.3663 25.6967 21.9902 25.7275 22.654C25.7313 22.7366 25.7012 22.8167 25.6445 22.8768C25.5874 22.9361 25.5086 22.9698 25.426 22.9698ZM21.0796 22.366H25.0858C25.007 21.9716 24.8166 21.6084 24.5334 21.3219C24.1474 20.9361 23.6318 20.7228 23.0829 20.7228C22.0957 20.7228 21.2693 21.4228 21.0796 22.3661L21.0796 22.366Z" fill="white"/>
<path d="M24.2169 11.4481C24.0104 11.4481 23.8106 11.4358 23.6109 11.4097C23.4586 11.3896 23.3455 11.2592 23.3477 11.1061C23.3497 10.9528 23.4664 10.8255 23.6189 10.8101C25.0343 10.665 26.32 9.91037 27.1463 8.73825C27.7463 7.88917 28.0633 6.89271 28.0633 5.85745C28.0633 3.3858 26.2234 1.26614 23.7832 0.927567C23.6314 0.906362 23.5196 0.774888 23.5229 0.621539C23.5265 0.468859 23.6441 0.342076 23.7968 0.328013C23.9392 0.315067 24.0751 0.308594 24.2171 0.308594C27.2903 0.308594 29.7903 2.80614 29.7903 5.87579C29.7899 8.94814 27.2898 11.4481 24.2169 11.4481ZM26.5863 1.51323C27.8599 2.54557 28.6669 4.12414 28.6669 5.857C28.6669 7.01792 28.3115 8.13466 27.6394 9.0858C27.3086 9.55522 26.9122 9.96483 26.4665 10.3052C28.0794 9.48334 29.1863 7.80637 29.1863 5.87534C29.1861 3.995 28.1337 2.35523 26.5863 1.51329L26.5863 1.51323Z" fill="white"/>
<path d="M23.083 11.4471C21.2749 11.4471 19.5692 10.5646 18.5198 9.08577C17.8473 8.13423 17.4922 7.01748 17.4922 5.85628C17.4922 2.77657 20.0002 0.271484 23.083 0.271484C23.3489 0.271484 23.6136 0.290904 23.8701 0.329296C26.6038 0.708313 28.6678 3.08512 28.6678 5.85655C28.6678 7.01747 28.3125 8.13421 27.6404 9.08535C26.7138 10.4003 25.2703 11.2474 23.681 11.4097C23.4893 11.4347 23.2897 11.4472 23.083 11.4472L23.083 11.4471ZM23.083 0.875142C20.333 0.875142 18.096 3.10971 18.096 5.85617C18.096 6.89143 18.4129 7.88811 19.0125 8.73697C19.9484 10.0553 21.4703 10.843 23.083 10.843C23.2631 10.843 23.4375 10.8318 23.6118 10.8093C25.0352 10.6637 26.3207 9.90881 27.147 8.73669C27.747 7.88761 28.064 6.89115 28.064 5.85589C28.064 3.38424 26.2241 1.26458 23.7839 0.926008C23.554 0.892079 23.3194 0.875142 23.083 0.875142Z" fill="white"/>
<path d="M23.0795 11.4467C21.271 11.4467 19.5668 10.5635 18.5204 9.08468C18.4521 8.98803 18.4463 8.86057 18.5059 8.75812C19.0713 7.78692 19.9507 7.00812 20.982 6.56527C21.1159 6.50812 21.2726 6.55455 21.3534 6.67732C21.7391 7.26349 22.3844 7.61372 23.0795 7.61372C23.7797 7.61372 24.4248 7.26416 24.8049 6.67869C24.8855 6.55548 25.0431 6.50837 25.1773 6.56552C26.2085 7.00837 27.088 7.78717 27.6534 8.75837C27.713 8.86105 27.7074 8.98828 27.6389 9.08494C26.5922 10.5635 24.8876 11.4467 23.0795 11.4467ZM19.1302 8.89428C20.0706 10.1184 21.5326 10.843 23.0795 10.843C24.6264 10.843 26.0884 10.1184 27.029 8.89428C26.5712 8.17954 25.9172 7.59583 25.1574 7.22086C24.6554 7.84943 23.8965 8.21731 23.0795 8.21731C22.2677 8.21731 21.509 7.84879 21.0029 7.22023C20.2427 7.59545 19.5884 8.17983 19.1302 8.89434V8.89428Z" fill="white"/>
<path d="M23.082 8.217C22.1805 8.217 21.3468 7.76544 20.8517 7.00894C20.5729 6.5768 20.4258 6.07683 20.4258 5.56071V4.5306C20.4258 3.06586 21.6173 1.875 23.082 1.875C23.7928 1.875 24.4604 2.15089 24.9608 2.65226C25.4624 3.15985 25.7381 3.82683 25.7381 4.53083V5.56094C25.7381 6.07679 25.591 6.57677 25.3128 7.0078C24.8171 7.7654 23.9831 8.21694 23.082 8.21694L23.082 8.217ZM23.082 2.47871C21.9503 2.47871 21.0296 3.399 21.0296 4.53049V5.5606C21.0296 5.95971 21.143 6.34723 21.3579 6.6798C21.74 7.26351 22.3847 7.61329 23.082 7.61329C23.7789 7.61329 24.4237 7.26373 24.8066 6.67871C25.0207 6.34724 25.1341 5.95997 25.1341 5.56089L25.1343 4.53054C25.1343 3.98635 24.9204 3.47049 24.5325 3.07763C24.1472 2.69214 23.6316 2.47877 23.082 2.47877L23.082 2.47871Z" fill="white"/>
<path d="M25.426 4.7252H20.7394C20.6568 4.7252 20.5782 4.69149 20.5213 4.63212C20.4642 4.57252 20.434 4.49172 20.4378 4.4098C20.503 2.98814 21.6648 1.875 23.0829 1.875C23.7936 1.875 24.4612 2.15089 24.9617 2.65226C25.4255 3.12213 25.6967 3.74534 25.7275 4.4094C25.7313 4.49199 25.7012 4.57213 25.6445 4.63217C25.5874 4.69154 25.5086 4.7252 25.426 4.7252ZM21.0796 4.12143H25.0858C25.007 3.72701 24.8164 3.36429 24.5334 3.07789C24.1481 2.69217 23.6325 2.4788 23.0829 2.4788C22.0957 2.4788 21.2693 3.17857 21.0796 4.12143H21.0796Z" fill="white"/>
<path d="M8.53056 23.9123C6.39639 23.9123 4.37028 23.1044 2.82565 21.6382C1.14999 20.0584 0.226562 17.9154 0.226562 15.6044C0.226562 13.2123 1.25936 10.937 3.06005 9.36215C4.56988 8.03312 6.51296 7.30078 8.53056 7.30078C10.5507 7.30078 12.4953 8.03312 14.0058 9.36261C15.8055 10.937 16.8383 13.2122 16.8383 15.6043C16.8383 17.9151 15.9149 20.0583 14.2388 21.6392C12.6946 23.1046 10.6674 23.9124 8.53051 23.9124L8.53056 23.9123ZM8.53056 7.90484C6.65959 7.90484 4.85845 8.58341 3.45822 9.81575C1.78793 11.2774 0.830334 13.3872 0.830334 15.6043C0.830334 17.747 1.68616 19.734 3.24062 21.1992C4.67319 22.5595 6.55153 23.3083 8.53033 23.3083C10.5118 23.3083 12.3915 22.5595 13.8234 21.2005C15.3786 19.7342 16.2343 17.7471 16.2343 15.6043C16.2343 13.3866 15.2767 11.277 13.6073 9.8157C12.2064 8.5829 10.4038 7.90432 8.53051 7.90432L8.53056 7.90484Z" fill="white"/>
<path d="M8.53048 23.9114C5.87957 23.9114 3.72266 20.1855 3.72266 15.6051C3.72266 11.0247 5.87957 7.29883 8.53048 7.29883C11.1814 7.29883 13.3383 11.0247 13.3383 15.6051C13.3381 20.1852 11.1814 23.9114 8.53048 23.9114ZM8.53048 7.9034C6.21243 7.9034 4.32648 11.3585 4.32648 15.6057C4.32648 19.8528 6.21243 23.308 8.53048 23.308C10.8485 23.308 12.7345 19.8528 12.7345 15.6057C12.7345 11.3585 10.8485 7.9034 8.53048 7.9034Z" fill="white"/>
<path d="M8.53247 23.9123C8.36551 23.9123 8.23069 23.7773 8.23069 23.6106L8.23047 7.60256C8.23047 7.4356 8.36551 7.30078 8.53225 7.30078C8.69922 7.30078 8.83403 7.43583 8.83403 7.60256V23.6106C8.83426 23.7773 8.69921 23.9123 8.53247 23.9123Z" fill="white"/>
<path d="M16.5363 15.9083H0.528346C0.36138 15.9083 0.226562 15.7732 0.226562 15.6065C0.226562 15.4395 0.361608 15.3047 0.528346 15.3047H16.5363C16.7033 15.3047 16.8381 15.4397 16.8381 15.6065C16.8384 15.7734 16.7033 15.9083 16.5363 15.9083Z" fill="white"/>
<path d="M8.53068 11.8731C6.5157 11.8731 4.57285 11.1425 3.05993 9.81596C2.99453 9.75882 2.95703 9.67623 2.95703 9.58895C2.95703 9.50234 2.99408 9.41975 3.05927 9.36261C4.57001 8.0329 6.51304 7.30078 8.53069 7.30078C10.5508 7.30078 12.4954 8.03312 14.0059 9.36261C14.0711 9.41975 14.1081 9.50234 14.1081 9.58895C14.1081 9.67622 14.0706 9.75882 14.0052 9.81596C12.4923 11.1425 10.5481 11.8731 8.53068 11.8731ZM3.72845 9.5883C5.08873 10.6749 6.78022 11.2693 8.53068 11.2693C10.2834 11.2693 11.9764 10.6749 13.3367 9.5883C11.9784 8.4999 10.2854 7.90436 8.53068 7.90436C6.77822 7.90436 5.08628 8.4999 3.72845 9.5883Z" fill="white"/>
<path d="M3.03228 21.7204C2.95237 21.7204 2.87267 21.6892 2.8133 21.6267C2.69857 21.5053 2.7037 21.3142 2.82446 21.1999C4.36886 19.7336 6.39521 18.9258 8.52938 18.9258C10.6662 18.9258 12.6937 19.7336 14.2378 21.1999C14.3588 21.3142 14.3637 21.5053 14.249 21.6267C14.134 21.7477 13.943 21.7524 13.8222 21.6374C12.3905 20.2783 10.5108 19.5296 8.52935 19.5296C6.55055 19.5296 4.67198 20.2784 3.24009 21.6374C3.18184 21.6928 3.10683 21.7204 3.03228 21.7204Z" fill="white"/>
</svg>