<svg width="32" height="32" viewBox="0 0 18 24" fill="none" xmlns="http://www.w3.org/2000/svg">
<path d="M11.4155 14.2687C8.66353 14.2687 6.51953 13.1808 6.51953 11.7727C6.51953 11.0368 7.09542 10.3647 8.15147 9.88477L8.4075 10.4607C7.92759 10.6848 7.1595 11.1328 7.1595 11.7727C7.1595 12.6687 8.91956 13.6287 11.4155 13.6287C13.7195 13.6287 15.3195 12.8287 15.6396 12.0607L16.2155 12.3167C15.7354 13.4687 13.7834 14.2687 11.4155 14.2687Z" fill="white"/>
<path d="M11.4155 16.1876C8.66353 16.1876 6.51953 15.0997 6.51953 13.6916V11.7715H7.15947V13.6916C7.15947 14.5876 8.91953 15.5476 11.4155 15.5476C13.9115 15.5476 15.6715 14.5557 15.6715 13.6916V11.9637H16.3114V13.6916C16.3433 15.0997 14.1674 16.1876 11.4154 16.1876H11.4155Z" fill="white"/>
<path d="M11.3857 17.9478C10.7776 17.9478 10.2018 17.8837 9.59375 17.7878L9.72165 17.1478C10.2656 17.2438 10.8418 17.3079 11.3857 17.3079H11.4176C13.9136 17.3079 15.6736 16.3159 15.6736 15.4519V13.7559H16.3136V15.4519C16.3138 16.8277 14.1698 17.9159 11.3857 17.9478Z" fill="white"/>
<path d="M6.51953 13.5312H7.15947V15.4192H6.51953V13.5312Z" fill="white"/>
<path d="M11.3857 19.6763C10.7776 19.6763 10.1696 19.6123 9.59375 19.5163L9.72165 18.8763C10.2656 18.9723 10.8418 19.0364 11.4177 19.0364C13.9137 19.0364 15.6737 18.0444 15.6737 17.1804V15.4844H16.3136V17.1804C16.3138 18.5884 14.1698 19.6764 11.3857 19.6764C11.4179 19.6764 11.4179 19.6764 11.3857 19.6764L11.3857 19.6763Z" fill="white"/>
<path d="M6.51953 15.2598H7.15947V15.4198H6.51953V15.2598Z" fill="white"/>
<path d="M11.3872 21.4368C10.7473 21.4368 10.1393 21.3727 9.53125 21.2448L9.65915 20.6048C10.235 20.7327 10.8431 20.7968 11.4192 20.7649C13.9152 20.7649 15.6752 19.7729 15.6752 18.9089L15.6754 17.2129H16.3154V18.9089C16.3154 20.3169 14.1714 21.4049 11.4194 21.4049C11.4194 21.4368 11.4194 21.4368 11.3872 21.4368L11.3872 21.4368Z" fill="white"/>
<path d="M5.14541 21.4995C2.52129 21.4995 0.441406 20.4435 0.441406 19.0995V17.2754H1.08135V19.0995C1.08135 19.9314 2.74541 20.8596 5.14541 20.8596C7.54541 20.8596 9.20947 19.9317 9.20947 19.0995V17.4676H9.84941V19.0995C9.84941 20.4435 7.76952 21.4995 5.14541 21.4995Z" fill="white"/>
<path d="M5.14541 23.1636C2.52129 23.1636 0.441406 22.1076 0.441406 20.7636V18.9395H1.08135V20.7636C1.08135 21.5955 2.74541 22.5236 5.14541 22.5236C7.54541 22.5236 9.20947 21.5957 9.20947 20.7636V19.1315H9.84941V20.7634C9.84941 22.1076 7.76952 23.1636 5.14541 23.1636Z" fill="white"/>
<path d="M12.8258 11.1321C10.1698 11.1321 8.08984 10.0761 8.08984 8.70019C8.08984 8.47608 8.15391 8.28412 8.24989 8.09213L8.82577 8.38008C8.76171 8.47606 8.76171 8.60419 8.76171 8.73209C8.76171 9.56403 10.4577 10.524 12.8577 10.524C15.2577 10.524 16.9537 9.56397 16.9537 8.73209C16.9537 8.2841 16.5057 7.83609 15.7377 7.48409L15.9937 6.9082C17.0178 7.35619 17.5937 8.02832 17.5937 8.73232C17.5618 10.0441 15.4818 11.1321 12.8258 11.1321Z" fill="white"/>
<path d="M12.8258 12.9553C10.1698 12.9553 8.08984 11.8993 8.08984 10.5233V8.69922H8.72979V10.5233C8.72979 11.3553 10.4258 12.3153 12.8258 12.3153C15.2258 12.3153 16.9218 11.3552 16.9218 10.5233V8.69922H17.5617V10.5233C17.5617 11.8992 15.4818 12.9553 12.8258 12.9553Z" fill="white"/>
<path d="M11.4156 7.32482C8.75963 7.32482 6.67969 6.26882 6.67969 4.89288C6.67969 3.51694 8.75957 2.46094 11.4156 2.46094C14.0717 2.46094 16.1516 3.51694 16.1516 4.89288C16.1516 6.23688 14.0717 7.32482 11.4156 7.32482ZM11.4156 3.10094C9.01563 3.10094 7.31963 4.06099 7.31963 4.89288C7.31963 5.72477 9.01563 6.68482 11.4156 6.68482C13.8156 6.68482 15.5116 5.72477 15.5116 4.89288C15.5116 4.02882 13.8156 3.10094 11.4156 3.10094Z" fill="white"/>
<path d="M5.14541 19.677C2.52129 19.677 0.441406 18.621 0.441406 17.277C0.441406 15.933 2.52129 14.877 5.14541 14.877C7.76952 14.877 9.84941 15.933 9.84941 17.277C9.84941 18.621 7.76952 19.677 5.14541 19.677ZM5.14541 15.485C2.74541 15.485 1.08135 16.4129 1.08135 17.2451C1.08135 18.077 2.74541 19.0051 5.14541 19.0051C7.54541 19.0051 9.20947 18.0772 9.20947 17.2451C9.20947 16.4131 7.54541 15.485 5.14541 15.485Z" fill="white"/>
<path d="M6.71319 13.7249C4.37725 13.6289 2.61719 12.6048 2.61719 11.389V9.62891H3.25713V11.389C3.25713 12.1249 4.60113 12.989 6.74507 13.085L6.71319 13.7249Z" fill="white"/>
<path d="M6.71319 15.389C4.37725 15.293 2.61719 14.2689 2.61719 13.053V11.293H3.25713V13.053C3.25713 13.789 4.60113 14.653 6.74507 14.749L6.71319 15.389Z" fill="white"/>
<path d="M2.71317 15.5471C2.68125 15.4511 2.61719 14.8431 2.61719 14.7151V12.9551H3.25713V14.7151C3.25713 14.7792 3.32119 15.3232 3.35311 15.4191L2.71317 15.5471Z" fill="white"/>
<path d="M7.16119 8.73272C4.60113 8.73272 2.61719 7.7086 2.61719 6.39678V4.63672H3.25713V6.39678C3.25713 7.19678 4.85713 8.09278 7.16113 8.09278C7.51314 8.09278 7.86513 8.06086 8.18524 8.02871L8.24931 8.66866C7.92922 8.7008 7.54513 8.73272 7.16119 8.73272Z" fill="white"/>
<path d="M7.19307 10.3968C4.60113 10.3968 2.61719 9.37267 2.61719 8.06084V6.30078H3.25713V8.06084C3.25713 8.86084 4.85713 9.75684 7.16113 9.75684C7.60912 9.75684 8.05713 9.72492 8.47319 9.66086L8.56917 10.3008C8.12118 10.3649 7.67319 10.3968 7.19307 10.3968Z" fill="white"/>
<path d="M7.00113 12.0608C4.50513 12.0289 2.61719 11.0048 2.61719 9.7249V7.96484H3.25713V9.7249C3.25713 10.5249 4.76113 11.389 7.00113 11.4209V12.0608Z" fill="white"/>
<path d="M6.84107 7.06866C4.44107 6.97267 2.61719 5.98071 2.61719 4.73271V2.97266H3.25713V4.73271C3.25713 5.50077 4.69707 6.36466 6.87319 6.42871L6.84107 7.06866Z" fill="white"/>
<path d="M6.8413 5.50001C4.4413 5.40403 2.61719 4.41207 2.61719 3.16407C2.61719 1.85201 4.63324 0.828125 7.16119 0.828125C9.30519 0.828125 11.1292 1.56407 11.6092 2.62007L11.0333 2.8761C10.7132 2.1721 9.27324 1.43615 7.16119 1.43615C4.85719 1.43615 3.25719 2.33215 3.25719 3.13215C3.25719 3.90021 4.69713 4.7641 6.87324 4.82815L6.8413 5.50001Z" fill="white"/>
<path d="M11.4156 9.14864C8.75963 9.14864 6.67969 8.09264 6.67969 6.71669V4.89258H7.31963V6.71669C7.31963 7.54864 9.01563 8.50864 11.4156 8.50864C13.8156 8.50864 15.5116 7.54858 15.5116 6.71669V4.89258H16.1516V6.71669C16.1516 8.09258 14.0717 9.14864 11.4156 9.14864Z" fill="white"/>
</svg>