<svg width="32" height="32" viewBox="0 0 24 16" fill="none"
                                xmlns="http://www.w3.org/2000/svg">
                                <path fill-rule="evenodd" clip-rule="evenodd"
                                    d="M0.140625 15.0425L0.015625 14.9175V12.7805C0.015625 11.1445 1.34328 9.8171 2.97877 9.8171H6.36111C6.52919 9.8171 6.69414 9.83161 6.85508 9.85862L7.24816 9.95884L7.73209 9.51063C8.32649 9.06442 9.06512 8.79988 9.86512 8.79988H14.0919C14.8919 8.79988 15.6312 9.06506 16.2259 9.51171L16.7098 9.9606L17.1056 9.85926C17.2676 9.83181 17.4339 9.81707 17.6038 9.81707H20.9861C22.6223 9.81707 23.9495 11.1445 23.9495 12.7804V14.9175L23.8245 15.0425L0.140625 15.0425ZM6.30577 13.8925V12.3592C6.30577 12.0863 6.33657 11.8197 6.39483 11.5637L6.59394 10.9918L6.36113 10.967H2.97879C1.97787 10.967 1.16581 11.7798 1.16581 12.7804V13.8925L6.30577 13.8925ZM16.5006 13.8925V12.3592C16.5006 11.0298 15.4214 9.94987 14.0917 9.94987H9.86491C8.53503 9.94987 7.45554 11.0302 7.45554 12.3592V13.8925H16.5006ZM22.7989 13.8925V12.7804C22.7989 11.7798 21.9862 10.9671 20.9858 10.9671H17.6034L17.3626 10.9932L17.5615 11.5648C17.6199 11.8204 17.651 12.0865 17.651 12.3592V13.8925L22.7989 13.8925ZM1.60405 6.59536C1.60405 4.90273 2.97748 3.52976 4.66988 3.52976C6.36205 3.52976 7.73485 4.90273 7.73485 6.59536C7.73485 8.28667 6.36211 9.66079 4.66988 9.66079C2.97748 9.66079 1.60405 8.2869 1.60405 6.59536ZM16.2298 6.59536C16.2298 4.90273 17.6021 3.52976 19.2947 3.52976C20.9867 3.52976 22.3603 4.90273 22.3603 6.59536C22.3603 8.2869 20.9867 9.66079 19.2947 9.66079C17.6021 9.66079 16.2298 8.28667 16.2298 6.59536ZM6.5852 6.59536C6.5852 5.53822 5.72628 4.67976 4.67 4.67976C3.61285 4.67976 2.75457 5.53822 2.75457 6.59536C2.75457 7.65159 3.61285 8.51079 4.67 8.51079C5.72623 8.51079 6.5852 7.65165 6.5852 6.59536ZM21.2098 6.59536C21.2098 5.53822 20.3511 4.67976 19.2943 4.67976C18.2377 4.67976 17.3789 5.53822 17.3789 6.59536C17.3789 7.65159 18.2376 8.51079 19.2943 8.51079C20.351 8.51079 21.2098 7.65165 21.2098 6.59536ZM8.29148 4.63062C8.29148 2.59559 9.94217 0.943359 11.9777 0.943359C14.0125 0.943359 15.6645 2.59536 15.6645 4.63062C15.6645 6.66565 14.0125 8.31725 11.9777 8.31725C9.94217 8.31725 8.29148 6.66456 8.29148 4.63062ZM14.5143 4.63062C14.5143 3.23107 13.3769 2.09336 11.9775 2.09336C10.5775 2.09336 9.44131 3.23062 9.44131 4.63062C9.44131 6.03039 10.5775 7.16725 11.9775 7.16725C13.3768 7.16725 14.5143 6.02976 14.5143 4.63062Z"
                                    fill="white" />
</svg>