<svg width="32" height="32" viewBox="0 0 30 30" fill="none" xmlns="http://www.w3.org/2000/svg">
<path d="M5.05001 13.6336V12.8336C5.05001 11.4898 3.95624 10.4023 2.61876 10.4023C1.27499 10.4023 0.1875 11.4961 0.1875 12.8336V13.6336C0.1875 14.9711 1.28127 16.0649 2.61876 16.0649C3.96253 16.0649 5.05001 14.9711 5.05001 13.6336ZM4.17504 13.6336C4.17504 14.4898 3.47504 15.1898 2.61881 15.1898C1.76259 15.1898 1.06259 14.4898 1.06259 13.6336V12.8336C1.06259 11.9774 1.76259 11.2774 2.61881 11.2774C3.47504 11.2774 4.17504 11.9774 4.17504 12.8336V13.6336Z" fill="white"/>
<path d="M21.1383 19.5336C22.4821 19.5336 23.5695 18.4398 23.5695 17.1024V16.3024C23.5695 14.9649 22.4758 13.8711 21.1383 13.8711C19.7945 13.8711 18.707 14.9649 18.707 16.3024V17.1024C18.707 18.4398 19.7945 19.5336 21.1383 19.5336ZM19.5821 16.3024C19.5821 15.4461 20.2821 14.7461 21.1383 14.7461C21.9945 14.7461 22.6945 15.4461 22.6945 16.3024V17.1024C22.6945 17.9586 21.9945 18.6586 21.1383 18.6586C20.2821 18.6586 19.5821 17.9586 19.5821 17.1024V16.3024Z" fill="white"/>
<path d="M17.4328 13.6336V12.8336C17.4328 11.4898 16.3391 10.4023 15.0016 10.4023C13.6641 10.4023 12.5703 11.4961 12.5703 12.8336V13.6336C12.5703 14.9711 13.6641 16.0649 15.0016 16.0649C16.3391 16.0649 17.4328 14.9711 17.4328 13.6336ZM16.5579 13.6336C16.5579 14.4898 15.8579 15.1898 15.0016 15.1898C14.1454 15.1898 13.4454 14.4898 13.4454 13.6336V12.8336C13.4454 11.9774 14.1454 11.2774 15.0016 11.2774C15.8579 11.2774 16.5579 11.9774 16.5579 12.8336V13.6336Z" fill="white"/>
<path d="M27.3805 10.4023C26.0367 10.4023 24.9492 11.4961 24.9492 12.8336V13.6336C24.9492 14.9711 26.043 16.0649 27.3805 16.0649C28.7242 16.0649 29.8117 14.9711 29.8117 13.6336V12.8336C29.8117 11.4961 28.718 10.4023 27.3805 10.4023ZM28.9367 13.6336C28.9367 14.4898 28.2367 15.1898 27.3805 15.1898C26.5242 15.1898 25.8242 14.4898 25.8242 13.6336V12.8336C25.8242 11.9774 26.5242 11.2774 27.3805 11.2774C28.2367 11.2774 28.9367 11.9774 28.9367 12.8336V13.6336Z" fill="white"/>
<path d="M8.8141 10.8637C10.1579 10.8637 11.2454 9.76992 11.2454 8.43243V7.63243C11.2454 6.28866 10.1516 5.20117 8.8141 5.20117C7.47661 5.20117 6.38284 6.29494 6.38284 7.63243V8.43243C6.37659 9.76992 7.47032 10.8637 8.8141 10.8637ZM7.25158 7.63243C7.25158 6.7762 7.95158 6.0762 8.80781 6.0762C9.66404 6.0762 10.364 6.7762 10.364 7.63243V8.43243C10.364 9.28866 9.66404 9.98866 8.80781 9.98866C7.95158 9.98866 7.25158 9.28866 7.25158 8.43243V7.63243Z" fill="white"/>
<path d="M21.1383 10.8637C22.4821 10.8637 23.5695 9.76992 23.5695 8.43243V7.63243C23.5695 6.28866 22.4758 5.20117 21.1383 5.20117C19.7945 5.20117 18.707 6.29494 18.707 7.63243V8.43243C18.707 9.76992 19.7945 10.8637 21.1383 10.8637ZM19.5821 7.63243C19.5821 6.7762 20.2821 6.0762 21.1383 6.0762C21.9945 6.0762 22.6945 6.7762 22.6945 7.63243V8.43243C22.6945 9.28866 21.9945 9.98866 21.1383 9.98866C20.2821 9.98866 19.5821 9.28866 19.5821 8.43243V7.63243Z" fill="white"/>
<path d="M15.0016 6.53361C16.3453 6.53361 17.4328 5.43984 17.4328 4.10235V3.30235C17.4328 1.95858 16.3391 0.871094 15.0016 0.871094C13.6641 0.871094 12.5703 1.96487 12.5703 3.30235V4.10235C12.5703 5.43984 13.6578 6.53361 15.0016 6.53361ZM13.4453 3.30235C13.4453 2.44612 14.1453 1.74612 15.0016 1.74612C15.8578 1.74612 16.5578 2.44612 16.5578 3.30235V4.10235C16.5578 4.95858 15.8578 5.65858 15.0016 5.65858C14.1453 5.65858 13.4453 4.95858 13.4453 4.10235V3.30235Z" fill="white"/>
<path d="M8.8141 19.5336C10.1579 19.5336 11.2454 18.4398 11.2454 17.1024V16.3024C11.2454 14.9649 10.1516 13.8711 8.8141 13.8711C7.47661 13.8711 6.38284 14.9649 6.38284 16.3024V17.1024C6.37659 18.4398 7.47032 19.5336 8.8141 19.5336ZM7.25158 16.3024C7.25158 15.4461 7.95158 14.7461 8.80781 14.7461C9.66404 14.7461 10.364 15.4461 10.364 16.3024V17.1024C10.364 17.9586 9.66404 18.6586 8.80781 18.6586C7.95158 18.6586 7.25158 17.9586 7.25158 17.1024V16.3024Z" fill="white"/>
<path d="M10.8438 20.5215C10.7313 20.5215 10.625 20.5653 10.5438 20.6403L8.81251 22.2653L7.14999 20.6465C7.06874 20.5653 6.95625 20.5215 6.84374 20.5215C4.65626 20.5215 2.875 22.3028 2.875 24.4903V28.709C2.875 28.9528 3.06875 29.1465 3.3125 29.1465H14.3062C14.55 29.1465 14.7437 28.9528 14.7437 28.709V24.4153C14.7437 22.2715 12.9937 20.5215 10.8437 20.5215L10.8438 20.5215ZM13.8688 28.2712H3.74994V24.49C3.74994 22.84 5.04371 21.49 6.66868 21.4025L8.49994 23.1837C8.53744 23.2212 8.58119 23.2525 8.63119 23.2712C8.79369 23.34 8.97494 23.3087 9.10619 23.19L11.0124 21.4025C12.5999 21.49 13.8686 22.8087 13.8686 24.4212L13.8688 28.2712Z" fill="white"/>
<path d="M23.1758 20.5215C23.0633 20.5215 22.957 20.5653 22.8758 20.6403L21.1445 22.2653L19.482 20.6465C19.4008 20.5653 19.2883 20.5215 19.1758 20.5215C16.9883 20.5215 15.207 22.3028 15.207 24.4903V28.709C15.207 28.9528 15.4008 29.1465 15.6445 29.1465H26.6382C26.882 29.1465 27.0757 28.9528 27.0757 28.709V24.4153C27.0695 22.2715 25.3195 20.5215 23.1757 20.5215L23.1758 20.5215ZM26.1945 28.2712H16.082V24.49C16.082 22.84 17.3757 21.49 19.0007 21.4025L20.832 23.1837C20.8695 23.2212 20.9132 23.2525 20.9632 23.2712C21.1257 23.34 21.307 23.3087 21.4382 23.19L23.3444 21.4025C24.9319 21.49 26.2007 22.8087 26.2007 24.4212V28.2712L26.1945 28.2712Z" fill="white"/>
</svg>