<svg width="32" height="32" viewBox="0 0 40 40" fill="none" xmlns="http://www.w3.org/2000/svg">
<g clip-path="url(#clip0_3620_15164)">
<path d="M25.4571 9.48235L19.8447 6.24185C19.6999 6.15814 19.521 6.15814 19.3759 6.24185L13.7635 9.48235C13.6184 9.56606 13.5291 9.72091 13.5291 9.88832V16.0984L8.15107 19.2036C8.00599 19.2873 7.9167 19.4422 7.9167 19.6096V26.0903C7.9167 26.2577 8.00599 26.4126 8.15107 26.4963L13.7635 29.7368C13.836 29.7786 13.917 29.7995 13.9979 29.7995C14.0788 29.7995 14.1597 29.7786 14.2322 29.7368L19.6103 26.6316L24.9884 29.7368C25.1335 29.8205 25.3123 29.8205 25.4571 29.7368L31.0696 26.4963C31.2147 26.4126 31.3039 26.2577 31.3039 26.0903V19.6096C31.3039 19.4422 31.2147 19.2873 31.0696 19.2036L25.6915 16.0984V9.88832C25.6915 9.72091 25.6022 9.56606 25.4571 9.48235ZM24.754 16.0984L20.0791 18.7976V13.3995L24.754 10.7006V16.0987V16.0984ZM24.754 28.5191L20.0791 25.8199V20.4218L24.7543 23.121V28.5191H24.754ZM14.4661 23.121L19.1411 20.4218V25.8199L14.4661 28.5191V23.121ZM14.4661 10.7003L19.1414 13.3995V18.7976L14.4661 16.0984V10.7003ZM19.6099 7.18914L24.2848 9.88835L19.6099 12.5873L14.9349 9.88835L19.6099 7.18914ZM13.9974 16.9106L18.6724 19.6098L13.9974 22.309L9.32249 19.6098L13.9974 16.9106ZM8.85371 20.4217L13.5286 23.1209V28.5194L8.85371 25.8201V20.4217ZM25.6916 28.5189V23.1204L30.3665 20.4215V25.8196L25.6916 28.5189ZM29.8978 19.6096L25.2229 22.3088L20.5479 19.6096L25.2229 16.9104L29.8981 19.6096H29.8978ZM39.2192 19.6096C39.2192 18.4464 38.2731 17.5002 37.1099 17.5002C35.9466 17.5002 35.0005 18.4464 35.0005 19.6096C35.0005 20.5686 35.6439 21.3796 36.5217 21.6349C35.7159 28.4086 30.8074 34.1621 24.2196 36.0099C23.9704 36.08 23.8248 36.3386 23.8948 36.5878C23.9528 36.7948 24.1409 36.9301 24.346 36.9301C24.3878 36.9301 24.4305 36.9245 24.4726 36.9125C27.9311 35.9424 30.9933 33.9725 33.3276 31.2161C35.6284 28.4993 37.0533 25.2105 37.4588 21.6897C38.4563 21.5228 39.2191 20.654 39.2191 19.6099L39.2192 19.6096ZM37.1099 20.7814C36.4636 20.7814 35.938 20.2558 35.938 19.6096C35.938 18.9634 36.4637 18.4377 37.1099 18.4377C37.756 18.4377 38.2817 18.9634 38.2817 19.6096C38.2817 20.2558 37.756 20.7814 37.1099 20.7814ZM19.6099 4.21856C20.5689 4.21856 21.3796 3.57515 21.6352 2.69735C28.4078 3.50285 34.1631 8.41385 36.0102 14.9995C36.0682 15.2065 36.2566 15.3419 36.4614 15.3419C36.5032 15.3419 36.5459 15.3363 36.5881 15.3243C36.8372 15.2542 36.9829 14.9956 36.9128 14.7464C35.9441 11.2922 33.9775 8.233 31.2259 5.89929C28.5077 3.59407 25.2153 2.16629 21.6902 1.76036C21.5233 0.762857 20.6545 0 19.6101 0C18.4469 0 17.5008 0.946143 17.5008 2.10936C17.5008 3.27257 18.4469 4.21871 19.6101 4.21871L19.6099 4.21856ZM19.6099 0.937278C20.2561 0.937278 20.7817 1.46295 20.7817 2.10914C20.7817 2.75532 20.256 3.28099 19.6099 3.28099C18.9637 3.28099 18.438 2.75532 18.438 2.10914C18.438 1.46295 18.9637 0.937278 19.6099 0.937278ZM4.21914 19.6094C4.21914 18.6504 3.57572 17.8393 2.69792 17.5841C3.50342 10.8109 8.41335 5.05692 15.0001 3.20906C15.2492 3.13903 15.3949 2.88038 15.3248 2.63122C15.2548 2.38206 14.9962 2.23641 14.747 2.30644C11.2902 3.27601 8.22943 5.24451 5.89486 7.99923C3.59214 10.7166 2.16636 14.0067 1.76036 17.5292C0.762857 17.6961 0 18.5649 0 19.6093C0 20.7725 0.946143 21.7187 2.10936 21.7187C3.27257 21.7187 4.21871 20.7725 4.21871 19.6093L4.21914 19.6094ZM2.10978 20.7813C1.46357 20.7813 0.937922 20.2556 0.937922 19.6094C0.937922 18.9632 1.46359 18.4376 2.10978 18.4376C2.75596 18.4376 3.28164 18.9632 3.28164 19.6094C3.28164 20.2556 2.75596 20.7813 2.10978 20.7813ZM19.6098 34.9999C18.6508 34.9999 17.84 35.6433 17.5844 36.5211C10.8121 35.7156 5.05656 30.804 3.20942 24.2189C3.13939 23.9698 2.88101 23.8244 2.63158 23.8941C2.38241 23.9642 2.23677 24.2228 2.3068 24.472C3.2753 27.9251 5.24123 30.9837 7.99152 33.317C10.71 35.6233 14.0035 37.0519 17.5301 37.4582C17.6969 38.4557 18.5658 39.2188 19.6102 39.2188C20.7734 39.2188 21.7195 38.2726 21.7195 37.1094C21.7195 35.9462 20.7734 35.0001 19.6102 35.0001L19.6098 34.9999ZM19.6098 38.2811C18.9636 38.2811 18.4379 37.7555 18.4379 37.1093C18.4379 36.4631 18.9636 35.9374 19.6098 35.9374C20.256 35.9374 20.7816 36.4631 20.7816 37.1093C20.7816 37.7555 20.256 38.2811 19.6098 38.2811Z" fill="white"/>
</g>
<defs>
<clipPath id="clip0_3620_15164">
<rect width="40" height="40" fill="white"/>
</clipPath>
</defs>
</svg>