<svg width="32" height="32" viewBox="0 0 30 30" fill="none" xmlns="http://www.w3.org/2000/svg">
<path d="M0.619485 0.615291V29.4153H29.4195V28.4552H27.8195V22.3752H27.4994V28.4552H25.5793V19.4952H25.2592V28.4552H23.3391V18.2152H23.019V28.4552H21.0989V19.4952H20.7788V28.4552H18.8587V21.4152H18.5386V28.4552H16.6185V23.6552H16.2984V28.4552H14.3783V25.2552H14.0582V28.4552H12.138V24.9351H11.818V28.4552H9.89784V24.6153H9.57775V28.4552H7.65763V24.9351H7.33754V28.4552H5.41743V24.2952H5.09734V28.4552H3.17722V22.3752H2.85713V28.4552H1.57724V0.615234H0.617188L0.619485 0.615291ZM27.4995 5.41529V7.65523H26.8595V9.57535H27.4995V13.7354H27.8196V9.57535H28.4595V7.65523H27.8196V5.41529H27.4995ZM25.2595 6.05523V8.93512H24.6196V12.4552H25.2595V14.3753H25.5796V12.4552H26.2196V8.93512H25.5796V6.05523H25.2595ZM23.0196 6.69518V10.8552H22.3797V13.4153H23.0196V15.0153H23.3397V13.4153H23.9796V10.8552H23.3397V6.69518H23.0196ZM2.8596 7.97506V9.57506H2.21966V15.015H2.8596V17.8949H3.17969V15.015H3.81963V9.57506H3.17969V7.97506H2.8596ZM27.1796 7.97506H28.1397V9.25495H27.1796V7.97506ZM20.7796 8.29515V11.4952H20.1397V15.0153H20.7796V16.6153H21.0997V15.0153H21.7396V11.4952H21.0997V8.29515H20.7796ZM24.9397 9.25521H25.8997V12.1351H24.9397V9.25521ZM5.09966 10.5351V12.4552H4.45971V16.6153H5.09966V20.7753H5.41975V16.6153H6.05969V12.4552H5.41975V10.5351H5.09966ZM18.5397 10.5351V13.7351H17.8997V16.615H18.5397V18.8549H18.8597V16.615H19.4997V13.7351H18.8597V10.5351H18.5397ZM7.33966 11.175V14.6952H6.69971V17.8952H7.33966V21.0952H7.65975V17.8952H8.29969V14.6952H7.65975V11.175H7.33966ZM22.6997 11.175H23.6597V13.0952H22.6997V11.175ZM20.4597 11.815H21.4198V14.6949H20.4597V11.815ZM9.57971 13.7351V15.6552H8.93977V18.2153H9.57971V22.3753H9.89981V18.2153H10.5397V15.6552H9.89981V13.7351H9.57971ZM16.2997 13.7351V15.6552H15.6598V19.1753H16.2997V22.0552H16.6198V19.1753H17.2597V15.6552H16.6198V13.7351H16.2997ZM18.2198 14.0552H19.1799V16.2951H18.2198V14.0552ZM11.8198 15.3351V15.975H11.1799V19.815H11.8198V22.375H12.1399V19.815H12.7799V15.975H12.1399V15.3351H11.8198ZM14.0598 15.975V17.8951H13.4198V18.8552H14.0598V22.6951H14.3799V18.8552H15.0198V17.8951H14.3799V15.975H14.0598ZM15.9799 15.975H16.9399V18.8549H15.9799V15.975Z" fill="white"/>
</svg>