<svg width="32" height="32" viewBox="0 0 30 30" fill="none" xmlns="http://www.w3.org/2000/svg">
<path d="M29.3772 14.2951C29.0102 6.92029 23.1097 1.018 15.7332 0.652288V0.615234H14.2932V0.652288C6.91665 1.01813 1.01436 6.92029 0.649219 14.2951H0.613281V15.7351H0.649219C1.01484 23.1105 6.91665 29.0128 14.2932 29.3785V29.4149H15.7332V29.3785C23.1097 29.0127 29.0103 23.1105 29.3772 15.7351H29.4131V14.2951H29.3772ZM22.9132 14.2951C22.8598 12.3306 22.5915 10.473 22.1471 8.79269C23.2688 8.15137 24.3036 7.37149 25.2101 6.46189C27.0108 8.60566 28.1364 11.3224 28.2969 14.295L22.9132 14.2951ZM20.8612 8.24257C19.2973 9.01086 17.5658 9.48006 15.7335 9.57852V1.77509C17.8866 2.23781 19.7692 4.74526 20.8612 8.24257ZM14.2932 1.77509V9.57852C12.4606 9.47985 10.728 9.01111 9.16613 8.24257C10.2558 4.74503 12.14 2.23743 14.2932 1.77515M14.2932 10.6586V14.295H8.19316C8.24383 12.526 8.48044 10.8383 8.86751 9.30257C10.5271 10.0885 12.3581 10.5629 14.2932 10.6586ZM14.2932 15.7349V20.0907C12.4222 20.1843 10.6494 20.6334 9.03579 21.3776C8.5465 19.6763 8.25122 17.7569 8.19248 15.735L14.2932 15.7349ZM14.2932 21.1709V28.2554C12.2695 27.8202 10.4786 25.5869 9.36573 22.4166C10.8753 21.7003 12.5372 21.265 14.2932 21.1703M15.7333 28.2549V21.1703C17.4889 21.265 19.1512 21.7003 20.6608 22.4163C19.5469 25.5866 17.7554 27.8197 15.7333 28.2552M21.6276 22.9239C22.5156 23.4378 23.3466 24.0382 24.0912 24.7345C22.5575 26.1668 20.6921 27.2405 18.618 27.826C19.8394 26.6874 20.8765 24.9954 21.6276 22.924M15.7333 20.0903V15.7345H21.8333C21.7742 17.7559 21.4791 19.6753 20.9896 21.3771C19.3753 20.6331 17.6034 20.1838 15.7331 20.0902M15.7331 14.2942V10.6578C17.6675 10.5621 19.4985 10.0875 21.1583 9.30223C21.5458 10.8379 21.782 12.5252 21.8331 14.2946L15.7331 14.2944V14.2942ZM24.8371 6.05252C24.7168 5.91881 24.6025 5.78242 24.4764 5.65453C23.6895 6.44961 22.7951 7.1351 21.8304 7.71344C21.0697 5.36859 19.956 3.45093 18.6179 2.20361C21.0438 2.88733 23.1833 4.23979 24.8373 6.05247M11.4082 2.20361C10.0693 3.4507 8.95639 5.36836 8.19502 7.71344C7.23028 7.1351 6.33656 6.45007 5.54902 5.65453C5.42581 5.77975 5.31509 5.91345 5.19678 6.0427C6.85016 4.23556 8.98668 2.88624 11.4082 2.20361ZM4.81564 6.46076C5.72278 7.37059 6.75673 8.15024 7.87839 8.79156C7.43397 10.4719 7.1661 12.3297 7.11318 14.294L1.72901 14.2942C1.88928 11.3217 3.01564 8.60498 4.81564 6.46052M1.72901 15.7342H7.11341C7.1739 17.9476 7.49801 20.0352 8.04867 21.8742C7.00581 22.4557 6.03684 23.1504 5.17387 23.9606C5.41717 24.2292 5.6703 24.4868 5.93456 24.7341C6.67987 24.0376 7.51181 23.4374 8.39816 22.9236C9.1493 24.9952 10.1863 26.6874 11.408 27.8256C6.03478 26.3097 2.03941 21.5096 1.72913 15.7341M24.0914 24.7341C24.3557 24.4868 24.6095 24.2292 24.8528 23.9607C23.9887 23.1509 23.0198 22.456 21.978 21.8743C22.5273 20.035 22.8526 17.9475 22.9132 15.7343H28.297C28.1054 19.2809 26.5298 22.456 24.0914 24.7343" fill="white"/>
</svg>