<svg width="32" height="32" viewBox="0 0 28 32" fill="none" xmlns="http://www.w3.org/2000/svg">
<path d="M14.3268 9.49379C14.1614 9.38553 13.9473 9.38553 13.7819 9.49379C10.2306 11.8034 8.32676 15.4892 9.15202 18.4561C10.3958 22.9286 17.732 22.9036 18.9549 18.3744C19.7489 15.434 17.8455 11.7824 14.327 9.49381L14.3268 9.49379ZM17.9893 18.1132C17.0406 21.6286 11.0916 21.6954 10.115 18.1876C9.53152 16.0909 10.7067 12.8204 14.0541 10.5138C17.3691 12.798 18.5499 16.0364 17.9891 18.1127L17.9893 18.1132Z" fill="white"/>
<path d="M13.4083 14.6951C13.8838 14.5317 14.4049 14.5656 14.8556 14.7888C15.0391 14.9951 15.355 15.0134 15.5615 14.8299C15.7677 14.6464 15.7862 14.3306 15.6025 14.1241C15.3101 13.8538 14.9382 13.6846 14.542 13.6419V13.2651C14.542 12.989 14.3181 12.7651 14.042 12.7651C13.7659 12.7651 13.542 12.989 13.542 13.2651V13.6352C13.3862 13.6571 13.2329 13.6948 13.0846 13.7477C12.805 13.8363 12.561 14.012 12.3882 14.2493C12.2156 14.4866 12.1235 14.7727 12.125 15.066C12.125 16.4912 13.5243 16.4912 13.9844 16.4912C14.9214 16.4912 14.961 16.6216 14.961 16.916C14.961 16.9979 14.961 17.1903 14.5978 17.3149V17.3151C14.1373 17.4656 13.6348 17.4147 13.2138 17.1749C13.0453 16.9562 12.7315 16.9156 12.5127 17.0841C12.2939 17.2526 12.2533 17.5665 12.4219 17.7852C12.7143 18.1031 13.1125 18.3035 13.542 18.3495V18.7223C13.542 18.9984 13.7659 19.2223 14.042 19.2223C14.3181 19.2223 14.542 18.9984 14.542 18.7223V18.3522C14.6697 18.3326 14.7955 18.3024 14.9185 18.2622C15.2163 18.1843 15.4801 18.01 15.6688 17.7665C15.8574 17.5232 15.9601 17.2241 15.961 16.916C15.961 15.4912 14.5757 15.4912 13.9844 15.4912C13.125 15.4912 13.125 15.3037 13.125 15.066C13.125 14.9352 13.1592 14.7995 13.4083 14.695L13.4083 14.6951Z" fill="white"/>
<path d="M11.1015 4.98195H12.435V7.69332C12.4375 7.97055 12.6631 8.19399 12.9406 8.19332L15.1667 8.17033H15.1665C15.4406 8.16742 15.6611 7.94443 15.6611 7.67033V4.98193H16.9966C17.1913 4.98193 17.3683 4.86898 17.4502 4.69242C17.5321 4.51586 17.5042 4.30782 17.3785 4.15916L14.4308 0.668303C14.3328 0.56116 14.1942 0.5 14.0488 0.5C13.9035 0.5 13.7649 0.56116 13.6669 0.668303L10.7198 4.15916C10.5942 4.30782 10.566 4.51586 10.648 4.69242C10.7299 4.86898 10.9069 4.98195 11.1015 4.98195Z" fill="white"/>
<path d="M7.6127 10.3843L5.28505 9.04057L5.95202 7.88434H5.95224C6.04956 7.71581 6.04019 7.50621 5.92836 7.34684C5.81631 7.18769 5.62233 7.10778 5.43059 7.14216L0.935048 7.94884C0.790179 7.97473 0.664065 8.06335 0.590408 8.19103C0.516745 8.31849 0.503134 8.47206 0.553131 8.61045L2.10159 12.9089C2.16743 13.0919 2.33373 13.2201 2.52748 13.2375C2.72145 13.2547 2.90761 13.158 3.00494 12.9895L3.67237 11.8348L6.02059 13.1904V13.1902C6.13622 13.2567 6.27372 13.2743 6.40251 13.2391C6.53109 13.2038 6.64046 13.1187 6.70609 13.0027L7.79826 11.0627H7.79848C7.93308 10.8239 7.85027 10.5214 7.61277 10.3844L7.6127 10.3843Z" fill="white"/>
<path d="M6.62676 18.8841C6.48726 18.6484 6.18413 18.5687 5.94665 18.7056L3.61808 20.0497L2.95111 18.8935C2.85557 18.723 2.66785 18.6257 2.47365 18.6455C2.27968 18.6627 2.1136 18.7908 2.04776 18.9741L0.498444 23.2714C0.448444 23.4098 0.46206 23.5634 0.535721 23.6908C0.609161 23.8185 0.735275 23.9071 0.880361 23.933L5.37699 24.7406H5.37677C5.56851 24.7752 5.7627 24.6953 5.87453 24.5359C5.98636 24.3768 5.99574 24.167 5.89842 23.9984L5.23144 22.8431L7.57967 21.4877H7.57945C7.69507 21.4209 7.779 21.3107 7.81293 21.1814C7.84686 21.0524 7.82766 20.9151 7.75958 20.8002L6.62676 18.8841Z" fill="white"/>
<path d="M16.8795 27.0005H15.546V24.2891C15.5462 24.1554 15.4929 24.0271 15.398 23.9331C15.3029 23.8391 15.1741 23.7873 15.0404 23.7891L12.8143 23.8121L12.8145 23.8119C12.5404 23.815 12.3199 24.038 12.3199 24.3119V27.0003H10.9844V27.0005C10.7898 27.0005 10.6128 27.1134 10.5309 27.29C10.4489 27.4666 10.4768 27.6746 10.6025 27.8233L13.5498 31.3139C13.6449 31.4264 13.7844 31.4911 13.9317 31.4911C14.0788 31.4911 14.2186 31.4264 14.3134 31.3139L17.2612 27.8233C17.3869 27.6746 17.415 27.4666 17.3331 27.29C17.2512 27.1134 17.0741 27.0005 16.8795 27.0005Z" fill="white"/>
<path d="M25.8712 19.0742C25.8054 18.8912 25.6391 18.7628 25.4453 18.7456C25.2514 18.7282 25.0652 18.8251 24.9679 18.9936L24.3009 20.1483L21.9522 18.7923V18.7925C21.8366 18.7258 21.6991 18.7082 21.5703 18.7432C21.4415 18.7785 21.3324 18.8637 21.2667 18.98L20.1739 20.9195C20.0393 21.1584 20.1221 21.461 20.3594 21.5981L22.687 22.9423L22.0201 24.0981C21.9227 24.2666 21.9321 24.4764 22.0439 24.6358C22.1558 24.795 22.35 24.8749 22.5415 24.8403L27.0375 24.0336L27.0377 24.0338C27.1826 24.0077 27.3087 23.9191 27.3823 23.7916C27.456 23.6642 27.4696 23.5106 27.4196 23.3722L25.8712 19.0742Z" fill="white"/>
<path d="M27.4427 8.29164C27.3691 8.16396 27.243 8.07534 27.0979 8.04945L22.6008 7.24185C22.4093 7.20725 22.2151 7.28717 22.1032 7.44632C21.9914 7.60569 21.982 7.81529 22.0794 7.98381L22.7468 9.13918L20.3981 10.4948H20.3983C20.2827 10.5615 20.1985 10.6718 20.1648 10.8008C20.1309 10.9301 20.1501 11.0673 20.218 11.1823L21.3512 13.0983L21.3514 13.0981C21.4907 13.3341 21.7941 13.4137 22.0316 13.2769L24.3597 11.9327L25.0271 13.089C25.1226 13.2593 25.3104 13.3568 25.5048 13.337C25.6985 13.3198 25.8646 13.1914 25.9304 13.0084L27.4798 8.71108C27.53 8.57268 27.5164 8.41909 27.4427 8.29164Z" fill="white"/>
</svg>