<svg width="32" height="32" viewBox="0 0 34 33" fill="none" xmlns="http://www.w3.org/2000/svg">
<path d="M20.6579 25.6348H12.5871C12.496 25.6348 12.4219 25.7089 12.4219 25.7999V26.5198C12.4219 26.6109 12.496 26.685 12.5871 26.685L20.6579 26.6852C20.749 26.6852 20.8231 26.6111 20.8231 26.5201V25.8002C20.8231 25.7089 20.749 25.6348 20.6579 25.6348Z" fill="white"/>
<path d="M13.9621 30.3613C13.871 30.3613 13.7969 30.4354 13.7969 30.5265V31.2464C13.7969 31.3375 13.871 31.4116 13.9621 31.4116H21.1478C21.2388 31.4116 21.3129 31.3375 21.3129 31.2464V30.5265C21.3129 30.4354 21.2388 30.3613 21.1478 30.3613H13.9621Z" fill="white"/>
<path d="M20.8231 21.0753C20.8231 20.9843 20.749 20.9102 20.6579 20.9102H12.5871C12.496 20.9102 12.4219 20.9843 12.4219 21.0753V21.7952C12.4219 21.8863 12.496 21.9604 12.5871 21.9604H20.6579C20.749 21.9604 20.8231 21.8863 20.8231 21.7952V21.0753Z" fill="white"/>
<path d="M20.8231 23.3694V22.6496C20.8231 22.5585 20.749 22.4844 20.6579 22.4844H12.5871C12.496 22.4844 12.4219 22.5585 12.4219 22.6496V23.3694C12.4219 23.4605 12.496 23.5346 12.5871 23.5346H20.6579C20.749 23.5346 20.8231 23.4605 20.8231 23.3694Z" fill="white"/>
<path d="M21.0804 27.2109H13.0089C12.9179 27.2109 12.8438 27.285 12.8438 27.3761V28.096C12.8438 28.1871 12.9179 28.2612 13.0089 28.2612H21.0804C21.1714 28.2612 21.2455 28.1871 21.2455 28.096V27.3761C21.2453 27.285 21.1712 27.2109 21.0804 27.2109Z" fill="white"/>
<path d="M16.9957 18.7002L29.4186 6.27787C29.521 6.17541 29.6873 6.17541 29.7898 6.27787L32.2139 8.70176L32.9806 0.986328L25.2652 1.7533L27.6891 4.17719C27.7384 4.22652 27.7661 4.29325 27.7661 4.3629C27.7661 4.43255 27.7384 4.49928 27.6891 4.54861L17.1908 15.0463C17.1415 15.0957 17.0747 15.1231 17.0051 15.1231C16.9354 15.1231 16.8687 15.0954 16.8194 15.0463L11.5692 9.7961L2.02344 26.6847H2.12857L11.9269 14.0487C11.9731 13.9891 12.0427 13.9522 12.1177 13.9476C12.1929 13.9426 12.2666 13.9705 12.3199 14.0239L16.9957 18.7002Z" fill="white"/>
<path d="M10.1741 28.7852H2.10268C2.0116 28.7852 1.9375 28.8593 1.9375 28.9503V29.6702C1.9375 29.7613 2.01161 29.8354 2.10268 29.8354H10.1741C10.2652 29.8354 10.3393 29.7613 10.3393 29.6702V28.9503C10.3393 28.8593 10.2652 28.7852 10.1741 28.7852Z" fill="white"/>
<path d="M9.22041 31.9355H1.14955C1.05848 31.9355 0.984375 32.0097 0.984375 32.1007V32.8206C0.984375 32.9117 1.05848 32.9858 1.14955 32.9858H9.22041C9.31148 32.9858 9.38559 32.9117 9.38559 32.8206V32.1007C9.38559 32.0097 9.31148 31.9355 9.22041 31.9355Z" fill="white"/>
<path d="M1.50893 31.4116H8.69464C8.78572 31.4116 8.85982 31.3375 8.85982 31.2464V30.5265C8.85982 30.4354 8.78571 30.3613 8.69464 30.3613H1.50893C1.41785 30.3613 1.34375 30.4354 1.34375 30.5265V31.2464C1.34375 31.3375 1.41786 31.4116 1.50893 31.4116Z" fill="white"/>
<path d="M21.51 24.0605H13.4386C13.3475 24.0605 13.2734 24.1347 13.2734 24.2257V24.9456C13.2734 25.0367 13.3475 25.1108 13.4386 25.1108H21.51C21.6011 25.1108 21.6752 25.0367 21.6752 24.9456V24.2257C21.675 24.1346 21.6009 24.0605 21.51 24.0605Z" fill="white"/>
<path d="M1.57924 28.2612H9.6501C9.74117 28.2612 9.81527 28.1871 9.81527 28.096V27.3761C9.81527 27.285 9.74117 27.2109 9.6501 27.2109H1.57924C1.48817 27.2109 1.41406 27.285 1.41406 27.3761V28.096C1.41406 28.1871 1.48817 28.2612 1.57924 28.2612Z" fill="white"/>
<path d="M20.7221 29.6702V28.9503C20.7221 28.8593 20.648 28.7852 20.5569 28.7852H12.4855C12.3944 28.7852 12.3203 28.8593 12.3203 28.9503V29.6702C12.3203 29.7613 12.3944 29.8354 12.4855 29.8354H20.5569C20.648 29.8354 20.7221 29.7613 20.7221 29.6702Z" fill="white"/>
<path d="M21.51 31.9355H13.4386C13.3475 31.9355 13.2734 32.0097 13.2734 32.1007V32.8206C13.2734 32.9117 13.3475 32.9858 13.4386 32.9858H21.51C21.6011 32.9858 21.6752 32.9117 21.6752 32.8206V32.1007C21.675 32.0097 21.6009 31.9355 21.51 31.9355Z" fill="white"/>
<path d="M21.4168 20.219V19.4992C21.4168 19.4081 21.3427 19.334 21.2517 19.334H13.1808C13.0897 19.334 13.0156 19.4081 13.0156 19.4992V20.219C13.0156 20.3101 13.0897 20.3842 13.1808 20.3842H21.2522C21.3431 20.3844 21.4172 20.3103 21.4172 20.219H21.4168Z" fill="white"/>
<path d="M25.3058 30.3613C25.2147 30.3613 25.1406 30.4354 25.1406 30.5265V31.2464C25.1406 31.3375 25.2147 31.4116 25.3058 31.4116H32.4921C32.5832 31.4116 32.6573 31.3375 32.6573 31.2464V30.5265C32.6573 30.4354 32.5832 30.3613 32.4921 30.3613H25.3058Z" fill="white"/>
<path d="M32.4235 27.2109H24.3527C24.2616 27.2109 24.1875 27.285 24.1875 27.3761V28.096C24.1875 28.1871 24.2616 28.2612 24.3527 28.2612H32.4241C32.5152 28.2612 32.5893 28.1871 32.5893 28.096V27.3761C32.5891 27.285 32.515 27.2109 32.4239 27.2109H32.4235Z" fill="white"/>
<path d="M31.9944 25.6348H23.923C23.8319 25.6348 23.7578 25.7089 23.7578 25.7999V26.5198C23.7578 26.6109 23.8319 26.685 23.923 26.685H31.9944C32.0855 26.685 32.1596 26.6109 32.1596 26.5198V25.7999C32.1596 25.7089 32.0855 25.6348 31.9944 25.6348Z" fill="white"/>
<path d="M32.8532 31.9355H24.7824C24.6913 31.9355 24.6172 32.0097 24.6172 32.1007V32.8206C24.6172 32.9117 24.6913 32.9858 24.7824 32.9858H32.8532C32.9443 32.9858 33.0184 32.9117 33.0184 32.8206V32.1007C33.0184 32.0097 32.9443 31.9355 32.8532 31.9355Z" fill="white"/>
<path d="M32.9174 17.0687V16.3488C32.9174 16.2577 32.8433 16.1836 32.7522 16.1836H24.6808C24.5897 16.1836 24.5156 16.2577 24.5156 16.3488V17.0687C24.5156 17.1597 24.5897 17.2338 24.6808 17.2338H32.7522C32.8433 17.2338 32.9174 17.1597 32.9174 17.0687Z" fill="white"/>
<path d="M32.0653 29.6702V28.9503C32.0653 28.8593 31.9912 28.7852 31.9001 28.7852H23.8292C23.7382 28.7852 23.6641 28.8593 23.6641 28.9503V29.6702C23.6641 29.7613 23.7382 29.8354 23.8292 29.8354H31.9007C31.9915 29.8354 32.0656 29.7613 32.0656 29.6702H32.0653Z" fill="white"/>
<path d="M32.7528 20.219V19.4992C32.7528 19.4081 32.6787 19.334 32.5876 19.334H24.5167C24.4257 19.334 24.3516 19.4081 24.3516 19.4992V20.219C24.3516 20.3101 24.4257 20.3842 24.5167 20.3842H32.5876C32.6787 20.3844 32.7528 20.3103 32.7528 20.219Z" fill="white"/>
<path d="M32.8532 24.0605H24.7824C24.6913 24.0605 24.6172 24.1347 24.6172 24.2257V24.9456C24.6172 25.0367 24.6913 25.1108 24.7824 25.1108H32.8532C32.9443 25.1108 33.0184 25.0367 33.0184 24.9456V24.2257C33.0184 24.1346 32.9443 24.0605 32.8532 24.0605Z" fill="white"/>
<path d="M32.1596 21.0753C32.1596 20.9843 32.0855 20.9102 31.9944 20.9102H23.923C23.8319 20.9102 23.7578 20.9843 23.7578 21.0753V21.7952C23.7578 21.8863 23.8319 21.9604 23.923 21.9604H31.9944C32.0855 21.9604 32.1596 21.8863 32.1596 21.7952V21.0753Z" fill="white"/>
<path d="M32.2282 15.6577C32.3193 15.6577 32.3934 15.5836 32.3934 15.4925V14.7726C32.3934 14.6815 32.3193 14.6074 32.2282 14.6074H24.1574C24.0663 14.6074 23.9922 14.6815 23.9922 14.7726V15.4925C23.9922 15.5836 24.0663 15.6577 24.1574 15.6577H32.2282Z" fill="white"/>
<path d="M23.6641 17.9249V18.6448C23.6641 18.7359 23.7382 18.81 23.8292 18.81H31.9007C31.9917 18.81 32.0658 18.7359 32.0658 18.6448V17.9249C32.0658 17.8339 31.9917 17.7598 31.9007 17.7598H23.8292C23.7382 17.76 23.6641 17.8341 23.6641 17.9249Z" fill="white"/>
<path d="M32.1596 23.3694V22.6496C32.1596 22.5585 32.0855 22.4844 31.9944 22.4844H23.923C23.8319 22.4844 23.7578 22.5585 23.7578 22.6496V23.3694C23.7578 23.4605 23.8319 23.5346 23.923 23.5346H31.9944C32.0855 23.5346 32.1596 23.4605 32.1596 23.3694Z" fill="white"/>
</svg>