<svg width="32" height="32" viewBox="0 0 26 28" fill="none" xmlns="http://www.w3.org/2000/svg">
<path d="M25.3884 2.0124C25.3884 0.659711 22.9739 0.0429688 20.734 0.0429688C18.494 0.0429688 16.0795 0.659711 16.0795 2.0124V2.05302V2.09655V4.42381L16.0793 4.42425C16.0777 4.44256 16.0777 4.46108 16.0793 4.47939C16.0777 4.50082 16.0777 4.52224 16.0793 4.54345V6.87071C16.0777 6.88923 16.0777 6.90754 16.0793 6.92606C16.0777 6.94727 16.0777 6.9687 16.0793 6.9899V9.31733C16.0777 9.33564 16.0777 9.35416 16.0793 9.37247C16.078 9.3939 16.078 9.41532 16.0793 9.43653V11.7638C16.078 11.7823 16.078 11.8006 16.0793 11.8191C16.0777 11.8395 16.0777 11.8598 16.0793 11.8803V14.2076C16.078 14.2259 16.078 14.2444 16.0793 14.2627C16.0777 14.283 16.0777 14.3035 16.0793 14.3239V16.6511C16.078 16.6696 16.078 16.6879 16.0793 16.7065C16.0777 16.7268 16.0777 16.7471 16.0793 16.7674V19.0948C16.0777 19.1131 16.0777 19.1317 16.0793 19.15C16.0777 19.1714 16.0777 19.1928 16.0793 19.214V21.5413C16.0777 21.5598 16.0777 21.5781 16.0793 21.5966C16.0777 21.6178 16.0777 21.6393 16.0793 21.6607V23.988C16.0793 25.3436 18.4938 25.9603 20.7338 25.9603C22.9737 25.9603 25.3882 25.3436 25.3882 23.988V21.6607H25.3884C25.39 21.6393 25.39 21.6179 25.3884 21.5966V21.5413V19.214C25.39 19.1928 25.39 19.1714 25.3884 19.15V19.0946V16.7674C25.3898 16.747 25.3898 16.7267 25.3884 16.7064V16.6511V14.3238C25.3898 14.3035 25.3898 14.283 25.3884 14.2626V14.2073V11.88V11.8803C25.3898 11.8597 25.3898 11.8394 25.3884 11.8191V11.7637V9.43648C25.3896 9.41527 25.3896 9.39384 25.3884 9.37241V9.31706V6.9898C25.39 6.96859 25.39 6.94717 25.3884 6.92596V6.8706V4.54626C25.39 4.52505 25.39 4.50363 25.3884 4.4822V4.42684V2.09958V2.05606V2.01231V2.0124ZM24.3704 21.5033C24.3704 21.7477 23.1195 22.4546 20.7282 22.4546C18.3369 22.4546 17.086 21.7477 17.086 21.5033V20.3397C17.9965 20.8022 19.39 21.0234 20.7282 21.0234C22.0664 21.0234 23.4599 20.8024 24.3704 20.3397V21.5033ZM24.3704 19.0626C24.3704 19.307 23.1195 20.0139 20.7282 20.0139C18.3369 20.0139 17.086 19.307 17.086 19.0626L17.0858 17.9282C17.9963 18.3907 19.3898 18.6119 20.728 18.6119C22.0662 18.6119 23.4597 18.391 24.3702 17.9282L24.3704 19.0626ZM24.3704 16.622C24.3704 16.8664 23.1195 17.5733 20.7282 17.5733C18.3369 17.5733 17.086 16.8664 17.086 16.622V15.4584C17.9965 15.9209 19.39 16.1421 20.7282 16.1421C22.0664 16.1421 23.4599 15.9211 24.3704 15.4584V16.622ZM24.3704 14.1814C24.3704 14.4258 23.1195 15.1327 20.7282 15.1327C18.3367 15.1325 17.0858 14.4371 17.0858 14.1869V13.0233C17.9963 13.4858 19.3898 13.707 20.728 13.707C22.0661 13.707 23.4597 13.486 24.3702 13.0233L24.3704 14.1814ZM24.3704 11.7407C24.3704 11.9852 23.1195 12.6921 20.7282 12.6921C18.3369 12.6921 17.086 11.9851 17.086 11.7407V10.5771C17.9965 11.0396 19.39 11.2609 20.7282 11.2609C22.0664 11.2609 23.4599 11.0399 24.3704 10.5771V11.7407ZM24.3704 9.2972C24.3704 9.54161 23.1195 10.2514 20.7282 10.2514C18.3369 10.2514 17.086 9.5416 17.086 9.2972V8.1336C17.9965 8.599 19.39 8.81731 20.7282 8.81731C22.0664 8.81731 23.4599 8.59923 24.3704 8.1336V9.2972ZM24.3704 6.85657C24.3704 7.10099 23.1195 7.80788 20.7282 7.80788C18.3367 7.80744 17.0858 7.10634 17.0858 6.87348V5.70988C17.9963 6.17239 19.3898 6.3936 20.728 6.3936C22.0661 6.3936 23.4597 6.17261 24.3702 5.70988L24.3704 6.85657ZM24.3704 4.41594C24.3704 4.66036 23.1195 5.36725 20.7282 5.36725C18.3369 5.36725 17.086 4.66034 17.086 4.41594L17.0858 3.29828C17.9963 3.76079 19.3898 3.982 20.728 3.982C22.0662 3.982 23.4597 3.76101 24.3702 3.29828L24.3704 4.41594ZM20.728 1.05543C23.1193 1.05543 24.3702 1.76234 24.3702 2.00674C24.3702 2.25114 23.1192 2.95805 20.728 2.95805C18.3367 2.95805 17.0858 2.25114 17.0858 2.00674C17.0858 1.76234 18.3251 1.05543 20.728 1.05543ZM20.728 24.9097C18.3251 24.9097 17.0858 24.1941 17.0858 23.9497V22.7861C17.9963 23.2515 19.3898 23.4698 20.728 23.4698C22.0661 23.4698 23.4597 23.2517 24.3702 22.7861V23.9497C24.3702 24.1941 23.1192 24.9097 20.728 24.9097Z" fill="white"/>
<path d="M9.93921 14.3271V13.8267C9.94055 13.815 9.94055 13.8034 9.93921 13.7918C9.94055 13.7715 9.94055 13.751 9.93921 13.7307V11.4034C9.94033 11.3909 9.94033 11.3782 9.93921 11.3657C9.94078 11.3501 9.94078 11.3347 9.93921 11.319C9.93921 9.96635 7.5247 9.34961 5.28476 9.34961C3.04482 9.34961 0.630301 9.96635 0.630301 11.319H0.630078C0.628516 11.3376 0.628516 11.3559 0.630078 11.3744V11.4034V13.7307V13.7831V13.7976C0.628739 13.8092 0.628739 13.8211 0.630078 13.8325V16.1599C0.628516 16.188 0.628516 16.2161 0.630078 16.2443C0.628739 16.2559 0.628739 16.2675 0.630078 16.2791V18.6063C0.628516 18.6345 0.628516 18.6626 0.630078 18.6907C0.628739 18.6994 0.628739 18.7084 0.630078 18.7168V21.0443C0.628516 21.0722 0.628516 21.1005 0.630078 21.1286C0.628739 21.1371 0.628739 21.1461 0.630078 21.1548V23.482C0.630078 24.7329 2.69551 25.3554 4.78139 25.4398V26.0218C4.78139 27.3745 7.19882 27.9912 9.43585 27.9912C11.6729 27.9912 14.0903 27.3745 14.0903 26.0218V23.6945L14.0905 23.6943C14.0919 23.6847 14.0919 23.6749 14.0905 23.6653C14.0919 23.6383 14.0919 23.611 14.0905 23.5838V21.2566C14.0919 21.2479 14.0919 21.2391 14.0905 21.2304C14.0919 21.2023 14.0919 21.1742 14.0905 21.1461V18.8012C14.0919 18.7927 14.0919 18.7838 14.0905 18.7751C14.0919 18.747 14.0919 18.7188 14.0905 18.6907V16.3635C14.0919 16.3547 14.0919 16.3458 14.0905 16.3373C14.0919 16.317 14.0919 16.2965 14.0905 16.2762C14.0934 15.034 12.0278 14.4114 9.93921 14.3271ZM13.0897 23.578C13.0897 23.8224 11.8359 24.5293 9.44459 24.5293H9.30798C8.57095 24.5313 7.83632 24.4444 7.12027 24.2703C6.24752 24.0433 5.78501 23.7293 5.78501 23.5809V22.4173C6.19907 22.6246 6.63815 22.778 7.09124 22.874C7.69124 23.0032 8.30175 23.0791 8.91512 23.101H9.42428H9.93343C11.097 23.0543 12.2607 22.8362 13.0694 22.4318L13.0897 23.578ZM4.95882 15.674C4.8356 15.8539 4.76975 16.0668 4.76975 16.2849C4.76819 16.3052 4.76819 16.3257 4.76975 16.346C4.76819 16.3547 4.76819 16.3634 4.76975 16.3721V17.0907C2.71307 17.0005 1.63672 16.3779 1.63672 16.1509V14.9873C2.47444 15.4237 3.72242 15.642 4.95882 15.674ZM4.76975 18.1088V18.6907C4.76819 18.7188 4.76819 18.7469 4.76975 18.7751C4.76819 18.7838 4.76819 18.7927 4.76975 18.8012V19.5226C2.71307 19.4324 1.63672 18.807 1.63672 18.58V17.4164L1.6365 17.4166C2.62353 17.8561 3.68942 18.0916 4.76976 18.109L4.76975 18.1088ZM1.63672 19.8833L1.6365 19.8836C2.62576 20.313 3.69142 20.5385 4.76976 20.5467V21.1286C4.7682 21.1565 4.7682 21.1849 4.76976 21.2128C4.7682 21.2215 4.7682 21.2304 4.76976 21.2391V21.9606C2.71307 21.8704 1.63673 21.2478 1.63673 21.0179L1.63672 19.8833ZM13.0899 21.1286C13.0899 21.3557 12.0135 21.9811 9.95392 22.0713H9.44477L9.30816 22.071H8.92134H8.92111C8.31488 22.0496 7.71243 21.9657 7.12334 21.8208C6.2506 21.5909 5.78808 21.2769 5.78808 21.1284V19.9648C6.20259 20.1657 6.64031 20.3142 7.09145 20.407C7.69145 20.5365 8.30197 20.6124 8.91534 20.634H9.29056H9.5582H9.93342H9.93364C11.0187 20.6329 12.0923 20.4121 13.0899 19.9853L13.0899 21.1286ZM13.0899 18.688C13.0899 18.915 12.0135 19.5405 9.95392 19.6306H9.44477L9.30816 19.6304H8.91843H8.91821C8.31484 19.611 7.7153 19.5282 7.12912 19.3831C6.25638 19.1561 5.79387 18.842 5.79387 18.6936V17.5766C6.18003 17.7641 6.58741 17.9048 7.00701 17.9954C7.63735 18.1405 8.28044 18.2242 8.9269 18.2456H9.21774H9.65412H9.94497H9.94519C11.0278 18.2365 12.0974 18.0088 13.0898 17.5766L13.0899 18.688ZM13.0899 16.2793C13.0899 16.5063 12.0135 17.1318 9.95392 17.222H9.44477H9.28182H8.93562L8.93584 17.2217C8.3039 17.2007 7.67647 17.1092 7.0651 16.9483C6.2303 16.7242 5.80258 16.4217 5.80258 16.2791C5.80258 16.0521 6.87892 15.4295 8.93561 15.3394H9.44476H9.95392C11.999 15.4354 13.0899 16.0581 13.0899 16.2849L13.0899 16.2793ZM5.27901 10.365C7.67032 10.365 8.92118 11.072 8.92118 11.3164C8.92118 11.5608 7.67027 12.2677 5.27901 12.2677C2.8877 12.2677 1.63684 11.5608 1.63684 11.3164C1.63684 11.072 2.89084 10.365 5.27901 10.365ZM5.27901 13.2742C6.61427 13.2742 8.00781 13.0561 8.92118 12.5934V13.7106C8.92118 13.955 7.66741 14.6619 5.2761 14.6619C2.88478 14.6619 1.63678 13.955 1.63678 13.7106V12.5905C2.54752 13.0532 3.9437 13.2742 5.27895 13.2742H5.27901ZM1.63684 23.4765V22.3129C2.6257 22.7443 3.6913 22.9718 4.7701 22.9818V23.5638C4.76853 23.5908 4.76853 23.618 4.7701 23.6453C4.76853 23.6549 4.76853 23.6647 4.7701 23.6743V24.4162C2.71341 24.3289 1.63684 23.7034 1.63684 23.4765ZM13.09 26.0191C13.09 26.2635 11.8362 26.9704 9.44489 26.9704C7.05358 26.9702 5.78821 26.2633 5.78821 26.0191V24.8553C6.20272 25.0562 6.64044 25.2046 7.09158 25.2975C7.85655 25.4593 8.6369 25.5392 9.41884 25.5361C10.7541 25.5361 12.1534 25.318 13.0639 24.8553L13.09 26.0191Z" fill="white"/>
</svg>