<svg width="32" height="32" viewBox="0 0 40 40" fill="none" xmlns="http://www.w3.org/2000/svg">
<g clip-path="url(#clip0_3620_15195)">
<path d="M23.4662 7.76254V4.09375H22.8691V8.06111H23.4662V7.76254Z" fill="white"/>
<path d="M22.8691 3.49609H23.4662V3.79464H22.8691V3.49609Z" fill="white"/>
<path d="M27.4389 5.26616V1.59766H26.8418V5.56473H27.4389V5.26616Z" fill="white"/>
<path d="M26.8418 1H27.4389V1.29855H26.8418V1Z" fill="white"/>
<path d="M31.4116 7.76254V4.09375H30.8145V8.06111H31.4116V7.76254Z" fill="white"/>
<path d="M30.8145 3.49609H31.4116V3.79464H30.8145V3.49609Z" fill="white"/>
<path d="M10.7006 8.93027V5.77734H10.1035V9.22849H10.7006V8.93027Z" fill="white"/>
<path d="M10.1035 5.18359H10.7006V5.48214H10.1035V5.18359Z" fill="white"/>
<path d="M14.2241 6.71962V3.56641H13.627V7.01812H14.2241V6.71962Z" fill="white"/>
<path d="M13.627 2.96875H14.2241V3.2673H13.627V2.96875Z" fill="white"/>
<path d="M17.7472 8.93027V5.77734H17.1504V9.22849H17.7472V8.93027Z" fill="white"/>
<path d="M17.1523 5.18359H17.7494V5.48214H17.1523V5.18359Z" fill="white"/>
<path d="M37.4837 15.3867H2.46871C1.65679 15.3867 1 16.0494 1 16.8554V37.1183C1 37.9244 1.65681 38.5809 2.46871 38.5809H37.4837C38.2956 38.5809 38.9524 37.9241 38.9524 37.1183L38.9521 16.8554C38.9521 16.0494 38.2957 15.3867 37.4837 15.3867ZM3.44443 30.7924H2.84733V29.2606H3.44443V30.7924ZM3.44443 28.3789H2.84733V23.1789H3.44443V28.3789ZM34.6601 35.9482H5.293V18.0196H34.6601V35.9482ZM36.8094 27.7632C36.3795 27.7632 36.0332 27.417 36.0332 26.987C36.0332 26.5571 36.3795 26.2049 36.8094 26.2049C37.2394 26.2049 37.5856 26.5571 37.5856 26.987C37.5854 27.417 37.2391 27.7632 36.8094 27.7632Z" fill="white"/>
<path d="M10.4866 33.5625H11.0837V27.0372H12.1465V21.7238H11.0837V20.4102H10.4866V21.7238H9.41797V27.0372H10.4866V33.5625Z" fill="white"/>
<path d="M16.3675 33.5625H16.9646V31.3775H18.0274V26.0639H16.9646V20.4102H16.3675V26.0639H15.2988V31.3775H16.3675V33.5625Z" fill="white"/>
<path d="M28.1275 33.5625H28.7243V32.255H29.7871V26.9417H28.7243V20.4102H28.1275V26.9417H27.0586V32.255H28.1275V33.5625Z" fill="white"/>
<path d="M22.2464 33.5625H22.8435V27.0372H23.9063V21.7238H22.8435V20.4102H22.2464V21.7238H21.1777V27.0372H22.2464V33.5625Z" fill="white"/>
<path d="M14.2109 14.7916H14.9155C14.9213 14.7796 14.9213 14.7676 14.9213 14.7559C14.9213 14.3619 14.6169 14.2363 14.2109 14.1172L14.2109 14.7916Z" fill="white"/>
<path d="M13.7759 13.1607V11.9727C13.4238 12.0084 13.1191 12.1936 13.1191 12.5399C13.1191 12.916 13.3878 13.0354 13.7759 13.1607Z" fill="white"/>
<path d="M12.5466 14.7921L12.5943 14.7324C12.6183 14.7564 12.642 14.7743 12.666 14.7921H13.7765V13.9981C12.8809 13.7891 12.284 13.4905 12.284 12.625C12.284 11.7891 12.9347 11.2876 13.7765 11.2458V10.9054H14.2123V11.2516C14.7137 11.2874 15.1855 11.4606 15.6334 11.765L15.1917 12.392C14.8873 12.1771 14.5648 12.0457 14.2126 11.998V13.2815H14.2305C15.108 13.4905 15.7589 13.789 15.7589 14.6964C15.7589 14.7263 15.7589 14.762 15.7531 14.7919H18.798C18.8756 14.4456 18.9116 14.0935 18.9116 13.7411C18.9116 10.9889 16.6727 8.75 13.9205 8.75C11.1803 8.75 8.94727 10.9889 8.94727 13.7411C8.94727 14.0993 8.98298 14.4515 9.05469 14.7919L12.5466 14.7921Z" fill="white"/>
<path d="M25.1858 14.7906L25.6336 14.2594C25.9143 14.4982 26.1947 14.6774 26.4813 14.7906H26.9709V13.4354C25.9559 13.1966 25.2874 12.8623 25.2874 11.8833C25.2874 10.9461 26.0217 10.3789 26.9709 10.3311V9.94303H27.4606V10.337C28.0279 10.3789 28.5591 10.57 29.0666 10.9162L28.5652 11.6266C28.2248 11.3819 27.8607 11.2327 27.4609 11.1788V12.6236H27.4849C28.4701 12.8566 29.2042 13.2026 29.2042 14.2176C29.2042 14.4266 29.1684 14.6236 29.0967 14.7907H32.4698C32.6369 14.2594 32.7206 13.7042 32.7206 13.1428C32.7206 10.0622 30.2192 7.55469 27.1386 7.55469C24.0641 7.55469 21.5625 10.0622 21.5625 13.1428C21.5625 13.7039 21.6459 14.2592 21.8133 14.7907L25.1858 14.7906Z" fill="white"/>
<path d="M26.9707 12.4838V11.1523C26.5706 11.1881 26.2305 11.397 26.2305 11.7852C26.2302 12.2151 26.5349 12.3463 26.9707 12.4838Z" fill="white"/>
<path d="M27.459 14.7902H27.9665C28.1456 14.6827 28.2651 14.5215 28.2651 14.2888C28.2651 13.8471 27.9188 13.7037 27.459 13.5664L27.459 14.7902Z" fill="white"/>
</g>
<defs>
<clipPath id="clip0_3620_15195">
<rect width="40" height="40" fill="white"/>
</clipPath>
</defs>
</svg>