<svg width="32" height="32" viewBox="0 0 40 40" fill="none" xmlns="http://www.w3.org/2000/svg">
<g clip-path="url(#clip0_3620_15174)">
<path d="M10.5584 35.5985C10.5584 35.5586 10.3184 32.5586 6.51844 32.5586C2.6783 32.5586 2.47852 35.5985 2.47852 35.5985V36.4785C2.47852 36.7185 2.67857 36.9185 2.91853 36.9185H10.1185C10.3585 36.9185 10.5585 36.7185 10.5585 36.4785L10.5584 35.5985Z" fill="white"/>
<path d="M6.4375 31.8415C7.5575 31.8415 8.4375 30.8415 8.4375 29.6415C8.4375 28.4414 7.51757 27.4414 6.4375 27.4414C5.3175 27.4414 4.4375 28.4414 4.4375 29.6415C4.4375 30.8415 5.3175 31.8415 6.4375 31.8415Z" fill="white"/>
<path d="M37.3181 35.5985C37.3181 35.5586 37.0782 32.5586 33.2782 32.5586C29.4381 32.5586 29.2383 35.5985 29.2383 35.5985V36.4785C29.2383 36.7185 29.4383 36.9185 29.6783 36.9185H36.8783C37.1183 36.9185 37.3183 36.7185 37.3183 36.4785L37.3181 35.5985Z" fill="white"/>
<path d="M33.1582 31.8415C34.2782 31.8415 35.1582 30.8415 35.1582 29.6415C35.1582 28.4414 34.2383 27.4414 33.1582 27.4414C32.0382 27.4414 31.1582 28.4414 31.1582 29.6415C31.1582 30.8415 32.0382 31.8415 33.1582 31.8415Z" fill="white"/>
<path d="M23.7576 8.16102C23.7576 8.12112 23.5176 5.12109 19.7177 5.12109C15.8775 5.12109 15.6777 8.16102 15.6777 8.16102V9.04102C15.6777 9.28098 15.8778 9.48104 16.1177 9.48104H23.3177C23.5577 9.48104 23.7578 9.28098 23.7578 9.04102L23.7576 8.16102Z" fill="white"/>
<path d="M19.5977 4.40014C20.7177 4.40014 21.5977 3.40014 21.5977 2.20007C21.5977 1 20.6777 0 19.5977 0C18.4777 0 17.5977 1 17.5977 2.20007C17.5977 3.40014 18.5179 4.40014 19.5977 4.40014Z" fill="white"/>
<path d="M13.5575 5.55832C13.4775 5.35826 13.2774 5.23828 13.0776 5.23828C12.9975 5.23828 12.9177 5.23828 12.8776 5.27818C-1.96243 11.7983 2.67757 26.8782 2.71757 26.9982C2.79765 27.2783 3.11768 27.4382 3.35763 27.3182C3.47761 27.2783 3.59759 27.1982 3.67767 27.0783C3.75775 26.9583 3.75775 26.7981 3.71757 26.6781C3.71757 26.6382 2.55771 23.0783 3.19748 18.7581C3.99741 12.9981 7.39755 8.79815 13.2775 6.23815C13.5576 6.15835 13.6776 5.83831 13.5576 5.55818L13.5575 5.55832Z" fill="white"/>
<path d="M27.1184 5.31836C27.0383 5.27846 26.9984 5.23828 26.9183 5.23828C26.8382 5.23828 26.7983 5.23828 26.7183 5.27818C26.5983 5.31808 26.4783 5.43806 26.4381 5.55832C26.3982 5.67829 26.3982 5.83845 26.4381 5.95843C26.478 6.07841 26.598 6.19839 26.7183 6.23857C40.6783 12.3586 36.4783 26.0786 36.2783 26.6786C36.1982 26.9587 36.3583 27.2386 36.5983 27.3186C36.8784 27.3987 37.1583 27.2386 37.2384 26.9986C37.3184 26.8783 41.9984 11.7986 27.1184 5.31859L27.1184 5.31836Z" fill="white"/>
<path d="M26.7566 36.8393C19.4766 39.9194 13.5166 36.8792 13.4366 36.8393C13.3565 36.7994 13.2767 36.7994 13.1966 36.7994C13.1567 36.7994 13.0766 36.7994 13.0367 36.8393C12.9168 36.8792 12.7968 36.9593 12.7167 37.0792C12.6366 37.1992 12.6366 37.3594 12.6768 37.4794C12.7167 37.5993 12.7968 37.7193 12.9168 37.7994C13.0367 37.8795 15.8367 39.2793 19.9567 39.2793C22.3967 39.2793 24.7968 38.7994 27.1167 37.7994C27.3968 37.6794 27.5168 37.3993 27.3968 37.1194C27.3566 36.8393 27.0366 36.7193 26.7568 36.8393L26.7566 36.8393Z" fill="white"/>
<path d="M23.1577 14.3984H22.1177V15.4785H20.7578V19.5184H22.1177V22.1183H23.1577V19.5184H24.5179V15.5184H23.158L23.1577 14.3984ZM23.8778 16.1183V18.8784H21.3979V16.1183H23.8778Z" fill="white"/>
<path d="M28.0368 17.6814V16.2812H27.0767V17.6814H25.6367V27.2814H27.0767V29.0415H28.0368V27.2814H29.3568V17.6814H28.0368ZM28.7569 26.6814H26.277L26.2767 18.2814H28.7567L28.7569 26.6814Z" fill="white"/>
<path d="M13.3979 21.7188H12.358V23.5589H10.998V28.5589H12.358V29.519H13.3979V28.5589H14.7578V23.5586H13.3979V21.7188ZM14.1178 24.1588V27.9188H11.6378V24.1588H14.1178Z" fill="white"/>
<path d="M18.2768 13H17.2369V16.2001H15.877V26.8401H17.2369V28.4801H18.2768V26.8401H19.6367L19.637 16.2401H18.2771L18.2768 13ZM18.997 16.8401V26.2001H16.517V16.8401H18.997Z" fill="white"/>
</g>
<defs>
<clipPath id="clip0_3620_15174">
<rect width="40" height="40" fill="white"/>
</clipPath>
</defs>
</svg>