<svg width="32" height="32" viewBox="0 0 32 32" fill="none" xmlns="http://www.w3.org/2000/svg">
<path d="M18.7746 6.37839V3.44336H18.2969V6.61725H18.7746V6.37839Z" fill="white"/>
<path d="M18.2969 2.9668H18.7746V3.20564H18.2969V2.9668Z" fill="white"/>
<path d="M21.9503 4.38402V1.44922H21.4727V4.62288H21.9503V4.38402Z" fill="white"/>
<path d="M21.4727 0.970703H21.9503V1.20954H21.4727V0.970703Z" fill="white"/>
<path d="M25.13 6.37839V3.44336H24.6523V6.61725H25.13V6.37839Z" fill="white"/>
<path d="M24.6523 2.9668H25.13V3.20564H24.6523V2.9668Z" fill="white"/>
<path d="M8.55971 7.31727V4.79492H8.08203V7.55584H8.55971V7.31727Z" fill="white"/>
<path d="M8.08203 4.31641H8.55971V4.55525H8.08203V4.31641Z" fill="white"/>
<path d="M11.38 5.54601V3.02344H10.9023V5.78481H11.38V5.54601Z" fill="white"/>
<path d="M10.9023 2.54688H11.38V2.78572H10.9023V2.54688Z" fill="white"/>
<path d="M14.2001 7.31727V4.79492H13.7227V7.55584H14.2001V7.31727Z" fill="white"/>
<path d="M13.7227 4.31641H14.2003V4.55525H13.7227V4.31641Z" fill="white"/>
<path d="M29.9878 12.4805H1.97575C1.32621 12.4805 0.800781 13.0106 0.800781 13.6554V29.8657C0.800781 30.5106 1.32623 31.0358 1.97575 31.0358H29.9878C30.6373 31.0358 31.1627 30.5104 31.1627 29.8657L31.1625 13.6554C31.1625 13.0106 30.6373 12.4805 29.9878 12.4805ZM2.75632 24.805H2.27864V23.5796H2.75632V24.805ZM2.75632 22.8742H2.27864V18.7142H2.75632V22.8742ZM27.7289 28.9297H4.23518V14.5868H27.7289V28.9297ZM29.4483 22.3817C29.1044 22.3817 28.8274 22.1047 28.8274 21.7607C28.8274 21.4167 29.1044 21.135 29.4483 21.135C29.7923 21.135 30.0693 21.4167 30.0693 21.7607C30.0691 22.1047 29.7921 22.3817 29.4483 22.3817Z" fill="white"/>
<path d="M8.39007 27.0199H8.86775V21.7996H9.71798V17.549H8.86775V16.498H8.39007V17.549H7.53516V21.7996H8.39007V27.0199Z" fill="white"/>
<path d="M13.0932 27.0199H13.5709V25.2719H14.4211V21.021H13.5709V16.498H13.0932V21.021H12.2383V25.2719H13.0932V27.0199Z" fill="white"/>
<path d="M22.5036 27.0199H22.981V25.9739H23.8313V21.7232H22.981V16.498H22.5036V21.7232H21.6484V25.9739H22.5036V27.0199Z" fill="white"/>
<path d="M17.8002 27.0199H18.2779V21.7996H19.1281V17.549H18.2779V16.498H17.8002V17.549H16.9453V21.7996H17.8002V27.0199Z" fill="white"/>
<path d="M11.3711 12.0024H11.9347C11.9394 11.9928 11.9394 11.9832 11.9394 11.9738C11.9394 11.6587 11.6959 11.5582 11.3711 11.4629L11.3711 12.0024Z" fill="white"/>
<path d="M11.0215 10.6985V9.74805C10.7398 9.77662 10.4961 9.92484 10.4961 10.2018C10.4961 10.5027 10.711 10.5983 11.0215 10.6985Z" fill="white"/>
<path d="M10.0357 12.0036L10.0739 11.9559C10.0931 11.9751 10.112 11.9893 10.1312 12.0036H11.0196V11.3684C10.3031 11.2012 9.82563 10.9623 9.82563 10.2699C9.82563 9.60117 10.3462 9.20002 11.0196 9.16654V8.89422H11.3683V9.17123C11.7694 9.1998 12.1469 9.33842 12.5052 9.58195L12.1518 10.0835C11.9083 9.91163 11.6502 9.80649 11.3685 9.76833V10.7951H11.3828C12.0848 10.9623 12.6056 11.2012 12.6056 11.9271C12.6056 11.951 12.6056 11.9795 12.6009 12.0034H15.0368C15.0989 11.7264 15.1277 11.4447 15.1277 11.1628C15.1277 8.96101 13.3366 7.16992 11.1348 7.16992C8.94265 7.16992 7.15625 8.96101 7.15625 11.1628C7.15625 11.4494 7.18482 11.7311 7.24219 12.0034L10.0357 12.0036Z" fill="white"/>
<path d="M20.1486 12.0036L20.5069 11.5786C20.7315 11.7697 20.9558 11.913 21.185 12.0036H21.5768V10.9194C20.7647 10.7284 20.2299 10.461 20.2299 9.67772C20.2299 8.92795 20.8174 8.47418 21.5768 8.43601V8.12552H21.9685V8.4407C22.4223 8.47418 22.8473 8.62708 23.2533 8.90409L22.8522 9.47239C22.5799 9.27663 22.2886 9.15722 21.9687 9.11414V10.27H21.9879C22.7761 10.4563 23.3633 10.7331 23.3633 11.5452C23.3633 11.7124 23.3348 11.8699 23.2774 12.0036H25.9758C26.1096 11.5786 26.1765 11.1344 26.1765 10.6854C26.1765 8.22084 24.1754 6.21484 21.7109 6.21484C19.2513 6.21484 17.25 8.22084 17.25 10.6854C17.25 11.1342 17.3167 11.5784 17.4507 12.0036L20.1486 12.0036Z" fill="white"/>
<path d="M21.5765 10.1589V9.09375C21.2565 9.12232 20.9844 9.28951 20.9844 9.6C20.9842 9.94397 21.2279 10.0489 21.5765 10.1589Z" fill="white"/>
<path d="M21.9688 12.0024H22.3748C22.5181 11.9165 22.6136 11.7875 22.6136 11.6013C22.6136 11.248 22.3366 11.1332 21.9688 11.0234L21.9688 12.0024Z" fill="white"/>
</svg>