<svg width="50" height="50" viewBox="0 0 40 40" fill="none"
                                xmlns="http://www.w3.org/2000/svg">
                                <path
                                    d="M5.67828 17.5528C5.74078 16.8603 5.86773 16.1708 6.03961 15.4964L6.81783 15.0528C6.95957 15.1178 7.10215 15.1778 7.24584 15.2316L7.69394 16.8714H11.1477L11.5963 15.2308C11.7394 15.1769 11.8826 15.1178 12.0243 15.0519L13.5031 15.8956L15.9456 13.4531L15.1019 11.9744C15.1669 11.8326 15.2269 11.69 15.2807 11.5463L16.9208 11.0982V7.64453L15.2802 7.19643C15.2263 7.05274 15.1663 6.91016 15.1013 6.76842L15.5263 6.02342C16.192 5.85517 16.8726 5.7391 17.5519 5.67855L18.1205 5.62721L18.1208 0.625L17.452 0.672433C15.2938 0.825054 13.2121 1.35686 11.2509 2.25058L11.1476 1.87139H7.69393L7.24583 3.51203C7.10213 3.56588 6.95955 3.62588 6.81781 3.69088L5.33903 2.84717L2.89653 5.28967L3.74024 6.76845C3.67523 6.9102 3.61524 7.05278 3.56139 7.19647L1.92075 7.64457V11.0983L2.27566 11.1951C1.36687 13.1708 0.826446 15.2715 0.671875 17.4526L0.625 18.1214H5.62693L5.67828 17.5528ZM16.8711 1.97992V4.49614C16.3856 4.55976 15.9035 4.65685 15.4256 4.76985L13.5031 2.84685L12.0244 3.69057C11.8826 3.62556 11.74 3.56557 11.5963 3.51172L11.5888 3.48493C13.2649 2.69729 15.0336 2.183 16.8711 1.97992ZM3.17042 8.5985L4.541 8.22405L4.64228 7.89593C4.73101 7.60854 4.85099 7.32031 4.9997 7.03907L5.15958 6.73522L4.45423 5.49915L5.54794 4.40543L6.7848 5.11107L7.08865 4.95119C7.36934 4.80303 7.65728 4.6825 7.9455 4.59377L8.27363 4.49248L8.64724 3.1217H10.1935L10.5685 4.49227L10.8967 4.59355C11.184 4.68228 11.4728 4.80226 11.7541 4.95097L12.0571 5.11085L13.2935 4.40577L14.3867 5.49899L13.851 6.43763L13.681 6.73562L13.8409 7.03947C13.9891 7.32017 14.1096 7.60811 14.1983 7.89633L14.2996 8.22446L15.6704 8.59862V10.1449L14.2998 10.5199L14.1985 10.848C14.1098 11.1354 13.9898 11.4242 13.8411 11.7049L13.6812 12.0087L14.3869 13.2456L13.2932 14.3388L12.0568 13.6337L11.7538 13.7936C11.4725 13.9418 11.1843 14.0623 10.8964 14.151L10.5682 14.2523L10.1935 15.6218H8.64723L8.27279 14.2512L7.94466 14.1499C7.65728 14.0612 7.36905 13.9412 7.0878 13.7925L6.78395 13.6326L5.5471 14.3382L4.45338 13.2445L5.15902 12.0077L4.99914 11.7038C4.85098 11.4231 4.73045 11.1352 4.64172 10.847L4.54043 10.5188L3.17043 10.1449L3.17042 8.5985ZM1.97928 16.8714C2.18436 15.012 2.70807 13.2238 3.51057 11.5332L3.56107 11.5469C3.61492 11.69 3.67407 11.8332 3.73992 11.9749L2.89621 13.4537L4.78792 15.3454C4.66599 15.8487 4.56303 16.3577 4.49551 16.8713L1.97928 16.8714Z"
                                    fill="black" />
                                <path
                                    d="M9.42188 13.1213C11.4899 13.1213 13.1719 11.4394 13.1719 9.37134C13.1719 7.30327 11.4899 5.62134 9.42188 5.62134C7.3538 5.62134 5.67188 7.30327 5.67188 9.37134C5.67188 11.4394 7.3538 13.1213 9.42188 13.1213ZM9.42188 6.87134C10.8005 6.87134 11.9219 7.9927 11.9219 9.37134C11.9219 10.75 10.8005 11.8713 9.42188 11.8713C8.04323 11.8713 6.92188 10.75 6.92188 9.37134C6.92188 7.9927 8.04323 6.87134 9.42188 6.87134Z"
                                    fill="black" />
                                <path
                                    d="M32.5454 38.1212H31.2954V21.8712H26.2954V38.1212H25.0454V19.3712H20.0454V38.1212H18.7954V24.3712H13.7954V30.8995C9.2717 29.0599 6.12041 24.8481 5.67827 19.9402L5.62693 19.3715H0.625L0.672433 20.0403C1.21205 27.6782 6.46457 34.0925 13.796 36.1682V39.3713H37.546V15.6213H32.546L32.5454 38.1212ZM1.97898 20.6212H4.4952C5.18521 25.9187 8.76948 30.3898 13.7952 32.2334V34.8665C7.36134 32.8991 2.71805 27.3186 1.97877 20.6215L1.97898 20.6212ZM17.5454 38.1212H15.0454V25.6212H17.5454V38.1212ZM27.5454 23.1212H30.0454V38.1212H27.5454V23.1212ZM21.2954 20.6212H23.7954V38.1212H21.2954V20.6212ZM33.7954 16.8712H36.2954V38.1212H33.7954V16.8712Z"
                                    fill="black" />
                                <path
                                    d="M35.0469 8.12134C34.0131 8.12134 33.1719 8.96255 33.1719 9.99634C33.1719 11.0301 34.0131 11.8713 35.0469 11.8713C36.0807 11.8713 36.9219 11.0301 36.9219 9.99634C36.9219 8.96255 36.0807 8.12134 35.0469 8.12134ZM35.0469 10.6213C34.7026 10.6213 34.4219 10.3406 34.4219 9.99634C34.4219 9.65203 34.7026 9.37134 35.0469 9.37134C35.3912 9.37134 35.6719 9.65203 35.6719 9.99634C35.6719 10.3406 35.3912 10.6213 35.0469 10.6213Z"
                                    fill="black" />
                                <path
                                    d="M35.0468 5.62134C32.6344 5.62134 30.6718 7.58398 30.6718 9.99634C30.6718 11.2363 31.193 12.3551 32.0242 13.1521L29.3105 16.952C29.1461 16.9045 28.9762 16.8713 28.7968 16.8713C28.2374 16.8713 27.7399 17.1225 27.3962 17.5125L24.4143 16.32C24.4157 16.2952 24.4218 16.2715 24.4218 16.2464C24.4218 15.2126 23.5806 14.3714 22.5468 14.3714C21.513 14.3714 20.6718 15.2126 20.6718 16.2464C20.6718 16.4194 20.7031 16.584 20.7474 16.7433L17.3825 19.0982C17.0756 18.8789 16.7026 18.7464 16.2969 18.7464C15.2631 18.7464 14.4219 19.5876 14.4219 20.6214C14.4219 21.6552 15.2631 22.4964 16.2969 22.4964C17.3307 22.4964 18.1719 21.6552 18.1719 20.6214C18.1719 20.4484 18.1406 20.2838 18.0963 20.1245L21.4607 17.7695C21.7682 17.9888 22.1412 18.1214 22.5469 18.1214C23.1063 18.1214 23.6038 17.8703 23.9475 17.4802L26.9294 18.6727C26.928 18.6975 26.9219 18.7212 26.9219 18.7463C26.9219 19.7801 27.7631 20.6213 28.7969 20.6213C29.8307 20.6213 30.6719 19.7801 30.6719 18.7463C30.6719 18.3471 30.5444 17.9782 30.3312 17.6738L33.0413 13.88C33.6425 14.1919 34.3236 14.3713 35.0468 14.3713C37.4592 14.3713 39.4218 12.4087 39.4218 9.99634C39.4218 7.58398 37.4592 5.62134 35.0468 5.62134H35.0468ZM16.2968 21.2463C15.9524 21.2463 15.6718 20.9656 15.6718 20.6213C15.6718 20.277 15.9524 19.9963 16.2968 19.9963C16.6411 19.9963 16.9218 20.277 16.9218 20.6213C16.9218 20.9656 16.6411 21.2463 16.2968 21.2463ZM22.5468 16.8713C22.2024 16.8713 21.9218 16.5906 21.9218 16.2463C21.9218 15.902 22.2024 15.6213 22.5468 15.6213C22.8911 15.6213 23.1718 15.902 23.1718 16.2463C23.1718 16.5906 22.8911 16.8713 22.5468 16.8713ZM28.7968 19.3713C28.4524 19.3713 28.1718 19.0906 28.1718 18.7463C28.1718 18.402 28.4524 18.1213 28.7968 18.1213C29.1411 18.1213 29.4218 18.402 29.4218 18.7463C29.4218 19.0906 29.1411 19.3713 28.7968 19.3713ZM35.0468 13.1213C33.3235 13.1213 31.9218 11.7196 31.9218 9.99634C31.9218 8.27312 33.3235 6.87134 35.0468 6.87134C36.77 6.87134 38.1718 8.27312 38.1718 9.99634C38.1718 11.7196 36.77 13.1213 35.0468 13.1213Z"
                                    fill="black" />
                                <path d="M26.9219 10.6213H28.1719V11.8713H26.9219V10.6213Z" fill="black" />
                                <path d="M19.4219 10.6213H20.6719V11.8713H19.4219V10.6213Z" fill="black" />
                                <path d="M24.4219 10.6213H25.6719V11.8713H24.4219V10.6213Z" fill="black" />
                                <path d="M21.9219 10.6213H23.1719V11.8713H21.9219V10.6213Z" fill="black" />
                                <path d="M19.4219 8.12134H28.1719V9.37134H19.4219V8.12134Z" fill="black" />
                                <path d="M19.4219 5.62134H28.1719V6.87134H19.4219V5.62134Z" fill="black" />
                            </svg>