<svg width="50" height="50" viewBox="0 0 36 36" fill="none"
                                xmlns="http://www.w3.org/2000/svg">
                                <path
                                    d="M18 35.5001C8.35071 35.5001 0.5 27.6493 0.5 18.0001C0.5 17.3098 1.05971 16.7501 1.75 16.7501C2.44029 16.7501 3 17.3098 3 18.0001C3 26.2708 9.72907 33.0001 18 33.0001C26.2709 33.0001 33 26.271 33 18.0001C33 9.72913 26.2709 3.00006 18 3.00006C14.0552 3.00006 10.8036 4.89513 8.76929 6.48441C8.22687 6.91047 7.44007 6.81366 7.01536 6.26957C6.58986 5.72604 6.68611 4.94036 7.2302 4.51564C9.57313 2.68336 13.3435 0.5 17.9995 0.5C27.6488 0.5 35.4995 8.35071 35.4995 18C35.4995 27.6493 27.6488 35.5 17.9995 35.5L18 35.5001Z"
                                    fill="black" />
                                <path
                                    d="M10.5 8H6.75C6.05971 8 5.5 7.44029 5.5 6.75V3C5.5 2.30971 6.05971 1.75 6.75 1.75C7.44029 1.75 8 2.30971 8 3V5.5H10.5C11.1903 5.5 11.75 6.05971 11.75 6.75C11.75 7.44029 11.1903 8 10.5 8Z"
                                    fill="black" />
                                <path
                                    d="M18 25.5C13.8641 25.5 10.5 22.1359 10.5 18C10.5 13.8641 13.8641 10.5 18 10.5C22.1359 10.5 25.5 13.8641 25.5 18C25.5 22.1359 22.1359 25.5 18 25.5ZM18 13C15.243 13 13 15.243 13 18C13 20.757 15.243 23 18 23C20.757 23 23 20.757 23 18C23 15.243 20.757 13 18 13Z"
                                    fill="black" />
                                <path
                                    d="M18 21.75C17.3097 21.75 16.75 21.1903 16.75 20.5C16.75 19.8097 17.3097 19.25 18 19.25C18.6892 19.25 19.25 18.6892 19.25 18C19.25 17.3097 19.8097 16.75 20.5 16.75C21.1903 16.75 21.75 17.3097 21.75 18C21.75 20.0678 20.0678 21.75 18 21.75Z"
                                    fill="black" />
                            </svg>