<svg width="43" height="43" viewBox="0 0 26 26" fill="none" xmlns="http://www.w3.org/2000/svg">
                                                <path d="M1.74685 0.648615C1.57296 0.65427 1.40925 0.731455 1.29418 0.861234C0.91475 1.06763 0.617872 1.40833 0.650958 1.86327L1.35611 11.7367C1.37477 12.0096 1.49408 12.2646 1.68521 12.4566L14.7347 25.5068C15.3683 26.1404 16.4069 26.1404 17.0404 25.5068L25.5061 17.0412C26.1397 16.4076 26.1397 15.369 25.5061 14.7355L12.4566 1.68524C12.2643 1.49383 12.0073 1.37536 11.7367 1.35613H11.7342L1.86288 0.650982L1.87305 0.653527C1.83601 0.649851 1.79841 0.648438 1.75939 0.648438L1.75911 0.64872H1.74922H1.74667L1.74685 0.648615ZM1.92497 1.92519L11.5979 2.6179L24.6113 15.6312C24.747 15.7669 24.747 16.0101 24.6113 16.1458L16.1456 24.6115C16.0099 24.7472 15.7667 24.7472 15.631 24.6115L2.61769 11.5981L1.92497 1.92519ZM7.11039 4.44354C6.40016 4.43336 5.71482 4.71072 5.21293 5.21287C4.192 6.23409 4.192 7.91021 5.21293 8.93114C6.23415 9.95207 7.91027 9.95207 8.9312 8.93114C9.95214 7.90992 9.95214 6.2338 8.9312 5.21287C8.44801 4.72939 7.79374 4.45374 7.11039 4.44354ZM7.0906 5.7102C7.44515 5.71529 7.78246 5.85779 8.03322 6.10858C8.57014 6.64578 8.57014 7.49879 8.03322 8.03571C7.49602 8.57093 6.64496 8.57207 6.10861 8.03571C5.57169 7.49851 5.57169 6.6455 6.10861 6.10858C6.36902 5.84817 6.72244 5.70511 7.09082 5.7102H7.0906Z" fill="white"></path>
                                            </svg>