<svg width="43" height="43" viewBox="0 0 38 32" fill="none" xmlns="http://www.w3.org/2000/svg">
                                                <path d="M3.38916 14.8223L4.4793 15.2679C4.54124 15.293 4.60514 15.3053 4.66819 15.3053C4.86518 15.3053 5.05184 15.1881 5.13109 14.9941C5.23544 14.7386 5.11295 14.4467 4.85737 14.3421L3.76723 13.8965C3.51221 13.7924 3.22007 13.9146 3.11516 14.1702C3.01109 14.4261 3.13386 14.7179 3.38916 14.8223Z" fill="white"></path>
                                                <path d="M6.55541 13.1335L5.83248 12.203C5.66312 11.9851 5.34894 11.9455 5.13075 12.1148C4.91284 12.2842 4.87322 12.5984 5.04258 12.8166L5.76551 13.7471C5.86428 13.8737 6.0116 13.9404 6.16088 13.9404C6.26802 13.9404 6.376 13.9061 6.46724 13.8355C6.68544 13.6659 6.72477 13.3514 6.55541 13.1335Z" fill="white"></path>
                                                <path d="M4.70962 16.329L3.54248 16.487C3.26876 16.5238 3.07708 16.7758 3.11391 17.0495C3.14795 17.3003 3.36251 17.4822 3.60861 17.4822C3.63093 17.4822 3.65353 17.4808 3.67641 17.4775L4.84355 17.3196C5.11726 17.2827 5.30895 17.0308 5.27212 16.7571C5.23501 16.4839 4.98166 16.2908 4.70962 16.329Z" fill="white"></path>
                                                <path d="M32.896 15.013C32.9747 15.2075 33.1617 15.3255 33.3595 15.3255C33.422 15.3255 33.4856 15.3138 33.547 15.2887L34.6385 14.8462C34.8946 14.7424 35.018 14.4508 34.9142 14.1952C34.8104 13.9394 34.5194 13.8158 34.2632 13.9196L33.1717 14.3621C32.9156 14.4656 32.7925 14.7572 32.896 15.013Z" fill="white"></path>
                                                <path d="M34.4852 16.5099L33.3186 16.3483C33.0472 16.3115 32.7927 16.5012 32.7547 16.7749C32.7171 17.0484 32.9079 17.3009 33.1814 17.3388L34.3479 17.5004C34.3711 17.5037 34.3945 17.5051 34.4171 17.5051C34.6627 17.5051 34.8772 17.3238 34.9118 17.0738C34.9498 16.8003 34.7586 16.5478 34.4852 16.5099Z" fill="white"></path>
                                                <path d="M32.9083 12.1334C32.691 11.9635 32.3765 12.0017 32.2063 12.2194L31.4809 13.1476C31.311 13.3653 31.3498 13.6795 31.5671 13.8494C31.6583 13.9208 31.7672 13.9554 31.8746 13.9554C32.023 13.9554 32.1703 13.8893 32.2688 13.7632L32.9943 12.8349C33.1642 12.6178 33.1257 12.3033 32.9083 12.1334Z" fill="white"></path>
                                                <path d="M8.77344 3.32031C8.41965 3.32031 8.13281 3.60658 8.13281 3.95954C8.13281 4.31278 8.41964 4.59877 8.77344 4.59877C9.12724 4.59877 9.41407 4.3125 9.41407 3.95954C9.41379 3.60658 9.12724 3.32031 8.77344 3.32031Z" fill="white"></path>
                                                <path d="M6.54688 3.32031C6.19309 3.32031 5.90625 3.60658 5.90625 3.95954C5.90625 4.31278 6.19308 4.59877 6.54688 4.59877C6.90068 4.59877 7.18751 4.3125 7.18751 3.95954C7.18723 3.60658 6.9004 3.32031 6.54688 3.32031Z" fill="white"></path>
                                                <path d="M4.32032 3.32031C3.96652 3.32031 3.67969 3.60658 3.67969 3.95954C3.67969 4.31278 3.96652 4.59877 4.32032 4.59877C4.67412 4.59877 4.96095 4.3125 4.96095 3.95954C4.96095 3.60658 4.67412 3.32031 4.32032 3.32031Z" fill="white"></path>
                                                <path d="M34.9046 0.642578H3.1267C1.54913 0.642578 0.265625 1.92551 0.265625 3.50279V28.5378C0.265625 30.1151 1.54913 31.3977 3.1267 31.3977H34.9046C36.4824 31.3977 37.7656 30.1148 37.7656 28.5378V3.50279C37.7659 1.92551 36.4824 0.642578 34.9048 0.642578H34.9046ZM36.0156 28.5383C36.0156 29.1502 35.517 29.6482 34.9046 29.6482L3.0617 29.6418C2.47995 29.6072 2.01591 29.1279 2.01591 28.5383V6.79116H36.0159L36.0156 28.5383ZM36.0156 5.54115H2.01563V3.50322C2.01563 2.89134 2.51423 2.39329 3.1267 2.39329H34.9046C35.517 2.39329 36.0156 2.89134 36.0156 3.50322V5.54115Z" fill="white"></path>
                                                <path d="M20.9629 19.4007C20.8951 19.1976 20.7997 19.0101 20.6761 18.8385C20.5525 18.6663 20.404 18.5048 20.2305 18.3533C20.0569 18.202 19.8641 18.0449 19.6524 17.8834L18.9509 17.3454C18.8569 17.2721 18.7693 17.1984 18.6883 17.1247C18.6074 17.0514 18.5377 16.9735 18.4788 16.8909C18.4199 16.8086 18.3742 16.7205 18.3421 16.6264C18.3097 16.5324 18.2935 16.4294 18.2935 16.3176C18.2935 16.2299 18.3105 16.1499 18.3357 16.0737V14.6797C18.1797 14.7201 18.0326 14.7729 17.8965 14.8398C17.6934 14.9397 17.5201 15.0692 17.3761 15.228C17.2319 15.3867 17.12 15.5723 17.0407 15.7838C16.9615 15.9953 16.9219 16.2307 16.9219 16.4894C16.9219 16.7101 16.9542 16.9102 17.019 17.0893C17.0837 17.2687 17.1696 17.4325 17.2771 17.5812C17.3845 17.7296 17.5067 17.8672 17.6431 17.9936C17.7799 18.12 17.9219 18.2405 18.0689 18.3555L18.7439 18.885C18.8675 18.9821 18.9866 19.0767 19.101 19.1696C19.2157 19.2623 19.3161 19.3585 19.4029 19.4584C19.4897 19.5583 19.5594 19.6638 19.6124 19.774C19.6655 19.8842 19.6917 20.0056 19.6917 20.1381C19.6917 20.1922 19.6833 20.2386 19.6766 20.2863V21.8019C19.8181 21.7668 19.9537 21.7193 20.082 21.6574C20.2804 21.5622 20.4526 21.4392 20.5982 21.2891C20.7436 21.139 20.8577 20.964 20.94 20.764C21.0223 20.5642 21.0636 20.3435 21.0636 20.1024C21.0639 19.8374 21.0301 19.6035 20.9629 19.4007Z" fill="white"></path>
                                                <path d="M19.6314 16.767L21.034 16.5553C21.0309 16.5173 21.0295 16.4875 21.0295 16.4671V16.3789C21.0206 16.1289 20.9684 15.8982 20.873 15.6864C20.7773 15.4743 20.6495 15.2908 20.4894 15.1348C20.3292 14.9791 20.14 14.8541 19.9227 14.7601C19.8351 14.7224 19.7441 14.6925 19.6509 14.6674V13.7383H18.7891V15.6772C18.8186 15.6713 18.8493 15.6669 18.8817 15.6641C18.9141 15.6613 18.9462 15.6599 18.9788 15.6599C19.0993 15.6599 19.2001 15.685 19.281 15.735C19.3616 15.7846 19.428 15.8505 19.4794 15.9311C19.531 16.012 19.5692 16.103 19.594 16.2046C19.6191 16.3061 19.6345 16.4068 19.6404 16.5067C19.6404 16.557 19.6395 16.6047 19.6381 16.6499C19.6364 16.6959 19.6342 16.735 19.6314 16.767Z" fill="white"></path>
                                                <path d="M18.3577 22.6331H19.2204V20.781C19.1761 20.7902 19.1284 20.7958 19.0751 20.7958C18.9573 20.7958 18.8563 20.7737 18.7734 20.7296C18.6889 20.6855 18.6189 20.625 18.5603 20.5494C18.5033 20.476 18.4573 20.3912 18.4244 20.2974C18.3915 20.2017 18.3655 20.1063 18.3471 20.0086C18.3306 19.9093 18.3175 19.8119 18.3122 19.7143C18.3066 19.6169 18.303 19.5304 18.303 19.4551L16.9219 19.7274C16.9311 20.0033 16.9735 20.2662 17.0488 20.5128C17.1244 20.7592 17.2363 20.9779 17.3889 21.1677C17.5396 21.3571 17.731 21.5134 17.9609 21.6384C18.0804 21.7009 18.2146 21.7525 18.3583 21.791L18.358 22.6331L18.3577 22.6331Z" fill="white"></path>
                                                <path d="M23.0455 12.1775C22.6588 11.9152 22.2453 11.6897 21.8159 11.5073C21.3789 11.3214 20.9214 11.1788 20.4562 11.0829C19.9791 10.9847 19.488 10.9344 18.997 10.9336H18.9875C18.4989 10.9336 18.0112 10.9824 17.5374 11.079C17.0723 11.1736 16.6144 11.3153 16.1763 11.5C15.7464 11.6814 15.332 11.906 14.9447 12.1671C14.5614 12.4255 14.2003 12.7229 13.8717 13.0505C13.5617 13.3596 13.2802 13.6989 13.0312 14.0586C13.2508 14.1813 13.4752 14.2957 13.7104 14.3917L13.9567 14.4924C14.1465 14.2341 14.3513 13.9852 14.5781 13.7584C14.8616 13.4754 15.173 13.219 15.5036 12.9961C15.8373 12.7712 16.1945 12.5776 16.5647 12.4213C16.9419 12.2623 17.3362 12.1403 17.7365 12.0591C18.1447 11.976 18.5655 11.9339 18.9871 11.9339H18.9955C19.419 11.9344 19.8428 11.9777 20.2538 12.0625C20.6542 12.1454 21.0482 12.2681 21.4249 12.428C21.7946 12.5854 22.1509 12.7796 22.4843 13.0058C22.815 13.2302 23.1255 13.4874 23.4076 13.7706C23.6336 13.9975 23.8376 14.2469 24.0271 14.5064L24.2734 14.4065C24.5081 14.3117 24.7324 14.1978 24.952 14.0759C24.7034 13.7151 24.4244 13.3742 24.1164 13.0648C23.7893 12.7358 23.4289 12.4372 23.0455 12.1775Z" fill="white"></path>
                                                <path d="M22.4696 23.3722C22.1356 23.5974 21.7784 23.791 21.4082 23.947C21.0315 24.106 20.6373 24.2277 20.2363 24.3092C19.8279 24.3923 19.4079 24.4344 18.9869 24.4344H18.9769C18.553 24.4339 18.1298 24.3906 17.7185 24.3058C17.3176 24.2229 16.9236 24.1002 16.5474 23.9403C16.178 23.7832 15.8214 23.589 15.488 23.3627C15.1574 23.1384 14.8465 22.8809 14.5644 22.5977C14.4113 22.4439 14.2687 22.279 14.132 22.1094C13.7726 22.2073 13.4023 22.2478 13.0312 22.2277C13.0438 22.3002 13.0709 22.3714 13.1169 22.435C13.3396 22.7425 13.5884 23.0349 13.856 23.3036C14.1828 23.6317 14.543 23.9299 14.9269 24.1903C15.3139 24.4528 15.7277 24.678 16.1565 24.8605C16.5932 25.046 17.0508 25.1886 17.5162 25.2849C17.9933 25.3833 18.4844 25.4336 18.9755 25.4341H18.9866C19.4738 25.4341 19.9613 25.3853 20.435 25.2888C20.9001 25.1939 21.3583 25.0524 21.7958 24.8677C22.2255 24.6864 22.6398 24.4623 23.0276 24.2006C23.4113 23.9419 23.7724 23.6445 24.1005 23.3172C24.3742 23.0438 24.6278 22.7466 24.8541 22.4342C24.8966 22.3753 24.9239 22.3103 24.9376 22.2433C24.5651 22.2642 24.1906 22.2227 23.8279 22.1222C23.6906 22.2913 23.5478 22.4556 23.3941 22.6094C23.1122 22.8926 22.8009 23.1493 22.4697 23.3722L22.4696 23.3722Z" fill="white"></path>
                                                <path d="M25.5725 23.7422C23.9897 25.6144 21.6261 26.8064 18.988 26.8064C16.3381 26.8064 13.9648 25.6038 12.3817 23.7168C12.1903 24.1049 11.9129 24.4347 11.5703 24.6875C13.3812 26.7503 16.034 28.0564 18.9882 28.0564C21.9302 28.0564 24.5741 26.7612 26.3846 24.7124C26.0422 24.4601 25.7643 24.1303 25.573 23.7422H25.5725Z" fill="white"></path>
                                                <path d="M11.9143 13.2656C13.4734 11.0296 16.0627 9.5625 18.9893 9.5625C21.9218 9.5625 24.5158 11.0351 26.0742 13.279C26.392 12.9947 26.6808 12.6788 26.9347 12.3334C25.1353 9.8965 22.2444 8.3125 18.9897 8.3125C15.7411 8.3125 12.8552 9.89036 11.0547 12.3189C11.3083 12.6649 11.5967 12.981 11.9143 13.2656Z" fill="white"></path>
                                                <path d="M32.6924 19.3494L31.6458 16.7617L31.7108 16.7349C32.2956 16.4933 32.578 15.8195 32.3406 15.2324C32.2245 14.9459 32.0044 14.7221 31.72 14.603C31.4363 14.4841 31.1227 14.4833 30.8377 14.6007L30.7814 14.6239L29.7392 12.0472C29.6472 11.8198 29.4304 11.6669 29.1851 11.6568C28.932 11.6462 28.7111 11.7818 28.6011 12.0009C27.7886 13.6194 26.4173 14.8848 24.7396 15.5645L23.6226 16.0173C22.4934 16.4749 21.9466 17.7662 22.4036 18.896L22.6958 19.6176C22.917 20.165 23.3381 20.5933 23.8816 20.8238C24.159 20.9415 24.4511 21.0004 24.7435 21.0004C25.0242 21.0004 25.3049 20.9463 25.5727 20.838L25.713 20.7814L26.646 23.088C26.7914 23.4479 27.0682 23.7289 27.4256 23.879C27.605 23.9546 27.7942 23.9923 27.9831 23.9923C28.1695 23.9923 28.3561 23.9557 28.5341 23.8824C29.2693 23.5782 29.6246 22.73 29.326 21.9914L28.4775 19.8938C29.6246 19.7244 30.8045 19.8168 31.9203 20.1789C32.151 20.2543 32.4047 20.1881 32.5704 20.0104C32.7359 19.8321 32.7833 19.5749 32.6923 19.3494L32.6924 19.3494ZM28.1672 22.4596C28.2094 22.5642 28.16 22.6839 28.0573 22.7263C27.9959 22.7517 27.9432 22.7405 27.9097 22.7263C27.8759 22.7121 27.8305 22.6819 27.8051 22.6192L26.8729 20.3142C26.9965 20.2667 27.1209 20.2227 27.2462 20.1819L28.1672 22.4596ZM26.2744 19.2046L25.1033 19.6792C24.8661 19.7754 24.6053 19.7732 24.3692 19.6733C24.1332 19.5734 23.9502 19.387 23.8539 19.149L23.5618 18.4273C23.3631 17.9359 23.6006 17.3748 24.0916 17.1761L25.2086 16.723C26.763 16.0932 28.0925 15.0324 29.0493 13.6769L29.8568 15.6736C29.8573 15.6747 29.8573 15.6755 29.8576 15.6766L30.2533 16.6557C30.2538 16.6568 30.2547 16.6582 30.2552 16.6596L31.075 18.6864C29.4676 18.4116 27.8004 18.5868 26.2745 19.2045L26.2744 19.2046Z" fill="white"></path>
                                                <path d="M14.3516 16.0045L13.2355 15.5489C11.5597 14.8647 10.192 13.5955 9.38368 11.975C9.27431 11.7551 9.04606 11.6184 8.80081 11.6295C8.55555 11.6387 8.33819 11.7908 8.24584 12.0182L7.1967 14.5921L7.14034 14.5687C6.85574 14.4501 6.5424 14.4498 6.25834 14.5687C5.97346 14.6873 5.75248 14.9102 5.63557 15.1968C5.39645 15.7833 5.67742 16.4576 6.2614 16.7007L6.32641 16.7278L5.27284 19.3126C5.18104 19.5375 5.2282 19.795 5.3931 19.9733C5.55828 20.1519 5.81163 20.218 6.04266 20.1435C7.1593 19.785 8.33951 19.6954 9.48601 19.8679L8.63194 21.963C8.33116 22.7013 8.68412 23.5507 9.41909 23.8562C9.59794 23.9304 9.78571 23.9678 9.97321 23.9678C10.1607 23.9678 10.3485 23.9304 10.5271 23.8562C10.8848 23.7069 11.1627 23.4267 11.3088 23.0671L12.248 20.7624L12.3881 20.8196C12.6576 20.9295 12.9402 20.9845 13.2229 20.9845C13.5134 20.9845 13.8036 20.9264 14.0795 20.8104C14.6236 20.5813 15.0457 20.1541 15.2686 19.6072L15.5624 18.8865C16.0225 17.7576 15.4793 16.4649 14.3515 16.0045L14.3516 16.0045ZM10.1512 22.5952C10.1259 22.658 10.0801 22.6879 10.0463 22.7021C10.0131 22.7161 9.9604 22.7278 9.89929 22.7015C9.79634 22.6589 9.74695 22.5389 9.78992 22.4342L10.7171 20.1591C10.8423 20.2001 10.9668 20.2445 11.0901 20.2925L10.1512 22.5952ZM14.4049 18.4147L14.1111 19.1355C14.014 19.3729 13.8307 19.5587 13.5946 19.6583C13.3588 19.7577 13.098 19.7593 12.8606 19.6622L11.6909 19.1848C10.6262 18.7501 9.49226 18.5317 8.35662 18.5317C7.86666 18.5317 7.37641 18.5721 6.89119 18.6539L7.71684 16.6287C7.71739 16.6276 7.71795 16.6265 7.71851 16.6254L8.11695 15.6475C8.1175 15.6463 8.1175 15.6449 8.11806 15.6438L8.93056 13.65C9.8837 15.008 11.2101 16.0721 12.7631 16.7063L13.8795 17.162C14.3689 17.362 14.6049 17.924 14.4049 18.4147Z" fill="white"></path>
                                            </svg>