<svg width="50" height="50" viewBox="0 0 28 24" fill="none" xmlns="http://www.w3.org/2000/svg">
                                                <path d="M13.9762 0.393488C13.8244 0.403533 13.6914 0.498681 13.633 0.639303C13.5747 0.779645 13.601 0.941203 13.7014 1.0556L15.3013 3.05445C15.4394 3.22689 15.691 3.25479 15.8635 3.11695C16.0362 2.97884 16.0641 2.72745 15.9263 2.55473L14.3264 0.555874H14.3261C14.2452 0.445381 14.1129 0.384281 13.9762 0.393488ZM25.2005 0.393488C25.0814 0.400185 24.9715 0.459895 24.9006 0.555874L23.3007 2.55473C23.2343 2.6376 23.2036 2.74335 23.2153 2.84882C23.2271 2.95429 23.2804 3.05082 23.3632 3.11695C23.5357 3.25507 23.7876 3.22689 23.9257 3.05445L25.5256 1.0556C25.6316 0.934503 25.6545 0.761231 25.5833 0.616703C25.5125 0.471896 25.3615 0.384003 25.2005 0.393488ZM19.5259 2.00506C19.4137 2.03101 19.318 2.10383 19.2633 2.20512L17.7633 4.90347L14.7633 5.32814C14.6099 5.34739 14.4812 5.45342 14.4332 5.60046C14.385 5.7475 14.426 5.90905 14.5384 6.01536L16.7759 8.17665L16.2507 11.125V11.1247C16.2251 11.2737 16.2856 11.4247 16.4073 11.5145C16.5289 11.6044 16.691 11.618 16.8258 11.5497L19.6132 10.0505L22.388 11.5497H22.3883C22.5231 11.618 22.6852 11.6044 22.8068 11.5145C22.9285 11.4247 22.989 11.2737 22.9631 11.1247L22.438 8.18887L24.688 6.02758H24.6882C24.7998 5.92323 24.8423 5.76391 24.7971 5.6177C24.7519 5.4715 24.6269 5.36379 24.4756 5.34064L21.4633 4.90342L19.9633 2.20506C19.8782 2.04825 19.7 1.96684 19.5259 2.00506ZM19.6132 3.21685L20.8632 5.46542V5.4657C20.9204 5.57758 21.0267 5.65627 21.1509 5.67803L23.5507 6.02792L21.7382 7.76449V7.76421C21.6375 7.85601 21.5906 7.99245 21.6132 8.12665L22.0256 10.4377L19.8008 9.23851V9.23823C19.6802 9.17155 19.534 9.17155 19.4135 9.23823L17.1886 10.4374L17.601 8.12637V8.12665C17.6267 7.9944 17.5845 7.85852 17.4886 7.76421L15.6761 6.01535L18.0759 5.66547C18.1973 5.64649 18.3033 5.57283 18.3633 5.46569L19.6133 3.21712L19.6132 3.21685ZM14.0136 8.78884C13.921 8.79219 13.8328 8.82734 13.7636 8.88872L11.7636 10.4878C11.6805 10.5539 11.6272 10.6505 11.6152 10.7559C11.6035 10.8617 11.6342 10.9674 11.7006 11.0503C11.7667 11.1334 11.8635 11.1865 11.9693 11.1982C12.0747 11.2096 12.1808 11.1789 12.2636 11.1125L14.2636 9.51345L14.2633 9.51317C14.4073 9.41021 14.4665 9.22494 14.409 9.05781C14.3512 8.89068 14.1902 8.78102 14.0136 8.78884ZM25.2005 8.78884C25.0261 8.78689 24.8704 8.89821 24.8163 9.06395C24.7619 9.22969 24.8213 9.41161 24.963 9.51318L26.963 11.1122V11.1125C27.0459 11.1789 27.1517 11.2096 27.2574 11.1982C27.3632 11.1865 27.4597 11.1335 27.5261 11.0503C27.5925 10.9674 27.6232 10.8617 27.6112 10.7559C27.5995 10.6505 27.5462 10.5539 27.463 10.4878L25.463 8.88873C25.3905 8.82484 25.2973 8.78912 25.2005 8.78884ZM19.5632 12.3868C19.3573 12.4124 19.2052 12.5916 19.2133 12.7989V15.1976C19.2116 15.3045 19.2532 15.4077 19.3283 15.4839C19.4036 15.56 19.5063 15.603 19.6132 15.603C19.7203 15.603 19.823 15.56 19.898 15.4839C19.9734 15.4077 20.0147 15.3045 20.0133 15.1976V12.7989C20.0177 12.6814 19.9706 12.5678 19.8838 12.4886C19.797 12.4091 19.6798 12.372 19.5632 12.3868ZM2.81392 13.5983C1.49135 13.5983 0.414062 14.675 0.414062 15.997V21.194C0.414062 22.516 1.49135 23.5927 2.81392 23.5927C3.99721 23.5927 4.98164 22.7347 5.17635 21.6063C9.07228 22.2676 13.0206 23.1928 16.8135 23.1928C20.4181 23.1928 23.7532 21.2673 26.1385 19.0826H26.1382C26.1563 19.0676 26.1731 19.0508 26.1882 19.0327C26.3904 18.7735 26.456 18.4381 26.3757 18.1583C26.2953 17.8784 26.1103 17.665 25.8882 17.5087C25.4633 17.2096 24.8631 17.0999 24.3131 17.3215V17.3092C24.2875 17.3159 24.276 17.3268 24.2506 17.334H24.2381C22.3006 17.8684 21.1848 18.6705 20.2258 19.2955C20.1259 19.3608 20.0235 19.3968 19.9259 19.4579C19.9203 19.4392 19.9194 19.4275 19.9133 19.408C19.8394 19.1716 19.7172 18.8996 19.5383 18.6334C19.1806 18.101 18.5386 17.5965 17.6134 17.5965C16.9644 17.5965 16.2889 17.5608 15.826 17.2592C14.8977 16.6543 14.3983 15.8892 13.6884 15.2104C12.9786 14.5315 12.0333 13.9986 10.4136 13.9986C7.9878 13.9986 6.6658 15.2036 5.2138 15.885C5.1527 14.6169 4.09745 13.5987 2.81395 13.5987L2.81392 13.5983ZM2.81392 14.3976C3.70735 14.3976 4.41378 15.1038 4.41378 15.9967V21.1937C4.41378 22.0866 3.70703 22.7928 2.81392 22.7928C1.92049 22.7928 1.21406 22.0866 1.21406 21.1937V15.9967C1.21406 15.1038 1.92081 14.3976 2.81392 14.3976ZM10.4139 14.7975C11.8693 14.7975 12.5171 15.2023 13.1388 15.7969C13.7604 16.3915 14.3182 17.223 15.3888 17.9208C16.105 18.3876 16.9518 18.3954 17.6136 18.3954C18.2584 18.3954 18.6209 18.7026 18.8762 19.0826C19.0037 19.2726 19.0975 19.4735 19.1513 19.6448C19.1862 19.7564 19.1812 19.8008 19.1887 19.8571C18.5556 20.1629 17.8659 20.3942 16.8137 20.3942C15.0612 20.3942 13.8271 19.3725 12.1388 18.8077C12.0372 18.7734 11.9264 18.7812 11.8305 18.829C11.7348 18.8769 11.6622 18.9612 11.6287 19.0628C11.5955 19.1643 11.6042 19.2751 11.653 19.3705C11.7018 19.4657 11.7867 19.5377 11.8888 19.57C13.3977 20.0748 14.7624 21.1942 16.8137 21.1942C18.6061 21.1942 19.66 20.6239 20.6636 19.9698C21.6671 19.3158 22.6426 18.5845 24.5134 18.0834L24.5131 18.0831C24.5346 18.0767 24.5556 18.0683 24.5756 18.0585C24.8229 17.9436 25.2062 18.0039 25.4255 18.1584C25.5352 18.2357 25.5985 18.3323 25.613 18.3833C25.6253 18.426 25.6155 18.4603 25.5756 18.5206C23.2963 20.6004 20.1188 22.3934 16.8135 22.3934C13.1201 22.3934 9.17776 21.462 5.21419 20.7943V16.7466C6.99319 16.0217 8.10676 14.7977 10.414 14.7977L10.4139 14.7975Z" fill="white"></path>
                                            </svg>