<svg width="47" height="47" viewBox="0 0 36 40" fill="none" xmlns="http://www.w3.org/2000/svg">
                                                <path d="M33.4986 27.648C34.6501 25.2844 35.3167 22.6784 35.3167 20.0115C35.3167 17.163 34.5892 14.3751 33.2561 11.8901C34.2865 11.1627 34.5287 9.70817 33.8016 8.7386C33.0742 7.76903 31.6805 7.46603 30.6501 8.25366C27.9226 5.28409 24.2259 3.40516 20.2865 2.92023C20.2865 1.70816 19.2561 0.677734 18.044 0.677734C16.8319 0.677734 15.8015 1.70816 15.8015 2.92023C11.5593 3.40517 7.80151 5.46573 5.01365 8.61723C4.65009 8.37477 4.16515 8.25368 3.74108 8.25368C1.49858 8.25368 0.650151 11.1627 2.52901 12.3747C1.37751 14.7383 0.710938 17.3443 0.710938 20.0112C0.710938 22.8597 1.43837 25.6476 2.77151 28.1326C2.22575 28.4965 1.92272 28.9811 1.80137 29.5874C1.5589 30.9814 2.64987 32.1934 4.04387 32.1934C4.5288 32.1934 4.95294 32.0723 5.37729 31.7693C8.10472 34.7389 11.8014 36.6178 15.7409 37.1027C15.7409 38.3148 16.7713 39.3452 17.9834 39.3452C19.1954 39.3452 20.2259 38.3148 20.2259 37.1027C24.4078 36.5572 28.1652 34.5572 30.953 31.3452C31.9834 32.0726 33.4379 31.7693 34.1045 30.7392C34.4681 30.2542 34.5286 29.6483 34.4681 29.0422C34.3467 28.4964 33.9831 28.0115 33.4982 27.6479L33.4986 27.648ZM34.3471 20.0115C34.3471 22.6175 33.7411 25.042 32.5896 27.3451C31.8622 27.224 31.1351 27.4662 30.6502 27.9511L27.8017 26.0722C28.8926 24.2541 29.4987 22.1933 29.4987 20.0722C29.4987 17.7692 28.7712 15.5873 27.6197 13.7692L30.4077 11.7692C30.9531 12.2541 31.6197 12.4966 32.4077 12.3147C33.6805 14.6177 34.3471 17.2842 34.3471 20.0118V20.0115ZM9.61996 26.4965C11.0745 24.0723 12.832 25.769 14.529 24.0115C14.9531 25.5266 16.3471 26.6781 17.9835 26.6781C19.62 26.6781 21.014 25.5872 21.4986 24.0721C22.0441 24.6781 22.9531 24.9206 23.0745 24.9206C23.6805 25.0417 25.2564 24.7387 26.347 26.557C22.1045 32.0115 13.8013 31.951 9.61989 26.4965L9.61996 26.4965ZM17.9835 9.40574C24.4685 9.58766 28.5892 14.6178 28.5892 20.0115C28.5892 22.072 27.9832 24.0115 26.9528 25.7085C24.5892 22.557 21.6194 25.7085 21.6194 21.3449C24.286 18.3753 23.6194 13.2235 20.4073 11.2842C14.9528 8.0116 10.0437 16.4962 14.3467 21.3449C14.3467 25.7085 11.3772 22.557 9.07417 25.7085C7.98324 24.0115 7.43774 22.072 7.43774 20.0115C7.3772 14.1934 12.1043 9.40574 17.9835 9.40574H17.9835ZM21.8016 14.3148C20.9531 14.1937 20.0441 13.8907 19.1956 13.4057C19.0137 13.2846 18.7107 13.3452 18.5896 13.5268C18.529 13.5874 18.529 13.5874 18.4685 13.6479C17.135 15.2844 15.1959 16.2539 13.62 16.0115C14.3471 10.9208 19.8625 10.0724 21.8014 14.3148L21.8016 14.3148ZM19.0745 14.3148C20.1049 14.8603 21.135 15.1633 22.1049 15.1633C23.5594 20.4967 18.1655 24.254 15.0745 20.7997C14.1654 19.8302 13.5594 18.3756 13.5594 16.7997C15.62 17.1633 17.741 15.8907 19.0745 14.3148ZM15.2561 22.1934C17.0136 23.4055 19.1955 23.3449 20.7106 22.1934C20.7106 22.7994 20.7711 22.1934 20.7711 22.9813C20.7711 24.4964 19.4986 25.7692 17.9832 25.7692C16.4681 25.7692 15.1953 24.5572 15.1953 22.9813L15.1956 22.1934H15.2561ZM33.014 9.2841C34.0444 10.7386 31.8625 12.2537 30.832 10.86C30.3471 10.1934 30.5896 9.40546 31.135 8.98103C31.8016 8.55692 32.5895 8.67807 33.014 9.2841ZM29.9835 8.92054C29.62 9.58711 29.5594 10.375 29.8624 10.9811L27.0745 12.9811C25.0745 10.3751 21.923 8.67811 18.4081 8.55697L18.4078 5.10247C19.1352 4.98138 19.7412 4.4359 19.9837 3.8299C23.8626 4.25401 27.3779 6.07211 29.9837 8.92061L29.9835 8.92054ZM17.9835 1.52626C18.711 1.52626 19.317 2.13228 19.317 2.85968C19.317 3.58708 18.7109 4.19311 17.9835 4.19311C17.2561 4.19311 16.6501 3.58708 16.6501 2.85968C16.6501 2.13228 17.2561 1.52626 17.9835 1.52626ZM15.923 3.76876C16.226 4.43533 16.832 4.92026 17.4988 5.04133L17.4985 8.49611C13.8621 8.61721 10.65 10.4961 8.64997 13.2235L5.80147 11.2841C6.10448 10.6175 5.98339 9.82961 5.61954 9.22354C8.2864 6.19311 11.9228 4.25368 15.9231 3.76876H15.923ZM3.74082 9.16276C4.83174 9.16276 5.43782 10.3748 4.83174 11.2838C4.40764 11.8899 3.55917 12.0718 2.95282 11.6474C1.8621 10.8597 2.40734 9.16274 3.74074 9.16274L3.74082 9.16276ZM1.61974 20.0113C1.61974 17.4658 2.22577 14.9809 3.37724 12.6778C4.10467 12.7988 4.83174 12.5567 5.31667 12.0717L8.16517 14.0112C7.07424 15.7687 6.46817 17.8292 6.46817 20.0112C6.46817 22.2537 7.13474 24.4353 8.3471 26.3142L5.55917 28.3142C5.01369 27.8292 4.3471 27.5867 3.55917 27.7687C2.28632 25.4051 1.61974 22.7385 1.61974 20.0108V20.0113ZM2.71067 29.7692C2.83177 29.1026 3.37724 28.6177 4.04382 28.6177C5.31639 28.6177 5.86189 30.3147 4.83174 31.0418C3.92267 31.7087 2.52874 30.9812 2.71067 29.7692ZM5.98324 31.1026C6.3468 30.4966 6.40735 29.7086 6.10434 29.042L8.89227 27.042C10.9528 29.7086 14.1648 31.345 17.5587 31.4662V34.9207C16.8313 35.0418 16.2253 35.5873 15.9828 36.1933C12.1042 35.7691 8.58927 33.951 5.98284 31.1025L5.98324 31.1026ZM17.9832 38.4969C17.2558 38.4969 16.6498 37.8909 16.6498 37.1635C16.6498 36.4361 17.2558 35.83 17.9832 35.83C18.7106 35.83 19.3167 36.4361 19.3167 37.1635C19.3167 37.8909 18.7106 38.4969 17.9832 38.4969ZM20.0438 36.2544C19.7408 35.5878 19.1347 35.1029 18.468 34.9818L18.4682 31.527C22.0441 31.4059 25.3167 29.5876 27.3168 26.7996L30.1653 28.6785C29.9228 29.3451 29.9228 30.0725 30.3472 30.7391C27.6804 33.83 24.0439 35.7695 20.0437 36.2545L20.0438 36.2544ZM31.4981 30.6785C30.8921 30.2544 30.7102 29.406 31.1345 28.7996C31.8011 27.83 33.3165 28.133 33.5587 29.2845C33.8012 30.4969 32.4072 31.2845 31.4981 30.6785Z" fill="white"></path>
                                            </svg>