<svg width="38" height="38" viewBox="0 0 38 38" fill="none" xmlns="http://www.w3.org/2000/svg">
<path d="M35.4511 0.214844H2.49108C1.21094 0.214844 0.210938 1.25477 0.210938 2.49499V35.495C0.210938 36.7751 1.25087 37.7751 2.49108 37.7751H35.4911C36.7712 37.7751 37.7712 36.7352 37.7712 35.495L37.7709 2.49499C37.7709 1.21484 36.731 0.214844 35.4509 0.214844H35.4511ZM36.2513 35.4548C36.2513 35.8949 35.8914 36.2548 35.4514 36.2548L2.49137 36.2551C2.05135 36.2551 1.69144 35.8951 1.69144 35.4551L1.69116 2.49512C1.69116 2.05511 2.05109 1.69519 2.49109 1.69519H35.4911C35.9311 1.69519 36.291 2.05513 36.291 2.49512L36.2514 35.4551L36.2513 35.4548Z" fill="white"></path>
<path d="M31.6476 6.61523H16.4476C16.0475 6.61523 15.6875 6.97517 15.6875 7.37531V11.1354C15.6875 11.5355 16.0474 11.8954 16.4476 11.8954H31.6476C32.0477 11.8954 32.4076 11.5355 32.4076 11.1354V7.37531C32.4076 6.93529 32.0477 6.61523 31.6476 6.61523ZM30.9277 10.3753H17.2077V8.13538H30.8877L30.9277 10.3753Z" fill="white"></path>
<path d="M8.92798 6.61523C7.44805 6.61523 6.32812 7.81531 6.32812 9.21509C6.32812 10.6152 7.5282 11.8149 8.92798 11.8149C10.3281 11.8149 11.5278 10.6149 11.5278 9.21509C11.5278 7.81531 10.4078 6.61523 8.92798 6.61523ZM8.92798 10.3753C8.28792 10.3753 7.80798 9.85522 7.80798 9.25531C7.80798 8.65539 8.32807 8.13531 8.92798 8.13531C9.56805 8.13531 10.048 8.65539 10.048 9.25531C10.048 9.85522 9.56779 10.3753 8.92798 10.3753Z" fill="white"></path>
<path d="M31.6476 16.2148H16.4476C16.0475 16.2148 15.6875 16.5748 15.6875 16.9749V20.735C15.6875 21.1351 16.0474 21.4951 16.4476 21.4951H31.6476C32.0477 21.4951 32.4076 21.1351 32.4076 20.735V16.9749C32.4076 16.5349 32.0477 16.2148 31.6476 16.2148ZM30.9277 19.9749H17.2077V17.735H30.8877L30.9277 19.9749Z" fill="white"></path>
<path d="M8.92798 16.2148C7.44805 16.2148 6.32812 17.4149 6.32812 18.8147C6.32812 20.2946 7.5282 21.4146 8.92798 21.4146C10.3281 21.4146 11.5278 20.2145 11.5278 18.8147C11.5278 17.375 10.4078 16.2148 8.92798 16.2148ZM8.92798 19.9749C8.28792 19.9749 7.80798 19.4548 7.80798 18.8549C7.80798 18.2149 8.32807 17.7349 8.92798 17.7349C9.56805 17.7349 10.048 18.255 10.048 18.8549C10.048 19.4548 9.56779 19.9749 8.92798 19.9749Z" fill="white"></path>
<path d="M31.6476 26.0957H16.4476C16.0475 26.0957 15.6875 26.4556 15.6875 26.8558V30.6158C15.6875 31.016 16.0474 31.3759 16.4476 31.3759H31.6476C32.0477 31.3759 32.4076 31.016 32.4076 30.6158V26.8558C32.4076 26.4158 32.0477 26.0957 31.6476 26.0957ZM30.9277 29.8558H17.2077V27.6158H30.8877L30.9277 29.8558Z" fill="white"></path>
<path d="M8.92798 26.0957C7.44805 26.0957 6.32812 27.2958 6.32812 28.6956C6.32812 30.0957 7.5282 31.2954 8.92798 31.2954C10.3281 31.2954 11.5278 30.0953 11.5278 28.6956C11.5278 27.2958 10.4078 26.0957 8.92798 26.0957ZM8.92798 29.8558C8.28792 29.8558 7.80798 29.3357 7.80798 28.7358C7.80798 28.0957 8.32807 27.6158 8.92798 27.6158C9.56805 27.6158 10.048 28.1359 10.048 28.7358C10.048 29.3357 9.56779 29.8558 8.92798 29.8558Z" fill="white"></path>
</svg>