<svg width="49" height="43" viewBox="0 0 41 32" fill="none" xmlns="http://www.w3.org/2000/svg">
<path d="M23.8342 25.4723L23.5822 27.9556C23.5552 28.2371 23.3191 28.4453 23.0423 28.4453V28.4478L21.9996 28.4475C22.0515 28.9852 22.1517 29.5786 22.1492 30.0851C22.1467 31.1643 21.7772 31.8538 20.1899 31.849C19.8724 31.849 19.5459 31.8674 19.2284 31.8281C18.5052 31.7352 17.9876 31.4224 18.1148 30.4201L18.7429 25.4721H17.9652C16.5732 25.4721 15.4348 24.3362 15.4348 22.9416V22.8144C9.34359 23.8055 3.8148 19.1113 3.8148 12.9408C3.8148 7.41684 8.2933 2.93584 13.8177 2.93584C20.0833 2.93584 24.8098 8.62784 23.6477 14.8094H23.8268C24.394 14.8094 24.8949 15.1359 25.1332 15.6278L32.3167 11.7798C32.4799 10.6551 33.8681 10.1693 34.6886 10.9911C34.9423 11.2447 35.0991 11.5943 35.0991 11.9799V16.7896C37.6415 18.3025 37.6415 21.9808 35.0991 23.4928V28.3025C35.0991 29.5361 33.5974 30.1753 32.7135 29.2913C32.5048 29.0826 32.3622 28.8081 32.3167 28.5026L25.1332 24.6546C25.0629 24.7994 24.9674 24.9339 24.8525 25.0466H24.855C24.591 25.3089 24.2303 25.4721 23.8335 25.4721L23.8342 25.4723ZM22.5501 27.3565L22.7404 25.4717H22.6109C22.1798 26.0797 22.0141 26.7279 21.9734 27.3565H22.5501ZM33.703 11.6708C33.5325 11.6708 33.3927 11.8092 33.3927 11.9797V28.3025C33.3927 28.7082 34.0118 28.7082 34.0118 28.3025L34.0116 11.9797C34.0116 11.8092 33.8709 11.6708 33.703 11.6708ZM24.1901 24.0194V16.2644C24.1901 16.0652 24.0269 15.8997 23.8268 15.8997H17.9644V15.8972C17.1772 15.8972 16.5219 16.5484 16.5219 17.342V22.9435C16.5219 23.7348 17.1731 24.386 17.9644 24.386H23.8268C23.9267 24.386 24.0171 24.3453 24.083 24.2797H24.0855C24.1516 24.2125 24.1901 24.1235 24.1901 24.0197L24.1901 24.0194ZM37.533 16.0544C37.2857 16.2262 36.9481 16.1657 36.7755 15.9185C36.6027 15.6713 36.6641 15.3312 36.9113 15.161L38.7888 13.8546C39.036 13.6842 39.3762 13.7458 39.5489 13.9905C39.7194 14.2377 39.6577 14.5778 39.4105 14.748L37.533 16.0544ZM36.9113 25.1208C36.6641 24.9503 36.6033 24.6105 36.7754 24.3633C36.9473 24.1186 37.2858 24.0569 37.5329 24.2274L39.1024 25.3179C39.3496 25.4897 39.4105 25.8282 39.2383 26.0754C39.0678 26.3226 38.728 26.3834 38.4808 26.2112L36.9113 25.1208ZM38.596 20.6855C38.2944 20.6855 38.0519 20.4431 38.0519 20.1414C38.0519 19.8398 38.2944 19.5973 38.596 19.5973H40.4375C40.7391 19.5973 40.9816 19.8398 40.9816 20.1414C40.9816 20.4431 40.7391 20.6855 40.4375 20.6855H38.596ZM17.3953 18.7982C17.0962 18.7982 16.8537 18.5535 16.8537 18.2541C16.8537 17.955 17.0962 17.7126 17.3953 17.7126H18.8328C19.1319 17.7126 19.3744 17.955 19.3744 18.2541C19.3744 18.5532 19.1319 18.7982 18.8328 18.7982H17.3953ZM17.3953 22.5694C17.0962 22.5694 16.8537 22.327 16.8537 22.0279C16.8537 21.7288 17.0962 21.4863 17.3953 21.4863H18.8328C19.1319 21.4863 19.3744 21.7288 19.3744 22.0279C19.3744 22.327 19.1319 22.5694 18.8328 22.5694H17.3953ZM17.3953 20.683C17.0962 20.683 16.8537 20.4405 16.8537 20.1414C16.8537 19.8423 17.0962 19.5999 17.3953 19.5999H18.8328C19.1319 19.5999 19.3744 19.8423 19.3744 20.1414C19.3744 20.4405 19.1319 20.683 18.8328 20.683H17.3953ZM20.9832 29.1509C20.8537 28.078 20.6974 26.7742 21.3464 25.4726H19.8361L19.1921 30.5566C19.1737 30.6925 19.2538 30.7382 19.364 30.7519C19.5889 30.779 19.9287 30.7631 20.1896 30.7631C20.8969 30.7656 21.0624 30.4999 21.0649 30.0848C21.0646 29.8356 21.0264 29.5069 20.9832 29.1509ZM35.4896 18.6444C35.3783 18.4675 35.2471 18.3021 35.0993 18.1548V22.1277C36.0222 21.1997 36.188 19.7508 35.4896 18.6444ZM32.3032 13.018L25.2801 16.7803V23.5019L32.3032 27.2642V13.018ZM17.9647 14.809H19.9077C20.6014 12.5482 19.9733 10.0922 18.3204 8.43844C15.8324 5.95044 11.8003 5.95044 9.31538 8.43844C6.82988 10.9239 6.82988 14.956 9.31538 17.4434C10.8963 19.0244 13.2275 19.6817 15.4337 19.1011L15.4339 17.3405C15.4339 15.9485 16.5676 14.8118 17.9644 14.8118L17.9647 14.809ZM21.0375 14.809H22.5392C22.6343 14.369 22.6935 13.9362 22.7183 13.4851H21.2551C21.2208 13.929 21.1488 14.3788 21.0375 14.809ZM15.4334 21.7122V20.2203C15.0822 20.297 14.7214 20.3514 14.3632 20.3771V21.842C14.7239 21.8188 15.0799 21.7756 15.4334 21.7122ZM11.2479 24.4044C11.5406 24.47 11.7239 24.7605 11.6583 25.0557C11.5927 25.3484 11.3023 25.5317 11.0096 25.4661C10.2072 25.2845 9.4521 25.0373 8.69431 24.706C8.42004 24.5861 8.2928 24.266 8.41362 23.9918C8.5336 23.7175 8.85363 23.5902 9.1304 23.7111C9.80953 24.0074 10.5285 24.2426 11.2479 24.4044ZM7.51738 22.8531C7.771 23.0138 7.84606 23.35 7.68535 23.6034C7.52463 23.857 7.18842 23.9321 6.93506 23.7713C5.7102 22.9962 4.61028 21.9976 3.72385 20.8712C3.53998 20.6352 3.58071 20.2928 3.81676 20.1073C4.05281 19.9218 4.39517 19.9625 4.58069 20.1977C5.40633 21.2498 6.37423 22.1277 7.51738 22.8531ZM3.80702 19.0858C3.96132 19.3419 3.88235 19.6754 3.62538 19.8322C3.36924 19.989 3.0333 19.9089 2.8773 19.653C0.439805 15.662 0.328447 10.6387 2.70543 6.52517C4.47915 3.4571 7.32457 1.39574 10.4976 0.545242C13.6681 -0.302687 17.1647 0.0580774 20.2326 1.82846H20.2351C20.6678 2.07818 21.0334 2.31813 21.4352 2.61331C21.6776 2.79021 21.7304 3.13006 21.5526 3.37339C21.3735 3.61334 21.0334 3.66859 20.7926 3.48946C20.4502 3.23751 20.0598 2.98388 19.6901 2.77017V2.76766C14.0749 -0.47227 6.88869 1.45266 3.64584 7.07009C1.47062 10.8365 1.56827 15.4358 3.80655 19.0858L3.80702 19.0858ZM22.0242 4.53366C21.8113 4.32495 21.8043 3.98008 22.0152 3.76723C22.2239 3.55211 22.5688 3.54736 22.7817 3.75607C23.2898 4.25049 23.7432 4.772 24.1583 5.33921C24.3374 5.58167 24.2855 5.92236 24.0422 6.09928C23.7998 6.27618 23.4591 6.224 23.2822 5.98182C22.908 5.47066 22.473 4.97203 22.0241 4.53375L22.0242 4.53366ZM9.62916 6.77223L8.89866 5.50409C7.90116 6.16647 7.04345 7.0208 6.38359 8.01916L7.64923 8.75187C8.17713 7.97451 8.85066 7.30101 9.62916 6.77223ZM9.83703 4.96001L10.5697 6.22816C11.3979 5.82665 12.3089 5.57302 13.2729 5.50494V4.04258C12.0444 4.11681 10.8828 4.43851 9.83703 4.96001ZM7.10518 9.69301L5.83953 8.9603C5.31554 10.0058 4.99382 11.1668 4.91875 12.3964H6.3811C6.45142 11.4321 6.70337 10.5209 7.10518 9.69301ZM6.3811 13.4849H4.91875C4.99408 14.7137 5.31551 15.8752 5.83725 16.9202L7.10539 16.1897C6.70333 15.3627 6.45145 14.4489 6.3811 13.4849ZM7.64925 17.1314L6.3836 17.8619C7.04348 18.8594 7.90032 19.7146 8.89868 20.3769L9.62918 19.1113C8.85075 18.5801 8.17718 17.909 7.64925 17.1314ZM10.57 19.6554L9.83732 20.921C10.8828 21.4425 12.0438 21.7667 13.2726 21.8395V20.3786C12.3092 20.3083 11.3979 20.0546 10.57 19.6554ZM21.2557 12.3961H22.7181C22.6428 11.1673 22.3188 10.0057 21.7973 8.96001L20.5317 9.69273C20.9332 10.5209 21.1854 11.4322 21.2557 12.3962V12.3961ZM19.9876 8.75209L21.2532 8.01937C20.5934 7.02187 19.7365 6.16666 18.7382 5.5043L18.0077 6.77244C18.7861 7.3009 19.4572 7.97444 19.9876 8.75209ZM17.0668 6.22808L17.7973 4.95994C16.7541 4.43846 15.5908 4.11673 14.3637 4.04144V5.5038C15.3277 5.573 16.2399 5.82634 17.0669 6.22816L17.0668 6.22808ZM14.3637 16.4602V16.9658C14.3637 17.2674 14.119 17.5121 13.8174 17.5121C13.5183 17.5121 13.2733 17.2674 13.2733 16.9658V16.4602C12.2326 16.2764 11.2708 15.5283 11.2708 14.4507C11.2708 14.1491 11.5132 13.9066 11.8149 13.9066C12.114 13.9066 12.3589 14.1491 12.3589 14.4507C12.3589 15.29 13.9806 15.7844 14.9078 15.0861C15.1341 14.9142 15.2775 14.6893 15.2775 14.4507C15.2775 13.7549 14.4999 13.6139 13.7214 13.4756C12.4943 13.2557 11.2703 13.0356 11.2703 11.4301C11.2703 10.3534 12.2318 9.60444 13.2728 9.4228V8.91471C13.2728 8.61308 13.5175 8.37062 13.8169 8.37062C14.1185 8.37062 14.3632 8.61308 14.3632 8.91471V9.4228C15.4039 9.60444 16.3657 10.3525 16.3657 11.4301C16.3657 11.7317 16.1232 11.9742 15.8216 11.9742C15.52 11.9742 15.2775 11.7317 15.2775 11.4301C15.2775 10.5908 13.6559 10.0964 12.7287 10.7973C12.4999 10.9691 12.359 11.194 12.359 11.4301C12.359 12.1285 13.1366 12.2669 13.915 12.4078C15.1399 12.6277 16.3662 12.8478 16.3662 14.451C16.3662 15.5283 15.4052 16.2764 14.3637 16.4602Z" fill="white"></path>
</svg>