<svg width="46" height="43" viewBox="0 0 41 41" fill="none" xmlns="http://www.w3.org/2000/svg">
<path d="M26.4431 31.224C26.1401 31.1029 25.7765 31.2846 25.6551 31.5876L23.4126 37.9512L23.0491 36.0117C22.9885 35.7693 22.8672 35.5876 22.625 35.5268C22.4431 35.4662 22.2009 35.5268 22.019 35.6479L20.5645 36.9813L23.11 29.527C23.231 29.224 23.0494 28.8605 22.7464 28.7391C22.4434 28.618 22.0798 28.7996 21.9585 29.1027L18.6859 38.7998C18.6253 39.0423 18.6859 39.3453 18.9284 39.5272C19.1708 39.6483 19.4738 39.6483 19.6558 39.4667L22.0194 37.2848L22.5648 40.4363C22.6254 40.6787 22.8073 40.9212 23.1103 40.9212C23.3528 40.9212 23.6558 40.8001 23.7163 40.4971L26.7468 31.9514C26.9281 31.7092 26.7462 31.3453 26.4432 31.2242L26.4431 31.224Z" fill="white"></path>
<path d="M40.9239 38.5581L37.2269 29.4674C37.1058 29.1644 36.7419 28.9825 36.4389 29.1644C36.1359 29.2855 35.954 29.6493 36.1359 29.9523L38.9844 36.9219L37.4693 35.7098C37.2874 35.5887 37.0452 35.5279 36.8633 35.6493C36.6814 35.7098 36.4998 35.8917 36.4998 36.1342L36.1965 37.952L33.5905 31.7095C33.4694 31.4065 33.1055 31.2246 32.8025 31.4065C32.4995 31.5278 32.3784 31.8914 32.4995 32.1944L35.954 40.6187C36.0751 40.8611 36.3176 41.0428 36.6206 40.9822C36.9236 40.9217 37.1055 40.7398 37.1661 40.4368L37.5296 37.2853L40.0146 39.2853C40.257 39.4672 40.56 39.4672 40.742 39.2853C40.9239 39.1036 41.045 38.8614 40.9239 38.5584L40.9239 38.5581Z" fill="white"></path>
<path d="M29.7126 16.8613C26.5611 16.8613 24.0156 19.4068 24.0156 22.5583C24.0156 25.7098 26.5611 28.2553 29.7126 28.2553C32.8641 28.2553 35.4096 25.7098 35.4096 22.5583C35.4093 19.4065 32.8641 16.8613 29.7126 16.8613ZM29.7126 27.0428C27.2277 27.0428 25.2277 25.0428 25.2277 22.5578C25.2277 20.0729 27.2277 18.0729 29.7126 18.0729C32.1976 18.0729 34.1976 20.0729 34.1976 22.5578C34.1973 24.9822 32.1973 27.0428 29.7126 27.0428Z" fill="white"></path>
<path d="M34.9818 30.5588L35.5273 28.4983L37.5879 28.0133C37.7698 27.9528 37.8909 27.8922 37.9515 27.7709C38.012 27.6498 38.0725 27.4678 38.012 27.2859L37.4665 24.6799L39.3455 22.7405C39.4665 22.6194 39.5274 22.498 39.5274 22.3164C39.5274 22.1345 39.4668 22.0134 39.3455 21.8923L37.6485 20.2559L38.2545 17.9529C38.315 17.6498 38.1334 17.2863 37.8304 17.2254L35.7093 16.7405L35.2244 14.6799C35.1638 14.3769 34.8003 14.1344 34.4969 14.195L31.8909 14.801L29.9515 12.9221C29.709 12.6796 29.3455 12.6796 29.103 12.9221L27.4666 14.6191L25.1636 14.0131C24.8606 13.9525 24.497 14.1341 24.4362 14.4372L23.8907 16.4977L21.8301 16.9827C21.6482 17.0432 21.5271 17.1038 21.4665 17.2251C21.406 17.3462 21.3455 17.5281 21.406 17.7101L21.9515 20.3161L20.0725 22.2555C19.9515 22.3766 19.8906 22.498 19.8906 22.6796C19.8906 22.8615 19.9512 22.9826 20.0725 23.1037L21.7695 24.7401L21.1635 27.0431C21.103 27.2251 21.1635 27.3462 21.2241 27.5281C21.2846 27.6492 21.4665 27.7705 21.5876 27.8311L23.6482 28.3766L24.1331 30.4371C24.1937 30.7402 24.5572 30.9826 24.8606 30.9221L27.4666 30.3766L29.406 32.2555C29.5271 32.3766 29.6485 32.4374 29.8301 32.4374C30.012 32.4374 30.1331 32.3769 30.2542 32.2555L31.8906 30.5585L34.1936 31.1646C34.5578 31.104 34.8608 30.9224 34.9818 30.5588ZM31.8909 29.1648C31.709 29.1043 31.4668 29.1648 31.2849 29.3468L29.8304 30.8618L28.1334 29.1648C28.0123 29.0437 27.8909 28.9829 27.7093 28.9829H27.5882L25.2243 29.5284L24.8002 27.7103C24.7397 27.4678 24.5578 27.2862 24.3761 27.2254L22.558 26.7404L23.1035 24.6799C23.1641 24.4979 23.1035 24.2558 22.9216 24.0738L21.4065 22.6193L23.1035 20.9223C23.2246 20.8012 23.2855 20.5588 23.2855 20.3769L22.74 18.0133L24.558 17.5892C24.8005 17.5286 24.9822 17.3467 25.043 17.1651L25.5279 15.347L27.5885 15.8925C27.7704 15.953 28.0126 15.8925 28.1945 15.7106L29.649 14.1955L31.346 15.8925C31.4671 16.0136 31.7096 16.0744 31.8915 16.0744L34.2551 15.5895L34.6792 17.4075C34.7397 17.65 34.9216 17.8317 35.1033 17.8925L36.9214 18.3774L36.3153 20.3768C36.2548 20.5588 36.3153 20.801 36.4972 20.9829L38.0123 22.4374L36.3153 24.1344C36.1942 24.2555 36.1334 24.4979 36.1334 24.6799L36.7394 27.0434L34.9214 27.4675C34.6789 27.5281 34.4972 27.71 34.4364 27.8916L33.9515 29.7097L31.8909 29.1648Z" fill="white"></path>
<path d="M32.8667 20.6192C32.6242 20.3768 32.2607 20.3162 32.0182 20.5587L28.3818 23.6496L27.3513 22.0132C27.1694 21.7102 26.8058 21.6496 26.5028 21.8313C26.1998 22.0132 26.1393 22.3767 26.3209 22.6798L27.7149 24.9223C27.836 25.0433 27.9574 25.1647 28.139 25.2253C28.3209 25.2253 28.5026 25.2253 28.6239 25.1042L32.8059 21.5891C33.0483 21.2858 33.1089 20.9222 32.8667 20.6192Z" fill="white"></path>
<path d="M20.9851 30.0735C20.9851 29.7099 20.7426 29.4674 20.3791 29.4674H3.5305C2.80307 29.4674 2.19707 28.8614 2.19707 28.134V10.0733H10.9849V15.4067C10.9849 15.7703 11.2274 16.0128 11.591 16.0128H21.8938C22.2574 16.0128 22.4998 15.7703 22.4998 15.4067V10.0733H31.2877V12.9218C31.2877 13.2854 31.5302 13.5278 31.8937 13.5278C32.2573 13.5278 32.4998 13.2854 32.4998 12.9218V9.46729C32.4998 9.3462 32.4392 9.22483 32.4392 9.16428L28.3786 2.01285C28.0151 1.40682 27.3482 0.982422 26.6211 0.982422H6.86328C6.13585 0.982422 5.46928 1.34598 5.10549 2.01285L1.04492 9.16428C1.04492 9.22483 0.984375 9.34592 0.984375 9.46729V28.073C0.984375 29.5275 2.13587 30.679 3.52987 30.679H20.3784C20.742 30.679 20.9845 30.376 20.9845 30.073L20.9851 30.0735ZM19.2276 2.31561L21.0457 8.80054L12.3792 8.80026L14.1973 2.31533L19.2276 2.31561ZM21.2882 14.7399H12.1975V10.0733H21.2882V14.7399ZM27.2882 2.61846L30.8032 8.86097H22.379L20.5 2.19411H26.6211C26.8638 2.19411 27.1669 2.37603 27.2879 2.61849L27.2882 2.61846ZM6.13674 2.61846C6.31866 2.376 6.56113 2.19408 6.86417 2.19408H12.9852L11.1063 8.86065L2.62131 8.86093L6.13674 2.61846Z" fill="white"></path>
<path d="M6.98878 27.468C7.35233 27.468 7.5948 27.2255 7.5948 26.8619V22.5589L8.56438 23.5285C8.80684 23.771 9.1704 23.771 9.41288 23.5285C9.65535 23.286 9.65534 22.9225 9.41288 22.68L7.41287 20.6194C7.29178 20.4983 7.17041 20.4375 6.98877 20.4375C6.80685 20.4375 6.68575 20.498 6.56466 20.6194C6.44357 20.7405 4.68573 22.5589 4.56466 22.68C4.3222 22.9225 4.3222 23.286 4.56466 23.5285C4.80713 23.771 5.17069 23.771 5.41316 23.5285L6.38273 22.5589V26.8619C6.38273 27.2255 6.62521 27.468 6.98878 27.468Z" fill="white"></path>
<path d="M13.106 27.468C13.4695 27.468 13.712 27.2255 13.712 26.8619V22.5589L14.6816 23.5285C14.924 23.771 15.2876 23.771 15.5301 23.5285C15.7725 23.286 15.7725 22.9225 15.5301 22.68L13.5301 20.6194C13.409 20.4983 13.2876 20.4375 13.106 20.4375C12.924 20.4375 12.8029 20.498 12.6818 20.6194L10.6818 22.7405C10.4394 22.983 10.4394 23.3465 10.6818 23.589C10.9243 23.8315 11.2879 23.8315 11.5303 23.589L12.4999 22.6194V26.9224C12.4999 27.2254 12.7424 27.468 13.106 27.468Z" fill="white"></path>
</svg>