<svg width="46" height="43" viewBox="0 0 34 41" fill="none" xmlns="http://www.w3.org/2000/svg">
<path d="M21.7735 11.6074H5.38281C5.03767 11.6074 4.75781 11.8873 4.75781 12.2324C4.75781 12.5776 5.03767 12.8574 5.38281 12.8574H21.7735C22.1189 12.8574 22.3985 12.5776 22.3985 12.2324C22.3985 11.8873 22.1189 11.6074 21.7735 11.6074Z" fill="white"></path>
<path d="M5.38281 37.8574H21.7735C22.1189 37.8574 22.3985 37.5776 22.3985 37.2324C22.3985 36.8873 22.1189 36.6074 21.7735 36.6074H5.38281C5.03767 36.6074 4.75781 36.8873 4.75781 37.2324C4.75781 37.5776 5.03767 37.8574 5.38281 37.8574Z" fill="white"></path>
<path d="M22.0174 15.3574C22.136 15.3005 22.2593 15.2545 22.3862 15.2199C22.3215 14.9339 22.0668 14.731 21.7735 14.7324H5.38281C5.03767 14.7324 4.75781 15.0123 4.75781 15.3574C4.75781 15.7026 5.03767 15.9824 5.38281 15.9824H21.2235C21.4361 15.7154 21.7079 15.5017 22.0173 15.3574H22.0174Z" fill="white"></path>
<path d="M0.766303 21.6071C0.932039 21.6071 1.09108 21.5413 1.20827 21.4241C1.32545 21.3069 1.3913 21.1478 1.3913 20.9821V3.79497C1.3913 2.75761 1.91642 2.23247 2.9538 2.23247H15.1409V6.58875C15.1359 7.42075 15.4629 8.22047 16.0497 8.81054C16.6362 9.40066 17.4339 9.7324 18.2659 9.7324H25.7659V14.4386C25.8379 14.4386 25.9096 14.423 25.9847 14.423C26.343 14.4222 26.6962 14.5056 27.016 14.6669V8.48242L16.2753 0.982422H2.95312C1.21877 0.982422 0.140625 2.06056 0.140625 3.79492V20.9821C0.140625 21.1478 0.206474 21.3068 0.323661 21.424C0.440848 21.5412 0.599889 21.6071 0.765625 21.6071L0.766303 21.6071ZM16.3913 6.58854V2.59161L24.8477 8.48225H18.2665C17.766 8.48225 17.2863 8.2822 16.9339 7.92645C16.5818 7.5707 16.3865 7.0891 16.3915 6.5886L16.3913 6.58854Z" fill="white"></path>
<path d="M25.7656 33.3071V38.1696C25.7656 39.2069 25.2405 39.7321 24.2031 39.7321H2.95313C1.91577 39.7321 1.39062 39.207 1.39062 38.1696V25.9824C1.39062 25.6373 1.11077 25.3574 0.765625 25.3574C0.420482 25.3574 0.140625 25.6373 0.140625 25.9824V38.1696C0.140625 39.9039 1.21877 40.9821 2.95313 40.9821H24.2031C25.9375 40.9821 27.0156 39.9039 27.0156 38.1696V34.6726L26.0781 32.6227L25.7656 33.3071Z" fill="white"></path>
<path d="M33.2635 23.7575C33.1631 23.6484 33.069 23.5337 32.9823 23.4137C33.0665 23.2904 33.1583 23.1724 33.2574 23.0605C33.5699 22.6886 33.9666 22.2293 33.8293 21.6637C33.6918 21.0981 33.1357 20.8699 32.6887 20.6793H32.6884C32.5436 20.6216 32.4027 20.5549 32.2666 20.4793C32.2892 20.3359 32.3204 20.1939 32.3603 20.0543C32.4822 19.5825 32.6321 18.9949 32.2571 18.5418H32.2573C31.9688 18.2483 31.5634 18.1012 31.1541 18.1417H30.8165C30.6511 18.1523 30.4853 18.1523 30.3199 18.1417C30.2691 17.9927 30.2295 17.8403 30.201 17.6855C30.1042 17.2198 29.9823 16.6386 29.4605 16.3981C29.3241 16.3353 29.1759 16.3035 29.0261 16.3044C28.643 16.3376 28.2739 16.464 27.951 16.6729C27.814 16.7488 27.672 16.8158 27.5261 16.873C27.4133 16.7608 27.309 16.6409 27.2136 16.5136C26.9198 16.1386 26.5542 15.6699 25.9636 15.6699C25.3729 15.6699 25.0261 16.1574 24.7387 16.5419H24.7384C24.6491 16.6691 24.5509 16.7905 24.4449 16.9043C24.2967 16.8496 24.1528 16.7849 24.0135 16.7107C23.6971 16.5195 23.3411 16.404 22.9728 16.373C22.8174 16.3719 22.6634 16.406 22.523 16.4729C22.0013 16.7229 21.898 17.3106 21.8043 17.7793C21.7801 17.9305 21.7455 18.0798 21.7011 18.2263C21.6199 18.2316 21.5384 18.2316 21.4572 18.2263H20.9915C20.7072 18.2263 20.1196 18.2263 19.7728 18.6607C19.426 19.0951 19.5666 19.7106 19.6978 20.1794H19.6981C19.7491 20.3192 19.7921 20.4623 19.8261 20.6074C19.6911 20.6861 19.5513 20.7561 19.4073 20.8167C18.9637 21.0137 18.4135 21.2603 18.2885 21.8198C18.1637 22.3792 18.5761 22.8574 18.8886 23.2073C18.9902 23.3162 19.0851 23.4311 19.1729 23.5511C19.0856 23.6747 18.9905 23.7924 18.8886 23.9043C18.5761 24.2762 18.1794 24.7355 18.3166 25.3011C18.4542 25.8667 19.0103 26.0949 19.4573 26.2855C19.6021 26.3421 19.743 26.408 19.8792 26.4825C19.8566 26.6259 19.8253 26.7679 19.7854 26.9074C19.6635 27.3792 19.5136 27.9668 19.8917 28.42C20.1799 28.7132 20.5856 28.8603 20.9949 28.8201H21.6012L19.4137 33.4702V33.4699C19.3052 33.7015 19.349 33.9758 19.5237 34.1622C19.6986 34.3486 19.9693 34.41 20.2073 34.3168L21.8292 33.6918L22.3074 35.2543C22.3917 35.4925 22.6113 35.6566 22.8635 35.67H22.9043C23.149 35.67 23.3713 35.5271 23.4729 35.3045L25.4322 31.0171L25.4325 31.0169C25.6297 31.1901 25.8822 31.2878 26.1448 31.292C26.3585 31.2872 26.5658 31.2175 26.7385 31.0919L28.6635 35.3012H28.6637C28.7653 35.5241 28.9877 35.667 29.2324 35.667H29.2731C29.532 35.6497 29.7533 35.4745 29.8292 35.2264L30.3074 33.6639L31.9294 34.2889C32.1674 34.3818 32.438 34.3207 32.613 34.1341C32.7876 33.9477 32.8314 33.6734 32.7229 33.4418L30.498 28.7136H31.123C31.4043 28.7136 31.995 28.7136 32.3418 28.2792C32.6886 27.8447 32.5479 27.2292 32.4137 26.7605V26.7607C32.3769 26.6279 32.3476 26.4934 32.3261 26.3576C32.462 26.2789 32.6029 26.2088 32.748 26.1483C33.1916 25.9513 33.7419 25.7047 33.8669 25.1452C33.9919 24.5858 33.5761 24.1076 33.2636 23.7576L33.2635 23.7575ZM23.0228 33.2889L22.8291 32.6639H22.8289C22.7786 32.499 22.6626 32.3626 22.5083 32.2861C22.3537 32.2099 22.1748 32.2007 22.0133 32.2607L21.2259 32.5732L22.3258 30.2451C22.4243 30.3798 22.5557 30.4873 22.7069 30.5576C22.8434 30.6201 22.9915 30.6519 23.1414 30.6513C23.5183 30.6184 23.8819 30.4951 24.2008 30.292L24.4664 30.1575L23.0228 33.2889ZM30.1478 32.2607C29.9857 32.1974 29.8043 32.2046 29.6478 32.2805C29.4913 32.3564 29.3735 32.4942 29.3227 32.6605L29.1291 33.2855L27.6601 30.0762L27.6757 30.0606C27.8239 30.1153 27.9678 30.18 28.1071 30.2542C28.4243 30.4459 28.7815 30.5615 29.1509 30.5919C29.3074 30.5933 29.4625 30.5592 29.604 30.492C29.7017 30.4434 29.7904 30.379 29.8666 30.3011L30.9352 32.5698L30.1478 32.2607ZM32.2385 25.0078C31.8384 25.1859 31.3822 25.389 31.1791 25.8142C30.9759 26.2391 31.1071 26.7018 31.2229 27.1141C31.2511 27.2174 31.2915 27.3641 31.3136 27.4766H30.9134C30.4603 27.4766 29.9977 27.4515 29.6352 27.7422C29.2728 28.0329 29.1726 28.5235 29.0914 28.9515C29.0727 29.0514 29.0445 29.192 29.0164 29.3014C28.9039 29.2576 28.7633 29.1859 28.6631 29.1356L28.6634 29.1359C28.352 28.9456 28.0016 28.829 27.6383 28.7952C27.5562 28.7952 27.4745 28.8047 27.3944 28.8234C26.9382 28.9297 26.6444 29.3234 26.3849 29.6702C26.3193 29.7578 26.2256 29.8828 26.1505 29.9827C26.0724 29.8984 25.9756 29.7765 25.91 29.6889C25.6444 29.3482 25.3414 28.9607 24.8818 28.8638H24.8821C24.809 28.849 24.7345 28.8418 24.66 28.8421C24.2878 28.8741 23.9287 28.9952 23.6131 29.1953C23.5132 29.2483 23.3693 29.3234 23.2599 29.3672C23.2286 29.2609 23.2005 29.1202 23.1787 29.0234C23.088 28.5954 22.9881 28.1111 22.6067 27.8203H22.607C22.3193 27.6224 21.9742 27.5259 21.6257 27.5452H21.285H20.9195C20.9382 27.4358 20.9759 27.2952 21.0007 27.1953C21.107 26.7795 21.2289 26.3077 21.0194 25.8889C20.8101 25.4701 20.3506 25.2639 19.9474 25.1076C19.8536 25.0669 19.7225 25.0108 19.6349 24.9609C19.7005 24.8702 19.7911 24.7639 19.8567 24.6891C20.1382 24.3827 20.4507 24.0077 20.4507 23.5357C20.4507 23.0638 20.1196 22.7014 19.8257 22.3764C19.7602 22.3013 19.6664 22.1984 19.5975 22.1077C19.6974 22.0547 19.8257 21.9983 19.91 21.9576C20.3101 21.7796 20.7663 21.5764 20.9694 21.1512C21.1726 20.7263 21.0414 20.2636 20.9256 19.8513C20.8975 19.7481 20.857 19.6013 20.835 19.4888H21.2351C21.6882 19.4888 22.1508 19.514 22.5133 19.2232C22.8757 18.9325 22.9759 18.4419 23.0571 18.017C23.0758 17.9171 23.104 17.7765 23.1321 17.6671C23.2415 17.7109 23.3852 17.7826 23.4854 17.8329L23.4851 17.8326C23.7976 18.0223 24.1492 18.1378 24.5133 18.1702C24.5953 18.1702 24.6771 18.1607 24.7572 18.142C25.2134 18.0357 25.5072 17.642 25.7667 17.2952C25.8322 17.2076 25.926 17.0826 26.0011 16.9827C26.0792 17.067 26.176 17.1889 26.2416 17.2765C26.5072 17.6172 26.8102 18.0047 27.2698 18.1047H27.2695C27.3415 18.1195 27.4149 18.1267 27.4883 18.1264C27.8607 18.0946 28.2198 17.9735 28.5351 17.7735C28.635 17.7205 28.7756 17.6454 28.8883 17.6016C28.9196 17.7079 28.9478 17.8485 28.9665 17.9454C29.0572 18.3734 29.157 18.8577 29.5385 19.1485C29.8267 19.3382 30.169 19.4281 30.5133 19.4046H30.854H31.2195C31.2008 19.5171 31.1631 19.6546 31.1383 19.7545C31.032 20.1703 30.9101 20.6421 31.1196 21.0609C31.3289 21.4797 31.7884 21.6859 32.1916 21.8422C32.2854 21.8829 32.4165 21.939 32.5041 21.9889C32.4386 22.0796 32.3479 22.1859 32.2823 22.2607C32.001 22.5919 31.6791 22.9669 31.6855 23.4387C31.6916 23.9105 32.0167 24.2763 32.3105 24.598C32.376 24.673 32.4698 24.776 32.5387 24.8667C32.457 24.9108 32.3258 24.9671 32.2382 25.0079L32.2385 25.0078Z" fill="white"></path>
<path d="M26.0781 19.7324C25.0834 19.7324 24.1298 20.1275 23.4263 20.8306C22.7232 21.534 22.3281 22.4877 22.3281 23.4824C22.3281 24.4771 22.7232 25.4308 23.4263 26.1342C24.1297 26.8373 25.0834 27.2324 26.0781 27.2324C27.0728 27.2324 28.0265 26.8373 28.7299 26.1342C29.433 25.4308 29.8281 24.4771 29.8281 23.4824C29.8281 22.4877 29.433 21.5341 28.7299 20.8306C28.0265 20.1275 27.0728 19.7324 26.0781 19.7324ZM26.0781 25.9824C25.4152 25.9824 24.7793 25.719 24.3103 25.2503C23.8415 24.7813 23.5781 24.1454 23.5781 23.4824C23.5781 22.8195 23.8415 22.1836 24.3103 21.7146C24.7793 21.2458 25.4152 20.9824 26.0781 20.9824C26.7411 20.9824 27.377 21.2458 27.846 21.7146C28.3147 22.1836 28.5781 22.8195 28.5781 23.4824C28.5781 24.1454 28.3147 24.7813 27.846 25.2503C27.377 25.719 26.7411 25.9824 26.0781 25.9824Z" fill="white"></path>
<path d="M1.39062 23.4824C1.39062 23.8276 1.11077 24.1074 0.765625 24.1074C0.420482 24.1074 0.140625 23.8276 0.140625 23.4824C0.140625 23.1373 0.420482 22.8574 0.765625 22.8574C1.11077 22.8574 1.39062 23.1373 1.39062 23.4824Z" fill="white"></path>
<path d="M18.8239 17.8887L18.8521 17.8574H5.38281C5.03767 17.8574 4.75781 18.1373 4.75781 18.4824C4.75781 18.8276 5.03767 19.1074 5.38281 19.1074H18.3421C18.3767 18.6621 18.5444 18.2374 18.8234 17.8887L18.8239 17.8887Z" fill="white"></path>
<path d="M4.75781 21.6074C4.75781 21.7732 4.82366 21.9322 4.94085 22.0494C5.05831 22.1666 5.21708 22.2324 5.38281 22.2324H17.0171C16.9778 21.8002 17.0645 21.3661 17.2671 20.9824H5.38281C5.03767 20.9824 4.75781 21.2623 4.75781 21.6074Z" fill="white"></path>
<path d="M5.38281 24.1074C5.03767 24.1074 4.75781 24.3873 4.75781 24.7324C4.75781 25.0776 5.03767 25.3574 5.38281 25.3574H17.07C17.0133 24.9311 17.0794 24.4975 17.2608 24.1074H5.38281Z" fill="white"></path>
<path d="M5.38281 27.2324C5.03767 27.2324 4.75781 27.5123 4.75781 27.8574C4.75781 28.2026 5.03767 28.4824 5.38281 28.4824H18.5328C18.4103 28.0776 18.3827 27.6499 18.4516 27.2324H5.38281Z" fill="white"></path>
<path d="M5.38281 30.3574C5.03767 30.3574 4.75781 30.6373 4.75781 30.9824C4.75781 31.3276 5.03767 31.6074 5.38281 31.6074H18.9078L19.4954 30.3574H5.38281Z" fill="white"></path>
<path d="M5.38281 33.4824C5.03767 33.4824 4.75781 33.7623 4.75781 34.1074C4.75781 34.4526 5.03767 34.7324 5.38281 34.7324H18.4107C18.1732 34.3616 18.0736 33.9191 18.1294 33.4824H5.38281Z" fill="white"></path>
</svg>