<svg width="43" height="43" viewBox="0 0 36 38" fill="none" xmlns="http://www.w3.org/2000/svg">
<path d="M3.78897 0.932138L3.78885 0.932044C3.46542 0.673241 2.99353 0.725599 2.73467 1.04903L3.78897 0.932138ZM3.78897 0.932138C4.11237 1.19076 4.16491 1.66289 3.90615 1.98625L3.90614 1.98627L3.53086 2.4553L2.88087 3.26767H3.92128H7.98713C8.40128 3.26767 8.73713 3.60352 8.73713 4.01767C8.73713 4.43182 8.40128 4.76767 7.98713 4.76767H3.92128H2.88087L3.53086 5.58005L3.90614 6.04908L3.90616 6.0491C4.16489 6.37243 4.1124 6.84453 3.78894 7.10323L3.78884 7.10331C3.46543 7.36211 2.99353 7.30975 2.73468 6.98632C2.73466 6.98631 2.73465 6.98629 2.73464 6.98627L0.734742 4.48635L3.78897 0.932138ZM0.73473 3.54896L2.73463 1.04908L0.734677 4.48627C0.515516 4.21211 0.515534 3.82312 0.734674 3.54903C0.734693 3.54901 0.734711 3.54898 0.73473 3.54896Z" stroke="white"></path>
<path d="M32.1827 30.932L32.1824 30.9322C31.859 31.1907 31.8065 31.6628 32.0654 31.9863L32.0654 31.9863L32.4406 32.4553L33.0906 33.2677H32.0502H27.9844C27.5702 33.2677 27.2344 33.6035 27.2344 34.0177C27.2344 34.4318 27.5702 34.7677 27.9844 34.7677H32.0502H33.0906L32.4406 35.58L32.0654 36.0491L32.0653 36.0491C31.8066 36.3725 31.8589 36.8446 32.1825 37.1035L32.1827 30.932ZM32.1827 30.932C32.5061 30.6732 32.978 30.7256 33.2369 31.0491L35.2368 33.549M32.1827 30.932L35.2368 33.549M35.2368 33.549C35.456 33.8231 35.456 34.2121 35.2368 34.4863M35.2368 33.549L35.2368 34.4863M35.2368 34.4863C35.2368 34.4863 35.2368 34.4863 35.2368 34.4863M35.2368 34.4863L35.2368 34.4863M35.2368 34.4863L33.2369 36.9863L35.2368 34.4863ZM33.2368 36.9863C32.978 37.3098 32.506 37.3621 32.1826 37.1035L33.2368 36.9863Z" stroke="white"></path>
<path d="M17.9898 6.43359C11.0401 6.43359 5.40625 12.0673 5.40625 19.0172C5.40625 25.967 11.04 31.6007 17.9898 31.6007C24.9397 31.6007 30.5734 25.967 30.5734 19.0172C30.5734 12.0673 24.9397 6.43359 17.9898 6.43359ZM3.90625 19.0172C3.90625 11.239 10.2117 4.93359 17.9898 4.93359C25.768 4.93359 32.0734 11.239 32.0734 19.0172C32.0734 26.7953 25.768 33.1007 17.9898 33.1007C10.2117 33.1007 3.90625 26.7953 3.90625 19.0172Z" stroke="white"></path>
<path d="M18.7397 11.3008V11.8008H19.2397H21.3231C21.7373 11.8008 22.0731 12.1366 22.0731 12.5508C22.0731 12.9649 21.7373 13.3008 21.3231 13.3008H17.9897C16.5629 13.3008 15.4062 14.4574 15.4062 15.8842V17.9674V18.4674H15.9062H21.3231C21.7373 18.4674 22.0731 18.8032 22.0731 19.2174V22.5508C22.0731 24.4191 20.8179 25.9956 19.1036 26.4804L18.7397 26.5833V26.9615V28.3842C18.7397 28.7984 18.4038 29.1342 17.9897 29.1342C17.5755 29.1342 17.2397 28.7984 17.2397 28.3842V27.1342V26.6342H16.7397H14.6562C14.2421 26.6342 13.9062 26.2984 13.9062 25.8842C13.9062 25.4701 14.2421 25.1342 14.6562 25.1342H17.9897C19.4165 25.1342 20.5731 23.9776 20.5731 22.5508V20.4674V19.9674H20.0731H14.6562C14.242 19.9674 13.9062 19.6317 13.9062 19.2174V15.8842C13.9062 14.0159 15.1615 12.4394 16.8758 11.9543L17.2397 11.8514V11.4732V10.0508C17.2397 9.63663 17.5755 9.30078 17.9897 9.30078C18.4038 9.30078 18.7397 9.63663 18.7397 10.0508V11.3008Z" stroke="white"></path>
</svg>