<svg width="38" height="38" viewBox="0 0 50 50" fill="none" xmlns="http://www.w3.org/2000/svg">
<path d="M41.9847 36.6878H38.9435C38.7278 36.6878 38.5528 36.5129 38.5528 36.2972C38.5528 36.0815 38.7278 35.9066 38.9435 35.9066H41.5941V17.1566H41.1198C40.9041 17.1566 40.7292 16.9816 40.7292 16.7659C40.7292 16.5502 40.9041 16.3753 41.1198 16.3753H41.9847C42.2004 16.3753 42.3753 16.5502 42.3753 16.7659V36.2974C42.3753 36.513 42.2004 36.688 41.9847 36.688L41.9847 36.6878ZM35.0372 36.6878H12.9615C12.4657 36.6878 11.9757 36.6147 11.5055 36.4707C11.2993 36.4074 11.1833 36.1892 11.2466 35.9827C11.3099 35.7765 11.5281 35.6605 11.7346 35.7238C12.1303 35.8452 12.5432 35.9066 12.9615 35.9066H35.0372C35.2529 35.9066 35.4278 36.0815 35.4278 36.2972C35.4278 36.5132 35.2529 36.6878 35.0372 36.6878ZM8.78432 33.9757C8.63476 33.9757 8.49219 33.8895 8.42718 33.7439C8.14369 33.1074 8 32.4289 8 31.7269V14.4219C8 14.2062 8.17494 14.0312 8.39063 14.0312H8.48912C8.66741 14.0312 8.82283 14.1518 8.86747 14.3245C9.17802 15.5318 10.267 16.375 11.5156 16.375C11.7313 16.375 11.9062 16.5499 11.9062 16.7656C11.9062 16.9813 11.7313 17.1563 11.5156 17.1563C10.4272 17.1563 9.43304 16.6576 8.78126 15.8527V31.7263C8.78126 32.3181 8.90235 32.8895 9.14091 33.4255C9.22881 33.6225 9.14008 33.8535 8.94309 33.9414C8.89147 33.9643 8.83762 33.9751 8.78433 33.9751L8.78432 33.9757ZM37.2129 17.1565H13.7758C13.5601 17.1565 13.3851 16.9815 13.3851 16.7658C13.3851 16.5501 13.5601 16.3752 13.7758 16.3752H37.2129C37.4286 16.3752 37.6035 16.5501 37.6035 16.7658C37.6035 16.9815 37.4286 17.1565 37.2129 17.1565Z" fill="black"/>
<path d="M24.0158 13.2501H11.5158C11.3001 13.2501 11.1252 13.0751 11.1252 12.8594V12.0781C11.1252 11.8625 11.3001 11.6875 11.5158 11.6875C11.7315 11.6875 11.9064 11.8625 11.9064 12.0781V12.4688H23.625V10.5156C23.625 10.3 23.7999 10.125 24.0156 10.125H30.6563V7.78129H11.9063V8.17191C11.9063 8.38759 11.7313 8.56254 11.5156 8.56254C11.2999 8.56254 11.125 8.3876 11.125 8.17191V7.39063C11.125 7.17495 11.2999 7 11.5156 7H31.0471C31.2627 7 31.4377 7.17494 31.4377 7.39063V10.5156C31.4377 10.7313 31.2627 10.9063 31.0471 10.9063H24.4064V12.8594C24.4064 13.0751 24.2315 13.2501 24.0158 13.2501Z" fill="black"/>
<path d="M41.9842 17.1563H22.7885C22.5728 17.1563 22.3979 16.9813 22.3979 16.7657C22.3979 16.55 22.5728 16.375 22.7885 16.375H41.5935V12.524C41.5935 12.3084 41.7684 12.1334 41.9841 12.1334C42.1998 12.1334 42.3747 12.3083 42.3747 12.524V16.7657C42.3747 16.9814 42.1998 17.1563 41.9841 17.1563L41.9842 17.1563ZM18.8821 17.1563H11.5156C9.91041 17.1563 8.51034 16.072 8.11077 14.5193C8.03739 14.2336 8 13.9381 8 13.6406C8 11.702 9.577 10.125 11.5156 10.125C11.7313 10.125 11.9063 10.2999 11.9063 10.5156V12.4688H15.4219C15.6376 12.4688 15.8125 12.6437 15.8125 12.8594C15.8125 13.0751 15.6376 13.25 15.4219 13.25H11.5156C11.3 13.25 11.125 13.0751 11.125 12.8594V10.9342C9.80164 11.1242 8.78129 12.2654 8.78129 13.6407C8.78129 13.8726 8.8103 14.1025 8.8675 14.3246C9.17805 15.5318 10.2671 16.3751 11.5156 16.3751H18.8821C19.0978 16.3751 19.2727 16.55 19.2727 16.7657C19.2727 16.9814 19.0977 17.1563 18.8821 17.1563ZM37.2963 14.8126H24.0149C23.7992 14.8126 23.6243 14.6376 23.6243 14.4219V13.2501H19.3274C19.1118 13.2501 18.9368 13.0751 18.9368 12.8595C18.9368 12.6438 19.1117 12.4688 19.3274 12.4688H24.0149C24.2306 12.4688 24.4056 12.6438 24.4056 12.8595V14.0313H36.9056V10.5157C36.9056 10.3 37.0805 10.125 37.2962 10.125H40.0858C40.3015 10.125 40.4765 10.3 40.4765 10.5157C40.4765 10.7314 40.3015 10.9063 40.0858 10.9063H37.6868V14.4219C37.6868 14.6376 37.5119 14.8126 37.2962 14.8126H37.2963Z" fill="black"/>
<path d="M36.5156 14.8125H24.0156C23.8 14.8125 23.625 14.6376 23.625 14.4219V10.5156C23.625 10.2999 23.7999 10.125 24.0156 10.125H37.2971C37.5127 10.125 37.6877 10.2999 37.6877 10.5156V11.2969C37.6877 11.5126 37.5127 11.6875 37.2971 11.6875C37.0814 11.6875 36.9064 11.5126 36.9064 11.2969V10.9063H24.4064V14.0313H36.5157C36.7314 14.0313 36.9063 14.2062 36.9063 14.4219C36.9063 14.6376 36.7314 14.8125 36.5157 14.8125H36.5156Z" fill="black"/>
<path d="M41.9844 32.7808H38.8984C37.3691 32.7808 36.125 31.5367 36.125 30.0074V28.763C36.125 28.5473 36.2999 28.3723 36.5156 28.3723C36.7313 28.3723 36.9063 28.5473 36.9063 28.763V30.0074C36.9063 31.1059 37.8 31.9996 38.8985 31.9996H41.5938V21.0625H38.8985C37.8 21.0625 36.9063 21.9562 36.9063 23.0547V24.8571C36.9063 25.0728 36.7313 25.2477 36.5156 25.2477C36.2999 25.2477 36.125 25.0728 36.125 24.8571V23.0547C36.125 21.5254 37.3691 20.2812 38.8984 20.2812H41.9844C42.2 20.2812 42.375 20.4562 42.375 20.6719V32.3905C42.375 32.6061 42.2 32.7811 41.9844 32.7811V32.7808Z" fill="black"/>
<path d="M38.8594 27.3127C38.6437 27.3127 38.4688 27.1377 38.4688 26.9221V16.7656C38.4688 16.5499 38.6437 16.375 38.8594 16.375C39.0751 16.375 39.25 16.5499 39.25 16.7656V26.9221C39.25 27.1377 39.0751 27.3127 38.8594 27.3127Z" fill="black"/>
<path d="M28.7031 43.7186C28.4875 43.7186 28.3125 43.5436 28.3125 43.328V25.3594C28.3125 25.1437 28.4874 24.9688 28.7031 24.9688C28.9188 24.9688 29.0938 25.1437 29.0938 25.3594V43.328C29.0938 43.5436 28.9188 43.7186 28.7031 43.7186Z" fill="black"/>
<path d="M28.7035 30.4378C28.5601 30.4378 28.4222 30.3585 28.3539 30.2218C28.2573 30.0287 28.3355 29.7941 28.5285 29.6976L33.0001 27.4621V19.8906C33.0001 19.6749 33.1751 19.5 33.3907 19.5C33.6064 19.5 33.7814 19.6749 33.7814 19.8906V27.7035C33.7814 27.8516 33.6977 27.9867 33.5654 28.0528L28.8779 30.3965C28.8218 30.4247 28.7621 30.4378 28.7035 30.4378Z" fill="black"/>
<path d="M18.5469 43.7186C18.3312 43.7186 18.1562 43.5436 18.1562 43.328V25.3594C18.1562 25.1437 18.3312 24.9688 18.5469 24.9688C18.7626 24.9688 18.9375 25.1437 18.9375 25.3594V43.328C18.9375 43.5436 18.7626 43.7186 18.5469 43.7186Z" fill="black"/>
<path d="M18.5466 30.4378C18.488 30.4378 18.4283 30.4244 18.3722 30.3965L13.6847 28.0528C13.5524 27.9867 13.4688 27.8516 13.4688 27.7035V19.8906C13.4688 19.6749 13.6437 19.5 13.8594 19.5C14.0751 19.5 14.25 19.6749 14.25 19.8906V27.4621L18.7216 29.6978C18.9147 29.7944 18.9928 30.029 18.8962 30.2221C18.8279 30.3588 18.6897 30.4378 18.5466 30.4378Z" fill="black"/>
<path d="M24.0156 31.2191C23.8 31.2191 23.625 31.0442 23.625 30.8285V23.0156C23.625 22.7999 23.7999 22.625 24.0156 22.625C24.2313 22.625 24.4063 22.7999 24.4063 23.0156V30.8285C24.4063 31.0442 24.2313 31.2191 24.0156 31.2191Z" fill="black"/>
<path d="M24.0157 28.0937C23.9158 28.0937 23.8156 28.0555 23.7395 27.9793C23.5868 27.8267 23.5868 27.5795 23.7395 27.4269L25.9688 25.1975V19.1094C25.9688 18.8937 26.1438 18.7188 26.3595 18.7188C26.5751 18.7188 26.7501 18.8937 26.7501 19.1094V25.3594C26.7501 25.4629 26.7091 25.5622 26.6357 25.6356L24.292 27.9793C24.2158 28.0555 24.1156 28.0937 24.0157 28.0937Z" fill="black"/>
<path d="M21.6719 41.3511C21.4562 41.3511 21.2812 41.1761 21.2812 40.9605V26.9219C21.2812 26.7062 21.4562 26.5312 21.6719 26.5312C21.8876 26.5312 22.0625 26.7062 22.0625 26.9219V40.9605C22.0625 41.1761 21.8876 41.3511 21.6719 41.3511Z" fill="black"/>
<path d="M13.8594 28.0938H10.7344C10.5187 28.0938 10.3438 27.9188 10.3438 27.7031C10.3438 27.4874 10.5187 27.3125 10.7344 27.3125H13.8594C14.0751 27.3125 14.25 27.4874 14.25 27.7031C14.25 27.9188 14.0751 28.0938 13.8594 28.0938Z" fill="black"/>
<path d="M25.578 43.7189C25.3624 43.7189 25.1874 43.5439 25.1874 43.3282V33.5625H16.2031C15.9875 33.5625 15.8125 33.3876 15.8125 33.1719C15.8125 32.9562 15.9874 32.7812 16.2031 32.7812H25.5781C25.7938 32.7812 25.9688 32.9562 25.9688 33.1719V43.3283C25.9688 43.544 25.7938 43.7189 25.5781 43.7189L25.578 43.7189Z" fill="black"/>
<path d="M33.3907 43.7185C33.175 43.7185 33.0001 43.5436 33.0001 43.3279V34.115L30.7707 31.8857C30.6181 31.7331 30.6181 31.4858 30.7707 31.3332C30.9231 31.1806 31.1706 31.1806 31.3232 31.3332L33.6669 33.6769C33.7403 33.7503 33.7813 33.8496 33.7813 33.9532V43.3282C33.7813 43.5438 33.6063 43.7188 33.3907 43.7188L33.3907 43.7185Z" fill="black"/>
<path d="M13.8594 10.9063C13.6437 10.9063 13.4688 10.7314 13.4688 10.5157V9.73438C13.4688 9.5187 13.6437 9.34375 13.8594 9.34375C14.0751 9.34375 14.25 9.51869 14.25 9.73438V10.5157C14.25 10.7313 14.0751 10.9063 13.8594 10.9063Z" fill="black"/>
<path d="M16.2031 10.9063C15.9874 10.9063 15.8125 10.7314 15.8125 10.5157V9.73438C15.8125 9.5187 15.9874 9.34375 16.2031 9.34375C16.4188 9.34375 16.5938 9.51869 16.5938 9.73438V10.5157C16.5938 10.7313 16.4188 10.9063 16.2031 10.9063Z" fill="black"/>
<path d="M18.5469 10.9063C18.3312 10.9063 18.1562 10.7314 18.1562 10.5157V9.73438C18.1562 9.5187 18.3312 9.34375 18.5469 9.34375C18.7626 9.34375 18.9375 9.51869 18.9375 9.73438V10.5157C18.9375 10.7313 18.7626 10.9063 18.5469 10.9063Z" fill="black"/>
<path d="M20.8906 10.9063C20.675 10.9063 20.5 10.7314 20.5 10.5157V9.73438C20.5 9.5187 20.6749 9.34375 20.8906 9.34375C21.1063 9.34375 21.2813 9.51869 21.2813 9.73438V10.5157C21.2813 10.7313 21.1063 10.9063 20.8906 10.9063Z" fill="black"/>
<path d="M21.6719 43.7168C21.4562 43.7168 21.2812 43.5419 21.2812 43.3262V43.2773C21.2812 43.0617 21.4562 42.8867 21.6719 42.8867C21.8876 42.8867 22.0625 43.0617 22.0625 43.2773V43.3262C22.0625 43.5419 21.8876 43.7168 21.6719 43.7168Z" fill="black"/>
<path d="M9.95312 30.0469H11.5156V31.6094H9.95312V30.0469Z" fill="black"/>
<path d="M12.2969 30.0469H13.8594V31.6094H12.2969V30.0469Z" fill="black"/>
<path d="M20.8906 18.3281H22.4531V19.8906H20.8906V18.3281Z" fill="black"/>
<path d="M20.8906 20.6719H22.4531V22.2344H20.8906V20.6719Z" fill="black"/>
<path d="M20.8906 23.0156H22.4531V24.5781H20.8906V23.0156Z" fill="black"/>
<path d="M14.6406 30.0469H16.2031V31.6094H14.6406V30.0469Z" fill="black"/>
</svg>