<svg width="38" height="38" viewBox="0 0 24 24" fill="none" xmlns="http://www.w3.org/2000/svg">
<path d="M23.4578 12.5759V12.1509V11.8109L19.8453 10.9184L19.0803 7.56086C19.2928 7.00836 19.5053 6.28586 19.6753 5.39336C19.7178 5.09586 19.6328 4.79836 19.4203 4.58586C19.2078 4.37336 18.9103 4.33086 18.6128 4.41586C18.4428 4.45836 18.3153 4.50086 18.1453 4.54336C18.0603 4.07586 17.6353 3.69336 17.1253 3.69336C16.6153 3.69336 16.1903 4.03336 16.1053 4.54336C15.9778 4.50086 15.8078 4.45836 15.6378 4.41586C15.3403 4.33086 15.0428 4.41586 14.8303 4.58586C14.6178 4.79836 14.4903 5.09586 14.5753 5.39336C14.7453 6.28586 14.9578 7.00836 15.1703 7.56086L14.2353 11.5134C14.1078 12.1509 14.2353 12.7884 14.6178 13.2984L16.2328 15.5084C16.6578 16.7409 17.5503 18.0159 19.5478 18.9509L19.7178 19.0359L19.8878 18.9509C23.5428 17.2084 23.5003 14.3184 23.4578 12.5759ZM18.8253 5.22312C18.6978 5.77562 18.6128 6.24312 18.4853 6.66812C18.4003 6.58312 18.2728 6.54062 18.1453 6.49812V5.39312C18.3578 5.35062 18.5703 5.30812 18.8253 5.22312ZM17.0828 4.54312C17.2103 4.54312 17.2953 4.62812 17.2953 4.75562V6.32812H16.8703V4.75562C16.8703 4.62812 16.9553 4.54312 17.0828 4.54312ZM16.0203 5.39312V6.49812C15.8928 6.54062 15.8078 6.62562 15.6803 6.66812C15.5528 6.24312 15.4253 5.77562 15.3403 5.22312C15.5953 5.30812 15.8078 5.35062 16.0203 5.39312ZM15.2128 12.8304C15.0003 12.4904 14.9153 12.1079 15.0003 11.7254L15.9353 7.77287C16.0203 7.43287 16.3178 7.17787 16.6578 7.17787H17.5078C17.8478 7.17787 18.1453 7.43287 18.2303 7.77287L18.9953 11.0454L15.8078 11.8104V12.1504V12.5754V13.6804L15.2128 12.8304ZM19.6328 18.1431C16.5728 16.6131 16.6153 14.3181 16.6578 12.5759V12.4909L19.6328 11.7684L22.6078 12.4909V12.5759C22.6503 14.2759 22.6503 16.6134 19.6328 18.1431Z" fill="black"/>
<path d="M19.5875 14.8722L18.865 14.1922L18.3125 14.8297L19.63 16.0197L21.5 14.1497L20.8625 13.5547L19.5875 14.8722Z" fill="black"/>
<path d="M12.9609 11.1314C12.9609 11.0889 12.9609 11.0889 12.9184 11.0464C13.3434 10.0264 13.6409 8.66641 13.8109 7.64641C13.8534 7.30641 13.7684 7.00891 13.5134 6.79641C13.2584 6.58391 12.9184 6.49891 12.6209 6.62641C12.2809 6.75391 11.8134 6.88141 11.3034 6.96641V6.75391C11.3034 6.15891 10.8359 5.69141 10.2409 5.69141C9.64586 5.69141 9.17836 6.15891 9.17836 6.75391V6.96641C8.66836 6.88141 8.20086 6.75391 7.86086 6.62641C7.56336 6.54141 7.22336 6.58391 6.96836 6.79641C6.71336 7.00891 6.58586 7.34891 6.67086 7.64641C6.84086 8.62391 7.13836 9.98391 7.56336 11.0464C7.56336 11.0889 7.56336 11.0889 7.52086 11.1314L6.24586 16.8687C6.03336 17.7187 6.24586 18.6112 6.75586 19.2912L9.26336 22.6912C9.47586 23.0737 9.85836 23.2437 10.2834 23.2437C10.7084 23.2437 11.0909 23.0737 11.3034 22.7337L13.8109 19.3337C14.3209 18.6537 14.4909 17.7612 14.3209 16.9112L12.9609 11.1314ZM12.9184 7.43391H12.9609L13.0034 7.47641C12.8334 8.49641 12.6209 9.34641 12.3659 10.0689C12.0684 9.77141 11.7284 9.60141 11.3034 9.51641V7.77391C11.9409 7.73141 12.5359 7.60391 12.9184 7.43391ZM10.2834 6.54141C10.4109 6.54141 10.4959 6.62641 10.4959 6.75391V9.51641H10.0709V6.75391C10.0709 6.62641 10.1559 6.54141 10.2834 6.54141ZM7.56336 7.47641C7.60586 7.43391 7.60586 7.47641 7.60586 7.47641C8.03086 7.60391 8.58336 7.77391 9.17836 7.85891V9.60141C8.79586 9.68641 8.41336 9.89891 8.11586 10.1539C7.90336 9.43141 7.69086 8.58141 7.47836 7.56141C7.56336 7.51891 7.56336 7.47641 7.56336 7.47641ZM13.1306 18.7814L10.6231 22.1814C10.4531 22.3939 10.1131 22.3939 9.94312 22.1814L7.43562 18.7814C7.05312 18.2714 6.92562 17.6339 7.09562 17.0389L8.41312 11.3439C8.54062 10.7489 9.05062 10.3664 9.64562 10.3664H10.8781C11.4731 10.3664 11.9831 10.7914 12.1106 11.3439L13.4706 17.0812C13.6406 17.6762 13.5131 18.3137 13.1306 18.7812V18.7814Z" fill="black"/>
<path d="M9.72375 13.9366C9.80875 14.0216 9.89375 14.0641 9.97875 14.1066C10.0638 14.1491 10.1913 14.1916 10.3188 14.1916C10.4463 14.1916 10.5738 14.1916 10.6588 14.1066C10.7438 14.0641 10.8713 14.0216 10.9138 13.9366C10.9563 13.8516 11.0413 13.7666 11.0838 13.6391C11.1263 13.5116 11.1688 13.4266 11.1688 13.2566V12.6191H9.46875V13.2991C9.46875 13.4266 9.46875 13.5541 9.55375 13.6816C9.59625 13.7666 9.63875 13.8516 9.72375 13.9366ZM9.76625 13.0441H10.8713V13.2991C10.8713 13.3841 10.8713 13.4266 10.8288 13.5116C10.7862 13.5966 10.7862 13.6391 10.7013 13.6816C10.6588 13.7241 10.6163 13.7666 10.5312 13.7666C10.4463 13.8091 10.4038 13.8091 10.3188 13.8091C10.2338 13.8091 10.1488 13.8091 10.1063 13.7666C10.0213 13.7241 9.97875 13.7241 9.93625 13.6816C9.89375 13.6391 9.85125 13.5966 9.80875 13.5116C9.76625 13.4266 9.76625 13.3841 9.76625 13.2991V13.0441Z" fill="black"/>
<path d="M9.72375 15.6784C9.80875 15.7634 9.89375 15.8059 9.97875 15.8484C10.0638 15.8909 10.1913 15.9334 10.3188 15.9334C10.4463 15.9334 10.5738 15.9334 10.6588 15.8484C10.7438 15.8059 10.8713 15.7634 10.9138 15.6784C10.9563 15.5934 11.0413 15.5084 11.0838 15.3809C11.1263 15.2534 11.1688 15.1684 11.1688 14.9984V14.3184H9.46875V14.9984C9.46875 15.1259 9.46875 15.2534 9.55375 15.3809C9.59625 15.5084 9.63875 15.5934 9.72375 15.6784ZM9.76625 14.7434H10.8713V14.9984C10.8713 15.0834 10.8713 15.1259 10.8288 15.2109C10.7862 15.2959 10.7862 15.3384 10.7013 15.3809C10.6588 15.4234 10.6163 15.4659 10.5312 15.4659C10.4463 15.5084 10.4038 15.5084 10.3188 15.5084C10.2338 15.5084 10.1488 15.5084 10.1063 15.4659C10.0213 15.4234 9.97875 15.4234 9.93625 15.3809C9.89375 15.3384 9.85125 15.2959 9.80875 15.2109C9.76625 15.1259 9.76625 15.0834 9.76625 14.9984V14.7434Z" fill="black"/>
<path d="M10.9597 16.232C10.8747 16.147 10.7897 16.1045 10.7047 16.062C10.5772 16.0195 10.4497 16.0195 10.3222 16.0195C10.1947 16.0195 10.0672 16.0195 9.98219 16.062C9.89719 16.1045 9.76969 16.147 9.68469 16.232C9.59969 16.317 9.55719 16.402 9.51469 16.5295C9.47219 16.657 9.42969 16.742 9.42969 16.912C9.42969 17.0395 9.47219 17.167 9.51469 17.2945C9.55719 17.422 9.59969 17.507 9.68469 17.592C9.76969 17.677 9.85469 17.7195 9.98219 17.762C10.1097 17.8045 10.1947 17.8045 10.3222 17.8045C10.4497 17.8045 10.5772 17.8045 10.6622 17.762C10.7472 17.7195 10.8747 17.677 10.9172 17.592C11.0022 17.507 11.0447 17.422 11.0872 17.2945C11.1297 17.167 11.1722 17.082 11.1722 16.912C11.1722 16.7845 11.1297 16.657 11.0872 16.5295C11.0872 16.402 11.0447 16.317 10.9597 16.232ZM10.8322 17.082C10.7897 17.1245 10.7897 17.2095 10.7047 17.252C10.6622 17.2945 10.6197 17.337 10.5347 17.337C10.4497 17.3795 10.4072 17.3795 10.3222 17.3795C10.2372 17.3795 10.1522 17.3795 10.1097 17.337C10.0247 17.2945 9.98219 17.2945 9.93969 17.252C9.89719 17.2095 9.85469 17.167 9.81219 17.082C9.76969 17.0395 9.76969 16.9545 9.76969 16.8695C9.76969 16.7845 9.76969 16.742 9.81219 16.657C9.85469 16.6145 9.85469 16.5295 9.93969 16.487C9.98219 16.4445 10.0247 16.402 10.1097 16.402C10.1947 16.3595 10.2372 16.3595 10.3222 16.3595C10.4072 16.3595 10.4922 16.3595 10.5347 16.402C10.6197 16.4445 10.6622 16.4445 10.7047 16.487C10.7472 16.5295 10.7897 16.572 10.8322 16.657C10.8747 16.742 10.8747 16.7845 10.8747 16.8695C10.8747 16.9545 10.8747 17.0395 10.8322 17.082Z" fill="black"/>
<path d="M11.0422 18.0582C10.9997 18.0157 10.9572 17.9732 10.8722 17.9307C10.8297 17.8882 10.7447 17.8882 10.7022 17.8882C10.6172 17.8882 10.5747 17.8882 10.4897 17.9307C10.4472 17.9732 10.4047 17.9732 10.3622 18.0157C10.3197 18.0582 10.2772 18.1007 10.2772 18.1432C10.2347 18.1857 10.2347 18.2282 10.2347 18.2707C10.2347 18.3132 10.1922 18.3557 10.1922 18.3982C10.1922 18.4407 10.1497 18.4832 10.1497 18.5257C10.1497 18.5682 10.1072 18.6107 10.1072 18.6107C10.0647 18.6532 10.0647 18.6532 10.0222 18.6532C9.93719 18.6532 9.89469 18.6532 9.85219 18.6107C9.80969 18.5682 9.80969 18.5257 9.80969 18.4407C9.80969 18.3982 9.80969 18.3557 9.85219 18.3132C9.85219 18.2707 9.89469 18.2282 9.89469 18.2282C9.89469 18.1857 9.93719 18.1857 9.93719 18.1432C9.93719 18.1007 9.97969 18.1007 9.97969 18.0582V18.0157C9.97969 18.0157 9.97969 17.9732 9.93719 17.9732L9.76719 17.8457C9.72469 17.8882 9.68219 17.9307 9.68219 17.9732C9.68219 18.0157 9.63969 18.0582 9.59719 18.1007C9.55469 18.1432 9.55469 18.1857 9.55469 18.2707V18.4407C9.55469 18.5257 9.55469 18.6107 9.59719 18.6957C9.63969 18.7807 9.68219 18.8232 9.72469 18.9082C9.76719 18.9932 9.85219 18.9932 9.89469 19.0357C9.93719 19.0782 10.0222 19.0782 10.1072 19.0782C10.1922 19.0782 10.2347 19.0782 10.2772 19.0357C10.3197 18.9932 10.3622 18.9932 10.4047 18.9507C10.4472 18.9082 10.4897 18.8657 10.4897 18.8232C10.5322 18.7807 10.5322 18.7382 10.5322 18.6957C10.5322 18.6532 10.5747 18.6107 10.5747 18.5682C10.5747 18.5257 10.6172 18.4832 10.6172 18.4407C10.6172 18.3982 10.6597 18.3557 10.6597 18.3557C10.7022 18.3132 10.7022 18.3132 10.7447 18.3132C10.7872 18.3132 10.8297 18.3132 10.8722 18.3557C10.9147 18.3982 10.9147 18.4407 10.9147 18.5257V18.6532C10.9147 18.6957 10.8722 18.6957 10.8722 18.7382C10.8722 18.7807 10.8297 18.7807 10.8297 18.8232V18.8657V18.9082L10.8722 18.9507L11.0422 19.0357C11.0847 18.9932 11.0847 18.9507 11.1272 18.9507C11.1697 18.9082 11.1697 18.8657 11.1697 18.8232C11.1697 18.7807 11.2122 18.7382 11.2122 18.6957V18.5257C11.2122 18.4407 11.2122 18.3557 11.1697 18.2707C11.1272 18.1857 11.0847 18.1007 11.0422 18.0582Z" fill="black"/>
<path d="M16.6562 0.71875H17.5063V3.14125H16.6562V0.71875Z" fill="black"/>
<path d="M18.1016 1.78125H18.9516V3.48125H18.1016V1.78125Z" fill="black"/>
<path d="M15.2109 1.78125H16.0609V3.48125H15.2109V1.78125Z" fill="black"/>
<path d="M6.41281 11.5563L5.47781 7.60383C5.69031 7.05133 5.90281 6.32883 6.07281 5.43633C6.11531 5.13883 6.03031 4.84133 5.81781 4.62883C5.60531 4.41633 5.30781 4.37383 5.01031 4.45883C4.84031 4.50133 4.71281 4.54383 4.54281 4.58633C4.45781 4.11883 4.03281 3.73633 3.52281 3.73633C3.01281 3.73633 2.58781 4.07633 2.50281 4.58633C2.37531 4.54383 2.20531 4.50133 2.03531 4.45883C1.73781 4.37383 1.44031 4.45883 1.22781 4.62883C0.930313 4.79883 0.845313 5.09633 0.887813 5.39383C1.05781 6.28633 1.27031 7.00883 1.48281 7.56133L0.547813 11.5138C0.420312 12.1513 0.547813 12.7888 0.930313 13.2988L2.67281 15.6788C2.88531 15.9338 3.18281 16.1038 3.48031 16.1038C3.82031 16.1038 4.11781 15.9338 4.28781 15.6788L6.03031 13.2988C6.41281 12.8313 6.54031 12.1513 6.41281 11.5563ZM5.22281 5.22359C5.09531 5.77609 5.01031 6.24359 4.88281 6.66859C4.79781 6.58359 4.67031 6.54109 4.54281 6.49859V5.39359C4.75531 5.35109 4.96781 5.30859 5.22281 5.22359ZM3.48031 4.54359C3.60781 4.54359 3.69281 4.62859 3.69281 4.75609V6.32859H3.26781V4.75609C3.26781 4.62859 3.35281 4.54359 3.48031 4.54359ZM2.41781 5.39359V6.49859C2.29031 6.54109 2.20531 6.58359 2.07781 6.66859C1.95031 6.24359 1.82281 5.77609 1.73781 5.22359C1.99281 5.30859 2.20531 5.35109 2.41781 5.39359ZM5.35031 12.8308L3.60781 15.2108C3.56531 15.2533 3.52281 15.2958 3.48031 15.2958C3.43781 15.2958 3.39531 15.2958 3.35281 15.2108L1.61031 12.8308C1.39781 12.5333 1.31281 12.1083 1.39781 11.7258L2.33281 7.77334C2.41781 7.43334 2.71531 7.17834 3.05531 7.17834H3.90531C4.24531 7.17834 4.54281 7.43334 4.62781 7.77334L5.56281 11.7258C5.64781 12.1083 5.56281 12.5333 5.35031 12.8308Z" fill="black"/>
<path d="M3.05469 0.71875H3.90469V3.14125H3.05469V0.71875Z" fill="black"/>
<path d="M1.60938 1.78125H2.45938V3.48125H1.60938V1.78125Z" fill="black"/>
<path d="M4.5 1.78125H5.35V3.48125H4.5V1.78125Z" fill="black"/>
</svg>