<svg width="38" height="38" viewBox="0 0 31 33" fill="none" xmlns="http://www.w3.org/2000/svg">
<path d="M29.5144 12.651H4.30307C4.3477 6.64037 9.30835 1.75756 15.404 1.75756C19.3062 1.75756 22.8513 3.72329 24.8853 7.0121C25.1085 7.37752 25.5931 7.49093 25.9565 7.26411C26.32 7.0436 26.4347 6.57107 26.2116 6.20565C23.8906 2.46321 19.8481 0.226562 15.404 0.226562C8.45395 0.226562 2.79191 5.79612 2.74728 12.651H1.29352C0.866314 12.651 0.515625 12.9975 0.515625 13.4196V31.716C0.515625 32.1381 0.866314 32.4846 1.29352 32.4846H29.5144C29.9416 32.4846 30.2923 32.1381 30.2923 31.716V13.4196C30.2923 12.9912 29.9416 12.651 29.5144 12.651ZM28.7365 30.9473H2.07141V14.1883H28.7365V30.9473Z" fill="black"/>
<path d="M14.642 23.1654V26.7465C14.642 27.1726 14.9866 27.5225 15.4064 27.5225C15.8263 27.5225 16.1709 27.1726 16.1709 26.7465V23.1654C17.5118 22.8156 18.5082 21.5944 18.5082 20.1251C18.5082 18.3886 17.1171 16.9766 15.4064 16.9766C13.6958 16.9766 12.3047 18.3886 12.3047 20.1251C12.3047 21.5944 13.301 22.822 14.642 23.1654ZM15.4064 18.5349C16.2712 18.5349 16.9792 19.2537 16.9792 20.1314C16.9792 21.0092 16.2712 21.7279 15.4064 21.7279C14.5417 21.7279 13.8336 21.0156 13.8336 20.1314C13.8336 19.2537 14.5354 18.5349 15.4064 18.5349Z" fill="black"/>
</svg>