<svg width="38" height="38" viewBox="0 0 34 34" fill="none" xmlns="http://www.w3.org/2000/svg">
<path d="M14.6941 1.57507C13.2704 2.82987 10.8847 3.80299 9.23012 3.81579C8.75556 3.81579 8.66577 3.86701 8.55034 4.1615C8.34512 4.66086 8.25534 7.32412 8.39642 8.13078L8.52469 8.7966L5.30532 8.83501C2.15009 8.87342 2.07313 8.87342 1.64987 9.18072C0.828992 9.76971 0.86747 9.27035 0.86747 21.127C0.86747 31.6008 0.880296 31.9337 1.12399 32.3306C1.64987 33.2013 0.572469 33.1501 17.0156 33.1116C31.8042 33.0732 31.8939 33.0732 32.2402 32.8043C32.4326 32.6635 32.7148 32.3818 32.8559 32.1897C33.1253 31.844 33.1253 31.7416 33.1253 20.9989V10.1538L32.8302 9.7313C32.2146 8.88623 32.2018 8.87342 27.238 8.83501L22.7745 8.7966L22.8387 8.32285C23.108 6.6199 23.0182 4.43039 22.6719 4.00785C22.595 3.91822 22.0306 3.77738 21.4021 3.70055C19.4269 3.45728 18.0802 2.84268 16.6565 1.57507C16.2204 1.19094 15.7843 0.870842 15.6817 0.870842C15.5919 0.870842 15.143 1.19094 14.6941 1.57507ZM15.1045 5.86445V9.19353H12.3597C10.128 9.19353 9.60208 9.15511 9.55078 9.01427C9.35839 8.51491 9.19165 6.24858 9.29425 5.54435L9.39686 4.7761L10.2049 4.68647C11.603 4.53282 13.0908 3.93103 14.3991 2.99633C14.7454 2.74024 15.0532 2.53538 15.066 2.53538C15.0917 2.53538 15.1045 4.03346 15.1045 5.86445ZM18.17 3.80299C19.055 4.25113 20.6711 4.71208 21.3508 4.71208C21.6971 4.71208 21.7998 4.7761 21.9152 5.05779C22.0819 5.49313 21.9921 7.74666 21.7741 8.57893L21.6202 9.19353H18.8754H16.1306V5.85165V2.50977L16.7463 2.95791C17.0797 3.20119 17.721 3.58532 18.17 3.80299ZM8.94795 10.538C9.06338 10.8965 9.29425 11.4214 9.44817 11.7159L9.71752 12.2537L5.80554 12.2921L1.89356 12.3305V11.2806C1.89356 9.75691 1.73965 9.82093 5.60032 9.85934L8.7299 9.89775L8.94795 10.538ZM31.9196 10.2051C32.1505 10.4867 32.1633 10.7684 32.1633 14.9682V19.4368H31.5861H31.0089V16.4535C31.0089 13.7006 30.9833 13.4573 30.7524 13.0604C30.2907 12.3049 30.047 12.2665 25.5578 12.2665C23.3389 12.2665 21.5176 12.2409 21.5176 12.2153C21.5176 12.1897 21.71 11.7544 21.9537 11.2294C22.1845 10.7044 22.4154 10.1794 22.4539 10.0514C22.5308 9.83373 22.813 9.82093 27.1098 9.85934L31.6759 9.89775L31.9196 10.2051ZM15.1045 13.7006V17.1961L13.9373 16.0437C12.4495 14.5713 11.2695 13.022 10.5512 11.5623C10.2306 10.9221 9.97404 10.3715 9.97404 10.3075C9.97404 10.2563 11.1284 10.2179 12.5393 10.2179H15.1045V13.7006ZM21.1969 10.4995C21.043 11.0117 20.1067 12.6763 19.5039 13.5213C18.8754 14.392 16.7463 16.6839 16.3615 16.8888C16.1434 17.004 16.1306 16.8632 16.1306 13.611V10.2179H18.7087H21.2739L21.1969 10.4995ZM10.936 14.2127C11.6927 15.2883 13.7065 17.3626 14.7454 18.1436C15.3225 18.579 15.5534 18.6814 15.7971 18.6174C16.2717 18.5021 19.1063 15.7108 20.0811 14.4176L20.9148 13.2908H25.1987C27.905 13.2908 29.5724 13.3421 29.7391 13.4189C29.97 13.5469 29.9828 13.7262 29.9828 16.4791V19.4112L27.4561 19.4624C24.6343 19.5137 24.2367 19.6161 23.2619 20.4612C22.4795 21.1526 22.1076 22.0105 22.1076 23.15C22.1076 24.328 22.4282 25.0706 23.2491 25.8261C24.2239 26.7224 24.4676 26.7736 27.392 26.8376L29.9828 26.8888V29.5009V32.1129H16.0921C5.45923 32.1129 2.16291 32.0745 2.04748 31.9593C1.82943 31.7416 1.82943 24.1488 2.04748 23.7902C2.17574 23.5854 2.17574 23.4829 2.04748 23.2781C1.82943 22.9196 1.81661 13.675 2.04748 13.4445C2.16291 13.3293 3.26596 13.2908 6.25446 13.2908L10.2947 13.3037L10.936 14.2127ZM32.1633 23.2909V25.9797L28.6104 25.9029C25.4167 25.8261 24.9806 25.7877 24.4932 25.5572C22.6206 24.6737 22.6078 21.7928 24.4804 20.8709C25.0191 20.602 25.2115 20.5892 28.6104 20.5892H32.1633V23.2909ZM32.1633 29.1936C32.1633 31.4087 32.1505 31.5367 31.8811 31.8184C31.7272 31.9849 31.4707 32.1129 31.3039 32.1129H31.0089V29.4881V26.8632H31.5861H32.1633V29.1936Z" fill="black"/>
<path d="M5.24856 24.517C4.92044 24.7045 4.88919 25.142 5.15481 25.4076C5.68606 25.9388 6.38919 25.2982 5.96731 24.6888C5.70169 24.2982 5.62356 24.2826 5.24856 24.517Z" fill="black"/>
<path d="M6.93368 24.6888C6.5118 25.2982 7.21493 25.9388 7.74618 25.4076C8.02743 25.1263 7.96493 24.6888 7.6368 24.5013C7.23055 24.2826 7.1993 24.2982 6.93368 24.6888Z" fill="black"/>
<path d="M8.79513 24.593C8.49826 24.9055 8.54513 25.2649 8.92013 25.4992C9.23263 25.7024 9.70138 25.468 9.77951 25.093C9.82638 24.843 9.42013 24.343 9.18576 24.343C9.10763 24.343 8.93576 24.4524 8.79513 24.593Z" fill="black"/>
<path d="M10.591 24.5779C10.216 25.0311 10.716 25.7498 11.2785 25.5467C11.7472 25.3592 11.4972 24.3436 10.966 24.3436C10.8722 24.3436 10.7003 24.4529 10.591 24.5779Z" fill="black"/>
<path d="M12.4011 24.6405C11.8855 25.203 12.6823 25.9374 13.2136 25.4061C13.4948 25.1249 13.4323 24.6874 13.1042 24.4999C12.7136 24.2968 12.7136 24.2968 12.4011 24.6405Z" fill="black"/>
<path d="M14.308 24.5156C13.7924 24.8125 14.0736 25.5938 14.683 25.5938C14.9174 25.5938 15.2767 25.1719 15.2767 24.9062C15.2767 24.7969 14.7924 24.3438 14.683 24.3438C14.6205 24.3438 14.4486 24.4219 14.308 24.5156Z" fill="black"/>
<path d="M16.094 24.5307C15.594 25.0307 16.094 25.7495 16.7502 25.4995C17.219 25.3276 16.969 24.3432 16.4534 24.3432C16.3596 24.3432 16.2034 24.4214 16.094 24.5307Z" fill="black"/>
<path d="M17.8688 24.5951C17.572 24.8763 17.572 24.9076 17.7751 25.2982C17.9626 25.6263 18.4001 25.6888 18.6813 25.4076C18.9626 25.1263 18.9001 24.6888 18.572 24.5013C18.1813 24.2982 18.1501 24.2982 17.8688 24.5951Z" fill="black"/>
<path d="M19.7767 24.5156C19.2611 24.8125 19.5424 25.5938 20.1517 25.5938C20.2924 25.5938 20.4955 25.4531 20.5892 25.2656C20.7299 25.0156 20.7142 24.875 20.4955 24.6406C20.183 24.2969 20.1517 24.2969 19.7767 24.5156Z" fill="black"/>
<path d="M27.9531 22.7487C27.375 23.0612 26.8438 23.8894 26.8438 24.4675C26.8438 25.9987 28.5781 27.0144 29.9688 26.2956C30.7031 25.905 31.1406 24.8581 30.8906 23.9831C30.5469 22.7487 29.0781 22.1237 27.9531 22.7487ZM29.5625 23.9675C30.1875 24.5769 29.6562 25.3581 28.6719 25.2956C28.2656 25.2644 28 24.5925 28.2188 24.1081C28.4375 23.655 29.1719 23.5612 29.5625 23.9675Z" fill="black"/>
</svg>