<svg width="38" height="38" viewBox="0 0 24 28" fill="none" xmlns="http://www.w3.org/2000/svg">
                                            <path d="M23.0665 14.0182C23.0684 13.798 22.957 13.5921 22.7714 13.4731L18.7992 10.8827L22.7714 8.29231C22.9587 8.17505 23.0723 7.96976 23.0723 7.74889C23.0723 7.52785 22.9587 7.32256 22.7714 7.20533L12.4864 0.492267C12.2739 0.35414 11.9999 0.35414 11.7874 0.492267L1.24597 7.15773C1.06079 7.27915 0.947904 7.48445 0.944679 7.70585C0.942402 7.92803 1.05529 8.13541 1.24275 8.25418L5.30492 10.8575L1.2462 13.4223H1.24601C1.05438 13.5386 0.9375 13.7464 0.9375 13.9706C0.9375 14.1947 1.05437 14.4025 1.24601 14.5188L5.25674 17.0836L1.24601 19.6228C1.05419 19.7427 0.939778 19.9546 0.944713 20.1806C0.942436 20.4027 1.05532 20.6101 1.24278 20.7289L11.7779 27.4837C11.8821 27.5511 12.0035 27.5867 12.1274 27.5864C12.2549 27.5877 12.3799 27.5507 12.4866 27.4805L22.7716 20.7674C22.9588 20.6502 23.0725 20.4449 23.0725 20.2239C23.0725 20.003 22.9588 19.7977 22.7716 19.6804L18.8505 17.1156L22.7716 14.5508C22.9533 14.4343 23.0641 14.2343 23.0666 14.0186L23.0665 14.0182ZM1.99617 7.70882L12.1243 1.2969L22.0212 7.7603L12.1243 14.2043L1.99617 7.70882ZM22.0212 20.2126L12.1243 26.676L1.99617 20.1839L6.05815 17.6191L11.7779 21.2771C11.8817 21.3456 12.0031 21.3824 12.1274 21.383C12.2547 21.3822 12.3792 21.3456 12.4866 21.2771L18.0587 17.6382L22.0212 20.2126ZM12.1243 20.4626L1.99617 13.9803L6.10959 11.3737L11.7779 15.0094C11.9919 15.1504 12.2693 15.1504 12.4833 15.0094L18.0073 11.4026L22.0213 14.0188L12.1243 20.4626Z" fill="black"></path>
                                        </svg>