<svg width="38" height="38" viewBox="0 0 28 28" fill="none" xmlns="http://www.w3.org/2000/svg">
<path d="M10.8013 27.588C13.755 27.588 16.5813 26.3343 18.5577 24.1243C18.6002 24.1031 18.6214 24.0606 18.6427 24.0181C19.9177 22.5518 20.7677 20.7456 21.0864 18.8331C20.9801 18.7481 20.8739 18.6418 20.8101 18.5356C20.7251 18.4293 20.5764 18.1743 20.3426 17.8343C20.2151 19.8106 19.4501 21.723 18.1751 23.2529C17.4314 22.8492 16.6451 22.5304 15.8164 22.2967C16.2627 20.7667 16.4964 19.1942 16.5389 17.6004H20.1939C20.0239 17.3454 19.8539 17.0691 19.6626 16.7504H16.5389C16.5177 15.1991 16.2839 13.6479 15.8589 12.1391C16.2202 12.0329 16.5602 11.9054 16.9002 11.7779C16.7727 11.5229 16.6664 11.2679 16.5389 11.0129C16.2414 11.1404 15.9014 11.2466 15.5827 11.3316C15.0727 9.95033 14.3927 8.8241 13.5852 8.03788C14.3502 8.27163 15.0727 8.59038 15.7739 9.01538C15.6464 8.63288 15.5401 8.25038 15.4551 7.86788C10.3124 5.2966 4.06513 7.37915 1.49376 12.5004C-0.397514 16.2829 0.17626 20.8304 2.96004 24.0176C2.98129 24.0601 3.00254 24.0814 3.04504 24.1239C5.02131 26.3339 7.84754 27.5876 10.8014 27.5876L10.8013 27.588ZM1.25991 17.6008H5.08491C5.10616 19.1945 5.33991 20.7671 5.80741 22.2971C4.99991 22.5308 4.19241 22.8496 3.44869 23.2533C2.10996 21.6596 1.34496 19.6621 1.25996 17.6006L1.25991 17.6008ZM3.38491 11.1622C4.14991 11.5659 4.93619 11.9059 5.76491 12.1397C5.33991 13.6272 5.10619 15.1784 5.08491 16.7509H1.25991C1.34491 14.7109 2.08864 12.7559 3.38491 11.1623V11.1622ZM10.3763 7.65589V12.0122C9.18629 11.9909 8.01756 11.8422 6.87001 11.5872C7.69874 9.39844 8.95251 7.91089 10.3763 7.65589ZM10.3763 12.8623V16.751H5.91379C5.93504 15.2635 6.16879 13.7973 6.59379 12.3735C7.82629 12.671 9.10129 12.8198 10.3763 12.8623ZM6.89129 22.8709C8.03879 22.6159 9.18629 22.4671 10.3763 22.4459V26.6959C8.97379 26.4409 7.72001 24.9959 6.89129 22.8709ZM11.2263 26.6959V22.4459C12.395 22.4671 13.5638 22.6159 14.7113 22.8709C13.8826 24.9959 12.6288 26.4409 11.2263 26.6959ZM10.3763 21.5959C9.10129 21.6171 7.84756 21.7871 6.61501 22.0634C6.16876 20.6184 5.93501 19.1097 5.91374 17.6009H10.3762L10.3763 21.5959ZM4.02266 23.9122C4.68138 23.5722 5.36138 23.3172 6.06266 23.1047C6.48766 24.3159 7.14638 25.4209 8.03893 26.3347C6.50893 25.8672 5.12766 25.0384 4.02266 23.9122ZM17.5799 23.9122C16.4749 25.0384 15.0936 25.8672 13.5849 26.3347C14.4562 25.4209 15.1362 24.3159 15.5612 23.1047C16.2625 23.2959 16.9425 23.5722 17.5799 23.9122ZM14.9874 22.0634C13.7549 21.7659 12.5011 21.6172 11.2261 21.5959V17.6009H15.6886C15.6674 19.1097 15.4124 20.6184 14.9874 22.0634H14.9874ZM15.6887 16.7507H11.2262V12.8407C12.5012 12.8194 13.7762 12.6494 15.0087 12.3732C15.4337 13.7969 15.6674 15.2632 15.6887 16.7507ZM11.2262 11.9907V7.65569C12.6499 7.91069 13.9037 9.39819 14.7325 11.5657C13.585 11.8207 12.4162 11.9694 11.2262 11.9907ZM8.01746 8.01697C7.20996 8.80324 6.52996 9.95069 6.01996 11.332C5.29746 11.1195 4.61746 10.8432 3.95869 10.5032C5.08496 9.35574 6.48746 8.50574 8.01746 8.01697Z" fill="black"/>
<path d="M21.8544 0.386719C18.7944 0.386719 16.1172 3.17044 16.1172 6.35809C16.1172 10.0981 21.2808 17.7267 21.4936 18.0453C21.5786 18.1516 21.7061 18.2366 21.8548 18.2366C22.0036 18.2366 22.1311 18.1516 22.2161 18.0453C22.4286 17.7053 27.5924 9.69398 27.5924 6.35809C27.5924 3.17059 24.9149 0.386719 21.8552 0.386719H21.8544ZM21.8544 17.0253C20.6644 15.2191 16.9672 9.31172 16.9672 6.35809C16.9672 3.63809 19.2409 1.23672 21.8544 1.23672C24.468 1.23672 26.7417 3.63799 26.7417 6.35809C26.7417 8.97182 23.023 15.1553 21.8544 17.0253Z" fill="black"/>
<path d="M21.8547 2.51172C19.8572 2.51172 18.2422 4.12672 18.2422 6.12422C18.2422 8.12172 19.8572 9.73672 21.8547 9.73672C23.8522 9.73672 25.4672 8.12172 25.4672 6.12422C25.4672 4.12672 23.8522 2.51172 21.8547 2.51172ZM21.8547 8.88672C20.3247 8.88672 19.0922 7.65422 19.0922 6.12422C19.0922 4.59422 20.3247 3.36172 21.8547 3.36172C23.3847 3.36172 24.6172 4.59422 24.6172 6.12422C24.6172 7.65422 23.3847 8.88672 21.8547 8.88672Z" fill="black"/>
</svg>