<svg width="38" height="38" viewBox="0 0 22 37" fill="none" xmlns="http://www.w3.org/2000/svg">
                            <path d="M7.18147 31.1719V33.0343C7.18231 33.2011 7.24983 33.3607 7.36897 33.4774L9.61454 35.7106C9.96917 36.053 10.4427 36.2447 10.9357 36.2447C11.4284 36.2447 11.9022 36.053 12.2565 35.7106L14.5004 33.4794H14.5001C14.6193 33.3625 14.6868 33.2031 14.6876 33.0363V21.212C17.9334 20.0276 20.4287 17.3789 21.4175 14.0684C22.4067 10.7579 21.773 7.17443 19.7091 4.40343C17.645 1.63279 14.393 0 10.9377 0C7.48262 0 4.23069 1.63279 2.16626 4.40343C0.102118 7.17436 -0.53131 10.7578 0.457832 14.0684C1.44669 17.379 3.9419 20.0277 7.18748 21.212V23.1026C7.18776 23.2455 7.23658 23.3842 7.32643 23.4952L8.16407 24.534L7.28907 25.8591H7.28879C7.22155 25.9612 7.18583 26.0806 7.18583 26.2028V28.0717V28.0714C7.18583 28.2143 7.23466 28.3529 7.3245 28.464L8.16215 29.5028L7.28715 30.8278C7.21879 30.9297 7.18223 31.0491 7.1814 31.1716L7.18147 31.1719ZM7.99397 20.1719C5.0319 19.2301 2.70125 16.9244 1.72833 13.9721C0.755397 11.0201 1.2579 7.78064 3.07961 5.26207C4.90133 2.74364 7.82068 1.25229 10.9289 1.25229C14.0371 1.25229 16.9565 2.74364 18.7782 5.26207C20.5999 7.78079 21.1024 11.0201 20.1295 13.9721C19.1565 16.9244 16.8259 19.2301 13.8638 20.1719C13.6038 20.2536 13.4266 20.4947 13.4263 20.7676V32.774L11.5513 34.6389V25.6275C11.5513 25.2823 11.2715 25.0025 10.9263 25.0025C10.5812 25.0025 10.3013 25.2823 10.3013 25.6275V34.6389L8.42633 32.774V31.3591L9.44811 29.8091C9.59767 29.582 9.58343 29.2843 9.41268 29.0728L8.43139 27.851V26.3903L9.45318 24.8404C9.60273 24.6133 9.5885 24.3156 9.41774 24.1041L8.43138 22.8823V20.7653C8.4311 20.4925 8.25393 20.2514 7.99388 20.1696L7.99397 20.1719Z" fill="black"/>
                            <path d="M11.5547 23.1289C11.5547 23.474 11.2748 23.7539 10.9297 23.7539C10.5845 23.7539 10.3047 23.474 10.3047 23.1289C10.3047 22.7838 10.5845 22.5039 10.9297 22.5039C11.2748 22.5039 11.5547 22.7838 11.5547 23.1289Z" fill="black"/>
                            <path d="M10.305 20.6276C10.305 20.9727 10.5849 21.2526 10.93 21.2526C11.2752 21.2526 11.555 20.9727 11.555 20.6276V19.3533C13.6859 19.2149 15.6825 18.266 17.1357 16.7015C18.5885 15.1368 19.3871 13.0751 19.3675 10.9401C19.0963 -0.259194 2.81465 -0.284194 2.49251 10.9401C2.47381 13.0743 3.27294 15.1346 4.72579 16.6979C6.17894 18.261 8.17529 19.2084 10.305 19.3457V20.6276ZM3.75815 11.2526H5.34887C5.5146 11.2526 5.67337 11.1867 5.79055 11.0696L7.65498 9.20513C8.20381 9.46098 8.84162 9.4409 9.37319 9.151C9.90472 8.86082 10.2669 8.33543 10.3486 7.73557C10.4307 7.13568 10.2225 6.53243 9.78779 6.11086C9.35337 5.68898 8.7443 5.49869 8.14715 5.5983C7.54977 5.69791 7.03529 6.0757 6.76129 6.61558C6.4873 7.15548 6.48618 7.79358 6.75822 8.3343L5.09001 10.0025H3.81015C4.04676 8.16544 4.98565 6.49166 6.42958 5.33144C7.87351 4.1713 9.7103 3.61551 11.5552 3.78008V9.7438L9.23315 12.0649C8.98315 11.9427 8.7086 11.8786 8.43015 11.8774C7.93295 11.8774 7.4558 12.075 7.1043 12.4265C6.7528 12.7781 6.55519 13.2553 6.55519 13.7524C6.55519 14.2495 6.75273 14.7268 7.1043 15.0783C7.45586 15.4298 7.93301 15.6274 8.43015 15.6274C8.9273 15.6274 9.40451 15.4298 9.75601 15.0783C10.1075 14.7267 10.3051 14.2495 10.3051 13.7524C10.304 13.4739 10.2398 13.1994 10.1176 12.9494L12.6226 10.4444C12.7395 10.3269 12.8051 10.1682 12.8051 10.0024V4.00244C14.8556 4.55211 16.5579 5.98066 17.455 7.9048C18.352 9.82894 18.352 12.051 17.455 13.9751C16.5579 15.8992 14.8556 17.3278 12.8051 17.8774V15.8861L14.5012 14.1899C14.7518 14.3121 15.0264 14.3763 15.3051 14.3774C15.8567 14.3822 16.3827 14.1459 16.7454 13.7304C17.1081 13.3149 17.2713 12.7617 17.1924 12.2159C17.1131 11.6701 16.7998 11.186 16.3341 10.8905C15.8684 10.5951 15.2967 10.5175 14.7694 10.6785C14.2417 10.8395 13.8109 11.2228 13.5894 11.7281C13.3681 12.2331 13.3784 12.8099 13.6175 13.3068L11.7389 15.1855C11.6214 15.3027 11.5553 15.4617 11.555 15.6274V18.0998C11.3525 18.1174 11.1443 18.1274 10.93 18.1274C9.07932 18.1252 7.30111 17.4092 5.96518 16.1286C4.62925 14.8479 3.83853 13.1012 3.75818 11.2524L3.75815 11.2526ZM7.80501 7.50259C7.80501 7.2498 7.95735 7.02184 8.19089 6.92531C8.42442 6.82849 8.69312 6.88178 8.87197 7.06063C9.05083 7.23948 9.10412 7.50817 9.00729 7.74171C8.91075 7.97525 8.68279 8.12759 8.43001 8.12759C8.08487 8.12759 7.80501 7.84773 7.80501 7.50259ZM9.05501 13.7526C9.05501 14.0054 8.90267 14.2333 8.66913 14.3299C8.43559 14.4267 8.1669 14.3734 7.98804 14.1946C7.80919 14.0157 7.7559 13.747 7.85272 13.5135C7.94927 13.2799 8.17722 13.1276 8.43001 13.1276C8.59574 13.1276 8.75479 13.1934 8.87197 13.3106C8.98916 13.4278 9.05501 13.5869 9.05501 13.7526ZM14.68 12.5026C14.68 12.2498 14.8324 12.0218 15.0659 11.9253C15.2994 11.8285 15.5681 11.8818 15.747 12.0606C15.9258 12.2395 15.9791 12.5082 15.8823 12.7417C15.7858 12.9752 15.5578 13.1276 15.305 13.1276C14.9618 13.1226 14.685 12.8458 14.68 12.5026Z" fill="black"/>
                            </svg>