<svg width="60" height="60" viewBox="0 0 34 34" fill="none" xmlns="http://www.w3.org/2000/svg">
                                            <path d="M28.4723 17.5763V17.1513V16.8113L24.9023 15.9613L24.0948 12.6038C24.3073 12.0513 24.5198 11.3288 24.6898 10.4363C24.7323 10.1388 24.6473 9.84133 24.4348 9.62883C24.2223 9.41633 23.9248 9.37383 23.6273 9.45883C23.4573 9.50133 23.3298 9.54383 23.1598 9.58633C23.0748 9.11883 22.6498 8.73633 22.1398 8.73633C21.6298 8.73633 21.2048 9.07633 21.1198 9.58633C20.9923 9.54383 20.8223 9.50133 20.6523 9.45883C20.3548 9.37383 20.0573 9.45883 19.8448 9.62883C19.5473 9.79883 19.4623 10.0963 19.5473 10.3938C19.7173 11.2863 19.9298 12.0088 20.1423 12.5613L19.2073 16.5138C19.0373 17.1513 19.2073 17.7888 19.5473 18.2988L21.1623 20.5088C21.5873 21.7413 22.4798 23.0163 24.4773 23.9513L24.6473 24.0363L24.8173 23.9513C28.5573 22.2088 28.5148 19.3188 28.4723 17.5763ZM23.1596 10.3936C23.3721 10.3511 23.5846 10.3086 23.8396 10.2236C23.7121 10.7761 23.6271 11.2436 23.4996 11.6686C23.4146 11.5836 23.2871 11.5411 23.1596 11.4986V10.3936ZM21.8846 9.75609C21.8846 9.62859 21.9696 9.54359 22.0971 9.54359C22.2246 9.54359 22.3096 9.62859 22.3096 9.75609V11.3286H21.8846V9.75609ZM21.0346 10.3936V11.4986C20.9071 11.5411 20.8221 11.6261 20.6946 11.6686C20.5671 11.2436 20.4396 10.7761 20.3546 10.2236C20.6096 10.3086 20.8221 10.3511 21.0346 10.3936ZM24.6471 23.1436C21.5871 21.6136 21.6296 19.3186 21.6721 17.5763V17.4913L24.6471 16.7688L27.6221 17.4913V17.5763C27.6221 19.2763 27.7071 21.6138 24.6471 23.1436Z" fill="black"></path>
                                            <path d="M24.607 19.8722L23.8845 19.1922L23.332 19.8297L24.6495 21.0197L26.5195 19.1497L25.882 18.5547L24.607 19.8722Z" fill="black"></path>
                                            <path d="M17.9765 16.1314C17.9765 16.0889 17.9765 16.0889 17.934 16.0464C18.359 15.0264 18.6565 13.6664 18.8265 12.6464C18.869 12.3064 18.784 12.0089 18.529 11.7964C18.274 11.5839 17.9765 11.4989 17.6365 11.6264C17.2965 11.7539 16.829 11.8814 16.319 11.9664V11.7539C16.319 11.1589 15.8515 10.6914 15.2565 10.6914C14.6615 10.6914 14.194 11.1589 14.194 11.7539V11.9664C13.684 11.8814 13.2165 11.7539 12.8765 11.6264C12.579 11.5414 12.239 11.5839 11.984 11.7964C11.729 12.0089 11.6015 12.3489 11.6865 12.6464C11.8565 13.6239 12.1965 14.9839 12.579 16.0464C12.579 16.0889 12.579 16.0889 12.5365 16.1314L11.2615 21.8687C11.049 22.7187 11.2615 23.6112 11.7715 24.2912L14.279 27.6912C14.534 28.0312 14.874 28.2437 15.299 28.2437C15.724 28.2437 16.064 28.0312 16.319 27.7337L18.8265 24.3337C19.3365 23.6112 19.5065 22.7612 19.3365 21.9112L17.9765 16.1314ZM15.0865 11.7539C15.0865 11.6264 15.1715 11.5414 15.299 11.5414C15.4265 11.5414 15.5115 11.6264 15.5115 11.7539V14.5164H15.0865V11.7539ZM18.1465 23.7812L15.639 27.1812C15.469 27.3937 15.129 27.3937 14.959 27.1812L12.4515 23.7812C12.069 23.2712 11.9415 22.6337 12.1115 22.0387L13.429 16.3437C13.5565 15.7487 14.0665 15.3662 14.6615 15.3662H15.894C16.489 15.3662 16.999 15.7912 17.1265 16.3437L18.4865 22.0809C18.6565 22.6759 18.4865 23.3134 18.1465 23.7809V23.7812Z" fill="black"></path>
                                            <path d="M14.7472 18.9366C14.8322 19.0216 14.9172 19.0641 15.0022 19.1066C15.0872 19.1491 15.2147 19.1916 15.3422 19.1916C15.4697 19.1916 15.5972 19.1916 15.6822 19.1066C15.7672 19.0641 15.8947 19.0216 15.9372 18.9366C15.9797 18.8516 16.0647 18.7666 16.1072 18.6391C16.1497 18.5116 16.1922 18.4266 16.1922 18.2566V17.6191H14.4922V18.2991C14.4922 18.4266 14.4922 18.5541 14.5772 18.6816C14.6197 18.7666 14.6622 18.8516 14.7472 18.9366ZM14.7897 18.0441H15.8947V18.2991C15.8947 18.3841 15.8947 18.4266 15.8522 18.5116C15.8097 18.5966 15.8097 18.6391 15.7247 18.6816C15.6822 18.7241 15.6397 18.7666 15.5547 18.7666C15.4697 18.8091 15.4272 18.8091 15.3422 18.8091C15.2572 18.8091 15.1722 18.8091 15.1297 18.7666C15.0447 18.7241 15.0022 18.7241 14.9597 18.6816C14.9172 18.6391 14.8747 18.5966 14.8322 18.5116C14.7897 18.4266 14.7897 18.3841 14.7897 18.2991V18.0441Z" fill="black"></path>
                                            <path d="M14.7472 20.6784C14.8322 20.7634 14.9172 20.8059 15.0022 20.8484C15.0872 20.8909 15.2147 20.9334 15.3422 20.9334C15.4697 20.9334 15.5972 20.9334 15.6822 20.8484C15.7672 20.8059 15.8947 20.7634 15.9372 20.6784C15.9797 20.5934 16.0647 20.5084 16.1072 20.3809C16.1497 20.2534 16.1922 20.1684 16.1922 19.9984V19.3184H14.4922V19.9984C14.4922 20.1259 14.4922 20.2534 14.5772 20.3809C14.6197 20.5084 14.6622 20.5934 14.7472 20.6784ZM14.7897 19.7434H15.8947V19.9984C15.8947 20.0834 15.8947 20.1259 15.8522 20.2109C15.8097 20.2959 15.8097 20.3384 15.7247 20.3809C15.6822 20.4234 15.6397 20.4659 15.5547 20.4659C15.4697 20.5084 15.4272 20.5084 15.3422 20.5084C15.2572 20.5084 15.1722 20.5084 15.1297 20.4659C15.0447 20.4234 15.0022 20.4234 14.9597 20.3809C14.9172 20.3384 14.8747 20.2959 14.8322 20.2109C14.7897 20.1259 14.7897 20.0834 14.7897 19.9984V19.7434Z" fill="black"></path>
                                            <path d="M15.9792 21.232C15.8942 21.147 15.8092 21.1045 15.7242 21.062C15.5967 21.0195 15.4692 21.0195 15.3417 21.0195C15.2142 21.0195 15.0867 21.0195 15.0017 21.062C14.9167 21.1045 14.7892 21.147 14.7042 21.232C14.6192 21.317 14.5767 21.402 14.5342 21.5295C14.4917 21.657 14.4492 21.742 14.4492 21.912C14.4492 22.0395 14.4917 22.167 14.5342 22.2945C14.5767 22.422 14.6192 22.507 14.7042 22.592C14.7892 22.677 14.8742 22.7195 15.0017 22.762C15.1292 22.8045 15.2142 22.8045 15.3417 22.8045C15.4692 22.8045 15.5967 22.8045 15.6817 22.762C15.7667 22.7195 15.8942 22.677 15.9367 22.592C16.0217 22.507 16.0642 22.422 16.1067 22.2945C16.1492 22.167 16.1917 22.082 16.1917 21.912C16.1917 21.7845 16.1492 21.657 16.1067 21.5295C16.1067 21.402 16.0642 21.317 15.9792 21.232ZM15.8517 22.082C15.8092 22.1245 15.8092 22.2095 15.7242 22.252C15.6817 22.2945 15.6392 22.337 15.5542 22.337C15.4692 22.3795 15.4267 22.3795 15.3417 22.3795C15.2567 22.3795 15.1717 22.3795 15.1292 22.337C15.0442 22.2945 15.0017 22.2945 14.9592 22.252C14.9167 22.2095 14.8742 22.167 14.8317 22.082C14.7892 22.0395 14.7892 21.9545 14.7892 21.8695C14.7892 21.7845 14.7892 21.742 14.8317 21.657C14.8742 21.6145 14.8742 21.5295 14.9592 21.487C15.0017 21.4445 15.0442 21.402 15.1292 21.402C15.2142 21.3595 15.2567 21.3595 15.3417 21.3595C15.4267 21.3595 15.5117 21.3595 15.5542 21.402C15.6392 21.4445 15.6817 21.4445 15.7242 21.487C15.7667 21.5295 15.8092 21.572 15.8517 21.657C15.8942 21.742 15.8942 21.7845 15.8942 21.8695C15.8942 21.9545 15.8942 22.0395 15.8517 22.082Z" fill="black"></path>
                                            <path d="M16.0656 23.0582C16.0231 23.0157 15.9806 22.9732 15.8956 22.9307C15.8531 22.8882 15.7681 22.8882 15.7256 22.8882C15.6406 22.8882 15.5981 22.8882 15.5131 22.9307C15.4706 22.9732 15.4281 22.9732 15.3856 23.0157C15.3431 23.0582 15.3006 23.1007 15.3006 23.1432C15.2581 23.1857 15.2581 23.2282 15.2581 23.2707C15.2581 23.3132 15.2156 23.3557 15.2156 23.3982C15.2156 23.4407 15.1731 23.4832 15.1731 23.5257C15.1731 23.5682 15.1306 23.6107 15.1306 23.6107C15.0881 23.6532 15.0881 23.6532 15.0456 23.6532C14.9606 23.6532 14.9181 23.6532 14.8756 23.6107C14.8331 23.5682 14.8331 23.5257 14.8331 23.4407C14.8331 23.3982 14.8331 23.3557 14.8756 23.3132C14.8756 23.2707 14.9181 23.2282 14.9181 23.2282C14.9181 23.1857 14.9606 23.1857 14.9606 23.1432C14.9606 23.1007 15.0031 23.1007 15.0031 23.0582V23.0157C15.0031 23.0157 15.0031 22.9732 14.9606 22.9732L14.7906 22.8457C14.7481 22.8882 14.7056 22.9307 14.7056 22.9732C14.7056 23.0157 14.6631 23.0582 14.6206 23.1007C14.5781 23.1432 14.5781 23.1857 14.5781 23.2707V23.4407C14.5781 23.5257 14.5781 23.6107 14.6206 23.6957C14.6631 23.7807 14.7056 23.8232 14.7481 23.9082C14.7906 23.9932 14.8756 23.9932 14.9181 24.0357C14.9606 24.0782 15.0456 24.0782 15.1306 24.0782C15.2156 24.0782 15.2581 24.0782 15.3006 24.0357C15.3431 23.9932 15.3856 23.9932 15.4281 23.9507C15.4706 23.9082 15.5131 23.8657 15.5131 23.8232C15.5556 23.7807 15.5556 23.7382 15.5556 23.6957C15.5556 23.6532 15.5981 23.6107 15.5981 23.5682C15.5981 23.5257 15.6406 23.4832 15.6406 23.4407C15.6406 23.3982 15.6831 23.3557 15.6831 23.3557C15.7256 23.3132 15.7256 23.3132 15.7681 23.3132C15.8106 23.3132 15.8531 23.3132 15.8956 23.3557C15.9381 23.3982 15.9381 23.4407 15.9381 23.5257V23.6532C15.9381 23.6957 15.8956 23.6957 15.8956 23.7382C15.8956 23.7807 15.8531 23.7807 15.8531 23.8232V23.8657V23.9082L15.8956 23.9507L16.0656 24.0357C16.1081 23.9932 16.1081 23.9507 16.1506 23.9507C16.1931 23.9082 16.1931 23.8657 16.1931 23.8232C16.1931 23.7807 16.2356 23.7382 16.2356 23.6957V23.5257C16.2356 23.4407 16.2356 23.3557 16.1931 23.2707C16.1506 23.1857 16.1081 23.1007 16.0656 23.0582Z" fill="black"></path>
                                            <path d="M21.6758 5.71875H22.5258V8.14125H21.6758V5.71875Z" fill="black"></path>
                                            <path d="M23.1172 6.78125H23.9672V8.48125H23.1172V6.78125Z" fill="black"></path>
                                            <path d="M20.2305 6.78125H21.0805V8.48125H20.2305V6.78125Z" fill="black"></path>
                                            <path d="M11.4317 16.5563L10.4967 12.6038C10.7092 12.0513 10.9217 11.3288 11.0917 10.4363C11.1342 10.1388 11.0492 9.84133 10.8367 9.62883C10.6242 9.41633 10.3267 9.37383 10.0292 9.45883C9.85919 9.50133 9.73169 9.54383 9.56169 9.58633C9.47669 9.11883 9.05169 8.73633 8.54169 8.73633C8.03169 8.73633 7.60669 9.07633 7.52169 9.58633C7.39419 9.54383 7.22419 9.50133 7.05419 9.45883C6.75669 9.37383 6.45919 9.45883 6.24669 9.62883C5.94919 9.79883 5.86419 10.0963 5.90669 10.3938C6.07669 11.2863 6.28919 12.0088 6.50169 12.5613L5.56669 16.5138C5.39669 17.1513 5.56669 17.7888 5.90669 18.2988L7.64919 20.6788C7.86169 20.9338 8.15919 21.1038 8.45669 21.1038C8.75419 21.1038 9.09419 20.9338 9.26419 20.6788L11.0067 18.2988C11.4317 17.8313 11.5592 17.1938 11.4317 16.5563ZM9.56169 10.3936C9.77419 10.3511 9.98669 10.3086 10.2417 10.2236C10.1142 10.7761 10.0292 11.2436 9.90169 11.6686C9.81669 11.5836 9.68919 11.5411 9.56169 11.4986V10.3936ZM8.28669 9.75609C8.28669 9.62859 8.37169 9.54359 8.49919 9.54359C8.62669 9.54359 8.71169 9.62859 8.71169 9.75609V11.3286H8.28669V9.75609ZM7.43669 10.3936V11.4986C7.30919 11.5411 7.22419 11.5836 7.09669 11.6686C6.96919 11.2436 6.84169 10.7761 6.75669 10.2236C7.01169 10.3086 7.22419 10.3511 7.43669 10.3936Z" fill="black"></path>
                                            <path d="M8.07422 5.71875H8.92422V8.14125H8.07422V5.71875Z" fill="black"></path>
                                            <path d="M6.62891 6.78125H7.47891V8.48125H6.62891V6.78125Z" fill="black"></path>
                                            <path d="M9.51953 6.78125H10.3695V8.48125H9.51953V6.78125Z" fill="black"></path>
                                        </svg>