<svg width="40" height="40"
                                            viewBox="0 0 28 28" fill="none" xmlns="http://www.w3.org/2000/svg">
                                            <path
                                                d="M20.3781 0.824267C16.9168 0.824267 14.0575 3.42532 13.6369 6.77427H2.95313C1.78134 6.77427 0.828125 7.72748 0.828125 8.89927V20.7993C0.828125 21.9711 1.78134 22.9243 2.95313 22.9243H7.20313V23.8172C6.23456 24.0149 5.50313 24.8728 5.50313 25.8993V27.1743H19.1031V25.8993C19.1031 24.8734 18.3717 24.0148 17.4031 23.8172V22.9243H21.6531C22.8249 22.9243 23.7781 21.9711 23.7781 20.7993V17.7776C24.3029 17.2408 24.6281 16.5077 24.6281 15.6993V14.1998C24.6281 13.7135 24.8979 13.2768 25.3328 13.0595C26.471 12.4905 27.1781 11.3464 27.1781 10.0739V7.62422C27.1781 3.87494 24.1274 0.824219 20.3781 0.824219V0.824267ZM22.195 18.6223C22.453 18.5747 22.6978 18.4927 22.9281 18.383V19.5241H21.9647L22.195 18.6223ZM22.0326 15.8236L21.0883 19.5207C21.028 19.7558 20.8912 19.9694 20.7024 20.1221C20.5015 20.2844 20.2482 20.3741 19.9897 20.3741H14.8533C14.6192 20.3741 14.4283 20.1832 14.4283 19.9491V19.5241H18.3404C18.7387 19.5241 19.079 19.253 19.1688 18.8654L20.2912 13.999H20.6155C21.422 13.999 22.0783 14.6553 22.0783 15.4618C22.0783 15.5838 22.0629 15.7054 22.0328 15.8235L22.0326 15.8236ZM18.5362 17.8241L18.3402 18.6741H17.8281V17.8241H18.5362ZM16.9781 18.6741H16.1281V17.8241H16.9781V18.6741ZM15.2781 18.6741H14.4281V17.8241H15.2781V18.6741ZM18.6781 13.5741H17.8281V12.7241H18.2531C18.4873 12.7241 18.6781 12.915 18.6781 13.1491V13.5741ZM16.9781 13.5741H16.1281V12.7241H16.9781V13.5741ZM15.2781 13.5741H14.8531C14.619 13.5741 14.4281 13.3833 14.4281 13.1491V12.7241H15.2781V13.5741ZM2.95313 7.62412H13.5781V13.1491C13.5781 13.8521 14.1502 14.4241 14.8531 14.4241H19.3207L18.7326 16.9741H14.4281C13.9593 16.9741 13.5781 17.3553 13.5781 17.8241V19.5241H1.67813V8.89912C1.67813 8.19615 2.25016 7.62412 2.95313 7.62412ZM18.2531 25.8991V26.3241H6.35314V25.8991C6.35314 25.3458 6.70964 24.8783 7.20314 24.7023V25.4741H17.4031V24.7023C17.8966 24.8783 18.2531 25.3458 18.2531 25.8991ZM16.5531 24.6241H8.05314V22.9241H16.5531V24.6241ZM21.6531 22.0741H2.95313C2.25016 22.0741 1.67813 21.5021 1.67813 20.7991V20.3741H13.6563C13.8322 20.8676 14.2997 21.2241 14.8532 21.2241H19.9896C20.4417 21.2241 20.8846 21.0672 21.2369 20.783C21.3815 20.6661 21.5046 20.5259 21.6109 20.3741H22.928V20.7991C22.928 21.5021 22.356 22.0741 21.653 22.0741H21.6531ZM26.3281 10.0736C26.3281 11.0217 25.801 11.8747 24.9528 12.2989C24.2282 12.6609 23.7781 13.3895 23.7781 14.1995V15.6989C23.7781 16.5927 23.2218 17.356 22.4386 17.6693L22.8564 16.0338C22.9039 15.8473 22.9281 15.6547 22.9281 15.4618C22.9281 14.1868 21.8907 13.1489 20.6153 13.1489H20.2911C19.9795 13.1489 19.7053 13.3159 19.5572 13.5739H19.5282V13.1489C19.5282 12.446 18.9561 11.8739 18.2532 11.8739H14.4282V7.62393C14.4282 4.34288 17.0971 1.67393 20.3782 1.67393C23.6592 1.67393 26.3282 4.34288 26.3282 7.62393L26.3281 10.0736Z"
                                                fill="black" />
                                            <path d="M14.4297 15.2734H15.2797V16.1234H14.4297V15.2734Z" fill="black" />
                                            <path d="M16.125 15.2734H16.975V16.1234H16.125V15.2734Z" fill="black" />
                                            <path
                                                d="M17.9451 6.34961H16.8678C15.9927 6.34961 15.2812 7.06108 15.2812 7.93576V8.47461C15.2812 9.6464 16.2345 10.5996 17.4063 10.5996C18.578 10.5996 19.5313 9.6464 19.5313 8.47461V7.93576C19.5313 7.06108 18.8198 6.34961 17.9451 6.34961ZM18.6813 8.47461C18.6813 9.17758 18.1092 9.74961 17.4063 9.74961C16.7033 9.74961 16.1313 9.17758 16.1313 8.47461V7.93576C16.1313 7.52973 16.4614 7.19961 16.8674 7.19961H17.9447C18.3511 7.19961 18.6813 7.52974 18.6813 7.93576V8.47461Z"
                                                fill="black" />
                                            <path
                                                d="M3.80625 18.6738H11.4562C12.1592 18.6738 12.7312 18.1018 12.7312 17.3988V12.2988C12.7312 11.5959 12.1592 11.0238 11.4562 11.0238H7.38213L6.53213 10.1738H2.53125V17.3988C2.53125 18.1018 3.10328 18.6738 3.80625 18.6738ZM11.4562 17.8238H3.80625C3.57212 17.8238 3.38125 17.633 3.38125 17.3988V13.5738H11.8812V17.3988C11.8812 17.633 11.6904 17.8238 11.4562 17.8238ZM6.18042 11.0238L7.03042 11.8738H11.4563C11.6904 11.8738 11.8813 12.0647 11.8813 12.2988V12.7238H3.3813V11.0238H6.18042Z"
                                                fill="black" />
                                        </svg>