<svg width="38" height="38" viewBox="0 0 30 30" fill="none" xmlns="http://www.w3.org/2000/svg">
                                            <path d="M28.8711 9.81011L15.2264 1.02994C15.0953 0.94575 14.9268 0.94575 14.7957 1.02994L1.15154 9.81011C1.03788 9.88327 0.96875 10.0092 0.96875 10.1447V12.2744C0.96875 12.494 1.14709 12.6724 1.36677 12.6724H2.2506V28.6536C2.2506 28.8732 2.42894 29.0516 2.64862 29.0516H27.3736C27.5933 29.0516 27.7716 28.8732 27.7716 28.6536L27.7718 12.6724H28.6557C28.8753 12.6724 29.0537 12.494 29.0537 12.2744V10.1447C29.0537 10.0094 28.9845 9.88348 28.8709 9.8099L28.8711 9.81011ZM24.7257 28.2559H5.29683V14.9966H24.7257V28.2559ZM26.976 28.2559H25.5215V14.5987C25.5215 14.379 25.3432 14.2006 25.1235 14.2006H4.89881C4.67912 14.2006 4.50078 14.379 4.50078 14.5987V28.2559H3.04631V12.6726H26.976V28.2559ZM28.2578 11.8762H1.76478V10.3615L15.0116 1.83814L28.2584 10.3621L28.2578 11.8762ZM7.70907 8.31095V9.86809C7.70907 10.0878 7.88741 10.2661 8.10709 10.2661H21.9163C22.136 10.2661 22.3143 10.0878 22.3143 9.86809V8.31095C22.3143 8.09127 22.136 7.91293 21.9163 7.91293H8.10709C7.88719 7.91293 7.70907 8.09127 7.70907 8.31095ZM8.50468 8.70877H21.5175V9.47001H8.50468V8.70877ZM21.1435 25.6356C21.9605 25.6356 22.6251 24.9708 22.6251 24.154C22.6251 23.8285 22.5197 23.5168 22.3255 23.2604L22.3257 18.7987C22.3257 18.1471 21.7953 17.6166 21.1435 17.6166C20.4919 17.6166 19.9613 18.1469 19.9613 18.7987V23.2604C19.7673 23.5165 19.6617 23.8283 19.6617 24.154C19.6619 24.9708 20.3266 25.6356 21.1435 25.6356ZM21.1435 18.4123C21.3566 18.4123 21.5298 18.5856 21.5298 18.7987V23.406C21.5298 23.5082 21.5691 23.6068 21.6397 23.6808C21.7618 23.8087 21.829 23.9768 21.829 24.1543C21.829 24.5324 21.5216 24.8403 21.143 24.8403C20.7645 24.8403 20.457 24.5329 20.457 24.1543C20.457 23.9773 20.5243 23.8091 20.6464 23.6808C20.717 23.6068 20.7562 23.5086 20.7562 23.406L20.7567 22.5584H20.8947C21.1144 22.5584 21.2927 22.3801 21.2927 22.1604C21.2927 21.9407 21.1144 21.7624 20.8947 21.7624H20.7567V21.4555H20.8947C21.1144 21.4555 21.2927 21.2772 21.2927 21.0575C21.2927 20.8378 21.1144 20.6595 20.8947 20.6595H20.7567V20.3526H20.8947C21.1144 20.3526 21.2927 20.1743 21.2927 19.9546C21.2927 19.7349 21.1144 19.5566 20.8947 19.5566H20.7567V18.7985C20.7573 18.5856 20.9308 18.4123 21.1435 18.4123ZM7.39725 21.6258C7.39725 21.4061 7.57559 21.2278 7.79528 21.2278H8.29657L8.07901 20.9712C7.93672 20.8036 7.9575 20.5526 8.12523 20.4103C8.29275 20.268 8.54382 20.2888 8.68611 20.4565L9.34031 21.228H11.5325L9.9824 19.6778L8.97453 19.7608C8.96351 19.7616 8.95227 19.762 8.94167 19.762C8.73682 19.762 8.56251 19.6047 8.54555 19.3967C8.52752 19.1776 8.69059 18.9857 8.90943 18.9677L9.24469 18.9401L8.88992 18.5853C8.73448 18.4299 8.73448 18.1782 8.88992 18.0226C9.04536 17.8671 9.29749 17.8671 9.4527 18.0226L9.80747 18.3773L9.83503 18.0421C9.85306 17.823 10.0454 17.6606 10.264 17.678C10.4831 17.696 10.6459 17.8883 10.6281 18.107L10.5452 19.1148L12.0953 20.665V18.4727L11.3239 17.8185C11.1564 17.6763 11.1354 17.4252 11.2776 17.2577C11.4199 17.0901 11.671 17.0696 11.8385 17.2114L12.0951 17.429V16.9281C12.0951 16.7084 12.2735 16.5301 12.4931 16.5301C12.7128 16.5301 12.8912 16.7084 12.8912 16.9281V17.4294L13.1477 17.2119C13.3155 17.0696 13.5663 17.0906 13.7086 17.2581C13.8509 17.4256 13.8301 17.6767 13.6624 17.819L12.8909 18.4732V20.6654L14.4411 19.1153L14.3582 18.1069C14.3401 17.8879 14.5032 17.696 14.722 17.678C14.9411 17.6608 15.1334 17.823 15.151 18.0421L15.1786 18.3773L15.5334 18.0225C15.6888 17.8671 15.9405 17.8671 16.0961 18.0225C16.2516 18.178 16.2516 18.4297 16.0961 18.5853L15.7414 18.9401L16.0766 18.9677C16.2957 18.9857 16.4585 19.178 16.4407 19.3966C16.4235 19.6047 16.2495 19.762 16.0446 19.762C16.0336 19.762 16.0228 19.7618 16.0117 19.7607L15.0039 19.6778L13.4537 21.228H15.646L16.3002 20.4565C16.4424 20.289 16.6935 20.2684 16.861 20.4103C17.0286 20.5526 17.0496 20.8036 16.9073 20.9712L16.6897 21.2277H17.191C17.4107 21.2277 17.589 21.4061 17.589 21.6258C17.589 21.8455 17.4107 22.0238 17.191 22.0238H16.6897L16.9073 22.2804C17.0496 22.4479 17.0288 22.699 16.861 22.8413C16.7864 22.9047 16.6948 22.9356 16.6038 22.9356C16.491 22.9356 16.379 22.8879 16.3002 22.795L15.646 22.0236H13.4537L15.0039 23.5737L16.0117 23.4908C16.2301 23.4728 16.4231 23.6358 16.4407 23.8549C16.4585 24.0739 16.2957 24.2659 16.0768 24.2839L15.7416 24.3114L16.0963 24.6662C16.2518 24.8216 16.2518 25.0734 16.0963 25.229C16.0187 25.3066 15.9167 25.3456 15.8147 25.3456C15.7127 25.3456 15.6112 25.3066 15.5331 25.229L15.1784 24.8742L15.1508 25.2095C15.1336 25.4175 14.9595 25.5749 14.7547 25.5749C14.7437 25.5749 14.7328 25.5746 14.7218 25.5736C14.5028 25.5556 14.3399 25.3632 14.3579 25.1446L14.4408 24.1363L12.8907 22.5862V24.7784L13.6622 25.4326C13.8297 25.5749 13.8507 25.8259 13.7084 25.9935C13.6295 26.0863 13.5175 26.1341 13.4047 26.1341C13.3138 26.1341 13.2224 26.1031 13.1475 26.0397L12.8909 25.8221V26.3234C12.8909 26.5431 12.7126 26.7214 12.4929 26.7214C12.2732 26.7214 12.0949 26.5431 12.0949 26.3234V25.8221L11.8383 26.0397C11.6708 26.182 11.4197 26.1612 11.2774 25.9935C11.1351 25.8259 11.1559 25.5749 11.3236 25.4326L12.0951 24.7784V22.5862L10.545 24.1363L10.6279 25.1446C10.6459 25.3636 10.4828 25.5556 10.264 25.5736C10.253 25.5744 10.2417 25.5748 10.2311 25.5748C10.0263 25.5748 9.85197 25.4175 9.835 25.2095L9.80744 24.8742L9.45267 25.229C9.37505 25.3066 9.27306 25.3456 9.17106 25.3456C9.06906 25.3456 8.96749 25.3066 8.88945 25.229C8.73402 25.0736 8.73402 24.8218 8.88945 24.6662L9.24422 24.3114L8.90896 24.2839C8.68991 24.2658 8.52705 24.0735 8.54487 23.8549C8.56289 23.6358 8.75523 23.4728 8.97385 23.4908L9.98172 23.5737L11.5318 22.0236H9.33963L8.68543 22.795C8.60655 22.8879 8.49458 22.9356 8.38177 22.9356C8.2908 22.9356 8.1994 22.9047 8.12454 22.8413C7.95702 22.699 7.93603 22.4479 8.07832 22.2804L8.29588 22.0238H7.79459C7.57532 22.0238 7.3972 21.8459 7.3972 21.6258L7.39725 21.6258Z" fill="black"></path>
                                        </svg>