<svg width="38" height="38" viewBox="0 0 20 26" fill="none" xmlns="http://www.w3.org/2000/svg">
<path d="M4.12258 0.362808L3.9957 0.463169L3.97984 2.31905L3.96398 4.17493H2.35666H0.749341L0.606601 4.29661C0.500781 4.38657 0.463861 4.47107 0.463861 4.59795C0.463861 4.72483 0.500781 4.80933 0.606601 4.89929L0.749341 5.02097H2.36212H3.96944V7.40023V9.77949H2.36212H0.749341L0.606601 9.90117C0.411081 10.0756 0.411081 10.3294 0.606601 10.5038L0.749341 10.6255H2.36212H3.96944V13.005V15.3843H2.36212H0.749341L0.606601 15.506C0.411081 15.6804 0.411081 15.9342 0.606601 16.1087L0.749341 16.2303H2.36212H3.96944V18.6096V20.9889H2.36212H0.749341L0.606601 21.1105C0.411081 21.285 0.411081 21.5388 0.606601 21.7132L0.749341 21.8349H2.35666H3.96398L3.97984 23.6908L3.9957 25.5467L4.12258 25.647C4.28118 25.7739 4.50322 25.7739 4.66182 25.647L4.7887 25.5467L4.80456 23.6908L4.82042 21.8349H7.19448H9.56854L9.5844 23.6908L9.60026 25.5467L9.72714 25.647C9.88574 25.7739 10.1078 25.7739 10.2664 25.647L10.3933 25.5467L10.4091 23.6908L10.425 21.8349H12.799H15.1731L15.189 23.6908L15.2048 25.5467L15.3317 25.647C15.4903 25.7739 15.7123 25.7739 15.8709 25.647L15.9978 25.5467L16.0137 23.6908L16.0295 21.8349H17.6369H19.2442L19.3869 21.7132C19.5827 21.5388 19.5827 21.285 19.3869 21.1105L19.2442 20.9889H17.6314H16.0241V18.6096V16.2303H17.6314H19.2442L19.3921 16.1035L19.5403 15.9766V13.005V10.0335L19.3921 9.90663L19.2442 9.77975H17.6314H16.0241V7.40049V5.02123H17.6314H19.2442L19.3869 4.89955C19.5827 4.72509 19.5827 4.47133 19.3869 4.29687L19.2442 4.17519H17.6369H16.0295L16.0137 2.31931L15.9978 0.463428L15.8709 0.36307C15.8023 0.310289 15.6806 0.262709 15.6013 0.262709C15.522 0.262709 15.4003 0.310289 15.3317 0.36307L15.2048 0.463428L15.189 2.31931L15.1731 4.17519H12.799H10.425L10.4091 2.31931L10.3933 0.463428L10.2664 0.36307C10.1977 0.310289 10.0761 0.262709 9.99676 0.262709C9.91746 0.262709 9.79578 0.310289 9.72714 0.36307L9.60026 0.463428L9.5844 2.31931L9.56854 4.17519H7.19448H4.82042L4.80456 2.31931L4.7887 0.463428L4.66182 0.36307C4.59318 0.310289 4.4715 0.262709 4.3922 0.262709C4.3129 0.262709 4.19122 0.310028 4.12258 0.362808ZM9.57374 7.40049V9.77975H7.19448H4.81522V7.40049V5.02123H7.19448H9.57374V7.40049ZM15.1786 7.40049V9.77975H12.7993H10.42V7.40049V5.02123H12.7993H15.1786V7.40049ZM9.57374 13.005V15.3843H7.19448H4.81522V13.005V10.6258H7.19448H9.57374V13.005ZM15.1786 13.005V15.3843H12.7993H10.42V13.005V10.6258H12.7993H15.1786V13.005ZM17.9333 11.9635C18.1766 12.1273 18.2559 12.2965 18.2242 12.582C18.2083 12.7671 18.166 12.8516 18.0128 12.9892L17.8274 13.1584L17.9543 13.5391C18.0284 13.7505 18.0864 13.9514 18.0864 13.9938C18.0864 14.0466 17.9647 14.0625 17.5841 14.0625C17.2034 14.0625 17.0818 14.0466 17.0818 13.9938C17.0818 13.9514 17.14 13.7505 17.2138 13.5391L17.341 13.1584L17.1559 12.9892C17.0025 12.8516 16.9601 12.7671 16.9445 12.582C16.9286 12.4445 16.9497 12.2911 16.9869 12.2118C17.0872 12.0267 17.3834 11.8415 17.5843 11.8415C17.6795 11.8418 17.8329 11.8948 17.9333 11.9635ZM9.57374 18.6099V20.9891H7.19448H4.81522V18.6099V16.2306H7.19448H9.57374V18.6099ZM15.1786 18.6099V20.9891H12.7993H10.42V18.6099V16.2306H12.7993H15.1786V18.6099Z" fill="black"/>
</svg>