<svg width="38" height="38" viewBox="0 0 28 28" fill="none" xmlns="http://www.w3.org/2000/svg">
                                            <path d="M14.0031 27.2993C6.66967 27.2993 0.703125 21.3327 0.703125 13.9993C0.703125 13.4746 1.1285 13.0493 1.65313 13.0493C2.17775 13.0493 2.60313 13.4746 2.60313 13.9993C2.60313 20.285 7.71722 25.3993 14.0031 25.3993C20.289 25.3993 25.4031 20.2852 25.4031 13.9993C25.4031 7.71336 20.289 2.59926 14.0031 2.59926C11.0051 2.59926 8.53384 4.03952 6.98778 5.24737C6.57555 5.57118 5.97758 5.4976 5.6548 5.08409C5.33142 4.67101 5.40457 4.07389 5.81808 3.75111C7.5987 2.35857 10.4642 0.699219 14.0027 0.699219C21.3362 0.699219 27.3027 6.66576 27.3027 13.9992C27.3027 21.3327 21.3362 27.2992 14.0027 27.2992L14.0031 27.2993Z" fill="black"></path>
                                            <path d="M8.3 6.39844H5.45C4.92538 6.39844 4.5 5.97306 4.5 5.44844V2.59844C4.5 2.07381 4.92538 1.64844 5.45 1.64844C5.97462 1.64844 6.4 2.07381 6.4 2.59844V4.49844H8.3C8.82462 4.49844 9.25 4.92382 9.25 5.44844C9.25 5.97306 8.82462 6.39844 8.3 6.39844Z" fill="black"></path>
                                            <path d="M14.0047 19.6988C10.8614 19.6988 8.30469 17.1421 8.30469 13.9988C8.30469 10.8556 10.8614 8.29883 14.0047 8.29883C17.1479 8.29883 19.7047 10.8556 19.7047 13.9988C19.7047 17.1421 17.1479 19.6988 14.0047 19.6988ZM14.0047 10.1988C11.9094 10.1988 10.2047 11.9035 10.2047 13.9988C10.2047 16.0941 11.9094 17.7988 14.0047 17.7988C16.1 17.7988 17.8047 16.0941 17.8047 13.9988C17.8047 11.9035 16.1 10.1988 14.0047 10.1988Z" fill="black"></path>
                                            <path d="M14.0047 16.8488C13.4801 16.8488 13.0547 16.4235 13.0547 15.8988C13.0547 15.3742 13.4801 14.9488 14.0047 14.9488C14.5285 14.9488 14.9547 14.5226 14.9547 13.9988C14.9547 13.4742 15.3801 13.0488 15.9047 13.0488C16.4293 13.0488 16.8547 13.4742 16.8547 13.9988C16.8547 15.5703 15.5762 16.8488 14.0047 16.8488Z" fill="black"></path>
</svg>