<svg width="38" height="38" viewBox="0 0 24 28" fill="none" xmlns="http://www.w3.org/2000/svg">
<path d="M23.0665 14.0163C23.0684 13.796 22.957 13.5902 22.7714 13.4712L18.7992 10.8808L22.7714 8.29035C22.9587 8.1731 23.0723 7.96781 23.0723 7.74694C23.0723 7.5259 22.9587 7.32061 22.7714 7.20337L12.4864 0.490314C12.2739 0.352187 11.9999 0.352187 11.7874 0.490314L1.24597 7.15577C1.06079 7.2772 0.947904 7.48249 0.944679 7.7039C0.942402 7.92608 1.05529 8.13346 1.24275 8.25222L5.30492 10.8556L1.2462 13.4204H1.24601C1.05438 13.5367 0.9375 13.7444 0.9375 13.9687C0.9375 14.1928 1.05437 14.4005 1.24601 14.5168L5.25674 17.0816L1.24601 19.6208C1.05419 19.7407 0.939778 19.9526 0.944713 20.1786C0.942436 20.4008 1.05532 20.6082 1.24278 20.7269L11.7779 27.4818C11.8821 27.5491 12.0035 27.5848 12.1274 27.5844C12.2549 27.5857 12.3799 27.5487 12.4866 27.4785L22.7716 20.7655C22.9588 20.6482 23.0725 20.4429 23.0725 20.2219C23.0725 20.0011 22.9588 19.7958 22.7716 19.6785L18.8505 17.1137L22.7716 14.5489C22.9533 14.4324 23.0641 14.2324 23.0666 14.0167L23.0665 14.0163ZM1.99617 7.70686L12.1243 1.29495L22.0212 7.75835L12.1243 14.2023L1.99617 7.70686ZM22.0212 20.2106L12.1243 26.674L1.99617 20.182L6.05815 17.6171L11.7779 21.2751C11.8817 21.3436 12.0031 21.3805 12.1274 21.381C12.2547 21.3803 12.3792 21.3436 12.4866 21.2751L18.0587 17.6363L22.0212 20.2106ZM12.1243 20.4607L1.99617 13.9783L6.10959 11.3718L11.7779 15.0075C11.9919 15.1484 12.2693 15.1484 12.4833 15.0075L18.0073 11.4006L22.0213 14.0168L12.1243 20.4607Z" fill="black"/>
</svg>