<svg width="38" height="38" viewBox="0 0 26 28" fill="none" xmlns="http://www.w3.org/2000/svg">
<path d="M15.1059 0.824272C14.8716 0.827877 14.6843 1.02065 14.6875 1.25515V4.23603C14.6875 4.93177 15.2609 5.50515 15.9569 5.50515H18.9375C19.0512 5.50667 19.1609 5.46265 19.2419 5.38278C19.3229 5.3029 19.3686 5.19381 19.3686 5.08015C19.3686 4.96631 19.3229 4.85722 19.2419 4.77734C19.1609 4.69746 19.0512 4.65344 18.9375 4.65515H15.9569C15.7205 4.65515 15.5375 4.47244 15.5375 4.23604V1.25516C15.5391 1.14018 15.4941 1.02957 15.4127 0.948362C15.3315 0.867345 15.2207 0.822373 15.1059 0.824272Z" fill="black"></path>
<path d="M22.597 17.8301C21.9827 17.8301 21.4922 18.3516 21.4922 18.9632V26.0463C21.4922 26.6576 21.9827 27.1802 22.597 27.1802H25.3172V26.3302H22.597C22.4579 26.3302 22.3422 26.2198 22.3422 26.0463V18.9632C22.3422 18.7897 22.4579 18.6801 22.597 18.6801H25.3172V17.8301L22.597 17.8301Z" fill="black"></path>
<path d="M18.7864 12.7305C18.2665 12.7305 17.8202 12.9671 17.5187 13.3033C17.2173 13.6393 17.0364 14.0607 16.9245 14.4937L16.0613 17.8307H11.4974C10.6829 17.8307 10.0156 18.5029 10.0156 19.3182C10.0156 20.1334 10.6829 20.8057 11.4974 20.8057H12.5656L12.5658 20.8055C12.6795 20.807 12.7891 20.763 12.8701 20.6831C12.9512 20.6032 12.9969 20.4941 12.9969 20.3805C12.9969 20.2666 12.9512 20.1575 12.8701 20.0777C12.7891 19.9978 12.6795 19.9538 12.5658 19.9555H11.4976C11.1451 19.9555 10.8658 19.6764 10.8658 19.318C10.8658 18.9596 11.1451 18.6805 11.4976 18.6805H16.3907C16.5846 18.6805 16.7539 18.5494 16.8024 18.3617L17.7471 14.7069C17.8357 14.3646 17.9786 14.0635 18.1514 13.871C18.3243 13.6784 18.5026 13.5805 18.7864 13.5805H19.3666L19.3708 16.646C19.3708 18.0583 20.5187 19.1055 21.9159 19.1055H21.9157C22.0295 19.107 22.1392 19.063 22.2202 18.9831C22.3012 18.9032 22.3467 18.7941 22.3467 18.6805C22.3467 18.5666 22.3012 18.4575 22.2202 18.3777C22.1392 18.2978 22.0295 18.2538 21.9157 18.2555C20.9156 18.2555 20.2206 17.6208 20.2206 16.645L20.2155 13.1546H20.2157C20.2151 12.9202 20.025 12.7305 19.7907 12.7305L18.7864 12.7305Z" fill="black"></path>
<path d="M23.6172 25.0539C23.6172 25.1668 23.662 25.2748 23.7417 25.3544C23.8213 25.4341 23.9295 25.4789 24.0422 25.4789C24.1549 25.4789 24.263 25.4341 24.3427 25.3544C24.4224 25.2748 24.4672 25.1668 24.4672 25.0539C24.4672 24.9412 24.4224 24.8332 24.3427 24.7536C24.263 24.6737 24.1549 24.6289 24.0422 24.6289C23.9295 24.6289 23.8213 24.6737 23.7417 24.7536C23.662 24.8332 23.6172 24.9412 23.6172 25.0539Z" fill="black"></path>
<path d="M11.9193 19.9551C11.1048 19.9551 10.4375 20.6274 10.4375 21.4426C10.4375 22.2579 11.1048 22.9301 11.9193 22.9301H12.9877C13.1013 22.9316 13.211 22.8876 13.292 22.8078C13.373 22.7279 13.4188 22.6188 13.4188 22.5051C13.4188 22.3913 13.373 22.2822 13.292 22.2023C13.211 22.1224 13.1013 22.0784 12.9877 22.0801H11.9195C11.567 22.0801 11.2877 21.801 11.2877 21.4426C11.2877 21.0842 11.567 20.8051 11.9195 20.8051H11.9193C12.0332 20.8066 12.1428 20.7626 12.2238 20.6828C12.3049 20.6029 12.3504 20.4938 12.3504 20.3801C12.3504 20.2663 12.3049 20.1572 12.2238 20.0773C12.1428 19.9974 12.0332 19.9534 11.9193 19.9551Z" fill="black"></path>
<path d="M12.5676 22.0801C11.753 22.0801 11.0859 22.7524 11.0859 23.5676C11.0859 24.3829 11.7532 25.0551 12.5676 25.0551H13.4176C13.5312 25.0566 13.6409 25.0126 13.7219 24.9328C13.8029 24.8529 13.8486 24.7438 13.8486 24.6301C13.8486 24.5163 13.8029 24.4072 13.7219 24.3273C13.6409 24.2474 13.5312 24.2034 13.4176 24.2051H12.5676C12.2152 24.2051 11.9359 23.926 11.9359 23.5676C11.9359 23.2092 12.2152 22.9301 12.5676 22.9301C12.6812 22.9316 12.7909 22.8876 12.8719 22.8078C12.9529 22.7279 12.9986 22.6188 12.9986 22.5051C12.9986 22.3913 12.9529 22.2822 12.8719 22.2023C12.7909 22.1224 12.6812 22.0784 12.5676 22.0801Z" fill="black"></path>
<path d="M13.1928 24.2051C12.3782 24.2051 11.7109 24.8773 11.7109 25.6926C11.7109 26.5079 12.3782 27.1801 13.1928 27.1801H19.3735C21.0285 27.1801 22.2041 25.9964 22.2041 25.9964C22.287 25.918 22.335 25.8097 22.3373 25.6957C22.3395 25.5816 22.2959 25.4716 22.2162 25.39C22.1363 25.3086 22.0272 25.2625 21.9132 25.2623C21.7992 25.2619 21.6899 25.3077 21.6098 25.3887C21.6098 25.3887 20.6124 26.3299 19.3736 26.3299H13.1929C12.8404 26.3299 12.5611 26.0508 12.5611 25.6924C12.5611 25.334 12.8404 25.0549 13.1929 25.0549L13.1927 25.0551C13.3066 25.0566 13.4162 25.0126 13.4973 24.9328C13.5783 24.8529 13.6238 24.7438 13.6238 24.6301C13.6238 24.5163 13.5783 24.4072 13.4973 24.3273C13.4162 24.2474 13.3066 24.2034 13.1928 24.2051Z" fill="black"></path>
<path d="M23.6172 23.3547C23.6172 23.4676 23.662 23.5755 23.7417 23.6552C23.8213 23.7349 23.9295 23.7797 24.0422 23.7797C24.1549 23.7797 24.263 23.7349 24.3427 23.6552C24.4224 23.5755 24.4672 23.4676 24.4672 23.3547C24.4672 23.242 24.4224 23.134 24.3427 23.0543C24.263 22.9745 24.1549 22.9297 24.0422 22.9297C23.9295 22.9297 23.8213 22.9745 23.7417 23.0543C23.662 23.134 23.6172 23.242 23.6172 23.3547Z" fill="black"></path>
<path d="M2.36406 0.830321C1.43018 0.830321 0.664062 1.59644 0.664062 2.53032V22.9303C0.664062 23.8642 1.43018 24.6303 2.36406 24.6303H9.58906C9.70271 24.6318 9.81238 24.5878 9.89339 24.5079C9.97441 24.4281 10.0201 24.319 10.0201 24.2053C10.0201 24.0915 9.97441 23.9824 9.89339 23.9025C9.81238 23.8226 9.70271 23.7786 9.58906 23.7803H2.36406C1.88954 23.7803 1.51406 23.4048 1.51406 22.9303V2.53032C1.51406 2.0558 1.88954 1.68032 2.36406 1.68032H14.9382L18.5141 5.25639V11.4551C18.5124 11.5687 18.5566 11.6784 18.6365 11.7594C18.7164 11.8404 18.8253 11.886 18.9391 11.886C19.053 11.886 19.1619 11.8404 19.2417 11.7594C19.3216 11.6784 19.3656 11.5687 19.3641 11.4551V5.08008C19.3641 4.96738 19.3193 4.85923 19.2396 4.77954L15.4146 0.954542C15.335 0.874856 15.2268 0.830078 15.1141 0.830078L2.36406 0.830321Z" fill="black"></path>
<path d="M4.06875 5.50508C4.06875 5.61797 4.02397 5.72593 3.9441 5.80561C3.86441 5.8853 3.75645 5.93008 3.64375 5.93008C3.40886 5.93008 3.21875 5.73996 3.21875 5.50508C3.21875 5.27038 3.40886 5.08008 3.64375 5.08008C3.75645 5.08008 3.86441 5.12486 3.9441 5.20473C4.02397 5.28442 4.06875 5.39238 4.06875 5.50508Z" fill="black"></path>
<path d="M6.20451 5.08013C6.09086 5.07842 5.98119 5.12244 5.90018 5.20231C5.81916 5.28219 5.77344 5.39128 5.77344 5.50513C5.77344 5.61877 5.81916 5.72787 5.90018 5.80775C5.9812 5.88763 6.09086 5.93165 6.20451 5.93013H11.2929C11.4065 5.93164 11.5162 5.88763 11.5972 5.80775C11.6782 5.72787 11.7239 5.61878 11.7239 5.50513C11.7239 5.39128 11.6782 5.28219 11.5972 5.20231C11.5162 5.12243 11.4065 5.07842 11.2929 5.08013H6.20451Z" fill="black"></path>
<path d="M4.06875 8.05391C4.06875 8.1668 4.02397 8.27476 3.9441 8.35444C3.86441 8.43413 3.75645 8.47891 3.64375 8.47891C3.40886 8.47891 3.21875 8.28879 3.21875 8.05391C3.21875 7.81921 3.40886 7.62891 3.64375 7.62891C3.75645 7.62891 3.86441 7.67368 3.9441 7.75356C4.02397 7.83325 4.06875 7.94121 4.06875 8.05391Z" fill="black"></path>
<path d="M6.20451 7.63091C6.09086 7.6292 5.98119 7.67322 5.90018 7.75309C5.81916 7.83297 5.77344 7.94207 5.77344 8.05591C5.77344 8.16955 5.81916 8.27865 5.90018 8.35853C5.9812 8.43841 6.09086 8.48243 6.20451 8.48091H12.9929C13.1065 8.48243 13.2162 8.43841 13.2972 8.35853C13.3782 8.27866 13.4239 8.16956 13.4239 8.05591C13.4239 7.94207 13.3782 7.83297 13.2972 7.75309C13.2162 7.67321 13.1065 7.6292 12.9929 7.63091H6.20451Z" fill="black"></path>
<path d="M4.06875 10.6047C4.06875 10.7176 4.02397 10.8255 3.9441 10.9052C3.86441 10.9849 3.75645 11.0297 3.64375 11.0297C3.40886 11.0297 3.21875 10.8396 3.21875 10.6047C3.21875 10.37 3.40886 10.1797 3.64375 10.1797C3.75645 10.1797 3.86441 10.2245 3.9441 10.3043C4.02397 10.384 4.06875 10.492 4.06875 10.6047Z" fill="black"></path>
<path d="M6.20451 10.1797C6.09086 10.178 5.98119 10.222 5.90018 10.3019C5.81916 10.3818 5.77344 10.4909 5.77344 10.6047C5.77344 10.7184 5.81916 10.8275 5.90018 10.9074C5.9812 10.9872 6.09086 11.0313 6.20451 11.0297H12.9929C13.1065 11.0313 13.2162 10.9872 13.2972 10.9074C13.3782 10.8275 13.4239 10.7184 13.4239 10.6047C13.4239 10.4909 13.3782 10.3818 13.2972 10.3019C13.2162 10.222 13.1065 10.178 12.9929 10.1797H6.20451Z" fill="black"></path>
<path d="M4.06875 13.1555C4.06875 13.2684 4.02397 13.3763 3.9441 13.456C3.86441 13.5357 3.75645 13.5805 3.64375 13.5805C3.40886 13.5805 3.21875 13.3904 3.21875 13.1555C3.21875 12.9208 3.40886 12.7305 3.64375 12.7305C3.75645 12.7305 3.86441 12.7752 3.9441 12.8551C4.02397 12.9348 4.06875 13.0428 4.06875 13.1555Z" fill="black"></path>
<path d="M6.20451 12.7305C6.09086 12.7288 5.98119 12.7728 5.90018 12.8527C5.81916 12.9326 5.77344 13.0417 5.77344 13.1555C5.77344 13.2692 5.81916 13.3783 5.90018 13.4581C5.9812 13.538 6.09086 13.582 6.20451 13.5805H12.9929C13.1065 13.582 13.2162 13.538 13.2972 13.4581C13.3782 13.3783 13.4239 13.2692 13.4239 13.1555C13.4239 13.0417 13.3782 12.9326 13.2972 12.8527C13.2162 12.7728 13.1065 12.7288 12.9929 12.7305H6.20451Z" fill="black"></path>
<path d="M4.06875 15.7043C4.06875 15.8172 4.02397 15.9251 3.9441 16.0048C3.86441 16.0845 3.75645 16.1293 3.64375 16.1293C3.40886 16.1293 3.21875 15.9392 3.21875 15.7043C3.21875 15.4696 3.40886 15.2793 3.64375 15.2793C3.75645 15.2793 3.86441 15.3241 3.9441 15.404C4.02397 15.4836 4.06875 15.5916 4.06875 15.7043Z" fill="black"></path>
<path d="M6.20451 15.2793C6.09086 15.2776 5.98119 15.3217 5.90018 15.4015C5.81916 15.4814 5.77344 15.5905 5.77344 15.7043C5.77344 15.818 5.81916 15.9271 5.90018 16.007C5.9812 16.0868 6.09086 16.1309 6.20451 16.1293H12.9929C13.1065 16.1309 13.2162 16.0868 13.2972 16.007C13.3782 15.9271 13.4239 15.818 13.4239 15.7043C13.4239 15.5905 13.3782 15.4814 13.2972 15.4015C13.2162 15.3217 13.1065 15.2776 12.9929 15.2793H6.20451Z" fill="black"></path>
<path d="M4.06875 18.2551C4.06875 18.368 4.02397 18.4759 3.9441 18.5556C3.86441 18.6353 3.75645 18.6801 3.64375 18.6801C3.40886 18.6801 3.21875 18.49 3.21875 18.2551C3.21875 18.0204 3.40886 17.8301 3.64375 17.8301C3.75645 17.8301 3.86441 17.8749 3.9441 17.9547C4.02397 18.0344 4.06875 18.1424 4.06875 18.2551Z" fill="black"></path>
<path d="M6.20451 17.8301C6.09086 17.8284 5.98119 17.8724 5.90018 17.9523C5.81916 18.0322 5.77344 18.1413 5.77344 18.2551C5.77344 18.3688 5.81916 18.4779 5.90018 18.5578C5.9812 18.6376 6.09086 18.6816 6.20451 18.6801H7.89295C8.0066 18.6816 8.11627 18.6376 8.19728 18.5578C8.2783 18.4779 8.32402 18.3688 8.32402 18.2551C8.32402 18.1413 8.2783 18.0322 8.19728 17.9523C8.11626 17.8724 8.0066 17.8284 7.89295 17.8301H6.20451Z" fill="black"></path>
</svg>