<svg width="38" height="38" viewBox="0 0 34 34" fill="none" xmlns="http://www.w3.org/2000/svg">
<path fill-rule="evenodd" clip-rule="evenodd" d="M16.1119 0.308594H17.3551H32.3993H33.6425V1.55176V10.8924V11.9104V12.1363H26.891V13.8579H27.5192H28.6471V15.1011H27.5192H22.2336H21.1057V13.8579H22.2336H22.8619V12.1363H16.1103V11.9104V10.8924V1.55176V0.308594H16.1119ZM20.2132 25.5076H18.9512V24.2456H20.2132V25.5076ZM22.8697 25.5076H21.6077V24.2456H22.8697V25.5076ZM25.5247 25.5076H24.2627V24.2456H25.5247V25.5076ZM25.5247 22.8511H24.2627V21.5891H25.5247V22.8511ZM25.5247 20.1945H24.2627V18.9326H25.5247V20.1945ZM25.5247 17.538H24.2627V16.276H25.5247V17.538ZM8.49213 16.5749H9.75412V17.8368H8.49213V16.5749ZM13.8036 5.94951H15.0656V7.2115H13.8036V5.94951ZM11.1471 5.94951H12.4091V7.2115H11.1471V5.94951ZM8.49213 5.94951H9.75412V7.2115H8.49213V5.94951ZM8.49213 8.60604H9.75412V9.86803H8.49213V8.60604ZM8.49213 11.2626H9.75412V12.5246H8.49213V11.2626ZM8.49213 13.9191H9.75412V15.1811H8.49213V13.9191ZM0.357037 18.8973H1.6002H16.6445H17.8876V20.1404V29.481V30.4991V30.725H11.1361V32.4466H11.7644H12.8922V33.6898H11.7644H6.47875H5.35088V32.4466H6.47875H7.107V30.725H0.355469V30.4991V29.481V20.1404V18.8973H0.357037ZM8.49213 21.4565H9.75412V26.3045H8.49213V21.4565ZM9.75961 28.2026H8.48664V26.9296H9.75961V28.2026ZM16.6453 20.1412H1.60099V29.4818H16.6453V20.1412ZM24.247 2.86865H25.509V7.71661H24.247V2.86865ZM25.5145 9.61469H24.2415V8.34172H25.5145V9.61469ZM32.4001 1.55333H17.3559V10.8939H32.4001V1.55333Z" fill="black"/>
</svg>