<svg width="38" height="38" viewBox="0 0 22 26" fill="none" xmlns="http://www.w3.org/2000/svg">
<path d="M20.791 1.68679C20.3717 1.27621 19.8008 1.05822 19.2145 1.0846C18.8941 1.09712 18.5702 1.10338 18.2429 1.10376V1.10357C16.0217 1.12178 13.811 0.79791 11.6882 0.143313C11.2687 0.00936282 10.8177 0.00955223 10.3982 0.143693C8.27566 0.797901 6.06508 1.12178 3.84395 1.10356C3.50282 1.10356 3.16565 1.09673 2.8325 1.08288C2.25552 1.05916 1.69336 1.26958 1.27404 1.66652C0.854543 2.06173 0.615119 2.61118 0.610748 3.18758L0.564263 7.50723L0.558951 10.512L0.558761 10.5122C0.543962 13.8073 1.511 17.0319 3.33661 19.7748C5.16241 22.5179 7.7638 24.6547 10.8088 25.9132C10.9195 25.9684 11.0487 25.9728 11.1629 25.9252C14.1882 24.6657 16.7729 22.5388 18.5919 19.8129C20.4106 17.0869 21.3819 13.8838 21.3832 10.6067L21.3891 7.51257L21.4352 3.236C21.4439 2.65256 21.2106 2.09156 20.7907 1.68667L20.791 1.68679ZM20.5394 7.50759L20.5335 10.6053C20.5324 13.6847 19.6287 16.6962 17.934 19.2676C16.2391 21.8386 13.828 23.8568 10.9985 25.0718C8.14414 23.8591 5.71149 21.8307 4.00566 19.2408C2.29978 16.651 1.39645 13.6153 1.40898 10.514L1.41429 7.51283L1.46097 3.19682C1.46476 2.85948 1.60156 2.53732 1.84157 2.30015C2.08158 2.06317 2.40563 1.93036 2.74301 1.93093C2.76122 1.93093 2.77943 1.9313 2.79822 1.93225C3.14277 1.94629 3.49133 1.9535 3.8442 1.95388L3.84401 1.95369C6.15383 1.97172 8.45242 1.63419 10.6596 0.952684C10.9092 0.872998 11.1777 0.872809 11.4274 0.952305C13.6346 1.634 15.9334 1.97192 18.243 1.9537C18.582 1.9537 18.9169 1.94706 19.2478 1.93378H19.2482L19.2484 1.93397C19.5998 1.9186 19.942 2.04838 20.1949 2.29294C20.4479 2.53751 20.589 2.87541 20.5856 3.22716L20.5394 7.50759ZM19.2931 2.7827C16.548 2.91438 13.8011 2.56963 11.1739 1.76382C11.0891 1.73631 10.9978 1.73631 10.9132 1.76382C8.27251 2.5721 5.51156 2.91627 2.75368 2.78095C2.63832 2.7728 2.52505 2.81511 2.44365 2.89726C2.36017 2.97638 2.31236 3.08604 2.31122 3.20102L2.26473 7.51115L2.25885 10.5161C2.23628 13.356 3.0309 16.1426 4.54798 18.5435C6.06486 20.9446 8.24038 22.8586 10.8147 24.0578C10.8716 24.0846 10.9334 24.0984 10.996 24.0986C11.0594 24.0986 11.1218 24.0846 11.1788 24.0571C13.7297 22.8564 15.8851 20.9527 17.3915 18.5695C18.8982 16.1865 19.6934 13.4228 19.6837 10.6033L19.6895 7.49373L19.7357 3.21129V3.21148C19.737 3.09498 19.6903 2.98285 19.6064 2.90183C19.5241 2.81873 19.4099 2.77509 19.2932 2.7823L19.2931 2.7827ZM18.8394 7.48884L18.8336 10.602C18.8429 13.2265 18.1124 15.8006 16.726 18.029C15.3396 20.2574 13.3535 22.0502 10.995 23.2019C8.61446 22.0512 6.60958 20.2483 5.21311 18.0028C3.81706 15.7573 3.08713 13.1618 3.10821 10.5175L3.1141 7.51628L3.15603 3.6448V3.64499C5.82347 3.73112 8.48723 3.38297 11.0431 2.61435C13.5826 3.37954 16.2295 3.72809 18.8805 3.6461L18.8394 7.48884ZM11.1685 5.82964V5.39648V5.39667C11.1685 5.30863 11.0972 5.23729 11.0092 5.23729C10.9213 5.23729 10.8498 5.30864 10.8498 5.39667V5.82983V5.82964C9.08205 5.88352 7.47108 6.8576 6.60228 8.39824C5.73368 9.93888 5.73368 11.8214 6.60228 13.3622C7.47108 14.9029 9.0821 15.8769 10.8498 15.9308V16.256C10.8498 16.3439 10.9213 16.4154 11.0092 16.4154C11.0972 16.4154 11.1685 16.3439 11.1685 16.256V15.9308C12.9365 15.877 14.5475 14.9029 15.4161 13.3622C16.2849 11.8216 16.2849 9.93907 15.4161 8.39824C14.5475 6.8576 12.9365 5.88355 11.1685 5.82964ZM11.0092 15.0883C9.89315 15.0883 8.82269 14.6449 8.0334 13.8558C7.24411 13.0665 6.80071 11.9961 6.80071 10.8799C6.80071 9.76363 7.24411 8.69317 8.0334 7.90407C8.82269 7.11479 9.89315 6.67138 11.0092 6.67138C12.1253 6.67138 13.1959 7.11478 13.9851 7.90407C14.7744 8.69317 15.2178 9.76363 15.2178 10.8799C15.2165 11.9957 14.7727 13.0654 13.9836 13.8543C13.1947 14.6432 12.125 15.0872 11.0092 15.0883L11.0092 15.0883ZM13.6123 8.70361C13.3507 8.49073 13.0154 8.39017 12.6798 8.42394C12.3443 8.45753 12.0356 8.62279 11.8214 8.88328L10.3311 10.6721L9.98614 10.2484C9.79906 9.96304 9.50555 9.76458 9.17087 9.69741C8.83637 9.63024 8.48878 9.70006 8.20609 9.89112C7.92358 10.0824 7.72929 10.3787 7.66685 10.7142C7.60462 11.0498 7.67937 11.3963 7.87442 11.6761L8.66846 12.6868V12.6867C8.9855 13.1701 9.49913 13.4896 10.0729 13.56C10.1176 13.5659 10.1637 13.5695 10.2123 13.5725C10.2455 13.5742 10.2783 13.575 10.3115 13.575C10.9018 13.5746 11.4609 13.3099 11.8353 12.8536L13.796 10.4979H13.7958C14.0096 10.2357 14.1103 9.89927 14.076 9.56267C14.0417 9.22608 13.8749 8.91701 13.6125 8.70354L13.6123 8.70361ZM13.1397 9.95734L11.179 12.3131V12.3132C10.9521 12.5847 10.6123 12.7363 10.2584 12.7236C10.2322 12.7219 10.2066 12.7198 10.1808 12.7166H10.178C9.84007 12.6724 9.53951 12.4798 9.35834 12.1913L8.5643 11.1811V11.1809C8.43623 10.9844 8.49106 10.7214 8.68667 10.592C8.75346 10.548 8.83163 10.5245 8.91169 10.5245C9.07107 10.5286 9.21735 10.6133 9.30045 10.7493L9.99639 11.6084H9.99657C10.0766 11.7073 10.1967 11.765 10.3241 11.7657H10.3269C10.4531 11.7657 10.5726 11.7097 10.6536 11.613L12.4777 9.42406C12.5862 9.29087 12.7644 9.23603 12.9293 9.28536C13.094 9.33469 13.2127 9.47851 13.2302 9.64946C13.242 9.76007 13.2095 9.87088 13.1397 9.95739L13.1397 9.95734ZM10.8498 4.12099V3.27099C10.8498 3.18296 10.9213 3.11162 11.0092 3.11162C11.0972 3.11162 11.1685 3.18296 11.1685 3.27099V4.12099C11.1685 4.20903 11.0972 4.28036 11.0092 4.28036C10.9213 4.28036 10.8498 4.20902 10.8498 4.12099ZM11.1685 19.6551V20.5051C11.1685 20.593 11.0972 20.6645 11.0092 20.6645C10.9213 20.6645 10.8498 20.5929 10.8498 20.5051V19.6551C10.8498 19.5671 10.9213 19.4957 11.0092 19.4957C11.0972 19.4957 11.1685 19.5671 11.1685 19.6551ZM11.1685 17.5301V18.3801C11.1685 18.468 11.0972 18.5395 11.0092 18.5395C10.9213 18.5395 10.8498 18.4679 10.8498 18.3801V17.5301C10.8498 17.4421 10.9213 17.3707 11.0092 17.3707C11.0972 17.3707 11.1685 17.4421 11.1685 17.5301Z" fill="black"/>
</svg>