<svg width="38" height="38" viewBox="0 0 26 26" fill="none" xmlns="http://www.w3.org/2000/svg">
                                            <path d="M25.828 13.6456V13.1706V12.7906L21.838 11.8406L20.9355 8.08812C21.173 7.47062 21.4105 6.66312 21.6005 5.66562C21.648 5.33312 21.553 5.00062 21.3155 4.76312C21.078 4.52562 20.7455 4.47812 20.413 4.57312C20.223 4.62062 20.0805 4.66812 19.8905 4.71562C19.7955 4.19312 19.3205 3.76562 18.7505 3.76562C18.1805 3.76562 17.7055 4.14562 17.6105 4.71562C17.468 4.66812 17.278 4.62062 17.088 4.57312C16.7555 4.47812 16.423 4.57312 16.1855 4.76312C15.853 4.95312 15.758 5.28562 15.853 5.61812C16.043 6.61562 16.2805 7.42312 16.518 8.04062L15.473 12.4581C15.283 13.1706 15.473 13.8831 15.853 14.4531L17.658 16.9231C18.133 18.3006 19.1305 19.7256 21.363 20.7706L21.553 20.8656L21.743 20.7706C25.923 18.8231 25.8755 15.5931 25.828 13.6456ZM19.8902 5.61785C20.1277 5.57035 20.3652 5.52285 20.6502 5.42785C20.5077 6.04535 20.4127 6.56785 20.2702 7.04285C20.1752 6.94785 20.0327 6.90035 19.8902 6.85285V5.61785ZM18.4652 4.90535C18.4652 4.76285 18.5602 4.66785 18.7027 4.66785C18.8452 4.66785 18.9402 4.76285 18.9402 4.90535V6.66285H18.4652V4.90535ZM17.5152 5.61785V6.85285C17.3727 6.90035 17.2777 6.99535 17.1352 7.04285C16.9927 6.56785 16.8502 6.04535 16.7552 5.42785C17.0402 5.52285 17.2777 5.57035 17.5152 5.61785ZM21.5527 19.8679C18.1327 18.1579 18.1802 15.5929 18.2277 13.6456V13.5506L21.5527 12.7431L24.8777 13.5506V13.6456C24.8777 15.5456 24.9727 18.1581 21.5527 19.8679Z" fill="black"></path>
                                            <path d="M21.5031 16.2108L20.6956 15.4508L20.0781 16.1633L21.5506 17.4933L23.6406 15.4033L22.9281 14.7383L21.5031 16.2108Z" fill="black"></path>
                                            <path d="M14.0886 12.0312C14.0886 11.9837 14.0886 11.9837 14.0411 11.9362C14.5161 10.7962 14.8486 9.27617 15.0386 8.13617C15.0861 7.75617 14.9911 7.42367 14.7061 7.18617C14.4211 6.94867 14.0886 6.85367 13.7086 6.99617C13.3286 7.13867 12.8061 7.28117 12.2361 7.37617V7.13867C12.2361 6.47367 11.7136 5.95117 11.0486 5.95117C10.3836 5.95117 9.86111 6.47367 9.86111 7.13867V7.37617C9.29111 7.28117 8.76861 7.13867 8.38861 6.99617C8.05611 6.90117 7.67611 6.94867 7.39111 7.18617C7.10611 7.42367 6.96361 7.80367 7.05861 8.13617C7.24861 9.22867 7.62861 10.7487 8.05611 11.9362C8.05611 11.9837 8.05611 11.9837 8.00861 12.0312L6.58361 18.4434C6.34611 19.3934 6.58361 20.3909 7.15361 21.1509L9.95611 24.9509C10.2411 25.3309 10.6211 25.5684 11.0961 25.5684C11.5711 25.5684 11.9511 25.3309 12.2361 24.9984L15.0386 21.1984C15.6086 20.3909 15.7986 19.4409 15.6086 18.4909L14.0886 12.0312ZM10.8586 7.13867C10.8586 6.99617 10.9536 6.90117 11.0961 6.90117C11.2386 6.90117 11.3336 6.99617 11.3336 7.13867V10.2262H10.8586V7.13867ZM14.2786 20.5809L11.4761 24.3809C11.2861 24.6184 10.9061 24.6184 10.7161 24.3809L7.91361 20.5809C7.48611 20.0109 7.34361 19.2984 7.53361 18.6334L9.00611 12.2684C9.14861 11.6034 9.71861 11.1759 10.3836 11.1759H11.7611C12.4261 11.1759 12.9961 11.6509 13.1386 12.2684L14.6586 18.6806C14.8486 19.3456 14.6586 20.0581 14.2786 20.5806V20.5809Z" fill="black"></path>
                                            <path d="M10.4803 15.1639C10.5753 15.2589 10.6703 15.3064 10.7653 15.3539C10.8603 15.4014 11.0028 15.4489 11.1453 15.4489C11.2878 15.4489 11.4303 15.4489 11.5253 15.3539C11.6203 15.3064 11.7628 15.2589 11.8103 15.1639C11.8578 15.0689 11.9528 14.9739 12.0003 14.8314C12.0478 14.6889 12.0953 14.5939 12.0953 14.4039V13.6914H10.1953V14.4514C10.1953 14.5939 10.1953 14.7364 10.2903 14.8789C10.3378 14.9739 10.3853 15.0689 10.4803 15.1639ZM10.5278 14.1664H11.7628V14.4514C11.7628 14.5464 11.7628 14.5939 11.7153 14.6889C11.6678 14.7839 11.6678 14.8314 11.5728 14.8789C11.5253 14.9264 11.4778 14.9739 11.3828 14.9739C11.2878 15.0214 11.2403 15.0214 11.1453 15.0214C11.0503 15.0214 10.9553 15.0214 10.9078 14.9739C10.8128 14.9264 10.7653 14.9264 10.7178 14.8789C10.6703 14.8314 10.6228 14.7839 10.5753 14.6889C10.5278 14.5939 10.5278 14.5464 10.5278 14.4514V14.1664Z" fill="black"></path>
                                            <path d="M10.4803 17.1118C10.5753 17.2068 10.6703 17.2543 10.7653 17.3018C10.8603 17.3493 11.0028 17.3968 11.1453 17.3968C11.2878 17.3968 11.4303 17.3968 11.5253 17.3018C11.6203 17.2543 11.7628 17.2068 11.8103 17.1118C11.8578 17.0168 11.9528 16.9218 12.0003 16.7793C12.0478 16.6368 12.0953 16.5418 12.0953 16.3518V15.5918H10.1953V16.3518C10.1953 16.4943 10.1953 16.6368 10.2903 16.7793C10.3378 16.9218 10.3853 17.0168 10.4803 17.1118ZM10.5278 16.0668H11.7628V16.3518C11.7628 16.4468 11.7628 16.4943 11.7153 16.5893C11.6678 16.6843 11.6678 16.7318 11.5728 16.7793C11.5253 16.8268 11.4778 16.8743 11.3828 16.8743C11.2878 16.9218 11.2403 16.9218 11.1453 16.9218C11.0503 16.9218 10.9553 16.9218 10.9078 16.8743C10.8128 16.8268 10.7653 16.8268 10.7178 16.7793C10.6703 16.7318 10.6228 16.6843 10.5753 16.5893C10.5278 16.4943 10.5278 16.4468 10.5278 16.3518V16.0668Z" fill="black"></path>
                                            <path d="M11.8584 17.7297C11.7634 17.6347 11.6684 17.5872 11.5734 17.5397C11.4309 17.4922 11.2884 17.4922 11.1459 17.4922C11.0034 17.4922 10.8609 17.4922 10.7659 17.5397C10.6709 17.5872 10.5284 17.6347 10.4334 17.7297C10.3384 17.8247 10.2909 17.9197 10.2434 18.0622C10.1959 18.2047 10.1484 18.2997 10.1484 18.4897C10.1484 18.6322 10.1959 18.7747 10.2434 18.9172C10.2909 19.0597 10.3384 19.1547 10.4334 19.2497C10.5284 19.3447 10.6234 19.3922 10.7659 19.4397C10.9084 19.4872 11.0034 19.4872 11.1459 19.4872C11.2884 19.4872 11.4309 19.4872 11.5259 19.4397C11.6209 19.3922 11.7634 19.3447 11.8109 19.2497C11.9059 19.1547 11.9534 19.0597 12.0009 18.9172C12.0484 18.7747 12.0959 18.6797 12.0959 18.4897C12.0959 18.3472 12.0484 18.2047 12.0009 18.0622C12.0009 17.9197 11.9534 17.8247 11.8584 17.7297ZM11.7159 18.6797C11.6684 18.7272 11.6684 18.8222 11.5734 18.8697C11.5259 18.9172 11.4784 18.9647 11.3834 18.9647C11.2884 19.0122 11.2409 19.0122 11.1459 19.0122C11.0509 19.0122 10.9559 19.0122 10.9084 18.9647C10.8134 18.9172 10.7659 18.9172 10.7184 18.8697C10.6709 18.8222 10.6234 18.7747 10.5759 18.6797C10.5284 18.6322 10.5284 18.5372 10.5284 18.4422C10.5284 18.3472 10.5284 18.2997 10.5759 18.2047C10.6234 18.1572 10.6234 18.0622 10.7184 18.0147C10.7659 17.9672 10.8134 17.9197 10.9084 17.9197C11.0034 17.8722 11.0509 17.8722 11.1459 17.8722C11.2409 17.8722 11.3359 17.8722 11.3834 17.9197C11.4784 17.9672 11.5259 17.9672 11.5734 18.0147C11.6209 18.0622 11.6684 18.1097 11.7159 18.2047C11.7634 18.2997 11.7634 18.3472 11.7634 18.4422C11.7634 18.5372 11.7634 18.6322 11.7159 18.6797Z" fill="black"></path>
                                            <path d="M11.9516 19.7727C11.9041 19.7252 11.8566 19.6777 11.7616 19.6302C11.7141 19.5827 11.6191 19.5827 11.5716 19.5827C11.4766 19.5827 11.4291 19.5827 11.3341 19.6302C11.2866 19.6777 11.2391 19.6777 11.1916 19.7252C11.1441 19.7727 11.0966 19.8202 11.0966 19.8677C11.0491 19.9152 11.0491 19.9627 11.0491 20.0102C11.0491 20.0577 11.0016 20.1052 11.0016 20.1527C11.0016 20.2002 10.9541 20.2477 10.9541 20.2952C10.9541 20.3427 10.9066 20.3902 10.9066 20.3902C10.8591 20.4377 10.8591 20.4377 10.8116 20.4377C10.7166 20.4377 10.6691 20.4377 10.6216 20.3902C10.5741 20.3427 10.5741 20.2952 10.5741 20.2002C10.5741 20.1527 10.5741 20.1052 10.6216 20.0577C10.6216 20.0102 10.6691 19.9627 10.6691 19.9627C10.6691 19.9152 10.7166 19.9152 10.7166 19.8677C10.7166 19.8202 10.7641 19.8202 10.7641 19.7727V19.7252C10.7641 19.7252 10.7641 19.6777 10.7166 19.6777L10.5266 19.5352C10.4791 19.5827 10.4316 19.6302 10.4316 19.6777C10.4316 19.7252 10.3841 19.7727 10.3366 19.8202C10.2891 19.8677 10.2891 19.9152 10.2891 20.0102V20.2002C10.2891 20.2952 10.2891 20.3902 10.3366 20.4852C10.3841 20.5802 10.4316 20.6277 10.4791 20.7227C10.5266 20.8177 10.6216 20.8177 10.6691 20.8652C10.7166 20.9127 10.8116 20.9127 10.9066 20.9127C11.0016 20.9127 11.0491 20.9127 11.0966 20.8652C11.1441 20.8177 11.1916 20.8177 11.2391 20.7702C11.2866 20.7227 11.3341 20.6752 11.3341 20.6277C11.3816 20.5802 11.3816 20.5327 11.3816 20.4852C11.3816 20.4377 11.4291 20.3902 11.4291 20.3427C11.4291 20.2952 11.4766 20.2477 11.4766 20.2002C11.4766 20.1527 11.5241 20.1052 11.5241 20.1052C11.5716 20.0577 11.5716 20.0577 11.6191 20.0577C11.6666 20.0577 11.7141 20.0577 11.7616 20.1052C11.8091 20.1527 11.8091 20.2002 11.8091 20.2952V20.4377C11.8091 20.4852 11.7616 20.4852 11.7616 20.5327C11.7616 20.5802 11.7141 20.5802 11.7141 20.6277V20.6752V20.7227L11.7616 20.7702L11.9516 20.8652C11.9991 20.8177 11.9991 20.7702 12.0466 20.7702C12.0941 20.7227 12.0941 20.6752 12.0941 20.6277C12.0941 20.5802 12.1416 20.5327 12.1416 20.4852V20.2952C12.1416 20.2002 12.1416 20.1052 12.0941 20.0102C12.0466 19.9152 11.9991 19.8202 11.9516 19.7727Z" fill="black"></path>
                                            <path d="M18.2266 0.392578H19.1766V3.10008H18.2266V0.392578Z" fill="black"></path>
                                            <path d="M19.8438 1.58008H20.7938V3.48008H19.8438V1.58008Z" fill="black"></path>
                                            <path d="M16.6094 1.58008H17.5594V3.48008H16.6094V1.58008Z" fill="black"></path>
                                            <path d="M6.77798 12.5056L5.73298 8.08812C5.97048 7.47062 6.20798 6.66312 6.39798 5.66562C6.44548 5.33312 6.35048 5.00062 6.11298 4.76312C5.87548 4.52562 5.54298 4.47812 5.21048 4.57312C5.02048 4.62062 4.87798 4.66812 4.68798 4.71562C4.59298 4.19312 4.11798 3.76562 3.54798 3.76562C2.97798 3.76562 2.50298 4.14562 2.40798 4.71562C2.26548 4.66812 2.07548 4.62062 1.88548 4.57312C1.55298 4.47812 1.22048 4.57312 0.982976 4.76312C0.650476 4.95312 0.555475 5.28562 0.602975 5.61812C0.792975 6.61562 1.03048 7.42312 1.26798 8.04062L0.222975 12.4581C0.0329754 13.1706 0.222975 13.8831 0.602975 14.4531L2.55048 17.1131C2.78798 17.3981 3.12048 17.5881 3.45298 17.5881C3.78548 17.5881 4.16548 17.3981 4.35548 17.1131L6.30298 14.4531C6.77798 13.9306 6.92048 13.2181 6.77798 12.5056ZM4.68798 5.61785C4.92548 5.57035 5.16298 5.52285 5.44798 5.42785C5.30548 6.04535 5.21048 6.56785 5.06798 7.04285C4.97298 6.94785 4.83048 6.90035 4.68798 6.85285V5.61785ZM3.26298 4.90535C3.26298 4.76285 3.35798 4.66785 3.50048 4.66785C3.64298 4.66785 3.73798 4.76285 3.73798 4.90535V6.66285H3.26298V4.90535ZM2.31298 5.61785V6.85285C2.17048 6.90035 2.07548 6.94785 1.93298 7.04285C1.79048 6.56785 1.64798 6.04535 1.55298 5.42785C1.83798 5.52285 2.07548 5.57035 2.31298 5.61785Z" fill="black"></path>
                                            <path d="M3.02344 0.392578H3.97344V3.10008H3.02344V0.392578Z" fill="black"></path>
                                            <path d="M1.41406 1.58008H2.36406V3.48008H1.41406V1.58008Z" fill="black"></path>
                                            <path d="M4.64062 1.58008H5.59063V3.48008H4.64062V1.58008Z" fill="black"></path>
                                        </svg>