<svg width="38" height="38" viewBox="0 0 18 21" fill="none" xmlns="http://www.w3.org/2000/svg">
<path d="M3.18223 5.14394H9.67073C9.81956 5.14394 9.93987 5.02324 9.93987 4.8748C9.93987 4.72617 9.81956 4.60566 9.67073 4.60566L3.18223 4.60547C3.03359 4.60547 2.91309 4.72617 2.91309 4.87461C2.91309 5.02344 3.0336 5.14394 3.18223 5.14394Z" fill="black"/>
<path d="M3.18223 7.45644H7.19373C7.34236 7.45644 7.46287 7.33574 7.46287 7.1873C7.46287 7.03867 7.34216 6.91816 7.19373 6.91816L3.18223 6.91797C3.03359 6.91797 2.91309 7.03867 2.91309 7.18711C2.91309 7.33574 3.0336 7.45644 3.18223 7.45644Z" fill="black"/>
<path d="M15.7555 13.462H14.6518V3.52697C14.6518 3.45587 14.6238 3.38751 14.5735 3.33693L11.5649 0.086525C11.5139 0.03125 11.4422 0 11.367 0H2.8865C1.63945 0 0.625 1.01445 0.625 2.2615V16.8C0.625 18.0471 1.63945 19.0614 2.8865 19.0614H6.2787V19.3037C6.2787 20.0459 6.8826 20.6498 7.6248 20.6498H15.7558C16.498 20.6498 17.1019 20.0459 17.1019 19.3037L17.1021 14.8078C17.1021 14.0654 16.4982 13.4617 15.7558 13.4617L15.7555 13.462ZM2.88647 18.5235C1.93627 18.5235 1.16342 17.7504 1.16342 16.8006V2.26212C1.16342 1.31192 1.93647 0.539065 2.88647 0.539065H11.071V3.50057C11.071 3.6492 11.1913 3.76971 11.3401 3.76971H14.1132V13.4622H12.7671V13.1392C12.7671 12.8431 12.5247 12.6007 12.2286 12.6007H11.1786C10.8825 12.6007 10.6401 12.843 10.6401 13.1392V13.462H7.62481C6.88261 13.462 6.27871 14.0659 6.27871 14.8081V18.5236L2.88647 18.5235ZM16.5635 19.3041C16.5635 19.7494 16.2012 20.1117 15.7559 20.1117L7.62487 20.1119C7.17956 20.1119 6.81727 19.7496 6.81727 19.3043L6.81708 14.808C6.81708 14.3627 7.17938 14.0004 7.62468 14.0004H15.7557C16.201 14.0004 16.5633 14.3627 16.5633 14.808L16.5635 19.3041Z" fill="black"/>
<path d="M10.64 17.2305H8.80918C8.48614 17.2305 8.21678 17.4729 8.16308 17.7959L7.97461 18.9535H11.4746L11.2861 17.7959C11.2324 17.4729 10.9633 17.2305 10.64 17.2305Z" fill="black"/>
<path d="M9.75215 16.8805C10.1561 16.8805 10.5061 16.5844 10.5598 16.1805V16.0729C10.5598 15.8305 10.4252 15.6152 10.2637 15.4537C10.1291 15.3461 9.96756 15.2652 9.8328 15.2383H9.75193C9.34803 15.2383 8.99804 15.5344 8.94434 15.9383V16.0729C8.94434 16.5035 9.29435 16.8805 9.75215 16.8805Z" fill="black"/>
<path d="M15.1902 15.6406H12.7672C12.6184 15.6406 12.498 15.7609 12.498 15.9098C12.498 16.0586 12.6184 16.1789 12.7672 16.1789H15.1902C15.3391 16.1789 15.4594 16.0586 15.4594 15.9098C15.4596 15.7609 15.3389 15.6406 15.1902 15.6406Z" fill="black"/>
<path d="M15.1902 16.9609H12.7672C12.6184 16.9609 12.498 17.0812 12.498 17.2301C12.498 17.3789 12.6184 17.4992 12.7672 17.4992H15.1902C15.3391 17.4992 15.4594 17.3789 15.4594 17.2301C15.4596 17.0812 15.3389 16.9609 15.1902 16.9609Z" fill="black"/>
<path d="M15.1902 18.2812H12.7672C12.6184 18.2812 12.498 18.4016 12.498 18.5504C12.498 18.6992 12.6184 18.8195 12.7672 18.8195H15.1902C15.3391 18.8195 15.4594 18.6992 15.4594 18.5504C15.4596 18.4016 15.3389 18.2812 15.1902 18.2812Z" fill="black"/>
<path d="M6.65319 11.5477C6.67584 11.55 6.69869 11.5518 6.72194 11.5518C7.09479 11.5518 7.54578 11.1846 8.25728 9.04984C8.30435 8.90882 8.22818 8.75628 8.08717 8.70921C7.94576 8.66214 7.79361 8.73851 7.74654 8.87933C7.17309 10.6 6.83679 10.9336 6.74439 10.9979C6.7026 10.8983 6.67232 10.6698 6.65494 10.5385C6.60377 10.1489 6.53931 9.6643 6.11744 9.6643C5.74693 9.6643 5.47349 10.0873 5.18404 10.535C5.16685 10.5616 5.1483 10.5907 5.12857 10.6205C5.12857 10.6151 5.12837 10.61 5.12837 10.6047C5.11919 10.083 5.10904 9.49163 4.69517 9.38188C4.24888 9.23344 3.73422 9.84438 2.87972 11.1012C2.79593 11.2243 2.82796 11.3917 2.95101 11.4754C3.07405 11.5594 3.24144 11.5268 3.32503 11.4042C3.92388 10.5235 4.32718 10.0241 4.52583 9.91686C4.58013 10.0571 4.58677 10.4264 4.58989 10.6145C4.59771 11.0633 4.60337 11.3878 4.89497 11.4604C4.9065 11.4633 4.91822 11.4655 4.93033 11.4667C5.20162 11.4979 5.37584 11.2307 5.63658 10.8276C5.74068 10.6663 5.9397 10.3587 6.06002 10.2442C6.08658 10.344 6.10767 10.503 6.12174 10.6092C6.1735 11.0024 6.23873 11.4922 6.65319 11.5477V11.5477Z" fill="black"/>
</svg>