<svg width="38" height="38" viewBox="0 0 28 26" fill="none" xmlns="http://www.w3.org/2000/svg">
<path d="M10.6664 6.4467C10.5032 6.4467 10.3672 6.31066 10.3672 6.14749V4.78749C10.3672 4.62432 10.5032 4.48828 10.6664 4.48828C10.8296 4.48828 10.9656 4.62432 10.9656 4.78749V6.14749C10.9656 6.31066 10.8296 6.4467 10.6664 6.4467Z" fill="black"/>
<path d="M11.6456 11.6971C11.564 11.6971 11.4551 11.6427 11.4008 11.5884L10.3672 10.1197V8.67812C10.3672 8.51495 10.5032 8.37891 10.6664 8.37891C10.8296 8.37891 10.9656 8.51495 10.9656 8.67812V9.92941L11.8904 11.235C11.9719 11.371 11.9448 11.5342 11.8088 11.6429C11.7543 11.6972 11.7 11.6971 11.6456 11.6971Z" fill="black"/>
<path d="M9.6891 11.6958C9.63465 11.6958 9.58039 11.6686 9.52593 11.6413C9.38989 11.5597 9.36276 11.3692 9.44435 11.2334L10.4235 9.84624C10.5051 9.71021 10.6956 9.68307 10.8315 9.76466C10.9675 9.84624 10.9946 10.0367 10.9131 10.1726L9.93385 11.5597C9.87959 11.6684 9.79801 11.6958 9.6891 11.6958Z" fill="black"/>
<path d="M10.6696 5.11374C10.6151 5.11374 10.5609 5.08661 10.5064 5.05929C10.3704 4.9777 10.3432 4.78721 10.4248 4.65136L11.404 3.26421C11.4856 3.12817 11.6761 3.10104 11.8119 3.18263C11.948 3.26421 11.9751 3.4547 11.8935 3.59055L10.9143 4.9777C10.8601 5.05929 10.7512 5.11374 10.6696 5.11374Z" fill="black"/>
<path d="M10.6683 5.11376C10.5867 5.11376 10.4778 5.05931 10.4235 5.00504L9.44435 3.61789C9.36276 3.48185 9.38989 3.31868 9.52593 3.20997C9.66197 3.12839 9.82514 3.15552 9.93385 3.29156L10.9131 4.67871C10.9946 4.81475 10.9675 4.97792 10.8315 5.08663C10.7772 5.08644 10.7228 5.11376 10.6683 5.11376Z" fill="black"/>
<path d="M13.2803 7.69608H11.9203C11.7571 7.69608 11.6211 7.56004 11.6211 7.39687C11.6211 7.2337 11.7571 7.09766 11.9203 7.09766H13.2803C13.4435 7.09766 13.5795 7.2337 13.5795 7.39687C13.5795 7.58717 13.4435 7.69608 13.2803 7.69608Z" fill="black"/>
<path d="M6.66957 8.67529C6.58799 8.67529 6.47908 8.62083 6.42481 8.56657C6.34323 8.43053 6.37036 8.26736 6.5064 8.15865L7.9751 7.125H9.4167C9.57987 7.125 9.71591 7.26104 9.71591 7.42421C9.71591 7.58738 9.57987 7.72342 9.4167 7.72342H8.16541L6.85985 8.64817C6.77846 8.6753 6.72402 8.67529 6.66957 8.67529Z" fill="black"/>
<path d="M8.05672 7.69798C8.00227 7.69798 7.948 7.67084 7.89355 7.64352L6.5064 6.66432C6.37036 6.58274 6.34323 6.39224 6.42481 6.2564C6.5064 6.12036 6.69689 6.09323 6.83274 6.17481L8.21989 7.15401C8.35593 7.2356 8.38306 7.42609 8.30147 7.56194C8.24702 7.67065 8.13831 7.69798 8.05672 7.69798Z" fill="black"/>
<path d="M14.6661 8.67844C14.6116 8.67844 14.5574 8.65131 14.5029 8.62399L13.1158 7.64479C12.9797 7.56321 12.9526 7.37271 13.0342 7.23687C13.1158 7.10083 13.3063 7.0737 13.4421 7.15528L14.8293 8.13448C14.9653 8.21607 14.9924 8.40656 14.9108 8.54241C14.8566 8.65112 14.7477 8.67844 14.6661 8.67844Z" fill="black"/>
<path d="M13.2789 7.698C13.1974 7.698 13.0885 7.64355 13.0342 7.58928C12.9526 7.45324 12.9797 7.29007 13.1158 7.18136L14.5029 6.20216C14.639 6.12057 14.8021 6.14771 14.9108 6.28374C14.9924 6.41978 14.9653 6.58295 14.8293 6.69167L13.4421 7.67067C13.3877 7.69799 13.3332 7.698 13.2789 7.698Z" fill="black"/>
<path d="M12.5171 9.54658C12.4355 9.54658 12.3811 9.51945 12.3266 9.46499L11.3745 8.5129C11.2658 8.40418 11.2658 8.21369 11.3745 8.10497C11.4832 7.99626 11.6737 7.99626 11.7824 8.10497L12.7345 9.05707C12.8432 9.16579 12.8432 9.35628 12.7345 9.46499C12.6529 9.51945 12.5987 9.54658 12.5171 9.54658Z" fill="black"/>
<path d="M9.68856 6.74501C9.60698 6.74501 9.55252 6.71787 9.49807 6.66342L8.68202 5.84737L7.10442 5.57529C6.94125 5.54816 6.83234 5.41212 6.85967 5.24895C6.8868 5.08578 7.05016 4.97687 7.18601 5.0042L8.95391 5.30341L9.87866 6.22816C9.98738 6.33688 9.98738 6.52737 9.87866 6.63608C9.85172 6.71785 9.77015 6.74501 9.68856 6.74501Z" fill="black"/>
<path d="M8.81762 5.87507C8.68159 5.87507 8.57287 5.76635 8.54555 5.63032L8.24634 3.97112C8.2192 3.80794 8.32792 3.67191 8.49109 3.64477C8.65426 3.61764 8.7903 3.72636 8.81743 3.88953L9.11664 5.54873C9.14378 5.7119 9.03506 5.84794 8.87189 5.87507H8.81762Z" fill="black"/>
<path d="M12.8176 11.2344C12.6816 11.2344 12.5729 11.1257 12.5455 10.9897L12.2463 9.33049C12.2192 9.16732 12.3279 9.03128 12.4911 9.00415C12.6543 8.97702 12.7903 9.08573 12.8174 9.24891L13.1166 10.9081C13.1438 11.0713 13.0351 11.2073 12.8719 11.2344H12.8176Z" fill="black"/>
<path d="M14.1775 9.84716H14.123L12.4638 9.54795C12.3006 9.52082 12.1917 9.38478 12.219 9.22161C12.2462 9.05844 12.3822 8.94953 12.5454 8.97685L14.2046 9.27606C14.3678 9.30319 14.4767 9.43923 14.4493 9.6024C14.4493 9.73844 14.3133 9.84716 14.1775 9.84716Z" fill="black"/>
<path d="M11.565 6.82783C11.4834 6.82783 11.429 6.8007 11.3745 6.74625C11.2658 6.63753 11.2658 6.44704 11.3745 6.33832L12.3266 5.38623C12.4353 5.27751 12.6258 5.27751 12.7345 5.38623C12.8432 5.49494 12.8432 5.68544 12.7345 5.79415L11.7553 6.74625C11.7011 6.8007 11.6466 6.82783 11.565 6.82783Z" fill="black"/>
<path d="M8.54559 11.2329H8.49114C8.32797 11.2058 8.21906 11.0697 8.24638 10.9066L8.54559 9.13867L9.55194 8.13232C9.66066 8.0236 9.85115 8.0236 9.95987 8.13232C10.0686 8.24104 10.0686 8.43153 9.95987 8.54024L9.08956 9.41035L8.81749 10.988C8.79035 11.124 8.68163 11.2329 8.54559 11.2329Z" fill="black"/>
<path d="M7.15904 9.84711C7.023 9.84711 6.91428 9.7384 6.88696 9.60236C6.85983 9.43919 6.96855 9.30315 7.13172 9.27602L8.79092 8.97681C8.95409 8.94967 9.09013 9.05839 9.11726 9.22156C9.14439 9.38473 9.03567 9.52077 8.8725 9.5479L7.2133 9.84711H7.15904Z" fill="black"/>
<path d="M12.5184 5.87446C12.3824 5.87446 12.2737 5.76574 12.2463 5.6297C12.2192 5.46653 12.3279 5.33049 12.4911 5.30336L14.1503 5.00415C14.3135 4.97702 14.4495 5.08573 14.4766 5.24891C14.5038 5.41208 14.395 5.54811 14.2319 5.57525L12.5727 5.87446H12.5184Z" fill="black"/>
<path d="M12.5183 5.87512H12.4638C12.3006 5.84799 12.1917 5.71195 12.219 5.54878L12.5183 3.88958C12.5454 3.72641 12.6814 3.6175 12.8446 3.64482C13.0078 3.67195 13.1167 3.80799 13.0893 3.97116L12.7901 5.63036C12.763 5.76621 12.6541 5.87512 12.5183 5.87512Z" fill="black"/>
<path d="M10.6677 8.97599C9.82453 8.97599 9.11719 8.29599 9.11719 7.4255C9.11719 6.58235 9.79719 5.875 10.6677 5.875C11.5382 5.875 12.2182 6.555 12.2182 7.4255C12.2182 8.26865 11.5109 8.97599 10.6677 8.97599ZM10.6677 6.4463C10.1237 6.4463 9.68848 6.88154 9.68848 7.4255C9.68848 7.96945 10.1237 8.4047 10.6677 8.4047C11.2116 8.4047 11.6469 7.96945 11.6469 7.4255C11.6469 6.88154 11.2116 6.4463 10.6677 6.4463Z" fill="black"/>
<path d="M23.5611 20.4544C23.3979 20.4544 23.2619 20.3184 23.2619 20.1552V3.20962C23.2619 2.17598 22.4187 1.30567 21.3579 1.30567H6.58831C5.55466 1.30567 4.68436 2.14882 4.68436 3.20962V20.1824C4.68436 20.3456 4.54832 20.4816 4.38515 20.4816C4.22198 20.4816 4.08594 20.3456 4.08594 20.1824V3.20962C4.08594 1.84962 5.20119 0.734375 6.56119 0.734375H21.358C22.718 0.734375 23.8332 1.84962 23.8332 3.20962V20.1824C23.8604 20.3456 23.7243 20.4545 23.5612 20.4545L23.5611 20.4544Z" fill="black"/>
<path d="M12.8696 14.4148H8.46327C8.3001 14.4148 8.16406 14.2788 8.16406 14.1156C8.16406 13.9524 8.3001 13.8164 8.46327 13.8164H12.8696C13.0328 13.8164 13.1688 13.9524 13.1688 14.1156C13.1688 14.2788 13.0328 14.4148 12.8696 14.4148Z" fill="black"/>
<path d="M12.8696 16.075H8.46327C8.3001 16.075 8.16406 15.9389 8.16406 15.7758C8.16406 15.6126 8.3001 15.4766 8.46327 15.4766H12.8696C13.0328 15.4766 13.1688 15.6126 13.1688 15.7758C13.1688 15.9389 13.0328 16.075 12.8696 16.075Z" fill="black"/>
<path d="M12.8696 17.7351H8.46327C8.3001 17.7351 8.16406 17.5991 8.16406 17.4359C8.16406 17.2728 8.3001 17.1367 8.46327 17.1367H12.8696C13.0328 17.1367 13.1688 17.2728 13.1688 17.4359C13.1688 17.5991 13.0328 17.7351 12.8696 17.7351Z" fill="black"/>
<path d="M18.6656 17.7335C18.0128 17.7335 17.4688 17.1896 17.4688 16.5367C17.4688 15.8838 18.0127 15.3398 18.6656 15.3398C19.3184 15.3398 19.8624 15.8838 19.8624 16.5367C19.8624 17.1894 19.3456 17.7335 18.6656 17.7335ZM18.6656 15.8838C18.3119 15.8838 18.04 16.1559 18.04 16.5094C18.04 16.8631 18.3121 17.1349 18.6656 17.1349C19.0193 17.1349 19.2912 16.8629 19.2912 16.5094C19.2912 16.1831 19.0193 15.8838 18.6656 15.8838Z" fill="black"/>
<path d="M18.6664 15.8859C18.5032 15.8859 18.3672 15.7499 18.3672 15.5867V2.72108C18.3672 2.55791 18.5032 2.42188 18.6664 2.42188C18.8296 2.42188 18.9656 2.55791 18.9656 2.72108V15.6139C18.9656 15.7771 18.8296 15.8858 18.6664 15.8858V15.8859Z" fill="black"/>
<path d="M20.9214 14.0359H19.643C19.4798 14.0359 19.3438 13.8999 19.3438 13.7367C19.3438 13.5735 19.4798 13.4375 19.643 13.4375H20.9214C21.0845 13.4375 21.2206 13.5735 21.2206 13.7367C21.2206 13.8999 21.0845 14.0359 20.9214 14.0359Z" fill="black"/>
<path d="M20.3501 12.864H19.643C19.4798 12.864 19.3438 12.728 19.3438 12.5648C19.3438 12.4017 19.4798 12.2656 19.643 12.2656H20.3501C20.5133 12.2656 20.6493 12.4017 20.6493 12.5648C20.6222 12.728 20.5133 12.864 20.3501 12.864Z" fill="black"/>
<path d="M20.9214 11.6961H19.643C19.4798 11.6961 19.3438 11.56 19.3438 11.3969C19.3438 11.2337 19.4798 11.0977 19.643 11.0977H20.9214C21.0845 11.0977 21.2206 11.2337 21.2206 11.3969C21.2206 11.56 21.0845 11.6961 20.9214 11.6961Z" fill="black"/>
<path d="M20.3501 10.5281H19.643C19.4798 10.5281 19.3438 10.3921 19.3438 10.2289C19.3438 10.0657 19.4798 9.92969 19.643 9.92969H20.3501C20.5133 9.92969 20.6493 10.0657 20.6493 10.2289C20.6222 10.3921 20.5133 10.5281 20.3501 10.5281Z" fill="black"/>
<path d="M20.9214 9.35623H19.643C19.4798 9.35623 19.3438 9.22019 19.3438 9.05702C19.3438 8.89385 19.4798 8.75781 19.643 8.75781H20.9214C21.0845 8.75781 21.2206 8.89385 21.2206 9.05702C21.2206 9.22019 21.0845 9.35623 20.9214 9.35623Z" fill="black"/>
<path d="M20.3501 8.18826H19.643C19.4798 8.18826 19.3438 8.05222 19.3438 7.88905C19.3438 7.72588 19.4798 7.58984 19.643 7.58984H20.3501C20.5133 7.58984 20.6493 7.72588 20.6493 7.88905C20.6222 8.05222 20.5133 8.18826 20.3501 8.18826Z" fill="black"/>
<path d="M20.9214 7.01639H19.643C19.4798 7.01639 19.3438 6.88035 19.3438 6.71718C19.3438 6.55401 19.4798 6.41797 19.643 6.41797H20.9214C21.0845 6.41797 21.2206 6.55401 21.2206 6.71718C21.2206 6.88035 21.0845 7.01639 20.9214 7.01639Z" fill="black"/>
<path d="M20.3501 5.84842H19.643C19.4798 5.84842 19.3438 5.71238 19.3438 5.54921C19.3438 5.38604 19.4798 5.25 19.643 5.25H20.3501C20.5133 5.25 20.6493 5.38604 20.6493 5.54921C20.6222 5.71257 20.5133 5.84842 20.3501 5.84842Z" fill="black"/>
<path d="M20.9214 4.67654H19.643C19.4798 4.67654 19.3438 4.54051 19.3438 4.37733C19.3438 4.21416 19.4798 4.07812 19.643 4.07812H20.9214C21.0845 4.07812 21.2206 4.21416 21.2206 4.37733C21.2206 4.54051 21.0845 4.67654 20.9214 4.67654Z" fill="black"/>
<path d="M27.5867 25.2684H0.386719V22.7933C0.386719 21.1886 1.69227 19.8828 3.29722 19.8828H24.7036C26.3084 19.8828 27.6141 21.1884 27.6141 22.7933L27.6139 25.2684H27.5867ZM0.957919 24.6973H27.0155V22.7933C27.0155 21.5149 25.9819 20.4541 24.6763 20.4541H3.29712C2.01872 20.4541 0.957919 21.4878 0.957919 22.7933V24.6973Z" fill="black"/>
</svg>