<svg width="38" height="38" viewBox="0 0 32 38" fill="none" xmlns="http://www.w3.org/2000/svg">
                                <path d="M24.5877 15.6463H24.5868L24.5871 8.94066H24.5868C24.5868 5.74645 22.8826 2.79473 20.1164 1.1978C17.35 -0.399268 13.9415 -0.399268 11.175 1.1978C8.40874 2.79487 6.70453 5.74666 6.70453 8.94066H6.65151V15.6466H6.70564C4.92721 15.6466 3.22129 16.3531 1.96371 17.6109C0.706429 18.8687 0 20.5743 0 22.3525V31.2939C0 33.0722 0.706472 34.7777 1.96371 36.0356C3.22121 37.2931 4.92714 37.9996 6.70564 37.9996H24.5885H24.5882C26.3667 37.9996 28.0726 37.2931 29.3302 36.0353C30.5874 34.7775 31.2939 33.0719 31.2939 31.2937V22.3522C31.2939 20.574 30.5874 18.8684 29.3302 17.6106C28.0724 16.3528 26.3667 15.6463 24.5882 15.6463H24.5877ZM8.88622 9.20487C8.91496 9.1195 8.93254 9.03077 8.93924 8.94065C8.93924 6.545 10.2177 4.33129 12.2922 3.13315C14.3672 1.93529 16.9233 1.93529 18.9981 3.13315C21.0732 4.331 22.351 6.54472 22.351 8.94065L22.3513 8.94204V15.6463H8.88559L8.88622 9.20487ZM29.0584 31.2942C29.057 32.4792 28.5857 33.6159 27.7475 34.4534C26.9094 35.2916 25.7732 35.7632 24.5877 35.7643L6.70622 35.7646C5.52065 35.7635 4.38479 35.2919 3.54636 34.4537C2.70822 33.6159 2.23694 32.4794 2.23551 31.2944V22.353C2.2369 21.168 2.70816 20.0313 3.54636 19.1937C4.38451 18.3556 5.52072 17.884 6.70622 17.8829H24.5891H24.5888C25.7744 17.884 26.9105 18.3555 27.7487 19.1937C28.5868 20.0316 29.0581 21.1681 29.0595 22.353L29.0584 31.2942ZM18.9998 26.8235C18.9998 27.713 18.6466 28.566 18.0174 29.1945C17.3887 29.8232 16.5358 30.1764 15.6468 30.1764C14.7573 30.1764 13.9043 29.8231 13.2757 29.1945C12.6471 28.5659 12.2939 27.713 12.2939 26.8235C12.2939 25.9342 12.6471 25.0815 13.2757 24.4529C13.9044 23.8237 14.7573 23.4705 15.6468 23.4705C16.536 23.4705 17.3887 23.8237 18.0174 24.4529C18.6466 25.0815 18.9998 25.9345 18.9998 26.8235Z" fill="black"/>
                                </svg>