<svg width="38" height="38" viewBox="0 0 37 40" fill="none" xmlns="http://www.w3.org/2000/svg">
<g clip-path="url(#clip0_3703_36202)">
<path fill-rule="evenodd" clip-rule="evenodd" d="M17.589 0C24.3755 4.30195 30.5066 6.33655 35.7677 5.85621C36.6869 24.4425 29.8232 35.4192 17.6593 40C5.91255 35.7121 -1.03555 25.2079 -0.520062 5.57348C5.65637 5.89682 11.7164 4.56203 17.589 0ZM14.3368 19.672C14.749 20.0215 15.1377 20.3977 15.5006 20.7982C16.6377 18.9675 17.8507 17.2867 19.1308 15.741C22.7517 11.368 21.1107 12.2107 26.1328 12.2107L25.4353 12.9863C23.2906 15.3685 22.5674 16.6095 20.8093 19.1487C19.0511 21.6909 17.4797 24.3144 16.0809 27.0145L15.6466 27.8541L15.2467 26.9996C14.5094 25.4157 13.6253 23.963 12.5724 22.6641C11.5188 21.3652 10.5988 20.5186 9.17026 19.5384C9.82476 17.3898 12.9403 18.4895 14.3368 19.672ZM17.6008 3.09603C23.2289 6.66302 28.6313 8.66872 32.9942 8.26961C33.7565 23.6834 27.7464 33.1042 17.6601 36.9032C7.91747 33.3479 1.83789 24.3191 2.26511 8.03608C7.91825 8.3321 13.0989 6.59351 17.6008 3.09603Z" fill="black"/>
</g>
<defs>
<clipPath id="clip0_3703_36202">
<rect width="36.3963" height="40" fill="white"/>
</clipPath>
</defs>
</svg>