   <svg width="38" height="38" viewBox="0 0 18 22" fill="none"
                                            xmlns="http://www.w3.org/2000/svg">
                                            <path
                                                d="M11.7032 8.76567L7.67764 12.0296L6.12714 10.2072C5.92318 10.0234 5.61413 10.0201 5.40654 10.2002C5.19897 10.3801 5.15799 10.6865 5.3111 10.9145L7.21505 13.145L7.26951 13.1995H7.97666L12.4103 9.6088C12.538 9.52437 12.6241 9.38985 12.6475 9.23844C12.671 9.08723 12.6294 8.93297 12.5334 8.81382C12.4372 8.69467 12.2953 8.62144 12.1424 8.61233C11.9897 8.60303 11.84 8.65881 11.7303 8.76563L11.7032 8.76567Z"
                                                fill="black" />
                                            <path
                                                d="M17.6047 6.09945C17.6054 5.4534 17.4147 4.82178 17.0565 4.28429C16.6981 3.74699 16.1885 3.32787 15.5918 3.08025L9.22703 0.4147C9.09611 0.361767 8.94983 0.361767 8.81891 0.4147L2.42691 3.08025C1.83021 3.32785 1.3206 3.74699 0.962193 4.28429C0.603979 4.82178 0.413288 5.4534 0.414065 6.09945V12.8995C0.414065 17.605 4.14042 21.5219 8.73726 21.6579H9.00934C11.2842 21.6579 13.4664 20.7561 15.0774 19.15C16.6884 17.5439 17.5972 15.3646 17.6044 13.0897L17.6047 6.09945ZM16.5168 13.0899L16.5166 13.0897C16.5101 15.1143 15.6861 17.0505 14.2318 18.4587C12.7774 19.8671 10.8155 20.6283 8.79183 20.5695C4.76628 20.4608 1.50223 17.0064 1.50223 12.8991V6.09912C1.5009 5.66956 1.62669 5.24912 1.86386 4.8909C2.10102 4.53269 2.43894 4.25282 2.8349 4.08627L9.0093 1.50232L15.1837 4.08627C15.5797 4.25285 15.9176 4.53271 16.1547 4.8909C16.3919 5.24912 16.5177 5.66955 16.5164 6.09912L16.5168 13.0899Z"
                                                fill="black" />
                                        </svg>