<svg width="38" height="38" viewBox="0 0 29 32" fill="none" xmlns="http://www.w3.org/2000/svg">
<path d="M23.4275 0.800781H2.98583C1.64857 0.800781 0.597656 1.89924 0.597656 3.18895V29.5535C0.597656 30.8908 1.69611 31.9417 2.98583 31.9417H24.1441C25.0515 31.9417 25.768 31.2252 25.8158 30.3656C27.4874 30.1267 28.7769 28.6939 28.7769 26.9745C28.7769 25.2551 27.4874 23.8223 25.8635 23.5834V3.18912C25.8635 1.85187 24.7651 0.801181 23.4278 0.801181L23.4275 0.800781ZM24.1438 30.9859H2.98554C2.17371 30.9859 1.55274 30.3172 1.55274 29.5531V3.18855C1.55274 2.37672 2.22149 1.75575 2.98554 1.75575H23.4273C24.2391 1.75575 24.8601 2.4245 24.8601 3.18855V23.5823C23.9527 23.7256 23.0929 24.2032 22.5197 25.0151C22.4719 25.0628 22.4241 25.1584 22.3764 25.2061C22.1375 25.636 21.9942 26.0657 21.8987 26.4956L17.0275 26.4958V25.5407C17.0275 25.2541 16.8364 25.063 16.5498 25.063C16.2632 25.063 16.0721 25.2541 16.0721 25.5407V26.4958H15.2125V24.7286C15.2125 24.442 15.0214 24.251 14.7348 24.251C14.4482 24.251 14.2572 24.442 14.2572 24.7286V26.4958H13.3976V25.5407C13.3976 25.2541 13.2065 25.063 12.9199 25.063C12.6333 25.063 12.4422 25.2541 12.4422 25.5407V26.4958H11.9167C11.6301 26.4958 11.4391 26.6869 11.4391 26.9735C11.4391 27.2601 11.6301 27.4512 11.9167 27.4512H21.9945C22.2333 29.1229 23.475 30.1736 24.9078 30.3646C24.8125 30.7465 24.5259 30.9853 24.1438 30.9853L24.1438 30.9859ZM27.8215 26.9739C27.8215 28.3111 26.723 29.4574 25.3858 29.4574C23.8097 29.4096 22.9023 28.2156 22.9023 26.9261C22.9023 25.5411 24.0485 24.4904 25.3858 24.4904C26.7228 24.4904 27.8215 25.6366 27.8215 26.9739Z" fill="black"/>
<path d="M4.99331 6.19755H21.423C21.7096 6.19755 21.9007 6.00647 21.9007 5.71987C21.9007 5.43326 21.7096 5.24219 21.423 5.24219L4.99331 5.24241C4.7067 5.24241 4.51562 5.43349 4.51562 5.72009C4.51562 6.00647 4.75447 6.19755 4.99331 6.19755Z" fill="black"/>
<path d="M4.99331 10.4475H21.423C21.7096 10.4475 21.9007 10.2565 21.9007 9.96987C21.9007 9.68326 21.7096 9.49219 21.423 9.49219H4.99331C4.7067 9.49219 4.51562 9.68326 4.51562 9.96987C4.51562 10.2565 4.75447 10.4475 4.99331 10.4475Z" fill="black"/>
<path d="M4.99331 14.6975H21.423C21.7096 14.6975 21.9007 14.5065 21.9007 14.2199C21.9007 13.9333 21.7096 13.7422 21.423 13.7422L4.99331 13.7424C4.7067 13.7424 4.51562 13.9335 4.51562 14.2201C4.51562 14.5065 4.75447 14.6975 4.99331 14.6975Z" fill="black"/>
<path d="M4.99331 18.9983H15.119C15.4056 18.9983 15.5967 18.8073 15.5967 18.5206C15.5967 18.234 15.4056 18.043 15.119 18.043L4.99331 18.0432C4.7067 18.0432 4.51562 18.2343 4.51562 18.5209C4.51562 18.8073 4.75447 18.9983 4.99331 18.9983Z" fill="black"/>
<path d="M17.459 22.7706C17.459 22.484 17.2679 22.293 16.9813 22.293H4.9933C4.7067 22.293 4.51562 22.484 4.51562 22.7706C4.51562 23.0573 4.7067 23.2483 4.9933 23.2483H16.9813C17.2199 23.2483 17.4588 23.0095 17.4588 22.7706H17.459Z" fill="black"/>
<path d="M25.3376 25.8281C24.7167 25.8281 24.1914 26.3536 24.1914 26.9744C24.1914 27.5953 24.7169 28.1206 25.3376 28.1206C25.9586 28.1206 26.4839 27.5951 26.4839 26.9744C26.4841 26.3536 26.0064 25.8281 25.3376 25.8281ZM25.3376 27.1654C25.2421 27.1654 25.1466 27.0698 25.1466 26.9743C25.1466 26.8788 25.2421 26.7832 25.3376 26.7832C25.4332 26.7832 25.5287 26.8788 25.5287 26.9743C25.5287 27.0698 25.4809 27.1654 25.3376 27.1654Z" fill="black"/>
</svg>