<svg width="38" height="38" viewBox="0 0 39 32" fill="none" xmlns="http://www.w3.org/2000/svg">
<path d="M24.6382 12.3619C23.2102 12.646 20.9381 11.8979 20.1462 11.1138H20.146C19.9144 10.8834 19.6008 10.7539 19.274 10.7539C18.9473 10.7539 18.6337 10.8834 18.4021 11.1138C17.6022 11.9138 15.3382 12.6459 13.9102 12.3619H13.9099C13.5424 12.2894 13.1621 12.3865 12.8739 12.6259C12.5873 12.8605 12.4213 13.2115 12.4219 13.5821V19.5821C12.4219 23.2141 18.0217 26.4822 19.2818 26.4822C20.5419 26.4822 26.1417 23.2141 26.1417 19.5821V13.5821H26.142C26.1387 13.2087 25.9668 12.8572 25.6741 12.6259C25.3859 12.3865 25.0056 12.2894 24.6382 12.3619ZM24.5341 19.5976C24.5341 21.9978 20.1781 24.6777 19.274 24.8937C18.37 24.6777 14.0139 21.9936 14.0139 19.5976V13.9975C15.8901 14.1077 17.7472 13.5697 19.274 12.4735C20.8011 13.5689 22.6582 14.1055 24.5341 13.9936V19.5976Z" fill="black"/>
<path d="M37.7442 7.08444e-06H0.799928C0.358243 7.08444e-06 0 0.358264 0 0.800222V30.8559C0 31.0683 0.084264 31.2717 0.234371 31.4218C0.384485 31.5716 0.587885 31.6562 0.799943 31.6562H37.7442C37.9563 31.6562 38.1597 31.5716 38.3098 31.4218C38.4599 31.2717 38.5442 31.0683 38.5442 30.8559V0.800222C38.5442 0.587886 38.4599 0.384486 38.3098 0.234371C38.1597 0.0845357 37.9563 7.08444e-06 37.7442 7.08444e-06ZM1.59993 1.59986L36.9435 1.60014V5.30021H1.59993V1.59986ZM1.59993 30.0556V6.89986H36.9435V30.0556H1.59993Z" fill="black"/>
<path d="M4.70533 3.44837C4.70533 3.89033 4.34735 4.24829 3.9054 4.24829C3.46371 4.24829 3.10547 3.89032 3.10547 3.44837C3.10547 3.00668 3.46373 2.64844 3.9054 2.64844C4.34736 2.64844 4.70533 3.00669 4.70533 3.44837Z" fill="black"/>
<path d="M6.60091 2.65237C6.27725 2.65237 5.98539 2.8474 5.86177 3.14623C5.73788 3.44534 5.80624 3.78937 6.03504 4.01816C6.26383 4.24695 6.60786 4.31532 6.90697 4.19143C7.20579 4.06782 7.40083 3.77597 7.40083 3.45229C7.40083 3.24023 7.31657 3.03683 7.16646 2.88672C7.01634 2.7366 6.81296 2.65237 6.60091 2.65237Z" fill="black"/>
<path d="M10.1001 3.44837C10.1001 3.89033 9.74189 4.24829 9.29993 4.24829C8.85824 4.24829 8.5 3.89032 8.5 3.44837C8.5 3.00668 8.85826 2.64844 9.29993 2.64844C9.74189 2.64844 10.1001 3.00669 10.1001 3.44837Z" fill="black"/>
</svg>