<svg width="38" height="38" viewBox="0 0 22 18" fill="none" xmlns="http://www.w3.org/2000/svg">
<path d="M17.4054 10.1875H9.39062C9.39062 10.2237 9.40884 10.26 9.40884 10.2962V10.7315H16.8796V12.0008L9.40884 12.001V12.5449H17.4236V10.1875L17.4054 10.1875Z" fill="black"/>
<path d="M8.86058 10.7314V10.2961C8.86058 10.2599 8.86058 10.2236 8.84237 10.1874C8.78791 9.73414 8.46158 9.35334 8.02632 9.24444V8.50086C8.02632 7.7755 7.44613 7.19531 6.73879 7.19531C6.03164 7.19531 5.45126 7.7755 5.45126 8.50086V9.24444C4.97977 9.35316 4.61719 9.7884 4.61719 10.2961V13.5238H8.87855V12.0007L8.87874 10.7314L8.86058 10.7314ZM5.97743 8.48285C5.97743 8.06582 6.32199 7.72125 6.72101 7.72125C7.13804 7.72125 7.46459 8.06581 7.46459 8.48285V9.19001H5.95946V8.48285H5.97743ZM6.99287 12.2365H6.44891V10.4957H6.99287V12.2365Z" fill="black"/>
<path d="M20.7044 0.378906H1.3021C0.758151 0.378906 0.304688 0.832175 0.304688 1.37632V16.6263C0.304688 17.1702 0.757956 17.6237 1.3021 17.6237H20.7044C21.2484 17.6237 21.7019 17.1704 21.7019 16.6263L21.7017 1.37632C21.7017 0.832175 21.2484 0.378906 20.7044 0.378906ZM6.85042 2.75434C6.85042 3.06266 6.59655 3.31651 6.28825 3.31651C5.97995 3.31651 5.7443 3.06264 5.7443 2.75434C5.7443 2.44602 5.99816 2.19217 6.30647 2.19217C6.61459 2.19217 6.85042 2.44604 6.85042 2.75434ZM5.03695 2.75434C5.03695 3.06266 4.78309 3.31651 4.47479 3.31651C4.16666 3.31651 3.93084 3.06264 3.93084 2.75434C3.93084 2.44602 4.1847 2.19217 4.493 2.19217C4.8013 2.19217 5.03695 2.44604 5.03695 2.75434ZM2.67973 2.19217C2.98805 2.19217 3.2419 2.44604 3.2419 2.75434C3.2419 3.06266 2.98804 3.31651 2.67973 3.31651C2.37143 3.31651 2.11757 3.06264 2.11757 2.75434C2.11757 2.44602 2.37143 2.19217 2.67973 2.19217ZM21.1578 16.6446C21.1578 16.8985 20.9584 17.0979 20.7045 17.0979H1.30215C1.04829 17.0979 0.848882 16.8985 0.848882 16.6446L0.848692 4.8398H21.1579L21.1578 16.6446Z" fill="black"/>
</svg>