<svg width="38" height="38" viewBox="0 0 31 31" fill="none" xmlns="http://www.w3.org/2000/svg">
<path d="M29.9725 9.91031L15.6096 0.668025C15.4717 0.579408 15.2942 0.579408 15.1563 0.668025L0.793974 9.91031C0.674328 9.98732 0.601562 10.1199 0.601562 10.2625V12.5043C0.601562 12.7355 0.789288 12.9232 1.02053 12.9232H1.95088V29.7455C1.95088 29.9768 2.1386 30.1645 2.36985 30.1645H28.3961C28.6274 30.1645 28.8151 29.9768 28.8151 29.7455L28.8153 12.9232H29.7457C29.9769 12.9232 30.1646 12.7355 30.1646 12.5043V10.2625C30.1646 10.1201 30.0919 9.98755 29.9722 9.91009L29.9725 9.91031ZM25.6089 29.3269H5.15744V15.3697H25.6089V29.3269ZM27.9776 29.3269H26.4466V14.9509C26.4466 14.7196 26.2589 14.5319 26.0276 14.5319H4.73847C4.50721 14.5319 4.31949 14.7196 4.31949 14.9509V29.3269H2.78847V12.9235H27.9776V29.3269ZM29.3269 12.0852H1.43949V10.4908L15.3835 1.51877L29.3275 10.4913L29.3269 12.0852ZM7.69664 8.33225V9.97134C7.69664 10.2026 7.88436 10.3903 8.11561 10.3903H22.6516C22.8829 10.3903 23.0706 10.2026 23.0706 9.97134V8.33225C23.0706 8.101 22.8829 7.91328 22.6516 7.91328H8.11561C7.88413 7.91328 7.69664 8.10101 7.69664 8.33225ZM8.53412 8.751H22.2318V9.55232H8.53412V8.751ZM21.8381 26.5687C22.6982 26.5687 23.3977 25.8689 23.3977 25.0091C23.3977 24.6665 23.2868 24.3384 23.0823 24.0685L23.0825 19.372C23.0825 18.6861 22.5243 18.1276 21.8381 18.1276C21.1522 18.1276 20.5937 18.6859 20.5937 19.372V24.0685C20.3895 24.3381 20.2783 24.6663 20.2783 25.0091C20.2786 25.8689 20.9783 26.5687 21.8381 26.5687ZM21.8381 18.9653C22.0625 18.9653 22.2448 19.1477 22.2448 19.372V24.2218C22.2448 24.3293 22.2861 24.4331 22.3604 24.511C22.489 24.6456 22.5598 24.8227 22.5598 25.0095C22.5598 25.4075 22.2361 25.7316 21.8377 25.7316C21.4392 25.7316 21.1155 25.4079 21.1155 25.0095C21.1155 24.8231 21.1863 24.6461 21.3149 24.511C21.3892 24.4331 21.4305 24.3298 21.4305 24.2218L21.4309 23.3296H21.5763C21.8075 23.3296 21.9952 23.1419 21.9952 22.9106C21.9952 22.6794 21.8075 22.4916 21.5763 22.4916H21.4309V22.1687H21.5763C21.8075 22.1687 21.9952 21.9809 21.9952 21.7497C21.9952 21.5184 21.8075 21.3307 21.5763 21.3307H21.4309V21.0077H21.5763C21.8075 21.0077 21.9952 20.82 21.9952 20.5888C21.9952 20.3575 21.8075 20.1698 21.5763 20.1698H21.4309V19.3718C21.4316 19.1477 21.6142 18.9653 21.8381 18.9653ZM7.36841 22.3479C7.36841 22.1166 7.55613 21.9289 7.78738 21.9289H8.31506L8.08604 21.6588C7.93627 21.4825 7.95814 21.2182 8.1347 21.0684C8.31104 20.9186 8.57533 20.9405 8.7251 21.1171L9.41373 21.9291H11.7213L10.0896 20.2974L9.0287 20.3847C9.0171 20.3856 9.00527 20.386 8.9941 20.386C8.77848 20.386 8.595 20.2204 8.57714 20.0014C8.55817 19.7708 8.72982 19.5688 8.96017 19.5499L9.31308 19.5208L8.93964 19.1474C8.77602 18.9838 8.77602 18.7188 8.93964 18.555C9.10325 18.3914 9.36865 18.3914 9.53204 18.555L9.90548 18.9284L9.93449 18.5755C9.95347 18.345 10.1559 18.174 10.3861 18.1923C10.6166 18.2113 10.7881 18.4137 10.7693 18.6438L10.682 19.7048L12.3138 21.3365V19.0289L11.5017 18.3402C11.3254 18.1905 11.3033 17.9262 11.453 17.7498C11.6028 17.5735 11.8671 17.5518 12.0434 17.7012L12.3135 17.9302V17.403C12.3135 17.1717 12.5013 16.984 12.7325 16.984C12.9637 16.984 13.1515 17.1717 13.1515 17.403V17.9306L13.4216 17.7016C13.5981 17.5518 13.8622 17.5739 14.012 17.7503C14.1617 17.9266 14.1399 18.1909 13.9633 18.3407L13.1512 19.0293V21.3369L14.783 19.7052L14.6957 18.6438C14.6767 18.4132 14.8484 18.2112 15.0787 18.1923C15.3093 18.1742 15.5118 18.3449 15.5303 18.5755L15.5593 18.9284L15.9327 18.555C16.0963 18.3914 16.3613 18.3914 16.5251 18.555C16.6887 18.7186 16.6887 18.9836 16.5251 19.1474L16.1517 19.5208L16.5046 19.5498C16.7352 19.5688 16.9066 19.7713 16.8879 20.0014C16.8698 20.2204 16.6865 20.386 16.4709 20.386C16.4593 20.386 16.4479 20.3858 16.4363 20.3847L15.3754 20.2974L13.7437 21.9291H16.0513L16.7399 21.117C16.8897 20.9407 17.154 20.9191 17.3303 21.0684C17.5066 21.2182 17.5287 21.4824 17.379 21.6588L17.1499 21.9289H17.6776C17.9089 21.9289 18.0966 22.1166 18.0966 22.3478C18.0966 22.5791 17.9089 22.7668 17.6776 22.7668H17.1499L17.379 23.0369C17.5287 23.2132 17.5069 23.4775 17.3303 23.6273C17.2517 23.6941 17.1553 23.7266 17.0595 23.7266C16.9408 23.7266 16.8229 23.6764 16.7399 23.5787L16.0513 22.7666H13.7437L15.3754 24.3983L16.4363 24.311C16.6662 24.2921 16.8693 24.4637 16.8878 24.6943C16.9066 24.9249 16.7352 25.1269 16.5048 25.1459L16.1519 25.1749L16.5253 25.5483C16.689 25.7119 16.689 25.9769 16.5253 26.1407C16.4436 26.2224 16.3363 26.2635 16.2289 26.2635C16.1216 26.2635 16.0146 26.2224 15.9325 26.1407L15.5591 25.7673L15.53 26.1202C15.512 26.3391 15.3287 26.5048 15.1131 26.5048C15.1015 26.5048 15.0901 26.5046 15.0785 26.5034C14.8479 26.4845 14.6765 26.282 14.6954 26.0519L14.7827 24.9905L13.151 23.3588V25.6664L13.9631 26.355C14.1394 26.5048 14.1615 26.7691 14.0117 26.9454C13.9287 27.0432 13.8108 27.0934 13.6921 27.0934C13.5963 27.0934 13.5001 27.0608 13.4213 26.9941L13.1512 26.7651V27.2927C13.1512 27.524 12.9635 27.7117 12.7322 27.7117C12.501 27.7117 12.3133 27.524 12.3133 27.2927V26.7651L12.0432 26.9941C11.8668 27.1439 11.6026 27.122 11.4528 26.9454C11.303 26.7691 11.3249 26.5048 11.5014 26.355L12.3135 25.6664V23.3588L10.6818 24.9905L10.7691 26.0519C10.788 26.2825 10.6164 26.4845 10.386 26.5034C10.3744 26.5043 10.3626 26.5048 10.3514 26.5048C10.1358 26.5048 9.95232 26.3392 9.93446 26.1202L9.90544 25.7673L9.532 26.1407C9.4503 26.2224 9.34294 26.2635 9.23557 26.2635C9.12821 26.2635 9.02129 26.2224 8.93914 26.1407C8.77553 25.9771 8.77553 25.7121 8.93914 25.5483L9.31258 25.1749L8.95968 25.1459C8.7291 25.1269 8.55767 24.9244 8.57642 24.6943C8.5954 24.4637 8.79785 24.2921 9.02798 24.311L10.0889 24.3983L11.7206 22.7666H9.41301L8.72438 23.5787C8.64135 23.6764 8.52349 23.7266 8.40474 23.7266C8.30898 23.7266 8.21277 23.6941 8.13398 23.6273C7.95764 23.4775 7.93554 23.2132 8.08532 23.0369L8.31434 22.7668H7.78666C7.55585 22.7668 7.36835 22.5795 7.36835 22.3478L7.36841 22.3479Z" fill="black"/>
</svg>