<svg width="38" height="38" viewBox="0 0 50 50" fill="none" xmlns="http://www.w3.org/2000/svg">
<path fill-rule="evenodd" clip-rule="evenodd" d="M10.0306 17.3712C10.1149 17.0872 10.4134 16.9245 10.6977 17.0088C11.4843 17.2418 12.364 17.4404 13.3124 17.6006C13.6048 17.6497 13.8015 17.9267 13.7524 18.2189C13.7083 18.4809 13.4812 18.6664 13.2236 18.6664C13.1941 18.6664 13.1639 18.6639 13.1335 18.6589C12.1427 18.4918 11.2206 18.283 10.393 18.0381C10.1084 17.9541 9.94633 17.6555 10.0306 17.3712ZM10.393 26.1612C11.2206 26.4062 12.1427 26.6149 13.1335 26.782C13.1637 26.7871 13.1935 26.7896 13.2237 26.7896C13.4806 26.7896 13.7083 26.604 13.7524 26.342C13.8015 26.0499 13.6048 25.7728 13.3124 25.7237C12.364 25.5638 11.4845 25.3646 10.6977 25.1319C10.4137 25.0482 10.1149 25.2103 10.0306 25.4944C9.94634 25.779 10.1084 26.0772 10.393 26.1612ZM13.3118 33.8469C12.3635 33.6871 11.484 33.4878 10.6972 33.2551C10.4131 33.1709 10.1143 33.333 10.03 33.6176C9.94578 33.9016 10.1079 34.2004 10.3925 34.2847C11.2203 34.5297 12.1425 34.7384 13.1333 34.9055C13.1637 34.9105 13.1938 34.913 13.2234 34.913C13.4804 34.913 13.7081 34.7275 13.7521 34.4655C13.8012 34.1731 13.6042 33.8966 13.3118 33.8469ZM43.8754 25.0855V32.9591C43.8754 38.4261 38.4108 42.8026 34.4661 43.8598C34.4206 43.8718 34.374 43.8782 34.3274 43.8782C34.2808 43.8782 34.234 43.8721 34.1888 43.8598C31.7493 43.2061 28.7287 41.2828 26.778 38.6173C24.5481 39.1544 21.9014 39.4376 19.093 39.4376C12.7448 39.4376 5.99805 37.8483 5.99805 34.9038V10.5338C5.99805 7.58929 12.7453 6 19.093 6C25.441 6.00028 32.188 7.589 32.188 10.5338V22.0631H36.9673C37.0789 22.0631 37.188 22.0979 37.279 22.163C38.647 23.1392 40.8161 24.346 43.3814 24.55C43.6607 24.5723 43.8756 24.8053 43.8756 25.0854L43.8754 25.0855ZM7.0711 10.5334C7.0711 11.3126 8.33732 12.1996 10.3752 12.8484C12.6961 13.5872 15.7918 13.9937 19.0931 13.9937C22.3939 13.9937 25.4899 13.5872 27.811 12.8484C29.8492 12.1996 31.1151 11.3126 31.1151 10.5334C31.1151 9.75407 29.8489 8.86707 27.811 8.21836C25.4901 7.4795 22.3944 7.073 19.0931 7.073C15.7923 7.073 12.6963 7.47981 10.3752 8.21864C8.3376 8.86736 7.0711 9.75436 7.0711 10.5334ZM7.0711 18.6562C7.0711 19.4355 8.33732 20.3225 10.3752 20.9712C12.6961 21.7101 15.7918 22.1166 19.0931 22.1166C22.3939 22.1166 25.4899 21.71 27.811 20.9712C29.8492 20.3225 31.1151 19.4355 31.1151 18.6562V12.4199C28.9633 14.1504 23.9137 15.0669 19.0937 15.0669C14.2734 15.0669 9.22368 14.1504 7.07225 12.4199L7.0711 18.6562ZM7.0711 26.7798C7.0711 27.5591 8.33732 28.4461 10.3752 29.0948C12.6961 29.8336 15.7918 30.2401 19.0931 30.2401C21.0777 30.2401 23.0325 30.0881 24.779 29.8007V25.0853C24.779 24.8051 24.9941 24.5724 25.2731 24.5504C27.681 24.3587 29.7399 23.2837 31.1149 22.3453V20.5437C28.9631 22.2742 23.9135 23.1907 19.0935 23.1907C14.2732 23.1907 9.22346 22.2742 7.07203 20.5437L7.0711 26.7798ZM26.1454 37.6598C25.3036 36.2416 24.7787 34.6523 24.7787 32.9581V30.8869C23.0201 31.1662 21.0692 31.3133 19.0929 31.3133C14.2726 31.3133 9.22289 30.3967 7.07146 28.6662V34.9026C7.07146 35.6818 8.33768 36.5688 10.3756 37.2176C12.6965 37.9564 15.7922 38.3629 19.0935 38.3629C21.6202 38.3629 24.0907 38.1146 26.1459 37.6598H26.1454ZM42.8025 25.5691C40.7832 25.3141 38.7205 24.4789 36.7972 23.1366H31.8578C29.9345 24.4792 27.8715 25.314 25.8525 25.5691V32.9584C25.8525 37.7597 30.8135 41.7726 34.3275 42.7834C37.8417 41.7725 42.8025 37.7596 42.8025 32.9584V25.5691ZM36.6153 24.2421C38.1544 25.2557 39.7548 25.9628 41.3715 26.3434C41.6139 26.4006 41.7852 26.6168 41.7852 26.866V32.9589C41.7852 34.7231 40.9407 36.6288 39.4069 38.3252C38.038 39.8389 36.2509 41.0552 34.5032 41.662C34.446 41.6816 34.3865 41.6916 34.3274 41.6916C34.2682 41.6916 34.2083 41.6816 34.1516 41.662C32.4041 41.0554 30.6168 39.8392 29.2479 38.3252C27.7141 36.6291 26.8695 34.7231 26.8695 32.9589V26.8657C26.8695 26.6165 27.0409 26.4003 27.2833 26.3431C28.9 25.9622 30.5004 25.2554 32.0395 24.2418C32.1271 24.1843 32.2298 24.1533 32.3344 24.1533H36.3199C36.4251 24.1533 36.528 24.184 36.6153 24.2421ZM40.7121 27.2839C39.1616 26.869 37.6334 26.1782 36.1607 25.2267H32.4945C31.0221 26.1779 29.4933 26.8687 27.9431 27.2839V32.9586C27.9431 36.1357 31.211 39.424 34.3276 40.5843C37.4442 39.4239 40.7121 36.1359 40.7121 32.9586L40.7124 27.2839H40.7121ZM34.3273 26.0373C35.8923 26.0373 37.1657 27.3107 37.1657 28.8757V30.1307H37.7386C38.0349 30.1307 38.2751 30.3712 38.2751 30.6673V34.4906C38.2751 36.6678 36.5039 38.439 34.3268 38.439C32.1496 38.439 30.3784 36.6678 30.3784 34.4906V30.6673C30.3784 30.371 30.6189 30.1307 30.915 30.1307H31.4883L31.4886 28.8757C31.4892 27.3107 32.7623 26.0373 34.3273 26.0373ZM37.2023 31.2044H31.4523V34.4907C31.4523 36.0758 32.742 37.3657 34.3273 37.3657C35.9124 37.3657 37.2023 36.0761 37.2023 34.4907V31.2044ZM34.3273 27.1112C33.3541 27.1112 32.5622 27.9028 32.5622 28.8763V30.1313H36.0924V28.8757C36.0924 27.9028 35.3008 27.1112 34.3273 27.1112ZM33.7908 34.0323V35.2761C33.7908 35.5725 34.0313 35.8127 34.3273 35.8127C34.6236 35.8127 34.8639 35.5722 34.8639 35.2761V34.0323C35.0818 33.8685 35.2235 33.6085 35.2235 33.3164C35.2235 32.8225 34.8209 32.4196 34.3267 32.4196C33.8329 32.4196 33.43 32.8225 33.43 33.3164C33.4308 33.6088 33.5729 33.8683 33.7908 34.0323Z" fill="black"/>
</svg>