<svg width="38" height="38" viewBox="0 0 24 26" fill="none" xmlns="http://www.w3.org/2000/svg">
<path d="M6.81398 7.0852H4.44933C4.22697 7.0852 4.04672 7.26544 4.04672 7.48781V9.85247C4.04672 10.0748 4.22696 10.2551 4.44933 10.2551H6.81398C7.03635 10.2551 7.2166 10.0748 7.2166 9.85247V7.48781C7.21622 7.26545 7.03597 7.0852 6.81398 7.0852ZM6.41137 9.45005H4.8516V7.89027H6.41137V9.45005ZM9.02719 7.488C9.02719 7.26564 9.20743 7.08539 9.4298 7.08539H15.442C15.6643 7.08539 15.8446 7.26563 15.8446 7.488C15.8446 7.71037 15.6643 7.89062 15.442 7.89062H9.43028C9.20773 7.89024 9.02748 7.70999 9.02748 7.488H9.02719ZM9.02719 9.85227C9.02719 9.6299 9.20743 9.44965 9.4298 9.44965H15.442C15.6643 9.44965 15.8446 9.6299 15.8446 9.85227C15.8446 10.0746 15.6643 10.2549 15.442 10.2549H9.43028C9.20773 10.2547 9.02748 10.0744 9.02748 9.85227H9.02719ZM6.81398 12.4683H4.44933C4.22696 12.4683 4.04671 12.6485 4.04671 12.8709V15.2355C4.04671 15.4577 4.22696 15.6382 4.44933 15.6382H6.81398C7.03634 15.6382 7.21659 15.4579 7.21659 15.2355V12.8709C7.21621 12.6485 7.03596 12.4683 6.81398 12.4683ZM6.41137 14.8331H4.85159V13.2733H6.41137V14.8331ZM9.02718 12.8709C9.02718 12.6486 9.20742 12.4683 9.42979 12.4683H15.442C15.6643 12.4683 15.8446 12.6486 15.8446 12.8709C15.8446 13.0933 15.6643 13.2734 15.442 13.2734H9.43028C9.20773 13.2734 9.02748 13.0935 9.02748 12.8709H9.02718ZM9.02718 15.2354C9.02718 15.0132 9.20742 14.8328 9.42979 14.8328H15.442C15.6643 14.8328 15.8446 15.013 15.8446 15.2354C15.8446 15.4578 15.6643 15.638 15.442 15.638H9.43028C9.20773 15.638 9.02748 15.4578 9.02748 15.2354H9.02718ZM6.81397 17.8518H4.44932C4.22696 17.8518 4.04671 18.032 4.04671 18.2544V20.6191C4.04671 20.8412 4.22695 21.0217 4.44932 21.0217H6.81397C7.03634 21.0217 7.21659 20.8414 7.21659 20.6191V18.2541C7.21621 18.0319 7.03596 17.8518 6.81397 17.8518ZM6.41136 20.2162H4.85159V18.6565H6.41136V20.2162ZM13.3313 18.2541C13.3313 18.4762 13.1511 18.6567 12.9287 18.6567H9.42988C9.20751 18.6567 9.02726 18.4764 9.02726 18.2541C9.02726 18.0317 9.20751 17.8514 9.42988 17.8514H12.9287C13.1511 17.8518 13.3313 18.0319 13.3313 18.2541ZM13.3313 20.6189C13.3313 20.8411 13.1511 21.0215 12.9287 21.0215H9.42988C9.20751 21.0215 9.02726 20.8413 9.02726 20.6189C9.02726 20.3967 9.20751 20.2163 9.42988 20.2163H12.9287C13.1511 20.2163 13.3313 20.3963 13.3313 20.6189ZM21.1159 19.6906C21.2737 19.8469 21.2751 20.1017 21.1187 20.2598L18.3771 23.0285C18.3018 23.1048 18.1991 23.1475 18.0921 23.1479H18.091C17.9842 23.1479 17.8819 23.1054 17.8066 23.03L16.2819 21.5053C16.1246 21.348 16.1246 21.0934 16.2819 20.9361C16.4392 20.7788 16.6938 20.7792 16.8511 20.9361L18.0895 22.1745L20.5463 19.693C20.703 19.5353 20.9576 19.534 21.1159 19.6906ZM19.1021 16.8637V4.1424C19.1021 3.36584 18.4702 2.73364 17.6933 2.73364H14.2219V1.82802C14.2219 1.60566 14.0417 1.42541 13.8193 1.42541H11.9C11.5793 0.641419 10.8157 0.117188 9.94517 0.117188C9.07467 0.117188 8.31118 0.641419 7.99037 1.42541H6.07102C5.84865 1.42541 5.6684 1.60565 5.6684 1.82802V2.73364H2.19783C1.42088 2.73364 0.789062 3.36546 0.789062 4.1424V22.6564C0.789062 23.4333 1.42088 24.0651 2.19783 24.0651H15.0858C15.9104 25.1639 17.2233 25.8761 18.6996 25.8761C21.1893 25.8761 23.2148 23.8505 23.2148 21.3609C23.215 19.0067 21.4038 17.0682 19.102 16.8638L19.1021 16.8637ZM6.47446 2.23063H8.28296C8.4689 2.23063 8.63055 2.10313 8.67419 1.92232C8.81611 1.33358 9.33918 0.922424 9.94579 0.922424C10.5524 0.922424 11.0755 1.33357 11.2174 1.92232C11.261 2.10313 11.4229 2.23063 11.6086 2.23063H13.4171V4.04162L6.47433 4.04181L6.47446 2.23063ZM2.19808 23.2601C1.8651 23.2601 1.59434 22.9892 1.59434 22.6564V4.1424C1.59434 3.80942 1.86527 3.53866 2.19808 3.53866H5.66943V4.44428C5.66943 4.66664 5.84968 4.84689 6.07205 4.84689H13.8197C14.042 4.84689 14.2223 4.66665 14.2223 4.44428V3.53866H17.6936C18.0266 3.53866 18.2974 3.8096 18.2974 4.1424V16.8637C15.9955 17.0681 14.1845 19.007 14.1845 21.3608C14.1845 22.0389 14.335 22.6823 14.6039 23.26H2.19823L2.19808 23.2601ZM18.6997 25.0713C16.6539 25.0713 14.9891 23.4068 14.9891 21.3611C14.9891 19.3152 16.6537 17.6508 18.6997 17.6508C20.7456 17.6508 22.41 19.3154 22.41 21.3611C22.4103 23.4069 20.7458 25.0713 18.6997 25.0713Z" fill="black"/>
</svg>