<svg width="38" height="38" viewBox="0 0 26 16" fill="none" xmlns="http://www.w3.org/2000/svg">
<path d="M21.6363 1.74312C21.3642 1.47104 20.9291 1.47104 20.6842 1.74312C20.4121 2.0152 20.4121 2.45027 20.6842 2.69522L21.1467 3.18472L23.5946 5.63262L20.6572 8.57008C20.3851 8.84216 20.3851 9.27723 20.6572 9.52217C20.7932 9.65821 20.9564 9.71267 21.1467 9.71267C21.3372 9.71267 21.5003 9.65821 21.6362 9.52217L25.0362 6.12217C25.3083 5.8501 25.3083 5.41502 25.0362 5.17008L21.6363 1.74312Z" fill="black"/>
<path d="M5.31749 2.72256C5.58957 2.45048 5.58957 2.01541 5.31749 1.77046C5.04541 1.49839 4.61034 1.49839 4.36539 1.77046L0.938433 5.14351C0.666356 5.41559 0.666356 5.85066 0.938433 6.0956L4.33843 9.4956C4.47447 9.63164 4.63764 9.6861 4.82794 9.6861C5.01843 9.6861 5.18159 9.63164 5.31744 9.4956C5.58952 9.22353 5.58952 8.78845 5.31744 8.54351L4.82794 8.08094L2.38003 5.63304L4.82794 3.18514L5.31749 2.72256Z" fill="black"/>
<path d="M15.9242 9.3594C17.0394 8.4889 17.7466 7.1289 17.7466 5.63305C17.7466 3.02175 15.5979 0.873047 12.9866 0.873047C10.3753 0.873047 8.22656 3.02175 8.22656 5.63305C8.22656 8.24434 10.3753 10.393 12.9866 10.393C13.6121 10.393 14.2105 10.257 14.7545 10.0394L17.5016 14.7994C17.6377 15.017 17.8553 15.153 18.1 15.153C18.2087 15.153 18.3448 15.1259 18.4264 15.0715C18.7527 14.881 18.8616 14.4731 18.6711 14.1467L15.9242 9.3594ZM12.9866 9.03306C11.1097 9.03306 9.58656 7.5099 9.58656 5.63306C9.58656 3.75621 11.1097 2.23306 12.9866 2.23306C14.8634 2.23306 16.3866 3.75621 16.3866 5.63306C16.3866 7.5099 14.8634 9.03306 12.9866 9.03306Z" fill="black"/>
</svg>