<svg width="38" height="38" viewBox="0 0 24 20" fill="none" xmlns="http://www.w3.org/2000/svg">
<path d="M3.1427 8.43905H5.45761V9.21071H3.1427V8.43905ZM6.22927 9.21071H8.54418V8.43905H6.22927V9.21071ZM9.31584 9.21071H11.6308V8.43905H9.31584V9.21071ZM14.717 8.43905H12.4021V9.21071H14.717V8.43905ZM21.6617 10.754H23.205V19.2418H13.174V16.1553H0.828125L0.828315 0.722656H20.8907V7.8238C21.3871 8.43381 21.6593 9.19555 21.6624 9.98202L21.6617 10.754ZM18.1894 7.28169C17.4736 7.28245 16.7871 7.56724 16.2807 8.07365C15.7745 8.57986 15.4898 9.26632 15.4888 9.98236V10.754H20.8899L20.8901 9.98236C20.8892 9.26632 20.6044 8.57986 20.098 8.07365C19.5917 7.56725 18.9053 7.28247 18.1892 7.28169H18.1894ZM20.1185 7.09633V6.89597H19.7492L19.7494 6.89578C19.8764 6.95517 19.9997 7.02214 20.1187 7.09633H20.1185ZM1.59963 4.58105H20.1185L20.1187 1.49449H1.59934L1.59963 4.58105ZM13.1742 10.754H14.7175V9.98234C14.719 9.34125 14.8987 8.71303 15.2364 8.1681C15.5741 7.62299 16.0566 7.18264 16.63 6.89577H1.59954V15.3836H13.1741L13.1742 10.754ZM13.9459 11.5257V18.4704H22.4337L22.4339 11.5257H13.9459ZM17.8041 15.3129V16.9269H18.5757V15.3129C18.9218 15.1905 19.1893 14.9114 19.2967 14.5604C19.4041 14.2096 19.3387 13.8285 19.1205 13.5334C18.9023 13.2383 18.5569 13.0642 18.1898 13.0642C17.8229 13.0642 17.4776 13.2384 17.2594 13.5334C17.0412 13.8284 16.9758 14.2096 17.0831 14.5604C17.1905 14.9114 17.4581 15.1906 17.8041 15.3129H17.8041Z" fill="black"/>
</svg>