<svg width="38" height="38" viewBox="0 0 31 31" fill="none" xmlns="http://www.w3.org/2000/svg">
<path d="M28.6875 26.707H27.9094C28.0895 26.4044 28.1855 26.0593 28.1875 25.707V10.207C28.187 9.67669 27.9761 9.16842 27.6011 8.79345C27.2261 8.41848 26.7178 8.20751 26.1875 8.20705H23.6875V7.70705C23.687 7.30928 23.5288 6.92802 23.2478 6.64676C22.9665 6.36573 22.5852 6.20748 22.1875 6.20703H15.8675C16.0358 5.86685 16.1384 5.49812 16.1706 5.12C16.5641 4.98273 16.8824 4.68764 17.0492 4.30572C17.2159 3.92357 17.2157 3.48943 17.0487 3.10772C16.882 2.7258 16.5634 2.43069 16.1699 2.29366C16.2005 2.31152 16.1835 1.23315 16.1873 1.20703C16.1873 0.930917 15.9634 0.707031 15.6873 0.707031C15.4112 0.707031 15.1873 0.930917 15.1873 1.20703C15.1913 1.23672 15.1735 2.3068 15.2047 2.29366C14.815 2.42982 14.4987 2.72045 14.3304 3.09743C14.1621 3.47444 14.157 3.90435 14.3161 4.28515C14.4753 4.66617 14.7844 4.9644 15.171 5.10972C15.1179 5.5144 14.9496 5.89543 14.6862 6.20703H9.18734C8.78958 6.20748 8.40831 6.36573 8.12706 6.64676C7.84603 6.92801 7.68777 7.30928 7.68733 7.70705V8.20705H5.18733C4.65697 8.2075 4.1487 8.41843 3.77373 8.79345C3.39875 9.16847 3.18778 9.67671 3.18733 10.207V25.707C3.18933 26.0593 3.28531 26.4044 3.46545 26.707H2.68734C1.97728 26.7135 1.32374 27.0963 0.970594 27.7124C0.617468 28.3285 0.617468 29.0856 0.970594 29.7017C1.32372 30.318 1.97728 30.7005 2.68734 30.707H28.6873C29.3974 30.7006 30.0509 30.318 30.4041 29.7017C30.7572 29.0856 30.7572 28.3285 30.4041 27.7124C30.051 27.0961 29.3974 26.7136 28.6873 26.707H28.6875ZM15.6875 3.20705C15.9609 3.21084 16.1806 3.43361 16.1806 3.70705C16.1806 3.98049 15.9609 4.20325 15.6875 4.20705C15.414 4.20325 15.1944 3.98049 15.1944 3.70705C15.1944 3.43361 15.414 3.21084 15.6875 3.20705ZM7.77947 23.207C7.88215 23.4988 8.07255 23.7515 8.32479 23.9305C8.5768 24.1095 8.87813 24.2061 9.1873 24.207H22.1873C22.4965 24.2061 22.7978 24.1095 23.0498 23.9305C23.302 23.7515 23.4924 23.4988 23.5951 23.207C23.8657 23.1858 24.1331 23.2751 24.3364 23.4546C24.5398 23.6343 24.6617 23.8885 24.6742 24.1595C24.6867 24.4305 24.5887 24.695 24.4027 24.8923C24.2166 25.0898 23.9585 25.2032 23.6873 25.207H7.68731C7.4161 25.2032 7.15807 25.0898 6.97188 24.8923C6.78594 24.6948 6.68795 24.4305 6.70045 24.1595C6.71295 23.8885 6.83483 23.6343 7.03818 23.4546C7.24153 23.2751 7.50892 23.1858 7.77947 23.207ZM8.6873 7.70705C8.68752 7.43093 8.91119 7.20727 9.1873 7.20705H13.5272C12.8547 7.92179 12.579 8.92248 12.7904 9.88071C13.0018 10.839 13.6732 11.6309 14.5842 11.9961C15.4949 12.3613 16.5275 12.2528 17.3424 11.7062C18.1574 11.1595 18.6494 10.2455 18.657 9.26424L18.6862 8.735H18.6864C18.6942 8.55776 18.6081 8.38946 18.4599 8.29214C18.3119 8.1946 18.1233 8.18254 17.9637 8.25977L16.9637 8.75977C16.7212 8.88589 16.6248 9.18299 16.7471 9.4272C16.8692 9.67162 17.1648 9.77274 17.411 9.65444L17.6346 9.54261C17.5308 10.2047 17.098 10.7687 16.4853 11.0402C15.8726 11.3114 15.1639 11.2531 14.6038 10.885C14.0438 10.5169 13.7092 9.88948 13.7152 9.21942C13.7214 8.54931 14.0674 7.9281 14.6342 7.57033C14.8009 7.46274 14.9583 7.34109 15.1049 7.20716H22.1872C22.4633 7.20739 22.687 7.43105 22.6872 7.70716V22.7072C22.687 22.9833 22.4633 23.2069 22.1872 23.2072H9.18722C8.9111 23.2069 8.68744 22.9833 8.68722 22.7072L8.6873 7.70705ZM4.1873 25.707V10.207C4.18774 9.94187 4.2931 9.68785 4.4806 9.50036C4.6681 9.31287 4.92212 9.20751 5.18729 9.20706H7.68729V22.2071C6.977 22.2133 6.32346 22.5959 5.97009 23.2122C5.61674 23.8285 5.61674 24.5859 5.97009 25.2019C6.32344 25.8182 6.977 26.2008 7.68729 26.2071H23.6873C24.2179 26.2084 24.727 25.9972 25.1009 25.6207C25.4699 25.2434 25.6757 24.7363 25.6739 24.2086C25.672 23.6809 25.4625 23.1751 25.0908 22.8005C24.7192 22.426 24.2149 22.2128 23.6873 22.207V9.207H26.1873C26.4525 9.20745 26.7065 9.31281 26.894 9.50031C27.0815 9.6878 27.1868 9.94183 27.1873 10.207V25.707C27.1868 25.9722 27.0815 26.2262 26.894 26.4137C26.7065 26.6012 26.4525 26.7065 26.1873 26.707H5.18729C4.92211 26.7065 4.66809 26.6012 4.4806 26.4137C4.29311 26.2262 4.18774 25.9722 4.1873 25.707V25.707ZM28.6873 29.707H2.6873C2.33284 29.703 2.00696 29.5115 1.83084 29.2037C1.65473 28.8961 1.65473 28.518 1.83084 28.2104C2.00696 27.9026 2.33285 27.7111 2.6873 27.707H28.6873C29.0418 27.7113 29.3674 27.9028 29.5435 28.2104C29.7194 28.5182 29.7194 28.8959 29.5435 29.2037C29.3674 29.5113 29.0417 29.7028 28.6873 29.707Z" fill="black"/>
<path d="M15.6875 20.2076C16.6154 20.2065 17.5049 19.8373 18.1612 19.1813C18.8172 18.525 19.1864 17.6355 19.1875 16.7076C19.0112 12.0707 12.3629 12.0721 12.1875 16.7076C12.1886 17.6355 12.5578 18.5253 13.2138 19.1813C13.8701 19.8373 14.7596 20.2065 15.6875 20.2076ZM15.1875 16.2076C15.1913 15.9342 15.4141 15.7145 15.6875 15.7145C15.9609 15.7145 16.1837 15.9342 16.1875 16.2076C16.1837 16.481 15.9609 16.7007 15.6875 16.7007C15.4141 16.7007 15.1913 16.481 15.1875 16.2076ZM14.6875 18.9958C14.5103 17.2815 16.8663 17.2855 16.6875 18.9958C16.0502 19.2752 15.3248 19.2752 14.6875 18.9958ZM15.6875 14.2076C16.3149 14.2125 16.9174 14.4531 17.3759 14.8815C17.8344 15.3098 18.1152 15.8946 18.1625 16.5203C18.2101 17.146 18.0208 17.7666 17.6322 18.2592C17.5308 17.7965 17.2621 17.3873 16.8777 17.1103C17.1041 16.813 17.211 16.4421 17.1777 16.0699C17.1442 15.6978 16.9728 15.3517 16.6971 15.0997C16.4215 14.8477 16.0614 14.7077 15.6878 14.7077C15.3141 14.7077 14.954 14.8474 14.6784 15.0994C14.4025 15.3514 14.2311 15.6974 14.1974 16.0695C14.1639 16.4416 14.2708 16.8126 14.4969 17.1099C14.1175 17.3916 13.8501 17.7988 13.7427 18.259C13.3541 17.7664 13.165 17.1457 13.2126 16.5202C13.2601 15.8945 13.5409 15.3097 13.9992 14.8813C14.4577 14.4532 15.0603 14.2126 15.6876 14.2077L15.6875 14.2076Z" fill="black"/>
<path d="M12.6875 22.207H18.6875C18.9636 22.207 19.1875 21.9831 19.1875 21.707C19.1875 21.4309 18.9636 21.207 18.6875 21.207H12.6875C12.414 21.2108 12.1944 21.4336 12.1944 21.707C12.1944 21.9805 12.414 22.2032 12.6875 22.207Z" fill="black"/>
</svg>