<svg width="38" height="38" viewBox="0 0 26 28" fill="none" xmlns="http://www.w3.org/2000/svg">
<path d="M20.639 25.0368C20.4043 25.0368 20.214 25.2271 20.214 25.4618C20.214 25.7999 20.0797 26.1243 19.8407 26.3633C19.6016 26.6024 19.2771 26.7367 18.9391 26.7367H2.78907C2.45097 26.7367 2.1265 26.6024 1.88748 26.3633C1.64846 26.1243 1.51409 25.7998 1.51409 25.4618V6.33675H6.18909C6.30179 6.33675 6.40994 6.29197 6.48963 6.21228C6.56931 6.1326 6.61409 6.02445 6.61409 5.91175V1.23675H18.9391C19.2772 1.23675 19.6017 1.37108 19.8407 1.61014C20.0797 1.84921 20.2141 2.17367 20.2141 2.51172V11.0117C20.2141 11.2464 20.4044 11.4367 20.6391 11.4367C20.8738 11.4367 21.0641 11.2464 21.0641 11.0117V2.51172C21.0641 1.9482 20.8402 1.4077 20.4418 1.00902C20.0431 0.610585 19.5026 0.386724 18.9391 0.386724H6.18907C6.07618 0.386155 5.96746 0.430363 5.8874 0.510052L0.787395 5.61005C0.707709 5.69012 0.6635 5.79883 0.664068 5.91172V25.4617C0.664068 26.0253 0.887953 26.5658 1.28636 26.9644C1.68499 27.3629 2.22554 27.5867 2.78907 27.5867H18.9391C19.5026 27.5867 20.0431 27.3628 20.4418 26.9644C20.8402 26.5658 21.0641 26.0253 21.0641 25.4617C21.0641 25.349 21.0193 25.2409 20.9396 25.1612C20.8599 25.0815 20.7517 25.0368 20.639 25.0368ZM2.11341 5.48675L5.76424 1.83593V5.48675H2.11341Z" fill="black"/>
<path d="M24.0376 16.9057V15.6859C24.0376 14.623 23.4705 13.6409 22.5501 13.1095C21.6297 12.5781 20.4955 12.5781 19.5751 13.1095C18.6547 13.6409 18.0876 14.623 18.0876 15.6859V16.9057C17.2791 17.6981 16.8202 18.7804 16.8126 19.9123C16.8052 21.0445 17.2495 22.1328 18.0474 22.9359C18.8452 23.739 19.9305 24.1908 21.0626 24.1908C22.1947 24.1908 23.28 23.739 24.0778 22.9359C24.8756 22.1328 25.32 21.0445 25.3126 19.9123C25.305 18.7804 24.846 17.6981 24.0376 16.9057ZM18.9376 15.6859C18.9376 14.9268 19.3427 14.2251 20.0001 13.8456C20.6575 13.466 21.4677 13.466 22.1251 13.8456C22.7825 14.2251 23.1876 14.9268 23.1876 15.6859V16.2596C22.5429 15.8828 21.8094 15.6841 21.0626 15.6841C20.3158 15.6841 19.5823 15.8828 18.9376 16.2596V15.6859ZM21.0626 23.3359C20.1608 23.3359 19.296 22.9777 18.6585 22.34C18.0208 21.7025 17.6626 20.8377 17.6626 19.9359C17.6626 19.0341 18.0208 18.1693 18.6585 17.5318C19.296 16.8941 20.1608 16.5359 21.0626 16.5359C21.9644 16.5359 22.8292 16.8941 23.4667 17.5318C24.1044 18.1693 24.4626 19.0341 24.4626 19.9359C24.4626 20.8377 24.1044 21.7025 23.4667 22.34C22.8292 22.9777 21.9644 23.3359 21.0626 23.3359Z" fill="black"/>
<path d="M21.0659 18.6602C20.664 18.6632 20.287 18.8558 20.0489 19.1794C19.8106 19.5031 19.7391 19.9201 19.8556 20.3047C19.9721 20.6893 20.2631 20.9965 20.6409 21.1337V21.6351C20.6409 21.8698 20.8312 22.0601 21.0659 22.0601C21.3006 22.0601 21.4909 21.8698 21.4909 21.6351V21.1337C21.8686 20.9965 22.1597 20.6893 22.2762 20.3047C22.3927 19.9201 22.3211 19.5031 22.0828 19.1794C21.8447 18.8557 21.4678 18.6632 21.0659 18.6602ZM21.0659 20.3602C20.894 20.3602 20.739 20.2566 20.6733 20.0978C20.6075 19.939 20.6437 19.7562 20.7654 19.6346C20.887 19.513 21.0697 19.4768 21.2285 19.5426C21.3873 19.6083 21.4909 19.7633 21.4909 19.9352C21.4909 20.0479 21.4461 20.156 21.3664 20.2357C21.2867 20.3154 21.1786 20.3602 21.0659 20.3602Z" fill="black"/>
<path d="M18.9375 4.63591C19.0502 4.63591 19.1583 4.59114 19.238 4.51145C19.3177 4.43176 19.3625 4.32361 19.3625 4.21091V3.36091C19.3625 3.02281 19.2281 2.69835 18.9891 2.45933C18.75 2.22031 18.4256 2.08594 18.0875 2.08594H17.2375C17.0028 2.08594 16.8125 2.27624 16.8125 2.51094C16.8125 2.74563 17.0028 2.93594 17.2375 2.93594H18.0875C18.2002 2.93594 18.3083 2.98071 18.388 3.0604C18.4677 3.14009 18.5125 3.24824 18.5125 3.36094V4.21094C18.5125 4.32364 18.5573 4.43179 18.637 4.51147C18.7167 4.59116 18.8248 4.63591 18.9375 4.63591Z" fill="black"/>
<path d="M15.5406 2.08594H14.6906C14.4559 2.08594 14.2656 2.27624 14.2656 2.51094C14.2656 2.74563 14.4559 2.93594 14.6906 2.93594H15.5406C15.7753 2.93594 15.9656 2.74563 15.9656 2.51094C15.9656 2.27624 15.7753 2.08594 15.5406 2.08594Z" fill="black"/>
<path d="M15.1133 11.0122V8.03716C15.1129 7.8702 15.0148 7.71879 14.8625 7.65049L11.0375 5.95049C10.928 5.90192 10.8029 5.90192 10.6933 5.95049L6.86828 7.65049C6.71441 7.71766 6.61442 7.86925 6.61328 8.03716V11.0122C6.61328 13.3243 8.50868 16.1122 10.8633 16.1122C13.2179 16.1122 15.1133 13.3243 15.1133 11.0122ZM10.8633 15.2622C9.0316 15.2622 7.46328 12.9247 7.46328 11.0122V8.31344L10.8633 6.80053L14.2633 8.31344V11.0122C14.2633 12.9247 12.695 15.2622 10.8633 15.2622Z" fill="black"/>
<path d="M12.2637 9.43396L10.0153 11.6865L9.46701 11.1381C9.29852 10.9938 9.04713 11.0034 8.89003 11.1603C8.73312 11.3174 8.72344 11.5688 8.86783 11.7373L9.71783 12.5873C9.88366 12.7522 10.1514 12.7522 10.317 12.5873L12.867 10.0373C13.0116 9.86883 13.0017 9.61744 12.8448 9.46034C12.6879 9.30343 12.4365 9.29375 12.2678 9.43814L12.2637 9.43396Z" fill="black"/>
<path d="M10.8632 25.4609C11.4148 25.4543 11.9288 25.1805 12.242 24.7265C12.5555 24.2725 12.6289 23.6947 12.4393 23.1768C12.2496 22.6588 11.8206 22.2649 11.2883 22.1205V17.3859C11.2883 17.1512 11.0979 16.9609 10.8633 16.9609C10.6286 16.9609 10.4383 17.1512 10.4383 17.3859V22.1205C9.90586 22.2649 9.47688 22.6588 9.28716 23.1768C9.09762 23.6947 9.17104 24.2725 9.48448 24.7265C9.79773 25.1805 10.3117 25.4543 10.8633 25.4609H10.8632ZM10.8632 22.9109C11.0886 22.9109 11.3049 23.0005 11.4643 23.1599C11.6237 23.3192 11.7132 23.5355 11.7132 23.7609C11.7132 23.9863 11.6237 24.2026 11.4643 24.362C11.3049 24.5214 11.0886 24.6109 10.8632 24.6109C10.6378 24.6109 10.4215 24.5214 10.2622 24.362C10.1028 24.2026 10.0132 23.9863 10.0132 23.7609C10.0132 23.5355 10.1028 23.3192 10.2622 23.1599C10.4215 23.0005 10.6378 22.9109 10.8632 22.9109Z" fill="black"/>
<path d="M5.33907 20.3609H7.88907C8.22717 20.3609 8.55164 20.2266 8.79066 19.9875C9.02968 19.7485 9.16405 19.424 9.16405 19.0859V17.3859C9.16405 17.1512 8.97375 16.9609 8.73905 16.9609C8.50435 16.9609 8.31405 17.1512 8.31405 17.3859V19.0859C8.31405 19.1986 8.26927 19.3068 8.18959 19.3865C8.1099 19.4662 8.00175 19.5109 7.88905 19.5109H5.33905C5.00095 19.5109 4.67649 19.6453 4.43747 19.8843C4.19845 20.1234 4.06407 20.4479 4.06407 20.7859V22.1205C3.52522 22.2596 3.08866 22.6537 2.89515 23.1752C2.70163 23.697 2.77581 24.2804 3.09361 24.7373C3.41141 25.1942 3.93259 25.4665 4.48907 25.4665C5.04555 25.4665 5.56677 25.1942 5.88453 24.7373C6.20228 24.2804 6.27651 23.697 6.08298 23.1752C5.88946 22.6537 5.45287 22.2596 4.91406 22.1205V20.7859C4.91406 20.5512 5.10438 20.3609 5.33907 20.3609ZM5.33907 23.7609C5.33907 23.9863 5.24952 24.2026 5.09014 24.362C4.93077 24.5214 4.71447 24.6109 4.48907 24.6109C4.26367 24.6109 4.04737 24.5214 3.888 24.362C3.72863 24.2026 3.63907 23.9863 3.63907 23.7609C3.63907 23.5355 3.72863 23.3192 3.888 23.1598C4.04737 23.0005 4.26367 22.9109 4.48907 22.9109C4.71447 22.9109 4.93077 23.0005 5.09014 23.1598C5.24952 23.3192 5.33907 23.5355 5.33907 23.7609Z" fill="black"/>
<path d="M13.8375 20.3609H15.5375C15.7722 20.3609 15.9625 20.1706 15.9625 19.9359C15.9625 19.7012 15.7722 19.5109 15.5375 19.5109H13.8375C13.6028 19.5109 13.4125 19.3206 13.4125 19.0859V17.3859C13.4125 17.1512 13.2222 16.9609 12.9875 16.9609C12.7528 16.9609 12.5625 17.1512 12.5625 17.3859V19.0859C12.5625 19.424 12.6968 19.7485 12.9359 19.9875C13.175 20.2265 13.4994 20.3609 13.8375 20.3609Z" fill="black"/>
</svg>