<svg width="38" height="38" viewBox="0 0 26 21" fill="none" xmlns="http://www.w3.org/2000/svg">
<path d="M20.1166 11.543H10.6875C10.6875 11.5856 10.7089 11.6282 10.7089 11.6709V12.1829H19.4981V13.6762L10.7089 13.6765V14.3164H20.1381V11.543L20.1166 11.543Z" fill="black"/>
<path d="M10.0704 12.1796V11.6675C10.0704 11.6249 10.0704 11.5823 10.0489 11.5396C9.98486 11.0064 9.60094 10.5584 9.08887 10.4303V9.55547C9.08887 8.7021 8.4063 8.01953 7.57412 8.01953C6.74218 8.01953 6.05938 8.7021 6.05938 9.55547V10.4303C5.5047 10.5582 5.07812 11.0702 5.07812 11.6675V15.4648H10.0915V13.6729L10.0917 12.1796L10.0704 12.1796ZM6.67841 9.53429C6.67841 9.04366 7.08377 8.63829 7.55321 8.63829C8.04383 8.63829 8.42801 9.04365 8.42801 9.53429V10.3662H6.65727V9.53429H6.67841ZM7.87304 13.9503H7.2331V11.9023H7.87304V13.9503Z" fill="black"/>
<path d="M23.9997 0H1.17343C0.533486 0 0 0.533257 0 1.17343V19.1146C0 19.7545 0.533257 20.288 1.17343 20.288H23.9997C24.6397 20.288 25.1731 19.7547 25.1731 19.1146L25.1729 1.17343C25.1729 0.533257 24.6397 0 23.9997 0ZM7.70086 2.79463C7.70086 3.15735 7.40219 3.456 7.03949 3.456C6.67678 3.456 6.39954 3.15734 6.39954 2.79463C6.39954 2.4319 6.69821 2.13326 7.06091 2.13326C7.42342 2.13326 7.70086 2.43192 7.70086 2.79463ZM5.56737 2.79463C5.56737 3.15735 5.26871 3.456 4.906 3.456C4.5435 3.456 4.26606 3.15734 4.26606 2.79463C4.26606 2.4319 4.56472 2.13326 4.92743 2.13326C5.29014 2.13326 5.56737 2.43192 5.56737 2.79463ZM2.79417 2.13326C3.1569 2.13326 3.45554 2.43192 3.45554 2.79463C3.45554 3.15735 3.15688 3.456 2.79417 3.456C2.43146 3.456 2.1328 3.15734 2.1328 2.79463C2.1328 2.4319 2.43146 2.13326 2.79417 2.13326ZM24.533 19.1361C24.533 19.4348 24.2984 19.6694 23.9998 19.6694H1.17349C0.874823 19.6694 0.640228 19.4348 0.640228 19.1361L0.640005 5.24811H24.5332L24.533 19.1361Z" fill="black"/>
</svg>