<svg width="38" height="38" viewBox="0 0 32 26" fill="none" xmlns="http://www.w3.org/2000/svg">
                                <path d="M25.1458 14.4258H13.3594C13.3594 14.4791 13.3862 14.5324 13.3862 14.5857V15.2257H24.3726V17.0924L13.3862 17.0926V17.8926H25.1726V14.4258L25.1458 14.4258Z" fill="black"/>
                                <path d="M12.5879 15.2274V14.5874C12.5879 14.5341 12.5879 14.4808 12.5612 14.4275C12.4811 13.7609 12.0012 13.2009 11.3611 13.0408V11.9473C11.3611 10.8806 10.5079 10.0273 9.46766 10.0273C8.42773 10.0273 7.57423 10.8806 7.57423 11.9473V13.0408C6.88087 13.2007 6.34766 13.8407 6.34766 14.5873V19.334H12.6144V17.0941L12.6147 15.2274L12.5879 15.2274ZM8.34801 11.9208C8.34801 11.3075 8.85471 10.8008 9.44151 10.8008C10.0548 10.8008 10.535 11.3075 10.535 11.9208V12.9607H8.32158V11.9208H8.34801ZM9.8413 17.4409H9.04137V14.8809H9.8413V17.4409Z" fill="black"/>
                                <path d="M29.9996 0H1.46679C0.666857 0 0 0.666571 0 1.46679V23.8932C0 24.6931 0.666572 25.36 1.46679 25.36H29.9996C30.7996 25.36 31.4664 24.6934 31.4664 23.8932L31.4662 1.46679C31.4662 0.666571 30.7996 0 29.9996 0ZM9.62607 3.49329C9.62607 3.94669 9.25274 4.32 8.79936 4.32C8.34597 4.32 7.99943 3.94667 7.99943 3.49329C7.99943 3.03988 8.37276 2.66657 8.82614 2.66657C9.27927 2.66657 9.62607 3.0399 9.62607 3.49329ZM6.95922 3.49329C6.95922 3.94669 6.58589 4.32 6.1325 4.32C5.67937 4.32 5.33257 3.94667 5.33257 3.49329C5.33257 3.03988 5.7059 2.66657 6.15929 2.66657C6.61267 2.66657 6.95922 3.0399 6.95922 3.49329ZM3.49271 2.66657C3.94612 2.66657 4.31943 3.0399 4.31943 3.49329C4.31943 3.94669 3.9461 4.32 3.49271 4.32C3.03933 4.32 2.666 3.94667 2.666 3.49329C2.666 3.03988 3.03933 2.66657 3.49271 2.66657ZM30.6663 23.9201C30.6663 24.2935 30.373 24.5867 29.9997 24.5867H1.46686C1.09353 24.5867 0.800285 24.2935 0.800285 23.9201L0.800006 6.56014H30.6664L30.6663 23.9201Z" fill="black"/>
                                </svg>