<svg width="38" height="38" viewBox="0 0 24 24" fill="none" xmlns="http://www.w3.org/2000/svg">
<path d="M23.4723 12.5744V12.1494V11.8094L19.9023 10.9594L19.0948 7.60187C19.3073 7.04937 19.5198 6.32687 19.6898 5.43437C19.7323 5.13687 19.6473 4.83937 19.4348 4.62687C19.2223 4.41437 18.9248 4.37187 18.6273 4.45687C18.4573 4.49937 18.3298 4.54187 18.1598 4.58437C18.0748 4.11687 17.6498 3.73438 17.1398 3.73438C16.6298 3.73438 16.2048 4.07437 16.1198 4.58437C15.9923 4.54187 15.8223 4.49937 15.6523 4.45687C15.3548 4.37187 15.0573 4.45687 14.8448 4.62687C14.5473 4.79687 14.4623 5.09437 14.5473 5.39187C14.7173 6.28437 14.9298 7.00687 15.1423 7.55937L14.2073 11.5119C14.0373 12.1494 14.2073 12.7869 14.5473 13.2969L16.1623 15.5069C16.5873 16.7394 17.4798 18.0144 19.4773 18.9494L19.6473 19.0344L19.8173 18.9494C23.5573 17.2069 23.5148 14.3169 23.4723 12.5744ZM18.1596 5.39163C18.3721 5.34913 18.5846 5.30663 18.8396 5.22163C18.7121 5.77413 18.6271 6.24163 18.4996 6.66663C18.4146 6.58163 18.2871 6.53913 18.1596 6.49663V5.39163ZM16.8846 4.75413C16.8846 4.62663 16.9696 4.54163 17.0971 4.54163C17.2246 4.54163 17.3096 4.62663 17.3096 4.75413V6.32663H16.8846V4.75413ZM16.0346 5.39163V6.49663C15.9071 6.53913 15.8221 6.62413 15.6946 6.66663C15.5671 6.24163 15.4396 5.77413 15.3546 5.22163C15.6096 5.30663 15.8221 5.34913 16.0346 5.39163ZM19.6471 18.1416C16.5871 16.6116 16.6296 14.3166 16.6721 12.5744V12.4894L19.6471 11.7669L22.6221 12.4894V12.5744C22.6221 14.2744 22.7071 16.6119 19.6471 18.1416Z" fill="black"/>
<path d="M19.607 14.8722L18.8845 14.1922L18.332 14.8297L19.6495 16.0197L21.5195 14.1497L20.882 13.5547L19.607 14.8722Z" fill="black"/>
<path d="M12.9765 11.1314C12.9765 11.0889 12.9765 11.0889 12.934 11.0464C13.359 10.0264 13.6565 8.66641 13.8265 7.64641C13.869 7.30641 13.784 7.00891 13.529 6.79641C13.274 6.58391 12.9765 6.49891 12.6365 6.62641C12.2965 6.75391 11.829 6.88141 11.319 6.96641V6.75391C11.319 6.15891 10.8515 5.69141 10.2565 5.69141C9.66149 5.69141 9.19399 6.15891 9.19399 6.75391V6.96641C8.68399 6.88141 8.21649 6.75391 7.87649 6.62641C7.57899 6.54141 7.23899 6.58391 6.98399 6.79641C6.72899 7.00891 6.60149 7.34891 6.68649 7.64641C6.85649 8.62391 7.19649 9.98391 7.57899 11.0464C7.57899 11.0889 7.57899 11.0889 7.53649 11.1314L6.26149 16.8687C6.04899 17.7187 6.26149 18.6112 6.77149 19.2912L9.27899 22.6912C9.53399 23.0312 9.87399 23.2437 10.299 23.2437C10.724 23.2437 11.064 23.0312 11.319 22.7337L13.8265 19.3337C14.3365 18.6112 14.5065 17.7612 14.3365 16.9112L12.9765 11.1314ZM10.0865 6.75391C10.0865 6.62641 10.1715 6.54141 10.299 6.54141C10.4265 6.54141 10.5115 6.62641 10.5115 6.75391V9.51641H10.0865V6.75391ZM13.1465 18.7812L10.639 22.1812C10.469 22.3937 10.129 22.3937 9.95899 22.1812L7.45149 18.7812C7.06899 18.2712 6.94149 17.6337 7.11149 17.0387L8.42899 11.3437C8.55649 10.7487 9.06649 10.3662 9.66149 10.3662H10.894C11.489 10.3662 11.999 10.7912 12.1265 11.3437L13.4865 17.0809C13.6565 17.6759 13.4865 18.3134 13.1465 18.7809V18.7812Z" fill="black"/>
<path d="M9.74719 13.9347C9.83219 14.0197 9.91719 14.0622 10.0022 14.1047C10.0872 14.1472 10.2147 14.1897 10.3422 14.1897C10.4697 14.1897 10.5972 14.1897 10.6822 14.1047C10.7672 14.0622 10.8947 14.0197 10.9372 13.9347C10.9797 13.8497 11.0647 13.7647 11.1072 13.6372C11.1497 13.5097 11.1922 13.4247 11.1922 13.2547V12.6172H9.49219V13.2972C9.49219 13.4247 9.49219 13.5522 9.57719 13.6797C9.61969 13.7647 9.66219 13.8497 9.74719 13.9347ZM9.78969 13.0422H10.8947V13.2972C10.8947 13.3822 10.8947 13.4247 10.8522 13.5097C10.8097 13.5947 10.8097 13.6372 10.7247 13.6797C10.6822 13.7222 10.6397 13.7647 10.5547 13.7647C10.4697 13.8072 10.4272 13.8072 10.3422 13.8072C10.2572 13.8072 10.1722 13.8072 10.1297 13.7647C10.0447 13.7222 10.0022 13.7222 9.95969 13.6797C9.91719 13.6372 9.87469 13.5947 9.83219 13.5097C9.78969 13.4247 9.78969 13.3822 9.78969 13.2972V13.0422Z" fill="black"/>
<path d="M9.74719 15.6803C9.83219 15.7653 9.91719 15.8078 10.0022 15.8503C10.0872 15.8928 10.2147 15.9353 10.3422 15.9353C10.4697 15.9353 10.5972 15.9353 10.6822 15.8503C10.7672 15.8078 10.8947 15.7653 10.9372 15.6803C10.9797 15.5953 11.0647 15.5103 11.1072 15.3828C11.1497 15.2553 11.1922 15.1703 11.1922 15.0003V14.3203H9.49219V15.0003C9.49219 15.1278 9.49219 15.2553 9.57719 15.3828C9.61969 15.5103 9.66219 15.5953 9.74719 15.6803ZM9.78969 14.7453H10.8947V15.0003C10.8947 15.0853 10.8947 15.1278 10.8522 15.2128C10.8097 15.2978 10.8097 15.3403 10.7247 15.3828C10.6822 15.4253 10.6397 15.4678 10.5547 15.4678C10.4697 15.5103 10.4272 15.5103 10.3422 15.5103C10.2572 15.5103 10.1722 15.5103 10.1297 15.4678C10.0447 15.4253 10.0022 15.4253 9.95969 15.3828C9.91719 15.3403 9.87469 15.2978 9.83219 15.2128C9.78969 15.1278 9.78969 15.0853 9.78969 15.0003V14.7453Z" fill="black"/>
<path d="M10.9792 16.232C10.8942 16.147 10.8092 16.1045 10.7242 16.062C10.5967 16.0195 10.4692 16.0195 10.3417 16.0195C10.2142 16.0195 10.0867 16.0195 10.0017 16.062C9.91672 16.1045 9.78922 16.147 9.70422 16.232C9.61922 16.317 9.57672 16.402 9.53422 16.5295C9.49172 16.657 9.44922 16.742 9.44922 16.912C9.44922 17.0395 9.49172 17.167 9.53422 17.2945C9.57672 17.422 9.61922 17.507 9.70422 17.592C9.78922 17.677 9.87422 17.7195 10.0017 17.762C10.1292 17.8045 10.2142 17.8045 10.3417 17.8045C10.4692 17.8045 10.5967 17.8045 10.6817 17.762C10.7667 17.7195 10.8942 17.677 10.9367 17.592C11.0217 17.507 11.0642 17.422 11.1067 17.2945C11.1492 17.167 11.1917 17.082 11.1917 16.912C11.1917 16.7845 11.1492 16.657 11.1067 16.5295C11.1067 16.402 11.0642 16.317 10.9792 16.232ZM10.8517 17.082C10.8092 17.1245 10.8092 17.2095 10.7242 17.252C10.6817 17.2945 10.6392 17.337 10.5542 17.337C10.4692 17.3795 10.4267 17.3795 10.3417 17.3795C10.2567 17.3795 10.1717 17.3795 10.1292 17.337C10.0442 17.2945 10.0017 17.2945 9.95922 17.252C9.91672 17.2095 9.87422 17.167 9.83172 17.082C9.78922 17.0395 9.78922 16.9545 9.78922 16.8695C9.78922 16.7845 9.78922 16.742 9.83172 16.657C9.87422 16.6145 9.87422 16.5295 9.95922 16.487C10.0017 16.4445 10.0442 16.402 10.1292 16.402C10.2142 16.3595 10.2567 16.3595 10.3417 16.3595C10.4267 16.3595 10.5117 16.3595 10.5542 16.402C10.6392 16.4445 10.6817 16.4445 10.7242 16.487C10.7667 16.5295 10.8092 16.572 10.8517 16.657C10.8942 16.742 10.8942 16.7845 10.8942 16.8695C10.8942 16.9545 10.8942 17.0395 10.8517 17.082Z" fill="black"/>
<path d="M11.0656 18.0602C11.0231 18.0177 10.9806 17.9752 10.8956 17.9327C10.8531 17.8902 10.7681 17.8902 10.7256 17.8902C10.6406 17.8902 10.5981 17.8902 10.5131 17.9327C10.4706 17.9752 10.4281 17.9752 10.3856 18.0177C10.3431 18.0602 10.3006 18.1027 10.3006 18.1452C10.2581 18.1877 10.2581 18.2302 10.2581 18.2727C10.2581 18.3152 10.2156 18.3577 10.2156 18.4002C10.2156 18.4427 10.1731 18.4852 10.1731 18.5277C10.1731 18.5702 10.1306 18.6127 10.1306 18.6127C10.0881 18.6552 10.0881 18.6552 10.0456 18.6552C9.96063 18.6552 9.91813 18.6552 9.87563 18.6127C9.83312 18.5702 9.83312 18.5277 9.83312 18.4427C9.83312 18.4002 9.83312 18.3577 9.87563 18.3152C9.87563 18.2727 9.91813 18.2302 9.91813 18.2302C9.91813 18.1877 9.96063 18.1877 9.96063 18.1452C9.96063 18.1027 10.0031 18.1027 10.0031 18.0602V18.0177C10.0031 18.0177 10.0031 17.9752 9.96063 17.9752L9.79063 17.8477C9.74813 17.8902 9.70562 17.9327 9.70562 17.9752C9.70562 18.0177 9.66313 18.0602 9.62063 18.1027C9.57812 18.1452 9.57812 18.1877 9.57812 18.2727V18.4427C9.57812 18.5277 9.57812 18.6127 9.62063 18.6977C9.66313 18.7827 9.70562 18.8252 9.74813 18.9102C9.79063 18.9952 9.87563 18.9952 9.91813 19.0377C9.96063 19.0802 10.0456 19.0802 10.1306 19.0802C10.2156 19.0802 10.2581 19.0802 10.3006 19.0377C10.3431 18.9952 10.3856 18.9952 10.4281 18.9527C10.4706 18.9102 10.5131 18.8677 10.5131 18.8252C10.5556 18.7827 10.5556 18.7402 10.5556 18.6977C10.5556 18.6552 10.5981 18.6127 10.5981 18.5702C10.5981 18.5277 10.6406 18.4852 10.6406 18.4427C10.6406 18.4002 10.6831 18.3577 10.6831 18.3577C10.7256 18.3152 10.7256 18.3152 10.7681 18.3152C10.8106 18.3152 10.8531 18.3152 10.8956 18.3577C10.9381 18.4002 10.9381 18.4427 10.9381 18.5277V18.6552C10.9381 18.6977 10.8956 18.6977 10.8956 18.7402C10.8956 18.7827 10.8531 18.7827 10.8531 18.8252V18.8677V18.9102L10.8956 18.9527L11.0656 19.0377C11.1081 18.9952 11.1081 18.9527 11.1506 18.9527C11.1931 18.9102 11.1931 18.8677 11.1931 18.8252C11.1931 18.7827 11.2356 18.7402 11.2356 18.6977V18.5277C11.2356 18.4427 11.2356 18.3577 11.1931 18.2727C11.1506 18.1877 11.1081 18.1027 11.0656 18.0602Z" fill="black"/>
<path d="M16.6758 0.71875H17.5258V3.14125H16.6758V0.71875Z" fill="black"/>
<path d="M18.1172 1.78125H18.9672V3.48125H18.1172V1.78125Z" fill="black"/>
<path d="M15.2305 1.78125H16.0805V3.48125H15.2305V1.78125Z" fill="black"/>
<path d="M6.43169 11.5544L5.49669 7.60187C5.70919 7.04937 5.92169 6.32687 6.09169 5.43437C6.13419 5.13687 6.04919 4.83937 5.83669 4.62687C5.62419 4.41437 5.32669 4.37187 5.02919 4.45687C4.85919 4.49937 4.73169 4.54187 4.56169 4.58437C4.47669 4.11687 4.05169 3.73438 3.54169 3.73438C3.03169 3.73438 2.60669 4.07437 2.52169 4.58437C2.39419 4.54187 2.22419 4.49937 2.05419 4.45687C1.75669 4.37187 1.45919 4.45687 1.24669 4.62687C0.949192 4.79687 0.864192 5.09437 0.906692 5.39187C1.07669 6.28437 1.28919 7.00687 1.50169 7.55937L0.566692 11.5119C0.396692 12.1494 0.566692 12.7869 0.906692 13.2969L2.64919 15.6769C2.86169 15.9319 3.15919 16.1019 3.45669 16.1019C3.75419 16.1019 4.09419 15.9319 4.26419 15.6769L6.00669 13.2969C6.43169 12.8294 6.55919 12.1919 6.43169 11.5544ZM4.56169 5.39163C4.77419 5.34913 4.98669 5.30663 5.24169 5.22163C5.11419 5.77413 5.02919 6.24163 4.90169 6.66663C4.81669 6.58163 4.68919 6.53913 4.56169 6.49663V5.39163ZM3.28669 4.75413C3.28669 4.62663 3.37169 4.54163 3.49919 4.54163C3.62669 4.54163 3.71169 4.62663 3.71169 4.75413V6.32663H3.28669V4.75413ZM2.43669 5.39163V6.49663C2.30919 6.53913 2.22419 6.58163 2.09669 6.66663C1.96919 6.24163 1.84169 5.77413 1.75669 5.22163C2.01169 5.30663 2.22419 5.34913 2.43669 5.39163Z" fill="black"/>
<path d="M3.07422 0.71875H3.92422V3.14125H3.07422V0.71875Z" fill="black"/>
<path d="M1.62891 1.78125H2.47891V3.48125H1.62891V1.78125Z" fill="black"/>
<path d="M4.51953 1.78125H5.36953V3.48125H4.51953V1.78125Z" fill="black"/>
</svg>