<svg width="38" height="38" viewBox="0 0 21 20" fill="none" xmlns="http://www.w3.org/2000/svg">
<path d="M10.0675 8.61719C8.24551 8.61719 6.73242 10.0994 6.73242 11.9522C6.73242 13.8051 8.24547 15.2873 10.0675 15.2873C11.8895 15.2873 13.4025 13.8051 13.4025 11.9522C13.4025 10.0996 11.8895 8.61719 10.0675 8.61719ZM10.0675 14.6695C8.58525 14.6695 7.35 13.4653 7.35 11.9521C7.35 10.4698 8.55428 9.23458 10.0675 9.23458C11.5497 9.23458 12.785 10.4389 12.785 11.9521C12.785 13.4343 11.5497 14.6695 10.0675 14.6695Z" fill="black"/>
<path d="M6.08283 5.09375H5.55781C5.37257 5.09375 5.24902 5.21729 5.24902 5.40253C5.24902 5.58777 5.37256 5.71132 5.55781 5.71132H6.08283C6.26807 5.71132 6.39161 5.58778 6.39161 5.40253C6.39161 5.21729 6.23722 5.09375 6.08283 5.09375Z" fill="black"/>
<path d="M7.29023 5.09375C7.10499 5.09375 6.98145 5.21729 6.98145 5.40253C6.98145 5.58777 7.10499 5.71132 7.29023 5.71132H7.81525C8.00049 5.71132 8.12403 5.58778 8.12403 5.40253C8.12403 5.21729 8.00049 5.09375 7.81525 5.09375H7.29023Z" fill="black"/>
<path d="M12.8156 3.64346C12.692 3.76701 12.692 3.95225 12.8156 4.07579L13.8346 5.09483H8.98652C8.80128 5.09483 8.67773 5.21837 8.67773 5.40361C8.67773 5.58885 8.80127 5.7124 8.98652 5.7124H13.8655L12.8465 6.73143C12.7229 6.85497 12.7229 7.04022 12.8465 7.16376C12.97 7.2873 13.1553 7.2873 13.2788 7.16376L14.8229 5.6197C14.9464 5.49616 14.9464 5.31092 14.8229 5.18737L13.2788 3.64331C13.1551 3.51991 12.939 3.51991 12.8155 3.64345L12.8156 3.64346Z" fill="black"/>
<path d="M14.0519 2.16444H14.577C14.7622 2.16444 14.8858 2.0409 14.8858 1.85566C14.8858 1.67042 14.7622 1.54688 14.577 1.54688H14.0519C13.8667 1.54688 13.7432 1.67042 13.7432 1.85566C13.7432 2.01005 13.8976 2.16444 14.0519 2.16444Z" fill="black"/>
<path d="M12.2888 2.16444H12.8446C13.0298 2.16444 13.1534 2.0409 13.1534 1.85566C13.1534 1.67042 13.0299 1.54688 12.8446 1.54688H12.3196C12.1343 1.54688 12.0108 1.67042 12.0108 1.85566C11.98 2.01005 12.1344 2.16444 12.2888 2.16444Z" fill="black"/>
<path d="M6.88738 3.61295C7.01092 3.73649 7.19616 3.73649 7.31971 3.61295C7.44325 3.48941 7.44325 3.30417 7.31971 3.18062L6.30067 2.16159H11.1797C11.3649 2.16159 11.4885 2.03805 11.4885 1.8528C11.4885 1.66756 11.3649 1.54402 11.1797 1.54402H6.26973L7.28877 0.524982C7.41231 0.401442 7.41231 0.216199 7.28877 0.0926551C7.16523 -0.030885 6.97999 -0.030885 6.85644 0.0926551L5.31238 1.63672C5.18884 1.76026 5.18884 1.9455 5.31238 2.06904L6.88738 3.61295Z" fill="black"/>
<path d="M18.62 8.30563C18.4965 8.24394 18.3421 8.27478 18.2494 8.36733L17.1068 9.50993L15.9642 8.36733C15.8715 8.27464 15.7171 8.24379 15.5936 8.30563C14.6981 8.76882 14.1113 9.69531 14.1113 10.7143V15.6243C14.1113 15.8095 14.2349 15.9331 14.4201 15.9331H15.0377L14.9141 19.1446C14.9141 19.3298 15.0377 19.4534 15.2229 19.4534H16.3037C16.458 19.4534 16.5816 19.3607 16.6124 19.2063L17.1065 17.0138L17.6005 19.2063C17.6313 19.3607 17.7549 19.4534 17.9093 19.4534H18.99C19.0827 19.4534 19.1444 19.4225 19.2061 19.3607C19.2678 19.299 19.2988 19.2063 19.2988 19.1446L19.1752 15.9331H19.7928C19.978 15.9331 20.1016 15.8095 20.1016 15.6243L20.1021 10.7143C20.1021 9.69531 19.5463 8.76882 18.6199 8.30563H18.62ZM18.6817 18.8665H18.1567L17.4156 15.5315C17.3539 15.2227 16.8906 15.2227 16.798 15.5315L16.0569 18.8665H15.5319L15.779 12.5052C15.8098 12.1037 15.1923 12.0728 15.1614 12.4743L15.0379 15.3462H14.6983V10.7143C14.6983 10.004 15.0689 9.35562 15.6556 8.95416L16.8599 10.1584C16.9834 10.282 17.1687 10.282 17.2922 10.1584L18.4965 8.95416C19.0832 9.35562 19.4539 10.0041 19.4539 10.7143V15.3156H19.1142L18.9907 12.4437C18.9598 12.0423 18.3731 12.0731 18.3731 12.4746" fill="black"/>
<path d="M17.1072 8.24574C18.188 8.24574 19.0836 7.35026 19.0836 6.26936C19.0836 5.18863 18.1882 4.29297 17.1072 4.29297C16.0265 4.29297 15.1309 5.18845 15.1309 6.26936C15.131 7.38109 16.0265 8.24574 17.1072 8.24574ZM17.1072 4.91069C17.8483 4.91069 18.4659 5.52826 18.4659 6.26936C18.4659 7.01045 17.8483 7.62803 17.1072 7.62803C16.3662 7.62803 15.7486 7.01045 15.7486 6.26936C15.7486 5.52826 16.3662 4.91069 17.1072 4.91069Z" fill="black"/>
<path d="M4.5087 8.30563C4.38516 8.24394 4.23076 8.27478 4.13806 8.36733L2.99546 9.50993L1.85287 8.36733C1.76017 8.27464 1.60578 8.24379 1.48223 8.30563C0.586747 8.76882 0 9.69531 0 10.7143V15.6243C0 15.8095 0.12354 15.9331 0.308783 15.9331H0.926356L0.833948 19.1446C0.833948 19.2373 0.864798 19.299 0.92664 19.3607C0.988339 19.4224 1.05018 19.4534 1.14273 19.4534H2.22346C2.37785 19.4534 2.50139 19.3607 2.53224 19.2063L3.02625 17.0138L3.52027 19.2063C3.55112 19.3607 3.67466 19.4534 3.82905 19.4534H4.90978C5.00247 19.4534 5.06417 19.4225 5.12587 19.3607C5.18757 19.299 5.21856 19.2063 5.21856 19.1446L5.09502 15.9331H5.71259C5.89783 15.9331 6.02138 15.8095 6.02138 15.6243L6.02166 10.7143C5.99081 9.69531 5.43495 8.76882 4.50861 8.30563H4.5087ZM5.37335 15.3155H5.03372L4.91018 12.4437C4.91018 12.2584 4.75579 12.1349 4.6014 12.1349C4.41616 12.1349 4.29261 12.2893 4.29261 12.4437L4.5397 18.805H4.01467L3.27358 15.4699C3.24273 15.3464 3.15004 15.2229 2.9648 15.2229C2.8104 15.2229 2.68686 15.3156 2.65601 15.4699L1.97646 18.8668H1.45158L1.69867 12.5055C1.69867 12.3203 1.57513 12.1967 1.38988 12.1967C1.23549 12.1967 1.0811 12.3202 1.0811 12.5055L0.957561 15.3774H0.648636V10.7145C0.648636 10.0043 1.01927 9.35586 1.60599 8.9544L2.81027 10.1587C2.87197 10.2204 2.93381 10.2514 3.02636 10.2514C3.11905 10.2514 3.18075 10.2205 3.24245 10.1587L4.44674 8.9544C5.03345 9.35586 5.40408 10.0043 5.40408 10.7145L5.40423 15.3155L5.37335 15.3155Z" fill="black"/>
<path d="M3.02697 8.24574C4.10769 8.24574 5.00335 7.35026 5.00335 6.26936C5.00335 5.18863 4.10787 4.29297 3.02697 4.29297C1.94624 4.29297 1.05058 5.18845 1.05058 6.26936C1.01973 7.38109 1.91523 8.24574 3.02697 8.24574ZM3.02697 4.91069C3.76806 4.91069 4.38563 5.52826 4.38563 6.26936C4.38563 7.01045 3.76806 7.62803 3.02697 7.62803C2.28587 7.62803 1.6683 7.01045 1.6683 6.26936C1.63731 5.52826 2.25486 4.91069 3.02697 4.91069Z" fill="black"/>
<path d="M10.0037 9.88284C9.69493 9.88284 9.35531 9.97553 9.16992 10.1299L9.32431 10.5006C9.4787 10.377 9.69495 10.3153 9.91102 10.3153C10.2817 10.3153 10.4669 10.5314 10.4669 10.8093C10.4669 11.0873 10.3125 11.3034 10.0654 11.6123C9.75663 11.9519 9.66394 12.3225 9.69477 12.6313V12.7857H10.158V12.6313C10.1271 12.3225 10.2197 12.0755 10.4976 11.7667C10.7755 11.427 10.9916 11.1491 10.9916 10.7476C10.9917 10.3151 10.683 9.88281 10.0037 9.88281L10.0037 9.88284Z" fill="black"/>
<path d="M9.91287 13.2773C9.69678 13.2773 9.57324 13.4317 9.57324 13.648C9.57324 13.8641 9.72763 14.0186 9.91287 14.0186C10.129 14.0186 10.2525 13.8642 10.2525 13.648C10.2525 13.4317 10.129 13.2773 9.91287 13.2773Z" fill="black"/>
</svg>