<svg width="38" height="38" viewBox="0 0 30 40" fill="none" xmlns="http://www.w3.org/2000/svg">
<path d="M6.23246 0.954803L6.03726 1.10921L6.01286 3.96441L5.98846 6.8196H3.51566H1.04286L0.823256 7.0068C0.660456 7.1452 0.603656 7.2752 0.603656 7.4704C0.603656 7.6656 0.660456 7.7956 0.823256 7.934L1.04286 8.1212H3.52406H5.99686V11.7816V15.442H3.52406H1.04286L0.823256 15.6292C0.522456 15.8976 0.522456 16.288 0.823256 16.5564L1.04286 16.7436H3.52406H5.99686V20.4044V24.0648H3.52406H1.04286L0.823256 24.252C0.522456 24.5204 0.522456 24.9108 0.823256 25.1792L1.04286 25.3664H3.52406H5.99686V29.0268V32.6872H3.52406H1.04286L0.823256 32.8744C0.522456 33.1428 0.522456 33.5332 0.823256 33.8016L1.04286 33.9888H3.51566H5.98846L6.01286 36.844L6.03726 39.6992L6.23246 39.8536C6.47646 40.0488 6.81806 40.0488 7.06206 39.8536L7.25726 39.6992L7.28166 36.844L7.30606 33.9888H10.9585H14.6109L14.6353 36.844L14.6597 39.6992L14.8549 39.8536C15.0989 40.0488 15.4405 40.0488 15.6845 39.8536L15.8797 39.6992L15.9041 36.844L15.9285 33.9888H19.5809H23.2333L23.2577 36.844L23.2821 39.6992L23.4773 39.8536C23.7213 40.0488 24.0629 40.0488 24.3069 39.8536L24.5021 39.6992L24.5265 36.844L24.5509 33.9888H27.0237H29.4965L29.7161 33.8016C30.0173 33.5332 30.0173 33.1428 29.7161 32.8744L29.4965 32.6872H27.0153H24.5425V29.0268V25.3664H27.0153H29.4965L29.7241 25.1712L29.9521 24.976V20.4044V15.8328L29.7241 15.6376L29.4965 15.4424H27.0153H24.5425V11.782V8.1216H27.0153H29.4965L29.7161 7.9344C30.0173 7.666 30.0173 7.2756 29.7161 7.0072L29.4965 6.82H27.0237H24.5509L24.5265 3.9648L24.5021 1.1096L24.3069 0.955204C24.2013 0.874004 24.0141 0.800804 23.8921 0.800804C23.7701 0.800804 23.5829 0.874004 23.4773 0.955204L23.2821 1.1096L23.2577 3.9648L23.2333 6.82H19.5809H15.9285L15.9041 3.9648L15.8797 1.1096L15.6845 0.955204C15.5789 0.874004 15.3917 0.800804 15.2697 0.800804C15.1477 0.800804 14.9605 0.874004 14.8549 0.955204L14.6597 1.1096L14.6353 3.9648L14.6109 6.82H10.9585H7.30606L7.28166 3.9648L7.25726 1.1096L7.06206 0.955204C6.95646 0.874004 6.76926 0.800804 6.64726 0.800804C6.52526 0.800804 6.33806 0.873604 6.23246 0.954803ZM14.6189 11.782V15.4424H10.9585H7.29806V11.782V8.1216H10.9585H14.6189V11.782ZM23.2417 11.782V15.4424H19.5813H15.9209V11.782V8.1216H19.5813H23.2417V11.782ZM14.6189 20.4044V24.0648H10.9585H7.29806V20.4044V16.744H10.9585H14.6189V20.4044ZM23.2417 20.4044V24.0648H19.5813H15.9209V20.4044V16.744H19.5813H23.2417V20.4044ZM27.4797 18.802C27.8541 19.054 27.9761 19.3144 27.9273 19.7536C27.9029 20.0384 27.8377 20.1684 27.6021 20.38L27.3169 20.6404L27.5121 21.226C27.6261 21.5512 27.7153 21.8604 27.7153 21.9256C27.7153 22.0068 27.5281 22.0312 26.9425 22.0312C26.3569 22.0312 26.1697 22.0068 26.1697 21.9256C26.1697 21.8604 26.2593 21.5512 26.3729 21.226L26.5685 20.6404L26.2837 20.38C26.0477 20.1684 25.9825 20.0384 25.9585 19.7536C25.9341 19.542 25.9665 19.306 26.0237 19.184C26.1781 18.8992 26.6337 18.6144 26.9429 18.6144C27.0893 18.6148 27.3253 18.6964 27.4797 18.802ZM14.6189 29.0272V32.6876H10.9585H7.29806V29.0272V25.3668H10.9585H14.6189V29.0272ZM23.2417 29.0272V32.6876H19.5813H15.9209V29.0272V25.3668H19.5813H23.2417V29.0272Z" fill="black"/>
</svg>