<svg width="38" height="38" viewBox="0 0 18 24" fill="none" xmlns="http://www.w3.org/2000/svg">
<path d="M8.88722 23.3039C8.92801 23.3128 8.96424 23.3174 9.00504 23.3174C9.04583 23.3174 9.08207 23.3128 9.12286 23.3037C13.2573 22.2021 15.5105 19.1331 16.6709 16.7485C17.5368 14.9761 17.9946 12.9406 17.9946 10.8641V5.46491C17.9946 5.25184 17.8451 5.0659 17.6364 5.02056C17.5865 5.01145 12.4728 3.88272 9.32244 0.777405C9.14562 0.600576 8.86007 0.605127 8.68781 0.777405C5.54169 3.87821 0.428239 5.00691 0.373839 5.02056C0.165322 5.0659 0.015625 5.25184 0.015625 5.46491V10.8641C0.015625 12.9403 0.473449 14.9758 1.33939 16.7485C2.5 19.1331 4.75304 22.2021 8.88739 23.3037L8.88722 23.3039ZM0.921987 10.8643V5.82307C2.14137 5.51475 6.14002 4.3498 9.00476 1.72942C11.8699 4.35417 15.8684 5.51479 17.0875 5.82307V10.8643C17.0875 12.8045 16.6614 14.7041 15.859 16.3495C14.7891 18.5392 12.7354 21.3543 9.00461 22.3922C5.27374 21.354 3.22024 18.539 2.15458 16.3495C1.34767 14.6994 0.921502 12.8045 0.921502 10.8643H0.921987Z" fill="black"/>
<path d="M9.00135 17.6414C12.1204 17.6414 14.659 15.1027 14.659 11.9838C14.659 8.86481 12.1203 6.32617 9.00135 6.32617C5.88238 6.32617 3.34375 8.86481 3.34375 11.9838C3.34375 15.1027 5.88238 17.6414 9.00135 17.6414ZM9.00135 7.233C11.6215 7.233 13.7522 9.36368 13.7522 11.9839C13.7522 14.6041 11.6215 16.7347 9.00135 16.7347C6.38116 16.7347 4.25048 14.6041 4.25048 11.9839C4.25048 9.36368 6.38116 7.233 9.00135 7.233Z" fill="black"/>
<path d="M7.65119 14.0147C7.73732 14.1009 7.8506 14.1462 7.97297 14.1462C8.09535 14.1462 8.20862 14.0963 8.29476 14.0147L11.7173 10.5921C11.8942 10.4153 11.8942 10.1298 11.7173 9.95293C11.5405 9.77611 11.255 9.7761 11.0781 9.95293L7.97734 13.0583L6.9437 12.0247C6.76687 11.8478 6.48132 11.8478 6.3045 12.0247C6.12767 12.2015 6.12767 12.487 6.3045 12.6638L7.65119 14.0147Z" fill="black"/>
</svg>