<svg width="38" height="38" viewBox="0 0 29 25" fill="none" xmlns="http://www.w3.org/2000/svg">
<path d="M13.5565 18.2162L13.0827 16.5793C13.255 16.3639 13.3843 16.0623 13.3843 15.8039C13.3843 15.1147 12.8243 14.5977 12.178 14.5977C11.4888 14.5977 10.9718 15.1576 10.9718 15.8039C10.9718 16.1055 11.0579 16.3639 11.2733 16.5793L10.7995 18.2594L13.5565 18.2592L13.5565 18.2162ZM12.135 15.2008C12.4366 15.2008 12.695 15.4592 12.695 15.7607C12.695 15.933 12.6089 16.1052 12.4796 16.1916L12.3073 16.3209L12.6518 17.5271H11.5749L11.9194 16.3209L11.7471 16.1916C11.6178 16.0623 11.5317 15.9332 11.5317 15.7607C11.5751 15.4591 11.8335 15.2008 12.135 15.2008Z" fill="black"/>
<path d="M26.5225 0.511719H2.39954C1.27964 0.511719 0.374939 1.41642 0.374939 2.57947V22.438C0.374939 23.5579 1.27964 24.5057 2.39954 24.5057H26.5225C27.6424 24.5057 28.5903 23.601 28.5903 22.438V2.53647C28.5903 1.41657 27.6424 0.511869 26.5225 0.511869V0.511719ZM2.39954 1.15782H26.5225C27.2979 1.15782 27.944 1.80392 27.944 2.57932V3.87172H1.02104V2.57932C1.02104 1.76097 1.62414 1.15782 2.39954 1.15782ZM26.5225 23.8163H2.39954C1.62414 23.8163 1.02104 23.1702 1.02104 22.3948V4.47482H27.944V22.4378C27.944 23.2132 27.2979 23.8163 26.5225 23.8163Z" fill="black"/>
<path d="M23.335 2.19141H23.9811V2.83751H23.335V2.19141Z" fill="black"/>
<path d="M24.9716 2.19141H25.6177V2.83751H24.9716V2.19141Z" fill="black"/>
<path d="M21.6981 2.19141H22.3442V2.83751H21.6981V2.19141Z" fill="black"/>
<path d="M3.08856 2.19141H19.6731V2.83751H3.08856V2.19141Z" fill="black"/>
<path d="M2.22701 11.3656H9.89501C9.89501 11.4517 9.85185 11.4949 9.85185 11.581V13.3472H8.04265L8.04245 19.5932H16.184V13.3902H14.3748V11.624C14.3748 11.5379 14.3748 11.4947 14.3316 11.4086H16.4855V5.85156H2.22699L2.22701 11.3656ZM15.5805 18.9471H8.73151V14.0363H15.5805V18.9471ZM10.4975 13.3901V11.6239C10.4975 10.7192 11.2298 9.98696 12.1344 9.98696C13.0391 9.98696 13.7713 10.7192 13.7713 11.6239V13.3901H10.4975ZM2.87301 6.49756H15.9255V10.7191H14.2454C13.9009 9.90051 13.0823 9.29756 12.1347 9.29756C11.187 9.29756 10.3685 9.90066 10.0239 10.7191H2.87291L2.87301 6.49756Z" fill="black"/>
<path d="M17.5195 11.3656H26.738V5.85156H17.5195V11.3656ZM18.1658 6.49781H26.0918V10.7193H18.1658V6.49781Z" fill="black"/>
<path d="M23.0336 8.17928C23.0336 7.44703 22.4305 6.80078 21.6551 6.80078C20.9228 6.80078 20.2766 7.40388 20.2766 8.17928C20.2766 8.95468 20.8797 9.55778 21.6551 9.55778C21.9135 9.55778 22.1721 9.47165 22.3443 9.34235L23.3781 10.3762L23.8519 9.90232L22.8181 8.86852C22.9474 8.69606 23.0336 8.43767 23.0336 8.17928ZM21.6551 8.91153C21.2674 8.91153 20.9228 8.60997 20.9228 8.17928C20.9228 7.79159 21.2244 7.44703 21.6551 7.44703C22.0427 7.44703 22.3873 7.74859 22.3873 8.17928C22.3875 8.56698 22.0428 8.91153 21.6551 8.91153Z" fill="black"/>
<path d="M20.147 17.1406L21.7839 22.2666L22.6025 20.0266L24.0671 21.4912L24.541 21.0174L23.0332 19.5957L25.2732 18.7771L20.147 17.1406ZM21.8271 20.2852L21.1379 18.1315L23.2486 18.8207L22.1717 19.2084L21.8271 20.2852Z" fill="black"/>
<path d="M5.25854 9.79568L6.5685 7.17578L7.14644 7.46465L5.8365 10.0845L5.25854 9.79568Z" fill="black"/>
<path d="M6.84955 9.79177L8.1595 7.17188L8.73745 7.46074L7.4275 10.0806L6.84955 9.79177Z" fill="black"/>
<path d="M3.86401 7.57812H4.51011V8.22423H3.86401V7.57812Z" fill="black"/>
<path d="M3.86401 8.95703H4.51011V9.60313H3.86401V8.95703Z" fill="black"/>
</svg>