<svg width="38" height="38" viewBox="0 0 24 22" fill="none" xmlns="http://www.w3.org/2000/svg">
<path d="M16.5278 6.9456C16.4071 6.9456 16.3009 6.85851 16.2806 6.73575C16.0849 5.56266 15.5549 4.65039 14.7045 4.0245C14.0651 3.55377 13.4724 3.42799 13.4665 3.42682C13.3308 3.39893 13.2432 3.26669 13.2707 3.13103C13.2982 2.99537 13.4299 2.90734 13.5655 2.93466C13.5934 2.94016 14.2554 3.07696 14.9815 3.60519C15.6491 4.09071 16.5023 5.01376 16.7756 6.65324C16.7984 6.78985 16.706 6.91925 16.5694 6.94201C16.5553 6.94448 16.5413 6.9456 16.5278 6.9456Z" fill="black"/>
<path d="M10.0078 9.80664H11.0117V10.8105H10.0078V9.80664Z" fill="black"/>
<path d="M10.0078 7.79883H11.0117V9.30474H10.0078V7.79883Z" fill="black"/>
<path d="M11.5078 9.80664H12.5117V10.8105H11.5078V9.80664Z" fill="black"/>
<path d="M11.5078 8.30078H12.5117V9.30466H11.5078V8.30078Z" fill="black"/>
<path d="M11.5078 6.79492H12.5117V7.7988H11.5078V6.79492Z" fill="black"/>
<path d="M13.0156 9.80664H14.0195V10.8105H13.0156V9.80664Z" fill="black"/>
<path d="M18.0391 11.8145H19.0429V12.8183H18.0391V11.8145Z" fill="black"/>
<path d="M19.5469 11.8145H20.5507V12.8183H19.5469V11.8145Z" fill="black"/>
<path d="M18.0391 13.3203H19.0429V14.3242H18.0391V13.3203Z" fill="black"/>
<path d="M15.5234 11.8145H17.5314V12.8183H15.5234V11.8145Z" fill="black"/>
<path d="M15.5234 13.3203H17.5314V14.3242H15.5234V13.3203Z" fill="black"/>
<path d="M4.48438 13.3203H5.48825V14.3242H4.48438V13.3203Z" fill="black"/>
<path d="M4.48438 11.8145H5.48825V12.8183H4.48438V11.8145Z" fill="black"/>
<path d="M2.97656 11.8145H3.98044V12.8183H2.97656V11.8145Z" fill="black"/>
<path d="M5.99219 13.3203H8.00013V14.3242H5.99219V13.3203Z" fill="black"/>
<path d="M5.99219 11.8145H8.00013V12.8183H5.99219V11.8145Z" fill="black"/>
<path d="M13.0156 7.79883H14.0195V9.30474H13.0156V7.79883Z" fill="black"/>
<path d="M19.0409 15.9809H14.5231C14.3845 15.9809 14.2721 15.8686 14.2721 15.7299V12.0654H9.25227V15.7299C9.25227 15.8686 9.13995 15.9809 9.00126 15.9809H3.9814C3.95825 15.9809 3.93529 15.9777 3.9131 15.9714C2.06209 15.4474 0.71875 13.5266 0.71875 11.404C0.71875 9.33426 2.1366 7.52536 4.11856 7.02595C4.17927 5.05992 5.79199 3.47965 7.76578 3.47965C8.19951 3.47965 8.62186 3.55517 9.02505 3.70448C9.45991 2.91141 10.0881 2.23996 10.8529 1.75308C11.7073 1.20932 12.6958 0.921875 13.712 0.921875C16.661 0.921875 19.0602 3.32917 19.0602 6.28853C19.0602 6.48889 19.0484 6.69209 19.0253 6.89529C21.4059 7.00874 23.3075 8.98765 23.3075 11.4041C23.3075 13.8945 21.4368 15.9049 19.0488 15.9808C19.0463 15.981 19.0435 15.981 19.0408 15.981L19.0409 15.9809ZM14.7742 15.4791H19.0369C21.1505 15.4096 22.8057 13.6205 22.8057 11.4042C22.8057 9.19191 21.013 7.3921 18.8092 7.3921C18.7979 7.3921 18.7865 7.39248 18.7753 7.39285C18.7641 7.39323 18.7529 7.39361 18.7417 7.3938H18.7369C18.6641 7.3938 18.5946 7.36212 18.5468 7.30671C18.4981 7.25017 18.477 7.17485 18.4893 7.10142C18.5349 6.82953 18.558 6.55611 18.558 6.28843C18.558 3.60598 16.3841 1.42352 13.7121 1.42352C11.8563 1.42352 10.1914 2.46193 9.3672 4.13366C9.30762 4.25452 9.16324 4.30669 9.03991 4.25205C8.63654 4.07238 8.20774 3.9813 7.76569 3.9813C6.03038 3.9813 4.61879 5.39862 4.61879 7.14073C4.61879 7.15648 4.61936 7.17204 4.61993 7.18779L4.62088 7.21985C4.62373 7.34147 4.53911 7.44772 4.41996 7.47181C2.56628 7.84843 1.2209 9.50215 1.2209 11.4038C1.2209 13.2935 2.39496 15.001 4.01715 15.4787H8.75039L8.75058 11.8146C8.75058 11.6761 8.8629 11.5636 9.0016 11.5636H14.5232C14.6617 11.5636 14.7742 11.6759 14.7742 11.8146L14.7742 15.4791Z" fill="black"/>
<path d="M14.5226 17.5881H9.00102C8.86232 17.5881 8.75 17.4758 8.75 17.3371V11.8155C8.75 11.6768 8.86232 11.5645 9.00102 11.5645H14.5226C14.6613 11.5645 14.7736 11.6768 14.7736 11.8155V17.3371C14.7736 17.4758 14.6613 17.5881 14.5226 17.5881ZM9.25213 17.0862H14.2715V12.0664H9.25213V17.0862Z" fill="black"/>
<path d="M10.5071 21.1018H2.97758C2.83888 21.1018 2.72656 20.9895 2.72656 20.8508C2.72656 20.7121 2.83888 20.5998 2.97758 20.5998H10.256V17.337C10.256 17.1983 10.3683 17.0859 10.507 17.0859C10.6457 17.0859 10.758 17.1983 10.758 17.337V20.8508C10.758 20.9895 10.6457 21.1018 10.507 21.1018H10.5071Z" fill="black"/>
<path d="M20.5462 21.1018H13.0166C12.8781 21.1018 12.7656 20.9895 12.7656 20.8508V17.337C12.7656 17.1983 12.8779 17.0859 13.0166 17.0859C13.1553 17.0859 13.2677 17.1983 13.2677 17.337V20.5998H20.5461C20.6848 20.5998 20.7971 20.7121 20.7971 20.8508C20.7971 20.9895 20.6848 21.1018 20.5461 21.1018H20.5462Z" fill="black"/>
<path d="M13.0186 16.0821H10.5088C10.3701 16.0821 10.2578 15.9698 10.2578 15.8311V13.3213C10.2578 13.1826 10.3701 13.0703 10.5088 13.0703H13.0186C13.1573 13.0703 13.2696 13.1826 13.2696 13.3213V15.8311C13.2696 15.9696 13.1573 16.0821 13.0186 16.0821ZM10.7598 15.5801H12.7678V13.5722H10.7598V15.5801Z" fill="black"/>
</svg>