<svg width="38" height="38" viewBox="0 0 34 34" fill="none" xmlns="http://www.w3.org/2000/svg">
                                <g clip-path="url(#clip0_3369_14965)">
                                <path d="M22.034 22.0406H21.026V20.0244C21.026 18.955 20.6011 17.9294 19.8449 17.1732C19.0887 16.417 18.0631 15.9922 16.9937 15.9922C15.9243 15.9922 14.8987 16.417 14.1425 17.1732C13.3863 17.9294 12.9614 18.955 12.9614 20.0244V22.0406H11.9534C11.686 22.0406 11.4296 22.1468 11.2406 22.3358C11.0515 22.5249 10.9453 22.7813 10.9453 23.0486V30.1051C10.9453 30.3724 11.0515 30.6289 11.2406 30.8179C11.4296 31.0069 11.686 31.1132 11.9534 31.1132H22.034C22.3014 31.1132 22.5578 31.0069 22.7468 30.8179C22.9359 30.6289 23.0421 30.3724 23.0421 30.1051V23.0486C23.0421 22.7813 22.9359 22.5249 22.7468 22.3358C22.5578 22.1468 22.3014 22.0406 22.034 22.0406ZM14.9776 20.0244C14.9776 19.4897 15.19 18.9769 15.5681 18.5988C15.9462 18.2207 16.459 18.0083 16.9937 18.0083C17.5284 18.0083 18.0412 18.2207 18.4193 18.5988C18.7974 18.9769 19.0098 19.4897 19.0098 20.0244V22.0406H14.9776V20.0244ZM21.026 29.097H12.9614V24.0567H21.026V29.097Z" fill="black"/>
                                <path d="M16.9924 25.0664C16.7251 25.0664 16.4687 25.1726 16.2796 25.3617C16.0906 25.5507 15.9844 25.8071 15.9844 26.0745V27.0825C15.9844 27.3499 16.0906 27.6063 16.2796 27.7953C16.4687 27.9844 16.7251 28.0906 16.9924 28.0906C17.2598 28.0906 17.5162 27.9844 17.7052 27.7953C17.8943 27.6063 18.0005 27.3499 18.0005 27.0825V26.0745C18.0005 25.8071 17.8943 25.5507 17.7052 25.3617C17.5162 25.1726 17.2598 25.0664 16.9924 25.0664Z" fill="black"/>
                                <path d="M7.92364 26.0738C6.05215 26.0738 4.25732 25.3304 2.93397 24.0071C1.61063 22.6837 0.867187 20.8889 0.867188 19.0174C0.867187 17.1459 1.61063 15.3511 2.93397 14.0277C4.25732 12.7044 6.05215 11.9609 7.92364 11.9609C8.19099 11.9609 8.4474 12.0671 8.63645 12.2562C8.8255 12.4452 8.9317 12.7016 8.9317 12.969C8.9317 13.2364 8.8255 13.4928 8.63645 13.6818C8.4474 13.8709 8.19099 13.9771 7.92364 13.9771C6.58686 13.9771 5.30484 14.5081 4.35959 15.4533C3.41435 16.3986 2.88332 17.6806 2.88332 19.0174C2.88332 20.3542 3.41435 21.6362 4.35959 22.5814C5.30484 23.5267 6.58686 24.0577 7.92364 24.0577C8.19099 24.0577 8.4474 24.1639 8.63645 24.353C8.8255 24.542 8.9317 24.7984 8.9317 25.0658C8.9317 25.3331 8.8255 25.5895 8.63645 25.7786C8.4474 25.9676 8.19099 26.0738 7.92364 26.0738Z" fill="black"/>
                                <path d="M26.0706 26.0738C25.8032 26.0738 25.5468 25.9676 25.3578 25.7786C25.1687 25.5895 25.0625 25.3331 25.0625 25.0658C25.0625 24.7984 25.1687 24.542 25.3578 24.353C25.5468 24.1639 25.8032 24.0577 26.0706 24.0577C27.4073 24.0577 28.6894 23.5267 29.6346 22.5814C30.5799 21.6362 31.1109 20.3542 31.1109 19.0174C31.1109 17.6806 30.5799 16.3986 29.6346 15.4533C28.6894 14.5081 27.4073 13.9771 26.0706 13.9771C25.8032 13.9771 25.5468 13.8709 25.3578 13.6818C25.1687 13.4928 25.0625 13.2364 25.0625 12.969C25.0625 12.7016 25.1687 12.4452 25.3578 12.2562C25.5468 12.0671 25.8032 11.9609 26.0706 11.9609C27.9421 11.9609 29.7369 12.7044 31.0602 14.0277C32.3836 15.3511 33.127 17.1459 33.127 19.0174C33.127 20.8889 32.3836 22.6837 31.0602 24.0071C29.7369 25.3304 27.9421 26.0738 26.0706 26.0738Z" fill="black"/>
                                <path d="M26.0673 13.9754C25.7999 13.9754 25.5435 13.8692 25.3545 13.6802C25.1654 13.4911 25.0592 13.2347 25.0592 12.9674C25.0592 10.8285 24.2096 8.77728 22.6972 7.26489C21.1848 5.7525 19.1336 4.90285 16.9947 4.90285C14.8559 4.90285 12.8046 5.7525 11.2922 7.26489C9.77984 8.77728 8.93019 10.8285 8.93019 12.9674C8.93019 13.2347 8.82398 13.4911 8.63494 13.6802C8.44589 13.8692 8.18948 13.9754 7.92213 13.9754C7.65477 13.9754 7.39837 13.8692 7.20932 13.6802C7.02027 13.4911 6.91406 13.2347 6.91406 12.9674C6.91406 10.2938 7.97613 7.72976 9.86662 5.83927C11.7571 3.94878 14.3212 2.88672 16.9947 2.88672C19.6683 2.88672 22.2323 3.94878 24.1228 5.83927C26.0133 7.72976 27.0754 10.2938 27.0754 12.9674C27.0754 13.2347 26.9691 13.4911 26.7801 13.6802C26.591 13.8692 26.3346 13.9754 26.0673 13.9754Z" fill="black"/>
                                <path d="M8.93019 26.0708H7.92213C7.65477 26.0708 7.39837 25.9646 7.20932 25.7756C7.02027 25.5865 6.91406 25.3301 6.91406 25.0628C6.91406 24.7954 7.02027 24.539 7.20932 24.3499C7.39837 24.1609 7.65477 24.0547 7.92213 24.0547H8.93019C9.19755 24.0547 9.45395 24.1609 9.643 24.3499C9.83205 24.539 9.93826 24.7954 9.93826 25.0628C9.93826 25.3301 9.83205 25.5865 9.643 25.7756C9.45395 25.9646 9.19755 26.0708 8.93019 26.0708Z" fill="black"/>
                                <path d="M26.0708 26.0708H25.0628C24.7954 26.0708 24.539 25.9646 24.3499 25.7756C24.1609 25.5865 24.0547 25.3301 24.0547 25.0628C24.0547 24.7954 24.1609 24.539 24.3499 24.3499C24.539 24.1609 24.7954 24.0547 25.0628 24.0547H26.0708C26.3382 24.0547 26.5946 24.1609 26.7836 24.3499C26.9727 24.539 27.0789 24.7954 27.0789 25.0628C27.0789 25.3301 26.9727 25.5865 26.7836 25.7756C26.5946 25.9646 26.3382 26.0708 26.0708 26.0708Z" fill="black"/>
                                </g>
                                <defs>
                                <clipPath id="clip0_3369_14965">
                                <rect width="32.2581" height="32.2581" fill="white" transform="translate(0.867188 0.871094)"/>
                                </clipPath>
                                </defs>
                                </svg>