<svg width="38" height="38" viewBox="0 0 28 28" fill="none" xmlns="http://www.w3.org/2000/svg">
<path d="M25.468 1.97737H22.6691L21.0935 0.401808C21.0138 0.322122 20.9057 0.277344 20.793 0.277344H8.89297C8.44217 0.277913 8.01014 0.457209 7.69141 0.775784C7.37285 1.09453 7.19356 1.52655 7.19297 1.97734V7.92734H8.04297V1.97734C8.04316 1.75194 8.13291 1.53603 8.29228 1.37666C8.45165 1.21729 8.66757 1.12754 8.89297 1.12735H20.368V3.67735C20.3685 4.12815 20.5478 4.56019 20.8664 4.87891C21.1852 5.19747 21.6172 5.37677 22.068 5.37735H24.618V21.5274C24.6178 21.7528 24.528 21.9687 24.3687 22.128C24.2093 22.2874 23.9934 22.3772 23.768 22.3773H16.118V23.2273H23.768C24.2188 23.2268 24.6508 23.0475 24.9695 22.7289C25.2881 22.4102 25.4674 21.9781 25.468 21.5273V4.95234C25.468 4.83964 25.4232 4.73149 25.3435 4.65181L23.5191 2.82737H25.468C25.6934 2.82756 25.9093 2.9173 26.0687 3.07668C26.2281 3.23605 26.3178 3.45197 26.318 3.67736V23.2274C26.3178 23.4528 26.2281 23.6687 26.0687 23.828C25.9093 23.9874 25.6934 24.0772 25.468 24.0773H16.118V24.9273H25.468C25.9188 24.9268 26.3508 24.7475 26.6696 24.4289C26.9881 24.1102 27.1674 23.6781 27.168 23.2273V3.67735C27.1674 3.22655 26.9881 2.79451 26.6696 2.47579C26.3508 2.15723 25.9188 1.97795 25.468 1.97737ZM21.218 3.67737V1.72844L24.0169 4.52737H22.068C21.8426 4.52718 21.6267 4.43743 21.4673 4.27806C21.3079 4.11869 21.2182 3.90276 21.218 3.67737ZM8.043 13.0274V15.5774H7.193V13.0274H8.043ZM10.168 2.82737H9.318V1.97737H10.168V2.82737ZM11.868 2.82737H11.018V1.97737H11.868V2.82737ZM13.568 2.82737H12.718V1.97737H13.568V2.82737ZM15.268 17.7024V24.5024C15.2676 24.8405 15.1331 25.1645 14.8942 25.4036C14.6552 25.6425 14.3311 25.777 13.993 25.7774H2.94298C2.60488 25.777 2.28081 25.6425 2.04174 25.4036C1.80287 25.1645 1.66835 24.8405 1.66797 24.5024V19.4024H2.51797V24.5024C2.51816 24.7371 2.70827 24.9272 2.94297 24.9274H13.993C14.2277 24.9272 14.4178 24.7371 14.418 24.5024V17.7024C14.4178 17.4677 14.2277 17.2776 13.993 17.2774H2.94297C2.70827 17.2776 2.51816 17.4677 2.51797 17.7024V18.5524H1.66797V17.7024C1.66835 17.3643 1.80287 17.0402 2.04174 16.8011C2.2808 16.5623 2.60488 16.4277 2.94298 16.4274H10.593V13.8774C10.593 13.1182 10.1879 12.4166 9.53048 12.0371C8.87307 11.6575 8.0629 11.6575 7.40548 12.0371C6.74807 12.4166 6.34298 13.1182 6.34298 13.8774V15.1524C6.34298 15.2651 6.29821 15.3732 6.21852 15.4529C6.13883 15.5326 6.03068 15.5774 5.91798 15.5774H3.79298C3.55829 15.5774 3.36798 15.3871 3.36798 15.1524V13.8774C3.36229 12.4724 3.9419 11.1285 4.96764 10.1683L5.55127 10.7865H5.55108C4.69632 11.5866 4.21328 12.7065 4.21804 13.8774V14.7274H5.49304V13.8774C5.49304 12.8145 6.06016 11.8324 6.98054 11.301C7.90092 10.7696 9.03516 10.7696 9.95554 11.301C10.8759 11.8324 11.443 12.8145 11.443 13.8774V16.4274H12.718V13.8774C12.7178 12.8523 12.3473 11.8619 11.6745 11.0885C11.0017 10.315 10.0723 9.81066 9.05697 9.66859C8.04192 9.52629 7.00958 9.75568 6.15006 10.3144L5.68579 9.60258H5.68598C6.71715 8.93186 7.95591 8.65641 9.17418 8.82675C10.3925 8.99732 11.5083 9.60239 12.3156 10.5305C13.1231 11.4585 13.5678 12.6472 13.568 13.8774V16.4274H13.993C14.3311 16.4278 14.6552 16.5623 14.8942 16.8012C15.1331 17.0402 15.2676 17.3643 15.268 17.7024L15.268 17.7024ZM8.893 22.8024V21.8793C9.27417 21.7444 9.56882 21.4369 9.68724 21.0504C9.80544 20.6637 9.73353 20.244 9.49314 19.919C9.25256 19.594 8.87235 19.4022 8.46804 19.4022C8.06373 19.4022 7.68352 19.594 7.44294 19.919C7.20255 20.244 7.13064 20.6637 7.24885 21.0504C7.36724 21.4369 7.66189 21.7444 8.04309 21.8793V22.8024H8.893ZM8.468 20.2524C8.6399 20.2524 8.79491 20.356 8.86055 20.5148C8.92639 20.6736 8.89015 20.8563 8.76853 20.9779C8.64692 21.0995 8.4642 21.1358 8.3054 21.0699C8.14659 21.0043 8.043 20.8493 8.043 20.6774C8.04319 20.4427 8.2333 20.2526 8.468 20.2524ZM9.318 6.22737C9.318 6.68291 9.56105 7.10374 9.9555 7.33159C10.35 7.55927 10.8361 7.55927 11.2305 7.33159C11.625 7.10372 11.868 6.68292 11.868 6.22737V5.37737C11.868 4.92182 11.625 4.50099 11.2305 4.27315C10.836 4.04547 10.3499 4.04547 9.9555 4.27315C9.56105 4.50101 9.318 4.92182 9.318 5.37737V6.22737ZM10.168 5.37737C10.168 5.14267 10.3583 4.95237 10.593 4.95237C10.8277 4.95237 11.018 5.14267 11.018 5.37737V6.22737C11.018 6.46207 10.8277 6.65237 10.593 6.65237C10.3583 6.65237 10.168 6.46207 10.168 6.22737V5.37737ZM12.718 4.10237H13.568V7.50237H12.718V4.10237ZM15.693 4.10237C15.3549 4.10275 15.0308 4.23727 14.7918 4.47614C14.5529 4.7152 14.4184 5.03928 14.418 5.37738V6.22738C14.418 6.68293 14.661 7.10376 15.0555 7.33161C15.4499 7.55928 15.936 7.55928 16.3305 7.33161C16.7249 7.10374 16.968 6.68293 16.968 6.22738V5.37738C16.9676 5.03928 16.8331 4.71521 16.5942 4.47614C16.3552 4.23727 16.0311 4.10275 15.693 4.10237ZM16.118 6.22737C16.118 6.46207 15.9277 6.65237 15.693 6.65237C15.4583 6.65237 15.268 6.46207 15.268 6.22737V5.37737C15.268 5.14267 15.4583 4.95237 15.693 4.95237C15.9277 4.95237 16.118 5.14267 16.118 5.37737V6.22737ZM19.093 4.10237C18.7549 4.10275 18.4308 4.23727 18.1918 4.47614C17.9529 4.7152 17.8184 5.03928 17.818 5.37738V6.22738C17.818 6.68293 18.061 7.10376 18.4555 7.33161C18.8499 7.55928 19.336 7.55928 19.7305 7.33161C20.1249 7.10374 20.368 6.68293 20.368 6.22738V5.37738C20.3676 5.03928 20.2331 4.71521 19.9942 4.47614C19.7552 4.23727 19.4311 4.10275 19.093 4.10237ZM19.518 6.22737C19.518 6.46207 19.3277 6.65237 19.093 6.65237C18.8583 6.65237 18.668 6.46207 18.668 6.22737V5.37737C18.668 5.14267 18.8583 4.95237 19.093 4.95237C19.3277 4.95237 19.518 5.14267 19.518 5.37737V6.22737ZM13.993 9.62737V10.4774C13.993 10.9329 14.236 11.3537 14.6305 11.5816C15.025 11.8093 15.5111 11.8093 15.9055 11.5816C16.3 11.3537 16.543 10.9329 16.543 10.4774V9.62737C16.543 9.17182 16.3 8.75099 15.9055 8.52315C15.511 8.29547 15.0249 8.29547 14.6305 8.52315C14.236 8.75101 13.993 9.17182 13.993 9.62737ZM14.843 9.62737C14.843 9.39267 15.0333 9.20237 15.268 9.20237C15.5027 9.20237 15.693 9.39267 15.693 9.62737V10.4774C15.693 10.7121 15.5027 10.9024 15.268 10.9024C15.0333 10.9024 14.843 10.7121 14.843 10.4774V9.62737ZM17.393 8.35237H18.243V11.7524H17.393V8.35237ZM20.368 8.35237C20.0299 8.35275 19.7058 8.48727 19.4668 8.72614C19.2279 8.9652 19.0934 9.28928 19.093 9.62738V10.4774C19.093 10.9329 19.336 11.3538 19.7305 11.5816C20.1249 11.8093 20.611 11.8093 21.0055 11.5816C21.3999 11.3537 21.643 10.9329 21.643 10.4774V9.62738C21.6426 9.28928 21.5081 8.96521 21.2692 8.72614C21.0302 8.48727 20.7061 8.35275 20.368 8.35237ZM20.793 10.4774C20.793 10.7121 20.6027 10.9024 20.368 10.9024C20.1333 10.9024 19.943 10.7121 19.943 10.4774V9.62737C19.943 9.39267 20.1333 9.20237 20.368 9.20237C20.6027 9.20237 20.793 9.39267 20.793 9.62737V10.4774ZM23.343 8.35237V11.7524H22.493V8.35237H23.343ZM14.843 12.6024H15.693V16.0024H14.843V12.6024ZM16.543 13.8774V14.7274C16.543 15.1829 16.786 15.6037 17.1805 15.8316C17.575 16.0593 18.0611 16.0593 18.4555 15.8316C18.85 15.6037 19.093 15.1829 19.093 14.7274V13.8774C19.093 13.4218 18.85 13.001 18.4555 12.7731C18.061 12.5455 17.5749 12.5455 17.1805 12.7731C16.786 13.001 16.543 13.4218 16.543 13.8774ZM17.393 13.8774C17.393 13.6427 17.5833 13.4524 17.818 13.4524C18.0527 13.4524 18.243 13.6427 18.243 13.8774V14.7274C18.243 14.9621 18.0527 15.1524 17.818 15.1524C17.5833 15.1524 17.393 14.9621 17.393 14.7274V13.8774ZM22.493 13.8774C22.493 13.4218 22.25 13.001 21.8555 12.7731C21.461 12.5455 20.9749 12.5455 20.5805 12.7731C20.186 13.001 19.943 13.4218 19.943 13.8774V14.7274C19.943 15.1829 20.186 15.6037 20.5805 15.8316C20.975 16.0593 21.4611 16.0593 21.8555 15.8316C22.25 15.6037 22.493 15.1829 22.493 14.7274V13.8774ZM21.643 14.7274C21.643 14.9621 21.4527 15.1524 21.218 15.1524C20.9833 15.1524 20.793 14.9621 20.793 14.7274V13.8774C20.793 13.6427 20.9833 13.4524 21.218 13.4524C21.4527 13.4524 21.643 13.6427 21.643 13.8774V14.7274ZM16.543 17.2774H17.393V20.6774H16.543V17.2774ZM21.643 17.2774H22.493V20.6774H21.643V17.2774ZM18.243 18.5524V19.4024C18.243 19.8579 18.486 20.2787 18.8805 20.5066C19.275 20.7343 19.7611 20.7343 20.1555 20.5066C20.55 20.2787 20.793 19.8579 20.793 19.4024V18.5524C20.793 18.0968 20.55 17.676 20.1555 17.4481C19.761 17.2205 19.2749 17.2205 18.8805 17.4481C18.486 17.676 18.243 18.0968 18.243 18.5524ZM19.943 18.5524V19.4024C19.943 19.6371 19.7527 19.8274 19.518 19.8274C19.2833 19.8274 19.093 19.6371 19.093 19.4024V18.5524C19.093 18.3177 19.2833 18.1274 19.518 18.1274C19.7527 18.1274 19.943 18.3177 19.943 18.5524Z" fill="black"/>
<path d="M0.996721 27.4133C0.987614 27.4178 0.977937 27.4214 0.967882 27.4239C0.958205 27.4263 0.948149 27.4277 0.937524 27.4277C0.90508 27.4277 0.879278 27.4189 0.860111 27.4011C0.841328 27.3829 0.832031 27.3584 0.832031 27.3275C0.832031 27.2962 0.841328 27.2717 0.860111 27.2539C0.879274 27.2357 0.905078 27.2266 0.937524 27.2266C0.948149 27.2266 0.958205 27.2279 0.967882 27.2304C0.977937 27.233 0.987614 27.2364 0.996721 27.241V27.2812C0.987614 27.2751 0.978507 27.2706 0.969399 27.2675C0.960672 27.2645 0.951375 27.263 0.941319 27.263C0.923484 27.263 0.909444 27.2689 0.898819 27.2804C0.888574 27.2916 0.883641 27.3074 0.883641 27.3275C0.883641 27.3472 0.888574 27.363 0.898819 27.3746C0.909444 27.3857 0.923484 27.3913 0.941319 27.3913C0.951375 27.3913 0.960672 27.3901 0.969399 27.3875C0.978507 27.3844 0.987614 27.3797 0.996721 27.373V27.4133Z" fill="black"/>
<path d="M1.14368 27.3206C1.13951 27.3187 1.13552 27.3172 1.13154 27.316C1.12737 27.3151 1.12338 27.3145 1.1194 27.3145C1.10725 27.3145 1.09777 27.3187 1.09132 27.3267C1.08525 27.3343 1.08221 27.3453 1.08221 27.3593V27.4261H1.03516V27.2811H1.08221V27.3047C1.08771 27.2952 1.09435 27.2883 1.10194 27.2842C1.10991 27.2796 1.1194 27.2773 1.13002 27.2773H1.13533C1.13723 27.2773 1.13989 27.2777 1.14292 27.2781L1.14368 27.3206Z" fill="black"/>
<path d="M1.31183 27.3532V27.3661H1.2033C1.20482 27.3773 1.20881 27.3857 1.21545 27.3912C1.2219 27.3963 1.23138 27.3988 1.24353 27.3988C1.25358 27.3988 1.26364 27.3976 1.27388 27.395C1.28394 27.3919 1.29437 27.3874 1.305 27.3813V27.417C1.29437 27.4215 1.28337 27.425 1.27236 27.4269C1.26117 27.4288 1.25036 27.4299 1.23973 27.4299C1.21336 27.4299 1.19287 27.4234 1.17826 27.4102C1.16346 27.3965 1.15625 27.3775 1.15625 27.3532C1.15625 27.3301 1.16327 27.3115 1.1775 27.2978C1.19211 27.2842 1.21184 27.2773 1.2367 27.2773C1.25947 27.2773 1.27768 27.2842 1.29134 27.2978C1.305 27.3115 1.31183 27.3301 1.31183 27.3532ZM1.26478 27.3373C1.26478 27.3288 1.26193 27.3219 1.25643 27.3168C1.25131 27.3113 1.24467 27.3085 1.2367 27.3085C1.22759 27.3085 1.22019 27.3111 1.21469 27.316C1.209 27.3212 1.20558 27.3282 1.20406 27.3373L1.26478 27.3373Z" fill="black"/>
<path d="M1.41183 27.3608C1.40215 27.3608 1.39475 27.3627 1.38982 27.3661C1.38527 27.3692 1.38299 27.3741 1.38299 27.3806C1.38299 27.3863 1.3847 27.3908 1.3883 27.3942C1.39229 27.3973 1.39779 27.3988 1.405 27.3988C1.41354 27.3988 1.42094 27.3957 1.42701 27.3897C1.43308 27.3836 1.43611 27.3758 1.43611 27.3661V27.3608H1.41183ZM1.48317 27.3434V27.4261H1.43612V27.4048C1.43004 27.4136 1.42283 27.4198 1.41487 27.4238C1.40728 27.4278 1.39779 27.4299 1.38679 27.4299C1.37161 27.4299 1.35908 27.4257 1.3496 27.417C1.34049 27.4079 1.33594 27.3965 1.33594 27.3828C1.33594 27.3658 1.34163 27.353 1.35339 27.3449C1.36497 27.3369 1.38337 27.3327 1.40879 27.3327H1.43612V27.3297C1.43612 27.3221 1.43308 27.3168 1.42701 27.3138C1.42132 27.3104 1.41259 27.3085 1.40045 27.3085C1.3902 27.3085 1.3809 27.3096 1.37237 27.3115C1.36364 27.3136 1.35586 27.3164 1.34884 27.3198V27.2849C1.35832 27.2825 1.36819 27.2808 1.37844 27.2796C1.38849 27.2781 1.39855 27.2773 1.40879 27.2773C1.43498 27.2773 1.45395 27.2827 1.46571 27.2933C1.47729 27.3035 1.48317 27.3202 1.48317 27.3434Z" fill="black"/>
<path d="M1.57688 27.2383V27.28H1.62469V27.3127H1.57688V27.3749C1.57688 27.3815 1.57801 27.3861 1.58067 27.3885C1.58371 27.3906 1.58921 27.3916 1.59737 27.3916H1.62089V27.425H1.58143C1.56265 27.425 1.54955 27.4212 1.54196 27.4136C1.53438 27.406 1.53058 27.3931 1.53058 27.3749V27.3127H1.50781V27.28H1.53058V27.2383L1.57688 27.2383Z" fill="black"/>
<path d="M1.79621 27.3532V27.3661H1.68768C1.6892 27.3773 1.69318 27.3857 1.69982 27.3912C1.70627 27.3963 1.71576 27.3988 1.7279 27.3988C1.73796 27.3988 1.74801 27.3976 1.75826 27.395C1.76831 27.3919 1.77875 27.3874 1.78937 27.3813V27.417C1.77875 27.4215 1.76774 27.425 1.75674 27.4269C1.74555 27.4288 1.73473 27.4299 1.72411 27.4299C1.69773 27.4299 1.67724 27.4234 1.66263 27.4102C1.64783 27.3965 1.64062 27.3775 1.64062 27.3532C1.64062 27.3301 1.64765 27.3115 1.66188 27.2978C1.67648 27.2842 1.69622 27.2773 1.72107 27.2773C1.74384 27.2773 1.76206 27.2842 1.77572 27.2978C1.78938 27.3115 1.79621 27.3301 1.79621 27.3532ZM1.74915 27.3373C1.74915 27.3288 1.74631 27.3219 1.7408 27.3168C1.73568 27.3113 1.72904 27.3085 1.72107 27.3085C1.71196 27.3085 1.70457 27.3111 1.69906 27.316C1.69337 27.3212 1.68996 27.3282 1.68844 27.3373L1.74915 27.3373Z" fill="black"/>
<path d="M1.9335 27.3008V27.2227H1.9798V27.4245H1.9335V27.4033C1.92686 27.412 1.91984 27.4183 1.91225 27.4223C1.90467 27.4262 1.89575 27.4283 1.88569 27.4283C1.86748 27.4283 1.85249 27.4213 1.84092 27.4071C1.82972 27.393 1.82422 27.3744 1.82422 27.3517C1.82422 27.3295 1.82972 27.3113 1.84092 27.297C1.85249 27.283 1.86748 27.2758 1.88569 27.2758C1.89518 27.2758 1.90391 27.2779 1.9115 27.2819C1.91946 27.286 1.92686 27.2923 1.9335 27.3008ZM1.90239 27.3949C1.91244 27.3949 1.92003 27.3915 1.92516 27.3843C1.93066 27.3767 1.93351 27.3659 1.93351 27.3517C1.93351 27.338 1.93066 27.3278 1.92516 27.3206C1.92003 27.313 1.91244 27.3092 1.90239 27.3092C1.89271 27.3092 1.88512 27.313 1.87962 27.3206C1.8745 27.3278 1.87203 27.338 1.87203 27.3517C1.87203 27.3659 1.8745 27.3767 1.87962 27.3843C1.88512 27.3915 1.89271 27.3949 1.90239 27.3949Z" fill="black"/>
<path d="M2.1946 27.3949C2.20465 27.3949 2.21224 27.3915 2.21737 27.3843C2.22287 27.3767 2.22571 27.3659 2.22571 27.3517C2.22571 27.338 2.22287 27.3278 2.21737 27.3206C2.21224 27.313 2.20465 27.3092 2.1946 27.3092C2.18492 27.3092 2.17733 27.313 2.17183 27.3206C2.16671 27.3278 2.16424 27.338 2.16424 27.3517C2.16424 27.3659 2.16671 27.3767 2.17183 27.3843C2.17733 27.3915 2.18492 27.3949 2.1946 27.3949ZM2.16424 27.3008C2.17031 27.2923 2.17714 27.286 2.18473 27.2819C2.1927 27.2779 2.20181 27.2758 2.21205 27.2758C2.2297 27.2758 2.24431 27.283 2.25607 27.297C2.26765 27.3113 2.27353 27.3295 2.27353 27.3517C2.27353 27.3744 2.26765 27.393 2.25607 27.4071C2.24431 27.4213 2.2297 27.4283 2.21205 27.4283C2.20181 27.4283 2.1927 27.4262 2.18473 27.4223C2.17714 27.4183 2.17031 27.412 2.16424 27.4033V27.4245H2.11719V27.2227H2.16424V27.3008Z" fill="black"/>
<path d="M2.28906 27.2773H2.33536L2.37482 27.3752L2.40821 27.2773H2.45451L2.39304 27.436C2.38697 27.4521 2.37976 27.4635 2.37179 27.4701C2.36363 27.4766 2.35281 27.48 2.33915 27.48H2.31259V27.4489H2.32701C2.33498 27.4489 2.34086 27.4475 2.34447 27.4451C2.34788 27.4424 2.35073 27.4382 2.35281 27.4322L2.35433 27.4276L2.28906 27.2773Z" fill="black"/>
<path d="M2.7054 27.3047C2.7109 27.2961 2.71773 27.2895 2.72589 27.2849C2.73386 27.28 2.74297 27.2773 2.75321 27.2773C2.76934 27.2773 2.78167 27.2827 2.7904 27.2933C2.79951 27.3035 2.80406 27.3181 2.80406 27.3373V27.4261H2.75701V27.3502C2.75739 27.3493 2.75777 27.3483 2.75777 27.3472V27.3419C2.75777 27.3312 2.75625 27.3236 2.75321 27.3191C2.75018 27.3145 2.74525 27.3123 2.73879 27.3123C2.72969 27.3123 2.72248 27.316 2.71754 27.3236C2.71299 27.3308 2.71071 27.3411 2.71071 27.3548V27.4261H2.66366V27.3502C2.66366 27.3341 2.66214 27.3236 2.65911 27.3191C2.65645 27.3145 2.65171 27.3123 2.64469 27.3123C2.63596 27.3123 2.62913 27.3161 2.6242 27.3236C2.61964 27.3309 2.61737 27.3411 2.61737 27.3548V27.4261H2.57031V27.2811H2.61737V27.3024C2.62287 27.2939 2.62913 27.2876 2.63634 27.2834C2.64393 27.2794 2.65228 27.2773 2.66138 27.2773C2.67144 27.2773 2.68036 27.28 2.68795 27.2849C2.69554 27.2895 2.70123 27.2961 2.7054 27.3047Z" fill="black"/>
<path d="M2.91562 27.3107C2.90538 27.3107 2.8976 27.3145 2.8921 27.3221C2.88697 27.3293 2.88451 27.3396 2.88451 27.3532C2.88451 27.3675 2.88697 27.3783 2.8921 27.3859C2.8976 27.3931 2.90538 27.3965 2.91562 27.3965C2.92568 27.3965 2.93346 27.3931 2.93915 27.3859C2.94465 27.3783 2.9475 27.3675 2.9475 27.3532C2.9475 27.3396 2.94465 27.3293 2.93915 27.3221C2.93346 27.3145 2.92568 27.3107 2.91562 27.3107ZM2.91562 27.2773C2.94086 27.2773 2.9604 27.2842 2.97406 27.2978C2.9881 27.3111 2.99531 27.3295 2.99531 27.3532C2.99531 27.3775 2.9881 27.3965 2.97406 27.4102C2.9604 27.4234 2.94086 27.4299 2.91562 27.4299C2.89077 27.4299 2.87123 27.4234 2.85719 27.4102C2.84296 27.3965 2.83594 27.3775 2.83594 27.3532C2.83594 27.3295 2.84296 27.3111 2.85719 27.2978C2.87123 27.2842 2.89077 27.2773 2.91562 27.2773Z" fill="black"/>
<path d="M3.17772 27.3373V27.4261H3.13067V27.3585C3.13067 27.346 3.13029 27.3373 3.12991 27.3327C3.12934 27.3278 3.12839 27.3242 3.12688 27.3221C3.12536 27.3191 3.1227 27.3168 3.11929 27.3153C3.11625 27.3134 3.11283 27.3123 3.10942 27.3123C3.09917 27.3123 3.0914 27.316 3.08589 27.3236C3.08077 27.3312 3.0783 27.3417 3.0783 27.3548V27.4261H3.03125V27.2811H3.0783V27.3024C3.08475 27.2939 3.09215 27.2876 3.10031 27.2834C3.10828 27.2794 3.11701 27.2773 3.12612 27.2773C3.14281 27.2773 3.15533 27.2827 3.16406 27.2933C3.17317 27.3035 3.17772 27.3181 3.17772 27.3373Z" fill="black"/>
<path d="M3.21875 27.2227H3.2658V27.3327L3.31893 27.2796H3.37282L3.30224 27.3456L3.37813 27.4245H3.32197L3.26581 27.3638V27.4245H3.21876L3.21875 27.2227Z" fill="black"/>
<path d="M3.39844 27.2796H3.44549V27.4245H3.39844V27.2796ZM3.39844 27.2227H3.44549V27.2606H3.39844V27.2227Z" fill="black"/>
<path d="M3.48828 27.2227H3.53533V27.3327L3.58846 27.2796H3.64235L3.57177 27.3456L3.64766 27.4245H3.5915L3.53534 27.3638V27.4245H3.48829L3.48828 27.2227Z" fill="black"/>
<path d="M0.93654 27.4883V27.5186H0.911496C0.904855 27.5186 0.900111 27.52 0.897076 27.5224C0.894419 27.5251 0.893281 27.5291 0.893281 27.5346V27.5452H0.933504V27.5778H0.893281V27.6902H0.846987V27.5778H0.824219V27.5452H0.846987V27.5346C0.846987 27.519 0.851161 27.5073 0.859888 27.4997C0.868995 27.4921 0.882846 27.4883 0.901629 27.4883L0.93654 27.4883Z" fill="black"/>
<path d="M1.06556 27.5862C1.06138 27.5843 1.0574 27.5828 1.05341 27.5817C1.04924 27.5807 1.04526 27.5802 1.04127 27.5802C1.02913 27.5802 1.01964 27.5843 1.01319 27.5923C1.00712 27.5999 1.00408 27.6109 1.00408 27.6249V27.6917H0.957031V27.5468H1.00408V27.5703C1.00959 27.5608 1.01623 27.554 1.02382 27.5498C1.03179 27.5452 1.04127 27.543 1.0519 27.543H1.05721C1.05911 27.543 1.06176 27.5433 1.0648 27.5437L1.06556 27.5862Z" fill="black"/>
<path d="M1.15781 27.5764C1.14757 27.5764 1.13979 27.5802 1.13428 27.5877C1.12916 27.595 1.12669 27.6052 1.12669 27.6189C1.12669 27.6331 1.12916 27.6439 1.13428 27.6515C1.13979 27.6587 1.14757 27.6621 1.15781 27.6621C1.16787 27.6621 1.17565 27.6587 1.18134 27.6515C1.18684 27.6439 1.18969 27.6331 1.18969 27.6189C1.18969 27.6052 1.18684 27.595 1.18134 27.5877C1.17565 27.5802 1.16787 27.5764 1.15781 27.5764ZM1.15781 27.543C1.18305 27.543 1.20259 27.5498 1.21625 27.5635C1.23029 27.5767 1.2375 27.5951 1.2375 27.6189C1.2375 27.6431 1.23029 27.6621 1.21625 27.6758C1.20259 27.6891 1.18304 27.6955 1.15781 27.6955C1.13296 27.6955 1.11341 27.6891 1.09937 27.6758C1.08515 27.6621 1.07812 27.6431 1.07812 27.6189C1.07812 27.5951 1.08515 27.5767 1.09937 27.5635C1.11342 27.5498 1.13296 27.543 1.15781 27.543Z" fill="black"/>
<path d="M1.40462 27.5703C1.41012 27.5618 1.41695 27.5551 1.42511 27.5506C1.43308 27.5456 1.44219 27.543 1.45243 27.543C1.46856 27.543 1.48089 27.5483 1.48962 27.5589C1.49873 27.5692 1.50328 27.5838 1.50328 27.6029V27.6917H1.45623V27.6158C1.45661 27.6149 1.45699 27.6139 1.45699 27.6128V27.6075C1.45699 27.5969 1.45547 27.5893 1.45243 27.5847C1.4494 27.5802 1.44446 27.5779 1.43801 27.5779C1.42891 27.5779 1.4217 27.5817 1.41676 27.5893C1.41221 27.5965 1.40993 27.6067 1.40993 27.6204V27.6917H1.36288V27.6158C1.36288 27.5997 1.36136 27.5893 1.35833 27.5847C1.35567 27.5802 1.35093 27.5779 1.34391 27.5779C1.33518 27.5779 1.32835 27.5817 1.32341 27.5893C1.31886 27.5965 1.31658 27.6067 1.31658 27.6204V27.6917H1.26953V27.5468H1.31658V27.568C1.32209 27.5595 1.32835 27.5532 1.33556 27.549C1.34315 27.5451 1.3515 27.543 1.3606 27.543C1.37066 27.543 1.37958 27.5456 1.38716 27.5506C1.39475 27.5551 1.40045 27.5618 1.40462 27.5703Z" fill="black"/>
<path d="M1.69016 27.5039V27.5456H1.73797V27.5783H1.69016V27.6405C1.69016 27.6472 1.69129 27.6517 1.69395 27.6542C1.69699 27.6563 1.70249 27.6572 1.71065 27.6572H1.73417V27.6906H1.69471C1.67593 27.6906 1.66284 27.6868 1.65525 27.6792C1.64766 27.6716 1.64386 27.6587 1.64386 27.6405V27.5783H1.62109V27.5456H1.64386V27.5039L1.69016 27.5039Z" fill="black"/>
<path d="M1.9121 27.6014V27.6901H1.86504V27.6226C1.86504 27.6101 1.86467 27.6014 1.86429 27.5968C1.86372 27.5919 1.86277 27.5883 1.86125 27.5862C1.85973 27.5831 1.85708 27.5809 1.85366 27.5793C1.85063 27.5775 1.84721 27.5763 1.84379 27.5763C1.83355 27.5763 1.82577 27.5801 1.82027 27.5877C1.81515 27.5953 1.81268 27.6057 1.81268 27.6188V27.6902H1.76562V27.4883H1.81268V27.5665C1.81913 27.5579 1.82653 27.5517 1.83469 27.5475C1.84266 27.5435 1.85138 27.5414 1.86049 27.5414C1.87719 27.5414 1.88971 27.5467 1.89844 27.5573C1.90754 27.5676 1.9121 27.5822 1.9121 27.6014Z" fill="black"/>
<path d="M2.10089 27.6189V27.6318H1.99237C1.99388 27.643 1.99787 27.6513 2.00451 27.6568C2.01096 27.6619 2.02045 27.6644 2.03259 27.6644C2.04264 27.6644 2.0527 27.6633 2.06295 27.6606C2.073 27.6576 2.08344 27.653 2.09406 27.6469V27.6826C2.08344 27.6872 2.07243 27.6906 2.06143 27.6925C2.05023 27.6944 2.03942 27.6955 2.02879 27.6955C2.00242 27.6955 1.98193 27.6891 1.96732 27.6758C1.95252 27.6621 1.94531 27.6431 1.94531 27.6189C1.94531 27.5957 1.95233 27.5771 1.96656 27.5635C1.98117 27.5498 2.0009 27.543 2.02576 27.543C2.04853 27.543 2.06674 27.5498 2.0804 27.5635C2.09406 27.5771 2.10089 27.5957 2.10089 27.6189ZM2.05384 27.6029C2.05384 27.5944 2.05099 27.5876 2.04549 27.5824C2.04037 27.5769 2.03373 27.5741 2.02576 27.5741C2.01665 27.5741 2.00925 27.5767 2.00375 27.5817C1.99806 27.5868 1.99464 27.5938 1.99313 27.6029L2.05384 27.6029Z" fill="black"/>
<path d="M2.23047 27.4961H2.28663L2.35645 27.6289V27.4961H2.40426V27.6896H2.3481L2.27828 27.5568V27.6896H2.23047V27.4961Z" fill="black"/>
<path d="M2.52109 27.5764C2.51085 27.5764 2.50307 27.5802 2.49757 27.5877C2.49244 27.595 2.48998 27.6052 2.48998 27.6189C2.48998 27.6331 2.49244 27.6439 2.49757 27.6515C2.50307 27.6587 2.51085 27.6621 2.52109 27.6621C2.53115 27.6621 2.53893 27.6587 2.54462 27.6515C2.55012 27.6439 2.55297 27.6331 2.55297 27.6189C2.55297 27.6052 2.55012 27.595 2.54462 27.5877C2.53893 27.5802 2.53115 27.5764 2.52109 27.5764ZM2.52109 27.543C2.54633 27.543 2.56587 27.5498 2.57953 27.5635C2.59357 27.5767 2.60078 27.5951 2.60078 27.6189C2.60078 27.6431 2.59357 27.6621 2.57953 27.6758C2.56587 27.6891 2.54633 27.6955 2.52109 27.6955C2.49624 27.6955 2.4767 27.6891 2.46266 27.6758C2.44843 27.6621 2.44141 27.6431 2.44141 27.6189C2.44141 27.5951 2.44843 27.5767 2.46266 27.5635C2.4767 27.5498 2.49624 27.543 2.52109 27.543Z" fill="black"/>
<path d="M2.63281 27.631V27.543H2.67987V27.5574V27.587V27.6105C2.67987 27.6223 2.68006 27.6308 2.68063 27.6363C2.681 27.6414 2.68214 27.645 2.68366 27.6469C2.68556 27.65 2.68821 27.6526 2.69125 27.6545C2.69429 27.6561 2.6977 27.6568 2.70188 27.6568C2.71136 27.6568 2.71895 27.653 2.72464 27.6454C2.73015 27.6378 2.73299 27.6276 2.73299 27.6143V27.543H2.77929V27.6879H2.73299V27.6667C2.72578 27.6754 2.71819 27.6817 2.71022 27.6856C2.70263 27.6896 2.69391 27.6917 2.68442 27.6917C2.66772 27.6917 2.65482 27.6868 2.64571 27.6765C2.63699 27.6659 2.63281 27.6507 2.63281 27.631Z" fill="black"/>
<path d="M2.96679 27.6029V27.6917H2.91973V27.6242C2.91973 27.6117 2.91935 27.6029 2.91897 27.5984C2.9184 27.5934 2.91746 27.5898 2.91594 27.5877C2.91442 27.5847 2.91176 27.5824 2.90835 27.5809C2.90531 27.579 2.9019 27.5779 2.89848 27.5779C2.88824 27.5779 2.88046 27.5817 2.87496 27.5893C2.86983 27.5969 2.86737 27.6073 2.86737 27.6204V27.6917H2.82031V27.5468H2.86737V27.568C2.87382 27.5595 2.88122 27.5532 2.88937 27.549C2.89734 27.5451 2.90607 27.543 2.91518 27.543C2.93187 27.543 2.9444 27.5483 2.95312 27.5589C2.96223 27.5692 2.96679 27.5838 2.96679 27.6029Z" fill="black"/>
<path d="M3.10547 27.4961H3.18819C3.21286 27.4961 3.23183 27.5018 3.24511 27.5128C3.2582 27.5234 3.26484 27.539 3.26484 27.5591C3.26484 27.5794 3.2582 27.5951 3.24511 27.6061C3.23183 27.6168 3.21286 27.6221 3.18819 27.6221H3.15556V27.6896H3.10547L3.10547 27.4961ZM3.15556 27.5325V27.5864H3.18288C3.19236 27.5864 3.19976 27.5841 3.20489 27.5796C3.21039 27.5746 3.21323 27.5678 3.21323 27.5591C3.21323 27.5505 3.21039 27.5439 3.20489 27.5394C3.19976 27.5348 3.19236 27.5325 3.18288 27.5325L3.15556 27.5325Z" fill="black"/>
<path d="M3.4054 27.5862C3.40123 27.5843 3.39724 27.5828 3.39326 27.5817C3.38908 27.5807 3.3851 27.5802 3.38112 27.5802C3.36897 27.5802 3.35949 27.5843 3.35304 27.5923C3.34696 27.5999 3.34393 27.6109 3.34393 27.6249V27.6917H3.29688V27.5468H3.34393V27.5703C3.34943 27.5608 3.35607 27.554 3.36366 27.5498C3.37163 27.5452 3.38112 27.543 3.39174 27.543H3.39705C3.39895 27.543 3.40161 27.5433 3.40464 27.5437L3.4054 27.5862Z" fill="black"/>
<path d="M3.49766 27.5764C3.48741 27.5764 3.47963 27.5802 3.47413 27.5877C3.46901 27.595 3.46654 27.6052 3.46654 27.6189C3.46654 27.6331 3.46901 27.6439 3.47413 27.6515C3.47963 27.6587 3.48741 27.6621 3.49766 27.6621C3.50771 27.6621 3.51549 27.6587 3.52118 27.6515C3.52668 27.6439 3.52953 27.6331 3.52953 27.6189C3.52953 27.6052 3.52668 27.595 3.52118 27.5877C3.51549 27.5802 3.50771 27.5764 3.49766 27.5764ZM3.49766 27.543C3.52289 27.543 3.54243 27.5498 3.55609 27.5635C3.57013 27.5767 3.57734 27.5951 3.57734 27.6189C3.57734 27.6431 3.57013 27.6621 3.55609 27.6758C3.54243 27.6891 3.52289 27.6955 3.49766 27.6955C3.4728 27.6955 3.45326 27.6891 3.43922 27.6758C3.42499 27.6621 3.41797 27.6431 3.41797 27.6189C3.41797 27.5951 3.42499 27.5767 3.43922 27.5635C3.45326 27.5498 3.4728 27.543 3.49766 27.543Z" fill="black"/>
<path d="M3.61315 27.5452H3.6602V27.6879C3.6602 27.707 3.65527 27.7217 3.64578 27.7319C3.63667 27.7425 3.6232 27.7478 3.60556 27.7478H3.58203V27.7167H3.59038C3.59892 27.7167 3.6048 27.7146 3.60784 27.7106C3.61125 27.707 3.61315 27.6995 3.61315 27.6879L3.61315 27.5452ZM3.61315 27.4883H3.6602V27.5262H3.61315V27.4883Z" fill="black"/>
<path d="M3.84699 27.6189V27.6318H3.73846C3.73998 27.643 3.74396 27.6513 3.7506 27.6568C3.75705 27.6619 3.76654 27.6644 3.77868 27.6644C3.78874 27.6644 3.79879 27.6633 3.80904 27.6606C3.8191 27.6576 3.82953 27.653 3.84016 27.6469V27.6826C3.82953 27.6872 3.81853 27.6906 3.80752 27.6925C3.79633 27.6944 3.78551 27.6955 3.77489 27.6955C3.74851 27.6955 3.72802 27.6891 3.71341 27.6758C3.69862 27.6621 3.69141 27.6431 3.69141 27.6189C3.69141 27.5957 3.69843 27.5771 3.71266 27.5635C3.72727 27.5498 3.747 27.543 3.77186 27.543C3.79462 27.543 3.81284 27.5498 3.8265 27.5635C3.84016 27.5771 3.84699 27.5957 3.84699 27.6189ZM3.79993 27.6029C3.79993 27.5944 3.79709 27.5876 3.79159 27.5824C3.78646 27.5769 3.77982 27.5741 3.77185 27.5741C3.76275 27.5741 3.75535 27.5767 3.74984 27.5817C3.74415 27.5868 3.74074 27.5938 3.73922 27.6029L3.79993 27.6029Z" fill="black"/>
<path d="M3.99935 27.5513V27.5885C3.99328 27.5845 3.98683 27.5815 3.98038 27.5794C3.97374 27.5775 3.9671 27.5764 3.96065 27.5764C3.94736 27.5764 3.93731 27.5802 3.93029 27.5877C3.92308 27.5953 3.91966 27.6058 3.91966 27.6189C3.91966 27.6325 3.92308 27.6431 3.93029 27.6507C3.93731 27.6583 3.94736 27.6621 3.96065 27.6621C3.96767 27.6621 3.9745 27.6612 3.98114 27.6591C3.98759 27.6572 3.99366 27.6538 3.99935 27.6492V27.6872C3.99214 27.6902 3.98493 27.6921 3.97734 27.6932C3.96975 27.6948 3.96216 27.6955 3.95457 27.6955C3.9282 27.6955 3.90771 27.6891 3.8931 27.6758C3.8783 27.6621 3.87109 27.6431 3.87109 27.6189C3.87109 27.5951 3.8783 27.5767 3.8931 27.5635C3.90771 27.5498 3.9282 27.543 3.95457 27.543C3.96216 27.543 3.96975 27.5437 3.97734 27.5452C3.98493 27.5464 3.99214 27.5483 3.99935 27.5513Z" fill="black"/>
<path d="M4.0925 27.5039V27.5456H4.14031V27.5783H4.0925V27.6405C4.0925 27.6472 4.09364 27.6517 4.09629 27.6542C4.09933 27.6563 4.10483 27.6572 4.11299 27.6572H4.13652V27.6906H4.09705C4.07827 27.6906 4.06518 27.6868 4.05759 27.6792C4.05 27.6716 4.04621 27.6587 4.04621 27.6405V27.5783H4.02344V27.5456H4.04621V27.5039L4.0925 27.5039Z" fill="black"/>
</svg>