<svg width="38" height="38" viewBox="0 0 28 28" fill="none" xmlns="http://www.w3.org/2000/svg">
                                            <path d="M27.4993 17.5773C27.4936 17.2974 27.3883 17.0287 27.202 16.82C27.0157 16.6111 26.7609 16.4757 26.4835 16.4383C24.8674 16.2076 23.3598 15.49 22.1612 14.3812C22.1491 14.3675 22.1346 14.3561 22.1187 14.3472C21.9407 14.1962 21.7148 14.1133 21.4812 14.1133C21.2478 14.1133 21.0219 14.1962 20.8437 14.3472L20.797 14.3812C19.5974 15.4879 18.0903 16.2051 16.4748 16.4383C16.2437 16.4671 16.027 16.5665 15.8544 16.7229C15.6064 16.9367 15.4612 17.2458 15.4548 17.5729C15.4286 19.2524 15.7124 20.9222 16.2921 22.4985C17.0612 24.4918 18.536 26.4298 21.3284 27.1268C21.3791 27.135 21.4307 27.135 21.4814 27.1268C21.5335 27.135 21.5867 27.135 21.6386 27.1268C27.1724 25.7285 27.525 19.4681 27.4993 17.5772L27.4993 17.5773ZM21.4813 25.8393C19.7705 25.3659 18.3707 24.1351 17.6819 22.4988C17.4899 22.0875 17.332 21.6612 17.2101 21.2238C16.9158 20.1777 16.7585 19.0975 16.7426 18.0109V17.7049C17.7707 17.5563 18.7647 17.2283 19.6794 16.736C20.0862 16.5195 20.4769 16.2736 20.8481 16.0005C21.1031 15.8135 21.3156 15.6435 21.4856 15.4947C21.6556 15.6435 21.8681 15.8135 22.1231 16.0005C23.3319 16.8945 24.7416 17.4782 26.2286 17.7005C26.2371 19.4261 25.8971 24.6239 21.4813 25.8392L21.4813 25.8393Z" fill="black"></path>
                                            <path d="M8.3077 21.2235V17.9977H14.4233V17.5727C14.4273 17.2805 14.488 16.9919 14.6019 16.7227H11.9669V12.3962H20.8452V13.1485C21.2594 13.0126 21.7063 13.0126 22.1202 13.1485V2.42975C22.1125 2.00589 21.9366 1.60253 21.6313 1.30843C21.326 1.01434 20.9164 0.853641 20.4926 0.861611H2.12382C1.70015 0.853642 1.29053 1.01434 0.98526 1.30843C0.679979 1.60251 0.503908 2.00587 0.496146 2.42975V20.917C0.492731 21.3352 0.656471 21.7374 0.950935 22.0342C1.2454 22.3311 1.64628 22.498 2.06448 22.498H15.1632C15.0162 22.0803 14.8929 21.6547 14.7934 21.223L8.3077 21.2235ZM14.1683 11.0235H6.3187V6.77349H14.1683V11.0235ZM20.845 11.0235H15.4433V6.77349H20.845V11.0235ZM11.9457 2.13686H20.4923C20.6695 2.12434 20.8251 2.25355 20.845 2.43V5.49855H11.9458L11.9457 2.13686ZM1.77096 2.43C1.79107 2.25355 1.94665 2.12434 2.12367 2.13686H10.6703V5.53686H1.77056L1.77096 2.43ZM1.77096 6.77355H5.04346V11.0236H1.77096V6.77355ZM1.77096 12.3792H10.6707V16.7225H1.77096V12.3792ZM7.03222 21.2236H2.06385C1.90182 21.2236 1.77052 21.0923 1.77052 20.9302V17.9977H7.03178L7.03222 21.2236Z" fill="black"></path>
                                            <path d="M19.6764 20.1985C19.548 20.0731 19.3757 20.0031 19.1962 20.0029C19.0025 19.9881 18.8118 20.0577 18.6735 20.1942C18.5424 20.3256 18.4688 20.5036 18.4688 20.6893C18.4688 20.8749 18.5424 21.0531 18.6735 21.1843L20.161 22.6804C20.2925 22.8126 20.4717 22.8861 20.6582 22.8843C20.8457 22.8853 21.0261 22.8121 21.1597 22.6804L24.2834 19.5608V19.561C24.4126 19.4276 24.4851 19.2492 24.4851 19.0637C24.4851 18.878 24.4126 18.6996 24.2834 18.5664C24.1512 18.4351 23.9725 18.3613 23.7861 18.3613C23.5998 18.3613 23.4211 18.4351 23.2889 18.5664L20.671 21.1887L19.6764 20.1985Z" fill="black"></path>
                                        </svg>