<svg width="38" height="38" viewBox="0 0 20 24" fill="none" xmlns="http://www.w3.org/2000/svg">
<path d="M18.8615 13.0354L18.6129 12.8988L18.4769 12.6506C18.3946 12.5001 18.2608 12.3842 18.1001 12.3243C17.9394 12.2643 17.7624 12.2643 17.6015 12.3243C17.4408 12.3842 17.307 12.5001 17.2246 12.6506L17.0888 12.8988L16.8402 13.0348H16.8401C16.6896 13.117 16.5737 13.2509 16.5137 13.4116C16.4538 13.5723 16.4538 13.7493 16.5137 13.9101C16.5737 14.071 16.6896 14.2047 16.8401 14.2869L17.0886 14.4229L17.2246 14.6715V14.6716C17.307 14.8221 17.4408 14.938 17.6015 14.998C17.7623 15.0579 17.9394 15.0579 18.1001 14.998C18.2608 14.938 18.3946 14.8221 18.4769 14.6716L18.6129 14.4231L18.8615 14.2871V14.2869C19.0121 14.2047 19.1279 14.071 19.1878 13.9101C19.2478 13.7494 19.2478 13.5723 19.1878 13.4116C19.1279 13.2509 19.0121 13.117 18.8615 13.0348V13.0354ZM18.5554 13.7286L18.1629 13.9411C18.1502 13.948 18.1396 13.9586 18.1327 13.9713L17.9202 14.3639C17.9068 14.3883 17.8813 14.4035 17.8534 14.4035C17.8257 14.4035 17.8001 14.3883 17.7868 14.3639L17.5743 13.9713C17.5673 13.9586 17.5569 13.948 17.544 13.9411L17.1514 13.7286C17.1268 13.7154 17.1114 13.6896 17.1114 13.6617C17.1114 13.6336 17.1268 13.608 17.1514 13.5947L17.544 13.3795C17.5569 13.3727 17.5675 13.3623 17.5743 13.3492L17.7868 12.9566C17.8001 12.9323 17.8257 12.9172 17.8534 12.9172C17.8813 12.9172 17.9068 12.9323 17.9202 12.9566L18.1327 13.3492C18.1394 13.3623 18.15 13.3727 18.1629 13.3795L18.5554 13.5947C18.5801 13.608 18.5955 13.6336 18.5955 13.6617C18.5955 13.6896 18.5801 13.7154 18.5554 13.7286Z" fill="black"/>
<path d="M3.68921 9.08488L3.28659 8.86499L3.0667 8.46276C2.98056 8.30661 2.8413 8.1867 2.67433 8.12466C2.50718 8.06261 2.32352 8.06261 2.15637 8.12466C1.9894 8.1867 1.85014 8.30661 1.764 8.46276L1.5441 8.86499L1.14187 9.08488C0.986106 9.17102 0.866194 9.31009 0.804343 9.47706C0.742302 9.64402 0.742302 9.82769 0.804343 9.99464C0.866194 10.1616 0.986106 10.3009 1.14187 10.387L1.5441 10.6069L1.764 11.0095C1.85014 11.1657 1.9894 11.2856 2.15637 11.3476C2.32352 11.4097 2.50718 11.4097 2.67433 11.3476C2.8413 11.2856 2.98056 11.1657 3.0667 11.0095L3.28659 10.6069L3.68882 10.387C3.84459 10.3009 3.96451 10.1616 4.02636 9.99464C4.0884 9.82767 4.0884 9.64401 4.02636 9.47706C3.96451 9.31009 3.84459 9.17102 3.68882 9.08488H3.68921ZM3.38317 9.82861L2.84393 10.124H2.84412C2.82666 10.1335 2.81224 10.1479 2.80257 10.1654L2.50772 10.7046C2.48875 10.7374 2.45365 10.7576 2.4159 10.7576C2.37795 10.7576 2.34304 10.7374 2.32388 10.7046L2.02903 10.1654C2.01955 10.1479 2.00513 10.1335 1.98767 10.124L1.44843 9.82747C1.41599 9.80849 1.39588 9.77358 1.39588 9.73583C1.39588 9.69826 1.41599 9.66335 1.44843 9.64419L1.98767 9.34934C2.00513 9.33967 2.01955 9.32506 2.02903 9.30741L2.32388 8.76817C2.34304 8.73535 2.37795 8.71524 2.4159 8.71524C2.45365 8.71524 2.48875 8.73535 2.50772 8.76817L2.80257 9.30741C2.81224 9.32506 2.82647 9.33967 2.84412 9.34934L3.38336 9.64419C3.4158 9.66335 3.43572 9.69826 3.43572 9.73583C3.43572 9.77358 3.4158 9.8085 3.38336 9.82747L3.38317 9.82861Z" fill="black"/>
<path d="M16.3443 23.3753C16.1995 23.3733 16.057 23.3382 15.9278 23.2729C15.8216 23.2224 15.6872 23.1412 15.5326 23.0465C15.1755 22.8293 14.6874 22.5312 14.247 22.4377C13.4177 22.2609 12.2117 22.5068 11.2433 22.7033C10.7965 22.7942 10.4104 22.8728 10.0973 22.9058C8.60297 23.0619 3.51832 22.4563 2.57749 21.8046V21.8044C2.35835 21.6495 2.22326 21.4018 2.21207 21.1335C2.19689 20.7999 2.33464 20.4778 2.5866 20.2584C3.2634 19.6649 4.43688 19.8137 5.47184 19.9444L5.54413 19.9535C5.5373 19.9344 5.53085 19.9143 5.5244 19.894C5.38096 19.4185 5.57164 18.9123 6.0105 18.6045C6.48863 18.2678 8.1169 17.6069 9.07259 17.2812C11.2894 16.5256 13.0962 16.9417 14.2624 17.3204C15.1623 17.6132 17.833 18.962 18.5906 19.8666V19.867C18.7361 20.0292 18.817 20.2393 18.8179 20.4573C18.8253 20.8705 18.3743 21.5457 17.9945 22.0398C17.8632 22.211 17.1859 23.0737 16.7578 23.2761V23.2759C16.6292 23.3395 16.4878 23.3734 16.3444 23.3753L16.3443 23.3753ZM13.5886 21.7397H13.5888C13.8543 21.7368 14.1195 21.7617 14.3798 21.814C14.9264 21.9303 15.4683 22.2608 15.8641 22.502C16.0037 22.587 16.1244 22.6614 16.2014 22.6974C16.2885 22.7503 16.3976 22.7513 16.4857 22.7001C16.6344 22.6295 17.0594 22.2102 17.4865 21.655C17.9933 20.9963 18.1809 20.5777 18.1803 20.4688C18.1811 20.3969 18.153 20.3276 18.1023 20.2766C17.4728 19.526 14.9771 18.2239 14.0648 17.9279C12.9852 17.5767 11.3145 17.191 9.27769 17.8854C8.18712 18.2573 6.7224 18.8836 6.37594 19.127C6.16021 19.2784 6.06933 19.4989 6.13422 19.7114V19.7112C6.19436 19.9108 6.37954 20.0462 6.58786 20.0432C6.76394 20.0445 6.90567 20.1884 6.90434 20.3644C6.90301 20.5405 6.75919 20.682 6.58312 20.6807C6.23192 20.6839 5.82399 20.6329 5.39161 20.5783C4.48847 20.464 3.46736 20.3345 3.00632 20.7376C2.90234 20.8279 2.8441 20.9596 2.84694 21.0974C2.84657 21.1696 2.88091 21.2379 2.93934 21.2806C3.68307 21.7986 8.59986 22.4213 10.0293 22.272C10.312 22.2428 10.7013 22.1631 11.1142 22.0792C11.8796 21.9238 12.7818 21.7396 13.5887 21.7396L13.5886 21.7397Z" fill="black"/>
<path d="M6.62145 20.6804H6.56832C6.39244 20.6758 6.25337 20.5295 6.25792 20.3534C6.26248 20.1774 6.40876 20.0383 6.58483 20.0429C6.918 20.0514 7.32856 19.9366 7.75832 19.8182C8.49675 19.6125 9.33349 19.3799 10.1038 19.6886C10.2673 19.7541 10.3466 19.9398 10.281 20.1032C10.2155 20.2667 10.0298 20.346 9.86642 20.2804C9.29683 20.052 8.60148 20.2453 7.92886 20.4324C7.4699 20.5593 7.03489 20.6804 6.62145 20.6804Z" fill="black"/>
<path d="M14.8328 9.03906H14.795C14.6651 9.04551 14.54 9.09181 14.437 9.17131L10.6683 12.0294L6.89647 9.16869C6.64641 8.98009 6.29637 9.00096 6.07056 9.2182C5.84479 9.43526 5.81025 9.78435 5.98917 10.0416L10.1473 15.9916H10.1471C10.2665 16.1624 10.4615 16.2641 10.6699 16.2641C10.8782 16.2641 11.0734 16.1624 11.1928 15.9916L15.3434 10.0518C15.4838 9.85869 15.5046 9.6035 15.3974 9.39024C15.29 9.17699 15.0726 9.04152 14.8339 9.03924L14.8328 9.03906ZM10.6684 15.6258L6.50982 9.67583L10.6684 12.8288L14.8269 9.67642L10.6684 15.6258Z" fill="black"/>
<path d="M6.44343 8.17629L10.2832 11.1386H10.2834C10.5128 11.3156 10.8327 11.3156 11.0621 11.1386L14.9019 8.17571H14.9021C15.158 7.97801 15.2254 7.62001 15.0588 7.34281L11.2188 0.95518C11.1036 0.763551 10.8963 0.646484 10.6728 0.646484C10.4493 0.646484 10.2419 0.763551 10.1267 0.95518L6.2867 7.34281C6.11974 7.62019 6.18709 7.97861 6.44343 8.17629ZM10.6727 1.28401L14.223 7.19029L10.8044 5.64019C10.7202 5.60148 10.6232 5.60148 10.5388 5.64019L7.12018 7.19029L10.6727 1.28401ZM10.6727 6.28104L14.2268 7.89186L10.6727 10.6341L7.11867 7.89167L10.6727 6.28104Z" fill="black"/>
</svg>