<svg width="38" height="38"
                                            viewBox="0 0 26 26" fill="none" xmlns="http://www.w3.org/2000/svg">
                                            <mask id="path-1-outside-1_5422_28490" maskUnits="userSpaceOnUse"
                                                x="-0.59375" y="-0.591797" width="27" height="27" fill="black">
                                                <rect fill="white" x="-0.59375" y="-0.591797" width="27" height="27" />
                                                <path
                                                    d="M0.40625 20.5884V20.9884H2.80238V21.8122C2.80238 22.584 3.4306 23.2122 4.2024 23.2122H5.02622V25.6083H5.42618V23.2122H7.25047V25.6083H7.65043V23.2122H9.47433V25.6083H9.87429V23.2122H11.6946V25.6083H12.0946V23.2122H13.9185V25.6083H14.3184V23.2122H16.1423V25.6083H16.5423V23.2122H18.3666V25.6083H18.7665V23.2122H20.5865V25.6083H20.9864V23.2122H21.8102C22.5821 23.2122 23.2103 22.584 23.2103 21.8122V20.9884H25.6062V20.5884H23.2101V18.7641H25.6062V18.3642H23.2101V16.5402H25.6062V16.1403H23.2101V14.3204H25.6062V13.9204H23.2101V12.0961H25.6062V11.6962H23.2101V9.87225H25.6062V9.4723H23.2101V7.648H25.6062V7.24805H23.2101V5.42812H25.6062V5.02817H23.2101V4.20435C23.2101 3.4325 22.5818 2.80432 21.81 2.80432L20.9864 2.80413V0.408203H20.5865V2.80433H18.7665L18.7663 0.408203H18.3664V2.80433H16.5421V0.408203H16.1421V2.80433H14.3182L14.3184 0.408203H13.9185V2.80433L12.0946 2.80414V0.408208H11.6946V2.80433H9.87429L9.8741 0.408208H9.47414V2.80433H7.65024V0.408208H7.25028V2.80433L5.42618 2.80414V0.408212H5.02622V2.80434H4.2024C3.43055 2.80434 2.80238 3.43256 2.80238 4.20436V5.02818L0.406255 5.02799V5.42795H2.80238V7.24787L0.406255 7.24806V7.64802H2.80238V9.47231H0.406255V9.87227H2.80238V11.6962L0.406255 11.696V12.0959H2.80238V13.9202H0.406255V14.3202H2.80238V16.1401L0.406255 16.1403V16.5403H2.80238V18.3642H0.406255V18.7641H2.80238V20.5884L0.406255 20.5882L0.40625 20.5884ZM3.20231 4.20429C3.20231 3.65276 3.65084 3.2042 4.2024 3.2042H21.8105C22.362 3.2042 22.8106 3.65273 22.8106 4.20429V21.8124C22.8106 22.3639 22.3621 22.8125 21.8105 22.8125L4.2024 22.8123C3.65087 22.8123 3.20231 22.3638 3.20231 21.8122V4.20429Z" />
                                            </mask>
                                            <path
                                                d="M0.40625 20.5884V20.9884H2.80238V21.8122C2.80238 22.584 3.4306 23.2122 4.2024 23.2122H5.02622V25.6083H5.42618V23.2122H7.25047V25.6083H7.65043V23.2122H9.47433V25.6083H9.87429V23.2122H11.6946V25.6083H12.0946V23.2122H13.9185V25.6083H14.3184V23.2122H16.1423V25.6083H16.5423V23.2122H18.3666V25.6083H18.7665V23.2122H20.5865V25.6083H20.9864V23.2122H21.8102C22.5821 23.2122 23.2103 22.584 23.2103 21.8122V20.9884H25.6062V20.5884H23.2101V18.7641H25.6062V18.3642H23.2101V16.5402H25.6062V16.1403H23.2101V14.3204H25.6062V13.9204H23.2101V12.0961H25.6062V11.6962H23.2101V9.87225H25.6062V9.4723H23.2101V7.648H25.6062V7.24805H23.2101V5.42812H25.6062V5.02817H23.2101V4.20435C23.2101 3.4325 22.5818 2.80432 21.81 2.80432L20.9864 2.80413V0.408203H20.5865V2.80433H18.7665L18.7663 0.408203H18.3664V2.80433H16.5421V0.408203H16.1421V2.80433H14.3182L14.3184 0.408203H13.9185V2.80433L12.0946 2.80414V0.408208H11.6946V2.80433H9.87429L9.8741 0.408208H9.47414V2.80433H7.65024V0.408208H7.25028V2.80433L5.42618 2.80414V0.408212H5.02622V2.80434H4.2024C3.43055 2.80434 2.80238 3.43256 2.80238 4.20436V5.02818L0.406255 5.02799V5.42795H2.80238V7.24787L0.406255 7.24806V7.64802H2.80238V9.47231H0.406255V9.87227H2.80238V11.6962L0.406255 11.696V12.0959H2.80238V13.9202H0.406255V14.3202H2.80238V16.1401L0.406255 16.1403V16.5403H2.80238V18.3642H0.406255V18.7641H2.80238V20.5884L0.406255 20.5882L0.40625 20.5884ZM3.20231 4.20429C3.20231 3.65276 3.65084 3.2042 4.2024 3.2042H21.8105C22.362 3.2042 22.8106 3.65273 22.8106 4.20429V21.8124C22.8106 22.3639 22.3621 22.8125 21.8105 22.8125L4.2024 22.8123C3.65087 22.8123 3.20231 22.3638 3.20231 21.8122V4.20429Z"
                                                fill="black" />
                                            <path
                                                d="M0.40625 20.5884V20.9884H2.80238V21.8122C2.80238 22.584 3.4306 23.2122 4.2024 23.2122H5.02622V25.6083H5.42618V23.2122H7.25047V25.6083H7.65043V23.2122H9.47433V25.6083H9.87429V23.2122H11.6946V25.6083H12.0946V23.2122H13.9185V25.6083H14.3184V23.2122H16.1423V25.6083H16.5423V23.2122H18.3666V25.6083H18.7665V23.2122H20.5865V25.6083H20.9864V23.2122H21.8102C22.5821 23.2122 23.2103 22.584 23.2103 21.8122V20.9884H25.6062V20.5884H23.2101V18.7641H25.6062V18.3642H23.2101V16.5402H25.6062V16.1403H23.2101V14.3204H25.6062V13.9204H23.2101V12.0961H25.6062V11.6962H23.2101V9.87225H25.6062V9.4723H23.2101V7.648H25.6062V7.24805H23.2101V5.42812H25.6062V5.02817H23.2101V4.20435C23.2101 3.4325 22.5818 2.80432 21.81 2.80432L20.9864 2.80413V0.408203H20.5865V2.80433H18.7665L18.7663 0.408203H18.3664V2.80433H16.5421V0.408203H16.1421V2.80433H14.3182L14.3184 0.408203H13.9185V2.80433L12.0946 2.80414V0.408208H11.6946V2.80433H9.87429L9.8741 0.408208H9.47414V2.80433H7.65024V0.408208H7.25028V2.80433L5.42618 2.80414V0.408212H5.02622V2.80434H4.2024C3.43055 2.80434 2.80238 3.43256 2.80238 4.20436V5.02818L0.406255 5.02799V5.42795H2.80238V7.24787L0.406255 7.24806V7.64802H2.80238V9.47231H0.406255V9.87227H2.80238V11.6962L0.406255 11.696V12.0959H2.80238V13.9202H0.406255V14.3202H2.80238V16.1401L0.406255 16.1403V16.5403H2.80238V18.3642H0.406255V18.7641H2.80238V20.5884L0.406255 20.5882L0.40625 20.5884ZM3.20231 4.20429C3.20231 3.65276 3.65084 3.2042 4.2024 3.2042H21.8105C22.362 3.2042 22.8106 3.65273 22.8106 4.20429V21.8124C22.8106 22.3639 22.3621 22.8125 21.8105 22.8125L4.2024 22.8123C3.65087 22.8123 3.20231 22.3638 3.20231 21.8122V4.20429Z"
                                                stroke="black" stroke-width="0.4"
                                                mask="url(#path-1-outside-1_5422_28490)" />
                                            <path
                                                d="M8.34399 12.6671V12.6671L8.3435 18.7029C8.3435 19.1992 8.74729 19.603 9.24359 19.603L16.7678 19.6032C17.2641 19.6032 17.6679 19.1994 17.6679 18.7031V12.6671C17.6679 12.1708 17.2641 11.767 16.7678 11.767L8.34399 12.6671ZM8.34399 12.6671C8.34399 12.1733 8.7437 11.7711 9.2366 11.767M8.34399 12.6671L9.2366 11.767M9.2366 11.767L9.24397 11.767L9.32674 11.7671L9.72309 11.7672L11.3195 11.7674C12.6953 11.7675 14.6333 11.7675 16.7678 11.767L9.2366 11.767ZM7.74375 18.7028C7.74395 19.5099 8.38467 20.1701 9.1842 20.2014L9.18495 20.2028H9.24388H16.7676C17.5947 20.2028 18.2676 19.5298 18.2676 18.7028V12.6668C18.2676 11.8397 17.5946 11.1668 16.7676 11.1668H16.7336V9.53793C16.7336 7.50406 15.0882 5.81406 13.0023 5.81406C10.949 5.81406 9.27848 7.48467 9.27848 9.53793V11.1668H9.24377C8.41669 11.1668 7.74375 11.8398 7.74375 12.6668V18.7028V18.7028ZM9.87875 9.53803V9.53803C9.87875 7.81545 11.2801 6.41429 13.0025 6.41429C14.7538 6.41429 16.1338 7.83305 16.1338 9.53803V11.1669H9.87866L9.87875 9.53803ZM9.24412 11.667C9.25266 11.6671 9.26629 11.6671 9.28487 11.6671C9.28107 11.7095 9.25741 11.7426 9.24415 11.7578L9.24412 11.667Z"
                                                fill="white" stroke="black" stroke-width="0.5" />
                                            <path
                                                d="M13.3703 15.6274L13.3703 15.6274C13.5709 15.503 13.6909 15.2864 13.6909 15.0472C13.6909 14.6703 13.3832 14.3629 13.0046 14.3629C12.6275 14.3629 12.3203 14.67 12.3203 15.0472C12.3203 15.2864 12.4402 15.503 12.6403 15.6274L13.3703 15.6274ZM13.3703 15.6274C13.2653 15.6926 13.2115 15.8145 13.2331 15.9354L13.2331 15.9356L13.4263 17.005L13.3703 15.6274ZM12.0719 17.4333L11.995 17.4971C12.052 17.5659 12.1365 17.6052 12.2254 17.6052H13.7856H13.7934C13.9592 17.6052 14.0933 17.471 14.0933 17.3052C14.0933 17.2629 14.0846 17.2227 14.0688 17.186L13.8568 16.0116C14.132 15.7709 14.291 15.4228 14.291 15.0476C14.291 14.3392 13.7141 13.7633 13.0046 13.7633C12.2964 13.7633 11.7203 14.3393 11.7203 15.0476C11.7203 15.4229 11.8794 15.7706 12.1542 16.0115L11.9301 17.2516C11.9301 17.2516 11.9301 17.2516 11.9301 17.2517L11.9952 17.4974L12.0719 17.4333ZM12.0719 17.4333C12.1099 17.479 12.166 17.5052 12.2254 17.5052H13.7856H13.7934C13.904 17.5052 13.9933 17.4158 13.9933 17.3052C13.9933 17.2731 13.9859 17.2432 13.9727 17.2162M12.0719 17.4333L13.9727 17.2162M13.9727 17.2162L13.748 15.9722C14.0277 15.75 14.191 15.4132 14.191 15.0476C14.191 14.3946 13.659 13.8633 13.0046 13.8633C12.3516 13.8633 11.8203 14.3946 11.8203 15.0476L13.9727 17.2162Z"
                                                fill="black" stroke="black" stroke-width="0.2" />
                                        </svg>