<svg width="38" height="38" viewBox="0 0 28 28" fill="none" xmlns="http://www.w3.org/2000/svg">
<path d="M27.1742 4.22422V0.824219H0.824219V4.22422H1.67422V23.7742H0.824219V27.1742H27.1742V23.7742H26.3242V4.22422H27.1742ZM1.67422 1.67422H26.3242V3.37422H1.67422V1.67422ZM16.1242 23.7742V11.0242H18.6742V23.7742H16.1242ZM8.47422 4.22422V5.07422H9.32422V4.22422H11.8742V7.62422H9.32422V5.92422H8.47422V7.62422H6.77422V11.0242H8.47422V23.7742H5.92422V4.22422H8.47422ZM12.7242 7.62422V4.22422H15.2742V7.62422H12.7242ZM11.8742 17.8242H9.32422V14.4242H11.8742V17.8242ZM9.32422 13.5742V11.0242H11.8742V13.5742H9.32422ZM9.32422 18.6742H11.8742V23.7742H9.32422V18.6742ZM12.7242 18.6742V11.0242H15.2742V23.7742H12.7242V18.6742ZM7.62422 10.1742V8.47422H20.3742V10.1742H7.62422ZM16.1242 7.62422V4.22422H18.6742V7.62422H16.1242ZM2.52422 4.22422H5.07422V23.7742H2.52422V4.22422ZM26.3242 26.3242H1.67422V24.6242H26.3242V26.3242ZM25.4742 23.7742H22.9242V22.0742H22.0742V23.7742H19.5242V11.0242H21.2242V7.62422H19.5242V4.22422H22.0742V21.2242H22.9242V4.22422H25.4742V23.7742Z" fill="black"/>
<path d="M10.1758 15.2734H11.0258V16.9734H10.1758V15.2734Z" fill="black"/>
</svg>