<svg width="38" height="38" viewBox="0 0 32 36" fill="none" xmlns="http://www.w3.org/2000/svg">
                                <path d="M16.1796 11.6888C24.3129 11.6888 30.9061 9.491 30.9061 6.77993C30.9061 4.06885 24.3129 1.87109 16.1796 1.87109C8.04641 1.87109 1.45312 4.06885 1.45312 6.77993C1.45312 9.491 8.04641 11.6888 16.1796 11.6888Z" stroke="black" stroke-width="2" stroke-linecap="round" stroke-linejoin="round"/>
                                <path d="M30.9061 18C30.9061 20.7162 24.361 22.9088 16.1796 22.9088C7.99824 22.9088 1.45312 20.7162 1.45312 18" stroke="black" stroke-width="2" stroke-linecap="round" stroke-linejoin="round"/>
                                <path d="M1.45312 6.78125V29.3041C1.45312 31.9747 7.99824 34.1305 16.1796 34.1305C24.361 34.1305 30.9061 31.9747 30.9061 29.3041V6.78125" stroke="black" stroke-width="2" stroke-linecap="round" stroke-linejoin="round"/>
                                <path d="M18.3412 15.8683H17.9381V15.0619C17.9381 14.6342 17.7682 14.224 17.4657 13.9216C17.1633 13.6191 16.7531 13.4492 16.3253 13.4492C15.8976 13.4492 15.4874 13.6191 15.185 13.9216C14.8825 14.224 14.7126 14.6342 14.7126 15.0619V15.8683H14.3094C14.2025 15.8683 14.1 15.9108 14.0243 15.9864C13.9487 16.062 13.9062 16.1646 13.9062 16.2715V19.0938C13.9062 19.2007 13.9487 19.3032 14.0243 19.3789C14.1 19.4545 14.2025 19.4969 14.3094 19.4969H18.3412C18.4482 19.4969 18.5507 19.4545 18.6263 19.3789C18.7019 19.3032 18.7444 19.2007 18.7444 19.0938V16.2715C18.7444 16.1646 18.7019 16.062 18.6263 15.9864C18.5507 15.9108 18.4482 15.8683 18.3412 15.8683ZM15.519 15.0619C15.519 14.8481 15.6039 14.643 15.7552 14.4918C15.9064 14.3405 16.1115 14.2556 16.3253 14.2556C16.5392 14.2556 16.7443 14.3405 16.8955 14.4918C17.0467 14.643 17.1317 14.8481 17.1317 15.0619V15.8683H15.519V15.0619ZM17.9381 18.6906H14.7126V16.6747H17.9381V18.6906Z" fill="black"/>
                                <path d="M16.3251 17.0781C16.2181 17.0781 16.1156 17.1206 16.04 17.1962C15.9644 17.2718 15.9219 17.3744 15.9219 17.4813V17.8845C15.9219 17.9914 15.9644 18.094 16.04 18.1696C16.1156 18.2452 16.2181 18.2877 16.3251 18.2877C16.432 18.2877 16.5345 18.2452 16.6101 18.1696C16.6858 18.094 16.7282 17.9914 16.7282 17.8845V17.4813C16.7282 17.3744 16.6858 17.2718 16.6101 17.1962C16.5345 17.1206 16.432 17.0781 16.3251 17.0781Z" fill="black"/>
                                <path d="M18.3412 28.3878H17.9381V27.5815C17.9381 27.1538 17.7682 26.7436 17.4657 26.4411C17.1633 26.1387 16.7531 25.9688 16.3253 25.9688C15.8976 25.9688 15.4874 26.1387 15.185 26.4411C14.8825 26.7436 14.7126 27.1538 14.7126 27.5815V28.3878H14.3094C14.2025 28.3878 14.1 28.4303 14.0243 28.5059C13.9487 28.5815 13.9062 28.6841 13.9062 28.791V31.6133C13.9062 31.7202 13.9487 31.8228 14.0243 31.8984C14.1 31.974 14.2025 32.0165 14.3094 32.0165H18.3412C18.4482 32.0165 18.5507 31.974 18.6263 31.8984C18.7019 31.8228 18.7444 31.7202 18.7444 31.6133V28.791C18.7444 28.6841 18.7019 28.5815 18.6263 28.5059C18.5507 28.4303 18.4482 28.3878 18.3412 28.3878ZM15.519 27.5815C15.519 27.3676 15.6039 27.1625 15.7552 27.0113C15.9064 26.8601 16.1115 26.7751 16.3253 26.7751C16.5392 26.7751 16.7443 26.8601 16.8955 27.0113C17.0467 27.1625 17.1317 27.3676 17.1317 27.5815V28.3878H15.519V27.5815ZM17.9381 31.2101H14.7126V29.1942H17.9381V31.2101Z" fill="black"/>
                                <path d="M16.3251 29.5977C16.2181 29.5977 16.1156 29.6401 16.04 29.7157C15.9644 29.7914 15.9219 29.8939 15.9219 30.0008V30.404C15.9219 30.5109 15.9644 30.6135 16.04 30.6891C16.1156 30.7647 16.2181 30.8072 16.3251 30.8072C16.432 30.8072 16.5345 30.7647 16.6101 30.6891C16.6858 30.6135 16.7282 30.5109 16.7282 30.404V30.0008C16.7282 29.8939 16.6858 29.7914 16.6101 29.7157C16.5345 29.6401 16.432 29.5977 16.3251 29.5977Z" fill="black"/>
                                </svg>