<svg width="38" height="38" viewBox="0 0 34 11" fill="none" xmlns="http://www.w3.org/2000/svg">
                            <path d="M31.0936 3.95423L28.1357 6.91957L26.7746 5.55845L26.7748 5.55864C26.6467 5.43057 26.439 5.43057 26.3109 5.55864C26.1828 5.68671 26.1828 5.89428 26.3109 6.02235L27.9039 7.61534C27.9648 7.67815 28.0485 7.71343 28.1357 7.71343C28.2232 7.71343 28.3069 7.67814 28.3678 7.61534L31.5576 4.42935C31.682 4.29995 31.682 4.09504 31.5576 3.96564C31.4976 3.90227 31.4151 3.86546 31.328 3.86338C31.2409 3.86129 31.1565 3.89392 31.0937 3.95426L31.0936 3.95423Z" fill="black"/>
                            <path d="M29.1181 0.894561C27.8854 0.896079 26.6986 1.36358 25.796 2.20332C24.8935 3.04307 24.3419 4.19305 24.2518 5.42249H19.024V4.99673C19.0227 4.58501 18.8734 4.18772 18.6032 3.87691C18.3332 3.56632 17.9602 3.36332 17.5529 3.30489V3.05387V3.05406C17.5529 2.37484 17.1905 1.74739 16.6023 1.40773C16.0142 1.06811 15.2896 1.06811 14.7014 1.40773C14.1132 1.74735 13.751 2.37479 13.751 3.05406V3.30508V3.30489C13.3431 3.36257 12.9697 3.56539 12.6996 3.87619C12.4292 4.18697 12.2803 4.58484 12.2797 4.99673V5.42249H6.73671V4.99673C6.73633 4.58539 6.58777 4.18811 6.31835 3.8773C6.04874 3.56652 5.67628 3.36332 5.2693 3.30489V3.05387V3.05406C5.2693 2.37484 4.90692 1.74739 4.31876 1.40773C3.73061 1.06811 3.00602 1.06811 2.41782 1.40773C1.82967 1.74735 1.46747 2.37479 1.46747 3.05406V3.30508V3.30489C1.05993 3.36333 0.687124 3.56634 0.416921 3.87691C0.146743 4.18769 -0.00257539 4.58499 -0.00390625 4.99673V7.18662C-0.0029576 7.64274 0.178994 8.0797 0.501917 8.40188C0.824649 8.72404 1.26216 8.90503 1.71829 8.90503H5.0107C5.46777 8.90712 5.9068 8.72687 6.23067 8.40431C6.55474 8.08195 6.73669 7.64368 6.73669 7.18662V6.07652H12.2991V7.18662C12.3 7.64198 12.4814 8.07854 12.8036 8.40052C13.1256 8.72268 13.5621 8.90406 14.0175 8.90503H17.3061C17.7617 8.90408 18.198 8.7227 18.5202 8.40052C18.8422 8.07854 19.0236 7.64198 19.0245 7.18662V6.07652H24.2484C24.3271 7.35152 24.9024 8.54492 25.8509 9.40065C26.7993 10.2563 28.0455 10.7062 29.3218 10.6537C30.5981 10.6009 31.8031 10.0501 32.678 9.11928C33.5529 8.18845 34.028 6.95178 34.0014 5.67449C33.9748 4.39741 33.4485 3.18142 32.5357 2.28775C31.6229 1.39414 30.3961 0.893997 29.1186 0.894532L29.1181 0.894561ZM3.69529 6.65465V7.14891V7.14872C3.69529 7.32935 3.54882 7.47582 3.36838 7.47582C3.18776 7.47582 3.04128 7.32935 3.04128 7.14872V6.65465C2.73961 6.55049 2.5053 6.30915 2.41024 6.00443C2.31519 5.69972 2.37059 5.36804 2.55975 5.11095C2.74891 4.85368 3.04906 4.70189 3.36837 4.70189C3.6875 4.70189 3.98766 4.85368 4.17684 5.11095C4.366 5.36804 4.4216 5.69969 4.32654 6.00443C4.23148 6.30913 3.99716 6.55046 3.69529 6.65465ZM4.60392 3.27854H2.13265V3.05428C2.13265 2.61278 2.3683 2.20486 2.75063 1.9842C3.13275 1.76335 3.60383 1.76335 3.98619 1.9842C4.3685 2.20486 4.60397 2.61277 4.60397 3.05428L4.60392 3.27854ZM16.0095 6.65465V7.14891V7.14872C15.9914 7.31682 15.8495 7.44413 15.6807 7.44413C15.5116 7.44413 15.3699 7.31682 15.3519 7.14872V6.65465C15.0504 6.55011 14.8166 6.30858 14.7221 6.00389C14.6275 5.69937 14.6832 5.3679 14.8726 5.111C15.0617 4.85429 15.3617 4.70251 15.6807 4.70251C15.9996 4.70251 16.2996 4.85429 16.4888 5.111C16.6779 5.3679 16.7337 5.69935 16.6392 6.00389C16.5445 6.3086 16.3108 6.55012 16.0095 6.65465ZM16.9181 3.27854H14.424V3.05428C14.4478 2.62833 14.6885 2.2445 15.0617 2.03826C15.4351 1.83183 15.8882 1.83183 16.2614 2.03826C16.6346 2.2445 16.8756 2.62831 16.8991 3.05428L16.9181 3.27854ZM29.1372 10.0076C28.0151 10.0116 26.9375 9.56954 26.1417 8.77834C25.3458 7.98735 24.8971 6.91232 24.8944 5.79008C24.8917 4.66798 25.3351 3.59091 26.1273 2.79589C26.9192 2.00112 27.9948 1.55372 29.1169 1.55236C30.2391 1.55104 31.3157 1.99577 32.1097 2.78865C32.9036 3.58173 33.3496 4.65788 33.3496 5.77997C33.3487 6.90149 32.9024 7.97686 32.109 8.76959C31.3155 9.56228 30.2399 10.0076 29.1182 10.0076L29.1372 10.0076Z" fill="black"/>
                            <path d="M3.36555 5.36719C3.22553 5.36719 3.09935 5.45143 3.04585 5.58063C2.99234 5.71003 3.02194 5.85878 3.1208 5.95763C3.21984 6.05667 3.36859 6.08627 3.49779 6.03277C3.62719 5.97926 3.71143 5.85309 3.71143 5.71307C3.71143 5.52201 3.55661 5.36719 3.36555 5.36719Z" fill="black"/>
                            <path d="M15.6587 5.36721C15.5191 5.36873 15.394 5.45392 15.3417 5.58332C15.2893 5.71272 15.3199 5.86089 15.4191 5.95899C15.5183 6.05727 15.6669 6.08611 15.7957 6.03241C15.9245 5.97853 16.0084 5.85274 16.0084 5.7131C16.0084 5.6207 15.9714 5.53209 15.9058 5.4672C15.8401 5.40213 15.7511 5.36608 15.6587 5.36721Z" fill="black"/>
                            </svg>