<svg width="38" height="38" viewBox="0 0 22 22" fill="none" xmlns="http://www.w3.org/2000/svg">
<path d="M17.134 13.9257V10.1393C17.1344 8.44436 16.4456 6.90567 15.3348 5.79533C14.2247 4.68425 12.6859 3.99571 10.9908 3.99609C9.29578 3.9959 7.75723 4.68445 6.64689 5.79533C5.53601 6.90562 4.84727 8.44417 4.84766 10.1393V13.9257H5.77489V10.1393C5.77527 8.69747 6.35794 7.39629 7.3026 6.45104C8.24805 5.50637 9.54903 4.92352 10.9908 4.92332C12.4326 4.92351 13.7338 5.50637 14.679 6.45104C15.6237 7.39629 16.2064 8.69747 16.2068 10.1393V13.9257H17.134Z" fill="black"/>
<path d="M18.7547 17.1688V10.1371C18.7549 7.99678 17.8829 6.05276 16.4778 4.64807C15.0734 3.2429 13.129 2.3709 10.9887 2.37109C8.84854 2.3709 6.90432 3.2429 5.49964 4.64807C4.09447 6.05247 3.22246 7.99664 3.22266 10.1371V17.1688H4.14989V10.1371C4.15008 8.25101 4.916 6.54396 6.15535 5.30389C7.39523 4.06454 9.10228 3.29861 10.9886 3.29842C12.8749 3.29861 14.5818 4.06454 15.8218 5.30389C17.0612 6.54396 17.8271 8.25101 17.8273 10.1371V17.1688H18.7547Z" fill="black"/>
<path d="M15.5098 17.1692V10.1375C15.51 8.89212 15.0019 7.75924 14.1844 6.94246C13.3676 6.1249 12.2349 5.61699 10.9893 5.61719C9.74368 5.617 8.61099 6.1251 7.79422 6.94246C6.97666 7.75924 6.46875 8.89217 6.46875 10.1375V17.1692H7.39598L7.39636 10.1375C7.39655 9.14619 7.7984 8.25044 8.45012 7.59817C9.10243 6.94664 9.99814 6.54461 10.9895 6.54442C11.9808 6.54461 12.8766 6.94646 13.5288 7.59817C14.1806 8.25049 14.5824 9.14619 14.5826 10.1375V17.1692H15.5098Z" fill="black"/>
<path d="M10.9912 7.69922C10.2006 7.69903 9.48051 8.02195 8.96255 8.54067C8.4438 9.05864 8.12109 9.77885 8.12109 10.5693V16.7379C8.1209 17.5285 8.44383 18.2485 8.96255 18.7665C9.48051 19.2853 10.2005 19.608 10.9912 19.608C11.7818 19.6082 12.5018 19.2852 13.0198 18.7665C13.5386 18.2485 13.8613 17.5283 13.8613 16.7379L13.8611 10.5698C13.8613 9.77919 13.5383 9.05912 13.0196 8.54116C12.5017 8.02241 11.7816 7.69932 10.9912 7.69951L10.9912 7.69922ZM12.9338 16.7379C12.9337 17.2744 12.7168 17.7575 12.3641 18.111C12.0106 18.4637 11.5276 18.6806 10.9912 18.6807C10.4548 18.6805 9.97176 18.4637 9.61826 18.111C9.26555 17.7575 9.04866 17.2744 9.04852 16.7379V10.5693C9.04871 10.0329 9.26557 9.54969 9.61826 9.19619C9.97173 8.84348 10.4548 8.62659 10.9912 8.62645C11.5276 8.62664 12.0106 8.8435 12.3641 9.19619C12.7168 9.54966 12.9337 10.0327 12.9338 10.5693V16.7379Z" fill="black"/>
<path d="M10.9909 9.67578C10.615 9.67559 10.2711 9.82985 10.0253 10.0761C9.77906 10.3218 9.62481 10.666 9.625 11.0417V16.4248C9.62481 16.8007 9.77906 17.1447 10.0253 17.3904C10.2708 17.6367 10.615 17.7909 10.9909 17.7907C11.3667 17.7909 11.7107 17.6367 11.9564 17.3904C12.2027 17.1447 12.3568 16.8005 12.3568 16.4248L12.3566 11.0422C12.3568 10.6663 12.2027 10.3221 11.9562 10.0766C11.7107 9.83014 11.3665 9.67589 10.9909 9.67608L10.9909 9.67578ZM11.4294 16.4248C11.4292 16.5464 11.381 16.6536 11.3005 16.7346C11.2193 16.8151 11.1125 16.8631 10.9909 16.8634C10.8693 16.8632 10.7623 16.8151 10.6811 16.7346C10.6006 16.6534 10.5524 16.5464 10.5522 16.4248V11.0416C10.5524 10.9198 10.6006 10.8128 10.6811 10.7316C10.7623 10.6513 10.8693 10.603 10.9909 10.603C11.1125 10.6031 11.2195 10.6513 11.3005 10.7316C11.381 10.8128 11.4292 10.9198 11.4294 11.0416V16.4248Z" fill="black"/>
<path d="M1.33136 1.33117H8.01528V0.558594H0.558594V8.01528H1.33136V1.33117Z" fill="black"/>
<path d="M13.9648 0.558788V1.33136H20.6488V8.01528H21.4215V0.558594L13.9648 0.558788Z" fill="black"/>
<path d="M1.33136 13.9648H0.558594V21.4215H8.01528V20.6488H1.33136V13.9648Z" fill="black"/>
<path d="M20.6488 20.6488H13.9648V21.4215H21.4215V13.9648H20.6488V20.6488Z" fill="black"/>
</svg>