<svg width="38" height="38" viewBox="0 0 26 20" fill="none" xmlns="http://www.w3.org/2000/svg">
<path d="M13.5698 17.6585H4.46024C3.92653 17.657 3.41483 17.4441 3.03763 17.0664C2.66044 16.6886 2.44812 16.1769 2.44758 15.643V6.66697C2.72023 6.56584 2.92779 6.33968 3.00538 6.05943C3.08298 5.77901 3.02113 5.47847 2.83936 5.25155C2.65741 5.02444 2.37755 4.89864 2.08709 4.91326C1.7966 4.92768 1.5308 5.08079 1.37255 5.32479C1.21413 5.56897 1.18263 5.87408 1.28793 6.1454C1.39304 6.41653 1.62205 6.62068 1.90343 6.69411V15.6429C1.90343 16.3212 2.17285 16.9718 2.6523 17.4518C3.13157 17.9316 3.78198 18.2017 4.46028 18.2024H13.5698C13.7199 18.2024 13.8417 18.0806 13.8417 17.9303C13.8417 17.7802 13.7199 17.6584 13.5698 17.6584L13.5698 17.6585ZM1.77035 5.8294C1.77472 5.6835 1.86617 5.55467 2.00239 5.50249C2.13843 5.45031 2.29268 5.48484 2.39343 5.59015C2.49418 5.69564 2.52188 5.85122 2.46363 5.98479C2.40519 6.11855 2.27238 6.20412 2.12667 6.20203C2.02971 6.20052 1.93751 6.16029 1.87053 6.09028C1.80356 6.02027 1.76751 5.92616 1.77035 5.8294Z" fill="black"/>
<path d="M21.8662 4.46993C22.2742 4.59895 22.6301 4.85471 22.8826 5.2002C23.135 5.54552 23.2707 5.96234 23.2699 6.3902V8.94152H20.5499C19.8809 8.94569 19.2624 9.29822 18.9178 9.87176H18.8389C18.5486 9.86758 18.2734 10.0008 18.0966 10.2309C17.9196 10.4613 17.862 10.7614 17.9409 11.0409C18.0198 11.3202 18.226 11.5459 18.4972 11.6497C18.7683 11.7533 19.0726 11.723 19.3178 11.5676C19.5631 11.412 19.7204 11.15 19.7424 10.8604C19.7644 10.5709 19.6483 10.288 19.4292 10.0975C19.6807 9.72147 20.1029 9.49514 20.5552 9.49358H24.0913C24.2416 9.49358 24.3634 9.37178 24.3634 9.2217C24.3634 9.07143 24.2416 8.94962 24.0913 8.94962H23.8192L23.8194 6.39015C23.8236 5.84503 23.6526 5.31322 23.332 4.87248C23.0113 4.43193 22.5577 4.10578 22.0378 3.94205C21.8951 3.89765 21.7431 3.97658 21.6978 4.11888C21.6726 4.18775 21.6764 4.26384 21.708 4.32986C21.7399 4.39589 21.7968 4.44636 21.8663 4.46989L21.8662 4.46993ZM18.8254 11.131C18.6791 11.131 18.5471 11.043 18.4911 10.9077C18.4352 10.7726 18.4661 10.617 18.5695 10.5136C18.6731 10.41 18.8287 10.3791 18.9637 10.4351C19.099 10.491 19.1871 10.6231 19.1871 10.7694C19.1871 10.9692 19.0252 11.131 18.8254 11.131Z" fill="black"/>
<path d="M25.1739 10.7682C25.1745 10.5551 25.1001 10.3487 24.9637 10.1851C24.8273 10.0214 24.6375 9.91114 24.4279 9.87357C24.2182 9.836 24.002 9.87357 23.8172 9.97963C23.6324 10.0857 23.491 10.2534 23.4176 10.4534C23.3444 10.6534 23.344 10.8729 23.4163 11.0733C23.4887 11.2736 23.6295 11.4419 23.8139 11.5487V12.2097H20.5498C20.3682 12.2107 20.1885 12.1737 20.0222 12.1008C19.8833 12.0424 19.7231 12.1075 19.6645 12.2464C19.6059 12.3854 19.6712 12.5456 19.81 12.6042C20.0442 12.7028 20.2958 12.7537 20.5498 12.7537H23.2698V15.6424C23.2692 16.1763 23.0569 16.688 22.6797 17.0658C22.3026 17.4436 21.7908 17.6564 21.2571 17.6579H16.7229C16.6645 17.3731 16.473 17.1335 16.2079 17.0139C15.9429 16.8944 15.6366 16.9094 15.3845 17.0542C15.1323 17.1989 14.965 17.456 14.9346 17.7452C14.9043 18.0344 15.0145 18.3205 15.2312 18.5144C15.4477 18.7083 15.7442 18.7866 16.0283 18.7248C16.3123 18.6629 16.5494 18.4685 16.6658 18.2019H21.2597C21.9378 18.2003 22.5879 17.9302 23.0671 17.4505C23.5464 16.9707 23.8158 16.3205 23.8166 15.6423V12.7537H24.0887C24.1608 12.7537 24.2298 12.725 24.2809 12.674C24.3319 12.6229 24.3606 12.5539 24.3606 12.4816V11.6655V11.6657C24.5835 11.6441 24.7903 11.5401 24.9407 11.3741C25.091 11.2081 25.1743 10.992 25.1739 10.7681L25.1739 10.7682ZM15.8361 18.202C15.6898 18.202 15.5579 18.1138 15.5019 17.9787C15.4458 17.8436 15.4769 17.6878 15.5803 17.5844C15.6837 17.481 15.8393 17.4501 15.9746 17.5061C16.1097 17.562 16.1979 17.6939 16.1979 17.8402C16.1979 18.04 16.0358 18.202 15.8361 18.202ZM24.2681 11.13C24.1218 11.13 23.9897 11.042 23.9338 10.9067C23.8778 10.7716 23.9087 10.616 24.0121 10.5126C24.1157 10.409 24.2713 10.3781 24.4064 10.4341C24.5417 10.49 24.6297 10.6221 24.6297 10.7684C24.6297 10.9682 24.4678 11.13 24.2681 11.13Z" fill="black"/>
<path d="M17.5703 2.97461H18.1143V3.51856H17.5703V2.97461Z" fill="black"/>
<path d="M16.5703 2.97461H17.1143V3.51856H16.5703V2.97461Z" fill="black"/>
<path d="M8.86719 3.24277C8.86719 3.31487 8.89584 3.38412 8.94669 3.43516C8.99773 3.4862 9.06698 3.51484 9.13908 3.51484H16.2111V2.97089H9.13908V2.9707C8.98881 2.9707 8.86719 3.0925 8.86719 3.24277Z" fill="black"/>
<path d="M0.84375 7.18945H1.3877V7.7334H0.84375V7.18945Z" fill="black"/>
<path d="M0.84375 8.18555H1.3877V8.7295H0.84375V8.18555Z" fill="black"/>
<path d="M0.84375 9.63398V13.3061V13.3059C0.84375 13.4562 0.965557 13.578 1.11583 13.578C1.2661 13.578 1.38791 13.4562 1.38791 13.3059V9.08984H0.843954L0.84375 9.63398Z" fill="black"/>
<path d="M17.0938 18.6816H17.6377V19.2256H17.0938V18.6816Z" fill="black"/>
<path d="M18.0938 18.6816H18.6377V19.2256H18.0938V18.6816Z" fill="black"/>
<path d="M21.1084 18.6817H18.9922V19.2256H21.1003C21.2504 19.2256 21.3722 19.104 21.3722 18.9537C21.3722 18.8034 21.2504 18.6816 21.1003 18.6816L21.1084 18.6817Z" fill="black"/>
<path d="M3.91982 4.6029H19.0838C19.2011 4.86682 19.4379 5.05825 19.7203 5.118C20.0029 5.17758 20.2969 5.09827 20.5109 4.90436C20.725 4.71045 20.8329 4.42567 20.8014 4.13858C20.7697 3.85152 20.6024 3.59711 20.3514 3.45441C20.1004 3.31173 19.7962 3.29807 19.5334 3.41779C19.2705 3.53732 19.0811 3.77581 19.024 4.05888H3.91976C3.43385 4.05888 2.98496 3.79971 2.7419 3.37888C2.49905 2.95806 2.49905 2.43971 2.7419 2.01888C2.98495 1.59806 3.43385 1.33888 3.91976 1.33888H18.1726C18.5266 1.34609 18.8634 1.49314 19.1091 1.74814C19.3548 2.00295 19.4895 2.34484 19.4836 2.69887C19.4836 2.84914 19.6054 2.97076 19.7557 2.97076C19.9059 2.97076 20.0278 2.84914 20.0278 2.69887C20.0327 2.20082 19.8405 1.72098 19.4929 1.36413C19.1453 1.00743 18.6706 0.802693 18.1725 0.794922H3.91972C3.23952 0.794922 2.61096 1.15769 2.27077 1.74682C1.93058 2.33595 1.93058 3.06185 2.27077 3.65078C2.61096 4.2399 3.23952 4.60287 3.91972 4.60287L3.91982 4.6029ZM19.9105 3.87943C20.0572 3.87829 20.1898 3.96575 20.2467 4.10084C20.3034 4.23593 20.2733 4.39189 20.1701 4.49587C20.0668 4.60003 19.9109 4.63134 19.7754 4.57555C19.6399 4.51977 19.5515 4.38772 19.5515 4.24106C19.5529 4.04298 19.7124 3.88227 19.9105 3.87943Z" fill="black"/>
<path d="M15.3782 14.3054C15.3772 14.1331 15.327 13.9649 15.2334 13.8203C15.1399 13.6757 15.0071 13.5609 14.8505 13.4894V13.0705C14.8477 12.8356 14.7525 12.6111 14.5855 12.4457C14.4187 12.2802 14.1933 12.1871 13.9584 12.1865H12.5603C12.6358 11.9349 12.6743 11.6738 12.6745 11.4113C12.6745 11.327 12.6745 11.2454 12.6609 11.161H15.0409C15.3509 11.1602 15.648 11.0369 15.8672 10.8176C16.0863 10.5985 16.2098 10.3013 16.2106 9.99149V9.68412C16.4709 9.56156 16.6566 9.32174 16.7103 9.03905C16.7638 8.75635 16.6786 8.46512 16.4811 8.25583C16.2838 8.04656 15.9979 7.94467 15.7127 7.98186C15.4274 8.01886 15.1771 8.19057 15.0398 8.44329C14.9024 8.69601 14.8944 8.99938 15.0185 9.25895C15.1426 9.5185 15.3836 9.70292 15.6667 9.75472V9.98334C15.6667 10.3288 15.3864 10.6089 15.0409 10.6089H12.5495C12.3919 10.0981 12.0872 9.64504 11.6736 9.3066C11.2599 8.96792 10.7557 8.75866 10.2238 8.70494C10.2386 8.38278 10.508 8.13136 10.8304 8.13918H12.563C12.6804 8.4031 12.917 8.59454 13.1997 8.65428C13.4822 8.71386 13.7761 8.63436 13.9901 8.44065C14.2041 8.24674 14.3121 7.96195 14.2806 7.67487C14.2491 7.3878 14.0818 7.13339 13.8307 6.99069C13.5795 6.84801 13.2754 6.83435 13.0126 6.95388C12.7498 7.0736 12.5603 7.3121 12.5032 7.59517H10.8303C10.5351 7.59555 10.2515 7.71072 10.0394 7.9162C9.82743 8.12168 9.70334 8.40153 9.69348 8.69674C8.90516 8.77776 8.19078 9.19649 7.73508 9.84463H6.83481C6.60542 9.84311 6.42005 9.65755 6.41853 9.42836V9.21624C6.70693 9.18322 6.9621 9.01398 7.10461 8.76126C7.24729 8.50835 7.26 8.20269 7.13895 7.93875C7.01809 7.67483 6.77789 7.4851 6.49329 7.42817C6.20869 7.37125 5.91402 7.45416 5.70099 7.6511C5.48773 7.84804 5.38186 8.1353 5.41639 8.42348C5.45073 8.71169 5.62111 8.96593 5.87459 9.10727V9.4283C5.87535 9.68273 5.97667 9.92655 6.15654 10.1064C6.33659 10.2865 6.5804 10.3878 6.83484 10.3885H7.43324C7.24654 10.8479 7.19 11.3497 7.2695 11.839C7.34918 12.3283 7.56206 12.7864 7.88461 13.1628V13.4702C7.88309 13.8312 7.59014 14.123 7.22909 14.123H5.83378C5.77762 13.8361 5.58656 13.594 5.32076 13.4728C5.05476 13.3515 4.74665 13.366 4.49335 13.5117C4.24006 13.6574 4.07252 13.9164 4.0435 14.2072C4.01466 14.4981 4.12774 14.785 4.34745 14.9777C4.56715 15.1705 4.86638 15.2454 5.15096 15.1788C5.43556 15.1124 5.67063 14.9126 5.7822 14.6424C5.8099 14.6531 5.83931 14.6586 5.8691 14.6588H7.2291C7.51673 14.6586 7.79452 14.5548 8.01173 14.3664C8.22897 14.1782 8.37127 13.9179 8.41225 13.6334C8.86495 13.9482 9.40321 14.1163 9.95459 14.1148C10.4382 14.1161 10.9133 13.9886 11.3311 13.7452C11.7491 13.502 12.0944 13.1515 12.3319 12.7303H13.964H13.9638C14.0562 12.7303 14.1448 12.7669 14.2101 12.8322C14.2754 12.8976 14.312 12.9861 14.312 13.0785V13.4266C14.0864 13.4695 13.8855 13.5968 13.7504 13.7826C13.6153 13.9685 13.5559 14.1988 13.5848 14.4267C13.6134 14.6546 13.728 14.8631 13.905 15.0096C14.0821 15.156 14.3082 15.2295 14.5374 15.215C14.7668 15.2006 14.982 15.0993 15.1393 14.9318C15.2964 14.7642 15.3839 14.543 15.3839 14.3135L15.3782 14.3054ZM15.4734 8.86542C15.4734 8.71876 15.5619 8.5867 15.6973 8.53093C15.8328 8.47496 15.9888 8.50645 16.092 8.61042C16.1952 8.71458 16.2253 8.87055 16.1686 9.00563C16.1117 9.14072 15.9791 9.22819 15.8324 9.22705C15.6338 9.22553 15.4734 9.06407 15.4734 8.86542ZM13.3845 7.41547C13.5309 7.41452 13.6638 7.5018 13.7205 7.63689C13.7774 7.77198 13.7472 7.92813 13.6438 8.0321C13.5406 8.13626 13.3849 8.16757 13.2494 8.11179C13.1137 8.05601 13.0253 7.92395 13.0253 7.77729C13.0268 7.57921 13.1864 7.41851 13.3845 7.41547ZM6.31248 7.95961C6.45914 7.95848 6.59176 8.04594 6.64868 8.18103C6.70541 8.31612 6.67525 8.47208 6.57203 8.57605C6.46882 8.68021 6.31286 8.71152 6.17739 8.65574C6.04192 8.59996 5.9535 8.4679 5.9535 8.32124C5.95483 8.12316 6.1144 7.96246 6.31248 7.95961ZM4.95248 14.6671C4.80619 14.6671 4.67433 14.5791 4.61836 14.4438C4.5622 14.3087 4.59331 14.1532 4.69672 14.0496C4.80012 13.9462 4.9557 13.9152 5.09098 13.9712C5.22607 14.0272 5.3143 14.159 5.3143 14.3055C5.3143 14.5053 5.15227 14.6671 4.95248 14.6671ZM9.95436 13.5794V13.5792C9.37719 13.5792 8.82377 13.35 8.41562 12.9419C8.0077 12.5338 7.77831 11.9804 7.77831 11.4032C7.77945 11.0203 7.88266 10.6446 8.07752 10.3153C8.1075 10.2845 8.12989 10.2474 8.14279 10.2064C8.5659 9.56829 9.29316 9.1993 10.058 9.23495C10.8226 9.27062 11.5124 9.70567 11.8743 10.3804C12.2361 11.0551 12.2168 11.8703 11.8233 12.527C11.4297 13.1838 10.72 13.5855 9.95437 13.5847L9.95436 13.5794ZM14.4723 14.6671C14.326 14.6671 14.1941 14.5791 14.1382 14.4438C14.082 14.3087 14.1131 14.1532 14.2165 14.0496C14.3199 13.9462 14.4755 13.9152 14.6108 13.9712C14.7459 14.0272 14.8341 14.159 14.8341 14.3055C14.8341 14.5053 14.6721 14.6671 14.4723 14.6671Z" fill="black"/>
<path d="M10.0919 11.2691L9.87423 11.2256V11.2255C9.69341 11.1923 9.57256 11.0205 9.60215 10.8392C9.61904 10.7561 9.67045 10.6838 9.74369 10.6407C9.82452 10.5893 9.92242 10.5728 10.0156 10.5944C10.1074 10.6115 10.1892 10.6631 10.2442 10.7386C10.2941 10.8077 10.3129 10.8946 10.2958 10.9781C10.285 11.031 10.2956 11.0862 10.3256 11.1314C10.3554 11.1765 10.4019 11.2078 10.455 11.2186C10.5654 11.2412 10.6732 11.1701 10.6956 11.0596C10.7326 10.8699 10.6905 10.6733 10.5787 10.5155C10.4768 10.3726 10.329 10.2688 10.1598 10.2218V10.2055V10.1239C10.1598 10.0112 10.0685 9.91992 9.95582 9.91992C9.84312 9.91992 9.75186 10.0112 9.75186 10.1239V10.2055C9.67293 10.2237 9.59741 10.255 9.52873 10.2981C9.35892 10.3988 9.23939 10.5667 9.19973 10.7604C9.16406 10.9545 9.20713 11.1547 9.31926 11.3171C9.43159 11.4793 9.60386 11.5903 9.79815 11.6254L10.0158 11.6689H10.0156C10.1076 11.6871 10.1894 11.7396 10.2442 11.8157C10.293 11.8854 10.3116 11.9717 10.2958 12.0552C10.2772 12.1383 10.2264 12.2107 10.1545 12.2565C10.0734 12.3071 9.97555 12.3238 9.88239 12.3026C9.79094 12.2847 9.70992 12.2322 9.65661 12.1557C9.60576 12.087 9.58603 12.0003 9.60215 11.9165C9.62397 11.8053 9.55149 11.6975 9.44031 11.6757C9.32913 11.6539 9.22136 11.7264 9.19973 11.8375C9.16444 12.0275 9.20751 12.2238 9.31926 12.3815C9.41944 12.5302 9.57028 12.6374 9.74369 12.6834V12.716V12.7976C9.74369 12.9103 9.83496 13.0017 9.94766 13.0017C10.0604 13.0017 10.1516 12.9103 10.1516 12.7976V12.7297C10.1529 12.7215 10.1529 12.7133 10.1516 12.7052C10.2311 12.6873 10.3074 12.6572 10.3774 12.6154C10.5446 12.5113 10.6616 12.3432 10.7011 12.1502C10.7373 11.9603 10.6941 11.7635 10.5814 11.6063C10.4706 11.4323 10.2939 11.3105 10.0919 11.2691Z" fill="black"/>
</svg>