<svg width="38" height="38" viewBox="0 0 34 12" fill="none" xmlns="http://www.w3.org/2000/svg">
<path d="M31.1908 3.86629L28.3296 6.72025L27.0131 5.40372H27.0129C26.8871 5.27983 26.6845 5.28135 26.5606 5.40733C26.4367 5.53331 26.4384 5.73575 26.5644 5.85965L28.1054 7.40067H28.1052C28.2299 7.52305 28.4295 7.52305 28.5539 7.40067L31.6395 4.31508C31.7634 4.19118 31.7634 3.99026 31.6395 3.86636C31.5156 3.74246 31.3147 3.74246 31.1908 3.86636L31.1908 3.86629Z" fill="black"/>
<path d="M29.2776 0.910736C28.0849 0.912253 26.937 1.36438 26.0641 2.1768C25.191 2.98906 24.6574 4.10144 24.5702 5.29086H19.0539V1.74913C19.049 1.30743 18.8687 0.885478 18.5528 0.576564C18.2371 0.267489 17.8113 0.0967317 17.3695 0.101667H13.7618C13.3216 0.102615 12.8996 0.278117 12.5887 0.589858C12.2777 0.9014 12.1031 1.32372 12.1031 1.76393V5.30546H6.50576V4.88255C6.50538 4.48468 6.36175 4.10031 6.10106 3.79975C5.84037 3.49919 5.48008 3.30267 5.08616 3.24594V3.00327C5.08616 2.34644 4.73573 1.7393 4.16671 1.41086C3.59789 1.08243 2.89681 1.08243 2.32803 1.41086C1.75902 1.73928 1.40858 2.34644 1.40858 3.00327V3.24594C1.01678 3.30494 0.659119 3.50265 0.400525 3.803C0.14211 4.10335 0 4.4864 0 4.8826V7.00095C0.000948649 7.4415 0.17645 7.86387 0.487997 8.1754C0.799539 8.48676 1.22167 8.66224 1.66226 8.66321H4.84349C5.28443 8.66321 5.70714 8.48808 6.01887 8.17637C6.33061 7.86467 6.50571 7.44193 6.50571 7.001V5.92349H12.1031V9.48722V9.48703C12.1069 9.92474 12.2833 10.3433 12.5937 10.6518C12.9043 10.9601 13.324 11.1337 13.7617 11.1346H17.3695C17.81 11.1337 18.2324 10.9582 18.5439 10.6466C18.8555 10.3351 19.0308 9.91297 19.0317 9.47238V5.92346H24.5485C24.6244 7.15577 25.1799 8.30934 26.0961 9.13695C27.0123 9.96456 28.2162 10.4004 29.4498 10.3512C30.6836 10.3019 31.849 9.77139 32.6961 8.8734C33.5435 7.97541 34.0055 6.78123 33.9829 5.54684C33.9603 4.31225 33.4553 3.13571 32.5758 2.26924C31.6965 1.40273 30.5125 0.914922 29.2779 0.910745L29.2776 0.910736ZM3.57069 6.48236V6.96049C3.55323 7.1229 3.41606 7.24623 3.2527 7.24623C3.08915 7.24623 2.95197 7.1229 2.93452 6.96049V6.48236C2.64157 6.38124 2.41427 6.14673 2.32208 5.85094C2.23006 5.55515 2.28413 5.23296 2.46779 4.9835C2.65145 4.734 2.94269 4.58658 3.25271 4.58658C3.56254 4.58658 3.85397 4.734 4.03762 4.9835C4.22128 5.233 4.27535 5.55518 4.18315 5.85094C4.09094 6.14673 3.86362 6.38124 3.57069 6.48236ZM4.44974 3.21652H2.0555V2.99946V2.99965C2.07846 2.58774 2.31145 2.21644 2.67251 2.01686C3.03356 1.81728 3.47185 1.81726 3.83293 2.01686C4.1938 2.21646 4.42696 2.58777 4.44974 2.99965V3.21652ZM15.5745 10.307C15.3507 10.3085 15.1482 10.1745 15.0619 9.96811C14.9755 9.76168 15.0226 9.52338 15.1808 9.36515C15.3391 9.20691 15.5772 9.16004 15.7836 9.24637C15.99 9.33271 16.124 9.53515 16.1225 9.75905C16.1204 10.0607 15.8764 10.3049 15.5745 10.307ZM18.171 8.10037C18.1689 8.31477 17.9955 8.48819 17.7811 8.49008H13.368C13.1521 8.49008 12.9764 8.31629 12.9745 8.10037V2.0066C12.9764 1.79069 13.1521 1.6169 13.368 1.6169H17.7811C17.9955 1.61879 18.1689 1.79221 18.171 2.0066V8.10037ZM29.2774 9.74063C28.1936 9.74063 27.1541 9.31032 26.3874 8.54456C25.6205 7.77859 25.189 6.73965 25.1877 5.65587C25.1866 4.57215 25.6154 3.53218 26.3804 2.76437C27.1454 1.9967 28.1838 1.56412 29.2675 1.56145C30.3512 1.55878 31.3917 1.98645 32.1604 2.75048C32.929 3.5145 33.3629 4.55257 33.3669 5.6363C33.3659 6.72061 32.9347 7.76018 32.1679 8.52688C31.4012 9.29358 30.3617 9.72485 29.2774 9.72582V9.74063Z" fill="black"/>
<path d="M15.7824 5.44789C15.7824 5.72736 15.3633 5.72736 15.3633 5.44789C15.3633 5.16841 15.7824 5.16841 15.7824 5.44789Z" fill="black"/>
<path d="M16.6025 4.32624V4.1792C16.5814 3.82649 16.3809 3.50925 16.0716 3.33886C15.7622 3.1683 15.3868 3.1683 15.0776 3.33886C14.7681 3.50924 14.5678 3.82647 14.5467 4.1792V4.32624C14.3822 4.37595 14.238 4.47708 14.1354 4.61482C14.0329 4.75237 13.9771 4.91953 13.9766 5.09124V6.22392C13.9775 6.43908 14.065 6.64494 14.2192 6.79503C14.3735 6.94511 14.5816 7.02688 14.7968 7.02195H16.3928C16.6045 7.02195 16.8074 6.93789 16.9571 6.7882C17.1068 6.63869 17.1908 6.43568 17.1908 6.22394V5.09126C17.1897 4.91709 17.1316 4.74784 17.0254 4.60971C16.9191 4.47159 16.7706 4.37196 16.6025 4.32624ZM15.5764 3.64226C15.7208 3.64036 15.8601 3.69576 15.9635 3.79651C16.0669 3.89707 16.1261 4.03481 16.128 4.1792V4.28962H15.0247V4.1792C15.0268 4.03481 15.086 3.89707 15.1894 3.79651C15.2928 3.69576 15.432 3.64036 15.5764 3.64226ZM15.7345 5.94809V6.23136C15.7345 6.31863 15.6637 6.3894 15.5764 6.3894C15.4891 6.3894 15.4182 6.31863 15.4182 6.23136V5.94809C15.1708 5.87011 15.0171 5.62308 15.0566 5.36654C15.096 5.11001 15.3169 4.92067 15.5764 4.92067C15.836 4.92067 16.0566 5.11002 16.0961 5.36654C16.1357 5.62306 15.9821 5.87008 15.7345 5.94809Z" fill="black"/>
<path d="M3.25252 5.25C3.11724 5.25 2.99525 5.33159 2.94345 5.45662C2.89165 5.58165 2.9203 5.72566 3.01593 5.82147C3.11175 5.9171 3.25556 5.94575 3.38059 5.89395C3.50563 5.84215 3.58721 5.72016 3.58721 5.58469C3.58531 5.40083 3.43656 5.25208 3.25252 5.25Z" fill="black"/>
</svg>