<svg width="38" height="38" viewBox="0 0 15 18" fill="none" xmlns="http://www.w3.org/2000/svg">
<path d="M14.0853 3.24452C13.3142 3.3703 12.1111 3.41951 10.7767 2.9492C9.39315 2.46248 8.46895 1.64216 7.933 1.03516L7.57753 0.625L7.22753 1.03516C6.55488 1.81721 5.70173 2.43516 4.76113 2.83436C3.30098 3.4414 1.96113 3.39215 1.09158 3.24451L0.500977 3.14061C0.500977 3.14061 0.550195 3.8734 0.555666 3.97185C0.834571 8.5328 1.46347 11.5624 2.42052 12.9569C4.05567 15.3467 6.24862 16.4842 7.41347 16.9491L7.61034 17.0311L7.80175 16.9381C9.44785 16.1123 10.9134 14.9202 12.0455 13.4928C13.6806 11.4256 14.2822 6.54732 14.5392 4.46932C14.5775 4.16854 14.7307 3.14586 14.7307 3.14586L14.0853 3.24452ZM7.58285 15.9755C7.57191 15.981 7.56644 15.9865 7.5555 15.9865C6.4563 15.5216 4.59145 14.4826 3.19145 12.4263C2.83051 11.9013 2.3985 10.8841 2.0485 8.93175H7.583L7.58285 15.9755ZM13.5983 4.34901C13.478 5.31696 13.2538 7.13806 12.8491 8.91541H7.58265V2.04142L7.58812 2.03595C8.22252 2.66485 9.16856 3.38125 10.4702 3.83515C11.6678 4.25624 12.7671 4.30546 13.6147 4.2453C13.6092 4.27811 13.6038 4.31093 13.5983 4.34921L13.5983 4.34901Z" fill="black"/>
</svg>