<svg width="38" height="38" viewBox="0 0 28 28" fill="none" xmlns="http://www.w3.org/2000/svg">
<path d="M25.7074 7.24062H18.7427C18.9899 6.04552 19.0725 4.76785 18.7839 3.36666C18.7427 3.16061 18.5778 3.0369 18.3718 3.0369C16.2288 2.95456 14.6215 2.25408 13.179 0.729175C13.0967 0.646832 12.973 0.605469 12.8906 0.605469C12.8083 0.605469 12.6846 0.646641 12.6022 0.729175C11.0773 2.25408 9.18152 3.07824 7.36816 3.0371C7.16211 3.0371 6.99723 3.1608 6.95606 3.36685C6.66767 4.76804 6.70884 6.04566 6.95606 7.24081L2.09309 7.24062C1.26888 7.24062 0.609375 7.89993 0.609375 8.72433V26.0332C0.609375 26.7751 1.22754 27.3932 1.96938 27.3932H25.7077C26.6556 27.3932 27.3974 26.6514 27.3974 25.7035V8.93032C27.3974 7.9824 26.6556 7.24057 25.7077 7.24057L25.7074 7.24062ZM25.7074 8.06483C26.1606 8.06483 26.5727 8.43575 26.5727 8.93017L26.5729 16.06H25.5838V11.403C25.5838 10.6612 25.0069 10.0842 24.265 10.0842H17.671C18.0007 9.46601 18.3303 8.76537 18.5363 8.06488L25.7074 8.06483ZM21.2153 21.3763C19.979 21.3763 18.9899 20.3873 18.9899 19.151C18.9899 17.9147 19.979 16.9256 21.2153 16.9256H26.5727V21.4177C25.2539 21.3763 22.5339 21.3763 21.2153 21.3763ZM8.15102 8.39463H12.4371V14.1231C10.665 12.6808 8.97523 10.6615 8.15102 8.39463ZM18.0421 3.86136C18.2482 5.09765 18.1658 6.33413 17.7949 7.57042H13.2616L13.2614 1.96576C14.5802 3.07853 16.1463 3.73784 18.0421 3.86155L18.0421 3.86136ZM13.2614 8.39463H17.5475C16.5584 11.0323 14.4977 13.0516 13.2614 14.0819V8.39463ZM7.65676 3.86136C9.34651 3.82019 10.9949 3.11953 12.4374 1.92438V7.57032H7.8628C7.5744 6.45755 7.4507 5.22126 7.65675 3.86126L7.65676 3.86136ZM2.09339 8.06488H7.1215C7.32755 8.80671 7.61615 9.46606 7.94571 10.0842L1.84611 10.0844C1.7224 10.0844 1.55771 10.1255 1.43401 10.1667V8.72439C1.43401 8.35346 1.72259 8.06488 2.09351 8.06488L2.09339 8.06488ZM1.43388 26.0334V19.8104C1.59876 19.7692 1.6811 19.6044 1.6811 19.4395C1.6811 19.2746 1.55739 19.1097 1.43388 19.0686V11.3205C1.43388 11.1144 1.59876 10.9495 1.84598 10.9495H8.44004C9.55281 12.7216 11.4073 14.5349 12.6438 15.3179C12.6849 15.3591 12.7675 15.4003 12.8498 15.4003C12.9735 15.4003 13.0559 15.3179 13.1382 15.2766C13.9624 14.6584 15.7759 13.1336 17.177 10.9494H24.2655C24.5539 10.9494 24.7602 11.1554 24.7602 11.444V16.06H21.216C19.5262 16.06 18.1662 17.42 18.1662 19.1097C18.1662 20.7995 19.5262 22.1595 21.216 22.1595H24.7602V26.5279L1.96997 26.5277C1.68158 26.5691 1.43418 26.3217 1.43418 26.0333L1.43388 26.0334ZM25.7079 26.5692H25.5842L25.5844 22.2006H26.5735V25.7448C26.5735 26.1983 26.2026 26.5692 25.7079 26.5692Z" fill="black"/>
<path d="M22.1199 17.709C21.3369 17.709 20.7188 18.3272 20.7188 19.1102C20.7188 19.8932 21.3369 20.5114 22.1199 20.5114C22.903 20.5114 23.5211 19.8932 23.5211 19.1102C23.5211 18.3272 22.903 17.709 22.1199 17.709ZM22.1199 19.6872C21.7902 19.6872 21.543 19.4399 21.543 19.1102C21.543 18.7804 21.7902 18.5332 22.1199 18.5332C22.4497 18.5332 22.6969 18.7804 22.6969 19.1102C22.6969 19.4399 22.4495 19.6872 22.1199 19.6872Z" fill="black"/>
<path d="M2.50585 19.0273C2.25863 19.0273 2.09375 19.2334 2.09375 19.4394C2.09375 19.6867 2.25863 19.8515 2.50585 19.8515C2.7119 19.8515 2.91795 19.6867 2.91795 19.4394C2.91795 19.1922 2.75307 19.0273 2.50585 19.0273Z" fill="black"/>
<path d="M3.74022 19.0273C3.49301 19.0273 3.32812 19.2334 3.32812 19.4394C3.32812 19.6867 3.493 19.8515 3.74022 19.8515C3.94627 19.8515 4.15232 19.6867 4.15232 19.4394C4.15232 19.1922 3.98745 19.0273 3.74022 19.0273Z" fill="black"/>
<path d="M6.62889 19.4394C6.62889 19.6671 6.44447 19.8515 6.21679 19.8515C5.98911 19.8515 5.80469 19.6671 5.80469 19.4394C5.80469 19.2118 5.98911 19.0273 6.21679 19.0273C6.44447 19.0273 6.62889 19.2118 6.62889 19.4394Z" fill="black"/>
<path d="M15.2775 19.4394C15.2775 19.6671 15.0929 19.8515 14.8652 19.8515C14.6377 19.8515 14.4531 19.6671 14.4531 19.4394C14.4531 19.2118 14.6377 19.0273 14.8652 19.0273C15.0929 19.0273 15.2775 19.2118 15.2775 19.4394Z" fill="black"/>
<path d="M14.0429 19.4394C14.0429 19.6671 13.8585 19.8515 13.6308 19.8515C13.4032 19.8515 13.2188 19.6671 13.2188 19.4394C13.2188 19.2118 13.4032 19.0273 13.6308 19.0273C13.8585 19.0273 14.0429 19.2118 14.0429 19.4394Z" fill="black"/>
<path d="M12.8086 19.4394C12.8086 19.6671 12.624 19.8515 12.3965 19.8515C12.1688 19.8515 11.9844 19.6671 11.9844 19.4394C11.9844 19.2118 12.1688 19.0273 12.3965 19.0273C12.624 19.0273 12.8086 19.2118 12.8086 19.4394Z" fill="black"/>
<path d="M17.3418 19.0273C17.0946 19.0273 16.9297 19.2334 16.9297 19.4394C16.9297 19.6867 17.0946 19.8515 17.3418 19.8515C17.5478 19.8515 17.7539 19.6867 17.7539 19.4394C17.7539 19.1922 17.589 19.0273 17.3418 19.0273Z" fill="black"/>
<path d="M5.38689 19.4394C5.38689 19.6671 5.20228 19.8515 4.97479 19.8515C4.74711 19.8515 4.5625 19.6671 4.5625 19.4394C4.5625 19.2118 4.74711 19.0273 4.97479 19.0273C5.20228 19.0273 5.38689 19.2118 5.38689 19.4394Z" fill="black"/>
<path d="M16.5195 19.4394C16.5195 19.6671 16.3349 19.8515 16.1074 19.8515C15.8797 19.8515 15.6953 19.6671 15.6953 19.4394C15.6953 19.2118 15.8797 19.0273 16.1074 19.0273C16.3349 19.0273 16.5195 19.2118 16.5195 19.4394Z" fill="black"/>
<path d="M9.09764 19.4394C9.09764 19.6671 8.91303 19.8515 8.68554 19.8515C8.45786 19.8515 8.27344 19.6671 8.27344 19.4394C8.27344 19.2118 8.45786 19.0273 8.68554 19.0273C8.91303 19.0273 9.09764 19.2118 9.09764 19.4394Z" fill="black"/>
<path d="M11.5742 19.4394C11.5742 19.6671 11.3898 19.8515 11.1621 19.8515C10.9346 19.8515 10.75 19.6671 10.75 19.4394C10.75 19.2118 10.9346 19.0273 11.1621 19.0273C11.3898 19.0273 11.5742 19.2118 11.5742 19.4394Z" fill="black"/>
<path d="M7.86326 19.4394C7.86326 19.6671 7.67884 19.8515 7.45116 19.8515C7.22367 19.8515 7.03906 19.6671 7.03906 19.4394C7.03906 19.2118 7.22367 19.0273 7.45116 19.0273C7.67884 19.0273 7.86326 19.2118 7.86326 19.4394Z" fill="black"/>
<path d="M10.332 19.4394C10.332 19.6671 10.1476 19.8515 9.91991 19.8515C9.69223 19.8515 9.50781 19.6671 9.50781 19.4394C9.50781 19.2118 9.69223 19.0273 9.91991 19.0273C10.1476 19.0273 10.332 19.2118 10.332 19.4394Z" fill="black"/>
</svg>