<svg width="38" height="38" viewBox="0 0 28 20" fill="none" xmlns="http://www.w3.org/2000/svg">
<path d="M26.7249 18.1167L17.5449 12.4562C18.1138 11.0692 18.7951 9.7311 19.5821 8.45513C19.6107 8.40675 19.6185 8.34888 19.6039 8.29462C19.531 7.72259 19.3519 7.16912 19.0763 6.66252C18.165 9.01255 17.4007 10.2991 16.7752 11.9748C16.7018 12.1679 16.631 12.3582 16.5602 12.5487C16.5058 12.6901 16.4542 12.8208 16.3997 12.9758L16.3344 13.1526C16.1902 13.4981 15.5592 13.4055 15.5592 13.0384V12.8071C15.5592 12.5161 15.5592 12.2277 15.5837 11.9476C15.5837 11.7164 15.7413 9.61111 15.7578 9.38817C16.0978 4.91659 17.4197 4.22017 17.4197 4.22017C17.4197 4.22017 16.7289 3.5102 16.6853 3.48572H16.6854C16.6555 3.45365 16.6137 3.43525 16.5697 3.43525C16.5259 3.43525 16.4839 3.45365 16.4542 3.48572C15.271 4.54919 14.8984 8.24305 14.7813 10.7481L13.1492 9.73895H13.1494C13.098 9.70727 13.0443 9.679 12.9889 9.65471C12.3389 4.50322 10.201 1.69579 8.84099 0.398451C8.73341 0.290681 8.59604 0.217824 8.44672 0.189366C8.29741 0.160717 8.14277 0.177602 8.00313 0.237937C7.85685 0.300167 7.73067 0.401866 7.63847 0.531454C7.54626 0.661043 7.4918 0.813587 7.48099 0.972202C7.12202 4.56537 7.636 7.3778 8.39228 9.46977H2.07897C0.65369 9.46977 0.795033 11.1019 1.26292 11.39L14.553 19.5962C15.0262 19.8899 16.1851 19.7975 16.7073 19.7975H26.6814C27.2038 19.7975 27.2011 18.4103 26.7251 18.1165L26.7249 18.1167ZM14.7569 11.4391C14.738 11.9831 14.7325 12.4156 14.7298 12.7231C14.3898 12.6986 14.0335 12.6823 13.6635 12.6823H13.1767C13.1767 11.8662 13.1332 11.1102 13.068 10.3865L14.7569 11.4391ZM12.0504 8.37912C12.3522 9.73912 12.5617 13.0928 12.5562 13.1336C12.5128 13.4791 11.6994 13.6178 11.4683 13.3649L11.1962 13.1336L11.1964 13.1338C11.1069 13.0479 11.0224 12.9572 10.9433 12.8617C10.2897 11.9565 9.76259 10.9663 9.37669 9.9188C8.89534 8.50984 7.83169 3.9348 8.66138 1.7588C8.65303 1.76411 11.2535 4.80518 12.0504 8.37912ZM7.76643 9.73912C7.97666 9.75012 8.18157 9.8097 8.36483 9.91329C8.51985 10.0112 8.50619 10.0875 8.33486 10.0875V10.0873C8.12445 10.0774 7.91934 10.0178 7.73646 9.91329C7.58145 9.81805 7.5951 9.73912 7.76643 9.73912ZM15.279 18.1847L2.33712 10.185H6.90395C7.13144 10.2909 7.37069 10.3694 7.61659 10.4188H8.76181C9.18529 11.3921 9.72318 12.3115 10.3639 13.1579C9.86623 13.3484 9.56965 13.585 9.56965 13.8434C9.56965 14.4853 11.4002 15.0048 13.6496 15.0048C15.8991 15.0048 17.7541 14.4988 17.7541 13.8432C17.7541 13.6446 17.5773 13.4598 17.2699 13.2993C17.2944 13.2122 17.3189 13.128 17.346 13.0409L25.6857 18.1846L15.279 18.1847ZM17.0008 3.30874C16.9313 3.24443 16.9004 3.14861 16.9192 3.05583C16.9315 2.96229 17.0124 2.89304 17.1068 2.89532C18.7518 2.77067 20.3771 3.31823 21.6111 4.41318C21.9615 4.72415 22.1347 5.18881 22.0734 5.65345C21.8729 6.84685 21.5276 8.01145 21.0453 9.12135C20.9855 9.28832 20.8254 9.39798 20.6482 9.39343H20.5856C20.3858 9.36288 20.231 9.20256 20.2076 9.00163C19.5058 5.14739 17.0008 3.34695 17.0008 3.31149V3.30874Z" fill="black"/>
</svg>