<svg width="38" height="38"
     viewBox="0 0 28 28" fill="none" xmlns="http://www.w3.org/2000/svg">
     <path
         d="M1.43391 26.5747L1.43395 26.5748L1.43448 26.5753L1.43452 26.5753M1.43391 26.5747L3.93405 26.6279C3.5931 26.9689 3.13981 27.1569 2.65774 27.1569H2.65755C2.17544 27.1569 1.72216 26.9693 1.38143 26.6283L1.43452 26.5753M1.43391 26.5747C0.760004 25.9003 0.760014 24.8029 1.43391 24.1287L5.69347 19.8671L8.13952 22.3144L3.88102 26.5749M1.43391 26.5747L3.88102 26.5749M1.43452 26.5753C1.76116 26.9022 2.19533 27.0819 2.65755 27.0819H2.65774C3.11988 27.0819 3.55411 26.9018 3.88102 26.5749M1.43452 26.5753L3.88102 26.5749M17.3404 0.314488L17.3401 0.313672H17.2907C11.5596 0.313672 6.89768 4.97808 6.89768 10.7116C6.89768 13.0187 7.65277 15.153 8.92866 16.8797L7.83638 17.9723L7.50635 17.6422L7.50634 17.6421C7.45183 17.5876 7.37772 17.557 7.30057 17.557C7.22333 17.557 7.14951 17.5877 7.09493 17.642L7.09479 17.6422L1.02239 23.718L1.07544 23.771L1.02239 23.718C0.12172 24.6192 0.121698 26.0853 1.02236 26.9864C1.02237 26.9864 1.02238 26.9864 1.0224 26.9864L17.3404 0.314488ZM15.5609 7.42713V7.42711C15.5609 6.47297 16.337 5.69661 17.2904 5.69661C18.2439 5.69661 19.02 6.47297 19.02 7.42711V9.15761H13.755C13.0372 9.15761 12.4534 9.7414 12.4534 10.4592V15.5126C12.4534 16.2304 13.0372 16.8142 13.755 16.8142H20.8256C21.5434 16.8142 22.1272 16.2304 22.1272 15.5126V10.4592C22.1274 9.84161 21.6949 9.32374 21.1172 9.19093V7.42711C21.1172 5.31613 19.4006 3.59885 17.2905 3.59885C15.1804 3.59885 13.4637 5.31613 13.4637 7.42711V8.18507C13.4637 8.3456 13.5938 8.47598 13.7546 8.47598H15.2698C15.4303 8.47598 15.5607 8.34588 15.5607 8.18509C15.5607 8.18508 15.5607 8.18507 15.5607 8.18507L15.5609 7.42713ZM8.55062 21.9032L6.10457 19.4559L7.30049 18.2593L9.74654 20.7066L8.55062 21.9032ZM8.24759 18.3837L9.29011 17.3406C9.70468 17.8406 10.1649 18.3012 10.6647 18.7158L9.6222 19.759L8.24759 18.3837ZM17.2907 20.5278C11.8809 20.5278 7.47943 16.1243 7.47943 10.7117C7.47943 5.2991 11.8809 0.895618 17.2907 0.895618C22.7004 0.895618 27.1019 5.2991 27.1019 10.7117C27.1019 16.1243 22.7003 20.5278 17.2907 20.5278ZM17.2907 1.82973C12.3953 1.82973 8.41306 5.81415 8.41306 10.7117C8.41306 15.6091 12.3955 19.5937 17.2907 19.5937C22.1858 19.5937 26.1683 15.6093 26.1683 10.7117C26.1683 5.81429 22.1858 1.82973 17.2907 1.82973ZM17.2907 19.0119C12.7163 19.0119 8.99486 15.2884 8.99486 10.7117C8.99486 6.13501 12.7165 2.41153 17.2907 2.41153C21.8648 2.41153 25.5865 6.13501 25.5865 10.7117C25.5865 15.2884 21.8648 19.0119 17.2907 19.0119ZM17.2907 5.11476C16.0161 5.11476 14.9793 6.15205 14.9793 7.42706V7.89431H14.0457V7.42706C14.0457 5.63696 15.5016 4.18041 17.2907 4.18041C19.0798 4.18041 20.5356 5.63677 20.5356 7.42706V9.15756H19.602V7.42706C19.6018 6.15206 18.5652 5.11476 17.2907 5.11476ZM21.5457 15.5126C21.5457 15.9095 21.2228 16.2326 20.8257 16.2326L13.7552 16.2324C13.3583 16.2324 13.0352 15.9095 13.0352 15.5125V10.4591C13.0352 10.0622 13.3582 9.73912 13.7552 9.73912H20.8257C21.2226 9.73912 21.5457 10.0621 21.5457 10.4591V15.5126ZM17.2907 12.1896C16.7124 12.1896 16.2421 12.6602 16.2421 13.2385C16.2421 13.7162 16.563 14.1191 16.9998 14.2454V15.5125C16.9998 15.673 17.1299 15.8034 17.2907 15.8034C17.4512 15.8034 17.5816 15.6733 17.5816 15.5125V14.2454C18.0185 14.119 18.3392 13.716 18.3392 13.2385C18.3392 12.6602 17.8689 12.1896 17.2907 12.1896ZM17.2907 13.7058C17.0335 13.7058 16.8238 13.4961 16.8238 13.2387C16.8238 12.9811 17.0333 12.7717 17.2907 12.7717C17.5478 12.7717 17.7573 12.9813 17.7573 13.2387C17.7573 13.4962 17.5478 13.7058 17.2907 13.7058Z"
         fill="black" stroke="black" stroke-width="0.15" />
 </svg>