<svg width="38" height="38"
    viewBox="0 0 24 21" fill="none" xmlns="http://www.w3.org/2000/svg">
    <path
        d="M3.19623 16.7195V16.932C3.19623 17.3265 3.35295 17.7048 3.63186 17.9839C3.91096 18.2628 4.28927 18.4195 4.68372 18.4195H10.2087C10.6032 18.4195 10.9815 18.2628 11.2606 17.9839C11.5395 17.7048 11.6962 17.3265 11.6962 16.932V16.7195C11.7133 15.9862 11.4864 15.2679 11.0509 14.6775C10.6155 14.0872 9.99641 13.658 9.29081 13.4577C9.84899 12.957 10.1797 12.2506 10.2068 11.5012C10.2341 10.7517 9.95523 10.0233 9.43463 9.48357C8.91399 8.9436 8.19625 8.63867 7.44621 8.63867C6.69617 8.63867 5.97843 8.94357 5.4578 9.48357C4.93716 10.0233 4.65826 10.7517 4.68561 11.5012C4.71274 12.2506 5.04344 12.957 5.60162 13.4577C4.89602 13.658 4.27693 14.0872 3.84148 14.6775C3.40605 15.2679 3.17913 15.9862 3.19623 16.7195ZM7.44623 9.49455C7.95337 9.49455 8.43986 9.69604 8.79865 10.0546C9.15725 10.4134 9.35873 10.8999 9.35873 11.407C9.35873 11.9142 9.15724 12.4007 8.79865 12.7595C8.43987 13.1181 7.95341 13.3195 7.44623 13.3195C6.93905 13.3195 6.45261 13.1181 6.09381 12.7595C5.73522 12.4007 5.53373 11.9142 5.53373 11.407C5.53373 10.8999 5.73523 10.4134 6.09381 10.0546C6.45259 9.69603 6.93905 9.49455 7.44623 9.49455ZM6.59623 14.1695H8.29623C8.9772 14.1544 9.63462 14.4181 10.1162 14.8996C10.5977 15.3812 10.8614 16.0386 10.8462 16.7195V16.932C10.8462 17.2842 10.5609 17.5695 10.2087 17.5695H4.68373C4.33159 17.5695 4.04623 17.2842 4.04623 16.932V16.7195C4.03105 16.0386 4.29478 15.3812 4.77631 14.8996C5.25784 14.4181 5.91526 14.1543 6.59623 14.1695Z"
        fill="black" />
    <path
        d="M20.6234 13.7447C20.3887 13.7447 20.1984 13.935 20.1984 14.1697V19.4824C20.1984 19.8346 19.9131 20.1199 19.5609 20.1199H2.13593C1.78378 20.1199 1.49843 19.8346 1.49843 19.4824V7.15742C1.49843 6.80528 1.78378 6.51992 2.13593 6.51992H11.4859C11.7206 6.51992 11.9109 6.32962 11.9109 6.09492C11.9109 5.86022 11.7206 5.66992 11.4859 5.66992H2.13593C1.74147 5.66992 1.36316 5.82664 1.08406 6.10555C0.805158 6.38465 0.648438 6.76296 0.648438 7.15741V19.4824C0.648438 19.8769 0.805158 20.2552 1.08406 20.5343C1.36316 20.8132 1.74148 20.9699 2.13593 20.9699H19.5609C19.9554 20.9699 20.3337 20.8132 20.6128 20.5343C20.8917 20.2552 21.0484 19.8769 21.0484 19.4824V14.1697C21.0484 14.057 21.0036 13.9488 20.924 13.8691C20.8443 13.7894 20.7361 13.7447 20.6234 13.7447Z"
        fill="black" />
    <path
        d="M20.2541 5.79616L17.5808 8.46929L15.8978 6.78639C15.7318 6.62037 15.4626 6.62037 15.2964 6.78639C15.1304 6.9524 15.1304 7.22163 15.2964 7.38785L17.2791 9.37053V9.37034C17.3589 9.45079 17.4675 9.49575 17.5807 9.49575C17.6934 9.49518 17.801 9.45022 17.8805 9.37034L20.8555 6.39534C21.0073 6.22724 21.0005 5.96939 20.84 5.80947C20.6795 5.64955 20.4218 5.64361 20.2541 5.79616Z"
        fill="black" />
    <path
        d="M23.2299 3.43248C23.2081 3.23004 23.0459 3.07142 22.8431 3.05434C22.0325 2.94942 21.241 2.72895 20.4928 2.39975C19.7201 2.07796 19.0002 1.64179 18.3572 1.10556C18.1948 0.957 17.9458 0.957 17.7835 1.10556C17.1407 1.64194 16.4208 2.0783 15.6478 2.39975C14.9037 2.7276 14.1165 2.94807 13.3103 3.05434C13.1066 3.07047 12.9432 3.22947 12.9214 3.43248C12.9022 3.61311 12.4772 7.85666 13.527 9.95223C14.7828 12.4555 17.777 13.8601 17.9024 13.9195C18.0157 13.9721 18.1462 13.9721 18.2595 13.9195C18.3849 13.86 21.3791 12.4554 22.6349 9.95223C23.6739 7.857 23.2489 3.61317 23.2299 3.43248ZM21.8635 9.57143C20.9093 11.4777 18.7078 12.725 18.0703 13.0585C17.4328 12.725 15.2314 11.4775 14.2772 9.57143C13.4951 8.00747 13.6524 4.87724 13.7289 3.85311C14.5035 3.71821 15.2594 3.49281 15.9814 3.18166C16.7257 2.86689 17.4275 2.45994 18.0703 1.97039C18.7131 2.45989 19.415 2.86687 20.1593 3.18166C20.8812 3.49282 21.6371 3.71823 22.4118 3.85311C22.4903 4.87729 22.6476 8.00747 21.8635 9.57143Z"
        fill="black" />
    <path
        d="M13.8234 18.4203H18.0734C18.3081 18.4203 18.4984 18.23 18.4984 17.9953C18.4984 17.7606 18.3081 17.5703 18.0734 17.5703H13.8234C13.5887 17.5703 13.3984 17.7606 13.3984 17.9953C13.3984 18.23 13.5887 18.4203 13.8234 18.4203Z"
        fill="black" />
    <path
        d="M13.8234 15.8695H16.3734C16.6081 15.8695 16.7984 15.6792 16.7984 15.4445C16.7984 15.2098 16.6081 15.0195 16.3734 15.0195H13.8234C13.5887 15.0195 13.3984 15.2098 13.3984 15.4445C13.3984 15.6792 13.5887 15.8695 13.8234 15.8695Z"
        fill="black" />
</svg>