<svg width="38" height="38" viewBox="0 0 34 34" fill="none" xmlns="http://www.w3.org/2000/svg">
                                <path d="M33.7578 17.4375V16.8125V16.3125L28.4453 15L27.3203 10.0625C27.6328 9.25 27.9453 8.1875 28.1953 6.875C28.2578 6.4375 28.1328 6 27.8203 5.6875C27.5078 5.375 27.0703 5.3125 26.6328 5.4375C26.3828 5.5 26.1953 5.5625 25.9453 5.625C25.8203 4.9375 25.1953 4.375 24.4453 4.375C23.6953 4.375 23.0703 4.875 22.9453 5.625C22.7578 5.5625 22.5078 5.5 22.2578 5.4375C21.8203 5.3125 21.3828 5.4375 21.0703 5.6875C20.7578 6 20.5703 6.4375 20.6953 6.875C20.9453 8.1875 21.2578 9.25 21.5703 10.0625L20.1953 15.875C20.0078 16.8125 20.1953 17.75 20.7578 18.5L23.1328 21.75C23.7578 23.5625 25.0703 25.4375 28.0078 26.8125L28.2578 26.9375L28.5078 26.8125C33.8828 24.25 33.8203 20 33.7578 17.4375ZM26.9453 6.62464C26.7578 7.43714 26.6328 8.12464 26.4453 8.74964C26.3203 8.62464 26.1328 8.56214 25.9453 8.49964V6.87464C26.2578 6.81214 26.5703 6.74964 26.9453 6.62464ZM24.3828 5.62464C24.5703 5.62464 24.6953 5.74964 24.6953 5.93714V8.24964H24.0703V5.93714C24.0703 5.74964 24.1953 5.62464 24.3828 5.62464ZM22.8203 6.87464V8.49964C22.6328 8.56214 22.5078 8.68714 22.3203 8.74964C22.1328 8.12464 21.9453 7.43714 21.8203 6.62464C22.1953 6.74964 22.5078 6.81214 22.8203 6.87464ZM21.6328 17.8118C21.3203 17.3118 21.1953 16.7493 21.3203 16.1868L22.6953 10.3743C22.8203 9.87429 23.2578 9.49929 23.7578 9.49929H25.0078C25.5078 9.49929 25.9453 9.87429 26.0703 10.3743L27.1953 15.1868L22.5078 16.3118V16.8118V17.4368V19.0618L21.6328 17.8118ZM28.1328 25.6246C23.6328 23.3746 23.6953 19.9996 23.7578 17.4375V17.3125L28.1328 16.25L32.5078 17.3125V17.4375C32.5703 19.9375 32.5703 23.375 28.1328 25.6246Z" fill="black"/>
                                <path d="M28.0703 20.8125L27.0078 19.8125L26.1953 20.75L28.1328 22.5L30.8828 19.75L29.9453 18.875L28.0703 20.8125Z" fill="black"/>
                                <path d="M18.3195 15.3125C18.3195 15.25 18.3195 15.25 18.257 15.1875C18.882 13.6875 19.3195 11.6875 19.5695 10.1875C19.632 9.6875 19.507 9.25 19.132 8.9375C18.757 8.625 18.257 8.5 17.8195 8.6875C17.3195 8.875 16.632 9.0625 15.882 9.1875V8.875C15.882 8 15.1945 7.3125 14.3195 7.3125C13.4445 7.3125 12.757 8 12.757 8.875V9.1875C12.007 9.0625 11.3195 8.875 10.8195 8.6875C10.382 8.5625 9.88201 8.625 9.50701 8.9375C9.13201 9.25 8.94451 9.75 9.06951 10.1875C9.31951 11.625 9.75701 13.625 10.382 15.1875C10.382 15.25 10.382 15.25 10.3195 15.3125L8.44451 23.7496C8.13201 24.9996 8.44451 26.3121 9.19451 27.3121L12.882 32.3121C13.1945 32.8746 13.757 33.1246 14.382 33.1246C15.007 33.1246 15.5695 32.8746 15.882 32.3746L19.5695 27.3746C20.3195 26.3746 20.5695 25.0621 20.3195 23.8121L18.3195 15.3125ZM18.257 9.875H18.3195L18.382 9.9375C18.132 11.4375 17.8195 12.6875 17.4445 13.75C17.007 13.3125 16.507 13.0625 15.882 12.9375V10.375C16.8195 10.3125 17.6945 10.125 18.257 9.875ZM14.382 8.5625C14.5695 8.5625 14.6945 8.6875 14.6945 8.875V12.9375H14.0695V8.875C14.0695 8.6875 14.1945 8.5625 14.382 8.5625ZM10.382 9.9375C10.4445 9.875 10.4445 9.9375 10.4445 9.9375C11.0695 10.125 11.882 10.375 12.757 10.5V13.0625C12.1945 13.1875 11.632 13.5 11.1945 13.875C10.882 12.8125 10.5695 11.5625 10.257 10.0625C10.382 10 10.382 9.9375 10.382 9.9375ZM18.5692 26.5625L14.8817 31.5625C14.6317 31.875 14.1317 31.875 13.8817 31.5625L10.1942 26.5625C9.63166 25.8125 9.44416 24.875 9.69416 24L11.6317 15.625C11.8192 14.75 12.5692 14.1875 13.4442 14.1875H15.2567C16.1317 14.1875 16.8817 14.8125 17.0692 15.625L19.0692 24.0621C19.3192 24.9371 19.1317 25.8746 18.5692 26.5621V26.5625Z" fill="black"/>
                                <path d="M13.5703 19.4375C13.6953 19.5625 13.8203 19.625 13.9453 19.6875C14.0703 19.75 14.2578 19.8125 14.4453 19.8125C14.6328 19.8125 14.8203 19.8125 14.9453 19.6875C15.0703 19.625 15.2578 19.5625 15.3203 19.4375C15.3828 19.3125 15.5078 19.1875 15.5703 19C15.6328 18.8125 15.6953 18.6875 15.6953 18.4375V17.5H13.1953V18.5C13.1953 18.6875 13.1953 18.875 13.3203 19.0625C13.3828 19.1875 13.4453 19.3125 13.5703 19.4375ZM13.6328 18.125H15.2578V18.5C15.2578 18.625 15.2578 18.6875 15.1953 18.8125C15.1328 18.9375 15.1328 19 15.0078 19.0625C14.9453 19.125 14.8828 19.1875 14.7578 19.1875C14.6328 19.25 14.5703 19.25 14.4453 19.25C14.3203 19.25 14.1953 19.25 14.1328 19.1875C14.0078 19.125 13.9453 19.125 13.8828 19.0625C13.8203 19 13.7578 18.9375 13.6953 18.8125C13.6328 18.6875 13.6328 18.625 13.6328 18.5V18.125Z" fill="black"/>
                                <path d="M13.5703 22C13.6953 22.125 13.8203 22.1875 13.9453 22.25C14.0703 22.3125 14.2578 22.375 14.4453 22.375C14.6328 22.375 14.8203 22.375 14.9453 22.25C15.0703 22.1875 15.2578 22.125 15.3203 22C15.3828 21.875 15.5078 21.75 15.5703 21.5625C15.6328 21.375 15.6953 21.25 15.6953 21V20H13.1953V21C13.1953 21.1875 13.1953 21.375 13.3203 21.5625C13.3828 21.75 13.4453 21.875 13.5703 22ZM13.6328 20.625H15.2578V21C15.2578 21.125 15.2578 21.1875 15.1953 21.3125C15.1328 21.4375 15.1328 21.5 15.0078 21.5625C14.9453 21.625 14.8828 21.6875 14.7578 21.6875C14.6328 21.75 14.5703 21.75 14.4453 21.75C14.3203 21.75 14.1953 21.75 14.1328 21.6875C14.0078 21.625 13.9453 21.625 13.8828 21.5625C13.8203 21.5 13.7578 21.4375 13.6953 21.3125C13.6328 21.1875 13.6328 21.125 13.6328 21V20.625Z" fill="black"/>
                                <path d="M15.3828 22.8125C15.2578 22.6875 15.1328 22.625 15.0078 22.5625C14.8203 22.5 14.6328 22.5 14.4453 22.5C14.2578 22.5 14.0703 22.5 13.9453 22.5625C13.8203 22.625 13.6328 22.6875 13.5078 22.8125C13.3828 22.9375 13.3203 23.0625 13.2578 23.25C13.1953 23.4375 13.1328 23.5625 13.1328 23.8125C13.1328 24 13.1953 24.1875 13.2578 24.375C13.3203 24.5625 13.3828 24.6875 13.5078 24.8125C13.6328 24.9375 13.7578 25 13.9453 25.0625C14.1328 25.125 14.2578 25.125 14.4453 25.125C14.6328 25.125 14.8203 25.125 14.9453 25.0625C15.0703 25 15.2578 24.9375 15.3203 24.8125C15.4453 24.6875 15.5078 24.5625 15.5703 24.375C15.6328 24.1875 15.6953 24.0625 15.6953 23.8125C15.6953 23.625 15.6328 23.4375 15.5703 23.25C15.5703 23.0625 15.5078 22.9375 15.3828 22.8125ZM15.1953 24.0625C15.1328 24.125 15.1328 24.25 15.0078 24.3125C14.9453 24.375 14.8828 24.4375 14.7578 24.4375C14.6328 24.5 14.5703 24.5 14.4453 24.5C14.3203 24.5 14.1953 24.5 14.1328 24.4375C14.0078 24.375 13.9453 24.375 13.8828 24.3125C13.8203 24.25 13.7578 24.1875 13.6953 24.0625C13.6328 24 13.6328 23.875 13.6328 23.75C13.6328 23.625 13.6328 23.5625 13.6953 23.4375C13.7578 23.375 13.7578 23.25 13.8828 23.1875C13.9453 23.125 14.0078 23.0625 14.1328 23.0625C14.2578 23 14.3203 23 14.4453 23C14.5703 23 14.6953 23 14.7578 23.0625C14.8828 23.125 14.9453 23.125 15.0078 23.1875C15.0703 23.25 15.1328 23.3125 15.1953 23.4375C15.2578 23.5625 15.2578 23.625 15.2578 23.75C15.2578 23.875 15.2578 24 15.1953 24.0625Z" fill="black"/>
                                <path d="M15.5078 25.5C15.4453 25.4375 15.3828 25.375 15.2578 25.3125C15.1953 25.25 15.0703 25.25 15.0078 25.25C14.8828 25.25 14.8203 25.25 14.6953 25.3125C14.6328 25.375 14.5703 25.375 14.5078 25.4375C14.4453 25.5 14.3828 25.5625 14.3828 25.625C14.3203 25.6875 14.3203 25.75 14.3203 25.8125C14.3203 25.875 14.2578 25.9375 14.2578 26C14.2578 26.0625 14.1953 26.125 14.1953 26.1875C14.1953 26.25 14.1328 26.3125 14.1328 26.3125C14.0703 26.375 14.0703 26.375 14.0078 26.375C13.8828 26.375 13.8203 26.375 13.7578 26.3125C13.6953 26.25 13.6953 26.1875 13.6953 26.0625C13.6953 26 13.6953 25.9375 13.7578 25.875C13.7578 25.8125 13.8203 25.75 13.8203 25.75C13.8203 25.6875 13.8828 25.6875 13.8828 25.625C13.8828 25.5625 13.9453 25.5625 13.9453 25.5V25.4375C13.9453 25.4375 13.9453 25.375 13.8828 25.375L13.6328 25.1875C13.5703 25.25 13.5078 25.3125 13.5078 25.375C13.5078 25.4375 13.4453 25.5 13.3828 25.5625C13.3203 25.625 13.3203 25.6875 13.3203 25.8125V26.0625C13.3203 26.1875 13.3203 26.3125 13.3828 26.4375C13.4453 26.5625 13.5078 26.625 13.5703 26.75C13.6328 26.875 13.7578 26.875 13.8203 26.9375C13.8828 27 14.0078 27 14.1328 27C14.2578 27 14.3203 27 14.3828 26.9375C14.4453 26.875 14.5078 26.875 14.5703 26.8125C14.6328 26.75 14.6953 26.6875 14.6953 26.625C14.7578 26.5625 14.7578 26.5 14.7578 26.4375C14.7578 26.375 14.8203 26.3125 14.8203 26.25C14.8203 26.1875 14.8828 26.125 14.8828 26.0625C14.8828 26 14.9453 25.9375 14.9453 25.9375C15.0078 25.875 15.0078 25.875 15.0703 25.875C15.1328 25.875 15.1953 25.875 15.2578 25.9375C15.3203 26 15.3203 26.0625 15.3203 26.1875V26.375C15.3203 26.4375 15.2578 26.4375 15.2578 26.5C15.2578 26.5625 15.1953 26.5625 15.1953 26.625V26.6875V26.75L15.2578 26.8125L15.5078 26.9375C15.5703 26.875 15.5703 26.8125 15.6328 26.8125C15.6953 26.75 15.6953 26.6875 15.6953 26.625C15.6953 26.5625 15.7578 26.5 15.7578 26.4375V26.1875C15.7578 26.0625 15.7578 25.9375 15.6953 25.8125C15.6328 25.6875 15.5703 25.5625 15.5078 25.5Z" fill="black"/>
                                <path d="M23.7578 0H25.0078V3.5625H23.7578V0Z" fill="black"/>
                                <path d="M25.8828 1.5625H27.1328V4.0625H25.8828V1.5625Z" fill="black"/>
                                <path d="M21.6328 1.5625H22.8828V4.0625H21.6328V1.5625Z" fill="black"/>
                                <path d="M8.69531 15.9375L7.32031 10.125C7.63281 9.3125 7.94531 8.25 8.19531 6.9375C8.25781 6.5 8.13281 6.0625 7.82031 5.75C7.50781 5.4375 7.07031 5.375 6.63281 5.5C6.38281 5.5625 6.19531 5.625 5.94531 5.6875C5.82031 5 5.19531 4.4375 4.44531 4.4375C3.69531 4.4375 3.07031 4.9375 2.94531 5.6875C2.75781 5.625 2.50781 5.5625 2.25781 5.5C1.82031 5.375 1.38281 5.5 1.07031 5.75C0.632813 6 0.507812 6.4375 0.570312 6.875C0.820313 8.1875 1.13281 9.25 1.44531 10.0625L0.0703125 15.875C-0.117188 16.8125 0.0703125 17.75 0.632812 18.5L3.19531 22C3.50781 22.375 3.94531 22.625 4.38281 22.625C4.88281 22.625 5.32031 22.375 5.57031 22L8.13281 18.5C8.69531 17.8125 8.88281 16.8125 8.69531 15.9375ZM6.94531 6.62464C6.75781 7.43714 6.63281 8.12464 6.44531 8.74964C6.32031 8.62464 6.13281 8.56214 5.94531 8.49964V6.87464C6.25781 6.81214 6.57031 6.74964 6.94531 6.62464ZM4.38281 5.62464C4.57031 5.62464 4.69531 5.74964 4.69531 5.93714V8.24964H4.07031V5.93714C4.07031 5.74964 4.19531 5.62464 4.38281 5.62464ZM2.82031 6.87464V8.49964C2.63281 8.56214 2.50781 8.62464 2.32031 8.74964C2.13281 8.12464 1.94531 7.43714 1.82031 6.62464C2.19531 6.74964 2.50781 6.81214 2.82031 6.87464ZM7.13281 17.8118L4.57031 21.3118C4.50781 21.3743 4.44531 21.4368 4.38281 21.4368C4.32031 21.4368 4.25781 21.4368 4.19531 21.3118L1.63281 17.8118C1.32031 17.3743 1.19531 16.7493 1.32031 16.1868L2.69531 10.3743C2.82031 9.87429 3.25781 9.49929 3.75781 9.49929H5.00781C5.50781 9.49929 5.94531 9.87429 6.07031 10.3743L7.44531 16.1868C7.57031 16.7493 7.44531 17.3743 7.13281 17.8118Z" fill="black"/>
                                <path d="M3.75781 0H5.00781V3.5625H3.75781V0Z" fill="black"/>
                                <path d="M1.63281 1.5625H2.88281V4.0625H1.63281V1.5625Z" fill="black"/>
                                <path d="M5.88281 1.5625H7.13281V4.0625H5.88281V1.5625Z" fill="black"/>
                                </svg>