<svg width="38" height="38" viewBox="0 0 24 20" fill="none" xmlns="http://www.w3.org/2000/svg">
                                            <path d="M19.1608 11.3301H10.2031C10.2031 11.3706 10.2235 11.4111 10.2235 11.4516V11.938H18.5732V13.3567L10.2235 13.3569V13.9648H19.1812V11.3301L19.1608 11.3301Z" fill="black"></path>
                                            <path d="M9.60981 11.9364V11.45C9.60981 11.4095 9.60981 11.369 9.58945 11.3285C9.52859 10.8219 9.16386 10.3963 8.67739 10.2746V9.44352C8.67739 8.63282 8.02895 7.98438 7.23839 7.98438C6.44804 7.98438 5.79938 8.63282 5.79938 9.44352V10.2746C5.27243 10.3961 4.86719 10.8825 4.86719 11.45V15.0574H9.62989V13.3551L9.6301 11.9364L9.60981 11.9364ZM6.38746 9.42339C6.38746 8.9573 6.77255 8.57219 7.21852 8.57219C7.68461 8.57219 8.04958 8.95728 8.04958 9.42339V10.2137H6.36737V9.42339H6.38746ZM7.52236 13.6186H6.91441V11.673H7.52236V13.6186Z" fill="black"></path>
                                            <path d="M22.8466 0.365234H1.16163C0.553687 0.365234 0.046875 0.871828 0.046875 1.47999V18.5241C0.046875 19.132 0.55347 19.6388 1.16163 19.6388H22.8466C23.4546 19.6388 23.9614 19.1322 23.9614 18.5241L23.9612 1.47999C23.9612 0.871828 23.4546 0.365234 22.8466 0.365234ZM7.36269 3.02013C7.36269 3.36472 7.07896 3.64843 6.73439 3.64843C6.38981 3.64843 6.12644 3.3647 6.12644 3.02013C6.12644 2.67554 6.41017 2.39183 6.75474 2.39183C7.09912 2.39183 7.36269 2.67556 7.36269 3.02013ZM5.33588 3.02013C5.33588 3.36472 5.05215 3.64843 4.70758 3.64843C4.3632 3.64843 4.09963 3.3647 4.09963 3.02013C4.09963 2.67554 4.38336 2.39183 4.72793 2.39183C5.07251 2.39183 5.33588 2.67556 5.33588 3.02013ZM2.70134 2.39183C3.04593 2.39183 3.32964 2.67556 3.32964 3.02013C3.32964 3.36472 3.04591 3.64843 2.70134 3.64843C2.35676 3.64843 2.07304 3.3647 2.07304 3.02013C2.07304 2.67554 2.35676 2.39183 2.70134 2.39183ZM23.3533 18.5445C23.3533 18.8283 23.1304 19.0511 22.8467 19.0511H1.16169C0.877957 19.0511 0.655092 18.8283 0.655092 18.5445L0.65488 5.35094H23.3534L23.3533 18.5445Z" fill="black"></path>
                                        </svg>