<svg width="38" height="38" viewBox="0 0 24 29" fill="none" xmlns="http://www.w3.org/2000/svg">
<path d="M23.4141 5.48851L12.4141 0.488506C12.1511 0.368415 11.85 0.368415 11.587 0.488506L0.587028 5.48851C0.228994 5.65056 0 6.00659 0 6.39856V9.22268C0 15.2947 2.68503 20.9958 7.36629 24.8644L11.3623 28.1693C11.5473 28.3213 11.7732 28.3983 12.0002 28.3983C12.2272 28.3983 12.4522 28.3224 12.6373 28.1693L16.6343 24.8653C21.3151 20.9954 24.0001 15.2944 24.0001 9.22245V6.39833C24.0001 6.00637 23.771 5.65033 23.4141 5.48828L23.4141 5.48851ZM22 9.22268C22 14.6956 19.5799 19.8358 15.36 23.3238L11.9999 26.1017L8.64103 23.3238C4.42006 19.8359 1.99989 14.6958 1.99989 9.22268V7.04279L11.9999 2.49771L21.9999 7.04279L22 9.22268Z" fill="black"/>
<path d="M11.5661 4.49732L3.56607 8.35424C3.22009 8.5212 3 8.8712 3 9.25515C3 14.4632 5.37588 19.3592 9.52 22.6872L11.374 24.1771C11.5568 24.3242 11.7778 24.3983 11.9999 24.3983C12.222 24.3983 12.443 24.3242 12.6258 24.1773L14.4798 22.6874C18.6239 19.3583 20.9998 14.4622 20.9998 9.25537C20.9998 8.87144 20.7797 8.52143 20.4348 8.35446L12.4348 4.49754C12.1598 4.3654 11.8397 4.3654 11.5658 4.49754L11.5661 4.49732ZM18.9872 9.87721C18.8062 14.2413 16.7303 18.3144 13.2284 21.1281L12.0002 22.1151L10.7724 21.1281C7.27035 18.3151 5.19333 14.2424 5.01235 9.87721L12.0004 6.50824L18.9872 9.87721Z" fill="black"/>
<path d="M10.7074 11.692C10.3163 11.3009 9.6844 11.3009 9.29331 11.692C8.90222 12.083 8.90224 12.7149 9.29331 13.106L11.2933 15.106C11.4884 15.3009 11.7444 15.3989 12.0005 15.3989C12.2565 15.3989 12.5125 15.3009 12.7074 15.1058L16.7074 11.1058C17.0984 10.7147 17.0984 10.0828 16.7074 9.69175C16.3163 9.30066 15.6844 9.30067 15.2933 9.69175L12.0005 12.9848L10.7074 11.692Z" fill="black"/>
</svg>