<svg width="38" height="38" viewBox="0 0 24 24" fill="none" xmlns="http://www.w3.org/2000/svg">
                                            <path d="M23.4723 12.5763V12.1513V11.8113L19.9023 10.9613L19.0948 7.60383C19.3073 7.05133 19.5198 6.32883 19.6898 5.43633C19.7323 5.13883 19.6473 4.84133 19.4348 4.62883C19.2223 4.41633 18.9248 4.37383 18.6273 4.45883C18.4573 4.50133 18.3298 4.54383 18.1598 4.58633C18.0748 4.11883 17.6498 3.73633 17.1398 3.73633C16.6298 3.73633 16.2048 4.07633 16.1198 4.58633C15.9923 4.54383 15.8223 4.50133 15.6523 4.45883C15.3548 4.37383 15.0573 4.45883 14.8448 4.62883C14.5473 4.79883 14.4623 5.09633 14.5473 5.39383C14.7173 6.28633 14.9298 7.00883 15.1423 7.56133L14.2073 11.5138C14.0373 12.1513 14.2073 12.7888 14.5473 13.2988L16.1623 15.5088C16.5873 16.7413 17.4798 18.0163 19.4773 18.9513L19.6473 19.0363L19.8173 18.9513C23.5573 17.2088 23.5148 14.3188 23.4723 12.5763ZM18.1596 5.39359C18.3721 5.35109 18.5846 5.30859 18.8396 5.22359C18.7121 5.77609 18.6271 6.24359 18.4996 6.66859C18.4146 6.58359 18.2871 6.54109 18.1596 6.49859V5.39359ZM16.8846 4.75609C16.8846 4.62859 16.9696 4.54359 17.0971 4.54359C17.2246 4.54359 17.3096 4.62859 17.3096 4.75609V6.32859H16.8846V4.75609ZM16.0346 5.39359V6.49859C15.9071 6.54109 15.8221 6.62609 15.6946 6.66859C15.5671 6.24359 15.4396 5.77609 15.3546 5.22359C15.6096 5.30859 15.8221 5.35109 16.0346 5.39359ZM19.6471 18.1436C16.5871 16.6136 16.6296 14.3186 16.6721 12.5763V12.4913L19.6471 11.7688L22.6221 12.4913V12.5763C22.6221 14.2763 22.7071 16.6138 19.6471 18.1436Z" fill="black"></path>
                                            <path d="M19.6031 14.8722L18.8806 14.1922L18.3281 14.8297L19.6456 16.0197L21.5156 14.1497L20.8781 13.5547L19.6031 14.8722Z" fill="black"></path>
                                            <path d="M12.9765 11.1314C12.9765 11.0889 12.9765 11.0889 12.934 11.0464C13.359 10.0264 13.6565 8.66641 13.8265 7.64641C13.869 7.30641 13.784 7.00891 13.529 6.79641C13.274 6.58391 12.9765 6.49891 12.6365 6.62641C12.2965 6.75391 11.829 6.88141 11.319 6.96641V6.75391C11.319 6.15891 10.8515 5.69141 10.2565 5.69141C9.66149 5.69141 9.19399 6.15891 9.19399 6.75391V6.96641C8.68399 6.88141 8.21649 6.75391 7.87649 6.62641C7.57899 6.54141 7.23899 6.58391 6.98399 6.79641C6.72899 7.00891 6.60149 7.34891 6.68649 7.64641C6.85649 8.62391 7.19649 9.98391 7.57899 11.0464C7.57899 11.0889 7.57899 11.0889 7.53649 11.1314L6.26149 16.8687C6.04899 17.7187 6.26149 18.6112 6.77149 19.2912L9.27899 22.6912C9.53399 23.0312 9.87399 23.2437 10.299 23.2437C10.724 23.2437 11.064 23.0312 11.319 22.7337L13.8265 19.3337C14.3365 18.6112 14.5065 17.7612 14.3365 16.9112L12.9765 11.1314ZM10.0865 6.75391C10.0865 6.62641 10.1715 6.54141 10.299 6.54141C10.4265 6.54141 10.5115 6.62641 10.5115 6.75391V9.51641H10.0865V6.75391ZM13.1465 18.7812L10.639 22.1812C10.469 22.3937 10.129 22.3937 9.95899 22.1812L7.45149 18.7812C7.06899 18.2712 6.94149 17.6337 7.11149 17.0387L8.42899 11.3437C8.55649 10.7487 9.06649 10.3662 9.66149 10.3662H10.894C11.489 10.3662 11.999 10.7912 12.1265 11.3437L13.4865 17.0809C13.6565 17.6759 13.4865 18.3134 13.1465 18.7809V18.7812Z" fill="black"></path>
                                            <path d="M9.74719 13.9366C9.83219 14.0216 9.91719 14.0641 10.0022 14.1066C10.0872 14.1491 10.2147 14.1916 10.3422 14.1916C10.4697 14.1916 10.5972 14.1916 10.6822 14.1066C10.7672 14.0641 10.8947 14.0216 10.9372 13.9366C10.9797 13.8516 11.0647 13.7666 11.1072 13.6391C11.1497 13.5116 11.1922 13.4266 11.1922 13.2566V12.6191H9.49219V13.2991C9.49219 13.4266 9.49219 13.5541 9.57719 13.6816C9.61969 13.7666 9.66219 13.8516 9.74719 13.9366ZM9.78969 13.0441H10.8947V13.2991C10.8947 13.3841 10.8947 13.4266 10.8522 13.5116C10.8097 13.5966 10.8097 13.6391 10.7247 13.6816C10.6822 13.7241 10.6397 13.7666 10.5547 13.7666C10.4697 13.8091 10.4272 13.8091 10.3422 13.8091C10.2572 13.8091 10.1722 13.8091 10.1297 13.7666C10.0447 13.7241 10.0022 13.7241 9.95969 13.6816C9.91719 13.6391 9.87469 13.5966 9.83219 13.5116C9.78969 13.4266 9.78969 13.3841 9.78969 13.2991V13.0441Z" fill="black"></path>
                                            <path d="M9.74719 15.6784C9.83219 15.7634 9.91719 15.8059 10.0022 15.8484C10.0872 15.8909 10.2147 15.9334 10.3422 15.9334C10.4697 15.9334 10.5972 15.9334 10.6822 15.8484C10.7672 15.8059 10.8947 15.7634 10.9372 15.6784C10.9797 15.5934 11.0647 15.5084 11.1072 15.3809C11.1497 15.2534 11.1922 15.1684 11.1922 14.9984V14.3184H9.49219V14.9984C9.49219 15.1259 9.49219 15.2534 9.57719 15.3809C9.61969 15.5084 9.66219 15.5934 9.74719 15.6784ZM9.78969 14.7434H10.8947V14.9984C10.8947 15.0834 10.8947 15.1259 10.8522 15.2109C10.8097 15.2959 10.8097 15.3384 10.7247 15.3809C10.6822 15.4234 10.6397 15.4659 10.5547 15.4659C10.4697 15.5084 10.4272 15.5084 10.3422 15.5084C10.2572 15.5084 10.1722 15.5084 10.1297 15.4659C10.0447 15.4234 10.0022 15.4234 9.95969 15.3809C9.91719 15.3384 9.87469 15.2959 9.83219 15.2109C9.78969 15.1259 9.78969 15.0834 9.78969 14.9984V14.7434Z" fill="black"></path>
                                            <path d="M10.9753 16.232C10.8903 16.147 10.8053 16.1045 10.7203 16.062C10.5928 16.0195 10.4653 16.0195 10.3378 16.0195C10.2103 16.0195 10.0828 16.0195 9.99781 16.062C9.91281 16.1045 9.78531 16.147 9.70031 16.232C9.61531 16.317 9.57281 16.402 9.53031 16.5295C9.48781 16.657 9.44531 16.742 9.44531 16.912C9.44531 17.0395 9.48781 17.167 9.53031 17.2945C9.57281 17.422 9.61531 17.507 9.70031 17.592C9.78531 17.677 9.87031 17.7195 9.99781 17.762C10.1253 17.8045 10.2103 17.8045 10.3378 17.8045C10.4653 17.8045 10.5928 17.8045 10.6778 17.762C10.7628 17.7195 10.8903 17.677 10.9328 17.592C11.0178 17.507 11.0603 17.422 11.1028 17.2945C11.1453 17.167 11.1878 17.082 11.1878 16.912C11.1878 16.7845 11.1453 16.657 11.1028 16.5295C11.1028 16.402 11.0603 16.317 10.9753 16.232ZM10.8478 17.082C10.8053 17.1245 10.8053 17.2095 10.7203 17.252C10.6778 17.2945 10.6353 17.337 10.5503 17.337C10.4653 17.3795 10.4228 17.3795 10.3378 17.3795C10.2528 17.3795 10.1678 17.3795 10.1253 17.337C10.0403 17.2945 9.99781 17.2945 9.95531 17.252C9.91281 17.2095 9.87031 17.167 9.82781 17.082C9.78531 17.0395 9.78531 16.9545 9.78531 16.8695C9.78531 16.7845 9.78531 16.742 9.82781 16.657C9.87031 16.6145 9.87031 16.5295 9.95531 16.487C9.99781 16.4445 10.0403 16.402 10.1253 16.402C10.2103 16.3595 10.2528 16.3595 10.3378 16.3595C10.4228 16.3595 10.5078 16.3595 10.5503 16.402C10.6353 16.4445 10.6778 16.4445 10.7203 16.487C10.7628 16.5295 10.8053 16.572 10.8478 16.657C10.8903 16.742 10.8903 16.7845 10.8903 16.8695C10.8903 16.9545 10.8903 17.0395 10.8478 17.082Z" fill="black"></path>
                                            <path d="M11.0656 18.0582C11.0231 18.0157 10.9806 17.9732 10.8956 17.9307C10.8531 17.8882 10.7681 17.8882 10.7256 17.8882C10.6406 17.8882 10.5981 17.8882 10.5131 17.9307C10.4706 17.9732 10.4281 17.9732 10.3856 18.0157C10.3431 18.0582 10.3006 18.1007 10.3006 18.1432C10.2581 18.1857 10.2581 18.2282 10.2581 18.2707C10.2581 18.3132 10.2156 18.3557 10.2156 18.3982C10.2156 18.4407 10.1731 18.4832 10.1731 18.5257C10.1731 18.5682 10.1306 18.6107 10.1306 18.6107C10.0881 18.6532 10.0881 18.6532 10.0456 18.6532C9.96063 18.6532 9.91813 18.6532 9.87563 18.6107C9.83312 18.5682 9.83312 18.5257 9.83312 18.4407C9.83312 18.3982 9.83312 18.3557 9.87563 18.3132C9.87563 18.2707 9.91813 18.2282 9.91813 18.2282C9.91813 18.1857 9.96063 18.1857 9.96063 18.1432C9.96063 18.1007 10.0031 18.1007 10.0031 18.0582V18.0157C10.0031 18.0157 10.0031 17.9732 9.96063 17.9732L9.79063 17.8457C9.74813 17.8882 9.70562 17.9307 9.70562 17.9732C9.70562 18.0157 9.66313 18.0582 9.62063 18.1007C9.57812 18.1432 9.57812 18.1857 9.57812 18.2707V18.4407C9.57812 18.5257 9.57812 18.6107 9.62063 18.6957C9.66313 18.7807 9.70562 18.8232 9.74813 18.9082C9.79063 18.9932 9.87563 18.9932 9.91813 19.0357C9.96063 19.0782 10.0456 19.0782 10.1306 19.0782C10.2156 19.0782 10.2581 19.0782 10.3006 19.0357C10.3431 18.9932 10.3856 18.9932 10.4281 18.9507C10.4706 18.9082 10.5131 18.8657 10.5131 18.8232C10.5556 18.7807 10.5556 18.7382 10.5556 18.6957C10.5556 18.6532 10.5981 18.6107 10.5981 18.5682C10.5981 18.5257 10.6406 18.4832 10.6406 18.4407C10.6406 18.3982 10.6831 18.3557 10.6831 18.3557C10.7256 18.3132 10.7256 18.3132 10.7681 18.3132C10.8106 18.3132 10.8531 18.3132 10.8956 18.3557C10.9381 18.3982 10.9381 18.4407 10.9381 18.5257V18.6532C10.9381 18.6957 10.8956 18.6957 10.8956 18.7382C10.8956 18.7807 10.8531 18.7807 10.8531 18.8232V18.8657V18.9082L10.8956 18.9507L11.0656 19.0357C11.1081 18.9932 11.1081 18.9507 11.1506 18.9507C11.1931 18.9082 11.1931 18.8657 11.1931 18.8232C11.1931 18.7807 11.2356 18.7382 11.2356 18.6957V18.5257C11.2356 18.4407 11.2356 18.3557 11.1931 18.2707C11.1506 18.1857 11.1081 18.1007 11.0656 18.0582Z" fill="black"></path>
                                            <path d="M16.6719 0.71875H17.5219V3.14125H16.6719V0.71875Z" fill="black"></path>
                                            <path d="M18.1172 1.78125H18.9672V3.48125H18.1172V1.78125Z" fill="black"></path>
                                            <path d="M15.2266 1.78125H16.0766V3.48125H15.2266V1.78125Z" fill="black"></path>
                                            <path d="M6.43169 11.5563L5.49669 7.60383C5.70919 7.05133 5.92169 6.32883 6.09169 5.43633C6.13419 5.13883 6.04919 4.84133 5.83669 4.62883C5.62419 4.41633 5.32669 4.37383 5.02919 4.45883C4.85919 4.50133 4.73169 4.54383 4.56169 4.58633C4.47669 4.11883 4.05169 3.73633 3.54169 3.73633C3.03169 3.73633 2.60669 4.07633 2.52169 4.58633C2.39419 4.54383 2.22419 4.50133 2.05419 4.45883C1.75669 4.37383 1.45919 4.45883 1.24669 4.62883C0.949192 4.79883 0.864192 5.09633 0.906692 5.39383C1.07669 6.28633 1.28919 7.00883 1.50169 7.56133L0.566692 11.5138C0.396692 12.1513 0.566692 12.7888 0.906692 13.2988L2.64919 15.6788C2.86169 15.9338 3.15919 16.1038 3.45669 16.1038C3.75419 16.1038 4.09419 15.9338 4.26419 15.6788L6.00669 13.2988C6.43169 12.8313 6.55919 12.1938 6.43169 11.5563ZM4.56169 5.39359C4.77419 5.35109 4.98669 5.30859 5.24169 5.22359C5.11419 5.77609 5.02919 6.24359 4.90169 6.66859C4.81669 6.58359 4.68919 6.54109 4.56169 6.49859V5.39359ZM3.28669 4.75609C3.28669 4.62859 3.37169 4.54359 3.49919 4.54359C3.62669 4.54359 3.71169 4.62859 3.71169 4.75609V6.32859H3.28669V4.75609ZM2.43669 5.39359V6.49859C2.30919 6.54109 2.22419 6.58359 2.09669 6.66859C1.96919 6.24359 1.84169 5.77609 1.75669 5.22359C2.01169 5.30859 2.22419 5.35109 2.43669 5.39359Z" fill="black"></path>
                                            <path d="M3.07031 0.71875H3.92031V3.14125H3.07031V0.71875Z" fill="black"></path>
                                            <path d="M1.63281 1.78125H2.48281V3.48125H1.63281V1.78125Z" fill="black"></path>
                                            <path d="M4.51562 1.78125H5.36563V3.48125H4.51562V1.78125Z" fill="black"></path>
                                        </svg>