<svg width="38" height="38" viewBox="0 0 28 25" fill="none" xmlns="http://www.w3.org/2000/svg">
<path d="M1.35344 23.6718C1.53635 24.4379 2.21787 24.9732 3.01036 24.9732H24.9559C25.7484 24.9732 26.43 24.4379 26.6126 23.6726L27.1659 21.3774C27.2274 21.1228 27.0342 20.8763 26.7713 20.8763H26.3743V7.55608C26.3743 6.70759 25.6841 6.01753 24.8358 6.01753H24.6288V0.99185L3.33994 0.99166C3.33956 1.50564 3.34146 -0.869986 3.33576 6.01734H3.12877C2.28256 6.01734 1.59401 6.70759 1.59401 7.55589V20.8761H1.19519C0.932033 20.8761 0.739078 21.1226 0.80055 21.3772L1.35344 23.6718ZM24.6289 6.82965H24.8359C25.2364 6.82965 25.5625 7.1558 25.5625 7.55633V20.8761H24.6289L24.6289 6.82965ZM4.15165 1.80396H23.8168V2.67883L11.5884 2.67997V3.49184L23.8168 3.4907V4.36557H4.15165V1.80396ZM4.14747 5.17759H23.817V20.8764H4.14747V5.17759ZM16.1466 21.6924L16.1395 22.3073L11.8152 22.2955V21.6924L16.1466 21.6924ZM2.40619 7.55613C2.40619 7.15561 2.73044 6.82945 3.12888 6.82945H3.33588V20.8763H2.40617L2.40619 7.55613ZM11.0033 21.6924V22.2955C11.0033 22.7495 11.3729 23.1191 11.827 23.1191H16.1396C16.5936 23.1191 16.9632 22.7495 16.9632 22.2955V21.6924C17.2356 21.6922 25.9819 21.6886 26.2559 21.6884L25.8231 23.4832C25.7278 23.8824 25.3712 24.1613 24.9559 24.1613L3.01079 24.1615C2.59547 24.1615 2.23894 23.8826 2.14336 23.4826L1.71077 21.6885C2.66092 21.6887 -1.73134 21.687 11.0035 21.6923L11.0033 21.6924Z" fill="black"/>
<path d="M22.9221 5.99023H5.03906V20.0653H22.9221V5.99023ZM22.1102 19.2531H5.85093V6.80235H22.1102V19.2531Z" fill="black"/>
<path d="M8.82812 2.67969H9.76958V3.49156H8.82812V2.67969Z" fill="black"/>
<path d="M6.95312 2.67969H7.89458V3.49156H6.95312V2.67969Z" fill="black"/>
<path d="M5.07031 2.67969H6.01177V3.49156H5.07031V2.67969Z" fill="black"/>
<path d="M9.41558 14.5062H11.9034L12.4115 15.6867H13.562L11.119 10.3672H10.1776L7.73438 15.6867H8.90747L9.41558 14.5062ZM10.6633 11.6225L11.5224 13.6171H9.804L10.6633 11.6225Z" fill="black"/>
<path d="M15.189 13.5349H16.4367C17.4933 13.5349 18.2968 13.009 18.2968 11.9511C18.2968 10.8906 17.5121 10.3672 16.4367 10.3672H14.0234V15.6867H15.189V13.5349ZM15.189 11.2638H16.2871C16.8946 11.2638 17.1986 11.4953 17.1986 11.9586C17.1986 12.417 16.8947 12.6458 16.2871 12.6458H15.189V11.2638Z" fill="black"/>
<path d="M19.0625 10.3672H20.228V15.6867H19.0625V10.3672Z" fill="black"/>
</svg>