<svg width="38" height="38" viewBox="0 0 30 34" fill="none" xmlns="http://www.w3.org/2000/svg">
                            <path d="M15.0032 0.351562L14.0767 1.01425L13.1278 1.62868L12.1434 2.20129L11.1397 2.72886L10.1103 3.20818L9.05836 3.63925L7.99035 4.02528L6.90625 4.35983L5.80928 4.64292L4.69623 4.87776L3.57353 5.0579L2.44761 5.18658L1.31526 5.267L0.179688 5.29274L0.205423 6.66636L0.289063 8.03676L0.42739 9.40395L0.623621 10.7647L0.874541 12.1158L1.17693 13.454L1.53401 14.7794L1.94577 16.0887L2.40901 17.3819L2.92693 18.6558L3.49632 19.9072L4.11397 21.1328L4.77987 22.3359L5.49403 23.5069L6.25643 24.6489L7.0671 25.7619L7.91958 26.8396L8.81388 27.8787L9.75 28.8824L10.7279 29.8506L11.7445 30.7739L12.7964 31.6585L13.8837 32.4982L15.0032 33.2927L16.1227 32.4982L17.21 31.6585L18.2619 30.7739L19.2785 29.8506L20.2564 28.8824L21.1926 27.8787L22.0869 26.8396L22.9393 25.7619L23.7468 24.6489L24.5092 23.5069L25.2266 22.3359L25.8925 21.1328L26.5101 19.9072L27.0795 18.6558L27.5942 17.3819L28.0574 16.0887L28.4692 14.7794L28.8295 13.454L29.1351 12.1158L29.3828 10.7647L29.579 9.40395L29.7174 8.03676L29.801 6.66636L29.8267 5.29274L28.6912 5.267L27.5588 5.18658L26.4329 5.0579L25.3102 4.87776L24.1972 4.64292L23.1002 4.35983L22.0161 4.02528L20.9449 3.63925L19.8961 3.20818L18.8667 2.72886L17.8598 2.20129L16.8787 1.62868L15.9265 1.01425L15.0032 0.351562ZM15.0032 2.375L15.9876 3.01195L16.9977 3.60386L18.0303 4.15395L19.0919 4.65579L20.1696 5.10616L21.2698 5.51149L22.386 5.86857L23.5184 6.17096L24.6604 6.42831L25.812 6.63097L26.9733 6.78539L28.1411 6.88833L28.051 8.18474L27.9063 9.47794L27.7132 10.7679L27.4655 12.045L27.1664 13.3125L26.8157 14.5671L26.4168 15.8024L25.9697 17.0248L25.4678 18.2279L24.9242 19.4085L24.329 20.5666L23.6889 21.699L23.0005 22.8056L22.2734 23.8865L21.5014 24.932L20.6875 25.9485L19.8318 26.9297L18.9375 27.8755L18.0078 28.7858L17.0395 29.6544L16.0358 30.4876L15.0032 31.279L13.9706 30.4876L12.9669 29.6544L12.0018 28.7858L11.0689 27.8755L10.1746 26.9297L9.31893 25.9485L8.50827 24.932L7.733 23.8865L7.00597 22.8056L6.31756 21.699L5.67739 20.5666L5.08548 19.4085L4.53539 18.2279L4.03998 17.0248L3.58961 15.8024L3.19072 14.5671L2.84007 13.3125L2.5409 12.045L2.2932 10.7679L2.10018 9.47794L1.95542 8.18474L1.86535 6.88833L3.02987 6.78539L4.19118 6.63097L5.34605 6.42831L6.49127 6.17096L7.62041 5.86857L8.73667 5.51149L9.83686 5.10616L10.9145 4.65579L11.9761 4.15395L13.0119 3.60386L14.0188 3.01195L15.0032 2.375ZM21.6043 11.051C21.3906 11.0569 21.1876 11.1458 21.0381 11.2987L13.3851 18.9517L10.6733 16.2399C9.89707 15.4315 8.70035 16.6282 9.50873 17.4044L12.8029 20.6985C13.1245 21.02 13.6458 21.02 13.9674 20.6985L22.2027 12.4632C22.7384 11.9395 22.3533 11.0305 21.6043 11.051Z" fill="#222222"/>
                            </svg>