<svg width="38" height="38" viewBox="0 0 28 28" fill="none" xmlns="http://www.w3.org/2000/svg">
                                            <path d="M17.2907 0.388672C11.6011 0.388672 6.97268 5.01947 6.97268 10.7116C6.97268 13.0252 7.73748 15.1636 9.02749 16.8869L7.83638 18.0784L7.45331 17.6952C7.41289 17.6548 7.35787 17.632 7.30057 17.632C7.24327 17.632 7.18844 17.6548 7.14784 17.6952L1.07544 23.771C0.20402 24.643 0.20402 26.0616 1.07544 26.9334L1.07601 26.934C1.49835 27.3563 2.05997 27.5889 2.65759 27.5889H2.65797C3.25545 27.5889 3.81723 27.3561 4.23975 26.9334L10.3112 20.8595C10.3954 20.7753 10.3954 20.6387 10.3112 20.5543L9.92792 20.1708L11.119 18.9791C12.8414 20.2695 14.9788 21.0347 17.2915 21.0347C22.9812 21.0347 27.6095 16.4039 27.6095 10.7118C27.6091 5.02017 22.9804 0.389372 17.291 0.389372L17.2907 0.388672ZM3.93405 26.6279C3.5931 26.9689 3.13981 27.1569 2.65774 27.1569H2.65755C2.17544 27.1569 1.72216 26.9693 1.38143 26.6283L1.38086 26.6278C0.677692 25.924 0.677692 24.7792 1.38086 24.0757L5.69347 19.761L8.24556 22.3144L3.93405 26.6279ZM8.55062 22.0093L5.99853 19.4559L7.30049 18.1532L9.85258 20.7066L8.55062 22.0093ZM9.6222 19.8651L8.14155 18.3837L9.29551 17.2291C9.73797 17.7714 10.2341 18.2679 10.7762 18.7104L9.6222 19.8651ZM17.2907 20.6028C11.8395 20.6028 7.40443 16.1657 7.40443 10.7117C7.40443 5.25772 11.8394 0.820618 17.2907 0.820618C22.7419 0.820618 27.1769 5.25772 27.1769 10.7117C27.1769 16.1657 22.7417 20.6028 17.2907 20.6028ZM17.2907 1.90473C12.4367 1.90473 8.48806 5.85553 8.48806 10.7117C8.48806 15.5677 12.437 19.5187 17.2907 19.5187C22.1444 19.5187 26.0933 15.5679 26.0933 10.7117C26.0933 5.85568 22.1444 1.90473 17.2907 1.90473ZM17.2907 19.0869C12.6749 19.0869 8.91986 15.3298 8.91986 10.7117C8.91986 6.09363 12.675 2.33653 17.2907 2.33653C21.9063 2.33653 25.6615 6.09363 25.6615 10.7117C25.6615 15.3298 21.9063 19.0869 17.2907 19.0869ZM21.0422 9.25213V7.42711C21.0422 5.35753 19.3591 3.67385 17.2905 3.67385C15.2218 3.67385 13.5387 5.35753 13.5387 7.42711V8.18507C13.5387 8.30422 13.6353 8.40098 13.7546 8.40098H15.2698C15.389 8.40098 15.4857 8.30441 15.4857 8.18507L15.4859 7.42711C15.4859 6.43159 16.2955 5.62161 17.2904 5.62161C18.2854 5.62161 19.095 6.43159 19.095 7.42711V9.23261H13.755C13.0786 9.23261 12.5284 9.78282 12.5284 10.4592V15.5126C12.5284 16.189 13.0786 16.7392 13.755 16.7392H20.8256C21.502 16.7392 22.0522 16.189 22.0522 15.5126V10.4592C22.0524 9.85685 21.6156 9.35481 21.0422 9.25213ZM17.2907 5.18976C16.0576 5.18976 15.0543 6.19344 15.0543 7.42706V7.96931H13.9707V7.42706C13.9707 5.59558 15.4601 4.10541 17.2907 4.10541C19.1212 4.10541 20.6106 5.59538 20.6106 7.42706V9.23256H19.527V7.42706C19.5268 6.19344 18.5237 5.18976 17.2907 5.18976ZM21.6207 15.5126C21.6207 15.9509 21.2642 16.3076 20.8257 16.3076L13.7552 16.3074C13.3169 16.3074 12.9602 15.9509 12.9602 15.5125V10.4591C12.9602 10.0208 13.3167 9.66412 13.7552 9.66412H20.8257C21.264 9.66412 21.6207 10.0206 21.6207 10.4591V15.5126ZM17.2907 12.2646C16.7539 12.2646 16.3171 12.7016 16.3171 13.2385C16.3171 13.7013 16.6418 14.0889 17.0748 14.1874V15.5125C17.0748 15.6316 17.1713 15.7284 17.2907 15.7284C17.4098 15.7284 17.5066 15.6318 17.5066 15.5125V14.1874C17.9397 14.0887 18.2642 13.7011 18.2642 13.2385C18.2642 12.7016 17.8274 12.2646 17.2907 12.2646ZM17.2907 13.7808C16.992 13.7808 16.7488 13.5376 16.7488 13.2387C16.7488 12.9397 16.9918 12.6967 17.2907 12.6967C17.5893 12.6967 17.8323 12.9399 17.8323 13.2387C17.8323 13.5376 17.5893 13.7808 17.2907 13.7808Z" fill="black"></path>
                                        </svg>