<svg width="40" height="40"
                                            viewBox="0 0 28 28" fill="none" xmlns="http://www.w3.org/2000/svg">
                                            <path
                                                d="M16.7573 27.1902H1.95707C1.64799 27.1902 1.35163 27.0676 1.13267 26.8494C0.913716 26.6312 0.790199 26.3352 0.789062 26.0262V24.646C0.789062 24.4252 0.96817 24.2461 1.18902 24.2461H7.51302C7.66367 24.2467 7.80122 24.3317 7.86896 24.4662L8.13287 24.9862H10.5808L10.8447 24.4662H10.8449C10.9128 24.3317 11.0504 24.2467 11.201 24.2461H17.525C17.6311 24.2461 17.7328 24.2882 17.8079 24.3633C17.8828 24.4383 17.925 24.54 17.925 24.646V26.0262C17.9238 26.3352 17.8003 26.6312 17.5816 26.8494C17.3626 27.0676 17.0661 27.1902 16.757 27.1902H16.7573ZM1.58938 25.0462V26.0261C1.58938 26.2271 1.75236 26.39 1.95329 26.39H16.7535C16.9552 26.39 17.1193 26.2278 17.1214 26.0261V25.0462H11.4497L11.1896 25.5901C11.1201 25.7243 10.9809 25.8079 10.8296 25.806H7.88559C7.73589 25.8064 7.59852 25.7231 7.52965 25.5901L7.26573 25.0661L1.58938 25.0462Z"
                                                fill="black" />
                                            <path
                                                d="M16.6804 25.0455C16.4595 25.0455 16.2804 24.8664 16.2804 24.6454V15.8734C16.2804 15.729 16.2231 15.5907 16.121 15.4886C16.0191 15.3867 15.8806 15.3294 15.7364 15.3294H2.98449C2.68414 15.3294 2.44054 15.5728 2.44054 15.8733V24.6453C2.44054 24.8664 2.26143 25.0455 2.04058 25.0455C1.81973 25.0455 1.64062 24.8664 1.64062 24.6453V15.8733C1.64062 15.5168 1.78217 15.1749 2.03413 14.923C2.28629 14.6708 2.62816 14.5293 2.98448 14.5293H15.7364C16.0925 14.5304 16.4337 14.6724 16.6857 14.9241C16.9374 15.1759 17.0793 15.5172 17.0805 15.8734V24.6454C17.0805 24.7516 17.0382 24.8533 16.9632 24.9283C16.8883 25.0034 16.7864 25.0455 16.6804 25.0455Z"
                                                fill="black" />
                                            <path
                                                d="M11.7874 23.2253H6.9314C6.71036 23.2253 6.53125 23.0462 6.53125 22.8253V21.6253C6.53125 21.2454 6.68228 20.8814 6.95075 20.6127C7.21922 20.3442 7.58349 20.1934 7.96336 20.1934H10.7634C11.1431 20.1934 11.5073 20.3442 11.7758 20.6127C12.0445 20.8813 12.1953 21.2454 12.1953 21.6253V22.8253C12.1953 22.9327 12.1521 23.0357 12.0754 23.1111C11.9986 23.1862 11.8948 23.2274 11.7874 23.2253ZM7.33138 22.4254H11.3873V21.6253C11.3873 21.4577 11.3207 21.297 11.2023 21.1784C11.0837 21.0599 10.923 20.9933 10.7553 20.9933H7.95525H7.95544C7.60633 20.9933 7.32343 21.2763 7.32343 21.6253L7.33138 22.4254Z"
                                                fill="black" />
                                            <path
                                                d="M9.36104 19.8215C8.90056 19.8215 8.45907 19.6386 8.13349 19.313C7.80792 18.9874 7.625 18.5459 7.625 18.0855C7.625 17.6252 7.8079 17.1835 8.13349 16.8579C8.45907 16.5325 8.90058 16.3496 9.36104 16.3496C9.82133 16.3496 10.263 16.5325 10.5884 16.8579C10.914 17.1835 11.0969 17.6252 11.0969 18.0855C11.0969 18.5459 10.914 18.9874 10.5884 19.313C10.2631 19.6386 9.82135 19.8215 9.36104 19.8215ZM9.36104 17.1495C9.11268 17.1495 8.87455 17.2481 8.69906 17.4236C8.52356 17.5991 8.4249 17.8373 8.4249 18.0854C8.4249 18.3338 8.52356 18.5719 8.69906 18.7474C8.87456 18.9229 9.11268 19.0216 9.36104 19.0216C9.60921 19.0216 9.84734 18.9229 10.0228 18.7474C10.1983 18.5719 10.297 18.3338 10.297 18.0854C10.297 17.8373 10.1983 17.5991 10.0228 17.4236C9.84732 17.2482 9.60921 17.1495 9.36104 17.1495Z"
                                                fill="black" />
                                            <path
                                                d="M26.0229 13.4499H11.2227C10.9136 13.4499 10.6171 13.3273 10.3983 13.1092C10.1793 12.891 10.0558 12.595 10.0547 12.2859V10.906C10.0547 10.685 10.2338 10.5059 10.4546 10.5059H16.7869C16.9376 10.5064 17.0751 10.5914 17.1428 10.7259L17.4068 11.246H19.8547L20.1186 10.7259H20.1188C20.1865 10.5914 20.3242 10.5064 20.4749 10.5059H26.7868C26.8928 10.5059 26.9945 10.548 27.0694 10.6231C27.1446 10.6981 27.1867 10.7998 27.1867 10.906V12.2859C27.1856 12.5942 27.0626 12.8899 26.8446 13.1078C26.6264 13.3258 26.331 13.4488 26.0227 13.4499L26.0229 13.4499ZM10.8506 11.3059V12.2859C10.8529 12.4876 11.017 12.6498 11.2187 12.6498H26.0189C26.2198 12.6498 26.3828 12.4868 26.3828 12.2859V11.3059H20.7107L20.4467 11.83C20.3779 11.9628 20.2405 12.0463 20.0908 12.0459H17.1507C16.9995 12.0478 16.8602 11.9641 16.7908 11.83L16.5269 11.3059H10.8506Z"
                                                fill="black" />
                                            <path
                                                d="M25.9383 11.3051C25.7175 11.3051 25.5384 11.126 25.5384 10.9051V2.13313C25.5384 1.83259 25.2948 1.58917 24.9944 1.58917H12.2425C11.9421 1.58917 11.6985 1.8326 11.6985 2.13313V10.9051C11.6985 11.126 11.5194 11.3051 11.2986 11.3051C11.0775 11.3051 10.8984 11.126 10.8984 10.9051V2.13313C10.8996 1.777 11.0415 1.43569 11.2933 1.18389C11.5452 0.93212 11.8864 0.790199 12.2425 0.789062H24.9944C25.3508 0.789062 25.6927 0.930794 25.9448 1.18276C26.1968 1.43472 26.3383 1.77664 26.3383 2.13311V10.9051C26.3383 11.0112 26.2962 11.1129 26.2212 11.1878C26.1461 11.2629 26.0444 11.3051 25.9383 11.3051Z"
                                                fill="black" />
                                            <path
                                                d="M20.4189 9.86188H16.8189C16.5687 9.86188 16.3284 9.76246 16.1514 9.58544C15.9744 9.40842 15.875 9.16822 15.875 8.91797V6.11793C15.875 5.86748 15.9744 5.62745 16.1514 5.45046C16.3285 5.27346 16.5687 5.17383 16.8189 5.17383H20.4189C20.6693 5.17383 20.9093 5.27344 21.0865 5.45046C21.2636 5.62748 21.363 5.86749 21.363 6.11793V8.93793C21.3577 9.18477 21.256 9.41986 21.0795 9.59253C20.9031 9.76538 20.6659 9.86195 20.4189 9.86195L20.4189 9.86188ZM16.8189 5.95397C16.7394 5.95397 16.6749 6.01829 16.6749 6.09797V8.91798C16.6749 8.99748 16.7394 9.06199 16.8189 9.06199H20.4189C20.4986 9.06199 20.5629 8.99748 20.5629 8.91798V6.11794C20.5629 6.03844 20.4986 5.97393 20.4189 5.97393L16.8189 5.95397Z"
                                                fill="black" />
                                            <path
                                                d="M20.0819 5.95225H17.1578C16.9369 5.95225 16.7578 5.77315 16.7578 5.55211V4.0921C16.7878 3.44741 17.149 2.86397 17.7129 2.54996C18.2768 2.23595 18.9629 2.23595 19.5268 2.54996C20.0906 2.86396 20.4519 3.44741 20.4819 4.0921V5.55211C20.4819 5.65817 20.4398 5.76005 20.3646 5.835C20.2897 5.90994 20.188 5.95225 20.0819 5.95225ZM17.5579 5.15233H19.6819L19.6817 4.09211C19.6594 3.72821 19.4524 3.40109 19.1328 3.22521C18.8133 3.04933 18.4261 3.04933 18.1068 3.22521C17.7873 3.40109 17.5801 3.72817 17.5579 4.09211L17.5579 5.15233Z"
                                                fill="black" />
                                            <path
                                                d="M2.45483 11.3208C2.23379 11.3208 2.05469 11.1417 2.05469 10.9209V4.62066C2.05469 4.39981 2.23379 4.2207 2.45483 4.2207H8.75455C8.97559 4.2207 9.1547 4.39981 9.1547 4.62066C9.1547 4.84151 8.97559 5.02062 8.75455 5.02062H2.85458V10.9206C2.85458 11.0266 2.81246 11.1283 2.73732 11.2035C2.66237 11.2784 2.56068 11.3205 2.45462 11.3205L2.45483 11.3208Z"
                                                fill="black" />
                                            <path
                                                d="M25.5202 23.758H19.2205C18.9994 23.758 18.8203 23.5789 18.8203 23.3581C18.8203 23.1372 18.9994 22.9581 19.2205 22.9581H25.1204V17.0582C25.1204 16.8373 25.2995 16.6582 25.5204 16.6582C25.7414 16.6582 25.9205 16.8373 25.9205 17.0582V23.3584C25.9205 23.4644 25.8784 23.5661 25.8033 23.6413C25.7283 23.7162 25.6266 23.7583 25.5204 23.7583L25.5202 23.758Z"
                                                fill="black" />
                                        </svg>