<svg width="38" height="38"
    viewBox="0 0 22 20" fill="none" xmlns="http://www.w3.org/2000/svg">
    <path
        d="M20.0891 8.40162C20.2058 8.76818 20.5452 9.03625 20.9497 9.03625C21.4495 9.03625 21.8561 8.62965 21.8561 8.12971C21.8561 7.62977 21.4495 7.22318 20.9497 7.22318C20.5452 7.22318 20.2058 7.49146 20.0891 7.85781L15.9047 7.85762C15.899 7.67187 15.8877 7.48632 15.8695 7.30172H17.0965C17.1318 7.30172 17.1672 7.2947 17.2004 7.28085C17.2338 7.267 17.2638 7.24708 17.289 7.22184L20.5337 3.978C20.6587 4.04346 20.7991 4.08406 20.9497 4.08406C21.4495 4.08406 21.8561 3.67709 21.8561 3.17753C21.8561 2.67777 21.4495 2.27099 20.9497 2.27099C20.4498 2.27099 20.0428 2.67796 20.0428 3.17753C20.0428 3.32817 20.0834 3.46839 20.1489 3.59361L16.9838 6.75794H15.7979C15.7702 6.59439 15.7384 6.43179 15.7006 6.27072C14.8565 2.70373 11.7043 0.212891 8.0341 0.212891C4.76709 0.212891 1.8019 2.26712 0.655613 5.32406C0.324341 6.2067 0.15625 7.13714 0.15625 8.08977C0.15625 9.81614 0.703796 11.4539 1.73939 12.827C1.74261 12.8314 1.74565 12.8357 1.74887 12.8401C2.15149 13.414 2.73113 13.9267 3.26372 14.3592V15.6464C3.26372 15.7965 3.38534 15.9185 3.5358 15.9185H5.8325C5.94994 15.9185 6.04519 16.0143 6.04519 16.1317C6.04519 16.2467 5.94785 16.3438 5.8325 16.3438H3.5358C3.38534 16.3438 3.26372 16.4657 3.26372 16.6159V17.5862C3.26372 17.7363 3.38534 17.8583 3.5358 17.8583H7.75068C7.8685 17.8583 7.96394 17.9536 7.96394 18.0704C7.96394 18.1879 7.86812 18.2835 7.75068 18.2835L3.53599 18.2831C3.38553 18.2831 3.26391 18.4049 3.26391 18.5552V19.5247C3.26391 19.6748 3.38553 19.7968 3.53599 19.7968H11.388C11.5385 19.7968 11.6601 19.675 11.6601 19.5247V17.3104C11.8698 17.3449 12.0646 17.3682 12.2379 17.3842C12.7818 17.4333 13.3501 17.4181 13.9278 17.3388C15.5368 17.1176 15.537 16.8689 15.5373 16.6871C15.539 15.9084 15.539 15.1296 15.5387 14.3506V13.2621L16.6152 12.8437C16.8839 12.7396 17.0966 12.5362 17.2132 12.2709C17.3305 12.0057 17.3373 11.7114 17.2328 11.4423C17.2259 11.4249 17.2176 11.4084 17.2075 11.3928L15.9826 9.5014H16.9836L20.1489 12.6667C20.0836 12.7917 20.0429 12.9321 20.0429 13.0828C20.0429 13.5827 20.4498 13.9893 20.9498 13.9893C21.4495 13.9893 21.8561 13.5827 21.8561 13.0828C21.8561 12.5828 21.4495 12.1762 20.9498 12.1762C20.7987 12.1762 20.6587 12.2168 20.5337 12.2823L17.2906 9.03919C17.265 9.01301 17.2342 8.99271 17.2001 8.97848C17.1718 8.96671 17.1416 8.96216 17.1115 8.96045C17.1064 8.96026 17.1022 8.95742 17.0971 8.95742H15.8583C15.8788 8.77224 15.8926 8.58725 15.8998 8.40152L20.0891 8.40162ZM20.9497 2.81444C21.1493 2.81444 21.3121 2.97705 21.3121 3.17702C21.3121 3.377 21.1495 3.5396 20.9497 3.5396C20.7497 3.5396 20.5869 3.37699 20.5869 3.17702C20.5869 2.97704 20.7495 2.81444 20.9497 2.81444ZM20.9497 7.76679C21.1493 7.76679 21.3121 7.92939 21.3121 8.12936C21.3121 8.32934 21.1495 8.49194 20.9497 8.49194C20.7497 8.49194 20.5869 8.32934 20.5869 8.12936C20.5869 7.92938 20.7495 7.76679 20.9497 7.76679ZM15.3606 7.85729H11.5874V7.30139H15.3232C15.3431 7.486 15.3545 7.67156 15.3606 7.85729ZM5.2218 11.1581C5.09183 11.1581 4.98653 11.052 4.98653 10.922V5.3368C4.98653 5.20683 5.09202 5.10134 5.2218 5.10134H10.8075C10.9379 5.10134 11.0433 5.20683 11.0433 5.3368V10.9215C11.0433 11.0496 10.9354 11.1576 10.8075 11.1576H5.2218V11.1581ZM16.7337 11.663C16.7764 11.7899 16.7701 11.9271 16.7153 12.0517C16.6571 12.184 16.5516 12.2851 16.418 12.3367L15.1675 12.8228C15.0627 12.8634 14.9939 12.9642 14.9939 13.0763V14.3509C14.9941 15.0874 14.9941 15.8238 14.9927 16.5601C14.7888 16.6381 14.27 16.7426 13.853 16.7999C13.316 16.8737 12.7892 16.888 12.2866 16.8424C12.001 16.8166 11.7253 16.7755 11.4616 16.7201C11.4503 16.7168 11.4385 16.7144 11.4267 16.7127C10.0958 16.4262 9.06038 15.7747 8.52041 14.8634C8.44395 14.7341 8.27698 14.6913 8.14777 14.7679C8.01856 14.8444 7.97587 15.0113 8.05234 15.1406C8.78242 16.3733 10.0447 16.9407 11.1154 17.1999L11.1155 19.2524H3.80748V18.827H7.75032C8.16792 18.827 8.50755 18.4872 8.50755 18.07C8.50755 17.653 8.16774 17.3139 7.75032 17.3139H3.80748V16.8878H5.83233C6.24955 16.8878 6.58897 16.5486 6.58897 16.1317C6.58897 15.7141 6.24954 15.3745 5.83233 15.3745H3.80748V14.7038C4.00708 14.8129 4.21787 14.9184 4.44042 15.018C4.47666 15.0343 4.51422 15.0419 4.55103 15.0419C4.65519 15.0419 4.75423 14.9818 4.79958 14.8808C4.86105 14.7436 4.79939 14.5827 4.66222 14.5215C4.30514 14.3615 3.97843 14.1877 3.69118 14.0054C3.16218 13.58 2.57272 13.0715 2.18677 12.5179C2.18468 12.5147 2.18222 12.5116 2.17994 12.5084C1.21153 11.2286 0.700019 9.70113 0.700019 8.0903C0.700019 7.20329 0.856361 6.33717 1.16486 5.51582C2.23173 2.66891 4.99234 0.756601 8.03335 0.756601C11.4503 0.756601 14.3845 3.0753 15.1695 6.39526C15.1977 6.51517 15.2214 6.63622 15.2436 6.75764L11.5868 6.75745V6.20155H12.2453C12.3958 6.20155 12.5174 6.07975 12.5174 5.92948C12.5174 5.7794 12.3958 5.6574 12.2453 5.6574H11.5868V5.33675C11.5868 4.907 11.2369 4.55713 10.8069 4.55713H10.4869V3.89782C10.4869 3.74775 10.3652 3.62574 10.2148 3.62574C10.0643 3.62574 9.94271 3.74755 9.94271 3.89782V4.55713H9.38622V3.89782C9.38622 3.74775 9.2646 3.62574 9.11415 3.62574C8.96369 3.62574 8.84207 3.74755 8.84207 3.89782V4.55713H8.28578V3.89782C8.28578 3.74775 8.16416 3.62574 8.0137 3.62574C7.86324 3.62574 7.74162 3.74755 7.74162 3.89782V4.55713H7.18572V3.89782C7.18572 3.74775 7.0641 3.62574 6.91364 3.62574C6.76319 3.62574 6.64157 3.74755 6.64157 3.89782V4.55713H6.08567V3.89782C6.08567 3.74775 5.96405 3.62574 5.81359 3.62574C5.66313 3.62574 5.54151 3.74755 5.54151 3.89782V4.55713H5.22086C4.79112 4.55713 4.44163 4.90699 4.44163 5.33675V5.65721H3.78232C3.63186 5.65721 3.51025 5.77902 3.51025 5.92929C3.51025 6.07936 3.63186 6.20136 3.78232 6.20136H4.44163V6.75726H3.78232C3.63186 6.75726 3.51025 6.87907 3.51025 7.02934C3.51025 7.17942 3.63186 7.30142 3.78232 7.30142H4.44163V7.85732H3.78232C3.63186 7.85732 3.51025 7.97913 3.51025 8.1294C3.51025 8.27947 3.63186 8.40148 3.78232 8.40148H4.44163V8.95738H3.78232C3.63186 8.95738 3.51025 9.07918 3.51025 9.22945C3.51025 9.37953 3.63186 9.50153 3.78232 9.50153H4.44163V10.0584H3.78232C3.63186 10.0584 3.51025 10.1802 3.51025 10.3305C3.51025 10.4806 3.63186 10.6026 3.78232 10.6026H4.44163V10.9221C4.44163 11.3524 4.79112 11.7022 5.22086 11.7022H5.54151V12.3608C5.54151 12.5109 5.66313 12.6329 5.81359 12.6329C5.96405 12.6329 6.08567 12.5111 6.08567 12.3608V11.7022H6.64157V12.3608C6.64157 12.5109 6.76319 12.6329 6.91364 12.6329C7.0641 12.6329 7.18572 12.5111 7.18572 12.3608V11.7022H7.74162V12.3608C7.74162 12.5109 7.86324 12.6329 8.0137 12.6329C8.16416 12.6329 8.28578 12.5111 8.28578 12.3608V11.7022H8.84207V12.3608C8.84207 12.5109 8.96369 12.6329 9.11415 12.6329C9.2646 12.6329 9.38622 12.5111 9.38622 12.3608V11.7022H9.94271V12.3608C9.94271 12.5109 10.0643 12.6329 10.2148 12.6329C10.3652 12.6329 10.4869 12.5111 10.4869 12.3608V11.7022H10.8069C11.2371 11.7022 11.5868 11.3522 11.5868 10.9221V10.6026H12.2453C12.3958 10.6026 12.5174 10.4808 12.5174 10.3305C12.5174 10.1804 12.3958 10.0584 12.2453 10.0584H11.5868V9.50114H15.3336L16.7337 11.663ZM21.3118 13.0827C21.3118 13.2827 21.1492 13.4453 20.9494 13.4453C20.7494 13.4453 20.5866 13.2827 20.5866 13.0827C20.5866 12.8827 20.7496 12.7201 20.9494 12.7201C21.149 12.7201 21.3118 12.8827 21.3118 13.0827ZM15.3098 8.95734H11.5872V8.40143H15.3547C15.3464 8.58737 15.3316 8.77236 15.3098 8.95734Z"
        fill="black" />
    <path
        d="M9.76497 7.08783C9.74163 6.61558 9.34908 6.2386 8.86999 6.2386C8.77019 6.2386 8.67248 6.25492 8.57894 6.28736C8.41027 6.10845 8.1731 6.00391 7.92551 6.00391C7.69897 6.00391 7.48059 6.091 7.31458 6.24486C7.06698 6.19591 6.78408 6.23405 6.53365 6.35282C6.22989 6.49664 5.99805 6.74007 5.89863 7.02049C5.82387 7.23109 5.83089 7.44852 5.91874 7.63292C5.93392 7.66499 5.95156 7.6963 5.97205 7.72646C5.83829 7.9088 5.76562 8.12908 5.76562 8.35828C5.76562 8.93429 6.22402 9.40597 6.79587 9.42986L6.65737 9.8579C6.63612 9.92336 6.66723 9.99413 6.72966 10.0233L7.20626 10.2436C7.22429 10.252 7.24402 10.2561 7.26337 10.2561C7.28405 10.2561 7.30436 10.2516 7.32371 10.2419C7.36071 10.2237 7.38708 10.1897 7.39638 10.1497C7.43224 9.989 7.5123 9.80705 7.63468 9.60823C7.82706 9.65415 8.03255 9.63271 8.21166 9.55169C8.35509 9.60444 8.51295 9.63214 8.67214 9.63214C9.28229 9.63214 9.77864 9.23123 9.77864 8.73832C9.77864 8.72125 9.77789 8.70398 9.77656 8.68672C10.0752 8.53607 10.2689 8.22832 10.2689 7.88985C10.2687 7.5472 10.0699 7.23602 9.76497 7.08783ZM9.78774 8.35127C9.7866 8.22661 9.7663 8.08469 9.69306 7.97161C9.62969 7.87371 9.53483 7.80958 9.41833 7.78643C9.13999 7.73066 9.06144 7.3455 9.06088 7.3417C9.04646 7.2679 8.9736 7.22066 8.90169 7.23393C8.82789 7.24816 8.77989 7.31874 8.79373 7.39255C8.7981 7.4157 8.90605 7.96137 9.36542 8.05302C9.41001 8.06194 9.44074 8.08205 9.46446 8.11886C9.54471 8.24238 9.5117 8.49472 9.49387 8.57365C9.49368 8.57536 9.49406 8.57726 9.49368 8.57877C9.49178 8.5894 9.49235 8.60021 9.49292 8.61141C9.49349 8.61786 9.49273 8.6245 9.49368 8.63076C9.49387 8.63209 9.49368 8.63323 9.49387 8.63456C9.50222 8.67136 9.50658 8.70628 9.50658 8.73928C9.50658 9.08194 9.13224 9.36105 8.67212 9.36105C8.55867 9.36105 8.449 9.33866 8.3454 9.30527C8.34806 9.20945 8.34787 9.06317 8.33364 8.92068C8.44577 8.55639 8.73701 8.53533 8.75219 8.53477C8.82637 8.5323 8.88538 8.47026 8.88348 8.3955C8.88158 8.32075 8.82144 8.2625 8.74422 8.26269C8.61767 8.26572 8.39549 8.33592 8.22926 8.5414C8.17652 8.45603 8.10575 8.41106 8.01658 8.41106C7.94144 8.41106 7.86972 8.46836 7.86972 8.54349C7.86972 8.61863 7.91943 8.67593 7.99457 8.67593C7.99514 8.67612 8.03726 8.71672 8.05984 8.91916C8.07634 9.0626 8.0754 9.21913 8.07236 9.31229C7.96516 9.35555 7.84962 9.36997 7.73426 9.35005C7.74925 9.23735 7.74849 9.07987 7.66159 8.95275C7.60942 8.87553 7.5043 8.78085 7.30205 8.76833C6.92714 8.74461 6.64522 8.32796 6.64255 8.32379C6.60062 8.26099 6.51581 8.24429 6.45414 8.28603C6.39191 8.32739 6.37446 8.41163 6.41582 8.47425C6.43024 8.49606 6.77403 9.00741 7.28515 9.04001C7.39634 9.04684 7.42688 9.09123 7.43675 9.10547C7.49253 9.18686 7.46502 9.33827 7.44813 9.39708C7.32575 9.58587 7.23354 9.76535 7.17643 9.93156L6.9533 9.82854L7.11514 9.32748C7.12975 9.28251 7.12008 9.23356 7.08953 9.1977C7.05936 9.16203 7.01288 9.14457 6.96582 9.15121C6.92503 9.15728 6.88348 9.16051 6.84155 9.16051C6.39815 9.16051 6.03745 8.80116 6.03745 8.35966C6.03745 8.17601 6.10253 8.00202 6.21618 7.86103C6.39547 7.85211 6.74609 7.85686 6.90186 7.96349C6.92558 7.97961 6.95214 7.9872 6.97851 7.9872C7.02177 7.9872 7.06446 7.96652 7.09083 7.92781C7.13295 7.86577 7.11721 7.78115 7.05516 7.73884C7.01323 7.71019 6.96428 7.68799 6.91286 7.66902C6.96997 7.61931 7.00507 7.5789 7.0083 7.57548C7.05649 7.51818 7.04909 7.43261 6.99198 7.38423C6.93468 7.33585 6.84949 7.34325 6.80016 7.39998C6.79902 7.40131 6.67797 7.54133 6.5222 7.59199C6.39603 7.58307 6.2856 7.58554 6.21294 7.58895C6.19586 7.56562 6.17575 7.54323 6.16399 7.51818C6.10631 7.39713 6.1027 7.25711 6.15412 7.11291C6.22982 6.90022 6.41026 6.71334 6.64969 6.5999C6.86048 6.49953 7.09747 6.47335 7.29628 6.52325C7.37577 6.59155 7.64425 6.8401 7.67308 7.10611C7.68447 7.21388 7.65373 7.31007 7.57841 7.40095C7.5306 7.45882 7.53876 7.54458 7.59662 7.59239C7.62186 7.61326 7.65259 7.62332 7.68314 7.62332C7.72222 7.62332 7.76112 7.60643 7.78806 7.5738C7.88957 7.45086 7.94004 7.31405 7.94383 7.16777C8.00151 7.19984 8.05483 7.22166 8.10017 7.22166C8.12256 7.22166 8.14324 7.21786 8.1624 7.21027C8.23223 7.18276 8.26694 7.10383 8.23943 7.03401C8.21686 6.97747 8.15994 6.94161 8.10396 6.94806C8.08062 6.93972 7.98481 6.89456 7.78389 6.6701C7.70989 6.55646 7.62641 6.46311 7.55867 6.3967C7.66511 6.32005 7.79261 6.27736 7.92448 6.27736C8.12464 6.27736 8.3083 6.37071 8.42821 6.53312C8.46692 6.58586 8.53731 6.60294 8.59688 6.57505C8.68302 6.5335 8.77485 6.51225 8.86915 6.51225C9.21332 6.51225 9.4932 6.79096 9.4932 7.13401H9.62924L9.49073 7.17177C9.4875 7.23191 9.52412 7.28712 9.58104 7.30724C9.82903 7.39527 9.9958 7.63035 9.9958 7.89179C9.99656 8.06976 9.91687 8.2354 9.78766 8.35132L9.78774 8.35127Z"
        fill="black" />
</svg>