<svg width="38" height="38" viewBox="0 0 28 26" fill="none" xmlns="http://www.w3.org/2000/svg">
<path d="M10.6742 6.4467C10.511 6.4467 10.375 6.31066 10.375 6.14749V4.78749C10.375 4.62432 10.511 4.48828 10.6742 4.48828C10.8374 4.48828 10.9734 4.62432 10.9734 4.78749V6.14749C10.9734 6.31066 10.8374 6.4467 10.6742 6.4467Z" fill="black"/>
<path d="M11.6534 11.6971C11.5718 11.6971 11.4629 11.6427 11.4086 11.5884L10.375 10.1197V8.67812C10.375 8.51495 10.511 8.37891 10.6742 8.37891C10.8374 8.37891 10.9734 8.51495 10.9734 8.67812V9.92941L11.8982 11.235C11.9798 11.371 11.9526 11.5342 11.8166 11.6429C11.7621 11.6972 11.7079 11.6971 11.6534 11.6971Z" fill="black"/>
<path d="M9.69691 11.6958C9.64246 11.6958 9.5882 11.6686 9.53374 11.6413C9.39771 11.5597 9.37057 11.3692 9.45216 11.2334L10.4314 9.84624C10.5129 9.71021 10.7034 9.68307 10.8393 9.76466C10.9753 9.84624 11.0025 10.0367 10.9209 10.1726L9.94167 11.5597C9.8874 11.6684 9.80582 11.6958 9.69691 11.6958Z" fill="black"/>
<path d="M10.6735 5.11374C10.619 5.11374 10.5648 5.08661 10.5103 5.05929C10.3743 4.9777 10.3471 4.78721 10.4287 4.65136L11.4079 3.26421C11.4895 3.12817 11.68 3.10104 11.8158 3.18263C11.9519 3.26421 11.979 3.4547 11.8974 3.59055L10.9182 4.9777C10.864 5.05929 10.7551 5.11374 10.6735 5.11374Z" fill="black"/>
<path d="M10.6761 5.11376C10.5945 5.11376 10.4856 5.05931 10.4314 5.00504L9.45216 3.61789C9.37057 3.48185 9.39771 3.31868 9.53374 3.20997C9.66978 3.12839 9.83295 3.15552 9.94167 3.29156L10.9209 4.67871C11.0025 4.81475 10.9753 4.97792 10.8393 5.08663C10.785 5.08644 10.7306 5.11376 10.6761 5.11376Z" fill="black"/>
<path d="M13.2842 7.69608H11.9242C11.761 7.69608 11.625 7.56004 11.625 7.39687C11.625 7.2337 11.761 7.09766 11.9242 7.09766H13.2842C13.4474 7.09766 13.5834 7.2337 13.5834 7.39687C13.5834 7.58717 13.4474 7.69608 13.2842 7.69608Z" fill="black"/>
<path d="M6.67348 8.67529C6.59189 8.67529 6.48299 8.62083 6.42872 8.56657C6.34714 8.43053 6.37427 8.26736 6.51031 8.15865L7.97901 7.125H9.42061C9.58378 7.125 9.71982 7.26104 9.71982 7.42421C9.71982 7.58738 9.58378 7.72342 9.42061 7.72342H8.16931L6.86376 8.64817C6.78236 8.6753 6.72793 8.67529 6.67348 8.67529Z" fill="black"/>
<path d="M8.06063 7.69798C8.00618 7.69798 7.95191 7.67084 7.89746 7.64352L6.51031 6.66432C6.37427 6.58274 6.34714 6.39224 6.42872 6.2564C6.51031 6.12036 6.7008 6.09323 6.83664 6.17481L8.22379 7.15401C8.35983 7.2356 8.38697 7.42609 8.30538 7.56194C8.25093 7.67065 8.14221 7.69798 8.06063 7.69798Z" fill="black"/>
<path d="M14.67 8.67844C14.6156 8.67844 14.5613 8.65131 14.5068 8.62399L13.1197 7.64479C12.9836 7.56321 12.9565 7.37271 13.0381 7.23687C13.1197 7.10083 13.3102 7.0737 13.446 7.15528L14.8332 8.13448C14.9692 8.21607 14.9963 8.40656 14.9148 8.54241C14.8605 8.65112 14.7516 8.67844 14.67 8.67844Z" fill="black"/>
<path d="M13.2829 7.698C13.2013 7.698 13.0924 7.64355 13.0381 7.58928C12.9565 7.45324 12.9836 7.29007 13.1197 7.18136L14.5068 6.20216C14.6429 6.12057 14.806 6.14771 14.9148 6.28374C14.9963 6.41978 14.9692 6.58295 14.8332 6.69167L13.446 7.67067C13.3916 7.69799 13.3371 7.698 13.2829 7.698Z" fill="black"/>
<path d="M12.521 9.54658C12.4394 9.54658 12.385 9.51945 12.3305 9.46499L11.3784 8.5129C11.2697 8.40418 11.2697 8.21369 11.3784 8.10497C11.4871 7.99626 11.6776 7.99626 11.7863 8.10497L12.7384 9.05707C12.8471 9.16579 12.8471 9.35628 12.7384 9.46499C12.6568 9.51945 12.6026 9.54658 12.521 9.54658Z" fill="black"/>
<path d="M9.69247 6.74501C9.61088 6.74501 9.55643 6.71787 9.50198 6.66342L8.68593 5.84737L7.10833 5.57529C6.94516 5.54816 6.83625 5.41212 6.86357 5.24895C6.8907 5.08578 7.05406 4.97687 7.18991 5.0042L8.95782 5.30341L9.88257 6.22816C9.99129 6.33688 9.99129 6.52737 9.88257 6.63608C9.85563 6.71785 9.77405 6.74501 9.69247 6.74501Z" fill="black"/>
<path d="M8.82544 5.87507C8.6894 5.87507 8.58068 5.76635 8.55336 5.63032L8.25415 3.97112C8.22702 3.80794 8.33573 3.67191 8.49891 3.64477C8.66208 3.61764 8.79812 3.72636 8.82525 3.88953L9.12446 5.54873C9.15159 5.7119 9.04287 5.84794 8.8797 5.87507H8.82544Z" fill="black"/>
<path d="M12.8176 11.2344C12.6816 11.2344 12.5729 11.1257 12.5455 10.9897L12.2463 9.33049C12.2192 9.16732 12.3279 9.03128 12.4911 9.00415C12.6543 8.97702 12.7903 9.08573 12.8174 9.24891L13.1166 10.9081C13.1438 11.0713 13.0351 11.2073 12.8719 11.2344H12.8176Z" fill="black"/>
<path d="M14.1814 9.84716H14.1269L12.4677 9.54795C12.3045 9.52082 12.1956 9.38478 12.2229 9.22161C12.2501 9.05844 12.3861 8.94953 12.5493 8.97685L14.2085 9.27606C14.3717 9.30319 14.4806 9.43923 14.4532 9.6024C14.4532 9.73844 14.3172 9.84716 14.1814 9.84716Z" fill="black"/>
<path d="M11.5689 6.82783C11.4873 6.82783 11.4329 6.8007 11.3784 6.74625C11.2697 6.63753 11.2697 6.44704 11.3784 6.33832L12.3305 5.38623C12.4392 5.27751 12.6297 5.27751 12.7384 5.38623C12.8471 5.49494 12.8471 5.68544 12.7384 5.79415L11.7592 6.74625C11.705 6.8007 11.6505 6.82783 11.5689 6.82783Z" fill="black"/>
<path d="M8.55341 11.2329H8.49895C8.33578 11.2058 8.22687 11.0697 8.2542 10.9066L8.55341 9.13867L9.55976 8.13232C9.66847 8.0236 9.85897 8.0236 9.96768 8.13232C10.0764 8.24104 10.0764 8.43153 9.96768 8.54024L9.09738 9.41035L8.8253 10.988C8.79817 11.124 8.68944 11.2329 8.55341 11.2329Z" fill="black"/>
<path d="M7.16685 9.84711C7.03081 9.84711 6.9221 9.7384 6.89477 9.60236C6.86764 9.43919 6.97636 9.30315 7.13953 9.27602L8.79873 8.97681C8.9619 8.94967 9.09794 9.05839 9.12507 9.22156C9.1522 9.38473 9.04349 9.52077 8.88032 9.5479L7.22112 9.84711H7.16685Z" fill="black"/>
<path d="M12.5184 5.87446C12.3824 5.87446 12.2737 5.76574 12.2463 5.6297C12.2192 5.46653 12.3279 5.33049 12.4911 5.30336L14.1503 5.00415C14.3135 4.97702 14.4495 5.08573 14.4766 5.24891C14.5038 5.41208 14.395 5.54811 14.2319 5.57525L12.5727 5.87446H12.5184Z" fill="black"/>
<path d="M12.5222 5.87512H12.4677C12.3045 5.84799 12.1956 5.71195 12.2229 5.54878L12.5222 3.88958C12.5493 3.72641 12.6853 3.6175 12.8485 3.64482C13.0117 3.67195 13.1206 3.80799 13.0933 3.97116L12.794 5.63036C12.7669 5.76621 12.658 5.87512 12.5222 5.87512Z" fill="black"/>
<path d="M10.6755 8.97599C9.83235 8.97599 9.125 8.29599 9.125 7.4255C9.125 6.58235 9.805 5.875 10.6755 5.875C11.546 5.875 12.226 6.555 12.226 7.4255C12.226 8.26865 11.5187 8.97599 10.6755 8.97599ZM10.6755 6.4463C10.1315 6.4463 9.6963 6.88154 9.6963 7.4255C9.6963 7.96945 10.1315 8.4047 10.6755 8.4047C11.2194 8.4047 11.6547 7.96945 11.6547 7.4255C11.6547 6.88154 11.2195 6.4463 10.6755 6.4463Z" fill="black"/>
<path d="M23.5689 20.4544C23.4057 20.4544 23.2697 20.3184 23.2697 20.1552V3.20962C23.2697 2.17598 22.4265 1.30567 21.3657 1.30567H6.59612C5.56247 1.30567 4.69217 2.14882 4.69217 3.20962V20.1824C4.69217 20.3456 4.55613 20.4816 4.39296 20.4816C4.22979 20.4816 4.09375 20.3456 4.09375 20.1824V3.20962C4.09375 1.84962 5.209 0.734375 6.569 0.734375H21.3658C22.7258 0.734375 23.841 1.84962 23.841 3.20962V20.1824C23.8682 20.3456 23.7321 20.4545 23.569 20.4545L23.5689 20.4544Z" fill="black"/>
<path d="M12.8774 14.4148H8.47108C8.30791 14.4148 8.17188 14.2788 8.17188 14.1156C8.17188 13.9524 8.30791 13.8164 8.47108 13.8164H12.8774C13.0406 13.8164 13.1766 13.9524 13.1766 14.1156C13.1766 14.2788 13.0406 14.4148 12.8774 14.4148Z" fill="black"/>
<path d="M12.8774 16.075H8.47108C8.30791 16.075 8.17188 15.9389 8.17188 15.7758C8.17188 15.6126 8.30791 15.4766 8.47108 15.4766H12.8774C13.0406 15.4766 13.1766 15.6126 13.1766 15.7758C13.1766 15.9389 13.0406 16.075 12.8774 16.075Z" fill="black"/>
<path d="M12.8774 17.7351H8.47108C8.30791 17.7351 8.17188 17.5991 8.17188 17.4359C8.17188 17.2728 8.30791 17.1367 8.47108 17.1367H12.8774C13.0406 17.1367 13.1766 17.2728 13.1766 17.4359C13.1766 17.5991 13.0406 17.7351 12.8774 17.7351Z" fill="black"/>
<path d="M18.6656 17.7335C18.0128 17.7335 17.4688 17.1896 17.4688 16.5367C17.4688 15.8838 18.0127 15.3398 18.6656 15.3398C19.3184 15.3398 19.8624 15.8838 19.8624 16.5367C19.8624 17.1894 19.3456 17.7335 18.6656 17.7335ZM18.6656 15.8838C18.3119 15.8838 18.04 16.1559 18.04 16.5094C18.04 16.8631 18.3121 17.1349 18.6656 17.1349C19.0193 17.1349 19.2912 16.8629 19.2912 16.5094C19.2912 16.1831 19.0193 15.8838 18.6656 15.8838Z" fill="black"/>
<path d="M18.6664 15.8859C18.5032 15.8859 18.3672 15.7499 18.3672 15.5867V2.72108C18.3672 2.55791 18.5032 2.42188 18.6664 2.42188C18.8296 2.42188 18.9656 2.55791 18.9656 2.72108V15.6139C18.9656 15.7771 18.8296 15.8858 18.6664 15.8858V15.8859Z" fill="black"/>
<path d="M20.9292 14.0359H19.6508C19.4876 14.0359 19.3516 13.8999 19.3516 13.7367C19.3516 13.5735 19.4876 13.4375 19.6508 13.4375H20.9292C21.0923 13.4375 21.2284 13.5735 21.2284 13.7367C21.2284 13.8999 21.0923 14.0359 20.9292 14.0359Z" fill="black"/>
<path d="M20.3579 12.864H19.6508C19.4876 12.864 19.3516 12.728 19.3516 12.5648C19.3516 12.4017 19.4876 12.2656 19.6508 12.2656H20.3579C20.5211 12.2656 20.6571 12.4017 20.6571 12.5648C20.63 12.728 20.5211 12.864 20.3579 12.864Z" fill="black"/>
<path d="M20.9292 11.6961H19.6508C19.4876 11.6961 19.3516 11.56 19.3516 11.3969C19.3516 11.2337 19.4876 11.0977 19.6508 11.0977H20.9292C21.0923 11.0977 21.2284 11.2337 21.2284 11.3969C21.2284 11.56 21.0923 11.6961 20.9292 11.6961Z" fill="black"/>
<path d="M20.3579 10.5281H19.6508C19.4876 10.5281 19.3516 10.3921 19.3516 10.2289C19.3516 10.0657 19.4876 9.92969 19.6508 9.92969H20.3579C20.5211 9.92969 20.6571 10.0657 20.6571 10.2289C20.63 10.3921 20.5211 10.5281 20.3579 10.5281Z" fill="black"/>
<path d="M20.9292 9.35623H19.6508C19.4876 9.35623 19.3516 9.22019 19.3516 9.05702C19.3516 8.89385 19.4876 8.75781 19.6508 8.75781H20.9292C21.0923 8.75781 21.2284 8.89385 21.2284 9.05702C21.2284 9.22019 21.0923 9.35623 20.9292 9.35623Z" fill="black"/>
<path d="M20.3579 8.18826H19.6508C19.4876 8.18826 19.3516 8.05222 19.3516 7.88905C19.3516 7.72588 19.4876 7.58984 19.6508 7.58984H20.3579C20.5211 7.58984 20.6571 7.72588 20.6571 7.88905C20.63 8.05222 20.5211 8.18826 20.3579 8.18826Z" fill="black"/>
<path d="M20.9292 7.01639H19.6508C19.4876 7.01639 19.3516 6.88035 19.3516 6.71718C19.3516 6.55401 19.4876 6.41797 19.6508 6.41797H20.9292C21.0923 6.41797 21.2284 6.55401 21.2284 6.71718C21.2284 6.88035 21.0923 7.01639 20.9292 7.01639Z" fill="black"/>
<path d="M20.3579 5.84842H19.6508C19.4876 5.84842 19.3516 5.71238 19.3516 5.54921C19.3516 5.38604 19.4876 5.25 19.6508 5.25H20.3579C20.5211 5.25 20.6571 5.38604 20.6571 5.54921C20.63 5.71257 20.5211 5.84842 20.3579 5.84842Z" fill="black"/>
<path d="M20.9292 4.67654H19.6508C19.4876 4.67654 19.3516 4.54051 19.3516 4.37733C19.3516 4.21416 19.4876 4.07812 19.6508 4.07812H20.9292C21.0923 4.07812 21.2284 4.21416 21.2284 4.37733C21.2284 4.54051 21.0923 4.67654 20.9292 4.67654Z" fill="black"/>
<path d="M27.5906 25.2684H0.390625V22.7933C0.390625 21.1886 1.69618 19.8828 3.30112 19.8828H24.7075C26.3123 19.8828 27.618 21.1884 27.618 22.7933L27.6178 25.2684H27.5906ZM0.961825 24.6973H27.0194V22.7933C27.0194 21.5149 25.9858 20.4541 24.6802 20.4541H3.30102C2.02262 20.4541 0.961825 21.4878 0.961825 22.7933V24.6973Z" fill="black"/>
</svg>