<svg width="70" height="70" viewBox="0 0 34 10" fill="none" xmlns="http://www.w3.org/2000/svg">
                                            <path d="M31.0869 3.19175L28.1322 6.15782L26.7709 4.78509C26.6428 4.65702 26.4351 4.65702 26.307 4.78509C26.1789 4.91316 26.1789 5.12092 26.307 5.24899L27.9004 6.84237C27.9613 6.90499 28.045 6.94046 28.1322 6.94046C28.2197 6.94046 28.3034 6.90498 28.3643 6.84237L31.551 3.65565C31.6791 3.52758 31.6791 3.31982 31.551 3.19175C31.4227 3.06369 31.2152 3.06369 31.0869 3.19175Z" fill="black"></path>
                                            <path d="M29.1136 0.130859C27.8751 0.133705 26.6836 0.60633 25.7794 1.45312C24.8754 2.30011 24.3261 3.4582 24.2424 4.69415H18.8995V4.25681C18.8982 3.84509 18.7489 3.44742 18.4787 3.1368C18.2085 2.82602 17.8355 2.62302 17.428 2.56458V2.26044C17.428 1.58103 17.0656 0.953387 16.4772 0.613776C15.8891 0.274155 15.1641 0.274155 14.5759 0.613776C13.9876 0.953397 13.6252 1.58103 13.6252 2.26044V2.56458C13.2239 2.63042 12.8591 2.83666 12.5957 3.14666C12.3323 3.45669 12.1878 3.84998 12.1878 4.25676V4.68271H6.73078V4.25676C6.7304 3.84542 6.58184 3.44795 6.31223 3.13714C6.04262 2.82634 5.67016 2.62297 5.26299 2.56454V2.2604C5.26299 1.58098 4.9006 0.953339 4.31225 0.613728C3.7241 0.274107 2.99932 0.274107 2.41092 0.613728C1.82253 0.953349 1.46018 1.58098 1.46018 2.2604V2.56454C1.05434 2.62468 0.683818 2.82864 0.415703 3.13923C0.147613 3.44982 0.000189429 3.84638 0 4.25676V6.4622C0 6.91756 0.180627 7.35412 0.502034 7.67629C0.823631 7.99864 1.25985 8.18002 1.71501 8.18119H5.0082C5.46469 8.18214 5.90279 8.00151 6.22608 7.67896C6.54919 7.35661 6.73079 6.91892 6.73079 6.4622V5.3519H12.1878V6.4622C12.1889 6.91793 12.3703 7.3545 12.6923 7.67648C13.0145 7.99865 13.451 8.18002 13.9066 8.18119H17.196C17.6489 8.17607 18.0816 7.99298 18.4004 7.67119C18.7194 7.34959 18.8987 6.91532 18.8996 6.4622V5.3519H24.2235C24.3117 6.62312 24.8936 7.80952 25.8446 8.65763C26.7957 9.50573 28.0407 9.94836 29.3136 9.89124C30.5867 9.83394 31.787 9.28124 32.658 8.35119C33.5291 7.42114 34.0021 6.18748 33.9761 4.91345C33.9499 3.63942 33.4268 2.42606 32.5184 1.53244C31.6098 0.63897 30.3881 0.135818 29.1136 0.130913L29.1136 0.130859ZM3.36203 1.06246C3.68666 1.05942 3.99934 1.1856 4.23122 1.41309C4.46288 1.64058 4.59493 1.95077 4.59778 2.27562V2.55319H2.12593V2.27562H2.12612C2.12916 1.9508 2.26102 1.6406 2.49269 1.41309C2.72454 1.1856 3.03723 1.05943 3.36203 1.06246ZM6.0695 6.46215C6.0695 6.74371 5.95775 7.01353 5.75872 7.21253C5.55969 7.41137 5.2899 7.52312 5.00854 7.52312H1.71534C1.43264 7.5252 1.16095 7.4144 0.960204 7.21518C0.759657 7.01596 0.646767 6.74503 0.646767 6.46213V4.2567C0.646767 3.97532 0.758521 3.70531 0.957547 3.50651C1.15658 3.30748 1.42637 3.19573 1.70773 3.19573H5.00092C5.28362 3.19364 5.55551 3.30464 5.75606 3.50386C5.95661 3.70289 6.0695 3.97401 6.0695 4.25672V6.46215ZM15.5536 1.06246C15.8782 1.05942 16.1909 1.1856 16.4227 1.41309C16.6546 1.64058 16.7865 1.95077 16.7895 2.27562V2.55319H14.3139V2.27562C14.3178 1.95042 14.4507 1.64021 14.6831 1.41289C14.9153 1.1854 15.2284 1.05942 15.5536 1.06246ZM18.2572 6.46215C18.2572 6.74371 18.1455 7.01353 17.9465 7.21253C17.7476 7.41137 17.4776 7.52312 17.1963 7.52312H13.9069C13.6255 7.52312 13.3557 7.41136 13.1567 7.21253C12.9578 7.01349 12.8461 6.7437 12.8461 6.46215V4.25671C12.8461 3.97534 12.9578 3.70533 13.1567 3.50652C13.3557 3.30749 13.6255 3.19574 13.9069 3.19574H17.1963C17.4776 3.19574 17.7477 3.3075 17.9465 3.50652C18.1455 3.70537 18.2572 3.97535 18.2572 4.25671V6.46215ZM29.1139 9.24592C27.993 9.24383 26.9185 8.79682 26.127 8.00278C25.3356 7.20893 24.8916 6.13317 24.893 5.01223C24.8943 3.89111 25.3407 2.81647 26.1342 2.02451C26.9277 1.23236 28.0031 0.788026 29.1242 0.788609C30.2452 0.789368 31.3202 1.23505 32.1127 2.02815C32.905 2.82103 33.3503 3.89626 33.3503 5.01719C33.3482 6.13943 32.901 7.21505 32.1068 8.00773C31.3125 8.80061 30.2362 9.24592 29.1139 9.24592Z" fill="black"></path>
                                            <path d="M3.36469 3.98244C3.04537 3.98073 2.74462 4.13157 2.5551 4.38827C2.36537 4.64498 2.30977 4.97682 2.40502 5.28136C2.50046 5.58588 2.73535 5.82667 3.03757 5.9295V6.42395V6.42376C3.03757 6.60439 3.18404 6.75086 3.36467 6.75086C3.5453 6.75086 3.69158 6.60439 3.69158 6.42376V5.9295C3.99382 5.82666 4.22873 5.5859 4.32412 5.28136C4.41952 4.97683 4.36378 4.64498 4.17405 4.38828C3.98451 4.13157 3.6838 3.98073 3.36469 3.98244ZM3.36469 5.33238C3.22467 5.33238 3.09849 5.24814 3.04499 5.11875C2.99129 4.98935 3.02089 4.8406 3.11994 4.74156C3.21898 4.64271 3.36773 4.61311 3.49712 4.66661C3.62633 4.72012 3.71057 4.84629 3.71057 4.98631C3.71057 5.17737 3.55575 5.33238 3.36469 5.33238Z" fill="black"></path>
                                            <path d="M15.556 3.98248C15.2363 3.97963 14.9346 4.12952 14.7442 4.38623C14.5535 4.64274 14.4971 4.97496 14.5922 5.28004C14.6872 5.58532 14.9225 5.82647 15.2251 5.92949V6.42395V6.42376C15.2431 6.59186 15.3851 6.71917 15.5541 6.71917C15.7232 6.71917 15.8649 6.59186 15.8829 6.42376V5.92949C16.1852 5.82666 16.4202 5.58589 16.5155 5.28136C16.6109 4.97684 16.5551 4.64497 16.3656 4.38827C16.1758 4.13157 15.8751 3.98073 15.556 3.98244L15.556 3.98248ZM15.556 5.33242C15.416 5.33242 15.2898 5.24818 15.2363 5.11879C15.1826 4.98939 15.2124 4.84064 15.3113 4.7416C15.4103 4.64275 15.5591 4.61315 15.6885 4.66666C15.8177 4.72016 15.9021 4.84633 15.9021 4.98635C15.9 5.17666 15.7463 5.33034 15.556 5.33242Z" fill="black"></path>
                                        </svg>