 <svg width="38" height="38" viewBox="0 0 24 24" fill="none"
                                            xmlns="http://www.w3.org/2000/svg">
                                            <path
                                                d="M12.0012 23.3996C12.0013 23.3996 12.0014 23.3996 12.0016 23.3996V23.8964L12.0554 23.4026L12.0557 23.4026L12.0287 23.8996C18.5776 23.8847 23.9012 18.5519 23.9012 11.9996C23.9012 5.4381 18.5627 0.0996094 12.0012 0.0996094C8.83513 0.0996094 6.27129 1.58429 4.6781 2.83025C4.30812 3.11905 4.24267 3.65332 4.53201 4.02292C4.82081 4.3929 5.35584 4.45873 5.72468 4.16901C7.10799 3.0883 9.31911 1.79965 12.0016 1.79965C17.6258 1.79965 22.2016 6.37542 22.2016 11.9996C22.2016 17.6239 17.6258 22.1996 12.0016 22.1996C6.37733 22.1996 1.80156 17.6237 1.80156 11.9996C1.80156 11.5302 1.42096 11.1496 0.951563 11.1496C0.482163 11.1496 0.101562 11.5302 0.101562 11.9996C0.101562 18.552 5.42513 23.8847 11.974 23.8996L12.0012 23.3996ZM12.0012 23.3996V23.3996C18.2866 23.3996 23.4012 18.285 23.4012 11.9996C23.4012 5.71424 18.2866 0.599609 12.0012 0.599609C8.99174 0.599609 6.53494 2.01285 4.98612 3.22411L4.98576 3.22438C4.83368 3.3431 4.80676 3.56275 4.92571 3.71471L4.92614 3.71525C5.04523 3.86781 5.26533 3.89402 5.41582 3.77581L5.41685 3.775C6.8417 2.66184 9.16031 1.29965 12.0016 1.29965C17.9019 1.29965 22.7016 6.09927 22.7016 11.9996C22.7016 17.9 17.9019 22.6996 12.0016 22.6996C6.10118 22.6996 1.30156 17.8999 1.30156 11.9996C1.30156 11.8064 1.14482 11.6496 0.951563 11.6496C0.758306 11.6496 0.601562 11.8064 0.601562 11.9996C0.601562 18.2849 5.716 23.3995 12.0012 23.3996Z"
                                                stroke="black" />
                                            <path
                                                d="M4.7 3.49922V3.99922H5.2H6.9C7.09326 3.99922 7.25 4.15596 7.25 4.34922C7.25 4.54248 7.09326 4.69922 6.9 4.69922H4.35C4.15674 4.69922 4 4.54248 4 4.34922V1.79922C4 1.60596 4.15674 1.44922 4.35 1.44922C4.54326 1.44922 4.7 1.60596 4.7 1.79922V3.49922Z"
                                                stroke="black" />
                                            <path
                                                d="M11.9984 16.6004C9.4622 16.6004 7.39844 14.5366 7.39844 12.0004C7.39844 9.46415 9.4622 7.40039 11.9984 7.40039C14.5347 7.40039 16.5984 9.46415 16.5984 12.0004C16.5984 14.5366 14.5347 16.6004 11.9984 16.6004ZM11.9984 8.10039C9.84754 8.10039 8.09844 9.84949 8.09844 12.0004C8.09844 14.1513 9.84754 15.9004 11.9984 15.9004C14.1493 15.9004 15.8984 14.1513 15.8984 12.0004C15.8984 9.84949 14.1493 8.10039 11.9984 8.10039Z"
                                                stroke="black" />
                                            <path
                                                d="M11.9984 14.0504C11.8052 14.0504 11.6484 13.8936 11.6484 13.7004C11.6484 13.5071 11.8052 13.3504 11.9984 13.3504C12.7432 13.3504 13.3484 12.7452 13.3484 12.0004C13.3484 11.8071 13.5052 11.6504 13.6984 11.6504C13.8917 11.6504 14.0484 11.8071 14.0484 12.0004C14.0484 13.1303 13.1284 14.0504 11.9984 14.0504Z"
                                                stroke="black" />
                                        </svg>