<svg width="38" height="38" viewBox="0 0 23 19" fill="none" xmlns="http://www.w3.org/2000/svg">
<path d="M17.7271 10.8477H9.47656C9.47656 10.885 9.49531 10.9223 9.49531 10.9596V11.4076H17.1858V12.7143L9.49531 12.7145V13.2744H17.7458V10.8477L17.7271 10.8477Z" fill="black"/>
<path d="M8.93461 11.4096V10.9615C8.93461 10.9242 8.93461 10.8869 8.91586 10.8496C8.8598 10.383 8.52387 9.99103 8.07581 9.87893V9.11348C8.07581 8.36678 7.47856 7.76953 6.75041 7.76953C6.02246 7.76953 5.42501 8.36678 5.42501 9.11348V9.87893C4.93966 9.99085 4.56641 10.4389 4.56641 10.9615V14.2842H8.95311V12.7162L8.9533 11.4096L8.93461 11.4096ZM5.96666 9.09494C5.96666 8.66565 6.32135 8.31094 6.73211 8.31094C7.1614 8.31094 7.49756 8.66563 7.49756 9.09494V9.82289H5.94816V9.09494H5.96666ZM7.01196 12.959H6.45201V11.167H7.01196V12.959Z" fill="black"/>
<path d="M21.1238 0.75H1.15077C0.590824 0.75 0.124023 1.2166 0.124023 1.77675V17.4753C0.124023 18.0352 0.590624 18.502 1.15077 18.502H21.1238C21.6837 18.502 22.1505 18.0354 22.1505 17.4753L22.1503 1.77675C22.1503 1.2166 21.6837 0.75 21.1238 0.75ZM6.86227 3.1953C6.86227 3.51269 6.60094 3.774 6.28357 3.774C5.9662 3.774 5.72362 3.51267 5.72362 3.1953C5.72362 2.87792 5.98495 2.6166 6.30232 2.6166C6.61951 2.6166 6.86227 2.87793 6.86227 3.1953ZM4.99547 3.1953C4.99547 3.51269 4.73414 3.774 4.41677 3.774C4.09958 3.774 3.85682 3.51267 3.85682 3.1953C3.85682 2.87792 4.11815 2.6166 4.43552 2.6166C4.75289 2.6166 4.99547 2.87793 4.99547 3.1953ZM2.56892 2.6166C2.88631 2.6166 3.14762 2.87793 3.14762 3.1953C3.14762 3.51269 2.88629 3.774 2.56892 3.774C2.25155 3.774 1.99022 3.51267 1.99022 3.1953C1.99022 2.87792 2.25155 2.6166 2.56892 2.6166ZM21.5904 17.4941C21.5904 17.7554 21.3852 17.9607 21.1238 17.9607H1.15082C0.889493 17.9607 0.684223 17.7554 0.684223 17.4941L0.684028 5.3421H21.5905L21.5904 17.4941Z" fill="black"/>
</svg>