<svg width="38" height="38" viewBox="0 0 26 26" fill="none" xmlns="http://www.w3.org/2000/svg">
<path d="M3.06694 3.07422H3.06447C2.74989 3.07422 2.45373 3.1964 2.2306 3.41858C2.00709 3.64151 1.88339 3.93771 1.88282 4.25343C1.88206 4.56914 2.00443 4.86606 2.22718 5.08978C2.44992 5.31328 2.74631 5.43699 3.06202 5.43756H3.06449C3.7151 5.43756 4.24482 4.90896 4.24614 4.2582C4.24746 3.60666 3.7185 3.07558 3.06697 3.07427L3.06694 3.07422ZM3.06428 4.58751H3.06352C2.97492 4.58732 2.89181 4.5526 2.8292 4.48999C2.76659 4.42719 2.73244 4.34371 2.73263 4.25529C2.73282 4.16669 2.76754 4.08358 2.83015 4.02097C2.89277 3.95855 2.97587 3.92421 3.06428 3.92421H3.06504C3.15364 3.9244 3.23694 3.95912 3.29936 4.02173C3.36197 4.08472 3.39631 4.16801 3.39612 4.25643C3.39574 4.43933 3.24699 4.58751 3.06428 4.58751Z" fill="black"/>
<path d="M25.2965 15.5182H24.9072V14.1362C24.9072 13.3712 24.3683 12.7303 23.6493 12.5688C23.639 12.4193 23.6221 12.273 23.5982 12.1267C23.1766 9.42553 20.8426 7.38553 18.048 7.38553C15.8243 7.38553 13.8983 8.68423 12.9868 10.5645L5.16828 10.5643C4.93377 10.5643 4.74328 10.3738 4.74328 10.1393V8.09929C5.55418 7.97691 6.30553 7.60464 6.89883 7.01479C7.12328 6.79033 7.31358 6.54216 7.47503 6.27864L9.10028 6.28034C9.22607 6.28034 9.35015 6.23955 9.45223 6.1648L9.87382 5.85705L10.2954 6.16651C10.4994 6.31772 10.7986 6.31772 11.0043 6.16822L11.4258 5.86047L11.8474 6.16992C12.0514 6.32114 12.3523 6.32114 12.5563 6.17163L13.0101 5.84017L13.6089 6.20389C13.7042 6.26176 13.8112 6.2906 13.9166 6.2906C14.0815 6.2906 14.2447 6.22097 14.3621 6.09005L15.45 4.8695C15.4535 4.86438 15.4552 4.85925 15.4603 4.85584C15.474 4.83876 15.4857 4.82188 15.4977 4.8031C15.5079 4.78773 15.5182 4.77255 15.5265 4.75718C15.535 4.74011 15.5419 4.72322 15.5502 4.70614C15.5571 4.68736 15.5656 4.66876 15.5722 4.64998C15.5774 4.63291 15.5808 4.61602 15.5842 4.59894C15.5876 4.57845 15.5927 4.55986 15.5961 4.53937C15.5978 4.52058 15.5978 4.50199 15.5978 4.48321C15.5978 4.46443 15.5996 4.44412 15.5978 4.42534C15.5961 4.40656 15.5927 4.38796 15.5893 4.36918C15.5859 4.3504 15.5825 4.3301 15.5774 4.31131C15.5722 4.29424 15.5654 4.27906 15.5586 4.26199C15.5517 4.24149 15.5432 4.22119 15.5331 4.2007C15.5297 4.19558 15.5297 4.19046 15.5263 4.18533L14.6407 2.57373C14.5369 2.38324 14.3363 2.26428 14.1187 2.26428L7.49066 2.26504C7.3292 1.99638 7.137 1.74309 6.90931 1.51539C6.17656 0.779239 5.20076 0.372842 4.16216 0.371094H4.15533C3.11823 0.371094 2.14418 0.772376 1.41162 1.50325C0.675475 2.23599 0.269078 3.21179 0.265629 4.25054C0.264111 5.28934 0.666912 6.26684 1.39968 7.00279C1.99128 7.59609 2.74088 7.97175 3.55353 8.09755V10.1392C3.55353 11.03 4.27773 11.7542 5.16853 11.7542H12.5723C12.4787 12.1572 12.4294 12.5754 12.4294 13.0055C12.4294 13.4288 12.4787 13.8419 12.5671 14.2397H5.16875C4.27795 14.2397 3.55375 14.9639 3.55375 15.8547V17.9067C1.69739 18.1974 0.270996 19.8038 0.265896 21.74C0.264189 22.7788 0.667179 23.7563 1.39975 24.4923C2.1325 25.2284 3.1083 25.6347 4.1469 25.6364H4.15544C5.19079 25.6364 6.16489 25.2351 6.89914 24.5042C7.12359 24.2798 7.3139 24.0316 7.47534 23.7681L9.10059 23.7698C9.22809 23.7698 9.35047 23.729 9.45255 23.656L9.87413 23.3465L10.2957 23.6577C10.4997 23.8072 10.8006 23.8072 11.0046 23.6594L11.4262 23.3499L11.8477 23.6594C12.0517 23.8106 12.3526 23.8106 12.5566 23.6611L13.0104 23.3296L13.6088 23.6933C13.7041 23.7512 13.8111 23.78 13.9166 23.78C14.0815 23.78 14.2446 23.7104 14.3621 23.5795L15.45 22.359C15.4534 22.3538 15.4551 22.3487 15.4585 22.3453C15.4739 22.3282 15.4856 22.3113 15.4976 22.2925C15.5078 22.2772 15.5181 22.262 15.5264 22.2466C15.535 22.2296 15.5435 22.2127 15.5501 22.1956C15.5587 22.1768 15.5655 22.1582 15.5722 22.1394C15.5773 22.1224 15.5807 22.1055 15.5841 22.0884C15.5892 22.0679 15.5926 22.0493 15.5961 22.0288C15.5978 22.01 15.5978 21.9914 15.5978 21.9727C15.5978 21.9539 15.5995 21.9336 15.5978 21.9148C15.5961 21.896 15.5926 21.8791 15.5892 21.8603C15.5858 21.8398 15.5824 21.8195 15.5773 21.8008C15.5722 21.7837 15.5653 21.7685 15.5585 21.7531C15.5517 21.7311 15.5431 21.7106 15.5331 21.6901C15.5297 21.685 15.5297 21.6799 15.5262 21.6748L14.6406 20.0632C14.5368 19.8727 14.3363 19.7537 14.1186 19.7537H7.48864C7.32889 19.4851 7.13669 19.2318 6.90899 19.0041C6.31569 18.4074 5.56094 18.0317 4.74319 17.9076L4.74376 15.8547C4.74376 15.6202 4.93425 15.4297 5.16876 15.4297H12.98C13.8879 17.3168 15.8173 18.624 18.048 18.624C18.7211 18.624 19.3808 18.5034 19.9979 18.2755V16.9817C19.3978 17.2758 18.7331 17.4338 18.048 17.4338C15.6067 17.4338 13.6194 15.4466 13.6194 13.0053C13.6194 10.5623 15.6067 8.57505 18.048 8.57505C20.1967 8.57505 21.9988 10.1033 22.3966 12.1553C22.4237 12.293 22.4442 12.434 22.4562 12.5769V12.5786C21.7574 12.7537 21.239 13.3844 21.239 14.1357V15.5177H20.848C20.6135 15.5177 20.423 15.7082 20.423 15.9427V20.3899C20.423 20.6261 20.6135 20.8149 20.848 20.8149H25.2969C25.5314 20.8149 25.7218 20.6261 25.7218 20.3899V15.9431C25.7218 15.7084 25.5314 15.5181 25.2969 15.5181L25.2965 15.5182ZM7.95795 3.45501H13.7666L14.2817 4.39171L13.8022 4.92886L13.2888 4.6177C13.0834 4.49362 12.8232 4.50386 12.6295 4.64502L12.2045 4.95618L11.7813 4.64331C11.5722 4.49039 11.2866 4.48868 11.0775 4.64161L10.6525 4.95277L10.2275 4.6399C10.0185 4.48697 9.73465 4.48697 9.52555 4.6399L8.90684 5.09032L7.95305 5.08861C8.01091 4.82166 8.04317 4.54636 8.04317 4.26746C8.04279 3.99046 8.01395 3.72006 7.95779 3.45501L7.95795 3.45501ZM4.14829 6.95691C3.42579 6.9552 2.75089 6.67478 2.24264 6.16306C1.73434 5.65306 1.45394 4.97476 1.45564 4.25396C1.45735 3.53316 1.73948 2.85486 2.25119 2.34656C2.75949 1.83996 3.43609 1.56106 4.15514 1.56106H4.16027C4.88107 1.56106 5.55767 1.8432 6.06592 2.35492C6.57592 2.86492 6.85462 3.54322 6.85292 4.26402C6.85122 4.98482 6.56908 5.66142 6.05907 6.17142C5.54907 6.67802 4.87417 6.95691 4.15512 6.95691H4.14829ZM7.95795 20.9445H13.7666L14.2817 21.8812L13.8022 22.4184L13.2888 22.1072C13.0832 21.9831 12.8231 21.9934 12.6293 22.136L12.2043 22.4455L11.7811 22.1326C11.572 21.9797 11.2864 21.9797 11.0774 22.1326L10.6524 22.4421L10.2274 22.1309C10.0183 21.9763 9.73445 21.9763 9.52535 22.1292L8.90665 22.5796L7.95285 22.5779C8.01072 22.311 8.04298 22.0357 8.04298 21.7568C8.04279 21.4802 8.01395 21.2098 7.95779 20.9445L7.95795 20.9445ZM6.06594 19.8446C6.57594 20.3546 6.85465 21.0329 6.85295 21.7537C6.85124 22.4745 6.5691 23.1528 6.05909 23.6611C5.54909 24.1677 4.87419 24.4466 4.15514 24.4466H4.15002H4.14831C3.42751 24.4466 2.75091 24.1645 2.24266 23.6528C1.73436 23.1428 1.45396 22.4645 1.45566 21.7437C1.45907 20.2579 2.66936 19.0508 4.15516 19.0508H4.16028C4.88108 19.0525 5.55768 19.3329 6.06594 19.8447L6.06594 19.8446ZM22.0887 14.136C22.0887 13.7196 22.427 13.3796 22.8451 13.3796H23.299C23.7172 13.3796 24.0571 13.7196 24.0571 14.136V15.518L22.0887 15.5182L22.0887 14.136ZM24.8717 19.9656H21.2726V16.3684H24.8715L24.8717 19.9656Z" fill="black"/>
<path d="M3.06674 20.5664H3.06408C2.74951 20.5664 2.45354 20.6886 2.2306 20.9106C2.00709 21.1335 1.88339 21.4299 1.88282 21.7452C1.88206 22.0609 2.00443 22.3579 2.22718 22.5818C2.44992 22.8053 2.74631 22.929 3.06202 22.9296H3.06449C3.7151 22.9296 4.24482 22.401 4.24614 21.7502C4.24689 21.4347 4.12433 21.1376 3.90177 20.914C3.67884 20.6905 3.3823 20.5672 3.06678 20.5664L3.06674 20.5664ZM3.06408 22.0799H3.06332C2.97472 22.0797 2.89161 22.045 2.82901 21.9824C2.76639 21.9196 2.73205 21.8361 2.73224 21.7475C2.73243 21.6589 2.76715 21.5756 2.82976 21.5132C2.89238 21.4507 2.97529 21.4166 3.06351 21.4166H3.06427H3.06446C3.15307 21.4168 3.23636 21.4515 3.29878 21.5141C3.3612 21.5769 3.39573 21.6602 3.39554 21.7488C3.39554 21.9313 3.24679 22.0799 3.06408 22.0799Z" fill="black"/>
<path d="M19.3996 14.3526C19.0397 14.7123 18.5612 14.9106 18.0522 14.9106C17.5433 14.9106 17.0646 14.7123 16.7047 14.3526C16.345 13.9927 16.1467 13.5142 16.1467 13.0051C16.1467 12.4961 16.345 12.0176 16.7047 11.6579C17.0646 11.2979 17.5433 11.0997 18.0522 11.0997C18.5612 11.0997 19.0397 11.298 19.3996 11.6579C19.4825 11.7408 19.5914 11.7823 19.7002 11.7823C19.8089 11.7823 19.9176 11.7408 20.0005 11.6579C20.1665 11.4919 20.1665 11.2228 20.0005 11.0568C19.7641 10.8202 19.4907 10.6346 19.1953 10.4997V9.88594C19.1953 9.65124 19.005 9.46094 18.7703 9.46094C18.5356 9.46094 18.3453 9.65124 18.3453 9.88594V10.2658C18.2485 10.2555 18.151 10.2497 18.0521 10.2497C17.9535 10.2497 17.856 10.2555 17.7592 10.2658V9.88594C17.7592 9.65124 17.5689 9.46094 17.3342 9.46094C17.0995 9.46094 16.9092 9.65124 16.9092 9.88594V10.4995C16.6136 10.6344 16.3404 10.82 16.1038 11.0566C15.5832 11.577 15.2969 12.2688 15.2969 13.005C15.2969 13.7411 15.5836 14.4329 16.1038 14.9535C16.3404 15.1899 16.6138 15.3755 16.9092 15.5104V16.1242C16.9092 16.3589 17.0995 16.5492 17.3342 16.5492C17.5689 16.5492 17.7592 16.3589 17.7592 16.1242V15.7445C17.856 15.7548 17.9535 15.7606 18.0521 15.7606C18.1508 15.7606 18.2485 15.7548 18.3453 15.7445V16.1245C18.3453 16.3592 18.5356 16.5495 18.7703 16.5495C19.005 16.5495 19.1953 16.3592 19.1953 16.1245V15.5107C19.4907 15.3758 19.7641 15.1903 20.0005 14.9537C20.1665 14.7877 20.1665 14.5186 20.0005 14.3528C19.9176 14.2699 19.8087 14.2283 19.7002 14.2283C19.5914 14.228 19.4827 14.2695 19.3996 14.3526Z" fill="black"/>
<path d="M23.0696 16.5898C22.4196 16.5898 21.8906 17.1186 21.8906 17.7688C21.8906 18.2688 22.2041 18.696 22.6446 18.867V19.4948C22.6446 19.7295 22.8349 19.9198 23.0696 19.9198C23.3043 19.9198 23.4946 19.7295 23.4946 19.4948V18.867C23.935 18.696 24.2484 18.2688 24.2484 17.7688C24.2484 17.1186 23.7196 16.5898 23.0696 16.5898ZM23.0696 18.0975C22.8884 18.0975 22.7406 17.95 22.7406 17.7686C22.7406 17.5873 22.8882 17.4397 23.0696 17.4397C23.251 17.4397 23.3984 17.5873 23.3984 17.7686C23.3984 17.95 23.251 18.0975 23.0696 18.0975Z" fill="black"/>
</svg>