<svg width="38" height="38" viewBox="0 0 26 26" fill="none" xmlns="http://www.w3.org/2000/svg">
<path d="M12.9899 18.5164C12.0881 18.5164 11.2233 18.1582 10.5858 17.5205C9.94811 16.883 9.5899 16.0182 9.5899 15.1164V11.7164C9.5861 11.0381 9.78684 10.3744 10.1659 9.81186C10.545 9.24931 11.0848 8.81406 11.7149 8.56285V7.4664C11.7147 7.30949 11.7435 7.15391 11.7999 7.00744C11.8927 6.76705 12.056 6.56062 12.2683 6.41491C12.4808 6.2692 12.7322 6.19122 12.9899 6.19141C13.2523 6.19311 13.5076 6.27546 13.7213 6.42762C13.9351 6.57979 14.0968 6.794 14.1841 7.04142C14.236 7.17727 14.2634 7.32109 14.2649 7.46642V8.56287C14.6869 8.7361 15.0709 8.99015 15.3953 9.31097C16.0328 9.94905 16.3906 10.8144 16.3899 11.7164V14.993C16.4011 15.8926 16.0641 16.7613 15.4494 17.418C14.8349 18.0747 13.99 18.4682 13.092 18.5164L12.9899 18.5164ZM12.9899 7.0414C12.8136 7.04254 12.6563 7.15258 12.5947 7.31765C12.5742 7.36451 12.5639 7.41517 12.5649 7.4664V8.86472C12.5732 9.05863 12.449 9.23356 12.2632 9.28972C11.7394 9.4453 11.2795 9.76519 10.951 10.2021C10.6228 10.6391 10.4437 11.17 10.4399 11.7164V15.1164C10.4395 15.8061 10.7188 16.4667 11.2136 16.9471C11.7085 17.4275 12.3769 17.687 13.0664 17.6664C13.7439 17.626 14.3795 17.3253 14.8406 16.827C15.3014 16.3288 15.552 15.6718 15.5399 14.9931V11.7164C15.5401 11.1675 15.3631 10.6332 15.0354 10.1931C14.7077 9.75287 14.2467 9.42995 13.721 9.27267C13.5333 9.21822 13.4071 9.0429 13.4149 8.84767V7.4664C13.4164 7.41972 13.4077 7.37343 13.3895 7.33036C13.3694 7.26889 13.3343 7.21349 13.2874 7.1689C13.2108 7.08636 13.1026 7.04007 12.9899 7.0414Z" fill="black"/>
<path d="M15.9648 15.5391H10.0148C9.78015 15.5391 9.58984 15.3488 9.58984 15.1141V11.7141C9.58984 11.4794 9.78015 11.2891 10.0148 11.2891H15.9648C16.0775 11.2891 16.1857 11.3338 16.2654 11.4135C16.3451 11.4932 16.3898 11.6014 16.3898 11.7141V15.1141C16.3898 15.2268 16.3451 15.3349 16.2654 15.4146C16.1857 15.4943 16.0775 15.5391 15.9648 15.5391ZM10.4398 14.6891H15.5398V12.1391H10.4398V14.6891Z" fill="black"/>
<path d="M12.1943 7.593C12.1436 7.59338 12.0932 7.58485 12.0455 7.56758L9.44031 6.59008C9.27373 6.52785 9.1635 6.36828 9.16406 6.1905V3.6405C9.16425 3.50143 9.23256 3.37127 9.34678 3.29196C9.46081 3.2119 9.60709 3.19292 9.73781 3.24092L12.9891 4.4607L16.2404 3.24092C16.3711 3.19292 16.5174 3.21189 16.6314 3.29196C16.7456 3.37127 16.8139 3.50143 16.8141 3.6405V6.1905C16.8147 6.36828 16.7044 6.52785 16.5379 6.59008L13.9326 7.56758C13.8266 7.60723 13.7093 7.60325 13.6063 7.5562C13.5035 7.50914 13.4236 7.423 13.3843 7.31675C13.364 7.26002 13.3306 7.20918 13.2866 7.168C13.1847 7.06839 13.0396 7.02646 12.9003 7.05644C12.761 7.08623 12.6459 7.18413 12.5939 7.31675C12.5546 7.42225 12.4751 7.50781 12.3728 7.55468C12.3165 7.57953 12.2558 7.59262 12.1943 7.593ZM12.9891 6.1905C13.3293 6.19088 13.655 6.32692 13.8943 6.56883L13.9622 6.64529L15.9641 5.8972V4.25262L13.1378 5.31512C13.0416 5.34908 12.9365 5.34908 12.8403 5.31512L10.014 4.25262V5.89739L12.0115 6.64529C12.254 6.35652 12.6121 6.19013 12.9891 6.1905Z" fill="black"/>
<path d="M21.4899 15.9656C20.5881 15.9656 19.7233 15.6074 19.0858 14.9697C18.4481 14.3322 18.0899 13.4674 18.0899 12.5656V9.16562C18.0861 8.48732 18.2868 7.82364 18.6659 7.26108C19.045 6.69853 19.5848 6.26328 20.2149 6.01207V4.91562C20.2147 4.75871 20.2435 4.60313 20.2999 4.45665C20.3927 4.21626 20.556 4.00984 20.7683 3.86413C20.9808 3.71842 21.2322 3.64044 21.4899 3.64063C21.7523 3.64233 22.0076 3.72468 22.2213 3.87684C22.4351 4.02901 22.5968 4.24322 22.6841 4.49064C22.7361 4.62649 22.7634 4.7703 22.7649 4.91564V6.01209C23.1869 6.18532 23.5709 6.43937 23.8953 6.76019C24.5328 7.39827 24.8906 8.26362 24.8899 9.16559V12.4423C24.9011 13.3418 24.5641 14.2106 23.9494 14.8672C23.3349 15.5239 22.49 15.9174 21.592 15.9656L21.4899 15.9656ZM21.4899 4.49062C21.3136 4.49175 21.1563 4.6018 21.0947 4.76687C21.0742 4.81373 21.0639 4.86439 21.0649 4.91562V6.31394C21.0732 6.50785 20.949 6.68278 20.7632 6.73894C20.2394 6.89452 19.7795 7.21441 19.451 7.65135C19.1228 8.08831 18.9437 8.61919 18.9399 9.16562V12.5656C18.935 13.2553 19.2148 13.9165 19.7135 14.3931C20.2079 14.8748 20.8765 15.1355 21.5664 15.1156C22.2439 15.0752 22.8795 14.7745 23.3405 14.2763C23.8014 13.778 24.052 13.121 24.0399 12.4423V9.16562C24.04 8.61671 23.863 8.08242 23.5353 7.64227C23.2077 7.20209 22.7466 6.87916 22.2209 6.72189C22.0333 6.66744 21.9071 6.49212 21.9149 6.29689V4.91562C21.9164 4.86894 21.9077 4.82265 21.8894 4.77958C21.8693 4.7181 21.8342 4.6627 21.7874 4.61812C21.7107 4.53558 21.6026 4.48929 21.4899 4.49062Z" fill="black"/>
<path d="M24.4648 12.9883H18.5148C18.2801 12.9883 18.0898 12.798 18.0898 12.5633V9.16328C18.0898 8.92858 18.2801 8.73828 18.5148 8.73828H24.4648C24.5775 8.73828 24.6857 8.78306 24.7654 8.86275C24.8451 8.94243 24.8898 9.05058 24.8898 9.16328V12.5633C24.8898 12.676 24.8451 12.7841 24.7654 12.8638C24.6857 12.9435 24.5775 12.9883 24.4648 12.9883ZM18.9398 12.1383H24.0398V9.58828H18.9398V12.1383Z" fill="black"/>
<path d="M20.6943 5.04222C20.6436 5.0426 20.5932 5.03406 20.5455 5.0168L17.9403 4.0393C17.7737 3.97707 17.6635 3.8175 17.6641 3.63972V1.08972C17.6643 0.950646 17.7326 0.820489 17.8468 0.741182C17.9608 0.661116 18.1071 0.642139 18.2378 0.690143L21.4891 1.90992L24.7404 0.690143C24.8711 0.64214 25.0174 0.661113 25.1314 0.741182C25.2456 0.820489 25.3139 0.950646 25.3141 1.08972V3.63972C25.3147 3.8175 25.2045 3.97706 25.0379 4.0393L22.4326 5.0168C22.3266 5.05645 22.2093 5.05247 22.1063 5.00541C22.0035 4.95836 21.9236 4.87222 21.8843 4.76597C21.864 4.70924 21.8306 4.6584 21.7866 4.61722C21.6847 4.51761 21.5396 4.47568 21.4003 4.50566C21.261 4.53545 21.1459 4.63335 21.0939 4.76597C21.0546 4.87146 20.9751 4.95703 20.8729 5.00389C20.8165 5.02875 20.7558 5.04184 20.6943 5.04222ZM21.4891 3.63972C21.8293 3.6401 22.155 3.77614 22.3943 4.01805L22.4622 4.09451L24.4641 3.34641V1.70183L21.6378 2.76433C21.5416 2.7983 21.4365 2.7983 21.3403 2.76433L18.514 1.70183V3.34641L20.5115 4.09432V4.09451C20.754 3.80573 21.1121 3.63934 21.4891 3.63972Z" fill="black"/>
<path d="M4.4899 15.9656C3.58812 15.9656 2.72331 15.6074 2.08581 14.9697C1.44811 14.3322 1.0899 13.4674 1.0899 12.5656V9.16562C1.0861 8.48732 1.28684 7.82364 1.66591 7.26108C2.04499 6.69853 2.58478 6.26328 3.2149 6.01207V4.91562C3.21471 4.75871 3.24355 4.60313 3.2999 4.45665C3.39268 4.21626 3.55603 4.00984 3.76834 3.86413C3.98084 3.71842 4.23224 3.64044 4.48987 3.64063C4.75227 3.64233 5.00764 3.72468 5.22131 3.87684C5.43514 4.02901 5.59679 4.24322 5.68406 4.49064C5.73605 4.62649 5.76337 4.7703 5.76489 4.91564V6.01209C6.18686 6.18532 6.57089 6.43937 6.8953 6.76019C7.53279 7.39827 7.89062 8.26362 7.88989 9.16559V12.4423C7.90109 13.3418 7.56412 14.2106 6.9494 14.8672C6.33488 15.5239 5.48998 15.9174 4.59199 15.9656L4.4899 15.9656ZM4.4899 4.49062C4.31364 4.49175 4.15635 4.6018 4.09469 4.76687C4.07419 4.81373 4.06395 4.86439 4.0649 4.91562V6.31394C4.07325 6.50785 3.94897 6.68278 3.76323 6.73894C3.23938 6.89452 2.77946 7.21441 2.45102 7.65135C2.12278 8.08831 1.94369 8.61919 1.9399 9.16562V12.5656C1.93952 13.2553 2.21881 13.9159 2.71364 14.3963C3.20848 14.8767 3.87688 15.1363 4.5664 15.1156C5.24393 15.0752 5.87953 14.7745 6.34057 14.2763C6.80143 13.778 7.05205 13.121 7.0399 12.4423V9.16562C7.04009 8.61671 6.86307 8.08242 6.53539 7.64227C6.20772 7.20209 5.74669 6.87916 5.22095 6.72189C5.03331 6.66744 4.90714 6.49212 4.91491 6.29689V4.91562C4.91643 4.86894 4.9077 4.82265 4.88949 4.77958C4.86938 4.7181 4.83428 4.6627 4.78741 4.61812C4.71076 4.53558 4.6026 4.48929 4.4899 4.49062Z" fill="black"/>
<path d="M7.46484 12.9883H1.51484C1.28015 12.9883 1.08984 12.798 1.08984 12.5633V9.16328C1.08984 8.92858 1.28015 8.73828 1.51484 8.73828H7.46484C7.57754 8.73828 7.68569 8.78306 7.76538 8.86275C7.84507 8.94243 7.88984 9.05058 7.88984 9.16328V12.5633C7.88984 12.676 7.84507 12.7841 7.76538 12.8638C7.68569 12.9435 7.57754 12.9883 7.46484 12.9883ZM1.93984 12.1383H7.03984V9.58828H1.93984V12.1383Z" fill="black"/>
<path d="M3.69429 5.04222C3.64363 5.0426 3.59316 5.03406 3.54554 5.0168L0.940315 4.0393C0.773729 3.97707 0.663496 3.8175 0.664065 3.63972V1.08972C0.664254 0.950646 0.73256 0.820489 0.846776 0.741182C0.960807 0.661116 1.10709 0.642139 1.23781 0.690143L4.48909 1.90992L7.74036 0.690143C7.87109 0.64214 8.01737 0.661113 8.1314 0.741182C8.24562 0.820489 8.31392 0.950646 8.31411 1.08972V3.63972C8.31468 3.8175 8.20445 3.97706 8.03786 4.0393L5.43264 5.0168C5.32658 5.05645 5.20932 5.05247 5.1063 5.00541C5.00346 4.95836 4.92358 4.87222 4.88431 4.76597C4.86401 4.70924 4.83061 4.6584 4.7866 4.61722C4.68471 4.51761 4.53957 4.47568 4.40031 4.50566C4.26104 4.53545 4.14587 4.63335 4.09389 4.76597C4.05461 4.87146 3.97512 4.95703 3.87285 5.00389C3.8165 5.02875 3.75576 5.04184 3.69429 5.04222ZM4.48907 3.63972C4.82925 3.6401 5.15503 3.77614 5.39429 4.01805L5.46221 4.09451L7.46408 3.34641V1.70183L4.63781 2.76433C4.54161 2.7983 4.43651 2.7983 4.34031 2.76433L1.51404 1.70183V3.34641L3.51154 4.09432V4.09451C3.75401 3.80573 4.11205 3.63934 4.48907 3.63972Z" fill="black"/>
<path d="M23.6148 25.3132H2.36482C2.02672 25.3132 1.70226 25.1789 1.46324 24.9398C1.22422 24.7008 1.08984 24.3763 1.08984 24.0383V20.6383C1.08984 20.3002 1.22417 19.9757 1.46324 19.7367C1.7023 19.4977 2.02676 19.3633 2.36482 19.3633H23.6148C23.9529 19.3633 24.2774 19.4976 24.5164 19.7367C24.7554 19.9757 24.8898 20.3002 24.8898 20.6383V24.0383C24.8898 24.3764 24.7555 24.7008 24.5164 24.9398C24.2773 25.1789 23.9529 25.3132 23.6148 25.3132ZM2.36482 20.2132C2.13012 20.2132 1.93982 20.4035 1.93982 20.6382V24.0382C1.93982 24.1509 1.9846 24.2591 2.06428 24.3388C2.14397 24.4185 2.25212 24.4632 2.36482 24.4632H23.6148C23.7275 24.4632 23.8357 24.4185 23.9154 24.3388C23.995 24.2591 24.0398 24.1509 24.0398 24.0382V20.6382C24.0398 20.5255 23.995 20.4174 23.9154 20.3377C23.8357 20.258 23.7275 20.2132 23.6148 20.2132H2.36482Z" fill="black"/>
<path d="M4.48982 23.6164C4.15172 23.6164 3.82726 23.482 3.58824 23.243C3.34922 23.0039 3.21484 22.6794 3.21484 22.3414C3.21484 22.0033 3.34917 21.6788 3.58824 21.4398C3.8273 21.2008 4.15176 21.0664 4.48982 21.0664C4.82788 21.0664 5.15238 21.2007 5.3914 21.4398C5.63042 21.6789 5.76479 22.0033 5.76479 22.3414C5.76479 22.6794 5.63047 23.0039 5.3914 23.243C5.15234 23.482 4.82788 23.6164 4.48982 23.6164ZM4.48982 21.9164C4.31792 21.9164 4.16291 22.02 4.09727 22.1788C4.03143 22.3376 4.06767 22.5203 4.18928 22.6419C4.3109 22.7635 4.49361 22.7998 4.65242 22.7339C4.81123 22.6683 4.91482 22.5133 4.91482 22.3414C4.91482 22.2287 4.87004 22.1205 4.79036 22.0408C4.71067 21.9611 4.60252 21.9164 4.48982 21.9164Z" fill="black"/>
<path d="M7.88826 23.6164C7.55016 23.6164 7.22569 23.482 6.98667 23.243C6.74765 23.0039 6.61328 22.6794 6.61328 22.3414C6.61328 22.0033 6.74761 21.6788 6.98667 21.4398C7.22574 21.2008 7.5502 21.0664 7.88826 21.0664C8.22631 21.0664 8.55082 21.2007 8.78984 21.4398C9.02886 21.6789 9.16323 22.0033 9.16323 22.3414C9.16323 22.6794 9.0289 23.0039 8.78984 23.243C8.55078 23.482 8.22631 23.6164 7.88826 23.6164ZM7.88826 21.9164C7.71636 21.9164 7.56135 22.02 7.4957 22.1788C7.42986 22.3376 7.4661 22.5203 7.58772 22.6419C7.70934 22.7635 7.89205 22.7998 8.05086 22.7339C8.20966 22.6683 8.31326 22.5133 8.31326 22.3414C8.31326 22.2287 8.26848 22.1205 8.18879 22.0408C8.10911 21.9611 8.00096 21.9164 7.88826 21.9164Z" fill="black"/>
<path d="M11.2906 23.6164C10.9525 23.6164 10.628 23.482 10.389 23.243C10.15 23.0039 10.0156 22.6794 10.0156 22.3414C10.0156 22.0033 10.15 21.6788 10.389 21.4398C10.6281 21.2008 10.9525 21.0664 11.2906 21.0664C11.6287 21.0664 11.9532 21.2007 12.1922 21.4398C12.4312 21.6789 12.5656 22.0033 12.5656 22.3414C12.5656 22.6794 12.4312 23.0039 12.1922 23.243C11.9531 23.482 11.6287 23.6164 11.2906 23.6164ZM11.2906 21.9164C11.1187 21.9164 10.9637 22.02 10.898 22.1788C10.8322 22.3376 10.8684 22.5203 10.9901 22.6419C11.1117 22.7635 11.2944 22.7998 11.4532 22.7339C11.612 22.6683 11.7156 22.5133 11.7156 22.3414C11.7156 22.2287 11.6708 22.1205 11.5911 22.0408C11.5114 21.9611 11.4033 21.9164 11.2906 21.9164Z" fill="black"/>
<path d="M22.7656 23.6164H14.6906C14.4559 23.6164 14.2656 23.4261 14.2656 23.1914V21.4914C14.2656 21.2567 14.4559 21.0664 14.6906 21.0664H22.7656C22.8783 21.0664 22.9865 21.1112 23.0662 21.1909C23.1458 21.2706 23.1906 21.3787 23.1906 21.4914V23.1914C23.1906 23.3041 23.1458 23.4123 23.0662 23.4919C22.9865 23.5716 22.8783 23.6164 22.7656 23.6164ZM15.1156 22.7664H22.3406V21.9164H15.1156V22.7664Z" fill="black"/>
</svg>