<svg width="38" height="38"
                                            viewBox="0 0 28 28" fill="none" xmlns="http://www.w3.org/2000/svg">
                                            <path
                                                d="M26.6343 23.7636H26.103V8.14502C26.1022 7.55342 25.867 6.98634 25.4488 6.56795C25.0304 6.14978 24.4633 5.91452 23.8717 5.91374H20.2592V4.10747C20.2585 3.51587 20.0232 2.94879 19.605 2.5304C19.1866 2.11223 18.6195 1.87697 18.0279 1.87619V1.34492C18.0278 1.09143 17.9268 0.848371 17.7475 0.669094C17.5682 0.489798 17.3252 0.388861 17.0717 0.388672H16.4342C16.1807 0.388862 15.9376 0.489798 15.7584 0.669094C15.5791 0.848391 15.4781 1.09144 15.478 1.34492V1.87619C14.8864 1.87695 14.3193 2.11222 13.9009 2.5304C13.4827 2.94876 13.2475 3.51587 13.2467 4.10747V5.91374H4.10942C3.51782 5.9145 2.95075 6.14977 2.53235 6.56795C2.11418 6.98631 1.87892 7.55342 1.87814 8.14502V23.7636H1.34687C1.09339 23.7638 0.850324 23.8648 0.671047 24.0441C0.491751 24.2234 0.390814 24.4664 0.390625 24.7199V25.3574C0.391384 25.949 0.626653 26.5161 1.04483 26.9345C1.46319 27.3526 2.0303 27.5879 2.6219 27.5887H25.3592C25.9508 27.5879 26.5178 27.3526 26.9362 26.9345C27.3544 26.5161 27.5897 25.949 27.5904 25.3574V24.7199C27.5902 24.4664 27.4893 24.2233 27.31 24.0441C27.1307 23.8648 26.8877 23.7638 26.6342 23.7636H26.6343ZM18.0153 3.81001C18.0225 3.76789 18.0268 3.7252 18.0282 3.68251V2.51379C18.4507 2.51417 18.8558 2.68227 19.1546 2.9811C19.4534 3.27993 19.6215 3.685 19.6219 4.10752V6.23252C19.6215 6.65505 19.4534 7.06013 19.1546 7.35894C18.8558 7.65775 18.4507 7.82587 18.0282 7.82625V6.44498C18.0268 6.40229 18.0225 6.3596 18.0153 6.31748C18.2253 6.13628 18.3465 5.87255 18.3469 5.59498V4.53248C18.3465 4.2549 18.2253 3.99119 18.0153 3.81001ZM13.6044 18.7914C14.2487 18.8487 14.8874 18.6328 15.3649 18.1964C15.8425 17.76 16.1148 17.1432 16.1157 16.4964V14.7717C16.5359 14.8613 16.9704 14.8613 17.3907 14.7717V16.4964C17.4357 18.5739 15.4173 20.3019 13.3625 19.9535C12.5235 19.8163 11.7615 19.3832 11.2141 18.7328C10.6667 18.0823 10.3702 17.2574 10.3782 16.4074V15.0939C10.7005 15.1318 10.9977 15.2867 11.2136 15.5291C11.4293 15.7716 11.5486 16.0847 11.549 16.4093C11.5484 17.6304 12.4516 18.677 13.6044 18.7914ZM12.1207 15.9014H15.4782V16.4964C15.4782 16.9635 15.2822 17.409 14.9378 17.7245C14.5935 18.04 14.1324 18.1964 13.667 18.1556C13.2492 18.0964 12.8675 17.886 12.5946 17.5642C12.3216 17.2424 12.1761 16.8316 12.186 16.4096C12.1869 16.2381 12.1651 16.0672 12.1207 15.9013L12.1207 15.9014ZM15.4782 15.2639H11.8165C11.4946 14.8188 11.0018 14.5277 10.4565 14.4606C10.2753 14.4397 10.094 14.4966 9.95736 14.6175C9.82075 14.7383 9.74201 14.9116 9.74069 15.0939V15.2639H5.17196C4.82665 15.2641 4.49085 15.377 4.21569 15.5857V8.57002C4.21569 8.39395 4.35837 8.25127 4.53444 8.25127H14.5343C14.8295 8.39091 15.1519 8.46339 15.4785 8.46377V8.95594C14.7567 9.28304 14.189 9.87613 13.8938 10.6116C13.5986 11.347 13.5986 12.1681 13.8938 12.9035C14.189 13.639 14.7567 14.2321 15.4785 14.5591L15.4782 15.2639ZM5.17181 15.9014H9.74054V16.4074C9.7394 17.1737 9.94526 17.9262 10.3365 18.5853C10.7277 19.2445 11.2899 19.7854 11.9633 20.1514H5.17201C4.91852 20.1512 4.67546 20.0503 4.49618 19.871C4.31689 19.6917 4.21595 19.4486 4.21576 19.1951V16.8576C4.21595 16.6042 4.31689 16.3611 4.49618 16.1818C4.67548 16.0025 4.91853 15.9016 5.17201 15.9014L5.17181 15.9014ZM5.17181 20.7886H22.8091C23.1544 20.7885 23.4902 20.6756 23.7653 20.4669V21.5324C23.7653 21.7085 23.6227 21.8512 23.4466 21.8512H4.53385C4.35778 21.8512 4.2151 21.7085 4.2151 21.5324V20.4669C4.49021 20.6756 4.82603 20.7885 5.17137 20.7886H5.17181ZM22.8091 20.1511H15.807C16.4756 19.8026 17.0359 19.2778 17.4275 18.6335C17.8191 17.9893 18.0267 17.2502 18.028 16.4961V15.9011H22.8093C23.0627 15.9013 23.3058 16.0023 23.4851 16.1816C23.6644 16.3609 23.7653 16.6039 23.7655 16.8574V19.1949C23.7653 19.4484 23.6644 19.6914 23.4851 19.8707C23.3058 20.05 23.0627 20.1509 22.8093 20.1511L22.8091 20.1511ZM22.8091 15.2639H18.0278V14.5592C18.7495 14.2321 19.3172 13.639 19.6124 12.9036C19.9077 12.1682 19.9077 11.347 19.6124 10.6116C19.3172 9.8762 18.7495 9.28309 18.0278 8.95601V8.46384C18.3543 8.46346 18.6767 8.39098 18.9719 8.25134H23.4466C23.6226 8.25134 23.7653 8.39402 23.7653 8.57009V15.5857C23.4902 15.377 23.1544 15.2641 22.809 15.264L22.8091 15.2639ZM16.1154 1.34526C16.1154 1.16919 16.2581 1.02651 16.4342 1.02651H17.0717C17.2478 1.02651 17.3904 1.16919 17.3904 1.34526V3.68276C17.3904 3.85883 17.2478 4.00151 17.0717 4.00151H16.4342C16.2581 4.00151 16.1154 3.85883 16.1154 3.68276V1.34526ZM15.7967 4.53276C15.7976 4.4914 15.8067 4.4506 15.8236 4.41265C15.994 4.5578 16.2103 4.63806 16.4342 4.63901H17.0717C17.2956 4.63806 17.5119 4.5578 17.6822 4.41265C17.6991 4.4506 17.7082 4.49139 17.7092 4.53276V5.59526C17.7082 5.63662 17.6991 5.67741 17.6822 5.71536C17.5118 5.57021 17.2955 5.48996 17.0717 5.48901H16.4342C16.2103 5.48996 15.994 5.57021 15.8236 5.71536C15.8067 5.67741 15.7976 5.63662 15.7967 5.59526V4.53276ZM17.3904 6.44526V8.74366C16.9702 8.6541 16.5357 8.6541 16.1154 8.74366V6.44526C16.1154 6.26919 16.2581 6.12651 16.4342 6.12651H17.0717C17.2477 6.12651 17.3904 6.26919 17.3904 6.44526ZM16.7529 9.31398C17.4011 9.31398 18.0226 9.57145 18.481 10.0296C18.9392 10.488 19.1966 11.1096 19.1966 11.7577C19.1966 12.4058 18.9392 13.0274 18.481 13.4858C18.0226 13.944 17.4011 14.2014 16.7529 14.2014C16.1048 14.2014 15.4832 13.944 15.0248 13.4858C14.5666 13.0274 14.3092 12.4058 14.3092 11.7577C14.31 11.1098 14.5676 10.4886 15.0258 10.0306C15.4838 9.57235 16.105 9.31471 16.753 9.31394L16.7529 9.31398ZM13.8842 4.10761C13.8846 3.68508 14.0527 3.28 14.3515 2.98119C14.6503 2.68238 15.0554 2.51426 15.4779 2.51388V3.68261C15.4792 3.7253 15.4836 3.76799 15.4908 3.81011C15.2808 3.9913 15.1595 4.25503 15.1592 4.53261V5.59511C15.1596 5.87268 15.2808 6.13644 15.4908 6.31761C15.4836 6.35973 15.4792 6.40242 15.4779 6.44511V7.82638C15.0554 7.826 14.6503 7.6579 14.3515 7.35907C14.0527 7.06025 13.8846 6.65517 13.8842 6.23265V4.10761ZM2.51556 8.14511C2.51594 7.72258 2.68405 7.3175 2.98287 7.01869C3.2817 6.71988 3.68677 6.55176 4.10929 6.55138H13.2723C13.3281 6.93976 13.4857 7.30633 13.7292 7.61388H4.53459C4.28111 7.61407 4.03805 7.71501 3.85877 7.8943C3.67947 8.0736 3.57854 8.31665 3.57835 8.57013V21.5329C3.57854 21.7864 3.67947 22.0294 3.85877 22.2087C4.03807 22.388 4.28111 22.4889 4.53459 22.4891H23.4473C23.7008 22.4889 23.9439 22.388 24.1232 22.2087C24.3025 22.0294 24.4034 21.7864 24.4036 21.5329V8.57013C24.4034 8.31664 24.3025 8.07358 24.1232 7.8943C23.9439 7.71501 23.7008 7.61407 23.4473 7.61388H19.7775C20.0209 7.30633 20.1786 6.93976 20.2344 6.55138H23.8723C24.2948 6.55176 24.6999 6.71987 24.9987 7.01869C25.2975 7.31752 25.4657 7.72259 25.466 8.14511V23.7637H2.51603L2.51556 8.14511ZM16.8432 24.4015C16.7777 24.5874 16.6563 24.7485 16.4956 24.8627C16.3347 24.9768 16.1427 25.0384 15.9456 25.039H12.0993C11.9021 25.0384 11.7101 24.9768 11.5494 24.8625C11.3887 24.7485 11.2673 24.5874 11.2019 24.4015H16.8432ZM26.9528 25.3578C26.9524 25.7803 26.7843 26.1854 26.4855 26.4842C26.1867 26.783 25.7816 26.9511 25.3591 26.9515H2.62183C2.1993 26.9511 1.79422 26.783 1.49541 26.4842C1.1966 26.1854 1.02848 25.7803 1.0281 25.3578V24.7203C1.0281 24.5442 1.17078 24.4015 1.34685 24.4015H10.5375C10.6115 24.7612 10.8071 25.0844 11.0917 25.3168C11.3761 25.549 11.7319 25.676 12.0992 25.6765H15.9455C16.3128 25.6759 16.6686 25.549 16.9529 25.3168C17.2375 25.0844 17.4332 24.7612 17.5071 24.4015H26.6342C26.8103 24.4015 26.953 24.5442 26.953 24.7203L26.9528 25.3578Z"
                                                fill="black" />
                                            <path
                                                d="M5.6871 19.193C5.81156 19.3174 6.01324 19.3174 6.13771 19.193L6.7788 18.5519L7.4199 19.193C7.47928 19.2545 7.56105 19.2896 7.64644 19.2903C7.73201 19.2911 7.81416 19.2575 7.87469 19.197C7.93502 19.1364 7.96879 19.0543 7.96803 18.9689C7.96728 18.8833 7.93218 18.8017 7.8707 18.7424L7.22961 18.1013L7.8707 17.4602C7.99156 17.335 7.98985 17.1363 7.86672 17.0134C7.74377 16.8904 7.54512 16.8885 7.4199 17.0094L6.77881 17.6505L6.13771 17.0094C6.01268 16.8885 5.81384 16.8904 5.69089 17.0134C5.56795 17.1363 5.56624 17.335 5.6871 17.4602L6.32819 18.1013L5.6871 18.7424C5.56263 18.8668 5.56263 19.0685 5.6871 19.193Z"
                                                fill="black" />
                                            <path
                                                d="M22.2966 17.0094C22.1721 16.8849 21.9704 16.8849 21.846 17.0094L21.2049 17.6505L20.5638 17.0094C20.4386 16.8885 20.2399 16.8904 20.117 17.0133C19.9938 17.1363 19.9921 17.3349 20.113 17.4602L20.7541 18.1013L20.113 18.7424C20.0515 18.8017 20.0164 18.8833 20.0156 18.9689C20.0149 19.0543 20.0486 19.1364 20.109 19.197C20.1695 19.2575 20.2517 19.2911 20.3372 19.2903C20.4226 19.2895 20.5044 19.2544 20.5638 19.193L21.2049 18.5519L21.846 19.193C21.9054 19.2544 21.9869 19.2895 22.0723 19.2903C22.1579 19.2911 22.24 19.2575 22.3006 19.197C22.3611 19.1364 22.3947 19.0543 22.3939 18.9689C22.3932 18.8833 22.3581 18.8017 22.2966 18.7424L21.6555 18.1013L22.2966 17.4602C22.421 17.3357 22.421 17.1338 22.2966 17.0094Z"
                                                fill="black" />
                                            <path
                                                d="M16.7515 12.925C17.0896 12.925 17.4141 12.7906 17.6531 12.5516C17.8921 12.3125 18.0265 11.988 18.0265 11.65C18.0265 11.3119 17.8922 10.9874 17.6531 10.7484C17.4141 10.5094 17.0896 10.375 16.7515 10.375C16.4135 10.375 16.089 10.5093 15.85 10.7484C15.6109 10.9875 15.4766 11.3119 15.4766 11.65C15.4769 11.9881 15.6113 12.3122 15.8503 12.5512C16.0894 12.7903 16.4135 12.9246 16.7516 12.925L16.7515 12.925ZM16.7515 11.0125C17.0094 11.0125 17.2418 11.1678 17.3405 11.406C17.4391 11.6443 17.3847 11.9184 17.2023 12.1008C17.02 12.2831 16.7458 12.3376 16.5075 12.2389C16.2694 12.1402 16.114 11.9078 16.114 11.65C16.114 11.2978 16.3994 11.0125 16.7515 11.0125Z"
                                                fill="black" />
                                        </svg>