<svg width="38" height="38" viewBox="0 0 26 28" fill="none" xmlns="http://www.w3.org/2000/svg">
<path d="M25.5667 1.94825C25.5667 1.14075 24.7592 0.545749 23.9942 0.800749C20.0842 2.03325 16.387 2.41575 13.0715 2.41575H12.944C9.62899 2.41575 5.88899 1.99075 2.02125 0.758249C1.21375 0.545749 0.40625 1.14075 0.40625 1.94825C0.40625 6.53825 1.55375 19.4582 12.9013 27.2355C12.9438 27.2355 12.9863 27.278 12.9863 27.278C12.9863 27.278 13.0288 27.2355 13.0713 27.2355C24.4185 19.4582 25.524 6.53825 25.5663 1.94825H25.5667ZM11.9667 25.1955C1.21399 16.3555 1.55399 1.99051 1.55399 1.99051C5.25149 3.35051 8.82125 3.77551 11.9667 3.77551V25.1955Z" fill="black"/>
</svg>