<svg width="38" height="38" viewBox="0 0 28 24" fill="none" xmlns="http://www.w3.org/2000/svg">
<path d="M25.8906 0.537109H2.09063C1.63982 0.537679 1.20779 0.716974 0.889065 1.03555C0.570504 1.3543 0.391208 1.78632 0.390625 2.23711V20.0871C0.391194 20.5379 0.57049 20.9699 0.889065 21.2887C1.20782 21.6072 1.63983 21.7865 2.09063 21.7871H11.0156V22.6371H8.46563C8.23093 22.6371 8.04063 22.8274 8.04063 23.0621C8.04063 23.2968 8.23093 23.4871 8.46563 23.4871H19.5156C19.7503 23.4871 19.9406 23.2968 19.9406 23.0621C19.9406 22.8274 19.7503 22.6371 19.5156 22.6371H16.9656V21.7871H25.8906C26.3414 21.7865 26.7735 21.6072 27.0922 21.2887C27.4107 20.9699 27.59 20.5379 27.5906 20.0871V2.23711C27.5901 1.78631 27.4108 1.35428 27.0922 1.03555C26.7734 0.716989 26.3414 0.537692 25.8906 0.537109ZM16.1156 22.6371H11.8656V21.7871H16.1156V22.6371ZM26.7406 19.0246H1.24063V2.23735C1.24081 2.01195 1.33056 1.79585 1.48974 1.63648C1.64912 1.47729 1.86522 1.38755 2.09062 1.38736H25.8906C26.116 1.38755 26.3321 1.47729 26.4915 1.63648C26.6507 1.79585 26.7404 2.01196 26.7406 2.23735L26.7406 19.0246Z" fill="black"/>
<path d="M23.9786 2.44842C23.4982 2.44842 23.0472 2.68064 22.7681 3.07149C22.4888 3.46253 22.4156 3.96438 22.5715 4.41876C22.7275 4.87317 23.0931 5.22437 23.5536 5.36173V9.03591H21.0036V5.84842C21.0028 5.61391 20.8131 5.42417 20.5786 5.42342H14.4159V5.14925C14.8763 5.01208 15.242 4.66087 15.3979 4.20648C15.5537 3.75207 15.4806 3.25021 15.2014 2.8594C14.9221 2.46836 14.4713 2.23633 13.9909 2.23633C13.5104 2.23633 13.0597 2.46837 12.7804 2.8594C12.5011 3.25025 12.428 3.7521 12.5838 4.20648C12.7398 4.66089 13.1054 5.01209 13.5659 5.14925V5.42342H7.40313C7.16862 5.42417 6.97888 5.61391 6.97813 5.84842V9.03591H4.42813V5.36173C4.88861 5.22455 5.25423 4.87334 5.41019 4.41896C5.56596 3.96455 5.49291 3.46268 5.21363 3.07188C4.93434 2.68084 4.48355 2.4488 4.00313 2.4488C3.52271 2.4488 3.07192 2.68084 2.79263 3.07188C2.51335 3.46273 2.4403 3.96457 2.59607 4.41896C2.75203 4.87337 3.11763 5.22456 3.57814 5.36173V13.0734H8.46539V13.1818C8.46558 13.4225 8.54337 13.6568 8.68738 13.8498C8.83119 14.0428 9.03364 14.1841 9.26436 14.2528C9.33437 14.459 9.41747 14.6605 9.5131 14.8563C9.39888 15.0681 9.356 15.3111 9.39072 15.5493C9.42563 15.7874 9.53625 16.0078 9.70644 16.178L10.4608 16.9324C10.6699 17.1428 10.9547 17.2606 11.2512 17.2597C11.4373 17.2601 11.6206 17.2139 11.7845 17.1257C11.9794 17.2217 12.1803 17.3048 12.386 17.3745C12.4547 17.6052 12.596 17.8076 12.789 17.9514C12.9819 18.0954 13.2162 18.1732 13.457 18.1734H14.5237C14.7645 18.1732 14.9988 18.0954 15.1917 17.9514C15.3847 17.8076 15.5261 17.6052 15.5947 17.3745C15.8004 17.3048 16.0013 17.2217 16.1962 17.1257C16.3601 17.2139 16.5434 17.2601 16.7295 17.2597C17.0261 17.2606 17.3109 17.1428 17.5199 16.9324L18.2743 16.178C18.4445 16.0078 18.5551 15.7874 18.59 15.5493C18.6247 15.3112 18.5818 15.0681 18.4676 14.8563C18.5632 14.6605 18.6463 14.459 18.7164 14.2528C18.9471 14.1841 19.1495 14.0428 19.2933 13.8498C19.4373 13.6568 19.5151 13.4225 19.5153 13.1818V13.0734H24.4026V5.36173C24.8631 5.22436 25.2287 4.87315 25.3846 4.41876C25.5406 3.96435 25.4674 3.46249 25.1881 3.07149C24.909 2.68064 24.458 2.44842 23.9776 2.44842H23.9786ZM13.9913 14.3484C13.5405 14.3484 13.1081 14.1693 12.7892 13.8506C12.4704 13.5316 12.2913 13.0992 12.2913 12.6484C12.2913 12.1976 12.4704 11.7652 12.7892 11.4463C13.1081 11.1275 13.5405 10.9484 13.9913 10.9484C14.4421 10.9484 14.8746 11.1275 15.1935 11.4463C15.5122 11.7652 15.6913 12.1976 15.6913 12.6484C15.6915 13.0994 15.5124 13.5318 15.1935 13.8506C14.8747 14.1695 14.4423 14.3486 13.9913 14.3484ZM23.5541 12.2234H19.5166V12.1141C19.5162 11.8736 19.4384 11.6394 19.2946 11.4465C19.1508 11.2535 18.9485 11.1122 18.718 11.0433C18.6484 10.8374 18.5653 10.6365 18.4689 10.4416C18.5833 10.2299 18.6264 9.98684 18.5916 9.74852C18.5569 9.5104 18.4463 9.28974 18.2761 9.11937L17.5206 8.36384C17.3502 8.19365 17.1295 8.08304 16.8914 8.04832C16.6531 8.0136 16.4101 8.05667 16.1983 8.17107C16.0035 8.07469 15.8025 7.99159 15.5967 7.92195C15.5278 7.69143 15.3865 7.48917 15.1935 7.34536C15.0005 7.20155 14.7664 7.12376 14.5258 7.12338H13.4573C13.2167 7.12376 12.9825 7.20155 12.7896 7.34536C12.5968 7.48918 12.4553 7.69143 12.3864 7.92195C12.1806 7.99159 11.9796 8.07469 11.7848 8.17107C11.573 8.05666 11.33 8.01359 11.0918 8.04832C10.8535 8.08304 10.6329 8.19365 10.4625 8.36384L9.70678 9.11956L9.70697 9.11937C9.53697 9.28975 9.42654 9.51041 9.39182 9.74852C9.3571 9.98663 9.40017 10.2295 9.51438 10.4412C9.418 10.6363 9.33471 10.8372 9.26508 11.0433C9.03455 11.1122 8.8323 11.2537 8.68849 11.4465C8.54467 11.6394 8.46688 11.8736 8.4665 12.1141V12.2234H4.429V9.88592H7.404C7.6387 9.88592 7.829 9.69562 7.829 9.46092V6.27342H20.154V9.46092C20.154 9.69562 20.3443 9.88592 20.579 9.88592H23.554L23.5541 12.2234Z" fill="black"/>
</svg>