<svg width="38" height="38"
                                            viewBox="0 0 30 30" fill="none" xmlns="http://www.w3.org/2000/svg">
                                            <path
                                                d="M5.97031 21.1758C4.92254 21.1758 4.07031 22.028 4.07031 23.0758C4.07031 24.1235 4.92254 24.9758 5.97031 24.9758C7.01808 24.9758 7.87031 24.1235 7.87031 23.0758C7.87031 22.028 7.01808 21.1758 5.97031 21.1758ZM5.97031 24.0258C5.44633 24.0258 5.02031 23.5998 5.02031 23.0758C5.02031 22.5518 5.44633 22.1258 5.97031 22.1258C6.49429 22.1258 6.92031 22.5518 6.92031 23.0758C6.92031 23.5998 6.49429 24.0258 5.97031 24.0258Z"
                                                fill="black" />
                                            <path
                                                d="M11.272 21.1756C10.4987 19.3996 8.74414 18.2753 6.77096 18.3279C4.30666 18.4049 2.24467 20.4727 2.17383 22.9369C2.13735 24.2332 2.6132 25.4578 3.51528 26.386C4.41821 27.3145 5.62754 27.8256 6.92236 27.8256C8.81433 27.8256 10.5213 26.6936 11.2714 24.9756H12.9158L13.3908 24.0256H14.0474V24.9756H16.7158L17.1908 24.0256H17.8474V24.9756H19.4163L21.1724 23.8047V22.3464L19.4163 21.1757L11.272 21.1756ZM20.2226 23.2966L19.1287 24.0256H18.7976V23.0756H16.6042L16.1292 24.0256H14.9977V23.0756H12.8042L12.3292 24.0256H10.6135L10.5019 24.342C9.9646 25.8571 8.52665 26.8756 6.92267 26.8756C5.88679 26.8756 4.9192 26.4666 4.19758 25.7237C3.47596 24.9809 3.09509 24.001 3.12456 22.9634C3.18054 20.9922 4.83033 19.3387 6.80117 19.2775V19.2771C6.84146 19.2765 6.88176 19.2756 6.92183 19.2756C8.53217 19.2756 9.96037 20.2811 10.5015 21.8092L10.6135 22.1256H19.1293L20.2226 22.8547L20.2226 23.2966Z"
                                                fill="black" />
                                            <path d="M2.17188 14.5254H3.12188V15.4754H2.17188V14.5254Z" fill="black" />
                                            <path d="M4.07031 14.5254H5.02031V15.4754H4.07031V14.5254Z" fill="black" />
                                            <path d="M5.97656 14.5254H6.92656V15.4754H5.97656V14.5254Z" fill="black" />
                                            <path d="M20.2266 26.875H21.1766V27.825H20.2266V26.875Z" fill="black" />
                                            <path d="M18.3203 26.875H19.2703V27.825H18.3203V26.875Z" fill="black" />
                                            <path d="M16.4219 26.875H17.3719V27.825H16.4219V26.875Z" fill="black" />
                                            <path d="M20.2266 18.3262H21.1766V19.2762H20.2266V18.3262Z" fill="black" />
                                            <path d="M18.3203 18.3262H19.2703V19.2762H18.3203V18.3262Z" fill="black" />
                                            <path d="M16.4219 18.3262H17.3719V19.2762H16.4219V18.3262Z" fill="black" />
                                            <path d="M20.2266 3.125H21.1766V6.925H20.2266V3.125Z" fill="black" />
                                            <path
                                                d="M17.3719 6.925H18.3219C18.8459 6.925 19.2719 6.49898 19.2719 5.975V4.075C19.2719 3.55102 18.8459 3.125 18.3219 3.125H17.3719C16.8479 3.125 16.4219 3.55102 16.4219 4.075V5.975C16.4219 6.49898 16.8479 6.925 17.3719 6.925ZM17.3719 4.075H18.3219L18.3223 5.975H17.3719L17.3719 4.075Z"
                                                fill="black" />
                                            <path d="M25.9219 3.125H26.8719V6.925H25.9219V3.125Z" fill="black" />
                                            <path
                                                d="M23.075 6.925H24.025C24.549 6.925 24.975 6.49898 24.975 5.975V4.075C24.975 3.55102 24.549 3.125 24.025 3.125H23.075C22.551 3.125 22.125 3.55102 22.125 4.075V5.975C22.125 6.49898 22.551 6.925 23.075 6.925ZM23.075 4.075H24.025L24.0254 5.975H23.075L23.075 4.075Z"
                                                fill="black" />
                                            <path
                                                d="M27.7418 8.87713C28.9393 8.01409 29.7234 6.61091 29.7234 5.02539C29.7234 2.40632 27.5925 0.275391 24.9734 0.275391H18.3234C15.7044 0.275391 13.5734 2.40632 13.5734 5.02539C13.5734 6.37531 14.142 7.59273 15.0494 8.45809C13.4846 8.83004 11.6734 9.52025 11.6734 10.7254V14.5254H9.06094L8.34844 13.5754C7.90249 12.9808 7.19188 12.6254 6.44844 12.6254H2.64844C1.33879 12.6254 0.273438 13.6907 0.273438 15.0004V27.3504C0.273438 28.66 1.33879 29.7254 2.64844 29.7254H20.6984C22.0081 29.7254 23.0734 28.66 23.0734 27.3504V24.8823C26.3681 24.623 29.7234 23.7783 29.7234 22.1254V10.7254C29.7234 9.98488 29.0504 9.367 27.7418 8.87713ZM14.5232 5.02539C14.5232 2.93007 16.2279 1.22539 18.3232 1.22539H24.9732C27.0685 1.22539 28.7732 2.93007 28.7732 5.02539C28.7732 7.12071 27.0685 8.82539 24.9732 8.82539H23.8341L21.9807 10.5801L21.9118 10.6618C21.8406 10.7672 21.6482 10.7093 21.6482 10.5814V8.82536H18.3232C16.2279 8.82536 14.5232 7.12071 14.5232 5.02539ZM12.6232 12.0662C13.4755 12.6087 14.8324 13.0082 16.4232 13.2591V14.5252H12.6232V12.0662ZM2.64822 13.5752H6.44822C6.89417 13.5752 7.32038 13.7886 7.58822 14.1452L8.58572 15.4752H20.698C21.3163 15.4752 21.8388 15.8737 22.0356 16.4252H1.223V15.0002C1.223 14.2146 1.86233 13.5752 2.648 13.5752H2.64822ZM20.6982 28.7752H2.64822C1.86254 28.7752 1.22322 28.1359 1.22322 27.3502V17.3752H22.1232V27.3502C22.1232 28.1359 21.4839 28.7752 20.6982 28.7752ZM20.6982 14.5252H17.3732V13.3899C18.4362 13.5125 19.5686 13.5752 20.6982 13.5752C21.8279 13.5752 22.9602 13.5131 24.0232 13.3899V23.8345C23.721 23.8709 23.4023 23.9015 23.0732 23.9286V16.9002C23.0732 15.5906 22.0079 14.5252 20.6982 14.5252ZM24.9732 23.6979V20.8625C26.0714 20.6887 27.7329 20.3324 28.7732 19.6778V22.1251C28.7732 22.5855 27.4371 23.288 24.9732 23.6979V23.6979ZM24.9732 19.9011V17.0621C26.0714 16.8882 27.7329 16.532 28.7732 15.8774V18.3251C28.7732 18.7369 27.5891 19.4708 24.9732 19.9011ZM24.9732 16.1011V13.2583C26.5641 13.0075 27.921 12.608 28.7732 12.0655V14.5251C28.7732 14.9374 27.5891 15.6708 24.9732 16.1011ZM20.6982 12.6251C15.4732 12.6251 12.6232 11.3698 12.6232 10.7251C12.6232 10.3799 13.5699 9.67399 16.085 9.21234C16.7524 9.57092 17.5143 9.77512 18.3232 9.77512H20.6982V10.5812C20.6982 11.1844 21.1889 11.6751 21.7922 11.6751C22.1385 11.6751 22.461 11.5127 22.6671 11.2381L24.2124 9.77513H24.9732C25.5329 9.77513 26.0676 9.67292 26.5668 9.49437C28.3048 9.96937 28.7732 10.5038 28.7732 10.7251C28.7732 11.3698 25.9232 12.6251 20.6982 12.6251Z"
                                                fill="black" />
                                            <path d="M2.17188 18.3262H3.12188V19.2762H2.17188V18.3262Z" fill="black" />
                                            <path d="M2.17188 26.875H3.12188V27.825H2.17188V26.875Z" fill="black" />
                                        </svg>