<svg width="38" height="38" viewBox="0 0 34 34" fill="none" xmlns="http://www.w3.org/2000/svg">
<path d="M18.1329 32.6394H4.66547C2.97907 32.6394 1.60547 31.2658 1.60547 29.5794V4.41937C1.60547 2.73298 2.97907 1.35938 4.66547 1.35938H18.1329C19.8193 1.35938 21.1929 2.73298 21.1929 4.41937V8.89718L20.8087 9.20318C20.7067 9.28477 20.5945 9.38678 20.4687 9.51258C19.3773 10.6074 18.7755 12.066 18.7755 13.613V16.2072C18.7755 16.7886 18.5409 17.3632 18.1295 17.7814L18.1227 17.7882L16.5043 19.4066H21.1963V29.5828C21.1963 31.2692 19.8227 32.6428 18.1363 32.6428L18.1329 32.6394ZM4.66547 3.39937C4.10447 3.39937 3.64547 3.85838 3.64547 4.41937V29.5794C3.64547 30.1404 4.10447 30.5994 4.66547 30.5994H18.1329C18.6939 30.5994 19.1529 30.1404 19.1529 29.5794V21.4432H11.5709L16.6743 16.3466C16.7117 16.3092 16.7321 16.2582 16.7321 16.2072V13.613C16.7321 11.522 17.5447 9.55338 19.0237 8.07097C19.0679 8.02677 19.1121 7.98258 19.1529 7.94178V4.41937C19.1529 3.85838 18.6939 3.39937 18.1329 3.39937H4.66547Z" fill="black"/>
<path d="M24.5617 21.4451H11.5703L16.6771 16.345C16.7077 16.3111 16.7315 16.26 16.7315 16.209V13.6149C16.7315 11.5239 17.5441 9.55525 19.0231 8.07285C19.2067 7.88925 19.3733 7.73965 19.5399 7.60705C20.8523 6.49865 22.4775 5.86285 24.2115 5.79145C24.3169 5.78465 24.4393 5.78125 24.5651 5.78125C26.6561 5.78125 28.6247 6.59385 30.1071 8.07285C31.5861 9.55525 32.3987 11.5239 32.3987 13.6149C32.3987 15.4271 31.7629 17.1985 30.6103 18.5993C29.1177 20.4081 26.9145 21.4451 24.5651 21.4451H24.5617ZM16.5003 19.4051H24.5617C26.2991 19.4051 27.9277 18.6367 29.0327 17.3005C29.8861 16.2635 30.3553 14.9545 30.3553 13.6149C30.3553 12.0679 29.7535 10.6093 28.6621 9.51445C27.5673 8.42305 26.1121 7.82125 24.5617 7.82125C24.4801 7.82125 24.4019 7.82125 24.3169 7.82805C23.0147 7.88245 21.8145 8.35165 20.8285 9.18465C20.7027 9.28665 20.5905 9.38865 20.4647 9.51445C19.3733 10.6093 18.7715 12.0679 18.7715 13.6149V16.209C18.7715 16.7904 18.5369 17.3651 18.1255 17.7832L16.5003 19.4051Z" fill="black"/>
<path d="M25.708 16.5481H21.1758V14.8481H25.708C26.49 14.8481 27.1258 14.2123 27.1258 13.4303C27.1258 12.6483 26.49 12.0125 25.708 12.0125H24.8342V10.3125H25.708C27.425 10.3125 28.8258 11.7099 28.8258 13.4303C28.8258 15.1507 27.4284 16.5481 25.708 16.5481Z" fill="black"/>
<path d="M25.5788 8.61719L21.1758 11.1604L25.5788 13.7036V8.61719Z" fill="black"/>
<path d="M11.4 29.7179C10.0298 29.7179 8.91797 28.6061 8.91797 27.2359C8.91797 25.8657 10.0332 24.7539 11.4 24.7539C12.7668 24.7539 13.882 25.8657 13.882 27.2359C13.882 28.6061 12.7702 29.7179 11.4 29.7179Z" fill="black"/>
</svg>