<svg width="38" height="38" viewBox="0 0 34 34" fill="none" xmlns="http://www.w3.org/2000/svg">
                            <path d="M30.6654 16.9987C30.6654 19.6282 29.9229 22.0837 28.6363 24.1679L24.9317 17.4987H28.332H28.8321L28.832 16.9987C28.8318 14.2714 27.8895 11.6279 26.1646 9.51539C24.4397 7.40288 22.038 5.95105 19.3659 5.40548C16.6937 4.85991 13.9151 5.2541 11.5002 6.52137C9.08519 7.78864 7.18209 9.85119 6.11281 12.3601C5.04352 14.869 4.87368 17.6703 5.63203 20.29C6.39038 22.9097 8.03035 25.1871 10.2745 26.7368C12.5187 28.2866 15.2293 29.0136 17.9478 28.7948C20.4517 28.5934 22.8207 27.601 24.7165 25.9698L25.6236 27.6013C23.192 29.5848 20.1457 30.6701 16.9994 30.6654H16.9987C9.45059 30.6654 3.33203 24.5468 3.33203 16.9987C3.33203 9.45059 9.45059 3.33203 16.9987 3.33203C24.5468 3.33203 30.6654 9.45059 30.6654 16.9987ZM20.7487 15.582V16.082H21.2487H22.1654V22.1654H11.832V16.082H12.7487H13.2487V15.582V14.1654C13.2487 13.1708 13.6438 12.217 14.347 11.5137C15.0503 10.8105 16.0041 10.4154 16.9987 10.4154C17.9933 10.4154 18.9471 10.8105 19.6503 11.5137C20.3536 12.217 20.7487 13.1708 20.7487 14.1654V15.582ZM17.0286 12.2496L17.0136 12.2487L16.9986 12.2487C16.5292 12.2488 16.0761 12.4211 15.7253 12.7331C15.3744 13.045 15.1503 13.4749 15.0954 13.9411L15.0937 13.9554L15.0928 13.9698L15.0829 14.1355L15.082 14.1504V14.1654V15.582V16.082H15.582H18.4154H18.9154V15.582V14.1654V14.1653C18.9153 13.6958 18.743 13.2427 18.431 12.8919C18.119 12.5411 17.6892 12.317 17.2229 12.262L17.2087 12.2604L17.1943 12.2595L17.0286 12.2496Z" stroke="black"/>
                            </svg>