<svg width="38" height="38" viewBox="0 0 50 50" fill="none" xmlns="http://www.w3.org/2000/svg">
<path d="M25.9526 5H29.7617V6.90457H27.8571V8.80914H24.0474V14.5243H20.2383V12.6191H22.1429V6.90457H25.9526V5Z" fill="black"/>
<path d="M5 5V18.3336H18.3336V5H5ZM16.4286 16.4286H6.905V6.905H16.4286V16.4286Z" fill="black"/>
<path d="M31.668 5V18.3336H45.0008V5H31.668ZM43.0958 16.4286H33.573V6.905H43.0965V16.4286H43.0958Z" fill="black"/>
<path d="M8.80859 8.80859H14.5232V14.5232H8.80859V8.80859Z" fill="black"/>
<path d="M35.4766 8.80859H41.1911V14.5232H35.4766V8.80859Z" fill="black"/>
<path d="M25.9531 10.7148H27.8577V12.6194H25.9531V10.7148Z" fill="black"/>
<path d="M27.8566 12.6211H29.7612V20.2404H27.8566V16.4304H25.952V18.3355H24.0469V14.5264H27.8566V12.6211Z" fill="black"/>
<path d="M20.2377 16.4297H22.1423V18.3348H24.0469V20.2397H22.1423V24.0488H24.0469V22.1443H25.952V20.2397H27.8566V25.954H24.0469V27.8585H22.1423V25.954H20.2377V22.1443H16.4277V20.2397H20.2377V16.4297Z" fill="black"/>
<path d="M8.80859 20.2383H12.6177V22.1434H8.80859V20.2383Z" fill="black"/>
<path d="M29.7617 20.2383H33.5717V22.1429H31.6671V24.0474H29.7617V20.2383Z" fill="black"/>
<path d="M35.4766 20.2383H37.3817V22.1434H35.4766V20.2383Z" fill="black"/>
<path d="M5 22.1445H8.80914V24.0491H10.7146V25.9542H8.80914V27.8588H6.90457V24.0491H5V22.1445Z" fill="black"/>
<path d="M12.6191 22.1445H16.4283V24.0491H14.5237V25.9542H16.4283V27.8588H12.6191V22.1445Z" fill="black"/>
<path d="M37.3814 22.1445H39.2868V24.0491H41.1914V29.7634H39.2868V27.8588H35.4763V29.7634H33.5723V25.9542H37.3814V22.1445Z" fill="black"/>
<path d="M16.4277 24.0469H18.3323V25.952H16.4277V24.0469Z" fill="black"/>
<path d="M43.0957 24.0469H45.0008V25.952H43.0957V24.0469Z" fill="black"/>
<path d="M18.3329 25.9531H20.2377V29.7623H16.4277V27.8577H18.3329V25.9531Z" fill="black"/>
<path d="M27.8574 25.9531H29.7626V27.8577H27.8574V25.9531Z" fill="black"/>
<path d="M5 27.8555H6.90457V29.7606H5V27.8555Z" fill="black"/>
<path d="M8.80859 27.8555H10.7132V29.7606H8.80859V27.8555Z" fill="black"/>
<path d="M24.0474 27.8555H27.8571V29.76H25.9526V33.57H24.0474V37.3792H22.1429V33.57H20.2383V29.76H22.1429V31.6649H24.0474V27.8555Z" fill="black"/>
<path d="M29.7617 27.8555H31.6669V29.7606H29.7617V27.8555Z" fill="black"/>
<path d="M43.0957 27.8555H45.0008V29.7606H43.0957V27.8555Z" fill="black"/>
<path d="M27.8574 29.7617H29.7626V33.5709H27.8574V29.7617Z" fill="black"/>
<path d="M37.3809 29.7617H39.286V33.5709H37.3809V29.7617Z" fill="black"/>
<path d="M41.1914 29.7617H43.096V31.6663H41.1914V29.7617Z" fill="black"/>
<path d="M33.5716 31.668H35.4756V33.5731H37.3807V37.3823H43.0947V39.2868H35.4754V43.0963H33.5714V39.2868H31.6669V41.1923H29.7614V43.0963H31.6669V45.0014H22.1426V43.0963H27.8569V39.2868H29.7614V33.5731H33.5714L33.5716 31.668Z" fill="black"/>
<path d="M5 31.668V45.0015H18.3336V31.668H5ZM16.4286 43.0965H6.905V33.5737H16.4286V43.0965Z" fill="black"/>
<path d="M25.9531 33.5703H27.8577V35.4749H25.9531V33.5703Z" fill="black"/>
<path d="M39.2871 33.5703H43.0957V35.4749H39.2871V33.5703Z" fill="black"/>
<path d="M8.80859 35.4766H14.5232V41.1911H8.80859V35.4766Z" fill="black"/>
<path d="M43.0957 35.4766H45.0008V37.3817H43.0957V35.4766Z" fill="black"/>
<path d="M20.2383 37.3789H22.1429V39.2835H24.0474V41.1889H20.2383V37.3789Z" fill="black"/>
<path d="M24.0469 37.3789H27.856V39.2835H24.0469V37.3789Z" fill="black"/>
<path d="M39.2871 41.1914H41.1917V43.096H39.2871V41.1914Z" fill="black"/>
<path d="M43.0957 41.1914H45.0008V43.096H43.0957V41.1914Z" fill="black"/>
<path d="M35.4766 43.0938H37.3817V44.9989H35.4766V43.0938Z" fill="black"/>
</svg>