<svg width="38" height="38" viewBox="0 0 22 22" fill="none" xmlns="http://www.w3.org/2000/svg">
<path d="M4.74114 19.1593H0.933236C0.483382 19.1593 0.117188 19.5255 0.117188 19.9753V21.0632C0.117188 21.5131 0.483373 21.8793 0.933236 21.8793H4.74114C5.19099 21.8793 5.55719 21.5131 5.55719 21.0632V19.9753C5.55719 19.5255 5.191 19.1593 4.74114 19.1593ZM5.01322 21.0632C5.01322 21.2131 4.89103 21.3353 4.74114 21.3353H0.933236C0.78335 21.3353 0.661158 21.2131 0.661158 21.0632V19.9753C0.661158 19.8254 0.783345 19.7033 0.933236 19.7033H4.74114C4.89103 19.7033 5.01322 19.8254 5.01322 19.9753V21.0632ZM21.0612 19.1593H17.2533C16.8035 19.1593 16.4373 19.5255 16.4373 19.9753V21.0632C16.4373 21.5131 16.8035 21.8793 17.2533 21.8793H21.0612C21.5111 21.8793 21.8773 21.5131 21.8773 21.0632V19.9753C21.8773 19.5255 21.5111 19.1593 21.0612 19.1593ZM21.3333 21.0632C21.3333 21.2131 21.2111 21.3353 21.0612 21.3353H17.2533C17.1034 21.3353 16.9812 21.2131 16.9812 21.0632V19.9753C16.9812 19.8254 17.1034 19.7033 17.2533 19.7033H21.0612C21.2111 19.7033 21.3333 19.8254 21.3333 19.9753V21.0632ZM12.9013 19.1593H9.09339C8.64354 19.1593 8.27734 19.5255 8.27734 19.9753V21.0632C8.27734 21.5131 8.64353 21.8793 9.09339 21.8793H12.9013C13.3511 21.8793 13.7173 21.5131 13.7173 21.0632V19.9753C13.7173 19.5255 13.3512 19.1593 12.9013 19.1593ZM13.1734 21.0632C13.1734 21.2131 13.0512 21.3353 12.9013 21.3353H9.09339C8.94351 21.3353 8.82132 21.2131 8.82132 21.0632V19.9753C8.82132 19.8254 8.9435 19.7033 9.09339 19.7033H12.9013C13.0512 19.7033 13.1734 19.8254 13.1734 19.9753V21.0632ZM12.6294 7.19124H12.9015C13.0516 7.19124 13.1736 7.06943 13.1736 6.91916C13.1736 6.76908 13.0518 6.64708 12.9015 6.64708H12.6294C12.6211 6.64708 12.6139 6.65126 12.6055 6.65202C12.564 6.40119 12.4657 6.16972 12.3232 5.97124C12.3296 5.96574 12.3376 5.96365 12.3437 5.95758L12.5361 5.76519C12.6425 5.65875 12.6425 5.48685 12.5361 5.3806C12.4296 5.27416 12.2577 5.27416 12.1515 5.3806L11.9591 5.57299C11.953 5.57906 11.9509 5.58722 11.9454 5.59348C11.7468 5.45099 11.5153 5.35271 11.2647 5.31116C11.2652 5.30262 11.2694 5.2956 11.2694 5.28706V5.01499C11.2694 4.86491 11.1476 4.74291 10.9973 4.74291C10.8472 4.74291 10.7252 4.86471 10.7252 5.01499V5.28706C10.7252 5.29541 10.7294 5.30262 10.7302 5.31097C10.4794 5.35252 10.2479 5.4508 10.0494 5.59329C10.0439 5.58684 10.0418 5.57887 10.0357 5.5728L9.84335 5.38041C9.73692 5.27397 9.56502 5.27397 9.45877 5.38041C9.35233 5.48685 9.35233 5.65875 9.45877 5.765L9.65115 5.95739C9.65722 5.96346 9.66538 5.96555 9.67164 5.97105C9.52916 6.1697 9.43088 6.40117 9.38932 6.65183C9.38078 6.65126 9.37376 6.64708 9.36523 6.64708H9.09315C8.94307 6.64708 8.82107 6.76889 8.82107 6.91916C8.82107 7.06924 8.94288 7.19124 9.09315 7.19124H9.36523C9.37357 7.19124 9.38078 7.18706 9.38913 7.18631C9.43068 7.43713 9.52897 7.66861 9.67145 7.86708C9.665 7.87259 9.65703 7.87467 9.65096 7.88074L9.45858 8.07313C9.35214 8.17957 9.35214 8.35147 9.45858 8.45772C9.5117 8.51085 9.58133 8.53741 9.65096 8.53741C9.7206 8.53741 9.79023 8.51084 9.84335 8.45772L10.0357 8.26533C10.0418 8.25926 10.0439 8.2511 10.0494 8.24484C10.248 8.38733 10.4795 8.48561 10.7302 8.52716C10.7294 8.5357 10.7252 8.54272 10.7252 8.55126V8.82334C10.7252 8.97341 10.847 9.09541 10.9973 9.09541C11.1474 9.09541 11.2694 8.97361 11.2694 8.82334V8.55126C11.2694 8.54291 11.2652 8.5357 11.2645 8.52735C11.5153 8.4858 11.7468 8.38752 11.9452 8.24503C11.9507 8.25148 11.9528 8.25945 11.9589 8.26552L12.1513 8.45791C12.2044 8.51104 12.274 8.5376 12.3437 8.5376C12.4133 8.5376 12.4829 8.51103 12.5361 8.45791C12.6425 8.35147 12.6425 8.17957 12.5361 8.07332L12.3437 7.88093C12.3376 7.87486 12.3294 7.87278 12.3232 7.86727C12.4657 7.66863 12.564 7.43715 12.6055 7.18649C12.6139 7.18706 12.6209 7.19124 12.6294 7.19124ZM10.9973 8.00709C10.3972 8.00709 9.90942 7.5191 9.90942 6.91919C9.90942 6.31909 10.3974 5.83129 10.9973 5.83129C11.5974 5.83129 12.0852 6.31928 12.0852 6.91919C12.0852 7.51929 11.5974 8.00709 10.9973 8.00709ZM2.56532 18.3431V17.527C2.56532 16.7772 3.17548 16.167 3.92532 16.167H10.7253V14.5349C10.7253 14.3849 10.8471 14.2629 10.9974 14.2629C11.1475 14.2629 11.2695 14.3847 11.2695 14.5349V16.167H18.0695C18.8193 16.167 19.4295 16.7772 19.4295 17.527V18.3431C19.4295 18.4932 19.3077 18.6152 19.1574 18.6152C19.0073 18.6152 18.8853 18.4934 18.8853 18.3431V17.527C18.8853 17.0772 18.5191 16.711 18.0693 16.711L11.2693 16.7112V18.3433C11.2693 18.4934 11.1475 18.6154 10.9972 18.6154C10.8471 18.6154 10.7251 18.4936 10.7251 18.3433V16.7112H3.92512C3.47527 16.7112 3.10907 17.0774 3.10907 17.5272V18.3433C3.10907 18.4934 2.98726 18.6154 2.83699 18.6154C2.68711 18.6152 2.56511 18.4934 2.56511 18.3431H2.56532ZM8.00532 13.7191H13.9893C14.7392 13.7191 15.3493 13.109 15.3493 12.3591L15.3495 1.47914C15.3495 0.729295 14.7394 0.119141 13.9895 0.119141H8.00551C7.25567 0.119141 6.64551 0.729295 6.64551 1.47914V12.3591C6.64551 13.109 7.25567 13.7191 8.00551 13.7191H8.00532ZM7.18947 1.47914C7.18947 1.02929 7.55565 0.663092 8.00552 0.663092H13.9895C14.4394 0.663092 14.8056 1.02928 14.8056 1.47914V12.3591C14.8056 12.809 14.4394 13.1752 13.9895 13.1752H8.00552C7.55566 13.1752 7.18947 12.809 7.18947 12.3591V1.47914ZM7.73342 2.83914V1.47914C7.73342 1.32906 7.85523 1.20706 8.0055 1.20706H13.9895C14.1396 1.20706 14.2616 1.32887 14.2616 1.47914V9.09514C14.2616 9.24522 14.1398 9.36722 13.9895 9.36722C13.8394 9.36722 13.7174 9.24541 13.7174 9.09514V1.75114H8.27742V2.83904C8.27742 2.98912 8.15561 3.11112 8.00534 3.11112C7.85527 3.11112 7.73345 2.98912 7.73345 2.83904L7.73342 2.83914ZM7.73342 12.3591V5.01514C7.73342 4.86506 7.85523 4.74306 8.0055 4.74306C8.15558 4.74306 8.27758 4.86487 8.27758 5.01514V12.0871H13.7176V11.2711C13.7176 11.121 13.8394 10.999 13.9897 10.999C14.1397 10.999 14.2617 11.1208 14.2617 11.2711V12.359C14.2617 12.5091 14.1399 12.6311 13.9897 12.6311H8.00517C7.85509 12.6311 7.73328 12.5091 7.73328 12.359L7.73342 12.3591ZM14.2614 10.1831C14.2614 10.3332 14.1396 10.4552 13.9893 10.4552C13.8393 10.4552 13.7173 10.3334 13.7173 10.1831C13.7173 10.033 13.8391 9.91101 13.9893 9.91101C14.1396 9.9112 14.2614 10.033 14.2614 10.1831ZM7.73342 3.92709C7.73342 3.77702 7.85523 3.65501 8.0055 3.65501C8.15558 3.65501 8.27758 3.77682 8.27758 3.92709C8.27758 4.07717 8.15577 4.19917 8.0055 4.19917C7.85523 4.19917 7.73342 4.07736 7.73342 3.92709Z" fill="black"/>
</svg>