<svg width="38" height="38" viewBox="0 0 24 28" fill="none" xmlns="http://www.w3.org/2000/svg">
<path d="M5.92972 16.1211H4.87348C4.72777 16.1211 4.60938 16.2395 4.60938 16.3852C4.60938 16.5309 4.72777 16.6493 4.87348 16.6493H5.92972C6.07543 16.6493 6.19382 16.5309 6.19382 16.3852C6.19382 16.2395 6.07543 16.1211 5.92972 16.1211Z" fill="black"/>
<path d="M3.28909 16.1211H2.23286C2.08714 16.1211 1.96875 16.2395 1.96875 16.3852C1.96875 16.5309 2.08714 16.6493 2.23286 16.6493H3.28909C3.43481 16.6493 3.5532 16.5309 3.5532 16.3852C3.5532 16.2395 3.43481 16.1211 3.28909 16.1211Z" fill="black"/>
<path d="M8.57034 16.1211H7.51411C7.36839 16.1211 7.25 16.2395 7.25 16.3852C7.25 16.5309 7.36839 16.6493 7.51411 16.6493H8.57034C8.71606 16.6493 8.83445 16.5309 8.83445 16.3852C8.83445 16.2395 8.71606 16.1211 8.57034 16.1211Z" fill="black"/>
<path d="M20.8891 25.3652C20.7434 25.3652 20.625 25.4836 20.625 25.6293V25.6724C20.625 25.8181 20.7434 25.9365 20.8891 25.9365C21.0348 25.9365 21.1532 25.8181 21.1532 25.6724V25.6293C21.1532 25.4836 21.0348 25.3652 20.8891 25.3652Z" fill="black"/>
<path d="M20.8891 22.4023C20.7434 22.4023 20.625 22.5207 20.625 22.6665V24.6307C20.625 24.7764 20.7434 24.8948 20.8891 24.8948C21.0348 24.8948 21.1532 24.7764 21.1532 24.6307V22.6665C21.1532 22.5207 21.0348 22.4023 20.8891 22.4023Z" fill="black"/>
<path d="M21.1518 21.1535V12.2703C21.1518 11.5387 20.5564 10.9435 19.8246 10.9435H13.5759L13.5761 2.75922C13.8095 2.55241 13.9577 2.25169 13.9577 1.91626C13.9577 1.79351 13.9372 1.67549 13.9008 1.56487C14.7859 1.23322 15.2319 1.85023 15.8647 2.85789C16.3404 3.61585 16.9056 4.51651 17.8645 4.51637C18.1523 4.51637 18.4754 4.43535 18.8424 4.24486C18.9718 4.1777 19.0224 4.01832 18.9553 3.88874C18.8881 3.75934 18.7287 3.70887 18.5991 3.77585C17.4975 4.34734 17.0122 3.69256 16.3121 2.57691C15.7338 1.65556 15.0172 0.5151 13.6168 1.10971C13.4136 0.911633 13.1364 0.789062 12.8309 0.789062C12.2097 0.789062 11.7041 1.2945 11.7041 1.91587C11.7041 2.20085 11.8113 2.46079 11.9864 2.65926V10.9431H8.01699V9.78386C8.01699 9.6723 7.94679 9.57288 7.84187 9.53531C7.73694 9.49774 7.61969 9.53019 7.54873 9.61633L6.46024 10.9431H1.42873C0.697146 10.9431 0.101562 11.5383 0.101562 12.2699V23.6885C0.101562 24.4201 0.696951 25.0153 1.42873 25.0153H17.9814C18.3489 26.2736 19.5122 27.1959 20.8875 27.1959C22.5568 27.1959 23.9149 25.8378 23.9149 24.1684C23.9149 22.5881 22.6974 21.2873 21.1514 21.153L21.1518 21.1535ZM12.831 1.31742C13.1612 1.31742 13.4296 1.58589 13.4296 1.91602C13.4296 2.24614 13.1612 2.51461 12.831 2.51461C12.5009 2.51461 12.2324 2.24614 12.2324 1.91602C12.2324 1.58589 12.5009 1.31742 12.831 1.31742ZM13.0483 3.0216V10.9436H12.5146V2.99683C12.6151 3.02624 12.721 3.04274 12.8312 3.04274C12.9054 3.04274 12.9781 3.03515 13.0485 3.0213L13.0483 3.0216ZM8.01726 11.4721H19.8255C20.2658 11.4721 20.6242 11.8303 20.6242 12.2708V14.2989L11.8168 14.2987L10.8643 13.3462C10.7613 13.2432 10.594 13.2432 10.4909 13.3462C10.3879 13.4493 10.3879 13.6166 10.4909 13.7196L10.622 13.8507C10.3879 13.9543 10.1344 14.0084 9.87695 14.0084C8.85146 14.0084 8.0172 13.1741 8.0172 12.1487V11.4717L8.01726 11.4721ZM7.48904 10.5228V12.1489C7.48904 13.4656 8.56029 14.5368 9.87701 14.5368C10.2754 14.5368 10.6657 14.4353 11.0154 14.2444L11.4063 14.6353C10.946 14.9208 10.4219 15.0707 9.87739 15.0707C8.26638 15.0707 6.95592 13.7603 6.95592 12.1493C6.95592 12.0035 6.83753 11.8851 6.69181 11.8851H6.3723L7.48964 10.5231L7.48904 10.5228ZM0.630272 12.2706C0.630272 11.8303 0.988486 11.4719 1.42903 11.4719L6.02699 11.4717L5.60901 11.9811C5.54432 12.06 5.53065 12.1693 5.57448 12.2615C5.61831 12.3537 5.71109 12.4127 5.81336 12.4127H6.4374C6.49129 13.1229 6.76185 13.7729 7.18191 14.2989L0.630105 14.2987L0.630272 12.2706ZM0.630272 14.8269H7.70616C8.29946 15.3086 9.05479 15.5985 9.87706 15.5985C10.5622 15.5985 11.22 15.3978 11.7881 15.017L11.9453 15.1743C11.9969 15.2259 12.0645 15.2515 12.1322 15.2515C12.2 15.2515 12.2673 15.2257 12.3191 15.1743C12.414 15.0794 12.4206 14.9305 12.3404 14.8269H20.6242V17.9428L0.630282 17.9427V14.8267L0.630272 14.8269ZM17.8775 24.4882L1.42927 24.488C0.988904 24.488 0.630515 24.1298 0.630515 23.6893V18.4708H20.624V21.1538C19.0778 21.2881 17.8605 22.5889 17.8605 24.1692C17.8605 24.2769 17.8666 24.3832 17.8774 24.4879L17.8775 24.4882ZM20.888 26.6688C19.5097 26.6688 18.3886 25.5477 18.3886 24.1695C18.3886 22.7913 19.5097 21.6702 20.888 21.6702C22.2662 21.6702 23.3873 22.7913 23.3873 24.1695C23.3873 25.5477 22.2662 26.6688 20.888 26.6688Z" fill="black"/>
<path d="M13.8516 16.1211H12.7954C12.6496 16.1211 12.5312 16.2395 12.5312 16.3852C12.5312 16.5309 12.6496 16.6493 12.7954 16.6493H13.8516C13.9973 16.6493 14.1157 16.5309 14.1157 16.3852C14.1157 16.2395 13.9973 16.1211 13.8516 16.1211Z" fill="black"/>
<path d="M19.0275 16.1211H18.0766C17.9309 16.1211 17.8125 16.2395 17.8125 16.3852C17.8125 16.5309 17.9309 16.6493 18.0766 16.6493H19.0275C19.1733 16.6493 19.2916 16.5309 19.2916 16.3852C19.2916 16.2395 19.1733 16.1211 19.0275 16.1211Z" fill="black"/>
<path d="M11.211 16.1211H10.1547C10.009 16.1211 9.89062 16.2395 9.89062 16.3852C9.89062 16.5309 10.009 16.6493 10.1547 16.6493H11.211C11.3567 16.6493 11.4751 16.5309 11.4751 16.3852C11.4751 16.2395 11.3567 16.1211 11.211 16.1211Z" fill="black"/>
<path d="M16.4922 16.1211H15.436C15.2903 16.1211 15.1719 16.2395 15.1719 16.3852C15.1719 16.5309 15.2903 16.6493 15.436 16.6493H16.4922C16.6379 16.6493 16.7563 16.5309 16.7563 16.3852C16.7563 16.2395 16.6379 16.1211 16.4922 16.1211Z" fill="black"/>
</svg>