<svg width="38" height="38"
                                            viewBox="0 0 28 28" fill="none" xmlns="http://www.w3.org/2000/svg">
                                            <path
                                                d="M17.3568 0.289577L17.3565 0.288672H17.2907C11.5458 0.288672 6.87268 4.96429 6.87268 10.7116C6.87268 13.0165 7.62457 15.1495 8.89578 16.8772L7.83638 17.937L7.52403 17.6245L7.52402 17.6245C7.46481 17.5653 7.38433 17.532 7.30057 17.532C7.21668 17.532 7.13653 17.5653 7.07729 17.6243L7.07711 17.6245L1.00471 23.7003L1.07544 23.771L1.00471 23.7003C0.0942691 24.6113 0.0942578 26.0933 1.00471 27.0041L1.00473 27.0041L1.0053 27.0047C1.4464 27.4458 2.03346 27.6889 2.65759 27.6889H2.65797C3.28199 27.6889 3.8692 27.4456 4.31048 27.0041L10.3819 20.9303C10.5052 20.8069 10.5051 20.6071 10.382 20.4836L10.3819 20.4836L10.0693 20.1708L11.1287 19.1109C12.8556 20.3824 14.9874 21.1347 17.2915 21.1347C23.0364 21.1347 27.7095 16.459 27.7095 10.7118C27.7091 4.98695 23.0714 0.325135 17.3568 0.289577ZM1.45159 24.1464L5.69347 19.9024L8.10417 22.3144L3.86334 26.5572C3.86333 26.5572 3.86333 26.5572 3.86332 26.5572C3.5411 26.8794 3.11324 27.0569 2.65774 27.0569H2.65755C2.20194 27.0569 1.77412 26.8798 1.45216 26.5576L1.45214 26.5576L1.4516 26.5571C0.787441 25.8924 0.787455 24.8108 1.45159 24.1464ZM15.5859 7.42713V7.42711C15.5859 6.48677 16.3508 5.72161 17.2904 5.72161C18.2301 5.72161 18.995 6.48677 18.995 7.42711V9.13261H13.755C13.0234 9.13261 12.4284 9.7276 12.4284 10.4592V15.5126C12.4284 16.2442 13.0234 16.8392 13.755 16.8392H20.8256C21.5572 16.8392 22.1522 16.2442 22.1522 15.5126V10.4593C22.1522 10.4593 22.1522 10.4592 22.1522 10.4592C22.1524 9.8366 21.7213 9.31355 21.1422 9.17118V7.42711C21.1422 5.30234 19.4144 3.57385 17.2905 3.57385C15.1665 3.57385 13.4387 5.30234 13.4387 7.42711V8.18507C13.4387 8.35939 13.58 8.50098 13.7546 8.50098H15.2698C15.4441 8.50098 15.5857 8.35971 15.5857 8.18509C15.5857 8.18508 15.5857 8.18508 15.5857 8.18507L15.5859 7.42713ZM9.71119 20.7066L8.55062 21.8678L6.13991 19.4559L7.30049 18.2946L9.71119 20.7066ZM8.28293 18.3837L9.28841 17.3777C9.69354 17.8637 10.1418 18.3123 10.6277 18.7175L9.62219 19.7236L8.28293 18.3837ZM17.2907 20.5028C11.8948 20.5028 7.50443 16.1105 7.50443 10.7117C7.50443 5.3129 11.8947 0.920618 17.2907 0.920618C22.6866 0.920618 27.0769 5.3129 27.0769 10.7117C27.0769 16.1105 22.6865 20.5028 17.2907 20.5028ZM17.2907 1.80473C12.3814 1.80473 8.38806 5.80035 8.38806 10.7117C8.38806 15.6229 12.3817 19.6187 17.2907 19.6187C22.1996 19.6187 26.1933 15.6231 26.1933 10.7117C26.1933 5.8005 22.1996 1.80473 17.2907 1.80473ZM17.2907 18.9869C12.7301 18.9869 9.01986 15.2746 9.01986 10.7117C9.01986 6.14881 12.7303 2.43653 17.2907 2.43653C21.851 2.43653 25.5615 6.14881 25.5615 10.7117C25.5615 15.2746 21.851 18.9869 17.2907 18.9869ZM17.2907 5.08976C16.0023 5.08976 14.9543 6.13825 14.9543 7.42706V7.86931H14.0707V7.42706C14.0707 5.65076 15.5154 4.20541 17.2907 4.20541C19.0659 4.20541 20.5106 5.65057 20.5106 7.42706V9.13256H19.627V7.42706C19.6268 6.13826 18.579 5.08976 17.2907 5.08976ZM21.5207 15.5127C21.5207 15.8957 21.209 16.2076 20.8257 16.2076L13.7552 16.2074C13.3721 16.2074 13.0602 15.8957 13.0602 15.5125V10.4591C13.0602 10.076 13.372 9.76412 13.7552 9.76412H20.8257C21.2088 9.76412 21.5207 10.0759 21.5207 10.4591V15.5127ZM17.2907 12.1646C16.6986 12.1646 16.2171 12.6464 16.2171 13.2385C16.2171 13.721 16.5369 14.129 16.9748 14.2641V15.5125C16.9748 15.6868 17.116 15.8284 17.2907 15.8284C17.465 15.8284 17.6066 15.6871 17.6066 15.5125V14.264C18.0446 14.1288 18.3642 13.7208 18.3642 13.2385C18.3642 12.6464 17.8827 12.1646 17.2907 12.1646ZM17.2907 13.6808C17.0473 13.6808 16.8488 13.4823 16.8488 13.2387C16.8488 12.9949 17.0471 12.7967 17.2907 12.7967C17.534 12.7967 17.7323 12.9951 17.7323 13.2387C17.7323 13.4824 17.534 13.6808 17.2907 13.6808Z"
                                                fill="black" stroke="black" stroke-width="0.2" />
                                        </svg>