<svg width="38" height="38" viewBox="0 0 28 28" fill="none" xmlns="http://www.w3.org/2000/svg">
                                            <path d="M26.7879 10.715H25.1395L25.1393 1.23632C25.1393 1.00959 24.9539 0.824219 24.7272 0.824219H3.29698C3.07025 0.824219 2.88488 1.00978 2.88488 1.23632V7.00612H1.23632C1.00959 7.00612 0.824219 7.19149 0.824219 7.41822V26.788C0.824219 27.0148 1.00959 27.2001 1.23632 27.2001H26.7878C27.0145 27.2001 27.1999 27.0148 27.1999 26.788V11.1271C27.1999 10.9004 27.0143 10.715 26.7878 10.715H26.7879ZM3.70917 1.6482H24.3151V10.715H14.1812L10.5916 7.12551C10.5173 7.05132 10.4142 7.00598 10.3031 7.00598H3.70901L3.70917 1.6482ZM26.376 26.3754H1.64877V7.82989H10.1342L13.7237 11.4194C13.7979 11.4936 13.9011 11.5389 14.0123 11.5389H26.3762L26.376 26.3754Z" fill="black"></path>
                                            <path d="M5.35741 3.70896H22.6663C22.8931 3.70896 23.0784 3.5236 23.0784 3.29687C23.0784 3.07013 22.8931 2.88477 22.6663 2.88477H5.35741C5.13068 2.88477 4.94531 3.07013 4.94531 3.29687C4.94531 3.5236 5.13087 3.70896 5.35741 3.70896Z" fill="black"></path>
                                            <path d="M23.0789 5.35741C23.0789 5.13068 22.8935 4.94531 22.6668 4.94531H5.35741C5.13068 4.94531 4.94531 5.13068 4.94531 5.35741C4.94531 5.58414 5.13068 5.76951 5.35741 5.76951H22.6663C22.8972 5.7697 23.0786 5.58414 23.0786 5.35741H23.0789Z" fill="black"></path>
                                            <path d="M22.6664 7.00586H13.5996C13.3729 7.00586 13.1875 7.19123 13.1875 7.41796C13.1875 7.64469 13.3729 7.83006 13.5996 7.83006H22.6664C22.8932 7.83006 23.0785 7.64469 23.0785 7.41796C23.0785 7.19123 22.8971 7.00586 22.6664 7.00586Z" fill="black"></path>
                                            <path d="M13.6018 13.1875C10.4202 13.1875 7.83203 15.7756 7.83203 18.9573C7.83203 22.1389 10.4202 24.7271 13.6018 24.7271C16.7835 24.7271 19.3716 22.139 19.3716 18.9573C19.3716 15.7757 16.7835 13.1875 13.6018 13.1875ZM13.6018 23.9028C10.8737 23.9028 8.65629 21.6857 8.65629 18.9573C8.65629 16.2291 10.8735 14.0118 13.6018 14.0118C16.3302 14.0118 18.5474 16.2289 18.5474 18.9573C18.5474 21.6855 16.3302 23.9028 13.6018 23.9028Z" fill="black"></path>
                                            <path d="M15.6604 17.7208C15.6604 16.5834 14.7372 15.6602 13.5998 15.6602C12.4623 15.6602 11.5391 16.5834 11.5391 17.7208C11.5391 18.3309 11.8028 18.8955 12.2561 19.2827L11.9552 21.3723C11.9387 21.4918 11.9717 21.6113 12.05 21.702C12.1286 21.7885 12.2441 21.842 12.3636 21.842H14.8364C14.9559 21.842 15.0713 21.7885 15.1497 21.7018C15.228 21.6111 15.265 21.4916 15.2445 21.3721L14.9436 19.2825C15.3967 18.8955 15.6604 18.3308 15.6604 17.7208ZM14.2758 18.7553C14.1397 18.8418 14.0697 18.9985 14.0944 19.1592L14.3623 21.0178H12.8416L13.1095 19.1592C13.1341 18.9985 13.0599 18.8418 12.9281 18.7553C12.5737 18.5285 12.3636 18.1413 12.3636 17.7208C12.3636 17.0408 12.9199 16.4846 13.5999 16.4846C14.2799 16.4846 14.8362 17.0408 14.8362 17.7208C14.8362 18.1413 14.626 18.5285 14.2758 18.7553Z" fill="black"></path>
                                        </svg>