<svg width="38" height="38" viewBox="0 0 34 34" fill="none" xmlns="http://www.w3.org/2000/svg">
<path d="M27.625 5.3125V28.6875C27.625 29.5329 27.2892 30.3436 26.6914 30.9414C26.0936 31.5392 25.2829 31.875 24.4375 31.875H9.5625C8.71712 31.875 7.90637 31.5392 7.3086 30.9414C6.71083 30.3436 6.375 29.5329 6.375 28.6875V21.25H8.5V28.6875C8.5 28.9693 8.61194 29.2395 8.8112 29.4388C9.01046 29.6381 9.28071 29.75 9.5625 29.75H24.4375C24.7193 29.75 24.9895 29.6381 25.1888 29.4388C25.3881 29.2395 25.5 28.9693 25.5 28.6875V5.3125C25.5 5.03071 25.3881 4.76046 25.1888 4.5612C24.9895 4.36194 24.7193 4.25 24.4375 4.25H9.5625C9.28071 4.25 9.01046 4.36194 8.8112 4.5612C8.61194 4.76046 8.5 5.03071 8.5 5.3125V14.875C8.5 15.1568 8.61194 15.427 8.8112 15.6263C9.01046 15.8256 9.28071 15.9375 9.5625 15.9375H17.6269L15.1831 13.5044L16.6919 11.9956L20.9419 16.2456C21.0415 16.3444 21.1205 16.4619 21.1744 16.5914C21.2284 16.7209 21.2562 16.8597 21.2562 17C21.2562 17.1403 21.2284 17.2791 21.1744 17.4086C21.1205 17.5381 21.0415 17.6556 20.9419 17.7544L16.6919 22.0044L15.1831 20.4956L17.6269 18.0625H9.5625C8.71712 18.0625 7.90637 17.7267 7.3086 17.1289C6.71083 16.5311 6.375 15.7204 6.375 14.875V5.3125C6.375 4.46712 6.71083 3.65637 7.3086 3.0586C7.90637 2.46083 8.71712 2.125 9.5625 2.125H24.4375C25.2829 2.125 26.0936 2.46083 26.6914 3.0586C27.2892 3.65637 27.625 4.46712 27.625 5.3125Z" fill="black"/>
</svg>