<svg width="38" height="38" viewBox="0 0 40 12" fill="none" xmlns="http://www.w3.org/2000/svg">
                                <path d="M36.5835 3.79841L33.1036 7.28704L31.5023 5.68572L31.5025 5.68595C31.3518 5.53528 31.1074 5.53528 30.9568 5.68595C30.8061 5.83661 30.8061 6.08081 30.9568 6.23148L32.8309 8.1056C32.9025 8.17948 33.001 8.221 33.1036 8.221C33.2065 8.221 33.305 8.17948 33.3766 8.1056L37.1293 4.35737C37.2757 4.20513 37.2757 3.96407 37.1293 3.81183C37.0588 3.73728 36.9617 3.69397 36.8592 3.69152C36.7568 3.68906 36.6574 3.72745 36.5835 3.79844L36.5835 3.79841Z" fill="black"/>
                                <path d="M34.2611 0.195348C32.8109 0.197134 31.4147 0.74713 30.3529 1.73506C29.291 2.723 28.6421 4.07592 28.5361 5.52232H22.3858V5.02143C22.3843 4.53705 22.2086 4.06966 21.8907 3.704C21.5731 3.3386 21.1343 3.09977 20.655 3.03103V2.73571V2.73594C20.655 1.93685 20.2287 1.19868 19.5367 0.79908C18.8448 0.399525 17.9923 0.399525 17.3003 0.79908C16.6084 1.19863 16.1823 1.93679 16.1823 2.73594V3.03125V3.03103C15.7024 3.09889 15.2631 3.3375 14.9453 3.70314C14.6272 4.06876 14.4519 4.53686 14.4513 5.02143V5.52232H7.93014V5.02143C7.92969 4.5375 7.75492 4.07011 7.43795 3.70446C7.12076 3.33883 6.68258 3.09977 6.20378 3.03103V2.73571V2.73594C6.20378 1.93685 5.77744 1.19868 5.08549 0.79908C4.39355 0.399525 3.54109 0.399525 2.84909 0.79908C2.15715 1.19863 1.73103 1.93679 1.73103 2.73594V3.03125V3.03103C1.25157 3.09978 0.812977 3.33862 0.495091 3.704C0.177234 4.06962 0.00156571 4.53703 0 5.02143V7.59777C0.00111606 8.13438 0.215177 8.64846 0.595086 9.02749C0.974771 9.4065 1.48949 9.61943 2.02611 9.61943H5.89954C6.43727 9.62188 6.95377 9.40983 7.3348 9.03034C7.71605 8.6511 7.93012 8.13549 7.93012 7.59777V6.29177H14.4741V7.59777C14.4752 8.13349 14.6886 8.64709 15.0677 9.02589C15.4465 9.4049 15.9601 9.61829 16.4958 9.61943H20.3647C20.9007 9.61831 21.4141 9.40492 21.7931 9.02589C22.1719 8.64709 22.3853 8.13349 22.3864 7.59777V6.29177H28.5321C28.6248 7.79177 29.3015 9.19577 30.4174 10.2025C31.5332 11.2092 32.9993 11.7385 34.5009 11.6766C36.0024 11.6146 37.4201 10.9666 38.4493 9.87148C39.4786 8.7764 40.0375 7.32148 40.0062 5.8188C39.975 4.31634 39.3558 2.88577 38.2819 1.8344C37.208 0.783085 35.7647 0.194684 34.2618 0.195313L34.2611 0.195348ZM4.352 6.97192V7.55341V7.55318C4.352 7.76569 4.17968 7.938 3.9674 7.938C3.7549 7.938 3.58258 7.76569 3.58258 7.55318V6.97193C3.22767 6.84938 2.95201 6.56545 2.84018 6.20695C2.72835 5.84847 2.79353 5.45827 3.01607 5.15581C3.23861 4.85313 3.59173 4.67456 3.96738 4.67456C4.34283 4.67456 4.69595 4.85313 4.91853 5.15581C5.14107 5.45827 5.20647 5.84844 5.09464 6.20695C4.98281 6.56543 4.70713 6.84935 4.352 6.97192ZM5.42097 3.00003H2.5136V2.73619C2.5136 2.21678 2.79083 1.73688 3.24063 1.47728C3.69018 1.21746 4.2444 1.21746 4.69423 1.47728C5.14401 1.73688 5.42103 2.21676 5.42103 2.73619L5.42097 3.00003ZM18.8393 6.97192V7.55341V7.55318C18.8181 7.75095 18.6511 7.90073 18.4524 7.90073C18.2535 7.90073 18.0868 7.75095 18.0656 7.55318V6.97193C17.7109 6.84894 17.4359 6.56478 17.3247 6.20632C17.2134 5.84807 17.279 5.4581 17.5018 5.15587C17.7243 4.85386 18.0772 4.67528 18.4524 4.67528C18.8277 4.67528 19.1806 4.85386 19.4031 5.15587C19.6257 5.4581 19.6913 5.84804 19.5801 6.20632C19.4688 6.5648 19.1937 6.84895 18.8393 6.97192ZM19.9082 3.00003H16.9741V2.73619C17.002 2.23508 17.2852 1.78351 17.7243 1.54088C18.1636 1.29802 18.6966 1.29802 19.1357 1.54088C19.5747 1.78351 19.8582 2.23505 19.8859 2.73619L19.9082 3.00003ZM34.2837 10.9166C32.9635 10.9213 31.6957 10.4012 30.7595 9.47038C29.8231 8.53981 29.2953 7.27506 29.2921 5.95478C29.289 4.63466 29.8106 3.36752 30.7426 2.43221C31.6743 1.49718 32.9397 0.970834 34.2598 0.969234C35.5801 0.967671 36.8466 1.49088 37.7807 2.42369C38.7147 3.35672 39.2394 4.62278 39.2394 5.94289C39.2383 7.26232 38.7133 8.52746 37.7798 9.46009C36.8463 10.3927 35.581 10.9165 34.2613 10.9165L34.2837 10.9166Z" fill="black"/>
                                <path d="M3.96176 5.45703C3.79703 5.45703 3.64859 5.55614 3.58565 5.70815C3.5227 5.86038 3.55753 6.03538 3.67382 6.15167C3.79034 6.26819 3.96534 6.30301 4.11735 6.24007C4.26958 6.17712 4.36868 6.02868 4.36868 5.86395C4.36868 5.63917 4.18654 5.45703 3.96176 5.45703Z" fill="black"/>
                                <path d="M18.4262 5.45706C18.2619 5.45885 18.1148 5.55907 18.0532 5.7113C17.9916 5.86354 18.0275 6.03786 18.1442 6.15327C18.261 6.26889 18.4358 6.30282 18.5873 6.23965C18.7389 6.17626 18.8375 6.02827 18.8375 5.86398C18.8375 5.75528 18.794 5.65103 18.7168 5.5747C18.6396 5.49814 18.5349 5.45572 18.4262 5.45706Z" fill="black"/>
                                </svg>