<svg width="38" height="38" viewBox="0 0 18 22" fill="none" xmlns="http://www.w3.org/2000/svg">
<path d="M8.98655 0.121094L0.34375 2.73123V13.4553C0.34375 14.1311 0.516786 14.7739 0.844473 15.3145C2.25625 17.6463 4.92107 19.7954 8.9865 21.8809C13.0521 19.7957 15.7166 17.6462 17.1285 15.315C17.4562 14.7738 17.6293 14.131 17.6293 13.4552L17.6294 2.73113L8.98655 0.121094ZM16.3048 13.3388C16.3048 13.8139 16.186 14.2613 15.961 14.6328C14.7779 16.5871 12.5734 18.4104 9.22124 20.2074L8.4902 20.5995V11.4346H1.66834V3.79772L9.48299 1.43783V10.442H16.3049L16.3048 13.3388Z" fill="black"/>
</svg>