<svg width="38" height="38" viewBox="0 0 26 26" fill="none" xmlns="http://www.w3.org/2000/svg">
<path d="M12.997 11.6936C12.16 11.6936 11.3228 11.3823 10.6707 10.7597L1.0526 1.57875C0.904042 1.43702 0.898539 1.20157 1.04046 1.05302C1.18219 0.904455 1.41765 0.898951 1.5662 1.04087L11.1838 10.2214C12.2004 11.1917 13.793 11.1917 14.8096 10.2214L24.4277 1.04039C24.5763 0.898655 24.8117 0.903969 24.9534 1.05253C25.0952 1.20109 25.0897 1.43654 24.9413 1.57827L15.3232 10.7592C14.6711 11.3819 13.834 11.6933 12.9969 11.6933L12.997 11.6936Z" fill="black"/>
<path d="M1.30947 16.556C1.21423 16.556 1.11917 16.5195 1.0465 16.447C0.901166 16.3017 0.901166 16.0664 1.0465 15.9211L8.48376 8.48386C8.62891 8.33871 8.86436 8.33871 9.00969 8.48386C9.15503 8.62901 9.15503 8.86446 9.00969 9.00979L1.57243 16.447C1.49977 16.5195 1.40472 16.556 1.30947 16.556Z" fill="black"/>
<path d="M24.6841 16.556C24.589 16.556 24.4938 16.5195 24.4211 16.447L16.9839 9.00979C16.8387 8.86465 16.8387 8.62919 16.9839 8.48386C17.1292 8.33871 17.3645 8.33871 17.5098 8.48386L24.947 15.9211C25.0922 16.0665 25.0922 16.3017 24.947 16.447C24.8744 16.5195 24.7791 16.556 24.6841 16.556Z" fill="black"/>
<path d="M24.3126 17.0876H17.7783C17.573 17.0876 17.4064 16.921 17.4064 16.7157C17.4064 16.5105 17.573 16.3439 17.7783 16.3439H24.3126C24.6056 16.3439 24.8439 16.1056 24.8439 15.8126V1.68123C24.8439 1.38829 24.6056 1.14996 24.3126 1.14996H1.68125C1.38831 1.14996 1.14998 1.38826 1.14998 1.68123V15.8126C1.14998 16.1055 1.38828 16.3439 1.68125 16.3439H9.27782C9.48311 16.3439 9.6497 16.5105 9.6497 16.7157C9.6497 16.921 9.48311 17.0876 9.27782 17.0876H1.68125C0.978276 17.0876 0.40625 16.5156 0.40625 15.8126V1.68125C0.40625 0.978276 0.978276 0.40625 1.68125 0.40625H24.3126C25.0156 0.40625 25.5876 0.978276 25.5876 1.68125V15.8126C25.5876 16.5156 25.0156 17.0876 24.3126 17.0876Z" fill="black"/>
<path d="M13.5281 25.5875C10.3937 25.5875 7.84375 23.0375 7.84375 19.9032C7.84375 18.6617 8.23688 17.4824 8.98061 16.4923C10.0659 15.0475 11.7234 14.2188 13.5281 14.2188C15.3328 14.2188 16.9903 15.0475 18.0758 16.4923C18.8194 17.4824 19.2125 18.6619 19.2125 19.9032C19.2125 23.0375 16.6625 25.5875 13.5282 25.5875H13.5281ZM13.5281 14.9625C11.9595 14.9625 10.5187 15.6829 9.57518 16.9389C8.92893 17.7991 8.58743 18.824 8.58743 19.9031C8.58743 22.6272 10.8039 24.8438 13.5281 24.8438C16.2523 24.8438 18.4688 22.6273 18.4688 19.9031C18.4688 18.824 18.1273 17.7991 17.4811 16.9389C16.5375 15.6829 15.0969 14.9625 13.5282 14.9625H13.5281Z" fill="black"/>
<path d="M12.4657 22.4001C12.3674 22.4001 12.2728 22.3612 12.2028 22.2912L11.1403 21.2287C10.9949 21.0833 10.9949 20.8481 11.1403 20.7027C11.2854 20.5576 11.5209 20.5576 11.6662 20.7027L12.4255 21.4621L15.3557 17.5551C15.4789 17.3908 15.712 17.3574 15.8764 17.4807C16.0407 17.6038 16.0741 17.837 15.9507 18.0013L12.7632 22.2513C12.6985 22.3375 12.5997 22.3915 12.4921 22.3991C12.4834 22.3997 12.4744 22.4001 12.4657 22.4001Z" fill="black"/>
</svg>