<svg width="38" height="38" viewBox="0 0 34 10" fill="none" xmlns="http://www.w3.org/2000/svg">
<path d="M31.0975 3.18861L28.1396 6.15394L26.7785 4.79282L26.7787 4.79301C26.6506 4.66495 26.4429 4.66495 26.3148 4.79301C26.1867 4.92108 26.1867 5.12865 26.3148 5.25672L27.9078 6.84972C27.9687 6.91252 28.0524 6.94781 28.1396 6.94781C28.2271 6.94781 28.3108 6.91252 28.3717 6.84972L31.5615 3.66372C31.6859 3.53433 31.6859 3.32942 31.5615 3.20002C31.5015 3.13665 31.419 3.09984 31.3319 3.09775C31.2448 3.09566 31.1604 3.1283 31.0976 3.18863L31.0975 3.18861Z" fill="black"/>
<path d="M29.122 0.128936C27.8893 0.130454 26.7025 0.597951 25.7999 1.43769C24.8974 2.27744 24.3458 3.42742 24.2557 4.65686H19.028V4.2311C19.0266 3.81938 18.8773 3.4221 18.6071 3.11129C18.3371 2.8007 17.9641 2.5977 17.5568 2.53926V2.28825V2.28844C17.5568 1.60921 17.1944 0.981768 16.6062 0.642108C16.0181 0.302487 15.2935 0.302487 14.7053 0.642108C14.1171 0.98173 13.7549 1.60917 13.7549 2.28844V2.53945V2.53926C13.347 2.59694 12.9736 2.79977 12.7035 3.11056C12.4331 3.42134 12.2842 3.81922 12.2836 4.2311V4.65686H6.74062V4.2311C6.74024 3.81976 6.59168 3.42249 6.32226 3.11168C6.05265 2.8009 5.68019 2.5977 5.27321 2.53926V2.28825V2.28844C5.27321 1.60921 4.91082 0.981768 4.32267 0.642108C3.73452 0.302487 3.00993 0.302487 2.42173 0.642108C1.83358 0.98173 1.47138 1.60917 1.47138 2.28844V2.53945V2.53926C1.06384 2.5977 0.691031 2.80071 0.420828 3.11129C0.150649 3.42207 0.00133086 3.81936 0 4.2311V6.421C0.000948649 6.87711 0.182901 7.31408 0.505823 7.63625C0.828556 7.95842 1.26606 8.13941 1.7222 8.13941H5.01461C5.47168 8.14149 5.91071 7.96124 6.23458 7.63868C6.55864 7.31633 6.7406 6.87805 6.7406 6.421V5.3109H12.303V6.421C12.3039 6.87635 12.4853 7.31291 12.8075 7.63489C13.1295 7.95706 13.566 8.13843 14.0214 8.13941H17.31C17.7656 8.13846 18.2019 7.95707 18.5241 7.63489C18.8461 7.31292 19.0275 6.87635 19.0284 6.421V5.3109H24.2523C24.331 6.5859 24.9063 7.7793 25.8548 8.63503C26.8032 9.49071 28.0494 9.94058 29.3257 9.88803C30.602 9.83528 31.8071 9.28448 32.6819 8.35365C33.5568 7.42283 34.0319 6.18615 34.0053 4.90887C33.9787 3.63178 33.4524 2.4158 32.5396 1.52213C31.6268 0.628513 30.4 0.128372 29.1225 0.128907L29.122 0.128936ZM3.6992 5.88902V6.38329V6.3831C3.6992 6.56372 3.55273 6.71019 3.37229 6.71019C3.19166 6.71019 3.04519 6.56372 3.04519 6.3831V5.88903C2.74352 5.78487 2.5092 5.54352 2.41415 5.2388C2.3191 4.93409 2.3745 4.60242 2.56366 4.34533C2.75282 4.08805 3.05297 3.93627 3.37228 3.93627C3.6914 3.93627 3.99156 4.08805 4.18075 4.34533C4.36991 4.60242 4.4255 4.93406 4.33044 5.2388C4.23539 5.54351 4.00106 5.78484 3.6992 5.88902ZM4.60783 2.51292H2.13656V2.28866C2.13656 1.84715 2.37221 1.43924 2.75453 1.21858C3.13666 0.997728 3.60774 0.997728 3.99009 1.21858C4.37241 1.43924 4.60787 1.84714 4.60787 2.28866L4.60783 2.51292ZM16.0134 5.88902V6.38329V6.3831C15.9953 6.5512 15.8534 6.67851 15.6846 6.67851C15.5155 6.67851 15.3738 6.5512 15.3558 6.3831V5.88903C15.0543 5.78449 14.8205 5.54296 14.726 5.23827C14.6314 4.93375 14.6871 4.60227 14.8765 4.34538C15.0657 4.08867 15.3656 3.93688 15.6846 3.93688C16.0035 3.93688 16.3035 4.08867 16.4927 4.34538C16.6818 4.60228 16.7376 4.93372 16.6431 5.23827C16.5484 5.54297 16.3147 5.7845 16.0134 5.88902ZM16.922 2.51292H14.4279V2.28866C14.4517 1.86271 14.6924 1.47887 15.0656 1.27264C15.439 1.06621 15.8921 1.06621 16.2653 1.27264C16.6385 1.47888 16.8795 1.86268 16.903 2.28866L16.922 2.51292ZM29.1411 9.24201C28.019 9.24599 26.9414 8.80392 26.1456 8.01271C25.3497 7.22173 24.901 6.14669 24.8983 5.02445C24.8956 3.90235 25.339 2.82528 26.1312 2.03027C26.9231 1.23549 27.9987 0.788099 29.1208 0.786739C30.243 0.785411 31.3196 1.23014 32.1136 2.02303C32.9075 2.8161 33.3535 3.89225 33.3535 5.01435C33.3526 6.13586 32.9063 7.21123 32.1129 8.00397C31.3194 8.79665 30.2438 9.24196 29.1221 9.24196L29.1411 9.24201Z" fill="black"/>
<path d="M3.36945 4.60156C3.22943 4.60156 3.10326 4.6858 3.04976 4.81501C2.99625 4.94441 3.02585 5.09316 3.1247 5.19201C3.22374 5.29105 3.37249 5.32064 3.5017 5.26714C3.6311 5.21364 3.71533 5.08747 3.71533 4.94744C3.71533 4.75638 3.56051 4.60156 3.36945 4.60156Z" fill="black"/>
<path d="M15.6626 4.60159C15.523 4.60311 15.3979 4.6883 15.3456 4.81769C15.2932 4.94709 15.3238 5.09527 15.423 5.19336C15.5222 5.29164 15.6708 5.32048 15.7996 5.26679C15.9284 5.2129 16.0123 5.08711 16.0123 4.94747C16.0123 4.85507 15.9753 4.76646 15.9097 4.70158C15.844 4.6365 15.755 4.60045 15.6626 4.60159Z" fill="black"/>
</svg>