<svg width="38" height="38" viewBox="0 0 31 26" fill="none" xmlns="http://www.w3.org/2000/svg">
<path d="M29.6507 21.0406H28.2635L28.2637 0H1.86484V21.0406H0.47467C0.324448 21.0406 0.183373 21.1122 0.0945386 21.2337C0.00592149 21.3551 -0.0195241 21.5116 0.0262359 21.6544L0.741207 23.8917C0.958173 24.5707 1.58292 25.0269 2.29589 25.0269H27.8296C28.5424 25.0269 29.1671 24.5709 29.3843 23.8917L30.0993 21.6544C30.145 21.5116 30.1198 21.3551 30.031 21.2337C29.9423 21.1122 29.8013 21.0406 29.6508 21.0406H29.6507ZM2.80559 0.940572H27.3222V21.0406H2.80559V0.940572ZM28.4873 23.6046C28.3953 23.8921 28.1308 24.0854 27.8292 24.0854H2.29553C1.99352 24.0854 1.72901 23.8923 1.63748 23.6048L1.11873 21.9811H29.0067L28.4873 23.6046Z" fill="black"/>
<path d="M4.29688 19.549H25.8306V2.43359H4.29688V19.549ZM5.23796 3.37474H24.8894V18.6079H5.23796V3.37474Z" fill="black"/>
<path d="M3.91602 22.5625H4.9767V23.5036H3.91602V22.5625Z" fill="black"/>
<path d="M6.0957 22.5625H7.15639V23.5036H6.0957V22.5625Z" fill="black"/>
<path d="M8.27539 22.5625H9.3359V23.5036H8.27539V22.5625Z" fill="black"/>
<path d="M11.1797 15.1094H12.0947V16.0505H11.1797V15.1094Z" fill="black"/>
<path d="M13.4219 15.1094H14.3366V16.0505H13.4219V15.1094Z" fill="black"/>
<path d="M15.6621 15.1094H16.5769V16.0505H15.6621V15.1094Z" fill="black"/>
<path d="M17.9023 15.1094H18.8171V16.0505H17.9023V15.1094Z" fill="black"/>
<path d="M16.322 9.23539C17.3026 8.82579 17.9947 7.85682 17.9966 6.72871C17.999 5.22893 16.783 4.00659 15.2801 4.00391C13.7832 4.00391 12.5631 5.22196 12.5604 6.71951C12.5586 7.86973 13.2589 8.82711 14.2247 9.23248C12.3738 9.67132 10.9544 11.247 10.7526 13.1834L9.23114 13.1807L9.22266 17.9564L20.8935 17.9774L20.9007 13.201L19.7837 13.199C19.598 11.2827 18.214 9.68586 16.3221 9.2354L16.322 9.23539ZM13.5017 6.72111C13.5035 5.74185 14.3013 4.94522 15.2839 4.94522C16.2622 4.94678 17.0571 5.74636 17.0555 6.72739C17.054 7.70642 16.2578 8.50305 15.281 8.50305H15.2778C14.2914 8.50171 13.5004 7.70728 13.5017 6.72111ZM15.2731 10.0477C17.1004 10.0508 18.6095 11.4182 18.835 13.1816H11.7007C11.9344 11.4156 13.446 10.0477 15.2733 10.0477H15.2731ZM19.9539 17.0345L10.1659 17.0173L10.1708 14.124L19.9583 14.1406L19.9539 17.0345Z" fill="black"/>
</svg>