<svg width="38" height="38" viewBox="0 0 26 26" fill="none" xmlns="http://www.w3.org/2000/svg">
<path d="M24.0657 1.96174H21.2667L19.6912 0.386183C19.6115 0.306497 19.5033 0.261719 19.3906 0.261719H7.49063C7.03983 0.262288 6.6078 0.441584 6.28907 0.760159C5.97051 1.07891 5.79121 1.51093 5.79063 1.96172V7.91172H6.64063V1.96172C6.64082 1.73632 6.73057 1.5204 6.88994 1.36104C7.04931 1.20167 7.26523 1.11192 7.49062 1.11173H18.9656V3.66173C18.9662 4.11253 19.1455 4.54456 19.4641 4.86329C19.7828 5.18185 20.2148 5.36115 20.6656 5.36173H23.2156V21.5117C23.2154 21.7371 23.1257 21.953 22.9663 22.1124C22.8069 22.2718 22.591 22.3615 22.3656 22.3617H14.7156V23.2117H22.3656C22.8164 23.2112 23.2485 23.0319 23.5672 22.7133C23.8858 22.3945 24.0651 21.9625 24.0656 21.5117V4.93672C24.0656 4.82402 24.0209 4.71587 23.9412 4.63618L22.1167 2.81174H24.0657C24.2911 2.81193 24.507 2.90168 24.6663 3.06105C24.8257 3.22042 24.9155 3.43634 24.9156 3.66173V23.2117C24.9155 23.4371 24.8257 23.653 24.6663 23.8124C24.507 23.9718 24.291 24.0615 24.0657 24.0617H14.7157V24.9117H24.0657C24.5165 24.9112 24.9485 24.7319 25.2672 24.4133C25.5858 24.0945 25.7651 23.6625 25.7657 23.2117V3.66172C25.7651 3.21092 25.5858 2.77889 25.2672 2.46016C24.9485 2.1416 24.5164 1.96233 24.0657 1.96174ZM19.8157 3.66174V1.71281L22.6146 4.51174H20.6657C20.4403 4.51155 20.2243 4.42181 20.065 4.26244C19.9056 4.10306 19.8158 3.88713 19.8157 3.66174ZM6.64066 13.0117V15.5617H5.79065V13.0117H6.64066ZM8.76566 2.81174H7.91566V1.96174H8.76566V2.81174ZM10.4657 2.81174H9.61566V1.96174H10.4657V2.81174ZM12.1657 2.81174H11.3157V1.96174H12.1657V2.81174ZM13.8657 17.6867V24.4867C13.8653 24.8248 13.7308 25.1489 13.4919 25.388C13.2528 25.6269 12.9287 25.7614 12.5906 25.7618H1.54064C1.20254 25.7614 0.878466 25.6269 0.639397 25.388C0.400523 25.1489 0.266004 24.8248 0.265625 24.4867V19.3867H1.11563V24.4867C1.11581 24.7214 1.30593 24.9116 1.54063 24.9117H12.5906C12.8253 24.9116 13.0154 24.7214 13.0156 24.4867V17.6867C13.0154 17.452 12.8253 17.2619 12.5906 17.2617H1.54063C1.30593 17.2619 1.11581 17.452 1.11563 17.6867V18.5367H0.265625V17.6867C0.266004 17.3486 0.400523 17.0246 0.639397 16.7855C0.878461 16.5466 1.20253 16.4121 1.54064 16.4117H9.19064V13.8617C9.19064 13.1026 8.78556 12.401 8.12814 12.0215C7.47073 11.6418 6.66055 11.6418 6.00314 12.0215C5.34573 12.401 4.94064 13.1026 4.94064 13.8617V15.1367C4.94064 15.2494 4.89586 15.3576 4.81618 15.4373C4.73649 15.517 4.62834 15.5617 4.51564 15.5617H2.39064C2.15594 15.5617 1.96564 15.3714 1.96564 15.1367V13.8617C1.95995 12.4568 2.53956 11.1129 3.56529 10.1527L4.14893 10.7708H4.14874C3.29398 11.571 2.81093 12.6909 2.81569 13.8618V14.7118H4.09069V13.8618C4.09069 12.7989 4.65781 11.8168 5.57819 11.2854C6.49857 10.754 7.63281 10.754 8.55319 11.2854C9.47357 11.8168 10.0407 12.7989 10.0407 13.8618V16.4118H11.3157V13.8618C11.3155 12.8367 10.945 11.8463 10.2722 11.0729C9.59937 10.2994 8.66991 9.79504 7.65462 9.65297C6.63958 9.51067 5.60724 9.74006 4.74772 10.2988L4.28344 9.58696H4.28363C5.31481 8.91623 6.55357 8.64079 7.77184 8.81113C8.99011 8.98169 10.1059 9.58676 10.9132 10.5149C11.7207 11.4429 12.1655 12.6316 12.1657 13.8618V16.4118H12.5907C12.9288 16.4122 13.2528 16.5467 13.4919 16.7855C13.7308 17.0246 13.8653 17.3487 13.8657 17.6868L13.8657 17.6867ZM7.49066 22.7867V21.8637C7.87183 21.7288 8.16648 21.4212 8.28489 21.0348C8.4031 20.6481 8.33119 20.2284 8.0908 19.9034C7.85022 19.5784 7.47001 19.3865 7.0657 19.3865C6.66139 19.3865 6.28117 19.5784 6.0406 19.9034C5.80021 20.2284 5.7283 20.6481 5.8465 21.0348C5.96489 21.4213 6.25955 21.7288 6.64074 21.8637V22.7867H7.49066ZM7.06566 20.2367C7.23755 20.2367 7.39257 20.3403 7.45821 20.4991C7.52405 20.6579 7.48781 20.8407 7.36619 20.9623C7.24457 21.0839 7.06186 21.1201 6.90305 21.0543C6.74425 20.9886 6.64066 20.8336 6.64066 20.6617C6.64085 20.427 6.83096 20.2369 7.06566 20.2367ZM7.91566 6.21174C7.91566 6.66729 8.1587 7.08812 8.55316 7.31597C8.94761 7.54364 9.43371 7.54364 9.82816 7.31597C10.2226 7.0881 10.4657 6.66729 10.4657 6.21174V5.36174C10.4657 4.9062 10.2226 4.48537 9.82816 4.25752C9.4337 4.02984 8.9476 4.02984 8.55316 4.25752C8.1587 4.48539 7.91566 4.90619 7.91566 5.36174V6.21174ZM8.76566 5.36174C8.76566 5.12705 8.95596 4.93674 9.19066 4.93674C9.42535 4.93674 9.61566 5.12705 9.61566 5.36174V6.21174C9.61566 6.44644 9.42535 6.63674 9.19066 6.63674C8.95596 6.63674 8.76566 6.44644 8.76566 6.21174V5.36174ZM11.3157 4.08674H12.1657V7.48674H11.3157V4.08674ZM14.2907 4.08674C13.9526 4.08712 13.6285 4.22164 13.3894 4.46052C13.1505 4.69958 13.016 5.02365 13.0156 5.36176V6.21176C13.0156 6.6673 13.2587 7.08813 13.6531 7.31598C14.0476 7.54366 14.5337 7.54366 14.9281 7.31598C15.3226 7.08811 15.5656 6.66731 15.5656 6.21176V5.36176C15.5653 5.02366 15.4307 4.69958 15.1919 4.46052C14.9528 4.22164 14.6288 4.08712 14.2907 4.08674ZM14.7157 6.21174C14.7157 6.44644 14.5254 6.63674 14.2907 6.63674C14.056 6.63674 13.8657 6.44644 13.8657 6.21174V5.36174C13.8657 5.12705 14.056 4.93674 14.2907 4.93674C14.5254 4.93674 14.7157 5.12705 14.7157 5.36174V6.21174ZM17.6907 4.08674C17.3526 4.08712 17.0285 4.22164 16.7894 4.46052C16.5505 4.69958 16.416 5.02365 16.4156 5.36176V6.21176C16.4156 6.6673 16.6587 7.08813 17.0531 7.31598C17.4476 7.54366 17.9337 7.54366 18.3281 7.31598C18.7226 7.08811 18.9656 6.66731 18.9656 6.21176V5.36176C18.9653 5.02366 18.8307 4.69958 18.5919 4.46052C18.3528 4.22164 18.0288 4.08712 17.6907 4.08674ZM18.1157 6.21174C18.1157 6.44644 17.9254 6.63674 17.6907 6.63674C17.456 6.63674 17.2657 6.44644 17.2657 6.21174V5.36174C17.2657 5.12705 17.456 4.93674 17.6907 4.93674C17.9254 4.93674 18.1157 5.12705 18.1157 5.36174V6.21174ZM12.5907 9.61174V10.4617C12.5907 10.9173 12.8337 11.3381 13.2282 11.566C13.6226 11.7936 14.1087 11.7936 14.5032 11.566C14.8976 11.3381 15.1407 10.9173 15.1407 10.4617V9.61174C15.1407 9.1562 14.8976 8.73537 14.5032 8.50752C14.1087 8.27984 13.6226 8.27984 13.2282 8.50752C12.8337 8.73539 12.5907 9.15619 12.5907 9.61174ZM13.4407 9.61174C13.4407 9.37705 13.631 9.18674 13.8657 9.18674C14.1004 9.18674 14.2907 9.37705 14.2907 9.61174V10.4617C14.2907 10.6964 14.1004 10.8867 13.8657 10.8867C13.631 10.8867 13.4407 10.6964 13.4407 10.4617V9.61174ZM15.9907 8.33674H16.8407V11.7367H15.9907V8.33674ZM18.9657 8.33674C18.6276 8.33712 18.3035 8.47164 18.0644 8.71052C17.8255 8.94958 17.691 9.27365 17.6906 9.61176V10.4618C17.6906 10.9173 17.9337 11.3381 18.3281 11.566C18.7226 11.7937 19.2087 11.7937 19.6031 11.566C19.9976 11.3381 20.2406 10.9173 20.2406 10.4618V9.61176C20.2403 9.27366 20.1057 8.94958 19.8669 8.71052C19.6278 8.47164 19.3038 8.33712 18.9657 8.33674ZM19.3907 10.4617C19.3907 10.6964 19.2004 10.8867 18.9657 10.8867C18.731 10.8867 18.5407 10.6964 18.5407 10.4617V9.61174C18.5407 9.37705 18.731 9.18674 18.9657 9.18674C19.2004 9.18674 19.3907 9.37705 19.3907 9.61174V10.4617ZM21.9407 8.33674V11.7367H21.0907V8.33674H21.9407ZM13.4407 12.5867H14.2907V15.9867H13.4407V12.5867ZM15.1407 13.8617V14.7117C15.1407 15.1673 15.3837 15.5881 15.7782 15.816C16.1726 16.0436 16.6587 16.0436 17.0532 15.816C17.4476 15.5881 17.6907 15.1673 17.6907 14.7117V13.8617C17.6907 13.4062 17.4476 12.9854 17.0532 12.7575C16.6587 12.5298 16.1726 12.5298 15.7782 12.7575C15.3837 12.9854 15.1407 13.4062 15.1407 13.8617ZM15.9907 13.8617C15.9907 13.627 16.181 13.4367 16.4157 13.4367C16.6504 13.4367 16.8407 13.627 16.8407 13.8617V14.7117C16.8407 14.9464 16.6504 15.1367 16.4157 15.1367C16.181 15.1367 15.9907 14.9464 15.9907 14.7117V13.8617ZM21.0907 13.8617C21.0907 13.4062 20.8476 12.9854 20.4532 12.7575C20.0587 12.5298 19.5726 12.5298 19.1782 12.7575C18.7837 12.9854 18.5407 13.4062 18.5407 13.8617V14.7117C18.5407 15.1673 18.7837 15.5881 19.1782 15.816C19.5726 16.0436 20.0587 16.0436 20.4532 15.816C20.8476 15.5881 21.0907 15.1673 21.0907 14.7117V13.8617ZM20.2407 14.7117C20.2407 14.9464 20.0504 15.1367 19.8157 15.1367C19.581 15.1367 19.3907 14.9464 19.3907 14.7117V13.8617C19.3907 13.627 19.581 13.4367 19.8157 13.4367C20.0504 13.4367 20.2407 13.627 20.2407 13.8617V14.7117ZM15.1407 17.2617H15.9907V20.6617H15.1407V17.2617ZM20.2407 17.2617H21.0907V20.6617H20.2407V17.2617ZM16.8407 18.5367V19.3867C16.8407 19.8423 17.0837 20.2631 17.4782 20.491C17.8726 20.7186 18.3587 20.7186 18.7532 20.491C19.1476 20.2631 19.3907 19.8423 19.3907 19.3867V18.5367C19.3907 18.0812 19.1476 17.6604 18.7532 17.4325C18.3587 17.2048 17.8726 17.2048 17.4782 17.4325C17.0837 17.6604 16.8407 18.0812 16.8407 18.5367ZM18.5407 18.5367V19.3867C18.5407 19.6214 18.3504 19.8117 18.1157 19.8117C17.881 19.8117 17.6907 19.6214 17.6907 19.3867V18.5367C17.6907 18.302 17.881 18.1117 18.1157 18.1117C18.3504 18.1117 18.5407 18.302 18.5407 18.5367Z" fill="black"/>
</svg>