<svg width="38" height="38" viewBox="0 0 28 30" fill="none" xmlns="http://www.w3.org/2000/svg">
<path d="M20.3986 7.36911C20.3986 7.70906 20.1232 7.98453 19.7834 7.98453C19.4434 7.98453 19.168 7.70909 19.168 7.36911C19.168 7.02938 19.4434 6.75391 19.7834 6.75391C20.1231 6.75391 20.3986 7.02935 20.3986 7.36911Z" fill="black"/>
<path d="M22.2426 7.36911C22.2426 7.70906 21.9671 7.98453 21.6271 7.98453C21.2874 7.98453 21.0117 7.70909 21.0117 7.36911C21.0117 7.02938 21.2874 6.75391 21.6271 6.75391C21.9671 6.75391 22.2426 7.02935 22.2426 7.36911Z" fill="black"/>
<path d="M24.0902 7.36911C24.0902 7.70906 23.8148 7.98453 23.4748 7.98453C23.1348 7.98453 22.8594 7.70909 22.8594 7.36911C22.8594 7.02938 23.1348 6.75391 23.4748 6.75391C23.8148 6.75391 24.0902 7.02935 24.0902 7.36911Z" fill="black"/>
<path d="M5.32064 4.29363C5.99921 4.29363 6.55144 3.7414 6.55144 3.06283C6.55144 2.38427 5.99921 1.83203 5.32064 1.83203C4.64208 1.83203 4.08984 2.38427 4.08984 3.06283C4.08984 3.74163 4.64208 4.29363 5.32064 4.29363ZM5.32064 2.4474C5.65993 2.4474 5.93607 2.72352 5.93607 3.06283C5.93607 3.40215 5.65996 3.67826 5.32064 3.67826C4.98133 3.67826 4.70522 3.40215 4.70522 3.06283C4.70522 2.72352 4.98133 2.4474 5.32064 2.4474Z" fill="black"/>
<path d="M22.3994 3.98636C23.3325 3.98636 24.0918 3.22722 24.0918 2.29396C24.0918 1.36071 23.3327 0.601562 22.3994 0.601562C21.4664 0.601562 20.707 1.36071 20.707 2.29396C20.7073 3.22722 21.4664 3.98636 22.3994 3.98636ZM22.3994 1.21716C22.9932 1.21716 23.4765 1.7002 23.4765 2.29419C23.4765 2.88796 22.9934 3.37122 22.3994 3.37122C21.8057 3.37122 21.3224 2.88819 21.3224 2.29419C21.3226 1.70019 21.8057 1.21716 22.3994 1.21716Z" fill="black"/>
<path d="M1.32165 5.37154C1.32165 5.62645 1.11495 5.83314 0.860043 5.83314C0.605135 5.83314 0.398438 5.62645 0.398438 5.37154C0.398438 5.11685 0.605135 4.91016 0.860043 4.91016C1.11495 4.91016 1.32165 5.11685 1.32165 5.37154Z" fill="black"/>
<path d="M9.93884 2.29364C9.93884 2.54855 9.73214 2.75524 9.47723 2.75524C9.22232 2.75524 9.01562 2.54855 9.01562 2.29364C9.01562 2.03873 9.22232 1.83203 9.47723 1.83203C9.73214 1.83203 9.93884 2.03873 9.93884 2.29364Z" fill="black"/>
<path d="M18.5521 2.91082C18.5521 3.16573 18.3454 3.37221 18.0905 3.37221C17.8356 3.37221 17.6289 3.16573 17.6289 2.91082C17.6289 2.65592 17.8356 2.44922 18.0905 2.44922C18.3454 2.44922 18.5521 2.65592 18.5521 2.91082Z" fill="black"/>
<path d="M13.0128 4.14129C13.0128 4.3962 12.8064 4.60268 12.5514 4.60268C12.2965 4.60268 12.0898 4.3962 12.0898 4.14129C12.0898 3.88638 12.2965 3.67969 12.5514 3.67969C12.8064 3.67969 13.0128 3.88638 13.0128 4.14129Z" fill="black"/>
<path d="M27.7826 5.37154C27.7826 5.62645 27.5759 5.83314 27.321 5.83314C27.0661 5.83314 26.8594 5.62645 26.8594 5.37154C26.8594 5.11685 27.0661 4.91016 27.321 4.91016C27.5759 4.91016 27.7826 5.11685 27.7826 5.37154Z" fill="black"/>
<path d="M24.265 5.21875H3.60839C2.51685 5.21875 1.62891 6.10669 1.62891 7.19824V27.5468C1.62891 28.6384 2.51685 29.5263 3.60839 29.5263H24.265C25.3565 29.5263 26.2444 28.6381 26.2444 27.5468V7.19824C26.2444 6.10669 25.3565 5.21875 24.265 5.21875ZM25.629 7.19824V8.91098H16.3982V5.83395H24.265C25.0173 5.83417 25.629 6.44601 25.629 7.19824ZM2.24445 8.91098V7.68018H15.7827V8.91098H2.24445ZM3.60851 5.83418H15.7828V7.06498H2.25079C2.31798 6.37504 2.90102 5.83418 3.60816 5.83418H3.60851ZM24.2651 28.9108H3.60851C2.85628 28.9108 2.24445 28.2989 2.24445 27.5467V9.52612H25.629V27.5467C25.629 28.2989 25.0172 28.9108 24.265 28.9108H24.2651Z" fill="black"/>
<path d="M23.4746 11.3711H4.39743C4.22756 11.3711 4.08984 11.5088 4.08984 11.6787V26.7558C4.08984 26.9257 4.22757 27.0634 4.39743 27.0634H23.4746C23.6444 27.0634 23.7822 26.9257 23.7822 26.7558L23.7824 11.6787C23.7824 11.5088 23.6447 11.3711 23.4746 11.3711ZM23.167 11.9865V13.2173H4.70527V11.9865H23.167ZM11.6664 26.4482C12.6626 25.7862 13.3209 24.6545 13.3209 23.3712C13.3209 21.3353 11.6644 19.6788 9.62847 19.6788C7.59253 19.6788 5.93607 21.3353 5.93607 23.3712C5.93607 24.6542 6.59436 25.7862 7.59053 26.4482H4.7055V13.8328H23.1672V21.5254H21.2128C21.8413 21.0173 22.2442 20.2408 22.2442 19.3716V17.5254C22.2442 17.3555 22.1065 17.2178 21.9367 17.2178H21.6291V16.9102C21.6291 15.7225 20.6628 14.7562 19.4753 14.7562C18.2876 14.7562 17.3215 15.7225 17.3215 16.9102V17.2178H17.0139C16.8441 17.2178 16.7063 17.3555 16.7063 17.5254V19.3716C16.7063 20.2408 17.1093 21.0174 17.7378 21.5254H16.0903C15.9204 21.5254 15.7827 21.6631 15.7827 21.833C15.7827 22.0028 15.9204 22.1406 16.0903 22.1406H23.1674V26.4482L11.6664 26.4482ZM9.62847 26.4482C7.93184 26.4482 6.55144 25.0679 6.55144 23.3712C6.55144 21.6746 7.93179 20.2942 9.62847 20.2942C11.3252 20.2942 12.7055 21.6745 12.7055 23.3712C12.7055 25.0678 11.3252 26.4482 9.62847 26.4482ZM17.321 19.3711V17.8327H21.6286V19.3711C21.6286 20.5588 20.6624 21.5249 19.4749 21.5249C18.2872 21.5249 17.321 20.5588 17.321 19.3711ZM21.0132 17.2173H17.9362V16.9097C17.9362 16.0615 18.6264 15.3713 19.4746 15.3713C20.3228 15.3713 21.013 16.0615 21.013 16.9097L21.0132 17.2173Z" fill="black"/>
<path d="M11.9524 23.1163L11.0294 22.5009C10.8879 22.4067 10.697 22.4449 10.6026 22.5862C10.5084 22.7275 10.5466 22.9185 10.6879 23.013L11.2269 23.3723L10.6879 23.7317C10.5464 23.8259 10.5082 24.017 10.6026 24.1585C10.6966 24.2993 10.8877 24.3384 11.0294 24.2438L11.9524 23.6283C12.0379 23.5712 12.0894 23.4752 12.0894 23.3723C12.0894 23.2694 12.0381 23.1735 11.9524 23.1163Z" fill="black"/>
<path d="M8.65459 22.5863C8.56039 22.4448 8.36932 22.4066 8.2278 22.5011L7.30483 23.1165C7.12268 23.2379 7.12202 23.5067 7.30483 23.6285L8.2278 24.244C8.36999 24.3388 8.56083 24.2991 8.65459 24.1587C8.74878 24.0172 8.71061 23.8263 8.56932 23.7319L8.03026 23.3725L8.56932 23.0131C8.71062 22.919 8.749 22.7278 8.65459 22.5863Z" fill="black"/>
<path d="M10.343 21.2346C10.1818 21.1808 10.0075 21.2681 9.95372 21.4293L8.72292 25.1217C8.66912 25.2828 8.7564 25.4572 8.91756 25.5107C9.07872 25.5645 9.25305 25.4773 9.30684 25.3161L10.5376 21.6237C10.5914 21.4628 10.5042 21.2884 10.343 21.2346Z" fill="black"/>
<path d="M19.4738 18.7539C18.9646 18.7539 18.5508 19.168 18.5508 19.6769C18.5508 20.1858 18.9648 20.5999 19.4738 20.5999C19.9827 20.5999 20.3967 20.1858 20.3967 19.6769C20.3967 19.168 19.9827 18.7539 19.4738 18.7539ZM19.4738 19.9847C19.3041 19.9847 19.1662 19.8468 19.1662 19.6771C19.1662 19.5075 19.3041 19.3695 19.4738 19.3695C19.6434 19.3695 19.7813 19.5075 19.7813 19.6771C19.7816 19.8468 19.6434 19.9847 19.4738 19.9847Z" fill="black"/>
<path d="M10.5519 14.7539H5.93649C5.76663 14.7539 5.62891 14.8916 5.62891 15.0617C5.62891 15.2316 5.76663 15.3693 5.93649 15.3693H10.5519C10.7218 15.3693 10.8595 15.2316 10.8595 15.0617C10.8595 14.8916 10.7218 14.7539 10.5519 14.7539Z" fill="black"/>
<path d="M10.5519 15.9883H5.93649C5.76663 15.9883 5.62891 16.126 5.62891 16.2959C5.62891 16.4657 5.76663 16.6035 5.93649 16.6035H10.5519C10.7218 16.6035 10.8595 16.4657 10.8595 16.2959C10.8595 16.126 10.7218 15.9883 10.5519 15.9883Z" fill="black"/>
<path d="M10.5519 17.2188H5.93649C5.76663 17.2188 5.62891 17.3565 5.62891 17.5263C5.62891 17.6962 5.76663 17.8339 5.93649 17.8339H10.5519C10.7218 17.8339 10.8595 17.6962 10.8595 17.5263C10.8595 17.3565 10.7218 17.2188 10.5519 17.2188Z" fill="black"/>
<path d="M12.7071 14.7539H11.7842C11.6143 14.7539 11.4766 14.8916 11.4766 15.0617C11.4766 15.2316 11.6143 15.3693 11.7842 15.3693H12.7071C12.877 15.3693 13.0147 15.2316 13.0147 15.0617C13.0147 14.8916 12.877 14.7539 12.7071 14.7539Z" fill="black"/>
<path d="M12.7071 15.9883H11.7842C11.6143 15.9883 11.4766 16.126 11.4766 16.2959C11.4766 16.4657 11.6143 16.6035 11.7842 16.6035H12.7071C12.877 16.6035 13.0147 16.4657 13.0147 16.2959C13.0147 16.126 12.877 15.9883 12.7071 15.9883Z" fill="black"/>
<path d="M12.7071 17.2188H11.7842C11.6143 17.2188 11.4766 17.3565 11.4766 17.5263C11.4766 17.6962 11.6143 17.8339 11.7842 17.8339H12.7071C12.877 17.8339 13.0147 17.6962 13.0147 17.5263C13.0147 17.3565 12.877 17.2188 12.7071 17.2188Z" fill="black"/>
</svg>