<svg width="38" height="38" viewBox="0 0 26 26" fill="none" xmlns="http://www.w3.org/2000/svg">
<path d="M25.4106 8.3558L13.2022 0.499853C13.0849 0.424528 12.9341 0.424528 12.8168 0.499853L0.608862 8.3558C0.507163 8.42126 0.445312 8.53396 0.445312 8.6552V10.5607C0.445312 10.7572 0.604879 10.9168 0.801438 10.9168H1.59223V25.2157C1.59223 25.4123 1.7518 25.5718 1.94836 25.5718H24.0707C24.2673 25.5718 24.4268 25.4123 24.4268 25.2157L24.427 10.9168H25.2178C25.4144 10.9168 25.5739 10.7572 25.5739 10.5607V8.6552C25.5739 8.53415 25.5121 8.42145 25.4104 8.35561L25.4106 8.3558ZM21.7015 24.8599H4.31781V12.9963H21.7015V24.8599ZM23.715 24.8599H22.4136V12.6403C22.4136 12.4437 22.254 12.2842 22.0575 12.2842H3.96168C3.76512 12.2842 3.60555 12.4437 3.60555 12.6403V24.8599H2.30418V10.917H23.715V24.8599ZM24.8619 10.2044H1.15755V8.84918L13.01 1.22298L24.8624 8.84967L24.8619 10.2044ZM6.47613 7.01445V8.40767C6.47613 8.60423 6.63569 8.7638 6.83225 8.7638H19.1879C19.3844 8.7638 19.544 8.60423 19.544 8.40767V7.01445C19.544 6.81788 19.3844 6.65832 19.1879 6.65832H6.83225C6.6355 6.65832 6.47613 6.81789 6.47613 7.01445ZM7.18799 7.37038H18.831V8.0515H7.18799V7.37038ZM18.4964 22.5154C19.2274 22.5154 19.8221 21.9206 19.8221 21.1898C19.8221 20.8985 19.7278 20.6197 19.554 20.3902L19.5541 16.3983C19.5541 15.8152 19.0796 15.3405 18.4964 15.3405C17.9134 15.3405 17.4387 15.815 17.4387 16.3983V20.3902C17.2651 20.6194 17.1706 20.8984 17.1706 21.1898C17.1708 21.9206 17.7655 22.5154 18.4964 22.5154ZM18.4964 16.0525C18.6871 16.0525 18.8421 16.2075 18.8421 16.3982V20.5205C18.8421 20.612 18.8772 20.7002 18.9404 20.7664C19.0496 20.8808 19.1098 21.0313 19.1098 21.1901C19.1098 21.5284 18.8347 21.8039 18.496 21.8039C18.1573 21.8039 17.8822 21.5288 17.8822 21.1901C17.8822 21.0317 17.9423 20.8812 18.0516 20.7664C18.1148 20.7002 18.1499 20.6124 18.1499 20.5205L18.1503 19.7622H18.2738C18.4704 19.7622 18.6299 19.6026 18.6299 19.4061C18.6299 19.2095 18.4704 19.0499 18.2738 19.0499H18.1503V18.7754H18.2738C18.4704 18.7754 18.6299 18.6158 18.6299 18.4193C18.6299 18.2227 18.4704 18.0631 18.2738 18.0631H18.1503V17.7886H18.2738C18.4704 17.7886 18.6299 17.629 18.6299 17.4325C18.6299 17.2359 18.4704 17.0763 18.2738 17.0763H18.1503V16.398C18.1509 16.2076 18.3061 16.0525 18.4964 16.0525ZM6.19713 18.9277C6.19713 18.7311 6.3567 18.5716 6.55326 18.5716H7.00179L6.80712 18.342C6.67981 18.1921 6.6984 17.9675 6.84848 17.8402C6.99837 17.7129 7.22301 17.7315 7.35032 17.8815L7.93566 18.5718H9.89712L8.51016 17.1848L7.60838 17.259C7.59852 17.2598 7.58846 17.2601 7.57897 17.2601C7.39569 17.2601 7.23973 17.1194 7.22455 16.9332C7.20843 16.7372 7.35433 16.5655 7.55013 16.5494L7.8501 16.5247L7.53268 16.2073C7.3936 16.0682 7.3936 15.843 7.53268 15.7038C7.67175 15.5647 7.89734 15.5647 8.03622 15.7038L8.35364 16.0212L8.3783 15.7212C8.39443 15.5252 8.56652 15.3799 8.76213 15.3955C8.95813 15.4116 9.10384 15.5837 9.0879 15.7793L9.01372 16.6811L10.4007 18.068V16.1066L9.71042 15.5212C9.56054 15.3939 9.54175 15.1693 9.66906 15.0194C9.79638 14.8695 10.021 14.8511 10.1709 14.978L10.4005 15.1727V14.7245C10.4005 14.528 10.56 14.3684 10.7566 14.3684C10.9532 14.3684 11.1127 14.528 11.1127 14.7245V15.1731L11.3423 14.9784C11.4924 14.8511 11.7168 14.8699 11.8441 15.0198C11.9715 15.1697 11.9529 15.3943 11.8028 15.5216L11.1125 16.1069V18.0684L12.4995 16.6814L12.4253 15.7793C12.4092 15.5833 12.5551 15.4116 12.7509 15.3955C12.9469 15.3801 13.119 15.5252 13.1347 15.7212L13.1594 16.0212L13.4768 15.7038C13.6159 15.5647 13.8411 15.5647 13.9803 15.7038C14.1194 15.8428 14.1194 16.0681 13.9803 16.2073L13.6629 16.5247L13.9629 16.5494C14.1589 16.5655 14.3046 16.7376 14.2887 16.9332C14.2733 17.1194 14.1175 17.2601 13.9342 17.2601C13.9244 17.2601 13.9147 17.2599 13.9048 17.259L13.0031 17.1848L11.6161 18.5718H13.5776L14.1629 17.8815C14.2902 17.7316 14.5148 17.7132 14.6647 17.8402C14.8146 17.9675 14.8334 18.1921 14.7061 18.342L14.5114 18.5716H14.96C15.1565 18.5716 15.3161 18.7311 15.3161 18.9277C15.3161 19.1243 15.1565 19.2838 14.96 19.2838H14.5114L14.7061 19.5134C14.8334 19.6633 14.8148 19.8879 14.6647 20.0152C14.5979 20.072 14.516 20.0997 14.4346 20.0997C14.3336 20.0997 14.2335 20.057 14.1629 19.9739L13.5776 19.2836H11.6161L13.003 20.6706L13.9048 20.5964C14.1002 20.5803 14.2729 20.7262 14.2887 20.9222C14.3046 21.1182 14.1589 21.2899 13.9631 21.306L13.6631 21.3307L13.9805 21.6481C14.1196 21.7872 14.1196 22.0124 13.9805 22.1516C13.9111 22.2211 13.8198 22.256 13.7286 22.256C13.6373 22.256 13.5464 22.2211 13.4766 22.1516L13.1592 21.8342L13.1345 22.1342C13.1191 22.3203 12.9634 22.4611 12.7801 22.4611C12.7702 22.4611 12.7605 22.4609 12.7507 22.46C12.5547 22.4438 12.409 22.2717 12.4251 22.0761L12.4993 21.174L11.1123 19.787V21.7485L11.8026 22.3338C11.9525 22.4611 11.9713 22.6858 11.8439 22.8356C11.7734 22.9187 11.6732 22.9614 11.5722 22.9614C11.4908 22.9614 11.4091 22.9337 11.3421 22.877L11.1125 22.6823V23.1309C11.1125 23.3274 10.953 23.487 10.7564 23.487C10.5598 23.487 10.4003 23.3274 10.4003 23.1309V22.6823L10.1707 22.877C10.0208 23.0043 9.79616 22.9857 9.66885 22.8356C9.54154 22.6857 9.56013 22.4611 9.71021 22.3338L10.4005 21.7485V19.787L9.0135 21.174L9.08768 22.0761C9.10381 22.2721 8.95791 22.4438 8.7621 22.46C8.75224 22.4607 8.74218 22.4611 8.7327 22.4611C8.54942 22.4611 8.39345 22.3203 8.37828 22.1342L8.35361 21.8342L8.03619 22.1516C7.96674 22.2211 7.87548 22.256 7.78422 22.256C7.69296 22.256 7.60208 22.2211 7.53226 22.1516C7.39318 22.0126 7.39318 21.7873 7.53226 21.6481L7.84968 21.3307L7.54971 21.306C7.35372 21.2899 7.208 21.1178 7.22394 20.9222C7.24007 20.7262 7.41216 20.5803 7.60777 20.5964L8.50955 20.6706L9.89651 19.2836H7.93505L7.34971 19.9739C7.27913 20.057 7.17895 20.0997 7.07801 20.0997C6.99662 20.0997 6.91484 20.072 6.84787 20.0152C6.69798 19.8879 6.67919 19.6633 6.80651 19.5134L7.00117 19.2838H6.55264C6.35646 19.2838 6.19708 19.1246 6.19708 18.9277L6.19713 18.9277Z" fill="black"/>
</svg>