<svg width="38" height="38" viewBox="0 0 28 27" fill="none" xmlns="http://www.w3.org/2000/svg">
<path d="M15.1196 22.3286V1.38961L12.1282 3.49881C11.7493 3.7658 11.2969 3.90935 10.8331 3.90935H5.0421C5.20753 7.37945 6.1415 10.8844 7.8509 14.4289C7.92101 14.574 7.9923 14.7177 8.06496 14.8601C10.4406 15.6322 12.1829 17.8086 12.3119 20.4096C12.9802 21.001 13.6951 21.5434 14.4562 22.0374C14.6636 22.1719 14.8878 22.269 15.1195 22.3286L15.1196 22.3286ZM16.2397 22.3286C16.4713 22.269 16.6956 22.172 16.9032 22.0374C19.7528 20.1885 21.9507 17.6589 23.5082 14.4289C25.2177 10.8841 26.1516 7.3794 26.317 3.9094H20.526C20.0621 3.9094 19.6098 3.76584 19.2309 3.49885L16.2395 1.38965L16.2397 22.3286ZM6.6812 14.5816C5.00875 11.018 4.0886 7.47811 3.92105 3.96261C3.89156 3.34446 4.36968 2.81946 4.989 2.78996C5.00677 2.78917 5.02454 2.78878 5.04232 2.78878H10.8333C11.0652 2.78878 11.2915 2.7171 11.481 2.58351L14.7085 0.307909C15.2908 -0.102636 16.0691 -0.102636 16.6513 0.307909L19.879 2.58351C20.0685 2.7171 20.2946 2.78878 20.5265 2.78878H26.3175C26.9374 2.78878 27.4401 3.29053 27.4401 3.90948C27.4401 3.92726 27.4397 3.94484 27.4388 3.96261C27.2659 7.58781 26.2931 11.2386 24.5202 14.9151C22.8745 18.3276 20.5396 21.0146 17.5152 22.9766C16.3992 23.7006 14.9607 23.7006 13.8449 22.9766C13.2811 22.6108 12.741 22.2198 12.225 21.8034C11.7129 24.6887 9.1924 26.8799 6.16 26.8799C2.75805 26.8799 0 24.1219 0 20.7199C0 17.3177 2.758 14.5599 6.16 14.5599C6.33559 14.5599 6.50961 14.5671 6.6815 14.5815L6.6812 14.5816ZM6.1597 15.6799C3.3763 15.6799 1.1197 17.9363 1.1197 20.7199C1.1197 23.5034 3.37635 25.7599 6.1597 25.7599C8.9433 25.7599 11.1997 23.5034 11.1997 20.7199C11.1997 17.9363 8.94325 15.6799 6.1597 15.6799ZM3.98275 19.8437L5.56085 21.3988L8.56475 18.4799L9.35165 19.2662L5.5569 22.96L3.19165 20.6262L3.98275 19.8437Z" fill="black"/>
</svg>