        <svg width="58" height="58" viewBox="0 0 36 60" fill="none"
                                    xmlns="http://www.w3.org/2000/svg">
                                    <path
                                        d="M35.3794 9.76888H29.1487V7.03274C29.1487 6.84086 29.0727 6.65754 28.9377 6.52208C28.8023 6.38661 28.6184 6.31057 28.4271 6.31057H22.3843V4.76555C22.3843 3.21795 21.5584 1.78767 20.2182 1.01413C18.8777 0.240083 17.2268 0.240083 15.8862 1.01413C14.546 1.78767 13.7201 3.21795 13.7201 4.76555V6.31057H7.67733C7.27846 6.31057 6.95565 6.63388 6.95565 7.03275V9.7689H0.760739C0.36239 9.7689 0.0390625 10.0922 0.0390625 10.4906V58.913C0.0390625 59.1044 0.115108 59.2882 0.250576 59.4237C0.385546 59.5591 0.569364 59.6352 0.760725 59.6352H24.9687C25.0629 59.6337 25.1561 59.614 25.2432 59.5773C25.3303 59.5405 25.4109 59.4891 25.4814 59.4257L35.8563 49.0508C35.9142 48.9873 35.961 48.9138 35.9933 48.8342C35.9958 48.8126 35.9958 48.7909 35.9933 48.7693C36.0003 48.7068 36.0003 48.6439 35.9933 48.5814V48.5381V10.4902C35.9973 10.1306 35.7354 9.82239 35.3794 9.7685V9.76888ZM15.1641 4.76548C15.1641 3.73359 15.7146 2.78032 16.6079 2.26462C17.5014 1.74893 18.6023 1.74893 19.4956 2.26462C20.389 2.78032 20.9394 3.73371 20.9394 4.76548V6.31051H15.164L15.1641 4.76548ZM8.39912 7.75445H27.7041V13.2271H8.39912V7.75445ZM25.6904 57.1735V49.2315H33.6323L25.6904 57.1735ZM34.6576 47.817H24.9688C24.5699 47.817 24.2466 48.1398 24.2466 48.5386V58.1913H1.48254V11.2128H6.95522V13.9489C6.95522 14.1408 7.03127 14.3241 7.16623 14.4596C7.30171 14.5951 7.48553 14.6711 7.67689 14.6711H28.4272C28.6185 14.6711 28.8023 14.5951 28.9378 14.4596C29.0728 14.3241 29.1488 14.1408 29.1488 13.9489V11.2128H34.6577L34.6576 47.817Z"
                                        fill="black" />
                                    <path
                                        d="M12.6961 19.4062H6.8623C6.46344 19.4062 6.14062 19.7296 6.14062 20.1284V25.9693C6.14062 26.1607 6.21667 26.3445 6.35164 26.48C6.48711 26.6149 6.67093 26.691 6.86229 26.691H12.6961C12.8875 26.691 13.0713 26.6149 13.2062 26.48C13.3417 26.3445 13.4177 26.1607 13.4177 25.9693V20.1284C13.4177 19.9371 13.3417 19.7532 13.2062 19.6178C13.0713 19.4823 12.8875 19.4062 12.6961 19.4062ZM11.9739 25.2471H7.58445V20.8506H11.9739V25.2471Z"
                                        fill="black" />
                                    <path
                                        d="M12.6961 31.9688H6.8623C6.46344 31.9688 6.14062 32.2921 6.14062 32.6909V38.5318V38.5313C6.14062 38.7232 6.21667 38.9065 6.35164 39.042C6.48711 39.1774 6.67093 39.2535 6.86229 39.2535H12.6961C12.8875 39.2535 13.0713 39.1774 13.2062 39.042C13.3417 38.9065 13.4177 38.7232 13.4177 38.5313V32.6909C13.4177 32.4991 13.3417 32.3157 13.2062 32.1803C13.0713 32.0448 12.8875 31.9688 12.6961 31.9688ZM11.9739 37.8096H7.58445V33.4127H11.9739V37.8096Z"
                                        fill="black" />
                                    <path
                                        d="M12.6961 44.5312H6.8623C6.46344 44.5312 6.14062 44.8546 6.14062 45.2529V51.0938C6.14062 51.2852 6.21667 51.469 6.35164 51.6045C6.48711 51.7399 6.67093 51.816 6.86229 51.816H12.6961C12.8875 51.816 13.0713 51.7399 13.2062 51.6045C13.3417 51.469 13.4177 51.2852 13.4177 51.0938V45.2529C13.4177 45.0616 13.3417 44.8777 13.2062 44.7428C13.0713 44.6073 12.8875 44.5312 12.6961 44.5312ZM11.9739 50.3721H7.58445V45.9752H11.9739V50.3721Z"
                                        fill="black" />
                                    <path
                                        d="M15.8125 25.9702C15.8125 26.1616 15.8886 26.3454 16.024 26.4809C16.1595 26.6159 16.3428 26.6919 16.5342 26.6919H29.2049C29.6038 26.6919 29.9271 26.3691 29.9271 25.9702C29.9271 25.5714 29.6038 25.248 29.2049 25.248H16.5342C16.1358 25.248 15.8125 25.5714 15.8125 25.9702Z"
                                        fill="black" />
                                    <path
                                        d="M29.2049 37.8105H16.5342C16.1358 37.8105 15.8125 38.1339 15.8125 38.5322C15.8125 38.9311 16.1358 39.2544 16.5342 39.2544H29.2049C29.6038 39.2544 29.9271 38.9311 29.9271 38.5322C29.9271 38.1339 29.6038 37.8105 29.2049 37.8105Z"
                                        fill="black" />
                                    <path
                                        d="M21.2343 50.3086H16.5342C16.1358 50.3086 15.8125 50.6319 15.8125 51.0308C15.8125 51.4296 16.1358 51.7529 16.5342 51.7529H21.2343C21.6332 51.7529 21.9565 51.4296 21.9565 51.0308C21.9565 50.6319 21.6332 50.3086 21.2343 50.3086Z"
                                        fill="black" />
                                </svg>