    <svg width="54" height="54" viewBox="0 0 44 54" fill="none"
                                    xmlns="http://www.w3.org/2000/svg">
                                    <path
                                        d="M43.3384 27.8396L38.8583 20.9517C38.7462 20.7279 38.6903 20.5037 38.6345 20.1677C37.8505 11.2075 31.1306 4.20773 22.5065 2.80773C22.5065 1.46363 21.4424 0.399933 20.0987 0.399933H16.5706C15.2265 0.399933 14.1628 1.46403 14.1628 2.80773V3.31164C6.04288 5.60774 0.0507812 13.0557 0.0507812 21.9036C0.0507812 28.0638 2.90668 34.2236 7.72268 38.3676C7.83479 38.4798 8.05862 38.7036 8.05862 38.9837V49.2317C8.05862 50.7997 9.23482 52.0876 10.8027 52.2555L26.1467 53.5996H26.4268C27.1549 53.5996 27.9389 53.3195 28.4987 52.8156C29.1147 52.2554 29.5065 51.4156 29.5065 50.5758V43.9676H34.2667C36.7308 43.9676 38.7468 41.9516 38.7468 39.4875V33.1598H40.4827C41.7706 33.1598 42.9468 32.4879 43.5065 31.3676C44.1225 30.2477 44.0667 28.9035 43.3385 27.8395L43.3384 27.8396ZM40.9306 29.9677C40.8748 30.0798 40.7626 30.2478 40.4826 30.2478H37.8506C36.7307 30.2478 35.7787 31.1439 35.7787 32.3197V39.4877C35.7787 40.3275 35.1068 40.9998 34.2666 40.9998H28.8904C27.6025 40.9998 26.5384 42.0639 26.5384 43.3518L26.4825 50.6877L11.0265 49.2318L11.0261 38.9838C11.0261 37.9197 10.5222 36.8557 9.68201 36.1279C5.59411 32.5998 3.01791 27.1677 3.01791 21.9039C3.01791 14.6801 7.72181 8.57589 14.2179 6.39189V16.5279C15.4499 15.7998 16.8499 15.3517 18.362 15.3517C19.8741 15.3517 21.33 15.7997 22.5061 16.5279V5.77589C29.6182 7.11969 35.0501 12.9997 35.7221 20.4479C35.778 21.176 36.0022 21.792 36.3381 22.4639L40.874 29.408C41.042 29.6318 40.9861 29.8557 40.9303 29.9678L40.9306 29.9677Z"
                                        fill="black" />
                                    <path
                                        d="M30.2337 31.5356L24.7458 31.4797L22.1696 27.1117C23.0656 26.1598 23.5696 24.9277 23.5696 23.5277C23.5696 20.6718 21.2176 18.2636 18.3618 18.2636C15.4497 18.2636 13.0977 20.6156 13.0977 23.5277C13.0977 26.4398 15.4497 28.7918 18.3618 28.7918C18.8098 28.7918 19.2578 28.736 19.6497 28.6239L22.2259 32.9919C22.786 33.888 23.7939 34.504 24.8579 34.504H30.1778C30.9617 34.504 31.6337 33.8321 31.6337 33.0481C31.6895 32.2075 31.0176 31.5356 30.2337 31.5356Z"
                                        fill="black" />
                                </svg>