   <svg width="54" height="54" viewBox="0 0 48 54" fill="none"
                                    xmlns="http://www.w3.org/2000/svg">
                                    <path
                                        d="M39.5297 39.413C39.2185 39.413 38.9663 39.6598 38.9663 39.9643V48.4201C38.9663 50.8885 36.9137 52.8978 34.3902 52.8978L5.70229 52.8974C3.17964 52.8974 1.12623 50.8889 1.12623 48.4197L1.12664 10.091C1.12664 7.62254 3.17921 5.61326 5.7027 5.61326H12.4518V7.19161H5.7027C4.06866 7.19161 2.74008 8.49205 2.74008 10.0906V48.4192C2.74008 50.0182 4.06908 51.3182 5.7027 51.3182H34.3917C36.0257 51.3182 37.3543 50.0177 37.3543 48.4192V39.9413C37.3543 39.6368 37.1021 39.39 36.7909 39.39C36.4797 39.39 36.2276 39.6368 36.2276 39.9413V48.4197C36.2276 49.4107 35.4033 50.2169 34.3909 50.2169L5.70186 50.2173C4.689 50.2173 3.86516 49.4108 3.86516 48.4201V10.0914C3.86516 9.10029 4.68939 8.29415 5.70186 8.29415H12.6651C13.0275 9.05423 13.8142 9.58373 14.7263 9.58373H25.3664C26.2785 9.58373 27.0652 9.05426 27.4276 8.29415H34.3913C35.4041 8.29415 36.228 9.10067 36.228 10.0914V18.5645C36.228 18.869 36.4802 19.1158 36.7914 19.1158C37.1026 19.1158 37.3547 18.869 37.3547 18.5645L37.3543 10.0914C37.3543 8.49245 36.0253 7.19243 34.3917 7.19243H27.6426V5.61408H34.3917C36.9144 5.61408 38.9678 7.62253 38.9678 10.0918L38.9674 18.55C38.9674 18.8545 39.2195 19.1013 39.5307 19.1013C39.8419 19.1013 40.0941 18.8545 40.0941 18.55V10.0915C40.0941 7.01522 37.5364 4.51205 34.3921 4.51205L27.4272 4.51245C27.0648 3.75237 26.2781 3.22287 25.366 3.22287H23.8616C23.5883 1.40228 21.9816 0 20.0458 0C18.1097 0 16.5038 1.40217 16.2301 3.22287H14.7257C13.8136 3.22287 13.0269 3.75234 12.6645 4.51245H5.70198C2.55815 4.51245 0 7.01521 0 10.0919V48.4206C0 51.4968 2.55773 54 5.70198 54H34.391C37.5348 54 40.093 51.4972 40.093 48.4206V39.9648C40.0921 39.6603 39.8404 39.4135 39.5296 39.4135L39.5297 39.413ZM14.7258 4.3246H16.7524C17.0636 4.3246 17.3158 4.07784 17.3158 3.77333C17.3158 2.30002 18.5404 1.10173 20.046 1.10173C21.5517 1.10173 22.7763 2.30002 22.7763 3.77333C22.7763 4.07784 23.0285 4.3246 23.3397 4.3246H25.3663C25.9998 4.3246 26.5153 4.82863 26.5153 5.44896V7.35764C26.5153 7.97758 26.0002 8.48201 25.3663 8.48201H14.7262C14.0927 8.48201 13.5772 7.97798 13.5772 7.35764V5.44896C13.5776 4.82903 14.0935 4.3246 14.7262 4.3246H14.7258ZM19.133 3.51161C19.133 3.0193 19.5429 2.61826 20.046 2.61826C20.5491 2.61826 20.959 3.0193 20.959 3.51161C20.959 4.00393 20.5491 4.40496 20.046 4.40496C19.5433 4.40537 19.133 4.00393 19.133 3.51161ZM33.1669 17.9221H17.8133C17.5021 17.9221 17.2499 17.6753 17.2499 17.3708C17.2499 17.0663 17.5021 16.8195 17.8133 16.8195H33.1669C33.4781 16.8195 33.7303 17.0663 33.7303 17.3708C33.7299 17.6757 33.4777 17.9221 33.1669 17.9221ZM17.2502 20.4882C17.2502 20.1837 17.5023 19.937 17.8135 19.937H25.49C25.8012 19.937 26.0534 20.1837 26.0534 20.4882C26.0534 20.7927 25.8012 21.0395 25.49 21.0395H17.8131C17.5019 21.0395 17.2502 20.7931 17.2502 20.4882ZM17.2502 31.46C17.2502 31.1554 17.5023 30.9087 17.8135 30.9087H25.49C25.8012 30.9087 26.0534 31.1554 26.0534 31.46C26.0534 31.7645 25.8012 32.0112 25.49 32.0112H17.8131C17.5019 32.0112 17.2502 31.7645 17.2502 31.46ZM27.3515 28.3425C27.3515 28.6471 27.0994 28.8938 26.7882 28.8938H17.8132C17.502 28.8938 17.2498 28.6471 17.2498 28.3425C17.2498 28.038 17.502 27.7913 17.8132 27.7913H26.7886C27.0994 27.7917 27.3515 28.0384 27.3515 28.3425ZM7.48943 17.3853V20.4736C7.48943 20.7854 7.74904 21.0395 8.06768 21.0395H11.2239C11.5425 21.0395 11.8021 20.7854 11.8021 20.4736V20.2265C11.8021 19.922 12.0543 19.6752 12.3655 19.6752C12.6767 19.6752 12.9289 19.922 12.9289 20.2265V20.4736C12.9289 21.3932 12.1641 22.1412 11.2247 22.1412L8.06681 22.1416C7.12701 22.1416 6.3626 21.3937 6.3626 20.4741V17.3857C6.3626 16.4661 7.127 15.7181 8.06681 15.7181H11.223C11.4479 15.7181 11.6667 15.7609 11.8739 15.8449C12.1612 15.9613 12.2974 16.2839 12.1785 16.565C12.0596 16.8461 11.7298 16.9794 11.4426 16.8631C11.3737 16.8348 11.2998 16.8207 11.223 16.8207L8.06682 16.8203C7.74819 16.8199 7.48943 17.0735 7.48943 17.3853ZM6.36267 28.357C6.36267 27.4374 7.12706 26.6894 8.06687 26.6894H11.2231C11.448 26.6894 11.6668 26.7319 11.874 26.8163C12.1612 26.9326 12.2974 27.2553 12.1785 27.5364C12.0597 27.8174 11.7299 27.9507 11.4426 27.8344C11.3737 27.8061 11.2998 27.792 11.2231 27.792L8.06688 27.7916C7.74825 27.7916 7.48863 28.0456 7.48863 28.3574V31.4458C7.48863 31.7576 7.74824 32.0116 8.06688 32.0116H11.2231C11.5417 32.0116 11.8013 31.7576 11.8013 31.4458V31.1986C11.8013 30.8941 12.0535 30.6473 12.3647 30.6473C12.6759 30.6473 12.9281 30.8941 12.9281 31.1986V31.4458C12.9281 32.3654 12.1633 33.1133 11.2239 33.1133H8.06685C7.12705 33.1133 6.36265 32.365 6.36265 31.4458L6.36267 28.357ZM6.36267 39.3287C6.36267 38.4091 7.12706 37.6612 8.06687 37.6612H11.2231C11.448 37.6612 11.6668 37.704 11.874 37.788C12.1612 37.9043 12.2974 38.227 12.1785 38.5081C12.0597 38.7892 11.7299 38.9224 11.4426 38.8061C11.3729 38.7779 11.299 38.7637 11.2231 38.7637H8.06688C7.74825 38.7637 7.48863 39.0178 7.48863 39.3296V42.4179C7.48863 42.7297 7.74824 42.9837 8.06688 42.9837H11.2231C11.5417 42.9837 11.8013 42.7297 11.8013 42.4179V42.1707C11.8013 41.8662 12.0535 41.6195 12.3647 41.6195C12.6759 41.6195 12.9281 41.8662 12.9281 42.1707V42.4179C12.9281 43.3375 12.1633 44.0855 11.2239 44.0855H8.06685C7.12705 44.0855 6.36265 43.3371 6.36265 42.4179L6.36267 39.3287ZM25.4904 41.8808C25.8016 41.8808 26.0538 42.1276 26.0538 42.4321C26.0538 42.7366 25.8016 42.9834 25.4904 42.9834L17.8135 42.983C17.5023 42.983 17.2502 42.7362 17.2502 42.4317C17.2502 42.1272 17.5023 41.8804 17.8135 41.8804L25.4904 41.8808ZM33.1669 39.8651H17.8133C17.5021 39.8651 17.2499 39.6184 17.2499 39.3139C17.2499 39.0093 17.5021 38.7626 17.8133 38.7626H33.1669C33.4781 38.7626 33.7303 39.0093 33.7303 39.3139C33.7299 39.6184 33.4777 39.8651 33.1669 39.8651ZM14.2705 17.3437L10.2526 20.2463C10.1552 20.317 10.0375 20.3541 9.91783 20.3541C9.88688 20.3541 9.85634 20.3517 9.82538 20.3469C9.67514 20.3222 9.54142 20.2394 9.45433 20.1171L8.10261 18.2064C7.92555 17.956 7.98911 17.6131 8.24501 17.4399C8.50091 17.2666 8.85133 17.3288 9.02839 17.5792L10.0495 19.023L13.6002 16.4573C13.8504 16.2768 14.2028 16.3281 14.3877 16.5732C14.5731 16.8184 14.5211 17.1628 14.2705 17.3437ZM14.2705 39.2862L10.2526 42.1887C10.1552 42.2594 10.0375 42.2966 9.91783 42.2966C9.88688 42.2966 9.85634 42.2941 9.82538 42.2893C9.67514 42.2646 9.54142 42.1819 9.45433 42.0595L8.10346 40.1488C7.92639 39.8984 7.98996 39.5556 8.24586 39.3823C8.50176 39.209 8.85217 39.2712 9.02924 39.5216L10.0504 40.9655L13.6011 38.3997C13.8512 38.2192 14.2037 38.2713 14.3886 38.5157C14.5739 38.7612 14.5211 39.106 14.2705 39.2862ZM14.2705 28.3155L10.2526 31.218C10.1552 31.2887 10.0375 31.3259 9.91783 31.3259C9.88688 31.3259 9.85634 31.3234 9.82538 31.3186C9.67514 31.294 9.54142 31.2112 9.45433 31.0888L8.10261 29.1781C7.92555 28.9277 7.98911 28.5849 8.24501 28.4116C8.50091 28.2383 8.85133 28.3005 9.02839 28.5509L10.0495 29.9948L13.6002 27.4291C13.8504 27.2485 14.2028 27.2998 14.3877 27.545C14.5739 27.7897 14.5211 28.1345 14.2705 28.3155ZM47.9393 28.187C47.8555 27.4512 47.2707 26.8934 46.5166 26.8304L45.1822 26.7194C44.9969 26.7036 44.9213 26.5736 44.8974 26.5179C44.8735 26.4625 44.8314 26.3183 44.9502 26.1782L45.8046 25.1706C46.2879 24.6011 46.2921 23.8023 45.8149 23.228C45.3704 22.6924 44.8656 22.2025 44.3155 21.7729C43.7244 21.3116 42.9085 21.3221 42.3302 21.7995L41.3071 22.644C41.1647 22.7615 41.0173 22.7211 40.9608 22.6981C40.9042 22.6751 40.7697 22.6028 40.7523 22.4215L40.6285 21.117C40.5584 20.3799 39.9838 19.8125 39.2318 19.7358C38.5343 19.6651 37.8162 19.6676 37.1203 19.7435C36.3683 19.8255 35.7982 20.3977 35.7339 21.136L35.6204 22.4418C35.6043 22.6231 35.4714 22.697 35.4144 22.7204C35.3579 22.7438 35.2105 22.785 35.0669 22.6687L34.0371 21.8323C33.4552 21.3594 32.6388 21.3554 32.051 21.8222C31.5037 22.2564 31.0039 22.7503 30.564 23.2894C30.0926 23.8678 30.1033 24.6662 30.5912 25.232L31.4542 26.2324C31.5743 26.3717 31.5331 26.5163 31.5095 26.5721C31.486 26.6274 31.4121 26.759 31.2268 26.776L29.8941 26.8972C29.1409 26.9654 28.561 27.5276 28.4826 28.2631C28.4475 28.5922 28.4302 28.927 28.4302 29.2582C28.4302 29.6152 28.4504 29.9755 28.4904 30.3288C28.5742 31.0646 29.1591 31.6224 29.9136 31.6854L31.248 31.7964C31.4333 31.8122 31.5088 31.9422 31.5328 31.998C31.5567 32.0533 31.5988 32.1975 31.4799 32.338L30.6256 33.3457C30.1423 33.9151 30.1381 34.7139 30.6152 35.2883C31.0598 35.8238 31.5637 36.3137 32.1147 36.7434C32.7057 37.2054 33.5217 37.1945 34.0999 36.7175L35.1223 35.873C35.2647 35.7555 35.4124 35.7959 35.4694 35.8189C35.526 35.8419 35.6605 35.9142 35.6778 36.0956L35.8017 37.3996C35.8714 38.1367 36.446 38.7049 37.1975 38.7808C37.5335 38.8151 37.8757 38.8321 38.2145 38.8321C38.5802 38.8321 38.948 38.8123 39.3087 38.7731C40.0607 38.6911 40.6307 38.1189 40.695 37.3806L40.8085 36.0749C40.8246 35.8935 40.9575 35.8196 41.0145 35.7962C41.071 35.7728 41.2184 35.7316 41.362 35.8479L42.3914 36.6839C42.9733 37.156 43.7897 37.1609 44.3775 36.694C44.9248 36.259 45.4254 35.7651 45.8654 35.2268C46.3367 34.6484 46.326 33.85 45.8382 33.2842L44.9759 32.2838C44.8558 32.1445 44.8971 31.9999 44.9206 31.9441C44.9442 31.8888 45.018 31.7572 45.2034 31.7402L46.5361 31.619C47.2885 31.5504 47.8692 30.9886 47.9476 30.2523C47.9827 29.9236 48 29.5888 48 29.2572C47.9996 28.8998 47.9794 28.5395 47.9393 28.1869L47.9393 28.187ZM46.827 30.1385C46.8047 30.3485 46.6458 30.502 46.4312 30.5214L45.0985 30.6425C44.5529 30.6918 44.0844 31.0302 43.8776 31.5262C43.6704 32.0221 43.7612 32.5839 44.1149 32.9942L44.9771 33.9946C45.1158 34.1558 45.1187 34.3746 44.9846 34.539C44.5949 35.016 44.1521 35.4534 43.6675 35.8386C43.5004 35.9715 43.2766 35.9703 43.1111 35.8358L42.0818 34.9994C41.6595 34.6569 41.0846 34.5725 40.5798 34.7793C40.075 34.9861 39.7337 35.4465 39.6866 35.9808L39.5731 37.2865C39.5554 37.4965 39.3986 37.6532 39.1848 37.6766C38.569 37.7441 37.9325 37.7465 37.3147 37.6831C37.1009 37.6613 36.9436 37.5058 36.9234 37.2958L36.7996 35.9917C36.7492 35.4574 36.4025 34.9994 35.8965 34.7971C35.7166 34.7252 35.5283 34.6896 35.3414 34.6896C35.0017 34.6896 34.667 34.8059 34.3966 35.0285L33.3743 35.8729C33.2096 36.009 32.9859 36.0115 32.8179 35.8802C32.3296 35.499 31.883 35.0656 31.4897 34.5915C31.3539 34.4279 31.3552 34.209 31.4926 34.0471L32.347 33.0394C32.697 32.6263 32.7833 32.0637 32.5719 31.5697C32.3606 31.0762 31.8901 30.7418 31.344 30.6958L30.0097 30.5847C29.795 30.5673 29.6349 30.4139 29.611 30.2047C29.5751 29.8917 29.5573 29.5718 29.5573 29.256C29.5573 28.9628 29.5734 28.6663 29.6039 28.3743C29.6262 28.1651 29.7851 28.0113 29.9998 27.9915L31.3325 27.8703C31.8785 27.821 32.3466 27.4818 32.5534 26.9866C32.7606 26.4915 32.6698 25.929 32.316 25.5194L31.453 24.5191C31.3143 24.3579 31.3114 24.139 31.4456 23.9747C31.8352 23.4969 32.2781 23.0599 32.7626 22.675C32.9298 22.5422 33.1535 22.5434 33.319 22.6779L34.3488 23.5143C34.7702 23.8568 35.346 23.9412 35.8503 23.7344C36.3551 23.5276 36.6973 23.0672 36.7435 22.5329L36.857 21.2272C36.8747 21.0172 37.0316 20.8605 37.2454 20.837C37.8612 20.77 38.4977 20.7676 39.1155 20.8306C39.3293 20.8524 39.4865 21.0079 39.5067 21.2179L39.6306 22.5219C39.6809 23.0563 40.0276 23.5142 40.5336 23.7166C41.0405 23.9198 41.6145 23.8305 42.0331 23.4852L43.0562 22.6407C43.2209 22.5046 43.4438 22.5022 43.6122 22.6334C44.0996 23.0147 44.5466 23.448 44.9404 23.9222C45.0761 24.0858 45.0749 24.3047 44.9375 24.4666L44.0831 25.4743C43.7331 25.8874 43.6468 26.45 43.8582 26.9435C44.0695 27.437 44.54 27.7723 45.086 27.8175L46.4204 27.9286C46.6351 27.9459 46.7952 28.0994 46.8191 28.3086C46.855 28.6212 46.8728 28.9402 46.8728 29.2573C46.8736 29.5513 46.8576 29.8481 46.827 30.1385ZM38.2157 24.6556C35.6229 24.6556 33.5129 26.7202 33.5129 29.2573C33.5129 31.7944 35.6229 33.8586 38.2157 33.8586C40.8085 33.8586 42.918 31.794 42.918 29.2573C42.918 26.7202 40.8081 24.6556 38.2157 24.6556ZM38.2157 32.7568C36.244 32.7568 34.6397 31.1869 34.6397 29.2576C34.6397 27.3284 36.244 25.7585 38.2157 25.7585C40.1873 25.7585 41.7917 27.3284 41.7917 29.2576C41.7921 31.1869 40.1873 32.7568 38.2157 32.7568ZM40.7957 27.6737C40.9806 27.9184 40.9278 28.2633 40.6772 28.4443L37.2 30.9567C37.1025 31.0274 36.9849 31.0646 36.8652 31.0646C36.8343 31.0646 36.8037 31.0622 36.7728 31.0573C36.6225 31.0327 36.4888 30.9499 36.4017 30.8275L35.2321 29.1737C35.055 28.9233 35.1185 28.5804 35.3745 28.4071C35.6304 28.2339 35.9808 28.2969 36.1578 28.5465L36.9973 29.7334L40.0082 27.5586C40.2584 27.3769 40.6108 27.429 40.7957 27.6737Z"
                                        fill="black" />
                                </svg>