<svg width="38" height="38" viewBox="0 0 30 30" fill="none"
                                xmlns="http://www.w3.org/2000/svg">
                                <path
                                    d="M27.6027 0.572266H2.41984C1.18881 0.572266 0.1875 1.57381 0.1875 2.80461V27.2269C0.1875 28.4579 1.18904 29.4592 2.41984 29.4592H27.6027C28.8337 29.4592 29.835 28.4577 29.835 27.2269V2.80461C29.835 1.57358 28.8337 0.572266 27.6027 0.572266ZM2.41984 1.57227H27.6027C28.2824 1.57227 28.835 2.12517 28.835 2.80461V5.30461H1.18761V2.80461C1.18761 2.12512 1.74029 1.57227 2.41996 1.57227H2.41984ZM27.6027 28.4591H2.41984C1.74013 28.4591 1.1875 27.9062 1.1875 27.2268V6.30449H28.8349V27.2268C28.8347 27.9063 28.282 28.4591 27.6024 28.4591H27.6027Z"
                                    fill="#CC1212" />
                                <path
                                    d="M26.1991 10.1562H23.0938C22.8174 10.1562 22.5938 10.3801 22.5938 10.6562C22.5938 10.9324 22.8174 11.1562 23.0938 11.1562H26.1991C26.4755 11.1562 26.6991 10.9324 26.6991 10.6562C26.6991 10.3801 26.4755 10.1562 26.1991 10.1562Z"
                                    fill="#CC1212" />
                                <path
                                    d="M20.8125 11.1562H21.3618C21.6382 11.1562 21.8618 10.9324 21.8618 10.6562C21.8618 10.3801 21.6382 10.1562 21.3618 10.1562H20.8125C20.5362 10.1562 20.3125 10.3801 20.3125 10.6562C20.3125 10.9324 20.5362 11.1562 20.8125 11.1562Z"
                                    fill="#CC1212" />
                                <path
                                    d="M26.1991 13.791H23.0938C22.8174 13.791 22.5938 14.0149 22.5938 14.291C22.5938 14.5671 22.8174 14.791 23.0938 14.791H26.1991C26.4755 14.791 26.6991 14.5671 26.6991 14.291C26.6991 14.0149 26.4755 13.791 26.1991 13.791Z"
                                    fill="#CC1212" />
                                <path
                                    d="M20.8125 14.791H21.3618C21.6382 14.791 21.8618 14.5671 21.8618 14.291C21.8618 14.0149 21.6382 13.791 21.3618 13.791H20.8125C20.5362 13.791 20.3125 14.0149 20.3125 14.291C20.3125 14.5674 20.5362 14.791 20.8125 14.791Z"
                                    fill="#CC1212" />
                                <path
                                    d="M26.1998 17.4238H20.8125C20.5362 17.4238 20.3125 17.6477 20.3125 17.9238C20.3125 18.1999 20.5362 18.4238 20.8125 18.4238H26.1998C26.4761 18.4238 26.6998 18.1999 26.6998 17.9238C26.6998 17.6477 26.4761 17.4238 26.1998 17.4238Z"
                                    fill="#CC1212" />
                                <path
                                    d="M26.1998 21.0586H20.8125C20.5362 21.0586 20.3125 21.2825 20.3125 21.5586C20.3125 21.8347 20.5362 22.0586 20.8125 22.0586H26.1998C26.4761 22.0586 26.6998 21.8347 26.6998 21.5586C26.6998 21.2825 26.4761 21.0586 26.1998 21.0586Z"
                                    fill="#CC1212" />
                                <path
                                    d="M4.02344 3.9375H5.2911C5.56743 3.9375 5.7911 3.71361 5.7911 3.4375C5.7911 3.16139 5.56743 2.9375 5.2911 2.9375H4.02344C3.7471 2.9375 3.52344 3.16139 3.52344 3.4375C3.52344 3.71361 3.7471 3.9375 4.02344 3.9375Z"
                                    fill="#CC1212" />
                                <path
                                    d="M7.50781 3.9375H8.77547C9.05181 3.9375 9.27547 3.71361 9.27547 3.4375C9.27547 3.16139 9.05181 2.9375 8.77547 2.9375H7.50781C7.23148 2.9375 7.00781 3.16139 7.00781 3.4375C7.00781 3.71361 7.23148 3.9375 7.50781 3.9375Z"
                                    fill="#CC1212" />
                                <path
                                    d="M11 3.9375H12.2677C12.544 3.9375 12.7677 3.71361 12.7677 3.4375C12.7677 3.16139 12.544 2.9375 12.2677 2.9375H11C10.7237 2.9375 10.5 3.16139 10.5 3.4375C10.5 3.71361 10.7234 3.9375 11 3.9375Z"
                                    fill="#CC1212" />
                                <path
                                    d="M14.6169 9.90424C14.5231 9.81049 14.3961 9.75781 14.2633 9.75781H7.43415C7.30134 9.75781 7.17433 9.81049 7.08058 9.90424L2.54487 14.4397C2.45112 14.5335 2.39844 14.6607 2.39844 14.7935C2.39844 14.9261 2.45112 15.0533 2.54487 15.1471L5.06452 17.6638C5.25984 17.8587 5.57613 17.8589 5.77167 17.6636L5.8893 17.546V23.7774C5.8893 24.0535 6.11296 24.2774 6.3893 24.2774H15.3104C15.5868 24.2774 15.8104 24.0535 15.8104 23.7774V17.546L15.9281 17.6636C16.0218 17.7574 16.1488 17.81 16.2816 17.81C16.4145 17.81 16.5415 17.7574 16.6352 17.6636L19.1517 15.1469C19.347 14.9516 19.347 14.6353 19.1517 14.4397L14.6169 9.90424ZM12.3374 10.7578V11.2346C12.3374 11.9795 11.7314 12.5858 10.9862 12.5858H10.7108C9.96571 12.5858 9.35965 11.9795 9.35965 11.2346V10.7578H12.3374ZM16.2818 16.603L15.8106 16.1318V14.4655C15.8106 14.1894 15.5869 13.9655 15.3106 13.9655C15.0342 13.9655 14.8106 14.1894 14.8106 14.4655V16.3059C14.8095 16.3246 14.8095 16.3423 14.8106 16.361V23.2776H6.88943V16.3559C6.89077 16.3179 6.88251 16.2816 6.87515 16.2441C6.87448 16.2407 6.87425 16.2371 6.87358 16.2338C6.87783 16.2072 6.88943 16.1833 6.88943 16.1554V14.4657C6.88943 14.1896 6.66577 13.9657 6.38943 13.9657C6.11309 13.9657 5.88943 14.1896 5.88943 14.4657V16.132L5.41823 16.6034L3.60617 14.7934L7.64143 10.7581H8.36017V11.2349C8.36017 12.5314 9.41485 13.5861 10.7113 13.5861H10.9868C12.2832 13.5861 13.3379 12.5314 13.3379 11.2349V10.7581H14.0566L18.0919 14.7936L16.2818 16.603Z"
                                    fill="#CC1212" />
</svg>