<svg width="38" height="38" viewBox="0 0 33 22" fill="none"
                                xmlns="http://www.w3.org/2000/svg">
                                <path
                                    d="M10.2523 12.2578H11.2351C11.5112 12.2578 11.7351 12.0339 11.7351 11.7578C11.7351 11.4817 11.5112 11.2578 11.2351 11.2578H10.2523C10.2463 11.2578 10.2345 11.2475 10.2345 11.2283V9.11065C10.2345 9.09168 10.2463 9.08119 10.2523 9.08119H11.2351C11.4621 9.08119 11.6606 8.92829 11.7184 8.70887C11.8409 8.2457 12.0217 7.79995 12.257 7.38253C12.3659 7.18878 12.334 6.94637 12.1787 6.78744L11.4829 6.07607V6.07629C11.4708 6.06201 11.4708 6.04102 11.4829 6.02696L12.9651 4.52942L13.6608 5.24056C13.8215 5.40507 14.0738 5.43878 14.272 5.32204C14.6767 5.08342 15.1108 4.89905 15.5637 4.77405C15.7806 4.71422 15.9309 4.5169 15.9309 4.2919V3.28722C15.9309 3.26691 15.9438 3.25775 15.9487 3.25775H18.0202C18.0262 3.25775 18.038 3.26802 18.038 3.28722V4.2919C18.038 4.5169 18.1882 4.71422 18.4052 4.77405C18.8581 4.89905 19.2922 5.08342 19.6969 5.32204C19.8951 5.43878 20.1474 5.40507 20.3081 5.24056L21.0212 4.52942L22.4859 6.02696C22.498 6.04125 22.498 6.06223 22.4859 6.07629L21.7902 6.78743C21.6348 6.94636 21.6029 7.18877 21.7118 7.38252C21.9471 7.79993 22.1279 8.24566 22.2504 8.70886C22.3083 8.92828 22.5067 9.08118 22.7337 9.08118H23.7165C23.7225 9.08118 23.7344 9.09145 23.7344 9.11065V11.2283C23.7344 11.2475 23.7227 11.2578 23.7165 11.2578H22.7337C22.4576 11.2578 22.2337 11.4817 22.2337 11.7578C22.2337 12.0339 22.4576 12.2578 22.7337 12.2578H23.7165C23.9879 12.256 24.2475 12.1466 24.4384 11.9535C24.6292 11.7604 24.7357 11.4997 24.7344 11.2283V9.11067C24.7357 8.83924 24.6292 8.57853 24.4384 8.38547C24.2475 8.19261 23.9879 8.08301 23.7165 8.08123H23.1071C23.0111 7.7886 22.8951 7.50312 22.7596 7.22677L23.2007 6.77588V6.77566C23.3884 6.58169 23.4935 6.32209 23.4935 6.05177C23.4935 5.78146 23.3886 5.52186 23.2007 5.32766L21.7359 3.83012C21.546 3.63458 21.285 3.52431 21.0123 3.52498C20.7397 3.52431 20.4786 3.63458 20.2888 3.83034L19.8582 4.27074V4.27052C19.5933 4.1357 19.3192 4.01963 19.038 3.92342V3.28725C19.0393 3.01582 18.9328 2.75511 18.742 2.56205C18.5511 2.36897 18.2915 2.2596 18.0201 2.25781H15.9487C15.6772 2.2596 15.4176 2.36897 15.2268 2.56205C15.0359 2.75513 14.9295 3.01585 14.9308 3.28725V3.92342C14.6495 4.01963 14.3754 4.1357 14.1105 4.27052L13.6799 3.83034C13.4902 3.63458 13.229 3.52432 12.9565 3.52498C12.6837 3.52431 12.4226 3.63458 12.2328 3.83034L10.7681 5.32789V5.32766C10.5801 5.52186 10.4752 5.78146 10.4752 6.05178C10.4752 6.32187 10.5801 6.58146 10.7681 6.77566L11.2092 7.22678C11.0737 7.50312 10.9576 7.78861 10.8616 8.08124H10.2523C9.98083 8.08302 9.72123 8.19262 9.53037 8.38548C9.33952 8.57856 9.23305 8.83927 9.23439 9.11068V11.2283C9.23305 11.4998 9.33952 11.7605 9.53037 11.9535C9.72122 12.1466 9.98082 12.256 10.2523 12.2578L10.2523 12.2578Z"
                                    fill="url(#paint0_linear_4003_29909)" />
                                <path
                                    d="M31.0163 0.257814H2.95226C2.43172 0.257144 1.93215 0.462946 1.5634 0.830157C1.19443 1.19712 0.986146 1.69559 0.984375 2.2161V17.7995C0.986161 18.3201 1.19442 18.8185 1.5634 19.1857C1.93215 19.5527 2.43169 19.7584 2.95226 19.7578H13.9843V20.7578H11.7343C11.4581 20.7578 11.2343 20.9817 11.2343 21.2578C11.2343 21.5339 11.4581 21.7578 11.7343 21.7578H22.2343C22.5104 21.7578 22.7343 21.5339 22.7343 21.2578C22.7343 20.9817 22.5104 20.7578 22.2343 20.7578H19.9843V19.7578H31.0163C31.5368 19.7585 32.0364 19.5527 32.4051 19.1857C32.7741 18.8185 32.9824 18.3201 32.9841 17.7995V2.2161C32.9824 1.69556 32.7741 1.19713 32.4051 0.830157C32.0364 0.462968 31.5368 0.257186 31.0163 0.257814ZM2.95226 1.25781H31.0163C31.2718 1.25647 31.5172 1.35692 31.6986 1.53661C31.8801 1.71629 31.9828 1.96072 31.9841 2.21609V16.7578H29.7341V15.2578C29.7341 14.9817 29.5102 14.7578 29.2341 14.7578C28.958 14.7578 28.7341 14.9817 28.7341 15.2578V16.7578H27.2341V13.6352L29.5508 11.7384C29.6669 11.6435 29.7341 11.5016 29.7341 11.3516V8.99395C30.2758 8.83257 30.7062 8.41938 30.8897 7.88481C31.0732 7.34999 30.987 6.75978 30.6587 6.29978C30.3301 5.83973 29.7998 5.56652 29.2343 5.56652C28.6691 5.56652 28.1386 5.83951 27.8102 6.29932C27.4816 6.75937 27.3955 7.34978 27.5787 7.88435C27.762 8.41917 28.1923 8.83235 28.7341 8.99395V11.1147L26.4174 13.0116C26.3013 13.1064 26.2341 13.2484 26.2341 13.3984V16.7578H24.7341V15.2578C24.7341 14.9816 24.5102 14.7578 24.2341 14.7578C23.958 14.7578 23.7341 14.9816 23.7341 15.2578V16.7578H18.7821V13.9644C19.7464 13.5156 20.5069 12.7209 20.9129 11.7376C21.3189 10.7546 21.3408 9.65484 20.9743 8.65638C20.6078 7.65792 19.8794 6.83364 18.9339 6.34678C18.6893 6.22044 18.3966 6.23071 18.1613 6.37379C17.9263 6.51687 17.7825 6.77223 17.7821 7.04745V10.0504H16.1861V7.04722C16.1859 6.77244 16.0428 6.51731 15.8082 6.37402C15.5738 6.23094 15.2814 6.22 15.037 6.34545C14.0907 6.83116 13.3615 7.65505 12.9946 8.65328C12.6274 9.65173 12.6488 10.7515 13.0548 11.7345C13.4607 12.7178 14.2214 13.5124 15.1861 13.9609V16.7577H10.2341V15.2577C10.2341 14.9816 10.0102 14.7577 9.7341 14.7577C9.45799 14.7577 9.2341 14.9816 9.2341 15.2577V16.7577H7.7341V13.3984C7.7341 13.2484 7.66691 13.1064 7.55084 13.0115L5.2341 11.1147V8.99393C5.77562 8.83233 6.20599 8.41913 6.38924 7.88456C6.5725 7.34996 6.48634 6.75976 6.15777 6.29999C5.82942 5.83994 5.29885 5.56719 4.73388 5.56719C4.16871 5.56719 3.63834 5.84018 3.31 6.30022C2.98143 6.76004 2.89549 7.35022 3.07875 7.88479C3.26223 8.41939 3.69258 8.83256 4.23412 8.99393V11.3515C4.23412 11.5015 4.30131 11.6435 4.41738 11.7384L6.73412 13.6352V16.7578H5.23412V15.2578C5.23412 14.9817 5.01023 14.7578 4.73412 14.7578C4.458 14.7578 4.23412 14.9817 4.23412 15.2578V16.7578H1.98412V2.21607C1.98546 1.96071 2.08814 1.7163 2.26961 1.53659C2.45108 1.3569 2.6964 1.25646 2.95195 1.25779L2.95226 1.25781ZM29.2349 8.06753C28.9315 8.06753 28.6581 7.88494 28.5418 7.6048C28.4257 7.32445 28.4898 7.00189 28.7043 6.78715C28.9188 6.57264 29.2414 6.50857 29.5217 6.62464C29.8019 6.74071 29.9847 7.01415 29.9847 7.3175C29.9842 7.73134 29.6487 8.06684 29.2349 8.06753ZM16.1865 16.7578V13.629C16.1865 13.4203 16.0566 13.2335 15.8611 13.1605C15.1066 12.8846 14.4816 12.3381 14.1073 11.6272C13.7332 10.9165 13.6363 10.092 13.8357 9.31386C14.0352 8.53575 14.5165 7.8594 15.1866 7.41609V10.2625C15.187 10.6975 15.5397 11.05 15.975 11.0504H17.9942C18.4295 11.05 18.7821 10.6975 18.7826 10.2625V7.41563C19.4525 7.85916 19.9337 8.53552 20.1331 9.31386C20.3326 10.092 20.236 10.9165 19.8623 11.6275C19.4884 12.3386 18.8638 12.8855 18.1098 13.1625C17.9134 13.235 17.7828 13.4223 17.7826 13.6317V16.7578L16.1865 16.7578ZM4.73455 8.06753C4.4312 8.06753 4.15775 7.88472 4.04169 7.60436C3.92584 7.324 3.9899 7.00144 4.20464 6.78716C4.41915 6.57265 4.74169 6.50859 5.02184 6.62465C5.30197 6.74072 5.48479 7.01416 5.48479 7.31751C5.48434 7.73157 5.14862 8.0673 4.73455 8.06753ZM18.9848 20.7578H14.9848V19.7578H18.9848V20.7578ZM31.0168 18.7578H2.95283C2.69725 18.7592 2.45194 18.6587 2.27049 18.479C2.08902 18.2993 1.98634 18.0551 1.985 17.7995V17.7578H31.985V17.7995C31.9837 18.0551 31.881 18.2993 31.6995 18.479C31.518 18.6587 31.2727 18.7592 31.0172 18.7578H31.0168Z"
                                    fill="url(#paint1_linear_4003_29909)" />
                                <defs>
                                    <linearGradient id="paint0_linear_4003_29909" x1="21.3106" y1="2.25781" x2="21.281"
                                        y2="14.4008" gradientUnits="userSpaceOnUse">
                                        <stop stop-color="#005CAA" />
                                        <stop offset="1" stop-color="#64B0F1" />
                                    </linearGradient>
                                    <linearGradient id="paint1_linear_4003_29909" x1="25.9157" y1="0.257812"
                                        x2="25.8495" y2="26.3653" gradientUnits="userSpaceOnUse">
                                        <stop stop-color="#005CAA" />
                                        <stop offset="1" stop-color="#64B0F1" />
                                    </linearGradient>
                                </defs>
</svg>