<svg width="38" height="38" viewBox="0 0 31 31" fill="none"
                                xmlns="http://www.w3.org/2000/svg">
                                <path
                                    d="M27.5154 5.01349H24.5154V3.51349C24.5154 3.3809 24.4627 3.25367 24.369 3.15992C24.2752 3.06617 24.148 3.01349 24.0154 3.01349H23.1065L15.1911 0.0449777C15.0781 0.00323659 14.954 0.00323659 14.8411 0.0449777L6.84105 3.04498C6.64552 3.11797 6.51583 3.3048 6.51583 3.5135C6.51583 3.72221 6.64552 3.90904 6.84105 3.98203L7.51563 4.23493V5.0135H2.51563C1.85288 5.0144 1.2174 5.27801 0.748654 5.74653C0.280128 6.21528 0.0165393 6.85076 0.015625 7.5135V21.5135C0.0165179 22.1762 0.280134 22.8117 0.748654 23.2805C1.2174 23.749 1.85288 24.0126 2.51563 24.0135H12.3751L11.6251 27.0135H11.0155C10.4795 27.0135 9.98443 27.2994 9.71637 27.7635C9.44851 28.2276 9.44851 28.7994 9.71637 29.2635C9.98445 29.7276 10.4795 30.0135 11.0155 30.0135H19.0155C19.5514 30.0135 20.0465 29.7276 20.3145 29.2635C20.5824 28.7994 20.5824 28.2276 20.3145 27.7635C20.0465 27.2994 19.5514 27.0135 19.0155 27.0135H18.4059L17.6559 24.0135H27.5153C28.178 24.0126 28.8135 23.749 29.2823 23.2805C29.7508 22.8117 30.0144 22.1762 30.0153 21.5135V7.5135C30.0144 6.85076 29.7508 6.21527 29.2823 5.74653C28.8135 5.27801 28.178 5.01442 27.5153 5.0135L27.5154 5.01349ZM22.5154 4.23492L23.1065 4.01349H23.5154V5.01349H22.5154L22.5154 4.23492ZM15.0154 1.04743L20.2578 3.01349H15.0154V4.01349H20.2578L15.0154 5.97955L8.5154 3.54206V3.51349H8.43951L15.0154 1.04743ZM14.84 6.98229C14.9529 7.02403 15.077 7.02403 15.19 6.98229L21.5157 4.61018V7.70726C19.9802 8.52824 17.5806 9.01372 15.0157 9.01372C12.4507 9.01372 10.0512 8.52823 8.51567 7.70726V4.61018L14.84 6.98229ZM2.51538 6.01378H7.51538V7.99881C7.51538 8.17492 7.60801 8.33809 7.75935 8.42827C9.42495 9.42067 12.1379 10.0138 15.0154 10.0138C17.8928 10.0138 20.6058 9.42067 22.2714 8.42827C22.4227 8.33809 22.5153 8.17492 22.5153 7.99881V6.01378H23.5153V7.60572C23.1379 7.73786 22.8289 8.01577 22.6582 8.37738C22.4874 8.73921 22.4691 9.15418 22.6071 9.52961C22.745 9.90505 23.028 10.2093 23.3923 10.3742L22.5347 13.3742C22.491 13.5253 22.5207 13.6883 22.6153 13.8142C22.7097 13.9399 22.8579 14.0137 23.0153 14.0137H25.0153C25.1722 14.0137 25.32 13.9401 25.4144 13.8146C25.5088 13.6894 25.539 13.5271 25.4959 13.3762L24.6383 10.3762C25.0035 10.2117 25.2871 9.90727 25.4258 9.53138C25.5642 9.15549 25.5456 8.73967 25.3744 8.37761C25.2032 8.01534 24.8936 7.73721 24.5153 7.60573V6.01378H27.5153C27.9131 6.01378 28.2948 6.17182 28.576 6.45307C28.8572 6.73432 29.0153 7.11604 29.0153 7.51375V19.0138H1.01526V7.51375C1.01526 7.11599 1.1733 6.73427 1.45455 6.45307C1.7358 6.17187 2.11752 6.01378 2.51523 6.01378L2.51538 6.01378ZM24.0154 8.51378C24.2176 8.51378 24.4 8.63565 24.4772 8.82248C24.5547 9.00931 24.512 9.22426 24.369 9.36735C24.2259 9.51044 24.0109 9.55306 23.8241 9.47561C23.6373 9.39837 23.5154 9.21601 23.5154 9.01378C23.5154 8.73766 23.7393 8.51378 24.0154 8.51378ZM24.0154 11.8339L24.3524 13.0138H23.6783L24.0154 11.8339ZM19.5154 28.5139C19.5154 28.6465 19.4627 28.7737 19.369 28.8675C19.2752 28.9612 19.148 29.0139 19.0154 29.0139H11.0154C10.7393 29.0139 10.5154 28.79 10.5154 28.5139C10.5154 28.2378 10.7393 28.0139 11.0154 28.0139H19.0154C19.148 28.0139 19.2752 28.0666 19.369 28.1603C19.4627 28.2541 19.5154 28.3813 19.5154 28.5139ZM17.375 27.0139H12.6558L13.4058 24.0139H16.6248L17.375 27.0139ZM27.5156 23.0139H2.51555C2.11779 23.0139 1.73607 22.8559 1.45487 22.5746C1.17367 22.2934 1.01558 21.9116 1.01558 21.5139V20.0139H29.0156V21.5139C29.0156 21.9117 28.8575 22.2934 28.5763 22.5746C28.295 22.8558 27.9133 23.0139 27.5156 23.0139H27.5156Z"
                                    fill="#CC1212" />
                                <path d="M26.0156 21.0137H27.0156V22.0137H26.0156V21.0137Z" fill="#CC1212" />
                                <path
                                    d="M3.51562 18.0137H11.5156C11.6482 18.0137 11.7754 17.961 11.8692 17.8672C11.9629 17.7735 12.0156 17.6463 12.0156 17.5137V11.5137C12.0156 11.3811 11.9629 11.2538 11.8692 11.1601C11.7754 11.0664 11.6482 11.0137 11.5156 11.0137H3.51562C3.23951 11.0137 3.01562 11.2376 3.01562 11.5137V17.5137C3.01562 17.6463 3.0683 17.7735 3.16205 17.8672C3.2558 17.961 3.38304 18.0137 3.51562 18.0137ZM4.01562 12.0137H11.0156V17.0137H4.01562V12.0137Z"
                                    fill="#CC1212" />
                                <path d="M14.0156 11.0137H15.0156V12.0137H14.0156V11.0137Z" fill="#CC1212" />
                                <path d="M16.0156 11.0137H20.0156V12.0137H16.0156V11.0137Z" fill="#CC1212" />
                                <path d="M14.0156 13.0137H20.0156V14.0137H14.0156V13.0137Z" fill="#CC1212" />
                                <path d="M14.0156 15.0137H20.0156V16.0137H14.0156V15.0137Z" fill="#CC1212" />
                                <path d="M14.0156 17.0137H17.0156V18.0137H14.0156V17.0137Z" fill="#CC1212" />
</svg>