<svg width="38" height="38" viewBox="0 0 32 30" fill="none"
                                xmlns="http://www.w3.org/2000/svg">
                                <path
                                    d="M26.8059 12.4345C26.6168 12.483 26.5052 12.6769 26.5537 12.866C26.9802 14.4611 27.0869 16.1049 26.8784 17.7582C26.5633 20.2504 25.5403 22.4805 24.047 24.2793C23.8869 23.6394 23.9063 22.9606 24.1392 22.3786C24.3476 21.8695 24.6869 21.4186 25.0508 20.9436L25.2737 20.6479C25.39 20.4927 25.3561 20.2697 25.201 20.1532C25.0458 20.0369 24.8228 20.0708 24.7063 20.226L24.4883 20.5168C24.1148 21.0066 23.7271 21.5157 23.4847 22.1168C23.1405 22.9751 23.155 23.9981 23.4992 24.9048C21.0896 27.4503 17.6712 28.9871 13.9912 28.9193C13.9718 28.832 13.9524 28.7398 13.9379 28.6525C13.8312 28.0949 13.7245 27.518 13.4191 27.009C12.9488 26.2186 12.0615 25.6757 10.7767 25.3896C10.4714 25.3217 10.1609 25.2733 9.85061 25.2199C9.20084 25.1132 8.58518 25.0114 8.01313 24.7786C7.32473 24.4925 6.5149 23.8525 6.48587 22.9751C6.45685 22.1461 7.17918 21.4381 7.91621 21.1037C8.54655 20.8224 9.24478 20.7157 9.9769 20.6043C10.2097 20.5704 10.4423 20.5316 10.6751 20.4927C11.514 20.3425 12.7164 20.0369 13.4631 19.14C13.8171 18.7135 14.0303 18.2139 14.234 17.7291C14.3552 17.4383 14.4715 17.1619 14.622 16.9001C15.1651 15.9351 16.1784 15.2371 17.2742 15.0771C17.7445 15.0043 18.2343 15.0675 18.588 15.2517C18.7626 15.3389 18.976 15.2711 19.0633 15.0965C19.1505 14.922 19.0827 14.7086 18.9081 14.6213C18.4184 14.3691 17.7833 14.282 17.1675 14.3789C15.8633 14.568 14.6512 15.4019 14.0015 16.5559C13.8365 16.8517 13.7057 17.1571 13.5796 17.4577C13.3856 17.9135 13.2061 18.34 12.9202 18.6892C12.3191 19.4115 11.2813 19.6687 10.5492 19.7995C10.3213 19.8383 10.0934 19.8722 9.86552 19.9062C9.11398 20.0178 8.33826 20.1341 7.61575 20.4589C6.73341 20.8564 5.72489 21.7631 5.76843 22.9995C5.80727 24.2069 6.84969 25.0649 7.73203 25.4334C8.37689 25.6953 9.06061 25.8116 9.71998 25.9182C10.0206 25.9667 10.3164 26.0151 10.6121 26.0783C11.6934 26.3207 12.4302 26.7522 12.7988 27.368C13.0412 27.7705 13.1334 28.2602 13.2303 28.7789C13.2352 28.8129 13.2448 28.8468 13.2497 28.8807C13.0363 28.8662 12.8182 28.8419 12.5999 28.8128C5.63247 27.9399 0.67247 21.5351 1.55476 14.5534C1.63244 13.9376 1.75833 13.3315 1.91837 12.74C2.859 12.6965 4.01769 12.1729 4.459 11.8383C4.52686 11.7849 4.59472 11.7316 4.66748 11.6782C5.04092 11.3825 5.39474 11.1061 5.71971 11.1885C5.97663 11.2564 6.13668 11.5327 6.19002 11.6492C6.27239 11.8287 6.33065 12.0227 6.384 12.2312C6.41301 12.3379 6.44225 12.4446 6.47618 12.5463C6.88824 13.8941 7.91613 15.0093 9.22036 15.5283C9.54045 15.6591 9.90876 15.7464 10.2726 15.7464C10.7284 15.7464 11.1694 15.6057 11.4896 15.2421C11.8288 14.8591 11.9454 14.2821 11.8096 13.6615C11.7467 13.3658 11.6447 13.0894 11.5429 12.818C11.4846 12.6629 11.4266 12.5126 11.3779 12.3573C11.0726 11.3488 11.1985 10.287 11.3344 9.15729C11.4507 8.20214 11.5672 7.2082 11.4023 6.23363C11.2666 5.42403 10.9125 4.64814 10.4034 3.97426C10.9126 3.81421 11.4362 3.6881 11.9599 3.59122C11.921 4.10506 12.0034 4.61911 12.2168 5.08945C12.338 5.35128 12.4931 5.60329 12.6775 5.83117C12.7454 5.91844 12.8472 5.96197 12.9539 5.96197C13.0315 5.96197 13.1139 5.93764 13.1768 5.88429C13.3271 5.76309 13.3514 5.5401 13.2302 5.38496C13.08 5.20081 12.9588 5.00683 12.8666 4.79833C12.6824 4.39097 12.6242 3.92559 12.6871 3.47959C13.7246 3.35347 14.7817 3.35347 15.8288 3.4845C16.4833 3.56687 17.1331 3.70258 17.7585 3.88204C17.9476 3.93539 18.1416 3.82869 18.1949 3.63963C18.2483 3.45057 18.1416 3.2566 17.9525 3.20325C17.2882 3.01419 16.6047 2.87356 15.9161 2.78628C13.5449 2.4903 11.1353 2.8249 8.94868 3.75594C8.76922 3.83362 8.68685 4.0421 8.75962 4.22134C8.81787 4.35705 8.94868 4.43473 9.08439 4.43473C9.13283 4.43473 9.17658 4.42514 9.22502 4.40572C9.38015 4.33786 9.54511 4.2796 9.70493 4.22156C10.2237 4.83739 10.5826 5.58408 10.7134 6.35013C10.8589 7.22779 10.7522 8.12471 10.6406 9.07493C10.5049 10.224 10.3594 11.412 10.7085 12.5658C10.7618 12.7354 10.8248 12.9004 10.8879 13.0651C10.9848 13.3174 11.0721 13.5598 11.1254 13.8068C11.169 13.9959 11.237 14.4662 10.9654 14.7718C10.6357 15.1499 9.96653 15.0627 9.49619 14.8687C8.40042 14.4323 7.50825 13.4627 7.16407 12.333C7.13506 12.2361 7.10582 12.139 7.08171 12.0421C7.01876 11.8142 6.95559 11.5814 6.84421 11.3439C6.63082 10.8979 6.29645 10.6022 5.9085 10.5004C5.2393 10.3307 4.68661 10.7671 4.24061 11.1209C4.17275 11.1742 4.10981 11.2226 4.04664 11.2711C3.67811 11.5474 2.84418 11.9061 2.15578 12.0032C2.45645 11.1305 2.84418 10.2965 3.3339 9.50143C3.43568 9.33648 3.38233 9.1184 3.2176 9.01661C3.04795 8.91483 2.83457 8.96817 2.73278 9.13291C1.73878 10.7619 1.10843 12.5559 0.866034 14.4615C-0.0696806 21.8312 5.16672 28.59 12.5363 29.5255C13.1084 29.5982 13.6756 29.6322 14.2381 29.6322C20.9147 29.6322 26.7278 24.648 27.5907 17.8505C27.8137 16.1049 27.6974 14.3692 27.2465 12.6869C27.1884 12.4976 26.9945 12.386 26.8054 12.4346L26.8059 12.4345Z"
                                    fill="url(#paint0_linear_4003_30162)" />
                                <path
                                    d="M19.306 21.9993C19.7763 21.9993 20.2466 21.747 20.5667 21.4272C20.877 21.1169 21.1194 20.7289 21.3133 20.2441C21.3861 20.0647 21.2988 19.8562 21.1144 19.7834C20.935 19.7107 20.7265 19.7979 20.6537 19.9823C20.4937 20.3749 20.3046 20.6854 20.0622 20.9278C19.7908 21.1993 19.3494 21.3982 19.0731 21.2332C18.9131 21.1314 18.8064 20.8986 18.8017 20.6417C18.7968 20.4477 18.6271 20.2975 18.443 20.2926C18.249 20.2975 18.089 20.4575 18.0939 20.6513C18.1035 21.1459 18.3314 21.6015 18.7048 21.8343C18.8889 21.9506 19.0974 21.9992 19.3059 21.9992L19.306 21.9993Z"
                                    fill="url(#paint1_linear_4003_30162)" />
                                <path
                                    d="M8.15386 17.3112C7.79985 17.4809 7.39741 17.6313 7.11146 17.4954C6.95142 17.4226 6.82062 17.253 6.67999 17.0735L6.55878 16.9233C6.12731 16.3947 5.71524 16.3221 5.44358 16.3512C5.1043 16.39 4.79381 16.6226 4.61456 16.9717C4.47393 17.248 4.4304 17.5438 4.39648 17.7862C4.35295 18.1014 4.28487 18.5766 4.50808 18.9936C4.765 19.4735 5.31768 19.7353 6.14694 19.7692C6.25854 19.7741 6.37484 19.7741 6.49113 19.7741C7.4657 19.7741 8.44982 19.6092 9.36633 19.2893C10.0646 19.0469 10.4766 18.7221 10.5929 18.3243C10.6512 18.1304 10.6657 17.8297 10.3989 17.4855C9.7103 16.5743 8.61945 17.0881 8.15385 17.3111L8.15386 17.3112ZM9.13827 18.6154C8.19764 18.9451 7.17958 19.1003 6.18558 19.0567C5.62308 19.0324 5.27398 18.8967 5.14318 18.6543C5.0414 18.4603 5.0655 18.1889 5.10925 17.8833C5.13827 17.6844 5.16751 17.4614 5.25479 17.2967C5.32264 17.161 5.43425 17.0688 5.53112 17.0592H5.55545C5.68626 17.0592 5.85121 17.1708 6.01617 17.3744L6.12287 17.5101C6.29742 17.7331 6.49631 17.99 6.80658 18.1355C7.35926 18.3973 7.95075 18.1938 8.45504 17.9513C9.21149 17.5926 9.58961 17.5828 9.84658 17.9174C9.90953 17.9998 9.93877 18.0725 9.91935 18.121C9.88988 18.2324 9.66198 18.4359 9.13832 18.6154L9.13827 18.6154Z"
                                    fill="url(#paint2_linear_4003_30162)" />
                                <path
                                    d="M30.6825 9.56873L29.9504 9.06449V7.10089C29.9504 6.83414 29.8486 6.58214 29.6546 6.38815C29.4606 6.19908 29.2133 6.0973 28.9515 6.0973C28.3988 6.0973 27.9526 6.54819 27.9526 7.10084V7.69239L27.6278 7.4694L27.6281 5.85488C27.6281 5.58814 27.5263 5.33613 27.3372 5.14705C27.1481 4.95797 26.8959 4.85129 26.6245 4.85129C26.0718 4.85129 25.6256 5.30219 25.6256 5.85484V6.09725L24.399 5.25839L24.3988 3.03788C24.3988 1.58342 23.2158 0.400391 21.7613 0.400391C20.3069 0.400391 19.1285 1.58342 19.1285 3.03788V5.25839L17.902 6.09725V5.85484C17.902 5.30216 17.4511 4.85129 16.9031 4.85129C16.6317 4.85129 16.3794 4.95799 16.1953 5.14214C16.0062 5.3312 15.8995 5.58344 15.8995 5.84997V7.46448L15.5747 7.68747V7.09593C15.5747 6.54325 15.1238 6.09238 14.5759 6.09238C14.3141 6.09238 14.062 6.19417 13.8681 6.38815C13.679 6.57721 13.5772 6.82944 13.5772 7.09597V9.05957L12.8451 9.56381C12.525 9.78189 12.3359 10.1458 12.3359 10.5335V12.0462C12.3359 12.2547 12.4281 12.4487 12.5929 12.5748C12.7141 12.667 12.8547 12.7154 13.0049 12.7154C13.0583 12.7154 13.1116 12.7105 13.1699 12.696L19.1333 11.2172V11.9056C19.1333 12.3614 19.1962 12.8123 19.3224 13.2681L20.1563 15.7408L17.8679 17.3118C17.6449 17.4669 17.5092 17.7192 17.5092 17.9955V18.8634C17.5092 19.0284 17.582 19.1835 17.7128 19.2853C17.8436 19.3871 18.0085 19.4259 18.1735 19.3871L21.7661 18.4949L25.3636 19.3871C25.4072 19.3967 25.446 19.4016 25.4898 19.4016C25.611 19.4016 25.7273 19.3627 25.8244 19.2853C25.9552 19.1835 26.0279 19.0284 26.0279 18.8634V17.9955C26.0279 17.7241 25.8922 17.467 25.6692 17.3118L23.3808 15.7408L24.2197 13.2487C24.3409 12.8074 24.4038 12.3565 24.4038 11.9056V11.2172L30.3673 12.696C30.4206 12.7105 30.474 12.7154 30.5322 12.7154C30.6825 12.7154 30.8231 12.667 30.9443 12.5748C31.1092 12.4487 31.2012 12.2547 31.2012 12.0462V10.5335C31.1914 10.1507 31.0021 9.79192 30.6822 9.56872L30.6825 9.56873ZM28.6557 7.10576C28.6557 6.94571 28.7865 6.81 28.9465 6.81C29.0242 6.81 29.0968 6.84392 29.155 6.89727C29.2133 6.95062 29.2423 7.02808 29.2423 7.10575V8.58455L28.6557 8.18209L28.6557 7.10576ZM26.3284 5.85484C26.3284 5.68989 26.4545 5.55908 26.6193 5.55908C26.697 5.55908 26.7695 5.5881 26.8278 5.64636C26.886 5.6997 26.915 5.77716 26.915 5.85484V6.98455L26.3284 6.58209L26.3284 5.85484ZM16.6073 5.85484C16.6073 5.77716 16.6363 5.70462 16.6946 5.64636C16.7479 5.59301 16.8207 5.564 16.8981 5.564C17.0582 5.564 17.189 5.6948 17.189 5.85976V6.58701L16.6023 6.98947V5.8549L16.6073 5.85484ZM14.2849 7.10576C14.2849 7.02808 14.314 6.95553 14.3673 6.90218C14.5468 6.72272 14.8666 6.86826 14.8666 7.10576V8.1821L14.28 8.58456V7.10576H14.2849ZM13.0387 12.0026V10.5383C13.0387 10.3832 13.1164 10.2426 13.2423 10.1553L19.1286 6.11644V10.4946L13.0387 12.0026ZM18.2072 18.6546V18.0048C18.2072 17.966 18.2266 17.9321 18.2606 17.908L20.3842 16.4486L20.5394 16.9044C20.5782 17.0256 20.6411 17.1372 20.709 17.239C20.7139 17.2439 20.7186 17.2535 20.7186 17.2584C20.7476 17.2973 20.7816 17.3361 20.8155 17.37C20.8251 17.3796 20.8349 17.3944 20.8494 17.4089C20.8784 17.4379 20.9124 17.4671 20.9463 17.4961C20.9608 17.5107 20.9802 17.5252 20.9947 17.5397C21.0287 17.564 21.0626 17.5832 21.0965 17.6026C21.1208 17.6171 21.14 17.6316 21.1644 17.6415C21.1983 17.656 21.2322 17.6705 21.2612 17.685C21.2903 17.6946 21.3146 17.7093 21.3436 17.7189C21.3775 17.7285 21.4066 17.7383 21.4405 17.7432C21.4744 17.7528 21.5034 17.7627 21.5374 17.7676C21.5664 17.7725 21.6003 17.7725 21.6342 17.7772C21.6632 17.7821 21.6925 17.7868 21.7215 17.7868C21.7021 17.7868 21.6876 17.7917 21.6731 17.7964L18.2072 18.6546ZM25.3152 18.0048V18.6546L21.8438 17.7963C21.8293 17.7914 21.8099 17.7914 21.7954 17.7867C21.8293 17.7867 21.8583 17.7818 21.8876 17.7771C21.9166 17.7722 21.9458 17.7722 21.9797 17.7675C22.0186 17.7626 22.0525 17.753 22.0864 17.7432C22.1155 17.7336 22.1447 17.7287 22.1688 17.7189C22.2027 17.7093 22.2367 17.6945 22.2657 17.68C22.2947 17.6655 22.3239 17.6557 22.348 17.6412C22.3771 17.6267 22.4014 17.6073 22.4257 17.5928C22.4547 17.5733 22.484 17.5588 22.513 17.5394C22.5324 17.5249 22.5518 17.5055 22.5713 17.491C22.6052 17.4666 22.6342 17.4376 22.6634 17.4086C22.673 17.399 22.6829 17.3843 22.6925 17.3747C22.7264 17.3358 22.7603 17.3019 22.7893 17.2584V17.2535C22.867 17.1468 22.93 17.0305 22.9735 16.9044L23.1286 16.4486L25.2523 17.9079C25.296 17.9273 25.3152 17.966 25.3152 18.0048ZM23.6911 11.9151C23.6911 12.3031 23.6378 12.6957 23.5409 13.0544L22.5614 15.9587L22.319 16.681C22.2366 16.9185 22.0183 17.0786 21.7663 17.0786C21.6694 17.0786 21.5822 17.0495 21.5045 17.0058C21.3737 16.9379 21.267 16.8263 21.2136 16.6761L20.9083 15.7743L19.9967 13.064C19.8949 12.6859 19.8415 12.298 19.8415 11.9054L19.8413 3.03793C19.8413 1.97611 20.7043 1.11313 21.7661 1.11313C22.828 1.11313 23.6958 1.97611 23.6958 3.03793L23.6961 11.9156L23.6911 11.9151ZM30.4837 12.0024L24.3991 10.4946V6.11646L30.2854 10.1553C30.4115 10.2426 30.489 10.3881 30.489 10.5384V12.0024L30.4837 12.0024Z"
                                    fill="url(#paint3_linear_4003_30162)" />
                                <path
                                    d="M22.2934 3.64453C21.9977 3.94029 21.5178 3.94029 21.222 3.64453C21.0814 3.50391 20.8584 3.50391 20.7227 3.64453C20.582 3.78515 20.582 4.00815 20.7227 4.14386C21.0088 4.43002 21.382 4.57042 21.7601 4.57042C22.1336 4.57042 22.5117 4.4298 22.7976 4.14386C22.9382 4.00324 22.9382 3.78024 22.7976 3.64453C22.657 3.50391 22.434 3.50391 22.2934 3.64453Z"
                                    fill="url(#paint4_linear_4003_30162)" />
                                <path
                                    d="M4.76362 9.25826C4.99152 9.25826 5.2096 9.16139 5.36476 8.99152C6.43619 7.81809 8.23996 5.63637 8.23996 4.20112C8.23996 2.29083 6.6835 0.734375 4.76362 0.734375C2.85333 0.734375 1.29688 2.29083 1.29688 4.20112C1.29688 5.63615 3.09573 7.81809 4.16716 8.99152C4.31761 9.16139 4.53569 9.25826 4.76362 9.25826ZM4.76362 1.44283C6.29088 1.44283 7.52722 2.67923 7.52722 4.20152C7.52722 5.0598 6.52367 6.67426 4.83636 8.5118C4.81203 8.54082 4.7781 8.54573 4.75868 8.54573C4.73926 8.54573 4.70533 8.54082 4.681 8.5118C3.00843 6.67923 2.00489 5.06449 2.00489 4.20643C2.00489 2.68386 3.24133 1.44283 4.76362 1.44283Z"
                                    fill="url(#paint5_linear_4003_30162)" />
                                <path
                                    d="M6.35847 3.9351C6.35847 3.06235 5.64573 2.34961 4.77299 2.34961C3.90024 2.34961 3.1875 3.06235 3.1875 3.9351C3.1875 4.80784 3.90024 5.52058 4.77299 5.52058C5.64573 5.52058 6.35847 4.81275 6.35847 3.9351ZM3.89533 3.9351C3.89533 3.45027 4.28796 3.05744 4.77299 3.05744C5.25781 3.05744 5.65064 3.45007 5.65064 3.9351C5.65064 4.41992 5.25801 4.81275 4.77299 4.81275C4.28816 4.81275 3.89533 4.4199 3.89533 3.9351Z"
                                    fill="url(#paint6_linear_4003_30162)" />
                                <defs>
                                    <linearGradient id="paint0_linear_4003_30162" x1="21.7493" y1="2.68164" x2="21.6258"
                                        y2="35.4075" gradientUnits="userSpaceOnUse">
                                        <stop stop-color="#005CAA" />
                                        <stop offset="1" stop-color="#64B0F1" />
                                    </linearGradient>
                                    <linearGradient id="paint1_linear_4003_30162" x1="20.6221" y1="19.7578" x2="20.615"
                                        y2="22.4796" gradientUnits="userSpaceOnUse">
                                        <stop stop-color="#005CAA" />
                                        <stop offset="1" stop-color="#64B0F1" />
                                    </linearGradient>
                                    <linearGradient id="paint2_linear_4003_30162" x1="9.24146" y1="16.3457" x2="9.23288"
                                        y2="20.5089" gradientUnits="userSpaceOnUse">
                                        <stop stop-color="#005CAA" />
                                        <stop offset="1" stop-color="#64B0F1" />
                                    </linearGradient>
                                    <linearGradient id="paint3_linear_4003_30162" x1="27.034" y1="0.400391" x2="26.9463"
                                        y2="23.4738" gradientUnits="userSpaceOnUse">
                                        <stop stop-color="#005CAA" />
                                        <stop offset="1" stop-color="#64B0F1" />
                                    </linearGradient>
                                    <linearGradient id="paint4_linear_4003_30162" x1="22.3982" y1="3.53906" x2="22.396"
                                        y2="4.79145" gradientUnits="userSpaceOnUse">
                                        <stop stop-color="#005CAA" />
                                        <stop offset="1" stop-color="#64B0F1" />
                                    </linearGradient>
                                    <linearGradient id="paint5_linear_4003_30162" x1="6.7063" y1="0.734375" x2="6.65835"
                                        y2="11.0848" gradientUnits="userSpaceOnUse">
                                        <stop stop-color="#005CAA" />
                                        <stop offset="1" stop-color="#64B0F1" />
                                    </linearGradient>
                                    <linearGradient id="paint6_linear_4003_30162" x1="5.65803" y1="2.34961" x2="5.6435"
                                        y2="6.2001" gradientUnits="userSpaceOnUse">
                                        <stop stop-color="#005CAA" />
                                        <stop offset="1" stop-color="#64B0F1" />
                                    </linearGradient>
                                </defs>
</svg>