<svg width="38" height="38" viewBox="0 0 32 28" fill="none"
                                xmlns="http://www.w3.org/2000/svg">
                                <path
                                    d="M30.5691 7.33111C29.8427 7.12151 28.8733 7.49785 28.4622 8.81882L26.5253 15.0394C26.3789 15.509 25.9226 15.8394 25.345 16.2608L25.3084 16.2872L26.1836 14.4251C26.774 13.1697 26.3523 12.251 25.6722 11.8974C24.9539 11.524 23.8802 11.7524 23.218 12.911C23.001 13.2907 22.8209 13.6084 22.6673 13.8778C22.1659 14.8724 21.5336 15.7954 20.7867 16.6218C20.6133 16.8298 20.4115 17.0725 20.1717 17.3624C18.705 19.1376 18.8773 20.8044 19.005 22.0211C19.0204 22.1698 19.0347 22.3095 19.0456 22.4419L19.0289 22.4394C18.7389 22.3655 18.4313 22.4095 18.1737 22.562C17.9162 22.7146 17.7295 22.9628 17.655 23.2528L17.2644 24.7729C17.1903 25.0629 17.2345 25.3705 17.3869 25.6281C17.5394 25.8857 17.7878 26.0723 18.0775 26.1468L23.8775 27.6338C24.1677 27.7077 24.4751 27.6635 24.7327 27.5111C24.9903 27.3586 25.1769 27.1104 25.2517 26.8205L25.6409 25.3015C25.7148 25.0115 25.6706 24.7039 25.5182 24.4463C25.3657 24.1887 25.1175 24.0021 24.8275 23.9276L24.7746 23.914V23.9137C24.9188 23.597 25.0836 23.2901 25.2684 22.9952C25.5487 22.5403 26.1267 21.8147 26.7387 21.0462C27.9871 19.4794 29.4021 17.7031 29.7166 16.5462L31.5766 9.54386C31.888 8.37089 31.3052 7.54272 30.569 7.33089L30.5691 7.33111ZM24.8079 25.0871L24.4187 26.6065C24.3807 26.7498 24.235 26.836 24.091 26.8005L18.291 25.3135C18.1508 25.2755 18.0649 25.1342 18.0957 24.9923C18.0957 24.9903 18.4867 23.4672 18.4867 23.4672C18.5251 23.3246 18.6704 23.2387 18.814 23.2735L24.614 24.7601C24.7568 24.7985 24.843 24.9438 24.8077 25.0876L24.8079 25.0871ZM30.7451 9.32025L28.8862 16.3203C28.6194 17.304 27.2031 19.0805 26.0659 20.5082V20.5084C25.5224 21.1602 25.0117 21.8388 24.536 22.5417C24.3045 22.91 24.1021 23.2954 23.9302 23.695L19.9201 22.6667C19.9107 22.4334 19.8869 22.1875 19.8592 21.9334C19.7362 20.7502 19.5969 19.4086 20.8344 17.9111C21.073 17.622 21.2748 17.3805 21.4473 17.1732H21.4476C22.2273 16.3077 22.8887 15.3426 23.4143 14.303C23.5672 14.033 23.7476 13.716 23.9634 13.3363C24.3567 12.6486 24.9203 12.4749 25.2743 12.6586C25.6587 12.8586 25.7096 13.4077 25.404 14.0586L23.6331 17.8254H23.6328C23.5395 18.0225 23.6087 18.2584 23.7938 18.3738C23.9786 18.4895 24.2208 18.4484 24.3572 18.2781C24.7911 17.7705 25.2933 17.3256 25.8491 16.9557C26.4993 16.4827 27.1138 16.0363 27.3449 15.2944L29.2833 9.07321C29.5239 8.30047 29.9833 8.05579 30.331 8.15624C30.6545 8.25088 30.9226 8.65513 30.7453 9.32184L30.7451 9.32025ZM14.3371 23.2528C14.2623 22.9626 14.0757 22.7142 13.8179 22.5617C13.5601 22.4091 13.2523 22.3653 12.9621 22.4394L12.9453 22.4437C12.9563 22.3104 12.9705 22.1716 12.9859 22.0229C13.1125 20.8062 13.2859 19.1396 11.8192 17.3642C11.5795 17.0738 11.3772 16.831 11.2038 16.6231L11.204 16.6236C10.4571 15.7972 9.82474 14.8745 9.32366 13.8798C9.17008 13.609 8.9904 13.2912 8.77299 12.9131C8.1107 11.7544 7.03704 11.526 6.31876 11.8995C5.63887 12.253 5.21876 13.1718 5.80737 14.4271L6.68257 16.2892L6.64597 16.2628C6.06831 15.8427 5.61271 15.5113 5.46563 15.0414L3.5286 8.81855C3.11721 7.49758 2.14802 7.12146 1.42122 7.33083C0.685282 7.54289 0.102482 8.37078 0.413853 9.54244L2.275 16.5476C2.58906 17.7023 4.00402 19.4782 5.25225 21.0454C5.86431 21.8121 6.4422 22.5393 6.72254 22.9944V22.9942C6.90714 23.2893 7.07209 23.5962 7.21629 23.913L7.16339 23.9266C6.87343 24.0013 6.62522 24.188 6.47276 24.4455C6.3203 24.7031 6.27611 25.0105 6.34999 25.3007L6.73928 26.8197C6.81339 27.1098 6.99977 27.3587 7.25758 27.5114C7.51539 27.6638 7.8232 27.7076 8.11341 27.6328L13.9134 26.1458V26.146C14.2031 26.071 14.4514 25.8844 14.6038 25.6268C14.7563 25.3694 14.8005 25.0621 14.7266 24.7719L14.3371 23.2528ZM7.4548 22.5432C6.97913 21.8403 6.4684 21.1617 5.92491 20.5097C4.78766 19.0819 3.37223 17.3062 3.10526 16.3243L1.24543 9.3214C1.06819 8.65465 1.33605 8.25042 1.65971 8.15711C2.00815 8.05711 2.46663 8.30153 2.70748 9.07408L4.64451 15.2958C4.87554 16.0377 5.48983 16.4842 6.14028 16.9572V16.9569C6.69609 17.3268 7.19834 17.7719 7.63223 18.2795C7.76861 18.4496 8.0108 18.4909 8.19562 18.3753C8.38067 18.2597 8.44986 18.0239 8.35656 17.8268L6.58559 14.0601C6.28 13.4101 6.3309 12.8601 6.71527 12.6601C7.06929 12.4764 7.63293 12.65 8.02619 13.3378C8.24249 13.7161 8.42217 14.0328 8.5753 14.3045H8.57507C9.10052 15.3442 9.76193 16.3094 10.5418 17.1748C10.7146 17.3821 10.9159 17.6239 11.1548 17.9127C12.3925 19.4105 12.2548 20.7518 12.13 21.9351C12.1036 22.1893 12.0784 22.4351 12.0691 22.6683L8.06191 23.6964C7.88959 23.2969 7.68668 22.9112 7.45476 22.5431L7.4548 22.5432ZM13.8634 25.1888C13.8274 25.2504 13.7685 25.295 13.6993 25.3129L7.89931 26.7999C7.75556 26.8354 7.6098 26.749 7.57163 26.6059L7.18234 25.087V25.0867C7.1464 24.9432 7.23279 24.7972 7.37609 24.7595L13.1761 23.2729C13.1971 23.2673 13.2187 23.2644 13.2404 23.2644C13.3636 23.2648 13.4712 23.3477 13.5033 23.4664L13.8926 24.9854H13.8928C13.9105 25.0544 13.9 25.1276 13.8634 25.1888ZM10.3727 9.85757H13.2538V12.7393C13.254 13.0444 13.3754 13.3368 13.591 13.5524C13.8067 13.768 14.0991 13.8893 14.404 13.8897H17.5862C17.8911 13.8893 18.1835 13.768 18.3992 13.5524C18.6148 13.3368 18.7362 13.0444 18.7364 12.7393V9.85757H21.6175C21.9226 9.85734 22.2152 9.73592 22.4308 9.51984C22.6467 9.304 22.7679 9.01114 22.7679 8.70601V5.52544C22.7674 5.22031 22.6462 4.9279 22.4304 4.7123C22.2148 4.49668 21.9224 4.37547 21.6174 4.37502H18.7364V1.494C18.7362 1.18909 18.6147 0.896682 18.3991 0.681024C18.1835 0.465402 17.8911 0.343973 17.5861 0.34375H14.404C14.0991 0.343973 13.8067 0.465402 13.591 0.681024C13.3754 0.896647 13.2539 1.18906 13.2537 1.494V4.37502H10.3727C10.0678 4.37547 9.77538 4.49668 9.55973 4.7123C9.34388 4.92792 9.22267 5.22033 9.22223 5.52544V8.70601C9.22223 9.01114 9.34343 9.30401 9.55928 9.51984C9.7749 9.73591 10.0675 9.85734 10.3727 9.85757H10.3727ZM10.0823 5.52431C10.0846 5.36493 10.2134 5.23614 10.3727 5.23391H13.6837C13.7977 5.23391 13.9071 5.1886 13.9877 5.10802C14.0685 5.02744 14.1138 4.91806 14.1138 4.804V1.49394C14.1158 1.33457 14.2446 1.20577 14.404 1.20377H17.5861C17.7455 1.20578 17.8743 1.33457 17.8763 1.49394V4.806C17.8763 5.0435 18.0689 5.23591 18.3064 5.23591H21.6174C21.7767 5.23814 21.9055 5.36694 21.9078 5.52631V8.70602C21.9055 8.8654 21.7767 8.99397 21.6174 8.99598H18.3064C18.1924 8.99598 18.0828 9.04129 18.0022 9.12209C17.9216 9.2029 17.8763 9.31227 17.8763 9.42633V12.7393C17.8743 12.8987 17.7455 13.0275 17.5861 13.0295H14.404C14.2446 13.0275 14.1158 12.8987 14.1138 12.7393V9.4277C14.1138 9.31364 14.0685 9.20426 13.9879 9.12346C13.9073 9.04266 13.7977 8.99735 13.6837 8.99735H10.3727C10.2134 8.99534 10.0846 8.86677 10.0823 8.7074V5.52431Z"
                                    fill="url(#paint0_linear_4003_30104)" />
                                <defs>
                                    <linearGradient id="paint0_linear_4003_30104" x1="24.7409" y1="0.34375" x2="24.6317"
                                        y2="33.5245" gradientUnits="userSpaceOnUse">
                                        <stop stop-color="#005CAA" />
                                        <stop offset="1" stop-color="#64B0F1" />
                                    </linearGradient>
                                </defs>
</svg>