<svg width="38" height="38" viewBox="0 0 32 22" fill="none" xmlns="http://www.w3.org/2000/svg">
<path d="M29.4196 19.0591C29.3571 19.0604 29.2966 19.0364 29.2521 18.9927C29.2074 18.9489 29.1821 18.8888 29.1821 18.8263V1.39405C29.1821 1.17627 29.0956 0.967188 28.9415 0.813033C28.7873 0.658872 28.5784 0.572351 28.3604 0.572351H3.63654C3.41856 0.572351 3.20968 0.658872 3.05553 0.813033C2.90136 0.967193 2.81484 1.17628 2.81484 1.39405V18.8458C2.81484 18.9771 2.70839 19.0833 2.57734 19.0833C2.44608 19.0833 2.33984 18.9771 2.33984 18.8458V1.39405C2.33984 1.05074 2.47662 0.721181 2.71984 0.47885C2.96328 0.236475 3.29305 0.100972 3.63657 0.102243H28.3843C28.727 0.102243 29.0557 0.23838 29.2979 0.480549C29.5402 0.722924 29.6764 1.05142 29.6764 1.39407V18.8458C29.6715 18.9086 29.6416 18.9667 29.5933 19.007C29.5449 19.0473 29.4823 19.0662 29.4198 19.0596L29.4196 19.0591Z" fill="url(#paint0_linear_3240_13257)"/>
<path d="M29.4196 19.0591C29.3571 19.0604 29.2966 19.0364 29.2521 18.9927C29.2074 18.9489 29.1821 18.8888 29.1821 18.8263V1.39405C29.1821 1.17627 29.0956 0.967188 28.9415 0.813033C28.7873 0.658872 28.5784 0.572351 28.3604 0.572351H3.63654C3.41856 0.572351 3.20968 0.658872 3.05553 0.813033C2.90136 0.967193 2.81484 1.17628 2.81484 1.39405V18.8458C2.81484 18.9771 2.70839 19.0833 2.57734 19.0833C2.44608 19.0833 2.33984 18.9771 2.33984 18.8458V1.39405C2.33984 1.05074 2.47662 0.721181 2.71984 0.47885C2.96328 0.236475 3.29305 0.100972 3.63657 0.102243H28.3843C28.727 0.102243 29.0557 0.23838 29.2979 0.480549C29.5402 0.722924 29.6764 1.05142 29.6764 1.39407V18.8458C29.6715 18.9086 29.6416 18.9667 29.5933 19.007C29.5449 19.0473 29.4823 19.0662 29.4198 19.0596L29.4196 19.0591Z" fill="black" fill-opacity="0.2"/>
<path d="M26.6149 17.316H5.35392C5.02418 17.3173 4.70781 17.1873 4.47411 16.9547C4.24064 16.7221 4.10938 16.4059 4.10938 16.0763V3.10858C4.10938 2.77968 4.24 2.46437 4.47241 2.23197C4.70504 1.99935 5.02037 1.86872 5.34902 1.86872H26.6149C26.9446 1.86745 27.261 1.99765 27.4947 2.23028C27.7282 2.4629 27.8594 2.77883 27.8594 3.10862V16.0764C27.8594 16.4059 27.7282 16.7221 27.4947 16.9547C27.261 17.1874 26.9447 17.3173 26.6149 17.316ZM5.35392 2.3348C5.14886 2.3348 4.9525 2.41644 4.80808 2.5617C4.66366 2.70717 4.58309 2.90416 4.58436 3.109V16.0768C4.58309 16.2816 4.66366 16.4786 4.80808 16.6239C4.95249 16.7693 5.14884 16.851 5.35392 16.851H26.6149C26.82 16.851 27.0163 16.7693 27.1608 16.6239C27.3052 16.4786 27.3857 16.2816 27.3845 16.0768V3.109C27.3858 2.90416 27.3052 2.70717 27.1608 2.5617C27.0164 2.41644 26.82 2.3348 26.6149 2.3348H5.35392Z" fill="url(#paint1_linear_3240_13257)"/>
<path d="M26.6149 17.316H5.35392C5.02418 17.3173 4.70781 17.1873 4.47411 16.9547C4.24064 16.7221 4.10938 16.4059 4.10938 16.0763V3.10858C4.10938 2.77968 4.24 2.46437 4.47241 2.23197C4.70504 1.99935 5.02037 1.86872 5.34902 1.86872H26.6149C26.9446 1.86745 27.261 1.99765 27.4947 2.23028C27.7282 2.4629 27.8594 2.77883 27.8594 3.10862V16.0764C27.8594 16.4059 27.7282 16.7221 27.4947 16.9547C27.261 17.1874 26.9447 17.3173 26.6149 17.316ZM5.35392 2.3348C5.14886 2.3348 4.9525 2.41644 4.80808 2.5617C4.66366 2.70717 4.58309 2.90416 4.58436 3.109V16.0768C4.58309 16.2816 4.66366 16.4786 4.80808 16.6239C4.95249 16.7693 5.14884 16.851 5.35392 16.851H26.6149C26.82 16.851 27.0163 16.7693 27.1608 16.6239C27.3052 16.4786 27.3857 16.2816 27.3845 16.0768V3.109C27.3858 2.90416 27.3052 2.70717 27.1608 2.5617C27.0164 2.41644 26.82 2.3348 26.6149 2.3348H5.35392Z" fill="black" fill-opacity="0.2"/>
<path d="M28.164 21.8662H3.80605C3.00533 21.8649 2.23768 21.5464 1.67132 20.9801C1.10512 20.4139 0.786405 19.6463 0.785156 18.8453C0.785156 18.7168 0.889276 18.6125 1.01799 18.6125H30.943C31.0715 18.6125 31.1756 18.7168 31.1756 18.8453C31.1743 19.6446 30.8571 20.4107 30.2928 20.9767C29.7285 21.5429 28.9633 21.8626 28.1642 21.8663L28.164 21.8662ZM1.26005 19.059C1.31921 19.6925 1.61227 20.2809 2.08237 20.7097C2.55228 21.1382 3.1651 21.3761 3.80127 21.377H28.1642C28.8009 21.3774 29.4151 21.1399 29.886 20.7111C30.357 20.2824 30.6509 19.6933 30.7101 19.059L1.26005 19.059Z" fill="url(#paint2_linear_3240_13257)"/>
<path d="M28.164 21.8662H3.80605C3.00533 21.8649 2.23768 21.5464 1.67132 20.9801C1.10512 20.4139 0.786405 19.6463 0.785156 18.8453C0.785156 18.7168 0.889276 18.6125 1.01799 18.6125H30.943C31.0715 18.6125 31.1756 18.7168 31.1756 18.8453C31.1743 19.6446 30.8571 20.4107 30.2928 20.9767C29.7285 21.5429 28.9633 21.8626 28.1642 21.8663L28.164 21.8662ZM1.26005 19.059C1.31921 19.6925 1.61227 20.2809 2.08237 20.7097C2.55228 21.1382 3.1651 21.3761 3.80127 21.377H28.1642C28.8009 21.3774 29.4151 21.1399 29.886 20.7111C30.357 20.2824 30.6509 19.6933 30.7101 19.059L1.26005 19.059Z" fill="black" fill-opacity="0.2"/>
<path d="M18.6826 20.4841H13.2868C12.847 20.4841 12.4254 20.3094 12.1145 19.9985C11.8036 19.6876 11.6289 19.2661 11.6289 18.8262C11.6289 18.6952 11.7354 18.5887 11.8664 18.5887C11.9977 18.5887 12.1039 18.6952 12.1039 18.8262C12.1052 19.1422 12.2311 19.4446 12.4544 19.6681C12.6779 19.8914 12.9803 20.0174 13.2963 20.0186H18.6827C18.9986 20.0174 19.3011 19.8914 19.5243 19.6681C19.7476 19.4446 19.8738 19.1422 19.8751 18.8262C19.8751 18.6952 19.9813 18.5887 20.1126 18.5887C20.2436 18.5887 20.3501 18.6952 20.3501 18.8262C20.3501 19.2677 20.1741 19.6908 19.8611 20.0019C19.5481 20.3132 19.1239 20.4866 18.6826 20.4841Z" fill="url(#paint3_linear_3240_13257)"/>
<path d="M18.6826 20.4841H13.2868C12.847 20.4841 12.4254 20.3094 12.1145 19.9985C11.8036 19.6876 11.6289 19.2661 11.6289 18.8262C11.6289 18.6952 11.7354 18.5887 11.8664 18.5887C11.9977 18.5887 12.1039 18.6952 12.1039 18.8262C12.1052 19.1422 12.2311 19.4446 12.4544 19.6681C12.6779 19.8914 12.9803 20.0174 13.2963 20.0186H18.6827C18.9986 20.0174 19.3011 19.8914 19.5243 19.6681C19.7476 19.4446 19.8738 19.1422 19.8751 18.8262C19.8751 18.6952 19.9813 18.5887 20.1126 18.5887C20.2436 18.5887 20.3501 18.6952 20.3501 18.8262C20.3501 19.2677 20.1741 19.6908 19.8611 20.0019C19.5481 20.3132 19.1239 20.4866 18.6826 20.4841Z" fill="black" fill-opacity="0.2"/>
<path d="M22.161 16.385H9.81101C9.6825 16.385 9.57817 16.2807 9.57817 16.1522V12.8842C9.5769 12.8217 9.60086 12.7612 9.64476 12.7165C9.68844 12.672 9.74846 12.6467 9.81101 12.6467H22.161C22.2236 12.6467 22.2836 12.672 22.3273 12.7165C22.3712 12.7612 22.3951 12.8217 22.3938 12.8842V16.1426C22.3964 16.206 22.3731 16.2677 22.329 16.3135C22.2851 16.3591 22.2244 16.385 22.161 16.385ZM10.0059 15.91H21.9281V13.1264H10.0249L10.0059 15.91Z" fill="url(#paint4_linear_3240_13257)"/>
<path d="M22.161 16.385H9.81101C9.6825 16.385 9.57817 16.2807 9.57817 16.1522V12.8842C9.5769 12.8217 9.60086 12.7612 9.64476 12.7165C9.68844 12.672 9.74846 12.6467 9.81101 12.6467H22.161C22.2236 12.6467 22.2836 12.672 22.3273 12.7165C22.3712 12.7612 22.3951 12.8217 22.3938 12.8842V16.1426C22.3964 16.206 22.3731 16.2677 22.329 16.3135C22.2851 16.3591 22.2244 16.385 22.161 16.385ZM10.0059 15.91H21.9281V13.1264H10.0249L10.0059 15.91Z" fill="black" fill-opacity="0.2"/>
<path d="M13.1355 15.2309C13.0935 15.2316 13.0522 15.2201 13.0168 15.1976L11.3734 14.2476C11.2633 14.18 11.2256 14.0379 11.2877 13.9247C11.3536 13.8152 11.4942 13.7773 11.606 13.839L13.2494 14.789H13.2496C13.3433 14.8403 13.3902 14.9487 13.363 15.0522C13.3361 15.1554 13.2424 15.2271 13.1355 15.226V15.2309Z" fill="url(#paint5_linear_3240_13257)"/>
<path d="M13.1355 15.2309C13.0935 15.2316 13.0522 15.2201 13.0168 15.1976L11.3734 14.2476C11.2633 14.18 11.2256 14.0379 11.2877 13.9247C11.3536 13.8152 11.4942 13.7773 11.606 13.839L13.2494 14.789H13.2496C13.3433 14.8403 13.3902 14.9487 13.363 15.0522C13.3361 15.1554 13.2424 15.2271 13.1355 15.226V15.2309Z" fill="black" fill-opacity="0.2"/>
<path d="M12.2992 15.7059C12.1705 15.7059 12.0664 15.6016 12.0664 15.473V13.573C12.0664 13.4445 12.1705 13.3402 12.2992 13.3402C12.4277 13.3402 12.5319 13.4445 12.5319 13.573V15.473C12.5319 15.5348 12.5075 15.5939 12.4638 15.6376C12.4201 15.6813 12.3609 15.7059 12.2992 15.7059Z" fill="url(#paint6_linear_3240_13257)"/>
<path d="M12.2992 15.7059C12.1705 15.7059 12.0664 15.6016 12.0664 15.473V13.573C12.0664 13.4445 12.1705 13.3402 12.2992 13.3402C12.4277 13.3402 12.5319 13.4445 12.5319 13.573V15.473C12.5319 15.5348 12.5075 15.5939 12.4638 15.6376C12.4201 15.6813 12.3609 15.7059 12.2992 15.7059Z" fill="black" fill-opacity="0.2"/>
<path d="M11.476 15.2309C11.3918 15.2303 11.314 15.1851 11.2718 15.1122C11.2101 15.0002 11.2478 14.8596 11.3572 14.7939L13.0006 13.8439H13.0009C13.1126 13.7822 13.2532 13.8199 13.3191 13.9293C13.3516 13.9832 13.3607 14.0481 13.3446 14.1089C13.3285 14.1698 13.2884 14.2215 13.2335 14.2523L11.5901 15.2023C11.5557 15.2231 11.5161 15.233 11.476 15.2309Z" fill="url(#paint7_linear_3240_13257)"/>
<path d="M11.476 15.2309C11.3918 15.2303 11.314 15.1851 11.2718 15.1122C11.2101 15.0002 11.2478 14.8596 11.3572 14.7939L13.0006 13.8439H13.0009C13.1126 13.7822 13.2532 13.8199 13.3191 13.9293C13.3516 13.9832 13.3607 14.0481 13.3446 14.1089C13.3285 14.1698 13.2884 14.2215 13.2335 14.2523L11.5901 15.2023C11.5557 15.2231 11.5161 15.233 11.476 15.2309Z" fill="black" fill-opacity="0.2"/>
<path d="M15.5755 15.2309C15.535 15.2315 15.4952 15.2199 15.4614 15.1976L13.818 14.2476C13.7052 14.1834 13.6658 14.0398 13.73 13.927C13.7943 13.8142 13.9379 13.7747 14.0507 13.839L15.6941 14.789H15.6943C15.8037 14.8549 15.8414 14.9955 15.7797 15.1073C15.7388 15.1821 15.6608 15.2294 15.5755 15.2309Z" fill="url(#paint8_linear_3240_13257)"/>
<path d="M15.5755 15.2309C15.535 15.2315 15.4952 15.2199 15.4614 15.1976L13.818 14.2476C13.7052 14.1834 13.6658 14.0398 13.73 13.927C13.7943 13.8142 13.9379 13.7747 14.0507 13.839L15.6941 14.789H15.6943C15.8037 14.8549 15.8414 14.9955 15.7797 15.1073C15.7388 15.1821 15.6608 15.2294 15.5755 15.2309Z" fill="black" fill-opacity="0.2"/>
<path d="M14.7561 15.7059C14.6276 15.7059 14.5234 15.6015 14.5234 15.473V13.573C14.5234 13.4445 14.6276 13.3402 14.7561 13.3402C14.8186 13.3389 14.8791 13.3629 14.9238 13.4068C14.9685 13.4505 14.9936 13.5105 14.9936 13.573V15.473C14.9936 15.5356 14.9685 15.5956 14.9238 15.6393C14.8791 15.6832 14.8186 15.7071 14.7561 15.7059Z" fill="url(#paint9_linear_3240_13257)"/>
<path d="M14.7561 15.7059C14.6276 15.7059 14.5234 15.6015 14.5234 15.473V13.573C14.5234 13.4445 14.6276 13.3402 14.7561 13.3402C14.8186 13.3389 14.8791 13.3629 14.9238 13.4068C14.9685 13.4505 14.9936 13.5105 14.9936 13.573V15.473C14.9936 15.5356 14.9685 15.5956 14.9238 15.6393C14.8791 15.6832 14.8186 15.7071 14.7561 15.7059Z" fill="black" fill-opacity="0.2"/>
<path d="M13.9343 15.2309C13.8274 15.232 13.7337 15.1603 13.7068 15.0568C13.6798 14.9536 13.7267 14.845 13.8204 14.7939L15.4638 13.8439C15.5756 13.7822 15.7162 13.8199 15.7821 13.9293C15.8442 14.0426 15.8067 14.1846 15.6967 14.2523L14.0533 15.2023H14.0531C14.0172 15.2233 13.9759 15.233 13.9343 15.2309Z" fill="url(#paint10_linear_3240_13257)"/>
<path d="M13.9343 15.2309C13.8274 15.232 13.7337 15.1603 13.7068 15.0568C13.6798 14.9536 13.7267 14.845 13.8204 14.7939L15.4638 13.8439C15.5756 13.7822 15.7162 13.8199 15.7821 13.9293C15.8442 14.0426 15.8067 14.1846 15.6967 14.2523L14.0533 15.2023H14.0531C14.0172 15.2233 13.9759 15.233 13.9343 15.2309Z" fill="black" fill-opacity="0.2"/>
<path d="M18.0379 15.2309C17.9959 15.2315 17.9546 15.2201 17.9191 15.1976L16.2758 14.2476H16.2755C16.1655 14.1799 16.128 14.0379 16.1901 13.9246C16.2543 13.8133 16.3954 13.7734 16.5084 13.8343L18.1518 14.7843C18.2455 14.8354 18.2924 14.944 18.2654 15.0472C18.2385 15.1507 18.1448 15.2224 18.0379 15.2213L18.0379 15.2309Z" fill="url(#paint11_linear_3240_13257)"/>
<path d="M18.0379 15.2309C17.9959 15.2315 17.9546 15.2201 17.9191 15.1976L16.2758 14.2476H16.2755C16.1655 14.1799 16.128 14.0379 16.1901 13.9246C16.2543 13.8133 16.3954 13.7734 16.5084 13.8343L18.1518 14.7843C18.2455 14.8354 18.2924 14.944 18.2654 15.0472C18.2385 15.1507 18.1448 15.2224 18.0379 15.2213L18.0379 15.2309Z" fill="black" fill-opacity="0.2"/>
<path d="M17.2133 15.7059C17.0846 15.7059 16.9805 15.6016 16.9805 15.473V13.573C16.9805 13.4445 17.0846 13.3402 17.2133 13.3402C17.3418 13.3402 17.4459 13.4445 17.4459 13.573V15.473C17.4459 15.5348 17.4215 15.5939 17.3779 15.6376C17.3342 15.6813 17.275 15.7059 17.2133 15.7059Z" fill="url(#paint12_linear_3240_13257)"/>
<path d="M17.2133 15.7059C17.0846 15.7059 16.9805 15.6016 16.9805 15.473V13.573C16.9805 13.4445 17.0846 13.3402 17.2133 13.3402C17.3418 13.3402 17.4459 13.4445 17.4459 13.573V15.473C17.4459 15.5348 17.4215 15.5939 17.3779 15.6376C17.3342 15.6813 17.275 15.7059 17.2133 15.7059Z" fill="black" fill-opacity="0.2"/>
<path d="M16.394 15.2309C16.3098 15.2303 16.232 15.1851 16.1898 15.1122C16.1281 15.0002 16.1658 14.8596 16.2752 14.7939L17.9186 13.8439H17.9188C18.0316 13.7796 18.1752 13.8188 18.2394 13.9317C18.3037 14.0445 18.2643 14.188 18.1514 14.2523L16.508 15.2023C16.4737 15.2231 16.434 15.233 16.394 15.2309Z" fill="url(#paint13_linear_3240_13257)"/>
<path d="M16.394 15.2309C16.3098 15.2303 16.232 15.1851 16.1898 15.1122C16.1281 15.0002 16.1658 14.8596 16.2752 14.7939L17.9186 13.8439H17.9188C18.0316 13.7796 18.1752 13.8188 18.2394 13.9317C18.3037 14.0445 18.2643 14.188 18.1514 14.2523L16.508 15.2023C16.4737 15.2231 16.434 15.233 16.394 15.2309Z" fill="black" fill-opacity="0.2"/>
<path d="M20.4935 15.2309C20.453 15.2315 20.4131 15.2199 20.3794 15.1976L18.736 14.2476C18.6232 14.1834 18.5838 14.0398 18.648 13.927C18.7123 13.8142 18.8558 13.7747 18.9686 13.839L20.612 14.789H20.6122C20.7217 14.8549 20.7594 14.9955 20.6977 15.1073C20.6568 15.1821 20.5787 15.2294 20.4935 15.2309Z" fill="url(#paint14_linear_3240_13257)"/>
<path d="M20.4935 15.2309C20.453 15.2315 20.4131 15.2199 20.3794 15.1976L18.736 14.2476C18.6232 14.1834 18.5838 14.0398 18.648 13.927C18.7123 13.8142 18.8558 13.7747 18.9686 13.839L20.612 14.789H20.6122C20.7217 14.8549 20.7594 14.9955 20.6977 15.1073C20.6568 15.1821 20.5787 15.2294 20.4935 15.2309Z" fill="black" fill-opacity="0.2"/>
<path d="M19.6701 15.7059C19.5416 15.7059 19.4375 15.6016 19.4375 15.4731V13.5731C19.4375 13.4418 19.5437 13.3356 19.675 13.3356C19.8061 13.3356 19.9125 13.4418 19.9125 13.5731V15.4731C19.9125 15.5365 19.8866 15.5971 19.841 15.641C19.7952 15.6851 19.7335 15.7085 19.6701 15.7059Z" fill="url(#paint15_linear_3240_13257)"/>
<path d="M19.6701 15.7059C19.5416 15.7059 19.4375 15.6016 19.4375 15.4731V13.5731C19.4375 13.4418 19.5437 13.3356 19.675 13.3356C19.8061 13.3356 19.9125 13.4418 19.9125 13.5731V15.4731C19.9125 15.5365 19.8866 15.5971 19.841 15.641C19.7952 15.6851 19.7335 15.7085 19.6701 15.7059Z" fill="black" fill-opacity="0.2"/>
<path d="M18.8367 15.2309C18.7299 15.232 18.6361 15.1603 18.6092 15.0568C18.5821 14.9536 18.6289 14.845 18.7227 14.7939L20.366 13.8439H20.3663C20.478 13.7822 20.6186 13.8199 20.6845 13.9293C20.7467 14.0426 20.7089 14.1846 20.5989 14.2523L18.9555 15.2023C18.9194 15.2233 18.8783 15.233 18.8367 15.2309Z" fill="url(#paint16_linear_3240_13257)"/>
<path d="M18.8367 15.2309C18.7299 15.232 18.6361 15.1603 18.6092 15.0568C18.5821 14.9536 18.6289 14.845 18.7227 14.7939L20.366 13.8439H20.3663C20.478 13.7822 20.6186 13.8199 20.6845 13.9293C20.7467 14.0426 20.7089 14.1846 20.5989 14.2523L18.9555 15.2023C18.9194 15.2233 18.8783 15.233 18.8367 15.2309Z" fill="black" fill-opacity="0.2"/>
<path d="M19.4779 13.1262C19.4153 13.1275 19.3549 13.1035 19.3101 13.0598C19.2656 13.0159 19.2404 12.9561 19.2404 12.8936C19.2404 11.7311 18.6201 10.6568 17.6135 10.0758C16.6069 9.49459 15.3663 9.49459 14.3597 10.0758C13.3531 10.6568 12.7328 11.7311 12.7328 12.8936C12.7328 13.0246 12.6266 13.1311 12.4953 13.1311C12.364 13.1311 12.2578 13.0246 12.2578 12.8936C12.2578 11.5631 12.9675 10.3337 14.1199 9.66847C15.272 9.00325 16.6917 9.00325 17.8438 9.66847C18.9961 10.3337 19.7058 11.5631 19.7058 12.8936C19.7058 13.0202 19.6045 13.1237 19.4779 13.1262Z" fill="url(#paint17_linear_3240_13257)"/>
<path d="M19.4779 13.1262C19.4153 13.1275 19.3549 13.1035 19.3101 13.0598C19.2656 13.0159 19.2404 12.9561 19.2404 12.8936C19.2404 11.7311 18.6201 10.6568 17.6135 10.0758C16.6069 9.49459 15.3663 9.49459 14.3597 10.0758C13.3531 10.6568 12.7328 11.7311 12.7328 12.8936C12.7328 13.0246 12.6266 13.1311 12.4953 13.1311C12.364 13.1311 12.2578 13.0246 12.2578 12.8936C12.2578 11.5631 12.9675 10.3337 14.1199 9.66847C15.272 9.00325 16.6917 9.00325 17.8438 9.66847C18.9961 10.3337 19.7058 11.5631 19.7058 12.8936C19.7058 13.0202 19.6045 13.1237 19.4779 13.1262Z" fill="black" fill-opacity="0.2"/>
<path d="M15.987 8.60914C15.4755 8.60914 14.985 8.40599 14.6233 8.04424C14.2617 7.68269 14.0586 7.19223 14.0586 6.68075C14.0586 6.16927 14.2617 5.67858 14.6233 5.31703C14.985 4.95527 15.4755 4.75214 15.987 4.75214C16.4985 4.75214 16.9889 4.95528 17.3507 5.31703C17.7123 5.67859 17.9154 6.16927 17.9154 6.68075C17.9154 7.19222 17.7122 7.6827 17.3507 8.04424C16.9889 8.406 16.4985 8.60914 15.987 8.60914ZM15.987 5.21753C15.5989 5.21753 15.2268 5.37169 14.9526 5.64609C14.6782 5.92048 14.524 6.29263 14.524 6.68072C14.524 7.06856 14.6782 7.44072 14.9526 7.71513C15.2268 7.98953 15.5989 8.14369 15.987 8.14369C16.3751 8.14369 16.7472 7.98953 17.0214 7.71513C17.2958 7.44073 17.45 7.06859 17.45 6.68072C17.4538 6.29012 17.3013 5.91437 17.0265 5.63697C16.7519 5.35939 16.3774 5.20332 15.987 5.20332L15.987 5.21753Z" fill="url(#paint18_linear_3240_13257)"/>
<path d="M15.987 8.60914C15.4755 8.60914 14.985 8.40599 14.6233 8.04424C14.2617 7.68269 14.0586 7.19223 14.0586 6.68075C14.0586 6.16927 14.2617 5.67858 14.6233 5.31703C14.985 4.95527 15.4755 4.75214 15.987 4.75214C16.4985 4.75214 16.9889 4.95528 17.3507 5.31703C17.7123 5.67859 17.9154 6.16927 17.9154 6.68075C17.9154 7.19222 17.7122 7.6827 17.3507 8.04424C16.9889 8.406 16.4985 8.60914 15.987 8.60914ZM15.987 5.21753C15.5989 5.21753 15.2268 5.37169 14.9526 5.64609C14.6782 5.92048 14.524 6.29263 14.524 6.68072C14.524 7.06856 14.6782 7.44072 14.9526 7.71513C15.2268 7.98953 15.5989 8.14369 15.987 8.14369C16.3751 8.14369 16.7472 7.98953 17.0214 7.71513C17.2958 7.44073 17.45 7.06859 17.45 6.68072C17.4538 6.29012 17.3013 5.91437 17.0265 5.63697C16.7519 5.35939 16.3774 5.20332 15.987 5.20332L15.987 5.21753Z" fill="black" fill-opacity="0.2"/>
<defs>
<linearGradient id="paint0_linear_3240_13257" x1="16.0081" y1="0.102234" x2="16.0081" y2="19.0833" gradientUnits="userSpaceOnUse">
<stop stop-color="#FF0F0F"/>
<stop offset="1" stop-color="#FF4849"/>
</linearGradient>
<linearGradient id="paint1_linear_3240_13257" x1="15.9844" y1="1.86871" x2="15.9844" y2="17.3161" gradientUnits="userSpaceOnUse">
<stop stop-color="#FF0F0F"/>
<stop offset="1" stop-color="#FF4849"/>
</linearGradient>
<linearGradient id="paint2_linear_3240_13257" x1="15.9804" y1="18.6125" x2="15.9804" y2="21.8663" gradientUnits="userSpaceOnUse">
<stop stop-color="#FF0F0F"/>
<stop offset="1" stop-color="#FF4849"/>
</linearGradient>
<linearGradient id="paint3_linear_3240_13257" x1="15.9895" y1="18.5887" x2="15.9895" y2="20.4841" gradientUnits="userSpaceOnUse">
<stop stop-color="#FF0F0F"/>
<stop offset="1" stop-color="#FF4849"/>
</linearGradient>
<linearGradient id="paint4_linear_3240_13257" x1="15.9861" y1="12.6467" x2="15.9861" y2="16.385" gradientUnits="userSpaceOnUse">
<stop stop-color="#FF0F0F"/>
<stop offset="1" stop-color="#FF4849"/>
</linearGradient>
<linearGradient id="paint5_linear_3240_13257" x1="12.3142" y1="13.8094" x2="12.3142" y2="15.2309" gradientUnits="userSpaceOnUse">
<stop stop-color="#FF0F0F"/>
<stop offset="1" stop-color="#FF4849"/>
</linearGradient>
<linearGradient id="paint6_linear_3240_13257" x1="12.2991" y1="13.3402" x2="12.2991" y2="15.7059" gradientUnits="userSpaceOnUse">
<stop stop-color="#FF0F0F"/>
<stop offset="1" stop-color="#FF4849"/>
</linearGradient>
<linearGradient id="paint7_linear_3240_13257" x1="12.2973" y1="13.8143" x2="12.2973" y2="15.2312" gradientUnits="userSpaceOnUse">
<stop stop-color="#FF0F0F"/>
<stop offset="1" stop-color="#FF4849"/>
</linearGradient>
<linearGradient id="paint8_linear_3240_13257" x1="14.7543" y1="13.8082" x2="14.7543" y2="15.2309" gradientUnits="userSpaceOnUse">
<stop stop-color="#FF0F0F"/>
<stop offset="1" stop-color="#FF4849"/>
</linearGradient>
<linearGradient id="paint9_linear_3240_13257" x1="14.7585" y1="13.3401" x2="14.7585" y2="15.7059" gradientUnits="userSpaceOnUse">
<stop stop-color="#FF0F0F"/>
<stop offset="1" stop-color="#FF4849"/>
</linearGradient>
<linearGradient id="paint10_linear_3240_13257" x1="14.7556" y1="13.8143" x2="14.7556" y2="15.2312" gradientUnits="userSpaceOnUse">
<stop stop-color="#FF0F0F"/>
<stop offset="1" stop-color="#FF4849"/>
</linearGradient>
<linearGradient id="paint11_linear_3240_13257" x1="17.2166" y1="13.8058" x2="17.2166" y2="15.2309" gradientUnits="userSpaceOnUse">
<stop stop-color="#FF0F0F"/>
<stop offset="1" stop-color="#FF4849"/>
</linearGradient>
<linearGradient id="paint12_linear_3240_13257" x1="17.2132" y1="13.3402" x2="17.2132" y2="15.7059" gradientUnits="userSpaceOnUse">
<stop stop-color="#FF0F0F"/>
<stop offset="1" stop-color="#FF4849"/>
</linearGradient>
<linearGradient id="paint13_linear_3240_13257" x1="17.2152" y1="13.813" x2="17.2152" y2="15.2312" gradientUnits="userSpaceOnUse">
<stop stop-color="#FF0F0F"/>
<stop offset="1" stop-color="#FF4849"/>
</linearGradient>
<linearGradient id="paint14_linear_3240_13257" x1="19.6722" y1="13.8082" x2="19.6722" y2="15.2309" gradientUnits="userSpaceOnUse">
<stop stop-color="#FF0F0F"/>
<stop offset="1" stop-color="#FF4849"/>
</linearGradient>
<linearGradient id="paint15_linear_3240_13257" x1="19.675" y1="13.3356" x2="19.675" y2="15.7061" gradientUnits="userSpaceOnUse">
<stop stop-color="#FF0F0F"/>
<stop offset="1" stop-color="#FF4849"/>
</linearGradient>
<linearGradient id="paint16_linear_3240_13257" x1="19.658" y1="13.8143" x2="19.658" y2="15.2312" gradientUnits="userSpaceOnUse">
<stop stop-color="#FF0F0F"/>
<stop offset="1" stop-color="#FF4849"/>
</linearGradient>
<linearGradient id="paint17_linear_3240_13257" x1="15.9818" y1="9.16956" x2="15.9818" y2="13.1311" gradientUnits="userSpaceOnUse">
<stop stop-color="#FF0F0F"/>
<stop offset="1" stop-color="#FF4849"/>
</linearGradient>
<linearGradient id="paint18_linear_3240_13257" x1="15.987" y1="4.75214" x2="15.987" y2="8.60914" gradientUnits="userSpaceOnUse">
<stop stop-color="#FF0F0F"/>
<stop offset="1" stop-color="#FF4849"/>
</linearGradient>
</defs>
</svg>