<svg width="40" height="40" viewBox="0 0 28 24" fill="none" xmlns="http://www.w3.org/2000/svg">
<path fill-rule="evenodd" clip-rule="evenodd" d="M19.9421 12.8555C19.7748 12.8954 19.6068 12.7919 19.5672 12.6246C19.5273 12.4573 19.6308 12.2893 19.7981 12.2497L19.9631 12.2103V12.21C19.9202 12.0353 19.9319 11.8517 19.9962 11.6835C20.0644 11.5124 20.1853 11.3676 20.3412 11.2696C20.4453 11.2043 20.5594 11.157 20.679 11.1294C20.8463 11.0896 21.0142 11.193 21.0541 11.3603C21.0938 11.5277 20.9905 11.6954 20.8232 11.7353C20.7719 11.7471 20.7231 11.7677 20.6788 11.7961C20.6338 11.823 20.5986 11.8635 20.578 11.9119C20.5589 11.9645 20.5566 12.0217 20.571 12.0758C20.5861 12.1318 20.6103 12.185 20.6425 12.2331C20.7547 12.3954 20.9131 12.5203 21.0969 12.5913C21.2736 12.6689 21.4699 12.6901 21.6591 12.6522C21.9078 12.5913 21.9326 12.4817 21.9023 12.3585C21.8853 12.2874 21.8518 12.1931 21.8187 12.0989C21.7793 11.9933 21.7458 11.8858 21.718 11.7766C21.6082 11.3207 21.6688 10.9204 22.4172 10.7405H22.4174C22.7333 10.6729 23.0624 10.7047 23.3597 10.8317C23.5885 10.9248 23.7942 11.0669 23.9622 11.2482L24.2932 11.1684V11.1686C24.4605 11.1288 24.6284 11.2323 24.6683 11.3996C24.708 11.5669 24.6047 11.7346 24.4374 11.7745L24.262 11.8167C24.2974 11.9831 24.2836 12.1564 24.2224 12.3152C24.1543 12.4863 24.0334 12.6312 23.8773 12.7291C23.7737 12.7945 23.6598 12.842 23.5402 12.8695C23.3729 12.9094 23.2049 12.8061 23.1651 12.6388C23.1252 12.4715 23.2285 12.3035 23.3958 12.2637C23.4471 12.2516 23.4959 12.231 23.5402 12.2028C23.5851 12.1757 23.6206 12.1352 23.6411 12.087C23.6602 12.0344 23.6625 11.9772 23.6479 11.9231C23.6331 11.8671 23.6091 11.8139 23.5767 11.7656C23.4641 11.6031 23.3052 11.4784 23.1208 11.4076C22.9441 11.3302 22.748 11.309 22.559 11.3468C22.3183 11.4049 22.2939 11.5124 22.3228 11.6328C22.3397 11.7034 22.373 11.7976 22.4061 11.8915H22.4059C22.4456 11.9973 22.4793 12.1053 22.5068 12.2147C22.6169 12.6725 22.5565 13.0765 21.8007 13.2584V13.2582C21.4847 13.3261 21.1554 13.2941 20.8583 13.167C20.6431 13.0797 20.4482 12.9491 20.2856 12.7832L20.1441 12.807L19.9404 12.856L19.9421 12.8555ZM27.0204 16.1084V16.1082C26.6839 16.3599 26.3109 16.5586 25.9143 16.6977C24.692 17.1102 23.4081 17.3097 22.1183 17.2879C20.8284 17.3099 19.5444 17.1102 18.3221 16.6977C17.9258 16.5586 17.5528 16.3599 17.2163 16.1082V18.0606C17.2163 18.4533 17.7222 18.8382 18.5395 19.143H18.5397C19.6924 19.5283 20.9028 19.7134 22.1183 19.6901C23.3336 19.7134 24.5438 19.5283 25.6967 19.143C26.5144 18.8389 27.0204 18.4536 27.0204 18.0606V16.1068L27.0204 16.1084ZM17.2164 15.0316C17.2164 15.4243 17.7224 15.8092 18.5396 16.114L18.5398 16.1138C19.6925 16.4993 20.9029 16.6844 22.1184 16.6611C23.3337 16.6844 24.5439 16.4993 25.6968 16.1138C26.5145 15.8097 27.0205 15.4244 27.0205 15.0314V13.075C26.684 13.3265 26.311 13.5254 25.9144 13.6645C24.6921 14.0769 23.4082 14.2765 22.1184 14.2544C20.8285 14.2765 19.5445 14.0769 18.3222 13.6645C17.9259 13.5254 17.5529 13.3267 17.2164 13.075L17.2164 15.0316ZM27.6458 12.001C27.6458 11.3203 26.984 10.7333 25.9145 10.3344H25.9143C24.692 9.922 23.4081 9.72248 22.1183 9.74431C21.9614 9.74431 21.8064 9.74685 21.6529 9.75194L20.9027 5.26593V5.26211L20.5765 3.31185V3.30888L20.2232 1.20807C20.1577 0.820864 19.7917 0.55963 19.4043 0.623416L2.15771 3.50843C1.77071 3.57395 1.50949 3.93996 1.57305 4.32738L2.20326 8.08944H1.048C0.655067 8.09008 0.336752 8.40837 0.335938 8.80129V19.5178C0.336574 19.911 0.655078 20.2295 1.048 20.2301H16.5905V21.0912C16.5905 21.7719 17.2522 22.3587 18.3235 22.7575C19.5458 23.17 20.8297 23.3697 22.1194 23.3477C23.4087 23.3695 24.6923 23.1698 25.9139 22.7575C26.9833 22.3587 27.6451 21.7719 27.6451 21.0912L27.6453 11.9995L27.6458 12.001ZM16.591 19.6048H1.04902C1.00131 19.6041 0.962716 19.5655 0.962075 19.5178V8.80236C0.962287 8.77946 0.971617 8.75762 0.987945 8.7415C1.00385 8.72496 1.0259 8.71563 1.0488 8.71563H18.5348C18.5577 8.71563 18.5795 8.72496 18.5954 8.7415C18.6118 8.75762 18.6211 8.77946 18.6213 8.80236V10.2312C18.518 10.2642 18.4181 10.2986 18.3219 10.3344C17.2521 10.7333 16.5907 11.3203 16.5907 12.0009V19.6047L16.591 19.6048ZM17.2164 19.1376C17.5529 19.3891 17.9259 19.588 18.3222 19.7271C19.5445 20.1395 20.8285 20.3391 22.1184 20.317C23.4082 20.3391 24.6921 20.1395 25.9144 19.7271C26.311 19.588 26.684 19.3891 27.0205 19.1376V21.0915C27.0205 21.4842 26.5145 21.869 25.6969 22.1738V22.1736C24.5441 22.5595 23.3337 22.7451 22.1184 22.7224C20.9029 22.7451 19.6925 22.5595 18.5398 22.1736C17.7223 21.8695 17.2166 21.4842 17.2166 21.0912L17.2164 19.1376ZM19.247 10.0562L19.2472 8.80248C19.247 8.40912 18.9285 8.09019 18.5351 8.08954H5.90286L20.3385 5.67448L21.0262 9.78429C20.4272 9.82861 19.8324 9.91916 19.2473 10.0553L19.247 10.0562ZM25.6967 10.9167C24.5438 10.5314 23.3336 10.3463 22.1183 10.3696C20.9028 10.3463 19.6924 10.5314 18.5397 10.9167C17.7222 11.2208 17.2164 11.6065 17.2164 11.9992C17.2164 12.3919 17.7224 12.7768 18.5397 13.0815C19.6924 13.4671 20.9028 13.652 22.1183 13.6289C23.3336 13.652 24.5438 13.4668 25.6967 13.0815C26.5143 12.7775 27.0203 12.3917 27.0203 11.999C27.0203 11.6063 26.5159 11.2208 25.6967 10.9167ZM2.81689 7.9738L2.59317 6.63615L20.0124 3.72231L20.2361 5.05996L2.81689 7.9738ZM2.49011 6.02229L2.18985 4.22662H2.18964C2.18582 4.20351 2.19155 4.17997 2.20512 4.1611C2.21848 4.14223 2.23862 4.12972 2.2611 4.12611L19.5077 1.24094V1.24072C19.5306 1.23712 19.5541 1.24263 19.573 1.2562C19.5919 1.26935 19.6046 1.28971 19.6084 1.31218L19.9091 3.1085L2.49011 6.02229ZM3.24545 17.7686V17.7688C3.16084 17.7714 3.07877 17.7396 3.01791 17.6808C2.95726 17.6219 2.92291 17.5409 2.92291 17.4561C2.92291 17.3715 2.95727 17.2904 3.01791 17.2315C3.07877 17.1726 3.16084 17.1407 3.24545 17.1435H8.61995C8.78875 17.1488 8.92297 17.2871 8.92297 17.4561C8.92297 17.6251 8.78874 17.7635 8.61995 17.7688L3.24545 17.7686ZM12.5419 15.5855L12.5421 15.5857C12.4575 15.5885 12.3754 15.5567 12.3146 15.4977C12.2537 15.4388 12.2193 15.3578 12.2193 15.2732C12.2193 15.1884 12.2537 15.1073 12.3146 15.0484C12.3754 14.9897 12.4575 14.9579 12.5421 14.9604H14.4907C14.5753 14.9579 14.6573 14.9897 14.7182 15.0484C14.7789 15.1073 14.8132 15.1884 14.8132 15.2732C14.8132 15.3578 14.7789 15.4388 14.7182 15.4977C14.6573 15.5567 14.5753 15.5885 14.4907 15.5857L12.5419 15.5855ZM9.44314 15.5855L9.44335 15.5857C9.35874 15.5885 9.27668 15.5567 9.21582 15.4977C9.15517 15.4388 9.12082 15.3578 9.12082 15.2732C9.12082 15.1884 9.15517 15.1073 9.21582 15.0484C9.27668 14.9897 9.35874 14.9579 9.44335 14.9604H11.3919C11.4765 14.9579 11.5586 14.9897 11.6195 15.0484C11.6803 15.1073 11.7145 15.1884 11.7145 15.2732C11.7145 15.3578 11.6803 15.4388 11.6195 15.4977C11.5586 15.5567 11.4765 15.5885 11.3919 15.5857L9.44314 15.5855ZM6.34418 15.5855L6.3444 15.5857C6.17539 15.5804 6.04137 15.442 6.04137 15.2732C6.04137 15.1042 6.17539 14.9657 6.3444 14.9604H8.29336C8.46216 14.9657 8.59638 15.1042 8.59638 15.2732C8.59638 15.442 8.46215 15.5804 8.29336 15.5857L6.34418 15.5855ZM3.24545 15.5855L3.24566 15.5857C3.16105 15.5885 3.07898 15.5567 3.01813 15.4977C2.95748 15.4388 2.92313 15.3578 2.92313 15.2732C2.92313 15.1884 2.95748 15.1073 3.01813 15.0484C3.07898 14.9897 3.16105 14.9579 3.24566 14.9604H5.19424C5.27907 14.9579 5.36113 14.9897 5.42178 15.0484C5.48264 15.1073 5.51699 15.1884 5.51699 15.2732C5.51699 15.3578 5.48264 15.4388 5.42178 15.4977C5.36113 15.5567 5.27907 15.5885 5.19424 15.5857L3.24545 15.5855ZM3.24545 10.1822L5.36091 10.1824C5.53352 10.1824 5.67347 10.3224 5.67347 10.495V12.6102C5.67347 12.7828 5.53352 12.9228 5.36091 12.923H3.24566C3.07284 12.923 2.93289 12.783 2.93289 12.6102V10.4935C2.9331 10.3209 3.07305 10.1809 3.24566 10.1809L3.24545 10.1822ZM5.04789 10.8076V12.2972H3.55824V10.8076H5.04789Z" fill="url(#paint0_linear_3240_13023)"/>
<path fill-rule="evenodd" clip-rule="evenodd" d="M19.9421 12.8555C19.7748 12.8954 19.6068 12.7919 19.5672 12.6246C19.5273 12.4573 19.6308 12.2893 19.7981 12.2497L19.9631 12.2103V12.21C19.9202 12.0353 19.9319 11.8517 19.9962 11.6835C20.0644 11.5124 20.1853 11.3676 20.3412 11.2696C20.4453 11.2043 20.5594 11.157 20.679 11.1294C20.8463 11.0896 21.0142 11.193 21.0541 11.3603C21.0938 11.5277 20.9905 11.6954 20.8232 11.7353C20.7719 11.7471 20.7231 11.7677 20.6788 11.7961C20.6338 11.823 20.5986 11.8635 20.578 11.9119C20.5589 11.9645 20.5566 12.0217 20.571 12.0758C20.5861 12.1318 20.6103 12.185 20.6425 12.2331C20.7547 12.3954 20.9131 12.5203 21.0969 12.5913C21.2736 12.6689 21.4699 12.6901 21.6591 12.6522C21.9078 12.5913 21.9326 12.4817 21.9023 12.3585C21.8853 12.2874 21.8518 12.1931 21.8187 12.0989C21.7793 11.9933 21.7458 11.8858 21.718 11.7766C21.6082 11.3207 21.6688 10.9204 22.4172 10.7405H22.4174C22.7333 10.6729 23.0624 10.7047 23.3597 10.8317C23.5885 10.9248 23.7942 11.0669 23.9622 11.2482L24.2932 11.1684V11.1686C24.4605 11.1288 24.6284 11.2323 24.6683 11.3996C24.708 11.5669 24.6047 11.7346 24.4374 11.7745L24.262 11.8167C24.2974 11.9831 24.2836 12.1564 24.2224 12.3152C24.1543 12.4863 24.0334 12.6312 23.8773 12.7291C23.7737 12.7945 23.6598 12.842 23.5402 12.8695C23.3729 12.9094 23.2049 12.8061 23.1651 12.6388C23.1252 12.4715 23.2285 12.3035 23.3958 12.2637C23.4471 12.2516 23.4959 12.231 23.5402 12.2028C23.5851 12.1757 23.6206 12.1352 23.6411 12.087C23.6602 12.0344 23.6625 11.9772 23.6479 11.9231C23.6331 11.8671 23.6091 11.8139 23.5767 11.7656C23.4641 11.6031 23.3052 11.4784 23.1208 11.4076C22.9441 11.3302 22.748 11.309 22.559 11.3468C22.3183 11.4049 22.2939 11.5124 22.3228 11.6328C22.3397 11.7034 22.373 11.7976 22.4061 11.8915H22.4059C22.4456 11.9973 22.4793 12.1053 22.5068 12.2147C22.6169 12.6725 22.5565 13.0765 21.8007 13.2584V13.2582C21.4847 13.3261 21.1554 13.2941 20.8583 13.167C20.6431 13.0797 20.4482 12.9491 20.2856 12.7832L20.1441 12.807L19.9404 12.856L19.9421 12.8555ZM27.0204 16.1084V16.1082C26.6839 16.3599 26.3109 16.5586 25.9143 16.6977C24.692 17.1102 23.4081 17.3097 22.1183 17.2879C20.8284 17.3099 19.5444 17.1102 18.3221 16.6977C17.9258 16.5586 17.5528 16.3599 17.2163 16.1082V18.0606C17.2163 18.4533 17.7222 18.8382 18.5395 19.143H18.5397C19.6924 19.5283 20.9028 19.7134 22.1183 19.6901C23.3336 19.7134 24.5438 19.5283 25.6967 19.143C26.5144 18.8389 27.0204 18.4536 27.0204 18.0606V16.1068L27.0204 16.1084ZM17.2164 15.0316C17.2164 15.4243 17.7224 15.8092 18.5396 16.114L18.5398 16.1138C19.6925 16.4993 20.9029 16.6844 22.1184 16.6611C23.3337 16.6844 24.5439 16.4993 25.6968 16.1138C26.5145 15.8097 27.0205 15.4244 27.0205 15.0314V13.075C26.684 13.3265 26.311 13.5254 25.9144 13.6645C24.6921 14.0769 23.4082 14.2765 22.1184 14.2544C20.8285 14.2765 19.5445 14.0769 18.3222 13.6645C17.9259 13.5254 17.5529 13.3267 17.2164 13.075L17.2164 15.0316ZM27.6458 12.001C27.6458 11.3203 26.984 10.7333 25.9145 10.3344H25.9143C24.692 9.922 23.4081 9.72248 22.1183 9.74431C21.9614 9.74431 21.8064 9.74685 21.6529 9.75194L20.9027 5.26593V5.26211L20.5765 3.31185V3.30888L20.2232 1.20807C20.1577 0.820864 19.7917 0.55963 19.4043 0.623416L2.15771 3.50843C1.77071 3.57395 1.50949 3.93996 1.57305 4.32738L2.20326 8.08944H1.048C0.655067 8.09008 0.336752 8.40837 0.335938 8.80129V19.5178C0.336574 19.911 0.655078 20.2295 1.048 20.2301H16.5905V21.0912C16.5905 21.7719 17.2522 22.3587 18.3235 22.7575C19.5458 23.17 20.8297 23.3697 22.1194 23.3477C23.4087 23.3695 24.6923 23.1698 25.9139 22.7575C26.9833 22.3587 27.6451 21.7719 27.6451 21.0912L27.6453 11.9995L27.6458 12.001ZM16.591 19.6048H1.04902C1.00131 19.6041 0.962716 19.5655 0.962075 19.5178V8.80236C0.962287 8.77946 0.971617 8.75762 0.987945 8.7415C1.00385 8.72496 1.0259 8.71563 1.0488 8.71563H18.5348C18.5577 8.71563 18.5795 8.72496 18.5954 8.7415C18.6118 8.75762 18.6211 8.77946 18.6213 8.80236V10.2312C18.518 10.2642 18.4181 10.2986 18.3219 10.3344C17.2521 10.7333 16.5907 11.3203 16.5907 12.0009V19.6047L16.591 19.6048ZM17.2164 19.1376C17.5529 19.3891 17.9259 19.588 18.3222 19.7271C19.5445 20.1395 20.8285 20.3391 22.1184 20.317C23.4082 20.3391 24.6921 20.1395 25.9144 19.7271C26.311 19.588 26.684 19.3891 27.0205 19.1376V21.0915C27.0205 21.4842 26.5145 21.869 25.6969 22.1738V22.1736C24.5441 22.5595 23.3337 22.7451 22.1184 22.7224C20.9029 22.7451 19.6925 22.5595 18.5398 22.1736C17.7223 21.8695 17.2166 21.4842 17.2166 21.0912L17.2164 19.1376ZM19.247 10.0562L19.2472 8.80248C19.247 8.40912 18.9285 8.09019 18.5351 8.08954H5.90286L20.3385 5.67448L21.0262 9.78429C20.4272 9.82861 19.8324 9.91916 19.2473 10.0553L19.247 10.0562ZM25.6967 10.9167C24.5438 10.5314 23.3336 10.3463 22.1183 10.3696C20.9028 10.3463 19.6924 10.5314 18.5397 10.9167C17.7222 11.2208 17.2164 11.6065 17.2164 11.9992C17.2164 12.3919 17.7224 12.7768 18.5397 13.0815C19.6924 13.4671 20.9028 13.652 22.1183 13.6289C23.3336 13.652 24.5438 13.4668 25.6967 13.0815C26.5143 12.7775 27.0203 12.3917 27.0203 11.999C27.0203 11.6063 26.5159 11.2208 25.6967 10.9167ZM2.81689 7.9738L2.59317 6.63615L20.0124 3.72231L20.2361 5.05996L2.81689 7.9738ZM2.49011 6.02229L2.18985 4.22662H2.18964C2.18582 4.20351 2.19155 4.17997 2.20512 4.1611C2.21848 4.14223 2.23862 4.12972 2.2611 4.12611L19.5077 1.24094V1.24072C19.5306 1.23712 19.5541 1.24263 19.573 1.2562C19.5919 1.26935 19.6046 1.28971 19.6084 1.31218L19.9091 3.1085L2.49011 6.02229ZM3.24545 17.7686V17.7688C3.16084 17.7714 3.07877 17.7396 3.01791 17.6808C2.95726 17.6219 2.92291 17.5409 2.92291 17.4561C2.92291 17.3715 2.95727 17.2904 3.01791 17.2315C3.07877 17.1726 3.16084 17.1407 3.24545 17.1435H8.61995C8.78875 17.1488 8.92297 17.2871 8.92297 17.4561C8.92297 17.6251 8.78874 17.7635 8.61995 17.7688L3.24545 17.7686ZM12.5419 15.5855L12.5421 15.5857C12.4575 15.5885 12.3754 15.5567 12.3146 15.4977C12.2537 15.4388 12.2193 15.3578 12.2193 15.2732C12.2193 15.1884 12.2537 15.1073 12.3146 15.0484C12.3754 14.9897 12.4575 14.9579 12.5421 14.9604H14.4907C14.5753 14.9579 14.6573 14.9897 14.7182 15.0484C14.7789 15.1073 14.8132 15.1884 14.8132 15.2732C14.8132 15.3578 14.7789 15.4388 14.7182 15.4977C14.6573 15.5567 14.5753 15.5885 14.4907 15.5857L12.5419 15.5855ZM9.44314 15.5855L9.44335 15.5857C9.35874 15.5885 9.27668 15.5567 9.21582 15.4977C9.15517 15.4388 9.12082 15.3578 9.12082 15.2732C9.12082 15.1884 9.15517 15.1073 9.21582 15.0484C9.27668 14.9897 9.35874 14.9579 9.44335 14.9604H11.3919C11.4765 14.9579 11.5586 14.9897 11.6195 15.0484C11.6803 15.1073 11.7145 15.1884 11.7145 15.2732C11.7145 15.3578 11.6803 15.4388 11.6195 15.4977C11.5586 15.5567 11.4765 15.5885 11.3919 15.5857L9.44314 15.5855ZM6.34418 15.5855L6.3444 15.5857C6.17539 15.5804 6.04137 15.442 6.04137 15.2732C6.04137 15.1042 6.17539 14.9657 6.3444 14.9604H8.29336C8.46216 14.9657 8.59638 15.1042 8.59638 15.2732C8.59638 15.442 8.46215 15.5804 8.29336 15.5857L6.34418 15.5855ZM3.24545 15.5855L3.24566 15.5857C3.16105 15.5885 3.07898 15.5567 3.01813 15.4977C2.95748 15.4388 2.92313 15.3578 2.92313 15.2732C2.92313 15.1884 2.95748 15.1073 3.01813 15.0484C3.07898 14.9897 3.16105 14.9579 3.24566 14.9604H5.19424C5.27907 14.9579 5.36113 14.9897 5.42178 15.0484C5.48264 15.1073 5.51699 15.1884 5.51699 15.2732C5.51699 15.3578 5.48264 15.4388 5.42178 15.4977C5.36113 15.5567 5.27907 15.5885 5.19424 15.5857L3.24545 15.5855ZM3.24545 10.1822L5.36091 10.1824C5.53352 10.1824 5.67347 10.3224 5.67347 10.495V12.6102C5.67347 12.7828 5.53352 12.9228 5.36091 12.923H3.24566C3.07284 12.923 2.93289 12.783 2.93289 12.6102V10.4935C2.9331 10.3209 3.07305 10.1809 3.24566 10.1809L3.24545 10.1822ZM5.04789 10.8076V12.2972H3.55824V10.8076H5.04789Z" fill="black" fill-opacity="0.2"/>
<defs>
<linearGradient id="paint0_linear_3240_13023" x1="13.9909" y1="0.613831" x2="13.9909" y2="23.3493" gradientUnits="userSpaceOnUse">
<stop stop-color="#FF0F0F"/>
<stop offset="1" stop-color="#FF4849"/>
</linearGradient>
</defs>
</svg>