<svg width="38" height="38" viewBox="0 0 36 34" fill="none" xmlns="http://www.w3.org/2000/svg">
<path d="M35.125 0.570312H0.839286C0.444757 0.570312 0.125 0.89007 0.125 1.2846V25.5703C0.125 25.7598 0.200336 25.9414 0.334264 26.0753C0.468193 26.2093 0.649836 26.2846 0.839286 26.2846H14.2536L13.1107 31.9989H10.8392V33.4275H25.1249V31.9989H22.8534L21.7106 26.2846H35.1249C35.3143 26.2846 35.496 26.2093 35.6299 26.0753C35.7638 25.9414 35.8391 25.7598 35.8391 25.5703V1.2846C35.8391 1.09515 35.7638 0.913505 35.6299 0.779577C35.496 0.645648 35.3143 0.570312 35.1249 0.570312H35.125ZM34.4107 1.99888V21.9989H1.55357V1.99888H34.4107ZM21.3964 31.9989H14.5677L15.7106 26.2846H20.2536L21.3964 31.9989ZM20.8392 24.856H1.55351V23.4275H34.4107V24.856H20.8392Z" fill="#CC1212"/>
<path d="M9.41155 17.7143H10.1258V19.8571H11.5544V17.7143H12.2687C12.4581 17.7143 12.6398 17.639 12.7737 17.505C12.9076 17.3711 12.983 17.1895 12.983 17V9.85714C12.983 9.66769 12.9076 9.48605 12.7737 9.35212C12.6398 9.21819 12.4581 9.14286 12.2687 9.14286H11.5544V7H10.1258V9.14286H9.41155C9.01702 9.14286 8.69727 9.46261 8.69727 9.85714V17C8.69727 17.1895 8.7726 17.3711 8.90653 17.505C9.04046 17.639 9.2221 17.7143 9.41155 17.7143ZM10.1258 10.5714H11.5544V16.2857H10.1258V10.5714Z" fill="#CC1212"/>
<path d="M16.5541 14.8549H17.2299L17.2684 17.0106L18.697 16.9849L18.6585 14.8549H19.4113C19.6007 14.8549 19.7824 14.7796 19.9163 14.6456C20.0502 14.5117 20.1256 14.3301 20.1256 14.1406V6.99777C20.1256 6.80832 20.0502 6.62667 19.9163 6.49275C19.7824 6.35882 19.6007 6.28348 19.4113 6.28348H18.697V4.14062H17.2684V6.28348H16.5541C16.1596 6.28348 15.8398 6.60324 15.8398 6.99777V14.1406C15.8398 14.3301 15.9152 14.5117 16.0491 14.6456C16.183 14.7796 16.3647 14.8549 16.5541 14.8549ZM17.2684 7.71201H18.697V13.4263H17.2684V7.71201Z" fill="#CC1212"/>
<path d="M23.6967 17.7143H24.411V19.8571H25.8396V17.7143H26.5539C26.7433 17.7143 26.9249 17.639 27.0589 17.505C27.1928 17.3711 27.2681 17.1895 27.2681 17V9.85714C27.2681 9.66769 27.1928 9.48605 27.0589 9.35212C26.9249 9.21819 26.7433 9.14286 26.5539 9.14286H25.8396V7H24.411V9.14286H23.6967C23.3022 9.14286 22.9824 9.46261 22.9824 9.85714V17C22.9824 17.1895 23.0578 17.3711 23.1917 17.505C23.3256 17.639 23.5073 17.7143 23.6967 17.7143ZM24.411 10.5714H25.8396V16.2857H24.411V10.5714Z" fill="#CC1212"/>
</svg>