<svg width="38" height="38" viewBox="0 0 22 30" fill="none" xmlns="http://www.w3.org/2000/svg">
<path d="M19.4502 13.3719C18.7206 14.6487 17.9606 15.956 17.3831 16.959C17.3223 17.0805 17.2311 17.1719 17.1702 17.2934C17.7782 17.263 18.3861 17.2022 18.9638 17.1413C19.1158 17.7798 19.2373 18.4484 19.2373 19.1478C19.2373 19.8469 19.1461 20.5157 18.9638 21.1542C17.839 21.0327 16.6534 20.9413 15.4373 20.8807C15.4676 20.303 15.4982 19.7254 15.4982 19.1478V18.3574C15.2853 18.4183 15.0726 18.4486 14.8597 18.4486C14.3429 18.4486 13.8565 18.3271 13.4309 18.0839C13.4612 18.4486 13.4612 18.8135 13.4612 19.1783C13.4612 19.7559 13.4309 20.303 13.4003 20.8198C11.8195 20.7894 10.178 20.7894 8.59712 20.8198C8.5668 20.303 8.53626 19.7557 8.53626 19.1783C8.53626 18.6006 8.56659 18.0535 8.59712 17.5368C9.38747 17.5671 10.178 17.5671 10.9683 17.5671C11.546 17.5671 12.1236 17.5671 12.7012 17.5368C12.5492 17.3847 12.3971 17.2024 12.306 16.9897C12.0627 16.5641 11.7589 16.0473 11.4548 15.5305C10.5733 15.5305 9.69157 15.5305 8.84037 15.5002C9.05327 14.2538 9.38746 13.2202 9.72186 12.4906C8.9922 11.2138 8.35391 10.0585 8.08037 9.51142C8.05004 9.45056 8.01951 9.42023 8.01951 9.35938C3.79391 10.6362 0.753906 14.5579 0.753906 19.1786C0.753906 24.833 5.34425 29.4234 10.9987 29.4234C16.6531 29.4234 21.2435 24.8025 21.2435 19.1786C21.2439 17.0198 20.5751 15.0134 19.4504 13.3722L19.4502 13.3719ZM3.03421 21.1847C2.88217 20.5462 2.79098 19.8776 2.79098 19.1782C2.79098 18.4791 2.88217 17.8103 3.03421 17.1718C4.15896 17.2933 5.34456 17.3847 6.56067 17.4453C6.53034 18.023 6.49981 18.6006 6.49981 19.1782C6.49981 19.7559 6.53013 20.3335 6.56067 20.8806C5.34456 20.972 4.15896 21.0632 3.03421 21.1847ZM3.79421 23.1303C4.73656 23.0391 5.73981 22.9782 6.77336 22.9174C7.01658 24.3765 7.3813 25.6838 7.86776 26.7782C6.16541 26.0791 4.70605 24.772 3.79421 23.1303ZM6.8037 15.4391C5.77016 15.3782 4.7669 15.3176 3.82456 15.2262C4.73661 13.5847 6.16541 12.3076 7.92867 11.5782C7.41189 12.6423 7.01661 13.9799 6.8037 15.4391ZM10.999 27.3863C10.3604 27.3863 9.35747 25.7142 8.84045 22.8263C10.2692 22.7959 11.7284 22.7959 13.1572 22.8263C12.6405 25.7142 11.6375 27.3863 10.999 27.3863ZM14.0998 26.7783C14.5863 25.7142 14.9813 24.3768 15.1942 22.9175C16.2278 22.9783 17.231 23.039 18.1734 23.1304C17.2919 24.7719 15.8325 26.079 14.0998 26.7783Z" fill="url(#paint0_linear_3819_28498)"/>
<path d="M19.4502 13.3719C18.7206 14.6487 17.9606 15.956 17.3831 16.959C17.3223 17.0805 17.2311 17.1719 17.1702 17.2934C17.7782 17.263 18.3861 17.2022 18.9638 17.1413C19.1158 17.7798 19.2373 18.4484 19.2373 19.1478C19.2373 19.8469 19.1461 20.5157 18.9638 21.1542C17.839 21.0327 16.6534 20.9413 15.4373 20.8807C15.4676 20.303 15.4982 19.7254 15.4982 19.1478V18.3574C15.2853 18.4183 15.0726 18.4486 14.8597 18.4486C14.3429 18.4486 13.8565 18.3271 13.4309 18.0839C13.4612 18.4486 13.4612 18.8135 13.4612 19.1783C13.4612 19.7559 13.4309 20.303 13.4003 20.8198C11.8195 20.7894 10.178 20.7894 8.59712 20.8198C8.5668 20.303 8.53626 19.7557 8.53626 19.1783C8.53626 18.6006 8.56659 18.0535 8.59712 17.5368C9.38747 17.5671 10.178 17.5671 10.9683 17.5671C11.546 17.5671 12.1236 17.5671 12.7012 17.5368C12.5492 17.3847 12.3971 17.2024 12.306 16.9897C12.0627 16.5641 11.7589 16.0473 11.4548 15.5305C10.5733 15.5305 9.69157 15.5305 8.84037 15.5002C9.05327 14.2538 9.38746 13.2202 9.72186 12.4906C8.9922 11.2138 8.35391 10.0585 8.08037 9.51142C8.05004 9.45056 8.01951 9.42023 8.01951 9.35938C3.79391 10.6362 0.753906 14.5579 0.753906 19.1786C0.753906 24.833 5.34425 29.4234 10.9987 29.4234C16.6531 29.4234 21.2435 24.8025 21.2435 19.1786C21.2439 17.0198 20.5751 15.0134 19.4504 13.3722L19.4502 13.3719ZM3.03421 21.1847C2.88217 20.5462 2.79098 19.8776 2.79098 19.1782C2.79098 18.4791 2.88217 17.8103 3.03421 17.1718C4.15896 17.2933 5.34456 17.3847 6.56067 17.4453C6.53034 18.023 6.49981 18.6006 6.49981 19.1782C6.49981 19.7559 6.53013 20.3335 6.56067 20.8806C5.34456 20.972 4.15896 21.0632 3.03421 21.1847ZM3.79421 23.1303C4.73656 23.0391 5.73981 22.9782 6.77336 22.9174C7.01658 24.3765 7.3813 25.6838 7.86776 26.7782C6.16541 26.0791 4.70605 24.772 3.79421 23.1303ZM6.8037 15.4391C5.77016 15.3782 4.7669 15.3176 3.82456 15.2262C4.73661 13.5847 6.16541 12.3076 7.92867 11.5782C7.41189 12.6423 7.01661 13.9799 6.8037 15.4391ZM10.999 27.3863C10.3604 27.3863 9.35747 25.7142 8.84045 22.8263C10.2692 22.7959 11.7284 22.7959 13.1572 22.8263C12.6405 25.7142 11.6375 27.3863 10.999 27.3863ZM14.0998 26.7783C14.5863 25.7142 14.9813 24.3768 15.1942 22.9175C16.2278 22.9783 17.231 23.039 18.1734 23.1304C17.2919 24.7719 15.8325 26.079 14.0998 26.7783Z" fill="black" fill-opacity="0.2"/>
<path d="M14.0695 15.9866C14.4039 16.5945 15.2853 16.5945 15.6198 15.9866C16.8357 13.8281 19.1766 9.75458 19.8151 8.59938C20.6663 7.04903 20.6359 5.22498 19.8151 3.61378C18.4471 0.877887 15.103 -0.216567 12.3671 1.15143C9.63117 2.51916 8.56706 5.95447 9.90471 8.59943C10.4824 9.75469 12.8535 13.8282 14.0695 15.9866ZM14.86 3.67458C16.1976 3.67458 17.2615 4.73869 17.2615 6.07607C17.2615 7.41372 16.1973 8.47756 14.86 8.47756C13.5223 8.47756 12.4585 7.41345 12.4585 6.07607C12.4583 4.76898 13.5527 3.67458 14.86 3.67458Z" fill="url(#paint1_linear_3819_28498)"/>
<path d="M14.0695 15.9866C14.4039 16.5945 15.2853 16.5945 15.6198 15.9866C16.8357 13.8281 19.1766 9.75458 19.8151 8.59938C20.6663 7.04903 20.6359 5.22498 19.8151 3.61378C18.4471 0.877887 15.103 -0.216567 12.3671 1.15143C9.63117 2.51916 8.56706 5.95447 9.90471 8.59943C10.4824 9.75469 12.8535 13.8282 14.0695 15.9866ZM14.86 3.67458C16.1976 3.67458 17.2615 4.73869 17.2615 6.07607C17.2615 7.41372 16.1973 8.47756 14.86 8.47756C13.5223 8.47756 12.4585 7.41345 12.4585 6.07607C12.4583 4.76898 13.5527 3.67458 14.86 3.67458Z" fill="black" fill-opacity="0.2"/>
<defs>
<linearGradient id="paint0_linear_3819_28498" x1="10.9987" y1="9.35937" x2="10.9987" y2="29.4234" gradientUnits="userSpaceOnUse">
<stop stop-color="#FF0F0F"/>
<stop offset="1" stop-color="#FF4849"/>
</linearGradient>
<linearGradient id="paint1_linear_3819_28498" x1="14.8856" y1="0.5625" x2="14.8856" y2="16.4425" gradientUnits="userSpaceOnUse">
<stop stop-color="#FF0F0F"/>
<stop offset="1" stop-color="#FF4849"/>
</linearGradient>
</defs>
</svg>