<svg width="38" height="38" viewBox="0 0 38 38" fill="none" xmlns="http://www.w3.org/2000/svg">
<path d="M32.9711 4.79968C32.914 4.77529 32.8528 4.76257 32.7906 4.76172H5.24062C4.97832 4.76172 4.76562 4.97441 4.76562 5.23672V32.7867C4.76562 32.9127 4.81567 33.0336 4.90473 33.1226C4.99379 33.2117 5.11467 33.2617 5.24062 33.2617H32.7906C32.9166 33.2617 33.0375 33.2117 33.1265 33.1226C33.2156 33.0335 33.2656 32.9127 33.2656 32.7867V5.23672C33.2646 5.04503 33.1486 4.87263 32.9711 4.79968ZM31.646 5.71173L5.71585 31.6418V5.71173H31.646ZM6.3852 32.3117L32.3153 6.38162V32.3117H6.3852Z" fill="url(#paint0_linear_3369_11349)"/>
<path d="M32.9711 4.79968C32.914 4.77529 32.8528 4.76257 32.7906 4.76172H5.24062C4.97832 4.76172 4.76562 4.97441 4.76562 5.23672V32.7867C4.76562 32.9127 4.81567 33.0336 4.90473 33.1226C4.99379 33.2117 5.11467 33.2617 5.24062 33.2617H32.7906C32.9166 33.2617 33.0375 33.2117 33.1265 33.1226C33.2156 33.0335 33.2656 32.9127 33.2656 32.7867V5.23672C33.2646 5.04503 33.1486 4.87263 32.9711 4.79968ZM31.646 5.71173L5.71585 31.6418V5.71173H31.646ZM6.3852 32.3117L32.3153 6.38162V32.3117H6.3852Z" fill="black" fill-opacity="0.2"/>
<path d="M29.7051 26.9284C28.4273 27.2583 27.0695 27.0418 25.9577 26.3306C24.846 25.6193 24.08 24.4776 23.844 23.179C23.6077 21.8804 23.9226 20.5421 24.713 19.485C24.8279 19.3271 24.8345 19.115 24.7295 18.9502C24.6248 18.7857 24.4297 18.7019 24.238 18.7392C22.4417 19.1916 20.9772 20.4885 20.3112 22.2167C19.6449 23.9452 19.8601 25.8895 20.8882 27.4303C21.9162 28.9711 23.6289 29.9164 25.4806 29.9648C27.3323 30.0133 29.0919 29.159 30.1993 27.6742C30.3142 27.5162 30.3208 27.3042 30.2158 27.1394C30.111 26.9746 29.9159 26.8909 29.7242 26.9284L29.7051 26.9284ZM25.663 28.9851C24.2647 28.9843 22.9379 28.3674 22.036 27.2989C21.1342 26.2305 20.7489 24.8189 20.9828 23.4404C21.2167 22.062 22.0462 20.8565 23.2501 20.1455C22.9598 20.8389 22.8113 21.5834 22.813 22.3352C22.813 23.8469 23.4135 25.2967 24.4825 26.3656C25.5515 27.4346 27.0013 28.0352 28.513 28.0352C27.6926 28.6552 26.6915 28.989 25.663 28.9852L25.663 28.9851Z" fill="url(#paint1_linear_3369_11349)"/>
<path d="M29.7051 26.9284C28.4273 27.2583 27.0695 27.0418 25.9577 26.3306C24.846 25.6193 24.08 24.4776 23.844 23.179C23.6077 21.8804 23.9226 20.5421 24.713 19.485C24.8279 19.3271 24.8345 19.115 24.7295 18.9502C24.6248 18.7857 24.4297 18.7019 24.238 18.7392C22.4417 19.1916 20.9772 20.4885 20.3112 22.2167C19.6449 23.9452 19.8601 25.8895 20.8882 27.4303C21.9162 28.9711 23.6289 29.9164 25.4806 29.9648C27.3323 30.0133 29.0919 29.159 30.1993 27.6742C30.3142 27.5162 30.3208 27.3042 30.2158 27.1394C30.111 26.9746 29.9159 26.8909 29.7242 26.9284L29.7051 26.9284ZM25.663 28.9851C24.2647 28.9843 22.9379 28.3674 22.036 27.2989C21.1342 26.2305 20.7489 24.8189 20.9828 23.4404C21.2167 22.062 22.0462 20.8565 23.2501 20.1455C22.9598 20.8389 22.8113 21.5834 22.813 22.3352C22.813 23.8469 23.4135 25.2967 24.4825 26.3656C25.5515 27.4346 27.0013 28.0352 28.513 28.0352C27.6926 28.6552 26.6915 28.989 25.663 28.9852L25.663 28.9851Z" fill="black" fill-opacity="0.2"/>
<path d="M13.3125 15.6875C13.9423 15.6875 14.5464 15.4373 14.992 14.992C15.4373 14.5465 15.6875 13.9423 15.6875 13.3125C15.6875 12.6827 15.4373 12.0786 14.992 11.633C14.5465 11.1877 13.9423 10.9375 13.3125 10.9375C12.6827 10.9375 12.0786 11.1877 11.633 11.633C11.1877 12.0785 10.9375 12.6827 10.9375 13.3125C10.9375 13.9423 11.1877 14.5464 11.633 14.992C12.0785 15.4373 12.6827 15.6875 13.3125 15.6875ZM13.3125 11.8875C13.6904 11.8875 14.053 12.0376 14.3202 12.3048C14.5873 12.572 14.7375 12.9346 14.7375 13.3125C14.7375 13.6903 14.5873 14.053 14.3202 14.3201C14.053 14.5873 13.6903 14.7374 13.3125 14.7374C12.9347 14.7374 12.572 14.5873 12.3048 14.3201C12.0377 14.0529 11.8875 13.6903 11.8875 13.3125C11.8875 12.9346 12.0377 12.572 12.3048 12.3048C12.572 12.0377 12.9347 11.8875 13.3125 11.8875Z" fill="url(#paint2_linear_3369_11349)"/>
<path d="M13.3125 15.6875C13.9423 15.6875 14.5464 15.4373 14.992 14.992C15.4373 14.5465 15.6875 13.9423 15.6875 13.3125C15.6875 12.6827 15.4373 12.0786 14.992 11.633C14.5465 11.1877 13.9423 10.9375 13.3125 10.9375C12.6827 10.9375 12.0786 11.1877 11.633 11.633C11.1877 12.0785 10.9375 12.6827 10.9375 13.3125C10.9375 13.9423 11.1877 14.5464 11.633 14.992C12.0785 15.4373 12.6827 15.6875 13.3125 15.6875ZM13.3125 11.8875C13.6904 11.8875 14.053 12.0376 14.3202 12.3048C14.5873 12.572 14.7375 12.9346 14.7375 13.3125C14.7375 13.6903 14.5873 14.053 14.3202 14.3201C14.053 14.5873 13.6903 14.7374 13.3125 14.7374C12.9347 14.7374 12.572 14.5873 12.3048 14.3201C12.0377 14.0529 11.8875 13.6903 11.8875 13.3125C11.8875 12.9346 12.0377 12.572 12.3048 12.3048C12.572 12.0377 12.9347 11.8875 13.3125 11.8875Z" fill="black" fill-opacity="0.2"/>
<path d="M13.3188 9.98828C13.4447 9.98828 13.5656 9.93824 13.6546 9.84917C13.7437 9.76011 13.7938 9.63924 13.7938 9.51328V8.08828C13.7938 7.82597 13.5811 7.61328 13.3188 7.61328C13.0564 7.61328 12.8438 7.82597 12.8438 8.08828V9.51328C12.8438 9.63924 12.8938 9.76011 12.9829 9.84917C13.0719 9.93824 13.1928 9.98828 13.3188 9.98828Z" fill="url(#paint3_linear_3369_11349)"/>
<path d="M13.3188 9.98828C13.4447 9.98828 13.5656 9.93824 13.6546 9.84917C13.7437 9.76011 13.7938 9.63924 13.7938 9.51328V8.08828C13.7938 7.82597 13.5811 7.61328 13.3188 7.61328C13.0564 7.61328 12.8438 7.82597 12.8438 8.08828V9.51328C12.8438 9.63924 12.8938 9.76011 12.9829 9.84917C13.0719 9.93824 13.1928 9.98828 13.3188 9.98828Z" fill="black" fill-opacity="0.2"/>
<path d="M10.2932 10.9355C10.4815 11.0969 10.7624 11.086 10.938 10.9107C11.1134 10.7351 11.1242 10.4541 10.9628 10.2658L9.95577 9.25876C9.76725 9.09738 9.4865 9.1082 9.31091 9.28357C9.13554 9.45915 9.12473 9.7399 9.2861 9.92843L10.2932 10.9355Z" fill="url(#paint4_linear_3369_11349)"/>
<path d="M10.2932 10.9355C10.4815 11.0969 10.7624 11.086 10.938 10.9107C11.1134 10.7351 11.1242 10.4541 10.9628 10.2658L9.95577 9.25876C9.76725 9.09738 9.4865 9.1082 9.31091 9.28357C9.13554 9.45915 9.12473 9.7399 9.2861 9.92843L10.2932 10.9355Z" fill="black" fill-opacity="0.2"/>
<path d="M8.09219 13.7859H9.51719C9.7795 13.7859 9.99219 13.5732 9.99219 13.3109C9.99219 13.0486 9.7795 12.8359 9.51719 12.8359H8.09219C7.82988 12.8359 7.61719 13.0486 7.61719 13.3109C7.61719 13.5732 7.82988 13.7859 8.09219 13.7859Z" fill="url(#paint5_linear_3369_11349)"/>
<path d="M8.09219 13.7859H9.51719C9.7795 13.7859 9.99219 13.5732 9.99219 13.3109C9.99219 13.0486 9.7795 12.8359 9.51719 12.8359H8.09219C7.82988 12.8359 7.61719 13.0486 7.61719 13.3109C7.61719 13.5732 7.82988 13.7859 8.09219 13.7859Z" fill="black" fill-opacity="0.2"/>
<path d="M10.2982 15.6885L9.29118 16.6955C9.19066 16.7816 9.13065 16.9057 9.12535 17.038C9.12026 17.1701 9.17073 17.2986 9.26425 17.3921C9.35776 17.4856 9.48626 17.5361 9.61837 17.531C9.7507 17.5257 9.87475 17.4657 9.96084 17.3652L10.9679 16.3581C11.1293 16.1698 11.1185 15.8888 10.9431 15.7133C10.7675 15.5379 10.4865 15.5271 10.2982 15.6885Z" fill="url(#paint6_linear_3369_11349)"/>
<path d="M10.2982 15.6885L9.29118 16.6955C9.19066 16.7816 9.13065 16.9057 9.12535 17.038C9.12026 17.1701 9.17073 17.2986 9.26425 17.3921C9.35776 17.4856 9.48626 17.5361 9.61837 17.531C9.7507 17.5257 9.87475 17.4657 9.96084 17.3652L10.9679 16.3581C11.1293 16.1698 11.1185 15.8888 10.9431 15.7133C10.7675 15.5379 10.4865 15.5271 10.2982 15.6885Z" fill="black" fill-opacity="0.2"/>
<path d="M13.3188 16.6367C13.0564 16.6367 12.8438 16.8494 12.8438 17.1117V18.5367C12.8438 18.799 13.0564 19.0117 13.3188 19.0117C13.5811 19.0117 13.7938 18.799 13.7938 18.5367V17.1117C13.7938 16.9858 13.7437 16.8649 13.6546 16.7758C13.5656 16.6868 13.4447 16.6367 13.3188 16.6367Z" fill="url(#paint7_linear_3369_11349)"/>
<path d="M13.3188 16.6367C13.0564 16.6367 12.8438 16.8494 12.8438 17.1117V18.5367C12.8438 18.799 13.0564 19.0117 13.3188 19.0117C13.5811 19.0117 13.7938 18.799 13.7938 18.5367V17.1117C13.7938 16.9858 13.7437 16.8649 13.6546 16.7758C13.5656 16.6868 13.4447 16.6367 13.3188 16.6367Z" fill="black" fill-opacity="0.2"/>
<path d="M16.3386 15.6884C16.1503 15.5271 15.8693 15.5379 15.6937 15.7133C15.5184 15.8888 15.5075 16.1698 15.6689 16.3581L16.676 17.3652C16.8645 17.5265 17.1452 17.5157 17.3208 17.3404C17.4962 17.1648 17.507 16.884 17.3456 16.6955L16.3386 15.6884Z" fill="url(#paint8_linear_3369_11349)"/>
<path d="M16.3386 15.6884C16.1503 15.5271 15.8693 15.5379 15.6937 15.7133C15.5184 15.8888 15.5075 16.1698 15.6689 16.3581L16.676 17.3652C16.8645 17.5265 17.1452 17.5157 17.3208 17.3404C17.4962 17.1648 17.507 16.884 17.3456 16.6955L16.3386 15.6884Z" fill="black" fill-opacity="0.2"/>
<path d="M16.6406 13.3109C16.6406 13.4369 16.6907 13.5578 16.7797 13.6468C16.8688 13.7359 16.9897 13.7859 17.1156 13.7859H18.5406C18.8029 13.7859 19.0156 13.5732 19.0156 13.3109C19.0156 13.0486 18.8029 12.8359 18.5406 12.8359H17.1156C16.8533 12.8359 16.6406 13.0486 16.6406 13.3109Z" fill="url(#paint9_linear_3369_11349)"/>
<path d="M16.6406 13.3109C16.6406 13.4369 16.6907 13.5578 16.7797 13.6468C16.8688 13.7359 16.9897 13.7859 17.1156 13.7859H18.5406C18.8029 13.7859 19.0156 13.5732 19.0156 13.3109C19.0156 13.0486 18.8029 12.8359 18.5406 12.8359H17.1156C16.8533 12.8359 16.6406 13.0486 16.6406 13.3109Z" fill="black" fill-opacity="0.2"/>
<path d="M16.0042 11.0968C16.1306 11.0974 16.2519 11.0478 16.3416 10.9589L17.3486 9.95187C17.51 9.76335 17.4992 9.48259 17.3236 9.30701C17.1483 9.13164 16.8673 9.12082 16.6788 9.2822L15.6717 10.2893C15.5347 10.425 15.4936 10.6304 15.5676 10.8086C15.6416 10.9867 15.8161 11.1025 16.0091 11.1014L16.0042 11.0968Z" fill="url(#paint10_linear_3369_11349)"/>
<path d="M16.0042 11.0968C16.1306 11.0974 16.2519 11.0478 16.3416 10.9589L17.3486 9.95187C17.51 9.76335 17.4992 9.48259 17.3236 9.30701C17.1483 9.13164 16.8673 9.12082 16.6788 9.2822L15.6717 10.2893C15.5347 10.425 15.4936 10.6304 15.5676 10.8086C15.6416 10.9867 15.8161 11.1025 16.0091 11.1014L16.0042 11.0968Z" fill="black" fill-opacity="0.2"/>
<defs>
<linearGradient id="paint0_linear_3369_11349" x1="19.0156" y1="4.76172" x2="19.0156" y2="33.2617" gradientUnits="userSpaceOnUse">
<stop stop-color="#FF0F0F"/>
<stop offset="1" stop-color="#FF4849"/>
</linearGradient>
<linearGradient id="paint1_linear_3369_11349" x1="25.11" y1="18.7305" x2="25.11" y2="29.9667" gradientUnits="userSpaceOnUse">
<stop stop-color="#FF0F0F"/>
<stop offset="1" stop-color="#FF4849"/>
</linearGradient>
<linearGradient id="paint2_linear_3369_11349" x1="13.3125" y1="10.9375" x2="13.3125" y2="15.6875" gradientUnits="userSpaceOnUse">
<stop stop-color="#FF0F0F"/>
<stop offset="1" stop-color="#FF4849"/>
</linearGradient>
<linearGradient id="paint3_linear_3369_11349" x1="13.3188" y1="7.61328" x2="13.3188" y2="9.98828" gradientUnits="userSpaceOnUse">
<stop stop-color="#FF0F0F"/>
<stop offset="1" stop-color="#FF4849"/>
</linearGradient>
<linearGradient id="paint4_linear_3369_11349" x1="10.1245" y1="9.14453" x2="10.1245" y2="11.0497" gradientUnits="userSpaceOnUse">
<stop stop-color="#FF0F0F"/>
<stop offset="1" stop-color="#FF4849"/>
</linearGradient>
<linearGradient id="paint5_linear_3369_11349" x1="8.80469" y1="12.8359" x2="8.80469" y2="13.7859" gradientUnits="userSpaceOnUse">
<stop stop-color="#FF0F0F"/>
<stop offset="1" stop-color="#FF4849"/>
</linearGradient>
<linearGradient id="paint6_linear_3369_11349" x1="10.1036" y1="15.5742" x2="10.1036" y2="17.5313" gradientUnits="userSpaceOnUse">
<stop stop-color="#FF0F0F"/>
<stop offset="1" stop-color="#FF4849"/>
</linearGradient>
<linearGradient id="paint7_linear_3369_11349" x1="13.3188" y1="16.6367" x2="13.3188" y2="19.0117" gradientUnits="userSpaceOnUse">
<stop stop-color="#FF0F0F"/>
<stop offset="1" stop-color="#FF4849"/>
</linearGradient>
<linearGradient id="paint8_linear_3369_11349" x1="16.5073" y1="15.5742" x2="16.5073" y2="17.4794" gradientUnits="userSpaceOnUse">
<stop stop-color="#FF0F0F"/>
<stop offset="1" stop-color="#FF4849"/>
</linearGradient>
<linearGradient id="paint9_linear_3369_11349" x1="17.8281" y1="12.8359" x2="17.8281" y2="13.7859" gradientUnits="userSpaceOnUse">
<stop stop-color="#FF0F0F"/>
<stop offset="1" stop-color="#FF4849"/>
</linearGradient>
<linearGradient id="paint10_linear_3369_11349" x1="16.497" y1="9.16797" x2="16.497" y2="11.1014" gradientUnits="userSpaceOnUse">
<stop stop-color="#FF0F0F"/>
<stop offset="1" stop-color="#FF4849"/>
</linearGradient>
</defs>
</svg>