<svg width="38" height="38" viewBox="0 0 43 46" fill="none" xmlns="http://www.w3.org/2000/svg">
<path d="M17.9191 34.8281C17.9191 34.6292 17.8401 34.4384 17.6994 34.2978C17.5588 34.1571 17.368 34.0781 17.1691 34.0781H5.91909C5.58527 34.1615 5.35156 34.4615 5.35156 34.8054C5.35156 35.1496 5.58527 35.4492 5.91909 35.5329H17.1914C17.5801 35.5219 17.8958 35.2159 17.9189 34.8281H17.9191Z" fill="url(#paint0_linear_3620_16813)"/>
<path d="M17.9191 34.8281C17.9191 34.6292 17.8401 34.4384 17.6994 34.2978C17.5588 34.1571 17.368 34.0781 17.1691 34.0781H5.91909C5.58527 34.1615 5.35156 34.4615 5.35156 34.8054C5.35156 35.1496 5.58527 35.4492 5.91909 35.5329H17.1914C17.5801 35.5219 17.8958 35.2159 17.9189 34.8281H17.9191Z" fill="black" fill-opacity="0.2"/>
<path d="M21.4135 30.375C21.4135 30.1761 21.3344 29.9853 21.1938 29.8446C21.0532 29.704 20.8623 29.625 20.6635 29.625H5.90346C5.56998 29.7087 5.33594 30.0084 5.33594 30.3526C5.33594 30.6964 5.56998 30.9964 5.90346 31.0801H20.6935C21.0792 31.0654 21.3906 30.7604 21.4133 30.375H21.4135Z" fill="url(#paint1_linear_3620_16813)"/>
<path d="M21.4135 30.375C21.4135 30.1761 21.3344 29.9853 21.1938 29.8446C21.0532 29.704 20.8623 29.625 20.6635 29.625H5.90346C5.56998 29.7087 5.33594 30.0084 5.33594 30.3526C5.33594 30.6964 5.56998 30.9964 5.90346 31.0801H20.6935C21.0792 31.0654 21.3906 30.7604 21.4133 30.375H21.4135Z" fill="black" fill-opacity="0.2"/>
<path d="M5.90346 38.543C5.56998 38.6263 5.33594 38.9263 5.33594 39.2702C5.33594 39.6144 5.56998 39.9141 5.90346 39.9978H11.431C11.7648 39.9141 11.9985 39.6144 11.9985 39.2702C11.9985 38.9263 11.7648 38.6263 11.431 38.543H5.90346Z" fill="url(#paint2_linear_3620_16813)"/>
<path d="M5.90346 38.543C5.56998 38.6263 5.33594 38.9263 5.33594 39.2702C5.33594 39.6144 5.56998 39.9141 5.90346 39.9978H11.431C11.7648 39.9141 11.9985 39.6144 11.9985 39.2702C11.9985 38.9263 11.7648 38.6263 11.431 38.543H5.90346Z" fill="black" fill-opacity="0.2"/>
<path d="M33.5321 40.9125C33.118 40.9125 32.7821 41.2483 32.7821 41.6625V43.6875H1.46983V1.38748H24.9075V8.63231C24.9075 8.83119 24.9866 9.02204 25.1272 9.16267C25.2678 9.30329 25.4587 9.38231 25.6575 9.38231H32.805V19.2823C32.7488 19.5066 32.799 19.744 32.9413 19.9262C33.0832 20.1083 33.3015 20.2148 33.5326 20.2148C33.7636 20.2148 33.9816 20.1083 34.1239 19.9262C34.2658 19.744 34.316 19.5066 34.2601 19.2823V8.70002V8.63239C34.2558 8.39768 34.1419 8.17837 33.9524 8.04009L26.1524 0.15C26.0881 0.102455 26.0175 0.0646209 25.9425 0.0375H25.8749C25.8126 0.0143974 25.7466 0.001674 25.68 0H0.75C0.335829 0 0 0.335829 0 0.75V44.4154C0 44.6143 0.0790174 44.8052 0.219643 44.9458C0.3606 45.0864 0.551117 45.1654 0.75 45.1654H33.5323C33.7312 45.1654 33.922 45.0864 34.0626 44.9458C34.2033 44.8052 34.2823 44.6143 34.2823 44.4154V41.6327C34.2662 41.2303 33.9351 40.9125 33.5323 40.9129L33.5321 40.9125ZM26.3623 7.91248L26.362 2.43011L31.8296 7.90511L26.3623 7.91248Z" fill="url(#paint3_linear_3620_16813)"/>
<path d="M33.5321 40.9125C33.118 40.9125 32.7821 41.2483 32.7821 41.6625V43.6875H1.46983V1.38748H24.9075V8.63231C24.9075 8.83119 24.9866 9.02204 25.1272 9.16267C25.2678 9.30329 25.4587 9.38231 25.6575 9.38231H32.805V19.2823C32.7488 19.5066 32.799 19.744 32.9413 19.9262C33.0832 20.1083 33.3015 20.2148 33.5326 20.2148C33.7636 20.2148 33.9816 20.1083 34.1239 19.9262C34.2658 19.744 34.316 19.5066 34.2601 19.2823V8.70002V8.63239C34.2558 8.39768 34.1419 8.17837 33.9524 8.04009L26.1524 0.15C26.0881 0.102455 26.0175 0.0646209 25.9425 0.0375H25.8749C25.8126 0.0143974 25.7466 0.001674 25.68 0H0.75C0.335829 0 0 0.335829 0 0.75V44.4154C0 44.6143 0.0790174 44.8052 0.219643 44.9458C0.3606 45.0864 0.551117 45.1654 0.75 45.1654H33.5323C33.7312 45.1654 33.922 45.0864 34.0626 44.9458C34.2033 44.8052 34.2823 44.6143 34.2823 44.4154V41.6327C34.2662 41.2303 33.9351 40.9125 33.5323 40.9129L33.5321 40.9125ZM26.3623 7.91248L26.362 2.43011L31.8296 7.90511L26.3623 7.91248Z" fill="black" fill-opacity="0.2"/>
<path d="M33.5406 24.8906C32.0915 24.9124 30.71 25.507 29.6982 26.5447C28.6863 27.582 28.1265 28.9782 28.1409 30.4273C28.1553 31.8763 28.7432 33.2609 29.7755 34.2781C30.8077 35.2949 32.2009 35.8621 33.6504 35.8548C35.0994 35.8477 36.487 35.2672 37.5092 34.2399C38.5314 33.2127 39.1056 31.8222 39.1056 30.3731C39.0919 28.9089 38.4983 27.5101 37.4553 26.4824C36.4123 25.4549 35.0047 24.8826 33.5406 24.8906ZM33.5406 34.5429V34.5426C32.4393 34.5131 31.394 34.0494 30.633 33.2528C29.8716 32.4563 29.4561 31.3912 29.4765 30.2897C29.4966 29.1881 29.9513 28.1391 30.7415 27.371C31.5313 26.6033 32.5931 26.1784 33.6946 26.1895C34.7964 26.2005 35.8492 26.6462 36.624 27.4297C37.3984 28.2131 37.8324 29.2708 37.8306 30.3727C37.8169 31.4947 37.3562 32.5648 36.5513 33.346C35.746 34.1275 34.6626 34.5553 33.5406 34.5353V34.5429Z" fill="url(#paint4_linear_3620_16813)"/>
<path d="M33.5406 24.8906C32.0915 24.9124 30.71 25.507 29.6982 26.5447C28.6863 27.582 28.1265 28.9782 28.1409 30.4273C28.1553 31.8763 28.7432 33.2609 29.7755 34.2781C30.8077 35.2949 32.2009 35.8621 33.6504 35.8548C35.0994 35.8477 36.487 35.2672 37.5092 34.2399C38.5314 33.2127 39.1056 31.8222 39.1056 30.3731C39.0919 28.9089 38.4983 27.5101 37.4553 26.4824C36.4123 25.4549 35.0047 24.8826 33.5406 24.8906ZM33.5406 34.5429V34.5426C32.4393 34.5131 31.394 34.0494 30.633 33.2528C29.8716 32.4563 29.4561 31.3912 29.4765 30.2897C29.4966 29.1881 29.9513 28.1391 30.7415 27.371C31.5313 26.6033 32.5931 26.1784 33.6946 26.1895C34.7964 26.2005 35.8492 26.6462 36.624 27.4297C37.3984 28.2131 37.8324 29.2708 37.8306 30.3727C37.8169 31.4947 37.3562 32.5648 36.5513 33.346C35.746 34.1275 34.6626 34.5553 33.5406 34.5353V34.5429Z" fill="black" fill-opacity="0.2"/>
<path d="M33.5469 21.3203C33.1324 21.3203 32.7969 21.6562 32.7969 22.0703V23.0531C32.7969 23.2519 32.8759 23.4425 33.0165 23.5834C33.1571 23.724 33.348 23.8031 33.5469 23.8031C33.7458 23.8031 33.9363 23.724 34.0772 23.5834C34.2179 23.4425 34.2969 23.2519 34.2969 23.0531V22.0479C34.2845 21.6424 33.9523 21.3203 33.5469 21.3203Z" fill="url(#paint5_linear_3620_16813)"/>
<path d="M33.5469 21.3203C33.1324 21.3203 32.7969 21.6562 32.7969 22.0703V23.0531C32.7969 23.2519 32.8759 23.4425 33.0165 23.5834C33.1571 23.724 33.348 23.8031 33.5469 23.8031C33.7458 23.8031 33.9363 23.724 34.0772 23.5834C34.2179 23.4425 34.2969 23.2519 34.2969 23.0531V22.0479C34.2845 21.6424 33.9523 21.3203 33.5469 21.3203Z" fill="black" fill-opacity="0.2"/>
<path d="M33.5469 36.9883C33.1324 36.9883 32.7969 37.3241 32.7969 37.7383V38.7207C32.7969 38.9196 32.8759 39.1104 33.0165 39.251C33.1571 39.3917 33.348 39.4707 33.5469 39.4707C33.7458 39.4707 33.9363 39.3917 34.0772 39.251C34.2179 39.1104 34.2969 38.9196 34.2969 38.7207V37.7158C34.2845 37.3104 33.9523 36.988 33.5469 36.9883Z" fill="url(#paint6_linear_3620_16813)"/>
<path d="M33.5469 36.9883C33.1324 36.9883 32.7969 37.3241 32.7969 37.7383V38.7207C32.7969 38.9196 32.8759 39.1104 33.0165 39.251C33.1571 39.3917 33.348 39.4707 33.5469 39.4707C33.7458 39.4707 33.9363 39.3917 34.0772 39.251C34.2179 39.1104 34.2969 38.9196 34.2969 38.7207V37.7158C34.2845 37.3104 33.9523 36.988 33.5469 36.9883Z" fill="black" fill-opacity="0.2"/>
<path d="M28.8312 25.6943C29.1027 25.4057 29.1027 24.9557 28.8312 24.6671L28.1337 23.9697V23.9693C28.0155 23.7701 27.812 23.6365 27.5823 23.6074C27.3523 23.5786 27.1219 23.6576 26.9582 23.8213C26.7941 23.9851 26.7151 24.2154 26.7442 24.4454C26.7733 24.6755 26.9069 24.879 27.1062 24.9969L27.8036 25.6943C27.9382 25.8309 28.1224 25.9066 28.3135 25.9046C28.5067 25.9036 28.6922 25.8286 28.8312 25.6943Z" fill="url(#paint7_linear_3620_16813)"/>
<path d="M28.8312 25.6943C29.1027 25.4057 29.1027 24.9557 28.8312 24.6671L28.1337 23.9697V23.9693C28.0155 23.7701 27.812 23.6365 27.5823 23.6074C27.3523 23.5786 27.1219 23.6576 26.9582 23.8213C26.7941 23.9851 26.7151 24.2154 26.7442 24.4454C26.7733 24.6755 26.9069 24.879 27.1062 24.9969L27.8036 25.6943C27.9382 25.8309 28.1224 25.9066 28.3135 25.9046C28.5067 25.9036 28.6922 25.8286 28.8312 25.6943Z" fill="black" fill-opacity="0.2"/>
<path d="M39.2768 35.046C38.9821 34.8716 38.6065 34.9188 38.3643 35.1612C38.1219 35.4033 38.0747 35.779 38.2492 36.0737L38.9466 36.7711H38.9469C39.2416 36.9459 39.6172 36.8983 39.8594 36.6562C40.1014 36.4138 40.149 36.0385 39.9742 35.7436L39.2768 35.046Z" fill="url(#paint8_linear_3620_16813)"/>
<path d="M39.2768 35.046C38.9821 34.8716 38.6065 34.9188 38.3643 35.1612C38.1219 35.4033 38.0747 35.779 38.2492 36.0737L38.9466 36.7711H38.9469C39.2416 36.9459 39.6172 36.8983 39.8594 36.6562C40.1014 36.4138 40.149 36.0385 39.9742 35.7436L39.2768 35.046Z" fill="black" fill-opacity="0.2"/>
<path d="M41.9171 29.6474H40.927C40.7017 29.5861 40.4606 29.6333 40.2748 29.7753C40.0893 29.9172 39.9805 30.1375 39.9805 30.3712C39.9805 30.605 40.0893 30.8253 40.2748 30.9669C40.4606 31.1089 40.7017 31.1561 40.927 31.0948H41.9097C42.2432 31.0114 42.4772 30.7114 42.4772 30.3676C42.4772 30.0234 42.2432 29.7237 41.9097 29.64L41.9171 29.6474Z" fill="url(#paint9_linear_3620_16813)"/>
<path d="M41.9171 29.6474H40.927C40.7017 29.5861 40.4606 29.6333 40.2748 29.7753C40.0893 29.9172 39.9805 30.1375 39.9805 30.3712C39.9805 30.605 40.0893 30.8253 40.2748 30.9669C40.4606 31.1089 40.7017 31.1561 40.927 31.0948H41.9097C42.2432 31.0114 42.4772 30.7114 42.4772 30.3676C42.4772 30.0234 42.2432 29.7237 41.9097 29.64L41.9171 29.6474Z" fill="black" fill-opacity="0.2"/>
<path d="M25.1695 31.0965H26.1596C26.3585 31.0965 26.549 31.0175 26.69 30.8769C26.8306 30.7363 26.9096 30.5454 26.9096 30.3465C26.9096 30.1476 26.8306 29.9571 26.69 29.8162C26.549 29.6755 26.3585 29.5965 26.1596 29.5965H25.1695C24.9439 29.5353 24.7028 29.5828 24.5173 29.7244C24.3318 29.8664 24.2227 30.0867 24.2227 30.3204C24.2227 30.5541 24.3318 30.7744 24.5173 30.9164C24.7028 31.058 24.9439 31.1056 25.1695 31.0443V31.0965Z" fill="url(#paint10_linear_3620_16813)"/>
<path d="M25.1695 31.0965H26.1596C26.3585 31.0965 26.549 31.0175 26.69 30.8769C26.8306 30.7363 26.9096 30.5454 26.9096 30.3465C26.9096 30.1476 26.8306 29.9571 26.69 29.8162C26.549 29.6755 26.3585 29.5965 26.1596 29.5965H25.1695C24.9439 29.5353 24.7028 29.5828 24.5173 29.7244C24.3318 29.8664 24.2227 30.0867 24.2227 30.3204C24.2227 30.5541 24.3318 30.7744 24.5173 30.9164C24.7028 31.058 24.9439 31.1056 25.1695 31.0443V31.0965Z" fill="black" fill-opacity="0.2"/>
<path d="M38.948 23.9683L38.2506 24.6584H38.2503C37.9791 24.947 37.9791 25.3973 38.2503 25.6859C38.3815 25.8282 38.567 25.9072 38.7605 25.9035C38.9534 25.9025 39.1389 25.8275 39.2778 25.6933L39.9753 25.0032V25.0035C40.1574 24.7086 40.1136 24.3272 39.8695 24.0811C39.6254 23.835 39.2444 23.7885 38.948 23.9683Z" fill="url(#paint11_linear_3620_16813)"/>
<path d="M38.948 23.9683L38.2506 24.6584H38.2503C37.9791 24.947 37.9791 25.3973 38.2503 25.6859C38.3815 25.8282 38.567 25.9072 38.7605 25.9035C38.9534 25.9025 39.1389 25.8275 39.2778 25.6933L39.9753 25.0032V25.0035C40.1574 24.7086 40.1136 24.3272 39.8695 24.0811C39.6254 23.835 39.2444 23.7885 38.948 23.9683Z" fill="black" fill-opacity="0.2"/>
<path d="M27.1061 36.787C27.2451 36.921 27.4306 36.9963 27.6238 36.997C27.8149 36.9993 27.9991 36.9233 28.1337 36.787L28.8388 36.097H28.8385C29.0206 35.802 28.9768 35.4206 28.7327 35.1745C28.4886 34.9288 28.1076 34.8822 27.8113 35.062L27.1138 35.7594H27.1135C26.8399 36.0464 26.8369 36.4964 27.1061 36.787Z" fill="url(#paint12_linear_3620_16813)"/>
<path d="M27.1061 36.787C27.2451 36.921 27.4306 36.9963 27.6238 36.997C27.8149 36.9993 27.9991 36.9233 28.1337 36.787L28.8388 36.097H28.8385C29.0206 35.802 28.9768 35.4206 28.7327 35.1745C28.4886 34.9288 28.1076 34.8822 27.8113 35.062L27.1138 35.7594H27.1135C26.8399 36.0464 26.8369 36.4964 27.1061 36.787Z" fill="black" fill-opacity="0.2"/>
<path d="M33.5545 31.0257H33.4946C33.0251 31.0006 32.5909 30.7682 32.31 30.3912C32.0287 30.0146 31.93 29.5321 32.0401 29.0751C32.1499 28.6177 32.4576 28.2334 32.8795 28.0258V27.7034C32.8795 27.3428 33.1718 27.0508 33.5321 27.0508C33.8924 27.0508 34.1847 27.3427 34.1847 27.7034V27.996V27.9957C34.4683 28.0958 34.7247 28.2602 34.9347 28.4758C35.1834 28.7269 35.1834 29.132 34.9347 29.3832C34.6765 29.6299 34.27 29.6299 34.0119 29.3832C33.8793 29.266 33.7092 29.1997 33.5321 29.1957C33.3941 29.2184 33.293 29.3373 33.293 29.4769C33.293 29.6165 33.3941 29.7357 33.5321 29.7582H33.592C34.0567 29.791 34.4836 30.026 34.7598 30.4013C35.0364 30.7763 35.1342 31.2538 35.0277 31.7075C34.9212 32.1611 34.6212 32.5452 34.2071 32.7581V33.0806C34.1712 33.4161 33.888 33.6705 33.5508 33.6705C33.2133 33.6705 32.9304 33.4161 32.8946 33.0806V32.7956C32.6123 32.6892 32.3565 32.5228 32.1446 32.3081C31.9001 32.041 31.9186 31.6265 32.1858 31.382C32.4529 31.1376 32.8678 31.156 33.1119 31.4232C33.2448 31.5333 33.4119 31.5943 33.5847 31.5956C33.7223 31.5732 33.8234 31.454 33.8234 31.3144C33.8234 31.1748 33.7223 31.0559 33.5847 31.0331L33.5545 31.0257Z" fill="url(#paint13_linear_3620_16813)"/>
<path d="M33.5545 31.0257H33.4946C33.0251 31.0006 32.5909 30.7682 32.31 30.3912C32.0287 30.0146 31.93 29.5321 32.0401 29.0751C32.1499 28.6177 32.4576 28.2334 32.8795 28.0258V27.7034C32.8795 27.3428 33.1718 27.0508 33.5321 27.0508C33.8924 27.0508 34.1847 27.3427 34.1847 27.7034V27.996V27.9957C34.4683 28.0958 34.7247 28.2602 34.9347 28.4758C35.1834 28.7269 35.1834 29.132 34.9347 29.3832C34.6765 29.6299 34.27 29.6299 34.0119 29.3832C33.8793 29.266 33.7092 29.1997 33.5321 29.1957C33.3941 29.2184 33.293 29.3373 33.293 29.4769C33.293 29.6165 33.3941 29.7357 33.5321 29.7582H33.592C34.0567 29.791 34.4836 30.026 34.7598 30.4013C35.0364 30.7763 35.1342 31.2538 35.0277 31.7075C34.9212 32.1611 34.6212 32.5452 34.2071 32.7581V33.0806C34.1712 33.4161 33.888 33.6705 33.5508 33.6705C33.2133 33.6705 32.9304 33.4161 32.8946 33.0806V32.7956C32.6123 32.6892 32.3565 32.5228 32.1446 32.3081C31.9001 32.041 31.9186 31.6265 32.1858 31.382C32.4529 31.1376 32.8678 31.156 33.1119 31.4232C33.2448 31.5333 33.4119 31.5943 33.5847 31.5956C33.7223 31.5732 33.8234 31.454 33.8234 31.3144C33.8234 31.1748 33.7223 31.0559 33.5847 31.0331L33.5545 31.0257Z" fill="black" fill-opacity="0.2"/>
<path d="M24.8488 13.3633C24.6623 13.0124 24.2348 12.8677 23.8738 13.0331C23.541 13.2317 23.4141 13.6512 23.5812 14.0008C23.6488 14.1508 23.7161 14.2934 23.7761 14.4434V14.4431C23.8912 14.7153 24.1557 14.8944 24.4511 14.9008C24.5438 14.9014 24.6355 14.8837 24.7213 14.8482C25.0675 14.6737 25.2235 14.2639 25.0812 13.9034C25.0135 13.7232 24.9312 13.5357 24.8488 13.3633Z" fill="url(#paint14_linear_3620_16813)"/>
<path d="M24.8488 13.3633C24.6623 13.0124 24.2348 12.8677 23.8738 13.0331C23.541 13.2317 23.4141 13.6512 23.5812 14.0008C23.6488 14.1508 23.7161 14.2934 23.7761 14.4434V14.4431C23.8912 14.7153 24.1557 14.8944 24.4511 14.9008C24.5438 14.9014 24.6355 14.8837 24.7213 14.8482C25.0675 14.6737 25.2235 14.2639 25.0812 13.9034C25.0135 13.7232 24.9312 13.5357 24.8488 13.3633Z" fill="black" fill-opacity="0.2"/>
<path d="M17.1434 8.34768C15.0387 8.34299 13.0057 9.11341 11.4327 10.5116C9.85964 11.9101 8.85687 13.839 8.61515 15.93C8.37375 18.021 8.91046 20.1274 10.1232 21.8477C9.80647 21.9535 9.59787 22.2565 9.6116 22.5903C9.62566 22.9241 9.85869 23.2087 10.1835 23.2877H10.236L11.6236 23.1826H11.6912L11.8636 23.13L11.9537 23.0852H11.9534C11.9969 23.0544 12.0371 23.0192 12.0732 22.9804L12.1482 22.9054C12.1794 22.8639 12.2045 22.8183 12.2232 22.7701L12.2681 22.6727L12.5905 21.3153H12.5909C12.6719 20.9259 12.4352 20.5409 12.0508 20.4378C11.6912 20.3718 11.3363 20.5744 11.2107 20.9179C10.2294 19.4799 9.80888 17.7317 10.0292 16.0048C10.2491 14.2778 11.0949 12.6914 12.406 11.5456C13.7169 10.3999 15.4023 9.77479 17.1435 9.78781C19.137 9.78614 21.0405 10.6185 22.3935 12.0826C22.6817 12.2768 23.0658 12.2477 23.3209 12.0117C23.5764 11.7759 23.6363 11.3956 23.4659 11.0929C21.832 9.33806 19.5411 8.34331 17.1434 8.34768Z" fill="url(#paint15_linear_3620_16813)"/>
<path d="M17.1434 8.34768C15.0387 8.34299 13.0057 9.11341 11.4327 10.5116C9.85964 11.9101 8.85687 13.839 8.61515 15.93C8.37375 18.021 8.91046 20.1274 10.1232 21.8477C9.80647 21.9535 9.59787 22.2565 9.6116 22.5903C9.62566 22.9241 9.85869 23.2087 10.1835 23.2877H10.236L11.6236 23.1826H11.6912L11.8636 23.13L11.9537 23.0852H11.9534C11.9969 23.0544 12.0371 23.0192 12.0732 22.9804L12.1482 22.9054C12.1794 22.8639 12.2045 22.8183 12.2232 22.7701L12.2681 22.6727L12.5905 21.3153H12.5909C12.6719 20.9259 12.4352 20.5409 12.0508 20.4378C11.6912 20.3718 11.3363 20.5744 11.2107 20.9179C10.2294 19.4799 9.80888 17.7317 10.0292 16.0048C10.2491 14.2778 11.0949 12.6914 12.406 11.5456C13.7169 10.3999 15.4023 9.77479 17.1435 9.78781C19.137 9.78614 21.0405 10.6185 22.3935 12.0826C22.6817 12.2768 23.0658 12.2477 23.3209 12.0117C23.5764 11.7759 23.6363 11.3956 23.4659 11.0929C21.832 9.33806 19.5411 8.34331 17.1434 8.34768Z" fill="black" fill-opacity="0.2"/>
<path d="M24.2463 16.8077V17.1901V17.1904C24.3297 17.5239 24.6297 17.7579 24.9735 17.7579C25.3177 17.7579 25.6174 17.5239 25.7011 17.1904V16.7253C25.6663 16.3376 25.3405 16.0413 24.9511 16.043C24.5486 16.0671 24.2373 16.4049 24.2463 16.8077Z" fill="url(#paint16_linear_3620_16813)"/>
<path d="M24.2463 16.8077V17.1901V17.1904C24.3297 17.5239 24.6297 17.7579 24.9735 17.7579C25.3177 17.7579 25.6174 17.5239 25.7011 17.1904V16.7253C25.6663 16.3376 25.3405 16.0413 24.9511 16.043C24.5486 16.0671 24.2373 16.4049 24.2463 16.8077Z" fill="black" fill-opacity="0.2"/>
<path d="M16.5977 12.0352C16.1832 12.0352 15.8477 12.371 15.8477 12.7852V17.0976C15.8477 17.1981 15.8681 17.2975 15.9076 17.3903C16.0228 17.6625 16.2869 17.8416 16.5826 17.8476H19.5227C19.748 17.9089 19.9891 17.8617 20.1749 17.7197C20.3604 17.5778 20.4692 17.3575 20.4692 17.1238C20.4692 16.8904 20.3604 16.6701 20.1749 16.5281C19.9891 16.3862 19.748 16.3389 19.5227 16.4002H17.2727V12.7403C17.2523 12.371 16.9656 12.0717 16.5977 12.0352Z" fill="url(#paint17_linear_3620_16813)"/>
<path d="M16.5977 12.0352C16.1832 12.0352 15.8477 12.371 15.8477 12.7852V17.0976C15.8477 17.1981 15.8681 17.2975 15.9076 17.3903C16.0228 17.6625 16.2869 17.8416 16.5826 17.8476H19.5227C19.748 17.9089 19.9891 17.8617 20.1749 17.7197C20.3604 17.5778 20.4692 17.3575 20.4692 17.1238C20.4692 16.8904 20.3604 16.6701 20.1749 16.5281C19.9891 16.3862 19.748 16.3389 19.5227 16.4002H17.2727V12.7403C17.2523 12.371 16.9656 12.0717 16.5977 12.0352Z" fill="black" fill-opacity="0.2"/>
<path d="M24.8107 20.1283C24.9487 19.9455 24.9959 19.7097 24.9386 19.4881C24.8814 19.2664 24.726 19.0829 24.5168 18.9902C24.3075 18.8975 24.0671 18.9052 23.8642 19.0113C23.6616 19.1178 23.5183 19.3106 23.4755 19.5356C22.9481 20.7799 22.0655 21.8409 20.9385 22.5865C19.8112 23.3322 18.4896 23.7293 17.1379 23.7283C16.2182 23.7309 15.3075 23.5475 14.4607 23.1882C14.2766 23.0449 14.0362 22.9953 13.8105 23.0543C13.5848 23.1135 13.3993 23.2739 13.3089 23.4889C13.2182 23.7038 13.2329 23.9486 13.3484 24.1515C13.464 24.354 13.6668 24.4913 13.8982 24.5231C15.9309 25.3843 18.2228 25.4027 20.2692 24.5743C22.3156 23.7457 23.9492 22.1385 24.8107 20.1055L24.8107 20.1283Z" fill="url(#paint18_linear_3620_16813)"/>
<path d="M24.8107 20.1283C24.9487 19.9455 24.9959 19.7097 24.9386 19.4881C24.8814 19.2664 24.726 19.0829 24.5168 18.9902C24.3075 18.8975 24.0671 18.9052 23.8642 19.0113C23.6616 19.1178 23.5183 19.3106 23.4755 19.5356C22.9481 20.7799 22.0655 21.8409 20.9385 22.5865C19.8112 23.3322 18.4896 23.7293 17.1379 23.7283C16.2182 23.7309 15.3075 23.5475 14.4607 23.1882C14.2766 23.0449 14.0362 22.9953 13.8105 23.0543C13.5848 23.1135 13.3993 23.2739 13.3089 23.4889C13.2182 23.7038 13.2329 23.9486 13.3484 24.1515C13.464 24.354 13.6668 24.4913 13.8982 24.5231C15.9309 25.3843 18.2228 25.4027 20.2692 24.5743C22.3156 23.7457 23.9492 22.1385 24.8107 20.1055L24.8107 20.1283Z" fill="black" fill-opacity="0.2"/>
<defs>
<linearGradient id="paint0_linear_3620_16813" x1="11.6353" y1="34.0781" x2="11.6353" y2="35.5329" gradientUnits="userSpaceOnUse">
<stop stop-color="#FF0F0F"/>
<stop offset="1" stop-color="#FF4849"/>
</linearGradient>
<linearGradient id="paint1_linear_3620_16813" x1="13.3747" y1="29.625" x2="13.3747" y2="31.0801" gradientUnits="userSpaceOnUse">
<stop stop-color="#FF0F0F"/>
<stop offset="1" stop-color="#FF4849"/>
</linearGradient>
<linearGradient id="paint2_linear_3620_16813" x1="8.66723" y1="38.543" x2="8.66723" y2="39.9978" gradientUnits="userSpaceOnUse">
<stop stop-color="#FF0F0F"/>
<stop offset="1" stop-color="#FF4849"/>
</linearGradient>
<linearGradient id="paint3_linear_3620_16813" x1="17.1412" y1="0" x2="17.1412" y2="45.1654" gradientUnits="userSpaceOnUse">
<stop stop-color="#FF0F0F"/>
<stop offset="1" stop-color="#FF4849"/>
</linearGradient>
<linearGradient id="paint4_linear_3620_16813" x1="33.6231" y1="24.8906" x2="33.6231" y2="35.8548" gradientUnits="userSpaceOnUse">
<stop stop-color="#FF0F0F"/>
<stop offset="1" stop-color="#FF4849"/>
</linearGradient>
<linearGradient id="paint5_linear_3620_16813" x1="33.5469" y1="21.3203" x2="33.5469" y2="23.8031" gradientUnits="userSpaceOnUse">
<stop stop-color="#FF0F0F"/>
<stop offset="1" stop-color="#FF4849"/>
</linearGradient>
<linearGradient id="paint6_linear_3620_16813" x1="33.5469" y1="36.9883" x2="33.5469" y2="39.4707" gradientUnits="userSpaceOnUse">
<stop stop-color="#FF0F0F"/>
<stop offset="1" stop-color="#FF4849"/>
</linearGradient>
<linearGradient id="paint7_linear_3620_16813" x1="27.8865" y1="23.6016" x2="27.8865" y2="25.9046" gradientUnits="userSpaceOnUse">
<stop stop-color="#FF0F0F"/>
<stop offset="1" stop-color="#FF4849"/>
</linearGradient>
<linearGradient id="paint8_linear_3620_16813" x1="39.1118" y1="34.9414" x2="39.1118" y2="36.8759" gradientUnits="userSpaceOnUse">
<stop stop-color="#FF0F0F"/>
<stop offset="1" stop-color="#FF4849"/>
</linearGradient>
<linearGradient id="paint9_linear_3620_16813" x1="41.2289" y1="29.6211" x2="41.2289" y2="31.1211" gradientUnits="userSpaceOnUse">
<stop stop-color="#FF0F0F"/>
<stop offset="1" stop-color="#FF4849"/>
</linearGradient>
<linearGradient id="paint10_linear_3620_16813" x1="25.5661" y1="29.5703" x2="25.5661" y2="31.0965" gradientUnits="userSpaceOnUse">
<stop stop-color="#FF0F0F"/>
<stop offset="1" stop-color="#FF4849"/>
</linearGradient>
<linearGradient id="paint11_linear_3620_16813" x1="39.067" y1="23.8594" x2="39.067" y2="25.9037" gradientUnits="userSpaceOnUse">
<stop stop-color="#FF0F0F"/>
<stop offset="1" stop-color="#FF4849"/>
</linearGradient>
<linearGradient id="paint12_linear_3620_16813" x1="27.9283" y1="34.9531" x2="27.9283" y2="36.997" gradientUnits="userSpaceOnUse">
<stop stop-color="#FF0F0F"/>
<stop offset="1" stop-color="#FF4849"/>
</linearGradient>
<linearGradient id="paint13_linear_3620_16813" x1="33.5469" y1="27.0508" x2="33.5469" y2="33.6705" gradientUnits="userSpaceOnUse">
<stop stop-color="#FF0F0F"/>
<stop offset="1" stop-color="#FF4849"/>
</linearGradient>
<linearGradient id="paint14_linear_3620_16813" x1="24.3207" y1="12.9648" x2="24.3207" y2="14.9008" gradientUnits="userSpaceOnUse">
<stop stop-color="#FF0F0F"/>
<stop offset="1" stop-color="#FF4849"/>
</linearGradient>
<linearGradient id="paint15_linear_3620_16813" x1="16.0604" y1="8.34766" x2="16.0604" y2="23.2877" gradientUnits="userSpaceOnUse">
<stop stop-color="#FF0F0F"/>
<stop offset="1" stop-color="#FF4849"/>
</linearGradient>
<linearGradient id="paint16_linear_3620_16813" x1="24.9736" y1="16.043" x2="24.9736" y2="17.7579" gradientUnits="userSpaceOnUse">
<stop stop-color="#FF0F0F"/>
<stop offset="1" stop-color="#FF4849"/>
</linearGradient>
<linearGradient id="paint17_linear_3620_16813" x1="18.1584" y1="12.0352" x2="18.1584" y2="17.8739" gradientUnits="userSpaceOnUse">
<stop stop-color="#FF0F0F"/>
<stop offset="1" stop-color="#FF4849"/>
</linearGradient>
<linearGradient id="paint18_linear_3620_16813" x1="19.1062" y1="18.9258" x2="19.1062" y2="25.1826" gradientUnits="userSpaceOnUse">
<stop stop-color="#FF0F0F"/>
<stop offset="1" stop-color="#FF4849"/>
</linearGradient>
</defs>
</svg>