<svg width="38" height="38" viewBox="0 0 37 33" fill="none" xmlns="http://www.w3.org/2000/svg">
<path d="M33.5529 28.3938C35.1647 26.292 36.0158 23.773 36.0158 21.0989C36.0158 17.9502 34.8158 14.9829 32.6368 12.7435C30.4977 10.5448 27.6578 9.29684 24.6237 9.21604L20.6047 2.00461C20.2493 1.3669 19.6022 0.986328 18.8739 0.986328C18.1458 0.986328 17.4987 1.36691 17.1433 2.00461L16.6141 2.95416C15.0761 2.23364 13.4315 1.86799 11.7208 1.86799C5.26648 1.86776 0.015625 7.20078 0.015625 13.756C0.015625 16.4299 0.866768 18.9488 2.4786 21.0508L1.2018 24.8946C1.16764 24.9973 1.19443 25.1105 1.27121 25.187C1.34777 25.2634 1.46095 25.2899 1.56362 25.2558L5.61654 23.9002C7.45111 25.0415 9.55848 25.6442 11.7205 25.6442C12.2969 25.6442 12.875 25.6011 13.4422 25.516C14.286 27.6574 15.7114 29.4904 17.5799 30.8263C19.5569 32.2399 21.8844 32.987 24.3108 32.987C26.4731 32.987 28.5804 32.3843 30.4148 31.243L34.4677 32.5986C34.5704 32.633 34.6835 32.6062 34.7601 32.5299C34.8367 32.4535 34.8634 32.3401 34.8295 32.2375L33.5529 28.3938ZM18.8734 16.3846C19.2098 16.3846 19.4835 16.6596 19.4835 16.9976C19.4835 17.3351 19.2098 17.6096 18.8734 17.6096C18.5375 17.6096 18.2643 17.3351 18.2643 16.9976C18.2643 16.6594 18.5375 16.3846 18.8734 16.3846ZM19.2665 14.6911H18.4803L18.2719 6.73164H19.4759L19.2665 14.6911ZM5.80823 23.3454C5.73524 23.2989 5.6455 23.2878 5.56381 23.3152L1.92433 24.5324L3.06919 21.0862C3.09954 20.9951 3.08191 20.8949 3.02253 20.8195C1.42945 18.7951 0.587276 16.3527 0.587276 13.756C0.587276 7.51602 5.58168 2.43945 11.721 2.43945C13.3337 2.43945 14.8844 2.78097 16.3355 3.45442L13.6183 8.32962L7.03602 8.32918C6.87821 8.32918 6.7503 8.45708 6.7503 8.61489C6.7503 8.7727 6.87821 8.90061 7.03602 8.90061H13.3L11.6538 11.8542H5.57265C5.41484 11.8542 5.28693 11.9821 5.28693 12.1399C5.28693 12.2977 5.41484 12.4256 5.57265 12.4256H11.3355L9.68928 15.3792H5.57276C5.41495 15.3792 5.28705 15.5071 5.28705 15.6649C5.28705 15.8228 5.41495 15.9507 5.57276 15.9507H9.37053L8.39956 17.6924C8.05224 18.3158 8.06072 19.0553 8.42211 19.6709C8.78238 20.2841 9.42096 20.6502 10.1304 20.6502H20.5481C20.2869 20.9948 20.0077 21.3256 19.7115 21.6357C18.046 23.3801 15.9264 24.5138 13.5812 24.9147H13.5805C13.5792 24.9149 13.5778 24.9152 13.5763 24.9156C12.9674 25.0196 12.343 25.0723 11.7207 25.0723C9.62245 25.0721 7.57805 24.475 5.80868 23.3449L5.80823 23.3454ZM30.4677 30.6579C30.386 30.6307 30.2962 30.6416 30.2232 30.6881C28.4538 31.8179 26.4094 32.4153 24.3107 32.4153C19.818 32.4153 15.7238 29.6158 14.0158 25.4147C16.3082 24.9531 18.3819 23.8192 20.0381 22.119H31.0444C31.2022 22.119 31.3301 21.9911 31.3301 21.8333C31.3301 21.6755 31.2022 21.5475 31.0444 21.5475H20.5592C20.8048 21.2603 21.0376 20.9603 21.2552 20.6505H27.617C28.3266 20.6505 28.9652 20.2844 29.3252 19.6712C29.6828 19.0623 29.694 18.3321 29.3578 17.7134H31.0442C31.202 17.7134 31.3299 17.5855 31.3299 17.4277C31.3299 17.2699 31.202 17.1419 31.0442 17.1419H29.0402L24.9491 9.80138C30.7806 10.1411 35.4434 15.1054 35.4434 21.0991C35.4434 23.6955 34.6015 26.1379 33.0082 28.1625C32.9488 28.238 32.9314 28.3382 32.9615 28.4293L34.1064 31.8755L30.4677 30.6579Z" fill="url(#paint0_linear_4209_26751)"/>
<path d="M31.0436 25.9531H18.1607C18.0029 25.9531 17.875 26.081 17.875 26.2388C17.875 26.3967 18.0029 26.5246 18.1607 26.5246H31.0436C31.2014 26.5246 31.3293 26.3967 31.3293 26.2388C31.3293 26.081 31.2014 25.9531 31.0436 25.9531Z" fill="url(#paint1_linear_4209_26751)"/>
<defs>
<linearGradient id="paint0_linear_4209_26751" x1="28.0637" y1="0.986328" x2="27.9334" y2="39.8447" gradientUnits="userSpaceOnUse">
<stop stop-color="#005CAA"/>
<stop offset="1" stop-color="#64B0F1"/>
</linearGradient>
<linearGradient id="paint1_linear_4209_26751" x1="28.3574" y1="25.9531" x2="28.3573" y2="26.647" gradientUnits="userSpaceOnUse">
<stop stop-color="#005CAA"/>
<stop offset="1" stop-color="#64B0F1"/>
</linearGradient>
</defs>
</svg>