<svg width="38" height="38" viewBox="0 0 26 28" fill="none" xmlns="http://www.w3.org/2000/svg">
<path d="M16.0055 3.95688L15.6015 4.94168C15.5285 5.1198 15.6127 5.31934 15.7875 5.39971C18.4757 6.64003 20.269 9.29792 20.4126 12.2549C20.4219 12.447 20.5752 12.5999 20.7675 12.5991L21.8318 12.5933C22.0309 12.5921 22.1951 12.4267 22.1866 12.2276C22.0311 8.57006 19.8103 5.2779 16.4768 3.76495C16.2957 3.68268 16.0811 3.77301 16.0054 3.95708L16.0055 3.95688Z" fill="url(#paint0_linear_3819_28410)"/>
<path d="M16.0055 3.95688L15.6015 4.94168C15.5285 5.1198 15.6127 5.31934 15.7875 5.39971C18.4757 6.64003 20.269 9.29792 20.4126 12.2549C20.4219 12.447 20.5752 12.5999 20.7675 12.5991L21.8318 12.5933C22.0309 12.5921 22.1951 12.4267 22.1866 12.2276C22.0311 8.57006 19.8103 5.2779 16.4768 3.76495C16.2957 3.68268 16.0811 3.77301 16.0054 3.95708L16.0055 3.95688Z" fill="black" fill-opacity="0.2"/>
<path d="M17.3525 0.67603L16.9492 1.65974C16.876 1.83829 16.9606 2.0389 17.1371 2.11757C21.1425 3.90177 23.8077 7.85231 23.9624 12.2343C23.9692 12.427 24.1236 12.5807 24.3165 12.5797L25.38 12.574C25.5789 12.5727 25.7418 12.4083 25.7354 12.2094C25.5706 7.12526 22.4766 2.53953 17.8238 0.482644C17.6416 0.402486 17.4277 0.491763 17.3524 0.675614L17.3525 0.67603Z" fill="url(#paint1_linear_3819_28410)"/>
<path d="M17.3525 0.67603L16.9492 1.65974C16.876 1.83829 16.9606 2.0389 17.1371 2.11757C21.1425 3.90177 23.8077 7.85231 23.9624 12.2343C23.9692 12.427 24.1236 12.5807 24.3165 12.5797L25.38 12.574C25.5789 12.5727 25.7418 12.4083 25.7354 12.2094C25.5706 7.12526 22.4766 2.53953 17.8238 0.482644C17.6416 0.402486 17.4277 0.491763 17.3524 0.675614L17.3525 0.67603Z" fill="black" fill-opacity="0.2"/>
<path d="M20.8589 19.652L18.9863 17.7291V14.1657C18.9863 10.6124 16.8842 7.55863 13.733 6.32418C13.4169 4.90151 12.1649 3.83594 10.6736 3.83594C9.18222 3.83594 7.93066 4.90151 7.61407 6.32418C4.46316 7.55874 2.36084 10.6121 2.36084 14.1657V17.7295L0.488196 19.6524C0.322158 19.8227 0.229492 20.0509 0.229492 20.2888V23.0035C0.229492 23.491 0.624975 23.8867 1.11272 23.8867H7.00489C7.00956 25.838 8.7219 27.548 10.6738 27.548C12.6258 27.548 14.3384 25.838 14.3428 23.8867H20.235C20.7225 23.8867 21.1182 23.4913 21.1182 23.0035V20.2888C21.1182 20.0507 21.0253 19.8223 20.8595 19.652H20.8589ZM10.6738 25.7814C9.63008 25.7814 8.77616 24.7977 8.77149 23.8863H12.5766C12.5717 24.7973 11.7178 25.7814 10.6738 25.7814ZM19.3514 22.1197H1.99625V20.6353L4.12762 18.4471V14.1653C4.12762 10.9457 6.25899 8.30029 9.30344 7.65591V7.02908C9.30344 6.26783 9.91247 5.60174 10.6735 5.60174C11.4347 5.60174 12.0436 6.26783 12.0436 7.02908V7.65591C15.0884 8.30012 17.2198 10.9457 17.2198 14.1653V18.4471L19.3512 20.6353L19.3514 22.1197Z" fill="url(#paint2_linear_3819_28410)"/>
<path d="M20.8589 19.652L18.9863 17.7291V14.1657C18.9863 10.6124 16.8842 7.55863 13.733 6.32418C13.4169 4.90151 12.1649 3.83594 10.6736 3.83594C9.18222 3.83594 7.93066 4.90151 7.61407 6.32418C4.46316 7.55874 2.36084 10.6121 2.36084 14.1657V17.7295L0.488196 19.6524C0.322158 19.8227 0.229492 20.0509 0.229492 20.2888V23.0035C0.229492 23.491 0.624975 23.8867 1.11272 23.8867H7.00489C7.00956 25.838 8.7219 27.548 10.6738 27.548C12.6258 27.548 14.3384 25.838 14.3428 23.8867H20.235C20.7225 23.8867 21.1182 23.4913 21.1182 23.0035V20.2888C21.1182 20.0507 21.0253 19.8223 20.8595 19.652H20.8589ZM10.6738 25.7814C9.63008 25.7814 8.77616 24.7977 8.77149 23.8863H12.5766C12.5717 24.7973 11.7178 25.7814 10.6738 25.7814ZM19.3514 22.1197H1.99625V20.6353L4.12762 18.4471V14.1653C4.12762 10.9457 6.25899 8.30029 9.30344 7.65591V7.02908C9.30344 6.26783 9.91247 5.60174 10.6735 5.60174C11.4347 5.60174 12.0436 6.26783 12.0436 7.02908V7.65591C15.0884 8.30012 17.2198 10.9457 17.2198 14.1653V18.4471L19.3512 20.6353L19.3514 22.1197Z" fill="black" fill-opacity="0.2"/>
<defs>
<linearGradient id="paint0_linear_3819_28410" x1="18.881" y1="3.73438" x2="18.881" y2="12.5991" gradientUnits="userSpaceOnUse">
<stop stop-color="#FF0F0F"/>
<stop offset="1" stop-color="#FF4849"/>
</linearGradient>
<linearGradient id="paint1_linear_3819_28410" x1="21.3292" y1="0.453125" x2="21.3292" y2="12.5797" gradientUnits="userSpaceOnUse">
<stop stop-color="#FF0F0F"/>
<stop offset="1" stop-color="#FF4849"/>
</linearGradient>
<linearGradient id="paint2_linear_3819_28410" x1="10.6738" y1="3.83594" x2="10.6738" y2="27.548" gradientUnits="userSpaceOnUse">
<stop stop-color="#FF0F0F"/>
<stop offset="1" stop-color="#FF4849"/>
</linearGradient>
</defs>
</svg>