<svg width="38" height="38" viewBox="0 0 33 34" fill="none" xmlns="http://www.w3.org/2000/svg">
<path d="M32.9888 16.9937C32.9884 16.8129 32.9388 16.6354 32.8455 16.4805C32.7522 16.3254 32.6185 16.1988 32.4589 16.1138L27.5489 13.4937L32.4589 10.8735C32.6748 10.7599 32.842 10.5713 32.9283 10.343C33.0149 10.1146 33.0149 9.8626 32.9283 9.63427C32.842 9.40614 32.6748 9.2173 32.4589 9.10368L17.4589 1.10368C17.1649 0.94721 16.8127 0.94721 16.5187 1.10368L1.51875 9.10368C1.3029 9.2173 1.13571 9.40614 1.04933 9.63427C0.962724 9.86262 0.962724 10.1146 1.04933 10.343C1.13571 10.5713 1.3029 10.7599 1.51875 10.8735L6.4288 13.4937L1.51875 16.1138C1.3029 16.2274 1.13571 16.416 1.04933 16.6443C0.962724 16.8727 0.962724 17.1247 1.04933 17.353C1.13571 17.5812 1.3029 17.77 1.51875 17.8836L6.4288 20.4937L1.51875 23.1138C1.3029 23.2274 1.13571 23.416 1.04933 23.6444C0.962724 23.8727 0.962724 24.1247 1.04933 24.3531C1.13571 24.5812 1.3029 24.77 1.51875 24.8836L16.5187 32.8836C16.8127 33.0401 17.165 33.0401 17.4589 32.8836L32.4589 24.8836C32.6748 24.77 32.842 24.5812 32.9283 24.3531C33.0149 24.1247 33.0149 23.8727 32.9283 23.6444C32.842 23.416 32.6748 23.2274 32.4589 23.1138L27.5489 20.4937L32.4589 17.8736C32.6185 17.7885 32.7522 17.662 32.8455 17.5068C32.9388 17.3519 32.9884 17.1745 32.9888 16.9937ZM4.11854 9.99368L16.9888 3.12339L29.8688 9.99368L16.9888 16.864L4.11854 9.99368ZM29.8683 23.9937L16.9883 30.864L4.11797 23.9937L8.55791 21.6236L16.5579 25.8736H16.5581C16.8519 26.03 17.2044 26.03 17.4981 25.8736L25.4981 21.6236L29.8683 23.9937ZM16.9883 23.8638L4.11797 16.9935L8.55791 14.6234L16.5579 18.8734H16.5581C16.8519 19.0298 17.2044 19.0298 17.4981 18.8734L25.4981 14.6234L29.868 16.9935L16.9883 23.8638Z" fill="url(#paint0_linear_4087_27296)"/>
<defs>
<linearGradient id="paint0_linear_4087_27296" x1="25.9228" y1="0.986328" x2="25.7761" y2="39.8616" gradientUnits="userSpaceOnUse">
<stop stop-color="#005CAA"/>
<stop offset="1" stop-color="#64B0F1"/>
</linearGradient>
</defs>
</svg>