<svg width="34" height="38" viewBox="0 0 34 33" fill="none"
                                xmlns="http://www.w3.org/2000/svg">
                                <path
                                    d="M29.6362 7.7067L29.7688 7.81943L29.941 7.84378C30.6979 7.95076 31.3901 8.3293 31.8885 8.90886C32.3869 9.48841 32.6576 10.2294 32.65 10.9938H32.65V10.9997V28.4997C32.65 29.3351 32.3181 30.1363 31.7274 30.7271C31.1367 31.3178 30.3354 31.6497 29.5 31.6497H4.5C3.66457 31.6497 2.86335 31.3178 2.27261 30.7271C1.68187 30.1363 1.35 29.3351 1.35 28.4997V11.002C1.35601 10.2458 1.63384 9.51703 2.13277 8.94875C2.63216 8.37995 3.31966 8.00999 4.06948 7.90656L4.27085 7.87878L4.41387 7.73434L10.6621 1.42366C11.0179 1.07075 11.4988 0.872705 12 0.872705C12.5016 0.872705 12.9829 1.07109 13.3388 1.42455C13.3391 1.42477 13.3393 1.42499 13.3395 1.42521L15.4382 3.52395L15.806 3.89169L16.2222 3.5799L19.5597 1.0799L19.56 1.07967C19.9056 0.820476 20.3291 0.686767 20.7609 0.700582C21.1926 0.714398 21.6068 0.874914 21.935 1.15567L21.9362 1.1567L29.6362 7.7067ZM30.75 22.8497H31.35V22.2497V17.2497V16.6497H30.75H28.25C27.4278 16.6497 26.6393 16.9763 26.058 17.5577C25.4766 18.139 25.15 18.9275 25.15 19.7497C25.15 20.5719 25.4766 21.3604 26.058 21.9417C26.6393 22.5231 27.4278 22.8497 28.25 22.8497H30.75ZM21.1426 2.14593L20.7798 1.83206L20.3938 2.1169L17.2938 4.4044L16.7327 4.81841L17.2257 5.31145L19.5882 7.67395L19.764 7.84969H20.0125H26.125H27.7356L26.5176 6.79593L21.1426 2.14593ZM12.4243 2.33792L12 1.91366L11.5757 2.33792L7.08824 6.82542L6.06397 7.84969H7.5125H16.4875H17.936L16.9118 6.82542L12.4243 2.33792ZM30.75 15.3497H31.35V14.7497V10.9997C31.35 10.509 31.1551 10.0385 30.8082 9.69154C30.4612 9.3446 29.9907 9.14969 29.5 9.14969H4.5C4.00935 9.14969 3.53879 9.3446 3.19185 9.69154C2.84491 10.0385 2.65 10.509 2.65 10.9997V28.4997C2.65 28.9903 2.84491 29.4609 3.19185 29.8078C3.5388 30.1548 4.00935 30.3497 4.5 30.3497H29.5C29.9907 30.3497 30.4612 30.1548 30.8082 29.8078C31.1551 29.4609 31.35 28.9903 31.35 28.4997V24.7497V24.1497H30.75H28.25C27.083 24.1497 25.9639 23.6861 25.1387 22.861C24.3136 22.0358 23.85 20.9166 23.85 19.7497C23.85 18.5827 24.3136 17.4636 25.1387 16.6384C25.9639 15.8133 27.083 15.3497 28.25 15.3497H30.75Z"
                                    stroke="#CC1212" stroke-width="1.2" />
                                <path
                                    d="M28.9 19.746H28.9V19.7495C28.9 19.9219 28.8315 20.0872 28.7096 20.2091C28.5877 20.331 28.4224 20.3995 28.25 20.3995C28.0776 20.3995 27.9123 20.331 27.7904 20.2091C27.6695 20.0882 27.6011 19.9245 27.6 19.7536C27.6035 19.5774 27.6721 19.4088 27.7926 19.2803C27.8829 19.1909 27.9975 19.1299 28.1222 19.1049C28.2488 19.0795 28.38 19.0924 28.4993 19.1419C28.6185 19.1914 28.7203 19.2753 28.7917 19.3829C28.863 19.4905 28.9008 19.6169 28.9 19.746Z"
                                    stroke="#CC1212" stroke-width="1.2" />
                            </svg>