<svg width="38" height="38" viewBox="0 0 21 25" fill="none" xmlns="http://www.w3.org/2000/svg">
<path d="M14.6668 6.34055C14.6668 6.57258 14.651 6.80462 14.622 7.03401C14.6351 6.94173 14.6483 6.8468 14.6589 6.75452C14.5956 7.21331 14.4743 7.65891 14.2976 8.08606C14.3319 8.00169 14.3688 7.91731 14.4031 7.83294C14.2265 8.24954 13.9997 8.63977 13.7228 8.99837L13.889 8.78479C13.6147 9.13811 13.2957 9.45715 12.9424 9.73137L13.1559 9.56526C12.7974 9.83948 12.4071 10.0689 11.9905 10.2455C12.0749 10.2113 12.1593 10.1743 12.2436 10.1401C11.8165 10.3167 11.3709 10.438 10.9121 10.5013C11.0044 10.4881 11.0993 10.4749 11.1916 10.4644C10.7302 10.525 10.2661 10.525 9.80468 10.4644C9.89696 10.4776 9.99188 10.4907 10.0842 10.5013C9.62538 10.438 9.17977 10.3167 8.75263 10.1401C8.837 10.1743 8.92138 10.2113 9.00575 10.2455C8.58915 10.0689 8.19892 9.84212 7.84032 9.56526L8.0539 9.73137C7.70058 9.45715 7.38153 9.13811 7.10731 8.78479L7.27343 8.99837C6.99921 8.63977 6.76981 8.24954 6.59315 7.83294C6.62743 7.91731 6.66434 8.00169 6.69862 8.08606C6.52196 7.65891 6.40067 7.21331 6.33739 6.75452C6.35058 6.8468 6.36376 6.94173 6.37431 7.03401C6.31366 6.57258 6.31366 6.10852 6.37431 5.6471C6.36112 5.73938 6.34794 5.8343 6.33739 5.92659C6.40067 5.4678 6.52196 5.02219 6.69862 4.59505C6.66434 4.67942 6.62743 4.7638 6.59315 4.84817C6.76981 4.43157 6.99657 4.04134 7.27343 3.68274L7.10731 3.89632C7.38153 3.543 7.70058 3.22395 8.0539 2.94973L7.84032 3.11585C8.19892 2.84163 8.58915 2.61223 9.00575 2.43557C8.92138 2.46985 8.837 2.50676 8.75263 2.54104C9.17977 2.36438 9.62538 2.24309 10.0842 2.17981C9.99188 2.193 9.89696 2.20618 9.80468 2.21673C10.2661 2.15608 10.7302 2.15608 11.1916 2.21673C11.0993 2.20354 11.0044 2.19036 10.9121 2.17981C11.3709 2.24309 11.8165 2.36438 12.2436 2.54104C12.1593 2.50676 12.0749 2.46985 11.9905 2.43557C12.4071 2.61223 12.7974 2.83899 13.1559 3.11585L12.9424 2.94973C13.2957 3.22395 13.6147 3.543 13.889 3.89632L13.7228 3.68274C13.9971 4.04134 14.2265 4.43157 14.4031 4.84817C14.3688 4.7638 14.3319 4.67942 14.2976 4.59505C14.4743 5.02219 14.5956 5.4678 14.6589 5.92659C14.6457 5.8343 14.6325 5.73938 14.622 5.6471C14.651 5.87649 14.6641 6.10852 14.6668 6.34055C14.6694 6.89163 15.1493 7.42161 15.7215 7.39524C16.291 7.36887 16.7788 6.93118 16.7762 6.34055C16.7709 5.07757 16.3912 3.78557 15.6476 2.75725C15.4473 2.4804 15.2337 2.20882 14.9964 1.9636C14.7564 1.71575 14.4928 1.50217 14.2185 1.29387C13.7202 0.914187 13.1639 0.634695 12.5732 0.418484C10.1923 -0.45427 7.32089 0.323562 5.70985 2.28528C5.48837 2.55423 5.27743 2.83372 5.09813 3.1343C4.91884 3.43225 4.77909 3.74866 4.64989 4.07034C4.40731 4.66624 4.28339 5.29905 4.23329 5.93977C4.13573 7.19485 4.46268 8.5053 5.11659 9.58108C5.74677 10.6199 6.69862 11.5112 7.81132 12.0148C8.13827 12.1624 8.47313 12.2995 8.82118 12.3971C9.16659 12.492 9.51727 12.5448 9.87323 12.5869C10.5219 12.6634 11.1837 12.6107 11.8244 12.4815C14.2581 11.9858 16.2963 9.88958 16.6733 7.42952C16.7287 7.07092 16.7709 6.71233 16.7709 6.34846C16.7735 5.79739 16.2831 5.26741 15.7162 5.29378C15.1467 5.31223 14.6668 5.74993 14.6668 6.34055ZM18.1657 22.828H4.63671C4.03817 22.828 3.43964 22.8332 2.8411 22.828C2.77518 22.828 2.70927 22.8227 2.64599 22.8148C2.73827 22.828 2.83319 22.8411 2.92548 22.8517C2.82001 22.8359 2.71981 22.8069 2.62225 22.7673C2.70663 22.8016 2.791 22.8385 2.87538 22.8728C2.76991 22.828 2.67235 22.7699 2.58007 22.6988L2.79364 22.8649C2.71454 22.7989 2.64071 22.7278 2.57743 22.6487L2.74354 22.8622C2.67235 22.7699 2.61698 22.6724 2.56952 22.5669C2.6038 22.6513 2.64071 22.7357 2.67499 22.82C2.63544 22.7225 2.60907 22.6197 2.59061 22.5168C2.6038 22.6091 2.61698 22.704 2.62753 22.7963C2.58534 22.4773 2.61434 22.1398 2.61434 21.8181V20.6896C2.61434 20.4074 2.63016 20.128 2.66708 19.8485C2.6539 19.9407 2.64071 20.0357 2.63017 20.128C2.70399 19.5874 2.84638 19.0574 3.05995 18.5538C3.02567 18.6382 2.98876 18.7226 2.95448 18.807C3.16015 18.3271 3.42382 17.8762 3.74286 17.4622L3.57675 17.6758C3.89579 17.2671 4.26229 16.898 4.67362 16.5789L4.46005 16.745C4.87401 16.426 5.32489 16.1623 5.80477 15.9567C5.7204 15.9909 5.63602 16.0279 5.55165 16.0621C6.05526 15.8512 6.58261 15.7062 7.12577 15.6323C7.03349 15.6455 6.93856 15.6587 6.84628 15.6693C7.23651 15.6192 7.62411 15.6165 8.01698 15.6165H12.8422C13.2772 15.6165 13.7097 15.6139 14.1447 15.6693C14.0524 15.6561 13.9575 15.6429 13.8652 15.6323C14.4058 15.7062 14.9357 15.8486 15.4393 16.0621C15.355 16.0279 15.2706 15.9909 15.1862 15.9567C15.6661 16.1623 16.117 16.426 16.5309 16.745L16.3174 16.5789C16.7261 16.898 17.0952 17.2645 17.4142 17.6758L17.2481 17.4622C17.5672 17.8762 17.8308 18.3271 18.0365 18.807C18.0022 18.7226 17.9653 18.6382 17.931 18.5538C18.142 19.0574 18.287 19.5848 18.3608 20.128C18.3476 20.0357 18.3345 19.9407 18.3239 19.8485C18.374 20.2466 18.3766 20.6421 18.3766 21.0429V22.3481C18.3766 22.4984 18.3819 22.6487 18.3635 22.7963C18.3766 22.704 18.3898 22.6091 18.4004 22.5168C18.3846 22.6223 18.3556 22.7225 18.316 22.82C18.3503 22.7357 18.3872 22.6513 18.4215 22.5669C18.3766 22.6724 18.3186 22.7699 18.2475 22.8622L18.4136 22.6487C18.3476 22.7278 18.2765 22.8016 18.1974 22.8649L18.4109 22.6988C18.3186 22.7699 18.2211 22.8253 18.1156 22.8728C18.2 22.8385 18.2844 22.8016 18.3687 22.7673C18.2712 22.8069 18.1683 22.8332 18.0655 22.8517C18.1578 22.8385 18.2527 22.8253 18.345 22.8148C18.287 22.8227 18.2264 22.8253 18.1657 22.828C17.8941 22.8306 17.6146 22.944 17.4195 23.1365C17.2376 23.3184 17.0978 23.619 17.111 23.8826C17.1374 24.4469 17.5751 24.9452 18.1657 24.9373C19.1914 24.9215 20.0932 24.2518 20.3937 23.2683C20.5124 22.8781 20.486 22.4588 20.486 22.058C20.486 21.1405 20.515 20.2308 20.3568 19.3211C20.1248 17.9896 19.4551 16.7371 18.5375 15.7536C17.6199 14.7701 16.3859 14.0477 15.0808 13.726C14.3319 13.5414 13.5778 13.5124 12.8132 13.5124H8.13563C7.35253 13.5124 6.5747 13.5493 5.81268 13.7524C4.51806 14.0951 3.29989 14.8255 2.40077 15.8169C1.49374 16.8162 0.837196 18.0713 0.623622 19.4108C0.481239 20.3099 0.510243 21.2116 0.510243 22.1187C0.510243 22.5353 0.486512 22.9703 0.636805 23.3685C0.831923 23.88 1.14306 24.2834 1.59921 24.5866C1.95516 24.8213 2.40604 24.9347 2.82792 24.94C3.03358 24.9426 3.23925 24.94 3.44491 24.94H18.1683C18.7194 24.94 19.2494 24.4548 19.223 23.8853C19.1967 23.3105 18.759 22.828 18.1657 22.828Z" fill="url(#paint0_linear_3240_13288)"/>
<path d="M14.6668 6.34055C14.6668 6.57258 14.651 6.80462 14.622 7.03401C14.6351 6.94173 14.6483 6.8468 14.6589 6.75452C14.5956 7.21331 14.4743 7.65891 14.2976 8.08606C14.3319 8.00169 14.3688 7.91731 14.4031 7.83294C14.2265 8.24954 13.9997 8.63977 13.7228 8.99837L13.889 8.78479C13.6147 9.13811 13.2957 9.45715 12.9424 9.73137L13.1559 9.56526C12.7974 9.83948 12.4071 10.0689 11.9905 10.2455C12.0749 10.2113 12.1593 10.1743 12.2436 10.1401C11.8165 10.3167 11.3709 10.438 10.9121 10.5013C11.0044 10.4881 11.0993 10.4749 11.1916 10.4644C10.7302 10.525 10.2661 10.525 9.80468 10.4644C9.89696 10.4776 9.99188 10.4907 10.0842 10.5013C9.62538 10.438 9.17977 10.3167 8.75263 10.1401C8.837 10.1743 8.92138 10.2113 9.00575 10.2455C8.58915 10.0689 8.19892 9.84212 7.84032 9.56526L8.0539 9.73137C7.70058 9.45715 7.38153 9.13811 7.10731 8.78479L7.27343 8.99837C6.99921 8.63977 6.76981 8.24954 6.59315 7.83294C6.62743 7.91731 6.66434 8.00169 6.69862 8.08606C6.52196 7.65891 6.40067 7.21331 6.33739 6.75452C6.35058 6.8468 6.36376 6.94173 6.37431 7.03401C6.31366 6.57258 6.31366 6.10852 6.37431 5.6471C6.36112 5.73938 6.34794 5.8343 6.33739 5.92659C6.40067 5.4678 6.52196 5.02219 6.69862 4.59505C6.66434 4.67942 6.62743 4.7638 6.59315 4.84817C6.76981 4.43157 6.99657 4.04134 7.27343 3.68274L7.10731 3.89632C7.38153 3.543 7.70058 3.22395 8.0539 2.94973L7.84032 3.11585C8.19892 2.84163 8.58915 2.61223 9.00575 2.43557C8.92138 2.46985 8.837 2.50676 8.75263 2.54104C9.17977 2.36438 9.62538 2.24309 10.0842 2.17981C9.99188 2.193 9.89696 2.20618 9.80468 2.21673C10.2661 2.15608 10.7302 2.15608 11.1916 2.21673C11.0993 2.20354 11.0044 2.19036 10.9121 2.17981C11.3709 2.24309 11.8165 2.36438 12.2436 2.54104C12.1593 2.50676 12.0749 2.46985 11.9905 2.43557C12.4071 2.61223 12.7974 2.83899 13.1559 3.11585L12.9424 2.94973C13.2957 3.22395 13.6147 3.543 13.889 3.89632L13.7228 3.68274C13.9971 4.04134 14.2265 4.43157 14.4031 4.84817C14.3688 4.7638 14.3319 4.67942 14.2976 4.59505C14.4743 5.02219 14.5956 5.4678 14.6589 5.92659C14.6457 5.8343 14.6325 5.73938 14.622 5.6471C14.651 5.87649 14.6641 6.10852 14.6668 6.34055C14.6694 6.89163 15.1493 7.42161 15.7215 7.39524C16.291 7.36887 16.7788 6.93118 16.7762 6.34055C16.7709 5.07757 16.3912 3.78557 15.6476 2.75725C15.4473 2.4804 15.2337 2.20882 14.9964 1.9636C14.7564 1.71575 14.4928 1.50217 14.2185 1.29387C13.7202 0.914187 13.1639 0.634695 12.5732 0.418484C10.1923 -0.45427 7.32089 0.323562 5.70985 2.28528C5.48837 2.55423 5.27743 2.83372 5.09813 3.1343C4.91884 3.43225 4.77909 3.74866 4.64989 4.07034C4.40731 4.66624 4.28339 5.29905 4.23329 5.93977C4.13573 7.19485 4.46268 8.5053 5.11659 9.58108C5.74677 10.6199 6.69862 11.5112 7.81132 12.0148C8.13827 12.1624 8.47313 12.2995 8.82118 12.3971C9.16659 12.492 9.51727 12.5448 9.87323 12.5869C10.5219 12.6634 11.1837 12.6107 11.8244 12.4815C14.2581 11.9858 16.2963 9.88958 16.6733 7.42952C16.7287 7.07092 16.7709 6.71233 16.7709 6.34846C16.7735 5.79739 16.2831 5.26741 15.7162 5.29378C15.1467 5.31223 14.6668 5.74993 14.6668 6.34055ZM18.1657 22.828H4.63671C4.03817 22.828 3.43964 22.8332 2.8411 22.828C2.77518 22.828 2.70927 22.8227 2.64599 22.8148C2.73827 22.828 2.83319 22.8411 2.92548 22.8517C2.82001 22.8359 2.71981 22.8069 2.62225 22.7673C2.70663 22.8016 2.791 22.8385 2.87538 22.8728C2.76991 22.828 2.67235 22.7699 2.58007 22.6988L2.79364 22.8649C2.71454 22.7989 2.64071 22.7278 2.57743 22.6487L2.74354 22.8622C2.67235 22.7699 2.61698 22.6724 2.56952 22.5669C2.6038 22.6513 2.64071 22.7357 2.67499 22.82C2.63544 22.7225 2.60907 22.6197 2.59061 22.5168C2.6038 22.6091 2.61698 22.704 2.62753 22.7963C2.58534 22.4773 2.61434 22.1398 2.61434 21.8181V20.6896C2.61434 20.4074 2.63016 20.128 2.66708 19.8485C2.6539 19.9407 2.64071 20.0357 2.63017 20.128C2.70399 19.5874 2.84638 19.0574 3.05995 18.5538C3.02567 18.6382 2.98876 18.7226 2.95448 18.807C3.16015 18.3271 3.42382 17.8762 3.74286 17.4622L3.57675 17.6758C3.89579 17.2671 4.26229 16.898 4.67362 16.5789L4.46005 16.745C4.87401 16.426 5.32489 16.1623 5.80477 15.9567C5.7204 15.9909 5.63602 16.0279 5.55165 16.0621C6.05526 15.8512 6.58261 15.7062 7.12577 15.6323C7.03349 15.6455 6.93856 15.6587 6.84628 15.6693C7.23651 15.6192 7.62411 15.6165 8.01698 15.6165H12.8422C13.2772 15.6165 13.7097 15.6139 14.1447 15.6693C14.0524 15.6561 13.9575 15.6429 13.8652 15.6323C14.4058 15.7062 14.9357 15.8486 15.4393 16.0621C15.355 16.0279 15.2706 15.9909 15.1862 15.9567C15.6661 16.1623 16.117 16.426 16.5309 16.745L16.3174 16.5789C16.7261 16.898 17.0952 17.2645 17.4142 17.6758L17.2481 17.4622C17.5672 17.8762 17.8308 18.3271 18.0365 18.807C18.0022 18.7226 17.9653 18.6382 17.931 18.5538C18.142 19.0574 18.287 19.5848 18.3608 20.128C18.3476 20.0357 18.3345 19.9407 18.3239 19.8485C18.374 20.2466 18.3766 20.6421 18.3766 21.0429V22.3481C18.3766 22.4984 18.3819 22.6487 18.3635 22.7963C18.3766 22.704 18.3898 22.6091 18.4004 22.5168C18.3846 22.6223 18.3556 22.7225 18.316 22.82C18.3503 22.7357 18.3872 22.6513 18.4215 22.5669C18.3766 22.6724 18.3186 22.7699 18.2475 22.8622L18.4136 22.6487C18.3476 22.7278 18.2765 22.8016 18.1974 22.8649L18.4109 22.6988C18.3186 22.7699 18.2211 22.8253 18.1156 22.8728C18.2 22.8385 18.2844 22.8016 18.3687 22.7673C18.2712 22.8069 18.1683 22.8332 18.0655 22.8517C18.1578 22.8385 18.2527 22.8253 18.345 22.8148C18.287 22.8227 18.2264 22.8253 18.1657 22.828C17.8941 22.8306 17.6146 22.944 17.4195 23.1365C17.2376 23.3184 17.0978 23.619 17.111 23.8826C17.1374 24.4469 17.5751 24.9452 18.1657 24.9373C19.1914 24.9215 20.0932 24.2518 20.3937 23.2683C20.5124 22.8781 20.486 22.4588 20.486 22.058C20.486 21.1405 20.515 20.2308 20.3568 19.3211C20.1248 17.9896 19.4551 16.7371 18.5375 15.7536C17.6199 14.7701 16.3859 14.0477 15.0808 13.726C14.3319 13.5414 13.5778 13.5124 12.8132 13.5124H8.13563C7.35253 13.5124 6.5747 13.5493 5.81268 13.7524C4.51806 14.0951 3.29989 14.8255 2.40077 15.8169C1.49374 16.8162 0.837196 18.0713 0.623622 19.4108C0.481239 20.3099 0.510243 21.2116 0.510243 22.1187C0.510243 22.5353 0.486512 22.9703 0.636805 23.3685C0.831923 23.88 1.14306 24.2834 1.59921 24.5866C1.95516 24.8213 2.40604 24.9347 2.82792 24.94C3.03358 24.9426 3.23925 24.94 3.44491 24.94H18.1683C18.7194 24.94 19.2494 24.4548 19.223 23.8853C19.1967 23.3105 18.759 22.828 18.1657 22.828Z" fill="black" fill-opacity="0.2"/>
<defs>
<linearGradient id="paint0_linear_3240_13288" x1="10.4982" y1="0.0632324" x2="10.4982" y2="24.9411" gradientUnits="userSpaceOnUse">
<stop stop-color="#FF0F0F"/>
<stop offset="1" stop-color="#FF4849"/>
</linearGradient>
</defs>
</svg>