<svg width="38" height="38" viewBox="0 0 21 25" fill="none" xmlns="http://www.w3.org/2000/svg">
<path d="M14.6668 6.33982C14.6668 6.57185 14.651 6.80388 14.622 7.03328C14.6351 6.94099 14.6483 6.84607 14.6589 6.75379C14.5956 7.21257 14.4743 7.65818 14.2976 8.08533C14.3319 8.00095 14.3688 7.91658 14.4031 7.8322C14.2265 8.24881 13.9997 8.63904 13.7228 8.99763L13.889 8.78406C13.6147 9.13738 13.2957 9.45642 12.9424 9.73064L13.1559 9.56453C12.7974 9.83875 12.4071 10.0681 11.9905 10.2448C12.0749 10.2105 12.1593 10.1736 12.2436 10.1393C11.8165 10.316 11.3709 10.4373 10.9121 10.5006C11.0044 10.4874 11.0993 10.4742 11.1916 10.4636C10.7302 10.5243 10.2661 10.5243 9.80468 10.4636C9.89696 10.4768 9.99188 10.49 10.0842 10.5006C9.62538 10.4373 9.17977 10.316 8.75263 10.1393C8.837 10.1736 8.92138 10.2105 9.00575 10.2448C8.58915 10.0681 8.19892 9.84138 7.84032 9.56453L8.0539 9.73064C7.70058 9.45642 7.38153 9.13738 7.10731 8.78406L7.27343 8.99763C6.99921 8.63904 6.76981 8.24881 6.59315 7.8322C6.62743 7.91658 6.66434 8.00095 6.69862 8.08533C6.52196 7.65818 6.40067 7.21257 6.33739 6.75379C6.35058 6.84607 6.36376 6.94099 6.37431 7.03328C6.31366 6.57185 6.31366 6.10779 6.37431 5.64636C6.36112 5.73865 6.34794 5.83357 6.33739 5.92586C6.40067 5.46707 6.52196 5.02146 6.69862 4.59431C6.66434 4.67869 6.62743 4.76306 6.59315 4.84744C6.76981 4.43084 6.99657 4.0406 7.27343 3.68201L7.10731 3.89558C7.38153 3.54226 7.70058 3.22322 8.0539 2.949L7.84032 3.11511C8.19892 2.8409 8.58915 2.6115 9.00575 2.43484C8.92138 2.46912 8.837 2.50603 8.75263 2.54031C9.17977 2.36365 9.62538 2.24236 10.0842 2.17908C9.99188 2.19226 9.89696 2.20545 9.80468 2.21599C10.2661 2.15535 10.7302 2.15535 11.1916 2.21599C11.0993 2.20281 11.0044 2.18963 10.9121 2.17908C11.3709 2.24236 11.8165 2.36365 12.2436 2.54031C12.1593 2.50603 12.0749 2.46912 11.9905 2.43484C12.4071 2.6115 12.7974 2.83826 13.1559 3.11511L12.9424 2.949C13.2957 3.22322 13.6147 3.54226 13.889 3.89558L13.7228 3.68201C13.9971 4.0406 14.2265 4.43084 14.4031 4.84744C14.3688 4.76306 14.3319 4.67869 14.2976 4.59431C14.4743 5.02146 14.5956 5.46707 14.6589 5.92586C14.6457 5.83357 14.6325 5.73865 14.622 5.64636C14.651 5.87576 14.6641 6.10779 14.6668 6.33982C14.6694 6.8909 15.1493 7.42088 15.7215 7.39451C16.291 7.36814 16.7788 6.93045 16.7762 6.33982C16.7709 5.07683 16.3912 3.78484 15.6476 2.75652C15.4473 2.47967 15.2337 2.20808 14.9964 1.96287C14.7564 1.71502 14.4928 1.50144 14.2185 1.29314C13.7202 0.913454 13.1639 0.633962 12.5732 0.417751C10.1923 -0.455003 7.32089 0.322829 5.70985 2.28455C5.48837 2.55349 5.27743 2.83299 5.09813 3.13357C4.91884 3.43152 4.77909 3.74793 4.64989 4.06961C4.40731 4.6655 4.28339 5.29832 4.23329 5.93904C4.13573 7.19412 4.46268 8.50457 5.11659 9.58035C5.74677 10.6192 6.69862 11.5104 7.81132 12.014C8.13827 12.1617 8.47313 12.2988 8.82118 12.3964C9.16659 12.4913 9.51727 12.544 9.87323 12.5862C10.5219 12.6627 11.1837 12.6099 11.8244 12.4807C14.2581 11.985 16.2963 9.88884 16.6733 7.42879C16.7287 7.07019 16.7709 6.7116 16.7709 6.34773C16.7735 5.79666 16.2831 5.26668 15.7162 5.29304C15.1467 5.3115 14.6668 5.7492 14.6668 6.33982ZM18.1657 22.8272H4.63671C4.03817 22.8272 3.43964 22.8325 2.8411 22.8272C2.77518 22.8272 2.70927 22.8219 2.64599 22.814C2.73827 22.8272 2.83319 22.8404 2.92548 22.851C2.82001 22.8351 2.71981 22.8061 2.62225 22.7666C2.70663 22.8009 2.791 22.8378 2.87538 22.872C2.76991 22.8272 2.67235 22.7692 2.58007 22.698L2.79364 22.8641C2.71454 22.7982 2.64071 22.727 2.57743 22.6479L2.74354 22.8615C2.67235 22.7692 2.61698 22.6717 2.56952 22.5662C2.6038 22.6506 2.64071 22.7349 2.67499 22.8193C2.63544 22.7218 2.60907 22.6189 2.59061 22.5161C2.6038 22.6084 2.61698 22.7033 2.62753 22.7956C2.58534 22.4765 2.61434 22.139 2.61434 21.8174V20.6888C2.61434 20.4067 2.63016 20.1272 2.66708 19.8477C2.6539 19.94 2.64071 20.0349 2.63017 20.1272C2.70399 19.5867 2.84638 19.0567 3.05995 18.5531C3.02567 18.6375 2.98876 18.7219 2.95448 18.8062C3.16015 18.3263 3.42382 17.8755 3.74286 17.4615L3.57675 17.6751C3.89579 17.2664 4.26229 16.8972 4.67362 16.5782L4.46005 16.7443C4.87401 16.4253 5.32489 16.1616 5.80477 15.9559C5.7204 15.9902 5.63602 16.0271 5.55165 16.0614C6.05526 15.8505 6.58261 15.7054 7.12577 15.6316C7.03349 15.6448 6.93856 15.658 6.84628 15.6685C7.23651 15.6184 7.62411 15.6158 8.01698 15.6158H12.8422C13.2772 15.6158 13.7097 15.6132 14.1447 15.6685C14.0524 15.6553 13.9575 15.6422 13.8652 15.6316C14.4058 15.7054 14.9357 15.8478 15.4393 16.0614C15.355 16.0271 15.2706 15.9902 15.1862 15.9559C15.6661 16.1616 16.117 16.4253 16.5309 16.7443L16.3174 16.5782C16.7261 16.8972 17.0952 17.2637 17.4142 17.6751L17.2481 17.4615C17.5672 17.8755 17.8308 18.3263 18.0365 18.8062C18.0022 18.7219 17.9653 18.6375 17.931 18.5531C18.142 19.0567 18.287 19.5841 18.3608 20.1272C18.3476 20.0349 18.3345 19.94 18.3239 19.8477C18.374 20.2459 18.3766 20.6414 18.3766 21.0422V22.3473C18.3766 22.4976 18.3819 22.6479 18.3635 22.7956C18.3766 22.7033 18.3898 22.6084 18.4004 22.5161C18.3846 22.6216 18.3556 22.7218 18.316 22.8193C18.3503 22.7349 18.3872 22.6506 18.4215 22.5662C18.3766 22.6717 18.3186 22.7692 18.2475 22.8615L18.4136 22.6479C18.3476 22.727 18.2765 22.8009 18.1974 22.8641L18.4109 22.698C18.3186 22.7692 18.2211 22.8246 18.1156 22.872C18.2 22.8378 18.2844 22.8009 18.3687 22.7666C18.2712 22.8061 18.1683 22.8325 18.0655 22.851C18.1578 22.8378 18.2527 22.8246 18.345 22.814C18.287 22.8219 18.2264 22.8246 18.1657 22.8272C17.8941 22.8299 17.6146 22.9432 17.4195 23.1357C17.2376 23.3177 17.0978 23.6182 17.111 23.8819C17.1374 24.4462 17.5751 24.9445 18.1657 24.9366C19.1914 24.9208 20.0932 24.2511 20.3937 23.2676C20.5124 22.8773 20.486 22.4581 20.486 22.0573C20.486 21.1397 20.515 20.2301 20.3568 19.3204C20.1248 17.9888 19.4551 16.7364 18.5375 15.7529C17.6199 14.7694 16.3859 14.0469 15.0808 13.7253C14.3319 13.5407 13.5778 13.5117 12.8132 13.5117H8.13563C7.35253 13.5117 6.5747 13.5486 5.81268 13.7516C4.51806 14.0944 3.29989 14.8248 2.40077 15.8162C1.49374 16.8155 0.837196 18.0706 0.623622 19.41C0.481239 20.3092 0.510243 21.2109 0.510243 22.1179C0.510243 22.5345 0.486512 22.9696 0.636805 23.3678C0.831923 23.8793 1.14306 24.2827 1.59921 24.5859C1.95516 24.8206 2.40604 24.934 2.82792 24.9392C3.03358 24.9419 3.23925 24.9392 3.44491 24.9392H18.1684C18.7194 24.9392 19.2494 24.4541 19.223 23.8845C19.1967 23.3097 18.759 22.8272 18.1657 22.8272Z" fill="url(#paint0_linear_3620_16730)"/>
<path d="M14.6668 6.33982C14.6668 6.57185 14.651 6.80388 14.622 7.03328C14.6351 6.94099 14.6483 6.84607 14.6589 6.75379C14.5956 7.21257 14.4743 7.65818 14.2976 8.08533C14.3319 8.00095 14.3688 7.91658 14.4031 7.8322C14.2265 8.24881 13.9997 8.63904 13.7228 8.99763L13.889 8.78406C13.6147 9.13738 13.2957 9.45642 12.9424 9.73064L13.1559 9.56453C12.7974 9.83875 12.4071 10.0681 11.9905 10.2448C12.0749 10.2105 12.1593 10.1736 12.2436 10.1393C11.8165 10.316 11.3709 10.4373 10.9121 10.5006C11.0044 10.4874 11.0993 10.4742 11.1916 10.4636C10.7302 10.5243 10.2661 10.5243 9.80468 10.4636C9.89696 10.4768 9.99188 10.49 10.0842 10.5006C9.62538 10.4373 9.17977 10.316 8.75263 10.1393C8.837 10.1736 8.92138 10.2105 9.00575 10.2448C8.58915 10.0681 8.19892 9.84138 7.84032 9.56453L8.0539 9.73064C7.70058 9.45642 7.38153 9.13738 7.10731 8.78406L7.27343 8.99763C6.99921 8.63904 6.76981 8.24881 6.59315 7.8322C6.62743 7.91658 6.66434 8.00095 6.69862 8.08533C6.52196 7.65818 6.40067 7.21257 6.33739 6.75379C6.35058 6.84607 6.36376 6.94099 6.37431 7.03328C6.31366 6.57185 6.31366 6.10779 6.37431 5.64636C6.36112 5.73865 6.34794 5.83357 6.33739 5.92586C6.40067 5.46707 6.52196 5.02146 6.69862 4.59431C6.66434 4.67869 6.62743 4.76306 6.59315 4.84744C6.76981 4.43084 6.99657 4.0406 7.27343 3.68201L7.10731 3.89558C7.38153 3.54226 7.70058 3.22322 8.0539 2.949L7.84032 3.11511C8.19892 2.8409 8.58915 2.6115 9.00575 2.43484C8.92138 2.46912 8.837 2.50603 8.75263 2.54031C9.17977 2.36365 9.62538 2.24236 10.0842 2.17908C9.99188 2.19226 9.89696 2.20545 9.80468 2.21599C10.2661 2.15535 10.7302 2.15535 11.1916 2.21599C11.0993 2.20281 11.0044 2.18963 10.9121 2.17908C11.3709 2.24236 11.8165 2.36365 12.2436 2.54031C12.1593 2.50603 12.0749 2.46912 11.9905 2.43484C12.4071 2.6115 12.7974 2.83826 13.1559 3.11511L12.9424 2.949C13.2957 3.22322 13.6147 3.54226 13.889 3.89558L13.7228 3.68201C13.9971 4.0406 14.2265 4.43084 14.4031 4.84744C14.3688 4.76306 14.3319 4.67869 14.2976 4.59431C14.4743 5.02146 14.5956 5.46707 14.6589 5.92586C14.6457 5.83357 14.6325 5.73865 14.622 5.64636C14.651 5.87576 14.6641 6.10779 14.6668 6.33982C14.6694 6.8909 15.1493 7.42088 15.7215 7.39451C16.291 7.36814 16.7788 6.93045 16.7762 6.33982C16.7709 5.07683 16.3912 3.78484 15.6476 2.75652C15.4473 2.47967 15.2337 2.20808 14.9964 1.96287C14.7564 1.71502 14.4928 1.50144 14.2185 1.29314C13.7202 0.913454 13.1639 0.633962 12.5732 0.417751C10.1923 -0.455003 7.32089 0.322829 5.70985 2.28455C5.48837 2.55349 5.27743 2.83299 5.09813 3.13357C4.91884 3.43152 4.77909 3.74793 4.64989 4.06961C4.40731 4.6655 4.28339 5.29832 4.23329 5.93904C4.13573 7.19412 4.46268 8.50457 5.11659 9.58035C5.74677 10.6192 6.69862 11.5104 7.81132 12.014C8.13827 12.1617 8.47313 12.2988 8.82118 12.3964C9.16659 12.4913 9.51727 12.544 9.87323 12.5862C10.5219 12.6627 11.1837 12.6099 11.8244 12.4807C14.2581 11.985 16.2963 9.88884 16.6733 7.42879C16.7287 7.07019 16.7709 6.7116 16.7709 6.34773C16.7735 5.79666 16.2831 5.26668 15.7162 5.29304C15.1467 5.3115 14.6668 5.7492 14.6668 6.33982ZM18.1657 22.8272H4.63671C4.03817 22.8272 3.43964 22.8325 2.8411 22.8272C2.77518 22.8272 2.70927 22.8219 2.64599 22.814C2.73827 22.8272 2.83319 22.8404 2.92548 22.851C2.82001 22.8351 2.71981 22.8061 2.62225 22.7666C2.70663 22.8009 2.791 22.8378 2.87538 22.872C2.76991 22.8272 2.67235 22.7692 2.58007 22.698L2.79364 22.8641C2.71454 22.7982 2.64071 22.727 2.57743 22.6479L2.74354 22.8615C2.67235 22.7692 2.61698 22.6717 2.56952 22.5662C2.6038 22.6506 2.64071 22.7349 2.67499 22.8193C2.63544 22.7218 2.60907 22.6189 2.59061 22.5161C2.6038 22.6084 2.61698 22.7033 2.62753 22.7956C2.58534 22.4765 2.61434 22.139 2.61434 21.8174V20.6888C2.61434 20.4067 2.63016 20.1272 2.66708 19.8477C2.6539 19.94 2.64071 20.0349 2.63017 20.1272C2.70399 19.5867 2.84638 19.0567 3.05995 18.5531C3.02567 18.6375 2.98876 18.7219 2.95448 18.8062C3.16015 18.3263 3.42382 17.8755 3.74286 17.4615L3.57675 17.6751C3.89579 17.2664 4.26229 16.8972 4.67362 16.5782L4.46005 16.7443C4.87401 16.4253 5.32489 16.1616 5.80477 15.9559C5.7204 15.9902 5.63602 16.0271 5.55165 16.0614C6.05526 15.8505 6.58261 15.7054 7.12577 15.6316C7.03349 15.6448 6.93856 15.658 6.84628 15.6685C7.23651 15.6184 7.62411 15.6158 8.01698 15.6158H12.8422C13.2772 15.6158 13.7097 15.6132 14.1447 15.6685C14.0524 15.6553 13.9575 15.6422 13.8652 15.6316C14.4058 15.7054 14.9357 15.8478 15.4393 16.0614C15.355 16.0271 15.2706 15.9902 15.1862 15.9559C15.6661 16.1616 16.117 16.4253 16.5309 16.7443L16.3174 16.5782C16.7261 16.8972 17.0952 17.2637 17.4142 17.6751L17.2481 17.4615C17.5672 17.8755 17.8308 18.3263 18.0365 18.8062C18.0022 18.7219 17.9653 18.6375 17.931 18.5531C18.142 19.0567 18.287 19.5841 18.3608 20.1272C18.3476 20.0349 18.3345 19.94 18.3239 19.8477C18.374 20.2459 18.3766 20.6414 18.3766 21.0422V22.3473C18.3766 22.4976 18.3819 22.6479 18.3635 22.7956C18.3766 22.7033 18.3898 22.6084 18.4004 22.5161C18.3846 22.6216 18.3556 22.7218 18.316 22.8193C18.3503 22.7349 18.3872 22.6506 18.4215 22.5662C18.3766 22.6717 18.3186 22.7692 18.2475 22.8615L18.4136 22.6479C18.3476 22.727 18.2765 22.8009 18.1974 22.8641L18.4109 22.698C18.3186 22.7692 18.2211 22.8246 18.1156 22.872C18.2 22.8378 18.2844 22.8009 18.3687 22.7666C18.2712 22.8061 18.1683 22.8325 18.0655 22.851C18.1578 22.8378 18.2527 22.8246 18.345 22.814C18.287 22.8219 18.2264 22.8246 18.1657 22.8272C17.8941 22.8299 17.6146 22.9432 17.4195 23.1357C17.2376 23.3177 17.0978 23.6182 17.111 23.8819C17.1374 24.4462 17.5751 24.9445 18.1657 24.9366C19.1914 24.9208 20.0932 24.2511 20.3937 23.2676C20.5124 22.8773 20.486 22.4581 20.486 22.0573C20.486 21.1397 20.515 20.2301 20.3568 19.3204C20.1248 17.9888 19.4551 16.7364 18.5375 15.7529C17.6199 14.7694 16.3859 14.0469 15.0808 13.7253C14.3319 13.5407 13.5778 13.5117 12.8132 13.5117H8.13563C7.35253 13.5117 6.5747 13.5486 5.81268 13.7516C4.51806 14.0944 3.29989 14.8248 2.40077 15.8162C1.49374 16.8155 0.837196 18.0706 0.623622 19.41C0.481239 20.3092 0.510243 21.2109 0.510243 22.1179C0.510243 22.5345 0.486512 22.9696 0.636805 23.3678C0.831923 23.8793 1.14306 24.2827 1.59921 24.5859C1.95516 24.8206 2.40604 24.934 2.82792 24.9392C3.03358 24.9419 3.23925 24.9392 3.44491 24.9392H18.1684C18.7194 24.9392 19.2494 24.4541 19.223 23.8845C19.1967 23.3097 18.759 22.8272 18.1657 22.8272Z" fill="black" fill-opacity="0.2"/>
<defs>
<linearGradient id="paint0_linear_3620_16730" x1="10.4982" y1="0.0625" x2="10.4982" y2="24.9404" gradientUnits="userSpaceOnUse">
<stop stop-color="#FF0F0F"/>
<stop offset="1" stop-color="#FF4849"/>
</linearGradient>
</defs>
</svg>