<svg width="38" height="38" viewBox="0 0 28 28" fill="none" xmlns="http://www.w3.org/2000/svg">
<path d="M14 0C6.28057 0 0 6.28057 0 14C0 21.7194 6.28057 28 14 28C21.7194 28 28 21.7194 28 14C28 6.28057 21.7194 0 14 0ZM26.9874 13.5H23.4749C23.3575 11.2581 22.4629 9.22343 21.0515 7.656L23.5334 5.17406C25.577 7.37943 26.8649 10.2923 26.9874 13.4998V13.5ZM7.656 21.0509C9.22343 22.4629 11.258 23.3569 13.5 23.4743V26.9868C10.2924 26.8647 7.37943 25.5763 5.17429 23.5328L7.656 21.0509ZM14.5 23.4745C16.7419 23.3571 18.7766 22.4625 20.344 21.0511L22.8259 23.533C20.6206 25.577 17.7077 26.865 14.5002 26.9875L14.5 23.4745ZM14 22.4999C9.31297 22.4999 5.5 18.687 5.5 13.9999C5.5 9.31291 9.31297 5.49994 14 5.49994C18.687 5.49994 22.5 9.31291 22.5 13.9999C22.5 18.687 18.687 22.4999 14 22.4999ZM20.344 6.94909C18.7766 5.53703 16.742 4.64309 14.5 4.52566V1.01251C17.7076 1.13461 20.6206 2.42303 22.8257 4.46651L20.344 6.94909ZM13.5 4.52543C11.2581 4.64284 9.22343 5.53749 7.656 6.94886L5.17406 4.46691C7.37943 2.42291 10.2923 1.13497 13.4998 1.01246L13.5 4.52543ZM4.46629 5.17411L6.94823 7.65606C5.53617 9.22349 4.64223 11.2581 4.5248 13.5001H1.01229C1.13483 10.2925 2.4228 7.37949 4.46629 5.17434V5.17411ZM1.01229 14.4998H4.5248C4.64221 16.7418 5.53686 18.7764 6.94823 20.3438L4.46629 22.8258C2.42274 20.6204 1.1348 17.7075 1.01229 14.5001V14.4998ZM23.5334 22.8255L21.0515 20.3436C22.4635 18.7762 23.3575 16.7416 23.4749 14.4996H26.9874C26.8649 17.7072 25.5769 20.6202 23.5334 22.8253V22.8255Z" fill="#CC1212"/>
<path d="M19.5 12.5H18.6101C18.4451 12.317 18.2371 12.1766 18 12.092V12C18 9.7944 16.2056 8 14 8C11.7944 8 10 9.7944 10 12V12.092C9.76295 12.1766 9.55558 12.317 9.38994 12.5H8.5C7.67297 12.5 7 13.173 7 14V16C7 16.827 7.67297 17.5 8.5 17.5H9.38994C9.56494 17.694 9.78838 17.8391 10.0424 17.921C10.244 19.0991 11.2661 20 12.5 20H15V19H12.5C11.8085 19 11.2306 18.5275 11.0581 17.89C11.6089 17.6681 12 17.1294 12 16.5V13.5C12 12.8491 11.5806 12.2991 11 12.092V12C11 10.3455 12.3455 8.99999 14 8.99999C15.6545 8.99999 17 10.3455 17 12V12.092C16.4194 12.2989 16 12.8489 16 13.5V16.5C16 17.327 16.673 18 17.5 18C17.9415 18 18.335 17.8045 18.6101 17.5H19.5C20.327 17.5 21 16.827 21 16V14C21 13.173 20.327 12.5 19.5 12.5ZM10.5 17C10.2241 17 10 16.7759 10 16.5V13.5C10 13.2241 10.2241 13 10.5 13C10.7759 13 11 13.2241 11 13.5V16.5C11 16.7759 10.7759 17 10.5 17ZM8.5 16.5C8.22411 16.5 8 16.2759 8 16V14C8 13.7241 8.22411 13.5 8.5 13.5H9V16.5H8.5ZM17.5 17C17.2241 17 17 16.7759 17 16.5V13.5C17 13.2241 17.2241 13 17.5 13C17.7759 13 18 13.2241 18 13.5V16.5C18 16.7759 17.7759 17 17.5 17ZM20 16C20 16.2759 19.7759 16.5 19.5 16.5H19V13.5H19.5C19.7759 13.5 20 13.7241 20 14V16Z" fill="#CC1212"/>
<path d="M13.5 10.5H14.5V11.5H13.5V10.5Z" fill="#CC1212"/>
<path d="M13.5 12.5H14.5V13.5H13.5V12.5Z" fill="#CC1212"/>
<path d="M13.5 14.5H14.5V15.5H13.5V14.5Z" fill="#CC1212"/>
</svg>