<svg width="38" height="38" viewBox="0 0 30 26" fill="none" xmlns="http://www.w3.org/2000/svg">
<path d="M24.1028 2.11212V3.47372H24.8195V2.11212H24.1028ZM17.6135 2.11255V17.9238H20.5601V2.11255H17.6135ZM21.2152 2.11255V17.9238H22.5183C23.0306 17.9238 23.4479 17.5069 23.4479 16.9942V2.11282L21.2152 2.11255ZM16.9587 17.9238V2.11255H9.9634V7.28261C9.9634 7.71308 9.30861 7.71308 9.30861 7.28261V2.11255H8.87241V4.60861C8.87241 5.03907 8.21762 5.03907 8.21762 4.60861V2.11255H5.49779V16.9939C5.49779 17.5066 5.91511 17.9235 6.42744 17.9235H16.9589L16.9587 17.9238ZM9.08994 9.73915C10.635 9.73915 11.4367 11.481 10.6013 12.6587C11.4376 13.8371 10.6339 15.5778 9.08994 15.5778C7.54557 15.5778 6.74355 13.8364 7.57906 12.6587C6.73932 11.4748 7.58224 9.73915 9.08994 9.73915ZM9.08994 10.3939C8.00168 10.3939 7.51799 11.6987 8.23538 12.4294C8.36028 12.5562 8.3607 12.76 8.23538 12.8877C7.53135 13.6046 7.98304 14.9228 9.08994 14.9228C10.1875 14.9228 10.6547 13.6108 9.94494 12.8877C9.82004 12.7609 9.81962 12.5571 9.94494 12.4294C10.649 11.7125 10.1973 10.3939 9.08994 10.3939ZM25.3143 13.7537C25.0217 13.4395 25.4999 12.9944 25.7925 13.3089L27.1774 14.7913V7.4492C27.1774 7.0183 27.8322 7.0183 27.8322 7.4492V14.7913L29.2167 13.3091C29.5094 12.9946 29.9875 13.4397 29.6949 13.754L27.7924 15.7909C27.6681 16.0172 27.3424 16.0182 27.2179 15.792L25.3141 13.7539L25.3143 13.7537ZM1.32111 0.515625H27.6236C27.8043 0.515625 27.951 0.662576 27.951 0.843033V4.71768C27.951 4.89834 27.8041 5.04508 27.6236 5.04508H24.1023V16.9939C24.1023 17.864 23.3877 18.5784 22.5178 18.5784H6.42641C5.55638 18.5784 4.84192 17.8642 4.84192 16.9939V5.04508H1.32057C1.1399 5.04508 0.993164 4.89813 0.993164 4.71768V0.843033C0.993164 0.662365 1.14012 0.515625 1.32057 0.515625H1.32111ZM27.2963 1.17042H1.64846V4.39005H4.8422V4.12838H3.79844C3.61778 4.12838 3.47104 3.98185 3.47104 3.80097V1.78453C3.47104 1.60386 3.61799 1.45712 3.79844 1.45712H25.1463C25.327 1.45712 25.4737 1.60407 25.4737 1.78453V3.80097C25.4737 3.98185 25.3268 4.12838 25.1463 4.12838H24.1022V4.39005H27.2959V1.17042H27.2963ZM4.84209 3.47333V2.11173H4.12579V3.47333H4.84209Z" fill="url(#paint0_linear_3819_28420)"/>
<path d="M0.310335 25.2826C0.303973 25.2856 0.297611 25.2877 0.290825 25.2894C0.28404 25.2911 0.27683 25.292 0.26962 25.292C0.247991 25.292 0.230815 25.286 0.217879 25.2742C0.205368 25.2619 0.199219 25.2451 0.199219 25.2241C0.199219 25.2033 0.205368 25.1868 0.217879 25.1749C0.230815 25.1626 0.247991 25.1562 0.26962 25.1562C0.27683 25.1562 0.28404 25.1571 0.290825 25.1588C0.297611 25.1601 0.303973 25.1622 0.310335 25.1656V25.1927C0.303973 25.1889 0.297823 25.1859 0.291674 25.1842C0.285312 25.1821 0.279163 25.1808 0.273013 25.1808C0.260502 25.1808 0.25096 25.1849 0.244174 25.1927C0.237388 25.2001 0.233995 25.2105 0.233995 25.2241C0.233995 25.2377 0.237388 25.2485 0.244174 25.2563C0.25096 25.2638 0.260502 25.2674 0.273013 25.2674C0.279163 25.2674 0.285312 25.2665 0.291674 25.2648C0.297823 25.2627 0.303973 25.2595 0.310335 25.2555V25.2826Z" fill="url(#paint1_linear_3819_28420)"/>
<path d="M0.40986 25.2172C0.406892 25.2155 0.404135 25.2144 0.401378 25.2138C0.39841 25.2134 0.395865 25.2129 0.393745 25.2129C0.385263 25.2129 0.378689 25.2159 0.374235 25.2214C0.370206 25.2265 0.368298 25.2339 0.368298 25.2435V25.2884H0.336914V25.19H0.368298V25.2062C0.372115 25.2 0.37678 25.1956 0.381869 25.1926C0.387382 25.1892 0.393744 25.1875 0.40053 25.1875C0.40159 25.1875 0.40265 25.1879 0.403923 25.1883H0.40986V25.2172Z" fill="url(#paint2_linear_3819_28420)"/>
<path d="M0.523997 25.2392V25.2477H0.450201C0.450625 25.2551 0.45317 25.2609 0.457835 25.2647C0.462288 25.2681 0.468861 25.2698 0.477344 25.2698C0.484129 25.2698 0.490915 25.2689 0.497701 25.2672C0.504487 25.2651 0.511485 25.2619 0.518906 25.2579V25.2825C0.511484 25.2855 0.504062 25.2874 0.496852 25.2884C0.48943 25.2901 0.481797 25.291 0.47395 25.291C0.45635 25.291 0.442567 25.2865 0.432388 25.2774C0.422634 25.2685 0.417969 25.2558 0.417969 25.2392C0.417969 25.2235 0.422634 25.211 0.432388 25.2019C0.44193 25.1924 0.45529 25.1875 0.472254 25.1875C0.487946 25.1875 0.500458 25.1924 0.509576 25.2019C0.519118 25.211 0.523997 25.2235 0.523997 25.2392ZM0.490916 25.2282C0.490916 25.2227 0.48922 25.218 0.485827 25.2146C0.482434 25.2108 0.477769 25.2087 0.472256 25.2087C0.465894 25.2087 0.460805 25.2104 0.456988 25.2138C0.453595 25.2172 0.451262 25.2221 0.450202 25.2282L0.490916 25.2282Z" fill="url(#paint3_linear_3819_28420)"/>
<path d="M0.59178 25.2443C0.584994 25.2443 0.579905 25.2456 0.576512 25.2477C0.573119 25.2501 0.571423 25.2532 0.571423 25.2571C0.571423 25.2611 0.572695 25.2643 0.575664 25.2664C0.57842 25.2687 0.582026 25.2698 0.58669 25.2698C0.59284 25.2698 0.597929 25.2679 0.601958 25.2638C0.605775 25.2594 0.607896 25.2541 0.607896 25.2477V25.2443H0.59178ZM0.63928 25.2325V25.2884H0.607896V25.274C0.603867 25.2797 0.59899 25.284 0.593477 25.2867C0.588388 25.2895 0.582026 25.291 0.574816 25.291C0.564638 25.291 0.556155 25.2882 0.54937 25.2825C0.543008 25.2763 0.540039 25.2685 0.540039 25.2587C0.540039 25.2475 0.543856 25.2392 0.551914 25.2342C0.55976 25.2286 0.572271 25.2257 0.589235 25.2257H0.607896V25.2231C0.607896 25.218 0.605776 25.2144 0.601958 25.2121C0.597929 25.21 0.59178 25.2087 0.583298 25.2087C0.576936 25.2087 0.570786 25.2096 0.564637 25.2113C0.558911 25.2125 0.55361 25.2142 0.548521 25.2163V25.1926C0.555306 25.1909 0.562092 25.1898 0.568878 25.1892C0.575664 25.1881 0.582449 25.1875 0.589235 25.1875C0.607259 25.1875 0.619983 25.1913 0.627404 25.1985C0.63525 25.2053 0.63928 25.2168 0.63928 25.2325Z" fill="url(#paint4_linear_3819_28420)"/>
<path d="M0.701925 25.1562V25.1842H0.734157V25.2071H0.701925V25.2487C0.701925 25.2534 0.702773 25.2563 0.70447 25.258C0.70659 25.2593 0.710408 25.2597 0.715496 25.2597H0.731613V25.2826H0.70447C0.692595 25.2826 0.683689 25.2801 0.678175 25.275C0.673086 25.2699 0.670541 25.2612 0.670541 25.2487V25.2071H0.655273V25.1842H0.670541V25.1563L0.701925 25.1562Z" fill="url(#paint5_linear_3819_28420)"/>
<path d="M0.853098 25.2392V25.2477H0.779302C0.779727 25.2551 0.782271 25.2609 0.786936 25.2647C0.791389 25.2681 0.797963 25.2698 0.806445 25.2698C0.813231 25.2698 0.820017 25.2689 0.826802 25.2672C0.833588 25.2651 0.840586 25.2619 0.848008 25.2579V25.2825C0.840586 25.2855 0.833164 25.2874 0.825954 25.2884C0.818532 25.2901 0.810898 25.291 0.803052 25.291C0.785451 25.291 0.771668 25.2865 0.76149 25.2774C0.751735 25.2685 0.74707 25.2558 0.74707 25.2392C0.74707 25.2235 0.751735 25.211 0.76149 25.2019C0.771032 25.1924 0.784392 25.1875 0.801356 25.1875C0.817048 25.1875 0.829559 25.1924 0.838677 25.2019C0.84822 25.211 0.853098 25.2235 0.853098 25.2392ZM0.820018 25.2282C0.820018 25.2227 0.818321 25.218 0.814929 25.2146C0.811536 25.2108 0.80687 25.2087 0.801357 25.2087C0.794995 25.2087 0.789906 25.2104 0.786089 25.2138C0.782696 25.2172 0.780364 25.2221 0.779304 25.2282L0.820018 25.2282Z" fill="url(#paint6_linear_3819_28420)"/>
<path d="M0.942935 25.201V25.1484H0.974319V25.285H0.942935V25.2706C0.93827 25.2763 0.933604 25.2805 0.928516 25.2833C0.923427 25.2861 0.917065 25.2875 0.909855 25.2875C0.89798 25.2875 0.888014 25.2829 0.880167 25.2731C0.872745 25.2636 0.869141 25.2511 0.869141 25.2358C0.869141 25.2205 0.872746 25.2082 0.880167 25.1985C0.888013 25.1889 0.897979 25.1841 0.909855 25.1841C0.916641 25.1841 0.922578 25.1855 0.927667 25.1883C0.93318 25.1913 0.93827 25.1955 0.942935 25.201ZM0.92173 25.2646C0.928516 25.2646 0.933605 25.2625 0.936998 25.2579C0.940815 25.2528 0.942936 25.2456 0.942936 25.2358C0.942936 25.2269 0.940815 25.2197 0.936998 25.2146C0.933605 25.2095 0.928516 25.207 0.92173 25.207C0.914944 25.207 0.909855 25.2095 0.906462 25.2146C0.903069 25.2197 0.901373 25.2269 0.901373 25.2358C0.901373 25.2456 0.903069 25.2528 0.906462 25.2579C0.909855 25.2625 0.914944 25.2646 0.92173 25.2646Z" fill="url(#paint7_linear_3819_28420)"/>
<path d="M1.11997 25.2646C1.12612 25.2646 1.131 25.2625 1.13439 25.2579C1.13821 25.2528 1.14033 25.2456 1.14033 25.2358C1.14033 25.2269 1.13821 25.2197 1.13439 25.2146C1.131 25.2095 1.12612 25.207 1.11997 25.207C1.11319 25.207 1.10767 25.2095 1.10386 25.2146C1.10046 25.2197 1.09877 25.2269 1.09877 25.2358C1.09877 25.2456 1.10046 25.2528 1.10386 25.2579C1.10767 25.2625 1.11319 25.2646 1.11997 25.2646ZM1.09877 25.201C1.10322 25.1955 1.1081 25.1913 1.11319 25.1883C1.11828 25.1855 1.12421 25.1841 1.131 25.1841C1.1433 25.1841 1.15326 25.1889 1.16069 25.1985C1.16853 25.2082 1.17256 25.2205 1.17256 25.2358C1.17256 25.2511 1.16853 25.2636 1.16069 25.2731C1.15326 25.2829 1.1433 25.2875 1.131 25.2875C1.12421 25.2875 1.11827 25.2861 1.11319 25.2833C1.1081 25.2805 1.10322 25.2763 1.09877 25.2706V25.285H1.06738V25.1484H1.09877V25.201Z" fill="url(#paint8_linear_3819_28420)"/>
<path d="M1.18262 25.1875H1.214L1.2403 25.2545L1.26235 25.1875H1.29373L1.25302 25.2952C1.24835 25.3058 1.24326 25.3135 1.23775 25.3181C1.23266 25.3226 1.22545 25.3249 1.21655 25.3249H1.19789V25.3037H1.20806C1.21315 25.3037 1.21676 25.3029 1.21909 25.3012C1.22185 25.2995 1.22376 25.2965 1.22503 25.2927L1.22588 25.2893L1.18262 25.1875Z" fill="url(#paint9_linear_3819_28420)"/>
<path d="M1.36987 25.1562H1.48013V25.1775L1.40973 25.2623H1.48183V25.2877H1.36816V25.2674L1.43771 25.1825H1.36986L1.36987 25.1562Z" fill="url(#paint10_linear_3819_28420)"/>
<path d="M1.54979 25.2443C1.543 25.2443 1.53791 25.2456 1.53452 25.2477C1.53113 25.2501 1.52943 25.2532 1.52943 25.2571C1.52943 25.2611 1.5307 25.2643 1.53367 25.2664C1.53643 25.2687 1.54003 25.2698 1.5447 25.2698C1.55085 25.2698 1.55594 25.2679 1.55997 25.2638C1.56378 25.2594 1.5659 25.2541 1.5659 25.2477V25.2443H1.54979ZM1.59729 25.2325V25.2884H1.5659V25.274C1.56187 25.2797 1.557 25.284 1.55148 25.2867C1.5464 25.2895 1.54003 25.291 1.53282 25.291C1.52265 25.291 1.51416 25.2882 1.50738 25.2825C1.50102 25.2763 1.49805 25.2685 1.49805 25.2587C1.49805 25.2475 1.50186 25.2392 1.50992 25.2342C1.51777 25.2286 1.53028 25.2257 1.54724 25.2257H1.5659V25.2231C1.5659 25.218 1.56378 25.2144 1.55997 25.2121C1.55594 25.21 1.54979 25.2087 1.54131 25.2087C1.53494 25.2087 1.52879 25.2096 1.52264 25.2113C1.51692 25.2125 1.51162 25.2142 1.50653 25.2163V25.1926C1.51331 25.1909 1.5201 25.1898 1.52689 25.1892C1.53367 25.1881 1.54046 25.1875 1.54724 25.1875C1.56527 25.1875 1.57799 25.1913 1.58541 25.1985C1.59326 25.2053 1.59729 25.2168 1.59729 25.2325Z" fill="url(#paint11_linear_3819_28420)"/>
<path d="M1.62598 25.1866H1.65736V25.285H1.62598V25.1866ZM1.62598 25.1484H1.65736V25.1739H1.62598V25.1484Z" fill="url(#paint12_linear_3819_28420)"/>
<path d="M1.78589 25.2282V25.2884H1.75451V25.2426C1.75451 25.2342 1.75408 25.2286 1.75366 25.2257C1.75366 25.2223 1.75302 25.2197 1.75196 25.218C1.75069 25.2159 1.749 25.2142 1.74688 25.2129C1.74454 25.2119 1.74221 25.2113 1.74009 25.2113C1.7333 25.2113 1.72779 25.2138 1.72397 25.2189C1.72058 25.224 1.71888 25.2312 1.71888 25.2401V25.2884H1.6875V25.19H1.71888V25.2045C1.72334 25.199 1.72821 25.1947 1.7333 25.1917C1.73882 25.189 1.74475 25.1875 1.75112 25.1875C1.76299 25.1875 1.77168 25.1913 1.77741 25.1985C1.78292 25.2053 1.78589 25.2153 1.78589 25.2282Z" fill="url(#paint13_linear_3819_28420)"/>
<path d="M1.97098 25.1622V25.1902C1.96356 25.1868 1.95656 25.1847 1.94977 25.1834C1.94299 25.1817 1.93641 25.1808 1.93026 25.1808C1.9222 25.1808 1.91627 25.1821 1.91245 25.1842C1.90842 25.1859 1.90651 25.1893 1.90651 25.1944C1.90651 25.1978 1.90779 25.2008 1.91075 25.2029C1.91351 25.2046 1.91839 25.2061 1.92517 25.2071L1.93959 25.2105C1.95359 25.2135 1.96377 25.218 1.97013 25.2241C1.97628 25.2298 1.97946 25.2381 1.97946 25.2487C1.97946 25.2635 1.97522 25.2746 1.96674 25.2818C1.95825 25.2886 1.94511 25.292 1.92772 25.292C1.91924 25.292 1.91075 25.2911 1.90227 25.2894C1.89379 25.2877 1.88552 25.2856 1.87767 25.2826V25.2538C1.88552 25.2585 1.89337 25.2619 1.90142 25.264C1.90927 25.2663 1.9169 25.2674 1.92433 25.2674C1.93154 25.2674 1.93726 25.2663 1.94129 25.264C1.94511 25.2612 1.94723 25.2576 1.94723 25.2529C1.94723 25.2491 1.94574 25.2459 1.94299 25.2436C1.94002 25.2415 1.93472 25.2394 1.92687 25.2377L1.91415 25.2351C1.901 25.2324 1.89146 25.2279 1.88531 25.2216C1.87895 25.2154 1.87598 25.2071 1.87598 25.197C1.87598 25.1834 1.88022 25.1732 1.8887 25.1664C1.89718 25.1596 1.90927 25.1562 1.92517 25.1562C1.93238 25.1562 1.93981 25.1569 1.94723 25.1579C1.95507 25.1586 1.96292 25.1601 1.97098 25.1622Z" fill="url(#paint14_linear_3819_28420)"/>
<path d="M2.04177 25.1562V25.1842H2.074V25.2071H2.04177V25.2487C2.04177 25.2534 2.04262 25.2563 2.04431 25.258C2.04643 25.2593 2.05025 25.2597 2.05534 25.2597H2.07146V25.2826H2.04431C2.03244 25.2826 2.02353 25.2801 2.01802 25.275C2.01293 25.2699 2.01039 25.2612 2.01039 25.2487V25.2071H1.99512V25.1842H2.01039V25.1563L2.04177 25.1562Z" fill="url(#paint15_linear_3819_28420)"/>
<path d="M2.09277 25.2477V25.1875H2.12416V25.1977V25.218V25.2333V25.2511C2.12458 25.2545 2.12543 25.2568 2.1267 25.2579C2.12776 25.2602 2.12925 25.2619 2.13094 25.263C2.13306 25.2643 2.13561 25.2647 2.13858 25.2647C2.14536 25.2647 2.15045 25.2621 2.15384 25.2571C2.15766 25.252 2.15978 25.245 2.15978 25.2358V25.1875H2.19117V25.2859H2.15978V25.2715C2.15512 25.2772 2.15003 25.2814 2.14451 25.2842C2.13943 25.287 2.1337 25.2884 2.12755 25.2884C2.1161 25.2884 2.10741 25.285 2.10126 25.2783C2.09553 25.2711 2.09277 25.2609 2.09277 25.2477Z" fill="url(#paint16_linear_3819_28420)"/>
<path d="M2.28864 25.201V25.1484H2.32002V25.285H2.28864V25.2706C2.28397 25.2763 2.27931 25.2805 2.27422 25.2833C2.26913 25.2861 2.26277 25.2875 2.25556 25.2875C2.24368 25.2875 2.23372 25.2829 2.22587 25.2731C2.21845 25.2636 2.21484 25.2511 2.21484 25.2358C2.21484 25.2205 2.21845 25.2082 2.22587 25.1985C2.23372 25.1889 2.24368 25.1841 2.25556 25.1841C2.26234 25.1841 2.26828 25.1855 2.27337 25.1883C2.27888 25.1913 2.28397 25.1955 2.28864 25.201ZM2.26743 25.2646C2.27422 25.2646 2.27931 25.2625 2.2827 25.2579C2.28652 25.2528 2.28864 25.2456 2.28864 25.2358C2.28864 25.2269 2.28652 25.2197 2.2827 25.2146C2.27931 25.2095 2.27422 25.207 2.26743 25.207C2.26065 25.207 2.25556 25.2095 2.25217 25.2146C2.24877 25.2197 2.24708 25.2269 2.24708 25.2358C2.24708 25.2456 2.24877 25.2528 2.25217 25.2579C2.25556 25.2625 2.26065 25.2646 2.26743 25.2646Z" fill="url(#paint17_linear_3819_28420)"/>
<path d="M2.34961 25.1866H2.38099V25.285H2.34961V25.1866ZM2.34961 25.1484H2.38099V25.1739H2.34961V25.1484Z" fill="url(#paint18_linear_3819_28420)"/>
<path d="M2.45761 25.2104C2.45082 25.2104 2.44531 25.2129 2.44149 25.218C2.4381 25.2227 2.4364 25.2297 2.4364 25.2392C2.4364 25.249 2.4381 25.2562 2.44149 25.2613C2.44531 25.2664 2.45082 25.2689 2.45761 25.2689C2.46439 25.2689 2.46948 25.2664 2.47287 25.2613C2.47669 25.2562 2.47881 25.249 2.47881 25.2392C2.47881 25.2297 2.47669 25.2227 2.47287 25.218C2.46948 25.2129 2.46439 25.2104 2.45761 25.2104ZM2.45761 25.1875C2.47457 25.1875 2.48772 25.1924 2.49747 25.2019C2.50701 25.211 2.51189 25.2235 2.51189 25.2392C2.51189 25.2558 2.50701 25.2685 2.49747 25.2774C2.48772 25.2865 2.47457 25.291 2.45761 25.291C2.44064 25.291 2.42728 25.2865 2.41774 25.2774C2.40799 25.2685 2.40332 25.2558 2.40332 25.2392C2.40332 25.2235 2.40799 25.211 2.41774 25.2019C2.42728 25.1924 2.44064 25.1875 2.45761 25.1875Z" fill="url(#paint19_linear_3819_28420)"/>
<path d="M0.269699 25.3281V25.3485H0.252735C0.248069 25.3485 0.245101 25.3493 0.243404 25.351C0.241707 25.3527 0.240859 25.3557 0.240859 25.3595V25.3663H0.267154V25.3892H0.240859V25.4647H0.208627V25.3892H0.193359V25.3663H0.208627V25.3595C0.208627 25.3489 0.211596 25.3408 0.217958 25.3358C0.224107 25.3307 0.233438 25.3281 0.245949 25.3281L0.269699 25.3281Z" fill="url(#paint20_linear_3819_28420)"/>
<path d="M0.35615 25.3969C0.353181 25.3952 0.350424 25.3941 0.347667 25.3935C0.344699 25.3931 0.342154 25.3926 0.340034 25.3926C0.331552 25.3926 0.324978 25.3956 0.320525 25.4011C0.316496 25.4062 0.314587 25.4136 0.314587 25.4232V25.4681H0.283203V25.3697H0.314587V25.3858C0.318404 25.3797 0.323069 25.3752 0.328158 25.3723C0.333671 25.3689 0.340033 25.3672 0.346819 25.3672C0.347879 25.3672 0.348939 25.3676 0.350212 25.368H0.35615V25.3969Z" fill="url(#paint21_linear_3819_28420)"/>
<path d="M0.418544 25.3901C0.411758 25.3901 0.406245 25.3926 0.402427 25.3977C0.399034 25.4024 0.397338 25.4094 0.397338 25.4189C0.397338 25.4287 0.399034 25.4359 0.402427 25.441C0.406244 25.4461 0.411758 25.4486 0.418544 25.4486C0.425329 25.4486 0.430419 25.4461 0.433811 25.441C0.437628 25.4359 0.439749 25.4287 0.439749 25.4189C0.439749 25.4094 0.437629 25.4024 0.433811 25.3977C0.430419 25.3926 0.425329 25.3901 0.418544 25.3901ZM0.418544 25.3672C0.435508 25.3672 0.448655 25.3721 0.45841 25.3816C0.467952 25.3907 0.472829 25.4032 0.472829 25.4189C0.472829 25.4355 0.467952 25.4482 0.45841 25.4571C0.448655 25.4662 0.435508 25.4707 0.418544 25.4707C0.401579 25.4707 0.38822 25.4662 0.378677 25.4571C0.368923 25.4482 0.364258 25.4355 0.364258 25.4189C0.364258 25.4032 0.368923 25.3907 0.378677 25.3816C0.38822 25.3721 0.401579 25.3672 0.418544 25.3672Z" fill="url(#paint22_linear_3819_28420)"/>
<path d="M0.585875 25.3858C0.589692 25.3803 0.59457 25.3757 0.600295 25.3723C0.605808 25.3689 0.611746 25.3672 0.618107 25.3672C0.629346 25.3672 0.637828 25.371 0.643553 25.3782C0.649703 25.385 0.652884 25.395 0.652884 25.4079V25.4681H0.6215V25.4172V25.4147V25.4113C0.6215 25.4041 0.620228 25.399 0.618107 25.396C0.616411 25.3926 0.61323 25.3909 0.608777 25.3909C0.602415 25.3909 0.59775 25.3935 0.594357 25.3986C0.591389 25.4037 0.589692 25.4109 0.589268 25.4198V25.4681H0.557885V25.4172C0.557885 25.406 0.557036 25.399 0.55534 25.396C0.553643 25.3926 0.550251 25.3909 0.545161 25.3909C0.5388 25.3909 0.534135 25.3935 0.530742 25.3986C0.527773 25.4037 0.526501 25.4109 0.526501 25.4198V25.4681H0.495117V25.3697H0.526501V25.3842C0.530318 25.3786 0.534559 25.3744 0.539224 25.3714C0.544314 25.3687 0.549827 25.3672 0.556189 25.3672C0.562974 25.3672 0.568912 25.3689 0.574001 25.3723C0.57909 25.3757 0.582906 25.3803 0.585875 25.3858Z" fill="url(#paint23_linear_3819_28420)"/>
<path d="M0.779074 25.3359V25.3639H0.811306V25.3868H0.779074V25.4284C0.779074 25.4331 0.779922 25.436 0.781618 25.4377C0.783739 25.439 0.787556 25.4394 0.792645 25.4394H0.808761V25.4623H0.781618C0.769743 25.4623 0.760837 25.4598 0.755323 25.4547C0.750234 25.4496 0.74769 25.4409 0.74769 25.4284V25.3868H0.732422V25.3639H0.74769V25.3359L0.779074 25.3359Z" fill="url(#paint24_linear_3819_28420)"/>
<path d="M0.929447 25.4045V25.4647H0.898064V25.4189C0.898064 25.4104 0.897639 25.4049 0.897215 25.4019C0.897215 25.3985 0.896579 25.396 0.895519 25.3943C0.894247 25.3922 0.89255 25.3905 0.89043 25.3892C0.888097 25.3881 0.885764 25.3875 0.883644 25.3875C0.876858 25.3875 0.871345 25.39 0.867528 25.3951C0.864135 25.4002 0.862438 25.4074 0.862438 25.4163V25.4647H0.831055V25.3281H0.862438V25.3807C0.866891 25.3752 0.871769 25.371 0.876858 25.368C0.882371 25.3652 0.888309 25.3637 0.89467 25.3637C0.906545 25.3637 0.915239 25.3676 0.920965 25.3748C0.926478 25.3816 0.929447 25.3915 0.929447 25.4045Z" fill="url(#paint25_linear_3819_28420)"/>
<path d="M1.0572 25.4189V25.4274H0.983404C0.983828 25.4348 0.986373 25.4406 0.991038 25.4444C0.995491 25.4478 1.00206 25.4495 1.01055 25.4495C1.01733 25.4495 1.02412 25.4486 1.0309 25.4469C1.03769 25.4448 1.04469 25.4416 1.05211 25.4376V25.4622C1.04469 25.4652 1.03727 25.4671 1.03006 25.4681C1.02263 25.4698 1.015 25.4707 1.00715 25.4707C0.989553 25.4707 0.97577 25.4662 0.965591 25.4571C0.955837 25.4482 0.951172 25.4355 0.951172 25.4189C0.951172 25.4032 0.955837 25.3907 0.965591 25.3816C0.975134 25.3721 0.988493 25.3672 1.00546 25.3672C1.02115 25.3672 1.03366 25.3721 1.04278 25.3816C1.05232 25.3907 1.0572 25.4032 1.0572 25.4189ZM1.02412 25.4079C1.02412 25.4024 1.02242 25.3977 1.01903 25.3943C1.01564 25.3905 1.01097 25.3884 1.00546 25.3884C0.999097 25.3884 0.994008 25.3901 0.990191 25.3935C0.986798 25.3969 0.984465 25.4018 0.983405 25.4079L1.02412 25.4079Z" fill="url(#paint26_linear_3819_28420)"/>
<path d="M1.14355 25.3359H1.18172L1.22922 25.4258V25.3359H1.26146V25.4674H1.22329L1.17579 25.3775V25.4674H1.14355V25.3359Z" fill="url(#paint27_linear_3819_28420)"/>
<path d="M1.33944 25.3901C1.33266 25.3901 1.32714 25.3926 1.32333 25.3977C1.31993 25.4024 1.31824 25.4094 1.31824 25.4189C1.31824 25.4287 1.31993 25.4359 1.32333 25.441C1.32714 25.4461 1.33266 25.4486 1.33944 25.4486C1.34623 25.4486 1.35132 25.4461 1.35471 25.441C1.35853 25.4359 1.36065 25.4287 1.36065 25.4189C1.36065 25.4094 1.35853 25.4024 1.35471 25.3977C1.35132 25.3926 1.34623 25.3901 1.33944 25.3901ZM1.33944 25.3672C1.35641 25.3672 1.36955 25.3721 1.37931 25.3816C1.38885 25.3907 1.39373 25.4032 1.39373 25.4189C1.39373 25.4355 1.38885 25.4482 1.37931 25.4571C1.36955 25.4662 1.35641 25.4707 1.33944 25.4707C1.32248 25.4707 1.30912 25.4662 1.29958 25.4571C1.28982 25.4482 1.28516 25.4355 1.28516 25.4189C1.28516 25.4032 1.28982 25.3907 1.29958 25.3816C1.30912 25.3721 1.32248 25.3672 1.33944 25.3672Z" fill="url(#paint28_linear_3819_28420)"/>
<path d="M1.41504 25.4274V25.3672H1.44642V25.3774V25.3977V25.413V25.4308C1.44685 25.4342 1.4477 25.4365 1.44897 25.4376C1.45003 25.4399 1.45151 25.4416 1.45321 25.4427C1.45533 25.444 1.45787 25.4444 1.46084 25.4444C1.46763 25.4444 1.47272 25.4418 1.47611 25.4367C1.47993 25.4317 1.48205 25.4247 1.48205 25.4155V25.3672H1.51343V25.4656H1.48205V25.4512C1.47738 25.4569 1.47229 25.4611 1.46678 25.4639C1.46169 25.4666 1.45597 25.4681 1.44982 25.4681C1.43837 25.4681 1.42967 25.4647 1.42352 25.4579C1.4178 25.4507 1.41504 25.4406 1.41504 25.4274Z" fill="url(#paint29_linear_3819_28420)"/>
<path d="M1.64234 25.4079V25.4681H1.61095V25.4223C1.61095 25.4138 1.61053 25.4083 1.61011 25.4054C1.61011 25.402 1.60947 25.3994 1.60841 25.3977C1.60714 25.3956 1.60544 25.3939 1.60332 25.3926C1.60099 25.3916 1.59866 25.3909 1.59653 25.3909C1.58975 25.3909 1.58424 25.3935 1.58042 25.3986C1.57703 25.4037 1.57533 25.4109 1.57533 25.4198V25.4681H1.54395V25.3697H1.57533V25.3842C1.57978 25.3786 1.58466 25.3744 1.58975 25.3714C1.59526 25.3687 1.6012 25.3672 1.60756 25.3672C1.61944 25.3672 1.62813 25.371 1.63386 25.3782C1.63937 25.385 1.64234 25.395 1.64234 25.4079Z" fill="url(#paint30_linear_3819_28420)"/>
<path d="M1.73535 25.3359H1.79218C1.80851 25.3359 1.82123 25.34 1.83035 25.3478C1.83926 25.3552 1.84392 25.3656 1.84392 25.3792C1.84392 25.3928 1.83926 25.4034 1.83035 25.4106C1.82123 25.418 1.80851 25.4216 1.79218 25.4216H1.76928V25.4674H1.73535L1.73535 25.3359ZM1.76928 25.3605V25.397H1.78794C1.79473 25.397 1.79982 25.3957 1.80321 25.3928C1.80703 25.3894 1.80915 25.3849 1.80915 25.3792C1.80915 25.3737 1.80703 25.369 1.80321 25.3656C1.79982 25.3622 1.79473 25.3605 1.78794 25.3605L1.76928 25.3605Z" fill="url(#paint31_linear_3819_28420)"/>
<path d="M1.93916 25.3969C1.93619 25.3952 1.93343 25.3941 1.93068 25.3935C1.92771 25.3931 1.92516 25.3926 1.92304 25.3926C1.91456 25.3926 1.90799 25.3956 1.90353 25.4011C1.8995 25.4062 1.89759 25.4136 1.89759 25.4232V25.4681H1.86621V25.3697H1.89759V25.3858C1.90141 25.3797 1.90608 25.3752 1.91117 25.3723C1.91668 25.3689 1.92304 25.3672 1.92983 25.3672C1.93089 25.3672 1.93195 25.3676 1.93322 25.368H1.93916V25.3969Z" fill="url(#paint32_linear_3819_28420)"/>
<path d="M2.00155 25.3901C1.99477 25.3901 1.98925 25.3926 1.98543 25.3977C1.98204 25.4024 1.98035 25.4094 1.98035 25.4189C1.98035 25.4287 1.98204 25.4359 1.98543 25.441C1.98925 25.4461 1.99477 25.4486 2.00155 25.4486C2.00834 25.4486 2.01343 25.4461 2.01682 25.441C2.02064 25.4359 2.02276 25.4287 2.02276 25.4189C2.02276 25.4094 2.02064 25.4024 2.01682 25.3977C2.01343 25.3926 2.00834 25.3901 2.00155 25.3901ZM2.00155 25.3672C2.01852 25.3672 2.03166 25.3721 2.04142 25.3816C2.05096 25.3907 2.05584 25.4032 2.05584 25.4189C2.05584 25.4355 2.05096 25.4482 2.04142 25.4571C2.03166 25.4662 2.01852 25.4707 2.00155 25.4707C1.98459 25.4707 1.97123 25.4662 1.96168 25.4571C1.95193 25.4482 1.94727 25.4355 1.94727 25.4189C1.94727 25.4032 1.95193 25.3907 1.96168 25.3816C1.97123 25.3721 1.98459 25.3672 2.00155 25.3672Z" fill="url(#paint33_linear_3819_28420)"/>
<path d="M2.07785 25.3663H2.10923V25.463C2.10923 25.4759 2.10605 25.4859 2.0999 25.4927C2.09354 25.4999 2.08421 25.5037 2.07191 25.5037H2.05664V25.4825H2.06173C2.06788 25.4825 2.07212 25.481 2.07445 25.4783C2.07657 25.4759 2.07785 25.4708 2.07785 25.463V25.3663ZM2.07785 25.3281H2.10923V25.3536H2.07785V25.3281Z" fill="url(#paint34_linear_3819_28420)"/>
<path d="M2.23786 25.4189V25.4274H2.16407C2.16449 25.4348 2.16704 25.4406 2.1717 25.4444C2.17615 25.4478 2.18273 25.4495 2.19121 25.4495C2.198 25.4495 2.20478 25.4486 2.21157 25.4469C2.21835 25.4448 2.22535 25.4416 2.23277 25.4376V25.4622C2.22535 25.4652 2.21793 25.4671 2.21072 25.4681C2.2033 25.4698 2.19566 25.4707 2.18782 25.4707C2.17022 25.4707 2.15643 25.4662 2.14626 25.4571C2.1365 25.4482 2.13184 25.4355 2.13184 25.4189C2.13184 25.4032 2.1365 25.3907 2.14626 25.3816C2.1558 25.3721 2.16916 25.3672 2.18612 25.3672C2.20181 25.3672 2.21432 25.3721 2.22344 25.3816C2.23299 25.3907 2.23786 25.4032 2.23786 25.4189ZM2.20478 25.4079C2.20478 25.4024 2.20309 25.3977 2.19969 25.3943C2.1963 25.3905 2.19164 25.3884 2.18612 25.3884C2.17976 25.3884 2.17467 25.3901 2.17085 25.3935C2.16746 25.3969 2.16513 25.4018 2.16407 25.4079L2.20478 25.4079Z" fill="url(#paint35_linear_3819_28420)"/>
<path d="M2.34042 25.3731V25.3986C2.3364 25.3958 2.33215 25.3939 2.3277 25.3926C2.32367 25.3909 2.31943 25.3901 2.31498 25.3901C2.30586 25.3901 2.29886 25.3926 2.29377 25.3977C2.28911 25.4028 2.28699 25.41 2.28699 25.4189C2.28699 25.428 2.28911 25.4355 2.29377 25.441C2.29886 25.4461 2.30586 25.4486 2.31498 25.4486C2.31943 25.4486 2.32388 25.4478 2.32855 25.4461C2.333 25.4444 2.33703 25.4423 2.34042 25.4393V25.4656C2.33576 25.4673 2.33109 25.4683 2.326 25.469C2.32091 25.47 2.31583 25.4707 2.31074 25.4707C2.29314 25.4707 2.27935 25.4662 2.26917 25.4571C2.259 25.4482 2.25391 25.4355 2.25391 25.4189C2.25391 25.4026 2.259 25.3899 2.26917 25.3808C2.27935 25.3719 2.29314 25.3672 2.31074 25.3672C2.31583 25.3672 2.32091 25.3678 2.326 25.3689C2.33109 25.3695 2.33576 25.371 2.34042 25.3731Z" fill="url(#paint36_linear_3819_28420)"/>
<path d="M2.40114 25.3359V25.3639H2.43338V25.3868H2.40114V25.4284C2.40114 25.4331 2.40199 25.436 2.40369 25.4377C2.40581 25.439 2.40963 25.4394 2.41472 25.4394H2.43083V25.4623H2.40369C2.39181 25.4623 2.38291 25.4598 2.37739 25.4547C2.3723 25.4496 2.36976 25.4409 2.36976 25.4284V25.3868H2.35449V25.3639H2.36976V25.3359L2.40114 25.3359Z" fill="url(#paint37_linear_3819_28420)"/>
<defs>
<linearGradient id="paint0_linear_3819_28420" x1="23.4262" y1="0.515625" x2="23.3743" y2="22.4493" gradientUnits="userSpaceOnUse">
<stop stop-color="#005CAA"/>
<stop offset="1" stop-color="#64B0F1"/>
</linearGradient>
<linearGradient id="paint1_linear_3819_28420" x1="0.28579" y1="25.1562" x2="0.285031" y2="25.321" gradientUnits="userSpaceOnUse">
<stop stop-color="#005CAA"/>
<stop offset="1" stop-color="#64B0F1"/>
</linearGradient>
<linearGradient id="paint2_linear_3819_28420" x1="0.393747" y1="25.1875" x2="0.393107" y2="25.3101" gradientUnits="userSpaceOnUse">
<stop stop-color="#005CAA"/>
<stop offset="1" stop-color="#64B0F1"/>
</linearGradient>
<linearGradient id="paint3_linear_3819_28420" x1="0.500576" y1="25.1875" x2="0.500113" y2="25.3132" gradientUnits="userSpaceOnUse">
<stop stop-color="#005CAA"/>
<stop offset="1" stop-color="#64B0F1"/>
</linearGradient>
<linearGradient id="paint4_linear_3819_28420" x1="0.617359" y1="25.1875" x2="0.616864" y2="25.3132" gradientUnits="userSpaceOnUse">
<stop stop-color="#005CAA"/>
<stop offset="1" stop-color="#64B0F1"/>
</linearGradient>
<linearGradient id="paint5_linear_3819_28420" x1="0.716733" y1="25.1562" x2="0.715805" y2="25.3097" gradientUnits="userSpaceOnUse">
<stop stop-color="#005CAA"/>
<stop offset="1" stop-color="#64B0F1"/>
</linearGradient>
<linearGradient id="paint6_linear_3819_28420" x1="0.829678" y1="25.1875" x2="0.829215" y2="25.3132" gradientUnits="userSpaceOnUse">
<stop stop-color="#005CAA"/>
<stop offset="1" stop-color="#64B0F1"/>
</linearGradient>
<linearGradient id="paint7_linear_3819_28420" x1="0.951086" y1="25.1484" x2="0.950243" y2="25.3174" gradientUnits="userSpaceOnUse">
<stop stop-color="#005CAA"/>
<stop offset="1" stop-color="#64B0F1"/>
</linearGradient>
<linearGradient id="paint8_linear_3819_28420" x1="1.14933" y1="25.1484" x2="1.14848" y2="25.3174" gradientUnits="userSpaceOnUse">
<stop stop-color="#005CAA"/>
<stop offset="1" stop-color="#64B0F1"/>
</linearGradient>
<linearGradient id="paint9_linear_3819_28420" x1="1.26919" y1="25.1875" x2="1.26841" y2="25.3544" gradientUnits="userSpaceOnUse">
<stop stop-color="#005CAA"/>
<stop offset="1" stop-color="#64B0F1"/>
</linearGradient>
<linearGradient id="paint10_linear_3819_28420" x1="1.45672" y1="25.1562" x2="1.45602" y2="25.3159" gradientUnits="userSpaceOnUse">
<stop stop-color="#005CAA"/>
<stop offset="1" stop-color="#64B0F1"/>
</linearGradient>
<linearGradient id="paint11_linear_3819_28420" x1="1.57537" y1="25.1875" x2="1.57487" y2="25.3132" gradientUnits="userSpaceOnUse">
<stop stop-color="#005CAA"/>
<stop offset="1" stop-color="#64B0F1"/>
</linearGradient>
<linearGradient id="paint12_linear_3819_28420" x1="1.65043" y1="25.1484" x2="1.64771" y2="25.3142" gradientUnits="userSpaceOnUse">
<stop stop-color="#005CAA"/>
<stop offset="1" stop-color="#64B0F1"/>
</linearGradient>
<linearGradient id="paint13_linear_3819_28420" x1="1.76416" y1="25.1875" x2="1.76368" y2="25.3101" gradientUnits="userSpaceOnUse">
<stop stop-color="#005CAA"/>
<stop offset="1" stop-color="#64B0F1"/>
</linearGradient>
<linearGradient id="paint14_linear_3819_28420" x1="1.9566" y1="25.1562" x2="1.95579" y2="25.321" gradientUnits="userSpaceOnUse">
<stop stop-color="#005CAA"/>
<stop offset="1" stop-color="#64B0F1"/>
</linearGradient>
<linearGradient id="paint15_linear_3819_28420" x1="2.05658" y1="25.1562" x2="2.05565" y2="25.3097" gradientUnits="userSpaceOnUse">
<stop stop-color="#005CAA"/>
<stop offset="1" stop-color="#64B0F1"/>
</linearGradient>
<linearGradient id="paint16_linear_3819_28420" x1="2.16943" y1="25.1875" x2="2.16896" y2="25.3101" gradientUnits="userSpaceOnUse">
<stop stop-color="#005CAA"/>
<stop offset="1" stop-color="#64B0F1"/>
</linearGradient>
<linearGradient id="paint17_linear_3819_28420" x1="2.29679" y1="25.1484" x2="2.29595" y2="25.3174" gradientUnits="userSpaceOnUse">
<stop stop-color="#005CAA"/>
<stop offset="1" stop-color="#64B0F1"/>
</linearGradient>
<linearGradient id="paint18_linear_3819_28420" x1="2.37406" y1="25.1484" x2="2.37134" y2="25.3142" gradientUnits="userSpaceOnUse">
<stop stop-color="#005CAA"/>
<stop offset="1" stop-color="#64B0F1"/>
</linearGradient>
<linearGradient id="paint19_linear_3819_28420" x1="2.48791" y1="25.1875" x2="2.48746" y2="25.3132" gradientUnits="userSpaceOnUse">
<stop stop-color="#005CAA"/>
<stop offset="1" stop-color="#64B0F1"/>
</linearGradient>
<linearGradient id="paint20_linear_3819_28420" x1="0.252836" y1="25.3281" x2="0.251717" y2="25.4939" gradientUnits="userSpaceOnUse">
<stop stop-color="#005CAA"/>
<stop offset="1" stop-color="#64B0F1"/>
</linearGradient>
<linearGradient id="paint21_linear_3819_28420" x1="0.340036" y1="25.3672" x2="0.339396" y2="25.4898" gradientUnits="userSpaceOnUse">
<stop stop-color="#005CAA"/>
<stop offset="1" stop-color="#64B0F1"/>
</linearGradient>
<linearGradient id="paint22_linear_3819_28420" x1="0.448847" y1="25.3672" x2="0.448395" y2="25.4928" gradientUnits="userSpaceOnUse">
<stop stop-color="#005CAA"/>
<stop offset="1" stop-color="#64B0F1"/>
</linearGradient>
<linearGradient id="paint23_linear_3819_28420" x1="0.618035" y1="25.3672" x2="0.617739" y2="25.4898" gradientUnits="userSpaceOnUse">
<stop stop-color="#005CAA"/>
<stop offset="1" stop-color="#64B0F1"/>
</linearGradient>
<linearGradient id="paint24_linear_3819_28420" x1="0.793881" y1="25.3359" x2="0.792953" y2="25.4894" gradientUnits="userSpaceOnUse">
<stop stop-color="#005CAA"/>
<stop offset="1" stop-color="#64B0F1"/>
</linearGradient>
<linearGradient id="paint25_linear_3819_28420" x1="0.907713" y1="25.3281" x2="0.906845" y2="25.4939" gradientUnits="userSpaceOnUse">
<stop stop-color="#005CAA"/>
<stop offset="1" stop-color="#64B0F1"/>
</linearGradient>
<linearGradient id="paint26_linear_3819_28420" x1="1.03378" y1="25.3672" x2="1.03332" y2="25.4928" gradientUnits="userSpaceOnUse">
<stop stop-color="#005CAA"/>
<stop offset="1" stop-color="#64B0F1"/>
</linearGradient>
<linearGradient id="paint27_linear_3819_28420" x1="1.23541" y1="25.3359" x2="1.23474" y2="25.4956" gradientUnits="userSpaceOnUse">
<stop stop-color="#005CAA"/>
<stop offset="1" stop-color="#64B0F1"/>
</linearGradient>
<linearGradient id="paint28_linear_3819_28420" x1="1.36975" y1="25.3672" x2="1.36929" y2="25.4928" gradientUnits="userSpaceOnUse">
<stop stop-color="#005CAA"/>
<stop offset="1" stop-color="#64B0F1"/>
</linearGradient>
<linearGradient id="paint29_linear_3819_28420" x1="1.4917" y1="25.3672" x2="1.49122" y2="25.4898" gradientUnits="userSpaceOnUse">
<stop stop-color="#005CAA"/>
<stop offset="1" stop-color="#64B0F1"/>
</linearGradient>
<linearGradient id="paint30_linear_3819_28420" x1="1.6206" y1="25.3672" x2="1.62013" y2="25.4898" gradientUnits="userSpaceOnUse">
<stop stop-color="#005CAA"/>
<stop offset="1" stop-color="#64B0F1"/>
</linearGradient>
<linearGradient id="paint31_linear_3819_28420" x1="1.81994" y1="25.3359" x2="1.81921" y2="25.4956" gradientUnits="userSpaceOnUse">
<stop stop-color="#005CAA"/>
<stop offset="1" stop-color="#64B0F1"/>
</linearGradient>
<linearGradient id="paint32_linear_3819_28420" x1="1.92304" y1="25.3672" x2="1.9224" y2="25.4898" gradientUnits="userSpaceOnUse">
<stop stop-color="#005CAA"/>
<stop offset="1" stop-color="#64B0F1"/>
</linearGradient>
<linearGradient id="paint33_linear_3819_28420" x1="2.03185" y1="25.3672" x2="2.0314" y2="25.4928" gradientUnits="userSpaceOnUse">
<stop stop-color="#005CAA"/>
<stop offset="1" stop-color="#64B0F1"/>
</linearGradient>
<linearGradient id="paint34_linear_3819_28420" x1="2.09761" y1="25.3281" x2="2.09493" y2="25.5413" gradientUnits="userSpaceOnUse">
<stop stop-color="#005CAA"/>
<stop offset="1" stop-color="#64B0F1"/>
</linearGradient>
<linearGradient id="paint35_linear_3819_28420" x1="2.21444" y1="25.3672" x2="2.21398" y2="25.4928" gradientUnits="userSpaceOnUse">
<stop stop-color="#005CAA"/>
<stop offset="1" stop-color="#64B0F1"/>
</linearGradient>
<linearGradient id="paint36_linear_3819_28420" x1="2.32131" y1="25.3672" x2="2.32075" y2="25.4928" gradientUnits="userSpaceOnUse">
<stop stop-color="#005CAA"/>
<stop offset="1" stop-color="#64B0F1"/>
</linearGradient>
<linearGradient id="paint37_linear_3819_28420" x1="2.41595" y1="25.3359" x2="2.41502" y2="25.4894" gradientUnits="userSpaceOnUse">
<stop stop-color="#005CAA"/>
<stop offset="1" stop-color="#64B0F1"/>
</linearGradient>
</defs>
</svg>