 <svg width="38" height="38" viewBox="0 0 30 28" fill="none"
                                xmlns="http://www.w3.org/2000/svg">
                                <path
                                    d="M28.6992 0.857422H1.27065C0.955024 0.857422 0.699219 1.11323 0.699219 1.42885V20.8574C0.699219 21.009 0.759487 21.1543 0.86663 21.2614C0.973773 21.3686 1.11909 21.4289 1.27065 21.4289H12.0021L11.0878 26.0003H9.27059V27.1431H20.6992V26.0003H18.882L17.9677 21.4289H28.6991C28.8507 21.4289 28.996 21.3686 29.1031 21.2614C29.2103 21.1543 29.2705 21.009 29.2705 20.8574V1.42885C29.2705 1.27729 29.2103 1.13198 29.1031 1.02483C28.996 0.91769 28.8507 0.857422 28.6991 0.857422H28.6992ZM28.1278 2.00028V18.0003H1.84208V2.00028H28.1278ZM17.7164 26.0003H12.2534L13.1677 21.4289H16.8021L17.7164 26.0003ZM17.2706 20.286H1.84203V19.1431H28.1277V20.286H17.2706Z"
                                    fill="url(#paint0_linear_5739_28890)" />
                                <path
                                    d="M8.12612 14.5714H8.69754V16.2857H9.8404V14.5714H10.4118C10.5634 14.5714 10.7087 14.5112 10.8158 14.404C10.923 14.2969 10.9833 14.1516 10.9833 14V8.28571C10.9833 8.13415 10.923 7.98884 10.8158 7.8817C10.7087 7.77455 10.5634 7.71429 10.4118 7.71429H9.8404V6H8.69754V7.71429H8.12612C7.81049 7.71429 7.55469 7.97009 7.55469 8.28571V14C7.55469 14.1516 7.61496 14.2969 7.7221 14.404C7.82924 14.5112 7.97456 14.5714 8.12612 14.5714ZM8.69754 8.85714H9.8404V13.4286H8.69754V8.85714Z"
                                    fill="url(#paint1_linear_5739_28890)" />
                                <path
                                    d="M13.841 12.2862H14.3816L14.4124 14.0108L15.5552 13.9903L15.5244 12.2863H16.1267C16.2782 12.2863 16.4235 12.226 16.5307 12.1189C16.6378 12.0117 16.6981 11.8664 16.6981 11.7148V6.00056C16.6981 5.849 16.6378 5.70368 16.5307 5.59654C16.4235 5.4894 16.2782 5.42913 16.1267 5.42913H15.5552V3.71484H14.4124V5.42913H13.841C13.5253 5.42913 13.2695 5.68494 13.2695 6.00056V11.7148C13.2695 11.8664 13.3298 12.0117 13.4369 12.1189C13.5441 12.226 13.6894 12.2862 13.841 12.2862ZM14.4124 6.57195H15.5553V11.1434H14.4124V6.57195Z"
                                    fill="url(#paint2_linear_5739_28890)" />
                                <path
                                    d="M19.5558 14.5714H20.1272V16.2857H21.2701V14.5714H21.8415C21.9931 14.5714 22.1384 14.5112 22.2455 14.404C22.3527 14.2969 22.4129 14.1516 22.4129 14V8.28571C22.4129 8.13415 22.3527 7.98884 22.2455 7.8817C22.1384 7.77455 21.9931 7.71429 21.8415 7.71429H21.2701V6H20.1272V7.71429H19.5558C19.2402 7.71429 18.9844 7.97009 18.9844 8.28571V14C18.9844 14.1516 19.0446 14.2969 19.1518 14.404C19.2589 14.5112 19.4042 14.5714 19.5558 14.5714ZM20.1272 8.85714H21.2701V13.4286H20.1272V8.85714Z"
                                    fill="url(#paint3_linear_5739_28890)" />
                                <defs>
                                    <linearGradient id="paint0_linear_5739_28890" x1="22.9594" y1="0.857422"
                                        x2="22.8486" y2="32.7761" gradientUnits="userSpaceOnUse">
                                        <stop stop-color="#005CAA" />
                                        <stop offset="1" stop-color="#64B0F1" />
                                    </linearGradient>
                                    <linearGradient id="paint1_linear_5739_28890" x1="10.2259" y1="6" x2="10.0845"
                                        y2="18.4885" gradientUnits="userSpaceOnUse">
                                        <stop stop-color="#005CAA" />
                                        <stop offset="1" stop-color="#64B0F1" />
                                    </linearGradient>
                                    <linearGradient id="paint2_linear_5739_28890" x1="15.9408" y1="3.71484" x2="15.7991"
                                        y2="16.2157" gradientUnits="userSpaceOnUse">
                                        <stop stop-color="#005CAA" />
                                        <stop offset="1" stop-color="#64B0F1" />
                                    </linearGradient>
                                    <linearGradient id="paint3_linear_5739_28890" x1="21.6556" y1="6" x2="21.5142"
                                        y2="18.4885" gradientUnits="userSpaceOnUse">
                                        <stop stop-color="#005CAA" />
                                        <stop offset="1" stop-color="#64B0F1" />
                                    </linearGradient>
                                </defs>
                            </svg>