<svg width="38" height="38" viewBox="0 0 28 28" fill="none" xmlns="http://www.w3.org/2000/svg">
<path d="M17.5237 13.1153C17.7462 13.1153 17.942 12.9682 18.004 12.7546C18.0661 12.5407 17.9792 12.3117 17.7911 12.1927L12.2911 8.69275C12.1279 8.5894 11.9194 8.5894 11.7562 8.69275L6.25624 12.1927C6.06807 12.3117 5.98124 12.5407 6.04329 12.7546C6.10534 12.9682 6.3011 13.1153 6.52364 13.1153H7.52364V18.1153H6.77364C6.49753 18.1153 6.27364 18.3392 6.27364 18.6153C6.27364 18.8914 6.49753 19.1153 6.77364 19.1153H17.2736C17.5498 19.1153 17.7736 18.8914 17.7736 18.6153C17.7736 18.3392 17.5498 18.1153 17.2736 18.1153H16.5236V13.1153H17.5237ZM11.5237 18.1153H8.52365V13.1153H11.5237V18.1153ZM15.5237 18.1153H12.5237V13.1153H15.5237V18.1153ZM8.2408 12.1153L12.0234 9.70769L15.8059 12.1153H8.2408Z" fill="url(#paint0_linear_4087_27257)"/>
<path d="M4.73758 10.4269L5.77015 11.0419C5.84538 11.0883 5.93176 11.1135 6.02015 11.1144C6.2427 11.1104 6.43578 10.9595 6.49382 10.7445C6.55163 10.5296 6.46056 10.3024 6.27015 10.187L5.31255 9.61438C5.45028 9.29898 5.52103 8.95855 5.52014 8.61438C5.52014 8.42666 5.49849 8.2396 5.45519 8.05679L14.1575 4.69428C14.5907 5.37885 15.3287 5.81102 16.1376 5.85388C16.9465 5.89674 17.7262 5.54495 18.2293 4.91011C18.7324 4.27531 18.8967 3.43576 18.6701 2.65811C18.4436 1.88045 17.8541 1.26056 17.0887 0.995364C16.3232 0.729964 15.4768 0.852061 14.8175 1.3226C14.1581 1.79336 13.7677 2.55431 13.7699 3.36431C13.7701 3.49668 13.782 3.62882 13.805 3.7594L5.03982 7.14689C4.63938 6.59443 4.03068 6.22969 3.35479 6.13729C2.67891 6.04466 1.99451 6.23238 1.46039 6.65671C0.926462 7.08104 0.588736 7.70516 0.526222 8.38436C0.463496 9.06385 0.681131 9.73905 1.12868 10.254C1.57622 10.769 2.21462 11.0786 2.89611 11.1112C3.57759 11.1438 4.24251 10.8967 4.73719 10.4268L4.73758 10.4269ZM16.2702 1.86461C16.6679 1.86461 17.0496 2.02264 17.3308 2.30389C17.612 2.58515 17.7701 2.96687 17.7701 3.36458C17.7701 3.7623 17.6121 4.14407 17.3308 4.42527C17.0496 4.70647 16.6679 4.86455 16.2702 4.86455C15.8724 4.86455 15.4907 4.70652 15.2095 4.42527C14.9283 4.14402 14.7702 3.7623 14.7702 3.36458C14.7702 2.96687 14.9282 2.58509 15.2095 2.30389C15.4907 2.02269 15.8724 1.86461 16.2702 1.86461ZM1.52044 8.61432C1.52044 8.21656 1.67847 7.83484 1.95973 7.55364C2.24098 7.27244 2.6227 7.11435 3.02041 7.11435C3.41813 7.11435 3.7999 7.27239 4.0811 7.55364C4.3623 7.83489 4.52038 8.21661 4.52038 8.61432C4.52038 9.01204 4.36235 9.39381 4.0811 9.67501C3.79985 9.95621 3.41813 10.1143 3.02041 10.1143C2.6227 10.1143 2.24093 9.95626 1.95973 9.67501C1.67853 9.39376 1.52044 9.01204 1.52044 8.61432Z" fill="url(#paint1_linear_4087_27257)"/>
<path d="M25.0187 8.11523C24.3557 8.11523 23.7198 8.37863 23.2508 8.84735C22.7821 9.31632 22.5187 9.95226 22.5187 10.6152V10.7302L19.1388 11.6326C18.8971 11.6985 18.7413 11.9326 18.7741 12.1809C18.8071 12.4291 19.0183 12.6146 19.2687 12.6152C19.3127 12.6155 19.3565 12.6094 19.3986 12.5978L22.7687 11.7003C23.0263 12.2302 23.4616 12.6532 23.9986 12.8951L22.3636 20.1454H22.3638C22.2495 20.1278 22.1344 20.118 22.0187 20.1155C20.9909 20.1169 20.0353 20.6441 19.4862 21.5131L17.2687 20.188C17.0379 20.0929 16.7725 20.1825 16.6466 20.3979C16.5205 20.6133 16.5727 20.8885 16.7687 21.0429L19.1037 22.4454C19.05 22.6648 19.0214 22.8896 19.0187 23.1155C19.0176 23.8336 19.2738 24.5283 19.7413 25.0733C20.2087 25.6187 20.8562 25.978 21.5661 26.0863C22.2759 26.1946 23.0011 26.0448 23.6101 25.664C24.2188 25.283 24.6706 24.6963 24.8837 24.0106C25.0967 23.3249 25.0567 22.5854 24.771 21.9267C24.4851 21.268 23.9725 20.7334 23.3264 20.4205L24.9764 13.1153H25.0188C25.9119 13.1153 26.7373 12.6387 27.1838 11.8653C27.6304 11.0919 27.6304 10.1387 27.1838 9.36531C26.7373 8.59188 25.9119 8.11531 25.0188 8.11531L25.0187 8.11523ZM24.0187 23.1152C24.0187 23.6456 23.808 24.1543 23.433 24.5295C23.0578 24.9045 22.549 25.1152 22.0187 25.1152C21.4884 25.1152 20.9796 24.9045 20.6044 24.5295C20.2294 24.1543 20.0187 23.6456 20.0187 23.1152C20.0187 22.5849 20.2294 22.0761 20.6044 21.7009C20.9796 21.3259 21.4884 21.1152 22.0187 21.1152C22.549 21.1152 23.0578 21.3259 23.433 21.7009C23.808 22.0762 24.0187 22.5849 24.0187 23.1152ZM25.0187 12.1152C24.6209 12.1152 24.2392 11.9572 23.958 11.6759C23.6768 11.3947 23.5187 11.013 23.5187 10.6153C23.5187 10.2175 23.6768 9.83578 23.958 9.55458C24.2393 9.27338 24.621 9.11529 25.0187 9.11529C25.4164 9.11529 25.7982 9.27333 26.0794 9.55458C26.3606 9.83583 26.5187 10.2175 26.5187 10.6153C26.5187 11.013 26.3606 11.3947 26.0794 11.6759C25.7981 11.9571 25.4164 12.1152 25.0187 12.1152Z" fill="url(#paint2_linear_4087_27257)"/>
<path d="M8.16982 20.2621L6.95239 21.477H6.95216C6.06131 20.9781 4.97897 20.9618 4.07336 21.4339C3.16799 21.9058 2.56154 22.8025 2.46022 23.8185C2.35911 24.8346 2.77697 25.8333 3.57159 26.4745C4.36622 27.1158 5.43074 27.3131 6.40239 26.9997C7.37428 26.6861 8.12251 25.904 8.39257 24.9192C8.66266 23.9344 8.41823 22.8799 7.74234 22.1145L8.87491 20.9795H8.87469C9.04455 20.781 9.03316 20.4855 8.84857 20.3007C8.66375 20.1161 8.36822 20.1047 8.16977 20.2745L8.16982 20.2621ZM5.52227 26.1146C4.99192 26.1146 4.48319 25.9039 4.10799 25.5289C3.73299 25.1537 3.52227 24.645 3.52227 24.1146C3.52227 23.5843 3.73299 23.0755 4.10799 22.7003C4.48321 22.3253 4.99193 22.1146 5.52227 22.1146C6.05262 22.1146 6.56136 22.3253 6.93656 22.7003C7.31156 23.0756 7.52227 23.5843 7.52227 24.1146C7.52227 24.645 7.31156 25.1537 6.93656 25.5289C6.56134 25.9039 6.05262 26.1146 5.52227 26.1146Z" fill="url(#paint3_linear_4087_27257)"/>
<defs>
<linearGradient id="paint0_linear_4087_27257" x1="15.3731" y1="8.61523" x2="15.331" y2="21.3654" gradientUnits="userSpaceOnUse">
<stop stop-color="#005CAA"/>
<stop offset="1" stop-color="#64B0F1"/>
</linearGradient>
<linearGradient id="paint1_linear_4087_27257" x1="14.7378" y1="0.857422" x2="14.7113" y2="13.3125" gradientUnits="userSpaceOnUse">
<stop stop-color="#005CAA"/>
<stop offset="1" stop-color="#64B0F1"/>
</linearGradient>
<linearGradient id="paint2_linear_4087_27257" x1="25.1021" y1="8.11523" x2="24.9663" y2="29.9786" gradientUnits="userSpaceOnUse">
<stop stop-color="#005CAA"/>
<stop offset="1" stop-color="#64B0F1"/>
</linearGradient>
<linearGradient id="paint3_linear_4087_27257" x1="7.54818" y1="20.1543" x2="7.51398" y2="28.6442" gradientUnits="userSpaceOnUse">
<stop stop-color="#005CAA"/>
<stop offset="1" stop-color="#64B0F1"/>
</linearGradient>
</defs>
</svg>