   <svg width="43" height="43" viewBox="0 0 32 22" fill="none"
                                xmlns="http://www.w3.org/2000/svg">
                                <path
                                    d="M13.7751 20.62C13.3193 20.6783 12.849 20.7073 12.3738 20.7073C6.36176 20.7073 1.46975 15.9026 1.46975 9.99698C1.46975 8.37264 1.83337 6.80658 2.55101 5.34721C2.64789 5.14364 2.59454 4.90123 2.4249 4.76058L2.17266 4.55701L6.03204 3.2673L5.71194 7.46615L5.25614 7.09271C5.14453 7.00052 4.99922 6.96191 4.85859 6.99093C4.71797 7.01995 4.59677 7.10723 4.52399 7.23334C3.77737 8.58111 3.39428 10.026 3.39428 11.5291C3.39428 13.5751 4.11194 15.5485 5.46948 17.2309C5.63913 17.4394 5.9447 17.4733 6.1532 17.3037C6.36168 17.134 6.39561 16.8284 6.22596 16.6199C5.00899 15.1072 4.36905 13.3472 4.36905 11.5242C4.36905 10.38 4.61637 9.26971 5.11076 8.21748L5.81859 8.79942C5.95921 8.91572 6.15319 8.94005 6.31792 8.87219C6.48287 8.79942 6.59917 8.64428 6.60877 8.46482L7.05475 2.60768C7.06926 2.44763 6.99649 2.28759 6.87059 2.18581C6.74448 2.08402 6.57483 2.055 6.4197 2.10813L1.03776 3.90698C0.868115 3.96524 0.746914 4.10587 0.712983 4.28042C0.679054 4.45498 0.746911 4.62953 0.882629 4.74582L1.52257 5.26949C0.839543 6.7628 0.5 8.3532 0.5 9.99674C0.5 16.4356 5.82857 21.6767 12.3737 21.6767C12.8876 21.6767 13.4016 21.6428 13.901 21.5799C14.1677 21.5459 14.3568 21.3035 14.3228 21.0368C14.2842 20.775 14.0369 20.5857 13.7751 20.6196L13.7751 20.62Z"
                                    fill="url(#paint0_linear_5739_28936)" />
                                <path
                                    d="M30.5167 16.7559C31.1905 15.2576 31.53 13.6672 31.53 12.0238C31.53 5.58489 26.2015 0.34375 19.6563 0.34375C19.1425 0.34375 18.6284 0.377679 18.1291 0.440625C17.8623 0.474553 17.6733 0.716962 17.7121 0.983705C17.746 1.25045 17.9884 1.43951 18.2552 1.40067C18.711 1.34241 19.1813 1.3134 19.6563 1.3134C25.6683 1.31362 30.5603 6.11831 30.5603 12.0237C30.5603 13.648 30.1967 15.2141 29.4791 16.6781C29.3822 16.8817 29.4355 17.1241 29.6052 17.2648L29.8574 17.4683L25.998 18.7581L26.3181 14.5592L26.7739 14.9326C26.8855 15.0248 27.0309 15.0634 27.1715 15.0344C27.3121 15.0054 27.4333 14.9181 27.5061 14.792C28.2527 13.4442 28.6358 11.9994 28.6358 10.4962C28.6358 8.45492 27.923 6.48664 26.5704 4.80406C26.4007 4.59558 26.0951 4.56165 25.8866 4.7313C25.6782 4.90094 25.6442 5.20652 25.8139 5.41501C27.0259 6.92284 27.6661 8.6829 27.6661 10.5012C27.6661 11.6454 27.4188 12.7556 26.9244 13.8079L26.2166 13.2259C26.0759 13.1096 25.8869 13.0853 25.7172 13.1532C25.5523 13.2259 25.436 13.3811 25.4264 13.5605L24.9804 19.4177C24.9659 19.5777 25.0387 19.7378 25.1646 19.8395C25.2518 19.9074 25.3585 19.9413 25.4603 19.9413C25.5137 19.9413 25.5621 19.9317 25.6155 19.917L30.9974 18.1181C31.167 18.0599 31.2882 17.9193 31.3222 17.7447C31.3561 17.5701 31.2882 17.3956 31.1525 17.2793L30.5167 16.7559Z"
                                    fill="url(#paint1_linear_5739_28936)" />
                                <path
                                    d="M16.0146 2.29297C11.2097 2.29297 7.29688 6.20571 7.29688 11.0107C7.29688 15.8157 11.2096 19.7284 16.0146 19.7284C20.8196 19.7284 24.7323 15.8157 24.7323 11.0107C24.7323 6.20571 20.8196 2.29297 16.0146 2.29297ZM22.4632 6.72445L20.6353 7.78137C20.2571 7.23829 19.7819 6.768 19.2437 6.38983L20.3006 4.56194C21.154 5.12935 21.896 5.87131 22.4632 6.72445ZM15.53 16.6302V18.7344C14.4731 18.6665 13.4742 18.3902 12.5724 17.944L13.6246 16.1161C14.216 16.3927 14.8561 16.5719 15.53 16.6302ZM16.4997 16.6302C17.1736 16.5719 17.8135 16.3927 18.4004 16.1163L19.4526 17.9442C18.5508 18.3951 17.5519 18.6715 16.495 18.7346L16.4948 16.6302L16.4997 16.6302ZM16.0149 15.6846C13.4403 15.6846 11.341 13.59 11.341 11.0107C11.341 8.43125 13.4356 6.33685 16.0149 6.33685C18.5943 6.33685 20.6887 8.43148 20.6887 11.0107C20.6887 13.5902 18.5894 15.6846 16.0149 15.6846ZM10.3954 10.521H8.2912C8.35905 9.46411 8.63539 8.47011 9.0816 7.56834L10.9095 8.62057C10.6329 9.2072 10.4537 9.84714 10.3954 10.521ZM10.3954 11.4907C10.4537 12.1695 10.6329 12.8094 10.9093 13.3961L9.08161 14.4532C8.63072 13.5514 8.35435 12.5525 8.29121 11.4907H10.3954ZM16.4994 5.39125V3.28703C17.5563 3.35488 18.5553 3.63122 19.457 4.07743L18.4048 5.90531C17.8135 5.62875 17.1733 5.44951 16.4994 5.39125ZM15.5298 5.39125C14.8559 5.44951 14.2159 5.62875 13.6291 5.90509L12.5722 4.07744C13.4739 3.62655 14.4729 3.35018 15.5298 3.28704V5.39125ZM21.6338 11.4907H23.738C23.6701 12.5476 23.3938 13.5514 22.9476 14.4532L21.1197 13.401C21.3963 12.8097 21.5755 12.1695 21.6338 11.4907ZM21.6338 10.521C21.5755 9.84714 21.3963 9.2072 21.1199 8.62034L22.9478 7.56811C23.3987 8.46988 23.6751 9.46388 23.7382 10.5208L21.6338 10.521ZM11.7281 4.56217L12.785 6.39005C12.2419 6.76818 11.7716 7.24343 11.3934 7.7816L9.56554 6.72468C10.1379 5.87131 10.8749 5.12937 11.7281 4.56217ZM9.56577 15.297L11.3937 14.2401C11.7718 14.7832 12.247 15.2535 12.7852 15.6317L11.7283 17.4595C10.8749 16.8921 10.1379 16.1502 9.56577 15.297ZM20.3006 17.4593L19.2437 15.6314C19.7868 15.2533 20.2571 14.7781 20.6353 14.2399L22.4631 15.2968C21.8957 16.1502 21.1538 16.8921 20.3006 17.4593Z"
                                    fill="url(#paint2_linear_5739_28936)" />
                                <path
                                    d="M16.0162 8.8001C16.4914 8.8001 16.8791 9.18805 16.8791 9.66307C16.8791 9.92982 17.0972 10.1479 17.364 10.1479C17.6307 10.1479 17.8488 9.92982 17.8488 9.66307C17.8488 8.81953 17.2767 8.11644 16.501 7.90302V7.6606C16.501 7.39386 16.2829 7.17578 16.0162 7.17578C15.7494 7.17578 15.5314 7.39386 15.5314 7.6606V7.90302C14.7557 8.11641 14.1836 8.8193 14.1836 9.66307C14.1836 10.6764 15.0079 11.4959 16.0164 11.4959C16.4916 11.4959 16.8794 11.8838 16.8794 12.3588C16.8794 12.8341 16.4914 13.2218 16.0164 13.2218C15.5412 13.2218 15.1534 12.8339 15.1534 12.3588C15.1534 12.0921 14.9353 11.874 14.6686 11.874C14.4019 11.874 14.1838 12.0921 14.1838 12.3588C14.1838 13.2024 14.7559 13.9055 15.5315 14.1189V14.3613C15.5315 14.6281 15.7496 14.8461 16.0164 14.8461C16.2831 14.8461 16.5012 14.6281 16.5012 14.3613V14.1189C17.2769 13.9055 17.849 13.2026 17.849 12.3588C17.849 11.3455 17.0246 10.526 16.0162 10.526C15.5409 10.526 15.1532 10.1381 15.1532 9.66307C15.1532 9.18805 15.5409 8.8001 16.0162 8.8001Z"
                                    fill="url(#paint3_linear_5739_28936)" />
                                <defs>
                                    <linearGradient id="paint0_linear_5739_28936" x1="11.2726" y1="2.08203" x2="11.1453"
                                        y2="25.8754" gradientUnits="userSpaceOnUse">
                                        <stop stop-color="#005CAA" />
                                        <stop offset="1" stop-color="#64B0F1" />
                                    </linearGradient>
                                    <linearGradient id="paint1_linear_5739_28936" x1="28.4767" y1="0.34375" x2="28.3493"
                                        y2="24.1406" gradientUnits="userSpaceOnUse">
                                        <stop stop-color="#005CAA" />
                                        <stop offset="1" stop-color="#64B0F1" />
                                    </linearGradient>
                                    <linearGradient id="paint2_linear_5739_28936" x1="20.881" y1="2.29297" x2="20.8011"
                                        y2="23.4647" gradientUnits="userSpaceOnUse">
                                        <stop stop-color="#005CAA" />
                                        <stop offset="1" stop-color="#64B0F1" />
                                    </linearGradient>
                                    <linearGradient id="paint3_linear_5739_28936" x1="17.0393" y1="7.17578" x2="16.9658"
                                        y2="16.4894" gradientUnits="userSpaceOnUse">
                                        <stop stop-color="#005CAA" />
                                        <stop offset="1" stop-color="#64B0F1" />
                                    </linearGradient>
                                </defs>
                            </svg>