<svg width="38" height="38" viewBox="0 0 42 40" fill="none" xmlns="http://www.w3.org/2000/svg">
<path d="M5.26159 0C5.01014 0 4.78179 0.228686 4.78145 0.480137V8.71505C4.78112 8.7251 4.78112 8.73514 4.78145 8.74519C4.6127 8.90992 4.39474 9.01171 4.27152 9.22532L0.356437 16.0503C-0.373138 17.3153 0.0671511 18.9512 1.33144 19.6805C1.78646 19.9453 2.29169 20.0488 2.78661 20.0254C2.79632 20.025 2.8067 20.0257 2.81641 20.0254H3.89658V38.2199C3.89658 39.0416 4.55986 39.7199 5.38149 39.7199H35.8915C36.7131 39.7199 37.3915 39.0416 37.3915 38.2199V20.0254H38.4566C38.4663 20.0257 38.4773 20.025 38.4864 20.0254C38.9735 20.0488 39.4882 19.9407 39.9416 19.6805C39.9479 19.6758 39.9503 19.6691 39.9563 19.6658C41.2062 18.9312 41.6572 17.3093 40.9313 16.0507L37.0011 9.22568C36.8779 9.01206 36.6599 8.91061 36.4912 8.74554C36.4915 8.73549 36.4915 8.72545 36.4912 8.71541V0.48049C36.4912 0.229039 36.2625 0.000353132 36.011 0.000353132H5.26104L5.26159 0ZM5.74173 0.959915H35.5317V8.11509C35.2066 8.00527 34.8872 7.88406 34.5416 7.90516H6.73164C6.38611 7.8844 6.06669 8.00527 5.74156 8.11509V0.959915H5.74173ZM6.70164 8.86509C6.71169 8.86542 6.72173 8.86542 6.73178 8.86509H34.5418C34.5518 8.86542 34.5619 8.86542 34.5719 8.86509C35.1987 8.82022 35.8415 9.1249 36.1771 9.70516L40.0922 16.5302C40.5589 17.3394 40.272 18.373 39.462 18.8401C39.1654 19.0128 38.8366 19.0838 38.5172 19.0651C38.5072 19.0647 38.4975 19.0647 38.4874 19.0651H2.7874C2.77736 19.0647 2.76765 19.0647 2.7576 19.0651C2.43182 19.0838 2.11106 19.0138 1.81277 18.8401C1.00284 18.373 0.715888 17.3394 1.18264 16.5302L5.09772 9.70516C5.43322 9.12491 6.07607 8.82024 6.70289 8.86509H6.70164ZM4.85681 20.0251H36.4322V38.2197C36.4322 38.5173 36.1898 38.7597 35.8922 38.7597H5.38217C5.08485 38.7597 4.85718 38.5173 4.85718 38.2197L4.85681 20.0251Z" fill="url(#paint0_linear_3620_16907)"/>
<path d="M8.32355 22.1953C8.07244 22.1953 7.84375 22.424 7.84375 22.6754V34.0352C7.84375 34.2863 8.07244 34.515 8.32355 34.515H32.9484C33.1995 34.515 33.4282 34.2863 33.4282 34.0352V22.6754C33.4282 22.424 33.1995 22.1956 32.9484 22.1953H8.32355ZM8.80336 23.1552H32.4682V33.5549H8.80336V23.1552Z" fill="url(#paint1_linear_3620_16907)"/>
<defs>
<linearGradient id="paint0_linear_3620_16907" x1="32.1618" y1="-7.14356e-09" x2="31.9866" y2="48.2317" gradientUnits="userSpaceOnUse">
<stop stop-color="#005CAA"/>
<stop offset="1" stop-color="#64B0F1"/>
</linearGradient>
<linearGradient id="paint1_linear_3620_16907" x1="27.7769" y1="22.1953" x2="27.7497" y2="37.1552" gradientUnits="userSpaceOnUse">
<stop stop-color="#005CAA"/>
<stop offset="1" stop-color="#64B0F1"/>
</linearGradient>
</defs>
</svg>