<svg width="38" height="38" viewBox="0 0 26 26" fill="none" xmlns="http://www.w3.org/2000/svg">
<path d="M17.7879 1.12042C16.2692 0.509276 14.6611 0.199219 13.0086 0.199219C6.55435 0.199219 1.08921 5.02219 0.297207 11.4175C0.232253 11.9405 0.199219 12.476 0.199219 13.0092C0.199219 20.0721 5.9455 25.8172 13.0084 25.8172C15.5617 25.8172 17.9409 25.0638 19.9404 23.7708C20.012 23.7451 20.0761 23.7052 20.127 23.6512C23.5565 21.3503 25.8178 17.4392 25.8178 13.0083C25.8181 7.74872 22.6663 3.08203 17.7875 1.11974L17.7879 1.12042ZM13.0089 24.8576C10.693 24.8576 8.53207 24.1868 6.70486 23.0341C6.71223 23.0009 6.71692 22.9661 6.71692 22.9301C6.71692 22.5877 6.74951 21.9065 6.8004 21.6192C7.38566 18.3781 10.9419 17.8946 13.0095 17.8946C14.758 17.8946 18.869 18.2933 19.2707 21.983C19.2778 22.0596 19.2883 22.4817 19.2964 23.0451C17.4729 24.1915 15.318 24.8576 13.0095 24.8576L13.0089 24.8576ZM20.2437 22.3826C20.2379 22.14 20.2319 21.9471 20.2243 21.8801C19.887 18.7833 17.1895 16.9346 13.0089 16.9346C8.92162 16.9346 6.38087 18.5377 5.85459 21.4498C5.81307 21.6851 5.78606 22.054 5.77111 22.3811C2.96865 20.2121 1.15905 16.8188 1.15905 13.009C1.15905 12.5155 1.18941 12.0196 1.2499 11.5358C1.98224 5.62042 7.03733 1.15928 13.0088 1.15928C14.5373 1.15928 16.0248 1.4461 17.4293 2.01105C21.9422 3.82648 24.8578 8.14305 24.8578 13.0088C24.8578 16.8199 23.0478 20.2139 20.2433 22.3825L20.2437 22.3826ZM13.0089 6.43916C10.6526 6.43916 9.00687 8.1963 9.00687 10.7121C9.00687 13.3668 10.802 15.5266 13.0089 15.5266C15.2156 15.5266 17.0109 13.367 17.0109 10.7121C17.0109 8.1963 15.3651 6.43916 13.0089 6.43916ZM13.0089 14.566C11.3314 14.566 9.96692 12.837 9.96692 10.7116C9.96692 8.73008 11.1893 7.39859 13.0089 7.39859C14.8283 7.39859 16.0508 8.72985 16.0508 10.7116C16.0508 12.837 14.6858 14.566 13.0089 14.566Z" fill="#CC1212"/>
</svg>