<svg width="38" height="38" viewBox="0 0 27 24" fill="none" xmlns="http://www.w3.org/2000/svg">
<path d="M25.7344 12.4883C25.4583 12.4883 25.2344 12.7122 25.2344 12.9883C25.2344 13.2644 25.4583 13.4883 25.7344 13.4883C25.8007 13.4883 25.8643 13.5146 25.9112 13.5615C25.9581 13.6084 25.9844 13.672 25.9844 13.7383V22.2383C25.9844 22.3046 25.958 22.3682 25.9112 22.4151C25.8643 22.462 25.8007 22.4883 25.7344 22.4883H2.23439C2.09622 22.4883 1.98439 22.3765 1.98439 22.2383V13.7383C1.98439 13.6001 2.09622 13.4883 2.23439 13.4883C2.5105 13.4883 2.73439 13.2644 2.73439 12.9883C2.73439 12.7122 2.5105 12.4883 2.23439 12.4883C1.90291 12.4883 1.58484 12.62 1.35044 12.8543C1.11604 13.0887 0.984375 13.4068 0.984375 13.7383V22.2383C0.984375 22.5698 1.11607 22.8878 1.35044 23.1222C1.58482 23.3566 1.9029 23.4883 2.23439 23.4883H25.7344C26.0659 23.4883 26.3839 23.3566 26.6183 23.1222C26.8527 22.8879 26.9844 22.5698 26.9844 22.2383V13.7383C26.9844 13.4068 26.8527 13.0887 26.6183 12.8543C26.384 12.6199 26.0659 12.4883 25.7344 12.4883Z" fill="url(#paint0_linear_3912_23515)"/>
<path d="M4.48563 17.487C4.20952 17.487 3.98563 17.7109 3.98563 17.987C3.98563 18.2631 4.20952 18.487 4.48563 18.487H23.4856C23.7617 18.487 23.9856 18.2631 23.9856 17.987C23.9856 17.7109 23.7617 17.487 23.4856 17.487H21.5731C23.3361 15.5218 24.268 12.9493 24.1727 10.311C24.0773 7.6726 22.9621 5.17397 21.0619 3.34129C19.1617 1.50849 16.6244 0.484375 13.9842 0.484375C11.3443 0.484375 8.80695 1.50849 6.90649 3.34129C5.00626 5.17409 3.89106 7.67278 3.79574 10.311C3.70021 12.9494 4.63215 15.5219 6.39529 17.487H4.48563ZM4.79054 10.6819C4.78942 7.57112 6.36105 4.67043 8.9678 2.97329C11.5745 1.27615 14.8627 1.01123 17.7072 2.27015C20.5519 3.52906 22.5671 6.14089 23.0631 9.21186C23.5593 12.2826 22.4691 15.3964 20.1657 17.4867H7.80574C5.88722 15.7441 4.7926 13.2733 4.79054 10.6816V10.6819Z" fill="url(#paint1_linear_3912_23515)"/>
<path d="M18.7867 10.4329L14.3367 5.98532C14.1419 5.79135 13.8267 5.79135 13.6318 5.98532L9.18181 10.4329C9.08784 10.5266 9.03516 10.6538 9.03516 10.7867C9.03516 10.9192 9.08784 11.0465 9.18181 11.1402L13.6318 15.5878C13.8267 15.7817 14.1419 15.7817 14.3367 15.5878L18.7867 11.1402C18.8807 11.0465 18.9334 10.9192 18.9334 10.7867C18.9334 10.6538 18.8807 10.5266 18.7867 10.4329ZM13.9843 14.5277L10.2343 10.7777L13.9843 7.02772L17.7343 10.7777L13.9843 14.5277Z" fill="url(#paint2_linear_3912_23515)"/>
<defs>
<linearGradient id="paint0_linear_3912_23515" x1="21.2412" y1="12.4883" x2="21.2199" y2="25.8457" gradientUnits="userSpaceOnUse">
<stop stop-color="#005CAA"/>
<stop offset="1" stop-color="#64B0F1"/>
</linearGradient>
<linearGradient id="paint1_linear_3912_23515" x1="19.6753" y1="0.484375" x2="19.6025" y2="22.3449" gradientUnits="userSpaceOnUse">
<stop stop-color="#005CAA"/>
<stop offset="1" stop-color="#64B0F1"/>
</linearGradient>
<linearGradient id="paint2_linear_3912_23515" x1="16.747" y1="5.83984" x2="16.7016" y2="17.8534" gradientUnits="userSpaceOnUse">
<stop stop-color="#005CAA"/>
<stop offset="1" stop-color="#64B0F1"/>
</linearGradient>
</defs>
</svg>