<svg width="38" height="38" viewBox="0 0 26 14" fill="none" xmlns="http://www.w3.org/2000/svg">
<path d="M7.60892 10.8596C7.2569 10.8596 6.96897 10.5716 6.96897 10.2196L6.96875 3.81963C6.96875 3.46762 7.2567 3.17969 7.60869 3.17969C7.9607 3.17969 8.24864 3.46764 8.24864 3.81963V10.2196C8.24886 10.5716 7.99283 10.8596 7.60892 10.8596Z" fill="#CC1212"/>
<path d="M24.566 13.4497H1.39798C1.04597 13.4497 0.758036 13.1618 0.758036 12.8098L0.757812 9.44971C0.757812 9.0977 1.04576 8.80977 1.39776 8.80977C2.3897 8.80977 3.1897 8.00977 3.1897 7.01782C3.1897 6.02588 2.3897 5.22588 1.39776 5.22588C1.04574 5.22588 0.757812 4.93793 0.757812 4.58594V1.22588C0.757812 0.873869 1.04576 0.585938 1.39776 0.585938H24.5978C24.9498 0.585938 25.2377 0.873886 25.2377 1.22588V12.8099C25.206 13.1619 24.95 13.4498 24.5658 13.4498L24.566 13.4497ZM2.03798 12.1698H23.958L23.9578 1.86582H2.03776V4.00982C3.44581 4.29777 4.4697 5.54577 4.4697 7.01788C4.4697 8.48999 3.4137 9.738 2.03776 10.0259L2.03798 12.1698Z" fill="#CC1212"/>
</svg>