<svg width="38" height="38" viewBox="0 0 43 45" fill="none" xmlns="http://www.w3.org/2000/svg">
<path d="M7.5 24.5312C5.43249 24.5312 3.75 26.2137 3.75 28.2812C3.92612 33.2443 11.0745 33.243 11.25 28.2812C11.25 26.2137 9.56751 24.5312 7.5 24.5312ZM7.5 30.5312C4.53317 30.4536 4.53386 26.1086 7.5 26.0312C10.4668 26.1089 10.4661 30.4539 7.5 30.5312Z" fill="url(#paint0_linear_3620_16927)"/>
<path d="M7.5 33.5323C5.43249 33.5323 3.75 35.2147 3.75 37.2823V40.2823C3.75 40.6968 4.08583 41.0323 4.5 41.0323H10.5C10.9142 41.0323 11.25 40.6968 11.25 40.2823V37.2823C11.2982 35.2843 9.50623 33.4824 7.5 33.5323ZM9.75 39.5323H5.25V37.2823C5.25 36.0414 6.25911 35.0323 7.5 35.0323C8.70874 35.0048 9.77649 36.0816 9.75 37.2823V39.5323Z" fill="url(#paint1_linear_3620_16927)"/>
<path d="M15.0608 19.7382C15.6524 18.9564 14.4645 18.0504 13.8675 18.8292L12.1532 21.0792C11.7735 21.5453 12.1475 22.3036 12.7499 22.2836H18.7499C19.164 22.2836 19.4999 21.9478 19.4999 21.5336C19.4999 21.1194 19.164 20.7836 18.7499 20.7836H14.2643L15.0608 19.7382Z" fill="url(#paint2_linear_3620_16927)"/>
<path d="M18.7511 23.7816H12.7511C11.7658 23.798 11.7647 25.2653 12.7511 25.2816H17.2367L16.4402 26.3269C16.0572 26.797 16.4382 27.5503 17.0362 27.5316C17.2625 27.5316 17.4858 27.4299 17.6335 27.2363L19.3478 24.9863C19.7275 24.5196 19.3528 23.7623 18.7511 23.7816Z" fill="url(#paint3_linear_3620_16927)"/>
<path d="M41.1116 16.175H40.8149V10.6357C40.8149 9.73396 40.0813 9.00042 39.1804 9.00042H38.1458L40.0921 5.62507C40.299 5.26648 40.1758 4.80811 39.8175 4.60087L32.0253 0.100873C31.666 -0.107053 31.208 0.0171677 31.0011 0.37509L29.5898 2.81795L26.6249 1.10563C26.266 0.898376 25.8073 1.02126 25.6007 1.38052L21.2049 9.00035H16.4853C15.5835 9.00035 14.85 9.73394 14.85 10.6356V14.5654H0.75C0.335829 14.5654 0 14.9013 0 15.3154V44.25C0 44.6645 0.335829 45 0.75 45H21.99C23.0986 45 24.0003 44.0947 24.0003 42.982V34.282H26.9701C27.8138 34.282 28.5003 33.5957 28.5003 32.7519V28.3118C28.5003 27.468 27.8139 26.7816 26.9701 26.7816L24.0003 26.7819V24.5319H26.9701C27.8138 24.5319 28.5003 23.8456 28.5003 23.0018V18.5617C28.5003 17.7179 27.8139 17.0315 26.9701 17.0315L24.0003 17.0318C24.1486 15.7586 23.3269 14.5686 21.99 14.5642H16.3499V10.6344C16.3499 10.5611 16.4119 10.4991 16.4852 10.4991H21.6377C26.1581 10.5008 34.7486 10.4978 39.18 10.4991C39.253 10.4991 39.3149 10.5611 39.3149 10.6344V16.0792H35.1598C34.2213 16.0765 33.4823 16.8764 33.5231 17.8123V21.1866C33.5231 22.0899 34.2581 22.8248 35.1614 22.8248H39.3145V28.1769C39.3145 28.2516 39.2506 28.3189 39.1799 28.3189L30.7497 28.3192C30.3356 28.3192 29.9997 28.6547 29.9997 29.0692C29.9997 29.4837 30.3356 29.8192 30.7497 29.8192H39.1799C40.0813 29.8192 40.8145 29.0823 40.8145 28.1773V22.8252C41.8126 22.9407 42.7575 22.2239 42.7494 21.1866C42.7497 21.1866 42.7497 17.8123 42.7497 17.8123C42.7497 16.9089 42.0148 16.174 41.1115 16.174L41.1116 16.175ZM26.9696 28.283C26.983 28.283 26.9997 28.2997 26.9997 28.3131L26.9696 32.7829H23.9997V28.2829L26.9696 28.283ZM26.9696 18.533C26.983 18.533 26.9997 18.5494 26.9997 18.5631L26.9696 23.0329H23.9997V18.5329L26.9696 18.533ZM22.4997 16.583V33.533V42.983C22.4997 43.2686 22.2707 43.5009 21.9895 43.5009H1.49948V16.0664H21.9895C22.2707 16.0664 22.4997 16.2984 22.4997 16.5837V16.583ZM26.5246 2.77953L33.0178 6.52953L31.5915 9.0005H22.936L26.5246 2.77953ZM33.3238 9.0005L34.6919 6.63033C34.8988 6.27174 34.7763 5.81337 34.4177 5.60613L30.8894 3.56673L31.9243 1.77513L38.4178 5.52513L36.4139 9.00059L33.3238 9.0005ZM41.2497 21.1874C41.2497 21.2624 41.1865 21.3256 41.1115 21.3256H40.4073C40.3035 21.2711 40.1904 21.2326 40.0648 21.2326H35.1596C35.0867 21.2326 35.025 21.1706 35.025 21.0973V17.8084C35.0277 17.7354 35.0883 17.6744 35.1617 17.6744H41.1114C41.1864 17.6744 41.2497 17.7377 41.2497 17.8127L41.2497 21.1874Z" fill="url(#paint4_linear_3620_16927)"/>
<defs>
<linearGradient id="paint0_linear_3620_16927" x1="9.59332" y1="24.5312" x2="9.55921" y2="33.6042" gradientUnits="userSpaceOnUse">
<stop stop-color="#005CAA"/>
<stop offset="1" stop-color="#64B0F1"/>
</linearGradient>
<linearGradient id="paint1_linear_3620_16927" x1="9.59406" y1="33.5312" x2="9.55969" y2="42.6397" gradientUnits="userSpaceOnUse">
<stop stop-color="#005CAA"/>
<stop offset="1" stop-color="#64B0F1"/>
</linearGradient>
<linearGradient id="paint2_linear_3620_16927" x1="17.8432" y1="18.5312" x2="17.8346" y2="23.0882" gradientUnits="userSpaceOnUse">
<stop stop-color="#005CAA"/>
<stop offset="1" stop-color="#64B0F1"/>
</linearGradient>
<linearGradient id="paint3_linear_3620_16927" x1="17.8466" y1="23.7812" x2="17.838" y2="28.3358" gradientUnits="userSpaceOnUse">
<stop stop-color="#005CAA"/>
<stop offset="1" stop-color="#64B0F1"/>
</linearGradient>
<linearGradient id="paint4_linear_3620_16927" x1="33.3067" y1="-8.09317e-09" x2="33.0897" y2="54.6432" gradientUnits="userSpaceOnUse">
<stop stop-color="#005CAA"/>
<stop offset="1" stop-color="#64B0F1"/>
</linearGradient>
</defs>
</svg>