<svg width="38" height="38" viewBox="0 0 26 26" fill="none" xmlns="http://www.w3.org/2000/svg">
<path d="M22.3281 0.328125H3.66183C2.77766 0.328125 1.92989 0.679462 1.30469 1.30447C0.679662 1.92967 0.328348 2.77744 0.328348 3.66161V19.6616H1.66183V3.66161C1.66183 3.13103 1.87255 2.6223 2.24755 2.24733C2.62255 1.87235 3.13126 1.66161 3.66183 1.66161H22.3281C22.8587 1.66161 23.3674 1.87233 23.7424 2.24733C24.1174 2.62233 24.3281 3.13104 24.3281 3.66161V8.99487H21.6616C20.2323 8.99487 18.9121 9.75738 18.1973 10.9949C17.4828 12.2324 17.4828 13.7574 18.1973 14.9949C18.9121 16.2324 20.2323 16.9949 21.6616 16.9949H24.3283V22.3281H24.3281C24.3281 22.8587 24.1174 23.3674 23.7424 23.7424C23.3674 24.1174 22.8587 24.3281 22.3281 24.3281H0.328125V25.6614L22.3281 25.6616C23.2123 25.6616 24.0601 25.3103 24.6853 24.6853C25.3103 24.0601 25.6616 23.2123 25.6616 22.3281V3.66183C25.6616 2.77766 25.3103 1.92989 24.6853 1.30469C24.0601 0.679662 23.2123 0.328348 22.3281 0.328348L22.3281 0.328125ZM24.3281 15.6613L21.6616 15.6615C20.7089 15.6615 19.8286 15.1532 19.3522 14.328C18.8757 13.503 18.8757 12.4865 19.3522 11.6615C19.8286 10.8363 20.7089 10.328 21.6616 10.328H24.3283L24.3281 15.6613Z" fill="#CC1212"/>
<path d="M20.3008 12.3281H22.9675V13.6614H20.3008V12.3281Z" fill="#CC1212"/>
</svg>