<svg width="38" height="38" viewBox="0 0 33 30" fill="none" xmlns="http://www.w3.org/2000/svg">
<path d="M13.4844 15.4844H11.4844C11.3857 15.4846 11.2891 15.5138 11.2069 15.5683L8.98438 17.0505V15.9844C8.98438 15.7083 8.76049 15.4844 8.48438 15.4844C8.20826 15.4844 7.98438 15.7083 7.98438 15.9844V17.9844C7.98438 18.1688 8.08594 18.3384 8.24844 18.4253C8.41116 18.5123 8.60848 18.5027 8.76183 18.4005L11.6344 16.4844H13.4844C13.7605 16.4844 13.9844 16.2605 13.9844 15.9844C13.9844 15.7083 13.7605 15.4844 13.4844 15.4844V15.4844Z" fill="url(#paint0_linear_3912_23728)"/>
<path d="M8.30491 12.3683L8.50782 12.1989C9.04286 11.7509 9.53862 11.2583 9.99039 10.7263C10.4379 11.2576 10.9297 11.75 11.4603 12.1985L11.6638 12.3685V12.3683C11.8759 12.5453 12.1913 12.517 12.3683 12.3049C12.5453 12.0929 12.517 11.7775 12.3049 11.6005L12.1009 11.4304C11.56 10.9764 11.0629 10.4728 10.6163 9.92592C11.3708 8.87706 11.9549 7.7154 12.3469 6.48438H12.9844C13.2605 6.48438 13.4844 6.26049 13.4844 5.98438C13.4844 5.70826 13.2605 5.48438 12.9844 5.48438H10.4844V4.98438C10.4844 4.70826 10.2605 4.48438 9.98438 4.48438C9.70826 4.48438 9.48438 4.70826 9.48438 4.98438V5.48438H6.98438C6.70826 5.48438 6.48438 5.70826 6.48438 5.98438C6.48438 6.26049 6.70826 6.48438 6.98438 6.48438H11.296C10.9743 7.4038 10.5351 8.27769 9.98929 9.08438C9.69867 8.66272 9.43706 8.22186 9.20649 7.76495C9.14801 7.64508 9.04444 7.55356 8.91832 7.51048C8.7922 7.46763 8.65426 7.47656 8.53484 7.53571C8.41542 7.59486 8.32457 7.69932 8.2826 7.82566C8.24042 7.952 8.25046 8.08995 8.31028 8.20892C8.61296 8.80778 8.96428 9.38103 9.36028 9.92275C8.9114 10.4716 8.41205 10.9774 7.86897 11.4335L7.66495 11.6029C7.56294 11.688 7.49911 11.8098 7.48727 11.942C7.47522 12.0741 7.51629 12.2056 7.60133 12.3074C7.77835 12.5194 8.09375 12.548 8.30579 12.371L8.30491 12.3683Z" fill="url(#paint1_linear_3912_23728)"/>
<path d="M23.9844 15.9844C23.3216 15.9853 22.6861 16.2489 22.2174 16.7174C21.7489 17.1862 21.4853 17.8216 21.4844 18.4844V23.4844C21.4844 23.7605 21.7083 23.9844 21.9844 23.9844C22.2605 23.9844 22.4844 23.7605 22.4844 23.4844V20.4844H25.4844V23.4844C25.4844 23.7605 25.7083 23.9844 25.9844 23.9844C26.2605 23.9844 26.4844 23.7605 26.4844 23.4844V18.4844C26.4835 17.8216 26.2199 17.1861 25.7513 16.7174C25.2826 16.2489 24.6471 15.9853 23.9844 15.9844ZM22.4844 19.4844V18.4844C22.4844 17.9484 22.7703 17.4533 23.2344 17.1853C23.6984 16.9174 24.2703 16.9174 24.7344 17.1853C25.1984 17.4534 25.4844 17.9484 25.4844 18.4844V19.4844H22.4844Z" fill="url(#paint2_linear_3912_23728)"/>
<path d="M30.4844 11.4844H18.9844V2.98438C18.9835 2.32163 18.7199 1.68615 18.2513 1.2174C17.7826 0.748878 17.1471 0.485289 16.4844 0.484375H3.48438C2.82163 0.485268 2.18615 0.748884 1.7174 1.2174C1.24888 1.68615 0.985289 2.32163 0.984375 2.98438V13.9844C0.985268 14.6471 1.24888 15.2826 1.7174 15.7513C2.18615 16.2199 2.82163 16.4835 3.48438 16.4844H5.48438C5.76049 16.4844 5.98438 16.2605 5.98438 15.9844C5.98438 15.7083 5.76049 15.4844 5.48438 15.4844H3.48438C3.08661 15.4844 2.70489 15.3263 2.42369 15.0451C2.14249 14.7638 1.9844 14.3821 1.9844 13.9844V2.9844C1.9844 2.58664 2.14244 2.20492 2.42369 1.92372C2.70494 1.64252 3.08666 1.48443 3.48438 1.48443H16.4844C16.8821 1.48443 17.2639 1.64247 17.5451 1.92372C17.8263 2.20497 17.9843 2.58669 17.9843 2.9844V11.4844H17.4843C16.8216 11.4853 16.1861 11.7489 15.7174 12.2174C15.2488 12.6862 14.9853 13.3217 14.9843 13.9844V24.9844C14.9852 25.6471 15.2489 26.2826 15.7174 26.7514C16.1861 27.2199 16.8216 27.4835 17.4843 27.4844H22.3343L25.2085 29.4005C25.3618 29.502 25.5585 29.511 25.7205 29.4241C25.8828 29.3373 25.9839 29.1683 25.9844 28.9844V26.9844C25.9844 26.7083 25.7605 26.4844 25.4844 26.4844C25.2082 26.4844 24.9844 26.7083 24.9844 26.9844V28.0504L22.7618 26.5685V26.5683C22.6796 26.5138 22.583 26.4846 22.4843 26.4844H17.4843C17.0866 26.4844 16.7048 26.3263 16.4236 26.0451C16.1424 25.7638 15.9844 25.3821 15.9844 24.9844V13.9844C15.9844 13.5866 16.1424 13.2049 16.4236 12.9237C16.7049 12.6425 17.0866 12.4844 17.4843 12.4844H30.4843C30.8821 12.4844 31.2638 12.6424 31.545 12.9237C31.8262 13.2049 31.9843 13.5867 31.9843 13.9844V24.9844C31.9843 25.3821 31.8263 25.7639 31.545 26.0451C31.2638 26.3263 30.882 26.4844 30.4843 26.4844H28.4843C28.2082 26.4844 27.9843 26.7082 27.9843 26.9844C27.9843 27.2605 28.2082 27.4844 28.4843 27.4844H30.4843C31.1471 27.4835 31.7826 27.2198 32.2513 26.7513C32.7198 26.2826 32.9834 25.6471 32.9843 24.9844V13.9844C32.9834 13.3216 32.7198 12.6861 32.2513 12.2174C31.7825 11.7489 31.1471 11.4853 30.4843 11.4844L30.4844 11.4844Z" fill="url(#paint3_linear_3912_23728)"/>
<defs>
<linearGradient id="paint0_linear_3912_23728" x1="12.6591" y1="15.4844" x2="12.6522" y2="19.1274" gradientUnits="userSpaceOnUse">
<stop stop-color="#005CAA"/>
<stop offset="1" stop-color="#64B0F1"/>
</linearGradient>
<linearGradient id="paint1_linear_3912_23728" x1="11.9381" y1="4.48437" x2="11.8962" y2="14.202" gradientUnits="userSpaceOnUse">
<stop stop-color="#005CAA"/>
<stop offset="1" stop-color="#64B0F1"/>
</linearGradient>
<linearGradient id="paint2_linear_3912_23728" x1="25.3799" y1="15.9844" x2="25.3213" y2="25.6985" gradientUnits="userSpaceOnUse">
<stop stop-color="#005CAA"/>
<stop offset="1" stop-color="#64B0F1"/>
</linearGradient>
<linearGradient id="paint3_linear_3912_23728" x1="25.9158" y1="0.484375" x2="25.7954" y2="35.6979" gradientUnits="userSpaceOnUse">
<stop stop-color="#005CAA"/>
<stop offset="1" stop-color="#64B0F1"/>
</linearGradient>
</defs>
</svg>