<svg width="38" height="38" viewBox="0 0 24 32" fill="none" xmlns="http://www.w3.org/2000/svg">
<path d="M11.9855 0.970703C5.64038 0.970703 0.484375 6.1263 0.484375 12.4718C0.484375 15.7893 1.89575 18.7787 4.14752 20.8781L1.16403 27.9924H1.16381C1.08412 28.1784 1.1243 28.394 1.26582 28.5386C1.40712 28.6833 1.62163 28.7288 1.80935 28.6536L5.31226 27.2474L6.69306 30.6947C6.76851 30.8833 6.95043 31.0076 7.15355 31.0092C7.35668 31.011 7.5406 30.8895 7.61895 30.702L10.4842 23.8689C10.9761 23.9332 11.4759 23.9693 11.9851 23.9693C12.494 23.9693 12.9944 23.9329 13.486 23.8689L16.3523 30.702H16.3525C16.4308 30.8895 16.6148 31.011 16.8179 31.0092C17.021 31.0076 17.2029 30.8833 17.2782 30.6947L18.659 27.2474L22.1619 28.6536C22.3498 28.7288 22.5643 28.6835 22.7056 28.5386C22.8469 28.394 22.8871 28.1784 22.8074 27.9924L19.8251 20.877C22.0762 18.7777 23.4871 15.7886 23.4871 12.4718C23.4871 6.1267 18.3304 0.970703 11.9848 0.970703H11.9855ZM11.9855 1.97162C17.7907 1.97162 22.4867 6.6667 22.4867 12.4716C22.4867 18.2765 17.7907 22.9688 11.9855 22.9688C6.18038 22.9688 1.48552 18.2766 1.48552 12.4716C1.48552 6.66665 6.1806 1.97162 11.9855 1.97162ZM11.9855 3.97162C7.29689 3.97162 3.48552 7.78322 3.48552 12.4716C3.48239 12.6062 3.53373 12.7361 3.62793 12.8323C3.7219 12.9285 3.85092 12.9828 3.98552 12.9828C4.11989 12.9828 4.24891 12.9285 4.34288 12.8323C4.43708 12.7361 4.48842 12.6062 4.48552 12.4716C4.48552 8.32362 7.83752 4.97162 11.9855 4.97162C12.2574 4.96559 12.4746 4.74349 12.4746 4.47162C12.4746 4.19974 12.2574 3.97765 11.9855 3.97162ZM19.0255 21.5573L21.424 27.2762L18.5704 26.1316V26.1318C18.3146 26.0293 18.0242 26.1534 17.9211 26.409L16.8068 29.1923L14.4972 23.6903C16.1737 23.3159 17.7124 22.5762 19.0255 21.5575V21.5573ZM4.94723 21.5582C6.2602 22.5765 7.79837 23.3158 9.47449 23.6902L7.16889 29.1884L6.0546 26.4089C6.00527 26.2852 5.9084 26.1864 5.78563 26.1344C5.66309 26.0821 5.52469 26.0812 5.40126 26.1317L2.54765 27.2763L4.94723 21.5582Z" fill="url(#paint0_linear_4087_27027)"/>
<defs>
<linearGradient id="paint0_linear_4087_27027" x1="18.406" y1="0.970703" x2="18.2263" y2="37.4459" gradientUnits="userSpaceOnUse">
<stop stop-color="#005CAA"/>
<stop offset="1" stop-color="#64B0F1"/>
</linearGradient>
</defs>
</svg>