<svg width="38" height="38" viewBox="0 0 33 33" fill="none" xmlns="http://www.w3.org/2000/svg">
<path d="M17.4766 20.5386C17.4904 20.5386 17.5043 20.5375 17.5181 20.5352C18.9373 20.2995 19.9677 19.1694 19.9677 17.848C19.9677 16.5518 18.915 15.3968 17.5188 15.1611C17.4451 15.1489 17.3697 15.1694 17.3126 15.2176C17.2554 15.2658 17.2226 15.3368 17.2226 15.4116V20.2845C17.2226 20.3593 17.2554 20.4301 17.3123 20.4783C17.3588 20.5174 17.417 20.5386 17.4766 20.5386ZM17.7306 15.7299C18.7346 16.0223 19.4599 16.8886 19.4599 17.848C19.4599 18.8277 18.7487 19.6799 17.7306 19.9681V15.7299ZM14.5094 17.848C14.5094 17.4366 14.1748 17.102 13.7634 17.102C13.352 17.102 13.0174 17.4366 13.0174 17.848C13.0174 19.6328 14.3871 21.1656 16.2386 21.4968V22.2457C16.2386 22.6571 16.5732 22.9917 16.9846 22.9917C17.396 22.9917 17.7306 22.6571 17.7306 22.2457V21.4968C19.5819 21.1656 20.9518 19.633 20.9518 17.848C20.9518 16.0629 19.5822 14.5303 17.7306 14.1991V9.80602C18.7484 10.0942 19.4599 10.9464 19.4599 11.9261C19.4599 12.3375 19.7945 12.6721 20.2059 12.6721C20.6173 12.6721 20.9519 12.3375 20.9519 11.9261C20.9519 10.1411 19.5822 8.60848 17.7307 8.27728V7.52842C17.7307 7.11704 17.3961 6.78242 16.9847 6.78242C16.5733 6.78242 16.2387 7.11702 16.2387 7.52842V8.27728C14.3874 8.60853 13.0175 10.1411 13.0175 11.9261C13.0175 13.7109 14.3871 15.2438 16.2387 15.575V19.9681C15.2208 19.6797 14.5094 18.8275 14.5094 17.848ZM16.5239 15.1044C14.8146 14.8924 13.5255 13.5259 13.5255 11.9259C13.5255 10.3259 14.8146 8.95934 16.5239 8.74728C16.6512 8.73143 16.7467 8.62339 16.7467 8.49527V7.52807C16.7467 7.39682 16.8534 7.29012 16.9846 7.29012C17.1159 7.29012 17.2226 7.39682 17.2226 7.52807V8.49527C17.2226 8.62339 17.3181 8.73143 17.4454 8.74728C19.1547 8.95933 20.4438 10.3256 20.4438 11.9259C20.4438 12.0571 20.3371 12.1638 20.2059 12.1638C20.0746 12.1638 19.9679 12.0571 19.9679 11.9259C19.9679 10.6044 18.9378 9.47431 17.5184 9.23859C17.4449 9.22632 17.3695 9.2473 17.3126 9.29551C17.2556 9.34373 17.2228 9.41471 17.2228 9.48926V14.4174C17.2228 14.5455 17.3184 14.6535 17.4456 14.6694C19.155 14.8814 20.4441 16.2477 20.4441 17.848C20.4441 19.448 19.155 20.8145 17.4456 21.0265C17.3184 21.0424 17.2228 21.1504 17.2228 21.2785V22.2457C17.2228 22.377 17.1161 22.4837 16.9849 22.4837C16.8536 22.4837 16.7469 22.377 16.7469 22.2457V21.2785C16.7469 21.1504 16.6514 21.0424 16.5242 21.0265C14.8148 20.8145 13.5257 19.448 13.5257 17.848C13.5257 17.7167 13.6324 17.61 13.7637 17.61C13.8949 17.61 14.0016 17.7167 14.0016 17.848C14.0016 19.1694 15.0317 20.2995 16.4512 20.5352C16.525 20.5475 16.6 20.5265 16.657 20.4783C16.7139 20.4301 16.7467 20.3591 16.7467 20.2845V15.3567C16.7467 15.2283 16.6512 15.1203 16.5239 15.1044ZM16.7467 9.48922C16.7467 9.41445 16.7139 9.34369 16.657 9.29547C16.6 9.24726 16.5246 9.2265 16.4512 9.23855C15.032 9.47427 14.0016 10.6046 14.0016 11.9258C14.0016 13.2218 15.0543 14.377 16.4505 14.6127C16.4645 14.6151 16.4786 14.6162 16.4927 14.6162C16.5523 14.6162 16.6105 14.5953 16.6565 14.5562C16.7136 14.508 16.7465 14.437 16.7465 14.3622L16.7467 9.48922ZM16.2387 14.0441C15.2344 13.7517 14.5094 12.8852 14.5094 11.9261C14.5094 10.9464 15.2205 10.0941 16.2387 9.80597V14.0441ZM32.9844 4.08871C32.9844 3.94853 32.8708 3.83469 32.7304 3.83469H6.94007V1.24029C6.94007 1.13493 6.87512 1.04051 6.77668 1.00302C6.67824 0.965516 6.56708 0.992525 6.49677 1.07087L1.04923 7.15659C0.962843 7.25302 0.962843 7.399 1.04923 7.49543L6.497 13.5811C6.5461 13.6361 6.6153 13.6657 6.68628 13.6657C6.71664 13.6657 6.74744 13.6604 6.77691 13.649C6.87535 13.6115 6.9403 13.5171 6.9403 13.4117V10.8173H8.80099C8.18739 12.0446 7.84162 13.4278 7.84162 14.8905C7.84162 16.7405 8.39452 18.4635 9.34293 19.9041H8.03979C7.97863 19.7427 7.92282 19.5778 7.87416 19.4079C7.7976 19.1407 7.60787 18.924 7.35385 18.8133C7.10072 18.7028 6.81434 18.7113 6.56791 18.8361C6.18353 19.0309 5.98288 19.4751 6.09112 19.8925C6.09223 19.8963 6.09313 19.9003 6.09424 19.9041L5.30476 19.9043C5.16458 19.9043 5.05074 20.018 5.05074 20.1584C5.05074 20.2985 5.16436 20.4124 5.30476 20.4124H6.22687C6.66259 22.0577 7.47556 24.9619 8.01167 25.8693C8.11413 26.0427 8.24136 26.213 8.38533 26.3796L1.23848 26.3793C1.0983 26.3793 0.98446 26.493 0.98446 26.6334C0.98446 26.7735 1.09808 26.8874 1.23848 26.8874H8.88191C9.21896 27.1994 9.59059 27.4961 9.93973 27.7742C10.5163 28.2336 11.0607 28.6675 11.1953 28.9765C11.4194 29.4912 11.1063 31.5202 10.8563 32.6782C10.8266 32.8153 10.9139 32.9506 11.0509 32.9802C11.069 32.9843 11.0871 32.986 11.1047 32.986C11.2217 32.986 11.327 32.9046 11.3527 32.7856C11.4226 32.4626 12.0237 29.6068 11.6612 28.7738C11.4764 28.349 10.9109 27.8986 10.2565 27.3771C9.57992 26.8381 8.81295 26.2269 8.44889 25.6111C7.86718 24.6265 6.87323 20.8881 6.58237 19.7654C6.53371 19.5772 6.62412 19.377 6.79711 19.2893C6.90782 19.233 7.03661 19.2292 7.15045 19.279C7.26519 19.329 7.3509 19.4272 7.38572 19.5482C7.70336 20.6558 8.29018 21.6277 9.13195 22.4406C9.03686 22.5689 8.97325 22.7198 8.9507 22.8803C8.91365 23.1439 8.98463 23.4026 9.15048 23.6087C9.78128 24.3915 10.5732 25.0959 11.5042 25.7024C11.6219 25.7792 11.779 25.7457 11.8556 25.6281C11.9321 25.5105 11.8989 25.3533 11.7813 25.2768C10.8951 24.6995 10.1429 24.0312 9.54577 23.2899C9.46876 23.1944 9.43595 23.0741 9.45336 22.9511C9.47121 22.8247 9.53863 22.7145 9.64309 22.6412C9.82166 22.5158 10.0643 22.5359 10.2201 22.6888C11.3309 23.778 12.5657 24.6232 13.8902 25.2004C14.69 25.5491 15.2067 26.3368 15.2067 27.2075V32.7316C15.2067 32.8718 15.3204 32.9857 15.4608 32.9857C15.6009 32.9857 15.7148 32.872 15.7148 32.7316V27.2075C15.7148 27.0995 15.7081 26.9926 15.6954 26.8872H18.2732C18.2607 26.9926 18.2538 27.0995 18.2538 27.2075V32.7316C18.2538 32.8718 18.3674 32.9857 18.5078 32.9857C18.648 32.9857 18.7619 32.872 18.7619 32.7316V27.2075C18.7619 26.3368 19.2786 25.5491 20.0784 25.2004C21.4029 24.6231 22.6377 23.778 23.7485 22.6888C23.9043 22.5359 24.1469 22.516 24.3255 22.6412C24.43 22.7147 24.4974 22.8247 24.5152 22.9511C24.5324 23.0741 24.4998 23.1944 24.4228 23.2899C23.8258 24.0312 23.0738 24.6995 22.1874 25.2768C22.0697 25.3533 22.0365 25.5107 22.113 25.6281C22.1896 25.7457 22.347 25.779 22.4644 25.7024C23.3956 25.0962 24.1876 24.3917 24.8181 23.6087C24.9842 23.4024 25.0552 23.1439 25.0179 22.8803C24.9951 22.7198 24.9315 22.5687 24.8364 22.4404C25.6781 21.6272 26.2652 20.6556 26.5828 19.5482C26.6177 19.4272 26.7034 19.3292 26.8181 19.279C26.9319 19.2294 27.0607 19.2332 27.1714 19.2893C27.3447 19.377 27.4348 19.5772 27.3864 19.7654C27.0956 20.8877 26.1016 24.6263 25.5199 25.6111C25.156 26.2269 24.3891 26.8381 23.7123 27.3772C23.0576 27.8986 22.4924 28.349 22.3076 28.7738C21.9451 29.6068 22.5462 32.4626 22.6161 32.7856C22.6418 32.9046 22.7471 32.9861 22.8641 32.9861C22.8817 32.9861 22.8998 32.9843 22.9179 32.9803C23.0549 32.9506 23.142 32.8155 23.1125 32.6782C22.8625 31.5204 22.5491 29.4916 22.7734 28.9765C22.9078 28.6675 23.4525 28.2336 24.029 27.7742C24.3782 27.4961 24.75 27.1994 25.0869 26.8874H27.0286V29.4818C27.0286 29.5871 27.0935 29.6816 27.192 29.7191C27.2214 29.7304 27.2523 29.7358 27.2826 29.7358C27.3534 29.7358 27.4228 29.7061 27.4719 29.6512L32.9197 23.5655C33.006 23.4691 33.006 23.3231 32.9197 23.2266L27.4719 17.1409C27.4016 17.0626 27.2904 17.0356 27.192 17.0731C27.0935 17.1106 27.0286 17.205 27.0286 17.3103V18.7387C26.8886 18.7318 26.7473 18.7563 26.615 18.8141C26.3607 18.9249 26.1712 19.1416 26.0947 19.4088C26.046 19.5786 25.9902 19.7436 25.929 19.905H24.6259C25.5743 18.4641 26.1272 16.7411 26.1272 14.8909C26.1272 13.4282 25.7814 12.0449 25.1681 10.8177H25.5181C25.6582 10.8177 25.7721 10.7041 25.7721 10.5637C25.7721 10.4235 25.6585 10.3097 25.5181 10.3097H24.8942C23.3096 7.58448 20.3575 5.74831 16.9845 5.74831C13.6114 5.74831 10.6593 7.58471 9.07475 10.3099H6.68589C6.54571 10.3099 6.43187 10.4235 6.43187 10.5639V12.7479L1.57919 7.32621L6.4321 1.90455V4.08849C6.4321 4.22867 6.54572 4.34251 6.68612 4.34251L32.7301 4.34273C32.8703 4.34273 32.9841 4.22889 32.9841 4.08872L32.9844 4.08871ZM32.3895 23.3961L27.5366 28.8176V26.6336C27.5366 26.4934 27.423 26.3796 27.2826 26.3796H25.5835C25.7275 26.2131 25.8545 26.043 25.9572 25.8693C26.5558 24.856 27.5 21.3521 27.8781 19.8928C27.9728 19.5276 27.831 19.1419 27.5366 18.9204V17.9742L32.3895 23.3961ZM25.7095 20.4124C25.3979 21.0466 24.9745 21.6127 24.4316 22.1247C24.0825 21.9805 23.6723 22.0524 23.393 22.3265C22.3267 23.3723 21.1432 24.1827 19.8758 24.7352C19.1535 25.0499 18.6189 25.6559 18.3849 26.3796H15.584C15.3501 25.6559 14.8155 25.0499 14.0932 24.7352C12.8255 24.1827 11.6423 23.3724 10.576 22.3265C10.2967 22.0526 9.88649 21.9807 9.53735 22.1247C8.99427 21.6127 8.57083 21.0466 8.25923 20.4124H9.70232C11.3735 22.6111 14.0159 24.0336 16.9846 24.0336C19.9531 24.0336 22.5955 22.6111 24.2669 20.4124H25.7095ZM16.9844 6.25585C21.7455 6.25585 25.6192 10.1295 25.6192 14.8907C25.6192 19.6519 21.7456 23.5256 16.9844 23.5256C12.2232 23.5256 8.34952 19.6519 8.34952 14.8907C8.34952 10.1296 12.2232 6.25585 16.9844 6.25585ZM0.984375 20.1587C0.984375 20.0185 1.09799 19.9047 1.23839 19.9047H1.99576C2.13594 19.9047 2.24978 20.0183 2.24978 20.1587C2.24978 20.2989 2.13616 20.4127 1.99576 20.4127L1.23839 20.4125C1.09821 20.4125 0.984375 20.2989 0.984375 20.1587ZM3.03706 20.4125C2.89688 20.4125 2.78304 20.2989 2.78304 20.1585C2.78304 20.0183 2.89666 19.9045 3.03706 19.9045H4.26449C4.40467 19.9045 4.51851 20.0181 4.51851 20.1585C4.51851 20.2987 4.40489 20.4125 4.26449 20.4125H3.03706ZM32.7382 10.5639C32.7382 10.7041 32.6246 10.8179 32.4842 10.8179H31.2337C31.0936 10.8179 30.9797 10.7043 30.9797 10.5639C30.9797 10.4238 31.0933 10.3099 31.2337 10.3099H32.4842C32.6244 10.3099 32.7382 10.4235 32.7382 10.5639ZM30.1621 10.3099C30.3023 10.3099 30.4161 10.4235 30.4161 10.5639C30.4161 10.7041 30.3025 10.8179 30.1621 10.8179H28.9116C28.7715 10.8179 28.6576 10.7043 28.6576 10.5639C28.6576 10.4238 28.7712 10.3099 28.9116 10.3099H30.1621ZM27.84 10.3099C27.9802 10.3099 28.094 10.4235 28.094 10.5639C28.094 10.7041 27.9804 10.8179 27.84 10.8179H26.5895C26.4493 10.8179 26.3355 10.7043 26.3355 10.5639C26.3355 10.4238 26.4491 10.3099 26.5895 10.3099H27.84Z" fill="#CC1212"/>
</svg>