<svg width="38" height="38" viewBox="0 0 24 26" fill="none" xmlns="http://www.w3.org/2000/svg">
<path d="M3.41902 19.6375L5.46747 19.6386V19.6366C5.50609 19.6366 5.53979 19.6221 5.56301 19.5987C5.58756 19.5741 5.60274 19.5393 5.60274 19.5V12.0509C5.60274 12.0116 5.58756 11.9768 5.56323 11.9524C5.5398 11.929 5.50609 11.9145 5.46747 11.9145V11.9125H3.01456L3.04313 11.389C3.17594 8.96045 4.2505 6.74503 5.88353 5.14103C7.51256 3.54057 9.69782 2.5444 12.0612 2.5444C14.4253 2.5444 16.6108 3.5404 18.2401 5.14085C19.8734 6.74508 20.9479 8.96051 21.0807 11.3894L21.1093 11.9129H18.5642V11.9149C18.5254 11.9149 18.4915 11.9294 18.4685 11.9526C18.4441 11.9769 18.4292 12.012 18.4292 12.0515V19.5006C18.4292 19.5399 18.4443 19.5747 18.4689 19.5993C18.4921 19.6227 18.5258 19.637 18.5644 19.637H22.1542C22.1925 19.637 22.2263 19.6225 22.2497 19.5988C22.2742 19.5741 22.2896 19.5395 22.2896 19.5004V12.0513C22.2896 12.0343 22.2874 12.0202 22.2832 12.0093C22.2769 11.9928 22.2675 11.9774 22.2557 11.9635L22.1365 11.651C22.0705 8.88298 20.8917 6.34012 19.0535 4.49046C17.2256 2.65098 14.7454 1.50006 12.0615 1.50006C9.39298 1.50006 6.92578 2.63823 5.10035 4.46012C3.26372 6.29315 2.07761 8.81526 1.98875 11.5653L1.98116 11.8001L1.79545 11.9443C1.77871 11.9574 1.76465 11.9744 1.75482 11.9941C1.74701 12.0099 1.74255 12.0293 1.74255 12.0514V19.5006C1.74255 19.539 1.75706 19.5729 1.78049 19.5963C1.80505 19.6207 1.83965 19.6358 1.87893 19.6358H3.41933V19.6381L3.41902 19.6375ZM5.46747 20.6346L3.38822 20.6335C3.43442 22.0522 4.04113 22.9254 4.9409 23.4364C5.87793 23.9683 7.1409 24.1442 8.44736 24.1386C8.50941 23.8632 8.63754 23.3875 8.81031 23.0263C8.99803 22.6341 9.26366 22.3438 9.63551 22.3438H12.8272C13.1705 22.3438 13.4828 22.4844 13.71 22.7116C13.9361 22.9377 14.0759 23.2493 14.0759 23.5926V24.2518C14.0759 24.5951 13.9352 24.9072 13.7082 25.134C13.4821 25.3599 13.1705 25.4996 12.8274 25.4996H9.63572C9.41072 25.4996 9.19911 25.4384 9.0156 25.3317C8.92051 25.2764 8.83324 25.2087 8.75623 25.1311C7.1924 25.1681 5.63457 24.9768 4.44863 24.3036C3.24303 23.6192 2.43457 22.4737 2.38971 20.6353H1.87855C1.56605 20.6353 1.28278 20.5083 1.07701 20.3028C0.87009 20.0963 0.742188 19.8121 0.742188 19.5001V12.0509C0.742188 11.8732 0.784821 11.7041 0.860045 11.5523C0.898661 11.4741 0.946205 11.4011 1.00089 11.3346C1.14776 8.39846 2.43192 5.71389 4.39712 3.75291C6.40312 1.75091 9.11923 0.5 12.0611 0.5C15.0205 0.5 17.7508 1.7652 19.7605 3.78726C21.7371 5.77611 23.0164 8.50063 23.128 11.4741C23.1628 11.5321 23.1927 11.5935 23.2168 11.6578C23.2635 11.7822 23.2896 11.9145 23.2896 12.0513V19.5005C23.2896 19.8123 23.1623 20.096 22.9568 20.302C22.7503 20.5087 22.4664 20.6371 22.1541 20.6371H18.5644C18.2514 20.6371 17.9679 20.509 17.7617 20.3025C17.5561 20.0964 17.4291 19.8125 17.4291 19.5007V12.0516C17.4291 11.7391 17.5559 11.4556 17.7615 11.2496C17.9677 11.0429 18.2514 10.915 18.5644 10.915V10.917H20.0392C19.8066 8.95314 18.8852 7.17257 17.5407 5.85223C16.0929 4.43011 14.1545 3.54485 12.0612 3.54485C9.9686 3.54485 8.03066 4.43011 6.58289 5.85246C5.23872 7.17297 4.31729 8.95314 4.08466 10.917H5.46746V10.915C5.77974 10.915 6.06369 11.0429 6.27015 11.2498C6.47551 11.4556 6.60274 11.7391 6.60274 12.0513V19.5005C6.60274 19.8123 6.47572 20.0962 6.27015 20.3022C6.0639 20.5089 5.78042 20.6371 5.46769 20.6371V20.6351L5.46747 20.6346ZM9.41947 24.3683L9.42349 24.375C9.44626 24.4141 9.47796 24.4464 9.51568 24.4683C9.54983 24.4882 9.59068 24.4996 9.63577 24.4996H12.8275C12.8976 24.4996 12.9603 24.4719 13.0052 24.427C13.0489 24.3833 13.0759 24.3214 13.0759 24.2518V23.5926C13.0759 23.5228 13.048 23.4598 13.0029 23.4147C12.9592 23.3708 12.8971 23.3438 12.8273 23.3438H9.63555C9.54091 23.3438 9.73957 23.3915 9.70877 23.456C9.57394 23.738 9.46881 24.1418 9.41926 24.3683L9.41947 24.3683Z" fill="url(#paint0_linear_4497_31784)"/>
<defs>
<linearGradient id="paint0_linear_4497_31784" x1="18.3091" y1="0.5" x2="18.1821" y2="30.8568" gradientUnits="userSpaceOnUse">
<stop stop-color="#005CAA"/>
<stop offset="1" stop-color="#64B0F1"/>
</linearGradient>
</defs>
</svg>