<svg width="30" height="32" viewBox="0 0 30 32" fill="none" xmlns="http://www.w3.org/2000/svg">
<path d="M15.7836 30.7881H15.7365C15.7227 30.7881 15.707 30.7881 15.6934 30.7862C15.6758 30.7843 15.6582 30.7823 15.6366 30.7783C15.6249 30.7764 15.6112 30.7724 15.5993 30.7686C14.4656 30.4274 13.3458 29.9428 12.2749 29.3289C11.2452 28.7404 10.2528 28.0286 9.32505 27.2147C7.53449 25.6438 5.99093 23.6902 4.85918 21.5663C2.66848 17.4493 1.68178 12.3383 2.14869 7.54703C2.17032 7.32353 2.34675 7.14689 2.57047 7.12335C2.58807 7.12144 4.41808 6.93314 6.91077 6.05843C9.20158 5.25435 12.5375 3.69108 15.4249 0.802267C15.6092 0.617994 15.9074 0.617994 16.0897 0.802267C18.9788 3.6913 22.3147 5.25435 24.6039 6.05843C27.0968 6.93313 28.9266 7.12335 28.9442 7.12335C29.1677 7.14498 29.3444 7.32332 29.366 7.54512C29.8348 12.3386 28.8462 17.4474 26.6555 21.5644C25.5237 23.6905 23.9802 25.6439 22.1896 27.2128C21.2619 28.0267 20.2695 28.7366 19.2397 29.327C18.1688 29.9409 17.049 30.4233 15.9154 30.7667C15.9037 30.7705 15.8938 30.7726 15.8821 30.7764C15.8605 30.7823 15.8429 30.7843 15.8234 30.7862C15.8153 30.7883 15.7996 30.7883 15.7839 30.7883L15.7836 30.7881ZM3.05302 8.00924C2.68828 12.5124 3.64147 17.2726 5.69098 21.1225C7.92283 25.3159 11.6809 28.5634 15.7599 29.8326C19.8413 28.5656 23.5993 25.3178 25.8293 21.1225C27.8789 17.2705 28.832 12.5122 28.4673 8.00924C27.7828 7.90915 26.2568 7.63073 24.325 6.95599C22.805 6.42458 21.3478 5.75579 19.9945 4.96713C18.4391 4.06121 17.0173 2.99438 15.76 1.79206C14.5049 2.99438 13.0809 4.06126 11.5255 4.96734C10.1722 5.75573 8.71496 6.42459 7.19496 6.95621C5.26315 7.63076 3.73723 7.90729 3.05291 8.00924H3.05302Z" fill="url(#paint0_linear_3703_35602)"/>
<path d="M15.7618 20.1264C15.5009 20.1264 15.291 19.9165 15.291 19.6557V11.7989C15.291 11.5381 15.5009 11.3281 15.7618 11.3281C16.0226 11.3281 16.2325 11.5381 16.2325 11.7989V19.6557C16.2325 19.9146 16.0226 20.1264 15.7618 20.1264Z" fill="url(#paint1_linear_3703_35602)"/>
<path d="M19.6889 16.1954H11.8321C11.5713 16.1954 11.3613 15.9855 11.3613 15.7247C11.3613 15.4638 11.5713 15.2539 11.8321 15.2539H19.6889C19.9497 15.2539 20.1596 15.4638 20.1596 15.7247C20.1596 15.9855 19.9478 16.1954 19.6889 16.1954Z" fill="url(#paint2_linear_3703_35602)"/>
<path d="M0.627477 31.2171C0.624084 31.2188 0.620267 31.2203 0.616451 31.2214C0.613058 31.2224 0.609241 31.2231 0.605424 31.2231C0.592913 31.2231 0.583371 31.2197 0.576585 31.2129C0.569799 31.2061 0.566406 31.1972 0.566406 31.1858C0.566406 31.1745 0.569799 31.1654 0.576585 31.1586C0.583371 31.1518 0.592913 31.1484 0.605424 31.1484C0.609241 31.1484 0.613058 31.1491 0.616451 31.1501C0.620268 31.1508 0.624084 31.1518 0.627477 31.1535V31.1688C0.624084 31.1667 0.620691 31.165 0.617299 31.1637C0.613906 31.1626 0.610089 31.162 0.606272 31.162C0.59991 31.162 0.594821 31.1643 0.591004 31.1688C0.586975 31.1728 0.585066 31.1785 0.585066 31.1858C0.585066 31.1932 0.586975 31.1991 0.591004 31.2036C0.594821 31.2076 0.59991 31.2095 0.606272 31.2095C0.610089 31.2095 0.613906 31.2091 0.617299 31.2078C0.620691 31.2068 0.624084 31.2051 0.627477 31.2027V31.2171Z" fill="url(#paint3_linear_3703_35602)"/>
<path d="M0.680491 31.1802C0.678795 31.1798 0.677098 31.1791 0.675402 31.1785C0.674129 31.1781 0.672857 31.1776 0.671161 31.1776C0.666496 31.1776 0.663103 31.1791 0.660982 31.1819C0.65865 31.1848 0.657589 31.1891 0.657589 31.1946V31.2192H0.640625V31.1658H0.657589V31.1742C0.65971 31.1708 0.662254 31.1683 0.665223 31.1666C0.66798 31.1649 0.671372 31.1641 0.675402 31.1641H0.677098H0.680491L0.680491 31.1802Z" fill="url(#paint4_linear_3703_35602)"/>
<path d="M0.743227 31.1921V31.1971H0.70336C0.70336 31.2012 0.70442 31.2044 0.706753 31.2065C0.70951 31.2082 0.713115 31.209 0.71778 31.209C0.721597 31.209 0.725413 31.2086 0.728806 31.2073C0.732623 31.2063 0.736652 31.2048 0.740681 31.2031V31.2158C0.736652 31.2175 0.732411 31.2188 0.727958 31.2192C0.723929 31.2203 0.719899 31.2209 0.716083 31.2209C0.706328 31.2209 0.698694 31.2183 0.693181 31.2133C0.688091 31.2082 0.685547 31.2012 0.685547 31.1921C0.685547 31.1836 0.688092 31.1768 0.693181 31.1717C0.698694 31.1666 0.706116 31.1641 0.715234 31.1641C0.723716 31.1641 0.730502 31.1666 0.735591 31.1717C0.740681 31.1768 0.743227 31.1836 0.743227 31.1921ZM0.725414 31.1861C0.725414 31.1834 0.724142 31.181 0.722021 31.1793C0.720325 31.1772 0.717992 31.1759 0.715236 31.1759C0.711843 31.1759 0.708874 31.1768 0.706754 31.1785C0.705057 31.1802 0.703785 31.1827 0.703361 31.1861L0.725414 31.1861Z" fill="url(#paint5_linear_3703_35602)"/>
<path d="M0.779944 31.1946C0.776551 31.1946 0.773582 31.1954 0.771462 31.1971C0.769765 31.1984 0.768917 31.2001 0.768917 31.2022C0.768917 31.2046 0.769765 31.2063 0.771462 31.2073C0.773158 31.2086 0.775067 31.209 0.7774 31.209C0.780792 31.209 0.783549 31.208 0.785882 31.2056C0.788002 31.2035 0.789275 31.2005 0.789275 31.1971V31.1946H0.779944ZM0.806239 31.1887V31.2192H0.789275V31.2116C0.786942 31.2145 0.784185 31.2167 0.780792 31.2183C0.777824 31.22 0.774431 31.2209 0.770614 31.2209C0.764888 31.2209 0.760435 31.2192 0.757042 31.2158C0.75365 31.2124 0.751953 31.2082 0.751953 31.2031C0.751953 31.1969 0.753862 31.1925 0.757891 31.1895C0.762344 31.1861 0.769342 31.1844 0.779096 31.1844H0.789275V31.1836C0.789275 31.1808 0.788002 31.1789 0.785882 31.1776C0.783549 31.1766 0.780156 31.1759 0.775703 31.1759C0.77231 31.1759 0.768917 31.1764 0.765525 31.1768C0.762132 31.1774 0.759163 31.1785 0.757042 31.1802V31.1666C0.760435 31.1662 0.763828 31.1655 0.767221 31.1649C0.771038 31.1645 0.775067 31.1641 0.779096 31.1641C0.788638 31.1641 0.795424 31.1662 0.799453 31.17C0.803906 31.174 0.806239 31.1802 0.806239 31.1887Z" fill="url(#paint6_linear_3703_35602)"/>
<path d="M0.841852 31.1523V31.1676H0.859664V31.1795H0.841852V31.2024C0.841852 31.2047 0.842064 31.2064 0.8427 31.2075C0.843761 31.2081 0.846093 31.2083 0.849486 31.2083H0.857968V31.221H0.843549C0.836763 31.221 0.831886 31.2198 0.829129 31.2168C0.826161 31.2141 0.824888 31.2092 0.824888 31.2024V31.1795H0.816406V31.1676H0.824888V31.1523L0.841852 31.1523Z" fill="url(#paint7_linear_3703_35602)"/>
<path d="M0.922914 31.1921V31.1971H0.883048C0.883048 31.2012 0.884108 31.2044 0.886441 31.2065C0.889197 31.2082 0.892802 31.209 0.897467 31.209C0.901284 31.209 0.905101 31.2086 0.908494 31.2073C0.912311 31.2063 0.916339 31.2048 0.920369 31.2031V31.2158C0.91634 31.2175 0.912099 31.2188 0.907645 31.2192C0.903616 31.2203 0.899587 31.2209 0.89577 31.2209C0.886015 31.2209 0.878382 31.2183 0.872868 31.2133C0.867779 31.2082 0.865234 31.2012 0.865234 31.1921C0.865234 31.1836 0.867779 31.1768 0.872868 31.1717C0.878381 31.1666 0.885803 31.1641 0.894922 31.1641C0.903404 31.1641 0.910189 31.1666 0.915279 31.1717C0.920368 31.1768 0.922914 31.1836 0.922914 31.1921ZM0.905102 31.1861C0.905102 31.1834 0.903829 31.181 0.901709 31.1793C0.900013 31.1772 0.89768 31.1759 0.894923 31.1759C0.89153 31.1759 0.888561 31.1768 0.886441 31.1785C0.884745 31.1802 0.883472 31.1827 0.883048 31.1861L0.905102 31.1861Z" fill="url(#paint8_linear_3703_35602)"/>
<path d="M0.972355 31.1734V31.1445H0.989319V31.2192H0.972355V31.2115C0.970022 31.2145 0.967478 31.2166 0.964721 31.2183C0.961752 31.22 0.95836 31.2209 0.954543 31.2209C0.947757 31.2209 0.942031 31.2183 0.937578 31.2132C0.933549 31.2077 0.931641 31.2005 0.931641 31.192C0.931641 31.1842 0.933549 31.1776 0.937578 31.1725C0.942032 31.167 0.947757 31.164 0.954543 31.164C0.95836 31.164 0.961752 31.1649 0.964721 31.1666C0.967478 31.1679 0.970023 31.17 0.972355 31.1734ZM0.961328 31.2081C0.964721 31.2081 0.967266 31.2069 0.968962 31.2039C0.971083 31.2011 0.972355 31.1971 0.972355 31.192C0.972355 31.1869 0.971083 31.1833 0.968962 31.181C0.967266 31.1782 0.964721 31.1768 0.961328 31.1768C0.957299 31.1768 0.954119 31.1782 0.951998 31.181C0.950301 31.1833 0.949453 31.1869 0.949453 31.192C0.949453 31.1971 0.950301 31.2011 0.951998 31.2039C0.954118 31.2069 0.957299 31.2081 0.961328 31.2081Z" fill="url(#paint9_linear_3703_35602)"/>
<path d="M1.06985 31.2081C1.07325 31.2081 1.07579 31.2069 1.07749 31.2039C1.07961 31.2011 1.08088 31.1971 1.08088 31.192C1.08088 31.1869 1.07961 31.1833 1.07749 31.181C1.07579 31.1782 1.07325 31.1768 1.06985 31.1768C1.06583 31.1768 1.06265 31.1782 1.06052 31.181C1.05883 31.1833 1.05798 31.1869 1.05798 31.192C1.05798 31.1971 1.05883 31.2011 1.06052 31.2039C1.06264 31.2069 1.06583 31.2081 1.06985 31.2081ZM1.05798 31.1734C1.0601 31.17 1.06265 31.1679 1.06561 31.1666C1.06837 31.1649 1.07176 31.164 1.07579 31.164C1.08258 31.164 1.08788 31.167 1.09191 31.1725C1.09636 31.1776 1.09869 31.1842 1.09869 31.192C1.09869 31.2005 1.09636 31.2077 1.09191 31.2132C1.08788 31.2183 1.08258 31.2209 1.07579 31.2209C1.07176 31.2209 1.06837 31.22 1.06561 31.2183C1.06264 31.2166 1.0601 31.2145 1.05798 31.2115V31.2192H1.04102V31.1445H1.05798V31.1734Z" fill="url(#paint10_linear_3703_35602)"/>
<path d="M1.10352 31.168H1.12133L1.13575 31.2044L1.14762 31.168H1.16543L1.14253 31.2265C1.1402 31.2326 1.13744 31.2369 1.13405 31.2392C1.13108 31.2413 1.12726 31.2426 1.12218 31.2426H1.11284V31.2316H1.11793C1.12069 31.2316 1.1226 31.2309 1.12387 31.2299C1.12557 31.2286 1.12663 31.2269 1.12726 31.2248L1.12811 31.2231L1.10352 31.168Z" fill="url(#paint11_linear_3703_35602)"/>
<path d="M1.25877 31.1518V31.1671C1.25538 31.1654 1.25156 31.1643 1.24774 31.1637C1.24372 31.1626 1.24011 31.162 1.23672 31.162C1.23269 31.162 1.22951 31.1626 1.22739 31.1637C1.22505 31.165 1.22399 31.1669 1.22399 31.1696C1.22399 31.1713 1.22442 31.1728 1.22569 31.1739C1.22739 31.1752 1.23014 31.176 1.23417 31.1764L1.24181 31.1781C1.24965 31.1798 1.25538 31.1824 1.25877 31.1858C1.26216 31.1887 1.26386 31.1932 1.26386 31.1993C1.26386 31.2074 1.26132 31.2133 1.25623 31.2171C1.25156 31.2212 1.24456 31.2231 1.23502 31.2231C1.23036 31.2231 1.2259 31.2224 1.22145 31.2214C1.21679 31.221 1.21233 31.2197 1.20788 31.218V31.2019C1.21233 31.2042 1.21657 31.2061 1.2206 31.2078C1.22506 31.2091 1.2293 31.2095 1.23333 31.2095C1.23714 31.2095 1.24032 31.2091 1.24266 31.2078C1.24478 31.2061 1.24605 31.2042 1.24605 31.2019C1.24605 31.1998 1.2452 31.1981 1.2435 31.1968C1.24223 31.1951 1.23948 31.194 1.23502 31.1934L1.22824 31.1917C1.22081 31.19 1.21551 31.1875 1.21212 31.1841C1.20873 31.1807 1.20703 31.1762 1.20703 31.1705C1.20703 31.1633 1.20915 31.1578 1.21382 31.1544C1.21891 31.1506 1.22569 31.1484 1.23417 31.1484C1.23799 31.1484 1.24202 31.1489 1.24605 31.1493C1.2505 31.1499 1.25474 31.1508 1.25877 31.1518Z" fill="url(#paint12_linear_3703_35602)"/>
<path d="M1.32323 31.2078H1.29439L1.2893 31.2205H1.27148L1.29778 31.1484H1.31983L1.34613 31.2205H1.32747L1.32323 31.2078ZM1.29863 31.1942H1.31814L1.30881 31.1654L1.29863 31.1942Z" fill="url(#paint13_linear_3703_35602)"/>
<path d="M1.35547 31.1484H1.37837L1.39534 31.1875L1.41145 31.1484H1.4352V31.2205H1.41739V31.1679L1.40127 31.207H1.3894L1.37243 31.1679V31.2205H1.35547L1.35547 31.1484Z" fill="url(#paint14_linear_3703_35602)"/>
<path d="M1.50609 31.1629V31.207H1.51288C1.52073 31.207 1.52666 31.2051 1.53069 31.201C1.53451 31.1972 1.53663 31.1917 1.53663 31.1849C1.53663 31.1777 1.53451 31.1722 1.53069 31.1688C1.52666 31.165 1.52073 31.1629 1.51288 31.1629L1.50609 31.1629ZM1.48828 31.1484H1.50779C1.51839 31.1484 1.52645 31.1493 1.53154 31.151C1.53705 31.1527 1.54193 31.1552 1.54596 31.1586C1.54872 31.162 1.55105 31.166 1.55275 31.1705C1.55444 31.1745 1.55529 31.1794 1.55529 31.1849C1.55529 31.19 1.55444 31.1949 1.55275 31.1993C1.55105 31.2034 1.54872 31.207 1.54596 31.2104C1.54193 31.2144 1.53705 31.2171 1.53154 31.2188C1.52645 31.2201 1.51839 31.2205 1.50779 31.2205H1.48828V31.1484Z" fill="url(#paint15_linear_3703_35602)"/>
<path d="M1.62213 31.1921V31.1971H1.58227C1.58227 31.2012 1.58333 31.2044 1.58566 31.2065C1.58842 31.2082 1.59202 31.209 1.59669 31.209C1.6005 31.209 1.60432 31.2086 1.60771 31.2073C1.61153 31.2063 1.61556 31.2048 1.61959 31.2031V31.2158C1.61556 31.2175 1.61132 31.2188 1.60686 31.2192C1.60283 31.2203 1.59881 31.2209 1.59499 31.2209C1.58523 31.2209 1.5776 31.2183 1.57209 31.2133C1.567 31.2082 1.56445 31.2012 1.56445 31.1921C1.56445 31.1836 1.567 31.1768 1.57209 31.1717C1.5776 31.1666 1.58502 31.1641 1.59414 31.1641C1.60262 31.1641 1.60941 31.1666 1.6145 31.1717C1.61959 31.1768 1.62213 31.1836 1.62213 31.1921ZM1.60432 31.1861C1.60432 31.1834 1.60305 31.181 1.60093 31.1793C1.59923 31.1772 1.5969 31.1759 1.59414 31.1759C1.59075 31.1759 1.58778 31.1768 1.58566 31.1785C1.58396 31.1802 1.58269 31.1827 1.58227 31.1861L1.60432 31.1861Z" fill="url(#paint16_linear_3703_35602)"/>
<path d="M1.67582 31.1675V31.1802C1.67242 31.1785 1.66903 31.1774 1.66564 31.1768C1.66224 31.1764 1.65885 31.1759 1.65546 31.1759C1.65249 31.1759 1.65037 31.1764 1.64867 31.1768C1.64698 31.1774 1.64613 31.1785 1.64613 31.1802C1.64613 31.1819 1.64655 31.1831 1.64782 31.1836C1.64888 31.1842 1.65122 31.1848 1.65461 31.1853L1.65715 31.1861C1.66606 31.1874 1.672 31.1893 1.67497 31.1921C1.67836 31.1944 1.68006 31.198 1.68006 31.2031C1.68006 31.2088 1.67772 31.2133 1.67327 31.2167C1.66924 31.2194 1.66309 31.2209 1.65461 31.2209C1.65058 31.2209 1.64655 31.2205 1.64273 31.22C1.63934 31.2194 1.63553 31.2188 1.63171 31.2175V31.2039C1.6351 31.2056 1.63849 31.2071 1.64189 31.2082C1.6457 31.2088 1.64952 31.209 1.65291 31.209C1.65631 31.209 1.65885 31.2088 1.66055 31.2082C1.66224 31.2071 1.66309 31.2056 1.66309 31.2039C1.66309 31.2022 1.66246 31.2012 1.6614 31.2005C1.66012 31.1995 1.658 31.1988 1.65461 31.1988L1.65122 31.198C1.64379 31.1969 1.63849 31.1952 1.6351 31.1929C1.63213 31.1901 1.63086 31.1861 1.63086 31.181C1.63086 31.1755 1.63277 31.1713 1.6368 31.1683C1.64061 31.1655 1.64655 31.1641 1.65461 31.1641C1.658 31.1641 1.6614 31.1645 1.66479 31.1649C1.66818 31.1655 1.67179 31.1664 1.67582 31.1675Z" fill="url(#paint17_linear_3703_35602)"/>
<path d="M1.69336 31.1657H1.71032V31.2192H1.69336V31.1657ZM1.69336 31.1445H1.71032V31.1581H1.69336V31.1445Z" fill="url(#paint18_linear_3703_35602)"/>
<path d="M1.76337 31.2099C1.76104 31.2133 1.75849 31.2158 1.75574 31.2175C1.75277 31.2188 1.74938 31.2192 1.74556 31.2192C1.73877 31.2192 1.73305 31.2167 1.72859 31.2116C1.72456 31.2065 1.72266 31.2001 1.72266 31.1921C1.72266 31.1836 1.72456 31.1768 1.72859 31.1717C1.73305 31.1666 1.73877 31.1641 1.74556 31.1641C1.74938 31.1641 1.75277 31.1649 1.75574 31.1666C1.75849 31.1679 1.76104 31.17 1.76337 31.1734V31.1658H1.78033V31.2141C1.78033 31.2226 1.77737 31.229 1.77185 31.2336C1.76676 31.2381 1.75913 31.2404 1.74895 31.2404C1.74556 31.2404 1.74216 31.24 1.73877 31.2396C1.7358 31.2389 1.73283 31.2381 1.72944 31.237V31.2243C1.7322 31.226 1.73495 31.227 1.73792 31.2277C1.74068 31.2287 1.74386 31.2294 1.74725 31.2294C1.75277 31.2294 1.7568 31.2279 1.75913 31.2251C1.76189 31.2228 1.76337 31.2192 1.76337 31.2141L1.76337 31.2099ZM1.75234 31.1768C1.74831 31.1768 1.74513 31.1783 1.74301 31.181C1.74132 31.1834 1.74047 31.187 1.74047 31.1921C1.74047 31.1967 1.74132 31.2003 1.74301 31.2031C1.74513 31.2054 1.74831 31.2065 1.75234 31.2065C1.75574 31.2065 1.75828 31.2054 1.75998 31.2031C1.7621 31.2003 1.76337 31.1967 1.76337 31.1921C1.76337 31.187 1.7621 31.1834 1.75998 31.181C1.75828 31.1783 1.75574 31.1768 1.75234 31.1768Z" fill="url(#paint19_linear_3703_35602)"/>
<path d="M1.85116 31.1861V31.2192H1.83335V31.1938C1.83335 31.1893 1.83292 31.1861 1.8325 31.1844C1.8325 31.1827 1.83208 31.1817 1.83165 31.181C1.83102 31.18 1.83017 31.1791 1.82911 31.1785C1.82784 31.1774 1.82677 31.1768 1.82571 31.1768C1.82169 31.1768 1.8185 31.1783 1.81638 31.181C1.81469 31.184 1.81384 31.1878 1.81384 31.1929V31.2192H1.79688V31.1658H1.81384V31.1734C1.8166 31.17 1.81935 31.1679 1.82232 31.1666C1.82508 31.1649 1.82826 31.1641 1.83165 31.1641C1.8378 31.1641 1.84268 31.1662 1.84607 31.17C1.84946 31.174 1.85116 31.1793 1.85116 31.1861Z" fill="url(#paint20_linear_3703_35602)"/>
<path d="M1.90824 31.1675V31.1802C1.90484 31.1785 1.90145 31.1774 1.89806 31.1768C1.89467 31.1764 1.89127 31.1759 1.88788 31.1759C1.88491 31.1759 1.88279 31.1764 1.88109 31.1768C1.8794 31.1774 1.87855 31.1785 1.87855 31.1802C1.87855 31.1819 1.87897 31.1831 1.88025 31.1836C1.88131 31.1842 1.88364 31.1848 1.88703 31.1853L1.88958 31.1861C1.89848 31.1874 1.90442 31.1893 1.90739 31.1921C1.91078 31.1944 1.91248 31.198 1.91248 31.2031C1.91248 31.2088 1.91015 31.2133 1.90569 31.2167C1.90166 31.2194 1.89551 31.2209 1.88703 31.2209C1.883 31.2209 1.87897 31.2205 1.87516 31.22C1.87176 31.2194 1.86795 31.2188 1.86413 31.2175V31.2039C1.86752 31.2056 1.87092 31.2071 1.87431 31.2082C1.87813 31.2088 1.88194 31.209 1.88534 31.209C1.88873 31.209 1.89127 31.2088 1.89297 31.2082C1.89467 31.2071 1.89551 31.2056 1.89551 31.2039C1.89551 31.2022 1.89488 31.2012 1.89382 31.2005C1.89254 31.1995 1.89042 31.1988 1.88703 31.1988L1.88364 31.198C1.87622 31.1969 1.87092 31.1952 1.86752 31.1929C1.86455 31.1901 1.86328 31.1861 1.86328 31.181C1.86328 31.1755 1.86519 31.1713 1.86922 31.1683C1.87304 31.1655 1.87897 31.1641 1.88703 31.1641C1.89042 31.1641 1.89382 31.1645 1.89721 31.1649C1.9006 31.1655 1.90421 31.1664 1.90824 31.1675Z" fill="url(#paint21_linear_3703_35602)"/>
<path d="M0.604063 31.2422V31.2532H0.594732C0.592399 31.2532 0.590703 31.2539 0.589643 31.2549C0.589006 31.2555 0.588794 31.257 0.588794 31.2592V31.2634H0.603214V31.2753H0.588794V31.3168H0.570982V31.2753H0.5625V31.2634H0.570982V31.2592C0.570982 31.2536 0.572679 31.2494 0.576071 31.2464C0.579464 31.2437 0.584554 31.2422 0.591339 31.2422L0.604063 31.2422Z" fill="url(#paint22_linear_3703_35602)"/>
<path d="M0.651194 31.2778C0.649498 31.2774 0.647801 31.2768 0.646105 31.2761C0.644833 31.2757 0.64356 31.2753 0.641864 31.2753C0.637199 31.2753 0.633806 31.2768 0.631685 31.2795C0.629353 31.2825 0.628292 31.2867 0.628292 31.2923V31.3169H0.611328V31.2634H0.628292V31.2719C0.630413 31.2685 0.632958 31.266 0.635926 31.2643C0.638683 31.2626 0.642076 31.2617 0.646105 31.2617H0.647801H0.651194L0.651194 31.2778Z" fill="url(#paint23_linear_3703_35602)"/>
<path d="M0.685937 31.2744C0.681908 31.2744 0.678728 31.2759 0.676607 31.2787C0.67491 31.281 0.674062 31.2846 0.674062 31.2897C0.674062 31.2948 0.67491 31.2988 0.676607 31.3016C0.678727 31.3046 0.681908 31.3058 0.685937 31.3058C0.689754 31.3058 0.692723 31.3046 0.694419 31.3016C0.69654 31.2988 0.697812 31.2948 0.697812 31.2897C0.697812 31.2846 0.69654 31.281 0.694419 31.2787C0.692723 31.2759 0.689754 31.2744 0.685937 31.2744ZM0.685937 31.2617C0.694843 31.2617 0.702054 31.2643 0.707142 31.2694C0.712656 31.2744 0.715624 31.2812 0.715624 31.2897C0.715624 31.2988 0.712656 31.3058 0.707142 31.3109C0.702053 31.316 0.694843 31.3185 0.685937 31.3185C0.676819 31.3185 0.669397 31.316 0.663884 31.3109C0.658794 31.3058 0.65625 31.2988 0.65625 31.2897C0.65625 31.2812 0.658795 31.2744 0.663884 31.2694C0.669397 31.2643 0.676819 31.2617 0.685937 31.2617Z" fill="url(#paint24_linear_3703_35602)"/>
<path d="M0.778559 31.2719C0.780256 31.2685 0.782376 31.266 0.785345 31.2643C0.788738 31.2626 0.792131 31.2617 0.795524 31.2617C0.801673 31.2617 0.80655 31.2638 0.809943 31.2677C0.813336 31.2717 0.815032 31.277 0.815032 31.2838V31.3169H0.79722V31.2889V31.288V31.2855C0.79722 31.2817 0.796584 31.2787 0.795524 31.277C0.794251 31.2753 0.792555 31.2744 0.790434 31.2744C0.787042 31.2744 0.784497 31.2759 0.782801 31.2787C0.781104 31.2817 0.780256 31.2855 0.780256 31.2906V31.3169H0.762444V31.2889C0.762444 31.2827 0.761808 31.2787 0.760747 31.277C0.760111 31.2753 0.758415 31.2744 0.755658 31.2744C0.752265 31.2744 0.74972 31.2759 0.748025 31.2787C0.746328 31.2817 0.74548 31.2855 0.74548 31.2906V31.3169H0.728516V31.2634H0.74548V31.2711C0.7476 31.2677 0.749933 31.2655 0.752266 31.2643C0.755022 31.2626 0.758203 31.2617 0.761596 31.2617C0.765413 31.2617 0.768806 31.2626 0.771775 31.2643C0.774532 31.266 0.776863 31.2685 0.778559 31.2719Z" fill="url(#paint25_linear_3703_35602)"/>
<path d="M0.882868 31.25V31.2653H0.90068V31.2771H0.882868V31.3C0.882868 31.3024 0.88308 31.3041 0.883716 31.3051C0.884776 31.3058 0.887109 31.306 0.890502 31.306H0.898984V31.3187H0.884564C0.877779 31.3187 0.872902 31.3174 0.870145 31.3145C0.867176 31.3117 0.865904 31.3068 0.865904 31.3V31.2771H0.857422V31.2653H0.865904V31.25L0.882868 31.25Z" fill="url(#paint26_linear_3703_35602)"/>
<path d="M0.964442 31.2837V31.3168H0.94663V31.2922C0.94663 31.2871 0.946206 31.2837 0.945782 31.2821C0.945782 31.2804 0.945357 31.2793 0.944933 31.2787C0.944297 31.2776 0.943449 31.2768 0.942389 31.2761C0.941116 31.2751 0.940056 31.2744 0.938996 31.2744C0.934967 31.2744 0.931786 31.2759 0.929665 31.2787C0.927969 31.2816 0.927121 31.2854 0.927121 31.2905V31.3168H0.910156V31.2422H0.927121V31.271C0.929877 31.2676 0.932634 31.2655 0.935603 31.2642C0.938359 31.2625 0.94154 31.2617 0.944933 31.2617C0.951083 31.2617 0.95596 31.2638 0.959353 31.2676C0.962746 31.2717 0.964442 31.277 0.964442 31.2837Z" fill="url(#paint27_linear_3703_35602)"/>
<path d="M1.03424 31.2897V31.2948H0.994376C0.994376 31.2988 0.995436 31.302 0.997769 31.3041C1.00053 31.3058 1.00413 31.3067 1.0088 31.3067C1.01261 31.3067 1.01643 31.3062 1.01982 31.305C1.02364 31.3039 1.02767 31.3024 1.0317 31.3007V31.3135C1.02767 31.3152 1.02343 31.3164 1.01897 31.3169C1.01494 31.3179 1.01092 31.3185 1.0071 31.3185C0.997344 31.3185 0.98971 31.316 0.984196 31.3109C0.979107 31.3058 0.976562 31.2988 0.976562 31.2897C0.976562 31.2812 0.979107 31.2744 0.984196 31.2694C0.989709 31.2643 0.997131 31.2617 1.00625 31.2617C1.01473 31.2617 1.02152 31.2643 1.02661 31.2694C1.0317 31.2744 1.03424 31.2812 1.03424 31.2897ZM1.01643 31.2838C1.01643 31.281 1.01516 31.2787 1.01304 31.277C1.01134 31.2749 1.00901 31.2736 1.00625 31.2736C1.00286 31.2736 0.99989 31.2744 0.997769 31.2761C0.996073 31.2778 0.9948 31.2804 0.994376 31.2838L1.01643 31.2838Z" fill="url(#paint28_linear_3703_35602)"/>
<path d="M1.08203 31.2461H1.10239L1.12868 31.2953V31.2461H1.14565V31.3182H1.12529L1.099 31.269V31.3182H1.08203V31.2461Z" fill="url(#paint29_linear_3703_35602)"/>
<path d="M1.18984 31.2744C1.18581 31.2744 1.18263 31.2759 1.18051 31.2787C1.17882 31.281 1.17797 31.2846 1.17797 31.2897C1.17797 31.2948 1.17882 31.2988 1.18051 31.3016C1.18263 31.3046 1.18581 31.3058 1.18984 31.3058C1.19366 31.3058 1.19663 31.3046 1.19833 31.3016C1.20045 31.2988 1.20172 31.2948 1.20172 31.2897C1.20172 31.2846 1.20045 31.281 1.19833 31.2787C1.19663 31.2759 1.19366 31.2744 1.18984 31.2744ZM1.18984 31.2617C1.19875 31.2617 1.20596 31.2643 1.21105 31.2694C1.21656 31.2744 1.21953 31.2812 1.21953 31.2897C1.21953 31.2988 1.21656 31.3058 1.21105 31.3109C1.20596 31.316 1.19875 31.3185 1.18984 31.3185C1.18073 31.3185 1.1733 31.316 1.16779 31.3109C1.1627 31.3058 1.16016 31.2988 1.16016 31.2897C1.16016 31.2812 1.1627 31.2744 1.16779 31.2694C1.1733 31.2643 1.18073 31.2617 1.18984 31.2617Z" fill="url(#paint30_linear_3703_35602)"/>
<path d="M1.23047 31.2979V31.2656H1.24743V31.2707V31.2817V31.2902V31.3004C1.24786 31.3021 1.24849 31.3034 1.24913 31.3038C1.24955 31.3051 1.2504 31.3059 1.25167 31.3063C1.25273 31.307 1.25422 31.3072 1.25592 31.3072C1.25931 31.3072 1.26206 31.3061 1.2644 31.3038C1.26652 31.301 1.26779 31.297 1.26779 31.2919V31.2656H1.28475V31.3191H1.26779V31.3114C1.26482 31.3144 1.26206 31.3165 1.25931 31.3182C1.25634 31.3199 1.25337 31.3208 1.24998 31.3208C1.24362 31.3208 1.23895 31.3189 1.23556 31.3148C1.23217 31.311 1.23047 31.3053 1.23047 31.2979Z" fill="url(#paint31_linear_3703_35602)"/>
<path d="M1.35507 31.2838V31.3169H1.33725V31.2914C1.33725 31.287 1.33683 31.2838 1.33641 31.2821C1.33641 31.2804 1.33598 31.2793 1.33556 31.2787C1.33492 31.2776 1.33407 31.2768 1.33301 31.2761C1.33174 31.2751 1.33068 31.2744 1.32962 31.2744C1.32559 31.2744 1.32241 31.2759 1.32029 31.2787C1.31859 31.2817 1.31775 31.2855 1.31775 31.2906V31.3169H1.30078V31.2634H1.31775V31.271C1.3205 31.2677 1.32326 31.2655 1.32623 31.2643C1.32898 31.2626 1.33217 31.2617 1.33556 31.2617C1.34171 31.2617 1.34658 31.2638 1.34998 31.2677C1.35337 31.2717 1.35507 31.277 1.35507 31.2838Z" fill="url(#paint32_linear_3703_35602)"/>
<path d="M1.40625 31.2461H1.43679C1.44569 31.2461 1.45248 31.2484 1.45714 31.2529C1.46223 31.2569 1.46478 31.2626 1.46478 31.2698C1.46478 31.2773 1.46223 31.2832 1.45714 31.2877C1.45248 31.2917 1.44569 31.2936 1.43679 31.2936H1.42406V31.3182H1.40625V31.2461ZM1.42406 31.2597V31.28H1.43509C1.43848 31.28 1.44103 31.2792 1.44272 31.2775C1.44484 31.2758 1.44612 31.2732 1.44612 31.2698C1.44612 31.2665 1.44484 31.2639 1.44272 31.2622C1.44103 31.2605 1.43848 31.2597 1.43509 31.2597L1.42406 31.2597Z" fill="url(#paint33_linear_3703_35602)"/>
<path d="M1.51643 31.2778C1.51473 31.2774 1.51304 31.2768 1.51134 31.2761C1.51007 31.2757 1.50879 31.2753 1.5071 31.2753C1.50243 31.2753 1.49904 31.2768 1.49692 31.2795C1.49459 31.2825 1.49353 31.2867 1.49353 31.2923V31.3169H1.47656V31.2634H1.49353V31.2719C1.49565 31.2685 1.49819 31.266 1.50116 31.2643C1.50392 31.2626 1.50731 31.2617 1.51134 31.2617H1.51304H1.51643L1.51643 31.2778Z" fill="url(#paint34_linear_3703_35602)"/>
<path d="M1.55117 31.2744C1.54714 31.2744 1.54396 31.2759 1.54184 31.2787C1.54014 31.281 1.5393 31.2846 1.5393 31.2897C1.5393 31.2948 1.54014 31.2988 1.54184 31.3016C1.54396 31.3046 1.54714 31.3058 1.55117 31.3058C1.55499 31.3058 1.55796 31.3046 1.55965 31.3016C1.56177 31.2988 1.56305 31.2948 1.56305 31.2897C1.56305 31.2846 1.56177 31.281 1.55965 31.2787C1.55796 31.2759 1.55499 31.2744 1.55117 31.2744ZM1.55117 31.2617C1.56008 31.2617 1.56729 31.2643 1.57238 31.2694C1.57789 31.2744 1.58086 31.2812 1.58086 31.2897C1.58086 31.2988 1.57789 31.3058 1.57238 31.3109C1.56729 31.316 1.56008 31.3185 1.55117 31.3185C1.54205 31.3185 1.53463 31.316 1.52912 31.3109C1.52403 31.3058 1.52148 31.2988 1.52148 31.2897C1.52148 31.2812 1.52403 31.2744 1.52912 31.2694C1.53463 31.2643 1.54205 31.2617 1.55117 31.2617Z" fill="url(#paint35_linear_3703_35602)"/>
<path d="M1.59195 31.2634H1.60892V31.316C1.60892 31.3232 1.60722 31.3287 1.60383 31.3321C1.60044 31.3359 1.59535 31.338 1.58856 31.338H1.58008V31.327H1.58347C1.58623 31.327 1.58814 31.3262 1.58941 31.3245C1.59111 31.3232 1.59195 31.3204 1.59195 31.316L1.59195 31.2634ZM1.59195 31.2422H1.60892V31.2558H1.59195V31.2422Z" fill="url(#paint36_linear_3703_35602)"/>
<path d="M1.67877 31.2897V31.2948H1.63891C1.63891 31.2988 1.63997 31.302 1.6423 31.3041C1.64506 31.3058 1.64866 31.3067 1.65333 31.3067C1.65714 31.3067 1.66096 31.3062 1.66435 31.305C1.66817 31.3039 1.6722 31.3024 1.67623 31.3007V31.3135C1.6722 31.3152 1.66796 31.3164 1.6635 31.3169C1.65948 31.3179 1.65545 31.3185 1.65163 31.3185C1.64187 31.3185 1.63424 31.316 1.62873 31.3109C1.62364 31.3058 1.62109 31.2988 1.62109 31.2897C1.62109 31.2812 1.62364 31.2744 1.62873 31.2694C1.63424 31.2643 1.64166 31.2617 1.65078 31.2617C1.65926 31.2617 1.66605 31.2643 1.67114 31.2694C1.67623 31.2744 1.67877 31.2812 1.67877 31.2897ZM1.66096 31.2838C1.66096 31.281 1.65969 31.2787 1.65757 31.277C1.65587 31.2749 1.65354 31.2736 1.65078 31.2736C1.64739 31.2736 1.64442 31.2744 1.6423 31.2761C1.6406 31.2778 1.63933 31.2804 1.63891 31.2838L1.66096 31.2838Z" fill="url(#paint37_linear_3703_35602)"/>
<path d="M1.735 31.2651V31.2787C1.73267 31.277 1.73033 31.2759 1.72821 31.2753C1.72588 31.2749 1.72334 31.2744 1.72058 31.2744C1.71591 31.2744 1.71231 31.2759 1.70955 31.2787C1.70658 31.281 1.70531 31.2846 1.70531 31.2897C1.70531 31.2948 1.70658 31.2988 1.70955 31.3016C1.71231 31.3046 1.71592 31.3058 1.72058 31.3058C1.72334 31.3058 1.72588 31.3056 1.72821 31.305C1.73033 31.3039 1.73267 31.3029 1.735 31.3016V31.3152C1.73203 31.3164 1.72927 31.3171 1.72652 31.3177C1.72355 31.3181 1.721 31.3185 1.71888 31.3185C1.70871 31.3185 1.70065 31.316 1.69513 31.3109C1.69004 31.3058 1.6875 31.2988 1.6875 31.2897C1.6875 31.2812 1.69004 31.2744 1.69513 31.2694C1.70065 31.2643 1.70871 31.2617 1.71888 31.2617C1.72164 31.2617 1.72418 31.2621 1.72652 31.2626C1.72927 31.2632 1.73203 31.2641 1.735 31.2651Z" fill="url(#paint38_linear_3703_35602)"/>
<path d="M1.76959 31.25V31.2653H1.7874V31.2771H1.76959V31.3C1.76959 31.3024 1.7698 31.3041 1.77043 31.3051C1.77149 31.3058 1.77383 31.306 1.77722 31.306H1.7857V31.3187H1.77128C1.7645 31.3187 1.75962 31.3174 1.75686 31.3145C1.7539 31.3117 1.75262 31.3068 1.75262 31.3V31.2771H1.74414V31.2653H1.75262V31.25L1.76959 31.25Z" fill="url(#paint39_linear_3703_35602)"/>
<defs>
<linearGradient id="paint0_linear_3703_35602" x1="23.4178" y1="0.664062" x2="23.2663" y2="37.2436" gradientUnits="userSpaceOnUse">
<stop stop-color="#005CAA"/>
<stop offset="1" stop-color="#64B0F1"/>
</linearGradient>
<linearGradient id="paint1_linear_3703_35602" x1="16.0246" y1="11.3281" x2="15.6483" y2="21.9987" gradientUnits="userSpaceOnUse">
<stop stop-color="#005CAA"/>
<stop offset="1" stop-color="#64B0F1"/>
</linearGradient>
<linearGradient id="paint2_linear_3703_35602" x1="18.2162" y1="15.2539" x2="18.2157" y2="16.3972" gradientUnits="userSpaceOnUse">
<stop stop-color="#005CAA"/>
<stop offset="1" stop-color="#64B0F1"/>
</linearGradient>
<linearGradient id="paint3_linear_3703_35602" x1="0.613987" y1="31.1484" x2="0.613569" y2="31.2391" gradientUnits="userSpaceOnUse">
<stop stop-color="#005CAA"/>
<stop offset="1" stop-color="#64B0F1"/>
</linearGradient>
<linearGradient id="paint4_linear_3703_35602" x1="0.671685" y1="31.1641" x2="0.671336" y2="31.231" gradientUnits="userSpaceOnUse">
<stop stop-color="#005CAA"/>
<stop offset="1" stop-color="#64B0F1"/>
</linearGradient>
<linearGradient id="paint5_linear_3703_35602" x1="0.730486" y1="31.1641" x2="0.730229" y2="31.2331" gradientUnits="userSpaceOnUse">
<stop stop-color="#005CAA"/>
<stop offset="1" stop-color="#64B0F1"/>
</linearGradient>
<linearGradient id="paint6_linear_3703_35602" x1="0.794248" y1="31.1641" x2="0.793975" y2="31.2331" gradientUnits="userSpaceOnUse">
<stop stop-color="#005CAA"/>
<stop offset="1" stop-color="#64B0F1"/>
</linearGradient>
<linearGradient id="paint7_linear_3703_35602" x1="0.850109" y1="31.1523" x2="0.849609" y2="31.2358" gradientUnits="userSpaceOnUse">
<stop stop-color="#005CAA"/>
<stop offset="1" stop-color="#64B0F1"/>
</linearGradient>
<linearGradient id="paint8_linear_3703_35602" x1="0.910173" y1="31.1641" x2="0.909917" y2="31.2331" gradientUnits="userSpaceOnUse">
<stop stop-color="#005CAA"/>
<stop offset="1" stop-color="#64B0F1"/>
</linearGradient>
<linearGradient id="paint9_linear_3703_35602" x1="0.976579" y1="31.1445" x2="0.976116" y2="31.2372" gradientUnits="userSpaceOnUse">
<stop stop-color="#005CAA"/>
<stop offset="1" stop-color="#64B0F1"/>
</linearGradient>
<linearGradient id="paint10_linear_3703_35602" x1="1.08595" y1="31.1445" x2="1.08549" y2="31.2372" gradientUnits="userSpaceOnUse">
<stop stop-color="#005CAA"/>
<stop offset="1" stop-color="#64B0F1"/>
</linearGradient>
<linearGradient id="paint11_linear_3703_35602" x1="1.15176" y1="31.168" x2="1.15134" y2="31.2586" gradientUnits="userSpaceOnUse">
<stop stop-color="#005CAA"/>
<stop offset="1" stop-color="#64B0F1"/>
</linearGradient>
<linearGradient id="paint12_linear_3703_35602" x1="1.25131" y1="31.1484" x2="1.25086" y2="31.2391" gradientUnits="userSpaceOnUse">
<stop stop-color="#005CAA"/>
<stop offset="1" stop-color="#64B0F1"/>
</linearGradient>
<linearGradient id="paint13_linear_3703_35602" x1="1.32964" y1="31.1484" x2="1.32932" y2="31.236" gradientUnits="userSpaceOnUse">
<stop stop-color="#005CAA"/>
<stop offset="1" stop-color="#64B0F1"/>
</linearGradient>
<linearGradient id="paint14_linear_3703_35602" x1="1.41759" y1="31.1484" x2="1.41729" y2="31.236" gradientUnits="userSpaceOnUse">
<stop stop-color="#005CAA"/>
<stop offset="1" stop-color="#64B0F1"/>
</linearGradient>
<linearGradient id="paint15_linear_3703_35602" x1="1.54049" y1="31.1484" x2="1.54013" y2="31.236" gradientUnits="userSpaceOnUse">
<stop stop-color="#005CAA"/>
<stop offset="1" stop-color="#64B0F1"/>
</linearGradient>
<linearGradient id="paint16_linear_3703_35602" x1="1.60939" y1="31.1641" x2="1.60914" y2="31.2331" gradientUnits="userSpaceOnUse">
<stop stop-color="#005CAA"/>
<stop offset="1" stop-color="#64B0F1"/>
</linearGradient>
<linearGradient id="paint17_linear_3703_35602" x1="1.66919" y1="31.1641" x2="1.66889" y2="31.2331" gradientUnits="userSpaceOnUse">
<stop stop-color="#005CAA"/>
<stop offset="1" stop-color="#64B0F1"/>
</linearGradient>
<linearGradient id="paint18_linear_3703_35602" x1="1.70658" y1="31.1445" x2="1.70507" y2="31.2351" gradientUnits="userSpaceOnUse">
<stop stop-color="#005CAA"/>
<stop offset="1" stop-color="#64B0F1"/>
</linearGradient>
<linearGradient id="paint19_linear_3703_35602" x1="1.76759" y1="31.1641" x2="1.76713" y2="31.2568" gradientUnits="userSpaceOnUse">
<stop stop-color="#005CAA"/>
<stop offset="1" stop-color="#64B0F1"/>
</linearGradient>
<linearGradient id="paint20_linear_3703_35602" x1="1.83917" y1="31.1641" x2="1.83891" y2="31.231" gradientUnits="userSpaceOnUse">
<stop stop-color="#005CAA"/>
<stop offset="1" stop-color="#64B0F1"/>
</linearGradient>
<linearGradient id="paint21_linear_3703_35602" x1="1.90161" y1="31.1641" x2="1.90131" y2="31.2331" gradientUnits="userSpaceOnUse">
<stop stop-color="#005CAA"/>
<stop offset="1" stop-color="#64B0F1"/>
</linearGradient>
<linearGradient id="paint22_linear_3703_35602" x1="0.594882" y1="31.2422" x2="0.594267" y2="31.3328" gradientUnits="userSpaceOnUse">
<stop stop-color="#005CAA"/>
<stop offset="1" stop-color="#64B0F1"/>
</linearGradient>
<linearGradient id="paint23_linear_3703_35602" x1="0.642388" y1="31.2617" x2="0.642039" y2="31.3287" gradientUnits="userSpaceOnUse">
<stop stop-color="#005CAA"/>
<stop offset="1" stop-color="#64B0F1"/>
</linearGradient>
<linearGradient id="paint24_linear_3703_35602" x1="0.702509" y1="31.2617" x2="0.70226" y2="31.3307" gradientUnits="userSpaceOnUse">
<stop stop-color="#005CAA"/>
<stop offset="1" stop-color="#64B0F1"/>
</linearGradient>
<linearGradient id="paint25_linear_3703_35602" x1="0.795922" y1="31.2617" x2="0.795761" y2="31.3287" gradientUnits="userSpaceOnUse">
<stop stop-color="#005CAA"/>
<stop offset="1" stop-color="#64B0F1"/>
</linearGradient>
<linearGradient id="paint26_linear_3703_35602" x1="0.891125" y1="31.25" x2="0.890625" y2="31.3334" gradientUnits="userSpaceOnUse">
<stop stop-color="#005CAA"/>
<stop offset="1" stop-color="#64B0F1"/>
</linearGradient>
<linearGradient id="paint27_linear_3703_35602" x1="0.952451" y1="31.2422" x2="0.95198" y2="31.3328" gradientUnits="userSpaceOnUse">
<stop stop-color="#005CAA"/>
<stop offset="1" stop-color="#64B0F1"/>
</linearGradient>
<linearGradient id="paint28_linear_3703_35602" x1="1.0215" y1="31.2617" x2="1.02124" y2="31.3307" gradientUnits="userSpaceOnUse">
<stop stop-color="#005CAA"/>
<stop offset="1" stop-color="#64B0F1"/>
</linearGradient>
<linearGradient id="paint29_linear_3703_35602" x1="1.1316" y1="31.2461" x2="1.13122" y2="31.3336" gradientUnits="userSpaceOnUse">
<stop stop-color="#005CAA"/>
<stop offset="1" stop-color="#64B0F1"/>
</linearGradient>
<linearGradient id="paint30_linear_3703_35602" x1="1.20642" y1="31.2617" x2="1.20617" y2="31.3307" gradientUnits="userSpaceOnUse">
<stop stop-color="#005CAA"/>
<stop offset="1" stop-color="#64B0F1"/>
</linearGradient>
<linearGradient id="paint31_linear_3703_35602" x1="1.27276" y1="31.2656" x2="1.27251" y2="31.3326" gradientUnits="userSpaceOnUse">
<stop stop-color="#005CAA"/>
<stop offset="1" stop-color="#64B0F1"/>
</linearGradient>
<linearGradient id="paint32_linear_3703_35602" x1="1.34308" y1="31.2617" x2="1.34282" y2="31.3287" gradientUnits="userSpaceOnUse">
<stop stop-color="#005CAA"/>
<stop offset="1" stop-color="#64B0F1"/>
</linearGradient>
<linearGradient id="paint33_linear_3703_35602" x1="1.45185" y1="31.2461" x2="1.45144" y2="31.3336" gradientUnits="userSpaceOnUse">
<stop stop-color="#005CAA"/>
<stop offset="1" stop-color="#64B0F1"/>
</linearGradient>
<linearGradient id="paint34_linear_3703_35602" x1="1.50762" y1="31.2617" x2="1.50727" y2="31.3287" gradientUnits="userSpaceOnUse">
<stop stop-color="#005CAA"/>
<stop offset="1" stop-color="#64B0F1"/>
</linearGradient>
<linearGradient id="paint35_linear_3703_35602" x1="1.56774" y1="31.2617" x2="1.56749" y2="31.3307" gradientUnits="userSpaceOnUse">
<stop stop-color="#005CAA"/>
<stop offset="1" stop-color="#64B0F1"/>
</linearGradient>
<linearGradient id="paint36_linear_3703_35602" x1="1.60255" y1="31.2422" x2="1.60109" y2="31.3586" gradientUnits="userSpaceOnUse">
<stop stop-color="#005CAA"/>
<stop offset="1" stop-color="#64B0F1"/>
</linearGradient>
<linearGradient id="paint37_linear_3703_35602" x1="1.66603" y1="31.2617" x2="1.66578" y2="31.3307" gradientUnits="userSpaceOnUse">
<stop stop-color="#005CAA"/>
<stop offset="1" stop-color="#64B0F1"/>
</linearGradient>
<linearGradient id="paint38_linear_3703_35602" x1="1.72451" y1="31.2617" x2="1.7242" y2="31.3307" gradientUnits="userSpaceOnUse">
<stop stop-color="#005CAA"/>
<stop offset="1" stop-color="#64B0F1"/>
</linearGradient>
<linearGradient id="paint39_linear_3703_35602" x1="1.77784" y1="31.25" x2="1.77734" y2="31.3334" gradientUnits="userSpaceOnUse">
<stop stop-color="#005CAA"/>
<stop offset="1" stop-color="#64B0F1"/>
</linearGradient>
</defs>
</svg>