<svg width="38" height="38" viewBox="0 0 36 36" fill="none" xmlns="http://www.w3.org/2000/svg">
<path d="M25.0924 0C24.7191 0 24.4258 0.293306 24.4258 0.666626C24.4258 1.03995 24.7191 1.33325 25.0924 1.33325C29.8657 1.33325 33.759 5.22657 33.759 9.99982C33.759 10.3732 34.0523 10.6664 34.4256 10.6664C34.7989 10.6664 35.0922 10.3731 35.0922 9.99982C35.0926 4.49337 30.5993 0.000394331 25.0928 0.000394331L25.0924 0Z" fill="url(#paint0_linear_3620_16758)"/>
<path d="M25.0924 0C24.7191 0 24.4258 0.293306 24.4258 0.666626C24.4258 1.03995 24.7191 1.33325 25.0924 1.33325C29.8657 1.33325 33.759 5.22657 33.759 9.99982C33.759 10.3732 34.0523 10.6664 34.4256 10.6664C34.7989 10.6664 35.0922 10.3731 35.0922 9.99982C35.0926 4.49337 30.5993 0.000394331 25.0928 0.000394331L25.0924 0Z" fill="black" fill-opacity="0.2"/>
<path d="M25.0924 4.00003C24.7191 4.00003 24.4258 4.29334 24.4258 4.66666C24.4258 5.03998 24.7191 5.33329 25.0924 5.33329C27.6658 5.33329 29.7591 7.4266 29.7591 10C29.7591 10.3733 30.0524 10.6666 30.4257 10.6666C30.7991 10.6666 31.0924 10.3733 31.0924 10C31.0924 6.69331 28.3991 4.00003 25.0924 4.00003Z" fill="url(#paint1_linear_3620_16758)"/>
<path d="M25.0924 4.00003C24.7191 4.00003 24.4258 4.29334 24.4258 4.66666C24.4258 5.03998 24.7191 5.33329 25.0924 5.33329C27.6658 5.33329 29.7591 7.4266 29.7591 10C29.7591 10.3733 30.0524 10.6666 30.4257 10.6666C30.7991 10.6666 31.0924 10.3733 31.0924 10C31.0924 6.69331 28.3991 4.00003 25.0924 4.00003Z" fill="black" fill-opacity="0.2"/>
<path d="M25.0924 8.00001C24.7191 8.00001 24.4258 8.29331 24.4258 8.66663C24.4258 9.03996 24.7191 9.33326 25.0924 9.33326C25.4657 9.33326 25.759 9.62657 25.759 9.99989C25.759 10.3732 26.0523 10.6665 26.4257 10.6665C26.799 10.6665 27.0923 10.3732 27.0923 9.99989C27.0926 8.90669 26.186 8.00001 25.0924 8.00001Z" fill="url(#paint2_linear_3620_16758)"/>
<path d="M25.0924 8.00001C24.7191 8.00001 24.4258 8.29331 24.4258 8.66663C24.4258 9.03996 24.7191 9.33326 25.0924 9.33326C25.4657 9.33326 25.759 9.62657 25.759 9.99989C25.759 10.3732 26.0523 10.6665 26.4257 10.6665C26.799 10.6665 27.0923 10.3732 27.0923 9.99989C27.0926 8.90669 26.186 8.00001 25.0924 8.00001Z" fill="black" fill-opacity="0.2"/>
<path d="M23.0931 11.1611L0.453352 18.7079C0.186832 18.8014 0 19.0545 0 19.3347C0 19.6146 0.186832 19.8815 0.453352 19.9615L11.4531 23.6281L15.1197 34.6278C15.2131 34.8944 15.4662 35.0812 15.7465 35.0812C16.0264 35.0812 16.2932 34.8944 16.3732 34.6278L23.9198 12.001C23.9998 11.7609 23.9332 11.4944 23.7597 11.321C23.5863 11.1472 23.3332 11.0939 23.0931 11.1606L23.0931 11.1611ZM15.7598 32.3213L12.6265 22.9082C12.5599 22.7083 12.3998 22.5483 12.1999 22.4816L2.78679 19.3484L22.2534 12.8552L15.7598 32.3213Z" fill="url(#paint3_linear_3620_16758)"/>
<path d="M23.0931 11.1611L0.453352 18.7079C0.186832 18.8014 0 19.0545 0 19.3347C0 19.6146 0.186832 19.8815 0.453352 19.9615L11.4531 23.6281L15.1197 34.6278C15.2131 34.8944 15.4662 35.0812 15.7465 35.0812C16.0264 35.0812 16.2932 34.8944 16.3732 34.6278L23.9198 12.001C23.9998 11.7609 23.9332 11.4944 23.7597 11.321C23.5863 11.1472 23.3332 11.0939 23.0931 11.1606L23.0931 11.1611ZM15.7598 32.3213L12.6265 22.9082C12.5599 22.7083 12.3998 22.5483 12.1999 22.4816L2.78679 19.3484L22.2534 12.8552L15.7598 32.3213Z" fill="black" fill-opacity="0.2"/>
<defs>
<linearGradient id="paint0_linear_3620_16758" x1="29.759" y1="0" x2="29.759" y2="10.6664" gradientUnits="userSpaceOnUse">
<stop stop-color="#FF0F0F"/>
<stop offset="1" stop-color="#FF4849"/>
</linearGradient>
<linearGradient id="paint1_linear_3620_16758" x1="27.7591" y1="4" x2="27.7591" y2="10.6666" gradientUnits="userSpaceOnUse">
<stop stop-color="#FF0F0F"/>
<stop offset="1" stop-color="#FF4849"/>
</linearGradient>
<linearGradient id="paint2_linear_3620_16758" x1="25.759" y1="8" x2="25.759" y2="10.6665" gradientUnits="userSpaceOnUse">
<stop stop-color="#FF0F0F"/>
<stop offset="1" stop-color="#FF4849"/>
</linearGradient>
<linearGradient id="paint3_linear_3620_16758" x1="11.9767" y1="11.1328" x2="11.9767" y2="35.0812" gradientUnits="userSpaceOnUse">
<stop stop-color="#FF0F0F"/>
<stop offset="1" stop-color="#FF4849"/>
</linearGradient>
</defs>
</svg>