   <svg width="38" height="38" viewBox="0 0 28 32" fill="none" xmlns="http://www.w3.org/2000/svg">
<path d="M27.1506 6.39167C22.2526 6.05401 17.671 3.84971 14.3506 0.233333C14.292 0.161424 14.2183 0.103256 14.1348 0.0629365C14.0513 0.0226176 13.96 0.00113278 13.8672 0C13.7745 0.00113278 13.6831 0.0226176 13.5996 0.0629365C13.5161 0.103256 13.4425 0.161424 13.3839 0.233333C10.0671 3.8546 5.48337 6.0599 0.58389 6.39167C0.421042 6.4024 0.268853 6.47641 0.159849 6.59787C0.0508454 6.71933 -0.00632509 6.87861 0.000556398 7.04167C0.267833 12.0635 1.29043 17.0163 3.03389 21.7333C5.77556 28.4833 13.1672 31.2917 13.4839 31.4083C13.5556 31.4209 13.6289 31.4209 13.7006 31.4083H14.0506C14.1222 31.4209 14.1956 31.4209 14.2672 31.4083C14.5839 31.2917 21.9756 28.4833 24.7172 21.7333C26.4578 17.0159 27.4776 12.063 27.7422 7.04167C27.749 6.87725 27.6907 6.71678 27.58 6.59509C27.4692 6.4734 27.3149 6.4003 27.1506 6.39167ZM23.5506 21.2667C21.1839 27.1 14.8006 29.8417 13.9256 30.2H13.8089C12.9339 29.8417 6.55056 27.0917 4.18389 21.2667C2.56874 16.8703 1.59214 12.2652 1.28389 7.59167C6.05795 7.12513 10.5141 4.98852 13.8672 1.55833C17.2215 4.98546 21.6776 7.11905 26.4506 7.58333C26.1431 12.2596 25.1665 16.8677 23.5506 21.2667Z" fill="url(#paint0_linear_6_8)"/>
<path d="M9 11.8529C9.00238 13.0024 9.4123 14.1139 10.1569 14.9897C10.9015 15.8655 11.9325 16.4489 13.0667 16.6362C13.1074 16.7116 13.1609 16.7793 13.225 16.8362V24.1695C13.225 24.3353 13.2908 24.4943 13.4081 24.6115C13.5253 24.7287 13.6842 24.7945 13.85 24.7945C14.0158 24.7945 14.1747 24.7287 14.2919 24.6115C14.4092 24.4943 14.475 24.3353 14.475 24.1695V22.2945H16.1417C16.3074 22.2945 16.4664 22.2287 16.5836 22.1115C16.7008 21.9943 16.7667 21.8353 16.7667 21.6695C16.7667 21.5038 16.7008 21.3448 16.5836 21.2276C16.4664 21.1104 16.3074 21.0445 16.1417 21.0445H14.475V19.2029H16.1417C16.3074 19.2029 16.4664 19.137 16.5836 19.0198C16.7008 18.9026 16.7667 18.7436 16.7667 18.5779C16.7667 18.4121 16.7008 18.2531 16.5836 18.1359C16.4664 18.0187 16.3074 17.9529 16.1417 17.9529H14.475V16.8779C14.5638 16.8128 14.6353 16.727 14.6833 16.6279C15.5933 16.4692 16.4391 16.0539 17.1211 15.4309C17.8031 14.8079 18.293 14.0031 18.5332 13.1111C18.7734 12.2191 18.7538 11.2771 18.4769 10.3959C18.1999 9.51468 17.6771 8.73086 16.9699 8.13666C16.2626 7.54245 15.4004 7.16257 14.4846 7.0417C13.5688 6.92083 12.6376 7.064 11.8004 7.45437C10.9632 7.84474 10.2549 8.46607 9.75881 9.24527C9.26271 10.0245 8.99945 10.9291 9 11.8529ZM17.45 11.8529C17.4451 12.5638 17.2297 13.2574 16.8312 13.8461C16.4326 14.4348 15.8687 14.8923 15.2104 15.161C14.5522 15.4296 13.8292 15.4973 13.1325 15.3556C12.4358 15.2139 11.7967 14.8691 11.2957 14.3646C10.7947 13.8602 10.4543 13.2187 10.3175 12.5211C10.1806 11.8234 10.2533 11.1009 10.5265 10.4445C10.7997 9.78814 11.2611 9.22737 11.8526 8.83289C12.444 8.43841 13.1391 8.22789 13.85 8.22787C14.3246 8.22897 14.7942 8.32366 15.2321 8.50652C15.6701 8.68939 16.0676 8.95684 16.402 9.29357C16.7364 9.63029 17.0011 10.0297 17.1809 10.4688C17.3608 10.908 17.4522 11.3783 17.45 11.8529Z" fill="url(#paint1_linear_6_8)"/>
<defs>
<linearGradient id="paint0_linear_6_8" x1="21.6146" y1="-5.65043e-09" x2="21.4516" y2="38.1503" gradientUnits="userSpaceOnUse">
<stop stop-color="#005CAA"/>
<stop offset="1" stop-color="#64B0F1"/>
</linearGradient>
<linearGradient id="paint1_linear_6_8" x1="16.5574" y1="7" x2="16.4078" y2="28.6071" gradientUnits="userSpaceOnUse">
<stop stop-color="#005CAA"/>
<stop offset="1" stop-color="#64B0F1"/>
</linearGradient>
</defs>
</svg>