<svg width="38" height="38" viewBox="0 0 30 22" fill="none" xmlns="http://www.w3.org/2000/svg">
<path d="M28.4844 0H1.48436C1.21919 0.0002232 0.96517 0.105806 0.777678 0.293303C0.590187 0.4808 0.484598 0.734823 0.484375 0.999989V21C0.484598 21.2652 0.590181 21.5192 0.777678 21.7067C0.965175 21.8942 1.2192 21.9998 1.48436 22H28.4844C28.7495 21.9998 29.0036 21.8942 29.1911 21.7067C29.3785 21.5192 29.4841 21.2652 29.4844 21V0.999989C29.4841 0.734812 29.3785 0.480794 29.1911 0.293303C29.0036 0.105811 28.7495 0.000222857 28.4844 0ZM7.48436 2.5C7.48436 2.70223 7.36249 2.8846 7.17566 2.96183C6.98883 3.03929 6.77388 2.99665 6.63079 2.85357C6.48771 2.71049 6.44508 2.49554 6.52254 2.3087C6.59977 2.12187 6.78214 2 6.98436 2C7.11695 2 7.24419 2.05268 7.33794 2.14643C7.43168 2.24018 7.48436 2.36741 7.48436 2.5ZM5.48436 2.5C5.48436 2.70223 5.36249 2.8846 5.17566 2.96183C4.98883 3.03929 4.77388 2.99665 4.63079 2.85357C4.48771 2.71049 4.44508 2.49554 4.52254 2.3087C4.59977 2.12187 4.78214 2 4.98436 2C5.11695 2 5.24419 2.05268 5.33794 2.14643C5.43168 2.24018 5.48436 2.36741 5.48436 2.5ZM2.98436 2C3.1866 2 3.36896 2.12187 3.44619 2.3087C3.52365 2.49553 3.48101 2.71049 3.33794 2.85357C3.19486 2.99666 2.9799 3.03929 2.79307 2.96183C2.60624 2.88459 2.48436 2.70223 2.48436 2.5C2.48436 2.22389 2.70825 2 2.98436 2ZM1.48436 5H9.48436V21H1.48436V5ZM10.4844 21V5H28.4844L28.485 21H10.4844ZM3.98436 8.5C3.98436 8.10223 4.1424 7.72052 4.42365 7.43931C4.7049 7.15811 5.08662 7.00003 5.48434 7.00003C5.88205 7.00003 6.26382 7.15806 6.54502 7.43931C6.82622 7.72057 6.98431 8.10229 6.98431 8.5C6.98431 8.89771 6.82627 9.27949 6.54502 9.56069C6.26377 9.84189 5.88205 9.99997 5.48434 9.99997C5.08657 9.99953 4.70531 9.84127 4.42405 9.56024C4.14302 9.27899 3.98476 8.89773 3.98432 8.49996L3.98436 8.5ZM2.98436 13C2.98436 12.1069 3.46092 11.2815 4.23436 10.835C5.00779 10.3884 5.96094 10.3884 6.73436 10.835C7.50779 11.2815 7.98436 12.1069 7.98436 13C7.98436 13.1326 7.93169 13.2598 7.83794 13.3536C7.74419 13.4473 7.61695 13.5 7.48436 13.5H3.48436C3.20825 13.5 2.98436 13.2761 2.98436 13ZM25.4844 8H13.4844C13.2083 8 12.9844 8.22389 12.9844 8.5V17.2931L17.6308 12.6467C17.8261 12.4514 18.1426 12.4514 18.3379 12.6467L19.4843 13.7931L20.6307 12.6467C20.826 12.4514 21.1425 12.4514 21.3379 12.6467L25.9843 17.2931V8.5C25.9843 8.36741 25.9316 8.24018 25.8378 8.14643C25.7441 8.05268 25.6168 8 25.4843 8H25.4844ZM22.7344 12C22.4029 12 22.0848 11.8683 21.8504 11.6339C21.616 11.3996 21.4844 11.0815 21.4844 10.75C21.4844 10.4185 21.6161 10.1004 21.8504 9.86605C22.0848 9.63165 22.4029 9.49998 22.7344 9.49998C23.0659 9.49998 23.3839 9.63167 23.6183 9.86605C23.8527 10.1004 23.9844 10.4185 23.9844 10.75C23.9839 11.0815 23.8522 11.3991 23.6179 11.6335C23.3835 11.8679 23.0658 11.9995 22.7344 12ZM22.9844 10.75C22.9844 10.8511 22.9234 10.9422 22.8301 10.981C22.7366 11.0196 22.629 10.9982 22.5576 10.9268C22.4862 10.8554 22.4647 10.7478 22.5033 10.6542C22.5422 10.5609 22.6332 10.5 22.7344 10.5C22.8723 10.5002 22.9841 10.6121 22.9844 10.75ZM20.9844 13.7071L25.2772 18H23.6915L20.1915 14.5L20.9844 13.7071ZM17.9844 13.7071L22.2772 18H13.6915L17.9844 13.7071ZM2.98436 15C2.98436 14.7239 3.20825 14.5 3.48436 14.5H5.48436C5.76048 14.5 5.98436 14.7239 5.98436 15C5.98436 15.2761 5.76048 15.5 5.48436 15.5H3.48436C3.20825 15.5 2.98436 15.2761 2.98436 15ZM2.98436 16.5C2.98436 16.2239 3.20825 16 3.48436 16H7.98436C8.26048 16 8.48436 16.2239 8.48436 16.5C8.48436 16.7761 8.26048 17 7.98436 17H3.48436C3.20825 17 2.98436 16.7761 2.98436 16.5ZM8.48436 18C8.48436 18.1326 8.43169 18.2598 8.33794 18.3536C8.24419 18.4473 8.11695 18.5 7.98436 18.5H3.48436C3.20825 18.5 2.98436 18.2761 2.98436 18C2.98436 17.7239 3.20825 17.5 3.48436 17.5H7.98436C8.11695 17.5 8.24419 17.5527 8.33794 17.6464C8.43168 17.7402 8.48436 17.8674 8.48436 18Z" fill="#CC1212"/>
</svg>