<svg width="38" height="38" viewBox="0 0 35 35" fill="none"
                                xmlns="http://www.w3.org/2000/svg">
                                <path
                                    d="M9.45276 30.4326L9.4174 30.7848L9.72339 30.9629C12.0733 32.3303 14.7437 33.0507 17.4625 33.0507C20.1814 33.0507 22.8517 32.3303 25.2016 30.9629L25.5076 30.7848L25.4723 30.4326C25.2729 28.4467 24.343 26.6058 22.863 25.2669C21.3829 23.9279 19.4583 23.1866 17.4625 23.1866C15.4667 23.1866 13.5421 23.9279 12.062 25.2669C10.582 26.6058 9.65209 28.4467 9.45276 30.4326ZM26.6408 29.0434L26.8527 29.908L27.5311 29.3316C29.9568 27.2707 31.6915 24.5149 32.5011 21.4366C33.3107 18.3583 33.1561 15.1057 32.0583 12.1181C30.9604 9.13041 28.9721 6.55163 26.362 4.72997C23.7518 2.9083 20.6455 1.93152 17.4625 1.93152C14.2795 1.93152 11.1732 2.9083 8.56304 4.72997C5.95288 6.55163 3.96462 9.13041 2.86676 12.1181C1.7689 15.1057 1.61432 18.3583 2.42391 21.4366C3.23349 24.5149 4.96824 27.2707 7.39388 29.3316L8.07227 29.908L8.28419 29.0434C8.78769 26.9893 9.9657 25.1634 11.6297 23.858C13.2937 22.5526 15.3476 21.8431 17.4625 21.8431C19.5775 21.8431 21.6313 22.5526 23.2953 23.858C24.9593 25.1634 26.1373 26.9893 26.6408 29.0434ZM8.08309 3.40659C10.8705 1.5441 14.1476 0.55 17.5 0.55C21.9954 0.55 26.3067 2.3358 29.4855 5.51454C32.6642 8.69328 34.45 13.0046 34.45 17.5C34.45 20.8524 33.4559 24.1295 31.5934 26.9169C29.7309 29.7043 27.0837 31.8769 23.9865 33.1598C20.8893 34.4427 17.4812 34.7783 14.1932 34.1243C10.9052 33.4703 7.88505 31.856 5.51455 29.4855C3.14405 27.115 1.52972 24.0948 0.875697 20.8068C0.221678 17.5188 0.557344 14.1107 1.84025 11.0135C3.12316 7.91631 5.29568 5.26908 8.08309 3.40659ZM14.3333 9.01062C15.2706 8.3843 16.3727 8.05 17.5 8.05C19.0117 8.05 20.4616 8.65053 21.5305 9.71949C22.5995 10.7884 23.2 12.2383 23.2 13.75C23.2 14.8774 22.8657 15.9794 22.2394 16.9167C21.6131 17.8541 20.7228 18.5847 19.6813 19.0161C18.6398 19.4475 17.4937 19.5604 16.388 19.3405C15.2823 19.1205 14.2667 18.5777 13.4695 17.7805C12.6723 16.9833 12.1295 15.9677 11.9095 14.862C11.6896 13.7563 11.8025 12.6102 12.2339 11.5687C12.6653 10.5272 13.3959 9.63695 14.3333 9.01062ZM15.1111 17.3253C15.8182 17.7978 16.6495 18.05 17.5 18.05C18.6404 18.05 19.7342 17.597 20.5406 16.7906C21.347 15.9842 21.8 14.8904 21.8 13.75C21.8 12.8995 21.5478 12.0682 21.0753 11.361C20.6028 10.6539 19.9313 10.1028 19.1455 9.77732C18.3598 9.45186 17.4952 9.36671 16.6611 9.53262C15.827 9.69854 15.0608 10.1081 14.4594 10.7094C13.8581 11.3108 13.4485 12.077 13.2826 12.9111C13.1167 13.7452 13.2019 14.6098 13.5273 15.3955C13.8528 16.1813 14.4039 16.8528 15.1111 17.3253Z"
                                    stroke="url(#paint0_linear_5451_30064)" stroke-width="1.1" />
                                <defs>
                                    <linearGradient id="paint0_linear_5451_30064" x1="27.2688" y1="-6.29469e-09"
                                        x2="27.1085" y2="42.5003" gradientUnits="userSpaceOnUse">
                                        <stop stop-color="#005CAA" />
                                        <stop offset="1" stop-color="#64B0F1" />
                                    </linearGradient>
                                </defs>
                            </svg>