<svg width="38" height="38" viewBox="0 0 32 25" fill="none" xmlns="http://www.w3.org/2000/svg">
<path d="M22.3327 0.5C17.741 0.5 12.8327 1.925 12.8327 5.25V10V13.0083C11.566 12.375 9.82435 12.0583 8.08268 12.0583C4.75768 12.0583 2.06602 13.1667 0.799349 14.75C0.324349 15.5417 0.166016 16.175 0.166016 16.8083V18.8667C0.166016 19.3417 0.324349 19.975 0.482682 20.45C0.482682 20.6083 0.641016 20.7667 0.799349 20.925C0.957682 21.2417 1.27435 21.5583 1.43268 21.7167C2.85768 22.9833 5.23268 23.6167 7.92435 23.6167C10.2993 23.6167 12.516 22.9833 14.0993 22.0333C14.2577 22.1917 14.416 22.1917 14.5743 22.35C16.316 23.6167 19.166 24.25 22.3327 24.25C25.4993 24.25 28.3493 23.6167 30.091 22.35C31.516 21.4 31.8327 20.2917 31.8327 19.5V14.75V10V5.25C31.8327 1.925 26.9243 0.5 22.3327 0.5ZM28.191 15.0667C28.0327 15.0667 28.0327 15.225 27.8743 15.225C27.8743 15.225 27.716 15.225 27.716 15.3833C27.5577 15.5417 27.241 15.5417 26.9243 15.7C24.391 16.65 20.116 16.65 17.5827 15.7C16.4743 15.225 15.9993 14.9083 15.9993 14.75V13.6417C16.1577 13.6417 16.316 13.8 16.6327 13.8C18.216 14.4333 20.2743 14.75 22.3327 14.75C24.391 14.75 26.4493 14.4333 28.0327 13.8C28.191 13.8 28.5077 13.6417 28.666 13.6417V14.5917C28.666 14.5917 28.666 14.5917 28.666 14.75C28.5077 14.9083 28.5077 14.9083 28.191 15.0667C28.3493 15.0667 28.3493 14.9083 28.191 15.0667ZM28.666 8.89167V9.84167C28.666 9.84167 28.666 9.84167 28.666 10C28.666 10 28.666 10 28.5077 10.1583C28.5077 10.1583 28.3493 10.1583 28.3493 10.3167L28.191 10.475C28.0327 10.6333 27.8743 10.6333 27.716 10.7917C27.5577 10.95 27.241 10.95 26.9243 11.1083C25.816 11.2667 24.0743 11.5833 22.3327 11.5833C21.541 11.5833 20.591 11.5833 19.7993 11.425C19.0077 11.2667 18.216 11.1083 17.5827 10.95C17.266 10.7917 17.1077 10.7917 16.791 10.6333C16.6327 10.475 16.316 10.475 16.1577 10.3167C16.1577 10.1583 15.9993 10 15.9993 10V8.89167C16.1577 8.89167 16.316 9.05 16.6327 9.05C18.216 9.68333 20.2743 10 22.3327 10C24.391 10 26.4493 9.68333 28.0327 9.05C28.3493 9.05 28.5077 8.89167 28.666 8.89167ZM22.3327 3.66667C25.9743 3.66667 28.191 4.775 28.666 5.25L28.5077 5.40833C28.5077 5.40833 28.3493 5.40833 28.3493 5.56667C28.191 5.56667 28.191 5.725 28.0327 5.725C28.0327 5.725 27.8743 5.725 27.8743 5.88333C27.716 6.04167 27.3993 6.04167 27.241 6.2C24.7077 7.15 20.4327 7.15 17.8993 6.2C17.5827 6.04167 17.4243 6.04167 17.266 5.88333C17.1077 5.88333 17.1077 5.725 16.9493 5.725H16.791C16.316 5.40833 16.1577 5.40833 15.9993 5.25C16.4743 4.775 18.691 3.66667 22.3327 3.66667ZM8.08268 15.225C10.616 15.225 12.3577 16.0167 12.6743 16.65C12.6743 16.65 12.6743 16.65 12.6743 16.8083V16.9667C12.6743 16.9667 12.6743 17.125 12.516 17.125L12.3577 17.2833C11.7243 17.7583 10.141 18.55 7.92435 18.55C5.70768 18.55 4.12435 17.9167 3.49102 17.4417L3.33268 17.2833C3.33268 17.125 3.17435 17.125 3.17435 16.9667L3.33268 16.8083C3.80768 16.175 5.54935 15.225 8.08268 15.225ZM28.3493 19.8167C27.3993 20.45 25.341 21.0833 22.3327 21.0833C19.3243 21.0833 17.266 20.45 16.316 19.8167C16.1577 19.6583 15.9993 19.5 15.9993 19.5V19.025V18.3917C16.1577 18.3917 16.316 18.55 16.6327 18.55C18.216 19.1833 20.2743 19.5 22.3327 19.5C24.391 19.5 26.4493 19.1833 28.0327 18.55C28.191 18.55 28.5077 18.3917 28.666 18.3917V19.3417C28.666 19.5 28.5077 19.6583 28.3493 19.8167Z" fill="url(#paint0_linear_3820_20608)"/>
<defs>
<linearGradient id="paint0_linear_3820_20608" x1="24.8378" y1="0.5" x2="24.7562" y2="29.3397" gradientUnits="userSpaceOnUse">
<stop stop-color="#005CAA"/>
<stop offset="1" stop-color="#64B0F1"/>
</linearGradient>
</defs>
</svg>