<svg width="38" height="38" viewBox="0 0 30 30" fill="none" xmlns="http://www.w3.org/2000/svg">
<path d="M28.9691 0.799676C28.9121 0.77529 28.8508 0.762567 28.7887 0.761719H1.23867C0.976363 0.761719 0.763672 0.97441 0.763672 1.23672V28.7867C0.763672 28.9127 0.813717 29.0336 0.902779 29.1226C0.991841 29.2117 1.11271 29.2617 1.23867 29.2617H28.7887C28.9146 29.2617 29.0355 29.2117 29.1246 29.1226C29.2136 29.0335 29.2637 28.9127 29.2637 28.7867V1.23672C29.2626 1.04503 29.1466 0.872625 28.9691 0.799676ZM27.644 1.71173L1.7139 27.6418V1.71173H27.644ZM2.38324 28.3117L28.3134 2.38162V28.3117H2.38324Z" fill="url(#paint0_linear_3703_35479)"/>
<path d="M28.9691 0.799676C28.9121 0.77529 28.8508 0.762567 28.7887 0.761719H1.23867C0.976363 0.761719 0.763672 0.97441 0.763672 1.23672V28.7867C0.763672 28.9127 0.813717 29.0336 0.902779 29.1226C0.991841 29.2117 1.11271 29.2617 1.23867 29.2617H28.7887C28.9146 29.2617 29.0355 29.2117 29.1246 29.1226C29.2136 29.0335 29.2637 28.9127 29.2637 28.7867V1.23672C29.2626 1.04503 29.1466 0.872625 28.9691 0.799676ZM27.644 1.71173L1.7139 27.6418V1.71173H27.644ZM2.38324 28.3117L28.3134 2.38162V28.3117H2.38324Z" fill="black" fill-opacity="0.2"/>
<path d="M25.7051 22.9284C24.4273 23.2583 23.0695 23.0418 21.9577 22.3306C20.846 21.6193 20.08 20.4776 19.844 19.179C19.6077 17.8804 19.9226 16.5421 20.713 15.485C20.8279 15.3271 20.8345 15.115 20.7295 14.9502C20.6248 14.7857 20.4297 14.7019 20.238 14.7392C18.4417 15.1916 16.9772 16.4885 16.3112 18.2167C15.6449 19.9452 15.8601 21.8895 16.8882 23.4303C17.9162 24.9711 19.6289 25.9164 21.4806 25.9648C23.3323 26.0133 25.0919 25.159 26.1993 23.6742C26.3142 23.5162 26.3208 23.3042 26.2158 23.1394C26.111 22.9746 25.9159 22.8909 25.7242 22.9284L25.7051 22.9284ZM21.663 24.9851C20.2647 24.9843 18.9379 24.3674 18.036 23.2989C17.1342 22.2305 16.7489 20.8189 16.9828 19.4404C17.2167 18.062 18.0462 16.8565 19.2501 16.1455C18.9598 16.8389 18.8113 17.5834 18.813 18.3352C18.813 19.8469 19.4135 21.2967 20.4825 22.3656C21.5515 23.4346 23.0013 24.0352 24.513 24.0352C23.6926 24.6552 22.6915 24.989 21.663 24.9852L21.663 24.9851Z" fill="url(#paint1_linear_3703_35479)"/>
<path d="M25.7051 22.9284C24.4273 23.2583 23.0695 23.0418 21.9577 22.3306C20.846 21.6193 20.08 20.4776 19.844 19.179C19.6077 17.8804 19.9226 16.5421 20.713 15.485C20.8279 15.3271 20.8345 15.115 20.7295 14.9502C20.6248 14.7857 20.4297 14.7019 20.238 14.7392C18.4417 15.1916 16.9772 16.4885 16.3112 18.2167C15.6449 19.9452 15.8601 21.8895 16.8882 23.4303C17.9162 24.9711 19.6289 25.9164 21.4806 25.9648C23.3323 26.0133 25.0919 25.159 26.1993 23.6742C26.3142 23.5162 26.3208 23.3042 26.2158 23.1394C26.111 22.9746 25.9159 22.8909 25.7242 22.9284L25.7051 22.9284ZM21.663 24.9851C20.2647 24.9843 18.9379 24.3674 18.036 23.2989C17.1342 22.2305 16.7489 20.8189 16.9828 19.4404C17.2167 18.062 18.0462 16.8565 19.2501 16.1455C18.9598 16.8389 18.8113 17.5834 18.813 18.3352C18.813 19.8469 19.4135 21.2967 20.4825 22.3656C21.5515 23.4346 23.0013 24.0352 24.513 24.0352C23.6926 24.6552 22.6915 24.989 21.663 24.9852L21.663 24.9851Z" fill="black" fill-opacity="0.2"/>
<path d="M9.31445 11.6875C9.94428 11.6875 10.5484 11.4373 10.9939 10.992C11.4393 10.5465 11.6895 9.94232 11.6895 9.3125C11.6895 8.68268 11.4392 8.07859 10.9939 7.63301C10.5484 7.1877 9.94428 6.9375 9.31445 6.9375C8.68463 6.9375 8.08054 7.18772 7.63496 7.63301C7.18965 8.07853 6.93945 8.68268 6.93945 9.3125C6.93945 9.94232 7.18968 10.5464 7.63496 10.992C8.08048 11.4373 8.68463 11.6875 9.31445 11.6875ZM9.31445 7.8875C9.69233 7.8875 10.055 8.03763 10.3221 8.30482C10.5892 8.57201 10.7394 8.93464 10.7394 9.31247C10.7394 9.6903 10.5893 10.053 10.3221 10.3201C10.0549 10.5873 9.69228 10.7374 9.31445 10.7374C8.93662 10.7374 8.57394 10.5873 8.3068 10.3201C8.03966 10.0529 7.88948 9.6903 7.88948 9.31247C7.88948 8.93464 8.03961 8.57196 8.3068 8.30482C8.57399 8.03768 8.93662 7.8875 9.31445 7.8875Z" fill="url(#paint2_linear_3703_35479)"/>
<path d="M9.31445 11.6875C9.94428 11.6875 10.5484 11.4373 10.9939 10.992C11.4393 10.5465 11.6895 9.94232 11.6895 9.3125C11.6895 8.68268 11.4392 8.07859 10.9939 7.63301C10.5484 7.1877 9.94428 6.9375 9.31445 6.9375C8.68463 6.9375 8.08054 7.18772 7.63496 7.63301C7.18965 8.07853 6.93945 8.68268 6.93945 9.3125C6.93945 9.94232 7.18968 10.5464 7.63496 10.992C8.08048 11.4373 8.68463 11.6875 9.31445 11.6875ZM9.31445 7.8875C9.69233 7.8875 10.055 8.03763 10.3221 8.30482C10.5892 8.57201 10.7394 8.93464 10.7394 9.31247C10.7394 9.6903 10.5893 10.053 10.3221 10.3201C10.0549 10.5873 9.69228 10.7374 9.31445 10.7374C8.93662 10.7374 8.57394 10.5873 8.3068 10.3201C8.03966 10.0529 7.88948 9.6903 7.88948 9.31247C7.88948 8.93464 8.03961 8.57196 8.3068 8.30482C8.57399 8.03768 8.93662 7.8875 9.31445 7.8875Z" fill="black" fill-opacity="0.2"/>
<path d="M9.31484 5.98828C9.4408 5.98828 9.56168 5.93824 9.65074 5.84917C9.7398 5.76011 9.78984 5.63924 9.78984 5.51328V4.08828C9.78984 3.82597 9.57715 3.61328 9.31484 3.61328C9.05254 3.61328 8.83984 3.82597 8.83984 4.08828V5.51328C8.83984 5.63924 8.88989 5.76011 8.97895 5.84917C9.06801 5.93824 9.18888 5.98828 9.31484 5.98828Z" fill="url(#paint3_linear_3703_35479)"/>
<path d="M9.31484 5.98828C9.4408 5.98828 9.56168 5.93824 9.65074 5.84917C9.7398 5.76011 9.78984 5.63924 9.78984 5.51328V4.08828C9.78984 3.82597 9.57715 3.61328 9.31484 3.61328C9.05254 3.61328 8.83984 3.82597 8.83984 4.08828V5.51328C8.83984 5.63924 8.88989 5.76011 8.97895 5.84917C9.06801 5.93824 9.18888 5.98828 9.31484 5.98828Z" fill="black" fill-opacity="0.2"/>
<path d="M6.29316 6.93548C6.48146 7.09686 6.76243 7.08604 6.93802 6.91067C7.11339 6.73509 7.1242 6.45412 6.96283 6.26581L5.95577 5.25876C5.76725 5.09738 5.4865 5.1082 5.31091 5.28357C5.13554 5.45915 5.12473 5.7399 5.2861 5.92843L6.29316 6.93548Z" fill="url(#paint4_linear_3703_35479)"/>
<path d="M6.29316 6.93548C6.48146 7.09686 6.76243 7.08604 6.93802 6.91067C7.11339 6.73509 7.1242 6.45412 6.96283 6.26581L5.95577 5.25876C5.76725 5.09738 5.4865 5.1082 5.31091 5.28357C5.13554 5.45915 5.12473 5.7399 5.2861 5.92843L6.29316 6.93548Z" fill="black" fill-opacity="0.2"/>
<path d="M4.08828 9.78594H5.51328C5.77559 9.78594 5.98828 9.57325 5.98828 9.31094C5.98828 9.04863 5.77559 8.83594 5.51328 8.83594H4.08828C3.82597 8.83594 3.61328 9.04863 3.61328 9.31094C3.61328 9.57325 3.82597 9.78594 4.08828 9.78594Z" fill="url(#paint5_linear_3703_35479)"/>
<path d="M4.08828 9.78594H5.51328C5.77559 9.78594 5.98828 9.57325 5.98828 9.31094C5.98828 9.04863 5.77559 8.83594 5.51328 8.83594H4.08828C3.82597 8.83594 3.61328 9.04863 3.61328 9.31094C3.61328 9.57325 3.82597 9.78594 4.08828 9.78594Z" fill="black" fill-opacity="0.2"/>
<path d="M6.29237 11.6885L5.28532 12.6955C5.1848 12.7816 5.1248 12.9057 5.11949 13.038C5.1144 13.1701 5.16487 13.2986 5.25839 13.3921C5.35191 13.4856 5.4804 13.5361 5.61251 13.531C5.74484 13.5257 5.86889 13.4657 5.95498 13.3652L6.96204 12.3581C7.12341 12.1698 7.11259 11.8888 6.93723 11.7133C6.76164 11.5379 6.48068 11.5271 6.29237 11.6885Z" fill="url(#paint6_linear_3703_35479)"/>
<path d="M6.29237 11.6885L5.28532 12.6955C5.1848 12.7816 5.1248 12.9057 5.11949 13.038C5.1144 13.1701 5.16487 13.2986 5.25839 13.3921C5.35191 13.4856 5.4804 13.5361 5.61251 13.531C5.74484 13.5257 5.86889 13.4657 5.95498 13.3652L6.96204 12.3581C7.12341 12.1698 7.11259 11.8888 6.93723 11.7133C6.76164 11.5379 6.48068 11.5271 6.29237 11.6885Z" fill="black" fill-opacity="0.2"/>
<path d="M9.31484 12.6367C9.05254 12.6367 8.83984 12.8494 8.83984 13.1117V14.5367C8.83984 14.799 9.05254 15.0117 9.31484 15.0117C9.57715 15.0117 9.78984 14.799 9.78984 14.5367V13.1117C9.78984 12.9858 9.7398 12.8649 9.65074 12.7758C9.56167 12.6868 9.4408 12.6367 9.31484 12.6367Z" fill="url(#paint7_linear_3703_35479)"/>
<path d="M9.31484 12.6367C9.05254 12.6367 8.83984 12.8494 8.83984 13.1117V14.5367C8.83984 14.799 9.05254 15.0117 9.31484 15.0117C9.57715 15.0117 9.78984 14.799 9.78984 14.5367V13.1117C9.78984 12.9858 9.7398 12.8649 9.65074 12.7758C9.56167 12.6868 9.4408 12.6367 9.31484 12.6367Z" fill="black" fill-opacity="0.2"/>
<path d="M12.3347 11.6884C12.1464 11.5271 11.8654 11.5379 11.6898 11.7133C11.5144 11.8888 11.5036 12.1698 11.665 12.3581L12.6721 13.3652C12.8606 13.5265 13.1413 13.5157 13.3169 13.3404C13.4923 13.1648 13.5031 12.884 13.3417 12.6955L12.3347 11.6884Z" fill="url(#paint8_linear_3703_35479)"/>
<path d="M12.3347 11.6884C12.1464 11.5271 11.8654 11.5379 11.6898 11.7133C11.5144 11.8888 11.5036 12.1698 11.665 12.3581L12.6721 13.3652C12.8606 13.5265 13.1413 13.5157 13.3169 13.3404C13.4923 13.1648 13.5031 12.884 13.3417 12.6955L12.3347 11.6884Z" fill="black" fill-opacity="0.2"/>
<path d="M12.6387 9.31094C12.6387 9.4369 12.6887 9.55777 12.7778 9.64683C12.8668 9.73589 12.9877 9.78594 13.1137 9.78594H14.5387C14.801 9.78594 15.0137 9.57325 15.0137 9.31094C15.0137 9.04863 14.801 8.83594 14.5387 8.83594H13.1137C12.8514 8.83594 12.6387 9.04863 12.6387 9.31094Z" fill="url(#paint9_linear_3703_35479)"/>
<path d="M12.6387 9.31094C12.6387 9.4369 12.6887 9.55777 12.7778 9.64683C12.8668 9.73589 12.9877 9.78594 13.1137 9.78594H14.5387C14.801 9.78594 15.0137 9.57325 15.0137 9.31094C15.0137 9.04863 14.801 8.83594 14.5387 8.83594H13.1137C12.8514 8.83594 12.6387 9.04863 12.6387 9.31094Z" fill="black" fill-opacity="0.2"/>
<path d="M12.0023 7.09676C12.1286 7.09739 12.2499 7.04777 12.3396 6.95892L13.3467 5.95187C13.5081 5.76335 13.4972 5.48259 13.3217 5.30701C13.1463 5.13164 12.8653 5.12082 12.6768 5.2822L11.6698 6.28925C11.5328 6.42496 11.4916 6.63045 11.5656 6.80857C11.6396 6.98669 11.8142 7.10248 12.0071 7.10141L12.0023 7.09676Z" fill="url(#paint10_linear_3703_35479)"/>
<path d="M12.0023 7.09676C12.1286 7.09739 12.2499 7.04777 12.3396 6.95892L13.3467 5.95187C13.5081 5.76335 13.4972 5.48259 13.3217 5.30701C13.1463 5.13164 12.8653 5.12082 12.6768 5.2822L11.6698 6.28925C11.5328 6.42496 11.4916 6.63045 11.5656 6.80857C11.6396 6.98669 11.8142 7.10248 12.0071 7.10141L12.0023 7.09676Z" fill="black" fill-opacity="0.2"/>
<defs>
<linearGradient id="paint0_linear_3703_35479" x1="15.0137" y1="0.761719" x2="15.0137" y2="29.2617" gradientUnits="userSpaceOnUse">
<stop stop-color="#FF0F0F"/>
<stop offset="1" stop-color="#FF4849"/>
</linearGradient>
<linearGradient id="paint1_linear_3703_35479" x1="21.11" y1="14.7305" x2="21.11" y2="25.9667" gradientUnits="userSpaceOnUse">
<stop stop-color="#FF0F0F"/>
<stop offset="1" stop-color="#FF4849"/>
</linearGradient>
<linearGradient id="paint2_linear_3703_35479" x1="9.31445" y1="6.9375" x2="9.31445" y2="11.6875" gradientUnits="userSpaceOnUse">
<stop stop-color="#FF0F0F"/>
<stop offset="1" stop-color="#FF4849"/>
</linearGradient>
<linearGradient id="paint3_linear_3703_35479" x1="9.31484" y1="3.61328" x2="9.31484" y2="5.98828" gradientUnits="userSpaceOnUse">
<stop stop-color="#FF0F0F"/>
<stop offset="1" stop-color="#FF4849"/>
</linearGradient>
<linearGradient id="paint4_linear_3703_35479" x1="6.12446" y1="5.14453" x2="6.12446" y2="7.04971" gradientUnits="userSpaceOnUse">
<stop stop-color="#FF0F0F"/>
<stop offset="1" stop-color="#FF4849"/>
</linearGradient>
<linearGradient id="paint5_linear_3703_35479" x1="4.80078" y1="8.83594" x2="4.80078" y2="9.78594" gradientUnits="userSpaceOnUse">
<stop stop-color="#FF0F0F"/>
<stop offset="1" stop-color="#FF4849"/>
</linearGradient>
<linearGradient id="paint6_linear_3703_35479" x1="6.0977" y1="11.5742" x2="6.0977" y2="13.5313" gradientUnits="userSpaceOnUse">
<stop stop-color="#FF0F0F"/>
<stop offset="1" stop-color="#FF4849"/>
</linearGradient>
<linearGradient id="paint7_linear_3703_35479" x1="9.31484" y1="12.6367" x2="9.31484" y2="15.0117" gradientUnits="userSpaceOnUse">
<stop stop-color="#FF0F0F"/>
<stop offset="1" stop-color="#FF4849"/>
</linearGradient>
<linearGradient id="paint8_linear_3703_35479" x1="12.5034" y1="11.5742" x2="12.5034" y2="13.4794" gradientUnits="userSpaceOnUse">
<stop stop-color="#FF0F0F"/>
<stop offset="1" stop-color="#FF4849"/>
</linearGradient>
<linearGradient id="paint9_linear_3703_35479" x1="13.8262" y1="8.83594" x2="13.8262" y2="9.78594" gradientUnits="userSpaceOnUse">
<stop stop-color="#FF0F0F"/>
<stop offset="1" stop-color="#FF4849"/>
</linearGradient>
<linearGradient id="paint10_linear_3703_35479" x1="12.4951" y1="5.16797" x2="12.4951" y2="7.10142" gradientUnits="userSpaceOnUse">
<stop stop-color="#FF0F0F"/>
<stop offset="1" stop-color="#FF4849"/>
</linearGradient>
</defs>
</svg>