<svg width="38" height="38" viewBox="0 0 30 24" fill="none" xmlns="http://www.w3.org/2000/svg">
<path d="M25.5766 23.4361H2.96439C1.52581 23.4361 0.355469 22.2654 0.355469 20.8266V3.14084C0.355469 1.70227 1.52581 0.531921 2.96439 0.531921H25.5771C27.0159 0.531921 28.1866 1.70227 28.1866 3.14084V6.46671C29.0435 6.78012 29.657 7.60394 29.657 8.56816V15.3995C29.657 16.3641 29.0435 17.1875 28.1862 17.5009V20.8261C28.186 22.2654 27.0155 23.4361 25.5767 23.4361H25.5766ZM2.96439 2.05241C2.36366 2.05241 1.87547 2.54056 1.87547 3.14133V20.8271C1.87547 21.428 2.36362 21.9166 2.96439 21.9166H25.5771C26.1778 21.9166 26.6664 21.428 26.6664 20.8271L26.6662 17.6369H19.5738C18.3398 17.6369 17.3364 16.6335 17.3364 15.4004V8.56963C17.3364 7.33588 18.3402 6.33246 19.5738 6.33246C19.9936 6.33246 20.3338 6.67259 20.3338 7.09246C20.3338 7.51233 19.9936 7.85246 19.5738 7.85246C19.1779 7.85246 18.8564 8.17436 18.8564 8.56963V15.4004C18.8564 15.7957 19.1783 16.1169 19.5738 16.1169H27.4202C27.8155 16.1169 28.1367 15.7952 28.1367 15.4004V8.56909C28.1367 8.17382 27.815 7.85257 27.4202 7.85257H22.6815C22.2616 7.85257 21.9215 7.51244 21.9215 7.09257C21.9215 6.6727 22.2616 6.33257 22.6815 6.33257H26.6659V3.14138C26.6659 2.54066 26.1773 2.05246 25.5764 2.05246L2.96439 2.05241Z" fill="url(#paint0_linear_3240_13241)"/>
<defs>
<linearGradient id="paint0_linear_3240_13241" x1="23.1846" y1="0.531921" x2="23.1025" y2="28.3445" gradientUnits="userSpaceOnUse">
<stop stop-color="#005CAA"/>
<stop offset="1" stop-color="#64B0F1"/>
</linearGradient>
</defs>
</svg>