<svg width="38" height="38" viewBox="0 0 26 27" fill="none"
                                xmlns="http://www.w3.org/2000/svg">
                                <path
                                    d="M13.4646 1.47457V0L9.74051 2.14977L13.4646 4.29954V2.8096C19.2875 3.24733 23.8921 8.12166 23.8921 14.0547C23.8921 20.2742 18.8318 25.3353 12.6115 25.3353C6.39149 25.3349 1.33149 20.2744 1.33149 14.0547C1.33149 10.4224 3.10091 6.98903 6.06383 4.87189L5.28971 3.78886C1.97743 6.15514 0 9.99286 0 14.0551C0.0002232 21.0089 5.65783 26.6671 12.612 26.6671C19.5662 26.6671 25.2234 21.0091 25.2234 14.0551C25.2234 7.38772 20.0221 1.91571 13.4646 1.47514L13.4646 1.47457Z"
                                    fill="url(#paint0_linear_5451_30591)" />
                                <defs>
                                    <linearGradient id="paint0_linear_5451_30591" x1="19.6518" y1="-4.79604e-09"
                                        x2="19.5226" y2="32.3817" gradientUnits="userSpaceOnUse">
                                        <stop stop-color="#005CAA" />
                                        <stop offset="1" stop-color="#64B0F1" />
                                    </linearGradient>
                                </defs>
                            </svg>