<svg width="38" height="38" viewBox="0 0 38 28" fill="none" xmlns="http://www.w3.org/2000/svg">
<path d="M32.2508 24.8454H32.6911C33.108 24.8454 33.4458 24.5075 33.4458 24.0907C33.4458 23.6738 33.1079 23.3359 32.6911 23.3359H32.2508C31.834 23.3359 31.4961 23.6738 31.4961 24.0907C31.4961 24.5072 31.834 24.8454 32.2508 24.8454Z" fill="#CC1212"/>
<path d="M31.229 18.8542C31.6458 18.8542 31.9837 18.5163 31.9837 18.0995V3.91878C31.9837 3.50193 31.6458 3.16406 31.229 3.16406H6.82112C6.40427 3.16406 6.06641 3.50196 6.06641 3.91878L6.06669 18.0995C6.06669 18.5163 6.40458 18.8542 6.8214 18.8542H31.2293H31.229ZM18.6375 17.3447H10.6475V15.6326C10.6475 14.4823 11.5808 13.5461 12.7282 13.5461H16.5513C17.7016 13.5461 18.6378 14.4822 18.6378 15.6326L18.6375 17.3447ZM12.7645 10.1611C12.7645 9.12685 13.6057 8.28499 14.6403 8.28499C15.6746 8.28499 16.5165 9.12678 16.5165 10.1611C16.5165 11.1954 15.6747 12.037 14.6403 12.037C13.6058 12.037 12.7645 11.1955 12.7645 10.1611ZM17.3738 12.1411C17.7792 11.583 18.0256 10.9025 18.0256 10.1614C18.0256 8.29449 16.5069 6.77585 14.64 6.77585C12.7734 6.77585 11.255 8.29456 11.255 10.1614C11.255 10.9025 11.5013 11.583 11.9068 12.1411C10.3233 12.5152 9.13776 13.9343 9.13776 15.6333V17.3453H7.57555L7.57583 4.67392H30.4744V17.3453H20.1473V15.6333C20.1473 13.9343 18.96 12.5156 17.3741 12.1413L17.3738 12.1411Z" fill="#CC1212"/>
<path d="M5.30259 27.8207H32.744C35.1659 27.8207 37.1363 25.8502 37.1363 23.4281L37.1366 21.8731C37.1366 21.0405 36.4597 20.3636 35.6271 20.3636H35.0007V3.84289C35.0007 1.80353 33.3416 0.144531 31.3026 0.144531H6.7369C4.70204 0.144531 3.04633 1.80025 3.04633 3.8351L3.04605 20.3637H2.41966C1.58709 20.3637 0.910156 21.0406 0.910156 21.8732V23.4279C0.910156 25.85 2.88059 27.8205 5.30244 27.8205L5.30259 27.8207ZM4.55566 3.83567C4.55566 2.63282 5.53416 1.65432 6.73701 1.65432H31.3027C32.5095 1.65432 33.4914 2.63646 33.4914 3.84325V20.364H23.4964C22.5932 20.364 21.7486 20.8486 21.2924 21.6287C21.1066 21.9474 20.7618 22.1455 20.3926 22.1455H16.8999C16.5307 22.1455 16.1856 21.9477 15.9995 21.6287C15.5436 20.8486 14.699 20.364 13.7958 20.364H4.5558L4.55566 3.83567ZM2.4198 21.8735H13.7962C14.1654 21.8735 14.5105 22.0714 14.6966 22.3903C15.1519 23.1704 15.9968 23.6551 16.9003 23.6551H20.393C21.2964 23.6551 22.1414 23.1704 22.5964 22.3903C22.7828 22.0716 23.128 21.8735 23.4971 21.8735C25.4192 21.8735 17.8922 21.8741 35.6278 21.8724V23.4282C35.6278 25.0181 34.3346 26.3116 32.745 26.3116H5.30287C3.7133 26.3116 2.42008 25.0181 2.42008 23.4285L2.4198 21.8735Z" fill="#CC1212"/>
<path d="M28.6453 24.8454H29.0856C29.5025 24.8454 29.8403 24.5075 29.8403 24.0907C29.8403 23.6738 29.5025 23.3359 29.0856 23.3359H28.6453C28.2285 23.3359 27.8906 23.6738 27.8906 24.0907C27.8906 24.5072 28.2285 24.8454 28.6453 24.8454Z" fill="#CC1212"/>
<path d="M5.13362 24.9391H12.9565C13.3733 24.9391 13.7112 24.6012 13.7112 24.1844C13.7112 23.7676 13.3733 23.4297 12.9565 23.4297H5.13362C4.71677 23.4297 4.37891 23.7676 4.37891 24.1844C4.37891 24.6013 4.7168 24.9391 5.13362 24.9391Z" fill="#CC1212"/>
<path d="M22.8289 8.03677H27.7754C28.1922 8.03677 28.5301 7.69888 28.5301 7.28206C28.5301 6.86521 28.1922 6.52734 27.7754 6.52734H22.8289C22.4121 6.52734 22.0742 6.86524 22.0742 7.28206C22.0742 7.69863 22.4121 8.03677 22.8289 8.03677Z" fill="#CC1212"/>
<path d="M22.8289 11.7633H27.7754C28.1922 11.7633 28.5301 11.4254 28.5301 11.0086C28.5301 10.5918 28.1922 10.2539 27.7754 10.2539H22.8289C22.4121 10.2539 22.0742 10.5918 22.0742 11.0086C22.0742 11.4255 22.4121 11.7633 22.8289 11.7633Z" fill="#CC1212"/>
<path d="M22.8289 15.4899H27.7754C28.1922 15.4899 28.5301 15.152 28.5301 14.7352C28.5301 14.3183 28.1922 13.9805 27.7754 13.9805H22.8289C22.4121 13.9805 22.0742 14.3184 22.0742 14.7352C22.0742 15.152 22.4121 15.4899 22.8289 15.4899Z" fill="#CC1212"/>
</svg>