<svg width="38" height="38" viewBox="0 0 30 30" fill="none" xmlns="http://www.w3.org/2000/svg">
<path d="M26.353 28.822C26.3631 28.8053 26.3716 28.7879 26.3789 28.7698L26.3812 28.764V28.7642C26.3892 28.7439 26.3952 28.7231 26.3995 28.7019L29.4093 14.0156L29.4095 14.0159C29.4323 13.9029 29.4033 13.7857 29.3303 13.6967C29.2573 13.6074 29.1484 13.5556 29.0332 13.5556H27.5559V4.17959C27.5559 4.08048 27.5175 3.9854 27.449 3.91397L24.7247 1.07511C24.6523 0.999889 24.5523 0.957254 24.4479 0.957031H6.83417C6.62211 0.957031 6.45023 1.12913 6.45023 1.34119V8.7149L5.93818 7.94947C5.86675 7.84277 5.74666 7.77871 5.61809 7.77893H1.00112C0.789067 7.77893 0.617188 7.95081 0.617188 8.16287V28.6303V28.6466C0.617188 28.6519 0.617188 28.6633 0.619196 28.6716C0.621205 28.6798 0.619196 28.6814 0.621429 28.6863C0.623661 28.6912 0.62433 28.7035 0.626339 28.7122L0.629911 28.7254C0.632143 28.7343 0.635045 28.743 0.637946 28.7517L0.64241 28.7638C0.645982 28.7727 0.649553 28.781 0.653571 28.7897L0.658928 28.8013C0.663392 28.8095 0.668303 28.8182 0.673437 28.8263L0.679241 28.8361C0.685937 28.8459 0.692856 28.8555 0.700446 28.8649L0.702901 28.8685L0.702678 28.8682C0.71116 28.8787 0.720312 28.8888 0.72991 28.8984L0.737945 28.9057C0.745311 28.9124 0.752455 28.9189 0.760044 28.9249L0.771204 28.9332L0.792856 28.9482L0.804687 28.9555C0.812276 28.96 0.820311 28.9644 0.828347 28.9682L0.840177 28.974C0.848882 28.9778 0.857365 28.9814 0.866517 28.9845L0.877677 28.9888C0.887052 28.9919 0.89665 28.9946 0.906249 28.997L0.917187 28.9995C0.927455 29.0017 0.937722 29.0033 0.949106 29.0049H0.958704V29.0053C0.97232 29.0069 0.986383 29.0078 1.00022 29.0078H26.0254C26.0459 29.0078 26.0664 29.0057 26.0867 29.0024H26.0955C26.1144 28.9988 26.1332 28.9939 26.1515 28.9874L26.1602 28.9843L26.16 28.9841C26.1783 28.9776 26.1957 28.9694 26.2124 28.9598L26.2178 28.9566H26.218C26.2347 28.947 26.251 28.9363 26.2662 28.9247C26.2812 28.9122 26.2952 28.8988 26.3082 28.8843L26.3142 28.8772C26.3267 28.8631 26.3379 28.8479 26.3479 28.8319L26.353 28.822ZM24.7713 2.23001L26.2812 3.80344H24.7713V2.23001ZM24.005 1.72398V4.18804C24.005 4.40009 24.1769 4.57197 24.389 4.57197H26.789V13.5577L7.21755 13.5579V1.72419L24.005 1.72398ZM5.41704 8.54569L6.45122 10.097V13.5555H4.00904C3.82712 13.5559 3.67065 13.6836 3.63382 13.8617L1.38514 24.8469V8.54572L5.41704 8.54569ZM1.47019 28.2428L4.3231 14.3228H27.0991C27.1475 14.3327 27.1973 14.3327 27.2458 14.3228H28.5638L25.7109 28.2428H1.47019ZM17.989 11.4891H9.21876V10.7211H17.989V11.4891ZM17.989 9.35472L9.21876 9.3545V8.58644L17.989 8.58667V9.35472ZM14.6221 7.21992H9.2187V6.45341H14.6221V7.21992ZM20.8918 8.66655H20.8916C21.1851 8.66655 21.4664 8.55003 21.6739 8.34267C21.8815 8.13508 21.998 7.85383 21.998 7.56032C21.9982 7.26702 21.8817 6.98552 21.6744 6.77798C21.467 6.57039 21.1855 6.45365 20.8922 6.45343C20.5987 6.45343 20.3172 6.56972 20.1096 6.77709C19.902 6.98445 19.7853 7.26571 19.7851 7.55903C19.7851 7.85278 19.9016 8.13423 20.1092 8.34183C20.3165 8.54942 20.598 8.66639 20.8915 8.66661L20.8918 8.66655ZM20.8916 7.21992C21.0293 7.21925 21.1541 7.30184 21.207 7.42908C21.2601 7.55609 21.2313 7.70274 21.134 7.80028C21.0367 7.89783 20.89 7.92707 20.7628 7.87417C20.6355 7.82127 20.5527 7.69694 20.5529 7.55899C20.5536 7.37239 20.7047 7.22104 20.8916 7.21992ZM22.5788 11.1751C22.5788 11.4686 22.6956 11.75 22.9029 11.9576C23.1105 12.165 23.392 12.2817 23.6855 12.2817C23.979 12.2817 24.2605 12.165 24.4678 11.9576C24.6754 11.7501 24.7919 11.4686 24.7919 11.1751C24.7919 10.8816 24.6754 10.6001 24.4678 10.3927C24.2605 10.1851 23.979 10.0686 23.6855 10.0686C23.392 10.0688 23.1107 10.1856 22.9033 10.3929C22.696 10.6005 22.5792 10.8818 22.5788 11.1751L22.5788 11.1751ZM24.0252 11.1751C24.0252 11.3128 23.9424 11.4367 23.8152 11.4894C23.6882 11.542 23.5417 11.5128 23.4444 11.4155C23.3473 11.3181 23.3183 11.1717 23.371 11.0447C23.4237 10.9177 23.5478 10.8349 23.6855 10.8349C23.8732 10.8351 24.0252 10.9873 24.0252 11.1751ZM20.1978 11.4398L23.7732 6.82597C23.9069 6.67307 24.1366 6.65097 24.2973 6.7753C24.4578 6.89963 24.4938 7.12776 24.3792 7.29539L20.8038 11.911C20.6701 12.0639 20.4404 12.0862 20.2797 11.9617C20.1192 11.8373 20.0833 11.6094 20.1978 11.4416V11.4398ZM14.4686 20.1352C14.4686 20.6524 14.7215 20.7508 15.4436 20.9007C16.0796 21.0326 17.0398 21.2315 17.0398 22.4326C17.0269 22.7859 16.895 23.1243 16.6657 23.3935C16.4363 23.6625 16.1229 23.8462 15.776 23.9152V24.2835C15.776 24.4955 15.6041 24.6674 15.3921 24.6674C15.18 24.6674 15.0082 24.4955 15.0082 24.2835V23.9321C14.6432 23.8788 14.3082 23.6995 14.0615 23.4254C13.8147 23.1513 13.6716 22.7995 13.6568 22.431C13.6568 22.2188 13.8287 22.0469 14.0408 22.0469C14.2528 22.0469 14.4247 22.2188 14.4247 22.431C14.4794 22.7203 14.6665 22.9674 14.9303 23.0987C15.1939 23.2297 15.5039 23.2297 15.7675 23.0987C16.0314 22.9674 16.2184 22.7203 16.2731 22.431C16.2731 21.9013 16.0171 21.8013 15.2881 21.65C14.6564 21.5192 13.7022 21.321 13.7022 20.1339V20.1337C13.7162 19.7728 13.8537 19.4277 14.0917 19.1561C14.3296 18.8844 14.6537 18.7027 15.0097 18.6416V18.2831C15.0097 18.071 15.1816 17.8991 15.3937 17.8991C15.6057 17.8991 15.7778 18.071 15.7778 18.2831V18.6416C16.1336 18.7032 16.4575 18.8851 16.6955 19.157C16.9332 19.4291 17.0702 19.7744 17.0836 20.1353C17.0836 20.3474 16.9118 20.5192 16.6997 20.5192C16.4877 20.5192 16.3158 20.3474 16.3158 20.1353C16.2611 19.8458 16.074 19.5987 15.8102 19.4676C15.5466 19.3364 15.2365 19.3364 14.9727 19.4676C14.7091 19.5987 14.522 19.8458 14.4673 20.1353L14.4686 20.1352ZM15.3711 16.2312C14.0314 16.2312 12.7468 16.7631 11.7994 17.7105C10.8521 18.6576 10.32 19.9422 10.3197 21.2819C10.3197 22.6214 10.8517 23.9063 11.799 24.8533C12.7461 25.8007 14.0307 26.3331 15.3704 26.3331C16.7099 26.3331 17.9948 25.8011 18.9418 24.8538C19.8892 23.9067 20.4216 22.6221 20.4216 21.2824C20.4202 19.9433 19.8879 18.6594 18.941 17.7123C17.9941 16.7654 16.7102 16.2325 15.3711 16.2312ZM15.3711 25.5661C14.2347 25.5661 13.145 25.1147 12.3416 24.3112C11.5381 23.5078 11.0867 22.4181 11.0869 21.2819C11.0869 20.1455 11.5383 19.0558 12.3418 18.2524C13.1452 17.4491 14.2349 16.9977 15.3713 16.9977C16.5075 16.9977 17.5972 17.4493 18.4006 18.2527C19.204 19.0562 19.6553 20.146 19.6553 21.2821C19.6542 22.4181 19.2024 23.5073 18.3993 24.3105C17.5961 25.1136 16.5069 25.5654 15.3712 25.5663L15.3711 25.5661Z" fill="#CC1212"/>
</svg>