<svg width="38" height="38" viewBox="0 0 42 38" fill="none" xmlns="http://www.w3.org/2000/svg">
<path d="M1.5 2.25C1.5 1.83583 1.83583 1.5 2.25 1.5H10.8746C11.2887 1.5 11.6246 1.16417 11.6246 0.75C11.6246 0.335829 11.2887 0 10.8746 0H2.25C1.00749 0 0 1.00749 0 2.25V9.75C0 10.1642 0.335829 10.5 0.75 10.5C1.16417 10.5 1.5 10.1642 1.5 9.75V2.25Z" fill="url(#paint0_linear_3620_16782)"/>
<path d="M1.5 2.25C1.5 1.83583 1.83583 1.5 2.25 1.5H10.8746C11.2887 1.5 11.6246 1.16417 11.6246 0.75C11.6246 0.335829 11.2887 0 10.8746 0H2.25C1.00749 0 0 1.00749 0 2.25V9.75C0 10.1642 0.335829 10.5 0.75 10.5C1.16417 10.5 1.5 10.1642 1.5 9.75V2.25Z" fill="black" fill-opacity="0.2"/>
<path d="M31.125 0C30.7108 0 30.375 0.335829 30.375 0.75C30.375 1.16417 30.7108 1.5 31.125 1.5H39.7496C40.1637 1.5 40.4996 1.83583 40.4996 2.25V9.75C40.4996 10.1642 40.8354 10.5 41.2496 10.5C41.6637 10.5 41.9996 10.1642 41.9996 9.75V2.25C41.9996 1.00749 40.9921 0 39.7496 0H31.125Z" fill="url(#paint1_linear_3620_16782)"/>
<path d="M31.125 0C30.7108 0 30.375 0.335829 30.375 0.75C30.375 1.16417 30.7108 1.5 31.125 1.5H39.7496C40.1637 1.5 40.4996 1.83583 40.4996 2.25V9.75C40.4996 10.1642 40.8354 10.5 41.2496 10.5C41.6637 10.5 41.9996 10.1642 41.9996 9.75V2.25C41.9996 1.00749 40.9921 0 39.7496 0H31.125Z" fill="black" fill-opacity="0.2"/>
<path d="M1.5 27.75C1.5 27.3358 1.16417 27 0.75 27C0.335829 27 0 27.3358 0 27.75V35.25C0 36.4925 1.00749 37.5 2.25 37.5H10.8746C11.2887 37.5 11.6246 37.1642 11.6246 36.75C11.6246 36.3358 11.2887 36 10.8746 36H2.25C1.83583 36 1.5 35.6642 1.5 35.25V27.75Z" fill="url(#paint2_linear_3620_16782)"/>
<path d="M1.5 27.75C1.5 27.3358 1.16417 27 0.75 27C0.335829 27 0 27.3358 0 27.75V35.25C0 36.4925 1.00749 37.5 2.25 37.5H10.8746C11.2887 37.5 11.6246 37.1642 11.6246 36.75C11.6246 36.3358 11.2887 36 10.8746 36H2.25C1.83583 36 1.5 35.6642 1.5 35.25V27.75Z" fill="black" fill-opacity="0.2"/>
<path d="M41.9996 27.75C41.9996 27.3358 41.6637 27 41.2496 27C40.8354 27 40.4996 27.3358 40.4996 27.75V35.25C40.4996 35.6642 40.1637 36 39.7496 36H31.125C30.7108 36 30.375 36.3358 30.375 36.75C30.375 37.1642 30.7108 37.5 31.125 37.5H39.7496C40.9921 37.5 41.9996 36.4925 41.9996 35.25V27.75Z" fill="url(#paint3_linear_3620_16782)"/>
<path d="M41.9996 27.75C41.9996 27.3358 41.6637 27 41.2496 27C40.8354 27 40.4996 27.3358 40.4996 27.75V35.25C40.4996 35.6642 40.1637 36 39.7496 36H31.125C30.7108 36 30.375 36.3358 30.375 36.75C30.375 37.1642 30.7108 37.5 31.125 37.5H39.7496C40.9921 37.5 41.9996 36.4925 41.9996 35.25V27.75Z" fill="black" fill-opacity="0.2"/>
<path d="M0.75 18C0.335829 18 0 18.3358 0 18.75C0 19.1642 0.335829 19.5 0.75 19.5H41.25C41.6642 19.5 42 19.1642 42 18.75C42 18.3358 41.6642 18 41.25 18H0.75Z" fill="url(#paint4_linear_3620_16782)"/>
<path d="M0.75 18C0.335829 18 0 18.3358 0 18.75C0 19.1642 0.335829 19.5 0.75 19.5H41.25C41.6642 19.5 42 19.1642 42 18.75C42 18.3358 41.6642 18 41.25 18H0.75Z" fill="black" fill-opacity="0.2"/>
<defs>
<linearGradient id="paint0_linear_3620_16782" x1="5.81229" y1="0" x2="5.81229" y2="10.5" gradientUnits="userSpaceOnUse">
<stop stop-color="#FF0F0F"/>
<stop offset="1" stop-color="#FF4849"/>
</linearGradient>
<linearGradient id="paint1_linear_3620_16782" x1="36.1873" y1="0" x2="36.1873" y2="10.5" gradientUnits="userSpaceOnUse">
<stop stop-color="#FF0F0F"/>
<stop offset="1" stop-color="#FF4849"/>
</linearGradient>
<linearGradient id="paint2_linear_3620_16782" x1="5.81229" y1="27" x2="5.81229" y2="37.5" gradientUnits="userSpaceOnUse">
<stop stop-color="#FF0F0F"/>
<stop offset="1" stop-color="#FF4849"/>
</linearGradient>
<linearGradient id="paint3_linear_3620_16782" x1="36.1873" y1="27" x2="36.1873" y2="37.5" gradientUnits="userSpaceOnUse">
<stop stop-color="#FF0F0F"/>
<stop offset="1" stop-color="#FF4849"/>
</linearGradient>
<linearGradient id="paint4_linear_3620_16782" x1="21" y1="18" x2="21" y2="19.5" gradientUnits="userSpaceOnUse">
<stop stop-color="#FF0F0F"/>
<stop offset="1" stop-color="#FF4849"/>
</linearGradient>
</defs>
</svg>