 <svg width="43" height="43" viewBox="0 0 26 33" fill="none"
                                xmlns="http://www.w3.org/2000/svg">
                                <path fill-rule="evenodd" clip-rule="evenodd"
                                    d="M17.6008 22.4983C17.5135 22.1503 17.3327 21.8295 17.0746 21.5715C16.7001 21.1962 16.1914 20.9855 15.6608 20.9855H9.78539C8.64944 20.9855 7.59207 21.5634 6.97939 22.5195L2.24213 29.9057C1.84749 30.5216 1.82025 31.3037 2.1707 31.9451C2.52137 32.5864 3.19481 32.9857 3.92607 32.9857H5.6415C6.2875 32.9857 6.8935 32.6736 7.26893 32.1484L9.80418 28.5984C9.92941 28.423 10.1314 28.319 10.3468 28.319H15.4941C16.172 28.319 16.8341 28.1123 17.3921 27.7263L23.9858 23.1609C25.0345 22.435 25.6606 21.2404 25.6606 19.9643V19.9623C25.6606 19.275 25.27 18.6471 24.6533 18.3438C24.0372 18.0404 23.3013 18.113 22.7566 18.5324L17.6008 22.4983ZM16.6054 23.2635L16.3273 22.9856C16.3273 22.809 16.2574 22.6389 16.132 22.5141C16.0074 22.3889 15.8374 22.3188 15.6608 22.3188H9.78537C9.10411 22.3188 8.46954 22.6655 8.10143 23.2396L3.3648 30.6253C3.23265 30.8306 3.22395 31.0913 3.34069 31.3054C3.45743 31.5186 3.68199 31.652 3.92595 31.652H5.64138C5.85678 31.652 6.05879 31.548 6.18334 31.3726L8.71951 27.8226C9.09473 27.2974 9.70077 26.9853 10.3468 26.9853H15.4941C15.9015 26.9853 16.2981 26.8612 16.6327 26.63L23.2264 22.0645C23.9159 21.5873 24.3271 20.8027 24.3271 19.9638V19.9618C24.3271 19.7826 24.2251 19.6185 24.0646 19.5393C23.9039 19.4601 23.7119 19.4792 23.57 19.5886L17.0934 24.5706C16.7434 24.8393 16.3148 24.9853 15.874 24.9853H11.6608C11.2927 24.9853 10.9941 24.6866 10.9941 24.3186C10.9941 23.9507 11.2927 23.652 11.6608 23.652H15.6608C16.0287 23.652 16.3273 23.3534 16.3273 22.9853L16.6054 23.2635Z"
                                    fill="url(#paint0_linear_5739_28976)" />
                                <path fill-rule="evenodd" clip-rule="evenodd"
                                    d="M14.3303 0.986328C9.54686 0.986328 5.66406 4.86936 5.66406 9.65261C5.66406 14.4359 9.54709 18.3189 14.3303 18.3189C19.1136 18.3189 22.9966 14.4359 22.9966 9.65261C22.9966 4.86913 19.1136 0.986328 14.3303 0.986328ZM14.3303 2.31913C18.3777 2.31913 21.6641 5.60553 21.6641 9.65284C21.6641 13.7002 18.3779 16.9866 14.3303 16.9866C10.2828 16.9866 6.99663 13.7004 6.99663 9.65284C6.99663 5.6053 10.283 2.31913 14.3303 2.31913Z"
                                    fill="url(#paint1_linear_5739_28976)" />
                                <path fill-rule="evenodd" clip-rule="evenodd"
                                    d="M8.01098 13.3765C7.90562 13.1993 7.72482 13.0799 7.52013 13.054C7.31634 13.0285 7.11098 13.0986 6.96567 13.2439L0.914239 19.2953C0.132754 20.0766 0.132754 21.3433 0.914239 22.1239L1.85687 23.0665C2.63744 23.848 3.90418 23.848 4.68544 23.0665L10.7369 17.0151C10.8822 16.8698 10.9523 16.6644 10.9268 16.4607C10.9009 16.256 10.7815 16.0752 10.6043 15.9698C9.53622 15.3386 8.64223 14.4446 8.01098 13.3765ZM7.33086 14.7644C7.85899 15.4859 8.49561 16.1218 9.21635 16.6499L3.74223 22.1238C3.48219 22.3845 3.06029 22.3845 2.7996 22.1238L1.85698 21.1812C1.59626 20.9205 1.59626 20.4986 1.85698 20.2386L7.33086 14.7644Z"
                                    fill="url(#paint2_linear_5739_28976)" />
                                <path fill-rule="evenodd" clip-rule="evenodd"
                                    d="M10.3281 9.65284V14.3194C10.3281 14.6872 10.6268 14.9859 10.9949 14.9859C11.3629 14.9859 11.6616 14.6872 11.6616 14.3194V9.65284C11.6616 9.28499 11.3629 8.98633 10.9949 8.98633C10.6268 8.98633 10.3281 9.28499 10.3281 9.65284Z"
                                    fill="url(#paint3_linear_5739_28976)" />
                                <path fill-rule="evenodd" clip-rule="evenodd"
                                    d="M13.6602 4.31886V8.9856C13.6602 9.35346 13.9588 9.65212 14.3267 9.65212C14.6948 9.65212 14.9934 9.35345 14.9934 8.9856V4.31886C14.9934 3.951 14.6948 3.65234 14.3267 3.65234C13.9588 3.65234 13.6602 3.95101 13.6602 4.31886Z"
                                    fill="url(#paint4_linear_5739_28976)" />
                                <path fill-rule="evenodd" clip-rule="evenodd"
                                    d="M16.9961 9.65284V14.3194C16.9961 14.6872 17.2948 14.9859 17.6628 14.9859C18.0307 14.9859 18.3294 14.6872 18.3294 14.3194V9.65284C18.3294 9.28499 18.0307 8.98633 17.6628 8.98633C17.2948 8.98633 16.9961 9.28499 16.9961 9.65284Z"
                                    fill="url(#paint5_linear_5739_28976)" />
                                <path fill-rule="evenodd" clip-rule="evenodd"
                                    d="M10.5232 9.18145L8.52321 11.1814C8.26295 11.4417 8.26317 11.864 8.52344 12.1243C8.78348 12.3843 9.20578 12.3846 9.46607 12.1243L11.4661 10.1243C11.7263 9.86403 11.7261 9.44173 11.4661 9.18145C11.2058 8.9214 10.7837 8.92118 10.5232 9.18145Z"
                                    fill="url(#paint6_linear_5739_28976)" />
                                <path fill-rule="evenodd" clip-rule="evenodd"
                                    d="M13.8554 3.84763L11.8554 5.84763C11.5949 6.1079 11.5952 6.52997 11.8554 6.79026C12.1157 7.05053 12.5378 7.05075 12.7981 6.79026L14.7981 4.79026C15.0586 4.52999 15.0583 4.10791 14.7981 3.84763C14.5378 3.58736 14.1157 3.58714 13.8554 3.84763Z"
                                    fill="url(#paint7_linear_5739_28976)" />
                                <path fill-rule="evenodd" clip-rule="evenodd"
                                    d="M17.1913 9.18145L15.1913 11.1814C14.931 11.4417 14.931 11.864 15.1913 12.1243C15.4516 12.3843 15.8736 12.3846 16.1342 12.1243L18.1342 10.1243C18.3944 9.86403 18.3942 9.44173 18.1339 9.18145C17.8739 8.9214 17.4516 8.92118 17.1913 9.18145Z"
                                    fill="url(#paint8_linear_5739_28976)" />
                                <path fill-rule="evenodd" clip-rule="evenodd"
                                    d="M10.5233 10.1243L12.5233 12.1243C12.7836 12.3846 13.2059 12.3843 13.466 12.1243C13.7262 11.864 13.7265 11.4417 13.4662 11.1814L11.4662 9.18145C11.2057 8.92118 10.7836 8.9214 10.5233 9.18145C10.2631 9.44171 10.2631 9.86402 10.5233 10.1243Z"
                                    fill="url(#paint9_linear_5739_28976)" />
                                <path fill-rule="evenodd" clip-rule="evenodd"
                                    d="M13.8592 4.79026L15.8592 6.79026C16.1194 7.05075 16.5418 7.05053 16.802 6.79026C17.0621 6.52999 17.0623 6.10791 16.802 5.84763L14.802 3.84763C14.5418 3.58714 14.1195 3.58736 13.8592 3.84763C13.5991 4.1079 13.5989 4.52997 13.8592 4.79026Z"
                                    fill="url(#paint10_linear_5739_28976)" />
                                <path fill-rule="evenodd" clip-rule="evenodd"
                                    d="M17.1914 10.1243L19.1914 12.1243C19.4516 12.3846 19.8737 12.3843 20.134 12.1243C20.3943 11.864 20.3945 11.4417 20.134 11.1814L18.134 9.18145C17.8737 8.92118 17.4517 8.9214 17.1914 9.18145C16.9311 9.44171 16.9309 9.86402 17.1914 10.1243Z"
                                    fill="url(#paint11_linear_5739_28976)" />
                                <defs>
                                    <linearGradient id="paint0_linear_5739_28976" x1="20.4178" y1="18.1582" x2="20.3754"
                                        y2="36.1633" gradientUnits="userSpaceOnUse">
                                        <stop stop-color="#005CAA" />
                                        <stop offset="1" stop-color="#64B0F1" />
                                    </linearGradient>
                                    <linearGradient id="paint1_linear_5739_28976" x1="19.168" y1="0.986328" x2="19.0886"
                                        y2="22.0332" gradientUnits="userSpaceOnUse">
                                        <stop stop-color="#005CAA" />
                                        <stop offset="1" stop-color="#64B0F1" />
                                    </linearGradient>
                                    <linearGradient id="paint2_linear_5739_28976" x1="8.58967" y1="13.0488" x2="8.54108"
                                        y2="25.925" gradientUnits="userSpaceOnUse">
                                        <stop stop-color="#005CAA" />
                                        <stop offset="1" stop-color="#64B0F1" />
                                    </linearGradient>
                                    <linearGradient id="paint3_linear_5739_28976" x1="11.3671" y1="8.98633" x2="11.2434"
                                        y2="16.2695" gradientUnits="userSpaceOnUse">
                                        <stop stop-color="#005CAA" />
                                        <stop offset="1" stop-color="#64B0F1" />
                                    </linearGradient>
                                    <linearGradient id="paint4_linear_5739_28976" x1="14.6989" y1="3.65234" x2="14.5752"
                                        y2="10.9358" gradientUnits="userSpaceOnUse">
                                        <stop stop-color="#005CAA" />
                                        <stop offset="1" stop-color="#64B0F1" />
                                    </linearGradient>
                                    <linearGradient id="paint5_linear_5739_28976" x1="18.0348" y1="8.98633" x2="17.9112"
                                        y2="16.2695" gradientUnits="userSpaceOnUse">
                                        <stop stop-color="#005CAA" />
                                        <stop offset="1" stop-color="#64B0F1" />
                                    </linearGradient>
                                    <linearGradient id="paint6_linear_5739_28976" x1="10.9249" y1="8.98633" x2="10.9097"
                                        y2="13.0337" gradientUnits="userSpaceOnUse">
                                        <stop stop-color="#005CAA" />
                                        <stop offset="1" stop-color="#64B0F1" />
                                    </linearGradient>
                                    <linearGradient id="paint7_linear_5739_28976" x1="14.2571" y1="3.65234" x2="14.2418"
                                        y2="7.69983" gradientUnits="userSpaceOnUse">
                                        <stop stop-color="#005CAA" />
                                        <stop offset="1" stop-color="#64B0F1" />
                                    </linearGradient>
                                    <linearGradient id="paint8_linear_5739_28976" x1="17.593" y1="8.98633" x2="17.5777"
                                        y2="13.0337" gradientUnits="userSpaceOnUse">
                                        <stop stop-color="#005CAA" />
                                        <stop offset="1" stop-color="#64B0F1" />
                                    </linearGradient>
                                    <linearGradient id="paint9_linear_5739_28976" x1="12.925" y1="8.98633" x2="12.9097"
                                        y2="13.0337" gradientUnits="userSpaceOnUse">
                                        <stop stop-color="#005CAA" />
                                        <stop offset="1" stop-color="#64B0F1" />
                                    </linearGradient>
                                    <linearGradient id="paint10_linear_5739_28976" x1="16.2609" y1="3.65234"
                                        x2="16.2456" y2="7.69983" gradientUnits="userSpaceOnUse">
                                        <stop stop-color="#005CAA" />
                                        <stop offset="1" stop-color="#64B0F1" />
                                    </linearGradient>
                                    <linearGradient id="paint11_linear_5739_28976" x1="19.593" y1="8.98633" x2="19.5777"
                                        y2="13.0337" gradientUnits="userSpaceOnUse">
                                        <stop stop-color="#005CAA" />
                                        <stop offset="1" stop-color="#64B0F1" />
                                    </linearGradient>
                                </defs>
                            </svg>