<svg width="38" height="38" viewBox="0 0 24 30" fill="none" xmlns="http://www.w3.org/2000/svg">
<path d="M12.0014 3.55859C7.66703 3.55859 4.13867 7.08228 4.13867 11.4165C4.13867 15.7508 7.66681 19.2743 12.0014 19.2743C16.336 19.2743 19.8593 15.7506 19.8593 11.4165C19.8593 7.08228 16.3356 3.55859 12.0014 3.55859ZM12.0014 18.4915C8.09539 18.4915 4.92201 15.3179 4.92201 11.4165C4.92201 7.51499 8.10028 4.34139 12.0014 4.34139C15.9028 4.34139 19.0765 7.51499 19.0765 11.4165C19.0765 15.3179 15.9029 18.4915 12.0014 18.4915Z" fill="url(#paint0_linear_3703_35359)"/>
<path d="M12.0014 3.55859C7.66703 3.55859 4.13867 7.08228 4.13867 11.4165C4.13867 15.7508 7.66681 19.2743 12.0014 19.2743C16.336 19.2743 19.8593 15.7506 19.8593 11.4165C19.8593 7.08228 16.3356 3.55859 12.0014 3.55859ZM12.0014 18.4915C8.09539 18.4915 4.92201 15.3179 4.92201 11.4165C4.92201 7.51499 8.10028 4.34139 12.0014 4.34139C15.9028 4.34139 19.0765 7.51499 19.0765 11.4165C19.0765 15.3179 15.9029 18.4915 12.0014 18.4915Z" fill="black" fill-opacity="0.2"/>
<path d="M12.0016 5.56641C8.77272 5.56641 6.14258 8.19183 6.14258 11.4162C6.14258 14.6406 8.768 17.2661 12.0016 17.2661C15.2259 17.2661 17.8515 14.6406 17.8515 11.4162C17.8515 8.18732 15.226 5.56641 12.0016 5.56641ZM12.0016 16.4827C9.2057 16.4827 6.93037 14.2118 6.93037 11.4161C6.93037 8.62486 9.2057 6.34953 12.0016 6.34953C14.7929 6.34953 17.0682 8.62041 17.0682 11.4161C17.0682 14.2074 14.7929 16.4827 12.0016 16.4827Z" fill="url(#paint1_linear_3703_35359)"/>
<path d="M12.0016 5.56641C8.77272 5.56641 6.14258 8.19183 6.14258 11.4162C6.14258 14.6406 8.768 17.2661 12.0016 17.2661C15.2259 17.2661 17.8515 14.6406 17.8515 11.4162C17.8515 8.18732 15.226 5.56641 12.0016 5.56641ZM12.0016 16.4827C9.2057 16.4827 6.93037 14.2118 6.93037 11.4161C6.93037 8.62486 9.2057 6.34953 12.0016 6.34953C14.7929 6.34953 17.0682 8.62041 17.0682 11.4161C17.0682 14.2074 14.7929 16.4827 12.0016 16.4827Z" fill="black" fill-opacity="0.2"/>
<path d="M11.9954 9.28648C12.4744 9.28648 12.8614 9.67793 12.8614 10.1525C12.8614 10.369 13.0364 10.5439 13.2529 10.5439C13.4694 10.5439 13.6443 10.369 13.6443 10.1525C13.6443 9.37871 13.1055 8.72918 12.3868 8.55427V8.17661C12.3868 7.9601 12.2119 7.78516 11.9954 7.78516C11.7789 7.78516 11.6039 7.9601 11.6039 8.17661V8.55427C10.8809 8.72922 10.3418 9.37876 10.3418 10.1525C10.3418 11.0646 11.0833 11.8061 11.9954 11.8061C12.4744 11.8061 12.8614 12.1975 12.8614 12.6721C12.8614 13.1465 12.47 13.5381 11.9954 13.5381C11.5164 13.5381 11.1294 13.1467 11.1294 12.6721C11.1294 12.4556 10.9544 12.2807 10.7379 12.2807C10.5214 12.2807 10.3465 12.4556 10.3465 12.6721C10.3465 13.4459 10.8853 14.0954 11.6086 14.2703V14.648C11.6086 14.8645 11.7836 15.0395 12.0001 15.0395C12.2166 15.0395 12.3915 14.8645 12.3915 14.648V14.2748C13.1146 14.0998 13.649 13.4503 13.649 12.6766C13.649 11.7645 12.9074 11.023 11.9954 11.023C11.5164 11.023 11.1294 10.6315 11.1294 10.1569C11.1294 9.68258 11.5164 9.28648 11.9954 9.28648Z" fill="url(#paint2_linear_3703_35359)"/>
<path d="M11.9954 9.28648C12.4744 9.28648 12.8614 9.67793 12.8614 10.1525C12.8614 10.369 13.0364 10.5439 13.2529 10.5439C13.4694 10.5439 13.6443 10.369 13.6443 10.1525C13.6443 9.37871 13.1055 8.72918 12.3868 8.55427V8.17661C12.3868 7.9601 12.2119 7.78516 11.9954 7.78516C11.7789 7.78516 11.6039 7.9601 11.6039 8.17661V8.55427C10.8809 8.72922 10.3418 9.37876 10.3418 10.1525C10.3418 11.0646 11.0833 11.8061 11.9954 11.8061C12.4744 11.8061 12.8614 12.1975 12.8614 12.6721C12.8614 13.1465 12.47 13.5381 11.9954 13.5381C11.5164 13.5381 11.1294 13.1467 11.1294 12.6721C11.1294 12.4556 10.9544 12.2807 10.7379 12.2807C10.5214 12.2807 10.3465 12.4556 10.3465 12.6721C10.3465 13.4459 10.8853 14.0954 11.6086 14.2703V14.648C11.6086 14.8645 11.7836 15.0395 12.0001 15.0395C12.2166 15.0395 12.3915 14.8645 12.3915 14.648V14.2748C13.1146 14.0998 13.649 13.4503 13.649 12.6766C13.649 11.7645 12.9074 11.023 11.9954 11.023C11.5164 11.023 11.1294 10.6315 11.1294 10.1569C11.1294 9.68258 11.5164 9.28648 11.9954 9.28648Z" fill="black" fill-opacity="0.2"/>
<path d="M18.8863 18.9788C18.9692 18.8177 19.0521 18.6932 19.1397 18.6058C19.3608 18.3847 19.7476 18.2328 20.1531 18.0761C20.7472 17.8458 21.3645 17.6062 21.6822 17.0536C21.9954 16.5101 21.8987 15.8652 21.802 15.2388C21.7375 14.8243 21.6731 14.3913 21.756 14.078C21.8342 13.7879 22.0877 13.4701 22.3548 13.1384C22.7418 12.6594 23.1793 12.1112 23.1793 11.4617C23.1793 10.8077 22.7416 10.264 22.3548 9.78495C22.0876 9.4533 21.8344 9.14009 21.756 8.84999C21.6731 8.53679 21.7375 8.10845 21.802 7.6892C21.8987 7.0628 21.9954 6.41327 21.6822 5.86976C21.3643 5.31691 20.7472 5.07751 20.1531 4.84723C19.7479 4.69053 19.3655 4.5387 19.1443 4.31752C18.9232 4.09635 18.7713 3.71425 18.6146 3.30879C18.3843 2.71463 18.1447 2.09735 17.5921 1.775C17.0486 1.4618 16.4037 1.56316 15.7773 1.65519C15.3628 1.71965 14.9298 1.78412 14.6165 1.70121C14.3265 1.62296 14.0086 1.36955 13.6769 1.10238C13.1932 0.711143 12.6451 0.273438 11.9955 0.273438C11.3415 0.273438 10.7979 0.711116 10.3188 1.09793C9.98715 1.36512 9.67394 1.61831 9.38384 1.69675C9.07064 1.77967 8.6423 1.7152 8.22305 1.65074C7.59665 1.55405 6.94712 1.45735 6.40361 1.77055C5.85076 2.08842 5.61136 2.70551 5.38108 3.29967C5.22438 3.7049 5.07254 4.08724 4.85137 4.31307C4.6302 4.53424 4.2481 4.68608 3.84264 4.84278C3.24848 5.07307 2.6312 5.31269 2.31352 5.86531C2.00031 6.40882 2.09701 7.05835 2.19371 7.68475C2.25817 8.09931 2.32264 8.53231 2.23972 8.84554C2.16148 9.13563 1.90807 9.44882 1.6409 9.7805C1.2539 10.2595 0.816406 10.8077 0.816406 11.4572C0.816406 12.1112 1.25409 12.6549 1.6409 13.1339C1.90809 13.4656 2.16128 13.7788 2.23972 14.0736C2.32263 14.3868 2.25817 14.8151 2.19371 15.2344C2.09701 15.8608 2.00031 16.5103 2.31352 17.0538C2.63139 17.6067 3.24848 17.8461 3.8473 18.0763C4.25254 18.233 4.63488 18.3849 4.85604 18.606C4.9574 18.7074 5.04944 18.8501 5.14613 19.0482C5.23371 19.2278 5.31196 19.4258 5.38576 19.6193C5.61605 20.2134 5.86012 20.8307 6.40828 21.1484C6.95179 21.4616 7.59665 21.3649 8.22305 21.2682C8.63762 21.2037 9.07062 21.1393 9.37918 21.2222C9.50811 21.2591 9.6417 21.3282 9.77063 21.4111L6.32538 28.5139L5.10482 26.3214C5.02658 26.1787 4.86075 26.0958 4.69959 26.1234L2.22156 26.5241L4.8194 21.1766C4.91609 20.9832 4.83318 20.7482 4.63979 20.6515C4.4464 20.5548 4.21144 20.6377 4.11474 20.8311L1.18055 26.8552C1.11587 26.9888 1.12987 27.1455 1.21723 27.2607C1.30481 27.3758 1.44752 27.4356 1.5949 27.4127L4.54734 26.9383L6.00284 29.55C6.07197 29.6742 6.20557 29.7527 6.34361 29.7527H6.35273C6.5001 29.748 6.62903 29.6651 6.6935 29.5315L10.4015 21.8903C10.8621 22.2588 11.378 22.6456 11.9906 22.6456C12.6446 22.6456 13.1927 22.2079 13.6718 21.8165C13.7685 21.7383 13.8607 21.6645 13.9574 21.5909C14.1417 21.4482 14.3811 21.2823 14.6023 21.2223C14.9155 21.1394 15.3485 21.2039 15.7631 21.2683C16.3895 21.365 17.039 21.4617 17.5778 21.1485C18.0337 20.886 18.2733 20.4208 18.4761 19.9326L21.7557 26.5191L19.2868 26.123C19.1256 26.0954 18.9598 26.1737 18.8816 26.3211L17.661 28.5135L14.9251 22.8754C14.916 22.8063 14.8882 22.7371 14.8375 22.6773C14.7039 22.5068 14.4414 22.4884 14.2709 22.622C14.1282 22.7371 14.082 22.9352 14.1604 23.101L17.2786 29.5312C17.3431 29.6648 17.472 29.7477 17.6194 29.7523H17.6285C17.7712 29.7523 17.9004 29.6741 17.9693 29.5496L19.4248 26.938L22.3728 27.4123C22.5155 27.4355 22.6629 27.3754 22.7505 27.2556C22.838 27.1358 22.8518 26.9793 22.7873 26.8504L18.8863 18.9788ZM17.8822 19.3289C17.6888 19.8217 17.5092 20.287 17.196 20.4666C16.8919 20.6415 16.4037 20.568 15.8878 20.4897C15.3903 20.4159 14.8791 20.3377 14.4047 20.4621C14.0499 20.5588 13.7414 20.7707 13.4835 20.9643C13.3822 21.0425 13.2808 21.121 13.1841 21.2039C12.7649 21.5402 12.3688 21.8579 11.9911 21.8579C11.6134 21.8579 11.222 21.54 10.8027 21.2039C10.7014 21.121 10.6 21.0427 10.4986 20.9643C10.2408 20.7662 9.92755 20.5544 9.57746 20.4621C9.39785 20.4161 9.2089 20.3977 9.02016 20.3977C8.71607 20.3977 8.40288 20.4437 8.09898 20.4897C7.58306 20.568 7.09492 20.6418 6.79081 20.4666C6.47761 20.287 6.298 19.8217 6.10458 19.3336C6.02167 19.1171 5.93409 18.9006 5.83739 18.7072C5.70846 18.4309 5.56554 18.219 5.39526 18.0532C5.0545 17.7124 4.57544 17.5282 4.11488 17.3486C3.62207 17.1552 3.15684 16.9756 2.97721 16.6624C2.80227 16.3583 2.87585 15.8701 2.9541 15.3542C3.0279 14.8567 3.10614 14.3454 2.98167 13.8755C2.86186 13.4241 2.54399 13.028 2.23546 12.6503C1.89914 12.2358 1.58593 11.8396 1.58593 11.462C1.58593 11.0843 1.9038 10.6928 2.23546 10.2783C2.54399 9.89592 2.85719 9.50447 2.98167 9.05302C3.10593 8.58312 3.02768 8.06741 2.9541 7.57439C2.87585 7.05846 2.80206 6.57032 2.97721 6.26621C3.15682 5.95301 3.62207 5.7734 4.11021 5.57999C4.57546 5.40038 5.05451 5.21144 5.39059 4.87536C5.73136 4.53459 5.91564 4.05554 6.09522 3.59498C6.28862 3.10216 6.46823 2.63694 6.78145 2.45731C7.08554 2.28236 7.57369 2.35595 8.08963 2.4342C8.58711 2.50799 9.09836 2.58624 9.57271 2.46176C10.0242 2.34195 10.4156 2.02408 10.7979 1.71555C11.2263 1.37436 11.6178 1.05669 11.9954 1.05669C12.3731 1.05669 12.7645 1.37456 13.1838 1.70621C13.5661 2.01475 13.9576 2.32795 14.4137 2.45243C14.8836 2.57669 15.3993 2.49844 15.8968 2.42486C16.4127 2.34661 16.9009 2.27282 17.205 2.44797C17.5182 2.62758 17.6978 3.09283 17.8912 3.58564C18.0708 4.05088 18.2597 4.52994 18.5958 4.86602C18.9321 5.20679 19.4112 5.39107 19.8762 5.57065C20.369 5.76404 20.8296 5.94365 21.0139 6.25688C21.1888 6.56096 21.1152 7.04912 21.037 7.56505C20.9632 8.06253 20.8849 8.57379 21.0094 9.04369C21.1292 9.49515 21.4471 9.88658 21.751 10.2689C22.0873 10.6835 22.4005 11.0796 22.4005 11.4526C22.4005 11.8303 22.0826 12.2217 21.751 12.6363C21.4424 13.0187 21.1292 13.4101 21.0047 13.8662C20.8805 14.3361 20.9587 14.8518 21.0323 15.3493C21.1106 15.8652 21.1843 16.3534 21.0092 16.6575C20.8296 16.9707 20.3643 17.1503 19.8715 17.3437C19.4063 17.5233 18.9272 17.7123 18.5911 18.0483C18.4253 18.2142 18.2871 18.4213 18.149 18.7023C18.0479 18.9006 17.965 19.1124 17.882 19.3289L17.8822 19.3289Z" fill="url(#paint3_linear_3703_35359)"/>
<path d="M18.8863 18.9788C18.9692 18.8177 19.0521 18.6932 19.1397 18.6058C19.3608 18.3847 19.7476 18.2328 20.1531 18.0761C20.7472 17.8458 21.3645 17.6062 21.6822 17.0536C21.9954 16.5101 21.8987 15.8652 21.802 15.2388C21.7375 14.8243 21.6731 14.3913 21.756 14.078C21.8342 13.7879 22.0877 13.4701 22.3548 13.1384C22.7418 12.6594 23.1793 12.1112 23.1793 11.4617C23.1793 10.8077 22.7416 10.264 22.3548 9.78495C22.0876 9.4533 21.8344 9.14009 21.756 8.84999C21.6731 8.53679 21.7375 8.10845 21.802 7.6892C21.8987 7.0628 21.9954 6.41327 21.6822 5.86976C21.3643 5.31691 20.7472 5.07751 20.1531 4.84723C19.7479 4.69053 19.3655 4.5387 19.1443 4.31752C18.9232 4.09635 18.7713 3.71425 18.6146 3.30879C18.3843 2.71463 18.1447 2.09735 17.5921 1.775C17.0486 1.4618 16.4037 1.56316 15.7773 1.65519C15.3628 1.71965 14.9298 1.78412 14.6165 1.70121C14.3265 1.62296 14.0086 1.36955 13.6769 1.10238C13.1932 0.711143 12.6451 0.273438 11.9955 0.273438C11.3415 0.273438 10.7979 0.711116 10.3188 1.09793C9.98715 1.36512 9.67394 1.61831 9.38384 1.69675C9.07064 1.77967 8.6423 1.7152 8.22305 1.65074C7.59665 1.55405 6.94712 1.45735 6.40361 1.77055C5.85076 2.08842 5.61136 2.70551 5.38108 3.29967C5.22438 3.7049 5.07254 4.08724 4.85137 4.31307C4.6302 4.53424 4.2481 4.68608 3.84264 4.84278C3.24848 5.07307 2.6312 5.31269 2.31352 5.86531C2.00031 6.40882 2.09701 7.05835 2.19371 7.68475C2.25817 8.09931 2.32264 8.53231 2.23972 8.84554C2.16148 9.13563 1.90807 9.44882 1.6409 9.7805C1.2539 10.2595 0.816406 10.8077 0.816406 11.4572C0.816406 12.1112 1.25409 12.6549 1.6409 13.1339C1.90809 13.4656 2.16128 13.7788 2.23972 14.0736C2.32263 14.3868 2.25817 14.8151 2.19371 15.2344C2.09701 15.8608 2.00031 16.5103 2.31352 17.0538C2.63139 17.6067 3.24848 17.8461 3.8473 18.0763C4.25254 18.233 4.63488 18.3849 4.85604 18.606C4.9574 18.7074 5.04944 18.8501 5.14613 19.0482C5.23371 19.2278 5.31196 19.4258 5.38576 19.6193C5.61605 20.2134 5.86012 20.8307 6.40828 21.1484C6.95179 21.4616 7.59665 21.3649 8.22305 21.2682C8.63762 21.2037 9.07062 21.1393 9.37918 21.2222C9.50811 21.2591 9.6417 21.3282 9.77063 21.4111L6.32538 28.5139L5.10482 26.3214C5.02658 26.1787 4.86075 26.0958 4.69959 26.1234L2.22156 26.5241L4.8194 21.1766C4.91609 20.9832 4.83318 20.7482 4.63979 20.6515C4.4464 20.5548 4.21144 20.6377 4.11474 20.8311L1.18055 26.8552C1.11587 26.9888 1.12987 27.1455 1.21723 27.2607C1.30481 27.3758 1.44752 27.4356 1.5949 27.4127L4.54734 26.9383L6.00284 29.55C6.07197 29.6742 6.20557 29.7527 6.34361 29.7527H6.35273C6.5001 29.748 6.62903 29.6651 6.6935 29.5315L10.4015 21.8903C10.8621 22.2588 11.378 22.6456 11.9906 22.6456C12.6446 22.6456 13.1927 22.2079 13.6718 21.8165C13.7685 21.7383 13.8607 21.6645 13.9574 21.5909C14.1417 21.4482 14.3811 21.2823 14.6023 21.2223C14.9155 21.1394 15.3485 21.2039 15.7631 21.2683C16.3895 21.365 17.039 21.4617 17.5778 21.1485C18.0337 20.886 18.2733 20.4208 18.4761 19.9326L21.7557 26.5191L19.2868 26.123C19.1256 26.0954 18.9598 26.1737 18.8816 26.3211L17.661 28.5135L14.9251 22.8754C14.916 22.8063 14.8882 22.7371 14.8375 22.6773C14.7039 22.5068 14.4414 22.4884 14.2709 22.622C14.1282 22.7371 14.082 22.9352 14.1604 23.101L17.2786 29.5312C17.3431 29.6648 17.472 29.7477 17.6194 29.7523H17.6285C17.7712 29.7523 17.9004 29.6741 17.9693 29.5496L19.4248 26.938L22.3728 27.4123C22.5155 27.4355 22.6629 27.3754 22.7505 27.2556C22.838 27.1358 22.8518 26.9793 22.7873 26.8504L18.8863 18.9788ZM17.8822 19.3289C17.6888 19.8217 17.5092 20.287 17.196 20.4666C16.8919 20.6415 16.4037 20.568 15.8878 20.4897C15.3903 20.4159 14.8791 20.3377 14.4047 20.4621C14.0499 20.5588 13.7414 20.7707 13.4835 20.9643C13.3822 21.0425 13.2808 21.121 13.1841 21.2039C12.7649 21.5402 12.3688 21.8579 11.9911 21.8579C11.6134 21.8579 11.222 21.54 10.8027 21.2039C10.7014 21.121 10.6 21.0427 10.4986 20.9643C10.2408 20.7662 9.92755 20.5544 9.57746 20.4621C9.39785 20.4161 9.2089 20.3977 9.02016 20.3977C8.71607 20.3977 8.40288 20.4437 8.09898 20.4897C7.58306 20.568 7.09492 20.6418 6.79081 20.4666C6.47761 20.287 6.298 19.8217 6.10458 19.3336C6.02167 19.1171 5.93409 18.9006 5.83739 18.7072C5.70846 18.4309 5.56554 18.219 5.39526 18.0532C5.0545 17.7124 4.57544 17.5282 4.11488 17.3486C3.62207 17.1552 3.15684 16.9756 2.97721 16.6624C2.80227 16.3583 2.87585 15.8701 2.9541 15.3542C3.0279 14.8567 3.10614 14.3454 2.98167 13.8755C2.86186 13.4241 2.54399 13.028 2.23546 12.6503C1.89914 12.2358 1.58593 11.8396 1.58593 11.462C1.58593 11.0843 1.9038 10.6928 2.23546 10.2783C2.54399 9.89592 2.85719 9.50447 2.98167 9.05302C3.10593 8.58312 3.02768 8.06741 2.9541 7.57439C2.87585 7.05846 2.80206 6.57032 2.97721 6.26621C3.15682 5.95301 3.62207 5.7734 4.11021 5.57999C4.57546 5.40038 5.05451 5.21144 5.39059 4.87536C5.73136 4.53459 5.91564 4.05554 6.09522 3.59498C6.28862 3.10216 6.46823 2.63694 6.78145 2.45731C7.08554 2.28236 7.57369 2.35595 8.08963 2.4342C8.58711 2.50799 9.09836 2.58624 9.57271 2.46176C10.0242 2.34195 10.4156 2.02408 10.7979 1.71555C11.2263 1.37436 11.6178 1.05669 11.9954 1.05669C12.3731 1.05669 12.7645 1.37456 13.1838 1.70621C13.5661 2.01475 13.9576 2.32795 14.4137 2.45243C14.8836 2.57669 15.3993 2.49844 15.8968 2.42486C16.4127 2.34661 16.9009 2.27282 17.205 2.44797C17.5182 2.62758 17.6978 3.09283 17.8912 3.58564C18.0708 4.05088 18.2597 4.52994 18.5958 4.86602C18.9321 5.20679 19.4112 5.39107 19.8762 5.57065C20.369 5.76404 20.8296 5.94365 21.0139 6.25688C21.1888 6.56096 21.1152 7.04912 21.037 7.56505C20.9632 8.06253 20.8849 8.57379 21.0094 9.04369C21.1292 9.49515 21.4471 9.88658 21.751 10.2689C22.0873 10.6835 22.4005 11.0796 22.4005 11.4526C22.4005 11.8303 22.0826 12.2217 21.751 12.6363C21.4424 13.0187 21.1292 13.4101 21.0047 13.8662C20.8805 14.3361 20.9587 14.8518 21.0323 15.3493C21.1106 15.8652 21.1843 16.3534 21.0092 16.6575C20.8296 16.9707 20.3643 17.1503 19.8715 17.3437C19.4063 17.5233 18.9272 17.7123 18.5911 18.0483C18.4253 18.2142 18.2871 18.4213 18.149 18.7023C18.0479 18.9006 17.965 19.1124 17.882 19.3289L17.8822 19.3289Z" fill="black" fill-opacity="0.2"/>
<defs>
<linearGradient id="paint0_linear_3703_35359" x1="11.999" y1="3.55859" x2="11.999" y2="19.2743" gradientUnits="userSpaceOnUse">
<stop stop-color="#FF0F0F"/>
<stop offset="1" stop-color="#FF4849"/>
</linearGradient>
<linearGradient id="paint1_linear_3703_35359" x1="11.997" y1="5.56641" x2="11.997" y2="17.2661" gradientUnits="userSpaceOnUse">
<stop stop-color="#FF0F0F"/>
<stop offset="1" stop-color="#FF4849"/>
</linearGradient>
<linearGradient id="paint2_linear_3703_35359" x1="11.9954" y1="7.78516" x2="11.9954" y2="15.0395" gradientUnits="userSpaceOnUse">
<stop stop-color="#FF0F0F"/>
<stop offset="1" stop-color="#FF4849"/>
</linearGradient>
<linearGradient id="paint3_linear_3703_35359" x1="11.9979" y1="0.273437" x2="11.9979" y2="29.7527" gradientUnits="userSpaceOnUse">
<stop stop-color="#FF0F0F"/>
<stop offset="1" stop-color="#FF4849"/>
</linearGradient>
</defs>
</svg>