<svg width="38" height="38" viewBox="0 0 33 37" fill="none" xmlns="http://www.w3.org/2000/svg">
<path d="M1.57943 0.385597C1.00031 0.683937 0.684421 0.999821 0.403633 1.57895L0 2.35112V18.2507V34.1504L0.403633 34.9225C0.684421 35.5017 1.00031 35.8176 1.57943 36.1159L2.36915 36.5195L11.4948 36.4669C20.6028 36.4142 20.6204 36.4142 21.1644 36.0282C22.428 35.1156 22.3753 35.5543 22.3753 26.6042C22.3753 19.1282 22.3578 18.5315 22.077 18.356C21.8488 18.2157 21.6733 18.2157 21.4627 18.356C21.1644 18.5315 21.1469 19.1809 21.0591 26.4814L20.9714 34.4312L20.5502 34.7646C20.1641 35.0805 19.7429 35.098 11.1964 35.098H2.26385L1.84267 34.6593L1.40394 34.2381V18.2507V2.26337L1.84267 1.84219L2.26385 1.40345H11.1964C19.7429 1.40345 20.1641 1.42101 20.5502 1.73689C20.9538 2.05278 20.9714 2.19317 21.0591 4.75537C21.1293 7.03677 21.182 7.4404 21.4627 7.61589C21.6733 7.75629 21.8488 7.75629 22.077 7.61589C22.3402 7.4404 22.3753 7.07187 22.428 4.89576C22.4631 2.56171 22.4455 2.31602 22.077 1.57895C21.7786 0.999821 21.4627 0.683937 20.8836 0.385597C20.1115 -0.000484467 20.0939 -0.000484467 11.2315 -0.000484467C2.36915 -0.000484467 2.3516 -0.000484467 1.57943 0.385597Z" fill="url(#paint0_linear_4063_27956)"/>
<path d="M10.036 2.31799C9.75522 2.59878 9.77277 3.07261 10.0711 3.3183C10.4572 3.65173 12.2823 3.49379 12.528 3.10771C12.6684 2.89711 12.6684 2.72162 12.528 2.49348C12.2823 2.12495 10.387 1.967 10.036 2.31799Z" fill="url(#paint1_linear_4063_27956)"/>
<path d="M30.0448 4.42275C29.922 4.54559 29.8342 5.12472 29.8342 5.82669C29.8342 6.86209 29.7991 7.02004 29.5183 7.02004C28.8514 7.02004 28.7812 7.33592 28.7812 10.5299C28.7812 13.7063 28.8514 14.0397 29.5008 14.0397C29.7289 14.0397 29.8342 14.1977 29.8693 14.5838C29.9044 14.8997 30.0623 15.2331 30.2378 15.3384C30.6766 15.6192 31.1329 15.2682 31.203 14.5838C31.2381 14.1977 31.3434 14.0397 31.5716 14.0397C32.2209 14.0397 32.2911 13.7063 32.2911 10.5299C32.2911 7.33592 32.2209 7.02004 31.554 7.02004C31.2732 7.02004 31.2381 6.86209 31.2381 5.82669C31.2381 4.61579 31.0627 4.21216 30.5362 4.21216C30.3782 4.21216 30.1676 4.2999 30.0448 4.42275ZM30.8872 10.5299C30.8872 12.513 30.8696 12.6358 30.5362 12.6358C30.2027 12.6358 30.1852 12.513 30.1852 10.5299C30.1852 8.54682 30.2027 8.42398 30.5362 8.42398C30.8696 8.42398 30.8872 8.54682 30.8872 10.5299Z" fill="url(#paint2_linear_4063_27956)"/>
<path d="M20.2167 8.63389C20.0938 8.75673 20.0061 9.07262 20.0061 9.33586C20.0061 9.68684 19.9183 9.82724 19.6902 9.82724C19.0409 9.82724 18.9531 10.1782 18.9531 12.6351C18.9531 15.092 19.0409 15.443 19.6726 15.443C19.9183 15.443 20.0061 15.6185 20.0412 16.338C20.1465 18.0227 21.2696 18.0227 21.3749 16.338C21.41 15.6185 21.4978 15.443 21.7435 15.443C22.3752 15.443 22.463 15.092 22.463 12.6351C22.463 10.1782 22.3752 9.82724 21.7259 9.82724C21.4978 9.82724 21.41 9.68684 21.41 9.33586C21.41 8.79183 21.1292 8.4233 20.7081 8.4233C20.5501 8.4233 20.3395 8.51104 20.2167 8.63389ZM21.059 12.6351C21.059 13.9162 21.0239 14.0391 20.7081 14.0391C20.3922 14.0391 20.3571 13.9162 20.3571 12.6351C20.3571 11.354 20.3922 11.2312 20.7081 11.2312C21.0239 11.2312 21.059 11.354 21.059 12.6351Z" fill="url(#paint3_linear_4063_27956)"/>
<path d="M25.1307 10.0381C25.0079 10.1609 24.9201 10.6347 24.9201 11.091C24.9201 11.793 24.8675 11.9334 24.6043 11.9334C23.99 11.9334 23.8672 12.3019 23.8672 14.0393C23.8672 15.7767 23.99 16.1452 24.5867 16.1452C24.8148 16.1452 24.9201 16.3032 24.9552 16.6892C24.9903 17.0051 25.1483 17.3386 25.3238 17.4439C25.7625 17.7246 26.2188 17.3737 26.289 16.6892C26.3241 16.3032 26.4294 16.1452 26.6575 16.1452C27.2542 16.1452 27.377 15.7767 27.377 14.0393C27.377 12.3019 27.2542 11.9334 26.64 11.9334C26.3767 11.9334 26.3241 11.793 26.3241 11.091C26.3241 10.2136 26.1135 9.82748 25.6221 9.82748C25.4642 9.82748 25.2536 9.91522 25.1307 10.0381ZM25.9731 14.0393C25.9731 14.6184 25.9205 14.7413 25.6221 14.7413C25.3238 14.7413 25.2711 14.6184 25.2711 14.0393C25.2711 13.4602 25.3238 13.3373 25.6221 13.3373C25.9205 13.3373 25.9731 13.4602 25.9731 14.0393Z" fill="url(#paint4_linear_4063_27956)"/>
<path d="M15.3104 11.4424C15.1876 11.5652 15.0998 11.8811 15.0998 12.1444C15.0998 12.4954 15.0121 12.6357 14.7839 12.6357C14.1522 12.6357 14.0469 12.9867 14.0469 15.0926C14.0469 17.181 14.1522 17.5495 14.7839 17.5495C15.0296 17.5495 15.0998 17.7426 15.1349 18.7955C15.17 19.7607 15.2578 20.0942 15.5035 20.2521C15.7141 20.3925 15.8895 20.3925 16.1177 20.2521C16.3458 20.0942 16.4336 19.7607 16.4687 18.7955C16.5038 17.7426 16.574 17.5495 16.8197 17.5495C17.4514 17.5495 17.5567 17.181 17.5567 15.0926C17.5567 12.9867 17.4514 12.6357 16.8197 12.6357C16.5915 12.6357 16.5038 12.4954 16.5038 12.1444C16.5038 11.6003 16.223 11.2318 15.8018 11.2318C15.6439 11.2318 15.4333 11.3196 15.3104 11.4424ZM16.1528 15.0926C16.1528 16.0228 16.1177 16.1456 15.8018 16.1456C15.4859 16.1456 15.4508 16.0228 15.4508 15.0926C15.4508 14.1625 15.4859 14.0397 15.8018 14.0397C16.1177 14.0397 16.1528 14.1625 16.1528 15.0926Z" fill="url(#paint5_linear_4063_27956)"/>
<path d="M10.5802 16.3562C10.001 16.637 9.7378 17.4267 10.001 18.0761C10.1239 18.3568 10.2818 18.6025 10.3696 18.6025C10.4573 18.6025 10.5275 18.9886 10.5275 19.4624V20.3048L9.26397 20.3926C7.77228 20.4979 6.80707 20.919 5.99981 21.8316C5.68392 22.1826 5.28029 22.4634 5.0697 22.4634C4.47302 22.4634 3.50781 23.5514 3.50781 24.2183C3.50781 24.6219 3.68331 24.9378 4.10449 25.3765C4.43792 25.71 4.82401 25.9732 4.9644 25.9732C5.12234 25.9732 5.29784 26.1312 5.35049 26.3418C5.54353 26.9209 6.49119 27.8861 7.26335 28.3073C7.93023 28.6583 8.22856 28.6934 11.2295 28.6934C14.2304 28.6934 14.5287 28.6583 15.1956 28.3073C15.9678 27.8861 16.9155 26.9209 17.1085 26.3418C17.1611 26.1312 17.3366 25.9732 17.4946 25.9732C17.635 25.9732 18.0211 25.71 18.3545 25.3765C19.1618 24.5693 19.1618 23.8673 18.3545 23.06C18.0211 22.7266 17.5823 22.4634 17.3893 22.4634C17.1787 22.4634 16.7751 22.1826 16.4592 21.8316C15.6519 20.919 14.6867 20.4979 13.2126 20.3926L11.9315 20.3048V19.4624C11.9315 18.9886 12.0017 18.6025 12.0894 18.6025C12.1771 18.6025 12.3351 18.3568 12.4579 18.0761C12.7387 17.4092 12.4579 16.637 11.8262 16.3387C11.2997 16.1105 11.0891 16.1105 10.5802 16.3562ZM14.8446 22.2177C15.7747 22.9021 16.0555 23.4637 16.0555 24.5693C16.0555 25.6749 15.7747 26.2365 14.8446 26.9209C14.4235 27.2543 14.0725 27.2894 11.6156 27.3421C8.4567 27.4123 7.80738 27.2894 7.03521 26.412C6.12265 25.3765 6.08755 23.8322 6.96502 22.7968C7.77228 21.8491 8.19347 21.7614 11.4401 21.814C14.0725 21.8491 14.4059 21.8842 14.8446 22.2177Z" fill="url(#paint6_linear_4063_27956)"/>
<path d="M8.61139 23.4109C8.27796 23.797 8.4359 25.6221 8.82198 25.8678C9.38356 26.2188 9.73454 25.7976 9.78719 24.6744C9.83984 23.6039 9.6468 23.1652 9.12032 23.1652C8.94483 23.1652 8.71669 23.2705 8.61139 23.4109Z" fill="url(#paint7_linear_4063_27956)"/>
<path d="M12.8301 23.4109C12.4967 23.797 12.6546 25.6221 13.0407 25.8678C13.6023 26.2188 13.9533 25.7976 14.0059 24.6744C14.0586 23.6039 13.8655 23.1652 13.3391 23.1652C13.1636 23.1652 12.9354 23.2705 12.8301 23.4109Z" fill="url(#paint8_linear_4063_27956)"/>
<path d="M2.31726 30.3942C2.03647 30.675 2.05402 31.1488 2.35236 31.3945C2.5103 31.5349 5.01985 31.57 11.32 31.5525C19.4278 31.4998 20.0771 31.4823 20.2526 31.1839C20.393 30.9733 20.393 30.7979 20.2526 30.5697C20.0771 30.2889 19.4278 30.2714 11.3025 30.2187C4.61621 30.1836 2.4752 30.2363 2.31726 30.3942Z" fill="url(#paint9_linear_4063_27956)"/>
<path d="M10.0387 32.5012C9.91587 32.624 9.82812 32.9925 9.82812 33.3435C9.82812 34.2034 10.0914 34.3965 11.2321 34.3965C12.3728 34.3965 12.636 34.2034 12.636 33.3435C12.636 32.4836 12.3728 32.2906 11.2321 32.2906C10.688 32.2906 10.1616 32.3783 10.0387 32.5012Z" fill="url(#paint10_linear_4063_27956)"/>
<defs>
<linearGradient id="paint0_linear_4063_27956" x1="17.4835" y1="36.5195" x2="17.2112" y2="-7.82547" gradientUnits="userSpaceOnUse">
<stop stop-color="#005CAA"/>
<stop offset="1" stop-color="#64B0F1"/>
</linearGradient>
<linearGradient id="paint1_linear_4063_27956" x1="12.0154" y1="3.5" x2="12.0123" y2="1.82652" gradientUnits="userSpaceOnUse">
<stop stop-color="#005CAA"/>
<stop offset="1" stop-color="#64B0F1"/>
</linearGradient>
<linearGradient id="paint2_linear_4063_27956" x1="31.5158" y1="15.4355" x2="31.3514" y2="1.80884" gradientUnits="userSpaceOnUse">
<stop stop-color="#005CAA"/>
<stop offset="1" stop-color="#64B0F1"/>
</linearGradient>
<linearGradient id="paint3_linear_4063_27956" x1="21.6877" y1="17.6016" x2="21.5777" y2="6.45738" gradientUnits="userSpaceOnUse">
<stop stop-color="#005CAA"/>
<stop offset="1" stop-color="#64B0F1"/>
</linearGradient>
<linearGradient id="paint4_linear_4063_27956" x1="26.6017" y1="17.541" x2="26.5241" y2="8.17502" gradientUnits="userSpaceOnUse">
<stop stop-color="#005CAA"/>
<stop offset="1" stop-color="#64B0F1"/>
</linearGradient>
<linearGradient id="paint5_linear_4063_27956" x1="16.7814" y1="20.3574" x2="16.6727" y2="9.27715" gradientUnits="userSpaceOnUse">
<stop stop-color="#005CAA"/>
<stop offset="1" stop-color="#64B0F1"/>
</linearGradient>
<linearGradient id="paint6_linear_4063_27956" x1="15.5467" y1="28.6934" x2="15.5002" y2="13.4859" gradientUnits="userSpaceOnUse">
<stop stop-color="#005CAA"/>
<stop offset="1" stop-color="#64B0F1"/>
</linearGradient>
<linearGradient id="paint7_linear_4063_27956" x1="9.49384" y1="25.9883" x2="9.46711" y2="22.5604" gradientUnits="userSpaceOnUse">
<stop stop-color="#005CAA"/>
<stop offset="1" stop-color="#64B0F1"/>
</linearGradient>
<linearGradient id="paint8_linear_4063_27956" x1="13.7126" y1="25.9883" x2="13.6859" y2="22.5604" gradientUnits="userSpaceOnUse">
<stop stop-color="#005CAA"/>
<stop offset="1" stop-color="#64B0F1"/>
</linearGradient>
<linearGradient id="paint9_linear_4063_27956" x1="16.3287" y1="31.5566" x2="16.3282" y2="29.9194" gradientUnits="userSpaceOnUse">
<stop stop-color="#005CAA"/>
<stop offset="1" stop-color="#64B0F1"/>
</linearGradient>
<linearGradient id="paint10_linear_4063_27956" x1="12.0158" y1="34.3965" x2="12.0085" y2="31.8393" gradientUnits="userSpaceOnUse">
<stop stop-color="#005CAA"/>
<stop offset="1" stop-color="#64B0F1"/>
</linearGradient>
</defs>
</svg>