<svg width="38" height="38" viewBox="0 0 31 37" fill="none" xmlns="http://www.w3.org/2000/svg">
<path d="M28.9294 26.4011L17.2225 21.2937C16.6312 20.9632 15.9338 20.8789 15.2809 21.0583C14.6277 21.2381 14.0716 21.6674 13.7327 22.2536C13.3932 22.8476 13.3035 23.552 13.4836 24.212C13.6638 24.872 14.0987 25.4331 14.693 25.7723L17.165 27.2124L12.7825 27.5147L8.63041 20.3338C8.28622 19.7392 7.71704 19.3082 7.05138 19.1385C6.89402 19.0967 6.7333 19.0679 6.57124 19.0521C6.44669 19.0451 6.32146 19.0451 6.19691 19.0521C6.1554 19.0475 6.11354 19.0475 6.07203 19.0521C5.96321 19.0689 5.85574 19.093 5.7506 19.1241C5.6977 19.1241 5.6401 19.1241 5.58252 19.1626C5.52493 19.2011 5.41947 19.2346 5.33308 19.2731L5.13151 19.3642H5.13117C4.4632 19.1174 3.72255 19.1593 3.08646 19.4794C2.99338 19.5243 2.90331 19.5755 2.8176 19.6331C2.25141 20.0121 1.85803 20.6 1.72303 21.268C1.5881 21.936 1.72269 22.6304 2.0977 23.1996L2.27515 23.4634C1.5506 23.5478 0.895663 23.9362 0.473777 24.5315C0.0519 25.1268 -0.0974314 25.8731 0.0629486 26.5849C0.223663 27.2968 0.678687 27.9068 1.31515 28.2634L8.06378 32.1611C8.25128 32.3847 8.47527 32.5746 8.72639 32.7226C13.7953 36.5627 29.4238 36.6347 30.0864 36.6347H30.5665V26.5932L30.1584 26.531C30.1584 26.531 29.6736 26.459 28.9296 26.4014L28.9294 26.4011ZM15.1534 24.961C14.7817 24.7467 14.5118 24.3921 14.4044 23.977C14.2895 23.5645 14.3468 23.1229 14.5627 22.7529C14.7787 22.3833 15.1316 22.1137 15.5455 22.0029C15.959 21.8924 16.3996 21.9497 16.7709 22.1626L26.8226 26.5642L18.8545 27.0732L15.1534 24.961ZM1.7948 27.4571C1.38063 27.218 1.09402 26.8079 1.01199 26.3371C0.929956 25.8664 1.06087 25.3836 1.36958 25.0186C1.67829 24.6536 2.13297 24.4444 2.61072 24.4474C2.71384 24.4494 2.81663 24.4604 2.91775 24.4809L6.81543 30.356L1.7948 27.4571ZM29.6108 35.6699C26.9085 35.6267 13.6028 35.2617 9.29223 31.9403L9.23464 31.9018H9.2343C9.04781 31.8003 8.88442 31.6614 8.7545 31.4936L8.69691 31.417L4.37708 24.8937L2.937 22.705C2.70095 22.3474 2.6159 21.9111 2.70061 21.4912C2.78499 21.0714 3.03209 20.7017 3.388 20.4634C3.48643 20.4018 3.59124 20.3502 3.70005 20.3097L3.76233 20.2809C3.85507 20.2528 3.94983 20.232 4.04559 20.2186H4.31445C4.15407 20.4513 4.0342 20.7095 3.9592 20.9817C3.77439 21.6279 3.85039 22.3206 4.17047 22.9116L8.89847 31.1003L9.72883 30.6202L5.00083 22.4315C4.81768 22.1097 4.74971 21.735 4.80797 21.3694C4.86657 21.0038 5.04804 20.6689 5.32259 20.4202L5.52884 20.2715L5.59111 20.2236V20.2233C5.9631 20.012 6.40306 19.9551 6.81623 20.0656C7.22973 20.1761 7.58263 20.445 7.79929 20.8139L12.081 28.2346L12.2296 28.4937H12.5273C14.1689 28.3882 16.5113 28.2299 18.7674 28.0618H18.8009L28.8089 27.361C29.1306 27.361 29.4042 27.4042 29.6057 27.4283L29.6108 35.6699Z" fill="url(#paint0_linear_3620_16707)"/>
<path d="M28.9294 26.4011L17.2225 21.2937C16.6312 20.9632 15.9338 20.8789 15.2809 21.0583C14.6277 21.2381 14.0716 21.6674 13.7327 22.2536C13.3932 22.8476 13.3035 23.552 13.4836 24.212C13.6638 24.872 14.0987 25.4331 14.693 25.7723L17.165 27.2124L12.7825 27.5147L8.63041 20.3338C8.28622 19.7392 7.71704 19.3082 7.05138 19.1385C6.89402 19.0967 6.7333 19.0679 6.57124 19.0521C6.44669 19.0451 6.32146 19.0451 6.19691 19.0521C6.1554 19.0475 6.11354 19.0475 6.07203 19.0521C5.96321 19.0689 5.85574 19.093 5.7506 19.1241C5.6977 19.1241 5.6401 19.1241 5.58252 19.1626C5.52493 19.2011 5.41947 19.2346 5.33308 19.2731L5.13151 19.3642H5.13117C4.4632 19.1174 3.72255 19.1593 3.08646 19.4794C2.99338 19.5243 2.90331 19.5755 2.8176 19.6331C2.25141 20.0121 1.85803 20.6 1.72303 21.268C1.5881 21.936 1.72269 22.6304 2.0977 23.1996L2.27515 23.4634C1.5506 23.5478 0.895663 23.9362 0.473777 24.5315C0.0519 25.1268 -0.0974314 25.8731 0.0629486 26.5849C0.223663 27.2968 0.678687 27.9068 1.31515 28.2634L8.06378 32.1611C8.25128 32.3847 8.47527 32.5746 8.72639 32.7226C13.7953 36.5627 29.4238 36.6347 30.0864 36.6347H30.5665V26.5932L30.1584 26.531C30.1584 26.531 29.6736 26.459 28.9296 26.4014L28.9294 26.4011ZM15.1534 24.961C14.7817 24.7467 14.5118 24.3921 14.4044 23.977C14.2895 23.5645 14.3468 23.1229 14.5627 22.7529C14.7787 22.3833 15.1316 22.1137 15.5455 22.0029C15.959 21.8924 16.3996 21.9497 16.7709 22.1626L26.8226 26.5642L18.8545 27.0732L15.1534 24.961ZM1.7948 27.4571C1.38063 27.218 1.09402 26.8079 1.01199 26.3371C0.929956 25.8664 1.06087 25.3836 1.36958 25.0186C1.67829 24.6536 2.13297 24.4444 2.61072 24.4474C2.71384 24.4494 2.81663 24.4604 2.91775 24.4809L6.81543 30.356L1.7948 27.4571ZM29.6108 35.6699C26.9085 35.6267 13.6028 35.2617 9.29223 31.9403L9.23464 31.9018H9.2343C9.04781 31.8003 8.88442 31.6614 8.7545 31.4936L8.69691 31.417L4.37708 24.8937L2.937 22.705C2.70095 22.3474 2.6159 21.9111 2.70061 21.4912C2.78499 21.0714 3.03209 20.7017 3.388 20.4634C3.48643 20.4018 3.59124 20.3502 3.70005 20.3097L3.76233 20.2809C3.85507 20.2528 3.94983 20.232 4.04559 20.2186H4.31445C4.15407 20.4513 4.0342 20.7095 3.9592 20.9817C3.77439 21.6279 3.85039 22.3206 4.17047 22.9116L8.89847 31.1003L9.72883 30.6202L5.00083 22.4315C4.81768 22.1097 4.74971 21.735 4.80797 21.3694C4.86657 21.0038 5.04804 20.6689 5.32259 20.4202L5.52884 20.2715L5.59111 20.2236V20.2233C5.9631 20.012 6.40306 19.9551 6.81623 20.0656C7.22973 20.1761 7.58263 20.445 7.79929 20.8139L12.081 28.2346L12.2296 28.4937H12.5273C14.1689 28.3882 16.5113 28.2299 18.7674 28.0618H18.8009L28.8089 27.361C29.1306 27.361 29.4042 27.4042 29.6057 27.4283L29.6108 35.6699Z" fill="black" fill-opacity="0.2"/>
<path d="M18.4227 6.39514L18.4849 6.43365L18.5666 6.49124C18.646 6.54481 18.7397 6.57293 18.8352 6.57293C19.0437 6.57026 19.2269 6.43331 19.2882 6.2341C19.3494 6.03488 19.2751 5.81858 19.104 5.69939C19.0417 5.65151 18.9744 5.613 18.9071 5.56981H18.9075C18.6818 5.43287 18.3882 5.50352 18.2496 5.72819C18.1823 5.83901 18.1625 5.97261 18.195 6.09816C18.2275 6.22406 18.3095 6.3312 18.4227 6.39514Z" fill="url(#paint1_linear_3620_16707)"/>
<path d="M18.4227 6.39514L18.4849 6.43365L18.5666 6.49124C18.646 6.54481 18.7397 6.57293 18.8352 6.57293C19.0437 6.57026 19.2269 6.43331 19.2882 6.2341C19.3494 6.03488 19.2751 5.81858 19.104 5.69939C19.0417 5.65151 18.9744 5.613 18.9071 5.56981H18.9075C18.6818 5.43287 18.3882 5.50352 18.2496 5.72819C18.1823 5.83901 18.1625 5.97261 18.195 6.09816C18.2275 6.22406 18.3095 6.3312 18.4227 6.39514Z" fill="black" fill-opacity="0.2"/>
<path d="M15.9608 5.76072H16.172C16.4372 5.76072 16.6522 5.54577 16.6522 5.28058C16.6522 5.01574 16.4372 4.80078 16.172 4.80078H15.937C15.6718 4.80748 15.4622 5.02745 15.4689 5.29264C15.4756 5.55782 15.6956 5.76742 15.9608 5.76072Z" fill="url(#paint2_linear_3620_16707)"/>
<path d="M15.9608 5.76072H16.172C16.4372 5.76072 16.6522 5.54577 16.6522 5.28058C16.6522 5.01574 16.4372 4.80078 16.172 4.80078H15.937C15.6718 4.80748 15.4622 5.02745 15.4689 5.29264C15.4756 5.55782 15.6956 5.76742 15.9608 5.76072Z" fill="black" fill-opacity="0.2"/>
<path d="M20.2958 12.5794C20.3601 12.6108 20.4304 12.6272 20.502 12.6276C20.6885 12.6289 20.8586 12.5221 20.939 12.354L21.0351 12.1381H21.0347C21.1318 11.8967 21.019 11.6221 20.7806 11.5186C20.721 11.4945 20.6574 11.4815 20.5931 11.4805C20.4006 11.4805 20.2268 11.5957 20.1518 11.7731L20.0942 11.898V11.9315C19.971 12.1662 20.0611 12.4561 20.2958 12.5794Z" fill="url(#paint3_linear_3620_16707)"/>
<path d="M20.2958 12.5794C20.3601 12.6108 20.4304 12.6272 20.502 12.6276C20.6885 12.6289 20.8586 12.5221 20.939 12.354L21.0351 12.1381H21.0347C21.1318 11.8967 21.019 11.6221 20.7806 11.5186C20.721 11.4945 20.6574 11.4815 20.5931 11.4805C20.4006 11.4805 20.2268 11.5957 20.1518 11.7731L20.0942 11.898V11.9315C19.971 12.1662 20.0611 12.4561 20.2958 12.5794Z" fill="black" fill-opacity="0.2"/>
<path d="M20.3272 8.90754C20.3851 9.12316 20.584 9.27048 20.8073 9.26278C20.8485 9.26747 20.8904 9.26747 20.9319 9.26278C21.0548 9.2293 21.1592 9.14794 21.2225 9.03745C21.2855 8.92662 21.3019 8.79537 21.2681 8.67249C21.2681 8.59582 21.2249 8.5188 21.2008 8.44682C21.1381 8.2476 20.9537 8.11166 20.7447 8.11099C20.6972 8.10363 20.6486 8.10363 20.6008 8.11099C20.4789 8.1495 20.3778 8.23488 20.3192 8.34838C20.2606 8.46188 20.2495 8.59414 20.2887 8.71568L20.3272 8.90754Z" fill="url(#paint4_linear_3620_16707)"/>
<path d="M20.3272 8.90754C20.3851 9.12316 20.584 9.27048 20.8073 9.26278C20.8485 9.26747 20.8904 9.26747 20.9319 9.26278C21.0548 9.2293 21.1592 9.14794 21.2225 9.03745C21.2855 8.92662 21.3019 8.79537 21.2681 8.67249C21.2681 8.59582 21.2249 8.5188 21.2008 8.44682C21.1381 8.2476 20.9537 8.11166 20.7447 8.11099C20.6972 8.10363 20.6486 8.10363 20.6008 8.11099C20.4789 8.1495 20.3778 8.23488 20.3192 8.34838C20.2606 8.46188 20.2495 8.59414 20.2887 8.71568L20.3272 8.90754Z" fill="black" fill-opacity="0.2"/>
<path d="M18.091 14.9534C18.157 14.954 18.2226 14.941 18.2832 14.9152L18.4945 14.8144C18.609 14.7585 18.6967 14.6594 18.7383 14.5385C18.7798 14.418 18.7714 14.2857 18.7152 14.1712C18.6345 14.0061 18.4667 13.902 18.2832 13.9023C18.2096 13.9033 18.1372 13.9214 18.072 13.9552L17.8945 14.0369V14.0366C17.6893 14.13 17.5768 14.3537 17.624 14.5743C17.6715 14.7946 17.8657 14.9524 18.091 14.9534Z" fill="url(#paint5_linear_3620_16707)"/>
<path d="M18.091 14.9534C18.157 14.954 18.2226 14.941 18.2832 14.9152L18.4945 14.8144C18.609 14.7585 18.6967 14.6594 18.7383 14.5385C18.7798 14.418 18.7714 14.2857 18.7152 14.1712C18.6345 14.0061 18.4667 13.902 18.2832 13.9023C18.2096 13.9033 18.1372 13.9214 18.072 13.9552L17.8945 14.0369V14.0366C17.6893 14.13 17.5768 14.3537 17.624 14.5743C17.6715 14.7946 17.8657 14.9524 18.091 14.9534Z" fill="black" fill-opacity="0.2"/>
<path d="M14.6269 15.1307L14.8526 15.193H14.9724C15.2376 15.2262 15.4793 15.0383 15.5125 14.7732C15.5456 14.508 15.3575 14.2662 15.0923 14.2331L14.9292 14.1852C14.8814 14.1778 14.8328 14.1778 14.7853 14.1852C14.658 14.1668 14.5285 14.1996 14.4253 14.2766C14.3222 14.3533 14.2542 14.4681 14.2355 14.5954C14.1973 14.8606 14.3808 15.1066 14.646 15.1452L14.6269 15.1307Z" fill="url(#paint6_linear_3620_16707)"/>
<path d="M14.6269 15.1307L14.8526 15.193H14.9724C15.2376 15.2262 15.4793 15.0383 15.5125 14.7732C15.5456 14.508 15.3575 14.2662 15.0923 14.2331L14.9292 14.1852C14.8814 14.1778 14.8328 14.1778 14.7853 14.1852C14.658 14.1668 14.5285 14.1996 14.4253 14.2766C14.3222 14.3533 14.2542 14.4681 14.2355 14.5954C14.1973 14.8606 14.3808 15.1066 14.646 15.1452L14.6269 15.1307Z" fill="black" fill-opacity="0.2"/>
<path d="M11.3703 10.0788H11.4182C11.664 10.0805 11.8712 9.89601 11.8983 9.65159V9.4882V9.48853C11.9178 9.36264 11.8859 9.23407 11.8103 9.13128C11.7346 9.02849 11.6211 8.96018 11.4952 8.94144H11.4232C11.1838 8.93876 10.9789 9.11287 10.9431 9.34925L10.9143 9.58429V9.58463C10.9063 9.84613 11.1088 10.0661 11.3703 10.0788Z" fill="url(#paint7_linear_3620_16707)"/>
<path d="M11.3703 10.0788H11.4182C11.664 10.0805 11.8712 9.89601 11.8983 9.65159V9.4882V9.48853C11.9178 9.36264 11.8859 9.23407 11.8103 9.13128C11.7346 9.02849 11.6211 8.96018 11.4952 8.94144H11.4232C11.1838 8.93876 10.9789 9.11287 10.9431 9.34925L10.9143 9.58429V9.58463C10.9063 9.84613 11.1088 10.0661 11.3703 10.0788Z" fill="black" fill-opacity="0.2"/>
<path d="M12.8809 7.06406C13.0021 7.06373 13.1186 7.01753 13.2074 6.93449L13.3513 6.80492C13.5512 6.63115 13.5727 6.32847 13.3992 6.12825C13.3071 6.02344 13.1739 5.96384 13.0346 5.96486C12.9201 5.96486 12.8093 6.0057 12.7225 6.08037L12.5498 6.23875C12.3636 6.42591 12.3636 6.72825 12.5498 6.91542C12.6362 7.00649 12.7553 7.05971 12.8809 7.06406Z" fill="url(#paint8_linear_3620_16707)"/>
<path d="M12.8809 7.06406C13.0021 7.06373 13.1186 7.01753 13.2074 6.93449L13.3513 6.80492C13.5512 6.63115 13.5727 6.32847 13.3992 6.12825C13.3071 6.02344 13.1739 5.96384 13.0346 5.96486C12.9201 5.96486 12.8093 6.0057 12.7225 6.08037L12.5498 6.23875C12.3636 6.42591 12.3636 6.72825 12.5498 6.91542C12.6362 7.00649 12.7553 7.05971 12.8809 7.06406Z" fill="black" fill-opacity="0.2"/>
<path d="M11.7074 12.8994L11.837 13.0963V13.096C11.9063 13.2078 12.0185 13.2865 12.1474 13.3129C12.2763 13.3397 12.4105 13.3123 12.5187 13.2373C12.6268 13.1619 12.6991 13.0457 12.7192 12.9155C12.739 12.7856 12.7048 12.653 12.6241 12.5489L12.5187 12.3858H12.5183C12.4306 12.2452 12.2763 12.1598 12.1105 12.1602C12.0205 12.1625 11.9324 12.189 11.8561 12.2368C11.7486 12.3051 11.6722 12.4129 11.6444 12.5372C11.6166 12.6614 11.6391 12.7916 11.7074 12.8994Z" fill="url(#paint9_linear_3620_16707)"/>
<path d="M11.7074 12.8994L11.837 13.0963V13.096C11.9063 13.2078 12.0185 13.2865 12.1474 13.3129C12.2763 13.3397 12.4105 13.3123 12.5187 13.2373C12.6268 13.1619 12.6991 13.0457 12.7192 12.9155C12.739 12.7856 12.7048 12.653 12.6241 12.5489L12.5187 12.3858H12.5183C12.4306 12.2452 12.2763 12.1598 12.1105 12.1602C12.0205 12.1625 11.9324 12.189 11.8561 12.2368C11.7486 12.3051 11.6722 12.4129 11.6444 12.5372C11.6166 12.6614 11.6391 12.7916 11.7074 12.8994Z" fill="black" fill-opacity="0.2"/>
<path d="M3.58655 3.84014C4.0111 3.83846 4.42326 3.6965 4.75843 3.43601C5.09393 3.17552 5.33332 2.81123 5.43946 2.40007H7.11963L10.4461 5.73118H10.4458C9.70549 6.70284 9.22607 7.8479 9.05395 9.05767H5.91938C5.76235 8.44896 5.31737 7.95607 4.72812 7.7375C4.13884 7.51886 3.47995 7.60256 2.96395 7.96149C2.44799 8.32042 2.14062 8.90906 2.14062 9.53752C2.14062 10.1663 2.44799 10.7549 2.96395 11.1139C3.47991 11.4728 4.13884 11.5565 4.72812 11.3379C5.31741 11.1193 5.76235 10.6264 5.91938 10.0177H8.97227V10.08C8.97227 11.2924 9.2793 12.4847 9.8649 13.5458L7.4649 15.9458H5.91938C5.76235 15.3374 5.31737 14.8442 4.72812 14.6256C4.13884 14.407 3.47995 14.4907 2.96395 14.8496C2.44799 15.2085 2.14062 15.7975 2.14062 16.426C2.14062 17.0544 2.44799 17.643 2.96395 18.002C3.47991 18.3609 4.13884 18.4446 4.72812 18.226C5.31741 18.0074 5.76235 17.5145 5.91938 16.9058H7.83921L10.4124 14.3665C11.7557 16.1973 13.8871 17.2835 16.1579 17.2949C18.4286 17.3063 20.5704 16.2415 21.9322 14.4241L24.4089 16.9008H26.3287L26.3291 16.9012C26.4861 17.5096 26.9311 18.0028 27.5203 18.2214C28.1096 18.44 28.7685 18.3563 29.2845 17.9974C29.8004 17.6384 30.1082 17.0494 30.1082 16.421C30.1082 15.7925 29.8005 15.2039 29.2845 14.845C28.7685 14.486 28.1096 14.4023 27.5203 14.621C26.931 14.8393 26.4861 15.3325 26.3291 15.9411H24.7738L22.4411 13.6084V13.6081C23.0518 12.5326 23.3729 11.3169 23.3722 10.0801V10.0178H26.3243C26.4813 10.6265 26.9263 11.1194 27.5155 11.338C28.1048 11.5565 28.7637 11.4729 29.2797 11.114C29.7957 10.7551 30.103 10.1664 30.103 9.53761C30.103 8.90915 29.7957 8.32055 29.2797 7.96158C28.7637 7.60261 28.1048 7.51894 27.5155 7.73758C26.9262 7.95622 26.4813 8.44908 26.3243 9.05775H23.2904C23.1153 7.82158 22.6188 6.65304 21.8503 5.66904L25.1242 2.40015H26.7993C26.9563 3.00853 27.4013 3.50175 27.9905 3.72032C28.5798 3.93863 29.2387 3.85492 29.7547 3.49633C30.2707 3.1374 30.5784 2.54841 30.5784 1.91995C30.5784 1.2915 30.2707 0.702897 29.7547 0.343926C29.2388 -0.0150027 28.5798 -0.098711 27.9905 0.119929C27.4013 0.338235 26.9563 0.831426 26.7993 1.4401H24.7258L21.2168 4.94907V4.94874C19.8615 3.61785 18.0347 2.87617 16.1349 2.88628C14.2351 2.89633 12.416 3.65637 11.0744 5.00171L7.532 1.44019H5.43937C5.31884 0.973788 5.02754 0.56968 4.62342 0.308165C4.21895 0.046334 3.73113 -0.0537803 3.25636 0.0275883C2.78158 0.10895 2.35464 0.365423 2.06039 0.746783C1.76608 1.12814 1.62579 1.6059 1.66731 2.08573C1.70916 2.56553 1.92947 3.01221 2.28472 3.33733C2.6403 3.66211 3.10503 3.84157 3.58655 3.84023V3.84014ZM4.06668 10.4977C3.6783 10.4977 3.32807 10.2637 3.17971 9.9051C3.03105 9.54617 3.11308 9.13333 3.38764 8.85878C3.66219 8.58423 4.07502 8.5022 4.43395 8.65052C4.79255 8.79919 5.02659 9.14941 5.02659 9.5375C5.02659 9.7923 4.92547 10.0364 4.74534 10.2165C4.56521 10.3967 4.32115 10.4977 4.06668 10.4977ZM5.0266 16.4207C5.0266 16.8091 4.79256 17.159 4.43396 17.3077C4.07503 17.4563 3.6622 17.3743 3.38765 17.0997C3.1131 16.8252 3.03106 16.412 3.17972 16.0534C3.32805 15.6948 3.67827 15.4608 4.06669 15.4608C4.32116 15.4608 4.56524 15.5619 4.74538 15.742C4.92552 15.9222 5.0266 16.1662 5.0266 16.4207ZM28.172 15.4608C28.5604 15.4608 28.9103 15.6948 29.059 16.0534C29.2077 16.412 29.1253 16.8252 28.8507 17.0997C28.5762 17.3743 28.1634 17.4563 27.8048 17.3076C27.4458 17.159 27.2121 16.8091 27.2121 16.4207C27.2121 15.8907 27.6417 15.4608 28.172 15.4608ZM28.172 8.57749C28.5604 8.57749 28.9103 8.81153 29.059 9.17012C29.2077 9.52905 29.1253 9.94189 28.8507 10.2164C28.5762 10.491 28.1634 10.573 27.8048 10.4244C27.4458 10.276 27.2121 9.92581 27.2121 9.53739C27.2121 9.00737 27.6417 8.57749 28.172 8.57749ZM28.6522 0.959963C29.0402 0.959963 29.3905 1.19401 29.5391 1.5526C29.6875 1.91119 29.6054 2.32436 29.3309 2.59892C29.0563 2.87347 28.6435 2.9555 28.2846 2.80684C27.926 2.65818 27.6919 2.30829 27.6919 1.91987C27.6919 1.38985 28.1218 0.959963 28.6522 0.959963ZM16.1722 3.84014C17.8272 3.84014 19.4142 4.49739 20.5845 5.66756C21.7547 6.83774 22.4123 8.42516 22.4123 10.0799C22.4123 11.7349 21.7547 13.3223 20.5845 14.4925C19.4143 15.6626 17.8272 16.3199 16.1722 16.3199C14.5171 16.3199 12.9301 15.6626 11.7599 14.4925C10.5897 13.3223 9.93208 11.7349 9.93208 10.0799C9.93208 8.42516 10.5897 6.83782 11.7599 5.66756C12.93 4.49739 14.5171 3.84014 16.1722 3.84014ZM3.58674 0.959963C3.8412 0.959963 4.08562 1.06108 4.26542 1.24121C4.44556 1.42101 4.54667 1.66543 4.54667 1.91989C4.54667 2.30828 4.31296 2.65818 3.95403 2.80687C3.59544 2.95553 3.1826 2.8735 2.90806 2.59894C2.63352 2.32439 2.55114 1.91122 2.6998 1.55263C2.84846 1.19403 3.19831 0.959963 3.58674 0.959963Z" fill="url(#paint10_linear_3620_16707)"/>
<path d="M3.58655 3.84014C4.0111 3.83846 4.42326 3.6965 4.75843 3.43601C5.09393 3.17552 5.33332 2.81123 5.43946 2.40007H7.11963L10.4461 5.73118H10.4458C9.70549 6.70284 9.22607 7.8479 9.05395 9.05767H5.91938C5.76235 8.44896 5.31737 7.95607 4.72812 7.7375C4.13884 7.51886 3.47995 7.60256 2.96395 7.96149C2.44799 8.32042 2.14062 8.90906 2.14062 9.53752C2.14062 10.1663 2.44799 10.7549 2.96395 11.1139C3.47991 11.4728 4.13884 11.5565 4.72812 11.3379C5.31741 11.1193 5.76235 10.6264 5.91938 10.0177H8.97227V10.08C8.97227 11.2924 9.2793 12.4847 9.8649 13.5458L7.4649 15.9458H5.91938C5.76235 15.3374 5.31737 14.8442 4.72812 14.6256C4.13884 14.407 3.47995 14.4907 2.96395 14.8496C2.44799 15.2085 2.14062 15.7975 2.14062 16.426C2.14062 17.0544 2.44799 17.643 2.96395 18.002C3.47991 18.3609 4.13884 18.4446 4.72812 18.226C5.31741 18.0074 5.76235 17.5145 5.91938 16.9058H7.83921L10.4124 14.3665C11.7557 16.1973 13.8871 17.2835 16.1579 17.2949C18.4286 17.3063 20.5704 16.2415 21.9322 14.4241L24.4089 16.9008H26.3287L26.3291 16.9012C26.4861 17.5096 26.9311 18.0028 27.5203 18.2214C28.1096 18.44 28.7685 18.3563 29.2845 17.9974C29.8004 17.6384 30.1082 17.0494 30.1082 16.421C30.1082 15.7925 29.8005 15.2039 29.2845 14.845C28.7685 14.486 28.1096 14.4023 27.5203 14.621C26.931 14.8393 26.4861 15.3325 26.3291 15.9411H24.7738L22.4411 13.6084V13.6081C23.0518 12.5326 23.3729 11.3169 23.3722 10.0801V10.0178H26.3243C26.4813 10.6265 26.9263 11.1194 27.5155 11.338C28.1048 11.5565 28.7637 11.4729 29.2797 11.114C29.7957 10.7551 30.103 10.1664 30.103 9.53761C30.103 8.90915 29.7957 8.32055 29.2797 7.96158C28.7637 7.60261 28.1048 7.51894 27.5155 7.73758C26.9262 7.95622 26.4813 8.44908 26.3243 9.05775H23.2904C23.1153 7.82158 22.6188 6.65304 21.8503 5.66904L25.1242 2.40015H26.7993C26.9563 3.00853 27.4013 3.50175 27.9905 3.72032C28.5798 3.93863 29.2387 3.85492 29.7547 3.49633C30.2707 3.1374 30.5784 2.54841 30.5784 1.91995C30.5784 1.2915 30.2707 0.702897 29.7547 0.343926C29.2388 -0.0150027 28.5798 -0.098711 27.9905 0.119929C27.4013 0.338235 26.9563 0.831426 26.7993 1.4401H24.7258L21.2168 4.94907V4.94874C19.8615 3.61785 18.0347 2.87617 16.1349 2.88628C14.2351 2.89633 12.416 3.65637 11.0744 5.00171L7.532 1.44019H5.43937C5.31884 0.973788 5.02754 0.56968 4.62342 0.308165C4.21895 0.046334 3.73113 -0.0537803 3.25636 0.0275883C2.78158 0.10895 2.35464 0.365423 2.06039 0.746783C1.76608 1.12814 1.62579 1.6059 1.66731 2.08573C1.70916 2.56553 1.92947 3.01221 2.28472 3.33733C2.6403 3.66211 3.10503 3.84157 3.58655 3.84023V3.84014ZM4.06668 10.4977C3.6783 10.4977 3.32807 10.2637 3.17971 9.9051C3.03105 9.54617 3.11308 9.13333 3.38764 8.85878C3.66219 8.58423 4.07502 8.5022 4.43395 8.65052C4.79255 8.79919 5.02659 9.14941 5.02659 9.5375C5.02659 9.7923 4.92547 10.0364 4.74534 10.2165C4.56521 10.3967 4.32115 10.4977 4.06668 10.4977ZM5.0266 16.4207C5.0266 16.8091 4.79256 17.159 4.43396 17.3077C4.07503 17.4563 3.6622 17.3743 3.38765 17.0997C3.1131 16.8252 3.03106 16.412 3.17972 16.0534C3.32805 15.6948 3.67827 15.4608 4.06669 15.4608C4.32116 15.4608 4.56524 15.5619 4.74538 15.742C4.92552 15.9222 5.0266 16.1662 5.0266 16.4207ZM28.172 15.4608C28.5604 15.4608 28.9103 15.6948 29.059 16.0534C29.2077 16.412 29.1253 16.8252 28.8507 17.0997C28.5762 17.3743 28.1634 17.4563 27.8048 17.3076C27.4458 17.159 27.2121 16.8091 27.2121 16.4207C27.2121 15.8907 27.6417 15.4608 28.172 15.4608ZM28.172 8.57749C28.5604 8.57749 28.9103 8.81153 29.059 9.17012C29.2077 9.52905 29.1253 9.94189 28.8507 10.2164C28.5762 10.491 28.1634 10.573 27.8048 10.4244C27.4458 10.276 27.2121 9.92581 27.2121 9.53739C27.2121 9.00737 27.6417 8.57749 28.172 8.57749ZM28.6522 0.959963C29.0402 0.959963 29.3905 1.19401 29.5391 1.5526C29.6875 1.91119 29.6054 2.32436 29.3309 2.59892C29.0563 2.87347 28.6435 2.9555 28.2846 2.80684C27.926 2.65818 27.6919 2.30829 27.6919 1.91987C27.6919 1.38985 28.1218 0.959963 28.6522 0.959963ZM16.1722 3.84014C17.8272 3.84014 19.4142 4.49739 20.5845 5.66756C21.7547 6.83774 22.4123 8.42516 22.4123 10.0799C22.4123 11.7349 21.7547 13.3223 20.5845 14.4925C19.4143 15.6626 17.8272 16.3199 16.1722 16.3199C14.5171 16.3199 12.9301 15.6626 11.7599 14.4925C10.5897 13.3223 9.93208 11.7349 9.93208 10.0799C9.93208 8.42516 10.5897 6.83782 11.7599 5.66756C12.93 4.49739 14.5171 3.84014 16.1722 3.84014ZM3.58674 0.959963C3.8412 0.959963 4.08562 1.06108 4.26542 1.24121C4.44556 1.42101 4.54667 1.66543 4.54667 1.91989C4.54667 2.30828 4.31296 2.65818 3.95403 2.80687C3.59544 2.95553 3.1826 2.8735 2.90806 2.59894C2.63352 2.32439 2.55114 1.91122 2.6998 1.55263C2.84846 1.19403 3.19831 0.959963 3.58674 0.959963Z" fill="black" fill-opacity="0.2"/>
<defs>
<linearGradient id="paint0_linear_3620_16707" x1="15.2833" y1="19.0469" x2="15.2833" y2="36.6347" gradientUnits="userSpaceOnUse">
<stop stop-color="#FF0F0F"/>
<stop offset="1" stop-color="#FF4849"/>
</linearGradient>
<linearGradient id="paint1_linear_3620_16707" x1="18.7445" y1="5.5" x2="18.7445" y2="6.57293" gradientUnits="userSpaceOnUse">
<stop stop-color="#FF0F0F"/>
<stop offset="1" stop-color="#FF4849"/>
</linearGradient>
<linearGradient id="paint2_linear_3620_16707" x1="16.0605" y1="4.80078" x2="16.0605" y2="5.76087" gradientUnits="userSpaceOnUse">
<stop stop-color="#FF0F0F"/>
<stop offset="1" stop-color="#FF4849"/>
</linearGradient>
<linearGradient id="paint3_linear_3620_16707" x1="20.5543" y1="11.4805" x2="20.5543" y2="12.6276" gradientUnits="userSpaceOnUse">
<stop stop-color="#FF0F0F"/>
<stop offset="1" stop-color="#FF4849"/>
</linearGradient>
<linearGradient id="paint4_linear_3620_16707" x1="20.7755" y1="8.10547" x2="20.7755" y2="9.26629" gradientUnits="userSpaceOnUse">
<stop stop-color="#FF0F0F"/>
<stop offset="1" stop-color="#FF4849"/>
</linearGradient>
<linearGradient id="paint5_linear_3620_16707" x1="18.1888" y1="13.9023" x2="18.1888" y2="14.9534" gradientUnits="userSpaceOnUse">
<stop stop-color="#FF0F0F"/>
<stop offset="1" stop-color="#FF4849"/>
</linearGradient>
<linearGradient id="paint6_linear_3620_16707" x1="14.8734" y1="14.1797" x2="14.8734" y2="15.1968" gradientUnits="userSpaceOnUse">
<stop stop-color="#FF0F0F"/>
<stop offset="1" stop-color="#FF4849"/>
</linearGradient>
<linearGradient id="paint7_linear_3620_16707" x1="11.409" y1="8.94141" x2="11.409" y2="10.0788" gradientUnits="userSpaceOnUse">
<stop stop-color="#FF0F0F"/>
<stop offset="1" stop-color="#FF4849"/>
</linearGradient>
<linearGradient id="paint8_linear_3620_16707" x1="12.9633" y1="5.96484" x2="12.9633" y2="7.06408" gradientUnits="userSpaceOnUse">
<stop stop-color="#FF0F0F"/>
<stop offset="1" stop-color="#FF4849"/>
</linearGradient>
<linearGradient id="paint9_linear_3620_16707" x1="12.1788" y1="12.1602" x2="12.1788" y2="13.323" gradientUnits="userSpaceOnUse">
<stop stop-color="#FF0F0F"/>
<stop offset="1" stop-color="#FF4849"/>
</linearGradient>
<linearGradient id="paint10_linear_3620_16707" x1="16.1193" y1="0" x2="16.1193" y2="18.3459" gradientUnits="userSpaceOnUse">
<stop stop-color="#FF0F0F"/>
<stop offset="1" stop-color="#FF4849"/>
</linearGradient>
</defs>
</svg>