<svg width="40" height="40" viewBox="0 0 28 14" fill="none" xmlns="http://www.w3.org/2000/svg">
<path d="M8.12619 5.89391C8.39062 6.15834 8.78717 6.15834 9.05138 5.89391C9.31581 5.62948 9.31581 5.23293 9.05138 4.96872C8.52273 4.44007 7.79581 4.17566 7.06871 4.17566C6.34177 4.17566 5.61488 4.44009 5.08603 4.96872C4.55738 5.49737 4.29297 6.22429 4.29297 6.9514C4.29297 7.67834 4.5574 8.40522 5.08603 8.93407C5.61468 9.46273 6.3416 9.72713 7.06871 9.72713C7.79565 9.72713 8.52253 9.4627 9.05138 8.93407C9.31581 8.66964 9.31581 8.27309 9.05138 8.00888C8.78695 7.74445 8.3904 7.74445 8.12619 8.00888C7.53138 8.60369 6.60619 8.60369 6.01138 8.00888C5.74695 7.74445 5.54868 7.3479 5.54868 6.95156C5.54868 6.55502 5.68079 6.1585 6.01138 5.89424C6.54003 5.29899 7.53138 5.29899 8.12619 5.89381V5.89391Z" fill="url(#paint0_linear_3240_13209)"/>
<path d="M27.0946 6.62082L25.1119 3.64699C24.9798 3.44872 24.7815 3.38256 24.5832 3.38256H12.1589C11.7623 2.85391 11.2998 2.39119 10.771 1.99469C10.771 1.99469 10.771 1.92853 10.7048 1.92853C8.19346 0.078145 4.75674 0.342353 2.57608 2.58951C0.13089 5.0347 0.13089 9.00011 2.57608 11.4451C3.7657 12.7007 5.41783 13.2955 7.00395 13.2955C8.59007 13.2955 10.2422 12.7007 11.4318 11.4451L11.6962 11.1807C11.9607 10.9163 11.8945 10.5197 11.6301 10.2555C11.3657 9.99109 10.9691 10.0573 10.7049 10.3217C10.6387 10.3878 10.5728 10.4538 10.5066 10.5199C8.59007 12.4365 5.41799 12.4365 3.5016 10.5199C1.58504 8.60339 1.58504 5.43131 3.5016 3.51492C4.22854 2.78798 5.0216 2.39148 5.94679 2.19317C7.92947 1.79663 10.0441 2.65587 11.1016 4.30798L11.1678 4.37414C11.2999 4.57241 11.4981 4.70452 11.7626 4.70452H24.1869L25.7069 7.01758L24.1869 9.26452C24.0548 9.19836 23.9225 9.06625 23.7242 8.86798C23.3939 8.47144 22.9312 8.00896 22.006 8.00896C21.0808 8.00896 20.6181 8.53761 20.2877 8.86798C19.9574 9.19836 19.825 9.33068 19.4947 9.33068C19.1643 9.33068 19.032 9.19857 18.7016 8.86798C18.3712 8.47144 17.9086 8.00896 16.9834 8.00896C16.0582 8.00896 15.5955 8.53761 15.2651 8.86798C14.9347 9.19836 14.8024 9.33068 14.4721 9.33068C14.1417 9.33068 14.0094 9.19857 13.679 8.86798C13.4146 8.5376 13.018 8.207 12.4234 8.07492C12.093 8.00876 11.6965 8.20703 11.6304 8.60357C11.5642 8.93395 11.7625 9.33051 12.159 9.39663C12.3573 9.46279 12.4894 9.5949 12.7538 9.85933C13.0842 10.2559 13.5469 10.7183 14.4721 10.7183C15.3973 10.7183 15.8599 10.1897 16.1903 9.85933C16.5207 9.52895 16.653 9.39663 16.9834 9.39663C17.3137 9.39663 17.4461 9.52874 17.7764 9.85933C18.1068 10.2559 18.5695 10.7183 19.4947 10.7183C20.4199 10.7183 20.8826 10.1897 21.2129 9.85933C21.5433 9.52895 21.6756 9.39663 22.006 9.39663C22.3364 9.39663 22.4687 9.52874 22.7991 9.85933C23.1294 10.2559 23.5921 10.7183 24.5173 10.7183C24.7156 10.7183 24.9139 10.5862 25.046 10.4539L27.0286 7.48009C27.2929 7.08355 27.2929 6.81932 27.0946 6.62107L27.0946 6.62082Z" fill="url(#paint1_linear_3240_13209)"/>
<defs>
<linearGradient id="paint0_linear_3240_13209" x1="8.15481" y1="4.17566" x2="8.12632" y2="10.9168" gradientUnits="userSpaceOnUse">
<stop stop-color="#005CAA"/>
<stop offset="1" stop-color="#64B0F1"/>
</linearGradient>
<linearGradient id="paint1_linear_3240_13209" x1="21.3837" y1="0.702881" x2="21.3563" y2="15.9942" gradientUnits="userSpaceOnUse">
<stop stop-color="#005CAA"/>
<stop offset="1" stop-color="#64B0F1"/>
</linearGradient>
</defs>
</svg>