<svg width="38" height="38" viewBox="0 0 33 33" fill="none" xmlns="http://www.w3.org/2000/svg">
<path d="M3.98438 32.9727C3.4317 32.9727 2.98438 32.5249 2.98438 31.9727V1.97266C2.98438 1.42042 3.4317 0.972656 3.98438 0.972656C4.53706 0.972656 4.98438 1.42042 4.98438 1.97266V31.9727C4.98438 32.5249 4.53706 32.9727 3.98438 32.9727Z" fill="#CC1212"/>
<path d="M31.9844 30.9727H1.98438C1.4317 30.9727 0.984375 30.5249 0.984375 29.9727C0.984375 29.4204 1.4317 28.9727 1.98438 28.9727H31.9844C32.5371 28.9727 32.9844 29.4204 32.9844 29.9727C32.9844 30.5249 32.5371 30.9727 31.9844 30.9727Z" fill="#CC1212"/>
<path d="M11.9844 24.9727H9.98438C8.88192 24.9727 7.98438 24.0756 7.98438 22.9727V18.9727C7.98438 17.8697 8.88192 16.9727 9.98438 16.9727H11.9844C13.0868 16.9727 13.9844 17.8697 13.9844 18.9727V22.9727C13.9844 24.0756 13.0868 24.9727 11.9844 24.9727ZM9.98438 18.9727V22.9727H11.9853L11.9844 18.9727H9.98438Z" fill="#CC1212"/>
<path d="M10.9844 18.9727C10.4317 18.9727 9.98438 18.5249 9.98438 17.9727V15.9727C9.98438 15.4204 10.4317 14.9727 10.9844 14.9727C11.5371 14.9727 11.9844 15.4204 11.9844 15.9727V17.9727C11.9844 18.5249 11.5371 18.9727 10.9844 18.9727Z" fill="#CC1212"/>
<path d="M10.9844 26.9727C10.4317 26.9727 9.98438 26.5249 9.98438 25.9727V23.9727C9.98438 23.4204 10.4317 22.9727 10.9844 22.9727C11.5371 22.9727 11.9844 23.4204 11.9844 23.9727V25.9727C11.9844 26.5249 11.5371 26.9727 10.9844 26.9727Z" fill="#CC1212"/>
<path d="M27.9844 24.9727H25.9844C24.8819 24.9727 23.9844 24.0756 23.9844 22.9727V18.9727C23.9844 17.8697 24.8819 16.9727 25.9844 16.9727H27.9844C29.0868 16.9727 29.9844 17.8697 29.9844 18.9727V22.9727C29.9844 24.0756 29.0868 24.9727 27.9844 24.9727ZM25.9844 18.9727V22.9727H27.9853L27.9844 18.9727H25.9844Z" fill="#CC1212"/>
<path d="M26.9844 18.9727C26.4317 18.9727 25.9844 18.5249 25.9844 17.9727V15.9727C25.9844 15.4204 26.4317 14.9727 26.9844 14.9727C27.5371 14.9727 27.9844 15.4204 27.9844 15.9727V17.9727C27.9844 18.5249 27.5371 18.9727 26.9844 18.9727Z" fill="#CC1212"/>
<path d="M26.9844 26.9727C26.4317 26.9727 25.9844 26.5249 25.9844 25.9727V23.9727C25.9844 23.4204 26.4317 22.9727 26.9844 22.9727C27.5371 22.9727 27.9844 23.4204 27.9844 23.9727V25.9727C27.9844 26.5249 27.5371 26.9727 26.9844 26.9727Z" fill="#CC1212"/>
<path d="M19.9844 20.9727H17.9844C16.8819 20.9727 15.9844 20.0756 15.9844 18.9727V14.9727C15.9844 13.8697 16.8819 12.9727 17.9844 12.9727H19.9844C21.0868 12.9727 21.9844 13.8697 21.9844 14.9727V18.9727C21.9844 20.0756 21.0868 20.9727 19.9844 20.9727ZM17.9844 14.9727V18.9727H19.9853L19.9844 14.9727H17.9844Z" fill="#CC1212"/>
<path d="M18.9844 14.9727C18.4317 14.9727 17.9844 14.5249 17.9844 13.9727V11.9727C17.9844 11.4204 18.4317 10.9727 18.9844 10.9727C19.5371 10.9727 19.9844 11.4204 19.9844 11.9727V13.9727C19.9844 14.5249 19.5371 14.9727 18.9844 14.9727Z" fill="#CC1212"/>
<path d="M18.9844 22.9727C18.4317 22.9727 17.9844 22.5249 17.9844 21.9727V19.9727C17.9844 19.4204 18.4317 18.9727 18.9844 18.9727C19.5371 18.9727 19.9844 19.4204 19.9844 19.9727V21.9727C19.9844 22.5249 19.5371 22.9727 18.9844 22.9727Z" fill="#CC1212"/>
<path d="M10.9852 10.9728C10.66 10.9728 10.3408 10.8145 10.1493 10.5225C9.84549 10.0611 9.97339 9.44105 10.4346 9.13727L18.0306 4.13727C18.387 3.90156 18.8576 3.91986 19.1955 4.18459L24.9024 8.64019L30.2774 3.26562C30.668 2.875 31.3008 2.875 31.6915 3.26562C32.0821 3.65625 32.0821 4.28905 31.6915 4.67968L25.6915 10.6797C25.333 11.0375 24.7667 11.0708 24.3691 10.7607L18.5303 6.20265L11.5343 10.8083C11.3653 10.9196 11.1738 10.9728 10.9854 10.9728L10.9852 10.9728Z" fill="#CC1212"/>
<path d="M30.914 7.97243C30.9062 7.97243 30.8984 7.97243 30.8906 7.97199C30.3388 7.95926 29.9013 7.50123 29.914 6.94942L29.96 4.9925L28.0031 5.02799H27.9845C27.4406 5.02799 26.9944 4.5925 26.9845 4.04605C26.9747 3.49381 27.4142 3.03822 27.966 3.02799L30.9651 2.9733C31.2834 2.96304 31.5004 3.07532 31.6925 3.26772C31.8849 3.46102 31.9894 3.7242 31.9836 3.99629L31.9144 6.99538C31.9017 7.5398 31.4564 7.97241 30.9144 7.97241L30.914 7.97243Z" fill="#CC1212"/>
</svg>