<svg width="39" height="39" viewBox="0 0 39 39" fill="none" xmlns="http://www.w3.org/2000/svg">
<g clip-path="url(#clip0_3369_11562)">
<g clip-path="url(#clip1_3369_11562)">
<path d="M15.0138 30.4086C13.5851 30.4071 12.2153 29.8388 11.2051 28.8286C10.1948 27.8183 9.62657 26.4486 9.625 25.0199C9.625 24.8625 9.68753 24.7115 9.79883 24.6002C9.91012 24.4889 10.0611 24.4264 10.2185 24.4264C10.3759 24.4264 10.5268 24.4889 10.6381 24.6002C10.7494 24.7115 10.812 24.8625 10.812 25.0199C10.812 25.8509 11.0584 26.6633 11.5201 27.3543C11.9818 28.0453 12.638 28.5838 13.4058 28.9018C14.1736 29.2199 15.0184 29.3031 15.8335 29.141C16.6486 28.9788 17.3973 28.5786 17.9849 27.991C18.5726 27.4034 18.9727 26.6547 19.1349 25.8396C19.297 25.0245 19.2138 24.1797 18.8958 23.4119C18.5777 22.6441 18.0392 21.9879 17.3482 21.5262C16.6572 21.0645 15.8448 20.818 15.0138 20.818C14.2778 20.8171 13.5549 21.0117 12.9188 21.3818L12.9722 21.4115C13.0404 21.4505 13.1003 21.5025 13.1484 21.5646C13.1964 21.6267 13.2318 21.6977 13.2525 21.7734C13.2732 21.8492 13.2787 21.9283 13.2688 22.0062C13.2589 22.0842 13.2337 22.1594 13.1948 22.2275C13.1558 22.2957 13.1038 22.3556 13.0417 22.4037C12.9796 22.4518 12.9086 22.4872 12.8328 22.5078C12.7571 22.5285 12.678 22.534 12.6001 22.5241C12.5221 22.5142 12.4469 22.4891 12.3787 22.4501L11.5301 21.9456C11.4484 21.8994 11.3789 21.8345 11.3272 21.7562C11.2755 21.6779 11.2431 21.5884 11.2327 21.4952C11.2223 21.4019 11.2341 21.3075 11.2672 21.2197C11.3004 21.132 11.3538 21.0533 11.4232 20.9901C12.074 20.4066 12.857 19.9901 13.7046 19.7765C14.5522 19.563 15.439 19.5589 16.2886 19.7645C17.1382 19.9701 17.925 20.3793 18.5811 20.9568C19.2373 21.5343 19.7431 22.2628 20.055 23.0793C20.3669 23.8959 20.4755 24.7761 20.3714 25.6439C20.2672 26.5118 19.9536 27.3413 19.4574 28.061C18.9612 28.7806 18.2974 29.3687 17.5233 29.7746C16.7491 30.1805 15.8879 30.392 15.0138 30.3908V30.4086Z" fill="url(#paint0_linear_3369_11562)"/>
<path d="M11.8131 22.0421C11.6655 22.0428 11.5229 21.9885 11.4132 21.8897C11.3034 21.791 11.2344 21.6548 11.2197 21.5079L11.101 20.3863C11.0852 20.2289 11.1327 20.0716 11.2328 19.9492C11.333 19.8268 11.4777 19.7492 11.6351 19.7334C11.7925 19.7177 11.9497 19.7651 12.0721 19.8653C12.1946 19.9655 12.2722 20.1102 12.2879 20.2676L12.4066 21.3892C12.4216 21.5449 12.3745 21.7002 12.2756 21.8213C12.1767 21.9424 12.0339 22.0196 11.8784 22.0361L11.8131 22.0421ZM25.0596 37.2529H10.733C9.94601 37.2529 9.19125 36.9403 8.63475 36.3838C8.07826 35.8273 7.76563 35.0725 7.76562 34.2855V32.6297C7.76562 32.4723 7.82815 32.3214 7.93945 32.2101C8.05075 32.0988 8.2017 32.0362 8.3591 32.0362H27.4335C27.5909 32.0362 27.7418 32.0988 27.8531 32.2101C27.9644 32.3214 28.027 32.4723 28.027 32.6297V34.2618C28.0301 34.6535 27.9557 35.0419 27.8079 35.4046C27.6602 35.7674 27.4421 36.0973 27.1663 36.3754C26.8904 36.6535 26.5622 36.8742 26.2007 37.0248C25.8391 37.1754 25.4513 37.2529 25.0596 37.2529ZM8.95258 33.2232V34.2618C8.95258 34.734 9.14016 35.1868 9.47406 35.5207C9.80796 35.8546 10.2608 36.0422 10.733 36.0422H25.0596C25.5318 36.0422 25.9846 35.8546 26.3185 35.5207C26.6524 35.1868 26.84 34.734 26.84 34.2618V33.2232H8.95258Z" fill="url(#paint1_linear_3369_11562)"/>
<path d="M27.4335 33.2246H8.3591C8.2017 33.2246 8.05075 33.162 7.93945 33.0507C7.82815 32.9394 7.76562 32.7885 7.76562 32.6311V6.2213C7.76563 5.4343 8.07826 4.67953 8.63475 4.12303C9.19125 3.56654 9.94601 3.25391 10.733 3.25391H25.0596C25.8466 3.25391 26.6013 3.56654 27.1578 4.12303C27.7143 4.67953 28.027 5.4343 28.027 6.2213V11.0641C28.027 11.2215 27.9644 11.3724 27.8531 11.4837C27.7418 11.595 27.5909 11.6576 27.4335 11.6576H22.7272V27.088H27.4335C27.5909 27.088 27.7418 27.1505 27.8531 27.2618C27.9644 27.3731 28.027 27.5241 28.027 27.6815V32.6311C28.027 32.7885 27.9644 32.9394 27.8531 33.0507C27.7418 33.162 27.5909 33.2246 27.4335 33.2246ZM8.95258 32.0376H26.84V28.2512H22.1337C21.9763 28.2512 21.8254 28.1887 21.7141 28.0774C21.6028 27.9661 21.5403 27.8151 21.5403 27.6577V11.0403C21.5403 10.8829 21.6028 10.732 21.7141 10.6207C21.8254 10.5094 21.9763 10.4469 22.1337 10.4469H26.84V6.2213C26.84 5.7491 26.6524 5.29624 26.3185 4.96234C25.9846 4.62844 25.5318 4.44086 25.0596 4.44086H10.733C10.2608 4.44086 9.80796 4.62844 9.47406 4.96234C9.14016 5.29624 8.95258 5.7491 8.95258 6.2213V32.0376Z" fill="url(#paint2_linear_3369_11562)"/>
<path d="M22.0508 7.40825H13.7421C13.6232 7.40837 13.507 7.37279 13.4086 7.30613C13.3102 7.23946 13.2341 7.14479 13.1901 7.03436L12.0032 4.06697C11.9673 3.9771 11.954 3.87984 11.9643 3.78364C11.9747 3.68744 12.0084 3.59523 12.0625 3.51504C12.117 3.4345 12.1904 3.36856 12.2762 3.32303C12.3621 3.2775 12.4579 3.25376 12.5551 3.25391H23.2377C23.3349 3.25376 23.4307 3.2775 23.5166 3.32303C23.6025 3.36856 23.6759 3.4345 23.7303 3.51504C23.7844 3.59523 23.8181 3.68744 23.8285 3.78364C23.8388 3.87984 23.8255 3.9771 23.7896 4.06697L22.6027 7.03436C22.5587 7.14479 22.4826 7.23946 22.3842 7.30613C22.2858 7.37279 22.1696 7.40837 22.0508 7.40825ZM14.1456 6.2213H21.6472L22.3594 4.44086H13.4572L14.1456 6.2213ZM33.2022 28.2512H22.1338C21.9764 28.2512 21.8255 28.1887 21.7142 28.0774C21.6029 27.9661 21.5404 27.8151 21.5404 27.6577V11.0403C21.5404 10.8829 21.6029 10.732 21.7142 10.6207C21.8255 10.5094 21.9764 10.4469 22.1338 10.4469H28.6028C28.7602 10.4469 28.9111 10.5094 29.0224 10.6207C29.1337 10.732 29.1962 10.8829 29.1962 11.0403V14.6724L33.1963 14.6309C33.2744 14.6304 33.3518 14.6454 33.4241 14.6749C33.4964 14.7045 33.5622 14.748 33.6176 14.803C33.6737 14.858 33.7183 14.9235 33.7489 14.9958C33.7795 15.0682 33.7954 15.1458 33.7957 15.2244V27.6577C33.7957 27.8151 33.7332 27.9661 33.6219 28.0774C33.5106 28.1887 33.3596 28.2512 33.2022 28.2512ZM22.7273 27.0643H32.6087V15.8475L28.6087 15.8891C28.5302 15.8924 28.4519 15.8787 28.3792 15.849C28.3065 15.8193 28.241 15.7743 28.1873 15.7169C28.1312 15.662 28.0866 15.5964 28.0561 15.5241C28.0255 15.4518 28.0096 15.3741 28.0093 15.2956V11.6576H22.7273V27.0643Z" fill="url(#paint3_linear_3369_11562)"/>
<path d="M28.6 15.8881C28.4443 15.8874 28.2951 15.8256 28.1845 15.7159C28.1285 15.661 28.0839 15.5954 28.0533 15.5231C28.0227 15.4508 28.0068 15.3731 28.0065 15.2946V11.0631C28.0072 10.9483 28.0413 10.8361 28.1045 10.7403C28.1677 10.6444 28.2573 10.5689 28.3626 10.523C28.4669 10.477 28.5823 10.4621 28.6949 10.48C28.8076 10.4979 28.9126 10.5479 28.9976 10.6239L33.5971 14.7783C33.6852 14.8584 33.7473 14.9632 33.7751 15.0791C33.8028 15.195 33.7951 15.3165 33.7528 15.4279C33.7106 15.5394 33.6358 15.6355 33.5381 15.7038C33.4405 15.7721 33.3245 15.8094 33.2054 15.8109L28.6059 15.8584L28.6 15.8881ZM29.1935 12.4043V14.6952H31.6801L29.1935 12.4043ZM12.4336 13.5676H10.7185C10.5611 13.5676 10.4101 13.505 10.2988 13.3937C10.1875 13.2824 10.125 13.1315 10.125 12.9741C10.125 12.8167 10.1875 12.6657 10.2988 12.5544C10.4101 12.4431 10.5611 12.3806 10.7185 12.3806H12.4336C12.591 12.3806 12.742 12.4431 12.8533 12.5544C12.9646 12.6657 13.0271 12.8167 13.0271 12.9741C13.0271 13.1315 12.9646 13.2824 12.8533 13.3937C12.742 13.505 12.591 13.5676 12.4336 13.5676ZM18.3684 13.5676H14.8728C14.7154 13.5676 14.5645 13.505 14.4532 13.3937C14.3419 13.2824 14.2793 13.1315 14.2793 12.9741C14.2793 12.8167 14.3419 12.6657 14.4532 12.5544C14.5645 12.4431 14.7154 12.3806 14.8728 12.3806H18.3684C18.5258 12.3806 18.6768 12.4431 18.7881 12.5544C18.8994 12.6657 18.9619 12.8167 18.9619 12.9741C18.9619 13.1315 18.8994 13.2824 18.7881 13.3937C18.6768 13.505 18.5258 13.5676 18.3684 13.5676ZM13.6918 26.8971C13.5361 26.8964 13.3869 26.8346 13.2764 26.725C13.1658 26.6138 13.1038 26.4634 13.1038 26.3066C13.1038 26.1498 13.1658 25.9994 13.2764 25.8882L14.4158 24.7427V22.6418C14.4158 22.4844 14.4784 22.3335 14.5897 22.2222C14.701 22.1109 14.8519 22.0484 15.0093 22.0484C15.1667 22.0484 15.3177 22.1109 15.429 22.2222C15.5403 22.3335 15.6028 22.4844 15.6028 22.6418V25.0157C15.6021 25.1714 15.5403 25.3206 15.4307 25.4312L14.1132 26.7487C13.9974 26.8512 13.8462 26.9044 13.6918 26.8971Z" fill="url(#paint4_linear_3369_11562)"/>
</g>
</g>
<defs>
<linearGradient id="paint0_linear_3369_11562" x1="18.0275" y1="19.6133" x2="17.978" y2="32.722" gradientUnits="userSpaceOnUse">
<stop stop-color="#005CAA"/>
<stop offset="1" stop-color="#64B0F1"/>
</linearGradient>
<linearGradient id="paint1_linear_3369_11562" x1="23.5515" y1="19.7305" x2="23.4821" y2="41.0079" gradientUnits="userSpaceOnUse">
<stop stop-color="#005CAA"/>
<stop offset="1" stop-color="#64B0F1"/>
</linearGradient>
<linearGradient id="paint2_linear_3369_11562" x1="23.5514" y1="3.25391" x2="23.3483" y2="39.6465" gradientUnits="userSpaceOnUse">
<stop stop-color="#005CAA"/>
<stop offset="1" stop-color="#64B0F1"/>
</linearGradient>
<linearGradient id="paint3_linear_3369_11562" x1="28.9726" y1="3.25391" x2="28.8415" y2="33.6079" gradientUnits="userSpaceOnUse">
<stop stop-color="#005CAA"/>
<stop offset="1" stop-color="#64B0F1"/>
</linearGradient>
<linearGradient id="paint4_linear_3369_11562" x1="28.5637" y1="10.4727" x2="28.5115" y2="30.4177" gradientUnits="userSpaceOnUse">
<stop stop-color="#005CAA"/>
<stop offset="1" stop-color="#64B0F1"/>
</linearGradient>
<clipPath id="clip0_3369_11562">
<rect width="37.9976" height="37.9848" fill="white" transform="translate(0.578125 0.574219)"/>
</clipPath>
<clipPath id="clip1_3369_11562">
<rect width="39.7356" height="40.3565" fill="white" transform="translate(1 -1)"/>
</clipPath>
</defs>
</svg>