  <svg width="38" height="38" viewBox="0 0 29 27" fill="none"
                                xmlns="http://www.w3.org/2000/svg">
                                <path fill-rule="evenodd" clip-rule="evenodd"
                                    d="M2.13604 0.451172C1.0213 0.451172 0.101999 1.36774 0.101999 2.48248V6.5505C0.0815746 7.47456 1.47816 7.47456 1.45748 6.5505V4.51646H19.4165C20.3206 4.51646 20.3206 3.16028 19.4165 3.16028H1.45748V2.48242C1.45748 2.09527 1.74864 1.80729 2.13604 1.80729H26.5338C26.921 1.80729 27.2117 2.09527 27.2117 2.48242V3.16028H24.1623C23.2583 3.16028 23.2583 4.51646 24.1623 4.51646H27.2117V19.429H24.4998V10.6176C24.4991 10.0605 23.8637 9.74191 23.4168 10.0748L18.4011 13.8381L13.3851 10.0752C13.2571 9.979 13.0994 9.93111 12.9396 9.94019C12.8475 9.94541 12.7574 9.96924 12.6748 10.0103L6.65554 13.0199C5.84673 13.4255 6.45493 14.6387 7.26374 14.2332L12.907 11.4108L17.993 15.226C18.2345 15.4078 18.567 15.4078 18.8084 15.226L23.1467 11.9715V19.4292H21.7906V16.0391C21.7962 15.6569 21.4849 15.3457 21.1029 15.3514C20.7287 15.3569 20.4296 15.6648 20.4351 16.0391V19.4292H19.0789V17.3952C19.0843 17.013 18.7732 16.7019 18.3911 16.7076C18.0168 16.713 17.7177 17.021 17.7232 17.3952V19.4292H16.367V16.0391C16.3727 15.6569 16.0613 15.3457 15.6794 15.3514C15.3052 15.3569 15.0061 15.6648 15.0115 16.0391V19.4292H13.6551V13.3269C13.6592 12.9458 13.3485 12.6363 12.9675 12.6417C12.5953 12.6488 12.2982 12.9545 12.3024 13.3269V19.4292H10.9462V14.6833C10.9507 14.3021 10.6398 13.9921 10.2586 13.9975C9.88502 14.003 9.58639 14.3098 9.59069 14.6833L9.59047 19.4292H8.23429V16.0391C8.23996 15.6569 7.9286 15.3457 7.54667 15.3514C7.172 15.3567 6.87264 15.6646 6.87811 16.0391V19.4292H5.52262V17.0578C5.52262 16.1537 4.16644 16.1537 4.16644 17.0578V19.4292H1.45705V11.9744C1.43753 11.0905 0.121083 11.0905 0.101562 11.9744V21.4631C0.101562 22.5779 1.02086 23.4937 2.1356 23.4937H10.5257L9.84789 24.8499L8.91203 24.8502C8.02811 24.8697 8.02811 26.1861 8.91203 26.2056H19.7573C20.6412 26.1861 20.6412 24.8697 19.7573 24.8502H18.8185L18.1401 23.494H26.5338C27.6485 23.494 28.5678 22.578 28.5678 21.4634V2.483C28.5678 1.36826 27.6485 0.451689 26.5338 0.451689L2.13604 0.451172ZM21.7903 3.16167C21.4161 3.16167 21.1124 3.46509 21.1124 3.83953C21.1124 4.21375 21.4159 4.51739 21.7903 4.51739C22.1645 4.51739 22.4682 4.21397 22.4682 3.83953C22.4682 3.46531 22.1647 3.16167 21.7903 3.16167ZM4.84619 14.0064C4.47197 14.0064 4.16833 14.3098 4.16833 14.6842C4.16833 15.0584 4.47175 15.3621 4.84619 15.3621C5.2204 15.3621 5.52405 15.0587 5.52405 14.6842C5.52405 14.31 5.22063 14.0064 4.84619 14.0064ZM1.45806 20.7849H27.2124V21.4635C27.2124 21.8506 26.9219 22.1413 26.5345 22.1413L2.13673 22.1409C1.74958 22.1409 1.45818 21.8504 1.45818 21.463L1.45806 20.7849ZM12.0425 23.4941H16.6282L17.3067 24.8503L11.3647 24.85L12.0425 23.4941Z"
                                    fill="#CC1212" />
                            </svg>