  <svg width="38" height="38" viewBox="0 0 32 26" fill="none"
                                xmlns="http://www.w3.org/2000/svg">
                                <path
                                    d="M31 0.457031H1C0.725 0.457031 0.5 0.682031 0.5 0.957031V25.057C0.5 25.332 0.725 25.557 1 25.557H31C31.275 25.557 31.5 25.332 31.5 25.057V0.957031C31.5 0.682031 31.275 0.457031 31 0.457031ZM30.5 1.45703V6.60703H1.5V1.45703H30.5ZM1.5 24.557V7.60732H30.5V24.557H1.5Z"
                                    fill="#CC1212" />
                                <path
                                    d="M2.72656 4.63281H20.2014C20.4764 4.63281 20.7014 4.40781 20.7014 4.13281C20.7014 3.85781 20.4764 3.63281 20.2014 3.63281H2.72656C2.45156 3.63281 2.22656 3.85781 2.22656 4.13281C2.22656 4.40781 2.45156 4.63281 2.72656 4.63281Z"
                                    fill="#CC1212" />
                                <path
                                    d="M28.7266 4.63125H28.9516C29.2266 4.63125 29.4516 4.40625 29.4516 4.13125V3.90625C29.4516 3.63125 29.2266 3.40625 28.9516 3.40625H28.7266C28.4516 3.40625 28.2266 3.63125 28.2266 3.90625V4.13125C28.2266 4.40625 28.4516 4.63125 28.7266 4.63125Z"
                                    fill="#CC1212" />
                                <path
                                    d="M25.8516 4.63125H26.0766C26.3516 4.63125 26.5766 4.40625 26.5766 4.13125V3.90625C26.5766 3.63125 26.3516 3.40625 26.0766 3.40625H25.8516C25.5766 3.40625 25.3516 3.63125 25.3516 3.90625V4.13125C25.3516 4.40625 25.5516 4.63125 25.8516 4.63125Z"
                                    fill="#CC1212" />
                                <path
                                    d="M22.6992 4.63125H22.9242C23.1992 4.63125 23.4242 4.40625 23.4242 4.13125V3.90625C23.4242 3.63125 23.1992 3.40625 22.9242 3.40625H22.6992C22.4242 3.40625 22.1992 3.63125 22.1992 3.90625V4.13125C22.1992 4.40625 22.4242 4.63125 22.6992 4.63125Z"
                                    fill="#CC1212" />
                                <path
                                    d="M8.47419 15.6066C9.99922 15.6066 11.2492 14.3566 11.2492 12.8316C11.2492 11.3066 9.99916 10.0566 8.47419 10.0566C6.94922 10.0566 5.69922 11.3066 5.69922 12.8316C5.69922 14.3566 6.94922 15.6066 8.47419 15.6066ZM8.47419 11.0816C9.44916 11.0816 10.2492 11.8816 10.2492 12.8565C10.2492 13.8315 9.44916 14.6315 8.47419 14.6315C7.49922 14.6315 6.69922 13.8315 6.69922 12.8565C6.69922 11.8816 7.49922 11.0816 8.47419 11.0816Z"
                                    fill="#CC1212" />
                                <path
                                    d="M9.65075 15.957H7.15075C4.95075 15.957 3.17578 17.732 3.17578 19.932V21.382C3.17578 21.657 3.40078 21.882 3.67578 21.882H13.1506C13.4256 21.882 13.6506 21.657 13.6506 21.382V19.932C13.6256 17.757 11.8506 15.957 9.65064 15.957H9.65075ZM12.6257 20.907H4.15087V19.957C4.15087 18.307 5.50087 16.9821 7.12584 16.9821H9.62584C11.2758 16.9821 12.6008 18.3321 12.6008 19.957V20.907H12.6257Z"
                                    fill="#CC1212" />
                                <path
                                    d="M15.5 11.2578H21.5749C21.8499 11.2578 22.0749 11.0328 22.0749 10.7578C22.0749 10.4828 21.8499 10.2578 21.5749 10.2578H15.5C15.225 10.2578 15 10.4828 15 10.7578C15 11.0328 15.225 11.2578 15.5 11.2578Z"
                                    fill="#CC1212" />
                                <path
                                    d="M26.9503 13.8066H15.5C15.225 13.8066 15 14.0316 15 14.3066C15 14.5816 15.225 14.8066 15.5 14.8066H26.9503C27.2253 14.8066 27.4503 14.5816 27.4503 14.3066C27.4503 14.0316 27.2253 13.8066 26.9503 13.8066Z"
                                    fill="#CC1212" />
                                <path
                                    d="M26.9503 17.3574H15.5C15.225 17.3574 15 17.5824 15 17.8574C15 18.1324 15.225 18.3574 15.5 18.3574H26.9503C27.2253 18.3574 27.4503 18.1324 27.4503 17.8574C27.4503 17.5824 27.2253 17.3574 26.9503 17.3574Z"
                                    fill="#CC1212" />
                                <path
                                    d="M26.9503 20.9062H15.5C15.225 20.9062 15 21.1313 15 21.4063C15 21.6813 15.225 21.9063 15.5 21.9063H26.9503C27.2253 21.9063 27.4503 21.6813 27.4503 21.4063C27.4503 21.1313 27.2253 20.9062 26.9503 20.9062Z"
                                    fill="#CC1212" />
                            </svg>