<svg width="38" height="38" viewBox="0 0 31 31" fill="none" xmlns="http://www.w3.org/2000/svg">
<path d="M20.5156 9.51562H26.0156V10.5156H20.5156V9.51562Z" fill="#CC1212"/>
<path d="M20.5156 12.0156H26.0156V13.0156H20.5156V12.0156Z" fill="#CC1212"/>
<path d="M20.5156 14.5156H26.0156V15.5156H20.5156V14.5156Z" fill="#CC1212"/>
<path d="M20.5156 17.0156H26.0156V18.0156H20.5156V17.0156Z" fill="#CC1212"/>
<path d="M20.5156 19.5156H26.0156V20.5156H20.5156V19.5156Z" fill="#CC1212"/>
<path d="M20.5156 22.0156H26.0156V23.0156H20.5156V22.0156Z" fill="#CC1212"/>
<path d="M7.5156 7.01562C7.11783 7.01562 6.73611 7.17366 6.45491 7.45491C6.17371 7.73616 6.01562 8.11788 6.01562 8.5156V23.5156C6.01562 23.9134 6.17366 24.2951 6.45491 24.5763C6.73616 24.8575 7.11788 25.0156 7.5156 25.0156H17.5156C17.9134 25.0156 18.2951 24.8575 18.5763 24.5763C18.8575 24.295 19.0156 23.9133 19.0156 23.5156V8.5156C19.0156 8.11783 18.8575 7.73611 18.5763 7.45491C18.295 7.17371 17.9133 7.01562 17.5156 7.01562H7.5156ZM18.0156 8.51562V23.5156C18.0156 23.6482 17.9629 23.7754 17.8692 23.8692C17.7754 23.9629 17.6482 24.0156 17.5156 24.0156H7.5156C7.23948 24.0156 7.0156 23.7917 7.0156 23.5156V8.51562C7.0156 8.23951 7.23948 8.01562 7.5156 8.01562H17.5156C17.6482 8.01562 17.7754 8.0683 17.8692 8.16205C17.9629 8.2558 18.0156 8.38304 18.0156 8.51562Z" fill="#CC1212"/>
<path d="M12.5156 14.5156C13.1786 14.5156 13.8145 14.2522 14.2835 13.7835C14.7523 13.3145 15.0156 12.6786 15.0156 12.0156C15.0156 11.3527 14.7522 10.7168 14.2835 10.2477C13.8145 9.77899 13.1786 9.51562 12.5156 9.51562C11.8527 9.51562 11.2168 9.77902 10.7477 10.2477C10.279 10.7167 10.0156 11.3527 10.0156 12.0156C10.0165 12.6784 10.2801 13.3139 10.7487 13.7826C11.2174 14.2511 11.8529 14.5147 12.5156 14.5156ZM12.5156 10.5156C12.9134 10.5156 13.2951 10.6737 13.5763 10.9549C13.8575 11.2362 14.0156 11.6179 14.0156 12.0156C14.0156 12.4133 13.8576 12.7951 13.5763 13.0763C13.2951 13.3575 12.9133 13.5156 12.5156 13.5156C12.1179 13.5156 11.7361 13.3575 11.4549 13.0763C11.1737 12.795 11.0157 12.4133 11.0157 12.0156C11.0157 11.6179 11.1737 11.2361 11.4549 10.9549C11.7362 10.6737 12.1179 10.5156 12.5156 10.5156Z" fill="#CC1212"/>
<path d="M14.5156 15.0156H10.5156C9.98527 15.0156 9.47654 15.2263 9.10134 15.6013C8.72634 15.9766 8.51562 16.4853 8.51562 17.0156V21.5185L8.71317 21.6685C9.79774 22.5241 11.1344 22.9976 12.5156 23.0156C13.896 22.9969 15.2317 22.5234 16.3156 21.6685L16.5156 21.5185V17.0156C16.5156 16.4853 16.3049 15.9765 15.9299 15.6013C15.5547 15.2263 15.046 15.0156 14.5156 15.0156ZM15.5156 21.0156C14.6484 21.6609 13.5964 22.0094 12.5156 22.0094C11.4348 22.0094 10.3828 21.661 9.51562 21.0156V17.0156C9.51562 16.7504 9.62099 16.496 9.80848 16.3085C9.99598 16.121 10.2504 16.0156 10.5156 16.0156H14.5156C14.7808 16.0156 15.0353 16.121 15.2228 16.3085C15.4103 16.496 15.5156 16.7504 15.5156 17.0156V21.0156Z" fill="#CC1212"/>
<path d="M0.015625 0.015625V30.0156H30.0156V28.5156H29.0156V29.0156H1.01562V27.5156H30.0156V26.0156H29.0156V26.5156H1.01562V5.01562H29.0156V23.0156H30.0156V0.015625H0.015625ZM29.0156 4.01562H1.01562V1.01562H29.0156V4.01562Z" fill="#CC1212"/>
<path d="M29.0156 24.0156H30.0156V25.0156H29.0156V24.0156Z" fill="#CC1212"/>
<path d="M2.01562 2.01562H3.01562V3.01562H2.01562V2.01562Z" fill="#CC1212"/>
<path d="M4.01562 2.01562H5.01562V3.01562H4.01562V2.01562Z" fill="#CC1212"/>
<path d="M6.01562 2.01562H7.01562V3.01562H6.01562V2.01562Z" fill="#CC1212"/>
<path d="M8.01562 2.01562H9.01562V3.01562H8.01562V2.01562Z" fill="#CC1212"/>
<path d="M28.0156 8.51563V6.01562H25.5156V7.01563H27.0156V8.51563H28.0156Z" fill="#CC1212"/>
<path d="M2.01562 6.01562H4.51563V7.01562H2.01562V6.01562Z" fill="#CC1212"/>
<path d="M2.01562 8.01562H4.51563V9.01562H2.01562V8.01562Z" fill="#CC1212"/>
<path d="M2.01562 23.0156V25.5156H4.51563V24.5156H3.01563V23.0156H2.01562Z" fill="#CC1212"/>
</svg>