<svg width="38" height="38" viewBox="0 0 26 28" fill="none" xmlns="http://www.w3.org/2000/svg">
<path d="M20.5867 0.699219H3.48672C1.91922 0.699219 0.636719 1.98172 0.636719 3.54922V23.9742C0.636719 25.8267 2.72672 27.2992 5.29172 27.2992H24.8617C25.1467 27.2992 25.3367 27.1092 25.3367 26.8242V5.92422C25.3367 5.63922 25.1467 5.44922 24.8617 5.44922H21.0617V1.17422C21.0617 0.889219 20.8717 0.699219 20.5867 0.699219ZM3.48672 1.64922H20.1117V5.44922H19.1617V4.49922C19.1617 4.21422 18.9717 4.02422 18.6867 4.02422H17.7367V3.07422C17.7367 2.78922 17.5467 2.59922 17.2617 2.59922H5.38672C5.10172 2.59922 4.91172 2.78922 4.91172 3.07422V5.44922H3.48672C2.44172 5.44922 1.58672 4.59422 1.58672 3.54922C1.58672 2.50422 2.44172 1.64922 3.48672 1.64922ZM17.2617 5.44922H7.28672V4.97422H18.2117V5.44922H17.2617ZM16.7867 4.02422H6.81172C6.52672 4.02422 6.33672 4.21422 6.33672 4.49922V5.44922H5.86172V3.54922H16.7867V4.02422ZM1.58672 23.9742V5.68645C2.10922 6.16145 2.77422 6.39895 3.48672 6.39895V26.0167C2.34672 25.6367 1.58672 24.8292 1.58672 23.9742ZM24.3867 26.3492H5.29172C5.00672 26.3492 4.72172 26.3017 4.43672 26.2542V6.39922H24.3867V26.3492Z" fill="url(#paint0_linear_3703_35761)"/>
<path d="M20.5867 0.699219H3.48672C1.91922 0.699219 0.636719 1.98172 0.636719 3.54922V23.9742C0.636719 25.8267 2.72672 27.2992 5.29172 27.2992H24.8617C25.1467 27.2992 25.3367 27.1092 25.3367 26.8242V5.92422C25.3367 5.63922 25.1467 5.44922 24.8617 5.44922H21.0617V1.17422C21.0617 0.889219 20.8717 0.699219 20.5867 0.699219ZM3.48672 1.64922H20.1117V5.44922H19.1617V4.49922C19.1617 4.21422 18.9717 4.02422 18.6867 4.02422H17.7367V3.07422C17.7367 2.78922 17.5467 2.59922 17.2617 2.59922H5.38672C5.10172 2.59922 4.91172 2.78922 4.91172 3.07422V5.44922H3.48672C2.44172 5.44922 1.58672 4.59422 1.58672 3.54922C1.58672 2.50422 2.44172 1.64922 3.48672 1.64922ZM17.2617 5.44922H7.28672V4.97422H18.2117V5.44922H17.2617ZM16.7867 4.02422H6.81172C6.52672 4.02422 6.33672 4.21422 6.33672 4.49922V5.44922H5.86172V3.54922H16.7867V4.02422ZM1.58672 23.9742V5.68645C2.10922 6.16145 2.77422 6.39895 3.48672 6.39895V26.0167C2.34672 25.6367 1.58672 24.8292 1.58672 23.9742ZM24.3867 26.3492H5.29172C5.00672 26.3492 4.72172 26.3017 4.43672 26.2542V6.39922H24.3867V26.3492Z" fill="black" fill-opacity="0.2"/>
<path d="M6.33594 8.29922V16.8492C6.33594 17.1342 6.52594 17.3242 6.81094 17.3242H22.0109C22.2959 17.3242 22.4859 17.1342 22.4859 16.8492V8.29922C22.4859 8.01422 22.2959 7.82422 22.0109 7.82422H6.81094C6.52594 7.82422 6.33594 8.01422 6.33594 8.29922ZM7.28594 8.77422H21.5359V16.3742H7.28594V8.77422Z" fill="url(#paint1_linear_3703_35761)"/>
<path d="M6.33594 8.29922V16.8492C6.33594 17.1342 6.52594 17.3242 6.81094 17.3242H22.0109C22.2959 17.3242 22.4859 17.1342 22.4859 16.8492V8.29922C22.4859 8.01422 22.2959 7.82422 22.0109 7.82422H6.81094C6.52594 7.82422 6.33594 8.01422 6.33594 8.29922ZM7.28594 8.77422H21.5359V16.3742H7.28594V8.77422Z" fill="black" fill-opacity="0.2"/>
<defs>
<linearGradient id="paint0_linear_3703_35761" x1="12.9867" y1="0.699219" x2="12.9867" y2="27.2992" gradientUnits="userSpaceOnUse">
<stop stop-color="#FF0F0F"/>
<stop offset="1" stop-color="#FF4849"/>
</linearGradient>
<linearGradient id="paint1_linear_3703_35761" x1="14.4109" y1="7.82422" x2="14.4109" y2="17.3242" gradientUnits="userSpaceOnUse">
<stop stop-color="#FF0F0F"/>
<stop offset="1" stop-color="#FF4849"/>
</linearGradient>
</defs>
</svg>