<svg width="38" height="38" viewBox="0 0 44 44" fill="none" xmlns="http://www.w3.org/2000/svg">
<path fill-rule="evenodd" clip-rule="evenodd" d="M25.5206 0.799382C25.4499 0.499382 25.2025 0.273045 24.8981 0.229519C22.8102 -0.0765064 20.6891 -0.0765064 18.6011 0.229519C18.2968 0.273046 18.049 0.499382 17.9787 0.799382L17.1899 4.15193C15.5549 4.57481 13.9859 5.22438 12.5295 6.08084C12.5308 6.08084 9.60149 4.26875 9.60149 4.26875C9.34033 4.1067 9.00585 4.12177 8.76009 4.30491C7.06654 5.56654 5.56654 7.06654 4.30491 8.76009C4.12177 9.00618 4.10704 9.34066 4.26875 9.60149L6.08084 12.5309C5.22436 13.986 4.57484 15.5549 4.1503 17.1899C4.15164 17.1899 0.799382 17.9787 0.799382 17.9787C0.499382 18.0493 0.273045 18.2968 0.229519 18.6011C-0.0765064 20.689 -0.0765064 22.8101 0.229519 24.8981C0.273046 25.2025 0.499382 25.4503 0.799382 25.5206L4.15193 26.3094C4.57481 27.9443 5.22438 29.5133 6.08084 30.9698C6.08084 30.9684 4.26875 33.8978 4.26875 33.8978C4.1067 34.1589 4.12177 34.4934 4.30491 34.7392C5.56654 36.4327 7.06654 37.9327 8.76009 39.1943C9.00618 39.3775 9.34066 39.3922 9.60149 39.2305L12.5309 37.4184C13.986 38.2749 15.5549 38.9244 17.1899 39.349C17.1899 39.3476 17.9787 42.6999 17.9787 42.6999C18.0493 42.9999 18.2968 43.2262 18.6011 43.2697C20.689 43.5758 22.8101 43.5758 24.8981 43.2697C25.2025 43.2262 25.4503 42.9999 25.5206 42.6999L26.3094 39.3473C27.9443 38.9245 29.5133 38.2749 30.9698 37.4184C30.9684 37.4184 33.8978 39.2305 33.8978 39.2305C34.1589 39.3926 34.4934 39.3775 34.7392 39.1943C36.4327 37.9327 37.9327 36.4327 39.1944 34.7392C39.3775 34.4931 39.3922 34.1586 39.2305 33.8978L37.4184 30.9684C38.2749 29.5132 38.9244 27.9443 39.349 26.3094C39.3476 26.3094 42.6999 25.5206 42.6999 25.5206C42.9999 25.4499 43.2262 25.2025 43.2697 24.8981C43.5758 22.8102 43.5758 20.6891 43.2697 18.6011C43.2262 18.2968 42.9999 18.049 42.6999 17.9787L39.3473 17.1899C38.9245 15.5549 38.2749 13.9859 37.4184 12.5295C37.4184 12.5308 39.2305 9.60149 39.2305 9.60149C39.3926 9.34033 39.3775 9.00585 39.1944 8.76009C37.9327 7.06654 36.4327 5.56654 34.7392 4.30491C34.4931 4.12177 34.1586 4.10703 33.8978 4.26875L30.9684 6.08084C29.5132 5.22436 27.9443 4.57484 26.3094 4.1503C26.3094 4.15164 25.5206 0.799382 25.5206 0.799382ZM24.1779 1.64681L24.9551 4.94244C25.021 5.22001 25.2386 5.43597 25.5162 5.50059C27.3072 5.9161 29.0171 6.62422 30.5757 7.59759C30.8188 7.74759 31.1248 7.74893 31.3675 7.59893L34.2477 5.81701C35.5257 6.82047 36.6792 7.97256 37.6826 9.25193L35.9007 12.1321C35.7507 12.3752 35.752 12.6812 35.902 12.924C36.8757 14.4826 37.5835 16.1925 37.999 17.9834C38.0637 18.261 38.2796 18.4783 38.5572 18.5446L41.8528 19.3217C42.0477 20.9342 42.0477 22.5662 41.8542 24.1786L38.5572 24.9557C38.2796 25.0217 38.0636 25.2393 37.999 25.5169C37.5835 27.3079 36.8754 29.0178 35.902 30.5763C35.752 30.8194 35.7507 31.1255 35.9007 31.3682L37.6826 34.2484C36.6791 35.5264 35.527 36.6798 34.2477 37.6833L31.3675 35.9014C31.1244 35.7514 30.8184 35.7527 30.5756 35.9027C29.017 36.8763 27.3071 37.5842 25.5162 37.9997C25.2386 38.0643 25.0213 38.2803 24.955 38.5579L24.1779 41.8535C22.5654 42.0484 20.9334 42.0484 19.321 41.8548L18.5439 38.5578C18.4779 38.2803 18.2603 38.0643 17.9827 37.9997C16.1917 37.5842 14.4818 36.8761 12.9232 35.9027C12.6802 35.7527 12.3741 35.7513 12.1314 35.9013L9.25122 37.6833C7.97322 36.6798 6.81977 35.5277 5.81631 34.2483L7.59822 31.3682C7.74822 31.1251 7.74689 30.8191 7.59688 30.5763C6.62325 29.0177 5.91543 27.3078 5.49988 25.5169C5.43526 25.2393 5.21931 25.022 4.94174 24.9557L1.64611 24.1786C1.45125 22.5661 1.45125 20.9341 1.64477 19.3217L4.94177 18.5445C5.21934 18.4786 5.4353 18.2609 5.49992 17.9834C5.91543 16.1924 6.62354 14.4825 7.59692 12.9239C7.74692 12.6808 7.74825 12.3748 7.59826 12.1321L5.81634 9.25189C6.8198 7.97389 7.97188 6.82044 9.25126 5.81698L12.1314 7.59889C12.3745 7.74889 12.6805 7.74756 12.9233 7.59756C14.4819 6.62393 16.1918 5.9161 17.9827 5.50056C18.2603 5.43594 18.4776 5.21998 18.5439 4.94241L19.321 1.64541C20.9335 1.45188 22.5655 1.45188 24.1779 1.64541V1.64681ZM21.7495 8.1899C14.2658 8.1899 8.18948 14.2663 8.18948 21.7499C8.18948 29.2335 14.2658 35.3099 21.7495 35.3099C29.2331 35.3099 35.3095 29.2335 35.3095 21.7499C35.3095 14.2663 29.2331 8.1899 21.7495 8.1899ZM21.7495 9.6899C28.405 9.6899 33.8095 15.0943 33.8095 21.7499C33.8095 28.4055 28.4051 33.8099 21.7495 33.8099C15.0938 33.8099 9.68948 28.4055 9.68948 21.7499C9.68948 15.0943 15.0938 9.6899 21.7495 9.6899ZM23.1236 14.0097C22.8567 13.9813 22.5852 13.9679 22.312 13.9679C22.0374 13.9679 21.7659 13.9813 21.499 14.0097V12.3731C21.499 11.9593 21.1628 11.6231 20.749 11.6231C20.3352 11.6231 19.999 11.9593 19.999 12.3731V14.3171C16.8309 15.3042 14.5284 18.2589 14.5284 21.7495C14.5284 24.946 16.4603 27.6939 19.2172 28.8908V31.1258C19.2172 31.5396 19.5534 31.8758 19.9672 31.8758C20.381 31.8758 20.7172 31.5396 20.7172 31.1258V29.3676C21.2318 29.4757 21.7642 29.531 22.3117 29.531H22.3418V31.1254C22.3418 31.5393 22.678 31.8754 23.0918 31.8754C23.5056 31.8754 23.8418 31.5393 23.8418 31.1254V29.381C25.2293 29.1034 26.4849 28.4569 27.5004 27.5478C27.8078 27.2719 27.8349 26.7965 27.5573 26.4888C27.2814 26.1798 26.8073 26.1543 26.4983 26.4302C25.3867 27.4247 23.9199 28.0307 22.3117 28.0307C18.8436 28.0307 16.0281 25.2168 16.0281 21.7488C16.0281 18.2807 18.8436 15.4668 22.3117 15.4668C23.9199 15.4668 25.3867 16.0729 26.4983 17.0673C26.8074 17.3432 27.2815 17.3177 27.5573 17.0087C27.8349 16.7013 27.8078 16.2256 27.5004 15.9497C26.6784 15.2148 25.7018 14.6522 24.6233 14.3161V12.3721C24.6233 11.9582 24.2872 11.6221 23.8733 11.6221C23.4595 11.6221 23.1233 11.9582 23.1233 12.3721V14.0087L23.1236 14.0097Z" fill="url(#paint0_linear_3620_16844)"/>
<path fill-rule="evenodd" clip-rule="evenodd" d="M25.5206 0.799382C25.4499 0.499382 25.2025 0.273045 24.8981 0.229519C22.8102 -0.0765064 20.6891 -0.0765064 18.6011 0.229519C18.2968 0.273046 18.049 0.499382 17.9787 0.799382L17.1899 4.15193C15.5549 4.57481 13.9859 5.22438 12.5295 6.08084C12.5308 6.08084 9.60149 4.26875 9.60149 4.26875C9.34033 4.1067 9.00585 4.12177 8.76009 4.30491C7.06654 5.56654 5.56654 7.06654 4.30491 8.76009C4.12177 9.00618 4.10704 9.34066 4.26875 9.60149L6.08084 12.5309C5.22436 13.986 4.57484 15.5549 4.1503 17.1899C4.15164 17.1899 0.799382 17.9787 0.799382 17.9787C0.499382 18.0493 0.273045 18.2968 0.229519 18.6011C-0.0765064 20.689 -0.0765064 22.8101 0.229519 24.8981C0.273046 25.2025 0.499382 25.4503 0.799382 25.5206L4.15193 26.3094C4.57481 27.9443 5.22438 29.5133 6.08084 30.9698C6.08084 30.9684 4.26875 33.8978 4.26875 33.8978C4.1067 34.1589 4.12177 34.4934 4.30491 34.7392C5.56654 36.4327 7.06654 37.9327 8.76009 39.1943C9.00618 39.3775 9.34066 39.3922 9.60149 39.2305L12.5309 37.4184C13.986 38.2749 15.5549 38.9244 17.1899 39.349C17.1899 39.3476 17.9787 42.6999 17.9787 42.6999C18.0493 42.9999 18.2968 43.2262 18.6011 43.2697C20.689 43.5758 22.8101 43.5758 24.8981 43.2697C25.2025 43.2262 25.4503 42.9999 25.5206 42.6999L26.3094 39.3473C27.9443 38.9245 29.5133 38.2749 30.9698 37.4184C30.9684 37.4184 33.8978 39.2305 33.8978 39.2305C34.1589 39.3926 34.4934 39.3775 34.7392 39.1943C36.4327 37.9327 37.9327 36.4327 39.1944 34.7392C39.3775 34.4931 39.3922 34.1586 39.2305 33.8978L37.4184 30.9684C38.2749 29.5132 38.9244 27.9443 39.349 26.3094C39.3476 26.3094 42.6999 25.5206 42.6999 25.5206C42.9999 25.4499 43.2262 25.2025 43.2697 24.8981C43.5758 22.8102 43.5758 20.6891 43.2697 18.6011C43.2262 18.2968 42.9999 18.049 42.6999 17.9787L39.3473 17.1899C38.9245 15.5549 38.2749 13.9859 37.4184 12.5295C37.4184 12.5308 39.2305 9.60149 39.2305 9.60149C39.3926 9.34033 39.3775 9.00585 39.1944 8.76009C37.9327 7.06654 36.4327 5.56654 34.7392 4.30491C34.4931 4.12177 34.1586 4.10703 33.8978 4.26875L30.9684 6.08084C29.5132 5.22436 27.9443 4.57484 26.3094 4.1503C26.3094 4.15164 25.5206 0.799382 25.5206 0.799382ZM24.1779 1.64681L24.9551 4.94244C25.021 5.22001 25.2386 5.43597 25.5162 5.50059C27.3072 5.9161 29.0171 6.62422 30.5757 7.59759C30.8188 7.74759 31.1248 7.74893 31.3675 7.59893L34.2477 5.81701C35.5257 6.82047 36.6792 7.97256 37.6826 9.25193L35.9007 12.1321C35.7507 12.3752 35.752 12.6812 35.902 12.924C36.8757 14.4826 37.5835 16.1925 37.999 17.9834C38.0637 18.261 38.2796 18.4783 38.5572 18.5446L41.8528 19.3217C42.0477 20.9342 42.0477 22.5662 41.8542 24.1786L38.5572 24.9557C38.2796 25.0217 38.0636 25.2393 37.999 25.5169C37.5835 27.3079 36.8754 29.0178 35.902 30.5763C35.752 30.8194 35.7507 31.1255 35.9007 31.3682L37.6826 34.2484C36.6791 35.5264 35.527 36.6798 34.2477 37.6833L31.3675 35.9014C31.1244 35.7514 30.8184 35.7527 30.5756 35.9027C29.017 36.8763 27.3071 37.5842 25.5162 37.9997C25.2386 38.0643 25.0213 38.2803 24.955 38.5579L24.1779 41.8535C22.5654 42.0484 20.9334 42.0484 19.321 41.8548L18.5439 38.5578C18.4779 38.2803 18.2603 38.0643 17.9827 37.9997C16.1917 37.5842 14.4818 36.8761 12.9232 35.9027C12.6802 35.7527 12.3741 35.7513 12.1314 35.9013L9.25122 37.6833C7.97322 36.6798 6.81977 35.5277 5.81631 34.2483L7.59822 31.3682C7.74822 31.1251 7.74689 30.8191 7.59688 30.5763C6.62325 29.0177 5.91543 27.3078 5.49988 25.5169C5.43526 25.2393 5.21931 25.022 4.94174 24.9557L1.64611 24.1786C1.45125 22.5661 1.45125 20.9341 1.64477 19.3217L4.94177 18.5445C5.21934 18.4786 5.4353 18.2609 5.49992 17.9834C5.91543 16.1924 6.62354 14.4825 7.59692 12.9239C7.74692 12.6808 7.74825 12.3748 7.59826 12.1321L5.81634 9.25189C6.8198 7.97389 7.97188 6.82044 9.25126 5.81698L12.1314 7.59889C12.3745 7.74889 12.6805 7.74756 12.9233 7.59756C14.4819 6.62393 16.1918 5.9161 17.9827 5.50056C18.2603 5.43594 18.4776 5.21998 18.5439 4.94241L19.321 1.64541C20.9335 1.45188 22.5655 1.45188 24.1779 1.64541V1.64681ZM21.7495 8.1899C14.2658 8.1899 8.18948 14.2663 8.18948 21.7499C8.18948 29.2335 14.2658 35.3099 21.7495 35.3099C29.2331 35.3099 35.3095 29.2335 35.3095 21.7499C35.3095 14.2663 29.2331 8.1899 21.7495 8.1899ZM21.7495 9.6899C28.405 9.6899 33.8095 15.0943 33.8095 21.7499C33.8095 28.4055 28.4051 33.8099 21.7495 33.8099C15.0938 33.8099 9.68948 28.4055 9.68948 21.7499C9.68948 15.0943 15.0938 9.6899 21.7495 9.6899ZM23.1236 14.0097C22.8567 13.9813 22.5852 13.9679 22.312 13.9679C22.0374 13.9679 21.7659 13.9813 21.499 14.0097V12.3731C21.499 11.9593 21.1628 11.6231 20.749 11.6231C20.3352 11.6231 19.999 11.9593 19.999 12.3731V14.3171C16.8309 15.3042 14.5284 18.2589 14.5284 21.7495C14.5284 24.946 16.4603 27.6939 19.2172 28.8908V31.1258C19.2172 31.5396 19.5534 31.8758 19.9672 31.8758C20.381 31.8758 20.7172 31.5396 20.7172 31.1258V29.3676C21.2318 29.4757 21.7642 29.531 22.3117 29.531H22.3418V31.1254C22.3418 31.5393 22.678 31.8754 23.0918 31.8754C23.5056 31.8754 23.8418 31.5393 23.8418 31.1254V29.381C25.2293 29.1034 26.4849 28.4569 27.5004 27.5478C27.8078 27.2719 27.8349 26.7965 27.5573 26.4888C27.2814 26.1798 26.8073 26.1543 26.4983 26.4302C25.3867 27.4247 23.9199 28.0307 22.3117 28.0307C18.8436 28.0307 16.0281 25.2168 16.0281 21.7488C16.0281 18.2807 18.8436 15.4668 22.3117 15.4668C23.9199 15.4668 25.3867 16.0729 26.4983 17.0673C26.8074 17.3432 27.2815 17.3177 27.5573 17.0087C27.8349 16.7013 27.8078 16.2256 27.5004 15.9497C26.6784 15.2148 25.7018 14.6522 24.6233 14.3161V12.3721C24.6233 11.9582 24.2872 11.6221 23.8733 11.6221C23.4595 11.6221 23.1233 11.9582 23.1233 12.3721V14.0087L23.1236 14.0097Z" fill="black" fill-opacity="0.2"/>
<defs>
<linearGradient id="paint0_linear_3620_16844" x1="21.7496" y1="0" x2="21.7496" y2="43.4993" gradientUnits="userSpaceOnUse">
<stop stop-color="#FF0F0F"/>
<stop offset="1" stop-color="#FF4849"/>
</linearGradient>
</defs>
</svg>