<svg width="39" height="39" viewBox="0 0 39 35" fill="none" xmlns="http://www.w3.org/2000/svg">
<path d="M5.50898 10.4068C5.58216 10.407 5.65464 10.3926 5.72224 10.3646C5.78985 10.3366 5.85125 10.2955 5.9029 10.2436L9.124 7.02253C9.22838 6.91816 9.28702 6.77659 9.28702 6.62898C9.28702 6.48137 9.22838 6.33981 9.124 6.23543C9.01963 6.13106 8.87806 6.07242 8.73045 6.07242C8.58284 6.07242 8.44128 6.13106 8.3369 6.23543L5.50898 9.06336L4.29235 7.84673C4.24105 7.79356 4.17968 7.75115 4.11181 7.72196C4.04394 7.69277 3.97094 7.67738 3.89706 7.67671C3.82319 7.67603 3.74992 7.69007 3.68153 7.71802C3.61314 7.74596 3.55099 7.78724 3.49873 7.83946C3.44646 7.89167 3.40512 7.95378 3.37711 8.02214C3.34911 8.09051 3.33499 8.16376 3.3356 8.23764C3.33621 8.31152 3.35152 8.38453 3.38065 8.45243C3.40978 8.52032 3.45213 8.58174 3.50525 8.63309L5.1158 10.2436C5.16732 10.2954 5.22859 10.3365 5.29607 10.3646C5.36355 10.3926 5.43591 10.4069 5.50898 10.4068ZM32.7274 18.0523C32.8374 18.0523 32.945 18.0197 33.0365 17.9586C33.128 17.8974 33.1993 17.8105 33.2414 17.7089C33.2835 17.6072 33.2945 17.4953 33.2731 17.3874C33.2516 17.2795 33.1986 17.1803 33.1208 17.1025C33.043 17.0247 32.9438 16.9717 32.8359 16.9502C32.728 16.9288 32.6161 16.9398 32.5145 16.9819C32.4128 17.024 32.3259 17.0953 32.2648 17.1868C32.2036 17.2783 32.171 17.3859 32.171 17.4959C32.171 17.6435 32.2296 17.785 32.3339 17.8894C32.4383 17.9937 32.5798 18.0523 32.7274 18.0523ZM32.0924 27.3848C31.8052 27.3818 31.5256 27.4769 31.2999 27.6544C31.0741 27.8319 30.9157 28.0812 30.8508 28.3609C30.786 28.6407 30.8185 28.9342 30.9431 29.1929C31.0677 29.4517 31.2768 29.6602 31.536 29.7839V31.2194C31.536 31.3669 31.5946 31.5085 31.6989 31.6128C31.8033 31.7171 31.9448 31.7758 32.0924 31.7758C32.2399 31.7758 32.3814 31.7171 32.4858 31.6128C32.5901 31.5085 32.6487 31.3669 32.6487 31.2194V29.7839C32.9079 29.6602 33.117 29.4517 33.2416 29.1929C33.3662 28.9342 33.3987 28.6407 33.3339 28.3609C33.269 28.0812 33.1106 27.8319 32.8848 27.6544C32.6591 27.4769 32.3795 27.3818 32.0924 27.3848ZM36.2467 25.0554V23.2905C36.247 22.8316 36.1615 22.3767 35.9945 21.9492C36.0866 21.8476 36.1379 21.7155 36.1384 21.5783V10.7474C36.1376 10.0098 35.8443 9.30264 35.3227 8.7811C34.8012 8.25955 34.094 7.96621 33.3565 7.96542H12.1782C12.2215 7.61818 12.2433 7.2686 12.2435 6.91868V4.12562C12.2435 3.99864 12.2001 3.87547 12.1205 3.77655C12.0409 3.67764 11.9298 3.60893 11.8058 3.58185C10.7928 3.361 9.81384 3.00598 8.89477 2.5262C8.09403 2.10723 7.34468 1.59662 6.66181 1.00467C6.562 0.918156 6.43471 0.869919 6.30264 0.86856C6.17056 0.867201 6.0423 0.912809 5.94074 0.997248C5.40342 1.44539 4.82944 1.84765 4.22484 2.19978C3.16047 2.81923 2.01062 3.27843 0.812342 3.56256C0.690294 3.59114 0.581472 3.66009 0.503511 3.75825C0.425551 3.85641 0.383021 3.97801 0.382812 4.10336L0.382813 6.91645C0.382813 8.73917 0.967388 10.5292 2.07423 12.0945C2.2404 12.3305 2.41918 12.5597 2.60836 12.7837V24.2468C2.60914 24.9843 2.90249 25.6915 3.42403 26.213C3.94557 26.7345 4.65271 27.0279 5.39028 27.0287H25.9165C25.8522 27.2659 25.8198 27.5106 25.82 27.7564V31.4798C25.8208 32.2173 26.1142 32.9245 26.6357 33.446C27.1572 33.9676 27.8644 34.2609 28.602 34.2617H35.5835C36.3211 34.2609 37.0282 33.9676 37.5497 33.446C38.0713 32.9245 38.3646 32.2173 38.3654 31.4798V27.7564C38.3639 27.1349 38.1548 26.5317 37.7712 26.0427C37.3875 25.5537 36.8515 25.207 36.2482 25.0576L36.2467 25.0554ZM33.3535 9.07597C33.7961 9.07636 34.2204 9.25234 34.5333 9.56529C34.8463 9.87823 35.0223 10.3026 35.0226 10.7451V12.3772C34.1912 12.2559 33.421 11.8694 32.8268 11.2753C32.2325 10.6812 31.8459 9.91114 31.7244 9.07968L33.3535 9.07597ZM35.1339 23.2905V24.9745H29.0508V23.2905C29.0508 22.6019 29.3243 21.9415 29.8113 21.4545C30.2982 20.9676 30.9586 20.694 31.6472 20.694H32.5375C32.8786 20.6938 33.2164 20.7609 33.5315 20.8913C33.8467 21.0217 34.1331 21.2129 34.3744 21.454C34.6157 21.6951 34.807 21.9814 34.9376 22.2965C35.0682 22.6117 35.1354 22.9494 35.1354 23.2905H35.1339ZM2.98299 11.4521C2.00968 10.076 1.49929 8.50771 1.49929 6.91645V4.53586C2.64991 4.2233 3.75455 3.76114 4.78494 3.16122C5.30898 2.85607 5.81209 2.51629 6.29089 2.14414C6.94183 2.66763 7.64252 3.12606 8.3829 3.51285C9.2562 3.96856 10.1792 4.32179 11.1337 4.56553V6.91645C11.1337 8.50771 10.6196 10.076 9.64997 11.4521C8.82504 12.6205 7.67666 13.6413 6.31834 14.4195C4.9563 13.6413 3.80792 12.6205 2.98299 11.4521ZM5.39028 25.9181C4.94739 25.9175 4.52284 25.7412 4.20988 25.4278C3.89691 25.1144 3.72113 24.6896 3.72113 24.2468V22.6147C4.55272 22.7361 5.32292 23.1226 5.91718 23.7169C6.51144 24.3111 6.898 25.0813 7.01938 25.9129L5.39028 25.9181ZM26.5048 25.9337C26.4628 25.9233 26.4197 25.9181 26.3764 25.9181H8.14031C8.013 24.7897 7.50655 23.7379 6.70378 22.9348C5.90102 22.1316 4.84947 21.6246 3.72113 21.4967V13.9225C4.43235 14.5514 5.21403 15.0958 6.05053 15.5449C6.13169 15.5882 6.22226 15.6109 6.31426 15.6109C6.40625 15.6109 6.49683 15.5882 6.57798 15.5449C8.20263 14.6717 9.58172 13.4773 10.555 12.0945C11.2037 11.182 11.6813 10.1592 11.9645 9.07597H30.6079C30.7357 10.204 31.2424 11.2553 32.0451 12.058C32.8478 12.8607 33.8991 13.3674 35.0271 13.4952V20.5427C34.3462 19.924 33.459 19.5815 32.5389 19.582H31.6487C30.6653 19.5832 29.7226 19.9744 29.0272 20.6697C28.3318 21.3651 27.9407 22.3079 27.9395 23.2913V25.0576C27.3827 25.1942 26.8816 25.4994 26.5048 25.9315V25.9337ZM37.2526 31.4798C37.2521 31.9223 37.076 32.3465 36.7631 32.6594C36.4502 32.9723 36.026 33.1483 35.5835 33.1489H28.602C28.1595 33.1483 27.7352 32.9723 27.4223 32.6594C27.1094 32.3465 26.9334 31.9223 26.9328 31.4798V27.7564C26.9334 27.3139 27.1094 26.8897 27.4223 26.5768C27.7352 26.2639 28.1595 26.0879 28.602 26.0873H35.5835C36.026 26.0879 36.4502 26.2639 36.7631 26.5768C37.076 26.8897 37.2521 27.3139 37.2526 27.7564V31.4798ZM19.3741 10.0775C17.6578 10.0774 15.9946 10.6725 14.6679 11.7613C13.3411 12.8501 12.433 14.3653 12.0981 16.0486C11.7632 17.7319 12.0224 19.4792 12.8315 20.9929C13.6405 22.5066 14.9494 23.6929 16.535 24.3497C18.1207 25.0065 19.885 25.0932 21.5274 24.595C23.1698 24.0968 24.5887 23.0445 25.5422 21.6175C26.4958 20.1904 26.925 18.4769 26.7568 16.7689C26.5886 15.0608 25.8333 13.464 24.6197 12.2503C23.9325 11.5593 23.115 11.0114 22.2146 10.6384C21.3142 10.2655 20.3487 10.0748 19.3741 10.0775ZM23.8326 21.9544C22.801 22.9859 21.4436 23.6278 19.9917 23.7707C18.5399 23.9136 17.0834 23.5487 15.8705 22.7381C14.6575 21.9275 13.7632 20.7214 13.3398 19.3253C12.9164 17.9292 12.9902 16.4295 13.5486 15.0818C14.107 13.734 15.1154 12.6215 16.4021 11.9339C17.6888 11.2464 19.174 11.0262 20.6048 11.3109C22.0357 11.5956 23.3235 12.3677 24.2489 13.4955C25.1742 14.6233 25.68 16.0371 25.6798 17.4959C25.6821 18.3243 25.5201 19.145 25.203 19.9103C24.8859 20.6756 24.4201 21.3704 23.8326 21.9544ZM6.02085 16.9396C5.91081 16.9396 5.80324 16.9722 5.71174 17.0333C5.62025 17.0945 5.54893 17.1814 5.50682 17.283C5.46471 17.3847 5.45369 17.4966 5.47516 17.6045C5.49663 17.7124 5.54962 17.8116 5.62743 17.8894C5.70524 17.9672 5.80438 18.0202 5.91231 18.0416C6.02024 18.0631 6.13211 18.0521 6.23377 18.01C6.33544 17.9679 6.42234 17.8965 6.48347 17.805C6.54461 17.7136 6.57724 17.606 6.57724 17.4959C6.57724 17.3484 6.51862 17.2069 6.41428 17.1025C6.30994 16.9982 6.16842 16.9396 6.02085 16.9396ZM22.2948 14.1376C22.2948 13.99 22.2361 13.8485 22.1318 13.7442C22.0275 13.6398 21.8859 13.5812 21.7384 13.5812H17.0098C16.8623 13.5812 16.7208 13.6398 16.6164 13.7442C16.5121 13.8485 16.4535 13.99 16.4535 14.1376C16.4535 14.2852 16.5121 14.4267 16.6164 14.531C16.7208 14.6354 16.8623 14.694 17.0098 14.694H18.6627C18.9472 14.6943 19.2252 14.7785 19.462 14.9363C19.6988 15.094 19.8837 15.3181 19.9936 15.5805H17.0098C16.8623 15.5805 16.7208 15.6391 16.6164 15.7435C16.5121 15.8478 16.4535 15.9893 16.4535 16.1369C16.4535 16.2844 16.5121 16.426 16.6164 16.5303C16.7208 16.6346 16.8623 16.6933 17.0098 16.6933H19.9936C19.8836 16.9556 19.6987 17.1796 19.4619 17.3372C19.2251 17.4948 18.9471 17.5789 18.6627 17.579H17.0047H16.975H16.949L16.9253 17.5827L16.8949 17.5879L16.8808 17.5916L16.8429 17.6013H16.8363L16.7925 17.6176L16.7754 17.6258L16.7435 17.6406L16.7213 17.6547L16.6975 17.6688L16.6775 17.6836C16.6701 17.6903 16.6619 17.6955 16.6538 17.7022C16.6456 17.7088 16.6426 17.7126 16.6374 17.717L16.613 17.74L16.6003 17.7541L16.5796 17.7778L16.564 17.7986L16.5477 17.8224C16.5425 17.8297 16.5378 17.8374 16.5336 17.8453C16.5287 17.853 16.5242 17.8609 16.5202 17.8691C16.5158 17.8772 16.5121 17.8854 16.5084 17.8936C16.5046 17.9017 16.5002 17.9099 16.4972 17.9181C16.4936 17.9262 16.4906 17.9346 16.4883 17.9433C16.4847 17.9519 16.4817 17.9609 16.4794 17.97C16.4794 17.9781 16.475 17.987 16.4727 17.9952L16.4661 18.0227C16.4661 18.0316 16.4661 18.0405 16.4661 18.0501C16.4661 18.0597 16.4661 18.0672 16.4624 18.0768C16.4587 18.0864 16.4624 18.0968 16.4624 18.1072C16.4624 18.1176 16.4624 18.1206 16.4624 18.1265V18.1317C16.4624 18.1421 16.4624 18.1525 16.4624 18.1636C16.4624 18.1747 16.4624 18.1792 16.4624 18.1866L16.4668 18.214C16.4668 18.2229 16.4668 18.2326 16.4713 18.2415C16.4757 18.2504 16.475 18.2549 16.4765 18.2615C16.4779 18.2682 16.4816 18.283 16.4846 18.2934C16.4869 18.299 16.4889 18.3047 16.4906 18.3105C16.495 18.3216 16.4987 18.3335 16.5032 18.3439C16.5076 18.3543 16.5113 18.3609 16.5158 18.3698C16.5202 18.3787 16.5224 18.3854 16.5269 18.3928C16.5314 18.4003 16.5365 18.4092 16.5417 18.4173C16.5469 18.4255 16.5499 18.4321 16.5551 18.4388C16.5596 18.4456 16.5646 18.452 16.5699 18.4581L16.5877 18.4826L16.6026 18.4989L16.6256 18.5234L20.2013 21.9834C20.2537 22.0346 20.3157 22.075 20.3838 22.1023C20.4519 22.1295 20.5247 22.143 20.598 22.142C20.6713 22.141 20.7437 22.1255 20.811 22.0964C20.8783 22.0673 20.9392 22.0252 20.9902 21.9725C21.0412 21.9198 21.0812 21.8576 21.1081 21.7893C21.1349 21.7211 21.148 21.6482 21.1466 21.5749C21.1452 21.5016 21.1293 21.4293 21.0999 21.3622C21.0704 21.295 21.028 21.2344 20.975 21.1837L18.3875 18.6799H18.6656C19.2439 18.6787 19.8048 18.4816 20.2567 18.1208C20.7087 17.7601 21.0251 17.2569 21.1545 16.6933H21.7362C21.8837 16.6933 22.0252 16.6346 22.1296 16.5303C22.2339 16.426 22.2925 16.2844 22.2925 16.1369C22.2925 15.9893 22.2339 15.8478 22.1296 15.7435C22.0252 15.6391 21.8837 15.5805 21.7362 15.5805H21.1545C21.0837 15.2631 20.9528 14.9622 20.7688 14.694H21.7332C21.8067 14.6947 21.8796 14.6808 21.9477 14.6531C22.0158 14.6255 22.0778 14.5846 22.13 14.5329C22.1822 14.4811 22.2236 14.4196 22.2519 14.3517C22.2802 14.2839 22.2948 14.2111 22.2948 14.1376Z" fill="url(#paint0_linear_3240_13083)"/>
<defs>
<linearGradient id="paint0_linear_3240_13083" x1="29.9754" y1="0.86853" x2="29.8409" y2="41.4178" gradientUnits="userSpaceOnUse">
<stop stop-color="#005CAA"/>
<stop offset="1" stop-color="#64B0F1"/>
</linearGradient>
</defs>
</svg>