<svg width="38" height="38" viewBox="0 0 24 24" fill="none" xmlns="http://www.w3.org/2000/svg">
<path d="M22.7875 0.898438H3.64418C3.45928 0.898438 3.30469 1.04793 3.30469 1.23793V12.911C3.30469 13.1004 3.45928 13.2505 3.64418 13.2505C3.82846 13.2505 3.9786 13.0997 3.9786 12.911V4.93588H22.4531V22.3963H3.9786V19.5071C3.9786 19.3273 3.82783 19.1778 3.64418 19.1778C3.45928 19.1778 3.30469 19.3273 3.30469 19.5071V22.7256C3.30469 22.915 3.45928 23.0651 3.64418 23.0651H22.788C22.9723 23.0651 23.1225 22.9144 23.1225 22.7256V1.23826C23.1225 1.04826 22.9717 0.898763 22.7874 0.898763L22.7875 0.898438ZM3.97858 4.2565V1.57804H22.4531V4.2565H3.97858Z" fill="url(#paint0_linear_3240_13099)"/>
<path d="M17.324 2.57794C17.1391 2.57794 16.9883 2.72871 16.9883 2.91744C16.9883 3.10807 17.139 3.24803 17.324 3.24803C17.5082 3.24803 17.6635 3.10807 17.6635 2.91744C17.6641 2.72871 17.5082 2.57794 17.324 2.57794Z" fill="url(#paint1_linear_3240_13099)"/>
<path d="M21.0154 2.57794C20.8305 2.57794 20.6797 2.72871 20.6797 2.91744C20.6797 3.10807 20.8305 3.24803 21.0154 3.24803C21.1996 3.24803 21.3549 3.10807 21.3549 2.91744C21.3555 2.72871 21.1996 2.57794 21.0154 2.57794Z" fill="url(#paint2_linear_3240_13099)"/>
<path d="M19.1716 2.57684C18.9867 2.57684 18.8359 2.72761 18.8359 2.91634C18.8359 3.10698 18.9867 3.24693 19.1716 3.24693C19.3559 3.24693 19.5111 3.10698 19.5111 2.91634C19.5118 2.72761 19.3559 2.57684 19.1716 2.57684Z" fill="url(#paint3_linear_3240_13099)"/>
<path d="M8.00564 9.68341C8.38119 9.68341 8.68085 9.38378 8.68085 9.01331V7.67441C8.68085 7.29504 8.38122 6.99475 8.00564 6.99475H6.66674C6.29756 6.99475 5.99219 7.29438 5.99219 7.67441V9.01331C5.99219 9.38377 6.29754 9.68341 6.66674 9.68341H8.00564ZM6.66696 7.67463H8.00586L8.01095 9.01353H6.66695L6.66696 7.67463Z" fill="url(#paint4_linear_3240_13099)"/>
<path d="M6.32423 19.9863C6.32423 20.1769 6.47373 20.3258 6.66373 20.3258H8.00774C8.37819 20.3258 8.67784 20.0261 8.67784 19.6563V18.3066C8.67784 17.9374 8.37821 17.6371 8.00774 17.6371H7.33318C7.14891 17.6371 6.99877 17.7879 6.99877 17.9766C6.99877 18.1565 7.14954 18.306 7.33318 18.306H8.00263L8.00772 19.6557H6.66372C6.47308 19.6569 6.32423 19.8064 6.32423 19.9863Z" fill="url(#paint5_linear_3240_13099)"/>
<path d="M20.4789 6.99518H17.7953C17.6104 6.99518 17.4609 7.14468 17.4609 7.33468C17.4609 7.5145 17.6104 7.67417 17.7953 7.67417H20.4789C20.6638 7.67417 20.8133 7.5145 20.8133 7.33468C20.8133 7.14468 20.6638 6.99518 20.4789 6.99518Z" fill="url(#paint6_linear_3240_13099)"/>
<path d="M15.7799 6.99518H10.7379C10.5486 6.99518 10.3984 7.14468 10.3984 7.33468C10.3984 7.5145 10.5492 7.67417 10.7379 7.67417H15.7799C15.9648 7.67417 16.1143 7.5145 16.1143 7.33468C16.1143 7.14468 15.9655 6.99518 15.7799 6.99518Z" fill="url(#paint7_linear_3240_13099)"/>
<path d="M14.4375 9.3528C14.4375 9.53263 14.587 9.68339 14.7719 9.68339H18.4642C18.6491 9.68339 18.7986 9.53263 18.7986 9.3528C18.7986 9.16344 18.6491 9.01331 18.4642 9.01331H14.7719C14.587 9.01288 14.4375 9.16344 14.4375 9.3528Z" fill="url(#paint8_linear_3240_13099)"/>
<path d="M10.7379 9.68339H13.0919C13.2768 9.68339 13.4263 9.53262 13.4263 9.3528C13.4263 9.16344 13.2768 9.01331 13.0919 9.01331H10.7379C10.5486 9.01331 10.3984 9.16407 10.3984 9.3528C10.3978 9.53284 10.5486 9.68339 10.7379 9.68339Z" fill="url(#paint9_linear_3240_13099)"/>
<path d="M20.476 12.3211H14.4243C14.2393 12.3211 14.0898 12.4706 14.0898 12.6504C14.0898 12.8411 14.2393 12.9899 14.4243 12.9899H20.476C20.6609 12.9899 20.8104 12.8404 20.8104 12.6504C20.8104 12.4706 20.6609 12.3211 20.476 12.3211Z" fill="url(#paint10_linear_3240_13099)"/>
<path d="M10.7379 12.991H12.4125C12.5975 12.991 12.747 12.8415 12.747 12.6515C12.747 12.4717 12.5975 12.3222 12.4125 12.3222H10.7379C10.5486 12.3222 10.3984 12.4717 10.3984 12.6515C10.3978 12.8415 10.5486 12.991 10.7379 12.991Z" fill="url(#paint11_linear_3240_13099)"/>
<path d="M17.7845 15.0099C17.9751 15.0099 18.124 14.8592 18.124 14.6704C18.124 14.4798 17.9745 14.3309 17.7845 14.3309L16.1207 14.3311C15.9314 14.3311 15.7812 14.4806 15.7812 14.6706C15.7812 14.86 15.932 15.0101 16.1207 15.0101L17.7845 15.0099Z" fill="url(#paint12_linear_3240_13099)"/>
<path d="M10.7379 15.0099H14.4366C14.626 15.0099 14.7761 14.8592 14.7761 14.6704C14.7761 14.4798 14.6253 14.3309 14.4366 14.3309H10.7379C10.5486 14.3309 10.3984 14.4804 10.3984 14.6704C10.3978 14.8598 10.5486 15.0099 10.7379 15.0099Z" fill="url(#paint13_linear_3240_13099)"/>
<path d="M15.1016 17.9777C15.1016 18.1575 15.2523 18.307 15.436 18.307H20.478C20.6629 18.307 20.8124 18.1575 20.8124 17.9777C20.8124 17.7883 20.6629 17.6382 20.478 17.6382H15.436C15.2523 17.6382 15.1016 17.789 15.1016 17.9777Z" fill="url(#paint14_linear_3240_13099)"/>
<path d="M10.7379 18.3077H13.4215C13.6064 18.3077 13.7572 18.1582 13.7572 17.9784C13.7572 17.789 13.6064 17.6389 13.4215 17.6389H10.7379C10.5486 17.6389 10.3984 17.7897 10.3984 17.9784C10.3978 18.1582 10.5486 18.3077 10.7379 18.3077Z" fill="url(#paint15_linear_3240_13099)"/>
<path d="M10.7379 20.3267H16.4407C16.6249 20.3267 16.7751 20.1772 16.7751 19.9872C16.7751 19.8073 16.6243 19.6578 16.4407 19.6578H10.7379C10.5486 19.6578 10.3984 19.8073 10.3984 19.9872C10.3978 20.1772 10.5486 20.3267 10.7379 20.3267Z" fill="url(#paint16_linear_3240_13099)"/>
<path d="M4.93616 19.8967C4.99129 20.0265 5.11089 20.0962 5.24152 20.0962H5.25678C5.39674 20.0962 5.51655 20.007 5.56214 19.867L7.00115 15.6793H8.3407C8.89925 15.6793 9.34966 15.2302 9.34966 14.6704V12.6614C9.34966 12.1016 8.89925 11.6423 8.3407 11.6423H6.3317C5.7719 11.6423 5.32149 12.102 5.32149 12.6614V14.0003L1.12917 15.4399C0.994302 15.4798 0.904395 15.5996 0.898668 15.7396C0.893578 15.8789 0.97331 16.0087 1.09821 16.0689L3.75186 17.2475L4.93616 19.8967ZM5.99137 12.6615C5.99137 12.4708 6.14596 12.322 6.33086 12.322H8.33987C8.52923 12.322 8.67937 12.4715 8.67937 12.6615V14.6705C8.67937 14.8497 8.5286 15.01 8.33987 15.01H7.23021L7.65517 13.7705C7.69503 13.6509 7.66471 13.5108 7.57543 13.431C7.48043 13.3309 7.35066 13.3013 7.22512 13.3411L5.99077 13.7712V12.6615L5.99137 12.6615ZM6.79566 14.2004L5.20102 18.8477L4.31698 16.8489C4.2822 16.7785 4.22198 16.7191 4.14733 16.688L2.15358 15.7988L6.79566 14.2004Z" fill="url(#paint17_linear_3240_13099)"/>
<defs>
<linearGradient id="paint0_linear_3240_13099" x1="18.7449" y1="0.898437" x2="18.6313" y2="27.8152" gradientUnits="userSpaceOnUse">
<stop stop-color="#005CAA"/>
<stop offset="1" stop-color="#64B0F1"/>
</linearGradient>
<linearGradient id="paint1_linear_3240_13099" x1="17.5143" y1="2.57794" x2="17.5113" y2="3.39162" gradientUnits="userSpaceOnUse">
<stop stop-color="#005CAA"/>
<stop offset="1" stop-color="#64B0F1"/>
</linearGradient>
<linearGradient id="paint2_linear_3240_13099" x1="21.2057" y1="2.57794" x2="21.2027" y2="3.39162" gradientUnits="userSpaceOnUse">
<stop stop-color="#005CAA"/>
<stop offset="1" stop-color="#64B0F1"/>
</linearGradient>
<linearGradient id="paint3_linear_3240_13099" x1="19.362" y1="2.57684" x2="19.3589" y2="3.39053" gradientUnits="userSpaceOnUse">
<stop stop-color="#005CAA"/>
<stop offset="1" stop-color="#64B0F1"/>
</linearGradient>
<linearGradient id="paint4_linear_3240_13099" x1="8.08695" y1="6.99475" x2="8.07463" y2="10.2596" gradientUnits="userSpaceOnUse">
<stop stop-color="#005CAA"/>
<stop offset="1" stop-color="#64B0F1"/>
</linearGradient>
<linearGradient id="paint5_linear_3240_13099" x1="8.15795" y1="17.6371" x2="8.14387" y2="20.9019" gradientUnits="userSpaceOnUse">
<stop stop-color="#005CAA"/>
<stop offset="1" stop-color="#64B0F1"/>
</linearGradient>
<linearGradient id="paint6_linear_3240_13099" x1="20.0728" y1="6.99518" x2="20.0722" y2="7.81969" gradientUnits="userSpaceOnUse">
<stop stop-color="#005CAA"/>
<stop offset="1" stop-color="#64B0F1"/>
</linearGradient>
<linearGradient id="paint7_linear_3240_13099" x1="14.8518" y1="6.99518" x2="14.8514" y2="7.81969" gradientUnits="userSpaceOnUse">
<stop stop-color="#005CAA"/>
<stop offset="1" stop-color="#64B0F1"/>
</linearGradient>
<linearGradient id="paint8_linear_3240_13099" x1="17.8353" y1="9.01331" x2="17.8348" y2="9.827" gradientUnits="userSpaceOnUse">
<stop stop-color="#005CAA"/>
<stop offset="1" stop-color="#64B0F1"/>
</linearGradient>
<linearGradient id="paint9_linear_3240_13099" x1="12.7575" y1="9.01331" x2="12.7568" y2="9.827" gradientUnits="userSpaceOnUse">
<stop stop-color="#005CAA"/>
<stop offset="1" stop-color="#64B0F1"/>
</linearGradient>
<linearGradient id="paint10_linear_3240_13099" x1="19.3259" y1="12.3211" x2="19.3256" y2="13.1333" gradientUnits="userSpaceOnUse">
<stop stop-color="#005CAA"/>
<stop offset="1" stop-color="#64B0F1"/>
</linearGradient>
<linearGradient id="paint11_linear_3240_13099" x1="12.2282" y1="12.3222" x2="12.2273" y2="13.1344" gradientUnits="userSpaceOnUse">
<stop stop-color="#005CAA"/>
<stop offset="1" stop-color="#64B0F1"/>
</linearGradient>
<linearGradient id="paint12_linear_3240_13099" x1="17.6065" y1="14.3309" x2="17.6056" y2="15.1557" gradientUnits="userSpaceOnUse">
<stop stop-color="#005CAA"/>
<stop offset="1" stop-color="#64B0F1"/>
</linearGradient>
<linearGradient id="paint13_linear_3240_13099" x1="13.8091" y1="14.3309" x2="13.8086" y2="15.1554" gradientUnits="userSpaceOnUse">
<stop stop-color="#005CAA"/>
<stop offset="1" stop-color="#64B0F1"/>
</linearGradient>
<linearGradient id="paint14_linear_3240_13099" x1="19.5509" y1="17.6382" x2="19.5506" y2="18.4503" gradientUnits="userSpaceOnUse">
<stop stop-color="#005CAA"/>
<stop offset="1" stop-color="#64B0F1"/>
</linearGradient>
<linearGradient id="paint15_linear_3240_13099" x1="13.0153" y1="17.6389" x2="13.0147" y2="18.4511" gradientUnits="userSpaceOnUse">
<stop stop-color="#005CAA"/>
<stop offset="1" stop-color="#64B0F1"/>
</linearGradient>
<linearGradient id="paint16_linear_3240_13099" x1="15.3665" y1="19.6578" x2="15.3662" y2="20.47" gradientUnits="userSpaceOnUse">
<stop stop-color="#005CAA"/>
<stop offset="1" stop-color="#64B0F1"/>
</linearGradient>
<linearGradient id="paint17_linear_3240_13099" x1="7.48286" y1="11.6423" x2="7.44411" y2="21.9079" gradientUnits="userSpaceOnUse">
<stop stop-color="#005CAA"/>
<stop offset="1" stop-color="#64B0F1"/>
</linearGradient>
</defs>
</svg>