<svg width="38" height="38" viewBox="0 0 32 28" fill="none" xmlns="http://www.w3.org/2000/svg">
<path d="M31.3606 20.4537H29.5606V2.71998C29.5606 1.45323 28.4939 0.386719 27.2273 0.386719H4.82734C3.5606 0.386719 2.49409 1.45346 2.49409 2.71998V20.4531L0.694087 20.4533C0.294087 20.4533 0.0273438 20.7201 0.0273438 21.1201C0.0273438 24.7201 2.9606 27.5869 6.4942 27.5869H25.4942C29.0942 27.5869 31.9611 24.6537 31.9611 21.1201C32.0276 20.7199 31.7608 20.4533 31.3608 20.4533L31.3606 20.4537ZM3.82746 2.71998C3.82746 2.18672 4.2942 1.71998 4.82746 1.71998H27.2943C27.8276 1.71998 28.2943 2.18672 28.2943 2.71998V20.4531L3.82746 20.4533V2.71998ZM12.0275 21.7868H20.0275V23.3868H12.0275V21.7868ZM25.5606 26.2536H6.49432C3.89432 26.2536 1.69432 24.3203 1.36106 21.7868H10.6279V24.0536C10.6279 24.4536 10.8947 24.7203 11.2947 24.7203H20.6278C21.0278 24.7203 21.2945 24.4536 21.2945 24.0536V21.7868H30.5614C30.2944 24.3201 28.1609 26.2536 25.5609 26.2536H25.5606Z" fill="#CC1212"/>
<path d="M26.5612 19.3854C26.9612 19.3854 27.2279 19.1186 27.2279 18.7186V3.38549C27.2279 2.98549 26.9612 2.71875 26.5612 2.71875H5.49487C5.09487 2.71875 4.82812 2.98549 4.82812 3.38549V18.7186C4.82812 19.1186 5.09487 19.3854 5.49487 19.3854H26.5612ZM13.9612 18.0521V14.9854C13.9612 13.8521 14.8944 12.9186 16.0279 12.9186C17.1612 12.9186 18.0946 13.8519 18.0946 14.9854V18.0521H13.9612ZM14.5612 10.1184C14.5612 9.31841 15.2279 8.65166 16.0279 8.65166C16.8279 8.65166 17.4946 9.31841 17.4946 10.1184C17.4946 10.9184 16.8279 11.5851 16.0279 11.5851C15.2279 11.5851 14.5612 10.9184 14.5612 10.1184ZM6.16115 4.05212H25.828V18.0521H19.428V14.9854C19.428 13.7854 18.828 12.7854 17.8948 12.1186C18.428 11.5854 18.7615 10.9186 18.7615 10.0519C18.7615 8.51864 17.4948 7.25189 15.9615 7.25189C14.4282 7.25189 13.1615 8.51864 13.1615 10.0519C13.1615 10.8519 13.4948 11.5851 14.0282 12.1186C13.095 12.7186 12.495 13.7854 12.495 14.9854V18.0521H6.16127L6.16115 4.05212Z" fill="#CC1212"/>
</svg>