<svg width="38" height="38" viewBox="0 0 40 40" fill="none"
                                xmlns="http://www.w3.org/2000/svg">
                                <path
                                    d="M37.9938 3.98047H2C0.9 3.98047 0 4.87422 0 5.98047V21.6367C0 22.743 0.9 23.643 2 23.643H10.0063V33.4367C10.0063 34.8617 11.0375 36.0242 12.3063 36.0242H27.6938C28.9625 36.0242 29.9938 34.8617 29.9938 33.4367V23.643H37.9938C39.1 23.643 40 22.743 40 21.6367V5.98047C40 4.87422 39.1 3.98047 37.9938 3.98047ZM10.0063 16.2055H6.8625C6.71771 16.2055 6.57875 16.1484 6.47578 16.0466C6.37282 15.9448 6.31415 15.8065 6.3125 15.6617V12.6555C6.3125 12.3492 6.55625 12.1055 6.8625 12.1055H10.0063V16.2055ZM28.7812 33.4367C28.7812 34.193 28.2938 34.8117 27.6938 34.8117H12.3063C11.7063 34.8117 11.2188 34.193 11.2188 33.4367V12.1117H28.7812V33.4367ZM38.7875 21.6367C38.7875 22.0742 38.4313 22.4305 37.9938 22.4305H29.9938V17.418H33.1437C34.1125 17.418 34.9 16.6305 34.9 15.6617V12.6555C34.9 11.6867 34.1125 10.893 33.1437 10.893H6.8625C5.89375 10.893 5.1 11.6805 5.1 12.6555V15.6617C5.1 16.6305 5.8875 17.418 6.8625 17.418H10.0063V22.4305H2C1.5625 22.4305 1.2125 22.0742 1.2125 21.6367V5.98047C1.2125 5.54297 1.56875 5.19297 2 5.19297H37.9938C38.4313 5.19297 38.7875 5.54922 38.7875 5.98047V21.6367ZM29.9938 16.2055V12.1117H33.1437C33.4437 12.1117 33.6875 12.3555 33.6875 12.6617V15.668C33.6875 15.968 33.4437 16.2117 33.1437 16.2117H29.9938V16.2055Z"
                                    fill="url(#paint0_linear_5451_30079)" />
                                <path
                                    d="M14.7547 17.2133C15.0922 17.2133 15.3609 16.9445 15.3609 16.607V14.282C15.3609 13.9445 15.0922 13.6758 14.7547 13.6758C14.4172 13.6758 14.1484 13.9445 14.1484 14.282V16.607C14.1484 16.9445 14.4234 17.2133 14.7547 17.2133ZM14.7547 22.557C15.0922 22.557 15.3609 22.2883 15.3609 21.9508V19.6258C15.3609 19.2883 15.0922 19.0195 14.7547 19.0195C14.4172 19.0195 14.1484 19.2883 14.1484 19.6258V21.9445C14.1484 22.2883 14.4234 22.557 14.7547 22.557ZM14.7547 27.8945C15.0922 27.8945 15.3609 27.6258 15.3609 27.2883V24.9633C15.3609 24.6258 15.0922 24.357 14.7547 24.357C14.4172 24.357 14.1484 24.6258 14.1484 24.9633V27.2883C14.1484 27.6258 14.4234 27.8945 14.7547 27.8945ZM14.7547 33.2383C15.0922 33.2383 15.3609 32.9695 15.3609 32.632V30.3133C15.3609 29.9758 15.0922 29.707 14.7547 29.707C14.4172 29.707 14.1484 29.9758 14.1484 30.3133V32.632C14.1484 32.9695 14.4234 33.2383 14.7547 33.2383ZM20.7234 19.4195H25.2359C25.5734 19.4195 25.8422 19.1508 25.8422 18.8133V14.3008C25.8422 13.9633 25.5734 13.6945 25.2359 13.6945H20.7234C20.3859 13.6945 20.1172 13.9633 20.1172 14.3008V18.8133C20.1172 19.1508 20.3922 19.4195 20.7234 19.4195ZM21.3297 14.907H24.6297V18.207H21.3297V14.907Z"
                                    fill="url(#paint1_linear_5451_30079)" />
                                <defs>
                                    <linearGradient id="paint0_linear_5451_30079" x1="31.1644" y1="3.98047" x2="31.0468"
                                        y2="42.8912" gradientUnits="userSpaceOnUse">
                                        <stop stop-color="#005CAA" />
                                        <stop offset="1" stop-color="#64B0F1" />
                                    </linearGradient>
                                    <linearGradient id="paint1_linear_5451_30079" x1="23.2591" y1="13.6758" x2="23.1092"
                                        y2="37.4298" gradientUnits="userSpaceOnUse">
                                        <stop stop-color="#005CAA" />
                                        <stop offset="1" stop-color="#64B0F1" />
                                    </linearGradient>
                                </defs>
                            </svg>