<svg width="38" height="38" viewBox="0 0 33 26" fill="none" xmlns="http://www.w3.org/2000/svg">
<path d="M31.0591 0.414062H2.9094C1.84689 0.414062 0.984375 1.27658 0.984375 2.33909V23.6642C0.984375 24.7268 1.84689 25.5893 2.9094 25.5893H31.0591C32.1216 25.5893 32.9841 24.7268 32.9841 23.6642V2.33909C32.9841 1.27658 32.1216 0.414062 31.0591 0.414062ZM2.9094 1.41406H31.0591C31.5716 1.41406 31.9841 1.83281 31.9841 2.33909V6.30161H1.98415V2.33909C1.98415 1.82659 2.39665 1.41406 2.90918 1.41406H2.9094ZM31.0591 24.5889H2.9094C2.3969 24.5889 1.98438 24.1702 1.98438 23.6639V7.30161H31.9844V23.6639C31.9844 24.1764 31.5719 24.5889 31.0593 24.5889H31.0591ZM3.67169 5.26378H5.39672C5.67172 5.26378 5.89672 5.03878 5.89672 4.76378V2.97629C5.89672 2.70129 5.67172 2.47629 5.39672 2.47629H3.67169C3.39669 2.47629 3.17169 2.70129 3.17169 2.97629V4.76378C3.17169 5.03878 3.39669 5.26378 3.67169 5.26378ZM4.17169 3.47629H4.89672V4.26378H4.17169V3.47629ZM6.95918 5.26378H8.6842C8.9592 5.26378 9.1842 5.03878 9.1842 4.76378V2.97629C9.1842 2.70129 8.9592 2.47629 8.6842 2.47629H6.95918C6.68418 2.47629 6.45918 2.70129 6.45918 2.97629V4.76378C6.46543 5.03878 6.68418 5.26378 6.95918 5.26378ZM7.45918 3.47629H8.1842V4.26378H7.45918V3.47629ZM10.2529 5.26378H11.978C12.253 5.26378 12.478 5.03878 12.478 4.76378V2.97629C12.478 2.70129 12.253 2.47629 11.978 2.47629H10.2529C9.97795 2.47629 9.75295 2.70129 9.75295 2.97629V4.76378C9.75295 5.03878 9.9717 5.26378 10.2529 5.26378ZM10.7467 3.47629H11.4717V4.26378H10.7467V3.47629ZM7.42167 16.8203H4.70292C4.42792 16.8203 4.20292 17.0453 4.20292 17.3203V23.414C4.20292 23.689 4.42792 23.914 4.70292 23.914H7.42167C7.69667 23.914 7.92167 23.689 7.92167 23.414V17.3203C7.92167 17.0453 7.69667 16.8203 7.42167 16.8203ZM6.92167 22.914H5.20292V17.8202H6.92167V22.914ZM23.8028 16.8203H21.0841C20.8091 16.8203 20.5841 17.0453 20.5841 17.3203V23.414C20.5841 23.689 20.8091 23.914 21.0841 23.914H23.8028C24.0778 23.914 24.3028 23.689 24.3028 23.414V17.3203C24.3028 17.0453 24.0778 16.8203 23.8028 16.8203ZM23.3028 22.914H21.5841V17.8202H23.3028V22.914ZM29.2651 12.6952H26.5464C26.2714 12.6952 26.0464 12.9201 26.0464 13.1952V23.414C26.0464 23.689 26.2714 23.914 26.5464 23.914H29.2651C29.5401 23.914 29.7651 23.689 29.7651 23.414V13.1952C29.7651 12.9201 29.5401 12.6952 29.2651 12.6952ZM28.7651 22.914H27.0464V13.6952H28.7651V22.914ZM18.3462 18.3202H15.6275C15.3525 18.3202 15.1275 18.5452 15.1275 18.8202V23.414C15.1275 23.689 15.3525 23.914 15.6275 23.914H18.3462C18.6212 23.914 18.8462 23.689 18.8462 23.414V18.8202C18.8462 18.5452 18.6212 18.3202 18.3462 18.3202ZM17.8462 22.914H16.1275V19.3202H17.8462V22.914ZM12.8837 14.714H10.165C9.88998 14.714 9.66498 14.939 9.66498 15.214V23.414C9.66498 23.689 9.88998 23.914 10.165 23.914H12.8837C13.1587 23.914 13.3837 23.689 13.3837 23.414V15.2077C13.3837 14.9327 13.1587 14.714 12.8837 14.714ZM12.3837 22.914H10.665V15.7077H12.3837V22.914ZM27.9214 7.98258C26.7465 7.98258 25.7902 8.93881 25.7902 10.1201C25.7902 10.4388 25.8589 10.7388 25.9839 11.0075L24.0777 12.5013C23.7027 12.1701 23.209 11.9701 22.6715 11.9701C21.5464 11.9701 20.6152 12.8513 20.5464 13.9638L19.359 14.1638C19.034 13.4076 18.2777 12.8701 17.3964 12.8701C16.7902 12.8701 16.2402 13.1263 15.8527 13.5326L13.3902 12.1138C13.4464 11.9201 13.4777 11.7201 13.4777 11.5076C13.4777 10.3326 12.5214 9.37013 11.3402 9.37013C10.1652 9.37013 9.20268 10.3264 9.20268 11.5076C9.20268 11.6889 9.22768 11.8576 9.26519 12.0264L7.64644 12.8701C7.2527 12.4201 6.6777 12.1389 6.04022 12.1389C4.86524 12.1389 3.90896 13.0951 3.90896 14.2764C3.90896 15.4513 4.86519 16.4138 6.04022 16.4138C7.21524 16.4138 8.1777 15.4576 8.1777 14.2764C8.1777 14.0951 8.1527 13.9264 8.1152 13.7576L9.73394 12.9138C10.1277 13.3576 10.7027 13.6451 11.3402 13.6451C11.9464 13.6451 12.4964 13.3888 12.8839 12.9826L15.3465 14.4013C15.2902 14.5951 15.259 14.7951 15.259 15.0076C15.259 16.1825 16.2152 17.145 17.3964 17.145C18.5277 17.145 19.4527 16.2638 19.5277 15.1513L20.7152 14.9513C21.0402 15.7138 21.7964 16.245 22.6777 16.245C23.8527 16.245 24.8152 15.2888 24.8152 14.1076C24.8152 13.8263 24.7589 13.5638 24.6652 13.3201L26.609 11.795C26.9715 12.0825 27.434 12.2575 27.9277 12.2575C29.1027 12.2575 30.0652 11.3013 30.0652 10.1263C30.0527 8.9388 29.0964 7.98252 27.9214 7.98252L27.9214 7.98258ZM6.04658 15.414C5.42155 15.414 4.91532 14.9015 4.91532 14.2765C4.91532 13.6515 5.42158 13.139 6.04658 13.139C6.67159 13.139 7.18407 13.6515 7.18407 14.2765C7.18407 14.9015 6.67782 15.414 6.04658 15.414ZM11.3404 12.639C10.7153 12.639 10.2029 12.1328 10.2029 11.5078C10.2029 10.8828 10.7154 10.3703 11.3404 10.3703C11.9653 10.3703 12.4778 10.8828 12.4778 11.5078C12.4778 12.1328 11.9716 12.639 11.3404 12.639ZM17.3964 16.139C16.7713 16.139 16.2589 15.6265 16.2589 15.0016C16.2589 14.3766 16.7714 13.8703 17.3964 13.8703C18.0213 13.8703 18.5338 14.3765 18.5338 15.0016C18.5338 15.6266 18.0213 16.139 17.3964 16.139ZM22.6713 15.239C22.0463 15.239 21.5401 14.7265 21.5401 14.1016C21.5401 13.4766 22.0463 12.9641 22.6713 12.9641C23.2963 12.9641 23.8088 13.4766 23.8088 14.1016C23.8088 14.7328 23.2963 15.239 22.6713 15.239ZM27.9213 11.2515C27.2963 11.2515 26.7901 10.7453 26.7901 10.1203C26.7901 9.49529 27.2963 8.98281 27.9213 8.98281C28.5463 8.98281 29.0588 9.49531 29.0588 10.1203C29.0526 10.739 28.5463 11.2515 27.9213 11.2515Z" fill="#CC1212"/>
</svg>