<svg width="38" height="38" viewBox="0 0 21 25" fill="none" xmlns="http://www.w3.org/2000/svg">
<path d="M14.6687 6.33982C14.6687 6.57185 14.6529 6.80388 14.6239 7.03328C14.6371 6.94099 14.6503 6.84607 14.6608 6.75379C14.5975 7.21257 14.4763 7.65818 14.2996 8.08533C14.3339 8.00095 14.3708 7.91658 14.4051 7.8322C14.2284 8.24881 14.0016 8.63904 13.7248 8.99763L13.8909 8.78406C13.6167 9.13738 13.2976 9.45642 12.9443 9.73064L13.1579 9.56453C12.7993 9.83875 12.4091 10.0681 11.9925 10.2448C12.0768 10.2105 12.1612 10.1736 12.2456 10.1393C11.8184 10.316 11.3728 10.4373 10.9141 10.5006C11.0063 10.4874 11.1013 10.4742 11.1935 10.4636C10.7321 10.5243 10.2681 10.5243 9.80663 10.4636C9.89892 10.4768 9.99384 10.49 10.0861 10.5006C9.62733 10.4373 9.18173 10.316 8.75458 10.1393C8.83895 10.1736 8.92333 10.2105 9.0077 10.2448C8.5911 10.0681 8.20087 9.84138 7.84228 9.56453L8.05585 9.73064C7.70253 9.45642 7.38349 9.13738 7.10927 8.78406L7.27538 8.99763C7.00116 8.63904 6.77177 8.24881 6.59511 7.8322C6.62938 7.91658 6.6663 8.00095 6.70058 8.08533C6.52392 7.65818 6.40263 7.21257 6.33935 6.75379C6.35253 6.84607 6.36571 6.94099 6.37626 7.03328C6.31561 6.57185 6.31561 6.10779 6.37626 5.64636C6.36308 5.73865 6.34989 5.83357 6.33935 5.92586C6.40263 5.46707 6.52392 5.02146 6.70058 4.59431C6.6663 4.67869 6.62938 4.76306 6.59511 4.84744C6.77177 4.43084 6.99853 4.0406 7.27538 3.68201L7.10927 3.89558C7.38349 3.54226 7.70253 3.22322 8.05585 2.949L7.84228 3.11511C8.20087 2.8409 8.5911 2.6115 9.0077 2.43484C8.92333 2.46912 8.83895 2.50603 8.75458 2.54031C9.18173 2.36365 9.62733 2.24236 10.0861 2.17908C9.99384 2.19226 9.89892 2.20545 9.80663 2.21599C10.2681 2.15535 10.7321 2.15535 11.1935 2.21599C11.1013 2.20281 11.0063 2.18963 10.9141 2.17908C11.3728 2.24236 11.8184 2.36365 12.2456 2.54031C12.1612 2.50603 12.0768 2.46912 11.9925 2.43484C12.4091 2.6115 12.7993 2.83826 13.1579 3.11511L12.9443 2.949C13.2976 3.22322 13.6167 3.54226 13.8909 3.89558L13.7248 3.68201C13.999 4.0406 14.2284 4.43084 14.4051 4.84744C14.3708 4.76306 14.3339 4.67869 14.2996 4.59431C14.4763 5.02146 14.5975 5.46707 14.6608 5.92586C14.6476 5.83357 14.6345 5.73865 14.6239 5.64636C14.6529 5.87576 14.6661 6.10779 14.6687 6.33982C14.6714 6.8909 15.1513 7.42088 15.7234 7.39451C16.293 7.36814 16.7808 6.93045 16.7781 6.33982C16.7728 5.07683 16.3932 3.78484 15.6496 2.75652C15.4492 2.47967 15.2356 2.20808 14.9983 1.96287C14.7584 1.71502 14.4947 1.50144 14.2205 1.29314C13.7222 0.913454 13.1658 0.633962 12.5752 0.417751C10.1942 -0.455003 7.32284 0.322829 5.71181 2.28455C5.49032 2.55349 5.27938 2.83299 5.10009 3.13357C4.92079 3.43152 4.78104 3.74793 4.65185 4.06961C4.40927 4.6655 4.28534 5.29832 4.23524 5.93904C4.13768 7.19412 4.46464 8.50457 5.11854 9.58035C5.74872 10.6192 6.70058 11.5104 7.81327 12.014C8.14022 12.1617 8.47509 12.2988 8.82313 12.3964C9.16854 12.4913 9.51923 12.544 9.87519 12.5862C10.5238 12.6627 11.1856 12.6099 11.8264 12.4807C14.26 11.985 16.2982 9.88884 16.6753 7.42879C16.7307 7.07019 16.7728 6.7116 16.7728 6.34773C16.7755 5.79666 16.285 5.26668 15.7182 5.29304C15.1486 5.3115 14.6687 5.7492 14.6687 6.33982ZM18.1677 22.8272H4.63866C4.04013 22.8272 3.44159 22.8325 2.84306 22.8272C2.77714 22.8272 2.71122 22.8219 2.64794 22.814C2.74022 22.8272 2.83515 22.8404 2.92743 22.851C2.82196 22.8351 2.72177 22.8061 2.62421 22.7666C2.70858 22.8009 2.79296 22.8378 2.87733 22.872C2.77186 22.8272 2.67431 22.7692 2.58202 22.698L2.79559 22.8641C2.71649 22.7982 2.64267 22.727 2.57938 22.6479L2.7455 22.8615C2.67431 22.7692 2.61893 22.6717 2.57147 22.5662C2.60575 22.6506 2.64266 22.7349 2.67694 22.8193C2.63739 22.7218 2.61102 22.6189 2.59257 22.5161C2.60575 22.6084 2.61893 22.7033 2.62948 22.7956C2.58729 22.4765 2.6163 22.139 2.6163 21.8174V20.6888C2.6163 20.4067 2.63212 20.1272 2.66903 19.8477C2.65585 19.94 2.64267 20.0349 2.63212 20.1272C2.70595 19.5867 2.84833 19.0567 3.0619 18.5531C3.02763 18.6375 2.99071 18.7219 2.95643 18.8062C3.1621 18.3263 3.42577 17.8755 3.74481 17.4615L3.5787 17.6751C3.89774 17.2664 4.26425 16.8972 4.67558 16.5782L4.462 16.7443C4.87597 16.4253 5.32685 16.1616 5.80673 15.9559C5.72235 15.9902 5.63798 16.0271 5.5536 16.0614C6.05722 15.8505 6.58456 15.7054 7.12772 15.6316C7.03544 15.6448 6.94052 15.658 6.84823 15.6685C7.23847 15.6184 7.62606 15.6158 8.01893 15.6158H12.8441C13.2792 15.6158 13.7116 15.6132 14.1467 15.6685C14.0544 15.6553 13.9595 15.6422 13.8672 15.6316C14.4077 15.7054 14.9377 15.8478 15.4413 16.0614C15.3569 16.0271 15.2725 15.9902 15.1882 15.9559C15.6681 16.1616 16.1189 16.4253 16.5329 16.7443L16.3193 16.5782C16.728 16.8972 17.0972 17.2637 17.4162 17.6751L17.2501 17.4615C17.5691 17.8755 17.8328 18.3263 18.0385 18.8062C18.0042 18.7219 17.9673 18.6375 17.933 18.5531C18.1439 19.0567 18.289 19.5841 18.3628 20.1272C18.3496 20.0349 18.3364 19.94 18.3259 19.8477C18.376 20.2459 18.3786 20.6414 18.3786 21.0422V22.3473C18.3786 22.4976 18.3839 22.6479 18.3654 22.7956C18.3786 22.7033 18.3918 22.6084 18.4023 22.5161C18.3865 22.6216 18.3575 22.7218 18.318 22.8193C18.3522 22.7349 18.3892 22.6506 18.4234 22.5662C18.3786 22.6717 18.3206 22.7692 18.2494 22.8615L18.4155 22.6479C18.3496 22.727 18.2784 22.8009 18.1993 22.8641L18.4129 22.698C18.3206 22.7692 18.223 22.8246 18.1176 22.872C18.2019 22.8378 18.2863 22.8009 18.3707 22.7666C18.2731 22.8061 18.1703 22.8325 18.0675 22.851C18.1598 22.8378 18.2547 22.8246 18.347 22.814C18.289 22.8219 18.2283 22.8246 18.1677 22.8272C17.8961 22.8299 17.6166 22.9432 17.4215 23.1357C17.2395 23.3177 17.0998 23.6182 17.113 23.8819C17.1393 24.4462 17.577 24.9445 18.1677 24.9366C19.1933 24.9208 20.0951 24.2511 20.3957 23.2676C20.5143 22.8773 20.488 22.4581 20.488 22.0573C20.488 21.1397 20.517 20.2301 20.3588 19.3204C20.1267 17.9888 19.457 16.7364 18.5394 15.7529C17.6219 14.7694 16.3879 14.0469 15.0827 13.7253C14.3339 13.5407 13.5798 13.5117 12.8151 13.5117H8.13759C7.35448 13.5117 6.57665 13.5486 5.81464 13.7516C4.52001 14.0944 3.30184 14.8248 2.40272 15.8162C1.49569 16.8155 0.839149 18.0706 0.625575 19.41C0.483192 20.3092 0.512196 21.2109 0.512196 22.1179C0.512196 22.5345 0.488466 22.9696 0.638759 23.3678C0.833876 23.8793 1.14501 24.2827 1.60116 24.5859C1.95712 24.8206 2.408 24.934 2.82987 24.9392C3.03554 24.9419 3.2412 24.9392 3.44686 24.9392H18.1703C18.7214 24.9392 19.2514 24.4541 19.225 23.8845C19.1986 23.3097 18.7609 22.8272 18.1677 22.8272Z" fill="url(#paint0_linear_3703_35580)"/>
<path d="M14.6687 6.33982C14.6687 6.57185 14.6529 6.80388 14.6239 7.03328C14.6371 6.94099 14.6503 6.84607 14.6608 6.75379C14.5975 7.21257 14.4763 7.65818 14.2996 8.08533C14.3339 8.00095 14.3708 7.91658 14.4051 7.8322C14.2284 8.24881 14.0016 8.63904 13.7248 8.99763L13.8909 8.78406C13.6167 9.13738 13.2976 9.45642 12.9443 9.73064L13.1579 9.56453C12.7993 9.83875 12.4091 10.0681 11.9925 10.2448C12.0768 10.2105 12.1612 10.1736 12.2456 10.1393C11.8184 10.316 11.3728 10.4373 10.9141 10.5006C11.0063 10.4874 11.1013 10.4742 11.1935 10.4636C10.7321 10.5243 10.2681 10.5243 9.80663 10.4636C9.89892 10.4768 9.99384 10.49 10.0861 10.5006C9.62733 10.4373 9.18173 10.316 8.75458 10.1393C8.83895 10.1736 8.92333 10.2105 9.0077 10.2448C8.5911 10.0681 8.20087 9.84138 7.84228 9.56453L8.05585 9.73064C7.70253 9.45642 7.38349 9.13738 7.10927 8.78406L7.27538 8.99763C7.00116 8.63904 6.77177 8.24881 6.59511 7.8322C6.62938 7.91658 6.6663 8.00095 6.70058 8.08533C6.52392 7.65818 6.40263 7.21257 6.33935 6.75379C6.35253 6.84607 6.36571 6.94099 6.37626 7.03328C6.31561 6.57185 6.31561 6.10779 6.37626 5.64636C6.36308 5.73865 6.34989 5.83357 6.33935 5.92586C6.40263 5.46707 6.52392 5.02146 6.70058 4.59431C6.6663 4.67869 6.62938 4.76306 6.59511 4.84744C6.77177 4.43084 6.99853 4.0406 7.27538 3.68201L7.10927 3.89558C7.38349 3.54226 7.70253 3.22322 8.05585 2.949L7.84228 3.11511C8.20087 2.8409 8.5911 2.6115 9.0077 2.43484C8.92333 2.46912 8.83895 2.50603 8.75458 2.54031C9.18173 2.36365 9.62733 2.24236 10.0861 2.17908C9.99384 2.19226 9.89892 2.20545 9.80663 2.21599C10.2681 2.15535 10.7321 2.15535 11.1935 2.21599C11.1013 2.20281 11.0063 2.18963 10.9141 2.17908C11.3728 2.24236 11.8184 2.36365 12.2456 2.54031C12.1612 2.50603 12.0768 2.46912 11.9925 2.43484C12.4091 2.6115 12.7993 2.83826 13.1579 3.11511L12.9443 2.949C13.2976 3.22322 13.6167 3.54226 13.8909 3.89558L13.7248 3.68201C13.999 4.0406 14.2284 4.43084 14.4051 4.84744C14.3708 4.76306 14.3339 4.67869 14.2996 4.59431C14.4763 5.02146 14.5975 5.46707 14.6608 5.92586C14.6476 5.83357 14.6345 5.73865 14.6239 5.64636C14.6529 5.87576 14.6661 6.10779 14.6687 6.33982C14.6714 6.8909 15.1513 7.42088 15.7234 7.39451C16.293 7.36814 16.7808 6.93045 16.7781 6.33982C16.7728 5.07683 16.3932 3.78484 15.6496 2.75652C15.4492 2.47967 15.2356 2.20808 14.9983 1.96287C14.7584 1.71502 14.4947 1.50144 14.2205 1.29314C13.7222 0.913454 13.1658 0.633962 12.5752 0.417751C10.1942 -0.455003 7.32284 0.322829 5.71181 2.28455C5.49032 2.55349 5.27938 2.83299 5.10009 3.13357C4.92079 3.43152 4.78104 3.74793 4.65185 4.06961C4.40927 4.6655 4.28534 5.29832 4.23524 5.93904C4.13768 7.19412 4.46464 8.50457 5.11854 9.58035C5.74872 10.6192 6.70058 11.5104 7.81327 12.014C8.14022 12.1617 8.47509 12.2988 8.82313 12.3964C9.16854 12.4913 9.51923 12.544 9.87519 12.5862C10.5238 12.6627 11.1856 12.6099 11.8264 12.4807C14.26 11.985 16.2982 9.88884 16.6753 7.42879C16.7307 7.07019 16.7728 6.7116 16.7728 6.34773C16.7755 5.79666 16.285 5.26668 15.7182 5.29304C15.1486 5.3115 14.6687 5.7492 14.6687 6.33982ZM18.1677 22.8272H4.63866C4.04013 22.8272 3.44159 22.8325 2.84306 22.8272C2.77714 22.8272 2.71122 22.8219 2.64794 22.814C2.74022 22.8272 2.83515 22.8404 2.92743 22.851C2.82196 22.8351 2.72177 22.8061 2.62421 22.7666C2.70858 22.8009 2.79296 22.8378 2.87733 22.872C2.77186 22.8272 2.67431 22.7692 2.58202 22.698L2.79559 22.8641C2.71649 22.7982 2.64267 22.727 2.57938 22.6479L2.7455 22.8615C2.67431 22.7692 2.61893 22.6717 2.57147 22.5662C2.60575 22.6506 2.64266 22.7349 2.67694 22.8193C2.63739 22.7218 2.61102 22.6189 2.59257 22.5161C2.60575 22.6084 2.61893 22.7033 2.62948 22.7956C2.58729 22.4765 2.6163 22.139 2.6163 21.8174V20.6888C2.6163 20.4067 2.63212 20.1272 2.66903 19.8477C2.65585 19.94 2.64267 20.0349 2.63212 20.1272C2.70595 19.5867 2.84833 19.0567 3.0619 18.5531C3.02763 18.6375 2.99071 18.7219 2.95643 18.8062C3.1621 18.3263 3.42577 17.8755 3.74481 17.4615L3.5787 17.6751C3.89774 17.2664 4.26425 16.8972 4.67558 16.5782L4.462 16.7443C4.87597 16.4253 5.32685 16.1616 5.80673 15.9559C5.72235 15.9902 5.63798 16.0271 5.5536 16.0614C6.05722 15.8505 6.58456 15.7054 7.12772 15.6316C7.03544 15.6448 6.94052 15.658 6.84823 15.6685C7.23847 15.6184 7.62606 15.6158 8.01893 15.6158H12.8441C13.2792 15.6158 13.7116 15.6132 14.1467 15.6685C14.0544 15.6553 13.9595 15.6422 13.8672 15.6316C14.4077 15.7054 14.9377 15.8478 15.4413 16.0614C15.3569 16.0271 15.2725 15.9902 15.1882 15.9559C15.6681 16.1616 16.1189 16.4253 16.5329 16.7443L16.3193 16.5782C16.728 16.8972 17.0972 17.2637 17.4162 17.6751L17.2501 17.4615C17.5691 17.8755 17.8328 18.3263 18.0385 18.8062C18.0042 18.7219 17.9673 18.6375 17.933 18.5531C18.1439 19.0567 18.289 19.5841 18.3628 20.1272C18.3496 20.0349 18.3364 19.94 18.3259 19.8477C18.376 20.2459 18.3786 20.6414 18.3786 21.0422V22.3473C18.3786 22.4976 18.3839 22.6479 18.3654 22.7956C18.3786 22.7033 18.3918 22.6084 18.4023 22.5161C18.3865 22.6216 18.3575 22.7218 18.318 22.8193C18.3522 22.7349 18.3892 22.6506 18.4234 22.5662C18.3786 22.6717 18.3206 22.7692 18.2494 22.8615L18.4155 22.6479C18.3496 22.727 18.2784 22.8009 18.1993 22.8641L18.4129 22.698C18.3206 22.7692 18.223 22.8246 18.1176 22.872C18.2019 22.8378 18.2863 22.8009 18.3707 22.7666C18.2731 22.8061 18.1703 22.8325 18.0675 22.851C18.1598 22.8378 18.2547 22.8246 18.347 22.814C18.289 22.8219 18.2283 22.8246 18.1677 22.8272C17.8961 22.8299 17.6166 22.9432 17.4215 23.1357C17.2395 23.3177 17.0998 23.6182 17.113 23.8819C17.1393 24.4462 17.577 24.9445 18.1677 24.9366C19.1933 24.9208 20.0951 24.2511 20.3957 23.2676C20.5143 22.8773 20.488 22.4581 20.488 22.0573C20.488 21.1397 20.517 20.2301 20.3588 19.3204C20.1267 17.9888 19.457 16.7364 18.5394 15.7529C17.6219 14.7694 16.3879 14.0469 15.0827 13.7253C14.3339 13.5407 13.5798 13.5117 12.8151 13.5117H8.13759C7.35448 13.5117 6.57665 13.5486 5.81464 13.7516C4.52001 14.0944 3.30184 14.8248 2.40272 15.8162C1.49569 16.8155 0.839149 18.0706 0.625575 19.41C0.483192 20.3092 0.512196 21.2109 0.512196 22.1179C0.512196 22.5345 0.488466 22.9696 0.638759 23.3678C0.833876 23.8793 1.14501 24.2827 1.60116 24.5859C1.95712 24.8206 2.408 24.934 2.82987 24.9392C3.03554 24.9419 3.2412 24.9392 3.44686 24.9392H18.1703C18.7214 24.9392 19.2514 24.4541 19.225 23.8845C19.1986 23.3097 18.7609 22.8272 18.1677 22.8272Z" fill="black" fill-opacity="0.2"/>
<defs>
<linearGradient id="paint0_linear_3703_35580" x1="10.5001" y1="0.0625" x2="10.5001" y2="24.9404" gradientUnits="userSpaceOnUse">
<stop stop-color="#FF0F0F"/>
<stop offset="1" stop-color="#FF4849"/>
</linearGradient>
</defs>
</svg>