<svg width="38" height="38" viewBox="0 0 30 28" fill="none" xmlns="http://www.w3.org/2000/svg">
<path d="M28.4919 20.7867H1.48202C0.950609 20.7867 0.519531 21.2178 0.519531 21.7492V26.4564C0.519531 26.9884 0.950636 27.4189 1.48202 27.4189H28.4919C29.0233 27.4189 29.4544 26.9884 29.4544 26.4564V21.7492C29.4544 21.2178 29.0233 20.7867 28.4919 20.7867ZM2.55687 25.3552C1.86641 25.3552 1.30532 24.7945 1.30532 24.1037C1.30532 23.4122 1.86641 22.8502 2.55687 22.8502C3.24967 22.8502 3.80968 23.4119 3.80968 24.1037C3.80947 24.7949 3.24989 25.3552 2.55687 25.3552ZM6.10814 25.3552C5.41768 25.3552 4.85658 24.7945 4.85658 24.1037C4.85658 23.4122 5.41768 22.8502 6.10814 22.8502C6.80093 22.8502 7.36094 23.4119 7.36094 24.1037C7.36094 24.7949 6.80093 25.3552 6.10814 25.3552ZM9.6594 25.3552C8.96894 25.3552 8.40784 24.7945 8.40784 24.1037C8.40784 23.4122 8.96894 22.8502 9.6594 22.8502C10.3522 22.8502 10.9129 23.4119 10.9129 24.1037C10.9129 24.7949 10.3522 25.3552 9.6594 25.3552ZM13.2104 25.3552C12.52 25.3552 11.9589 24.7945 11.9589 24.1037C11.9589 23.4122 12.52 22.8502 13.2104 22.8502C13.9032 22.8502 14.4639 23.4119 14.4639 24.1037C14.4639 24.7949 13.9037 25.3552 13.2104 25.3552ZM16.7624 25.3552C16.0719 25.3552 15.5108 24.7945 15.5108 24.1037C15.5108 23.4122 16.0719 22.8502 16.7624 22.8502C17.4545 22.8502 18.0152 23.4119 18.0152 24.1037C18.0152 24.7949 17.4547 25.3552 16.7624 25.3552ZM20.3134 25.3552C19.6229 25.3552 19.0618 24.7945 19.0618 24.1037C19.0618 23.4122 19.6229 22.8502 20.3134 22.8502C21.0062 22.8502 21.5662 23.4119 21.5662 24.1037C21.5664 24.7949 21.0066 25.3552 20.3134 25.3552ZM23.8647 25.3552C23.1742 25.3552 22.6131 24.7945 22.6131 24.1037C22.6131 23.4122 23.1742 22.8502 23.8647 22.8502C24.5575 22.8502 25.1181 23.4119 25.1181 24.1037C25.1181 24.7949 24.5577 25.3552 23.8647 25.3552ZM27.4162 25.3552C26.7257 25.3552 26.1646 24.7945 26.1646 24.1037C26.1646 23.4122 26.7257 22.8502 27.4162 22.8502C28.1089 22.8502 28.6696 23.4119 28.6696 24.1037C28.6694 24.7949 28.1089 25.3552 27.4162 25.3552ZM14.0879 5.93287C16.2017 5.49243 18.3142 6.62925 19.1108 8.63613C19.7133 10.1549 19.4249 11.8267 18.4524 13.0396L18.4587 12.9974C18.5154 12.6181 18.2533 12.2648 17.8739 12.2082C17.4903 12.1505 17.1411 12.4141 17.0847 12.7934L16.8224 14.5603C16.7952 14.7426 16.8414 14.9282 16.9515 15.0762C17.0613 15.224 17.2255 15.3228 17.4078 15.3491L19.1751 15.6101C19.2095 15.6152 19.2438 15.6178 19.2775 15.6178C19.6162 15.6178 19.9126 15.3697 19.9638 15.0246C20.02 14.6453 19.7576 14.2922 19.3783 14.236L19.2682 14.2197C20.7594 12.61 21.2473 10.252 20.4025 8.12288C19.3558 5.48682 16.5792 3.99271 13.8052 4.57227C13.4298 4.65073 13.1888 5.01864 13.2668 5.39377C13.3452 5.76974 13.7121 6.01171 14.0881 5.93281L14.0879 5.93287ZM9.572 12.4211C10.4675 14.6767 12.6281 16.0958 14.9726 16.0958C15.3687 16.0955 15.7699 16.055 16.1709 15.9715C16.5462 15.893 16.7871 15.5251 16.7088 15.1498C16.6308 14.7746 16.2631 14.5329 15.8871 14.6118C13.7727 15.0535 11.6601 13.9156 10.8631 11.9085C10.2257 10.3001 10.5883 8.52011 11.7039 7.29532L11.6759 7.48468C11.6193 7.86404 11.8814 8.2171 12.2607 8.27351C12.2953 8.27902 12.3301 8.28114 12.3638 8.28114C12.7022 8.28114 12.9989 8.03346 13.05 7.68867L13.3123 5.92139C13.3395 5.73903 13.2933 5.55348 13.1832 5.40589C13.0734 5.25788 12.9096 5.15927 12.7273 5.13255L10.96 4.87109C10.5813 4.81511 10.2276 5.07721 10.1714 5.45656C10.1152 5.83593 10.3773 6.18898 10.7567 6.24517L10.7806 6.24878C9.23305 7.85954 8.71478 10.2579 9.5719 12.4211L9.572 12.4211ZM14.9872 19.9668C20.3327 19.9668 24.6821 15.618 24.6821 10.2725C24.6821 4.92723 20.3329 0.578125 14.9872 0.578125C9.64198 0.578125 5.29342 4.92712 5.29342 10.2725C5.29342 15.6181 9.64219 19.9668 14.9872 19.9668ZM14.9872 1.96784C19.5667 1.96784 23.2929 5.69341 23.2929 10.273C23.2929 14.8523 19.5669 18.5782 14.9872 18.5782C10.4081 18.5782 6.68205 14.8524 6.68205 10.273C6.68205 5.69374 10.4081 1.96838 14.9872 1.96838V1.96784Z" fill="url(#paint0_linear_3819_28625)"/>
<path d="M28.4919 20.7867H1.48202C0.950609 20.7867 0.519531 21.2178 0.519531 21.7492V26.4564C0.519531 26.9884 0.950636 27.4189 1.48202 27.4189H28.4919C29.0233 27.4189 29.4544 26.9884 29.4544 26.4564V21.7492C29.4544 21.2178 29.0233 20.7867 28.4919 20.7867ZM2.55687 25.3552C1.86641 25.3552 1.30532 24.7945 1.30532 24.1037C1.30532 23.4122 1.86641 22.8502 2.55687 22.8502C3.24967 22.8502 3.80968 23.4119 3.80968 24.1037C3.80947 24.7949 3.24989 25.3552 2.55687 25.3552ZM6.10814 25.3552C5.41768 25.3552 4.85658 24.7945 4.85658 24.1037C4.85658 23.4122 5.41768 22.8502 6.10814 22.8502C6.80093 22.8502 7.36094 23.4119 7.36094 24.1037C7.36094 24.7949 6.80093 25.3552 6.10814 25.3552ZM9.6594 25.3552C8.96894 25.3552 8.40784 24.7945 8.40784 24.1037C8.40784 23.4122 8.96894 22.8502 9.6594 22.8502C10.3522 22.8502 10.9129 23.4119 10.9129 24.1037C10.9129 24.7949 10.3522 25.3552 9.6594 25.3552ZM13.2104 25.3552C12.52 25.3552 11.9589 24.7945 11.9589 24.1037C11.9589 23.4122 12.52 22.8502 13.2104 22.8502C13.9032 22.8502 14.4639 23.4119 14.4639 24.1037C14.4639 24.7949 13.9037 25.3552 13.2104 25.3552ZM16.7624 25.3552C16.0719 25.3552 15.5108 24.7945 15.5108 24.1037C15.5108 23.4122 16.0719 22.8502 16.7624 22.8502C17.4545 22.8502 18.0152 23.4119 18.0152 24.1037C18.0152 24.7949 17.4547 25.3552 16.7624 25.3552ZM20.3134 25.3552C19.6229 25.3552 19.0618 24.7945 19.0618 24.1037C19.0618 23.4122 19.6229 22.8502 20.3134 22.8502C21.0062 22.8502 21.5662 23.4119 21.5662 24.1037C21.5664 24.7949 21.0066 25.3552 20.3134 25.3552ZM23.8647 25.3552C23.1742 25.3552 22.6131 24.7945 22.6131 24.1037C22.6131 23.4122 23.1742 22.8502 23.8647 22.8502C24.5575 22.8502 25.1181 23.4119 25.1181 24.1037C25.1181 24.7949 24.5577 25.3552 23.8647 25.3552ZM27.4162 25.3552C26.7257 25.3552 26.1646 24.7945 26.1646 24.1037C26.1646 23.4122 26.7257 22.8502 27.4162 22.8502C28.1089 22.8502 28.6696 23.4119 28.6696 24.1037C28.6694 24.7949 28.1089 25.3552 27.4162 25.3552ZM14.0879 5.93287C16.2017 5.49243 18.3142 6.62925 19.1108 8.63613C19.7133 10.1549 19.4249 11.8267 18.4524 13.0396L18.4587 12.9974C18.5154 12.6181 18.2533 12.2648 17.8739 12.2082C17.4903 12.1505 17.1411 12.4141 17.0847 12.7934L16.8224 14.5603C16.7952 14.7426 16.8414 14.9282 16.9515 15.0762C17.0613 15.224 17.2255 15.3228 17.4078 15.3491L19.1751 15.6101C19.2095 15.6152 19.2438 15.6178 19.2775 15.6178C19.6162 15.6178 19.9126 15.3697 19.9638 15.0246C20.02 14.6453 19.7576 14.2922 19.3783 14.236L19.2682 14.2197C20.7594 12.61 21.2473 10.252 20.4025 8.12288C19.3558 5.48682 16.5792 3.99271 13.8052 4.57227C13.4298 4.65073 13.1888 5.01864 13.2668 5.39377C13.3452 5.76974 13.7121 6.01171 14.0881 5.93281L14.0879 5.93287ZM9.572 12.4211C10.4675 14.6767 12.6281 16.0958 14.9726 16.0958C15.3687 16.0955 15.7699 16.055 16.1709 15.9715C16.5462 15.893 16.7871 15.5251 16.7088 15.1498C16.6308 14.7746 16.2631 14.5329 15.8871 14.6118C13.7727 15.0535 11.6601 13.9156 10.8631 11.9085C10.2257 10.3001 10.5883 8.52011 11.7039 7.29532L11.6759 7.48468C11.6193 7.86404 11.8814 8.2171 12.2607 8.27351C12.2953 8.27902 12.3301 8.28114 12.3638 8.28114C12.7022 8.28114 12.9989 8.03346 13.05 7.68867L13.3123 5.92139C13.3395 5.73903 13.2933 5.55348 13.1832 5.40589C13.0734 5.25788 12.9096 5.15927 12.7273 5.13255L10.96 4.87109C10.5813 4.81511 10.2276 5.07721 10.1714 5.45656C10.1152 5.83593 10.3773 6.18898 10.7567 6.24517L10.7806 6.24878C9.23305 7.85954 8.71478 10.2579 9.5719 12.4211L9.572 12.4211ZM14.9872 19.9668C20.3327 19.9668 24.6821 15.618 24.6821 10.2725C24.6821 4.92723 20.3329 0.578125 14.9872 0.578125C9.64198 0.578125 5.29342 4.92712 5.29342 10.2725C5.29342 15.6181 9.64219 19.9668 14.9872 19.9668ZM14.9872 1.96784C19.5667 1.96784 23.2929 5.69341 23.2929 10.273C23.2929 14.8523 19.5669 18.5782 14.9872 18.5782C10.4081 18.5782 6.68205 14.8524 6.68205 10.273C6.68205 5.69374 10.4081 1.96838 14.9872 1.96838V1.96784Z" fill="black" fill-opacity="0.2"/>
<defs>
<linearGradient id="paint0_linear_3819_28625" x1="14.9869" y1="0.578125" x2="14.9869" y2="27.4189" gradientUnits="userSpaceOnUse">
<stop stop-color="#FF0F0F"/>
<stop offset="1" stop-color="#FF4849"/>
</linearGradient>
</defs>
</svg>