<svg width="38" height="38" viewBox="0 0 24 22" fill="none" xmlns="http://www.w3.org/2000/svg">
<path d="M23.4279 12.1889L22.0634 10.502C22.0493 10.4844 22.0324 10.4712 22.017 10.4554C22.0083 10.4458 21.9991 10.4364 21.9897 10.4275C21.9612 10.4007 21.9322 10.3766 21.9011 10.3543C21.89 10.3462 21.8784 10.3387 21.867 10.3313C21.8359 10.3119 21.8045 10.2945 21.7717 10.2797C21.756 10.2726 21.74 10.2659 21.7239 10.2596C21.6929 10.248 21.6614 10.2382 21.6293 10.2302C21.6094 10.2253 21.59 10.2215 21.5697 10.2181C21.5384 10.213 21.5076 10.2101 21.4759 10.2087C21.4634 10.2081 21.4513 10.205 21.4384 10.205C21.4279 10.205 21.4183 10.2079 21.4076 10.2081C21.3801 10.2094 21.3525 10.2125 21.3255 10.2161C21.298 10.2204 21.271 10.2244 21.2449 10.2311C21.2248 10.2362 21.2049 10.2429 21.1851 10.2496C21.1525 10.2605 21.1214 10.2724 21.0911 10.2871C21.0777 10.2938 21.0652 10.3012 21.052 10.3083C21.0165 10.3284 20.9819 10.3503 20.95 10.3755C20.9462 10.3784 20.9424 10.38 20.9384 10.3829L19.2515 11.7474C18.9082 12.0251 18.8547 12.5289 19.1328 12.8726C19.4096 13.2157 19.9136 13.2697 20.258 12.9913L20.458 12.8295C19.6073 17.098 15.8332 20.3255 11.318 20.3255C6.17868 20.3255 1.99799 16.1447 1.99799 11.0055C1.99799 5.86629 6.17879 1.68549 11.318 1.68549C15.1691 1.68549 18.6729 4.10446 20.0369 7.70492C20.1933 8.11809 20.6554 8.32543 21.0686 8.16965C21.4817 8.01318 21.6898 7.55114 21.5333 7.13794C19.9355 2.91965 15.8306 0.0859375 11.3184 0.0859375C5.2973 0.0859375 0.398438 4.98479 0.398438 11.0059C0.398438 17.0271 5.2973 21.9259 11.3184 21.9259C16.6486 21.9259 21.0967 18.086 22.0476 13.0271L22.184 13.1954C22.3418 13.3905 22.573 13.4923 22.8063 13.4923C22.9829 13.4923 23.1605 13.434 23.3088 13.3139C23.6523 13.0367 23.7056 12.5327 23.4277 12.1893L23.4279 12.1889Z" fill="#CC1212"/>
</svg>