<svg width="38" height="38" viewBox="0 0 31 31" fill="none" xmlns="http://www.w3.org/2000/svg">
<path d="M26.6403 3.46592e-05C24.5282 3.46592e-05 22.8002 1.63195 22.6084 3.69612V4.08016C22.6084 4.36811 22.6563 4.65606 22.7045 4.94399C23.0407 6.52799 24.2885 7.72799 25.8243 8.06382C26.1123 8.1117 26.4002 8.15991 26.6882 8.15991H27.0722C29.136 7.96806 30.7683 6.24009 30.7683 4.128C30.7201 1.82374 28.8963 3.46592e-05 26.6403 3.46592e-05ZM27.024 6.91212H26.64C26.3521 6.91212 26.0641 6.86424 25.7762 6.76815C24.8641 6.4802 24.1443 5.75997 23.9042 4.89615C23.8081 4.6082 23.7602 4.36813 23.7602 4.03232V3.64827C23.9521 2.25645 25.152 1.15219 26.5921 1.15219C28.1761 1.15219 29.4723 2.44827 29.4723 4.03236C29.5202 5.51993 28.4163 6.71993 27.0241 6.91219L27.024 6.91212ZM26.4003 8.83195C26.7364 8.83195 26.9762 9.1199 26.9762 9.40785V29.2798C26.9762 30.0958 26.3521 30.7199 25.5361 30.7199H1.44009C0.624129 30.7199 0 30.0958 0 29.2798V5.13585C0 4.31989 0.624104 3.69576 1.44009 3.69576H21.2641C21.6003 3.69576 21.84 3.98371 21.84 4.27166C21.84 4.60782 21.552 4.84755 21.2641 4.84755L1.92009 4.84789C1.53604 4.84789 1.20022 5.18405 1.20022 5.56775V28.7998C1.20022 29.1838 1.53639 29.5196 1.92009 29.5196H25.1041C25.4881 29.5196 25.824 29.1835 25.824 28.7998V9.45575C25.824 9.11959 26.064 8.83165 26.4002 8.83165L26.4003 8.83195Z" fill="url(#paint0_linear_3620_16801)"/>
<defs>
<linearGradient id="paint0_linear_3620_16801" x1="23.9719" y1="-5.52492e-09" x2="23.8313" y2="37.303" gradientUnits="userSpaceOnUse">
<stop stop-color="#005CAA"/>
<stop offset="1" stop-color="#64B0F1"/>
</linearGradient>
</defs>
</svg>