<svg width="38" height="38" viewBox="0 0 18 24" fill="none" xmlns="http://www.w3.org/2000/svg">
<path d="M2.83127 6.35984H9.87593C10.0375 6.35984 10.1681 6.22879 10.1681 6.06763C10.1681 5.90625 10.0375 5.77542 9.87593 5.77542L2.83127 5.77521C2.6699 5.77521 2.53906 5.90626 2.53906 6.06742C2.53906 6.229 2.6699 6.35984 2.83127 6.35984Z" fill="url(#paint0_linear_3240_12999)"/>
<path d="M2.83127 8.87381H7.18661C7.34799 8.87381 7.47882 8.74276 7.47882 8.58161C7.47882 8.42023 7.34777 8.2894 7.18661 8.2894L2.83127 8.28918C2.6699 8.28918 2.53906 8.42024 2.53906 8.58139C2.53906 8.74277 2.6699 8.87381 2.83127 8.87381Z" fill="url(#paint1_linear_3240_12999)"/>
<path d="M16.4821 15.3925H15.2838V4.60589C15.2838 4.5287 15.2534 4.45448 15.1987 4.39956L11.9322 0.870553C11.8769 0.81054 11.7991 0.776611 11.7174 0.776611H2.51003C1.15609 0.776611 0.0546875 1.87801 0.0546875 3.23195V19.0166C0.0546875 20.3706 1.15609 21.4718 2.51003 21.4718H6.19299V21.735C6.19299 22.5408 6.84865 23.1964 7.65447 23.1964H16.4824C17.2882 23.1964 17.9439 22.5408 17.9439 21.735L17.9441 16.8537C17.9441 16.0477 17.2884 15.3922 16.4824 15.3922L16.4821 15.3925ZM2.51 20.8878C1.47835 20.8878 0.639258 20.0485 0.639258 19.0173V3.23262C0.639258 2.20098 1.47857 1.36188 2.51 1.36188H11.396V4.57723C11.396 4.7386 11.5267 4.86943 11.6882 4.86943H14.699V15.3927H13.2375V15.042C13.2375 14.7205 12.9743 14.4573 12.6528 14.4573H11.5128C11.1914 14.4573 10.9282 14.7205 10.9282 15.042V15.3925H7.65448C6.84867 15.3925 6.193 16.0482 6.193 16.854V20.8879L2.51 20.8878ZM17.3593 21.7354C17.3593 22.2188 16.966 22.6122 16.4825 22.6122L7.65455 22.6124C7.17107 22.6124 6.77772 22.219 6.77772 21.7356L6.77751 16.8539C6.77751 16.3704 7.17087 15.9771 7.65434 15.9771H16.4823C16.9658 15.9771 17.3591 16.3704 17.3591 16.8539L17.3593 21.7354Z" fill="url(#paint2_linear_3240_12999)"/>
<path d="M10.929 19.4845H8.94127C8.59053 19.4845 8.29809 19.7477 8.23979 20.0984L8.03516 21.3552H11.8352L11.6305 20.0984C11.5722 19.7477 11.28 19.4845 10.929 19.4845Z" fill="url(#paint3_linear_3240_12999)"/>
<path d="M9.96299 19.1045C10.4015 19.1045 10.7815 18.783 10.8398 18.3445V18.2276C10.8398 17.9645 10.6937 17.7308 10.5183 17.5554C10.3722 17.4386 10.1969 17.3508 10.0506 17.3215H9.96276C9.52423 17.3215 9.14424 17.643 9.08594 18.0815V18.2276C9.08594 18.6952 9.46595 19.1045 9.96299 19.1045Z" fill="url(#paint4_linear_3240_12999)"/>
<path d="M15.8683 17.7599H13.2375C13.0759 17.7599 12.9453 17.8905 12.9453 18.0521C12.9453 18.2137 13.0759 18.3443 13.2375 18.3443H15.8683C16.0298 18.3443 16.1605 18.2137 16.1605 18.0521C16.1607 17.8905 16.0296 17.7599 15.8683 17.7599Z" fill="url(#paint5_linear_3240_12999)"/>
<path d="M15.8683 19.1924H13.2375C13.0759 19.1924 12.9453 19.3231 12.9453 19.4847C12.9453 19.6462 13.0759 19.7769 13.2375 19.7769H15.8683C16.0298 19.7769 16.1605 19.6462 16.1605 19.4847C16.1607 19.3231 16.0296 19.1924 15.8683 19.1924Z" fill="url(#paint6_linear_3240_12999)"/>
<path d="M15.8683 20.6245H13.2375C13.0759 20.6245 12.9453 20.7551 12.9453 20.9167C12.9453 21.0783 13.0759 21.2089 13.2375 21.2089H15.8683C16.0298 21.2089 16.1605 21.0783 16.1605 20.9167C16.1607 20.7551 16.0296 20.6245 15.8683 20.6245Z" fill="url(#paint7_linear_3240_12999)"/>
<path d="M6.60075 13.3155C6.62534 13.318 6.65015 13.3199 6.67539 13.3199C7.0802 13.3199 7.56985 12.9213 8.34234 10.6035C8.39344 10.4504 8.31074 10.2848 8.15764 10.2337C8.00412 10.1826 7.83893 10.2655 7.78782 10.4184C7.16522 12.2866 6.80009 12.6488 6.69977 12.7186C6.65439 12.6104 6.62153 12.3623 6.60265 12.2198C6.5471 11.7968 6.47712 11.2707 6.01908 11.2707C5.61681 11.2707 5.31993 11.73 5.00567 12.216C4.98701 12.2448 4.96687 12.2764 4.94545 12.3089C4.94545 12.3029 4.94524 12.2974 4.94524 12.2917C4.93527 11.7253 4.92424 11.0832 4.4749 10.964C3.99036 10.8029 3.43158 11.4662 2.50384 12.8308C2.41287 12.9644 2.44764 13.1461 2.58124 13.2371C2.71483 13.3282 2.89656 13.2928 2.98732 13.1597C3.6375 12.2035 4.07537 11.6613 4.29105 11.5449C4.35 11.6971 4.35721 12.0981 4.3606 12.3023C4.36908 12.7896 4.37523 13.1419 4.69183 13.2207C4.70434 13.2239 4.71707 13.2262 4.73021 13.2275C5.02476 13.2614 5.21391 12.9714 5.497 12.5337C5.61002 12.3585 5.8261 12.0246 5.95673 11.9003C5.98557 12.0086 6.00847 12.1813 6.02374 12.2966C6.07994 12.7235 6.15076 13.2553 6.60075 13.3156V13.3155Z" fill="url(#paint8_linear_3240_12999)"/>
<defs>
<linearGradient id="paint0_linear_3240_12999" x1="8.48295" y1="5.77521" x2="8.48274" y2="6.48513" gradientUnits="userSpaceOnUse">
<stop stop-color="#005CAA"/>
<stop offset="1" stop-color="#64B0F1"/>
</linearGradient>
<linearGradient id="paint1_linear_3240_12999" x1="6.38768" y1="8.28918" x2="6.38736" y2="8.99911" gradientUnits="userSpaceOnUse">
<stop stop-color="#005CAA"/>
<stop offset="1" stop-color="#64B0F1"/>
</linearGradient>
<linearGradient id="paint2_linear_3240_12999" x1="13.9925" y1="0.776611" x2="13.8638" y2="28.0007" gradientUnits="userSpaceOnUse">
<stop stop-color="#005CAA"/>
<stop offset="1" stop-color="#64B0F1"/>
</linearGradient>
<linearGradient id="paint3_linear_3240_12999" x1="10.9958" y1="19.4845" x2="10.9916" y2="21.7562" gradientUnits="userSpaceOnUse">
<stop stop-color="#005CAA"/>
<stop offset="1" stop-color="#64B0F1"/>
</linearGradient>
<linearGradient id="paint4_linear_3240_12999" x1="10.4524" y1="17.3215" x2="10.4441" y2="19.4866" gradientUnits="userSpaceOnUse">
<stop stop-color="#005CAA"/>
<stop offset="1" stop-color="#64B0F1"/>
</linearGradient>
<linearGradient id="paint5_linear_3240_12999" x1="15.4503" y1="17.7599" x2="15.4498" y2="18.4696" gradientUnits="userSpaceOnUse">
<stop stop-color="#005CAA"/>
<stop offset="1" stop-color="#64B0F1"/>
</linearGradient>
<linearGradient id="paint6_linear_3240_12999" x1="15.4503" y1="19.1924" x2="15.4498" y2="19.9021" gradientUnits="userSpaceOnUse">
<stop stop-color="#005CAA"/>
<stop offset="1" stop-color="#64B0F1"/>
</linearGradient>
<linearGradient id="paint7_linear_3240_12999" x1="15.4503" y1="20.6245" x2="15.4498" y2="21.3342" gradientUnits="userSpaceOnUse">
<stop stop-color="#005CAA"/>
<stop offset="1" stop-color="#64B0F1"/>
</linearGradient>
<linearGradient id="paint8_linear_3240_12999" x1="7.05324" y1="10.2186" x2="7.04578" y2="13.9846" gradientUnits="userSpaceOnUse">
<stop stop-color="#005CAA"/>
<stop offset="1" stop-color="#64B0F1"/>
</linearGradient>
</defs>
</svg>