     <svg width="38" height="38" viewBox="0 0 28 26" fill="none"
                                xmlns="http://www.w3.org/2000/svg">
                                <path fill-rule="evenodd" clip-rule="evenodd"
                                    d="M12.76 19.7578H1.5C0.671429 19.7578 0 19.0864 0 18.2578V2.25781C0 1.42924 0.671429 0.757812 1.5 0.757812H26.5C27.3286 0.757812 28 1.42924 28 2.25781V18.2578C28 19.0864 27.3286 19.7578 26.5 19.7578H15.24L15.6565 21.7578H18.0001C18.3981 21.7578 18.7795 21.9158 19.0606 22.1973C19.3421 22.4783 19.5001 22.8598 19.5001 23.2578V23.7578C19.5001 24.1558 19.3421 24.5373 19.0606 24.8183C18.7795 25.0998 18.3981 25.2579 18.0001 25.2579H10.0001C9.60207 25.2579 9.22058 25.0998 8.93955 24.8183C8.65808 24.5373 8.50004 24.1558 8.50004 23.7578V23.2578C8.50004 22.8598 8.65808 22.4783 8.93955 22.1973C9.22058 21.9158 9.60206 21.7578 10.0001 21.7578H12.3436L12.76 19.7578ZM1.5 18.7578H26.5C26.7759 18.7578 27 18.5337 27 18.2578V2.25781C27 1.98192 26.7759 1.75781 26.5 1.75781H1.5C1.22411 1.75781 1 1.98192 1 2.25781V18.2578C1 18.5337 1.22411 18.7578 1.5 18.7578ZM14.6349 21.7578L14.2183 19.7578H13.7813L13.3648 21.7578H14.6349ZM17.9998 22.7578H9.99983C9.86724 22.7578 9.73978 22.8103 9.64626 22.9042C9.55229 22.9978 9.49983 23.1252 9.49983 23.2578V23.7578C9.49983 23.8904 9.55229 24.0179 9.64626 24.1114C9.73978 24.2054 9.86724 24.2578 9.99983 24.2578H17.9998C18.1324 24.2578 18.2599 24.2054 18.3534 24.1114C18.4474 24.0179 18.4998 23.8904 18.4998 23.7578V23.2578C18.4998 23.1252 18.4474 22.9978 18.3534 22.9042C18.2599 22.8103 18.1324 22.7578 17.9998 22.7578ZM2.49983 17.2578C2.22394 17.2578 1.99983 17.0337 1.99983 16.7578C1.99983 16.4819 2.22394 16.2578 2.49983 16.2578H25.4998C25.7757 16.2578 25.9998 16.4819 25.9998 16.7578C25.9998 17.0337 25.7757 17.2578 25.4998 17.2578H2.49983ZM18.9998 9.25781C18.7239 9.25781 18.4998 9.0337 18.4998 8.75781C18.4998 8.48192 18.7239 8.25781 18.9998 8.25781C19.6663 8.25781 18.9998 9.25781 18.9998 9.25781ZM16.9998 8.25781C17.2757 8.25781 17.4998 8.48192 17.4998 8.75781C17.4998 9.0337 17.2757 9.25781 16.9998 9.25781C16.7239 9.25781 16.4998 9.0337 16.4998 8.75781C16.4998 8.48192 16.7239 8.25781 16.9998 8.25781ZM14.9998 8.25781C15.2757 8.25781 15.4998 8.48192 15.4998 8.75781C15.4998 9.0337 15.2757 9.25781 14.9998 9.25781C14.7239 9.25781 14.4998 9.0337 14.4998 8.75781C14.4998 8.48192 14.7239 8.25781 14.9998 8.25781ZM13.4998 10.1868C13.4998 9.91095 13.7239 9.68684 13.9998 9.68684C14.2757 9.68684 14.4998 9.91095 14.4998 10.1868C14.4998 10.4627 14.2757 10.6868 13.9998 10.6868C13.7239 10.6868 13.4998 10.4627 13.4998 10.1868ZM13.4998 12.1868C13.4998 11.9109 13.7239 11.6868 13.9998 11.6868C14.2757 11.6868 14.4998 11.9109 14.4998 12.1868C14.4998 12.4627 14.2757 12.6868 13.9998 12.6868C13.7239 12.6868 13.4998 12.4627 13.4998 12.1868ZM13.4547 13.9659C13.5697 13.715 13.8668 13.6043 14.1177 13.7194C14.3686 13.8344 14.4787 14.1315 14.3637 14.382C14.2492 14.6328 13.9521 14.7436 13.7012 14.6284C13.4503 14.5134 13.3396 14.2163 13.4547 13.9659ZM12.1418 14.2578C12.4177 14.2578 12.6418 14.4819 12.6418 14.7578C12.6418 15.0337 12.4177 15.2578 12.1418 15.2578C11.8659 15.2578 11.6418 15.0337 11.6418 14.7578C11.6418 14.4819 11.8659 14.2578 12.1418 14.2578ZM10.1418 14.2578C10.4177 14.2578 10.6418 14.4819 10.6418 14.7578C10.6418 15.0337 10.4177 15.2578 10.1418 15.2578C9.86588 15.2578 9.64177 15.0337 9.64177 14.7578C9.64177 14.4819 9.86588 14.2578 10.1418 14.2578ZM22.1492 11.7578C21.7447 11.1418 20.7771 9.61944 20.1387 8.21789C19.7572 7.37995 19.4996 6.57795 19.4996 6.00784C19.4996 4.21429 20.9561 2.75784 22.7496 2.75784C24.5431 2.75784 25.9996 4.21429 25.9996 6.00784C25.9996 6.57793 25.742 7.37995 25.3605 8.21789C24.7221 9.61944 23.7545 11.142 23.35 11.7578H24.2495C24.5254 11.7578 24.7495 11.9819 24.7495 12.2578C24.7495 12.5337 24.5254 12.7578 24.2495 12.7578H21.2495C20.9736 12.7578 20.7495 12.5337 20.7495 12.2578C20.7495 11.9819 20.9736 11.7578 21.2495 11.7578H22.1492ZM22.7497 10.8462C23.2041 10.1346 23.9381 8.92881 24.4506 7.80315C24.7622 7.11921 24.9997 6.47258 24.9997 6.00761C24.9997 4.76566 23.9916 3.75761 22.7497 3.75761C21.5077 3.75761 20.4997 4.76566 20.4997 6.00761C20.4997 6.47256 20.7372 7.11921 21.0488 7.80315C21.5613 8.92858 22.2951 10.1346 22.7497 10.8462ZM22.7497 4.50795C23.5775 4.50795 24.2497 5.18006 24.2497 6.00795C24.2497 6.83583 23.5775 7.50795 22.7497 7.50795C21.9218 7.50795 21.2497 6.83583 21.2497 6.00795C21.2497 5.18006 21.9218 4.50795 22.7497 4.50795ZM22.7497 5.50795C22.4738 5.50795 22.2497 5.73206 22.2497 6.00795C22.2497 6.28384 22.4738 6.50795 22.7497 6.50795C23.0255 6.50795 23.2497 6.28384 23.2497 6.00795C23.2497 5.73206 23.0255 5.50795 22.7497 5.50795ZM6.14908 14.2577C5.74462 13.6416 4.77697 12.1193 4.13857 10.7177C3.75709 9.87978 3.49948 9.07778 3.49948 8.50766C3.49948 6.71412 4.95594 5.25766 6.74948 5.25766C8.54303 5.25766 9.99948 6.71412 9.99948 8.50766C9.99948 9.07776 9.74189 9.87978 9.3604 10.7177C8.722 12.1193 7.7544 13.6418 7.34988 14.2577H8.24943C8.52532 14.2577 8.74942 14.4818 8.74942 14.7577C8.74942 15.0336 8.52532 15.2577 8.24943 15.2577H5.24943C4.97353 15.2577 4.74943 15.0336 4.74943 14.7577C4.74943 14.4818 4.97353 14.2577 5.24943 14.2577H6.14908ZM6.74954 13.3461C7.204 12.6345 7.93794 11.4286 8.45045 10.303C8.76206 9.61904 8.99956 8.97241 8.99956 8.50743C8.99956 7.26549 7.99151 6.25743 6.74956 6.25743C5.50762 6.25743 4.49956 7.26549 4.49956 8.50743C4.49956 8.97239 4.73706 9.61904 5.04867 10.303C5.56117 11.4284 6.29503 12.6345 6.74954 13.3461ZM6.74954 7.00778C7.57743 7.00778 8.24954 7.67989 8.24954 8.50778C8.24954 9.33566 7.57743 10.0078 6.74954 10.0078C5.92165 10.0078 5.24954 9.33566 5.24954 8.50778C5.24954 7.67989 5.92165 7.00778 6.74954 7.00778ZM6.74954 8.00778C6.47365 8.00778 6.24954 8.23189 6.24954 8.50778C6.24954 8.78367 6.47365 9.00778 6.74954 9.00778C7.02543 9.00778 7.24954 8.78367 7.24954 8.50778C7.24954 8.23189 7.02543 8.00778 6.74954 8.00778Z"
                                    fill="#CC1212" />
                            </svg>