  <svg width="38" height="38" viewBox="0 0 24 32" fill="none"
                                xmlns="http://www.w3.org/2000/svg">
                                <path
                                    d="M8.48207 9.27921H12.5832C12.9366 9.27921 13.2234 9.56604 13.2234 9.91939V14.0205C13.2234 14.3739 12.9366 14.6607 12.5832 14.6607H8.48207C8.12872 14.6607 7.8419 14.3739 7.8419 14.0205V9.91939C7.8419 9.56604 8.12873 9.27921 8.48207 9.27921ZM18.6495 1.35293V1.85672C18.6495 2.47992 18.3939 3.04735 17.9832 3.45849C17.5698 3.87167 17.0024 4.12701 16.3797 4.12701H11.4047C10.7815 4.12701 10.2141 3.87143 9.80293 3.46072C9.38976 3.04733 9.13441 2.47992 9.13441 1.85672V1.35293H7.99447C7.27258 1.35293 6.61767 1.6469 6.14447 2.12059C5.66858 2.59603 5.37458 3.25139 5.37458 3.97327V26.7184C5.37458 27.4396 5.669 28.0952 6.14287 28.57C6.61765 29.0438 7.27321 29.3382 7.99441 29.3382H19.7887C20.509 29.3382 21.1641 29.0434 21.6402 28.5684C22.115 28.0951 22.409 27.4398 22.409 26.7184V3.97321C22.409 3.25293 22.1141 2.59779 21.6391 2.12276C21.1659 1.64687 20.5105 1.35287 19.7886 1.35287L18.6495 1.35293ZM10.4146 1.35293V1.85672C10.4146 2.12971 10.5258 2.37793 10.7042 2.55718C10.8834 2.73553 11.1316 2.84669 11.4046 2.84669H16.3796C16.6521 2.84669 16.9003 2.73553 17.0796 2.55718C17.2579 2.37794 17.3691 2.12972 17.3691 1.85672V1.35293H10.4146ZM10.4399 28.3306C10.0865 28.3306 9.79969 28.0438 9.79969 27.6905C9.79969 27.3371 10.0865 27.0503 10.4399 27.0503H17.3427C17.6961 27.0503 17.9829 27.3371 17.9829 27.6905C17.9829 28.0438 17.6961 28.3306 17.3427 28.3306H10.4399ZM23.6896 26.7186C23.6896 27.7889 23.2503 28.7646 22.543 29.4724C21.8374 30.1802 20.8617 30.619 19.7887 30.619H7.99444C6.92301 30.619 5.94821 30.1797 5.24129 29.4737C4.53301 28.7645 4.09375 27.79 4.09375 26.7183V3.97316C4.09375 2.90287 4.53259 1.92807 5.23929 1.22001L5.24264 1.21667C5.95024 0.510209 6.92458 0.0722656 7.99418 0.0722656H19.7885C20.8592 0.0722656 21.8347 0.511551 22.5427 1.21889C23.2505 1.92449 23.6893 2.90015 23.6893 3.97312V26.7183L23.6896 26.7186ZM19.3344 18.0809C19.6878 18.0809 19.9746 18.3677 19.9746 18.721C19.9746 19.0744 19.6878 19.3612 19.3344 19.3612H17.9244V20.7717C17.9244 21.1251 17.6376 21.4119 17.2842 21.4119C16.9309 21.4119 16.644 21.1251 16.644 20.7717V19.3612H15.2335C14.8802 19.3612 14.5934 19.0744 14.5934 18.721C14.5934 18.3677 14.8802 18.0809 15.2335 18.0809H16.644V16.6708C16.644 16.3175 16.9309 16.0306 17.2842 16.0306C17.6376 16.0306 17.9244 16.3175 17.9244 16.6708V18.0809H19.3344ZM14.5929 14.055V9.95384C14.5929 9.60049 14.8797 9.31367 15.2331 9.31367H19.3342C19.6876 9.31367 19.9744 9.6005 19.9744 9.95384V14.055C19.9744 14.4083 19.6876 14.6952 19.3342 14.6952H15.2331C14.8797 14.6952 14.5929 14.4083 14.5929 14.055ZM15.8735 10.5941V13.4148H18.6942V10.5941H15.8735ZM7.80889 20.7718V16.6706C7.80889 16.3173 8.09572 16.0305 8.44907 16.0305H12.5502C12.9036 16.0305 13.1904 16.3173 13.1904 16.6706V20.7718C13.1904 21.1251 12.9036 21.412 12.5502 21.412H8.44907C8.09572 21.412 7.80889 21.1251 7.80889 20.7718ZM9.08947 17.3109V20.1316H11.9102V17.3109H9.08947ZM11.9435 10.56H9.12272V13.3808H11.9435V10.56Z"
                                    fill="#CC1212" />
                                <path
                                    d="M0.389286 31.8379C0.386161 31.8361 0.383259 31.835 0.380357 31.8343C0.377232 31.8339 0.374554 31.8334 0.372322 31.8334C0.363393 31.8334 0.356474 31.8366 0.351786 31.8424C0.347545 31.8477 0.345535 31.8555 0.345535 31.8656V31.9129H0.3125V31.8093H0.345535V31.8263C0.349553 31.8198 0.354464 31.8151 0.359821 31.812C0.365625 31.8084 0.372321 31.8066 0.379464 31.8066C0.38058 31.8066 0.381696 31.8071 0.383035 31.8075H0.389286V31.8379Z"
                                    fill="#CC1212" />
                                <path
                                    d="M0.510046 31.8611V31.87H0.432366C0.432813 31.8778 0.435491 31.8839 0.440402 31.8879C0.445089 31.8915 0.452008 31.8932 0.460938 31.8932C0.46808 31.8932 0.475223 31.8924 0.482366 31.8906C0.489509 31.8883 0.496875 31.885 0.504687 31.8807V31.9066C0.496875 31.9098 0.489062 31.9118 0.481473 31.9129C0.47366 31.9147 0.465625 31.9156 0.457366 31.9156C0.438839 31.9156 0.42433 31.9109 0.413616 31.9013C0.403348 31.8919 0.398438 31.8785 0.398438 31.8611C0.398438 31.8446 0.403348 31.8314 0.413616 31.8218C0.42366 31.8118 0.437723 31.8066 0.45558 31.8066C0.472098 31.8066 0.485268 31.8118 0.494866 31.8218C0.504911 31.8314 0.510046 31.8446 0.510046 31.8611ZM0.475224 31.8495C0.475224 31.8437 0.473439 31.8388 0.469867 31.8352C0.466296 31.8312 0.461385 31.829 0.455581 31.829C0.448885 31.829 0.443528 31.8307 0.43951 31.8343C0.435939 31.8379 0.433483 31.843 0.432367 31.8495L0.475224 31.8495Z"
                                    fill="#CC1212" />
                                <path
                                    d="M0.581808 31.8665C0.574665 31.8665 0.569308 31.8678 0.565736 31.87C0.562165 31.8725 0.560379 31.8758 0.560379 31.8799C0.560379 31.8841 0.561718 31.8874 0.564843 31.8897C0.567745 31.8921 0.57154 31.8933 0.57645 31.8933C0.582923 31.8933 0.588281 31.8912 0.592522 31.887C0.59654 31.8823 0.598772 31.8767 0.598772 31.87V31.8665H0.581808ZM0.631808 31.854V31.9129H0.598772V31.8977C0.594531 31.9037 0.589397 31.9082 0.583594 31.9111C0.578237 31.914 0.57154 31.9156 0.563951 31.9156C0.553237 31.9156 0.544308 31.9127 0.537165 31.9066C0.530469 31.9002 0.527344 31.8919 0.527344 31.8816C0.527344 31.8698 0.531362 31.8611 0.539844 31.8557C0.548103 31.8499 0.561272 31.8468 0.579129 31.8468H0.598772V31.8441C0.598772 31.8388 0.59654 31.835 0.592522 31.8325C0.588281 31.8303 0.581808 31.829 0.572879 31.829C0.566183 31.829 0.559709 31.8299 0.553236 31.8316C0.547209 31.833 0.541629 31.8348 0.536272 31.837V31.812C0.543415 31.8102 0.550557 31.8091 0.5577 31.8084C0.564843 31.8073 0.571986 31.8066 0.579129 31.8066C0.598102 31.8066 0.611495 31.8107 0.619307 31.8182C0.627566 31.8254 0.631808 31.8374 0.631808 31.854Z"
                                    fill="#CC1212" />
                                <path
                                    d="M0.755691 31.8263C0.759709 31.8205 0.764843 31.8156 0.770869 31.812C0.776673 31.8084 0.782923 31.8066 0.789619 31.8066C0.801449 31.8066 0.810378 31.8107 0.816405 31.8182C0.822878 31.8254 0.826227 31.8359 0.826227 31.8495V31.9129H0.793191V31.8593V31.8566V31.8531C0.793191 31.8455 0.791852 31.8401 0.78962 31.837C0.787834 31.8334 0.784486 31.8316 0.779798 31.8316C0.773101 31.8316 0.768191 31.8343 0.76462 31.8397C0.761495 31.845 0.759709 31.8526 0.759263 31.862V31.9129H0.726227V31.8593C0.726227 31.8475 0.725334 31.8401 0.723549 31.837C0.721763 31.8334 0.718191 31.8316 0.712834 31.8316C0.706138 31.8316 0.701227 31.8343 0.697656 31.8397C0.694531 31.845 0.693192 31.8526 0.693192 31.862V31.9129H0.660156V31.8093H0.693192V31.8245C0.69721 31.8187 0.701674 31.8142 0.706585 31.8111C0.711942 31.8082 0.717745 31.8066 0.724442 31.8066C0.731585 31.8066 0.737835 31.8084 0.743192 31.812C0.748548 31.8156 0.752566 31.8205 0.755691 31.8263Z"
                                    fill="#CC1212" />
                                <path
                                    d="M0.93817 31.8129V31.8379C0.931027 31.835 0.924108 31.833 0.917634 31.8316C0.910937 31.8299 0.904688 31.829 0.898884 31.829C0.892857 31.829 0.888393 31.8299 0.885491 31.8316C0.882366 31.833 0.881027 31.8352 0.881027 31.8388C0.881027 31.8412 0.88192 31.8432 0.883705 31.845C0.885938 31.8464 0.890179 31.8473 0.896205 31.8477L0.902456 31.8486C0.918973 31.8511 0.930357 31.8546 0.936384 31.8593C0.942188 31.8642 0.945313 31.8718 0.945313 31.8825C0.945313 31.8932 0.941072 31.9017 0.932813 31.9075C0.925 31.9129 0.91317 31.9156 0.897099 31.9156C0.889956 31.9156 0.882813 31.9149 0.87567 31.9138C0.868527 31.9127 0.860938 31.9111 0.853349 31.9093V31.8843C0.859822 31.8874 0.866295 31.8897 0.872992 31.8915C0.880135 31.8928 0.887277 31.8932 0.89442 31.8932C0.900893 31.8932 0.905581 31.8924 0.908706 31.8906C0.912277 31.8888 0.914063 31.8861 0.914063 31.8825C0.914063 31.8796 0.912724 31.8776 0.910492 31.8763C0.908036 31.8752 0.903572 31.8741 0.897099 31.8727L0.891741 31.8718C0.876786 31.87 0.866295 31.8669 0.860491 31.862C0.854464 31.8573 0.851562 31.8495 0.851562 31.8388C0.851562 31.8281 0.855134 31.82 0.862277 31.8147C0.869866 31.8093 0.881473 31.8066 0.897099 31.8066C0.903572 31.8066 0.910045 31.8073 0.916741 31.8084C0.923215 31.8091 0.930357 31.8107 0.93817 31.8129Z"
                                    fill="#CC1212" />
                            </svg>