<svg width="38" height="38" viewBox="0 0 16 28" fill="none" xmlns="http://www.w3.org/2000/svg">
<path d="M2.11569 21.7289V22.337C2.11569 22.593 2.30765 22.785 2.53176 22.8169L3.6197 22.9129C3.68376 23.0729 3.7476 23.233 3.81167 23.3609L3.10766 24.1928C2.94762 24.3848 2.97976 24.6727 3.13958 24.8327L4.57953 26.2408C4.73957 26.4008 5.02752 26.4328 5.21947 26.2727L6.05141 25.5687C6.21146 25.6328 6.37151 25.6966 6.4994 25.7607L6.59538 26.8486C6.6273 27.1047 6.81949 27.2966 7.07529 27.2647H9.05924C9.31527 27.2647 9.50723 27.0727 9.53915 26.8486L9.63513 25.7607C9.79517 25.6966 9.95522 25.6328 10.0831 25.5687L10.9151 26.2727C11.107 26.4328 11.395 26.4006 11.555 26.2408L12.9631 24.8327C13.1231 24.6727 13.155 24.3848 12.995 24.1928L12.291 23.3609C12.355 23.2008 12.4189 23.0729 12.4829 22.9129L13.5709 22.8169C13.8269 22.785 13.987 22.5928 13.987 22.337L13.9876 21.7289C14.9155 21.2169 15.4916 20.5129 15.4916 19.649V18.945C15.4916 14.8171 12.1316 11.457 8.00363 11.457C3.87574 11.457 0.515625 14.8171 0.515625 18.945V19.649C0.611608 20.2571 0.899556 21.0571 2.11563 21.7289H2.11569ZM13.1237 21.889L12.1636 21.9849C11.9717 22.0169 11.8116 22.145 11.7476 22.337C11.6835 22.6249 11.5556 22.9128 11.3956 23.201C11.2996 23.3611 11.2996 23.5849 11.4275 23.745L12.0355 24.4809L11.2355 25.2809L10.4675 24.6729C10.3074 24.545 10.0835 24.5128 9.9235 24.641C9.66747 24.801 9.37953 24.897 9.05944 24.993C8.86748 25.057 8.73935 25.2171 8.70743 25.409L8.61145 26.3691H7.49133L7.39535 25.409C7.36343 25.2171 7.23531 25.057 7.04334 24.993C6.75539 24.897 6.46745 24.801 6.17928 24.641C6.01924 24.545 5.79535 24.545 5.63531 24.6729L4.86725 25.2809L4.06725 24.4809L4.67531 23.745C4.80321 23.5849 4.80321 23.3611 4.70723 23.201C4.54718 22.945 4.41928 22.657 4.35522 22.337C4.29116 22.145 4.13111 22.0169 3.93915 21.9849L2.97909 21.889L2.97954 20.7691L3.9396 20.6731C4.13156 20.6412 4.29161 20.513 4.35566 20.3211C4.41973 20.0331 4.54763 19.7452 4.70768 19.457C4.80366 19.297 4.80366 19.0731 4.67576 18.9131L4.0677 18.145L4.8677 17.345L5.63576 17.9531C5.7958 18.081 6.01969 18.1131 6.17973 17.985C6.43576 17.8249 6.7237 17.7289 7.04379 17.633C7.23575 17.5689 7.36388 17.4089 7.3958 17.2169L7.49178 16.2568H8.61189L8.70788 17.2169C8.7398 17.4089 8.86792 17.5689 9.05989 17.633C9.34784 17.7289 9.63577 17.8249 9.92395 17.985C10.084 18.081 10.3079 18.081 10.4679 17.9531L11.236 17.345L12.036 18.145L11.4279 18.9131C11.3 19.0731 11.3 19.297 11.396 19.457C11.556 19.7131 11.6839 20.001 11.748 20.3211C11.8121 20.513 11.9721 20.6412 12.1641 20.6731L13.1241 20.7691L13.1237 21.889ZM1.57169 18.945C1.57169 15.3289 4.48375 12.417 8.09969 12.417C11.7157 12.417 14.6277 15.3288 14.6277 18.945V19.649C14.5958 20.0329 14.4036 20.353 14.0837 20.5768V20.3527C14.0837 20.0967 13.8918 19.9048 13.6676 19.8728L12.5797 19.7449C12.5156 19.5849 12.4518 19.4248 12.3877 19.2969L13.0917 18.465C13.2518 18.273 13.2196 17.9851 13.0598 17.8251L11.6199 16.3849C11.4598 16.2248 11.1719 16.1929 10.9799 16.353L10.148 17.057C10.0201 16.9929 9.86004 16.9291 9.7 16.865L9.60402 15.7771C9.5721 15.521 9.37991 15.3291 9.12411 15.3291H7.14017C6.88414 15.3291 6.69218 15.521 6.66026 15.7451L6.49977 16.8328C6.33972 16.8969 6.17968 16.9608 6.05178 17.0248L5.21984 16.3529C5.02787 16.1929 4.73993 16.225 4.57989 16.3848L3.17184 17.7929C3.01179 17.953 2.97987 18.2409 3.13992 18.4328L3.84392 19.2648C3.77986 19.4248 3.71601 19.5527 3.65195 19.7128L2.56401 19.8088C2.30798 19.8407 2.11602 20.0329 2.11602 20.2887V20.5128C1.79593 20.2887 1.60397 19.9688 1.57205 19.5849L1.57169 18.945Z" fill="url(#paint0_linear_4105_34187)"/>
<path d="M8.09866 10.7528C10.6265 10.7528 12.6745 8.70482 12.6745 6.17693V5.95282V5.88876C12.6426 5.53675 12.6105 5.21664 12.5145 4.86464L12.1625 2.94453C12.0346 2.17647 11.4585 1.53647 10.7225 1.28047L9.79466 0.992524C8.70672 0.640513 7.52254 0.640513 6.4346 0.992524L5.50672 1.28047C4.73866 1.50458 4.19466 2.14453 4.0346 2.94453L3.68259 4.99253C3.61853 5.24856 3.58661 5.50458 3.55469 5.76059V5.82465V5.9847V6.14474C3.55469 8.7048 5.57072 10.7528 8.09866 10.7528ZM4.96272 3.13682C5.02678 2.72075 5.34665 2.36876 5.76272 2.24082L6.6906 1.95287C7.5866 1.66492 8.57855 1.66492 9.47455 1.95287L10.4024 2.24082C10.8185 2.36872 11.1384 2.72072 11.2024 3.13682L11.6185 5.44082H4.5785L4.96272 3.13682ZM11.6827 6.40087C11.5548 8.38482 9.8586 9.92099 7.84277 9.79282C6.01866 9.69683 4.54677 8.22476 4.45083 6.40087H11.6827Z" fill="url(#paint1_linear_4105_34187)"/>
<path d="M8.09756 18.8496C6.72168 18.8496 5.60156 19.9697 5.60156 21.3456C5.60156 22.7215 6.72168 23.8416 8.09756 23.8416C9.47345 23.8416 10.5936 22.7215 10.5936 21.3456C10.5936 19.9697 9.47345 18.8496 8.09756 18.8496ZM8.09756 22.8496C7.26562 22.8496 6.56162 22.1775 6.56162 21.3137C6.56162 20.4817 7.23373 19.7777 8.09756 19.7777C8.9295 19.7777 9.6335 20.4498 9.6335 21.3137C9.6335 22.1775 8.9295 22.8816 8.09756 22.8496Z" fill="url(#paint2_linear_4105_34187)"/>
<defs>
<linearGradient id="paint0_linear_4105_34187" x1="12.1836" y1="11.457" x2="12.1071" y2="30.6564" gradientUnits="userSpaceOnUse">
<stop stop-color="#005CAA"/>
<stop offset="1" stop-color="#64B0F1"/>
</linearGradient>
<linearGradient id="paint1_linear_4105_34187" x1="10.6601" y1="0.728516" x2="10.6096" y2="12.9009" gradientUnits="userSpaceOnUse">
<stop stop-color="#005CAA"/>
<stop offset="1" stop-color="#64B0F1"/>
</linearGradient>
<linearGradient id="paint2_linear_4105_34187" x1="9.49088" y1="18.8496" x2="9.468" y2="24.9114" gradientUnits="userSpaceOnUse">
<stop stop-color="#005CAA"/>
<stop offset="1" stop-color="#64B0F1"/>
</linearGradient>
</defs>
</svg>