<svg width="38" height="38" viewBox="0 0 20 30" fill="none" xmlns="http://www.w3.org/2000/svg">
<path d="M14.6229 18.778H15.3011V28.1792C15.3011 28.8609 14.7466 29.4151 14.0651 29.4151H1.30626C0.624541 29.4151 0.0703125 28.8607 0.0703125 28.1792L0.0705357 1.85118C0.0705357 1.16946 0.624998 0.615234 1.30648 0.615234H14.0653C14.7471 0.615234 15.3013 1.1697 15.3013 1.85118V6.22683H14.6232L14.6229 1.85118C14.6229 1.54359 14.3727 1.29314 14.0649 1.29314L1.30662 1.29292C0.999032 1.29292 0.748587 1.54314 0.748587 1.85095V28.179C0.748587 28.4865 0.998809 28.737 1.30662 28.737H14.0655C14.3731 28.737 14.6235 28.4868 14.6235 28.179L14.6229 18.778ZM13.2461 23.7492H2.125V4.49781H13.2461V6.22752H13.9243V3.82015H1.44711V24.4276H13.9243V18.778H13.2461V23.7492ZM14.3332 9.20066H9.89591C8.86288 9.20066 8.02271 10.0411 8.02271 11.0739V15.4902H14.333C15.366 15.4902 16.2062 14.6497 16.2062 13.6169V11.0736C16.2062 10.0408 15.3658 9.20066 14.333 9.20066M14.333 8.52255C15.7419 8.52255 16.8843 9.66495 16.8843 11.0739V13.6172C16.8843 15.0261 15.7419 16.1685 14.333 16.1685H7.34443V11.0741C7.34443 9.66518 8.48683 8.52278 9.89574 8.52278H14.333V8.52255ZM5.81071 19.9905C5.54084 19.9905 5.32232 20.2091 5.32232 20.4789C5.32232 20.7488 5.54084 20.9673 5.81071 20.9673C6.08058 20.9673 6.29911 20.7488 6.29911 20.4789C6.29911 20.2091 6.08058 19.9905 5.81071 19.9905ZM7.68528 19.9905C7.41541 19.9905 7.19689 20.2091 7.19689 20.4789C7.19689 20.7488 7.41541 20.9673 7.68528 20.9673C7.95515 20.9673 8.17368 20.7488 8.17368 20.4789C8.17368 20.2091 7.95493 19.9905 7.68528 19.9905ZM9.55963 19.9905C9.28976 19.9905 9.07123 20.2091 9.07123 20.4789C9.07123 20.7488 9.28976 20.9673 9.55963 20.9673C9.82949 20.9673 10.048 20.7488 10.048 20.4789C10.048 20.2091 9.82949 19.9905 9.55963 19.9905ZM9.04132 26.5974C9.04132 25.8496 8.43304 25.2412 7.6851 25.2412C6.93732 25.2412 6.32887 25.8495 6.32887 26.5974C6.32887 27.3452 6.93715 27.9536 7.6851 27.9536C8.43287 27.9532 9.04132 27.3449 9.04132 26.5974ZM8.36344 26.5974C8.36344 26.9711 8.05942 27.2755 7.68532 27.2755C7.31166 27.2755 7.00721 26.9715 7.00721 26.5974C7.00721 26.2237 7.31123 25.9193 7.68532 25.9193C8.05921 25.9193 8.36344 26.2233 8.36344 26.5974ZM8.96858 2.56712C8.96858 2.37985 8.8168 2.22828 8.62974 2.22828H6.74111C6.55384 2.22828 6.40227 2.38006 6.40227 2.56712C6.40227 2.75439 6.55405 2.90596 6.74111 2.90596H8.62974C8.81702 2.90641 8.96858 2.75462 8.96858 2.56712ZM10.2342 11.1151C9.88418 11.1151 9.60024 11.3991 9.60024 11.7491C9.60024 12.0991 9.88417 12.383 10.2342 12.383C10.5842 12.383 10.8681 12.0991 10.8681 11.7491C10.8681 11.3988 10.5842 11.1151 10.2342 11.1151ZM13.9942 11.1151C13.6442 11.1151 13.3603 11.3991 13.3603 11.7491C13.3603 12.0991 13.6442 12.383 13.9942 12.383C14.3442 12.383 14.6282 12.0991 14.6282 11.7491C14.6282 11.3988 14.3442 11.1151 13.9942 11.1151ZM19.8982 12.0511V13.0594C19.8982 13.8386 19.2643 14.4725 18.4851 14.4725H18.2291C17.9257 16.2232 16.3974 17.5589 14.5619 17.5589H13.4476C13.4092 17.7388 13.2498 17.8738 13.0587 17.8738H11.6097C11.3898 17.8738 11.2119 17.6955 11.2119 17.4761V16.964C11.2119 16.7442 11.3902 16.5663 11.6097 16.5663H13.0585C13.2498 16.5663 13.4092 16.7013 13.4474 16.8812H14.5616C16.2407 16.8812 17.6065 15.5149 17.6065 13.8352V10.8546C17.6065 9.17493 16.2407 7.80865 14.5616 7.80865L9.68644 7.80842C8.00672 7.80842 6.64044 9.17471 6.64044 10.8544V14.4723H5.74358C4.96432 14.4723 4.33044 13.8383 4.33044 13.0591V12.0508C4.33044 11.2716 4.96438 10.6377 5.74358 10.6377H5.9688C6.08153 8.68477 7.70583 7.13054 9.68663 7.13054H14.5618C16.5419 7.13054 18.165 8.68477 18.2777 10.6377H18.485C19.2638 10.6379 19.8982 11.2719 19.8982 12.0511L19.8982 12.0511ZM5.96224 11.316H5.74327C5.33791 11.316 5.00824 11.6459 5.00824 12.0511V13.0594C5.00824 13.4647 5.33792 13.7944 5.74327 13.7944H5.96224V11.316ZM19.22 12.0511C19.22 11.6457 18.89 11.316 18.4849 11.316H18.2847V13.7948H18.4849C18.8903 13.7948 19.22 13.4649 19.22 13.0598V12.0511ZM12.256 13.777H11.9727C11.6899 13.777 11.4426 13.6265 11.3035 13.4022H10.5676C10.7461 14.0098 11.308 14.4551 11.9727 14.4551L12.256 14.4549C12.9207 14.4549 13.4825 14.0098 13.6611 13.4019H12.9252C12.7861 13.6265 12.5383 13.777 12.256 13.777Z" fill="#CC1212"/>
</svg>