<svg width="38" height="38" viewBox="0 0 32 30" fill="none" xmlns="http://www.w3.org/2000/svg">
<path d="M31.3167 25.7445L17.7658 1.62904C17.5462 1.18574 17.1687 0.840639 16.7075 0.661611C16.2463 0.482582 15.7348 0.482594 15.2736 0.661611C14.8124 0.840628 14.435 1.18572 14.2153 1.62904L0.664461 25.7445C0.264238 26.4684 0.218701 27.336 0.54125 28.0976C0.683884 28.4887 0.941695 28.8273 1.28056 29.0688C1.6194 29.3103 2.02365 29.4436 2.43971 29.4507H29.5426C29.9586 29.4436 30.3629 29.3103 30.7017 29.0688C31.0406 28.8273 31.2983 28.4887 31.441 28.0976C31.7633 27.3358 31.7176 26.4681 31.3171 25.7445H31.3167ZM29.8618 27.4286C29.8227 27.5208 29.7133 27.7358 29.5415 27.7358L2.4386 27.736C2.26673 27.736 2.15735 27.5211 2.11829 27.4289V27.4286C2.00043 27.1557 2.01472 26.8436 2.15691 26.5826L15.7089 2.46892C15.8366 2.24125 15.9522 2.24125 15.9902 2.24125C16.0283 2.24125 16.1437 2.24125 16.2714 2.4687L29.8234 26.5841C29.9656 26.8451 29.9799 27.1571 29.862 27.4301L29.8618 27.4286ZM17.2921 8.02635H14.6883C14.289 8.02546 13.9075 8.19198 13.6365 8.48528C13.3655 8.77858 13.2296 9.17214 13.2622 9.57008L14.1414 20.8815H14.1412C14.158 21.0965 14.2551 21.2974 14.4133 21.4438C14.5718 21.5904 14.7794 21.6717 14.9953 21.6717H16.9868H16.9866C17.2024 21.6717 17.41 21.5904 17.5685 21.4438C17.7268 21.2974 17.8239 21.0965 17.8406 20.8815L18.7199 9.57008H18.7197C18.7516 9.17231 18.6154 8.77945 18.3444 8.48637C18.0735 8.19351 17.6922 8.02744 17.2933 8.02833L17.2921 8.02635ZM16.1925 19.9578H15.7885L14.9934 9.74121H16.9876L16.1925 19.9578ZM15.9905 22.227C15.4439 22.227 14.9195 22.4442 14.5331 22.8308C14.1465 23.2171 13.9294 23.7415 13.9294 24.2881C13.9294 24.8348 14.1466 25.3591 14.5331 25.7455C14.9195 26.1321 15.4439 26.3493 15.9905 26.3493C16.5371 26.3493 17.0615 26.1321 17.4479 25.7455C17.8345 25.3591 18.0517 24.8348 18.0517 24.2881C18.051 23.7417 17.8336 23.2178 17.4472 22.8314C17.0608 22.4451 16.5369 22.2277 15.9905 22.227ZM15.9905 24.6361C15.8497 24.6361 15.7227 24.5515 15.6689 24.4216C15.6148 24.2915 15.6445 24.1417 15.7441 24.0422C15.8434 23.9426 15.9932 23.9127 16.1233 23.9667C16.2532 24.0205 16.3381 24.1473 16.3381 24.2881C16.3381 24.4801 16.1825 24.6357 15.9905 24.6361Z" fill="#CC1212"/>
</svg>