<svg width="38" height="38" viewBox="0 0 33 22" fill="none" xmlns="http://www.w3.org/2000/svg">
<path d="M31.4844 0.730469H2.48439C2.08663 0.730915 1.70536 0.889171 1.42411 1.1702C1.14308 1.45145 0.984821 1.83271 0.984375 2.23049V19.7305C0.984821 20.1283 1.14308 20.5095 1.42411 20.7908C1.70536 21.0718 2.08662 21.2301 2.48439 21.2305H31.4844C31.8822 21.2301 32.2634 21.0718 32.5447 20.7908C32.8257 20.5095 32.984 20.1283 32.9844 19.7305V2.23049C32.984 1.83272 32.8257 1.45146 32.5447 1.1702C32.2634 0.889171 31.8822 0.730914 31.4844 0.730469ZM31.9844 19.7305C31.9842 20.0066 31.7605 20.2302 31.4844 20.2305H2.48439C2.20828 20.2302 1.98461 20.0066 1.98439 19.7305V4.73047H31.9844V19.7305ZM31.9844 3.73047H1.98439V2.23047C1.98462 1.95435 2.20828 1.73069 2.48439 1.73047H31.4844C31.7605 1.73069 31.9842 1.95435 31.9844 2.23047V3.73047Z" fill="url(#paint0_linear_3941_23019)"/>
<path d="M3.98438 13.7305H8.98438C9.26049 13.7305 9.48438 13.5066 9.48438 13.2305C9.48438 12.9544 9.26049 12.7305 8.98438 12.7305H3.98438C3.70826 12.7305 3.48438 12.9544 3.48438 13.2305C3.48438 13.5066 3.70826 13.7305 3.98438 13.7305Z" fill="url(#paint1_linear_3941_23019)"/>
<path d="M10.4844 13.2305C10.4844 13.5066 10.7083 13.7305 10.9844 13.7305H15.9844C16.2605 13.7305 16.4844 13.5066 16.4844 13.2305C16.4844 12.9544 16.2605 12.7305 15.9844 12.7305H10.9844C10.7083 12.7305 10.4844 12.9544 10.4844 13.2305Z" fill="url(#paint2_linear_3941_23019)"/>
<path d="M3.98438 19.2305H8.98438C9.26049 19.2305 9.48438 19.0066 9.48438 18.7305C9.48438 18.4544 9.26049 18.2305 8.98438 18.2305H3.98438C3.70826 18.2305 3.48438 18.4544 3.48438 18.7305C3.48438 19.0066 3.70826 19.2305 3.98438 19.2305Z" fill="url(#paint3_linear_3941_23019)"/>
<path d="M15.9844 18.2305H10.9844C10.7083 18.2305 10.4844 18.4544 10.4844 18.7305C10.4844 19.0066 10.7083 19.2305 10.9844 19.2305H15.9844C16.2605 19.2305 16.4844 19.0066 16.4844 18.7305C16.4844 18.4544 16.2605 18.2305 15.9844 18.2305Z" fill="url(#paint4_linear_3941_23019)"/>
<path d="M17.9844 13.7305H22.9844C23.2605 13.7305 23.4844 13.5066 23.4844 13.2305C23.4844 12.9544 23.2605 12.7305 22.9844 12.7305H17.9844C17.7083 12.7305 17.4844 12.9544 17.4844 13.2305C17.4844 13.5066 17.7083 13.7305 17.9844 13.7305Z" fill="url(#paint5_linear_3941_23019)"/>
<path d="M24.9844 13.7305H29.9844C30.2605 13.7305 30.4844 13.5066 30.4844 13.2305C30.4844 12.9544 30.2605 12.7305 29.9844 12.7305H24.9844C24.7083 12.7305 24.4844 12.9544 24.4844 13.2305C24.4844 13.5066 24.7083 13.7305 24.9844 13.7305Z" fill="url(#paint6_linear_3941_23019)"/>
<path d="M6.23439 11.7305H9.23439C9.63216 11.7301 10.0134 11.5718 10.2947 11.2908C10.5757 11.0095 10.734 10.6283 10.7344 10.2305V7.23049C10.734 6.83272 10.5757 6.45146 10.2947 6.1702C10.0134 5.88917 9.63216 5.73091 9.23439 5.73047H6.23439C5.83663 5.73092 5.45536 5.88917 5.17411 6.1702C4.89308 6.45145 4.73482 6.83271 4.73438 7.23049V10.2305C4.73482 10.6283 4.89308 11.0095 5.17411 11.2908C5.45536 11.5718 5.83662 11.7301 6.23439 11.7305ZM5.73439 7.2305C5.73462 6.95439 5.95828 6.73073 6.23439 6.7305H9.23439C9.51051 6.73073 9.73417 6.95439 9.73439 7.2305V8.2305H5.73439V7.2305ZM5.73439 9.2305H9.73439V10.2305C9.73417 10.5066 9.51051 10.7303 9.23439 10.7305H6.23439C5.95828 10.7303 5.73462 10.5066 5.73439 10.2305V9.2305Z" fill="url(#paint7_linear_3941_23019)"/>
<path d="M25.7343 19.2305C26.2888 19.2303 26.8234 19.0243 27.2348 18.6524C27.668 19.0428 28.2359 19.2495 28.8187 19.2292C29.4015 19.2089 29.9538 18.9631 30.3589 18.5435C30.764 18.1241 30.9904 17.5638 30.9904 16.9805C30.9904 16.3973 30.764 15.837 30.3589 15.4176C29.9538 14.9979 29.4015 14.7521 28.8187 14.7318C28.2359 14.7115 27.668 14.9182 27.2348 15.3086C26.6837 14.814 25.9247 14.6225 25.2049 14.7964C24.4852 14.97 23.8973 15.487 23.6328 16.1785C23.3683 16.8701 23.4611 17.6475 23.881 18.2573C24.3009 18.8669 24.9939 19.231 25.7343 19.2305ZM27.8185 16.1363C28.0466 15.887 28.366 15.741 28.7038 15.731C29.0415 15.7212 29.369 15.8484 29.6111 16.0839C29.8535 16.3192 29.9904 16.6426 29.9904 16.9805C29.9904 17.3184 29.8535 17.6419 29.6111 17.8772C29.3689 18.1126 29.0415 18.2399 28.7038 18.2301C28.366 18.22 28.0466 18.0738 27.8185 17.8247C28.0397 17.2836 28.0397 16.6774 27.8185 16.1363V16.1363ZM25.7343 15.7305C26.0658 15.7305 26.3839 15.8622 26.6183 16.0966C26.8527 16.331 26.9843 16.6491 26.9843 16.9806C26.9843 17.312 26.8526 17.6301 26.6183 17.8645C26.3839 18.0989 26.0658 18.2306 25.7343 18.2306C25.4028 18.2306 25.0848 18.0989 24.8504 17.8645C24.616 17.6301 24.4843 17.312 24.4843 16.9806C24.4848 16.6491 24.6165 16.3315 24.8508 16.0971C25.0852 15.8627 25.4029 15.731 25.7343 15.7305Z" fill="url(#paint8_linear_3941_23019)"/>
<defs>
<linearGradient id="paint0_linear_3941_23019" x1="25.9159" y1="0.730469" x2="25.8557" y2="25.6238" gradientUnits="userSpaceOnUse">
<stop stop-color="#005CAA"/>
<stop offset="1" stop-color="#64B0F1"/>
</linearGradient>
<linearGradient id="paint1_linear_3941_23019" x1="8.15903" y1="12.7305" x2="8.15827" y2="13.9448" gradientUnits="userSpaceOnUse">
<stop stop-color="#005CAA"/>
<stop offset="1" stop-color="#64B0F1"/>
</linearGradient>
<linearGradient id="paint2_linear_3941_23019" x1="15.159" y1="12.7305" x2="15.1583" y2="13.9448" gradientUnits="userSpaceOnUse">
<stop stop-color="#005CAA"/>
<stop offset="1" stop-color="#64B0F1"/>
</linearGradient>
<linearGradient id="paint3_linear_3941_23019" x1="8.15903" y1="18.2305" x2="8.15827" y2="19.4448" gradientUnits="userSpaceOnUse">
<stop stop-color="#005CAA"/>
<stop offset="1" stop-color="#64B0F1"/>
</linearGradient>
<linearGradient id="paint4_linear_3941_23019" x1="15.159" y1="18.2305" x2="15.1583" y2="19.4448" gradientUnits="userSpaceOnUse">
<stop stop-color="#005CAA"/>
<stop offset="1" stop-color="#64B0F1"/>
</linearGradient>
<linearGradient id="paint5_linear_3941_23019" x1="22.159" y1="12.7305" x2="22.1583" y2="13.9448" gradientUnits="userSpaceOnUse">
<stop stop-color="#005CAA"/>
<stop offset="1" stop-color="#64B0F1"/>
</linearGradient>
<linearGradient id="paint6_linear_3941_23019" x1="29.159" y1="12.7305" x2="29.1583" y2="13.9448" gradientUnits="userSpaceOnUse">
<stop stop-color="#005CAA"/>
<stop offset="1" stop-color="#64B0F1"/>
</linearGradient>
<linearGradient id="paint7_linear_3941_23019" x1="9.40906" y1="5.73047" x2="9.38157" y2="13.0163" gradientUnits="userSpaceOnUse">
<stop stop-color="#005CAA"/>
<stop offset="1" stop-color="#64B0F1"/>
</linearGradient>
<linearGradient id="paint8_linear_3941_23019" x1="29.3324" y1="14.7305" x2="29.32" y2="20.195" gradientUnits="userSpaceOnUse">
<stop stop-color="#005CAA"/>
<stop offset="1" stop-color="#64B0F1"/>
</linearGradient>
</defs>
</svg>