<svg width="45" height="45" viewBox="0 0 38 39" fill="none" xmlns="http://www.w3.org/2000/svg">
<path d="M14.0138 30.4086C12.5851 30.4071 11.2153 29.8388 10.2051 28.8286C9.19482 27.8183 8.62657 26.4486 8.625 25.0199C8.625 24.8625 8.68753 24.7115 8.79883 24.6002C8.91012 24.4889 9.06108 24.4264 9.21848 24.4264C9.37588 24.4264 9.52683 24.4889 9.63813 24.6002C9.74943 24.7115 9.81196 24.8625 9.81196 25.0199C9.81196 25.8509 10.0584 26.6633 10.5201 27.3543C10.9818 28.0453 11.638 28.5838 12.4058 28.9018C13.1736 29.2199 14.0184 29.3031 14.8335 29.141C15.6486 28.9788 16.3973 28.5786 16.9849 27.991C17.5726 27.4034 17.9727 26.6547 18.1349 25.8396C18.297 25.0245 18.2138 24.1797 17.8958 23.4119C17.5777 22.6441 17.0392 21.9879 16.3482 21.5262C15.6572 21.0645 14.8448 20.818 14.0138 20.818C13.2778 20.8171 12.5549 21.0117 11.9188 21.3818L11.9722 21.4115C12.0404 21.4505 12.1003 21.5025 12.1484 21.5646C12.1964 21.6267 12.2318 21.6977 12.2525 21.7734C12.2732 21.8492 12.2787 21.9283 12.2688 22.0062C12.2589 22.0842 12.2337 22.1594 12.1948 22.2275C12.1558 22.2957 12.1038 22.3556 12.0417 22.4037C11.9796 22.4518 11.9086 22.4872 11.8328 22.5078C11.7571 22.5285 11.678 22.534 11.6001 22.5241C11.5221 22.5142 11.4469 22.4891 11.3787 22.4501L10.5301 21.9456C10.4484 21.8994 10.3789 21.8345 10.3272 21.7562C10.2755 21.6779 10.2431 21.5884 10.2327 21.4952C10.2223 21.4019 10.2341 21.3075 10.2672 21.2197C10.3004 21.132 10.3538 21.0533 10.4232 20.9901C11.074 20.4066 11.857 19.9901 12.7046 19.7765C13.5522 19.563 14.439 19.5589 15.2886 19.7645C16.1382 19.9701 16.925 20.3793 17.5811 20.9568C18.2373 21.5343 18.7431 22.2628 19.055 23.0793C19.3669 23.8959 19.4755 24.7761 19.3714 25.6439C19.2672 26.5118 18.9536 27.3413 18.4574 28.061C17.9612 28.7806 17.2974 29.3687 16.5233 29.7746C15.7491 30.1805 14.8879 30.392 14.0138 30.3908V30.4086Z" fill="url(#paint0_linear_3703_35694)"/>
<path d="M10.8151 22.0421C10.6675 22.0428 10.5248 21.9885 10.4151 21.8897C10.3054 21.791 10.2364 21.6548 10.2216 21.5079L10.1029 20.3863C10.0872 20.2289 10.1346 20.0716 10.2348 19.9492C10.335 19.8268 10.4797 19.7492 10.6371 19.7334C10.7945 19.7177 10.9517 19.7651 11.0741 19.8653C11.1965 19.9655 11.2741 20.1102 11.2899 20.2676L11.4086 21.3892C11.4235 21.5449 11.3764 21.7002 11.2775 21.8213C11.1786 21.9424 11.0359 22.0196 10.8804 22.0361L10.8151 22.0421ZM24.0615 37.2529H9.73497C8.94797 37.2529 8.1932 36.9403 7.63671 36.3838C7.08021 35.8273 6.76758 35.0725 6.76758 34.2855V32.6297C6.76758 32.4723 6.83011 32.3214 6.9414 32.2101C7.0527 32.0988 7.20366 32.0362 7.36106 32.0362H26.4354C26.5928 32.0362 26.7438 32.0988 26.8551 32.2101C26.9664 32.3214 27.0289 32.4723 27.0289 32.6297V34.2618C27.0321 34.6535 26.9576 35.0419 26.8099 35.4046C26.6622 35.7674 26.4441 36.0973 26.1682 36.3754C25.8924 36.6535 25.5642 36.8742 25.2026 37.0248C24.841 37.1754 24.4532 37.2529 24.0615 37.2529ZM7.95453 33.2232V34.2618C7.95453 34.734 8.14212 35.1868 8.47601 35.5207C8.80991 35.8546 9.26277 36.0422 9.73497 36.0422H24.0615C24.5337 36.0422 24.9866 35.8546 25.3205 35.5207C25.6544 35.1868 25.842 34.734 25.842 34.2618V33.2232H7.95453Z" fill="url(#paint1_linear_3703_35694)"/>
<path d="M26.4354 33.2246H7.36106C7.20366 33.2246 7.0527 33.162 6.9414 33.0507C6.83011 32.9394 6.76758 32.7885 6.76758 32.6311V6.2213C6.76758 5.4343 7.08021 4.67953 7.63671 4.12303C8.1932 3.56654 8.94797 3.25391 9.73497 3.25391H24.0615C24.8485 3.25391 25.6033 3.56654 26.1598 4.12303C26.7163 4.67953 27.0289 5.4343 27.0289 6.2213V11.0641C27.0289 11.2215 26.9664 11.3724 26.8551 11.4837C26.7438 11.595 26.5928 11.6576 26.4354 11.6576H21.7292V27.088H26.4354C26.5928 27.088 26.7438 27.1505 26.8551 27.2618C26.9664 27.3731 27.0289 27.5241 27.0289 27.6815V32.6311C27.0289 32.7885 26.9664 32.9394 26.8551 33.0507C26.7438 33.162 26.5928 33.2246 26.4354 33.2246ZM7.95453 32.0376H25.842V28.2512H21.1357C20.9783 28.2512 20.8273 28.1887 20.716 28.0774C20.6047 27.9661 20.5422 27.8151 20.5422 27.6577V11.0403C20.5422 10.8829 20.6047 10.732 20.716 10.6207C20.8273 10.5094 20.9783 10.4469 21.1357 10.4469H25.842V6.2213C25.842 5.7491 25.6544 5.29624 25.3205 4.96234C24.9866 4.62844 24.5337 4.44086 24.0615 4.44086H9.73497C9.26277 4.44086 8.80991 4.62844 8.47601 4.96234C8.14212 5.29624 7.95453 5.7491 7.95453 6.2213V32.0376Z" fill="url(#paint2_linear_3703_35694)"/>
<path d="M21.0527 7.40825H12.744C12.6252 7.40837 12.509 7.37279 12.4106 7.30613C12.3122 7.23946 12.2361 7.14479 12.1921 7.03436L11.0051 4.06697C10.9693 3.9771 10.9559 3.87984 10.9663 3.78364C10.9766 3.68744 11.0103 3.59523 11.0645 3.51504C11.1189 3.4345 11.1923 3.36856 11.2782 3.32303C11.3641 3.2775 11.4598 3.25376 11.5571 3.25391H22.2397C22.3369 3.25376 22.4326 3.2775 22.5185 3.32303C22.6044 3.36856 22.6778 3.4345 22.7323 3.51504C22.7864 3.59523 22.8201 3.68744 22.8304 3.78364C22.8408 3.87984 22.8274 3.9771 22.7916 4.06697L21.6046 7.03436C21.5607 7.14479 21.4845 7.23946 21.3861 7.30613C21.2877 7.37279 21.1716 7.40837 21.0527 7.40825ZM13.1476 6.2213H20.6491L21.3613 4.44086H12.4591L13.1476 6.2213ZM32.2042 28.2512H21.1358C20.9784 28.2512 20.8274 28.1887 20.7161 28.0774C20.6048 27.9661 20.5423 27.8151 20.5423 27.6577V11.0403C20.5423 10.8829 20.6048 10.732 20.7161 10.6207C20.8274 10.5094 20.9784 10.4469 21.1358 10.4469H27.6047C27.7621 10.4469 27.9131 10.5094 28.0244 10.6207C28.1357 10.732 28.1982 10.8829 28.1982 11.0403V14.6724L32.1982 14.6309C32.2763 14.6304 32.3538 14.6454 32.4261 14.6749C32.4984 14.7045 32.5641 14.748 32.6196 14.803C32.6757 14.858 32.7203 14.9235 32.7509 14.9958C32.7814 15.0682 32.7973 15.1458 32.7976 15.2244V27.6577C32.7976 27.8151 32.7351 27.9661 32.6238 28.0774C32.5125 28.1887 32.3616 28.2512 32.2042 28.2512ZM21.7293 27.0643H31.6107V15.8475L27.6106 15.8891C27.5322 15.8924 27.4539 15.8787 27.3812 15.849C27.3085 15.8193 27.243 15.7743 27.1893 15.7169C27.1332 15.662 27.0886 15.5964 27.058 15.5241C27.0275 15.4518 27.0116 15.3741 27.0112 15.2956V11.6576H21.7293V27.0643Z" fill="url(#paint3_linear_3703_35694)"/>
<path d="M27.6039 15.8881C27.4482 15.8874 27.299 15.8256 27.1884 15.7159C27.1324 15.661 27.0878 15.5954 27.0572 15.5231C27.0266 15.4508 27.0107 15.3731 27.0104 15.2946V11.0631C27.0112 10.9483 27.0452 10.8361 27.1084 10.7403C27.1716 10.6444 27.2613 10.5689 27.3665 10.523C27.4708 10.477 27.5862 10.4621 27.6988 10.48C27.8115 10.4979 27.9165 10.5479 28.0015 10.6239L32.601 14.7783C32.6892 14.8584 32.7512 14.9632 32.779 15.0791C32.8067 15.195 32.799 15.3165 32.7567 15.4279C32.7145 15.5394 32.6397 15.6355 32.542 15.7038C32.4444 15.7721 32.3284 15.8094 32.2093 15.8109L27.6098 15.8584L27.6039 15.8881ZM28.1974 12.4043V14.6952H30.684L28.1974 12.4043ZM11.4375 13.5676H9.72238C9.56498 13.5676 9.41403 13.505 9.30273 13.3937C9.19143 13.2824 9.12891 13.1315 9.12891 12.9741C9.12891 12.8167 9.19143 12.6657 9.30273 12.5544C9.41403 12.4431 9.56498 12.3806 9.72238 12.3806H11.4375C11.5949 12.3806 11.7459 12.4431 11.8572 12.5544C11.9685 12.6657 12.031 12.8167 12.031 12.9741C12.031 13.1315 11.9685 13.2824 11.8572 13.3937C11.7459 13.505 11.5949 13.5676 11.4375 13.5676ZM17.3723 13.5676H13.8767C13.7193 13.5676 13.5684 13.505 13.4571 13.3937C13.3458 13.2824 13.2833 13.1315 13.2833 12.9741C13.2833 12.8167 13.3458 12.6657 13.4571 12.5544C13.5684 12.4431 13.7193 12.3806 13.8767 12.3806H17.3723C17.5297 12.3806 17.6807 12.4431 17.792 12.5544C17.9033 12.6657 17.9658 12.8167 17.9658 12.9741C17.9658 13.1315 17.9033 13.2824 17.792 13.3937C17.6807 13.505 17.5297 13.5676 17.3723 13.5676ZM12.6957 26.8971C12.54 26.8964 12.3908 26.8346 12.2803 26.725C12.1697 26.6138 12.1077 26.4634 12.1077 26.3066C12.1077 26.1498 12.1697 25.9994 12.2803 25.8882L13.4198 24.7427V22.6418C13.4198 22.4844 13.4823 22.3335 13.5936 22.2222C13.7049 22.1109 13.8558 22.0484 14.0132 22.0484C14.1706 22.0484 14.3216 22.1109 14.4329 22.2222C14.5442 22.3335 14.6067 22.4844 14.6067 22.6418V25.0157C14.6061 25.1714 14.5442 25.3206 14.4346 25.4312L13.1171 26.7487C13.0013 26.8512 12.8501 26.9044 12.6957 26.8971Z" fill="url(#paint4_linear_3703_35694)"/>
<defs>
<linearGradient id="paint0_linear_3703_35694" x1="17.0275" y1="19.6133" x2="16.978" y2="32.722" gradientUnits="userSpaceOnUse">
<stop stop-color="#005CAA"/>
<stop offset="1" stop-color="#64B0F1"/>
</linearGradient>
<linearGradient id="paint1_linear_3703_35694" x1="22.5535" y1="19.7305" x2="22.484" y2="41.0079" gradientUnits="userSpaceOnUse">
<stop stop-color="#005CAA"/>
<stop offset="1" stop-color="#64B0F1"/>
</linearGradient>
<linearGradient id="paint2_linear_3703_35694" x1="22.5534" y1="3.25391" x2="22.3502" y2="39.6465" gradientUnits="userSpaceOnUse">
<stop stop-color="#005CAA"/>
<stop offset="1" stop-color="#64B0F1"/>
</linearGradient>
<linearGradient id="paint3_linear_3703_35694" x1="27.9746" y1="3.25391" x2="27.8434" y2="33.6079" gradientUnits="userSpaceOnUse">
<stop stop-color="#005CAA"/>
<stop offset="1" stop-color="#64B0F1"/>
</linearGradient>
<linearGradient id="paint4_linear_3703_35694" x1="27.5676" y1="10.4727" x2="27.5154" y2="30.4177" gradientUnits="userSpaceOnUse">
<stop stop-color="#005CAA"/>
<stop offset="1" stop-color="#64B0F1"/>
</linearGradient>
</defs>
</svg>