<svg width="38" height="38" viewBox="0 0 30 30" fill="none" xmlns="http://www.w3.org/2000/svg">
<path d="M29.6807 8.35155C29.6798 8.10534 29.6111 7.86427 29.4816 7.65469C29.3522 7.44531 29.1671 7.27567 28.9472 7.16496L15.6141 0.498102C15.2366 0.307924 14.7915 0.307924 14.4141 0.498102L1.08095 7.16496C0.788317 7.31496 0.561306 7.56764 0.443694 7.87479C0.32606 8.18171 0.32606 8.52142 0.443694 8.82856C0.561329 9.1357 0.788335 9.38838 1.08095 9.53839L5.36084 11.685L1.08095 13.8316C0.788317 13.9814 0.561306 14.2343 0.443694 14.5412C0.32606 14.8484 0.32606 15.1881 0.443694 15.4952C0.561329 15.8022 0.788335 16.0551 1.08095 16.2048L5.36084 18.3515L1.08095 20.4981C0.788317 20.6481 0.561306 20.9008 0.443694 21.2079C0.326083 21.5151 0.32606 21.8548 0.443694 22.1617C0.561329 22.4688 0.788335 22.7215 1.08095 22.8715L14.4141 29.5384C14.7916 29.7286 15.2367 29.7286 15.6141 29.5384L28.9472 22.8715C29.2399 22.7215 29.4669 22.4688 29.5845 22.1617C29.7021 21.8548 29.7021 21.5151 29.5845 21.2079C29.4669 20.9008 29.2399 20.6481 28.9472 20.4981L24.6674 18.3515L28.9472 16.2048C29.2399 16.0551 29.4669 15.8022 29.5845 15.4952C29.7021 15.1881 29.7021 14.8484 29.5845 14.5412C29.4669 14.2343 29.2399 13.9814 28.9472 13.8316L24.6674 11.685L28.9472 9.53839C29.1671 9.42745 29.3521 9.25803 29.4816 9.04843C29.6111 8.83906 29.6798 8.59774 29.6807 8.35155ZM25.3606 21.6853L15.0138 26.8585L4.66689 21.6853L8.34678 19.8451L14.4136 22.8717V22.8719C14.7911 23.0621 15.2362 23.0621 15.6136 22.8719L21.6805 19.8451L25.3606 21.6853ZM25.3606 15.0184L15.0138 20.1918L4.66689 15.0184L8.34678 13.1785L14.4136 16.205C14.7911 16.3952 15.2362 16.3952 15.6136 16.205L21.6805 13.1785L25.3606 15.0184ZM15.0138 13.5251L4.66689 8.35166L15.0138 3.17846L25.3606 8.35166L15.0138 13.5251Z" fill="#CC1212"/>
</svg>