<svg width="38" height="38" viewBox="0 0 32 32" fill="none" xmlns="http://www.w3.org/2000/svg">
<path d="M1.46545 22.8803H14.8712V24.5876L8.85802 30.8659C8.79173 30.9349 8.7732 31.0369 8.8107 31.1248C8.8482 31.2128 8.93481 31.2699 9.03035 31.2699H11.189C11.2558 31.2699 11.3194 31.242 11.3647 31.1929L14.8714 27.3914V31.0311C14.8714 31.163 14.9783 31.2699 15.1102 31.2699H16.9205C17.0524 31.2699 17.1594 31.163 17.1594 31.0311V27.3929L20.7301 31.1945C20.7752 31.2425 20.8381 31.2697 20.904 31.2697H23.0053C23.0086 31.2695 23.0118 31.2695 23.0149 31.2697C23.1466 31.2697 23.2537 31.1628 23.2537 31.0309C23.2537 30.9463 23.2098 30.8717 23.1432 30.8293L17.1592 24.5642V22.8804H30.5672C30.9579 22.8804 31.2755 22.5628 31.2755 22.1722V20.8494C31.2755 20.4588 30.9579 20.1411 30.5672 20.1411H30.1076L30.1074 3.49713H30.567C30.9576 3.49713 31.2753 3.17949 31.2753 2.78884L31.2755 1.4661C31.2755 1.07548 30.9579 0.757812 30.5672 0.757812H1.4661C1.07548 0.757812 0.757812 1.07545 0.757812 1.4661V2.78884C0.757812 3.17946 1.07545 3.49713 1.4661 3.49713H1.9257V20.1411H1.4661C1.07548 20.1411 0.757812 20.4588 0.757812 20.8494V22.1722C0.757812 22.5628 1.07545 22.8804 1.4661 22.8804L1.46545 22.8803ZM22.4466 30.7923H21.0069L17.0941 26.6264C17.0274 26.555 16.9229 26.5318 16.8323 26.568C16.741 26.6041 16.6814 26.6921 16.6814 26.7901V30.7923H15.3488V26.7805C15.3488 26.682 15.2884 26.5939 15.1971 26.5579C15.1058 26.5222 15.0013 26.5461 14.9346 26.6186L11.0843 30.7923H9.5897L15.2826 24.8489C15.3252 24.8044 15.3491 24.7453 15.3491 24.6837L15.3486 22.8805H16.6812V24.66C16.6812 24.7214 16.7051 24.7806 16.7473 24.825L22.4466 30.7923ZM1.46545 3.0197C1.33844 3.0197 1.23487 2.91613 1.23487 2.78912V1.46614C1.23487 1.33913 1.33844 1.23556 1.46545 1.23556H30.5666C30.6936 1.23556 30.7972 1.33913 30.7972 1.46614V2.78889C30.7972 2.9159 30.6936 3.01947 30.5666 3.01947C21.2775 3.01969 10.778 3.0197 1.46545 3.0197ZM29.6294 3.49716V20.1412H2.40259V3.49716H29.6294ZM1.23459 20.8492C1.23459 20.7221 1.33816 20.6186 1.46518 20.6186H30.5663C30.6933 20.6186 30.7969 20.7221 30.7969 20.8492V22.1719C30.7969 22.2989 30.6933 22.4025 30.5663 22.4025H1.46518C1.33816 22.4025 1.23459 22.2989 1.23459 22.1719V20.8492Z" fill="url(#paint0_linear_4497_31751)"/>
<path d="M13.8951 5.37612H27.9882C28.1202 5.37612 28.2271 5.2692 28.2271 5.13728C28.2271 5.00536 28.1202 4.89844 27.9882 4.89844H13.8951C13.7632 4.89844 13.6562 5.00536 13.6562 5.13728C13.6562 5.2692 13.7632 5.37612 13.8951 5.37612Z" fill="url(#paint1_linear_4497_31751)"/>
<path d="M27.9906 6.16797H17.1763C17.0444 6.16797 16.9375 6.27489 16.9375 6.40681C16.9375 6.53873 17.0444 6.64565 17.1763 6.64565H27.9906C28.1225 6.64565 28.2295 6.53873 28.2295 6.40681C28.2295 6.27489 28.1228 6.16797 27.9906 6.16797Z" fill="url(#paint2_linear_4497_31751)"/>
<path d="M27.9881 7.4375H19.9967C19.8647 7.4375 19.7578 7.54442 19.7578 7.67634C19.7578 7.80826 19.8647 7.91518 19.9967 7.91518H27.9881C28.12 7.91518 28.2269 7.80826 28.2269 7.67634C28.2269 7.54442 28.1202 7.4375 27.9881 7.4375Z" fill="url(#paint3_linear_4497_31751)"/>
<path d="M13.0475 16.7525L20.5687 11.473L23.5691 13.846C23.6662 13.923 23.8071 13.9127 23.8921 13.8212L27.7272 9.69555L27.7508 10.6098C27.7544 10.7397 27.8604 10.8426 27.9894 10.8426H27.9957C28.1276 10.8391 28.2316 10.7295 28.2285 10.5978L28.1899 9.09847C28.1899 9.0978 28.1894 9.09735 28.1894 9.0969C28.1852 8.96186 28.0682 8.85784 27.9336 8.86789C27.9312 8.86811 27.9287 8.86699 27.9263 8.86722L26.4057 9.02592C26.2745 9.03954 26.1794 9.15695 26.193 9.28797C26.2066 9.419 26.3232 9.51677 26.4551 9.5007L27.3423 9.40829L23.6926 13.3344L20.7251 10.9878C20.6423 10.9219 20.526 10.919 20.4399 10.9795L12.7736 16.3617C12.6655 16.4376 12.6394 16.5862 12.7153 16.6943C12.7905 16.8019 12.9397 16.8287 13.0477 16.7525L13.0475 16.7525Z" fill="url(#paint4_linear_4497_31751)"/>
<path d="M6.85537 10.9928C8.48417 10.9928 9.89892 9.6801 9.89892 7.94575C9.89892 6.26541 8.53349 4.89844 6.85537 4.89844C5.1732 4.89844 3.80469 6.26541 3.80469 7.94575C3.80469 9.66564 5.21583 10.9928 6.85537 10.9928ZM7.84332 10.3064L7.18326 8.25889H9.39286C9.2846 9.15535 8.7328 9.93409 7.84332 10.3064ZM6.85537 5.37609C8.21406 5.37609 9.31834 6.44215 9.40469 7.78147H6.85537C6.77904 7.78147 6.70738 7.81807 6.66229 7.87968C6.6172 7.94151 6.6047 8.02098 6.62792 8.09352L7.3882 10.4511C7.21276 10.4893 7.0353 10.5154 6.85539 10.5154C5.47282 10.5154 4.28242 9.39644 4.28242 7.94598C4.28242 6.52878 5.43663 5.37609 6.85537 5.37609Z" fill="url(#paint5_linear_4497_31751)"/>
<path d="M6.84578 18.7428C7.96384 18.7428 9.06099 18.1254 9.59624 17.0152C9.95897 16.263 9.99736 15.39 9.70137 14.6203C9.65383 14.4978 9.51677 14.4366 9.39445 14.4826L7.21542 15.2998L7.87703 13.0703C7.91408 12.9453 7.84421 12.8138 7.71966 12.7746C7.43752 12.6857 7.14446 12.6406 6.84869 12.6406C5.17034 12.6406 3.80469 14.0094 3.80469 15.6918C3.80446 17.3741 5.16874 18.7429 6.84577 18.7429L6.84578 18.7428ZM6.84869 13.1183C7.01721 13.1183 7.18485 13.1357 7.34913 13.1705L6.62102 15.6239C6.59535 15.7107 6.62102 15.8047 6.68732 15.8665C6.75361 15.9286 6.84937 15.9475 6.93374 15.9154L9.32997 15.0169C9.49337 15.6056 9.43689 16.246 9.16613 16.8076C8.71591 17.7417 7.79156 18.2652 6.84602 18.2652C5.43265 18.2652 4.28242 17.1107 4.28242 15.6917C4.28219 14.2725 5.43354 13.1183 6.84869 13.1183Z" fill="url(#paint6_linear_4497_31751)"/>
<path d="M8.58882 11.62L7.79105 14.3093C7.76538 14.3961 7.79105 14.4901 7.85735 14.5519C7.90244 14.5939 7.9607 14.616 8.02007 14.616C8.0482 14.616 8.07677 14.6111 8.104 14.6008L10.7323 13.6153C10.8556 13.5691 10.9181 13.4318 10.8723 13.3084C10.5399 12.4138 9.79664 11.722 8.88413 11.4584C8.75779 11.4227 8.6261 11.4941 8.58882 11.62ZM10.3312 13.2555L8.38545 13.9852L8.97608 11.9942C9.56694 12.2279 10.0533 12.6808 10.3312 13.2555Z" fill="url(#paint7_linear_4497_31751)"/>
<path d="M14.0123 6.16797C13.8804 6.16797 13.7734 6.27489 13.7734 6.40681C13.7734 6.53873 13.8804 6.64565 14.0123 6.64565H16.3848C16.5168 6.64565 16.6237 6.53873 16.6237 6.40681C16.6237 6.27489 16.5168 6.16797 16.3848 6.16797H14.0123Z" fill="url(#paint8_linear_4497_31751)"/>
<path d="M27.9491 10.9922H27.3576C27.2911 10.9922 27.2279 11.0196 27.1826 11.0685L25.5873 12.7844C25.5462 12.8283 25.5234 12.8866 25.5234 12.9469V18.5011C25.5234 18.633 25.6304 18.7399 25.7623 18.7399H27.9491C28.0811 18.7399 28.188 18.633 28.188 18.5011V11.2308C28.188 11.0989 28.0811 10.9922 27.9491 10.9922ZM27.7103 18.2625H26.0012V13.0408L27.4617 11.4699H27.7103L27.7103 18.2625Z" fill="url(#paint9_linear_4497_31751)"/>
<path d="M24.9031 13.7511C24.8114 13.7149 24.7076 13.7388 24.6408 13.8104L23.7482 14.7698L22.7772 14.0038C22.7056 13.9473 22.6078 13.9368 22.5252 13.9765C22.4429 14.0165 22.3906 14.1 22.3906 14.1913V18.5004C22.3906 18.6323 22.4975 18.7392 22.6295 18.7392H24.8161C24.948 18.7392 25.0549 18.6323 25.0549 18.5004V13.9731C25.0545 13.8751 24.9942 13.787 24.9031 13.7511ZM24.5768 18.2618H22.8679V14.6839L23.625 15.2815C23.7228 15.3585 23.8632 15.3478 23.9478 15.2567L24.5768 14.5806L24.5768 18.2618Z" fill="url(#paint10_linear_4497_31751)"/>
<path d="M20.7107 12.3719C20.6275 12.3061 20.5112 12.3032 20.4252 12.3637L19.3513 13.1186C19.2877 13.1634 19.25 13.2364 19.25 13.3141V18.5027C19.25 18.6347 19.3569 18.7416 19.4888 18.7416H21.6757C21.8076 18.7416 21.9145 18.6347 21.9145 18.5027L21.9143 13.4387C21.9143 13.3657 21.8811 13.2967 21.8237 13.2514L20.7107 12.3719ZM21.4366 18.2639H19.7275V13.4383L20.5543 12.857L21.4366 13.5543V18.2639Z" fill="url(#paint11_linear_4497_31751)"/>
<path d="M18.6456 13.7733C18.5665 13.7318 18.4712 13.7383 18.398 13.7894L16.2112 15.3222C16.1475 15.367 16.1094 15.44 16.1094 15.5179V18.5043C16.1094 18.6363 16.2163 18.7432 16.3482 18.7432H18.5351C18.667 18.7432 18.7739 18.6363 18.7739 18.5043L18.7741 13.9851C18.7741 13.8961 18.7244 13.8144 18.6456 13.7733ZM18.2964 18.2655H16.5873V15.6421L18.2964 14.4438V18.2655Z" fill="url(#paint12_linear_4497_31751)"/>
<path d="M15.5049 15.9725C15.4257 15.9312 15.3306 15.9372 15.2574 15.9888L13.0705 17.5218C13.0069 17.5665 12.9688 17.6394 12.9688 17.7173V18.5015C12.9688 18.6334 13.0757 18.7404 13.2076 18.7404H15.3944C15.5264 18.7404 15.6333 18.6334 15.6333 18.5015V16.1843C15.6335 16.095 15.5837 16.0136 15.5049 15.9725ZM15.1558 18.2624H13.4467V17.8414L15.1558 16.643V18.2624Z" fill="url(#paint13_linear_4497_31751)"/>
<defs>
<linearGradient id="paint0_linear_4497_31751" x1="24.5345" y1="0.757812" x2="24.3947" y2="37.8085" gradientUnits="userSpaceOnUse">
<stop stop-color="#005CAA"/>
<stop offset="1" stop-color="#64B0F1"/>
</linearGradient>
<linearGradient id="paint1_linear_4497_31751" x1="25.0085" y1="4.89844" x2="25.0084" y2="5.47849" gradientUnits="userSpaceOnUse">
<stop stop-color="#005CAA"/>
<stop offset="1" stop-color="#64B0F1"/>
</linearGradient>
<linearGradient id="paint2_linear_4497_31751" x1="25.7352" y1="6.16797" x2="25.7351" y2="6.74802" gradientUnits="userSpaceOnUse">
<stop stop-color="#005CAA"/>
<stop offset="1" stop-color="#64B0F1"/>
</linearGradient>
<linearGradient id="paint3_linear_4497_31751" x1="26.3562" y1="7.4375" x2="26.3561" y2="8.01755" gradientUnits="userSpaceOnUse">
<stop stop-color="#005CAA"/>
<stop offset="1" stop-color="#64B0F1"/>
</linearGradient>
<linearGradient id="paint4_linear_4497_31751" x1="24.7922" y1="8.86719" x2="24.7737" y2="18.4951" gradientUnits="userSpaceOnUse">
<stop stop-color="#005CAA"/>
<stop offset="1" stop-color="#64B0F1"/>
</linearGradient>
<linearGradient id="paint5_linear_4497_31751" x1="8.55276" y1="4.89844" x2="8.52483" y2="12.2988" gradientUnits="userSpaceOnUse">
<stop stop-color="#005CAA"/>
<stop offset="1" stop-color="#64B0F1"/>
</linearGradient>
<linearGradient id="paint6_linear_4497_31751" x1="8.55263" y1="12.6406" x2="8.52463" y2="20.0506" gradientUnits="userSpaceOnUse">
<stop stop-color="#005CAA"/>
<stop offset="1" stop-color="#64B0F1"/>
</linearGradient>
<linearGradient id="paint7_linear_4497_31751" x1="10.2012" y1="11.4492" x2="10.1864" y2="15.2946" gradientUnits="userSpaceOnUse">
<stop stop-color="#005CAA"/>
<stop offset="1" stop-color="#64B0F1"/>
</linearGradient>
<linearGradient id="paint8_linear_4497_31751" x1="15.9941" y1="6.16797" x2="15.9937" y2="6.74802" gradientUnits="userSpaceOnUse">
<stop stop-color="#005CAA"/>
<stop offset="1" stop-color="#64B0F1"/>
</linearGradient>
<linearGradient id="paint9_linear_4497_31751" x1="27.5994" y1="10.9922" x2="27.4962" y2="20.3992" gradientUnits="userSpaceOnUse">
<stop stop-color="#005CAA"/>
<stop offset="1" stop-color="#64B0F1"/>
</linearGradient>
<linearGradient id="paint10_linear_4497_31751" x1="24.4664" y1="13.7344" x2="24.4233" y2="19.8115" gradientUnits="userSpaceOnUse">
<stop stop-color="#005CAA"/>
<stop offset="1" stop-color="#64B0F1"/>
</linearGradient>
<linearGradient id="paint11_linear_4497_31751" x1="21.326" y1="12.3203" x2="21.2551" y2="20.1171" gradientUnits="userSpaceOnUse">
<stop stop-color="#005CAA"/>
<stop offset="1" stop-color="#64B0F1"/>
</linearGradient>
<linearGradient id="paint12_linear_4497_31751" x1="18.1855" y1="13.7461" x2="18.1426" y2="19.8138" gradientUnits="userSpaceOnUse">
<stop stop-color="#005CAA"/>
<stop offset="1" stop-color="#64B0F1"/>
</linearGradient>
<linearGradient id="paint13_linear_4497_31751" x1="15.0447" y1="15.9453" x2="15.0313" y2="19.3393" gradientUnits="userSpaceOnUse">
<stop stop-color="#005CAA"/>
<stop offset="1" stop-color="#64B0F1"/>
</linearGradient>
</defs>
</svg>