<svg width="38" height="38" viewBox="0 0 41 42" fill="none" xmlns="http://www.w3.org/2000/svg">
<g clip-path="url(#clip0_3820_20485)">
<path d="M11.9453 22.2187H10.4609V20.1406C10.4609 20.0619 10.4297 19.9864 10.374 19.9307C10.3183 19.875 10.2428 19.8438 10.1641 19.8438C10.0853 19.8438 10.0098 19.875 9.95414 19.9307C9.89847 19.9864 9.86719 20.0619 9.86719 20.1406V22.2187H8.38281C8.22534 22.2187 8.07432 22.2813 7.96297 22.3927C7.85162 22.504 7.78906 22.655 7.78906 22.8125V27.5625C7.78906 27.72 7.85162 27.871 7.96297 27.9823C8.07432 28.0937 8.22534 28.1562 8.38281 28.1562H9.86719V30.2344C9.86719 30.3131 9.89847 30.3886 9.95414 30.4443C10.0098 30.5 10.0853 30.5312 10.1641 30.5312C10.2428 30.5312 10.3183 30.5 10.374 30.4443C10.4297 30.3886 10.4609 30.3131 10.4609 30.2344V28.1562H11.9453C12.1028 28.1562 12.2538 28.0937 12.3652 27.9823C12.4765 27.871 12.5391 27.72 12.5391 27.5625V22.8125C12.5391 22.655 12.4765 22.504 12.3652 22.3927C12.2538 22.2813 12.1028 22.2187 11.9453 22.2187ZM11.3516 26.9688H8.97656V23.4062H11.3516V26.9688ZM17.8828 13.3125H16.3984V11.2344C16.3984 11.1556 16.3672 11.0801 16.3115 11.0245C16.2558 10.9688 16.1803 10.9375 16.1016 10.9375C16.0228 10.9375 15.9473 10.9688 15.8916 11.0245C15.836 11.0801 15.8047 11.1556 15.8047 11.2344V13.3125H14.3203C14.1628 13.3125 14.0118 13.3751 13.9005 13.4864C13.7891 13.5978 13.7266 13.7488 13.7266 13.9062V24C13.7266 24.1575 13.7891 24.3085 13.9005 24.4198C14.0118 24.5312 14.1628 24.5938 14.3203 24.5938H15.8047V26.6719C15.8047 26.7506 15.836 26.8261 15.8916 26.8818C15.9473 26.9375 16.0228 26.9688 16.1016 26.9688C16.1803 26.9688 16.2558 26.9375 16.3115 26.8818C16.3672 26.8261 16.3984 26.7506 16.3984 26.6719V24.5938H17.8828C18.0403 24.5938 18.1913 24.5312 18.3027 24.4198C18.414 24.3085 18.4766 24.1575 18.4766 24V13.9062C18.4766 13.7488 18.414 13.5978 18.3027 13.4864C18.1913 13.3751 18.0403 13.3125 17.8828 13.3125ZM17.2891 23.4062H14.9141V14.5H17.2891V23.4062ZM23.8203 6.78125H22.3359V4.70312C22.3359 4.62439 22.3047 4.54888 22.249 4.4932C22.1933 4.43753 22.1178 4.40625 22.0391 4.40625C21.9603 4.40625 21.8848 4.43753 21.8291 4.4932C21.7735 4.54888 21.7422 4.62439 21.7422 4.70312V6.78125H20.2578C20.1003 6.78125 19.9493 6.84381 19.838 6.95516C19.7266 7.0665 19.6641 7.21753 19.6641 7.375V13.9062C19.6641 14.0637 19.7266 14.2147 19.838 14.3261C19.9493 14.4374 20.1003 14.5 20.2578 14.5H21.7422V16.5781C21.7422 16.6569 21.7735 16.7324 21.8291 16.788C21.8848 16.8437 21.9603 16.875 22.0391 16.875C22.1178 16.875 22.1933 16.8437 22.249 16.788C22.3047 16.7324 22.3359 16.6569 22.3359 16.5781V14.5H23.8203C23.9778 14.5 24.1288 14.4374 24.2402 14.3261C24.3515 14.2147 24.4141 14.0637 24.4141 13.9062V7.375C24.4141 7.21753 24.3515 7.0665 24.2402 6.95516C24.1288 6.84381 23.9778 6.78125 23.8203 6.78125ZM23.2266 13.3125H20.8516V7.96875H23.2266V13.3125ZM29.7578 10.9375H28.2734V8.85937C28.2734 8.78064 28.2422 8.70513 28.1865 8.64945C28.1308 8.59378 28.0553 8.5625 27.9766 8.5625C27.8978 8.5625 27.8223 8.59378 27.7666 8.64945C27.711 8.70513 27.6797 8.78064 27.6797 8.85937V10.9375H26.1953C26.0378 10.9375 25.8868 11.0001 25.7755 11.1114C25.6641 11.2228 25.6016 11.3738 25.6016 11.5312V16.2812C25.6016 16.4387 25.6641 16.5897 25.7755 16.7011C25.8868 16.8124 26.0378 16.875 26.1953 16.875H27.6797V18.9531C27.6797 19.0319 27.711 19.1074 27.7666 19.163C27.8223 19.2187 27.8978 19.25 27.9766 19.25C28.0553 19.25 28.1308 19.2187 28.1865 19.163C28.2422 19.1074 28.2734 19.0319 28.2734 18.9531V16.875H29.7578C29.9153 16.875 30.0663 16.8124 30.1777 16.7011C30.289 16.5897 30.3516 16.4387 30.3516 16.2812V11.5312C30.3516 11.3738 30.289 11.2228 30.1777 11.1114C30.0663 11.0001 29.9153 10.9375 29.7578 10.9375ZM29.1641 15.6875H26.7891V12.125H29.1641V15.6875ZM35.6953 13.3125H34.2109V11.2344C34.2109 11.1556 34.1797 11.0801 34.124 11.0245C34.0683 10.9688 33.9928 10.9375 33.9141 10.9375C33.8353 10.9375 33.7598 10.9688 33.7041 11.0245C33.6485 11.0801 33.6172 11.1556 33.6172 11.2344V13.3125H32.1328C31.9753 13.3125 31.8243 13.3751 31.713 13.4864C31.6016 13.5978 31.5391 13.7488 31.5391 13.9062V22.8125C31.5391 22.97 31.6016 23.121 31.713 23.2323C31.8243 23.3437 31.9753 23.4062 32.1328 23.4062H33.6172V25.4844C33.6172 25.5631 33.6485 25.6386 33.7041 25.6943C33.7598 25.75 33.8353 25.7812 33.9141 25.7812C33.9928 25.7812 34.0683 25.75 34.124 25.6943C34.1797 25.6386 34.2109 25.5631 34.2109 25.4844V23.4062H35.6953C35.8528 23.4062 36.0038 23.3437 36.1152 23.2323C36.2265 23.121 36.2891 22.97 36.2891 22.8125V13.9062C36.2891 13.7488 36.2265 13.5978 36.1152 13.4864C36.0038 13.3751 35.8528 13.3125 35.6953 13.3125ZM35.1016 22.2187H32.7266V14.5H35.1016V22.2187Z" fill="url(#paint0_linear_3820_20485)"/>
<path d="M11.9453 22.2187H10.4609V20.1406C10.4609 20.0619 10.4297 19.9864 10.374 19.9307C10.3183 19.875 10.2428 19.8438 10.1641 19.8438C10.0853 19.8438 10.0098 19.875 9.95414 19.9307C9.89847 19.9864 9.86719 20.0619 9.86719 20.1406V22.2187H8.38281C8.22534 22.2187 8.07432 22.2813 7.96297 22.3927C7.85162 22.504 7.78906 22.655 7.78906 22.8125V27.5625C7.78906 27.72 7.85162 27.871 7.96297 27.9823C8.07432 28.0937 8.22534 28.1562 8.38281 28.1562H9.86719V30.2344C9.86719 30.3131 9.89847 30.3886 9.95414 30.4443C10.0098 30.5 10.0853 30.5312 10.1641 30.5312C10.2428 30.5312 10.3183 30.5 10.374 30.4443C10.4297 30.3886 10.4609 30.3131 10.4609 30.2344V28.1562H11.9453C12.1028 28.1562 12.2538 28.0937 12.3652 27.9823C12.4765 27.871 12.5391 27.72 12.5391 27.5625V22.8125C12.5391 22.655 12.4765 22.504 12.3652 22.3927C12.2538 22.2813 12.1028 22.2187 11.9453 22.2187ZM11.3516 26.9688H8.97656V23.4062H11.3516V26.9688ZM17.8828 13.3125H16.3984V11.2344C16.3984 11.1556 16.3672 11.0801 16.3115 11.0245C16.2558 10.9688 16.1803 10.9375 16.1016 10.9375C16.0228 10.9375 15.9473 10.9688 15.8916 11.0245C15.836 11.0801 15.8047 11.1556 15.8047 11.2344V13.3125H14.3203C14.1628 13.3125 14.0118 13.3751 13.9005 13.4864C13.7891 13.5978 13.7266 13.7488 13.7266 13.9062V24C13.7266 24.1575 13.7891 24.3085 13.9005 24.4198C14.0118 24.5312 14.1628 24.5938 14.3203 24.5938H15.8047V26.6719C15.8047 26.7506 15.836 26.8261 15.8916 26.8818C15.9473 26.9375 16.0228 26.9688 16.1016 26.9688C16.1803 26.9688 16.2558 26.9375 16.3115 26.8818C16.3672 26.8261 16.3984 26.7506 16.3984 26.6719V24.5938H17.8828C18.0403 24.5938 18.1913 24.5312 18.3027 24.4198C18.414 24.3085 18.4766 24.1575 18.4766 24V13.9062C18.4766 13.7488 18.414 13.5978 18.3027 13.4864C18.1913 13.3751 18.0403 13.3125 17.8828 13.3125ZM17.2891 23.4062H14.9141V14.5H17.2891V23.4062ZM23.8203 6.78125H22.3359V4.70312C22.3359 4.62439 22.3047 4.54888 22.249 4.4932C22.1933 4.43753 22.1178 4.40625 22.0391 4.40625C21.9603 4.40625 21.8848 4.43753 21.8291 4.4932C21.7735 4.54888 21.7422 4.62439 21.7422 4.70312V6.78125H20.2578C20.1003 6.78125 19.9493 6.84381 19.838 6.95516C19.7266 7.0665 19.6641 7.21753 19.6641 7.375V13.9062C19.6641 14.0637 19.7266 14.2147 19.838 14.3261C19.9493 14.4374 20.1003 14.5 20.2578 14.5H21.7422V16.5781C21.7422 16.6569 21.7735 16.7324 21.8291 16.788C21.8848 16.8437 21.9603 16.875 22.0391 16.875C22.1178 16.875 22.1933 16.8437 22.249 16.788C22.3047 16.7324 22.3359 16.6569 22.3359 16.5781V14.5H23.8203C23.9778 14.5 24.1288 14.4374 24.2402 14.3261C24.3515 14.2147 24.4141 14.0637 24.4141 13.9062V7.375C24.4141 7.21753 24.3515 7.0665 24.2402 6.95516C24.1288 6.84381 23.9778 6.78125 23.8203 6.78125ZM23.2266 13.3125H20.8516V7.96875H23.2266V13.3125ZM29.7578 10.9375H28.2734V8.85937C28.2734 8.78064 28.2422 8.70513 28.1865 8.64945C28.1308 8.59378 28.0553 8.5625 27.9766 8.5625C27.8978 8.5625 27.8223 8.59378 27.7666 8.64945C27.711 8.70513 27.6797 8.78064 27.6797 8.85937V10.9375H26.1953C26.0378 10.9375 25.8868 11.0001 25.7755 11.1114C25.6641 11.2228 25.6016 11.3738 25.6016 11.5312V16.2812C25.6016 16.4387 25.6641 16.5897 25.7755 16.7011C25.8868 16.8124 26.0378 16.875 26.1953 16.875H27.6797V18.9531C27.6797 19.0319 27.711 19.1074 27.7666 19.163C27.8223 19.2187 27.8978 19.25 27.9766 19.25C28.0553 19.25 28.1308 19.2187 28.1865 19.163C28.2422 19.1074 28.2734 19.0319 28.2734 18.9531V16.875H29.7578C29.9153 16.875 30.0663 16.8124 30.1777 16.7011C30.289 16.5897 30.3516 16.4387 30.3516 16.2812V11.5312C30.3516 11.3738 30.289 11.2228 30.1777 11.1114C30.0663 11.0001 29.9153 10.9375 29.7578 10.9375ZM29.1641 15.6875H26.7891V12.125H29.1641V15.6875ZM35.6953 13.3125H34.2109V11.2344C34.2109 11.1556 34.1797 11.0801 34.124 11.0245C34.0683 10.9688 33.9928 10.9375 33.9141 10.9375C33.8353 10.9375 33.7598 10.9688 33.7041 11.0245C33.6485 11.0801 33.6172 11.1556 33.6172 11.2344V13.3125H32.1328C31.9753 13.3125 31.8243 13.3751 31.713 13.4864C31.6016 13.5978 31.5391 13.7488 31.5391 13.9062V22.8125C31.5391 22.97 31.6016 23.121 31.713 23.2323C31.8243 23.3437 31.9753 23.4062 32.1328 23.4062H33.6172V25.4844C33.6172 25.5631 33.6485 25.6386 33.7041 25.6943C33.7598 25.75 33.8353 25.7812 33.9141 25.7812C33.9928 25.7812 34.0683 25.75 34.124 25.6943C34.1797 25.6386 34.2109 25.5631 34.2109 25.4844V23.4062H35.6953C35.8528 23.4062 36.0038 23.3437 36.1152 23.2323C36.2265 23.121 36.2891 22.97 36.2891 22.8125V13.9062C36.2891 13.7488 36.2265 13.5978 36.1152 13.4864C36.0038 13.3751 35.8528 13.3125 35.6953 13.3125ZM35.1016 22.2187H32.7266V14.5H35.1016V22.2187Z" fill="black" fill-opacity="0.2"/>
<path d="M6.00781 37.6562C5.85034 37.6562 5.69932 37.5937 5.58797 37.4823C5.47662 37.371 5.41406 37.22 5.41406 37.0625V5C5.41406 4.84253 5.47662 4.6915 5.58797 4.58016C5.69932 4.46881 5.85034 4.40625 6.00781 4.40625C6.16528 4.40625 6.31631 4.46881 6.42766 4.58016C6.53901 4.6915 6.60156 4.84253 6.60156 5V37.0625C6.60156 37.22 6.53901 37.371 6.42766 37.4823C6.31631 37.5937 6.16528 37.6562 6.00781 37.6562Z" fill="url(#paint1_linear_3820_20485)"/>
<path d="M6.00781 37.6562C5.85034 37.6562 5.69932 37.5937 5.58797 37.4823C5.47662 37.371 5.41406 37.22 5.41406 37.0625V5C5.41406 4.84253 5.47662 4.6915 5.58797 4.58016C5.69932 4.46881 5.85034 4.40625 6.00781 4.40625C6.16528 4.40625 6.31631 4.46881 6.42766 4.58016C6.53901 4.6915 6.60156 4.84253 6.60156 5V37.0625C6.60156 37.22 6.53901 37.371 6.42766 37.4823C6.31631 37.5937 6.16528 37.6562 6.00781 37.6562Z" fill="black" fill-opacity="0.2"/>
<path d="M4.82031 36.4693C4.66284 36.4693 4.51182 36.4068 4.40047 36.2954C4.28912 36.1841 4.22656 36.0331 4.22656 35.8756C4.22656 35.7181 4.28912 35.5671 4.40047 35.4558C4.51182 35.3444 4.66284 35.2818 4.82031 35.2818L36.8828 35.2812C37.0403 35.2812 37.1913 35.3438 37.3027 35.4552C37.414 35.5665 37.4766 35.7175 37.4766 35.875C37.4766 36.0325 37.414 36.1835 37.3027 36.2948C37.1913 36.4062 37.0403 36.4688 36.8828 36.4688L4.82031 36.4693Z" fill="url(#paint2_linear_3820_20485)"/>
<path d="M4.82031 36.4693C4.66284 36.4693 4.51182 36.4068 4.40047 36.2954C4.28912 36.1841 4.22656 36.0331 4.22656 35.8756C4.22656 35.7181 4.28912 35.5671 4.40047 35.4558C4.51182 35.3444 4.66284 35.2818 4.82031 35.2818L36.8828 35.2812C37.0403 35.2812 37.1913 35.3438 37.3027 35.4552C37.414 35.5665 37.4766 35.7175 37.4766 35.875C37.4766 36.0325 37.414 36.1835 37.3027 36.2948C37.1913 36.4062 37.0403 36.4688 36.8828 36.4688L4.82031 36.4693Z" fill="black" fill-opacity="0.2"/>
</g>
<defs>
<linearGradient id="paint0_linear_3820_20485" x1="22.0391" y1="4.40625" x2="22.0391" y2="30.5312" gradientUnits="userSpaceOnUse">
<stop stop-color="#FF0F0F"/>
<stop offset="1" stop-color="#FF4849"/>
</linearGradient>
<linearGradient id="paint1_linear_3820_20485" x1="6.00781" y1="4.40625" x2="6.00781" y2="37.6562" gradientUnits="userSpaceOnUse">
<stop stop-color="#FF0F0F"/>
<stop offset="1" stop-color="#FF4849"/>
</linearGradient>
<linearGradient id="paint2_linear_3820_20485" x1="20.8516" y1="35.2812" x2="20.8516" y2="36.4693" gradientUnits="userSpaceOnUse">
<stop stop-color="#FF0F0F"/>
<stop offset="1" stop-color="#FF4849"/>
</linearGradient>
<clipPath id="clip0_3820_20485">
<rect width="39.7513" height="40.3589" fill="white" transform="translate(0.9375 0.992188)"/>
</clipPath>
</defs>
</svg>