<svg width="38" height="38" viewBox="0 0 32 28" fill="none" xmlns="http://www.w3.org/2000/svg">
<path d="M31.7264 25.4976L30.6103 22.4269C30.1224 21.0842 28.9423 20.1054 27.5317 19.8682L23.961 19.2735C24.1422 19.1456 24.3277 19.0229 24.4956 18.8709C24.705 18.6802 24.8809 18.4615 25.057 18.243H26.4396C27.461 18.243 28.2902 17.4124 28.2902 16.391V13.399C28.2902 13.3843 28.2943 13.3711 28.2943 13.3564C28.2943 13.3417 28.2902 13.3272 28.2902 13.3124L28.2905 6.84728C28.2905 5.37385 27.3797 4.07002 26.0119 3.56065C24.9132 1.59791 22.8451 0.384766 20.584 0.384766C18.9347 0.384766 17.3786 1.02339 16.2054 2.18345C15.3481 3.03008 14.2907 3.57808 13.1481 3.76871L11.4278 4.05643C11.3197 4.07385 11.2278 4.14326 11.1811 4.24193C11.1345 4.34059 11.1385 4.45532 11.1932 4.54996L11.5532 5.18053C12.0492 6.04996 12.7052 6.79527 13.464 7.40328V13.3581C13.464 14.6981 14.42 15.8621 15.7093 16.1434C16.0532 17.4206 16.8133 18.5233 17.8398 19.2661L14.2238 19.8674C12.813 20.1034 11.6345 21.0835 11.1465 22.4275L10.0305 25.4969C9.85838 25.9717 9.9278 26.5023 10.2171 26.9144C10.5064 27.3291 10.9798 27.5744 11.4851 27.5744H14.5452C14.5465 27.5744 14.5465 27.5758 14.5479 27.5758C14.5492 27.5758 14.5492 27.5744 14.5506 27.5744H27.2037C27.205 27.5744 27.205 27.5758 27.2064 27.5758C27.2077 27.5758 27.2077 27.5744 27.2091 27.5744H30.2677C30.7718 27.5744 31.245 27.3278 31.5358 26.9144C31.8275 26.5021 31.8983 25.9713 31.7262 25.4981L31.7264 25.4976ZM19.5144 20.0762C19.7838 20.1496 20.057 20.2148 20.3409 20.2429C20.5249 20.2617 20.705 20.2695 20.8863 20.2695C21.3356 20.2695 21.7715 20.1947 22.1983 20.0882L20.8104 22.0708L19.5144 20.0762ZM20.3398 22.5708L17.5932 24.4014L16.0345 20.2413L18.5532 19.8226L20.3398 22.5708ZM23.1958 19.8242L25.5717 20.2188L24.0009 24.4028L21.2664 22.5776L23.1958 19.8242ZM27.6237 16.3922C27.6237 17.0456 27.0931 17.5775 26.4397 17.5775H25.5078C25.7732 17.1228 25.985 16.6402 26.1078 16.1282C26.7105 15.9815 27.2384 15.6496 27.6239 15.1882L27.6237 16.3922ZM27.6237 13.3775C27.6143 14.2815 27.0304 15.0523 26.217 15.3708C26.2331 15.2054 26.269 15.0442 26.269 14.8775V11.3694C27.0609 11.7054 27.6143 12.4574 27.6237 13.3349L27.6237 13.3775ZM14.1305 7.8748C15.3812 8.68017 16.848 9.14285 18.3812 9.14285C18.5652 9.14285 18.7145 8.99352 18.7145 8.8096C18.7145 8.62567 18.5652 8.47634 18.3812 8.47634C15.804 8.47634 13.4091 7.08708 12.1321 4.84977L12.0095 4.63481L13.2562 4.42678C14.5361 4.21338 15.7175 3.60158 16.6736 2.65735C17.7216 1.62141 19.1095 1.05066 20.5843 1.05066C22.643 1.05066 24.5216 2.17586 25.487 3.98929C25.527 4.06518 25.5951 4.12255 25.6776 4.14934C26.8431 4.53327 27.6256 5.6174 27.6256 6.84665V11.5306C27.2777 11.1145 26.8096 10.8054 26.271 10.6387L26.2707 9.82145C26.2707 9.63752 26.1214 9.4882 25.9375 9.4882H15.8243C15.6404 9.4882 15.4911 9.63753 15.4911 9.82145V10.6389C14.9511 10.8056 14.4817 11.1175 14.1324 11.5362V7.87483L14.1305 7.8748ZM14.1305 13.3561C14.1305 12.4694 14.6906 11.7067 15.4892 11.3694V14.652C15.4892 14.8986 15.5252 15.1373 15.556 15.3772C14.7279 15.06 14.1305 14.2761 14.1305 13.356V13.3561ZM16.156 14.6523V10.155H25.6028V14.8777C25.6028 15.8498 25.2934 16.7898 24.7441 17.5764H22.2015C22.1002 17.3445 21.8709 17.1831 21.6015 17.1831H20.4643C20.1015 17.1831 19.8083 17.4764 19.8083 17.8391V17.9871C19.8083 18.3498 20.1016 18.6431 20.4643 18.6431H21.6015C21.8736 18.6431 22.1055 18.4777 22.2055 18.2431H24.1683C24.1256 18.2857 24.0935 18.3364 24.0482 18.3777C23.0482 19.2831 21.7615 19.7109 20.4068 19.5777C18.0227 19.3442 16.1562 17.1815 16.1562 14.6523L16.156 14.6523ZM30.992 26.5323C30.8252 26.7709 30.5627 26.9071 30.2705 26.9071H27.5427V24.7698C27.5427 24.5859 27.3933 24.4365 27.2094 24.4365C27.0255 24.4365 26.8761 24.5859 26.8761 24.7698V26.9071H14.883V24.7698C14.883 24.5859 14.7337 24.4365 14.5497 24.4365C14.3658 24.4365 14.2165 24.5859 14.2165 24.7698V26.9071L11.4855 26.9068C11.1935 26.9068 10.9308 26.7696 10.7627 26.5309C10.596 26.2923 10.5573 25.999 10.656 25.7243L11.7721 22.6535C12.1788 21.5375 13.16 20.7216 14.3321 20.5256L15.3641 20.3535L17.1148 25.0294C17.1507 25.1241 17.2281 25.1988 17.3241 25.2294C17.3574 25.2401 17.3935 25.2455 17.4268 25.2455C17.4922 25.2455 17.5561 25.2254 17.6121 25.1895L20.7973 23.0654L23.9799 25.1895C24.0346 25.2254 24.1 25.2455 24.1652 25.2455C24.1984 25.2455 24.2346 25.2401 24.2665 25.2294C24.3638 25.1988 24.4413 25.1241 24.4772 25.0294L26.2427 20.3294L27.4212 20.5254C28.5947 20.7214 29.5759 21.5375 29.9813 22.6533L31.0973 25.724C31.1989 25.999 31.1603 26.2923 30.9922 26.5323L30.992 26.5323Z" fill="url(#paint0_linear_4105_34291)"/>
<path d="M19.3496 12.3487C19.3496 12.7838 18.9966 13.1367 18.5616 13.1367C18.1263 13.1367 17.7734 12.7838 17.7734 12.3487C17.7734 11.9134 18.1263 11.5605 18.5616 11.5605C18.9967 11.5605 19.3496 11.9134 19.3496 12.3487Z" fill="url(#paint1_linear_4105_34291)"/>
<path d="M23.9899 12.3487C23.9899 12.7838 23.637 13.1367 23.202 13.1367C22.7667 13.1367 22.4141 12.7838 22.4141 12.3487C22.4141 11.9134 22.7667 11.5605 23.202 11.5605C23.6371 11.5605 23.9899 11.9134 23.9899 12.3487Z" fill="url(#paint2_linear_4105_34291)"/>
<path d="M11.8203 14.4355C11.8203 11.2195 9.20419 8.60352 5.98825 8.60352C2.77219 8.60352 0.15625 11.2193 0.15625 14.4355C0.15625 17.6517 2.77231 20.2675 5.98825 20.2675C9.20431 20.2675 11.8203 17.6517 11.8203 14.4355ZM5.98825 19.6009C3.14025 19.6009 0.822822 17.2835 0.822822 14.4355C0.822822 11.5875 3.14025 9.27009 5.98825 9.27009C8.83625 9.27009 11.1537 11.5875 11.1537 14.4355C11.1537 17.2835 8.83625 19.6009 5.98825 19.6009Z" fill="url(#paint3_linear_4105_34291)"/>
<path d="M7.01652 14.6455C6.92724 14.5629 6.82456 14.4921 6.70983 14.4334C6.59376 14.3747 6.47791 14.3214 6.35916 14.2747C6.24041 14.2281 6.1259 14.1828 6.01117 14.1374C5.89778 14.0921 5.79644 14.0428 5.70715 13.9868C5.61787 13.9308 5.54577 13.8654 5.48974 13.7921C5.43371 13.7187 5.40581 13.6267 5.40581 13.5187C5.40581 13.4401 5.42054 13.368 5.44978 13.3013C5.47902 13.2345 5.52188 13.1761 5.57902 13.1278C5.63639 13.0785 5.70826 13.0412 5.79777 13.0145C5.88572 12.9892 5.98839 12.9758 6.10581 12.9758C6.23639 12.9758 6.35246 12.9906 6.45379 13.0212C6.55647 13.0517 6.64442 13.0852 6.71919 13.1198C6.79509 13.1544 6.85513 13.1866 6.90313 13.2171C6.94978 13.2464 6.98571 13.2624 7.01116 13.2624C7.02723 13.2624 7.04308 13.2584 7.05647 13.2477C7.0712 13.2383 7.08303 13.2225 7.09241 13.1997C7.10312 13.1783 7.10982 13.1491 7.11384 13.1145C7.11786 13.0799 7.12053 13.0386 7.12053 12.9917C7.12053 12.9477 7.11786 12.9104 7.11384 12.8796C7.10982 12.8491 7.1058 12.8223 7.10178 12.8024C7.09777 12.781 7.08973 12.7638 7.08036 12.7464C7.06964 12.729 7.05112 12.7104 7.02165 12.6877C6.99241 12.6649 6.94956 12.6383 6.89241 12.6104C6.83505 12.5812 6.76719 12.5544 6.68572 12.5292C6.60581 12.504 6.51496 12.4839 6.41496 12.4665C6.38304 12.4611 6.34956 12.4624 6.31764 12.4584V12.0383C6.31764 11.8544 6.1683 11.7051 5.98438 11.7051C5.80045 11.7051 5.65112 11.8544 5.65112 12.0383V12.5131C5.60983 12.5238 5.55514 12.5198 5.51652 12.5345C5.34576 12.5959 5.20447 12.6772 5.08996 12.7785C4.97657 12.8798 4.8913 12.9973 4.83393 13.1319C4.77657 13.2678 4.74866 13.4091 4.74866 13.556C4.74866 13.7227 4.77523 13.8667 4.82992 13.9852C4.8846 14.104 4.95514 14.2066 5.04465 14.2932C5.13393 14.3785 5.23527 14.4519 5.34733 14.512C5.46072 14.572 5.57523 14.6254 5.69398 14.672C5.81273 14.7187 5.92724 14.764 6.03795 14.8066C6.14866 14.8493 6.24866 14.8986 6.33795 14.9546C6.42724 15.0107 6.498 15.0747 6.55268 15.1466C6.60737 15.2187 6.63393 15.308 6.63393 15.4133C6.63393 15.516 6.61518 15.6053 6.57791 15.6801C6.54063 15.7549 6.48728 15.8174 6.41786 15.8653C6.34844 15.9147 6.26719 15.9506 6.17255 15.9761C6.07791 16.0013 5.97255 16.0133 5.85513 16.0133C5.69911 16.0133 5.56183 15.9959 5.44174 15.9573C5.32165 15.92 5.21897 15.8801 5.13103 15.8345C5.04308 15.7906 4.96964 15.7493 4.9096 15.7118C4.84955 15.6745 4.80424 15.6558 4.77366 15.6558C4.75491 15.6558 4.73638 15.6598 4.72165 15.6705C4.70558 15.6799 4.69509 15.6957 4.68571 15.7185C4.67634 15.7412 4.66964 15.7705 4.66428 15.8064C4.65893 15.8424 4.65625 15.8863 4.65625 15.9397C4.65625 16.0263 4.66429 16.093 4.67768 16.1437C4.69107 16.1944 4.71362 16.233 4.74442 16.2611C4.775 16.289 4.82299 16.3212 4.88974 16.3557C4.95648 16.3903 5.03772 16.4238 5.13371 16.4557C5.22969 16.4877 5.33772 16.5145 5.45893 16.5343C5.52031 16.545 5.58683 16.545 5.6509 16.5504V16.9678C5.6509 17.1517 5.80023 17.3011 5.98415 17.3011C6.16808 17.3011 6.31741 17.1517 6.31741 16.9678V16.5037C6.35469 16.4957 6.4 16.4984 6.43616 16.4877C6.61607 16.4343 6.7721 16.3571 6.9029 16.2544C7.03348 16.1504 7.13482 16.0252 7.20558 15.8745C7.27634 15.7238 7.31228 15.5531 7.31228 15.3611C7.31228 15.1984 7.28438 15.0598 7.23103 14.9464C7.17656 14.8294 7.10603 14.7294 7.01652 14.6455Z" fill="url(#paint4_linear_4105_34291)"/>
<defs>
<linearGradient id="paint0_linear_4105_34291" x1="26.9853" y1="0.384766" x2="26.8305" y2="33.4024" gradientUnits="userSpaceOnUse">
<stop stop-color="#005CAA"/>
<stop offset="1" stop-color="#64B0F1"/>
</linearGradient>
<linearGradient id="paint1_linear_4105_34291" x1="19.0014" y1="11.5605" x2="18.9942" y2="13.4744" gradientUnits="userSpaceOnUse">
<stop stop-color="#005CAA"/>
<stop offset="1" stop-color="#64B0F1"/>
</linearGradient>
<linearGradient id="paint2_linear_4105_34291" x1="23.6419" y1="11.5605" x2="23.6346" y2="13.4744" gradientUnits="userSpaceOnUse">
<stop stop-color="#005CAA"/>
<stop offset="1" stop-color="#64B0F1"/>
</linearGradient>
<linearGradient id="paint3_linear_4105_34291" x1="9.24378" y1="8.60352" x2="9.19034" y2="22.767" gradientUnits="userSpaceOnUse">
<stop stop-color="#005CAA"/>
<stop offset="1" stop-color="#64B0F1"/>
</linearGradient>
<linearGradient id="paint4_linear_4105_34291" x1="6.72559" y1="11.7051" x2="6.67156" y2="18.4999" gradientUnits="userSpaceOnUse">
<stop stop-color="#005CAA"/>
<stop offset="1" stop-color="#64B0F1"/>
</linearGradient>
</defs>
</svg>