<svg width="38" height="38" viewBox="0 0 33 33" fill="none"
                                xmlns="http://www.w3.org/2000/svg">
                                <path
                                    d="M15.5335 23.0061H9.96094C9.68482 23.0061 9.46094 22.7823 9.46094 22.5061V8.25586C9.46094 7.97952 9.68482 7.75586 9.96094 7.75586H15.5335C15.6661 7.75586 15.7933 7.80854 15.8871 7.90229C15.9808 7.99604 16.0335 8.12327 16.0335 8.25586V22.5061C16.0335 22.6387 15.9808 22.7657 15.8871 22.8597C15.7933 22.9535 15.6661 23.0061 15.5335 23.0061ZM10.4634 22.0061H15.0335V8.75586H10.4609L10.4634 22.0061Z"
                                    fill="url(#paint0_linear_5451_30169)" />
                                <path
                                    d="M12.75 8.71604C12.4739 8.71604 12.25 8.49238 12.25 8.21604V1.48633C12.25 1.21021 12.4739 0.986328 12.75 0.986328C13.0261 0.986328 13.25 1.21021 13.25 1.48633V8.23604C13.2393 8.50435 13.0185 8.71618 12.75 8.71595V8.71604Z"
                                    fill="url(#paint1_linear_5451_30169)" />
                                <path
                                    d="M12.75 27.8208C12.4739 27.8208 12.25 27.5969 12.25 27.3208V22.5059C12.25 22.2295 12.4739 22.0059 12.75 22.0059C13.0261 22.0059 13.25 22.2295 13.25 22.5059V27.3184C13.2507 27.4514 13.1982 27.5791 13.1045 27.6735C13.0105 27.7677 12.883 27.8208 12.75 27.8208Z"
                                    fill="url(#paint2_linear_5451_30169)" />
                                <path
                                    d="M32.4842 20.0408H26.9141C26.6379 20.0408 26.4141 19.8172 26.4141 19.5408V12.1563C26.4141 11.8799 26.6379 11.6562 26.9141 11.6562H32.4842C32.6168 11.6562 32.744 11.7089 32.8377 11.8027C32.9315 11.8964 32.9842 12.0237 32.9842 12.1563V19.5408C32.9842 19.6734 32.9315 19.8006 32.8377 19.8944C32.744 19.9881 32.6168 20.0408 32.4842 20.0408ZM27.4141 19.0408H31.9842V12.6563H27.4141V19.0408Z"
                                    fill="url(#paint3_linear_5451_30169)" />
                                <path
                                    d="M29.7031 12.6137C29.427 12.6137 29.2031 12.3898 29.2031 12.1137V6.88867C29.2031 6.61256 29.427 6.38867 29.7031 6.38867C29.9792 6.38867 30.2031 6.61256 30.2031 6.88867V12.1137C30.2031 12.2463 30.1504 12.3735 30.0567 12.4673C29.9629 12.561 29.8357 12.6137 29.7031 12.6137Z"
                                    fill="url(#paint4_linear_5451_30169)" />
                                <path
                                    d="M29.7031 26.4284C29.427 26.4284 29.2031 26.2048 29.2031 25.9284V19.541C29.2031 19.2649 29.427 19.041 29.7031 19.041C29.9792 19.041 30.2031 19.2649 30.2031 19.541V25.9284C30.2031 26.061 30.1504 26.1883 30.0567 26.282C29.9629 26.3758 29.8357 26.4284 29.7031 26.4284Z"
                                    fill="url(#paint5_linear_5451_30169)" />
                                <path
                                    d="M24.0076 11.8438H18.4375C18.1614 11.8438 17.9375 11.6199 17.9375 11.3438V5.34375C17.9375 5.06741 18.1614 4.84375 18.4375 4.84375H24.0076C24.1402 4.84375 24.2674 4.89643 24.3612 4.99018C24.4549 5.08393 24.5076 5.21116 24.5076 5.34375V11.3438C24.5076 11.4763 24.4549 11.6034 24.3612 11.6973C24.2674 11.7911 24.1402 11.8438 24.0076 11.8438ZM18.9375 10.8437H23.5076V5.84375H18.9375V10.8437Z"
                                    fill="url(#paint6_linear_5451_30169)" />
                                <path
                                    d="M21.2188 5.81136C20.9426 5.81136 20.7188 5.58747 20.7188 5.31136V1.48633C20.7188 1.21021 20.9426 0.986328 21.2188 0.986328C21.4949 0.986328 21.7188 1.21021 21.7188 1.48633V5.31136C21.7188 5.44395 21.6661 5.57118 21.5723 5.66493C21.4786 5.75868 21.3513 5.81136 21.2188 5.81136Z"
                                    fill="url(#paint7_linear_5451_30169)" />
                                <path
                                    d="M21.2188 21.0163C20.9426 21.0163 20.7188 20.7927 20.7188 20.5163V11.3438C20.7188 11.0674 20.9426 10.8438 21.2188 10.8438C21.4949 10.8438 21.7188 11.0674 21.7188 11.3438V20.5163C21.7188 20.6489 21.6661 20.7761 21.5723 20.8699C21.4786 20.9636 21.3513 21.0163 21.2188 21.0163Z"
                                    fill="url(#paint8_linear_5451_30169)" />
                                <path
                                    d="M7.05449 28.2364H1.48438C1.20826 28.2364 0.984375 28.0125 0.984375 27.7364V23.6113C0.984375 23.3352 1.20826 23.1113 1.48438 23.1113H7.05449C7.18708 23.1113 7.31409 23.164 7.40806 23.2578C7.50181 23.3515 7.55449 23.4787 7.55449 23.6113V27.7364C7.55449 27.8689 7.50181 27.9962 7.40806 28.0899C7.31409 28.1837 7.18708 28.2364 7.05449 28.2364ZM1.98438 27.2364H6.55449V24.1113H1.98438V27.2364Z"
                                    fill="url(#paint9_linear_5451_30169)" />
                                <path
                                    d="M4.26563 32.9863C3.98951 32.9863 3.76562 32.7624 3.76562 32.4863V27.7363C3.76562 27.4602 3.98951 27.2363 4.26563 27.2363C4.54174 27.2363 4.76563 27.4602 4.76563 27.7363V32.4863C4.76563 32.6189 4.71295 32.7462 4.6192 32.8399C4.52545 32.9336 4.39821 32.9863 4.26563 32.9863Z"
                                    fill="url(#paint10_linear_5451_30169)" />
                                <path
                                    d="M4.26563 24.1113C3.98951 24.1113 3.76562 23.8874 3.76562 23.6113V10.3164C3.76562 10.0403 3.98951 9.81641 4.26563 9.81641C4.54174 9.81641 4.76563 10.0403 4.76563 10.3164V23.6113C4.76563 23.7439 4.71295 23.8711 4.6192 23.9648C4.52545 24.0586 4.39821 24.1113 4.26563 24.1113Z"
                                    fill="url(#paint11_linear_5451_30169)" />
                                <defs>
                                    <linearGradient id="paint0_linear_5451_30169" x1="14.5817" y1="7.75586" x2="14.4196"
                                        y2="26.273" gradientUnits="userSpaceOnUse">
                                        <stop stop-color="#005CAA" />
                                        <stop offset="1" stop-color="#64B0F1" />
                                    </linearGradient>
                                    <linearGradient id="paint1_linear_5451_30169" x1="13.0291" y1="0.986328"
                                        x2="12.7556" y2="10.3646" gradientUnits="userSpaceOnUse">
                                        <stop stop-color="#005CAA" />
                                        <stop offset="1" stop-color="#64B0F1" />
                                    </linearGradient>
                                    <linearGradient id="paint2_linear_5451_30169" x1="13.0291" y1="22.0059" x2="12.8742"
                                        y2="29.0636" gradientUnits="userSpaceOnUse">
                                        <stop stop-color="#005CAA" />
                                        <stop offset="1" stop-color="#64B0F1" />
                                    </linearGradient>
                                    <linearGradient id="paint3_linear_5451_30169" x1="31.5329" y1="11.6562" x2="31.4839"
                                        y2="21.8375" gradientUnits="userSpaceOnUse">
                                        <stop stop-color="#005CAA" />
                                        <stop offset="1" stop-color="#64B0F1" />
                                    </linearGradient>
                                    <linearGradient id="paint4_linear_5451_30169" x1="29.9822" y1="6.38867" x2="29.8048"
                                        y2="13.9436" gradientUnits="userSpaceOnUse">
                                        <stop stop-color="#005CAA" />
                                        <stop offset="1" stop-color="#64B0F1" />
                                    </linearGradient>
                                    <linearGradient id="paint5_linear_5451_30169" x1="29.9822" y1="19.041" x2="29.7324"
                                        y2="28.0047" gradientUnits="userSpaceOnUse">
                                        <stop stop-color="#005CAA" />
                                        <stop offset="1" stop-color="#64B0F1" />
                                    </linearGradient>
                                    <linearGradient id="paint6_linear_5451_30169" x1="23.0563" y1="4.84375" x2="23.0222"
                                        y2="13.3438" gradientUnits="userSpaceOnUse">
                                        <stop stop-color="#005CAA" />
                                        <stop offset="1" stop-color="#64B0F1" />
                                    </linearGradient>
                                    <linearGradient id="paint7_linear_5451_30169" x1="21.4979" y1="0.986328"
                                        x2="21.3912" y2="6.84347" gradientUnits="userSpaceOnUse">
                                        <stop stop-color="#005CAA" />
                                        <stop offset="1" stop-color="#64B0F1" />
                                    </linearGradient>
                                    <linearGradient id="paint8_linear_5451_30169" x1="21.4979" y1="10.8437" x2="21.0244"
                                        y2="23.1782" gradientUnits="userSpaceOnUse">
                                        <stop stop-color="#005CAA" />
                                        <stop offset="1" stop-color="#64B0F1" />
                                    </linearGradient>
                                    <linearGradient id="paint9_linear_5451_30169" x1="6.10321" y1="23.1113" x2="6.08489"
                                        y2="29.3347" gradientUnits="userSpaceOnUse">
                                        <stop stop-color="#005CAA" />
                                        <stop offset="1" stop-color="#64B0F1" />
                                    </linearGradient>
                                    <linearGradient id="paint10_linear_5451_30169" x1="4.54473" y1="27.2363" x2="4.3933"
                                        y2="34.2153" gradientUnits="userSpaceOnUse">
                                        <stop stop-color="#005CAA" />
                                        <stop offset="1" stop-color="#64B0F1" />
                                    </linearGradient>
                                    <linearGradient id="paint11_linear_5451_30169" x1="4.54473" y1="9.81641"
                                        x2="3.61109" y2="27.1245" gradientUnits="userSpaceOnUse">
                                        <stop stop-color="#005CAA" />
                                        <stop offset="1" stop-color="#64B0F1" />
                                    </linearGradient>
                                </defs>
                            </svg>