<svg width="38" height="38" viewBox="0 0 35 25" fill="none"
                                xmlns="http://www.w3.org/2000/svg">
                                <path
                                    d="M33.125 0H1.875C1.37789 0.000542622 0.901287 0.198261 0.549774 0.549774C0.198261 0.901287 0.000542622 1.37789 0 1.875V23.125C0.000540971 23.6221 0.198259 24.0987 0.549772 24.4502C0.901286 24.8017 1.37789 24.9995 1.875 25H33.125C33.6221 24.9995 34.0987 24.8017 34.4502 24.4502C34.8017 24.0987 34.9995 23.6221 35 23.125V1.875C34.9995 1.37789 34.8017 0.901287 34.4502 0.549774C34.0987 0.198261 33.6221 0.000542622 33.125 0ZM1.25 1.875C1.25021 1.7093 1.31613 1.55045 1.43329 1.43329C1.55045 1.31613 1.7093 1.25021 1.875 1.25H33.125C33.2907 1.25021 33.4495 1.31613 33.5667 1.43329C33.6839 1.55045 33.7498 1.7093 33.75 1.875V3.75H1.25V1.875ZM33.75 23.125C33.7498 23.2907 33.6839 23.4495 33.5667 23.5667C33.4495 23.6839 33.2907 23.7498 33.125 23.75H1.875C1.7093 23.7498 1.55045 23.6839 1.43329 23.5667C1.31612 23.4495 1.25021 23.2907 1.25 23.125V5H33.75V23.125Z"
                                    fill="#CC1212" />
                                <path
                                    d="M31.8811 1.875H31.875C31.7087 1.87581 31.5495 1.94255 31.4323 2.06058C31.3152 2.1786 31.2496 2.33828 31.25 2.50459C31.2504 2.6709 31.3168 2.83026 31.4345 2.94771C31.5522 3.06517 31.7118 3.13113 31.8781 3.13113C32.0444 3.13113 32.2039 3.06517 32.3216 2.94771C32.4394 2.83026 32.5057 2.6709 32.5061 2.50459C32.5065 2.33828 32.441 2.1786 32.3238 2.06058C32.2066 1.94255 32.0474 1.87581 31.8811 1.875ZM29.375 1.875H29.3689C29.2026 1.87581 29.0434 1.94255 28.9262 2.06058C28.809 2.1786 28.7435 2.33828 28.7439 2.50459C28.7443 2.6709 28.8106 2.83026 28.9284 2.94771C29.0461 3.06517 29.2056 3.13113 29.3719 3.13113C29.5382 3.13113 29.6978 3.06517 29.8155 2.94771C29.9332 2.83026 29.9996 2.6709 30 2.50459C30.0004 2.33828 29.9348 2.1786 29.8177 2.06058C29.7005 1.94255 29.5413 1.87581 29.375 1.875ZM26.8781 1.875H26.8719C26.7056 1.87581 26.5464 1.94255 26.4293 2.06058C26.3121 2.1786 26.2465 2.33828 26.2469 2.50459C26.2473 2.6709 26.3137 2.83026 26.4314 2.94771C26.5492 3.06517 26.7087 3.13113 26.875 3.13113C27.0413 3.13113 27.2008 3.06517 27.3186 2.94771C27.4363 2.83026 27.5027 2.6709 27.5031 2.50459C27.5035 2.33828 27.4379 2.1786 27.3207 2.06058C27.2036 1.94255 27.0444 1.87581 26.8781 1.875ZM3.125 7.5H7.5C7.66576 7.5 7.82473 7.43415 7.94194 7.31694C8.05915 7.19973 8.125 7.04076 8.125 6.875C8.125 6.70924 8.05915 6.55027 7.94194 6.43306C7.82473 6.31585 7.66576 6.25 7.5 6.25H3.125C2.95924 6.25 2.80027 6.31585 2.68306 6.43306C2.56585 6.55027 2.5 6.70924 2.5 6.875C2.5 7.04076 2.56585 7.19973 2.68306 7.31694C2.80027 7.43415 2.95924 7.5 3.125 7.5ZM3.125 10H7.5C7.66576 10 7.82473 9.93415 7.94194 9.81694C8.05915 9.69973 8.125 9.54076 8.125 9.375C8.125 9.20924 8.05915 9.05027 7.94194 8.93306C7.82473 8.81585 7.66576 8.75 7.5 8.75H3.125C2.95924 8.75 2.80027 8.81585 2.68306 8.93306C2.56585 9.05027 2.5 9.20924 2.5 9.375C2.5 9.54076 2.56585 9.69973 2.68306 9.81694C2.80027 9.93415 2.95924 10 3.125 10ZM3.125 12.5H7.5C7.66576 12.5 7.82473 12.4342 7.94194 12.3169C8.05915 12.1997 8.125 12.0408 8.125 11.875C8.125 11.7092 8.05915 11.5503 7.94194 11.4331C7.82473 11.3158 7.66576 11.25 7.5 11.25H3.125C2.95924 11.25 2.80027 11.3158 2.68306 11.4331C2.56585 11.5503 2.5 11.7092 2.5 11.875C2.5 12.0408 2.56585 12.1997 2.68306 12.3169C2.80027 12.4342 2.95924 12.5 3.125 12.5ZM3.125 15H7.5C7.66576 15 7.82473 14.9342 7.94194 14.8169C8.05915 14.6997 8.125 14.5408 8.125 14.375C8.125 14.2092 8.05915 14.0503 7.94194 13.9331C7.82473 13.8158 7.66576 13.75 7.5 13.75H3.125C2.95924 13.75 2.80027 13.8158 2.68306 13.9331C2.56585 14.0503 2.5 14.2092 2.5 14.375C2.5 14.5408 2.56585 14.6997 2.68306 14.8169C2.80027 14.9342 2.95924 15 3.125 15ZM21.875 13.75H27.3868C27.4784 13.7501 27.569 13.7299 27.652 13.6911C27.735 13.6522 27.8084 13.5956 27.8671 13.5251C27.9257 13.4547 27.9682 13.3722 27.9914 13.2836C28.0146 13.1949 28.018 13.1022 28.0014 13.0121C27.7385 11.6023 27.0755 10.2979 26.0916 9.25463L26.6409 8.125H29.375C29.5408 8.125 29.6997 8.05915 29.8169 7.94194C29.9342 7.82473 30 7.66576 30 7.5C30 7.33424 29.9342 7.17527 29.8169 7.05806C29.6997 6.94085 29.5408 6.875 29.375 6.875H26.25C26.1328 6.87498 26.0179 6.90794 25.9185 6.97011C25.8191 7.03228 25.7392 7.12115 25.6879 7.22657L25.1254 8.38276C24.2015 7.68361 23.1272 7.20967 21.9879 6.99863C21.8978 6.982 21.8051 6.98542 21.7164 7.00863C21.6278 7.03184 21.5453 7.07428 21.4749 7.13294C21.4044 7.19159 21.3478 7.26504 21.3089 7.34805C21.2701 7.43105 21.2499 7.5216 21.25 7.61326V13.125C21.25 13.2908 21.3159 13.4497 21.4331 13.5669C21.5503 13.6841 21.7092 13.75 21.875 13.75ZM22.5 8.41125C23.4588 8.71615 24.3305 9.24658 25.042 9.95803C25.7534 10.6695 26.2838 11.5412 26.5887 12.5H22.5V8.41125ZM31.875 8.125H31.8811C32.0474 8.12419 32.2066 8.05745 32.3238 7.93942C32.441 7.8214 32.5065 7.66172 32.5061 7.49541C32.5057 7.3291 32.4394 7.16974 32.3216 7.05229C32.2039 6.93483 32.0444 6.86887 31.8781 6.86887C31.7118 6.86887 31.5522 6.93483 31.4345 7.05229C31.3168 7.16974 31.2504 7.3291 31.25 7.49541C31.2496 7.66172 31.3152 7.8214 31.4323 7.93942C31.5495 8.05745 31.7087 8.12419 31.875 8.125Z"
                                    fill="#CC1212" />
                                <path
                                    d="M31.8719 8.75002H29.9969C29.8312 8.75002 29.6722 8.81586 29.555 8.93307C29.4378 9.05028 29.3719 9.20925 29.3719 9.37502C29.3719 9.54078 29.4378 9.69975 29.555 9.81696C29.6722 9.93417 29.8312 10 29.9969 10H31.8719C32.0377 10 32.1967 9.93417 32.3139 9.81696C32.4311 9.69975 32.4969 9.54078 32.4969 9.37502C32.4969 9.20925 32.4311 9.05028 32.3139 8.93307C32.1967 8.81586 32.0377 8.75002 31.8719 8.75002ZM14.7284 19.1016L13.9871 20.625H11.2531C11.0873 20.625 10.9283 20.6909 10.8111 20.8081C10.6939 20.9253 10.6281 21.0843 10.6281 21.25C10.6281 21.4158 10.6939 21.5747 10.8111 21.692C10.9283 21.8092 11.0873 21.875 11.2531 21.875H14.3781C14.4953 21.875 14.6102 21.8421 14.7096 21.7799C14.809 21.7177 14.8889 21.6289 14.9402 21.5235L15.6804 20.0024C16.6746 20.8794 17.8838 21.4768 19.1844 21.7334C20.485 21.99 21.8305 21.8967 23.0832 21.463C24.336 21.0293 25.4511 20.2708 26.3147 19.2649C27.1782 18.259 27.7592 17.0419 27.9983 15.738C28.0149 15.6478 28.0115 15.5551 27.9883 15.4665C27.9651 15.3778 27.9227 15.2953 27.864 15.2249C27.8054 15.1545 27.7319 15.0978 27.6489 15.0589C27.5659 15.0201 27.4754 15 27.3837 15H19.9969V7.61327C19.997 7.52161 19.9769 7.43107 19.938 7.34806C19.8992 7.26505 19.8425 7.19161 19.7721 7.13295C19.7016 7.07429 19.6192 7.03185 19.5305 7.00864C19.4418 6.98543 19.3491 6.98202 19.259 6.99865C17.9843 7.23284 16.7922 7.79377 15.7991 8.6266C14.8061 9.45942 14.0462 10.5357 13.5936 11.7501C13.141 12.9645 13.0112 14.2756 13.217 15.5552C13.4227 16.8348 13.957 18.0391 14.7675 19.0505C14.7535 19.0668 14.7405 19.0838 14.7284 19.1016ZM18.7469 8.41033V15.625C18.747 15.7908 18.8128 15.9497 18.93 16.0669C19.0472 16.1841 19.2062 16.25 19.3719 16.25H26.5866C26.2641 17.275 25.6828 18.1996 24.8988 18.9345C24.1149 19.6693 23.1547 20.1897 22.111 20.4454C21.0674 20.7011 19.9754 20.6835 18.9405 20.3942C17.9056 20.105 16.9628 19.5538 16.203 18.794C15.4431 18.0342 14.892 17.0913 14.6027 16.0565C14.3135 15.0216 14.2958 13.9296 14.5515 12.8859C14.8072 11.8423 15.3276 10.8821 16.0625 10.0981C16.7974 9.31418 17.7219 8.73288 18.7469 8.41033ZM8.75307 21.875C8.91883 21.875 9.0778 21.8092 9.19501 21.692C9.31222 21.5747 9.37807 21.4158 9.37807 21.25C9.37807 21.0843 9.31222 20.9253 9.19501 20.8081C9.0778 20.6909 8.91883 20.625 8.75307 20.625H8.74695C8.58118 20.6258 8.42254 20.6925 8.3059 20.8102C8.18926 20.928 8.1242 21.0873 8.12501 21.2531C8.12582 21.4188 8.19245 21.5775 8.31023 21.6941C8.42802 21.8108 8.58731 21.8758 8.75307 21.875Z"
                                    fill="#CC1212" />
                                <path
                                    d="M8.75781 20H10.6328C10.7986 20 10.9575 19.9342 11.0748 19.8169C11.192 19.6997 11.2578 19.5408 11.2578 19.375C11.2578 19.2092 11.192 19.0503 11.0748 18.9331C10.9575 18.8158 10.7986 18.75 10.6328 18.75H8.75781C8.59205 18.75 8.43308 18.8158 8.31587 18.9331C8.19866 19.0503 8.13281 19.2092 8.13281 19.375C8.13281 19.5408 8.19866 19.6997 8.31587 19.8169C8.43308 19.9342 8.59205 20 8.75781 20Z"
                                    fill="#CC1212" />
                            </svg>