<svg width="38" height="38" viewBox="0 0 35 25" fill="none" xmlns="http://www.w3.org/2000/svg">
<path d="M7.46941 0.390625C6.59013 0.390625 5.83013 0.93318 5.50713 1.69951L5.49658 1.73118C5.45013 1.84729 5.40897 1.96657 5.38363 2.09112C5.35453 2.23247 5.34003 2.37643 5.34036 2.52074V9.36074C3.83197 9.92645 2.53214 10.939 1.61452 12.2631C0.696895 13.5872 0.205184 15.1598 0.205078 16.7707C0.205078 21.1323 3.72747 24.6874 8.10063 24.6874C10.095 24.6864 12.0153 23.9324 13.4776 22.5763H32.7837C33.9449 22.5763 34.8949 21.6252 34.8949 20.4652V2.52074C34.8949 1.35962 33.9449 0.409625 32.7837 0.409625H30.8384C30.7771 0.403292 30.718 0.390625 30.6547 0.390625H7.46941ZM7.45147 1.46518H30.7497C31.3049 1.51374 31.7292 1.95074 31.7292 2.52074V7.75312C31.5456 7.77001 31.3788 7.79851 31.174 7.79851H25.9237C23.8865 7.79851 22.2292 9.45574 22.2292 11.493C22.2292 13.5302 23.8865 15.1874 25.9237 15.1874H31.2078C31.2601 15.1866 31.3121 15.1781 31.3619 15.1621C31.4939 15.1578 31.6036 15.1325 31.7292 15.123V20.4293C31.7292 21.0341 31.2585 21.5017 30.6547 21.5017H14.4509C15.4816 20.1398 16.0398 18.4787 16.0405 16.7707C16.0394 16.7025 16.025 16.6351 15.9983 16.5723C15.8864 12.3047 12.4031 8.85407 8.10063 8.85407C7.5148 8.85407 6.9448 8.92162 6.39591 9.04407V2.52074C6.39392 2.38157 6.41986 2.24341 6.47221 2.11445C6.52455 1.98548 6.60223 1.86833 6.70064 1.76991C6.79906 1.67149 6.91622 1.59382 7.04518 1.54147C7.17415 1.48913 7.3123 1.46319 7.45147 1.46518ZM32.4924 1.46518H32.7848C33.378 1.46518 33.8404 1.92646 33.8404 2.52074V7.0174C33.6039 7.21162 33.2556 7.40268 32.7848 7.55257V2.52074C32.7848 2.13546 32.6729 1.77762 32.4924 1.46518ZM7.45147 2.52074V3.57629H8.50702V2.52074H7.45147ZM9.56258 2.52074V3.57629H10.6181V2.52074H9.56258ZM11.6737 2.52074V3.57629H12.7292V2.52074H11.6737ZM13.7848 2.52074V3.57629H14.8404V2.52074H13.7848ZM15.8959 2.52074V3.57629H16.9515V2.52074H15.8959ZM18.007 2.52074V3.57629H19.0626V2.52074H18.007ZM20.1181 2.52074V3.57629H21.1737V2.52074H20.1181ZM22.2292 2.52074V3.57629H23.2848V2.52074H22.2292ZM24.3404 2.52074V3.57629H25.3959V2.52074H24.3404ZM26.4515 2.52074V3.57629H27.507V2.52074H26.4515ZM28.5626 2.52074V3.57629H29.6181V2.52074H28.5626ZM7.46941 4.62974L7.46625 5.68529L8.5218 5.69585L8.52497 4.64029L7.46941 4.62974ZM28.5689 5.68951V6.75246H29.6181V5.68951H28.5689ZM7.45991 6.74085L7.45358 7.7964L8.50913 7.80696L8.51547 6.7514L7.45991 6.74085ZM33.8404 8.19751V13.3275C33.3991 13.7033 32.5674 14.1213 31.2015 14.1318H25.9237C25.5765 14.1341 25.2324 14.0674 24.9112 13.9355C24.59 13.8037 24.2982 13.6094 24.0527 13.3639C23.8072 13.1184 23.6129 12.8266 23.4811 12.5055C23.3493 12.1843 23.2826 11.8401 23.2848 11.493C23.2848 10.0215 24.4522 8.85407 25.9237 8.85407H31.174C32.3372 8.85407 33.1648 8.56274 33.8404 8.19751ZM8.09958 9.90962C11.9017 9.90962 14.9839 12.9802 14.9839 16.7707C14.9839 20.5623 11.9017 23.6318 8.09958 23.6318C7.19916 23.6332 6.30736 23.4566 5.47548 23.112C4.64361 22.7674 3.88808 22.2618 3.25237 21.6241C2.61666 20.9864 2.11332 20.2294 1.77132 19.3964C1.42932 18.5635 1.2554 17.6711 1.25958 16.7707C1.25958 12.976 4.29641 9.90962 8.09958 9.90962ZM26.0113 9.90962C25.094 9.90962 24.3393 10.6665 24.3393 11.5837C24.3393 12.5 25.094 13.2547 26.0113 13.2547C26.4537 13.2525 26.8773 13.0757 27.19 12.7628C27.5027 12.4498 27.6792 12.0261 27.6812 11.5837C27.6812 10.6654 26.9286 9.90962 26.0113 9.90962ZM26.0113 10.9652C26.3575 10.9652 26.6256 11.2365 26.6256 11.5837C26.6268 11.6648 26.6117 11.7452 26.5812 11.8203C26.5507 11.8954 26.5056 11.9637 26.4483 12.021C26.391 12.0784 26.3229 12.1237 26.2478 12.1543C26.1728 12.1849 26.0923 12.2001 26.0113 12.1991C25.9302 12.2001 25.8496 12.1849 25.7745 12.1543C25.6993 12.1238 25.631 12.0785 25.5736 12.0211C25.5162 11.9638 25.4708 11.8956 25.4401 11.8205C25.4094 11.7454 25.394 11.6649 25.3949 11.5837C25.3949 11.2354 25.6651 10.9652 26.0113 10.9652ZM8.11436 12.0207C7.9763 12.0281 7.84613 12.0874 7.74985 12.1866C7.65357 12.2858 7.59828 12.4177 7.59502 12.5559V13.127C6.57641 13.3486 5.7478 14.0886 5.7478 15.1272C5.7478 16.3548 6.84769 17.2964 8.1228 17.2964C8.89336 17.2964 9.44013 17.8168 9.44013 18.4068C9.44013 18.998 8.89336 19.5205 8.1228 19.5205C7.35225 19.5205 6.80336 18.9969 6.80336 18.4068C6.79997 18.2672 6.74349 18.1342 6.64544 18.0348C6.54739 17.9353 6.41512 17.877 6.27558 17.8717C6.13604 17.877 6.00377 17.9353 5.90572 18.0348C5.80766 18.1342 5.75119 18.2672 5.7478 18.4068C5.7478 19.4603 6.55952 20.2984 7.59502 20.5158V20.9866C7.59841 21.1262 7.65488 21.2593 7.75294 21.3587C7.85099 21.4581 7.98326 21.5165 8.1228 21.5218C8.26234 21.5165 8.39461 21.4581 8.49266 21.3587C8.59072 21.2593 8.64719 21.1262 8.65058 20.9866V20.4092C9.66813 20.1876 10.4957 19.4455 10.4957 18.4068C10.4957 17.1813 9.55519 16.224 8.1228 16.2408C7.35225 16.2408 6.80336 15.7173 6.80336 15.1272C6.80336 14.5446 7.33958 14.0316 8.09325 14.0189C8.11327 14.0204 8.13335 14.0207 8.15341 14.02C8.90602 14.0347 9.44013 14.5456 9.44013 15.1272C9.44352 15.2668 9.5 15.3999 9.59805 15.4993C9.6961 15.5988 9.82837 15.6571 9.96791 15.6624C10.1075 15.6571 10.2397 15.5988 10.3378 15.4993C10.4358 15.3999 10.4923 15.2668 10.4957 15.1272C10.4957 14.0738 9.68502 13.2336 8.65058 13.0161V12.5559C8.64709 12.4149 8.58944 12.2806 8.4896 12.181C8.38976 12.0813 8.25538 12.0239 8.11436 12.0207ZM33.8382 14.5868V20.4652C33.8382 21.0584 33.377 21.5207 32.7827 21.5207H32.4702C32.6645 21.1998 32.7837 20.8293 32.7837 20.4293V14.9615C33.1827 14.8665 33.5321 14.7398 33.8382 14.5868ZM28.5605 16.7739L28.5594 17.8263H29.6255V16.7739H28.5605ZM15.8284 19.4096V20.4652H16.8839V19.4096H15.8284ZM17.9395 19.4096V20.4652H18.995V19.4096H17.9395ZM20.0506 19.4096V20.4652H21.1061V19.4096H20.0506ZM22.1617 19.4096V20.4652H23.2172V19.4096H22.1617ZM24.2728 19.4096V20.4652H25.3284V19.4096H24.2728ZM26.3839 19.4096V20.4652H27.4395V19.4096H26.3839ZM28.495 19.4096V20.4652H29.5506V19.4096H28.495Z" fill="url(#paint0_linear_3820_20759)"/>
<path d="M7.46941 0.390625C6.59013 0.390625 5.83013 0.93318 5.50713 1.69951L5.49658 1.73118C5.45013 1.84729 5.40897 1.96657 5.38363 2.09112C5.35453 2.23247 5.34003 2.37643 5.34036 2.52074V9.36074C3.83197 9.92645 2.53214 10.939 1.61452 12.2631C0.696895 13.5872 0.205184 15.1598 0.205078 16.7707C0.205078 21.1323 3.72747 24.6874 8.10063 24.6874C10.095 24.6864 12.0153 23.9324 13.4776 22.5763H32.7837C33.9449 22.5763 34.8949 21.6252 34.8949 20.4652V2.52074C34.8949 1.35962 33.9449 0.409625 32.7837 0.409625H30.8384C30.7771 0.403292 30.718 0.390625 30.6547 0.390625H7.46941ZM7.45147 1.46518H30.7497C31.3049 1.51374 31.7292 1.95074 31.7292 2.52074V7.75312C31.5456 7.77001 31.3788 7.79851 31.174 7.79851H25.9237C23.8865 7.79851 22.2292 9.45574 22.2292 11.493C22.2292 13.5302 23.8865 15.1874 25.9237 15.1874H31.2078C31.2601 15.1866 31.3121 15.1781 31.3619 15.1621C31.4939 15.1578 31.6036 15.1325 31.7292 15.123V20.4293C31.7292 21.0341 31.2585 21.5017 30.6547 21.5017H14.4509C15.4816 20.1398 16.0398 18.4787 16.0405 16.7707C16.0394 16.7025 16.025 16.6351 15.9983 16.5723C15.8864 12.3047 12.4031 8.85407 8.10063 8.85407C7.5148 8.85407 6.9448 8.92162 6.39591 9.04407V2.52074C6.39392 2.38157 6.41986 2.24341 6.47221 2.11445C6.52455 1.98548 6.60223 1.86833 6.70064 1.76991C6.79906 1.67149 6.91622 1.59382 7.04518 1.54147C7.17415 1.48913 7.3123 1.46319 7.45147 1.46518ZM32.4924 1.46518H32.7848C33.378 1.46518 33.8404 1.92646 33.8404 2.52074V7.0174C33.6039 7.21162 33.2556 7.40268 32.7848 7.55257V2.52074C32.7848 2.13546 32.6729 1.77762 32.4924 1.46518ZM7.45147 2.52074V3.57629H8.50702V2.52074H7.45147ZM9.56258 2.52074V3.57629H10.6181V2.52074H9.56258ZM11.6737 2.52074V3.57629H12.7292V2.52074H11.6737ZM13.7848 2.52074V3.57629H14.8404V2.52074H13.7848ZM15.8959 2.52074V3.57629H16.9515V2.52074H15.8959ZM18.007 2.52074V3.57629H19.0626V2.52074H18.007ZM20.1181 2.52074V3.57629H21.1737V2.52074H20.1181ZM22.2292 2.52074V3.57629H23.2848V2.52074H22.2292ZM24.3404 2.52074V3.57629H25.3959V2.52074H24.3404ZM26.4515 2.52074V3.57629H27.507V2.52074H26.4515ZM28.5626 2.52074V3.57629H29.6181V2.52074H28.5626ZM7.46941 4.62974L7.46625 5.68529L8.5218 5.69585L8.52497 4.64029L7.46941 4.62974ZM28.5689 5.68951V6.75246H29.6181V5.68951H28.5689ZM7.45991 6.74085L7.45358 7.7964L8.50913 7.80696L8.51547 6.7514L7.45991 6.74085ZM33.8404 8.19751V13.3275C33.3991 13.7033 32.5674 14.1213 31.2015 14.1318H25.9237C25.5765 14.1341 25.2324 14.0674 24.9112 13.9355C24.59 13.8037 24.2982 13.6094 24.0527 13.3639C23.8072 13.1184 23.6129 12.8266 23.4811 12.5055C23.3493 12.1843 23.2826 11.8401 23.2848 11.493C23.2848 10.0215 24.4522 8.85407 25.9237 8.85407H31.174C32.3372 8.85407 33.1648 8.56274 33.8404 8.19751ZM8.09958 9.90962C11.9017 9.90962 14.9839 12.9802 14.9839 16.7707C14.9839 20.5623 11.9017 23.6318 8.09958 23.6318C7.19916 23.6332 6.30736 23.4566 5.47548 23.112C4.64361 22.7674 3.88808 22.2618 3.25237 21.6241C2.61666 20.9864 2.11332 20.2294 1.77132 19.3964C1.42932 18.5635 1.2554 17.6711 1.25958 16.7707C1.25958 12.976 4.29641 9.90962 8.09958 9.90962ZM26.0113 9.90962C25.094 9.90962 24.3393 10.6665 24.3393 11.5837C24.3393 12.5 25.094 13.2547 26.0113 13.2547C26.4537 13.2525 26.8773 13.0757 27.19 12.7628C27.5027 12.4498 27.6792 12.0261 27.6812 11.5837C27.6812 10.6654 26.9286 9.90962 26.0113 9.90962ZM26.0113 10.9652C26.3575 10.9652 26.6256 11.2365 26.6256 11.5837C26.6268 11.6648 26.6117 11.7452 26.5812 11.8203C26.5507 11.8954 26.5056 11.9637 26.4483 12.021C26.391 12.0784 26.3229 12.1237 26.2478 12.1543C26.1728 12.1849 26.0923 12.2001 26.0113 12.1991C25.9302 12.2001 25.8496 12.1849 25.7745 12.1543C25.6993 12.1238 25.631 12.0785 25.5736 12.0211C25.5162 11.9638 25.4708 11.8956 25.4401 11.8205C25.4094 11.7454 25.394 11.6649 25.3949 11.5837C25.3949 11.2354 25.6651 10.9652 26.0113 10.9652ZM8.11436 12.0207C7.9763 12.0281 7.84613 12.0874 7.74985 12.1866C7.65357 12.2858 7.59828 12.4177 7.59502 12.5559V13.127C6.57641 13.3486 5.7478 14.0886 5.7478 15.1272C5.7478 16.3548 6.84769 17.2964 8.1228 17.2964C8.89336 17.2964 9.44013 17.8168 9.44013 18.4068C9.44013 18.998 8.89336 19.5205 8.1228 19.5205C7.35225 19.5205 6.80336 18.9969 6.80336 18.4068C6.79997 18.2672 6.74349 18.1342 6.64544 18.0348C6.54739 17.9353 6.41512 17.877 6.27558 17.8717C6.13604 17.877 6.00377 17.9353 5.90572 18.0348C5.80766 18.1342 5.75119 18.2672 5.7478 18.4068C5.7478 19.4603 6.55952 20.2984 7.59502 20.5158V20.9866C7.59841 21.1262 7.65488 21.2593 7.75294 21.3587C7.85099 21.4581 7.98326 21.5165 8.1228 21.5218C8.26234 21.5165 8.39461 21.4581 8.49266 21.3587C8.59072 21.2593 8.64719 21.1262 8.65058 20.9866V20.4092C9.66813 20.1876 10.4957 19.4455 10.4957 18.4068C10.4957 17.1813 9.55519 16.224 8.1228 16.2408C7.35225 16.2408 6.80336 15.7173 6.80336 15.1272C6.80336 14.5446 7.33958 14.0316 8.09325 14.0189C8.11327 14.0204 8.13335 14.0207 8.15341 14.02C8.90602 14.0347 9.44013 14.5456 9.44013 15.1272C9.44352 15.2668 9.5 15.3999 9.59805 15.4993C9.6961 15.5988 9.82837 15.6571 9.96791 15.6624C10.1075 15.6571 10.2397 15.5988 10.3378 15.4993C10.4358 15.3999 10.4923 15.2668 10.4957 15.1272C10.4957 14.0738 9.68502 13.2336 8.65058 13.0161V12.5559C8.64709 12.4149 8.58944 12.2806 8.4896 12.181C8.38976 12.0813 8.25538 12.0239 8.11436 12.0207ZM33.8382 14.5868V20.4652C33.8382 21.0584 33.377 21.5207 32.7827 21.5207H32.4702C32.6645 21.1998 32.7837 20.8293 32.7837 20.4293V14.9615C33.1827 14.8665 33.5321 14.7398 33.8382 14.5868ZM28.5605 16.7739L28.5594 17.8263H29.6255V16.7739H28.5605ZM15.8284 19.4096V20.4652H16.8839V19.4096H15.8284ZM17.9395 19.4096V20.4652H18.995V19.4096H17.9395ZM20.0506 19.4096V20.4652H21.1061V19.4096H20.0506ZM22.1617 19.4096V20.4652H23.2172V19.4096H22.1617ZM24.2728 19.4096V20.4652H25.3284V19.4096H24.2728ZM26.3839 19.4096V20.4652H27.4395V19.4096H26.3839ZM28.495 19.4096V20.4652H29.5506V19.4096H28.495Z" fill="black" fill-opacity="0.2"/>
<defs>
<linearGradient id="paint0_linear_3820_20759" x1="17.55" y1="0.390625" x2="17.55" y2="24.6874" gradientUnits="userSpaceOnUse">
<stop stop-color="#FF0F0F"/>
<stop offset="1" stop-color="#FF4849"/>
</linearGradient>
</defs>
</svg>