<svg width="38" height="38" viewBox="0 0 30 30" fill="none" xmlns="http://www.w3.org/2000/svg">
<path d="M29.6846 8.3535C29.6837 8.1073 29.615 7.86623 29.4855 7.65664C29.3561 7.44727 29.171 7.27763 28.9511 7.16691L15.618 0.500055C15.2405 0.309878 14.7954 0.309878 14.418 0.500055L1.08486 7.16691C0.792224 7.31691 0.565212 7.56959 0.447601 7.87674C0.329966 8.18366 0.329966 8.52337 0.447601 8.83051C0.565235 9.13766 0.792241 9.39034 1.08486 9.54034L5.36474 11.687L1.08486 13.8336C0.792224 13.9834 0.565212 14.2363 0.447601 14.5432C0.329966 14.8503 0.329966 15.1901 0.447601 15.4972C0.565235 15.8041 0.792241 16.057 1.08486 16.2068L5.36474 18.3534L1.08486 20.5001C0.792224 20.6501 0.565212 20.9027 0.447601 21.2099C0.329989 21.517 0.329966 21.8567 0.447601 22.1637C0.565235 22.4708 0.792241 22.7235 1.08486 22.8735L14.418 29.5403C14.7955 29.7305 15.2406 29.7305 15.618 29.5403L28.9511 22.8735C29.2438 22.7235 29.4708 22.4708 29.5884 22.1637C29.706 21.8567 29.706 21.517 29.5884 21.2099C29.4708 20.9027 29.2438 20.6501 28.9511 20.5001L24.6713 18.3534L28.9511 16.2068C29.2438 16.057 29.4708 15.8041 29.5884 15.4972C29.706 15.1901 29.706 14.8503 29.5884 14.5432C29.4708 14.2363 29.2438 13.9834 28.9511 13.8336L24.6713 11.687L28.9511 9.54034C29.171 9.4294 29.3561 9.25999 29.4855 9.05039C29.615 8.84101 29.6837 8.59969 29.6846 8.3535ZM25.3645 21.6872L15.0177 26.8604L4.6708 21.6872L8.35069 19.847L14.4175 22.8736V22.8738C14.795 23.064 15.2401 23.064 15.6175 22.8738L21.6844 19.847L25.3645 21.6872ZM25.3645 15.0204L15.0177 20.1938L4.6708 15.0204L8.35069 13.1804L14.4175 16.207C14.795 16.3972 15.2401 16.3972 15.6175 16.207L21.6844 13.1804L25.3645 15.0204ZM15.0177 13.527L4.6708 8.35362L15.0177 3.18041L25.3645 8.35362L15.0177 13.527Z" fill="url(#paint0_linear_4063_28228)"/>
<defs>
<linearGradient id="paint0_linear_4063_28228" x1="23.207" y1="0.357422" x2="23.0726" y2="35.9673" gradientUnits="userSpaceOnUse">
<stop stop-color="#005CAA"/>
<stop offset="1" stop-color="#64B0F1"/>
</linearGradient>
</defs>
</svg>