<svg width="38" height="38" viewBox="0 0 30 30" fill="none" xmlns="http://www.w3.org/2000/svg">
<path d="M22.3754 18.3438C20.149 18.3438 18.3379 20.1549 18.3379 22.3813C18.3379 24.6076 20.149 26.4188 22.3754 26.4188C24.6018 26.4188 26.4129 24.6076 26.4129 22.3813C26.4129 20.1549 24.6018 18.3438 22.3754 18.3438ZM22.3754 25.4688C20.673 25.4688 19.2879 24.0836 19.2879 22.3813C19.2879 20.6789 20.673 19.2938 22.3754 19.2938C24.0777 19.2938 25.4629 20.6789 25.4629 22.3813C25.4629 24.0836 24.0777 25.4688 22.3754 25.4688Z" fill="url(#paint0_linear_3819_28386)"/>
<path d="M7.65176 26.4188C9.87812 26.4188 11.6893 24.6076 11.6893 22.3813C11.6893 20.1549 9.87812 18.3438 7.65176 18.3438C5.42539 18.3438 3.61426 20.1549 3.61426 22.3813C3.61426 24.6076 5.42539 26.4188 7.65176 26.4188ZM7.65176 19.2938C9.3541 19.2938 10.7393 20.6789 10.7393 22.3813C10.7393 24.0836 9.3541 25.4688 7.65176 25.4688C5.94941 25.4688 4.56426 24.0836 4.56426 22.3813C4.56426 20.6789 5.94941 19.2938 7.65176 19.2938Z" fill="url(#paint1_linear_3819_28386)"/>
<path d="M1.08957 23.9017L2.27793 24.2955L2.49932 24.8284L1.99717 25.8853C1.92359 26.0411 1.93928 26.2239 2.03895 26.3645C2.48786 26.9958 3.03558 27.5429 3.66627 27.9919C3.80644 28.0915 3.98923 28.1072 4.14551 28.0336L5.18248 27.541C5.3659 27.6288 5.55251 27.7069 5.74211 27.7739L6.12868 28.9419C6.19336 29.1363 6.37488 29.2674 6.58014 29.2674H8.72296C8.92759 29.2674 9.10954 29.1363 9.17379 28.9415L9.56036 27.7734C9.75036 27.706 9.93697 27.6282 10.12 27.5406L11.157 28.0332C11.3132 28.1072 11.4956 28.0911 11.6362 27.9914C12.2675 27.5425 12.8146 26.9948 13.2635 26.3641C13.3632 26.2239 13.3795 26.0407 13.3053 25.8849L12.8127 24.8479C12.9005 24.6651 12.9785 24.4783 13.0455 24.2883L14.2135 23.9017C14.4078 23.8377 14.5388 23.6557 14.5388 23.4509V21.3087C14.5388 21.1041 14.4078 20.9221 14.2129 20.8579L13.0449 20.4713C12.9775 20.2817 12.9001 20.0947 12.8121 19.9117L13.3047 18.8747C13.3782 18.7188 13.3626 18.536 13.2629 18.3955C12.814 17.7642 12.2663 17.2171 11.6356 16.7681C11.495 16.6678 11.3122 16.6521 11.1563 16.7264L10.1194 17.219C9.93699 17.1316 9.74975 17.0536 9.55973 16.9861L9.17315 15.8181C9.10911 15.6232 8.9276 15.4922 8.72233 15.4922H6.57951C6.37488 15.4922 6.19293 15.6232 6.12868 15.8181L5.7349 17.0071L5.20201 17.228L4.14512 16.7259C3.98989 16.6523 3.80647 16.668 3.66588 16.7677C3.03416 17.217 2.48685 17.7643 2.03856 18.395C1.93889 18.5352 1.92256 18.7184 1.99678 18.8738L2.49829 19.9307L2.27691 20.4636L1.08854 20.8574C0.894723 20.9218 0.763672 21.1034 0.763672 21.3086V23.4508C0.763672 23.6556 0.894723 23.8376 1.0896 23.9016L1.08957 23.9017ZM1.71363 21.6516L2.78279 21.2977C2.91341 21.2545 3.01944 21.1561 3.07203 21.0288L3.45776 20.1003C3.50907 19.9762 3.50568 19.8356 3.44779 19.7146L2.9781 18.7251C3.27497 18.3455 3.61595 18.0046 3.9966 17.7066L4.98607 18.1763C5.10758 18.2342 5.24817 18.2376 5.3718 18.1858L6.30035 17.8001C6.42759 17.7473 6.52598 17.6419 6.56924 17.5109L6.92294 16.4423H8.37932L8.73323 17.5114C8.78158 17.6578 8.898 17.7712 9.0458 17.8164C9.33504 17.9048 9.61916 18.0225 9.88935 18.1665C10.0219 18.2373 10.1801 18.2411 10.3164 18.1764L11.3055 17.7068C11.6855 18.0041 12.0264 18.3453 12.324 18.7253L11.8543 19.7143C11.7896 19.8502 11.7934 20.0088 11.8642 20.1414C12.0086 20.4122 12.1263 20.6957 12.2143 20.9849C12.2595 21.1327 12.3729 21.2489 12.5193 21.2975L13.5886 21.6516V23.108L12.5195 23.4623C12.3732 23.5107 12.2597 23.6271 12.2145 23.7749C12.1261 24.0637 12.0084 24.3477 11.864 24.6184C11.7936 24.7514 11.79 24.9096 11.8541 25.0455L12.3238 26.0345C12.0269 26.4145 11.6852 26.7555 11.3052 27.0531L10.3162 26.5834C10.1794 26.5187 10.0212 26.5221 9.88914 26.5933C9.61877 26.7373 9.33483 26.855 9.04559 26.9434C8.89779 26.9886 8.78159 27.102 8.73303 27.2484L8.37932 28.3173H6.92295L6.56903 27.2481C6.52068 27.1018 6.40426 26.9884 6.25646 26.9432C5.96913 26.8554 5.68456 26.7375 5.41248 26.5927C5.27953 26.5214 5.12133 26.518 4.98541 26.5827L3.99638 27.0524C3.61638 26.7555 3.27541 26.4139 2.97787 26.0339L3.44756 25.0444C3.50545 24.9229 3.50885 24.7828 3.45711 24.6587L3.07201 23.7308C3.01921 23.6035 2.91382 23.5051 2.78277 23.4619L1.71362 23.108L1.71363 21.6516Z" fill="url(#paint2_linear_3819_28386)"/>
<path d="M28.9375 20.8574L27.7695 20.4709C27.7021 20.2813 27.6247 20.0943 27.5367 19.9112L28.0293 18.8743C28.1029 18.7184 28.0872 18.5356 27.9875 18.395C27.5386 17.7637 26.9909 17.2167 26.3602 16.7677C26.2192 16.6674 26.0362 16.6517 25.8809 16.7259L24.844 17.2185C24.6616 17.1312 24.4744 17.0531 24.2843 16.9857L23.8978 15.8177C23.8337 15.6232 23.6522 15.4922 23.4469 15.4922H21.3041C21.0995 15.4922 20.9175 15.6232 20.8533 15.8181L20.4595 17.0071L19.9266 17.228L18.8697 16.7259C18.7139 16.6523 18.5311 16.668 18.3905 16.7677C17.7588 17.217 17.2115 17.7643 16.7632 18.395C16.6635 18.5352 16.6472 18.7184 16.7214 18.8738L17.2229 19.9307L17.0015 20.4636L15.8131 20.8574C15.6193 20.9218 15.4883 21.1034 15.4883 21.3086V23.4508C15.4883 23.6554 15.6193 23.8374 15.8142 23.9016L17.0026 24.2954L17.224 24.8283L16.7218 25.8852C16.6482 26.041 16.6639 26.2238 16.7636 26.3644C17.2125 26.9957 17.7602 27.5428 18.3909 27.9917C18.5311 28.0914 18.7143 28.1071 18.8702 28.0335L19.9071 27.5409C20.0905 27.6287 20.2772 27.7067 20.4667 27.7738L20.8533 28.9418C20.918 29.1362 21.0995 29.2673 21.3048 29.2673H23.4476C23.6522 29.2673 23.8342 29.1362 23.8984 28.9413L24.285 27.7733C24.475 27.7059 24.6616 27.6281 24.8446 27.5405L25.8816 28.0331C26.0375 28.1071 26.2203 28.091 26.3608 27.9913C26.9921 27.5424 27.5392 26.9947 27.9882 26.364C28.0878 26.2238 28.1042 26.0406 28.0299 25.8848L27.5373 24.8478C27.6251 24.665 27.7032 24.4782 27.7702 24.2882L28.9382 23.9016C29.1324 23.8375 29.2635 23.6556 29.2635 23.4508V21.3086C29.2635 21.1033 29.1324 20.9218 28.9376 20.8573L28.9375 20.8574ZM28.3135 23.108L27.2443 23.4623C27.098 23.5107 26.9845 23.6271 26.9394 23.7749C26.8509 24.0637 26.7332 24.3476 26.5888 24.6184C26.5184 24.7514 26.5148 24.9096 26.5789 25.0455L27.0486 26.0345C26.7517 26.4145 26.4101 26.7555 26.0301 27.053L25.041 26.5833C24.9043 26.5187 24.7461 26.5221 24.614 26.5933C24.3436 26.7373 24.0596 26.855 23.7704 26.9434C23.6226 26.9886 23.5064 27.102 23.4578 27.2483L23.1041 28.3173H21.6478L21.2938 27.2481C21.2455 27.1018 21.1291 26.9884 20.9813 26.9432C20.6939 26.8554 20.4094 26.7375 20.1373 26.5927C20.0043 26.5214 19.8466 26.518 19.7102 26.5827L18.7212 27.0524C18.3412 26.7555 18.0002 26.4139 17.7027 26.0339L18.1724 25.0444C18.2303 24.9229 18.2337 24.7828 18.1819 24.6587L17.7962 23.7301C17.7434 23.6029 17.638 23.5045 17.507 23.4613L16.4384 23.108V21.6516L17.5075 21.2977C17.6382 21.2544 17.7442 21.156 17.7968 21.0288L18.1825 20.1002C18.2338 19.9762 18.2304 19.8356 18.1725 19.7145L17.7029 18.7251C17.9997 18.3455 18.3407 18.0045 18.7214 17.7065L19.7108 18.1762C19.8323 18.2341 19.9729 18.2375 20.0966 18.1858L21.0251 17.8001C21.1523 17.7473 21.2507 17.6419 21.294 17.5108L21.6477 16.4423H23.1041L23.458 17.5114C23.5063 17.6577 23.6228 17.7712 23.7706 17.8163C24.0598 17.9048 24.3439 18.0225 24.6141 18.1664C24.7462 18.2373 24.9048 18.2411 25.0412 18.1764L26.0302 17.7067C26.4102 18.004 26.7512 18.3452 27.0487 18.7252L26.579 19.7143C26.5143 19.8502 26.5182 20.0088 26.589 20.1413C26.7334 20.4121 26.8511 20.6956 26.9391 20.9849C26.9843 21.1327 27.0977 21.2489 27.244 21.2974L28.3134 21.6516L28.3135 23.108Z" fill="url(#paint3_linear_3819_28386)"/>
<path d="M15.0133 12.7961C17.4576 12.7961 19.4465 10.8072 19.4465 8.36288C19.4465 5.91855 17.4576 3.92969 15.0133 3.92969C12.5689 3.92969 10.5801 5.91855 10.5801 8.36288C10.5801 10.8072 12.5689 12.7961 15.0133 12.7961ZM16.4383 11.5382C16.0027 11.7343 15.5211 11.8465 15.0133 11.8465C14.5054 11.8465 14.0238 11.7349 13.5883 11.5382V9.31836C13.5883 9.0535 13.8039 8.83784 14.0686 8.83784C14.2486 8.83784 14.4134 8.73563 14.4937 8.57468C14.5741 8.4131 14.5565 8.22034 14.4477 8.07678C14.3805 7.98751 14.3008 7.84183 14.3008 7.65034C14.3008 7.42938 14.4004 7.22475 14.5747 7.08837C14.752 6.94969 14.9747 6.90452 15.2022 6.96114C15.4283 7.01712 15.6255 7.20669 15.6925 7.43274C15.7794 7.72432 15.6787 7.9438 15.5784 8.07592C15.4696 8.2199 15.4516 8.41224 15.5324 8.57382C15.6132 8.73562 15.7775 8.83783 15.958 8.83783C16.2226 8.83783 16.4383 9.05349 16.4383 9.31814L16.4383 11.5382ZM15.0133 4.87947C16.9336 4.87947 18.4965 6.4423 18.4965 8.36266C18.4965 9.36548 18.0681 10.2673 17.3883 10.9035V9.31798C17.3883 8.7698 17.0787 8.2929 16.6245 8.05263C16.6976 7.7653 16.6919 7.45886 16.6035 7.16202C16.4387 6.60771 15.9894 6.17722 15.4312 6.03918C14.9202 5.91279 14.3958 6.02264 13.9891 6.34029C13.5836 6.65795 13.3508 7.13531 13.3508 7.65015C13.3508 7.78735 13.368 7.92243 13.401 8.05348C12.9479 8.29331 12.6383 8.77021 12.6383 9.31796V10.9035C11.958 10.2675 11.5301 9.36502 11.5301 8.36264C11.5301 6.44228 13.0929 4.87947 15.0133 4.87947Z" fill="url(#paint4_linear_3819_28386)"/>
<path d="M7.739 10.0066L9.08278 10.4517L9.34679 11.0877L8.77913 12.2828C8.70554 12.4387 8.72124 12.6215 8.8209 12.762C9.31583 13.4584 9.91997 14.0626 10.6163 14.5579C10.7565 14.6576 10.9393 14.6733 11.0956 14.5997L12.2911 14.032L12.9271 14.296L13.3722 15.6398C13.436 15.8345 13.6179 15.9655 13.8228 15.9655H16.2035C16.4081 15.9655 16.5901 15.8345 16.6543 15.6396L17.0922 14.3173C17.3174 14.2384 17.5392 14.1464 17.7553 14.0414L18.9305 14.5995C19.0868 14.6735 19.2691 14.658 19.4097 14.5577C20.1061 14.0628 20.7102 13.4587 21.2056 12.7623C21.3053 12.6221 21.3216 12.4389 21.2474 12.283L20.6893 11.1074C20.7938 10.8914 20.8865 10.6695 20.9651 10.4443L22.2875 10.0064C22.4819 9.94262 22.613 9.76068 22.613 9.55583V7.17513C22.613 6.9705 22.4819 6.78856 22.2871 6.7243L20.9647 6.28641C20.8858 6.06121 20.7938 5.8394 20.6888 5.62331L21.247 4.44814C21.3205 4.29228 21.3048 4.10949 21.2052 3.9689C20.7102 3.27252 20.1061 2.66837 19.4097 2.17302C19.2691 2.07335 19.0857 2.05702 18.9305 2.13124L17.7553 2.68935C17.5392 2.58481 17.3174 2.49214 17.0922 2.41347L16.6543 1.09113C16.5901 0.896676 16.4081 0.765625 16.2033 0.765625H13.8226C13.618 0.765625 13.436 0.896676 13.3718 1.09155L12.9267 2.43534L12.2914 2.69892L11.0958 2.13126C10.9406 2.05767 10.7576 2.07379 10.617 2.17303C9.92063 2.66797 9.31649 3.2721 8.82113 3.96848C8.72147 4.10864 8.70514 4.29186 8.77935 4.44772L9.34702 5.64325L9.08301 6.27921L7.73922 6.72431C7.54413 6.78856 7.41309 6.97051 7.41309 7.17535V9.55605C7.41309 9.76068 7.54414 9.94262 7.73901 10.0067L7.739 10.0066ZM8.36306 7.51814L9.58704 7.11291C9.71767 7.06965 9.8237 6.97126 9.87628 6.84403L10.3046 5.81238C10.3564 5.68833 10.353 5.54774 10.2951 5.42665L9.75923 4.29854C10.1036 3.85386 10.5012 3.45624 10.9459 3.11191L12.0744 3.64777C12.1955 3.70524 12.3357 3.70863 12.4601 3.65774L13.4918 3.22981C13.619 3.17701 13.7174 3.07119 13.7607 2.94057L14.1657 1.71556H15.86L16.2652 2.93954C16.3136 3.08586 16.43 3.19931 16.5774 3.24447C16.9022 3.34329 17.2209 3.47582 17.5246 3.63783C17.6567 3.70866 17.8153 3.71248 17.9517 3.6478L19.0798 3.11194C19.5245 3.45632 19.9214 3.85392 20.2664 4.29857L19.7306 5.42668C19.6659 5.56261 19.6697 5.72123 19.7405 5.85376C19.9021 6.15721 20.0346 6.47593 20.1339 6.80099C20.1791 6.94816 20.2925 7.06458 20.4388 7.11313L21.663 7.51815V9.21247L20.439 9.6177C20.2927 9.66605 20.1793 9.78247 20.1341 9.92984C20.0353 10.2547 19.9028 10.5734 19.7407 10.8771C19.6699 11.0096 19.6661 11.1682 19.7308 11.3041L20.2666 12.4323C19.9223 12.8769 19.5247 13.2739 19.08 13.6189L17.9519 13.083C17.8151 13.0184 17.6565 13.0222 17.5248 13.093C17.2214 13.2546 16.9026 13.3871 16.5776 13.4864C16.4304 13.5315 16.314 13.645 16.2654 13.7913L15.8604 15.0155H14.1661L13.7609 13.7915C13.7176 13.6609 13.6192 13.5549 13.492 13.5023L12.4604 13.0739C12.3363 13.0222 12.1963 13.0256 12.0746 13.0835L10.9465 13.6193C10.5018 13.2749 10.1049 12.8773 9.75988 12.4327L10.2957 11.3046C10.3536 11.1831 10.357 11.0429 10.3053 10.9189L9.87694 9.88721C9.82413 9.75997 9.71874 9.66159 9.5877 9.61833L8.36306 9.21288V7.51814Z" fill="url(#paint5_linear_3819_28386)"/>
<path d="M7.2945 22.8546H8.007C8.20358 22.8546 8.36325 23.0143 8.36325 23.2109C8.36325 23.4075 8.20358 23.5671 8.007 23.5671H6.46323V24.5171H8.007C8.72754 24.5171 9.31323 23.9314 9.31323 23.2109C9.31323 22.4904 8.72754 21.9047 8.007 21.9047H7.2945C7.09793 21.9047 6.93825 21.745 6.93825 21.5484C6.93825 21.3519 7.09793 21.1922 7.2945 21.1922H8.83828V20.2422H7.2945C6.57397 20.2422 5.98828 20.8279 5.98828 21.5484C5.98828 22.2689 6.57397 22.8546 7.2945 22.8546Z" fill="url(#paint6_linear_3819_28386)"/>
<path d="M22.6141 20.2422H21.6641V22.6172C21.6641 22.8793 21.877 23.0922 22.1391 23.0922H24.0391V22.1422H22.6141V20.2422Z" fill="url(#paint7_linear_3819_28386)"/>
<path d="M23.5635 7.89062H24.5135V8.84063H23.5635V7.89062Z" fill="url(#paint8_linear_3819_28386)"/>
<path d="M25.4639 7.89062H26.4139V8.84063H25.4639V7.89062Z" fill="url(#paint9_linear_3819_28386)"/>
<path d="M25.4639 9.78906H26.4139V10.7391H25.4639V9.78906Z" fill="url(#paint10_linear_3819_28386)"/>
<path d="M25.4639 11.6875H26.4139V12.6375H25.4639V11.6875Z" fill="url(#paint11_linear_3819_28386)"/>
<path d="M25.4639 13.5938H26.4139V14.5438H25.4639V13.5938Z" fill="url(#paint12_linear_3819_28386)"/>
<path d="M5.51367 7.89062H6.46367V8.84063H5.51367V7.89062Z" fill="url(#paint13_linear_3819_28386)"/>
<path d="M3.61328 7.89062H4.56328V8.84063H3.61328V7.89062Z" fill="url(#paint14_linear_3819_28386)"/>
<path d="M3.61328 9.78906H4.56328V10.7391H3.61328V9.78906Z" fill="url(#paint15_linear_3819_28386)"/>
<path d="M3.61328 11.6875H4.56328V12.6375H3.61328V11.6875Z" fill="url(#paint16_linear_3819_28386)"/>
<path d="M3.61328 13.5938H4.56328V14.5438H3.61328V13.5938Z" fill="url(#paint17_linear_3819_28386)"/>
<path d="M14.5391 28.3125H15.4891V29.2625H14.5391V28.3125Z" fill="url(#paint18_linear_3819_28386)"/>
<path d="M12.6387 28.3125H13.5887V29.2625H12.6387V28.3125Z" fill="url(#paint19_linear_3819_28386)"/>
<path d="M16.4385 28.3125H17.3885V29.2625H16.4385V28.3125Z" fill="url(#paint20_linear_3819_28386)"/>
<defs>
<linearGradient id="paint0_linear_3819_28386" x1="24.6292" y1="18.3437" x2="24.5922" y2="28.1492" gradientUnits="userSpaceOnUse">
<stop stop-color="#005CAA"/>
<stop offset="1" stop-color="#64B0F1"/>
</linearGradient>
<linearGradient id="paint1_linear_3819_28386" x1="9.90557" y1="18.3437" x2="9.86857" y2="28.1492" gradientUnits="userSpaceOnUse">
<stop stop-color="#005CAA"/>
<stop offset="1" stop-color="#64B0F1"/>
</linearGradient>
<linearGradient id="paint2_linear_3819_28386" x1="11.496" y1="15.4922" x2="11.4329" y2="32.2193" gradientUnits="userSpaceOnUse">
<stop stop-color="#005CAA"/>
<stop offset="1" stop-color="#64B0F1"/>
</linearGradient>
<linearGradient id="paint3_linear_3819_28386" x1="26.2207" y1="15.4922" x2="26.1576" y2="32.2192" gradientUnits="userSpaceOnUse">
<stop stop-color="#005CAA"/>
<stop offset="1" stop-color="#64B0F1"/>
</linearGradient>
<linearGradient id="paint4_linear_3819_28386" x1="17.488" y1="3.92969" x2="17.4473" y2="14.6961" gradientUnits="userSpaceOnUse">
<stop stop-color="#005CAA"/>
<stop offset="1" stop-color="#64B0F1"/>
</linearGradient>
<linearGradient id="paint5_linear_3819_28386" x1="19.2555" y1="0.765625" x2="19.1858" y2="19.2228" gradientUnits="userSpaceOnUse">
<stop stop-color="#005CAA"/>
<stop offset="1" stop-color="#64B0F1"/>
</linearGradient>
<linearGradient id="paint6_linear_3819_28386" x1="8.57878" y1="20.2422" x2="8.55359" y2="25.4332" gradientUnits="userSpaceOnUse">
<stop stop-color="#005CAA"/>
<stop offset="1" stop-color="#64B0F1"/>
</linearGradient>
<linearGradient id="paint7_linear_3819_28386" x1="23.5144" y1="20.2422" x2="23.4988" y2="23.7029" gradientUnits="userSpaceOnUse">
<stop stop-color="#005CAA"/>
<stop offset="1" stop-color="#64B0F1"/>
</linearGradient>
<linearGradient id="paint8_linear_3819_28386" x1="24.3036" y1="7.89062" x2="24.2993" y2="9.0442" gradientUnits="userSpaceOnUse">
<stop stop-color="#005CAA"/>
<stop offset="1" stop-color="#64B0F1"/>
</linearGradient>
<linearGradient id="paint9_linear_3819_28386" x1="26.204" y1="7.89062" x2="26.1997" y2="9.0442" gradientUnits="userSpaceOnUse">
<stop stop-color="#005CAA"/>
<stop offset="1" stop-color="#64B0F1"/>
</linearGradient>
<linearGradient id="paint10_linear_3819_28386" x1="26.204" y1="9.78906" x2="26.1997" y2="10.9426" gradientUnits="userSpaceOnUse">
<stop stop-color="#005CAA"/>
<stop offset="1" stop-color="#64B0F1"/>
</linearGradient>
<linearGradient id="paint11_linear_3819_28386" x1="26.204" y1="11.6875" x2="26.1997" y2="12.8411" gradientUnits="userSpaceOnUse">
<stop stop-color="#005CAA"/>
<stop offset="1" stop-color="#64B0F1"/>
</linearGradient>
<linearGradient id="paint12_linear_3819_28386" x1="26.204" y1="13.5937" x2="26.1997" y2="14.7473" gradientUnits="userSpaceOnUse">
<stop stop-color="#005CAA"/>
<stop offset="1" stop-color="#64B0F1"/>
</linearGradient>
<linearGradient id="paint13_linear_3819_28386" x1="6.25383" y1="7.89062" x2="6.24947" y2="9.0442" gradientUnits="userSpaceOnUse">
<stop stop-color="#005CAA"/>
<stop offset="1" stop-color="#64B0F1"/>
</linearGradient>
<linearGradient id="paint14_linear_3819_28386" x1="4.35344" y1="7.89062" x2="4.34908" y2="9.0442" gradientUnits="userSpaceOnUse">
<stop stop-color="#005CAA"/>
<stop offset="1" stop-color="#64B0F1"/>
</linearGradient>
<linearGradient id="paint15_linear_3819_28386" x1="4.35344" y1="9.78906" x2="4.34908" y2="10.9426" gradientUnits="userSpaceOnUse">
<stop stop-color="#005CAA"/>
<stop offset="1" stop-color="#64B0F1"/>
</linearGradient>
<linearGradient id="paint16_linear_3819_28386" x1="4.35344" y1="11.6875" x2="4.34908" y2="12.8411" gradientUnits="userSpaceOnUse">
<stop stop-color="#005CAA"/>
<stop offset="1" stop-color="#64B0F1"/>
</linearGradient>
<linearGradient id="paint17_linear_3819_28386" x1="4.35344" y1="13.5937" x2="4.34908" y2="14.7473" gradientUnits="userSpaceOnUse">
<stop stop-color="#005CAA"/>
<stop offset="1" stop-color="#64B0F1"/>
</linearGradient>
<linearGradient id="paint18_linear_3819_28386" x1="15.2792" y1="28.3125" x2="15.2749" y2="29.4661" gradientUnits="userSpaceOnUse">
<stop stop-color="#005CAA"/>
<stop offset="1" stop-color="#64B0F1"/>
</linearGradient>
<linearGradient id="paint19_linear_3819_28386" x1="13.3788" y1="28.3125" x2="13.3745" y2="29.4661" gradientUnits="userSpaceOnUse">
<stop stop-color="#005CAA"/>
<stop offset="1" stop-color="#64B0F1"/>
</linearGradient>
<linearGradient id="paint20_linear_3819_28386" x1="17.1786" y1="28.3125" x2="17.1743" y2="29.4661" gradientUnits="userSpaceOnUse">
<stop stop-color="#005CAA"/>
<stop offset="1" stop-color="#64B0F1"/>
</linearGradient>
</defs>
</svg>