<svg width="38" height="38" viewBox="0 0 28 25" fill="none" xmlns="http://www.w3.org/2000/svg">
<path fill-rule="evenodd" clip-rule="evenodd" d="M4 0.015625C3.17743 0.015625 2.5 0.693054 2.5 1.51562V21.5156C2.5 21.7917 2.72389 22.0156 3 22.0156C3.27611 22.0156 3.5 21.7917 3.5 21.5156V1.51562C3.5 1.23348 3.71786 1.01562 4 1.01562H26.5C26.7821 1.01562 27 1.23348 27 1.51562V3.01562H6C5.72389 3.01562 5.5 3.23951 5.5 3.51562C5.5 3.79174 5.72389 4.01562 6 4.01562H27V22.5156C27 22.7978 26.7821 23.0156 26.5 23.0156H2C1.72389 23.0156 1.5 23.2395 1.5 23.5156C1.5 23.7917 1.72389 24.0156 2 24.0156H26.5C27.3226 24.0156 28 23.3382 28 22.5156V1.51562C28 0.693054 27.3226 0.015625 26.5 0.015625H4Z" fill="#CC1212"/>
<path fill-rule="evenodd" clip-rule="evenodd" d="M25.5 1.51562C25.2239 1.51562 25 1.73951 25 2.01562C25 2.29174 25.2239 2.51562 25.5 2.51562C25.7761 2.51562 26 2.29174 26 2.01562C26 1.73951 25.7761 1.51562 25.5 1.51562Z" fill="#CC1212"/>
<path fill-rule="evenodd" clip-rule="evenodd" d="M23.5 1.51562C23.2239 1.51562 23 1.73951 23 2.01562C23 2.29174 23.2239 2.51562 23.5 2.51562C23.7761 2.51562 24 2.29174 24 2.01562C24 1.73951 23.7761 1.51562 23.5 1.51562Z" fill="#CC1212"/>
<path fill-rule="evenodd" clip-rule="evenodd" d="M21.5 1.51562C21.2239 1.51562 21 1.73951 21 2.01562C21 2.29174 21.2239 2.51562 21.5 2.51562C21.7761 2.51562 22 2.29174 22 2.01562C22 1.73951 21.7761 1.51562 21.5 1.51562Z" fill="#CC1212"/>
<path fill-rule="evenodd" clip-rule="evenodd" d="M0.5 23.0156C0.223886 23.0156 0 23.2395 0 23.5156C0 23.6482 0.0526789 23.7754 0.146429 23.8692C0.240177 23.9629 0.367411 24.0156 0.5 24.0156C0.632589 24.0156 0.759823 23.9629 0.853571 23.8692C0.94732 23.7754 1 23.6482 1 23.5156C1 23.383 0.947321 23.2558 0.853571 23.1621C0.759823 23.0683 0.632589 23.0156 0.5 23.0156Z" fill="#CC1212"/>
<path fill-rule="evenodd" clip-rule="evenodd" d="M4.5 3.01562C4.22389 3.01562 4 3.23951 4 3.51562C4 3.79174 4.22389 4.01562 4.5 4.01562C4.77611 4.01562 5 3.79174 5 3.51562C5 3.23951 4.77611 3.01562 4.5 3.01562Z" fill="#CC1212"/>
<path fill-rule="evenodd" clip-rule="evenodd" d="M13.5 5.55078C13.2239 5.55078 13 5.77467 13 6.05078V20.4822C13 20.6148 13.0527 20.742 13.1464 20.8358C13.2402 20.9295 13.3674 20.9822 13.5 20.9822C13.6326 20.9822 13.7598 20.9295 13.8536 20.8358C13.9473 20.742 14 20.6148 14 20.4822V6.05078C14 5.91819 13.9473 5.79096 13.8536 5.69721C13.7598 5.60346 13.6326 5.55078 13.5 5.55078Z" fill="#CC1212"/>
<path fill-rule="evenodd" clip-rule="evenodd" d="M9 15.0156C8.72389 15.0156 8.5 15.2395 8.5 15.5156C8.5 15.6482 8.55268 15.7754 8.64643 15.8692C8.74018 15.9629 8.86741 16.0156 9 16.0156H11.5C11.6326 16.0156 11.7598 15.9629 11.8536 15.8692C11.9473 15.7754 12 15.6482 12 15.5156C12 15.383 11.9473 15.2558 11.8536 15.1621C11.7598 15.0683 11.6326 15.0156 11.5 15.0156H9Z" fill="#CC1212"/>
<path fill-rule="evenodd" clip-rule="evenodd" d="M5.5 15.0156C5.22389 15.0156 5 15.2395 5 15.5156C5 15.6482 5.05268 15.7754 5.14643 15.8692C5.24018 15.9629 5.36741 16.0156 5.5 16.0156H7C7.13259 16.0156 7.25982 15.9629 7.35357 15.8692C7.44732 15.7754 7.5 15.6482 7.5 15.5156C7.5 15.383 7.44732 15.2558 7.35357 15.1621C7.25982 15.0683 7.13259 15.0156 7 15.0156H5.5Z" fill="#CC1212"/>
<path fill-rule="evenodd" clip-rule="evenodd" d="M5.5 18.0156C5.22389 18.0156 5 18.2395 5 18.5156C5 18.6482 5.05268 18.7754 5.14643 18.8692C5.24018 18.9629 5.36741 19.0156 5.5 19.0156H11.5C11.6326 19.0156 11.7598 18.9629 11.8536 18.8692C11.9473 18.7754 12 18.6482 12 18.5156C12 18.383 11.9473 18.2558 11.8536 18.1621C11.7598 18.0683 11.6326 18.0156 11.5 18.0156H5.5Z" fill="#CC1212"/>
<path fill-rule="evenodd" clip-rule="evenodd" d="M20 6.51562C19.7239 6.51562 19.5 6.73951 19.5 7.01562C19.5 7.14821 19.5527 7.27545 19.6464 7.3692C19.7402 7.46294 19.8674 7.51562 20 7.51562H24.5C24.6326 7.51562 24.7598 7.46295 24.8536 7.3692C24.9473 7.27545 25 7.14821 25 7.01562C25 6.88304 24.9473 6.7558 24.8536 6.66205C24.7598 6.56831 24.6326 6.51562 24.5 6.51562H20Z" fill="#CC1212"/>
<path fill-rule="evenodd" clip-rule="evenodd" d="M16 6.51562C15.7239 6.51562 15.5 6.73951 15.5 7.01562C15.5 7.29174 15.7239 7.51562 16 7.51562C16.2761 7.51562 16.5 7.29174 16.5 7.01562C16.5 6.73951 16.2761 6.51562 16 6.51562Z" fill="#CC1212"/>
<path fill-rule="evenodd" clip-rule="evenodd" d="M20 14.5156C19.7239 14.5156 19.5 14.7395 19.5 15.0156C19.5 15.1482 19.5527 15.2754 19.6464 15.3692C19.7402 15.4629 19.8674 15.5156 20 15.5156H24.5C24.6326 15.5156 24.7598 15.4629 24.8536 15.3692C24.9473 15.2754 25 15.1482 25 15.0156C25 14.883 24.9473 14.7558 24.8536 14.6621C24.7598 14.5683 24.6326 14.5156 24.5 14.5156H20Z" fill="#CC1212"/>
<path fill-rule="evenodd" clip-rule="evenodd" d="M16 14.5156C15.7239 14.5156 15.5 14.7395 15.5 15.0156C15.5 15.2917 15.7239 15.5156 16 15.5156C16.2761 15.5156 16.5 15.2917 16.5 15.0156C16.5 14.7395 16.2761 14.5156 16 14.5156Z" fill="#CC1212"/>
<path fill-rule="evenodd" clip-rule="evenodd" d="M16 10.5156C15.7239 10.5156 15.5 10.7395 15.5 11.0156C15.5 11.1482 15.5527 11.2754 15.6464 11.3692C15.7402 11.4629 15.8674 11.5156 16 11.5156H24.5C24.6326 11.5156 24.7598 11.4629 24.8536 11.3692C24.9473 11.2754 25 11.1482 25 11.0156C25 10.883 24.9473 10.7558 24.8536 10.6621C24.7598 10.5683 24.6326 10.5156 24.5 10.5156H16Z" fill="#CC1212"/>
<path fill-rule="evenodd" clip-rule="evenodd" d="M16 19.0156C15.7239 19.0156 15.5 19.2395 15.5 19.5156C15.5 19.6482 15.5527 19.7754 15.6464 19.8692C15.7402 19.9629 15.8674 20.0156 16 20.0156H24.5C24.6326 20.0156 24.7598 19.9629 24.8536 19.8692C24.9473 19.7754 25 19.6482 25 19.5156C25 19.383 24.9473 19.2558 24.8536 19.1621C24.7598 19.0683 24.6326 19.0156 24.5 19.0156H16Z" fill="#CC1212"/>
<path fill-rule="evenodd" clip-rule="evenodd" d="M8.5 6.01562C7.40131 6.01562 6.5 6.91694 6.5 8.01563C6.5 8.56407 6.72433 9.06317 7.08594 9.42568C6.1288 10.023 5.5 11.2049 5.5 12.5156C5.5 12.7917 5.72389 13.0156 6 13.0156H8C8.27611 13.0156 8.5 12.7917 8.5 12.5156C8.5 12.2395 8.27611 12.0156 8 12.0156H6.58194C6.77793 10.8536 7.57634 10.0156 8.5 10.0156C9.42366 10.0156 10.2221 10.8536 10.4181 12.0156H9.99998C9.72386 12.0156 9.49998 12.2395 9.49998 12.5156C9.49998 12.7917 9.72386 13.0156 9.99998 13.0156H11C11.2761 13.0156 11.5 12.7917 11.5 12.5156C11.5 11.2049 10.8712 10.023 9.91404 9.42568C10.2756 9.06318 10.5 8.56385 10.5 8.01563C10.5 6.91694 9.59869 6.01562 8.5 6.01562ZM8.5 7.01563C9.05826 7.01563 9.5 7.45737 9.5 8.01563C9.5 8.57388 9.05826 9.01563 8.5 9.01563C7.94174 9.01563 7.5 8.57388 7.5 8.01563C7.5 7.45737 7.94174 7.01563 8.5 7.01563Z" fill="#CC1212"/>
</svg>