<svg width="38" height="38" viewBox="0 0 18 26" fill="none" xmlns="http://www.w3.org/2000/svg">
<path d="M5.01939 7.57076H1.99864C1.00019 7.57076 0.1875 6.75802 0.1875 5.75962V2.73888C0.1875 1.74042 1.00024 0.927734 1.99864 0.927734H5.01939C6.01784 0.927734 6.83053 1.74048 6.83053 2.73888V5.75962C6.83365 6.75785 6.02093 7.57076 5.01939 7.57076ZM1.99864 1.87791C1.52498 1.87791 1.13796 2.26518 1.13796 2.73859V5.75934C1.13796 6.233 1.52523 6.62002 1.99864 6.62002H5.01939C5.49305 6.62002 5.88007 6.23275 5.88007 5.75934V2.73859C5.88007 2.26493 5.4928 1.87791 5.01939 1.87791H1.99864Z" fill="#CC1212"/>
<path d="M5.01939 16.3227H1.99864C1.00019 16.3227 0.1875 15.51 0.1875 14.5116V11.4908C0.1875 10.4924 1.00024 9.67969 1.99864 9.67969H5.01939C6.01784 9.67969 6.83053 10.4924 6.83053 11.4908V14.5116C6.83365 15.5098 6.02093 16.3227 5.01939 16.3227ZM1.99864 10.6299C1.52498 10.6299 1.13796 11.0171 1.13796 11.4905V14.5113C1.13796 14.985 1.52523 15.372 1.99864 15.372H5.01939C5.49305 15.372 5.88007 14.9847 5.88007 14.5113V11.4905C5.88007 11.0169 5.4928 10.6299 5.01939 10.6299H1.99864Z" fill="#CC1212"/>
<path d="M5.01939 25.0747H1.99864C1.00019 25.0747 0.1875 24.2619 0.1875 23.2635V20.2428C0.1875 19.2443 1.00024 18.4316 1.99864 18.4316H5.01939C6.01784 18.4316 6.83053 19.2444 6.83053 20.2428V23.2635C6.83365 24.2618 6.02093 25.0747 5.01939 25.0747ZM1.99864 19.3818C1.52498 19.3818 1.13796 19.7691 1.13796 20.2425V23.2632C1.13796 23.7369 1.52523 24.1239 1.99864 24.1239H5.01939C5.49305 24.1239 5.88007 23.7367 5.88007 23.2632V20.2425C5.88007 19.7688 5.4928 19.3818 5.01939 19.3818H1.99864Z" fill="#CC1212"/>
<path d="M15.1595 15.6663C14.7691 16.7288 14.6954 16.783 13.9691 16.796C13.2267 16.8087 12.9898 16.3511 12.9387 15.6024C12.2827 16.2265 11.7323 16.1817 11.2043 15.5609C10.7499 15.0297 10.9932 14.585 11.3963 14.0792C10.5994 14.0377 10.1835 13.7241 10.2123 12.9272C10.238 12.1848 10.6891 11.9671 11.3195 11.9191C10.8554 10.8374 10.8684 10.7383 11.4411 10.2039C11.9498 9.72716 12.4074 9.94792 12.846 10.2968C13.0027 9.98006 13.0829 9.58966 13.3197 9.41355C13.563 9.23431 13.963 9.21199 14.2925 9.21511C14.75 9.22158 14.8717 9.41667 15.1469 10.3256C15.7806 9.76557 16.3534 9.82316 16.8813 10.4792C17.294 10.9975 17.0284 11.42 16.6701 11.8999C17.4829 11.9671 17.9404 12.3319 17.819 13.1383C17.7806 13.3879 17.6654 13.6758 17.4893 13.8359C17.307 14.0022 17.0029 14.031 16.6958 14.143C17.1214 14.6359 17.2813 15.1189 16.7502 15.6694C16.1929 16.2263 15.6873 16.1142 15.1594 15.6662L15.1595 15.6663ZM15.9691 15.2631C16.2795 15.1096 16.3338 14.9495 16.1291 14.6551C15.6811 14.0087 15.9211 13.4551 16.6923 13.2854C16.8715 13.247 17.057 13.2535 17.0508 12.9718C17.0443 12.7127 16.8749 12.7223 16.7083 12.687C15.934 12.5269 15.678 11.9734 16.1229 11.3303C16.3405 11.0136 16.2796 10.8535 15.9566 10.7192C15.7999 10.8151 15.6461 10.9272 15.4829 11.004C15.0702 11.2024 14.6349 11.0647 14.443 10.6712C14.3693 10.5176 14.3662 10.3319 14.2863 10.1817C14.2383 10.0857 14.1104 9.97675 14.0175 9.97675C13.928 9.97675 13.8287 10.1015 13.7519 10.1879C13.7166 10.2263 13.7262 10.3062 13.7135 10.3671C13.5407 11.0681 13.0064 11.2888 12.3952 10.9142C12.2832 10.8439 12.1711 10.7734 12.072 10.7127C11.7584 10.8886 11.72 11.052 11.928 11.3368C12.3568 11.9319 12.1104 12.5145 11.4032 12.6808C11.2305 12.7223 10.9936 12.6647 10.9872 12.9817C10.9807 13.3241 11.2367 13.2569 11.4191 13.3018C12.0943 13.4745 12.3182 14.0089 11.9631 14.6009C11.9182 14.6745 11.8352 14.7417 11.8256 14.8154C11.816 14.9178 11.832 15.0553 11.8928 15.1163C11.9568 15.177 12.0977 15.1995 12.1937 15.1803C12.2961 15.158 12.3791 15.062 12.4754 15.0107C13.0001 14.7227 13.4899 14.9212 13.6722 15.4906C13.7075 15.5962 13.6979 15.7274 13.7555 15.8073C13.8195 15.8968 13.941 15.9866 14.0434 15.9897C14.1233 15.9928 14.2227 15.8777 14.2867 15.7977C14.3282 15.7466 14.3186 15.6569 14.3378 15.5832C14.5075 14.908 15.0387 14.6904 15.6369 15.0457C15.7514 15.1223 15.8635 15.1957 15.9691 15.2631Z" fill="#CC1212"/>
<path d="M15.5238 12.9732C15.5334 13.7989 14.8613 14.4868 14.0358 14.4964C13.207 14.506 12.5253 13.8373 12.5157 13.0085C12.5061 12.1797 13.1749 11.4949 14.0037 11.4884C14.8325 11.4788 15.5142 12.1475 15.5238 12.9732V12.9732ZM14.7365 12.9732C14.7269 12.5893 14.4037 12.2627 14.0294 12.2627C13.6198 12.2659 13.2709 12.6212 13.2901 13.0212C13.3093 13.4051 13.6356 13.7091 14.0229 13.706C14.4325 13.7029 14.7461 13.3796 14.7365 12.9732L14.7365 12.9732Z" fill="#CC1212"/>
<path d="M14.022 8.67086C13.7595 8.67086 13.5452 8.45636 13.5452 8.19408C13.5452 6.73156 13.1517 5.69499 12.3805 5.11573C11.0749 4.13339 9.04919 4.69966 9.02999 4.70613C8.77709 4.7798 8.51482 4.63247 8.44114 4.3798C8.36747 4.12689 8.51145 3.86462 8.76435 3.79094C8.86681 3.76214 11.2603 3.0838 12.9498 4.35098C13.9771 5.12218 14.4987 6.41504 14.5018 8.1943C14.4987 8.45657 14.2845 8.67086 14.022 8.67086Z" fill="#CC1212"/>
<path d="M14.4964 17.8038C14.4964 19.5831 13.9909 20.879 13.002 21.6502C12.2212 22.2551 11.2868 22.415 10.5125 22.415C10.0614 22.415 9.66455 22.3574 9.38283 22.3063L10.4388 23.3304C10.6308 23.5128 10.6339 23.8168 10.4484 24.0025C10.3589 24.1016 10.2339 24.1496 10.1091 24.1496C9.99084 24.1496 9.86584 24.1016 9.77634 24.0152L7.79554 22.092C7.69955 22.0025 7.64844 21.8775 7.64844 21.7496C7.64844 21.6217 7.69955 21.4967 7.79554 21.4072L9.77634 19.4905C9.9683 19.305 10.2658 19.3081 10.4484 19.5001C10.6339 19.692 10.6308 19.9896 10.4389 20.1722L9.26765 21.3115C9.57167 21.3883 11.3061 21.7818 12.4516 20.8892C13.2005 20.3099 13.5748 19.27 13.5748 17.8108C13.5748 17.5483 13.7828 17.334 14.0355 17.334C14.2915 17.3305 14.4964 17.5447 14.4964 17.8039L14.4964 17.8038Z" fill="#CC1212"/>
</svg>