<svg width="60" height="60" viewBox="0 0 40 12"
                                fill="none" xmlns="http://www.w3.org/2000/svg">
                                <path
                                    d="M36.5835 3.87263L33.1036 7.36126L31.5023 5.75994L31.5025 5.76016C31.3518 5.6095 31.1074 5.6095 30.9568 5.76016C30.8061 5.91083 30.8061 6.15503 30.9568 6.3057L32.8309 8.17982C32.9025 8.2537 33.001 8.29522 33.1036 8.29522C33.2065 8.29522 33.305 8.2537 33.3766 8.17982L37.1293 4.43159C37.2757 4.27935 37.2757 4.03828 37.1293 3.88605C37.0588 3.8115 36.9617 3.76819 36.8592 3.76574C36.7568 3.76328 36.6574 3.80167 36.5835 3.87266L36.5835 3.87263Z"
                                    fill="url(#paint0_linear_5451_30089)" />
                                <path
                                    d="M34.2611 0.27152C32.8109 0.273305 31.4147 0.823302 30.3529 1.81123C29.291 2.79918 28.6421 4.15209 28.5361 5.59849H22.3858V5.0976C22.3843 4.61322 22.2086 4.14583 21.8907 3.78017C21.5731 3.41477 21.1343 3.17594 20.655 3.1072V2.81189V2.81211C20.655 2.01302 20.2287 1.27485 19.5367 0.875252C18.8448 0.475697 17.9923 0.475697 17.3003 0.875252C16.6084 1.27481 16.1823 2.01297 16.1823 2.81211V3.10742V3.1072C15.7024 3.17506 15.2631 3.41367 14.9453 3.77931C14.6272 4.14494 14.4519 4.61303 14.4513 5.0976V5.59849H7.93014V5.0976C7.92969 4.61367 7.75491 4.14629 7.43795 3.78063C7.12076 3.41501 6.68258 3.17594 6.20378 3.1072V2.81189V2.81211C6.20378 2.01302 5.77744 1.27485 5.08549 0.875252C4.39355 0.475697 3.54109 0.475697 2.84909 0.875252C2.15715 1.27481 1.73103 2.01297 1.73103 2.81211V3.10742V3.1072C1.25157 3.17595 0.812977 3.41479 0.495091 3.78017C0.177234 4.14579 0.00156571 4.6132 0 5.0976V7.67394C0.00111606 8.21055 0.215177 8.72463 0.595086 9.10366C0.974771 9.48267 1.48949 9.6956 2.02611 9.6956H5.89954C6.43727 9.69806 6.95377 9.486 7.3348 9.10651C7.71605 8.72727 7.93011 8.21166 7.93011 7.67394V6.36794H14.4741V7.67394C14.4752 8.20966 14.6886 8.72326 15.0677 9.10206C15.4465 9.48107 15.9601 9.69446 16.4958 9.6956H20.3647C20.9007 9.69448 21.4141 9.48109 21.7931 9.10206C22.1719 8.72326 22.3853 8.20966 22.3864 7.67394V6.36794H28.5321C28.6247 7.86794 29.3015 9.27194 30.4174 10.2787C31.5332 11.2854 32.9993 11.8146 34.5009 11.7528C36.0024 11.6907 37.4201 11.0427 38.4493 9.94766C39.4786 8.85257 40.0375 7.39766 40.0062 5.89497C39.975 4.39251 39.3558 2.96194 38.2819 1.91057C37.208 0.859257 35.7647 0.270856 34.2618 0.271485L34.2611 0.27152ZM4.352 7.04809V7.62958V7.62935C4.352 7.84186 4.17968 8.01418 3.9674 8.01418C3.7549 8.01418 3.58258 7.84186 3.58258 7.62935V7.0481C3.22767 6.92555 2.95201 6.64162 2.84018 6.28312C2.72835 5.92464 2.79352 5.53444 3.01607 5.23198C3.23861 4.9293 3.59173 4.75073 3.96738 4.75073C4.34283 4.75073 4.69595 4.9293 4.91853 5.23198C5.14107 5.53444 5.20647 5.92461 5.09464 6.28312C4.98281 6.6416 4.70713 6.92552 4.352 7.04809ZM5.42097 3.0762H2.5136V2.81237C2.5136 2.29295 2.79083 1.81305 3.24063 1.55345C3.69018 1.29363 4.2444 1.29363 4.69423 1.55345C5.14401 1.81305 5.42103 2.29294 5.42103 2.81237L5.42097 3.0762ZM18.8393 7.04809V7.62958V7.62935C18.8181 7.82712 18.6511 7.9769 18.4524 7.9769C18.2535 7.9769 18.0868 7.82712 18.0656 7.62935V7.0481C17.7109 6.92511 17.4359 6.64095 17.3247 6.2825C17.2134 5.92424 17.279 5.53427 17.5018 5.23204C17.7243 4.93003 18.0772 4.75146 18.4524 4.75146C18.8277 4.75146 19.1806 4.93003 19.4031 5.23204C19.6257 5.53427 19.6913 5.92421 19.5801 6.2825C19.4688 6.64098 19.1937 6.92512 18.8393 7.04809ZM19.9082 3.0762H16.9741V2.81237C17.002 2.31125 17.2852 1.85968 17.7243 1.61705C18.1636 1.37419 18.6966 1.37419 19.1357 1.61705C19.5747 1.85969 19.8582 2.31122 19.8859 2.81237L19.9082 3.0762ZM34.2837 10.9928C32.9635 10.9975 31.6957 10.4774 30.7595 9.54655C29.8231 8.61598 29.2953 7.35123 29.2921 6.03095C29.289 4.71083 29.8106 3.44369 30.7426 2.50838C31.6743 1.57335 32.9397 1.04701 34.2598 1.04541C35.5801 1.04384 36.8466 1.56706 37.7807 2.49986C38.7147 3.43289 39.2394 4.69895 39.2394 6.01906C39.2383 7.33849 38.7133 8.60364 37.7798 9.53626C36.8463 10.4688 35.581 10.9927 34.2613 10.9927L34.2837 10.9928Z"
                                    fill="url(#paint1_linear_5451_30089)" />
                                <path
                                    d="M3.96176 5.53125C3.79703 5.53125 3.64859 5.63036 3.58565 5.78236C3.5227 5.9346 3.55753 6.1096 3.67382 6.22589C3.79034 6.34241 3.96534 6.37723 4.11735 6.31428C4.26958 6.25134 4.36868 6.1029 4.36868 5.93817C4.36868 5.71339 4.18654 5.53125 3.96176 5.53125Z"
                                    fill="url(#paint2_linear_5451_30089)" />
                                <path
                                    d="M18.4262 5.53128C18.2619 5.53307 18.1148 5.63329 18.0532 5.78552C17.9916 5.93775 18.0275 6.11208 18.1442 6.22749C18.261 6.34311 18.4358 6.37704 18.5873 6.31387C18.7389 6.25047 18.8375 6.10249 18.8375 5.9382C18.8375 5.8295 18.794 5.72525 18.7168 5.64891C18.6396 5.57235 18.5349 5.52994 18.4262 5.53128Z"
                                    fill="url(#paint3_linear_5451_30089)" />
                                <defs>
                                    <linearGradient id="paint0_linear_5451_30089" x1="35.8265" y1="3.76562" x2="35.8117"
                                        y2="9.26592" gradientUnits="userSpaceOnUse">
                                        <stop stop-color="#005CAA" />
                                        <stop offset="1" stop-color="#64B0F1" />
                                    </linearGradient>
                                    <linearGradient id="paint1_linear_5451_30089" x1="31.1702" y1="0.271484"
                                        x2="31.1551" y2="14.2193" gradientUnits="userSpaceOnUse">
                                        <stop stop-color="#005CAA" />
                                        <stop offset="1" stop-color="#64B0F1" />
                                    </linearGradient>
                                    <linearGradient id="paint2_linear_5451_30089" x1="4.18888" y1="5.53125" x2="4.18515"
                                        y2="6.51967" gradientUnits="userSpaceOnUse">
                                        <stop stop-color="#005CAA" />
                                        <stop offset="1" stop-color="#64B0F1" />
                                    </linearGradient>
                                    <linearGradient id="paint3_linear_5451_30089" x1="18.6577" y1="5.53125" x2="18.654"
                                        y2="6.51968" gradientUnits="userSpaceOnUse">
                                        <stop stop-color="#005CAA" />
                                        <stop offset="1" stop-color="#64B0F1" />
                                    </linearGradient>
                                </defs>
                            </svg>