<svg width="38" height="38" viewBox="0 0 36 36" fill="none" xmlns="http://www.w3.org/2000/svg">
<path d="M35.3812 34.1766V34.1538C35.3637 34.1102 35.3364 34.0712 35.3014 34.0398L34.1956 32.934C34.1229 32.8717 34.0294 32.8392 33.9338 32.8429C33.8381 32.8466 33.7474 32.8862 33.6797 32.9539C33.6121 33.0216 33.5724 33.1123 33.5687 33.2079C33.565 33.3036 33.5975 33.3971 33.6598 33.4698L34.1196 33.9296H2.4656V1.50037L2.9254 1.96017C2.9966 2.03094 3.09291 2.07067 3.1933 2.07067C3.29369 2.07067 3.39001 2.03094 3.4612 1.96017C3.53198 1.88897 3.57171 1.79266 3.57171 1.69227C3.57171 1.59188 3.53198 1.49556 3.4612 1.42437L2.3516 0.314766C2.30219 0.266161 2.24043 0.231995 2.173 0.215966H2.1274C2.06663 0.211463 2.00562 0.22055 1.9488 0.242566C1.90137 0.260874 1.85855 0.289418 1.8234 0.326166L0.706204 1.42437C0.635429 1.49556 0.595703 1.59188 0.595703 1.69227C0.595703 1.79266 0.635429 1.88897 0.706204 1.96017C0.74153 1.99578 0.783559 2.02405 0.829865 2.04334C0.876172 2.06264 0.92584 2.07257 0.976004 2.07257C1.02617 2.07257 1.07584 2.06264 1.12214 2.04334C1.16845 2.02405 1.21048 1.99578 1.2458 1.96017L1.7056 1.50037V34.3058C1.7056 34.4066 1.74564 34.5032 1.8169 34.5745C1.88817 34.6457 1.98482 34.6858 2.0856 34.6858H34.1082L33.6484 35.1494C33.5768 35.2195 33.5358 35.3151 33.5344 35.4154C33.5346 35.4656 33.5448 35.5154 33.5644 35.5617C33.5839 35.608 33.6125 35.65 33.6484 35.6852C33.7192 35.7554 33.8147 35.7949 33.9144 35.7954C33.9644 35.7957 34.014 35.7861 34.0603 35.7672C34.1066 35.7482 34.1487 35.7204 34.1842 35.6852L35.2938 34.5756C35.3404 34.5268 35.3732 34.4664 35.3888 34.4008C35.3888 34.4008 35.3888 34.4008 35.3888 34.378C35.4044 34.3114 35.4018 34.2418 35.3812 34.1766Z" fill="url(#paint0_linear_3820_20624)"/>
<path d="M35.3812 34.1766V34.1538C35.3637 34.1102 35.3364 34.0712 35.3014 34.0398L34.1956 32.934C34.1229 32.8717 34.0294 32.8392 33.9338 32.8429C33.8381 32.8466 33.7474 32.8862 33.6797 32.9539C33.6121 33.0216 33.5724 33.1123 33.5687 33.2079C33.565 33.3036 33.5975 33.3971 33.6598 33.4698L34.1196 33.9296H2.4656V1.50037L2.9254 1.96017C2.9966 2.03094 3.09291 2.07067 3.1933 2.07067C3.29369 2.07067 3.39001 2.03094 3.4612 1.96017C3.53198 1.88897 3.57171 1.79266 3.57171 1.69227C3.57171 1.59188 3.53198 1.49556 3.4612 1.42437L2.3516 0.314766C2.30219 0.266161 2.24043 0.231995 2.173 0.215966H2.1274C2.06663 0.211463 2.00562 0.22055 1.9488 0.242566C1.90137 0.260874 1.85855 0.289418 1.8234 0.326166L0.706204 1.42437C0.635429 1.49556 0.595703 1.59188 0.595703 1.69227C0.595703 1.79266 0.635429 1.88897 0.706204 1.96017C0.74153 1.99578 0.783559 2.02405 0.829865 2.04334C0.876172 2.06264 0.92584 2.07257 0.976004 2.07257C1.02617 2.07257 1.07584 2.06264 1.12214 2.04334C1.16845 2.02405 1.21048 1.99578 1.2458 1.96017L1.7056 1.50037V34.3058C1.7056 34.4066 1.74564 34.5032 1.8169 34.5745C1.88817 34.6457 1.98482 34.6858 2.0856 34.6858H34.1082L33.6484 35.1494C33.5768 35.2195 33.5358 35.3151 33.5344 35.4154C33.5346 35.4656 33.5448 35.5154 33.5644 35.5617C33.5839 35.608 33.6125 35.65 33.6484 35.6852C33.7192 35.7554 33.8147 35.7949 33.9144 35.7954C33.9644 35.7957 34.014 35.7861 34.0603 35.7672C34.1066 35.7482 34.1487 35.7204 34.1842 35.6852L35.2938 34.5756C35.3404 34.5268 35.3732 34.4664 35.3888 34.4008C35.3888 34.4008 35.3888 34.4008 35.3888 34.378C35.4044 34.3114 35.4018 34.2418 35.3812 34.1766Z" fill="black" fill-opacity="0.2"/>
<path d="M30.122 15.8878H27.3783C27.2776 15.8878 27.1809 15.9279 27.1096 15.9991C27.0384 16.0704 26.9983 16.167 26.9983 16.2678V17.7878L24.6195 13.0606V10.0206C24.6195 9.91984 24.5795 9.82319 24.5082 9.75192C24.437 9.68066 24.3403 9.64062 24.2395 9.64062H21.496C21.3952 9.64062 21.2985 9.68066 21.2272 9.75192C21.156 9.82319 21.116 9.91984 21.116 10.0206V13.0606L18.7372 21.4206V20.976C18.7372 20.8752 18.6971 20.7786 18.6259 20.7073C18.5546 20.6361 18.4579 20.596 18.3572 20.596H15.6136C15.5128 20.596 15.4161 20.6361 15.3448 20.7073C15.2736 20.7786 15.2336 20.8752 15.2336 20.976V23.4992L12.8547 22.3098V18.6238C12.8547 18.523 12.8147 18.4264 12.7435 18.3551C12.6722 18.2839 12.5755 18.2438 12.4747 18.2438H9.73115C9.63037 18.2438 9.53371 18.2839 9.46245 18.3551C9.39119 18.4264 9.35115 18.523 9.35115 18.6238V21.1432L6.97995 19.9538V17.0544C6.97995 16.9536 6.93991 16.857 6.86865 16.7857C6.79739 16.7145 6.70073 16.6744 6.59995 16.6744H3.84875C3.74797 16.6744 3.65131 16.7145 3.58005 16.7857C3.50879 16.857 3.46875 16.9536 3.46875 17.0544V23.3206C3.46875 23.4214 3.50879 23.5181 3.58005 23.5893C3.65131 23.6606 3.74797 23.7006 3.84875 23.7006H4.84055V24.4606C4.84055 24.5105 4.85038 24.5599 4.86948 24.606C4.88857 24.6521 4.91656 24.694 4.95185 24.7293C4.98714 24.7646 5.02903 24.7926 5.07513 24.8117C5.12123 24.8308 5.17065 24.8406 5.22055 24.8406C5.27045 24.8406 5.31987 24.8308 5.36597 24.8117C5.41207 24.7926 5.45396 24.7646 5.48925 24.7293C5.52454 24.694 5.55253 24.6521 5.57162 24.606C5.59072 24.5599 5.60055 24.5105 5.60055 24.4606V23.7006H6.59995C6.70073 23.7006 6.79739 23.6606 6.86865 23.5893C6.93991 23.5181 6.97995 23.4214 6.97995 23.3206V20.805L9.35875 21.9944V24.8976C9.35875 24.9984 9.39879 25.0951 9.47005 25.1663C9.54131 25.2376 9.63797 25.2776 9.73875 25.2776H10.7306V26.0376C10.7306 26.1384 10.7706 26.2351 10.8418 26.3063C10.9131 26.3776 11.0098 26.4176 11.1105 26.4176C11.2113 26.4176 11.308 26.3776 11.3793 26.3063C11.4505 26.2351 11.4905 26.1384 11.4905 26.0376V25.2776H12.4823C12.5831 25.2776 12.6798 25.2376 12.7511 25.1663C12.8223 25.0951 12.8623 24.9984 12.8623 24.8976V23.161L15.2412 24.3504V27.2498C15.2412 27.3506 15.2812 27.4473 15.3524 27.5185C15.4237 27.5898 15.5204 27.6298 15.6212 27.6298H16.6129V28.3898C16.6129 28.4906 16.653 28.5873 16.7243 28.6585C16.7955 28.7298 16.8922 28.7698 16.9929 28.7698C17.0937 28.7698 17.1904 28.7298 17.2616 28.6585C17.3329 28.5873 17.3729 28.4906 17.3729 28.3898V27.6298H18.3647C18.4655 27.6298 18.5622 27.5898 18.6334 27.5185C18.7047 27.4473 18.7447 27.3506 18.7447 27.2498V24.1718L21.116 15.8384V16.2678C21.116 16.3686 21.156 16.4653 21.2272 16.5365C21.2985 16.6078 21.3952 16.6478 21.496 16.6478H22.4878V17.4078C22.4878 17.5086 22.5278 17.6053 22.5991 17.6765C22.6703 17.7478 22.767 17.7878 22.8678 17.7878C22.9685 17.7878 23.0652 17.7478 23.1364 17.6765C23.2077 17.6053 23.2478 17.5086 23.2478 17.4078V16.6478H24.2395C24.3403 16.6478 24.437 16.6078 24.5082 16.5365C24.5795 16.4653 24.6195 16.3686 24.6195 16.2678V14.7478L26.9983 19.5206V22.5606C26.9983 22.6614 27.0384 22.7581 27.1096 22.8293C27.1809 22.9006 27.2776 22.9406 27.3783 22.9406H28.3701V23.7006C28.3701 23.8014 28.4102 23.8981 28.4814 23.9693C28.5527 24.0406 28.6494 24.0806 28.7501 24.0806C28.8509 24.0806 28.9476 24.0406 29.0189 23.9693C29.0901 23.8981 29.1301 23.8014 29.1301 23.7006V22.9406H30.122C30.2227 22.9406 30.3194 22.9006 30.3906 22.8293C30.4619 22.7581 30.5019 22.6614 30.5019 22.5606V16.2678C30.5019 16.167 30.4619 16.0704 30.3906 15.9991C30.3194 15.9279 30.2227 15.8878 30.122 15.8878ZM6.21995 22.9406H4.22875V17.4344H6.21995V22.9406ZM12.1023 24.51H10.1111V19.0038H12.0947L12.1023 24.51ZM17.9847 26.8622H15.9935V21.356H17.9771L17.9847 26.8622ZM23.8671 15.8802H21.8759V10.374H23.8595L23.8671 15.8802ZM29.7419 22.1806H27.7583V16.6478H29.7419V22.1806ZM5.22055 30.5406C5.11977 30.5406 5.02311 30.5807 4.95185 30.6519C4.88059 30.7232 4.84055 30.8198 4.84055 30.9206V32.0606C4.84055 32.1614 4.88059 32.2581 4.95185 32.3293C5.02311 32.4006 5.11977 32.4406 5.22055 32.4406C5.32133 32.4406 5.41799 32.4006 5.48925 32.3293C5.56051 32.2581 5.60055 32.1614 5.60055 32.0606V30.9206C5.60055 30.8198 5.56051 30.7232 5.48925 30.6519C5.41799 30.5807 5.32133 30.5406 5.22055 30.5406ZM5.60055 27.1206C5.60055 27.0198 5.56051 26.9232 5.48925 26.8519C5.41799 26.7807 5.32133 26.7406 5.22055 26.7406C5.11977 26.7406 5.02311 26.7807 4.95185 26.8519C4.88059 26.9232 4.84055 27.0198 4.84055 27.1206V28.2606C4.84055 28.3614 4.88059 28.4581 4.95185 28.5293C5.02311 28.6006 5.11977 28.6406 5.22055 28.6406C5.32133 28.6406 5.41799 28.6006 5.48925 28.5293C5.56051 28.4581 5.60055 28.3614 5.60055 28.2606V27.1206ZM11.4829 28.6976C11.4829 28.5968 11.4429 28.5002 11.3717 28.4289C11.3004 28.3577 11.2037 28.3176 11.103 28.3176C11.0022 28.3176 10.9055 28.3577 10.8342 28.4289C10.763 28.5002 10.7229 28.5968 10.7229 28.6976V29.8376C10.7229 29.9384 10.763 30.0351 10.8342 30.1063C10.9055 30.1776 11.0022 30.2176 11.103 30.2176C11.2037 30.2176 11.3004 30.1776 11.3717 30.1063C11.4429 30.0351 11.4829 29.9384 11.4829 29.8376V28.6976ZM11.103 32.1176C11.0022 32.1176 10.9055 32.1577 10.8342 32.2289C10.763 32.3002 10.7229 32.3968 10.7229 32.4976V33.535C10.7229 33.6358 10.763 33.7325 10.8342 33.8037C10.9055 33.875 11.0022 33.915 11.103 33.915C11.2037 33.915 11.3004 33.875 11.3717 33.8037C11.4429 33.7325 11.4829 33.6358 11.4829 33.535V32.4976C11.4829 32.3968 11.4429 32.3002 11.3717 32.2289C11.3004 32.1577 11.2037 32.1176 11.103 32.1176ZM16.9853 30.6698C16.8846 30.6698 16.7879 30.7099 16.7166 30.7811C16.6454 30.8524 16.6053 30.949 16.6053 31.0498V32.1898C16.6053 32.2906 16.6454 32.3873 16.7166 32.4585C16.7879 32.5298 16.8846 32.5698 16.9853 32.5698C17.0861 32.5698 17.1828 32.5298 17.2541 32.4585C17.3253 32.3873 17.3653 32.2906 17.3653 32.1898V31.0498C17.3653 30.949 17.3253 30.8524 17.2541 30.7811C17.1828 30.7099 17.0861 30.6698 16.9853 30.6698ZM22.8678 31.0916C22.767 31.0916 22.6703 31.1317 22.5991 31.2029C22.5278 31.2742 22.4878 31.3708 22.4878 31.4716V32.6116C22.4878 32.7124 22.5278 32.8091 22.5991 32.8803C22.6703 32.9516 22.767 32.9916 22.8678 32.9916C22.9685 32.9916 23.0652 32.9516 23.1364 32.8803C23.2077 32.8091 23.2478 32.7124 23.2478 32.6116V31.4716C23.2478 31.3708 23.2077 31.2742 23.1364 31.2029C23.0652 31.1317 22.9685 31.0916 22.8678 31.0916Z" fill="url(#paint1_linear_3820_20624)"/>
<path d="M30.122 15.8878H27.3783C27.2776 15.8878 27.1809 15.9279 27.1096 15.9991C27.0384 16.0704 26.9983 16.167 26.9983 16.2678V17.7878L24.6195 13.0606V10.0206C24.6195 9.91984 24.5795 9.82319 24.5082 9.75192C24.437 9.68066 24.3403 9.64062 24.2395 9.64062H21.496C21.3952 9.64062 21.2985 9.68066 21.2272 9.75192C21.156 9.82319 21.116 9.91984 21.116 10.0206V13.0606L18.7372 21.4206V20.976C18.7372 20.8752 18.6971 20.7786 18.6259 20.7073C18.5546 20.6361 18.4579 20.596 18.3572 20.596H15.6136C15.5128 20.596 15.4161 20.6361 15.3448 20.7073C15.2736 20.7786 15.2336 20.8752 15.2336 20.976V23.4992L12.8547 22.3098V18.6238C12.8547 18.523 12.8147 18.4264 12.7435 18.3551C12.6722 18.2839 12.5755 18.2438 12.4747 18.2438H9.73115C9.63037 18.2438 9.53371 18.2839 9.46245 18.3551C9.39119 18.4264 9.35115 18.523 9.35115 18.6238V21.1432L6.97995 19.9538V17.0544C6.97995 16.9536 6.93991 16.857 6.86865 16.7857C6.79739 16.7145 6.70073 16.6744 6.59995 16.6744H3.84875C3.74797 16.6744 3.65131 16.7145 3.58005 16.7857C3.50879 16.857 3.46875 16.9536 3.46875 17.0544V23.3206C3.46875 23.4214 3.50879 23.5181 3.58005 23.5893C3.65131 23.6606 3.74797 23.7006 3.84875 23.7006H4.84055V24.4606C4.84055 24.5105 4.85038 24.5599 4.86948 24.606C4.88857 24.6521 4.91656 24.694 4.95185 24.7293C4.98714 24.7646 5.02903 24.7926 5.07513 24.8117C5.12123 24.8308 5.17065 24.8406 5.22055 24.8406C5.27045 24.8406 5.31987 24.8308 5.36597 24.8117C5.41207 24.7926 5.45396 24.7646 5.48925 24.7293C5.52454 24.694 5.55253 24.6521 5.57162 24.606C5.59072 24.5599 5.60055 24.5105 5.60055 24.4606V23.7006H6.59995C6.70073 23.7006 6.79739 23.6606 6.86865 23.5893C6.93991 23.5181 6.97995 23.4214 6.97995 23.3206V20.805L9.35875 21.9944V24.8976C9.35875 24.9984 9.39879 25.0951 9.47005 25.1663C9.54131 25.2376 9.63797 25.2776 9.73875 25.2776H10.7306V26.0376C10.7306 26.1384 10.7706 26.2351 10.8418 26.3063C10.9131 26.3776 11.0098 26.4176 11.1105 26.4176C11.2113 26.4176 11.308 26.3776 11.3793 26.3063C11.4505 26.2351 11.4905 26.1384 11.4905 26.0376V25.2776H12.4823C12.5831 25.2776 12.6798 25.2376 12.7511 25.1663C12.8223 25.0951 12.8623 24.9984 12.8623 24.8976V23.161L15.2412 24.3504V27.2498C15.2412 27.3506 15.2812 27.4473 15.3524 27.5185C15.4237 27.5898 15.5204 27.6298 15.6212 27.6298H16.6129V28.3898C16.6129 28.4906 16.653 28.5873 16.7243 28.6585C16.7955 28.7298 16.8922 28.7698 16.9929 28.7698C17.0937 28.7698 17.1904 28.7298 17.2616 28.6585C17.3329 28.5873 17.3729 28.4906 17.3729 28.3898V27.6298H18.3647C18.4655 27.6298 18.5622 27.5898 18.6334 27.5185C18.7047 27.4473 18.7447 27.3506 18.7447 27.2498V24.1718L21.116 15.8384V16.2678C21.116 16.3686 21.156 16.4653 21.2272 16.5365C21.2985 16.6078 21.3952 16.6478 21.496 16.6478H22.4878V17.4078C22.4878 17.5086 22.5278 17.6053 22.5991 17.6765C22.6703 17.7478 22.767 17.7878 22.8678 17.7878C22.9685 17.7878 23.0652 17.7478 23.1364 17.6765C23.2077 17.6053 23.2478 17.5086 23.2478 17.4078V16.6478H24.2395C24.3403 16.6478 24.437 16.6078 24.5082 16.5365C24.5795 16.4653 24.6195 16.3686 24.6195 16.2678V14.7478L26.9983 19.5206V22.5606C26.9983 22.6614 27.0384 22.7581 27.1096 22.8293C27.1809 22.9006 27.2776 22.9406 27.3783 22.9406H28.3701V23.7006C28.3701 23.8014 28.4102 23.8981 28.4814 23.9693C28.5527 24.0406 28.6494 24.0806 28.7501 24.0806C28.8509 24.0806 28.9476 24.0406 29.0189 23.9693C29.0901 23.8981 29.1301 23.8014 29.1301 23.7006V22.9406H30.122C30.2227 22.9406 30.3194 22.9006 30.3906 22.8293C30.4619 22.7581 30.5019 22.6614 30.5019 22.5606V16.2678C30.5019 16.167 30.4619 16.0704 30.3906 15.9991C30.3194 15.9279 30.2227 15.8878 30.122 15.8878ZM6.21995 22.9406H4.22875V17.4344H6.21995V22.9406ZM12.1023 24.51H10.1111V19.0038H12.0947L12.1023 24.51ZM17.9847 26.8622H15.9935V21.356H17.9771L17.9847 26.8622ZM23.8671 15.8802H21.8759V10.374H23.8595L23.8671 15.8802ZM29.7419 22.1806H27.7583V16.6478H29.7419V22.1806ZM5.22055 30.5406C5.11977 30.5406 5.02311 30.5807 4.95185 30.6519C4.88059 30.7232 4.84055 30.8198 4.84055 30.9206V32.0606C4.84055 32.1614 4.88059 32.2581 4.95185 32.3293C5.02311 32.4006 5.11977 32.4406 5.22055 32.4406C5.32133 32.4406 5.41799 32.4006 5.48925 32.3293C5.56051 32.2581 5.60055 32.1614 5.60055 32.0606V30.9206C5.60055 30.8198 5.56051 30.7232 5.48925 30.6519C5.41799 30.5807 5.32133 30.5406 5.22055 30.5406ZM5.60055 27.1206C5.60055 27.0198 5.56051 26.9232 5.48925 26.8519C5.41799 26.7807 5.32133 26.7406 5.22055 26.7406C5.11977 26.7406 5.02311 26.7807 4.95185 26.8519C4.88059 26.9232 4.84055 27.0198 4.84055 27.1206V28.2606C4.84055 28.3614 4.88059 28.4581 4.95185 28.5293C5.02311 28.6006 5.11977 28.6406 5.22055 28.6406C5.32133 28.6406 5.41799 28.6006 5.48925 28.5293C5.56051 28.4581 5.60055 28.3614 5.60055 28.2606V27.1206ZM11.4829 28.6976C11.4829 28.5968 11.4429 28.5002 11.3717 28.4289C11.3004 28.3577 11.2037 28.3176 11.103 28.3176C11.0022 28.3176 10.9055 28.3577 10.8342 28.4289C10.763 28.5002 10.7229 28.5968 10.7229 28.6976V29.8376C10.7229 29.9384 10.763 30.0351 10.8342 30.1063C10.9055 30.1776 11.0022 30.2176 11.103 30.2176C11.2037 30.2176 11.3004 30.1776 11.3717 30.1063C11.4429 30.0351 11.4829 29.9384 11.4829 29.8376V28.6976ZM11.103 32.1176C11.0022 32.1176 10.9055 32.1577 10.8342 32.2289C10.763 32.3002 10.7229 32.3968 10.7229 32.4976V33.535C10.7229 33.6358 10.763 33.7325 10.8342 33.8037C10.9055 33.875 11.0022 33.915 11.103 33.915C11.2037 33.915 11.3004 33.875 11.3717 33.8037C11.4429 33.7325 11.4829 33.6358 11.4829 33.535V32.4976C11.4829 32.3968 11.4429 32.3002 11.3717 32.2289C11.3004 32.1577 11.2037 32.1176 11.103 32.1176ZM16.9853 30.6698C16.8846 30.6698 16.7879 30.7099 16.7166 30.7811C16.6454 30.8524 16.6053 30.949 16.6053 31.0498V32.1898C16.6053 32.2906 16.6454 32.3873 16.7166 32.4585C16.7879 32.5298 16.8846 32.5698 16.9853 32.5698C17.0861 32.5698 17.1828 32.5298 17.2541 32.4585C17.3253 32.3873 17.3653 32.2906 17.3653 32.1898V31.0498C17.3653 30.949 17.3253 30.8524 17.2541 30.7811C17.1828 30.7099 17.0861 30.6698 16.9853 30.6698ZM22.8678 31.0916C22.767 31.0916 22.6703 31.1317 22.5991 31.2029C22.5278 31.2742 22.4878 31.3708 22.4878 31.4716V32.6116C22.4878 32.7124 22.5278 32.8091 22.5991 32.8803C22.6703 32.9516 22.767 32.9916 22.8678 32.9916C22.9685 32.9916 23.0652 32.9516 23.1364 32.8803C23.2077 32.8091 23.2478 32.7124 23.2478 32.6116V31.4716C23.2478 31.3708 23.2077 31.2742 23.1364 31.2029C23.0652 31.1317 22.9685 31.0916 22.8678 31.0916Z" fill="black" fill-opacity="0.2"/>
<path d="M23.2473 23.8705C23.2473 23.7697 23.2073 23.6731 23.136 23.6018C23.0647 23.5306 22.9681 23.4905 22.8673 23.4905C22.7665 23.4905 22.6699 23.5306 22.5986 23.6018C22.5273 23.6731 22.4873 23.7697 22.4873 23.8705V25.0105C22.4873 25.1113 22.5273 25.208 22.5986 25.2792C22.6699 25.3505 22.7665 25.3905 22.8673 25.3905C22.9681 25.3905 23.0647 25.3505 23.136 25.2792C23.2073 25.208 23.2473 25.1113 23.2473 25.0105V23.8705ZM23.2473 20.0705C23.2473 19.9697 23.2073 19.8731 23.136 19.8018C23.0647 19.7306 22.9681 19.6905 22.8673 19.6905C22.7665 19.6905 22.6699 19.7306 22.5986 19.8018C22.5273 19.8731 22.4873 19.9697 22.4873 20.0705V21.2105C22.4873 21.3113 22.5273 21.408 22.5986 21.4792C22.6699 21.5505 22.7665 21.5905 22.8673 21.5905C22.9681 21.5905 23.0647 21.5505 23.136 21.4792C23.2073 21.408 23.2473 21.3113 23.2473 21.2105V20.0705ZM23.2473 27.6705C23.2473 27.5697 23.2073 27.4731 23.136 27.4018C23.0647 27.3306 22.9681 27.2905 22.8673 27.2905C22.7665 27.2905 22.6699 27.3306 22.5986 27.4018C22.5273 27.4731 22.4873 27.5697 22.4873 27.6705V28.8105C22.4873 28.9113 22.5273 29.008 22.5986 29.0792C22.6699 29.1505 22.7665 29.1905 22.8673 29.1905C22.9681 29.1905 23.0647 29.1505 23.136 29.0792C23.2073 29.008 23.2473 28.9113 23.2473 28.8105V27.6705ZM28.7497 29.7795C28.6489 29.7795 28.5523 29.8196 28.481 29.8908C28.4097 29.9621 28.3697 30.0587 28.3697 30.1595V31.2995C28.3697 31.4003 28.4097 31.497 28.481 31.5682C28.5523 31.6395 28.6489 31.6795 28.7497 31.6795C28.8505 31.6795 28.9471 31.6395 29.0184 31.5682C29.0897 31.497 29.1297 31.4003 29.1297 31.2995V30.1595C29.1297 30.0587 29.0897 29.9621 29.0184 29.8908C28.9471 29.8196 28.8505 29.7795 28.7497 29.7795ZM29.1297 26.3595C29.1297 26.2587 29.0897 26.1621 29.0184 26.0908C28.9471 26.0196 28.8505 25.9795 28.7497 25.9795C28.6489 25.9795 28.5523 26.0196 28.481 26.0908C28.4097 26.1621 28.3697 26.2587 28.3697 26.3595V27.4995C28.3697 27.6003 28.4097 27.697 28.481 27.7682C28.5523 27.8395 28.6489 27.8795 28.7497 27.8795C28.8505 27.8795 28.9471 27.8395 29.0184 27.7682C29.0897 27.697 29.1297 27.6003 29.1297 27.4995V26.3595ZM28.7497 0.519531C28.5706 0.52003 28.3933 0.555809 28.2279 0.624828C28.0626 0.693846 27.9125 0.794751 27.7862 0.921782C27.6599 1.04881 27.5598 1.19948 27.4917 1.36518C27.4236 1.53089 27.3888 1.70838 27.3893 1.88753C27.3886 2.11895 27.4475 2.34665 27.5603 2.54873L23.5133 6.64133C23.2396 6.49332 22.9234 6.44389 22.6176 6.50131C22.3118 6.55873 22.035 6.71952 21.8337 6.95673L18.3301 5.35693C18.3358 5.29245 18.3358 5.22761 18.3301 5.16313C18.3301 4.80233 18.1868 4.45631 17.9316 4.20118C17.6765 3.94606 17.3305 3.80273 16.9697 3.80273C16.6089 3.80273 16.2629 3.94606 16.0078 4.20118C15.7526 4.45631 15.6093 4.80233 15.6093 5.16313C15.6119 5.33849 15.6494 5.51158 15.7195 5.67233L11.8929 8.68953C11.6629 8.52343 11.3862 8.43432 11.1025 8.43493C10.742 8.43593 10.3966 8.57958 10.1417 8.83449C9.88675 9.0894 9.7431 9.43484 9.7421 9.79533C9.74178 9.97552 9.77798 10.1539 9.8485 10.3197L6.1245 13.3141C5.94946 13.1912 5.74792 13.1114 5.53623 13.081C5.32453 13.0505 5.10865 13.0705 4.9061 13.1391C4.70356 13.2078 4.52005 13.3232 4.37048 13.4761C4.2209 13.629 4.10947 13.8149 4.04524 14.0189C3.981 14.2229 3.96576 14.4392 4.00076 14.6502C4.03576 14.8611 4.12001 15.0609 4.24667 15.2332C4.37334 15.4056 4.53884 15.5456 4.72976 15.642C4.92068 15.7383 5.13164 15.7884 5.3455 15.7879C5.7063 15.7879 6.05232 15.6446 6.30745 15.3895C6.56257 15.1344 6.7059 14.7883 6.7059 14.4275C6.70403 14.2488 6.66791 14.0721 6.5995 13.9069L10.3197 10.9125C10.5241 11.0537 10.7631 11.1363 11.011 11.1516C11.2589 11.1669 11.5062 11.1142 11.7264 10.9992C11.9465 10.8843 12.1311 10.7114 12.2603 10.4992C12.3894 10.2871 12.4581 10.0437 12.4591 9.79533C12.4601 9.62074 12.4265 9.44768 12.3603 9.28613L16.1945 6.26893C16.4225 6.43617 16.6983 6.52546 16.9811 6.52353C17.1746 6.52194 17.3655 6.47908 17.5411 6.39783C17.7168 6.31657 17.873 6.19878 17.9995 6.05233L21.5069 7.64833C21.5011 7.71153 21.5011 7.77513 21.5069 7.83833C21.5069 8.19913 21.6502 8.54515 21.9054 8.80028C22.1605 9.0554 22.5065 9.19873 22.8673 9.19873C23.2281 9.19873 23.5741 9.0554 23.8293 8.80028C24.0844 8.54515 24.2277 8.19913 24.2277 7.83833C24.2289 7.60685 24.17 7.37902 24.0567 7.17713L28.1037 3.08453C28.2859 3.18012 28.4874 3.23314 28.6931 3.23959C28.8987 3.24604 29.1032 3.20576 29.291 3.12177C29.4788 3.03779 29.6452 2.91229 29.7775 2.75472C29.9098 2.59716 30.0047 2.41163 30.0549 2.2121C30.1052 2.01258 30.1095 1.80425 30.0676 1.60281C30.0257 1.40136 29.9387 1.21205 29.813 1.04911C29.6874 0.886173 29.5264 0.753861 29.3422 0.662131C29.158 0.570402 28.9554 0.521645 28.7497 0.519531ZM5.9497 14.4275C5.9482 14.5458 5.91181 14.661 5.8451 14.7586C5.77839 14.8563 5.68433 14.932 5.57472 14.9764C5.46511 15.0208 5.34483 15.0318 5.22897 15.0081C5.11311 14.9844 5.00683 14.927 4.92347 14.8431C4.84011 14.7592 4.78338 14.6526 4.7604 14.5366C4.73741 14.4206 4.7492 14.3004 4.79428 14.1911C4.83935 14.0817 4.91571 13.9881 5.01378 13.9221C5.11184 13.856 5.22724 13.8203 5.3455 13.8195H5.4709C5.60498 13.8496 5.72493 13.9242 5.81119 14.0311C5.89745 14.1381 5.94493 14.2711 5.9459 14.4085L5.9497 14.4275ZM11.7029 9.81053C11.6999 9.96778 11.6353 10.1176 11.5231 10.2277C11.4108 10.3379 11.2598 10.3996 11.1025 10.3995C11.0621 10.4033 11.0213 10.4033 10.9809 10.3995C10.8458 10.3709 10.7246 10.2968 10.6375 10.1896C10.5503 10.0824 10.5026 9.94865 10.5021 9.81053C10.5031 9.65195 10.5668 9.50021 10.6793 9.38844C10.7918 9.27666 10.9439 9.21393 11.1025 9.21393C11.1466 9.20812 11.1914 9.20812 11.2355 9.21393C11.3679 9.2447 11.486 9.31919 11.5708 9.42538C11.6556 9.53156 11.7022 9.66324 11.7029 9.79913V9.81053ZM17.2395 5.70273C17.1578 5.74246 17.0682 5.76324 16.9773 5.76353C16.9344 5.76932 16.891 5.76932 16.8481 5.76353C16.7147 5.73414 16.5953 5.66014 16.5097 5.55374C16.424 5.44735 16.3772 5.31493 16.3769 5.17833C16.3813 5.035 16.4369 4.89797 16.5336 4.79206C16.6302 4.68614 16.7616 4.61832 16.904 4.60087C17.0463 4.58342 17.1902 4.6175 17.3096 4.69693C17.429 4.77636 17.516 4.89591 17.5549 5.03393C17.5702 5.08445 17.5779 5.13695 17.5777 5.18973C17.5728 5.29777 17.5387 5.40247 17.4792 5.49277C17.4197 5.58307 17.3369 5.65561 17.2395 5.70273ZM22.8597 8.43493C22.7295 8.43514 22.6027 8.39299 22.4985 8.31485C22.3943 8.23671 22.3184 8.12681 22.2821 8.00173C22.2437 7.86812 22.2535 7.72528 22.3098 7.59817C22.3661 7.47106 22.4652 7.36776 22.5899 7.30633C22.6722 7.26016 22.7653 7.23657 22.8597 7.23793H22.9395C23.0783 7.24908 23.2086 7.309 23.3074 7.40708C23.4061 7.50517 23.467 7.63506 23.4791 7.77373C23.4828 7.79383 23.4828 7.81444 23.4791 7.83453C23.4796 7.91449 23.4641 7.99375 23.4334 8.06758C23.4027 8.14142 23.3575 8.20833 23.3004 8.26433C23.2433 8.32034 23.1756 8.36431 23.1012 8.39361C23.0268 8.42292 22.9472 8.43697 22.8673 8.43493H22.8597ZM28.7497 2.48793H28.6965L29.0195 2.15733C29.0906 2.08578 29.1303 1.98893 29.1299 1.88809C29.1296 1.78725 29.0892 1.69068 29.0176 1.61963C28.946 1.54858 28.8492 1.50886 28.7484 1.50922C28.6475 1.50958 28.551 1.54998 28.4799 1.62153L28.1569 1.94833C28.1532 1.92823 28.1532 1.90763 28.1569 1.88753C28.1569 1.76878 28.1921 1.6527 28.2581 1.55397C28.3241 1.45523 28.4178 1.37828 28.5275 1.33283C28.6372 1.28739 28.758 1.2755 28.8744 1.29867C28.9909 1.32183 29.0979 1.37902 29.1819 1.46298C29.2658 1.54695 29.323 1.65393 29.3462 1.7704C29.3693 1.88687 29.3574 2.00759 29.312 2.11729C29.2666 2.227 29.1896 2.32077 29.0909 2.38675C28.9921 2.45272 28.876 2.48793 28.7573 2.48793H28.7497Z" fill="url(#paint2_linear_3820_20624)"/>
<path d="M23.2473 23.8705C23.2473 23.7697 23.2073 23.6731 23.136 23.6018C23.0647 23.5306 22.9681 23.4905 22.8673 23.4905C22.7665 23.4905 22.6699 23.5306 22.5986 23.6018C22.5273 23.6731 22.4873 23.7697 22.4873 23.8705V25.0105C22.4873 25.1113 22.5273 25.208 22.5986 25.2792C22.6699 25.3505 22.7665 25.3905 22.8673 25.3905C22.9681 25.3905 23.0647 25.3505 23.136 25.2792C23.2073 25.208 23.2473 25.1113 23.2473 25.0105V23.8705ZM23.2473 20.0705C23.2473 19.9697 23.2073 19.8731 23.136 19.8018C23.0647 19.7306 22.9681 19.6905 22.8673 19.6905C22.7665 19.6905 22.6699 19.7306 22.5986 19.8018C22.5273 19.8731 22.4873 19.9697 22.4873 20.0705V21.2105C22.4873 21.3113 22.5273 21.408 22.5986 21.4792C22.6699 21.5505 22.7665 21.5905 22.8673 21.5905C22.9681 21.5905 23.0647 21.5505 23.136 21.4792C23.2073 21.408 23.2473 21.3113 23.2473 21.2105V20.0705ZM23.2473 27.6705C23.2473 27.5697 23.2073 27.4731 23.136 27.4018C23.0647 27.3306 22.9681 27.2905 22.8673 27.2905C22.7665 27.2905 22.6699 27.3306 22.5986 27.4018C22.5273 27.4731 22.4873 27.5697 22.4873 27.6705V28.8105C22.4873 28.9113 22.5273 29.008 22.5986 29.0792C22.6699 29.1505 22.7665 29.1905 22.8673 29.1905C22.9681 29.1905 23.0647 29.1505 23.136 29.0792C23.2073 29.008 23.2473 28.9113 23.2473 28.8105V27.6705ZM28.7497 29.7795C28.6489 29.7795 28.5523 29.8196 28.481 29.8908C28.4097 29.9621 28.3697 30.0587 28.3697 30.1595V31.2995C28.3697 31.4003 28.4097 31.497 28.481 31.5682C28.5523 31.6395 28.6489 31.6795 28.7497 31.6795C28.8505 31.6795 28.9471 31.6395 29.0184 31.5682C29.0897 31.497 29.1297 31.4003 29.1297 31.2995V30.1595C29.1297 30.0587 29.0897 29.9621 29.0184 29.8908C28.9471 29.8196 28.8505 29.7795 28.7497 29.7795ZM29.1297 26.3595C29.1297 26.2587 29.0897 26.1621 29.0184 26.0908C28.9471 26.0196 28.8505 25.9795 28.7497 25.9795C28.6489 25.9795 28.5523 26.0196 28.481 26.0908C28.4097 26.1621 28.3697 26.2587 28.3697 26.3595V27.4995C28.3697 27.6003 28.4097 27.697 28.481 27.7682C28.5523 27.8395 28.6489 27.8795 28.7497 27.8795C28.8505 27.8795 28.9471 27.8395 29.0184 27.7682C29.0897 27.697 29.1297 27.6003 29.1297 27.4995V26.3595ZM28.7497 0.519531C28.5706 0.52003 28.3933 0.555809 28.2279 0.624828C28.0626 0.693846 27.9125 0.794751 27.7862 0.921782C27.6599 1.04881 27.5598 1.19948 27.4917 1.36518C27.4236 1.53089 27.3888 1.70838 27.3893 1.88753C27.3886 2.11895 27.4475 2.34665 27.5603 2.54873L23.5133 6.64133C23.2396 6.49332 22.9234 6.44389 22.6176 6.50131C22.3118 6.55873 22.035 6.71952 21.8337 6.95673L18.3301 5.35693C18.3358 5.29245 18.3358 5.22761 18.3301 5.16313C18.3301 4.80233 18.1868 4.45631 17.9316 4.20118C17.6765 3.94606 17.3305 3.80273 16.9697 3.80273C16.6089 3.80273 16.2629 3.94606 16.0078 4.20118C15.7526 4.45631 15.6093 4.80233 15.6093 5.16313C15.6119 5.33849 15.6494 5.51158 15.7195 5.67233L11.8929 8.68953C11.6629 8.52343 11.3862 8.43432 11.1025 8.43493C10.742 8.43593 10.3966 8.57958 10.1417 8.83449C9.88675 9.0894 9.7431 9.43484 9.7421 9.79533C9.74178 9.97552 9.77798 10.1539 9.8485 10.3197L6.1245 13.3141C5.94946 13.1912 5.74792 13.1114 5.53623 13.081C5.32453 13.0505 5.10865 13.0705 4.9061 13.1391C4.70356 13.2078 4.52005 13.3232 4.37048 13.4761C4.2209 13.629 4.10947 13.8149 4.04524 14.0189C3.981 14.2229 3.96576 14.4392 4.00076 14.6502C4.03576 14.8611 4.12001 15.0609 4.24667 15.2332C4.37334 15.4056 4.53884 15.5456 4.72976 15.642C4.92068 15.7383 5.13164 15.7884 5.3455 15.7879C5.7063 15.7879 6.05232 15.6446 6.30745 15.3895C6.56257 15.1344 6.7059 14.7883 6.7059 14.4275C6.70403 14.2488 6.66791 14.0721 6.5995 13.9069L10.3197 10.9125C10.5241 11.0537 10.7631 11.1363 11.011 11.1516C11.2589 11.1669 11.5062 11.1142 11.7264 10.9992C11.9465 10.8843 12.1311 10.7114 12.2603 10.4992C12.3894 10.2871 12.4581 10.0437 12.4591 9.79533C12.4601 9.62074 12.4265 9.44768 12.3603 9.28613L16.1945 6.26893C16.4225 6.43617 16.6983 6.52546 16.9811 6.52353C17.1746 6.52194 17.3655 6.47908 17.5411 6.39783C17.7168 6.31657 17.873 6.19878 17.9995 6.05233L21.5069 7.64833C21.5011 7.71153 21.5011 7.77513 21.5069 7.83833C21.5069 8.19913 21.6502 8.54515 21.9054 8.80028C22.1605 9.0554 22.5065 9.19873 22.8673 9.19873C23.2281 9.19873 23.5741 9.0554 23.8293 8.80028C24.0844 8.54515 24.2277 8.19913 24.2277 7.83833C24.2289 7.60685 24.17 7.37902 24.0567 7.17713L28.1037 3.08453C28.2859 3.18012 28.4874 3.23314 28.6931 3.23959C28.8987 3.24604 29.1032 3.20576 29.291 3.12177C29.4788 3.03779 29.6452 2.91229 29.7775 2.75472C29.9098 2.59716 30.0047 2.41163 30.0549 2.2121C30.1052 2.01258 30.1095 1.80425 30.0676 1.60281C30.0257 1.40136 29.9387 1.21205 29.813 1.04911C29.6874 0.886173 29.5264 0.753861 29.3422 0.662131C29.158 0.570402 28.9554 0.521645 28.7497 0.519531ZM5.9497 14.4275C5.9482 14.5458 5.91181 14.661 5.8451 14.7586C5.77839 14.8563 5.68433 14.932 5.57472 14.9764C5.46511 15.0208 5.34483 15.0318 5.22897 15.0081C5.11311 14.9844 5.00683 14.927 4.92347 14.8431C4.84011 14.7592 4.78338 14.6526 4.7604 14.5366C4.73741 14.4206 4.7492 14.3004 4.79428 14.1911C4.83935 14.0817 4.91571 13.9881 5.01378 13.9221C5.11184 13.856 5.22724 13.8203 5.3455 13.8195H5.4709C5.60498 13.8496 5.72493 13.9242 5.81119 14.0311C5.89745 14.1381 5.94493 14.2711 5.9459 14.4085L5.9497 14.4275ZM11.7029 9.81053C11.6999 9.96778 11.6353 10.1176 11.5231 10.2277C11.4108 10.3379 11.2598 10.3996 11.1025 10.3995C11.0621 10.4033 11.0213 10.4033 10.9809 10.3995C10.8458 10.3709 10.7246 10.2968 10.6375 10.1896C10.5503 10.0824 10.5026 9.94865 10.5021 9.81053C10.5031 9.65195 10.5668 9.50021 10.6793 9.38844C10.7918 9.27666 10.9439 9.21393 11.1025 9.21393C11.1466 9.20812 11.1914 9.20812 11.2355 9.21393C11.3679 9.2447 11.486 9.31919 11.5708 9.42538C11.6556 9.53156 11.7022 9.66324 11.7029 9.79913V9.81053ZM17.2395 5.70273C17.1578 5.74246 17.0682 5.76324 16.9773 5.76353C16.9344 5.76932 16.891 5.76932 16.8481 5.76353C16.7147 5.73414 16.5953 5.66014 16.5097 5.55374C16.424 5.44735 16.3772 5.31493 16.3769 5.17833C16.3813 5.035 16.4369 4.89797 16.5336 4.79206C16.6302 4.68614 16.7616 4.61832 16.904 4.60087C17.0463 4.58342 17.1902 4.6175 17.3096 4.69693C17.429 4.77636 17.516 4.89591 17.5549 5.03393C17.5702 5.08445 17.5779 5.13695 17.5777 5.18973C17.5728 5.29777 17.5387 5.40247 17.4792 5.49277C17.4197 5.58307 17.3369 5.65561 17.2395 5.70273ZM22.8597 8.43493C22.7295 8.43514 22.6027 8.39299 22.4985 8.31485C22.3943 8.23671 22.3184 8.12681 22.2821 8.00173C22.2437 7.86812 22.2535 7.72528 22.3098 7.59817C22.3661 7.47106 22.4652 7.36776 22.5899 7.30633C22.6722 7.26016 22.7653 7.23657 22.8597 7.23793H22.9395C23.0783 7.24908 23.2086 7.309 23.3074 7.40708C23.4061 7.50517 23.467 7.63506 23.4791 7.77373C23.4828 7.79383 23.4828 7.81444 23.4791 7.83453C23.4796 7.91449 23.4641 7.99375 23.4334 8.06758C23.4027 8.14142 23.3575 8.20833 23.3004 8.26433C23.2433 8.32034 23.1756 8.36431 23.1012 8.39361C23.0268 8.42292 22.9472 8.43697 22.8673 8.43493H22.8597ZM28.7497 2.48793H28.6965L29.0195 2.15733C29.0906 2.08578 29.1303 1.98893 29.1299 1.88809C29.1296 1.78725 29.0892 1.69068 29.0176 1.61963C28.946 1.54858 28.8492 1.50886 28.7484 1.50922C28.6475 1.50958 28.551 1.54998 28.4799 1.62153L28.1569 1.94833C28.1532 1.92823 28.1532 1.90763 28.1569 1.88753C28.1569 1.76878 28.1921 1.6527 28.2581 1.55397C28.3241 1.45523 28.4178 1.37828 28.5275 1.33283C28.6372 1.28739 28.758 1.2755 28.8744 1.29867C28.9909 1.32183 29.0979 1.37902 29.1819 1.46298C29.2658 1.54695 29.323 1.65393 29.3462 1.7704C29.3693 1.88687 29.3574 2.00759 29.312 2.11729C29.2666 2.227 29.1896 2.32077 29.0909 2.38675C28.9921 2.45272 28.876 2.48793 28.7573 2.48793H28.7497Z" fill="black" fill-opacity="0.2"/>
<defs>
<linearGradient id="paint0_linear_3820_20624" x1="17.9973" y1="0.214844" x2="17.9973" y2="35.7954" gradientUnits="userSpaceOnUse">
<stop stop-color="#FF0F0F"/>
<stop offset="1" stop-color="#FF4849"/>
</linearGradient>
<linearGradient id="paint1_linear_3820_20624" x1="16.9853" y1="9.64062" x2="16.9853" y2="33.915" gradientUnits="userSpaceOnUse">
<stop stop-color="#FF0F0F"/>
<stop offset="1" stop-color="#FF4849"/>
</linearGradient>
<linearGradient id="paint2_linear_3820_20624" x1="17.0393" y1="0.519531" x2="17.0393" y2="31.6795" gradientUnits="userSpaceOnUse">
<stop stop-color="#FF0F0F"/>
<stop offset="1" stop-color="#FF4849"/>
</linearGradient>
</defs>
</svg>