<svg width="38" height="38" viewBox="0 0 22 22" fill="none" xmlns="http://www.w3.org/2000/svg">
<path d="M19.3939 0.771646C15.8198 0.832806 11.8602 2.55513 8.67387 5.74153C8.13525 6.28015 7.65067 6.86296 7.21381 7.46165L4.00376 7.17169L3.85376 7.1516L1.50376 9.5016L1.22385 9.78173L1.5638 10.0016L4.83392 12.0817C4.62879 12.6679 4.44754 13.2469 4.30379 13.8116L4.26383 13.9817L4.38392 14.1116L7.90381 17.6317L8.03394 17.7616L8.21385 17.7217C8.77903 17.5779 9.35716 17.3976 9.94374 17.1915L12.0238 20.4617L12.2339 20.7916L12.5238 20.5117L14.8638 18.1717L14.8537 18.0217L14.5638 14.8117C15.1658 14.3724 15.7424 13.8831 16.2839 13.3415C19.9254 9.7 21.6513 5.05525 21.1739 1.12154L21.1437 0.871538L20.8937 0.841405C20.4022 0.781805 19.9045 0.762833 19.3937 0.771536L19.3939 0.771646ZM19.4039 1.41159C19.7948 1.40445 20.1769 1.43637 20.5539 1.47163C20.8943 5.10826 19.2707 9.45506 15.834 12.8916C13.6441 15.0816 10.7836 16.3671 8.22375 17.0416L4.97375 13.7916C5.64809 11.2318 6.93335 8.38226 9.12375 6.19163C12.2039 3.11152 16.0266 1.47358 19.4037 1.41175L19.4039 1.41159ZM14.214 5.25153C12.8039 5.25153 11.6539 6.40153 11.6539 7.81159C11.6539 9.22165 12.8039 10.3716 14.214 10.3716C15.624 10.3716 16.774 9.22165 16.774 7.81159C16.774 6.40153 15.624 5.25153 14.214 5.25153ZM14.214 5.89147C15.2783 5.89147 16.1341 6.7473 16.1341 7.81159C16.1341 8.87587 15.2783 9.7317 14.214 9.7317C13.1497 9.7317 12.2939 8.87587 12.2939 7.81159C12.2939 6.7473 13.1497 5.89147 14.214 5.89147ZM4.10369 7.81159L6.79363 8.06159C6.06975 9.15736 5.499 10.3127 5.05369 11.4616L2.24363 9.67165L4.10369 7.81159ZM13.954 15.2316L14.204 17.9215L12.354 19.7715L10.564 16.9715C11.7082 16.5269 12.8623 15.9526 13.954 15.2316ZM4.21397 15.9816L3.83407 16.1515C3.28407 16.4026 2.74007 16.7753 2.26395 17.2515C1.17469 18.3407 0.646294 19.7244 0.793837 20.9414L0.823971 21.1914L1.07397 21.2215C2.29094 21.3693 3.68471 20.8407 4.77397 19.7514C5.25009 19.2753 5.61283 18.7414 5.86391 18.1914L6.04382 17.8014L5.62395 17.7414C5.28489 17.6916 4.97058 17.5483 4.72395 17.3014C4.47708 17.0548 4.33378 16.7405 4.284 16.4014L4.21397 15.9816ZM3.79388 16.9515C3.90147 17.2408 4.04544 17.5229 4.27401 17.7515C4.50281 17.9805 4.77446 18.124 5.06396 18.2316C4.85883 18.5992 4.65012 18.9754 4.32401 19.3015C3.4439 20.1816 2.35613 20.5973 1.43407 20.5816C1.42157 19.6615 1.84702 18.5785 2.72401 17.7015C3.05325 17.3723 3.42268 17.1575 3.79388 16.9515Z" fill="url(#paint0_linear_3941_23254)"/>
<defs>
<linearGradient id="paint0_linear_3941_23254" x1="16.7275" y1="0.769531" x2="16.6337" y2="25.6339" gradientUnits="userSpaceOnUse">
<stop stop-color="#005CAA"/>
<stop offset="1" stop-color="#64B0F1"/>
</linearGradient>
</defs>
</svg>