<svg width="38" height="38" viewBox="0 0 28 30" fill="none" xmlns="http://www.w3.org/2000/svg">
<path d="M11.8852 22.7406C11.8852 22.6147 11.8352 22.4938 11.7461 22.4047C11.657 22.3157 11.5362 22.2656 11.4102 22.2656H4.28521C4.0738 22.3184 3.92578 22.5084 3.92578 22.7262C3.92578 22.9442 4.0738 23.134 4.28521 23.187H11.4243C11.6705 23.18 11.8705 22.9862 11.8851 22.7406H11.8852Z" fill="url(#paint0_linear_3819_28603)"/>
<path d="M11.8852 22.7406C11.8852 22.6147 11.8352 22.4938 11.7461 22.4047C11.657 22.3157 11.5362 22.2656 11.4102 22.2656H4.28521C4.0738 22.3184 3.92578 22.5084 3.92578 22.7262C3.92578 22.9442 4.0738 23.134 4.28521 23.187H11.4243C11.6705 23.18 11.8705 22.9862 11.8851 22.7406H11.8852Z" fill="black" fill-opacity="0.2"/>
<path d="M14.0984 19.9203C14.0984 19.7944 14.0484 19.6735 13.9593 19.5844C13.8703 19.4954 13.7494 19.4453 13.6234 19.4453H4.27545C4.06424 19.4983 3.91602 19.6881 3.91602 19.9061C3.91602 20.1239 4.06424 20.3139 4.27545 20.3669H13.6424C13.8867 20.3576 14.0839 20.1644 14.0984 19.9203H14.0984Z" fill="url(#paint1_linear_3819_28603)"/>
<path d="M14.0984 19.9203C14.0984 19.7944 14.0484 19.6735 13.9593 19.5844C13.8703 19.4954 13.7494 19.4453 13.6234 19.4453H4.27545C4.06424 19.4983 3.91602 19.6881 3.91602 19.9061C3.91602 20.1239 4.06424 20.3139 4.27545 20.3669H13.6424C13.8867 20.3576 14.0839 20.1644 14.0984 19.9203H14.0984Z" fill="black" fill-opacity="0.2"/>
<path d="M4.27545 25.0938C4.06424 25.1466 3.91602 25.3366 3.91602 25.5543C3.91602 25.7723 4.06424 25.9621 4.27545 26.0151H7.77622C7.98764 25.9621 8.13565 25.7723 8.13565 25.5543C8.13565 25.3366 7.98764 25.1466 7.77622 25.0938H4.27545Z" fill="url(#paint2_linear_3819_28603)"/>
<path d="M4.27545 25.0938C4.06424 25.1466 3.91602 25.3366 3.91602 25.5543C3.91602 25.7723 4.06424 25.9621 4.27545 26.0151H7.77622C7.98764 25.9621 8.13565 25.7723 8.13565 25.5543C8.13565 25.3366 7.98764 25.1466 7.77622 25.0938H4.27545Z" fill="black" fill-opacity="0.2"/>
<path d="M21.7741 26.5909C21.5118 26.5909 21.2991 26.8036 21.2991 27.0659V28.3484H1.468V1.55842H16.3119V6.14682C16.3119 6.27278 16.3619 6.39365 16.451 6.48271C16.5401 6.57177 16.6609 6.62182 16.7869 6.62182H21.3136V12.8918C21.278 13.0339 21.3098 13.1842 21.3999 13.2996C21.4898 13.415 21.6281 13.4824 21.7744 13.4824C21.9207 13.4824 22.0588 13.415 22.1489 13.2996C22.2388 13.1842 22.2706 13.0339 22.2352 12.8918V6.1897V6.14687C22.2324 5.99822 22.1603 5.85932 22.0403 5.77174L17.1003 0.774688C17.0596 0.744576 17.0149 0.720614 16.9674 0.703438H16.9245C16.8851 0.688806 16.8433 0.680748 16.8011 0.679688H1.01211C0.749801 0.679688 0.537109 0.892379 0.537109 1.15469V28.8095C0.537109 28.9354 0.587154 29.0563 0.676217 29.1454C0.765489 29.2344 0.88615 29.2845 1.01211 29.2845H21.7742C21.9002 29.2845 22.0211 29.2344 22.1101 29.1454C22.1992 29.0563 22.2492 28.9354 22.2492 28.8095V27.0471C22.239 26.7922 22.0293 26.5909 21.7742 26.5912L21.7741 26.5909ZM17.2332 5.69092L17.233 2.21876L20.6958 5.68626L17.2332 5.69092Z" fill="url(#paint3_linear_3819_28603)"/>
<path d="M21.7741 26.5909C21.5118 26.5909 21.2991 26.8036 21.2991 27.0659V28.3484H1.468V1.55842H16.3119V6.14682C16.3119 6.27278 16.3619 6.39365 16.451 6.48271C16.5401 6.57177 16.6609 6.62182 16.7869 6.62182H21.3136V12.8918C21.278 13.0339 21.3098 13.1842 21.3999 13.2996C21.4898 13.415 21.6281 13.4824 21.7744 13.4824C21.9207 13.4824 22.0588 13.415 22.1489 13.2996C22.2388 13.1842 22.2706 13.0339 22.2352 12.8918V6.1897V6.14687C22.2324 5.99822 22.1603 5.85932 22.0403 5.77174L17.1003 0.774688C17.0596 0.744576 17.0149 0.720614 16.9674 0.703438H16.9245C16.8851 0.688806 16.8433 0.680748 16.8011 0.679688H1.01211C0.749801 0.679688 0.537109 0.892379 0.537109 1.15469V28.8095C0.537109 28.9354 0.587154 29.0563 0.676217 29.1454C0.765489 29.2344 0.88615 29.2845 1.01211 29.2845H21.7742C21.9002 29.2845 22.0211 29.2344 22.1101 29.1454C22.1992 29.0563 22.2492 28.9354 22.2492 28.8095V27.0471C22.239 26.7922 22.0293 26.5909 21.7742 26.5912L21.7741 26.5909ZM17.2332 5.69092L17.233 2.21876L20.6958 5.68626L17.2332 5.69092Z" fill="black" fill-opacity="0.2"/>
<path d="M21.7793 16.4453C20.8616 16.4591 19.9867 16.8357 19.3458 17.4929C18.705 18.1498 18.3504 19.0341 18.3595 19.9518C18.3687 20.8696 18.741 21.7465 19.3948 22.3907C20.0485 23.0347 20.9309 23.3939 21.8489 23.3893C22.7666 23.3848 23.6454 23.0171 24.2928 22.3665C24.9402 21.7159 25.3039 20.8353 25.3039 19.9175C25.2952 18.9902 24.9192 18.1043 24.2587 17.4535C23.5981 16.8027 22.7066 16.4402 21.7793 16.4453ZM21.7793 22.5584V22.5582C21.0819 22.5396 20.4199 22.2459 19.9378 21.7414C19.4556 21.2369 19.1925 20.5623 19.2054 19.8647C19.2182 19.167 19.5061 18.5027 20.0066 18.0162C20.5068 17.53 21.1793 17.2609 21.8769 17.2679C22.5747 17.2749 23.2415 17.5571 23.7321 18.0534C24.2226 18.5496 24.4975 19.2194 24.4964 19.9173C24.4877 20.6279 24.1959 21.3056 23.6861 21.8004C23.1761 22.2953 22.4899 22.5663 21.7793 22.5536V22.5584Z" fill="url(#paint4_linear_3819_28603)"/>
<path d="M21.7793 16.4453C20.8616 16.4591 19.9867 16.8357 19.3458 17.4929C18.705 18.1498 18.3504 19.0341 18.3595 19.9518C18.3687 20.8696 18.741 21.7465 19.3948 22.3907C20.0485 23.0347 20.9309 23.3939 21.8489 23.3893C22.7666 23.3848 23.6454 23.0171 24.2928 22.3665C24.9402 21.7159 25.3039 20.8353 25.3039 19.9175C25.2952 18.9902 24.9192 18.1043 24.2587 17.4535C23.5981 16.8027 22.7066 16.4402 21.7793 16.4453ZM21.7793 22.5584V22.5582C21.0819 22.5396 20.4199 22.2459 19.9378 21.7414C19.4556 21.2369 19.1925 20.5623 19.2054 19.8647C19.2182 19.167 19.5061 18.5027 20.0066 18.0162C20.5068 17.53 21.1793 17.2609 21.8769 17.2679C22.5747 17.2749 23.2415 17.5571 23.7321 18.0534C24.2226 18.5496 24.4975 19.2194 24.4964 19.9173C24.4877 20.6279 24.1959 21.3056 23.6861 21.8004C23.1761 22.2953 22.4899 22.5663 21.7793 22.5536V22.5584Z" fill="black" fill-opacity="0.2"/>
<path d="M21.7836 14.1797C21.5211 14.1797 21.3086 14.3924 21.3086 14.6547V15.2771C21.3086 15.403 21.3586 15.5237 21.4477 15.613C21.5368 15.702 21.6576 15.7521 21.7836 15.7521C21.9096 15.7521 22.0302 15.702 22.1195 15.613C22.2085 15.5237 22.2586 15.403 22.2586 15.2771V14.6405C22.2507 14.3837 22.0404 14.1797 21.7836 14.1797Z" fill="url(#paint5_linear_3819_28603)"/>
<path d="M21.7836 14.1797C21.5211 14.1797 21.3086 14.3924 21.3086 14.6547V15.2771C21.3086 15.403 21.3586 15.5237 21.4477 15.613C21.5368 15.702 21.6576 15.7521 21.7836 15.7521C21.9096 15.7521 22.0302 15.702 22.1195 15.613C22.2085 15.5237 22.2586 15.403 22.2586 15.2771V14.6405C22.2507 14.3837 22.0404 14.1797 21.7836 14.1797Z" fill="black" fill-opacity="0.2"/>
<path d="M21.7836 24.1094C21.5211 24.1094 21.3086 24.3221 21.3086 24.5844V25.2066C21.3086 25.3325 21.3586 25.4534 21.4477 25.5425C21.5368 25.6315 21.6576 25.6816 21.7836 25.6816C21.9096 25.6816 22.0302 25.6315 22.1195 25.5425C22.2085 25.4534 22.2586 25.3325 22.2586 25.2066V24.5702C22.2507 24.3134 22.0404 24.1092 21.7836 24.1094Z" fill="url(#paint6_linear_3819_28603)"/>
<path d="M21.7836 24.1094C21.5211 24.1094 21.3086 24.3221 21.3086 24.5844V25.2066C21.3086 25.3325 21.3586 25.4534 21.4477 25.5425C21.5368 25.6315 21.6576 25.6816 21.7836 25.6816C21.9096 25.6816 22.0302 25.6315 22.1195 25.5425C22.2085 25.4534 22.2586 25.3325 22.2586 25.2066V24.5702C22.2507 24.3134 22.0404 24.1092 21.7836 24.1094Z" fill="black" fill-opacity="0.2"/>
<path d="M18.7962 16.9504C18.9682 16.7676 18.9682 16.4826 18.7962 16.2998L18.3545 15.8581V15.8579C18.2796 15.7317 18.1507 15.6471 18.0052 15.6287C17.8596 15.6105 17.7137 15.6605 17.61 15.7642C17.5061 15.8679 17.456 16.0138 17.4745 16.1595C17.4929 16.3051 17.5775 16.4341 17.7037 16.5087L18.1454 16.9504C18.2306 17.0369 18.3473 17.0849 18.4684 17.0836C18.5907 17.0829 18.7082 17.0354 18.7962 16.9504Z" fill="url(#paint7_linear_3819_28603)"/>
<path d="M18.7962 16.9504C18.9682 16.7676 18.9682 16.4826 18.7962 16.2998L18.3545 15.8581V15.8579C18.2796 15.7317 18.1507 15.6471 18.0052 15.6287C17.8596 15.6105 17.7137 15.6605 17.61 15.7642C17.5061 15.8679 17.456 16.0138 17.4745 16.1595C17.4929 16.3051 17.5775 16.4341 17.7037 16.5087L18.1454 16.9504C18.2306 17.0369 18.3473 17.0849 18.4684 17.0836C18.5907 17.0829 18.7082 17.0354 18.7962 16.9504Z" fill="black" fill-opacity="0.2"/>
<path d="M25.4134 22.8788C25.2268 22.7683 24.9888 22.7982 24.8355 22.9517C24.682 23.105 24.6521 23.343 24.7626 23.5296L25.2043 23.9713H25.2045C25.3911 24.082 25.629 24.0519 25.7823 23.8986C25.9357 23.745 25.9658 23.5073 25.8551 23.3205L25.4134 22.8788Z" fill="url(#paint8_linear_3819_28603)"/>
<path d="M25.4134 22.8788C25.2268 22.7683 24.9888 22.7982 24.8355 22.9517C24.682 23.105 24.6521 23.343 24.7626 23.5296L25.2043 23.9713H25.2045C25.3911 24.082 25.629 24.0519 25.7823 23.8986C25.9357 23.745 25.9658 23.5073 25.8551 23.3205L25.4134 22.8788Z" fill="black" fill-opacity="0.2"/>
<path d="M27.0849 19.4541H26.4579C26.3152 19.4153 26.1625 19.4452 26.0448 19.5351C25.9273 19.6251 25.8584 19.7646 25.8584 19.9126C25.8584 20.0606 25.9273 20.2001 26.0448 20.2898C26.1625 20.3797 26.3152 20.4096 26.4579 20.3708H27.0803C27.2915 20.318 27.4397 20.128 27.4397 19.9103C27.4397 19.6923 27.2915 19.5025 27.0803 19.4495L27.0849 19.4541Z" fill="url(#paint9_linear_3819_28603)"/>
<path d="M27.0849 19.4541H26.4579C26.3152 19.4153 26.1625 19.4452 26.0448 19.5351C25.9273 19.6251 25.8584 19.7646 25.8584 19.9126C25.8584 20.0606 25.9273 20.2001 26.0448 20.2898C26.1625 20.3797 26.3152 20.4096 26.4579 20.3708H27.0803C27.2915 20.318 27.4397 20.128 27.4397 19.9103C27.4397 19.6923 27.2915 19.5025 27.0803 19.4495L27.0849 19.4541Z" fill="black" fill-opacity="0.2"/>
<path d="M16.4776 20.3729H17.1047C17.2306 20.3729 17.3513 20.3228 17.4406 20.2337C17.5296 20.1447 17.5797 20.0238 17.5797 19.8979C17.5797 19.7719 17.5296 19.6512 17.4406 19.562C17.3513 19.4729 17.2306 19.4229 17.1047 19.4229H16.4776C16.3347 19.384 16.182 19.4142 16.0645 19.5039C15.9471 19.5938 15.8779 19.7333 15.8779 19.8813C15.8779 20.0293 15.9471 20.1689 16.0645 20.2588C16.182 20.3485 16.3347 20.3786 16.4776 20.3398V20.3729Z" fill="url(#paint10_linear_3819_28603)"/>
<path d="M16.4776 20.3729H17.1047C17.2306 20.3729 17.3513 20.3228 17.4406 20.2337C17.5296 20.1447 17.5797 20.0238 17.5797 19.8979C17.5797 19.7719 17.5296 19.6512 17.4406 19.562C17.3513 19.4729 17.2306 19.4229 17.1047 19.4229H16.4776C16.3347 19.384 16.182 19.4142 16.0645 19.5039C15.9471 19.5938 15.8779 19.7333 15.8779 19.8813C15.8779 20.0293 15.9471 20.1689 16.0645 20.2588C16.182 20.3485 16.3347 20.3786 16.4776 20.3398V20.3729Z" fill="black" fill-opacity="0.2"/>
<path d="M25.2036 15.858L24.7618 16.2951H24.7616C24.5899 16.4779 24.5899 16.7631 24.7616 16.9459C24.8448 17.036 24.9622 17.086 25.0848 17.0837C25.2069 17.0831 25.3244 17.0356 25.4124 16.9505L25.8541 16.5135V16.5137C25.9695 16.3269 25.9417 16.0853 25.7871 15.9295C25.6325 15.7736 25.3912 15.7442 25.2036 15.858Z" fill="url(#paint11_linear_3819_28603)"/>
<path d="M25.2036 15.858L24.7618 16.2951H24.7616C24.5899 16.4779 24.5899 16.7631 24.7616 16.9459C24.8448 17.036 24.9622 17.086 25.0848 17.0837C25.2069 17.0831 25.3244 17.0356 25.4124 16.9505L25.8541 16.5135V16.5137C25.9695 16.3269 25.9417 16.0853 25.7871 15.9295C25.6325 15.7736 25.3912 15.7442 25.2036 15.858Z" fill="black" fill-opacity="0.2"/>
<path d="M17.7037 23.9818C17.7917 24.0666 17.9092 24.1143 18.0316 24.1147C18.1526 24.1162 18.2693 24.0681 18.3545 23.9818L18.8011 23.5447H18.8009C18.9163 23.3579 18.8885 23.1164 18.7339 22.9605C18.5793 22.8049 18.338 22.7754 18.1503 22.8893L17.7086 23.331H17.7084C17.5351 23.5127 17.5332 23.7977 17.7037 23.9818Z" fill="url(#paint12_linear_3819_28603)"/>
<path d="M17.7037 23.9818C17.7917 24.0666 17.9092 24.1143 18.0316 24.1147C18.1526 24.1162 18.2693 24.0681 18.3545 23.9818L18.8011 23.5447H18.8009C18.9163 23.3579 18.8885 23.1164 18.7339 22.9605C18.5793 22.8049 18.338 22.7754 18.1503 22.8893L17.7086 23.331H17.7084C17.5351 23.5127 17.5332 23.7977 17.7037 23.9818Z" fill="black" fill-opacity="0.2"/>
<path d="M21.788 20.33H21.75C21.4527 20.3141 21.1777 20.1669 20.9998 19.9281C20.8217 19.6896 20.7591 19.384 20.8289 19.0946C20.8984 18.8049 21.0933 18.5615 21.3605 18.43V18.2258C21.3605 17.9974 21.5456 17.8125 21.7738 17.8125C22.0019 17.8125 22.1871 17.9974 22.1871 18.2258V18.4111V18.4109C22.3667 18.4743 22.5291 18.5784 22.6621 18.715C22.8196 18.874 22.8196 19.1306 22.6621 19.2897C22.4986 19.446 22.2411 19.446 22.0776 19.2897C21.9937 19.2155 21.8859 19.1735 21.7738 19.1709C21.6864 19.1853 21.6223 19.2606 21.6223 19.349C21.6223 19.4375 21.6864 19.513 21.7738 19.5272H21.8117C22.106 19.5479 22.3764 19.6968 22.5514 19.9345C22.7265 20.172 22.7884 20.4744 22.721 20.7617C22.6536 21.0491 22.4636 21.2923 22.2013 21.4272V21.6314C22.1786 21.8438 21.9992 22.005 21.7856 22.005C21.5719 22.005 21.3927 21.8438 21.37 21.6314V21.4509C21.1912 21.3835 21.0292 21.2781 20.895 21.1422C20.7402 20.9729 20.7519 20.7104 20.9211 20.5556C21.0903 20.4008 21.353 20.4125 21.5077 20.5817C21.5918 20.6515 21.6977 20.69 21.8071 20.6909C21.8942 20.6767 21.9583 20.6012 21.9583 20.5128C21.9583 20.4243 21.8942 20.3491 21.8071 20.3347L21.788 20.33Z" fill="url(#paint13_linear_3819_28603)"/>
<path d="M21.788 20.33H21.75C21.4527 20.3141 21.1777 20.1669 20.9998 19.9281C20.8217 19.6896 20.7591 19.384 20.8289 19.0946C20.8984 18.8049 21.0933 18.5615 21.3605 18.43V18.2258C21.3605 17.9974 21.5456 17.8125 21.7738 17.8125C22.0019 17.8125 22.1871 17.9974 22.1871 18.2258V18.4111V18.4109C22.3667 18.4743 22.5291 18.5784 22.6621 18.715C22.8196 18.874 22.8196 19.1306 22.6621 19.2897C22.4986 19.446 22.2411 19.446 22.0776 19.2897C21.9937 19.2155 21.8859 19.1735 21.7738 19.1709C21.6864 19.1853 21.6223 19.2606 21.6223 19.349C21.6223 19.4375 21.6864 19.513 21.7738 19.5272H21.8117C22.106 19.5479 22.3764 19.6968 22.5514 19.9345C22.7265 20.172 22.7884 20.4744 22.721 20.7617C22.6536 21.0491 22.4636 21.2923 22.2013 21.4272V21.6314C22.1786 21.8438 21.9992 22.005 21.7856 22.005C21.5719 22.005 21.3927 21.8438 21.37 21.6314V21.4509C21.1912 21.3835 21.0292 21.2781 20.895 21.1422C20.7402 20.9729 20.7519 20.7104 20.9211 20.5556C21.0903 20.4008 21.353 20.4125 21.5077 20.5817C21.5918 20.6515 21.6977 20.69 21.8071 20.6909C21.8942 20.6767 21.9583 20.6012 21.9583 20.5128C21.9583 20.4243 21.8942 20.3491 21.8071 20.3347L21.788 20.33Z" fill="black" fill-opacity="0.2"/>
<path d="M16.2741 9.14296C16.156 8.92073 15.8852 8.82913 15.6566 8.93388C15.4458 9.05962 15.3655 9.32532 15.4713 9.54671C15.5141 9.64171 15.5567 9.73204 15.5947 9.82704V9.82683C15.6676 9.99923 15.8352 10.1127 16.0222 10.1167C16.0809 10.1171 16.139 10.1059 16.1933 10.0834C16.4126 9.97293 16.5114 9.71338 16.4213 9.48502C16.3784 9.37094 16.3263 9.25217 16.2741 9.14296Z" fill="url(#paint14_linear_3819_28603)"/>
<path d="M16.2741 9.14296C16.156 8.92073 15.8852 8.82913 15.6566 8.93388C15.4458 9.05962 15.3655 9.32532 15.4713 9.54671C15.5141 9.64171 15.5567 9.73204 15.5947 9.82704V9.82683C15.6676 9.99923 15.8352 10.1127 16.0222 10.1167C16.0809 10.1171 16.139 10.1059 16.1933 10.0834C16.4126 9.97293 16.5114 9.71338 16.4213 9.48502C16.3784 9.37094 16.3263 9.25217 16.2741 9.14296Z" fill="black" fill-opacity="0.2"/>
<path d="M11.396 5.96876C10.063 5.96579 8.77548 6.45373 7.77923 7.33926C6.78298 8.22499 6.14789 9.44663 5.9948 10.7709C5.84191 12.0952 6.18183 13.4293 6.94991 14.5188C6.7493 14.5858 6.6172 14.7777 6.62589 14.9891C6.63479 15.2005 6.78238 15.3808 6.98807 15.4308H7.02137L7.90014 15.3642H7.94298L8.05219 15.3309L8.10923 15.3025H8.10902C8.13658 15.283 8.16203 15.2607 8.18493 15.2361L8.23243 15.1886C8.25215 15.1623 8.26806 15.1335 8.27993 15.103L8.30835 15.0413L8.51255 14.1816H8.51276C8.56408 13.935 8.41416 13.6911 8.17072 13.6258C7.94298 13.584 7.7182 13.7123 7.63868 13.9299C7.01716 13.0192 6.75083 11.912 6.89035 10.8182C7.02967 9.7245 7.56534 8.71978 8.39569 7.99414C9.22588 7.2685 10.2934 6.8726 11.3961 6.88085C12.6586 6.87979 13.8642 7.40695 14.7211 8.33424C14.9036 8.45723 15.1469 8.43878 15.3084 8.28929C15.4702 8.14 15.5082 7.89911 15.4003 7.7074C14.3655 6.59601 12.9145 5.96599 11.396 5.96876Z" fill="url(#paint15_linear_3819_28603)"/>
<path d="M11.396 5.96876C10.063 5.96579 8.77548 6.45373 7.77923 7.33926C6.78298 8.22499 6.14789 9.44663 5.9948 10.7709C5.84191 12.0952 6.18183 13.4293 6.94991 14.5188C6.7493 14.5858 6.6172 14.7777 6.62589 14.9891C6.63479 15.2005 6.78238 15.3808 6.98807 15.4308H7.02137L7.90014 15.3642H7.94298L8.05219 15.3309L8.10923 15.3025H8.10902C8.13658 15.283 8.16203 15.2607 8.18493 15.2361L8.23243 15.1886C8.25215 15.1623 8.26806 15.1335 8.27993 15.103L8.30835 15.0413L8.51255 14.1816H8.51276C8.56408 13.935 8.41416 13.6911 8.17072 13.6258C7.94298 13.584 7.7182 13.7123 7.63868 13.9299C7.01716 13.0192 6.75083 11.912 6.89035 10.8182C7.02967 9.7245 7.56534 8.71978 8.39569 7.99414C9.22588 7.2685 10.2934 6.8726 11.3961 6.88085C12.6586 6.87979 13.8642 7.40695 14.7211 8.33424C14.9036 8.45723 15.1469 8.43878 15.3084 8.28929C15.4702 8.14 15.5082 7.89911 15.4003 7.7074C14.3655 6.59601 12.9145 5.96599 11.396 5.96876Z" fill="black" fill-opacity="0.2"/>
<path d="M15.8937 11.3203V11.5624V11.5626C15.9465 11.7739 16.1365 11.9221 16.3543 11.9221C16.5722 11.9221 16.762 11.7739 16.8151 11.5626V11.2681C16.793 11.0225 16.5867 10.8349 16.3401 10.8359C16.0852 10.8512 15.888 11.0652 15.8937 11.3203Z" fill="url(#paint16_linear_3819_28603)"/>
<path d="M15.8937 11.3203V11.5624V11.5626C15.9465 11.7739 16.1365 11.9221 16.3543 11.9221C16.5722 11.9221 16.762 11.7739 16.8151 11.5626V11.2681C16.793 11.0225 16.5867 10.8349 16.3401 10.8359C16.0852 10.8512 15.888 11.0652 15.8937 11.3203Z" fill="black" fill-opacity="0.2"/>
<path d="M11.0492 8.3047C10.7867 8.3047 10.5742 8.5174 10.5742 8.7797V11.5109C10.5742 11.5745 10.5872 11.6375 10.6122 11.6963C10.6851 11.8687 10.8524 11.9821 11.0397 11.9859H12.9017C13.0444 12.0247 13.1971 11.9948 13.3148 11.9049C13.4323 11.815 13.5012 11.6755 13.5012 11.5275C13.5012 11.3797 13.4323 11.2401 13.3148 11.1502C13.1971 11.0603 13.0444 11.0304 12.9017 11.0692H11.4767V8.75127C11.4638 8.51738 11.2823 8.32782 11.0492 8.3047Z" fill="url(#paint17_linear_3819_28603)"/>
<path d="M11.0492 8.3047C10.7867 8.3047 10.5742 8.5174 10.5742 8.7797V11.5109C10.5742 11.5745 10.5872 11.6375 10.6122 11.6963C10.6851 11.8687 10.8524 11.9821 11.0397 11.9859H12.9017C13.0444 12.0247 13.1971 11.9948 13.3148 11.9049C13.4323 11.815 13.5012 11.6755 13.5012 11.5275C13.5012 11.3797 13.4323 11.2401 13.3148 11.1502C13.1971 11.0603 13.0444 11.0304 12.9017 11.0692H11.4767V8.75127C11.4638 8.51738 11.2823 8.32782 11.0492 8.3047Z" fill="black" fill-opacity="0.2"/>
<path d="M16.2495 13.4256C16.3369 13.3099 16.3668 13.1606 16.3305 13.0202C16.2943 12.8798 16.1959 12.7636 16.0633 12.7049C15.9308 12.6461 15.7786 12.651 15.6501 12.7182C15.5218 12.7857 15.431 12.9078 15.4039 13.0503C15.0699 13.8383 14.5109 14.5103 13.7971 14.9825C13.0831 15.4548 12.2462 15.7063 11.3901 15.7056C10.8076 15.7073 10.2308 15.5911 9.69452 15.3636C9.57789 15.2728 9.42564 15.2414 9.28271 15.2788C9.13979 15.3163 9.02231 15.4179 8.96505 15.554C8.90759 15.6901 8.91692 15.8452 8.99008 15.9737C9.06324 16.102 9.19174 16.1889 9.33827 16.209C10.6257 16.7545 12.0771 16.7661 13.3732 16.2415C14.6693 15.7167 15.7039 14.6988 16.2495 13.4112L16.2495 13.4256Z" fill="url(#paint18_linear_3819_28603)"/>
<path d="M16.2495 13.4256C16.3369 13.3099 16.3668 13.1606 16.3305 13.0202C16.2943 12.8798 16.1959 12.7636 16.0633 12.7049C15.9308 12.6461 15.7786 12.651 15.6501 12.7182C15.5218 12.7857 15.431 12.9078 15.4039 13.0503C15.0699 13.8383 14.5109 14.5103 13.7971 14.9825C13.0831 15.4548 12.2462 15.7063 11.3901 15.7056C10.8076 15.7073 10.2308 15.5911 9.69452 15.3636C9.57789 15.2728 9.42564 15.2414 9.28271 15.2788C9.13979 15.3163 9.02231 15.4179 8.96505 15.554C8.90759 15.6901 8.91692 15.8452 8.99008 15.9737C9.06324 16.102 9.19174 16.1889 9.33827 16.209C10.6257 16.7545 12.0771 16.7661 13.3732 16.2415C14.6693 15.7167 15.7039 14.6988 16.2495 13.4112L16.2495 13.4256Z" fill="black" fill-opacity="0.2"/>
<defs>
<linearGradient id="paint0_linear_3819_28603" x1="7.9055" y1="22.2656" x2="7.9055" y2="23.187" gradientUnits="userSpaceOnUse">
<stop stop-color="#FF0F0F"/>
<stop offset="1" stop-color="#FF4849"/>
</linearGradient>
<linearGradient id="paint1_linear_3819_28603" x1="9.00723" y1="19.4453" x2="9.00723" y2="20.3669" gradientUnits="userSpaceOnUse">
<stop stop-color="#FF0F0F"/>
<stop offset="1" stop-color="#FF4849"/>
</linearGradient>
<linearGradient id="paint2_linear_3819_28603" x1="6.02584" y1="25.0938" x2="6.02584" y2="26.0151" gradientUnits="userSpaceOnUse">
<stop stop-color="#FF0F0F"/>
<stop offset="1" stop-color="#FF4849"/>
</linearGradient>
<linearGradient id="paint3_linear_3819_28603" x1="11.3932" y1="0.679687" x2="11.3932" y2="29.2845" gradientUnits="userSpaceOnUse">
<stop stop-color="#FF0F0F"/>
<stop offset="1" stop-color="#FF4849"/>
</linearGradient>
<linearGradient id="paint4_linear_3819_28603" x1="21.8316" y1="16.4453" x2="21.8316" y2="23.3893" gradientUnits="userSpaceOnUse">
<stop stop-color="#FF0F0F"/>
<stop offset="1" stop-color="#FF4849"/>
</linearGradient>
<linearGradient id="paint5_linear_3819_28603" x1="21.7836" y1="14.1797" x2="21.7836" y2="15.7521" gradientUnits="userSpaceOnUse">
<stop stop-color="#FF0F0F"/>
<stop offset="1" stop-color="#FF4849"/>
</linearGradient>
<linearGradient id="paint6_linear_3819_28603" x1="21.7836" y1="24.1094" x2="21.7836" y2="25.6816" gradientUnits="userSpaceOnUse">
<stop stop-color="#FF0F0F"/>
<stop offset="1" stop-color="#FF4849"/>
</linearGradient>
<linearGradient id="paint7_linear_3819_28603" x1="18.1979" y1="15.625" x2="18.1979" y2="17.0836" gradientUnits="userSpaceOnUse">
<stop stop-color="#FF0F0F"/>
<stop offset="1" stop-color="#FF4849"/>
</linearGradient>
<linearGradient id="paint8_linear_3819_28603" x1="25.3089" y1="22.8125" x2="25.3089" y2="24.0377" gradientUnits="userSpaceOnUse">
<stop stop-color="#FF0F0F"/>
<stop offset="1" stop-color="#FF4849"/>
</linearGradient>
<linearGradient id="paint9_linear_3819_28603" x1="26.649" y1="19.4375" x2="26.649" y2="20.3875" gradientUnits="userSpaceOnUse">
<stop stop-color="#FF0F0F"/>
<stop offset="1" stop-color="#FF4849"/>
</linearGradient>
<linearGradient id="paint10_linear_3819_28603" x1="16.7288" y1="19.4062" x2="16.7288" y2="20.3729" gradientUnits="userSpaceOnUse">
<stop stop-color="#FF0F0F"/>
<stop offset="1" stop-color="#FF4849"/>
</linearGradient>
<linearGradient id="paint11_linear_3819_28603" x1="25.2789" y1="15.7891" x2="25.2789" y2="17.0838" gradientUnits="userSpaceOnUse">
<stop stop-color="#FF0F0F"/>
<stop offset="1" stop-color="#FF4849"/>
</linearGradient>
<linearGradient id="paint12_linear_3819_28603" x1="18.2244" y1="22.8203" x2="18.2244" y2="24.1148" gradientUnits="userSpaceOnUse">
<stop stop-color="#FF0F0F"/>
<stop offset="1" stop-color="#FF4849"/>
</linearGradient>
<linearGradient id="paint13_linear_3819_28603" x1="21.7832" y1="17.8125" x2="21.7832" y2="22.005" gradientUnits="userSpaceOnUse">
<stop stop-color="#FF0F0F"/>
<stop offset="1" stop-color="#FF4849"/>
</linearGradient>
<linearGradient id="paint14_linear_3819_28603" x1="15.9397" y1="8.89062" x2="15.9397" y2="10.1167" gradientUnits="userSpaceOnUse">
<stop stop-color="#FF0F0F"/>
<stop offset="1" stop-color="#FF4849"/>
</linearGradient>
<linearGradient id="paint15_linear_3819_28603" x1="10.7101" y1="5.96875" x2="10.7101" y2="15.4308" gradientUnits="userSpaceOnUse">
<stop stop-color="#FF0F0F"/>
<stop offset="1" stop-color="#FF4849"/>
</linearGradient>
<linearGradient id="paint16_linear_3819_28603" x1="16.3543" y1="10.8359" x2="16.3543" y2="11.9221" gradientUnits="userSpaceOnUse">
<stop stop-color="#FF0F0F"/>
<stop offset="1" stop-color="#FF4849"/>
</linearGradient>
<linearGradient id="paint17_linear_3819_28603" x1="12.0377" y1="8.30469" x2="12.0377" y2="12.0026" gradientUnits="userSpaceOnUse">
<stop stop-color="#FF0F0F"/>
<stop offset="1" stop-color="#FF4849"/>
</linearGradient>
<linearGradient id="paint18_linear_3819_28603" x1="12.6367" y1="12.6641" x2="12.6367" y2="16.6267" gradientUnits="userSpaceOnUse">
<stop stop-color="#FF0F0F"/>
<stop offset="1" stop-color="#FF4849"/>
</linearGradient>
</defs>
</svg>