<svg width="38" height="38" viewBox="0 0 28 30" fill="none" xmlns="http://www.w3.org/2000/svg">
<path d="M18.2612 12.6098V9.78837H19.2112C19.4735 9.78837 19.6862 9.57568 19.6862 9.31337V5.51337C19.6862 5.25106 19.4735 5.03837 19.2112 5.03837H18.2612V2.21698C18.2612 1.41539 17.6091 0.763367 16.8075 0.763367H1.66455C0.862963 0.763367 0.210938 1.41545 0.210938 2.21698V12.61C0.210938 13.4113 0.863017 14.0634 1.66455 14.0634H16.8075C17.6089 14.0634 18.2609 13.4113 18.2609 12.6098H18.2612ZM18.7362 8.83837C18.1138 8.83815 15.6063 8.83858 14.9362 8.83837C13.6997 8.87357 13.033 7.25854 13.9268 6.4061C14.199 6.14972 14.5585 5.98665 14.9362 5.98835H18.7362V8.83837ZM1.16115 12.6098V2.21676C1.16115 1.93897 1.38699 1.71313 1.66478 1.71313H16.8078C17.0854 1.71313 17.3112 1.93897 17.3112 2.21676V5.03815H14.9362C14.3072 5.03815 13.7114 5.28392 13.2584 5.73073C13.2567 5.73221 13.2553 5.7337 13.2538 5.73539C11.7643 7.17755 12.863 9.82674 14.9362 9.78815H17.3112V12.6095C17.3112 12.8873 17.0854 13.1132 16.8076 13.1132H1.66457C1.38678 13.1132 1.16095 12.8873 1.16095 12.6095L1.16115 12.6098Z" fill="url(#paint0_linear_3240_13131)"/>
<path d="M18.2612 12.6098V9.78837H19.2112C19.4735 9.78837 19.6862 9.57568 19.6862 9.31337V5.51337C19.6862 5.25106 19.4735 5.03837 19.2112 5.03837H18.2612V2.21698C18.2612 1.41539 17.6091 0.763367 16.8075 0.763367H1.66455C0.862963 0.763367 0.210938 1.41545 0.210938 2.21698V12.61C0.210938 13.4113 0.863017 14.0634 1.66455 14.0634H16.8075C17.6089 14.0634 18.2609 13.4113 18.2609 12.6098H18.2612ZM18.7362 8.83837C18.1138 8.83815 15.6063 8.83858 14.9362 8.83837C13.6997 8.87357 13.033 7.25854 13.9268 6.4061C14.199 6.14972 14.5585 5.98665 14.9362 5.98835H18.7362V8.83837ZM1.16115 12.6098V2.21676C1.16115 1.93897 1.38699 1.71313 1.66478 1.71313H16.8078C17.0854 1.71313 17.3112 1.93897 17.3112 2.21676V5.03815H14.9362C14.3072 5.03815 13.7114 5.28392 13.2584 5.73073C13.2567 5.73221 13.2553 5.7337 13.2538 5.73539C11.7643 7.17755 12.863 9.82674 14.9362 9.78815H17.3112V12.6095C17.3112 12.8873 17.0854 13.1132 16.8076 13.1132H1.66457C1.38678 13.1132 1.16095 12.8873 1.16095 12.6095L1.16115 12.6098Z" fill="black" fill-opacity="0.2"/>
<path d="M7.8125 10.2635H3.5375C3.27519 10.2635 3.0625 10.4762 3.0625 10.7385C3.0625 11.0009 3.27519 11.2135 3.5375 11.2135H7.8125C8.43554 11.2034 8.43787 10.2741 7.8125 10.2635Z" fill="url(#paint1_linear_3240_13131)"/>
<path d="M7.8125 10.2635H3.5375C3.27519 10.2635 3.0625 10.4762 3.0625 10.7385C3.0625 11.0009 3.27519 11.2135 3.5375 11.2135H7.8125C8.43554 11.2034 8.43787 10.2741 7.8125 10.2635Z" fill="black" fill-opacity="0.2"/>
<path d="M24.4344 26.1166V7.41354C24.4344 7.15123 24.2217 6.93854 23.9594 6.93854H21.1094C20.8471 6.93854 20.6344 7.15123 20.6344 7.41354C20.6344 7.67585 20.8471 7.88854 21.1094 7.88854H23.4844V25.6416H14.9344V15.4885C14.9261 14.8687 13.9947 14.8609 13.9844 15.4885V26.1166C13.9844 26.3789 14.1971 26.5916 14.4594 26.5916H23.9594C24.2217 26.5916 24.4344 26.3789 24.4344 26.1166Z" fill="url(#paint2_linear_3240_13131)"/>
<path d="M24.4344 26.1166V7.41354C24.4344 7.15123 24.2217 6.93854 23.9594 6.93854H21.1094C20.8471 6.93854 20.6344 7.15123 20.6344 7.41354C20.6344 7.67585 20.8471 7.88854 21.1094 7.88854H23.4844V25.6416H14.9344V15.4885C14.9261 14.8687 13.9947 14.8609 13.9844 15.4885V26.1166C13.9844 26.3789 14.1971 26.5916 14.4594 26.5916H23.9594C24.2217 26.5916 24.4344 26.3789 24.4344 26.1166Z" fill="black" fill-opacity="0.2"/>
<path d="M19.211 14.0923C17.477 14.0923 16.0664 15.3217 16.0664 16.8331C16.2176 20.4679 22.205 20.4668 22.3554 16.8331C22.3554 15.3215 20.9448 14.0923 19.2109 14.0923H19.211ZM19.211 18.6283C16.3107 18.5476 16.3065 15.122 19.211 15.0421C22.1159 15.1223 22.1106 18.548 19.211 18.6283Z" fill="url(#paint3_linear_3240_13131)"/>
<path d="M19.211 14.0923C17.477 14.0923 16.0664 15.3217 16.0664 16.8331C16.2176 20.4679 22.205 20.4668 22.3554 16.8331C22.3554 15.3215 20.9448 14.0923 19.2109 14.0923H19.211ZM19.211 18.6283C16.3107 18.5476 16.3065 15.122 19.211 15.0421C22.1159 15.1223 22.1106 18.548 19.211 18.6283Z" fill="black" fill-opacity="0.2"/>
<path d="M16.3617 20.2977C16.0994 20.2977 15.8867 20.5104 15.8867 20.7727V22.9993C15.8867 23.152 15.9618 23.2942 16.0854 23.3835C16.2093 23.4728 16.3698 23.4974 16.515 23.4486C16.627 23.4121 17.6326 23.1157 18.3446 24.1579C18.4331 24.2875 18.58 24.3649 18.7367 24.3649H19.6867C19.8434 24.3649 19.9904 24.2875 20.079 24.1579C20.792 23.1161 21.7967 23.4126 21.905 23.4475C22.2004 23.5603 22.5461 23.3165 22.5368 22.9993V20.7727C22.5368 20.5104 22.3241 20.2977 22.0618 20.2977C21.7994 20.2977 21.5868 20.5104 21.5868 20.7727V22.4375C20.9495 22.4095 20.1028 22.6076 19.4486 23.4149H18.9751C18.3205 22.6076 17.4744 22.4089 16.8367 22.4375V20.7727C16.8367 20.5104 16.624 20.2977 16.3617 20.2977Z" fill="url(#paint4_linear_3240_13131)"/>
<path d="M16.3617 20.2977C16.0994 20.2977 15.8867 20.5104 15.8867 20.7727V22.9993C15.8867 23.152 15.9618 23.2942 16.0854 23.3835C16.2093 23.4728 16.3698 23.4974 16.515 23.4486C16.627 23.4121 17.6326 23.1157 18.3446 24.1579C18.4331 24.2875 18.58 24.3649 18.7367 24.3649H19.6867C19.8434 24.3649 19.9904 24.2875 20.079 24.1579C20.792 23.1161 21.7967 23.4126 21.905 23.4475C22.2004 23.5603 22.5461 23.3165 22.5368 22.9993V20.7727C22.5368 20.5104 22.3241 20.2977 22.0618 20.2977C21.7994 20.2977 21.5868 20.5104 21.5868 20.7727V22.4375C20.9495 22.4095 20.1028 22.6076 19.4486 23.4149H18.9751C18.3205 22.6076 17.4744 22.4089 16.8367 22.4375V20.7727C16.8367 20.5104 16.624 20.2977 16.3617 20.2977Z" fill="black" fill-opacity="0.2"/>
<path d="M27.2875 9.16534H25.8625C25.2382 9.17595 25.2382 10.1048 25.8625 10.1153H26.8125V28.3135H18.2625V27.8385C18.253 27.2134 17.3221 27.2153 17.3125 27.8385V28.7885C17.3125 29.0509 17.5252 29.2635 17.7875 29.2635H27.2875C27.5498 29.2635 27.7625 29.0509 27.7625 28.7885V9.64034C27.7625 9.37804 27.5498 9.16534 27.2875 9.16534Z" fill="url(#paint5_linear_3240_13131)"/>
<path d="M27.2875 9.16534H25.8625C25.2382 9.17595 25.2382 10.1048 25.8625 10.1153H26.8125V28.3135H18.2625V27.8385C18.253 27.2134 17.3221 27.2153 17.3125 27.8385V28.7885C17.3125 29.0509 17.5252 29.2635 17.7875 29.2635H27.2875C27.5498 29.2635 27.7625 29.0509 27.7625 28.7885V9.64034C27.7625 9.37804 27.5498 9.16534 27.2875 9.16534Z" fill="black" fill-opacity="0.2"/>
<defs>
<linearGradient id="paint0_linear_3240_13131" x1="9.94855" y1="0.763367" x2="9.94855" y2="14.0634" gradientUnits="userSpaceOnUse">
<stop stop-color="#FF0F0F"/>
<stop offset="1" stop-color="#FF4849"/>
</linearGradient>
<linearGradient id="paint1_linear_3240_13131" x1="5.67158" y1="10.2635" x2="5.67158" y2="11.2135" gradientUnits="userSpaceOnUse">
<stop stop-color="#FF0F0F"/>
<stop offset="1" stop-color="#FF4849"/>
</linearGradient>
<linearGradient id="paint2_linear_3240_13131" x1="19.2094" y1="6.93854" x2="19.2094" y2="26.5916" gradientUnits="userSpaceOnUse">
<stop stop-color="#FF0F0F"/>
<stop offset="1" stop-color="#FF4849"/>
</linearGradient>
<linearGradient id="paint3_linear_3240_13131" x1="19.2109" y1="14.0923" x2="19.2109" y2="19.5588" gradientUnits="userSpaceOnUse">
<stop stop-color="#FF0F0F"/>
<stop offset="1" stop-color="#FF4849"/>
</linearGradient>
<linearGradient id="paint4_linear_3240_13131" x1="19.2118" y1="20.2977" x2="19.2118" y2="24.3649" gradientUnits="userSpaceOnUse">
<stop stop-color="#FF0F0F"/>
<stop offset="1" stop-color="#FF4849"/>
</linearGradient>
<linearGradient id="paint5_linear_3240_13131" x1="22.5375" y1="9.16534" x2="22.5375" y2="29.2635" gradientUnits="userSpaceOnUse">
<stop stop-color="#FF0F0F"/>
<stop offset="1" stop-color="#FF4849"/>
</linearGradient>
</defs>
</svg>