<svg width="38" height="38" viewBox="0 0 28 30" fill="none" xmlns="http://www.w3.org/2000/svg">
<path d="M14.7591 0.484605C11.4739 0.484605 8.32257 1.78752 5.99914 4.10649C3.67571 6.42569 2.37011 9.57209 2.37011 12.8522C2.37011 13.9069 2.50627 14.9562 2.77167 15.9748H2.72435C1.70046 15.9748 0.859375 16.8127 0.859375 17.8359V24.5074C0.859375 25.5306 1.70046 26.3683 2.72435 26.3683H2.79801V28.9843L2.79823 28.9848C2.79823 29.187 2.92033 29.3694 3.10739 29.4466C3.29444 29.5238 3.5094 29.4807 3.65226 29.3374L6.61071 26.3687H13.269C14.042 26.3687 14.7103 25.891 14.992 25.2169C18.1933 25.1564 21.2514 23.8622 23.52 21.5977C25.8434 19.2788 27.149 16.1323 27.149 12.852C27.149 9.70133 25.9439 6.67487 23.7901 4.38573H23.7903C23.778 4.37032 23.7646 4.35581 23.7506 4.3422C23.7506 4.34198 23.7504 4.34198 23.7501 4.34175C23.6745 4.26229 23.597 4.18483 23.5204 4.10626C21.1972 1.78706 18.0459 0.484375 14.7604 0.484375L14.7591 0.484605ZM14.7591 1.4846C15.1185 1.4846 15.5223 1.6884 15.9614 2.21003C16.4007 2.73146 16.8404 3.55112 17.2151 4.62523C17.5073 5.46249 17.7509 6.42723 17.9406 7.47523C16.9162 7.77278 15.8459 7.92791 14.7589 7.92791C13.6718 7.92791 12.6017 7.77301 11.5776 7.47523C11.7669 6.42746 12.0106 5.46272 12.3028 4.62523C12.6776 3.55135 13.1173 2.73146 13.5564 2.21003C13.9957 1.68838 14.3993 1.4846 14.7586 1.4846H14.7591ZM16.8123 1.67166C19.0199 2.07523 21.0734 3.12457 22.702 4.70646C21.6022 5.77497 20.3071 6.60109 18.9005 7.14909C18.7067 6.11491 18.4587 5.15263 18.1596 4.29594C17.7786 3.204 17.3317 2.3228 16.8123 1.67166ZM12.7061 1.67166C12.1871 2.3228 11.74 3.204 11.3592 4.29577C11.0601 5.15268 10.8121 6.11497 10.6181 7.14914C9.21165 6.60115 7.91657 5.7748 6.81679 4.70651C8.44514 3.12457 10.4987 2.07548 12.7059 1.67171L12.7061 1.67166ZM6.13005 5.43349C7.37491 6.64017 8.84902 7.56297 10.4503 8.15583C10.2548 9.48017 10.1432 10.8987 10.1227 12.3523H3.38208C3.49548 9.80051 4.46426 7.36366 6.13009 5.43343L6.13005 5.43349ZM23.3883 5.43349C25.0544 7.36383 26.0241 9.80046 26.1363 12.3523H19.3958C19.375 10.8986 19.2634 9.48023 19.0679 8.15589C20.669 7.5628 22.1433 6.64029 23.3882 5.43354L23.3883 5.43349ZM18.1006 8.46897C18.2745 9.694 18.3756 11.0076 18.3957 12.3522H11.1226C11.1433 11.0076 11.2436 9.69394 11.4177 8.46897C12.4955 8.77053 13.6188 8.92813 14.759 8.92813C15.8991 8.92813 17.0226 8.7712 18.1005 8.46897H18.1006ZM3.38234 13.3522H10.1223C10.1413 14.2382 10.1828 15.1174 10.2621 15.9748H3.8095C3.56486 15.1201 3.4211 14.2398 3.38204 13.3522H3.38234ZM11.1223 13.3522H18.3961C18.3753 14.6966 18.2751 16.0101 18.101 17.2348C17.0423 16.9386 15.9396 16.7821 14.8199 16.7765H14.7989C14.4608 16.2922 13.8992 15.973 13.2679 15.973H11.2666C11.1833 15.1181 11.1342 14.2377 11.1231 13.3504L11.1223 13.3522ZM19.3961 13.3522H26.1366C26.0232 15.9038 25.0547 18.3402 23.3891 20.2705C22.1442 19.0638 20.6694 18.1419 19.0681 17.5486C19.2634 16.2243 19.375 14.806 19.396 13.3522L19.3961 13.3522ZM2.72348 16.975H3.41434H3.41411C3.42996 16.9759 3.44559 16.9759 3.46143 16.975H13.2677C13.7563 16.975 14.1329 17.3511 14.1329 17.8361V24.5075C14.1329 24.5265 14.1311 24.5415 14.1329 24.5587H14.1327C14.1235 24.5888 14.1171 24.6198 14.1137 24.6513V24.67H14.1139C14.1133 24.6852 14.1133 24.7004 14.1139 24.7156V24.7343C14.0213 25.11 13.6889 25.379 13.2762 25.379H6.40995C6.27714 25.379 6.14968 25.4321 6.05593 25.5263L3.80524 27.785V25.8791C3.80524 25.7465 3.75234 25.6193 3.65859 25.5256C3.56484 25.4318 3.43761 25.3791 3.30502 25.3791H2.73159C2.2432 25.3791 1.86662 25.003 1.86662 24.5182L1.8664 17.8462C1.8664 17.3614 2.24274 16.9853 2.73137 16.9853L2.72348 16.975ZM15.1321 17.7826C16.0912 17.8127 17.0343 17.9658 17.9412 18.229C17.7515 19.277 17.5079 20.2417 17.2158 21.0792C16.841 22.1533 16.4013 22.973 15.962 23.4947C15.6691 23.8424 15.3921 24.0485 15.1334 24.1473L15.133 17.8359C15.133 17.8169 15.1323 17.8 15.1316 17.783L15.1321 17.7826ZM18.9008 18.5545C20.3079 19.1027 21.6028 19.9293 22.7026 20.9978C21.0742 22.5799 19.0204 23.629 16.8129 24.0328C17.332 23.3817 17.7789 22.5002 18.1599 21.4087C18.4588 20.5513 18.707 19.589 18.901 18.5545H18.9008ZM4.19679 18.6319H4.19635C3.92023 18.6319 3.69657 18.8558 3.69635 19.1319C3.69635 19.2645 3.74903 19.3917 3.84278 19.4855C3.93653 19.5792 4.06376 19.6319 4.19635 19.6319H11.3221C11.4549 19.6319 11.5819 19.5792 11.6759 19.4855C11.7696 19.3917 11.8223 19.2645 11.8223 19.1319C11.8221 18.8558 11.5982 18.6319 11.3221 18.6319H4.19679ZM4.19679 21.746H4.19635C4.06376 21.746 3.93652 21.7987 3.84278 21.8924C3.74903 21.9862 3.69635 22.1134 3.69635 22.246C3.69657 22.5221 3.92023 22.746 4.19635 22.7458H11.3221C11.5982 22.746 11.8221 22.5221 11.8223 22.246C11.8223 22.1134 11.7696 21.9862 11.6759 21.8924C11.5819 21.7987 11.4549 21.746 11.3221 21.746H4.19679Z" fill="#CC1212"/>
</svg>