<svg width="38" height="38" viewBox="0 0 30 30" fill="none" xmlns="http://www.w3.org/2000/svg">
<path d="M19.9983 14.9542C19.9 14.856 19.767 14.8009 19.6279 14.8009C19.4891 14.8009 19.3556 14.856 19.2576 14.9542C19.0954 15.1165 18.8125 15.1165 18.6505 14.9542C18.5695 14.8732 18.5244 14.7654 18.5244 14.6502C18.5244 14.5357 18.5695 14.4279 18.6505 14.3467L21.252 11.7451C23.3821 12.6487 25.854 12.1804 27.5092 10.525C28.9732 9.06094 29.5264 6.92346 28.9629 4.9326C28.9609 4.92278 28.9576 4.91318 28.9556 4.90358C28.9533 4.89599 28.9518 4.88818 28.9495 4.88059C28.9487 4.87747 28.9466 4.87479 28.9458 4.87189C28.9377 4.84465 28.9268 4.81854 28.9138 4.79242C28.9103 4.78573 28.9071 4.77903 28.9036 4.77256C28.8911 4.75024 28.877 4.72881 28.8607 4.70783C28.8547 4.70024 28.8487 4.69242 28.8422 4.6855C28.8341 4.67591 28.8272 4.66542 28.8185 4.65649C28.8103 4.64778 28.7995 4.64198 28.7911 4.63417C28.7837 4.62769 28.7761 4.62167 28.7683 4.61564C28.7484 4.60024 28.7283 4.58662 28.7071 4.57434C28.7 4.56988 28.6924 4.56631 28.6848 4.56251C28.6625 4.55135 28.6399 4.54108 28.6163 4.5335C28.6076 4.53037 28.5984 4.52814 28.5895 4.52546C28.5667 4.51899 28.5437 4.51363 28.5203 4.5105C28.5094 4.50917 28.4987 4.5085 28.4871 4.50738C28.465 4.50604 28.4429 4.50537 28.4208 4.50671C28.4083 4.50738 28.3958 4.50872 28.3833 4.50984C28.3618 4.51274 28.3404 4.51653 28.3196 4.52189C28.3129 4.52323 28.3062 4.52345 28.2998 4.52546C28.2926 4.52769 28.2866 4.53126 28.2797 4.5335C28.2614 4.53997 28.2433 4.54734 28.2252 4.55582C28.2096 4.56296 28.1951 4.57055 28.1808 4.57881C28.1674 4.58684 28.1545 4.59555 28.1417 4.6047C28.1245 4.6172 28.1085 4.62992 28.0937 4.64443C28.0886 4.6489 28.0833 4.65202 28.0781 4.65693L25.3402 7.39488L23.1565 6.80962L22.5714 4.6259L25.2926 1.9047C25.3554 1.84198 25.3967 1.76676 25.4205 1.68707C25.4237 1.67881 25.4279 1.671 25.4304 1.66185C25.4328 1.65426 25.4328 1.64622 25.4353 1.63819C25.4355 1.63506 25.4362 1.63216 25.4368 1.62926C25.4964 1.36207 25.3408 1.09064 25.0739 1.01297C23.0719 0.430628 20.9136 0.983507 19.4406 2.45651C17.7855 4.11189 17.3165 6.58331 18.2205 8.71366L14.4022 12.5317L7.41537 5.54486L6.92251 4.3672C6.88501 4.27814 6.82429 4.20113 6.74617 4.14488L4.07766 2.21654C3.8694 2.06609 3.58257 2.08886 3.40086 2.27033L2.12829 3.5433C1.94614 3.725 1.92338 4.01183 2.0736 4.22033L4.00194 6.88885C4.05864 6.9672 4.13542 7.02813 4.22471 7.06518L5.40197 7.55759L12.3888 14.5445L8.71608 18.217C6.58551 17.3137 4.11454 17.7822 2.45894 19.4375C0.995565 20.9009 0.442194 23.0391 1.00579 25.0299C1.00736 25.0395 1.01093 25.0491 1.01294 25.0585C1.01539 25.0661 1.01673 25.0746 1.01941 25.0822C1.0203 25.0864 1.02187 25.0893 1.0232 25.0927C1.03035 25.1148 1.03861 25.1364 1.04843 25.1576C1.05155 25.1643 1.05557 25.171 1.05892 25.1777C1.06941 25.1978 1.08035 25.2177 1.09374 25.2366C1.0962 25.2404 1.0991 25.2433 1.102 25.2469C1.11673 25.267 1.13146 25.2875 1.14999 25.3058C1.16249 25.3185 1.17678 25.3279 1.19039 25.3391C1.19865 25.3458 1.20646 25.3531 1.21539 25.3592C1.23146 25.371 1.24798 25.3804 1.26539 25.3902C1.27477 25.396 1.28436 25.4007 1.29419 25.4056C1.31137 25.4139 1.32834 25.4217 1.34664 25.4277C1.3578 25.4319 1.36941 25.4344 1.38079 25.438C1.39798 25.4429 1.41495 25.4476 1.43258 25.4505C1.44798 25.4534 1.46428 25.454 1.47923 25.4554C1.4991 25.4569 1.51829 25.4583 1.53771 25.4576C1.56003 25.4569 1.5828 25.4547 1.60579 25.4509C1.6174 25.4489 1.62923 25.446 1.64106 25.4438C1.64999 25.4415 1.65892 25.44 1.66785 25.4373C1.67499 25.4353 1.68057 25.4319 1.68704 25.4299C1.70624 25.4232 1.72454 25.4159 1.74262 25.4072C1.75758 25.4 1.77231 25.3924 1.78637 25.3842C1.79977 25.3761 1.81293 25.3674 1.82566 25.3585C1.84285 25.346 1.85892 25.3326 1.87432 25.3181C1.87945 25.3136 1.88459 25.311 1.88905 25.306L4.62699 22.5686L6.81094 23.1536L7.39597 25.3373L4.67499 28.0585C4.61227 28.121 4.57098 28.196 4.54665 28.2755C4.54374 28.2842 4.53928 28.2922 4.53682 28.3007C4.53437 28.3087 4.53437 28.317 4.53236 28.3248C4.53169 28.3279 4.53147 28.3308 4.5308 28.3335C4.47097 28.6009 4.62656 28.8721 4.89307 28.9498C5.41986 29.1031 5.95736 29.1777 6.49061 29.1777C7.9837 29.1777 9.4413 28.5922 10.5266 27.5063C12.1819 25.8509 12.6504 23.3795 11.7471 21.2491L14.2027 18.7931C14.2027 18.7931 14.2027 18.7929 14.2029 18.7929C14.3652 18.6306 14.648 18.6306 14.8103 18.7929C14.8908 18.8741 14.9357 18.982 14.9357 19.0965C14.9357 19.211 14.8908 19.3188 14.8103 19.4C14.712 19.4983 14.6569 19.6317 14.6569 19.7704C14.6569 19.909 14.7121 20.0425 14.8103 20.1402L21.7308 27.0614C22.4237 27.7538 23.3449 28.1353 24.3242 28.1353C25.3043 28.1353 26.2251 27.7538 26.9182 27.0614C28.3483 25.6313 28.3483 23.3042 26.9182 21.8739L19.9983 14.9542ZM19.2195 9.19539C19.3795 9.03534 19.4186 8.79093 19.3168 8.58893C18.4081 6.78916 18.7554 4.62219 20.1815 3.1963C21.1616 2.21619 22.5145 1.73562 23.867 1.84922L21.617 4.09922C21.4849 4.23136 21.4333 4.42399 21.4817 4.60525L22.2228 7.3729C22.271 7.55303 22.4126 7.69455 22.5934 7.74277L25.361 8.48449C25.4054 8.49632 25.451 8.50212 25.4963 8.50212C25.6336 8.50212 25.7673 8.44833 25.8661 8.34877L28.1164 6.09809C28.23 7.45077 27.7496 8.80277 26.7682 9.7838C25.3423 11.2095 23.1755 11.5565 21.3755 10.6485C21.1735 10.5465 20.9291 10.5856 20.7691 10.7454L18.2796 13.2354L17.7948 12.7505C17.5898 12.5456 17.2588 12.5456 17.0544 12.7505L15.8376 13.9673L15.1418 13.272L19.2195 9.19539ZM5.90174 6.63202L4.76471 6.15724L3.18414 3.9693L3.82631 3.32713L6.0138 4.90793L6.48902 6.04455C6.51536 6.10728 6.55375 6.16465 6.60174 6.21286L15.0977 14.7083L14.5656 15.2409L13.5004 14.1753C13.5002 14.1753 13.5002 14.1751 13.4997 14.1751C13.4997 14.1748 13.4997 14.1748 13.4995 14.1744L6.06979 6.74524C6.0218 6.69725 5.96444 6.65863 5.90171 6.63229L5.90174 6.63202ZM10.6515 21.3737C11.56 23.1735 11.2129 25.3405 9.78677 26.7664C8.8062 27.7469 7.45328 28.2275 6.10174 28.1141L8.35174 25.8641C8.48433 25.732 8.53567 25.5389 8.48701 25.3585L7.74547 22.5911C7.69725 22.4101 7.55573 22.2688 7.37515 22.2206L4.60749 21.479C4.42736 21.431 4.23405 21.4822 4.10146 21.6143L1.85146 23.8645C1.73762 22.5123 2.21821 21.1599 3.19924 20.1788C4.62558 18.7532 6.79232 18.4054 8.59164 19.3141C8.79387 19.4154 9.03829 19.3766 9.19809 19.2168L13.1296 15.2853L13.8249 15.981L12.6081 17.198C12.4037 17.4025 12.4037 17.734 12.6081 17.9382L13.093 18.4232L10.7486 20.7672C10.5892 20.9273 10.5495 21.1717 10.6515 21.3737ZM26.1784 26.3215C25.6833 26.8161 25.025 27.0885 24.325 27.0885C23.6248 27.0885 22.9672 26.8159 22.4719 26.3215L15.8547 19.7038C15.9395 19.5156 15.984 19.3096 15.984 19.0971C15.984 18.7029 15.8306 18.3317 15.5516 18.0529C15.2726 17.7739 14.9016 17.6203 14.5072 17.6203C14.2947 17.6203 14.0889 17.6652 13.9005 17.7496L13.7188 17.5681L17.4257 13.8612L17.6072 14.0433C17.5221 14.2317 17.4775 14.4369 17.4775 14.65C17.4775 15.0447 17.6311 15.4159 17.9101 15.6944C18.1891 15.9734 18.5601 16.127 18.9545 16.127C19.1672 16.127 19.373 16.0821 19.5612 15.9978L26.1789 22.6155C27.2003 23.6369 27.2003 25.2997 26.1784 26.3215L26.1784 26.3215Z" fill="url(#paint0_linear_4003_36970)"/>
<defs>
<linearGradient id="paint0_linear_4003_36970" x1="22.9084" y1="0.785156" x2="22.7783" y2="35.2621" gradientUnits="userSpaceOnUse">
<stop stop-color="#005CAA"/>
<stop offset="1" stop-color="#64B0F1"/>
</linearGradient>
</defs>
</svg>