<svg width="38" height="38" viewBox="0 0 33 33" fill="none"
                                xmlns="http://www.w3.org/2000/svg">
                                <path
                                    d="M8.98169 23.6531C8.09752 23.6531 7.24975 23.3017 6.62478 22.6767C5.99958 22.0515 5.64844 21.2038 5.64844 20.3196C5.64844 19.4356 5.99955 18.5876 6.62478 17.9627C7.24981 17.3375 8.09752 16.9863 8.98169 16.9863C9.86587 16.9863 10.7136 17.3374 11.3386 17.9627C11.9638 18.5877 12.315 19.4356 12.315 20.3196C12.315 21.2038 11.9638 22.0515 11.3386 22.6767C10.7136 23.3018 9.86587 23.6531 8.98169 23.6531ZM8.98169 18.3196C8.45134 18.3196 7.94261 18.5303 7.56741 18.9055C7.19241 19.2805 6.98169 19.7892 6.98169 20.3196C6.98169 20.8502 7.19241 21.3589 7.56741 21.7339C7.94263 22.1089 8.45135 22.3196 8.98169 22.3196C9.51204 22.3196 10.0208 22.1089 10.396 21.7339C10.771 21.3589 10.9817 20.8502 10.9817 20.3196C10.9817 19.7892 10.771 19.2805 10.396 18.9055C10.0208 18.5303 9.51204 18.3196 8.98169 18.3196Z"
                                    fill="url(#paint0_linear_5451_30415)" />
                                <path
                                    d="M15.6536 32.9854H14.3201V27.6521C14.2821 27.1062 13.9574 26.6213 13.4667 26.3787C10.5627 25.3718 7.40443 25.3718 4.50043 26.3787C4.01338 26.6242 3.69174 27.108 3.6538 27.6521V32.9854H2.32031V27.6521C2.3433 27.1142 2.51563 26.5934 2.81853 26.1481C3.12121 25.703 3.54196 25.351 4.03373 25.1321C7.24202 24.0185 10.732 24.0185 13.9406 25.1321C14.4323 25.351 14.8531 25.7031 15.1558 26.1481C15.4587 26.5934 15.631 27.1142 15.654 27.6521L15.6536 32.9854Z"
                                    fill="url(#paint1_linear_5451_30415)" />
                                <path d="M4.98438 28.3203H6.31763V32.9871H4.98438V28.3203Z"
                                    fill="url(#paint2_linear_5451_30415)" />
                                <path d="M11.6484 28.3203H12.9817V32.9871H11.6484V28.3203Z"
                                    fill="url(#paint3_linear_5451_30415)" />
                                <path
                                    d="M24.9817 23.6531C24.0975 23.6531 23.2498 23.3017 22.6248 22.6767C21.9996 22.0515 21.6484 21.2038 21.6484 20.3196C21.6484 19.4356 21.9996 18.5876 22.6248 17.9627C23.2498 17.3375 24.0975 16.9863 24.9817 16.9863C25.8659 16.9863 26.7136 17.3374 27.3386 17.9627C27.9638 18.5877 28.315 19.4356 28.315 20.3196C28.315 21.2038 27.9638 22.0515 27.3386 22.6767C26.7136 23.3018 25.8659 23.6531 24.9817 23.6531ZM24.9817 18.3196C24.4513 18.3196 23.9426 18.5303 23.5674 18.9055C23.1924 19.2805 22.9817 19.7892 22.9817 20.3196C22.9817 20.8502 23.1924 21.3589 23.5674 21.7339C23.9426 22.1089 24.4514 22.3196 24.9817 22.3196C25.512 22.3196 26.0208 22.1089 26.396 21.7339C26.771 21.3589 26.9817 20.8502 26.9817 20.3196C26.9817 19.7892 26.771 19.2805 26.396 18.9055C26.0208 18.5303 25.512 18.3196 24.9817 18.3196Z"
                                    fill="url(#paint4_linear_5451_30415)" />
                                <path
                                    d="M31.6536 32.9854H30.3201V27.6521C30.2821 27.1062 29.9574 26.6213 29.4667 26.3787C26.5627 25.3718 23.4044 25.3718 20.5004 26.3787C20.0134 26.6242 19.6917 27.108 19.6538 27.6521V32.9854H18.3203V27.6521C18.3433 27.1142 18.5156 26.5934 18.8185 26.1481C19.1212 25.703 19.542 25.351 20.0337 25.1321C23.242 24.0185 26.732 24.0185 29.9406 25.1321C30.4323 25.351 30.8531 25.7031 31.1558 26.1481C31.4587 26.5934 31.631 27.1142 31.654 27.6521L31.6536 32.9854Z"
                                    fill="url(#paint5_linear_5451_30415)" />
                                <path d="M20.9844 28.3203H22.3176V32.9871H20.9844V28.3203Z"
                                    fill="url(#paint6_linear_5451_30415)" />
                                <path d="M27.6484 28.3203H28.9817V32.9871H27.6484V28.3203Z"
                                    fill="url(#paint7_linear_5451_30415)" />
                                <path
                                    d="M29.6513 19.6531H28.9846V18.3196H29.6513C30.1817 18.3196 30.6904 18.1089 31.0654 17.7339C31.4406 17.3589 31.6513 16.8502 31.6513 16.3196V4.31959C31.6513 3.78924 31.4406 3.2805 31.0654 2.90553C30.6904 2.53031 30.1817 2.31959 29.6513 2.31959H4.31763C3.78728 2.31959 3.27855 2.5303 2.90358 2.90553C2.52835 3.28053 2.31763 3.78925 2.31763 4.31959V16.3196C2.31763 16.8502 2.52835 17.3589 2.90358 17.7339C3.27858 18.1089 3.78729 18.3196 4.31763 18.3196H4.98438V19.6528L4.31763 19.6531C3.43369 19.6531 2.58569 19.3017 1.96072 18.6767C1.33552 18.0515 0.984375 17.2038 0.984375 16.3196V4.31959C0.984375 3.43564 1.33549 2.58764 1.96072 1.96267C2.58575 1.33747 3.43369 0.986328 4.31763 0.986328H29.6513C30.5353 0.986328 31.3833 1.33744 32.0083 1.96267C32.6335 2.5877 32.9846 3.43564 32.9846 4.31959V16.3196C32.9846 17.2038 32.6335 18.0515 32.0083 18.6767C31.3832 19.3018 30.5353 19.6531 29.6513 19.6531Z"
                                    fill="url(#paint8_linear_5451_30415)" />
                                <path
                                    d="M15.6511 23.2605V19.6538H12.9844V18.3203H16.9844V20.0471L18.7109 18.3203H20.9844V19.6538H19.2578L15.6511 23.2605Z"
                                    fill="url(#paint9_linear_5451_30415)" />
                                <path
                                    d="M27.6484 14.2605H13.6484V12.927H26.3147V7.6538H22.3147V6.32031H27.6482L27.6484 14.2605Z"
                                    fill="url(#paint10_linear_5451_30415)" />
                                <path
                                    d="M15.9022 16.7922L12.7422 13.6255L15.9022 10.459L16.8489 11.3989L14.6221 13.6255L16.8489 15.8456L15.9022 16.7922Z"
                                    fill="url(#paint11_linear_5451_30415)" />
                                <path
                                    d="M11.6538 14.3203H6.32031V6.32031H20.3203V7.6538H7.65403V12.9871H11.654L11.6538 14.3203Z"
                                    fill="url(#paint12_linear_5451_30415)" />
                                <path
                                    d="M18.0638 10.1262L17.1172 9.1796L19.344 6.95971L17.1172 4.73291L18.0638 3.79297L21.2239 6.95971L18.0638 10.1262Z"
                                    fill="url(#paint13_linear_5451_30415)" />
                                <defs>
                                    <linearGradient id="paint0_linear_5451_30415" x1="10.8424" y1="16.9863" x2="10.8118"
                                        y2="25.0817" gradientUnits="userSpaceOnUse">
                                        <stop stop-color="#005CAA" />
                                        <stop offset="1" stop-color="#64B0F1" />
                                    </linearGradient>
                                    <linearGradient id="paint1_linear_5451_30415" x1="12.7087" y1="24.2969" x2="12.6828"
                                        y2="34.8474" gradientUnits="userSpaceOnUse">
                                        <stop stop-color="#005CAA" />
                                        <stop offset="1" stop-color="#64B0F1" />
                                    </linearGradient>
                                    <linearGradient id="paint2_linear_5451_30415" x1="6.02313" y1="28.3203" x2="5.94829"
                                        y2="33.9862" gradientUnits="userSpaceOnUse">
                                        <stop stop-color="#005CAA" />
                                        <stop offset="1" stop-color="#64B0F1" />
                                    </linearGradient>
                                    <linearGradient id="paint3_linear_5451_30415" x1="12.6872" y1="28.3203" x2="12.6124"
                                        y2="33.9862" gradientUnits="userSpaceOnUse">
                                        <stop stop-color="#005CAA" />
                                        <stop offset="1" stop-color="#64B0F1" />
                                    </linearGradient>
                                    <linearGradient id="paint4_linear_5451_30415" x1="26.8424" y1="16.9863" x2="26.8118"
                                        y2="25.0817" gradientUnits="userSpaceOnUse">
                                        <stop stop-color="#005CAA" />
                                        <stop offset="1" stop-color="#64B0F1" />
                                    </linearGradient>
                                    <linearGradient id="paint5_linear_5451_30415" x1="28.7087" y1="24.2969" x2="28.6828"
                                        y2="34.8474" gradientUnits="userSpaceOnUse">
                                        <stop stop-color="#005CAA" />
                                        <stop offset="1" stop-color="#64B0F1" />
                                    </linearGradient>
                                    <linearGradient id="paint6_linear_5451_30415" x1="22.0231" y1="28.3203" x2="21.9483"
                                        y2="33.9862" gradientUnits="userSpaceOnUse">
                                        <stop stop-color="#005CAA" />
                                        <stop offset="1" stop-color="#64B0F1" />
                                    </linearGradient>
                                    <linearGradient id="paint7_linear_5451_30415" x1="28.6872" y1="28.3203" x2="28.6124"
                                        y2="33.9862" gradientUnits="userSpaceOnUse">
                                        <stop stop-color="#005CAA" />
                                        <stop offset="1" stop-color="#64B0F1" />
                                    </linearGradient>
                                    <linearGradient id="paint8_linear_5451_30415" x1="25.9161" y1="0.986328"
                                        x2="25.8662" y2="23.6535" gradientUnits="userSpaceOnUse">
                                        <stop stop-color="#005CAA" />
                                        <stop offset="1" stop-color="#64B0F1" />
                                    </linearGradient>
                                    <linearGradient id="paint9_linear_5451_30415" x1="19.2173" y1="18.3203" x2="19.2033"
                                        y2="24.3192" gradientUnits="userSpaceOnUse">
                                        <stop stop-color="#005CAA" />
                                        <stop offset="1" stop-color="#64B0F1" />
                                    </linearGradient>
                                    <linearGradient id="paint10_linear_5451_30415" x1="24.556" y1="6.32031" x2="24.5353"
                                        y2="15.9621" gradientUnits="userSpaceOnUse">
                                        <stop stop-color="#005CAA" />
                                        <stop offset="1" stop-color="#64B0F1" />
                                    </linearGradient>
                                    <linearGradient id="paint11_linear_5451_30415" x1="15.9417" y1="10.459" x2="15.897"
                                        y2="18.1493" gradientUnits="userSpaceOnUse">
                                        <stop stop-color="#005CAA" />
                                        <stop offset="1" stop-color="#64B0F1" />
                                    </linearGradient>
                                    <linearGradient id="paint12_linear_5451_30415" x1="17.2278" y1="6.32031"
                                        x2="17.2069" y2="16.0348" gradientUnits="userSpaceOnUse">
                                        <stop stop-color="#005CAA" />
                                        <stop offset="1" stop-color="#64B0F1" />
                                    </linearGradient>
                                    <linearGradient id="paint13_linear_5451_30415" x1="20.3167" y1="3.79297" x2="20.272"
                                        y2="11.4833" gradientUnits="userSpaceOnUse">
                                        <stop stop-color="#005CAA" />
                                        <stop offset="1" stop-color="#64B0F1" />
                                    </linearGradient>
                                </defs>
                            </svg>