<svg width="39" height="39" viewBox="0 0 39 39" fill="none" xmlns="http://www.w3.org/2000/svg">
<path d="M34.3688 22.6468L34.3182 7.92626C35.7135 7.82216 36.8211 6.66643 36.8211 5.24482C36.8203 4.52847 36.5353 3.84168 36.0286 3.33514C35.5219 2.82861 34.8349 2.54371 34.1183 2.54297H5.04385C4.32738 2.54427 3.64064 2.82947 3.13415 3.33605C2.62766 3.84264 2.34273 4.52929 2.3418 5.24552C2.3418 6.64955 3.42262 7.79332 4.79405 7.92134L4.84471 22.6412C3.44936 22.7453 2.3418 23.9017 2.3418 25.3226C2.34254 26.0388 2.62744 26.7255 3.13399 27.232C3.64054 27.7385 4.32738 28.0235 5.04385 28.0245H12.0129L9.82239 33.227C9.06737 35.0207 10.3846 37.0114 12.3366 37.0114C12.8737 37.0122 13.399 36.8542 13.8464 36.5572C14.2938 36.2601 14.6432 35.8374 14.8507 35.3422L17.9314 28.0245H21.2301L24.3107 35.3422C24.5183 35.8373 24.8678 36.26 25.3152 36.557C25.7626 36.8541 26.2878 37.0122 26.8249 37.0114C28.7719 37.0114 30.0962 35.0256 29.3391 33.227L27.1486 28.0245H34.1176C34.8342 28.0237 35.5212 27.7388 36.0279 27.2323C36.5346 26.7257 36.8196 26.039 36.8204 25.3226C36.8211 23.9193 35.7403 22.7755 34.3688 22.6468ZM5.54837 22.6215L5.49771 7.99449L33.6145 7.94666L33.6652 22.5708L5.54837 22.6215ZM3.04546 5.24552C3.04583 4.71574 3.25647 4.20776 3.63114 3.83308C4.00581 3.4584 4.51389 3.24765 5.04385 3.24709H34.1183C34.6483 3.24765 35.1565 3.45838 35.5313 3.83304C35.9061 4.20769 36.1169 4.71567 36.1174 5.24552C36.1167 5.77244 35.9079 6.27777 35.5364 6.65161C35.165 7.02545 34.6609 7.23757 34.1338 7.24183C33.9804 7.15601 36.0794 7.18907 5.04455 7.24324C4.51459 7.24287 4.00644 7.0323 3.63164 6.65775C3.25684 6.28321 3.04601 5.7753 3.04546 5.24552ZM14.2027 35.0699C14.0486 35.4372 13.7892 35.7507 13.4573 35.971C13.1254 36.1913 12.7357 36.3086 12.3373 36.308C10.8962 36.308 9.90613 34.8427 10.4719 33.4999L12.7771 28.0245H17.1693L14.2027 35.0699ZM28.691 33.4999C29.2504 34.828 28.2829 36.308 26.8256 36.308C26.4272 36.3086 26.0375 36.1913 25.7056 35.971C25.3736 35.7507 25.1143 35.4372 24.9602 35.0699L21.9943 28.0245H26.3865L28.691 33.4999ZM34.1183 27.321H5.04385C4.51389 27.3205 4.00581 27.1097 3.63114 26.735C3.25647 26.3604 3.04583 25.8524 3.04546 25.3226C3.04546 24.2253 3.93629 23.3319 5.03329 23.3256C5.18387 23.4079 3.02223 23.3755 34.119 23.3242C34.6489 23.3247 35.157 23.5354 35.5317 23.9099C35.9065 24.2844 36.1174 24.7922 36.1181 25.3219C36.1176 25.8519 35.9067 26.3601 35.5318 26.7349C35.1569 27.1097 34.6485 27.3205 34.1183 27.321Z" fill="url(#paint0_linear_3703_35327)"/>
<path d="M34.3688 22.6468L34.3182 7.92626C35.7135 7.82216 36.8211 6.66643 36.8211 5.24482C36.8203 4.52847 36.5353 3.84168 36.0286 3.33514C35.5219 2.82861 34.8349 2.54371 34.1183 2.54297H5.04385C4.32738 2.54427 3.64064 2.82947 3.13415 3.33605C2.62766 3.84264 2.34273 4.52929 2.3418 5.24552C2.3418 6.64955 3.42262 7.79332 4.79405 7.92134L4.84471 22.6412C3.44936 22.7453 2.3418 23.9017 2.3418 25.3226C2.34254 26.0388 2.62744 26.7255 3.13399 27.232C3.64054 27.7385 4.32738 28.0235 5.04385 28.0245H12.0129L9.82239 33.227C9.06737 35.0207 10.3846 37.0114 12.3366 37.0114C12.8737 37.0122 13.399 36.8542 13.8464 36.5572C14.2938 36.2601 14.6432 35.8374 14.8507 35.3422L17.9314 28.0245H21.2301L24.3107 35.3422C24.5183 35.8373 24.8678 36.26 25.3152 36.557C25.7626 36.8541 26.2878 37.0122 26.8249 37.0114C28.7719 37.0114 30.0962 35.0256 29.3391 33.227L27.1486 28.0245H34.1176C34.8342 28.0237 35.5212 27.7388 36.0279 27.2323C36.5346 26.7257 36.8196 26.039 36.8204 25.3226C36.8211 23.9193 35.7403 22.7755 34.3688 22.6468ZM5.54837 22.6215L5.49771 7.99449L33.6145 7.94666L33.6652 22.5708L5.54837 22.6215ZM3.04546 5.24552C3.04583 4.71574 3.25647 4.20776 3.63114 3.83308C4.00581 3.4584 4.51389 3.24765 5.04385 3.24709H34.1183C34.6483 3.24765 35.1565 3.45838 35.5313 3.83304C35.9061 4.20769 36.1169 4.71567 36.1174 5.24552C36.1167 5.77244 35.9079 6.27777 35.5364 6.65161C35.165 7.02545 34.6609 7.23757 34.1338 7.24183C33.9804 7.15601 36.0794 7.18907 5.04455 7.24324C4.51459 7.24287 4.00644 7.0323 3.63164 6.65775C3.25684 6.28321 3.04601 5.7753 3.04546 5.24552ZM14.2027 35.0699C14.0486 35.4372 13.7892 35.7507 13.4573 35.971C13.1254 36.1913 12.7357 36.3086 12.3373 36.308C10.8962 36.308 9.90613 34.8427 10.4719 33.4999L12.7771 28.0245H17.1693L14.2027 35.0699ZM28.691 33.4999C29.2504 34.828 28.2829 36.308 26.8256 36.308C26.4272 36.3086 26.0375 36.1913 25.7056 35.971C25.3736 35.7507 25.1143 35.4372 24.9602 35.0699L21.9943 28.0245H26.3865L28.691 33.4999ZM34.1183 27.321H5.04385C4.51389 27.3205 4.00581 27.1097 3.63114 26.735C3.25647 26.3604 3.04583 25.8524 3.04546 25.3226C3.04546 24.2253 3.93629 23.3319 5.03329 23.3256C5.18387 23.4079 3.02223 23.3755 34.119 23.3242C34.6489 23.3247 35.157 23.5354 35.5317 23.9099C35.9065 24.2844 36.1174 24.7922 36.1181 25.3219C36.1176 25.8519 35.9067 26.3601 35.5318 26.7349C35.1569 27.1097 34.6485 27.3205 34.1183 27.321Z" fill="black" fill-opacity="0.2"/>
<path d="M22.1278 9.79454C22.0525 9.73941 21.9583 9.71644 21.8661 9.73069C21.7739 9.74494 21.6911 9.79523 21.6359 9.87051C21.5808 9.94578 21.5578 10.0399 21.572 10.1321C21.5863 10.2243 21.6366 10.3071 21.7119 10.3622L22.8786 11.2162C17.8875 11.7184 13.978 15.9417 13.978 21.062C13.978 21.1552 14.0151 21.2447 14.081 21.3107C14.147 21.3766 14.2365 21.4137 14.3298 21.4137C14.4231 21.4137 14.5126 21.3766 14.5786 21.3107C14.6446 21.2447 14.6816 21.1552 14.6816 21.062C14.6816 16.2294 18.4336 12.2643 23.1776 11.9048L22.1644 13.2884C22.137 13.3257 22.1174 13.368 22.1064 13.4129C22.0954 13.4578 22.0934 13.5044 22.1005 13.55C22.1075 13.5957 22.1235 13.6395 22.1475 13.679C22.1715 13.7185 22.2031 13.7528 22.2403 13.7801C22.2776 13.8074 22.3199 13.8271 22.3648 13.8381C22.4097 13.849 22.4563 13.851 22.502 13.844C22.5477 13.8369 22.5915 13.8209 22.631 13.797C22.6705 13.773 22.7049 13.7414 22.7322 13.7042L24.1775 11.7311C24.2048 11.6938 24.2245 11.6515 24.2355 11.6066C24.2465 11.5617 24.2485 11.5151 24.2414 11.4695C24.2344 11.4238 24.2184 11.38 24.1944 11.3405C24.1704 11.301 24.1388 11.2667 24.1015 11.2394L22.1278 9.79454ZM14.8217 12.0694C14.8217 11.0354 13.9801 10.1934 12.945 10.1934C11.9099 10.1934 11.0684 11.0347 11.0684 12.0694C11.0684 13.1077 11.9099 13.9518 12.945 13.9518C13.9801 13.9518 14.8217 13.1077 14.8217 12.0694ZM12.945 13.249C12.6332 13.2477 12.3347 13.1229 12.1148 12.9019C11.8949 12.6809 11.7716 12.3818 11.772 12.0701C11.772 11.4237 12.2984 10.8975 12.945 10.8975C13.5917 10.8975 14.118 11.4237 14.118 12.0701C14.118 12.7201 13.5917 13.249 12.945 13.249ZM27.7535 17.4175L28.6 16.5713C28.6641 16.505 28.6996 16.4161 28.6988 16.3239C28.698 16.2317 28.661 16.1435 28.5957 16.0783C28.5305 16.0131 28.4423 15.9761 28.35 15.9753C28.2578 15.9745 28.1689 16.0099 28.1025 16.074L27.256 16.9202L26.4095 16.074C26.3432 16.0099 26.2543 15.9745 26.162 15.9753C26.0698 15.9761 25.9816 16.0131 25.9163 16.0783C25.8511 16.1435 25.8141 16.2317 25.8133 16.3239C25.8125 16.4161 25.848 16.505 25.912 16.5713L26.7585 17.4175L25.912 18.2637C25.848 18.3301 25.8125 18.4189 25.8133 18.5111C25.8141 18.6034 25.8511 18.6916 25.9163 18.7568C25.9816 18.822 26.0698 18.859 26.162 18.8598C26.2543 18.8606 26.3432 18.8251 26.4095 18.7611L27.256 17.9148L28.1025 18.7611C28.1689 18.8251 28.2578 18.8606 28.35 18.8598C28.4423 18.859 28.5305 18.822 28.5957 18.7568C28.661 18.6916 28.698 18.6034 28.6988 18.5111C28.6996 18.4189 28.6641 18.3301 28.6 18.2637L27.7535 17.4175ZM21.2707 16.9469C20.7732 16.9475 20.2961 17.1453 19.9443 17.497C19.5925 17.8487 19.3946 18.3256 19.394 18.823C19.394 19.8612 20.2356 20.7053 21.2707 20.7053C22.3058 20.7053 23.1474 19.8612 23.1474 18.823C23.1468 18.3256 22.9489 17.8487 22.5971 17.497C22.2453 17.1453 21.7683 16.9475 21.2707 16.9469ZM21.2707 20.0019C20.9589 20.0006 20.6604 19.8758 20.4405 19.6548C20.2206 19.4338 20.0973 19.1347 20.0977 18.823C20.0983 18.5121 20.222 18.2142 20.4419 17.9944C20.6617 17.7746 20.9598 17.6509 21.2707 17.6504C21.5816 17.6509 21.8797 17.7746 22.0995 17.9944C22.3194 18.2142 22.4431 18.5121 22.4437 18.823C22.4437 19.4729 21.9174 20.0019 21.2707 20.0019Z" fill="url(#paint1_linear_3703_35327)"/>
<path d="M22.1278 9.79454C22.0525 9.73941 21.9583 9.71644 21.8661 9.73069C21.7739 9.74494 21.6911 9.79523 21.6359 9.87051C21.5808 9.94578 21.5578 10.0399 21.572 10.1321C21.5863 10.2243 21.6366 10.3071 21.7119 10.3622L22.8786 11.2162C17.8875 11.7184 13.978 15.9417 13.978 21.062C13.978 21.1552 14.0151 21.2447 14.081 21.3107C14.147 21.3766 14.2365 21.4137 14.3298 21.4137C14.4231 21.4137 14.5126 21.3766 14.5786 21.3107C14.6446 21.2447 14.6816 21.1552 14.6816 21.062C14.6816 16.2294 18.4336 12.2643 23.1776 11.9048L22.1644 13.2884C22.137 13.3257 22.1174 13.368 22.1064 13.4129C22.0954 13.4578 22.0934 13.5044 22.1005 13.55C22.1075 13.5957 22.1235 13.6395 22.1475 13.679C22.1715 13.7185 22.2031 13.7528 22.2403 13.7801C22.2776 13.8074 22.3199 13.8271 22.3648 13.8381C22.4097 13.849 22.4563 13.851 22.502 13.844C22.5477 13.8369 22.5915 13.8209 22.631 13.797C22.6705 13.773 22.7049 13.7414 22.7322 13.7042L24.1775 11.7311C24.2048 11.6938 24.2245 11.6515 24.2355 11.6066C24.2465 11.5617 24.2485 11.5151 24.2414 11.4695C24.2344 11.4238 24.2184 11.38 24.1944 11.3405C24.1704 11.301 24.1388 11.2667 24.1015 11.2394L22.1278 9.79454ZM14.8217 12.0694C14.8217 11.0354 13.9801 10.1934 12.945 10.1934C11.9099 10.1934 11.0684 11.0347 11.0684 12.0694C11.0684 13.1077 11.9099 13.9518 12.945 13.9518C13.9801 13.9518 14.8217 13.1077 14.8217 12.0694ZM12.945 13.249C12.6332 13.2477 12.3347 13.1229 12.1148 12.9019C11.8949 12.6809 11.7716 12.3818 11.772 12.0701C11.772 11.4237 12.2984 10.8975 12.945 10.8975C13.5917 10.8975 14.118 11.4237 14.118 12.0701C14.118 12.7201 13.5917 13.249 12.945 13.249ZM27.7535 17.4175L28.6 16.5713C28.6641 16.505 28.6996 16.4161 28.6988 16.3239C28.698 16.2317 28.661 16.1435 28.5957 16.0783C28.5305 16.0131 28.4423 15.9761 28.35 15.9753C28.2578 15.9745 28.1689 16.0099 28.1025 16.074L27.256 16.9202L26.4095 16.074C26.3432 16.0099 26.2543 15.9745 26.162 15.9753C26.0698 15.9761 25.9816 16.0131 25.9163 16.0783C25.8511 16.1435 25.8141 16.2317 25.8133 16.3239C25.8125 16.4161 25.848 16.505 25.912 16.5713L26.7585 17.4175L25.912 18.2637C25.848 18.3301 25.8125 18.4189 25.8133 18.5111C25.8141 18.6034 25.8511 18.6916 25.9163 18.7568C25.9816 18.822 26.0698 18.859 26.162 18.8598C26.2543 18.8606 26.3432 18.8251 26.4095 18.7611L27.256 17.9148L28.1025 18.7611C28.1689 18.8251 28.2578 18.8606 28.35 18.8598C28.4423 18.859 28.5305 18.822 28.5957 18.7568C28.661 18.6916 28.698 18.6034 28.6988 18.5111C28.6996 18.4189 28.6641 18.3301 28.6 18.2637L27.7535 17.4175ZM21.2707 16.9469C20.7732 16.9475 20.2961 17.1453 19.9443 17.497C19.5925 17.8487 19.3946 18.3256 19.394 18.823C19.394 19.8612 20.2356 20.7053 21.2707 20.7053C22.3058 20.7053 23.1474 19.8612 23.1474 18.823C23.1468 18.3256 22.9489 17.8487 22.5971 17.497C22.2453 17.1453 21.7683 16.9475 21.2707 16.9469ZM21.2707 20.0019C20.9589 20.0006 20.6604 19.8758 20.4405 19.6548C20.2206 19.4338 20.0973 19.1347 20.0977 18.823C20.0983 18.5121 20.222 18.2142 20.4419 17.9944C20.6617 17.7746 20.9598 17.6509 21.2707 17.6504C21.5816 17.6509 21.8797 17.7746 22.0995 17.9944C22.3194 18.2142 22.4431 18.5121 22.4437 18.823C22.4437 19.4729 21.9174 20.0019 21.2707 20.0019Z" fill="black" fill-opacity="0.2"/>
<defs>
<linearGradient id="paint0_linear_3703_35327" x1="19.5814" y1="2.54297" x2="19.5814" y2="37.0114" gradientUnits="userSpaceOnUse">
<stop stop-color="#FF0F0F"/>
<stop offset="1" stop-color="#FF4849"/>
</linearGradient>
<linearGradient id="paint1_linear_3703_35327" x1="19.8836" y1="9.72656" x2="19.8836" y2="21.4137" gradientUnits="userSpaceOnUse">
<stop stop-color="#FF0F0F"/>
<stop offset="1" stop-color="#FF4849"/>
</linearGradient>
</defs>
</svg>