<svg width="38" height="38" viewBox="0 0 30 18" fill="none" xmlns="http://www.w3.org/2000/svg">
<path d="M14.9932 0.699442C12.3144 0.699442 9.90146 1.00011 8.10232 1.51956C7.20277 1.77916 6.451 2.08987 5.88203 2.47961C5.31306 2.86934 4.86192 3.40259 4.86192 4.07961V8.11956H2.83157V8.11933C2.80814 8.11822 2.78492 8.11822 2.76148 8.11933C2.49318 8.15036 2.27309 8.34635 2.21148 8.60951L0.291197 16.5495C0.245438 16.7397 0.289188 16.9406 0.409945 17.0946C0.530705 17.2486 0.715528 17.3388 0.911283 17.3395H29.0759C29.2716 17.3388 29.4562 17.2486 29.5772 17.0946C29.698 16.9406 29.7417 16.7397 29.6959 16.5495L27.7757 8.60951C27.7065 8.32268 27.4504 8.12045 27.1555 8.11933H25.1252V4.07939C25.1252 3.40236 24.6741 2.8691 24.1051 2.47939C23.5361 2.08966 22.7843 1.77916 21.8848 1.51933C20.0855 0.999916 17.6725 0.699219 14.9939 0.699219L14.9932 0.699442ZM14.9932 1.97933C17.5727 1.97933 19.9023 2.27821 21.5343 2.74944C22.3501 2.98493 22.9856 3.27311 23.3745 3.53939C23.7636 3.80591 23.8446 3.99742 23.8446 4.07934V4.1193C23.7627 4.25702 23.5122 4.50166 23.0645 4.73941C22.5886 4.99187 21.9196 5.24231 21.1142 5.44947C19.5035 5.86353 17.3473 6.11958 14.9931 6.11958C12.6391 6.11958 10.483 5.86355 8.87195 5.44947C8.06658 5.24255 7.39761 4.99188 6.92172 4.73941C6.47396 4.50191 6.22349 4.25704 6.14161 4.1193V4.07934C6.14161 3.9972 6.22264 3.80568 6.6117 3.53939C7.00076 3.27287 7.63604 2.98492 8.45187 2.74944C10.0838 2.27846 12.4132 1.97933 14.993 1.97933H14.9932ZM6.14175 5.76927C6.20179 5.80365 6.25916 5.83601 6.32188 5.86927C6.92748 6.1907 7.67748 6.45453 8.55222 6.67933C10.3015 7.12888 12.5448 7.39944 14.9928 7.39944C17.4407 7.39944 19.6845 7.12913 21.4334 6.67933C22.3079 6.45455 23.0582 6.19071 23.6637 5.86927C23.7264 5.83601 23.7838 5.80365 23.8438 5.76927V10.8693C23.8438 10.9514 23.7628 11.1429 23.3737 11.4092C22.9847 11.6755 22.3494 11.9637 21.5336 12.1992C19.9016 12.6702 17.5722 12.9693 14.9924 12.9693C12.4129 12.9693 10.0833 12.6704 8.45129 12.1992C7.63546 11.9637 6.99997 11.6755 6.61112 11.4092C6.22205 11.1427 6.14103 10.9514 6.14103 10.8693L6.14175 5.76927ZM3.33123 9.39916H4.86135V10.8693C4.86135 11.5463 5.31246 12.0796 5.88146 12.4693C6.45043 12.859 7.2022 13.1695 8.10175 13.4293C9.90106 13.9487 12.314 14.2494 14.9926 14.2494C17.6712 14.2494 20.0843 13.9488 21.8835 13.4293C22.783 13.1697 23.5348 12.859 24.1037 12.4693C24.6727 12.0795 25.1239 11.5463 25.1239 10.8693V9.39916H26.654L28.2643 16.0592H1.72026L3.33055 9.39916H3.33123Z" fill="#CC1212"/>
</svg>