<svg width="60" height="60" viewBox="0 0 52 52" fill="none"
                                xmlns="http://www.w3.org/2000/svg">
                                <path
                                    d="M25.972 16.1996C28.9781 16.1996 31.671 17.5643 33.466 19.705L34.7799 18.775C32.6931 16.2268 29.5228 14.5996 25.972 14.5996C19.6884 14.5996 14.5938 19.6932 14.5938 25.977C14.5938 32.2608 19.6881 37.3553 25.972 37.3553C31.3642 37.3553 35.8774 33.6031 37.0504 28.5682C36.2811 29.1132 35.5304 29.6449 34.8115 30.1539C33.2423 33.4618 29.8708 35.7554 25.9722 35.7554C20.5808 35.7554 16.1939 31.3689 16.1939 25.9771C16.1939 20.586 20.5804 16.1997 25.9722 16.1997L25.972 16.1996Z"
                                    fill="white" />
                                <path
                                    d="M49.0468 21.7096H46.7339C46.026 22.211 45.2675 22.7485 44.4757 23.3096H49.0468C49.55 23.3096 49.9753 23.8807 49.9753 24.5564V27.3989C49.9753 28.0736 49.55 28.6439 49.0468 28.6439H44.1357L43.861 29.9032C43.4014 32.0121 42.5714 34.0121 41.3953 35.8475L40.7007 36.9317L41.611 37.8425L44.176 40.4075C44.3678 40.5985 44.3957 40.8532 44.3846 41.0332C44.366 41.355 44.2075 41.6868 43.951 41.9436L41.9424 43.9532C41.6646 44.2299 41.3092 44.3889 40.9671 44.3889C40.8071 44.3889 40.5796 44.3524 40.4046 44.1767L37.8396 41.6128L36.9292 40.7028L35.8453 41.3974C34.0114 42.5728 32.0117 43.4025 29.9014 43.8628L28.6424 44.1375V49.0496C28.6424 49.5518 28.072 49.9768 27.3967 49.9768H24.5538C23.8784 49.9768 23.3084 49.5518 23.3084 49.049V44.1368L22.0495 43.8622C19.9391 43.4015 17.9391 42.5722 16.1055 41.3968L15.0213 40.7018L14.1109 41.6125L11.5452 44.1779C11.3713 44.3518 11.1442 44.3883 10.9838 44.3883C10.6417 44.3883 10.286 44.2293 10.0096 43.9536L7.99996 41.9433C7.74282 41.6861 7.5846 41.3544 7.56567 41.0329C7.55496 40.8529 7.58246 40.5987 7.77568 40.4062L10.3396 37.8422L11.25 36.9315L10.5557 35.8473C9.37963 34.0123 8.55028 32.0123 8.08993 29.9026L7.81529 28.6436H6.5267L2.90384 28.644C2.40063 28.644 1.97529 28.0736 1.97529 27.399V24.5565C1.97529 23.8807 2.40065 23.31 2.90384 23.31H7.81529L8.08993 22.051C8.54993 19.9414 9.37953 17.9414 10.5553 16.1074L11.2503 15.0232L10.3396 14.1128L7.7742 11.5472C7.60028 11.3736 7.56384 11.1468 7.56349 10.9868C7.56313 10.6447 7.72206 10.2897 7.99884 10.0126L10.0084 8.00222C10.2863 7.72472 10.6417 7.5658 10.9838 7.5658C11.1438 7.5658 11.3709 7.60223 11.5459 7.77758L14.1102 10.3415L15.0213 11.2519L16.1056 10.5569C17.9388 9.38155 19.9384 8.55257 22.0488 8.09296L23.3084 7.81867V2.90475C23.3084 2.4019 23.8788 1.97693 24.5537 1.97693H27.3966C28.072 1.97693 28.6423 2.40193 28.6423 2.90475V7.81867L29.9016 8.09296C32.0116 8.5526 34.0112 9.38155 35.8448 10.5569L36.9287 11.2515L37.839 10.3415L40.4054 7.77612C40.579 7.6022 40.8058 7.56576 40.9654 7.56576C41.3076 7.56576 41.6629 7.72505 41.9401 8.00148L43.9504 10.0129C44.2068 10.2693 44.3651 10.6008 44.3836 10.9218C44.3947 11.1018 44.3668 11.3565 44.1743 11.5486L42.1901 13.5333L45.9815 10.85C45.9465 10.1554 45.6437 9.4432 45.0819 8.88183L43.0719 6.87077C42.4726 6.27184 41.7026 5.96613 40.9655 5.96613C40.3348 5.96613 39.7276 6.19041 39.2726 6.64648L36.7076 9.21042C34.7576 7.9604 32.5775 7.03899 30.2415 6.53046V2.9055C30.2422 1.50875 28.9682 0.376953 27.3965 0.376953H24.5536C22.9815 0.376953 21.7082 1.50875 21.7082 2.90477V6.52973C19.3722 7.03866 17.1919 7.95977 15.2418 9.20969L12.6775 6.64575C12.2221 6.18932 11.6154 5.9654 10.9842 5.9654C10.2471 5.9654 9.47748 6.27112 8.87817 6.87004L6.86747 8.88147C5.75643 9.99251 5.65531 11.6933 6.64426 12.68L9.20819 15.244C7.95818 17.194 7.03603 19.374 6.52641 21.7101L2.90355 21.7097C1.50679 21.7097 0.375 22.9837 0.375 24.5565V27.3991C0.375 28.9705 1.50679 30.244 2.90355 30.244H6.52641C7.03605 32.5801 7.95818 34.7602 9.20819 36.7108L6.64426 39.2747C5.65537 40.2615 5.7564 41.9615 6.86747 43.074L8.8778 45.0851C9.47709 45.6833 10.2468 45.9883 10.9835 45.9883C11.6146 45.9883 12.2221 45.7644 12.6774 45.3079L15.2417 42.744C17.1917 43.994 19.3721 44.9158 21.7082 45.4258V49.0494C21.7082 50.4458 22.9818 51.5772 24.5535 51.5772H27.3964C28.9681 51.5772 30.2421 50.4454 30.2421 49.0494V45.4258C32.5782 44.9162 34.7582 43.994 36.7082 42.744L39.2732 45.3079C39.7282 45.7644 40.3357 45.9883 40.9671 45.9883C41.7039 45.9883 42.4732 45.6829 43.0725 45.0851L45.0824 43.074C46.1935 41.9615 46.2949 40.2615 45.3063 39.2747L42.7424 36.7108C43.9924 34.7601 44.9146 32.58 45.4242 30.244H49.0467C50.4434 30.244 51.5752 28.9704 51.5752 27.3991L51.5749 24.5565C51.5749 22.9837 50.4431 21.7097 49.0463 21.7097L49.0468 21.7096Z"
                                    fill="white" />
                                <path
                                    d="M28.1208 25.4292C28.088 25.3825 28.0558 25.3346 28.0273 25.2893L24.8944 21.0471C24.4883 20.4729 23.8283 20.13 23.129 20.13C22.6708 20.13 22.2318 20.274 21.8597 20.5457L20.4718 21.5604C19.5086 22.264 19.2875 23.6315 19.9875 24.6208C20.0264 24.674 23.9171 29.9662 25.616 32.378C25.9682 32.8776 26.5436 33.1758 27.1553 33.1758H27.1557C27.5571 33.1758 27.9539 33.0458 28.3021 32.7998C32.666 29.7169 50.6674 16.9598 50.6774 16.9534C51.6399 16.2498 51.861 14.882 51.1699 13.9044L50.171 12.4933C49.7656 11.919 49.1056 11.5762 48.4067 11.5762C47.9485 11.5762 47.5099 11.7197 47.1467 11.9847L28.616 25.0993C28.4599 25.2189 28.2735 25.3421 28.121 25.43L28.1208 25.4292ZM48.0797 13.2839C48.3279 13.1028 48.6876 13.166 48.8643 13.4171L49.8637 14.8282C50.0533 15.0964 49.9944 15.4703 49.7426 15.6546C49.7426 15.6546 31.7421 28.4107 27.3792 31.4928C27.3009 31.5478 27.2259 31.5757 27.1556 31.5757C27.0467 31.5757 26.9627 31.5114 26.9238 31.4564C25.2152 29.0314 21.3152 23.726 21.2848 23.6849C21.0952 23.4171 21.1538 23.0435 21.4156 22.8521L22.8034 21.837C22.8995 21.7667 23.012 21.7295 23.1284 21.7295C23.312 21.7295 23.4792 21.8174 23.5974 21.9842L26.6913 26.1702C26.8306 26.3881 27.087 26.7549 27.3424 26.9481C27.5117 27.0749 27.7188 27.142 27.9427 27.142C28.4717 27.142 29.1306 26.7206 29.5645 26.3863L48.0797 13.2839Z"
                                    fill="white" />
                            </svg>