<svg width="40" height="40" viewBox="0 0 40 40" fill="none" xmlns="http://www.w3.org/2000/svg">
<rect width="40" height="40" rx="10" fill="url(#paint0_linear_4211_3358)"/>
<path d="M21.1084 19.8177L19.8987 21.9138C19.8106 22.0667 19.6145 22.1195 19.4616 22.0314C19.3079 21.9426 19.2551 21.7464 19.3439 21.5935L20.5536 19.4975C20.6416 19.3438 20.8378 19.2918 20.9915 19.3798C21.1444 19.4687 21.1972 19.6648 21.1084 19.8177ZM18.6363 21.1956L17.999 20.7056L18.6363 20.2149C18.7035 20.1628 18.7476 20.086 18.758 20.0019C18.7692 19.9178 18.746 19.8322 18.6947 19.7649C18.6427 19.6977 18.5658 19.6537 18.4818 19.6424C18.3977 19.632 18.3121 19.6545 18.2448 19.7065L17.2777 20.451C17.1992 20.5119 17.1528 20.6055 17.1528 20.7048C17.1528 20.8041 17.1992 20.8986 17.2777 20.9586L18.2448 21.7031C18.3121 21.7552 18.3977 21.7784 18.4818 21.7672C18.5658 21.7568 18.6427 21.7127 18.6947 21.6447C18.746 21.5774 18.7692 21.4926 18.758 21.4077C18.7476 21.3237 18.7035 21.2476 18.6363 21.1956ZM23.1749 20.451L22.2078 19.7065C22.1405 19.6544 22.0556 19.632 21.9708 19.6424C21.8867 19.6536 21.8099 19.6977 21.7586 19.7649C21.7066 19.8322 21.6834 19.9178 21.6946 20.0019C21.7058 20.0859 21.7498 20.1628 21.8171 20.2148L22.4543 20.7056L21.8171 21.1955C21.7498 21.2476 21.7058 21.3236 21.6946 21.4077C21.6834 21.4926 21.7066 21.5774 21.7586 21.6447C21.8099 21.7127 21.8867 21.7567 21.9708 21.7672C22.0557 21.7784 22.1405 21.7551 22.2078 21.7031L23.1749 20.9586C23.2533 20.8985 23.2998 20.8041 23.2998 20.7048C23.2998 20.6055 23.2533 20.5119 23.1749 20.451ZM30.9998 22.8368V26.7099C31.0086 27.3232 30.7428 27.9076 30.2753 28.3047L28.4075 29.9202C27.6326 30.5991 26.4749 30.5975 25.7008 29.9178L23.845 28.3039H23.8458C23.6136 28.1053 23.4279 27.8587 23.3014 27.5802C22.9716 27.7283 22.6313 27.8523 22.2831 27.9508L22.2639 29.9331C22.2623 30.086 22.1526 30.2165 22.0021 30.2453C20.7652 30.4774 19.4948 30.4646 18.2626 30.2077C18.1129 30.1764 18.0064 30.0435 18.008 29.8906L18.028 27.91V27.9092C16.884 27.5601 15.8392 26.9429 14.9819 26.1087L13.2534 27.0838C13.1205 27.1598 12.9516 27.1294 12.8524 27.0133C12.035 26.0566 11.4113 24.9503 11.0166 23.7565C10.9678 23.6108 11.0294 23.4515 11.1631 23.3754L12.8892 22.4027H12.8884C12.6202 21.2371 12.6314 20.0243 12.9228 18.8641L11.2176 17.8569C11.0879 17.7801 11.0286 17.6232 11.0767 17.4799L11.0799 17.4695C11.0807 17.4679 11.0815 17.4655 11.0815 17.4639C11.4986 16.2798 12.1431 15.1893 12.9781 14.2527C13.0805 14.139 13.2486 14.1126 13.3807 14.1903L15.0892 15.1998C15.9634 14.3832 17.0194 13.7868 18.1697 13.4594L18.189 11.4779C18.1906 11.325 18.3002 11.1945 18.4507 11.1657C19.6876 10.9327 20.9581 10.9455 22.1902 11.2033C22.3399 11.2346 22.4472 11.3674 22.4456 11.5204L22.4256 13.501L22.4248 13.5018C23.5696 13.8501 24.6136 14.4673 25.4718 15.3015L27.1994 14.3264C27.3331 14.2511 27.5012 14.2816 27.6005 14.3976C28.4179 15.3543 29.0415 16.4598 29.437 17.6537C29.485 17.7994 29.4234 17.9587 29.2897 18.0339L27.5636 19.0082H27.5644C27.7502 19.8248 27.8014 20.6678 27.7142 21.5012C27.8671 21.5333 28.0184 21.5749 28.1657 21.6261L30.7843 22.534C30.9132 22.5788 30.9997 22.7005 30.9997 22.8366L30.9998 22.8368ZM23.1341 26.9518C23.1261 26.8717 23.1213 26.7909 23.1213 26.71V23.8542C22.9043 24.0536 22.6665 24.2297 22.4136 24.3802C21.7547 24.7741 21.0014 24.9831 20.2335 24.9831C19.8765 24.9831 19.5202 24.9382 19.1744 24.8502C18.0752 24.5716 17.1313 23.867 16.5516 22.8919C15.9712 21.9176 15.8023 20.7521 16.0817 19.6527C16.3603 18.5535 17.0648 17.6105 18.0391 17.03C19.0142 16.4496 20.179 16.2807 21.2791 16.5601C22.3783 16.8395 23.3214 17.5432 23.9019 18.5183C24.4815 19.4926 24.6512 20.6581 24.3718 21.7575C24.3318 21.9168 24.2821 22.0729 24.2237 22.2266L25.9545 21.6262C26.3148 21.4981 26.6943 21.4325 27.077 21.4325C27.1642 20.5943 27.0994 19.7464 26.8848 18.9315C26.8472 18.7898 26.9096 18.6409 27.0369 18.5696L28.7414 17.6073H28.7422C28.4011 16.6691 27.9072 15.794 27.2811 15.0166L25.5743 15.9797C25.447 16.0517 25.2869 16.0285 25.186 15.9236C24.3198 15.023 23.2254 14.3761 22.0189 14.0519C21.878 14.0143 21.7804 13.8854 21.782 13.7389L21.802 11.7814C20.8189 11.6053 19.8134 11.5949 18.8278 11.751L18.8086 13.7092C18.807 13.8557 18.7069 13.9822 18.5652 14.0175C17.3539 14.3193 16.2468 14.9453 15.3629 15.8268C15.2588 15.93 15.0987 15.9501 14.973 15.8756L13.2846 14.8781C12.6417 15.6426 12.131 16.5089 11.7739 17.4407L13.4591 18.4359V18.4367C13.5848 18.5103 13.6441 18.6608 13.604 18.8009C13.2598 20.0018 13.2478 21.273 13.568 22.4804C13.6056 22.6213 13.5432 22.7702 13.4159 22.8414L11.7115 23.8029C12.0525 24.7412 12.5457 25.6162 13.1717 26.3945L14.8785 25.4314L14.8793 25.4306C15.0058 25.3593 15.1659 25.3826 15.2668 25.4874C16.1331 26.3873 17.2282 27.0342 18.4339 27.3592C18.5748 27.3968 18.6733 27.5257 18.6717 27.6714L18.6517 29.6288V29.6296C19.634 29.8049 20.6395 29.8154 21.625 29.6592L21.6443 27.7002C21.6459 27.5545 21.7459 27.4272 21.8884 27.3928C22.3167 27.2863 22.7338 27.1383 23.1341 26.9518ZM23.3502 18.8459C22.8155 17.9508 21.922 17.3288 20.8964 17.1382C19.8709 16.9477 18.8133 17.2079 17.9927 17.8516C17.1729 18.496 16.6693 19.4615 16.6101 20.5032C16.5517 21.5439 16.9439 22.5598 17.6861 23.2923C18.429 24.024 19.4506 24.4011 20.4914 24.3275C21.5313 24.2538 22.4896 23.7358 23.1213 22.9064V22.8368C23.1213 22.7007 23.2078 22.579 23.3375 22.5342L23.3775 22.5206C23.5432 22.2315 23.6689 21.9225 23.7506 21.5999C23.9907 20.6656 23.8466 19.6738 23.3502 18.8459ZM30.3584 23.0649L27.955 22.2315V22.2323C27.7597 22.1635 27.5571 22.1154 27.3514 22.0906C27.3378 22.0906 27.325 22.0898 27.3114 22.0874C27.3058 22.0866 27.3001 22.085 27.2937 22.0842C26.9111 22.0506 26.526 22.101 26.1649 22.2323L23.8056 23.0505C23.792 23.0721 23.7775 23.0929 23.7631 23.1146V26.71H23.7623C23.7535 27.1367 23.9385 27.545 24.2659 27.8196L26.1216 29.4335C26.6548 29.9027 27.453 29.9035 27.9878 29.4359L29.8555 27.8204V27.8196C30.183 27.545 30.3679 27.1367 30.3583 26.71L30.3584 23.0649ZM25.4116 26.1568V26.1576C25.3516 26.0975 25.2699 26.0631 25.185 26.0631C25.1002 26.0631 25.0185 26.0975 24.9585 26.1576C24.8976 26.2176 24.864 26.2993 24.864 26.3841C24.864 26.469 24.8984 26.5507 24.9585 26.6107L25.9056 27.5586C25.9656 27.6186 26.0473 27.6523 26.1321 27.6523C26.217 27.6523 26.2986 27.6186 26.3587 27.5586L29.1632 24.7541C29.2881 24.6292 29.2881 24.4266 29.1624 24.301C29.0375 24.1761 28.835 24.1761 28.7093 24.301L26.1323 26.878L25.4116 26.1568Z" fill="white"/>
<defs>
<linearGradient id="paint0_linear_4211_3358" x1="15.5406" y1="57.151" x2="57.4094" y2="19.2134" gradientUnits="userSpaceOnUse">
<stop stop-color="#FF1717"/>
<stop offset="1" stop-color="#FF6461"/>
</linearGradient>
</defs>
</svg>
