<svg width="40" height="40" viewBox="0 0 40 40" fill="none" xmlns="http://www.w3.org/2000/svg">
<rect width="40" height="40" rx="10" fill="url(#paint0_linear_4211_3366)"/>
<path d="M15.5071 13.2924C14.1147 14.6921 13.252 16.6214 13.252 18.747C13.252 20.8726 14.0555 22.7536 15.5145 24.2125C15.5145 24.2125 15.5145 24.2199 15.5219 24.2236C15.596 24.2977 15.6885 24.331 15.7848 24.331C15.8811 24.331 15.9737 24.2939 16.0477 24.2236L17.4475 22.8239C17.5919 22.6795 17.5919 22.4462 17.4475 22.3018C16.4995 21.3501 15.9774 20.0911 15.9774 18.7542C15.9774 15.9881 18.2251 13.7366 20.9912 13.7329C22.1317 13.7329 23.2463 14.1291 24.1351 14.8474C24.2943 14.9771 24.5276 14.9511 24.6572 14.7919C24.7868 14.6327 24.7609 14.3994 24.6017 14.2698C23.6759 13.5255 22.5354 13.0848 21.3577 13.0071V11.7666C24.9237 11.9554 27.7861 14.814 27.975 18.3838H26.7345C26.7086 18.0024 26.6493 17.6284 26.553 17.2655C26.5012 17.0693 26.2975 16.9508 26.1013 17.0026C25.905 17.0544 25.7865 17.2581 25.8384 17.4544C25.9495 17.8728 26.0087 18.3135 26.0087 18.7541C26.0087 20.0909 25.4866 21.3537 24.5386 22.3016C24.3942 22.4461 24.3942 22.6794 24.5386 22.8238H24.5423L25.9421 24.2235C26.0161 24.2975 26.1087 24.3346 26.205 24.3346C26.3013 24.3346 26.3938 24.2975 26.4679 24.2272C26.4679 24.2272 26.4679 24.2198 26.4753 24.2161C27.9343 22.7571 28.7378 20.8131 28.7378 18.7468C28.7378 14.4771 25.2645 11 20.9911 11C18.8655 11 16.9364 11.8628 15.5329 13.2551C15.5255 13.2588 15.5181 13.2625 15.5107 13.2699C15.5033 13.2773 15.5033 13.2847 15.4959 13.2921L15.5071 13.2924ZM26.7383 19.121H27.9862C27.9011 20.728 27.279 22.2353 26.2014 23.4276L25.3201 22.5462C26.1644 21.5835 26.6569 20.3911 26.7383 19.1172V19.121ZM16.6773 22.5462L15.796 23.4275C14.7184 22.2314 14.0926 20.7279 14.0112 19.1209H15.2591C15.3405 20.3947 15.8331 21.587 16.6773 22.5499V22.5462ZM15.2591 18.3804H14.0112C14.0963 16.7288 14.7555 15.2291 15.796 14.0737L16.6773 14.9551C15.8627 15.8845 15.3406 17.0732 15.2591 18.3804ZM17.2031 14.4292L16.3218 13.5479C17.4772 12.5074 18.9768 11.8482 20.6284 11.7631V13.0073C19.3176 13.0925 18.1288 13.6109 17.2031 14.4292Z" fill="white"/>
<path d="M26.1221 15.5614C26.2258 15.4133 26.2109 15.2133 26.0813 15.0837C25.9517 14.9541 25.7518 14.9393 25.6037 15.043C24.5779 15.7762 23.6559 16.439 22.8709 17.0018C21.5563 17.9461 20.6047 18.6275 20.2567 18.8644C20.1196 18.957 19.7086 19.2347 19.5494 19.7495C19.4753 19.9939 19.4679 20.2568 19.5309 20.5271C19.6605 21.0714 20.0937 21.5047 20.6343 21.6306C20.7565 21.6602 20.8787 21.675 20.9972 21.675C21.1379 21.675 21.2787 21.6528 21.412 21.6121C21.923 21.4528 22.2044 21.0418 22.297 20.9011C22.5303 20.5567 23.219 19.5976 24.1707 18.2719C24.7298 17.4943 25.389 16.5759 26.1147 15.5576L26.1221 15.5614ZM21.6858 20.4901C21.6192 20.5901 21.4599 20.8233 21.197 20.9048C21.0785 20.9419 20.9489 20.9419 20.8082 20.9085C20.5416 20.8456 20.3194 20.6234 20.2565 20.3568C20.2232 20.2124 20.2232 20.0865 20.2602 19.968C20.3417 19.7051 20.5749 19.5458 20.6786 19.4755C21.0304 19.2385 21.9339 18.5868 23.304 17.6055C23.5891 17.4018 23.8928 17.1833 24.215 16.9538C23.9891 17.2685 23.778 17.5647 23.5743 17.8462C22.5856 19.2274 21.9302 20.1383 21.6858 20.4938L21.6858 20.4901Z" fill="white"/>
<path d="M19.8879 22.8535C19.6842 22.8535 19.5176 23.0201 19.5176 23.2238C19.5176 23.4275 19.6842 23.5941 19.8879 23.5941H22.1097C22.3133 23.5941 22.48 23.4275 22.48 23.2238C22.48 23.0201 22.3133 22.8535 22.1097 22.8535H19.8879Z" fill="white"/>
<path d="M29.1447 13.2246H28.1967C27.993 13.2246 27.8264 13.3912 27.8264 13.5949C27.8264 13.7986 27.993 13.9652 28.1967 13.9652H29.1447C29.7557 13.9652 30.2556 14.4651 30.2556 15.0761V25.0743C30.2556 25.6853 29.7557 26.1852 29.1447 26.1852H12.8515C12.2405 26.1852 11.7406 25.6853 11.7406 25.0743V15.0761C11.7406 14.4651 12.2405 13.9652 12.8515 13.9652H13.8032C14.0068 13.9652 14.1735 13.7986 14.1735 13.5949C14.1735 13.3912 14.0068 13.2246 13.8032 13.2246H12.8515C11.8295 13.2246 11 14.0541 11 15.0761V25.0743C11 26.0963 11.8295 26.9258 12.8515 26.9258H18.9429L18.1949 28.407H16.299C15.625 28.407 15.0733 28.955 15.0733 29.6327V29.7734C15.0733 30.4474 15.6213 30.9991 16.299 30.9991H25.7009C26.3749 30.9991 26.9266 30.4511 26.9266 29.7734V29.6327C26.9266 28.9587 26.3786 28.407 25.7009 28.407H23.805L23.057 26.9258H29.1484C30.1704 26.9258 30.9999 26.0963 30.9999 25.0743V15.0761C30.9999 14.0541 30.1704 13.2246 29.1484 13.2246H29.1447ZM26.1823 29.6325V29.7732C26.1823 30.0398 25.9638 30.2583 25.6972 30.2583H16.2952C16.0286 30.2583 15.8101 30.0398 15.8101 29.7732V29.6325C15.8101 29.3659 16.0286 29.1474 16.2952 29.1474H25.6972C25.9638 29.1474 26.1823 29.3659 26.1823 29.6325ZM22.9755 28.4068H19.0244L19.7724 26.9256H22.2274L22.9755 28.4068Z" fill="white"/>
<defs>
<linearGradient id="paint0_linear_4211_3366" x1="15.5406" y1="57.151" x2="57.4094" y2="19.2134" gradientUnits="userSpaceOnUse">
<stop stop-color="#FF1717"/>
<stop offset="1" stop-color="#FF6461"/>
</linearGradient>
</defs>
</svg>
