<svg width="40" height="40" viewBox="0 0 40 40" fill="none" xmlns="http://www.w3.org/2000/svg">
<rect width="40" height="40" rx="10" fill="url(#paint0_linear_3935_4765)"/>
<path d="M22.8729 23.3872L22.2839 23.2709L21.8718 22.2767L22.2067 21.7779C22.3863 21.5107 22.3507 21.1515 22.1234 20.9234L21.0763 19.8763C20.849 19.649 20.4899 19.6134 20.2218 19.793L19.723 20.1279L18.7288 19.7158L18.6125 19.1267C18.5501 18.811 18.2716 18.5819 17.9497 18.5819H16.468C16.1462 18.5819 15.8677 18.811 15.8052 19.1267L15.689 19.7158L14.6948 20.1279L14.1959 19.793C13.9288 19.6134 13.5696 19.649 13.3414 19.8763L12.2943 20.9234C12.0671 21.1507 12.0315 21.5098 12.2111 21.7779L12.5459 22.2767L12.1338 23.2709L11.5448 23.3872C11.229 23.4496 11 23.7281 11 24.0499V25.5317C11 25.8535 11.229 26.132 11.5448 26.1945L12.1338 26.3107L12.5459 27.3049L12.2111 27.8037C12.0315 28.0709 12.067 28.4301 12.2943 28.6583L13.3414 29.7053C13.5687 29.9326 13.9279 29.9682 14.1959 29.7886L14.6948 29.4538L15.689 29.8658L15.8052 30.4549C15.8677 30.7707 16.1462 30.9997 16.468 30.9997H17.9497C18.2716 30.9997 18.5501 30.7707 18.6125 30.4549L18.7288 29.8658L19.723 29.4538L20.2218 29.7886C20.489 29.9682 20.8481 29.9326 21.0763 29.7053L22.1234 28.6583C22.3507 28.431 22.3863 28.0718 22.2067 27.8037L21.8718 27.3049L22.2839 26.3107L22.8729 26.1945C23.1887 26.132 23.4177 25.8535 23.4177 25.5317V24.0499C23.4177 23.7281 23.1887 23.4496 22.8729 23.3872ZM22.6179 25.4293L21.9187 25.5672C21.7877 25.5933 21.6775 25.6826 21.6263 25.8067L21.0503 27.1973C20.9991 27.3214 21.013 27.4619 21.0876 27.5729L21.484 28.1646L20.581 29.0677L19.9893 28.6712C19.8783 28.5966 19.7369 28.5827 19.6137 28.6339L18.223 29.21C18.099 29.2611 18.0096 29.3704 17.9836 29.5023L17.8457 30.2015H16.5687L16.4307 29.5023C16.4047 29.3713 16.3154 29.2611 16.1913 29.21L14.8007 28.6339C14.6766 28.5827 14.5361 28.5966 14.425 28.6712L13.8334 29.0677L12.9303 28.1646L13.3268 27.5729C13.4014 27.4619 13.4152 27.3205 13.3641 27.1973L12.788 25.8067C12.7368 25.6826 12.6267 25.5933 12.4957 25.5672L11.7965 25.4293V24.1523L12.4957 24.0144C12.6267 23.9883 12.7368 23.899 12.788 23.7749L13.3641 22.3843C13.4152 22.2603 13.4014 22.1197 13.3268 22.0087L12.9303 21.417L13.8334 20.5139L14.425 20.9104C14.5361 20.985 14.6775 20.9989 14.8007 20.9477L16.1913 20.3717C16.3154 20.3205 16.4047 20.2103 16.4307 20.0793L16.5687 19.3801H17.8457L17.9836 20.0793C18.0096 20.2103 18.099 20.3205 18.223 20.3717L19.6137 20.9477C19.7377 20.9989 19.8783 20.985 19.9893 20.9104L20.581 20.5139L21.484 21.417L21.0876 22.0087C21.013 22.1197 20.9991 22.2611 21.0503 22.3843L21.6263 23.7749C21.6775 23.899 21.7877 23.9884 21.9187 24.0144L22.6179 24.1523V25.4293ZM17.2081 21.1404C15.1955 21.1404 13.5575 22.7783 13.5575 24.791C13.5575 26.8045 15.1953 28.4417 17.2081 28.4417C19.2216 28.4417 20.8588 26.8038 20.8588 24.791C20.8588 22.7775 19.2209 21.1404 17.2081 21.1404ZM17.2081 27.6415C15.6362 27.6415 14.3574 26.3628 14.3574 24.7908C14.3574 23.2189 15.6361 21.9401 17.2081 21.9401C18.7801 21.9401 20.0588 23.2188 20.0588 24.7908C20.0588 26.3627 18.7801 27.6415 17.2081 27.6415ZM18.5918 25.981C18.486 26.4061 18.1086 26.7115 17.608 26.8069V27.016C17.608 27.2372 17.4293 27.4159 17.2081 27.4159C16.9869 27.4159 16.8082 27.2372 16.8082 27.016V26.7809C16.2807 26.6438 15.8921 26.2708 15.7932 25.7763C15.7498 25.5595 15.8903 25.3486 16.1072 25.3061C16.3241 25.2628 16.5349 25.4033 16.5774 25.6202C16.6373 25.9186 16.9721 26.0323 17.2411 26.0383C17.5265 26.0453 17.7781 25.9351 17.8154 25.7876C17.8423 25.6783 17.8995 25.4519 17.3391 25.2654C17.268 25.2419 17.1882 25.2194 17.1032 25.196C16.8065 25.1144 16.4707 25.0216 16.2165 24.79C15.7542 24.3701 15.7004 23.6934 16.0925 23.2163C16.266 23.0055 16.5202 22.858 16.8091 22.7877V22.5648C16.8091 22.3436 16.9878 22.1648 17.209 22.1648C17.4302 22.1648 17.6089 22.3436 17.6089 22.5648V22.7877C17.6202 22.7903 17.6315 22.7929 17.6436 22.7964C18.1642 22.9283 18.5285 23.2831 18.6187 23.7472C18.6612 23.9641 18.519 24.174 18.3021 24.2165C18.0852 24.259 17.8752 24.1168 17.8327 23.8999C17.792 23.6891 17.5733 23.6041 17.4467 23.5719C17.163 23.4999 16.8394 23.5676 16.7102 23.7246C16.6087 23.8487 16.5826 24.043 16.7535 24.1983C16.8672 24.3015 17.0953 24.3649 17.3157 24.4256C17.4068 24.4507 17.5013 24.4768 17.5907 24.5071C18.7315 24.8862 18.6699 25.6653 18.5909 25.9819L18.5918 25.981ZM29.1946 24.7908C29.1946 24.9105 29.1417 25.0233 29.0489 25.0996L27.843 26.0938C27.7684 26.1554 27.6782 26.1849 27.5888 26.1849C27.4735 26.1849 27.3589 26.1355 27.28 26.0392C27.1395 25.8683 27.1638 25.6167 27.3338 25.4761L27.6808 25.1907H24.3546C24.1334 25.1907 23.9547 25.012 23.9547 24.7908C23.9547 24.5696 24.1334 24.3909 24.3546 24.3909H27.6808L27.3338 24.1054C27.1638 23.9649 27.1386 23.7124 27.28 23.5424C27.4205 23.3724 27.673 23.3472 27.843 23.4886L29.0489 24.4828C29.1409 24.5591 29.1946 24.6719 29.1946 24.7916L29.1946 24.7908ZM24.7156 16.7169L27.7129 13.7196L27.2661 13.763C27.0466 13.7838 26.8506 13.6233 26.8297 13.403C26.8089 13.1835 26.9694 12.9874 27.1898 12.9666L28.7461 12.8165C28.8649 12.8053 28.9829 12.8478 29.0671 12.9319C29.1512 13.0161 29.1937 13.134 29.1825 13.2529L29.0324 14.8092C29.0116 15.0287 28.8164 15.1901 28.596 15.1692C28.3765 15.1484 28.2152 14.9524 28.236 14.7329L28.2794 14.2861L25.2821 17.2834C25.204 17.3615 25.1017 17.4005 24.9993 17.4005C24.8969 17.4005 24.7946 17.3615 24.7165 17.2834C24.5603 17.1272 24.5603 16.8739 24.7165 16.7178L24.7156 16.7169ZM16.8074 17.6443V14.3181L16.5219 14.6651C16.3814 14.8351 16.129 14.8603 15.9589 14.7189C15.7889 14.5783 15.7637 14.3259 15.9051 14.1559L16.8993 12.95C16.9756 12.858 17.0884 12.8043 17.2081 12.8043C17.3279 12.8043 17.4406 12.8572 17.517 12.95L18.5112 14.1559C18.6517 14.3268 18.6274 14.5783 18.4574 14.7189C18.2865 14.8594 18.0349 14.8351 17.8943 14.6651L17.6089 14.3181V17.6443C17.6089 17.8655 17.4302 18.0442 17.209 18.0442C16.9878 18.0442 16.809 17.8655 16.809 17.6443H16.8074ZM23.9028 23.4463C23.6816 23.4463 23.5028 23.2675 23.5028 23.0463V18.4953H18.9519C18.7306 18.4953 18.5519 18.3166 18.5519 18.0954C18.5519 17.8742 18.7306 17.6955 18.9519 17.6955H23.9028C24.124 17.6955 24.3027 17.8742 24.3027 18.0954V23.0464C24.3027 23.2676 24.124 23.4463 23.9028 23.4463ZM30.9991 11.3999V25.6984C30.9991 25.9196 30.8204 26.0984 30.5991 26.0984C30.3779 26.0984 30.1992 25.9196 30.1992 25.6984V11.7999H16.3015C16.0803 11.7999 15.9016 11.6212 15.9016 11.3999C15.9016 11.1787 16.0803 11 16.3015 11H30.6001C30.8213 11 31 11.1787 31 11.3999L30.9991 11.3999Z" fill="white"/>
<defs>
<linearGradient id="paint0_linear_3935_4765" x1="15.5406" y1="57.151" x2="57.4094" y2="19.2134" gradientUnits="userSpaceOnUse">
<stop stop-color="#FF1717"/>
<stop offset="1" stop-color="#FF6461"/>
</linearGradient>
</defs>
</svg>
