<svg width="40" height="40" viewBox="0 0 40 40" fill="none" xmlns="http://www.w3.org/2000/svg">
<rect width="40" height="40" rx="10" fill="url(#paint0_linear_3935_4775)"/>
<path d="M21.3235 24.6069V23.9023H20.6784V24.5475H20.0332V25.5152C20.0332 26.0488 20.4674 26.483 21.0009 26.483C21.179 26.483 21.3235 26.6275 21.3235 26.8056V27.1281H21.0009C20.8229 27.1281 20.6784 26.9836 20.6784 26.8056V26.483H20.0332V26.8056C20.0332 27.2256 20.3038 27.5804 20.6784 27.714V28.4185H21.3235V27.7733H21.9687V26.8056C21.9687 26.272 21.5345 25.8378 21.0009 25.8378C20.8229 25.8378 20.6784 25.6933 20.6784 25.5152V25.1927H21.0009C21.179 25.1927 21.3235 25.3372 21.3235 25.5152V25.8378H21.9687V25.5152C21.9687 25.0952 21.698 24.7404 21.3235 24.6069Z" fill="white"/>
<path d="M21.6448 16.8071H21.9674V16.162H21.6448C21.2248 16.162 20.8699 15.8913 20.7364 15.5168H21.3222V14.8717H20.677V14.2265H21.3222V13.5813H20.7364C20.8699 13.2068 21.2248 12.9362 21.6448 12.9362H21.9674V12.291H21.6448C20.8661 12.291 20.2145 12.8462 20.0645 13.5813H19.3867V14.2265H20.0319V14.8717H19.3867V15.5168H20.0645C20.2145 16.252 20.8661 16.8071 21.6448 16.8071Z" fill="white"/>
<path d="M14.8707 20.6781V20.033H15.5158V19.3878H14.8707V18.7426H15.5158V18.0975H14.8707V17.8823L15.7739 16.6781L15.2577 16.291L14.5481 17.2371L13.8384 16.291L13.3223 16.6781L14.2255 17.8823V18.0975H13.5803V18.7426H14.2255V19.3878H13.5803V20.033H14.2255V20.6781H14.8707Z" fill="white"/>
<path d="M31 18.4194C31 16.4629 29.4081 14.871 27.4516 14.871C25.4952 14.871 23.9032 16.4629 23.9032 18.4194C23.9032 19.6194 24.5035 20.68 25.4177 21.3226H22.6129V20.6774H23.2581V19.3871H22.6129V20.0323H21.9677V22.6129H21.3226V18.0803C23.1284 17.9168 24.5484 16.3961 24.5484 14.5484C24.5484 12.5919 22.9565 11 21 11C19.0435 11 17.4516 12.5919 17.4516 14.5484C17.4516 16.3961 18.8716 17.9168 20.6774 18.0803V22.6129H20.0323V20.0323H19.3871V19.3871H18.7419V20.6774H19.3871V21.3226H16.5823C17.4965 20.68 18.0968 19.6194 18.0968 18.4194C18.0968 16.4629 16.5048 14.871 14.5484 14.871C12.5919 14.871 11 16.4629 11 18.4194C11 19.6703 11.6523 20.7697 12.6326 21.4016C12.43 21.5106 12.2903 21.7219 12.2903 21.9677V30.3548C12.2903 30.7106 12.5797 31 12.9355 31H29.0645C29.4203 31 29.7097 30.7106 29.7097 30.3548V21.9677C29.7097 21.7219 29.57 21.5106 29.3674 21.4016C30.3477 20.7697 31 19.6703 31 18.4194ZM27.7742 24.18C27.3229 24.0626 26.9694 23.7094 26.8523 23.2581H27.7742V24.18ZM26.1903 23.2581C26.3268 24.0668 26.9655 24.7052 27.7742 24.8419V27.481C26.9655 27.6174 26.3271 28.2561 26.1903 29.0648H23.0335C23.9481 28.4219 24.5484 27.3613 24.5484 26.1613C24.5484 24.9613 23.9481 23.9006 23.0339 23.2581H26.1903ZM27.7742 28.1426V29.0645H26.8523C26.9694 28.6132 27.3229 28.2597 27.7742 28.1426ZM14.2258 28.1426C14.6771 28.26 15.0306 28.6132 15.1477 29.0645H14.2258V28.1426ZM15.8097 29.0645C15.6732 28.2558 15.0345 27.6174 14.2258 27.4806V24.8419C15.0345 24.7055 15.6729 24.0668 15.8097 23.2581H18.9665C18.0519 23.9006 17.4516 24.9613 17.4516 26.1613C17.4516 27.3613 18.0519 28.4219 18.9661 29.0645H15.8097ZM14.2258 24.18V23.2581H15.1477C15.0306 23.7094 14.6771 24.0629 14.2258 24.18ZM18.0968 26.1613C18.0968 24.5603 19.399 23.2581 21 23.2581C22.601 23.2581 23.9032 24.5603 23.9032 26.1613C23.9032 27.7623 22.601 29.0645 21 29.0645C19.399 29.0645 18.0968 27.7623 18.0968 26.1613ZM18.0968 14.5484C18.0968 12.9477 19.399 11.6452 21 11.6452C22.601 11.6452 23.9032 12.9477 23.9032 14.5484C23.9032 16.149 22.601 17.4516 21 17.4516C19.399 17.4516 18.0968 16.149 18.0968 14.5484ZM11.6452 18.4194C11.6452 16.8187 12.9474 15.5161 14.5484 15.5161C16.1494 15.5161 17.4516 16.8187 17.4516 18.4194C17.4516 20.02 16.1494 21.3226 14.5484 21.3226C12.9474 21.3226 11.6452 20.02 11.6452 18.4194ZM29.0645 21.9677V30.3548H12.9355V21.9677H19.3871V22.6129H13.5806V29.7097H28.4194V22.6129H22.6129V21.9677H29.0645ZM27.4516 21.3226C25.8506 21.3226 24.5484 20.02 24.5484 18.4194C24.5484 16.8187 25.8506 15.5161 27.4516 15.5161C29.0526 15.5161 30.3548 16.8187 30.3548 18.4194C30.3548 20.02 29.0526 21.3226 27.4516 21.3226Z" fill="white"/>
<path d="M27.646 17.1295H27.7734C28.1292 17.1295 28.4185 17.4189 28.4185 17.7747H29.0637C29.0637 17.0631 28.485 16.4844 27.7734 16.4844H27.646C27.0047 16.4844 26.4831 17.006 26.4831 17.6473C26.4831 17.9363 26.5905 18.2092 26.7779 18.4199H25.8379V19.065H27.2514L26.6063 20.3553H29.0637V19.7102H27.6501L27.9727 19.065H29.0637V18.4199H27.8711L27.3589 18.0782C27.2147 17.9821 27.1282 17.8211 27.1282 17.6473C27.1282 17.3618 27.3605 17.1295 27.646 17.1295Z" fill="white"/>
<path d="M23.2584 18.0977H22.6133V18.7428H23.2584V18.0977Z" fill="white"/>
<path d="M19.3873 18.0977H18.7422V18.7428H19.3873V18.0977Z" fill="white"/>
<path d="M29.7095 12.291H29.0643V13.5813H27.774V12.291H27.1288V13.5813H25.1934V14.2265H29.7095V12.291Z" fill="white"/>
<path d="M29.7096 11H29.0645V11.6452H29.7096V11Z" fill="white"/>
<path d="M27.7741 11H27.1289V11.6452H27.7741V11Z" fill="white"/>
<path d="M16.8071 13.5813H14.8717V12.291H14.2265V13.5813H12.9362V12.291H12.291V14.2265H16.8071V13.5813Z" fill="white"/>
<path d="M12.9362 11H12.291V11.6452H12.9362V11Z" fill="white"/>
<path d="M14.8717 11H14.2266V11.6452H14.8717V11Z" fill="white"/>
<defs>
<linearGradient id="paint0_linear_3935_4775" x1="15.5406" y1="57.151" x2="57.4094" y2="19.2134" gradientUnits="userSpaceOnUse">
<stop stop-color="#FF1717"/>
<stop offset="1" stop-color="#FF6461"/>
</linearGradient>
</defs>
</svg>
