<svg width="70" height="70" viewBox="0 0 70 70" fill="none" xmlns="http://www.w3.org/2000/svg">
<path d="M65 21.2912C65 12.8571 58.1429 6 49.7088 6C46.2083 6 42.7863 7.21701 40.0709 9.41549C37.6041 11.4242 35.8113 14.1723 34.9673 17.2148H8.16685C6.41985 17.2148 5 18.53 5 20.1461V48.602V52.2792C5 53.8691 6.41985 55.1647 8.16685 55.1647H20.8931V57.6445H12.1123C11.1439 57.6445 10.3588 58.4297 10.3588 59.398V61.4329C10.3588 62.4013 11.1439 63.1865 12.1123 63.1865H46.2345C47.2028 63.1865 47.988 62.4013 47.988 61.4329V59.398C47.988 58.4297 47.2028 57.6445 46.2345 57.6445H37.4537V55.1647H50.1799C51.9269 55.1647 53.3468 53.8691 53.3468 52.2792V36.1374C60.145 34.482 65 28.3577 65 21.2846V21.2912ZM50.6772 8.10033C52.2933 8.6434 53.7263 10.5213 54.7077 13.1647H50.6772V8.10033ZM48.7405 8.10687V13.1581H44.723C45.7176 10.5213 47.1636 8.65649 48.7405 8.10687ZM48.7405 15.0949V17.2148H43.6696C43.7873 16.482 43.9313 15.7688 44.108 15.0949H48.7405ZM50.6772 15.0949H55.3097C55.7154 16.6848 55.9771 18.458 56.0425 20.3228H53.3272C53.1636 18.759 52.0709 17.5027 50.6772 17.2606V15.0949ZM63.0305 20.3228H57.9793C57.9204 18.4646 57.6848 16.7045 57.3119 15.0949H61.5387C62.3697 16.6783 62.8931 18.4449 63.0305 20.3228ZM53.3468 29.4177H54.7077C54.3217 30.4515 53.8637 31.3675 53.3468 32.1396V29.4177ZM53.3468 27.4809V22.253H56.0425C55.9771 24.1047 55.7219 25.8779 55.3097 27.4809H53.3468ZM57.9793 22.253H63.024C62.8866 24.1178 62.3697 25.8909 61.5387 27.4809H57.3053C57.6848 25.8582 57.9204 24.0916 57.9793 22.253ZM60.2955 13.1581H56.7623C56.1996 11.47 55.4602 10.0109 54.59 8.85932C56.8604 9.75573 58.8299 11.2541 60.2955 13.1581ZM44.8146 8.87241C43.9509 10.0174 43.2181 11.47 42.6554 13.1581H39.1287C40.6009 11.2541 42.5703 9.76881 44.8146 8.87241ZM37.879 15.0883H42.1058C41.9487 15.7688 41.8113 16.4755 41.7067 17.2083H36.9826C37.2181 16.4689 37.5191 15.7623 37.8724 15.0883H37.879ZM6.93675 20.1527C6.93675 19.6161 7.49945 19.1581 8.16685 19.1581H50.1799C50.8473 19.1581 51.41 19.8779 51.41 20.7285V46.6718H6.93675V20.1527ZM46.0513 61.2628H12.2955V59.5943H46.0513V61.2628ZM35.5234 57.6576H22.8233V55.1778H35.5169V57.6576H35.5234ZM51.4166 52.2857C51.4166 52.8026 50.8539 53.241 50.1865 53.241H8.16685C7.49945 53.241 6.93675 52.8026 6.93675 52.2857V48.6085H51.4166V52.2857ZM54.5965 33.723C55.4667 32.5583 56.1996 31.0927 56.7623 29.4177H60.3086C58.8495 31.3217 56.8866 32.8266 54.5965 33.723ZM26.1472 50.9182C26.1472 50.3817 26.5791 49.9498 27.1156 49.9498H31.2377C31.7743 49.9498 32.2061 50.3817 32.2061 50.9182C32.2061 51.4547 31.7743 51.8866 31.2377 51.8866H27.1156C26.5791 51.8866 26.1472 51.4547 26.1472 50.9182ZM26.0491 34.6456C26.0491 35.1821 25.6172 35.614 25.0807 35.614H18.8779C18.3413 35.614 17.9095 35.1821 17.9095 34.6456C17.9095 34.1091 18.3413 33.6772 18.8779 33.6772H25.0807C25.6172 33.6772 26.0491 34.1091 26.0491 34.6456ZM44.7034 32.8528V23.9542C44.7034 22.9597 43.892 22.1483 42.8975 22.1483H15.9073C14.9128 22.1483 14.1014 22.9597 14.1014 23.9542V37.8779C14.1014 38.8724 14.9128 39.6838 15.9073 39.6838H34.6467C35.1178 42.9553 37.9378 45.4744 41.3337 45.4744C45.0633 45.4744 48.0927 42.4449 48.0927 38.7154C48.0927 36.2159 46.7252 34.024 44.6968 32.8593L44.7034 32.8528ZM16.0447 27.8604H42.7666V29.5878H16.0447V27.8604ZM42.7732 24.0851V25.9237H16.0447V24.0851H42.7666H42.7732ZM16.0447 31.518H42.7666V32.1069C42.3021 32.0087 41.8244 31.9498 41.3337 31.9498C37.9378 31.9498 35.1178 34.4689 34.6467 37.7405H16.0447V31.518ZM41.3402 43.5376C38.6772 43.5376 36.518 41.3719 36.518 38.7154C36.518 36.0589 38.6838 33.8931 41.3402 33.8931C43.9967 33.8931 46.1625 36.0589 46.1625 38.7154C46.1625 41.3719 43.9967 43.5376 41.3402 43.5376ZM44.7426 36.1832C45.1221 36.5627 45.1221 37.1712 44.7426 37.5507L41.0589 41.2345C40.8691 41.4242 40.6205 41.5158 40.3719 41.5158C40.1232 41.5158 39.8746 41.4242 39.6848 41.2345L37.9313 39.4809C37.5518 39.1014 37.5518 38.4929 37.9313 38.1134C38.3108 37.7339 38.9193 37.7339 39.2988 38.1134L40.3719 39.1865L43.3751 36.1832C43.7546 35.8037 44.3631 35.8037 44.7426 36.1832ZM33.9597 35.614H29.8441C29.3075 35.614 28.8757 35.1821 28.8757 34.6456C28.8757 34.1091 29.3075 33.6772 29.8441 33.6772H33.9597C34.4962 33.6772 34.928 34.1091 34.928 34.6456C34.928 35.1821 34.4962 35.614 33.9597 35.614Z" fill="url(#paint0_linear_3938_5062)"/>
<defs>
<linearGradient id="paint0_linear_3938_5062" x1="28.3108" y1="87.7066" x2="88.3835" y2="30.5965" gradientUnits="userSpaceOnUse">
<stop stop-color="#FF1717"/>
<stop offset="1" stop-color="#FF6461"/>
</linearGradient>
</defs>
</svg>
