<svg width="70" height="70" viewBox="0 0 70 70" fill="none" xmlns="http://www.w3.org/2000/svg">
<path d="M56.8844 5H13.924C12.3097 5.00234 11 6.31205 11 7.92869V46.0859C11 47.7026 12.3097 49.0123 13.924 49.0146H24.2705C24.6852 49.4012 25.1163 49.7667 25.5685 50.1088C25.8333 50.3103 26.1964 50.3313 26.4846 50.1603L28.7502 48.8108C29.022 48.9654 29.2961 49.1083 29.5772 49.2442V58.8014L28.0871 60.2938C27 59.769 25.6926 60.1041 24.992 61.0881C24.2938 62.0745 24.4063 63.4193 25.2591 64.2722C26.112 65.1274 27.4569 65.2422 28.4409 64.5463C29.4272 63.8481 29.767 62.5407 29.2445 61.4536L30.9783 59.7199C31.1329 59.5652 31.2172 59.3567 31.2172 59.1388V49.9031C31.4234 49.9711 31.632 50.0367 31.8428 50.0929L32.4895 52.6491H32.4918C32.5738 52.9724 32.8433 53.2137 33.1736 53.2606C33.6375 53.3262 34.1084 53.3683 34.5817 53.3918V57.1218C33.4478 57.5224 32.766 58.6799 32.9698 59.8654C33.1736 61.0509 34.1999 61.9178 35.4018 61.9178C36.6037 61.9178 37.6323 61.0509 37.8338 59.8654C38.0376 58.6798 37.3558 57.5224 36.2218 57.1218V53.3918C36.6951 53.3683 37.1684 53.3262 37.6323 53.2606H37.6347C37.965 53.2137 38.2344 52.9724 38.3164 52.6491L38.9607 50.0929C39.1716 50.032 39.3801 49.9734 39.5887 49.9008V59.1389C39.5887 59.3568 39.6754 59.5653 39.83 59.7199L41.5638 61.4537L41.5614 61.4513C41.0413 62.5408 41.3787 63.8458 42.3627 64.5417C43.3467 65.2376 44.6892 65.1251 45.5421 64.2722C46.3949 63.4194 46.5097 62.0745 45.8115 61.0905C45.1133 60.1088 43.8083 59.7691 42.7212 60.2916L41.2287 58.7991V49.2419C41.5099 49.106 41.784 48.9631 42.0558 48.8085L44.3214 50.158V50.1604C44.6072 50.3314 44.9704 50.3103 45.2375 50.1088C45.6873 49.7668 46.1208 49.4012 46.5355 49.0147H56.882C58.4986 49.0123 59.8083 47.7026 59.8083 46.086V7.92875C59.8083 6.31212 58.4987 5.00234 56.8844 5ZM27.0212 63.3398C26.6885 63.3398 26.3862 63.1383 26.2597 62.829C26.1309 62.5198 26.2011 62.1659 26.4378 61.9293C26.6744 61.695 27.0306 61.6247 27.3375 61.7513C27.6467 61.8801 27.8482 62.1824 27.8459 62.515C27.8459 62.9719 27.4757 63.3398 27.0212 63.3398ZM44.6072 62.5151C44.6048 62.8478 44.4034 63.1477 44.0964 63.2742C43.7872 63.4007 43.4333 63.3304 43.1991 63.0938C42.9648 62.8571 42.8945 62.5033 43.0233 62.1964C43.1499 61.8895 43.4521 61.688 43.7848 61.6903C44.0027 61.6903 44.2112 61.777 44.3658 61.9316C44.5205 62.0863 44.6072 62.2972 44.6072 62.5151ZM13.924 6.64038H56.8844C57.5943 6.64273 58.1683 7.21909 58.1683 7.92899V12.5399H12.6402V7.92899C12.6402 7.21907 13.2141 6.64272 13.924 6.64038ZM35.4039 60.2706C35.0712 60.2706 34.7713 60.0691 34.6425 59.7621C34.5159 59.4529 34.5862 59.0991 34.8229 58.8624C35.0572 58.6258 35.4133 58.5555 35.7202 58.6844C36.0295 58.8109 36.231 59.1108 36.231 59.4435C36.231 59.6637 36.1443 59.8746 35.9897 60.0292C35.8327 60.1839 35.6242 60.2706 35.4039 60.2706ZM44.6798 48.4618L42.475 47.1497C42.2126 46.9951 41.8846 46.9974 41.6245 47.1591C40.535 47.8339 39.3448 48.3282 38.096 48.6211C37.7985 48.6914 37.5642 48.9233 37.4892 49.2209L36.866 51.7021H36.8636C35.8936 51.7981 34.9143 51.7981 33.9443 51.7021L33.314 49.2186C33.2414 48.921 33.0071 48.6891 32.7096 48.6188C31.4631 48.3259 30.2706 47.8315 29.1834 47.1568C28.9234 46.9951 28.5953 46.9927 28.3329 47.1497L26.1305 48.4618H26.1282C25.3738 47.8433 24.6802 47.1497 24.064 46.3953L25.3784 44.1976H25.3761C25.5354 43.9328 25.5331 43.6048 25.3691 43.3424C24.6919 42.2553 24.1999 41.065 23.9094 39.8186C23.8391 39.5187 23.6072 39.2821 23.3096 39.2094L20.8237 38.5815C20.7745 38.0965 20.7488 37.6092 20.7488 37.1219C20.7488 36.6345 20.7722 36.1472 20.8214 35.6622L23.3073 35.0343H23.3096C23.6071 34.9593 23.8391 34.725 23.9094 34.4251C24.1999 33.1787 24.6919 31.9861 25.3691 30.899C25.5331 30.6389 25.5354 30.3085 25.3761 30.0461L24.064 27.8531C24.6802 27.0964 25.3737 26.4052 26.1282 25.7867L28.3306 27.0987H28.3329C28.5953 27.2557 28.9233 27.251 29.1834 27.0893C30.2705 26.4146 31.4631 25.9226 32.7096 25.6273C33.0071 25.5571 33.2391 25.3274 33.314 25.0322L33.9443 22.5487C34.9143 22.4503 35.8936 22.4503 36.8636 22.5487L37.4892 25.0299C37.5642 25.3274 37.7985 25.5594 38.096 25.6297C39.3448 25.9226 40.535 26.4169 41.6245 27.0917C41.8846 27.2534 42.2126 27.2557 42.475 27.0987L44.6774 25.7867H44.6798C45.4342 26.4052 46.1277 27.0964 46.7439 27.8531L45.4318 30.0485C45.2725 30.3109 45.2749 30.6413 45.4389 30.9014C46.116 31.9885 46.608 33.1811 46.8985 34.4275C46.9688 34.7274 47.2008 34.9617 47.4983 35.0367L49.9795 35.6623C50.0264 36.1519 50.0521 36.6416 50.0521 37.1243C50.0521 37.6069 50.0287 38.0942 49.9795 38.5863L47.496 39.2118V39.2095C47.1961 39.2845 46.9665 39.5211 46.8962 39.8187C46.6057 41.0674 46.1113 42.2577 45.4342 43.3448C45.2725 43.6049 45.2678 43.9352 45.4272 44.2L46.7416 46.3977C46.123 47.1521 45.4342 47.8433 44.6798 48.4618ZM56.8844 47.3723H48.068C48.1805 47.2341 48.2882 47.0935 48.396 46.9529H48.3937C48.5952 46.6882 48.6163 46.325 48.4452 46.0392L47.0933 43.7759L47.091 43.7736C47.6486 42.8012 48.0797 41.761 48.3749 40.6785L50.9311 40.0342C51.2568 39.9545 51.5004 39.6804 51.5449 39.3477C51.7464 37.8717 51.7464 36.3722 51.5449 34.8938C51.5004 34.5611 51.2567 34.2916 50.9311 34.2096L48.3749 33.5653L48.3726 33.5677C48.0774 32.4852 47.6463 31.4449 47.091 30.4703L48.4429 28.207C48.6139 27.9212 48.5952 27.558 48.3937 27.2909C47.4916 26.1007 46.4303 25.0394 45.2401 24.1373C44.9753 23.9358 44.6121 23.9147 44.324 24.0858L42.0584 25.4353V25.4377C41.0837 24.8824 40.0434 24.4513 38.9633 24.1537L38.319 21.5976C38.237 21.2743 37.9676 21.0329 37.6372 20.9861C36.1565 20.7823 34.657 20.7823 33.1763 20.9861C32.8459 21.033 32.5765 21.2743 32.4945 21.5976L31.8478 24.1537C30.7654 24.4513 29.7274 24.8824 28.7528 25.4377L26.4848 24.0858C26.199 23.9147 25.8358 23.9358 25.5687 24.1373C24.3785 25.0394 23.3195 26.1007 22.4175 27.2909C22.2136 27.558 22.1949 27.9189 22.3659 28.207L23.7178 30.4703C23.1625 31.4426 22.7314 32.4829 22.4362 33.5654L19.8777 34.2097C19.5544 34.2917 19.3107 34.5611 19.2662 34.8938C19.0601 36.3722 19.0601 37.874 19.2662 39.3548C19.3107 39.6875 19.5544 39.9569 19.8777 40.0366L22.4339 40.6809H22.4362C22.7314 41.7633 23.1625 42.8036 23.7178 43.7759L22.3659 46.0392V46.0415C22.1949 46.3274 22.2136 46.6905 22.4175 46.9553C22.5252 47.0958 22.633 47.2364 22.7455 47.3747H13.9291L13.9267 47.377C13.5847 47.3747 13.259 47.2388 13.0177 46.9974C12.7764 46.7561 12.6405 46.4281 12.6405 46.0861V14.1823H58.1686V46.0861C58.1686 46.796 57.5946 47.3723 56.8847 47.3747L56.8844 47.3723ZM39.209 9.59234C39.2067 9.37445 39.2934 9.16592 39.448 9.01363C39.6026 8.859 39.8112 8.77231 40.0291 8.77231H54.2226C54.4452 8.76528 54.6584 8.84963 54.8177 9.00426C54.9771 9.1589 55.0661 9.37211 55.0661 9.59235C55.0661 9.81492 54.9771 10.0258 54.8177 10.1804C54.6584 10.3351 54.4452 10.4194 54.2226 10.4124H40.0291C39.8112 10.4124 39.6026 10.3257 39.448 10.1734C39.2934 10.0188 39.209 9.81023 39.209 9.59234ZM17.7309 11.5581C18.5252 11.5581 19.2421 11.0801 19.5467 10.3444C19.8513 9.60872 19.6826 8.76294 19.1203 8.20063C18.5579 7.63832 17.7121 7.472 16.9765 7.77656C16.2431 8.08114 15.7628 8.79807 15.7652 9.59232C15.7675 10.6771 16.6462 11.5557 17.7309 11.5581ZM17.7309 9.26665C17.8621 9.26665 17.9816 9.34631 18.0308 9.46815C18.0824 9.58998 18.0542 9.73056 17.9605 9.82193C17.8668 9.91565 17.7262 9.94377 17.6067 9.89456C17.4849 9.84301 17.4052 9.72352 17.4052 9.59232C17.4052 9.41425 17.5505 9.269 17.7309 9.26665ZM27.4566 11.5581C28.2509 11.5581 28.9678 11.0777 29.27 10.3421C29.5746 9.60638 29.4036 8.76294 28.8413 8.20063C28.279 7.63832 27.4331 7.472 26.6998 7.77656C25.9641 8.08114 25.4862 8.79807 25.4862 9.59232C25.4885 10.6795 26.3695 11.5581 27.4566 11.5581ZM27.4566 9.26665C27.5878 9.26899 27.705 9.34866 27.7542 9.47049C27.8034 9.59232 27.7753 9.73055 27.6815 9.82427C27.5878 9.91564 27.4496 9.94376 27.3278 9.89221C27.2059 9.84301 27.1263 9.72352 27.1263 9.59232C27.1286 9.50563 27.1614 9.42362 27.2247 9.36271C27.2856 9.29945 27.3699 9.26665 27.4566 9.26665ZM22.595 11.5581C23.3892 11.5581 24.1061 11.0777 24.4084 10.3421C24.713 9.60638 24.5443 8.76294 23.9796 8.20063C23.4173 7.63832 22.5715 7.472 21.8382 7.77656C21.1048 8.08114 20.6245 8.79807 20.6245 9.59232C20.6269 10.6795 21.5078 11.5581 22.595 11.5581ZM22.595 9.26665C22.7262 9.26899 22.8433 9.34866 22.8925 9.47049C22.9417 9.59232 22.9136 9.73055 22.8199 9.82427C22.7285 9.91564 22.5879 9.94376 22.4661 9.89221C22.3443 9.84301 22.267 9.72352 22.267 9.59232C22.267 9.50563 22.2998 9.42362 22.363 9.36271C22.4239 9.29945 22.5083 9.26665 22.595 9.26665ZM35.4036 27.2533C32.1282 27.251 29.0638 28.877 27.2266 31.5902C25.3921 34.3033 25.0195 37.7501 26.2379 40.7934C27.4562 43.8346 30.1038 46.0745 33.3041 46.7703C33.3392 46.7797 33.3744 46.789 33.4119 46.7961C34.7216 47.0632 36.0711 47.0632 37.3808 46.7961C37.4254 46.789 37.4675 46.7797 37.5097 46.7656C40.7055 46.065 43.3484 43.8252 44.5621 40.7864C45.7757 37.7452 45.4032 34.3014 43.5687 31.5927C41.7342 28.8819 38.6766 27.2557 35.4036 27.2533ZM34.3703 45.2868V40.369C34.3703 40.041 34.1735 39.7434 33.8689 39.6145C32.6717 39.1061 31.8048 38.0354 31.5588 36.7562C31.3104 35.4792 31.7134 34.1625 32.6365 33.2417V36.6601C32.6365 36.9553 32.7912 37.2247 33.0466 37.3723L34.9912 38.4946C35.2466 38.6399 35.5582 38.6399 35.8113 38.4946L37.7583 37.3723C38.0113 37.2247 38.1683 36.9553 38.1683 36.6601V33.2417C39.0891 34.1625 39.492 35.4792 39.246 36.7562C39 38.0331 38.1331 39.1062 36.9382 39.6169C36.6336 39.7434 36.4368 40.041 36.4368 40.3713V45.2892C35.7504 45.3782 35.0568 45.3782 34.3703 45.2892V45.2868ZM38.0792 44.9049V40.8821C39.9231 39.8676 41.0361 37.8971 40.9517 35.7932C40.8674 33.6892 39.6022 31.8125 37.6833 30.9456C37.4279 30.8308 37.1351 30.8542 36.9008 31.0042C36.6665 31.1565 36.5259 31.4142 36.5259 31.693V36.1891L35.4036 36.8358L34.2767 36.1891V31.693C34.2767 31.4142 34.1337 31.1565 33.8994 31.0042C33.6651 30.8542 33.3723 30.8308 33.1169 30.9456C31.198 31.8125 29.9328 33.6892 29.8508 35.7955C29.7688 37.8995 30.8841 39.8699 32.728 40.8821V44.9073C28.9254 43.5999 26.622 39.734 27.2853 35.7652C27.946 31.7985 31.3808 28.8909 35.4035 28.8909C39.4263 28.8909 42.8614 31.7985 43.5218 35.7652C44.1849 39.7341 41.8817 43.5997 38.0791 44.9073L38.0792 44.9049Z" fill="url(#paint0_linear_3938_5088)"/>
<defs>
<linearGradient id="paint0_linear_3938_5088" x1="29.9627" y1="90.7264" x2="90.245" y2="46.293" gradientUnits="userSpaceOnUse">
<stop stop-color="#FF1717"/>
<stop offset="1" stop-color="#FF6461"/>
</linearGradient>
</defs>
</svg>
