<svg width="31" height="31" viewBox="0 0 31 31" fill="none" xmlns="http://www.w3.org/2000/svg">
<path d="M27.8395 23.5115L26.6835 17.709C26.6477 17.5291 26.5435 17.3737 26.3905 17.2714C26.2375 17.1691 26.054 17.1325 25.8741 17.1686L24.3866 17.4648C24.029 17.5361 23.792 17.8739 23.8397 18.2304C23.0027 18.4845 21.9932 18.5156 20.7482 17.4884C20.5098 17.2916 20.2451 17.1638 19.9746 17.1045V4.18794C19.9746 3.53272 19.4416 3 18.7867 3H7.84878C7.52671 3 7.23624 3.12029 7.00868 3.34785L3.34812 7.0084C3.12057 7.23596 3 7.52643 3 7.8485V24.9013C3 25.5565 3.53299 26.0892 4.18794 26.0892H15.5297L17.0774 27.6369C17.3196 27.8792 17.6375 28 17.9557 28C18.2739 28 18.5918 27.8789 18.8341 27.6369C18.9482 27.5227 19.0356 27.3913 19.096 27.2514L19.4366 27.592C19.9211 28.0762 20.7088 28.0762 21.1933 27.592C21.3108 27.4745 21.402 27.337 21.4635 27.1873C21.6698 27.3309 21.9151 27.4085 22.1728 27.4085C22.5051 27.4085 22.8172 27.2796 23.0512 27.0457C23.276 26.8209 23.4037 26.5241 23.4134 26.2062C23.7186 26.1967 24.021 26.0759 24.2532 25.8436C24.5617 25.5354 24.6795 25.0836 24.5798 24.6693L25.0418 24.2072C25.0933 24.3314 25.1804 24.4381 25.2951 24.5146C25.4099 24.5911 25.5415 24.631 25.6762 24.631C25.7211 24.631 25.7666 24.6266 25.8118 24.6174L27.2993 24.3211C27.6713 24.2469 27.9135 23.8838 27.8395 23.5115ZM24.5404 18.234C24.5401 18.234 24.5398 18.234 24.5398 18.2343L24.5404 18.234ZM23.9913 19.004L24.8458 23.2937L24.128 24.0116L20.726 20.56C20.721 20.555 20.716 20.55 20.7108 20.5453C19.9655 19.8662 19.2764 19.5744 18.8202 19.7446C18.5832 19.833 18.4294 20.0334 18.3986 20.2947C18.3983 20.2978 18.3978 20.3008 18.3975 20.3042C18.3906 20.379 18.3839 20.4538 18.3773 20.5278C18.2883 21.5398 18.1968 22.1404 17.4393 22.4602L16.9263 20.1093C16.8878 19.9333 16.9981 19.7978 17.0973 19.7149L19.0918 18.0494C19.425 17.7714 19.8787 17.7886 20.2482 18.0935C21.7418 19.3252 23.004 19.2892 23.9913 19.004ZM7.12703 4.33872V6.79997C7.12703 6.98013 6.98069 7.12648 6.80053 7.12648H4.33928L7.12703 4.33872ZM4.18822 25.3051C3.96565 25.3051 3.78439 25.1241 3.78439 24.9013V7.91086H6.80025C7.41279 7.91086 7.91114 7.41251 7.91114 6.79997V3.78411H18.7861C19.0087 3.78411 19.1899 3.9651 19.1899 4.18794V17.1267C18.9765 17.1877 18.7728 17.2941 18.5896 17.4471L18.0239 17.9194H14.8947C14.8182 17.6943 14.6275 17.5145 14.378 17.4648L12.8905 17.1686C12.5185 17.0945 12.1551 17.3368 12.0811 17.709L11.9182 18.5272H5.50172C5.28525 18.5272 5.10953 18.703 5.10953 18.9194C5.10953 19.1359 5.28497 19.3116 5.50172 19.3116H11.7621L11.0551 22.8616C10.8807 22.9738 10.728 23.0279 10.583 23.0279C10.3048 23.0279 10.218 22.8893 10.0683 22.2047C9.9414 21.6249 9.7496 20.7485 8.76482 20.7485C8.04418 20.7485 7.66612 21.1268 7.33241 21.4608C6.93662 21.8568 6.563 22.2307 5.502 22.2307C5.28553 22.2307 5.1098 22.4065 5.1098 22.6229C5.1098 22.8394 5.28525 23.0151 5.502 23.0151C6.88784 23.0151 7.46545 22.4372 7.88703 22.0151C8.2127 21.6894 8.38593 21.5326 8.76482 21.5326C9.05917 21.5326 9.14953 21.6736 9.30225 22.3721C9.4278 22.9456 9.61739 23.812 10.5833 23.812C10.6983 23.812 10.8114 23.7981 10.9242 23.7707C10.9741 24.0395 11.182 24.2646 11.4661 24.3211L12.9537 24.6174C12.9988 24.6263 13.044 24.6307 13.0892 24.6307C13.2239 24.6307 13.3556 24.5911 13.4703 24.5143C13.569 24.4484 13.6469 24.3602 13.6998 24.258L14.7467 25.3048L4.18822 25.3051ZM13.0119 23.8295L11.7128 23.5706L12.6233 18.9998C12.6236 18.9984 12.6238 18.9973 12.6241 18.9959L12.8312 17.9563L14.1302 18.2151L13.0119 23.8295ZM23.6984 25.289C23.5199 25.4675 23.2294 25.4675 23.0509 25.289L20.5201 22.7582C20.3668 22.6052 20.1187 22.6052 19.9655 22.7582C19.8122 22.9115 19.8122 23.1595 19.9655 23.3128L22.4963 25.8436C22.4966 25.8439 22.4968 25.8442 22.4971 25.8445C22.5825 25.9301 22.6293 26.0449 22.6293 26.1674C22.6293 26.2904 22.5822 26.4052 22.4963 26.4911C22.4104 26.577 22.2956 26.6241 22.1725 26.6241C22.0498 26.6241 21.9347 26.577 21.8488 26.4911L19.1747 23.817C19.0217 23.6637 18.7734 23.6637 18.6201 23.817C18.4668 23.9703 18.4668 24.2183 18.6201 24.3716L20.6381 26.3897C20.6384 26.3899 20.6384 26.3899 20.6387 26.3902L20.6398 26.3913C20.7249 26.477 20.7717 26.5914 20.7717 26.7139C20.7717 26.837 20.7243 26.9517 20.6387 27.0377C20.4602 27.2162 20.1697 27.2162 19.9912 27.0377L17.8293 24.8758C17.676 24.7228 17.428 24.7228 17.2747 24.8758C17.1214 25.029 17.1214 25.2771 17.2747 25.4304L18.2794 26.4351C18.4579 26.6136 18.4577 26.9041 18.2792 27.0823C18.1007 27.2608 17.8102 27.2608 17.6317 27.0823L13.906 23.3561L14.8329 18.7038H17.0848L16.5951 19.1126C16.2248 19.4216 16.0665 19.846 16.1605 20.2764L16.7656 23.0492C16.788 23.1526 16.8515 23.2424 16.9413 23.2984C17.0311 23.3544 17.1397 23.3716 17.2426 23.3463C18.9541 22.9245 19.063 21.6878 19.1589 20.5966C19.1619 20.5605 19.1653 20.5245 19.1686 20.4882C19.3235 20.5198 19.6692 20.6589 20.1753 21.1182L23.7992 24.7948C23.8655 24.9628 23.8272 25.1601 23.6984 25.289ZM25.7524 23.8295L24.6341 18.2151L25.9332 17.9563L27.0515 23.5706L25.7524 23.8295ZM5.10925 16.3323C5.10925 16.1159 5.2847 15.9401 5.50144 15.9401H15.8625C16.079 15.9401 16.2547 16.1156 16.2547 16.3323C16.2547 16.5491 16.0793 16.7245 15.8625 16.7245H5.50144C5.2847 16.7245 5.10925 16.5488 5.10925 16.3323ZM5.10925 11.1584C5.10925 10.942 5.2847 10.7662 5.50144 10.7662H7.09433C7.31079 10.7662 7.48652 10.9417 7.48652 11.1584C7.48652 11.3749 7.31107 11.5506 7.09433 11.5506H5.50144C5.2847 11.5506 5.10925 11.3749 5.10925 11.1584ZM5.10925 13.7452C5.10925 13.5288 5.2847 13.3531 5.50144 13.3531H7.09433C7.31079 13.3531 7.48652 13.5285 7.48652 13.7452C7.48652 13.962 7.31107 14.1374 7.09433 14.1374H5.50144C5.2847 14.1374 5.10925 13.962 5.10925 13.7452ZM13.179 14.8922C15.9911 14.8922 18.2789 12.6044 18.2789 9.792C18.2789 6.97986 15.9911 4.69211 13.179 4.69211C10.3668 4.69211 8.0791 6.97986 8.0791 9.792C8.07883 12.6044 10.3666 14.8922 13.179 14.8922ZM13.179 5.4765C15.5588 5.4765 17.4948 7.41251 17.4948 9.79228C17.4948 12.172 15.5588 14.1081 13.179 14.1081C10.7992 14.1081 8.86321 12.172 8.86321 9.79228C8.86321 7.41251 10.7992 5.4765 13.179 5.4765ZM13.179 13.4703C15.207 13.4703 16.857 11.8203 16.857 9.792C16.857 7.76396 15.207 6.11398 13.179 6.11398C11.151 6.11398 9.50098 7.76396 9.50098 9.792C9.5007 11.8203 11.1507 13.4703 13.179 13.4703ZM13.179 6.89837C14.7747 6.89837 16.0729 8.19662 16.0729 9.79228C16.0729 11.3879 14.7747 12.6862 13.179 12.6862C11.5833 12.6862 10.2851 11.3879 10.2851 9.79228C10.2851 8.19662 11.5833 6.89837 13.179 6.89837ZM12.026 9.10795C12.026 8.62429 12.3467 8.21409 12.7868 8.07883V7.83908C12.7868 7.62261 12.9623 7.44688 13.179 7.44688C13.3957 7.44688 13.5712 7.62233 13.5712 7.83908V8.0622C13.8173 8.12234 14.0388 8.26896 14.1904 8.47878C14.3173 8.65423 14.278 8.89952 14.1025 9.02646C13.9271 9.15341 13.6818 9.11405 13.5548 8.9386C13.4994 8.86183 13.4107 8.81609 13.3179 8.81609H13.1025C12.9415 8.81609 12.8104 8.94719 12.8104 9.10823C12.8104 9.26926 12.9415 9.40036 13.1025 9.40036H13.2555C13.8489 9.40036 14.3317 9.88319 14.3317 10.4769C14.3317 10.9605 14.0111 11.3708 13.5709 11.506V11.7458C13.5709 11.9622 13.3955 12.138 13.1787 12.138C12.962 12.138 12.7865 11.9625 12.7865 11.7458V11.5226C12.5404 11.4625 12.3189 11.3159 12.1673 11.1061C12.0404 10.9306 12.0797 10.6853 12.2552 10.5584C12.4306 10.4314 12.6759 10.4708 12.8029 10.6462C12.8583 10.723 12.947 10.7687 13.0399 10.7687H13.2552C13.4163 10.7687 13.5474 10.6376 13.5474 10.4766C13.5474 10.3156 13.4163 10.1845 13.2552 10.1845H13.1022C12.5088 10.1845 12.026 9.70137 12.026 9.10795Z" fill="white"/>
</svg>
