<svg width="31" height="31" viewBox="0 0 31 31" fill="none" xmlns="http://www.w3.org/2000/svg">
<path d="M24.5372 14.8223H23.4258V18.1065H24.5372V14.8223Z" fill="white"/>
<path d="M23.9796 27.9989H3.55765C3.2505 27.9989 3.00195 27.7504 3.00195 27.4432V14.6065C3.00195 14.2996 3.2505 14.0508 3.55765 14.0508H23.6687V15.1622H4.11335V26.8875H23.4239V22.7751H24.5353V27.4432C24.5353 27.7504 24.2868 27.9989 23.9796 27.9989Z" fill="white"/>
<path d="M24.5372 14.8223H23.4258V18.1065H24.5372V14.8223Z" fill="white"/>
<path d="M4.1114 14.6079H3V11.6905C3 11.3836 3.24855 11.1348 3.5557 11.1348H10.5296V12.2462H4.1114V14.6079Z" fill="white"/>
<path d="M24.5333 22.7773H23.4219V24.528H24.5333V22.7773Z" fill="white"/>
<path d="M25.1463 23.3297H21.6455C21.3384 23.3297 21.0898 23.0812 21.0898 22.774V18.1065C21.0898 17.7993 21.3384 17.5508 21.6455 17.5508H25.1463C25.4535 17.5508 25.702 17.7993 25.702 18.1065V22.774C25.702 23.0812 25.4535 23.3297 25.1463 23.3297ZM22.2012 22.2183H24.5906V18.6622H22.2012V22.2183Z" fill="white"/>
<path d="M6.44343 20.4414H5.33203V21.8307H6.44343V20.4414Z" fill="white"/>
<path d="M10.5553 24.5547H9.16602V25.6661H10.5553V24.5547Z" fill="white"/>
<path d="M23.9218 15.4411C23.7791 15.4411 23.6364 15.3866 23.5279 15.2775C23.3113 15.0599 23.3124 14.7082 23.53 14.4917L26.1425 11.8793L18.5982 4.33498L7.93297 15.0005C7.7159 15.2175 7.36425 15.2175 7.14718 15.0005C6.93011 14.7834 6.93011 14.4317 7.14718 14.2147L18.2053 3.15629C18.4137 2.9479 18.7827 2.9479 18.9911 3.15629L27.3212 11.4864C27.5382 11.7034 27.5382 12.0551 27.3212 12.2722L24.3137 15.2791C24.2057 15.3871 24.0635 15.4411 23.9218 15.4411Z" fill="white"/>
<path d="M19.3837 15.1606C19.2524 15.1606 19.121 15.1145 19.0152 15.0206C18.7851 14.8171 18.7645 14.4657 18.968 14.2361C19.2084 13.9654 19.1959 13.5529 18.9409 13.2973C18.6788 13.0344 18.2338 13.0338 17.9706 13.2976L17.0925 14.1754C16.3865 14.8735 15.2469 14.8724 14.5506 14.1754C14.2093 13.8338 14.0215 13.3825 14.0215 12.9044C14.0215 12.4228 14.2093 11.9697 14.5506 11.6283L14.5957 11.583L14.1072 11.0981C13.8896 10.8816 13.8886 10.5299 14.1051 10.3121C14.3216 10.095 14.6733 10.0936 14.8909 10.3096L15.7744 11.1877C15.8791 11.2919 15.9382 11.4335 15.9382 11.5811C15.9382 11.7287 15.8802 11.8704 15.7754 11.9748L15.3364 12.4138C15.2051 12.5452 15.1329 12.7194 15.1329 12.9044C15.1329 13.0859 15.2051 13.2582 15.3364 13.3898C15.604 13.656 16.0392 13.6547 16.3089 13.3874L17.1848 12.5115C17.8691 11.8283 19.0456 11.8291 19.7267 12.5118C20.3969 13.1823 20.4289 14.2638 19.7994 14.9736C19.6898 15.0974 19.5367 15.1606 19.3837 15.1606Z" fill="white"/>
<path d="M15.376 12.1423C15.2338 12.1423 15.0917 12.0881 14.9831 11.9795C14.766 11.7625 14.766 11.4108 14.9831 11.1937L15.8617 10.3151C16.0788 10.0981 16.4304 10.0981 16.6475 10.3151C16.8646 10.5322 16.8646 10.8839 16.6475 11.1009L15.7689 11.9795C15.6604 12.0881 15.5182 12.1423 15.376 12.1423Z" fill="white"/>
<path d="M23.9202 15.4414C23.7781 15.4414 23.6359 15.3871 23.5273 15.2786C22.7453 14.4966 22.3145 13.4568 22.3145 12.3508C22.3145 11.2449 22.7453 10.2051 23.5273 9.42311L23.9984 8.9518C24.2154 8.73473 24.5671 8.735 24.7842 8.95153C25.0012 9.1686 25.0012 9.52052 24.7842 9.73759L24.3131 10.2089C23.7411 10.7812 23.4259 11.5417 23.4259 12.3508C23.4259 13.16 23.7411 13.9205 24.3131 14.4928C24.5302 14.7099 24.5302 15.0615 24.3131 15.2786C24.2046 15.3871 24.0624 15.4414 23.9202 15.4414Z" fill="white"/>
<path d="M18.1257 8.16007C17.0197 8.16007 15.98 7.72946 15.198 6.94719C14.9809 6.73012 14.9809 6.37846 15.198 6.16139C15.415 5.94432 15.7667 5.94432 15.9838 6.16139C16.5557 6.73364 17.3166 7.04867 18.1257 7.04867C18.9348 7.04867 19.6957 6.73364 20.2676 6.16139L20.7392 5.68981C20.9563 5.47328 21.3079 5.47301 21.525 5.69008C21.7421 5.90715 21.7421 6.25907 21.525 6.47614L21.0534 6.94746C20.2714 7.72918 19.2322 8.16007 18.1257 8.16007Z" fill="white"/>
<path d="M22.8125 20.4409C22.8125 20.7632 23.0737 21.0244 23.396 21.0244C23.7182 21.0244 23.9795 20.7632 23.9795 20.4409C23.9795 20.1187 23.7182 19.8574 23.396 19.8574C23.0737 19.8574 22.8125 20.1187 22.8125 20.4409Z" fill="white"/>
</svg>
