<svg width="25" height="25" viewBox="0 0 25 25" fill="none" xmlns="http://www.w3.org/2000/svg">
<path fill-rule="evenodd" clip-rule="evenodd" d="M6.75862 20.2414V21.9655C6.75862 22.5371 7.22156 23 7.7931 23H20.2069C20.7784 23 21.2414 22.5371 21.2414 21.9655V6.7931C21.2414 6.22156 20.7784 5.75862 20.2069 5.75862H18.4828V4.03448C18.4828 3.46294 18.0198 3 17.4483 3H5.03448C4.46294 3 4 3.46294 4 4.03448V19.2069C4 19.7784 4.46294 20.2414 5.03448 20.2414H6.75862ZM18.4828 6.44828V19.2068C18.4828 19.7783 18.0198 20.2413 17.4483 20.2413H7.44839V21.9654C7.44839 22.1559 7.6027 22.3102 7.79321 22.3102H20.207C20.3975 22.3102 20.5518 22.1559 20.5518 21.9654V6.79299C20.5518 6.60248 20.3975 6.44817 20.207 6.44817L18.4828 6.44828ZM17.7931 4.03437V19.2068C17.7931 19.3973 17.6388 19.5516 17.4483 19.5516H5.03448C4.84397 19.5516 4.68966 19.3973 4.68966 19.2068V4.03437C4.68966 3.84386 4.84397 3.68954 5.03448 3.68954H17.4483C17.6388 3.68954 17.7931 3.84386 17.7931 4.03437Z" fill="url(#paint0_linear_3931_4462)"/>
<path fill-rule="evenodd" clip-rule="evenodd" d="M6.06847 8.17306V13.6903C6.06847 13.8808 6.22278 14.0351 6.4133 14.0351H16.0685C16.259 14.0351 16.4133 13.8808 16.4133 13.6903C16.4133 13.4998 16.259 13.3455 16.0685 13.3455H6.75801V8.17295C6.75801 7.98244 6.6037 7.82812 6.41319 7.82812C6.22267 7.82812 6.06847 7.98255 6.06847 8.17306Z" fill="url(#paint1_linear_3931_4462)"/>
<path fill-rule="evenodd" clip-rule="evenodd" d="M8.13732 5.41319C8.13732 5.22267 7.98301 5.06836 7.7925 5.06836H6.41319C6.22267 5.06836 6.06836 5.22267 6.06836 5.41319V6.7925C6.06836 6.98301 6.22267 7.13732 6.41319 7.13732H7.7925C7.98301 7.13732 8.13732 6.98301 8.13732 6.7925V5.41319ZM7.44767 5.75801V6.44767H6.75801V5.75801H7.44767Z" fill="url(#paint2_linear_3931_4462)"/>
<path fill-rule="evenodd" clip-rule="evenodd" d="M9.17295 5.75801H11.9316C12.1221 5.75801 12.2764 5.6037 12.2764 5.41319C12.2764 5.22267 12.1221 5.06836 11.9316 5.06836H9.17295C8.98244 5.06836 8.82812 5.22267 8.82812 5.41319C8.82812 5.6037 8.98244 5.75801 9.17295 5.75801Z" fill="url(#paint3_linear_3931_4462)"/>
<path fill-rule="evenodd" clip-rule="evenodd" d="M13.3097 5.75801H16.0683C16.2588 5.75801 16.4131 5.6037 16.4131 5.41319C16.4131 5.22267 16.2588 5.06836 16.0683 5.06836H13.3097C13.1192 5.06836 12.9648 5.22267 12.9648 5.41319C12.9648 5.6037 13.1192 5.75801 13.3097 5.75801Z" fill="url(#paint4_linear_3931_4462)"/>
<path fill-rule="evenodd" clip-rule="evenodd" d="M9.17295 7.13887H16.0695C16.26 7.13887 16.4143 6.98456 16.4143 6.79405C16.4143 6.60353 16.26 6.44922 16.0695 6.44922H9.17295C8.98244 6.44922 8.82812 6.60353 8.82812 6.79405C8.82812 6.98456 8.98244 7.13887 9.17295 7.13887Z" fill="url(#paint5_linear_3931_4462)"/>
<path fill-rule="evenodd" clip-rule="evenodd" d="M6.41319 15.4143H16.0684C16.2589 15.4143 16.4132 15.26 16.4132 15.0694C16.4132 14.8789 16.2589 14.7246 16.0684 14.7246H6.41319C6.22267 14.7246 6.06836 14.8789 6.06836 15.0694C6.06836 15.26 6.22267 15.4143 6.41319 15.4143Z" fill="url(#paint6_linear_3931_4462)"/>
<path fill-rule="evenodd" clip-rule="evenodd" d="M6.41319 16.7932H9.17181C9.36232 16.7932 9.51664 16.6389 9.51664 16.4483C9.51664 16.2578 9.36232 16.1035 9.17181 16.1035H6.41319C6.22267 16.1035 6.06836 16.2578 6.06836 16.4483C6.06836 16.6389 6.22267 16.7932 6.41319 16.7932Z" fill="url(#paint7_linear_3931_4462)"/>
<path fill-rule="evenodd" clip-rule="evenodd" d="M10.5519 16.7932H16.0691C16.2596 16.7932 16.4139 16.6389 16.4139 16.4483C16.4139 16.2578 16.2596 16.1035 16.0691 16.1035H10.5519C10.3613 16.1035 10.207 16.2578 10.207 16.4483C10.207 16.6389 10.3613 16.7932 10.5519 16.7932Z" fill="url(#paint8_linear_3931_4462)"/>
<path fill-rule="evenodd" clip-rule="evenodd" d="M16.0683 17.4824H13.3097C13.1192 17.4824 12.9648 17.6367 12.9648 17.8272C12.9648 18.0178 13.1192 18.1721 13.3097 18.1721H16.0683C16.2588 18.1721 16.4131 18.0178 16.4131 17.8272C16.4131 17.6367 16.2588 17.4824 16.0683 17.4824Z" fill="url(#paint9_linear_3931_4462)"/>
<path fill-rule="evenodd" clip-rule="evenodd" d="M11.9304 17.4824H6.41319C6.22267 17.4824 6.06836 17.6367 6.06836 17.8272C6.06836 18.0178 6.22267 18.1721 6.41319 18.1721H11.9304C12.1209 18.1721 12.2753 18.0178 12.2753 17.8272C12.2753 17.6367 12.1209 17.4824 11.9304 17.4824Z" fill="url(#paint10_linear_3931_4462)"/>
<path fill-rule="evenodd" clip-rule="evenodd" d="M14.4466 9.30829L13.0673 10.6876C12.9328 10.6229 12.7811 10.5867 12.6216 10.5867C12.4621 10.5867 12.3104 10.6229 12.1759 10.6876L11.4863 9.99795C11.5509 9.86346 11.5871 9.71173 11.5871 9.55226C11.5871 8.98158 11.1233 8.51778 10.5527 8.51778C9.98198 8.51778 9.51818 8.98158 9.51818 9.55226C9.51818 9.71175 9.55438 9.86348 9.61904 9.99795L8.92938 10.6876C8.7949 10.6229 8.64317 10.5867 8.4837 10.5867C7.91302 10.5867 7.44922 11.0505 7.44922 11.6212C7.44922 12.1919 7.91302 12.6557 8.4837 12.6557C9.05438 12.6557 9.51818 12.1919 9.51818 11.6212C9.51818 11.4617 9.48198 11.31 9.41732 11.1755L10.107 10.4859C10.2415 10.5505 10.3932 10.5867 10.5527 10.5867C10.7121 10.5867 10.8639 10.5505 10.9983 10.4859L11.688 11.1755C11.6233 11.31 11.5871 11.4618 11.5871 11.6212C11.5871 12.1919 12.0509 12.6557 12.6216 12.6557C13.1923 12.6557 13.6561 12.1919 13.6561 11.6212C13.6561 11.4617 13.6199 11.31 13.5552 11.1755L14.9346 9.79623C15.069 9.86088 15.2208 9.89709 15.3802 9.89709C15.9509 9.89709 16.4147 9.43329 16.4147 8.86261C16.4147 8.29193 15.9509 7.82812 15.3802 7.82812C14.8096 7.82812 14.3458 8.29193 14.3458 8.86261C14.3458 9.02209 14.382 9.17382 14.4466 9.30829ZM8.48358 11.2764C8.67409 11.2764 8.82841 11.4307 8.82841 11.6212C8.82841 11.8117 8.67409 11.9661 8.48358 11.9661C8.29306 11.9661 8.13875 11.8117 8.13875 11.6212C8.13875 11.4307 8.29306 11.2764 8.48358 11.2764ZM12.6215 11.2764C12.812 11.2764 12.9663 11.4307 12.9663 11.6212C12.9663 11.8117 12.812 11.9661 12.6215 11.9661C12.431 11.9661 12.2767 11.8117 12.2767 11.6212C12.2767 11.4307 12.431 11.2764 12.6215 11.2764ZM10.5525 9.20744C10.7431 9.20744 10.8974 9.36175 10.8974 9.55226C10.8974 9.74278 10.7431 9.89709 10.5525 9.89709C10.362 9.89709 10.2077 9.74278 10.2077 9.55226C10.2077 9.36175 10.362 9.20744 10.5525 9.20744ZM15.3801 8.51778C15.5706 8.51778 15.725 8.67209 15.725 8.86261C15.725 9.05312 15.5706 9.20744 15.3801 9.20744C15.1896 9.20744 15.0353 9.05312 15.0353 8.86261C15.0353 8.67209 15.1896 8.51778 15.3801 8.51778Z" fill="url(#paint11_linear_3931_4462)"/>
<defs>
<linearGradient id="paint0_linear_3931_4462" x1="10.6985" y1="31.5755" x2="31.1089" y2="15.6324" gradientUnits="userSpaceOnUse">
<stop stop-color="#FF1717"/>
<stop offset="1" stop-color="#FF6461"/>
</linearGradient>
<linearGradient id="paint1_linear_3931_4462" x1="10.0875" y1="16.6965" x2="16.0982" y2="7.61946" gradientUnits="userSpaceOnUse">
<stop stop-color="#FF1717"/>
<stop offset="1" stop-color="#FF6461"/>
</linearGradient>
<linearGradient id="paint2_linear_3931_4462" x1="6.87218" y1="8.02444" x2="9.03781" y2="6.06216" gradientUnits="userSpaceOnUse">
<stop stop-color="#FF1717"/>
<stop offset="1" stop-color="#FF6461"/>
</linearGradient>
<linearGradient id="paint3_linear_3931_4462" x1="10.1678" y1="6.05372" x2="10.4732" y2="4.67034" gradientUnits="userSpaceOnUse">
<stop stop-color="#FF1717"/>
<stop offset="1" stop-color="#FF6461"/>
</linearGradient>
<linearGradient id="paint4_linear_3931_4462" x1="14.3045" y1="6.05372" x2="14.6099" y2="4.67034" gradientUnits="userSpaceOnUse">
<stop stop-color="#FF1717"/>
<stop offset="1" stop-color="#FF6461"/>
</linearGradient>
<linearGradient id="paint5_linear_3931_4462" x1="11.7755" y1="7.43458" x2="11.9196" y2="5.99826" gradientUnits="userSpaceOnUse">
<stop stop-color="#FF1717"/>
<stop offset="1" stop-color="#FF6461"/>
</linearGradient>
<linearGradient id="paint6_linear_3931_4462" x1="10.0875" y1="15.71" x2="10.1936" y2="14.267" gradientUnits="userSpaceOnUse">
<stop stop-color="#FF1717"/>
<stop offset="1" stop-color="#FF6461"/>
</linearGradient>
<linearGradient id="paint7_linear_3931_4462" x1="7.40806" y1="17.0889" x2="7.71341" y2="15.7055" gradientUnits="userSpaceOnUse">
<stop stop-color="#FF1717"/>
<stop offset="1" stop-color="#FF6461"/>
</linearGradient>
<linearGradient id="paint8_linear_3931_4462" x1="12.6185" y1="17.0889" x2="12.7938" y2="15.6596" gradientUnits="userSpaceOnUse">
<stop stop-color="#FF1717"/>
<stop offset="1" stop-color="#FF6461"/>
</linearGradient>
<linearGradient id="paint9_linear_3931_4462" x1="14.3045" y1="18.4678" x2="14.6099" y2="17.0844" gradientUnits="userSpaceOnUse">
<stop stop-color="#FF1717"/>
<stop offset="1" stop-color="#FF6461"/>
</linearGradient>
<linearGradient id="paint10_linear_3931_4462" x1="8.47983" y1="18.4678" x2="8.65509" y2="17.0385" gradientUnits="userSpaceOnUse">
<stop stop-color="#FF1717"/>
<stop offset="1" stop-color="#FF6461"/>
</linearGradient>
<linearGradient id="paint11_linear_3931_4462" x1="10.9324" y1="14.7256" x2="15.3924" y2="7.2206" gradientUnits="userSpaceOnUse">
<stop stop-color="#FF1717"/>
<stop offset="1" stop-color="#FF6461"/>
</linearGradient>
</defs>
</svg>
