<svg width="25" height="25" viewBox="0 0 25 25" fill="none" xmlns="http://www.w3.org/2000/svg">
<path d="M16.492 11.7781C16.5805 11.7781 16.6666 11.7494 16.7373 11.6962C16.808 11.6431 16.8596 11.5685 16.8842 11.4835C16.9089 11.3985 16.9052 11.3079 16.8739 11.2251C16.8426 11.1424 16.7852 11.0721 16.7104 11.0248L12.2194 8.16686C12.1541 8.12548 12.0783 8.10352 12.001 8.10352C11.9236 8.10352 11.8479 8.12548 11.7825 8.16686L7.29151 11.0248C7.21675 11.0721 7.15939 11.1424 7.12805 11.2251C7.0967 11.3079 7.09308 11.3985 7.11772 11.4835C7.14235 11.5685 7.19392 11.6431 7.26466 11.6962C7.33539 11.7494 7.42147 11.7781 7.50993 11.7781H8.32649V15.8608H7.71407C7.60579 15.8608 7.50194 15.9038 7.42538 15.9804C7.34881 16.057 7.3058 16.1608 7.3058 16.2691C7.3058 16.3774 7.34881 16.4812 7.42538 16.5578C7.50194 16.6344 7.60579 16.6774 7.71407 16.6774H16.2879C16.3962 16.6774 16.5 16.6344 16.5766 16.5578C16.6531 16.4812 16.6962 16.3774 16.6962 16.2691C16.6962 16.1608 16.6531 16.057 16.5766 15.9804C16.5 15.9038 16.3962 15.8608 16.2879 15.8608H15.6755V11.7781H16.492ZM11.5927 15.8608H9.14304V11.7781H11.5927V15.8608ZM14.8589 15.8608H12.4093V11.7781H14.8589V15.8608ZM8.91236 10.9615L12.001 8.99566L15.0896 10.9615H8.91236Z" fill="url(#paint0_linear_3931_4469)"/>
<path d="M18.8212 16.359C18.7447 16.2829 18.6413 16.2402 18.5334 16.2402C18.4255 16.2402 18.3221 16.2829 18.2456 16.359L15.357 19.2475C15.281 19.324 15.2383 19.4275 15.2383 19.5353C15.2383 19.6432 15.281 19.7467 15.357 19.8232L18.2456 22.7117C18.3221 22.7878 18.4255 22.8305 18.5334 22.8305C18.6413 22.8305 18.7447 22.7878 18.8212 22.7117L21.7098 19.8232C21.7858 19.7467 21.8285 19.6432 21.8285 19.5353C21.8285 19.4275 21.7858 19.324 21.7098 19.2475L18.8212 16.359ZM18.5334 21.8441L16.2246 19.5353L18.5334 17.2265L20.8422 19.5353L18.5334 21.8441Z" fill="url(#paint1_linear_3931_4469)"/>
<path d="M8.64533 19.2475L5.75678 16.359C5.68028 16.2829 5.5768 16.2402 5.46894 16.2402C5.36108 16.2402 5.2576 16.2829 5.18111 16.359L2.29255 19.2475C2.21651 19.324 2.17383 19.4275 2.17383 19.5353C2.17383 19.6432 2.21651 19.7467 2.29255 19.8232L5.18111 22.7117C5.2576 22.7878 5.36108 22.8305 5.46894 22.8305C5.5768 22.8305 5.68028 22.7878 5.75678 22.7117L8.64533 19.8232C8.72137 19.7467 8.76406 19.6432 8.76406 19.5353C8.76406 19.4275 8.72137 19.324 8.64533 19.2475ZM5.46894 21.8441L3.16014 19.5353L5.46894 17.2265L7.77774 19.5353L5.46894 21.8441Z" fill="url(#paint2_linear_3931_4469)"/>
<path d="M15.357 6.75873L18.2456 9.64728C18.3221 9.72333 18.4255 9.76601 18.5334 9.76601C18.6413 9.76601 18.7447 9.72333 18.8212 9.64728L21.7098 6.75873C21.7858 6.68223 21.8285 6.57876 21.8285 6.47089C21.8285 6.36303 21.7858 6.25956 21.7098 6.18306L18.8212 3.29451C18.7447 3.21846 18.6413 3.17578 18.5334 3.17578C18.4255 3.17578 18.3221 3.21846 18.2456 3.29451L15.357 6.18306C15.281 6.25956 15.2383 6.36303 15.2383 6.47089C15.2383 6.57876 15.281 6.68223 15.357 6.75873ZM18.5334 4.16209L20.8422 6.47089L18.5334 8.7797L16.2246 6.47089L18.5334 4.16209Z" fill="url(#paint3_linear_3931_4469)"/>
<path d="M5.18111 9.64728C5.2576 9.72333 5.36108 9.76601 5.46894 9.76601C5.5768 9.76601 5.68028 9.72333 5.75678 9.64728L8.64533 6.75873C8.72137 6.68223 8.76406 6.57876 8.76406 6.47089C8.76406 6.36303 8.72137 6.25956 8.64533 6.18306L5.75678 3.29451C5.68028 3.21846 5.5768 3.17578 5.46894 3.17578C5.36108 3.17578 5.2576 3.21846 5.18111 3.29451L2.29255 6.18306C2.21651 6.25956 2.17383 6.36303 2.17383 6.47089C2.17383 6.57876 2.21651 6.68223 2.29255 6.75873L5.18111 9.64728ZM5.46894 4.16209L7.77774 6.47089L5.46894 8.7797L3.16014 6.47089L5.46894 4.16209Z" fill="url(#paint4_linear_3931_4469)"/>
<path d="M14.8182 21.7485C12.9855 22.3324 11.0167 22.3324 9.18397 21.7485C9.13206 21.7291 9.07674 21.7205 9.02139 21.7231C8.96604 21.7258 8.91181 21.7397 8.86201 21.764C8.81221 21.7883 8.76788 21.8225 8.73171 21.8645C8.69555 21.9065 8.66832 21.9554 8.65167 22.0083C8.63502 22.0611 8.62931 22.1168 8.63488 22.172C8.64045 22.2271 8.65719 22.2805 8.68407 22.329C8.71095 22.3774 8.74742 22.4199 8.79125 22.4538C8.83507 22.4877 8.88535 22.5124 8.939 22.5262C10.9314 23.1587 13.0707 23.1587 15.0631 22.5262C15.1142 22.5099 15.1616 22.4836 15.2025 22.449C15.2434 22.4143 15.2771 22.372 15.3017 22.3243C15.3262 22.2766 15.3411 22.2246 15.3456 22.1711C15.35 22.1177 15.3439 22.0639 15.3275 22.0128C15.3112 21.9618 15.2849 21.9144 15.2503 21.8735C15.2156 21.8326 15.1732 21.7989 15.1256 21.7743C15.0779 21.7498 15.0258 21.7349 14.9724 21.7304C14.919 21.726 14.8652 21.7321 14.8141 21.7485H14.8182Z" fill="url(#paint5_linear_3931_4469)"/>
<path d="M21.015 16.3204C21.0555 16.3325 21.0974 16.3387 21.1396 16.3388C21.2259 16.3386 21.31 16.311 21.3797 16.2601C21.4494 16.2091 21.5011 16.1373 21.5274 16.0551C22.1635 14.0483 22.1571 11.893 21.5091 9.8901C21.4923 9.83916 21.4657 9.79203 21.4307 9.75138C21.3957 9.71073 21.3531 9.67737 21.3052 9.65321C21.2574 9.62904 21.2052 9.61453 21.1518 9.61052C21.0983 9.60651 21.0445 9.61307 20.9936 9.62982C20.9427 9.64658 20.8955 9.6732 20.8549 9.70817C20.8142 9.74314 20.7809 9.78578 20.7567 9.83364C20.7326 9.8815 20.718 9.93366 20.714 9.98713C20.71 10.0406 20.7166 10.0943 20.7333 10.1453C21.3276 11.9845 21.3334 13.9634 20.7497 15.806C20.7332 15.8572 20.727 15.9112 20.7314 15.9648C20.7358 16.0184 20.7508 16.0706 20.7754 16.1184C20.8001 16.1662 20.834 16.2087 20.8751 16.2433C20.9162 16.278 20.9638 16.3042 21.015 16.3204Z" fill="url(#paint6_linear_3931_4469)"/>
<path d="M9.1852 4.25543C11.0211 3.6695 12.9938 3.6695 14.8296 4.25543C14.8707 4.26801 14.9133 4.27488 14.9562 4.27584C15.0542 4.27668 15.1492 4.24225 15.2239 4.17886C15.2985 4.11546 15.348 4.02732 15.3631 3.93052C15.3782 3.83371 15.358 3.73471 15.3061 3.65157C15.2543 3.56844 15.1743 3.50671 15.0807 3.47766C13.082 2.84078 10.9348 2.84078 8.93615 3.47766C8.83302 3.51069 8.74722 3.58333 8.69764 3.67962C8.64807 3.7759 8.63877 3.88793 8.67179 3.99107C8.70482 4.09421 8.77747 4.18 8.87375 4.22958C8.97003 4.27916 9.08206 4.28845 9.1852 4.25543Z" fill="url(#paint7_linear_3931_4469)"/>
<path d="M2.86138 16.34C2.90374 16.3402 2.94583 16.3333 2.98591 16.3196C3.08901 16.2867 3.17487 16.2143 3.22462 16.1183C3.27438 16.0222 3.28397 15.9103 3.25129 15.8072C2.66416 13.9555 2.67273 11.9664 3.27579 10.1199C3.29254 10.0689 3.2991 10.0152 3.29509 9.96174C3.29107 9.90827 3.27657 9.85611 3.2524 9.80825C3.22823 9.76039 3.19487 9.71775 3.15423 9.68278C3.11358 9.64781 3.06644 9.62118 3.01551 9.60443C2.96457 9.58768 2.91084 9.58112 2.85737 9.58513C2.8039 9.58914 2.75174 9.60365 2.70388 9.62782C2.65602 9.65198 2.61338 9.68534 2.57841 9.72599C2.54344 9.76664 2.51682 9.81377 2.50006 9.86471C1.8425 11.8775 1.83322 14.046 2.47352 16.0644C2.50126 16.1451 2.55359 16.2151 2.62316 16.2645C2.69273 16.3139 2.77604 16.3403 2.86138 16.34Z" fill="url(#paint8_linear_3931_4469)"/>
<defs>
<linearGradient id="paint0_linear_3931_4469" x1="10.9085" y1="20.3536" x2="19.9211" y2="11.0205" gradientUnits="userSpaceOnUse">
<stop stop-color="#FF1717"/>
<stop offset="1" stop-color="#FF6461"/>
</linearGradient>
<linearGradient id="paint1_linear_3931_4469" x1="17.7987" y1="25.6562" x2="24.6968" y2="19.4058" gradientUnits="userSpaceOnUse">
<stop stop-color="#FF1717"/>
<stop offset="1" stop-color="#FF6461"/>
</linearGradient>
<linearGradient id="paint2_linear_3931_4469" x1="4.73422" y1="25.6562" x2="11.6323" y2="19.4058" gradientUnits="userSpaceOnUse">
<stop stop-color="#FF1717"/>
<stop offset="1" stop-color="#FF6461"/>
</linearGradient>
<linearGradient id="paint3_linear_3931_4469" x1="17.7987" y1="12.5917" x2="24.6968" y2="6.3413" gradientUnits="userSpaceOnUse">
<stop stop-color="#FF1717"/>
<stop offset="1" stop-color="#FF6461"/>
</linearGradient>
<linearGradient id="paint4_linear_3931_4469" x1="4.73422" y1="12.5917" x2="11.6323" y2="6.3413" gradientUnits="userSpaceOnUse">
<stop stop-color="#FF1717"/>
<stop offset="1" stop-color="#FF6461"/>
</linearGradient>
<linearGradient id="paint5_linear_3931_4469" x1="11.2414" y1="23.5485" x2="11.7822" y2="20.9739" gradientUnits="userSpaceOnUse">
<stop stop-color="#FF1717"/>
<stop offset="1" stop-color="#FF6461"/>
</linearGradient>
<linearGradient id="paint6_linear_3931_4469" x1="21.2129" y1="19.2242" x2="23.5944" y2="18.8116" gradientUnits="userSpaceOnUse">
<stop stop-color="#FF1717"/>
<stop offset="1" stop-color="#FF6461"/>
</linearGradient>
<linearGradient id="paint7_linear_3931_4469" x1="11.2614" y1="4.82291" x2="11.8005" y2="2.25201" gradientUnits="userSpaceOnUse">
<stop stop-color="#FF1717"/>
<stop offset="1" stop-color="#FF6461"/>
</linearGradient>
<linearGradient id="paint8_linear_3931_4469" x1="2.5036" y1="19.2368" x2="4.90187" y2="18.8198" gradientUnits="userSpaceOnUse">
<stop stop-color="#FF1717"/>
<stop offset="1" stop-color="#FF6461"/>
</linearGradient>
</defs>
</svg>
