<svg width="25" height="25" viewBox="0 0 25 25" fill="none" xmlns="http://www.w3.org/2000/svg">
<path fill-rule="evenodd" clip-rule="evenodd" d="M8.52934 5.40639C8.52934 5.34454 8.55326 5.28434 8.59779 5.24063C8.6415 5.19692 8.70087 5.17218 8.76355 5.17218H8.78417H8.78334C8.91282 5.17218 9.01838 5.27692 9.01838 5.4064C9.01838 5.53588 8.91282 5.64061 8.78334 5.64061H8.76272H8.76355C8.63408 5.64061 8.52934 5.53587 8.52934 5.40639ZM7.26263 5.40639C7.26263 5.34454 7.28655 5.28434 7.33108 5.24063C7.37479 5.19692 7.43417 5.17218 7.49684 5.17218H7.51664C7.64611 5.17218 7.75085 5.27692 7.75085 5.4064C7.75085 5.53588 7.64612 5.64061 7.51664 5.64061H7.49684C7.36737 5.64061 7.26263 5.53587 7.26263 5.40639ZM5.97366 5.40639C5.97366 5.34372 5.9984 5.28352 6.04293 5.23981C6.08746 5.1961 6.14766 5.17136 6.21034 5.17219H6.23013C6.3596 5.17219 6.46434 5.27692 6.46434 5.4064C6.46434 5.53588 6.35961 5.64061 6.23013 5.64061H6.21034C6.14766 5.64144 6.08746 5.6167 6.04375 5.57299C5.99922 5.52846 5.97448 5.46908 5.97448 5.40641L5.97366 5.40639ZM12.8821 5.29424H12.8812C12.8812 5.23156 12.906 5.17219 12.9497 5.12848C12.9942 5.08394 13.0536 5.0592 13.1163 5.0592H20.0939C20.2234 5.0592 20.3281 5.16476 20.3281 5.29424C20.3281 5.42372 20.2234 5.52845 20.0939 5.52845H13.1171C12.9876 5.52845 12.8829 5.42372 12.8829 5.29424L12.8821 5.29424ZM20.3214 17.7428H17.1785L17.1167 15.2812L17.6766 14.7171C17.7574 14.6363 17.7681 14.5093 17.7022 14.4169L16.7884 13.1213V13.1205C16.993 12.7568 17.153 12.3692 17.2643 11.9659L18.8254 11.6888C18.9375 11.669 19.0192 11.5717 19.0192 11.4579L19.0151 9.71373L19.0159 9.7129C19.0151 9.65105 18.9903 9.59168 18.9466 9.54797C18.9029 9.50426 18.8435 9.47952 18.7809 9.47952L5.71372 9.50674C5.65187 9.50674 5.5925 9.53148 5.54796 9.57601C5.50426 9.61972 5.47951 9.67992 5.47951 9.74177L5.48364 11.486C5.48364 11.6006 5.5661 11.6979 5.67826 11.7169L7.23937 11.9874L7.2402 11.9865C7.35318 12.389 7.51482 12.7758 7.72098 13.1394L6.813 14.4391C6.74703 14.5323 6.75857 14.6593 6.83939 14.7393L7.40595 15.3026L7.40512 17.7429H4.45433C3.91005 17.7429 3.46883 17.3017 3.46801 16.7574V7.50536L21.3066 7.50371V16.7574C21.3058 17.3017 20.8646 17.7429 20.3203 17.7429L20.3214 17.7428ZM14.6848 17.7428H16.7094L16.6582 15.7396L16.4141 15.9862L16.415 15.9871C16.3341 16.0679 16.208 16.0786 16.1148 16.0143L14.8151 15.1063C14.7706 15.1319 14.726 15.1558 14.6815 15.1797L14.6873 17.7437L14.6848 17.7428ZM12.6346 17.7428H14.2164L14.2106 15.3975C14.0308 15.4701 13.8469 15.5336 13.6605 15.5863L13.3901 17.1483C13.3711 17.2604 13.273 17.3421 13.1591 17.3421L12.6322 17.3437L12.6338 17.7437L12.6346 17.7428ZM10.5292 17.7428H12.1662L12.1654 17.3445L11.3688 17.3461H11.3679C11.255 17.3461 11.1576 17.2645 11.137 17.1531L10.8608 15.592C10.7478 15.5607 10.6356 15.5252 10.5251 15.4865L10.5301 17.7435L10.5292 17.7428ZM15.1738 9.95614L9.32523 9.96851C9.14215 10.8484 9.36564 11.7638 9.93302 12.4616C10.4996 13.1585 11.3506 13.5634 12.2496 13.5642H12.2546C13.1551 13.5625 14.007 13.1552 14.5735 12.455C15.1392 11.7549 15.3594 10.8362 15.1722 9.95538L15.1738 9.95614ZM8.19871 13.029C8.24654 13.1089 8.24324 13.2087 8.19046 13.2854L7.3097 14.5472L8.29931 15.5335L9.55694 14.647C9.59653 14.6189 9.64353 14.6041 9.69219 14.6041C9.73425 14.6041 9.77631 14.6156 9.81259 14.6371C10.2183 14.8812 10.6587 15.0626 11.1189 15.1756C11.2096 15.1979 11.278 15.2713 11.2945 15.3628L11.5634 16.8777L12.962 16.8744L13.2243 15.3587H13.2235C13.2391 15.2671 13.3076 15.1937 13.3975 15.1707C13.8576 15.0569 14.2972 14.8729 14.7021 14.6272C14.7813 14.5794 14.8819 14.5827 14.9577 14.6354L16.2195 15.517L17.2067 14.5266L16.3201 13.269L16.3193 13.2681C16.2657 13.1923 16.2624 13.0917 16.3102 13.0125C16.5543 12.6068 16.7358 12.1664 16.8479 11.7062C16.8702 11.6155 16.9436 11.547 17.0351 11.5314L18.5501 11.2625L18.5468 9.94964L15.6496 9.95542C15.8335 10.9632 15.5614 11.9998 14.9058 12.7873C14.251 13.5741 13.2811 14.0301 12.2569 14.0334H12.2494C11.3341 14.0318 10.4566 13.6681 9.8085 13.0224C9.16113 12.3758 8.79579 11.4983 8.79249 10.5829C8.79249 10.3776 8.81064 10.1722 8.8461 9.96935L5.94893 9.97595L5.9514 11.2888L7.46799 11.5511C7.5587 11.5668 7.6321 11.6352 7.65437 11.7251C7.769 12.1845 7.95297 12.624 8.19871 13.029ZM7.87378 17.7428H10.0599L10.055 15.2951C9.9362 15.2398 9.81909 15.1805 9.7053 15.117L8.40973 16.0299C8.31737 16.095 8.19036 16.0843 8.10955 16.0043L7.87451 15.7701V17.7436L7.87378 17.7428ZM7.40535 18.8157H7.00539L7.00456 18.8165C6.91055 18.4916 6.63181 18.2541 6.29616 18.212H7.4037V18.8165L7.40535 18.8157ZM6.19472 19.4276C6.40254 19.4268 6.57076 19.2577 6.57076 19.0499C6.56993 18.8421 6.40088 18.6738 6.19305 18.6738C5.9943 18.687 5.8409 18.852 5.8409 19.0507C5.8409 19.2495 5.99429 19.4136 6.19305 19.4276L6.19472 19.4276ZM4.45464 3.46836C3.91036 3.46919 3.46997 3.9104 3.46915 4.45469V7.03665L21.3077 7.035V4.45451C21.3069 3.91023 20.8657 3.46902 20.3214 3.46819L4.45464 3.46836ZM18.5822 18.7332C18.7801 18.7472 18.9335 18.9122 18.9335 19.1101C18.9335 19.3089 18.7801 19.4738 18.5822 19.487C18.3843 19.4738 18.2301 19.3089 18.2301 19.1101C18.2301 18.9122 18.3843 18.7472 18.5822 18.7332ZM14.8323 19.934C14.8323 20.0337 14.7928 20.1302 14.7218 20.2011C14.6509 20.2712 14.5552 20.3117 14.4546 20.3117C14.246 20.3117 14.0769 20.1426 14.0769 19.9339C14.0769 19.7253 14.246 19.5554 14.4546 19.5554C14.5553 19.5554 14.6509 19.5958 14.7218 19.6667C14.7928 19.7377 14.8323 19.8334 14.8323 19.934ZM12.7863 22.1564V22.1556C12.7863 22.2562 12.7476 22.3518 12.6766 22.4228C12.6057 22.4937 12.51 22.5333 12.4103 22.5333C12.2123 22.5201 12.0581 22.3551 12.0581 22.1564C12.0581 21.9585 12.2123 21.7935 12.4103 21.7795C12.6181 21.7795 12.7872 21.9477 12.788 22.1564L12.7863 22.1564ZM10.6768 19.9439V19.9431C10.6768 20.1509 10.5086 20.3199 10.3007 20.3208C10.0921 20.3208 9.92221 20.1517 9.92221 19.9431C9.92221 19.7344 10.0921 19.5653 10.3007 19.5653C10.5086 19.5653 10.6776 19.7336 10.6785 19.9414L10.6768 19.9439ZM20.3215 3H4.45473C3.65149 3.00082 3.00082 3.65149 3 4.45473V16.7572C3.00165 17.5596 3.65149 18.2103 4.45473 18.2119H6.09007C5.63897 18.2573 5.30331 18.6506 5.33135 19.1042C5.35939 19.557 5.74039 19.9066 6.19396 19.8959H6.19561C6.57165 19.8959 6.90236 19.646 7.00626 19.2848H7.63879C7.70146 19.2848 7.76084 19.2601 7.80455 19.2164C7.84908 19.1727 7.87382 19.1125 7.87382 19.0506V18.2119H10.0608L10.0624 19.1306V19.1298C9.65834 19.2477 9.40187 19.6452 9.46124 20.0617C9.52061 20.4782 9.87771 20.7882 10.2983 20.7882H10.2991C10.7222 20.7907 11.0817 20.479 11.1403 20.06C11.1988 19.6411 10.9374 19.2436 10.53 19.1298L10.5284 18.2119H12.1662L12.1728 21.3424H12.172C11.7679 21.4603 11.5122 21.857 11.5716 22.2735C11.631 22.6899 11.9872 23 12.4086 23H12.4103C12.8317 23 13.1888 22.6891 13.2465 22.271C13.305 21.8537 13.0461 21.457 12.6412 21.3416L12.6346 18.212H14.2163L14.218 19.1216V19.1208C13.8568 19.2272 13.6085 19.5587 13.6085 19.9356C13.6093 20.4023 13.9879 20.78 14.4546 20.78H14.4563C14.8777 20.7792 15.234 20.4683 15.2925 20.051C15.3502 19.6329 15.0921 19.2371 14.6872 19.1208L14.6855 18.212L16.7217 18.2128L16.7439 19.1167C16.7464 19.2437 16.8511 19.3451 16.9781 19.3451H17.7698C17.8746 19.7071 18.2053 19.9562 18.5821 19.9562H18.5838C19.0514 19.9553 19.4299 19.576 19.4291 19.1092C19.4291 18.6425 19.0497 18.2639 18.583 18.2639H18.5805C18.2045 18.2648 17.8737 18.5138 17.7699 18.8758H17.2066L17.1901 18.212H20.3214C21.1246 18.2112 21.7753 17.5605 21.7769 16.7573V4.45479C21.7761 3.65155 21.1247 3.00082 20.3215 3Z" fill="url(#paint0_linear_3931_4499)"/>
<defs>
<linearGradient id="paint0_linear_3931_4499" x1="10.2951" y1="31.5755" x2="31.0593" y2="13.9115" gradientUnits="userSpaceOnUse">
<stop stop-color="#FF1717"/>
<stop offset="1" stop-color="#FF6461"/>
</linearGradient>
</defs>
</svg>
