<svg width="25" height="25" viewBox="0 0 25 25" fill="none" xmlns="http://www.w3.org/2000/svg">
<path d="M22.7508 18.5338H21.1203V4.78088C21.1203 3.79914 20.3212 3 19.3394 3H4.85822C3.83351 3 3 3.83351 3 4.85822V6.46724C3 6.60473 3.11171 6.71643 3.24919 6.71643H6.22019V20.3749C6.22019 21.391 7.04726 22.2159 8.06122 22.2159H21.159C22.1751 22.2159 23 21.3888 23 20.3749V18.783C23 18.6455 22.8883 18.5338 22.7508 18.5338ZM3.49839 4.86037C3.49839 4.11063 4.10849 3.49839 4.86037 3.49839C5.6101 3.49839 6.22234 4.10849 6.22234 4.86037V6.22234H3.49839V4.86037ZM6.71858 20.3749V6.46939V4.86037C6.71858 4.32331 6.48872 3.83996 6.12352 3.49839H19.3394C20.0462 3.49839 20.6219 4.07411 20.6219 4.78088V18.5338H9.65306C9.51557 18.5338 9.40387 18.6455 9.40387 18.783V20.3749C9.40387 21.116 8.80021 21.7175 8.06122 21.7175C7.32223 21.7175 6.71858 21.116 6.71858 20.3749ZM22.5016 20.3749C22.5016 21.116 21.898 21.7175 21.159 21.7175H9.31794C9.67669 21.3802 9.90226 20.9033 9.90226 20.3749V19.0322H22.5016V20.3749ZM10.4522 17.5134V12.7358C10.4522 12.5983 10.3405 12.4866 10.203 12.4866H7.74329C7.6058 12.4866 7.49409 12.5983 7.49409 12.7358V17.5134C7.49409 17.6509 7.6058 17.7626 7.74329 17.7626H10.2052C10.3405 17.7626 10.4522 17.6509 10.4522 17.5134ZM9.95381 17.2664H7.99033V12.985H9.95381V17.2664ZM13.4039 9.27927H10.9441C10.8067 9.27927 10.695 9.39098 10.695 9.52846V17.5134C10.695 17.6509 10.8067 17.7626 10.9441 17.7626H13.406C13.5435 17.7626 13.6552 17.6509 13.6552 17.5134V9.52846C13.6531 9.39098 13.5414 9.27927 13.4039 9.27927ZM13.1568 17.2664H11.1933V9.77766H13.1568V17.2664ZM16.6069 11.5456H14.145C14.0075 11.5456 13.8958 11.6574 13.8958 11.7948V17.5156C13.8958 17.6531 14.0075 17.7648 14.145 17.7648H16.6069C16.7444 17.7648 16.8561 17.6531 16.8561 17.5156V11.7927C16.8539 11.6552 16.7444 11.5456 16.6069 11.5456ZM16.3577 17.2664H14.3942V12.0419H16.3577V17.2664ZM17.0967 8.65199V17.5134C17.0967 17.6509 17.2084 17.7626 17.3459 17.7626H19.8077C19.9452 17.7626 20.0569 17.6509 20.0569 17.5134V8.65199C20.0569 8.5145 19.9452 8.40279 19.8077 8.40279H17.3459C17.2084 8.40279 17.0967 8.5145 17.0967 8.65199ZM17.5951 8.90118H19.5585V17.2642H17.5951V8.90118ZM8.97422 10.1128C9.60795 10.1128 10.1235 9.59721 10.1235 8.96348C10.1235 8.74436 10.0612 8.53813 9.95381 8.36412L11.5414 6.83459C11.724 6.95489 11.9431 7.02578 12.1772 7.02578C12.4393 7.02578 12.6799 6.9377 12.8733 6.79162L14.3598 8.05048C14.276 8.2116 14.2266 8.39205 14.2266 8.58539C14.2266 9.21912 14.7422 9.73469 15.3759 9.73469C16.0097 9.73469 16.5252 9.21912 16.5252 8.58539C16.5252 8.35768 16.4586 8.145 16.3426 7.96455L17.9624 6.3362C18.1407 6.45005 18.3512 6.5145 18.5768 6.5145C19.2105 6.5145 19.7261 5.99893 19.7261 5.3652C19.7261 4.73147 19.2105 4.2159 18.5768 4.2159C17.9431 4.2159 17.4275 4.73147 17.4275 5.3652C17.4275 5.59291 17.4941 5.80559 17.6101 5.98604L15.9903 7.61439C15.812 7.50054 15.6015 7.43609 15.3759 7.43609C15.1139 7.43609 14.8733 7.52417 14.6799 7.67025L13.1933 6.41139C13.2771 6.25027 13.3265 6.06982 13.3265 5.87648C13.3265 5.24275 12.811 4.72718 12.1772 4.72718C11.5435 4.72718 11.0279 5.24275 11.0279 5.87648C11.0279 6.0956 11.0902 6.30183 11.1976 6.47583L9.6101 8.00537C9.4275 7.88507 9.20838 7.81418 8.97422 7.81418C8.34049 7.81418 7.82492 8.32975 7.82492 8.96348C7.82492 9.59721 8.33835 10.1128 8.97422 10.1128ZM18.5768 4.71429C18.9356 4.71429 19.2299 5.00644 19.2299 5.36735C19.2299 5.7261 18.9377 6.02041 18.5768 6.02041C18.2159 6.02041 17.9237 5.72825 17.9237 5.36735C17.9237 5.00644 18.218 4.71429 18.5768 4.71429ZM16.029 8.58754C16.029 8.94629 15.7368 9.2406 15.3759 9.2406C15.015 9.2406 14.7229 8.94844 14.7229 8.58754C14.7229 8.22664 15.015 7.93448 15.3759 7.93448C15.7368 7.93448 16.029 8.22664 16.029 8.58754ZM12.1772 5.22342C12.536 5.22342 12.8303 5.51557 12.8303 5.87648C12.8303 6.23523 12.5381 6.52954 12.1772 6.52954C11.8185 6.52954 11.5242 6.23738 11.5242 5.87648C11.5242 5.51557 11.8163 5.22342 12.1772 5.22342ZM8.97422 8.31042C9.33297 8.31042 9.62728 8.60258 9.62728 8.96348C9.62728 9.32223 9.33512 9.61654 8.97422 9.61654C8.61332 9.61654 8.32116 9.32438 8.32116 8.96348C8.32116 8.60258 8.61332 8.31042 8.97422 8.31042Z" fill="url(#paint0_linear_3931_4490)"/>
<defs>
<linearGradient id="paint0_linear_3931_4490" x1="10.7703" y1="30.4552" x2="30.9471" y2="11.4268" gradientUnits="userSpaceOnUse">
<stop stop-color="#FF1717"/>
<stop offset="1" stop-color="#FF6461"/>
</linearGradient>
</defs>
</svg>
