<svg width="40" height="40" viewBox="0 0 40 40" fill="none" xmlns="http://www.w3.org/2000/svg">
<path d="M20 40C31.0457 40 40 31.0457 40 20C40 8.9543 31.0457 0 20 0C8.9543 0 0 8.9543 0 20C0 31.0457 8.9543 40 20 40Z" fill="url(#paint0_linear_3938_4909)"/>
<path d="M14.8611 17.876L19.9829 12.7562L25.1068 17.8802L28.0854 14.8995L19.9829 6.79492L11.8809 14.897L14.8611 17.876Z" fill="white"/>
<path d="M6.79492 19.9829L9.77372 17.002L12.7547 19.9829L9.77372 22.9621L6.79492 19.9829Z" fill="white"/>
<path d="M14.8617 22.0802L19.9836 27.2021L25.1075 22.0781L28.0882 25.0549L19.9856 33.1591L11.8809 25.0607L14.8617 22.0802Z" fill="white"/>
<path d="M27.2051 19.9829L30.1839 17.002L33.1648 19.9808L30.1839 22.9638L27.2051 19.9829Z" fill="white"/>
<path d="M23.0061 19.9778L19.9835 16.9531L17.7483 19.1883L17.49 19.4445L16.9609 19.9736L19.9835 22.994L23.0061 19.9798V19.9778Z" fill="white"/>
<defs>
<linearGradient id="paint0_linear_3938_4909" x1="20" y1="0" x2="20" y2="40" gradientUnits="userSpaceOnUse">
<stop stop-color="#FFB508"/>
<stop offset="1" stop-color="#FC2A02"/>
</linearGradient>
</defs>
</svg>
