<svg width="80" height="80" viewBox="0 0 80 80" fill="none" xmlns="http://www.w3.org/2000/svg">
<rect width="80" height="80" fill="white"/>
<path d="M75 59.5528C72.4539 60.2005 70.8794 59.5807 69.4668 57.459C66.2954 52.7075 62.7945 48.1737 59.4165 43.5562C58.981 42.9587 58.5288 42.3725 57.9648 41.6299C53.9671 47.0235 49.9749 52.1603 46.2284 57.5037C44.8883 59.4132 43.4813 60.2452 40.9799 59.5696L56.0106 39.3965L42.0184 21.1776C44.4249 20.7086 46.0888 20.9487 47.5628 23.1039C50.818 27.861 54.4081 32.3892 57.9872 37.1798C61.5885 32.406 65.134 27.8722 68.4841 23.1597C69.8297 21.2502 71.2758 20.5243 73.6935 21.2279C71.8621 23.6567 70.0698 26.0464 68.2663 28.4194C65.8319 31.6187 63.4422 34.8571 60.9185 37.9894C60.0195 39.1061 60.1647 39.832 60.9687 40.8873C65.6365 47.0235 70.2485 53.2212 75 59.5528ZM5.01675 39.0615C5.41876 37.0458 5.68677 34.9911 6.24511 33.0146C9.5952 21.0492 23.3305 16.0743 32.7666 23.4892C38.2942 27.8387 39.6678 33.9693 39.3942 40.8817H8.23841C7.7694 53.2826 16.6974 60.77 28.0765 56.9509C32.0687 55.6109 34.4193 52.4841 35.5974 48.5757C36.1949 46.6159 37.1831 46.3088 39.0257 46.8672C38.0821 51.7583 35.9436 55.8454 31.4768 58.4026C24.7767 62.2329 15.2122 60.9933 10.1815 55.6723C7.21106 52.5456 5.94919 48.6539 5.39084 44.4495C5.30709 43.7795 5.134 43.1207 5 42.4562C5.01117 41.3246 5.01675 40.1931 5.01675 39.0615ZM8.29425 38.2295H36.4517C36.2674 29.2625 30.684 22.8917 23.0514 22.8359C14.6762 22.7689 8.65717 28.9889 8.29425 38.2295Z" fill="black"/>
</svg>
