<svg width="80" height="80" viewBox="0 0 80 80" fill="none" xmlns="http://www.w3.org/2000/svg">
<rect width="80" height="80" fill="white"/>
<path d="M46.4226 12.802C43.4848 9.31629 40.9549 5.77598 40.4381 5.04083C40.4258 5.02793 40.411 5.01766 40.3947 5.01064C40.3783 5.00362 40.3607 5 40.3428 5C40.325 5 40.3074 5.00362 40.291 5.01064C40.2747 5.01766 40.2599 5.02793 40.2476 5.04083C39.7308 5.77611 37.2009 9.31629 34.2629 12.802C9.04618 44.9629 38.2347 66.6669 38.2347 66.6669L38.4794 66.8303C38.697 70.1797 39.2411 75 39.2411 75H41.4174C41.4174 75 41.9613 70.2071 42.1789 66.8304L42.4238 66.6397C42.451 66.667 71.6395 44.963 46.4226 12.802ZM40.3292 66.1766C40.3292 66.1766 39.0234 65.0602 38.6698 64.4885V64.4338L40.2476 29.4135C40.2476 29.3046 40.4109 29.3046 40.4109 29.4135L41.9886 64.4338V64.4885C41.6349 65.0602 40.3292 66.1767 40.3292 66.1767" fill="#01EC64"/>
</svg>
