<svg width="80" height="80" viewBox="0 0 80 80" fill="none" xmlns="http://www.w3.org/2000/svg">
<rect width="80" height="80" fill="white"/>
<path d="M56.975 52.1327L73.5755 42.6617C74.0074 42.4182 74.3668 42.0643 74.6171 41.6363C74.8673 41.2083 74.9995 40.7215 75 40.2257V21.2837C75.0001 20.7873 74.8683 20.2998 74.618 19.8712C74.3676 19.4425 74.0079 19.0881 73.5755 18.8442L56.975 9.37324C56.5401 9.12854 56.0495 9 55.5505 9C55.0515 9 54.5609 9.12854 54.126 9.37324L37.522 18.8442C37.0903 19.0885 36.7312 19.4431 36.4815 19.8718C36.2319 20.3004 36.1005 20.7877 36.101 21.2837V55.1322L24.4565 61.7717L12.805 55.1287V41.8497L24.4495 35.2102L32.1285 39.5922V30.6847L25.874 27.1147C25.4391 26.87 24.9485 26.7415 24.4495 26.7415C23.9505 26.7415 23.4599 26.87 23.025 27.1147L6.42101 36.5857C5.98877 36.8303 5.62937 37.1855 5.37966 37.6148C5.12995 38.0441 4.99892 38.5321 5.00001 39.0287V57.9707C5.00001 58.9717 5.54251 59.9027 6.42451 60.4067L23.0285 69.8777C23.4634 70.1224 23.954 70.251 24.453 70.251C24.952 70.251 25.4426 70.1224 25.8775 69.8777L42.4815 60.4067C42.9127 60.1627 43.2714 59.8087 43.5211 59.3807C43.7707 58.9527 43.9023 58.4662 43.9025 57.9707V24.1152L44.1125 23.9997L55.5435 17.4792L67.188 24.1152V37.3977L55.54 44.0337L47.8715 39.6657V48.5732L54.1155 52.1327C54.5504 52.3774 55.041 52.506 55.54 52.506C56.039 52.506 56.5296 52.3774 56.9645 52.1327H56.975Z" fill="url(#paint0_linear_4557_4921)"/>
<defs>
<linearGradient id="paint0_linear_4557_4921" x1="4.7725" y1="59.8222" x2="71.5735" y2="20.5697" gradientUnits="userSpaceOnUse">
<stop stop-color="#A726C1"/>
<stop offset="0.88" stop-color="#803BDF"/>
<stop offset="1" stop-color="#7B3FE4"/>
</linearGradient>
</defs>
</svg>
