<svg width="40" height="40" viewBox="0 0 40 40" fill="none" xmlns="http://www.w3.org/2000/svg">
<rect width="40" height="40" rx="10" fill="url(#paint0_linear_4563_3705)"/>
<path fill-rule="evenodd" clip-rule="evenodd" d="M25.1393 24.836C24.7478 24.6546 24.2911 24.4975 23.7859 24.3698C23.515 25.1763 23.114 25.968 22.5619 26.5592C23.568 26.2241 24.4561 25.6234 25.1394 24.8351L25.1393 24.836ZM16.2844 17.1653C16.676 17.3467 17.1326 17.5038 17.6378 17.6314C17.9087 16.825 18.3097 16.0332 18.8619 15.442C17.8557 15.7771 16.9676 16.3779 16.2843 17.1661L16.2844 17.1653ZM26.5612 21.3035H24.3006C24.278 22.1908 24.1573 23.032 23.9585 23.7906C24.5454 23.9399 25.0723 24.1283 25.5194 24.3479C26.1271 23.4763 26.5038 22.4329 26.5611 21.3044L26.5612 21.3035ZM14.8614 20.6976H17.1221C17.1446 19.8104 17.2653 18.9692 17.4641 18.2105C16.8773 18.0612 16.3503 17.8728 15.9032 17.6532C15.2955 18.5248 14.9188 19.5683 14.8615 20.6967L14.8614 20.6976ZM20.4078 17.9821C19.6326 17.9664 18.8982 17.8883 18.2306 17.7616C18.6178 16.6382 19.3583 15.3907 20.4078 15.1745V17.9821ZM20.4078 20.6976V18.5881C19.5727 18.5716 18.7775 18.4848 18.0543 18.3424C17.8651 19.056 17.7505 19.8529 17.7279 20.6968H20.4079L20.4078 20.6976ZM20.4078 23.4131V21.3036H17.7279C17.7504 22.1483 17.865 22.9443 18.0543 23.658C18.8035 23.5104 19.5995 23.4288 20.4078 23.4123L20.4078 23.4131ZM20.4078 26.8274V24.0198C19.6509 24.0355 18.9208 24.1084 18.2306 24.2403C18.6178 25.3637 19.3591 26.612 20.4078 26.8274ZM21.0138 24.0198C21.789 24.0355 22.5235 24.1136 23.191 24.2403C22.8039 25.3637 22.0634 26.6112 21.0138 26.8274V24.0198ZM21.0138 21.3043V23.4138C21.8489 23.4303 22.6441 23.5171 23.3673 23.6595C23.5565 22.9459 23.6711 22.149 23.6937 21.3051H21.0137L21.0138 21.3043ZM21.0138 18.5888V20.6983H23.6938C23.6712 19.8536 23.5566 19.0576 23.3673 18.3439C22.6181 18.4915 21.8212 18.5731 21.0138 18.5896L21.0138 18.5888ZM21.0138 15.1745V17.9821C21.7708 17.9664 22.5009 17.8935 23.191 17.7616C22.8039 16.6382 22.0625 15.3899 21.0138 15.1745ZM26.4631 12.7699C26.4631 12.6024 26.5985 12.4669 26.766 12.4669C26.9336 12.4669 27.069 12.6024 27.069 12.7699V12.9158C27.5734 13.0503 27.9475 13.513 27.9475 14.0582C27.9475 14.2258 27.8121 14.3612 27.6446 14.3612C27.477 14.3612 27.3416 14.2258 27.3416 14.0582C27.3416 13.5503 26.7226 13.2882 26.3589 13.6519C26.1227 13.8881 26.1123 14.3238 26.4587 14.4584L27.2904 14.7805C28.043 15.0722 28.1524 16.0227 27.6011 16.5775C27.4562 16.7233 27.273 16.8318 27.0681 16.8865V17.0324C27.0681 17.1999 26.9327 17.3353 26.7652 17.3353C26.5976 17.3353 26.4622 17.1999 26.4622 17.0324V16.8865C25.9517 16.7502 25.5836 16.2849 25.5836 15.7441C25.5836 15.5765 25.7191 15.4411 25.8866 15.4411C26.0542 15.4411 26.1896 15.5765 26.1896 15.7441C26.1896 16.2519 26.812 16.515 27.1732 16.1512C27.4067 15.916 27.4197 15.4793 27.0734 15.3447L26.2417 15.0227C25.4925 14.7327 25.3771 13.7787 25.9318 13.2248C26.0768 13.0798 26.2599 12.9713 26.4639 12.9175V12.7717L26.4631 12.7699ZM28.9223 12.7447C27.7313 11.5537 25.8006 11.5537 24.6096 12.7447C23.4185 13.9358 23.4185 15.8665 24.6096 17.0575C25.8007 18.2486 27.7314 18.2486 28.9223 17.0575C30.1134 15.8664 30.1134 13.9357 28.9223 12.7447ZM24.2093 17.5142C24.0722 17.5559 23.9298 17.5949 23.784 17.6314C23.5131 16.824 23.112 16.0315 22.5591 15.4403C22.7778 15.5123 22.9905 15.5974 23.1963 15.6937C23.3516 16.3969 23.711 17.0263 24.2093 17.5133V17.5142ZM25.9977 18.4761C26.3319 19.174 26.522 19.918 26.5611 20.6984H24.3005C24.2779 19.8112 24.1572 18.97 23.9584 18.2114C24.2458 18.1385 24.5184 18.056 24.7736 17.9657C25.1417 18.2053 25.5549 18.3807 25.9985 18.4762L25.9977 18.4761ZM16.8121 24.9452C15.6211 23.7541 13.6904 23.7541 12.4994 24.9452C11.3084 26.1362 11.3083 28.067 12.4994 29.2579C13.6905 30.4489 15.6212 30.449 16.8121 29.2579C18.0031 28.0669 18.0032 26.1362 16.8121 24.9452ZM17.2123 24.4886C17.3495 24.4469 17.4919 24.4078 17.6377 24.3714C17.9086 25.1787 18.3096 25.9713 18.8626 26.5625C18.6439 26.4904 18.4312 26.4045 18.2254 26.309C18.0692 25.6041 17.7106 24.9782 17.2123 24.4894V24.4886ZM15.424 23.5267C15.0898 22.8287 14.8997 22.0847 14.8606 21.3043H17.1212C17.1438 22.1915 17.2644 23.0327 17.4633 23.7914C17.1759 23.8643 16.9033 23.9468 16.6481 24.0371C16.28 23.7975 15.8668 23.6221 15.4232 23.5266L15.424 23.5267ZM14.6557 23.4459C14.6792 23.4459 14.7035 23.4459 14.7269 23.4468C13.7442 21.0378 14.2989 18.2729 16.1411 16.4308C17.9676 14.6042 20.7161 14.0382 23.112 14.9992C23.0582 12.9392 24.7102 11.2445 26.7658 11.2445C28.7851 11.2445 30.4214 12.8809 30.4214 14.9001C30.4214 16.9454 28.7425 18.5939 26.6945 18.5548C27.6772 20.9648 27.1225 23.7287 25.2803 25.5709C23.4599 27.3913 20.7158 27.9677 18.3094 27.0024C18.3632 29.0624 16.7112 30.7562 14.6556 30.7562C12.6364 30.7562 11 29.1198 11 27.1006C11 25.0814 12.6364 23.445 14.6556 23.445L14.6557 23.4459ZM12.5176 27.974C12.35 27.974 12.2146 27.8386 12.2146 27.6711C12.2146 27.5035 12.35 27.3681 12.5176 27.3681H12.8188C12.7988 27.1919 12.7988 27.0122 12.8188 26.8351H12.5176C12.35 26.8351 12.2146 26.6996 12.2146 26.5321C12.2146 26.3646 12.35 26.2291 12.5176 26.2291H12.9733C13.5281 24.8723 15.1376 24.5875 16.03 25.7039C16.1342 25.8341 16.1125 26.0234 15.9823 26.1275C15.852 26.2317 15.6628 26.21 15.5586 26.0798C15.023 25.4096 14.1071 25.4817 13.6488 26.2291H14.5733C14.7409 26.2291 14.8763 26.3645 14.8763 26.5321C14.8763 26.6996 14.7409 26.8351 14.5733 26.8351H13.43C13.4031 27.0104 13.4031 27.1927 13.43 27.3681H14.5733C14.7409 27.3681 14.8763 27.5035 14.8763 27.6711C14.8763 27.8386 14.7409 27.974 14.5733 27.974H13.6488C14.1071 28.7206 15.023 28.7935 15.5586 28.1234C15.6628 27.9931 15.852 27.9723 15.9823 28.0756C16.1125 28.1798 16.1333 28.369 16.03 28.4992C15.1376 29.6156 13.528 29.33 12.9733 27.974L12.5176 27.974ZM20.9939 11.4989C20.8854 11.3721 20.9002 11.1812 21.0269 11.0726C21.1537 10.9641 21.3447 10.9789 21.4532 11.1056L22.4784 12.3019C22.587 12.4286 22.5722 12.6196 22.4454 12.7281L21.2492 13.7534C21.1224 13.8619 20.9315 13.8471 20.8229 13.7204C20.7144 13.5937 20.7292 13.4027 20.8559 13.2941L21.5435 12.7047C16.3244 12.1882 11.9281 16.553 12.4117 21.7782C12.4352 22.0343 12.4716 22.2904 12.5194 22.5448C12.5498 22.7088 12.4421 22.8668 12.278 22.8972C12.114 22.9276 11.956 22.82 11.9256 22.6559C11.3726 19.7026 12.3284 16.7406 14.3902 14.678C16.215 12.8532 18.7785 11.8549 21.5054 12.0954L20.9939 11.4989ZM20.4297 30.5011C20.5382 30.6279 20.5234 30.8188 20.3967 30.9274C20.2699 31.0359 20.0789 31.0211 19.9704 30.8944L18.9452 29.6981C18.8367 29.5714 18.8514 29.3804 18.9782 29.2719L20.1744 28.2466C20.3012 28.1381 20.4922 28.1529 20.6007 28.2796C20.7092 28.4063 20.6944 28.5973 20.5677 28.7059L19.8801 29.2953C25.0992 29.811 29.4955 25.4486 29.0119 20.2218C28.9884 19.9657 28.952 19.7096 28.9042 19.4552C28.8738 19.2912 28.9815 19.1332 29.1456 19.1028C29.3096 19.0724 29.4676 19.18 29.498 19.3441C30.051 22.2974 29.0952 25.2603 27.0334 27.322C25.2086 29.1468 22.6451 30.1451 19.9182 29.9046L20.4297 30.5011Z" fill="white"/>
<defs>
<linearGradient id="paint0_linear_4563_3705" x1="15.5406" y1="57.151" x2="57.4094" y2="19.2134" gradientUnits="userSpaceOnUse">
<stop stop-color="#FF1717"/>
<stop offset="1" stop-color="#FF6461"/>
</linearGradient>
</defs>
</svg>
