<svg width="40" height="40" viewBox="0 0 40 40" fill="none" xmlns="http://www.w3.org/2000/svg">
<rect width="40" height="40" rx="10" fill="url(#paint0_linear_4563_3683)"/>
<path fill-rule="evenodd" clip-rule="evenodd" d="M19.4315 14.3795C19.4315 14.2705 19.5103 14.1853 19.6111 14.1615C20.4771 13.9754 21.2303 13.7005 21.8141 13.3532C21.9937 14.0643 21.9937 14.747 21.8141 15.4269C21.3422 15.152 20.7685 14.9174 20.117 14.7397L19.6111 14.6187C19.4966 14.5921 19.4315 14.5023 19.4315 14.3795ZM19.4874 15.2116C19.5662 15.2281 19.645 15.2483 19.7238 15.2684L19.7687 16.3113C19.7779 16.4771 19.9154 16.6045 20.0831 16.6027C20.2517 16.5981 20.3864 16.457 20.3754 16.2874L20.3415 15.4389C20.9261 15.6285 21.421 15.8668 21.8031 16.1463C21.9644 16.2572 22.1898 16.204 22.264 16.0052C22.6461 14.9578 22.6461 13.8755 22.275 12.7805C22.2109 12.6018 21.9754 12.5093 21.8031 12.6348C21.2523 13.0389 20.4542 13.3624 19.4874 13.5686C18.604 13.7564 18.605 15.0219 19.4874 15.2116ZM28.9865 26.7295C28.9865 26.9238 28.8288 27.0778 28.6382 27.0778H26.6259C26.5132 27.0778 26.4234 26.9889 26.4234 26.8752V25.7848C26.4234 25.6711 26.5132 25.5823 26.6259 25.5823H26.7716C26.9402 25.5823 27.0749 25.4448 27.0749 25.2789V24.1793C27.2774 24.2315 27.48 24.3452 27.6257 24.4826C27.7494 24.5962 27.8172 24.7126 27.8172 24.8143V25.279C27.8172 25.4448 27.9519 25.5823 28.1205 25.5823H28.6373C28.8289 25.5823 28.9856 25.7362 28.9856 25.9305L28.9865 26.7295ZM28.6382 24.9756H28.4247V24.8143C28.4247 24.062 27.413 23.4929 26.7496 23.5369C26.592 23.5488 26.4683 23.6826 26.4683 23.8402V24.9884C26.0972 25.0645 25.8158 25.3926 25.8158 25.7847V26.8752C25.8158 27.3196 26.187 27.6835 26.625 27.6835H28.6373C29.1661 27.6835 29.5931 27.2546 29.5931 26.7295V25.9295C29.594 25.4035 29.167 24.9756 28.6382 24.9756ZM27.6156 28.6247C29.1441 28.6247 30.4032 27.3756 30.4032 25.8443C30.4032 24.3084 29.1441 23.0595 27.6156 23.0595C26.087 23.0595 24.8389 24.3085 24.8389 25.8443C24.838 27.3764 26.0861 28.6247 27.6156 28.6247ZM17.6886 26.5921H24.3104C24.2545 26.3502 24.2316 26.0991 24.2316 25.8444C24.2316 24.2563 25.3221 22.9221 26.7947 22.5547L23.4446 16.7439C22.1085 18.123 19.9011 18.123 18.5658 16.7439L15.2156 22.5547C16.9585 22.9937 18.1133 24.765 17.6889 26.5923L17.6886 26.5921ZM14.3952 28.6247C12.8548 28.6247 11.6076 27.3756 11.6076 25.8443C11.6076 24.3084 12.8557 23.0595 14.3952 23.0595C15.9237 23.0595 17.1718 24.3085 17.1718 25.8443C17.1718 27.3764 15.9237 28.6247 14.3952 28.6247ZM21.005 11.6068C19.4646 11.6068 18.2174 12.8549 18.2174 14.3871C18.2174 15.923 19.4655 17.1719 21.005 17.1719C22.5335 17.1719 23.7816 15.9239 23.7816 14.3871C23.7816 12.8559 22.5345 11.6068 21.005 11.6068ZM27.6158 22.4538C27.5599 22.4538 27.4921 22.4583 27.4362 22.4583L23.8385 16.2344C24.1867 15.7011 24.3893 15.0706 24.3893 14.387C24.3893 12.5204 22.8717 11 21.0051 11C19.1393 11 17.6098 12.5193 17.6098 14.387C17.6098 15.0706 17.8123 15.7002 18.1606 16.2344L14.5638 22.4583C14.5079 22.4583 14.4511 22.4538 14.3952 22.4538C12.5176 22.4538 11 23.9731 11 25.8443C11 27.7109 12.5175 29.2313 14.3952 29.2313C15.778 29.2313 16.9694 28.3947 17.4982 27.1988H24.5129C25.0297 28.3947 26.2329 29.2313 27.6158 29.2313C29.4815 29.2313 31 27.711 31 25.8443C30.9991 23.974 29.4816 22.4538 27.6158 22.4538ZM15.9468 24.7373C16.0705 24.8546 16.0705 25.0489 15.9578 25.1662L14.0463 27.1263C13.9235 27.2555 13.7237 27.2464 13.6082 27.1227L12.6076 26.0597C12.4949 25.9387 12.5068 25.749 12.6305 25.6317C12.7432 25.5181 12.9338 25.5227 13.0575 25.6482L13.8327 26.4803L15.5189 24.7475C15.6426 24.6237 15.8341 24.6201 15.9468 24.7373ZM21.95 21.7224C21.6686 21.9286 21.5449 22.2878 21.6576 22.6195L21.7704 22.9705L21.478 22.7524C21.1967 22.5462 20.8146 22.5462 20.5342 22.7524L20.2309 22.9705L20.3546 22.6195C20.4554 22.2878 20.3436 21.9286 20.0622 21.7224L19.7589 21.508H20.13C20.4783 21.508 20.7825 21.2853 20.8943 20.9499L21.007 20.6026L21.1197 20.9499C21.2205 21.2853 21.5248 21.508 21.884 21.508H22.2441L21.95 21.7224ZM22.5905 20.8977C22.804 20.8977 22.9956 21.0388 23.0624 21.2413C23.1183 21.4475 23.0514 21.6738 22.8828 21.7994L22.2982 22.2117C22.2304 22.264 22.2084 22.3492 22.2304 22.4335L22.4549 23.1043C22.5227 23.3105 22.4439 23.5331 22.2753 23.6578C22.1003 23.7851 21.8602 23.7888 21.6906 23.6578L21.117 23.2417C21.0492 23.1932 20.9594 23.1932 20.8806 23.2417L20.3188 23.6578C19.9266 23.9437 19.408 23.5588 19.5546 23.1043L19.7681 22.4335C19.802 22.3483 19.7681 22.264 19.7003 22.2117L19.1267 21.7994C18.7354 21.5226 18.9443 20.8967 19.419 20.8986L20.1273 20.9022C20.2171 20.9022 20.2849 20.85 20.3069 20.7648L20.5314 20.094C20.6726 19.6294 21.3305 19.6431 21.4753 20.094L21.6888 20.7648C21.7117 20.8491 21.7896 20.9022 21.8803 20.9022L22.5905 20.8977ZM23.9953 22.4784L23.9055 22.527C23.4675 22.7817 23.265 23.283 23.3887 23.7723L23.4116 23.8484C23.4565 24.0262 23.4116 24.2003 23.2769 24.3295C23.0918 24.5182 22.9268 24.4917 22.7032 24.4349C22.2084 24.3011 21.7136 24.5118 21.4552 24.948L21.4212 25.0168C21.2361 25.3485 20.7358 25.3485 20.5443 25.0168L20.4994 24.9324C20.252 24.4843 19.7195 24.2892 19.2513 24.4147L19.1835 24.4349C19.0039 24.4834 18.8233 24.4385 18.6996 24.3057C18.5145 24.1178 18.531 23.9519 18.5869 23.7274C18.7216 23.2344 18.5191 22.7332 18.0701 22.483L18.0142 22.4427C17.8456 22.3492 17.7558 22.1962 17.7558 22.0101C17.7558 21.8241 17.8456 21.6711 18.0142 21.574L18.093 21.5254C18.531 21.2706 18.7454 20.7694 18.6098 20.28L18.5869 20.2031C18.542 20.0253 18.5869 19.8521 18.7216 19.722C18.8453 19.5891 19.0249 19.5442 19.2055 19.5928L19.2953 19.6166C19.7901 19.7504 20.2959 19.5396 20.5434 19.1034L20.5883 19.0347C20.6781 18.8734 20.8357 18.7836 21.0153 18.7836C21.2068 18.7836 21.3525 18.8725 21.4533 19.0347L21.4982 19.119C21.7566 19.5598 22.2625 19.765 22.7463 19.6358L22.8251 19.6157C23.0047 19.5671 23.1733 19.612 23.309 19.7449C23.4904 19.9208 23.4638 20.1096 23.4098 20.3231C23.2751 20.8161 23.4886 21.3174 23.9266 21.5684L23.9944 21.6088C24.328 21.8067 24.3261 22.2741 23.9953 22.4784ZM24.8503 22.0422C24.8503 22.45 24.6478 22.7973 24.2995 22.9998L24.2097 23.052C24.0072 23.1693 23.9174 23.3874 23.9733 23.6138L23.9962 23.6898C24.097 24.082 23.9962 24.4706 23.7149 24.7565C23.4226 25.0433 23.0404 25.1487 22.6473 25.0433L22.5465 25.0195C22.322 24.959 22.0966 25.0479 21.9848 25.2504L21.9399 25.3191C21.7374 25.671 21.3891 25.8726 20.9841 25.8726C20.5791 25.8726 20.2309 25.671 20.0284 25.3191L19.9725 25.2348C19.8597 25.0332 19.6462 24.9398 19.4107 25.0002L19.3429 25.0204C18.9498 25.1249 18.5558 25.0204 18.2753 24.7336C17.983 24.4467 17.8822 24.0582 17.983 23.6669L18.0059 23.5698C18.0737 23.3434 17.972 23.1217 17.7695 23.0044L17.7136 22.9677C17.3535 22.7661 17.1519 22.4142 17.1519 22.0101C17.1519 21.6023 17.3544 21.2541 17.7136 21.0525L17.7924 20.9994C17.9949 20.8821 18.0957 20.664 18.0288 20.4376C17.9024 20.0079 17.9739 19.6193 18.2982 19.294C18.5796 19.0072 18.9727 18.9018 19.3658 19.0072L19.4556 19.031C19.692 19.0915 19.9056 19.0026 20.0173 18.801L20.0623 18.7323C20.2648 18.3804 20.613 18.1788 21.018 18.1788C21.423 18.1788 21.7713 18.3804 21.9738 18.7323L22.0297 18.8166C22.1424 19.0182 22.3669 19.1116 22.5914 19.0503L22.6702 19.0301C23.0633 18.9247 23.4455 19.0301 23.7378 19.3169C24.0191 19.6038 24.1309 19.9923 24.0191 20.3836L23.9962 20.4807C23.9403 20.7071 24.0301 20.9298 24.2326 21.047L24.3004 21.0837C24.6477 21.2862 24.8503 21.6372 24.8503 22.0422Z" fill="white"/>
<defs>
<linearGradient id="paint0_linear_4563_3683" x1="15.5406" y1="57.151" x2="57.4094" y2="19.2134" gradientUnits="userSpaceOnUse">
<stop stop-color="#FF1717"/>
<stop offset="1" stop-color="#FF6461"/>
</linearGradient>
</defs>
</svg>
