<svg width="40" height="40" viewBox="0 0 40 40" fill="none" xmlns="http://www.w3.org/2000/svg">
<rect width="40" height="40" rx="10" fill="url(#paint0_linear_4563_3639)"/>
<path d="M14.0038 12C13.8311 11.9992 13.6905 12.1383 13.6897 12.3109V14.3547H12.2343C11.5555 14.3547 11 14.9117 11 15.5913V27.3441C11 28.0238 11.5547 28.5808 12.2343 28.5808H29.7633C30.4422 28.5808 31 28.0238 31 27.3441V15.5921C31 14.9125 30.4422 14.3555 29.7633 14.3555H20.3293V12.3109C20.3285 12.1399 20.1894 12.0008 20.0175 12C19.9347 11.9992 19.8551 12.032 19.7965 12.0906C19.7379 12.1492 19.7043 12.2281 19.7043 12.3109V14.3547H18.9332V12.3109C18.9324 12.1399 18.7934 12.0008 18.6215 12C18.5387 11.9992 18.459 12.032 18.4004 12.0906C18.3418 12.1492 18.3082 12.2281 18.3082 12.311V14.3547H15.7107V12.311C15.7099 12.1399 15.5709 12.0008 15.399 12C15.2271 11.9992 15.0865 12.1383 15.0857 12.311V14.3547H14.3154V12.311C14.3146 12.1391 14.1757 12 14.0038 12ZM12.2351 14.9803H29.7635C30.1064 14.9803 30.3752 15.2475 30.3752 15.592V27.3448C30.3752 27.6893 30.1064 27.9565 29.7635 27.9565L12.2351 27.9557C11.8921 27.9557 11.6257 27.6885 11.6257 27.344V15.592C11.6257 15.2475 11.8913 14.9803 12.2351 14.9803ZM12.828 15.8709H12.8273C12.6546 15.8701 12.5148 16.0092 12.514 16.1818V26.7519C12.5132 26.8347 12.546 26.9151 12.6054 26.9737C12.664 27.0323 12.7444 27.0659 12.8273 27.0651H29.1735C29.2563 27.0659 29.3368 27.0323 29.3954 26.9737C29.4547 26.9151 29.4875 26.8347 29.4868 26.7519V16.1818C29.486 16.0092 29.3461 15.8701 29.1735 15.8709H12.828ZM13.139 16.4959H28.8618V26.4401H13.139V16.4959ZM21.1043 17.2568C20.9324 17.2576 20.7934 17.3966 20.7926 17.5685V19.7894C20.7934 19.9613 20.9324 20.1004 21.1043 20.1011H27.6025C27.6853 20.1019 27.765 20.0691 27.8236 20.0105C27.8829 19.9519 27.9157 19.8722 27.9157 19.7894V17.5685C27.9157 17.4857 27.8829 17.406 27.8236 17.3474C27.765 17.2888 27.6853 17.256 27.6025 17.2568L21.1043 17.2568ZM16.9614 17.7068C15.3584 17.7068 14.0639 19.0294 14.0247 20.6621V20.6613V20.6652V20.6683C14.0255 20.6761 14.0255 20.6839 14.0263 20.6918C14.0271 20.7027 14.0279 20.7144 14.0294 20.7254C14.0325 20.7394 14.0365 20.7535 14.0411 20.7675C14.0427 20.7722 14.0443 20.7777 14.0458 20.7824C14.0927 20.9019 14.2075 20.9816 14.3364 20.9824H19.5839C19.7432 20.9824 19.8776 20.8628 19.8956 20.7043C19.8971 20.6902 19.8979 20.6761 19.8971 20.6613C19.8581 19.0285 18.5636 17.706 16.9604 17.706L16.9614 17.7068ZM21.4183 17.8802H27.2915V19.4786H26.6063V18.8857H26.6056C26.6056 18.8021 26.5727 18.7224 26.5141 18.6638C26.4548 18.6044 26.3751 18.5716 26.2915 18.5716C26.2087 18.5724 26.1298 18.6052 26.0712 18.6646C26.0126 18.7231 25.9806 18.8028 25.9806 18.8857V19.4786H24.665V18.8857C24.6658 18.8028 24.633 18.7232 24.5744 18.6646C24.5166 18.6052 24.4369 18.5724 24.3541 18.5716C24.2705 18.5716 24.1908 18.6044 24.1322 18.6638C24.0728 18.7224 24.04 18.8021 24.04 18.8857V19.4786H22.7283V18.8857C22.7283 18.8021 22.6955 18.7224 22.6369 18.6638C22.5775 18.6044 22.4979 18.5716 22.4143 18.5716C22.3315 18.5724 22.2518 18.6052 22.1932 18.6638C22.1346 18.7232 22.1026 18.8028 22.1026 18.8857V19.4786H21.4174L21.4183 17.8802ZM16.9614 18.3325C18.1184 18.3325 19.0716 19.1997 19.245 20.3575H17.5005L17.9786 19.5294V19.5286C18.0653 19.3802 18.0145 19.1888 17.8661 19.102H17.8653C17.7934 19.0606 17.7075 19.0497 17.6278 19.0716C17.5481 19.0935 17.4794 19.1458 17.4388 19.2177L16.7786 20.3575H14.6771C14.8505 19.1997 15.8044 18.3325 16.9606 18.3325L16.9614 18.3325ZM21.6879 20.6942C21.6051 20.6935 21.5254 20.7263 21.466 20.7849C21.4074 20.8435 21.3746 20.9224 21.3738 21.0052V21.5466C20.9129 21.6833 20.5738 22.1122 20.5738 22.6153C20.5738 23.1184 20.9129 23.5496 21.3738 23.6863V25.3675C21.3738 25.4503 21.4074 25.53 21.466 25.5886C21.5246 25.6472 21.6043 25.6792 21.6879 25.6792C21.8597 25.6785 21.9988 25.5394 21.9988 25.3675V23.6871C22.4613 23.5512 22.8019 23.12 22.8019 22.6153C22.8019 22.1106 22.4613 21.6817 21.9988 21.5458V21.0052C21.998 20.8341 21.859 20.695 21.6879 20.6942ZM24.3542 20.6942C24.2714 20.6935 24.1917 20.7263 24.1331 20.7849C24.0737 20.8435 24.0409 20.9224 24.0401 21.0052V22.6864C23.5792 22.8231 23.2401 23.2512 23.2401 23.7551C23.2401 24.2582 23.5792 24.6894 24.0401 24.8261V25.3675C24.0409 25.4503 24.0737 25.53 24.1323 25.5886C24.1917 25.6472 24.2714 25.6792 24.3542 25.6792C24.526 25.6785 24.6651 25.5394 24.6651 25.3675V24.8269C25.1276 24.691 25.4682 24.2598 25.4682 23.7551C25.4682 23.2504 25.1276 22.8215 24.6651 22.6856V21.0052C24.6651 20.8341 24.526 20.695 24.3542 20.6942ZM27.0205 20.6942C26.8478 20.6935 26.708 20.8325 26.7072 21.0052V21.5466C26.2455 21.6833 25.9049 22.1122 25.9049 22.6153C25.9049 23.1184 26.2463 23.5496 26.7072 23.6863V25.3675C26.7072 25.4503 26.74 25.53 26.7994 25.5886C26.858 25.6472 26.9377 25.6792 27.0205 25.6792C27.1931 25.6792 27.3322 25.5394 27.3322 25.3675V23.6871C27.7939 23.5504 28.1345 23.1192 28.1345 22.6153C28.1345 22.1114 27.7939 21.6817 27.3322 21.5458V21.0052C27.3322 20.8333 27.1924 20.6942 27.0205 20.6942ZM14.9561 22.0372C14.785 22.0372 14.646 22.1762 14.6452 22.3481C14.6444 22.4309 14.6772 22.5106 14.7358 22.5692C14.7944 22.6286 14.8733 22.6614 14.9561 22.6621H15.3256V24.9137C15.3256 24.9965 15.3577 25.0762 15.4163 25.1348C15.4748 25.1934 15.5537 25.2269 15.6366 25.2269C15.7202 25.2277 15.7998 25.1941 15.8592 25.1355C15.9178 25.077 15.9506 24.9965 15.9506 24.9137V22.6621H17.9715V24.9137C17.9708 24.9965 18.0036 25.0762 18.0622 25.1348C18.1208 25.1934 18.2004 25.2269 18.2833 25.2269C18.3661 25.2269 18.4458 25.1934 18.5036 25.1348C18.5622 25.0762 18.595 24.9965 18.5942 24.9137V22.6621H18.9629C19.0465 22.6621 19.1262 22.6293 19.1856 22.57C19.2442 22.5114 19.277 22.4317 19.277 22.3481C19.2762 22.2653 19.2434 22.1856 19.184 22.1278C19.1254 22.0692 19.0458 22.0364 18.9629 22.0372L14.9561 22.0372ZM21.6878 22.1262H21.6988C21.9675 22.1317 22.1769 22.3434 22.1769 22.6153C22.1769 22.8903 21.9621 23.1066 21.6878 23.1066C21.4144 23.1066 21.1988 22.8903 21.1988 22.6153C21.1988 22.3403 21.4136 22.1262 21.6878 22.1262ZM27.0205 22.127V22.1262H27.0314C27.3002 22.1317 27.5095 22.3434 27.5095 22.6153C27.5095 22.8903 27.2939 23.1066 27.0197 23.1066C26.7463 23.1066 26.5283 22.8903 26.5283 22.6153C26.5283 22.3403 26.7455 22.1262 27.0197 22.1262L27.0205 22.127ZM24.3542 23.2668C24.6276 23.2668 24.844 23.4809 24.844 23.7558C24.844 24.0308 24.6284 24.2472 24.3542 24.2472C24.0807 24.2472 23.8628 24.0308 23.8628 23.7558C23.8628 23.4809 24.08 23.2668 24.3542 23.2668Z" fill="white"/>
<defs>
<linearGradient id="paint0_linear_4563_3639" x1="15.5406" y1="57.151" x2="57.4094" y2="19.2134" gradientUnits="userSpaceOnUse">
<stop stop-color="#FF1717"/>
<stop offset="1" stop-color="#FF6461"/>
</linearGradient>
</defs>
</svg>
