<svg width="40" height="40" viewBox="0 0 40 40" fill="none" xmlns="http://www.w3.org/2000/svg">
<path d="M24.6292 24.8459L20.0537 22.8123C19.9901 22.7805 19.9139 22.7805 19.8503 22.8123L16.6284 24.2422L18.1408 21.643C18.2107 21.5223 18.1726 21.3634 18.0519 21.2935C18.0137 21.2681 17.9693 21.2617 17.9248 21.2617H17.1622V19.4823H16.6538V21.5159C16.6538 21.6557 16.7682 21.7701 16.908 21.7701H17.4799L16.1454 24.0642L14.8045 21.7765H15.3765C15.5163 21.7765 15.6307 21.6621 15.6307 21.5223V15.4215C15.6307 13.0384 17.5689 11.1002 19.952 11.1002H20.9688V10.5918H19.952C17.2829 10.5918 15.1223 12.7525 15.1223 15.4215V21.2681H14.3597C14.2199 21.2681 14.1055 21.3825 14.1055 21.5223C14.1055 21.5667 14.1182 21.6112 14.1372 21.6494L15.8531 24.5853L15.2684 24.8459C15.1795 24.884 15.1159 24.9793 15.1159 25.081V27.6103C15.1159 30.2476 16.4314 32.7069 18.6238 34.1686L19.8058 34.9566C19.8884 35.0138 20.0028 35.0138 20.0855 34.9566L21.2675 34.1686C23.4599 32.7069 24.7817 30.2476 24.7754 27.6103V25.081C24.7817 24.9793 24.7245 24.8904 24.6292 24.8459ZM24.2733 27.6103C24.2733 30.076 23.0405 32.3765 20.9878 33.7428L19.952 34.4355L18.9161 33.7428C16.8635 32.3765 15.6307 30.076 15.6307 27.6103V25.2462L19.952 23.3271L24.2733 25.2462V27.6103Z" fill="#FD1716"/>
<path d="M18.4272 25.5907V26.8617C17.7282 26.8617 17.1562 27.4336 17.1562 28.1327V30.1663C17.1562 30.8653 17.7282 31.4372 18.4272 31.4372H21.4776C22.1766 31.4372 22.7486 30.8653 22.7486 30.1663V28.1327C22.7486 27.4336 22.1766 26.8617 21.4776 26.8617V25.5907C21.4776 25.1713 21.1344 24.8281 20.715 24.8281H19.1898C18.7704 24.8281 18.4272 25.1713 18.4272 25.5907ZM21.4776 27.3701C21.897 27.3701 22.2402 27.7133 22.2402 28.1327V30.1663C22.2402 30.5857 21.897 30.9289 21.4776 30.9289H18.4272C18.0078 30.9289 17.6646 30.5857 17.6646 30.1663V28.1327C17.6646 27.7133 18.0078 27.3701 18.4272 27.3701H21.4776ZM20.9692 25.5907V26.8617H18.9356V25.5907C18.9356 25.4509 19.05 25.3365 19.1898 25.3365H20.715C20.8548 25.3365 20.9692 25.4509 20.9692 25.5907Z" fill="#FD1716"/>
<path d="M19.6987 29.8663V30.6734H20.2071V29.8663C20.6011 29.7265 20.8108 29.288 20.671 28.894C20.5312 28.5 20.0927 28.2903 19.6987 28.4301C19.3047 28.5699 19.095 29.0084 19.2348 29.4024C19.311 29.6185 19.4826 29.79 19.6987 29.8663ZM19.9529 28.894C20.0927 28.894 20.2071 29.0084 20.2071 29.1482C20.2071 29.288 20.0927 29.4024 19.9529 29.4024C19.8131 29.4024 19.6987 29.288 19.6987 29.1482C19.6987 29.0084 19.8131 28.894 19.9529 28.894Z" fill="#FD1716"/>
<path d="M25.769 10.4649C25.8135 10.3886 25.8135 10.2869 25.769 10.2107L23.9833 7.1603C23.9388 7.08404 23.8562 7.0332 23.7609 7.0332C23.6719 7.0332 23.5893 7.08404 23.5385 7.1603L21.7654 10.2107C21.6955 10.3314 21.7337 10.4903 21.8544 10.5602C21.8925 10.5856 21.937 10.592 21.9815 10.592H22.7441V12.3713H23.2525V10.3378C23.2525 10.198 23.1381 10.0836 22.9983 10.0836H22.4264L23.7609 7.78944L25.1018 10.0836H24.5298C24.39 10.0836 24.2756 10.198 24.2756 10.3378V16.4385C24.2756 18.8216 22.3374 20.7598 19.9543 20.7598H18.9375V21.2682H19.9543C22.6234 21.2682 24.784 19.1076 24.784 16.4385V10.592H25.5466C25.6356 10.592 25.7246 10.5411 25.769 10.4649Z" fill="#FD1716"/>
<path d="M16.6484 15.4217V16.4385C16.6484 18.2624 18.1291 19.7431 19.953 19.7431C21.7769 19.7431 23.2576 18.2624 23.2576 16.4385V15.4217C23.2576 13.5979 21.7769 12.1172 19.953 12.1172C18.1291 12.1172 16.6484 13.5979 16.6484 15.4217ZM18.682 12.9306V13.3882C18.1546 13.6106 17.697 13.9601 17.3475 14.4113C17.5953 13.7695 18.0719 13.2484 18.682 12.9306ZM19.953 19.2347C18.4088 19.2347 17.1568 17.9828 17.1568 16.4385C17.1568 14.8943 18.4088 13.6424 19.953 13.6424C21.4972 13.6424 22.7492 14.8943 22.7492 16.4385C22.7492 17.9828 21.4972 19.2347 19.953 19.2347ZM21.224 12.9306C21.8341 13.242 22.3107 13.7695 22.5585 14.4113C22.209 13.9601 21.7514 13.6106 21.224 13.3882V12.9306ZM20.7156 13.2229C20.2135 13.1022 19.6924 13.1022 19.1904 13.2229V12.7336C19.6861 12.5938 20.2199 12.5938 20.7156 12.7336V13.2229Z" fill="#FD1716"/>
<path d="M8.74254 24.4333C8.32947 24.5286 7.92276 24.2744 7.82743 23.8613L5.75573 14.9517C6.00993 15.0661 6.28954 15.0916 6.55645 15.028L12.689 13.6045L12.5746 13.1088L6.44206 14.5323C6.02899 14.6276 5.62228 14.3734 5.52695 13.9604C5.43163 13.5473 5.68583 13.1406 6.0989 13.0453L12.5936 11.5328L12.4792 11.0371L5.98451 12.5496C5.29818 12.7085 4.87875 13.3948 5.03127 14.0748L7.33175 23.9757C7.4652 24.5477 7.97995 24.9607 8.56461 24.9607C8.65993 24.9607 8.76161 24.948 8.85693 24.929L12.6127 24.0583L12.4983 23.5627L8.74254 24.4333Z" fill="#FD1716"/>
<path d="M12.2517 19.8447C11.9911 19.9019 11.7687 20.0608 11.6289 20.2896L12.061 20.5565C12.2008 20.3277 12.5059 20.2578 12.7347 20.3976L13.0016 19.9655C12.7791 19.832 12.5122 19.7875 12.2517 19.8447Z" fill="#FD1716"/>
<path d="M34.7664 12.2759C34.5884 11.99 34.3024 11.7866 33.9783 11.7104L28.0365 10.3313C27.7887 10.2741 27.5345 10.2932 27.293 10.3822L27.4773 10.8588C27.6171 10.8016 27.7759 10.7953 27.9221 10.827L33.864 12.206C34.277 12.3014 34.5312 12.7081 34.4359 13.1212L32.021 23.5178C31.9257 23.9309 31.5126 24.1851 31.1059 24.0898L27.4455 23.2382L27.3311 23.7339L30.9852 24.5854C31.6715 24.7443 32.3515 24.3185 32.5104 23.6386L34.9252 13.2419C35.0078 12.9051 34.9507 12.5619 34.7664 12.2759Z" fill="#FD1716"/>
<path d="M27.9801 21.7961C28.3931 21.8914 28.7998 21.6372 28.8952 21.2241L29.3527 19.2414C29.448 18.8283 29.1938 18.4216 28.7808 18.3263L27.7894 18.0975C27.3763 18.0022 26.9696 18.2564 26.8743 18.6694L26.8107 18.9427V6.27098C26.8107 5.57194 26.2388 5 25.5398 5H14.3615C13.6624 5 13.0905 5.57194 13.0905 6.27098V15.3967C10.9997 15.1615 8.95977 16.1529 7.84766 17.9386L8.27979 18.2055C9.30293 16.566 11.1776 15.6699 13.0905 15.9114V17.659C11.775 17.4048 10.4468 17.9831 9.74142 19.1206L10.1736 19.3875C10.79 18.4025 11.9593 17.9132 13.0968 18.1738V27.6235C13.0968 28.3226 13.6688 28.8945 14.3678 28.8945V28.3861C13.9484 28.3861 13.6052 28.0429 13.6052 27.6235V6.27098C13.6052 5.85156 13.9484 5.50839 14.3678 5.50839H16.1472V5.76259C16.1472 6.46163 16.7191 7.03358 17.4182 7.03358H22.5021C23.2011 7.03358 23.7731 6.46163 23.7731 5.76259V5.50839H25.5525C25.9719 5.50839 26.3151 5.85156 26.3151 6.27098V27.6235C26.3151 28.0429 25.9719 28.3861 25.5525 28.3861V28.8945C26.2515 28.8945 26.8235 28.3226 26.8235 27.6235V21.5037C26.8806 21.5292 26.9378 21.5546 26.995 21.5673L27.9801 21.7961ZM23.2583 5.76259C23.2583 6.18202 22.9152 6.52518 22.4958 6.52518H17.4118C16.9924 6.52518 16.6492 6.18202 16.6492 5.76259V5.50839H23.2583V5.76259ZM27.3763 18.7838C27.4081 18.644 27.5479 18.5614 27.6814 18.5932L28.6727 18.822C28.8125 18.8537 28.8952 18.9935 28.8634 19.127L28.6918 19.8705L27.2048 19.5274L27.3763 18.7838ZM26.9124 20.7666L27.084 20.023L28.5711 20.3662L28.3995 21.1097C28.3677 21.2495 28.2279 21.3322 28.0944 21.3004L27.1031 21.0716C26.9696 21.0398 26.8806 20.9064 26.9124 20.7666Z" fill="#FD1716"/>
<path d="M30.4975 21.0749L30.1523 22.5605L30.6476 22.6756L30.9927 21.1899L30.4975 21.0749Z" fill="#FD1716"/>
<path d="M30.9545 19.0964L30.6094 20.582L31.1046 20.6971L31.4498 19.2114L30.9545 19.0964Z" fill="#FD1716"/>
<path d="M31.4155 17.112L31.0703 18.5977L31.5655 18.7127L31.9107 17.227L31.4155 17.112Z" fill="#FD1716"/>
<path d="M31.8764 15.1335L31.5312 16.6191L32.0265 16.7342L32.3716 15.2485L31.8764 15.1335Z" fill="#FD1716"/>
<path d="M32.3373 13.1491L31.9922 14.6348L32.4874 14.7498L32.8326 13.2641L32.3373 13.1491Z" fill="#FD1716"/>
</svg>
