<svg width="40" height="40" viewBox="0 0 40 40" fill="none" xmlns="http://www.w3.org/2000/svg">
<path d="M31.3798 26.5988C35.0828 26.582 36.3877 21.6505 33.1828 19.8166C33.8204 18.1171 32.7598 16.1215 31.0423 15.6765C31.6075 13.8671 30.1602 11.9321 28.2654 11.9632C26.6655 11.9632 25.3631 13.2656 25.3631 14.8655C25.3631 15.1423 25.4032 15.4139 25.4834 15.6777C25.1924 15.7605 24.9156 15.8821 24.6634 16.0412C24.0904 16.4072 24.644 17.2738 25.2157 16.9168C25.5196 16.7253 25.8779 16.6128 26.2517 16.5921C26.628 16.5831 26.8699 16.1278 26.6668 15.8109C25.9037 14.6133 26.8582 12.9642 28.2654 12.9979C29.6687 12.9668 30.6206 14.6146 29.8588 15.8122C29.6558 16.1317 29.9015 16.5843 30.2779 16.5921C31.4303 16.6516 32.3317 17.5997 32.3317 18.7507C32.3317 19.1258 32.2373 19.4815 32.0524 19.81C31.9786 19.9406 31.9644 20.0971 32.0149 20.2394C32.0653 20.3804 32.1752 20.4929 32.3149 20.5472C33.3237 20.9378 33.9756 21.8871 33.9756 22.9671C33.9497 25.8539 29.9401 26.5549 28.9379 23.8492V22.8753L30.6658 20.9016C31.1056 20.392 30.3386 19.7117 29.8872 20.22L28.9366 21.3051V18.0071C28.9366 17.7213 28.7051 17.4897 28.4193 17.4897C28.1334 17.4897 27.9019 17.7213 27.9019 18.0071V19.4738L26.6642 18.4688C26.1352 18.0459 25.4898 18.8426 26.0123 19.272L27.9019 20.8059V23.8375C27.5345 24.8709 26.5645 25.5616 25.4626 25.5616C24.9996 25.5836 24.3826 25.2253 24.1925 25.8448C24.0451 26.5613 24.953 26.582 25.4626 26.5962C26.3899 26.5962 27.25 26.2445 27.9019 25.6508V31.6573H20.4948V27.296C22.9923 27.0787 25.0657 24.7766 25.0203 22.2663C25.0203 21.3182 24.7629 19.677 24.3491 17.9865C23.811 15.736 22.3055 10.502 19.9607 10.502C18.5587 10.502 17.2808 12.2997 16.1606 15.8462C16.0546 16.1748 16.3055 16.5278 16.6547 16.5214C16.8914 16.5214 17.0906 16.361 17.1526 16.1437C18.2261 12.7473 19.3074 11.5368 19.9605 11.5368C21.0095 11.5368 22.3998 14.2878 23.3427 18.23C23.8898 21.0418 24.6283 22.8293 23.0129 24.8845C22.365 25.6411 21.4673 26.1209 20.4947 26.2515V22.916L22.2227 20.9424C22.6663 20.4328 21.8929 19.7525 21.4441 20.2608L20.4934 21.3459V18.0478C20.4844 17.3701 19.4691 17.3662 19.4587 18.0478V19.5145L18.221 18.5095C17.6972 18.0866 17.044 18.8833 17.5691 19.3127L19.4587 20.8467V26.2582C18.9944 26.2012 18.5482 26.0642 18.1266 25.8456C17.8731 25.7137 17.5601 25.8145 17.4294 26.068C17.0375 26.9643 18.8741 27.1958 19.4587 27.2941V31.6567H12.106V25.6489C14.3603 27.7648 18.2171 26.0731 18.177 22.9613C18.177 21.6369 17.4747 20.4509 16.3508 19.812C16.9897 18.1086 15.9253 16.1169 14.209 15.6719C14.7794 13.8612 13.3256 11.9328 11.4309 11.9626C9.53607 11.9341 8.08509 13.8612 8.65273 15.6719C6.87306 16.1271 5.81251 18.2521 6.57302 19.9735C5.59137 20.6461 5.00029 21.7493 5.00029 22.9625C4.96149 26.0743 8.81688 27.7661 11.0713 25.6501V31.6589H7.39812C6.73205 31.6602 6.70748 32.6845 7.39812 32.6936C13.7874 32.6897 26.1662 32.6975 32.5541 32.6936C32.84 32.6936 33.0715 32.4621 33.0715 32.1762C33.0715 31.8904 32.84 31.6589 32.5541 31.6589H28.9352V25.6511C29.5884 26.2447 30.4497 26.5965 31.3758 26.5965L31.3798 26.5988ZM8.63719 25.5629C5.91465 25.5551 5.04177 21.8456 7.49 20.6391C7.76031 20.5123 7.86248 20.1489 7.69823 19.9005C6.8084 18.558 7.80558 16.6322 9.41969 16.5934C9.79734 16.5869 10.0405 16.1304 9.83744 15.8122C9.07693 14.6171 10.0263 12.9694 11.4334 13.0017C12.8393 12.9707 13.7912 14.6158 13.0294 15.8122C12.8264 16.1317 13.0708 16.5856 13.4472 16.5934C15.0186 16.6348 16.021 18.4649 15.2243 19.8113C15.0678 20.0739 15.1997 20.4438 15.4881 20.5472C18.1434 21.5845 17.3984 25.5485 14.5492 25.5641C13.4511 25.5641 12.4811 24.8747 12.1099 23.8439V22.8765L13.8378 20.9028C14.2814 20.3919 13.508 19.7142 13.0592 20.2212L12.1086 21.3063V18.0083C12.0969 17.3292 11.0855 17.328 11.0739 18.0083V19.4749L9.83614 18.47C9.31105 18.0458 8.66047 18.8451 9.18427 19.2732L11.0739 20.8071V23.8426C10.7027 24.8734 9.73393 25.5628 8.63457 25.5628L8.63719 25.5629Z" fill="#FD1716"/>
<path d="M24.4099 11.3275C27.2708 11.2369 27.2695 7.09039 24.4099 7C21.5502 7.09054 21.5515 11.2384 24.4099 11.3275ZM24.4099 8.03459C25.8998 8.07339 25.8985 10.254 24.4099 10.2928C22.9212 10.254 22.9212 8.07339 24.4099 8.03459Z" fill="#FD1716"/>
</svg>
