<svg width="40" height="40" viewBox="0 0 40 40" fill="none" xmlns="http://www.w3.org/2000/svg">
<path fill-rule="evenodd" clip-rule="evenodd" d="M5.68675 15.6653V16.0974C5.68675 16.335 5.87997 16.5296 6.11891 16.5296H18.0363C18.2739 16.5296 18.4685 16.3364 18.4685 16.0974V15.6653H5.68675ZM18.0363 17.2163H6.11891C5.50265 17.2163 5 16.715 5 16.0974V15.3219C5 15.1326 5.15406 14.9785 5.34336 14.9785H18.8119C19.0012 14.9785 19.1553 15.1313 19.1553 15.3219V16.0974C19.1553 16.715 18.6526 17.2163 18.0363 17.2163Z" fill="#FD1716"/>
<path fill-rule="evenodd" clip-rule="evenodd" d="M6.30414 14.9785H17.8509V7.42818C17.8509 7.01951 17.5179 6.68658 17.1093 6.68658H7.04453C6.63586 6.68658 6.30293 7.01951 6.30293 7.42818V14.9785H6.30414ZM18.1941 15.6652H5.96054C5.77123 15.6652 5.61719 15.5125 5.61719 15.3219V7.42831C5.61719 6.64102 6.25825 6 7.0455 6H17.1102C17.8975 6 18.5386 6.64106 18.5386 7.42831V15.3219C18.5386 15.5125 18.3845 15.6652 18.1952 15.6652H18.1941Z" fill="#FD1716"/>
<path fill-rule="evenodd" clip-rule="evenodd" d="M7.77512 13.5072H16.3789V8.15947H7.77512V13.5072ZM16.7225 14.1939H7.4332C7.24258 14.1939 7.08984 14.0399 7.08984 13.8506V7.81601C7.08984 7.6267 7.2426 7.47266 7.4332 7.47266H16.7225C16.9118 7.47266 17.0659 7.62672 17.0659 7.81601V13.8506C17.0659 14.0399 16.9118 14.1939 16.7225 14.1939Z" fill="#FD1716"/>
<path fill-rule="evenodd" clip-rule="evenodd" d="M21.5305 15.6653V16.0974C21.5305 16.335 21.7237 16.5296 21.9627 16.5296H33.8801C34.1177 16.5296 34.3122 16.3364 34.3122 16.0974V15.6653H21.5305ZM33.8801 17.2163H21.9627C21.3451 17.2163 20.8438 16.715 20.8438 16.0974V15.3219C20.8438 15.1326 20.9978 14.9785 21.1871 14.9785H34.6557C34.8463 14.9785 34.999 15.1313 34.999 15.3219V16.0974C34.999 16.715 34.4976 17.2163 33.8801 17.2163Z" fill="#FD1716"/>
<path fill-rule="evenodd" clip-rule="evenodd" d="M22.1479 14.9785H33.6946V7.42818C33.6946 7.01951 33.3617 6.68658 32.953 6.68658H22.8896C22.4809 6.68658 22.148 7.01951 22.148 7.42818L22.1479 14.9785ZM34.0379 15.6652H21.8043C21.615 15.6652 21.4609 15.5125 21.4609 15.3219V7.42831C21.4609 6.64102 22.102 6 22.8892 6H32.9527C33.7399 6 34.381 6.64106 34.381 7.42831V15.3219C34.381 15.5125 34.2272 15.6652 34.0379 15.6652Z" fill="#FD1716"/>
<path fill-rule="evenodd" clip-rule="evenodd" d="M23.6202 13.5072H32.2227V8.15947H23.6202V13.5072ZM32.5663 14.1939H23.277C23.0876 14.1939 22.9336 14.0399 22.9336 13.8506V7.81601C22.9336 7.6267 23.0877 7.47266 23.277 7.47266H32.5663C32.7556 7.47266 32.9096 7.62672 32.9096 7.81601V13.8506C32.9096 14.0399 32.7556 14.1939 32.5663 14.1939Z" fill="#FD1716"/>
<path fill-rule="evenodd" clip-rule="evenodd" d="M19.1995 33.5351H20.8002L21.2924 31.5571C21.3199 31.4448 21.4021 31.3547 21.5118 31.3155C21.6698 31.2607 21.8277 31.1941 21.9805 31.121C22.0849 31.0701 22.2077 31.0766 22.3069 31.1354L24.0538 32.1864L25.1857 31.0544L24.1347 29.3075C24.0747 29.2083 24.0695 29.0856 24.1191 28.9811C24.1922 28.8297 24.2575 28.6717 24.3136 28.5124C24.3515 28.4028 24.4429 28.3205 24.5551 28.2918L26.5331 27.8009V26.2002L24.5551 25.7093C24.4429 25.6818 24.3528 25.5983 24.3136 25.4886C24.2575 25.3293 24.1922 25.1714 24.1191 25.0199C24.0694 24.9155 24.0747 24.7927 24.1347 24.6935L25.1857 22.9479L24.0538 21.816L22.3069 22.867C22.2077 22.927 22.0849 22.9323 21.9805 22.8813C21.829 22.8082 21.6697 22.7429 21.5118 22.6868C21.4021 22.6489 21.3199 22.5575 21.2924 22.4453L20.8002 20.466H19.1995L18.7086 22.4453C18.6812 22.5575 18.5977 22.6476 18.488 22.6868C18.33 22.7416 18.172 22.8082 18.0193 22.8813C17.9161 22.9323 17.7921 22.9257 17.6929 22.867L15.946 21.816L14.814 22.9479L15.865 24.6948C15.9251 24.7941 15.9303 24.9168 15.8794 25.0212C15.8063 25.1727 15.741 25.3307 15.6849 25.4899C15.647 25.5996 15.5556 25.6818 15.4433 25.7106L13.4653 26.2015V27.8022L15.4433 28.2944C15.5556 28.3218 15.6457 28.4054 15.6849 28.5137C15.741 28.6717 15.8063 28.8297 15.8794 28.9824C15.929 29.0869 15.9238 29.2096 15.8637 29.3088L14.8127 31.0557L15.9447 32.1877L17.6916 31.1367C17.7908 31.0766 17.9135 31.0714 18.018 31.1223C18.1694 31.1954 18.3274 31.2607 18.4867 31.3168C18.5963 31.3547 18.6786 31.4461 18.7073 31.5584L19.1982 33.5364L19.1995 33.5351ZM21.0692 34.2218H18.9319C18.774 34.2218 18.6369 34.1134 18.599 33.9607L18.0859 31.8978C18.0206 31.8717 17.9566 31.8456 17.8927 31.8169L16.0714 32.9123C15.9369 32.9945 15.7632 32.9723 15.651 32.8614L14.1391 31.3495C14.0281 31.2385 14.0059 31.0649 14.0882 30.9291L15.1849 29.1078C15.1574 29.0438 15.13 28.9798 15.1052 28.9146L13.0424 28.4015C12.8896 28.3636 12.7812 28.2265 12.7812 28.0685V25.9313C12.7812 25.7733 12.8883 25.6349 13.0424 25.5984L15.1052 25.0852C15.13 25.02 15.1574 24.956 15.1849 24.892L14.0895 23.0707C14.0072 22.9349 14.0294 22.7626 14.1404 22.6503L15.6523 21.1384C15.7632 21.0275 15.9369 21.0053 16.0727 21.0875L17.894 22.1829C17.9579 22.1555 18.0219 22.1281 18.0859 22.1033L18.599 20.0404C18.6369 19.8877 18.774 19.7793 18.9319 19.7793H21.0692C21.2272 19.7793 21.3642 19.8877 21.4021 20.0404L21.9139 22.1033C21.9792 22.1281 22.0431 22.1555 22.1071 22.1829L23.9284 21.0862C24.0642 21.004 24.2365 21.0262 24.3488 21.1371L25.8607 22.649C25.9717 22.76 25.9938 22.9336 25.9129 23.0694L24.8162 24.8907C24.8436 24.9547 24.871 25.0187 24.8959 25.0839L26.9587 25.597C27.1115 25.6349 27.2198 25.772 27.2198 25.93V28.0672C27.2198 28.2252 27.1128 28.3636 26.9587 28.4001L24.8959 28.9133C24.8697 28.9785 24.8436 29.0425 24.8162 29.1065L25.9129 30.9278C25.9938 31.0636 25.973 31.2359 25.8607 31.3482L24.3501 32.8601C24.2378 32.971 24.0655 32.9932 23.9297 32.911L22.1084 31.8143C22.0444 31.8417 21.9805 31.8691 21.9152 31.8939L21.4034 33.9568C21.3655 34.1095 21.2272 34.2179 21.0705 34.2179L21.0692 34.2218Z" fill="#FD1716"/>
<path fill-rule="evenodd" clip-rule="evenodd" d="M20.8063 24.3413C20.7776 24.3413 20.7463 24.3374 20.7162 24.3296C20.2488 24.2042 19.7514 24.2042 19.284 24.3296C19.1012 24.3779 18.9119 24.2695 18.8636 24.0867C18.814 23.9026 18.9223 23.7146 19.1064 23.6663C19.6887 23.5097 20.3115 23.5097 20.8951 23.6663C21.0779 23.7146 21.1863 23.904 21.1379 24.0867C21.0962 24.2395 20.9578 24.3413 20.8063 24.3413Z" fill="#FD1716"/>
<path fill-rule="evenodd" clip-rule="evenodd" d="M17.3076 25.7895C17.2489 25.7895 17.1901 25.7751 17.1366 25.7438C16.9721 25.6485 16.916 25.4396 17.0113 25.2751C17.1627 25.014 17.3468 24.7724 17.5609 24.5596C17.775 24.3468 18.0153 24.1614 18.2764 24.0113C18.4409 23.916 18.6498 23.9721 18.7451 24.1366C18.8404 24.3011 18.7842 24.51 18.6197 24.6053C18.4108 24.7267 18.2176 24.8743 18.0466 25.0453C17.8756 25.2163 17.728 25.4095 17.6066 25.6184C17.5426 25.7281 17.4277 25.7908 17.3089 25.7908L17.3076 25.7895Z" fill="#FD1716"/>
<path fill-rule="evenodd" clip-rule="evenodd" d="M16.996 28.1517C16.8446 28.1517 16.7049 28.0498 16.6644 27.8971C16.586 27.6059 16.5469 27.3043 16.5469 27.0027C16.5469 26.7011 16.586 26.4008 16.6644 26.1084C16.714 25.9243 16.902 25.8159 17.0848 25.8655C17.2676 25.9138 17.3759 26.1032 17.3276 26.2859C17.2649 26.5196 17.2336 26.7612 17.2336 27.0027C17.2336 27.2442 17.2649 27.4858 17.3276 27.7195C17.3772 27.9036 17.2676 28.0916 17.0848 28.1399C17.0547 28.1477 17.0247 28.1517 16.996 28.1517Z" fill="#FD1716"/>
<path fill-rule="evenodd" clip-rule="evenodd" d="M18.4435 30.0408C18.3848 30.0408 18.326 30.0264 18.2725 29.9951C18.01 29.8436 17.7698 29.6595 17.557 29.4454C17.3442 29.2326 17.1588 28.9911 17.0074 28.73C16.9121 28.5655 16.9682 28.3553 17.1327 28.2613C17.2972 28.166 17.5074 28.2221 17.6014 28.3866C17.7215 28.5955 17.8703 28.7887 18.0414 28.9597C18.2124 29.1308 18.4056 29.2783 18.6145 29.3997C18.779 29.495 18.8352 29.7039 18.7399 29.8684C18.6772 29.9781 18.561 30.0408 18.4422 30.0408H18.4435Z" fill="#FD1716"/>
<path fill-rule="evenodd" clip-rule="evenodd" d="M20.0007 30.4568C19.6991 30.4568 19.3988 30.4177 19.1063 30.3393C18.9236 30.291 18.8139 30.1017 18.8635 29.9189C18.9131 29.7348 19.1011 29.6265 19.2839 29.6761C19.7513 29.8014 20.2487 29.8014 20.7175 29.6761C20.9002 29.6278 21.0896 29.7361 21.1379 29.9189C21.1875 30.1017 21.0778 30.291 20.895 30.3393C20.6026 30.4177 20.3023 30.4568 20.0007 30.4568Z" fill="#FD1716"/>
<path fill-rule="evenodd" clip-rule="evenodd" d="M21.555 30.0408C21.4362 30.0408 21.3213 29.9794 21.2574 29.8684C21.1621 29.7039 21.2182 29.495 21.3827 29.3997C21.5916 29.2783 21.7848 29.1308 21.9558 28.9597C22.1269 28.7887 22.2744 28.5955 22.3958 28.3866C22.4911 28.2221 22.7 28.166 22.8645 28.2613C23.029 28.3566 23.0852 28.5655 22.9899 28.73C22.8397 28.9911 22.6543 29.2326 22.4415 29.4454C22.2274 29.6582 21.9872 29.8436 21.7261 29.9938C21.6725 30.0251 21.6125 30.0395 21.5537 30.0395L21.555 30.0408Z" fill="#FD1716"/>
<path fill-rule="evenodd" clip-rule="evenodd" d="M23.0038 28.1511C22.9751 28.1511 22.9451 28.1472 22.915 28.1393C22.7309 28.0897 22.6226 27.9017 22.6722 27.7189C22.7349 27.4852 22.7675 27.2437 22.7675 27.0022C22.7675 26.7606 22.7349 26.5191 22.6722 26.2854C22.6239 26.1013 22.7322 25.9133 22.915 25.865C23.0978 25.8167 23.2871 25.9251 23.3354 26.1078C23.4138 26.399 23.4529 26.7006 23.4529 27.0022C23.4529 27.3038 23.4125 27.6041 23.3354 27.8965C23.2949 28.0506 23.1553 28.1524 23.0038 28.1511Z" fill="#FD1716"/>
<path fill-rule="evenodd" clip-rule="evenodd" d="M22.6935 25.7888C22.5747 25.7888 22.4585 25.7275 22.3958 25.6165C22.2744 25.4076 22.1269 25.2144 21.9558 25.0433C21.7848 24.8723 21.5916 24.7248 21.3827 24.6033C21.2182 24.508 21.1621 24.2991 21.2574 24.1347C21.3527 23.9701 21.5629 23.914 21.7261 24.0093C21.9872 24.1608 22.2287 24.3449 22.4415 24.559C22.6556 24.7718 22.8397 25.0133 22.9899 25.2744C23.0852 25.4389 23.029 25.6491 22.8645 25.7431C22.811 25.7744 22.7509 25.7888 22.6922 25.7888H22.6935Z" fill="#FD1716"/>
<path fill-rule="evenodd" clip-rule="evenodd" d="M13.124 27.3449H10.9176C10.7283 27.3449 10.5742 27.1909 10.5742 27.0016C10.5742 26.8122 10.7283 26.6582 10.9176 26.6582H13.124C13.3134 26.6582 13.4674 26.8123 13.4674 27.0016C13.4674 27.1909 13.3133 27.3449 13.124 27.3449Z" fill="#FD1716"/>
<path fill-rule="evenodd" clip-rule="evenodd" d="M9.94234 26.3703C9.59504 26.3703 9.31175 26.6537 9.31175 27.0009C9.31175 27.3482 9.59506 27.6315 9.94234 27.6315C10.2896 27.6315 10.5729 27.3482 10.5729 27.0009C10.5729 26.6536 10.2909 26.3703 9.94234 26.3703ZM9.94234 28.3183C9.21642 28.3183 8.625 27.7269 8.625 27.0009C8.625 26.275 9.21642 25.6836 9.94234 25.6836C10.6683 25.6836 11.2597 26.275 11.2597 27.0009C11.2597 27.7269 10.6683 28.3183 9.94234 28.3183Z" fill="#FD1716"/>
<path fill-rule="evenodd" clip-rule="evenodd" d="M29.0811 27.3449H26.8746C26.6853 27.3449 26.5312 27.1909 26.5312 27.0016C26.5312 26.8122 26.6853 26.6582 26.8746 26.6582H29.0811C29.2717 26.6582 29.4244 26.8123 29.4244 27.0016C29.4244 27.1909 29.2717 27.3449 29.0811 27.3449Z" fill="#FD1716"/>
<path fill-rule="evenodd" clip-rule="evenodd" d="M30.0556 26.3703C29.7083 26.3703 29.425 26.6537 29.425 27.0009C29.425 27.3482 29.7083 27.6315 30.0556 27.6315C30.4029 27.6315 30.6862 27.3482 30.6862 27.0009C30.6862 26.6536 30.4042 26.3703 30.0556 26.3703ZM30.0556 28.3183C29.3284 28.3183 28.7383 27.7269 28.7383 27.0009C28.7383 26.275 29.3297 25.6836 30.0556 25.6836C30.7815 25.6836 31.373 26.275 31.373 27.0009C31.373 27.7269 30.7815 28.3183 30.0556 28.3183Z" fill="#FD1716"/>
<path fill-rule="evenodd" clip-rule="evenodd" d="M14.3819 23.2394H12.1754C11.9861 23.2394 11.832 23.0854 11.832 22.8961C11.832 22.7068 11.9861 22.5527 12.1754 22.5527H14.3819C14.5725 22.5527 14.7252 22.7068 14.7252 22.8961C14.7252 23.0854 14.5725 23.2394 14.3819 23.2394Z" fill="#FD1716"/>
<path fill-rule="evenodd" clip-rule="evenodd" d="M11.2002 22.2649C10.8529 22.2649 10.5696 22.5482 10.5696 22.8955C10.5696 23.2428 10.8516 23.5261 11.2002 23.5261C11.5475 23.5261 11.8308 23.2428 11.8308 22.8955C11.8308 22.5482 11.5474 22.2649 11.2002 22.2649ZM11.2002 24.2128C10.4742 24.2128 9.88281 23.6214 9.88281 22.8955C9.88281 22.1695 10.4742 21.5781 11.2002 21.5781C11.9261 21.5781 12.5175 22.1695 12.5175 22.8955C12.5175 23.6214 11.9261 24.2128 11.2002 24.2128Z" fill="#FD1716"/>
<path fill-rule="evenodd" clip-rule="evenodd" d="M27.8272 23.2394H25.6207C25.4314 23.2394 25.2773 23.0854 25.2773 22.8961C25.2773 22.7068 25.4314 22.5527 25.6207 22.5527H27.8285C28.0178 22.5527 28.1718 22.7068 28.1718 22.8961C28.1718 23.0854 28.0178 23.2394 27.8285 23.2394H27.8272Z" fill="#FD1716"/>
<path fill-rule="evenodd" clip-rule="evenodd" d="M28.7978 22.2649C28.4505 22.2649 28.1672 22.5482 28.1672 22.8955C28.1672 23.2428 28.4492 23.5261 28.7978 23.5261C29.1451 23.5261 29.4284 23.2428 29.4284 22.8955C29.4284 22.5482 29.1464 22.2649 28.7978 22.2649ZM28.7978 24.2128C28.0719 24.2128 27.4805 23.6214 27.4805 22.8955C27.4805 22.1695 28.0719 21.5781 28.7978 21.5781C29.5237 21.5781 30.1152 22.1695 30.1152 22.8955C30.1152 23.6214 29.5237 24.2128 28.7978 24.2128Z" fill="#FD1716"/>
<path fill-rule="evenodd" clip-rule="evenodd" d="M27.8272 31.4504H25.6207C25.4314 31.4504 25.2773 31.2963 25.2773 31.107C25.2773 30.9177 25.4314 30.7637 25.6207 30.7637H27.8285C28.0178 30.7637 28.1718 30.9177 28.1718 31.107C28.1718 31.2963 28.0178 31.4504 27.8285 31.4504H27.8272Z" fill="#FD1716"/>
<path fill-rule="evenodd" clip-rule="evenodd" d="M28.7978 30.4778C28.4505 30.4778 28.1672 30.7611 28.1672 31.1084C28.1672 31.4557 28.4492 31.739 28.7978 31.739C29.1451 31.739 29.4284 31.4569 29.4284 31.1084C29.4284 30.7611 29.1464 30.4778 28.7978 30.4778ZM28.7978 32.4257C28.0719 32.4257 27.4805 31.8343 27.4805 31.1084C27.4805 30.3824 28.0719 29.791 28.7978 29.791C29.5237 29.791 30.1152 30.3824 30.1152 31.1084C30.1152 31.8343 29.5237 32.4257 28.7978 32.4257Z" fill="#FD1716"/>
<path fill-rule="evenodd" clip-rule="evenodd" d="M14.3819 31.4504H12.1754C11.9861 31.4504 11.832 31.2963 11.832 31.107C11.832 30.9177 11.9861 30.7637 12.1754 30.7637H14.3819C14.5725 30.7637 14.7252 30.9177 14.7252 31.107C14.7252 31.2963 14.5725 31.4504 14.3819 31.4504Z" fill="#FD1716"/>
<path fill-rule="evenodd" clip-rule="evenodd" d="M11.2002 30.4778C10.8529 30.4778 10.5696 30.7611 10.5696 31.1084C10.5696 31.4557 10.8516 31.739 11.2002 31.739C11.5475 31.739 11.8308 31.4569 11.8308 31.1084C11.8308 30.7611 11.5474 30.4778 11.2002 30.4778ZM11.2002 32.4257C10.4742 32.4257 9.88281 31.8343 9.88281 31.1084C9.88281 30.3824 10.4742 29.791 11.2002 29.791C11.9261 29.791 12.5175 30.3824 12.5175 31.1084C12.5175 31.8343 11.9261 32.4257 11.2002 32.4257Z" fill="#FD1716"/>
<path fill-rule="evenodd" clip-rule="evenodd" d="M19.9999 26.2629C19.5926 26.2629 19.261 26.5945 19.261 27.0018C19.261 27.4092 19.5926 27.7408 19.9999 27.7408C20.4073 27.7408 20.7389 27.4092 20.7389 27.0018C20.7389 26.5945 20.4073 26.2629 19.9999 26.2629ZM19.9999 28.4276C19.2139 28.4276 18.5742 27.7878 18.5742 27.0019C18.5742 26.2159 19.214 25.5762 19.9999 25.5762C20.7872 25.5762 21.4256 26.2159 21.4256 27.0019C21.4256 27.7879 20.7859 28.4276 19.9999 28.4276Z" fill="#FD1716"/>
<path fill-rule="evenodd" clip-rule="evenodd" d="M15.8944 21.7279C15.7965 21.7279 15.6998 21.6874 15.6306 21.6065L11.8157 17.0957C11.693 16.9507 11.7113 16.734 11.8562 16.6126C12.0011 16.4899 12.2178 16.5081 12.3393 16.6531L16.1555 21.1639C16.2782 21.3088 16.26 21.5255 16.115 21.6482C16.0511 21.7031 15.9714 21.7292 15.8944 21.7292L15.8944 21.7279Z" fill="#FD1716"/>
<path fill-rule="evenodd" clip-rule="evenodd" d="M24.1055 21.7272C24.0271 21.7272 23.9475 21.6998 23.8835 21.6463C23.7386 21.5236 23.7203 21.3068 23.8431 21.1619L27.6593 16.6511C27.7821 16.5062 27.9988 16.4879 28.1437 16.6106C28.2886 16.7334 28.3069 16.9488 28.1842 17.0937L24.3679 21.6045C24.3 21.6855 24.2021 21.7259 24.1055 21.7259L24.1055 21.7272Z" fill="#FD1716"/>
</svg>
