<svg width="40" height="40" viewBox="0 0 40 40" fill="none" xmlns="http://www.w3.org/2000/svg">
<path fill-rule="evenodd" clip-rule="evenodd" d="M18.5389 20.2526C18.4115 20.114 18.4164 19.9 18.5488 19.7677C18.6824 19.634 18.8952 19.6291 19.035 19.7553L19.5929 20.3132L20.9674 18.94C21.0329 18.8707 21.1232 18.8312 21.2185 18.8299C21.3138 18.8287 21.4041 18.8658 21.4721 18.9338C21.5389 19.0006 21.576 19.0922 21.5748 19.1862C21.5736 19.2815 21.534 19.3718 21.4647 19.4373L19.8428 21.0592V21.058C19.7772 21.1248 19.6882 21.1619 19.5941 21.1619C19.5014 21.1619 19.4123 21.1248 19.3455 21.058L18.5389 20.2526ZM20.0012 16.8677C18.5067 16.8677 17.2214 17.9229 16.9294 19.3877C16.6387 20.8537 17.4218 22.3209 18.8024 22.8923C20.1831 23.4639 21.774 22.9814 22.6041 21.7393C23.4342 20.496 23.271 18.8408 22.2157 17.7843C21.628 17.1967 20.8313 16.8664 20.0012 16.8677ZM21.7183 18.2817C20.8981 17.4627 19.6152 17.3365 18.6515 17.9798C17.6877 18.6231 17.3141 19.8578 17.757 20.9279C18.1999 21.998 19.3381 22.6067 20.4738 22.3803C21.6107 22.1539 22.4284 21.1567 22.4284 19.9988C22.4297 19.3543 22.1736 18.7369 21.7183 18.2817ZM13.3814 23.2289C13.4779 23.4256 13.5818 23.6174 13.6956 23.8054L12.868 24.9596L12.8692 24.9584C12.6923 25.2058 12.7208 25.5436 12.936 25.7563L14.2437 27.0664C14.4564 27.2817 14.7954 27.3102 15.0416 27.1333L16.1958 26.3056C16.3826 26.4194 16.5744 26.5233 16.7723 26.6198L16.7711 30.4399H15.7851C15.6094 29.7768 14.9674 29.3476 14.2869 29.4366C13.6065 29.5257 13.098 30.1059 13.098 30.7925C13.098 31.4779 13.6065 32.0581 14.2869 32.1471C14.9673 32.2362 15.6094 31.8069 15.7851 31.1438H16.9133C17.0618 31.1438 17.2053 31.0844 17.3105 30.9793C17.4156 30.8741 17.4762 30.7318 17.4775 30.5834V26.9179C17.7261 27.0094 17.9797 27.0861 18.2371 27.1492L18.4672 28.5496C18.5166 28.8478 18.774 29.0655 19.0758 29.0667H19.6499V32.3104C18.9806 32.4824 18.5463 33.1257 18.6354 33.8111C18.7245 34.4952 19.3109 35.0061 20.0012 34.9999C20.6878 35.0012 21.2693 34.4915 21.3584 33.8111C21.4474 33.1294 21.0169 32.4886 20.3526 32.3129V29.0667H20.9266C21.2297 29.0667 21.4882 28.8465 21.5365 28.5471L21.7666 27.1467L21.7678 27.1479C22.0252 27.0836 22.2788 27.0069 22.5274 26.9166V30.5821C22.5287 30.7305 22.5868 30.8728 22.692 30.978L22.6944 30.9804V30.9792C22.7996 31.0844 22.9406 31.1425 23.0891 31.1437H24.2173C24.393 31.8069 25.0351 32.2361 25.7155 32.1471C26.3959 32.058 26.9044 31.4778 26.9044 30.7924C26.9044 30.1058 26.3959 29.5256 25.7155 29.4366C25.0351 29.3475 24.393 29.7768 24.2173 30.4399H23.2313V26.6185C23.428 26.522 23.6198 26.4169 23.8078 26.3043L24.9608 27.1332C25.207 27.3101 25.546 27.2816 25.7588 27.0664L27.0689 25.7562C27.2841 25.5435 27.3126 25.2057 27.1357 24.9583L26.308 23.8041C26.4219 23.6173 26.5258 23.4255 26.6223 23.2276L30.4424 23.2288V24.2148C29.7792 24.3905 29.35 25.0325 29.439 25.713C29.5281 26.3934 30.1083 26.9019 30.7949 26.9019C31.4803 26.9019 32.0605 26.3934 32.1496 25.713C32.2386 25.0326 31.8094 24.3905 31.1462 24.2148V23.0866C31.1462 22.9381 31.0869 22.7946 30.9817 22.6894C30.8765 22.5843 30.7343 22.5249 30.5858 22.5249H26.9203C27.0118 22.275 27.0885 22.0214 27.1516 21.7641L28.5521 21.534C28.8502 21.4845 29.0692 21.2272 29.0692 20.9241V20.35H32.3129C32.4848 21.0193 33.1281 21.4536 33.8135 21.3645C34.4976 21.2754 35.0086 20.689 35.0024 19.9987C35.0036 19.3121 34.4939 18.7306 33.8135 18.6416C33.1319 18.5525 32.491 18.983 32.3153 19.6473H29.0691V19.0733C29.0691 18.7702 28.8489 18.5117 28.5495 18.4634L27.1491 18.2321C27.086 17.9747 27.0093 17.7211 26.9178 17.4725H30.5846C30.733 17.4712 30.8753 17.4119 30.9804 17.3079L30.9829 17.3055H30.9817C31.0868 17.2003 31.145 17.058 31.1462 16.9108V15.7826C31.8093 15.6069 32.2386 14.9648 32.1495 14.2844C32.0605 13.604 31.4802 13.0955 30.7949 13.0955C30.1083 13.0955 29.5281 13.604 29.439 14.2844C29.3499 14.9648 29.7792 15.6069 30.4423 15.7826V16.7686H26.621C26.5245 16.5719 26.4193 16.3801 26.3067 16.1921L27.1356 15.0391C27.3125 14.7916 27.2841 14.4539 27.0688 14.2411L25.7587 12.931C25.5459 12.7158 25.207 12.6873 24.9608 12.8642L23.8065 13.6919C23.6197 13.578 23.428 13.4741 23.23 13.3776L23.2313 9.55754H24.2173C24.393 10.2207 25.035 10.6499 25.7155 10.5609C26.3959 10.4718 26.9043 9.89157 26.9043 9.20499C26.9043 8.51961 26.3959 7.93941 25.7155 7.85035C25.035 7.76128 24.393 8.19055 24.2173 8.85367H23.089C22.9406 8.85367 22.7971 8.91305 22.6919 9.01821C22.5868 9.12336 22.5261 9.26563 22.5249 9.41409V13.0796C22.2762 12.9881 22.0226 12.9114 21.7653 12.8483L21.5352 11.4478C21.4857 11.1497 21.2284 10.932 20.9265 10.9307H20.3525V7.68705C21.0156 7.51137 21.4449 6.86932 21.3571 6.18888C21.268 5.50847 20.6878 5 20.0012 5C19.3146 5 18.7344 5.50847 18.6453 6.18888C18.5575 6.86928 18.9868 7.51137 19.6499 7.68705V10.9307H19.0758C18.7727 10.9307 18.5142 11.1509 18.4659 11.4503L18.2358 12.8507L18.2346 12.8495C17.9773 12.9138 17.7237 12.9918 17.475 13.0833V9.41526C17.4738 9.26681 17.4156 9.12454 17.3105 9.01938L17.308 9.01691V9.01814C17.2028 8.91299 17.0606 8.85484 16.9134 8.85361H15.7851C15.6094 8.19049 14.9674 7.76123 14.2869 7.85029C13.6065 7.93936 13.098 8.51958 13.098 9.20493C13.098 9.89154 13.6065 10.4717 14.2869 10.5608C14.9673 10.6499 15.6094 10.2206 15.7851 9.55748H16.7711V13.3788C16.5744 13.4753 16.3826 13.5792 16.1946 13.6931L15.0404 12.8654L15.0416 12.8667C14.7954 12.6898 14.4564 12.7182 14.2437 12.9335L12.9336 14.2411C12.7183 14.4539 12.6898 14.7916 12.8667 15.039L13.6944 16.1933C13.5806 16.3801 13.4767 16.5718 13.3802 16.7698L9.56007 16.7685V15.7838C10.2232 15.6069 10.6525 14.966 10.5634 14.2856C10.4743 13.604 9.8941 13.0955 9.20752 13.0955C8.52214 13.0955 7.94194 13.604 7.85288 14.2856C7.76381 14.966 8.19308 15.6069 8.8562 15.7838V16.9108C8.8562 17.0592 8.91558 17.2028 9.02074 17.3079C9.12589 17.4131 9.26816 17.4724 9.41662 17.4724H13.0822C12.9906 17.7223 12.9127 17.9759 12.8483 18.2333L11.4504 18.4634C11.1522 18.5129 10.9333 18.7702 10.9333 19.0733V19.6473H7.68957C7.51761 18.978 6.87431 18.5438 6.18893 18.6329C5.50479 18.7219 4.99388 19.3083 5.00006 19.9987C4.99882 20.6853 5.50852 21.2667 6.18893 21.3558C6.87057 21.4449 7.51143 21.0144 7.6871 20.35H10.9333V20.924C10.9333 21.2271 11.1535 21.4857 11.4529 21.5339L12.8533 21.7653C12.9164 22.0226 12.9944 22.2762 13.0859 22.5249H9.41785C9.26939 22.5261 9.12712 22.5843 9.02197 22.6894L9.01949 22.6919H9.02073C8.91558 22.797 8.85743 22.9393 8.85619 23.0865V24.2148C8.19308 24.3905 7.76382 25.0325 7.85287 25.713C7.94195 26.3934 8.52217 26.9018 9.20751 26.9018C9.89413 26.9018 10.4743 26.3934 10.5634 25.713C10.6525 25.0325 10.2232 24.3905 9.56007 24.2148V23.2288L13.3814 23.2289ZM8.5431 25.5362C8.54434 25.2195 8.76826 24.9473 9.07754 24.8867C9.38806 24.8248 9.69856 24.9906 9.81983 25.2838C9.94107 25.5758 9.83839 25.9135 9.57612 26.0892C9.31261 26.2648 8.96127 26.2302 8.73859 26.0063C8.61364 25.8813 8.5431 25.7131 8.5431 25.5362ZM8.73856 13.9913C8.96248 13.7674 9.31383 13.7328 9.57732 13.9085C9.84083 14.0841 9.9435 14.4231 9.82228 14.7163C9.70104 15.0083 9.38928 15.1753 9.07875 15.1134C8.76699 15.0516 8.54308 14.7782 8.54308 14.4615C8.54308 14.2845 8.61362 14.1163 8.73856 13.9913ZM5.89687 19.5286C6.12079 19.3072 6.46966 19.275 6.73192 19.4507C6.99296 19.6263 7.09316 19.9628 6.97193 20.2536C6.85069 20.5443 6.5414 20.7088 6.23214 20.647C5.92409 20.5851 5.7014 20.3142 5.7014 19.9987C5.7014 19.8231 5.77068 19.6536 5.89563 19.5286L5.89687 19.5286ZM25.5389 31.457C25.2222 31.4557 24.95 31.2318 24.8894 30.9225C24.8275 30.612 24.9933 30.3015 25.2865 30.1802C25.5784 30.059 25.9162 30.1617 26.0919 30.4239C26.2675 30.6874 26.2329 31.0388 26.009 31.2615C25.884 31.3864 25.7158 31.457 25.5389 31.457ZM13.994 31.2615C13.7701 31.0376 13.7355 30.6862 13.9112 30.4227C14.0868 30.1592 14.4258 30.0566 14.7178 30.1778C15.011 30.299 15.178 30.6095 15.1161 30.9213C15.0543 31.2318 14.7809 31.457 14.4642 31.457C14.2885 31.457 14.119 31.3864 13.994 31.2615ZM19.5313 34.1032C19.3111 33.878 19.2789 33.5292 19.4558 33.2681C19.6327 33.0083 19.9692 32.9081 20.2587 33.0306C20.5495 33.1531 20.7128 33.4624 20.6509 33.7716C20.5878 34.0797 20.3157 34.3011 20.0014 34.2999C19.8258 34.3011 19.6563 34.2306 19.5313 34.1057L19.5313 34.1032ZM31.4597 14.4612C31.4584 14.7779 31.2345 15.0501 30.9252 15.1107C30.6147 15.1725 30.3042 15.0068 30.1829 14.7136C30.0617 14.4216 30.1644 14.0839 30.4266 13.9082C30.6901 13.7325 31.0415 13.7672 31.2642 13.9911C31.3891 14.116 31.4597 14.2843 31.4597 14.4612ZM31.2642 26.006C31.0403 26.2299 30.6889 26.2658 30.4254 26.0889C30.1619 25.9132 30.0593 25.5755 30.1805 25.2823C30.3017 24.9891 30.6122 24.8221 30.924 24.8839C31.2345 24.9458 31.4597 25.2192 31.4597 25.5359C31.4597 25.7128 31.3891 25.881 31.2642 26.006ZM34.1046 20.4687H34.1059C33.8807 20.689 33.5319 20.7211 33.2708 20.5442C33.011 20.3673 32.9108 20.0308 33.0333 19.7413C33.1558 19.4506 33.4651 19.2873 33.7743 19.3491C34.0824 19.4122 34.3038 19.6844 34.3026 19.9986C34.3038 20.1743 34.2333 20.3438 34.1084 20.4687L34.1046 20.4687ZM14.4639 8.5404C14.7806 8.54164 15.0528 8.76556 15.1134 9.07484C15.1753 9.38536 15.0095 9.69586 14.7163 9.81713C14.4243 9.93837 14.0866 9.83568 13.9109 9.57341C13.7352 9.30991 13.7699 8.95856 13.9938 8.73589C14.1188 8.61094 14.287 8.5404 14.4639 8.5404ZM26.0087 8.73586C26.2339 8.95978 26.2698 9.31236 26.0929 9.57709C25.9159 9.84183 25.577 9.94577 25.2838 9.82328C24.9893 9.70204 24.8223 9.39028 24.8842 9.07728C24.946 8.76553 25.2207 8.54037 25.5386 8.54037C25.7143 8.54037 25.8838 8.61091 26.0087 8.73586ZM20.4715 5.89417C20.6954 6.11933 20.73 6.46943 20.5531 6.73293C20.3775 6.99644 20.0397 7.0991 19.7465 6.97788C19.4546 6.85664 19.2888 6.54488 19.3506 6.23435C19.4113 5.92384 19.6847 5.69992 20.0014 5.69992C20.177 5.69992 20.3465 5.76922 20.4715 5.89417ZM20.0014 14.5269C18.3003 14.5269 16.6956 15.3174 15.6603 16.6671C14.6236 18.0156 14.2747 19.7711 14.7139 21.4139C15.1543 23.0568 16.3333 24.4015 17.9056 25.0534C19.4768 25.7042 21.2621 25.5879 22.7354 24.7367C24.2075 23.8868 25.2022 22.3998 25.4237 20.7136C25.6463 19.0262 25.0711 17.3325 23.8686 16.13C22.8442 15.1019 21.4525 14.5257 20.0014 14.5269ZM23.3727 16.6275C22.3248 15.5797 20.8489 15.0787 19.3806 15.2717C17.9109 15.4646 16.6144 16.3307 15.8734 17.6135C15.1324 18.8977 15.0297 20.4527 15.5976 21.8222C16.1642 23.1917 17.3357 24.2185 18.7671 24.6033C20.1985 24.9867 21.7276 24.6824 22.903 23.7806C24.0795 22.8787 24.7686 21.4807 24.7686 19.9988C24.771 18.7344 24.2688 17.5208 23.3731 16.6275L23.3727 16.6275ZM21.1125 13.1859L20.8564 11.6333H19.1467L18.8894 13.1933C18.8658 13.3381 18.7545 13.4531 18.611 13.4816C17.8143 13.6511 17.0559 13.9653 16.373 14.4094C16.2518 14.4886 16.0947 14.4849 15.9772 14.4008L14.6905 13.4779L13.4819 14.6865L14.4035 15.9732H14.4048C14.4951 16.0981 14.4926 16.2688 14.3986 16.3913C13.9619 17.0692 13.6514 17.8227 13.4844 18.6119C13.4522 18.7592 13.331 18.8705 13.1813 18.8878L11.6373 19.1427V20.8524L13.1974 21.1097C13.3421 21.1332 13.4559 21.2445 13.4844 21.388C13.6551 22.1847 13.9693 22.9431 14.4135 23.626C14.4914 23.7472 14.4889 23.9044 14.4048 24.0219L13.4831 25.3085L14.6918 26.5172L15.9784 25.5955L15.9772 25.5943C16.1021 25.5039 16.2716 25.5064 16.3953 25.6004C17.0733 26.0384 17.8254 26.3477 18.616 26.5147C18.7632 26.5468 18.8745 26.6681 18.8918 26.8178L19.1467 28.3617H20.8564L21.1137 26.8017C21.1372 26.6582 21.2485 26.5431 21.3921 26.5147C22.1888 26.3452 22.9471 26.0297 23.63 25.5856C23.7512 25.5076 23.9084 25.5113 24.0259 25.5955L25.3125 26.5171L26.5212 25.3085L25.5995 24.0219H25.5983C25.5079 23.8969 25.5104 23.7274 25.6044 23.605C26.0411 22.9258 26.3517 22.1736 26.5187 21.3831C26.5496 21.2359 26.6721 21.1245 26.8218 21.1084L28.3657 20.8536V19.1439L26.8057 18.8866V18.8853C26.6609 18.8618 26.5471 18.7505 26.5187 18.607C26.3479 17.8103 26.0337 17.0519 25.5896 16.369C25.5116 16.2478 25.5141 16.0907 25.5982 15.9744L26.5199 14.6878L25.3113 13.4791L24.0246 14.402H24.0259C23.9009 14.4911 23.7314 14.4886 23.6077 14.3946C23.2725 14.1793 22.9186 13.9938 22.55 13.8416C22.1752 13.6857 21.7867 13.5645 21.3896 13.4804C21.2436 13.4507 21.1335 13.3319 21.1125 13.1859Z" fill="#FD1716"/>
</svg>
