<svg width="70" height="70" viewBox="0 0 70 70" fill="none" xmlns="http://www.w3.org/2000/svg">
<path d="M37.7405 10.3281H29.7527C29.3084 10.3281 28.9414 10.6952 28.9414 11.1395C28.9414 11.5838 29.3084 11.9508 29.7527 11.9508H37.7405C38.1848 11.9508 38.5518 11.5838 38.5518 11.1395C38.5518 10.6952 38.1848 10.3281 37.7405 10.3281Z" fill="#FD1716"/>
<path d="M60.7881 18.8074H53.0128V15.4945C53.0128 15.4848 53.0225 15.4752 53.0225 15.4655C53.0225 15.4558 53.0128 15.4462 53.0128 15.4365V11.4378C53.0128 8.44365 50.5788 6 47.5847 6H19.9222C16.928 6 14.494 8.43399 14.494 11.4378V15.4462C14.494 15.4558 14.4844 15.4655 14.4844 15.4752C14.4844 15.4848 14.494 15.4945 14.494 15.5041V18.6432C14.494 19.0875 14.8611 19.4545 15.3054 19.4545C15.7497 19.4545 16.1167 19.0875 16.1167 18.6432V16.2865H51.3805V18.8171H36.6414C34.3233 18.8171 32.4399 20.7005 32.4399 23.0186V47.1749C32.4399 49.493 34.3233 51.3765 36.6414 51.3765H51.3805V53.6945H16.1263V46.721C16.1263 46.2767 15.7593 45.9097 15.315 45.9097C14.8707 45.9097 14.5037 46.2767 14.5037 46.721V54.4769C14.5037 54.4866 14.494 54.4962 14.494 54.5059C14.494 54.5155 14.5037 54.5252 14.5037 54.5349V59.4801C14.5037 62.4743 16.9377 64.9083 19.9319 64.9083H47.5943C47.9324 64.9083 48.2318 64.8793 48.5022 64.831L48.3477 64.039L48.6471 64.8117C48.8306 64.7827 48.9948 64.7344 49.159 64.6861C50.1539 64.3964 51.0328 63.8168 51.6703 63.0731C51.7572 62.9765 51.8441 62.8896 51.9311 62.764C52.0759 62.5709 52.2112 62.368 52.356 62.0976C52.4043 62.0107 52.443 61.9334 52.4719 61.8851C52.6361 61.5567 52.7714 61.18 52.8873 60.7357C52.9162 60.5812 52.9452 60.4266 52.9645 60.2624C52.9645 60.2528 52.9645 60.2528 52.9645 60.2431C52.9839 60.1272 53.0032 60.0017 53.0032 59.8761C53.0128 59.8085 53.0128 59.7602 53.0128 59.7119C53.0128 59.6926 53.0128 59.6733 53.0128 59.6443V54.5928C53.0128 54.5638 53.0322 54.5445 53.0322 54.5155C53.0322 54.4866 53.0225 54.4672 53.0128 54.4383V51.3861H60.7977C63.1158 51.3861 64.9993 49.5027 64.9993 47.1846V23.0089C64.9896 20.6908 63.1062 18.8074 60.7881 18.8074ZM16.1167 14.6542V11.4378C16.1167 9.33224 17.8263 7.62266 19.9222 7.62266H47.5847C49.6806 7.62266 51.3902 9.33224 51.3902 11.4378V14.6638H16.1167V14.6542ZM51.3709 59.6443C51.3612 59.6829 51.3612 59.7216 51.3612 59.7699C51.3612 59.8471 51.3515 59.9244 51.3322 60.0017C51.3322 60.021 51.3226 60.0403 51.3226 60.0693C51.3129 60.1755 51.2936 60.2818 51.2743 60.359C51.197 60.6585 51.1004 60.9192 50.9749 61.18C50.9652 61.209 50.9459 61.2476 50.9266 61.2766C50.9169 61.2863 50.8783 61.3635 50.8783 61.3732C50.7913 61.5277 50.6948 61.663 50.6078 61.7885C50.5788 61.8272 50.5402 61.8658 50.4629 61.9527C49.9993 62.5033 49.3812 62.9089 48.6761 63.1118C48.5602 63.1504 48.4539 63.1794 48.338 63.1987L48.1835 63.2277C48.0096 63.2566 47.8068 63.276 47.575 63.276H19.9222C17.8263 63.276 16.1167 61.5664 16.1167 59.4704V55.3075H51.3709V59.625C51.3709 59.6346 51.3709 59.6443 51.3709 59.6443ZM63.3669 47.1653C63.3669 48.5851 62.2079 49.7441 60.7881 49.7441H52.2112C52.2015 49.7441 52.2015 49.7441 52.1918 49.7441C52.1822 49.7441 52.1822 49.7441 52.1725 49.7441H36.6414C35.2216 49.7441 34.0625 48.5851 34.0625 47.1653V23.0089C34.0625 21.5891 35.2216 20.4301 36.6414 20.4301H60.7881C62.2079 20.4301 63.3669 21.5891 63.3669 23.0089V47.1653Z" fill="#FD1716"/>
<path d="M60.1804 22.8066H37.241C36.7967 22.8066 36.4297 23.1737 36.4297 23.618V29.4904C36.4297 29.9347 36.7967 30.3018 37.241 30.3018H60.1804C60.6247 30.3018 60.9917 29.9347 60.9917 29.4904V23.618C60.9917 23.1737 60.6247 22.8066 60.1804 22.8066ZM59.369 28.6791H38.0523V24.4293H59.369V28.6791Z" fill="#FD1716"/>
<path d="M60.18 32.0312H52.202C51.7577 32.0312 51.3906 32.3983 51.3906 32.8426V38.7151C51.3906 39.1594 51.7577 39.5264 52.202 39.5264H60.18C60.6243 39.5264 60.9913 39.1594 60.9913 38.7151V32.8426C60.9913 32.3983 60.6243 32.0312 60.18 32.0312ZM59.3687 37.9037H53.0133V33.6539H59.3687V37.9037Z" fill="#FD1716"/>
<path d="M45.2191 32.0312H37.241C36.7967 32.0312 36.4297 32.3983 36.4297 32.8426V38.7151C36.4297 39.1594 36.7967 39.5264 37.241 39.5264H45.2191C45.6634 39.5264 46.0304 39.1594 46.0304 38.7151V32.8426C46.0304 32.3983 45.6634 32.0312 45.2191 32.0312ZM44.4078 37.9037H38.0523V33.6539H44.4078V37.9037Z" fill="#FD1716"/>
<path d="M16.2255 38.1721C19.1811 38.1335 21.5668 35.6898 21.5378 32.7343C21.4992 29.798 19.0941 27.4316 16.1579 27.4316C16.1386 27.4316 16.1193 27.4316 16.1 27.4316C13.1347 27.4703 10.7587 29.9043 10.7973 32.8598C10.8167 34.299 11.3865 35.6415 12.42 36.646C13.4342 37.6312 14.7574 38.1721 16.1676 38.1721C16.1772 38.1721 16.1965 38.1721 16.2255 38.1721ZM12.4103 32.8405C12.3814 30.7735 14.0427 29.0736 16.1096 29.0543C16.1193 29.0543 16.1386 29.0543 16.1482 29.0543C18.1959 29.0543 19.8765 30.7059 19.9055 32.7536C19.9248 34.8205 18.2635 36.5205 16.1965 36.5494C15.2017 36.5687 14.2551 36.1824 13.5404 35.4773C12.8257 34.7819 12.42 33.845 12.4103 32.8405Z" fill="#FD1716"/>
<path d="M15.5088 43.8331L17.0638 43.8138C17.9041 43.8042 18.6478 43.2343 18.8796 42.423L19.208 41.2446C19.5654 41.119 19.9131 40.9742 20.2512 40.8003L21.3329 41.3798C22.0767 41.7758 23.0039 41.631 23.5931 41.0225L24.6845 39.9021C25.2737 39.3032 25.3896 38.3663 24.9839 37.6323L24.3851 36.5602C24.5396 36.2414 24.6652 35.913 24.7811 35.575C24.7908 35.5556 24.7908 35.5363 24.8004 35.517L25.9788 35.15C26.7804 34.8989 27.331 34.1455 27.3213 33.3052L27.302 31.7501C27.2924 30.9098 26.7225 30.1661 25.9112 29.9343L24.7231 29.5962C24.7135 29.5576 24.6942 29.519 24.6845 29.4803C24.5686 29.1616 24.4334 28.8525 24.2788 28.5434L24.8487 27.4617C25.2447 26.718 25.0998 25.7907 24.501 25.2015L23.3999 24.1584C22.8011 23.5692 21.8642 23.4437 21.1301 23.859L20.0194 24.4868L19.0245 24.0908L18.6575 22.8835C18.416 22.0818 17.6627 21.5409 16.8127 21.5312L15.2576 21.5506C14.4173 21.5602 13.6736 22.1301 13.4418 22.9318L13.1038 24.1198C12.7464 24.2453 12.3987 24.3999 12.0703 24.5641L10.9982 23.9846C10.2544 23.5885 9.31755 23.7334 8.72837 24.3323L7.6466 25.443C7.05742 26.0419 6.94152 26.9787 7.35684 27.7128L7.94602 28.7656C7.77217 29.1133 7.63694 29.4707 7.52104 29.8184L6.34268 30.1854C5.54101 30.4365 4.99047 31.1899 5.00013 32.0302L5.01944 33.5853C5.0291 34.4256 5.59896 35.1693 6.40063 35.3914L7.58865 35.7295C7.71421 36.0869 7.86875 36.4346 8.03295 36.7726L7.46309 37.8448C7.06708 38.5885 7.21196 39.5157 7.8108 40.1049L8.91189 41.1963C9.51073 41.7855 10.4476 41.9111 11.172 41.4957L12.2441 40.8969C12.5822 41.0611 12.9299 41.1963 13.2873 41.3219L13.6446 42.4906C13.8861 43.2826 14.6395 43.8331 15.4701 43.8331C15.4894 43.8331 15.4991 43.8331 15.5088 43.8331ZM15.2093 42.0173L14.7264 40.4333C14.6491 40.1725 14.4367 39.9697 14.1662 39.8924C13.6253 39.7379 13.1038 39.5254 12.6208 39.2646C12.5049 39.197 12.3697 39.168 12.2345 39.168C12.0993 39.168 11.964 39.2066 11.8385 39.2742L10.3897 40.0856C10.2834 40.1435 10.1385 40.1242 10.0516 40.0373L8.94087 38.9555C8.85394 38.8686 8.82496 38.7237 8.89257 38.6174L9.66527 37.159C9.79083 36.9175 9.79083 36.6181 9.65561 36.3766C9.37551 35.8937 9.15336 35.3721 8.98916 34.8312C8.91189 34.5608 8.6994 34.358 8.43861 34.2904L6.84493 33.8364C6.71937 33.7978 6.6421 33.6915 6.63244 33.566L6.61312 32.0109C6.61312 31.8854 6.69039 31.7694 6.81596 31.7308L8.39998 31.2382C8.66076 31.161 8.87325 30.9485 8.94087 30.678C9.07609 30.1661 9.28858 29.6639 9.56868 29.1326C9.7039 28.8912 9.69424 28.5917 9.55902 28.3503L8.74769 26.9111C8.68974 26.8049 8.6994 26.66 8.79599 26.5731L9.87776 25.4623C9.96468 25.3754 10.1096 25.3464 10.2158 25.414L11.6743 26.1964C11.9157 26.3316 12.2152 26.322 12.4566 26.1867C12.9396 25.9066 13.4515 25.6941 13.9924 25.5203C14.2531 25.443 14.456 25.2305 14.5332 24.9697L14.9969 23.3664C15.0355 23.2505 15.1417 23.1636 15.2673 23.1636L16.8223 23.1442C16.9479 23.1442 17.0638 23.2215 17.1024 23.3471L17.5854 24.9311C17.653 25.1629 17.8268 25.3561 18.0587 25.443L19.7779 26.1288C20.0097 26.2157 20.2608 26.206 20.4733 26.0805L21.9221 25.2692C22.0284 25.2015 22.1733 25.2209 22.2602 25.3175L23.3709 26.4089C23.4579 26.4958 23.4772 26.6407 23.4192 26.7469L22.6369 28.2054C22.5016 28.4469 22.5113 28.7463 22.6465 28.9877C22.8494 29.3355 23.0136 29.7025 23.1488 30.0599C23.1971 30.2144 23.255 30.3689 23.3033 30.5235C23.3806 30.7843 23.5931 30.9968 23.8539 31.0644L25.4572 31.5183C25.5828 31.557 25.66 31.6632 25.6697 31.7888L25.689 33.3438C25.689 33.4694 25.6117 33.5853 25.4862 33.6239L23.9022 34.1068C23.8635 34.1165 23.8249 34.1358 23.7959 34.1455C23.5834 34.2421 23.4192 34.4352 23.3516 34.667C23.313 34.8023 23.2743 34.9278 23.2357 35.0534C23.1005 35.4494 22.9363 35.8358 22.7335 36.2124C22.6079 36.4539 22.6079 36.7437 22.7431 36.9851L23.5544 38.4243C23.6124 38.5305 23.5931 38.6754 23.5061 38.7623L22.434 39.8924C22.3471 39.9793 22.2022 40.0083 22.096 39.9407L20.6279 39.1583C20.3864 39.0328 20.087 39.0328 19.8455 39.168C19.3529 39.4481 18.841 39.6606 18.3194 39.8248C18.049 39.9021 17.8462 40.1145 17.7689 40.385L17.3149 41.9883C17.2763 42.1139 17.1701 42.1912 17.0445 42.2008L15.4894 42.2105C15.3349 42.2105 15.248 42.1332 15.2093 42.0173Z" fill="#FD1716"/>
<path d="M45.2191 41.4004H37.241C36.7967 41.4004 36.4297 41.7674 36.4297 42.2117C36.4297 42.656 36.7967 43.023 37.241 43.023H45.2191C45.6634 43.023 46.0304 42.656 46.0304 42.2117C46.0304 41.7578 45.6634 41.4004 45.2191 41.4004Z" fill="#FD1716"/>
<path d="M42.6423 44.9043H37.2527C36.8084 44.9043 36.4414 45.2713 36.4414 45.7156C36.4414 46.1599 36.8084 46.527 37.2527 46.527H42.6423C43.0866 46.527 43.4536 46.1599 43.4536 45.7156C43.4439 45.2617 43.0866 44.9043 42.6423 44.9043Z" fill="#FD1716"/>
<path d="M60.18 41.4004H52.202C51.7577 41.4004 51.3906 41.7674 51.3906 42.2117C51.3906 42.656 51.7577 43.023 52.202 43.023H60.18C60.6243 43.023 60.9913 42.656 60.9913 42.2117C60.9913 41.7578 60.6243 41.4004 60.18 41.4004Z" fill="#FD1716"/>
<path d="M57.5915 44.9043H52.202C51.7577 44.9043 51.3906 45.2713 51.3906 45.7156C51.3906 46.1599 51.7577 46.527 52.202 46.527H57.5915C58.0358 46.527 58.4028 46.1599 58.4028 45.7156C58.4028 45.2617 58.0455 44.9043 57.5915 44.9043Z" fill="#FD1716"/>
<path d="M33.7556 56.6309C32.2875 56.6309 31.0898 57.8285 31.0898 59.2967C31.0898 60.7648 32.2875 61.9624 33.7556 61.9624C35.2238 61.9624 36.4214 60.7648 36.4214 59.2967C36.4214 57.8285 35.2238 56.6309 33.7556 56.6309ZM33.7556 60.3398C33.1858 60.3398 32.7125 59.8762 32.7125 59.2967C32.7125 58.7171 33.1761 58.2535 33.7556 58.2535C34.3352 58.2535 34.7988 58.7171 34.7988 59.2967C34.7988 59.8665 34.3255 60.3398 33.7556 60.3398Z" fill="#FD1716"/>
</svg>
