<svg width="70" height="70" viewBox="0 0 70 70" fill="none" xmlns="http://www.w3.org/2000/svg">
<path d="M34.8297 48.037C34.8297 48.5735 34.3947 49.0084 33.8582 49.0084H32.358C31.8214 49.0084 31.3865 48.5735 31.3865 48.037C31.3865 47.5004 31.8214 47.0655 32.358 47.0655H33.8582C34.3947 47.0655 34.8297 47.5004 34.8297 48.037ZM64.9256 49.5554C64.3292 54.3739 60.2321 58.0073 55.3955 58.0073C54.9996 58.0073 54.6011 57.9839 54.2078 57.9344C51.6554 57.6193 49.379 56.33 47.7954 54.3063C47.1651 53.4989 46.6806 52.6133 46.3394 51.6809H40.0181V55.6685C40.0181 57.3432 41.3855 58.7158 43.0681 58.7262H45.993C46.5295 58.7262 46.9645 59.1612 46.9645 59.7003V62.073C46.9645 62.6096 46.5295 63.0445 45.993 63.0445H20.0777C19.5412 63.0445 19.1062 62.6096 19.1062 62.073V59.7003C19.1062 59.1637 19.5412 58.7262 20.0777 58.7262H23.0078C24.6851 58.7158 26.0525 57.3432 26.0525 55.6685V51.6809H5.97148C5.43494 51.6809 5 51.2459 5 50.7094V14.4019C5 13.8653 5.43496 13.4304 5.97148 13.4304H29.7851V12.9459H28.8996C28.5037 12.9459 28.1469 12.7063 27.9984 12.3391C27.8499 11.9718 27.9385 11.5499 28.225 11.2764L32.3715 7.27315C32.7491 6.90852 33.3481 6.90852 33.7232 7.27576L37.7759 11.2008C38.0103 11.3779 38.1614 11.6592 38.1614 11.9744C38.1614 12.5109 37.7264 12.9459 37.1899 12.9459H37.1795H36.2939V13.4329H60.1076C60.6441 13.4329 61.079 13.8679 61.079 14.4044V40.6431C61.7797 41.1588 62.4152 41.7657 62.9647 42.4689C64.5431 44.4927 65.2411 47.0113 64.926 49.556L64.9256 49.5554ZM31.1965 11.1069C31.5116 11.2657 31.7278 11.5965 31.7278 11.9742V19.522H34.3428V11.9742C34.3428 11.5939 34.5616 11.2658 34.8793 11.1043L33.0405 9.32273L31.1965 11.1069ZM38.0748 55.6683V51.6807H27.998V55.6683C27.998 55.6787 27.9954 55.6866 27.9954 55.697H34.4729C35.0094 55.697 35.4444 56.1319 35.4444 56.6685C35.4444 57.205 35.0094 57.6399 34.4729 57.6399L27.5892 57.6425C26.8235 59.411 25.0627 60.6586 23.0155 60.6743H21.0517V61.104H45.0214V60.6743H43.0627C40.3097 60.6534 38.0748 58.4109 38.0748 55.6683ZM45.8574 49.7378C45.7428 48.9121 45.7245 48.0656 45.8287 47.2166C45.8652 46.9222 45.9147 46.6331 45.9772 46.3492H8.79951C8.26296 46.3492 7.82803 45.9143 7.82803 45.3778C7.82803 44.8412 8.26298 44.4063 8.79951 44.4063H46.6279C48.1542 41.0568 51.5193 38.7648 55.3559 38.7648C55.7518 38.7648 56.1503 38.7883 56.5436 38.8377C57.4448 38.9497 58.3094 39.1868 59.1247 39.5332L59.1299 15.3762H36.2878V20.4942C36.2878 21.0307 35.8528 21.4656 35.3163 21.4656H30.7557C30.2192 21.4656 29.7816 21.0307 29.7816 20.4942V15.3762H6.94217V49.7381L45.8574 49.7378ZM61.4277 43.6639C60.1645 42.0464 58.3465 41.0176 56.3071 40.7676C55.992 40.7285 55.6742 40.7077 55.3591 40.7077C51.5017 40.7077 48.2327 43.6092 47.7592 47.4534C47.5066 49.485 48.064 51.4931 49.3272 53.1079C50.5904 54.7254 52.4084 55.7515 54.4452 56.0042C54.7604 56.0433 55.0807 56.0641 55.3959 56.0641C59.2533 56.0641 62.5223 53.1626 62.9957 49.3184C63.2483 47.2868 62.691 45.2787 61.4277 43.6639ZM59.3206 44.0989L53.476 50.6207L51.3845 48.5943C50.9991 48.2192 50.3844 48.2296 50.0093 48.6151C49.6343 49.0006 49.6447 49.6153 50.0302 49.9903L52.8457 52.7199C53.028 52.897 53.2703 52.9934 53.5229 52.9934H53.5568C53.8198 52.983 54.0699 52.8684 54.247 52.6704L60.7662 45.396C61.123 44.9949 61.0918 44.3803 60.6907 44.0234C60.2921 43.6666 59.6775 43.7004 59.3206 44.0989ZM38.0754 29.2973C38.0754 30.6438 36.9789 31.743 35.6297 31.743H30.4414C29.0949 31.743 27.9983 30.6465 27.9983 29.2973C27.9983 27.9507 29.0948 26.8542 30.4414 26.8542H35.6297C36.9788 26.8542 38.0754 27.9481 38.0754 29.2973ZM36.1297 29.2973C36.1297 29.0212 35.9057 28.7972 35.6297 28.7972H30.4414C30.1653 28.7972 29.9413 29.0212 29.9413 29.2973C29.9413 29.5681 30.1705 29.7973 30.4414 29.7973H35.6297C35.9031 29.7973 36.1297 29.5681 36.1297 29.2973ZM15.6606 20.8113C15.9263 20.3451 16.5202 20.1836 16.9864 20.4493L22.495 23.5956H43.5789L49.1005 20.4493C49.5667 20.1836 50.1605 20.3477 50.4263 20.8139C50.6919 21.2801 50.5304 21.8739 50.0642 22.1397L44.8082 25.1323V40.8194C44.8082 41.3559 44.3733 41.7908 43.8367 41.7908L22.2368 41.7882C21.7002 41.7882 21.2653 41.3533 21.2653 40.8168V25.1297L16.0249 22.137C15.5587 21.8714 15.395 21.2775 15.6606 20.8113ZM23.2084 39.8455H42.8628V25.5387H23.2084V39.8455Z" fill="#FD1716"/>
</svg>
