<svg width="80" height="80" viewBox="0 0 80 80" fill="none" xmlns="http://www.w3.org/2000/svg">
<rect width="80" height="80" fill="white"/>
<path d="M15.409 67.2758L9.9375 5.9082H70.0588L64.5813 67.2665L39.9615 74.0915L15.409 67.2758Z" fill="#E44D26"/>
<path d="M40 68.8748L59.8942 63.3591L64.5749 10.9258H40V68.8748Z" fill="#F16529"/>
<path d="M39.9982 33.6869H30.0385L29.3505 25.9792H39.9982V18.4531H21.125L21.3055 20.4722L23.155 41.2135H39.9982V33.6869ZM39.9982 53.2338L39.9648 53.2431L31.5829 50.9791L31.0475 44.9771H23.4913L24.5457 56.7945L39.9637 61.0744L39.9982 61.0651V53.2338Z" fill="#EBEBEB"/>
<path d="M39.9727 33.6869V41.2135H49.2405L48.3672 50.9747L39.9727 53.2404V61.0711L55.4027 56.7945L55.5159 55.523L57.2845 35.7081L57.4677 33.6869H55.4399H39.9727ZM39.9727 18.4531V25.9792H58.153L58.3039 24.2883L58.6473 20.4722L58.8273 18.4531H39.9727Z" fill="white"/>
</svg>
