<svg width="48" height="50" viewBox="0 0 48 50" fill="none" xmlns="http://www.w3.org/2000/svg">
<path d="M25.6655 18.7158H28.1591C28.5919 18.7158 28.9418 18.3659 28.9418 17.9331C28.9418 17.5003 28.5919 17.1504 28.1591 17.1504H25.6655C25.2327 17.1504 24.8828 17.5003 24.8828 17.9331C24.8828 18.3659 25.2327 18.7158 25.6655 18.7158Z" fill="#FD1716"/>
<path d="M19.0952 18.7158H21.5888C22.0215 18.7158 22.3715 18.3659 22.3715 17.9331C22.3715 17.5003 22.0216 17.1504 21.5888 17.1504H19.0952C18.6624 17.1504 18.3125 17.5003 18.3125 17.9331C18.3125 18.3659 18.6624 18.7158 19.0952 18.7158Z" fill="#FD1716"/>
<path d="M25.6655 22.6689H28.1591C28.5919 22.6689 28.9418 22.319 28.9418 21.8862C28.9418 21.4534 28.5919 21.1035 28.1591 21.1035H25.6655C25.2327 21.1035 24.8828 21.4534 24.8828 21.8862C24.8828 22.319 25.2327 22.6689 25.6655 22.6689Z" fill="#FD1716"/>
<path d="M19.0952 22.6689H21.5888C22.0215 22.6689 22.3715 22.319 22.3715 21.8862C22.3715 21.4534 22.0216 21.1035 21.5888 21.1035H19.0952C18.6624 21.1035 18.3125 21.4534 18.3125 21.8862C18.3125 22.319 18.6624 22.6689 19.0952 22.6689Z" fill="#FD1716"/>
<path d="M25.6655 26.6201H28.1591C28.5919 26.6201 28.9418 26.2702 28.9418 25.8374C28.9418 25.4046 28.5919 25.0547 28.1591 25.0547H25.6655C25.2327 25.0547 24.8828 25.4046 24.8828 25.8374C24.8828 26.2702 25.2327 26.6201 25.6655 26.6201Z" fill="#FD1716"/>
<path d="M19.0952 26.6201H21.5888C22.0215 26.6201 22.3715 26.2702 22.3715 25.8374C22.3715 25.4046 22.0216 25.0547 21.5888 25.0547H19.0952C18.6624 25.0547 18.3125 25.4046 18.3125 25.8374C18.3125 26.2702 18.6624 26.6201 19.0952 26.6201Z" fill="#FD1716"/>
<path d="M25.6655 30.5732H28.1591C28.5919 30.5732 28.9418 30.2233 28.9418 29.7905C28.9418 29.3577 28.5919 29.0078 28.1591 29.0078H25.6655C25.2327 29.0078 24.8828 29.3577 24.8828 29.7905C24.8828 30.2215 25.2327 30.5732 25.6655 30.5732Z" fill="#FD1716"/>
<path d="M19.0952 30.5732H21.5888C22.0215 30.5732 22.3715 30.2233 22.3715 29.7905C22.3715 29.3577 22.0216 29.0078 21.5888 29.0078H19.0952C18.6624 29.0078 18.3125 29.3577 18.3125 29.7905C18.3125 30.2215 18.6624 30.5732 19.0952 30.5732Z" fill="#FD1716"/>
<path d="M25.6655 34.5263H28.1591C28.5919 34.5263 28.9418 34.1764 28.9418 33.7436C28.9418 33.3109 28.5919 32.9609 28.1591 32.9609H25.6655C25.2327 32.9609 24.8828 33.3108 24.8828 33.7436C24.8828 34.1746 25.2327 34.5263 25.6655 34.5263Z" fill="#FD1716"/>
<path d="M19.0952 34.5263H21.5888C22.0215 34.5263 22.3715 34.1764 22.3715 33.7436C22.3715 33.3109 22.0216 32.9609 21.5888 32.9609H19.0952C18.6624 32.9609 18.3125 33.3108 18.3125 33.7436C18.3125 34.1746 18.6624 34.5263 19.0952 34.5263Z" fill="#FD1716"/>
<path d="M25.6655 38.4775H28.1591C28.5919 38.4775 28.9418 38.1276 28.9418 37.6948C28.9418 37.262 28.5919 36.9121 28.1591 36.9121H25.6655C25.2327 36.9121 24.8828 37.262 24.8828 37.6948C24.8828 38.1276 25.2327 38.4775 25.6655 38.4775Z" fill="#FD1716"/>
<path d="M19.0952 38.4775H21.5888C22.0215 38.4775 22.3715 38.1276 22.3715 37.6948C22.3715 37.262 22.0216 36.9121 21.5888 36.9121H19.0952C18.6624 36.9121 18.3125 37.262 18.3125 37.6948C18.3125 38.1276 18.6624 38.4775 19.0952 38.4775Z" fill="#FD1716"/>
<path d="M41.3054 25.0551H33.4732V13.858C33.4732 13.521 33.2577 13.2227 32.9391 13.1159L14.8103 7.04026C14.5709 6.96107 14.3094 6.99975 14.105 7.14707C13.8987 7.2944 13.779 7.53013 13.779 7.78245V17.0107H5.94677C5.51399 17.0107 5.16406 17.3606 5.16406 17.7934V43.1415C5.16406 43.5743 5.51397 43.9242 5.94677 43.9242H41.3058C41.7385 43.9242 42.0885 43.5743 42.0885 43.1415V25.8378C42.0885 25.4069 41.7382 25.0551 41.3054 25.0551ZM15.3444 8.87101L31.9098 14.4233L31.908 42.3588H15.3444L15.3444 8.87101ZM6.72953 18.5763H13.7792V42.3588H6.72953V18.5763ZM40.5233 42.3588H33.4737V26.6203H40.5233V42.3588Z" fill="#FD1716"/>
<path d="M36.2124 30.5732H37.7944C38.2271 30.5732 38.5771 30.2233 38.5771 29.7905C38.5771 29.3577 38.2272 29.0078 37.7944 29.0078H36.2124C35.7796 29.0078 35.4297 29.3577 35.4297 29.7905C35.4297 30.2215 35.7796 30.5732 36.2124 30.5732Z" fill="#FD1716"/>
<path d="M36.2085 34.5263H37.7904C38.2232 34.5263 38.5732 34.1764 38.5732 33.7436C38.5732 33.3109 38.2232 32.9609 37.7904 32.9609H36.2085C35.7757 32.9609 35.4258 33.3108 35.4258 33.7436C35.4258 34.1746 35.7757 34.5263 36.2085 34.5263Z" fill="#FD1716"/>
<path d="M37.7904 36.9121H36.2085C35.7757 36.9121 35.4258 37.262 35.4258 37.6948C35.4258 38.1276 35.7757 38.4775 36.2085 38.4775H37.7904C38.2232 38.4775 38.5732 38.1276 38.5732 37.6948C38.5732 37.262 38.2232 36.9121 37.7904 36.9121Z" fill="#FD1716"/>
<path d="M9.46239 30.5732H11.0444C11.4771 30.5732 11.8271 30.2233 11.8271 29.7905C11.8271 29.3577 11.4772 29.0078 11.0444 29.0078H9.46239C9.02961 29.0078 8.67969 29.3577 8.67969 29.7905C8.67969 30.2215 9.0296 30.5732 9.46239 30.5732Z" fill="#FD1716"/>
<path d="M9.46239 26.6201H11.0444C11.4771 26.6201 11.8271 26.2702 11.8271 25.8374C11.8271 25.4046 11.4772 25.0547 11.0444 25.0547H9.46239C9.02961 25.0547 8.67969 25.4046 8.67969 25.8374C8.67969 26.2702 9.0296 26.6201 9.46239 26.6201Z" fill="#FD1716"/>
<path d="M9.46239 22.6689H11.0444C11.4771 22.6689 11.8271 22.319 11.8271 21.8862C11.8271 21.4534 11.4772 21.1035 11.0444 21.1035H9.46239C9.02961 21.1035 8.67969 21.4534 8.67969 21.8862C8.67969 22.319 9.0296 22.6689 9.46239 22.6689Z" fill="#FD1716"/>
<path d="M11.0444 32.9609H9.46239C9.02961 32.9609 8.67969 33.3108 8.67969 33.7436C8.67969 34.1764 9.0296 34.5264 9.46239 34.5264H11.0444C11.4771 34.5264 11.8271 34.1764 11.8271 33.7436C11.8271 33.3109 11.4772 32.9609 11.0444 32.9609Z" fill="#FD1716"/>
<path d="M11.0444 36.9121H9.46239C9.02961 36.9121 8.67969 37.262 8.67969 37.6948C8.67969 38.1276 9.0296 38.4775 9.46239 38.4775H11.0444C11.4771 38.4775 11.8271 38.1276 11.8271 37.6948C11.8271 37.262 11.4772 36.9121 11.0444 36.9121Z" fill="#FD1716"/>
</svg>
