<svg width="49" height="49" viewBox="0 0 49 49" fill="none" xmlns="http://www.w3.org/2000/svg">
<path d="M41.3784 17.5403V34.9077C41.3784 35.5522 41.1136 36.1416 40.688 36.5687C40.2578 36.9989 39.6684 37.2637 39.024 37.2637H33.3751C33.4578 37.8225 33.4287 38.369 33.2894 38.891C33.1409 39.4528 32.8654 39.9779 32.4704 40.4494C32.077 40.9209 31.6085 41.2822 31.0819 41.5287C30.5522 41.7752 29.9751 41.9022 29.3643 41.9022H20.496C19.8836 41.9022 19.3065 41.7752 18.7783 41.5287C18.2517 41.2822 17.7833 40.9209 17.3898 40.4494C16.9949 39.9779 16.7193 39.4528 16.5709 38.891C16.4315 38.369 16.4025 37.8225 16.4851 37.2637H10.8363C10.1903 37.2637 9.60089 36.9989 9.17376 36.5703C8.74667 36.1462 8.48029 35.5568 8.48029 34.9077V17.5403C8.08993 17.3734 7.73631 17.1315 7.43933 16.8346C6.81782 16.1564 6.46875 15.4323 6.46875 14.497V11.971C6.46875 11.8516 6.49631 11.7383 6.54376 11.6373L8.53387 6.28866C8.65022 5.97484 8.94874 5.78041 9.26563 5.78041L40.5976 5.77734C40.9574 5.77734 41.262 6.02075 41.3524 6.3514L43.318 11.6373C43.3654 11.7384 43.393 11.8517 43.393 11.9711V14.497C43.393 15.4078 43.021 16.236 42.4224 16.8346C42.1254 17.1316 41.7718 17.3719 41.3815 17.5403L41.3784 17.5403ZM18.8058 33.1595H31.0526L30.8751 32.1705H18.9817L18.8041 33.1595H18.8058ZM31.3328 34.7271H18.5256L18.0464 37.4076C17.979 37.7903 17.9897 38.1562 18.0801 38.493C18.1688 38.8282 18.3388 39.1497 18.5868 39.4452C18.8348 39.7421 19.1226 39.9656 19.4364 40.1141C19.7487 40.2596 20.1039 40.3361 20.4942 40.3361H29.3625C29.7514 40.3361 30.1081 40.2611 30.4204 40.1141C30.7357 39.9672 31.022 39.7421 31.27 39.4452C31.518 39.1497 31.6879 38.8282 31.7767 38.493C31.8671 38.1562 31.8778 37.7903 31.8104 37.4076L31.3312 34.7271H31.3328ZM19.2635 30.6031H30.5965L29.9061 26.7331H28.516V28.8472C28.516 29.2804 28.1655 29.631 27.7322 29.631C27.299 29.631 26.9484 29.2804 26.9484 28.8472V26.7331H22.913V28.8472C22.913 29.2804 22.5625 29.631 22.1292 29.631C21.696 29.631 21.3454 29.2804 21.3454 28.8472V26.7331H19.9554L19.265 30.6031H19.2635ZM21.3455 25.1655V23.6882C21.3455 22.7039 21.7496 21.8068 22.4002 21.1577C23.0478 20.5071 23.9449 20.103 24.9307 20.103C25.9151 20.103 26.8122 20.5071 27.4612 21.1577C28.1119 21.8053 28.516 22.7024 28.516 23.6882V25.1655H30.5628C30.9577 25.1655 31.2838 25.4564 31.3389 25.836C31.9252 29.1227 32.5116 32.4093 33.0994 35.6946H39.0253C39.2427 35.6946 39.4417 35.6074 39.5811 35.4665C39.725 35.3226 39.8122 35.1252 39.8122 34.9062V17.7927C39.0085 17.7269 38.2844 17.3718 37.7456 16.8329C37.6828 16.764 37.6185 16.6982 37.5588 16.6278C37.4991 16.6997 37.4363 16.7671 37.3705 16.8329C36.772 17.4314 35.9438 17.8035 35.0329 17.8035C34.122 17.8035 33.2938 17.4315 32.6937 16.8329C32.631 16.764 32.5667 16.6982 32.507 16.6278C32.4473 16.6997 32.3845 16.7671 32.3187 16.8329C31.7201 17.4314 30.8919 17.8035 29.9811 17.8035C29.0702 17.8035 28.242 17.4315 27.6419 16.8329C27.5791 16.764 27.5148 16.6982 27.4551 16.6278C27.3954 16.6997 27.3327 16.7671 27.2668 16.8329C26.6683 17.4314 25.8401 17.8035 24.9292 17.8035C24.0184 17.8035 23.1902 17.4315 22.59 16.8329C22.5273 16.764 22.463 16.6982 22.4033 16.6278C22.3436 16.6997 22.2808 16.7671 22.215 16.8329C21.6164 17.4314 20.7882 17.8035 19.8774 17.8035C18.9665 17.8035 18.1383 17.4315 17.5382 16.8329C17.4754 16.764 17.4111 16.6982 17.3514 16.6278C17.2917 16.6997 17.229 16.7671 17.1631 16.8329C16.5646 17.4314 15.7364 17.8035 14.8255 17.8035C13.9147 17.8035 13.0865 17.4315 12.4864 16.8329C12.4236 16.764 12.3593 16.6982 12.2996 16.6278C12.2399 16.6997 12.1771 16.7671 12.1113 16.8329C11.5724 17.3718 10.8483 17.7269 10.0431 17.7927V34.9062C10.0431 35.1221 10.1319 35.3196 10.2743 35.462C10.4151 35.6059 10.6126 35.6931 10.83 35.6931H16.7559C17.3453 32.3987 17.9316 29.1057 18.521 25.8113C18.5868 25.4302 18.919 25.1623 19.2926 25.1623H21.3394L21.3455 25.1655ZM26.9485 25.1655V23.6882C26.9485 23.134 26.7204 22.6289 26.3545 22.2645C25.9917 21.8987 25.4865 21.6706 24.9308 21.6706C24.3766 21.6706 23.8715 21.8987 23.5056 22.2645C23.1397 22.6273 22.9116 23.1325 22.9116 23.6882V25.1655H26.9485ZM31.0956 10.0084C30.6623 10.0084 30.3118 9.6578 30.3118 9.22456C30.3118 8.79133 30.6623 8.44076 31.0956 8.44076H38.8113C39.2445 8.44076 39.5951 8.79133 39.5951 9.22456C39.5951 9.6578 39.2445 10.0084 38.8113 10.0084H31.0956ZM15.5712 10.0099C15.138 10.0099 14.7874 9.65933 14.7874 9.2261C14.7874 8.79285 15.138 8.4423 15.5712 8.4423H17.2858C17.719 8.4423 18.0696 8.79286 18.0696 9.2261C18.0696 9.65934 17.719 10.0099 17.2858 10.0099H15.5712ZM11.0401 10.0099C10.6068 10.0099 10.2563 9.65933 10.2563 9.2261C10.2563 8.79285 10.6068 8.4423 11.0401 8.4423H12.7546C13.1879 8.4423 13.5384 8.79286 13.5384 9.2261C13.5384 9.65934 13.1879 10.0099 12.7546 10.0099H11.0401ZM8.37789 11.1871H41.4856L40.0558 7.34313H9.80582L8.37601 11.1871H8.37789ZM41.8258 12.7547H38.3416V14.4968C38.3416 14.9454 38.5268 15.4154 38.8529 15.7261C39.1682 16.0415 39.6045 16.2374 40.0821 16.2374C40.5613 16.2374 40.996 16.0415 41.3129 15.7261C41.6283 15.4108 41.8243 14.9744 41.8243 14.4968V12.7547H41.8258ZM36.7754 12.7547H33.2911V14.4968C33.2911 14.9454 33.4764 15.4154 33.8024 15.7261C34.1178 16.0415 34.5541 16.2374 35.0317 16.2374C35.5109 16.2374 35.9456 16.0415 36.2625 15.7261C36.5779 15.4108 36.7738 14.9744 36.7738 14.4968V12.7547H36.7754ZM31.7249 12.7547H28.2407V14.4968C28.2407 14.9454 28.426 15.4154 28.752 15.7261C29.0674 16.0415 29.5037 16.2374 29.9813 16.2374C30.4605 16.2374 30.8952 16.0415 31.2121 15.7261C31.5275 15.4108 31.7234 14.9744 31.7234 14.4968V12.7547H31.7249ZM26.6745 12.7547H23.1903V14.4968C23.1903 14.9454 23.3755 15.4154 23.7016 15.7261C24.017 16.0415 24.4533 16.2374 24.9309 16.2374C25.4101 16.2374 25.8448 16.0415 26.1617 15.7261C26.477 15.4108 26.673 14.9744 26.673 14.4968V12.7547H26.6745ZM21.6241 12.7547H18.1399V14.4968C18.1399 14.9454 18.3251 15.4154 18.6512 15.7261C18.9666 16.0415 19.4029 16.2374 19.8805 16.2374C20.3596 16.2374 20.7944 16.0415 21.1113 15.7261C21.4266 15.4108 21.6226 14.9744 21.6226 14.4968V12.7547H21.6241ZM16.5737 12.7547H13.0895V14.4968C13.0895 14.9454 13.2747 15.4154 13.6008 15.7261C13.9161 16.0415 14.3524 16.2374 14.8301 16.2374C15.3092 16.2374 15.744 16.0415 16.0609 15.7261C16.3762 15.4108 16.5722 14.9744 16.5722 14.4968V12.7547H16.5737ZM11.5233 12.7547H8.03905V14.4968C8.03905 14.9454 8.22429 15.4154 8.55037 15.7261C8.86572 16.0415 9.30203 16.2374 9.77964 16.2374C10.2588 16.2374 10.6936 16.0415 11.0104 15.7261C11.3258 15.4108 11.5218 14.9744 11.5218 14.4968V12.7547H11.5233Z" fill="#FD1716"/>
</svg>
