<svg width="49" height="49" viewBox="0 0 49 49" fill="none" xmlns="http://www.w3.org/2000/svg">
<path d="M40.5055 24.9056C40.8816 24.9056 41.1893 24.5979 41.1893 24.2218V22.1704H42.5569C42.9329 22.1704 43.2406 21.8627 43.2406 21.4866V18.7515C43.2406 18.3754 42.9329 18.0677 42.5569 18.0677H41.6953L25.1821 5.89662C25.1821 5.89662 25.1616 5.88979 25.1479 5.88295C25.1069 5.8556 25.0659 5.84192 25.018 5.82141C24.977 5.80773 24.9428 5.78722 24.9017 5.78038C24.8607 5.77354 24.8129 5.78038 24.7718 5.78038H24.6419C24.6009 5.78722 24.5667 5.80773 24.5257 5.82141C24.4778 5.84192 24.4368 5.8556 24.3957 5.88295C24.3889 5.88295 24.3752 5.88979 24.3684 5.89662L7.86178 18.0677H7.00019C6.62411 18.0677 6.31641 18.3754 6.31641 18.7515V21.4866C6.31641 21.8627 6.62411 22.1704 7.00019 22.1704H8.36775V24.2218C8.36775 24.5979 8.67545 24.9056 9.05154 24.9056H9.73532V35.8461H9.05154C8.67545 35.8461 8.36775 36.1538 8.36775 36.5299V38.5812H7.00019C6.62411 38.5812 6.31641 38.8889 6.31641 39.265V42.0001C6.31641 42.3762 6.62411 42.6839 7.00019 42.6839H42.5569C42.9329 42.6839 43.2407 42.3762 43.2407 42.0001V39.265C43.2407 38.8889 42.9329 38.5812 42.5569 38.5812H41.1893V36.5299C41.1893 36.1538 40.8816 35.8461 40.5055 35.8461H39.8217V24.9056H40.5055ZM39.8217 23.538H34.3515V22.1704H39.8217V23.538ZM33.6679 35.8461C33.2918 35.8461 32.9841 36.1538 32.9841 36.5299V38.5812H28.8814V36.5299C28.8814 36.1538 28.5737 35.8461 28.1977 35.8461H27.5139V24.9056H28.1977C28.5737 24.9056 28.8814 24.5979 28.8814 24.2218V22.1704H32.9841V24.2218C32.9841 24.5979 33.2918 24.9056 33.6679 24.9056H34.3517V35.8461H33.6679ZM16.5736 38.5812V36.5299C16.5736 36.1538 16.2659 35.8461 15.8898 35.8461H15.206V24.9056H15.8898C16.2659 24.9056 16.5736 24.5979 16.5736 24.2218V22.1704H20.6763V24.2218C20.6763 24.5979 20.984 24.9056 21.36 24.9056H22.0438V35.8461H21.36C20.984 35.8461 20.6763 36.1538 20.6763 36.5299V38.5812H16.5736ZM26.1465 35.8461H23.4114V24.9056H26.1465V35.8461ZM26.8303 23.538H22.0436V22.1704H27.5139V23.538H26.8303ZM22.0436 37.2136H27.5139V38.5812H22.0436V37.2136ZM24.7787 7.29132L39.3913 18.0677H10.1666L24.7787 7.29132ZM7.6844 19.4353H41.8735V20.8029H7.6844V19.4353ZM15.2062 22.1704V23.538H9.73597V22.1704H15.2062ZM11.1035 24.9056H13.8387V35.8461H11.1035V24.9056ZM9.73597 37.2136H15.2062V38.5812H9.73597V37.2136ZM41.874 41.3163H7.68484V39.9488H41.874V41.3163ZM34.3521 38.5812V37.2136H39.8224V38.5812H34.3521ZM38.4548 35.8461H35.7197V24.9056H38.4548V35.8461Z" fill="#FD1716"/>
<path d="M24.7781 10.8887C23.2669 10.8887 22.043 12.1127 22.043 13.6238C22.043 15.1349 23.2669 16.3589 24.7781 16.3589C26.2892 16.3589 27.5132 15.1349 27.5132 13.6238C27.5132 12.1127 26.2892 10.8887 24.7781 10.8887ZM24.7781 14.9914C24.0259 14.9914 23.4105 14.376 23.4105 13.6238C23.4105 12.8716 24.0259 12.2562 24.7781 12.2562C25.5303 12.2562 26.1457 12.8716 26.1457 13.6238C26.1457 14.376 25.5303 14.9914 24.7781 14.9914Z" fill="#FD1716"/>
</svg>
