<svg width="49" height="49" viewBox="0 0 49 49" fill="none" xmlns="http://www.w3.org/2000/svg">
<path d="M43.0102 28.9143C43.0102 28.9125 43.0084 12.3472 43.0102 12.3454C43.0102 10.8189 41.7675 9.57617 40.241 9.57617H37.5739C36.3519 9.60386 36.3658 11.4004 37.5739 11.4229H40.241C40.7498 11.4229 41.1634 11.8366 41.1634 12.3454V27.9913L7.93268 27.9896V12.3437C7.93268 11.8348 8.34633 11.4212 8.85517 11.4212H11.5223C12.0328 11.4212 12.4448 11.0075 12.4448 10.4987C12.4448 9.98814 12.0311 9.57621 11.5223 9.57621H8.85517C7.32863 9.57621 6.08594 10.8189 6.08594 12.3454V31.9879C6.08594 33.5145 7.32863 34.7572 8.85517 34.7572H20.6973L19.9028 37.2079H17.6996C16.4949 37.22 16.4811 39.0373 17.6996 39.0546H31.3968C32.6101 39.0287 32.6118 37.2321 31.3968 37.2079H29.1935L28.3991 34.7572H40.2394C41.766 34.7572 43.0087 33.5145 43.0087 31.9879C43.0087 31.9862 43.0069 28.9158 43.0087 28.9141L43.0102 28.9143ZM27.2535 37.2082H21.8448L22.6393 34.7575H26.4608L27.2553 37.2082H27.2535ZM40.2396 32.9107H8.85561C8.34678 32.9107 7.93312 32.4971 7.93312 31.9882V29.8369H41.1639V31.9882C41.1639 32.4971 40.7502 32.9107 40.2414 32.9107H40.2396Z" fill="#FD1716"/>
<path d="M24.5506 30.4492C23.3373 30.47 23.3373 32.2752 24.5506 32.296C25.7639 32.2752 25.7639 30.47 24.5506 30.4492Z" fill="#FD1716"/>
<path d="M29.9153 13.221C31.0524 13.2019 31.0524 11.5092 29.9153 11.4902C28.7782 11.5093 28.7782 13.202 29.9153 13.221Z" fill="#FD1716"/>
<path d="M29.9153 17.0296C31.0524 17.0105 31.0524 15.3178 29.9153 15.2988C28.7782 15.3179 28.7782 17.0106 29.9153 17.0296Z" fill="#FD1716"/>
<path d="M31.8177 15.1253C32.9548 15.1062 32.9548 13.4135 31.8177 13.3945C30.6806 13.4136 30.6806 15.1063 31.8177 15.1253Z" fill="#FD1716"/>
<path d="M28.0091 15.1253C29.1462 15.1062 29.1462 13.4135 28.0091 13.3945C26.872 13.4136 26.872 15.1063 28.0091 15.1253Z" fill="#FD1716"/>
<path d="M16.9896 15.183H17.8584V16.0518C17.8792 17.2634 19.6844 17.2651 19.7051 16.0518V15.183H20.574C21.7855 15.1622 21.7872 13.357 20.574 13.3362H19.7051V12.4674C19.7051 11.9569 19.2915 11.5449 18.7827 11.5449C18.2721 11.5449 17.8602 11.9586 17.8602 12.4674V13.3362H16.9913C15.7798 13.357 15.7781 15.1622 16.9913 15.183H16.9896Z" fill="#FD1716"/>
<path d="M16.9481 24.2605C18.8658 24.2605 20.4252 22.701 20.4252 20.7833V19.8245C22.0037 19.4818 22.9798 18.5385 23.4454 17.9622H25.6504C26.1178 18.5385 27.0922 19.4818 28.6706 19.8245V20.7833C28.8126 25.3749 35.4794 25.3785 35.6247 20.7833V14.1062C35.6247 11.041 33.1307 8.54688 30.0654 8.54688H19.0319C15.9667 8.54688 13.4727 11.0409 13.4727 14.1062V20.7833C13.4727 22.701 15.0321 24.2605 16.9498 24.2605H16.9481ZM15.3177 14.106C15.3177 12.0585 16.9827 10.3935 19.0319 10.3935H30.0654C32.1129 10.3935 33.7797 12.0585 33.7797 14.106V20.7832C33.7208 22.9328 30.576 22.9346 30.5189 20.7832V19.023C30.5189 18.5349 30.1398 18.1316 29.6518 18.1022C27.7808 17.988 26.957 16.6345 26.9276 16.5843C26.7631 16.2953 26.4568 16.117 26.1245 16.117H22.9745C22.6422 16.117 22.3358 16.2953 22.1714 16.5843C22.1628 16.5982 21.325 17.9863 19.4472 18.1022C18.9591 18.1316 18.5801 18.5366 18.5801 19.023V20.7832C18.5264 22.9294 15.3747 22.9346 15.3193 20.7832V14.106H15.3177Z" fill="#FD1716"/>
</svg>
