<svg width="61" height="62" viewBox="0 0 61 62" fill="none" xmlns="http://www.w3.org/2000/svg">
<rect x="0.851109" y="1.26712" width="59.4649" height="59.4649" rx="8.7095" stroke="#FD1716" stroke-width="0.600655"/>
<path d="M41.0917 34.8611C42.0483 34.8611 42.8239 34.0854 42.8239 33.1288C42.8239 32.1721 42.0483 31.3965 41.0917 31.3965C40.135 31.3965 39.3594 32.1721 39.3594 33.1288C39.3594 34.0854 40.135 34.8611 41.0917 34.8611ZM41.0917 32.6311C41.3631 32.6311 41.5894 32.8508 41.5894 33.1288C41.5894 33.4002 41.3696 33.6265 41.0917 33.6265C40.8202 33.6265 40.594 33.4067 40.594 33.1288C40.594 32.8573 40.8202 32.6311 41.0917 32.6311Z" fill="#FD1716"/>
<path d="M51.1886 16.8404C50.7556 13.1367 47.6077 10.3379 43.8652 10.3379C39.7995 10.3379 36.4965 13.6409 36.4965 17.7066C36.4965 17.8229 36.5094 17.9393 36.5159 18.0556H17.6288C16.9695 18.0556 16.3296 18.3271 15.8771 18.786C15.4053 19.2514 15.1467 19.8719 15.1467 20.5442V36.9298C12.3803 37.9898 10.4023 40.6658 10.4023 43.8072C10.4023 47.8729 13.7118 51.1823 17.771 51.1823C21.2421 51.1823 24.2736 48.7261 24.9781 45.3391C25.1138 44.6669 25.1591 44.0464 25.1332 43.4646H40.9694H42.9732C44.2207 43.4646 45.2355 42.4498 45.2355 41.2023V36.8005H45.2808C45.9465 36.8005 46.483 36.2575 46.483 35.5982V30.3755C46.483 29.7098 45.9401 29.1733 45.2808 29.1733H45.2355V24.9654C48.1054 24.4159 50.4518 22.186 51.0658 19.2579C51.2468 18.3788 51.2856 17.5708 51.1886 16.8404ZM16.7497 19.6586C16.976 19.4259 17.2992 19.2902 17.6288 19.2902H36.6775C36.8779 20.1887 37.2334 21.0289 37.7311 21.7723L17.6288 21.7981C16.9437 21.7981 16.3878 21.2358 16.3878 20.5442C16.3813 20.208 16.5106 19.8913 16.7497 19.6586ZM23.7694 45.0806C23.1812 47.8923 20.6603 49.9348 17.771 49.9348C14.3905 49.9348 11.6369 47.1813 11.6369 43.8007C11.6369 41.0536 13.4532 38.7267 15.9482 37.951C16.2068 37.867 16.4783 37.8153 16.7497 37.7636C16.8144 37.7507 16.8726 37.7442 16.9372 37.7377C17.2151 37.699 17.4931 37.6731 17.7775 37.6731C20.6215 37.6731 23.0842 39.651 23.7371 42.3658V42.3722C23.7759 42.5468 23.8146 42.7278 23.8405 42.9087C23.847 42.9669 23.8599 43.0251 23.8663 43.0833C23.8663 43.0897 23.8663 43.0897 23.8663 43.0962C23.9504 43.6909 23.9181 44.3502 23.7694 45.0806ZM24.9716 42.2171C24.3317 39.289 21.9725 37.059 19.0508 36.5484C19.0379 36.5484 19.025 36.5419 19.0056 36.5419C18.6048 36.4708 18.1912 36.4321 17.771 36.4321C17.6224 36.4321 17.4802 36.445 17.3315 36.4515C17.241 36.4579 17.144 36.4579 17.0535 36.4644C16.9372 36.4773 16.8273 36.4967 16.7174 36.5096C16.6075 36.5226 16.4912 36.5355 16.3813 36.5549V22.7031C16.7497 22.9164 17.1699 23.0392 17.6288 23.0392L38.7524 23.0133C38.7782 23.0327 38.8041 23.0586 38.8299 23.0779V23.0715C39.5668 23.7631 40.4459 24.3061 41.4219 24.6551V24.6616C41.4348 24.668 41.4542 24.6745 41.4671 24.681V29.1539H38.3193C37.8539 29.1539 37.4467 29.393 37.2075 29.7485C37.0589 29.9618 36.9748 30.2204 36.9748 30.5048V35.4431C36.9748 35.9667 37.2786 36.4191 37.7182 36.6389C37.8992 36.7294 38.0995 36.7876 38.3193 36.7876H41.4671V41.7388C41.4671 42.0038 41.2538 42.2171 40.9824 42.2171H24.9716ZM44.0074 41.1894C44.0074 41.7582 43.5485 42.2171 42.9797 42.2171H42.6177C42.6629 42.062 42.6953 41.9069 42.6953 41.7388V36.7876H44.0074V41.1894ZM45.2937 35.5465H38.3128C38.2999 35.5465 38.2934 35.5336 38.2805 35.5336C38.2417 35.5142 38.2094 35.4819 38.2094 35.4366V30.4983C38.2094 30.4725 38.2223 30.4466 38.2417 30.4208C38.2611 30.4014 38.287 30.3885 38.3193 30.3885H45.2678L45.2937 35.5465ZM44.0074 29.1539H42.6953V24.9783C43.0766 25.0429 43.4709 25.0817 43.8652 25.0817C43.9104 25.0817 43.9557 25.0752 44.0074 25.0752V29.1539ZM49.8636 18.9929C49.2754 21.8046 46.7545 23.8471 43.8652 23.8471C40.4847 23.8471 37.7311 21.0936 37.7311 17.713C37.7311 14.3325 40.4847 11.5854 43.8652 11.5854C46.9807 11.5854 49.5985 13.9123 49.9541 16.9956C49.9541 17.002 49.9541 17.002 49.9541 17.0085C50.0381 17.5967 50.0058 18.2689 49.8636 18.9929Z" fill="#FD1716"/>
<path d="M17.7769 41.4036C18.2165 41.4036 18.572 41.7591 18.572 42.1986C18.572 42.5412 18.8499 42.8192 19.1925 42.8192C19.5351 42.8192 19.813 42.5412 19.813 42.1986C19.813 41.2937 19.2183 40.5375 18.3974 40.2724V39.9428C18.3974 39.6002 18.1195 39.3223 17.7769 39.3223C17.4343 39.3223 17.1564 39.6002 17.1564 39.9428V40.2724C16.342 40.5375 15.7408 41.2937 15.7408 42.1986C15.7408 43.3169 16.6522 44.2283 17.7705 44.2283C18.21 44.2283 18.5655 44.5838 18.5655 45.0233C18.5655 45.4628 18.21 45.8183 17.7705 45.8183C17.3309 45.8183 16.9754 45.4628 16.9754 45.0233C16.9754 44.6807 16.6975 44.4028 16.3549 44.4028C16.0123 44.4028 15.7344 44.6807 15.7344 45.0233C15.7344 45.9282 16.329 46.6845 17.1499 46.9495V47.2791C17.1499 47.6217 17.4279 47.8997 17.7705 47.8997C18.113 47.8997 18.391 47.6217 18.391 47.2791V46.9495C19.2054 46.6845 19.8065 45.9282 19.8065 45.0233C19.8065 43.9051 18.8952 42.9937 17.7769 42.9937C17.3374 42.9937 16.9819 42.6382 16.9819 42.1986C16.9819 41.7591 17.3374 41.4036 17.7769 41.4036Z" fill="#FD1716"/>
<path d="M47.7089 42.2188C47.3663 42.2188 47.0884 42.4967 47.0884 42.8393V43.783C47.0884 45.6122 45.6017 47.0989 43.7725 47.0989H34.0381L34.6586 46.4784C34.8978 46.2392 34.8978 45.8449 34.6586 45.6058C34.4194 45.3666 34.0252 45.3666 33.786 45.6058L32.1119 47.2734C31.9955 47.3833 31.918 47.5449 31.918 47.7194C31.918 47.881 31.9826 48.0426 32.099 48.1589L33.7795 49.8331C33.9023 49.9559 34.0575 50.014 34.2191 50.014C34.3807 50.014 34.5358 49.9559 34.6586 49.8331C34.8978 49.5939 34.8978 49.1996 34.6586 48.9604L34.0316 48.3399H43.7725C46.2869 48.3399 48.3294 46.2974 48.3294 43.783V42.8393C48.3294 42.4902 48.0515 42.2188 47.7089 42.2188Z" fill="#FD1716"/>
<path d="M12.8158 19.9505C13.1584 19.9505 13.4364 19.6726 13.4364 19.33V18.3863C13.4364 16.5571 14.923 15.0704 16.7523 15.0704H26.4931L25.8726 15.6909C25.6335 15.9301 25.6335 16.3244 25.8726 16.5635C25.9954 16.6863 26.1506 16.7445 26.3122 16.7445C26.4673 16.7445 26.6289 16.6863 26.7517 16.5635L28.4258 14.8894C28.5421 14.7795 28.6197 14.6179 28.6197 14.4434C28.6197 14.2818 28.5551 14.1202 28.4387 14.0039L26.7582 12.3298C26.519 12.0906 26.1247 12.0906 25.8855 12.3298C25.6464 12.5689 25.6464 12.9632 25.8855 13.2024L26.5125 13.8229H16.7523C14.2379 13.8229 12.1953 15.8654 12.1953 18.3798V19.3235C12.2018 19.6726 12.4733 19.9505 12.8158 19.9505Z" fill="#FD1716"/>
<path d="M44.0251 17.072C43.4757 17.072 43.0232 16.626 43.0232 16.0701C43.0232 15.5142 43.4692 15.0682 44.0251 15.0682C44.581 15.0682 45.027 15.5142 45.027 16.0701C45.027 16.4256 45.3179 16.7165 45.6734 16.7165C46.0289 16.7165 46.3197 16.4256 46.3197 16.0701C46.3197 15.0294 45.6216 14.1633 44.6715 13.8789V13.4393C44.6715 13.0838 44.3806 12.793 44.0251 12.793C43.6696 12.793 43.3787 13.0838 43.3787 13.4393V13.8789C42.4286 14.1633 41.7305 15.0294 41.7305 16.0701C41.7305 17.337 42.7582 18.3647 44.0251 18.3647C44.5745 18.3647 45.027 18.8107 45.027 19.3666C45.027 19.916 44.5745 20.3685 44.0251 20.3685C43.4757 20.3685 43.0232 19.9225 43.0232 19.3666C43.0232 19.0111 42.7324 18.7202 42.3768 18.7202C42.0213 18.7202 41.7305 19.0111 41.7305 19.3666C41.7305 20.4073 42.4286 21.2734 43.3787 21.5578V21.9974C43.3787 22.3529 43.6696 22.6437 44.0251 22.6437C44.3806 22.6437 44.6715 22.3529 44.6715 21.9974V21.5578C45.6216 21.2799 46.3197 20.4073 46.3197 19.3666C46.3197 18.0997 45.292 17.072 44.0251 17.072Z" fill="#FD1716"/>
</svg>
