<svg width="61" height="62" viewBox="0 0 61 62" fill="none" xmlns="http://www.w3.org/2000/svg">
<rect x="1.23783" y="1.26712" width="59.4649" height="59.4649" rx="8.7095" stroke="#FD1716" stroke-width="0.600655"/>
<path d="M29.7629 32.367H26.4823C26.3528 32.367 26.2286 32.4184 26.1371 32.51C26.0455 32.6016 25.9941 32.7258 25.9941 32.8553V42.7282C25.9941 42.8577 26.0455 42.9819 26.1371 43.0735C26.2286 43.1651 26.3528 43.2165 26.4823 43.2165H29.7629C29.827 43.2165 29.8905 43.2039 29.9497 43.1794C30.0089 43.1548 30.0627 43.1188 30.108 43.0735C30.1533 43.0281 30.1892 42.9743 30.2137 42.9151C30.2382 42.8558 30.2508 42.7923 30.2507 42.7282V32.8553C30.2508 32.7912 30.2382 32.7277 30.2137 32.6685C30.1892 32.6092 30.1533 32.5554 30.108 32.51C30.0627 32.4647 30.0089 32.4287 29.9497 32.4042C29.8905 32.3796 29.827 32.367 29.7629 32.367ZM29.2732 42.2399H26.9706V33.3454H29.2732V42.2399ZM23.5834 28.7121H20.3029C20.2388 28.712 20.1753 28.7246 20.1161 28.7491C20.0568 28.7735 20.003 28.8095 19.9576 28.8548C19.9123 28.9001 19.8763 28.9539 19.8518 29.0131C19.8272 29.0723 19.8146 29.1358 19.8146 29.1999V42.7282C19.8146 42.8577 19.866 42.9819 19.9576 43.0735C20.0492 43.1651 20.1734 43.2165 20.3029 43.2165H23.5834C23.6475 43.2165 23.711 43.2039 23.7702 43.1794C23.8295 43.1548 23.8833 43.1188 23.9286 43.0735C23.9739 43.0281 24.0098 42.9743 24.0343 42.9151C24.0588 42.8558 24.0713 42.7923 24.0713 42.7282V29.1999C24.0713 29.1358 24.0587 29.0724 24.0341 29.0132C24.0096 28.954 23.9737 28.9002 23.9284 28.8549C23.8831 28.8096 23.8293 28.7737 23.7701 28.7492C23.7109 28.7247 23.6475 28.7121 23.5834 28.7121ZM23.0952 42.2399H20.7912V29.6868H23.0952V42.2399ZM17.404 33.7139H14.1234C13.9939 33.7139 13.8697 33.7653 13.7782 33.8569C13.6866 33.9485 13.6352 34.0727 13.6352 34.2022V42.7282C13.6352 42.8577 13.6866 42.9819 13.7782 43.0735C13.8697 43.1651 13.9939 43.2165 14.1234 43.2165H17.404C17.5335 43.2165 17.6577 43.1651 17.7493 43.0735C17.8408 42.9819 17.8923 42.8577 17.8923 42.7282V34.2022C17.8923 34.0727 17.8408 33.9485 17.7493 33.8569C17.6577 33.7653 17.5335 33.7139 17.404 33.7139ZM16.9157 42.2399H14.6117V34.69H16.9157V42.2399ZM34.7901 21.821V23.7202C34.7921 23.7856 34.781 23.8506 34.7573 23.9116C34.7337 23.9726 34.6981 24.0281 34.6526 24.0751C34.607 24.122 34.5526 24.1593 34.4924 24.1848C34.4322 24.2103 34.3674 24.2234 34.3021 24.2234C34.2367 24.2234 34.172 24.2103 34.1118 24.1848C34.0516 24.1593 33.9971 24.122 33.9516 24.0751C33.906 24.0281 33.8704 23.9726 33.8468 23.9116C33.8232 23.8506 33.812 23.7856 33.814 23.7202V23.0191L28.4709 28.4647C28.3945 28.5426 28.2942 28.5926 28.186 28.6067C28.0778 28.6209 27.968 28.5984 27.8742 28.5428L21.9865 25.0612L16.0707 29.8497C16.0209 29.8901 15.9636 29.9202 15.9022 29.9383C15.8407 29.9565 15.7763 29.9624 15.7125 29.9557C15.6488 29.949 15.587 29.9298 15.5307 29.8992C15.4744 29.8686 15.4247 29.8272 15.3843 29.7774C15.344 29.7275 15.3139 29.6703 15.2957 29.6088C15.2776 29.5474 15.2717 29.4829 15.2784 29.4192C15.2851 29.3554 15.3043 29.2937 15.3349 29.2373C15.3655 29.181 15.4069 29.1313 15.4567 29.091L21.6362 24.0887C21.7136 24.0262 21.8083 23.9888 21.9076 23.9816C22.0069 23.9743 22.106 23.9976 22.1916 24.0483L28.0421 27.5086L33.1392 22.3125H32.4045C32.275 22.3125 32.1508 22.2611 32.0592 22.1695C31.9676 22.0779 31.9162 21.9537 31.9162 21.8242C31.9162 21.6947 31.9676 21.5705 32.0592 21.4789C32.1508 21.3874 32.275 21.3359 32.4045 21.3359H34.3005C34.3283 21.3362 34.3561 21.3388 34.3835 21.3436H34.3921C34.42 21.349 34.4473 21.3567 34.4738 21.3668L34.4834 21.3704C34.51 21.3813 34.5357 21.3945 34.5601 21.4099L34.5678 21.4144C34.5936 21.4315 34.6177 21.451 34.6399 21.4725H34.6426C34.6659 21.4953 34.6867 21.5204 34.7048 21.5474C34.7227 21.5733 34.7379 21.601 34.7502 21.63V21.6323C34.7738 21.6886 34.7862 21.749 34.787 21.8102L34.7901 21.821ZM18.0357 15.8381C18.0357 15.774 18.0483 15.7105 18.0729 15.6512C18.0974 15.592 18.1334 15.5382 18.1787 15.4928C18.2241 15.4475 18.2779 15.4115 18.3371 15.387C18.3964 15.3624 18.4599 15.3498 18.524 15.3498H35.7463C35.8758 15.3498 36 15.4012 36.0916 15.4928C36.1831 15.5844 36.2346 15.7086 36.2346 15.8381C36.2346 15.9676 36.1831 16.0918 36.0916 16.1834C36 16.2749 35.8758 16.3264 35.7463 16.3264H18.524C18.4599 16.3264 18.3964 16.3138 18.3371 16.2892C18.2779 16.2647 18.2241 16.2287 18.1787 16.1834C18.1334 16.138 18.0974 16.0842 18.0729 16.025C18.0483 15.9657 18.0357 15.9022 18.0357 15.8381ZM13.8312 18.8786C13.8312 18.7491 13.8826 18.6249 13.9742 18.5333C14.0658 18.4417 14.19 18.3903 14.3195 18.3903H35.7463C35.8758 18.3903 36 18.4417 36.0916 18.5333C36.1831 18.6249 36.2346 18.7491 36.2346 18.8786C36.2346 19.0081 36.1831 19.1323 36.0916 19.2239C36 19.3154 35.8758 19.3669 35.7463 19.3669H14.3195C14.19 19.3669 14.0658 19.3154 13.9742 19.2239C13.8826 19.1323 13.8312 19.0081 13.8312 18.8786ZM48.6448 36.4771C47.1618 34.9919 45.1826 34.1066 43.087 33.9912V15.1129C43.087 14.9834 43.0356 14.8592 42.944 14.7676C42.8524 14.6761 42.7282 14.6246 42.5987 14.6246H39.7593V11.7847C39.7593 11.6553 39.7079 11.5312 39.6164 11.4398C39.5249 11.3483 39.4008 11.2969 39.2714 11.2969H15.4213C15.3573 11.2968 15.2938 11.3094 15.2346 11.3339C15.1754 11.3585 15.1217 11.3945 15.0764 11.4398L10.4476 16.0686C10.4023 16.1139 10.3664 16.1677 10.3418 16.2268C10.3173 16.286 10.3047 16.3495 10.3047 16.4135V47.2563C10.3047 47.3205 10.3174 47.3841 10.342 47.4435C10.3666 47.5028 10.4027 47.5567 10.4482 47.6021C10.4937 47.6474 10.5477 47.6834 10.6071 47.7078C10.6665 47.7323 10.7301 47.7448 10.7943 47.7446H13.6338V50.584C13.6338 50.7134 13.6852 50.8375 13.7767 50.929C13.8682 51.0205 13.9922 51.0719 14.1216 51.0719H42.409C42.4213 51.0719 42.4336 51.0719 42.4458 51.0719C42.4966 51.0719 42.5479 51.0719 42.5987 51.0719C44.2898 51.0721 45.9429 50.5709 47.349 49.6315C48.7551 48.6922 49.8511 47.3569 50.4982 45.7946C51.1454 44.2323 51.3148 42.5132 50.9849 40.8547C50.6549 39.1962 49.8406 37.6728 48.6448 36.4771ZM42.11 15.6021V33.9912C41.3081 34.0361 40.5165 34.1934 39.7584 34.4586V15.6003L42.11 15.6021ZM14.933 12.9632V15.9239H11.9729L14.933 12.9632ZM11.2822 16.9H15.4213C15.5508 16.9 15.675 16.8485 15.7666 16.757C15.8582 16.6654 15.9096 16.5412 15.9096 16.4117V12.273H38.7813V34.8724C37.956 35.2835 37.2028 35.8259 36.5513 36.4785C36.5096 36.5198 36.4692 36.562 36.4284 36.6042V26.5556C36.4284 26.4268 36.3775 26.3033 36.2868 26.2119C36.1961 26.1205 36.0729 26.0687 35.9442 26.0677H32.6618C32.5977 26.0677 32.5342 26.0803 32.475 26.1047C32.4157 26.1292 32.3619 26.1652 32.3165 26.2105C32.2712 26.2558 32.2352 26.3096 32.2107 26.3688C32.1861 26.428 32.1735 26.4915 32.1735 26.5556V42.7282C32.1735 42.8577 32.2249 42.9819 32.3165 43.0735C32.4081 43.1651 32.5323 43.2165 32.6618 43.2165H34.0836C34.1835 44.4666 34.5575 45.6793 35.179 46.7685H11.2822V16.9ZM34.0581 42.2399H33.1505V27.0439H35.454V37.8253C34.5909 39.1402 34.1079 40.6679 34.0581 42.2399ZM14.6099 50.0957V47.7446H35.8284C36.581 48.7187 37.5334 49.5204 38.6216 50.0957H14.6099ZM47.9541 47.878C46.8949 48.9373 45.5455 49.6587 44.0763 49.951C42.6072 50.2434 41.0843 50.0935 39.7004 49.5203C38.3164 48.9471 37.1335 47.9764 36.3013 46.7309C35.469 45.4854 35.0248 44.0211 35.0248 42.5231C35.0248 41.0252 35.469 39.5609 36.3013 38.3154C37.1335 37.0699 38.3164 36.0992 39.7004 35.526C41.0843 34.9528 42.6072 34.8029 44.0763 35.0952C45.5455 35.3875 46.8949 36.1089 47.9541 37.1682C48.6632 37.8681 49.2262 38.7019 49.6105 39.6211C49.9947 40.5404 50.1926 41.5268 50.1926 42.5231C50.1926 43.5195 49.9947 44.5059 49.6105 45.4251C49.2262 46.3443 48.6632 47.1781 47.9541 47.878ZM47.2248 37.8943C46.3101 36.9803 45.1449 36.358 43.8765 36.1061C42.6081 35.8542 41.2936 35.984 40.099 36.4791C38.9044 36.9742 37.8834 37.8124 37.1651 38.8877C36.4468 39.9629 36.0634 41.227 36.0634 42.5202C36.0634 43.8133 36.4468 45.0774 37.1651 46.1527C37.8834 47.2279 38.9044 48.0661 40.099 48.5612C41.2936 49.0563 42.6081 49.1861 43.8765 48.9342C45.1449 48.6823 46.3101 48.06 47.2248 47.146C48.4491 45.9183 49.1365 44.2551 49.1365 42.5213C49.1365 40.7875 48.4491 39.1244 47.2248 37.8966V37.8943ZM46.5346 46.4581C45.7564 47.2356 44.7651 47.765 43.6861 47.9793C42.607 48.1936 41.4887 48.0831 40.4724 47.6619C39.4562 47.2407 38.5876 46.5277 37.9765 45.6129C37.3654 44.6982 37.0393 43.6228 37.0393 42.5227C37.0393 41.4226 37.3654 40.3472 37.9765 39.4324C38.5876 38.5176 39.4562 37.8046 40.4724 37.3834C41.4887 36.9622 42.607 36.8518 43.6861 37.066C44.7651 37.2803 45.7564 37.8097 46.5346 38.5873C47.0536 39.1029 47.4654 39.716 47.7465 40.3914C48.0275 41.0668 48.1722 41.7911 48.1722 42.5227C48.1722 43.2542 48.0275 43.9785 47.7465 44.6539C47.4654 45.3293 47.0536 45.9425 46.5346 46.4581ZM41.7746 41.2103C41.775 41.4287 41.8619 41.6381 42.0164 41.7926C42.1709 41.9471 42.3803 42.034 42.5987 42.0344C43.0337 42.0341 43.454 42.1913 43.7821 42.4769C44.1101 42.7626 44.3236 43.1573 44.3832 43.5882C44.4427 44.019 44.3443 44.4569 44.106 44.8208C43.8677 45.1847 43.5058 45.45 43.087 45.5677V46.1935C43.089 46.2588 43.0779 46.3239 43.0542 46.3849C43.0306 46.4458 42.995 46.5014 42.9495 46.5483C42.9039 46.5953 42.8495 46.6326 42.7893 46.6581C42.729 46.6835 42.6643 46.6967 42.599 46.6967C42.5336 46.6967 42.4689 46.6835 42.4087 46.6581C42.3485 46.6326 42.294 46.5953 42.2485 46.5483C42.2029 46.5014 42.1673 46.4458 42.1437 46.3849C42.1201 46.3239 42.1089 46.2588 42.1109 46.1935V45.5677C41.7337 45.4607 41.4017 45.2336 41.1652 44.921C40.9286 44.6083 40.8004 44.2271 40.7999 43.8351C40.7999 43.7056 40.8513 43.5814 40.9429 43.4898C41.0344 43.3982 41.1586 43.3468 41.2881 43.3468C41.4177 43.3468 41.5419 43.3982 41.6334 43.4898C41.725 43.5814 41.7764 43.7056 41.7764 43.8351C41.7764 43.9982 41.8246 44.1577 41.9152 44.2933C42.0058 44.429 42.1346 44.5348 42.2852 44.5972C42.4359 44.6597 42.6018 44.6761 42.7618 44.6443C42.9217 44.6125 43.0687 44.5339 43.1841 44.4186C43.2994 44.3032 43.3779 44.1563 43.4097 43.9963C43.4415 43.8363 43.4252 43.6705 43.3627 43.5198C43.3002 43.3691 43.1945 43.2403 43.0588 43.1497C42.9232 43.0592 42.7637 43.0109 42.6005 43.011C42.1658 43.0107 41.7458 42.8532 41.4181 42.5675C41.0905 42.2818 40.8772 41.8872 40.8178 41.4565C40.7583 41.0259 40.8567 40.5882 41.0947 40.2244C41.3327 39.8606 41.6943 39.5952 42.1127 39.4772V38.8537C42.1107 38.7883 42.1219 38.7232 42.1455 38.6623C42.1691 38.6013 42.2048 38.5457 42.2503 38.4988C42.2958 38.4519 42.3503 38.4146 42.4105 38.3891C42.4707 38.3636 42.5354 38.3505 42.6008 38.3505C42.6662 38.3505 42.7309 38.3636 42.7911 38.3891C42.8513 38.4146 42.9058 38.4519 42.9513 38.4988C42.9968 38.5457 43.0324 38.6013 43.0561 38.6623C43.0797 38.7232 43.0908 38.7883 43.0888 38.8537V39.479C43.4663 39.5859 43.7986 39.8129 44.0354 40.1256C44.2723 40.4384 44.4007 40.8198 44.4012 41.2121C44.3974 41.3389 44.3443 41.4593 44.2532 41.5477C44.162 41.6361 44.0401 41.6855 43.9132 41.6855C43.7863 41.6855 43.6643 41.6361 43.5732 41.5477C43.4821 41.4593 43.429 41.3389 43.4251 41.2121C43.4277 41.1022 43.4083 40.9929 43.368 40.8906C43.3277 40.7884 43.2674 40.6952 43.1906 40.6166C43.1138 40.5379 43.0221 40.4755 42.9208 40.4328C42.8195 40.3902 42.7107 40.3682 42.6008 40.3682C42.4909 40.3682 42.3821 40.3902 42.2808 40.4328C42.1795 40.4755 42.0877 40.5379 42.0109 40.6166C41.9341 40.6952 41.8738 40.7884 41.8335 40.8906C41.7933 40.9929 41.7739 41.1022 41.7764 41.2121L41.7746 41.2103Z" fill="#FD1716"/>
</svg>
