<svg width="61" height="62" viewBox="0 0 61 62" fill="none" xmlns="http://www.w3.org/2000/svg">
<rect x="0.68314" y="1.26712" width="59.4649" height="59.4649" rx="8.7095" stroke="#FD1716" stroke-width="0.600655"/>
<path d="M10.2684 51.1823H50.0917C50.3735 51.1823 50.6023 50.9541 50.6023 50.6718C50.6023 50.3895 50.3735 50.1612 50.0917 50.1612H40.6679V40.3152C40.8746 40.3341 41.1483 40.3514 41.4674 40.3514C42.5692 40.3514 44.1861 40.1441 45.2471 39.0827C46.9523 37.3774 46.4535 34.2375 46.431 34.1048C46.3953 33.8893 46.2268 33.7208 46.0114 33.6851C45.8791 33.6631 42.7397 33.1638 41.0334 34.8691C40.8961 35.0064 40.7776 35.1555 40.6679 35.3092V30.3016C40.8746 30.3205 41.1478 30.3379 41.4664 30.3379C42.5682 30.3379 44.1856 30.1306 45.2471 29.0692C46.9523 27.3634 46.4535 24.224 46.431 24.0912C46.3953 23.8758 46.2268 23.7073 46.0114 23.6716C45.8781 23.6491 42.7387 23.1498 41.0334 24.8555C40.8961 24.9929 40.7776 25.142 40.6679 25.2956V20.2876C40.8746 20.3065 41.1483 20.3238 41.4674 20.3238C42.5692 20.3238 44.1861 20.1166 45.2471 19.0551C46.9523 17.3494 46.4535 14.2099 46.431 14.0772C46.3953 13.8617 46.2268 13.6933 46.0114 13.6575C45.8791 13.6356 42.7397 13.1362 41.0334 14.8415C40.8961 14.9788 40.7776 15.1279 40.6679 15.2816V10.8484C40.6679 10.5661 40.4391 10.3379 40.1573 10.3379C39.8755 10.3379 39.6468 10.5661 39.6468 10.8484V20.8125C39.5401 20.6654 39.4252 20.5225 39.2935 20.3902C37.5877 18.6845 34.4483 19.1833 34.3155 19.2062C34.1001 19.242 33.9316 19.4105 33.8959 19.6259C33.8739 19.7587 33.3746 22.8981 35.0804 24.6038C36.1418 25.6653 37.7582 25.8726 38.86 25.8726C39.173 25.8726 39.4415 25.8557 39.6473 25.8373V30.8265C39.5406 30.6795 39.4257 30.5365 39.294 30.4048C37.5882 28.699 34.4483 29.1983 34.3161 29.2208C34.1006 29.2565 33.9321 29.425 33.8964 29.6405C33.8744 29.7732 33.3751 32.9126 35.0809 34.6184C36.1428 35.6798 37.7597 35.8871 38.8615 35.8871C39.174 35.8871 39.4425 35.8703 39.6478 35.8519V40.8405C39.5411 40.6935 39.4262 40.5505 39.2945 40.4183C37.5887 38.7125 34.4493 39.2113 34.3166 39.2343C34.1011 39.2701 33.9326 39.4385 33.8969 39.654C33.8749 39.7873 33.3756 42.9267 35.0814 44.6319C36.1428 45.6934 37.7592 45.9006 38.861 45.9006C39.174 45.9006 39.4425 45.8838 39.6483 45.8654V50.1612H20.6709V40.3152C20.8777 40.3341 21.1514 40.3514 21.4705 40.3514C22.5723 40.3514 24.1892 40.1441 25.2501 39.0827C26.9554 37.3774 26.4566 34.2375 26.4341 34.1048C26.3984 33.8893 26.2299 33.7208 26.0144 33.6851C25.8817 33.6626 22.7418 33.1638 21.0365 34.8691C20.8992 35.0064 20.7807 35.1555 20.6709 35.3092V30.3016C20.8777 30.3205 21.1509 30.3379 21.4694 30.3379C22.5712 30.3379 24.1887 30.1306 25.2501 29.0692C26.9554 27.3634 26.4566 24.224 26.4341 24.0912C26.3984 23.8758 26.2299 23.7073 26.0144 23.6716C25.8817 23.6491 22.7418 23.1498 21.0365 24.8555C20.8992 24.9929 20.7807 25.142 20.6709 25.2956V20.2876C20.8777 20.3065 21.1514 20.3238 21.4705 20.3238C22.5723 20.3238 24.1892 20.1166 25.2501 19.0551C26.9554 17.3494 26.4566 14.2099 26.4341 14.0772C26.3984 13.8617 26.2299 13.6933 26.0144 13.6575C25.8817 13.6351 22.7418 13.1362 21.0365 14.8415C20.8992 14.9788 20.7807 15.1279 20.6709 15.2816V10.8484C20.6709 10.5661 20.4422 10.3379 20.1604 10.3379C19.8786 10.3379 19.6498 10.5661 19.6498 10.8484V20.8125C19.5431 20.6654 19.4282 20.5225 19.2965 20.3902C17.5908 18.6845 14.4508 19.1833 14.3186 19.2062C14.1032 19.242 13.9347 19.4105 13.8989 19.6259C13.877 19.7587 13.3777 22.8981 15.0829 24.6038C16.1444 25.6653 17.7608 25.8726 18.8626 25.8726C19.1755 25.8726 19.4446 25.8557 19.6498 25.8373V30.8265C19.5431 30.6795 19.4282 30.5365 19.2965 30.4043C17.5913 28.6985 14.4508 29.1978 14.3186 29.2203C14.1032 29.256 13.9347 29.4245 13.8989 29.64C13.877 29.7727 13.3777 32.9121 15.0829 34.6179C16.1449 35.6793 17.7618 35.8866 18.8636 35.8866C19.176 35.8866 19.4451 35.8698 19.6503 35.8514V40.84C19.5436 40.693 19.4288 40.55 19.297 40.4178C17.5913 38.712 14.4514 39.2108 14.3191 39.2338C14.1037 39.2696 13.9352 39.438 13.8994 39.6535C13.8775 39.7862 13.3782 42.9261 15.0834 44.6314C16.1449 45.6928 17.7613 45.9001 18.8631 45.9001C19.176 45.9001 19.4451 45.8833 19.6503 45.8649V50.1612H10.2684C9.98654 50.1612 9.75781 50.3895 9.75781 50.6718C9.75781 50.9541 9.98654 51.1823 10.2684 51.1823ZM41.7554 35.591C42.7897 34.5571 44.666 34.5842 45.4671 34.65C45.5345 35.4491 45.5636 37.3218 44.5251 38.3608C43.4912 39.3946 41.6144 39.3681 40.8144 39.3022C40.748 38.5012 40.721 36.6254 41.7554 35.591ZM41.7554 25.5775C42.7897 24.5436 44.666 24.5696 45.4661 24.636C45.5319 25.4366 45.5595 27.3123 44.5251 28.3472C43.4907 29.3811 41.6144 29.3535 40.8134 29.2882C40.746 28.4887 40.7169 26.6159 41.7554 25.5775ZM41.7554 15.5629C42.7903 14.529 44.6665 14.5571 45.4661 14.622C45.5319 15.422 45.559 17.2978 44.5251 18.3327C43.4912 19.3666 41.6144 19.34 40.8144 19.2741C40.748 18.4736 40.721 16.5978 41.7554 15.5629ZM39.5125 24.8234C38.7114 24.8892 36.8356 24.9163 35.8018 23.8819C34.7674 22.8475 34.7944 20.9717 34.8603 20.1712C35.6609 20.1043 37.5366 20.0778 38.571 21.1121C39.6054 22.147 39.5783 24.0228 39.5125 24.8234ZM39.5125 34.8369C38.7104 34.9023 36.8356 34.9298 35.8018 33.896C34.7674 32.8616 34.7944 30.9858 34.8603 30.1847C35.6598 30.1173 37.5366 30.0913 38.571 31.1262C39.6054 32.1606 39.5783 34.0369 39.5125 34.8369ZM39.5125 44.8515C38.7114 44.9163 36.8356 44.9444 35.8018 43.91C34.7674 42.8761 34.7944 40.9998 34.8603 40.1993C35.6609 40.1329 37.5366 40.1058 38.571 41.1402C39.6054 42.1746 39.5783 44.0504 39.5125 44.8515ZM21.7584 35.591C22.7928 34.5571 24.6696 34.5842 25.4702 34.65C25.5376 35.4491 25.5667 37.3218 24.5282 38.3608C23.4938 39.3946 21.618 39.3681 20.8175 39.3022C20.7516 38.5012 20.7245 36.6254 21.7584 35.591ZM21.7584 25.5775C22.7923 24.5436 24.6686 24.5696 25.4691 24.636C25.535 25.4366 25.5626 27.3123 24.5282 28.3472C23.4938 29.3811 21.6165 29.3535 20.8164 29.2882C20.7496 28.4887 20.72 26.6159 21.7584 25.5775ZM21.7584 15.5629C22.7928 14.529 24.6701 14.5571 25.4691 14.622C25.535 15.422 25.5621 17.2978 24.5282 18.3327C23.4938 19.3666 21.618 19.34 20.8175 19.2741C20.7516 18.4736 20.7245 16.5978 21.7584 15.5629ZM19.5156 24.8239C18.7165 24.8923 16.8438 24.9209 15.8048 23.8819C14.771 22.8475 14.7975 20.9717 14.8639 20.1712C15.6649 20.1043 17.5407 20.0778 18.5746 21.1121C19.609 22.147 19.5814 24.0244 19.5156 24.8239ZM19.5156 34.8379C18.7165 34.9058 16.8438 34.9349 15.8048 33.896C14.771 32.8616 14.7975 30.9858 14.8639 30.1847C15.6639 30.1173 17.5407 30.0913 18.5746 31.1262C19.609 32.1611 19.5814 34.0379 19.5156 34.8379ZM19.5156 44.852C18.7165 44.9204 16.8438 44.949 15.8048 43.91C14.7704 42.8761 14.7975 40.9998 14.8639 40.1993C15.6649 40.1329 17.5407 40.1058 18.5746 41.1402C19.609 42.1746 19.5814 44.0519 19.5156 44.852Z" fill="#FD1716"/>
</svg>
