<svg width="61" height="62" viewBox="0 0 61 62" fill="none" xmlns="http://www.w3.org/2000/svg">
<rect x="1.12845" y="1.26712" width="59.4649" height="59.4649" rx="8.7095" stroke="#FD1716" stroke-width="0.600655"/>
<path fill-rule="evenodd" clip-rule="evenodd" d="M15.0393 33.7683C15.0393 34.0435 14.8163 34.2665 14.5411 34.2665C14.2659 34.2665 14.043 34.0435 14.043 33.7683V12.9967C14.043 11.5334 15.2385 10.3379 16.7018 10.3379H44.7301C46.1935 10.3379 47.389 11.5338 47.389 12.9967V33.7683C47.389 34.0435 47.166 34.2665 46.8908 34.2665C46.6156 34.2665 46.3926 34.0435 46.3926 33.7683V12.9967C46.3926 12.0837 45.6436 11.3342 44.7301 11.3342H16.7013C15.7879 11.3342 15.0388 12.0833 15.0388 12.9967V33.7683H15.0393ZM29.8201 30.0756V27.056C29.8201 26.7808 29.5972 26.5578 29.322 26.5578H28.7693L30.7157 23.0139L32.6621 26.5574H32.1095C31.8343 26.5574 31.6113 26.7803 31.6113 27.0555V30.0752C31.6113 30.3503 31.8343 30.5733 32.1095 30.5733C32.3847 30.5733 32.6076 30.3503 32.6076 30.0752V27.5537H33.5032V27.5528C33.8768 27.5532 34.1223 27.1498 33.9391 26.8161L31.1535 21.7456C30.9648 21.3981 30.4689 21.3977 30.2798 21.742L27.507 26.7895C27.2913 27.1549 27.5606 27.5537 27.9282 27.5537H28.8238V30.0752C28.8238 30.3503 29.0468 30.5733 29.322 30.5733C29.5972 30.5738 29.8201 30.3508 29.8201 30.0756ZM29.4296 48.8385C29.4296 49.1137 29.2066 49.3367 28.9314 49.3367C28.6562 49.3367 28.4333 49.1137 28.4333 48.8385V47.5592C27.6521 47.3935 26.9937 46.8317 26.9718 45.8944C26.9653 45.6206 27.1819 45.3931 27.4562 45.3867C27.73 45.3803 27.9575 45.5973 27.964 45.8711C27.9878 46.883 29.8966 46.85 29.8966 45.883C29.8966 45.4173 29.4126 45.1339 28.9291 45.1316C27.1174 45.1229 26.3266 43.1912 27.5734 42.1285C27.8106 41.9266 28.1054 41.7764 28.4333 41.6995V40.4316C28.4333 40.1565 28.6562 39.9335 28.9314 39.9335C29.2066 39.9335 29.4296 40.1565 29.4296 40.4316V41.6995C30.2286 41.8872 30.8709 42.5342 30.8911 43.3762C30.8975 43.65 30.6805 43.8775 30.4067 43.884C30.1329 43.8904 29.9053 43.6733 29.8989 43.3995C29.8824 42.6999 28.811 42.3794 28.2199 42.8831C27.6677 43.3537 28.0651 44.1349 28.9337 44.139C29.9754 44.144 30.8934 44.8583 30.8934 45.8825C30.8934 46.818 30.2222 47.3903 29.43 47.5583L29.4296 48.8385ZM22.2507 37.0082H20.2626V36.4697H22.2502C22.5254 36.4697 22.7484 36.2467 22.7484 35.9716C22.7484 35.6964 22.5254 35.4734 22.2502 35.4734H20.5204C20.851 34.6703 21.5776 33.712 22.4572 33.712C23.2864 33.712 24.0171 34.1735 24.3999 34.8915C24.529 35.1332 24.8294 35.2248 25.0711 35.0957C25.3129 34.967 25.4045 34.6662 25.2754 34.4244C24.7232 33.3883 23.6476 32.7157 22.4572 32.7157C20.998 32.7157 19.8913 34.1415 19.4646 35.4734H18.7856C18.5104 35.4734 18.2874 35.6964 18.2874 35.9716C18.2874 36.2467 18.5104 36.4697 18.7856 36.4697H19.2631V37.0082H18.7856C18.5104 37.0082 18.2874 37.2312 18.2874 37.5063C18.2874 37.7815 18.5104 38.0045 18.7856 38.0045H19.4646C19.8918 39.3364 20.998 40.7622 22.4572 40.7622C23.6128 40.7622 24.6531 40.1368 25.2222 39.1487C25.3587 38.9111 25.2767 38.608 25.0396 38.4715C24.8019 38.3351 24.4988 38.417 24.3624 38.6542C23.9736 39.3296 23.253 39.7654 22.4572 39.7654C21.5772 39.7654 20.8505 38.8071 20.5204 38.004H22.2502C22.5254 38.004 22.7484 37.781 22.7484 37.5059C22.7484 37.2312 22.5254 37.0082 22.2507 37.0082ZM41.5658 42.3396C41.841 42.3396 42.064 42.5625 42.064 42.8377C42.064 43.1129 41.841 43.3359 41.5658 43.3359H39.6354V45.2351C39.6354 45.5103 39.4125 45.7333 39.1373 45.7333C38.8621 45.7333 38.6391 45.5103 38.6391 45.2351V43.3359H36.7087C36.4336 43.3359 36.2106 43.1129 36.2106 42.8377C36.2106 42.5625 36.4336 42.3396 36.7087 42.3396H38.6391V41.8405H36.7087C36.4336 41.8405 36.2106 41.6175 36.2106 41.3423C36.2106 41.0672 36.4336 40.8442 36.7087 40.8442H37.9349L35.7088 38.618C35.5142 38.4234 35.5142 38.108 35.7088 37.9138C35.9034 37.7192 36.2184 37.7192 36.413 37.9138L39.1373 40.6381L41.8616 37.9138C42.0562 37.7192 42.3716 37.7192 42.5658 37.9138C42.7604 38.1084 42.7604 38.4239 42.5658 38.618L40.3396 40.8442H41.5658C41.841 40.8442 42.064 41.0672 42.064 41.3423C42.064 41.6175 41.841 41.8405 41.5658 41.8405H39.6354V42.3396H41.5658ZM22.2942 30.1919C18.6789 30.1919 15.7471 33.1232 15.7471 36.7389C15.7471 40.46 18.8446 43.4357 22.5726 43.28C21.7141 47.3537 24.8184 51.1823 28.9772 51.1823C31.8645 51.1823 34.3791 49.295 35.2253 46.5936C36.3164 47.4077 37.6703 47.8898 39.1364 47.8898C42.7517 47.8898 45.6834 44.9586 45.6834 41.3428C45.6834 37.727 42.7521 34.7962 39.1364 34.7962C36.2362 34.7962 33.7294 36.6941 32.8874 39.3859C31.6928 38.4949 30.2176 38.0288 28.7002 38.0947C29.5564 34.0325 26.4621 30.1919 22.2942 30.1919ZM28.3971 39.1134C27.5986 41.1647 25.8033 42.7004 23.6261 43.15C22.6545 46.6563 25.2863 50.1856 28.9777 50.1856C31.5916 50.1856 33.8315 48.3674 34.3942 45.8551C33.055 44.448 32.3787 42.4888 32.6479 40.4692C31.4804 39.4399 29.9639 38.9573 28.3971 39.1134ZM26.2195 32.8137C24.0519 30.6461 20.5374 30.6461 18.3698 32.8137C16.2023 34.9812 16.2023 38.4962 18.3698 40.6638C20.5374 42.8313 24.0519 42.8313 26.2195 40.6638C28.387 38.4962 28.387 34.9817 26.2195 32.8137ZM43.0621 37.4175C40.8946 35.25 37.38 35.25 35.212 37.4175C33.0444 39.585 33.0444 43.0996 35.212 45.2676C37.3795 47.4352 40.8941 47.4352 43.0621 45.2676C45.2296 43.1001 45.2296 39.5855 43.0621 37.4175ZM38.6213 19.6211H43.4211C43.6963 19.6211 43.9192 19.3982 43.9192 19.123C43.9192 18.8478 43.6963 18.6248 43.4211 18.6248H38.6213C38.3461 18.6248 38.1231 18.8478 38.1231 19.123C38.1231 19.3977 38.3461 19.6211 38.6213 19.6211ZM28.3156 19.6211H33.1154C33.3906 19.6211 33.6136 19.3982 33.6136 19.123C33.6136 18.8478 33.3906 18.6248 33.1154 18.6248H28.3156C28.0404 18.6248 27.8174 18.8478 27.8174 19.123C27.8174 19.3977 28.0404 19.6211 28.3156 19.6211ZM17.7572 12.4354C17.2142 12.4354 16.7714 12.8781 16.7714 13.4212V15.5663C16.7714 16.107 17.2142 16.5521 17.7572 16.5521H23.0639C23.3354 16.5521 23.5817 16.4413 23.7603 16.2631L23.7594 16.2622C23.9384 16.0827 24.0496 15.8364 24.0496 15.5667V13.4207C24.0496 12.8777 23.6069 12.4349 23.0639 12.4349H17.7572V12.4354ZM23.0533 13.4312H17.7677V15.5553H23.0533V13.4312ZM18.0104 19.6211H22.8107C23.0858 19.6211 23.3088 19.3982 23.3088 19.123C23.3088 18.8478 23.0858 18.6248 22.8107 18.6248H18.0104C17.7352 18.6248 17.5122 18.8478 17.5122 19.123C17.5122 19.3977 17.7352 19.6211 18.0104 19.6211Z" fill="#FD1716"/>
</svg>
