<svg width="80" height="80" viewBox="0 0 80 80" fill="none" xmlns="http://www.w3.org/2000/svg">
<rect width="80" height="80" fill="white"/>
<path d="M39.3974 5.13221C39.2705 5.20604 38.7395 5.96784 38.2161 6.82589C36.9036 8.98058 36.8894 8.98168 35.1263 7.12667C33.9789 5.91916 33.7017 5.69823 33.3325 5.70096C33.0919 5.70205 32.7884 5.78409 32.6571 5.88252C32.5259 5.98096 32.1562 6.76409 31.8346 7.62323C31.0985 9.59199 31.0635 9.65488 30.6556 9.73418C30.404 9.78121 29.9211 9.5116 28.7617 8.67925C27.9059 8.06402 27.0664 7.56089 26.8963 7.56089C26.1903 7.56089 25.9912 7.94698 25.6549 9.96715C25.2284 12.5358 25.2426 12.5271 22.9271 11.4754C21.9919 11.0511 21.106 10.7043 20.9567 10.7043C20.8074 10.7043 20.5236 10.8646 20.3278 11.0609C19.9712 11.4175 19.9707 11.4191 20.068 13.3829L20.1654 15.349L19.7935 15.548C19.4643 15.7241 19.2373 15.7028 17.7788 15.3577C15.8757 14.9082 15.4732 14.9202 15.0882 15.4397L14.806 15.8187L15.1844 17.4397C15.3922 18.3311 15.5918 19.1897 15.6296 19.3466C15.6662 19.5036 15.6022 19.7546 15.4874 19.9045C15.2971 20.1495 15.0953 20.1724 13.3327 20.1451C10.3511 20.098 10.1821 20.354 11.4131 23.0435C11.8058 23.8967 12.1268 24.6732 12.1268 24.7662C12.1268 25.2573 11.7347 25.4356 10.052 25.7106C9.11024 25.8638 8.29211 25.9896 8.23305 25.9896C8.17453 25.9896 7.99789 26.1181 7.84094 26.275C7.32851 26.7869 7.47398 27.2682 8.63555 28.9077C10.0826 30.9503 10.0804 30.9585 7.68945 31.8723C4.97093 32.9125 4.91569 33.1684 6.98562 35.1317C8.91336 36.9605 8.9161 36.9337 6.73351 38.3058C5.07976 39.3438 5.0546 39.3689 5.01249 39.9322C4.96163 40.6174 4.97366 40.6295 6.94734 41.8353C8.89969 43.0275 8.89969 43.0636 6.98398 44.876C4.92335 46.825 4.98679 47.1094 7.7075 48.1359C10.0848 49.0328 10.0881 49.0437 8.63829 51.0858C7.81688 52.2435 7.55492 52.7264 7.55492 53.0835C7.55492 53.7523 7.90328 53.923 9.98306 54.2724C11.7363 54.5677 12.1268 54.7411 12.1268 55.2245C12.1268 55.324 11.8053 56.1061 11.412 56.9619C10.1892 59.6252 10.3287 59.8467 13.2222 59.8467C15.9183 59.8467 15.8467 59.7647 15.2659 62.195C14.8284 64.0271 14.8213 64.3782 15.2178 64.7735C15.5207 65.0776 16.0928 65.0437 17.8811 64.6155C19.2477 64.2896 19.4872 64.2671 19.8039 64.4361L20.1648 64.6297L20.068 66.5952C19.9707 68.5601 19.9712 68.5612 20.3278 68.9183C20.5236 69.1152 20.8112 69.2749 20.9649 69.2749C21.1186 69.2749 22.0056 68.9304 22.9358 68.5071C25.2437 67.4593 25.2294 67.4505 25.6555 70.011C25.9929 72.0404 26.1898 72.4172 26.91 72.4172C27.0888 72.4172 27.9108 71.936 28.7366 71.3465C30.188 70.3112 30.5642 70.1488 30.9509 70.3949C31.0504 70.4578 31.4376 71.3082 31.8106 72.2843C32.3591 73.7199 32.5598 74.0945 32.8655 74.24C33.4463 74.5189 33.8061 74.2947 35.1722 72.8072C36.8216 71.0101 36.8894 71.0189 38.2358 73.2009C39.7233 75.6105 40.1083 75.605 41.633 73.1522C42.9466 71.0391 42.9313 71.0402 44.707 72.8952C45.8866 74.1257 46.1377 74.3226 46.5352 74.3226C46.789 74.3226 47.0925 74.2269 47.2079 74.1104C47.3249 73.9939 47.711 73.1337 48.0654 72.1985C48.4203 71.2633 48.7878 70.4485 48.883 70.3883C49.2587 70.1499 49.6475 70.3172 51.0967 71.3465C51.9499 71.9524 52.7527 72.4183 52.9435 72.4183C53.6523 72.4183 53.9082 71.9152 54.2024 69.9382C54.454 68.2528 54.5054 68.0909 54.8368 67.923C55.1628 67.7579 55.3586 67.8136 56.8876 68.5082C57.8179 68.9293 58.7049 69.2749 58.8586 69.2749C59.0122 69.2749 59.3048 69.1097 59.5061 68.9074L59.8736 68.541L59.7729 66.6553C59.6761 64.8561 59.6854 64.7588 59.972 64.499C60.2673 64.2321 60.2979 64.2332 61.949 64.6106C63.9483 65.0672 64.3213 65.0792 64.697 64.7035C65.064 64.3371 65.0602 64.2562 64.5581 62.1387C63.9948 59.762 63.9194 59.8473 66.6253 59.8473C68.4705 59.8473 68.6761 59.8205 68.9113 59.5613C69.3039 59.1276 69.2104 58.6305 68.4213 56.9477C68.0226 56.1001 67.6994 55.329 67.7021 55.2333C67.7152 54.7334 68.1084 54.5622 69.9252 54.2669C71.037 54.087 71.8682 53.8787 72.0192 53.7419C72.5239 53.2864 72.3385 52.693 71.1863 51.077C69.7414 49.0519 69.748 49.0328 72.0607 48.1802C74.8301 47.1597 74.9094 46.8196 72.8367 44.8497C70.9172 43.0259 70.9161 43.0357 73.0189 41.7451C75.5607 40.1848 75.5646 39.8332 73.0637 38.2806C70.9128 36.9462 70.9145 36.9648 72.8422 35.1344C74.9094 33.1695 74.8536 32.9125 72.134 31.8723C69.7343 30.9541 69.7267 30.9317 71.1852 28.9301C72.0536 27.7379 72.2691 27.3425 72.2691 26.934C72.2691 26.2198 71.9486 26.0601 69.8431 25.7199C68.0844 25.4356 67.6972 25.2633 67.6972 24.7629C67.6972 24.6678 68.0188 23.9021 68.412 23.0605C69.1809 21.4127 69.2892 20.7527 68.8538 20.3589C68.6198 20.1473 68.307 20.1166 66.6297 20.1445C64.8753 20.1741 64.6511 20.1489 64.4077 19.9045C64.1419 19.6376 64.1452 19.5998 64.5598 17.8673C65.0689 15.7455 65.0711 15.6935 64.6527 15.3003C64.2278 14.9011 63.9626 14.9076 62.0135 15.3665C60.5933 15.7012 60.3581 15.7236 60.0354 15.5508L59.669 15.3539L59.7702 13.395L59.8719 11.4372L59.5055 11.0707C59.3037 10.8684 59.0183 10.7043 58.8695 10.7043C58.7218 10.7043 57.8392 11.0543 56.91 11.4815C55.358 12.1957 55.1912 12.2433 54.8554 12.0677C54.5207 11.8927 54.465 11.7193 54.1789 9.97371C53.8492 7.95409 53.6446 7.56089 52.9277 7.56089C52.7576 7.56089 51.9143 8.06675 51.0541 8.68472C49.6409 9.69973 49.4517 9.79598 49.0995 9.67293C48.8081 9.57121 48.6385 9.35027 48.4318 8.79847C48.2787 8.39269 47.985 7.61066 47.7788 7.06104C47.3621 5.95198 47.1297 5.70369 46.5057 5.70369C46.1573 5.70369 45.8423 5.95416 44.7119 7.12776C42.9346 8.97347 42.9286 8.97293 41.6221 6.82971C41.0998 5.97331 40.554 5.20877 40.4091 5.13111C40.0826 4.95611 39.6982 4.95611 39.3974 5.13221ZM41.0161 11.5843C42.5638 12.6857 41.7413 15.2757 39.8436 15.2757C38.0018 15.2757 37.0743 13.057 38.389 11.7975C39.1316 11.0866 40.1953 10.9997 41.0161 11.5843ZM39.0709 18.4241C40.0854 18.8096 40.5015 18.5783 42.8181 16.3459L44.5583 14.667L45.2949 14.7654C47.6055 15.0717 52.2003 17.0897 54.8407 18.9578C57.2666 20.675 60.491 24.1717 61.8653 26.5758L62.159 27.091L60.8574 30.0244C60.141 31.6377 59.5547 33.1269 59.5547 33.3347C59.5547 33.8148 59.8697 34.5744 60.1727 34.8255C60.3007 34.9321 61.5164 35.5173 62.8737 36.1259L65.3402 37.2334L65.4375 37.8612C65.5633 38.6787 65.5797 40.6869 65.4659 41.2573L65.3768 41.7035H63.9686C62.3351 41.7035 62.4614 41.5575 62.3728 43.5607C62.3083 45.0132 61.9572 45.816 61.1587 46.3361C59.8588 47.1843 57.7112 47.0307 56.8001 46.0244C56.6607 45.8691 56.3889 45.092 56.1958 44.2963C55.6325 41.9699 54.8762 40.665 53.3559 39.3935C52.8757 38.9927 52.4836 38.618 52.4836 38.5612C52.4836 38.5054 53.0114 38.0608 53.6567 37.5752C56.0071 35.8033 57.359 33.7404 57.5067 31.6979C57.7905 27.8008 54.6859 24.169 50.0681 22.9916C48.9732 22.7127 48.5056 22.7039 34.9611 22.7039C27.2737 22.7039 20.9829 22.6536 20.9829 22.5924C20.9829 22.4485 22.6919 20.7904 23.6982 19.9586C26.4621 17.6737 30.0518 15.8762 33.77 14.9164L35.0552 14.5828L36.8818 16.4351C37.8875 17.4539 38.8724 18.3491 39.0709 18.4241ZM16.0676 30.3422C16.9093 30.8934 17.2543 32.2781 16.7567 33.1104C15.9883 34.3989 14.0409 34.453 13.2714 33.2078C12.1525 31.3982 14.3078 29.1888 16.0676 30.3422ZM65.6541 30.4132C67.8558 31.7553 66.1495 35.0579 63.7925 34.015C62.2191 33.3188 62.1683 31.1679 63.7077 30.3837C64.3498 30.0556 65.0875 30.0671 65.6546 30.4127M22.5552 38.6328V46.8469H15.2927L15.005 45.5973C14.4385 43.1363 14.2 40.5901 14.3428 38.5048L14.4423 37.0398L16.9388 35.9203C18.505 35.2187 19.5124 34.6833 19.642 34.4847C20.2097 33.6185 20.1561 33 19.3587 31.2401L18.9868 30.4187H22.5541V38.6328M43.4607 30.7753C45.0155 31.18 45.8369 32.003 45.8391 33.1569C45.8402 34.0046 45.4207 34.5351 44.3789 35.0054C43.6417 35.339 43.5247 35.3472 38.8757 35.3926L34.1255 35.4385V30.5604H38.3813C41.7052 30.5604 42.8176 30.6074 43.4607 30.7753ZM41.8562 42.5627C42.6273 42.777 43.5383 43.4464 44.0054 44.1421C44.4965 44.8732 44.7836 45.8242 45.4639 48.9743C46.0381 51.6376 46.4084 52.5071 47.4436 53.6402C48.726 55.0435 48.428 54.9888 54.8341 54.9888C57.9021 54.9888 60.4112 55.038 60.4112 55.0982C60.4112 55.2059 58.2986 57.7035 58.2072 57.7035C58.181 57.7035 57.0774 57.4727 55.755 57.19C52.0204 56.3926 51.8859 56.4862 51.0289 60.4888L50.4777 63.0602L49.98 63.3052C49.1499 63.7153 46.451 64.5586 45.0527 64.8474C42.7405 65.3232 40.2248 65.4828 38.0138 65.2964C34.2442 64.9764 29.2528 63.5141 29.0576 62.6713C29.0166 62.4925 28.765 61.3353 28.5009 60.0988C28.2356 58.8629 27.9135 57.6904 27.7845 57.4935C27.1665 56.5507 26.5168 56.4927 23.6572 57.1249C22.5744 57.3655 21.6294 57.5602 21.5572 57.5602C21.4215 57.5602 19.4118 55.2365 19.4118 55.0801C19.4118 55.0309 24.1849 54.974 30.019 54.9544L40.6257 54.9183L40.664 51.1503C40.6913 48.4897 40.6541 47.3238 40.5382 47.1854C40.4102 47.0301 39.7261 46.9896 37.2509 46.9896H34.1255V42.4177L37.7332 42.4183C39.7162 42.4194 41.5723 42.4839 41.8562 42.5627ZM25.5122 59.6985C27.1987 60.7266 26.3899 63.4195 24.3949 63.4173C22.3496 63.4173 21.5911 60.7485 23.334 59.6843C23.9109 59.3327 24.9243 59.3398 25.5122 59.6985ZM56.3998 59.8112C57.2267 60.4171 57.5018 61.6777 56.9899 62.5182C55.6446 64.7243 52.2802 62.9705 53.404 60.6484C53.9564 59.5082 55.4247 59.0964 56.3998 59.8112Z" fill="black"/>
</svg>
