<svg width="80" height="80" viewBox="0 0 80 80" fill="none" xmlns="http://www.w3.org/2000/svg">
<rect width="80" height="80" fill="white"/>
<g clip-path="url(#clip0_4557_4938)">
<path d="M44.9011 63.0508L23.848 42.0032C22.9905 41.1113 22.518 39.9038 22.518 38.5568V8.51641C22.518 6.76695 20.768 5.0175 19.018 5.0175H12C10.25 5.0175 8.5 6.76695 8.5 8.51641V43.5077C8.5 45.3621 9.1825 47.1471 10.495 48.4591L34.9955 72.953C35.6453 73.6041 36.4175 74.1201 37.2675 74.4714C38.1176 74.8227 39.0288 75.0024 39.9486 75H43.4486C45.3911 75 46.9486 73.4255 46.9486 71.5011V68.0191C46.9512 67.0996 46.7716 66.1886 46.4202 65.3389C46.0687 64.4891 45.5524 63.7174 44.9011 63.0683V63.0508ZM71.5022 8.49891C71.5022 6.73195 69.7697 5 68.0022 5H60.9847C59.2347 5 57.4847 6.74945 57.4847 8.49891V38.5218C57.4878 39.815 56.9851 41.0581 56.0841 41.9857L49.0316 49.0366C48.3805 49.6859 47.8643 50.4578 47.5129 51.3076C47.1615 52.1574 46.9818 53.0684 46.9841 53.988V57.4869C46.9841 57.9465 47.0746 58.4016 47.2504 58.8262C47.4263 59.2508 47.6841 59.6366 48.0092 59.9615C48.3342 60.2865 48.7201 60.5442 49.1447 60.7199C49.5694 60.8957 50.0245 60.986 50.4841 60.9858H53.9841C55.7691 60.9858 57.5716 60.3038 58.9372 58.9388L69.4372 48.4416C70.0869 47.7912 70.6022 47.0193 70.9536 46.1698C71.305 45.3204 71.4857 44.41 71.4852 43.4907V8.49891H71.5022Z" fill="#9F4CF2"/>
</g>
<defs>
<clipPath id="clip0_4557_4938">
<rect width="70" height="70" fill="white" transform="translate(5 5)"/>
</clipPath>
</defs>
</svg>
