<svg width="80" height="80" viewBox="0 0 80 80" fill="none" xmlns="http://www.w3.org/2000/svg">
<rect width="80" height="80" fill="white"/>
<path d="M74.2927 33C72.558 24.5017 67.7296 16.9503 60.7436 11.8097C53.7576 6.66908 45.1117 4.30555 36.4821 5.17731C27.8525 6.04908 19.854 10.094 14.0373 16.528C8.22055 22.9619 5 31.3265 5 40C5 48.6735 8.22055 57.0381 14.0373 63.472C19.854 69.906 27.8525 73.9509 36.4821 74.8227C45.1117 75.6945 53.7576 73.3309 60.7436 68.1903C67.7296 63.0497 72.558 55.4983 74.2927 47H53.2927C51.7518 49.669 49.3733 51.7549 46.526 52.9343C43.6787 54.1137 40.5218 54.3206 37.545 53.5229C34.5681 52.7253 31.9376 50.9677 30.0615 48.5226C28.1854 46.0776 27.1685 43.0819 27.1685 40C27.1685 36.9181 28.1854 33.9224 30.0615 31.4774C31.9376 29.0323 34.5681 27.2747 37.545 26.4771C40.5218 25.6794 43.6787 25.8863 46.526 27.0657C49.3733 28.2451 51.7518 30.331 53.2927 33H74.2927Z" stroke="#6851FF" stroke-width="5" stroke-linecap="round" stroke-linejoin="round"/>
</svg>
