<svg width="40" height="40" viewBox="0 0 40 40" fill="none" xmlns="http://www.w3.org/2000/svg">
<path d="M12.8867 5.64743C14.2088 5.64743 15.2822 6.72081 15.2822 8.04293C15.2822 8.06338 15.2822 8.08723 15.2822 8.10768C15.2822 8.10768 15.2822 8.10768 15.2822 8.11108C15.2583 9.72626 14.4064 10.6599 13.6977 11.1608C13.2138 11.5016 12.563 11.5016 12.0791 11.1608C11.3703 10.6599 10.5184 9.72626 10.4946 8.11108C10.4946 8.11108 10.4946 8.11108 10.4946 8.10768C10.4946 8.08723 10.4946 8.06338 10.4946 8.04293C10.4946 6.72081 11.568 5.64743 12.8901 5.64743H12.8867ZM11.7043 11.6924C12.0587 11.9412 12.471 12.0672 12.8867 12.0672C13.3024 12.0672 13.7147 11.9412 14.0691 11.6924C14.9005 11.1063 15.9024 10.0091 15.9296 8.12471C15.9296 8.09745 15.9296 8.07019 15.9296 8.04293C15.9296 6.36302 14.5632 5 12.8867 5C11.2102 5 9.84375 6.36642 9.84375 8.04293C9.84375 8.07019 9.84375 8.09745 9.84375 8.12471C9.87101 10.0091 10.8694 11.1063 11.7043 11.6924Z" fill="#FD1716"/>
<path d="M11.5218 13.5967H14.241C15.662 13.5967 16.9636 14.3702 17.6452 15.6207C17.7031 15.7298 17.8155 15.7911 17.9314 15.7911C17.9825 15.7911 18.037 15.7775 18.0847 15.7502C18.2415 15.665 18.2994 15.4674 18.2142 15.3106C17.4203 13.8556 15.9005 12.9492 14.241 12.9492H11.5218C9.02749 12.9492 7 14.9767 7 17.471V24.1055C7 25.2061 7.89618 26.0989 8.99341 26.0989H9.32735V34.6621C9.32735 34.8427 9.47387 34.9858 9.65106 34.9858C9.82826 34.9858 9.97478 34.8392 9.97478 34.6621V19.0964C9.97478 18.9192 9.82826 18.7727 9.65106 18.7727C9.47387 18.7727 9.32735 18.9192 9.32735 19.0964V25.4515H8.99341C8.25057 25.4515 7.64743 24.8483 7.64743 24.1055V17.471C7.64743 15.3345 9.38528 13.5967 11.5218 13.5967Z" fill="#FD1716"/>
<path d="M12.8862 24.9609C12.7056 24.9609 12.5625 25.1075 12.5625 25.2847V34.6622C12.5625 34.8428 12.709 34.9859 12.8862 34.9859C13.0634 34.9859 13.2099 34.8394 13.2099 34.6622V25.2847C13.2099 25.1075 13.0634 24.9609 12.8862 24.9609Z" fill="#FD1716"/>
<path d="M28.0234 5.64793C29.3455 5.64793 30.4189 6.72131 30.4189 8.04343C30.4189 8.06388 30.4189 8.08773 30.4189 8.11158C30.395 9.72676 29.5432 10.6604 28.8344 11.1613C28.3505 11.5021 27.6997 11.5021 27.2158 11.1613C26.507 10.6604 25.6552 9.72676 25.6313 8.10817C25.6313 8.08773 25.6313 8.06388 25.6313 8.04343C25.6313 6.72131 26.7047 5.64793 28.0268 5.64793H28.0234ZM26.841 11.6929C27.1954 11.9417 27.6077 12.0677 28.0234 12.0677C28.4391 12.0677 28.8514 11.9417 29.2058 11.6929C30.0407 11.1068 31.0391 10.0096 31.0663 8.12862C31.0663 8.10136 31.0663 8.0741 31.0663 8.04684C31.0663 6.36692 29.6999 5.00391 28.0234 5.00391C26.3469 5.00391 24.9805 6.37033 24.9805 8.04684C24.9805 8.0741 24.9805 8.10136 24.9805 8.12521C25.0077 10.013 26.0061 11.1068 26.841 11.6963V11.6929Z" fill="#FD1716"/>
<path d="M29.3845 12.9492H26.6653C25.4761 12.9492 24.355 13.4058 23.5065 14.2373C22.7296 14.9971 22.2593 15.9956 22.1639 17.0689H15.066V15.8831C15.066 15.7536 14.9877 15.6378 14.8684 15.5867C14.7491 15.5355 14.6128 15.5594 14.5174 15.648L11.6858 18.3434C11.6858 18.3434 11.6823 18.3468 11.6789 18.3502C11.6789 18.3502 11.6755 18.3536 11.6721 18.357C11.6721 18.357 11.6687 18.3604 11.6653 18.3638C11.6619 18.3672 11.6585 18.374 11.6551 18.3774C11.6551 18.3808 11.6483 18.3842 11.6449 18.3911C11.6415 18.3945 11.638 18.4013 11.6346 18.4047C11.6346 18.4081 11.6278 18.4115 11.6278 18.4183C11.6278 18.4217 11.621 18.4285 11.621 18.4319C11.621 18.4354 11.6176 18.4422 11.6142 18.4456C11.6142 18.449 11.6108 18.4558 11.6074 18.4592C11.6074 18.4626 11.604 18.4694 11.6006 18.4728C11.6006 18.4762 11.6006 18.4831 11.5972 18.4865C11.5972 18.4899 11.5972 18.4967 11.5938 18.5035C11.5938 18.5069 11.5938 18.5137 11.5938 18.5171C11.5938 18.524 11.5938 18.5274 11.5938 18.5342C11.5938 18.5376 11.5938 18.5444 11.5938 18.5478C11.5938 18.5546 11.5938 18.558 11.5938 18.5648C11.5938 18.5717 11.5938 18.5751 11.5938 18.5819C11.5938 18.5887 11.5938 18.5921 11.5938 18.5989C11.5938 18.6057 11.5938 18.6091 11.5938 18.616C11.5938 18.6194 11.5938 18.6262 11.5938 18.6296C11.5938 18.6364 11.5938 18.6398 11.5938 18.6466C11.5938 18.65 11.5938 18.6568 11.5938 18.6603C11.5938 18.6671 11.5938 18.6705 11.5972 18.6773C11.5972 18.6807 11.5972 18.6875 11.6006 18.6909C11.6006 18.6943 11.604 18.7011 11.6074 18.7046C11.6074 18.708 11.6108 18.7148 11.6142 18.7182C11.6142 18.7216 11.6176 18.7284 11.621 18.7318C11.621 18.7352 11.6278 18.742 11.6278 18.7454C11.6278 18.7488 11.6346 18.7557 11.6346 18.7591C11.6346 18.7625 11.6415 18.7693 11.6449 18.7727C11.6449 18.7761 11.6517 18.7795 11.6551 18.7863C11.6585 18.7897 11.6619 18.7966 11.6653 18.8C11.6653 18.8 11.6687 18.8034 11.6721 18.8068C11.6721 18.8068 11.6755 18.8102 11.6789 18.8136C11.6789 18.8136 11.6823 18.817 11.6858 18.8204L14.5174 21.5158C14.5788 21.5737 14.6605 21.6044 14.7423 21.6044C14.7866 21.6044 14.8275 21.5976 14.8684 21.5771C14.9877 21.526 15.066 21.4101 15.066 21.2807V20.0948H18.4429C18.6235 20.0948 18.7666 19.9483 18.7666 19.7711C18.7666 19.5939 18.6201 19.4474 18.4429 19.4474H14.7423C14.5651 19.4474 14.4186 19.5939 14.4186 19.7711V20.5276L12.3809 18.5887L14.4186 16.6498V17.4063C14.4186 17.5835 14.5651 17.73 14.7423 17.73H22.4706C22.6512 17.73 22.7943 17.5835 22.7943 17.4063C22.7943 17.4063 22.7943 17.3961 22.7943 17.3892C22.8182 16.3738 23.2305 15.4231 23.9597 14.7143C24.6889 14.0021 25.6498 13.6103 26.6687 13.6103H29.3879C31.5244 13.6103 33.2623 15.3481 33.2623 17.4847V24.1191C33.2623 24.862 32.6592 25.4651 31.9163 25.4651H31.5824V19.11C31.5824 18.9329 31.4358 18.7863 31.2587 18.7863C31.0815 18.7863 30.9349 18.9329 30.9349 19.11V34.6757C30.9349 34.8563 31.0815 34.9994 31.2587 34.9994C31.4358 34.9994 31.5824 34.8529 31.5824 34.6757V26.1125H31.9163C33.0169 26.1125 33.9097 25.2164 33.9097 24.1191V17.4847C33.9097 14.9903 31.8822 12.9628 29.3879 12.9628L29.3845 12.9492Z" fill="#FD1716"/>
<path d="M24.7956 25.4509H24.1379C23.3951 25.4509 22.792 24.8478 22.792 24.105C22.792 23.9244 22.6454 23.7812 22.4682 23.7812C22.2911 23.7812 22.1445 23.9278 22.1445 24.105C22.1445 25.2056 23.0407 26.0984 24.1379 26.0984H24.4719V34.6615C24.4719 34.8421 24.6184 34.9852 24.7956 34.9852C24.9728 34.9852 25.1193 34.8387 25.1193 34.6615V25.7747C25.1193 25.5941 24.9728 25.4509 24.7956 25.4509Z" fill="#FD1716"/>
<path d="M28.0229 24.9609C27.8423 24.9609 27.6992 25.1075 27.6992 25.2847V34.6622C27.6992 34.8428 27.8457 34.9859 28.0229 34.9859C28.2001 34.9859 28.3467 34.8394 28.3467 34.6622V25.2847C28.3467 25.1075 28.2001 24.9609 28.0229 24.9609Z" fill="#FD1716"/>
<path d="M29.3209 20.9271C29.3209 20.9271 29.3209 20.9169 29.3209 20.9101C29.3209 20.9067 29.3209 20.8999 29.3209 20.8965C29.3209 20.8896 29.3209 20.8862 29.3209 20.8794C29.3209 20.876 29.3209 20.8692 29.3209 20.8658C29.3209 20.859 29.3209 20.8556 29.3175 20.8487C29.3175 20.8453 29.3175 20.8385 29.3141 20.8351C29.3141 20.8317 29.3107 20.8249 29.3073 20.8215C29.3039 20.8181 29.3039 20.8113 29.3005 20.8079C29.3005 20.8044 29.297 20.7976 29.2936 20.7942C29.2936 20.7908 29.2868 20.784 29.2868 20.7806C29.2868 20.7772 29.28 20.7738 29.28 20.767C29.28 20.7636 29.2732 20.7567 29.2698 20.7533C29.2698 20.7499 29.263 20.7465 29.2596 20.7431C29.2562 20.7397 29.2527 20.7329 29.2493 20.7295C29.2493 20.7295 29.2493 20.7261 29.2425 20.7227C29.2425 20.7227 29.2391 20.7227 29.2357 20.7159C29.2357 20.7159 29.2323 20.7124 29.2289 20.709L26.3972 18.0137C26.3018 17.9251 26.1655 17.9012 26.0463 17.9523C25.927 18.0035 25.8486 18.1193 25.8486 18.2488V19.4346H22.4717C22.2946 19.4346 22.148 19.5811 22.148 19.7583C22.148 19.9355 22.2946 20.0821 22.4717 20.0821H26.1723C26.3495 20.0821 26.496 19.9355 26.496 19.7583V19.0019L28.5338 20.9408L26.496 22.8796V22.1232C26.496 21.9426 26.3495 21.7995 26.1723 21.7995H18.444C18.2668 21.7995 18.1203 21.946 18.1203 22.1232V24.1029C18.1203 24.8458 17.5172 25.4489 16.7743 25.4489H16.1167C15.9361 25.4489 15.793 25.5954 15.793 25.7726V34.6595C15.793 34.8401 15.9395 34.9832 16.1167 34.9832C16.2939 34.9832 16.4404 34.8367 16.4404 34.6595V26.0964H16.7743C17.875 26.0964 18.7678 25.2002 18.7678 24.1029V22.4469H25.8486V23.6327C25.8486 23.7622 25.927 23.878 26.0463 23.9292C26.1655 23.9803 26.3018 23.9564 26.3972 23.8678L29.2289 21.1725C29.2289 21.1725 29.2323 21.1691 29.2357 21.1656C29.2357 21.1656 29.2391 21.1656 29.2425 21.1588C29.2425 21.1588 29.2459 21.1554 29.2493 21.152C29.2527 21.1486 29.2562 21.1418 29.2596 21.1384C29.2596 21.135 29.2664 21.1316 29.2698 21.1282C29.2732 21.1248 29.2766 21.1179 29.28 21.1145C29.28 21.1111 29.2868 21.1077 29.2868 21.1009C29.2868 21.0975 29.2936 21.0907 29.2936 21.0873C29.2936 21.0839 29.297 21.0771 29.3005 21.0736C29.3005 21.0702 29.3039 21.0634 29.3073 21.06C29.3073 21.0566 29.3107 21.0498 29.3141 21.0464C29.3175 21.043 29.3141 21.0362 29.3175 21.0328C29.3175 21.0259 29.3175 21.0225 29.3209 21.0157C29.3209 21.0123 29.3209 21.0055 29.3209 21.0021C29.3209 20.9953 29.3209 20.9919 29.3209 20.985C29.3209 20.9816 29.3209 20.9748 29.3209 20.9714C29.3209 20.9646 29.3209 20.9612 29.3209 20.9544C29.3209 20.9476 29.3209 20.9442 29.3209 20.9373C29.3209 20.9305 29.3209 20.9271 29.3209 20.9203V20.9271Z" fill="#FD1716"/>
</svg>
