<svg width="40" height="40" viewBox="0 0 40 40" fill="none" xmlns="http://www.w3.org/2000/svg">
<path d="M27.5419 23.0115C28.2445 23.0115 28.8142 22.4418 28.8142 21.7391C28.8142 21.0365 28.2445 20.4668 27.5419 20.4668C26.8392 20.4668 26.2695 21.0365 26.2695 21.7391C26.2695 22.4418 26.8392 23.0115 27.5419 23.0115ZM27.5419 21.3736C27.7413 21.3736 27.9074 21.535 27.9074 21.7391C27.9074 21.9385 27.746 22.1047 27.5419 22.1047C27.3425 22.1047 27.1763 21.9433 27.1763 21.7391C27.1763 21.5397 27.3425 21.3736 27.5419 21.3736Z" fill="#FD1716"/>
<path d="M34.9573 9.77607C34.6392 7.05571 32.3271 5 29.5783 5C26.592 5 24.166 7.42602 24.166 10.4122C24.166 10.4977 24.1755 10.5832 24.1803 10.6686H10.3078C9.82355 10.6686 9.35354 10.868 9.02121 11.2051C8.67463 11.5469 8.48473 12.0027 8.48473 12.4964V24.5316C6.45276 25.3102 5 27.2757 5 29.583C5 32.5692 7.43076 35 10.4122 35C12.9617 35 15.1883 33.1959 15.7058 30.7082C15.8055 30.2144 15.8387 29.7587 15.8198 29.3314H27.4513H28.9231C29.8394 29.3314 30.5847 28.586 30.5847 27.6697V24.4366H30.618C31.107 24.4366 31.501 24.0378 31.501 23.5536V19.7175C31.501 19.2285 31.1022 18.8345 30.618 18.8345H30.5847V15.7438C32.6927 15.3402 34.416 13.7023 34.8671 11.5517C35 10.906 35.0285 10.3126 34.9573 9.77607ZM9.66213 11.846C9.8283 11.6751 10.0657 11.5754 10.3078 11.5754H24.2989C24.4461 12.2353 24.7072 12.8525 25.0728 13.3985L10.3078 13.4175C9.80456 13.4175 9.39627 13.0044 9.39627 12.4964C9.39152 12.2496 9.48647 12.0169 9.66213 11.846ZM14.818 30.5183C14.386 32.5835 12.5344 34.0837 10.4122 34.0837C7.92926 34.0837 5.90679 32.0612 5.90679 29.5783C5.90679 27.5605 7.24086 25.8514 9.07343 25.2817C9.26333 25.22 9.46273 25.182 9.66213 25.144C9.70961 25.1345 9.75233 25.1298 9.79981 25.125C10.004 25.0965 10.2081 25.0775 10.417 25.0775C12.5059 25.0775 14.3148 26.5303 14.7943 28.5243V28.529C14.8228 28.6572 14.8512 28.7902 14.8702 28.9231C14.875 28.9658 14.8845 29.0085 14.8892 29.0513C14.8892 29.056 14.8892 29.056 14.8892 29.0608C14.9509 29.4975 14.9272 29.9818 14.818 30.5183ZM15.7011 28.4151C15.2311 26.2644 13.4982 24.6265 11.3523 24.2515C11.3428 24.2515 11.3333 24.2467 11.319 24.2467C11.0247 24.1945 10.7208 24.166 10.4122 24.166C10.3031 24.166 10.1986 24.1755 10.0894 24.1803C10.0229 24.185 9.95173 24.185 9.88527 24.1897C9.79981 24.1992 9.7191 24.2135 9.63839 24.223C9.55768 24.2325 9.47223 24.242 9.39152 24.2562V14.0821C9.66213 14.2388 9.97072 14.329 10.3078 14.329L25.8229 14.31C25.8419 14.3243 25.8609 14.3433 25.8799 14.3575V14.3527C26.4211 14.8607 27.0668 15.2595 27.7837 15.5159V15.5207C27.7932 15.5254 27.8074 15.5301 27.8169 15.5349V18.8202H25.5048C25.163 18.8202 24.8639 18.9959 24.6882 19.257C24.579 19.4137 24.5173 19.6036 24.5173 19.8125V23.4396C24.5173 23.8242 24.7405 24.1565 25.0633 24.3179C25.1962 24.3844 25.3434 24.4271 25.5048 24.4271H27.8169V28.0638C27.8169 28.2584 27.6602 28.4151 27.4608 28.4151H15.7011ZM29.6827 27.6602C29.6827 28.078 29.3456 28.4151 28.9278 28.4151H28.662C28.6952 28.3012 28.7189 28.1872 28.7189 28.0638V24.4271H29.6827V27.6602ZM30.6275 23.5156H25.5001C25.4906 23.5156 25.4858 23.5061 25.4763 23.5061C25.4479 23.4918 25.4241 23.4681 25.4241 23.4349V19.8077C25.4241 19.7887 25.4336 19.7697 25.4479 19.7508C25.4621 19.7365 25.4811 19.727 25.5048 19.727H30.6085L30.6275 23.5156ZM29.6827 18.8202H28.7189V15.7533C28.9991 15.8008 29.2887 15.8292 29.5783 15.8292C29.6115 15.8292 29.6447 15.8245 29.6827 15.8245V18.8202ZM33.984 11.357C33.552 13.4222 31.7004 14.9225 29.5783 14.9225C27.0953 14.9225 25.0728 12.9 25.0728 10.417C25.0728 7.93401 27.0953 5.91628 29.5783 5.91628C31.8666 5.91628 33.7894 7.62542 34.0505 9.89001C34.0505 9.89476 34.0505 9.89476 34.0505 9.89951C34.1122 10.3315 34.0885 10.8253 33.984 11.357Z" fill="#FD1716"/>
<path d="M10.4182 27.8178C10.741 27.8178 11.0022 28.0789 11.0022 28.4017C11.0022 28.6534 11.2063 28.8575 11.4579 28.8575C11.7095 28.8575 11.9137 28.6534 11.9137 28.4017C11.9137 27.7371 11.4769 27.1816 10.874 26.987V26.7448C10.874 26.4932 10.6698 26.2891 10.4182 26.2891C10.1666 26.2891 9.96244 26.4932 9.96244 26.7448V26.987C9.36424 27.1816 8.92272 27.7371 8.92272 28.4017C8.92272 29.2231 9.59213 29.8925 10.4135 29.8925C10.7363 29.8925 10.9974 30.1536 10.9974 30.4764C10.9974 30.7993 10.7363 31.0604 10.4135 31.0604C10.0906 31.0604 9.82951 30.7993 9.82951 30.4764C9.82951 30.2248 9.62536 30.0207 9.37374 30.0207C9.12212 30.0207 8.91797 30.2248 8.91797 30.4764C8.91797 31.1411 9.35475 31.6966 9.95769 31.8912V32.1333C9.95769 32.385 10.1618 32.5891 10.4135 32.5891C10.6651 32.5891 10.8692 32.385 10.8692 32.1333V31.8912C11.4674 31.6966 11.9089 31.1411 11.9089 30.4764C11.9089 29.6551 11.2395 28.9857 10.4182 28.9857C10.0954 28.9857 9.83425 28.7246 9.83425 28.4017C9.83425 28.0789 10.0954 27.8178 10.4182 27.8178Z" fill="#FD1716"/>
<path d="M32.403 28.416C32.1514 28.416 31.9473 28.6202 31.9473 28.8718V29.5649C31.9473 30.9085 30.8553 32.0004 29.5118 32.0004H22.3619L22.8177 31.5447C22.9933 31.369 22.9933 31.0794 22.8177 30.9038C22.642 30.7281 22.3524 30.7281 22.1767 30.9038L20.9471 32.1286C20.8617 32.2093 20.8047 32.328 20.8047 32.4562C20.8047 32.5749 20.8522 32.6936 20.9376 32.779L22.172 34.0087C22.2622 34.0989 22.3761 34.1416 22.4948 34.1416C22.6135 34.1416 22.7275 34.0989 22.8177 34.0087C22.9933 33.833 22.9933 33.5434 22.8177 33.3677L22.3571 32.912H29.5118C31.3586 32.912 32.8588 31.4117 32.8588 29.5649V28.8718C32.8588 28.6154 32.6547 28.416 32.403 28.416Z" fill="#FD1716"/>
<path d="M6.77217 12.0592C7.0238 12.0592 7.22794 11.8551 7.22794 11.6035V10.9103C7.22794 9.56675 8.31989 8.4748 9.66346 8.4748H16.8181L16.3623 8.93057C16.1866 9.10623 16.1866 9.39583 16.3623 9.57149C16.4525 9.6617 16.5664 9.70443 16.6851 9.70443C16.7991 9.70443 16.9178 9.6617 17.008 9.57149L18.2376 8.34187C18.3231 8.26116 18.38 8.14247 18.38 8.01428C18.38 7.8956 18.3325 7.77691 18.2471 7.69145L17.0127 6.46182C16.8371 6.28616 16.5475 6.28616 16.3718 6.46182C16.1961 6.63748 16.1961 6.92709 16.3718 7.10275L16.8323 7.55852H9.66346C7.81664 7.55852 6.31641 9.05875 6.31641 10.9056V11.5987C6.32115 11.8551 6.52055 12.0592 6.77217 12.0592Z" fill="#FD1716"/>
<path d="M29.6932 9.94759C29.2897 9.94759 28.9573 9.62001 28.9573 9.21171C28.9573 8.80342 29.2849 8.47584 29.6932 8.47584C30.1015 8.47584 30.4291 8.80342 30.4291 9.21171C30.4291 9.47283 30.6427 9.68647 30.9038 9.68647C31.165 9.68647 31.3786 9.47283 31.3786 9.21171C31.3786 8.44735 30.8659 7.81118 30.168 7.60228V7.27945C30.168 7.01833 29.9543 6.80469 29.6932 6.80469C29.4321 6.80469 29.2184 7.01833 29.2184 7.27945V7.60228C28.5206 7.81118 28.0078 8.44735 28.0078 9.21171C28.0078 10.1422 28.7627 10.8971 29.6932 10.8971C30.0968 10.8971 30.4291 11.2247 30.4291 11.633C30.4291 12.0365 30.0968 12.3689 29.6932 12.3689C29.2897 12.3689 28.9573 12.0413 28.9573 11.633C28.9573 11.3719 28.7437 11.1582 28.4826 11.1582C28.2215 11.1582 28.0078 11.3719 28.0078 11.633C28.0078 12.3973 28.5206 13.0335 29.2184 13.2424V13.5653C29.2184 13.8264 29.4321 14.04 29.6932 14.04C29.9543 14.04 30.168 13.8264 30.168 13.5653V13.2424C30.8659 13.0383 31.3786 12.3973 31.3786 11.633C31.3786 10.7025 30.6237 9.94759 29.6932 9.94759Z" fill="#FD1716"/>
</svg>
