<svg width="40" height="40" viewBox="0 0 40 40" fill="none" xmlns="http://www.w3.org/2000/svg">
<path fill-rule="evenodd" clip-rule="evenodd" d="M20.3264 14.221C23.1952 14.221 25.7927 15.3839 27.6726 17.2644C29.5525 19.1443 30.7159 21.7418 30.7159 24.6111C30.7159 27.4805 29.5531 30.0774 27.6726 31.9573C25.7921 33.8371 23.1952 35 20.3264 35C17.4577 35 14.8602 33.8371 12.9797 31.9573C11.0998 30.0774 9.93697 27.4799 9.93697 24.6111C9.93697 21.7424 11.0998 19.1449 12.9797 17.2644C14.8602 15.3839 17.4577 14.221 20.3264 14.221ZM10.4296 8.53337C10.39 8.40796 10.2928 8.30296 10.1578 8.25976C9.93757 8.18895 9.70176 8.31016 9.63095 8.53037L8.87672 10.8681L6.4502 10.8633C6.3104 10.8531 6.16819 10.9137 6.07999 11.0355C5.94378 11.2233 5.98578 11.4855 6.17359 11.6211L8.16388 13.0612L7.40005 15.3965L7.40125 15.3971C7.36165 15.5201 7.37905 15.6599 7.46065 15.7727C7.59686 15.9593 7.85787 16.0007 8.04448 15.8645L10.03 14.416L11.9897 15.8453C12.0971 15.9365 12.2477 15.9713 12.3911 15.9245C12.6113 15.8531 12.7319 15.6161 12.6599 15.3965L11.8961 13.0612L13.8864 11.6211L13.8858 11.6205C13.9908 11.5443 14.0586 11.4213 14.0586 11.2815C14.0586 11.0505 13.8713 10.8633 13.6403 10.8633L11.1832 10.8681L10.4296 8.53337ZM10.4794 11.4147L10.0294 10.0214L9.57935 11.4147C9.52535 11.5833 9.36754 11.7051 9.18093 11.7051L7.71566 11.7021L8.90252 12.5608C9.04593 12.6646 9.11253 12.8524 9.05493 13.03L8.5995 14.4232L9.77676 13.5646C9.92017 13.456 10.123 13.4482 10.276 13.5598L11.4598 14.4232L11.0092 13.0456C10.9456 12.8734 11.0008 12.6736 11.1568 12.5608L12.3437 11.7021L10.8982 11.7051C10.7134 11.7141 10.5388 11.5989 10.4794 11.4147ZM31.0225 8.53337C30.9829 8.40796 30.8857 8.30296 30.7507 8.25976C30.5305 8.18895 30.2947 8.31016 30.2239 8.53037L29.4697 10.8681L27.0432 10.8633C26.9034 10.8531 26.7611 10.9137 26.6729 11.0355C26.5367 11.2233 26.5787 11.4855 26.7665 11.6211L28.7568 13.0612L27.993 15.3965L27.9942 15.3971C27.9546 15.5201 27.972 15.6599 28.0536 15.7727C28.1898 15.9593 28.4508 16.0007 28.6374 15.8645L30.6229 14.416L32.5826 15.8453C32.69 15.9365 32.8406 15.9713 32.984 15.9245C33.2042 15.8531 33.3249 15.6161 33.2528 15.3965L32.489 13.0612L34.4793 11.6211L34.4787 11.6205C34.5837 11.5443 34.6515 11.4213 34.6515 11.2815C34.6515 11.0505 34.4643 10.8633 34.2333 10.8633L31.7762 10.8681L31.0225 8.53337ZM31.0729 11.4147L30.6229 10.0214L30.1729 11.4147C30.1189 11.5833 29.9611 11.7051 29.7745 11.7051L28.3092 11.7021L29.4961 12.5608C29.6395 12.6646 29.7061 12.8524 29.6485 13.03L29.1931 14.4232L30.3703 13.5646C30.5137 13.456 30.7165 13.4482 30.8695 13.5598L32.0534 14.4232L31.6028 13.0456C31.5392 12.8734 31.5944 12.6736 31.7504 12.5608L32.9372 11.7021L31.4918 11.7051C31.3064 11.7141 31.1318 11.5989 31.0729 11.4147ZM20.7261 5.29382L21.4797 7.62853L23.9368 7.62373C24.1678 7.62373 24.355 7.81094 24.355 8.04195C24.355 8.18115 24.2866 8.30476 24.1822 8.38096L24.1828 8.38156L22.1925 9.82163L22.9564 12.1569C23.0278 12.3771 22.9078 12.6136 22.6876 12.685C22.5442 12.7318 22.3935 12.6964 22.2861 12.6058L20.3264 11.1765L18.341 12.625C18.1543 12.7612 17.8927 12.7198 17.7571 12.5332C17.6749 12.4204 17.6575 12.2805 17.6977 12.1575L17.6965 12.1569L18.4604 9.82163L16.4701 8.38156C16.2823 8.24536 16.2409 7.98314 16.3765 7.79594C16.4647 7.67413 16.6069 7.61353 16.7467 7.62373L19.1732 7.62853L19.928 5.29082C19.9988 5.07061 20.2346 4.9494 20.4549 5.02021C20.5893 5.06341 20.6865 5.16841 20.7261 5.29382ZM20.7765 8.17515L20.3264 6.78189L19.8764 8.17515C19.8224 8.34376 19.6646 8.46557 19.478 8.46557L18.0133 8.46257L19.2002 9.32121C19.3436 9.42501 19.4102 9.61282 19.3526 9.79043L18.8972 11.1837L20.0744 10.3251C20.2178 10.2164 20.4207 10.2086 20.5737 10.3203L21.7575 11.1837L21.3069 9.80603C21.2433 9.63382 21.2985 9.43401 21.4545 9.32121L22.6414 8.46257L21.1959 8.46557C21.0099 8.47397 20.8353 8.35936 20.7765 8.17515ZM18.0271 22.8968L18.0355 28.3361H23.4988C23.6812 28.3361 23.848 28.2749 23.9764 28.1699C24.1054 28.0643 24.199 27.9143 24.2356 27.7367L25.0475 23.7831C25.0715 23.6667 25.0703 23.5551 25.0445 23.4513C25.0187 23.3475 24.9683 23.2479 24.8927 23.1554C24.8183 23.0636 24.7313 22.9946 24.6353 22.949C24.5398 22.9034 24.4306 22.8806 24.31 22.8806H21.4407C21.2085 22.8806 21.0207 22.6928 21.0207 22.4606C21.0207 22.4 21.0333 22.343 21.0567 22.2908L21.1479 22.0316C21.6027 20.7367 21.8439 20.0497 21.2115 19.4623C21.1479 19.4029 21.0783 19.3633 21.0063 19.3435C20.9343 19.3237 20.8533 19.3225 20.7675 19.3411C20.6817 19.3597 20.6085 19.3939 20.5515 19.4413C20.4939 19.4893 20.4471 19.5541 20.4141 19.6345L19.2866 22.3334C19.0598 22.8758 18.5144 22.9142 18.0271 22.8968ZM17.1991 28.6985L17.1895 22.4996C17.1073 22.058 16.3633 21.956 16.3633 22.7342V28.5239C16.3633 29.2265 17.0113 29.3387 17.1991 28.6985ZM23.4988 29.1761C23.878 29.1761 24.2284 29.0447 24.505 28.8197C24.7805 28.5947 24.9797 28.2773 25.0565 27.9047L25.8683 23.9511C25.9175 23.7111 25.9139 23.4759 25.8587 23.2515C25.8035 23.0276 25.6979 22.8176 25.5431 22.6274C25.3877 22.4366 25.2029 22.2908 24.9935 22.1912C24.7841 22.0916 24.5542 22.0406 24.3106 22.0406H22.0323C22.5418 20.5777 22.759 19.7551 21.7827 18.8484C21.6201 18.6972 21.4311 18.5922 21.2265 18.5358C21.0219 18.4794 20.8065 18.4734 20.5905 18.5202C20.3739 18.567 20.1806 18.6618 20.0168 18.798C19.8536 18.9337 19.7252 19.1077 19.6394 19.3129L18.512 22.0118C18.4844 22.0784 18.1826 22.067 17.9233 22.0538C17.3977 20.8753 15.5226 21.128 15.5226 22.7348V28.5245C15.5226 30.078 17.3065 30.4842 17.9119 29.1761H23.4988ZM20.3264 15.9743C17.9419 15.9743 15.7824 16.941 14.22 18.504C12.6569 20.0671 11.6902 22.226 11.6902 24.6105C11.6902 26.995 12.6569 29.1545 14.22 30.717C15.783 32.2801 17.9419 33.2467 20.3264 33.2467C22.711 33.2467 24.8705 32.2801 26.4329 30.717C27.996 29.1539 28.9627 26.995 28.9627 24.6105C28.9627 22.226 27.996 20.0665 26.4329 18.504C24.8705 16.941 22.711 15.9743 20.3264 15.9743ZM25.8389 19.0981C24.4282 17.6874 22.4793 16.8144 20.3264 16.8144C18.1735 16.8144 16.2247 17.6868 14.8134 19.0981C13.4027 20.5087 12.5297 22.4576 12.5297 24.6105C12.5297 26.7634 13.4021 28.7123 14.8134 30.1236C16.2241 31.5342 18.1735 32.4073 20.3264 32.4073C22.4793 32.4073 24.4282 31.5348 25.8389 30.1236C27.2496 28.7129 28.1226 26.7634 28.1226 24.6105C28.1226 22.4576 27.2502 20.5087 25.8389 19.0981ZM27.0792 17.8578C25.3511 16.1297 22.9636 15.0611 20.3264 15.0611C17.6893 15.0611 15.3018 16.1297 13.5737 17.8578C11.8457 19.5859 10.777 21.9734 10.777 24.6105C10.777 27.2476 11.8457 29.6352 13.5737 31.3632C15.3018 33.0913 17.6893 34.16 20.3264 34.16C22.9636 34.16 25.3511 33.0913 27.0792 31.3632C28.8072 29.6352 29.8759 27.2476 29.8759 24.6105C29.8759 21.9734 28.8072 19.5859 27.0792 17.8578Z" fill="#FD1716"/>
</svg>
