<svg width="70" height="70" viewBox="0 0 70 70" fill="none" xmlns="http://www.w3.org/2000/svg">
<path d="M53.3607 54.4515C52.8152 54.4515 52.4516 54.8151 52.4516 55.3605V61.7238C52.4516 62.5419 51.7244 63.1782 50.7245 63.1782H8.54524C7.6362 63.1782 6.81807 62.5419 6.81807 61.7238V16.7266C6.81807 15.9084 7.6362 15.2721 8.54524 15.2721H16.4538V17.9083C16.4538 18.4537 16.8175 18.8173 17.3629 18.8173H41.8159C42.3613 18.8173 42.725 18.4537 42.725 17.9083V15.2721H50.7245C51.6335 15.2721 52.4516 15.9084 52.4516 16.7266V20.7263C52.4516 21.2717 52.8152 21.6353 53.3607 21.6353C53.9061 21.6353 54.2697 21.2717 54.2697 20.7263V16.7266C54.2697 14.9085 52.7243 13.454 50.7245 13.454H42.725V11.2723C42.725 10.7269 42.3613 10.3633 41.8159 10.3633H38.3616V9.63608C38.3616 7.09078 36.089 5 33.271 5H25.9987C23.1807 5 20.9081 7.09078 20.9081 9.63608V10.2724H17.4538C16.9084 10.2724 16.5447 10.636 16.5447 11.1814V13.3631H8.54524C6.63626 13.3631 5 14.8176 5 16.6356V61.6329C5 63.451 6.54536 64.9054 8.54524 64.9054H50.7245C52.6334 64.9054 54.2697 63.451 54.2697 61.6329V55.2696C54.2697 54.8151 53.8152 54.4515 53.3607 54.4515ZM22.7262 9.63608C22.7262 8.09072 24.1806 6.81807 25.9987 6.81807H33.271C35.0891 6.81807 36.5435 8.09072 36.5435 9.63608V10.2724H22.7262V9.63608ZM40.9069 12.1814V17.0902H18.2719C18.2719 15.2721 18.2719 14.0904 18.2719 12.1814C25.8169 12.1814 33.3619 12.1814 40.9069 12.1814Z" fill="#FD1716"/>
<path d="M27.2679 21.9062H12.9051C12.3597 21.9062 11.9961 22.2699 11.9961 22.8153V37.3598C11.9961 37.9053 12.3597 38.2689 12.9051 38.2689H27.2679C27.8133 38.2689 28.1769 37.9053 28.1769 37.3598V32.4511C28.1769 31.9056 27.8133 31.542 27.2679 31.542C26.7225 31.542 26.3588 31.9056 26.3588 32.4511V36.4508H13.8142V23.7243H27.2679C27.8133 23.7243 28.1769 23.3607 28.1769 22.8153C28.1769 22.3608 27.8133 21.9062 27.2679 21.9062Z" fill="#FD1716"/>
<path d="M19.8197 31.9079L18.0016 28.1808C17.8198 27.7263 17.2744 27.5445 16.8199 27.8172C16.3654 27.999 16.1835 28.5444 16.4563 28.999L18.8197 33.635C18.9107 33.9077 19.1834 34.0895 19.4561 34.0895C19.547 34.0895 19.6379 34.0895 19.6379 34.0895C19.8197 34.0895 20.0015 33.9986 20.1833 33.9077L28.6373 27.7263C29.0009 27.4536 29.0918 26.9082 28.8191 26.4537C28.5464 26.09 28.001 25.9991 27.5465 26.2718L19.8197 31.9079Z" fill="#FD1716"/>
<path d="M38.2686 43.9066C37.8141 43.7247 37.2686 43.9975 37.0868 44.452L32.4508 58.0875C32.3599 58.4511 32.4508 58.9056 32.8144 59.1783C33.178 59.3602 33.6325 59.3602 33.9052 59.0874L37.2686 55.9967L38.0868 60.5419C38.1777 60.9055 38.4504 61.2691 38.9049 61.2691C39.2685 61.2691 39.723 61.0873 39.8139 60.6328L44.1773 48.2699C44.3591 47.8154 44.0864 47.27 43.6319 47.0882C43.1774 46.9064 42.6319 47.1791 42.4501 47.6336L39.1776 56.724L38.7231 53.9968C38.6322 53.6332 38.4504 53.3605 38.0868 53.2696C37.8141 53.1787 37.4504 53.2696 37.1777 53.4514L35.1779 55.2695L38.814 44.9974C38.9958 44.5429 38.7231 43.9975 38.2686 43.9066Z" fill="#FD1716"/>
<path d="M64.906 57.723L59.4518 44.3602C59.27 43.9057 58.7245 43.633 58.27 43.9057C57.8155 44.0875 57.5428 44.6329 57.8155 45.0874L61.9062 55.1777L59.8154 53.4505C59.5427 53.2687 59.1791 53.1778 58.9064 53.3596C58.6336 53.4506 58.3609 53.7233 58.3609 54.0869L58.0882 56.7231L54.4521 47.6327C54.2703 47.1782 53.7249 46.9055 53.2703 47.0873C52.8158 47.2691 52.5431 47.8145 52.7249 48.269L57.7246 60.6319C57.9064 60.9955 58.27 61.2683 58.7245 61.1773C59.1791 61.0864 59.4518 60.8137 59.5427 60.3592L60.0881 55.814L63.6333 58.723C63.997 58.9957 64.4515 58.9957 64.7242 58.723C64.9969 58.5411 65.0878 58.0866 64.906 57.723Z" fill="#FD1716"/>
<path d="M40.2734 34.3601C40.2734 38.9053 44.0005 42.6323 48.5457 42.6323C53.0908 42.6323 56.8179 38.9053 56.8179 34.3601C56.8179 29.8149 53.0908 26.0879 48.5457 26.0879C44.0005 26.0879 40.2734 29.8149 40.2734 34.3601ZM55.0907 34.3601C55.0907 37.9053 52.1818 40.8143 48.6366 40.8143C45.0913 40.8143 42.1824 37.9053 42.1824 34.3601C42.1824 30.8149 45.0913 27.906 48.6366 27.906C52.1818 27.906 55.0907 30.8149 55.0907 34.3601Z" fill="#FD1716"/>
<path d="M48.9959 20.3626C48.8141 20.1807 48.5414 20.0898 48.3596 20.0898C48.0869 20.0898 47.9051 20.1807 47.7233 20.3626L45.3598 22.8169L42.0872 21.9988C41.8145 21.9079 41.6327 21.9988 41.36 22.0897C41.1782 22.1806 40.9964 22.4533 40.9055 22.6351L40.1783 25.635L37.1784 26.2713C36.7239 26.3622 36.3603 26.9076 36.4512 27.3621L37.2693 31.1801L34.5422 33.9981C34.1786 34.3617 34.1786 34.9071 34.5422 35.2707L36.9966 37.6342L36.1785 40.9067C36.0876 41.3613 36.3603 41.9067 36.8148 41.9976L39.8146 42.7248L40.451 45.7246C40.5419 45.9973 40.6328 46.1792 40.8146 46.2701C40.9964 46.361 41.2691 46.4519 41.5418 46.361L45.3598 45.5428L48.1778 48.2699C48.3596 48.4517 48.5414 48.5426 48.8141 48.5426C49.0868 48.5426 49.2686 48.4517 49.4504 48.2699L51.8139 45.8155L55.0864 46.6337C55.3591 46.7246 55.541 46.6337 55.8137 46.5428C55.9955 46.4519 56.1773 46.1791 56.2682 45.9973L56.9954 42.9975L59.9952 42.3612C60.4497 42.2703 60.8134 41.7249 60.7225 41.2704L59.9043 37.4524L62.6314 34.6344C62.995 34.2708 62.995 33.7254 62.6314 33.3618L60.177 30.9983L60.9952 27.7257C61.0861 27.2712 60.8134 26.7258 60.3588 26.6349L57.2681 25.9077L56.6318 22.9079C56.5409 22.6351 56.45 22.4533 56.2682 22.3624C56.0864 22.2715 55.8137 22.1806 55.541 22.2715L51.723 23.0897L48.9959 20.3626ZM55.6319 26.8167C55.7228 27.1803 55.9955 27.453 56.2682 27.5439L58.9044 28.1803L58.1772 31.0892C58.0863 31.3619 58.1772 31.7255 58.4499 31.9982L60.6315 34.089L58.1772 36.5434C57.9953 36.7252 57.9044 37.0888 57.9044 37.3615L58.6317 40.7249L55.9955 41.2704C55.6319 41.3613 55.3591 41.634 55.2682 41.9067L54.6319 44.5429L51.723 43.8157C51.3594 43.7248 51.0867 43.8157 50.814 44.0884L48.7232 46.2701L46.2688 43.8157C46.087 43.6339 45.9052 43.5429 45.6325 43.5429C45.5416 43.5429 45.5416 43.5429 45.4507 43.5429L42.0872 44.2702L41.5418 41.634C41.4509 41.2704 41.1782 40.9977 40.9055 40.9067L38.2693 40.2704L38.9965 37.3615C39.0874 37.0888 38.9965 36.7252 38.7238 36.4525L36.5421 34.3617L38.9965 31.9073C39.1783 31.7255 39.2692 31.3619 39.2692 31.0892L38.542 27.7257L41.1782 27.1803C41.5418 27.0894 41.8145 26.8167 41.9054 26.544L42.5417 23.9078L45.4507 24.635C45.7234 24.7259 46.087 24.635 46.3597 24.3623L48.4505 22.1806L50.9049 24.635C51.0867 24.8168 51.4503 24.9077 51.723 24.9077L55.0864 24.1805L55.6319 26.8167Z" fill="#FD1716"/>
<path d="M43.9984 34.3624L46.5437 37.9076C46.7255 38.0894 46.9073 38.2712 47.18 38.2712C47.18 38.2712 47.18 38.2712 47.2709 38.2712C47.5436 38.2712 47.7255 38.1803 47.9073 37.9985L52.907 32.6352C53.2706 32.2716 53.2706 31.7262 52.907 31.3626C52.5433 30.9989 51.9979 30.9989 51.6343 31.3626L47.3618 35.9077L45.4529 33.2715C45.1802 32.9079 44.5438 32.817 44.1802 33.0897C43.8166 33.4533 43.7257 33.9988 43.9984 34.3624Z" fill="#FD1716"/>
<path d="M9.54297 43.9969C9.54297 44.5423 9.90658 44.906 10.452 44.906H29.6326C30.1781 44.906 30.5417 44.5423 30.5417 43.9969C30.5417 43.4515 30.1781 43.0879 29.6326 43.0879H10.452C9.99749 43.0879 9.54297 43.4515 9.54297 43.9969Z" fill="#FD1716"/>
<path d="M10.5458 51.2692H29.7264C30.2718 51.2692 30.6354 50.9056 30.6354 50.3602C30.6354 49.8148 30.2718 49.4512 29.7264 49.4512H10.5458C10.0003 49.4512 9.63672 49.8148 9.63672 50.3602C9.63672 50.9056 10.0003 51.2692 10.5458 51.2692Z" fill="#FD1716"/>
<path d="M10.5458 57.6345H29.7264C30.2718 57.6345 30.6354 57.2709 30.6354 56.7254C30.6354 56.18 30.2718 55.8164 29.7264 55.8164H10.5458C10.0003 55.8164 9.63672 56.18 9.63672 56.7254C9.63672 57.2709 10.0912 57.6345 10.5458 57.6345Z" fill="#FD1716"/>
</svg>
