<svg width="70" height="70" viewBox="0 0 70 70" fill="none" xmlns="http://www.w3.org/2000/svg">
<path d="M40.7164 25.793L39.9835 25.8846C36.2278 26.1594 34.3958 29.5487 34.0294 30.4647C31.2813 32.2052 29.6324 34.4953 29.0828 37.2434C27.8919 43.1059 32.0141 49.1517 32.1973 49.4266L32.3805 49.7014H47.3118V48.9685C47.037 44.48 44.1973 41.6403 43.0065 40.6327C42.7316 40.4495 42.5484 40.1746 42.3652 39.9914C44.1057 40.8159 45.3881 40.9991 46.121 40.9991C47.037 40.9991 47.495 40.7243 47.495 40.7243C48.5026 40.2663 49.5103 38.6174 49.5103 37.1517C49.5103 36.1441 48.9606 35.3197 47.953 34.8617C46.3042 34.1288 44.1057 31.1059 43.4645 30.0067L43.3729 29.8235L43.1897 29.9151C42.3652 29.5487 41.3576 29.4571 40.6248 29.3655V25.793H40.7164ZM42.4568 31.1059C43.0064 31.9304 45.3881 35.4113 47.495 36.2357C47.953 36.4189 48.2278 36.7853 48.2278 37.2434C48.2278 38.1594 47.495 39.2586 46.9454 39.5334C46.9454 39.5334 45.2965 40.2663 41.3576 37.9762L40.35 37.335V38.5258C40.35 38.6174 40.35 40.2663 42.0904 41.7319C42.9148 42.3731 45.2965 44.6632 45.8461 48.3273H33.1133C32.2889 47.1365 29.4492 42.1899 30.3652 37.5182C30.9148 35.0449 32.3805 33.0296 34.8538 31.564L35.037 31.4724L35.1286 31.2892C35.1286 31.2892 36.3194 28.083 39.2507 27.4418V30.8311H40.1668C40.5332 30.7395 41.6324 30.7395 42.4568 31.1059Z" fill="#FD1716"/>
<path d="M31.5566 37.8843C31.0069 40.4491 31.923 43.1972 32.839 44.9377L34.1214 44.3881C33.3886 42.7392 32.4726 40.3575 32.9306 38.1591C33.297 36.6018 34.213 35.3194 35.9535 34.2201L35.2207 33.0293C33.1138 34.3117 31.923 35.869 31.5566 37.8843Z" fill="#FD1716"/>
<path d="M49.055 53.2735V53.0903C49.055 51.7162 47.8642 50.5254 46.4901 50.5254H32.8413C31.4672 50.5254 30.2764 51.7162 30.2764 53.0903V53.2735C30.2764 54.0063 30.6428 54.7391 31.1924 55.1971C29.7268 56.5712 28.9023 58.4033 28.9023 59.9605C28.9023 60.8765 29.91 61.6094 30.826 61.6094H48.5054C49.4214 61.6094 50.4291 60.8765 50.4291 59.9605C50.4291 58.4033 49.6046 56.5712 48.139 55.1971C48.6886 54.7391 49.055 54.0063 49.055 53.2735ZM31.6504 52.9987C31.6504 52.3575 32.2001 51.8078 32.8413 51.8078H46.3985C47.0397 51.8078 47.5894 52.3575 47.5894 52.9987V53.1819C47.5894 53.8231 47.0397 54.3727 46.3985 54.3727H32.8413C32.2001 54.3727 31.6504 53.8231 31.6504 53.1819V52.9987ZM46.7649 55.8384C48.139 56.9376 49.055 58.5865 49.055 59.9605C49.055 60.0521 48.6886 60.2353 48.5054 60.2353H30.826C30.6428 60.2353 30.368 60.0521 30.2764 59.9605C30.2764 58.5865 31.1924 56.9376 32.5665 55.8384H32.8413H46.3985H46.7649Z" fill="#FD1716"/>
<path d="M61.9681 32.1143V29.4579C61.9681 28.1754 60.9604 27.0762 59.5864 27.0762C58.3039 27.0762 57.2047 28.0838 57.2047 29.4579V32.1143H56.1055V33.4884H57.2047V34.8624H56.1055V36.2365H57.2047V57.9464L59.5864 62.6182L61.9681 57.9464V36.2365H63.2505V44.7556H64.6246V32.1143H61.9681ZM58.6704 29.4579C58.6704 28.9082 59.1284 28.4502 59.678 28.4502C60.2276 28.4502 60.6856 28.9082 60.6856 29.4579V32.1143H58.6704V29.4579ZM58.6704 33.4884H60.594V34.8624H58.6704V33.4884ZM59.678 59.5037L58.6704 57.58V57.3052H60.594V57.58L59.678 59.5037ZM60.594 55.9311H58.6704V36.2365H60.594V55.9311ZM61.9681 34.8624V33.4884H63.2505V34.8624H61.9681Z" fill="#FD1716"/>
<path d="M32.6592 9.67188H31.2852V11.0459H32.6592V9.67188Z" fill="#FD1716"/>
<path d="M29.085 9.67188H27.7109V11.0459H29.085V9.67188Z" fill="#FD1716"/>
<path d="M36.1379 9.67188H34.8555V11.0459H36.1379V9.67188Z" fill="#FD1716"/>
<path d="M25.5108 9.67188H24.1367V11.0459H25.5108V9.67188Z" fill="#FD1716"/>
<path d="M42.7328 5H17.542V8.1145H6V65H54.2748V8.0229H42.7328V5ZM18.916 6.37405H41.2672V14.5267H18.916V6.37405ZM52.9008 9.39695V63.5344H7.37405V9.39695H17.542V15.8092H42.6412V9.39695H52.9008Z" fill="#FD1716"/>
<path d="M15.2496 26.8934L14.242 25.8858L13.2344 26.8934L15.2496 28.8171L19.555 24.6033L18.5474 23.5957L15.2496 26.8934Z" fill="#FD1716"/>
<path d="M10.7617 31.5662H21.9373V20.3906H10.7617V31.5662ZM12.1358 21.7647H20.5632V30.1922H12.1358V21.7647Z" fill="#FD1716"/>
<path d="M15.2496 55.5653L14.242 54.5577L13.2344 55.5653L15.2496 57.5806L19.555 53.2752L18.5474 52.2676L15.2496 55.5653Z" fill="#FD1716"/>
<path d="M10.7617 60.2361H21.9373V49.0605H10.7617V60.2361ZM12.1358 50.4346H20.5632V58.8621H12.1358V50.4346Z" fill="#FD1716"/>
<path d="M15.2496 41.2743L14.242 40.2666L13.2344 41.1827L15.2496 43.1979L19.555 38.8926L18.5474 37.9766L15.2496 41.2743Z" fill="#FD1716"/>
<path d="M10.7617 45.9469H21.9373V34.6797H10.7617V45.9469ZM12.1358 36.0537H20.5632V44.5728H12.1358V36.0537Z" fill="#FD1716"/>
</svg>
