<svg width="60" height="60" viewBox="0 0 60 60" fill="none" xmlns="http://www.w3.org/2000/svg">
<circle cx="30" cy="30" r="25" fill="#EDF0F4"/>
<path d="M37.4985 24.9777C36.9654 24.6711 36.28 24.6711 35.6708 24.9777L31.4062 27.5074L28.5124 29.1171L24.324 31.6468C23.7909 31.9534 23.1055 31.9534 22.4963 31.6468L19.2217 29.6537C18.6886 29.3471 18.3079 28.7339 18.3079 28.044V24.2111C18.3079 23.5979 18.6125 22.9846 19.2217 22.6013L22.4963 20.6849C23.0294 20.3783 23.7148 20.3783 24.324 20.6849L27.5986 22.678C28.1316 22.9846 28.5124 23.5979 28.5124 24.2878V26.8174L31.4062 25.131V22.5247C31.4062 21.9114 31.1016 21.2982 30.4924 20.9149L24.4001 17.312C23.8671 17.0054 23.1817 17.0054 22.5725 17.312L16.3279 20.9915C15.7187 21.2982 15.4141 21.9114 15.4141 22.5247V29.7304C15.4141 30.3437 15.7187 30.9569 16.3279 31.3402L22.4963 34.9431C23.0294 35.2497 23.7148 35.2497 24.324 34.9431L28.5124 32.49L31.4062 30.8036L35.5947 28.3506C36.1277 28.044 36.8131 28.044 37.4223 28.3506L40.6969 30.267C41.23 30.5736 41.6108 31.1869 41.6108 31.8768V35.7096C41.6108 36.3229 41.3061 36.9361 40.6969 37.3194L37.4985 39.2358C36.9654 39.5425 36.28 39.5425 35.6708 39.2358L32.3962 37.3194C31.8631 37.0128 31.4824 36.3995 31.4824 35.7096V33.2566L28.5886 34.9431V37.4727C28.5886 38.086 28.8932 38.6992 29.5024 39.0825L35.6708 42.6854C36.2039 42.992 36.8893 42.992 37.4985 42.6854L43.6669 39.0825C44.2 38.7759 44.5807 38.1626 44.5807 37.4727V30.1903C44.5807 29.5771 44.2761 28.9638 43.6669 28.5805L37.4985 24.9777Z" fill="#8247E5"/>
</svg>
