<svg width="60" height="60" viewBox="0 0 60 60" fill="none" xmlns="http://www.w3.org/2000/svg">
<path d="M30 55C43.8071 55 55 43.8071 55 30C55 16.1929 43.8071 5 30 5C16.1929 5 5 16.1929 5 30C5 43.8071 16.1929 55 30 55Z" fill="#F3BA2F"/>
<path d="M24.7686 27.8525L29.998 22.623L35.2275 27.8574L38.2695 24.8154L29.998 16.5391L21.7266 24.8105L24.7686 27.8525Z" fill="white"/>
<path d="M16.5391 29.998L19.5808 26.9562L22.6227 29.9979L19.5809 33.0398L16.5391 29.998Z" fill="white"/>
<path d="M24.7695 32.1494L29.999 37.3789L35.2285 32.1445L38.2754 35.1865H38.2705L29.999 43.4629L21.7275 35.1914L21.7227 35.1865L24.7695 32.1494Z" fill="white"/>
<path d="M37.375 30.002L40.4168 26.9601L43.4586 30.0018L40.4169 33.0437L37.375 30.002Z" fill="white"/>
<path d="M33.0869 30.001L30.001 26.9102L27.7207 29.1953L27.457 29.4541L26.915 29.9961L26.9102 30.001L26.915 30.0059L30.001 33.0918L33.0869 30.001Z" fill="white"/>
</svg>
