<svg width="150" height="43" viewBox="0 0 150 43" fill="none" xmlns="http://www.w3.org/2000/svg">
<path d="M9.32498 0C4.17499 0 0 4.17499 0 9.32498V33.2249C0 38.3749 4.17499 42.5499 9.32498 42.5499H33.1749C38.3249 42.5499 42.4999 38.3749 42.4999 33.2249V9.32498C42.4999 4.17499 38.3249 0 33.1749 0H9.32498Z" fill="#FEDA03"/>
<path d="M29.3976 21.225C30.7226 20.875 31.9226 19.85 31.9226 17.825C31.9226 14.425 29.0976 13.625 25.4476 13.625H10.9727V28.925H17.0726V23.725H24.2976C25.4226 23.725 26.0726 24.175 26.0726 25.275V28.9H32.1726V25.075C32.1476 23.025 30.9976 21.7 29.3976 21.225Z" fill="black"/>
<path d="M25.2992 17.9004H17.0742V20.0004H25.2992H25.3242C25.8992 20.0004 26.3492 19.5254 26.3492 18.9504C26.3492 18.3754 25.8992 17.9004 25.3242 17.9004C25.3242 17.9004 25.3242 17.9004 25.2992 17.9004Z" fill="#FEDA03"/>
<path d="M126.898 24.7242C126.898 29.1992 124.323 32.2742 119.948 32.2742C118.148 32.2742 116.498 31.5242 115.773 30.3492V32.0242H112.123V11.4992H115.773V19.0242C116.623 17.9242 118.173 17.1742 119.998 17.1742C124.323 17.1742 126.898 20.2492 126.898 24.7242ZM115.548 24.7242C115.548 27.3742 117.073 29.0992 119.423 29.0992C121.748 29.0992 123.273 27.3492 123.273 24.7242C123.273 22.0742 121.748 20.3492 119.423 20.3492C117.073 20.3492 115.548 22.0742 115.548 24.7242ZM74.8984 32.0242L70.4484 22.9492C72.4484 21.9742 73.6234 20.0242 73.6234 17.7242C73.6234 14.0742 71.0484 11.7242 67.0734 11.7242H57.3984L57.4234 32.0242H61.3484V23.6992H66.3984L70.2984 32.0242H74.8984ZM61.3734 15.1242H66.4734C68.4984 15.1242 69.6484 16.0992 69.6484 17.7242C69.6484 19.3492 68.4984 20.2992 66.4734 20.2992H61.3734V15.1242ZM86.8734 17.4242H90.5233V32.0242H86.8734V30.3492C86.1484 31.4992 84.5234 32.2742 82.6984 32.2742C78.3234 32.2742 75.7484 29.1992 75.7484 24.7242C75.7484 20.2492 78.3234 17.1742 82.6484 17.1742C84.4734 17.1742 86.0234 17.9242 86.8734 19.0242V17.4242ZM79.3734 24.7242C79.3734 27.3742 80.8984 29.0992 83.2234 29.0992C85.5734 29.0992 87.0984 27.3492 87.0984 24.7242C87.0984 22.0742 85.5734 20.3492 83.2234 20.3492C80.8984 20.3492 79.3734 22.0742 79.3734 24.7242ZM103.423 17.4242L103.198 20.9742C102.673 20.7492 101.973 20.6242 101.348 20.6242C99.2983 20.6242 97.4483 22.3242 97.4483 26.6742V32.0242H93.7983V17.3992H97.4483V20.0742C98.1733 18.4242 100.073 17.1742 101.848 17.1742C102.348 17.1742 102.973 17.2742 103.423 17.4242ZM108.898 32.0242H105.248V17.3992H108.898V32.0242ZM129.373 32.0242H133.023V11.4992H129.373V32.0242ZM149.998 24.2242C149.998 20.8242 147.598 17.1742 142.673 17.1742C137.848 17.1742 135.473 20.9242 135.473 24.7242C135.473 28.5242 138.048 32.2742 142.873 32.2742C146.298 32.2742 148.823 30.6492 149.648 27.8992L146.223 26.9742C145.848 28.3992 144.623 29.1992 142.923 29.1992C140.848 29.1992 139.423 27.8992 139.098 25.6992H149.923C149.973 25.3992 149.998 24.7492 149.998 24.2242ZM139.223 22.9992C139.623 21.0242 140.898 19.9492 142.698 19.9492C144.823 19.9492 145.948 21.2492 146.123 22.9992H139.223ZM104.823 12.2492C104.823 11.3242 105.573 10.5742 106.498 10.5742H107.698C108.623 10.5742 109.373 11.3242 109.373 12.2492V13.4492C109.373 14.3742 108.623 15.1242 107.698 15.1242H106.498C105.573 15.1242 104.823 14.3742 104.823 13.4492V12.2492Z" fill="black"/>
</svg>
