<svg width="150" height="40" viewBox="0 0 150 40" fill="none" xmlns="http://www.w3.org/2000/svg">
<mask id="mask0_4801_4656" style="mask-type:luminance" maskUnits="userSpaceOnUse" x="0" y="0" width="40" height="40">
<path d="M39.2169 0H0V39.2169H39.2169V0Z" fill="white"/>
</mask>
<g mask="url(#mask0_4801_4656)">
<path d="M37.1339 18.4341C37.1339 28.2202 29.2007 36.1534 19.4146 36.1534C9.6285 36.1534 1.69531 28.2202 1.69531 18.4341C1.69531 8.64804 9.6285 0.714844 19.4146 0.714844C29.2007 0.714844 37.1339 8.64804 37.1339 18.4341Z" fill="white"/>
<path d="M19.7791 -0.0012542C8.81469 -0.0927603 -0.0908071 8.81274 0.000698927 19.7772C0.092205 30.4245 8.79182 39.1241 19.4359 39.2123C30.4004 39.3072 39.3091 30.3984 39.2144 19.434C39.126 8.78988 30.4265 0.0902515 19.7791 -0.0012542ZM13.9162 9.75722C15.1712 11.352 15.9228 13.3685 15.9228 15.558C15.9228 17.4536 15.3606 19.2183 14.3933 20.6922H7.5957L13.9162 9.75722ZM34.6423 23.1138C34.6423 23.2053 34.5933 23.2837 34.5084 23.3197C34.0475 23.5158 32.5278 24.2217 31.8939 25.1009C30.263 27.3722 29.018 30.9409 26.2336 30.9409H14.6155C10.501 30.9409 7.05974 27.676 7.06301 23.3262C7.06301 23.2185 7.15452 23.1301 7.26236 23.1301H12.7691C12.9586 23.1301 13.1089 23.2837 13.1089 23.4701V24.5322C13.1089 25.0976 13.5665 25.5551 14.1318 25.5551H18.3085V23.1236H15.4554C17.096 21.0451 18.0732 18.4208 18.0732 15.5645C18.0732 12.3782 16.8508 9.4729 14.8508 7.29962C16.06 7.44015 17.217 7.68199 18.3085 8.00227V7.32577C18.3085 6.62314 18.8771 6.05449 19.5797 6.05449C20.2824 6.05449 20.851 6.62314 20.851 7.32577V8.95654C24.7499 10.7769 27.3022 13.7965 27.3022 17.2116C27.3022 19.2151 26.4264 21.0811 24.9132 22.6498C24.6224 22.9505 24.2204 23.1204 23.7989 23.1204H20.851V25.5486H24.5505C25.3479 25.5486 26.7794 24.0354 27.4591 23.1236C27.4591 23.1236 27.4885 23.0779 27.567 23.055C27.6454 23.0322 34.3613 21.4897 34.3613 21.4897C34.5017 21.4505 34.6423 21.5582 34.6423 21.702V23.1138Z" fill="#0086FF"/>
</g>
<path d="M55.1452 28.1184C53.5939 28.1184 52.1692 27.7543 50.8711 27.0261C49.573 26.2979 48.5441 25.2927 47.7843 24.0104C47.0245 22.7124 46.6445 21.2482 46.6445 19.6176C46.6445 18.0029 47.0245 16.5545 47.7843 15.2722C48.5441 13.9741 49.573 12.9611 50.8711 12.2329C52.1692 11.5047 53.5939 11.1406 55.1452 11.1406C56.7125 11.1406 58.1372 11.5047 59.4193 12.2329C60.7174 12.9611 61.7385 13.9741 62.4826 15.2722C63.2424 16.5545 63.6223 18.0029 63.6223 19.6176C63.6223 21.2482 63.2424 22.7124 62.4826 24.0104C61.7385 25.2927 60.7174 26.2979 59.4193 27.0261C58.1213 27.7543 56.6966 28.1184 55.1452 28.1184ZM55.1452 25.1502C56.1426 25.1502 57.0211 24.9286 57.781 24.4853C58.5408 24.0263 59.1344 23.3772 59.5619 22.5383C59.9892 21.6992 60.203 20.7257 60.203 19.6176C60.203 18.5095 59.9892 17.5439 59.5619 16.7208C59.1344 15.8817 58.5408 15.2406 57.781 14.7973C57.0211 14.3541 56.1426 14.1324 55.1452 14.1324C54.148 14.1324 53.2615 14.3541 52.4858 14.7973C51.7259 15.2406 51.1323 15.8817 50.705 16.7208C50.2775 17.5439 50.0638 18.5095 50.0638 19.6176C50.0638 20.7257 50.2775 21.6992 50.705 22.5383C51.1323 23.3772 51.7259 24.0263 52.4858 24.4853C53.2615 24.9286 54.148 25.1502 55.1452 25.1502Z" fill="#121212"/>
<path d="M68.4688 16.6953C68.8963 16.0938 69.482 15.5952 70.2261 15.1995C70.9859 14.7879 71.8485 14.582 72.8142 14.582C73.9381 14.582 74.9512 14.859 75.8536 15.4131C76.7718 15.9671 77.492 16.7586 78.0145 17.7877C78.5527 18.8008 78.8217 19.9802 78.8217 21.3256C78.8217 22.6713 78.5527 23.8664 78.0145 24.9112C77.492 25.9401 76.7718 26.7395 75.8536 27.3094C74.9512 27.8793 73.9381 28.1642 72.8142 28.1642C71.8485 28.1642 70.9937 27.9663 70.2498 27.5706C69.5216 27.1748 68.928 26.6762 68.4688 26.0747V34.2193H65.1445V14.7957H68.4688V16.6953ZM75.4261 21.3256C75.4261 20.5341 75.26 19.8535 74.9275 19.2836C74.6109 18.6979 74.1836 18.2546 73.6454 17.9539C73.1229 17.6531 72.553 17.5027 71.9357 17.5027C71.3342 17.5027 70.7643 17.661 70.2261 17.9776C69.7036 18.2783 69.2762 18.7216 68.9438 19.3073C68.6272 19.893 68.4688 20.5817 68.4688 21.3732C68.4688 22.1647 68.6272 22.8533 68.9438 23.4389C69.2762 24.0247 69.7036 24.4759 70.2261 24.7925C70.7643 25.0932 71.3342 25.2436 71.9357 25.2436C72.553 25.2436 73.1229 25.0853 73.6454 24.7687C74.1836 24.4521 74.6109 24.001 74.9275 23.4152C75.26 22.8296 75.4261 22.133 75.4261 21.3256Z" fill="#121212"/>
<path d="M93.228 21.0883C93.228 21.5632 93.1963 21.9905 93.133 22.3704H83.5163C83.5955 23.3202 83.9279 24.0643 84.5136 24.6025C85.0993 25.1408 85.8195 25.4098 86.6743 25.4098C87.9091 25.4098 88.7878 24.8795 89.3101 23.8189H92.8956C92.5157 25.0853 91.7875 26.13 90.7111 26.9532C89.6346 27.7606 88.3129 28.1642 86.7456 28.1642C85.4792 28.1642 84.3394 27.8873 83.3263 27.3331C82.3291 26.7632 81.5454 25.9639 80.9755 24.9349C80.4215 23.906 80.1445 22.7187 80.1445 21.3732C80.1445 20.0118 80.4215 18.8165 80.9755 17.7877C81.5296 16.7586 82.3052 15.9671 83.3026 15.4131C84.2998 14.859 85.4475 14.582 86.7456 14.582C87.9962 14.582 89.1122 14.8512 90.0936 15.3894C91.091 15.9277 91.8588 16.6953 92.397 17.6927C92.951 18.6741 93.228 19.806 93.228 21.0883ZM89.785 20.1385C89.7692 19.2836 89.4604 18.6029 88.8589 18.0963C88.2574 17.574 87.5213 17.3128 86.6506 17.3128C85.8275 17.3128 85.1309 17.566 84.5611 18.0726C84.0071 18.5633 83.6666 19.252 83.54 20.1385H89.785Z" fill="#121212"/>
<path d="M102.231 14.6055C103.798 14.6055 105.065 15.1042 106.03 16.1014C106.996 17.0829 107.479 18.4602 107.479 20.2332V27.9503H104.155V20.6842C104.155 19.6394 103.893 18.8401 103.371 18.286C102.848 17.7161 102.136 17.4312 101.234 17.4312C100.316 17.4312 99.5875 17.7161 99.0493 18.286C98.5268 18.8401 98.2657 19.6394 98.2657 20.6842V27.9503H94.9414V14.7954H98.2657V16.4339C98.709 15.8641 99.2709 15.4208 99.9515 15.1042C100.648 14.7717 101.408 14.6055 102.231 14.6055Z" fill="#121212"/>
<path d="M115.177 28.1184C114.022 28.1184 112.977 27.9205 112.043 27.5247C111.125 27.129 110.397 26.5591 109.858 25.815C109.32 25.0711 109.043 24.1926 109.027 23.1794H112.589C112.637 23.8601 112.874 24.3983 113.301 24.7941C113.745 25.1898 114.346 25.3877 115.106 25.3877C115.882 25.3877 116.491 25.2057 116.934 24.8415C117.378 24.4616 117.599 23.9709 117.599 23.3694C117.599 22.8786 117.449 22.475 117.148 22.1584C116.847 21.8418 116.467 21.5964 116.008 21.4222C115.565 21.2323 114.948 21.0265 114.156 20.8049C113.08 20.4883 112.201 20.1795 111.521 19.8788C110.856 19.5622 110.278 19.0953 109.787 18.4778C109.312 17.8446 109.075 17.0057 109.075 15.9609C109.075 14.9795 109.32 14.1246 109.811 13.3964C110.302 12.6682 110.99 12.1142 111.877 11.7342C112.763 11.3385 113.776 11.1406 114.916 11.1406C116.626 11.1406 118.011 11.5601 119.072 12.3991C120.148 13.2222 120.742 14.3779 120.852 15.8659H117.196C117.164 15.2961 116.919 14.829 116.46 14.4649C116.016 14.085 115.423 13.8951 114.679 13.8951C114.03 13.8951 113.507 14.0613 113.112 14.3937C112.732 14.7262 112.542 15.2089 112.542 15.8421C112.542 16.2853 112.684 16.6574 112.969 16.9581C113.27 17.2431 113.634 17.4806 114.061 17.6706C114.505 17.8446 115.122 18.0505 115.913 18.2879C116.99 18.6045 117.868 18.9211 118.549 19.2377C119.23 19.5543 119.816 20.0292 120.306 20.6624C120.797 21.2956 121.042 22.1267 121.042 23.1556C121.042 24.0421 120.813 24.8652 120.354 25.6251C119.895 26.3849 119.222 26.9944 118.335 27.4536C117.449 27.8968 116.396 28.1184 115.177 28.1184Z" fill="#121212"/>
<path d="M135.205 21.0883C135.205 21.5632 135.173 21.9905 135.11 22.3704H125.493C125.572 23.3202 125.904 24.0643 126.49 24.6025C127.076 25.1408 127.796 25.4098 128.651 25.4098C129.886 25.4098 130.765 24.8795 131.287 23.8189H134.873C134.492 25.0853 133.764 26.13 132.688 26.9532C131.612 27.7606 130.289 28.1642 128.722 28.1642C127.456 28.1642 126.316 27.8873 125.303 27.3331C124.306 26.7632 123.522 25.9639 122.952 24.9349C122.398 23.906 122.121 22.7187 122.121 21.3732C122.121 20.0118 122.398 18.8165 122.952 17.7877C123.506 16.7586 124.282 15.9671 125.279 15.4131C126.277 14.859 127.424 14.582 128.722 14.582C129.973 14.582 131.089 14.8512 132.07 15.3894C133.067 15.9277 133.836 16.6953 134.374 17.6927C134.928 18.6741 135.205 19.806 135.205 21.0883ZM131.762 20.1385C131.746 19.2836 131.437 18.6029 130.835 18.0963C130.234 17.574 129.498 17.3128 128.627 17.3128C127.804 17.3128 127.108 17.566 126.538 18.0726C125.984 18.5633 125.643 19.252 125.517 20.1385H131.762Z" fill="#121212"/>
<path d="M136.297 21.3256C136.297 19.9959 136.559 18.8165 137.081 17.7877C137.619 16.7586 138.34 15.9671 139.241 15.4131C140.16 14.859 141.181 14.582 142.304 14.582C143.287 14.582 144.142 14.7799 144.87 15.1756C145.614 15.5714 146.207 16.0701 146.651 16.6716V14.7957H149.998V27.9506H146.651V26.0272C146.222 26.6446 145.629 27.1591 144.87 27.5706C144.126 27.9663 143.262 28.1642 142.281 28.1642C141.174 28.1642 140.16 27.8793 139.241 27.3094C138.34 26.7395 137.619 25.9401 137.081 24.9112C136.559 23.8664 136.297 22.6713 136.297 21.3256ZM146.651 21.3732C146.651 20.5658 146.492 19.8772 146.175 19.3073C145.859 18.7216 145.431 18.2783 144.893 17.9776C144.355 17.661 143.777 17.5027 143.159 17.5027C142.543 17.5027 141.972 17.6531 141.45 17.9539C140.927 18.2546 140.5 18.6979 140.168 19.2836C139.851 19.8535 139.693 20.5341 139.693 21.3256C139.693 22.1172 139.851 22.8137 140.168 23.4152C140.5 24.001 140.927 24.4521 141.45 24.7687C141.988 25.0853 142.559 25.2436 143.159 25.2436C143.777 25.2436 144.355 25.0932 144.893 24.7925C145.431 24.4759 145.859 24.0327 146.175 23.4628C146.492 22.877 146.651 22.1805 146.651 21.3732Z" fill="#121212"/>
</svg>
