<svg width="150" height="76" viewBox="0 0 150 76" fill="none" xmlns="http://www.w3.org/2000/svg">
<path fill-rule="evenodd" clip-rule="evenodd" d="M90.323 2.90701C86.4469 6.54812 82.4535 11.1876 82.4535 12.0685C82.4535 13.4486 93.6998 22.9918 95.3442 22.9918C96.4306 22.9918 106.561 11.9804 106.561 10.7765C106.561 9.57259 95.3442 0 93.9641 0C93.6704 0 92.0261 1.292 90.323 2.90701ZM14.5351 3.90538C13.5073 4.3752 12.3915 5.10929 12.0391 5.49102C11.1289 6.51876 9.98368 9.27895 9.69004 11.1876C9.42577 12.7732 9.42577 12.7732 8.54486 12.186C8.04567 11.863 7.48776 11.6868 7.31158 11.8042C6.90048 12.0685 4.22838 17.5889 4.25775 18.2055C4.25775 18.4404 5.93148 19.7912 7.98694 21.23C12.5971 24.4307 14.0652 25.8988 14.0946 27.367C14.124 28.5416 11.54 35.031 6.95921 45.2202C5.4323 48.6558 3.23002 53.5595 2.08483 56.1435L0 60.8417L0.851548 61.5465C1.61501 62.1631 2.3491 62.2218 7.92822 62.1337L14.124 62.0163L16.6199 57.6117C18 55.2039 19.2039 53.1191 19.3214 53.0016C19.4388 52.8841 21.0832 53.2952 22.9625 53.9412L26.398 55.0864L27.2496 58.6394L28.1011 62.1925H31.8891C33.9739 62.1925 36.8222 62.075 38.2023 61.9575L40.7276 61.7226V55.2626C40.7276 49.6541 41.2855 29.6868 41.5791 24.8711L41.6672 23.1974L37.1452 22.1403C25.8401 19.5269 22.7863 18.7047 21.1125 17.8532C19.1158 16.8548 18.1468 15.7096 18.1468 14.3882C18.1468 13.2137 19.4975 10.6297 20.4078 10.0718C20.8189 9.80749 21.1419 9.45513 21.1419 9.27895C21.1419 8.95595 17.0897 3.49429 16.6199 3.20065C16.4731 3.11256 15.5334 3.43556 14.5351 3.90538ZM99.0146 8.48613C99.4845 9.74877 99.4845 14.1827 99.0146 14.5057C98.4861 14.8287 94.8743 12.8026 94.8743 12.186C94.8743 11.54 95.6378 11.5693 96.5481 12.2447C97.6933 13.0962 97.8988 12.9201 97.8988 11.0995C97.8988 10.1599 97.7226 9.39641 97.5171 9.39641C97.3115 9.39641 95.7552 10.6884 94.0815 12.2447C92.3197 13.8891 90.7928 15.0342 90.411 14.9755C89.7063 14.8287 89.3246 13.4486 89.2659 10.7178C89.2071 7.84013 89.5301 7.60521 91.8205 8.83849C93.0832 9.51386 93.7291 10.1011 93.6411 10.4829C93.5823 10.8059 93.23 11.0408 92.907 10.982C92.1729 10.8646 90.734 11.9804 90.734 12.6851C90.734 13.6835 91.7911 13.0669 94.7862 10.336C96.4893 8.77977 98.0456 7.51712 98.2805 7.51712C98.4861 7.54649 98.8091 7.95758 99.0146 8.48613ZM90.734 10.3948C90.734 10.7178 90.9102 10.8646 91.1158 10.7471C91.3213 10.6297 91.4975 10.3654 91.4975 10.1599C91.4975 9.95431 91.3213 9.8075 91.1158 9.8075C90.9102 9.8075 90.734 10.0718 90.734 10.3948ZM131.755 10.8059C127.204 12.4502 108.059 20.5546 107.178 21.2006C106.62 21.6117 106.679 22.1403 107.853 27.5138C110.202 38.0261 115.664 59.9314 116.104 60.5187C116.486 61.0473 117.279 61.0473 123.856 60.5187C127.879 60.1957 132.196 59.9314 133.458 59.9314H135.719L135.573 64.4535C135.455 68.6525 135.484 68.9755 136.13 68.9461C136.512 68.9461 139.625 67.9478 143.002 66.7438C147.289 65.2169 149.344 64.3066 149.726 63.7487C150.225 62.9853 150.166 62.8972 148.493 61.8988C147.524 61.3115 146.496 60.6655 146.202 60.46C145.791 60.137 146.026 59.2267 147.553 55.4094C150.431 48.2447 150.577 48.3621 138.891 48.0391C134.016 47.8923 129.67 47.7161 129.23 47.628C128.437 47.4518 127.263 45.1321 127.85 44.8972C128.026 44.8385 130.17 43.9869 132.636 43.0179L137.129 41.2561L137.599 38.0554C137.863 36.2936 138.01 34.7961 137.922 34.708C137.863 34.6492 136.453 34.3262 134.78 34.062C133.135 33.7683 130.757 33.093 129.465 32.535L127.145 31.5367L125.471 33.2985C124.561 34.2675 123.651 35.0603 123.475 35.0603C122.858 35.0603 121.419 33.416 120.891 32.124C120.245 30.597 120.509 28.3654 121.36 28.0424C121.654 27.9249 123.034 28.3067 124.414 28.8939C126.323 29.7161 126.969 29.8336 127.086 29.4519C127.497 28.1892 130.962 24.1664 132.93 22.6982C134.427 21.553 135.044 20.8483 134.927 20.4078C134.838 20.0555 134.574 17.8532 134.339 15.4747C134.104 13.0962 133.84 11.0408 133.723 10.8646C133.576 10.5122 132.636 10.4829 131.755 10.8059ZM70.8841 28.8939C67.5073 31.6541 64.6003 33.9151 64.4241 33.9151C64.2479 33.9151 62.075 31.7716 59.5497 29.1582L54.9983 24.4013L52.8254 25.6346C49.1549 27.7194 44.8385 30.5677 44.8385 30.8907C44.8385 31.2137 49.4486 38.9951 51.0636 41.3735C51.5628 42.137 51.9739 42.9298 51.9739 43.1647C51.9739 43.3996 49.9184 45.8368 47.4225 48.5383C44.9266 51.2691 42.9298 53.6476 42.9886 53.8238C43.1941 54.3523 52.4731 62.8972 52.8548 62.8972C53.2071 62.8972 57.0244 59.5497 62.0163 54.8809C63.9837 53.0016 65.305 52.0326 65.5987 52.2088C65.8629 52.3556 68.0946 54.0293 70.5905 55.938C76.4045 60.3719 79.6052 62.5155 80.398 62.5155C80.9559 62.5155 89.354 56.8189 89.765 56.1435C89.8531 55.9967 89.5008 54.1174 88.9722 52.0032C88.1794 48.8613 87.8858 48.1566 87.3866 48.3328C87.0636 48.4502 85.9771 48.8319 84.9787 49.1549C83.4812 49.6835 82.9233 49.7129 81.69 49.3605C79.7814 48.8026 77.2854 46.8646 75.9934 44.9559C74.1435 42.2545 74.1142 42.3132 78.9592 38.3784C81.367 36.4111 83.951 34.2675 84.6557 33.6215L85.9771 32.447L83.1582 29.54C81.6019 27.9543 79.5758 25.9869 78.6655 25.2235L76.9624 23.814L70.8841 28.8939ZM95.6378 24.7243C92.4371 25.2235 89.2365 25.7227 88.5318 25.8401L87.2691 26.075L87.504 28.659C87.8564 32.3882 87.8858 32.447 90.2055 32.447H92.2316L92.6721 34.062C93.2887 36.323 92.6427 40.4339 91.2039 43.5465L90.0587 46.013L91.1745 51.7977C91.7911 54.969 92.4959 57.7585 92.7308 57.9934C93.4061 58.6394 105.533 60.7536 105.974 60.3132C106.091 60.1957 105.915 55.7031 105.621 50.3589C105.298 44.9853 104.858 37.2039 104.652 33.0636C104.418 28.9233 104.153 25.1354 104.065 24.6656C103.83 23.5204 103.331 23.5204 95.6378 24.7243ZM28.4535 33.1811C28.659 33.3866 28.8939 35.5595 28.982 38.0261C29.0995 42.4013 29.0995 42.4894 28.1892 43.0766C27.3083 43.6346 27.0734 43.6346 24.3719 42.9005C22.7863 42.46 21.3768 41.8727 21.2594 41.5791C21.0245 40.9625 23.1093 34.6199 24.0196 33.2398C24.5775 32.3882 24.8124 32.3295 26.3687 32.535C27.2789 32.7112 28.2479 32.9755 28.4535 33.1811ZM81.9249 36.8809C81.8075 37.0864 81.6019 37.9967 81.4845 38.907C81.2495 40.6101 82.1305 44.5742 82.8352 45.0146C83.951 45.69 84.5089 39.7879 83.5106 37.7912C82.982 36.7341 82.2773 36.323 81.9249 36.8809ZM42.9592 71.442V75.4062H44.2806H45.6019V71.442V67.4779H44.2806H42.9592V71.442ZM48.597 71.442V75.4062H49.7129C50.7993 75.4062 50.8287 75.3474 50.8287 73.7031C50.8287 72.7634 50.9755 71.9999 51.1517 71.9999C51.3279 71.9999 52.0032 72.7634 52.6786 73.7031C53.6476 75.0538 54.1174 75.4062 55.0277 75.4062H56.1435L56.0848 72.3817C55.9673 68.0652 55.8205 67.4779 54.7634 67.4779C53.9412 67.4779 53.8531 67.6248 53.8531 69.5628C53.8531 70.7079 53.7063 71.6476 53.5595 71.6476C53.3833 71.6476 52.708 70.7079 52.0032 69.5628C50.9461 67.8303 50.5644 67.4779 49.6541 67.4779H48.5677V71.442H48.597ZM58.7569 71.442V75.4062H60.0783C61.3996 75.4062 61.3996 75.4062 61.3996 73.6737C61.3996 72.1174 61.4877 71.9706 62.2218 72.0587C62.7797 72.1468 63.1027 71.9706 63.1908 71.5301C63.2789 71.031 63.0734 70.8841 62.3686 70.8841C61.6639 70.8841 61.3996 70.6786 61.3996 70.1207C61.3996 69.4747 61.6639 69.3572 63.1027 69.3572C64.659 69.3572 64.8058 69.2691 64.8058 68.4176C64.8058 67.4779 64.7471 67.4779 61.8107 67.4779H58.7863V71.442H58.7569ZM67.4192 71.442V75.4062H68.7406H70.062V71.442V67.4779H68.7406H67.4192V71.442ZM73.292 68.9168C73.1745 69.7096 73.0571 71.4714 73.0571 72.8809V75.4355H74.3491C75.6411 75.4355 75.6411 75.4062 75.7585 73.6443L75.876 71.8531L77.168 73.6443C78.1957 75.0538 78.6949 75.4355 79.5171 75.4355H80.5742V71.4714V67.5073H79.4584C78.3719 67.5073 78.3425 67.566 78.2251 69.6802L78.1076 71.8531L76.6688 69.6802C75.6117 68.0946 74.9951 67.5073 74.3784 67.5073C73.6737 67.4779 73.4975 67.7422 73.292 68.9168ZM83.5987 71.442V75.4062H84.92H86.2414V71.442V67.4779H84.92H83.5987V71.442ZM89.2365 68.7993C89.2365 70.0032 89.3246 70.1207 90.3523 70.1207H91.4681V72.7634V75.4062H92.7895H94.1109V72.7634V70.1207H95.4323C96.6949 70.1207 96.7536 70.0619 96.7536 68.7993V67.4779H92.9951H89.2365V68.7993ZM98.5154 67.9478C98.6916 68.212 99.5138 69.2398 100.307 70.2675C101.834 72.2055 101.834 72.0293 100.688 74.7308C100.453 75.2887 100.63 75.3768 101.863 75.3768H103.331L105.005 71.7357C105.944 69.7389 106.737 67.9478 106.825 67.7716C106.884 67.5954 106.267 67.4486 105.445 67.4486C104.153 67.4486 103.889 67.5954 103.478 68.5938C103.214 69.2104 102.949 69.7389 102.832 69.7389C102.744 69.7389 102.245 69.2398 101.716 68.5938C100.982 67.7422 100.453 67.4486 99.4257 67.4486C98.5154 67.4779 98.2512 67.5954 98.5154 67.9478Z" fill="#040505"/>
</svg>
