<svg width="150" height="28" viewBox="0 0 150 28" fill="none" xmlns="http://www.w3.org/2000/svg">
<path d="M33.6633 5.48447H28.486L21.7247 26.7847H16.0273L22.7177 5.48447H17.3512L18.9115 0.472656H35.2945L33.6633 5.48447Z" fill="black"/>
<path d="M37.612 0.496094H54.2314L45.4371 26.7845H29.125L37.612 0.496094ZM36.43 21.7963H41.4181L46.8082 5.48427H41.7491L36.43 21.7963Z" fill="black"/>
<path d="M53.5681 26.7845H47.918L55.5303 4.20768L60.944 0.496094H72.7407L65.9085 20.1178H55.8376L53.5681 26.7845ZM61.9605 15.0824L65.2702 5.50791H60.8494L57.5634 15.0824H61.9605Z" fill="black"/>
<path d="M83.4752 26.3119H68.6289L71.5131 18.1322H77.1868L76.0521 21.3237H79.5745L81.0875 17.1393L74.3736 10.5435L78.0852 0.0234375H92.8606L90.0237 7.84849H84.8228L85.8393 5.03526H82.0804L80.8511 8.46315L87.5887 15.0353L83.4752 26.3119Z" fill="black"/>
<path d="M97.3048 10.8038H102.222L106.241 0H112.009L102.104 26.2884H96.4537L100.378 15.7683H95.4844L91.6074 26.2884H85.9336L95.5317 0H101.3L97.3048 10.8038Z" fill="black"/>
<path d="M114.445 0H131.064L120.804 26.2884H104.492L114.445 0ZM112.104 21.3239H117.093L123.381 5.01182H118.346L112.104 21.3239Z" fill="black"/>
<path d="M147.991 5.01182H142.814L134.303 26.3121H128.605L137.022 5.01182H131.655L133.617 0H150L147.991 5.01182Z" fill="black"/>
<path d="M9.29078 0.423828H2.83688C2.08038 0.423828 1.34752 0.707518 0.827423 1.22761C0.283688 1.74771 0 2.45693 0 3.18979V24.3718C0 25.1047 0.307329 25.8139 0.827423 26.334C1.37116 26.8541 2.08038 27.1378 2.83688 27.1378H9.26714C10.0236 27.1378 10.7565 26.8541 11.2766 26.334C11.8203 25.8139 12.104 25.1047 12.104 24.3718V3.16615C12.104 2.43329 11.7967 1.72407 11.2766 1.20397C10.7565 0.707517 10.0473 0.423828 9.29078 0.423828Z" fill="white"/>
<path d="M7.77725 5.24852V5.34309C7.99001 5.46129 8.08457 5.55585 8.29734 5.67406C8.84108 6.00502 9.50301 6.59604 9.43209 8.6055C9.57394 9.05467 9.64486 9.90574 9.7867 10.1894C10.0704 10.7332 10.2595 11.0878 10.3304 11.5842C10.3304 11.5842 10.4014 12.388 10.5196 12.4353C11.0869 12.5535 10.9215 12.6008 10.9924 12.6953C11.0869 12.8135 11.3943 12.7899 11.3943 13.0972C11.5125 13.2391 11.5834 13.3809 11.6543 13.5464V3.04994C11.6543 2.48256 11.4179 1.91519 10.9924 1.5133C10.5668 1.11141 9.99947 0.875 9.40845 0.875H7.25715C7.58812 0.993203 7.80089 1.13505 7.91909 1.34781C8.20278 1.37145 8.53375 1.96247 8.01365 2.86081C8.25006 3.00266 8.06093 3.21542 7.89545 3.47547C7.84817 3.54639 7.80089 3.71188 7.6354 3.68824C7.44628 4.09013 7.20987 4.46838 7.02074 4.49202C6.97346 4.56294 6.92618 4.72843 6.9971 4.79935C7.30443 4.94119 7.61176 5.08303 7.77725 5.24852Z" fill="#C8102E"/>
<path d="M11.6541 14.7526C11.5359 15.0599 11.3231 15.32 11.0631 15.5327C10.803 15.7455 10.4957 15.8873 10.1647 15.9346C9.83374 15.9819 9.50277 15.9583 9.1718 15.8401C8.86447 15.7219 8.58078 15.5327 8.34438 15.2963C8.13161 15.0363 7.96613 14.7526 7.89521 14.4216C7.82428 14.0907 7.84792 13.7597 7.94249 13.4524C8.03705 13.145 8.22617 12.8613 8.46258 12.6249C8.69899 12.3885 9.00632 12.2467 9.33729 12.1521C9.12452 11.6084 8.62807 10.6864 8.48622 10.4027C8.34438 10.0954 8.03705 8.27505 7.96613 7.92044C7.94249 7.84952 7.11506 8.39325 7.11506 8.41689C7.06778 8.46417 6.50041 9.92989 6.47677 10.0245C6.47677 10.0954 6.45312 10.1899 6.45312 10.2609C6.45312 10.2609 6.73681 10.2845 6.9023 10.781C7.06778 11.2538 7.5406 13.0268 7.5406 13.0268C7.49331 13.0741 7.44603 13.1214 7.39875 13.145C8.01341 15.1781 7.80064 16.0528 8.08433 16.6675C8.43894 17.5185 8.5335 17.4003 8.81719 18.1096C9.02996 18.6297 9.26636 20.6627 9.36093 20.7337C9.69189 21.1592 9.88102 21.4665 9.88102 21.7029C9.88102 21.9393 9.59733 22.6486 9.6919 23.0505C9.76282 23.2869 9.78646 23.8306 9.90466 23.9252C9.90466 23.9252 9.99922 24.1379 9.95194 24.2089C9.9283 24.2325 9.90466 24.2798 9.9283 24.3271C10.1174 24.9654 10.7084 26.0528 9.73918 26.6202H9.76282C10.2829 26.5493 10.7557 26.2892 11.0867 25.8873C11.4177 25.4854 11.6068 24.989 11.6068 24.4925V14.7526H11.6541Z" fill="#C8102E"/>
<path d="M9.05462 24.0901C8.70001 23.7828 8.93642 23.6646 8.91278 23.5228C8.67637 22.5771 7.89623 22.0098 8.29812 21.7024C8.20356 21.3951 7.99079 20.9932 8.01443 20.9932C6.80876 20.3313 5.76857 19.2438 5.57944 19.0783C5.36668 18.8655 5.01207 18.6291 4.94115 18.4637C4.65746 18.2036 3.21538 16.2651 2.88441 15.5558L2.29339 15.4849C2.03334 14.4447 1.15864 13.5937 1.135 12.5535C1.135 12.1516 1.32413 11.3242 1.39505 11.1587C1.46597 10.9932 1.79694 10.7095 1.79694 10.7095V10.4258C0.520343 10.4495 0.898594 10.3313 0.685828 9.85845C0.543984 9.52748 0.638546 9.45656 0.709468 9.2438C0.874953 8.58186 1.44233 7.54167 1.67874 7.06885C1.74966 6.83245 1.98606 6.26507 1.98606 6.26507C2.93169 4.4211 3.2863 4.56294 4.39741 4.46838L4.44469 4.39746C5.57945 4.35018 5.39032 4.27925 5.53216 3.23906C5.36668 3.30998 5.3194 2.90809 5.3194 2.90809C5.22483 2.31708 5.48488 2.43528 5.60309 2.41164C5.62673 1.44238 5.72129 1.13505 6.45415 0.875H2.67164C2.38796 0.875 2.08063 0.922281 1.82058 1.04048C1.53689 1.15869 1.30048 1.30053 1.08772 1.5133C0.874953 1.70242 0.709468 1.93883 0.591265 2.19887C0.473062 2.45892 0.425781 2.74261 0.425781 3.0263V24.5157C0.425781 24.7993 0.473062 25.083 0.591265 25.3431C0.709468 25.6031 0.874953 25.8395 1.08772 26.0287C1.30048 26.2178 1.53689 26.3833 1.82058 26.5015C2.10427 26.6197 2.38796 26.667 2.67164 26.667H9.29103C8.58181 26.2651 9.03098 25.5086 9.05462 24.0901Z" fill="#1D428A"/>
<path d="M3.97121 25.2489V21.5137H4.77499C5.2478 21.5137 5.53149 21.7501 5.53149 22.2702V22.8139C5.53149 23.1449 5.41329 23.334 5.2478 23.4049C5.41329 23.4995 5.53149 23.665 5.53149 23.9487V24.4924C5.53149 25.0125 5.22416 25.2253 4.77499 25.2253H3.97121V25.2489ZM4.51494 23.6177V24.7761H4.72771C4.91683 24.7761 4.96411 24.6815 4.96411 24.516V23.8777C4.96411 23.6886 4.89319 23.6177 4.72771 23.6177H4.51494ZM4.51494 21.9865V23.2158H4.72771C4.91683 23.2158 4.96411 23.1449 4.96411 22.9558V22.2465C4.96411 22.081 4.91683 21.9865 4.72771 21.9865H4.51494ZM6.80809 24.4924H6.31163L6.24071 25.2489H5.67333L6.16979 21.5137H6.94993L7.42274 25.2489H6.85537L6.80809 24.4924ZM6.57168 21.9156H6.54804C6.5244 22.3647 6.45347 23.1685 6.42983 23.4049L6.35891 24.0432H6.78444L6.71352 23.4049C6.68988 23.1685 6.61896 22.3884 6.57168 21.9156ZM2.34 25.2489H1.86719V21.5137H2.62369L3.23834 24.587C3.19106 23.8541 3.12014 22.9558 3.12014 22.2229V21.5373H3.59295V25.2725H2.90738L2.29272 22.2702C2.34 22.9557 2.34 23.5231 2.34 24.0905V25.2489Z" fill="white"/>
</svg>
