<svg width="150" height="25" viewBox="0 0 150 25" fill="none" xmlns="http://www.w3.org/2000/svg">
<path d="M116.098 14.9642H113.491C113.291 14.9642 113.103 14.8819 112.95 14.741C112.809 14.6 112.727 14.4121 112.715 14.2124V13.6133C112.715 13.4136 112.798 13.2257 112.95 13.0848C113.091 12.9438 113.279 12.8616 113.491 12.8616H115.722C115.922 12.8616 116.122 12.7793 116.263 12.6384C116.404 12.4974 116.486 12.3095 116.486 12.1098C116.486 11.9101 116.404 11.7222 116.263 11.5812C116.122 11.4403 115.922 11.358 115.722 11.358H113.479C113.279 11.358 113.091 11.2758 112.939 11.1349C112.798 10.9939 112.715 10.806 112.704 10.6063V10.0072C112.704 9.80754 112.786 9.6196 112.939 9.47865C113.08 9.33769 113.267 9.25547 113.479 9.25547H116.028C116.227 9.25547 116.427 9.17325 116.568 9.03229C116.709 8.89134 116.791 8.7034 116.791 8.50371C116.791 8.30402 116.709 8.11608 116.568 7.97513C116.427 7.83417 116.227 7.75195 116.028 7.75195H112.962C112.845 7.75195 112.727 7.78719 112.633 7.85767C112.539 7.92814 112.48 8.03386 112.457 8.15132L110.824 15.7512V15.9039C110.848 16.08 110.942 16.2445 111.094 16.3502C111.235 16.4677 111.412 16.5147 111.599 16.5029H116.098C116.298 16.5029 116.498 16.4207 116.639 16.2797C116.78 16.1388 116.862 15.9508 116.862 15.7512C116.862 15.5515 116.78 15.3635 116.639 15.2226C116.498 15.0816 116.298 14.9994 116.098 14.9994V14.9642Z" fill="#1D1D1B"/>
<path d="M59.4115 7.77539H58.3896C58.2369 7.77539 58.096 7.82238 57.9667 7.9046C57.8375 7.98683 57.7436 8.09254 57.6731 8.2335L55.4295 13.5663C55.4295 13.578 55.4295 13.5898 55.4178 13.6015C55.4061 13.6133 55.3943 13.6133 55.3826 13.6133C55.3356 13.6133 55.3356 13.6133 55.3356 13.5663L53.092 8.2335C53.0333 8.09254 52.9511 7.97508 52.8336 7.88111C52.6339 7.72841 52.3755 7.92809 52.3285 8.18651L50.6253 15.8686C50.6136 15.9508 50.6253 16.0448 50.6723 16.1152C50.731 16.2327 50.825 16.3384 50.9425 16.4089C51.0599 16.4794 51.2009 16.5146 51.3301 16.5146H51.6355C51.8352 16.5029 52.0231 16.4206 52.1641 16.2797C52.305 16.1387 52.3873 15.9508 52.3873 15.7628V10.8294C52.3873 10.8177 52.3873 10.8059 52.399 10.7942C52.4108 10.7824 52.4225 10.7824 52.4343 10.7824C52.446 10.7824 52.4577 10.7824 52.4695 10.7942C52.4812 10.8059 52.4812 10.8177 52.4812 10.8294L54.5721 16.0095C54.6308 16.1505 54.7248 16.2679 54.854 16.3502C54.9832 16.4324 55.1359 16.4676 55.2886 16.4676H55.4883C55.641 16.4676 55.7819 16.4206 55.9111 16.3384C56.0404 16.2562 56.1343 16.1505 56.2048 16.0095L58.2956 10.8764C58.2956 10.8647 58.2956 10.8529 58.3074 10.8412C58.3191 10.8294 58.3309 10.8294 58.3426 10.8294C58.3544 10.8294 58.3661 10.8294 58.3779 10.8412C58.3896 10.8529 58.3896 10.8647 58.3896 10.8764V15.7628C58.3896 15.9625 58.4718 16.1505 58.6245 16.2914C58.7655 16.4324 58.9534 16.5146 59.1649 16.5146H59.4703C59.6699 16.5146 59.8579 16.4324 60.0106 16.2914C60.1515 16.1505 60.2338 15.9625 60.2455 15.7628V8.51541C60.2103 8.31572 60.1046 8.12778 59.9519 7.99857C59.8109 7.86936 59.6112 7.78714 59.4115 7.77539Z" fill="#1D1D1B"/>
<path d="M82.7982 11.8518H80.5547C80.3668 11.8518 80.1788 11.9223 80.0496 12.0633C79.9204 12.1925 79.8382 12.3804 79.8382 12.5566C79.8382 12.7446 79.9086 12.9208 80.0496 13.05C80.1788 13.1792 80.3668 13.2614 80.5547 13.2614H80.9658C81.3769 13.2614 81.7881 13.6138 81.5766 14.0132C81.2712 14.671 80.6604 15.0233 79.6855 15.0233C78.2524 15.0233 77.3832 13.9662 77.3832 12.1573C77.3832 10.3483 78.2994 9.29116 79.6855 9.29116C80.0026 9.27942 80.3198 9.33815 80.6134 9.4791C80.8953 9.62006 81.142 9.83149 81.3182 10.0899C81.4004 10.2309 81.5179 10.3601 81.6588 10.454C81.7998 10.548 81.9642 10.595 82.1404 10.595H82.5985C82.7043 10.6067 82.81 10.5833 82.9039 10.548C82.9979 10.5128 83.0801 10.4423 83.1506 10.3718C83.2211 10.2896 83.2563 10.1956 83.2798 10.1017C83.3033 9.99594 83.2916 9.90197 83.2681 9.79625C82.9509 9.13846 82.4458 8.58639 81.7998 8.21051C81.1655 7.83463 80.4255 7.64669 79.6855 7.68192C77.3362 7.68192 75.5508 9.33815 75.5508 12.1573C75.5508 14.9764 77.2305 16.6326 79.7325 16.6326C81.976 16.6326 83.5617 15.223 83.5617 12.956V12.6036C83.5617 12.5096 83.55 12.4039 83.503 12.31C83.4678 12.216 83.409 12.1338 83.3386 12.0633C83.2681 11.9928 83.1859 11.9341 83.0919 11.8988C82.9979 11.8636 82.9039 11.8518 82.7982 11.8518Z" fill="#1D1D1B"/>
<path d="M69.5247 8.28049C69.4777 8.13953 69.372 8.01032 69.2428 7.91635C69.1136 7.82238 68.9609 7.77539 68.8082 7.77539H67.4809C67.3282 7.77539 67.1755 7.82238 67.0463 7.91635C66.9171 8.01032 66.8231 8.12778 66.7644 8.28049L64.2154 15.5162C64.1802 15.6336 64.1684 15.7511 64.1802 15.8686C64.1919 15.986 64.2389 16.1035 64.3094 16.1975C64.3799 16.2914 64.4738 16.3737 64.5796 16.4324C64.6853 16.4911 64.8027 16.5146 64.9202 16.5264H65.3313C65.484 16.5264 65.6367 16.4794 65.7659 16.3854C65.8951 16.2914 65.9891 16.174 66.0478 16.0213L66.3532 15.0698C66.4002 14.9289 66.5059 14.7997 66.6352 14.7057C66.7644 14.6117 66.9171 14.5647 67.0698 14.5647H69.1606C69.3133 14.5647 69.466 14.6117 69.5952 14.7057C69.7244 14.7997 69.8184 14.9171 69.8771 15.0698L70.1825 16.0213C70.2295 16.1622 70.3352 16.2914 70.4644 16.3854C70.5936 16.4794 70.7463 16.5264 70.899 16.5264H71.3102C71.4276 16.5264 71.5451 16.4911 71.6508 16.4324C71.7565 16.3737 71.8505 16.2914 71.921 16.1975C71.9915 16.1035 72.0384 15.986 72.0502 15.8686C72.0619 15.7511 72.0619 15.6336 72.0149 15.5162L69.5247 8.28049ZM68.2209 13.0612H68.0682C67.9507 13.0612 67.8333 13.026 67.7158 12.9672C67.6101 12.9085 67.5161 12.8263 67.4456 12.7323C67.3752 12.6383 67.3282 12.5209 67.3164 12.4034C67.3047 12.286 67.3047 12.1685 67.3517 12.051L68.1152 9.73702C68.1152 9.72527 68.1152 9.71353 68.1269 9.70178C68.1387 9.69003 68.1504 9.69004 68.1622 9.69004C68.1739 9.69004 68.1857 9.69003 68.1974 9.70178C68.2092 9.71353 68.2092 9.72527 68.2092 9.73702L68.9727 12.051C68.9962 12.1685 68.9962 12.286 68.9727 12.4034C68.9492 12.5209 68.9022 12.6266 68.82 12.7323C68.7495 12.8263 68.6555 12.9085 68.5498 12.9672C68.4676 13.0142 68.3501 13.0495 68.2209 13.0612Z" fill="#1D1D1B"/>
<path d="M88.7214 7.77539H88.369C88.1693 7.77539 87.9814 7.85762 87.8287 7.99857C87.6877 8.13953 87.6055 8.32747 87.5938 8.52715V15.7746C87.5938 15.9743 87.676 16.1622 87.8287 16.3032C87.9696 16.4441 88.1576 16.5264 88.369 16.5264H88.7214C88.9211 16.5264 89.109 16.4441 89.2617 16.3032C89.4027 16.1622 89.4849 15.9743 89.4966 15.7746V8.52715C89.4849 8.32747 89.4027 8.15127 89.2617 8.01032C89.109 7.86936 88.9211 7.78714 88.7214 7.77539Z" fill="#1D1D1B"/>
<path d="M97.6582 9.27927C97.9989 9.26753 98.3395 9.34975 98.6449 9.50245C98.9503 9.6669 99.2087 9.89007 99.3967 10.1837C99.4672 10.3599 99.5846 10.5126 99.7373 10.6183C99.89 10.7241 100.078 10.7828 100.266 10.7828H100.618C100.724 10.7945 100.83 10.771 100.924 10.7358C101.018 10.7006 101.1 10.6301 101.17 10.5596C101.241 10.4774 101.276 10.3834 101.3 10.2894C101.323 10.1837 101.311 10.0898 101.288 9.98405C100.783 8.46878 99.3967 7.62305 97.6112 7.62305C95.262 7.62305 93.4766 9.23229 93.4766 12.0984C93.4766 14.9645 95.215 16.5737 97.6112 16.5737C99.5024 16.5737 100.783 15.5635 101.241 14.3067C101.276 14.2127 101.276 14.107 101.253 14.0013C101.229 13.8955 101.182 13.8016 101.123 13.7311C101.053 13.6489 100.971 13.5901 100.877 13.5549C100.783 13.5197 100.677 13.4962 100.571 13.5079H100.16C99.9722 13.5197 99.796 13.5901 99.6433 13.6959C99.4906 13.8016 99.3732 13.9425 99.291 14.1187C99.1265 14.4124 98.8681 14.6473 98.5744 14.8C98.2808 14.9645 97.9401 15.0349 97.5995 15.0232C96.2722 15.0232 95.356 14.013 95.356 12.1571C95.3677 10.2895 96.2839 9.27927 97.6582 9.27927Z" fill="#1D1D1B"/>
<path d="M124.113 7.77539H121.717C121.517 7.77539 121.329 7.85762 121.176 7.99857C121.035 8.13953 120.953 8.32747 120.941 8.52715V15.7746C120.941 15.9743 121.024 16.1622 121.176 16.3032C121.317 16.4441 121.505 16.5264 121.717 16.5264H124.113C126.815 16.5264 128.459 14.8701 128.459 12.145C128.459 9.43161 126.768 7.77539 124.113 7.77539ZM124.007 14.9171H123.596C123.396 14.9171 123.208 14.8349 123.056 14.6939C122.915 14.553 122.833 14.365 122.821 14.1654V10.0894C122.821 9.88972 122.903 9.70178 123.056 9.56082C123.197 9.41987 123.385 9.33765 123.596 9.33765H124.007C125.687 9.33765 126.556 10.1951 126.556 12.1098C126.568 14.0127 125.699 14.9171 124.007 14.9171Z" fill="#1D1D1B"/>
<path d="M137.641 14.9642H135.034C134.834 14.9642 134.646 14.8819 134.493 14.741C134.352 14.6 134.27 14.4121 134.258 14.2124V13.6133C134.258 13.4136 134.341 13.2257 134.493 13.0848C134.634 12.9438 134.822 12.8616 135.034 12.8616H137.277C137.477 12.8616 137.676 12.7793 137.817 12.6384C137.958 12.4974 138.041 12.3095 138.041 12.1098C138.041 11.9101 137.958 11.7222 137.817 11.5812C137.676 11.4403 137.477 11.358 137.277 11.358H135.034C134.834 11.358 134.646 11.2758 134.493 11.1349C134.352 10.9939 134.27 10.806 134.258 10.6063V10.0072C134.258 9.80754 134.341 9.6196 134.493 9.47865C134.634 9.33769 134.822 9.25547 135.034 9.25547H137.583C137.782 9.25547 137.982 9.17325 138.123 9.03229C138.264 8.89134 138.346 8.7034 138.346 8.50371C138.346 8.30402 138.264 8.11608 138.123 7.97513C137.982 7.83417 137.782 7.75195 137.583 7.75195H133.142C132.943 7.75195 132.755 7.83417 132.602 7.97513C132.461 8.11608 132.379 8.30402 132.367 8.50371V15.7512C132.367 15.9508 132.449 16.1388 132.602 16.2797C132.743 16.4207 132.931 16.5029 133.142 16.5029H137.641C137.841 16.5029 138.029 16.4207 138.182 16.2797C138.323 16.1388 138.405 15.9508 138.417 15.7512C138.417 15.6572 138.405 15.5515 138.358 15.4575C138.323 15.3635 138.264 15.2813 138.193 15.2108C138.123 15.1403 138.041 15.0816 137.947 15.0464C137.841 14.9876 137.747 14.9642 137.641 14.9642Z" fill="#1D1D1B"/>
<path d="M149.191 7.77539H148.839C148.639 7.77539 148.451 7.85762 148.299 7.99857C148.158 8.13953 148.075 8.32747 148.064 8.52715V13.2022C148.064 13.2491 148.064 13.2492 148.017 13.2492H147.97L144.399 8.11604C144.328 8.02206 144.234 7.93984 144.129 7.89285C144.023 7.84587 143.906 7.81063 143.788 7.82238H143.307C143.107 7.82238 142.919 7.90461 142.766 8.04556C142.625 8.18652 142.543 8.37446 142.531 8.57414V15.8216C142.531 16.0213 142.613 16.2092 142.766 16.3502C142.907 16.4911 143.095 16.5733 143.307 16.5733H143.659C143.859 16.5733 144.047 16.4911 144.199 16.3502C144.34 16.2092 144.422 16.0213 144.434 15.8216V11.0878C144.434 11.0761 144.434 11.0643 144.446 11.0526C144.458 11.0409 144.469 11.0409 144.481 11.0409H144.528L148.158 16.174C148.228 16.2679 148.322 16.3502 148.428 16.3971C148.534 16.4441 148.651 16.4794 148.769 16.4676H149.227C149.426 16.4676 149.614 16.3854 149.767 16.2444C149.908 16.1035 149.99 15.9156 150.002 15.7159V8.46842C149.967 8.28048 149.873 8.10429 149.732 7.98683C149.567 7.85762 149.379 7.78714 149.191 7.77539Z" fill="#1D1D1B"/>
<path d="M28.5787 6.17853L30.9396 8.9624C31.2098 9.27955 31.4447 9.52622 31.5505 9.67892C32.2552 10.3837 32.6546 11.3351 32.6546 12.3218C32.5841 13.4847 31.8324 14.2834 31.1276 15.1409L29.4714 17.0791L28.6139 18.0892C28.5787 18.1245 28.5669 18.1715 28.5552 18.2184C28.5434 18.2654 28.5552 18.3124 28.5787 18.3477C28.6021 18.3946 28.6256 18.4299 28.6726 18.4534C28.7079 18.4769 28.7548 18.4886 28.8018 18.4886H37.4236C38.7392 18.4886 40.3954 19.5928 40.3014 21.2725C40.3014 22.036 39.9843 22.7642 39.4439 23.3046C38.8919 23.8449 38.1518 24.1503 37.3766 24.1503H23.8684C22.9757 24.1503 20.5912 24.2443 19.9217 22.2122C19.7807 21.7893 19.7572 21.3312 19.8629 20.8966C20.0626 20.2505 20.368 19.6397 20.7674 19.0994C21.4487 18.0892 22.1769 17.0908 22.9052 16.1159C23.8449 14.8355 24.7964 13.6022 25.7478 12.2983C25.783 12.2513 25.7948 12.2044 25.7948 12.1456C25.7948 12.0869 25.7713 12.0399 25.7478 11.9929L22.3179 7.96397C22.2944 7.94047 22.2709 7.91698 22.2357 7.89348C22.2004 7.88174 22.1652 7.87 22.13 7.87C22.0947 7.87 22.0595 7.88174 22.0242 7.89348C21.989 7.90523 21.9655 7.92873 21.942 7.96397C21.0258 9.18558 16.9968 14.6006 16.1394 15.7047C15.2819 16.7971 13.1676 16.8676 11.9929 15.7047L6.62489 10.3954C6.58965 10.3602 6.54267 10.3367 6.49568 10.325C6.4487 10.3132 6.40171 10.325 6.35473 10.3367C6.30774 10.3602 6.2725 10.3837 6.24901 10.4307C6.22552 10.4659 6.20202 10.5129 6.21377 10.5599V20.7674C6.22552 21.4957 6.01409 22.2004 5.59122 22.7995C5.16835 23.3985 4.58104 23.8449 3.88801 24.0916C3.44165 24.2443 2.9718 24.2913 2.5137 24.2208C2.0556 24.1503 1.60924 23.9859 1.23336 23.7157C0.845731 23.4455 0.540328 23.0931 0.328896 22.682C0.117463 22.2709 0 21.8128 0 21.3547V2.9953C0.0352388 2.33751 0.270165 1.70321 0.69303 1.17463C1.1159 0.657791 1.67972 0.28191 2.32576 0.105716C2.87783 -0.0352388 3.46515 -0.0352388 4.01722 0.105716C4.5693 0.258418 5.07439 0.540329 5.4855 0.951448L13.7431 9.0916C13.7666 9.1151 13.8019 9.13859 13.8253 9.15034C13.8606 9.16208 13.8958 9.16209 13.9311 9.16209C13.9663 9.16209 14.0015 9.15033 14.025 9.12684C14.0603 9.1151 14.0838 9.09161 14.1073 9.05637L19.9686 1.05716C20.2388 0.728269 20.5794 0.469851 20.9671 0.293657C21.3547 0.117463 21.7776 0.0117477 22.2004 0.0117477H37.4471C37.8699 0.0117477 38.2811 0.105719 38.6569 0.270167C39.0328 0.446361 39.3735 0.69303 39.6554 0.998433C39.9255 1.30384 40.137 1.66797 40.2544 2.06734C40.3719 2.46672 40.4071 2.87784 40.3484 3.28896C40.2427 3.99373 39.8786 4.63977 39.3265 5.09788C38.7744 5.55598 38.0696 5.8144 37.3414 5.80265H28.8018C28.7548 5.80265 28.7196 5.8144 28.6844 5.83789C28.6491 5.86138 28.6139 5.89663 28.6021 5.93186C28.5786 5.9671 28.5787 6.01409 28.5787 6.04933C28.5434 6.09631 28.5552 6.14329 28.5787 6.17853Z" fill="#1D1D1B"/>
</svg>
