<svg width="60" height="60" viewBox="0 0 60 60" fill="none" xmlns="http://www.w3.org/2000/svg">
<path d="M47.6003 15.5479C45.8939 14.5619 44.364 14.0821 43.0607 13.8887C42.7208 13.1453 41.8875 12.2721 40.1944 11.3056C34.6382 8.13259 29.0852 11.2724 29.0852 11.2724L21.6758 15.5479L25.3789 17.6845L32.7849 13.409C32.7849 13.409 34.6378 12.3385 36.4877 13.409C38.341 14.4786 36.4877 15.5487 36.4877 15.5487L29.0821 19.825L32.7853 21.9615L40.1975 17.681C40.3077 17.6177 42.1008 16.6476 43.894 17.6849C45.747 18.7549 43.894 19.8215 43.894 19.8215L36.4881 24.0985L40.1908 26.2382L49.4501 20.8923C49.4501 20.8923 53.1533 18.7553 47.6003 15.5491V15.5479Z" fill="#F16822"/>
<path d="M21.6754 15.5518C21.6754 15.5518 19.8221 16.6222 19.8221 18.7588V29.4378C19.8221 29.4378 19.8221 31.5779 17.9691 30.5078C16.1158 29.4374 16.1158 27.3016 16.1158 27.3016V16.6222C16.1158 16.4889 16.1224 16.3589 16.1357 16.2323C16.3388 14.3524 17.9656 13.4125 17.9656 13.4125L14.2624 11.2763C14.2624 11.2763 14.2585 11.2763 14.2558 11.2802C14.146 11.3435 12.4095 12.4131 12.4095 14.4829V25.1623C12.4095 25.1623 12.4095 27.302 10.5561 26.2323C8.70356 25.1615 8.70356 23.0253 8.70356 23.0253V12.3471C8.70356 10.2101 10.5565 9.14049 10.5565 9.14049L6.85334 7C6.85334 7 5 8.07044 5 10.2066V20.886C5 20.886 5 27.302 10.5561 30.5082C12.2594 31.4915 13.4393 31.5685 14.2593 31.2052C15.0793 32.5151 16.2591 33.8016 17.9625 34.7849C23.5186 37.9911 23.5186 31.5783 23.5186 31.5783V20.8993C23.5186 18.7596 25.3715 17.6927 25.3715 17.6927L21.6754 15.5518Z" fill="#808285"/>
<path d="M36.4816 24.1035C36.4816 24.1035 34.6278 25.1732 34.6278 27.3098V37.9891C34.6278 37.9891 34.6278 40.1284 32.7745 39.0588C30.9215 37.9883 30.9211 35.8525 30.9211 35.8525L27.2188 33.7125C27.2188 33.7125 27.2188 40.1288 32.7749 43.3347C38.3314 46.5421 38.3314 40.1284 38.3314 40.1284V29.4502C38.3314 27.3133 40.1839 26.2432 40.1839 26.2432L36.4816 24.1035ZM27.225 25.197V29.4729L30.9282 31.6095V27.3328L27.225 25.197ZM44.8153 29.7444C43.4261 29.7546 42.0369 30.5566 42.0369 33.723C42.0369 40.0558 47.5934 43.3448 47.5934 43.3448L49.4467 44.4153C49.4467 44.4153 51.2993 45.4849 51.2993 47.6215C51.2993 49.7612 49.4467 48.6912 49.4467 48.6912L42.0369 44.4145V48.6912L49.4428 52.9682C49.4428 52.9682 54.9993 56.1741 54.9993 49.7608C54.9993 43.3484 51.2962 41.2083 51.2962 41.2083L47.5934 39.0717C47.5934 39.0717 45.7401 38.002 45.7401 35.8654C45.7401 33.7222 47.5934 34.7927 47.5934 34.7927V34.7919L54.9993 39.0686V34.7927L47.5934 30.5168C47.5934 30.5168 46.2042 29.7346 44.8153 29.7444Z" fill="#BCBEC0"/>
</svg>
