<svg width="40" height="40" viewBox="0 0 40 40" fill="none" xmlns="http://www.w3.org/2000/svg">
<path fill-rule="evenodd" clip-rule="evenodd" d="M23.3278 7.32011C25.6141 7.44831 27.7852 8.36427 29.4717 9.91412C27.6256 10.7061 25.3564 11.0509 23.3278 11.1021V7.32011ZM4.85654 20.8071H19.9375C20.4104 20.8085 20.7922 21.1917 20.7936 21.6632V30.9451C20.7922 31.4167 20.4104 31.7998 19.9375 31.8013H12.3975L8.19801 35.9993V31.8013H4.85614C4.3832 31.7998 4.00142 31.4181 4 30.9451V21.6632C4.00142 21.1903 4.38462 20.8085 4.85614 20.8071H4.85654ZM15.7726 22.9267L14.113 22.9253L14.1102 25.2216H14.1116C14.1102 25.4367 13.9877 25.6318 13.7968 25.7273C13.6045 25.8227 13.3752 25.8027 13.2028 25.676L12.3965 25.072L11.6301 25.6461H11.6316C11.4635 25.7971 11.2242 25.8341 11.019 25.7429C10.8139 25.6503 10.6814 25.4466 10.6814 25.2216V22.9253L9.01904 22.9281L9.02189 29.6818L15.7756 29.679L15.7727 22.9253L15.7726 22.9267ZM12.9749 22.9267L11.821 22.9253V24.0848L12.0575 23.9082H12.056C12.2612 23.7543 12.5446 23.7572 12.7469 23.9153L12.9748 24.0862V22.9253L12.9749 22.9267ZM9.02329 21.7871L9.02187 21.7857C8.3908 21.7871 7.88085 22.2985 7.87943 22.9295V29.6789C7.88085 30.3099 8.39223 30.8213 9.02187 30.8227H15.7726C16.4037 30.8213 16.9136 30.3099 16.9151 29.6789V22.9295C16.9136 22.2985 16.4037 21.7871 15.7726 21.7857L9.02329 21.7871ZM33.2665 25.6176V24.0592C33.2665 23.7444 33.0116 23.4894 32.6967 23.4894C32.3819 23.4894 32.1269 23.7444 32.1269 24.0592V27.1105C32.1269 27.2885 32.2096 27.4566 32.352 27.5649C32.493 27.6717 32.6782 27.7073 32.8492 27.6589L36.4916 26.8826C36.7993 26.817 36.9959 26.5151 36.9303 26.2088C36.8648 25.9011 36.5628 25.7045 36.2565 25.77L34.258 26.196C36.2537 23.639 37.3363 20.4867 37.3334 17.243C37.3334 9.19178 30.8077 2.66602 22.758 2.66602C14.7068 2.66602 8.18101 9.19178 8.18101 17.2415C8.18101 17.5563 8.43599 17.8113 8.75081 17.8113C9.06562 17.8113 9.3206 17.5563 9.3206 17.2415C9.3206 9.8212 15.3362 3.80561 22.758 3.80561C30.1783 3.80561 36.1939 9.8212 36.1939 17.2415C36.1996 20.2857 35.1668 23.24 33.2665 25.6176ZM30.2922 10.7602C30.2481 10.8001 30.1996 10.8329 30.1455 10.8571C29.4247 11.179 28.6769 11.4383 27.9119 11.632C28.4831 13.2132 28.7766 14.961 28.8293 16.6732H29.909V16.6718C30.2238 16.6718 30.4788 16.9268 30.4788 17.2416C30.4788 17.5564 30.2238 17.8114 29.909 17.8114H28.8293C28.7723 19.6589 28.4432 21.3826 27.9119 22.8526C28.6769 23.0463 29.4247 23.3056 30.1455 23.6275C30.1982 23.6517 30.2481 23.6845 30.2922 23.7244C31.8435 21.921 32.6968 19.6218 32.6968 17.2431C32.6982 14.8628 31.8435 12.5635 30.2922 10.7602ZM29.4703 24.5706C28.2652 25.6775 26.8051 26.4695 25.2197 26.874C26.1599 26.1661 26.9134 25.1062 27.4732 23.9154C28.1556 24.0792 28.8235 24.2986 29.4703 24.5706ZM22.1882 27.1646C22.1027 27.1604 22.0187 27.1532 21.9346 27.1475L21.9332 23.3925C22.0173 23.3897 22.1027 23.3868 22.1868 23.384V27.1645L22.1882 27.1646ZM13.117 19.6674C12.9646 19.0591 12.8706 18.4381 12.835 17.8127H16.6855C16.7041 18.4324 16.7553 19.052 16.838 19.6674H13.117ZM12.835 16.6731C12.9561 14.5663 13.7438 12.552 15.0857 10.9237C16.4261 9.2941 18.2509 8.1346 20.295 7.61039C19.3563 8.31836 18.6013 9.37962 18.0414 10.5705C17.7509 10.4993 17.4688 10.4209 17.1982 10.3369V10.3354C16.8976 10.2443 16.5799 10.4124 16.4873 10.7115C16.3962 11.0121 16.5643 11.3297 16.8634 11.4223C17.1027 11.4964 17.3477 11.5662 17.6013 11.6317C17.0699 13.1018 16.7409 14.8254 16.6839 16.6729L12.835 16.6731ZM21.9331 22.2529C22.0172 22.2501 22.1026 22.2472 22.1867 22.2458L22.1881 17.8114H17.8248C17.8448 18.4325 17.8975 19.0521 17.9858 19.6675H19.9374C21.0385 19.669 21.9317 20.5621 21.9331 21.6633L21.9331 22.2529ZM19.3562 10.4909C20.1198 9.11341 21.1069 8.18321 22.1867 7.93819V11.102H22.1881C21.1824 11.0792 20.1796 10.9823 19.1881 10.8114C19.2437 10.7017 19.2992 10.5949 19.3576 10.4909L19.3562 10.4909ZM18.7195 11.8812H18.7209C19.8648 12.0949 21.0243 12.2145 22.1881 12.2416V16.673H17.8248C17.8818 14.8981 18.2038 13.2588 18.7195 11.8812ZM27.4216 14.1732C27.564 14.8612 27.6638 15.894 27.688 16.6718L23.3276 16.6732V12.2417C24.49 12.2147 25.6495 12.095 26.7934 11.8813C27.0683 12.6264 27.2791 13.3926 27.4216 14.1732ZM26.1581 23.9952C25.3945 25.3727 24.4074 26.3029 23.3276 26.5479V23.3841C24.3319 23.4069 25.3347 23.5052 26.3262 23.6747C26.2706 23.7844 26.2151 23.8898 26.1567 23.9938L26.1581 23.9952ZM26.7934 22.6049C25.6496 22.3912 24.49 22.2702 23.3276 22.2445V17.8116H27.6894C27.6325 19.5879 27.3091 21.2273 26.7934 22.6049Z" fill="url(#paint0_linear_4796_4160)"/>
<defs>
<linearGradient id="paint0_linear_4796_4160" x1="37.3334" y1="15.6058" x2="3.86735" y2="16.4158" gradientUnits="userSpaceOnUse">
<stop stop-color="#012442"/>
<stop offset="1"/>
</linearGradient>
</defs>
</svg>
