<svg width="40" height="40" viewBox="0 0 40 40" fill="none" xmlns="http://www.w3.org/2000/svg">
<path d="M32.3684 19.9212C32.5276 20.4855 33.0435 20.8995 33.6562 20.8995C34.3962 20.8995 35 20.2957 35 19.5557C35 18.8156 34.3962 18.2118 33.6562 18.2118C33.0435 18.2118 32.5276 18.6296 32.3684 19.1901H27.6822V16.2782H29.091C29.2082 16.2782 29.3165 16.2222 29.384 16.1318L30.8806 14.1065H32.3646C32.5238 14.6708 33.0397 15.0847 33.6524 15.0847C34.3924 15.0847 34.9962 14.4809 34.9962 13.7409C34.9962 13.0008 34.3924 12.3971 33.6524 12.3971C33.0397 12.3971 32.5238 12.8148 32.3646 13.3753H30.6985C30.5813 13.3753 30.473 13.4314 30.4055 13.5218L28.9088 15.5471H27.6822V10.2521C27.6822 9.56044 27.137 9 26.4657 9H16.0411C15.9405 9 15.8449 9.03949 15.7774 9.11464L12.4184 12.6201C12.3535 12.6888 12.3178 12.7793 12.3178 12.8748V15.5485H11.0912L9.5945 13.5232C9.52571 13.4289 9.4149 13.3767 9.30153 13.3767H7.63543C7.4762 12.8124 6.96033 12.3984 6.34765 12.3984C5.60378 12.3946 5 12.9984 5 13.7423C5 14.4862 5.60378 15.0861 6.34383 15.0861C6.95651 15.0861 7.47238 14.6683 7.63161 14.1078H9.11556L10.6122 16.1331C10.681 16.2274 10.7918 16.2796 10.9052 16.2796H12.314V19.1915L7.63172 19.1902C7.4725 18.6259 6.95663 18.2119 6.34394 18.2119C5.60389 18.2119 5.00011 18.8157 5.00011 19.5558C5.00011 20.2958 5.60389 20.8996 6.34394 20.8996C6.95663 20.8996 7.47249 20.4818 7.63172 19.9213H12.314V22.8332H10.9052C10.788 22.8332 10.6797 22.8892 10.6122 22.9797L9.11556 25.005H7.63161C7.47239 24.4407 6.95651 24.0267 6.34383 24.0267C5.60378 24.0267 5 24.6292 5 25.3693C5 26.1093 5.60378 26.7131 6.34383 26.7131C6.95651 26.7131 7.47238 26.2953 7.63161 25.7348H9.29771C9.4149 25.7348 9.52317 25.6788 9.59068 25.5883L11.0873 23.5631H12.314V28.8554C12.314 29.5471 12.8592 30.1075 13.5305 30.1075H26.4695C27.1383 30.1075 27.686 29.5471 27.686 28.8554V23.5631H28.9126L30.4093 25.5883C30.4781 25.6826 30.5889 25.7348 30.7023 25.7348H32.3684C32.5276 26.2991 33.0435 26.7131 33.6562 26.7131C34.3962 26.7131 35 26.1093 35 25.3693C35 24.6292 34.3962 24.0254 33.6562 24.0254C33.0435 24.0254 32.5276 24.4432 32.3684 25.0037H30.8844L29.3878 22.9784C29.319 22.8841 29.2082 22.8319 29.0948 22.8319H27.686V19.9201L32.3684 19.9212ZM33.6562 18.943C33.995 18.943 34.2689 19.2168 34.2689 19.5557C34.2689 19.8945 33.995 20.1683 33.6562 20.1683C33.3173 20.1683 33.0435 19.8945 33.0435 19.5557C33.0435 19.2168 33.3173 18.943 33.6562 18.943ZM33.6562 13.1282C33.995 13.1282 34.2689 13.4021 34.2689 13.7409C34.2689 14.0797 33.995 14.3536 33.6562 14.3536C33.3173 14.3536 33.0435 14.0797 33.0435 13.7409C33.0435 13.4021 33.3173 13.1282 33.6562 13.1282ZM6.34387 14.3549C6.00504 14.3549 5.73119 14.081 5.73119 13.7422C5.73119 13.4033 6.00505 13.1295 6.34387 13.1295C6.68271 13.1295 6.95655 13.4033 6.95655 13.7422C6.95655 14.081 6.68269 14.3549 6.34387 14.3549ZM6.34387 20.1683C6.00504 20.1683 5.73119 19.8945 5.73119 19.5556C5.73119 19.2168 6.00505 18.9429 6.34387 18.9429C6.68271 18.9429 6.95655 19.2168 6.95655 19.5556C6.95655 19.8945 6.68269 20.1683 6.34387 20.1683ZM6.34387 25.9831C6.00504 25.9831 5.73119 25.7092 5.73119 25.3704C5.73119 25.0316 6.00505 24.7577 6.34387 24.7577C6.68271 24.7577 6.95655 25.0316 6.95655 25.3704C6.96038 25.7092 6.68269 25.9831 6.34387 25.9831ZM33.6562 24.7564C33.995 24.7564 34.2689 25.0303 34.2689 25.3691C34.2689 25.7079 33.995 25.9818 33.6562 25.9818C33.3173 25.9818 33.0435 25.7079 33.0435 25.3691C33.0397 25.0341 33.3173 24.7564 33.6562 24.7564ZM15.6755 10.2789V11.987C15.6755 12.2736 15.4602 12.5054 15.1927 12.5054H13.5393L15.6755 10.2789ZM26.9522 28.8592C26.9522 29.1458 26.7369 29.3815 26.4694 29.3815L13.5303 29.3802C13.2628 29.3802 13.0475 29.1459 13.0475 28.858V13.2391H15.1926C15.8613 13.2391 16.409 12.6786 16.409 11.987V9.73369H26.4717C26.7392 9.73369 26.9545 9.96806 26.9545 10.2521V28.8592L26.9522 28.8592ZM17.7631 12.2938C17.7631 12.0912 17.9261 11.9282 18.1286 11.9282H25.0772C25.2797 11.9282 25.4428 12.0912 25.4428 12.2938C25.4428 12.4963 25.2797 12.6593 25.0772 12.6593H18.1313C17.9287 12.6593 17.7631 12.4963 17.7631 12.2938ZM14.5545 20.2268C14.5545 20.0242 14.7175 19.8612 14.92 19.8612H25.0769C25.2795 19.8612 25.4425 20.0242 25.4425 20.2268C25.4425 20.4293 25.2795 20.5924 25.0769 20.5924H14.92C14.7175 20.5924 14.5545 20.4293 14.5545 20.2268ZM14.5545 14.938C14.5545 14.7355 14.7175 14.5724 14.92 14.5724H25.0769C25.2795 14.5724 25.4425 14.7355 25.4425 14.938C25.4425 15.1405 25.2795 15.3036 25.0769 15.3036H14.92C14.7175 15.3036 14.5545 15.1405 14.5545 14.938ZM25.0795 23.2365H14.92C14.7175 23.2365 14.5544 23.0735 14.5544 22.871C14.5544 22.6684 14.7175 22.5054 14.92 22.5054H25.0769C25.2794 22.5054 25.4425 22.6684 25.4425 22.871C25.445 23.071 25.2821 23.2365 25.0795 23.2365ZM14.5545 17.5822C14.5545 17.3797 14.7175 17.2166 14.92 17.2166H25.0769C25.2795 17.2166 25.4425 17.3797 25.4425 17.5822C25.4425 17.7847 25.2795 17.9478 25.0769 17.9478H14.92C14.7175 17.9478 14.5545 17.7848 14.5545 17.5822ZM26.3457 26.4847C26.4311 26.6668 26.3495 26.8859 26.1661 26.97C25.9508 27.0681 25.3178 27.263 24.9102 27.0452C24.7955 27.1496 24.6032 27.3063 24.3357 27.2566C24.2542 27.2439 24.1828 27.2107 24.1166 27.1687C24.058 27.2732 23.9663 27.3547 23.8198 27.3738C23.7319 27.3865 23.5167 27.3865 23.3664 27.1101C23.2619 26.9178 23.1804 26.7548 23.1116 26.621C22.9256 26.9216 22.6327 27.3547 22.1397 27.8922C22.0684 27.9699 21.9703 28.0094 21.8697 28.0094C21.7818 28.0094 21.6939 27.9763 21.6213 27.9151C21.471 27.7776 21.4621 27.547 21.5984 27.3967C22.1818 26.7611 22.4531 26.2975 22.6123 26.021C22.7524 25.7803 22.876 25.5676 23.1473 25.5803C23.4249 25.5905 23.5294 25.8083 23.6886 26.1382C23.695 26.1509 23.7014 26.1637 23.7077 26.1802C23.7638 26.128 23.8351 26.0885 23.9294 26.0758C24.0402 26.063 24.2427 26.0796 24.3854 26.3598C24.4083 26.4019 24.4274 26.4375 24.444 26.4643C24.8121 26.1344 25.0834 26.2388 25.2528 26.3955C25.3573 26.4286 25.677 26.3764 25.8464 26.2974C26.0426 26.221 26.2604 26.3025 26.3457 26.4847Z" fill="#FD1716"/>
</svg>
