<svg width="50" height="50" viewBox="0 0 50 50" fill="none" xmlns="http://www.w3.org/2000/svg">
<path d="M25.1809 18.3196C25.0654 18.2761 24.9415 18.2761 24.826 18.3196L18.3896 20.7837C18.3561 20.797 18.3159 20.8138 18.2875 20.8389C18.1502 20.9326 18.0732 21.0833 18.0732 21.2507V28.755C18.0732 28.9609 18.2021 29.145 18.3946 29.222L24.8311 31.686C24.8863 31.7078 24.9466 31.7195 25.0068 31.7195C25.0671 31.7195 25.1273 31.7061 25.1876 31.686L31.6241 29.222C31.8166 29.1484 31.9455 28.9642 31.9455 28.755L31.9421 21.2507C31.9421 21.0883 31.8601 20.9343 31.7278 20.8389C31.6944 20.8171 31.6592 20.8004 31.6257 20.7837L25.1809 18.3196ZM25.0001 19.3173L30.0439 21.2507L28.2176 21.9487L26.2893 21.2121C26.2675 20.5175 25.6984 19.9567 24.9987 19.9567C24.2872 19.9567 23.7047 20.5359 23.7047 21.2506C23.7047 21.9621 24.2839 22.5445 24.9987 22.5445C25.3669 22.5445 25.6967 22.3905 25.9327 22.1411L26.8232 22.4843L25.0003 23.179L19.9566 21.2456L25.0001 19.3173ZM25.2964 21.2507C25.2964 21.413 25.1642 21.5469 25.0001 21.5469C24.8378 21.5469 24.7038 21.4147 24.7038 21.2507C24.7038 21.0883 24.8361 20.9544 25.0001 20.9544C25.1625 20.9544 25.2964 21.0833 25.2964 21.2507ZM19.0609 21.9705L24.5028 24.0528V30.4893L22.2781 29.6372V27.421C22.7451 27.2234 23.0749 26.7648 23.0749 26.2258C23.0749 25.5143 22.4957 24.9318 21.781 24.9318C21.0696 24.9318 20.4871 25.511 20.4871 26.2258C20.4871 26.7614 20.8168 27.2234 21.2839 27.421V29.2556L19.0592 28.4035L19.0609 21.9705ZM21.4814 26.2339C21.4814 26.0716 21.6137 25.9377 21.7777 25.9377C21.9401 25.9377 22.074 26.0699 22.074 26.2339C22.074 26.3963 21.9418 26.5302 21.7777 26.5302C21.6187 26.5302 21.4814 26.398 21.4814 26.2339ZM25.4972 30.4941V24.0576L30.939 21.9753V24.6619L29.1513 25.3482C28.9152 25.1005 28.5855 24.9448 28.2172 24.9448C27.5058 24.9448 26.9233 25.524 26.9233 26.2387C26.9233 26.9502 27.5025 27.5327 28.2172 27.5327C28.9152 27.5327 29.4894 26.9719 29.5078 26.2772L30.934 25.7282V28.4148L25.4972 30.4941ZM28.5186 26.2339C28.5186 26.3963 28.3864 26.5302 28.2223 26.5302C28.06 26.5302 27.926 26.398 27.926 26.2339C27.926 26.0716 28.0583 25.9377 28.2223 25.9377C28.3814 25.9343 28.5186 26.0665 28.5186 26.2339ZM25 8.53199C25.9726 8.53199 26.766 7.73853 26.766 6.766C26.766 5.79346 25.9726 5 25 5C24.0275 5 23.234 5.79346 23.234 6.766C23.234 7.73853 24.0275 8.53199 25 8.53199ZM25 5.99431C25.4235 5.99431 25.7667 6.34081 25.7667 6.76098C25.7667 7.18281 25.4236 7.53267 25 7.53267C24.5765 7.53267 24.2334 7.18617 24.2334 6.766C24.2334 6.34582 24.5765 5.99431 25 5.99431ZM37.8944 13.8719C38.3664 13.8719 38.8067 13.6878 39.1415 13.353C39.4763 13.0182 39.6604 12.578 39.6604 12.1059C39.6604 11.6338 39.4762 11.1936 39.1415 10.8588C38.8067 10.524 38.3664 10.3399 37.8944 10.3399C37.4223 10.3399 36.9821 10.524 36.6473 10.8588C35.9576 11.5485 35.9576 12.6667 36.6473 13.3529C36.977 13.6877 37.4223 13.8719 37.8944 13.8719ZM37.3503 11.5619C37.496 11.4162 37.6885 11.3342 37.8944 11.3342C38.1003 11.3342 38.2928 11.4162 38.4384 11.5619C38.584 11.7075 38.666 11.9 38.666 12.1059C38.666 12.3118 38.584 12.5043 38.4384 12.6499C38.2927 12.7955 38.1002 12.8776 37.8944 12.8776C37.6885 12.8776 37.496 12.7955 37.3503 12.6499C37.0507 12.3503 37.0507 11.8615 37.3503 11.5619ZM43.234 23.234C42.2615 23.234 41.468 24.0275 41.468 25C41.468 25.9726 42.2615 26.766 43.234 26.766C44.2065 26.766 45 25.9726 45 25C45 24.0275 44.2065 23.234 43.234 23.234ZM43.234 25.7667C42.8105 25.7667 42.4673 25.4202 42.4673 25C42.4673 24.5799 42.8138 24.2334 43.234 24.2334C43.6575 24.2334 44.0007 24.5799 44.0007 25C44.0007 25.4202 43.6575 25.7667 43.234 25.7667ZM39.2735 23.1487C39.081 22.9562 38.7629 22.9562 38.5704 23.1487C38.3779 23.3412 38.3779 23.6592 38.5704 23.8517L39.2183 24.4995L34.7487 24.4979C34.6332 22.1794 33.7025 20.0755 32.2412 18.4548L35.4032 15.2927V16.21C35.4032 16.4846 35.6259 16.7072 35.9004 16.7072C36.1749 16.7072 36.3976 16.4846 36.3976 16.21V14.0892C36.3976 13.8147 36.1749 13.592 35.9004 13.592H33.7846C33.51 13.592 33.2874 13.8146 33.2874 14.0892C33.2874 14.3637 33.51 14.5864 33.7846 14.5864H34.7019L31.5398 17.7484C29.9245 16.2871 27.8153 15.3581 25.4967 15.2409V10.7816L26.1445 11.4294C26.2433 11.5282 26.3672 11.575 26.4961 11.575C26.625 11.575 26.7488 11.5282 26.8476 11.4294C27.0401 11.2369 27.0401 10.9189 26.8476 10.7264L25.3478 9.22654C25.254 9.1328 25.1285 9.08091 24.9962 9.08091C24.864 9.08091 24.7385 9.1328 24.6447 9.22654L23.1449 10.7264C22.9524 10.9189 22.9524 11.2369 23.1449 11.4294C23.3374 11.6219 23.6554 11.6219 23.8479 11.4294L24.4991 10.7816V15.2511C22.1806 15.3666 20.0767 16.2973 18.456 17.7587L15.2939 14.5966H16.2112C16.4858 14.5966 16.7084 14.374 16.7084 14.0995C16.7084 13.8249 16.4858 13.6023 16.2112 13.6023H14.0904C13.8159 13.6023 13.5932 13.8249 13.5932 14.0995V16.2203C13.5932 16.4949 13.8158 16.7175 14.0904 16.7175C14.3649 16.7175 14.5876 16.4949 14.5876 16.2203V15.303L17.7496 18.4651C16.2883 20.0804 15.3593 22.1896 15.2421 24.5081H10.7811L11.4289 23.8603C11.6214 23.6678 11.6214 23.3498 11.4289 23.1573C11.2364 22.9648 10.9184 22.9648 10.7259 23.1573L9.22603 24.6571C9.03353 24.8496 9.03353 25.1677 9.22603 25.3602L10.7259 26.86C10.8246 26.9588 10.9485 27.0056 11.0774 27.0056C11.2063 27.0056 11.3302 26.9588 11.4289 26.86C11.6214 26.6675 11.6214 26.3495 11.4289 26.157L10.7811 25.5092H15.2506C15.3661 27.8276 16.2968 29.9315 17.7582 31.5522L14.5961 34.7143L14.5945 33.7852C14.5945 33.5107 14.3718 33.2881 14.0973 33.2881C13.8228 33.2881 13.6001 33.5107 13.6001 33.7852V35.9061C13.6001 36.1806 13.8228 36.4033 14.0973 36.4033H16.2182C16.4927 36.4033 16.7153 36.1806 16.7153 35.9061C16.7153 35.6315 16.4927 35.4089 16.2182 35.4089H15.3009L18.4629 32.2469C20.0782 33.7082 22.1874 34.6372 24.506 34.7544V39.2239L23.8548 38.5761C23.6623 38.3836 23.3443 38.3836 23.1518 38.5761C22.9593 38.7687 22.9593 39.0867 23.1518 39.2792L24.6516 40.779C24.7504 40.8778 24.8742 40.9247 25.0031 40.9247C25.132 40.9247 25.2559 40.8778 25.3547 40.779L26.8545 39.2792C27.047 39.0867 27.047 38.7686 26.8545 38.5761C26.662 38.3836 26.344 38.3836 26.1515 38.5761L25.5037 39.2239L25.5053 34.7497C27.8237 34.6342 29.9277 33.7035 31.5484 32.2422L34.7104 35.4042L33.7847 35.4059C33.5102 35.4059 33.2876 35.6285 33.2876 35.9031C33.2876 36.1776 33.5102 36.4002 33.7847 36.4002H35.9056C36.1801 36.4002 36.4028 36.1776 36.4028 35.9031V33.7855C36.4028 33.511 36.1801 33.2884 35.9056 33.2884C35.6311 33.2884 35.4084 33.511 35.4084 33.7855V34.7028L32.2464 31.5408C33.7077 29.9255 34.6367 27.8163 34.7539 25.4977H39.2235L38.5757 26.1455C38.3832 26.338 38.3832 26.6561 38.5757 26.8486C38.6744 26.9473 38.7983 26.9942 38.9272 26.9942C39.0561 26.9942 39.1799 26.9473 39.2787 26.8486L40.7785 25.3487C40.971 25.1562 40.971 24.8382 40.7785 24.6457L39.2735 23.1487ZM24.9997 33.768C20.1656 33.768 16.2317 29.8342 16.2317 24.9999C16.2317 20.1656 20.1654 16.2319 24.9997 16.2319C29.8341 16.2319 33.7678 20.1656 33.7678 24.9999C33.7678 29.8342 29.8341 33.768 24.9997 33.768ZM37.8941 36.1282C37.422 36.1282 36.9818 36.3123 36.647 36.6471C35.9573 37.3368 35.9573 38.455 36.647 39.1412C36.9818 39.476 37.422 39.6601 37.8941 39.6601C38.3661 39.6601 38.8064 39.476 39.1412 39.1412C39.476 38.8065 39.6601 38.3662 39.6601 37.8942C39.6601 37.4221 39.4759 36.9819 39.1412 36.6471C38.8064 36.3123 38.3661 36.1282 37.8941 36.1282ZM38.4381 38.4382C38.2924 38.5838 38.0999 38.6659 37.8941 38.6659C37.6882 38.6659 37.4957 38.5838 37.3501 38.4382C37.0504 38.1386 37.0504 37.6498 37.3501 37.3501C37.4957 37.2045 37.6882 37.1225 37.8941 37.1225C38.1 37.1225 38.2925 37.2045 38.4381 37.3501C38.5837 37.4958 38.6657 37.6883 38.6657 37.8942C38.6607 38.1 38.5837 38.2926 38.4381 38.4382ZM25 41.468C24.0274 41.468 23.234 42.2615 23.234 43.234C23.234 44.2065 24.0274 45 25 45C25.9725 45 26.766 44.2065 26.766 43.234C26.766 42.2615 25.9725 41.468 25 41.468ZM25 44.0057C24.5765 44.0057 24.2333 43.6592 24.2333 43.239C24.2333 42.8155 24.5798 42.4723 25 42.4723C25.4201 42.4723 25.7666 42.8188 25.7666 43.239C25.7666 43.6575 25.4235 44.0057 25 44.0057ZM12.1056 36.1281C11.6336 36.1281 11.1933 36.3122 10.8585 36.647C10.5237 36.9818 10.3396 37.422 10.3396 37.8941C10.3396 38.3662 10.5238 38.8064 10.8585 39.1412C11.1933 39.476 11.6336 39.6601 12.1056 39.6601C12.5777 39.6601 13.0179 39.476 13.3527 39.1412C14.0424 38.4515 14.0424 37.3333 13.3527 36.6471C13.023 36.3123 12.5777 36.1281 12.1056 36.1281ZM12.6496 38.4381C12.504 38.5838 12.3115 38.6658 12.1056 38.6658C11.8997 38.6658 11.7072 38.5838 11.5616 38.4381C11.416 38.2925 11.334 38.1 11.334 37.8941C11.334 37.6882 11.416 37.4957 11.5616 37.3501C11.7073 37.2045 11.8998 37.1224 12.1056 37.1224C12.3115 37.1224 12.504 37.2045 12.6496 37.3501C12.9493 37.6497 12.9493 38.1385 12.6496 38.4381ZM6.766 23.234C5.79346 23.234 5 24.0275 5 25C5 25.9726 5.79346 26.766 6.766 26.766C7.73853 26.766 8.53199 25.9726 8.53199 25C8.53199 24.0275 7.73853 23.234 6.766 23.234ZM6.766 25.7667C6.34249 25.7667 5.99932 25.4202 5.99932 25C5.99932 24.5799 6.34582 24.2334 6.766 24.2334C7.18617 24.2334 7.53267 24.5765 7.53267 25C7.53267 25.4236 7.19119 25.7667 6.766 25.7667ZM12.1058 13.8717C12.5779 13.8717 13.0181 13.6876 13.3529 13.3528C14.0426 12.6631 14.0426 11.545 13.3529 10.8587C13.0182 10.5239 12.5779 10.3398 12.1058 10.3398C11.6338 10.3398 11.1936 10.5239 10.8588 10.8587C10.5239 11.1934 10.3399 11.6337 10.3399 12.1058C10.3399 12.5778 10.524 13.018 10.8588 13.3529C11.1935 13.6877 11.6338 13.8717 12.1058 13.8717ZM11.5618 11.5617C11.7075 11.4161 11.9 11.3341 12.1058 11.3341C12.3117 11.3341 12.5042 11.4161 12.6499 11.5617C12.9495 11.8613 12.9495 12.3501 12.6499 12.6498C12.5042 12.7954 12.3117 12.8774 12.1058 12.8774C11.9 12.8774 11.7075 12.7954 11.5618 12.6498C11.4162 12.5041 11.3342 12.3116 11.3342 12.1058C11.3342 11.8999 11.4162 11.7073 11.5618 11.5617Z" fill="#FD1716"/>
</svg>
