<svg width="50" height="50" viewBox="0 0 50 50" fill="none" xmlns="http://www.w3.org/2000/svg">
<path d="M8.30002 14.1363C8.18154 14.1363 8.07321 14.1854 7.99366 14.2633C7.91581 14.3411 7.86672 14.4495 7.86672 14.5696V16.0371H26.9013V14.5696C26.9013 14.4511 26.8523 14.3428 26.7744 14.2633C26.6965 14.1854 26.5882 14.1363 26.468 14.1363H8.29828H8.30002ZM24.955 33.9292C24.7163 33.9292 24.5217 33.7346 24.5217 33.4959C24.5217 33.2573 24.7163 33.0626 24.955 33.0626H40.2251C40.4638 33.0626 40.6584 33.2573 40.6584 33.4959C40.6584 33.7346 40.4638 33.9292 40.2251 33.9292H24.955ZM24.955 32.1351C24.7163 32.1351 24.5217 31.9405 24.5217 31.7018C24.5217 31.4632 24.7163 31.2685 24.955 31.2685H40.2251C40.4638 31.2685 40.6584 31.4632 40.6584 31.7018C40.6584 31.9405 40.4638 32.1351 40.2251 32.1351H24.955ZM24.955 30.341C24.7163 30.341 24.5217 30.1464 24.5217 29.9077C24.5217 29.6691 24.7163 29.4744 24.955 29.4744H40.2251C40.4638 29.4744 40.6584 29.6691 40.6584 29.9077C40.6584 30.1464 40.4638 30.341 40.2251 30.341H24.955ZM24.955 28.5469C24.7163 28.5469 24.5217 28.3523 24.5217 28.1136C24.5217 27.875 24.7163 27.6803 24.955 27.6803H40.2251C40.4638 27.6803 40.6584 27.875 40.6584 28.1136C40.6584 28.3523 40.4638 28.5469 40.2251 28.5469H24.955ZM31.0328 25.8862C31.2715 25.8862 31.4661 26.0809 31.4661 26.3195C31.4661 26.5582 31.2715 26.7528 31.0328 26.7528H24.955C24.7163 26.7528 24.5217 26.5582 24.5217 26.3195C24.5217 26.0809 24.7163 25.8862 24.955 25.8862H31.0328ZM30.2982 23.19C30.0596 23.19 29.8649 22.9953 29.8649 22.7567C29.8649 22.518 30.0596 22.3234 30.2982 22.3234H40.7211C40.9598 22.3234 41.1544 22.518 41.1544 22.7567C41.1544 22.9953 40.9598 23.19 40.7211 23.19H30.2982ZM27.3786 23.1781C27.1399 23.1781 26.9453 22.9835 26.9453 22.7448C26.9453 22.5062 27.1399 22.3115 27.3786 22.3115H28.428C28.6666 22.3115 28.8613 22.5062 28.8613 22.7448C28.8613 22.9835 28.6666 23.1781 28.428 23.1781H27.3786ZM24.4589 23.1781C24.2203 23.1781 24.0256 22.9835 24.0256 22.7448C24.0256 22.5062 24.2203 22.3115 24.4589 22.3115H25.5083C25.7469 22.3115 25.9416 22.5062 25.9416 22.7448C25.9416 22.9835 25.7469 23.1781 25.5083 23.1781H24.4589ZM23.0727 23.696H42.1073V22.2286C42.1073 22.1101 42.0582 22.0018 41.9804 21.9223C41.9025 21.8444 41.7942 21.7953 41.674 21.7953H23.5043C23.3858 21.7953 23.2775 21.8444 23.1979 21.9223C23.1201 22.0001 23.071 22.1084 23.071 22.2286V23.696H23.0727ZM42.1073 24.5626H23.0727V35.2767C23.0727 35.3952 23.1218 35.5035 23.1997 35.583C23.2775 35.6609 23.3858 35.71 23.506 35.71H41.6758C41.7942 35.71 41.9026 35.6609 41.9821 35.583C42.06 35.5052 42.1091 35.3969 42.1091 35.2767V24.5626H42.1073ZM23.5043 20.927H26.9012V16.9055H7.86659V27.6196C7.86659 27.7381 7.91568 27.8464 7.99354 27.926C8.07139 28.0038 8.17972 28.0529 8.29989 28.0529H22.2043V22.2273C22.2043 21.8684 22.3499 21.5435 22.5851 21.3082C22.8204 21.0729 23.1455 20.927 23.5043 20.927ZM27.7695 20.927H35.1984V7.16647C35.1984 6.80934 35.0528 6.48269 34.8175 6.24741C34.5823 6.01384 34.2573 5.86658 33.8985 5.86658H29.3203L28.5553 7.04462C28.4808 7.18003 28.3386 7.27143 28.1744 7.27143H21.5567C21.4163 7.26974 21.2775 7.20034 21.1945 7.0734L20.4109 5.86659H15.8327C15.4756 5.86659 15.1489 6.01215 14.9136 6.24742C14.68 6.48268 14.5328 6.80935 14.5328 7.16648V13.2716H26.467C26.8258 13.2716 27.1508 13.4172 27.3861 13.6524C27.6213 13.8877 27.7669 14.2127 27.7669 14.5715V20.9288L27.7695 20.927ZM36.0663 20.927H41.6752C42.0341 20.927 42.359 21.0726 42.5943 21.3079C42.8296 21.5431 42.9751 21.8681 42.9751 22.2269V35.2764C42.9751 35.6353 42.8296 35.9602 42.5943 36.1955C42.359 36.4308 42.0341 36.5763 41.6752 36.5763H36.0663V42.8335C36.0663 43.4276 35.8225 43.9692 35.4298 44.3619C35.0355 44.7563 34.4938 45 33.8998 45H15.8353C15.2412 45 14.6996 44.7563 14.3069 44.3636C13.9126 43.9692 13.6688 43.4276 13.6688 42.8335V28.9209H8.29989C7.94107 28.9209 7.61611 28.7753 7.38083 28.5401C7.14556 28.3048 7 27.9798 7 27.621V14.5715C7 14.2127 7.14556 13.8877 7.38083 13.6524C7.61609 13.4171 7.94108 13.2716 8.29989 13.2716H13.6688V7.16647C13.6688 6.57238 13.9126 6.03076 14.3053 5.63811C14.6996 5.24375 15.2413 5 15.8353 5H33.8998C34.4939 5 35.0355 5.24373 35.4281 5.63642C35.8225 6.03079 36.0663 6.57242 36.0663 7.16647V20.927ZM35.1997 36.5763H23.5059C23.1471 36.5763 22.8221 36.4308 22.5869 36.1955C22.3516 35.9602 22.206 35.6352 22.206 35.2764V28.9191H14.5372V42.8318C14.5372 43.1889 14.6827 43.5156 14.918 43.7508C15.1532 43.9844 15.4799 44.1317 15.837 44.1317H33.9015C34.2586 44.1317 34.5853 43.9861 34.8206 43.7508C35.0541 43.5156 35.2014 43.1906 35.2014 42.8318V36.5746L35.1997 36.5763ZM9.69639 26.2739C9.45774 26.2739 9.2631 26.0792 9.2631 25.8406C9.2631 25.6019 9.45774 25.4073 9.69639 25.4073H20.7675C21.0061 25.4073 21.2008 25.6019 21.2008 25.8406C21.2008 26.0792 21.0061 26.2739 20.7675 26.2739H9.69639ZM9.69639 24.4798C9.45774 24.4798 9.2631 24.2851 9.2631 24.0465C9.2631 23.8078 9.45774 23.6132 9.69639 23.6132H20.7675C21.0061 23.6132 21.2008 23.8078 21.2008 24.0465C21.2008 24.2851 21.0061 24.4798 20.7675 24.4798H9.69639ZM9.69639 22.6857C9.45774 22.6857 9.2631 22.491 9.2631 22.2524C9.2631 22.0137 9.45774 21.8191 9.69639 21.8191H20.7675C21.0061 21.8191 21.2008 22.0137 21.2008 22.2524C21.2008 22.491 21.0061 22.6857 20.7675 22.6857H9.69639ZM9.69639 20.8916C9.45774 20.8916 9.2631 20.6969 9.2631 20.4583C9.2631 20.2196 9.45774 20.025 9.69639 20.025H20.7675C21.0061 20.025 21.2008 20.2196 21.2008 20.4583C21.2008 20.6969 21.0061 20.8916 20.7675 20.8916H9.69639ZM14.1039 18.2309C14.3425 18.2309 14.5372 18.4255 14.5372 18.6642C14.5372 18.9028 14.3425 19.0975 14.1039 19.0975H9.69639C9.45774 19.0975 9.2631 18.9028 9.2631 18.6642C9.2631 18.4255 9.45774 18.2309 9.69639 18.2309H14.1039ZM15.0957 15.5346C14.8571 15.5346 14.6624 15.34 14.6624 15.1013C14.6624 14.8627 14.8571 14.6681 15.0957 14.6681H25.5186C25.7573 14.6681 25.9519 14.8627 25.9519 15.1013C25.9519 15.34 25.7573 15.5346 25.5186 15.5346H15.0957ZM12.1761 15.5228C11.9374 15.5228 11.7428 15.3281 11.7428 15.0895C11.7428 14.8508 11.9374 14.6562 12.1761 14.6562H13.2254C13.4641 14.6562 13.6587 14.8508 13.6587 15.0895C13.6587 15.3281 13.4641 15.5228 13.2254 15.5228H12.1761ZM9.25638 15.5228C9.01773 15.5228 8.82309 15.3281 8.82309 15.0895C8.82309 14.8508 9.01773 14.6562 9.25638 14.6562H10.3058C10.5444 14.6562 10.7391 14.8508 10.7391 15.0895C10.7391 15.3281 10.5444 15.5228 10.3058 15.5228H9.25638ZM24.8701 39.8345C25.2865 39.8345 25.6639 40.0038 25.9364 40.2762C26.2089 40.5487 26.3782 40.9262 26.3782 41.3425C26.3782 41.7589 26.2089 42.1363 25.9364 42.4088C25.664 42.6813 25.2865 42.8506 24.8701 42.8506C24.4538 42.8506 24.0763 42.6813 23.8038 42.4088C23.5313 42.1363 23.3621 41.7589 23.3621 41.3425C23.3621 40.9262 23.5314 40.5487 23.8038 40.2762C24.0764 40.0037 24.4538 39.8345 24.8701 39.8345ZM25.3238 40.889C25.2087 40.7739 25.0479 40.7011 24.8701 40.7011C24.6924 40.7011 24.5316 40.7739 24.4165 40.889C24.3014 41.0041 24.2287 41.1649 24.2287 41.3426C24.2287 41.5203 24.3014 41.6811 24.4165 41.7962C24.5316 41.9113 24.6924 41.9841 24.8701 41.9841C25.0479 41.9841 25.2087 41.9113 25.3238 41.7962C25.4389 41.6811 25.5116 41.5203 25.5116 41.3426C25.5116 41.1649 25.4389 41.0041 25.3238 40.889ZM28.2942 5.86666H21.446L21.7947 6.40489H27.9435L28.2922 5.86666H28.2942Z" fill="#FD1716"/>
</svg>
