<svg width="50" height="50" viewBox="0 0 50 50" fill="none" xmlns="http://www.w3.org/2000/svg">
<path d="M44.2 43.6527H9.76562C7.1375 43.6527 5 41.5148 5 38.8871V10.7668C5 10.325 5.35781 9.9668 5.8 9.9668C6.24219 9.9668 6.6 10.325 6.6 10.7668C6.6 11.809 8.06562 13.9324 9.76562 13.9324H44.2C44.6422 13.9324 45 14.2906 45 14.7324V42.8527C45 43.2945 44.6422 43.6527 44.2 43.6527ZM6.6 14.0703V38.8871C6.6 40.6328 8.02031 42.0527 9.76562 42.0527H43.4V15.5324H9.76562C8.55078 15.5324 7.44219 14.9176 6.6 14.0703Z" fill="#FD1716"/>
<path d="M44.2 15.5316H9.76562C7.1375 15.5316 5 13.3938 5 10.766C5 8.13789 7.1375 6 9.76562 6H44.2C44.6422 6 45 6.3582 45 6.8V14.7316C45 15.1734 44.6422 15.5316 44.2 15.5316ZM9.76562 7.6C8.02031 7.6 6.6 9.02031 6.6 10.766C6.6 12.5117 8.02031 13.9316 9.76562 13.9316H43.4V7.6H9.76562Z" fill="#FD1716"/>
<path d="M44.2039 32.5016H38.6219C35.7547 32.5016 33.4219 30.1688 33.4219 27.3016C33.4219 24.4344 35.7547 22.1016 38.6219 22.1016H44.2039C44.6461 22.1016 45.0039 22.4598 45.0039 22.9016V31.7016C45.0039 32.1434 44.6461 32.5016 44.2039 32.5016ZM38.6219 23.7016C36.6367 23.7016 35.0219 25.3164 35.0219 27.3016C35.0219 29.2867 36.6367 30.9016 38.6219 30.9016H43.4039V23.7016H38.6219Z" fill="#FD1716"/>
<path d="M38.8102 29.6984C37.4867 29.6984 36.4102 28.6219 36.4102 27.2984C36.4102 25.975 37.4867 24.8984 38.8102 24.8984C40.1336 24.8984 41.2102 25.975 41.2102 27.2984C41.2102 28.6219 40.1336 29.6984 38.8102 29.6984ZM38.8102 26.4984C38.3687 26.4984 38.0102 26.8574 38.0102 27.2984C38.0102 27.7395 38.3687 28.0984 38.8102 28.0984C39.2516 28.0984 39.6102 27.7395 39.6102 27.2984C39.6102 26.8574 39.2516 26.4984 38.8102 26.4984Z" fill="#FD1716"/>
<path d="M38.5547 11.5668H13.4875C13.0453 11.5668 12.6875 11.2086 12.6875 10.7668C12.6875 10.325 13.0453 9.9668 13.4875 9.9668H38.5547C38.9969 9.9668 39.3547 10.325 39.3547 10.7668C39.3547 11.2086 38.9969 11.5668 38.5547 11.5668Z" fill="#FD1716"/>
</svg>
