<svg width="60" height="60" viewBox="0 0 60 60" fill="none" xmlns="http://www.w3.org/2000/svg">
<path d="M29.5696 5.09443C29.4789 5.14717 29.0996 5.69131 28.7258 6.3042C27.7883 7.84327 27.7782 7.84405 26.5188 6.51905C25.6992 5.65655 25.5012 5.49873 25.2375 5.50069C25.0656 5.50147 24.8488 5.56006 24.7551 5.63037C24.6613 5.70069 24.3973 6.26006 24.1676 6.87374C23.6418 8.27999 23.6168 8.32492 23.3254 8.38156C23.1457 8.41515 22.8008 8.22257 21.9727 7.62804C21.3613 7.18858 20.7617 6.82921 20.6402 6.82921C20.1359 6.82921 19.9937 7.10499 19.7535 8.54796C19.4488 10.3827 19.459 10.3765 17.8051 9.62531C17.1371 9.32219 16.5043 9.07453 16.3976 9.07453C16.291 9.07453 16.0883 9.18898 15.9484 9.32922C15.6937 9.58391 15.6933 9.58508 15.7629 10.9878L15.8324 12.3921L15.5668 12.5343C15.3316 12.6601 15.1695 12.6449 14.1277 12.3984C12.7683 12.0773 12.4808 12.0859 12.2058 12.457L12.0043 12.7277L12.2746 13.8855C12.423 14.5222 12.5656 15.1355 12.5925 15.2476C12.6187 15.3597 12.573 15.539 12.491 15.646C12.355 15.821 12.2109 15.8374 10.9519 15.8179C8.82222 15.7843 8.70151 15.9671 9.58081 17.8882C9.86128 18.4976 10.0906 19.0523 10.0906 19.1187C10.0906 19.4695 9.8105 19.5968 8.60855 19.7933C7.93589 19.9027 7.35151 19.9925 7.30932 19.9925C7.26752 19.9925 7.14135 20.0843 7.02924 20.1964C6.66322 20.5621 6.76713 20.9058 7.59682 22.0769C8.63042 23.5359 8.62886 23.5418 6.92104 24.1945C4.97923 24.9375 4.93978 25.1203 6.4183 26.5226C7.79526 27.8289 7.79721 27.8098 6.23822 28.7898C5.05697 29.5313 5.039 29.5492 5.00892 29.9516C4.97259 30.441 4.98119 30.4496 6.39096 31.3109C7.78549 32.1625 7.78549 32.1883 6.41713 33.4828C4.94525 34.875 4.99056 35.0781 6.93393 35.8114C8.63198 36.452 8.63433 36.4598 7.59878 37.9184C7.01205 38.7454 6.82494 39.0903 6.82494 39.3454C6.82494 39.8231 7.07377 39.945 8.55933 40.1946C9.81167 40.4055 10.0906 40.5293 10.0906 40.8747C10.0906 40.9457 9.86089 41.5043 9.58003 42.1157C8.70659 44.018 8.8062 44.1762 10.873 44.1762C12.7988 44.1762 12.7476 44.1176 12.3328 45.8536C12.0203 47.1622 12.0152 47.413 12.2984 47.6954C12.5148 47.9126 12.9234 47.8884 14.2008 47.5825C15.1769 47.3497 15.348 47.3337 15.5742 47.4544L15.832 47.5927L15.7629 48.9966C15.6933 50.4001 15.6937 50.4009 15.9484 50.6559C16.0883 50.7966 16.2937 50.9106 16.4035 50.9106C16.5133 50.9106 17.1469 50.6645 17.8113 50.3622C19.4598 49.6138 19.4496 49.6075 19.7539 51.4364C19.9949 52.886 20.1355 53.1552 20.65 53.1552C20.7777 53.1552 21.3648 52.8114 21.9547 52.3903C22.9914 51.6509 23.2602 51.5349 23.5363 51.7106C23.6074 51.7556 23.884 52.363 24.1504 53.0602C24.5422 54.0856 24.6856 54.3532 24.9039 54.4571C25.3188 54.6564 25.5758 54.4962 26.5516 53.4337C27.7297 52.1501 27.7782 52.1563 28.7399 53.7149C29.8024 55.436 30.0774 55.4321 31.1664 53.6802C32.1047 52.1708 32.0938 52.1716 33.3622 53.4966C34.2047 54.3755 34.384 54.5161 34.668 54.5161C34.8493 54.5161 35.0661 54.4478 35.1485 54.3646C35.2321 54.2814 35.5079 53.6669 35.761 52.9989C36.0145 52.331 36.277 51.7489 36.345 51.706C36.6133 51.5356 36.8911 51.6552 37.9262 52.3903C38.5356 52.8231 39.1091 53.156 39.2454 53.156C39.7516 53.156 39.9345 52.7966 40.1446 51.3845C40.3243 50.1806 40.361 50.0649 40.5977 49.945C40.8306 49.827 40.9704 49.8669 42.0626 50.363C42.727 50.6638 43.3606 50.9106 43.4704 50.9106C43.5802 50.9106 43.7892 50.7927 43.9329 50.6481L44.1954 50.3864L44.1235 49.0395C44.0544 47.7544 44.061 47.6848 44.2657 47.4993C44.4767 47.3087 44.4985 47.3094 45.6778 47.579C47.106 47.9052 47.3724 47.9137 47.6407 47.6454C47.9028 47.3837 47.9001 47.3259 47.5415 45.8134C47.1392 44.1157 47.0853 44.1766 49.0181 44.1766C50.3361 44.1766 50.4829 44.1575 50.6509 43.9723C50.9314 43.6626 50.8646 43.3075 50.3009 42.1055C50.0161 41.5 49.7853 40.9493 49.7872 40.8809C49.7966 40.5239 50.0775 40.4016 51.3751 40.1907C52.1693 40.0622 52.763 39.9133 52.8708 39.8157C53.2314 39.4903 53.099 39.0664 52.2759 37.9121C51.2439 36.4657 51.2486 36.452 52.9005 35.843C54.8787 35.1141 54.9353 34.8711 53.4548 33.4641C52.0837 32.1613 52.0829 32.1684 53.5849 31.2465C55.4005 30.132 55.4033 29.8809 53.6169 28.7719C52.0806 27.8187 52.0818 27.832 53.4587 26.5246C54.9353 25.1211 54.8955 24.9375 52.9529 24.1945C51.2388 23.5387 51.2333 23.5226 52.2751 22.0929C52.8954 21.2414 53.0494 20.959 53.0494 20.6672C53.0494 20.157 52.8204 20.0429 51.3165 19.8C50.0603 19.5968 49.7837 19.4738 49.7837 19.1164C49.7837 19.0484 50.0134 18.5015 50.2943 17.9003C50.8435 16.7234 50.9208 16.2519 50.6099 15.9706C50.4427 15.8195 50.2193 15.7976 49.0212 15.8175C47.7681 15.8386 47.6079 15.8206 47.4341 15.646C47.2442 15.4554 47.2466 15.4285 47.5427 14.191C47.9064 12.6753 47.9079 12.6382 47.6091 12.3574C47.3056 12.0722 47.1161 12.0769 45.7239 12.4046C44.7095 12.6437 44.5415 12.6597 44.311 12.5363L44.0493 12.3956L44.1216 10.9964L44.1942 9.59797L43.9325 9.33625C43.7884 9.19172 43.5845 9.07453 43.4782 9.07453C43.3727 9.07453 42.7423 9.32453 42.0786 9.62961C40.97 10.1398 40.8509 10.1738 40.611 10.0484C40.372 9.92336 40.3321 9.79953 40.1278 8.55265C39.8923 7.11007 39.7462 6.82921 39.2341 6.82921C39.1126 6.82921 38.5102 7.19054 37.8958 7.63194C36.8864 8.35695 36.7512 8.4257 36.4997 8.33781C36.2915 8.26515 36.1704 8.10734 36.0227 7.71319C35.9133 7.42335 35.7036 6.86475 35.5563 6.47217C35.2587 5.67998 35.0926 5.50264 34.6469 5.50264C34.3981 5.50264 34.1731 5.68155 33.3657 6.51983C32.0961 7.8382 32.0918 7.8378 31.1586 6.30694C30.7856 5.69522 30.3957 5.14912 30.2922 5.09365C30.059 4.96865 29.7844 4.96865 29.5696 5.09443ZM30.7258 9.70305C31.8313 10.4898 31.2438 12.3398 29.8883 12.3398C28.5727 12.3398 27.9102 10.755 28.8493 9.85539C29.3797 9.34758 30.1395 9.28547 30.7258 9.70305ZM29.3364 14.5886C30.061 14.864 30.3582 14.6988 32.0129 13.1042L33.2559 11.905L33.7821 11.9753C35.4325 12.1941 38.7145 13.6355 40.6005 14.9699C42.3333 16.1964 44.6364 18.6941 45.6181 20.4113L45.8278 20.7793L44.8981 22.8746C44.3864 24.0269 43.9677 25.0906 43.9677 25.239C43.9677 25.582 44.1927 26.1246 44.4091 26.3039C44.5005 26.3801 45.3689 26.798 46.3384 27.2328L48.1001 28.0238L48.1696 28.4723C48.2595 29.0563 48.2712 30.4906 48.19 30.8981L48.1263 31.2168H47.1204C45.9536 31.2168 46.0438 31.1125 45.9806 32.5434C45.9345 33.5809 45.6837 34.1543 45.1134 34.5258C44.1849 35.1317 42.6509 35.0219 42.0001 34.3031C41.9005 34.1922 41.7063 33.6371 41.5684 33.0688C41.1661 31.407 40.6259 30.475 39.5399 29.5668C39.1969 29.2805 38.9169 29.0129 38.9169 28.9723C38.9169 28.9324 39.2938 28.6148 39.7548 28.268C41.4337 27.0023 42.3993 25.5289 42.5048 24.0699C42.7075 21.2863 40.4899 18.6921 37.1915 17.8511C36.4094 17.6519 36.0755 17.6457 26.4008 17.6457C20.9098 17.6457 16.4164 17.6097 16.4164 17.566C16.4164 17.4632 17.6371 16.2789 18.3558 15.6847C20.3301 14.0527 22.8941 12.7687 25.55 12.0831L26.468 11.8449L27.7727 13.1679C28.491 13.8956 29.1946 14.5351 29.3364 14.5886ZM12.9054 23.1015C13.5066 23.4953 13.7531 24.4844 13.3976 25.0789C12.8488 25.9992 11.4578 26.0379 10.9082 25.1484C10.1089 23.8558 11.6484 22.2777 12.9054 23.1015ZM48.3243 23.1523C49.897 24.1109 48.6782 26.4699 46.9946 25.725C45.8708 25.2277 45.8345 23.6914 46.9341 23.1312C47.3927 22.8969 47.9196 22.9051 48.3247 23.1519M17.5394 29.0234V34.8906H12.3519L12.1465 33.9981C11.7418 32.2402 11.5714 30.4215 11.6734 28.932L11.7445 27.8855L13.5277 27.0859C14.6465 26.5848 15.366 26.2023 15.4586 26.0605C15.864 25.4418 15.8258 25 15.2562 23.7429L14.9906 23.1562H17.5387V29.0234M32.4719 23.4109C33.5825 23.7 34.1692 24.2879 34.1708 25.1121C34.1715 25.7176 33.8719 26.0965 33.1278 26.4324C32.6012 26.6707 32.5176 26.6766 29.1969 26.709L25.8039 26.7418V23.2574H28.8438C31.218 23.2574 32.0125 23.291 32.4719 23.4109ZM31.3258 31.8305C31.8766 31.9836 32.5274 32.4617 32.861 32.9586C33.2118 33.4809 33.4168 34.1602 33.9028 36.4102C34.3129 38.3125 34.5774 38.9336 35.3169 39.743C36.2329 40.7454 36.02 40.7063 40.5958 40.7063C42.7872 40.7063 44.5794 40.7415 44.5794 40.7844C44.5794 40.8614 43.0704 42.6454 43.0052 42.6454C42.9864 42.6454 42.1981 42.4805 41.2536 42.2786C38.586 41.709 38.4899 41.7758 37.8778 44.6348L37.4841 46.4716L37.1286 46.6466C36.5356 46.9395 34.6079 47.5419 33.609 47.7481C31.9575 48.088 30.1606 48.202 28.5813 48.0688C25.8887 47.8403 22.3234 46.7958 22.184 46.1938C22.1547 46.0661 21.975 45.2395 21.7863 44.3563C21.5969 43.4735 21.3668 42.636 21.2746 42.4954C20.8332 41.8219 20.3691 41.7805 18.3266 42.2321C17.5531 42.404 16.8781 42.543 16.8265 42.543C16.7297 42.543 15.2941 40.8832 15.2941 40.7715C15.2941 40.7364 18.7035 40.6958 22.8707 40.6817L30.4469 40.6559L30.4743 37.9645C30.4938 36.0641 30.4672 35.2313 30.3844 35.1324C30.293 35.0215 29.8043 34.9926 28.0364 34.9926H25.8039V31.727L28.3809 31.7274C29.7973 31.7281 31.1231 31.7742 31.3258 31.8305ZM19.6516 44.0704C20.8562 44.8047 20.2785 46.7282 18.8535 46.7266C17.3926 46.7266 16.8508 44.8204 18.0957 44.0602C18.5078 43.809 19.2316 43.8141 19.6516 44.0704ZM41.7141 44.1508C42.3048 44.5837 42.5013 45.4841 42.1356 46.0844C41.1747 47.6602 38.7716 46.4075 39.5743 44.7489C39.9688 43.9344 41.0177 43.6403 41.7141 44.1508Z" fill="black"/>
</svg>
