<svg width="60" height="60" viewBox="0 0 60 60" fill="none" xmlns="http://www.w3.org/2000/svg">
<path d="M8 42.3652L29.5718 54.8203L51.1432 42.3652V17.4552L29.5718 5L8 17.455V42.3652Z" fill="#469EA2"/>
<path d="M27.3581 7.97656L11.6931 17.0161C11.7188 17.298 11.7188 17.5816 11.6931 17.8636L27.3324 26.9031C27.9753 26.4274 28.754 26.1707 29.5538 26.1707C30.3535 26.1707 31.1322 26.4274 31.7751 26.9031L47.4146 17.8636C47.3888 17.5817 47.3888 17.298 47.4146 17.0161L31.8009 7.97656C31.1578 8.45185 30.3792 8.70833 29.5795 8.70833C28.7798 8.70833 28.0012 8.45185 27.3581 7.97656ZM48.9296 20.3546L33.2646 29.4968C33.3495 30.2897 33.1817 31.0892 32.7851 31.781C32.3884 32.4728 31.7833 33.0215 31.0561 33.3488L31.0816 51.3253C31.3349 51.4371 31.5759 51.5746 31.8009 51.7361L47.4401 42.6966C47.3552 41.9037 47.5231 41.1042 47.9197 40.4124C48.3163 39.7206 48.9215 39.1719 49.6486 38.8446V20.7656C49.3983 20.6481 49.1579 20.5106 48.9296 20.3546ZM10.2034 20.4571C9.97859 20.6187 9.73763 20.7565 9.48438 20.8683V38.9473C10.2205 39.263 10.8339 39.8095 11.2323 40.5043C11.6307 41.1991 11.7923 42.0046 11.6929 42.7993L27.3324 51.8388C27.5572 51.6774 27.7981 51.5397 28.0514 51.4281V33.3488C27.3154 33.0331 26.7019 32.4866 26.3036 31.7918C25.905 31.0971 25.7433 30.2915 25.8429 29.4968L10.2034 20.4571Z" fill="#6ACAD1"/>
<path d="M29.5718 7.69969L48.8577 18.8449V41.1099L29.5718 52.2554L10.2855 41.1099V18.8194L29.5718 7.69969ZM29.5718 5.05469L8 17.5097V42.4197L29.5718 54.8747L51.1432 42.4197V17.5097L29.5718 5.05469Z" fill="#469EA2"/>
<path d="M29.7257 34.1507H29.4175C28.8877 34.152 28.3628 34.0486 27.873 33.8465C27.3832 33.6443 26.9382 33.3473 26.5636 32.9727C26.1889 32.598 25.892 32.153 25.6899 31.6632C25.4878 31.1734 25.3844 30.6485 25.3857 30.1187V29.8107C25.3835 29.0126 25.6188 28.2319 26.0618 27.5681C26.5047 26.9042 27.1352 26.3872 27.873 26.0829C28.3628 25.8809 28.8877 25.7775 29.4175 25.7787H29.7257C30.2556 25.7774 30.7805 25.8808 31.2703 26.0829C31.76 26.2851 32.205 26.582 32.5797 26.9567C32.9543 27.3314 33.2512 27.7764 33.4534 28.2662C33.6555 28.7559 33.7589 29.2808 33.7575 29.8107V30.1187C33.7598 30.9168 33.5244 31.6974 33.0815 32.3613C32.6386 33.0252 32.008 33.5422 31.2702 33.8464C30.7805 34.0485 30.2556 34.1519 29.7257 34.1507ZM29.7257 50.7144H29.4175C28.7012 50.7124 27.9974 50.9018 27.3788 51.263C26.7603 51.6242 26.2495 52.1441 25.8993 52.7689L29.5718 54.8747L33.244 52.7689C32.8936 52.1443 32.3827 51.6245 31.7642 51.2633C31.1457 50.9021 30.442 50.7127 29.7257 50.7144ZM51.169 38.2594H51.0148C50.2168 38.2576 49.4363 38.4931 48.7725 38.936C48.1088 39.379 47.5918 40.0093 47.2873 40.7469C47.0852 41.2367 46.9818 41.7616 46.983 42.2914V42.5994C46.9793 43.2839 47.1566 43.9572 47.4967 44.5512L51.169 42.4197V38.2594ZM47.4967 15.4039C47.1594 15.999 46.9824 16.6714 46.983 17.3554V17.6637C46.9817 18.1935 47.085 18.7184 47.2871 19.2082C47.4893 19.6979 47.7862 20.1429 48.1609 20.5176C48.5355 20.8922 48.9805 21.1892 49.4703 21.3913C49.96 21.5934 50.4849 21.6968 51.0148 21.6954H51.169V17.5099L47.4967 15.4039ZM29.5718 5.05469L25.8993 7.16044C26.2478 7.78864 26.7575 8.31255 27.3759 8.67816C27.9944 9.04377 28.6991 9.23786 29.4175 9.24044H29.7257C30.442 9.24249 31.1459 9.05311 31.7644 8.69191C32.383 8.3307 32.8938 7.81078 33.244 7.18594L29.5718 5.05469ZM11.6722 15.3782L8 17.5097V21.6954H8.154C8.68386 21.6968 9.20877 21.5935 9.69856 21.3914C10.1884 21.1892 10.6334 20.8923 11.0081 20.5177C11.3827 20.143 11.6797 19.698 11.8818 19.2082C12.084 18.7184 12.1874 18.1935 12.186 17.6637V17.3557C12.1771 16.6647 12.0008 15.9861 11.6722 15.3782ZM8.154 38.2594H8V42.4197L11.6725 44.5512C12.0098 43.956 12.1867 43.2835 12.186 42.5994V42.2914C12.1882 41.4933 11.9529 40.7126 11.5099 40.0488C11.0669 39.3849 10.4363 38.8679 9.6985 38.5637C9.20871 38.3616 8.68384 38.2582 8.154 38.2594Z" fill="#469EA2"/>
<path d="M29.5718 55.0001V30.0644L8 17.6094V42.5451L29.5718 55.0001Z" fill="#083B54" fill-opacity="0.15"/>
<path d="M51.1652 42.3163V17.4062L29.5938 29.8612V54.797L51.1652 42.3163Z" fill="#083B54" fill-opacity="0.05"/>
</svg>
