<svg width="60" height="60" viewBox="0 0 60 60" fill="none" xmlns="http://www.w3.org/2000/svg">
<path d="M33.1163 25.7147L31.9635 31.5729L42.9272 33.0395L42.1578 35.7839L31.3885 34.3173C30.6191 36.7034 30.2302 39.2644 29.2719 41.4644C28.3108 44.0282 27.347 46.5893 26.1914 48.9754C24.6526 52.0864 21.9637 54.2864 18.311 54.8336C16.1944 55.2003 13.8888 55.0142 12.1555 53.7364C11.5806 53.3697 11 52.6392 11 52.0864C11 51.3559 10.9861 50.4948 11.9639 50.0726C12.9389 49.6476 13.3416 49.9476 13.8888 50.2531C14.4638 50.8031 15.0388 51.5364 15.4249 52.2698C16.5777 53.7364 18.1166 53.917 19.6554 52.817C21.3859 51.3559 22.3498 49.3393 22.9248 47.3254C24.0776 42.931 25.2331 38.7144 26.1914 34.3228V33.5868L16.0027 32.1201L16.386 29.3757L26.9636 30.8396L28.3053 25.1647L17.3471 23.5119L17.736 20.5842L29.0803 22.0508C29.4608 20.9481 29.6552 20.0342 30.0413 19.1203C30.9997 15.8204 31.9635 12.5232 34.2718 9.59272C36.5773 6.66221 39.2717 4.83169 43.3078 5.01224C45.0411 5.01224 46.7716 5.56501 47.9244 6.84554C48.1188 7.02887 48.4994 7.39553 48.4994 7.75942C48.4994 8.49551 48.4994 9.40939 47.9244 9.96216C47.1549 10.5066 46.1938 10.3233 45.4244 9.5955C44.8466 9.0455 44.4605 8.49551 43.8856 7.94552C42.7328 6.47888 41.0023 6.29555 39.6551 7.57886C38.6134 8.57607 37.7662 9.75383 37.1551 11.0594C35.8051 14.9037 34.8468 18.9342 33.5024 22.9647L44.0772 24.4314L43.3078 27.1757L33.1163 25.7147Z" fill="#0090FF"/>
</svg>
