<svg width="75" height="75" viewBox="0 0 75 75" fill="none" xmlns="http://www.w3.org/2000/svg">
<path d="M36.2265 63.6915C36.2365 63.4718 36.2899 63.2563 36.3838 63.0574C36.4776 62.8585 36.61 62.6802 36.7733 62.5329C36.9365 62.3855 37.1274 62.272 37.3348 62.199C37.5423 62.1259 37.7621 62.0948 37.9817 62.1073C38.2012 62.1198 38.4161 62.1758 38.6139 62.272C38.8117 62.3681 38.9884 62.5026 39.1338 62.6676C39.2792 62.8325 39.3905 63.0247 39.4611 63.233C39.5317 63.4412 39.5603 63.6614 39.5453 63.8808C39.5152 64.3173 39.3144 64.7243 38.9862 65.0136C38.658 65.3029 38.2291 65.4512 37.7923 65.4263C37.3555 65.4014 36.9462 65.2053 36.6531 64.8805C36.3599 64.5557 36.2067 64.1285 36.2265 63.6915ZM22.6135 61.8931C22.8037 61.6034 23.1012 61.4011 23.4405 61.3307C23.7798 61.2604 24.1332 61.3277 24.4229 61.5179C24.7126 61.708 24.9149 62.0055 24.9852 62.3448C25.0556 62.6842 24.9883 63.0376 24.7981 63.3272C24.7039 63.4707 24.5824 63.5942 24.4405 63.6907C24.2986 63.7871 24.1391 63.8547 23.9711 63.8896C23.803 63.9244 23.6298 63.9258 23.4612 63.8937C23.2927 63.8616 23.1321 63.7965 22.9886 63.7024C22.8452 63.6082 22.7217 63.4867 22.6252 63.3448C22.5287 63.2029 22.4611 63.0433 22.4263 62.8753C22.3915 62.7073 22.3901 62.534 22.4222 62.3655C22.4543 62.1969 22.5193 62.0365 22.6135 61.8931ZM51.8115 61.3805C51.9647 61.303 52.1316 61.2565 52.3027 61.2436C52.4739 61.2307 52.6459 61.2517 52.8089 61.3055C52.9719 61.3592 53.1227 61.4445 53.2527 61.5566C53.3827 61.6687 53.4892 61.8054 53.5663 61.9587C53.6827 62.1895 53.7281 62.4496 53.6967 62.7061C53.6653 62.9626 53.5585 63.2041 53.3898 63.3999C53.2212 63.5958 52.9983 63.7372 52.7492 63.8063C52.5002 63.8755 52.2363 63.8692 51.9908 63.7883C51.7453 63.7074 51.5294 63.5556 51.3702 63.3519C51.2111 63.1483 51.1159 62.902 51.0967 62.6443C51.0775 62.3866 51.1352 62.1289 51.2624 61.904C51.3897 61.679 51.5807 61.4969 51.8115 61.3805ZM25.7691 54.9774C26.0623 54.53 26.521 54.2172 27.0446 54.1079C27.5682 53.9985 28.1138 54.1015 28.5615 54.3943C29.0091 54.6878 29.3218 55.1469 29.4311 55.6709C29.5404 56.1949 29.4371 56.7408 29.1441 57.1887C28.8493 57.6326 28.3908 57.9419 27.8688 58.049C27.3468 58.156 26.8036 58.0522 26.3578 57.7601C25.9121 57.4681 25.6 57.0115 25.4897 56.4901C25.3794 55.9688 25.4798 55.4249 25.7691 54.9774ZM47.7125 54.233C47.9486 54.1127 48.206 54.04 48.4702 54.0193C48.7343 53.9985 49 54.03 49.2519 54.112C49.5039 54.194 49.7372 54.3249 49.9385 54.4972C50.1398 54.6694 50.3052 54.8797 50.4252 55.1159C50.6056 55.4694 50.6779 55.8683 50.633 56.2626C50.588 56.657 50.4279 57.0294 50.1726 57.3332C49.9173 57.6371 49.578 57.859 49.1973 57.9712C48.8166 58.0835 48.4113 58.081 48.0319 57.9642C47.6526 57.8474 47.3161 57.6214 47.0645 57.3144C46.8129 57.0075 46.6572 56.6332 46.6171 56.2383C46.5769 55.8435 46.654 55.4455 46.8387 55.0942C47.0234 54.7429 47.3075 54.4538 47.6556 54.263L47.7125 54.233ZM35.7177 53.0007C35.9231 52.5777 36.2495 52.2253 36.6555 51.9881C37.0615 51.7509 37.5288 51.6395 37.9981 51.6682C39.3041 51.7463 40.3004 52.8671 40.2252 54.1735C40.2053 54.5244 40.1077 54.8666 39.9396 55.1753C39.7714 55.484 39.5368 55.7515 39.2528 55.9585C38.9687 56.1655 38.6422 56.3069 38.2969 56.3725C37.9515 56.4381 37.5959 56.4262 37.2557 56.3377C36.9156 56.2492 36.5993 56.0862 36.3297 55.8607C36.0601 55.6351 35.8439 55.3525 35.6968 55.0333C35.5496 54.714 35.4752 54.3661 35.4788 54.0146C35.4824 53.6631 35.564 53.3168 35.7177 53.0007ZM14.7106 49.324C15.1031 49.1287 15.5569 49.0963 15.9731 49.234C16.3893 49.3716 16.7343 49.6682 16.933 50.059C17.1316 50.4498 17.1678 50.9033 17.0336 51.3207C16.8995 51.7381 16.6059 52.0856 16.2167 52.2875C15.8276 52.4894 15.3744 52.5294 14.9559 52.3988C14.5374 52.2682 14.1875 51.9775 13.9823 51.59C13.7771 51.2026 13.7333 50.7498 13.8604 50.3302C13.9875 49.9106 14.2752 49.5582 14.6609 49.3498L14.7106 49.324ZM59.2054 49.7968C59.3239 49.6118 59.478 49.4522 59.6586 49.3272C59.8392 49.2022 60.0429 49.1142 60.2577 49.0683C60.4725 49.0225 60.6943 49.0197 60.9103 49.06C61.1262 49.1004 61.332 49.1832 61.5157 49.3036C61.6995 49.424 61.8575 49.5797 61.9807 49.7615C62.104 49.9434 62.1899 50.1479 62.2336 50.3632C62.2773 50.5785 62.2779 50.8003 62.2354 51.0158C62.1928 51.2313 62.108 51.4363 61.9858 51.6188C61.7421 51.9827 61.3646 52.2357 60.9354 52.3229C60.5062 52.41 60.0599 52.3242 59.6936 52.0842C59.3273 51.8441 59.0705 51.4692 58.9791 51.0409C58.8877 50.6125 58.969 50.1654 59.2054 49.7968ZM31.3363 42.4254C32.1272 41.9984 33.0381 41.8474 33.9245 41.9963C34.811 42.1452 35.6225 42.5856 36.2305 43.2477C36.8385 43.9097 37.2083 44.7557 37.2814 45.6516C37.3544 46.5476 37.1266 47.4423 36.6338 48.1941C36.2674 48.7565 35.7659 49.2182 35.1752 49.5371C34.5845 49.8559 33.9233 50.0217 33.252 50.0194C32.3532 50.0187 31.4803 49.7182 30.7715 49.1655C30.0626 48.6129 29.5584 47.8396 29.3385 46.968C29.1186 46.0965 29.1957 45.1766 29.5576 44.3538C29.9194 43.531 30.5453 42.8524 31.3363 42.4254ZM41.5414 42.1217C42.4579 41.8266 43.4496 41.8687 44.3379 42.2401C45.2261 42.6116 45.9524 43.2882 46.386 44.1478C47.383 46.1377 46.5838 48.5595 44.5977 49.5647C44.0339 49.8509 43.4112 50.0021 42.7789 50.0063C41.8162 50.0062 40.8851 49.6623 40.1535 49.0365C39.4219 48.4108 38.9378 47.5443 38.7885 46.5932C38.6393 45.6421 38.8346 44.6689 39.3393 43.8491C39.8441 43.0293 40.625 42.4166 41.5414 42.1217ZM22.0899 44.3646C22.319 44.0984 22.6044 43.8863 22.9253 43.7436C23.2463 43.6009 23.595 43.5311 23.9461 43.5394C24.2973 43.5477 24.6423 43.6337 24.9562 43.7914C25.2701 43.949 25.5451 44.1743 25.7615 44.4511C25.9778 44.7278 26.1301 45.0491 26.2073 45.3918C26.2845 45.7345 26.2847 46.09 26.208 46.4328C26.1313 46.7756 25.9794 47.0971 25.7635 47.3741C25.5475 47.6512 25.2728 47.8769 24.9591 48.035C24.4685 48.2822 23.9074 48.3517 23.3713 48.2317C22.8352 48.1117 22.3573 47.8095 22.019 47.3767C21.6806 46.9439 21.5028 46.4072 21.5157 45.858C21.5286 45.3088 21.7316 44.781 22.0899 44.3646ZM50.1561 44.5474C50.8759 43.4508 52.3485 43.1454 53.4449 43.8654C54.5394 44.5868 54.8441 46.0573 54.1269 47.1544C53.4072 48.2508 51.9346 48.5562 50.8382 47.8364C49.7415 47.1164 49.4361 45.6441 50.1561 44.5474ZM24.4294 37.5216C24.5555 35.3248 26.4165 33.6333 28.6154 33.7167C30.8138 33.8002 32.5412 35.6278 32.5009 37.8277C32.461 40.0027 30.707 41.7506 28.5406 41.7919L28.4666 41.7926H28.2458C26.0401 41.6637 24.3498 39.7915 24.4369 37.5926L24.4405 37.5192L24.4294 37.5216ZM43.4865 37.4761C43.6145 35.2484 45.5244 33.5461 47.7521 33.6741C48.2813 33.7012 48.7998 33.8335 49.2773 34.0632C49.7548 34.2928 50.1819 34.6152 50.5335 35.0116C51.0481 35.5877 51.3867 36.2992 51.5092 37.0619C51.6318 37.8246 51.533 38.6064 51.2248 39.3146C50.9166 40.0229 50.4117 40.6279 49.7701 41.058C49.1285 41.4881 48.377 41.7252 47.6047 41.7413L47.5225 41.7422H47.2883C45.0606 41.6142 43.3583 39.7043 43.4863 37.4766M14.8182 37.6603C14.8486 37.1262 15.0899 36.6261 15.489 36.2699C15.888 35.9136 16.4122 35.7304 16.9463 35.7605C17.4806 35.7912 17.9809 36.0329 18.3372 36.4322C18.6935 36.8316 18.8768 37.3561 18.8466 37.8905C18.8161 38.4247 18.5746 38.9249 18.1753 39.281C17.776 39.6372 17.2515 39.8201 16.7173 39.7896C16.1831 39.7591 15.6829 39.5176 15.3267 39.1183C14.9706 38.719 14.7876 38.1945 14.8182 37.6603ZM57.1508 37.5689C57.184 37.0368 57.4264 36.5394 57.8252 36.1855C58.224 35.8315 58.7466 35.6499 59.2789 35.6801C59.8112 35.7104 60.3099 35.9501 60.666 36.3469C61.0221 36.7438 61.2066 37.2654 61.1793 37.7979C61.1486 38.3323 60.907 38.8326 60.5076 39.189C60.1082 39.5453 59.5837 39.7286 59.0493 39.6984C58.5152 39.6676 58.0153 39.426 57.6593 39.0268C57.3033 38.6275 57.1204 38.103 57.1508 37.5689ZM9.32863 36.4934L9.37738 36.4952C9.54869 36.5045 9.71648 36.5476 9.87111 36.6219C10.0257 36.6963 10.1641 36.8004 10.2784 36.9284C10.3926 37.0564 10.4805 37.2057 10.5369 37.3678C10.5932 37.5298 10.617 37.7014 10.6069 37.8727C10.5922 38.1281 10.5027 38.3735 10.3496 38.5785C10.1964 38.7835 9.98643 38.9389 9.74566 39.0254C9.50488 39.1119 9.24399 39.1257 8.99543 39.0651C8.74687 39.0044 8.52163 38.8721 8.34772 38.6844C8.17381 38.4968 8.05892 38.2621 8.01734 38.0097C7.97576 37.7572 8.00933 37.4981 8.11387 37.2646C8.21841 37.0311 8.38931 36.8335 8.6053 36.6964C8.82128 36.5592 9.07283 36.4886 9.32863 36.4934ZM66.7141 36.3586L66.7684 36.3607C67.1142 36.3812 67.4377 36.5379 67.6682 36.7965C67.8987 37.055 68.0172 37.3944 67.998 37.7402C67.9832 37.9959 67.8937 38.2416 67.7405 38.4468C67.5872 38.6521 67.3771 38.8077 67.1361 38.8945C66.8952 38.9812 66.634 38.9953 66.3852 38.9348C66.1363 38.8744 65.9107 38.7421 65.7363 38.5545C65.562 38.3669 65.4466 38.1322 65.4046 37.8796C65.3625 37.627 65.3957 37.3676 65.4998 37.1336C65.604 36.8996 65.7746 36.7014 65.9905 36.5637C66.2064 36.4259 66.458 36.3546 66.7141 36.3586ZM33.2169 25.4583C33.9644 25.4547 34.6981 25.6593 35.3359 26.0492C35.9737 26.439 36.4904 26.9987 36.8281 27.6656C37.1401 28.2819 37.289 28.9678 37.2605 29.6579C37.232 30.3481 37.0271 31.0194 36.6653 31.6078C36.3036 32.1963 35.797 32.6822 35.1941 33.0191C34.5911 33.3561 33.9118 33.5329 33.2211 33.5327C32.472 33.5351 31.737 33.3282 31.0991 32.9355C30.4611 32.5428 29.9454 31.9798 29.6101 31.3099C29.3017 30.6942 29.1557 30.01 29.186 29.3221C29.2163 28.6341 29.4218 27.9654 29.7831 27.3792C30.1444 26.793 30.6495 26.3088 31.2505 25.9727C31.8514 25.6365 32.5283 25.4594 33.2169 25.4583ZM42.7459 25.4297C43.6447 25.4309 44.5174 25.7317 45.2259 26.2847C45.9344 26.8377 46.4383 27.6112 46.6577 28.4828C46.8772 29.3543 46.7997 30.2742 46.4376 31.0968C46.0754 31.9193 45.4493 32.5977 44.6583 33.0243C43.8672 33.451 42.9565 33.6017 42.0702 33.4526C41.1839 33.3034 40.3726 32.8629 39.7648 32.2009C39.157 31.5388 38.7874 30.6929 38.7144 29.7971C38.6415 28.9013 38.8693 28.0067 39.362 27.255C39.7302 26.6937 40.2323 26.233 40.8231 25.9143C41.4138 25.5957 42.0746 25.4291 42.7459 25.4297ZM21.8689 28.3015C22.5882 27.2046 24.0603 26.8983 25.1572 27.6176C26.2541 28.3369 26.5604 29.809 25.8416 30.9059C25.1223 32.0027 23.6501 32.3093 22.5533 31.5902C22.2921 31.4194 22.0672 31.1988 21.8915 30.941C21.7157 30.6832 21.5925 30.3933 21.5289 30.0878C21.4654 29.7823 21.4627 29.4673 21.521 29.1608C21.5793 28.8543 21.6976 28.5622 21.8689 28.3015ZM51.0411 27.4207C51.3197 27.28 51.6232 27.1957 51.9343 27.1725C52.2455 27.1493 52.5581 27.1877 52.8544 27.2855C53.1507 27.3833 53.4248 27.5386 53.661 27.7424C53.8972 27.9463 54.0909 28.1947 54.231 28.4735C54.8209 29.6451 54.3493 31.0732 53.1779 31.6634C52.0065 32.2535 50.5782 31.7817 49.9881 30.6103C49.3979 29.4389 49.8697 28.0106 51.0411 27.4205M14.0129 23.838C14.2546 23.4694 14.6328 23.2118 15.0644 23.122C15.2781 23.0776 15.4985 23.0756 15.713 23.1164C15.9274 23.1571 16.1318 23.2396 16.3143 23.3593C16.4969 23.479 16.654 23.6335 16.7769 23.8139C16.8997 23.9943 16.9859 24.1972 17.0303 24.4109C17.0748 24.6246 17.0767 24.845 17.036 25.0594C16.9953 25.2739 16.9127 25.4782 16.793 25.6608C16.5513 26.0294 16.173 26.287 15.7414 26.3768C15.3098 26.4665 14.8602 26.3812 14.4916 26.1395C14.1229 25.8978 13.8653 25.5195 13.7756 25.0879C13.6858 24.6563 13.7711 24.2067 14.0129 23.838ZM59.7892 23.1654C60.1821 22.9731 60.635 22.9435 61.0496 23.0829C61.4642 23.2224 61.8072 23.5196 62.0041 23.9102C62.2009 24.3008 62.2359 24.7533 62.1014 25.1696C61.9669 25.5858 61.6737 25.9322 61.2855 26.1337C60.8914 26.332 60.4348 26.3657 60.0159 26.2274C59.597 26.0892 59.2502 25.7903 59.0516 25.3964C58.8536 25.0027 58.82 24.5464 58.9583 24.128C59.0966 23.7096 59.3955 23.3632 59.7892 23.1651M35.5897 21.2817C35.6647 19.9727 36.7869 18.9722 38.0961 19.0467C39.4051 19.1212 40.4061 20.2427 40.3321 21.5522C40.2582 22.8611 39.1372 23.8626 37.828 23.7893C36.5176 23.7145 35.5156 22.5921 35.5897 21.2817ZM26.4669 17.6193C26.7035 17.5001 26.9613 17.4287 27.2255 17.4091C27.4897 17.3895 27.7552 17.4221 28.0068 17.5051C28.2584 17.5881 28.4912 17.7199 28.6919 17.8928C28.8926 18.0658 29.0573 18.2766 29.1765 18.5132C29.2957 18.7499 29.3672 19.0076 29.3868 19.2719C29.4063 19.5361 29.3737 19.8016 29.2907 20.0532C29.2077 20.3048 29.0759 20.5376 28.903 20.7383C28.73 20.939 28.5192 21.1036 28.2826 21.2229C27.8047 21.4636 27.2508 21.5047 26.7426 21.3371C26.2345 21.1694 25.8137 20.8068 25.573 20.329C25.3322 19.8511 25.2911 19.2972 25.4587 18.789C25.6264 18.2809 25.989 17.8601 26.4669 17.6193ZM46.8472 18.2667C47.0658 17.9324 47.3785 17.6705 47.7458 17.5139C48.1132 17.3574 48.5188 17.3132 48.9112 17.3871C49.3037 17.461 49.6654 17.6495 49.9507 17.929C50.236 18.2084 50.4321 18.5661 50.5141 18.9569C50.5962 19.3478 50.5605 19.7541 50.4117 20.1247C50.2628 20.4953 50.0074 20.8134 49.6778 21.0388C49.3482 21.2643 48.9591 21.387 48.5598 21.3914C48.1605 21.3957 47.7688 21.2816 47.4343 21.0635C47.2119 20.9186 47.0201 20.7313 46.8702 20.5123C46.7202 20.2932 46.615 20.0467 46.5604 19.7869C46.5059 19.5271 46.5031 19.2591 46.5523 18.9982C46.6016 18.7374 46.7018 18.4888 46.8472 18.2667ZM22.999 11.7459C23.3076 11.5914 23.6647 11.5652 23.9925 11.6731C24.3203 11.7809 24.5921 12.0141 24.7486 12.3216C24.9051 12.6292 24.9336 12.9861 24.8279 13.3146C24.7222 13.6431 24.4908 13.9164 24.1843 14.0749C24.0305 14.1535 23.8627 14.2009 23.6905 14.2144C23.5183 14.2279 23.3452 14.2072 23.181 14.1534C23.0169 14.0997 22.865 14.014 22.7341 13.9012C22.6033 13.7885 22.496 13.651 22.4185 13.4967C22.264 13.1874 22.2383 12.8295 22.3471 12.5014C22.4559 12.1732 22.6903 11.9015 22.999 11.7459ZM51.1977 12.1303C51.2916 11.9866 51.4129 11.8629 51.5546 11.7661C51.6963 11.6693 51.8557 11.6014 52.0236 11.5662C52.1916 11.531 52.3648 11.5293 52.5335 11.5611C52.7021 11.5928 52.8629 11.6575 53.0065 11.7514C53.1501 11.8453 53.2739 11.9666 53.3707 12.1083C53.4674 12.25 53.5354 12.4094 53.5705 12.5773C53.6057 12.7453 53.6075 12.9185 53.5757 13.0872C53.5439 13.2558 53.4793 13.4165 53.3854 13.5602C53.1958 13.8503 52.8987 14.0532 52.5595 14.1243C52.2203 14.1953 51.8668 14.1288 51.5767 13.9392C51.2866 13.7496 51.0837 13.4525 51.0126 13.1133C50.9415 12.7741 51.0081 12.4204 51.1977 12.1303ZM37.3916 10.1006C37.5984 10.0252 37.8181 9.99158 38.038 10.0018C38.258 10.012 38.4736 10.0658 38.6726 10.16C38.8715 10.2543 39.0498 10.3871 39.197 10.5508C39.3442 10.7145 39.4574 10.9058 39.53 11.1136C39.6027 11.3214 39.6334 11.5416 39.6202 11.7613C39.6071 11.9811 39.5504 12.196 39.4536 12.3937C39.3567 12.5914 39.2215 12.7678 39.0559 12.9128C38.8902 13.0578 38.6974 13.1685 38.4887 13.2384C38.0743 13.3771 37.6219 13.3471 37.2295 13.1548C36.8371 12.9624 36.5362 12.6233 36.3919 12.2108C36.2477 11.7983 36.2717 11.3455 36.4588 10.9506C36.6459 10.5557 36.981 10.2503 37.3916 10.1006Z" fill="white"/>
</svg>
