<svg width="75" height="75" viewBox="0 0 75 75" fill="none" xmlns="http://www.w3.org/2000/svg">
<path d="M23.0516 64.4948H12.9751C10.8518 64.4948 9.80178 64.4948 9.16846 64.1015C8.82893 63.8882 8.54569 63.5963 8.34264 63.2505C8.13959 62.9048 8.02269 62.5152 8.0018 62.1148C7.96514 61.3682 8.48846 60.4648 9.53845 58.6482L34.4382 15.3753C35.5048 13.5387 36.0515 12.6187 36.7281 12.282C37.0873 12.0967 37.4856 12 37.8898 12C38.294 12 38.6923 12.0967 39.0515 12.282C39.7248 12.6187 40.2514 13.5387 41.3014 15.3753L46.4414 24.1852L46.458 24.2252C47.3014 25.4719 47.9714 26.8285 48.4447 28.2552C48.728 29.3785 48.728 30.5985 48.4447 31.7418C47.9705 33.1814 47.3021 34.5495 46.458 35.8084L33.3715 58.6082L33.3349 58.6849C32.6649 60.0448 31.8015 61.3115 30.7815 62.4348C29.9014 63.2569 28.8442 63.8658 27.6916 64.2148C26.6249 64.4948 25.4416 64.4948 23.0583 64.4948M48.5414 64.4948H62.9745C65.1345 64.4948 66.2012 64.4948 66.8411 64.0848C67.1788 63.8703 67.4601 63.578 67.6614 63.2323C67.8626 62.8866 67.978 62.4977 67.9978 62.0982C68.0378 61.3648 67.5311 60.5048 66.5211 58.7949L66.4078 58.6115L59.1712 46.4217L59.0946 46.275C58.0812 44.585 57.5579 43.725 56.9013 43.3884C56.545 43.2031 56.1494 43.1064 55.7479 43.1064C55.3464 43.1064 54.9508 43.2031 54.5946 43.3884C53.9213 43.7217 53.3946 44.625 52.3446 46.4217L45.1047 58.6282V58.6682C44.0381 60.4615 43.5147 61.3682 43.5514 62.0982C43.5717 62.5002 43.6875 62.8917 43.8892 63.2401C44.0909 63.5884 44.3728 63.8837 44.7114 64.1015C45.3347 64.4948 46.4014 64.4948 48.5414 64.4948Z" fill="#E84142"/>
</svg>
