<svg width="75" height="75" viewBox="0 0 75 75" fill="none" xmlns="http://www.w3.org/2000/svg">
<path fill-rule="evenodd" clip-rule="evenodd" d="M37.8301 67.694C41.776 67.7356 45.691 66.9943 49.3486 65.5131C53.0062 64.0318 56.3338 61.84 59.1388 59.0644C61.9438 56.2888 64.1706 52.9845 65.6903 49.3427C67.21 45.701 67.9925 41.794 67.9925 37.8478C67.9925 33.9017 67.21 29.9947 65.6903 26.3529C64.1706 22.7112 61.9438 19.4069 59.1388 16.6313C56.3338 13.8557 53.0062 11.6638 49.3486 10.1826C45.691 8.70134 41.776 7.96006 37.8301 8.00166C29.9689 8.08453 22.4578 11.2655 16.9282 16.8538C11.3985 22.442 8.29688 29.9862 8.29688 37.8478C8.29687 45.7095 11.3985 53.2537 16.9282 58.8419C22.4578 64.4302 29.9689 67.6111 37.8301 67.694ZM37.8301 60.9617C40.8657 60.9617 43.8715 60.3638 46.676 59.2021C49.4805 58.0404 52.0287 56.3378 54.1752 54.1913C56.3217 52.0448 58.0244 49.4966 59.186 46.6921C60.3477 43.8876 60.9456 40.8817 60.9456 37.8462C60.9456 34.8106 60.3477 31.8048 59.186 29.0003C58.0244 26.1958 56.3217 23.6475 54.1752 21.5011C52.0287 19.3546 49.4805 17.6519 46.676 16.4902C43.8715 15.3286 40.8657 14.7307 37.8301 14.7307C31.6995 14.7307 25.82 17.1661 21.485 21.5011C17.15 25.8361 14.7146 31.7156 14.7146 37.8462C14.7146 43.9768 17.15 49.8563 21.485 54.1913C25.82 58.5263 31.6995 60.9617 37.8301 60.9617Z" fill="url(#paint0_linear_4796_4254)"/>
<path d="M48.0855 55.7686C49.426 55.7686 50.7115 55.2361 51.6594 54.2883C52.6072 53.3404 53.1397 52.0549 53.1397 50.7144C53.1397 49.3739 52.6072 48.0884 51.6594 47.1405C50.7115 46.1927 49.426 45.6602 48.0855 45.6602C46.745 45.6602 45.4595 46.1927 44.5116 47.1405C43.5637 48.0884 43.0313 49.3739 43.0312 50.7144C43.0313 52.0549 43.5637 53.3404 44.5116 54.2883C45.4595 55.2361 46.745 55.7686 48.0855 55.7686Z" fill="url(#paint1_linear_4796_4254)"/>
<path d="M45.0587 9.15431C49.9206 9.50254 55.6679 13.784 57.9364 15.8867L60.8283 18.9975C55.5452 16.5367 50.9155 13.7874 45.0587 13.93C39.2019 14.0726 31.667 20.009 32.2473 31.0825C32.8244 42.1528 41.3675 48.1621 47.5162 50.1851C52.4344 51.8102 52.9352 49.5782 52.5007 48.2284C54.484 52.0854 51.8574 55.9027 47.5162 56.2641C44.0405 56.5527 39.507 54.0189 37.6763 52.7156C32.7514 49.2665 23.4323 39.2874 25.5183 26.9569C28.1217 11.5421 38.9797 8.71986 45.0587 9.15431Z" fill="url(#paint2_linear_4796_4254)"/>
<path d="M16.962 38.2913C16.6331 38.8745 16.4224 39.5167 16.3418 40.1813C16.2612 40.8459 16.3122 41.5199 16.4921 42.1648C16.6719 42.8096 16.977 43.4128 17.39 43.9397C17.8029 44.4667 18.3156 44.9071 18.8988 45.2359C19.4819 45.5648 20.1241 45.7755 20.7887 45.8561C21.4533 45.9367 22.1273 45.8857 22.7722 45.7058C23.417 45.526 24.0202 45.2209 24.5471 44.8079C25.0741 44.395 25.5145 43.8823 25.8434 43.2991C26.5074 42.1214 26.6764 40.7281 26.3132 39.4257C25.95 38.1234 25.0843 37.0186 23.9066 36.3546C22.7288 35.6905 21.3355 35.5215 20.0331 35.8847C18.7308 36.2479 17.626 37.1136 16.962 38.2913Z" fill="url(#paint3_linear_4796_4254)"/>
<path d="M59.4839 57.8392C56.864 61.9516 50.3405 65.1287 47.4155 66.1269L43.3031 67.1882C47.9793 63.7126 52.6222 60.7875 55.2853 55.5641C57.9517 50.3408 56.3234 40.8989 46.3111 36.1299C36.2988 31.3608 26.9498 36.0072 22.2405 40.4512C18.4697 44.0097 20.2307 45.5253 21.6236 45.7873C17.3653 45.7873 15.1433 41.5456 16.8944 37.5559C18.2939 34.3655 22.6816 31.5864 24.7013 30.5914C30.0805 27.9084 43.2965 24.4726 53.1429 32.1767C65.4535 41.8142 62.7606 52.702 59.4839 57.8392Z" fill="url(#paint4_linear_4796_4254)"/>
<path d="M48.0817 19.8694C47.7426 19.2843 47.2904 18.7725 46.7515 18.3638C46.2126 17.9552 45.5977 17.6578 44.9428 17.4892C44.2878 17.3205 43.6059 17.2839 42.9366 17.3814C42.2674 17.4789 41.6242 17.7086 41.0446 18.0572C40.465 18.4057 39.9606 18.8661 39.5607 19.4115C39.1608 19.957 38.8735 20.5765 38.7154 21.2341C38.5573 21.8917 38.5317 22.5742 38.64 23.2418C38.7483 23.9094 38.9884 24.5487 39.3463 25.1226C40.054 26.2577 41.1796 27.069 42.4802 27.3816C43.7808 27.6943 45.1522 27.4831 46.2985 26.7938C47.4448 26.1044 48.2743 24.9921 48.6079 23.6967C48.9414 22.4013 48.7525 21.0267 48.0817 19.8694Z" fill="url(#paint5_linear_4796_4254)"/>
<path d="M9.63797 46.5528C7.43587 42.2016 7.8869 34.9652 8.51702 31.9406L9.69104 27.8581C10.3079 33.6552 10.5931 39.1439 13.7371 44.092C16.8777 49.0401 25.842 52.4361 35.0352 46.2377C44.2283 40.0393 44.9778 29.6324 43.5484 23.3146C42.4009 18.2603 40.1325 19.053 39.2006 20.1242C41.4292 16.2506 46.2082 16.6486 48.7585 20.1839C50.7948 23.0095 50.9573 28.1997 50.7849 30.4449C50.3637 36.441 46.6062 49.5707 34.9655 54.1341C20.4064 59.8384 12.4006 51.9851 9.63797 46.5528Z" fill="url(#paint6_linear_4796_4254)"/>
<path d="M54.4964 16.0541C43.267 10.5223 36.5678 16.787 34.6211 20.6075C40.8361 12.4657 49.1769 16.6444 52.563 19.7486L54.4964 16.0541Z" fill="url(#paint7_linear_4796_4254)"/>
<path d="M47.9805 63.4498C58.8053 56.4853 57.0078 47.6935 54.8488 43.9824C58.3311 53.62 50.2788 58.4255 45.8281 59.5928L47.9805 63.4498Z" fill="url(#paint8_linear_4796_4254)"/>
<path d="M10.707 33.2617C10.8397 46.1361 18.9052 49.426 23.5781 49.5354C13.5757 47.3532 14.1594 38.0042 15.0051 33.5569L10.707 33.2617Z" fill="url(#paint9_linear_4796_4254)"/>
<path d="M43.0917 17.435C45.579 19.5807 49.0049 25.8056 45.977 36.7963C41.8978 51.551 28.7614 53.6271 22.1484 52.7814L22.4502 49.3987C26.1646 49.9956 30.5755 49.2461 35.0394 46.2348C44.2325 40.0331 44.982 29.6261 43.5527 23.3083C42.4052 18.2541 40.14 19.0799 39.2081 20.1511C40.2594 18.2442 41.6159 17.6439 43.0884 17.4316" fill="url(#paint10_linear_4796_4254)"/>
<path d="M55.4776 45.4813C54.1178 41.9393 51.2226 38.4737 46.3077 36.1289C36.2987 31.3666 26.9464 36.0096 22.237 40.4536C18.4663 44.0088 20.2803 45.541 21.6799 45.803C20.8878 45.8259 20.1008 45.6689 19.3782 45.3438C18.6555 45.0186 18.016 44.5338 17.5078 43.9259C17.667 41.0837 20.3765 35.6348 30.5911 32.0265C44.4969 27.1116 55.1857 35.7476 58.3098 43.2758L55.4776 45.4813Z" fill="url(#paint11_linear_4796_4254)"/>
<path d="M36.5244 17.9774C33.785 20.8627 31.9378 25.2802 32.2462 31.0839C32.8233 42.1509 41.3664 48.1635 47.5117 50.1866C52.4333 51.8083 52.9341 49.5962 52.4996 48.2431C53.4083 49.8814 53.3287 51.4236 52.7683 52.7866C48.8217 53.9009 40.9021 53.2443 33.2843 43.3713C23.4245 30.5898 31.049 19.9407 33.6159 16.359L34.0669 15.709L36.5244 17.9774Z" fill="url(#paint12_linear_4796_4254)"/>
<path fill-rule="evenodd" clip-rule="evenodd" d="M46.9523 31.8702C54.4408 34.6759 58.2779 41.9156 59.2695 45.1922L58.593 45.3945C57.6412 42.234 53.9135 35.2297 46.7069 32.5268C38.3694 29.3994 25.956 31.711 19.4028 39.9888C19.0269 40.5194 18.7174 41.0865 18.4742 41.6901C18.189 42.4031 18.0099 43.1062 18.0464 43.5838L17.3466 43.6402C17.2968 42.9901 17.529 42.1643 17.8242 41.4248C18.1293 40.6852 18.5206 39.9722 18.8522 39.5543C25.6144 31.0079 38.3661 28.6499 46.9523 31.8702Z" fill="url(#paint13_linear_4796_4254)"/>
<path fill-rule="evenodd" clip-rule="evenodd" d="M28.1849 32.5502C27.0838 24.6239 31.624 17.802 34.0284 15.3711L34.5259 15.8652C32.2044 18.2133 27.8201 24.8262 28.878 32.4507C30.1051 41.2691 38.0512 51.0824 48.4516 52.8965C48.8893 52.9761 49.6521 52.9794 50.4315 52.8898C51.2175 52.797 51.9471 52.6112 52.3517 52.3526L52.7297 52.9429C52.1825 53.2944 51.3203 53.4901 50.5144 53.5863C49.7892 53.6858 49.0596 53.6858 48.3255 53.5863C37.5969 51.7191 29.4418 41.6339 28.1849 32.5502Z" fill="url(#paint14_linear_4796_4254)"/>
<path fill-rule="evenodd" clip-rule="evenodd" d="M38.3808 48.9568C32.1525 53.9812 23.9676 53.6098 20.6445 52.7972L20.8104 52.114C24.0173 52.8967 31.9469 53.2416 37.9364 48.4129C44.8677 42.8281 49.1857 30.9586 45.3851 21.1055C45.1123 20.5021 44.7586 19.9386 44.3338 19.4307C43.833 18.8138 43.2891 18.2832 42.8546 18.0676L43.1664 17.4375C43.7368 17.726 44.3702 18.3528 44.8843 18.9929C45.3983 19.6363 45.8461 20.3493 46.0417 20.8567C49.9651 31.0249 45.5144 43.1995 38.3808 48.9568Z" fill="url(#paint15_linear_4796_4254)"/>
<defs>
<linearGradient id="paint0_linear_4796_4254" x1="60.2259" y1="19.1581" x2="17.3014" y2="59.8341" gradientUnits="userSpaceOnUse">
<stop stop-color="#0AE2FF"/>
<stop offset="0.189" stop-color="#047DA5"/>
<stop offset="0.278" stop-color="#0279C2"/>
<stop offset="0.42" stop-color="#018AF6"/>
<stop offset="0.553" stop-color="#0076ED"/>
<stop offset="0.744" stop-color="#4350D3"/>
<stop offset="0.873" stop-color="#910659"/>
<stop offset="1" stop-color="#CB006D"/>
</linearGradient>
<linearGradient id="paint1_linear_4796_4254" x1="37.8444" y1="8.00213" x2="37.8444" y2="67.6978" gradientUnits="userSpaceOnUse">
<stop stop-color="#016FD8"/>
<stop offset="1" stop-color="#003A72"/>
</linearGradient>
<linearGradient id="paint2_linear_4796_4254" x1="63.5776" y1="18.0921" x2="48.0203" y2="70.7072" gradientUnits="userSpaceOnUse">
<stop stop-color="#09DEFC"/>
<stop offset="0.269" stop-color="#028DF7"/>
<stop offset="0.483" stop-color="#0056AF"/>
<stop offset="0.795" stop-color="#3AA7F7"/>
<stop offset="1" stop-color="#086EE8"/>
</linearGradient>
<linearGradient id="paint3_linear_4796_4254" x1="37.8356" y1="7.99911" x2="37.8356" y2="67.6948" gradientUnits="userSpaceOnUse">
<stop stop-color="#344ABE"/>
<stop offset="1" stop-color="#392470"/>
</linearGradient>
<linearGradient id="paint4_linear_4796_4254" x1="47.4287" y1="66.2065" x2="2.77968" y2="30.2764" gradientUnits="userSpaceOnUse">
<stop stop-color="#3458D8"/>
<stop offset="0.131" stop-color="#0187F5"/>
<stop offset="0.463" stop-color="#0271C2"/>
<stop offset="0.81" stop-color="#01BCF8"/>
<stop offset="1" stop-color="#534BCF"/>
</linearGradient>
<linearGradient id="paint5_linear_4796_4254" x1="10.0058" y1="21.1263" x2="61.5696" y2="52.1051" gradientUnits="userSpaceOnUse">
<stop stop-color="#027ED5"/>
<stop offset="1" stop-color="#02517B"/>
</linearGradient>
<linearGradient id="paint6_linear_4796_4254" x1="11.913" y1="55.066" x2="70.826" y2="23.4439" gradientUnits="userSpaceOnUse">
<stop stop-color="#BD1493"/>
<stop offset="0.528" stop-color="#005AB9"/>
<stop offset="0.76" stop-color="#03DEFE"/>
<stop offset="1" stop-color="#06C1FD"/>
</linearGradient>
<linearGradient id="paint7_linear_4796_4254" x1="66.3527" y1="30.3811" x2="28.5089" y2="43.272" gradientUnits="userSpaceOnUse">
<stop stop-color="#08CDED"/>
<stop offset="0.33" stop-color="#06ACCF"/>
<stop offset="1" stop-color="#03618E"/>
</linearGradient>
<linearGradient id="paint8_linear_4796_4254" x1="16.6204" y1="58.1668" x2="35.1857" y2="18.038" gradientUnits="userSpaceOnUse">
<stop stop-color="#2660DE"/>
<stop offset="1" stop-color="#004988"/>
</linearGradient>
<linearGradient id="paint9_linear_4796_4254" x1="9.40699" y1="16.1655" x2="32.6419" y2="23.7701" gradientUnits="userSpaceOnUse">
<stop stop-color="#4C46C3"/>
<stop offset="0.244" stop-color="#4250D3"/>
<stop offset="0.585" stop-color="#3B54D6"/>
<stop offset="1" stop-color="#4F1964"/>
</linearGradient>
<linearGradient id="paint10_linear_4796_4254" x1="46.4811" y1="8.03289" x2="27.9588" y2="69.3536" gradientUnits="userSpaceOnUse">
<stop stop-color="#05B2FC"/>
<stop offset="1" stop-color="#7E2B9F"/>
</linearGradient>
<linearGradient id="paint11_linear_4796_4254" x1="10.1288" y1="58.1467" x2="65.669" y2="58.4087" gradientUnits="userSpaceOnUse">
<stop stop-color="#6340C6"/>
<stop offset="0.179" stop-color="#1F61E0"/>
<stop offset="1" stop-color="#0184EF"/>
</linearGradient>
<linearGradient id="paint12_linear_4796_4254" x1="25.8621" y1="10.0843" x2="42.6465" y2="70.7119" gradientUnits="userSpaceOnUse">
<stop stop-color="#04A9F0"/>
<stop offset="0.312" stop-color="#0167C3"/>
<stop offset="0.577" stop-color="#066DE9"/>
<stop offset="1" stop-color="#007AEF"/>
</linearGradient>
<linearGradient id="paint13_linear_4796_4254" x1="60.0555" y1="31.7508" x2="6.60137" y2="34.52" gradientUnits="userSpaceOnUse">
<stop stop-color="#03B0FB"/>
<stop offset="0.424" stop-color="#02DFFC"/>
<stop offset="1" stop-color="#AF75F4"/>
</linearGradient>
<linearGradient id="paint14_linear_4796_4254" x1="38.1607" y1="8.38007" x2="38.1607" y2="67.1372" gradientUnits="userSpaceOnUse">
<stop stop-color="#03AFFA"/>
<stop offset="1" stop-color="#00C2F9"/>
</linearGradient>
<linearGradient id="paint15_linear_4796_4254" x1="24.4584" y1="52.3993" x2="49.8258" y2="27.7052" gradientUnits="userSpaceOnUse">
<stop stop-color="#BB46D6"/>
<stop offset="0.672" stop-color="#02E8FD"/>
<stop offset="1" stop-color="#08DDFE"/>
</linearGradient>
</defs>
</svg>
