<svg width="75" height="75" viewBox="0 0 75 75" fill="none" xmlns="http://www.w3.org/2000/svg">
<path d="M17.42 41.3039C16.8201 36.615 17.7234 31.8567 20 27.7139C21.777 24.469 24.3673 21.7419 27.5167 19.8005C30.6162 17.8979 34.1733 16.8704 37.81 16.8272C41.4452 16.791 45.0222 17.7414 48.16 19.5772L52.9133 17.0505C49.1784 14.1895 44.6986 12.4644 40.0094 12.0813C35.3201 11.6983 30.6198 12.6736 26.47 14.8905C22.2604 17.1462 18.7586 20.5246 16.3533 24.6505C13.552 29.4373 12.2732 34.9631 12.6867 40.4939C12.76 41.4372 12.5567 42.3839 12.11 43.2172C11.6633 44.0472 10.9933 44.7172 10.18 45.1505L8 46.3072V51.7139L68 19.8272V14.4272L17.42 41.3039ZM68 25.2405L20.6333 50.3939L8 57.1072V62.5105L58.5933 35.6272C58.7111 36.5717 58.77 37.5217 58.77 38.4772C58.7742 42.2433 57.8259 45.9493 56.0133 49.2505C54.234 52.4979 51.6401 55.2263 48.4867 57.1672C45.3833 59.0672 41.82 60.0972 38.18 60.1339C34.541 60.1662 30.9614 59.21 27.8233 57.3672L27.57 57.5072L23.0867 59.8905C26.8356 62.7416 31.3198 64.4645 36.0133 64.8572C40.6933 65.237 45.3839 64.2639 49.5267 62.0539C53.7349 59.8009 57.2367 56.4261 59.6433 52.3039C62.4486 47.5113 63.7276 41.978 63.31 36.4405C63.2433 35.4972 63.4433 34.5539 63.89 33.7205C64.3252 32.8985 64.9961 32.2253 65.8167 31.7872L68 30.6305V25.2405Z" fill="white"/>
</svg>
