<svg width="75" height="75" viewBox="0 0 75 75" fill="none" xmlns="http://www.w3.org/2000/svg">
<path d="M67.0957 45.2571C63.089 61.3287 46.8111 71.1096 30.7376 67.1018C14.6708 63.0951 4.88998 46.8162 8.89846 30.7459C12.9034 14.6726 29.1813 4.89099 45.2498 8.8977C61.3222 12.9044 71.1024 29.1851 67.0953 45.2574L67.0956 45.2571H67.0957Z" fill="#2C7DF7"/>
<path d="M42.475 57.9999C39.6207 57.9999 37.5373 57.3124 36.2249 55.9374C35.0091 54.7735 34.3036 53.1756 34.2626 51.493C34.2478 50.9818 34.3663 50.4756 34.6063 50.0241C34.8302 49.6339 35.1537 49.3102 35.5437 49.086C36.4626 48.6276 37.5435 48.6276 38.4624 49.086C38.8517 49.3093 39.1737 49.6334 39.3945 50.0241C39.6415 50.4734 39.7644 50.9804 39.7506 51.493C39.7761 52.1051 39.6005 52.7088 39.2506 53.2118C38.959 53.6223 38.5422 53.9273 38.0627 54.0811C38.5316 54.6781 39.1951 55.0917 39.9376 55.2499C40.7684 55.4912 41.6288 55.6153 42.4938 55.6185C43.6391 55.6285 44.7608 55.2931 45.7126 54.6561C46.7 53.9585 47.4364 52.9613 47.8126 51.8124C48.2894 50.4449 48.5222 49.0043 48.5001 47.5563C48.5386 46.0466 48.2838 44.5438 47.7501 43.1312C47.3486 42.0013 46.5865 41.0349 45.5813 40.3811C44.647 39.7899 43.5625 39.4797 42.4569 39.4875C41.4935 39.5691 40.5645 39.8845 39.7506 40.4062L37.7438 41.4124V40.4062L46.7625 28.3076H34.2626V40.8625C34.2273 41.7685 34.4669 42.664 34.9501 43.4312C35.4255 44.1112 36.2221 44.4929 37.05 44.4374C37.8021 44.4222 38.5294 44.1658 39.1248 43.7062C39.7998 43.2115 40.3871 42.6073 40.8624 41.9186C40.9052 41.7978 40.9841 41.6932 41.0884 41.6188C41.1721 41.5464 41.2791 41.5065 41.3897 41.5063C41.6069 41.5261 41.8124 41.6135 41.9773 41.7561C42.1862 41.9896 42.2999 42.2929 42.296 42.6061C42.2718 42.8166 42.2343 43.0254 42.1835 43.2311C41.7394 44.3059 40.9951 45.2299 40.0396 45.8927C39.1521 46.4933 38.104 46.8117 37.0324 46.8062C34.3261 46.8062 32.4512 46.2729 31.4078 45.2062C30.3244 44.0153 29.7658 42.4385 29.8578 40.8311V28.3076H23.5V25.9749H29.8874V20.6561L28.425 19.1927V18H32.6686L34.2626 18.8251V25.9749L50.7748 25.9247L52.4187 27.5746L42.2937 37.7489C42.9054 37.5029 43.5496 37.3471 44.2061 37.2864C45.5054 37.3433 46.7731 37.7051 47.9067 38.3427C49.2194 38.9667 50.3257 39.9539 51.0944 41.1874C51.7832 42.2316 52.2708 43.3953 52.532 44.6187C52.7467 45.5836 52.8619 46.5681 52.8757 47.5565C52.8824 49.4429 52.4547 51.3055 51.6258 53.0001C50.8396 54.641 49.5165 55.9641 47.8756 56.7502C46.1959 57.5779 44.3475 58.0056 42.475 57.9999Z" fill="white"/>
</svg>
